# MOD converted: m010.mod
# 937 verts, 998 faces

v 131.798538 -49.484982 0.000001
v 148.447556 -41.891804 0.000000
v 156.455566 -36.414852 -0.000000
v 160.163345 -16.759235 0.000001
v 126.545593 -42.324059 0.000000
v 106.082001 -37.336979 0.000001
v 103.347855 -21.879074 0.000000
v 121.212524 21.865707 0.000000
v 145.504242 13.768899 0.000000
v 155.167038 5.246518 0.000001
v 131.312393 17.443336 0.000001
v 121.519669 -49.644783 -0.000000
v 172.945099 -3.891548 0.000000
v 166.065582 9.641714 -0.000000
v 105.803535 33.380375 -0.000000
v 90.324600 38.902435 0.000001
v 58.794189 -30.171232 -0.000000
v 67.428711 37.141846 0.000002
v 42.750927 -25.562140 -0.000003
v 55.347992 36.148903 0.000001
v 34.288704 -18.228519 -0.000001
v 43.274887 34.530762 0.000001
v 29.741974 -7.072642 0.000000
v 31.639023 22.593649 0.000001
v 100.079994 -21.712181 0.000001
v 85.075691 -28.564747 0.000001
v 63.900028 -34.959259 -0.000000
v 77.896271 39.399345 0.000000
v 27.741531 5.408789 -10.921666
v 132.962555 -45.256599 -17.213383
v 109.291100 -32.375206 -18.265739
v 145.350281 7.765386 -10.304748
v 147.424103 -38.434994 -12.697029
v 155.012375 -34.176880 -10.637643
v 157.978058 -4.510624 -20.986578
v 144.353180 -36.416882 -13.919991
v 136.338684 -38.795143 -22.946669
v 136.251984 -38.433880 -30.302252
v 130.172226 -29.090397 -19.905079
v 154.415573 -38.063480 -22.517441
v 153.216095 -16.124451 -26.954628
v 146.929047 -30.531961 -15.070530
v 128.275391 -38.503105 -22.798496
v 126.945992 -37.094177 -24.360407
v 117.433044 -35.648369 -29.252834
v 117.544258 -18.145626 -29.479504
v 128.621094 -4.540191 -29.036629
v 138.019226 -8.587375 -21.927032
v 119.453491 4.199224 -26.171318
v 122.403687 -0.231513 -16.457573
v 128.837036 12.088768 -17.749931
v 120.948921 -47.371166 -12.656948
v 124.613029 -41.364281 -21.447147
v 124.229500 -40.646626 -16.923584
v 133.525848 -51.181339 -22.729338
v 116.873634 10.597001 -7.610039
v 169.769394 2.875350 -30.448744
v 135.849640 -16.448601 -32.634911
v 125.407036 -13.857326 -23.755781
v 114.047279 -7.672597 -23.266535
v 112.531830 -5.268164 -43.993259
v 138.005356 -4.688022 -20.520882
v 153.170197 -29.279076 -22.210978
v 105.801926 27.881762 -27.757652
v 87.086899 -18.260994 -22.922300
v 90.434547 32.580952 -30.751997
v 68.714005 -18.251534 -26.363081
v 67.432159 28.663069 -31.125740
v 60.520325 -18.918575 -27.775902
v 55.668880 27.030783 -29.536657
v 47.718735 -16.064735 -14.184322
v 42.475849 32.499287 -29.327759
v 38.975040 -13.373765 -32.755684
v 115.735313 9.851713 -33.073708
v 113.912476 -4.287539 -32.393543
v 104.478661 19.544527 -32.978092
v 102.148018 -9.446296 -34.184109
v 88.099724 15.240119 -35.865559
v 87.485374 -1.889185 -40.147346
v 64.289734 6.600516 -40.871323
v 53.637054 6.760110 -40.345669
v 43.300148 6.781390 -42.006813
v 113.070465 9.317224 -42.547386
v 111.309128 -2.495561 -40.043987
v 103.879135 17.951624 -41.734970
v 101.538803 -8.215075 -38.767300
v 91.067818 12.825225 -39.923443
v 91.495544 -1.076635 -60.287781
v 109.405418 6.886588 -60.356094
v 106.916725 -3.223585 -60.370010
v 103.478462 14.116330 -60.378300
v 93.374870 8.773483 -60.405499
v 94.779297 -1.831012 -68.967735
v 111.972328 8.137908 -67.787041
v 107.921623 -4.872605 -69.447830
v 103.781036 15.593764 -68.756912
v 92.085800 8.834031 -68.116776
v 94.033531 -3.456931 -81.515274
v 107.967003 9.612311 -81.709488
v 108.105942 1.197532 -84.226967
v 101.966385 13.070154 -84.229927
v 102.097290 -2.611033 -82.259064
v 95.945068 9.266787 -82.393196
v 95.223846 -0.705242 -86.066170
v 106.706818 9.435554 -86.069115
v 107.106728 0.982625 -86.076668
v 95.954094 9.225574 -86.079620
v 95.563072 -0.223476 -96.824959
v 108.972069 11.167573 -97.153976
v 109.647392 -0.126699 -97.975166
v 101.811890 17.689264 -97.423607
v 104.408875 -5.893139 -104.584808
v 99.711861 10.389217 -98.404404
v 97.568222 -2.193662 -106.007957
v 109.167397 12.198544 -105.480423
v 109.041023 0.397584 -106.010590
v 102.506447 17.741648 -105.203979
v 103.477287 -5.446773 -104.938683
v 99.534958 0.366422 -13.886429
v 31.744316 22.102051 -12.204572
v 30.749878 -6.810482 -37.210815
v 24.879822 6.800239 -29.152693
v 32.409492 -9.572987 -15.770437
v 22.999992 16.989502 -14.838074
v 22.259102 1.039607 -28.068186
v 25.431740 -5.978972 -26.935810
v 20.877991 -4.262133 -18.143032
v 14.129440 14.735090 -17.698414
v 14.152405 3.492449 -32.266464
v 14.127274 7.615855 -25.802858
v 14.136337 -1.006943 -18.354006
v 11.610252 14.521386 -17.864622
v 11.668144 4.767797 -28.563042
v 11.615791 15.820551 -30.948362
v 11.670563 4.656142 -16.426081
v 0.243332 16.229767 -16.026472
v 0.262009 -3.549821 -30.192961
v 0.244171 17.743896 -35.988400
v 0.261147 -1.359566 -25.438171
v 11.847198 0.566103 -25.294977
v 0.273300 -8.966944 -29.875580
v 24.265633 18.090992 -27.434164
v 14.123802 15.944909 -16.205381
v 5.576408 -3.003933 -34.985718
v 5.599754 -1.843003 -25.206518
v 5.622337 -8.952871 -23.344418
v 103.510246 -11.757996 -29.432163
v 72.693939 -24.290966 -107.646729
v 104.162704 5.777046 -118.090469
v 107.658966 0.443935 -118.229912
v 104.164787 -4.041970 -118.241310
v 100.191505 0.388628 -118.213371
v 103.905029 4.630168 -119.001617
v 107.986488 12.506611 -118.404442
v 103.579643 16.899605 -118.934303
v 99.908699 12.228336 -119.456528
v 103.418121 7.312017 -125.757614
v 103.619080 0.320023 -126.567413
v 102.736923 13.344307 -90.132996
v 101.515526 -7.746159 -91.885696
v 94.363228 -4.966152 -103.824844
v 97.933746 -9.597550 -102.241600
v 91.327599 -7.264988 -97.514778
v 96.898926 -13.199222 -98.656006
v 90.764015 -10.730891 -108.846909
v 90.195381 -14.241373 -14.748624
v 120.043694 17.055456 -35.707859
v 8.551407 4.488919 -27.301645
v 9.942657 -6.327754 -15.654234
v 7.925095 17.112400 -14.810782
v 9.257118 1.244271 -30.255928
v 6.970604 19.477798 -18.935663
v 40.814255 43.286453 -56.330338
v 101.853462 -10.814071 -58.141457
v 111.768684 11.003846 -57.831635
v 124.621223 3.404987 -55.032211
v 105.743134 21.043791 -47.314121
v 117.693420 2.569607 -58.705196
v 110.760712 -3.035017 -48.690475
v 107.616104 -10.851804 -46.542290
v 112.371910 16.771975 -55.790359
v 113.801620 -12.290968 -54.212326
v 118.064339 18.403980 -25.741653
v 105.705498 -16.841896 -24.911907
v 117.858719 6.601096 -29.689697
v 126.398636 -2.341632 -21.914713
v 111.870911 15.812869 -26.334831
v 114.767921 -8.154960 -37.225433
v 110.113068 -12.753309 -35.755295
v 119.571037 -0.080338 -33.614826
v 114.220497 14.985259 -29.302755
v 116.321182 -17.508310 -27.114567
v 121.976402 14.609001 -32.503391
v 20.906670 -5.446684 -37.331364
v 19.533279 1.892746 -44.882603
v 21.191429 8.183156 -34.613945
v 22.726280 21.198849 -43.159775
v 38.546051 6.166390 -36.427223
v 20.144424 13.571135 -36.851635
v 27.823196 -3.628065 -40.779457
v 26.782043 7.092560 -38.126938
v 28.153519 17.453220 -40.938080
v 22.123970 -4.618555 -42.123356
v 22.869217 18.589106 -37.387104
v 45.546013 -6.715958 -40.494232
v 46.127064 12.582375 -48.495838
v 41.734509 6.573368 -39.384140
v 46.174706 21.091938 -41.338932
v 45.632462 0.688426 -39.344231
v 38.160927 -4.283555 -40.898804
v 38.311619 17.775612 -44.450260
v 41.939461 -6.806737 -45.664452
v 42.331043 17.612476 -38.098354
v 74.907196 7.010760 -25.520567
v 78.471291 31.081081 -9.122653
v 176.383698 28.562241 -30.770866
v 42.390285 26.858694 -30.809864
v 33.469345 21.842793 -15.634075
v 36.551498 -16.737328 -7.540752
v 28.412865 5.559251 -16.265314
v 107.314995 -15.415619 -37.064320
v 129.296844 -5.471058 -35.401619
v 131.088272 -1.362944 -0.000000
v 179.477081 9.324236 -8.009811
v 191.346405 2.261282 -16.909369
v 184.944946 14.980122 -42.882671
v 46.160690 15.610931 -21.276115
v 33.064636 -25.848324 -27.807137
v 34.419456 -24.223476 -41.358017
v 44.562347 -6.654119 -41.135445
v 50.310482 26.875494 -33.277340
v 52.937607 33.427711 -23.562649
v 55.269882 40.567024 -8.672815
v 57.531654 45.859730 -9.995377
v 47.397175 -21.065956 -22.163193
v 48.649551 -17.170820 -23.074909
v 51.312256 -17.261219 -32.410267
v 50.306980 -7.201243 -35.137917
v 51.301071 1.617604 -32.075989
v 52.953651 17.593067 -26.482864
v 55.503582 32.038559 -13.375641
v 55.958694 37.424713 -0.000003
v 54.524830 39.507690 -20.253750
v 54.351292 29.354088 -0.000003
v 50.802876 33.409718 -36.278931
v 37.191544 -20.738317 -27.627987
v 55.733223 22.134354 -25.681967
v 56.640747 24.930731 -15.960344
v 57.109184 28.027023 -32.703667
v 40.656372 39.046646 -30.921333
v 34.631546 -20.407959 -40.214142
v 43.584381 -17.538879 -41.265648
v 50.331314 21.756502 -36.768864
v 45.763046 33.296402 -23.810394
v 40.247410 36.323147 -8.023590
v 38.370144 41.826569 -10.564499
v 33.154991 -27.414368 -27.981430
v 49.795799 -12.022207 -31.344799
v 50.931583 -6.553720 -30.639549
v 55.002998 20.468487 -24.902281
v 55.120846 27.559933 -14.349316
v 50.161087 30.114746 -0.000003
v 53.948292 36.425919 -2.247802
v 48.215706 -23.879562 -14.829706
v 46.489506 -21.755173 -36.015091
v 53.007889 -1.539930 -36.539551
v 54.706276 12.357938 -0.181486
v 54.593266 34.847168 -5.975644
v 51.179508 32.253593 -18.424793
v 47.401337 45.336082 -9.904938
v 54.782700 31.385921 -11.506279
v 53.745842 32.354099 -18.455109
v 55.388458 29.147320 -35.436478
v 54.465439 13.647377 -47.355518
v 48.369278 7.613861 -14.788616
v 45.028610 -19.376804 -17.967110
v 49.144020 -19.349951 -6.436065
v 46.463383 -23.630470 -28.401766
v 49.308304 -15.349680 -16.948347
v 34.084488 -26.211159 -44.134327
v 46.411118 4.836365 -30.185654
v 46.994659 -12.835753 -14.080812
v 48.104149 -19.297213 -35.877487
v 55.413914 10.984987 -22.510303
v 47.540062 -18.155109 -31.006260
v 50.306988 -12.794762 -42.422272
v 39.602337 -11.848172 -33.689560
v 50.885612 -5.116035 -38.991623
v 54.011719 3.956084 -27.588469
v 54.326740 24.838661 -27.588469
v 54.326740 24.838661 -46.545395
v 47.844162 2.234989 -35.554222
v 51.600983 0.323998 -38.621548
v 55.289627 7.977104 -31.335808
v 53.954269 -7.050883 -37.127724
v 53.989075 1.250934 -43.955734
v 43.989906 -0.365839 -3.478313
v 100.784950 -31.151194 -22.932358
v 99.785851 -24.483141 -34.233673
v 114.120827 -10.340571 -31.026934
v 125.321045 14.496644 -27.209930
v 127.483612 18.041086 -19.716463
v 130.560867 24.616228 -5.633753
v 125.874977 26.006922 0.000001
v 105.038628 -20.528625 -10.852399
v 106.073914 -23.081873 -14.518008
v 106.384285 -11.477142 -22.551371
v 110.584373 -13.659558 -22.825174
v 114.885094 -6.633776 -21.738436
v 123.403534 10.884782 -18.568548
v 123.773216 16.461990 -8.688660
v 120.806053 19.000584 0.000000
v 122.354156 21.989136 -6.783397
v 105.324860 -20.485035 -18.014957
v 119.117096 6.008427 -13.156597
v 122.087425 13.288859 0.000000
v 117.013214 17.645416 -28.491926
v 109.214027 -25.417349 -26.709311
v 119.898323 6.547554 -16.682705
v 115.064728 9.909031 -10.367651
v 125.147804 11.532956 -24.822828
v 124.151161 27.263624 -5.824459
v 95.442017 -29.255198 -14.911433
v 98.841553 -26.037483 -29.612036
v 106.236488 -16.960192 -33.688545
v 109.742043 -9.633719 -31.537483
v 116.549889 6.927686 -26.851767
v 115.381836 17.942106 -17.463539
v 113.209572 27.243433 -5.212031
v 112.084564 34.668777 0.000001
v 101.319244 -25.325760 -9.885422
v 102.962891 -21.453461 -20.008539
v 107.609596 -20.149088 -24.463156
v 111.874123 -13.310875 -28.641960
v 116.078209 -0.617893 -22.294451
v 121.161629 8.428193 -20.612410
v 121.796730 20.404276 -9.765984
v 118.774940 23.423632 -0.000000
v 121.752769 24.532610 0.000001
v 105.007912 -21.220661 -11.347641
v 107.456474 -19.714512 -23.559778
v 112.898048 -8.219445 -21.303888
v 118.357971 1.972196 -11.353911
v 123.362389 14.471158 -0.117881
v 123.002586 17.351860 -0.487324
v 123.937218 16.398270 -13.006344
v 120.980347 31.548559 -7.894106
v 125.865601 11.367305 -6.496215
v 55.347996 32.915100 -23.580769
v 56.966164 25.851295 0.000000
v 164.292267 -1.138071 -39.229958
v 134.383072 -4.945396 -36.979919
v 138.615311 -6.631507 -36.159935
v 139.537628 -3.713402 -38.658115
v 135.781754 -2.130975 10.921668
v 132.962555 -45.256596 17.213392
v 109.291100 -32.375202 18.265741
v 145.350281 7.765381 10.304749
v 147.424103 -38.434994 12.697030
v 155.012375 -34.176880 10.637643
v 157.978058 -4.510624 20.986578
v 144.353180 -36.416878 13.919991
v 136.338684 -38.795139 22.946680
v 136.251984 -38.433876 30.302261
v 130.172226 -29.090391 19.905077
v 154.415573 -38.063480 22.517445
v 153.216095 -16.124443 26.954636
v 146.929047 -30.531954 15.070553
v 128.275391 -38.503094 22.798494
v 126.945992 -37.094177 24.360407
v 117.433044 -35.648365 29.252842
v 117.544258 -18.145618 29.479504
v 128.621094 -4.540190 29.036633
v 138.019226 -8.587365 21.927032
v 119.453491 4.199224 26.171318
v 122.403687 -0.231512 16.457575
v 128.837036 12.088766 17.749945
v 120.948921 -47.371162 12.656949
v 124.613029 -41.364281 21.447149
v 124.229500 -40.646629 16.923599
v 133.525848 -51.181339 22.729338
v 116.873634 10.597003 7.610040
v 169.769394 2.875350 30.448750
v 135.849640 -16.448593 32.634911
v 125.407036 -13.857322 23.755781
v 114.047279 -7.672594 23.266535
v 112.531830 -5.268162 43.993259
v 138.005356 -4.688018 20.520882
v 153.170197 -29.279078 22.210979
v 105.801926 27.881760 27.757660
v 87.086899 -18.260984 22.922300
v 90.434547 32.580952 30.751999
v 68.714005 -18.251530 26.363079
v 67.432159 28.663071 31.125748
v 60.520325 -18.918564 27.775902
v 55.668877 27.030781 29.536663
v 47.718727 -16.064730 14.184316
v 42.475842 32.499287 29.327759
v 38.975048 -13.373762 32.755688
v 115.735275 9.850694 33.073711
v 113.911415 -4.288425 32.393547
v 104.482033 19.543514 32.978092
v 102.144455 -9.446377 34.184101
v 88.100334 15.241756 35.865551
v 87.483910 -1.887464 40.147346
v 64.289734 6.600517 40.871323
v 53.637058 6.760109 40.345669
v 43.300148 6.781391 42.006832
v 113.070137 9.313147 42.547398
v 111.304520 -2.498999 40.043991
v 103.881935 17.950863 41.734970
v 101.535469 -8.215019 38.767292
v 91.068443 12.827805 39.923431
v 91.492821 -1.074149 60.287792
v 109.404610 6.884810 60.356094
v 106.913490 -3.224761 60.370014
v 103.479401 14.115983 60.378296
v 93.374519 8.775577 60.405487
v 94.776390 -1.829260 68.967735
v 111.972008 8.136446 67.787025
v 107.919800 -4.873301 69.447830
v 103.781837 15.593523 68.756897
v 92.085587 8.835529 68.116760
v 94.031883 -3.455951 81.515274
v 107.967003 9.612312 81.709473
v 108.105942 1.197533 84.226967
v 101.966385 13.070154 84.229904
v 102.097290 -2.611033 82.259064
v 95.945068 9.266785 82.393188
v 95.223846 -0.705241 86.066170
v 106.706818 9.435554 86.069115
v 107.106728 0.982625 86.076668
v 95.954094 9.225574 86.079605
v 95.563072 -0.223476 96.824951
v 108.972061 11.167572 97.153961
v 109.647392 -0.126700 97.975174
v 101.811890 17.689266 97.423584
v 104.408867 -5.893137 104.584808
v 99.711861 10.389217 98.404396
v 97.568222 -2.193662 106.007965
v 109.167397 12.198545 105.480415
v 109.041023 0.397583 106.010605
v 102.506447 17.741648 105.203957
v 103.477310 -5.446772 104.938667
v 99.534958 0.366424 13.886429
v 31.744316 22.102051 12.204571
v 30.749878 -6.810478 37.210815
v 24.879837 6.800353 29.152695
v 32.409492 -9.572986 15.770437
v 22.999992 16.989502 14.838074
v 22.259102 1.039607 28.068192
v 25.431740 -5.978971 26.935804
v 20.877991 -4.262134 18.143032
v 14.129440 14.735088 17.698410
v 14.152405 3.492453 32.266464
v 14.127274 7.615860 25.802856
v 14.136337 -1.006943 18.354006
v 11.610252 14.521386 17.864620
v 11.668144 4.767797 28.563042
v 11.615791 15.820551 30.948362
v 11.670563 4.656143 16.426083
v 0.243332 16.229767 16.026472
v 0.262009 -3.549820 30.192963
v 0.244171 17.743896 35.988400
v 0.261147 -1.359566 25.438171
v 11.847198 0.566103 25.294977
v 0.273300 -8.966945 29.875580
v 24.265633 18.090992 27.434164
v 14.123802 15.944908 16.205381
v 5.576408 -3.003933 34.985718
v 5.599754 -1.843003 25.206518
v 5.622337 -8.952872 23.344418
v 103.510246 -11.757994 29.432173
v 72.693939 -24.290955 107.646721
v 104.162704 5.777046 118.090462
v 107.658966 0.443935 118.229897
v 104.164787 -4.041971 118.241295
v 100.191505 0.388629 118.213364
v 103.905029 4.630168 119.001633
v 107.986488 12.506611 118.404449
v 103.579643 16.899605 118.934311
v 99.908699 12.228336 119.456528
v 103.418121 7.312017 125.757584
v 103.619080 0.320022 126.567421
v 102.736923 13.344306 90.132973
v 101.515541 -7.746155 91.885674
v 94.363228 -4.966148 102.816025
v 97.933464 -9.597549 102.571274
v 91.144653 -7.264990 96.835480
v 95.670517 -13.199223 99.168083
v 89.882713 -10.730889 109.270004
v 91.341850 -14.241376 14.748624
v 120.043694 17.055456 35.707859
v 8.551407 4.488919 27.301643
v 9.942657 -6.327753 15.654235
v 7.925095 17.112400 14.810783
v 9.257118 1.244273 30.255928
v 6.970604 19.477798 18.935658
v 40.814243 43.286453 56.330338
v 101.845840 -10.814022 58.141472
v 111.768967 11.000316 57.831665
v 124.618759 3.396803 55.032211
v 105.747047 21.042427 47.314140
v 117.690651 2.563881 58.705208
v 110.755913 -3.038179 48.690483
v 107.608475 -10.853872 46.542301
v 112.374283 16.768171 55.790379
v 113.793472 -12.295247 54.212349
v 118.067299 18.398151 25.741659
v 105.695702 -16.843380 24.911926
v 117.857407 6.595208 29.689728
v 126.394089 -2.350590 21.914728
v 111.872932 15.809134 26.334848
v 114.761269 -8.159727 37.225445
v 110.104752 -12.756340 35.755322
v 119.567307 -0.086796 33.614841
v 114.222221 14.980726 29.302774
v 116.311150 -17.513620 27.114594
v 121.977989 14.601632 32.503387
v 20.906670 -5.446685 37.331360
v 19.533279 1.892745 44.882607
v 21.191429 8.183146 34.613945
v 22.726280 21.198849 43.159775
v 38.546051 6.166390 36.427227
v 20.144424 13.571136 36.851635
v 27.823196 -3.628066 40.779461
v 26.782043 7.092543 38.126938
v 28.153519 17.453220 40.938076
v 22.123970 -4.618561 42.123356
v 22.869217 18.589104 37.387100
v 45.546013 -6.715960 40.494232
v 46.127064 12.582373 48.495834
v 41.734512 6.573355 39.384140
v 46.174706 21.091938 41.338932
v 45.632465 0.688422 39.344227
v 38.160927 -4.283560 40.898804
v 38.311619 17.775612 44.450260
v 41.939461 -6.806738 45.664455
v 42.331043 17.612474 38.098354
v 74.907196 7.010757 25.520569
v 78.471291 31.081079 9.122656
v 172.914352 29.879187 30.770861
v 42.390285 26.858690 30.809864
v 33.469345 21.842793 15.634075
v 36.551498 -16.737326 7.540751
v 28.412865 5.559251 16.265316
v 107.314995 -15.415618 37.064320
v 129.296844 -5.471055 35.401623
v 131.088272 -1.362932 8.009813
v 188.670456 -5.467312 16.909370
v 181.461578 20.744860 42.882671
v 46.160683 15.610931 21.276114
v 33.064629 -25.848324 27.807148
v 34.419464 -24.223473 41.358021
v 44.562347 -6.654121 41.135445
v 50.310478 26.875496 33.277336
v 52.937603 33.427711 23.562645
v 55.269878 40.567024 8.672809
v 57.531654 45.859730 9.995386
v 47.397171 -21.065954 22.163195
v 48.649544 -17.170818 23.074909
v 51.312256 -17.261219 32.410271
v 50.306976 -7.201246 35.137917
v 51.301071 1.617605 32.075989
v 52.953651 17.593065 26.482861
v 55.503586 32.038559 13.375638
v 55.958694 37.424713 20.253748
v 54.351288 29.354088 36.278931
v 37.191559 -20.738316 27.627985
v 55.733219 22.134354 25.681965
v 56.640751 24.930729 15.960340
v 57.109184 28.027020 32.703663
v 40.656368 39.046642 30.921343
v 34.631546 -20.407953 40.214149
v 43.584381 -17.538876 41.265648
v 50.331314 21.756502 36.768860
v 45.763046 33.296402 23.810390
v 40.247410 36.323143 8.023586
v 38.370148 41.826569 10.564503
v 33.154991 -27.414366 27.981436
v 49.795799 -12.022202 31.344803
v 50.931580 -6.553718 30.639545
v 55.002998 20.468485 24.902279
v 55.120846 27.559933 14.349313
v 50.161087 30.114744 2.247808
v 48.215714 -23.879560 14.829708
v 46.489502 -21.755173 36.015091
v 53.007889 -1.539923 36.539555
v 54.706276 12.357937 0.181480
v 54.593262 34.847168 5.975642
v 51.179504 32.253593 18.424789
v 47.401329 45.336079 9.904934
v 54.782700 31.385921 11.506276
v 53.745842 32.354099 18.455107
v 55.388458 29.147322 35.436474
v 54.465439 13.647379 47.355522
v 48.369278 7.613863 14.788620
v 45.028603 -19.376808 17.967115
v 49.144016 -19.349949 6.436071
v 46.463390 -23.630470 28.401772
v 49.308304 -15.349674 16.948351
v 34.084488 -26.211153 44.134331
v 46.411118 4.836365 30.185658
v 46.994659 -12.835752 14.080816
v 48.104149 -19.297211 35.877487
v 55.413914 10.984991 22.510305
v 47.540054 -18.155109 31.006262
v 50.306984 -12.794761 42.422276
v 39.602337 -11.848171 33.689560
v 50.885612 -5.116037 38.991623
v 54.011719 3.956085 27.588467
v 54.326740 24.838659 27.588467
v 54.326740 24.838659 46.545395
v 47.844158 2.234986 35.554222
v 51.600983 0.324005 38.621548
v 55.289627 7.977105 31.335808
v 53.954269 -7.050882 37.127724
v 53.989071 1.250941 43.955738
v 43.989906 -0.365837 3.478310
v 100.784943 -31.151194 22.932364
v 99.785851 -24.483139 34.233673
v 114.120827 -10.340572 31.026937
v 125.321045 14.496642 27.209930
v 127.483612 18.041084 19.716463
v 130.560867 24.616228 5.633754
v 125.874977 26.006922 10.852399
v 106.073914 -23.081871 14.518010
v 106.384277 -11.477139 22.551374
v 110.584373 -13.659557 22.825178
v 114.885094 -6.633777 21.738436
v 123.403534 10.884784 18.568550
v 123.773216 16.461992 8.688660
v 120.806053 19.000584 6.783398
v 105.324860 -20.485031 18.014956
v 119.117096 6.008427 13.156597
v 122.087425 13.288859 28.491928
v 109.214020 -25.417345 26.709311
v 119.898323 6.547553 16.682705
v 115.064728 9.909029 10.367652
v 125.147804 11.532956 24.822828
v 124.151161 27.263624 5.824461
v 95.442017 -29.255198 14.911435
v 98.841553 -26.037481 29.612036
v 106.236481 -16.960190 33.688545
v 109.742043 -9.633719 31.537483
v 116.549889 6.927687 26.851763
v 115.381836 17.942104 17.463539
v 113.209572 27.243433 5.212030
v 112.084564 34.668777 9.885424
v 102.962891 -21.453459 20.008545
v 107.609596 -20.149084 24.463158
v 111.874123 -13.310870 28.641960
v 116.078209 -0.617897 22.294449
v 121.161621 8.428192 20.612410
v 121.796730 20.404276 9.765986
v 118.774940 23.423630 11.347642
v 107.456474 -19.714512 23.559782
v 112.898048 -8.219443 21.303888
v 118.357964 1.972195 11.353909
v 123.362389 14.471158 0.117882
v 123.002586 17.351860 0.487324
v 123.937218 16.398272 13.006344
v 120.980347 31.548561 7.894106
v 125.865601 11.367302 6.496211
v 55.347996 32.915104 23.580767
v 56.966164 25.851295 39.229961
v 134.383072 -4.945383 36.979923
v 138.615311 -6.631495 36.159939
v 139.537628 -3.713389 38.658115
v 135.781754 -2.130972 -97.216446
v 104.088989 26.228914 -107.241592
v 104.088989 26.228912 -97.216446
v 94.012100 26.228914 -107.241592
v 94.012100 26.228912 -97.251732
v 104.150078 -68.196106 -106.642807
v 104.150154 -68.196121 -97.251732
v 93.944038 -68.196114 -106.642799
v 93.944046 -68.196121 -99.081596
v 102.161453 -35.617523 -104.812927
v 102.161514 -35.617523 -104.812927
v 95.932716 -35.617527 -99.081596
v 95.932716 -35.617523 -99.081596
v 102.161476 -61.068481 -104.812935
v 102.161362 -61.068493 -104.812935
v 95.932755 -61.068489 -99.081596
v 95.932693 -61.068485 -110.738983
v 100.718040 -31.990644 -110.738983
v 97.383018 -31.990643 -110.738983
v 100.718109 -64.695366 -110.738983
v 97.383049 -64.695366 -122.943024
v 100.831047 -29.521032 -122.943092
v 97.265587 -29.446205 -122.942932
v 100.831436 -66.972778 -122.942825
v 97.281685 -66.776199 -139.496841
v 100.401817 -17.082769 -139.496841
v 97.699265 -17.082771 -139.496765
v 100.401863 -79.215813 -139.496765
v 97.699303 -79.215820 -151.133484
v 99.050552 -27.932240 -151.132812
v 99.050575 -68.210625 -114.394241
v 102.417427 -71.447021 -114.463242
v 102.417847 -25.320353 -114.467430
v 95.683350 -25.316851 -114.295540
v 95.683388 -71.361595 -156.844482
v 99.050568 -47.399643 -94.088470
v 99.002975 -55.591148 -99.660416
v 99.024124 -52.450314 -99.660423
v 101.938240 -55.568573 -99.660416
v 98.981880 -58.731983 -99.660423
v 96.067924 -55.613728 -94.088470
v 99.002968 -48.538620 -99.660431
v 99.024117 -45.397797 -99.660416
v 101.938133 -48.516045 -99.660423
v 98.981895 -51.679451 -99.660423
v 96.067924 -48.561192 -94.088470
v 99.003029 -41.068924 -99.660423
v 99.024117 -37.928082 -99.660431
v 101.938026 -41.046349 -99.660423
v 98.981911 -44.209751 -99.660423
v 96.067940 -41.091492 -21.447147
v 124.229500 -40.646626 -17.749931
v 120.948921 -47.371166 -12.656948
v 124.613029 -41.364281 -12.656948
v 124.613029 -41.364281 -0.000000
v 160.163345 -16.759235 -29.479504
v 128.621094 -4.540191 -35.401619
v 131.088272 -1.362944 -30.448744
v 135.849640 -16.448601 -29.036629
v 138.019226 -8.587375 -22.729338
v 116.873634 10.597001 0.000000
v 121.212524 21.865707 -14.748624
v 120.043694 17.055456 -23.266535
v 112.531830 -5.268164 -33.073708
v 113.912476 -4.287539 -32.755684
v 115.735313 9.851713 -32.393543
v 104.478661 19.544527 -32.978092
v 102.148018 -9.446296 -34.184109
v 88.099724 15.240119 -35.865559
v 87.485374 -1.889185 -39.923443
v 91.495544 -1.076635 -35.865559
v 87.485374 -1.889185 -60.405499
v 94.779297 -1.831012 -68.116776
v 94.033531 -3.456931 -82.393196
v 95.223846 -0.705242 -86.079620
v 95.563072 -0.223476 -91.885696
v 94.363228 -4.966152 -98.404404
v 97.568222 -2.193662 -104.938683
v 99.534958 0.366422 -7.540752
v 28.412865 5.559251 -14.838074
v 22.259102 1.039607 -15.770437
v 22.999992 16.989502 -14.838074
v 22.259102 1.039607 -26.935810
v 20.877991 -4.262133 -37.210815
v 24.879822 6.800239 -29.875580
v 24.265633 18.090992 -16.426081
v 0.243332 16.229767 -16.026472
v 0.262009 -3.549821 -25.294977
v 0.273300 -8.966944 -30.192961
v 0.244171 17.743896 -28.563042
v 11.615791 15.820551 -18.354006
v 11.610252 14.521386 -28.563042
v 11.615791 15.820551 -30.192961
v 0.244171 17.743896 -14.838074
v 22.259102 1.039607 -17.698414
v 14.152405 3.492449 -35.988400
v 0.261147 -1.359566 -18.354006
v 11.610252 14.521386 -107.646729
v 104.162704 5.777046 -118.213371
v 103.905029 4.630168 -118.241310
v 100.191505 0.388628 -119.456528
v 103.418121 7.312017 -125.757614
v 103.619080 0.320023 -98.404404
v 97.568222 -2.193662 -102.241600
v 91.327599 -7.264988 -14.810782
v 9.257118 1.244271 -40.871323
v 53.637054 6.760110 -27.775902
v 55.668880 27.030783 0.000000
v 27.741531 5.408789 0.000001
v 103.347855 -21.879074 -16.265314
v 107.314995 -15.415619 -32.634911
v 125.407036 -13.857326 -29.479504
v 128.621094 -4.540191 -29.036629
v 138.019226 -8.587375 0.000000
v 164.292267 -1.138071 -0.000000
v 179.477081 9.324236 -0.000000
v 179.477081 9.324236 0.000000
v 164.292267 -1.138071 -11.506279
v 53.745842 32.354099 -0.000003
v 53.948292 36.425919 -36.159935
v 139.537628 -3.713402 -38.658115
v 135.781754 -2.130975 -43.993259
v 138.005356 -4.688022 0.000000
v 106.082001 -37.336979 0.000000
v 156.455566 -36.414852 0.000001
v 148.447556 -41.891804 -0.000000
v 160.163345 -16.759235 0.000001
v 131.798538 -49.484982 0.000000
v 155.167038 5.246518 0.000000
v 145.504242 13.768899 0.000001
v 126.545593 -42.324059 0.000001
v 131.312393 17.443336 0.000000
v 31.639023 22.593649 0.000001
v 103.347855 -21.879074 0.000000
v 121.212524 21.865707 0.000001
v 121.519669 -49.644783 21.447149
v 124.229500 -40.646629 17.749945
v 120.948921 -47.371162 12.656949
v 124.613029 -41.364281 12.656949
v 124.613029 -41.364281 0.000000
v 166.065582 9.641714 -0.000000
v 160.163345 -16.759235 -0.000000
v 172.945099 -3.891548 0.000000
v 27.741531 5.408789 29.479504
v 128.621094 -4.540190 35.401623
v 131.088272 -1.362932 30.448750
v 135.849640 -16.448593 29.036633
v 138.019226 -8.587365 22.729338
v 116.873634 10.597003 0.000000
v 121.212524 21.865707 -0.000000
v 105.803535 33.380375 14.748624
v 120.043694 17.055456 0.000001
v 100.079994 -21.712181 0.000001
v 85.075691 -28.564747 -0.000000
v 90.324600 38.902435 -0.000000
v 77.896271 39.399345 0.000001
v 58.794189 -30.171232 -0.000003
v 55.347992 36.148903 -0.000000
v 67.428711 37.141846 0.000002
v 42.750927 -25.562140 -0.000001
v 43.274887 34.530762 0.000001
v 34.288704 -18.228519 23.266535
v 112.531830 -5.268162 33.073711
v 113.911415 -4.288425 32.755688
v 115.735275 9.850694 32.393547
v 104.482033 19.543514 32.978092
v 102.144455 -9.446377 34.184101
v 88.100334 15.241756 35.865551
v 87.483910 -1.887464 39.923431
v 91.492821 -1.074149 35.865551
v 87.483910 -1.887464 60.405487
v 94.776390 -1.829260 68.116760
v 94.031883 -3.455951 82.393188
v 95.223846 -0.705241 86.079605
v 95.563072 -0.223476 91.885674
v 94.363228 -4.966148 98.404396
v 97.568222 -2.193662 104.938667
v 99.534958 0.366424 0.000001
v 29.741974 -7.072642 7.540751
v 28.412865 5.559251 14.838074
v 22.259102 1.039607 15.770437
v 22.999992 16.989502 14.838074
v 22.259102 1.039607 26.935804
v 20.877991 -4.262134 37.210815
v 24.879837 6.800353 29.875580
v 24.265633 18.090992 16.426083
v 0.243332 16.229767 16.026472
v 0.262009 -3.549820 25.294977
v 0.273300 -8.966945 30.192963
v 0.244171 17.743896 28.563042
v 11.615791 15.820551 18.354006
v 11.610252 14.521386 28.563042
v 11.615791 15.820551 30.192963
v 0.244171 17.743896 17.698410
v 14.152405 3.492453 14.838074
v 22.259102 1.039607 35.988400
v 0.261147 -1.359566 18.354006
v 11.610252 14.521386 0.000001
v 63.900028 -34.959259 107.646721
v 104.162704 5.777046 118.213364
v 103.905029 4.630168 118.241295
v 100.191505 0.388629 119.456528
v 103.418121 7.312017 125.757584
v 103.619080 0.320022 102.571274
v 91.144653 -7.264990 98.404396
v 97.568222 -2.193662 14.810783
v 9.257118 1.244273 40.871323
v 53.637058 6.760109 27.775902
v 55.668877 27.030781 0.000000
v 27.741531 5.408789 0.000001
v 103.347855 -21.879074 16.265316
v 107.314995 -15.415618 32.634911
v 125.407036 -13.857322 29.479504
v 128.621094 -4.540190 29.036633
v 138.019226 -8.587365 -0.000000
v 179.477081 9.324236 0.000000
v 164.292267 -1.138071 -0.000000
v 179.477081 9.324236 0.000000
v 164.292267 -1.138071 0.000000
v 164.292267 -1.138071 -0.000000
v 179.477081 9.324236 -0.000003
v 54.524830 39.507690 -0.000003
v 50.802876 33.409718 -0.000003
v 53.948292 36.425919 11.506276
v 53.745842 32.354099 -0.000003
v 53.948292 36.425919 0.000001
v 105.038628 -20.528625 0.000000
v 122.354156 21.989136 0.000000
v 117.013214 17.645416 0.000001
v 101.319244 -25.325760 -0.000000
v 121.752769 24.532610 0.000001
v 105.007912 -21.220661 36.159939
v 139.537628 -3.713389 38.658115
v 135.781754 -2.130972 43.993259
v 138.005356 -4.688018 -107.241592
v 104.088989 26.228912 -97.216446
v 104.088989 26.228914 -104.812927
v 102.161514 -35.617523 -99.081596
v 102.161453 -35.617523 -106.642807
v 104.150154 -68.196121 -104.812935
v 102.161362 -61.068493 -106.642799
v 93.944046 -68.196121 -99.081596
v 95.932716 -35.617523 -104.812927
v 95.932716 -35.617527 -104.812935
v 95.932755 -61.068489 -97.251732
v 93.944038 -68.196114 -106.642799
v 93.944046 -68.196121 -99.081596
v 102.161476 -61.068481 -99.081596
v 102.161453 -35.617523 -99.081596
v 95.932716 -35.617523 -97.251732
v 104.150078 -68.196106 -104.812927
v 95.932716 -35.617527 -104.812927
v 102.161514 -35.617523 -110.738983
v 97.383018 -31.990643 -110.738983
v 97.383018 -31.990643 -104.812935
v 95.932755 -61.068489 -114.467430
v 95.683350 -25.316851 -122.943092
v 97.265587 -29.446205 -114.295540
v 95.683388 -71.361595 -122.942825
v 97.281685 -66.776199 -114.463242
v 102.417847 -25.320353 -114.394241
v 102.417427 -71.447021 -122.942932
v 100.831436 -66.972778 -122.943024
v 100.831047 -29.521032 -139.496841
v 97.699265 -17.082771 -139.496765
v 97.699303 -79.215820 -139.496765
v 100.401863 -79.215813 -139.496841
v 100.401817 -17.082769 0.004346

vt 0.741666 0.995654
vt 0.840650 0.995654
vt 0.891724 0.861992
vt 0.943705 0.995654
vt 0.710435 0.995654
vt 0.577260 0.937120
vt 0.512082 0.502634
vt 0.680218 0.512347
vt 0.824219 0.532850
vt 0.880600 0.502981
vt 0.737685 0.995654
vt 0.680554 0.591153
vt 0.995285 0.496374
vt 0.951134 0.500096
vt 0.479395 0.501586
vt 0.403203 0.996977
vt 0.248000 0.501586
vt 0.290502 0.997481
vt 0.169030 0.501586
vt 0.231037 0.997481
vt 0.127376 0.501586
vt 0.171609 0.997481
vt 0.070684 0.501586
vt 0.114334 0.992421
vt 0.471798 0.997481
vt 0.388589 0.997481
vt 0.284356 0.501586
vt 0.342027 0.501597
vt 0.003232 0.944996
vt 0.748586 0.877002
vt 0.596340 0.604411
vt 0.822236 0.934549
vt 0.834565 0.902348
vt 0.895543 0.653628
vt 0.914335 0.877584
vt 0.816308 0.916470
vt 0.768659 0.877533
vt 0.768143 0.819857
vt 0.731997 0.887578
vt 0.876132 0.758266
vt 0.869001 0.834026
vt 0.831622 0.910040
vt 0.720719 0.873414
vt 0.712816 0.862815
vt 0.656258 0.766990
vt 0.656919 0.693950
vt 0.722775 0.714163
vt 0.778650 0.632706
vt 0.668270 0.665931
vt 0.685810 0.583418
vt 0.724059 0.920589
vt 0.677161 0.924914
vt 0.698945 0.894256
vt 0.696665 0.967567
vt 0.994734 0.629686
vt 0.642444 0.565303
vt 0.954237 0.757242
vt 0.765751 0.743692
vt 0.705536 0.701189
vt 0.636128 0.693600
vt 0.617989 0.543064
vt 0.637430 0.846143
vt 0.868728 0.598671
vt 0.479387 0.858671
vt 0.387266 0.603936
vt 0.403744 0.841417
vt 0.298699 0.626627
vt 0.290519 0.841739
vt 0.256497 0.636147
vt 0.232616 0.845802
vt 0.193483 0.569819
vt 0.167676 0.828896
vt 0.150444 0.722377
vt 0.509446 0.782494
vt 0.506028 0.686728
vt 0.467836 0.785548
vt 0.467157 0.695836
vt 0.392251 0.772633
vt 0.389227 0.736363
vt 0.275051 0.735943
vt 0.222615 0.735706
vt 0.158452 0.355647
vt 0.941153 0.396576
vt 0.938049 0.319475
vt 0.952420 0.440521
vt 0.942713 0.277399
vt 0.959750 0.230323
vt 0.953113 0.356822
vt 0.836208 0.420587
vt 0.835816 0.320053
vt 0.835736 0.275962
vt 0.835688 0.226755
vt 0.835532 0.357255
vt 0.786379 0.420957
vt 0.789836 0.320240
vt 0.783623 0.273402
vt 0.787589 0.231270
vt 0.791264 0.344495
vt 0.714348 0.385779
vt 0.713233 0.314915
vt 0.698781 0.436534
vt 0.698764 0.279438
vt 0.710078 0.233519
vt 0.709695 0.342846
vt 0.688223 0.388787
vt 0.688206 0.277111
vt 0.683735 0.238610
vt 0.688145 0.344503
vt 0.626460 0.389543
vt 0.624571 0.310757
vt 0.619857 0.426711
vt 0.623023 0.273779
vt 0.581913 0.209830
vt 0.619096 0.338332
vt 0.574850 0.392425
vt 0.576772 0.309289
vt 0.574835 0.433659
vt 0.578359 0.211239
vt 0.578775 0.573775
vt 0.114852 0.912357
vt 0.075645 0.745836
vt 0.043407 0.816244
vt 0.112592 0.625370
vt 0.051674 0.642267
vt 0.003281 0.817874
vt 0.055477 0.823730
vt 0.003633 0.054220
vt 0.932409 0.054439
vt 0.988005 0.054200
vt 0.783051 0.054286
vt 0.711966 0.408616
vt 0.104932 0.358177
vt 0.105519 0.167784
vt 0.104988 0.245833
vt 0.105544 0.425043
vt 0.113256 0.410538
vt 0.191325 0.478394
vt 0.119217 0.490873
vt 0.188408 0.306889
vt 0.107336 0.449386
vt 0.214461 0.683599
vt 0.052748 0.054166
vt 0.861080 0.347093
vt 0.043731 0.251989
vt 0.043967 0.303403
vt 0.044196 0.863908
vt 0.477460 0.860105
vt 0.318290 0.251848
vt 0.558114 0.402080
vt 0.504382 0.437904
vt 0.502474 0.209834
vt 0.494321 0.372041
vt 0.486648 0.340021
vt 0.499151 0.310909
vt 0.501924 0.275398
vt 0.497324 0.365657
vt 0.489335 0.409528
vt 0.465901 0.312044
vt 0.451291 0.455948
vt 0.656362 0.197049
vt 0.658135 0.472642
vt 0.603782 0.503672
vt 0.573875 0.470380
vt 0.626605 0.507570
vt 0.632358 0.531257
vt 0.585469 0.564986
vt 0.671779 0.004112
vt 0.779219 0.004125
vt 0.713638 0.004108
vt 0.933808 0.004115
vt 0.992329 0.004107
vt 0.852027 0.340463
vt 0.159125 0.003592
vt 0.389495 0.003483
vt 0.559582 0.025419
vt 0.509560 0.003222
vt 0.632336 0.064813
vt 0.509459 0.003576
vt 0.463955 0.064900
vt 0.419092 0.064710
vt 0.598021 0.025317
vt 0.419240 0.025109
vt 0.597822 0.197357
vt 0.389629 0.197350
vt 0.558045 0.173558
vt 0.509328 0.197346
vt 0.632436 0.197365
vt 0.463345 0.142173
vt 0.419007 0.142210
vt 0.509327 0.142150
vt 0.597952 0.173361
vt 0.419025 0.173554
vt 0.597768 0.003592
vt 0.389495 0.003576
vt 0.463955 0.025419
vt 0.509560 0.003222
vt 0.632336 0.142210
vt 0.509327 0.003483
vt 0.559582 0.064900
vt 0.419092 0.064813
vt 0.509459 0.064710
vt 0.598021 0.025317
vt 0.419240 0.025109
vt 0.597822 0.197357
vt 0.389629 0.197350
vt 0.558045 0.173558
vt 0.509328 0.197346
vt 0.632436 0.197365
vt 0.463345 0.142173
vt 0.419007 0.142150
vt 0.597952 0.173361
vt 0.419025 0.173554
vt 0.597768 0.734040
vt 0.327314 0.616635
vt 0.344857 0.668865
vt 0.924520 0.644696
vt 0.167255 0.660911
vt 0.117732 0.907953
vt 0.138515 0.561071
vt 0.003262 0.784037
vt 0.561569 0.585209
vt 0.578745 0.696869
vt 0.554136 0.866129
vt 0.949172 0.807673
vt 0.943808 0.741032
vt 0.932520 0.337869
vt 0.160099 0.084859
vt 0.256240 0.085380
vt 0.300254 0.075742
vt 0.100414 0.092750
vt 0.350581 0.109025
vt 0.121455 0.111954
vt 0.062513 0.103999
vt 0.007510 0.146022
vt 0.227548 0.147121
vt 0.288983 0.145847
vt 0.333068 0.148148
vt 0.057617 0.161586
vt 0.111768 0.152104
vt 0.330885 0.050170
vt 0.106274 0.041883
vt 0.050325 0.052388
vt 0.003966 0.005877
vt 0.075868 0.007983
vt 0.007851 0.076773
vt 0.038122 0.151959
vt 0.377057 0.145836
vt 0.181952 0.137961
vt 0.233950 0.077219
vt 0.208971 0.083048
vt 0.255816 0.100570
vt 0.151589 0.087670
vt 0.206846 0.094670
vt 0.257802 0.085700
vt 0.303548 0.084507
vt 0.255757 0.102277
vt 0.152229 0.150557
vt 0.293204 0.190932
vt 0.182460 0.150829
vt 0.236500 0.150589
vt 0.277874 0.149752
vt 0.258972 0.157198
vt 0.225885 0.181105
vt 0.121018 0.182070
vt 0.180949 0.146132
vt 0.188202 0.143436
vt 0.237357 0.151775
vt 0.380071 0.170929
vt 0.310932 0.106669
vt 0.362748 0.171195
vt 0.371969 0.157298
vt 0.280562 0.144045
vt 0.331832 0.153425
vt 0.184439 0.087605
vt 0.204730 0.145542
vt 0.274597 0.150832
vt 0.227304 0.174821
vt 0.129331 0.191767
vt 0.118282 0.107680
vt 0.150926 0.086563
vt 0.208571 0.153959
vt 0.268777 0.174715
vt 0.176662 0.146039
vt 0.238868 0.133386
vt 0.008139 0.139129
vt 0.052442 0.089417
vt 0.302851 0.153329
vt 0.337070 0.144457
vt 0.183302 0.033579
vt 0.154409 0.007697
vt 0.149932 0.086197
vt 0.304583 0.140558
vt 0.279418 0.140812
vt 0.335048 0.143238
vt 0.327209 0.142347
vt 0.378685 0.093903
vt 0.356885 0.109502
vt 0.381968 0.091644
vt 0.334885 0.089152
vt 0.239589 0.089107
vt 0.204313 0.080126
vt 0.253319 0.083757
vt 0.304556 0.090486
vt 0.350757 0.011581
vt 0.378854 0.044218
vt 0.335728 0.048658
vt 0.296042 0.006403
vt 0.261140 0.030622
vt 0.206392 0.135927
vt 0.236520 0.128813
vt 0.281091 0.142335
vt 0.330516 0.142979
vt 0.377397 0.007782
vt 0.332080 0.186224
vt 0.193319 0.168140
vt 0.296331 0.183746
vt 0.376642 0.073768
vt 0.258385 0.139584
vt 0.183424 0.164304
vt 0.257517 0.165402
vt 0.342818 0.084029
vt 0.303760 0.102109
vt 0.007724 0.110121
vt 0.063395 0.111912
vt 0.120179 0.102377
vt 0.182230 0.092000
vt 0.240342 0.077328
vt 0.254493 0.091489
vt 0.335037 0.113825
vt 0.383618 0.044491
vt 0.003774 0.043137
vt 0.050690 0.050887
vt 0.106342 0.040281
vt 0.157401 0.032256
vt 0.204100 0.004130
vt 0.261694 0.053831
vt 0.295039 0.045962
vt 0.333553 0.043585
vt 0.383326 0.006019
vt 0.003312 0.004584
vt 0.076928 0.004154
vt 0.153739 0.004985
vt 0.206775 0.004950
vt 0.319617 0.004225
vt 0.383577 0.164894
vt 0.343368 0.084279
vt 0.304063 0.164878
vt 0.258123 0.388611
vt 0.121083 0.292846
vt 0.121344 0.861397
vt 0.998908 0.576743
vt 0.610948 0.598501
vt 0.632572 0.716296
vt 0.594470 0.561463
vt 0.607592 0.944996
vt 0.748586 0.877002
vt 0.596340 0.604411
vt 0.822236 0.934549
vt 0.834565 0.902348
vt 0.895543 0.653628
vt 0.914335 0.877584
vt 0.816308 0.916470
vt 0.768659 0.877533
vt 0.768143 0.819857
vt 0.731997 0.887578
vt 0.876132 0.758266
vt 0.869001 0.834026
vt 0.831622 0.910040
vt 0.720719 0.873414
vt 0.712816 0.862815
vt 0.656258 0.766990
vt 0.656919 0.693950
vt 0.722775 0.714163
vt 0.778650 0.632706
vt 0.668270 0.665931
vt 0.685810 0.583418
vt 0.724059 0.920589
vt 0.677161 0.924914
vt 0.698945 0.894256
vt 0.696665 0.967567
vt 0.994734 0.629686
vt 0.642444 0.565303
vt 0.954237 0.757242
vt 0.765751 0.743692
vt 0.705536 0.701189
vt 0.636128 0.693600
vt 0.617989 0.543064
vt 0.637430 0.846143
vt 0.868728 0.598671
vt 0.479387 0.858671
vt 0.387266 0.603936
vt 0.403744 0.841417
vt 0.298699 0.626627
vt 0.290519 0.841739
vt 0.256497 0.636147
vt 0.232616 0.845802
vt 0.193483 0.569819
vt 0.167676 0.828896
vt 0.150444 0.722377
vt 0.509446 0.782494
vt 0.506028 0.686728
vt 0.467836 0.785548
vt 0.467157 0.695836
vt 0.392251 0.772633
vt 0.389227 0.736363
vt 0.275051 0.735943
vt 0.222615 0.735706
vt 0.158452 0.355647
vt 0.941153 0.396576
vt 0.938049 0.319475
vt 0.952420 0.440521
vt 0.942713 0.277399
vt 0.959750 0.230323
vt 0.953113 0.356822
vt 0.836208 0.420587
vt 0.835816 0.320053
vt 0.835736 0.275962
vt 0.835688 0.226755
vt 0.835532 0.357255
vt 0.786379 0.420957
vt 0.789836 0.320240
vt 0.783623 0.273402
vt 0.787589 0.231270
vt 0.791264 0.344495
vt 0.714348 0.385779
vt 0.713233 0.314915
vt 0.698781 0.436534
vt 0.698764 0.279438
vt 0.710078 0.233519
vt 0.709695 0.342846
vt 0.688223 0.388787
vt 0.688206 0.277111
vt 0.683735 0.238610
vt 0.688145 0.344503
vt 0.626460 0.389543
vt 0.624571 0.310757
vt 0.619857 0.426711
vt 0.623023 0.273779
vt 0.581913 0.209830
vt 0.619096 0.338332
vt 0.574850 0.392425
vt 0.576772 0.309289
vt 0.574835 0.433659
vt 0.578359 0.211239
vt 0.578775 0.573775
vt 0.114852 0.912357
vt 0.075645 0.745836
vt 0.043407 0.816244
vt 0.112592 0.625370
vt 0.051674 0.642267
vt 0.003281 0.817874
vt 0.055477 0.823730
vt 0.003633 0.054220
vt 0.932409 0.054439
vt 0.988005 0.054200
vt 0.783051 0.054286
vt 0.711966 0.408616
vt 0.104932 0.358177
vt 0.105519 0.167784
vt 0.104988 0.245833
vt 0.105544 0.425043
vt 0.113256 0.410538
vt 0.191325 0.478394
vt 0.119217 0.490873
vt 0.188408 0.306889
vt 0.107336 0.449386
vt 0.214461 0.683599
vt 0.052748 0.054166
vt 0.861080 0.347093
vt 0.043731 0.251989
vt 0.043967 0.303403
vt 0.044196 0.863908
vt 0.477460 0.860105
vt 0.318290 0.251848
vt 0.558114 0.402080
vt 0.504382 0.437904
vt 0.502474 0.209834
vt 0.494321 0.372041
vt 0.486648 0.340021
vt 0.499151 0.310909
vt 0.501924 0.275398
vt 0.497324 0.365657
vt 0.489335 0.409528
vt 0.465901 0.312044
vt 0.451291 0.455948
vt 0.656362 0.197049
vt 0.658135 0.472642
vt 0.603782 0.503672
vt 0.573875 0.470380
vt 0.626605 0.507570
vt 0.632358 0.531257
vt 0.585469 0.564986
vt 0.671779 0.004112
vt 0.779219 0.004125
vt 0.713638 0.004108
vt 0.933808 0.004115
vt 0.992329 0.004107
vt 0.852027 0.340463
vt 0.159125 0.003592
vt 0.389495 0.003483
vt 0.559582 0.025419
vt 0.509560 0.003222
vt 0.632336 0.064813
vt 0.509459 0.003576
vt 0.463955 0.064900
vt 0.419092 0.064710
vt 0.598021 0.025317
vt 0.419240 0.025109
vt 0.597822 0.197357
vt 0.389629 0.197350
vt 0.558045 0.173558
vt 0.509328 0.197346
vt 0.632436 0.197365
vt 0.463345 0.142173
vt 0.419007 0.142210
vt 0.509327 0.142150
vt 0.597952 0.173361
vt 0.419025 0.173554
vt 0.597768 0.003592
vt 0.389495 0.003576
vt 0.463955 0.025419
vt 0.509560 0.003222
vt 0.632336 0.142210
vt 0.509327 0.003483
vt 0.559582 0.064900
vt 0.419092 0.064813
vt 0.509459 0.064710
vt 0.598021 0.025317
vt 0.419240 0.025109
vt 0.597822 0.197357
vt 0.389629 0.197350
vt 0.558045 0.173558
vt 0.509328 0.197346
vt 0.632436 0.197365
vt 0.463345 0.142173
vt 0.419007 0.142150
vt 0.597952 0.173361
vt 0.419025 0.173554
vt 0.597768 0.734040
vt 0.327314 0.616635
vt 0.344857 0.668865
vt 0.924520 0.644696
vt 0.167255 0.660911
vt 0.117732 0.907953
vt 0.138515 0.561071
vt 0.003262 0.784037
vt 0.561569 0.585209
vt 0.578745 0.696869
vt 0.554136 0.807673
vt 0.943808 0.741032
vt 0.932520 0.337869
vt 0.160099 0.084859
vt 0.256240 0.085380
vt 0.300254 0.075742
vt 0.100414 0.092750
vt 0.350581 0.109025
vt 0.121455 0.111954
vt 0.062513 0.103999
vt 0.007510 0.146022
vt 0.227548 0.147121
vt 0.288983 0.145847
vt 0.333068 0.148148
vt 0.057617 0.161586
vt 0.111768 0.152104
vt 0.330885 0.050170
vt 0.106274 0.041883
vt 0.050325 0.005877
vt 0.075868 0.076773
vt 0.038122 0.151959
vt 0.377057 0.145836
vt 0.181952 0.137961
vt 0.233950 0.077219
vt 0.208971 0.083048
vt 0.255816 0.100570
vt 0.151589 0.087670
vt 0.206846 0.094670
vt 0.257802 0.085700
vt 0.303548 0.084507
vt 0.255757 0.102277
vt 0.152229 0.150557
vt 0.293204 0.190932
vt 0.182460 0.150829
vt 0.236500 0.150589
vt 0.277874 0.149752
vt 0.258972 0.181105
vt 0.121018 0.182070
vt 0.180949 0.146132
vt 0.188202 0.143436
vt 0.237357 0.151775
vt 0.380071 0.170929
vt 0.310932 0.106669
vt 0.362748 0.171195
vt 0.371969 0.157298
vt 0.280562 0.144045
vt 0.331832 0.153425
vt 0.184439 0.087605
vt 0.204730 0.145542
vt 0.274597 0.150832
vt 0.227304 0.174821
vt 0.129331 0.191767
vt 0.118282 0.107680
vt 0.150926 0.086563
vt 0.208571 0.153959
vt 0.268777 0.174715
vt 0.176662 0.146039
vt 0.238868 0.133386
vt 0.008139 0.139129
vt 0.052442 0.089417
vt 0.302851 0.153329
vt 0.337070 0.144457
vt 0.183302 0.033579
vt 0.154409 0.007697
vt 0.149932 0.086197
vt 0.304583 0.140558
vt 0.279418 0.140812
vt 0.335048 0.143238
vt 0.327209 0.142347
vt 0.378685 0.093903
vt 0.356885 0.109502
vt 0.381968 0.091644
vt 0.334885 0.089152
vt 0.239589 0.089107
vt 0.204313 0.080126
vt 0.253319 0.083757
vt 0.304556 0.090486
vt 0.350757 0.044218
vt 0.335728 0.048658
vt 0.296042 0.006403
vt 0.261140 0.030622
vt 0.206392 0.135927
vt 0.236520 0.128813
vt 0.281091 0.142335
vt 0.330516 0.007782
vt 0.332080 0.186224
vt 0.193319 0.168140
vt 0.296331 0.073768
vt 0.258385 0.139584
vt 0.183424 0.164304
vt 0.257517 0.165402
vt 0.342818 0.084029
vt 0.303760 0.102109
vt 0.007724 0.110121
vt 0.063395 0.111912
vt 0.120179 0.102377
vt 0.182230 0.092000
vt 0.240342 0.077328
vt 0.254493 0.091489
vt 0.335037 0.113825
vt 0.383618 0.043137
vt 0.050690 0.050887
vt 0.106342 0.040281
vt 0.157401 0.032256
vt 0.204100 0.004130
vt 0.261694 0.053831
vt 0.295039 0.045962
vt 0.333553 0.004584
vt 0.076928 0.004154
vt 0.153739 0.004985
vt 0.206775 0.004950
vt 0.319617 0.004225
vt 0.383577 0.164894
vt 0.343368 0.084279
vt 0.304063 0.164878
vt 0.258123 0.388611
vt 0.121083 0.292846
vt 0.121344 0.576743
vt 0.610948 0.598501
vt 0.632572 0.716296
vt 0.594470 0.561463
vt 0.607592 0.135785
vt 0.650563 0.177540
vt 0.650648 0.135407
vt 0.687727 0.177132
vt 0.687918 0.462582
vt 0.397119 0.417845
vt 0.396616 0.463086
vt 0.436415 0.417806
vt 0.436450 0.177711
vt 0.973682 0.217636
vt 0.973465 0.177711
vt 0.973682 0.135747
vt 0.973785 0.454484
vt 0.360803 0.425960
vt 0.359885 0.390216
vt 0.431748 0.454484
vt 0.360803 0.398048
vt 0.210041 0.398048
vt 0.210041 0.398048
vt 0.378575 0.398998
vt 0.383332 0.340565
vt 0.196929 0.338934
vt 0.178381 0.340566
vt 0.389298 0.340566
vt 0.389298 0.262595
vt 0.133217 0.265041
vt 0.115688 0.262595
vt 0.453403 0.262595
vt 0.453403 0.207785
vt 0.189127 0.207788
vt 0.396690 0.381296
vt 0.412928 0.380486
vt 0.175649 0.384970
vt 0.154044 0.381296
vt 0.412928 0.180885
vt 0.289447 0.734673
vt 0.449753 0.734884
vt 0.420054 0.706788
vt 0.449656 0.734884
vt 0.479451 0.764684
vt 0.449850 0.734673
vt 0.449753 0.734884
vt 0.420054 0.706788
vt 0.449656 0.734884
vt 0.479451 0.764684
vt 0.449850 0.734673
vt 0.449753 0.734884
vt 0.420054 0.764684
vt 0.449850 0.734884
vt 0.479451 0.706788
vt 0.449656 0.918560
vt 0.945509 0.958922
vt 0.927371 0.992743
vt 0.924839 0.886555
vt 0.970667 0.687947
vt 0.972559 0.654442
vt 0.560416 0.567397
vt 0.575587 0.663392
vt 0.617305 0.633841
vt 0.634645 0.673863
vt 0.544954 0.501586
vt 0.551300 0.588834
vt 0.549490 0.806797
vt 0.533799 0.397611
vt 0.992435 0.357882
vt 0.994260 0.319314
vt 0.992813 0.438464
vt 0.992983 0.271081
vt 0.991672 0.215186
vt 0.993243 0.491584
vt 0.953113 0.516105
vt 0.992446 0.490152
vt 0.836639 0.495161
vt 0.791264 0.483087
vt 0.709812 0.484706
vt 0.688649 0.484364
vt 0.655150 0.468530
vt 0.585479 0.469158
vt 0.565661 0.928669
vt 0.003667 0.884830
vt 0.003688 0.124711
vt 0.933784 0.124478
vt 0.996433 0.127232
vt 0.712856 0.126559
vt 0.788041 0.123577
vt 0.851894 0.430420
vt 0.008641 0.345875
vt 0.008830 0.303067
vt 0.008945 0.149134
vt 0.007744 0.458391
vt 0.104988 0.408616
vt 0.104932 0.458391
vt 0.104988 0.486281
vt 0.007744 0.124939
vt 0.641891 0.054439
vt 0.657204 0.247496
vt 0.007916 0.408616
vt 0.104932 0.366029
vt 0.559384 0.243707
vt 0.489713 0.470489
vt 0.495654 0.248732
vt 0.491300 0.210316
vt 0.470800 0.513641
vt 0.674513 0.532579
vt 0.643192 0.004111
vt 0.647283 0.386523
vt 0.121996 0.291193
vt 0.122467 0.997554
vt 0.003631 0.992421
vt 0.499107 0.886366
vt 0.507411 0.650277
vt 0.558649 0.596750
vt 0.554630 0.671166
vt 0.612227 0.796814
vt 1.000168 0.803658
vt 0.941389 0.733212
vt 0.929934 0.727925
vt 0.998429 0.098154
vt 0.353070 0.152411
vt 0.324243 0.603794
vt 0.644275 0.722361
vt 0.566048 0.750920
vt 0.573910 0.995654
vt 0.577260 0.995654
vt 0.891724 0.995654
vt 0.840650 0.861992
vt 0.943705 0.995654
vt 0.741666 0.532850
vt 0.880600 0.512347
vt 0.824219 0.995654
vt 0.710435 0.502981
vt 0.737685 0.501586
vt 0.114334 0.937120
vt 0.512082 0.502634
vt 0.680218 0.995654
vt 0.680554 0.918560
vt 0.945509 0.958922
vt 0.927371 0.992743
vt 0.924839 0.886555
vt 0.970667 0.496374
vt 0.951134 0.687947
vt 0.972559 0.591153
vt 0.995285 0.501597
vt 0.003232 0.654442
vt 0.560416 0.567397
vt 0.575587 0.663392
vt 0.617305 0.633841
vt 0.634645 0.673863
vt 0.544954 0.501586
vt 0.551300 0.500096
vt 0.479395 0.588834
vt 0.549490 0.992421
vt 0.471798 0.997481
vt 0.388589 0.501586
vt 0.403203 0.501586
vt 0.342027 0.996977
vt 0.248000 0.501586
vt 0.231037 0.501586
vt 0.290502 0.997481
vt 0.169030 0.501586
vt 0.171609 0.997481
vt 0.127376 0.806797
vt 0.533799 0.397611
vt 0.992435 0.357882
vt 0.994260 0.319314
vt 0.992813 0.438464
vt 0.992983 0.271081
vt 0.991672 0.215186
vt 0.993243 0.491584
vt 0.953113 0.516105
vt 0.992446 0.490152
vt 0.836639 0.495161
vt 0.791264 0.483087
vt 0.709812 0.484706
vt 0.688649 0.484364
vt 0.655150 0.468530
vt 0.585479 0.469158
vt 0.565661 0.997481
vt 0.070684 0.928669
vt 0.003667 0.884830
vt 0.003688 0.124711
vt 0.933784 0.124478
vt 0.996433 0.127232
vt 0.712856 0.126559
vt 0.788041 0.123577
vt 0.851894 0.430420
vt 0.008641 0.345875
vt 0.008830 0.303067
vt 0.008945 0.149134
vt 0.007744 0.458391
vt 0.104988 0.408616
vt 0.104932 0.458391
vt 0.104988 0.486281
vt 0.007744 0.054439
vt 0.657204 0.124939
vt 0.641891 0.247496
vt 0.007916 0.408616
vt 0.104932 0.997481
vt 0.284356 0.366029
vt 0.559384 0.243707
vt 0.489713 0.470489
vt 0.495654 0.248732
vt 0.491300 0.210316
vt 0.470800 0.532579
vt 0.643192 0.513641
vt 0.674513 0.004111
vt 0.647283 0.386523
vt 0.121996 0.291193
vt 0.122467 0.997554
vt 0.003631 0.992421
vt 0.499107 0.886366
vt 0.507411 0.650277
vt 0.558649 0.596750
vt 0.554630 0.671166
vt 0.612227 0.866129
vt 0.949172 0.861397
vt 0.998908 0.803658
vt 0.941389 0.796814
vt 1.000168 0.727925
vt 0.998429 0.733212
vt 0.929934 0.052388
vt 0.003966 0.007983
vt 0.007851 0.157198
vt 0.225885 0.098154
vt 0.353070 0.152411
vt 0.324243 0.011581
vt 0.378854 0.142979
vt 0.377397 0.183746
vt 0.376642 0.044491
vt 0.003774 0.043585
vt 0.383326 0.006019
vt 0.003312 0.603794
vt 0.644275 0.722361
vt 0.566048 0.750920
vt 0.573910 0.217907
vt 0.687915 0.177132
vt 0.687918 0.425960
vt 0.228731 0.452955
vt 0.228731 0.417845
vt 0.396616 0.395344
vt 0.398851 0.417806
vt 0.436450 0.452955
vt 0.228731 0.425960
vt 0.228731 0.425960
vt 0.359885 0.462582
vt 0.397119 0.417845
vt 0.396616 0.482001
vt 0.360803 0.482001
vt 0.227610 0.452955
vt 0.228731 0.491490
vt 0.397160 0.425960
vt 0.228731 0.430444
vt 0.214259 0.403551
vt 0.196588 0.398048
vt 0.210041 0.420832
vt 0.371444 0.380486
vt 0.175649 0.340565
vt 0.196929 0.379665
vt 0.429540 0.341483
vt 0.406216 0.380506
vt 0.175668 0.380831
vt 0.413368 0.340565
vt 0.390311 0.340565
vt 0.197315 0.262595
vt 0.133217 0.264817
vt 0.467100 0.262595
vt 0.453403 0.262595
vt 0.133217 1.000000

f 52/52 6/6 31/31
f 33/33 3/3 2/2
f 3/3 33/33 34/34
f 34/34 4/4 3/3
f 4/4 34/34 41/41
f 30/30 2/2 1/1
f 2/2 30/30 33/33
f 9/9 10/10 32/32
f 35/35 32/32 10/10
f 39/39 42/42 38/38
f 36/36 38/38 42/42
f 38/38 36/36 37/37
f 42/42 40/40 36/36
f 63/63 42/42 41/41
f 45/45 54/54 52/52
f 52/52 31/31 45/45
f 33/33 40/40 34/34
f 40/40 33/33 36/36
f 4/4 41/41 35/35
f 41/41 34/34 63/63
f 30/30 37/37 33/33
f 37/37 36/36 33/33
f 39/39 38/38 44/44
f 43/43 44/44 38/38
f 38/38 37/37 43/43
f 30/30 43/43 37/37
f 1/1 5/5 30/30
f 51/51 11/11 9/9
f 9/9 32/32 51/51
f 43/43 30/30 5/5
f 43/43 54/54 44/44
f 45/45 46/46 39/39
f 39/39 44/44 45/45
f 120/120 220/220 24/24
f 41/41 58/58 48/48
f 41/41 42/42 58/58
f 7/7 221/221 31/31
f 50/50 60/60 49/49
f 39/39 59/59 58/58
f 46/46 59/59 39/39
f 47/47 59/59 50/50
f 48/48 47/47 32/32
f 32/32 35/35 41/41
f 41/41 48/48 32/32
f 167/167 51/51 49/49
f 51/51 8/8 11/11
f 49/49 51/51 50/50
f 50/50 51/51 47/47
f 32/32 47/47 51/51
f 53/53 12/12 52/52
f 6/6 52/52 12/12
f 5/5 12/12 53/53
f 53/53 43/43 5/5
f 54/54 43/43 53/53
f 45/45 44/44 54/54
f 721/721 55/55 722/722
f 722/722 55/55 723/723
f 724/724 55/55 721/721
f 221/221 61/61 60/60
f 49/49 56/56 167/167
f 10/10 14/14 57/57
f 57/57 35/35 10/10
f 35/35 57/57 725/725
f 13/13 725/725 57/57
f 46/46 50/50 59/59
f 31/31 221/221 46/46
f 60/60 50/50 46/46
f 60/60 61/61 49/49
f 56/56 49/49 61/61
f 29/29 24/24 220/220
f 46/46 45/45 31/31
f 726/726 354/354 223/223
f 727/727 352/352 222/222
f 728/728 353/353 729/729
f 7/7 31/31 6/6
f 57/57 14/14 13/13
f 40/40 42/42 63/63
f 63/63 34/34 40/40
f 730/730 74/74 76/76
f 15/15 731/731 732/732
f 65/65 25/25 26/26
f 15/15 66/66 16/16
f 66/66 15/15 64/64
f 26/26 148/148 65/65
f 113/113 149/149 119/119
f 66/66 215/215 28/28
f 28/28 16/16 66/66
f 17/17 69/69 67/67
f 79/79 214/214 78/78
f 68/68 20/20 18/18
f 17/17 19/19 69/69
f 70/70 72/72 20/20
f 22/22 20/20 72/72
f 219/219 19/19 21/21
f 82/82 71/71 73/73
f 733/733 75/75 730/730
f 74/74 730/730 75/75
f 136/136 141/141 137/137
f 139/139 136/136 138/138
f 732/732 730/730 64/64
f 76/76 64/64 730/730
f 147/147 77/77 75/75
f 75/75 733/733 147/147
f 78/78 66/66 64/64
f 67/67 214/214 79/79
f 66/66 78/78 215/215
f 214/214 215/215 78/78
f 69/69 80/80 67/67
f 79/79 65/65 67/67
f 70/70 81/81 217/217
f 82/82 217/217 81/81
f 734/734 84/84 83/83
f 83/83 735/735 734/734
f 735/735 83/83 736/736
f 85/85 736/736 83/83
f 734/734 86/86 84/84
f 86/86 734/734 737/737
f 736/736 87/87 738/738
f 87/87 736/736 85/85
f 738/738 87/87 739/739
f 88/88 739/739 87/87
f 737/737 740/740 86/86
f 740/740 737/737 741/741
f 84/84 89/89 83/83
f 89/89 84/84 90/90
f 83/83 91/91 85/85
f 91/91 83/83 89/89
f 86/86 90/90 84/84
f 85/85 91/91 87/87
f 92/92 87/87 91/91
f 87/87 93/93 88/88
f 93/93 87/87 92/92
f 740/740 742/742 86/86
f 90/90 86/86 742/742
f 90/90 94/94 89/89
f 94/94 90/90 95/95
f 89/89 94/94 91/91
f 96/96 91/91 94/94
f 91/91 97/97 92/92
f 97/97 91/91 96/96
f 92/92 97/97 93/93
f 98/98 93/93 97/97
f 742/742 743/743 90/90
f 95/95 90/90 743/743
f 97/97 104/104 98/98
f 100/100 105/105 99/99
f 105/105 100/100 106/106
f 101/101 99/99 105/105
f 102/102 106/106 100/100
f 101/101 107/107 103/103
f 103/103 108/108 104/104
f 108/108 103/103 107/107
f 102/102 744/744 745/745
f 106/106 109/109 105/105
f 105/105 111/111 101/101
f 111/111 105/105 109/109
f 102/102 160/160 106/106
f 112/112 106/106 160/160
f 101/101 111/111 107/107
f 113/113 107/107 111/111
f 107/107 161/161 108/108
f 114/114 161/161 107/107
f 745/745 746/746 160/160
f 109/109 117/117 111/111
f 117/117 109/109 115/115
f 112/112 116/116 110/110
f 116/116 112/112 118/118
f 111/111 117/117 113/113
f 113/113 119/119 114/114
f 747/747 118/118 112/112
f 118/118 747/747 748/748
f 72/72 24/24 22/22
f 24/24 72/72 120/120
f 121/121 21/21 23/23
f 217/217 120/120 72/72
f 142/142 124/124 218/218
f 120/120 124/124 220/220
f 125/125 220/220 124/124
f 121/121 749/749 750/750
f 750/750 123/123 121/121
f 122/122 123/123 126/126
f 142/142 218/218 122/122
f 126/126 127/127 122/122
f 751/751 128/128 752/752
f 129/129 752/752 128/128
f 753/753 130/130 754/754
f 130/130 753/753 131/131
f 754/754 130/130 143/143
f 143/143 755/755 754/754
f 132/132 756/756 144/144
f 757/757 144/144 756/756
f 144/144 758/758 146/146
f 758/758 144/144 757/757
f 135/135 145/145 134/134
f 759/759 134/134 145/145
f 760/760 756/756 761/761
f 756/756 762/762 763/763
f 123/123 750/750 126/126
f 750/750 127/127 126/126
f 764/764 765/765 753/753
f 131/131 753/753 765/765
f 146/146 766/766 145/145
f 766/766 146/146 758/758
f 136/136 139/139 141/141
f 124/124 120/120 218/218
f 755/755 143/143 751/751
f 128/128 751/751 143/143
f 133/133 146/146 140/140
f 146/146 133/133 144/144
f 767/767 144/144 133/133
f 766/766 759/759 145/145
f 140/140 145/145 135/135
f 145/145 140/140 146/146
f 71/71 69/69 19/19
f 71/71 81/81 69/69
f 80/80 69/69 81/81
f 81/81 70/70 80/80
f 68/68 80/80 70/70
f 20/20 68/68 70/70
f 67/67 65/65 148/148
f 17/17 67/67 27/27
f 27/27 67/67 148/148
f 116/116 150/150 768/768
f 153/153 768/768 150/150
f 118/118 150/150 116/116
f 150/150 118/118 151/151
f 149/149 152/152 119/119
f 152/152 149/149 769/769
f 748/748 770/770 118/118
f 151/151 118/118 770/770
f 768/768 154/154 115/115
f 154/154 768/768 157/157
f 113/113 156/156 149/149
f 771/771 149/149 156/156
f 115/115 154/154 117/117
f 155/155 117/117 154/154
f 117/117 156/156 113/113
f 156/156 117/117 155/155
f 151/151 158/158 150/150
f 150/150 158/158 153/153
f 769/769 772/772 152/152
f 770/770 158/158 151/151
f 157/157 159/159 154/154
f 154/154 159/159 155/155
f 155/155 159/159 156/156
f 156/156 159/159 771/771
f 102/102 745/745 160/160
f 110/110 106/106 112/112
f 107/107 113/113 114/114
f 112/112 162/162 747/747
f 163/163 747/747 162/162
f 773/773 774/774 746/746
f 165/165 746/746 774/774
f 746/746 164/164 160/160
f 164/164 746/746 165/165
f 160/160 164/164 112/112
f 162/162 112/112 164/164
f 162/162 166/166 163/163
f 774/774 166/166 165/165
f 165/165 166/166 164/164
f 164/164 166/166 162/162
f 100/100 95/95 102/102
f 94/94 99/99 101/101
f 101/101 96/96 94/94
f 97/97 103/103 104/104
f 95/95 100/100 94/94
f 100/100 99/99 94/94
f 743/743 102/102 95/95
f 744/744 102/102 743/743
f 96/96 101/101 97/97
f 97/97 101/101 103/103
f 8/8 51/51 167/167
f 732/732 64/64 15/15
f 110/110 116/116 109/109
f 109/109 106/106 110/110
f 115/115 109/109 116/116
f 116/116 768/768 115/115
f 168/168 130/130 169/169
f 131/131 169/169 130/130
f 171/171 129/129 170/170
f 128/128 170/170 129/129
f 172/172 143/143 130/130
f 130/130 168/168 172/172
f 169/169 765/765 775/775
f 765/765 169/169 131/131
f 170/170 143/143 172/172
f 143/143 170/170 128/128
f 350/350 173/173 349/349
f 776/776 227/227 777/777
f 176/176 179/179 175/175
f 180/180 182/182 179/179
f 178/178 179/179 176/176
f 178/178 176/176 175/175
f 181/181 183/183 177/177
f 174/174 179/179 182/182
f 178/178 180/180 179/179
f 181/181 178/178 175/175
f 189/189 180/180 178/178
f 177/177 191/191 181/181
f 180/180 174/174 182/182
f 183/183 175/175 177/177
f 181/181 175/175 183/183
f 186/186 185/185 188/188
f 189/189 188/188 192/192
f 190/190 186/186 188/188
f 190/190 185/185 186/186
f 191/191 187/187 193/193
f 191/191 177/177 187/187
f 184/184 192/192 188/188
f 190/190 188/188 189/189
f 191/191 185/185 190/190
f 174/174 180/180 189/189
f 174/174 189/189 184/184
f 178/178 190/190 189/189
f 178/178 181/181 191/191
f 178/178 191/191 190/190
f 189/189 192/192 184/184
f 193/193 187/187 185/185
f 191/191 193/193 185/185
f 200/200 203/203 195/195
f 201/201 195/195 196/196
f 201/201 196/196 199/199
f 202/202 204/204 197/197
f 194/194 195/195 203/203
f 201/201 200/200 195/195
f 195/195 199/199 196/196
f 202/202 201/201 199/199
f 210/210 200/200 201/201
f 198/198 210/210 201/201
f 211/211 201/201 202/202
f 197/197 211/211 202/202
f 200/200 194/194 203/203
f 204/204 199/199 197/197
f 202/202 199/199 204/204
f 207/207 206/206 209/209
f 210/210 209/209 212/212
f 198/198 207/207 209/209
f 198/198 206/206 207/207
f 211/211 208/208 213/213
f 211/211 197/197 208/208
f 205/205 212/212 209/209
f 198/198 209/209 210/210
f 211/211 206/206 198/198
f 194/194 210/210 205/205
f 194/194 200/200 210/210
f 201/201 211/211 198/198
f 210/210 212/212 205/205
f 213/213 208/208 206/206
f 211/211 213/213 206/206
f 148/148 26/26 27/27
f 214/214 67/67 80/80
f 80/80 68/68 214/214
f 215/215 214/214 68/68
f 215/215 68/68 18/18
f 18/18 28/28 215/215
f 78/78 64/64 76/76
f 70/70 217/217 72/72
f 71/71 19/19 219/219
f 749/749 23/23 778/778
f 82/82 81/81 71/71
f 219/219 73/73 71/71
f 219/219 123/123 73/73
f 21/21 121/121 219/219
f 23/23 749/749 121/121
f 123/123 219/219 121/121
f 122/122 82/82 123/123
f 73/73 123/123 82/82
f 82/82 122/122 218/218
f 82/82 218/218 217/217
f 218/218 120/120 217/217
f 221/221 60/60 46/46
f 779/779 25/25 780/780
f 780/780 147/147 733/733
f 147/147 780/780 25/25
f 25/25 65/65 147/147
f 65/65 79/79 147/147
f 77/77 147/147 79/79
f 39/39 58/58 42/42
f 222/222 352/352 353/353
f 781/781 222/222 353/353
f 782/782 222/222 781/781
f 782/782 727/727 222/222
f 783/783 354/354 726/726
f 351/351 224/224 225/225
f 784/784 785/785 226/226
f 786/786 787/787 216/216
f 236/236 235/235 228/228
f 237/237 276/276 229/229
f 239/239 238/238 230/230
f 240/240 247/247 231/231
f 241/241 290/290 232/232
f 242/242 241/241 233/233
f 243/243 242/242 234/234
f 291/291 241/241 244/244
f 241/241 242/242 244/244
f 245/245 244/244 242/242
f 242/242 243/243 245/245
f 246/246 286/286 285/285
f 248/248 250/250 249/249
f 251/251 258/258 277/277
f 252/252 259/259 279/279
f 253/253 260/260 274/274
f 254/254 261/261 260/260
f 255/255 262/262 273/273
f 256/256 263/263 272/272
f 257/257 265/265 264/264
f 283/283 278/278 280/280
f 281/281 266/266 284/284
f 288/288 282/282 287/287
f 275/275 267/267 289/289
f 268/268 788/788 789/789
f 271/271 270/270 269/269
f 294/294 293/293 292/292
f 297/297 296/296 295/295
f 306/306 305/305 298/298
f 307/307 306/306 299/299
f 309/309 308/308 300/300
f 310/310 319/319 301/301
f 311/311 310/310 302/302
f 312/312 311/311 303/303
f 313/313 312/312 304/304
f 305/305 306/306 314/314
f 306/306 307/307 314/314
f 319/319 310/310 315/315
f 316/316 315/315 310/310
f 310/310 311/311 316/316
f 311/311 312/312 316/316
f 317/317 316/316 312/312
f 312/312 313/313 317/317
f 318/318 308/308 307/307
f 320/320 322/322 321/321
f 323/323 332/332 331/331
f 324/324 333/333 332/332
f 325/325 334/334 333/333
f 326/326 335/335 334/334
f 327/327 336/336 335/335
f 328/328 337/337 336/336
f 329/329 338/338 337/337
f 330/330 339/339 338/338
f 331/331 341/341 340/340
f 341/341 331/331 332/332
f 341/341 332/332 333/333
f 333/333 342/342 341/341
f 342/342 333/333 334/334
f 342/342 334/334 335/335
f 335/335 343/343 342/342
f 343/343 335/335 336/336
f 344/344 336/336 337/337
f 344/344 337/337 338/338
f 338/338 345/345 344/344
f 345/345 338/338 339/339
f 348/348 347/347 346/346
f 781/781 353/353 728/728
f 727/727 355/355 352/352
f 353/353 62/62 790/790
f 353/353 790/790 729/729
f 354/354 791/791 223/223
f 354/354 792/792 791/791
f 355/355 62/62 352/352
f 352/352 62/62 353/353
f 793/793 378/378 357/357
f 794/794 359/359 795/795
f 359/359 794/794 360/360
f 796/796 360/360 794/794
f 360/360 796/796 367/367
f 795/795 356/356 797/797
f 356/356 795/795 359/359
f 798/798 799/799 358/358
f 358/358 361/361 798/798
f 368/368 365/365 364/364
f 364/364 362/362 368/368
f 362/362 364/364 363/363
f 366/366 368/368 362/362
f 368/368 389/389 367/367
f 380/380 371/371 378/378
f 357/357 378/378 371/371
f 366/366 359/359 360/360
f 359/359 366/366 362/362
f 367/367 796/796 361/361
f 360/360 367/367 389/389
f 363/363 356/356 359/359
f 362/362 363/363 359/359
f 364/364 365/365 370/370
f 370/370 369/369 364/364
f 363/363 364/364 369/369
f 369/369 356/356 363/363
f 800/800 797/797 356/356
f 801/801 377/377 799/799
f 358/358 799/799 377/377
f 356/356 369/369 800/800
f 380/380 369/369 370/370
f 372/372 371/371 365/365
f 370/370 365/365 371/371
f 546/546 446/446 802/802
f 384/384 367/367 374/374
f 368/368 367/367 384/384
f 547/547 803/803 357/357
f 386/386 376/376 375/375
f 385/385 365/365 384/384
f 385/385 372/372 365/365
f 385/385 373/373 376/376
f 373/373 374/374 358/358
f 361/361 358/358 367/367
f 374/374 367/367 358/358
f 377/377 493/493 375/375
f 804/804 377/377 801/801
f 377/377 375/375 376/376
f 377/377 376/376 373/373
f 373/373 358/358 377/377
f 805/805 379/379 378/378
f 378/378 793/793 805/805
f 805/805 800/800 379/379
f 369/369 379/379 800/800
f 369/369 380/380 379/379
f 370/370 371/371 380/380
f 381/381 806/806 807/807
f 381/381 807/807 808/808
f 381/381 809/809 806/806
f 387/387 547/547 386/386
f 382/382 375/375 493/493
f 810/810 798/798 383/383
f 361/361 383/383 798/798
f 383/383 361/361 811/811
f 811/811 812/812 383/383
f 376/376 372/372 385/385
f 547/547 357/357 372/372
f 376/376 386/386 372/372
f 387/387 386/386 375/375
f 375/375 382/382 387/387
f 802/802 813/813 546/546
f 371/371 372/372 357/357
f 669/669 814/814 549/549
f 667/667 815/815 548/548
f 668/668 816/816 817/817
f 357/357 803/803 793/793
f 810/810 383/383 812/812
f 368/368 366/366 389/389
f 360/360 389/389 366/366
f 400/400 818/818 402/402
f 819/819 820/820 821/821
f 822/822 391/391 823/823
f 392/392 820/820 824/824
f 820/820 392/392 390/390
f 474/474 823/823 391/391
f 475/475 439/439 445/445
f 541/541 392/392 825/825
f 824/824 825/825 392/392
f 395/395 826/826 393/393
f 540/540 405/405 404/404
f 827/827 394/394 828/828
f 829/829 826/826 395/395
f 398/398 396/396 827/827
f 827/827 830/830 398/398
f 829/829 545/545 831/831
f 407/407 408/408 397/397
f 401/401 832/832 818/818
f 818/818 400/400 401/401
f 467/467 462/462 463/463
f 462/462 465/465 464/464
f 818/818 821/821 390/390
f 390/390 402/402 818/818
f 403/403 473/473 401/401
f 832/832 401/401 473/473
f 392/392 404/404 390/390
f 540/540 393/393 405/405
f 404/404 392/392 541/541
f 541/541 540/540 404/404
f 406/406 395/395 393/393
f 391/391 405/405 393/393
f 407/407 396/396 543/543
f 543/543 408/408 407/407
f 410/410 833/833 409/409
f 834/834 409/409 833/833
f 409/409 835/835 411/411
f 835/835 409/409 834/834
f 412/412 833/833 410/410
f 833/833 412/412 836/836
f 413/413 835/835 837/837
f 835/835 413/413 411/411
f 413/413 837/837 838/838
f 838/838 414/414 413/413
f 839/839 836/836 412/412
f 836/836 839/839 840/840
f 415/415 410/410 409/409
f 410/410 415/415 416/416
f 417/417 409/409 411/411
f 409/409 417/417 415/415
f 416/416 412/412 410/410
f 417/417 411/411 413/413
f 413/413 418/418 417/417
f 419/419 413/413 414/414
f 413/413 419/419 418/418
f 841/841 839/839 412/412
f 412/412 416/416 841/841
f 420/420 416/416 415/415
f 416/416 420/420 421/421
f 420/420 415/415 417/417
f 417/417 422/422 420/420
f 423/423 417/417 418/418
f 417/417 423/423 422/422
f 423/423 418/418 419/419
f 419/419 424/424 423/423
f 842/842 841/841 416/416
f 416/416 421/421 842/842
f 430/430 423/423 424/424
f 431/431 426/426 425/425
f 426/426 431/431 432/432
f 425/425 427/427 431/431
f 432/432 428/428 426/426
f 433/433 427/427 429/429
f 434/434 429/429 430/430
f 429/429 434/434 433/433
f 843/843 428/428 844/844
f 435/435 432/432 431/431
f 437/437 431/431 427/427
f 431/431 437/437 435/435
f 486/486 428/428 432/432
f 432/432 438/438 486/486
f 437/437 427/427 433/433
f 433/433 439/439 437/437
f 487/487 433/433 434/434
f 487/487 440/440 433/433
f 845/845 844/844 486/486
f 443/443 435/435 437/437
f 435/435 443/443 441/441
f 442/442 438/438 436/436
f 438/438 442/442 444/444
f 443/443 437/437 439/439
f 445/445 439/439 440/440
f 444/444 846/846 438/438
f 846/846 444/444 847/847
f 802/802 398/398 830/830
f 398/398 802/802 446/446
f 831/831 447/447 848/848
f 446/446 543/543 398/398
f 450/450 468/468 544/544
f 450/450 446/446 546/546
f 546/546 451/451 450/450
f 849/849 447/447 850/850
f 452/452 850/850 449/449
f 449/449 448/448 452/452
f 544/544 468/468 448/448
f 453/453 452/452 448/448
f 454/454 851/851 852/852
f 852/852 455/455 454/454
f 456/456 853/853 854/854
f 853/853 456/456 457/457
f 456/456 854/854 469/469
f 855/855 469/469 854/854
f 856/856 458/458 470/470
f 470/470 857/857 856/856
f 858/858 470/470 472/472
f 470/470 858/858 857/857
f 471/471 461/461 460/460
f 460/460 859/859 471/471
f 856/856 860/860 861/861
f 862/862 856/856 863/863
f 447/447 449/449 850/850
f 453/453 850/850 452/452
f 864/864 865/865 853/853
f 853/853 457/457 864/864
f 866/866 472/472 471/471
f 472/472 866/866 858/858
f 465/465 462/462 467/467
f 446/446 450/450 544/544
f 469/469 855/855 851/851
f 851/851 454/454 469/469
f 472/472 459/459 466/466
f 459/459 472/472 470/470
f 470/470 867/867 459/459
f 859/859 866/866 471/471
f 471/471 466/466 461/461
f 466/466 471/471 472/472
f 395/395 397/397 829/829
f 407/407 397/397 395/395
f 395/395 406/406 407/407
f 396/396 407/407 406/406
f 406/406 394/394 396/396
f 394/394 827/827 396/396
f 391/391 393/393 474/474
f 393/393 826/826 868/868
f 393/393 868/868 474/474
f 476/476 442/442 869/869
f 869/869 479/479 476/476
f 476/476 444/444 442/442
f 444/444 476/476 477/477
f 478/478 475/475 445/445
f 475/475 478/478 870/870
f 871/871 847/847 444/444
f 444/444 477/477 871/871
f 480/480 869/869 441/441
f 869/869 480/480 483/483
f 482/482 439/439 475/475
f 475/475 872/872 482/482
f 480/480 441/441 443/443
f 443/443 481/481 480/480
f 482/482 443/443 439/439
f 443/443 482/482 481/481
f 484/484 477/477 476/476
f 484/484 476/476 479/479
f 873/873 870/870 478/478
f 484/484 871/871 477/477
f 485/485 483/483 480/480
f 485/485 480/480 481/481
f 485/485 481/481 482/482
f 485/485 482/482 872/872
f 844/844 428/428 486/486
f 432/432 436/436 438/438
f 439/439 433/433 440/440
f 488/488 438/438 846/846
f 846/846 489/489 488/488
f 874/874 875/875 845/845
f 845/845 491/491 874/874
f 490/490 845/845 486/486
f 845/845 490/490 491/491
f 490/490 486/486 438/438
f 438/438 488/488 490/490
f 492/492 488/488 489/489
f 492/492 874/874 491/491
f 492/492 491/491 490/490
f 492/492 490/490 488/488
f 421/421 426/426 428/428
f 425/425 420/420 427/427
f 422/422 427/427 420/420
f 429/429 423/423 430/430
f 426/426 421/421 420/420
f 425/425 426/426 420/420
f 428/428 842/842 421/421
f 428/428 843/843 842/842
f 427/427 422/422 423/423
f 427/427 423/423 429/429
f 377/377 804/804 493/493
f 390/390 821/821 820/820
f 442/442 436/436 435/435
f 432/432 435/435 436/436
f 435/435 441/441 442/442
f 869/869 442/442 441/441
f 456/456 494/494 495/495
f 495/495 457/457 456/456
f 455/455 497/497 496/496
f 496/496 454/454 455/455
f 469/469 498/498 456/456
f 494/494 456/456 498/498
f 864/864 495/495 876/876
f 495/495 864/864 457/457
f 469/469 496/496 498/498
f 496/496 469/469 454/454
f 499/499 666/666 665/665
f 552/552 877/877 878/878
f 505/505 502/502 501/501
f 508/508 506/506 505/505
f 505/505 504/504 502/502
f 502/502 504/504 501/501
f 509/509 507/507 503/503
f 505/505 500/500 508/508
f 506/506 504/504 505/505
f 504/504 507/507 501/501
f 506/506 515/515 504/504
f 517/517 503/503 507/507
f 500/500 506/506 508/508
f 501/501 509/509 503/503
f 501/501 507/507 509/509
f 511/511 512/512 514/514
f 514/514 515/515 518/518
f 512/512 516/516 514/514
f 511/511 516/516 512/512
f 513/513 517/517 519/519
f 503/503 517/517 513/513
f 518/518 510/510 514/514
f 514/514 516/516 515/515
f 511/511 517/517 516/516
f 506/506 500/500 515/515
f 515/515 500/500 510/510
f 516/516 504/504 515/515
f 507/507 504/504 517/517
f 517/517 504/504 516/516
f 518/518 515/515 510/510
f 513/513 519/519 511/511
f 519/519 517/517 511/511
f 529/529 526/526 521/521
f 521/521 527/527 522/522
f 522/522 527/527 525/525
f 530/530 528/528 523/523
f 521/521 520/520 529/529
f 526/526 527/527 521/521
f 525/525 521/521 522/522
f 527/527 528/528 525/525
f 526/526 536/536 527/527
f 536/536 524/524 527/527
f 527/527 537/537 528/528
f 537/537 523/523 528/528
f 520/520 526/526 529/529
f 525/525 530/530 523/523
f 525/525 528/528 530/530
f 532/532 533/533 535/535
f 535/535 536/536 538/538
f 533/533 524/524 535/535
f 532/532 524/524 533/533
f 534/534 537/537 539/539
f 523/523 537/537 534/534
f 538/538 531/531 535/535
f 535/535 524/524 536/536
f 532/532 537/537 524/524
f 536/536 520/520 531/531
f 526/526 520/520 536/536
f 537/537 527/527 524/524
f 538/538 536/536 531/531
f 534/534 539/539 532/532
f 539/539 537/537 532/532
f 823/823 474/474 868/868
f 393/393 540/540 406/406
f 394/394 406/406 540/540
f 540/540 541/541 394/394
f 394/394 541/541 828/828
f 825/825 828/828 541/541
f 390/390 404/404 402/402
f 543/543 396/396 398/398
f 829/829 397/397 545/545
f 848/848 849/849 879/879
f 408/408 399/399 397/397
f 399/399 545/545 397/397
f 447/447 545/545 449/449
f 447/447 831/831 545/545
f 849/849 848/848 447/447
f 399/399 449/449 545/545
f 408/408 448/448 449/449
f 449/449 399/399 408/408
f 448/448 408/408 544/544
f 544/544 408/408 543/543
f 446/446 544/544 543/543
f 386/386 547/547 372/372
f 822/822 880/880 881/881
f 473/473 881/881 832/832
f 881/881 473/473 822/822
f 391/391 822/822 473/473
f 405/405 391/391 473/473
f 473/473 403/403 405/405
f 384/384 365/365 368/368
f 667/667 548/548 668/668
f 548/548 882/882 668/668
f 548/548 883/883 882/882
f 815/815 883/883 548/548
f 669/669 884/884 814/814
f 885/885 886/886 550/550
f 887/887 888/888 551/551
f 889/889 890/890 542/542
f 560/560 561/561 553/553
f 598/598 562/562 554/554
f 563/563 564/564 555/555
f 570/570 565/565 556/556
f 612/612 566/566 557/557
f 566/566 567/567 558/558
f 567/567 891/891 559/559
f 566/566 613/613 568/568
f 567/567 566/566 568/568
f 568/568 892/892 567/567
f 891/891 567/567 892/892
f 608/608 569/569 607/607
f 573/573 571/571 572/572
f 581/581 574/574 599/599
f 582/582 575/575 601/601
f 583/583 576/576 596/596
f 584/584 577/577 583/583
f 585/585 578/578 595/595
f 893/893 579/579 594/594
f 587/587 580/580 586/586
f 600/600 605/605 602/602
f 588/588 603/603 606/606
f 604/604 610/610 609/609
f 589/589 597/597 611/611
f 894/894 590/590 895/895
f 592/592 593/593 591/591
f 615/615 616/616 614/614
f 618/618 619/619 617/617
f 896/896 627/627 620/620
f 627/627 628/628 621/621
f 629/629 630/630 622/622
f 638/638 631/631 623/623
f 631/631 632/632 624/624
f 632/632 633/633 625/625
f 633/633 897/897 626/626
f 627/627 896/896 634/634
f 628/628 627/627 634/634
f 631/631 638/638 635/635
f 635/635 636/636 631/631
f 632/632 631/631 636/636
f 633/633 632/632 636/636
f 636/636 898/898 633/633
f 897/897 633/633 898/898
f 629/629 637/637 628/628
f 641/641 639/639 640/640
f 650/650 642/642 899/899
f 651/651 643/643 650/650
f 652/652 644/644 651/651
f 653/653 645/645 652/652
f 654/654 646/646 653/653
f 655/655 647/647 654/654
f 656/656 648/648 655/655
f 900/900 649/649 656/656
f 657/657 899/899 901/901
f 899/899 657/657 650/650
f 650/650 657/657 651/651
f 658/658 651/651 657/657
f 651/651 658/658 652/652
f 652/652 658/658 653/653
f 659/659 653/653 658/658
f 653/653 659/659 654/654
f 654/654 660/660 655/655
f 655/655 660/660 656/656
f 661/661 656/656 660/660
f 656/656 661/661 900/900
f 663/663 664/664 662/662
f 668/668 882/882 816/816
f 670/670 815/815 667/667
f 388/388 668/668 902/902
f 902/902 668/668 817/817
f 903/903 669/669 549/549
f 904/904 669/669 903/903
f 388/388 670/670 667/667
f 388/388 667/667 668/668
f 674/674 673/673 671/671
f 671/671 672/672 674/674
f 678/678 676/676 675/675
f 675/675 677/677 678/678
f 680/680 905/905 906/906
f 906/906 679/679 680/680
f 684/684 907/907 908/908
f 908/908 683/683 684/684
f 909/909 684/684 683/683
f 683/683 675/675 909/909
f 681/681 674/674 905/905
f 905/905 680/680 681/681
f 678/678 685/685 910/910
f 910/910 676/676 911/911
f 682/682 673/673 674/674
f 674/674 681/681 682/682
f 686/686 912/912 913/913
f 913/913 914/914 686/686
f 915/915 686/686 914/914
f 914/914 916/916 915/915
f 679/679 906/906 673/673
f 673/673 682/682 679/679
f 917/917 918/918 919/919
f 919/919 686/686 917/917
f 920/920 917/917 686/686
f 686/686 915/915 920/920
f 687/687 907/907 684/684
f 684/684 689/689 687/687
f 688/688 921/921 922/922
f 922/922 687/687 923/923
f 690/690 914/914 913/913
f 913/913 924/924 690/690
f 689/689 684/684 925/925
f 925/925 690/690 689/689
f 703/703 923/923 687/687
f 702/702 691/691 692/692
f 704/704 690/690 924/924
f 926/926 927/927 694/694
f 928/928 701/701 690/690
f 928/928 929/929 693/693
f 930/930 687/687 689/689
f 931/931 932/932 933/933
f 691/691 695/695 696/696
f 927/927 934/934 698/698
f 929/929 935/935 697/697
f 932/932 936/936 937/937
f 699/699 696/696 695/695
f 700/700 698/698 705/705
f 934/934 705/705 698/698
f 700/700 697/697 935/935
f 699/699 937/937 705/705
f 936/936 700/700 705/705
f 930/930 931/931 933/933
f 701/701 689/689 690/690
f 689/689 931/931 930/930
f 703/703 702/702 692/692
f 687/687 702/702 703/703
f 704/704 926/926 694/694
f 924/924 926/926 704/704
f 701/701 928/928 693/693
f 936/936 705/705 937/937
f 934/934 699/699 705/705
f 694/694 927/927 698/698
f 693/693 929/929 697/697
f 933/933 932/932 937/937
f 692/692 691/691 696/696
f 708/708 707/707 706/706
f 709/709 708/708 706/706
f 710/710 709/709 706/706
f 707/707 710/710 706/706
f 713/713 712/712 711/711
f 714/714 713/713 711/711
f 715/715 714/714 711/711
f 712/712 715/715 711/711
f 718/718 717/717 716/716
f 719/719 718/718 716/716
f 720/720 719/719 716/716
f 717/717 720/720 716/716
