# MOD converted: m164.mod
# 506 verts, 358 faces

v 165.073792 62.014221 -0.000311
v 178.573227 150.074677 0.000119
v 30.481674 -13.268235 0.000093
v 161.401581 -13.635139 -0.000196
v 38.201271 61.988007 0.000033
v 50.376957 -77.916412 -40.285522
v 64.350113 -77.916405 -35.964722
v 116.632462 -77.916351 -49.615196
v 51.059563 -48.702515 -66.485336
v 74.311974 -48.702538 -64.461517
v 116.821716 -48.724831 -43.475647
v 142.137558 -48.734554 -46.346233
v 50.710197 22.766186 -64.568481
v 73.049049 22.766142 -62.210003
v 118.851265 22.765940 -39.702168
v 145.703262 22.765902 -28.348108
v 55.572033 38.432041 -45.868240
v 78.395058 38.431797 -33.077812
v 118.017380 38.431377 -45.402805
v 44.939125 61.987850 -74.249680
v 95.747993 61.987549 -49.957924
v 152.943420 62.014339 -55.218929
v 37.306347 150.077499 -87.417168
v 75.611580 150.076721 -87.417130
v 124.060738 150.075745 -55.218895
v 160.978821 150.074982 -35.921005
v 52.819424 196.798950 -57.042595
v 98.882225 196.806824 -35.920956
v 144.434143 198.024963 -58.024281
v 36.507248 96.901001 -91.697426
v 78.058159 96.900131 -91.697395
v 121.614113 96.899246 -58.024246
v 164.225800 96.898369 -46.476349
v 84.116356 -77.916367 -52.027004
v 46.907673 -13.268244 -71.095924
v 71.628334 -13.268248 -68.942726
v 122.167847 -13.494037 -45.730167
v 150.887390 -13.591991 -45.286919
v 85.714111 6.632895 -56.789627
v 80.222778 16.588831 -121.807457
v 129.447754 32.167870 -56.778416
v 83.251717 5.080401 -41.522141
v 97.220680 3.767893 -91.592216
v 153.201340 29.742317 -109.715118
v 97.392860 53.913551 -62.862869
v 86.842331 22.231228 -62.643875
v 92.527847 1.148083 -125.247955
v 120.230949 14.119682 -181.548676
v 107.786072 115.075600 -104.344994
v 153.703156 40.801502 -111.885475
v 111.528229 53.693970 -116.610748
v 169.580811 49.135418 -186.605621
v 125.043404 116.909210 -140.991135
v 77.644714 84.174301 -118.069328
v 98.694084 61.012875 -142.142776
v 128.268341 27.667953 -187.966537
v 97.456161 72.285179 -152.360413
v 78.288544 94.004318 -211.285065
v 1.119990 154.896530 -180.737091
v 91.041443 89.363655 -220.554916
v 35.913364 160.414215 -194.058304
v 105.949280 126.272308 -151.006470
v 61.824375 95.285126 -189.253403
v 0.935862 138.317688 -221.804611
v 15.859967 129.592926 -195.158813
v 80.303490 84.303970 -220.682846
v 62.998661 156.474182 -170.859741
v 6.315552 121.453712 -222.755341
v 30.747543 107.081940 -155.970764
v 142.645355 87.529282 -132.696289
v 96.339363 74.135651 -166.530212
v 118.912582 55.111137 -130.972565
v 168.715073 61.803986 -125.504761
v 94.796112 68.087723 -178.256073
v 135.788086 108.011993 -135.883514
v 85.413086 78.552864 -94.892479
v 134.059204 62.995399 -45.254112
v 82.723831 18.103941 -41.700336
v 91.568520 24.816284 -76.385834
v 128.602829 70.084579 -93.280663
v 136.640198 83.632851 -139.104431
v 105.828018 128.250061 -153.822052
v 95.652969 120.191132 -187.645248
v 21.712704 168.717789 -149.401703
v 88.143349 136.712494 -167.937271
v 40.139858 169.868530 -122.316986
v 126.487915 105.751373 -220.554916
v 35.913364 160.414215 -252.179489
v -8.787625 190.571930 -221.804596
v 15.859967 129.592941 -187.645248
v 21.712704 168.717789 -58.522896
v 97.425453 -16.059151 -60.484577
v 89.757576 -7.460508 -62.446686
v 82.021301 -16.059168 -115.374756
v 111.618454 -30.687664 -60.484600
v 89.757523 -24.657797 -65.283546
v 107.614105 -16.059153 -109.513794
v 133.902878 -16.059156 -107.008560
v 110.916962 10.457926 -68.843338
v 93.305115 -0.472412 -104.842278
v 89.213028 -16.059170 -72.405502
v 78.934158 -16.059149 -68.843338
v 93.305115 -31.645897 -107.008522
v 110.917038 -42.576244 -165.935852
v 75.489136 -16.059166 -151.096252
v 69.200378 -1.430640 -119.653580
v 127.565681 -16.059170 -115.374741
v 111.618416 -1.430657 -111.311058
v 97.004761 -16.059174 -132.983658
v 133.451309 -16.059164 -172.870911
v 86.246262 -16.059185 -148.870621
v 76.038887 10.457923 -122.715630
v 108.804199 10.457920 -125.261444
v 65.270653 -16.059170 -112.856972
v 86.698036 -16.059164 -122.715599
v 108.804192 -42.576244 -148.870621
v 76.038818 -42.576244 -135.585907
v 62.651829 -16.059162 -179.918030
v 1.119962 -16.059158 -151.096283
v 69.200378 -30.687658 -192.238846
v 20.101000 -16.059107 -176.944519
v 70.819664 -16.059177 -154.338837
v 61.440224 8.775960 -180.781708
v 17.724768 -2.628692 -132.094162
v 51.451626 -16.059151 -159.229919
v 3.984893 -16.059116 -181.059753
v 15.567539 -30.878527 -154.338837
v 61.440193 -40.894283 -196.093063
v 39.093613 -16.059225 -169.479034
v 26.580502 13.684210 -143.412979
v 12.732627 -16.059448 -169.479004
v 26.580502 -45.802517 -157.983078
v 113.736938 -16.059185 -137.588547
v 96.043381 13.280010 -116.578102
v 77.277046 -16.059170 -137.588531
v 96.043381 -45.398323 -192.238846
v 20.101000 -16.059107 -218.264725
v -4.083221 -16.374493 -181.059753
v 15.567539 -30.878527 -180.781708
v 17.724768 -2.628692 -53.788113
v 98.032463 -41.677895 -60.254429
v 90.459702 -35.560608 -57.040161
v 82.598671 -43.654366 -92.532898
v 111.582016 -85.981598 -50.573452
v 90.239761 -49.772453 -59.369812
v 108.165863 -45.636875 -95.910645
v 134.097839 -70.929420 -108.781044
v 111.473663 -47.259117 -71.094742
v 94.029320 -34.544075 -92.075867
v 89.450462 -67.626389 -65.272934
v 79.432205 -49.213463 -53.546005
v 93.630745 -60.305855 -78.926064
v 110.795616 -91.086563 -142.577728
v 75.239441 -101.807953 -138.551437
v 69.257126 -81.271263 -104.294891
v 127.680267 -76.541420 -109.003990
v 111.950745 -61.804329 -97.417740
v 97.189560 -71.384979 -115.308746
v 133.458618 -84.133308 -148.303223
v 85.939850 -105.873672 -143.400467
v 76.264679 -70.296791 -121.764137
v 109.235451 -56.068481 -108.966316
v 65.347473 -78.759094 -98.701500
v 86.871651 -72.099800 -91.909210
v 108.557365 -99.895927 -113.545540
v 75.586510 -114.124306 -117.501045
v 62.646366 -84.531097 -154.176880
v 1.119945 -108.576385 -122.081596
v 68.883057 -105.449287 -164.349640
v 19.647209 -115.778656 -151.679138
v 70.482445 -107.934158 -146.981644
v 61.602432 -74.544746 -162.828720
v 17.502604 -98.007889 -114.621674
v 51.475353 -82.396851 -137.077209
v 3.796954 -96.955704 -146.425491
v 15.345381 -121.009300 -119.020378
v 60.967312 -115.592239 -167.524002
v 38.606834 -118.234337 -162.278488
v 26.688311 -78.485321 -123.999397
v 12.670230 -88.184456 -128.791168
v 25.927696 -127.645157 -135.982330
v 113.546501 -97.907906 -135.652740
v 96.393211 -61.915676 -101.782516
v 77.421959 -74.052406 -102.620499
v 95.642952 -110.407463 -164.349640
v 19.647209 -115.778656 -185.039902
v -4.305368 -131.182983 -146.425491
v 15.345381 -121.009285 -162.828720
v 17.502604 -98.007889 -39.900658
v 85.259384 -62.746925 -48.625446
v 77.591492 -61.457397 -41.323406
v 69.855225 -66.403702 -48.028404
v 100.034668 -129.135941 -32.598423
v 77.591469 -67.692848 -42.351955
v 95.448036 -69.047539 -59.536392
v 122.319099 -118.369736 -83.340675
v 99.333252 -106.420326 -58.168770
v 81.139023 -66.713600 -54.249264
v 77.629280 -111.983368 -44.934242
v 66.768074 -75.684860 -29.116566
v 81.139038 -78.016563 -33.915348
v 99.333298 -125.649590 -63.212914
v 113.064682 -127.819550 -75.294540
v 100.034630 -118.527817 -56.594704
v 82.492325 -117.776627 -72.419655
v 3.564987 -158.348297 -76.196030
v 15.525452 -169.694733 -70.645638
v 105.886490 -148.762787 -87.160950
v 85.591621 -123.261749 -85.028236
v 12.885498 -154.357071 -55.208244
v 69.453766 -117.895554 -66.569885
v 9.851867 -142.764847 -58.570938
v 10.728259 -164.263657 -38.525055
v 90.194458 -141.214905 -79.450394
v 42.442863 -181.010284 -97.494377
v 34.793869 -145.242203 -59.552109
v 25.567268 -127.897186 -42.005035
v 31.685316 -166.454102 -95.287628
v 71.055817 -133.386261 -56.372398
v 55.644672 -120.012489 -76.050835
v 86.820923 -167.192078 -37.274525
v 70.966293 -154.027328 -76.164566
v 15.527244 -169.705902 -84.906181
v -8.922474 -194.280869 -58.570938
v 10.728259 -164.263657 -85.028236
v 12.885498 -154.357071 -0.000047
v 156.140594 22.765896 -0.000146
v 46.854420 38.432106 -0.000313
v 26.861345 150.077774 -0.000374
v 41.945446 196.797241 -0.000023
v 35.431187 22.766310 -0.000150
v 138.146484 38.431194 -0.000374
v 155.308105 198.028229 -0.000410
v 95.000877 223.963638 -0.000241
v 180.308151 96.898087 -0.000243
v 27.574299 96.901222 40.285530
v 64.350121 -77.916420 35.964741
v 116.632454 -77.916359 0.000040
v 151.036697 -48.738754 49.615200
v 51.059593 -48.702534 66.485367
v 74.311974 -48.702534 64.461540
v 116.821716 -48.724838 43.475742
v 142.137558 -48.734512 46.346260
v 50.710197 22.766186 64.568512
v 73.049080 22.766148 62.210018
v 118.851265 22.765945 39.702187
v 145.703247 22.765907 28.348129
v 55.572037 38.432034 45.868259
v 78.395065 38.431797 33.077835
v 118.017380 38.431370 45.402824
v 44.939117 61.987858 74.250488
v 95.764816 61.986958 49.957962
v 152.943420 62.014343 55.218967
v 37.306347 150.077499 87.417175
v 75.611542 150.076721 87.417152
v 124.060707 150.075729 55.218933
v 160.978821 150.074982 35.921013
v 52.819412 196.798996 57.042622
v 98.882195 196.806824 35.920986
v 144.434128 198.024994 58.024296
v 36.507244 96.901024 91.697433
v 78.058136 96.900131 91.697418
v 121.614128 96.899529 58.024277
v 164.225769 96.898376 46.476372
v 84.116341 -77.916367 52.027031
v 46.907681 -13.268239 71.095932
v 71.628319 -13.268242 68.942749
v 122.167831 -13.494039 45.730164
v 150.887421 -13.592000 0.000011
v 122.738655 -76.766151 0.000062
v 36.070084 -48.702515 0.000013
v 91.598305 -91.411278 45.286942
v 85.714111 6.632904 56.789646
v 80.222778 16.588837 121.807480
v 129.447754 32.167873 56.778439
v 83.251709 5.080404 41.522156
v 97.220665 3.767898 91.592239
v 153.201340 29.742311 109.715126
v 97.392853 53.913567 62.862885
v 86.842316 22.231228 62.643890
v 92.527817 1.148092 125.247963
v 120.230949 14.119679 181.548691
v 107.786072 115.075600 104.345016
v 153.703156 40.801495 111.885498
v 111.528214 53.693962 116.610764
v 169.580826 49.135410 186.605667
v 125.043404 116.909210 140.991135
v 77.644714 84.174309 118.069351
v 98.694069 61.012863 142.142792
v 128.268341 27.667953 187.966568
v 97.456154 72.285179 152.360397
v 78.288536 94.004326 211.285080
v 1.119990 154.896530 180.737091
v 91.041443 89.363655 220.554932
v 35.913364 160.414215 194.058334
v 105.949280 126.272308 151.006470
v 61.824368 95.285126 189.253418
v 0.935857 138.317703 221.804611
v 15.859967 129.592926 195.158829
v 80.303497 84.303970 220.682861
v 62.998661 156.474182 170.859756
v 6.315557 121.453720 222.755341
v 30.747532 107.081940 155.970779
v 142.645355 87.529259 132.696304
v 96.339363 74.135666 166.530243
v 118.912567 55.111126 130.972595
v 168.715073 61.803986 125.504784
v 94.796127 68.087746 178.256073
v 135.788086 108.012016 135.883545
v 85.413086 78.552864 94.892479
v 134.059204 62.995388 45.254135
v 82.723839 18.103945 41.700352
v 91.568520 24.816284 76.385880
v 128.602798 70.084587 93.280685
v 136.640182 83.632851 139.104462
v 105.828026 128.250061 153.822083
v 95.652969 120.191139 187.645294
v 21.712704 168.717789 149.401703
v 88.143349 136.712494 167.937302
v 40.139851 169.868515 122.317017
v 126.487938 105.751373 220.554932
v 35.913364 160.414215 252.179504
v -8.787625 190.571930 221.804642
v 15.859967 129.592957 187.645294
v 21.712704 168.717789 58.522911
v 97.425453 -16.059151 60.484592
v 89.757584 -7.460506 62.446705
v 82.021294 -16.059141 115.374794
v 111.618423 -30.687664 60.484623
v 89.757530 -24.657787 65.283569
v 107.614105 -16.059162 109.513824
v 133.902878 -16.059170 107.008537
v 110.917061 10.457917 68.843338
v 93.305115 -0.472407 104.842285
v 89.213028 -16.059160 72.405533
v 78.934151 -16.059128 68.843369
v 93.305099 -31.645895 107.008537
v 110.917076 -42.576244 165.935883
v 75.489143 -16.059158 151.096313
v 69.200378 -1.430637 119.653595
v 127.565689 -16.059174 115.374763
v 111.618385 -1.430654 111.311081
v 97.004761 -16.059164 132.983673
v 133.451309 -16.059153 172.870911
v 86.246262 -16.059170 148.870621
v 76.038895 10.457926 122.715637
v 108.804199 10.457920 125.261467
v 65.270653 -16.059160 112.857002
v 86.698044 -16.059132 122.715630
v 108.804176 -42.576248 148.870621
v 76.038818 -42.576241 135.585922
v 62.651829 -16.059139 179.918060
v 1.119956 -16.059158 151.096313
v 69.200378 -30.687660 192.238861
v 20.100994 -16.059156 176.944565
v 70.819664 -16.059151 154.338852
v 61.440224 8.775968 180.781738
v 17.724773 -2.628692 132.094177
v 51.451618 -16.059130 159.229950
v 3.984887 -16.059156 181.059799
v 15.567545 -30.878531 154.338837
v 61.440193 -40.894283 196.093079
v 39.093616 -16.059166 169.479050
v 26.580502 13.684213 143.412994
v 12.732627 -16.059130 169.479019
v 26.580502 -45.802509 157.983093
v 113.736946 -16.059128 137.588562
v 96.043381 13.280019 116.578110
v 77.277046 -16.059168 137.588531
v 96.043373 -45.398319 192.238861
v 20.100994 -16.059156 218.264740
v -4.083221 -16.374483 181.059799
v 15.567545 -30.878527 180.781738
v 17.724773 -2.628694 53.788132
v 98.032463 -41.677895 60.254444
v 90.459702 -35.560604 57.040188
v 82.598663 -43.654362 92.532906
v 111.582024 -85.981590 50.573471
v 90.239761 -49.772453 59.369827
v 108.165863 -45.636879 95.910675
v 134.097839 -70.929420 108.781044
v 111.473717 -47.259113 71.094757
v 94.029327 -34.544075 92.075882
v 89.450462 -67.626381 65.272949
v 79.432205 -49.213459 53.546028
v 93.630745 -60.305855 78.926071
v 110.795662 -91.086563 142.577744
v 75.239441 -101.807953 138.551453
v 69.257126 -81.271255 104.294914
v 127.680275 -76.541428 109.002762
v 111.956070 -61.803585 97.417755
v 97.189560 -71.384987 115.308754
v 133.458618 -84.133308 148.303223
v 85.939857 -105.873672 143.400482
v 76.264679 -70.296806 121.764168
v 109.235466 -56.068474 108.966354
v 65.347473 -78.759109 98.701508
v 86.871666 -72.099800 91.909218
v 108.557365 -99.895935 113.545540
v 75.586510 -114.124306 117.501068
v 62.646366 -84.531090 154.176880
v 1.119945 -108.576385 122.081604
v 68.883057 -105.449280 164.349655
v 19.647192 -115.778656 151.679153
v 70.482445 -107.934158 146.981659
v 61.602432 -74.544739 162.828735
v 17.502615 -98.007889 114.621704
v 51.475346 -82.396858 137.077240
v 3.796965 -96.955696 146.425522
v 15.345381 -121.009293 119.020424
v 60.967312 -115.592239 167.524033
v 38.606834 -118.234337 162.278503
v 26.688316 -78.485313 123.999420
v 12.670219 -88.184464 128.791199
v 25.927702 -127.645164 135.982330
v 113.546486 -97.907906 135.652756
v 96.393227 -61.915672 101.782539
v 77.421959 -74.052399 102.620514
v 95.642952 -110.407471 164.349655
v 19.647192 -115.778656 185.039902
v -4.305357 -131.182983 146.425522
v 15.345387 -121.009285 162.828735
v 17.502615 -98.007889 39.900673
v 85.259384 -62.746925 48.625469
v 77.591492 -61.457397 41.323338
v 69.855232 -66.403725 48.028427
v 100.034683 -129.135925 32.598446
v 77.591469 -67.692848 42.351967
v 95.448036 -69.047539 59.536411
v 122.319115 -118.369743 83.340691
v 99.333252 -106.420326 58.168789
v 81.139030 -66.713608 54.249207
v 77.629280 -111.983383 44.934292
v 66.768074 -75.684853 29.116587
v 81.139038 -78.016563 33.915371
v 99.333282 -125.649590 63.212929
v 113.064682 -127.819550 75.294563
v 100.034622 -118.527824 56.594696
v 82.492340 -117.776627 72.419678
v 3.564992 -158.348282 76.196053
v 15.525457 -169.694733 70.645660
v 105.886520 -148.762772 87.160980
v 85.591621 -123.261749 85.028259
v 12.885503 -154.357071 55.208221
v 69.453766 -117.895554 66.569901
v 9.851872 -142.764847 58.570957
v 10.728270 -164.263672 38.525070
v 90.194458 -141.214890 79.450386
v 42.442852 -181.010300 97.494385
v 34.793869 -145.242218 59.552124
v 25.567274 -127.897186 42.005047
v 31.685299 -166.454102 95.287643
v 71.055824 -133.386261 56.372414
v 55.644691 -120.012482 76.050858
v 86.820923 -167.192047 37.274529
v 70.966286 -154.027344 76.164589
v 15.527260 -169.705902 84.906204
v -8.922474 -194.280884 58.570957
v 10.728270 -164.263672 85.028259
v 12.885503 -154.357071 20.515615
v 132.271317 -77.708511 18.129978
v 137.564789 -65.279373 26.872673
v 133.045013 -68.192245 27.961479
v 124.092766 -77.029297 20.307594
v 119.660294 -82.953476 11.564878
v 124.180077 -80.040581 10.476066
v 133.132324 -71.203537 14.780850
v 131.825928 -54.206680 26.221052
v 125.911613 -58.018288 27.645798
v 114.197227 -69.581924 17.630344
v 108.397148 -77.333954 6.190161
v 114.311462 -73.522331 4.765411
v 126.025848 -61.958679 -20.515619
v 132.271301 -77.708511 -18.129967
v 137.564819 -65.279373 -26.872679
v 133.045013 -68.192261 -27.961487
v 124.092758 -77.029297 -20.307575
v 119.660294 -82.953476 -11.564859
v 124.180077 -80.040588 -10.476042
v 133.132339 -71.203537 -14.780874
v 131.825912 -54.206673 -26.221037
v 125.911613 -58.018280 -27.645802
v 114.197227 -69.581940 -17.630341
v 108.397148 -77.333954 -6.190146
v 114.311462 -73.522331 -4.765398
v 126.025848 -61.958687 0.000013
v 91.598305 -91.411278 0.000011
v 122.738655 -76.766151 0.000062
v 36.070084 -48.702515 0.000033
v 50.376957 -77.916412 0.000040
v 151.036697 -48.738754 0.000119
v 30.481674 -13.268235 -0.000023
v 35.431187 22.766310 0.000093
v 161.401581 -13.635139 -0.000047
v 156.140594 22.765896 -0.000146
v 46.854420 38.432106 -0.000150
v 138.146484 38.431194 -0.000196
v 38.201271 61.988007 -0.000193
v 165.073792 62.014221 -0.000313
v 26.861345 150.077774 -0.000243
v 27.574299 96.901222 -0.000311
v 178.573227 150.074677 -0.000241
v 180.308151 96.898087 -0.000374
v 41.945446 196.797241 -0.000374
v 155.308105 198.028229 -0.000410
v 95.000877 223.963638 0.573925

vt 0.524495 0.643956
vt 0.557896 0.239807
vt 0.020661 0.238899
vt 0.515410 0.426005
vt 0.039761 0.079854
vt 0.069886 0.079854
vt 0.176842 0.079854
vt 0.335153 0.152135
vt 0.143958 0.152135
vt 0.230443 0.152080
vt 0.335621 0.152056
vt 0.405496 0.328964
vt 0.143094 0.328964
vt 0.227318 0.328964
vt 0.340643 0.328964
vt 0.414319 0.367724
vt 0.155123 0.367724
vt 0.240546 0.367724
vt 0.338580 0.426004
vt 0.128815 0.426004
vt 0.283522 0.426075
vt 0.432232 0.643956
vt 0.109930 0.643956
vt 0.233659 0.643956
vt 0.353532 0.643956
vt 0.452113 0.759574
vt 0.148313 0.759574
vt 0.291235 0.762554
vt 0.411178 0.512386
vt 0.107953 0.512386
vt 0.239712 0.512386
vt 0.347479 0.512386
vt 0.460147 0.079854
vt 0.254701 0.239807
vt 0.133686 0.239807
vt 0.223803 0.239249
vt 0.348849 0.239006
vt 0.427145 0.570905
vt 0.956314 0.602194
vt 0.890679 0.797082
vt 0.902981 0.588134
vt 0.927507 0.585868
vt 0.971994 0.795419
vt 0.989174 0.749406
vt 0.824943 0.627352
vt 0.889372 0.615676
vt 0.932067 0.771976
vt 0.909924 0.961001
vt 0.708467 0.827351
vt 0.963963 0.774016
vt 0.848423 0.879074
vt 0.970143 0.996944
vt 0.732186 0.799087
vt 0.721647 0.771652
vt 0.810350 0.824341
vt 0.891097 0.894568
vt 0.736040 0.827823
vt 0.699559 0.864924
vt 0.428973 0.889056
vt 0.705986 0.958981
vt 0.485497 0.989146
vt 0.679133 0.802036
vt 0.669799 0.813146
vt 0.470100 0.880653
vt 0.482879 0.891746
vt 0.682799 0.996260
vt 0.538770 0.775420
vt 0.518527 0.883574
vt 0.540690 0.945905
vt 0.829923 0.804277
vt 0.775641 0.875767
vt 0.815668 0.913082
vt 0.938923 0.784550
vt 0.787368 0.991150
vt 0.770579 0.797175
vt 0.747496 0.797082
vt 0.902981 0.588134
vt 0.927507 0.615676
vt 0.932067 0.771976
vt 0.909924 0.824341
vt 0.891097 0.894568
vt 0.736040 0.889056
vt 0.705986 0.880653
vt 0.482879 0.891746
vt 0.682799 0.883574
vt 0.540690 0.875767
vt 0.815668 0.896040
vt 0.200858 0.754658
vt 0.015368 0.992891
vt 0.104447 0.992891
vt 0.104447 0.368339
vt 0.872570 0.369206
vt 0.841695 0.367088
vt 0.811636 0.226499
vt 0.898530 0.369206
vt 0.841695 0.350762
vt 0.899059 0.235770
vt 0.980336 0.248250
vt 0.896706 0.347474
vt 0.850918 0.256866
vt 0.830333 0.341197
vt 0.803610 0.347474
vt 0.850918 0.248250
vt 0.896706 0.089080
vt 0.815539 0.133628
vt 0.788249 0.209407
vt 0.963860 0.226499
vt 0.898530 0.240048
vt 0.850591 0.174751
vt 0.979162 0.071050
vt 0.843506 0.139415
vt 0.806028 0.207414
vt 0.891213 0.203779
vt 0.768087 0.236029
vt 0.823795 0.207414
vt 0.891213 0.139415
vt 0.806028 0.176937
vt 0.761278 0.058696
vt 0.611249 0.133628
vt 0.788249 0.020696
vt 0.671537 0.060459
vt 0.803399 0.125198
vt 0.768073 0.055727
vt 0.648811 0.186015
vt 0.732159 0.115466
vt 0.608752 0.055727
vt 0.648811 0.125198
vt 0.768073 0.010676
vt 0.720916 0.085836
vt 0.677443 0.156587
vt 0.631495 0.085836
vt 0.677443 0.109756
vt 0.914978 0.168746
vt 0.858037 0.226354
vt 0.799302 0.168746
vt 0.858037 0.896040
vt 0.200858 0.754658
vt 0.015368 0.992891
vt 0.104447 0.992891
vt 0.104447 0.368339
vt 0.872570 0.369206
vt 0.841695 0.367088
vt 0.811636 0.226499
vt 0.898530 0.369206
vt 0.841695 0.350762
vt 0.899059 0.235770
vt 0.980336 0.248250
vt 0.896706 0.347474
vt 0.850918 0.256866
vt 0.830333 0.341197
vt 0.803610 0.347474
vt 0.850918 0.248250
vt 0.896706 0.089080
vt 0.815539 0.133628
vt 0.788249 0.209407
vt 0.963860 0.226499
vt 0.898530 0.240048
vt 0.850591 0.174751
vt 0.979162 0.071050
vt 0.843506 0.139415
vt 0.806028 0.207414
vt 0.891213 0.203779
vt 0.768087 0.236029
vt 0.823795 0.207414
vt 0.891213 0.139415
vt 0.806028 0.176937
vt 0.761278 0.058696
vt 0.611249 0.133628
vt 0.788249 0.020696
vt 0.671537 0.060459
vt 0.803399 0.125198
vt 0.768073 0.055727
vt 0.648811 0.186015
vt 0.732159 0.115466
vt 0.608752 0.055727
vt 0.648811 0.125198
vt 0.768073 0.010676
vt 0.720916 0.085836
vt 0.677443 0.156587
vt 0.631495 0.085836
vt 0.677443 0.109756
vt 0.914978 0.168746
vt 0.858037 0.226354
vt 0.799302 0.168746
vt 0.858037 0.896040
vt 0.200858 0.754658
vt 0.015368 0.992891
vt 0.104447 0.992891
vt 0.104447 0.340398
vt 0.528003 0.365725
vt 0.517631 0.393147
vt 0.518712 0.382743
vt 0.734433 0.365725
vt 0.517631 0.318378
vt 0.562263 0.307782
vt 0.757141 0.372088
vt 0.700352 0.365552
vt 0.542912 0.434619
vt 0.674086 0.416336
vt 0.544412 0.365552
vt 0.542912 0.372088
vt 0.700352 0.350178
vt 0.774944 0.382743
vt 0.734433 0.419236
vt 0.703429 0.730777
vt 0.722278 0.710505
vt 0.774936 0.402872
vt 0.832316 0.438104
vt 0.734580 0.701852
vt 0.728734 0.465813
vt 0.676428 0.688534
vt 0.680735 0.701852
vt 0.728734 0.438104
vt 0.734580 0.644009
vt 0.847728 0.627404
vt 0.736757 0.615660
vt 0.648823 0.627404
vt 0.736757 0.499391
vt 0.749274 0.511521
vt 0.664513 0.487981
vt 0.864827 0.499391
vt 0.749274 0.896040
vt 0.200858 0.754658
vt 0.015368 0.992891
vt 0.104447 0.992891
vt 0.104447 0.328964
vt 0.502393 0.367724
vt 0.061170 0.643956
vt 0.011703 0.759574
vt 0.049024 0.328964
vt 0.032907 0.367724
vt 0.395622 0.762555
vt 0.500333 0.882110
vt 0.281632 0.512386
vt 0.562188 0.512386
vt 0.013467 0.079854
vt 0.176842 0.079854
vt 0.335153 0.152046
vt 0.489765 0.152135
vt 0.143958 0.152135
vt 0.230443 0.152080
vt 0.335621 0.152056
vt 0.405496 0.328964
vt 0.143094 0.328964
vt 0.227318 0.328964
vt 0.340643 0.328964
vt 0.414319 0.367724
vt 0.155123 0.367724
vt 0.240546 0.367724
vt 0.338580 0.426004
vt 0.128815 0.426004
vt 0.283522 0.426075
vt 0.432232 0.643956
vt 0.109930 0.643956
vt 0.233659 0.643956
vt 0.353532 0.643956
vt 0.452113 0.759574
vt 0.148313 0.759574
vt 0.291235 0.762554
vt 0.411178 0.512386
vt 0.107953 0.512386
vt 0.239712 0.512386
vt 0.347479 0.512386
vt 0.460147 0.079854
vt 0.254701 0.239807
vt 0.133686 0.239807
vt 0.223803 0.239249
vt 0.348849 0.239006
vt 0.427145 0.082700
vt 0.419749 0.152135
vt 0.034488 0.007088
vt 0.273214 0.570905
vt 0.956314 0.602194
vt 0.890679 0.797082
vt 0.902981 0.588134
vt 0.927507 0.585868
vt 0.971994 0.795419
vt 0.989174 0.749406
vt 0.824943 0.627352
vt 0.889372 0.615676
vt 0.932067 0.771976
vt 0.909924 0.961001
vt 0.708467 0.827351
vt 0.963963 0.774016
vt 0.848423 0.879074
vt 0.970143 0.996944
vt 0.732186 0.799087
vt 0.721647 0.771652
vt 0.810350 0.824341
vt 0.891097 0.894568
vt 0.736040 0.827823
vt 0.699559 0.864924
vt 0.428973 0.889056
vt 0.705986 0.958981
vt 0.485497 0.989146
vt 0.679133 0.802036
vt 0.669799 0.813146
vt 0.470100 0.880653
vt 0.482879 0.891746
vt 0.682799 0.996260
vt 0.538770 0.775420
vt 0.518527 0.883574
vt 0.540690 0.945905
vt 0.829923 0.804277
vt 0.775641 0.875767
vt 0.815668 0.913082
vt 0.938923 0.784550
vt 0.787368 0.991150
vt 0.770579 0.797175
vt 0.747496 0.797082
vt 0.902981 0.588134
vt 0.927507 0.615676
vt 0.932067 0.771976
vt 0.909924 0.824341
vt 0.891097 0.894568
vt 0.736040 0.889056
vt 0.705986 0.880653
vt 0.482879 0.891746
vt 0.682799 0.883574
vt 0.540690 0.875767
vt 0.815668 0.896040
vt 0.200858 0.754658
vt 0.015368 0.992891
vt 0.104447 0.992891
vt 0.104447 0.368339
vt 0.872570 0.369206
vt 0.841695 0.367088
vt 0.811636 0.226499
vt 0.898530 0.369206
vt 0.841695 0.350762
vt 0.899059 0.235770
vt 0.980336 0.248250
vt 0.896706 0.347474
vt 0.850918 0.256866
vt 0.830333 0.341197
vt 0.803610 0.347474
vt 0.850918 0.248250
vt 0.896706 0.089080
vt 0.815539 0.133628
vt 0.788249 0.209407
vt 0.963860 0.226499
vt 0.898530 0.240048
vt 0.850591 0.174751
vt 0.979162 0.071050
vt 0.843506 0.139415
vt 0.806028 0.207414
vt 0.891213 0.203779
vt 0.768087 0.236029
vt 0.823795 0.207414
vt 0.891213 0.139415
vt 0.806028 0.176937
vt 0.761278 0.058696
vt 0.611249 0.133628
vt 0.788249 0.020696
vt 0.671537 0.060459
vt 0.803399 0.125198
vt 0.768073 0.055727
vt 0.648811 0.186015
vt 0.732159 0.115466
vt 0.608752 0.055727
vt 0.648811 0.125198
vt 0.768073 0.010676
vt 0.720916 0.085836
vt 0.677443 0.156587
vt 0.631495 0.085836
vt 0.677443 0.109756
vt 0.914978 0.168746
vt 0.858037 0.226354
vt 0.799302 0.168746
vt 0.858037 0.896040
vt 0.200858 0.754658
vt 0.015368 0.992891
vt 0.104447 0.992891
vt 0.104447 0.368339
vt 0.872570 0.369206
vt 0.841695 0.367088
vt 0.811636 0.226499
vt 0.898530 0.369206
vt 0.841695 0.350762
vt 0.899059 0.235770
vt 0.980336 0.248250
vt 0.896706 0.347474
vt 0.850918 0.256866
vt 0.830333 0.341197
vt 0.803610 0.347474
vt 0.850918 0.248250
vt 0.896706 0.089080
vt 0.815539 0.133628
vt 0.788249 0.209407
vt 0.963860 0.226499
vt 0.898530 0.240048
vt 0.850591 0.174751
vt 0.979162 0.071050
vt 0.843506 0.139415
vt 0.806028 0.207414
vt 0.891213 0.203779
vt 0.768087 0.236029
vt 0.823795 0.207414
vt 0.891213 0.139415
vt 0.806028 0.176937
vt 0.761278 0.058696
vt 0.611249 0.133628
vt 0.788249 0.020696
vt 0.671537 0.060459
vt 0.803399 0.125198
vt 0.768073 0.055727
vt 0.648811 0.186015
vt 0.732159 0.115466
vt 0.608752 0.055727
vt 0.648811 0.125198
vt 0.768073 0.010676
vt 0.720916 0.085836
vt 0.677443 0.156587
vt 0.631495 0.085836
vt 0.677443 0.109756
vt 0.914978 0.168746
vt 0.858037 0.226354
vt 0.799302 0.168746
vt 0.858037 0.896040
vt 0.200858 0.754658
vt 0.015368 0.992891
vt 0.104447 0.992891
vt 0.104447 0.340398
vt 0.528003 0.365725
vt 0.517631 0.393147
vt 0.518712 0.382743
vt 0.734433 0.365725
vt 0.517631 0.318378
vt 0.562263 0.307782
vt 0.757141 0.372088
vt 0.700352 0.365552
vt 0.542912 0.434619
vt 0.674086 0.416336
vt 0.544412 0.365552
vt 0.542912 0.372088
vt 0.700352 0.350178
vt 0.774944 0.382743
vt 0.734433 0.419236
vt 0.703429 0.730777
vt 0.722278 0.710505
vt 0.774936 0.402872
vt 0.832316 0.438104
vt 0.734580 0.701852
vt 0.728734 0.465813
vt 0.676428 0.688534
vt 0.680735 0.701852
vt 0.728734 0.438104
vt 0.734580 0.644009
vt 0.847728 0.627404
vt 0.736757 0.615660
vt 0.648823 0.627404
vt 0.736757 0.499391
vt 0.749274 0.511521
vt 0.664513 0.487981
vt 0.864827 0.499391
vt 0.749274 0.896040
vt 0.200858 0.754658
vt 0.015368 0.992891
vt 0.104447 0.992891
vt 0.104447 0.062464
vt 0.517136 0.062568
vt 0.550572 0.090777
vt 0.533377 0.089895
vt 0.500448 0.060803
vt 0.484715 0.032594
vt 0.501910 0.033477
vt 0.534838 0.060702
vt 0.580977 0.113487
vt 0.548802 0.111836
vt 0.487186 0.057400
vt 0.457745 0.004615
vt 0.489920 0.006266
vt 0.551536 0.062464
vt 0.517136 0.062568
vt 0.550572 0.090777
vt 0.533377 0.089895
vt 0.500448 0.060803
vt 0.484715 0.032594
vt 0.501910 0.033477
vt 0.534838 0.060702
vt 0.580977 0.113487
vt 0.548802 0.111836
vt 0.487186 0.057400
vt 0.457745 0.004615
vt 0.489920 0.006266
vt 0.551536 0.007088
vt 0.273214 0.082700
vt 0.419749 0.152135
vt 0.034488 0.079854
vt 0.069886 0.152046
vt 0.489765 0.239807
vt 0.020661 0.328964
vt 0.032907 0.238899
vt 0.515410 0.328964
vt 0.502393 0.367724
vt 0.061170 0.367724
vt 0.395622 0.426005
vt 0.039761 0.426075
vt 0.524495 0.643956
vt 0.011703 0.512386
vt 0.013467 0.643956
vt 0.557896 0.512386
vt 0.562188 0.759574
vt 0.049024 0.762555
vt 0.500333 0.882110
vt 0.281632 1.000000

f 88/88 90/90 89/89
f 88/88 89/89 91/91
f 89/89 90/90 91/91
f 137/137 139/139 138/138
f 137/137 138/138 140/140
f 138/138 139/139 140/140
f 186/186 188/188 187/187
f 186/186 187/187 189/189
f 187/187 188/188 189/189
f 223/223 225/225 224/224
f 223/223 224/224 226/226
f 224/224 225/225 226/226
f 322/322 323/323 324/324
f 322/322 325/325 323/323
f 323/323 325/325 324/324
f 371/371 372/372 373/373
f 371/371 374/374 372/372
f 372/372 374/374 373/373
f 420/420 421/421 422/422
f 420/420 423/423 421/421
f 421/421 423/423 422/422
f 457/457 458/458 459/459
f 457/457 460/460 458/458
f 458/458 460/460 459/459
f 47/47 46/46 39/39
f 39/39 42/42 41/41
f 41/41 50/50 42/42
f 42/42 40/40 51/51
f 51/51 41/41 72/72
f 72/72 56/56 50/50
f 50/50 41/41 60/60
f 60/60 49/49 41/41
f 41/41 51/51 58/58
f 58/58 60/60 67/67
f 67/67 62/62 69/69
f 69/69 66/66 61/61
f 65/65 59/59 60/60
f 60/60 66/66 65/65
f 64/64 59/59 58/58
f 58/58 63/63 61/61
f 61/61 67/67 65/65
f 65/65 69/69 56/56
f 56/56 72/72 73/73
f 55/55 74/74 76/76
f 54/54 57/57 72/72
f 53/53 75/75 71/71
f 71/71 76/76 43/43
f 43/43 44/44 79/79
f 79/79 80/80 39/39
f 39/39 43/43 77/77
f 77/77 80/80 78/78
f 78/78 79/79 51/51
f 51/51 45/45 87/87
f 87/87 71/71 50/50
f 50/50 52/52 83/83
f 83/83 82/82 77/77
f 77/77 81/81 58/58
f 58/58 54/54 67/67
f 86/86 68/68 61/61
f 59/59 84/84 83/83
f 83/83 49/49 84/84
f 59/59 64/64 58/58
f 58/58 83/83 61/61
f 84/84 64/64 81/81
f 74/74 55/55 76/76
f 82/82 54/54 87/87
f 87/87 70/70 82/82
f 75/75 53/53 71/71
f 71/71 87/87 100/100
f 100/100 97/97 102/102
f 102/102 100/100 97/97
f 103/103 102/102 93/93
f 93/93 92/92 107/107
f 107/107 108/108 94/94
f 94/94 93/93 108/108
f 108/108 109/109 92/92
f 92/92 96/96 95/95
f 95/95 107/107 96/96
f 96/96 94/94 109/109
f 109/109 95/95 134/134
f 134/134 133/133 135/135
f 135/135 134/134 111/111
f 111/111 133/133 117/117
f 117/117 136/136 108/108
f 108/108 107/107 105/105
f 105/105 106/106 109/109
f 109/109 108/108 106/106
f 106/106 118/118 107/107
f 107/107 95/95 120/120
f 120/120 105/105 95/95
f 95/95 109/109 118/118
f 118/118 120/120 130/130
f 130/130 123/123 131/131
f 131/131 125/125 129/129
f 129/129 122/122 132/132
f 132/132 128/128 124/124
f 121/121 119/119 105/105
f 105/105 122/122 126/126
f 124/124 119/119 106/106
f 106/106 123/123 121/121
f 127/127 119/119 120/120
f 120/120 128/128 127/127
f 126/126 119/119 118/118
f 118/118 125/125 124/124
f 124/124 130/130 126/126
f 126/126 131/131 121/121
f 121/121 129/129 127/127
f 127/127 132/132 113/113
f 113/113 110/110 115/115
f 115/115 113/113 133/133
f 133/133 110/110 136/136
f 136/136 116/116 149/149
f 149/149 146/146 151/151
f 151/151 149/149 146/146
f 152/152 151/151 142/142
f 142/142 141/141 156/156
f 156/156 157/157 143/143
f 143/143 142/142 157/157
f 157/157 158/158 141/141
f 141/141 145/145 144/144
f 144/144 156/156 145/145
f 145/145 143/143 158/158
f 158/158 144/144 183/183
f 183/183 182/182 184/184
f 184/184 183/183 160/160
f 160/160 182/182 166/166
f 166/166 185/185 157/157
f 157/157 156/156 154/154
f 154/154 155/155 158/158
f 158/158 157/157 155/155
f 155/155 167/167 156/156
f 156/156 144/144 169/169
f 169/169 154/154 144/144
f 144/144 158/158 167/167
f 167/167 169/169 179/179
f 179/179 172/172 180/180
f 180/180 174/174 178/178
f 178/178 171/171 181/181
f 181/181 177/177 173/173
f 170/170 168/168 154/154
f 154/154 171/171 175/175
f 173/173 168/168 155/155
f 155/155 172/172 170/170
f 176/176 168/168 169/169
f 169/169 177/177 176/176
f 175/175 168/168 167/167
f 167/167 174/174 173/173
f 173/173 179/179 175/175
f 175/175 180/180 170/170
f 170/170 178/178 176/176
f 176/176 181/181 162/162
f 162/162 159/159 164/164
f 164/164 162/162 182/182
f 182/182 159/159 185/185
f 185/185 165/165 198/198
f 198/198 195/195 200/200
f 200/200 198/198 195/195
f 201/201 200/200 191/191
f 191/191 190/190 203/203
f 203/203 204/204 192/192
f 192/192 191/191 204/204
f 204/204 205/205 190/190
f 190/190 194/194 193/193
f 193/193 203/203 194/194
f 194/194 192/192 205/205
f 205/205 193/193 209/209
f 209/209 208/208 211/211
f 211/211 209/209 214/214
f 214/214 222/222 220/220
f 220/220 217/217 210/210
f 207/207 206/206 203/203
f 203/203 208/208 212/212
f 210/210 206/206 204/204
f 204/204 209/209 207/207
f 213/213 206/206 193/193
f 193/193 214/214 213/213
f 212/212 206/206 205/205
f 205/205 211/211 210/210
f 210/210 216/216 212/212
f 212/212 217/217 207/207
f 207/207 215/215 217/217
f 217/217 212/212 215/215
f 216/216 217/217 222/222
f 222/222 214/214 277/277
f 277/277 278/278 281/281
f 281/281 282/282 273/273
f 273/273 277/277 275/275
f 275/275 282/282 276/276
f 276/276 281/281 285/285
f 285/285 279/279 306/306
f 306/306 305/305 284/284
f 284/284 286/286 294/294
f 294/294 291/291 275/275
f 275/275 290/290 292/292
f 292/292 288/288 301/301
f 303/303 302/302 295/295
f 293/293 299/299 294/294
f 294/294 283/283 299/299
f 293/293 298/298 292/292
f 292/292 294/294 295/295
f 299/299 298/298 290/290
f 308/308 289/289 310/310
f 291/291 288/288 306/306
f 306/306 304/304 291/291
f 309/309 287/287 305/305
f 305/305 306/306 277/277
f 313/313 280/280 273/273
f 273/273 312/312 311/311
f 311/311 284/284 312/312
f 312/312 274/274 285/285
f 285/285 311/311 321/321
f 321/321 315/315 284/284
f 284/284 311/311 317/317
f 317/317 283/283 311/311
f 311/311 285/285 292/292
f 292/292 317/317 301/301
f 301/301 296/296 320/320
f 320/320 319/319 295/295
f 318/318 293/293 317/317
f 317/317 319/319 318/318
f 298/298 293/293 292/292
f 292/292 297/297 295/295
f 295/295 301/301 318/318
f 318/318 320/320 315/315
f 315/315 321/321 307/307
f 289/289 308/308 310/310
f 288/288 316/316 321/321
f 287/287 309/309 305/305
f 305/305 310/310 334/334
f 334/334 333/333 336/336
f 336/336 335/335 331/331
f 331/331 332/332 337/337
f 337/337 338/338 327/327
f 327/327 334/334 341/341
f 341/341 332/332 328/328
f 328/328 336/336 342/342
f 342/342 333/333 326/326
f 326/326 331/331 329/329
f 329/329 338/338 330/330
f 330/330 337/337 343/343
f 343/343 335/335 368/368
f 368/368 346/346 369/369
f 369/369 348/348 345/345
f 351/351 348/348 342/342
f 342/342 347/347 339/339
f 339/339 345/345 343/343
f 343/343 349/349 340/340
f 340/340 346/346 341/341
f 341/341 344/344 354/354
f 354/354 351/351 329/329
f 329/329 350/350 352/352
f 352/352 348/348 364/364
f 364/364 363/363 365/365
f 365/365 364/364 363/363
f 366/366 365/365 358/358
f 353/353 355/355 339/339
f 339/339 340/340 360/360
f 353/353 358/358 340/340
f 340/340 352/352 355/355
f 353/353 361/361 354/354
f 354/354 339/339 361/361
f 353/353 360/360 352/352
f 352/352 354/354 358/358
f 358/358 355/355 360/360
f 360/360 358/358 355/355
f 361/361 360/360 347/347
f 347/347 368/368 349/349
f 349/349 369/369 367/367
f 370/370 369/369 383/383
f 383/383 382/382 385/385
f 385/385 384/384 380/380
f 380/380 381/381 386/386
f 386/386 387/387 376/376
f 376/376 383/383 390/390
f 390/390 381/381 377/377
f 377/377 385/385 391/391
f 391/391 382/382 375/375
f 375/375 380/380 378/378
f 378/378 387/387 379/379
f 379/379 386/386 392/392
f 392/392 384/384 417/417
f 417/417 395/395 418/418
f 418/418 397/397 394/394
f 400/400 397/397 391/391
f 391/391 396/396 388/388
f 388/388 394/394 392/392
f 392/392 398/398 389/389
f 389/389 395/395 390/390
f 390/390 393/393 403/403
f 403/403 400/400 378/378
f 378/378 399/399 401/401
f 401/401 397/397 413/413
f 413/413 412/412 414/414
f 414/414 413/413 412/412
f 415/415 414/414 407/407
f 402/402 404/404 388/388
f 388/388 389/389 409/409
f 402/402 407/407 389/389
f 389/389 401/401 404/404
f 402/402 410/410 403/403
f 403/403 388/388 410/410
f 402/402 409/409 401/401
f 401/401 403/403 407/407
f 407/407 404/404 409/409
f 409/409 407/407 404/404
f 410/410 409/409 396/396
f 396/396 417/417 398/398
f 398/398 418/418 416/416
f 419/419 418/418 432/432
f 432/432 431/431 434/434
f 434/434 433/433 429/429
f 429/429 430/430 435/435
f 435/435 436/436 425/425
f 425/425 432/432 437/437
f 437/437 430/430 426/426
f 426/426 434/434 438/438
f 438/438 431/431 424/424
f 424/424 429/429 427/427
f 427/427 436/436 428/428
f 428/428 435/435 439/439
f 439/439 433/433 443/443
f 443/443 453/453 445/445
f 445/445 454/454 448/448
f 448/448 442/442 454/454
f 454/454 456/456 444/444
f 440/440 441/441 437/437
f 437/437 438/438 446/446
f 440/440 444/444 438/438
f 438/438 439/439 441/441
f 440/440 447/447 427/427
f 427/427 437/437 447/447
f 440/440 446/446 439/439
f 439/439 427/427 444/444
f 444/444 441/441 446/446
f 446/446 444/444 441/441
f 441/441 447/447 451/451
f 451/451 452/452 449/449
f 449/449 455/455 450/450
f 450/450 453/453 456/456
f 456/456 454/454 463/463
f 461/461 462/462 464/464
f 461/461 463/463 465/465
f 461/461 464/464 466/466
f 461/461 465/465 467/467
f 461/461 466/466 462/462
f 461/461 467/467 468/468
f 473/473 468/468 476/476
f 475/475 474/474 477/477
f 476/476 474/474 478/478
f 477/477 474/474 479/479
f 478/478 474/474 480/480
f 479/479 474/474 475/475
f 480/480 474/474 481/481
f 481/481 475/475 482/482
f 482/482 476/476 483/483
f 483/483 477/477 484/484
f 484/484 478/478 485/485
f 485/485 479/479 486/486
