# MOD converted: m192.mod
# 495 verts, 70 faces

v 185.503296 63.771267 -4.451849
v 160.348740 -1.086677 -26.866245
v 179.949326 69.590569 3.401945
v 154.794769 4.732624 0.001871
v 224.678711 -9.262741 2.606292
v 158.924881 -2.690082 -40.929474
v 222.019028 -0.318497 -3.664223
v 156.265198 6.254163 0.001871
v 178.258682 31.625362 -2.498245
v 159.710434 -3.008962 -63.484467
v 173.971390 41.253513 1.414643
v 155.423141 6.619191 0.001871
v 229.542969 21.869421 -0.535657
v 159.509369 -3.481147 -14.923746
v 225.723389 32.443069 -0.497647
v 155.689789 7.092503 0.001871
v 225.855057 32.560978 0.632989
v 155.727127 7.056319 14.113293
v 229.730789 22.009533 0.436627
v 159.602859 -3.495126 0.003741
v 222.503082 -0.831406 3.789001
v 156.341537 6.160581 33.765293
v 225.145462 -9.628614 -2.693263
v 158.983917 -2.636628 0.003741
v 175.063400 40.428242 -1.284323
v 155.436401 6.616772 67.428413
v 179.462708 30.765411 2.412781
v 159.835709 -3.046060 0.003741
v 180.247559 69.802727 -3.331265
v 154.758331 4.681016 33.828545
v 186.009735 64.047302 4.418912
v 160.520508 -1.074410 0.003741
v 144.828796 42.093620 0.000002
v 161.407166 13.957550 8.335861
v 158.129532 13.112673 10.062301
v 146.071518 10.125185 6.507910
v 149.604721 3.876422 8.513829
v 149.325226 -7.003077 5.850860
v 148.215256 -10.879677 10.055599
v 158.726074 27.256685 14.213199
v 148.281509 26.452827 10.061199
v 137.486618 23.972160 6.814461
v 145.974686 -6.786777 5.881760
v 149.587585 -0.309977 0.000000
v 157.069870 5.430063 5.098390
v 153.019516 -11.420756 5.138439
v 150.026306 5.539534 3.231610
v 148.863632 -12.730488 -0.000002
v 141.554504 53.048737 -10.746602
v 144.828796 42.093624 0.000007
v 133.113754 39.341423 0.000008
v 155.400360 42.983173 0.000005
v 131.331192 27.329353 -8.335859
v 158.129532 13.112673 -10.062299
v 146.071518 10.125185 0.000001
v 140.881775 8.402720 -5.138441
v 150.026306 5.539533 0.000000
v 146.467499 4.315854 -6.507910
v 149.604721 3.876422 -8.513831
v 149.325226 -7.003078 -0.000000
v 143.663956 -6.554678 -5.850860
v 148.215256 -10.879677 -0.000000
v 144.943558 -9.989878 0.000005
v 161.885468 27.224922 -10.055598
v 158.726074 27.256683 -14.213201
v 148.281509 26.452827 -10.061203
v 137.486603 23.972158 0.000003
v 134.238983 16.691605 -6.814459
v 145.974670 -6.786778 0.000000
v 146.242310 2.168021 -5.881760
v 149.587585 -0.309978 -5.736747
v 154.106812 4.122822 -7.792449
v 154.015823 -7.389477 -4.423247
v 156.072174 5.661201 -0.000001
v 152.513474 -13.088673 -3.231609
v 148.863632 -12.730487 5.107591
v 146.811600 -23.558470 -0.000001
v 143.174820 -15.119212 6.529881
v 147.206345 -17.226871 -0.000001
v 142.301941 -20.981548 4.054701
v 153.527298 -14.833887 1.965501
v 151.723297 -13.002052 2.169041
v 143.231873 -24.999336 -0.000001
v 146.565735 -12.376416 -5.107590
v 146.811600 -23.558470 -6.529880
v 147.206345 -17.226873 -3.380729
v 152.236435 -24.735847 -0.000001
v 146.192490 -27.189587 4.416009
v 156.072159 5.661201 0.000000
v 159.269394 4.031522 6.856849
v 157.816528 3.876823 -7.314479
v 158.526489 -7.808979 -0.000000
v 159.616577 -7.974978 7.292870
v 158.526581 -7.808377 3.380732
v 152.236435 -24.735846 5.559282
v 154.165466 -20.591450 -5.559280
v 154.165466 -20.591450 -4.054699
v 153.527298 -14.833888 -2.169039
v 143.231873 -24.999336 0.808305
v 131.226852 -48.510952 -0.000002
v 132.372253 -48.927853 -0.808298
v 131.226868 -48.510956 7.781600
v 154.015823 -7.389477 -0.000000
v 153.895828 -12.593073 -6.878551
v 157.816528 3.876822 -8.768521
v 155.925995 -7.429378 -0.000001
v 158.125687 -12.381716 4.995500
v 155.774734 -12.256269 8.747020
v 155.926163 -7.428178 -4.995330
v 155.774689 -12.256428 -0.000001
v 155.620361 -13.762668 5.722281
v 154.106812 4.122823 -5.098390
v 153.019516 -11.420755 -1.965500
v 151.723297 -13.002052 -4.706289
v 159.355377 -11.381978 -6.678218
v 158.632294 3.900721 -4.191258
v 165.940186 -9.535978 -6.678216
v 165.638885 4.066921 4.751669
v 159.355392 -11.381979 4.236649
v 165.940186 -9.535978 6.723598
v 165.638885 4.066923 -6.341202
v 166.649078 -3.503277 6.386589
v 166.649078 -3.503277 -8.155652
v 161.293594 4.887421 8.201028
v 161.293594 4.887422 5.794319
v 162.901688 -11.945419 -7.744322
v 162.647781 -3.503278 7.789710
v 162.647781 -3.503278 0.022482
v 166.443085 5.355323 -0.000000
v 168.373505 -2.319578 0.022552
v 160.956482 6.181623 6.723610
v 158.632294 3.900722 -5.748942
v 162.901688 -11.945418 4.424841
v 156.705383 -21.453739 -0.000001
v 149.887405 -27.065601 5.060202
v 150.429733 -25.040979 7.156201
v 151.750916 -20.309135 4.755490
v 152.992294 -14.560367 -0.000001
v 152.238693 -26.971939 4.665361
v 152.738708 -25.105295 6.597811
v 153.961472 -20.804317 4.384420
v 155.107025 -15.520410 -0.000001
v 148.408859 -27.955994 5.662161
v 149.093826 -25.686588 8.223311
v 150.744232 -20.164854 -0.000001
v 152.269196 -20.461142 5.537801
v 152.302505 -13.463341 -0.000000
v 158.107864 -21.686142 -0.000000
v 155.937286 -25.490940 -4.424837
v 156.705383 -21.453741 -0.000000
v 157.994690 -17.101269 -5.060200
v 150.429733 -25.040979 -7.156201
v 151.750916 -20.309135 -4.755489
v 152.992294 -14.560368 -0.000000
v 153.581558 -13.119665 -4.665357
v 152.738708 -25.105297 -6.597810
v 153.961472 -20.804317 -4.384420
v 155.107025 -15.520410 -0.000000
v 155.654770 -14.248029 -5.662158
v 149.093826 -25.686590 -0.000000
v 153.040543 -11.858451 -8.223309
v 150.744232 -20.164856 -5.537800
v 152.302505 -13.463341 20.223045
v 103.335854 -21.351791 20.442694
v 103.557220 -19.834879 18.646080
v 103.499260 -21.149075 17.185444
v 134.795746 -21.364491 15.168176
v 82.976730 -15.120413 20.568958
v 105.458344 -21.932110 20.398849
v 101.147614 -21.309229 5.639848
v 65.886871 -2.186687 14.435760
v 80.776268 -14.136289 16.234722
v 84.113556 -16.457788 13.920685
v 83.540115 -15.128813 15.473873
v 83.500206 -13.975396 10.791471
v 72.969368 -8.824249 11.065070
v 75.795593 -6.631276 8.431954
v 75.852974 -8.620041 18.415045
v 134.078842 -22.768015 17.752939
v 136.725815 -22.133295 17.235250
v 86.317902 -17.688435 13.936909
v 88.007408 -16.293423 16.731182
v 87.926918 -14.260988 16.406492
v 139.671555 -20.653114 17.493116
v 133.990204 -19.128544 19.262810
v 131.149628 -23.553291 19.732004
v 117.044502 -19.020073 16.367031
v 116.717583 -21.468105 20.664419
v 117.117058 -23.567680 14.964788
v 133.770493 -21.016987 5.302183
v 150.538605 -7.210545 9.826631
v 147.477432 -12.847056 9.695972
v 146.271454 -10.645578 7.682734
v 146.115372 -12.180937 7.417416
v 151.279602 -10.078100 8.634354
v 148.517838 -8.683158 5.487834
v 148.407074 -10.984468 29.120411
v 101.927513 -2.911237 28.029652
v 101.990707 -1.865331 28.035198
v 101.994797 -4.094743 23.551884
v 135.189270 -2.904668 22.850060
v 81.080521 -2.887232 29.665537
v 104.033417 -2.826054 29.201122
v 99.853355 -2.718667 7.721106
v 68.150314 -2.903921 21.676739
v 78.948952 -2.839675 24.233952
v 82.350525 -2.836308 22.148762
v 81.601990 -3.907724 22.148903
v 81.603882 -1.972595 15.427012
v 72.839951 -2.816677 14.117198
v 75.831024 -1.330261 14.109729
v 75.823082 -4.630510 25.274591
v 135.612915 -2.808480 24.752352
v 136.119446 -2.783736 25.652363
v 84.669312 -2.801293 22.432083
v 86.073112 -4.704324 22.431610
v 86.073112 -1.217098 22.835365
v 139.157379 -2.783632 22.073357
v 134.231567 -1.375621 26.846313
v 132.852585 -2.815279 25.131119
v 114.948914 -0.865690 25.131298
v 114.949318 -5.078624 29.315613
v 115.805923 -2.792967 22.083370
v 134.233673 -4.566835 4.417877
v 150.862289 -2.931850 10.668649
v 146.877777 -2.843730 8.795057
v 145.656281 -1.696734 8.805613
v 145.655853 -4.233405 7.924537
v 151.554138 -2.809168 7.477263
v 148.784454 -1.040699 7.486544
v 148.793396 -4.934565 16.908455
v 103.433197 15.476728 15.230553
v 103.532669 15.415724 16.927025
v 103.498062 13.716558 14.318331
v 135.837799 11.780015 14.108349
v 83.058983 12.445650 18.007027
v 105.336212 16.647446 16.377373
v 101.530991 15.168207 4.767654
v 62.050674 4.097713 13.646541
v 80.743568 12.021224 14.964466
v 84.405167 13.393718 14.260637
v 83.479370 11.150784 12.881742
v 83.468338 12.508436 10.514851
v 71.572678 9.158346 8.038240
v 74.110512 8.777454 10.393187
v 74.123177 6.465339 14.810307
v 135.093475 12.430054 15.664481
v 137.504593 13.196352 15.774559
v 86.839920 14.282776 14.788953
v 87.974655 10.619377 12.333705
v 87.951477 13.051760 14.208255
v 140.271484 11.626283 12.153034
v 134.901077 11.791168 15.594843
v 132.691849 13.317969 12.908465
v 117.016304 14.306412 15.878337
v 116.849495 11.268324 17.345413
v 117.386398 15.900930 14.337519
v 134.789459 9.582846 4.203037
v 151.880676 0.973028 8.152033
v 147.995911 5.193310 6.068738
v 146.641891 4.813214 7.857821
v 146.556503 3.016911 6.319240
v 152.015945 3.371387 5.201198
v 149.872284 4.815913 7.554968
v 149.094101 1.676615 -13.829527
v 100.541786 -21.714386 -13.999571
v 100.682831 -20.180820 -12.256062
v 100.833008 -21.555859 -14.154096
v 132.205963 -20.367987 -7.213459
v 80.404251 -16.994995 -14.288498
v 102.535149 -22.157717 -13.954603
v 98.450226 -21.808918 3.680559
v 62.515285 -6.619184 -6.432352
v 78.152458 -16.369247 -8.374556
v 81.536964 -18.088621 -5.988515
v 81.030396 -17.064110 -7.430859
v 80.846405 -15.787317 -2.178414
v 70.010941 -12.118826 -2.310510
v 72.624771 -9.664852 0.133416
v 72.928749 -11.861803 -15.228841
v 131.230484 -21.753736 -15.094688
v 134.018173 -21.304825 -9.608253
v 83.720070 -19.131100 -6.307647
v 85.558990 -17.946232 -8.904436
v 85.222351 -15.690441 -14.391006
v 137.285294 -20.075172 -14.412808
v 131.443909 -18.186539 -15.746797
v 128.264160 -22.674725 -14.739108
v 114.006279 -18.747566 -11.332233
v 114.149643 -21.154932 -15.624667
v 114.176239 -23.301935 -11.858532
v 131.579132 -20.047707 -5.825359
v 150.720200 -7.492681 -9.641237
v 146.865509 -12.946331 -9.308564
v 145.894226 -10.652012 -7.279372
v 146.021454 -12.168917 -7.668909
v 151.094055 -10.264059 -8.677462
v 148.506653 -8.776195 -5.518787
v 148.613785 -11.063360 -20.179909
v 98.916153 -1.439518 -19.134785
v 99.225403 -0.404507 -19.107470
v 99.126717 -2.630923 -20.832029
v 132.621841 -2.393221 -10.598118
v 79.694763 0.083224 -20.926765
v 100.738014 -1.403129 -20.061268
v 97.028404 -1.131936 6.421700
v 69.716537 1.224712 -9.263732
v 77.746300 0.294891 -11.985455
v 80.765511 0.023752 -9.972185
v 80.271355 -0.956438 -10.032961
v 80.394424 0.973818 -2.008897
v 72.904800 0.848612 -1.313245
v 76.172920 2.155155 -1.201625
v 75.959724 -1.136328 -22.390512
v 132.575241 -2.293897 -22.391924
v 133.474960 -2.294971 -13.803194
v 82.781387 -0.124527 -10.835073
v 84.631554 -2.055728 -10.943258
v 84.850121 1.422961 -21.055006
v 136.807709 -2.391585 -19.200848
v 131.992188 -0.847338 -23.430422
v 129.574905 -2.213809 -18.464863
v 112.350296 0.223446 -18.469723
v 112.230301 -3.987777 -22.737635
v 112.371895 -1.700559 -19.214582
v 131.901245 -4.037243 -4.875035
v 151.167465 -2.976620 -10.482420
v 146.592072 -2.742935 -8.417808
v 145.762054 -1.574008 -8.430889
v 145.687241 -4.109564 -8.143349
v 151.511047 -2.809586 -7.502021
v 149.037994 -1.016787 -7.513349
v 148.989792 -4.909813 -24.861465
v 107.629379 18.314974 -23.262920
v 107.617523 18.317539 -24.888075
v 107.645615 16.560452 -16.788963
v 138.771545 13.115910 -20.737110
v 87.400116 16.211039 -25.742546
v 109.526382 19.326456 -24.132633
v 105.807541 18.134205 -7.044506
v 69.280937 7.291553 -19.929840
v 85.207069 15.739463 -21.817886
v 87.752327 17.139343 -20.828276
v 87.832779 14.942999 -19.606375
v 87.921852 16.440901 -14.902715
v 77.073021 12.472367 -12.912481
v 80.030174 12.588446 -15.000156
v 79.871788 10.037306 -17.229462
v 138.426819 13.674727 -17.729837
v 140.888397 14.494750 -22.689829
v 91.155228 17.684029 -21.369322
v 92.270523 14.121456 -19.196234
v 92.424789 16.804585 -15.788423
v 143.165558 12.681746 -14.841113
v 137.407379 13.103748 -18.520174
v 135.838837 14.773897 -18.696934
v 119.981819 16.335966 -21.762987
v 120.254684 13.402911 -22.927122
v 121.216240 18.052835 -17.093010
v 137.619995 10.971874 -3.909108
v 151.863159 0.896419 -8.513639
v 148.956879 5.521736 -6.783893
v 147.164261 5.186386 -8.626235
v 147.344788 3.452029 -6.190421
v 152.344803 3.407330 -5.336112
v 149.991119 4.904717 -7.788412
v 149.309692 1.814303 5.138439
v 150.026306 5.539534 0.000000
v 146.467499 4.315854 4.416009
v 156.072159 5.661201 0.000005
v 161.885468 27.224922 0.000002
v 161.407166 13.957550 0.000001
v 140.881775 8.402720 0.000000
v 146.467499 4.315854 -0.000000
v 153.895828 -12.593073 -0.000001
v 152.513474 -13.088673 -0.000000
v 144.943558 -9.989878 -0.000001
v 146.565735 -12.376416 -0.000000
v 143.663956 -6.554678 -0.000002
v 141.554504 53.048737 0.000008
v 155.400360 42.983173 0.000007
v 133.113754 39.341423 0.000003
v 134.238983 16.691605 0.000000
v 157.069870 5.430063 -5.138441
v 150.026306 5.539533 0.000000
v 146.467499 4.315854 0.000005
v 131.331192 27.329353 0.000000
v 146.242310 2.168021 -4.423247
v 156.072174 5.661201 3.231610
v 148.863632 -12.730488 -0.000001
v 146.565735 -12.376416 1.965501
v 151.723297 -13.002052 -3.231609
v 148.863632 -12.730487 -1.965500
v 151.723297 -13.002052 -4.423247
v 156.072174 5.661201 0.000000
v 157.069870 5.430063 4.416009
v 156.072159 5.661201 -0.000000
v 153.895828 -12.593073 -5.098390
v 153.019516 -11.420755 5.098390
v 153.019516 -11.420756 -4.706289
v 159.355377 -11.381978 4.751669
v 159.355392 -11.381979 -0.000001
v 152.513474 -13.088673 -5.098390
v 153.019516 -11.420755 -5.736747
v 154.106812 4.122822 -5.736747
v 154.106812 4.122822 -7.792449
v 154.015823 -7.389477 5.098390
v 153.019516 -11.420756 7.781600
v 154.015823 -7.389477 5.722281
v 154.106812 4.122823 5.722281
v 154.106812 4.122823 -4.706289
v 159.355377 -11.381978 -6.678218
v 158.632294 3.900721 4.751669
v 159.355392 -11.381979 5.794319
v 162.901688 -11.945419 -6.678218
v 158.632294 3.900721 6.723610
v 158.632294 3.900722 -5.748942
v 162.901688 -11.945418 -8.155652
v 161.293594 4.887421 8.201028
v 161.293594 4.887422 6.723610
v 158.632294 3.900722 5.662161
v 149.093826 -25.686588 -0.000001
v 148.408859 -27.955994 8.223311
v 150.744232 -20.164854 5.537801
v 152.302505 -13.463341 -0.000000
v 153.040543 -11.858451 -0.000001
v 152.238693 -26.971939 -0.000001
v 149.887405 -27.065601 -0.000000
v 153.581558 -13.119665 -0.000000
v 155.654770 -14.248029 -0.000001
v 148.408859 -27.955994 -0.000000
v 153.040543 -11.858451 -0.000000
v 158.107864 -21.686142 -0.000000
v 155.937286 -25.490940 -0.000000
v 157.994690 -17.101269 -5.662158
v 149.093826 -25.686590 -0.000001
v 148.408859 -27.955994 -0.000001
v 152.269196 -20.461142 -8.223309
v 150.744232 -20.164856 -5.537800
v 152.302505 -13.463341 -0.000000
v 153.040543 -11.858451 20.223045
v 103.335854 -21.351791 18.646080
v 103.499260 -21.149075 20.442694
v 103.557220 -19.834879 13.920685
v 83.540115 -15.128813 15.168176
v 82.976730 -15.120413 15.473873
v 83.500206 -13.975396 17.493116
v 133.990204 -19.128544 17.185444
v 134.795746 -21.364491 14.964788
v 133.770493 -21.016987 29.120411
v 101.927513 -2.911237 28.035198
v 101.994797 -4.094743 28.029652
v 101.990707 -1.865331 22.148762
v 81.601990 -3.907724 22.850060
v 81.080521 -2.887232 22.148903
v 81.603882 -1.972595 22.073357
v 134.231567 -1.375621 23.551884
v 135.189270 -2.904668 22.083370
v 134.233673 -4.566835 16.908455
v 103.433197 15.476728 16.927025
v 103.498062 13.716558 15.230553
v 103.532669 15.415724 14.260637
v 83.479370 11.150784 14.108349
v 83.058983 12.445650 12.881742
v 83.468338 12.508436 12.153034
v 134.901077 11.791168 14.318331
v 135.837799 11.780015 14.337519
v 134.789459 9.582846 -13.829527
v 100.541786 -21.714386 -12.256062
v 100.833008 -21.555859 -13.999571
v 100.682831 -20.180820 -5.988515
v 81.030396 -17.064110 -7.213459
v 80.404251 -16.994995 -7.430859
v 80.846405 -15.787317 -14.412808
v 131.443909 -18.186539 -14.154096
v 132.205963 -20.367987 -11.858532
v 131.579132 -20.047707 -20.179909
v 98.916153 -1.439518 -19.107470
v 99.126717 -2.630923 -19.134785
v 99.225403 -0.404507 -9.972185
v 80.271355 -0.956438 -10.598118
v 79.694763 0.083224 -10.032961
v 80.394424 0.973818 -19.200848
v 131.992188 -0.847338 -20.832029
v 132.621841 -2.393221 -19.214582
v 131.901245 -4.037243 -24.861465
v 107.629379 18.314974 -24.888075
v 107.645615 16.560452 -23.262920
v 107.617523 18.317539 -20.828276
v 87.832779 14.942999 -20.737110
v 87.400116 16.211039 -19.606375
v 87.921852 16.440901 -14.841113
v 137.407379 13.103748 -16.788963
v 138.771545 13.115910 -17.093010
v 137.619995 10.971874 0.578577

vt 1.000000 0.000000
vt 1.000000 0.998129
vt 0.500000 0.000000
vt 0.500000 1.000000
vt 1.000000 0.000000
vt 1.000000 0.998129
vt 0.500000 0.000000
vt 0.500000 1.000000
vt 1.000000 0.000000
vt 1.000000 0.998129
vt 0.500000 0.000000
vt 0.500000 1.000000
vt 1.000000 0.000000
vt 1.000000 0.998129
vt 0.500000 0.000000
vt 0.500000 1.000000
vt 0.500000 0.000000
vt 0.500000 0.996259
vt 1.000000 0.000000
vt 1.000000 1.000000
vt 0.500000 0.000000
vt 0.500000 0.996259
vt 1.000000 0.000000
vt 1.000000 1.000000
vt 0.500000 0.000000
vt 0.500000 0.996259
vt 1.000000 0.000000
vt 1.000000 1.000000
vt 0.500000 0.000000
vt 0.500000 0.996259
vt 1.000000 0.000000
vt 1.000000 1.000000
vt 0.834136 0.073719
vt 0.918939 0.129048
vt 0.835539 0.156957
vt 0.719967 0.668575
vt 0.743079 0.815537
vt 0.763534 0.867739
vt 0.743283 0.247743
vt 0.894258 0.280397
vt 0.800759 0.303832
vt 0.697627 0.816768
vt 0.721991 0.725573
vt 0.745949 0.006812
vt 0.827622 0.892577
vt 0.807989 0.072957
vt 0.723584 0.911706
vt 0.734805 0.590827
vt 0.867043 0.421423
vt 0.834136 0.507863
vt 0.676972 0.417111
vt 0.998228 0.386741
vt 0.596522 0.129048
vt 0.835539 0.156957
vt 0.719967 0.131223
vt 0.603375 0.072957
vt 0.723584 0.056069
vt 0.647827 0.668575
vt 0.743079 0.815537
vt 0.763534 0.830175
vt 0.628395 0.867739
vt 0.743283 0.886559
vt 0.648932 0.214146
vt 0.997086 0.247743
vt 0.894258 0.280397
vt 0.800759 0.303832
vt 0.697627 0.252564
vt 0.567782 0.816768
vt 0.721991 0.690140
vt 0.643337 0.725573
vt 0.745949 0.652447
vt 0.799593 0.817162
vt 0.825564 0.049090
vt 0.792236 0.975094
vt 0.782867 0.911706
vt 0.734805 0.231070
vt 0.215054 0.106093
vt 0.096121 0.116994
vt 0.180829 0.214899
vt 0.118667 0.033698
vt 0.276493 0.942270
vt 0.774577 0.279663
vt 0.161246 0.921461
vt 0.673071 0.231070
vt 0.215054 0.116994
vt 0.180829 0.216429
vt 0.317940 0.299046
vt 0.227764 0.049090
vt 0.792236 0.705060
vt 0.995667 0.700693
vt 0.883322 0.859508
vt 0.908714 0.858701
vt 0.995453 0.859508
vt 0.908714 0.216429
vt 0.317940 0.130898
vt 0.324994 0.130898
vt 0.324994 0.033698
vt 0.276493 0.279663
vt 0.161246 0.778415
vt 0.145550 0.776477
vt 0.168861 0.778415
vt 0.145550 0.817162
vt 0.825564 0.977208
vt 0.806686 0.700693
vt 0.883322 0.863057
vt 0.872358 0.919247
vt 0.995521 0.940192
vt 0.918065 0.863057
vt 0.872358 0.940192
vt 0.918065 0.955105
vt 0.995723 0.652447
vt 0.799593 0.892577
vt 0.807989 0.942270
vt 0.774577 0.629860
vt 0.737700 0.629353
vt 0.606238 0.485605
vt 0.504699 0.432069
vt 0.333220 0.549962
vt 0.748311 0.599386
vt 0.486880 0.600726
vt 0.309228 0.458888
vt 0.427687 0.602258
vt 0.406257 0.401042
vt 0.275104 0.662644
vt 0.292427 0.628739
vt 0.536947 0.410406
vt 0.438391 0.651274
vt 0.401774 0.516326
vt 0.320339 0.528845
vt 0.405410 0.507721
vt 0.257274 0.516137
vt 0.621275 0.472898
vt 0.561353 0.180473
vt 0.479837 0.307787
vt 0.358609 0.205857
vt 0.357636 0.114575
vt 0.403567 0.045570
vt 0.503526 0.302987
vt 0.400074 0.213896
vt 0.399086 0.143378
vt 0.437410 0.086538
vt 0.515881 0.316974
vt 0.328103 0.203669
vt 0.327861 0.098318
vt 0.381983 0.569840
vt 0.995111 0.018336
vt 0.495271 0.231196
vt 0.539328 0.283312
vt 0.473049 0.180473
vt 0.479837 0.157012
vt 0.585613 0.205857
vt 0.357636 0.114575
vt 0.403567 0.045570
vt 0.503526 0.043700
vt 0.598940 0.213896
vt 0.399086 0.143378
vt 0.437410 0.086538
vt 0.515881 0.088356
vt 0.597965 0.203669
vt 0.327861 0.018929
vt 0.604108 0.098318
vt 0.381983 0.018336
vt 0.495271 0.960620
vt 0.718298 0.937440
vt 0.726530 0.937440
vt 0.726530 0.883411
vt 0.619879 0.750986
vt 0.191415 0.974043
vt 0.686177 0.855330
vt 0.246249 0.740141
vt 0.552928 0.764633
vt 0.230069 0.801186
vt 0.590462 0.733496
vt 0.185682 0.733496
vt 0.185682 0.771963
vt 0.390047 0.716553
vt 0.371500 0.716553
vt 0.371500 0.963683
vt 0.117278 0.845580
vt 0.621934 0.819373
vt 0.542080 0.760095
vt 0.524441 0.760095
vt 0.524441 0.830932
vt 0.562060 0.907799
vt 0.590779 0.983447
vt 0.168074 0.919507
vt 0.466853 0.919507
vt 0.466853 0.997821
vt 0.462292 0.907799
vt 0.590779 0.854876
vt 0.151286 0.863534
vt 0.298137 0.905501
vt 0.287884 0.905501
vt 0.287884 0.868967
vt 0.254149 0.905118
vt 0.237401 0.905118
vt 0.237401 0.960620
vt 0.718298 0.937440
vt 0.726530 0.937440
vt 0.726530 0.883411
vt 0.619879 0.750986
vt 0.191415 0.974043
vt 0.686177 0.855330
vt 0.246249 0.740141
vt 0.552928 0.764633
vt 0.230069 0.801186
vt 0.590462 0.733496
vt 0.185682 0.733496
vt 0.185682 0.771963
vt 0.390047 0.716553
vt 0.371500 0.716553
vt 0.371500 0.963683
vt 0.117278 0.845580
vt 0.621934 0.819373
vt 0.542080 0.760095
vt 0.524441 0.760095
vt 0.524441 0.830932
vt 0.562060 0.907799
vt 0.590779 0.983447
vt 0.168074 0.919507
vt 0.466853 0.919507
vt 0.466853 0.997821
vt 0.462292 0.907799
vt 0.590779 0.854876
vt 0.151286 0.863534
vt 0.298137 0.905501
vt 0.287884 0.905501
vt 0.287884 0.868967
vt 0.254149 0.905118
vt 0.237401 0.905118
vt 0.237401 0.960620
vt 0.718298 0.937440
vt 0.726530 0.937440
vt 0.726530 0.883411
vt 0.619879 0.750986
vt 0.191415 0.974043
vt 0.686177 0.855330
vt 0.246249 0.740141
vt 0.552928 0.764633
vt 0.230069 0.801186
vt 0.590462 0.733496
vt 0.185682 0.733496
vt 0.185682 0.771963
vt 0.390047 0.716553
vt 0.371500 0.716553
vt 0.371500 0.963683
vt 0.117278 0.845580
vt 0.621934 0.819373
vt 0.542080 0.760095
vt 0.524441 0.760095
vt 0.524441 0.830932
vt 0.562060 0.907799
vt 0.590779 0.983447
vt 0.168074 0.919507
vt 0.466853 0.919507
vt 0.466853 0.997821
vt 0.462292 0.907799
vt 0.590779 0.854876
vt 0.151286 0.863534
vt 0.298137 0.905501
vt 0.287884 0.905501
vt 0.287884 0.868967
vt 0.254149 0.905118
vt 0.237401 0.905118
vt 0.237401 0.960620
vt 0.718298 0.937440
vt 0.726530 0.937440
vt 0.726530 0.883411
vt 0.619879 0.750986
vt 0.191415 0.974043
vt 0.686177 0.855330
vt 0.246249 0.740141
vt 0.552928 0.764633
vt 0.230069 0.801186
vt 0.590462 0.733496
vt 0.185682 0.733496
vt 0.185682 0.771963
vt 0.390047 0.716553
vt 0.371500 0.716553
vt 0.371500 0.963683
vt 0.117278 0.845580
vt 0.621934 0.819373
vt 0.542080 0.760095
vt 0.524441 0.760095
vt 0.524441 0.830932
vt 0.562060 0.907799
vt 0.590779 0.983447
vt 0.168074 0.919507
vt 0.466853 0.919507
vt 0.466853 0.997821
vt 0.462292 0.907799
vt 0.590779 0.854876
vt 0.151286 0.863534
vt 0.298137 0.905501
vt 0.287884 0.905501
vt 0.287884 0.868967
vt 0.254149 0.905118
vt 0.237401 0.905118
vt 0.237401 0.960620
vt 0.718298 0.937440
vt 0.726530 0.937440
vt 0.726530 0.883411
vt 0.619879 0.750986
vt 0.191415 0.974043
vt 0.686177 0.855330
vt 0.246249 0.740141
vt 0.552928 0.764633
vt 0.230069 0.801186
vt 0.590462 0.733496
vt 0.185682 0.733496
vt 0.185682 0.771963
vt 0.390047 0.716553
vt 0.371500 0.716553
vt 0.371500 0.963683
vt 0.117278 0.845580
vt 0.621934 0.819373
vt 0.542080 0.760095
vt 0.524441 0.760095
vt 0.524441 0.830932
vt 0.562060 0.907799
vt 0.590779 0.983447
vt 0.168074 0.919507
vt 0.466853 0.919507
vt 0.466853 0.997821
vt 0.462292 0.907799
vt 0.590779 0.854876
vt 0.151286 0.863534
vt 0.298137 0.905501
vt 0.287884 0.905501
vt 0.287884 0.868967
vt 0.254149 0.905118
vt 0.237401 0.905118
vt 0.237401 0.960620
vt 0.718298 0.937440
vt 0.726530 0.937440
vt 0.726530 0.883411
vt 0.619879 0.750986
vt 0.191415 0.974043
vt 0.686177 0.855330
vt 0.246249 0.740141
vt 0.552928 0.764633
vt 0.230069 0.801186
vt 0.590462 0.733496
vt 0.185682 0.733496
vt 0.185682 0.771963
vt 0.390047 0.716553
vt 0.371500 0.716553
vt 0.371500 0.963683
vt 0.117278 0.845580
vt 0.621934 0.819373
vt 0.542080 0.760095
vt 0.524441 0.760095
vt 0.524441 0.830932
vt 0.562060 0.907799
vt 0.590779 0.983447
vt 0.168074 0.919507
vt 0.466853 0.919507
vt 0.466853 0.997821
vt 0.462292 0.907799
vt 0.590779 0.854876
vt 0.151286 0.863534
vt 0.298137 0.905501
vt 0.287884 0.905501
vt 0.287884 0.868967
vt 0.254149 0.905118
vt 0.237401 0.905118
vt 0.237401 0.640526
vt 0.737850 0.654411
vt 0.645001 0.621691
vt 0.822309 0.214146
vt 0.997086 0.073719
vt 0.918939 0.131223
vt 0.603375 0.056069
vt 0.647827 0.977208
vt 0.806686 0.975094
vt 0.782867 0.886559
vt 0.648932 0.921461
vt 0.673071 0.830175
vt 0.628395 0.590827
vt 0.867043 0.417111
vt 0.998228 0.507863
vt 0.676972 0.252564
vt 0.567782 0.006812
vt 0.827622 0.640526
vt 0.737850 0.654411
vt 0.645001 0.386741
vt 0.596522 0.690140
vt 0.643337 0.621691
vt 0.822309 0.028916
vt 0.181963 0.039492
vt 0.139571 0.012826
vt 0.233489 0.028916
vt 0.181963 0.012826
vt 0.233489 0.655107
vt 0.920291 0.665539
vt 0.996055 0.655107
vt 0.920291 0.988221
vt 0.996236 0.987070
vt 0.905437 0.987070
vt 0.905437 0.494681
vt 0.608558 0.622369
vt 0.588562 0.008580
vt 0.247810 0.954052
vt 0.868956 0.634404
vt 0.879988 0.702161
vt 0.819642 0.875940
vt 0.845807 0.954052
vt 0.868956 0.875940
vt 0.845807 0.702161
vt 0.819642 0.634404
vt 0.879988 0.396888
vt 0.557061 0.331126
vt 0.360868 0.698974
vt 0.510292 0.647445
vt 0.515216 0.414606
vt 0.230931 0.589435
vt 0.206519 0.447428
vt 0.546494 0.367078
vt 0.335396 0.614398
vt 0.244940 0.703702
vt 0.305998 0.515837
vt 0.941026 0.492572
vt 0.992290 0.569052
vt 0.918362 0.632403
vt 0.942342 0.649027
vt 0.992995 0.302987
vt 0.400074 0.307787
vt 0.358609 0.043700
vt 0.598940 0.088356
vt 0.597965 0.316974
vt 0.328103 0.018929
vt 0.604108 0.231196
vt 0.539328 0.283312
vt 0.473049 0.157012
vt 0.585613 0.515837
vt 0.941026 0.492572
vt 0.992290 0.569840
vt 0.995111 0.569052
vt 0.918362 0.632403
vt 0.942342 0.649027
vt 0.992995 0.847977
vt 0.213770 0.826082
vt 0.202559 0.826082
vt 0.202559 0.759967
vt 0.614470 0.779202
vt 0.614309 0.759967
vt 0.614470 0.922955
vt 0.144386 0.941896
vt 0.111479 0.922955
vt 0.144386 0.847977
vt 0.213770 0.826082
vt 0.202559 0.826082
vt 0.202559 0.759967
vt 0.614470 0.779202
vt 0.614309 0.759967
vt 0.614470 0.922955
vt 0.144386 0.941896
vt 0.111479 0.922955
vt 0.144386 0.847977
vt 0.213770 0.826082
vt 0.202559 0.826082
vt 0.202559 0.759967
vt 0.614470 0.779202
vt 0.614309 0.759967
vt 0.614470 0.922955
vt 0.144386 0.941896
vt 0.111479 0.922955
vt 0.144386 0.847977
vt 0.213770 0.826082
vt 0.202559 0.826082
vt 0.202559 0.759967
vt 0.614470 0.779202
vt 0.614309 0.759967
vt 0.614470 0.922955
vt 0.144386 0.941896
vt 0.111479 0.922955
vt 0.144386 0.847977
vt 0.213770 0.826082
vt 0.202559 0.826082
vt 0.202559 0.759967
vt 0.614470 0.779202
vt 0.614309 0.759967
vt 0.614470 0.922955
vt 0.144386 0.941896
vt 0.111479 0.922955
vt 0.144386 0.847977
vt 0.213770 0.826082
vt 0.202559 0.826082
vt 0.202559 0.759967
vt 0.614470 0.779202
vt 0.614309 0.759967
vt 0.614470 0.922955
vt 0.144386 0.941896
vt 0.111479 0.922955
vt 0.144386 1.000000

f 3/3 4/4 1/1
f 2/2 1/1 4/4
f 7/7 8/8 5/5
f 6/6 5/5 8/8
f 11/11 12/12 9/9
f 10/10 9/9 12/12
f 15/15 16/16 13/13
f 14/14 13/13 16/16
f 19/19 20/20 17/17
f 18/18 17/17 20/20
f 23/23 24/24 21/21
f 22/22 21/21 24/24
f 27/27 28/28 25/25
f 26/26 25/25 28/28
f 31/31 32/32 29/29
f 30/30 29/29 32/32
f 164/164 169/169 165/165
f 187/187 169/169 189/189
f 169/169 187/187 165/165
f 448/448 179/179 449/449
f 448/448 186/186 179/179
f 187/187 186/186 448/448
f 186/186 187/187 189/189
f 198/198 203/203 199/199
f 221/221 203/203 223/223
f 203/203 221/221 199/199
f 457/457 213/213 458/458
f 457/457 220/220 213/213
f 221/221 220/220 457/457
f 220/220 221/221 223/223
f 232/232 237/237 233/233
f 255/255 237/237 257/257
f 237/237 255/255 233/233
f 466/466 247/247 467/467
f 466/466 254/254 247/247
f 255/255 254/254 466/466
f 254/254 255/255 257/257
f 266/266 267/267 271/271
f 289/289 271/271 267/267
f 271/271 289/289 291/291
f 475/475 476/476 281/281
f 475/475 281/281 288/288
f 289/289 288/288 291/291
f 288/288 289/289 475/475
f 300/300 301/301 305/305
f 323/323 305/305 301/301
f 305/305 323/323 325/325
f 484/484 485/485 315/315
f 484/484 315/315 322/322
f 323/323 322/322 325/325
f 322/322 323/323 484/484
f 334/334 335/335 339/339
f 357/357 339/339 335/335
f 339/339 357/357 359/359
f 493/493 494/494 349/349
f 493/493 349/349 356/356
f 357/357 356/356 359/359
f 356/356 357/357 493/493
f 188/188 166/166 450/450
f 450/450 188/188 222/222
f 222/222 200/200 459/459
f 459/459 222/222 256/256
f 256/256 234/234 468/468
f 468/468 256/256 290/290
f 290/290 289/289 477/477
f 477/477 475/475 324/324
f 324/324 323/323 486/486
f 486/486 484/484 358/358
f 358/358 357/357 495/495
f 33/33 166/166 169/169
