# MOD converted: m197.mod
# 1075 verts, 126 faces

v 25.661026 32.805511 15.458961
v 26.788330 34.961056 20.027607
v 26.868713 34.502827 46.985607
v 60.214924 48.018661 48.700031
v 60.827343 49.291271 51.172806
v 58.298676 52.301945 49.958481
v 60.987820 54.796051 53.678108
v 55.760792 52.762218 52.188381
v 58.334274 49.110786 46.123886
v 55.424095 53.184067 60.821201
v 23.562218 66.306267 67.169052
v 4.304029 77.352997 70.619743
v 1.447659 77.846367 53.775959
v 61.479561 57.951454 48.646412
v 67.531067 51.649361 67.563614
v 6.848217 81.615189 66.532265
v 7.799225 71.585808 43.724377
v 62.949825 49.269672 48.128895
v 52.678398 55.764233 62.115246
v 1.341466 78.841637 66.883850
v 0.957910 82.133926 80.606140
v 0.860073 89.645462 66.772720
v 4.860623 75.845985 68.500671
v 9.116900 81.855537 62.235928
v 28.700775 74.626144 54.156731
v 21.263241 68.458214 15.162510
v 23.359674 35.894176 16.366735
v 23.185097 34.076813 18.768692
v 24.962166 38.632504 42.789196
v 60.813038 53.043255 44.507732
v 62.314373 54.131466 47.066936
v 59.755054 57.042355 47.234428
v 58.046394 60.201748 44.269836
v 61.143024 58.253105 58.677994
v 9.553379 85.650574 63.501282
v 5.123183 83.920944 65.445976
v 2.603151 87.111092 76.888016
v 1.076416 91.158707 78.914070
v 4.996268 88.184669 69.659195
v 7.468893 82.708023 48.113640
v 57.280113 54.337246 57.129971
v 3.440796 76.184097 64.496597
v 2.028691 79.906792 5.353755
v 36.152004 26.687584 17.623810
v 27.779968 36.708836 20.209448
v 24.050909 36.374199 46.612041
v 64.420677 50.842896 46.322346
v 57.942867 52.325733 69.644150
v 14.678009 81.902237 79.930969
v 0.396815 85.709610 62.081596
v 5.908326 84.246475 54.328907
v 25.342999 75.679459 51.936993
v 65.246811 55.201252 6.221679
v 24.330208 26.355347 7.480147
v 27.447731 24.665508 4.644494
v 26.239355 28.069101 6.644620
v 28.750593 27.294168 3.998397
v 25.906897 24.371647 -16.897606
v 25.660963 32.805523 -15.458956
v 26.788273 34.961060 -20.027607
v 26.868692 34.502823 -46.985611
v 60.214920 48.018650 -48.700031
v 60.827332 49.291260 -51.172806
v 58.298676 52.301941 -49.958488
v 60.987823 54.796043 -53.678112
v 55.760780 52.762211 -52.188385
v 58.334274 49.110771 -46.123894
v 55.424088 53.184052 -60.821205
v 23.562218 66.306252 -67.169060
v 4.304029 77.352989 -70.619743
v 1.447656 77.846359 -53.775959
v 61.479557 57.951439 -48.646412
v 67.531067 51.649349 -67.563614
v 6.848218 81.615181 -66.532272
v 7.799221 71.585800 -43.724377
v 62.949829 49.269665 -48.128895
v 52.678391 55.764225 -62.115261
v 1.341472 78.841644 -66.883858
v 0.957910 82.133904 -80.606140
v 0.860073 89.645447 -66.772728
v 4.860630 75.845993 -68.500671
v 9.116896 81.855522 -62.235935
v 28.700775 74.626129 -54.156727
v 21.263241 68.458206 -15.162505
v 23.359621 35.894192 -16.366734
v 23.185038 34.076824 -18.768692
v 24.962145 38.632500 -42.789196
v 60.813034 53.043247 -44.507736
v 62.314373 54.131454 -47.066948
v 59.755051 57.042343 -47.234432
v 58.046394 60.201733 -44.269836
v 61.143024 58.253098 -58.677994
v 9.553379 85.650558 -63.501282
v 5.123179 83.920937 -65.445976
v 2.603153 87.111092 -76.888023
v 1.076414 91.158691 -78.914078
v 4.996269 88.184654 -69.659195
v 7.468894 82.708015 -48.113647
v 57.280113 54.337246 -57.129978
v 3.440800 76.184090 -64.496597
v 2.028687 79.906784 -5.353776
v 36.152008 26.687578 -17.623808
v 27.779949 36.708832 -20.209448
v 24.050886 36.374195 -46.612041
v 64.420677 50.842884 -46.322346
v 57.942860 52.325718 -69.644157
v 14.678005 81.902222 -79.930969
v 0.396815 85.709602 -62.081600
v 5.908329 84.246460 -54.328911
v 25.342999 75.679428 -51.936993
v 65.246803 55.201241 -6.221702
v 24.330212 26.355341 -7.480169
v 27.447735 24.665503 -4.644519
v 26.239361 28.069092 -6.644645
v 28.750603 27.294159 -3.998419
v 25.906900 24.371643 14.474357
v 54.456184 -30.127668 13.277852
v 53.444256 -26.292364 16.167345
v 57.804161 -29.805700 12.032749
v 61.371315 -33.997574 14.942818
v 66.023743 -28.525627 14.109243
v 60.132519 -24.652468 11.289457
v 53.674873 -33.257198 10.461140
v 54.912781 -25.044966 9.299740
v 55.683239 -33.990326 14.900402
v 62.746212 -27.240438 14.317587
v 63.257137 -30.783892 27.784557
v 23.872917 -35.648922 28.823832
v 32.861618 -37.633915 25.573301
v 38.805813 -39.687229 17.165081
v 44.415184 -83.162056 19.812464
v 27.643612 -74.524704 25.520247
v 42.254601 -76.016678 27.185295
v 26.649872 -31.231834 15.646670
v 44.545742 -85.151794 13.730314
v 52.833061 -79.407608 19.458664
v 44.302799 -82.185654 30.689457
v 33.871216 -51.060726 22.582058
v 25.041920 -63.057503 28.124296
v 17.701853 -31.591080 14.665173
v 45.777454 -88.545486 13.101952
v 48.831253 -93.848961 12.263855
v 45.508556 -99.096245 13.034294
v 35.300476 -101.045563 14.525665
v 27.158775 -98.877708 16.046371
v 20.616051 -91.296097 16.239464
v 18.698601 -85.586975 16.496260
v 18.312113 -87.630775 29.536219
v 28.617310 -31.927273 27.350845
v 29.328032 -29.464542 25.444138
v 38.759373 -32.445084 24.441109
v 37.103889 -26.574713 26.450994
v 33.995354 -33.040955 27.288740
v 36.340786 -33.390503 26.484446
v 35.640011 -36.711327 22.165501
v 35.132397 -35.672970 14.269458
v 41.490383 -82.770119 24.047573
v 40.761005 -48.573429 15.391628
v 35.609161 -80.601883 19.780481
v 53.570557 -66.091148 22.556597
v 32.728790 -31.349434 21.293030
v 45.276470 -31.378031 20.536327
v 43.213173 -28.280418 13.846018
v 46.613007 -82.058990 11.427481
v 44.056015 -84.136383 22.944069
v 21.899509 -52.481415 17.841244
v 26.115349 -74.237526 21.091961
v 17.169647 -63.640564 20.019108
v 18.509716 -71.593758 18.423885
v 24.592592 -72.305779 19.425953
v 24.067753 -67.871071 13.696062
v 42.377441 -84.911133 13.378598
v 46.218086 -84.377937 23.616846
v 36.452133 -35.541710 23.106903
v 38.899307 -36.789471 18.266407
v 44.843967 -33.808964 10.954292
v 50.034580 -93.160965 12.055362
v 27.027729 -99.776764 13.372549
v 43.583027 -88.352379 15.697907
v 22.081406 -86.300552 9.859696
v 46.036583 -99.762711 12.355183
v 35.530128 -94.301865 10.597932
v 35.173862 -101.935516 14.688517
v 18.319229 -92.701134 26.022346
v 31.243460 -29.569393 26.715494
v 31.399641 -27.636042 22.437122
v 39.583328 -35.368755 12.456454
v 47.593365 -87.810402 15.312871
v 21.005209 -88.578957 15.795616
v 18.865620 -87.503906 12.195591
v 42.143898 -91.697075 13.949441
v 25.746201 -92.227684 16.002892
v 16.447605 -87.806290 24.408550
v 24.170887 -55.043823 21.340944
v 26.328066 -70.808754 27.264421
v 23.591421 -32.408489 26.744438
v 21.770542 -35.601883 21.071569
v 22.987982 -60.684250 20.163311
v 23.476089 -64.707283 22.990387
v 17.102217 -54.763931 22.062172
v 22.181816 -56.452805 21.443432
v 32.048622 -35.831787 22.265450
v 38.421879 -38.891136 10.949949
v 43.693790 -81.666275 20.219446
v 23.073967 -53.998493 15.235966
v 32.105030 -47.708107 19.582033
v 40.242695 -47.498726 13.741853
v 52.869652 -64.637856 9.365683
v 43.131310 -79.756615 7.543285
v 40.402142 -71.454231 18.366354
v 24.552418 -62.039944 25.370056
v 23.592560 -35.066128 9.044486
v 48.360302 -92.872467 8.185396
v 45.035172 -98.114685 8.855968
v 34.815506 -100.039986 10.275249
v 26.665434 -97.854782 13.609831
v 20.333241 -90.709702 15.247276
v 18.167143 -87.330185 24.416897
v 28.022898 -30.691603 20.909079
v 34.045288 -31.129862 6.905653
v 53.289162 -28.668079 20.493801
v 36.633945 -31.162857 17.422009
v 43.041100 -30.408796 10.607702
v 45.306503 -87.569008 10.142076
v 51.795536 -29.061710 15.673268
v 27.162994 -73.525604 16.422173
v 25.717476 -69.734329 5.686655
v 57.093147 -29.499771 12.734097
v 57.168427 -29.704660 8.945768
v 59.754997 -29.230473 -14.474357
v 54.456181 -30.127670 -13.277851
v 53.444256 -26.292362 -16.167345
v 57.804157 -29.805702 -12.032748
v 61.371311 -33.997570 -14.942810
v 66.023743 -28.525631 -14.109241
v 60.132515 -24.652468 -11.289456
v 53.674873 -33.257198 -10.461144
v 54.912781 -25.044968 -9.299746
v 55.683239 -33.990326 -14.900398
v 62.746212 -27.240438 -14.317583
v 63.257133 -30.783894 -27.784557
v 23.872917 -35.648926 -28.823832
v 32.861618 -37.633911 -25.573303
v 38.805809 -39.687233 -17.165077
v 44.415176 -83.162056 -19.812462
v 27.643608 -74.524704 -25.520243
v 42.254601 -76.016685 -27.185295
v 26.649872 -31.231834 -15.646667
v 44.545742 -85.151810 -13.730320
v 52.833061 -79.407616 -19.458660
v 44.302803 -82.185654 -30.689455
v 33.871216 -51.060730 -22.582054
v 25.041920 -63.057503 -28.124296
v 17.701855 -31.591082 -14.665166
v 45.777451 -88.545486 -13.101946
v 48.831257 -93.848961 -12.263850
v 45.508556 -99.096245 -13.034290
v 35.300476 -101.045563 -14.525660
v 27.158777 -98.877708 -16.046368
v 20.616053 -91.296097 -16.239460
v 18.698597 -85.586975 -16.496256
v 18.312113 -87.630775 -29.536215
v 28.617308 -31.927277 -27.350842
v 29.328028 -29.464542 -25.444139
v 38.759377 -32.445087 -24.441109
v 37.103889 -26.574715 -26.450991
v 33.995354 -33.040958 -27.288742
v 36.340782 -33.390511 -26.484447
v 35.640015 -36.711327 -22.165506
v 35.132401 -35.672970 -14.269458
v 41.490383 -82.770119 -24.047569
v 40.761005 -48.573429 -15.391636
v 35.609161 -80.601883 -19.780481
v 53.570557 -66.091148 -22.556601
v 32.728790 -31.349436 -21.293030
v 45.276474 -31.378029 -20.536327
v 43.213173 -28.280420 -13.846020
v 46.613003 -82.058990 -11.427476
v 44.056015 -84.136391 -22.944069
v 21.899509 -52.481415 -17.841244
v 26.115349 -74.237534 -21.091961
v 17.169647 -63.640572 -20.019112
v 18.509720 -71.593758 -18.423893
v 24.592588 -72.305779 -19.425953
v 24.067753 -67.871071 -13.696054
v 42.377441 -84.911133 -13.378593
v 46.218086 -84.377930 -23.616844
v 36.452133 -35.541710 -23.106903
v 38.899300 -36.789471 -18.266407
v 44.843967 -33.808960 -10.954288
v 50.034580 -93.160965 -12.055357
v 27.027727 -99.776764 -13.372548
v 43.583027 -88.352371 -15.697903
v 22.081406 -86.300560 -9.859691
v 46.036583 -99.762711 -12.355179
v 35.530132 -94.301865 -10.597923
v 35.173866 -101.935516 -14.688511
v 18.319229 -92.701134 -26.022348
v 31.243462 -29.569397 -26.715494
v 31.399639 -27.636047 -22.437119
v 39.583328 -35.368752 -12.456450
v 47.593365 -87.810402 -15.312866
v 21.005213 -88.578957 -15.795612
v 18.865620 -87.503906 -12.195586
v 42.143898 -91.697075 -13.949434
v 25.746202 -92.227692 -16.002886
v 16.447601 -87.806290 -24.408550
v 24.170887 -55.043823 -21.340940
v 26.328068 -70.808754 -27.264421
v 23.591423 -32.408493 -26.744436
v 21.770542 -35.601883 -21.071569
v 22.987984 -60.684250 -20.163313
v 23.476091 -64.707291 -22.990383
v 17.102215 -54.763935 -22.062172
v 22.181816 -56.452808 -21.443453
v 32.048626 -35.831791 -22.265455
v 38.421871 -38.891136 -10.949942
v 43.693790 -81.666275 -20.219450
v 23.073969 -53.998489 -15.235964
v 32.105030 -47.708107 -19.582058
v 40.242695 -47.498734 -13.741848
v 52.869656 -64.637863 -9.365677
v 43.131306 -79.756622 -7.543280
v 40.402142 -71.454231 -18.366331
v 24.552414 -62.039944 -25.370056
v 23.592560 -35.066132 -9.044480
v 48.360302 -92.872467 -8.185391
v 45.035172 -98.114685 -8.855962
v 34.815506 -100.039986 -10.275246
v 26.665432 -97.854782 -13.609826
v 20.333239 -90.709702 -15.247272
v 18.167143 -87.330185 -24.416897
v 28.022900 -30.691607 -20.909077
v 34.045288 -31.129864 -6.905653
v 53.289154 -28.668079 -20.493801
v 36.633942 -31.162857 -17.422007
v 43.041100 -30.408798 -10.607697
v 45.306503 -87.569008 -10.142076
v 51.795536 -29.061710 -15.673246
v 27.162992 -73.525604 -16.422153
v 25.717478 -69.734337 -5.686659
v 57.093147 -29.499775 -12.734098
v 57.168427 -29.704662 -8.945768
v 59.754997 -29.230474 11.406682
v 31.162228 12.334843 10.640602
v 32.739864 14.251988 15.034675
v 32.375946 12.659940 40.118134
v 56.893345 7.099133 42.524097
v 58.053303 6.425564 45.725460
v 54.710361 6.039679 47.519672
v 56.802162 8.747405 46.998981
v 51.967014 4.095074 43.912586
v 55.437969 3.319339 42.683376
v 52.069122 10.317824 53.822205
v 23.796764 3.480874 62.970383
v 5.615672 5.909084 65.593254
v 2.507585 3.967502 52.344639
v 56.255211 7.655602 45.847687
v 63.983967 8.495464 66.333359
v 7.862818 8.813509 58.974258
v 9.492714 2.050009 39.433067
v 59.787506 10.390789 45.223637
v 48.651890 10.025085 59.848640
v 2.924763 10.792955 65.520821
v 0.704704 9.651598 80.791946
v 0.527382 6.058137 61.723392
v 6.289883 5.054436 67.393768
v 10.043992 8.365436 61.061737
v 27.710808 8.426730 50.452938
v 22.318554 11.155397 11.302718
v 29.876732 16.796848 11.166319
v 28.222044 13.601039 15.853215
v 30.770784 16.838818 41.625294
v 57.467789 13.471946 44.031269
v 58.627747 12.798370 47.201553
v 55.272957 12.281102 49.315544
v 52.849953 13.890253 46.759373
v 56.522995 15.356496 62.689468
v 10.908730 17.759130 64.705040
v 6.279337 13.244768 68.040138
v 3.443718 14.315194 79.067307
v 0.902230 9.670124 78.943024
v 4.849941 6.104291 68.669121
v 8.272466 8.224112 45.195004
v 53.450863 9.599276 54.507301
v 5.519642 11.822283 62.426804
v 3.379917 10.142191 3.112344
v 39.506386 12.844342 14.400186
v 33.931362 15.060224 15.609491
v 29.701775 13.636459 43.282196
v 61.307629 9.343448 42.791767
v 54.497860 10.073266 68.701271
v 14.691410 7.638661 77.628159
v 0.351643 3.584095 63.942375
v 7.135632 14.437035 56.820278
v 24.939453 16.157726 50.012207
v 60.690781 7.807404 3.667897
v 30.454014 9.262647 2.025346
v 31.112803 12.010449 5.411019
v 32.895134 9.888219 3.498903
v 32.867413 12.188313 2.445081
v 33.357067 8.441937 17.113653
v 43.039272 26.109070 23.567511
v 40.733204 50.877625 21.566540
v 44.745815 70.990196 5.007184
v 53.729698 -0.005055 -0.000008
v 57.700779 38.577892 -0.000021
v 55.244278 69.645027 6.155235
v 39.637787 3.703987 10.061344
v 29.829475 25.183022 14.674334
v 29.003208 52.217022 11.586294
v 35.784210 77.592453 13.121352
v 42.966755 5.772742 18.081303
v 36.261642 24.848511 24.972654
v 33.843548 51.125660 25.338680
v 40.944675 77.426483 16.064941
v 49.886303 88.857201 8.751394
v 48.592487 -0.839855 10.872790
v 41.571949 5.772746 14.719735
v 35.873177 25.832766 21.300293
v 33.687424 51.090431 21.316175
v 41.897728 76.762131 -0.000001
v 53.729706 -0.005024 -0.000021
v 56.248196 85.048225 -0.000014
v 25.014231 24.803604 -0.000003
v 37.524635 2.950499 -0.000024
v 22.877785 51.797432 -0.000024
v 30.792706 76.753334 -0.000029
v 52.083408 90.468315 -0.000027
v 40.894775 87.306084 18.424791
v 52.799774 91.843300 -0.000026
v 60.091019 96.186691 0.000000
v 58.771202 -1.090270 0.000001
v 43.744385 -4.820337 7.041867
v 46.721966 -4.372261 9.321864
v 51.677948 -2.642333 10.151237
v 53.605854 -2.522669 -0.000004
v 64.471893 -9.863475 -0.000001
v 43.820202 -11.349271 8.424471
v 47.926647 -10.927759 12.875819
v 54.608097 -11.149843 15.013985
v 55.957954 -11.054213 -0.000005
v 48.273834 -21.709265 9.022197
v 52.647751 -21.575369 13.010347
v 58.448776 -21.558962 15.015224
v 60.193913 -21.582644 -0.000012
v 68.826096 -36.969856 -0.000012
v 58.685261 -39.368717 -0.000010
v 53.460690 -34.017262 9.881243
v 63.011459 -33.971676 11.919383
v 64.020248 -34.662491 5.985415
v 45.646393 -2.059119 0.000003
v 43.328346 -2.664306 8.795667
v 54.176994 83.766083 -0.000018
v 59.224880 87.367577 0.000002
v 57.204300 6.440005 10.442739
v 49.461926 6.556271 6.722585
v 65.217323 -37.833294 6.580875
v 60.911331 -38.508015 -0.000014
v 68.461800 -40.113087 -0.000014
v 62.103626 -42.433548 4.172223
v 67.136269 -40.893055 -0.000009
v 70.647255 -44.256035 4.850864
v 65.955528 -46.935020 12.171458
v 66.954742 -52.596310 19.713604
v 76.893463 -56.527374 17.280975
v 71.073174 -60.378185 0.000004
v 88.079865 -49.666199 8.696136
v 86.134735 -50.171242 -0.000008
v 61.152782 -59.382141 3.763165
v 57.899368 -68.665276 -0.000017
v 57.081635 -69.289429 -0.000006
v 59.805630 -72.818481 4.074465
v 60.473961 -70.171570 16.265936
v 76.867073 -63.402618 16.429214
v 82.826057 -59.994556 -0.000003
v 82.747993 -69.580933 -0.000013
v 74.456360 -72.213631 -0.000001
v 66.411819 -72.154228 6.432591
v 69.386497 -70.325378 12.171655
v 76.500137 -65.474915 8.536605
v 86.920021 -62.274479 -0.000001
v 89.189514 -62.781570 12.815166
v 69.188454 -63.326218 12.332654
v 83.898628 -51.334152 13.433184
v 75.161255 -45.887909 8.970897
v 81.879822 -67.437050 10.505407
v 66.041885 -66.202621 4.762910
v 66.158813 -39.249077 -0.000012
v 60.806286 -40.289425 -0.000013
v 67.728233 -38.754620 7.475929
v 78.105072 -43.753979 0.000005
v 78.892639 -42.719677 -0.000001
v 64.064507 -49.805565 8.745464
v 63.191254 -56.857693 3.964716
v 69.115875 -45.045063 11.731428
v 84.421082 -60.955990 17.313290
v 69.987381 -53.683060 17.156055
v 75.989708 -49.267895 5.496674
v 62.224781 -39.937057 4.905702
v 63.834072 -41.649529 16.358845
v 82.529976 -52.017727 5.589791
v 57.504852 -33.695339 10.566791
v 60.834480 -43.299286 -0.000012
v 53.368641 -46.176243 -0.000007
v 50.689430 -36.787464 10.305099
v 58.426281 -38.273445 7.702977
v 62.767426 -46.699677 -0.000015
v 58.817711 -49.100510 10.157400
v 68.692169 -36.344284 9.879851
v 69.789200 -39.785290 7.037904
v 70.861160 -42.077473 -0.000014
v 72.326820 -36.408451 0.965367
v 73.178528 -37.361015 -0.000016
v 74.284241 -38.623085 -0.000014
v 73.864479 -35.050774 2.363332
v 74.870560 -36.642117 -0.000016
v 76.140099 -38.462975 0.000008
v 76.278465 -35.970356 3.878025
v 73.350700 -33.991657 -0.000015
v 74.133240 -37.799778 6.303900
v 77.066978 -31.416414 7.388758
v 79.543060 -34.415646 5.790600
v 78.401695 -36.660980 7.849185
v 81.261581 -31.427479 7.737819
v 81.549019 -33.022408 8.012774
v 83.511887 -32.476795 7.717778
v 84.834610 -62.740940 6.500849
v 84.348511 -59.524300 4.293534
v 84.847755 -62.159176 11.129622
v 96.518913 -63.385235 10.539222
v 97.166153 -61.241798 9.067678
v 97.498993 -62.998379 18.378460
v 105.352676 -66.682289 18.381622
v 106.082535 -65.783546 17.645857
v 106.248940 -66.661827 27.262873
v 110.193947 -71.275513 36.871380
v 78.080063 37.798786 6.858944
v 62.046665 4.306153 27.667250
v 65.379471 34.245743 -0.000001
v 53.729710 0.667908 38.525898
v 82.251831 36.807198 35.896523
v 82.452873 32.486954 6.231421
v 57.267597 7.441581 15.671106
v 58.591827 21.185692 5.702944
v 75.690720 -35.150394 -0.000015
v 73.378891 -36.566765 0.000002
v 55.802925 0.446890 -0.000008
v 69.146515 -23.493099 -11.406576
v 31.161875 12.334830 -10.640687
v 32.739979 14.251671 -15.034573
v 32.375240 12.658844 -40.118599
v 56.887791 7.080070 -42.524513
v 58.047237 6.405444 -45.725582
v 54.703869 6.020732 -47.520439
v 56.796986 8.727022 -46.998566
v 51.959419 4.077342 -43.912258
v 55.430164 3.300342 -42.684113
v 52.065102 10.300835 -53.819809
v 23.788395 3.476763 -62.967003
v 5.609207 5.912979 -65.590515
v 2.501506 3.971142 -52.345165
v 56.249142 7.634619 -45.848877
v 63.978764 8.471596 -66.330093
v 7.857666 8.816261 -58.970654
v 9.483257 2.052504 -39.434338
v 59.783730 10.370324 -45.224094
v 48.647537 10.009433 -59.846214
v 2.919868 10.798759 -65.518951
v 0.698980 9.657420 -80.790543
v 0.526926 6.058188 -61.720131
v 6.281834 5.058114 -67.389633
v 10.039151 8.367640 -61.060516
v 27.704571 8.419216 -50.451866
v 22.314461 11.152691 -11.302916
v 29.877405 16.797136 -11.166219
v 28.221994 13.601720 -15.853611
v 30.771708 16.838249 -41.626980
v 57.465500 13.452300 -44.032898
v 58.624950 12.777669 -47.202866
v 55.269672 12.261588 -49.316994
v 52.847374 13.871629 -46.761337
v 56.521358 15.336403 -62.688866
v 10.907322 17.760189 -64.703453
v 6.274187 13.248135 -68.039703
v 3.439773 14.318098 -79.066689
v 0.901633 9.670559 -78.940132
v 4.848844 6.104254 -68.665619
v 8.267922 8.226226 -45.195698
v 53.446289 9.581092 -54.505241
v 5.515640 11.827700 -62.424290
v 3.374504 10.147277 -3.112342
v 39.506367 12.844349 -14.400496
v 33.931652 15.058597 -15.609391
v 29.701433 13.636353 -43.283371
v 61.303051 9.321468 -42.792625
v 54.493698 10.054972 -68.699051
v 14.684261 7.636612 -77.626198
v 0.349765 3.584964 -63.940910
v 7.132389 14.439857 -56.820305
v 24.937584 16.152458 -50.013054
v 60.684940 7.784506 -3.667902
v 30.453993 9.262651 -2.025352
v 31.112793 12.010455 -5.411022
v 32.895103 9.888225 -3.498907
v 32.867393 12.188319 -2.445085
v 33.357048 8.441940 -17.113672
v 43.039284 26.109062 -23.567547
v 40.733227 50.877613 -21.566587
v 44.745838 70.990173 -5.007182
v 53.729706 -0.005057 -6.155239
v 39.637791 3.703985 -10.061370
v 29.829487 25.183020 -14.674375
v 29.003220 52.217014 -11.586351
v 35.784218 77.592445 -13.121360
v 42.966766 5.772731 -18.081324
v 36.261665 24.848501 -24.972696
v 33.843575 51.125645 -25.338732
v 40.944702 77.426468 -16.064997
v 49.886322 88.857178 -8.751390
v 48.592499 -0.839860 -10.872794
v 41.571960 5.772738 -14.719758
v 35.873192 25.832756 -21.300335
v 33.687447 51.090427 -21.316225
v 41.897743 76.762131 -18.424849
v 52.799793 91.843277 -7.041866
v 46.721966 -4.372262 -9.321864
v 51.677948 -2.642335 -10.151237
v 53.605858 -2.522671 -8.424472
v 47.926647 -10.927758 -12.875821
v 54.608097 -11.149846 -15.013988
v 55.957954 -11.054214 -9.022196
v 52.647751 -21.575371 -13.010349
v 58.448776 -21.558962 -15.015223
v 60.193913 -21.582647 -9.881244
v 63.011459 -33.971676 -11.919384
v 64.020248 -34.662495 -5.985411
v 45.646397 -2.059126 -8.795716
v 54.177006 83.766083 -10.442739
v 49.461937 6.556264 -6.722585
v 65.217323 -37.833294 -6.580875
v 60.911331 -38.508015 -4.172222
v 67.136269 -40.893059 -4.850863
v 65.955536 -46.935020 -12.171463
v 66.954773 -52.596313 -19.713606
v 76.893509 -56.527378 -17.280983
v 71.073212 -60.378193 -8.696129
v 86.134750 -50.171246 -3.763186
v 57.899376 -68.665276 -4.074492
v 60.473972 -70.171570 -16.265945
v 76.867111 -63.402622 -16.429218
v 82.826096 -59.994556 -6.432600
v 69.386513 -70.325386 -12.171667
v 76.500168 -65.474915 -8.536605
v 86.920044 -62.274479 -12.815183
v 69.188484 -63.326214 -12.332650
v 83.898659 -51.334160 -13.433179
v 75.161285 -45.887913 -8.970909
v 81.879845 -67.437042 -10.505424
v 66.041916 -66.202621 -4.762909
v 66.158813 -39.249081 -7.475920
v 78.105087 -43.753979 -8.745473
v 63.191277 -56.857693 -3.964713
v 69.115883 -45.045063 -11.731435
v 84.421112 -60.955990 -17.313293
v 69.987411 -53.683064 -17.156054
v 75.989738 -49.267914 -5.496672
v 62.224781 -39.937057 -4.905701
v 63.834068 -41.649529 -16.358843
v 82.530006 -52.017746 -5.589790
v 57.504852 -33.695339 -10.566789
v 60.834476 -43.299282 -10.305098
v 58.426281 -38.273445 -7.702975
v 62.767422 -46.699677 -10.157402
v 68.692169 -36.344284 -9.879849
v 69.789200 -39.785290 -7.037903
v 70.861160 -42.077473 -0.965368
v 73.178528 -37.361015 -2.363329
v 74.870560 -36.642113 -3.878028
v 73.350708 -33.991657 -6.303905
v 75.442947 -31.430443 -7.388757
v 80.007126 -34.407520 -5.790604
v 78.401695 -36.660988 -7.849186
v 77.996727 -29.777725 -7.737827
v 81.225845 -31.315207 -8.012777
v 81.457970 -27.577112 -7.717780
v 84.834641 -62.740944 -6.500852
v 84.348526 -59.524300 -4.293540
v 84.847771 -62.159176 -11.129621
v 96.518944 -63.385235 -10.539218
v 97.166183 -61.241810 -9.067677
v 97.499008 -62.998383 -18.378456
v 105.352707 -66.682289 -18.381620
v 106.082581 -65.783539 -17.645855
v 106.248978 -66.661835 -27.262873
v 110.194000 -71.275536 -38.586815
v 78.100876 36.058708 -7.063348
v 62.020153 4.007884 -29.090763
v 65.475273 33.047997 -40.252190
v 82.237450 34.945328 -37.455070
v 82.415878 30.730736 -6.502135
v 57.291191 7.230643 -16.499008
v 58.673069 20.569122 -5.702943
v 75.690720 -35.150394 49.958481
v 60.987820 54.796051 51.172806
v 58.298676 52.301945 48.113640
v 57.280113 54.337246 52.188381
v 58.334274 49.110786 48.646412
v 67.531067 51.649361 46.123886
v 55.424095 53.184067 64.496597
v 2.028691 79.906792 67.169052
v 4.304029 77.352997 20.209448
v 24.050909 36.374199 16.366735
v 23.185097 34.076813 46.322346
v 57.942867 52.325733 48.113640
v 57.280113 54.337246 47.066936
v 59.755054 57.042355 44.269836
v 61.143024 58.253105 48.128895
v 52.678398 55.764233 46.123886
v 55.424095 53.184067 54.156731
v 21.263241 68.458214 57.129971
v 3.440796 76.184097 62.115246
v 1.341466 78.841637 64.496597
v 2.028691 79.906792 76.888016
v 1.076416 91.158707 65.445976
v 2.603151 87.111092 63.501282
v 5.123183 83.920944 67.563614
v 6.848217 81.615189 63.501282
v 5.123183 83.920944 6.221679
v 24.330208 26.355347 3.998397
v 25.906897 24.371647 -49.958488
v 60.987823 54.796043 -51.172806
v 58.298676 52.301941 -48.113647
v 57.280113 54.337246 -52.188385
v 58.334274 49.110771 -48.646412
v 67.531067 51.649349 -46.123894
v 55.424088 53.184052 -64.496597
v 2.028687 79.906784 -67.169060
v 4.304029 77.352989 -20.209448
v 24.050886 36.374195 -16.366734
v 23.185038 34.076824 -46.322346
v 57.942860 52.325718 -48.113647
v 57.280113 54.337246 -47.066948
v 59.755051 57.042343 -44.269836
v 61.143024 58.253098 -48.128895
v 52.678391 55.764225 -46.123894
v 55.424088 53.184052 -54.156727
v 21.263241 68.458206 -57.129978
v 3.440800 76.184090 -62.115261
v 1.341472 78.841644 -64.496597
v 2.028687 79.906784 -76.888023
v 1.076414 91.158691 -65.445976
v 2.603153 87.111092 -63.501282
v 5.123179 83.920937 -63.501282
v 5.123179 83.920937 -67.563614
v 6.848218 81.615181 -6.221702
v 24.330212 26.355341 -3.998419
v 25.906900 24.371643 17.165081
v 44.415184 -83.162056 13.846018
v 46.613007 -82.058990 14.269458
v 41.490383 -82.770119 26.022346
v 31.243460 -29.569393 26.450994
v 33.995354 -33.040955 23.616846
v 36.452133 -35.541710 23.616846
v 36.452133 -35.541710 23.106903
v 38.899307 -36.789471 15.391628
v 35.609161 -80.601883 13.730314
v 52.833061 -79.407608 19.582033
v 40.242695 -47.498726 22.265450
v 38.421879 -38.891136 13.741853
v 52.869652 -64.637856 13.846018
v 46.613007 -82.058990 14.269458
v 41.490383 -82.770119 10.949949
v 43.693790 -81.666275 13.378598
v 46.218086 -84.377937 13.846018
v 46.613007 -82.058990 14.269458
v 41.490383 -82.770119 13.696062
v 42.377441 -84.911133 13.372549
v 43.583027 -88.352379 12.456454
v 47.593365 -87.810402 12.195591
v 42.143898 -91.697075 10.954292
v 50.034580 -93.160965 16.002892
v 16.447605 -87.806290 14.688517
v 18.319229 -92.701134 9.859696
v 46.036583 -99.762711 10.597932
v 35.173862 -101.935516 12.355183
v 35.530128 -94.301865 13.949441
v 25.746201 -92.227684 12.055362
v 27.027729 -99.776764 15.697907
v 22.081406 -86.300552 15.312871
v 21.005209 -88.578957 15.795616
v 18.865620 -87.503906 16.239464
v 18.698601 -85.586975 22.165501
v 35.132397 -35.672970 27.185295
v 26.649872 -31.231834 27.264421
v 23.591421 -32.408489 27.350845
v 29.328032 -29.464542 26.715494
v 31.399641 -27.636042 26.022346
v 31.243460 -29.569393 26.022346
v 31.243460 -29.569393 22.556597
v 32.728790 -31.349434 24.441109
v 37.103889 -26.574713 18.266407
v 44.843967 -33.808964 11.289457
v 53.674873 -33.257198 20.536327
v 43.213173 -28.280418 22.437122
v 39.583328 -35.368755 9.299740
v 55.683239 -33.990326 13.277852
v 53.444256 -26.292364 10.461140
v 54.912781 -25.044966 23.616846
v 36.452133 -35.541710 26.744438
v 21.770542 -35.601883 28.124296
v 17.701853 -31.591080 18.423885
v 24.592592 -72.305779 17.841244
v 26.115349 -74.237526 21.071569
v 22.987982 -60.684250 21.091961
v 17.169647 -63.640564 20.163311
v 23.476089 -64.707283 20.019108
v 18.509716 -71.593758 19.425953
v 24.067753 -67.871071 22.944069
v 21.899509 -52.481415 22.990387
v 17.102217 -54.763931 22.062172
v 22.181816 -56.452805 14.474357
v 54.456184 -30.127668 13.277852
v 53.444256 -26.292364 11.289457
v 53.674873 -33.257198 9.299740
v 55.683239 -33.990326 -17.165077
v 44.415176 -83.162056 -13.846020
v 46.613003 -82.058990 -14.269458
v 41.490383 -82.770119 -26.022348
v 31.243462 -29.569397 -26.450991
v 33.995354 -33.040958 -23.616844
v 36.452133 -35.541710 -23.616844
v 36.452133 -35.541710 -23.106903
v 38.899300 -36.789471 -15.391636
v 35.609161 -80.601883 -13.730320
v 52.833061 -79.407616 -22.265455
v 38.421871 -38.891136 -19.582058
v 40.242695 -47.498734 -13.741848
v 52.869656 -64.637863 -13.846020
v 46.613003 -82.058990 -14.269458
v 41.490383 -82.770119 -10.949942
v 43.693790 -81.666275 -13.378593
v 46.218086 -84.377930 -13.846020
v 46.613003 -82.058990 -14.269458
v 41.490383 -82.770119 -13.696054
v 42.377441 -84.911133 -13.372548
v 43.583027 -88.352371 -12.456450
v 47.593365 -87.810402 -12.195586
v 42.143898 -91.697075 -10.954288
v 50.034580 -93.160965 -16.002886
v 16.447601 -87.806290 -14.688511
v 18.319229 -92.701134 -9.859691
v 46.036583 -99.762711 -10.597923
v 35.173866 -101.935516 -12.355179
v 35.530132 -94.301865 -13.949434
v 25.746202 -92.227692 -12.055357
v 27.027727 -99.776764 -15.697903
v 22.081406 -86.300560 -15.312866
v 21.005213 -88.578957 -15.795612
v 18.865620 -87.503906 -16.239460
v 18.698597 -85.586975 -22.165506
v 35.132401 -35.672970 -27.185295
v 26.649872 -31.231834 -27.264421
v 23.591423 -32.408493 -27.350842
v 29.328028 -29.464542 -26.715494
v 31.399639 -27.636047 -26.022348
v 31.243462 -29.569397 -22.556601
v 32.728790 -31.349436 -26.022348
v 31.243462 -29.569397 -24.441109
v 37.103889 -26.574715 -18.266407
v 44.843967 -33.808960 -11.289456
v 53.674873 -33.257198 -20.536327
v 43.213173 -28.280420 -22.437119
v 39.583328 -35.368752 -9.299746
v 55.683239 -33.990326 -13.277851
v 53.444256 -26.292362 -10.461144
v 54.912781 -25.044968 -23.616844
v 36.452133 -35.541710 -28.124296
v 17.701855 -31.591082 -26.744436
v 21.770542 -35.601883 -18.423893
v 24.592588 -72.305779 -17.841244
v 26.115349 -74.237534 -21.071569
v 22.987984 -60.684250 -21.091961
v 17.169647 -63.640572 -20.163313
v 23.476091 -64.707291 -20.019112
v 18.509720 -71.593758 -19.425953
v 24.067753 -67.871071 -22.944069
v 21.899509 -52.481415 -22.990383
v 17.102215 -54.763935 -22.062172
v 22.181816 -56.452808 -14.474357
v 54.456181 -30.127670 -13.277851
v 53.444256 -26.292362 -11.289456
v 53.674873 -33.257198 -9.299746
v 55.683239 -33.990326 47.519672
v 56.802162 8.747405 45.725460
v 54.710361 6.039679 45.195004
v 53.450863 9.599276 43.912586
v 55.437969 3.319339 45.847687
v 63.983967 8.495464 42.683376
v 52.069122 10.317824 62.426804
v 3.379917 10.142191 62.970383
v 5.615672 5.909084 15.609491
v 29.701775 13.636459 11.166319
v 28.222044 13.601039 42.791767
v 54.497860 10.073266 45.195004
v 53.450863 9.599276 47.201553
v 55.272957 12.281102 2.445081
v 33.357067 8.441937 46.759373
v 56.522995 15.356496 45.223637
v 48.651890 10.025085 42.683376
v 52.069122 10.317824 50.452938
v 22.318554 11.155397 54.507301
v 5.519642 11.822283 59.848640
v 2.924763 10.792955 62.426804
v 3.379917 10.142191 79.067307
v 0.902230 9.670124 68.040138
v 3.443718 14.315194 64.705040
v 6.279337 13.244768 66.333359
v 7.862818 8.813509 64.705040
v 6.279337 13.244768 3.667897
v 30.454014 9.262647 23.567511
v 40.733204 50.877625 21.566540
v 44.745815 70.990196 13.121352
v 42.966755 5.772742 18.081303
v 36.261642 24.848511 24.972654
v 33.843548 51.125660 25.338680
v 40.944675 77.426483 8.751394
v 48.592487 -0.839855 5.007184
v 53.729698 -0.005055 10.442739
v 49.461926 6.556271 8.795667
v 54.176994 83.766083 18.424791
v 52.799774 91.843300 -0.000026
v 60.091019 96.186691 5.007184
v 53.729698 -0.005055 5.985415
v 45.646393 -2.059119 5.007184
v 53.729698 -0.005055 8.751394
v 48.592487 -0.839855 9.321864
v 51.677948 -2.642333 12.875819
v 54.608097 -11.149843 13.010347
v 58.448776 -21.558962 9.881243
v 63.011459 -33.971676 0.000003
v 43.328346 -2.664306 17.113653
v 43.039272 26.109070 -0.000018
v 59.224880 87.367577 6.722585
v 65.217323 -37.833294 6.580875
v 60.911331 -38.508015 6.722585
v 65.217323 -37.833294 7.475929
v 78.105072 -43.753979 12.171458
v 66.954742 -52.596310 8.745464
v 63.191254 -56.857693 -0.000012
v 68.826096 -36.969856 -0.000012
v 58.685261 -39.368717 3.763165
v 57.899368 -68.665276 -0.000017
v 57.081635 -69.289429 0.000005
v 78.892639 -42.719677 13.433184
v 75.161255 -45.887909 4.293534
v 84.847755 -62.159176 9.067678
v 97.498993 -62.998379 17.645857
v 106.248940 -66.661827 27.262873
v 110.193947 -71.275513 27.262873
v 110.193947 -71.275513 -0.000001
v 53.729706 -0.005024 -47.520439
v 56.796986 8.727022 -45.725582
v 54.703869 6.020732 -45.195698
v 53.446289 9.581092 -43.912258
v 55.430164 3.300342 -45.848877
v 63.978764 8.471596 -42.684113
v 52.065102 10.300835 -62.424290
v 3.374504 10.147277 -62.967003
v 5.609207 5.912979 -15.609391
v 29.701433 13.636353 -11.166219
v 28.221994 13.601720 -42.792625
v 54.493698 10.054972 -45.195698
v 53.446289 9.581092 -47.202866
v 55.269672 12.261588 -2.445085
v 33.357048 8.441940 -46.761337
v 56.521358 15.336403 -45.224094
v 48.647537 10.009433 -42.684113
v 52.065102 10.300835 -50.451866
v 22.314461 11.152691 -54.505241
v 5.515640 11.827700 -59.846214
v 2.919868 10.798759 -62.424290
v 3.374504 10.147277 -79.066689
v 0.901633 9.670559 -68.039703
v 3.439773 14.318098 -64.703453
v 6.274187 13.248135 -66.330093
v 7.857666 8.816261 -64.703453
v 6.274187 13.248135 -3.667902
v 30.453993 9.262651 -0.000014
v 25.014231 24.803604 -0.000003
v 37.524635 2.950499 -0.000024
v 22.877785 51.797432 -0.000024
v 30.792706 76.753334 -23.567547
v 40.733227 50.877613 -21.566587
v 44.745838 70.990173 -13.121360
v 42.966766 5.772731 -18.081324
v 36.261665 24.848501 -24.972696
v 33.843575 51.125645 -25.338732
v 40.944702 77.426468 -8.751390
v 48.592499 -0.839860 -5.007182
v 53.729706 -0.005057 -10.442739
v 49.461937 6.556264 -8.795716
v 54.177006 83.766083 -0.000021
v 56.248196 85.048225 -0.000018
v 59.224880 87.367577 -0.000027
v 40.894775 87.306084 -18.424849
v 52.799793 91.843277 -0.000029
v 52.083408 90.468315 -0.000026
v 60.091019 96.186691 -0.000026
v 60.091019 96.186691 -5.007182
v 53.729706 -0.005057 0.000000
v 58.771202 -1.090270 0.000002
v 55.802925 0.446890 -5.985411
v 45.646397 -2.059126 0.000001
v 43.744385 -4.820337 0.000003
v 43.328346 -2.664306 -8.751390
v 48.592499 -0.839860 -5.007182
v 53.729706 -0.005057 -9.321864
v 51.677948 -2.642335 -0.000004
v 64.471893 -9.863475 -0.000001
v 43.820202 -11.349271 -12.875821
v 54.608097 -11.149846 -0.000008
v 69.146515 -23.493099 -0.000005
v 48.273834 -21.709265 -13.010349
v 58.448776 -21.558962 -0.000010
v 53.460690 -34.017262 -9.881244
v 63.011459 -33.971676 0.000003
v 43.328346 -2.664306 -17.113672
v 43.039284 26.109062 -6.722585
v 65.217323 -37.833294 -0.000012
v 68.826096 -36.969856 -0.000012
v 58.685261 -39.368717 -0.000013
v 67.728233 -38.754620 -0.000014
v 68.461800 -40.113087 -0.000014
v 62.103626 -42.433548 -0.000012
v 60.806286 -40.289425 -6.580875
v 60.911331 -38.508015 -6.722585
v 65.217323 -37.833294 -0.000009
v 70.647255 -44.256035 -0.000001
v 64.064507 -49.805565 -7.475920
v 78.105087 -43.753979 0.000005
v 78.892639 -42.719677 0.000004
v 88.079865 -49.666199 -0.000003
v 82.747993 -69.580933 -0.000001
v 89.189514 -62.781570 -0.000013
v 74.456360 -72.213631 -0.000001
v 66.411819 -72.154228 -0.000017
v 57.081635 -69.289429 -0.000006
v 59.805630 -72.818481 -12.171463
v 66.954773 -52.596313 -8.745473
v 63.191277 -56.857693 -0.000012
v 68.826096 -36.969856 -0.000012
v 58.685261 -39.368717 -0.000008
v 61.152782 -59.382141 -3.763186
v 57.899376 -68.665276 -0.000017
v 57.081635 -69.289429 0.000005
v 78.892639 -42.719677 -13.433179
v 75.161285 -45.887913 -0.000007
v 50.689430 -36.787464 -0.000012
v 53.368641 -46.176243 -0.000015
v 58.817711 -49.100510 -0.000014
v 72.326820 -36.408451 -0.000016
v 74.284241 -38.623085 -0.000014
v 73.864479 -35.050774 -0.000016
v 76.140099 -38.462975 0.000008
v 76.278465 -35.970356 -0.000015
v 74.133240 -37.799778 -4.293540
v 84.847771 -62.159176 -9.067677
v 97.499008 -62.998383 -17.645855
v 106.248978 -66.661835 -27.262873
v 110.194000 -71.275536 -27.262873
v 110.194000 -71.275536 -0.000001
v 53.729710 0.667908 -0.000015
v 73.378891 -36.566765 -0.000001
v 53.729706 -0.005024 0.033797

vt 0.903104 0.948514
vt 0.907463 0.961573
vt 0.875632 0.957867
vt 0.662006 0.954572
vt 0.644962 0.963879
vt 0.619233 0.932455
vt 0.614663 0.559406
vt 0.712146 0.165399
vt 0.818096 0.120954
vt 0.850332 0.729892
vt 0.708779 0.851498
vt 0.731191 0.626808
vt 0.647707 0.541186
vt 0.754576 0.129600
vt 0.755201 0.850131
vt 0.777621 0.821921
vt 0.723930 0.933516
vt 0.663191 0.573808
vt 0.679309 0.871190
vt 0.695399 0.594552
vt 0.643698 0.648946
vt 0.555665 0.842216
vt 0.728589 0.838081
vt 0.777003 0.717256
vt 0.767217 0.740057
vt 0.672062 0.921676
vt 0.905913 0.984940
vt 0.897685 0.914527
vt 0.883192 0.909143
vt 0.661850 0.911708
vt 0.645743 0.901287
vt 0.621207 0.555011
vt 0.803905 0.084731
vt 0.810733 0.826855
vt 0.828581 0.858792
vt 0.817233 0.564371
vt 0.628377 0.612110
vt 0.556310 0.664496
vt 0.579275 0.671256
vt 0.645972 0.986449
vt 0.631980 0.852747
vt 0.675929 0.874399
vt 0.712304 0.974668
vt 0.992951 0.940589
vt 0.877580 0.979440
vt 0.877285 0.933304
vt 0.645915 0.983367
vt 0.649635 0.816372
vt 0.777356 0.638946
vt 0.575834 0.850081
vt 0.817659 0.722414
vt 0.825957 0.518509
vt 0.752253 0.930702
vt 0.968009 0.972834
vt 0.944996 0.946559
vt 0.959051 0.957394
vt 0.954041 0.987121
vt 0.955166 0.966203
vt 0.903104 0.948514
vt 0.907463 0.961573
vt 0.875632 0.957867
vt 0.662006 0.954572
vt 0.644962 0.963879
vt 0.619233 0.932455
vt 0.614663 0.559406
vt 0.712146 0.165399
vt 0.818096 0.120954
vt 0.850332 0.729892
vt 0.708779 0.851498
vt 0.731191 0.626808
vt 0.647707 0.541186
vt 0.754576 0.129600
vt 0.755201 0.850131
vt 0.777621 0.821921
vt 0.723930 0.933516
vt 0.663191 0.573808
vt 0.679309 0.871190
vt 0.695399 0.594552
vt 0.643698 0.648946
vt 0.555665 0.842216
vt 0.728589 0.838081
vt 0.777003 0.717256
vt 0.767217 0.740057
vt 0.672062 0.921676
vt 0.905913 0.984940
vt 0.897685 0.914527
vt 0.883192 0.909143
vt 0.661850 0.911708
vt 0.645743 0.901287
vt 0.621207 0.555011
vt 0.803905 0.084731
vt 0.810733 0.826855
vt 0.828581 0.858792
vt 0.817233 0.564371
vt 0.628377 0.612110
vt 0.556310 0.664496
vt 0.579275 0.671256
vt 0.645972 0.986449
vt 0.631980 0.852747
vt 0.675929 0.874399
vt 0.712304 0.974668
vt 0.992951 0.940589
vt 0.877580 0.979440
vt 0.877285 0.933304
vt 0.645915 0.983367
vt 0.649635 0.816372
vt 0.777356 0.638946
vt 0.575834 0.850081
vt 0.817659 0.722414
vt 0.825957 0.518509
vt 0.752253 0.930702
vt 0.968009 0.972834
vt 0.944996 0.946559
vt 0.959051 0.957394
vt 0.954041 0.987121
vt 0.955166 0.263526
vt 0.570224 0.302562
vt 0.567117 0.269225
vt 0.603990 0.222086
vt 0.636976 0.277805
vt 0.675325 0.314521
vt 0.625350 0.221360
vt 0.570463 0.331036
vt 0.573435 0.202457
vt 0.586741 0.289262
vt 0.647420 0.257851
vt 0.651552 0.461780
vt 0.740182 0.404547
vt 0.706228 0.377939
vt 0.680311 0.446660
vt 0.412472 0.537057
vt 0.494118 0.447311
vt 0.474833 0.437951
vt 0.762207 0.730010
vt 0.567085 0.382930
vt 0.404767 0.445799
vt 0.426094 0.438690
vt 0.632187 0.529554
vt 0.577058 0.490302
vt 0.775682 0.755803
vt 0.583007 0.774649
vt 0.623598 0.817047
vt 0.631838 0.882138
vt 0.595236 0.924923
vt 0.552288 0.953076
vt 0.483718 0.968310
vt 0.438672 0.968438
vt 0.456405 0.425523
vt 0.748780 0.418175
vt 0.767363 0.260225
vt 0.404792 0.313172
vt 0.401731 0.245679
vt 0.377972 0.253143
vt 0.388853 0.381362
vt 0.710503 0.352051
vt 0.704643 0.472763
vt 0.407057 0.378191
vt 0.624122 0.503248
vt 0.433639 0.357906
vt 0.490020 0.594608
vt 0.478867 0.264746
vt 0.469448 0.296109
vt 0.460586 0.425261
vt 0.396026 0.392385
vt 0.805262 0.521561
vt 0.649934 0.551152
vt 0.490618 0.577267
vt 0.590791 0.587377
vt 0.530634 0.557228
vt 0.507396 0.550790
vt 0.547132 0.742202
vt 0.548145 0.722617
vt 0.588776 0.211827
vt 0.402274 0.210926
vt 0.417618 0.234838
vt 0.479705 0.764140
vt 0.637720 0.937104
vt 0.567135 0.764582
vt 0.566200 0.929430
vt 0.451200 0.820909
vt 0.650312 0.848759
vt 0.548194 0.893450
vt 0.611234 0.978190
vt 0.493616 0.274711
vt 0.349691 0.305787
vt 0.352335 0.224377
vt 0.425065 0.743964
vt 0.601410 0.944384
vt 0.461620 0.959128
vt 0.450853 0.796158
vt 0.569063 0.908180
vt 0.500015 0.985208
vt 0.455346 0.512807
vt 0.628668 0.538586
vt 0.523900 0.457448
vt 0.760073 0.475617
vt 0.743896 0.538823
vt 0.596679 0.547448
vt 0.566448 0.553092
vt 0.647510 0.532834
vt 0.622302 0.151518
vt 0.631777 0.138601
vt 0.648641 0.208556
vt 0.788586 0.217773
vt 0.662559 0.176903
vt 0.669148 0.147150
vt 0.679433 0.145839
vt 0.756932 0.205666
vt 0.781199 0.197425
vt 0.754135 0.230696
vt 0.689601 0.178335
vt 0.606922 0.341863
vt 0.825309 0.312418
vt 0.811578 0.291995
vt 0.759941 0.292130
vt 0.714484 0.317743
vt 0.665343 0.328190
vt 0.643487 0.157273
vt 0.605776 0.600619
vt 0.482423 0.712358
vt 0.490073 0.609563
vt 0.486667 0.642767
vt 0.493301 0.370724
vt 0.808330 0.696488
vt 0.492269 0.244635
vt 0.731514 0.242025
vt 0.716516 0.728630
vt 0.482799 0.738785
vt 0.511832 0.733273
vt 0.496253 0.263526
vt 0.570224 0.302562
vt 0.567117 0.269225
vt 0.603990 0.222086
vt 0.636976 0.277805
vt 0.675325 0.314521
vt 0.625350 0.221360
vt 0.570463 0.331036
vt 0.573435 0.202457
vt 0.586741 0.289262
vt 0.647420 0.257851
vt 0.651552 0.461780
vt 0.740182 0.404547
vt 0.706228 0.377939
vt 0.680311 0.446660
vt 0.412472 0.537057
vt 0.494118 0.447311
vt 0.474833 0.437951
vt 0.762207 0.730010
vt 0.567085 0.382930
vt 0.404767 0.445799
vt 0.426094 0.438690
vt 0.632187 0.529554
vt 0.577058 0.490302
vt 0.775682 0.755803
vt 0.583007 0.774649
vt 0.623598 0.817047
vt 0.631838 0.882138
vt 0.595236 0.924923
vt 0.552288 0.953076
vt 0.483718 0.968310
vt 0.438672 0.968438
vt 0.456405 0.425523
vt 0.748780 0.418175
vt 0.767363 0.260225
vt 0.404792 0.313172
vt 0.401731 0.245679
vt 0.377972 0.253143
vt 0.388853 0.381362
vt 0.710503 0.352051
vt 0.704643 0.472763
vt 0.407057 0.378191
vt 0.624122 0.503248
vt 0.433639 0.357906
vt 0.490020 0.594608
vt 0.478867 0.264746
vt 0.469448 0.296109
vt 0.460586 0.425261
vt 0.396026 0.392385
vt 0.805262 0.521561
vt 0.649934 0.551152
vt 0.490618 0.577267
vt 0.590791 0.587377
vt 0.530634 0.557228
vt 0.507396 0.550790
vt 0.547132 0.742202
vt 0.548145 0.722617
vt 0.588776 0.211827
vt 0.402274 0.210926
vt 0.417618 0.234838
vt 0.479705 0.764140
vt 0.637720 0.937104
vt 0.567135 0.764582
vt 0.566200 0.929430
vt 0.451200 0.820909
vt 0.650312 0.848759
vt 0.548194 0.893450
vt 0.611234 0.978190
vt 0.493616 0.274711
vt 0.349691 0.305787
vt 0.352335 0.224377
vt 0.425065 0.743964
vt 0.601410 0.944384
vt 0.461620 0.959128
vt 0.450853 0.796158
vt 0.569063 0.908180
vt 0.500015 0.985208
vt 0.455346 0.512807
vt 0.628668 0.538586
vt 0.523900 0.457448
vt 0.760073 0.475617
vt 0.743896 0.538823
vt 0.596679 0.547448
vt 0.566448 0.553092
vt 0.647510 0.532834
vt 0.622302 0.151518
vt 0.631777 0.138601
vt 0.648641 0.208556
vt 0.788586 0.217773
vt 0.662559 0.176903
vt 0.669148 0.147150
vt 0.679433 0.145839
vt 0.756932 0.205666
vt 0.781199 0.197425
vt 0.754135 0.230696
vt 0.689601 0.178335
vt 0.606922 0.341863
vt 0.825309 0.312418
vt 0.811578 0.291995
vt 0.759941 0.292130
vt 0.714484 0.317743
vt 0.665343 0.328190
vt 0.643487 0.157273
vt 0.605776 0.600619
vt 0.482423 0.712358
vt 0.490073 0.609563
vt 0.486667 0.642767
vt 0.493301 0.370724
vt 0.808330 0.696488
vt 0.492269 0.244635
vt 0.731514 0.242025
vt 0.716516 0.728630
vt 0.482799 0.738785
vt 0.511832 0.733273
vt 0.496253 0.966203
vt 0.903104 0.948514
vt 0.907463 0.961573
vt 0.875632 0.957867
vt 0.662006 0.954572
vt 0.644962 0.963879
vt 0.619233 0.932455
vt 0.614663 0.559406
vt 0.712146 0.165399
vt 0.818096 0.120954
vt 0.850332 0.729892
vt 0.708779 0.851498
vt 0.731191 0.626808
vt 0.647707 0.541186
vt 0.754576 0.129600
vt 0.755201 0.850131
vt 0.777621 0.821921
vt 0.723930 0.933516
vt 0.663191 0.573808
vt 0.679309 0.871190
vt 0.695399 0.594552
vt 0.643698 0.648946
vt 0.555665 0.842216
vt 0.728589 0.838081
vt 0.777003 0.717256
vt 0.767217 0.740057
vt 0.672062 0.921676
vt 0.905913 0.984940
vt 0.897685 0.914527
vt 0.883192 0.909143
vt 0.661850 0.911708
vt 0.645743 0.901287
vt 0.621207 0.555011
vt 0.803905 0.084731
vt 0.810733 0.826855
vt 0.828581 0.858792
vt 0.817233 0.564371
vt 0.628377 0.612110
vt 0.556310 0.664496
vt 0.579275 0.671256
vt 0.645972 0.986449
vt 0.631980 0.852747
vt 0.675929 0.874399
vt 0.712304 0.974668
vt 0.992951 0.940589
vt 0.877580 0.979440
vt 0.877285 0.933304
vt 0.645915 0.983367
vt 0.649635 0.816372
vt 0.777356 0.638946
vt 0.575834 0.850081
vt 0.817659 0.722414
vt 0.825957 0.518509
vt 0.752253 0.992894
vt 0.943183 0.946559
vt 0.959051 0.972834
vt 0.944996 0.957394
vt 0.954041 0.987121
vt 0.955166 0.860586
vt 0.427545 0.908510
vt 0.208474 0.894197
vt 0.106114 0.756865
vt 0.548813 0.759498
vt 0.268206 0.759498
vt 0.111376 0.569363
vt 0.950720 0.450103
vt 0.923882 0.310095
vt 0.926724 0.175792
vt 0.912177 0.833638
vt 0.539510 0.904895
vt 0.454801 0.968899
vt 0.325383 0.993710
vt 0.186083 0.090313
vt 0.955341 0.602389
vt 0.992738 0.554614
vt 0.975119 0.445617
vt 0.962794 0.309895
vt 0.969055 0.169446
vt 0.971092 0.759498
vt 0.466742 0.880432
vt 0.063593 0.460877
vt 0.867969 0.580807
vt 0.919217 0.321611
vt 0.845448 0.185741
vt 0.847784 0.054470
vt 0.879290 0.111381
vt 0.862497 0.989315
vt 0.085586 0.005906
vt 0.892106 0.123761
vt 0.562496 0.637637
vt 0.978346 0.646361
vt 0.932846 0.645174
vt 0.898165 0.196579
vt 0.521160 0.074266
vt 0.499630 0.676643
vt 0.988204 0.686795
vt 0.932993 0.703018
vt 0.887793 0.191538
vt 0.450262 0.745662
vt 0.990039 0.755794
vt 0.930994 0.770664
vt 0.891435 0.157092
vt 0.380223 0.007829
vt 0.292711 0.870585
vt 0.982422 0.826080
vt 0.990410 0.850979
vt 0.910241 0.094664
vt 0.308680 0.606568
vt 0.971428 0.624695
vt 0.976058 0.812075
vt 0.037171 0.871645
vt 0.062480 0.759498
vt 0.430199 0.800067
vt 0.523810 0.059628
vt 0.281771 0.868548
vt 0.940912 0.585587
vt 0.145831 0.477901
vt 0.160789 0.548911
vt 0.145115 0.586457
vt 0.115064 0.513394
vt 0.101437 0.493482
vt 0.018192 0.214696
vt 0.111349 0.276216
vt 0.127122 0.005229
vt 0.136639 0.084463
vt 0.114214 0.390881
vt 0.075173 0.452792
vt 0.224076 0.478973
vt 0.257024 0.445828
vt 0.291864 0.426013
vt 0.244587 0.239037
vt 0.172684 0.180636
vt 0.166725 0.170878
vt 0.335602 0.281983
vt 0.342032 0.376065
vt 0.316593 0.331335
vt 0.256945 0.247261
vt 0.204274 0.134317
vt 0.222026 0.068837
vt 0.274028 0.315341
vt 0.156188 0.118212
vt 0.103080 0.172346
vt 0.011952 0.199770
vt 0.248029 0.350621
vt 0.187992 0.551032
vt 0.164156 0.474770
vt 0.177087 0.588295
vt 0.152784 0.587903
vt 0.042058 0.006575
vt 0.012871 0.462684
vt 0.110924 0.449176
vt 0.027267 0.550995
vt 0.103528 0.154207
vt 0.195003 0.264082
vt 0.065058 0.191429
vt 0.048326 0.520736
vt 0.177058 0.522321
vt 0.154178 0.147762
vt 0.100792 0.834147
vt 0.949630 0.584035
vt 0.343501 0.588666
vt 0.444715 0.667324
vt 0.434180 0.625098
vt 0.337533 0.549880
vt 0.356185 0.543003
vt 0.426576 0.581807
vt 0.262133 0.558271
vt 0.277407 0.530746
vt 0.283709 0.508078
vt 0.213280 0.500923
vt 0.226329 0.486003
vt 0.237582 0.497434
vt 0.202591 0.487927
vt 0.218212 0.469008
vt 0.229678 0.473684
vt 0.206344 0.485931
vt 0.349817 0.509016
vt 0.279221 0.427268
vt 0.385159 0.391718
vt 0.344791 0.415031
vt 0.311719 0.368338
vt 0.384236 0.364904
vt 0.363109 0.338777
vt 0.370127 0.022783
vt 0.818757 0.037685
vt 0.823744 0.053209
vt 0.821948 0.022331
vt 0.762981 0.033100
vt 0.763133 0.043439
vt 0.761854 0.019383
vt 0.708009 0.024292
vt 0.707222 0.029448
vt 0.706343 0.016577
vt 0.657607 0.100029
vt 0.777974 0.011415
vt 0.499336 0.135507
vt 0.686091 0.028571
vt 0.431806 0.078448
vt 0.796047 0.057773
vt 0.772958 0.045324
vt 0.489827 0.103143
vt 0.574394 0.446678
vt 0.336675 0.519511
vt 0.297376 0.143572
vt 0.580455 0.032047
vt 0.400501 0.966203
vt 0.903104 0.948514
vt 0.907463 0.961573
vt 0.875632 0.957867
vt 0.662006 0.954572
vt 0.644962 0.963879
vt 0.619233 0.932455
vt 0.614663 0.559406
vt 0.712146 0.165399
vt 0.818096 0.120954
vt 0.850332 0.729892
vt 0.708779 0.851498
vt 0.731191 0.626808
vt 0.647707 0.541186
vt 0.754576 0.129600
vt 0.755201 0.850131
vt 0.777621 0.821921
vt 0.723930 0.933516
vt 0.663191 0.573808
vt 0.679309 0.871190
vt 0.695399 0.594552
vt 0.643698 0.648946
vt 0.555665 0.842216
vt 0.728589 0.838081
vt 0.777003 0.717256
vt 0.767217 0.740057
vt 0.672062 0.921676
vt 0.905913 0.984940
vt 0.897685 0.914527
vt 0.883192 0.909143
vt 0.661850 0.911708
vt 0.645743 0.901287
vt 0.621207 0.555011
vt 0.803905 0.084731
vt 0.810733 0.826855
vt 0.828581 0.858792
vt 0.817233 0.564371
vt 0.628377 0.612110
vt 0.556310 0.664496
vt 0.579275 0.671256
vt 0.645972 0.986449
vt 0.631980 0.852747
vt 0.675929 0.874399
vt 0.712304 0.974668
vt 0.992951 0.940589
vt 0.877580 0.979440
vt 0.877285 0.933304
vt 0.645915 0.983367
vt 0.649635 0.816372
vt 0.777356 0.638946
vt 0.575834 0.850081
vt 0.817659 0.722414
vt 0.825957 0.518509
vt 0.752253 0.992894
vt 0.943183 0.946559
vt 0.959051 0.972834
vt 0.944996 0.957394
vt 0.954041 0.987121
vt 0.955166 0.860586
vt 0.427545 0.610485
vt 0.208474 0.624798
vt 0.106114 0.756865
vt 0.548813 0.569363
vt 0.950720 0.450103
vt 0.923882 0.310095
vt 0.926724 0.175792
vt 0.912177 0.833638
vt 0.539510 0.904895
vt 0.454801 0.968899
vt 0.325383 0.993710
vt 0.186083 0.090313
vt 0.955341 0.602389
vt 0.992738 0.554614
vt 0.975119 0.445617
vt 0.962794 0.309895
vt 0.969055 0.169446
vt 0.971092 0.989315
vt 0.085586 0.646361
vt 0.932846 0.645174
vt 0.898165 0.196579
vt 0.521160 0.686795
vt 0.932993 0.703018
vt 0.887793 0.191538
vt 0.450262 0.755794
vt 0.930994 0.770664
vt 0.891435 0.157092
vt 0.380223 0.850979
vt 0.910241 0.094664
vt 0.308680 0.606568
vt 0.971428 0.706920
vt 0.037171 0.800067
vt 0.523810 0.059628
vt 0.281771 0.868548
vt 0.940912 0.548911
vt 0.145115 0.513394
vt 0.101437 0.493482
vt 0.018192 0.214696
vt 0.111349 0.276216
vt 0.127122 0.084463
vt 0.114214 0.452792
vt 0.224076 0.426013
vt 0.244587 0.239037
vt 0.172684 0.180636
vt 0.166725 0.331335
vt 0.256945 0.247261
vt 0.204274 0.134317
vt 0.222026 0.315341
vt 0.156188 0.118212
vt 0.103080 0.172346
vt 0.011952 0.199770
vt 0.248029 0.350621
vt 0.187992 0.551032
vt 0.164156 0.587903
vt 0.042058 0.449176
vt 0.027267 0.550995
vt 0.103528 0.154207
vt 0.195003 0.264082
vt 0.065058 0.191429
vt 0.048326 0.520736
vt 0.177058 0.522321
vt 0.154178 0.147762
vt 0.100792 0.834147
vt 0.949630 0.584035
vt 0.343501 0.625098
vt 0.337533 0.549880
vt 0.356185 0.581807
vt 0.262133 0.558271
vt 0.277407 0.530746
vt 0.283709 0.500923
vt 0.226329 0.487927
vt 0.218212 0.485931
vt 0.349817 0.427268
vt 0.385159 0.391718
vt 0.344791 0.415031
vt 0.311719 0.368338
vt 0.384236 0.364904
vt 0.363109 0.338777
vt 0.370127 0.022783
vt 0.818757 0.037685
vt 0.823744 0.053209
vt 0.821948 0.022331
vt 0.762981 0.033100
vt 0.763133 0.043439
vt 0.761854 0.019383
vt 0.708009 0.024292
vt 0.707222 0.029448
vt 0.706343 0.016577
vt 0.657607 0.100029
vt 0.777974 0.011415
vt 0.499336 0.135507
vt 0.686091 0.078448
vt 0.796047 0.057773
vt 0.772958 0.045324
vt 0.489827 0.103143
vt 0.574394 0.446678
vt 0.336675 0.126040
vt 0.803848 0.146382
vt 0.815981 0.126310
vt 0.831976 0.530750
vt 0.706145 0.492413
vt 0.749428 0.553118
vt 0.670819 0.594488
vt 0.668769 0.632074
vt 0.671381 0.893917
vt 0.885113 0.904467
vt 0.920856 0.883746
vt 0.654081 0.879274
vt 0.635733 0.106012
vt 0.817499 0.520523
vt 0.800019 0.568294
vt 0.844155 0.544373
vt 0.850191 0.721282
vt 0.875465 0.837904
vt 0.881621 0.872252
vt 0.853282 0.878576
vt 0.838729 0.685817
vt 0.561744 0.718580
vt 0.639695 0.561839
vt 0.658320 0.670927
vt 0.659582 0.704373
vt 0.664887 0.992894
vt 0.943183 0.942578
vt 0.974867 0.126040
vt 0.803848 0.146382
vt 0.815981 0.126310
vt 0.831976 0.530750
vt 0.706145 0.492413
vt 0.749428 0.553118
vt 0.670819 0.594488
vt 0.668769 0.632074
vt 0.671381 0.893917
vt 0.885113 0.904467
vt 0.920856 0.883746
vt 0.654081 0.879274
vt 0.635733 0.106012
vt 0.817499 0.520523
vt 0.800019 0.568294
vt 0.844155 0.544373
vt 0.850191 0.721282
vt 0.875465 0.837904
vt 0.881621 0.872252
vt 0.853282 0.878576
vt 0.838729 0.685817
vt 0.561744 0.718580
vt 0.639695 0.561839
vt 0.658320 0.704373
vt 0.664887 0.670927
vt 0.659582 0.992894
vt 0.943183 0.942578
vt 0.974867 0.711781
vt 0.559294 0.705112
vt 0.589116 0.729932
vt 0.536089 0.375345
vt 0.758651 0.361499
vt 0.734720 0.345880
vt 0.725610 0.609876
vt 0.459187 0.617184
vt 0.459746 0.235881
vt 0.769269 0.175721
vt 0.802252 0.348127
vt 0.626486 0.357309
vt 0.680727 0.324668
vt 0.485471 0.199797
vt 0.800694 0.223437
vt 0.788090 0.407000
vt 0.804936 0.390607
vt 0.821778 0.402522
vt 0.826765 0.401276
vt 0.784486 0.390258
vt 0.789287 0.371072
vt 0.789869 0.371622
vt 0.824377 0.351162
vt 0.785593 0.342656
vt 0.838109 0.319165
vt 0.634650 0.299710
vt 0.656804 0.302437
vt 0.820794 0.278304
vt 0.763803 0.332616
vt 0.751853 0.328620
vt 0.697755 0.277883
vt 0.716349 0.347267
vt 0.664299 0.334636
vt 0.660524 0.334394
vt 0.647157 0.336775
vt 0.636147 0.143976
vt 0.633479 0.162789
vt 0.597143 0.174041
vt 0.596426 0.150838
vt 0.596454 0.576922
vt 0.508974 0.576461
vt 0.492129 0.129036
vt 0.609035 0.132358
vt 0.626149 0.602560
vt 0.518543 0.646004
vt 0.475746 0.695035
vt 0.468901 0.635218
vt 0.509406 0.619686
vt 0.466735 0.708330
vt 0.462407 0.694259
vt 0.514257 0.712861
vt 0.513563 0.129463
vt 0.643567 0.185658
vt 0.603648 0.190917
vt 0.584702 0.253617
vt 0.721449 0.252882
vt 0.731331 0.234081
vt 0.678732 0.255695
vt 0.677146 0.241810
vt 0.693736 0.268371
vt 0.705536 0.245729
vt 0.703750 0.219631
vt 0.651377 0.237090
vt 0.649906 0.228447
vt 0.665618 0.742288
vt 0.524534 0.722748
vt 0.526668 0.761556
vt 0.510782 0.758972
vt 0.494278 0.711781
vt 0.559294 0.705112
vt 0.589116 0.729932
vt 0.536089 0.375345
vt 0.758651 0.361499
vt 0.734720 0.345880
vt 0.725610 0.609876
vt 0.459187 0.617184
vt 0.459746 0.235881
vt 0.769269 0.175721
vt 0.802252 0.357309
vt 0.680727 0.348127
vt 0.626486 0.324668
vt 0.485471 0.199797
vt 0.800694 0.223437
vt 0.788090 0.407000
vt 0.804936 0.390607
vt 0.821778 0.402522
vt 0.826765 0.401276
vt 0.784486 0.390258
vt 0.789287 0.371072
vt 0.789869 0.371622
vt 0.824377 0.351162
vt 0.785593 0.342656
vt 0.838109 0.319165
vt 0.634650 0.299710
vt 0.656804 0.302437
vt 0.820794 0.278304
vt 0.763803 0.332616
vt 0.751853 0.328620
vt 0.697755 0.277883
vt 0.716349 0.347267
vt 0.664299 0.334636
vt 0.660524 0.334394
vt 0.647157 0.336775
vt 0.636147 0.143976
vt 0.633479 0.162789
vt 0.597143 0.174041
vt 0.596426 0.150838
vt 0.596454 0.576922
vt 0.508974 0.576461
vt 0.492129 0.132358
vt 0.626149 0.129036
vt 0.609035 0.602560
vt 0.518543 0.646004
vt 0.475746 0.695035
vt 0.468901 0.635218
vt 0.509406 0.619686
vt 0.466735 0.708330
vt 0.462407 0.694259
vt 0.514257 0.712861
vt 0.513563 0.129463
vt 0.643567 0.190917
vt 0.584702 0.185658
vt 0.603648 0.253617
vt 0.721449 0.252882
vt 0.731331 0.234081
vt 0.678732 0.255695
vt 0.677146 0.241810
vt 0.693736 0.268371
vt 0.705536 0.245729
vt 0.703750 0.219631
vt 0.651377 0.237090
vt 0.649906 0.228447
vt 0.665618 0.742288
vt 0.524534 0.722748
vt 0.526668 0.761556
vt 0.510782 0.758972
vt 0.494278 0.126040
vt 0.803848 0.146382
vt 0.815981 0.126310
vt 0.831976 0.530750
vt 0.706145 0.492413
vt 0.749428 0.553118
vt 0.670819 0.594488
vt 0.668769 0.632074
vt 0.671381 0.893917
vt 0.885113 0.904467
vt 0.920856 0.883746
vt 0.654081 0.879274
vt 0.635733 0.106012
vt 0.817499 0.942578
vt 0.974867 0.520523
vt 0.800019 0.568294
vt 0.844155 0.544373
vt 0.850191 0.721282
vt 0.875465 0.837904
vt 0.881621 0.872252
vt 0.853282 0.878576
vt 0.838729 0.685817
vt 0.561744 0.718580
vt 0.639695 0.561839
vt 0.658320 0.670927
vt 0.659582 0.704373
vt 0.664887 0.930702
vt 0.968009 0.931371
vt 0.311230 0.937643
vt 0.203174 0.552683
vt 0.988532 0.446519
vt 0.980664 0.308100
vt 0.987661 0.170166
vt 0.992956 0.787667
vt 0.562431 0.788735
vt 0.463216 0.824139
vt 0.430709 0.914481
vt 0.099895 0.071439
vt 0.971769 0.918643
vt 0.006325 0.179650
vt 0.557507 0.630491
vt 0.937913 0.621981
vt 0.875223 0.629393
vt 0.912876 0.216521
vt 0.522568 0.209577
vt 0.445603 0.176018
vt 0.366547 0.096351
vt 0.305175 0.617012
vt 0.939881 0.881239
vt 0.332824 0.759498
vt 0.020135 0.885335
vt 0.921458 0.519775
vt 0.195418 0.546182
vt 0.182538 0.086190
vt 0.006819 0.309416
vt 0.040679 0.388082
vt 0.121643 0.596563
vt 0.159311 0.468326
vt 0.192169 0.336739
vt 0.007954 0.314567
vt 0.030454 0.631197
vt 0.082332 0.566120
vt 0.009635 0.008602
vt 0.823381 0.011900
vt 0.764276 0.014172
vt 0.708175 0.016434
vt 0.657317 0.016695
vt 0.657563 0.157604
vt 0.589208 0.126040
vt 0.803848 0.146382
vt 0.815981 0.126310
vt 0.831976 0.530750
vt 0.706145 0.492413
vt 0.749428 0.553118
vt 0.670819 0.594488
vt 0.668769 0.632074
vt 0.671381 0.893917
vt 0.885113 0.904467
vt 0.920856 0.883746
vt 0.654081 0.879274
vt 0.635733 0.106012
vt 0.817499 0.942578
vt 0.974867 0.520523
vt 0.800019 0.568294
vt 0.844155 0.544373
vt 0.850191 0.721282
vt 0.875465 0.837904
vt 0.881621 0.872252
vt 0.853282 0.878576
vt 0.838729 0.685817
vt 0.561744 0.718580
vt 0.639695 0.561839
vt 0.658320 0.670927
vt 0.659582 0.704373
vt 0.664887 0.930702
vt 0.968009 0.460877
vt 0.867969 0.580807
vt 0.919217 0.321611
vt 0.845448 0.185741
vt 0.847784 0.931371
vt 0.311230 0.937643
vt 0.203174 0.552683
vt 0.988532 0.446519
vt 0.980664 0.308100
vt 0.987661 0.170166
vt 0.992956 0.787667
vt 0.562431 0.730260
vt 0.463216 0.694856
vt 0.430709 0.914481
vt 0.099895 0.880432
vt 0.063593 0.871645
vt 0.062480 0.111381
vt 0.862497 0.071439
vt 0.971769 0.054470
vt 0.879290 0.005906
vt 0.892106 0.918643
vt 0.006325 0.179650
vt 0.557507 0.123761
vt 0.562496 0.143572
vt 0.580455 0.630491
vt 0.937913 0.637637
vt 0.978346 0.624695
vt 0.976058 0.629393
vt 0.912876 0.621981
vt 0.875223 0.216521
vt 0.522568 0.074266
vt 0.499630 0.676643
vt 0.988204 0.209577
vt 0.445603 0.032047
vt 0.400501 0.745662
vt 0.990039 0.176018
vt 0.366547 0.826080
vt 0.990410 0.096351
vt 0.305175 0.617012
vt 0.939881 0.637756
vt 0.332824 0.885335
vt 0.921458 0.007829
vt 0.292711 0.870585
vt 0.982422 0.588295
vt 0.152784 0.585587
vt 0.145831 0.477901
vt 0.160789 0.474770
vt 0.177087 0.519775
vt 0.195418 0.546182
vt 0.182538 0.586457
vt 0.115064 0.462684
vt 0.110924 0.086190
vt 0.006819 0.006575
vt 0.012871 0.005229
vt 0.136639 0.170878
vt 0.335602 0.068837
vt 0.274028 0.281983
vt 0.342032 0.376065
vt 0.316593 0.478973
vt 0.257024 0.445828
vt 0.291864 0.309416
vt 0.040679 0.388082
vt 0.121643 0.596563
vt 0.159311 0.468326
vt 0.192169 0.390881
vt 0.075173 0.336739
vt 0.007954 0.314567
vt 0.030454 0.631197
vt 0.082332 0.566120
vt 0.009635 0.667324
vt 0.434180 0.588666
vt 0.444715 0.543003
vt 0.426576 0.508078
vt 0.213280 0.486003
vt 0.237582 0.497434
vt 0.202591 0.469008
vt 0.229678 0.473684
vt 0.206344 0.509016
vt 0.279221 0.008602
vt 0.823381 0.011900
vt 0.764276 0.014172
vt 0.708175 0.016434
vt 0.657317 0.016695
vt 0.657563 0.028571
vt 0.431806 0.519511
vt 0.297376 0.157604
vt 0.589208 1.000000

f 136/136 131/131 164/164
f 130/130 769/769 770/770
f 769/769 130/130 158/158
f 160/160 769/769 158/158
f 769/769 160/160 771/771
f 204/204 768/768 772/772
f 160/160 136/136 771/771
f 250/250 278/278 245/245
f 244/244 837/837 838/838
f 838/838 272/272 244/244
f 274/274 272/272 838/838
f 838/838 839/839 274/274
f 318/318 840/840 836/836
f 274/274 839/839 250/250
f 1/1 3/3 46/46
f 46/46 3/3 48/48
f 4/4 5/5 6/6
f 6/6 41/41 45/45
f 3/3 45/45 47/47
f 47/47 5/5 7/7
f 7/7 6/6 713/713
f 31/31 30/30 32/32
f 32/32 31/31 2/2
f 2/2 27/27 29/29
f 29/29 30/30 47/47
f 47/47 18/18 7/7
f 7/7 47/47 59/59
f 61/61 59/59 104/104
f 61/61 104/104 106/106
f 63/63 62/62 64/64
f 99/99 64/64 103/103
f 103/103 61/61 105/105
f 63/63 105/105 65/65
f 64/64 65/65 740/740
f 88/88 89/89 90/90
f 89/89 90/90 60/60
f 85/85 60/60 87/87
f 88/88 87/87 105/105
f 76/76 105/105 65/65
f 105/105 65/65 131/131
f 159/159 157/157 128/128
f 128/128 197/197 171/171
f 171/171 195/195 194/194
f 194/194 201/201 167/167
f 159/159 132/132 195/195
f 171/171 169/169 170/170
f 170/170 167/167 195/195
f 169/169 170/170 197/197
f 128/128 140/140 139/139
f 198/198 168/168 199/199
f 139/139 168/168 200/200
f 194/194 166/166 201/201
f 194/194 200/200 767/767
f 204/204 773/773 212/212
f 811/811 812/812 226/226
f 226/226 814/814 815/815
f 211/211 816/816 767/767
f 814/814 226/226 211/211
f 817/817 816/816 818/818
f 818/818 819/819 212/212
f 821/821 820/820 819/819
f 819/819 817/817 815/815
f 815/815 822/822 821/821
f 205/205 822/822 245/245
f 271/271 273/273 242/242
f 311/311 242/242 285/285
f 309/309 285/285 308/308
f 315/315 308/308 281/281
f 246/246 273/273 309/309
f 283/283 285/285 284/284
f 281/281 284/284 309/309
f 284/284 283/283 311/311
f 254/254 242/242 253/253
f 282/282 312/312 313/313
f 282/282 253/253 314/314
f 280/280 308/308 315/315
f 314/314 308/308 835/835
f 841/841 318/318 326/326
f 879/879 880/880 340/340
f 882/882 340/340 883/883
f 884/884 325/325 835/835
f 340/340 882/882 325/325
f 884/884 885/885 886/886
f 887/887 886/886 326/326
f 888/888 889/889 887/887
f 885/885 887/887 883/883
f 890/890 883/883 889/889
f 890/890 319/319 345/345
f 345/345 347/347 390/390
f 390/390 347/347 392/392
f 348/348 349/349 350/350
f 350/350 385/385 389/389
f 347/347 389/389 391/391
f 391/391 349/349 351/351
f 351/351 350/350 903/903
f 375/375 374/374 376/376
f 376/376 375/375 346/346
f 346/346 371/371 373/373
f 373/373 374/374 391/391
f 391/391 362/362 351/351
f 351/351 391/391 457/457
f 922/922 923/923 924/924
f 419/419 418/418 925/925
f 926/926 927/927 419/419
f 421/421 422/422 924/924
f 924/924 925/925 550/550
f 550/550 577/577 595/595
f 552/552 595/595 597/597
f 554/554 553/553 555/555
f 555/555 554/554 594/594
f 594/594 551/551 552/552
f 594/594 552/552 596/596
f 596/596 567/567 556/556
f 556/556 596/596 971/971
f 579/579 580/580 581/581
f 581/581 974/974 551/551
f 551/551 594/594 578/578
f 579/579 578/578 596/596
f 596/596 580/580 556/556
f 556/556 581/581 640/640
f 995/995 994/994 996/996
f 621/621 622/622 997/997
f 999/999 998/998 622/622
f 625/625 624/624 996/996
f 1/1 138/138 128/128
f 194/194 129/129 158/158
