# MOD converted: m291.mod
# 1079 verts, 1097 faces

v 78.768509 -31.519638 -0.002042
v 64.692375 -3.006908 -0.002043
v 89.517799 -3.153645 16.505924
v 87.080971 -20.270855 17.459049
v 75.682556 -24.999464 10.905657
v 78.268456 -25.645782 8.501650
v 88.363548 -26.237041 8.326612
v 78.042435 -28.781816 9.155491
v 55.982502 -14.888651 5.311378
v 59.684807 -13.466230 33.212444
v 56.010780 -14.510893 14.704751
v 61.475540 -28.976000 7.095898
v 68.800659 -24.554483 13.876181
v 48.783035 -19.279398 15.291436
v 42.214569 -13.921366 23.141233
v 49.422474 -3.517721 22.644152
v 53.576546 -7.425852 36.962322
v 49.948608 -13.845631 17.895805
v 53.870125 -31.004004 28.073206
v 58.882912 -28.327923 20.595831
v 47.752674 -31.189539 25.188511
v 43.194809 3.086256 22.963364
v 41.650860 -26.438940 34.430096
v 46.445301 -25.747538 24.588814
v 35.942547 -20.857615 22.801880
v 68.556099 -25.210890 5.119760
v 63.355068 -2.561135 1.769567
v 62.922554 -13.249002 16.456017
v 88.061844 -9.770893 20.669466
v 77.318718 -4.910088 22.108130
v 78.444565 -12.653366 26.242359
v 69.268951 -13.018321 33.017445
v 52.642548 -26.934011 13.020305
v 64.848480 -2.768792 7.821362
v 73.022438 1.163215 9.768584
v 89.296974 -3.168772 19.391306
v 62.712383 -6.748069 29.075932
v 63.242836 -14.206294 25.217371
v 70.396378 -19.010431 21.045319
v 77.834694 -17.516277 31.495909
v 60.708855 -23.994799 42.629326
v 0.819153 -34.663853 42.601818
v 7.705597 -35.753899 53.333927
v 7.603821 -33.259853 54.396221
v 0.840553 -32.424904 50.901749
v -0.011269 -18.652418 37.145016
v 0.816475 -22.675184 46.159489
v 11.474907 -20.678877 50.870022
v 8.311172 -19.808317 36.070805
v 12.356888 -24.449530 47.858150
v 8.458015 -11.532795 15.433019
v 0.856712 -7.488008 28.517704
v 5.658737 7.871301 15.137418
v 7.561951 -5.939234 43.533630
v 0.664902 8.367979 20.879925
v 8.487549 -23.822237 20.598913
v 0.549232 -25.583618 26.712145
v 6.475288 -39.388931 26.110067
v 0.704407 -38.474854 37.717861
v 0.817612 -35.863079 37.243275
v 7.977150 -37.115917 27.263117
v 15.879242 9.372787 41.788635
v 17.320759 -0.587230 43.045490
v 6.568497 8.200171 40.069111
v 18.032455 -16.360580 26.429094
v 27.511238 -21.180931 14.422141
v 27.080898 -5.286920 37.298813
v 29.818001 -16.701077 41.015652
v 31.394154 -1.851726 25.816256
v 31.806072 7.112009 15.591923
v 14.741951 -6.145957 26.133656
v 18.034184 -21.805902 14.413359
v 36.066650 -8.516825 40.304493
v 40.918503 -7.787144 36.227219
v 37.600204 -18.642021 23.620476
v 73.443161 -8.213783 -0.002044
v 89.558136 -29.470442 -0.002043
v 62.309776 -13.017366 -0.002043
v 73.270126 0.192332 -0.002044
v 66.316284 -27.650822 -16.510010
v 87.080978 -20.270859 -17.463133
v 75.682564 -24.999464 -10.909741
v 78.268463 -25.645782 -8.505733
v 88.363548 -26.237041 -8.330694
v 78.042435 -28.781820 -9.159576
v 55.982494 -14.888651 -5.315466
v 59.684807 -13.466227 -33.216530
v 56.010773 -14.510892 -14.708833
v 61.475540 -28.976000 -7.099983
v 68.800659 -24.554487 -13.880265
v 48.783031 -19.279398 -15.295521
v 42.214569 -13.921366 -23.145205
v 49.422474 -3.517723 -22.648237
v 53.576538 -7.425853 -36.966408
v 49.948605 -13.845629 -17.899893
v 53.870125 -31.004004 -28.077293
v 58.882919 -28.327919 -20.599918
v 47.752674 -31.189539 -25.192596
v 43.194809 3.086258 -22.967449
v 41.650860 -26.438944 -34.434177
v 46.445301 -25.747538 -24.592903
v 35.942547 -20.857615 -22.805964
v 68.556099 -25.210888 -5.123845
v 63.355068 -2.561134 -1.773652
v 62.922554 -13.249002 -16.460102
v 88.061844 -9.770893 -20.673550
v 77.318718 -4.910088 -22.112217
v 78.444565 -12.653364 -26.246445
v 69.268951 -13.018321 -33.021534
v 52.642548 -26.934011 -13.024389
v 64.848480 -2.768792 -7.825447
v 73.022438 1.163215 -9.772671
v 89.296974 -3.168773 -19.395393
v 62.712376 -6.748068 -29.080019
v 63.242847 -14.206292 -25.221458
v 70.396378 -19.010429 -21.049406
v 77.834694 -17.516279 -31.499992
v 60.708855 -23.994799 -42.633415
v 0.819153 -34.663853 -42.605907
v 7.705597 -35.753899 -53.338020
v 7.603813 -33.259853 -54.400307
v 0.840553 -32.424900 -50.905834
v -0.011269 -18.652418 -37.149109
v 0.816475 -22.675184 -46.163574
v 11.474907 -20.678877 -50.874107
v 8.311165 -19.808317 -36.074886
v 12.356888 -24.449532 -47.862240
v 8.458015 -11.532794 -15.437106
v 0.856712 -7.488004 -28.521793
v 5.658737 7.871303 -15.141502
v 7.561951 -5.939263 -43.537716
v 0.664902 8.367979 -20.884016
v 8.487549 -23.822237 -20.602997
v 0.549240 -25.583620 -26.716230
v 6.475288 -39.388931 -26.114151
v 0.704414 -38.474854 -37.721951
v 0.817612 -35.863079 -37.247364
v 7.977150 -37.115917 -27.267202
v 15.879242 9.372787 -41.792717
v 17.320759 -0.587230 -43.049583
v 6.568497 8.200171 -40.073200
v 18.032455 -16.360577 -26.433180
v 27.511234 -21.180931 -14.426225
v 27.080894 -5.286925 -37.302898
v 29.818001 -16.701073 -41.019745
v 31.394150 -1.851726 -25.820343
v 31.806072 7.112010 -15.596009
v 14.741951 -6.146101 -26.137741
v 18.034187 -21.805902 -14.417442
v 36.066654 -8.516826 -40.308575
v 40.918507 -7.787139 -36.231308
v 37.600204 -18.642019 -23.624559
v 73.443161 -8.213782 2.082061
v 26.287785 54.861320 -3.005017
v 69.805359 6.742831 2.945351
v 69.793434 6.789573 2.264206
v 73.858368 -3.065546 -2.174555
v 73.867203 -3.100517 0.083830
v 63.639751 3.675617 -3.073314
v 55.424461 14.308676 2.918248
v 55.394371 14.346954 0.094732
v 50.993004 8.975380 -2.329244
v 43.172123 26.314159 2.175427
v 43.157719 26.354031 0.038270
v 38.225315 24.383322 2.143098
v 36.571766 43.093704 -2.407546
v 36.575867 43.057419 -0.017926
v 22.979286 50.622658 0.013105
v 31.613724 41.292381 -2.650380
v 26.287785 54.861320 0.067368
v 66.730515 -5.388320 5.326900
v 24.027622 60.910233 0.234960
v 16.454552 51.884331 -6.148096
v 24.027622 60.910233 4.916939
v 17.842072 66.769562 0.203022
v 10.415344 57.254822 -5.706187
v 17.842072 66.769562 -0.195416
v 5.870125 69.865982 16.505924
v 87.080971 -20.270855 10.905657
v 78.268456 -25.645782 7.095898
v 68.800659 -24.554483 1.769567
v 62.922554 -13.249002 5.311378
v 59.684807 -13.466230 9.155491
v 55.982502 -14.888651 14.413359
v 36.066650 -8.516825 15.291436
v 42.214569 -13.921366 1.769567
v 62.922554 -13.249002 13.876181
v 48.783035 -19.279398 9.155491
v 55.982502 -14.888651 14.704751
v 61.475540 -28.976000 22.801880
v 68.556099 -25.210890 25.217371
v 70.396378 -19.010431 19.391306
v 62.712383 -6.748069 9.155491
v 55.982502 -14.888651 26.242359
v 69.268951 -13.018321 50.901749
v -0.011269 -18.652418 54.396221
v 0.840553 -32.424904 53.333927
v 7.603821 -33.259853 42.601818
v 7.705597 -35.753899 15.433019
v 0.856712 -7.488008 15.137418
v 7.561951 -5.939234 37.145016
v 0.816475 -22.675184 42.629326
v 0.819153 -34.663853 37.243275
v 7.977150 -37.115917 37.717861
v 0.817612 -35.863079 26.110067
v 0.704407 -38.474854 26.712145
v 6.475288 -39.388931 20.598913
v 0.549232 -25.583618 43.533630
v 0.664902 8.367979 15.433019
v 0.856712 -7.488008 28.517704
v 5.658737 7.871301 47.858150
v 8.458015 -11.532795 15.591923
v 14.741951 -6.145957 20.879925
v 8.487549 -23.822237 15.137418
v 7.561951 -5.939234 46.159489
v 11.474907 -20.678877 36.070805
v 12.356888 -24.449530 14.413359
v 36.066650 -8.516825 24.588814
v 35.942547 -20.857615 36.227219
v 37.600204 -18.642021 40.304493
v 40.918503 -7.787144 25.188511
v 43.194809 3.086256 14.413359
v 36.066650 -8.516825 14.422141
v 27.080898 -5.286920 15.137418
v 7.561951 -5.939234 43.045490
v 6.568497 8.200171 -0.002043
v 62.309776 -13.017366 -10.909741
v 78.268463 -25.645782 -16.510010
v 87.080978 -20.270859 -0.002043
v 78.768509 -31.519638 -0.002044
v 89.558136 -29.470442 -0.002044
v 66.316284 -27.650822 -0.002043
v 62.309776 -13.017366 -0.002042
v 64.692375 -3.006908 -7.099983
v 68.800659 -24.554487 -1.773652
v 62.922554 -13.249002 -5.315466
v 59.684807 -13.466227 -9.159576
v 55.982494 -14.888651 -14.417442
v 36.066654 -8.516826 -15.295521
v 42.214569 -13.921366 -0.002043
v 89.517799 -3.153645 -0.002043
v 73.270126 0.192332 -1.773652
v 62.922554 -13.249002 -13.880265
v 48.783031 -19.279398 -9.159576
v 55.982494 -14.888651 -14.708833
v 61.475540 -28.976000 -22.805964
v 68.556099 -25.210888 -25.221458
v 70.396378 -19.010429 -19.395393
v 62.712376 -6.748068 -9.159576
v 55.982494 -14.888651 -26.246445
v 69.268951 -13.018321 -54.400307
v 0.840553 -32.424900 -50.905834
v -0.011269 -18.652418 -53.338020
v 7.603813 -33.259853 -42.605907
v 7.705597 -35.753899 -15.141502
v 7.561951 -5.939263 -15.437106
v 0.856712 -7.488004 -37.149109
v 0.816475 -22.675184 -42.633415
v 0.819153 -34.663853 -37.721951
v 0.817612 -35.863079 -37.247364
v 7.977150 -37.115917 -26.114151
v 0.704414 -38.474854 -26.716230
v 6.475288 -39.388931 -20.602997
v 0.549240 -25.583620 -43.537716
v 0.664902 8.367979 -15.437106
v 0.856712 -7.488004 -28.521793
v 5.658737 7.871303 -47.862240
v 8.458015 -11.532794 -20.884016
v 8.487549 -23.822237 -15.596009
v 14.741951 -6.146101 -15.141502
v 7.561951 -5.939263 -46.163574
v 11.474907 -20.678877 -36.074886
v 12.356888 -24.449532 -24.592903
v 35.942547 -20.857615 -14.417442
v 36.066654 -8.516826 -36.231308
v 37.600204 -18.642019 -40.308575
v 40.918507 -7.787139 -25.192596
v 43.194809 3.086258 -14.417442
v 36.066654 -8.516826 -14.426225
v 27.080894 -5.286925 -15.141502
v 7.561951 -5.939263 -43.049583
v 6.568497 8.200171 -0.002043
v 62.309776 -13.017366 -3.005017
v 69.805359 6.742831 -2.174555
v 73.867203 -3.100517 -3.073314
v 55.424461 14.308676 -2.329244
v 43.172123 26.314159 -2.650380
v 26.287785 54.861320 -2.407546
v 36.575867 43.057419 2.082061
v 26.287785 54.861320 -2.650380
v 26.287785 54.861320 -6.148096
v 24.027622 60.910233 -2.650380
v 26.287785 54.861320 -0.017926
v 22.979286 50.622658 0.234960
v 16.454552 51.884331 -0.017926
v 22.979286 50.622658 -5.706187
v 17.842072 66.769562 0.203022
v 10.415344 57.254822 -0.195416
v 5.870125 69.865982 0.611000
v 139.331589 39.223701 -48.333553
v 102.939583 52.542942 -80.899864
v 123.212318 73.031845 -84.024872
v 157.212479 66.036636 -49.041573
v 178.627106 39.357849 -101.110367
v 191.691589 56.037716 -102.170532
v 85.031479 77.621429 -71.353317
v 80.888474 64.169868 -134.568573
v 112.217133 84.085686 -133.452820
v 186.649673 61.179417 -178.463562
v 164.647873 76.104256 -176.824890
v 179.888458 68.074387 -169.490021
v 79.880394 76.510216 -187.200714
v 96.258812 80.248878 -217.023651
v 158.995468 58.965599 -206.762756
v 56.747116 70.305481 -138.927002
v 89.992950 77.039200 -130.944244
v 161.319031 74.531601 -217.381317
v 154.102036 60.085381 -204.981079
v 53.792770 70.249039 -78.267509
v 50.491531 69.392799 -75.076691
v 50.655334 68.185318 -50.058880
v 212.177368 24.649019 -22.097658
v 130.231430 28.086216 -7.616919
v 122.775940 11.869396 -13.180375
v 114.186981 11.869392 -198.320496
v 124.591820 69.222443 -183.865997
v 130.011169 75.879936 -202.555573
v 134.981522 66.276764 -36.454521
v 118.651199 37.928200 -208.311615
v 49.369553 70.692474 -209.474243
v 52.025749 66.055931 -214.411987
v 45.075050 57.119278 -222.477234
v 153.916611 60.528824 -222.156006
v 156.798248 55.892277 -229.907593
v 156.112305 46.955624 -54.882217
v 221.240204 24.210455 -52.062241
v 218.415344 18.716061 -48.764259
v 219.078094 24.354393 -52.529255
v 226.991501 6.007288 -76.811188
v 42.771057 65.534683 -78.290710
v 45.172180 70.006386 -75.351212
v 30.856071 62.626270 -206.762756
v 56.747116 70.305481 -217.023651
v 158.995468 58.965599 -50.058880
v 212.177368 24.649019 -55.118046
v 214.374115 24.831440 -75.076691
v 50.655334 68.185318 -211.337830
v 53.630310 70.735992 -222.967651
v 159.119644 60.572338 -73.281181
v 45.585732 68.516624 35.466431
v 139.331604 39.223698 45.164394
v 102.939606 52.542950 77.730705
v 123.212364 73.031860 80.855705
v 157.212494 66.036629 45.872429
v 178.627136 39.357819 97.941193
v 191.691589 56.037777 99.001366
v 85.031502 77.621468 68.184158
v 80.888489 64.169907 131.399445
v 112.217194 84.085709 130.283691
v 186.649673 61.179398 175.294464
v 164.647858 76.104256 173.655762
v 179.888458 68.074394 166.320862
v 79.880424 76.510269 184.031586
v 96.258842 80.248924 213.854553
v 158.995453 58.965618 203.593597
v 56.747131 70.305550 135.757843
v 89.992981 77.039253 127.775108
v 161.319031 74.531609 214.212219
v 154.102020 60.085403 201.811951
v 53.792786 70.249115 75.098351
v 50.491562 69.392853 71.907532
v 50.655365 68.185364 46.889744
v 212.177414 24.648975 18.928511
v 130.231445 28.086212 4.447774
v 122.775940 11.869392 10.011230
v 114.186981 11.869395 195.151398
v 124.591820 69.222458 180.696869
v 130.011200 75.879959 199.386475
v 134.981537 66.276787 33.285362
v 118.651230 37.928200 205.142487
v 49.369576 70.692551 206.305115
v 52.025764 66.056000 211.242828
v 45.075012 57.119362 219.308136
v 153.916595 60.528847 218.986908
v 156.798233 55.892292 226.738495
v 156.112274 46.955647 51.713074
v 221.240219 24.210415 48.893112
v 218.415375 18.716015 45.595119
v 219.078140 24.354334 49.360165
v 226.991531 6.007236 73.642021
v 42.771088 65.534737 75.121544
v 45.172211 70.006439 72.182045
v 30.856102 62.626339 203.593597
v 56.747131 70.305550 213.854553
v 158.995453 58.965618 46.889744
v 212.177414 24.648975 51.948906
v 214.374146 24.831404 71.907532
v 50.655365 68.185364 208.168701
v 53.630318 70.736069 219.798553
v 159.119629 60.572353 70.112015
v 45.585762 68.516670 -1.584573
v 148.486801 25.820763 -21.698502
v 144.288635 11.762057 -18.730370
v 174.636810 5.770585 -11.182690
v 140.902084 -6.931642 -24.872530
v 153.195953 11.597505 -21.857098
v 151.627609 -3.938841 -16.385216
v 154.877930 -19.547255 -8.515150
v 135.889572 -17.109955 -16.651583
v 183.666550 20.477938 -17.288057
v 163.520508 -21.471294 -22.855181
v 167.384308 7.249380 -9.204947
v 152.092209 -25.108408 -8.998081
v 132.948837 -30.828110 -15.628903
v 167.848846 14.535619 -17.720467
v 156.457397 15.866776 -24.224632
v 158.805588 -7.310720 -33.848919
v 155.092743 28.887188 -9.608365
v 156.771118 -26.204010 -8.084807
v 164.433594 -22.044060 -15.301309
v 137.841919 -8.728593 -9.765841
v 137.693863 -33.986462 -13.226954
v 141.257690 -20.536028 -18.373014
v 145.578857 -14.184341 -20.162926
v 146.480103 -3.357262 -26.570379
v 145.542221 20.001713 -19.162333
v 149.123276 13.753263 -14.801744
v 181.576965 9.516452 -7.122010
v 178.803894 10.615680 -9.423329
v 147.098328 20.303980 -9.810601
v 136.597717 32.613892 -9.624079
v 144.125961 -34.942436 -1.584574
v 157.703827 -26.860840 -22.135330
v 140.226852 5.603394 -31.222876
v 158.110062 -2.737772 -10.861931
v 146.705658 -23.105446 -1.584576
v 172.682007 -18.121239 -1.584568
v 164.439194 -21.913691 -1.584575
v 154.139023 -25.699121 -1.584572
v 183.816895 5.135933 -1.584573
v 188.515335 21.362259 -10.759445
v 153.283813 35.505627 -1.584570
v 135.308990 -11.889643 -11.697550
v 134.644669 -4.854799 -12.987997
v 140.796799 12.202975 -1.584572
v 173.697617 14.468430 -1.584571
v 155.248199 24.177483 -29.117561
v 163.140396 -12.512972 -19.387423
v 175.328552 -12.512964 -24.382799
v 168.548355 -19.740999 -36.748997
v 171.305725 -12.512974 -24.934175
v 178.643677 -12.512979 -31.314398
v 175.333878 -19.060474 -38.469658
v 186.972031 -12.512988 -27.224192
v 184.141357 -12.512974 -32.692013
v 184.872375 -18.283155 -33.545876
v 193.933456 -12.512986 -24.861906
v 189.179626 -12.512976 -28.621870
v 190.568466 -17.634682 -19.718065
v 193.487030 -12.512979 -23.168344
v 195.570496 -16.814968 -26.963808
v 197.953232 -12.512994 -19.718075
v 193.487030 -12.512984 -23.168365
v 195.570496 -16.814964 -26.963827
v 197.953232 -12.512985 -22.618559
v 200.982162 -12.512980 -15.815681
v 199.260986 -12.512980 -19.489548
v 200.082642 -16.000092 -24.352440
v 210.126404 -12.944374 -21.728666
v 204.102005 -12.728683 -17.451017
v 206.713898 -12.728678 -19.217249
v 205.586838 -14.634039 -14.263152
v 172.342575 -12.843445 -17.288057
v 163.520508 -21.471294 -21.941051
v 159.525940 -12.521697 -29.117559
v 163.140396 -12.512990 -19.387415
v 175.328552 -12.512989 -24.382790
v 168.548355 -5.284964 -36.748989
v 171.305725 -12.512992 -24.934172
v 178.643677 -12.512993 -31.314388
v 175.333862 -5.965490 -38.469650
v 186.972031 -12.512986 -27.224186
v 184.141357 -12.512989 -32.692005
v 184.872375 -6.742819 -33.545868
v 193.933456 -12.512983 -24.861908
v 189.179626 -12.512977 -28.621868
v 190.568481 -7.391285 -19.718058
v 193.487030 -12.512988 -23.168343
v 195.570526 -8.210995 -26.963806
v 197.953232 -12.512976 -19.718075
v 193.487030 -12.512984 -23.168362
v 195.570526 -8.210988 -26.963823
v 197.953232 -12.512983 -22.618553
v 200.982162 -12.512979 -15.815679
v 199.260986 -12.512978 -19.489542
v 200.082657 -9.025862 -24.352434
v 210.126404 -12.081595 -21.728662
v 204.102005 -12.297285 -17.451017
v 206.713898 -12.297283 -19.217245
v 205.586838 -10.391919 -18.019766
v 165.377441 -5.490640 18.509050
v 144.288635 11.762054 15.540915
v 174.636810 5.770587 7.993237
v 140.902084 -6.931642 21.683081
v 153.195953 11.597502 18.667643
v 151.627609 -3.938848 13.195767
v 154.877930 -19.547255 5.325702
v 135.889572 -17.109955 13.462128
v 183.666550 20.477940 14.098610
v 163.520508 -21.471292 19.665726
v 167.384308 7.249380 6.015497
v 152.092209 -25.108408 5.808624
v 132.948837 -30.828110 12.439449
v 167.848846 14.535622 14.531013
v 156.457397 15.866778 21.035179
v 158.805588 -7.310722 30.659462
v 155.092743 28.887188 6.418917
v 156.771118 -26.204010 4.895367
v 164.433594 -22.044056 12.111856
v 137.841919 -8.728593 6.576390
v 137.693863 -33.986462 10.037496
v 141.257690 -20.536028 15.183567
v 145.578857 -14.184339 16.973473
v 146.480103 -3.357265 23.380926
v 145.542221 20.001717 15.972881
v 149.123276 13.753263 11.612293
v 181.576965 9.516451 3.932558
v 178.803894 10.615681 6.233878
v 147.098328 20.303982 6.621151
v 136.597717 32.613892 6.434631
v 144.125961 -34.942436 18.945877
v 140.226852 5.603396 28.033424
v 158.110062 -2.737760 7.672486
v 146.705658 -23.105442 -1.584567
v 131.741943 -33.714180 -1.584573
v 134.975784 -17.019472 -1.584562
v 148.974533 -37.680801 -1.584559
v 143.355621 -39.365089 7.569994
v 153.283813 35.505627 -1.584572
v 133.745926 13.520191 8.508101
v 134.644669 -4.854799 9.798546
v 140.796799 12.202975 11.073699
v 172.342575 -12.843444 18.751598
v 159.525940 -12.521699 14.830318
v 165.377441 -5.490639 11.073688
v 172.342575 -12.678210 25.928101
v 163.140396 -12.512965 16.197958
v 175.328552 -12.512965 21.193335
v 168.548355 -19.740999 33.559532
v 171.305725 -12.512974 21.744715
v 178.643677 -12.512971 28.124933
v 175.333878 -19.060472 35.280193
v 186.972031 -12.512981 24.034731
v 184.141357 -12.512975 29.502552
v 184.872375 -18.283148 30.356417
v 193.933456 -12.512985 21.672445
v 189.179626 -12.512974 25.432411
v 190.568466 -17.634674 16.528601
v 193.487030 -12.512978 19.978888
v 195.570496 -16.814964 23.774349
v 197.953232 -12.512988 16.528601
v 193.487030 -12.512978 19.978888
v 195.570496 -16.814964 23.774349
v 197.953232 -12.512988 19.429081
v 200.982162 -12.512982 12.626198
v 199.260986 -12.512982 16.300064
v 200.082642 -16.000093 21.162960
v 210.126404 -12.512978 18.539190
v 204.102005 -12.512980 14.261539
v 206.713898 -12.512980 16.027769
v 205.586838 -14.634039 14.098600
v 163.520508 -21.471291 18.751589
v 159.525940 -12.521700 25.928104
v 163.140396 -12.512983 16.197960
v 175.328552 -12.512987 21.193335
v 168.548355 -5.284956 33.559540
v 171.305725 -12.512977 21.744720
v 178.643677 -12.512980 28.124937
v 175.333862 -5.965476 35.280193
v 186.972031 -12.512972 24.034735
v 184.141357 -12.512977 29.502556
v 184.872375 -6.742806 30.356419
v 193.933456 -12.512968 21.672449
v 189.179626 -12.512976 25.432411
v 190.568481 -7.391282 16.528603
v 193.487030 -12.512979 19.978888
v 195.570526 -8.210989 23.774351
v 197.953232 -12.512973 16.528603
v 193.487030 -12.512979 19.978888
v 195.570526 -8.210989 23.774351
v 197.953232 -12.512973 19.429081
v 200.982162 -12.512969 12.626200
v 199.260986 -12.512978 16.300066
v 200.082657 -9.025866 16.027771
v 205.586838 -10.391919 14.830307
v 165.377441 -5.490639 -14.263152
v 172.342575 -12.843445 -21.941051
v 159.525940 -12.521697 11.073688
v 172.342575 -12.678210 18.751589
v 159.525940 -12.521700 -206.762756
v 56.747116 70.305481 -204.981079
v 53.792770 70.249039 -204.981079
v 53.792770 70.249039 -208.311615
v 49.369553 70.692474 -211.337830
v 53.630310 70.735992 -214.411987
v 45.075050 57.119278 -217.023651
v 158.995468 58.965599 -217.381317
v 154.102036 60.085381 -217.381317
v 154.102036 60.085381 -222.477234
v 153.916611 60.528824 -222.967651
v 159.119644 60.572338 -229.907593
v 156.112305 46.955624 -50.058880
v 212.177368 24.649019 -55.118046
v 214.374115 24.831440 -55.118046
v 214.374115 24.831440 -54.882217
v 221.240204 24.210455 -48.764259
v 219.078094 24.354393 -52.529255
v 226.991501 6.007288 -78.267509
v 50.491531 69.392799 -75.076691
v 50.655334 68.185318 -73.281181
v 45.585732 68.516624 -78.267509
v 50.491531 69.392799 -78.290710
v 45.172180 70.006386 -75.351212
v 30.856071 62.626270 201.811951
v 53.792786 70.249115 203.593597
v 56.747131 70.305550 201.811951
v 53.792786 70.249115 205.142487
v 49.369576 70.692551 208.168701
v 53.630318 70.736069 211.242828
v 45.075012 57.119362 214.212219
v 154.102020 60.085403 213.854553
v 158.995453 58.965618 214.212219
v 154.102020 60.085403 219.308136
v 153.916595 60.528847 219.798553
v 159.119629 60.572353 226.738495
v 156.112274 46.955647 51.948906
v 214.374146 24.831404 46.889744
v 212.177414 24.648975 51.948906
v 214.374146 24.831404 51.713074
v 221.240219 24.210415 45.595119
v 219.078140 24.354334 49.360165
v 226.991531 6.007236 71.907532
v 50.655365 68.185364 75.098351
v 50.491562 69.392853 70.112015
v 45.585762 68.516670 75.098351
v 50.491562 69.392853 75.121544
v 45.172211 70.006439 72.182045
v 30.856102 62.626339 -18.730370
v 174.636810 5.770585 -22.855181
v 167.384308 7.249380 -33.848919
v 155.092743 28.887188 -11.182690
v 140.902084 -6.931642 -26.570379
v 145.542221 20.001713 -21.698502
v 144.288635 11.762057 -19.162333
v 149.123276 13.753263 -18.730370
v 174.636810 5.770585 -18.019766
v 165.377441 -5.490640 -16.651583
v 183.666550 20.477938 -7.122010
v 178.803894 10.615680 -17.720467
v 156.457397 15.866776 -21.698502
v 144.288635 11.762057 -15.628903
v 167.848846 14.535619 -15.628903
v 167.848846 14.535619 -19.162333
v 149.123276 13.753263 -24.872530
v 153.195953 11.597505 -21.857098
v 151.627609 -3.938841 -11.182690
v 140.902084 -6.931642 -31.222876
v 158.110062 -2.737772 -21.941051
v 159.525940 -12.521697 -11.182690
v 140.902084 -6.931642 -11.697550
v 134.644669 -4.854799 -22.135330
v 140.226852 5.603394 -1.584573
v 148.486801 25.820763 -1.584573
v 188.515335 21.362259 -9.810601
v 136.597717 32.613892 -1.584572
v 133.745926 13.520191 -1.584572
v 173.697617 14.468430 -10.759445
v 153.283813 35.505627 -1.584571
v 155.248199 24.177483 -14.263152
v 172.342575 -12.843445 -18.019766
v 165.377441 -5.490640 -21.941051
v 159.525940 -12.521697 14.830318
v 165.377441 -5.490639 19.665726
v 167.384308 7.249380 -1.584568
v 164.439194 -21.913691 -1.584576
v 172.682007 -18.121239 -1.584559
v 143.355621 -39.365089 19.665726
v 167.384308 7.249380 30.659462
v 155.092743 28.887188 7.993237
v 140.902084 -6.931642 23.380926
v 145.542221 20.001717 15.972881
v 149.123276 13.753263 18.509050
v 144.288635 11.762054 -1.584573
v 148.486801 25.820763 15.540915
v 174.636810 5.770587 14.830318
v 165.377441 -5.490639 -1.584572
v 183.816895 5.135933 13.462128
v 183.666550 20.477940 3.932558
v 178.803894 10.615681 12.439449
v 167.848846 14.535622 14.531013
v 156.457397 15.866778 18.509050
v 144.288635 11.762054 3.932558
v 178.803894 10.615681 -1.584572
v 173.697617 14.468430 -1.584573
v 188.515335 21.362259 12.439449
v 167.848846 14.535622 15.972881
v 149.123276 13.753263 21.683081
v 153.195953 11.597502 -1.584574
v 157.703827 -26.860840 -1.584562
v 148.974533 -37.680801 -1.584575
v 154.139023 -25.699121 -1.584573
v 134.975784 -17.019472 -1.584567
v 131.741943 -33.714180 18.667643
v 151.627609 -3.938848 7.993237
v 140.902084 -6.931642 28.033424
v 158.110062 -2.737760 18.751598
v 159.525940 -12.521699 7.993237
v 140.902084 -6.931642 8.508101
v 134.644669 -4.854799 -1.584570
v 135.308990 -11.889643 18.945877
v 140.226852 5.603396 -1.584571
v 155.248199 24.177483 -1.584573
v 148.486801 25.820763 -1.584573
v 188.515335 21.362259 6.621151
v 136.597717 32.613892 -1.584572
v 133.745926 13.520191 -1.584572
v 133.745926 13.520191 -1.584572
v 173.697617 14.468430 -1.584571
v 155.248199 24.177483 7.569994
v 153.283813 35.505627 14.261539
v 206.713898 -12.512980 18.539190
v 204.102005 -12.512980 21.162960
v 210.126404 -12.512978 0.080419
v 134.243866 -14.030331 -0.002040
v 141.515869 -12.894804 -0.002043
v 89.517799 -3.153645 -0.002044
v 130.050079 15.546931 -0.002044
v 96.323265 4.728276 16.505924
v 87.080971 -20.270855 11.719927
v 147.162979 11.897083 9.401015
v 132.093201 15.979433 15.898488
v 137.418396 9.875358 8.501650
v 88.363548 -26.237041 9.808512
v 96.369049 -24.091934 17.194439
v 96.272224 -17.272173 30.227251
v 122.355316 -13.480035 25.070660
v 111.686951 -9.890253 19.359716
v 127.616325 -13.804049 24.766651
v 131.589890 -7.586785 23.068428
v 106.654366 -16.854177 13.033275
v 111.903938 -24.383045 26.382828
v 133.269592 9.465190 36.572598
v 130.533035 8.988968 34.951832
v 128.530609 -6.719925 18.960657
v 96.272209 -3.534694 24.360569
v 105.733078 4.862669 23.030762
v 124.968430 15.903383 13.464943
v 107.610634 13.452656 10.391969
v 140.832306 -5.655818 11.521119
v 135.267639 -8.681871 29.463037
v 121.649811 14.474400 24.925093
v 110.608788 12.971588 10.923148
v 96.269524 3.824790 16.456017
v 88.061844 -9.770893 9.768584
v 89.296974 -3.168772 71.023354
v 53.224617 -17.558249 77.803909
v 60.766136 -32.455235 78.580307
v 47.467941 -14.508631 68.372574
v 57.253868 -28.797977 82.374733
v 40.673801 -29.143528 77.166016
v 42.197174 -35.542931 80.189400
v 43.138935 -34.760147 79.170761
v 37.213196 -25.306292 61.552719
v 63.064461 -29.727802 67.142181
v 56.542702 -13.024158 76.361420
v 71.610931 -25.560560 84.193527
v 58.257576 -31.584988 76.866058
v 66.116959 -35.250992 69.729866
v 51.649490 -40.325012 71.180901
v 58.531193 -43.629414 75.253769
v 55.302113 -40.964855 66.333061
v 55.224422 -42.333981 74.139244
v 57.218567 -5.294225 89.575226
v 55.644257 -18.480257 84.719368
v 67.935043 -11.653395 80.826157
v 42.022644 -19.811817 77.665298
v 49.449944 -34.115257 88.467590
v 47.639576 -24.140303 85.310028
v 48.665211 -34.196552 63.851051
v 57.284222 -36.077404 69.795937
v 71.226379 -31.980446 71.005348
v 65.080116 -38.641739 69.340385
v 54.254562 -33.249031 43.036953
v 122.183655 10.038630 37.729111
v 113.173233 -7.897180 28.729156
v 109.309814 -8.091205 27.410620
v 108.346397 12.298509 35.920021
v 112.145119 17.698462 48.519485
v 98.907608 -7.604918 42.376740
v 93.879097 7.572293 43.251827
v 95.072357 -7.856288 50.492229
v 95.399597 16.336388 53.728943
v 103.038223 -4.827774 56.815067
v 106.067856 5.940806 51.985069
v 90.204185 -15.599607 48.056850
v 75.869232 2.968949 47.236408
v 81.628067 -13.153194 59.176907
v 83.104828 10.339034 70.574440
v 96.411934 -3.016585 51.744774
v 73.468002 -18.716003 54.944836
v 67.326271 -0.871783 77.178986
v 78.874817 -10.459416 68.481873
v 66.608620 -3.006395 56.895199
v 79.943192 -21.277710 70.958939
v 78.307823 -21.520718 65.114700
v 74.781670 -26.719654 60.535732
v 66.563248 -25.453442 65.094940
v 63.659859 -7.303499 64.813705
v 74.894333 5.383865 68.435768
v 88.525208 -18.995586 63.895233
v 94.851608 -15.328525 44.119114
v 116.254906 8.702441 43.667709
v 114.789436 -4.174066 42.923035
v 105.830681 -9.391836 34.169426
v 100.517029 -8.570417 33.726524
v 98.844521 6.252512 40.310383
v 104.626450 14.424027 49.025642
v 110.053986 -5.491672 52.043926
v 110.755531 6.549212 45.330013
v 100.306236 15.904882 34.412388
v 116.376961 -12.636509 40.894196
v 119.059319 -6.396430 38.551804
v 120.582458 -5.737192 44.571190
v 125.900658 -12.917010 42.562534
v 129.393570 -12.975044 34.835686
v 127.044624 -5.844521 41.768436
v 126.566628 -15.734791 33.366547
v 121.814507 -10.950337 33.684971
v 128.005417 -1.853179 38.637085
v 124.537186 3.325308 44.922108
v 144.053772 3.325342 46.844318
v 141.164322 3.325354 43.863098
v 142.541428 0.586335 41.549488
v 144.871887 3.325214 33.684971
v 128.005417 8.503723 43.863094
v 142.541458 6.064196 28.732048
v 131.472626 3.325325 37.518719
v 115.935196 11.381969 39.710415
v 122.547798 8.726469 40.532322
v 124.580109 19.274597 39.347618
v 121.005913 20.709852 32.597324
v 121.493019 10.694552 36.687557
v 124.010017 20.338278 -0.002043
v 139.907394 13.252517 -0.002041
v 96.459808 -27.781809 -0.002044
v 89.558136 -29.470442 -0.002039
v 113.845695 -26.518270 -0.002045
v 109.489738 14.700660 -0.002043
v 126.712524 -20.732988 -16.510010
v 87.080978 -20.270859 -11.724011
v 147.162979 11.897084 -9.405106
v 132.093201 15.979433 -15.902575
v 137.418427 9.875359 -8.505733
v 88.363548 -26.237041 -9.812596
v 96.369057 -24.091932 -17.198524
v 96.272232 -17.272171 -30.231339
v 122.355316 -13.480038 -25.074745
v 111.686966 -9.890247 -19.363798
v 127.616333 -13.804050 -24.770737
v 131.589890 -7.586784 -23.072508
v 106.654388 -16.854193 -13.037352
v 111.903946 -24.383043 -26.386917
v 133.269592 9.465191 -36.576679
v 130.533035 8.988966 -34.955914
v 128.530609 -6.719928 -18.964746
v 96.272232 -3.534694 -24.364658
v 105.733078 4.862668 -23.034851
v 124.968430 15.903385 -13.469033
v 107.610641 13.452658 -10.396053
v 140.832306 -5.655818 -11.525205
v 135.267639 -8.681871 -29.467123
v 121.649796 14.474400 -24.929184
v 110.608803 12.971590 -10.927237
v 96.269539 3.824789 -16.460102
v 88.061844 -9.770893 -9.772671
v 89.296974 -3.168773 -71.027435
v 53.224617 -17.558249 -77.807991
v 60.766136 -32.455235 -78.584381
v 47.467941 -14.508631 -68.376663
v 57.253868 -28.797977 -82.378815
v 40.673801 -29.143530 -77.170097
v 42.197174 -35.542931 -80.193474
v 43.138935 -34.760147 -79.174835
v 37.213192 -25.306293 -61.556805
v 63.064461 -29.727800 -67.146263
v 56.542702 -13.024158 -76.365501
v 71.610931 -25.560558 -84.197609
v 58.257576 -31.584988 -76.870140
v 66.116959 -35.250992 -69.733948
v 51.649490 -40.325012 -71.184975
v 58.531197 -43.629414 -75.257858
v 55.302113 -40.964855 -66.337143
v 55.224422 -42.333981 -74.143326
v 57.218567 -5.294225 -89.579315
v 55.644257 -18.480257 -84.723457
v 67.935036 -11.653393 -80.830231
v 42.022648 -19.811815 -77.669380
v 49.449944 -34.115257 -88.471672
v 47.639576 -24.140301 -85.314117
v 48.665207 -34.196552 -63.855133
v 57.284222 -36.077404 -69.800011
v 71.226379 -31.980446 -71.009422
v 65.080109 -38.641739 -69.344467
v 54.254562 -33.249027 -43.041046
v 122.183655 10.038632 -37.733204
v 113.173233 -7.897179 -28.733244
v 109.309814 -8.091205 -27.414703
v 108.346397 12.298510 -35.924110
v 112.145126 17.698462 -48.523567
v 98.907608 -7.604918 -42.380829
v 93.879097 7.572293 -43.255913
v 95.072357 -7.856288 -50.496315
v 95.399597 16.336384 -53.733025
v 103.038223 -4.827773 -56.819149
v 106.067856 5.940804 -51.989166
v 90.204185 -15.599606 -48.060936
v 75.869232 2.968949 -47.240501
v 81.628067 -13.153195 -59.180992
v 83.104828 10.339034 -70.578506
v 96.411942 -3.016600 -51.748859
v 73.467995 -18.715998 -54.948925
v 67.326263 -0.871784 -77.183075
v 78.874817 -10.459416 -68.485947
v 66.608620 -3.006395 -56.899284
v 79.943184 -21.277706 -70.963020
v 78.307823 -21.520712 -65.118774
v 74.781670 -26.719654 -60.539822
v 66.563255 -25.453442 -65.099022
v 63.659859 -7.303501 -64.817787
v 74.894333 5.383864 -68.439850
v 88.525208 -18.995584 -63.899323
v 94.851608 -15.328524 -44.123199
v 116.254906 8.702444 -43.671799
v 114.789436 -4.174067 -42.927128
v 105.830681 -9.391836 -34.173515
v 100.517029 -8.570419 -33.730614
v 98.844521 6.252512 -40.314465
v 104.626450 14.424026 -49.029728
v 110.054001 -5.491670 -52.048012
v 110.755531 6.549207 -45.334106
v 100.306236 15.904881 -34.416477
v 116.376961 -12.636509 -40.898281
v 119.059334 -6.396434 -38.555897
v 120.582466 -5.737193 -44.575283
v 125.900650 -12.917007 -42.566620
v 129.393570 -12.975044 -34.839779
v 127.044624 -5.844520 -41.772526
v 126.566628 -15.734786 -33.370640
v 121.814507 -10.950336 -33.159470
v 128.005432 -2.329555 -38.111588
v 124.537186 2.848949 -44.396614
v 144.053772 2.848971 -46.318825
v 141.164322 2.848951 -43.337597
v 142.541428 0.110075 -41.023987
v 144.871887 2.848839 -33.159470
v 128.005417 8.027346 -43.337597
v 142.541458 5.587807 -28.206554
v 131.472626 2.848956 -37.522804
v 115.935196 11.381968 -39.714504
v 122.547798 8.726469 -40.536404
v 124.580109 19.274595 -39.351704
v 121.005913 20.709854 -32.601410
v 121.493019 10.694553 -36.691639
v 124.010002 20.338280 11.719927
v 147.162979 11.897083 15.898488
v 137.418396 9.875358 36.572598
v 130.533035 8.988968 26.382828
v 133.269592 9.465190 77.803909
v 60.766136 -32.455235 77.665298
v 49.449944 -34.115257 77.166016
v 42.197174 -35.542931 80.189400
v 43.138935 -34.760147 77.166016
v 42.197174 -35.542931 61.552719
v 63.064461 -29.727802 63.851051
v 57.284222 -36.077404 69.729866
v 51.649490 -40.325012 66.333061
v 55.224422 -42.333981 75.253769
v 55.302113 -40.964855 75.253769
v 55.302113 -40.964855 34.951832
v 128.530609 -6.719925 36.572598
v 130.533035 8.988968 25.070660
v 111.686951 -9.890253 30.227251
v 122.355316 -13.480035 24.925093
v 110.608788 12.971588 29.463037
v 121.649811 14.474400 27.410620
v 108.346397 12.298509 33.726524
v 98.844521 6.252512 24.925093
v 110.608788 12.971588 74.139244
v 57.218567 -5.294225 42.376740
v 93.879097 7.572293 48.056850
v 75.869232 2.968949 76.361420
v 71.610931 -25.560560 69.795937
v 71.226379 -31.980446 61.552719
v 63.064461 -29.727802 67.142181
v 56.542702 -13.024158 54.944836
v 67.326271 -0.871783 65.094940
v 63.659859 -7.303499 84.719368
v 67.935043 -11.653395 67.142181
v 56.542702 -13.024158 76.361420
v 71.610931 -25.560560 76.866058
v 66.116959 -35.250992 38.551804
v 120.582458 -5.737192 44.571190
v 125.900658 -12.917010 33.366547
v 121.814507 -10.950337 38.551804
v 120.582458 -5.737192 34.835686
v 127.044624 -5.844521 37.518719
v 115.935196 11.381969 39.347618
v 121.005913 20.709852 32.597324
v 121.493019 10.694552 39.710415
v 122.547798 8.726469 37.518719
v 115.935196 11.381969 -0.002043
v 139.907394 13.252517 -0.002041
v 96.459808 -27.781809 -0.002044
v 89.558136 -29.470442 -0.002039
v 113.845695 -26.518270 -0.002045
v 109.489738 14.700660 -11.724011
v 147.162979 11.897084 -15.902575
v 137.418427 9.875359 -26.386917
v 133.269592 9.465191 -36.576679
v 130.533035 8.988966 -0.002044
v 130.050079 15.546931 -0.002042
v 134.243866 -14.030331 -0.002043
v 126.712524 -20.732988 -0.002044
v 96.323265 4.728276 -0.002043
v 89.517799 -3.153645 -0.002040
v 141.515869 -12.894804 -77.807991
v 60.766136 -32.455235 -77.669380
v 49.449944 -34.115257 -77.170097
v 42.197174 -35.542931 -80.193474
v 43.138935 -34.760147 -77.170097
v 42.197174 -35.542931 -61.556805
v 63.064461 -29.727800 -63.855133
v 57.284222 -36.077404 -69.733948
v 51.649490 -40.325012 -66.337143
v 55.224422 -42.333981 -75.257858
v 55.302113 -40.964855 -75.257858
v 55.302113 -40.964855 -34.955914
v 128.530609 -6.719928 -36.576679
v 130.533035 8.988966 -25.074745
v 111.686966 -9.890247 -30.231339
v 122.355316 -13.480038 -24.929184
v 110.608803 12.971590 -29.467123
v 121.649796 14.474400 -27.414703
v 108.346397 12.298510 -33.730614
v 98.844521 6.252512 -24.929184
v 110.608803 12.971590 -74.143326
v 57.218567 -5.294225 -42.380829
v 93.879097 7.572293 -48.060936
v 75.869232 2.968949 -76.365501
v 71.610931 -25.560558 -69.800011
v 71.226379 -31.980446 -67.146263
v 56.542702 -13.024158 -61.556805
v 63.064461 -29.727800 -54.948925
v 67.326263 -0.871784 -65.099022
v 63.659859 -7.303501 -84.723457
v 67.935036 -11.653393 -67.146263
v 56.542702 -13.024158 -76.365501
v 71.610931 -25.560558 -76.870140
v 66.116959 -35.250992 -44.575283
v 125.900650 -12.917007 -38.555897
v 120.582466 -5.737193 -38.555897
v 120.582466 -5.737193 -33.370640
v 121.814507 -10.950336 -34.839779
v 127.044624 -5.844520 -39.351704
v 121.005913 20.709854 -37.522804
v 115.935196 11.381968 -39.714504
v 122.547798 8.726469 -32.601410
v 121.493019 10.694553 -37.522804
v 115.935196 11.381968 0.611000

vt 0.106900 0.968900
vt 0.114300 0.891400
vt 0.243400 0.741003
vt 0.152061 0.715394
vt 0.079693 0.680429
vt 0.128050 0.451700
vt 0.166200 0.449200
vt 0.106200 0.958415
vt 0.009039 0.962195
vt 0.053138 0.324774
vt 0.686768 0.675746
vt 0.009039 0.644200
vt 0.093400 0.352836
vt 0.507671 0.302815
vt 0.503156 0.287400
vt 0.595600 0.325915
vt 0.605038 0.282300
vt 0.702000 0.371496
vt 0.851500 0.371058
vt 0.779055 0.336270
vt 0.852926 0.236300
vt 0.590800 0.288900
vt 0.852700 0.291900
vt 0.777400 0.236900
vt 0.857300 0.741421
vt 0.009039 0.943900
vt 0.092300 0.993613
vt 0.053197 0.792278
vt 0.192018 0.827951
vt 0.113078 0.797607
vt 0.094072 0.809600
vt 0.009039 0.325524
vt 0.770665 0.893951
vt 0.068256 0.905900
vt 0.135900 0.844400
vt 0.213200 0.887627
vt 0.009039 0.377887
vt 0.683467 0.782415
vt 0.009039 0.770555
vt 0.082635 0.366735
vt 0.742729 0.156200
vt 0.067000 0.127500
vt 0.058300 0.127800
vt 0.012900 0.153800
vt 0.007400 0.233300
vt 0.013000 0.233600
vt 0.071500 0.120600
vt 0.145900 0.122800
vt 0.165200 0.116800
vt 0.091100 0.173200
vt 0.138400 0.334100
vt 0.189200 0.250714
vt 0.150064 0.326700
vt 0.155500 0.212469
vt 0.179554 0.120600
vt 0.145900 0.123400
vt 0.193300 0.005500
vt 0.151200 0.010000
vt 0.190200 0.007500
vt 0.022700 0.012900
vt 0.091700 0.082814
vt 0.580164 0.072900
vt 0.675000 0.006391
vt 0.630277 0.076500
vt 0.777950 0.174900
vt 0.849600 0.187100
vt 0.971600 0.169100
vt 0.776600 0.157400
vt 0.685000 0.172000
vt 0.582000 0.089450
vt 0.479750 0.096400
vt 0.858500 0.251354
vt 0.491567 0.218200
vt 0.700800 0.224700
vt 0.774800 0.822165
vt 0.069847 0.389000
vt 0.170600 0.999900
vt 0.062200 0.943100
vt 0.163400 0.386719
vt 0.044588 0.741003
vt 0.152061 0.715394
vt 0.079693 0.680429
vt 0.128050 0.451700
vt 0.166200 0.449200
vt 0.106200 0.958415
vt 0.009039 0.962195
vt 0.053138 0.324774
vt 0.686768 0.675746
vt 0.009039 0.644200
vt 0.093400 0.352836
vt 0.507671 0.302815
vt 0.503156 0.287400
vt 0.595600 0.325915
vt 0.605038 0.282300
vt 0.702000 0.371496
vt 0.851500 0.371058
vt 0.779055 0.336270
vt 0.852926 0.236300
vt 0.590800 0.288900
vt 0.852700 0.291900
vt 0.777400 0.236900
vt 0.857300 0.741421
vt 0.009039 0.943900
vt 0.092300 0.993613
vt 0.053197 0.792278
vt 0.192018 0.827951
vt 0.113078 0.797607
vt 0.094072 0.809600
vt 0.009039 0.325524
vt 0.770665 0.893951
vt 0.068256 0.905900
vt 0.135900 0.844400
vt 0.213200 0.887627
vt 0.009039 0.377887
vt 0.683467 0.782415
vt 0.009039 0.770555
vt 0.082635 0.366735
vt 0.742729 0.156200
vt 0.067000 0.127500
vt 0.058300 0.127800
vt 0.012900 0.153800
vt 0.007400 0.233300
vt 0.013000 0.233600
vt 0.071500 0.120600
vt 0.145900 0.122800
vt 0.165200 0.116800
vt 0.091100 0.173200
vt 0.138400 0.334100
vt 0.189200 0.250714
vt 0.150064 0.326700
vt 0.155500 0.212469
vt 0.179554 0.120600
vt 0.145900 0.123400
vt 0.193300 0.005500
vt 0.151200 0.010000
vt 0.190200 0.007500
vt 0.022700 0.012900
vt 0.091700 0.082814
vt 0.580164 0.072900
vt 0.675000 0.006391
vt 0.630277 0.076500
vt 0.777950 0.174900
vt 0.849600 0.187100
vt 0.971600 0.169100
vt 0.776600 0.157400
vt 0.685000 0.172000
vt 0.582000 0.089450
vt 0.479750 0.096400
vt 0.858500 0.251354
vt 0.491567 0.218200
vt 0.700800 0.224700
vt 0.774800 0.822165
vt 0.069847 0.488400
vt 0.977763 0.462800
vt 0.710200 0.488600
vt 0.710200 0.488700
vt 0.646900 0.462900
vt 0.646900 0.514000
vt 0.710200 0.462800
vt 0.781900 0.488500
vt 0.782100 0.514000
vt 0.782400 0.462800
vt 0.853400 0.488400
vt 0.853400 0.514000
vt 0.853600 0.488400
vt 0.922100 0.462700
vt 0.922000 0.514000
vt 0.977763 0.514000
vt 0.922300 0.462600
vt 0.977763 0.514000
vt 0.646900 0.941838
vt 0.267698 0.997384
vt 0.267698 0.896851
vt 0.267698 0.941838
vt 0.241569 0.997384
vt 0.241569 0.896851
vt 0.241569 0.941838
vt 0.204391 0.565283
vt 0.159578 0.482406
vt 0.106653 0.447200
vt 0.052800 0.588085
vt 0.081943 0.573849
vt 0.042277 0.587592
vt 0.009039 0.234091
vt 0.957508 0.275104
vt 0.940292 0.407646
vt 0.031058 0.340004
vt 0.931267 0.401999
vt 0.959663 0.423549
vt 0.847605 0.436113
vt 0.763199 0.430423
vt 0.714227 0.375869
vt 0.611219 0.397151
vt 0.535778 0.425523
vt 0.681664 0.123400
vt 0.193300 0.010000
vt 0.190200 0.005500
vt 0.151200 0.012900
vt 0.091700 0.237400
vt 0.190200 0.218500
vt 0.153600 0.120000
vt 0.021000 0.007500
vt 0.022700 0.122800
vt 0.083100 0.152100
vt 0.079200 0.153300
vt 0.133200 0.126300
vt 0.125700 0.238500
vt 0.135900 0.321558
vt 0.016031 0.312400
vt 0.118700 0.023965
vt 0.577404 0.012100
vt 0.738500 0.124050
vt 0.968100 0.038100
vt 0.898300 0.096200
vt 0.995000 0.018700
vt 0.788300 0.042800
vt 0.830300 0.232900
vt 0.955400 0.236900
vt 0.857300 0.224700
vt 0.774800 0.218200
vt 0.700800 0.236300
vt 0.590800 0.251000
vt 0.493300 0.180700
vt 0.476500 0.044000
vt 0.477700 0.226340
vt 0.164477 0.406658
vt 0.030975 0.482406
vt 0.106653 0.565283
vt 0.159578 0.389000
vt 0.106900 0.389000
vt 0.170600 0.386719
vt 0.044588 0.999900
vt 0.062200 0.968900
vt 0.114300 0.447200
vt 0.052800 0.588085
vt 0.081943 0.573849
vt 0.042277 0.587592
vt 0.009039 0.234091
vt 0.957508 0.275104
vt 0.940292 0.891400
vt 0.243400 0.943100
vt 0.163400 0.407646
vt 0.031058 0.340004
vt 0.931267 0.401999
vt 0.959663 0.423549
vt 0.847605 0.436113
vt 0.763199 0.430423
vt 0.714227 0.375869
vt 0.611219 0.397151
vt 0.535778 0.425523
vt 0.681664 0.010000
vt 0.190200 0.123400
vt 0.193300 0.005500
vt 0.151200 0.012900
vt 0.091700 0.218500
vt 0.153600 0.237400
vt 0.190200 0.120000
vt 0.021000 0.007500
vt 0.022700 0.152100
vt 0.079200 0.122800
vt 0.083100 0.153300
vt 0.133200 0.126300
vt 0.125700 0.238500
vt 0.135900 0.321558
vt 0.016031 0.312400
vt 0.118700 0.023965
vt 0.577404 0.012100
vt 0.738500 0.038100
vt 0.898300 0.124050
vt 0.968100 0.096200
vt 0.995000 0.018700
vt 0.788300 0.042800
vt 0.830300 0.236900
vt 0.857300 0.232900
vt 0.955400 0.224700
vt 0.774800 0.218200
vt 0.700800 0.236300
vt 0.590800 0.251000
vt 0.493300 0.180700
vt 0.476500 0.044000
vt 0.477700 0.226340
vt 0.164477 0.406658
vt 0.030975 0.488600
vt 0.710200 0.488700
vt 0.646900 0.488500
vt 0.782100 0.488400
vt 0.853400 0.488400
vt 0.977763 0.488400
vt 0.922100 0.941838
vt 0.287037 0.896851
vt 0.287037 0.941838
vt 0.267698 0.941838
vt 0.287037 0.997384
vt 0.287037 0.997384
vt 0.267698 0.997384
vt 0.287037 0.941838
vt 0.241569 0.997384
vt 0.241569 0.941838
vt 0.203922 1.000000
vt 0.233339 0.867991
vt 0.330527 0.798463
vt 0.231635 0.812772
vt 0.149467 0.929121
vt 0.119689 0.805059
vt 0.035249 0.703103
vt 0.330384 0.777679
vt 0.366240 0.637982
vt 0.205215 0.717024
vt 0.035166 0.570491
vt 0.055817 0.587336
vt 0.004280 0.511134
vt 0.271999 0.481869
vt 0.223170 0.459820
vt 0.014973 0.393590
vt 0.310226 0.607722
vt 0.283281 0.694607
vt 0.095749 0.454291
vt 0.036782 0.408521
vt 0.330940 0.738010
vt 0.474014 0.760168
vt 0.474819 0.965368
vt 0.017486 0.954150
vt 0.266776 0.997327
vt 0.284028 0.977571
vt 0.320189 0.480231
vt 0.127577 0.522372
vt 0.132256 0.476636
vt 0.100047 0.916048
vt 0.286043 0.661826
vt 0.445234 0.659781
vt 0.418764 0.599828
vt 0.421015 0.661826
vt 0.445234 0.659781
vt 0.418764 0.599828
vt 0.421015 0.661826
vt 0.445234 0.659781
vt 0.418764 0.663235
vt 0.515202 0.599828
vt 0.421015 0.659781
vt 0.418764 0.663235
vt 0.515202 0.599828
vt 0.421015 0.709734
vt 0.504982 0.709734
vt 0.504982 0.709734
vt 0.504982 0.949665
vt 0.004333 0.707589
vt 0.469191 0.663235
vt 0.515202 0.663235
vt 0.515202 0.661826
vt 0.445234 0.919581
vt 0.233339 0.867991
vt 0.330527 0.798463
vt 0.231635 0.812772
vt 0.149467 0.929121
vt 0.119689 0.805059
vt 0.035249 0.703103
vt 0.330384 0.777679
vt 0.366240 0.637982
vt 0.205215 0.717024
vt 0.035166 0.570491
vt 0.055817 0.587336
vt 0.004280 0.511134
vt 0.271999 0.481869
vt 0.223170 0.459820
vt 0.014973 0.393590
vt 0.310226 0.607722
vt 0.283281 0.694607
vt 0.095749 0.454291
vt 0.036782 0.408521
vt 0.330940 0.738010
vt 0.474014 0.760168
vt 0.474819 0.965368
vt 0.017486 0.954150
vt 0.266776 0.997327
vt 0.284028 0.977571
vt 0.320189 0.480231
vt 0.127577 0.522372
vt 0.132256 0.476636
vt 0.100047 0.916048
vt 0.286043 0.661826
vt 0.445234 0.659781
vt 0.418764 0.599828
vt 0.421015 0.661826
vt 0.445234 0.659781
vt 0.418764 0.599828
vt 0.421015 0.661826
vt 0.445234 0.659781
vt 0.418764 0.663235
vt 0.515202 0.599828
vt 0.421015 0.659781
vt 0.418764 0.663235
vt 0.515202 0.599828
vt 0.421015 0.709734
vt 0.504982 0.709734
vt 0.504982 0.709734
vt 0.504982 0.949665
vt 0.004333 0.707589
vt 0.469191 0.663235
vt 0.515202 0.663235
vt 0.515202 0.661826
vt 0.445234 0.974234
vt 0.733694 0.152856
vt 0.212320 0.439338
vt 0.192366 0.493560
vt 0.488121 0.256285
vt 0.239348 0.271703
vt 0.102227 0.371102
vt 0.543009 0.455153
vt 0.443728 0.709249
vt 0.898946 0.347193
vt 0.617781 0.381740
vt 0.200840 0.318429
vt 0.492620 0.399328
vt 0.366787 0.815130
vt 0.889275 0.525271
vt 0.375959 0.314269
vt 0.086594 0.316274
vt 0.203621 0.315065
vt 0.542970 0.291545
vt 0.636588 0.504005
vt 0.534852 0.363975
vt 0.378499 0.422075
vt 0.456091 0.424210
vt 0.500997 0.210808
vt 0.113259 0.196820
vt 0.249229 0.242552
vt 0.290985 0.438237
vt 0.807442 0.383179
vt 0.840437 0.936836
vt 0.783649 0.851638
vt 0.679504 0.316133
vt 0.394236 0.265859
vt 0.526195 0.214351
vt 0.047768 0.307393
vt 0.032006 0.365657
vt 0.476764 0.287363
vt 0.772492 0.258908
vt 0.624151 0.268435
vt 0.499564 0.332107
vt 0.880899 0.750971
vt 0.968674 0.976956
vt 0.879257 0.501666
vt 0.450223 0.511896
vt 0.486315 0.089446
vt 0.211739 0.812602
vt 0.960766 0.936977
vt 0.934567 0.905712
vt 0.415981 0.909890
vt 0.553230 0.916213
vt 0.475483 0.810482
vt 0.431873 0.855120
vt 0.547036 0.833732
vt 0.486210 0.720248
vt 0.533536 0.811431
vt 0.572448 0.775019
vt 0.544355 0.718311
vt 0.606126 0.801832
vt 0.618779 0.773195
vt 0.604503 0.814943
vt 0.674527 0.784217
vt 0.667238 0.742704
vt 0.667354 0.814943
vt 0.674527 0.784217
vt 0.667238 0.742704
vt 0.667354 0.756893
vt 0.710317 0.812098
vt 0.733797 0.785633
vt 0.717484 0.698730
vt 0.762944 0.747212
vt 0.735868 0.763068
vt 0.775656 0.758298
vt 0.757312 0.327765
vt 0.741391 0.991677
vt 0.476632 0.973152
vt 0.419687 0.905712
vt 0.415981 0.909890
vt 0.553230 0.916213
vt 0.475483 0.810482
vt 0.431873 0.855120
vt 0.547036 0.833732
vt 0.486210 0.720248
vt 0.533536 0.811431
vt 0.572448 0.775019
vt 0.544355 0.718311
vt 0.606126 0.801832
vt 0.618779 0.773195
vt 0.604503 0.814943
vt 0.674527 0.784217
vt 0.667238 0.742704
vt 0.667354 0.814943
vt 0.674527 0.784217
vt 0.667238 0.742704
vt 0.667354 0.756893
vt 0.710317 0.812098
vt 0.733797 0.785633
vt 0.717484 0.698730
vt 0.762944 0.747212
vt 0.735868 0.763068
vt 0.775656 0.758298
vt 0.757312 0.385861
vt 0.091195 0.152856
vt 0.212320 0.117339
vt 0.072591 0.019386
vt 0.488121 0.256285
vt 0.239348 0.271703
vt 0.102227 0.141844
vt 0.543009 0.057793
vt 0.443728 0.002993
vt 0.135203 0.165753
vt 0.617781 0.126103
vt 0.004235 0.194517
vt 0.492620 0.113618
vt 0.366787 0.040486
vt 0.012023 0.525271
vt 0.375959 0.314269
vt 0.086594 0.316274
vt 0.203621 0.197881
vt 0.542970 0.221401
vt 0.636588 0.008941
vt 0.534852 0.148971
vt 0.378499 0.090871
vt 0.456091 0.088736
vt 0.500997 0.210808
vt 0.113259 0.196820
vt 0.249229 0.242552
vt 0.290985 0.073267
vt 0.803117 0.125442
vt 0.836833 0.936836
vt 0.783649 0.851638
vt 0.679504 0.196813
vt 0.394236 0.214351
vt 0.047768 0.307393
vt 0.032006 0.147289
vt 0.476764 0.413526
vt 0.341213 0.485756
vt 0.437877 0.275544
vt 0.424787 0.288786
vt 0.337946 0.976956
vt 0.879257 0.008451
vt 0.211189 0.001049
vt 0.486315 0.089446
vt 0.211739 0.185181
vt 0.741391 0.352794
vt 0.059516 0.194129
vt 0.008922 0.708567
vt 0.675992 0.595753
vt 0.571116 0.659334
vt 0.693328 0.628243
vt 0.621489 0.512857
vt 0.627417 0.605936
vt 0.712551 0.557033
vt 0.668721 0.477800
vt 0.751272 0.576990
vt 0.755989 0.529133
vt 0.748987 0.507938
vt 0.822635 0.606014
vt 0.792170 0.554669
vt 0.805238 0.626986
vt 0.832695 0.586033
vt 0.845589 0.551467
vt 0.861951 0.626986
vt 0.832695 0.586033
vt 0.845589 0.551467
vt 0.861951 0.581480
vt 0.898257 0.648872
vt 0.887164 0.614848
vt 0.893258 0.552407
vt 0.971964 0.585093
vt 0.924710 0.617634
vt 0.954326 0.604458
vt 0.940313 0.698020
vt 0.588890 0.663715
vt 0.537267 0.595753
vt 0.571116 0.659334
vt 0.693328 0.628243
vt 0.621489 0.512857
vt 0.627417 0.605936
vt 0.712551 0.557033
vt 0.668721 0.477800
vt 0.751272 0.576990
vt 0.755989 0.529133
vt 0.748987 0.507938
vt 0.822635 0.606014
vt 0.792170 0.554669
vt 0.805238 0.626986
vt 0.832695 0.586033
vt 0.845589 0.551467
vt 0.861951 0.626986
vt 0.832695 0.586033
vt 0.845589 0.551467
vt 0.861951 0.581480
vt 0.898257 0.648872
vt 0.887164 0.614848
vt 0.893258 0.604458
vt 0.940313 0.698020
vt 0.588890 0.960363
vt 0.559197 0.352794
vt 0.059516 0.708567
vt 0.675992 0.663715
vt 0.537267 0.705497
vt 0.392429 0.707646
vt 0.432810 0.707589
vt 0.469191 0.663186
vt 0.465380 0.659346
vt 0.385131 0.597351
vt 0.490867 0.705497
vt 0.392429 0.707646
vt 0.432810 0.707589
vt 0.469191 0.663186
vt 0.465380 0.659346
vt 0.385131 0.597351
vt 0.490867 0.705497
vt 0.392429 0.707646
vt 0.432810 0.707589
vt 0.469191 0.663186
vt 0.465380 0.659346
vt 0.385131 0.597351
vt 0.490867 0.705497
vt 0.392429 0.707646
vt 0.432810 0.663186
vt 0.465380 0.709734
vt 0.504982 0.659346
vt 0.385131 0.597351
vt 0.490867 0.707646
vt 0.432810 0.705497
vt 0.392429 0.707589
vt 0.469191 0.663186
vt 0.465380 0.659346
vt 0.385131 0.597351
vt 0.490867 0.707646
vt 0.432810 0.705497
vt 0.392429 0.707589
vt 0.469191 0.663186
vt 0.465380 0.659346
vt 0.385131 0.597351
vt 0.490867 0.707646
vt 0.432810 0.705497
vt 0.392429 0.707589
vt 0.469191 0.663186
vt 0.465380 0.659346
vt 0.385131 0.597351
vt 0.490867 0.707646
vt 0.432810 0.705497
vt 0.392429 0.663186
vt 0.465380 0.709734
vt 0.504982 0.659346
vt 0.385131 0.597351
vt 0.490867 0.746009
vt 0.840921 0.564595
vt 0.460568 0.634613
vt 0.304425 0.158413
vt 0.122745 0.769069
vt 0.812472 0.796803
vt 0.764052 0.837496
vt 0.799401 0.450893
vt 0.779107 0.446646
vt 0.643787 0.484217
vt 0.861905 0.754338
vt 0.948505 0.846433
vt 0.835582 0.854289
vt 0.762620 0.382234
vt 0.258264 0.500117
vt 0.440682 0.475956
vt 0.359222 0.511501
vt 0.303471 0.438407
vt 0.610886 0.470361
vt 0.535996 0.437901
vt 0.681143 0.380453
vt 0.645966 0.130891
vt 0.125593 0.075696
vt 0.114002 0.495551
vt 0.620595 0.967501
vt 0.969387 0.429991
vt 0.979202 0.070224
vt 0.303374 0.962898
vt 0.632338 0.810388
vt 0.960766 0.974742
vt 0.879257 0.934763
vt 0.934567 0.960363
vt 0.559197 0.991677
vt 0.476632 0.973152
vt 0.419687 0.385861
vt 0.091195 0.381740
vt 0.200840 0.254037
vt 0.624151 0.221978
vt 0.769608 0.226719
vt 0.337946 0.564595
vt 0.460568 0.634613
vt 0.304425 0.158413
vt 0.122745 0.769069
vt 0.812472 0.837496
vt 0.799401 0.796803
vt 0.764052 0.974234
vt 0.733694 0.062053
vt 0.779107 0.066300
vt 0.643787 0.177234
vt 0.878015 0.012148
vt 0.851812 0.028601
vt 0.120739 0.815130
vt 0.889275 0.846433
vt 0.835582 0.854289
vt 0.762620 0.754338
vt 0.948505 0.812602
vt 0.960766 0.750971
vt 0.968674 0.500117
vt 0.440682 0.475956
vt 0.359222 0.511501
vt 0.303471 0.247087
vt 0.526195 0.237956
vt 0.424787 0.244511
vt 0.499564 0.027190
vt 0.437877 0.101126
vt 0.339507 0.074539
vt 0.610886 0.042585
vt 0.535996 0.075045
vt 0.681143 0.132493
vt 0.645966 0.130891
vt 0.125593 0.075696
vt 0.114002 0.011280
vt 0.450223 0.017395
vt 0.620595 0.936977
vt 0.934567 0.967501
vt 0.969387 0.065622
vt 0.981448 0.070224
vt 0.303374 0.008451
vt 0.211189 0.962898
vt 0.632338 0.810388
vt 0.960766 0.934763
vt 0.934567 0.974742
vt 0.879257 0.617634
vt 0.954326 0.585093
vt 0.924710 0.552407
vt 0.971964 1.000000
vt 0.434200 0.389000
vt 0.461500 0.747100
vt 0.165500 0.838000
vt 0.417700 0.762600
vt 0.216500 0.565283
vt 0.159578 0.798500
vt 0.514000 0.784000
vt 0.434000 0.761300
vt 0.493700 0.451700
vt 0.166200 0.452400
vt 0.212200 0.545100
vt 0.222000 0.558743
vt 0.400303 0.555470
vt 0.338143 0.465800
vt 0.400500 0.523163
vt 0.448973 0.531600
vt 0.288000 0.456900
vt 0.296300 0.556356
vt 0.541460 0.604688
vt 0.525766 0.586738
vt 0.454633 0.623500
vt 0.222900 0.630000
vt 0.291600 0.720600
vt 0.387400 0.713200
vt 0.328300 0.436700
vt 0.499800 0.466800
vt 0.457500 0.658556
vt 0.377703 0.634600
vt 0.336500 0.689400
vt 0.221200 0.610306
vt 0.159954 0.680400
vt 0.166900 0.228500
vt 0.241100 0.271800
vt 0.296500 0.201900
vt 0.285500 0.291200
vt 0.247500 0.180800
vt 0.374400 0.212700
vt 0.397000 0.189000
vt 0.401700 0.206300
vt 0.361400 0.306100
vt 0.209900 0.204200
vt 0.203300 0.072300
vt 0.247100 0.114600
vt 0.318800 0.050600
vt 0.306600 0.299700
vt 0.485300 0.314200
vt 0.452400 0.335600
vt 0.474000 0.282600
vt 0.458600 0.170000
vt 0.211300 0.156400
vt 0.289000 0.138400
vt 0.219200 0.201900
vt 0.320300 0.262600
vt 0.323800 0.167800
vt 0.327400 0.133400
vt 0.370100 0.266700
vt 0.420300 0.328200
vt 0.366500 0.322600
vt 0.413500 0.311700
vt 0.277500 0.594062
vt 0.826956 0.623228
vt 0.699064 0.605529
vt 0.645596 0.622724
vt 0.547634 0.607809
vt 0.910086 0.721459
vt 0.699198 0.720130
vt 0.578289 0.721615
vt 0.657123 0.726210
vt 0.897244 0.721187
vt 0.735923 0.709106
vt 0.808421 0.795831
vt 0.681294 0.807300
vt 0.575500 0.813600
vt 0.647000 0.798500
vt 0.896400 0.801307
vt 0.794365 0.874800
vt 0.645000 0.860900
vt 0.563400 0.906200
vt 0.803400 0.921100
vt 0.890300 0.869050
vt 0.672500 0.917200
vt 0.737900 0.930000
vt 0.694800 0.949800
vt 0.651800 0.935000
vt 0.921600 0.855200
vt 0.892000 0.861900
vt 0.736400 0.816304
vt 0.733571 0.622577
vt 0.826386 0.631629
vt 0.735471 0.670171
vt 0.694476 0.663918
vt 0.645559 0.672190
vt 0.578539 0.658433
vt 0.911066 0.674315
vt 0.737400 0.671755
vt 0.813066 0.688585
vt 0.895910 0.589451
vt 0.693033 0.604961
vt 0.733983 0.557700
vt 0.023500 0.596800
vt 0.122200 0.568600
vt 0.105000 0.505100
vt 0.002100 0.563800
vt 0.123600 0.484600
vt 0.034500 0.911700
vt 0.289700 0.837996
vt 0.299038 0.911700
vt 0.536100 0.878900
vt 0.525300 0.914942
vt 0.506622 0.943900
vt 0.524200 0.911700
vt 0.289700 0.914942
vt 0.506622 0.985992
vt 0.313121 0.557700
vt 0.023500 0.505100
vt 0.002100 0.568600
vt 0.105000 0.596800
vt 0.122200 0.484600
vt 0.034500 0.563800
vt 0.123600 0.838900
vt 0.474800 0.389000
vt 0.218800 0.389000
vt 0.170600 0.389000
vt 0.306000 0.794300
vt 0.327000 0.389000
vt 0.396400 0.565283
vt 0.159578 0.798500
vt 0.514000 0.784000
vt 0.434000 0.761300
vt 0.493700 0.451700
vt 0.166200 0.452400
vt 0.212200 0.545100
vt 0.222000 0.558743
vt 0.400303 0.555470
vt 0.338143 0.465800
vt 0.400500 0.523163
vt 0.448973 0.531600
vt 0.288000 0.456900
vt 0.296300 0.556356
vt 0.541460 0.604688
vt 0.525766 0.586738
vt 0.454633 0.623500
vt 0.222900 0.630000
vt 0.291600 0.720600
vt 0.387400 0.713200
vt 0.328300 0.436700
vt 0.499800 0.466800
vt 0.457500 0.658556
vt 0.377703 0.634600
vt 0.336500 0.689400
vt 0.221200 0.610306
vt 0.159954 0.680400
vt 0.166900 0.228500
vt 0.241100 0.271800
vt 0.296500 0.201900
vt 0.285500 0.291200
vt 0.247500 0.180800
vt 0.374400 0.212700
vt 0.397000 0.189000
vt 0.401700 0.206300
vt 0.361400 0.306100
vt 0.209900 0.204200
vt 0.203300 0.072300
vt 0.247100 0.114600
vt 0.318800 0.050600
vt 0.306600 0.299700
vt 0.485300 0.314200
vt 0.452400 0.335600
vt 0.474000 0.282600
vt 0.458600 0.170000
vt 0.211300 0.156400
vt 0.289000 0.138400
vt 0.219200 0.201900
vt 0.320300 0.262600
vt 0.323800 0.167800
vt 0.327400 0.133400
vt 0.370100 0.266700
vt 0.420300 0.328200
vt 0.366500 0.322600
vt 0.413500 0.311700
vt 0.277500 0.594062
vt 0.826956 0.623228
vt 0.699064 0.605529
vt 0.645596 0.622724
vt 0.547634 0.607809
vt 0.910086 0.721459
vt 0.699198 0.720130
vt 0.578289 0.721615
vt 0.657123 0.726210
vt 0.897244 0.721187
vt 0.735923 0.709106
vt 0.808421 0.795831
vt 0.681294 0.807300
vt 0.575500 0.813600
vt 0.647000 0.798500
vt 0.896400 0.801307
vt 0.794365 0.874800
vt 0.645000 0.860900
vt 0.563400 0.906200
vt 0.803400 0.921100
vt 0.890300 0.869050
vt 0.672500 0.917200
vt 0.737900 0.930000
vt 0.694800 0.949800
vt 0.651800 0.935000
vt 0.921600 0.855200
vt 0.892000 0.861900
vt 0.736400 0.816304
vt 0.733571 0.622577
vt 0.826386 0.631629
vt 0.735471 0.670171
vt 0.694476 0.663918
vt 0.645559 0.672190
vt 0.578539 0.658433
vt 0.911066 0.674315
vt 0.737400 0.671755
vt 0.813066 0.688585
vt 0.895910 0.589451
vt 0.693033 0.604961
vt 0.733983 0.557700
vt 0.023500 0.596800
vt 0.122200 0.568600
vt 0.105000 0.505100
vt 0.002100 0.563800
vt 0.123600 0.484600
vt 0.034500 0.911700
vt 0.289700 0.837996
vt 0.299038 0.911700
vt 0.536100 0.878900
vt 0.525300 0.914942
vt 0.506622 0.943900
vt 0.524200 0.911700
vt 0.289700 0.914942
vt 0.506622 0.985992
vt 0.313121 0.557700
vt 0.023500 0.505100
vt 0.002100 0.568600
vt 0.105000 0.596800
vt 0.122200 0.484600
vt 0.034500 0.563800
vt 0.123600 0.412400
vt 0.546800 0.508300
vt 0.553900 0.634981
vt 0.463623 0.714430
vt 0.468900 0.077400
vt 0.329000 0.089600
vt 0.374600 0.257000
vt 0.369600 0.129200
vt 0.394800 0.108600
vt 0.408700 0.264800
vt 0.372100 0.344300
vt 0.244500 0.348500
vt 0.302200 0.382100
vt 0.267400 0.324600
vt 0.330000 0.062000
vt 0.381900 0.542391
vt 0.740977 0.545960
vt 0.824617 0.578659
vt 0.645054 0.550224
vt 0.694216 0.610100
vt 0.542200 0.552273
vt 0.897080 0.611937
vt 0.969046 0.666554
vt 0.970268 0.565500
vt 0.958900 0.981700
vt 0.890100 0.720233
vt 0.956036 0.821800
vt 0.962700 0.966200
vt 0.744300 0.971300
vt 0.707200 0.984200
vt 0.658000 0.975100
vt 0.570700 0.879700
vt 0.949500 0.926800
vt 0.563900 0.975400
vt 0.818600 0.979400
vt 0.939400 0.376100
vt 0.355000 0.361000
vt 0.411100 0.471600
vt 0.066300 0.558600
vt 0.142300 0.819100
vt -0.636100 1.007300
vt -0.310000 1.195600
vt -0.636100 0.471600
vt 0.066300 0.558600
vt 0.142300 0.819100
vt -0.636100 1.195600
vt -0.636100 1.007300
vt -0.310000 0.838900
vt 0.474800 0.389000
vt 0.218800 0.389000
vt 0.170600 0.389000
vt 0.306000 0.794300
vt 0.327000 0.412400
vt 0.546800 0.508300
vt 0.553900 0.714430
vt 0.468900 0.634981
vt 0.463623 0.838000
vt 0.417700 0.389000
vt 0.434200 0.389000
vt 0.396400 0.762600
vt 0.216500 0.747100
vt 0.165500 0.389000
vt 0.461500 0.077400
vt 0.329000 0.089600
vt 0.374600 0.257000
vt 0.369600 0.129200
vt 0.394800 0.108600
vt 0.408700 0.264800
vt 0.372100 0.344300
vt 0.244500 0.348500
vt 0.302200 0.382100
vt 0.267400 0.324600
vt 0.330000 0.062000
vt 0.381900 0.542391
vt 0.740977 0.545960
vt 0.824617 0.578659
vt 0.645054 0.550224
vt 0.694216 0.610100
vt 0.542200 0.552273
vt 0.897080 0.611937
vt 0.969046 0.666554
vt 0.970268 0.565500
vt 0.958900 0.981700
vt 0.890100 0.720233
vt 0.956036 0.821800
vt 0.962700 0.966200
vt 0.744300 0.971300
vt 0.707200 0.975100
vt 0.570700 0.984200
vt 0.658000 0.879700
vt 0.949500 0.926800
vt 0.563900 0.975400
vt 0.818600 0.979400
vt 0.939400 0.376100
vt 0.355000 0.361000
vt 0.411100 0.558600
vt 0.142300 0.471600
vt 0.066300 1.007300
vt -0.310000 0.819100
vt -0.636100 1.195600
vt -0.636100 0.558600
vt 0.142300 0.471600
vt 0.066300 1.195600
vt -0.636100 0.819100
vt -0.636100 1.007300
vt -0.310000 1.000000

f 4/4 5/5 6/6
f 179/179 180/180 8/8
f 8/8 7/7 179/179
f 9/9 37/37 10/10
f 5/5 12/12 13/13
f 13/13 6/6 5/5
f 14/14 15/15 16/16
f 16/16 17/17 14/14
f 17/17 16/16 18/18
f 18/18 11/11 17/17
f 19/19 20/20 21/21
f 16/16 15/15 73/73
f 73/73 22/22 16/16
f 74/74 18/18 16/16
f 16/16 22/22 74/74
f 23/23 21/21 24/24
f 75/75 25/25 23/23
f 7/7 8/8 1/1
f 1/1 77/77 7/7
f 8/8 80/80 1/1
f 12/12 5/5 26/26
f 10/10 27/27 28/28
f 78/78 28/28 27/27
f 27/27 2/2 78/78
f 30/30 31/31 4/4
f 4/4 29/29 30/30
f 4/4 40/40 5/5
f 26/26 5/5 39/39
f 40/40 39/39 5/5
f 21/21 20/20 33/33
f 18/18 74/74 75/75
f 33/33 24/24 21/21
f 181/181 8/8 180/180
f 182/182 13/13 12/12
f 12/12 183/183 182/182
f 183/183 12/12 184/184
f 25/25 185/185 186/186
f 10/10 37/37 34/34
f 34/34 27/27 10/10
f 76/76 30/30 34/34
f 35/35 30/30 36/36
f 35/35 34/34 30/30
f 36/36 3/3 79/79
f 34/34 35/35 27/27
f 36/36 30/30 29/29
f 80/80 181/181 187/187
f 8/8 181/181 80/80
f 2/2 27/27 35/35
f 79/79 2/2 35/35
f 79/79 35/35 36/36
f 21/21 188/188 19/19
f 21/21 23/23 188/188
f 186/186 188/188 23/23
f 23/23 25/25 186/186
f 18/18 24/24 33/33
f 33/33 11/11 18/18
f 33/33 20/20 41/41
f 41/41 38/38 11/11
f 23/23 24/24 75/75
f 24/24 18/18 75/75
f 189/189 19/19 188/188
f 189/189 190/190 19/19
f 190/190 20/20 19/19
f 190/190 191/191 20/20
f 191/191 192/192 41/41
f 193/193 17/17 11/11
f 193/193 194/194 17/17
f 194/194 14/14 17/17
f 38/38 193/193 11/11
f 37/37 76/76 34/34
f 32/32 76/76 37/37
f 38/38 195/195 193/193
f 41/41 20/20 191/191
f 195/195 38/38 41/41
f 192/192 195/195 41/41
f 31/31 32/32 40/40
f 39/39 40/40 32/32
f 4/4 31/31 40/40
f 41/41 11/11 33/33
f 42/42 43/43 44/44
f 44/44 45/45 42/42
f 46/46 47/47 42/42
f 42/42 45/45 46/46
f 196/196 197/197 198/198
f 198/198 48/48 49/49
f 48/48 198/198 199/199
f 199/199 50/50 48/48
f 51/51 49/49 48/48
f 52/52 53/53 54/54
f 52/52 55/55 53/53
f 200/200 201/201 56/56
f 56/56 57/57 200/200
f 56/56 58/58 59/59
f 59/59 57/57 56/56
f 50/50 202/202 60/60
f 60/60 61/61 50/50
f 199/199 203/203 202/202
f 202/202 50/50 199/199
f 50/50 61/61 56/56
f 204/204 205/205 206/206
f 206/206 207/207 204/204
f 206/206 205/205 47/47
f 47/47 208/208 206/206
f 46/46 209/209 210/210
f 47/47 46/46 210/210
f 47/47 210/210 208/208
f 62/62 71/71 211/211
f 212/212 63/63 64/64
f 213/213 214/214 215/215
f 216/216 65/65 212/212
f 217/217 214/214 72/72
f 218/218 219/219 66/66
f 66/66 67/67 218/218
f 66/66 219/219 220/220
f 220/220 68/68 66/66
f 68/68 220/220 221/221
f 221/221 69/69 68/68
f 69/69 221/221 222/222
f 222/222 70/70 69/69
f 222/222 223/223 224/224
f 224/224 70/70 222/222
f 213/213 67/67 72/72
f 66/66 72/72 67/67
f 62/62 70/70 71/71
f 224/224 71/71 70/70
f 217/217 72/72 65/65
f 72/72 214/214 213/213
f 62/62 64/64 63/63
f 212/212 65/65 63/63
f 211/211 71/71 225/225
f 65/65 216/216 217/217
f 55/55 51/51 226/226
f 53/53 55/55 226/226
f 64/64 62/62 211/211
f 196/196 51/51 55/55
f 68/68 65/65 66/66
f 72/72 66/66 65/65
f 63/63 65/65 69/69
f 68/68 69/69 65/65
f 62/62 63/63 70/70
f 69/69 70/70 63/63
f 198/198 49/49 196/196
f 49/49 51/51 196/196
f 56/56 61/61 58/58
f 76/76 31/31 30/30
f 32/32 31/31 76/76
f 80/80 187/187 227/227
f 82/82 81/81 83/83
f 228/228 229/229 85/85
f 84/84 85/85 229/229
f 114/114 86/86 87/87
f 89/89 82/82 90/90
f 83/83 90/90 82/82
f 92/92 91/91 93/93
f 94/94 93/93 91/91
f 93/93 94/94 95/95
f 88/88 95/95 94/94
f 97/97 96/96 98/98
f 92/92 93/93 150/150
f 99/99 150/150 93/93
f 95/95 151/151 93/93
f 99/99 93/93 151/151
f 98/98 100/100 101/101
f 102/102 152/152 100/100
f 85/85 84/84 230/230
f 231/231 230/230 84/84
f 232/232 85/85 230/230
f 82/82 89/89 103/103
f 104/104 87/87 105/105
f 105/105 233/233 104/104
f 234/234 104/104 233/233
f 108/108 107/107 81/81
f 106/106 81/81 107/107
f 117/117 81/81 82/82
f 117/117 82/82 116/116
f 103/103 116/116 82/82
f 97/97 98/98 110/110
f 151/151 95/95 152/152
f 101/101 110/110 98/98
f 85/85 235/235 228/228
f 90/90 236/236 89/89
f 237/237 89/89 236/236
f 89/89 237/237 238/238
f 239/239 102/102 240/240
f 114/114 87/87 111/111
f 104/104 111/111 87/87
f 107/107 153/153 111/111
f 107/107 112/112 113/113
f 111/111 112/112 107/107
f 241/241 113/113 242/242
f 112/112 111/111 104/104
f 107/107 113/113 106/106
f 235/235 232/232 243/243
f 235/235 85/85 232/232
f 104/104 234/234 112/112
f 234/234 242/242 112/112
f 112/112 242/242 113/113
f 244/244 98/98 96/96
f 240/240 100/100 244/244
f 98/98 244/244 100/100
f 102/102 100/100 240/240
f 101/101 95/95 110/110
f 88/88 110/110 95/95
f 97/97 110/110 118/118
f 115/115 118/118 88/88
f 101/101 100/100 152/152
f 95/95 101/101 152/152
f 96/96 245/245 244/244
f 246/246 245/245 96/96
f 97/97 246/246 96/96
f 247/247 246/246 97/97
f 248/248 247/247 118/118
f 94/94 249/249 88/88
f 250/250 249/249 94/94
f 91/91 250/250 94/94
f 249/249 115/115 88/88
f 153/153 114/114 111/111
f 153/153 109/109 114/114
f 251/251 115/115 249/249
f 97/97 118/118 247/247
f 115/115 251/251 118/118
f 251/251 248/248 118/118
f 116/116 109/109 117/117
f 108/108 117/117 109/109
f 108/108 81/81 117/117
f 88/88 118/118 110/110
f 120/120 119/119 121/121
f 122/122 121/121 119/119
f 124/124 123/123 119/119
f 122/122 119/119 123/123
f 252/252 253/253 254/254
f 125/125 254/254 126/126
f 254/254 125/125 255/255
f 127/127 255/255 125/125
f 126/126 128/128 125/125
f 130/130 129/129 131/131
f 132/132 129/129 130/130
f 256/256 257/257 133/133
f 134/134 133/133 257/257
f 135/135 133/133 136/136
f 134/134 136/136 133/133
f 258/258 127/127 137/137
f 138/138 137/137 127/127
f 259/259 255/255 258/258
f 127/127 258/258 255/255
f 138/138 127/127 133/133
f 260/260 261/261 262/262
f 263/263 262/262 261/261
f 260/260 262/262 124/124
f 264/264 124/124 262/262
f 265/265 123/123 266/266
f 123/123 124/124 266/266
f 266/266 124/124 264/264
f 148/148 139/139 267/267
f 140/140 268/268 141/141
f 269/269 270/270 271/271
f 142/142 272/272 268/268
f 269/269 273/273 149/149
f 274/274 275/275 143/143
f 144/144 143/143 275/275
f 274/274 143/143 276/276
f 145/145 276/276 143/143
f 276/276 145/145 277/277
f 146/146 277/277 145/145
f 277/277 146/146 278/278
f 147/147 278/278 146/146
f 279/279 278/278 280/280
f 147/147 280/280 278/278
f 143/143 144/144 149/149
f 270/270 149/149 144/144
f 280/280 147/147 148/148
f 139/139 148/148 147/147
f 149/149 273/273 142/142
f 269/269 149/149 270/270
f 141/141 139/139 140/140
f 142/142 268/268 140/140
f 148/148 267/267 281/281
f 272/272 142/142 273/273
f 128/128 132/132 282/282
f 132/132 130/130 282/282
f 139/139 141/141 267/267
f 128/128 253/253 132/132
f 149/149 142/142 143/143
f 145/145 143/143 142/142
f 145/145 142/142 146/146
f 140/140 146/146 142/142
f 146/146 140/140 147/147
f 139/139 147/147 140/140
f 126/126 254/254 253/253
f 128/128 126/126 253/253
f 138/138 133/133 135/135
f 108/108 153/153 107/107
f 108/108 109/109 153/153
f 243/243 232/232 283/283
f 158/158 155/155 156/156
f 156/156 157/157 158/158
f 171/171 159/159 284/284
f 284/284 285/285 171/171
f 157/157 156/156 159/159
f 159/159 171/171 157/157
f 155/155 160/160 161/161
f 161/161 156/156 155/155
f 159/159 162/162 286/286
f 286/286 284/284 159/159
f 156/156 161/161 162/162
f 162/162 159/159 156/156
f 160/160 163/163 164/164
f 164/164 161/161 160/160
f 162/162 165/165 287/287
f 287/287 286/286 162/162
f 161/161 164/164 165/165
f 165/165 162/162 161/161
f 167/167 170/170 154/154
f 154/154 166/166 167/167
f 169/169 168/168 288/288
f 288/288 289/289 169/169
f 166/166 154/154 168/168
f 168/168 169/169 166/166
f 164/164 163/163 167/167
f 167/167 166/166 164/164
f 287/287 165/165 169/169
f 169/169 289/289 287/287
f 165/165 164/164 166/166
f 166/166 169/169 165/165
f 172/172 290/290 291/291
f 291/291 174/174 172/172
f 292/292 293/293 294/294
f 294/294 173/173 292/292
f 295/295 296/296 290/290
f 290/290 172/172 295/295
f 175/175 172/172 174/174
f 174/174 177/177 175/175
f 297/297 292/292 173/173
f 173/173 176/176 297/297
f 298/298 295/295 172/172
f 172/172 175/175 298/298
f 178/178 175/175 177/177
f 299/299 297/297 176/176
f 178/178 298/298 175/175
f 300/300 301/301 302/302
f 303/303 304/304 300/300
f 305/305 346/346 304/304
f 304/304 303/303 305/305
f 306/306 301/301 307/307
f 306/306 302/302 301/301
f 302/302 306/306 308/308
f 311/311 309/309 310/310
f 308/308 313/313 327/327
f 313/313 308/308 312/312
f 311/311 310/310 314/314
f 315/315 313/313 312/312
f 306/306 316/316 308/308
f 317/317 309/309 305/305
f 309/309 317/317 310/310
f 308/308 317/317 303/303
f 303/303 302/302 308/308
f 303/303 317/317 305/305
f 300/300 302/302 303/303
f 316/316 312/312 308/308
f 317/317 327/327 310/310
f 308/308 327/327 317/317
f 307/307 320/320 306/306
f 346/346 322/322 304/304
f 318/318 314/314 310/310
f 319/319 315/315 312/312
f 321/321 320/320 307/307
f 325/325 323/323 324/324
f 326/326 327/327 313/313
f 310/310 328/328 318/318
f 328/328 310/310 327/327
f 329/329 323/323 325/325
f 323/323 329/329 300/300
f 329/329 301/301 300/300
f 331/331 601/601 602/602
f 602/602 330/330 331/331
f 348/348 603/603 343/343
f 603/603 348/348 604/604
f 605/605 601/601 331/331
f 331/331 330/330 332/332
f 604/604 348/348 606/606
f 605/605 331/331 332/332
f 334/334 607/607 608/608
f 608/608 333/333 334/334
f 349/349 609/609 344/344
f 609/609 349/349 610/610
f 611/611 607/607 334/334
f 334/334 333/333 335/335
f 610/610 349/349 612/612
f 611/611 334/334 335/335
f 337/337 613/613 614/614
f 614/614 336/336 337/337
f 338/338 615/615 345/345
f 615/615 338/338 616/616
f 617/617 613/613 337/337
f 337/337 336/336 339/339
f 616/616 338/338 618/618
f 617/617 337/337 339/339
f 340/340 619/619 620/620
f 620/620 350/350 340/340
f 621/621 347/347 622/622
f 622/622 341/341 621/621
f 623/623 619/619 340/340
f 340/340 350/350 342/342
f 621/621 341/341 624/624
f 623/623 340/340 342/342
f 351/351 353/353 352/352
f 354/354 351/351 355/355
f 356/356 355/355 397/397
f 355/355 356/356 354/354
f 357/357 358/358 352/352
f 357/357 352/352 353/353
f 353/353 359/359 357/357
f 362/362 361/361 360/360
f 359/359 378/378 364/364
f 364/364 363/363 359/359
f 362/362 365/365 361/361
f 366/366 363/363 364/364
f 357/357 359/359 367/367
f 368/368 356/356 360/360
f 360/360 361/361 368/368
f 359/359 354/354 368/368
f 354/354 359/359 353/353
f 354/354 356/356 368/368
f 351/351 354/354 353/353
f 367/367 359/359 363/363
f 368/368 361/361 378/378
f 359/359 368/368 378/378
f 358/358 357/357 371/371
f 397/397 355/355 373/373
f 369/369 361/361 365/365
f 370/370 363/363 366/366
f 372/372 358/358 371/371
f 376/376 375/375 374/374
f 377/377 364/364 378/378
f 361/361 369/369 379/379
f 379/379 378/378 361/361
f 380/380 376/376 374/374
f 374/374 351/351 380/380
f 380/380 351/351 352/352
f 382/382 625/625 626/626
f 625/625 382/382 381/381
f 399/399 394/394 627/627
f 627/627 628/628 399/399
f 629/629 382/382 626/626
f 382/382 383/383 381/381
f 628/628 630/630 399/399
f 629/629 383/383 382/382
f 385/385 631/631 632/632
f 631/631 385/385 384/384
f 400/400 395/395 633/633
f 633/633 634/634 400/400
f 635/635 385/385 632/632
f 385/385 386/386 384/384
f 634/634 636/636 400/400
f 635/635 386/386 385/385
f 388/388 637/637 638/638
f 637/637 388/388 387/387
f 389/389 396/396 639/639
f 639/639 640/640 389/389
f 641/641 388/388 638/638
f 388/388 390/390 387/387
f 640/640 642/642 389/389
f 641/641 390/390 388/388
f 391/391 643/643 644/644
f 643/643 391/391 401/401
f 645/645 646/646 398/398
f 646/646 645/645 392/392
f 647/647 391/391 644/644
f 391/391 393/393 401/401
f 645/645 648/648 392/392
f 647/647 393/393 391/391
f 421/421 409/409 405/405
f 426/426 407/407 425/425
f 412/412 404/404 501/501
f 501/501 598/598 412/412
f 425/425 407/407 434/434
f 473/473 437/437 438/438
f 438/438 420/420 473/473
f 413/413 436/436 408/408
f 417/417 418/418 412/412
f 412/412 598/598 417/417
f 538/538 422/422 432/432
f 436/436 413/413 432/432
f 410/410 649/649 415/415
f 650/650 651/651 416/416
f 406/406 426/426 427/427
f 409/409 444/444 405/405
f 417/417 407/407 406/406
f 406/406 418/418 417/417
f 408/408 411/411 419/419
f 420/420 419/419 411/411
f 420/420 411/411 473/473
f 435/435 417/417 598/598
f 407/407 417/417 435/435
f 652/652 425/425 434/434
f 425/425 652/652 403/403
f 403/403 426/426 425/425
f 653/653 654/654 655/655
f 431/431 402/402 430/430
f 656/656 428/428 473/473
f 473/473 657/657 656/656
f 440/440 437/437 473/473
f 473/473 429/429 440/440
f 656/656 658/658 428/428
f 428/428 429/429 473/473
f 429/429 428/428 658/658
f 659/659 410/410 415/415
f 415/415 660/660 442/442
f 442/442 660/660 655/655
f 655/655 430/430 442/442
f 430/430 655/655 661/661
f 404/404 412/412 662/662
f 415/415 446/446 659/659
f 659/659 446/446 441/441
f 416/416 663/663 650/650
f 664/664 416/416 665/665
f 442/442 430/430 402/402
f 433/433 413/413 419/419
f 419/419 413/413 408/408
f 413/413 439/439 537/537
f 537/537 432/432 413/413
f 423/423 422/422 414/414
f 414/414 409/409 423/423
f 409/409 535/535 536/536
f 535/535 409/409 414/414
f 432/432 537/537 538/538
f 422/422 538/538 535/535
f 666/666 408/408 424/424
f 424/424 421/421 667/667
f 668/668 669/669 411/411
f 668/668 411/411 408/408
f 408/408 666/666 668/668
f 670/670 671/671 445/445
f 445/445 403/403 670/670
f 422/422 423/423 432/432
f 436/436 432/432 423/423
f 423/423 409/409 421/421
f 424/424 436/436 423/423
f 436/436 424/424 408/408
f 409/409 536/536 443/443
f 443/443 444/444 409/409
f 424/424 423/423 421/421
f 667/667 672/672 424/424
f 424/424 672/672 666/666
f 665/665 416/416 651/651
f 433/433 419/419 420/420
f 426/426 406/406 407/407
f 447/447 442/442 673/673
f 433/433 420/420 438/438
f 433/433 439/439 413/413
f 414/414 422/422 535/535
f 440/440 429/429 674/674
f 446/446 415/415 442/442
f 675/675 403/403 445/445
f 445/445 540/540 675/675
f 402/402 431/431 676/676
f 661/661 431/431 430/430
f 677/677 678/678 679/679
f 597/597 450/450 449/449
f 450/450 597/597 474/474
f 474/474 448/448 450/450
f 448/448 474/474 475/475
f 449/449 453/453 452/452
f 453/453 449/449 450/450
f 450/450 451/451 453/453
f 451/451 450/450 448/448
f 452/452 456/456 455/455
f 456/456 452/452 453/453
f 453/453 454/454 456/456
f 454/454 453/453 451/451
f 455/455 459/459 458/458
f 459/459 455/455 456/456
f 456/456 457/457 459/459
f 457/457 456/456 454/454
f 458/458 461/461 460/460
f 461/461 458/458 459/459
f 459/459 462/462 461/461
f 462/462 459/459 457/457
f 463/463 468/468 467/467
f 468/468 463/463 464/464
f 464/464 466/466 468/468
f 466/466 464/464 465/465
f 471/471 468/468 472/472
f 468/468 471/471 467/467
f 470/470 468/468 466/466
f 468/468 470/470 472/472
f 472/472 469/469 471/471
f 470/470 469/469 472/472
f 680/680 478/478 681/681
f 478/478 680/680 477/477
f 681/681 476/476 682/682
f 476/476 681/681 478/478
f 477/477 481/481 478/478
f 481/481 477/477 480/480
f 478/478 479/479 476/476
f 479/479 478/478 481/481
f 480/480 484/484 481/481
f 484/484 480/480 483/483
f 481/481 482/482 479/479
f 482/482 481/481 484/484
f 483/483 487/487 484/484
f 487/487 483/483 486/486
f 484/484 485/485 482/482
f 485/485 484/484 487/487
f 486/486 489/489 487/487
f 489/489 486/486 488/488
f 487/487 490/490 485/485
f 490/490 487/487 489/489
f 491/491 496/496 492/492
f 496/496 491/491 495/495
f 492/492 494/494 493/493
f 494/494 492/492 496/496
f 499/499 496/496 495/495
f 496/496 499/499 500/500
f 498/498 496/496 500/500
f 496/496 498/498 494/494
f 500/500 499/499 497/497
f 498/498 500/500 497/497
f 520/520 504/504 508/508
f 525/525 524/524 506/506
f 511/511 545/545 503/503
f 683/683 684/684 544/544
f 524/524 532/532 506/506
f 543/543 685/685 686/686
f 685/685 543/543 519/519
f 512/512 507/507 534/534
f 516/516 684/684 517/517
f 684/684 516/516 544/544
f 687/687 531/531 521/521
f 534/534 531/531 512/512
f 509/509 514/514 503/503
f 688/688 515/515 689/689
f 505/505 526/526 525/525
f 508/508 504/504 541/541
f 516/516 505/505 506/506
f 505/505 516/516 517/517
f 507/507 518/518 510/510
f 519/519 510/510 518/518
f 519/519 543/543 510/510
f 533/533 544/544 516/516
f 506/506 533/533 516/516
f 690/690 532/532 524/524
f 524/524 502/502 690/690
f 502/502 524/524 525/525
f 691/691 692/692 693/693
f 530/530 529/529 694/694
f 695/695 543/543 527/527
f 543/543 695/695 696/696
f 697/697 543/543 686/686
f 543/543 697/697 528/528
f 695/695 527/527 698/698
f 527/527 543/543 528/528
f 528/528 698/698 527/527
f 699/699 514/514 509/509
f 700/700 539/539 701/701
f 539/539 692/692 701/701
f 692/692 539/539 529/529
f 529/529 702/702 692/692
f 503/503 514/514 511/511
f 700/700 703/703 704/704
f 703/703 705/705 704/704
f 515/515 688/688 706/706
f 707/707 708/708 515/515
f 539/539 694/694 529/529
f 709/709 518/518 512/512
f 518/518 507/507 512/512
f 512/512 710/710 711/711
f 710/710 512/512 531/531
f 522/522 513/513 521/521
f 513/513 522/522 508/508
f 508/508 712/712 713/713
f 713/713 513/513 508/508
f 531/531 687/687 710/710
f 521/521 713/713 687/687
f 714/714 523/523 507/507
f 523/523 715/715 520/520
f 716/716 510/510 717/717
f 716/716 507/507 510/510
f 507/507 716/716 714/714
f 718/718 542/542 719/719
f 542/542 718/718 502/502
f 521/521 531/531 522/522
f 534/534 522/522 531/531
f 522/522 520/520 508/508
f 523/523 522/522 534/534
f 534/534 507/507 523/523
f 508/508 720/720 712/712
f 720/720 508/508 541/541
f 523/523 520/520 522/522
f 715/715 523/523 721/721
f 523/523 714/714 721/721
f 708/708 689/689 515/515
f 709/709 519/519 518/518
f 525/525 506/506 505/505
f 722/722 723/723 539/539
f 709/709 685/685 519/519
f 709/709 512/512 711/711
f 513/513 713/713 521/521
f 697/697 724/724 528/528
f 704/704 539/539 700/700
f 725/725 542/542 502/502
f 542/542 725/725 726/726
f 694/694 727/727 530/530
f 702/702 529/529 530/530
f 728/728 729/729 730/730
f 546/546 549/549 572/572
f 549/549 546/546 548/548
f 572/572 547/547 573/573
f 547/547 572/572 549/549
f 548/548 552/552 549/549
f 552/552 548/548 551/551
f 549/549 550/550 547/547
f 550/550 549/549 552/552
f 551/551 555/555 552/552
f 555/555 551/551 554/554
f 552/552 553/553 550/550
f 553/553 552/552 555/555
f 554/554 558/558 555/555
f 558/558 554/554 557/557
f 555/555 556/556 553/553
f 556/556 555/555 558/558
f 557/557 560/560 558/558
f 560/560 557/557 559/559
f 558/558 561/561 556/556
f 561/561 558/558 560/560
f 562/562 567/567 563/563
f 567/567 562/562 566/566
f 563/563 565/565 564/564
f 565/565 563/563 567/567
f 570/570 567/567 566/566
f 567/567 570/570 571/571
f 569/569 567/567 571/571
f 567/567 569/569 565/565
f 571/571 570/570 568/568
f 569/569 571/571 568/568
f 599/599 576/576 575/575
f 576/576 599/599 596/596
f 596/596 574/574 576/576
f 574/574 596/596 600/600
f 575/575 579/579 578/578
f 579/579 575/575 576/576
f 576/576 577/577 579/579
f 577/577 576/576 574/574
f 578/578 582/582 581/581
f 582/582 578/578 579/579
f 579/579 580/580 582/582
f 580/580 579/579 577/577
f 581/581 585/585 584/584
f 585/585 581/581 582/582
f 582/582 583/583 585/585
f 583/583 582/582 580/580
f 584/584 587/587 586/586
f 587/587 584/584 585/585
f 585/585 588/588 587/587
f 588/588 585/585 583/583
f 589/589 594/594 593/593
f 594/594 589/589 590/590
f 590/590 592/592 594/594
f 592/592 590/590 591/591
f 731/731 594/594 595/595
f 594/594 731/731 593/593
f 732/732 594/594 592/592
f 594/594 732/732 595/595
f 595/595 733/733 731/731
f 732/732 733/733 595/595
f 833/833 834/834 836/836
f 835/835 836/836 834/834
f 836/836 835/835 838/838
f 837/837 838/838 835/835
f 838/838 837/837 1012/1012
f 1013/1013 1012/1012 837/837
f 1014/1014 1015/1015 1016/1016
f 834/834 837/837 835/835
f 841/841 842/842 843/843
f 839/839 843/843 840/840
f 842/842 840/840 843/843
f 844/844 843/843 847/847
f 839/839 847/847 843/843
f 841/841 843/843 844/844
f 842/842 846/846 840/840
f 845/845 840/840 846/846
f 841/841 846/846 842/842
f 841/841 844/844 846/846
f 845/845 846/846 847/847
f 844/844 847/847 846/846
f 848/848 849/849 851/851
f 850/850 851/851 849/849
f 849/849 852/852 850/850
f 853/853 850/850 852/852
f 852/852 1017/1017 853/853
f 1018/1018 853/853 1017/1017
f 1019/1019 1020/1020 1021/1021
f 851/851 850/850 853/853
f 956/956 955/955 957/957
f 954/954 957/957 955/955
f 958/958 956/956 959/959
f 957/957 959/959 956/956
f 1070/1070 958/958 1071/1071
f 959/959 1071/1071 958/958
f 1072/1072 1073/1073 1074/1074
f 958/958 955/955 956/956
f 963/963 962/962 964/964
f 963/963 964/964 961/961
f 960/960 961/961 964/964
f 960/960 964/964 968/968
f 965/965 968/968 964/964
f 964/964 962/962 965/965
f 966/966 967/967 961/961
f 963/963 961/961 967/967
f 967/967 962/962 963/963
f 965/965 962/962 967/967
f 965/965 967/967 968/968
f 966/966 968/968 967/967
f 971/971 970/970 972/972
f 969/969 972/972 970/970
f 974/974 973/973 971/971
f 970/970 971/971 973/973
f 1075/1075 1076/1076 974/974
f 973/973 974/974 1076/1076
f 1077/1077 1078/1078 1079/1079
f 971/971 972/972 974/974
f 742/742 740/740 739/739
f 745/745 739/739 746/746
f 749/749 746/746 750/750
f 747/747 750/750 749/749
f 754/754 749/749 855/855
f 856/856 855/855 744/744
f 751/751 744/744 755/755
f 756/756 755/755 746/746
f 749/749 754/754 757/757
f 758/758 757/757 759/759
f 760/760 759/759 750/750
f 751/751 750/750 752/752
f 749/749 976/976 977/977
f 761/761 977/977 757/757
f 761/761 757/757 756/756
f 756/756 758/758 739/739
f 764/764 739/739 858/858
f 741/741 737/737 859/859
f 734/734 748/748 760/760
f 748/748 734/734 742/742
f 978/978 742/742 741/741
f 854/854 737/737 755/755
f 764/764 755/755 738/738
f 763/763 758/758 858/858
f 738/738 758/758 756/756
f 762/762 756/756 748/748
f 760/760 749/749 738/738
f 763/763 738/738 751/751
f 859/859 748/748 857/857
f 859/859 751/751 735/735
f 759/759 760/760 734/734
f 735/735 760/760 976/976
f 749/749 760/760 766/766
f 766/766 769/769 770/770
f 770/770 773/773 766/766
f 766/766 775/775 979/979
f 979/979 778/778 779/779
f 779/779 782/782 768/768
f 768/768 783/783 784/784
f 784/784 785/785 777/777
f 777/777 776/776 786/786
f 786/786 768/768 788/788
f 788/788 784/784 789/789
f 789/789 777/777 980/980
f 980/980 979/979 773/773
f 773/773 786/786 770/770
f 770/770 788/788 982/982
f 982/982 789/789 983/983
f 983/983 980/980 790/790
f 790/790 984/984 793/793
f 793/793 769/769 782/782
f 782/782 790/790 986/986
f 986/986 793/793 988/988
f 988/988 767/767 979/979
f 989/989 778/778 767/767
f 769/769 793/793 794/794
f 794/794 832/832 831/831
f 795/795 796/796 797/797
f 797/797 994/994 794/794
f 794/794 991/991 822/822
f 829/829 823/823 828/828
f 823/823 829/829 826/826
f 825/825 800/800 801/801
f 800/800 825/825 794/794
f 798/798 822/822 827/827
f 822/822 798/798 806/806
f 806/806 800/800 804/804
f 802/802 808/808 809/809
f 803/803 804/804 806/806
f 807/807 811/811 810/810
f 811/811 807/807 809/809
f 804/804 808/808 832/832
f 831/831 993/993 824/824
f 801/801 825/825 824/824
f 799/799 801/801 996/996
f 827/827 798/798 830/830
f 827/827 997/997 798/798
f 798/798 995/995 812/812
f 813/813 999/999 1000/1000
f 1000/1000 1001/1001 805/805
f 801/801 799/799 807/807
f 801/801 805/805 807/807
f 814/814 810/810 1002/1002
f 815/815 812/812 1003/1003
f 816/816 1002/1002 1004/1004
f 1005/1005 817/817 818/818
f 813/813 1006/1006 819/819
f 1006/1006 813/813 1004/1004
f 817/817 816/816 815/815
f 1002/1002 816/816 1003/1003
f 1004/1004 816/816 1007/1007
f 817/817 1005/1005 1008/1008
f 1002/1002 812/812 1008/1008
f 812/812 999/999 1009/1009
f 813/813 818/818 812/812
f 820/820 809/809 814/814
f 820/820 816/816 815/815
f 816/816 820/820 811/811
f 810/810 1007/1007 817/817
f 1007/1007 810/810 812/812
f 809/809 819/819 817/817
f 810/810 816/816 814/814
f 816/816 810/810 1006/1006
f 819/819 1001/1001 808/808
f 1001/1001 819/819 824/824
f 823/823 828/828 799/799
f 803/803 805/805 814/814
f 803/803 809/809 819/819
f 809/809 808/808 814/814
f 805/805 821/821 814/814
f 821/821 809/809 815/815
f 820/820 812/812 813/813
f 812/812 819/819 791/791
f 1010/1010 1011/1011 791/791
f 1011/1011 792/792 780/780
f 1011/1011 781/781 792/792
f 1011/1011 780/780 832/832
f 794/794 823/823 822/822
f 823/823 794/794 795/795
f 832/832 823/823 830/830
f 829/829 822/822 827/827
f 830/830 822/822 824/824
f 795/795 823/823 825/825
f 796/796 824/824 795/795
f 824/824 796/796 826/826
f 796/796 825/825 797/797
f 796/796 826/826 827/827
f 996/996 997/997 993/993
f 990/990 832/832 803/803
f 799/799 828/828 824/824
f 828/828 799/799 803/803
f 828/828 804/804 829/829
f 829/829 802/802 830/830
f 830/830 1000/1000 997/997
f 1000/1000 830/830 831/831
f 795/795 992/992 832/832
f 795/795 831/831 1022/1022
f 861/861 862/862 863/863
f 862/862 861/861 864/864
f 860/860 865/865 866/866
f 865/865 860/860 868/868
f 867/867 869/869 870/870
f 869/869 867/867 872/872
f 871/871 869/869 868/868
f 869/869 871/871 873/873
f 870/870 874/874 875/875
f 874/874 870/870 865/865
f 1023/1023 864/864 1024/1024
f 865/865 1025/1025 872/872
f 1025/1025 865/865 866/866
f 876/876 871/871 877/877
f 871/871 876/876 870/870
f 867/867 875/875 862/862
f 878/878 1026/1026 879/879
f 1026/1026 878/878 1027/1027
f 880/880 1028/1028 881/881
f 1028/1028 880/880 866/866
f 871/871 865/865 872/872
f 865/865 871/871 870/870
f 873/873 1028/1028 1029/1029
f 1030/1030 878/878 882/882
f 878/878 1030/1030 879/879
f 878/878 883/883 882/882
f 877/877 879/879 884/884
f 879/879 876/876 877/877
f 876/876 879/879 866/866
f 860/860 876/876 885/885
f 876/876 860/860 862/862
f 1026/1026 1031/1031 1032/1032
f 881/881 1032/1032 862/862
f 863/863 878/878 1029/1029
f 878/878 863/863 1022/1022
f 862/862 1031/1031 884/884
f 876/876 886/886 885/885
f 886/886 876/876 884/884
f 1026/1026 879/879 871/871
f 877/877 868/868 883/883
f 868/868 877/877 881/881
f 869/869 870/870 1035/1035
f 1034/1034 886/886 884/884
f 886/886 1034/1034 1033/1033
f 872/872 869/869 1033/1033
f 1025/1025 872/872 880/880
f 1032/1032 881/881 870/870
f 1028/1028 881/881 888/888
f 888/888 890/890 892/892
f 892/892 894/894 895/895
f 895/895 896/896 897/897
f 897/897 899/899 901/901
f 901/901 903/903 896/896
f 906/906 897/897 888/888
f 898/898 1037/1037 908/908
f 910/910 1038/1038 912/912
f 912/912 1042/1042 895/895
f 895/895 890/890 913/913
f 913/913 911/911 1043/1043
f 914/914 888/888 1047/1047
f 1037/1037 899/899 890/890
f 888/888 914/914 1048/1048
f 1048/1048 953/953 1050/1050
f 952/952 1051/1051 916/916
f 1050/1050 1052/1052 1053/1053
f 1053/1053 1049/1049 949/949
f 950/950 944/944 943/943
f 944/944 950/950 922/922
f 946/946 921/921 947/947
f 921/921 946/946 948/948
f 919/919 943/943 915/915
f 943/943 919/919 922/922
f 922/922 921/921 923/923
f 925/925 929/929 924/924
f 930/930 925/925 931/931
f 928/928 932/932 927/927
f 932/932 928/928 925/925
f 930/930 929/929 952/952
f 953/953 1051/1051 922/922
f 945/945 946/946 920/920
f 945/945 922/922 948/948
f 1054/1054 919/919 948/948
f 951/951 1055/1055 1056/1056
f 1056/1056 1053/1053 934/934
f 933/933 1057/1057 929/929
f 929/929 1059/1059 922/922
f 926/926 920/920 922/922
f 928/928 926/926 935/935
f 928/928 931/931 936/936
f 1060/1060 933/933 937/937
f 1061/1061 1060/1060 1062/1062
f 1063/1063 938/938 940/940
f 934/934 1064/1064 939/939
f 1064/1064 934/934 938/938
f 1063/1063 937/937 1060/1060
f 936/936 937/937 1063/1063
f 1061/1061 937/937 938/938
f 1065/1065 1062/1062 1060/1060
f 1067/1067 939/939 934/934
f 1057/1057 939/939 941/941
f 933/933 930/930 936/936
f 941/941 937/937 935/935
f 937/937 941/941 938/938
f 931/931 1065/1065 932/932
f 1065/1065 931/931 930/930
f 933/933 940/940 935/935
f 931/931 937/937 938/938
f 937/937 931/931 929/929
f 940/940 1059/1059 1064/1064
f 1059/1059 940/940 944/944
f 945/945 949/949 924/924
f 920/920 926/926 928/928
f 935/935 926/926 924/924
f 926/926 942/942 924/924
f 940/940 929/929 926/926
f 935/935 941/941 942/942
f 934/934 940/940 1068/1068
f 912/912 913/913 1069/1069
f 901/901 902/902 1069/1069
f 913/913 901/901 943/943
f 915/915 944/944 953/953
f 944/944 915/915 953/953
f 916/916 944/944 950/950
f 948/948 943/943 916/916
f 945/945 944/944 916/916
f 917/917 945/945 946/946
f 947/947 946/946 917/917
f 918/918 947/947 1054/1054
f 948/948 1055/1055 1048/1048
f 1051/1051 953/953 945/945
f 920/920 949/949 924/924
f 949/949 920/920 950/950
f 949/949 925/925 924/924
f 925/925 949/949 951/951
f 950/950 923/923 925/925
f 923/923 950/950 1055/1055
f 951/951 1058/1058 923/923
f 1058/1058 951/951 916/916
f 952/952 1050/1050 916/916
