# MOD converted: m317.mod
# 1242 verts, 1109 faces

v 205.413269 40.130009 0.000005
v 195.017197 -40.867432 -0.000001
v 227.975113 36.399868 0.000001
v 221.722870 -36.833145 0.063545
v 241.147736 26.967722 0.063485
v 235.760574 -33.914177 -0.000000
v 273.760590 27.397320 0.000001
v 273.454681 -33.462090 -0.000000
v 256.928711 26.179123 0.000001
v 254.980789 -34.096268 0.000001
v 291.055664 -32.571880 -0.000000
v 291.213470 28.468584 0.000000
v 157.993286 40.286133 -0.000001
v 160.419098 -44.059937 0.000002
v 127.812721 -39.825653 0.000001
v 120.839874 42.257729 0.000000
v 110.754822 -36.054729 0.000004
v 68.669113 67.842850 0.000003
v 52.539783 -31.817614 -0.000001
v 117.918961 10.987413 -0.000001
v 188.678314 37.819736 0.000001
v 255.928726 -41.937458 0.000001
v 274.370514 -39.494762 0.063488
v 236.217758 -44.133835 0.000001
v 221.021606 -46.075211 0.000001
v 291.792389 -35.881485 0.000002
v 203.829697 -47.822357 0.000001
v 308.266907 -31.861813 -38.548203
v 205.665665 20.575552 -21.928885
v 205.400528 34.955250 -19.261139
v 195.009552 -37.061611 -39.971153
v 197.653992 -24.705481 -49.585873
v 200.760788 -1.227107 -33.571358
v 272.890564 -13.282389 -33.321156
v 272.932343 5.654370 -80.784737
v 194.247101 22.272219 -105.384903
v 209.975891 -37.608528 -121.815681
v 222.911057 -24.862299 -128.169022
v 227.548706 -0.327091 -73.402290
v 251.575867 25.510914 -59.089626
v 243.992981 13.565996 -59.758083
v 243.073700 -17.262234 -72.326218
v 253.000626 -27.416531 -84.287102
v 261.300354 -18.104586 -83.624771
v 262.276154 14.135115 -43.474724
v 290.262939 14.503117 -43.726463
v 290.294739 -20.013968 -52.302715
v 299.345093 4.945851 -53.269646
v 252.400665 10.813951 -63.099285
v 264.815613 21.790924 -53.929714
v 251.489502 -15.636498 -66.359100
v 261.336304 -25.917997 -77.333267
v 268.621704 -16.311108 -76.725792
v 269.526581 11.643363 -68.619942
v 258.301880 23.780703 -41.683327
v 308.916016 2.954160 -54.952179
v 274.797638 17.978415 -55.719894
v 275.221893 -23.007130 -45.633484
v 264.596436 -14.973613 -45.575920
v 264.548859 8.501024 -66.318932
v 283.127411 -13.530153 -66.253929
v 283.073975 8.030354 -104.806709
v 210.426086 35.969051 -80.850433
v 193.457199 -20.623945 -122.259995
v 223.676224 26.819174 -73.602364
v 251.472717 -3.021871 -40.766834
v 225.606674 -1.550861 -34.352474
v 227.603928 19.396065 -18.469292
v 228.703308 33.526833 -16.243294
v 221.335754 -33.967136 -34.309990
v 223.202438 -22.086546 -31.565125
v 237.498871 -3.247127 -13.442717
v 241.015442 24.421825 -14.339535
v 235.873886 -31.371288 -25.806675
v 236.985229 -20.227703 -28.690388
v 273.653046 14.624374 -13.687210
v 273.744446 24.974525 -18.716373
v 273.424591 -29.289671 -29.592278
v 273.379486 -20.336014 -26.991072
v 256.483215 13.062632 -13.261977
v 256.855713 23.694952 -16.970539
v 255.024139 -30.008007 -26.922054
v 255.172989 -20.367619 -19.639292
v 291.814789 -28.372492 -31.919212
v 255.960297 -3.215421 -34.298355
v 296.315704 13.214535 -26.438988
v 295.329834 20.148449 -15.043312
v 292.538147 26.255533 -39.371021
v 158.015442 19.658321 -21.338907
v 157.990082 34.686699 -19.516407
v 160.415039 -39.939861 -41.425426
v 160.400909 -25.731958 -52.227459
v 159.079163 -1.518332 -35.365719
v 120.090347 22.282976 -19.030464
v 120.839661 37.414597 -17.288393
v 127.811218 -36.261490 -35.558426
v 127.806496 -21.443703 -44.446564
v 119.275421 1.135065 -18.269392
v 110.754105 -32.490444 -37.018970
v 110.751892 -20.277390 -50.097462
v 62.620953 42.478115 -28.845188
v 66.571915 61.714638 -21.959784
v 52.776833 -27.723680 -43.671917
v 54.092621 -13.955227 -57.003834
v 57.392921 12.920995 -37.099621
v 190.674164 17.378567 -20.140858
v 188.671173 32.645832 -37.375919
v 272.542419 6.362974 -37.522030
v 272.538849 -13.866923 -51.883511
v 299.114136 -10.969633 -41.244682
v 308.456421 -10.091750 -99.009628
v 216.325256 9.752873 -94.709915
v 224.020386 7.350337 -102.590675
v 222.525742 7.619047 -99.289177
v 227.683792 4.860201 -106.481415
v 207.162476 10.376566 -110.828232
v 210.883591 10.392624 -90.421394
v 216.128464 -7.408390 -91.444710
v 208.566177 -13.340829 -94.866997
v 219.162888 -10.374937 -98.462547
v 212.589920 7.036394 -89.704231
v 220.692535 -3.383711 -99.606201
v 211.135895 -1.115696 -101.328026
v 204.444702 -13.283178 -103.494919
v 196.829498 -14.188182 -96.417435
v 202.983017 -10.412601 -100.238235
v 195.277664 -12.346419 -102.645874
v 208.530731 -11.698919 -95.996429
v 207.115250 -7.230001 -94.307915
v 202.618103 -15.230042 -98.741066
v 195.008545 -15.701065 -99.115318
v 228.176208 -3.655836 -102.483505
v 223.085052 -6.182612 -103.239510
v 223.507492 1.077355 -93.494682
v 224.249832 -6.955152 -97.722343
v 211.607376 -15.890982 -105.883453
v 213.250015 -11.056629 -112.306252
v 210.452789 -10.486475 -107.722374
v 206.477386 -10.658168 -101.995934
v 196.560272 -17.541702 -98.632431
v 204.158447 -17.591686 -89.971817
v 220.657806 4.259592 -107.961235
v 206.698730 0.023406 -116.978409
v 195.018066 -10.318778 -120.437172
v 196.345474 -10.531576 -117.000763
v 203.017883 -10.648909 -113.384796
v 200.392212 -10.618731 -117.197464
v 203.653992 0.243133 -118.241570
v 193.533295 -0.265332 -121.494476
v 194.868973 -0.319100 -112.598480
v 211.166412 0.158912 -113.737595
v 200.306061 0.169477 -116.113129
v 196.301941 8.457972 -119.497620
v 197.556763 8.566144 -112.416504
v 200.907166 9.357233 -116.018776
v 203.579834 9.526199 -88.160378
v 233.296036 7.769411 -92.816071
v 236.934753 4.685393 -92.664223
v 237.365540 -3.447678 -87.351997
v 233.154907 -6.599502 -83.194099
v 229.534912 -3.188670 -83.427635
v 229.504272 4.816900 -73.683136
v 253.165680 9.792729 -79.043922
v 257.050140 5.603099 -72.699707
v 252.994354 -8.127033 -78.859238
v 257.576416 -4.291150 -67.641205
v 248.578140 -3.979369 -67.925339
v 248.540527 5.760080 -75.211700
v 211.204422 -18.962273 -72.946625
v 214.383301 17.903582 -94.011963
v 223.933929 31.397182 -93.763039
v 224.415909 -33.194298 -107.958847
v 235.028244 -21.505217 -107.849792
v 235.896088 20.454964 -110.969963
v 237.594757 -1.177091 -32.993847
v 275.835693 -23.704163 -16.384478
v 274.347260 -36.034325 -34.355789
v 258.223358 -28.340868 -14.415373
v 255.914749 -39.042637 -19.336655
v 236.196976 -38.706512 -10.277951
v 221.017532 -43.319473 -34.239063
v 293.903381 -19.353249 -58.637665
v 319.262146 -2.923457 -54.561466
v 314.531860 -2.929093 -80.780251
v 293.717987 -3.056290 -77.439087
v 301.984100 -3.027695 -73.362823
v 297.289948 -3.027669 -74.251755
v 303.963928 6.456657 -70.190392
v 299.282562 5.837775 -67.290703
v 309.670868 10.990269 -63.293137
v 305.057068 9.569676 -54.026909
v 316.277618 12.103134 -60.957146
v 316.178741 6.530006 -56.895840
v 311.472046 5.907127 -50.498051
v 321.506500 -2.894629 -63.442192
v 304.815033 18.240746 -74.251724
v 303.963898 -12.483451 -70.190407
v 299.282562 -11.866356 -63.442165
v 304.814911 -24.204144 -67.290741
v 309.670837 -16.945789 -63.293144
v 305.057068 -15.530914 -60.957161
v 316.178619 -12.410079 -56.895855
v 311.471985 -11.796991 -54.026947
v 316.277527 -17.946789 -75.439629
v 296.636169 11.990056 -75.439651
v 296.636108 -18.059862 -0.000000
v 316.865723 25.609917 0.000002
v 372.271942 -53.402699 -0.000001
v 332.008209 37.637253 -0.000041
v 409.799927 22.977486 -0.000003
v 406.953949 0.644516 0.000000
v 399.042847 -18.279142 0.000001
v 387.078949 -37.009266 -0.000016
v 373.151276 35.679173 -0.000000
v 348.968567 34.087376 -0.000061
v 392.626526 43.252960 -0.000067
v 409.086090 44.427208 -0.000020
v 378.043610 34.350426 -0.000007
v 365.135162 31.508537 0.000001
v 380.796936 -29.355923 0.000000
v 314.166565 -13.013643 -0.000094
v 403.419067 67.473328 0.000001
v 293.251129 -37.027233 -0.000001
v 302.303375 35.888901 -0.000000
v 282.734589 44.540279 0.000000
v 241.554413 56.556137 0.000000
v 210.411194 66.794662 -0.000000
v 179.407944 67.849937 -0.000001
v 127.347046 71.045349 -0.000001
v 152.131927 69.780281 0.000001
v 358.263885 -34.925350 0.000001
v 325.342743 -23.263697 0.000001
v 340.625275 -31.204784 -4.321286
v 313.611298 -33.699448 -30.337879
v 319.243774 2.947824 -20.510120
v 319.012573 -36.179779 -18.477974
v 318.389313 21.075039 -14.425842
v 377.118713 -27.056688 -13.743425
v 318.463287 -11.619188 -31.939911
v 342.951385 -14.695754 -26.440346
v 361.304688 -20.115206 -11.657290
v 369.827271 -51.993973 -38.525139
v 338.952393 -37.726826 -28.907568
v 348.130280 -41.228729 -36.703556
v 328.144440 -36.584656 -19.104813
v 359.370880 -46.760117 -22.960732
v 333.663849 31.612804 -42.875565
v 330.718262 -4.119903 -25.707384
v 389.234863 6.380477 -18.525953
v 394.284882 24.343567 -17.138668
v 395.230286 -16.841833 -14.256804
v 403.075378 2.051254 -36.564602
v 335.632935 15.860888 -39.759567
v 347.576660 -4.972590 -17.817755
v 383.752960 -36.114494 -19.261351
v 362.627533 27.277420 -28.843580
v 363.427612 11.253881 -39.891319
v 345.257721 -22.196260 -41.446659
v 325.132202 -20.835346 -19.411753
v 350.668762 28.828249 -34.286316
v 352.001831 13.723930 -10.848914
v 402.687256 42.040878 -18.408316
v 378.625366 25.803331 -34.470257
v 362.628326 -6.858303 -29.282930
v 381.712494 -12.836173 -32.502979
v 356.251404 -24.768679 -27.126759
v 373.076080 -31.665464 -9.900994
v 372.479584 33.987679 -11.783202
v 405.461060 23.103676 -9.628770
v 378.490875 30.910002 -30.764305
v 328.548645 -11.999177 -21.560196
v 294.578827 -36.082359 -26.093391
v 275.871826 -38.109283 -12.647170
v 274.356689 -40.007675 -46.227852
v 288.816772 -31.267694 -18.812906
v 311.709290 -31.155605 -34.351040
v 257.634674 -40.638298 -21.056362
v 252.749588 -43.187035 -61.853065
v 270.839050 -33.850590 -60.111233
v 300.874908 7.458559 -59.659031
v 300.522217 -18.899172 -49.904114
v 309.711700 -18.611454 -29.081249
v 318.737305 -19.543541 -50.425438
v 309.336029 5.708880 -77.620186
v 282.180084 -18.209303 -36.008137
v 307.962463 20.238708 -20.111517
v 303.470856 31.295938 -50.845646
v 291.968170 24.869970 -24.111755
v 284.084503 39.593761 -77.250198
v 283.803436 13.091940 -9.484607
v 264.504089 57.009571 -64.505013
v 275.044373 32.669544 -28.892115
v 266.210083 53.102818 -23.009104
v 264.756012 45.705437 -56.203568
v 264.799683 36.242409 -22.520943
v 241.544922 53.543816 -64.493164
v 241.332809 45.173096 -46.752556
v 211.508453 59.630127 -29.969419
v 180.593155 63.564499 -13.164484
v 152.707794 67.421288 -41.344959
v 287.767700 33.077194 -42.447906
v 264.781342 40.927193 -44.469799
v 241.456284 48.030296 -45.971519
v 262.153534 -38.973953 -40.058861
v 314.443085 -18.184076 -40.415813
v 314.681030 3.685013 -49.406361
v 268.539703 45.798462 -39.085464
v 279.674744 -34.615837 -34.138905
v 296.597412 -30.206264 -31.158655
v 320.022858 -30.080114 -21.967302
v 210.922531 63.688095 -18.946609
v 179.889343 66.171341 -74.497009
v 254.791870 32.071384 -66.069641
v 270.726471 27.752666 -76.720520
v 279.922302 11.745510 -89.023743
v 267.389404 15.735496 -15.159787
v 326.809296 -20.116121 -15.831717
v 358.363647 -29.200794 -16.313732
v 341.174835 -26.139460 -108.549835
v 269.563293 13.699331 -89.379623
v 287.308594 9.324247 -111.839996
v 261.696167 14.047345 -105.297562
v 266.469238 16.620251 -107.584778
v 267.147919 8.887693 -86.127365
v 284.198181 12.242587 -88.414574
v 284.879669 4.510459 -81.872139
v 289.692749 7.089683 -97.992844
v 265.114471 37.947182 -81.552765
v 284.193054 29.070030 -94.282562
v 261.309570 37.618855 -99.689667
v 264.481323 32.795860 -101.745499
v 257.471039 37.555172 -77.842537
v 280.372406 28.739220 -83.249519
v 283.554871 23.917921 -75.786644
v 287.431915 23.987642 -108.549873
v 269.563232 -20.041626 -89.379654
v 287.308533 -15.511106 -111.839951
v 261.696136 -20.419077 -105.297546
v 266.469208 -22.950352 -107.584747
v 267.147949 -15.228725 -86.127327
v 284.198120 -18.422417 -88.414566
v 284.879669 -10.700345 -81.872124
v 289.692688 -13.225307 -97.992790
v 265.114380 -44.243698 -81.552849
v 284.193146 -35.226059 -94.282623
v 261.309570 -43.907707 -99.689621
v 264.481232 -39.101906 -101.745491
v 257.471008 -43.885227 -77.842560
v 280.372406 -34.892548 -83.249329
v 283.554657 -30.085060 -75.786667
v 287.431915 -30.101467 -63.376686
v 314.476105 -2.953327 -72.195587
v 306.371735 -3.038800 -67.434807
v 309.980621 3.572260 -67.434822
v 309.980621 -9.529113 -68.932465
v 311.819366 -2.977483 -72.054207
v 301.211670 -3.015303 -69.730957
v 302.652649 3.897560 -64.656914
v 306.807404 7.201393 -60.040318
v 311.544403 3.949181 -58.349556
v 313.788574 -2.942168 -69.730957
v 302.652618 -9.908195 -64.656929
v 306.807343 -13.161672 -60.040337
v 311.544373 -9.856577 -67.693817
v 302.465027 14.655814 -59.562099
v 302.698792 26.091892 -57.499203
v 300.089020 24.008617 -71.701187
v 294.071259 18.380701 -54.234543
v 295.910919 33.754147 -52.676186
v 293.936218 30.712692 -65.124771
v 293.245239 24.563963 -60.733444
v 288.334076 30.560287 -65.805260
v 301.786957 21.093399 -63.686104
v 299.018372 19.342976 -67.693802
v 302.464966 -20.654325 -58.923714
v 303.025818 -32.039135 -56.860764
v 300.416046 -29.962282 -72.097527
v 294.436646 -25.293978 -53.596115
v 296.237915 -39.719406 -52.037804
v 294.263184 -36.683807 -65.517738
v 293.965515 -31.632122 -60.874222
v 288.088867 -38.116745 -65.166809
v 302.113922 -27.076601 -63.047688
v 299.345306 -25.331320 -50.845669
v 291.968231 23.900677 -60.111259
v 300.874847 6.489267 -66.069649
v 270.726471 26.783381 -24.111773
v 284.084503 38.624443 0.000000
v 265.102661 48.220348 0.000000
v 282.734589 43.570976 -23.009104
v 264.756042 44.736176 -40.411118
v 287.767700 32.107883 -56.203552
v 264.799683 35.273125 -42.447906
v 264.781281 39.957863 -22.520927
v 241.544907 52.574524 0.000000
v 241.554382 55.586845 -64.493149
v 241.332794 44.203796 -44.469814
v 241.456299 47.060978 -46.752609
v 211.622971 58.674541 -21.967318
v 211.037018 62.732460 -29.969416
v 180.822128 62.622616 -18.946623
v 180.118317 65.229477 -13.164484
v 152.936752 66.479439 -0.000000
v 179.636902 66.908073 -0.000001
v 152.360840 68.838417 -0.000001
v 127.537910 70.260132 -0.000000
v 210.525681 65.839081 -74.497040
v 254.791840 31.102104 -76.720505
v 279.922333 10.776220 -89.023743
v 267.389374 14.766182 -19.639284
v 291.814728 -29.391659 -26.051884
v 239.577377 13.057613 0.000000
v 265.102722 49.189678 -31.692123
v 237.498932 -3.247187 26.051884
v 239.577377 13.057613 33.306534
v 196.453583 -52.325012 35.942913
v 163.919632 -52.116116 33.201477
v 197.244598 -58.139473 32.496994
v 207.590027 -39.551167 33.552494
v 193.018829 -56.821297 36.062744
v 162.060226 -56.498993 35.738274
v 166.082123 -56.250355 36.057125
v 162.499847 -52.254520 36.780403
v 154.276276 -44.343025 36.379097
v 158.633667 -51.080173 22.381439
v 194.419861 -40.558994 33.639622
v 194.377869 -28.969229 27.925383
v 162.426941 -43.481537 36.187412
v 162.401184 -34.975403 33.701065
v 194.130920 -23.105812 16.813753
v 194.191635 -40.490803 34.004093
v 190.205872 -25.157253 18.741102
v 190.260056 -40.870140 36.426491
v 159.801086 -30.992804 24.132305
v 159.838440 -43.650402 36.105194
v 163.802460 -30.521231 23.703529
v 163.840866 -43.289413 36.301865
v 160.979584 -35.092045 28.029392
v 161.005219 -43.608948 36.580822
v 157.381210 -36.936302 29.763414
v 157.402039 -43.955250 44.564766
v 196.405029 -40.736275 44.204727
v 163.893372 -43.621098 50.088760
v 197.169006 -40.756832 48.815475
v 192.953400 -41.110161 48.356911
v 162.019287 -43.841988 48.139988
v 166.039612 -43.482819 44.329571
v 162.472565 -43.737877 43.196472
v 158.611832 -44.061398 41.805996
v 226.252365 -2.133356 34.254097
v 201.682465 -40.368950 44.953636
v 220.330383 -0.443764 42.671970
v 216.277191 -23.953470 45.332043
v 210.902985 -24.416937 30.612883
v 234.389999 16.431948 16.247198
v 212.146622 -39.540546 16.493786
v 206.083969 -41.470955 0.436140
v 218.277023 -40.226173 -0.192886
v 212.209045 -41.715462 -15.545213
v 226.737991 -35.529152 -16.472734
v 220.663651 -36.852394 -28.997782
v 233.907272 -20.633427 -32.454166
v 228.386917 -21.873083 -36.209526
v 232.899567 -2.309879 -30.309235
v 234.978012 15.863034 -0.063543
v 241.147736 26.967722 -0.063483
v 235.760574 -33.914177 -0.063485
v 236.217758 -44.133835 38.548203
v 205.665665 20.575556 21.928885
v 205.400528 34.955250 19.261133
v 195.009552 -37.061611 39.971157
v 197.653992 -24.705486 49.585873
v 200.760788 -1.227106 33.571354
v 272.890564 -13.282395 33.321156
v 272.932343 5.654367 80.784744
v 194.247101 22.272223 105.384888
v 209.975891 -37.608536 121.815674
v 222.911057 -24.862303 128.169022
v 227.548706 -0.327074 73.402290
v 251.575836 25.510918 59.089630
v 243.993011 13.565994 59.758080
v 243.073700 -17.262236 72.326225
v 253.000641 -27.416531 84.287109
v 261.300354 -18.104588 83.624779
v 262.276154 14.135118 43.474735
v 290.262939 14.503119 43.726471
v 290.294739 -20.013968 52.302719
v 299.345093 4.945853 53.269646
v 252.400665 10.813950 63.099274
v 264.815613 21.790924 53.929710
v 251.489502 -15.636497 66.359100
v 261.336304 -25.917995 77.333267
v 268.621704 -16.311110 76.725792
v 269.526581 11.643364 68.619934
v 258.301880 23.780704 41.683327
v 308.916016 2.954157 54.952168
v 274.797638 17.978413 55.719891
v 275.221893 -23.007132 45.633480
v 264.596436 -14.973615 45.575920
v 264.548859 8.501027 66.318932
v 283.127411 -13.530152 66.253922
v 283.073975 8.030355 104.806709
v 210.426086 35.969059 80.850433
v 193.457199 -20.623936 122.259987
v 223.676224 26.819174 73.602364
v 251.472687 -3.021870 40.766834
v 225.606674 -1.550860 34.352470
v 227.603928 19.396069 18.469290
v 228.703308 33.526833 16.243296
v 221.335754 -33.967133 34.309994
v 223.202438 -22.086535 31.565125
v 237.498871 -3.247124 13.442717
v 241.015442 24.421825 14.339537
v 235.873886 -31.371284 25.806671
v 236.985229 -20.227707 28.690390
v 273.653046 14.624371 13.687213
v 273.744446 24.974524 18.716381
v 273.424591 -29.289665 29.592283
v 273.379486 -20.336004 26.991072
v 256.483215 13.062630 13.261976
v 256.855713 23.694954 16.970543
v 255.024139 -30.008007 26.922054
v 255.172989 -20.367617 19.639286
v 291.814789 -28.372490 31.919214
v 255.960297 -3.215422 34.298359
v 296.315735 13.214537 26.439011
v 295.329834 20.148453 15.043320
v 292.538147 26.255535 39.371017
v 158.015442 19.658323 21.338909
v 157.990082 34.686695 19.516401
v 160.415024 -39.939857 41.425423
v 160.400909 -25.731955 52.227459
v 159.079163 -1.518346 35.365719
v 120.090340 22.282976 19.030460
v 120.839661 37.414593 17.288385
v 127.811211 -36.261494 35.558430
v 127.806488 -21.443699 44.446564
v 119.275421 1.135059 18.269388
v 110.754097 -32.490444 37.018970
v 110.751900 -20.277397 50.097462
v 62.620949 42.478115 28.845186
v 66.571922 61.714638 21.959770
v 52.776833 -27.723677 43.671917
v 54.092621 -13.955226 57.003838
v 57.392921 12.920986 37.099621
v 190.674164 17.378563 20.140858
v 188.671173 32.645832 37.375919
v 272.542419 6.362974 37.522030
v 272.538849 -13.866929 51.883518
v 299.114136 -10.969636 41.244678
v 308.456451 -10.091757 99.009621
v 216.325256 9.752872 94.709915
v 224.020386 7.350336 102.590675
v 222.525742 7.619046 99.289177
v 227.683777 4.860201 106.481415
v 207.162476 10.376563 110.828232
v 210.883591 10.392621 90.421394
v 216.128464 -7.408389 91.444717
v 208.566177 -13.340829 94.867004
v 219.162888 -10.374937 98.462547
v 212.589920 7.036393 89.704231
v 220.692535 -3.383712 99.606201
v 211.135895 -1.115697 101.328033
v 204.444702 -13.283176 103.494926
v 196.829498 -14.188183 96.417442
v 202.983017 -10.412600 100.238243
v 195.277664 -12.346420 102.645874
v 208.530731 -11.698918 95.996429
v 207.115250 -7.229997 94.307922
v 202.618103 -15.230042 98.741074
v 195.008545 -15.701066 99.115326
v 228.176208 -3.655836 102.483513
v 223.085052 -6.182613 103.239510
v 223.507492 1.077356 93.494675
v 224.249832 -6.955153 97.722343
v 211.607376 -15.890979 105.883453
v 213.250015 -11.056628 112.306259
v 210.452774 -10.486475 107.722374
v 206.477386 -10.658167 101.995941
v 196.560272 -17.541700 98.632431
v 204.158432 -17.591686 89.971817
v 220.657806 4.259589 107.961235
v 206.698730 0.023407 116.978409
v 195.018066 -10.318777 120.437180
v 196.345474 -10.531577 117.000763
v 203.017883 -10.648908 113.384796
v 200.392212 -10.618729 117.197464
v 203.653992 0.243133 118.241570
v 193.533295 -0.265331 121.494476
v 194.868973 -0.319101 112.598480
v 211.166428 0.158913 113.737595
v 200.306076 0.169478 116.113129
v 196.301941 8.457972 119.497620
v 197.556763 8.566144 112.416504
v 200.907166 9.357232 116.018776
v 203.579834 9.526197 88.160378
v 233.296036 7.769410 92.816071
v 236.934753 4.685393 92.664215
v 237.365555 -3.447679 87.352005
v 233.154892 -6.599503 83.194099
v 229.534912 -3.188671 83.427635
v 229.504272 4.816900 73.683144
v 253.165665 9.792730 79.043922
v 257.050140 5.603100 72.699707
v 252.994354 -8.127035 78.859238
v 257.576447 -4.291148 67.641205
v 248.578156 -3.979370 67.925339
v 248.540527 5.760081 75.211693
v 211.204407 -18.962255 72.946625
v 214.383301 17.903578 94.011971
v 223.933914 31.397181 93.763039
v 224.415894 -33.194298 107.958855
v 235.028275 -21.505217 107.849792
v 235.896103 20.454964 110.969955
v 237.594757 -1.177082 32.993839
v 275.835693 -23.704157 16.384466
v 274.347260 -36.034313 34.355778
v 258.223358 -28.340858 14.415362
v 255.914749 -39.042637 19.336657
v 236.196976 -38.706512 10.277954
v 221.017532 -43.319473 34.239059
v 293.903381 -19.353247 58.637661
v 319.262146 -2.923439 54.561466
v 314.531860 -2.929092 80.780258
v 293.717987 -3.056311 77.439079
v 301.984131 -3.027585 73.362816
v 297.289948 -3.027771 74.251755
v 303.963928 6.456656 70.190392
v 299.282593 5.837775 67.290695
v 309.670868 10.990275 63.293133
v 305.057068 9.569678 54.026909
v 316.277618 12.103136 60.957146
v 316.178741 6.530004 56.895832
v 311.472046 5.907131 50.498047
v 321.506500 -2.894602 63.442188
v 304.815033 18.240744 74.251724
v 303.963898 -12.483459 70.190399
v 299.282562 -11.866362 63.442169
v 304.814911 -24.204138 67.290741
v 309.670837 -16.945805 63.293144
v 305.057068 -15.530918 60.957161
v 316.178650 -12.410091 56.895855
v 311.471985 -11.796995 54.026943
v 316.277557 -17.946787 75.439629
v 296.636169 11.990067 75.439651
v 296.636108 -18.059874 4.321288
v 313.611298 -33.699448 30.337881
v 319.243774 2.947814 20.510124
v 319.012573 -36.179779 18.477976
v 318.389313 21.075039 14.425844
v 377.118713 -27.056688 13.743426
v 318.463287 -11.619188 31.939909
v 342.951385 -14.695760 26.440346
v 361.304688 -20.115204 11.657294
v 369.827271 -51.993973 38.525150
v 338.952393 -37.726814 28.907579
v 348.130280 -41.228718 36.703560
v 328.144440 -36.584656 19.104816
v 359.370880 -46.760117 22.960732
v 333.663849 31.612804 42.875565
v 330.718262 -4.119915 25.707384
v 389.234863 6.380476 18.525955
v 394.284882 24.343571 17.138668
v 395.230286 -16.841831 14.256804
v 403.075378 2.051254 36.564602
v 335.632935 15.860885 39.759567
v 347.576660 -4.972593 17.817759
v 383.752960 -36.114491 19.261347
v 362.627533 27.277420 28.843578
v 363.427612 11.253883 39.891319
v 345.257721 -22.196257 41.446663
v 325.132263 -20.835350 19.411753
v 350.668762 28.828249 34.286316
v 352.001831 13.723930 10.848913
v 402.687256 42.040878 18.408314
v 378.625366 25.803329 34.470257
v 362.628326 -6.858300 29.282932
v 381.712494 -12.836171 32.502983
v 356.251404 -24.768677 27.126753
v 373.076080 -31.665470 9.900994
v 372.479584 33.987679 11.783202
v 405.461060 23.103672 9.628769
v 378.490875 30.910002 30.764307
v 328.548676 -11.999184 21.560188
v 294.578827 -36.082359 26.093367
v 275.871826 -38.109272 12.647146
v 274.356689 -40.007668 46.227856
v 288.816772 -31.267698 18.812904
v 311.709290 -31.155605 34.351013
v 257.634674 -40.638283 21.056343
v 252.749573 -43.187016 61.853065
v 270.839050 -33.850594 60.111233
v 300.874908 7.458563 59.659031
v 300.522217 -18.899174 49.904110
v 309.711731 -18.611456 29.081253
v 318.737305 -19.543533 50.425438
v 309.336029 5.708885 77.620186
v 282.180084 -18.209303 36.008144
v 307.962463 20.238707 20.111519
v 303.470856 31.295938 50.845654
v 291.968170 24.869967 24.111757
v 284.084503 39.593761 77.250198
v 283.803436 13.091946 9.484611
v 264.504120 57.009571 64.505005
v 275.044373 32.669537 28.892115
v 266.210083 53.102821 23.009104
v 264.756012 45.705437 56.203579
v 264.799683 36.242409 22.520943
v 241.544922 53.543816 64.493187
v 241.332809 45.173107 46.752560
v 211.508408 59.630127 29.969419
v 180.593124 63.564499 13.164484
v 152.707794 67.421288 41.344975
v 287.767731 33.077198 42.447929
v 264.781372 40.927200 44.469799
v 241.456299 48.030281 45.971512
v 262.153534 -38.973961 40.058861
v 314.443085 -18.184076 40.415813
v 314.681030 3.685016 49.406376
v 268.539703 45.798473 39.085472
v 279.674744 -34.615837 34.138901
v 296.597412 -30.206264 31.158657
v 320.022888 -30.080114 21.967302
v 210.922516 63.688099 18.946604
v 179.889313 66.171341 74.497009
v 254.791870 32.071381 66.069641
v 270.726471 27.752665 76.720512
v 279.922302 11.745514 89.023743
v 267.389404 15.735500 15.159792
v 326.809296 -20.116116 15.831719
v 358.363647 -29.200792 16.313734
v 341.174835 -26.139458 108.549812
v 269.563293 13.699327 89.379616
v 287.308594 9.324247 111.839973
v 261.696198 14.047341 105.297539
v 266.469238 16.620249 107.584763
v 267.147919 8.887691 86.127350
v 284.198181 12.242585 88.414551
v 284.879669 4.510458 81.872124
v 289.692749 7.089682 97.992737
v 265.114441 37.947170 81.552727
v 284.193085 29.070032 94.282516
v 261.309601 37.618851 99.689545
v 264.481293 32.795845 101.745438
v 257.471039 37.555157 77.842491
v 280.372437 28.739220 83.249496
v 283.554901 23.917919 75.786598
v 287.431915 23.987640 108.549881
v 269.563202 -20.041622 89.379669
v 287.308502 -15.511104 111.839951
v 261.696136 -20.419073 105.297562
v 266.469177 -22.950352 107.584763
v 267.147919 -15.228723 86.127342
v 284.198120 -18.422417 88.414558
v 284.879669 -10.700345 81.872131
v 289.692657 -13.225305 97.992805
v 265.114319 -44.243694 81.552765
v 284.192993 -35.226059 94.282639
v 261.309540 -43.907703 99.689636
v 264.481171 -39.101902 101.745506
v 257.470978 -43.885220 77.842583
v 280.372375 -34.892544 83.249550
v 283.554840 -30.085052 75.786667
v 287.431885 -30.101460 63.376694
v 314.476105 -2.953406 72.195595
v 306.371735 -3.038708 67.434799
v 309.980621 3.572270 67.434814
v 309.980621 -9.529136 68.932472
v 311.819366 -2.977404 72.054199
v 301.211700 -3.015198 69.730942
v 302.652649 3.897561 64.656914
v 306.807404 7.201396 60.040318
v 311.544403 3.949178 58.349556
v 313.788574 -2.942145 69.730949
v 302.652618 -9.908207 64.656937
v 306.807343 -13.161675 60.040333
v 311.544403 -9.856581 67.693817
v 302.465027 14.655820 59.562099
v 302.698792 26.091894 57.499207
v 300.089020 24.008619 71.701180
v 294.071259 18.380711 54.234543
v 295.910919 33.754139 52.676182
v 293.936218 30.712698 65.124771
v 293.245239 24.563967 60.733444
v 288.334076 30.560293 65.805267
v 301.786957 21.093403 63.686111
v 299.018372 19.342979 67.693794
v 302.464966 -20.654333 58.923702
v 303.025818 -32.039139 56.860756
v 300.416046 -29.962278 72.097519
v 294.436646 -25.293972 53.596111
v 296.237915 -39.719410 52.037800
v 294.263184 -36.683815 65.517738
v 293.965515 -31.632130 60.874218
v 288.088867 -38.116745 65.166809
v 302.113922 -27.076614 63.047668
v 299.345306 -25.331327 50.845673
v 291.968231 23.900673 60.111259
v 300.874847 6.489272 66.069649
v 270.726471 26.783382 24.111776
v 284.084503 38.624443 23.009104
v 264.756042 44.736172 40.411133
v 287.767700 32.107883 56.203564
v 264.799683 35.273129 42.447929
v 264.781311 39.957878 22.520927
v 241.544907 52.574524 64.493164
v 241.332809 44.203804 44.469810
v 241.456299 47.060982 46.752609
v 211.622925 58.674549 21.967318
v 211.037003 62.732460 29.969416
v 180.822067 62.622616 18.946619
v 180.118286 65.229485 13.164484
v 152.936722 66.479439 74.497032
v 254.791824 31.102106 76.720505
v 279.922302 10.776222 89.023743
v 267.389374 14.766184 19.639277
v 291.814728 -29.391649 -80.784737
v 194.247101 22.272219 -72.946625
v 214.383301 17.903582 -34.239063
v 293.903381 -19.353249 -104.806709
v 210.426086 35.969051 -80.784737
v 194.247101 22.272219 -80.850433
v 193.457199 -20.623945 -121.815681
v 222.911057 -24.862299 -128.169022
v 227.548706 -0.327091 -122.259995
v 223.676224 26.819174 -59.089626
v 243.992981 13.565996 -53.269646
v 252.400665 10.813951 -33.321156
v 272.932343 5.654370 -37.375919
v 272.542419 6.362974 -33.571358
v 272.890564 -13.282389 -34.298355
v 296.315704 13.214535 -33.321156
v 272.932343 5.654370 -28.845188
v 66.571915 61.714638 0.000004
v 68.669113 67.842850 0.000003
v 52.539783 -31.817614 -21.959784
v 52.776833 -27.723680 -43.671917
v 54.092621 -13.955227 -57.003834
v 57.392921 12.920995 -50.097462
v 62.620953 42.478115 -45.575920
v 264.548859 8.501024 -106.481415
v 207.162476 10.376566 -99.009628
v 216.325256 9.752873 -90.421394
v 216.128464 -7.408390 -91.444710
v 208.566177 -13.340829 -102.645874
v 208.530731 -11.698919 -94.307915
v 202.618103 -15.230042 -98.741066
v 195.008545 -15.701065 -101.328026
v 204.444702 -13.283178 -103.494919
v 196.829498 -14.188182 -100.238235
v 195.277664 -12.346419 -107.722374
v 206.477386 -10.658168 -89.971817
v 220.657806 4.259592 -89.704231
v 220.692535 -3.383711 -113.384796
v 200.392212 -10.618731 -118.241570
v 193.533295 -0.265332 -116.978409
v 195.018066 -10.318778 -112.416504
v 200.907166 9.357233 -116.113129
v 196.301941 8.457972 -89.971817
v 220.657806 4.259592 -83.427635
v 229.504272 4.816900 -67.925339
v 248.540527 5.760080 -105.384903
v 209.975891 -37.608528 -34.239063
v 293.903381 -19.353249 -73.362823
v 297.289948 -3.027669 -70.190392
v 299.282562 5.837775 -75.439629
v 296.636169 11.990056 -80.780251
v 293.717987 -3.056290 -63.293137
v 305.057068 9.569676 -63.442192
v 304.815033 18.240746 -56.895840
v 311.472046 5.907127 -54.026909
v 316.277618 12.103134 -54.561466
v 314.531860 -2.929093 -50.498051
v 321.506500 -2.894629 -80.780251
v 293.717987 -3.056290 -77.439087
v 301.984100 -3.027695 -73.362823
v 297.289948 -3.027669 -70.190407
v 299.282562 -11.866356 -73.362823
v 297.289948 -3.027669 -75.439651
v 296.636108 -18.059862 -80.780251
v 293.717987 -3.056290 -63.293144
v 305.057068 -15.530914 -63.442165
v 304.814911 -24.204144 -56.895855
v 311.471985 -11.796991 -54.026947
v 316.277527 -17.946789 -50.498051
v 321.506500 -2.894629 -58.637665
v 319.262146 -2.923457 -54.561466
v 314.531860 -2.929093 -54.561466
v 314.531860 -2.929093 -50.498051
v 321.506500 -2.894629 0.000001
v 308.266907 -31.861813 -18.812906
v 311.709290 -31.155605 -29.081249
v 318.737305 -19.543541 0.000001
v 308.266907 -31.861813 -18.477974
v 318.389313 21.075039 -0.000000
v 316.865723 25.609917 -0.000000
v 282.734589 44.540279 -24.111755
v 284.084503 39.593761 -41.344959
v 287.767700 33.077194 -50.845646
v 291.968170 24.869970 -30.337879
v 319.243774 2.947824 -60.111233
v 300.874908 7.458559 0.000000
v 314.166565 -13.013643 -13.743425
v 318.463287 -11.619188 0.000001
v 380.796936 -29.355923 -14.425842
v 377.118713 -27.056688 -31.939911
v 342.951385 -14.695754 -30.764305
v 328.548645 -11.999177 -26.440346
v 361.304688 -20.115206 -107.584778
v 267.147919 8.887693 -111.839996
v 261.696167 14.047345 -88.414574
v 284.879669 4.510459 -81.872139
v 289.692749 7.089683 -86.127365
v 284.198181 12.242587 -105.297562
v 266.469238 16.620251 -99.689667
v 264.481323 32.795860 -101.745499
v 257.471039 37.555172 -83.249519
v 283.554871 23.917921 -75.786644
v 287.431915 23.987642 -77.842537
v 280.372406 28.739220 -94.282562
v 261.309570 37.618855 -107.584747
v 267.147949 -15.228725 -111.839951
v 261.696136 -20.419077 -88.414566
v 284.879669 -10.700345 -81.872124
v 289.692688 -13.225307 -86.127327
v 284.198120 -18.422417 -105.297546
v 266.469208 -22.950352 -99.689621
v 264.481232 -39.101906 -101.745491
v 257.471008 -43.885227 -83.249329
v 283.554657 -30.085060 -75.786667
v 287.431915 -30.101467 -77.842560
v 280.372406 -34.892548 -94.282623
v 261.309570 -43.907707 -68.932465
v 311.819366 -2.977483 -63.686104
v 299.018372 19.342976 -67.693817
v 302.465027 14.655814 -75.439629
v 296.636169 11.990056 -75.439629
v 296.636169 11.990056 -57.499203
v 300.089020 24.008617 -52.676186
v 293.936218 30.712692 -63.047688
v 299.345306 -25.331320 -67.693802
v 302.464966 -20.654325 -75.439651
v 296.636108 -18.059862 -75.439651
v 296.636108 -18.059862 -72.097527
v 294.436646 -25.293978 -52.037804
v 294.263184 -36.683807 -56.860764
v 300.416046 -29.962282 -60.874222
v 288.088867 -38.116745 -52.037804
v 294.263184 -36.683807 -65.517738
v 293.965515 -31.632122 -65.124771
v 293.245239 24.563963 -60.733444
v 288.334076 30.560287 -71.701187
v 294.071259 18.380701 -52.676186
v 293.936218 30.712692 -50.845669
v 291.968231 23.900677 -66.069649
v 270.726471 26.783381 -60.111259
v 300.874847 6.489267 34.004093
v 190.205872 -25.157253 18.741102
v 190.260056 -40.870140 33.552494
v 193.018829 -56.821297 36.426491
v 159.801086 -30.992804 24.132305
v 159.838440 -43.650402 36.062744
v 162.060226 -56.498993 36.379097
v 158.633667 -51.080173 36.780403
v 154.276276 -44.343025 35.942913
v 163.919632 -52.116116 33.306534
v 196.453583 -52.325012 36.187412
v 162.401184 -34.975403 33.639622
v 194.377869 -28.969229 32.496994
v 207.590027 -39.551167 33.701065
v 194.130920 -23.105812 34.004093
v 190.205872 -25.157253 36.426491
v 159.801086 -30.992804 36.105194
v 163.802460 -30.521231 36.301865
v 160.979584 -35.092045 36.580822
v 157.381210 -36.936302 33.201477
v 197.244598 -58.139473 33.552494
v 193.018829 -56.821297 48.815475
v 192.953400 -41.110161 34.004093
v 190.205872 -25.157253 33.552494
v 193.018829 -56.821297 35.738274
v 166.082123 -56.250355 36.062744
v 162.060226 -56.498993 36.057125
v 162.499847 -52.254520 48.356911
v 162.019287 -43.841988 36.426491
v 159.801086 -30.992804 36.062744
v 162.060226 -56.498993 32.496994
v 207.590027 -39.551167 34.254097
v 201.682465 -40.368950 32.496994
v 207.590027 -39.551167 -26.051884
v 239.577377 13.057613 80.784744
v 194.247101 22.272223 72.946625
v 214.383301 17.903578 34.239059
v 293.903381 -19.353247 104.806709
v 210.426086 35.969059 80.784744
v 194.247101 22.272223 80.850433
v 193.457199 -20.623936 121.815674
v 222.911057 -24.862303 128.169022
v 227.548706 -0.327074 122.259987
v 223.676224 26.819174 59.089630
v 243.993011 13.565994 53.269646
v 252.400665 10.813950 37.375919
v 272.542419 6.362974 33.321156
v 272.932343 5.654367 33.571354
v 272.890564 -13.282395 -0.000001
v 227.975113 36.399868 -0.000000
v 205.413269 40.130009 0.000005
v 195.017197 -40.867432 0.000001
v 221.722870 -36.833145 26.051884
v 239.577377 13.057613 -0.000000
v 256.928711 26.179123 0.000001
v 254.980789 -34.096268 0.000001
v 273.454681 -33.462090 0.000001
v 291.055664 -32.571880 -0.000000
v 273.760590 27.397320 -0.000000
v 291.213470 28.468584 34.298359
v 296.315735 13.214537 33.321156
v 272.932343 5.654367 -0.000001
v 188.678314 37.819736 -0.000001
v 160.419098 -44.059937 0.000000
v 157.993286 40.286133 0.000001
v 120.839874 42.257729 0.000002
v 127.812721 -39.825653 0.000000
v 110.754822 -36.054729 0.000004
v 68.669113 67.842850 0.000003
v 52.539783 -31.817614 -0.000001
v 117.918961 10.987413 28.845186
v 66.571922 61.714638 0.000004
v 68.669113 67.842850 0.000003
v 52.539783 -31.817614 21.959770
v 52.776833 -27.723677 43.671917
v 54.092621 -13.955226 57.003838
v 57.392921 12.920986 50.097462
v 62.620949 42.478115 45.575920
v 264.548859 8.501027 106.481415
v 207.162476 10.376563 99.009621
v 216.325256 9.752872 90.421394
v 216.128464 -7.408389 91.444717
v 208.566177 -13.340829 102.645874
v 208.530731 -11.698918 94.307922
v 202.618103 -15.230042 98.741074
v 195.008545 -15.701066 101.328033
v 204.444702 -13.283176 103.494926
v 196.829498 -14.188183 100.238243
v 195.277664 -12.346420 107.722374
v 206.477386 -10.658167 89.971817
v 220.657806 4.259589 89.704231
v 220.692535 -3.383712 113.384796
v 200.392212 -10.618729 118.241570
v 193.533295 -0.265331 116.978409
v 195.018066 -10.318777 112.416504
v 200.907166 9.357232 116.113129
v 196.301941 8.457972 89.971817
v 220.657806 4.259589 83.427635
v 229.504272 4.816900 67.925339
v 248.540527 5.760081 105.384888
v 209.975891 -37.608536 0.000001
v 255.928726 -41.937458 0.000001
v 274.370514 -39.494762 0.000001
v 291.792389 -35.881485 0.000002
v 203.829697 -47.822357 0.000001
v 221.021606 -46.075211 34.239059
v 293.903381 -19.353247 0.000001
v 308.266907 -31.861813 70.190392
v 299.282593 5.837775 73.362816
v 297.289948 -3.027771 75.439629
v 296.636169 11.990067 80.780258
v 293.717987 -3.056311 63.293133
v 305.057068 9.569678 63.442188
v 304.815033 18.240744 56.895832
v 311.472046 5.907131 54.026909
v 316.277618 12.103136 54.561466
v 314.531860 -2.929092 50.498047
v 321.506500 -2.894602 80.780258
v 293.717987 -3.056311 77.439079
v 301.984131 -3.027585 73.362816
v 297.289948 -3.027771 73.362816
v 297.289948 -3.027771 70.190399
v 299.282562 -11.866362 75.439651
v 296.636108 -18.059874 80.780258
v 293.717987 -3.056311 63.293144
v 305.057068 -15.530918 63.442169
v 304.814911 -24.204138 56.895855
v 311.471985 -11.796995 54.026943
v 316.277557 -17.946787 50.498047
v 321.506500 -2.894602 58.637661
v 319.262146 -2.923439 54.561466
v 314.531860 -2.929092 54.561466
v 314.531860 -2.929092 50.498047
v 321.506500 -2.894602 -0.000001
v 332.008209 37.637253 -0.000000
v 316.865723 25.609917 0.000001
v 387.078949 -37.009266 0.000000
v 399.042847 -18.279142 -0.000007
v 365.135162 31.508537 -0.000016
v 373.151276 35.679173 -0.000003
v 406.953949 0.644516 0.000002
v 372.271942 -53.402699 -0.000000
v 348.968567 34.087376 -0.000041
v 409.799927 22.977486 -0.000067
v 409.086090 44.427208 -0.000020
v 378.043610 34.350426 -0.000061
v 392.626526 43.252960 0.000001
v 380.796936 -29.355923 0.000000
v 314.166565 -13.013643 -0.000094
v 403.419067 67.473328 0.000001
v 308.266907 -31.861813 0.000001
v 293.251129 -37.027233 18.812904
v 311.709290 -31.155605 29.081253
v 318.737305 -19.543533 0.000001
v 308.266907 -31.861813 -0.000001
v 302.303375 35.888901 18.477976
v 318.389313 21.075039 -0.000000
v 316.865723 25.609917 -0.000000
v 282.734589 44.540279 -0.000000
v 282.734589 44.540279 0.000000
v 265.102722 49.189678 24.111757
v 284.084503 39.593761 41.344975
v 287.767731 33.077198 50.845654
v 291.968170 24.869967 0.000000
v 241.554413 56.556137 -0.000001
v 152.131927 69.780281 -0.000000
v 179.407944 67.849937 -0.000001
v 127.347046 71.045349 30.337881
v 319.243774 2.947814 0.000000
v 210.411194 66.794662 60.111233
v 300.874908 7.458563 13.743426
v 318.463287 -11.619188 0.000000
v 314.166565 -13.013643 0.000001
v 325.342743 -23.263697 0.000001
v 358.263885 -34.925350 0.000001
v 380.796936 -29.355923 14.425844
v 377.118713 -27.056688 31.939909
v 342.951385 -14.695760 30.764307
v 328.548676 -11.999184 0.000001
v 340.625275 -31.204784 26.440346
v 361.304688 -20.115204 107.584763
v 267.147919 8.887691 111.839973
v 261.696198 14.047341 88.414551
v 284.879669 4.510458 81.872124
v 289.692749 7.089682 86.127350
v 284.198181 12.242585 105.297539
v 266.469238 16.620249 99.689545
v 264.481293 32.795845 101.745438
v 257.471039 37.555157 83.249496
v 283.554901 23.917919 75.786598
v 287.431915 23.987640 77.842491
v 280.372437 28.739220 94.282516
v 261.309601 37.618851 107.584763
v 267.147919 -15.228723 111.839951
v 261.696136 -20.419073 88.414558
v 284.879669 -10.700345 81.872131
v 289.692657 -13.225305 86.127342
v 284.198120 -18.422417 105.297562
v 266.469177 -22.950352 99.689636
v 264.481171 -39.101902 101.745506
v 257.470978 -43.885220 83.249550
v 283.554840 -30.085052 75.786667
v 287.431885 -30.101460 77.842583
v 280.372375 -34.892544 94.282639
v 261.309540 -43.907703 68.932472
v 311.819366 -2.977404 63.686111
v 299.018372 19.342979 67.693817
v 302.465027 14.655820 75.439629
v 296.636169 11.990067 75.439629
v 296.636169 11.990067 57.499207
v 300.089020 24.008619 52.676182
v 293.936218 30.712698 63.047668
v 299.345306 -25.331327 67.693794
v 302.464966 -20.654333 75.439651
v 296.636108 -18.059874 75.439651
v 296.636108 -18.059874 72.097519
v 294.436646 -25.293972 52.037800
v 294.263184 -36.683815 56.860756
v 300.416046 -29.962278 60.874218
v 288.088867 -38.116745 52.037800
v 294.263184 -36.683815 65.517738
v 293.965515 -31.632130 65.124771
v 293.245239 24.563967 60.733444
v 288.334076 30.560293 71.701180
v 294.071259 18.380711 52.676182
v 293.936218 30.712698 0.000000
v 282.734589 43.570976 0.000000
v 265.102661 48.220348 50.845673
v 291.968231 23.900673 0.000000
v 241.554382 55.586845 -0.000001
v 152.360840 68.838417 -0.000000
v 179.636902 66.908073 -0.000001
v 127.537910 70.260132 -0.000000
v 210.525681 65.839081 66.069649
v 270.726471 26.783382 60.111259
v 300.874847 6.489272 0.630602
v 205.980560 -222.154022 -175.328873
v 161.216827 -222.414764 -174.414429
v 106.995758 -215.235672 -173.579971
v 57.466785 -192.348663 -182.258026
v 157.904373 -207.689224 -176.017578
v 201.916336 -187.845917 -175.285477
v 158.538925 -192.022064 -178.137604
v 94.601585 -203.552002 -174.032745
v 84.340027 -206.488358 -174.200134
v 94.228050 -194.520554 -176.365326
v 222.644394 -221.411255 -176.109772
v 207.522339 -228.287018 -176.234055
v 214.600769 -146.476624 -176.059692
v 204.267563 -146.512451 -176.084717
v 205.334595 -27.465546 -176.209152
v 212.708344 -27.439957 -176.439209
v 225.848373 113.444229 -176.174301
v 210.091705 130.509430 -176.234161
v 213.770950 92.890915 -176.059814
v 203.437775 92.855118 -176.046448
v 202.573151 113.604736 -176.353531
v 221.859222 -196.978271 -176.274277
v 217.125229 -186.623993 -176.302612
v 218.881348 -208.087677 -181.842163
v 209.338058 -146.494873 -180.211075
v 208.952896 -27.452988 -181.842255
v 208.508270 92.872696 -183.661697
v 214.719452 -210.779572 -183.493988
v 214.965622 -200.617950 -185.418411
v 213.160110 110.851677 -183.531570
v 200.563843 -212.409943 -181.673599
v 214.474411 -225.911194 -182.288651
v 209.420990 -188.353058 -183.551483
v 201.472794 -200.320862 -168.293488
v 158.139969 -207.688385 -170.276199
v 94.734238 -203.551529 -170.451599
v 209.530258 -146.494202 -172.082779
v 209.090057 -27.452522 -170.451736
v 208.700470 92.873352 -168.807037
v 214.970062 -210.778717 -168.984131
v 215.210449 -200.617096 -167.036667
v 213.470261 110.852753 -168.459335
v 200.818146 -212.409058 -170.783936
v 214.658157 -225.910522 -170.003204
v 209.628296 -188.352325 -168.471497
v 201.727249 -200.319977 -182.288651
v 209.420990 -188.353058 -176.274277
v 217.125229 -186.623993 -176.017578
v 201.916336 -187.845917 -170.003204
v 209.628296 -188.352325 0.409740

vt 0.438236 0.023745
vt 0.386587 0.349698
vt 0.483976 0.036430
vt 0.451008 0.323049
vt 0.521949 0.042718
vt 0.482782 0.303336
vt 0.568057 0.040658
vt 0.558127 0.312312
vt 0.542975 0.043339
vt 0.520764 0.038301
vt 0.590774 0.300943
vt 0.591113 0.400149
vt 0.325256 0.013029
vt 0.301718 0.007628
vt 0.229709 0.429185
vt 0.245563 0.008084
vt 0.167646 0.511019
vt 0.093033 0.004754
vt 0.005398 0.063400
vt 0.945162 0.378533
vt 0.396379 0.680635
vt 0.323791 0.624327
vt 0.323789 0.740244
vt 0.323791 0.787222
vt 0.323791 0.570635
vt 0.323784 0.840066
vt 0.323791 0.529561
vt 0.323780 0.257362
vt 0.410827 0.310492
vt 0.422015 0.074227
vt 0.381372 0.136440
vt 0.383418 0.200504
vt 0.390885 0.150872
vt 0.561198 0.485133
vt 0.350076 0.996312
vt 0.512232 0.977620
vt 0.299578 0.687498
vt 0.630364 0.605388
vt 0.632950 0.504318
vt 0.461374 0.450632
vt 0.429792 0.805769
vt 0.455368 0.740352
vt 0.469267 0.678133
vt 0.475918 0.569630
vt 0.468817 0.558367
vt 0.356212 0.712630
vt 0.363641 0.610742
vt 0.361900 0.465589
vt 0.408915 0.526253
vt 0.425419 0.795840
vt 0.431353 0.732721
vt 0.445185 0.675159
vt 0.451907 0.580110
vt 0.445686 0.516169
vt 0.444295 0.619359
vt 0.332838 0.537149
vt 0.398495 0.724886
vt 0.407558 0.782283
vt 0.400131 0.858075
vt 0.384433 0.668432
vt 0.412691 0.595218
vt 0.409574 0.444078
vt 0.588325 0.873722
vt 0.583118 0.516326
vt 0.619212 0.977382
vt 0.276235 0.193496
vt 0.453303 0.253829
vt 0.456433 0.302130
vt 0.468056 0.082146
vt 0.445320 0.137068
vt 0.446741 0.186213
vt 0.486743 0.289646
vt 0.512733 0.086392
vt 0.480936 0.133952
vt 0.483288 0.220899
vt 0.560441 0.268820
vt 0.562957 0.093706
vt 0.559957 0.131013
vt 0.561347 0.227549
vt 0.534104 0.277734
vt 0.536388 0.092319
vt 0.521193 0.131540
vt 0.522507 0.093648
vt 0.589370 0.180888
vt 0.527127 0.559811
vt 0.334709 0.223443
vt 0.589688 0.258867
vt 0.588826 0.278341
vt 0.295966 0.341236
vt 0.308751 0.068270
vt 0.297492 0.139479
vt 0.293427 0.209510
vt 0.290185 0.298931
vt 0.198869 0.370852
vt 0.217183 0.067313
vt 0.225879 0.140795
vt 0.221382 0.220153
vt 0.188671 0.069323
vt 0.166464 0.144526
vt 0.167580 0.342600
vt 0.014369 0.435684
vt 0.054500 0.075686
vt 0.005061 0.158086
vt 0.005028 0.249608
vt 0.004774 0.259589
vt 0.374713 0.322114
vt 0.382443 0.491015
vt 0.358888 0.777507
vt 0.373692 0.662728
vt 0.363764 0.662986
vt 0.334526 0.986775
vt 0.699838 0.980078
vt 0.681309 0.970823
vt 0.696307 0.964856
vt 0.682709 0.991295
vt 0.727856 0.978656
vt 0.729015 0.909830
vt 0.687152 0.896932
vt 0.701073 0.920593
vt 0.693035 0.990548
vt 0.973325 0.975167
vt 0.997370 0.973688
vt 0.971133 0.947179
vt 0.962821 0.933030
vt 0.959357 0.946142
vt 0.974398 0.930807
vt 0.966339 0.953365
vt 0.958575 0.957127
vt 0.976014 0.939771
vt 0.982789 0.926800
vt 0.972120 0.945044
vt 0.682446 0.940622
vt 0.697240 0.956581
vt 0.695701 0.927203
vt 0.680456 0.909687
vt 0.710785 0.928481
vt 0.719914 0.934728
vt 0.729604 0.922897
vt 0.735085 0.888846
vt 0.734919 0.897956
vt 0.721242 0.988912
vt 0.996707 0.976214
vt 0.947311 0.930464
vt 0.772197 0.935242
vt 0.765918 0.934845
vt 0.751541 0.925095
vt 0.755228 0.959748
vt 0.746418 0.962132
vt 0.772813 0.959623
vt 0.766522 0.958695
vt 0.729005 0.975517
vt 0.930326 0.982754
vt 0.766286 0.977389
vt 0.760937 0.996676
vt 0.930327 0.979207
vt 0.746143 0.977374
vt 0.656923 0.962520
vt 0.657958 0.944802
vt 0.657172 0.927998
vt 0.656168 0.913058
vt 0.655991 0.895910
vt 0.657722 0.979038
vt 0.623412 0.963385
vt 0.624947 0.927155
vt 0.622598 0.944261
vt 0.623883 0.910888
vt 0.622924 0.890541
vt 0.625242 0.845128
vt 0.526894 0.952512
vt 0.465773 0.468310
vt 0.532874 0.757049
vt 0.556005 0.683998
vt 0.566512 0.539189
vt 0.554859 0.613626
vt 0.564542 0.621857
vt 0.198205 0.624253
vt 0.264429 0.674312
vt 0.198176 0.680440
vt 0.271396 0.740093
vt 0.250258 0.786954
vt 0.282556 0.722066
vt 0.340700 0.653980
vt 0.703226 0.646816
vt 0.728805 0.433102
vt 0.797981 0.482630
vt 0.805996 0.503085
vt 0.810297 0.502072
vt 0.757822 0.524188
vt 0.775062 0.547292
vt 0.721684 0.558213
vt 0.741281 0.590355
vt 0.657197 0.601278
vt 0.703196 0.604491
vt 0.727598 0.671016
vt 0.656916 0.521414
vt 0.677127 0.502072
vt 0.757822 0.524188
vt 0.775062 0.521414
vt 0.677127 0.547292
vt 0.721684 0.558213
vt 0.741281 0.601278
vt 0.703196 0.604491
vt 0.727598 0.590355
vt 0.657197 0.464769
vt 0.728357 0.464769
vt 0.728357 0.152419
vt 0.991077 0.355587
vt 0.668386 0.123022
vt 0.949111 0.109431
vt 0.701989 0.165907
vt 0.672789 0.222329
vt 0.657101 0.292278
vt 0.657188 0.089157
vt 0.840600 0.107040
vt 0.898768 0.064474
vt 0.801350 0.060118
vt 0.731621 0.086251
vt 0.828505 0.097635
vt 0.858535 0.417722
vt 0.697391 0.466591
vt 0.946052 0.003146
vt 0.767588 0.918378
vt 0.969338 0.569875
vt 0.977283 0.512371
vt 0.947953 0.768418
vt 0.003489 0.667662
vt 0.002967 0.572128
vt 0.003535 0.413802
vt 0.003804 0.486833
vt 0.004129 0.997768
vt 0.109867 0.995813
vt 0.033109 0.999154
vt 0.069700 0.417600
vt 0.960214 0.262789
vt 0.933893 0.388572
vt 0.921913 0.197693
vt 0.964088 0.409091
vt 0.742522 0.441208
vt 0.901238 0.410457
vt 0.832165 0.407647
vt 0.798552 0.350241
vt 0.704318 0.351740
vt 0.844961 0.352507
vt 0.804585 0.360333
vt 0.877158 0.353433
vt 0.754248 0.178131
vt 0.918239 0.275065
vt 0.889136 0.187330
vt 0.763099 0.134822
vt 0.767536 0.230630
vt 0.706518 0.179074
vt 0.717515 0.225309
vt 0.899217 0.259589
vt 0.841310 0.293922
vt 0.706648 0.148692
vt 0.840214 0.199095
vt 0.819931 0.307349
vt 0.840447 0.319340
vt 0.887927 0.159099
vt 0.877352 0.212519
vt 0.855996 0.080787
vt 0.764765 0.140659
vt 0.794704 0.249091
vt 0.806605 0.239339
vt 0.752539 0.301565
vt 0.802154 0.296202
vt 0.748693 0.115124
vt 0.831841 0.125707
vt 0.737088 0.107796
vt 0.809181 0.422933
vt 0.867978 0.879296
vt 0.910474 0.920981
vt 0.867512 0.948187
vt 0.903388 0.851077
vt 0.831007 0.841175
vt 0.947449 0.955858
vt 0.815824 0.991940
vt 0.845639 0.868167
vt 0.757471 0.705939
vt 0.810513 0.784730
vt 0.809537 0.781357
vt 0.854496 0.329261
vt 0.924180 0.709610
vt 0.849915 0.785801
vt 0.735626 0.653113
vt 0.881526 0.609368
vt 0.922314 0.638261
vt 0.818575 0.557850
vt 0.881157 0.690582
vt 0.734578 0.459802
vt 0.889387 0.610223
vt 0.751908 0.502431
vt 0.840665 0.846768
vt 0.080417 0.856314
vt 0.193729 0.771058
vt 0.078264 0.777999
vt 0.218915 0.675240
vt 0.158460 0.577155
vt 0.103201 0.489479
vt 0.048055 0.599975
vt 0.840329 0.851512
vt 0.146108 0.776203
vt 0.152493 0.923406
vt 0.789321 0.781924
vt 0.886945 0.713387
vt 0.885906 0.548329
vt 0.791819 0.887381
vt 0.836321 0.849509
vt 0.877844 0.354805
vt 0.901762 0.671098
vt 0.075981 0.574406
vt 0.066113 0.832002
vt 0.258119 0.883274
vt 0.231247 0.930732
vt 0.279504 0.887196
vt 0.316197 0.961427
vt 0.036305 0.960648
vt 0.106083 0.961081
vt 0.068421 0.027686
vt 0.965148 0.026467
vt 0.820431 0.778338
vt 0.942858 0.765351
vt 0.933379 0.765408
vt 0.952486 0.710025
vt 0.933698 0.710081
vt 0.952805 0.697095
vt 0.943326 0.027686
vt 0.965148 0.026467
vt 0.820431 0.765351
vt 0.933379 0.765408
vt 0.952486 0.778338
vt 0.942858 0.710025
vt 0.933698 0.710081
vt 0.952805 0.697095
vt 0.943326 0.027686
vt 0.965148 0.026467
vt 0.820431 0.778338
vt 0.942858 0.765351
vt 0.933379 0.765408
vt 0.952486 0.710025
vt 0.933698 0.710081
vt 0.952805 0.697095
vt 0.943326 0.027686
vt 0.965148 0.026467
vt 0.820431 0.765351
vt 0.933379 0.765408
vt 0.952486 0.778338
vt 0.942858 0.710025
vt 0.933698 0.710081
vt 0.952805 0.697095
vt 0.943326 0.065301
vt 0.684143 0.037608
vt 0.624745 0.020860
vt 0.669215 0.082681
vt 0.641758 0.051304
vt 0.655755 0.028413
vt 0.610102 0.003534
vt 0.638399 0.003624
vt 0.674931 0.034483
vt 0.702308 0.070924
vt 0.701953 0.068072
vt 0.610254 0.096530
vt 0.634961 0.096729
vt 0.672164 0.721260
vt 0.711924 0.787987
vt 0.707601 0.494615
vt 0.957488 0.521592
vt 0.997736 0.837816
vt 0.689731 0.842952
vt 0.709029 0.497730
vt 0.987908 0.472608
vt 0.992501 0.751433
vt 0.699623 0.751591
vt 0.718980 0.721260
vt 0.711924 0.787987
vt 0.707601 0.494615
vt 0.957488 0.521592
vt 0.997736 0.837816
vt 0.689731 0.855152
vt 0.682443 0.497730
vt 0.987908 0.817499
vt 0.620355 0.751433
vt 0.699623 0.751591
vt 0.718980 0.337739
vt 0.966645 0.352390
vt 0.957978 0.318655
vt 0.957143 0.326332
vt 0.984272 0.307242
vt 0.999130 0.323835
vt 0.999160 0.307861
vt 0.984987 0.331413
vt 0.973916 0.310684
vt 0.964069 0.309264
vt 0.972860 0.285474
vt 0.985385 0.284693
vt 0.999189 0.283950
vt 0.955544 0.286996
vt 0.971681 0.253564
vt 0.966704 0.255917
vt 0.985806 0.226648
vt 0.976906 0.227326
vt 0.987628 0.200723
vt 0.987086 0.226653
vt 0.999181 0.201432
vt 0.999071 0.179539
vt 0.998236 0.254901
vt 0.999285 0.299917
vt 0.948306 0.333394
vt 0.946999 0.316238
vt 0.937937 0.569344
vt 0.249303 0.242257
vt 0.500459 0.844674
vt 0.003808 0.141787
vt 0.634631 0.188598
vt 0.634700 0.996620
vt 0.413602 0.895299
vt 0.403349 0.323280
vt 0.553095 0.332460
vt 0.628353 0.339350
vt 0.544406 0.438674
vt 0.598613 0.421560
vt 0.599532 0.908454
vt 0.581146 0.952383
vt 0.553830 0.916180
vt 0.567488 0.996666
vt 0.366525 0.996571
vt 0.313559 0.895401
vt 0.366765 0.895192
vt 0.329761 0.395568
vt 0.670264 0.395937
vt 0.589161 0.410554
vt 0.659893 0.410790
vt 0.580086 0.454090
vt 0.722047 0.481309
vt 0.653828 0.437077
vt 0.724114 0.464568
vt 0.655293 0.996311
vt 0.581146 0.952382
vt 0.611839 0.988585
vt 0.567488 0.952382
vt 0.592782 0.996666
vt 0.366525 0.895401
vt 0.366765 0.395937
vt 0.589161 0.410790
vt 0.580086 0.481309
vt 0.653828 0.464568
vt 0.655293 0.952382
vt 0.611839 0.952382
vt 0.592782 0.236874
vt 0.634709 0.314806
vt 0.608663 0.239376
vt 0.608645 0.275178
vt 0.634692 0.278748
vt 0.608651 0.193759
vt 0.608603 0.277331
vt 0.634621 0.281066
vt 0.608564 0.246427
vt 0.634621 0.249094
vt 0.608563 0.212143
vt 0.634622 0.215335
vt 0.608568 0.173580
vt 0.634628 0.174961
vt 0.608577 0.140567
vt 0.608579 0.108364
vt 0.608669 0.323049
vt 0.521949 0.042718
vt 0.482782 0.740244
vt 0.323791 0.257362
vt 0.410827 0.310492
vt 0.422015 0.074227
vt 0.381372 0.136440
vt 0.383418 0.200504
vt 0.390885 0.150872
vt 0.561198 0.485133
vt 0.350076 0.996312
vt 0.512232 0.977620
vt 0.299578 0.687498
vt 0.630364 0.605388
vt 0.632950 0.504318
vt 0.461374 0.450632
vt 0.429792 0.805769
vt 0.455368 0.740352
vt 0.469267 0.678133
vt 0.475918 0.569630
vt 0.468817 0.558367
vt 0.356212 0.712630
vt 0.363641 0.610742
vt 0.361900 0.465589
vt 0.408915 0.526253
vt 0.425419 0.795840
vt 0.431353 0.732721
vt 0.445185 0.675159
vt 0.451907 0.580110
vt 0.445686 0.516169
vt 0.444295 0.619359
vt 0.332838 0.537149
vt 0.398495 0.724886
vt 0.407558 0.782283
vt 0.400131 0.858075
vt 0.384433 0.668432
vt 0.412691 0.595218
vt 0.409574 0.444078
vt 0.588325 0.873722
vt 0.583118 0.516326
vt 0.619212 0.977382
vt 0.276235 0.193496
vt 0.453303 0.253829
vt 0.456433 0.302130
vt 0.468056 0.082146
vt 0.445320 0.137068
vt 0.446741 0.186213
vt 0.486743 0.289646
vt 0.512733 0.086392
vt 0.480936 0.133952
vt 0.483288 0.220899
vt 0.560441 0.268820
vt 0.562957 0.093706
vt 0.559957 0.131013
vt 0.561347 0.227549
vt 0.534104 0.277734
vt 0.536388 0.092319
vt 0.521193 0.131540
vt 0.522507 0.093648
vt 0.589370 0.180888
vt 0.527127 0.559811
vt 0.334709 0.223443
vt 0.589688 0.258867
vt 0.588826 0.278341
vt 0.295966 0.341236
vt 0.308751 0.068270
vt 0.297492 0.139479
vt 0.293427 0.209510
vt 0.290185 0.298931
vt 0.198869 0.370852
vt 0.217183 0.067313
vt 0.225879 0.140795
vt 0.221382 0.220153
vt 0.188671 0.069323
vt 0.166464 0.144526
vt 0.167580 0.342600
vt 0.014369 0.435684
vt 0.054500 0.075686
vt 0.005061 0.158086
vt 0.005028 0.249608
vt 0.004774 0.259589
vt 0.374713 0.322114
vt 0.382443 0.491015
vt 0.358888 0.777507
vt 0.373692 0.662728
vt 0.363764 0.662986
vt 0.334526 0.986775
vt 0.699838 0.980078
vt 0.681309 0.970823
vt 0.696307 0.964856
vt 0.682709 0.991295
vt 0.727856 0.978656
vt 0.729015 0.909830
vt 0.687152 0.896932
vt 0.701073 0.920593
vt 0.693035 0.990548
vt 0.973325 0.975167
vt 0.997370 0.973688
vt 0.971133 0.947179
vt 0.962821 0.933030
vt 0.959357 0.946142
vt 0.974398 0.930807
vt 0.966339 0.953365
vt 0.958575 0.957127
vt 0.976014 0.939771
vt 0.982789 0.926800
vt 0.972120 0.945044
vt 0.682446 0.940622
vt 0.697240 0.956581
vt 0.695701 0.927203
vt 0.680456 0.909687
vt 0.710785 0.928481
vt 0.719914 0.934728
vt 0.729604 0.922897
vt 0.735085 0.888846
vt 0.734919 0.897956
vt 0.721242 0.988912
vt 0.996707 0.976214
vt 0.947311 0.930464
vt 0.772197 0.935242
vt 0.765918 0.934845
vt 0.751541 0.925095
vt 0.755228 0.959748
vt 0.746418 0.962132
vt 0.772813 0.959623
vt 0.766522 0.958695
vt 0.729005 0.975517
vt 0.930326 0.982754
vt 0.766286 0.977389
vt 0.760937 0.996676
vt 0.930327 0.979207
vt 0.746143 0.977374
vt 0.656923 0.962520
vt 0.657958 0.944802
vt 0.657172 0.927998
vt 0.656168 0.913058
vt 0.655991 0.895910
vt 0.657722 0.979038
vt 0.623412 0.963385
vt 0.624947 0.927155
vt 0.622598 0.944261
vt 0.623883 0.910888
vt 0.622924 0.890541
vt 0.625242 0.845128
vt 0.526894 0.952512
vt 0.465773 0.468310
vt 0.532874 0.757049
vt 0.556005 0.683998
vt 0.566512 0.539189
vt 0.554859 0.613626
vt 0.564542 0.621857
vt 0.198205 0.624253
vt 0.264429 0.674312
vt 0.198176 0.680440
vt 0.271396 0.740093
vt 0.250258 0.786954
vt 0.282556 0.722066
vt 0.340700 0.653980
vt 0.703226 0.646816
vt 0.728805 0.433102
vt 0.797981 0.482630
vt 0.805996 0.503085
vt 0.810297 0.502072
vt 0.757822 0.524188
vt 0.775062 0.547292
vt 0.721684 0.558213
vt 0.741281 0.590355
vt 0.657197 0.601278
vt 0.703196 0.604491
vt 0.727598 0.671016
vt 0.656916 0.521414
vt 0.677127 0.502072
vt 0.757822 0.524188
vt 0.775062 0.521414
vt 0.677127 0.547292
vt 0.721684 0.558213
vt 0.741281 0.601278
vt 0.703196 0.604491
vt 0.727598 0.590355
vt 0.657197 0.464769
vt 0.728357 0.464769
vt 0.728357 0.417600
vt 0.960214 0.262789
vt 0.933893 0.388572
vt 0.921913 0.197693
vt 0.964088 0.409091
vt 0.742522 0.441208
vt 0.901238 0.410457
vt 0.832165 0.407647
vt 0.798552 0.350241
vt 0.704318 0.351740
vt 0.844961 0.352507
vt 0.804585 0.360333
vt 0.877158 0.353433
vt 0.754248 0.178131
vt 0.918239 0.275065
vt 0.889136 0.187330
vt 0.763099 0.134822
vt 0.767536 0.230630
vt 0.706518 0.179074
vt 0.717515 0.225309
vt 0.899217 0.259589
vt 0.841310 0.293922
vt 0.706648 0.148692
vt 0.840214 0.199095
vt 0.819931 0.307349
vt 0.840447 0.319340
vt 0.887927 0.159099
vt 0.877352 0.212519
vt 0.855996 0.080787
vt 0.764765 0.140659
vt 0.794704 0.249091
vt 0.806605 0.239339
vt 0.752539 0.301565
vt 0.802154 0.296202
vt 0.748693 0.115124
vt 0.831841 0.125707
vt 0.737088 0.107796
vt 0.809181 0.422933
vt 0.867978 0.879296
vt 0.910474 0.920981
vt 0.867512 0.948187
vt 0.903388 0.851077
vt 0.831007 0.841175
vt 0.947449 0.955858
vt 0.815824 0.991940
vt 0.845639 0.868167
vt 0.757471 0.705939
vt 0.810513 0.784730
vt 0.809537 0.781357
vt 0.854496 0.329261
vt 0.924180 0.709610
vt 0.849915 0.785801
vt 0.735626 0.653113
vt 0.881526 0.609368
vt 0.922314 0.638261
vt 0.818575 0.557850
vt 0.881157 0.690582
vt 0.734578 0.459802
vt 0.889387 0.610223
vt 0.751908 0.502431
vt 0.840665 0.846768
vt 0.080417 0.856314
vt 0.193729 0.771058
vt 0.078264 0.777999
vt 0.218915 0.675240
vt 0.158460 0.577155
vt 0.103201 0.489479
vt 0.048055 0.599975
vt 0.840329 0.851512
vt 0.146108 0.776203
vt 0.152493 0.923406
vt 0.789321 0.781924
vt 0.886945 0.713387
vt 0.885906 0.548329
vt 0.791819 0.887381
vt 0.836321 0.849509
vt 0.877844 0.354805
vt 0.901762 0.671098
vt 0.075981 0.574406
vt 0.066113 0.832002
vt 0.258119 0.883274
vt 0.231247 0.930732
vt 0.279504 0.887196
vt 0.316197 0.961427
vt 0.036305 0.960648
vt 0.106083 0.961081
vt 0.068421 0.027686
vt 0.965148 0.026467
vt 0.820431 0.778338
vt 0.942858 0.765351
vt 0.933379 0.765408
vt 0.952486 0.710025
vt 0.933698 0.710081
vt 0.952805 0.697095
vt 0.943326 0.027686
vt 0.965148 0.026467
vt 0.820431 0.765351
vt 0.933379 0.765408
vt 0.952486 0.778338
vt 0.942858 0.710025
vt 0.933698 0.710081
vt 0.952805 0.697095
vt 0.943326 0.027686
vt 0.965148 0.026467
vt 0.820431 0.778338
vt 0.942858 0.765351
vt 0.933379 0.765408
vt 0.952486 0.710025
vt 0.933698 0.710081
vt 0.952805 0.697095
vt 0.943326 0.027686
vt 0.965148 0.026467
vt 0.820431 0.765351
vt 0.933379 0.765408
vt 0.952486 0.778338
vt 0.942858 0.710025
vt 0.933698 0.710081
vt 0.952805 0.697095
vt 0.943326 0.065301
vt 0.684143 0.037608
vt 0.624745 0.020860
vt 0.669215 0.082681
vt 0.641758 0.051304
vt 0.655755 0.028413
vt 0.610102 0.003534
vt 0.638399 0.003624
vt 0.674931 0.034483
vt 0.702308 0.070924
vt 0.701953 0.068072
vt 0.610254 0.096530
vt 0.634961 0.096729
vt 0.672164 0.721260
vt 0.711924 0.787987
vt 0.707601 0.494615
vt 0.957488 0.521592
vt 0.997736 0.837816
vt 0.689731 0.842952
vt 0.709029 0.497730
vt 0.987908 0.472608
vt 0.992501 0.751433
vt 0.699623 0.751591
vt 0.718980 0.721260
vt 0.711924 0.787987
vt 0.707601 0.494615
vt 0.957488 0.521592
vt 0.997736 0.837816
vt 0.689731 0.855152
vt 0.682443 0.497730
vt 0.987908 0.817499
vt 0.620355 0.751433
vt 0.699623 0.751591
vt 0.718980 0.337739
vt 0.966645 0.352390
vt 0.957978 0.318655
vt 0.957143 0.326332
vt 0.984272 0.307861
vt 0.984987 0.331413
vt 0.973916 0.310684
vt 0.964069 0.309264
vt 0.972860 0.285474
vt 0.985385 0.283950
vt 0.955544 0.286996
vt 0.971681 0.253564
vt 0.966704 0.255917
vt 0.985806 0.226648
vt 0.976906 0.227326
vt 0.987628 0.200723
vt 0.987086 0.299917
vt 0.948306 0.333394
vt 0.946999 0.316238
vt 0.937937 0.569344
vt 0.249303 0.353707
vt 0.527022 0.395469
vt 0.478493 0.139549
vt 0.592391 0.978029
vt 0.253673 0.994819
vt 0.263178 0.995305
vt 0.290409 0.962442
vt 0.294891 0.956865
vt 0.278473 0.961456
vt 0.261344 0.898096
vt 0.423368 0.877385
vt 0.407513 0.838805
vt 0.352813 0.843423
vt 0.361573 0.781484
vt 0.364933 0.195964
vt 0.587810 0.196519
vt 0.561275 0.083425
vt 0.985955 0.064021
vt 0.997435 0.063051
vt 0.892045 0.080482
vt 0.901143 0.096681
vt 0.916574 0.106881
vt 0.939847 0.102444
vt 0.965991 0.483477
vt 0.383917 0.997510
vt 0.946533 0.998741
vt 0.977001 0.966252
vt 0.994154 0.949893
vt 0.989448 0.916304
vt 0.724574 0.889008
vt 0.713665 0.881652
vt 0.732625 0.906418
vt 0.728958 0.891244
vt 0.740705 0.882024
vt 0.740767 0.953693
vt 0.945463 0.994539
vt 0.677769 0.913573
vt 0.678659 0.953769
vt 0.929233 0.976201
vt 0.914601 0.954912
vt 0.916673 0.989368
vt 0.747159 0.996229
vt 0.918891 0.898077
vt 0.680627 0.991940
vt 0.656217 0.996800
vt 0.624458 0.766696
vt 0.620237 0.586819
vt 0.210464 0.383487
vt 0.447769 0.392581
vt 0.422783 0.409741
vt 0.429029 0.400647
vt 0.454015 0.400948
vt 0.399793 0.418109
vt 0.406039 0.409770
vt 0.375558 0.426930
vt 0.381804 0.419033
vt 0.350108 0.436193
vt 0.356354 0.433102
vt 0.797981 0.482630
vt 0.805996 0.503085
vt 0.810297 0.392581
vt 0.422783 0.383487
vt 0.447769 0.409741
vt 0.429029 0.400647
vt 0.454015 0.400948
vt 0.399793 0.418109
vt 0.406039 0.409770
vt 0.375558 0.426930
vt 0.381804 0.671016
vt 0.656916 0.653980
vt 0.703226 0.646816
vt 0.728805 0.419033
vt 0.350108 0.436193
vt 0.356354 0.883078
vt 0.988929 0.387229
vt 0.954541 0.793260
vt 0.920101 0.414952
vt 0.991175 0.650182
vt 0.948546 0.612249
vt 0.998097 0.900790
vt 0.003648 0.909236
vt 0.084292 0.926417
vt 0.140387 0.947815
vt 0.179772 0.714846
vt 0.916604 0.997363
vt 0.226723 0.990395
vt 0.001524 0.959565
vt 0.011270 0.987846
vt 0.157296 0.956468
vt 0.144681 0.918404
vt 0.065954 0.922257
vt 0.035013 0.929600
vt 0.108390 0.050696
vt 0.965050 0.027971
vt 0.997694 0.049478
vt 0.820334 0.027132
vt 0.787187 0.003103
vt 0.820528 0.004321
vt 0.965245 0.050696
vt 0.965050 0.027971
vt 0.997694 0.049478
vt 0.820334 0.027132
vt 0.787187 0.003103
vt 0.820528 0.004321
vt 0.965245 0.050696
vt 0.965050 0.027971
vt 0.997694 0.049478
vt 0.820334 0.027132
vt 0.787187 0.003103
vt 0.820528 0.004321
vt 0.965245 0.050696
vt 0.965050 0.027971
vt 0.997694 0.049478
vt 0.820334 0.027132
vt 0.787187 0.003103
vt 0.820528 0.004321
vt 0.965245 0.051318
vt 0.655749 0.512805
vt 0.969887 0.529888
vt 0.972520 0.541897
vt 0.997926 0.681077
vt 0.647704 0.792500
vt 0.723570 0.466700
vt 0.962559 0.512805
vt 0.969887 0.529888
vt 0.972520 0.541897
vt 0.997926 0.681077
vt 0.647704 0.723274
vt 0.637713 0.842952
vt 0.709029 0.792500
vt 0.723570 0.472608
vt 0.992501 0.466700
vt 0.962559 0.767273
vt 0.641066 0.767273
vt 0.641066 0.817499
vt 0.620355 0.723274
vt 0.637713 0.855152
vt 0.682443 0.337739
vt 0.966645 0.318655
vt 0.957143 0.352390
vt 0.957978 0.997223
vt 0.480791 0.967678
vt 0.450601 0.997868
vt 0.421056 0.533077
vt 0.642042 0.496967
vt 0.663127 0.475879
vt 0.627019 0.916180
vt 0.567488 0.952383
vt 0.553830 0.895299
vt 0.403349 0.996620
vt 0.413602 0.895192
vt 0.329761 0.996571
vt 0.313559 0.332460
vt 0.628353 0.395568
vt 0.670264 0.410554
vt 0.659893 0.454090
vt 0.722047 0.437077
vt 0.724114 0.996311
vt 0.581146 0.988585
vt 0.567488 0.323280
vt 0.553095 0.339350
vt 0.544406 0.967678
vt 0.450601 0.997223
vt 0.480791 0.997868
vt 0.421056 0.421560
vt 0.599532 0.438674
vt 0.598613 0.908454
vt 0.581146 0.496967
vt 0.663127 0.533077
vt 0.642042 0.475879
vt 0.627019 0.310435
vt 0.634700 0.314113
vt 0.608567 0.307986
vt 0.634617 0.107680
vt 0.634717 0.353707
vt 0.527022 0.395469
vt 0.478493 0.139549
vt 0.592391 0.978029
vt 0.253673 0.994819
vt 0.263178 0.995305
vt 0.290409 0.962442
vt 0.294891 0.956865
vt 0.278473 0.961456
vt 0.261344 0.898096
vt 0.423368 0.877385
vt 0.407513 0.843423
vt 0.361573 0.838805
vt 0.352813 0.781484
vt 0.364933 0.349698
vt 0.483976 0.369398
vt 0.438236 0.023745
vt 0.386587 0.036430
vt 0.451008 0.242257
vt 0.500459 0.312312
vt 0.542975 0.043339
vt 0.520764 0.040658
vt 0.558127 0.038301
vt 0.590774 0.303336
vt 0.568057 0.300943
vt 0.591113 0.195964
vt 0.587810 0.196519
vt 0.561275 0.378533
vt 0.396379 0.013029
vt 0.301718 0.400149
vt 0.325256 0.429185
vt 0.245563 0.007628
vt 0.229709 0.008084
vt 0.167646 0.511019
vt 0.093033 0.004754
vt 0.005398 0.063400
vt 0.945162 0.083425
vt 0.985955 0.064021
vt 0.997435 0.063051
vt 0.892045 0.080482
vt 0.901143 0.096681
vt 0.916574 0.106881
vt 0.939847 0.102444
vt 0.965991 0.483477
vt 0.383917 0.997510
vt 0.946533 0.998741
vt 0.977001 0.966252
vt 0.994154 0.949893
vt 0.989448 0.916304
vt 0.724574 0.889008
vt 0.713665 0.881652
vt 0.732625 0.906418
vt 0.728958 0.891244
vt 0.740705 0.882024
vt 0.740767 0.953693
vt 0.945463 0.994539
vt 0.677769 0.913573
vt 0.678659 0.953769
vt 0.929233 0.976201
vt 0.914601 0.954912
vt 0.916673 0.989368
vt 0.747159 0.996229
vt 0.918891 0.898077
vt 0.680627 0.991940
vt 0.656217 0.996800
vt 0.624458 0.766696
vt 0.620237 0.680635
vt 0.323791 0.624327
vt 0.323789 0.570635
vt 0.323784 0.840066
vt 0.323791 0.787222
vt 0.323791 0.586819
vt 0.210464 0.529561
vt 0.323780 0.392581
vt 0.422783 0.383487
vt 0.447769 0.409741
vt 0.429029 0.400647
vt 0.454015 0.400948
vt 0.399793 0.418109
vt 0.406039 0.409770
vt 0.375558 0.426930
vt 0.381804 0.419033
vt 0.350108 0.436193
vt 0.356354 0.433102
vt 0.797981 0.482630
vt 0.805996 0.503085
vt 0.810297 0.383487
vt 0.447769 0.392581
vt 0.422783 0.409741
vt 0.429029 0.400647
vt 0.454015 0.400948
vt 0.399793 0.418109
vt 0.406039 0.409770
vt 0.375558 0.426930
vt 0.381804 0.671016
vt 0.656916 0.653980
vt 0.703226 0.646816
vt 0.728805 0.419033
vt 0.350108 0.436193
vt 0.356354 0.123022
vt 0.949111 0.152419
vt 0.991077 0.292278
vt 0.657188 0.222329
vt 0.657101 0.097635
vt 0.858535 0.089157
vt 0.840600 0.165907
vt 0.672789 0.355587
vt 0.668386 0.107040
vt 0.898768 0.109431
vt 0.701989 0.060118
vt 0.731621 0.086251
vt 0.828505 0.064474
vt 0.801350 0.417722
vt 0.697391 0.466591
vt 0.946052 0.003146
vt 0.767588 0.883078
vt 0.988929 0.918378
vt 0.969338 0.387229
vt 0.954541 0.793260
vt 0.920101 0.414952
vt 0.991175 0.569875
vt 0.977283 0.650182
vt 0.948546 0.612249
vt 0.998097 0.512371
vt 0.947953 0.900790
vt 0.003648 0.844674
vt 0.003808 0.909236
vt 0.084292 0.926417
vt 0.140387 0.947815
vt 0.179772 0.768418
vt 0.003489 0.486833
vt 0.004129 0.572128
vt 0.003535 0.413802
vt 0.003804 0.714846
vt 0.916604 0.667662
vt 0.002967 0.997363
vt 0.226723 0.959565
vt 0.011270 0.990395
vt 0.001524 0.995813
vt 0.033109 0.997768
vt 0.109867 0.987846
vt 0.157296 0.956468
vt 0.144681 0.918404
vt 0.065954 0.922257
vt 0.035013 0.999154
vt 0.069700 0.929600
vt 0.108390 0.050696
vt 0.965050 0.027971
vt 0.997694 0.049478
vt 0.820334 0.027132
vt 0.787187 0.003103
vt 0.820528 0.004321
vt 0.965245 0.050696
vt 0.965050 0.027971
vt 0.997694 0.049478
vt 0.820334 0.027132
vt 0.787187 0.003103
vt 0.820528 0.004321
vt 0.965245 0.050696
vt 0.965050 0.027971
vt 0.997694 0.049478
vt 0.820334 0.027132
vt 0.787187 0.003103
vt 0.820528 0.004321
vt 0.965245 0.050696
vt 0.965050 0.027971
vt 0.997694 0.049478
vt 0.820334 0.027132
vt 0.787187 0.003103
vt 0.820528 0.004321
vt 0.965245 0.051318
vt 0.655749 0.512805
vt 0.969887 0.529888
vt 0.972520 0.541897
vt 0.997926 0.681077
vt 0.647704 0.792500
vt 0.723570 0.466700
vt 0.962559 0.512805
vt 0.969887 0.529888
vt 0.972520 0.541897
vt 0.997926 0.681077
vt 0.647704 0.723274
vt 0.637713 0.842952
vt 0.709029 0.792500
vt 0.723570 0.472608
vt 0.992501 0.466700
vt 0.962559 0.767273
vt 0.641066 0.767273
vt 0.641066 0.817499
vt 0.620355 0.723274
vt 0.637713 0.855152
vt 0.682443 0.323835
vt 0.999160 0.307242
vt 0.999130 0.337739
vt 0.966645 0.284693
vt 0.999189 0.201432
vt 0.999071 0.226653
vt 0.999181 0.179539
vt 0.998236 0.254901
vt 0.999285 0.318655
vt 0.957143 0.352390
vt 0.957978 1.000000
vt 0.174297 0.552973
vt 0.225305 0.498960
vt 0.286501 0.418979
vt 0.323930 0.517050
vt 0.209019 0.517819
vt 0.128929 0.486183
vt 0.189759 0.470121
vt 0.287193 0.467515
vt 0.304834 0.445689
vt 0.272469 0.611233
vt 0.139644 0.607951
vt 0.172115 0.675055
vt 0.967585 0.675587
vt 0.994535 0.739143
vt 0.994474 0.738633
vt 0.967808 0.826237
vt 0.955425 0.847467
vt 0.979700 0.802811
vt 0.966987 0.803778
vt 0.994495 0.827726
vt 0.998681 0.562863
vt 0.108167 0.646957
vt 0.967327 0.581838
vt 0.125653 0.675276
vt 0.980319 0.738903
vt 0.980229 0.803437
vt 0.979904 0.577830
vt 0.140113 0.553710
vt 0.126028 0.823537
vt 0.977787 0.566606
vt 0.161146 0.600680
vt 0.160580 0.646746
vt 0.980265 0.541552
vt 0.147778 0.517050
vt 0.209019 0.470121
vt 0.287193 0.675276
vt 0.980319 0.738903
vt 0.980229 0.803437
vt 0.979904 0.577830
vt 0.140113 0.553710
vt 0.126028 0.823537
vt 0.977787 0.566606
vt 0.161146 0.600680
vt 0.160580 0.646746
vt 0.980265 0.541552
vt 0.147778 0.523678
vt 0.117958 0.531431
vt 0.103054 0.646624
vt 0.994852 0.523678
vt 0.117958 1.000000

f 441/441 425/425 424/424
f 417/417 428/428 426/426
f 426/426 416/416 417/417
f 428/428 429/429 427/427
f 427/427 426/426 428/428
f 430/430 419/419 431/431
f 433/433 432/432 430/430
f 430/430 431/431 433/433
f 437/437 435/435 434/434
f 434/434 436/436 437/437
f 440/440 438/438 439/439
f 439/439 441/441 440/440
f 424/424 440/440 441/441
f 433/433 431/431 418/418
f 418/418 420/420 433/433
f 431/431 419/419 418/418
f 958/958 959/959 960/960
f 437/437 436/436 422/422
f 435/435 437/437 422/422
f 422/422 421/421 435/435
f 441/441 439/439 423/423
f 423/423 425/425 441/441
f 961/961 962/962 963/963
f 964/964 449/449 965/965
f 443/443 966/966 442/442
f 967/967 442/442 966/966
f 968/968 443/443 969/969
f 442/442 969/969 443/443
f 970/970 971/971 444/444
f 972/972 445/445 971/971
f 444/444 971/971 445/445
f 446/446 447/447 973/973
f 974/974 973/973 447/447
f 975/975 976/976 448/448
f 449/449 448/448 976/976
f 976/976 965/965 449/449
f 444/444 445/445 977/977
f 978/978 977/977 445/445
f 970/970 444/444 977/977
f 979/979 980/980 981/981
f 974/974 447/447 982/982
f 447/447 446/446 982/982
f 983/983 982/982 446/446
f 448/448 449/449 984/984
f 964/964 984/984 449/449
f 985/985 986/986 987/987
f 453/453 454/454 988/988
f 451/451 988/988 454/454
f 450/450 452/452 453/453
f 454/454 453/453 452/452
f 450/450 455/455 452/452
f 455/455 450/450 415/415
f 989/989 457/457 456/456
f 456/456 990/990 989/989
f 457/457 459/459 458/458
f 458/458 456/456 457/457
f 459/459 461/461 460/460
f 460/460 458/458 459/459
f 461/461 463/463 462/462
f 462/462 460/460 461/461
f 463/463 464/464 414/414
f 414/414 462/462 463/463
f 464/464 465/465 991/991
f 991/991 414/414 464/464
f 52/52 42/42 51/51
f 42/42 52/52 44/44
f 53/53 43/43 52/52
f 43/43 53/53 36/36
f 64/64 170/170 169/169
f 170/170 64/64 110/110
f 47/47 61/61 58/58
f 61/61 47/47 57/57
f 62/62 50/50 54/54
f 50/50 62/62 54/54
f 53/53 45/45 44/44
f 45/45 53/53 182/182
f 47/47 111/111 110/110
f 111/111 47/47 108/108
f 35/35 46/46 109/109
f 59/59 47/47 58/58
f 47/47 59/59 48/48
f 62/62 46/46 57/57
f 46/46 62/62 63/63
f 818/818 171/171 819/819
f 171/171 818/818 43/43
f 42/42 172/172 169/169
f 172/172 42/42 173/173
f 44/44 172/172 43/43
f 172/172 44/44 63/63
f 171/171 65/65 174/174
f 65/65 171/171 46/46
f 86/86 48/48 56/56
f 48/48 86/86 41/41
f 54/54 45/45 40/40
f 55/55 45/45 50/50
f 54/54 55/55 49/49
f 55/55 41/41 50/50
f 55/55 49/49 820/820
f 79/79 34/34 38/38
f 39/39 173/173 175/175
f 173/173 39/39 175/175
f 39/39 174/174 65/65
f 174/174 39/39 821/821
f 66/66 821/821 827/827
f 42/42 828/828 51/51
f 828/828 42/42 829/829
f 830/830 831/831 109/109
f 831/831 830/830 67/67
f 33/33 68/68 29/29
f 29/29 69/69 30/30
f 30/30 3/3 1/1
f 3/3 30/30 4/4
f 2/2 70/70 31/31
f 31/31 71/71 32/32
f 32/32 67/67 33/33
f 67/67 32/32 72/72
f 67/67 412/412 68/68
f 68/68 73/73 69/69
f 69/69 5/5 3/3
f 5/5 69/69 6/6
f 4/4 74/74 70/70
f 70/70 75/75 71/71
f 71/71 72/72 67/67
f 412/412 85/85 80/80
f 73/73 80/80 81/81
f 80/80 73/73 81/81
f 73/73 9/9 5/5
f 9/9 73/73 6/6
f 74/74 10/10 82/82
f 75/75 82/82 83/83
f 72/72 83/83 85/85
f 83/83 72/72 8/8
f 78/78 11/11 84/84
f 11/11 78/78 79/79
f 84/84 78/78 80/80
f 76/76 85/85 80/80
f 81/81 76/76 77/77
f 76/76 81/81 9/9
f 7/7 81/81 77/77
f 81/81 7/7 10/10
f 82/82 8/8 78/78
f 83/83 78/78 79/79
f 85/85 79/79 88/88
f 87/87 77/77 76/76
f 77/77 87/87 88/88
f 77/77 12/12 7/7
f 12/12 77/77 87/87
f 832/832 76/76 833/833
f 79/79 85/85 833/833
f 832/832 833/833 35/35
f 86/86 46/46 21/21
f 1/1 107/107 30/30
f 107/107 1/1 91/91
f 31/31 14/14 2/2
f 14/14 31/31 92/92
f 32/32 91/91 31/31
f 91/91 32/32 93/93
f 33/33 92/92 32/32
f 106/106 29/29 30/30
f 29/29 107/107 106/106
f 107/107 29/29 16/16
f 13/13 95/95 90/90
f 95/95 13/13 96/96
f 91/91 15/15 14/14
f 15/15 91/91 97/97
f 92/92 96/96 91/91
f 96/96 92/92 98/98
f 93/93 97/97 92/92
f 97/97 93/93 94/94
f 89/89 98/98 93/93
f 98/98 89/89 95/95
f 90/90 94/94 89/89
f 94/94 90/90 99/99
f 96/96 17/17 15/15
f 17/17 96/96 100/100
f 97/97 99/99 96/96
f 100/100 98/98 18/18
f 16/16 102/102 95/95
f 102/102 16/16 103/103
f 99/99 19/19 17/17
f 19/19 99/99 104/104
f 100/100 103/103 99/99
f 103/103 100/100 105/105
f 98/98 104/104 100/100
f 104/104 98/98 101/101
f 94/94 105/105 98/98
f 105/105 94/94 102/102
f 95/95 101/101 94/94
f 101/101 95/95 834/834
f 20/20 835/835 836/836
f 20/20 834/834 107/107
f 90/90 21/21 13/13
f 21/21 90/90 107/107
f 106/106 90/90 89/89
f 90/90 106/106 33/33
f 93/93 106/106 89/89
f 106/106 93/93 51/51
f 59/59 828/828 60/60
f 828/828 59/59 49/49
f 841/841 50/50 57/57
f 50/50 841/841 61/61
f 58/58 53/53 52/52
f 53/53 58/58 52/52
f 58/58 51/51 59/59
f 51/51 58/58 54/54
f 62/62 53/53 61/61
f 53/53 62/62 47/47
f 182/182 831/831 830/830
f 60/60 109/109 59/59
f 109/109 60/60 108/108
f 46/46 841/841 57/57
f 841/841 46/46 831/831
f 109/109 47/47 111/111
f 110/110 56/56 48/48
f 61/61 48/48 62/62
f 48/48 61/61 113/113
f 113/113 115/115 112/112
f 117/117 116/116 112/112
f 114/114 117/117 119/119
f 120/120 118/118 842/842
f 121/121 843/843 122/122
f 123/123 844/844 125/125
f 125/125 127/127 124/124
f 124/124 126/126 123/123
f 128/128 129/129 127/127
f 127/127 131/131 130/130
f 845/845 126/126 129/129
f 845/845 844/844 133/133
f 134/134 132/132 120/120
f 132/132 135/135 846/846
f 137/137 136/136 133/133
f 137/137 139/139 140/140
f 141/141 136/136 846/846
f 849/849 141/141 119/119
f 136/136 120/120 848/848
f 850/850 140/140 846/846
f 139/139 137/137 850/850
f 848/848 851/851 845/845
f 129/129 126/126 133/133
f 138/138 151/151 123/123
f 142/142 121/121 143/143
f 123/123 143/143 112/112
f 853/853 113/113 142/142
f 843/843 121/121 137/137
f 133/133 120/120 136/136
f 135/135 118/118 123/123
f 129/129 844/844 133/133
f 132/132 120/120 135/135
f 854/854 118/118 136/136
f 141/141 849/849 150/150
f 149/149 150/150 139/139
f 139/139 147/147 151/151
f 148/148 151/151 147/147
f 147/147 144/144 148/148
f 150/150 148/148 143/143
f 852/852 143/143 152/152
f 855/855 152/152 150/150
f 154/154 150/150 143/143
f 152/152 143/143 156/156
f 117/117 156/156 152/152
f 856/856 152/152 154/154
f 156/156 154/154 151/151
f 117/117 151/151 148/148
f 156/156 148/148 151/151
f 115/115 132/132 134/134
f 114/114 115/115 133/133
f 151/151 134/134 117/117
f 114/114 134/134 113/113
f 157/157 115/115 158/158
f 115/115 157/157 132/132
f 159/159 135/135 160/160
f 135/135 159/159 854/854
f 161/161 860/860 162/162
f 860/860 161/161 853/853
f 861/861 113/113 157/157
f 113/113 861/861 135/135
f 160/160 854/854 161/161
f 854/854 160/160 115/115
f 158/158 132/132 159/159
f 157/157 164/164 163/163
f 164/164 157/157 159/159
f 166/166 160/160 165/165
f 160/160 166/166 162/162
f 161/161 168/168 167/167
f 168/168 161/161 157/157
f 861/861 163/163 862/862
f 163/163 861/861 161/161
f 160/160 167/167 165/165
f 167/167 160/160 158/158
f 164/164 159/159 166/166
f 159/159 164/164 170/170
f 169/169 827/827 42/42
f 827/827 169/169 171/171
f 819/819 40/40 41/41
f 40/40 819/819 169/169
f 64/64 172/172 863/863
f 863/863 173/173 38/38
f 173/173 863/863 171/171
f 40/40 174/174 45/45
f 174/174 40/40 44/44
f 173/173 175/175 45/45
f 44/44 175/175 45/45
f 175/175 174/174 84/84
f 79/79 820/820 411/411
f 177/177 176/176 179/179
f 178/178 177/177 176/176
f 177/177 178/178 23/23
f 22/22 177/177 179/179
f 177/177 22/22 180/180
f 178/178 179/179 411/411
f 26/26 177/177 23/23
f 177/177 26/26 25/25
f 27/27 181/181 864/864
f 411/411 176/176 22/22
f 24/24 179/179 180/180
f 179/179 24/24 180/180
f 24/24 181/181 25/25
f 181/181 24/24 28/28
f 26/26 411/411 185/185
f 187/187 186/186 865/865
f 868/868 865/865 205/205
f 189/189 188/188 866/866
f 867/867 866/866 196/196
f 192/192 190/190 193/193
f 191/191 190/190 869/869
f 870/870 869/869 192/192
f 195/195 193/193 183/183
f 194/194 193/193 871/871
f 872/872 871/871 206/206
f 875/875 197/197 876/876
f 876/876 198/198 877/877
f 198/198 876/876 878/878
f 879/879 880/880 881/881
f 880/880 879/879 199/199
f 206/206 200/200 197/197
f 197/197 201/201 198/198
f 201/201 197/197 882/882
f 878/878 883/883 880/880
f 883/883 878/878 204/204
f 204/204 199/199 202/202
f 200/200 203/203 201/201
f 203/203 200/200 884/884
f 882/882 885/885 883/883
f 885/885 882/882 886/886
f 886/886 204/204 887/887
f 202/202 888/888 203/203
f 888/888 202/202 889/889
f 884/884 890/890 885/885
f 890/890 884/884 247/247
f 207/207 209/209 213/213
f 255/255 212/212 251/251
f 212/212 255/255 261/261
f 219/219 268/268 214/214
f 268/268 219/219 269/269
f 252/252 250/250 249/249
f 250/250 252/252 266/266
f 267/267 244/244 246/246
f 244/244 267/267 211/211
f 212/212 252/252 251/251
f 252/252 212/212 208/208
f 242/242 213/213 255/255
f 213/213 242/242 251/251
f 255/255 265/265 267/267
f 265/265 255/255 257/257
f 249/249 264/264 265/265
f 264/264 249/249 250/250
f 249/249 263/263 257/257
f 263/263 249/249 251/251
f 265/265 252/252 249/249
f 252/252 265/265 244/244
f 243/243 266/266 258/258
f 266/266 243/243 242/242
f 246/246 255/255 267/267
f 255/255 246/246 266/266
f 258/258 264/264 254/254
f 264/264 258/258 209/209
f 261/261 253/253 235/235
f 247/247 253/253 217/217
f 210/210 262/262 269/269
f 262/262 210/210 261/261
f 257/257 254/254 264/264
f 254/254 257/257 259/259
f 235/235 248/248 264/264
f 265/265 266/266 267/267
f 266/266 265/265 270/270
f 268/268 218/218 214/214
f 218/218 268/268 252/252
f 269/269 211/211 210/210
f 211/211 269/269 270/270
f 262/262 270/270 219/219
f 260/260 215/215 248/248
f 235/235 253/253 248/248
f 258/258 243/243 259/259
f 243/243 245/245 248/248
f 261/261 254/254 238/238
f 220/220 238/238 240/240
f 243/243 241/241 244/244
f 246/246 238/238 242/242
f 238/238 246/246 243/243
f 271/271 245/245 239/239
f 245/245 271/271 221/221
f 236/236 239/239 245/245
f 310/310 259/259 263/263
f 270/270 250/250 256/256
f 263/263 257/257 270/270
f 262/262 250/250 256/256
f 268/268 263/263 250/250
f 262/262 269/269 268/268
f 270/270 263/263 246/246
f 241/241 244/244 236/236
f 310/310 245/245 222/222
f 217/217 262/262 222/222
f 262/262 216/216 276/276
f 891/891 272/272 223/223
f 272/272 891/891 892/892
f 236/236 234/234 272/272
f 893/893 276/276 272/272
f 274/274 273/273 309/309
f 308/308 275/275 278/278
f 277/277 274/274 273/273
f 274/274 277/277 275/275
f 308/308 279/279 304/304
f 279/279 308/308 280/280
f 284/284 281/281 282/282
f 281/281 284/284 309/309
f 275/275 282/282 281/281
f 282/282 275/275 284/284
f 306/306 282/282 305/305
f 282/282 306/306 275/275
f 279/279 281/281 285/285
f 285/285 280/280 290/290
f 280/280 285/285 282/282
f 305/305 309/309 892/892
f 234/234 894/894 287/287
f 224/224 895/895 896/896
f 895/895 224/224 289/289
f 225/225 287/287 224/224
f 287/287 225/225 288/288
f 301/301 286/286 280/280
f 288/288 284/284 286/286
f 284/284 288/288 293/293
f 291/291 289/289 225/225
f 289/289 291/291 288/288
f 292/292 301/301 307/307
f 301/301 292/292 290/290
f 292/292 280/280 288/288
f 280/280 292/292 413/413
f 294/294 413/413 295/295
f 900/900 295/295 296/296
f 226/226 294/294 413/413
f 294/294 226/226 297/297
f 303/303 295/295 302/302
f 295/295 303/303 298/298
f 303/303 297/297 298/298
f 299/299 311/311 312/312
f 311/311 299/299 300/300
f 312/312 299/299 300/300
f 230/230 228/228 899/899
f 302/302 898/898 294/294
f 898/898 302/302 303/303
f 296/296 302/302 294/294
f 302/302 296/296 300/300
f 229/229 230/230 306/306
f 901/901 305/305 893/893
f 893/893 309/309 307/307
f 289/289 286/286 287/287
f 286/286 289/289 306/306
f 284/284 286/286 306/306
f 901/901 286/286 308/308
f 273/273 304/304 277/277
f 304/304 273/273 309/309
f 273/273 308/308 309/309
f 272/272 273/273 310/310
f 283/283 259/259 892/892
f 283/283 310/310 236/236
f 892/892 310/310 303/303
f 298/298 296/296 311/311
f 296/296 298/298 311/311
f 312/312 227/227 228/228
f 227/227 312/312 311/311
f 227/227 296/296 226/226
f 296/296 227/227 300/300
f 228/228 312/312 274/274
f 309/309 893/893 314/314
f 295/295 900/900 314/314
f 313/313 295/295 297/297
f 295/295 313/313 902/902
f 314/314 900/900 315/315
f 314/314 902/902 315/315
f 316/316 314/314 313/313
f 314/314 316/316 903/903
f 317/317 232/232 905/905
f 231/231 906/906 318/318
f 906/906 231/231 907/907
f 317/317 908/908 318/318
f 231/231 319/319 233/233
f 232/232 317/317 907/907
f 909/909 319/319 318/318
f 906/906 318/318 908/908
f 317/317 904/904 894/894
f 234/234 221/221 322/322
f 325/325 323/323 326/326
f 327/327 325/325 320/320
f 910/910 911/911 320/320
f 910/910 320/320 913/913
f 914/914 913/913 321/321
f 914/914 321/321 911/911
f 915/915 320/320 332/332
f 333/333 330/330 334/334
f 335/335 333/333 328/328
f 916/916 917/917 328/328
f 916/916 328/328 919/919
f 920/920 919/919 329/329
f 920/920 329/329 917/917
f 921/921 328/328 340/340
f 338/338 339/339 340/340
f 339/339 342/342 341/341
f 342/342 339/339 343/343
f 342/342 341/341 922/922
f 336/336 923/923 337/337
f 336/336 924/924 922/922
f 925/925 337/337 926/926
f 337/337 925/925 336/336
f 337/337 927/927 926/926
f 923/923 336/336 347/347
f 348/348 346/346 347/347
f 346/346 350/350 349/349
f 350/350 346/346 351/351
f 350/350 349/349 928/928
f 344/344 929/929 345/345
f 344/344 930/930 928/928
f 931/931 345/345 932/932
f 345/345 931/931 344/344
f 345/345 933/933 932/932
f 929/929 344/344 358/358
f 359/359 354/354 353/353
f 358/358 354/354 357/357
f 358/358 353/353 364/364
f 363/363 355/355 352/352
f 364/364 355/355 361/361
f 364/364 352/352 356/356
f 354/354 352/352 934/934
f 355/355 353/353 354/354
f 356/356 353/353 355/355
f 934/934 352/352 354/354
f 359/359 360/360 352/352
f 360/360 361/361 354/354
f 360/360 352/352 355/355
f 363/363 362/362 353/353
f 362/362 357/357 355/355
f 362/362 353/353 373/373
f 374/374 365/365 935/935
f 367/367 368/368 936/936
f 935/935 368/368 937/937
f 936/936 368/368 938/938
f 373/373 365/365 366/366
f 939/939 366/366 371/371
f 368/368 367/367 372/372
f 371/371 367/367 940/940
f 372/372 367/367 939/939
f 366/366 939/939 379/379
f 380/380 382/382 384/384
f 383/383 375/375 377/377
f 943/943 378/378 944/944
f 944/944 375/375 379/379
f 376/376 946/946 947/947
f 946/946 376/376 378/378
f 949/949 377/377 950/950
f 945/945 376/376 383/383
f 376/376 945/945 950/950
f 376/376 382/382 379/379
f 382/382 376/376 384/384
f 947/947 383/383 376/376
f 383/383 947/947 369/369
f 952/952 369/369 373/373
f 366/366 373/373 938/938
f 953/953 373/373 952/952
f 954/954 369/369 386/386
f 387/387 385/385 388/388
f 391/391 388/388 392/392
f 955/955 392/392 391/391
f 391/391 389/389 393/393
f 393/393 394/394 397/397
f 398/398 399/399 400/400
f 400/400 402/402 401/401
f 402/402 403/403 404/404
f 405/405 403/403 388/388
f 388/388 391/391 394/394
f 394/394 391/391 405/405
f 406/406 403/403 395/395
f 395/395 400/400 407/407
f 407/407 404/404 395/395
f 395/395 396/396 402/402
f 404/404 403/403 955/955
f 393/393 397/397 957/957
f 956/956 408/408 492/492
f 491/491 492/492 493/493
f 492/492 493/493 504/504
f 609/609 504/504 487/487
f 498/498 487/487 502/502
f 494/494 502/502 493/493
f 484/484 493/493 487/487
f 550/550 487/487 475/475
f 548/548 486/486 499/499
f 498/498 499/499 502/502
f 497/497 502/502 992/992
f 993/993 992/992 482/482
f 609/609 482/482 484/484
f 483/483 484/484 611/611
f 614/614 611/611 526/526
f 496/496 526/526 495/495
f 481/481 480/480 494/494
f 480/480 485/485 494/494
f 489/489 481/481 495/495
f 490/490 489/489 519/519
f 994/994 474/474 479/479
f 505/505 479/479 506/506
f 995/995 996/996 506/506
f 996/996 997/997 506/506
f 997/997 477/477 506/506
f 477/477 998/998 506/506
f 998/998 999/999 506/506
f 999/999 1000/1000 506/506
f 1000/1000 995/995 482/482
f 491/491 482/482 1003/1003
f 549/549 1003/1003 473/473
f 1007/1007 470/470 1008/1008
f 473/473 472/472 507/507
f 1006/1006 509/509 1009/1009
f 507/507 511/511 1010/1010
f 520/520 1010/1010 513/513
f 466/466 513/513 514/514
f 522/522 514/514 515/515
f 523/523 515/515 512/512
f 525/525 512/512 518/518
f 519/519 518/518 516/516
f 520/520 525/525 521/521
f 517/517 521/521 1015/1015
f 517/517 1015/1015 522/522
f 518/518 522/522 523/523
f 519/519 523/523 525/525
f 523/523 519/519 527/527
f 516/516 527/527 517/517
f 1015/1015 517/517 1017/1017
f 527/527 516/516 474/474
f 1018/1018 525/525 519/519
f 1018/1018 516/516 1017/1017
f 516/516 1018/1018 526/526
f 475/475 486/486 1007/1007
f 470/470 1007/1007 471/471
f 1008/1008 471/471 472/472
f 471/471 472/472 473/473
f 472/472 473/473 546/546
f 546/546 469/469 1021/1021
f 530/530 1021/1021 531/531
f 1020/1020 531/531 532/532
f 531/531 532/532 533/533
f 532/532 533/533 529/529
f 533/533 529/529 530/530
f 529/529 530/530 536/536
f 1023/1023 536/536 537/537
f 536/536 537/537 540/540
f 537/537 538/538 1022/1022
f 535/535 1022/1022 539/539
f 1024/1024 539/539 540/540
f 539/539 540/540 538/538
f 540/540 538/538 534/534
f 538/538 534/534 535/535
f 534/534 535/535 1027/1027
f 1028/1028 1029/1029 1027/1027
f 1030/1030 1031/1031 1027/1027
f 1031/1031 1032/1032 1027/1027
f 1032/1032 1033/1033 1027/1027
f 1033/1033 1034/1034 1027/1027
f 1034/1034 1028/1028 530/530
f 1021/1021 530/530 546/546
f 529/529 546/546 533/533
f 529/529 533/533 499/499
f 500/500 499/499 1035/1035
f 497/497 1035/1035 498/498
f 499/499 498/498 502/502
f 501/501 502/502 622/622
f 487/487 1005/1005 500/500
f 499/499 500/500 486/486
f 497/497 486/486 549/549
f 1005/1005 487/487 550/550
f 488/488 550/550 501/501
f 502/502 501/501 554/554
f 554/554 555/555 557/557
f 552/552 556/556 554/554
f 552/552 557/557 560/560
f 559/559 558/558 561/561
f 1036/1036 1037/1037 563/563
f 562/562 1038/1038 566/566
f 566/566 567/567 569/569
f 569/569 566/566 568/568
f 563/563 569/569 570/570
f 570/570 571/571 1039/1039
f 570/570 566/566 1039/1039
f 569/569 1038/1038 574/574
f 560/560 575/575 577/577
f 1040/1040 576/576 577/577
f 573/573 578/578 577/577
f 578/578 579/579 1041/1041
f 1041/1041 581/581 559/559
f 1040/1040 1043/1043 580/580
f 580/580 581/581 576/576
f 559/559 560/560 1044/1044
f 1042/1042 580/580 579/579
f 1040/1040 577/577 1042/1042
f 1044/1044 1045/1045 569/569
f 1039/1039 566/566 578/578
f 573/573 591/591 562/562
f 563/563 561/561 582/582
f 562/562 561/561 563/563
f 583/583 561/561 1036/1036
f 561/561 583/583 1046/1046
f 583/583 568/568 563/563
f 568/568 583/583 1047/1047
f 552/552 553/553 1037/1037
f 582/582 561/561 573/573
f 576/576 560/560 575/575
f 560/560 558/558 569/569
f 563/563 1038/1038 572/572
f 573/573 560/560 1048/1048
f 575/575 558/558 581/581
f 576/576 1043/1043 585/585
f 590/590 584/584 589/589
f 584/584 590/590 586/586
f 586/586 587/587 578/578
f 591/591 586/586 588/588
f 586/586 591/591 585/585
f 585/585 584/584 586/586
f 588/588 585/585 590/590
f 585/585 588/588 592/592
f 583/583 1049/1049 1046/1046
f 1049/1049 583/583 1050/1050
f 592/592 1051/1051 1049/1049
f 1051/1051 592/592 589/589
f 590/590 593/593 594/594
f 593/593 590/590 1036/1036
f 583/583 595/595 592/592
f 595/595 583/583 1052/1052
f 596/596 556/556 557/557
f 556/556 596/596 595/595
f 592/592 1053/1053 1050/1050
f 1053/1053 592/592 593/593
f 594/594 1052/1052 596/596
f 1052/1052 594/594 588/588
f 591/591 596/596 557/557
f 596/596 591/591 590/590
f 588/588 594/594 596/596
f 594/594 588/588 557/557
f 591/591 574/574 555/555
f 574/574 572/572 554/554
f 574/574 555/555 591/591
f 573/573 574/574 554/554
f 557/557 574/574 597/597
f 598/598 597/597 599/599
f 600/600 599/599 601/601
f 602/602 601/601 1055/1055
f 597/597 1055/1055 600/600
f 601/601 600/600 598/598
f 599/599 598/598 597/597
f 603/603 597/597 606/606
f 605/605 606/606 601/601
f 607/607 601/601 1055/1055
f 1056/1056 1055/1055 600/600
f 605/605 600/600 604/604
f 606/606 604/604 609/609
f 482/482 609/609 993/993
f 481/481 993/993 504/504
f 478/478 1057/1057 480/480
f 485/485 480/480 613/613
f 485/485 614/614 519/519
f 524/524 994/994 617/617
f 817/817 616/616 618/618
f 616/616 618/618 1058/1058
f 619/619 1058/1058 618/618
f 620/620 619/619 1060/1060
f 1059/1059 1060/1060 1061/1061
f 1062/1062 621/621 817/817
f 1063/1063 616/616 468/468
f 1062/1062 468/468 1060/1060
f 1064/1064 817/817 645/645
f 625/625 628/628 626/626
f 626/626 629/629 627/627
f 629/629 626/626 1065/1065
f 1066/1066 1067/1067 1068/1068
f 1067/1067 1066/1066 636/636
f 645/645 630/630 628/628
f 628/628 631/631 629/629
f 631/631 628/628 1069/1069
f 1065/1065 1070/1070 1067/1067
f 1070/1070 1065/1065 632/632
f 630/630 634/634 631/631
f 634/634 630/630 1071/1071
f 1069/1069 1072/1072 1070/1070
f 1072/1072 1069/1069 635/635
f 633/633 624/624 634/634
f 624/624 633/633 1073/1073
f 1071/1071 1074/1074 1072/1072
f 1074/1074 1071/1071 1075/1075
f 1077/1077 1076/1076 1078/1078
f 1081/1081 1078/1078 646/646
f 638/638 637/637 1079/1079
f 1080/1080 1079/1079 640/640
f 641/641 640/640 1082/1082
f 1083/1083 1082/1082 642/642
f 643/643 642/642 1084/1084
f 1085/1085 1084/1084 650/650
f 660/660 1091/1091 1092/1092
f 650/650 1091/1091 668/668
f 664/664 668/668 673/673
f 674/674 670/670 669/669
f 673/673 670/670 1095/1095
f 1096/1096 1095/1095 665/665
f 662/662 665/665 680/680
f 659/659 680/680 1094/1094
f 664/664 1094/1094 655/655
f 680/680 668/668 662/662
f 670/670 662/662 678/678
f 662/662 678/678 656/656
f 671/671 656/656 659/659
f 680/680 659/659 671/671
f 667/667 671/671 1099/1099
f 1091/1091 660/660 673/673
f 1099/1099 660/660 673/673
f 660/660 666/666 674/674
f 673/673 666/666 650/650
f 648/648 666/666 660/660
f 650/650 666/666 1100/1100
f 682/682 1100/1100 670/670
f 677/677 670/670 696/696
f 672/672 661/661 648/648
f 696/696 661/661 678/678
f 680/680 678/678 681/681
f 1096/1096 681/681 682/682
f 1100/1100 682/682 1102/1102
f 683/683 1103/1103 675/675
f 1103/1103 683/683 669/669
f 1095/1095 1099/1099 673/673
f 669/669 1099/1099 648/648
f 661/661 666/666 667/667
f 661/661 672/672 671/671
f 667/667 672/672 671/671
f 672/672 658/658 666/666
f 661/661 667/667 674/674
f 666/666 667/667 655/655
f 651/651 1098/1098 1104/1104
f 1098/1098 651/651 656/656
f 657/657 656/656 659/659
f 655/655 659/659 653/653
f 656/656 658/658 684/684
f 653/653 658/658 649/649
f 652/652 684/684 658/658
f 649/649 684/684 647/647
f 1105/1105 652/652 649/649
f 647/647 652/652 723/723
f 658/658 672/672 683/683
f 669/669 670/670 675/675
f 683/683 663/663 681/681
f 669/669 676/676 675/675
f 663/663 682/682 683/683
f 681/681 676/676 654/654
f 659/659 657/657 723/723
f 649/649 658/658 1101/1101
f 1106/1106 1103/1103 1107/1107
f 1108/1108 1107/1107 649/649
f 1109/1109 647/647 1110/1110
f 685/685 689/689 687/687
f 685/685 686/686 721/721
f 722/722 688/688 690/690
f 686/686 690/690 721/721
f 717/717 721/721 697/697
f 695/695 697/697 688/688
f 694/694 688/688 719/719
f 718/718 719/719 692/692
f 703/703 698/698 718/718
f 695/695 722/722 647/647
f 1109/1109 1111/1111 1112/1112
f 1114/1114 1112/1112 1115/1115
f 1112/1112 1115/1115 714/714
f 699/699 701/701 704/704
f 1115/1115 704/704 705/705
f 701/701 705/705 1116/1116
f 1117/1117 1118/1118 707/707
f 1118/1118 1117/1117 715/715
f 708/708 1119/1119 1120/1120
f 1119/1119 708/708 1121/1121
f 1117/1117 1121/1121 716/716
f 711/711 710/710 712/712
f 713/713 712/712 1122/1122
f 713/713 1123/1123 715/715
f 707/707 715/715 709/709
f 707/707 709/709 1124/1124
f 713/713 1122/1122 1125/1125
f 718/718 722/722 706/706
f 720/720 702/702 714/714
f 700/700 702/702 697/697
f 719/719 1125/1125 700/700
f 699/699 1113/1113 1125/1125
f 1113/1113 699/699 686/686
f 722/722 721/721 685/685
f 722/722 686/686 696/696
f 723/723 672/672 696/696
f 649/649 723/723 711/711
f 724/724 711/711 725/725
f 1123/1123 725/725 1126/1126
f 1121/1121 1126/1126 1123/1123
f 713/713 725/725 685/685
f 687/687 1108/1108 722/722
f 685/685 1110/1110 708/708
f 727/727 1120/1120 726/726
f 710/710 726/726 727/727
f 1127/1127 1120/1120 727/727
f 728/728 1127/1127 729/729
f 726/726 729/729 1128/1128
f 1129/1129 1130/1130 730/730
f 1128/1128 1130/1130 1131/1131
f 731/731 1131/1131 732/732
f 1134/1134 1135/1135 730/730
f 732/732 1135/1135 1131/1131
f 732/732 730/730 1130/1130
f 1136/1136 730/730 1137/1137
f 731/731 1137/1137 1133/1133
f 1137/1137 731/731 730/730
f 1135/1135 1128/1128 647/647
f 1111/1111 1105/1105 737/737
f 735/735 736/736 737/737
f 736/736 739/739 738/738
f 739/739 736/736 740/740
f 739/739 738/738 1138/1138
f 733/733 1139/1139 734/734
f 733/733 1140/1140 1138/1138
f 1141/1141 734/734 1142/1142
f 734/734 1141/1141 733/733
f 734/734 1143/1143 1142/1142
f 1139/1139 733/733 744/744
f 745/745 743/743 744/744
f 743/743 747/747 746/746
f 747/747 743/743 748/748
f 747/747 746/746 1144/1144
f 741/741 1145/1145 742/742
f 741/741 1146/1146 1144/1144
f 1147/1147 742/742 1148/1148
f 742/742 1147/1147 741/741
f 742/742 1149/1149 1148/1148
f 1145/1145 741/741 751/751
f 754/754 752/752 755/755
f 756/756 754/754 749/749
f 1150/1150 1151/1151 749/749
f 1150/1150 749/749 1153/1153
f 1154/1154 1153/1153 750/750
f 1154/1154 750/750 1151/1151
f 1155/1155 749/749 761/761
f 762/762 759/759 763/763
f 764/764 762/762 757/757
f 1156/1156 1157/1157 757/757
f 1156/1156 757/757 1159/1159
f 1160/1160 1159/1159 758/758
f 1160/1160 758/758 1157/1157
f 1161/1161 757/757 772/772
f 766/766 767/767 771/771
f 770/770 766/766 776/776
f 765/765 768/768 777/777
f 774/774 765/765 767/767
f 769/769 765/765 768/768
f 1162/1162 766/766 769/769
f 767/767 766/766 1162/1162
f 768/768 765/765 772/772
f 765/765 774/774 773/773
f 767/767 765/765 776/776
f 766/766 770/770 775/775
f 768/768 766/766 787/787
f 786/786 778/778 780/780
f 1165/1165 781/781 786/786
f 1166/1166 778/778 782/782
f 779/779 783/783 1167/1167
f 783/783 779/779 781/781
f 1168/1168 780/780 787/787
f 1167/1167 786/786 779/779
f 786/786 1167/1167 793/793
f 792/792 795/795 796/796
f 797/797 788/788 1169/1169
f 790/790 791/791 1170/1170
f 1169/1169 791/791 1171/1171
f 1170/1170 791/791 796/796
f 796/796 788/788 789/789
f 1175/1175 789/789 794/794
f 791/791 790/790 1176/1176
f 794/794 790/790 1177/1177
f 1176/1176 790/790 1173/1173
f 796/796 1173/1173 789/789
f 792/792 789/789 1175/1175
f 789/789 1175/1175 779/779
f 782/782 1179/1179 1180/1180
f 1179/1179 782/782 1181/1181
f 786/786 1179/1179 779/779
f 1179/1179 786/786 1181/1181
f 1166/1166 786/786 1182/1182
f 1180/1180 782/782 800/800
f 799/799 798/798 1183/1183
f 801/801 1184/1184 802/802
f 1184/1184 801/801 805/805
f 803/803 804/804 1185/1185
f 804/804 803/803 1186/1186
f 1186/1186 1184/1184 808/808
f 807/807 809/809 811/811
f 811/811 813/813 1187/1187
f 1188/1188 813/813 805/805
f 805/805 802/802 806/806
f 806/806 802/802 1189/1189
f 1187/1187 813/813 809/809
f 809/809 810/810 812/812
f 812/812 1188/1188 1190/1190
f 1190/1190 1186/1186 1188/1188
f 812/812 813/813 804/804
f 1185/1185 1191/1191 814/814
f 814/814 807/807 1191/1191
f 1192/1192 815/815 816/816
f 1193/1193 1194/1194 1197/1197
f 1197/1197 1223/1223 1193/1193
f 1194/1194 1195/1195 1200/1200
f 1200/1200 1197/1197 1194/1194
f 1195/1195 1201/1201 1200/1200
f 1198/1198 1226/1226 1199/1199
f 1197/1197 1200/1200 1202/1202
f 1202/1202 1199/1199 1197/1197
f 1201/1201 1196/1196 1200/1200
f 1200/1200 1196/1196 1202/1202
f 1205/1205 1215/1215 1225/1225
f 1225/1225 1217/1217 1205/1205
f 1205/1205 1217/1217 1218/1218
f 1218/1218 1208/1208 1205/1205
f 1218/1218 1219/1219 1211/1211
f 1211/1211 1208/1208 1218/1218
f 1209/1209 1222/1222 1210/1210
f 1211/1211 1219/1219 1222/1222
f 1222/1222 1209/1209 1211/1211
f 1216/1216 1203/1203 1224/1224
f 1224/1224 1220/1220 1216/1216
f 1214/1214 1221/1221 1239/1239
f 1239/1239 1240/1240 1214/1214
f 1206/1206 1207/1207 1218/1218
f 1218/1218 1217/1217 1206/1206
f 1207/1207 1212/1212 1219/1219
f 1219/1219 1218/1218 1207/1207
f 1225/1225 1241/1241 1206/1206
f 1206/1206 1217/1217 1225/1225
f 1214/1214 1216/1216 1220/1220
f 1220/1220 1221/1221 1214/1214
f 1222/1222 1213/1213 1210/1210
f 1212/1212 1213/1213 1222/1222
f 1222/1222 1219/1219 1212/1212
f 1193/1193 1223/1223 1224/1224
f 1224/1224 1204/1204 1193/1193
f 1203/1203 1204/1204 1224/1224
f 1224/1224 1223/1223 1220/1220
f 1226/1226 1197/1197 1199/1199
f 1198/1198 1239/1239 1226/1226
f 1226/1226 1221/1221 1220/1220
f 1220/1220 1223/1223 1226/1226
f 1226/1226 1239/1239 1221/1221
f 1226/1226 1223/1223 1197/1197
f 1193/1193 1235/1235 1227/1227
f 1227/1227 1194/1194 1193/1193
f 1194/1194 1227/1227 1228/1228
f 1228/1228 1195/1195 1194/1194
f 1195/1195 1228/1228 1201/1201
f 1198/1198 1199/1199 1238/1238
f 1227/1227 1199/1199 1202/1202
f 1202/1202 1228/1228 1227/1227
f 1201/1201 1228/1228 1196/1196
f 1228/1228 1202/1202 1196/1196
f 1205/1205 1229/1229 1237/1237
f 1237/1237 1215/1215 1205/1205
f 1205/1205 1208/1208 1230/1230
f 1230/1230 1229/1229 1205/1205
f 1230/1230 1208/1208 1211/1211
f 1211/1211 1231/1231 1230/1230
f 1209/1209 1210/1210 1234/1234
f 1211/1211 1209/1209 1234/1234
f 1234/1234 1231/1231 1211/1211
f 1216/1216 1232/1232 1236/1236
f 1236/1236 1203/1203 1216/1216
f 1214/1214 1240/1240 1242/1242
f 1242/1242 1233/1233 1214/1214
f 1206/1206 1229/1229 1230/1230
f 1230/1230 1207/1207 1206/1206
f 1207/1207 1230/1230 1231/1231
f 1231/1231 1212/1212 1207/1207
f 1237/1237 1229/1229 1206/1206
f 1206/1206 1241/1241 1237/1237
f 1214/1214 1233/1233 1232/1232
f 1232/1232 1216/1216 1214/1214
f 1234/1234 1210/1210 1213/1213
f 1212/1212 1231/1231 1234/1234
f 1234/1234 1213/1213 1212/1212
f 1193/1193 1204/1204 1236/1236
f 1236/1236 1235/1235 1193/1193
f 1203/1203 1236/1236 1204/1204
f 1236/1236 1232/1232 1235/1235
f 1238/1238 1199/1199 1227/1227
f 1198/1198 1238/1238 1242/1242
f 1238/1238 1235/1235 1232/1232
f 1232/1232 1233/1233 1238/1238
f 1238/1238 1233/1233 1242/1242
f 1238/1238 1227/1227 1235/1235
