# MOD converted: v_fix_airballoon.mod
# 757 verts, 649 faces

v 396.638062 -69.299553 56.861031
v 396.638062 -69.299553 46.861034
v 406.638062 -69.299553 56.861034
v 406.638062 -69.299553 46.861034
v 396.638062 -79.299553 56.861034
v 396.638062 -79.299553 46.861038
v 406.638062 -79.299553 56.861038
v 406.638062 -79.299553 46.861031
v 396.638062 -69.299553 56.861034
v 396.638062 -79.299553 56.861031
v 396.638062 -69.299553 46.861034
v 396.638062 -79.299553 56.861031
v 396.638062 -69.299553 56.861038
v 406.638062 -79.299553 56.861034
v 406.638062 -69.299553 56.861034
v 396.638062 -79.299553 56.861034
v 406.638062 -69.299553 46.861038
v 406.638062 -79.299553 46.861034
v 406.638062 -69.299553 56.861038
v 406.638062 -79.299553 46.861034
v 406.638062 -69.299553 46.861034
v 396.638062 -79.299553 46.861031
v 396.638062 -69.299553 46.861038
v 406.638062 -79.299553 1.000000
v 396.638092 -79.299545 -53.382339
v 396.638092 -79.299545 -43.382336
v 406.638092 -79.299545 -53.382336
v 406.638092 -79.299545 -43.382336
v 396.638092 -69.299545 -53.382336
v 396.638092 -69.299545 -43.382332
v 406.638092 -69.299545 -53.382332
v 406.638092 -69.299545 -43.382339
v 396.638092 -79.299545 -53.382336
v 396.638092 -69.299545 -53.382339
v 396.638092 -79.299545 -43.382336
v 396.638092 -69.299545 -53.382339
v 396.638092 -79.299545 -53.382332
v 406.638092 -69.299545 -53.382336
v 406.638092 -79.299545 -53.382336
v 396.638092 -69.299545 -53.382336
v 406.638092 -79.299545 -43.382332
v 406.638092 -69.299545 -43.382336
v 406.638092 -79.299545 -53.382332
v 406.638092 -69.299545 -43.382336
v 406.638092 -79.299545 -43.382336
v 396.638092 -69.299545 -43.382339
v 396.638092 -79.299545 -43.382332
v 406.638092 -69.299545 1.000000
v 396.638062 59.397926 -53.389004
v 396.638062 59.397926 -43.389000
v 406.638062 59.397926 -53.389000
v 406.638062 59.397926 -43.389000
v 396.638062 69.397926 -53.389000
v 396.638062 69.397926 -43.388996
v 406.638062 69.397926 -53.388996
v 406.638062 69.397926 -43.389004
v 396.638062 59.397926 -53.389000
v 396.638062 69.397926 -53.389004
v 396.638062 59.397926 -43.389000
v 396.638062 69.397926 -53.389004
v 396.638062 59.397926 -53.388996
v 406.638062 69.397926 -53.389000
v 406.638062 59.397926 -53.389000
v 396.638062 69.397926 -53.389000
v 406.638062 59.397926 -43.388996
v 406.638062 69.397926 -43.389000
v 406.638062 59.397926 -53.388996
v 406.638062 69.397926 -43.389000
v 406.638062 59.397926 -43.389000
v 396.638062 69.397926 -43.389004
v 396.638062 59.397926 -43.388996
v 406.638062 69.397926 1.000000
v 396.638031 69.397926 56.861019
v 396.638031 69.397926 46.861023
v 406.638031 69.397926 56.861023
v 406.638031 69.397926 46.861023
v 396.638031 59.397923 56.861023
v 396.638031 59.397930 46.861027
v 406.638031 59.397923 56.861027
v 406.638031 59.397930 46.861019
v 396.638031 69.397926 56.861023
v 396.638031 59.397930 56.861019
v 396.638031 69.397926 46.861023
v 396.638031 59.397923 56.861019
v 396.638031 69.397926 56.861027
v 406.638031 59.397930 56.861023
v 406.638031 69.397926 56.861023
v 396.638031 59.397930 56.861023
v 406.638031 69.397926 46.861027
v 406.638031 59.397923 46.861023
v 406.638031 69.397926 56.861027
v 406.638031 59.397930 46.861023
v 406.638031 69.397926 46.861023
v 396.638031 59.397923 46.861019
v 396.638031 69.397926 46.861027
v 406.638031 59.397923 1.000000
v 362.928009 -5.272381 54.224968
v 274.381744 -5.272371 93.920387
v 311.805817 -5.272381 101.686646
v 362.928009 -95.280258 50.843300
v 279.903748 -95.280258 88.063232
v 314.993927 -95.280243 82.630272
v 362.928009 -163.953979 71.559952
v 401.879089 -163.953979 41.315079
v 430.393280 -163.953995 -0.000006
v 440.830200 -163.953995 41.315094
v 295.462708 -163.953979 71.559959
v 323.976898 -163.953979 88.632187
v 362.928009 -5.272392 81.868889
v 362.928009 -95.280289 64.648239
v 362.927979 -148.692749 66.576881
v 319.798950 -139.032486 71.559853
v 401.879089 -148.707825 41.315113
v 430.393280 -148.707809 82.630302
v 362.927979 -148.707779 -0.000000
v 260.683594 -5.272373 -54.224968
v 274.381744 -5.272382 -50.843357
v 279.903748 -95.280220 -0.000004
v 267.059845 -95.280228 -93.920387
v 311.805817 -5.272399 -88.063271
v 314.993927 -95.280212 -108.449928
v 362.928009 -5.272373 -101.686661
v 362.928009 -95.280258 -41.315193
v 295.462708 -163.953964 -0.000006
v 285.025787 -163.953979 -71.559967
v 323.976898 -163.953964 -82.630333
v 362.928009 -163.953964 -0.000006
v 362.928009 -163.953995 -71.559967
v 401.879089 -163.953995 -41.315182
v 430.393280 -163.953995 -82.630310
v 362.927979 -148.707779 -71.559952
v 401.879089 -148.707794 -41.315166
v 430.393280 -148.707794 -0.000006
v 440.830200 -148.707794 -88.632187
v 362.928009 -5.272386 -81.868942
v 362.928009 -95.280235 -64.648323
v 362.927979 -148.692688 -66.576920
v 319.798950 -139.032440 -0.000006
v 362.927979 -148.692780 -0.000005
v 319.798920 -139.032425 84.977661
v 319.822662 -5.272400 -0.000000
v 319.798950 -5.272377 50.843357
v 279.903778 84.735474 0.000012
v 267.059875 84.735481 88.063255
v 314.993958 84.735466 101.686668
v 362.928040 84.735489 41.315170
v 295.462738 153.409210 0.000022
v 285.025818 153.409225 71.559975
v 323.976929 153.409195 82.630318
v 362.928009 153.409225 0.000022
v 362.928009 153.409225 71.559952
v 401.879150 153.409225 41.315151
v 430.393311 153.409225 0.000022
v 440.830200 153.409225 82.630318
v 362.928009 138.163025 71.559952
v 401.879089 138.163025 41.315163
v 430.393280 138.163025 0.000020
v 440.830200 138.163040 81.868927
v 362.928040 84.735481 64.648300
v 362.928009 138.147964 66.576912
v 319.798950 128.487717 0.000020
v 362.928009 138.148026 0.000018
v 319.798950 128.487686 -50.843323
v 279.903778 84.735489 -88.063240
v 314.993958 84.735497 -101.686623
v 362.928040 84.735512 -41.315144
v 295.462738 153.409210 -71.559921
v 323.976929 153.409210 -82.630280
v 362.928009 153.409241 -41.315125
v 430.393311 153.409225 -71.559921
v 401.879150 153.409225 -71.559921
v 401.879089 138.163040 -82.630280
v 362.928009 138.163055 -41.315125
v 430.393280 138.163040 -81.868919
v 362.928040 84.735512 -64.648254
v 362.928009 138.147964 -66.576881
v 319.798950 128.487717 -84.977638
v 319.822662 -5.272392 -0.000006
v 395.878815 -163.289520 -0.000006
v 328.901825 -163.289520 29.001865
v 345.646088 -163.289505 29.001863
v 379.134583 -163.289505 -0.000008
v 409.874817 -206.589249 -0.000008
v 314.905792 -206.589249 41.122772
v 338.648071 -206.589264 41.122768
v 386.132568 -206.589264 -0.000007
v 409.874847 -191.074219 -0.000007
v 400.799408 -178.804565 -0.000007
v 323.981262 -178.804565 -0.000007
v 314.905823 -191.074219 33.263199
v 343.185791 -178.804581 41.122795
v 338.648071 -191.074234 33.263191
v 381.594879 -178.804581 41.122787
v 386.132599 -191.074234 -33.263210
v 343.185791 -178.804565 -41.122803
v 338.648071 -191.074203 -33.263206
v 381.594879 -178.804565 -41.122799
v 386.132599 -191.074203 -41.122787
v 338.648071 -206.589264 -41.122890
v 386.132568 -206.589233 -29.001881
v 345.646057 -163.289520 -29.001875
v 379.134583 -163.289505 27.764488
v 363.114655 150.803909 0.000009
v 335.350189 150.803894 -27.764454
v 363.114655 150.803909 0.000010
v 390.879150 150.803940 21.200747
v 363.114685 183.573456 0.000016
v 341.913940 183.573441 -21.200703
v 363.114685 183.573456 0.000016
v 384.315399 183.573456 0.000019
v 363.114685 202.071518 8.740751
v 377.846924 167.991455 2.235631
v 376.306671 176.726883 -8.740708
v 376.431396 176.019348 -2.235614
v 377.971680 167.283936 17.028278
v 406.095642 169.048325 4.355318
v 403.094940 186.066223 -17.028255
v 403.337982 184.687881 -4.355313
v 406.338654 167.669983 14.152768
v 433.440460 175.231506 3.619807
v 430.946472 189.375671 -14.152784
v 431.148468 188.230057 -3.619845
v 433.642456 174.085938 0.000019
v 459.872101 186.593491 -17.128847
v 363.318207 167.991470 -12.542357
v 358.454803 176.726868 -7.162225
v 348.886627 176.019348 -11.748706
v 353.750031 167.283936 -45.736713
v 356.371063 169.048325 -36.801533
v 346.896332 186.066193 -26.320227
v 328.256104 184.687851 -35.255386
v 337.730804 167.669968 -67.980263
v 340.208405 175.231476 -60.553921
v 332.333618 189.375641 -51.842552
v 316.841095 188.230026 -59.268875
v 324.715851 174.085907 -83.794334
v 314.735931 186.593460 8.388158
v 348.178833 167.991455 10.306792
v 354.582611 176.726883 15.903007
v 364.026031 176.019348 13.984384
v 357.622284 167.283936 28.708506
v 326.877258 169.048309 32.446289
v 339.352783 186.066208 43.348553
v 357.749969 184.687851 39.610783
v 345.274506 167.669952 53.827545
v 315.695160 175.231445 56.934166
v 326.063965 189.375626 65.995407
v 341.354492 188.230011 62.888798
v 330.985687 174.085876 83.794426
v 314.736023 186.593430 92.644753
v 362.040527 -115.773964 87.112251
v 362.040527 -112.579788 87.112297
v 362.040527 -118.968147 56.425941
v 631.538574 -70.454926 51.957397
v 631.538574 -67.875000 51.957382
v 631.538635 -73.034851 92.644821
v 362.040527 105.229141 87.112328
v 362.040527 102.034966 51.957447
v 631.538574 57.330193 56.425976
v 631.538574 59.910126 87.112328
v 362.040527 108.423347 51.957424
v 631.538574 62.490051 -92.644836
v 362.040527 -115.773918 -87.112320
v 362.040527 -112.579735 -51.957432
v 631.538574 -67.874954 -56.425972
v 631.538574 -70.454895 -87.112305
v 362.040527 -118.968140 -51.957405
v 631.538574 -73.034843 -92.644753
v 362.040527 105.229195 -56.425926
v 631.538574 59.910156 -51.957390
v 631.538574 57.330223 -87.112282
v 362.040527 102.035004 -51.957390
v 631.538574 62.490078 -87.112289
v 362.040527 108.423393 69.346054
v 628.158447 -74.301666 76.616074
v 671.201538 -81.571724 56.140610
v 628.158447 -61.096199 48.940697
v 667.125000 -53.896301 69.216850
v 667.125000 -4.945343 98.074394
v 628.158447 -4.945308 108.355774
v 671.201538 -4.945317 76.616119
v 671.201477 71.681053 79.399071
v 628.158447 -4.945342 48.940712
v 667.125000 44.005657 69.346085
v 628.158447 64.410995 -0.010235
v 628.158447 93.139359 -0.010240
v 671.201477 103.420769 56.140621
v 628.158447 51.205566 -0.010248
v 628.158447 74.464035 -0.010244
v 667.125000 64.281822 -69.366570
v 628.158447 64.411072 -76.636627
v 671.201477 71.681107 -56.161137
v 628.158447 51.205601 -48.961220
v 667.125000 44.005692 -98.094933
v 628.158447 -4.945304 -108.376343
v 671.201477 -4.945253 -79.419624
v 628.158447 -4.945270 -69.237411
v 667.125000 -4.945263 -69.366646
v 628.158447 -74.301605 -56.161194
v 628.158447 -61.096153 -0.010303
v 628.158447 -103.029999 -76.636703
v 671.201538 -81.571655 -0.010356
v 671.201538 -113.311386 -0.010320
v 628.158447 -84.354660 -48.961281
v 667.124939 -53.896259 -0.010328
v 667.125000 -74.172447 -0.455654
v 1203.819336 0.000226 -0.455640
v 1183.632568 38.891312 -0.455654
v 1183.632568 -38.891357 27.983013
v 1183.632568 -27.500340 39.374020
v 1183.632568 0.000218 27.983021
v 1183.632568 27.500299 -0.455620
v 1146.416016 106.307655 -0.455688
v 1146.416138 -106.307724 41.341522
v 1146.416138 -97.375275 76.178238
v 1146.416138 -75.170914 98.382607
v 1146.416016 -40.334187 107.315041
v 1146.416138 0.000204 98.382629
v 1146.416138 40.334118 76.178291
v 1146.416016 75.170853 41.341537
v 1146.416016 97.375214 -0.455582
v 1093.546875 180.229919 -0.455671
v 1093.546875 -180.230026 47.322701
v 1093.546875 -174.088852 90.790771
v 1093.546875 -156.083755 128.117645
v 1093.546875 -127.441841 156.759521
v 1093.546875 -90.115005 174.764572
v 1093.546875 -46.646976 180.905746
v 1093.546875 0.000183 174.764557
v 1093.546875 46.646893 156.759537
v 1093.546875 90.114929 128.117645
v 1093.546875 127.441803 90.790794
v 1093.546875 156.083679 47.322765
v 1093.546875 174.088730 -0.455563
v 1042.961304 238.464874 -0.455742
v 1042.961304 -238.464920 61.263557
v 1042.961304 -230.339447 118.776718
v 1042.961182 -206.516754 168.164459
v 1042.961304 -168.620178 206.060913
v 1042.961304 -119.232513 229.883667
v 1042.961304 -61.719276 238.009201
v 1042.961304 0.000162 229.883713
v 1042.961304 61.719223 206.060944
v 1042.961304 119.232414 168.164490
v 1042.961304 168.620087 118.776802
v 1042.961304 206.516586 61.263634
v 1042.961304 230.339355 -0.455560
v 986.129395 286.371460 -0.455661
v 986.129395 -286.371490 73.662674
v 986.129395 -276.613647 202.039505
v 986.129395 -202.495209 247.549286
v 986.129456 -143.185760 276.157928
v 986.129517 -74.118477 285.915741
v 986.129456 0.000139 276.157898
v 986.129395 74.118355 247.549347
v 986.129456 143.185608 202.039597
v 986.129456 202.495132 142.730118
v 986.129395 248.004883 73.662766
v 986.129395 276.613556 -0.455525
v 914.586792 326.756592 -0.455727
v 914.586670 -326.756622 282.523804
v 914.586792 -163.378403 315.166931
v 914.586792 -84.570862 326.300903
v 914.586792 0.000109 315.166962
v 914.586792 84.570724 282.523865
v 914.586792 163.378235 230.596191
v 914.586792 231.051727 162.922668
v 914.586792 282.979462 84.115219
v 914.586792 315.622589 -0.455514
v 840.393066 331.068085 -0.455762
v 840.393066 -331.068146 84.756828
v 839.926147 -319.780426 233.645081
v 840.393127 -234.102722 286.257965
v 840.393127 -165.536316 319.331818
v 840.393188 -85.688950 330.612732
v 840.393127 0.000076 319.331879
v 840.393127 85.684563 286.258026
v 840.393127 165.531906 233.645157
v 840.393066 234.098343 165.078720
v 840.393127 286.711212 85.231422
v 840.393127 319.785095 -0.455542
v 780.963257 317.263580 -0.455696
v 780.963257 -317.263672 81.659225
v 780.963257 -306.460938 158.177185
v 780.963257 -274.766144 223.884537
v 780.963318 -224.347122 274.303619
v 780.963318 -158.639603 305.998444
v 780.963379 -82.121704 316.808929
v 780.963318 0.000050 305.998474
v 780.963318 82.106071 274.303741
v 780.963318 158.623993 223.884628
v 780.963257 224.331436 158.177200
v 780.963257 274.750519 81.659279
v 780.963257 306.445343 -0.455269
v 736.245911 293.674103 -0.456076
v 736.245911 -293.674194 73.140968
v 734.874451 -274.309082 141.808487
v 734.874451 -245.866119 200.774582
v 734.874451 -200.619827 246.020828
v 734.874451 -141.653748 274.463837
v 734.874512 -72.986374 284.165253
v 734.874512 0.700656 274.463806
v 734.874512 74.392189 246.020844
v 734.874512 143.059677 200.774628
v 734.874512 202.025726 141.808563
v 734.874451 247.271973 73.141083
v 734.874451 275.715088 -0.455556
v 698.320801 237.231110 -0.455735
v 698.320862 -237.231155 61.085575
v 698.320862 -230.220795 118.301132
v 698.320801 -206.521332 167.433350
v 698.320801 -168.820892 205.133820
v 698.320862 -119.688698 228.833267
v 698.320801 -62.473061 236.916763
v 698.320862 -1.072795 228.833282
v 698.320862 60.326809 205.133835
v 698.320801 117.542419 167.433380
v 698.320862 166.674637 118.301216
v 698.320862 204.375107 61.085602
v 698.320740 228.074570 -21.826628
v 674.207520 162.329025 20.915319
v 674.207458 -162.329056 99.357948
v 674.207520 -130.968689 150.952194
v 674.207520 -63.729809 162.014648
v 674.207520 20.297882 129.581161
v 674.207520 98.599243 62.342308
v 674.207520 150.193451 -0.455654
v 655.742737 -0.000012 -28.894318
v 1183.632568 27.500305 -40.285332
v 1183.632568 0.000217 -28.894318
v 1183.632568 -27.500351 -42.252827
v 1146.416016 97.375221 -77.089539
v 1146.416016 75.170860 -99.293915
v 1146.416016 40.334133 -108.226349
v 1146.416016 0.000201 -99.293938
v 1146.416016 -40.334171 -77.089569
v 1146.416138 -75.170921 -42.252865
v 1146.416016 -97.375244 -48.234013
v 1093.546875 174.088745 -91.702042
v 1093.546875 156.083710 -129.028854
v 1093.546875 127.441780 -157.670761
v 1093.546875 90.114975 -175.675812
v 1093.546875 46.646927 -181.817001
v 1093.546875 0.000178 -175.675827
v 1093.546875 -46.646889 -157.670837
v 1093.546875 -90.114983 -129.028931
v 1093.546875 -127.441803 -91.702095
v 1093.546875 -156.083771 -48.234089
v 1093.546875 -174.088791 -62.174843
v 1042.961182 230.339417 -119.688057
v 1042.961304 206.516647 -169.075745
v 1042.961182 168.620102 -206.972260
v 1042.961182 119.232460 -230.794998
v 1042.961182 61.719299 -238.920532
v 1042.961182 0.000156 -230.795059
v 1042.961182 -61.719246 -206.972260
v 1042.961182 -119.232452 -169.075775
v 1042.961182 -168.620132 -119.688095
v 1042.961182 -206.516632 -62.174904
v 1042.961182 -230.339386 -74.573990
v 986.129395 276.613586 -143.641342
v 986.129395 248.004974 -202.950821
v 986.129395 202.495209 -248.460602
v 986.129333 143.185745 -277.069214
v 986.129272 74.118416 -286.827087
v 986.129333 0.000132 -277.069214
v 986.129395 -74.118439 -248.460617
v 986.129333 -143.185776 -202.950882
v 986.129333 -202.495193 -74.944305
v 986.729004 -275.533447 -85.026421
v 914.586731 315.622559 -163.833878
v 914.586670 282.979523 -231.507385
v 914.586670 231.051849 -283.435059
v 914.586670 163.378311 -316.078247
v 914.586670 84.570877 -327.212189
v 914.586670 0.000101 -316.078339
v 914.586670 -84.570717 -283.435120
v 914.586670 -163.378326 -86.142624
v 840.393066 319.789398 -165.989929
v 840.393066 286.715546 -234.556351
v 840.393005 234.102707 -287.169312
v 840.393005 165.536255 -320.243103
v 840.392944 85.688927 -331.524048
v 840.393005 0.000068 -320.243195
v 840.393005 -85.684563 -287.169403
v 840.393005 -165.531891 -234.556427
v 840.393066 -234.098404 -86.142677
v 840.393066 -319.785156 -82.570457
v 780.963257 306.460907 -159.088409
v 780.963257 274.766113 -224.795883
v 780.963196 224.347031 -275.214874
v 780.963196 158.639603 -306.909760
v 780.963135 82.121681 -317.720245
v 780.963196 0.000043 -306.909821
v 780.963257 -82.106056 -275.214996
v 780.963196 -158.624084 -224.795898
v 780.963257 -224.331589 -159.088531
v 780.963257 -274.750641 -82.570618
v 780.963196 -306.445404 -74.052315
v 734.874390 274.309082 -142.719742
v 734.874390 245.866104 -201.685822
v 734.874390 200.619812 -246.932129
v 734.874390 141.653732 -275.375092
v 734.874268 72.986290 -285.076508
v 734.874390 -0.702864 -275.375122
v 734.874390 -74.392265 -246.932159
v 734.874390 -143.059753 -201.685944
v 734.874329 -202.025742 -142.719864
v 734.874390 -247.272049 -74.052345
v 734.874390 -275.715088 -61.996822
v 698.320740 230.220749 -119.212471
v 698.320801 206.521301 -168.344666
v 698.320801 168.820816 -206.045105
v 698.320740 119.688660 -229.744553
v 698.320801 62.473057 -237.828079
v 698.320740 1.073797 -229.744629
v 698.320740 -60.326851 -206.045105
v 698.320740 -117.542572 -168.344696
v 698.320740 -166.674683 -119.212532
v 698.320801 -204.375137 -61.996925
v 698.320801 -228.074661 -100.269257
v 674.207458 130.968628 -151.863464
v 674.207458 63.729744 -162.925949
v 674.207458 -20.297937 -130.492447
v 674.207458 -98.599304 -63.253647
v 674.207458 -150.193512 -165.355240
v 914.586670 -281.383759 160.842087
v 914.586792 -282.260651 -86.059105
v 913.418091 -314.096436 -143.167831
v 987.037292 -240.854874 -232.581192
v 915.806519 -231.342224 -164.059052
v 836.602783 -285.813568 132.473572
v 988.420227 -255.084457 82.966225
v 916.353455 -315.566956 163.761795
v 830.717957 -289.394928 231.068039
v 916.245483 -229.834259 -0.000006
v 285.025787 -163.953979 71.559959
v 323.976898 -163.953979 41.315094
v 295.462708 -163.953979 82.630272
v 362.928009 -163.953979 71.559952
v 401.879089 -163.953979 82.630272
v 362.928009 -163.953979 41.315079
v 430.393280 -163.953995 -0.000006
v 440.830200 -163.953995 101.686646
v 362.928009 -95.280258 108.449928
v 362.928009 -5.272381 82.630302
v 362.927979 -148.707779 82.630272
v 362.928009 -163.953979 81.868889
v 362.928009 -95.280289 88.632187
v 362.928009 -5.272392 41.315113
v 430.393280 -148.707809 -0.000006
v 440.830200 -148.707794 71.559853
v 401.879089 -148.707825 64.648239
v 362.927979 -148.692749 82.630302
v 362.927979 -148.707779 66.576881
v 319.798950 -139.032486 84.977661
v 319.822662 -5.272400 66.576881
v 319.798950 -139.032486 -0.000005
v 319.798920 -139.032425 64.648239
v 362.927979 -148.692749 -0.000000
v 260.683594 -5.272373 -0.000004
v 267.059845 -95.280228 -0.000006
v 285.025787 -163.953979 -71.559967
v 323.976898 -163.953964 -0.000006
v 285.025787 -163.953979 -41.315193
v 295.462708 -163.953964 -0.000006
v 362.928009 -163.953995 -82.630333
v 362.928009 -163.953964 -0.000006
v 440.830200 -163.953995 -71.559967
v 401.879089 -163.953995 -82.630333
v 362.928009 -163.953964 -41.315182
v 430.393280 -163.953995 -0.000006
v 440.830200 -163.953995 -0.000006
v 440.830200 -148.707794 -101.686661
v 362.928009 -95.280258 -108.449928
v 362.928009 -5.272373 -82.630310
v 362.927979 -148.707779 -82.630333
v 362.928009 -163.953964 -81.868942
v 362.928009 -95.280235 -88.632187
v 362.928009 -5.272386 -41.315166
v 430.393280 -148.707794 -0.000006
v 362.927979 -148.692780 -0.000006
v 440.830200 -148.707794 -71.559952
v 401.879089 -148.707794 -64.648323
v 362.927979 -148.692688 -82.630310
v 362.927979 -148.707779 -0.000000
v 319.798950 -5.272377 -66.576920
v 319.798950 -139.032440 -84.977638
v 319.822662 -5.272392 -0.000005
v 319.798920 -139.032425 -66.576920
v 319.798950 -139.032440 -0.000005
v 319.798920 -139.032425 -64.648323
v 362.927979 -148.692688 -0.000000
v 260.683594 -5.272373 54.224968
v 274.381744 -5.272371 93.920387
v 311.805817 -5.272381 108.449928
v 362.928009 -5.272381 71.559975
v 323.976929 153.409195 0.000022
v 285.025818 153.409225 41.315170
v 295.462738 153.409210 82.630318
v 362.928009 153.409225 71.559952
v 401.879150 153.409225 82.630318
v 362.928009 153.409225 41.315151
v 430.393311 153.409225 0.000022
v 440.830200 153.409225 101.686668
v 362.928040 84.735489 88.632187
v 362.928009 -5.272392 108.449928
v 362.928009 -5.272381 82.630318
v 362.928009 138.163025 82.630318
v 362.928009 153.409225 81.868927
v 362.928040 84.735481 88.632187
v 362.928009 -5.272392 84.977661
v 319.822662 -5.272400 41.315163
v 430.393280 138.163025 0.000020
v 440.830200 138.163040 71.559952
v 401.879089 138.163025 64.648300
v 362.928009 138.147964 82.630318
v 362.928009 138.163025 66.576912
v 319.798950 128.487717 -0.000000
v 319.798950 -5.272377 84.977661
v 319.822662 -5.272400 66.576912
v 319.798950 128.487717 0.000018
v 319.798950 128.487686 64.648300
v 362.928009 138.147964 -0.000000
v 260.683594 -5.272373 -54.224968
v 274.381744 -5.272382 0.000012
v 267.059875 84.735481 -93.920387
v 311.805817 -5.272399 -108.449928
v 362.928009 -5.272373 0.000022
v 285.025818 153.409225 0.000022
v 285.025818 153.409225 -71.559921
v 323.976929 153.409210 -41.315144
v 295.462738 153.409210 0.000022
v 362.928009 153.409225 -82.630280
v 362.928009 153.409241 0.000022
v 440.830200 153.409225 -71.559921
v 401.879150 153.409225 -82.630280
v 362.928009 153.409241 -41.315125
v 430.393311 153.409225 0.000022
v 440.830200 153.409225 0.000020
v 440.830200 138.163040 -101.686623
v 362.928040 84.735512 -88.632187
v 362.928009 -5.272386 -108.449928
v 362.928009 -5.272373 -82.630280
v 362.928009 138.163055 -82.630280
v 362.928009 153.409241 -81.868919
v 362.928040 84.735512 -84.977638
v 319.822662 -5.272392 -88.632187
v 362.928009 -5.272386 0.000020
v 362.928009 138.148026 -41.315125
v 430.393280 138.163040 0.000020
v 440.830200 138.163040 -71.559921
v 401.879089 138.163040 -64.648254
v 362.928009 138.147964 -82.630280
v 362.928009 138.163055 -0.000000
v 319.798950 -5.272377 -66.576881
v 319.798950 128.487717 0.000018
v 319.798950 128.487686 -84.977638
v 319.822662 -5.272392 -66.576881
v 319.798950 128.487717 0.000018
v 319.798950 128.487686 -64.648254
v 362.928009 138.147964 41.122772
v 338.648071 -206.589264 -0.000008
v 314.905792 -206.589249 41.122768
v 386.132568 -206.589264 -0.000008
v 409.874817 -206.589249 -0.000007
v 323.981262 -178.804565 -0.000007
v 314.905823 -191.074219 -0.000007
v 409.874847 -191.074219 -0.000007
v 400.799408 -178.804565 -0.000008
v 409.874817 -206.589249 -0.000008
v 314.905792 -206.589249 -41.122787
v 338.648071 -206.589264 -0.000008
v 314.905792 -206.589249 -0.000006
v 328.901825 -163.289520 -41.122890
v 386.132568 -206.589233 -0.000008
v 409.874817 -206.589249 -0.000006
v 395.878815 -163.289520 87.112251
v 362.040527 -112.579788 51.957397
v 631.538574 -67.875000 87.112297
v 362.040527 -118.968147 51.957382
v 631.538635 -73.034851 87.112328
v 362.040527 102.034966 51.957447
v 631.538574 57.330193 87.112328
v 362.040527 108.423347 51.957424
v 631.538574 62.490051 -87.112320
v 362.040527 -112.579735 -51.957432
v 631.538574 -67.874954 -87.112305
v 362.040527 -118.968140 -51.957405
v 631.538574 -73.034843 -87.112282
v 362.040527 102.035004 -51.957390
v 631.538574 57.330223 -87.112289
v 362.040527 108.423393 -51.957390
v 631.538574 62.490078 69.346054
v 628.158447 -74.301666 76.616074
v 671.201538 -81.571724 56.140610
v 628.158447 -61.096199 48.940697
v 667.125000 -53.896301 98.074394
v 628.158447 -4.945308 108.355774
v 671.201538 -4.945317 79.399071
v 628.158447 -4.945342 69.216850
v 667.125000 -4.945343 69.346085
v 628.158447 64.410995 76.616119
v 671.201477 71.681053 56.140621
v 628.158447 51.205566 48.940712
v 667.125000 44.005657 -0.010235
v 628.158447 93.139359 -0.010240
v 671.201477 103.420769 -0.010248
v 628.158447 74.464035 -0.010244
v 667.125000 64.281822 -69.366570
v 628.158447 64.411072 -76.636627
v 671.201477 71.681107 -56.161137
v 628.158447 51.205601 -48.961220
v 667.125000 44.005692 -98.094933
v 628.158447 -4.945304 -108.376343
v 671.201477 -4.945253 -79.419624
v 628.158447 -4.945270 -69.237411
v 667.125000 -4.945263 -69.366646
v 628.158447 -74.301605 -0.010356
v 671.201538 -113.311386 -0.010303
v 628.158447 -103.029999 -76.636703
v 671.201538 -81.571655 -56.161194
v 628.158447 -61.096153 -0.010320
v 628.158447 -84.354660 -48.961281
v 667.124939 -53.896259 -0.010328
v 667.125000 -74.172447 -0.455735
v 698.320862 -237.231155 61.085575
v 698.320862 -230.220795 118.301132
v 698.320801 -206.521332 167.433350
v 698.320801 -168.820892 205.133820
v 698.320862 -119.688698 228.833267
v 698.320801 -62.473061 236.916763
v 698.320862 -1.072795 228.833282
v 698.320862 60.326809 205.133835
v 698.320801 117.542419 167.433380
v 698.320862 166.674637 118.301216
v 698.320862 204.375107 61.085602
v 698.320740 228.074570 -0.455556
v 698.320801 237.231110 -0.455563
v 1042.961304 238.464874 -0.455560
v 986.129395 286.371460 -0.455525
v 914.586792 326.756592 -0.455514
v 840.393066 331.068085 -0.455542
v 780.963257 317.263580 -0.455269
v 736.245911 293.674103 -0.455556
v 698.320801 237.231110 -61.996822
v 698.320740 230.220749 -119.212471
v 698.320801 206.521301 -168.344666
v 698.320801 168.820816 -206.045105
v 698.320740 119.688660 -229.744553
v 698.320801 62.473057 -237.828079
v 698.320740 1.073797 -229.744629
v 698.320740 -60.326851 -206.045105
v 698.320740 -117.542572 -168.344696
v 698.320740 -166.674683 -119.212532
v 698.320801 -204.375137 -61.996925
v 698.320801 -228.074661 0.770492

vt 0.000000 1.000000
vt 0.000000 0.000000
vt 1.000000 1.000000
vt 1.000000 1.000000
vt 0.000000 0.000000
vt 0.000000 1.000000
vt 1.000000 0.000000
vt 1.000000 1.000000
vt 0.000000 0.000000
vt 1.000000 0.000000
vt 0.000000 1.000000
vt 1.000000 1.000000
vt 0.000000 0.000000
vt 1.000000 0.000000
vt 0.000000 1.000000
vt 1.000000 1.000000
vt 0.000000 0.000000
vt 1.000000 0.000000
vt 0.000000 1.000000
vt 1.000000 1.000000
vt 0.000000 0.000000
vt 1.000000 0.000000
vt 0.000000 1.000000
vt 1.000000 1.000000
vt 0.000000 1.000000
vt 0.000000 0.000000
vt 1.000000 1.000000
vt 1.000000 1.000000
vt 0.000000 0.000000
vt 0.000000 1.000000
vt 1.000000 0.000000
vt 1.000000 1.000000
vt 0.000000 0.000000
vt 1.000000 0.000000
vt 0.000000 1.000000
vt 1.000000 1.000000
vt 0.000000 0.000000
vt 1.000000 0.000000
vt 0.000000 1.000000
vt 1.000000 1.000000
vt 0.000000 0.000000
vt 1.000000 0.000000
vt 0.000000 1.000000
vt 1.000000 1.000000
vt 0.000000 0.000000
vt 1.000000 0.000000
vt 0.000000 1.000000
vt 1.000000 1.000000
vt 0.000000 1.000000
vt 0.000000 0.000000
vt 1.000000 1.000000
vt 1.000000 1.000000
vt 0.000000 0.000000
vt 0.000000 1.000000
vt 1.000000 0.000000
vt 1.000000 1.000000
vt 0.000000 0.000000
vt 1.000000 0.000000
vt 0.000000 1.000000
vt 1.000000 1.000000
vt 0.000000 0.000000
vt 1.000000 0.000000
vt 0.000000 1.000000
vt 1.000000 1.000000
vt 0.000000 0.000000
vt 1.000000 0.000000
vt 0.000000 1.000000
vt 1.000000 1.000000
vt 0.000000 0.000000
vt 1.000000 0.000000
vt 0.000000 1.000000
vt 1.000000 1.000000
vt 0.000000 1.000000
vt 0.000000 0.000000
vt 1.000000 1.000000
vt 1.000000 1.000000
vt 0.000000 0.000000
vt 0.000000 1.000000
vt 1.000000 0.000000
vt 1.000000 1.000000
vt 0.000000 0.000000
vt 1.000000 0.000000
vt 0.000000 1.000000
vt 1.000000 1.000000
vt 0.000000 0.000000
vt 1.000000 0.000000
vt 0.000000 1.000000
vt 1.000000 1.000000
vt 0.000000 0.000000
vt 1.000000 0.000000
vt 0.000000 1.000000
vt 1.000000 1.000000
vt 0.000000 0.000000
vt 1.000000 0.000000
vt 0.000000 1.000000
vt 1.000000 1.000000
vt 0.627377 0.229508
vt 0.277017 0.229508
vt 0.464774 0.482193
vt 0.611382 0.482193
vt 0.282872 0.482193
vt 0.458920 0.673668
vt 0.571263 0.683764
vt 0.863270 0.778674
vt 0.956345 0.908324
vt 0.990412 0.673668
vt 0.299367 0.673668
vt 0.442424 0.363031
vt 0.089880 0.682387
vt 0.084172 0.875658
vt 0.123306 0.993199
vt 0.422651 0.991409
vt 0.640681 0.991409
vt 0.827100 0.991410
vt 0.479238 0.229508
vt 0.114414 0.229508
vt 0.277017 0.482193
vt 0.282872 0.482193
vt 0.130409 0.229508
vt 0.464774 0.482193
vt 0.458920 0.229508
vt 0.627377 0.482193
vt 0.611382 0.673668
vt 0.299367 0.673668
vt 0.170528 0.673668
vt 0.442424 0.673668
vt 0.571263 0.908324
vt 0.736128 0.683764
vt 0.863270 0.778674
vt 0.956345 0.991410
vt 0.479238 0.991409
vt 0.640681 0.991409
vt 0.827100 0.991410
vt 0.988544 0.363031
vt 0.089880 0.682387
vt 0.084172 0.875658
vt 0.123306 0.993199
vt 0.422651 0.699784
vt 0.274360 0.239804
vt 0.879392 0.993139
vt 0.086689 0.628283
vt 0.879392 0.482193
vt 0.282872 0.482193
vt 0.130409 0.482193
vt 0.458920 0.482193
vt 0.611382 0.673668
vt 0.299367 0.673668
vt 0.170528 0.673668
vt 0.442424 0.673668
vt 0.571263 0.908324
vt 0.736128 0.683764
vt 0.863270 0.778674
vt 0.956345 0.908324
vt 0.990412 0.991410
vt 0.479238 0.991409
vt 0.640681 0.991409
vt 0.827100 0.991410
vt 0.988544 0.682387
vt 0.084172 0.875658
vt 0.123306 0.993199
vt 0.422651 0.699784
vt 0.274360 0.239804
vt 0.879392 0.482193
vt 0.282872 0.482193
vt 0.458920 0.482193
vt 0.611382 0.673668
vt 0.299367 0.673668
vt 0.442424 0.673668
vt 0.571263 0.778674
vt 0.956345 0.683764
vt 0.863270 0.991409
vt 0.640681 0.991410
vt 0.479238 0.991409
vt 0.827100 0.682387
vt 0.084172 0.875658
vt 0.123306 0.993199
vt 0.422651 0.993139
vt 0.086689 0.314403
vt 0.905545 0.636496
vt 0.905545 0.529132
vt 0.905545 0.421767
vt 0.905545 0.194237
vt 0.295365 0.194236
vt 0.012014 0.071498
vt 0.083074 0.071498
vt 0.224488 0.263720
vt 0.956741 0.303602
vt 0.931143 0.647297
vt 0.931143 0.687179
vt 0.956741 0.532732
vt 0.931143 0.546026
vt 0.956741 0.418167
vt 0.931143 0.404873
vt 0.956741 0.532732
vt 0.931143 0.546026
vt 0.956741 0.418167
vt 0.931143 0.404873
vt 0.956741 0.071498
vt 0.083074 0.071498
vt 0.224488 0.529132
vt 0.905545 0.421767
vt 0.905545 0.066989
vt 0.358583 0.066989
vt 0.438521 0.066989
vt 0.358583 0.066989
vt 0.278645 0.143202
vt 0.358583 0.143202
vt 0.419623 0.143202
vt 0.358583 0.143202
vt 0.297543 0.186224
vt 0.358583 0.102205
vt 0.491133 0.134756
vt 0.491133 0.167306
vt 0.491133 0.134756
vt 0.491133 0.071342
vt 0.577786 0.134756
vt 0.577786 0.198170
vt 0.577786 0.134756
vt 0.577786 0.082050
vt 0.664438 0.134756
vt 0.664438 0.187461
vt 0.664438 0.134756
vt 0.664438 0.134756
vt 0.751091 0.102205
vt 0.491133 0.134756
vt 0.491133 0.167306
vt 0.491133 0.134756
vt 0.491133 0.071342
vt 0.577786 0.134756
vt 0.577786 0.198170
vt 0.577786 0.134756
vt 0.577786 0.082050
vt 0.664438 0.134756
vt 0.664438 0.187461
vt 0.664438 0.134756
vt 0.664438 0.134756
vt 0.751091 0.102205
vt 0.491133 0.134756
vt 0.491133 0.167306
vt 0.491133 0.134756
vt 0.491133 0.071342
vt 0.577786 0.134756
vt 0.577786 0.198170
vt 0.577786 0.134756
vt 0.577786 0.082050
vt 0.664438 0.134756
vt 0.664438 0.187461
vt 0.664438 0.134756
vt 0.664438 0.134756
vt 0.751091 0.005650
vt 0.000000 0.047204
vt 0.000000 0.005650
vt 1.000000 0.005650
vt 1.000000 0.047204
vt 1.000000 0.005650
vt 0.000000 0.005650
vt 0.000000 0.047204
vt 0.000000 0.047204
vt 1.000000 0.005650
vt 1.000000 0.005650
vt 1.000000 0.005650
vt 0.000000 0.005650
vt 0.000000 0.047204
vt 0.000000 0.047204
vt 1.000000 0.005650
vt 1.000000 0.005650
vt 1.000000 0.005650
vt 0.000000 0.005650
vt 0.000000 0.005650
vt 1.000000 0.047204
vt 1.000000 0.047204
vt 0.000000 0.005650
vt 0.000000 0.005650
vt 1.000000 0.074784
vt 0.896093 0.067308
vt 0.988199 0.088362
vt 0.864666 0.095765
vt 0.807718 0.095765
vt 0.807718 0.074784
vt 0.896093 0.067308
vt 0.988199 0.067308
vt 0.988199 0.088362
vt 0.864666 0.095765
vt 0.807718 0.074784
vt 0.896093 0.074784
vt 0.896093 0.067308
vt 0.988199 0.088362
vt 0.864666 0.088362
vt 0.864666 0.095765
vt 0.807718 0.074784
vt 0.896093 0.067308
vt 0.988199 0.088362
vt 0.864666 0.095765
vt 0.807718 0.074784
vt 0.896093 0.067308
vt 0.988199 0.088362
vt 0.864666 0.095765
vt 0.807718 0.074784
vt 0.896093 0.088362
vt 0.864666 0.217411
vt 0.896094 0.067308
vt 0.988199 0.224886
vt 0.988203 0.203833
vt 0.864667 0.095765
vt 0.807718 0.196430
vt 0.807720 0.514234
vt 0.487930 0.532013
vt 0.510944 0.496455
vt 0.464915 0.485285
vt 0.485016 0.491298
vt 0.506641 0.510429
vt 0.517564 0.546155
vt 0.529251 0.482313
vt 0.446608 0.469185
vt 0.462977 0.462676
vt 0.482358 0.464738
vt 0.502750 0.473470
vt 0.521184 0.488960
vt 0.534106 0.507819
vt 0.540795 0.527664
vt 0.538676 0.571251
vt 0.561737 0.457217
vt 0.414122 0.440120
vt 0.432170 0.428494
vt 0.453675 0.422680
vt 0.477539 0.423074
vt 0.502136 0.429651
vt 0.525790 0.441960
vt 0.546890 0.454593
vt 0.569524 0.477464
vt 0.581705 0.503314
vt 0.581918 0.527250
vt 0.581513 0.550268
vt 0.574755 0.588751
vt 0.618859 0.423034
vt 0.371869 0.399371
vt 0.397000 0.381752
vt 0.431937 0.372396
vt 0.466952 0.372957
vt 0.503009 0.380120
vt 0.536633 0.391386
vt 0.567116 0.412456
vt 0.595754 0.446967
vt 0.620701 0.478939
vt 0.632374 0.518009
vt 0.635795 0.557946
vt 0.630447 0.576131
vt 0.748875 0.388408
vt 0.335656 0.358869
vt 0.366140 0.324489
vt 0.455576 0.325267
vt 0.504065 0.333382
vt 0.554635 0.346648
vt 0.597523 0.373340
vt 0.635413 0.411506
vt 0.676422 0.454492
vt 0.703083 0.503988
vt 0.720650 0.544427
vt 0.735112 0.514598
vt 0.842060 0.347767
vt 0.291199 0.252478
vt 0.503246 0.264877
vt 0.566244 0.279881
vt 0.620035 0.302801
vt 0.667506 0.349454
vt 0.726044 0.389719
vt 0.764637 0.433262
vt 0.798185 0.476387
vt 0.828097 0.445071
vt 0.916080 0.313887
vt 0.247131 0.254318
vt 0.308195 0.187146
vt 0.425141 0.182475
vt 0.483466 0.185638
vt 0.544583 0.196519
vt 0.613376 0.227569
vt 0.676618 0.267699
vt 0.738990 0.316688
vt 0.800670 0.369196
vt 0.851074 0.412149
vt 0.886645 0.370175
vt 0.969569 0.272375
vt 0.196270 0.209233
vt 0.263425 0.166943
vt 0.318192 0.142077
vt 0.391374 0.130797
vt 0.454763 0.125520
vt 0.518857 0.126231
vt 0.589893 0.153695
vt 0.666655 0.203516
vt 0.742643 0.238591
vt 0.808785 0.282944
vt 0.870872 0.326138
vt 0.926586 0.275416
vt 0.980940 0.237517
vt 0.151341 0.171723
vt 0.219832 0.131803
vt 0.280967 0.093343
vt 0.347110 0.074035
vt 0.411774 0.064462
vt 0.483370 0.068180
vt 0.559104 0.093219
vt 0.649909 0.131470
vt 0.735077 0.161195
vt 0.801482 0.193734
vt 0.866529 0.230904
vt 0.926641 0.197489
vt 0.977928 0.208905
vt 0.112442 0.142193
vt 0.177597 0.094336
vt 0.241764 0.053856
vt 0.317470 0.034965
vt 0.380775 0.018500
vt 0.457232 0.018062
vt 0.536618 0.031627
vt 0.623677 0.057661
vt 0.711988 0.089849
vt 0.789192 0.124737
vt 0.858342 0.161794
vt 0.926118 0.812124
vt 0.925326 0.775858
vt 0.649692 0.709300
vt 0.676317 0.665523
vt 0.733403 0.656136
vt 0.804742 0.683656
vt 0.871220 0.740707
vt 0.915023 0.793991
vt 0.787509 0.543183
vt 0.490844 0.537170
vt 0.469218 0.518039
vt 0.458296 0.559283
vt 0.512882 0.565792
vt 0.493502 0.563730
vt 0.473109 0.554998
vt 0.454675 0.539508
vt 0.441753 0.520649
vt 0.435064 0.500805
vt 0.437183 0.588348
vt 0.543689 0.599974
vt 0.522185 0.604712
vt 0.498321 0.605216
vt 0.471310 0.600802
vt 0.446773 0.585442
vt 0.425876 0.567151
vt 0.409652 0.548377
vt 0.399916 0.525154
vt 0.393941 0.501218
vt 0.394347 0.478200
vt 0.401105 0.657025
vt 0.544397 0.660439
vt 0.513688 0.656714
vt 0.483915 0.650656
vt 0.445942 0.633502
vt 0.413989 0.612238
vt 0.388572 0.587182
vt 0.360444 0.554159
vt 0.347829 0.518964
vt 0.343705 0.484940
vt 0.344281 0.452219
vt 0.353887 0.730265
vt 0.535998 0.732273
vt 0.494040 0.721267
vt 0.451081 0.703572
vt 0.405104 0.678922
vt 0.367366 0.645925
vt 0.340030 0.602711
vt 0.313916 0.562106
vt 0.293086 0.516327
vt 0.292230 0.429490
vt 0.311810 0.807838
vt 0.497258 0.796977
vt 0.439643 0.772963
vt 0.387957 0.744992
vt 0.351785 0.702315
vt 0.315263 0.664964
vt 0.278534 0.618769
vt 0.249769 0.570087
vt 0.232573 0.859176
vt 0.451505 0.840601
vt 0.388230 0.806218
vt 0.331740 0.772058
vt 0.290326 0.717252
vt 0.242748 0.665072
vt 0.212612 0.615370
vt 0.183830 0.568255
vt 0.171719 0.502980
vt 0.160568 0.373644
vt 0.200064 0.917298
vt 0.371811 0.878285
vt 0.324223 0.835574
vt 0.268394 0.785456
vt 0.222806 0.723822
vt 0.176846 0.663786
vt 0.147765 0.603693
vt 0.129202 0.551048
vt 0.118000 0.492161
vt 0.112617 0.406767
vt 0.125730 0.345316
vt 0.148958 0.941691
vt 0.310761 0.893467
vt 0.256375 0.847587
vt 0.208433 0.792937
vt 0.164923 0.728575
vt 0.118746 0.657212
vt 0.092369 0.589946
vt 0.077133 0.533617
vt 0.069170 0.471456
vt 0.063751 0.382376
vt 0.080954 0.312880
vt 0.104775 0.948495
vt 0.253253 0.904791
vt 0.200154 0.853160
vt 0.152584 0.798255
vt 0.108268 0.731379
vt 0.064014 0.651719
vt 0.037787 0.577355
vt 0.020222 0.502953
vt 0.014504 0.426124
vt 0.020008 0.353696
vt 0.037732 0.284606
vt 0.066037 0.878682
vt 0.898702 0.922459
vt 0.841616 0.931846
vt 0.770276 0.904326
vt 0.703799 0.847275
vt 0.659995 0.451738
vt 0.235343 0.269524
vt 0.383610 0.397811
vt 0.254822 0.470277
vt 0.299197 0.510144
vt 0.221631 0.429430
vt 0.174856 0.330778
vt 0.408499 0.300649
vt 0.340742 0.201909
vt 0.347059 0.244719
vt 0.455443 0.908324
vt 0.481843 0.683764
vt 0.608985 0.778674
vt 0.515911 0.649024
vt 0.736128 0.927829
vt 0.640681 0.927830
vt 0.479238 0.927829
vt 0.827100 0.927830
vt 0.988544 0.676746
vt 0.020367 0.357391
vt 0.026076 0.870593
vt 0.065407 0.924361
vt 0.060752 0.907695
vt 0.312759 0.907695
vt 0.086689 0.793346
vt 0.433280 0.699784
vt 0.457865 0.861838
vt 0.366112 0.846186
vt 0.274360 0.886908
vt 0.274360 0.239804
vt 0.683643 0.628283
vt 0.629561 0.850554
vt 0.194176 0.699784
vt 0.194176 0.907695
vt 0.446914 0.229508
vt 0.114414 0.482193
vt 0.130409 0.673668
vt 0.170528 0.683764
vt 0.608985 0.908324
vt 0.481843 0.778674
vt 0.515911 0.908324
vt 0.736128 0.649024
vt 0.736128 0.908324
vt 0.990412 0.927829
vt 0.640681 0.927830
vt 0.479238 0.927829
vt 0.827100 0.927830
vt 0.988544 0.991410
vt 0.988544 0.676746
vt 0.020367 0.357391
vt 0.026076 0.870593
vt 0.065407 0.924361
vt 0.060752 0.907695
vt 0.312759 0.907695
vt 0.086689 0.793346
vt 0.433280 0.699784
vt 0.274360 0.699784
vt 0.457865 0.861838
vt 0.366112 0.846186
vt 0.274360 0.886908
vt 0.274360 0.628283
vt 0.879392 0.239804
vt 0.683643 0.628283
vt 0.629561 0.239804
vt 0.879392 0.850554
vt 0.194176 0.699784
vt 0.194176 0.907695
vt 0.446914 0.229508
vt 0.114414 0.229508
vt 0.277017 0.229508
vt 0.464774 0.229508
vt 0.627377 0.683764
vt 0.608985 0.908324
vt 0.481843 0.778674
vt 0.515911 0.649024
vt 0.736128 0.927829
vt 0.640681 0.927830
vt 0.479238 0.927829
vt 0.827100 0.927830
vt 0.988544 0.676746
vt 0.020367 0.363031
vt 0.089880 0.357391
vt 0.026076 0.870593
vt 0.065407 0.924361
vt 0.060752 0.907695
vt 0.312759 0.907695
vt 0.086689 0.993139
vt 0.086689 0.793346
vt 0.433280 0.699784
vt 0.457865 0.861838
vt 0.366112 0.846186
vt 0.274360 0.886908
vt 0.274360 0.239804
vt 0.683643 0.628283
vt 0.879392 0.628283
vt 0.629561 0.850554
vt 0.194176 0.699784
vt 0.194176 0.907695
vt 0.446914 0.229508
vt 0.114414 0.229508
vt 0.277017 0.482193
vt 0.130409 0.229508
vt 0.464774 0.229508
vt 0.627377 0.673668
vt 0.170528 0.908324
vt 0.481843 0.683764
vt 0.608985 0.778674
vt 0.515911 0.908324
vt 0.736128 0.649024
vt 0.736128 0.908324
vt 0.990412 0.927829
vt 0.640681 0.927830
vt 0.479238 0.927829
vt 0.827100 0.927830
vt 0.988544 0.991410
vt 0.988544 0.676746
vt 0.020367 0.363031
vt 0.089880 0.357391
vt 0.026076 0.870593
vt 0.065407 0.924361
vt 0.060752 0.907695
vt 0.312759 0.993139
vt 0.086689 0.907695
vt 0.086689 0.699784
vt 0.274360 0.793346
vt 0.433280 0.699784
vt 0.457865 0.861838
vt 0.366112 0.846186
vt 0.274360 0.886908
vt 0.274360 0.628283
vt 0.879392 0.239804
vt 0.683643 0.239804
vt 0.879392 0.628283
vt 0.629561 0.850554
vt 0.194176 0.699784
vt 0.194176 0.907695
vt 0.446914 0.546248
vt 0.982360 0.687179
vt 0.982360 0.404834
vt 0.982360 0.263720
vt 0.982360 0.647297
vt 0.931143 0.687179
vt 0.956741 0.263720
vt 0.956741 0.303602
vt 0.931143 0.194237
vt 0.295365 0.194236
vt 0.012014 0.546248
vt 0.982360 0.687179
vt 0.982360 0.636496
vt 0.905545 0.404834
vt 0.982360 0.263720
vt 0.982360 0.314403
vt 0.905545 0.047204
vt 1.000000 0.047204
vt 0.000000 0.047204
vt 0.000000 0.047204
vt 1.000000 0.047204
vt 1.000000 0.047204
vt 0.000000 0.047204
vt 0.000000 0.047204
vt 1.000000 0.047204
vt 1.000000 0.047204
vt 0.000000 0.047204
vt 0.000000 0.047204
vt 1.000000 0.047204
vt 1.000000 0.047204
vt 0.000000 0.047204
vt 0.000000 0.047204
vt 1.000000 0.217411
vt 0.896094 0.224886
vt 0.988203 0.203833
vt 0.864667 0.196430
vt 0.807720 0.217411
vt 0.896094 0.224886
vt 0.988203 0.203833
vt 0.864667 0.196430
vt 0.807720 0.217411
vt 0.896094 0.224886
vt 0.988203 0.203833
vt 0.864667 0.196430
vt 0.807720 0.217411
vt 0.896094 0.224886
vt 0.988203 0.203833
vt 0.864667 0.196430
vt 0.807720 0.217411
vt 0.896094 0.224886
vt 0.988203 0.203833
vt 0.864667 0.196430
vt 0.807720 0.217411
vt 0.896094 0.224886
vt 0.988203 0.203833
vt 0.864667 0.196430
vt 0.807720 0.217411
vt 0.896094 0.067308
vt 0.988199 0.074784
vt 0.896093 0.224886
vt 0.988203 0.203833
vt 0.864667 0.088362
vt 0.864666 0.196430
vt 0.807720 0.095765
vt 0.807718 0.793991
vt 0.586101 0.741774
vt 0.592052 0.697586
vt 0.612173 0.651538
vt 0.644181 0.619550
vt 0.685894 0.599441
vt 0.734470 0.592582
vt 0.786598 0.599441
vt 0.838727 0.619550
vt 0.887303 0.651538
vt 0.929016 0.693227
vt 0.961024 0.741774
vt 0.981144 0.793991
vt 0.988918 0.642922
vt 0.576166 0.724065
vt 0.555094 0.821384
vt 0.536978 0.882444
vt 0.502063 0.944068
vt 0.426980 0.972754
vt 0.368523 0.983576
vt 0.305153 0.846208
vt 0.982966 0.894755
vt 0.962846 0.936444
vt 0.930838 0.968432
vt 0.889125 0.988541
vt 0.840549 0.995400
vt 0.788420 0.988541
vt 0.736292 0.968432
vt 0.687716 0.936444
vt 0.646003 0.894755
vt 0.613995 0.846208
vt 0.593874 1.000000

f 17/17 18/18 19/19
f 18/18 17/17 20/20
f 1/1 13/13 14/14
f 15/15 14/14 13/13
f 41/41 42/42 43/43
f 42/42 41/41 44/44
f 25/25 37/37 38/38
f 39/39 38/38 37/37
f 65/65 66/66 67/67
f 66/66 65/65 68/68
f 49/49 61/61 62/62
f 63/63 62/62 61/61
f 89/89 90/90 91/91
f 90/90 89/89 92/92
f 73/73 85/85 86/86
f 87/87 86/86 85/85
f 307/307 310/310 309/309
f 307/307 311/311 310/310
f 307/307 312/312 311/311
f 307/307 308/308 312/312
f 315/315 309/309 310/310
f 309/309 315/315 314/314
f 310/310 316/316 315/315
f 310/310 317/317 316/316
f 317/317 311/311 318/318
f 311/311 317/317 310/310
f 319/319 311/311 312/312
f 311/311 319/319 318/318
f 312/312 320/320 319/319
f 312/312 321/321 320/320
f 321/321 308/308 313/313
f 308/308 321/321 312/312
f 324/324 314/314 315/315
f 314/314 324/324 323/323
f 315/315 325/325 324/324
f 326/326 315/315 316/316
f 315/315 326/326 325/325
f 327/327 316/316 317/317
f 316/316 327/327 326/326
f 317/317 328/328 327/327
f 329/329 317/317 318/318
f 317/317 329/329 328/328
f 330/330 318/318 319/319
f 318/318 330/330 329/329
f 319/319 331/331 330/330
f 332/332 319/319 320/320
f 319/319 332/332 331/331
f 333/333 320/320 321/321
f 320/320 333/333 332/332
f 321/321 334/334 333/333
f 322/322 321/321 313/313
f 321/321 322/322 334/334
f 337/337 323/323 324/324
f 323/323 337/337 336/336
f 338/338 324/324 325/325
f 324/324 338/338 337/337
f 339/339 325/325 326/326
f 325/325 339/339 338/338
f 340/340 326/326 327/327
f 326/326 340/340 339/339
f 341/341 327/327 328/328
f 327/327 341/341 340/340
f 342/342 328/328 329/329
f 328/328 342/342 341/341
f 343/343 329/329 330/330
f 329/329 343/343 342/342
f 344/344 330/330 331/331
f 330/330 344/344 343/343
f 345/345 331/331 332/332
f 331/331 345/345 344/344
f 346/346 332/332 333/333
f 332/332 346/346 345/345
f 347/347 333/333 334/334
f 333/333 347/347 346/346
f 335/335 334/334 322/322
f 334/334 335/335 347/347
f 350/350 336/336 337/337
f 336/336 350/350 349/349
f 350/350 338/338 533/533
f 338/338 350/350 337/337
f 338/338 351/351 533/533
f 351/351 338/338 339/339
f 352/352 339/339 340/340
f 339/339 352/352 351/351
f 353/353 340/340 341/341
f 340/340 353/353 352/352
f 354/354 341/341 342/342
f 341/341 354/354 353/353
f 355/355 342/342 343/343
f 342/342 355/355 354/354
f 356/356 343/343 344/344
f 343/343 356/356 355/355
f 357/357 344/344 345/345
f 344/344 357/357 356/356
f 358/358 345/345 346/346
f 345/345 358/358 357/357
f 359/359 346/346 347/347
f 346/346 359/359 358/358
f 348/348 347/347 335/335
f 347/347 348/348 359/359
f 361/361 350/350 534/534
f 350/350 361/361 349/349
f 351/351 362/362 536/536
f 362/362 351/351 352/352
f 363/363 352/352 353/353
f 352/352 363/363 362/362
f 364/364 353/353 354/354
f 353/353 364/364 363/363
f 365/365 354/354 355/355
f 354/354 365/365 364/364
f 366/366 355/355 356/356
f 355/355 366/366 365/365
f 367/367 356/356 357/357
f 356/356 367/367 366/366
f 368/368 357/357 358/358
f 357/357 368/368 367/367
f 369/369 358/358 359/359
f 358/358 369/369 368/368
f 360/360 359/359 348/348
f 359/359 360/360 369/369
f 372/372 361/361 534/534
f 361/361 372/372 371/371
f 362/362 373/373 536/536
f 373/373 362/362 374/374
f 375/375 362/362 363/363
f 362/362 375/375 374/374
f 376/376 363/363 364/364
f 363/363 376/376 375/375
f 377/377 364/364 365/365
f 364/364 377/377 376/376
f 378/378 365/365 366/366
f 365/365 378/378 377/377
f 379/379 366/366 367/367
f 366/366 379/379 378/378
f 380/380 367/367 368/368
f 367/367 380/380 379/379
f 381/381 368/368 369/369
f 368/368 381/381 380/380
f 370/370 369/369 360/360
f 369/369 370/370 381/381
f 372/372 383/383 371/371
f 383/383 372/372 384/384
f 385/385 372/372 535/535
f 372/372 385/385 384/384
f 373/373 385/385 535/535
f 385/385 373/373 386/386
f 387/387 373/373 374/374
f 373/373 387/387 386/386
f 388/388 374/374 375/375
f 374/374 388/388 387/387
f 389/389 375/375 376/376
f 375/375 389/389 388/388
f 390/390 376/376 377/377
f 376/376 390/390 389/389
f 391/391 377/377 378/378
f 377/377 391/391 390/390
f 392/392 378/378 379/379
f 378/378 392/392 391/391
f 393/393 379/379 380/380
f 379/379 393/393 392/392
f 394/394 380/380 381/381
f 380/380 394/394 393/393
f 382/382 381/381 370/370
f 381/381 382/382 394/394
f 397/397 383/383 384/384
f 383/383 397/397 396/396
f 398/398 384/384 385/385
f 384/384 398/398 397/397
f 399/399 385/385 386/386
f 385/385 399/399 398/398
f 400/400 386/386 387/387
f 386/386 400/400 399/399
f 401/401 387/387 388/388
f 387/387 401/401 400/400
f 402/402 388/388 389/389
f 388/388 402/402 401/401
f 403/403 389/389 390/390
f 389/389 403/403 402/402
f 404/404 390/390 391/391
f 390/390 404/404 403/403
f 405/405 391/391 392/392
f 391/391 405/405 404/404
f 406/406 392/392 393/393
f 392/392 406/406 405/405
f 407/407 393/393 394/394
f 393/393 407/407 406/406
f 395/395 394/394 382/382
f 394/394 395/395 407/407
f 410/410 396/396 397/397
f 396/396 410/410 409/409
f 411/411 397/397 398/398
f 397/397 411/411 410/410
f 412/412 398/398 399/399
f 398/398 412/412 411/411
f 413/413 399/399 400/400
f 399/399 413/413 412/412
f 414/414 400/400 401/401
f 400/400 414/414 413/413
f 415/415 401/401 402/402
f 401/401 415/415 414/414
f 416/416 402/402 403/403
f 402/402 416/416 415/415
f 417/417 403/403 404/404
f 403/403 417/417 416/416
f 418/418 404/404 405/405
f 404/404 418/418 417/417
f 419/419 405/405 406/406
f 405/405 419/419 418/418
f 420/420 406/406 407/407
f 406/406 420/420 419/419
f 408/408 407/407 395/395
f 407/407 408/408 420/420
f 727/727 728/728 422/422
f 423/423 728/728 729/729
f 728/728 423/423 422/422
f 729/729 730/730 423/423
f 424/424 730/730 731/731
f 730/730 424/424 423/423
f 731/731 732/732 424/424
f 425/425 732/732 733/733
f 732/732 425/425 424/424
f 733/733 734/734 425/425
f 426/426 734/734 735/735
f 734/734 426/426 425/425
f 735/735 736/736 426/426
f 427/427 736/736 737/737
f 736/736 427/427 426/426
f 737/737 738/738 427/427
f 421/421 738/738 739/739
f 738/738 421/421 427/427
f 428/428 422/422 423/423
f 428/428 423/423 424/424
f 428/428 424/424 425/425
f 428/428 425/425 426/426
f 428/428 426/426 427/427
f 428/428 427/427 421/421
f 307/307 429/429 308/308
f 307/307 430/430 429/429
f 307/307 431/431 430/430
f 307/307 309/309 431/431
f 432/432 308/308 429/429
f 308/308 432/432 313/313
f 429/429 433/433 432/432
f 429/429 434/434 433/433
f 434/434 430/430 435/435
f 430/430 434/434 429/429
f 436/436 430/430 431/431
f 430/430 436/436 435/435
f 431/431 437/437 436/436
f 431/431 438/438 437/437
f 438/438 309/309 314/314
f 309/309 438/438 431/431
f 439/439 313/313 432/432
f 313/313 439/439 322/322
f 432/432 440/440 439/439
f 441/441 432/432 433/433
f 432/432 441/441 440/440
f 442/442 433/433 434/434
f 433/433 442/442 441/441
f 434/434 443/443 442/442
f 444/444 434/434 435/435
f 434/434 444/444 443/443
f 445/445 435/435 436/436
f 435/435 445/445 444/444
f 436/436 446/446 445/445
f 447/447 436/436 437/437
f 436/436 447/447 446/446
f 448/448 437/437 438/438
f 437/437 448/448 447/447
f 438/438 449/449 448/448
f 323/323 438/438 314/314
f 438/438 323/323 449/449
f 450/450 322/322 439/439
f 322/322 450/450 740/740
f 451/451 439/439 440/440
f 439/439 451/451 450/450
f 452/452 440/440 441/441
f 440/440 452/452 451/451
f 453/453 441/441 442/442
f 441/441 453/453 452/452
f 454/454 442/442 443/443
f 442/442 454/454 453/453
f 455/455 443/443 444/444
f 443/443 455/455 454/454
f 456/456 444/444 445/445
f 444/444 456/456 455/455
f 457/457 445/445 446/446
f 445/445 457/457 456/456
f 458/458 446/446 447/447
f 446/446 458/458 457/457
f 459/459 447/447 448/448
f 447/447 459/459 458/458
f 460/460 448/448 449/449
f 448/448 460/460 459/459
f 336/336 449/449 323/323
f 449/449 336/336 460/460
f 461/461 740/740 450/450
f 740/740 461/461 741/741
f 462/462 450/450 451/451
f 450/450 462/462 461/461
f 463/463 451/451 452/452
f 451/451 463/463 462/462
f 464/464 452/452 453/453
f 452/452 464/464 463/463
f 465/465 453/453 454/454
f 453/453 465/465 464/464
f 466/466 454/454 455/455
f 454/454 466/466 465/465
f 467/467 455/455 456/456
f 455/455 467/467 466/466
f 468/468 456/456 457/457
f 456/456 468/468 467/467
f 469/469 457/457 458/458
f 457/457 469/469 468/468
f 469/469 459/459 530/530
f 459/459 469/469 458/458
f 470/470 336/336 349/349
f 336/336 470/470 460/460
f 471/471 741/741 461/461
f 741/741 471/471 742/742
f 472/472 461/461 462/462
f 461/461 472/472 471/471
f 473/473 462/462 463/463
f 462/462 473/473 472/472
f 474/474 463/463 464/464
f 463/463 474/474 473/473
f 475/475 464/464 465/465
f 464/464 475/475 474/474
f 476/476 465/465 466/466
f 465/465 476/476 475/475
f 477/477 466/466 467/467
f 466/466 477/477 476/476
f 478/478 467/467 468/468
f 467/467 478/478 477/477
f 478/478 469/469 531/531
f 469/469 478/478 468/468
f 470/470 361/361 529/529
f 361/361 470/470 349/349
f 479/479 742/742 471/471
f 742/742 479/479 743/743
f 480/480 471/471 472/472
f 471/471 480/480 479/479
f 481/481 472/472 473/473
f 472/472 481/481 480/480
f 482/482 473/473 474/474
f 473/473 482/482 481/481
f 483/483 474/474 475/475
f 474/474 483/483 482/482
f 484/484 475/475 476/476
f 475/475 484/484 483/483
f 485/485 476/476 477/477
f 476/476 485/485 484/484
f 486/486 477/477 478/478
f 477/477 486/486 485/485
f 487/487 478/478 531/531
f 478/478 487/487 486/486
f 361/361 488/488 529/529
f 488/488 361/361 371/371
f 489/489 743/743 479/479
f 743/743 489/489 744/744
f 490/490 479/479 480/480
f 479/479 490/490 489/489
f 491/491 480/480 481/481
f 480/480 491/491 490/490
f 492/492 481/481 482/482
f 481/481 492/492 491/491
f 493/493 482/482 483/483
f 482/482 493/493 492/492
f 494/494 483/483 484/484
f 483/483 494/494 493/493
f 495/495 484/484 485/485
f 484/484 495/495 494/494
f 496/496 485/485 486/486
f 485/485 496/496 495/495
f 497/497 486/486 487/487
f 486/486 497/497 496/496
f 498/498 487/487 532/532
f 487/487 498/498 497/497
f 488/488 498/498 532/532
f 498/498 488/488 499/499
f 383/383 488/488 371/371
f 488/488 383/383 499/499
f 500/500 744/744 489/489
f 744/744 500/500 745/745
f 501/501 489/489 490/490
f 489/489 501/501 500/500
f 502/502 490/490 491/491
f 490/490 502/502 501/501
f 503/503 491/491 492/492
f 491/491 503/503 502/502
f 504/504 492/492 493/493
f 492/492 504/504 503/503
f 505/505 493/493 494/494
f 493/493 505/505 504/504
f 506/506 494/494 495/495
f 494/494 506/506 505/505
f 507/507 495/495 496/496
f 495/495 507/507 506/506
f 508/508 496/496 497/497
f 496/496 508/508 507/507
f 509/509 497/497 498/498
f 497/497 509/509 508/508
f 510/510 498/498 499/499
f 498/498 510/510 509/509
f 396/396 499/499 383/383
f 499/499 396/396 510/510
f 511/511 745/745 500/500
f 745/745 511/511 746/746
f 512/512 500/500 501/501
f 500/500 512/512 511/511
f 513/513 501/501 502/502
f 501/501 513/513 512/512
f 514/514 502/502 503/503
f 502/502 514/514 513/513
f 515/515 503/503 504/504
f 503/503 515/515 514/514
f 516/516 504/504 505/505
f 504/504 516/516 515/515
f 517/517 505/505 506/506
f 505/505 517/517 516/516
f 518/518 506/506 507/507
f 506/506 518/518 517/517
f 519/519 507/507 508/508
f 507/507 519/519 518/518
f 520/520 508/508 509/509
f 508/508 520/520 519/519
f 521/521 509/509 510/510
f 509/509 521/521 520/520
f 409/409 510/510 396/396
f 510/510 409/409 521/521
f 739/739 747/747 421/421
f 522/522 747/747 748/748
f 747/747 522/522 421/421
f 748/748 749/749 522/522
f 523/523 749/749 750/750
f 749/749 523/523 522/522
f 750/750 751/751 523/523
f 524/524 751/751 752/752
f 751/751 524/524 523/523
f 752/752 753/753 524/524
f 525/525 753/753 754/754
f 753/753 525/525 524/524
f 754/754 755/755 525/525
f 526/526 755/755 756/756
f 755/755 526/526 525/525
f 756/756 757/757 526/526
f 422/422 757/757 727/727
f 757/757 422/422 526/526
f 428/428 421/421 522/522
f 428/428 522/522 523/523
f 428/428 523/523 524/524
f 428/428 524/524 525/525
f 428/428 525/525 526/526
f 428/428 526/526 422/422
f 459/459 470/470 530/530
f 470/470 459/459 460/460
f 533/533 534/534 350/350
f 534/534 533/533 528/528
f 534/534 535/535 372/372
f 535/535 534/534 528/528
f 536/536 533/533 351/351
f 533/533 536/536 528/528
f 535/535 536/536 373/373
f 536/536 535/535 528/528
f 530/530 531/531 469/469
f 531/531 530/530 527/527
f 529/529 530/530 470/470
f 530/530 529/529 527/527
f 531/531 532/532 487/487
f 532/532 531/531 527/527
f 532/532 529/529 488/488
f 529/529 532/532 527/527
f 116/116 119/119 98/98
f 98/98 101/101 99/99
f 99/99 102/102 119/119
f 119/119 125/125 101/101
f 101/101 107/107 102/102
f 102/102 108/108 537/537
f 538/538 539/539 128/128
f 538/538 537/537 540/540
f 538/538 128/128 105/105
f 128/128 106/106 104/104
f 128/128 105/105 540/540
f 128/128 104/104 541/541
f 541/541 113/113 543/543
f 543/543 114/114 544/544
f 544/544 134/134 545/545
f 111/111 110/110 545/545
f 547/547 111/111 545/545
f 548/548 547/547 549/549
f 141/141 550/550 549/549
f 112/112 141/141 139/139
f 551/551 552/552 139/139
f 553/553 551/551 554/554
f 553/553 139/139 555/555
f 553/553 554/554 556/556
f 556/556 140/140 558/558
f 558/558 554/554 112/112
f 549/549 560/560 561/561
f 120/120 122/122 562/562
f 121/121 123/123 564/564
f 565/565 566/566 564/564
f 567/567 565/565 568/568
f 130/130 569/569 567/567
f 129/129 130/130 568/568
f 129/129 567/567 570/570
f 570/570 571/571 572/572
f 572/572 570/570 573/573
f 573/573 572/572 575/575
f 577/577 578/578 575/575
f 137/137 577/577 575/575
f 136/136 137/137 579/579
f 580/580 178/178 579/579
f 178/178 138/138 581/581
f 582/582 583/583 584/584
f 582/582 581/581 584/584
f 585/585 582/582 586/586
f 585/585 584/584 587/587
f 587/587 590/590 591/591
f 591/591 592/592 138/138
f 593/593 579/579 594/594
f 596/596 597/597 144/144
f 145/145 146/146 598/598
f 599/599 600/600 598/598
f 151/151 599/599 601/601
f 153/153 154/154 151/151
f 152/152 153/153 601/601
f 152/152 151/151 602/602
f 602/602 603/603 604/604
f 604/604 602/602 605/605
f 605/605 604/604 606/606
f 609/609 610/610 606/606
f 160/160 609/609 606/606
f 159/159 160/160 611/611
f 612/612 613/613 611/611
f 613/613 161/161 614/614
f 162/162 615/615 616/616
f 162/162 614/614 616/616
f 617/617 162/162 618/618
f 617/617 616/616 619/619
f 619/619 621/621 622/622
f 622/622 623/623 161/161
f 624/624 611/611 625/625
f 625/625 627/627 626/626
f 626/626 164/164 628/628
f 628/628 165/165 627/627
f 627/627 630/630 164/164
f 164/164 167/167 165/165
f 165/165 168/168 631/631
f 632/632 633/633 634/634
f 632/632 631/631 635/635
f 632/632 634/634 170/170
f 634/634 636/636 171/171
f 634/634 170/170 635/635
f 634/634 171/171 637/637
f 637/637 172/172 639/639
f 639/639 174/174 640/640
f 640/640 641/641 642/642
f 176/176 175/175 642/642
f 645/645 176/176 642/642
f 646/646 645/645 647/647
f 648/648 649/649 647/647
f 177/177 648/648 650/650
f 651/651 652/652 650/650
f 653/653 651/651 654/654
f 653/653 650/650 655/655
f 653/653 654/654 656/656
f 656/656 659/659 660/660
f 660/660 654/654 177/177
f 647/647 662/662 192/192
f 192/192 191/191 194/194
f 194/194 193/193 187/187
f 187/187 188/188 185/185
f 185/185 184/184 663/663
f 663/663 192/192 180/180
f 180/180 189/189 665/665
f 665/665 194/194 181/181
f 181/181 191/191 666/666
f 666/666 187/187 182/182
f 182/182 193/193 196/196
f 196/196 668/668 198/198
f 198/198 196/196 669/669
f 669/669 198/198 199/199
f 199/199 200/200 673/673
f 673/673 674/674 675/675
f 675/675 201/201 676/676
f 676/676 673/673 201/201
f 201/201 202/202 677/677
f 677/677 676/676 202/202
f 202/202 678/678 203/203
f 203/203 207/207 204/204
f 204/204 208/208 205/205
f 205/205 209/209 206/206
f 206/206 210/210 207/207
f 211/211 207/207 212/212
f 212/212 216/216 213/213
f 213/213 217/217 214/214
f 214/214 218/218 215/215
f 215/215 219/219 216/216
f 216/216 220/220 217/217
f 217/217 221/221 218/218
f 218/218 222/222 219/219
f 219/219 223/223 220/220
f 224/224 220/220 225/225
f 225/225 229/229 226/226
f 226/226 230/230 227/227
f 227/227 231/231 228/228
f 228/228 232/232 229/229
f 229/229 233/233 230/230
f 230/230 234/234 231/231
f 231/231 235/235 232/232
f 232/232 236/236 233/233
f 237/237 233/233 238/238
f 238/238 242/242 239/239
f 239/239 243/243 240/240
f 240/240 244/244 241/241
f 241/241 245/245 242/242
f 242/242 246/246 243/243
f 243/243 247/247 244/244
f 244/244 248/248 245/245
f 245/245 249/249 246/246
f 250/250 246/246 251/251
f 251/251 254/254 679/679
f 679/679 680/680 681/681
f 681/681 682/682 257/257
f 257/257 258/258 683/683
f 683/683 261/261 685/685
f 685/685 257/257 263/263
f 263/263 264/264 687/687
f 687/687 267/267 689/689
f 689/689 263/263 269/269
f 269/269 270/270 691/691
f 691/691 692/692 693/693
f 693/693 694/694 301/301
f 301/301 303/303 275/275
f 277/277 278/278 695/695
f 695/695 696/696 280/280
f 283/283 279/279 699/699
f 699/699 700/700 285/285
f 288/288 284/284 703/703
f 703/703 704/704 286/286
f 289/289 290/290 707/707
f 707/707 708/708 291/291
f 293/293 294/294 711/711
f 711/711 712/712 295/295
f 297/297 298/298 715/715
f 715/715 716/716 299/299
f 300/300 305/305 719/719
f 719/719 722/722 721/721
