# MOD converted: v_move_carpet.mod
# 192 verts, 136 faces

v 89.994873 -48.808613 -46.181858
v 89.994873 -48.808609 -51.181862
v 89.733185 -43.815464 -46.181862
v 89.733192 -43.815460 -51.181862
v 94.988014 -48.546928 -46.181862
v 94.988022 -48.546925 -51.181866
v 94.726334 -43.553780 -46.181866
v 94.726334 -43.553776 -51.181858
v 89.994873 -48.808613 -46.181862
v 94.988022 -48.546925 -46.181858
v 89.994873 -48.808609 -51.181862
v 94.988014 -48.546928 -46.181858
v 89.994873 -48.808609 -46.181866
v 94.726334 -43.553776 -46.181862
v 89.733192 -43.815460 -46.181862
v 94.988022 -48.546925 -46.181862
v 89.733192 -43.815460 -51.181866
v 94.726334 -43.553780 -51.181862
v 89.733185 -43.815464 -46.181866
v 94.726334 -43.553776 -51.181862
v 89.733185 -43.815464 -51.181862
v 94.988014 -48.546928 -51.181858
v 89.994873 -48.808613 -51.181866
v 94.726334 -43.553780 1.000000
v 83.782234 69.735443 -51.224564
v 84.043877 64.743042 -46.139145
v 83.786736 69.649399 -46.225307
v 84.048378 64.656998 -51.138390
v 88.775383 69.997131 -51.224552
v 89.037025 65.004723 -46.139130
v 88.779884 69.911079 -46.225296
v 89.041527 64.918678 -51.138401
v 83.782234 69.735443 -51.224552
v 89.037025 65.004723 -51.224564
v 84.043877 64.743042 -51.138390
v 88.775383 69.997131 -51.224564
v 84.043877 64.743042 -46.225296
v 89.041527 64.918678 -46.225307
v 84.048378 64.656998 -51.224552
v 89.037025 65.004723 -46.225307
v 84.048378 64.656998 -46.139130
v 88.779884 69.911079 -46.139145
v 83.786736 69.649399 -46.225296
v 89.041527 64.918678 -46.139145
v 83.786736 69.649399 -51.138390
v 88.775383 69.997131 -51.138401
v 83.782234 69.735443 -46.139130
v 88.779884 69.911079 1.000000
v 89.994873 -48.808617 51.182045
v 89.994873 -48.808617 46.182045
v 89.733192 -43.815468 51.182045
v 89.733192 -43.815468 46.182045
v 94.988014 -48.546936 51.182045
v 94.988014 -48.546936 46.182045
v 94.726334 -43.553787 51.182045
v 94.726334 -43.553787 46.182045
v 89.994873 -48.808617 51.182045
v 94.988014 -48.546936 51.182045
v 89.994873 -48.808617 46.182045
v 94.988014 -48.546936 51.182045
v 89.994873 -48.808617 51.182045
v 94.726334 -43.553787 51.182045
v 89.733192 -43.815468 51.182045
v 94.988014 -48.546936 51.182045
v 89.733192 -43.815468 46.182045
v 94.726334 -43.553787 46.182045
v 89.733192 -43.815468 51.182045
v 94.726334 -43.553787 46.182045
v 89.733192 -43.815468 46.182045
v 94.988014 -48.546936 46.182045
v 89.994873 -48.808617 46.182045
v 94.726334 -43.553787 1.000000
v 83.784470 69.692795 46.182056
v 84.046150 64.699646 51.182056
v 83.784462 69.692795 51.182056
v 84.046143 64.699646 46.182060
v 88.777611 69.954475 46.182056
v 89.039299 64.961327 51.182060
v 88.777611 69.954475 51.182056
v 89.039291 64.961327 46.182056
v 83.784470 69.692795 46.182056
v 89.039299 64.961327 46.182056
v 84.046150 64.699646 46.182060
v 88.777611 69.954475 46.182056
v 84.046150 64.699646 51.182056
v 89.039291 64.961327 51.182056
v 84.046143 64.699646 46.182056
v 89.039299 64.961327 51.182056
v 84.046143 64.699646 51.182060
v 88.777611 69.954475 51.182056
v 83.784462 69.692795 51.182056
v 89.039291 64.961327 51.182056
v 83.784462 69.692795 46.182060
v 88.777611 69.954475 46.182056
v 83.784470 69.692795 51.182060
v 88.777611 69.954475 1.000000
v 72.651245 10.304314 -109.997803
v 63.587349 183.245010 -109.997864
v 81.714233 -162.636383 0.370690
v 81.714096 -162.636444 110.739296
v 63.587143 183.244934 110.739243
v 81.714035 -162.636459 -109.997849
v 72.650803 10.304331 0.370748
v 63.587212 183.244995 110.739288
v 72.650597 10.304248 110.739273
v 70.837906 44.892380 110.739288
v 69.025223 79.480530 110.739288
v 67.212524 114.068665 110.739296
v 65.399834 148.656815 -109.997818
v 65.400040 148.656906 -109.997818
v 67.212723 114.068756 -109.997833
v 69.025414 79.480629 -109.997833
v 70.838104 44.892471 -109.997833
v 74.463486 -24.283808 -109.997864
v 76.276176 -58.871941 -109.997849
v 78.088860 -93.460083 -109.997849
v 79.901543 -128.048248 110.739243
v 79.901344 -128.048325 110.739258
v 78.088661 -93.460182 110.739273
v 76.275978 -58.872051 110.739273
v 74.463280 -24.283894 0.370743
v 65.399994 148.656860 0.370737
v 67.212784 114.068726 0.370731
v 69.025665 79.480591 0.370722
v 70.838455 44.892448 0.370709
v 74.463837 -24.283833 0.370705
v 76.276428 -58.871983 0.370699
v 78.088913 -93.460136 0.370696
v 79.901512 -128.048294 -73.208328
v 72.650864 10.304318 -36.418789
v 72.651077 10.304309 73.949768
v 72.650887 10.304280 37.160236
v 72.651077 10.304307 -36.418774
v 63.587212 183.244965 -73.208290
v 63.587196 183.244995 -73.208344
v 81.714081 -162.636398 -36.418819
v 81.714104 -162.636429 73.949791
v 63.587200 183.244965 37.160263
v 63.587208 183.244995 37.160206
v 81.714088 -162.636429 73.949738
v 81.714096 -162.636459 -73.208313
v 70.838120 44.892456 -36.418785
v 70.838303 44.892445 -73.208313
v 69.025391 79.480614 -36.418777
v 69.025528 79.480598 -36.418777
v 65.399986 148.656876 -73.208305
v 65.399933 148.656876 -36.418781
v 67.212746 114.068726 -73.208298
v 67.212662 114.068741 -36.418804
v 74.463676 -24.283838 -73.208328
v 74.463493 -24.283829 -36.418816
v 76.276291 -58.871979 -73.208344
v 76.276146 -58.871975 -73.208344
v 79.901436 -128.048248 -36.418812
v 79.901489 -128.048279 -73.208336
v 78.088799 -93.460114 -36.418808
v 78.088882 -93.460129 73.949791
v 65.399933 148.656830 37.160259
v 65.399971 148.656876 73.949783
v 67.212669 114.068695 37.160252
v 67.212753 114.068726 37.160236
v 70.838303 44.892441 73.949768
v 70.838142 44.892410 37.160248
v 69.025528 79.480591 73.949783
v 69.025414 79.480568 37.160210
v 79.901497 -128.048294 73.949738
v 79.901459 -128.048325 37.160217
v 78.088882 -93.460129 73.949745
v 78.088814 -93.460159 73.949760
v 74.463516 -24.283871 37.160229
v 74.463676 -24.283836 73.949753
v 76.276169 -58.872021 37.160225
v 76.276291 -58.871994 -73.208328
v 72.650864 10.304318 -36.418789
v 72.651077 10.304309 37.160236
v 72.651077 10.304307 73.949768
v 72.650887 10.304280 0.370737
v 67.212784 114.068726 0.370731
v 69.025665 79.480591 0.370705
v 76.276428 -58.871983 0.370699
v 78.088913 -93.460136 -109.997849
v 72.650803 10.304331 0.370716
v 72.651245 10.304314 0.370748
v 63.587212 183.244995 0.370743
v 65.399994 148.656860 0.370722
v 70.838455 44.892448 0.370716
v 72.651245 10.304314 0.370696
v 79.901512 -128.048294 0.370690
v 81.714096 -162.636444 0.370716
v 72.651245 10.304314 0.370709
v 74.463837 -24.283833 110.739288
v 72.650597 10.304248 0.008562

vt 0.000000 1.000000
vt 0.000000 0.000000
vt 1.000000 1.000000
vt 1.000000 1.000000
vt 0.000000 0.000000
vt 0.000000 1.000000
vt 1.000000 0.000000
vt 1.000000 1.000000
vt 0.000000 0.000000
vt 1.000000 0.000000
vt 0.000000 1.000000
vt 1.000000 1.000000
vt 0.000000 0.000000
vt 1.000000 0.000000
vt 0.000000 1.000000
vt 1.000000 1.000000
vt 0.000000 0.000000
vt 1.000000 0.000000
vt 0.000000 1.000000
vt 1.000000 1.000000
vt 0.000000 0.000000
vt 1.000000 0.000000
vt 0.000000 1.000000
vt 1.000000 1.000000
vt 0.000000 1.000000
vt 0.000000 0.000000
vt 1.000000 1.000000
vt 1.000000 1.000000
vt 0.000000 0.000000
vt 0.000000 1.000000
vt 1.000000 0.000000
vt 1.000000 1.000000
vt 0.000000 0.000000
vt 1.000000 0.000000
vt 0.000000 1.000000
vt 1.000000 1.000000
vt 0.000000 0.000000
vt 1.000000 0.000000
vt 0.000000 1.000000
vt 1.000000 1.000000
vt 0.000000 0.000000
vt 1.000000 0.000000
vt 0.000000 1.000000
vt 1.000000 1.000000
vt 0.000000 0.000000
vt 1.000000 0.000000
vt 0.000000 1.000000
vt 1.000000 1.000000
vt 0.000000 1.000000
vt 0.000000 0.000000
vt 1.000000 1.000000
vt 1.000000 1.000000
vt 0.000000 0.000000
vt 0.000000 1.000000
vt 1.000000 0.000000
vt 1.000000 1.000000
vt 0.000000 0.000000
vt 1.000000 0.000000
vt 0.000000 1.000000
vt 1.000000 1.000000
vt 0.000000 0.000000
vt 1.000000 0.000000
vt 0.000000 1.000000
vt 1.000000 1.000000
vt 0.000000 0.000000
vt 1.000000 0.000000
vt 0.000000 1.000000
vt 1.000000 1.000000
vt 0.000000 0.000000
vt 1.000000 0.000000
vt 0.000000 1.000000
vt 1.000000 1.000000
vt 0.000000 1.000000
vt 0.000000 0.000000
vt 1.000000 1.000000
vt 1.000000 1.000000
vt 0.000000 0.000000
vt 0.000000 1.000000
vt 1.000000 0.000000
vt 1.000000 1.000000
vt 0.000000 0.000000
vt 1.000000 0.000000
vt 0.000000 1.000000
vt 1.000000 1.000000
vt 0.000000 0.000000
vt 1.000000 0.000000
vt 0.000000 1.000000
vt 1.000000 1.000000
vt 0.000000 0.000000
vt 1.000000 0.000000
vt 0.000000 1.000000
vt 1.000000 1.000000
vt 0.000000 0.000000
vt 1.000000 0.000000
vt 0.000000 1.000000
vt 1.000000 1.000000
vt 0.013055 0.001934
vt 0.700536 0.001934
vt 0.700536 0.001934
vt 0.013055 0.001934
vt 0.700536 0.001934
vt 0.700536 0.991438
vt 0.700536 0.001934
vt 0.013055 0.991438
vt 0.700536 0.793537
vt 0.700536 0.595637
vt 0.700536 0.397736
vt 0.700536 0.199835
vt 0.700536 0.199835
vt 0.700536 0.397736
vt 0.700536 0.595637
vt 0.700536 0.793537
vt 0.700536 0.793537
vt 0.700536 0.595637
vt 0.700536 0.397736
vt 0.700536 0.199835
vt 0.700536 0.199835
vt 0.700536 0.397736
vt 0.700536 0.595637
vt 0.700536 0.793537
vt 0.700536 0.199835
vt 0.013055 0.397736
vt 0.013055 0.595637
vt 0.013055 0.793537
vt 0.013055 0.793537
vt 0.013055 0.595637
vt 0.013055 0.397736
vt 0.013055 0.199835
vt 0.013055 0.991438
vt 0.471376 0.991438
vt 0.242216 0.991438
vt 0.471376 0.991438
vt 0.242216 0.001934
vt 0.242216 0.001934
vt 0.471376 0.001934
vt 0.471376 0.001934
vt 0.242216 0.001934
vt 0.471376 0.001934
vt 0.242216 0.001934
vt 0.242216 0.001934
vt 0.471376 0.793538
vt 0.471376 0.793537
vt 0.242216 0.595637
vt 0.471376 0.595637
vt 0.242216 0.199835
vt 0.242216 0.199835
vt 0.471376 0.397736
vt 0.242216 0.397736
vt 0.471376 0.793538
vt 0.242216 0.793537
vt 0.471376 0.595637
vt 0.242216 0.595637
vt 0.471376 0.199835
vt 0.471376 0.199835
vt 0.242216 0.397736
vt 0.471376 0.397736
vt 0.242216 0.199835
vt 0.471376 0.199835
vt 0.242216 0.397736
vt 0.471376 0.397736
vt 0.242216 0.793538
vt 0.242216 0.793537
vt 0.471376 0.595637
vt 0.242216 0.595637
vt 0.471376 0.199835
vt 0.242216 0.199835
vt 0.471376 0.397736
vt 0.242216 0.397736
vt 0.471376 0.793538
vt 0.471376 0.793537
vt 0.242216 0.595637
vt 0.471376 0.595637
vt 0.242216 0.991438
vt 0.471376 0.991438
vt 0.242216 0.991438
vt 0.242216 0.991438
vt 0.471376 0.397736
vt 0.013055 0.595637
vt 0.013055 0.595637
vt 0.013055 0.397736
vt 0.013055 0.991438
vt 0.700536 0.991438
vt 0.013055 0.001934
vt 0.013055 0.199835
vt 0.013055 0.793537
vt 0.013055 0.991438
vt 0.013055 0.199835
vt 0.013055 0.001934
vt 0.013055 0.991438
vt 0.013055 0.793537
vt 0.013055 0.991438
vt 0.700536 1.000000

f 17/17 18/18 19/19
f 18/18 17/17 20/20
f 1/1 13/13 14/14
f 15/15 14/14 13/13
f 41/41 42/42 43/43
f 42/42 41/41 44/44
f 25/25 37/37 38/38
f 39/39 38/38 37/37
f 65/65 66/66 67/67
f 66/66 65/65 68/68
f 49/49 61/61 62/62
f 63/63 62/62 61/61
f 89/89 90/90 91/91
f 90/90 89/89 92/92
f 73/73 85/85 86/86
f 87/87 86/86 85/85
f 145/145 149/149 148/148
f 149/149 145/145 144/144
f 153/153 157/157 156/156
f 157/157 153/153 152/152
f 161/161 165/165 164/164
f 165/165 161/161 160/160
f 169/169 173/173 172/172
f 173/173 169/169 168/168
f 131/131 142/142 143/143
f 142/142 131/131 130/130
f 143/143 144/144 145/145
f 144/144 143/143 142/142
f 135/135 146/146 147/147
f 146/146 135/135 134/134
f 147/147 148/148 149/149
f 148/148 147/147 146/146
f 174/174 150/150 151/151
f 150/150 174/174 175/175
f 151/151 152/152 153/153
f 152/152 151/151 150/150
f 137/137 154/154 155/155
f 154/154 137/137 136/136
f 155/155 156/156 157/157
f 156/156 155/155 154/154
f 139/139 158/158 159/159
f 158/158 139/139 138/138
f 159/159 160/160 161/161
f 160/160 159/159 158/158
f 132/132 162/162 163/163
f 162/162 132/132 133/133
f 163/163 164/164 165/165
f 164/164 163/163 162/162
f 141/141 166/166 167/167
f 166/166 141/141 140/140
f 167/167 168/168 169/169
f 168/168 167/167 166/166
f 176/176 170/170 171/171
f 170/170 176/176 177/177
f 171/171 172/172 173/173
f 172/172 171/171 170/170
f 124/124 148/148 123/123
f 148/148 124/124 145/145
f 111/111 144/144 112/112
f 144/144 111/111 149/149
f 115/115 156/156 116/116
f 156/156 115/115 153/153
f 128/128 152/152 127/127
f 152/152 128/128 157/157
f 178/178 164/164 179/179
f 164/164 178/178 161/161
f 107/107 160/160 108/108
f 160/160 107/107 165/165
f 119/119 172/172 120/120
f 172/172 119/119 169/169
f 180/180 168/168 181/181
f 168/168 180/180 173/173
f 97/97 143/143 125/125
f 143/143 97/97 131/131
f 113/113 130/130 103/103
f 130/130 113/113 142/142
f 125/125 145/145 124/124
f 145/145 125/125 143/143
f 112/112 142/142 113/113
f 142/142 112/112 144/144
f 98/98 147/147 110/110
f 147/147 98/98 135/135
f 122/122 134/134 104/104
f 134/134 122/122 146/146
f 110/110 149/149 111/111
f 149/149 110/110 147/147
f 123/123 146/146 122/122
f 146/146 123/123 148/148
f 182/182 151/151 114/114
f 151/151 182/182 174/174
f 126/126 175/175 183/183
f 175/175 126/126 150/150
f 114/114 153/153 115/115
f 153/153 114/114 151/151
f 127/127 150/150 126/126
f 150/150 127/127 152/152
f 100/100 155/155 129/129
f 155/155 100/100 137/137
f 117/117 136/136 99/99
f 136/136 117/117 154/154
f 129/129 157/157 128/128
f 157/157 129/129 155/155
f 116/116 154/154 117/117
f 154/154 116/116 156/156
f 184/184 159/159 185/185
f 159/159 184/184 139/139
f 109/109 138/138 101/101
f 138/138 109/109 158/158
f 185/185 161/161 178/178
f 161/161 185/185 159/159
f 108/108 158/158 109/109
f 158/158 108/108 160/160
f 105/105 163/163 106/106
f 163/163 105/105 132/132
f 186/186 133/133 187/187
f 133/133 186/186 162/162
f 106/106 165/165 107/107
f 165/165 106/106 163/163
f 179/179 162/162 186/186
f 162/162 179/179 164/164
f 102/102 167/167 118/118
f 167/167 102/102 141/141
f 188/188 140/140 189/189
f 140/140 188/188 166/166
f 118/118 169/169 119/119
f 169/169 118/118 167/167
f 181/181 166/166 188/188
f 166/166 181/181 168/168
f 190/190 171/171 191/191
f 171/171 190/190 176/176
f 121/121 177/177 192/192
f 177/177 121/121 170/170
f 191/191 173/173 180/180
f 173/173 191/191 171/171
f 120/120 170/170 121/121
f 170/170 120/120 172/172
