# MOD converted: v_move_magicwand_b.mod
# 239 verts, 170 faces

v 102.578270 -10.902960 -2.500004
v 102.578270 -10.902960 2.499996
v 102.578270 -15.902960 -2.500004
v 102.578270 -15.902959 2.499995
v 107.578270 -10.902961 -2.500005
v 107.578270 -10.902960 2.499995
v 107.578270 -15.902960 -2.500005
v 107.578270 -15.902960 2.499996
v 102.578270 -10.902960 -2.500005
v 107.578270 -10.902960 -2.500004
v 102.578270 -10.902960 2.499995
v 107.578270 -10.902961 -2.500004
v 102.578270 -10.902960 -2.500005
v 107.578270 -15.902960 -2.500004
v 102.578270 -15.902959 -2.500005
v 107.578270 -10.902960 -2.500004
v 102.578270 -15.902959 2.499995
v 107.578270 -15.902960 2.499996
v 102.578270 -15.902960 -2.500005
v 107.578270 -15.902960 2.499996
v 102.578270 -15.902960 2.499995
v 107.578270 -10.902961 2.499996
v 102.578270 -10.902960 2.499995
v 107.578270 -15.902960 1.000000
v 96.200378 37.440002 -5.644400
v 94.069633 37.440002 -5.644402
v 89.808121 37.440006 -1.953826
v 87.677368 37.440002 1.736746
v 89.808128 37.440002 1.736745
v 94.069626 37.440002 -1.485721
v 95.530441 -27.079037 -5.579794
v 94.137421 -26.890894 -5.932743
v 91.329681 -27.751907 -2.701377
v 88.951141 -29.307375 1.624302
v 90.681442 -29.079281 2.387898
v 93.425545 -27.983013 1.619953
v 113.331619 -42.375298 -1.902647
v 111.656830 -43.024544 -1.529041
v 108.697815 -45.166855 2.389045
v 107.412216 -46.956928 5.079101
v 108.865570 -46.449013 5.090111
v 111.441360 -44.707314 -8.490091
v 118.976257 -65.615677 -11.644434
v 117.886688 -64.823547 -11.649050
v 113.893524 -63.943695 -8.265388
v 113.051407 -64.588364 -5.153788
v 113.907684 -65.611610 -5.129045
v 116.298737 -66.562195 -1.125829
v 112.468292 -85.571442 -4.303145
v 110.902328 -87.121246 -4.065159
v 107.174469 -87.920525 -0.307634
v 105.549042 -86.342804 1.908781
v 107.217636 -85.070908 1.588199
v 110.392807 -84.937408 -3.310036
v 119.181213 -106.298157 -8.949635
v 114.717407 -104.206291 -9.863431
v 108.362839 -106.501282 -5.584588
v 106.155701 -112.907913 0.287296
v 110.749207 -113.687546 1.653344
v 117.086823 -108.011902 -2.069135
v 101.263794 44.635235 -9.907724
v 98.299232 44.422771 -8.624895
v 88.708031 42.539200 -2.069135
v 83.111992 41.539623 4.592842
v 88.766342 42.539196 5.517833
v 96.574104 44.422771 -2.057863
v 103.938141 69.450012 -16.039539
v 99.323318 67.320053 -15.338056
v 84.068192 61.637211 -2.057852
v 76.159142 58.560226 10.437447
v 84.068192 61.637207 12.320284
v 97.759102 67.320053 -2.057859
v 92.614105 95.170143 -8.501619
v 88.586739 94.475571 -11.627688
v 81.101471 89.265182 -2.057858
v 77.651505 86.660004 7.510779
v 81.721207 89.265182 6.379169
v 88.700874 94.756294 -2.057857
v 82.334831 101.791702 -2.056342
v 99.614517 83.265373 -13.985606
v 95.383736 80.897812 -14.693215
v 82.539787 75.100555 -2.056341
v 77.457718 72.610115 12.687590
v 82.851868 75.451195 12.045436
v 94.432076 81.038177 -4.738154
v 93.150703 -31.304911 -1.730914
v 91.580933 -33.198811 1.614840
v 93.229469 -32.341801 1.150679
v 89.924133 -23.890066 -2.715795
v 88.485481 -22.206087 -5.849151
v 90.979698 -22.340031 -2.053136
v 102.616455 54.976707 -11.654428
v 97.724655 53.440834 -12.535687
v 86.536461 49.657627 -2.053135
v 81.907143 47.590458 8.893447
v 86.536461 49.657623 7.526344
v 97.724655 53.440834 -1.633390
v 99.146271 -15.652708 -4.519736
v 97.422081 -12.479656 -5.403824
v 94.726807 -9.269850 -2.491069
v 93.037781 -7.928351 0.932858
v 94.583893 -10.705410 1.102359
v 97.067764 -14.050909 -14.119261
v 101.234512 68.169693 -3.028581
v 108.299179 68.611153 -4.294839
v 103.988068 83.159073 -13.033207
v 99.642136 82.378754 -8.183665
v 91.167183 99.308762 -2.871580
v 93.364632 99.851135 -2.250220
v 84.247154 113.687546 -1.143144
v 107.567581 68.581497 10.845587
v 100.019684 68.325539 10.542529
v 97.740631 83.171013 -0.285952
v 103.432419 83.142181 0.257894
v 97.211563 95.639175 7.052488
v 93.740387 95.114288 1.130353
v 88.119118 104.258606 14.716259
v 95.254288 67.543106 12.356668
v 83.715172 63.171249 13.355325
v 81.342133 77.348701 14.836129
v 91.081856 82.222496 11.880830
v 87.488510 93.605095 10.735595
v 80.207458 91.426514 5.393279
v 82.271683 104.376648 0.516825
v 74.969536 59.909924 1.395697
v 71.247589 73.878517 10.560472
v 81.327728 62.254898 10.806771
v 77.112213 75.974304 1.450243
v 70.250710 89.841614 1.518088
v 71.791367 110.845200 8.667733
v 73.453369 92.740021 -4.352931
v 74.721542 59.463566 -14.880398
v 81.529465 63.961819 -14.295444
v 78.113121 76.521698 -4.330384
v 72.366623 73.375999 -4.302148
v 72.002274 89.297867 -11.115557
v 75.361618 92.357300 -6.787849
v 72.311302 99.508102 -17.773420
v 83.991829 63.772591 -17.799421
v 96.604645 66.979523 -16.082506
v 93.530586 79.649925 -16.271900
v 82.217255 76.697060 -12.409000
v 80.902725 92.667099 -12.522138
v 87.902084 94.005630 -7.521289
v 81.997475 101.953934 -2.063489
v 105.990051 54.976700 9.535664
v 98.144394 53.421291 9.598557
v 86.107849 49.657631 -13.197697
v 86.107841 49.657635 -2.063489
v 79.516136 47.650356 -2.069138
v 101.263779 44.635231 -14.165737
v 98.146591 53.440823 -8.624895
v 88.708031 42.539200 4.592843
v 88.766342 42.539196 -2.062558
v 105.967987 53.016560 -12.437812
v 98.699287 47.392590 -2.069132
v 83.111984 41.597408 3.527479
v 89.305611 40.662155 -2.064575
v 104.354401 49.800743 -9.907725
v 98.299225 44.422771 -7.776199
v 89.124901 40.166378 -2.050272
v 84.803871 39.676746 4.791842
v 88.344536 42.539192 7.715733
v 97.064018 47.230743 5.517834
v 96.574097 44.422768 -7.650360
v 103.542465 51.238014 -6.683641
v 103.033142 48.029518 1.952660
v 103.208023 48.665165 3.235852
v 103.947342 51.816971 9.976376
v 70.189301 58.634068 8.064960
v 67.675873 59.525375 9.765368
v 66.622765 70.824120 7.988111
v 64.302711 72.315414 16.511442
v 67.013336 82.204002 14.452565
v 65.131401 83.931610 17.799421
v 59.774803 95.230003 15.972962
v 58.134277 97.406693 1.440398
v 77.570465 43.454887 -0.471007
v 77.204720 44.988670 -2.050276
v 84.803871 39.618958 -9.726626
v 97.041710 42.539177 -11.866433
v 85.876724 47.230740 -9.668533
v 86.366638 44.422760 -8.772592
v 96.080627 40.662140 -2.086118
v 78.073502 49.800743 -2.088135
v 76.459923 53.016560 3.499659
v 78.743027 51.238014 2.532941
v 79.252350 48.029518 5.757026
v 84.641525 44.422768 8.287114
v 84.241455 47.392586 4.474192
v 96.408234 42.539181 3.625498
v 95.991348 40.166367 -2.100424
v 100.562790 38.711445 -2.081566
v 102.254669 40.689892 -7.386555
v 78.338150 51.816978 -6.103358
v 79.077469 48.665161 -2.491069
v 93.037781 -7.928351 -1.953826
v 87.677368 37.440002 -1.730914
v 91.580933 -33.198811 -2.701377
v 88.951141 -29.307375 2.389045
v 107.412216 -46.956928 -8.265388
v 113.051407 -64.588364 -0.307634
v 105.549042 -86.342804 -5.584588
v 106.155701 -112.907913 -3.310036
v 119.181213 -106.298157 1.653344
v 117.086823 -108.011902 0.287296
v 110.749207 -113.687546 -5.644400
v 94.069633 37.440002 -1.953828
v 96.200378 37.440002 -5.644402
v 89.808121 37.440006 -1.953826
v 87.677368 37.440002 -2.069135
v 83.111992 41.539623 1.736746
v 89.808128 37.440002 -1.953826
v 87.677368 37.440002 1.736745
v 94.069626 37.440002 -2.053135
v 81.907143 47.590458 -2.057852
v 76.159142 58.560226 -2.056341
v 77.457718 72.610115 -2.057857
v 82.334831 101.791702 -2.057858
v 77.651505 86.660004 -8.949635
v 114.717407 -104.206291 -5.584588
v 106.155701 -112.907913 -9.863431
v 108.362839 -106.501282 -2.715795
v 88.485481 -22.206087 -2.063489
v 79.516136 47.650356 -2.069132
v 83.111984 41.597408 5.517834
v 96.574097 44.422768 -8.624895
v 88.708031 42.539200 -9.907725
v 98.299225 44.422771 -2.069132
v 83.111984 41.597408 -8.624895
v 88.708031 42.539200 -7.776199
v 89.124901 40.166378 -2.069132
v 83.111984 41.597408 -2.050276
v 84.803871 39.618958 -2.069132
v 83.111984 41.597408 -2.086118
v 78.073502 49.800743 -2.088135
v 76.459923 53.016560 4.474192
v 96.408234 42.539181 3.625498
v 95.991348 40.166367 0.997345

vt 0.000000 1.000000
vt 0.000000 0.000000
vt 1.000000 1.000000
vt 1.000000 1.000000
vt 0.000000 0.000000
vt 0.000000 1.000000
vt 1.000000 0.000000
vt 1.000000 1.000000
vt 0.000000 0.000000
vt 1.000000 0.000000
vt 0.000000 1.000000
vt 1.000000 1.000000
vt 0.000000 0.000000
vt 1.000000 0.000000
vt 0.000000 1.000000
vt 1.000000 1.000000
vt 0.000000 0.000000
vt 1.000000 0.000000
vt 0.000000 1.000000
vt 1.000000 1.000000
vt 0.000000 0.000000
vt 1.000000 0.000000
vt 0.000000 1.000000
vt 1.000000 1.000000
vt 0.763680 0.002655
vt 0.841888 0.002655
vt 0.920096 0.002655
vt 0.998304 0.002655
vt 0.607265 0.002655
vt 0.685472 0.456357
vt 0.763680 0.456357
vt 0.841888 0.417142
vt 0.920096 0.411539
vt 0.998304 0.417142
vt 0.607265 0.456357
vt 0.685472 0.614635
vt 0.763680 0.614635
vt 0.841888 0.614635
vt 0.920096 0.614635
vt 0.998304 0.614635
vt 0.607265 0.614635
vt 0.685472 0.726462
vt 0.763680 0.726462
vt 0.841888 0.726462
vt 0.920096 0.726462
vt 0.998304 0.726462
vt 0.607265 0.726462
vt 0.685472 0.853083
vt 0.763680 0.853083
vt 0.841888 0.853083
vt 0.920096 0.853083
vt 0.998304 0.853083
vt 0.607265 0.853083
vt 0.685472 0.995909
vt 0.763680 0.995909
vt 0.841888 0.995909
vt 0.920096 0.995909
vt 0.998304 0.995909
vt 0.607171 0.995909
vt 0.685567 0.361149
vt 0.462520 0.239692
vt 0.462520 0.120103
vt 0.462520 0.002784
vt 0.462520 0.599555
vt 0.462520 0.480068
vt 0.462520 0.361149
vt 0.330489 0.239692
vt 0.330489 0.120103
vt 0.330489 0.002784
vt 0.330489 0.599555
vt 0.330489 0.480068
vt 0.330489 0.361149
vt 0.107121 0.239692
vt 0.107121 0.120103
vt 0.107121 0.002784
vt 0.107121 0.599555
vt 0.107121 0.480068
vt 0.107121 0.176797
vt 0.005149 0.361149
vt 0.218805 0.239692
vt 0.218805 0.120103
vt 0.218805 0.002784
vt 0.218805 0.599555
vt 0.218805 0.480068
vt 0.218805 0.455487
vt 0.920096 0.456471
vt 0.998304 0.449189
vt 0.607265 0.379914
vt 0.607265 0.373158
vt 0.998304 0.374167
vt 0.920096 0.361149
vt 0.396802 0.239692
vt 0.396802 0.120103
vt 0.396802 0.002784
vt 0.396802 0.599555
vt 0.396802 0.480068
vt 0.396802 0.363242
vt 0.763680 0.363242
vt 0.841888 0.322096
vt 0.920096 0.321714
vt 0.998304 0.325122
vt 0.607265 0.363242
vt 0.685472 0.240836
vt 0.319045 0.360006
vt 0.319045 0.360006
vt 0.211290 0.240836
vt 0.211290 0.240836
vt 0.103534 0.360006
vt 0.103534 0.297603
vt 0.005149 0.360665
vt 0.319045 0.479981
vt 0.319045 0.479981
vt 0.211290 0.360665
vt 0.211290 0.360665
vt 0.103534 0.479981
vt 0.103534 0.413720
vt 0.005149 0.480068
vt 0.319045 0.599555
vt 0.319045 0.599555
vt 0.211290 0.480068
vt 0.211290 0.480068
vt 0.103534 0.599555
vt 0.103534 0.533110
vt 0.005149 0.719712
vt 0.319045 0.719712
vt 0.211290 0.600197
vt 0.319045 0.600197
vt 0.211290 0.719712
vt 0.103534 0.653236
vt 0.005149 0.600197
vt 0.103534 0.003108
vt 0.319045 0.119965
vt 0.319045 0.119965
vt 0.211290 0.003108
vt 0.211290 0.003108
vt 0.103534 0.119965
vt 0.103534 0.058622
vt 0.005149 0.120103
vt 0.319045 0.239692
vt 0.319045 0.239692
vt 0.211290 0.120103
vt 0.211290 0.120103
vt 0.103534 0.239692
vt 0.103534 0.176798
vt 0.005149 0.360621
vt 0.395637 0.480025
vt 0.395637 0.599555
vt 0.395637 0.120103
vt 0.395637 0.719514
vt 0.395637 0.361149
vt 0.459779 0.240264
vt 0.395637 0.120103
vt 0.459779 0.599555
vt 0.459779 0.360621
vt 0.500478 0.240264
vt 0.500478 0.002785
vt 0.459779 0.599555
vt 0.522121 0.360797
vt 0.521859 0.239692
vt 0.459779 0.120103
vt 0.521859 0.719514
vt 0.522121 0.599555
vt 0.500741 0.480039
vt 0.500609 0.480068
vt 0.459779 0.300442
vt 0.500478 0.300435
vt 0.521859 0.420425
vt 0.521924 0.420330
vt 0.500544 0.433277
vt 0.519532 0.433277
vt 0.499263 0.289373
vt 0.519532 0.289373
vt 0.499263 0.145469
vt 0.519532 0.145469
vt 0.499263 0.001565
vt 0.519532 0.001565
vt 0.499263 0.578624
vt 0.519532 0.578624
vt 0.499263 0.002785
vt 0.521859 0.241556
vt 0.500478 0.122040
vt 0.500347 0.122054
vt 0.521728 0.241556
vt 0.521859 0.719527
vt 0.521859 0.719351
vt 0.500478 0.659173
vt 0.500478 0.659165
vt 0.521859 0.598803
vt 0.521859 0.598994
vt 0.500478 0.478834
vt 0.500478 0.478834
vt 0.521859 0.361515
vt 0.521859 0.361515
vt 0.500478 0.062331
vt 0.500281 0.062426
vt 0.521662 0.318913
vt 0.529057 0.002655
vt 0.529057 0.450869
vt 0.529057 0.405937
vt 0.529057 0.614635
vt 0.529057 0.726462
vt 0.529057 0.853083
vt 0.529057 0.995909
vt 0.529057 0.888753
vt 0.510469 0.790531
vt 0.452403 0.790531
vt 0.336826 0.239692
vt 0.518701 0.361149
vt 0.518701 0.120103
vt 0.518701 0.002768
vt 0.518701 0.719514
vt 0.462520 0.599555
vt 0.518701 0.719530
vt 0.518701 0.480068
vt 0.518701 0.719514
vt 0.396802 0.719514
vt 0.330489 0.719514
vt 0.218805 0.533110
vt 0.005149 0.719514
vt 0.107121 0.986975
vt 0.452542 0.888753
vt 0.278760 0.986975
vt 0.336688 0.367556
vt 0.529057 0.002785
vt 0.395637 0.719514
vt 0.459779 0.480054
vt 0.521990 0.120103
vt 0.500478 0.240073
vt 0.521859 0.719514
vt 0.500741 0.120103
vt 0.500478 0.120103
vt 0.521859 0.002785
vt 0.500478 0.719722
vt 0.519532 0.719722
vt 0.499263 0.002798
vt 0.521597 0.002622
vt 0.500216 0.478834
vt 0.500478 0.478834
vt 0.521859 1.000000

f 17/17 18/18 19/19
f 18/18 17/17 20/20
f 1/1 13/13 14/14
f 15/15 14/14 13/13
f 25/25 99/99 26/26
f 99/99 25/25 98/98
f 26/26 100/100 27/27
f 100/100 26/26 99/99
f 27/27 101/101 28/28
f 101/101 27/27 100/100
f 29/29 197/197 102/102
f 197/197 29/29 198/198
f 30/30 102/102 103/103
f 102/102 30/30 29/29
f 25/25 103/103 98/98
f 103/103 25/25 30/30
f 38/38 31/31 37/37
f 31/31 38/38 32/32
f 39/39 32/32 38/38
f 32/32 39/39 86/86
f 87/87 33/33 86/86
f 33/33 87/87 34/34
f 199/199 35/35 200/200
f 35/35 199/199 88/88
f 35/35 88/88 36/36
f 37/37 36/36 42/42
f 36/36 37/37 31/31
f 44/44 37/37 43/43
f 37/37 44/44 38/38
f 45/45 38/38 44/44
f 38/38 45/45 39/39
f 46/46 39/39 45/45
f 39/39 46/46 40/40
f 47/47 201/201 202/202
f 201/201 47/47 41/41
f 48/48 41/41 47/47
f 41/41 48/48 42/42
f 43/43 42/42 48/48
f 42/42 43/43 37/37
f 50/50 43/43 49/49
f 43/43 50/50 44/44
f 44/44 51/51 45/45
f 51/51 44/44 50/50
f 52/52 45/45 51/51
f 45/45 52/52 46/46
f 53/53 202/202 203/203
f 202/202 53/53 47/47
f 54/54 47/47 53/53
f 47/47 54/54 48/48
f 49/49 48/48 54/54
f 48/48 49/49 43/43
f 56/56 49/49 55/55
f 49/49 56/56 50/50
f 57/57 50/50 56/56
f 50/50 57/57 51/51
f 58/58 51/51 57/57
f 51/51 58/58 52/52
f 59/59 203/203 204/204
f 203/203 59/59 53/53
f 60/60 53/53 59/59
f 53/53 60/60 54/54
f 55/55 54/54 60/60
f 54/54 55/55 49/49
f 86/86 40/40 87/87
f 40/40 86/86 39/39
f 201/201 88/88 199/199
f 88/88 201/201 41/41
f 32/32 86/86 33/33
f 41/41 36/36 88/88
f 36/36 41/41 42/42
f 91/91 32/32 33/33
f 91/91 34/34 90/90
f 34/34 91/91 33/33
f 224/224 35/35 89/89
f 35/35 224/224 200/200
f 36/36 89/89 35/35
f 99/99 31/31 32/32
f 31/31 99/99 98/98
f 100/100 32/32 91/91
f 32/32 100/100 99/99
f 101/101 91/91 90/90
f 91/91 101/101 100/100
f 89/89 197/197 224/224
f 197/197 89/89 102/102
f 36/36 102/102 89/89
f 102/102 36/36 103/103
f 31/31 103/103 36/36
f 103/103 31/31 98/98
f 206/206 207/207 61/61
f 61/61 209/209 62/62
f 62/62 208/208 63/63
f 63/63 210/210 212/212
f 212/212 214/214 65/65
f 65/65 213/213 66/66
f 66/66 215/215 61/61
f 61/61 62/62 93/93
f 93/93 62/62 94/94
f 94/94 63/63 216/216
f 216/216 212/212 97/97
f 97/97 66/66 80/80
f 80/80 67/67 68/68
f 68/68 69/69 82/82
f 82/82 69/69 84/84
f 84/84 218/218 85/85
f 85/85 84/84 80/80
f 80/80 85/85 74/74
f 79/79 73/73 75/75
f 79/79 74/74 76/76
f 79/79 75/75 77/77
f 219/219 220/220 78/78
f 219/219 77/77 73/73
f 219/219 78/78 221/221
f 222/222 223/223 205/205
f 222/222 221/221 205/205
f 207/207 222/222 81/81
f 74/74 81/81 83/83
f 83/83 76/76 77/77
f 77/77 220/220 78/78
f 78/78 85/85 93/93
f 93/93 68/68 69/69
f 69/69 68/68 95/95
f 95/95 70/70 71/71
f 71/71 217/217 97/97
f 97/97 72/72 67/67
f 67/67 72/72 105/105
f 105/105 104/104 108/108
f 110/110 109/109 106/106
f 106/106 107/107 152/152
f 152/152 104/104 114/114
f 114/114 113/113 115/115
f 117/117 116/116 114/114
f 114/114 115/115 111/111
f 111/111 112/112 120/120
f 120/120 119/119 122/122
f 124/124 123/123 120/120
f 120/120 121/121 147/147
f 147/147 118/118 128/128
f 128/128 126/126 131/131
f 130/130 129/129 131/131
f 131/131 129/129 127/127
f 127/127 125/125 134/134
f 134/134 133/133 136/136
f 138/138 137/137 135/135
f 135/135 136/136 225/225
f 225/225 132/132 140/140
f 140/140 139/139 143/143
f 144/144 141/141 139/139
f 139/139 140/140 160/160
f 152/152 160/160 149/149
f 149/149 153/153 150/150
f 150/150 226/226 148/148
f 148/148 154/154 165/165
f 165/165 151/151 163/163
f 163/163 158/158 159/159
f 159/159 167/167 156/156
f 156/156 229/229 158/158
f 158/158 163/163 168/168
f 168/168 169/169 167/167
f 167/167 229/229 169/169
f 169/169 168/168 180/180
f 180/180 233/233 170/170
f 174/174 176/176 171/171
f 179/179 235/235 181/181
f 181/181 184/184 185/185
f 185/185 188/188 190/190
f 190/190 189/189 184/184
f 184/184 181/181 183/183
f 183/183 196/196 187/187
f 187/187 188/188 195/195
f 195/195 196/196 193/193
