# MOD converted: 01_farm_warehouse_lv4.mod
# 985 verts, 316 faces

v 53.490616 1175.753662 469.429626
v 53.490616 1212.066650 459.581299
v 53.490616 1201.067627 442.507874
v 53.490616 1161.438721 491.004028
v 53.490612 1206.489014 478.466553
v 66.079231 1193.035278 463.339233
v 66.079231 1164.587402 459.195068
v 53.490612 1146.670410 463.339233
v 40.901993 1164.587402 478.466553
v 40.901993 1193.035278 512.692078
v 53.490608 1194.956299 508.547943
v 66.079224 1177.039307 493.420593
v 66.079224 1148.591431 480.883118
v 53.490608 1135.137695 493.420593
v 40.901985 1148.591431 508.547943
v 40.901985 1177.039307 529.379272
v 53.490604 1180.187988 525.766724
v 53.490604 1165.873047 512.305847
v 53.490604 1140.559082 502.457520
v 53.490604 1129.560059 426.863403
v 30.806175 1171.985107 450.172638
v 30.806175 1208.298096 440.324310
v 30.806177 1197.299072 423.250854
v 30.806175 1157.670166 471.747009
v 30.806171 1202.720459 459.209534
v 43.394791 1189.266724 444.082214
v 43.394791 1160.818848 439.938049
v 30.806171 1142.901855 444.082214
v 18.217552 1160.818848 493.435059
v 30.806168 1191.187744 489.290924
v 43.394787 1173.270752 474.163574
v 43.394787 1144.822876 461.626099
v 30.806168 1131.369141 474.163574
v 18.217545 1144.822876 489.290924
v 18.217548 1173.270752 510.122253
v 30.806162 1176.419434 506.509735
v 30.806162 1162.104492 493.048828
v 30.806162 1136.790527 483.200500
v 30.806162 1125.791504 440.313171
v 10.009453 1164.833008 453.774078
v 10.009453 1190.146973 436.700623
v 10.009453 1150.518066 485.196777
v 10.009449 1195.568359 472.659302
v 22.598070 1182.114624 457.531982
v 22.598070 1153.666748 453.387817
v 10.009449 1135.749756 457.531982
v -2.579170 1153.666748 506.884827
v 10.009441 1184.035645 502.740692
v 22.598061 1166.118652 487.613342
v 22.598061 1137.670776 475.075867
v 10.009441 1124.217041 487.613342
v -2.579178 1137.670776 502.740692
v -2.579178 1166.118652 523.572021
v 10.009438 1169.267334 519.959473
v 10.009438 1154.952393 506.498596
v 10.009438 1129.638428 496.650269
v 10.009438 1118.639404 538.849548
v 58.439781 1122.579590 519.519836
v 64.588470 1160.665161 523.961243
v 62.123222 1146.802856 549.296387
v 57.221588 1112.218750 535.241150
v 69.082977 1175.804688 539.348633
v 78.246155 1155.909180 556.080078
v 74.106705 1128.687134 570.423096
v 60.378765 1118.563599 558.232422
v 49.537064 1133.746094 541.500977
v 53.676517 1160.968140 556.127930
v 73.420242 1187.982788 568.318665
v 84.261940 1172.800171 585.050110
v 80.122490 1145.578125 591.309937
v 64.716026 1130.741699 587.202454
v 55.552849 1150.637207 577.254700
v 76.577423 1194.327515 587.701538
v 75.359230 1183.966675 602.589783
v 71.675789 1159.743530 607.031250
v 69.210541 1145.881104 469.429626
v 53.490616 1212.066650 459.581299
v 53.490616 1201.067627 446.120422
v 53.490616 1175.753662 442.507874
v 53.490616 1161.438721 459.195068
v 53.490612 1146.670410 446.120422
v 53.490616 1175.753662 480.883118
v 53.490608 1135.137695 502.457520
v 53.490604 1129.560059 512.305847
v 53.490604 1140.559082 525.766724
v 53.490604 1165.873047 525.766724
v 53.490604 1165.873047 502.457520
v 53.490604 1129.560059 512.305847
v 53.490604 1140.559082 450.172638
v 30.806175 1208.298096 440.324310
v 30.806177 1197.299072 426.863403
v 30.806175 1171.985107 423.250854
v 30.806175 1157.670166 439.938049
v 30.806171 1142.901855 426.863403
v 30.806175 1171.985107 461.626099
v 30.806168 1131.369141 483.200500
v 30.806162 1125.791504 493.048828
v 30.806162 1136.790527 506.509735
v 30.806162 1162.104492 510.122253
v 30.806162 1176.419434 493.435059
v 30.806168 1191.187744 506.509735
v 30.806162 1162.104492 483.200500
v 30.806162 1125.791504 493.048828
v 30.806162 1136.790527 436.700623
v 10.009453 1150.518066 453.387817
v 10.009449 1135.749756 440.313171
v 10.009453 1164.833008 475.075867
v 10.009441 1124.217041 496.650269
v 10.009438 1118.639404 506.498596
v 10.009438 1129.638428 519.959473
v 10.009438 1154.952393 523.572021
v 10.009438 1169.267334 506.884827
v 10.009441 1184.035645 519.959473
v 10.009438 1154.952393 496.650269
v 10.009438 1118.639404 506.498596
v 10.009438 1129.638428 519.519836
v 64.588470 1160.665161 523.961243
v 62.123222 1146.802856 538.849548
v 58.439781 1122.579590 549.296387
v 57.221588 1112.218750 570.423096
v 60.378765 1118.563599 538.849548
v 58.439781 1122.579590 523.961243
v 62.123222 1146.802856 591.309937
v 64.716026 1130.741699 607.031250
v 69.210541 1145.881104 602.589783
v 71.675789 1159.743530 587.701538
v 75.359230 1183.966675 607.031250
v 69.210541 1145.881104 602.589783
v 71.675789 1159.743530 0.688465
v 53.884575 1067.280273 720.492310
v 56.865196 1028.267944 774.955444
v 56.861576 997.835144 727.287476
v 58.151100 1160.523560 778.920471
v 56.877674 1132.834839 833.385254
v 56.861576 1102.405029 686.072815
v 140.221375 1064.361206 722.873413
v 134.139984 1032.303101 773.097412
v 127.361473 1004.511047 730.271729
v 140.221375 1143.462524 771.967224
v 145.832947 1120.164673 826.855103
v 127.361473 1100.719360 680.510010
v 95.000175 1062.501099 725.652649
v 95.000175 1037.276978 770.795349
v 95.000175 1012.052917 728.940186
v 95.000175 1149.175049 672.880432
v 127.361473 1060.508545 727.768311
v 145.832947 1041.063354 769.463806
v 140.221375 1017.765381 727.469910
v 127.361473 1156.240356 813.662720
v 140.221375 1096.866699 691.490356
v 48.456997 1070.444092 725.591248
v 48.467571 1036.719849 768.421509
v 48.949150 1019.581238 731.617371
v 52.001560 1147.667969 778.288452
v 51.929489 1124.759521 829.536560
v 50.989655 1100.481567 751.263977
v -3.585281 995.510193 799.621765
v -3.585281 1044.616333 842.717041
v -3.585281 1088.512817 668.859924
v -3.585281 1089.330444 710.552368
v -3.585281 1131.668213 753.647644
v -3.585281 1175.564697 754.628967
v 48.907944 1015.655090 798.408936
v 45.177200 1045.810669 839.618469
v 41.138813 1088.129761 682.285400
v 48.907944 1086.235962 718.915283
v 52.730572 1123.432739 753.312195
v 41.138805 1172.460571 748.517883
v 15.796219 1003.267883 794.349243
v 15.796223 1049.808472 832.035950
v 15.796223 1088.212769 753.511658
v 15.796227 1164.880249 715.824890
v 15.796223 1126.475952 674.693787
v 15.796223 1084.708374 752.558838
v 38.235764 1013.431702 791.258850
v 52.730572 1052.851807 828.192627
v 51.139496 1090.491455 671.658630
v 40.557907 1089.409180 711.765198
v 45.177197 1130.473755 755.849060
v 51.139496 1161.072388 687.179565
v -3.585281 1200.921875 566.789551
v -3.585281 1251.115356 630.838684
v -3.585281 1089.484009 576.010925
v -3.585281 1112.389526 519.213867
v -3.585281 1136.015625 667.232300
v 48.907944 1196.535034 568.300049
v 41.138813 1248.382935 628.705627
v 48.907944 1103.095459 580.535461
v 52.730572 1123.219604 522.219238
v 41.138805 1136.861450 681.004639
v 15.796219 1195.481934 571.049500
v 15.796223 1241.316040 529.178894
v 15.796227 1139.872314 578.863525
v 15.796223 1119.217529 632.953003
v 15.796223 1096.620483 670.067078
v 38.235764 1195.442871 619.062134
v 52.730572 1216.659180 570.367737
v 51.139496 1236.900269 629.722473
v 40.557907 1092.051758 576.667114
v 45.177197 1113.960205 531.841064
v 51.139496 1143.460693 830.371887
v -3.230240 909.161072 789.356506
v -3.230240 919.243835 752.733887
v -3.230240 928.187317 806.778076
v -3.230240 836.363403 771.415955
v -3.230240 845.056458 734.793335
v -3.230240 853.999878 818.707581
v 43.784477 904.621399 789.107483
v 40.443096 918.230835 753.906494
v 36.826180 926.675354 804.201294
v 43.784477 844.404053 773.133057
v 47.208157 852.041504 736.533325
v 36.826172 854.795837 827.146423
v 14.128487 905.284058 788.273926
v 14.128490 914.840027 756.238586
v 14.128490 922.655762 740.463257
v 14.128494 857.276001 772.498535
v 14.128494 849.460327 807.384521
v 14.128490 840.884277 820.527222
v 34.226109 904.227722 787.639404
v 47.208157 912.258850 756.242737
v 45.783134 919.917603 805.859741
v 36.305901 837.812866 771.664978
v 40.443092 846.069458 741.736389
v 45.783134 859.700256 764.663391
v 69.342995 853.907410 736.862183
v 69.839195 893.431396 771.945435
v 81.267906 858.879883 744.144165
v 81.764107 898.403870 768.485535
v 65.869759 856.639526 740.684326
v 66.365959 896.163513 775.767517
v 77.794662 861.612000 747.966309
v 78.290863 901.135986 726.385986
v 49.838642 886.521851 751.656799
v 47.809647 845.380981 734.164795
v 61.750202 890.712524 759.435608
v 59.721207 849.571655 730.311646
v 46.366440 889.104431 755.582458
v 44.337444 847.963562 738.090454
v 58.278004 893.295044 763.361206
v 56.249008 852.154236 741.302429
v 30.806999 837.340759 713.442932
v 30.806999 876.826782 748.506592
v 42.732601 842.423706 720.647095
v 42.732601 881.909729 745.141174
v 27.333611 840.049194 717.281677
v 27.333611 879.535217 752.345398
v 39.259212 845.132141 724.485901
v 39.259216 884.618164 728.005310
v 9.677193 829.089905 702.312195
v 12.564278 869.207947 735.832275
v 21.569000 833.246765 710.139160
v 24.456085 873.364807 731.844055
v 6.203804 831.798340 706.150940
v 9.090893 871.916382 739.671082
v 18.095612 835.955261 713.977905
v 20.982697 876.073303 731.050659
v -4.861633 832.901001 727.298889
v -4.861633 838.218506 725.809082
v -0.876640 830.980408 722.443604
v -0.942490 835.904907 785.984314
v 86.073837 871.659546 782.232483
v 86.073837 876.977112 780.742676
v 90.058838 869.739014 777.377197
v 89.992996 874.663513 702.867004
v -1.256187 864.318054 706.416565
v -0.958763 858.669678 706.810486
v -5.143333 867.921143 710.279358
v -4.767868 862.202454 756.888062
v 89.441078 903.041443 760.437561
v 89.738510 897.393066 760.831482
v 85.553940 906.644531 764.300415
v 85.929405 900.925842 740.684326
v 66.365959 896.163513 768.485535
v 65.869759 856.639526 747.966309
v 78.290863 901.135986 740.684326
v 66.365959 896.163513 768.485535
v 65.869759 856.639526 775.767517
v 77.794662 861.612000 755.582458
v 44.337444 847.963562 730.311646
v 46.366440 889.104431 763.361206
v 56.249008 852.154236 755.582458
v 44.337444 847.963562 730.311646
v 46.366440 889.104431 738.090454
v 58.278004 893.295044 717.281677
v 27.333611 879.535217 745.141174
v 27.333611 840.049194 724.485901
v 39.259216 884.618164 717.281677
v 27.333611 879.535217 745.141174
v 27.333611 840.049194 752.345398
v 39.259212 845.132141 706.150940
v 9.090893 871.916382 731.844055
v 6.203804 831.798340 713.977905
v 20.982697 876.073303 706.150940
v 9.090893 871.916382 731.844055
v 6.203804 831.798340 739.671082
v 18.095612 835.955261 782.232483
v 86.073837 876.977112 785.984314
v 86.073837 871.659546 727.298889
v -4.861633 838.218506 782.232483
v 86.073837 876.977112 785.984314
v 86.073837 871.659546 731.050659
v -4.861633 832.901001 760.437561
v 89.738510 897.393066 756.888062
v 89.441078 903.041443 706.416565
v -0.958763 858.669678 760.437561
v 89.738510 897.393066 756.888062
v 89.441078 903.041443 702.867004
v -1.256187 864.318054 0.017489
v -1.701344 779.876953 428.101440
v 2.250187 784.905457 445.730896
v 7.729692 789.050720 435.996429
v 2.378718 793.490845 424.982147
v 6.354811 791.044861 446.176514
v 14.826804 798.580811 436.380920
v 8.502334 801.713684 425.427765
v 13.451921 800.574890 442.067902
v 3.175652 783.563171 435.597809
v 5.283797 791.346069 435.982300
v 11.407413 799.568848 435.506348
v 4.120040 790.032288 434.205414
v 11.768709 799.703552 437.605438
v 11.994007 799.376770 435.651733
v 14.064222 798.375549 433.947540
v 9.643944 801.390442 438.454254
v 9.942575 800.957336 436.036316
v 17.098936 804.491394 434.661591
v 14.615760 806.404907 438.061584
v 14.841056 806.078186 436.070618
v 16.444582 804.277283 434.881042
v 14.554801 805.740234 437.752716
v 14.745084 805.464294 437.507446
v 39.327831 835.005066 436.317871
v 37.438049 836.468018 439.189545
v 37.628334 836.192017 437.460571
v 39.587608 834.590271 436.005280
v 36.958908 836.615967 439.604553
v 37.197411 836.270020 437.768768
v 44.496044 841.181335 436.313477
v 41.867348 843.207031 439.912750
v 42.105846 842.861084 437.152313
v 41.661430 841.839905 437.686096
v 43.355526 840.553162 431.710449
v 46.375931 850.189148 431.012970
v 48.648022 848.917175 432.954773
v 50.976696 856.431152 432.662567
v 53.133083 854.877380 444.488708
v 51.748653 855.334656 444.196472
v 53.905033 853.780884 444.898956
v 47.311314 849.096497 444.939972
v 49.642166 847.746216 439.022736
v 41.806843 841.643982 437.914795
v 43.399796 840.509338 432.989349
v 54.120953 854.282043 433.527985
v 52.450348 858.734619 433.333710
v 49.356628 854.580322 443.639557
v 54.826672 853.258484 444.178192
v 53.156063 857.711060 443.983948
v 50.062340 853.556763 434.966888
v -1.701344 779.876953 442.067902
v 3.175652 783.563171 445.730896
v 7.729692 789.050720 428.101440
v 2.250187 784.905457 424.982147
v 6.354811 791.044861 446.176514
v 14.826804 798.580811 425.427765
v 13.451921 800.574890 435.982300
v 11.407413 799.568848 434.205414
v 11.768709 799.703552 433.947540
v 9.643944 801.390442 434.661591
v 14.615760 806.404907 436.036316
v 17.098936 804.491394 434.881042
v 14.554801 805.740234 436.317871
v 37.438049 836.468018 439.604553
v 37.197411 836.270020 439.912750
v 42.105846 842.861084 437.460571
v 39.587608 834.590271 437.768768
v 44.496044 841.181335 433.527985
v 52.450348 858.734619 444.178192
v 53.156063 857.711060 0.145382
v 321.413391 1286.196533 890.825806
v -14.199493 939.396057 890.825623
v -14.199524 1252.001099 944.791443
v 321.413452 916.448059 696.548157
v 305.105835 916.540894 716.508301
v -14.199402 939.312134 687.489868
v -14.199341 920.173584 674.476624
v 290.850952 899.993591 723.483459
v 290.990051 899.993652 746.952271
v -14.199371 920.173645 675.096313
v 290.835358 935.834717 687.489502
v -12.591400 956.956360 724.102661
v 290.974457 921.915283 746.950989
v -12.591431 943.036865 551.991028
v -14.199280 1252.000977 551.991028
v 321.413452 1286.196289 907.663513
v 290.850922 899.993591 949.056213
v 290.989990 899.993713 867.094482
v -14.199310 920.173584 918.020691
v -14.199310 920.173645 908.283203
v 290.835327 935.834717 867.094116
v -12.591339 956.956360 949.675415
v 290.974365 958.160583 917.883057
v -13.395325 980.880310 913.353760
v 290.311951 963.321167 885.026367
v -11.928986 982.477051 907.663513
v 290.850891 1290.299561 949.056152
v 290.989929 1290.299561 867.094482
v -14.199249 1270.119629 918.020691
v -14.199280 1270.119507 908.283203
v 290.835266 1254.458496 867.094177
v -12.591248 1233.336792 949.675415
v 290.974335 1232.132690 917.883179
v -13.395264 1209.412964 913.353821
v 290.311890 1226.972046 885.026428
v -11.928925 1207.816162 159.190994
v 321.413879 1286.195923 213.156525
v -14.199066 939.395630 213.156281
v -14.199097 1252.000610 159.191360
v 321.413940 916.447510 407.434570
v 305.105988 916.540649 387.473999
v -14.199188 939.311890 416.492462
v -14.199158 920.173401 429.506134
v 290.851105 899.993408 380.499298
v 290.990265 899.993469 357.030090
v -14.199097 920.173401 428.886383
v 290.835510 935.834534 416.492767
v -12.591217 956.956177 379.880035
v 290.974670 921.915039 357.031311
v -12.591156 943.036621 196.319260
v 290.851349 899.993103 154.926590
v 290.990479 899.993164 236.887894
v -14.198883 920.173157 185.961685
v -14.198853 920.173157 195.699493
v 290.835754 935.834229 236.888184
v -12.590912 956.955933 154.307281
v 290.974854 958.160095 186.099213
v -13.394836 980.879822 190.628906
v 290.312378 963.320679 218.955933
v -11.928558 982.476562 196.318741
v 290.851318 1290.299072 154.926102
v 290.990417 1290.299072 236.887421
v -14.198853 1270.119141 185.961212
v -14.198792 1270.119019 195.699066
v 290.835693 1254.458008 236.887756
v -12.590851 1233.336426 154.306885
v 290.974792 1232.132080 186.098816
v -13.394775 1209.412476 190.628510
v 290.312317 1226.971558 218.955536
v -11.928497 1207.815674 890.825806
v -14.199493 939.396057 944.791443
v 321.413452 916.448059 944.791260
v 321.413391 1286.196533 890.825623
v -14.199524 1252.001099 674.476624
v 290.850952 899.993591 687.489868
v -14.199341 920.173584 746.952271
v -14.199371 920.173645 723.483459
v 290.990051 899.993652 907.663513
v 290.850922 899.993591 867.094482
v -14.199310 920.173584 918.020691
v -14.199310 920.173645 949.056213
v 290.989990 899.993713 917.883057
v -13.395325 980.880310 949.675415
v 290.974365 958.160583 907.663513
v 290.850891 1290.299561 867.094482
v -14.199249 1270.119629 949.056152
v 290.989929 1290.299561 918.020691
v -14.199280 1270.119507 949.675415
v 290.974335 1232.132690 917.883179
v -13.395264 1209.412964 213.156525
v -14.199066 939.395630 159.191360
v 321.413940 916.447510 551.991028
v 321.413452 1286.196289 159.190994
v 321.413879 1286.195923 213.156281
v -14.199097 1252.000610 429.506134
v 290.851105 899.993408 416.492462
v -14.199158 920.173401 380.499298
v 290.990265 899.993469 357.030090
v -14.199097 920.173401 551.991028
v -14.199280 1252.000977 196.319260
v 290.851349 899.993103 236.887894
v -14.198883 920.173157 154.926590
v 290.990479 899.993164 185.961685
v -14.198853 920.173157 154.307281
v 290.974854 958.160095 186.099213
v -13.394836 980.879822 196.318741
v 290.851318 1290.299072 236.887421
v -14.198853 1270.119141 185.961212
v -14.198792 1270.119019 154.926102
v 290.990417 1290.299072 186.098816
v -13.394775 1209.412476 154.306885
v 290.974792 1232.132080 0.774903
v -0.452144 812.730835 726.473633
v 2.804827 812.510620 728.774902
v -0.370919 809.216614 727.089783
v 2.886052 808.996399 749.525391
v 11.662705 816.024963 748.521057
v 13.603824 815.893738 749.892578
v 11.711115 813.930542 748.888245
v 13.652232 813.799316 761.796448
v 10.870826 832.961792 759.521423
v 17.045189 819.975891 758.553772
v 17.395092 817.163879 748.376099
v 12.653255 815.270630 760.890320
v 3.985100 812.148499 761.017639
v 15.723827 815.733643 759.001221
v 17.088617 816.034058 748.911682
v 12.014159 814.256042 728.158752
v -0.452144 812.730835 726.473633
v 2.804827 812.510620 749.525391
v 11.662705 816.024963 749.892578
v 11.711115 813.930542 749.525391
v 11.662705 816.024963 728.158752
v -0.452144 812.730835 0.350566
v -4.240592 1004.058350 336.930573
v -4.240592 1050.111084 278.649323
v -4.240592 1016.624023 324.236603
v 45.421162 1004.058350 336.930573
v 45.421162 1050.111084 278.649323
v 45.421162 1016.624023 291.343292
v 45.421162 1062.676758 391.364227
v -4.240592 1183.488037 404.058197
v -4.240592 1229.540771 345.776947
v -4.240592 1196.053711 391.364227
v 45.421158 1183.488037 404.058197
v 45.421158 1229.540771 345.776947
v 45.421158 1196.053711 358.470917
v 45.421158 1242.106445 336.930573
v 45.421162 1050.111084 324.236603
v 45.421162 1004.058350 324.236603
v 45.421162 1004.058350 324.236603
v -4.240592 1004.058350 278.649323
v 45.421162 1016.624023 404.058197
v 45.421158 1229.540771 391.364227
v 45.421158 1183.488037 391.364227
v 45.421158 1183.488037 391.364227
v -4.240592 1183.488037 345.776947
v 45.421158 1196.053711 0.007627
v 276.079132 1356.523438 551.404663
v 255.754120 1356.486328 551.405029
v 582.355042 1095.773438 175.150574
v 634.665771 1095.773193 184.406662
v 566.406189 1095.773193 127.277374
v 276.047668 1273.920776 929.096985
v 634.632874 1095.773804 919.841675
v 566.335510 1095.773804 995.436768
v 276.078796 1356.524170 976.969910
v 276.047333 1273.921631 108.810883
v 276.079163 835.022522 551.405090
v 255.754135 835.060547 127.277710
v 276.047699 917.625183 995.437317
v 276.078796 835.023438 976.970215
v 276.047333 917.626038 953.548889
v 291.710083 1275.453491 953.765137
v 291.653198 1095.635010 932.304260
v 479.971710 1153.416870 909.451172
v 574.145813 1095.634766 953.549194
v 291.710083 915.784546 932.304382
v 479.971680 1037.820801 147.578918
v 291.710358 1275.452759 160.666962
v 291.653503 1095.634277 168.823990
v 479.971954 1153.416138 191.677261
v 574.146057 1095.634155 147.579315
v 291.710358 915.783813 168.824112
v 479.971924 1037.820190 976.969910
v 276.047333 1273.921631 127.277374
v 276.047668 1273.920776 184.406662
v 566.406189 1095.773193 919.841675
v 566.335510 1095.773804 976.969910
v 276.047333 1273.921631 551.404663
v 255.754120 1356.486328 127.277374
v 276.047668 1273.920776 108.810371
v 276.079132 1356.523438 995.436768
v 276.078796 1356.524170 551.405029
v 582.355042 1095.773438 175.150574
v 634.665771 1095.773193 184.406662
v 566.406189 1095.773193 919.841675
v 566.335510 1095.773804 929.096985
v 634.632874 1095.773804 127.277710
v 276.047699 917.625183 976.970215
v 276.047333 917.626038 184.406662
v 566.406189 1095.773193 919.841675
v 566.335510 1095.773804 551.405090
v 255.754135 835.060547 976.970215
v 276.047333 917.626038 127.277710
v 276.047699 917.625183 108.810883
v 276.079163 835.022522 995.437317
v 276.078796 835.023438 953.765137
v 291.653198 1095.635010 909.451172
v 574.145813 1095.634766 160.666962
v 291.653503 1095.634277 191.677261
v 574.146057 1095.634155 0.883174
v 2.214270 831.594421 379.383972
v 16.736486 773.360901 295.322723
v 2.214271 826.839783 375.949921
v 16.736486 768.606262 286.774048
v 59.636616 840.249023 333.503998
v 69.232346 806.498047 283.339996
v 59.636616 835.494385 330.069946
v 69.232346 801.743408 377.423401
v 35.688999 774.776917 373.989319
v 35.689003 770.022339 371.549622
v 51.950352 779.019348 368.115540
v 51.950356 774.264709 359.259827
v 64.900299 787.895691 355.825745
v 64.900299 783.141052 425.336670
v 15.976003 836.992188 379.178406
v 15.976008 773.083862 342.845276
v 4.187842 896.572205 424.564819
v 21.226284 837.549683 296.686981
v 4.187848 832.663818 378.406525
v 21.226288 773.641296 348.069183
v 2.304373 899.883484 427.892151
v 16.736479 842.230774 344.635101
v 2.304374 895.128845 424.458069
v 16.736479 837.476135 336.200073
v 59.636608 908.456055 382.012177
v 69.232330 875.367920 332.765991
v 59.636608 903.701355 378.578125
v 69.232330 870.613281 425.931549
v 35.688992 843.646851 422.497498
v 35.688995 838.892212 420.057800
v 51.950340 847.889221 416.623718
v 51.950340 843.134583 407.768005
v 64.900291 856.765625 404.333923
v 64.900291 852.010986 290.320892
v 1.180582 830.522705 343.119324
v 1.180577 903.624817 295.319611
v 2.042571 826.912354 348.118042
v 2.042565 900.014404 277.998322
v 58.692120 839.422791 330.796722
v 58.692112 912.524841 283.248993
v 59.621426 835.630493 336.047394
v 59.621418 908.732544 410.405640
v 27.630779 733.737732 349.272461
v 18.002298 778.277039 415.199371
v 27.630777 740.404297 353.516266
v 18.002296 784.178833 408.962463
v 41.594334 734.775513 347.829285
v 31.965855 779.314819 413.756195
v 41.594334 741.442017 352.073090
v 31.965855 785.216614 411.802277
v 17.990841 864.863403 472.817505
v 27.642220 820.167175 406.994568
v 17.990841 858.206909 468.605530
v 27.642220 814.335510 410.357819
v 31.953857 865.906616 471.373077
v 41.605236 821.210449 405.550110
v 31.953857 859.250122 467.161102
v 41.605232 815.378723 371.412048
v -3.897841 788.028076 379.409882
v -3.817422 782.251587 365.850189
v -3.897840 780.327393 373.848053
v -3.817421 774.550903 370.835022
v 15.249778 790.013184 380.106934
v 16.709280 783.316467 363.784332
v 15.249778 780.251160 373.056244
v 16.709282 773.554443 414.202545
v -3.758547 847.386536 421.989594
v -3.825657 841.762329 408.720276
v -3.758545 839.796082 416.507355
v -3.825655 834.171875 413.718903
v 15.214917 849.388062 422.990814
v 16.674421 842.691406 406.668213
v 15.214917 839.626038 415.940094
v 16.674423 832.929321 287.203186
v 10.531850 871.575745 294.408051
v 11.070389 866.372009 305.219574
v 18.261812 858.563354 284.455933
v 10.531850 867.772095 291.660797
v 11.070392 862.568298 302.472321
v 18.261812 854.759644 283.743469
v 17.457371 874.074585 285.657593
v 25.701345 872.692078 300.746246
v 39.735790 861.794189 280.996216
v 17.457371 870.270874 282.910339
v 25.701349 868.888367 297.998993
v 39.735794 857.990479 304.247925
v 25.982868 860.351074 289.901428
v 40.894707 870.712891 272.259216
v 33.024437 883.455078 268.963501
v 10.242328 885.835449 283.309998
v -4.669512 875.473633 300.952209
v 3.200760 862.731445 317.443573
v 25.982868 878.621033 303.097076
v 40.894707 888.982910 285.454865
v 33.024437 901.725098 282.159119
v 10.242329 904.105469 296.505615
v -4.669511 893.743591 314.147827
v 3.200761 881.001404 301.262054
v 10.531843 891.040955 308.466888
v 11.070383 885.837219 319.366547
v 18.261806 877.964905 304.009308
v 10.531843 894.844666 311.214142
v 11.070385 889.640930 322.113800
v 18.261806 881.768616 297.802338
v 17.457365 893.539795 299.716461
v 25.701340 892.157288 314.889313
v 39.735786 881.198608 300.549591
v 17.457365 897.343506 302.463715
v 25.701342 895.960999 317.636566
v 39.735790 885.002319 335.532867
v 84.304787 846.485168 326.636505
v 69.434532 821.768311 304.698914
v 65.282074 845.574219 327.057495
v 65.282074 882.622742 377.312897
v 69.434525 870.790710 377.755707
v 69.434532 833.340820 354.566437
v 69.434532 807.911072 325.899231
v 12.365566 813.242004 296.135956
v 33.425671 846.173401 331.223267
v 29.906429 892.977234 377.312897
v 12.365559 870.790710 409.714203
v 19.412580 826.617798 370.214447
v 19.412575 789.655334 379.383972
v 16.736486 773.360901 379.383972
v 16.736486 773.360901 377.423401
v 35.688999 774.776917 371.549622
v 51.950352 779.019348 359.259827
v 64.900299 787.895691 368.115540
v 51.950356 774.264709 375.949921
v 16.736486 768.606262 373.989319
v 35.689003 770.022339 330.069946
v 69.232346 801.743408 283.339996
v 59.636616 835.494385 355.825745
v 64.900299 783.141052 427.892151
v 16.736479 842.230774 425.931549
v 35.688992 843.646851 420.057800
v 51.950340 847.889221 407.768005
v 64.900291 856.765625 416.623718
v 51.950340 843.134583 424.458069
v 16.736479 837.476135 422.497498
v 35.688995 838.892212 378.578125
v 69.232330 870.613281 332.765991
v 59.636608 903.701355 404.333923
v 64.900291 852.010986 330.796722
v 58.692112 912.524841 277.998322
v 58.692120 839.422791 336.047394
v 59.621418 908.732544 343.119324
v 1.180577 903.624817 330.796722
v 58.692112 912.524841 283.248993
v 59.621426 835.630493 348.118042
v 2.042565 900.014404 336.047394
v 59.621418 908.732544 290.320892
v 1.180582 830.522705 277.998322
v 58.692120 839.422791 295.319611
v 2.042571 826.912354 283.248993
v 59.621426 835.630493 349.272461
v 18.002298 778.277039 347.829285
v 31.965855 779.314819 410.405640
v 27.630779 733.737732 408.962463
v 41.594334 734.775513 353.516266
v 18.002296 784.178833 352.073090
v 31.965855 785.216614 349.272461
v 18.002298 778.277039 347.829285
v 31.965855 779.314819 415.199371
v 27.630777 740.404297 413.756195
v 41.594334 741.442017 353.516266
v 18.002296 784.178833 352.073090
v 31.965855 785.216614 410.405640
v 27.630779 733.737732 408.962463
v 41.594334 734.775513 415.199371
v 27.630777 740.404297 413.756195
v 41.594334 741.442017 472.817505
v 27.642220 820.167175 471.373077
v 41.605236 821.210449 411.802277
v 17.990841 864.863403 410.357819
v 31.953857 865.906616 468.605530
v 27.642220 814.335510 467.161102
v 41.605232 815.378723 472.817505
v 27.642220 820.167175 471.373077
v 41.605236 821.210449 406.994568
v 17.990841 858.206909 405.550110
v 31.953857 859.250122 468.605530
v 27.642220 814.335510 467.161102
v 41.605232 815.378723 411.802277
v 17.990841 864.863403 410.357819
v 31.953857 865.906616 406.994568
v 17.990841 858.206909 405.550110
v 31.953857 859.250122 371.412048
v -3.897841 788.028076 370.835022
v 15.249778 790.013184 414.202545
v -3.758547 847.386536 413.718903
v 15.214917 849.388062 294.408051
v 11.070389 866.372009 285.657593
v 25.701345 872.692078 287.203186
v 10.531850 871.575745 283.743469
v 17.457371 874.074585 305.219574
v 18.261812 858.563354 300.746246
v 39.735790 861.794189 291.660797
v 11.070392 862.568298 282.910339
v 25.701349 868.888367 302.472321
v 18.261812 854.759644 297.998993
v 39.735794 857.990479 284.455933
v 10.531850 867.772095 280.996216
v 17.457371 870.270874 272.259216
v 33.024437 883.455078 285.454865
v 33.024437 901.725098 268.963501
v 10.242328 885.835449 272.259216
v 33.024437 883.455078 283.309998
v -4.669512 875.473633 289.901428
v 40.894707 870.712891 304.247925
v 25.982868 860.351074 300.952209
v 3.200760 862.731445 285.454865
v 33.024437 901.725098 282.159119
v 10.242329 904.105469 303.097076
v 40.894707 888.982910 296.505615
v -4.669511 893.743591 314.147827
v 3.200761 881.001404 317.443573
v 25.982868 878.621033 308.466888
v 11.070383 885.837219 299.716461
v 25.701340 892.157288 301.262054
v 10.531843 891.040955 297.802338
v 17.457365 893.539795 319.366547
v 18.261806 877.964905 314.889313
v 39.735786 881.198608 311.214142
v 11.070385 889.640930 302.463715
v 25.701342 895.960999 322.113800
v 18.261806 881.768616 317.636566
v 39.735790 885.002319 304.009308
v 10.531843 894.844666 300.549591
v 17.457365 897.343506 0.002878
v -1.701058 1045.253174 630.785645
v 5.880465 1087.153442 615.117004
v 6.810070 1065.951050 618.179565
v 5.880463 1038.725220 635.691772
v 26.242582 1084.818481 622.632019
v 23.677719 1065.967163 625.320129
v 24.028870 1042.884644 657.372803
v 56.223446 1062.819336 657.307373
v 55.731167 1061.517090 658.540588
v 56.717945 1062.235474 639.007996
v 54.112339 1063.915283 636.663574
v 50.653469 1055.506836 646.106018
v 47.590183 1054.992310 642.636169
v 60.594131 1052.971191 635.169800
v 56.209835 1054.662354 631.102905
v 53.229828 1059.310669 638.513000
v 46.742508 1050.569458 635.043152
v 59.746460 1048.548218 660.184448
v -1.701057 1036.702881 666.523560
v 5.880464 1025.800415 640.351074
v 6.810070 1022.630493 682.279358
v 6.810070 1046.914307 666.912720
v 26.242582 1031.219971 644.072388
v 23.677715 1029.159546 680.345276
v 26.763767 1050.168457 658.472351
v 56.223446 1060.931641 650.366089
v 54.112339 1044.416382 641.895447
v 50.653469 1046.525146 640.423950
v 56.209835 1045.642334 642.460999
v 53.229820 1039.811646 278.458679
v -1.701058 1127.289795 323.926422
v -1.701056 1095.835327 354.244812
v -1.701059 1141.899658 326.350464
v 14.465486 1083.260986 357.084473
v 17.538269 1106.066528 367.466217
v 14.465484 1144.448486 265.237274
v 14.465484 1124.740967 289.315918
v 17.538269 1092.827515 320.462250
v 61.349258 1095.326904 342.597198
v 54.292713 1113.040894 350.295227
v 55.163570 1141.138306 275.550812
v 67.565849 1126.729248 292.347046
v 62.634659 1103.224365 308.640167
v 109.633308 1129.761719 310.388275
v 107.228745 1133.445068 305.637329
v 112.048737 1132.529175 325.295410
v 109.678894 1123.589233 334.526276
v 101.183495 1131.270264 321.159454
v 96.745232 1135.521484 325.712280
v 122.486679 1136.399170 336.796997
v 113.991417 1131.678955 340.430939
v 106.971382 1124.413330 335.030884
v 92.017517 1138.195679 340.332489
v 121.992821 1139.217651 343.560333
v 17.538267 1176.220337 332.703979
v 54.292706 1164.360107 307.396210
v 109.633308 1136.214600 320.563324
v 109.678902 1148.136108 331.988007
v 101.183495 1144.436890 334.247925
v 113.991432 1144.901733 334.920532
v 106.971367 1152.997437 346.722870
v -1.701057 1059.952637 365.393311
v -1.701058 1046.372925 337.708679
v 4.811937 1058.640869 347.671967
v 6.098962 1042.413086 366.734863
v 4.811933 1037.101929 340.599274
v 28.021029 1061.295410 349.693420
v 24.470011 1047.450806 365.880096
v 24.956177 1043.009033 359.889648
v 61.444870 1069.677368 362.174286
v 59.622543 1068.618530 361.779572
v 63.275421 1071.346436 355.496094
v 58.523365 1057.863892 360.493744
v 53.734608 1054.019775 363.391815
v 49.493538 1060.204834 363.807190
v 67.497299 1057.334229 360.655396
v 61.427311 1052.791016 356.442413
v 57.301540 1051.324097 364.300781
v 48.319946 1053.923218 364.716156
v 66.323715 1051.052734 379.448395
v -1.701057 1064.688110 388.464661
v 4.811937 1065.985474 383.510132
v 6.098962 1047.598999 378.584198
v 6.098962 1082.247681 384.940155
v 28.021029 1067.711670 380.143585
v 24.470007 1051.857056 375.881653
v 28.742599 1081.832275 364.065033
v 61.444870 1070.281494 371.627136
v 58.523365 1060.198120 367.924164
v 53.734608 1055.094971 368.117493
v 61.427311 1053.870728 372.573456
v 57.301525 1053.658325 360.978119
v -2.520553 1136.545288 415.073700
v -2.520553 1104.299805 437.975952
v -2.520553 1142.721191 360.979919
v 22.474005 1136.543335 415.071960
v 22.474005 1104.300049 437.975769
v 22.474009 1142.723999 362.788696
v 33.420841 1139.573242 416.877319
v 33.420841 1107.331909 369.187317
v 40.392284 1150.307739 423.275970
v 40.392284 1118.066406 375.816254
v 40.392284 1161.428467 429.904907
v 40.392284 1129.187256 382.214874
v 33.420841 1172.162964 436.303528
v 33.420841 1139.921753 657.372803
v 56.223446 1062.819336 657.307373
v 55.731167 1061.517090 629.386292
v -1.701058 1045.253174 618.179565
v 5.880463 1038.725220 625.320129
v 24.028870 1042.884644 657.307373
v 55.731167 1061.517090 658.540588
v 56.717945 1062.235474 658.472351
v 56.223446 1060.931641 657.307373
v 55.731167 1061.517090 646.106018
v 47.590183 1054.992310 658.540588
v 56.717945 1062.235474 642.636169
v 60.594131 1052.971191 638.513000
v 46.742508 1050.569458 635.043152
v 59.746460 1048.548218 308.640167
v 109.633308 1129.761719 310.388275
v 107.228745 1133.445068 305.637329
v 112.048737 1132.529175 350.295227
v 55.163570 1141.138306 367.466217
v 14.465484 1144.448486 310.388275
v 107.228745 1133.445068 310.388275
v 107.228745 1133.445068 321.159454
v 96.745232 1135.521484 305.637329
v 112.048737 1132.529175 325.712280
v 122.486679 1136.399170 335.030884
v 92.017517 1138.195679 340.332489
v 121.992821 1139.217651 359.889648
v 61.444870 1069.677368 362.174286
v 59.622543 1068.618530 365.393311
v -1.701058 1046.372925 366.734863
v 4.811933 1037.101929 365.880096
v 24.956177 1043.009033 362.174286
v 59.622543 1068.618530 361.779572
v 63.275421 1071.346436 364.065033
v 61.444870 1070.281494 362.174286
v 59.622543 1068.618530 363.391815
v 49.493538 1060.204834 361.779572
v 63.275421 1071.346436 363.807190
v 67.497299 1057.334229 364.300781
v 48.319946 1053.923218 364.716156
v 66.323715 1051.052734 415.073700
v -2.520553 1104.299805 415.071960
v 22.474005 1104.300049 375.816254
v 40.392284 1161.428467 429.904907
v 40.392284 1129.187256 416.877319
v 33.420841 1107.331909 436.303528
v 33.420841 1139.921753 423.275970
v 40.392284 1118.066406 429.904907
v 40.392284 1129.187256 0.629271
v -1.701057 817.934692 759.738892
v -1.701057 814.141541 765.436584
v -1.701057 819.402344 762.193970
v -1.701057 826.446899 754.492188
v -1.701057 825.539856 749.056213
v 6.850398 816.130920 760.243408
v 6.850398 809.857300 769.667053
v 6.850398 818.558289 764.303955
v 6.850398 830.209473 751.565735
v 6.850398 828.709290 0.888133

vt 0.979672 0.876930
vt 0.934283 0.688465
vt 0.979672 0.876930
vt 0.932534 0.050191
vt 0.642076 0.288203
vt 0.698554 0.711797
vt 0.698554 0.949808
vt 0.642076 0.288203
vt 0.699358 0.711797
vt 0.699358 0.050191
vt 0.350203 0.288203
vt 0.293725 0.711797
vt 0.293725 0.949808
vt 0.350203 0.288203
vt 0.294529 0.711797
vt 0.294529 0.123070
vt 0.059821 0.311535
vt 0.014433 0.688465
vt 0.014433 0.876930
vt 0.059821 0.311535
vt 0.979672 0.876930
vt 0.934283 0.688465
vt 0.979672 0.876930
vt 0.932534 0.050191
vt 0.642076 0.288203
vt 0.698554 0.711797
vt 0.698554 0.949808
vt 0.642076 0.288203
vt 0.699358 0.050191
vt 0.350203 0.288203
vt 0.293725 0.711797
vt 0.293725 0.949808
vt 0.350203 0.288203
vt 0.294529 0.711797
vt 0.294529 0.123070
vt 0.059821 0.311535
vt 0.014433 0.688465
vt 0.014433 0.876930
vt 0.059821 0.688465
vt 0.977923 0.311535
vt 0.977923 0.876930
vt 0.932534 0.050191
vt 0.642076 0.288203
vt 0.698554 0.711797
vt 0.698554 0.949808
vt 0.642076 0.288203
vt 0.699358 0.050191
vt 0.350203 0.288203
vt 0.293725 0.711797
vt 0.293725 0.949808
vt 0.350203 0.288203
vt 0.294529 0.711797
vt 0.294529 0.123070
vt 0.059821 0.311535
vt 0.014433 0.688465
vt 0.014433 0.876930
vt 0.059821 0.311535
vt 0.979672 0.876930
vt 0.934283 0.688465
vt 0.979672 0.876930
vt 0.932534 0.050191
vt 0.642076 0.288203
vt 0.698554 0.711797
vt 0.698554 0.949808
vt 0.642076 0.288203
vt 0.699358 0.711797
vt 0.699358 0.050191
vt 0.350203 0.288203
vt 0.293725 0.711797
vt 0.293725 0.949808
vt 0.350203 0.288203
vt 0.294529 0.123070
vt 0.059821 0.311535
vt 0.014433 0.688465
vt 0.014433 0.876930
vt 0.059821 0.123070
vt 0.932534 0.311535
vt 0.977923 0.688465
vt 0.977923 0.123070
vt 0.933261 0.050191
vt 0.642880 0.311535
vt 0.978650 0.050191
vt 0.351007 0.123070
vt 0.060549 0.311535
vt 0.015160 0.688465
vt 0.015160 0.688465
vt 0.016182 0.123070
vt 0.061570 0.311535
vt 0.016182 0.123070
vt 0.932534 0.311535
vt 0.977923 0.688465
vt 0.977923 0.123070
vt 0.933261 0.050191
vt 0.642880 0.311535
vt 0.978650 0.050191
vt 0.351007 0.123070
vt 0.060549 0.311535
vt 0.015160 0.688465
vt 0.015160 0.876930
vt 0.060549 0.949808
vt 0.351007 0.688465
vt 0.016182 0.123070
vt 0.061570 0.311535
vt 0.016182 0.123070
vt 0.933261 0.050191
vt 0.642880 0.311535
vt 0.978650 0.050191
vt 0.351007 0.123070
vt 0.060549 0.311535
vt 0.015160 0.688465
vt 0.015160 0.876930
vt 0.060549 0.949808
vt 0.351007 0.688465
vt 0.016182 0.123070
vt 0.061570 0.311535
vt 0.016182 0.123070
vt 0.932534 0.311535
vt 0.977923 0.688465
vt 0.977923 0.123070
vt 0.933261 0.050191
vt 0.642880 0.311535
vt 0.978650 0.688465
vt 0.978650 0.050191
vt 0.351007 0.123070
vt 0.060549 0.311535
vt 0.015160 0.688465
vt 0.016182 0.123070
vt 0.061570 0.311535
vt 0.016182 1.000000
vt 0.013242 0.482008
vt 0.013795 0.981942
vt 0.013789 0.983029
vt 0.985697 0.482004
vt 0.984655 0.981942
vt 0.984666 0.731119
vt 0.265830 0.482045
vt 0.218967 0.776440
vt 0.219019 0.731119
vt 0.740411 0.482107
vt 0.740330 0.776440
vt 0.787122 0.903876
vt 0.090508 0.481981
vt 0.090508 0.903850
vt 0.090508 0.903876
vt 0.909734 0.776460
vt 0.219019 0.482107
vt 0.265405 0.731115
vt 0.265405 0.776460
vt 0.787244 0.731115
vt 0.740330 0.993439
vt 0.002505 0.482012
vt 0.002505 0.993427
vt 0.002505 0.993439
vt 0.995687 0.482012
vt 0.995687 0.993427
vt 0.995687 0.993439
vt 0.002505 0.482012
vt 0.002505 0.993427
vt 0.002505 0.993439
vt 0.995687 0.482012
vt 0.995687 0.993427
vt 0.995687 0.731119
vt 0.265830 0.482045
vt 0.218967 0.776440
vt 0.219019 0.731119
vt 0.740411 0.482107
vt 0.740330 0.776440
vt 0.787122 0.903876
vt 0.090508 0.481981
vt 0.090508 0.903850
vt 0.090508 0.903850
vt 0.909734 0.481947
vt 0.909876 0.903876
vt 0.909734 0.776460
vt 0.219019 0.482107
vt 0.265405 0.731115
vt 0.265405 0.776460
vt 0.787244 0.482045
vt 0.787215 0.731115
vt 0.740330 0.993439
vt 0.002505 0.993427
vt 0.002505 0.993439
vt 0.995687 0.482012
vt 0.995687 0.993427
vt 0.995687 0.731119
vt 0.265830 0.776440
vt 0.219019 0.731119
vt 0.740411 0.482107
vt 0.740330 0.776440
vt 0.787122 0.903876
vt 0.090508 0.903850
vt 0.090508 0.903850
vt 0.909734 0.481947
vt 0.909876 0.903876
vt 0.909734 0.776460
vt 0.219019 0.482107
vt 0.265405 0.731115
vt 0.265405 0.776460
vt 0.787244 0.482045
vt 0.787215 0.731115
vt 0.740330 0.993439
vt 0.002505 0.482012
vt 0.002505 0.993427
vt 0.002505 0.993439
vt 0.995687 0.482012
vt 0.995687 0.993427
vt 0.995687 0.731119
vt 0.265830 0.482045
vt 0.218967 0.776440
vt 0.219019 0.731119
vt 0.740411 0.482107
vt 0.740330 0.776440
vt 0.787122 0.903876
vt 0.090508 0.481981
vt 0.090508 0.903850
vt 0.090508 0.903850
vt 0.909734 0.481947
vt 0.909876 0.903876
vt 0.909734 0.776460
vt 0.219019 0.482107
vt 0.265405 0.731115
vt 0.265405 0.776460
vt 0.787244 0.482045
vt 0.787215 0.731115
vt 0.740330 0.051939
vt 0.067971 0.301026
vt 0.067971 0.051939
vt 0.210024 0.301026
vt 0.210024 0.051967
vt 0.372806 0.301079
vt 0.372806 0.051958
vt 0.268002 0.301062
vt 0.268002 0.051939
vt 0.067971 0.301026
vt 0.067971 0.051939
vt 0.210024 0.301026
vt 0.210024 0.051967
vt 0.372806 0.301079
vt 0.372806 0.051958
vt 0.268002 0.301062
vt 0.268002 0.051939
vt 0.067971 0.301026
vt 0.067971 0.051939
vt 0.210024 0.301026
vt 0.210024 0.051967
vt 0.372806 0.301079
vt 0.372806 0.051958
vt 0.268002 0.301062
vt 0.268002 0.051939
vt 0.067971 0.301026
vt 0.067971 0.051939
vt 0.210024 0.301026
vt 0.210024 0.051967
vt 0.372806 0.301079
vt 0.372806 0.051958
vt 0.268002 0.301062
vt 0.268002 0.345461
vt 0.332473 0.417993
vt 0.332473 0.345477
vt 0.332455 0.418003
vt 0.332455 0.345471
vt 0.996171 0.418002
vt 0.996171 0.345471
vt 0.958388 0.418002
vt 0.958388 0.345461
vt 0.332473 0.417993
vt 0.332473 0.345477
vt 0.332455 0.418003
vt 0.332455 0.345471
vt 0.996171 0.418002
vt 0.996171 0.345471
vt 0.958388 0.418002
vt 0.958388 0.301009
vt 0.004920 0.051930
vt 0.004920 0.363437
vt 0.209781 0.363497
vt 0.069180 0.000484
vt 0.067983 0.000376
vt 0.210010 0.301009
vt 0.004920 0.051930
vt 0.004920 0.363437
vt 0.209781 0.363497
vt 0.069180 0.000484
vt 0.067983 0.000376
vt 0.210010 0.301009
vt 0.004920 0.051930
vt 0.004920 0.363437
vt 0.209781 0.363497
vt 0.069180 0.000484
vt 0.067983 0.000376
vt 0.210010 0.301009
vt 0.004920 0.051930
vt 0.004920 0.363437
vt 0.209781 0.363497
vt 0.069180 0.000484
vt 0.067983 0.000376
vt 0.210010 0.417993
vt 0.958390 0.345461
vt 0.958390 0.458149
vt 0.332465 0.458149
vt 0.958382 0.305970
vt 0.958390 0.305970
vt 0.332455 0.417993
vt 0.958390 0.345461
vt 0.958390 0.458149
vt 0.332465 0.458149
vt 0.958382 0.305970
vt 0.958390 0.305970
vt 0.332455 1.000000
vt 0.671710 0.756838
vt 0.736958 0.998659
vt 0.836551 0.854618
vt 0.836552 0.711486
vt 0.836553 0.998702
vt 0.999998 0.854618
vt 0.978493 0.711585
vt 1.000014 0.950157
vt 0.736811 0.854618
vt 0.836551 0.854618
vt 0.976672 0.971002
vt 0.420057 0.892924
vt 0.568020 0.945214
vt 0.568694 0.902704
vt 0.595982 0.871971
vt 0.595446 0.933437
vt 0.596519 0.914766
vt 0.682418 0.885764
vt 0.682013 0.943225
vt 0.682687 0.612090
vt 0.403248 0.572626
vt 0.403248 0.651553
vt 0.403248 0.612090
vt 0.993470 0.572626
vt 0.993470 0.651553
vt 0.993470 0.741646
vt 0.450296 0.775479
vt 0.450288 0.856097
vt 0.450311 0.741716
vt 0.623600 0.775515
vt 0.623575 0.856146
vt 0.623650 0.274369
vt 0.000000 0.239609
vt 0.000000 0.274369
vt 0.200000 0.239609
vt 0.200000 0.274369
vt 0.400000 0.239609
vt 0.400000 0.274369
vt 0.600000 0.239609
vt 0.600000 0.274369
vt 0.800000 0.239609
vt 0.800000 0.274369
vt 1.000000 0.239609
vt 1.000000 0.298378
vt 0.907403 0.298378
vt 0.991381 0.298378
vt 0.823425 0.550312
vt 0.907403 0.550312
vt 0.991381 0.550312
vt 0.823425 0.854618
vt 0.671698 0.950167
vt 0.736804 0.998673
vt 0.836551 0.756910
vt 0.736804 0.711515
vt 0.836551 0.998673
vt 1.000000 0.711515
vt 1.000000 0.854618
vt 0.978493 0.991586
vt 0.569503 0.998652
vt 0.597193 0.989596
vt 0.683496 0.965118
vt 0.703771 0.691017
vt 0.403248 0.691017
vt 0.993470 0.705660
vt 0.450303 0.705702
vt 0.623624 0.812450
vt 0.406360 0.812503
vt 0.664859 0.298378
vt 0.739448 0.550312
vt 0.739448 1.000000
vt 0.238631 0.619509
vt 0.108733 0.225923
vt 0.108733 0.619215
vt 0.238631 1.047763
vt 0.234045 1.047758
vt 0.098918 0.307575
vt 0.232432 0.307035
vt 0.892158 0.198710
vt 0.892114 0.198931
vt 0.232404 0.093955
vt 0.892114 0.093406
vt 0.232404 0.093947
vt 0.894142 0.093205
vt 0.234514 0.992794
vt 0.247226 0.992633
vt 0.819369 0.307035
vt 0.892158 0.198710
vt 0.892114 0.307575
vt 0.232432 0.198931
vt 0.232404 0.093955
vt 0.892114 0.093406
vt 0.232404 0.093947
vt 0.894142 0.093205
vt 0.234514 0.198235
vt 0.894142 0.198978
vt 0.234514 0.090598
vt 0.892158 0.198923
vt 0.892114 0.090058
vt 0.232432 0.198702
vt 0.232404 0.093955
vt 0.892114 0.093406
vt 0.232404 0.093947
vt 0.894142 0.093205
vt 0.234514 0.198235
vt 0.894142 0.198978
vt 0.234514 0.225097
vt 0.238631 0.619509
vt 0.108733 0.225923
vt 0.108733 0.619215
vt 0.238631 1.047763
vt 0.234045 1.047758
vt 0.098918 0.307575
vt 0.232432 0.307035
vt 0.892158 0.198710
vt 0.892114 0.198931
vt 0.232404 0.093955
vt 0.892114 0.093406
vt 0.232404 0.093947
vt 0.894142 0.093205
vt 0.234514 0.307035
vt 0.892158 0.198710
vt 0.892114 0.307575
vt 0.232432 0.198931
vt 0.232404 0.093955
vt 0.892114 0.093406
vt 0.232404 0.093947
vt 0.894142 0.093205
vt 0.234514 0.198235
vt 0.894142 0.198978
vt 0.234514 0.090598
vt 0.892158 0.198923
vt 0.892114 0.090058
vt 0.232432 0.198702
vt 0.232404 0.093955
vt 0.892114 0.093406
vt 0.232404 0.093947
vt 0.894142 0.093205
vt 0.234514 0.198235
vt 0.894142 0.198978
vt 0.234514 0.654273
vt 0.098918 0.653639
vt 0.233458 0.675244
vt 0.821121 0.675780
vt 0.244729 0.198809
vt 0.892158 0.198469
vt 0.232432 0.198410
vt 0.234204 0.198803
vt 0.893815 0.198809
vt 0.892158 0.198469
vt 0.232432 0.198410
vt 0.234204 0.198803
vt 0.893815 0.093772
vt 0.234204 0.093380
vt 0.893815 0.198809
vt 0.892158 0.198469
vt 0.232432 0.198803
vt 0.893815 0.198410
vt 0.234204 0.093380
vt 0.893815 0.093772
vt 0.234204 0.654273
vt 0.098918 0.653639
vt 0.233458 0.992633
vt 0.819369 0.675244
vt 0.821121 0.675780
vt 0.244729 0.198809
vt 0.892158 0.198469
vt 0.232432 0.198803
vt 0.893815 0.198410
vt 0.234204 0.992794
vt 0.247226 0.198809
vt 0.892158 0.198469
vt 0.232432 0.198803
vt 0.893815 0.198410
vt 0.234204 0.093380
vt 0.893815 0.093772
vt 0.234204 0.198809
vt 0.892158 0.198469
vt 0.232432 0.198410
vt 0.234204 0.198803
vt 0.893815 0.093772
vt 0.234204 0.093380
vt 0.893815 1.000000
vt 0.004364 0.541968
vt 0.004364 0.649653
vt 0.121079 0.541974
vt 0.121167 0.629122
vt 0.875628 0.629121
vt 0.792442 0.541688
vt 0.875524 0.541619
vt 0.792442 0.997412
vt 0.998169 0.997077
vt 0.632458 0.996318
vt 0.583522 0.997441
vt 0.006023 0.537057
vt 0.997843 0.882943
vt 0.631462 0.966400
vt 0.583261 0.967523
vt 0.005762 0.761227
vt 0.117519 0.649601
vt 0.121167 0.713871
vt 0.792456 0.629163
vt 0.792414 0.713861
vt 0.792414 0.761214
vt 0.117388 1.000000
vt 0.007017 0.508562
vt 0.007017 0.508562
vt 0.007017 0.992373
vt 0.007017 0.508562
vt 0.007017 0.992373
vt 0.489616 0.508562
vt 0.489616 0.992373
vt 0.007017 0.508562
vt 0.007017 0.508562
vt 0.007017 0.992373
vt 0.007017 0.508562
vt 0.007017 0.992373
vt 0.489616 0.508562
vt 0.489616 0.508562
vt 0.489616 0.992373
vt 0.489616 0.992373
vt 0.489616 0.992373
vt 0.007017 0.508562
vt 0.489616 0.508562
vt 0.489616 0.992373
vt 0.489616 0.992373
vt 0.489616 0.992373
vt 0.007017 0.508562
vt 0.489616 1.000000
vt 0.609686 0.367164
vt 0.609748 0.367085
vt 0.989044 0.116826
vt 0.989044 0.046265
vt 0.989044 0.015399
vt 0.609727 0.116826
vt 0.989044 0.046265
vt 0.989044 0.116826
vt 0.609686 0.015399
vt 0.609727 0.116826
vt 0.609686 0.367164
vt 0.609748 0.015399
vt 0.609727 0.116826
vt 0.609686 0.015399
vt 0.609727 0.755549
vt 0.232441 0.990211
vt 0.232499 0.817121
vt 0.529719 0.990216
vt 0.674165 0.755549
vt 0.232441 0.817121
vt 0.529719 0.755549
vt 0.232441 0.990211
vt 0.232499 0.817121
vt 0.529719 0.990216
vt 0.674165 0.755549
vt 0.232441 0.817121
vt 0.529719 0.367279
vt 0.609728 0.015360
vt 0.609748 0.045373
vt 0.989079 0.367031
vt 0.989079 0.116826
vt 0.356230 0.367164
vt 0.439555 0.633885
vt 0.356230 0.633787
vt 0.439465 0.116826
vt 0.439465 0.367085
vt 0.989044 0.116826
vt 0.989044 0.046265
vt 0.989044 0.046265
vt 0.989044 0.116826
vt 0.989044 0.015360
vt 0.609748 0.367279
vt 0.609728 0.045373
vt 0.989079 0.367031
vt 0.989079 0.367164
vt 0.439555 0.116826
vt 0.356230 0.633885
vt 0.356230 0.633787
vt 0.439465 0.116826
vt 0.439465 0.990211
vt 0.232499 0.990216
vt 0.674165 0.990211
vt 0.232499 0.990216
vt 0.674165 1.000000
vt 0.731425 0.495309
vt 0.731175 0.997122
vt 0.731425 0.452221
vt 0.998217 0.997921
vt 0.950612 0.694074
vt 0.950612 0.997921
vt 0.998248 0.694077
vt 0.998248 0.495323
vt 0.809089 0.505187
vt 0.998217 0.531352
vt 0.861506 0.558153
vt 0.998217 0.581648
vt 0.916153 0.611119
vt 0.998217 0.935791
vt 0.709911 0.556047
vt 0.709911 0.935792
vt 0.191963 0.935791
vt 0.655249 0.556127
vt 0.191710 0.556047
vt 0.655249 0.997122
vt 0.731425 0.495309
vt 0.731175 0.997122
vt 0.731425 0.452221
vt 0.998217 0.997921
vt 0.950612 0.694074
vt 0.950612 0.997921
vt 0.998248 0.694077
vt 0.998248 0.495323
vt 0.809089 0.505187
vt 0.998217 0.531352
vt 0.861506 0.558153
vt 0.998217 0.581648
vt 0.916153 0.611119
vt 0.998217 0.933374
vt 0.430108 0.559495
vt 0.430148 0.559495
vt 0.661436 0.498206
vt 0.430157 0.933370
vt 0.661437 0.559495
vt 0.661437 0.933370
vt 0.711338 0.559495
vt 0.711338 0.940288
vt 0.246117 0.558623
vt 0.246117 0.940288
vt 0.195904 0.558623
vt 0.195904 0.940288
vt 0.359973 0.558623
vt 0.359973 0.940288
vt 0.411402 0.558623
vt 0.411402 0.940288
vt 0.246117 0.558623
vt 0.246117 0.940288
vt 0.195904 0.558623
vt 0.195904 0.940288
vt 0.359973 0.558623
vt 0.359973 0.940288
vt 0.411402 0.558623
vt 0.411402 0.434019
vt 0.906294 0.346079
vt 0.906279 0.346085
vt 0.906228 0.251882
vt 0.906279 0.434019
vt 0.995721 0.346079
vt 0.995705 0.346080
vt 0.995737 0.251882
vt 0.995705 0.434019
vt 0.906294 0.346079
vt 0.906279 0.346085
vt 0.906228 0.251882
vt 0.906279 0.434019
vt 0.995721 0.346079
vt 0.995705 0.346080
vt 0.995737 0.251882
vt 0.995705 0.011751
vt 0.384103 0.011720
vt 0.276057 0.011654
vt 0.164753 0.073237
vt 0.384103 0.073228
vt 0.276043 0.073210
vt 0.164426 0.011787
vt 0.483297 0.011809
vt 0.577987 0.011831
vt 0.756611 0.073246
vt 0.483108 0.073252
vt 0.577804 0.073258
vt 0.756525 0.482298
vt 0.450963 0.482298
vt 0.552049 0.482298
vt 0.653185 0.482298
vt 0.552131 0.482298
vt 0.450975 0.482298
vt 0.350483 0.376952
vt 0.450963 0.376952
vt 0.552049 0.376952
vt 0.653185 0.376952
vt 0.552131 0.376952
vt 0.450975 0.376952
vt 0.350483 0.011751
vt 0.384103 0.011720
vt 0.276057 0.011654
vt 0.164753 0.073237
vt 0.384103 0.073228
vt 0.276043 0.073210
vt 0.164426 0.011787
vt 0.483297 0.011809
vt 0.577987 0.011831
vt 0.756611 0.073246
vt 0.483108 0.073252
vt 0.577804 0.073258
vt 0.756525 0.231382
vt 0.449124 0.137410
vt 0.374054 0.165602
vt 0.222570 0.290834
vt 0.222547 0.366736
vt 0.332537 0.290832
vt 0.222541 0.165612
vt 0.222569 0.088590
vt 0.326848 0.088083
vt 0.007460 0.372845
vt 0.007530 0.468959
vt 0.265808 0.372836
vt 0.007550 0.088092
vt 0.007613 0.495309
vt 0.809089 0.452221
vt 0.950605 0.505187
vt 0.950605 0.558153
vt 0.950605 0.611119
vt 0.950605 0.531352
vt 0.861506 0.495318
vt 0.731338 0.495325
vt 0.809186 0.694074
vt 0.950620 0.997922
vt 0.950620 0.581648
vt 0.916153 0.452221
vt 0.950605 0.505187
vt 0.950605 0.558153
vt 0.950605 0.611119
vt 0.950605 0.531352
vt 0.861506 0.495318
vt 0.731338 0.495325
vt 0.809186 0.694074
vt 0.950620 0.997922
vt 0.950620 0.581648
vt 0.916153 0.559495
vt 0.661437 0.933370
vt 0.661437 0.498269
vt 0.661451 0.559482
vt 0.430136 0.559482
vt 0.661446 0.559495
vt 0.430148 0.933370
vt 0.661436 0.933370
vt 0.430148 0.933390
vt 0.430084 0.933390
vt 0.661449 0.995857
vt 0.430069 0.996036
vt 0.661448 0.558623
vt 0.246120 0.558623
vt 0.359964 0.940288
vt 0.246120 0.940288
vt 0.359964 0.502977
vt 0.246120 0.502977
vt 0.359962 0.558623
vt 0.246120 0.558623
vt 0.359962 0.940289
vt 0.246115 0.940286
vt 0.359975 0.558620
vt 0.246092 0.558630
vt 0.360054 0.940289
vt 0.246120 0.940289
vt 0.359963 0.994941
vt 0.246120 0.994941
vt 0.359964 0.558623
vt 0.246120 0.558623
vt 0.359964 0.940288
vt 0.246120 0.940288
vt 0.359964 0.502977
vt 0.246120 0.502977
vt 0.359962 0.558623
vt 0.246120 0.558623
vt 0.359962 0.940289
vt 0.246115 0.940286
vt 0.359975 0.558620
vt 0.246092 0.558630
vt 0.360054 0.940289
vt 0.246120 0.940289
vt 0.359963 0.994941
vt 0.246120 0.994941
vt 0.359964 0.434024
vt 0.906228 0.434024
vt 0.995653 0.434024
vt 0.906228 0.434024
vt 0.995653 0.217711
vt 0.543778 0.246321
vt 0.692611 0.282900
vt 0.543785 0.311508
vt 0.612308 0.085642
vt 0.582541 0.085642
vt 0.760023 0.150201
vt 0.761174 0.178807
vt 0.909919 0.018156
vt 0.799931 0.018092
vt 0.977242 0.215343
vt 0.761167 0.243952
vt 0.829645 0.482298
vt 0.653237 0.376952
vt 0.653237 0.376212
vt 0.672871 0.471380
vt 0.727816 0.281044
vt 0.727816 0.471380
vt 0.837706 0.376212
vt 0.892651 0.281044
vt 0.837706 0.471380
vt 0.727816 0.376212
vt 0.672871 0.471380
vt 0.837706 0.281044
vt 0.727816 0.281044
vt 0.837706 0.376212
vt 0.892651 0.217711
vt 0.543778 0.246321
vt 0.692611 0.282900
vt 0.543785 0.311508
vt 0.612308 0.085642
vt 0.582541 0.085642
vt 0.760023 0.150201
vt 0.761174 0.178807
vt 0.909919 0.018156
vt 0.799931 0.018092
vt 0.977242 0.215343
vt 0.761167 0.243952
vt 0.829645 1.000000
vt 0.392858 0.017762
vt 0.483323 0.204026
vt 0.497863 0.403768
vt 0.537329 0.017762
vt 0.754753 0.157088
vt 0.777601 0.308619
vt 0.823298 0.017762
vt 0.976242 0.082084
vt 0.976317 0.420336
vt 0.750323 0.356015
vt 0.821993 0.449787
vt 0.891291 0.535439
vt 0.827028 0.535439
vt 0.827028 0.449787
vt 0.891291 0.356015
vt 0.909051 0.535439
vt 0.910649 0.535439
vt 0.910649 0.017762
vt 0.382472 0.017762
vt 0.483323 0.204026
vt 0.497863 0.204026
vt 0.497863 0.017762
vt 0.754753 0.157088
vt 0.777601 0.157088
vt 0.777601 0.017762
vt 0.976242 0.356015
vt 0.821993 0.449787
vt 0.891291 0.449787
vt 0.891291 0.356015
vt 0.909051 0.370729
vt 0.392858 0.017762
vt 0.382472 0.370729
vt 0.392858 0.017762
vt 0.483323 0.204026
vt 0.497863 0.403768
vt 0.537329 0.403768
vt 0.537329 0.204026
vt 0.497863 0.017762
vt 0.754753 0.157088
vt 0.777601 0.308619
vt 0.823298 0.308619
vt 0.823298 0.157088
vt 0.777601 0.017762
vt 0.976242 0.082084
vt 0.976317 0.082084
vt 0.976317 0.356015
vt 0.821993 0.449787
vt 0.891291 0.535439
vt 0.827028 0.535439
vt 0.827028 0.449787
vt 0.891291 0.356015
vt 0.909051 0.535439
vt 0.910649 0.535439
vt 0.910649 0.204026
vt 0.497863 0.157088
vt 0.777601 0.356015
vt 0.750235 0.356015
vt 0.821993 0.449787
vt 0.891291 0.449787
vt 0.891291 0.356015
vt 0.909051 0.017762
vt 0.382472 0.370729
vt 0.392858 0.017762
vt 0.483323 0.204026
vt 0.497863 0.403768
vt 0.537329 0.017762
vt 0.754753 0.157088
vt 0.777601 0.308619
vt 0.823298 0.017762
vt 0.976242 0.082084
vt 0.976317 0.420336
vt 0.750323 0.356015
vt 0.821993 0.449787
vt 0.891291 0.535439
vt 0.827028 0.535439
vt 0.827028 0.449787
vt 0.891291 0.356015
vt 0.909051 0.535439
vt 0.910649 0.535439
vt 0.910649 0.017762
vt 0.382472 0.017762
vt 0.483323 0.204026
vt 0.497863 0.204026
vt 0.497863 0.017762
vt 0.754753 0.157088
vt 0.777601 0.157088
vt 0.777601 0.017762
vt 0.976242 0.356015
vt 0.821993 0.449787
vt 0.891291 0.449787
vt 0.891291 0.356015
vt 0.909051 0.990458
vt 0.228421 0.510486
vt 0.228421 0.181596
vt 0.015159 0.990558
vt 0.446212 0.510454
vt 0.446212 0.181596
vt 0.228361 0.990561
vt 0.546813 0.510455
vt 0.546813 0.990561
vt 0.654744 0.510455
vt 0.654744 0.990561
vt 0.754791 0.510455
vt 0.754791 0.510455
vt 0.546813 0.990561
vt 0.546813 0.356015
vt 0.750235 0.420336
vt 0.750323 0.370729
vt 0.392858 0.403768
vt 0.537329 0.308619
vt 0.823298 0.082084
vt 0.976317 0.082084
vt 0.976317 0.356015
vt 0.750235 0.420336
vt 0.750323 0.535439
vt 0.827028 0.420336
vt 0.750323 0.535439
vt 0.827028 0.535439
vt 0.910649 0.535439
vt 0.910649 0.356015
vt 0.750235 0.420336
vt 0.750323 0.420336
vt 0.750323 0.308619
vt 0.823298 0.403768
vt 0.537329 0.082084
vt 0.976317 0.420336
vt 0.750323 0.535439
vt 0.827028 0.420336
vt 0.750323 0.535439
vt 0.827028 0.535439
vt 0.910649 0.535439
vt 0.910649 0.356015
vt 0.750235 0.420336
vt 0.750323 0.370729
vt 0.392858 0.403768
vt 0.537329 0.308619
vt 0.823298 0.082084
vt 0.976317 0.082084
vt 0.976317 0.356015
vt 0.750235 0.420336
vt 0.750323 0.535439
vt 0.827028 0.420336
vt 0.750323 0.535439
vt 0.827028 0.535439
vt 0.910649 0.535439
vt 0.910649 0.491978
vt 0.015159 0.491979
vt 0.228361 0.510455
vt 0.654744 0.990561
vt 0.654744 0.468419
vt 0.312840 0.205155
vt 0.312840 0.391484
vt 0.370690 0.282090
vt 0.370690 1.000000
vt 0.671485 0.276444
vt 0.621564 0.276164
vt 0.448456 0.110772
vt 0.394108 0.007142
vt 0.533453 0.131199
vt 0.613487 0.225470
vt 0.582856 0.225470
vt 0.483734 0.131199
vt 0.453104 0.072937
vt 0.533295 1.000000

f 77/77 5/5 6/6
f 77/77 6/6 78/78
f 78/78 6/6 7/7
f 78/78 7/7 79/79
f 79/79 7/7 4/4
f 7/7 8/8 4/4
f 80/80 81/81 9/9
f 80/80 9/9 82/82
f 5/5 11/11 12/12
f 5/5 12/12 6/6
f 6/6 12/12 13/13
f 6/6 13/13 7/7
f 7/7 13/13 14/14
f 7/7 14/14 8/8
f 81/81 83/83 15/15
f 81/81 15/15 9/9
f 9/9 15/15 16/16
f 9/9 16/16 10/10
f 11/11 17/17 12/12
f 17/17 18/18 12/12
f 12/12 18/18 13/13
f 18/18 19/19 13/13
f 13/13 19/19 20/20
f 13/13 20/20 14/14
f 83/83 84/84 15/15
f 84/84 85/85 15/15
f 15/15 85/85 86/86
f 15/15 86/86 16/16
f 90/90 25/25 26/26
f 90/90 26/26 91/91
f 91/91 26/26 27/27
f 91/91 27/27 92/92
f 92/92 27/27 24/24
f 27/27 28/28 24/24
f 93/93 94/94 29/29
f 93/93 29/29 95/95
f 25/25 30/30 31/31
f 25/25 31/31 26/26
f 26/26 31/31 32/32
f 26/26 32/32 27/27
f 27/27 32/32 33/33
f 27/27 33/33 28/28
f 94/94 96/96 34/34
f 94/94 34/34 29/29
f 30/30 36/36 31/31
f 36/36 37/37 31/31
f 31/31 37/37 32/32
f 37/37 38/38 32/32
f 32/32 38/38 39/39
f 32/32 39/39 33/33
f 96/96 97/97 34/34
f 97/97 98/98 34/34
f 34/34 98/98 99/99
f 34/34 99/99 35/35
f 35/35 99/99 100/100
f 35/35 100/100 101/101
f 41/41 44/44 45/45
f 41/41 45/45 40/40
f 40/40 45/45 42/42
f 45/45 46/46 42/42
f 105/105 106/106 47/47
f 105/105 47/47 107/107
f 43/43 48/48 49/49
f 43/43 49/49 44/44
f 44/44 49/49 50/50
f 44/44 50/50 45/45
f 45/45 50/50 51/51
f 45/45 51/51 46/46
f 106/106 108/108 52/52
f 106/106 52/52 47/47
f 48/48 54/54 49/49
f 54/54 55/55 49/49
f 49/49 55/55 50/50
f 55/55 56/56 50/50
f 50/50 56/56 57/57
f 50/50 57/57 51/51
f 108/108 109/109 52/52
f 109/109 110/110 52/52
f 52/52 110/110 111/111
f 52/52 111/111 53/53
f 53/53 111/111 112/112
f 53/53 112/112 113/113
f 117/117 62/62 63/63
f 117/117 63/63 118/118
f 118/118 63/63 64/64
f 118/118 64/64 119/119
f 119/119 64/64 61/61
f 64/64 65/65 61/61
f 120/120 121/121 66/66
f 120/120 66/66 122/122
f 122/122 66/66 123/123
f 66/66 67/67 123/123
f 62/62 68/68 69/69
f 62/62 69/69 63/63
f 63/63 69/69 70/70
f 63/63 70/70 64/64
f 64/64 70/70 71/71
f 64/64 71/71 65/65
f 121/121 124/124 72/72
f 121/121 72/72 66/66
f 68/68 73/73 69/69
f 73/73 74/74 69/69
f 69/69 74/74 70/70
f 74/74 75/75 70/70
f 70/70 75/75 76/76
f 70/70 76/76 71/71
f 124/124 125/125 72/72
f 125/125 126/126 72/72
f 2/2 3/3 1/1
f 3/3 2/2 21/21
f 22/22 23/23 21/21
f 23/23 22/22 58/58
f 59/59 60/60 58/58
f 229/229 232/232 228/228
f 232/232 229/229 233/233
f 237/237 236/236 240/240
f 240/240 241/241 237/237
f 245/245 248/248 244/244
f 248/248 245/245 249/249
f 253/253 256/256 252/252
f 256/256 253/253 257/257
f 261/261 264/264 260/260
f 264/264 261/261 265/265
f 269/269 272/272 268/268
f 272/272 269/269 273/273
f 226/226 275/275 234/234
f 281/281 234/234 242/242
f 242/242 287/287 250/250
f 250/250 293/293 258/258
f 258/258 299/299 266/266
f 130/130 227/227 276/276
f 229/229 276/276 227/227
f 316/316 367/367 317/317
f 315/315 367/367 316/316
f 322/322 324/324 325/325
f 324/324 322/322 323/323
f 326/326 368/368 369/369
f 368/368 326/326 321/321
f 324/324 323/323 326/326
f 323/323 324/324 325/325
f 328/328 324/324 327/327
f 324/324 328/328 326/326
f 329/329 369/369 370/370
f 369/369 329/329 324/324
f 327/327 326/326 329/329
f 326/326 327/327 331/331
f 334/334 330/330 333/333
f 330/330 334/334 332/332
f 335/335 372/372 373/373
f 372/372 335/335 330/330
f 333/333 332/332 335/335
f 332/332 333/333 337/337
f 340/340 336/336 339/339
f 336/336 340/340 338/338
f 341/341 337/337 340/340
f 337/337 341/341 336/336
f 339/339 374/374 375/375
f 374/374 339/339 355/355
f 358/358 354/354 357/357
f 354/354 358/358 356/356
f 359/359 378/378 379/379
f 378/378 359/359 354/354
f 357/357 356/356 359/359
f 382/382 381/381 380/380
f 383/383 380/380 381/381
f 450/450 384/384 451/451
f 452/452 395/395 453/453
f 450/450 385/385 384/384
f 388/388 386/386 387/387
f 389/389 386/386 388/388
f 390/390 454/454 455/455
f 455/455 391/391 390/390
f 456/456 457/457 392/392
f 392/392 393/393 456/456
f 394/394 453/453 395/395
f 397/397 398/398 396/396
f 399/399 398/398 397/397
f 400/400 458/458 459/459
f 459/459 401/401 400/400
f 460/460 461/461 402/402
f 402/402 403/403 460/460
f 462/462 463/463 404/404
f 404/404 405/405 462/462
f 408/408 407/407 406/406
f 408/408 409/409 407/407
f 464/464 410/410 465/465
f 411/411 465/465 410/410
f 466/466 467/467 412/412
f 413/413 412/412 467/467
f 468/468 469/469 414/414
f 415/415 414/414 469/469
f 417/417 418/418 416/416
f 416/416 419/419 417/417
f 420/420 470/470 471/471
f 472/472 473/473 474/474
f 421/421 470/470 420/420
f 422/422 424/424 423/423
f 422/422 425/425 424/424
f 475/475 426/426 476/476
f 427/427 476/476 426/426
f 477/477 478/478 428/428
f 429/429 428/428 478/478
f 474/474 479/479 472/472
f 432/432 431/431 430/430
f 432/432 433/433 431/431
f 480/480 434/434 481/481
f 435/435 481/481 434/434
f 482/482 483/483 436/436
f 437/437 436/436 483/483
f 484/484 485/485 438/438
f 439/439 438/438 485/485
f 441/441 442/442 440/440
f 443/443 442/442 441/441
f 444/444 486/486 487/487
f 487/487 445/445 444/444
f 488/488 489/489 446/446
f 446/446 447/447 488/488
f 490/490 491/491 448/448
f 448/448 449/449 490/490
f 495/495 511/511 494/494
f 511/511 495/495 499/499
f 492/492 509/509 499/499
f 495/495 499/499 509/509
f 514/514 528/528 515/515
f 528/528 514/514 529/529
f 521/521 533/533 522/522
f 533/533 521/521 534/534
f 516/516 532/532 523/523
f 555/555 553/553 554/554
f 556/556 555/555 554/554
f 557/557 558/558 588/588
f 558/558 589/589 588/588
f 559/559 561/561 560/560
f 561/561 562/562 560/560
f 564/564 563/563 590/590
f 591/591 564/564 590/590
f 540/540 538/538 541/541
f 538/538 540/540 543/543
f 538/538 542/542 541/541
f 542/542 538/538 546/546
f 544/544 546/546 565/565
f 568/568 565/565 569/569
f 570/570 571/571 572/572
f 571/571 570/570 574/574
f 575/575 574/574 548/548
f 575/575 548/548 552/552
f 551/551 577/577 578/578
f 577/577 551/551 579/579
f 580/580 581/581 582/582
f 581/581 580/580 583/583
f 720/720 721/721 594/594
f 720/720 722/722 721/721
f 723/723 720/720 594/594
f 594/594 724/724 723/723
f 723/723 725/725 720/720
f 730/730 731/731 614/614
f 730/730 732/732 731/731
f 733/733 730/730 614/614
f 614/614 734/734 733/733
f 733/733 735/735 730/730
f 628/628 741/741 742/742
f 743/743 742/742 741/741
f 756/756 757/757 758/758
f 759/759 758/758 757/757
f 772/772 773/773 774/774
f 775/775 774/774 773/773
f 652/652 656/656 653/653
f 657/657 653/653 656/656
f 660/660 664/664 661/661
f 665/665 661/661 664/664
f 790/790 791/791 792/792
f 793/793 792/792 791/791
f 794/794 795/795 790/790
f 791/791 790/790 795/795
f 816/816 817/817 818/818
f 819/819 818/818 817/817
f 820/820 821/821 816/816
f 817/817 816/816 821/821
f 600/600 602/602 715/715
f 604/604 597/597 602/602
f 597/597 592/592 596/596
f 592/592 597/597 613/613
f 617/617 612/612 616/616
f 612/612 617/617 627/627
f 736/736 626/626 737/737
f 626/626 736/736 748/748
f 749/749 750/750 751/751
f 750/750 749/749 764/764
f 765/765 766/766 767/767
f 766/766 765/765 651/651
f 655/655 650/650 654/654
f 650/650 655/655 659/659
f 663/663 658/658 662/662
f 658/658 663/663 784/784
f 785/785 786/786 787/787
f 786/786 785/785 788/788
f 789/789 784/784 785/785
f 784/784 789/789 810/810
f 811/811 812/812 813/813
f 812/812 811/811 814/814
f 815/815 810/810 811/811
f 592/592 595/595 601/601
f 914/914 918/918 915/915
f 918/918 914/914 917/917
f 976/976 982/982 977/977
f 982/982 976/976 981/981
f 977/977 983/983 978/978
f 983/983 977/977 982/982
f 978/978 984/984 979/979
f 984/984 978/978 983/983
f 979/979 985/985 980/980
f 985/985 979/979 984/984
f 980/980 981/981 976/976
f 981/981 980/980 985/985
f 985/985 984/984 982/982
f 985/985 983/983 981/981
