# MOD converted: 01_farm_warehouse_lv2.mod
# 636 verts, 301 faces

v 20.718897 1212.968140 459.103485
v 6.286787 1267.601807 380.508026
v 20.718897 1208.286621 467.256958
v 63.619019 1281.103149 422.149353
v 73.214745 1247.060791 470.790070
v 63.619019 1276.421509 425.682434
v 73.214745 1242.379272 378.905365
v 39.671410 1214.425049 382.438446
v 39.671410 1209.743530 384.688812
v 55.932755 1218.789795 388.221893
v 55.932755 1214.108276 396.789612
v 68.882698 1227.922119 400.322693
v 68.882698 1223.240601 514.761108
v 5.162991 1203.873901 460.440155
v 5.162990 1275.851807 509.839203
v 6.024980 1200.159424 455.518280
v 6.024978 1272.137329 526.894165
v 62.674530 1213.030640 472.573242
v 62.674522 1285.008545 521.724243
v 63.603836 1209.128906 467.403320
v 63.603828 1281.106812 438.760071
v 20.718895 1144.912598 521.680420
v 6.196677 1200.143799 442.293152
v 20.718895 1140.231079 529.945862
v 63.619011 1213.729492 483.934509
v 73.214745 1179.005249 533.478943
v 63.619011 1209.047974 487.467590
v 73.214745 1174.323730 440.690491
v 39.671406 1146.369507 444.223602
v 39.671410 1141.687866 446.473938
v 55.932755 1150.734131 450.007050
v 55.932755 1146.052612 458.574738
v 68.882698 1159.866455 462.107849
v 68.882698 1155.184937 398.234741
v 25.160416 1104.346680 458.419708
v 15.531932 1150.159180 393.302124
v 25.160416 1110.911133 454.052979
v 15.531932 1155.970581 399.655823
v 39.123966 1105.414429 459.840790
v 29.495485 1151.227051 394.723236
v 39.123966 1111.979004 455.474091
v 29.495485 1157.038452 392.585724
v 21.973261 1235.657593 332.521942
v 31.624643 1189.690674 397.532074
v 21.973261 1229.103394 336.855377
v 31.624643 1183.948730 394.007965
v 35.936272 1236.730835 333.944183
v 45.587662 1190.764038 398.954285
v 35.936272 1230.176758 338.277588
v 45.587662 1185.021973 382.885468
v 0.156764 1212.347900 396.193146
v 0.223873 1210.660522 388.525818
v 0.156764 1204.874146 381.864990
v 20.656841 1213.255737 398.248352
v 19.197336 1210.533569 389.119019
v 20.656841 1203.643799 434.579681
v 0.084573 1159.686768 426.704803
v 0.164991 1153.743774 440.301910
v 0.084573 1152.104614 432.427032
v 0.164991 1146.161499 435.114899
v 19.232191 1161.683594 425.985565
v 20.691696 1154.793823 442.368927
v 19.232191 1152.071655 433.239594
v 20.691696 1145.181885 379.639282
v 19.958422 1207.508545 427.128601
v 19.958424 1144.583008 460.862122
v 8.170256 1268.806641 380.399261
v 25.208702 1208.082153 508.351440
v 8.170256 1205.880981 427.888580
v 25.208702 1145.156494 469.224030
v 87.374626 1218.884033 478.637146
v 72.504379 1194.359375 500.070312
v 68.351906 1218.620361 476.939148
v 68.351906 1255.191528 426.943085
v 72.504372 1242.307373 427.286316
v 72.504364 1204.856445 451.004181
v 72.504364 1179.918945 479.553192
v 15.435403 1185.850342 508.618805
v 36.495514 1219.399170 426.943085
v 15.435402 1242.307373 395.475983
v 22.482420 1197.464233 435.742737
v 22.482422 1161.338867 500.211121
v 29.965279 1235.292725 514.336975
v 44.877121 1245.953369 531.707886
v 37.006844 1259.063110 534.952942
v 14.224735 1261.512085 520.827087
v -0.687104 1250.851440 503.456146
v 7.183171 1237.741821 486.634949
v 29.965277 1253.281860 500.760834
v 44.877121 1263.942505 518.131775
v 37.006844 1277.052124 521.376770
v 14.224735 1279.501099 507.250916
v -0.687104 1268.840454 489.880005
v 7.183169 1255.730835 517.016541
v 14.514257 1244.983276 509.922485
v 15.052797 1239.629517 499.277222
v 22.244221 1231.595581 519.843018
v 14.514257 1241.238159 512.748962
v 15.052799 1235.884277 502.103699
v 22.244221 1227.850464 520.423035
v 21.439779 1247.554199 518.538330
v 29.683756 1246.131836 503.681732
v 43.718201 1234.919678 523.249512
v 21.439779 1243.808960 521.364807
v 29.683758 1242.386597 506.508209
v 43.718208 1231.174438 380.508026
v 20.718897 1208.286621 388.221893
v 55.932755 1214.108276 382.438446
v 39.671410 1209.743530 425.682434
v 73.214745 1242.379272 470.790070
v 63.619019 1276.421509 400.322693
v 68.882698 1223.240601 472.573242
v 62.674522 1285.008545 526.894165
v 62.674530 1213.030640 521.724243
v 63.603836 1209.128906 467.403320
v 63.603828 1281.106812 509.839203
v 6.024980 1200.159424 526.894165
v 62.674530 1213.030640 514.761108
v 5.162991 1203.873901 521.724243
v 63.603836 1209.128906 442.293152
v 20.718895 1140.231079 450.007050
v 55.932755 1146.052612 444.223602
v 39.671410 1141.687866 487.467590
v 73.214745 1174.323730 533.478943
v 63.619011 1209.047974 462.107849
v 68.882698 1155.184937 459.840790
v 29.495485 1151.227051 399.655823
v 39.123966 1105.414429 458.419708
v 15.531932 1150.159180 455.474091
v 29.495485 1157.038452 459.840790
v 29.495485 1151.227051 399.655823
v 39.123966 1105.414429 398.234741
v 25.160416 1104.346680 394.723236
v 39.123966 1111.979004 338.277588
v 45.587662 1185.021973 333.944183
v 45.587662 1190.764038 336.855377
v 31.624643 1183.948730 398.954285
v 35.936272 1230.176758 338.277588
v 45.587662 1185.021973 397.532074
v 21.973261 1229.103394 394.007965
v 35.936272 1236.730835 398.954285
v 35.936272 1230.176758 531.707886
v 37.006844 1259.063110 518.131775
v 37.006844 1277.052124 520.827087
v -0.687104 1250.851440 531.707886
v 37.006844 1259.063110 534.952942
v 14.224735 1261.512085 500.211121
v 29.965279 1235.292725 514.336975
v 44.877121 1245.953369 503.456146
v 7.183171 1237.741821 502.103699
v 22.244221 1227.850464 521.364807
v 29.683758 1242.386597 512.748962
v 15.052799 1235.884277 506.508209
v 43.718208 1231.174438 523.249512
v 21.439779 1243.808960 519.843018
v 14.514257 1241.238159 0.547779
v -11.094642 909.601013 695.581726
v 271.232452 913.413757 729.894836
v 271.232361 913.413818 703.383179
v -11.094642 909.601135 695.581421
v 269.624420 945.392456 648.097351
v -9.455582 947.728333 729.894043
v 269.624329 937.728638 703.381775
v -9.455582 940.685242 445.154358
v -11.094642 909.601074 397.670532
v 271.232452 913.413757 363.357239
v 271.232361 913.413879 389.868958
v -11.094642 909.601196 397.670654
v 269.624420 945.392517 445.154816
v -9.455582 947.728333 363.358093
v 269.624329 937.728699 389.870300
v -9.455582 940.685303 703.383179
v -11.094642 909.601135 729.894836
v 271.232361 913.413818 363.357239
v 271.232361 913.413879 389.868958
v -11.094642 909.601196 0.817274
v -2.820891 1118.854126 641.352539
v -0.531793 1106.738770 672.941406
v -4.387712 1112.655640 612.050781
v -4.544867 1123.920044 614.146423
v 51.570499 1139.279785 644.365601
v 50.368328 1123.700195 673.423523
v 45.520176 1131.721802 614.988342
v 52.194229 1147.425537 647.346741
v 54.655388 1152.022583 674.265442
v 46.143906 1139.867554 615.368835
v 19.986433 1125.106445 641.790588
v 27.261589 1104.096680 671.490662
v 18.560837 1119.415039 615.921692
v 15.739845 1131.621582 644.846497
v -2.688409 1092.824951 669.199097
v -0.815974 1082.914917 695.038208
v -3.970035 1091.062256 647.840271
v -4.098583 1101.681030 646.945068
v 41.802616 1109.532715 671.663757
v 40.819263 1096.788940 695.432556
v 36.853577 1103.350464 647.633789
v 42.312813 1116.195801 674.102234
v 44.325989 1119.956055 696.121216
v 37.363773 1110.013550 647.945007
v 15.967508 1097.939331 669.557434
v 21.918434 1080.753662 693.851501
v 14.801399 1096.591187 651.006592
v 12.493887 1107.980835 644.365601
v 50.368328 1123.700195 614.146423
v 51.570499 1139.279785 673.423523
v 45.520176 1131.721802 615.368835
v 19.986433 1125.106445 611.580811
v -2.820891 1118.854126 614.146423
v 51.570499 1139.279785 614.988342
v 52.194229 1147.425537 671.663757
v 40.819263 1096.788940 646.945068
v 41.802616 1109.532715 695.432556
v 36.853577 1103.350464 647.945007
v 15.967508 1097.939331 644.846497
v -2.688409 1092.824951 646.945068
v 41.802616 1109.532715 647.633789
v 42.312813 1116.195801 0.549990
v 55.585632 1113.260254 717.096619
v 58.566254 1074.247803 771.559814
v 58.562634 1043.815063 723.891907
v 59.852158 1206.503418 775.524841
v 58.578732 1178.814819 829.989685
v 58.562634 1148.384888 682.677185
v 141.922440 1110.341187 719.477783
v 135.841034 1078.283081 769.701782
v 129.062531 1050.490967 726.876099
v 141.922440 1189.442505 768.571594
v 147.533997 1166.144531 823.459473
v 129.062531 1146.699219 677.114380
v 96.701233 1108.481079 722.257019
v 96.701233 1083.256958 767.399658
v 96.701233 1058.032837 725.544617
v 96.701233 1195.154907 669.484802
v 129.062531 1106.488525 724.372681
v 147.533997 1087.043213 766.068176
v 141.922440 1063.745361 724.074341
v 129.062531 1202.220337 810.267151
v 141.922440 1142.846558 688.094727
v 50.158054 1116.424072 722.195618
v 50.168629 1082.699829 765.025879
v 50.650208 1065.561157 728.221802
v 53.702618 1193.647949 774.892822
v 53.630547 1170.739380 826.140930
v 52.690712 1146.461426 747.868347
v -1.884220 1041.490112 796.226135
v -1.884220 1090.596191 839.321472
v -1.884220 1134.492676 665.464294
v -1.884220 1135.310425 707.156799
v -1.884220 1177.648071 750.252075
v -1.884220 1221.544556 751.233337
v 50.609001 1061.635010 795.013306
v 46.878258 1091.790649 836.222839
v 42.839870 1134.109619 678.889771
v 50.609001 1132.215942 715.519714
v 54.431629 1169.412598 749.916626
v 42.839863 1218.440552 745.122253
v 17.497276 1049.247803 790.953613
v 17.497280 1095.788452 828.640381
v 17.497280 1134.192627 750.116089
v 17.497284 1210.860229 712.429321
v 17.497280 1172.455933 671.298157
v 17.497280 1130.688354 749.163208
v 39.936821 1059.411621 787.863220
v 54.431629 1098.831787 824.797058
v 52.840553 1136.471313 668.263000
v 42.258965 1135.389038 708.369629
v 46.878254 1176.453735 752.453491
v 52.840553 1207.052246 710.867371
v -1.884220 1246.901855 590.477417
v -1.884220 1297.095337 654.526489
v -1.884220 1135.463989 599.698730
v -1.884220 1158.369507 542.901672
v -1.884220 1181.995728 690.920105
v 50.609001 1242.515015 591.987915
v 42.839870 1294.362915 652.393433
v 50.609001 1149.075439 604.223267
v 54.431629 1169.199585 545.907104
v 42.839863 1182.841553 704.692444
v 17.497276 1241.461792 594.737305
v 17.497280 1287.296021 552.866699
v 17.497284 1185.852295 602.551331
v 17.497280 1165.197510 656.640808
v 17.497280 1142.600464 693.754944
v 39.936821 1241.422852 642.749939
v 54.431629 1262.639160 594.055542
v 52.840553 1282.880249 653.410217
v 42.258965 1138.031738 600.354919
v 46.878254 1159.940186 555.528870
v 52.840553 1189.440674 358.181580
v 71.427353 920.176270 325.608185
v 76.995209 917.133362 333.858765
v 76.995209 861.118713 366.432159
v 71.427353 864.161621 292.712250
v 74.677727 914.007385 300.962830
v 74.677727 857.992676 286.309052
v -5.031719 920.003662 296.407715
v -5.031719 850.972656 300.634705
v 23.198437 855.525146 291.701233
v 23.198431 916.349792 297.781921
v 60.111206 852.190491 287.988556
v 60.111217 919.071167 334.782806
v -5.031719 854.610535 334.200226
v 23.198431 858.713684 371.858154
v -5.031719 858.074036 370.776398
v 23.198431 862.130615 334.648804
v 65.993332 855.554382 370.445251
v 59.265095 859.031494 367.686646
v -5.031719 927.658752 366.022614
v 23.198425 923.345703 360.069672
v 55.882778 920.400452 0.017489
v 275.976715 1137.529175 152.695160
v 275.976715 890.446106 218.528091
v 524.477112 1131.749390 951.808899
v 275.976715 1137.529175 951.808899
v 275.976715 1374.869751 885.895203
v 525.545837 1131.749390 951.808960
v 275.976715 890.446167 152.695236
v 275.976715 1374.869751 204.416397
v 547.510559 1131.749878 433.282135
v 516.433716 1131.749878 418.513245
v 271.512665 1412.265869 135.722031
v 291.524750 1412.265991 901.659546
v 493.120667 1131.749756 973.600281
v 263.571136 1358.493652 973.600342
v 291.524750 1412.265991 904.812866
v 547.510498 1131.749756 135.543503
v 263.571136 1358.493530 418.513367
v 243.559082 1358.493530 207.657043
v 493.120667 1131.749756 418.513275
v 268.575897 857.982727 135.721863
v 288.587952 857.982666 973.600220
v 288.587952 857.982666 973.600281
v 260.634338 911.755127 135.643967
v 260.634338 911.755005 418.513397
v 240.622284 911.755127 687.918457
v 243.397720 1358.493530 687.918030
v 271.351318 1412.265991 673.097229
v 516.617432 1131.749878 687.918091
v 268.414490 857.982727 687.918457
v 240.460922 911.755188 892.929260
v -8.927090 935.762146 892.929138
v -8.927090 1341.513184 941.188049
v 300.529694 1355.920654 941.188049
v 300.529694 934.418335 211.505905
v -8.927090 1341.513062 162.420013
v 300.529694 1355.920654 162.420120
v 300.529694 934.418274 211.506073
v -8.927090 935.762085 381.147278
v 300.529510 934.418335 422.803101
v -8.927090 935.762085 712.600159
v 300.529572 934.418335 671.147949
v -8.927090 935.762146 418.513245
v 271.512665 1412.265869 135.722031
v 291.524750 1412.265991 135.543503
v 263.571136 1358.493530 204.416397
v 547.510559 1131.749878 433.282135
v 516.433716 1131.749878 901.659546
v 493.120667 1131.749756 904.812866
v 547.510498 1131.749756 418.513275
v 268.575897 857.982727 135.721863
v 288.587952 857.982666 135.643967
v 260.634338 911.755005 207.657043
v 493.120667 1131.749756 207.657043
v 493.120667 1131.749756 973.600281
v 263.571136 1358.493652 135.543503
v 263.571136 1358.493530 901.659546
v 493.120667 1131.749756 135.643967
v 260.634338 911.755005 973.600281
v 260.634338 911.755127 433.282135
v 516.433716 1131.749878 418.513245
v 271.512665 1412.265869 418.513245
v 271.512665 1412.265869 687.918030
v 271.351318 1412.265991 418.513367
v 243.559082 1358.493530 433.282135
v 516.433716 1131.749878 673.097229
v 516.617432 1131.749878 418.513275
v 268.575897 857.982727 418.513275
v 268.575897 857.982727 687.918091
v 268.414490 857.982727 418.513397
v 240.622284 911.755127 673.097229
v 516.617432 1131.749878 973.600342
v 291.524750 1412.265991 904.812866
v 547.510498 1131.749756 687.918030
v 271.351318 1412.265991 687.918030
v 271.351318 1412.265991 973.600281
v 263.571136 1358.493652 973.600342
v 291.524750 1412.265991 687.918457
v 243.397720 1358.493530 673.097229
v 516.617432 1131.749878 904.812866
v 547.510498 1131.749756 973.600220
v 288.587952 857.982666 687.918091
v 268.414490 857.982727 687.918091
v 268.414490 857.982727 973.600220
v 288.587952 857.982666 973.600281
v 260.634338 911.755127 687.918457
v 240.460922 911.755188 941.188049
v 300.529694 1355.920654 892.929138
v -8.927090 1341.513184 941.188049
v 300.529694 934.418335 892.929260
v -8.927090 935.762146 162.420120
v 300.529694 934.418274 211.505905
v -8.927090 1341.513062 162.420013
v 300.529694 1355.920654 211.506073
v -8.927090 935.762085 0.400100
v -0.000001 888.976746 628.536194
v 0.000000 838.184204 678.950989
v -0.000002 849.515137 624.209045
v 18.268961 831.539307 657.451172
v 18.818771 825.301758 686.197144
v 14.403442 844.668823 610.995422
v 14.403442 893.635315 605.030640
v 18.832075 859.250488 631.573120
v 47.019272 846.958557 657.600586
v 43.546623 841.998230 679.595276
v 40.419273 856.995422 621.114075
v 40.009495 894.928833 616.260864
v 43.280472 868.673340 650.408325
v 63.949955 885.682251 652.607849
v 62.151520 886.325562 650.549683
v 64.908134 888.646362 656.109375
v 68.352158 871.359924 669.332092
v 64.425179 868.057800 663.773499
v 56.377594 877.001099 662.152222
v 75.906952 885.004578 668.490234
v 74.389854 872.116150 667.625671
v 71.488998 862.095703 676.267334
v 57.090820 869.119629 674.332397
v 80.399101 878.671753 668.919800
v 0.000000 900.204407 673.129150
v 10.537942 906.669800 692.514893
v 13.277526 879.151917 640.262817
v 13.264221 913.359253 669.281982
v 33.410576 904.870972 683.887573
v 34.059937 882.369263 642.675720
v 33.747662 909.240662 652.753784
v 63.103497 889.284363 668.972961
v 63.709831 891.115540 676.403992
v 61.873013 878.918640 675.592285
v 71.826805 883.023254 682.978333
v 65.948387 885.674011 308.318878
v -2.260667 1148.661987 344.870758
v -2.260668 1123.415039 300.885498
v 13.418854 1147.399170 316.778473
v 14.583639 1122.874390 346.224213
v 13.418852 1115.438477 308.870728
v 37.772823 1148.271484 322.059540
v 34.843693 1129.221558 344.845795
v 35.244713 1123.562134 334.656464
v 40.313568 1183.614258 314.871826
v 38.368031 1170.957764 336.225159
v 68.325607 1156.500732 339.312958
v 66.441185 1156.170654 339.030609
v 70.218544 1157.834595 328.065643
v 68.693993 1140.737915 336.829834
v 65.016632 1133.162354 341.692932
v 59.691357 1142.144043 341.542236
v 77.755043 1143.032104 336.738983
v 72.734940 1133.537354 329.946381
v 68.917763 1129.653687 343.499390
v 59.906288 1131.497437 343.348694
v 77.969978 1132.385498 371.048920
v -2.260667 1159.305786 378.482849
v 13.418852 1160.565430 371.568970
v 14.583639 1132.170898 362.715759
v 14.583639 1185.146240 370.656830
v 37.772823 1158.755005 364.489807
v 34.843689 1136.420898 357.508453
v 38.368023 1178.192139 342.118958
v 68.325607 1157.500732 355.021149
v 68.693993 1145.311523 349.246307
v 65.016632 1135.269165 349.208374
v 72.734932 1135.653076 356.901886
v 68.917763 1134.227295 281.070953
v -2.260668 1054.574341 323.053314
v -2.260666 1096.177490 280.600128
v -2.260669 1137.083130 336.743011
v 15.022017 1096.255615 318.813019
v 18.306946 1133.030640 280.518005
v 15.022015 1151.477295 281.153107
v 15.022015 1040.180054 319.417633
v 18.306946 1059.216431 322.907318
v 65.142654 1092.437378 308.639099
v 57.598923 1119.176270 280.624664
v 58.529907 1132.783203 281.089020
v 71.788437 1051.408569 309.087280
v 66.516808 1064.443237 284.400055
v 116.760246 1086.776001 280.872620
v 114.189674 1089.336304 280.902130
v 119.342438 1084.163818 294.156921
v 116.808983 1103.066040 287.897919
v 107.727058 1114.274658 280.805695
v 102.982368 1101.062866 280.777405
v 130.501022 1106.019531 287.914429
v 121.419243 1116.741089 296.263062
v 113.914536 1119.133057 280.719513
v 97.928268 1116.164795 280.686554
v 129.973053 1121.936768 242.674026
v 18.306944 1058.778442 252.944077
v 66.516800 1064.122925 277.374756
v 116.760246 1086.735840 267.432648
v 116.808998 1102.913574 273.563293
v 107.727058 1114.192749 273.518707
v 121.419258 1116.658813 265.143280
v 113.914520 1118.955444 650.408325
v 63.949955 885.682251 652.607849
v 62.151520 886.325562 650.549683
v 64.908134 888.646362 678.950989
v -0.000002 849.515137 686.197144
v 14.403442 844.668823 618.346741
v -0.000001 888.976746 610.995422
v 14.403442 893.635315 679.595276
v 40.419273 856.995422 621.114075
v 40.009495 894.928833 652.607849
v 62.151520 886.325562 650.549683
v 64.908134 888.646362 652.753784
v 63.103497 889.284363 652.607849
v 62.151520 886.325562 663.773499
v 56.377594 877.001099 650.549683
v 64.908134 888.646362 662.152222
v 75.906952 885.004578 676.267334
v 57.090820 869.119629 674.332397
v 80.399101 878.671753 336.225159
v 68.325607 1156.500732 339.312958
v 66.441185 1156.170654 339.030609
v 70.218544 1157.834595 344.870758
v -2.260668 1123.415039 346.224213
v 13.418852 1115.438477 344.845795
v 35.244713 1123.562134 339.312958
v 66.441185 1156.170654 334.656464
v 40.313568 1183.614258 339.030609
v 70.218544 1157.834595 342.118958
v 68.325607 1157.500732 339.312958
v 66.441185 1156.170654 341.692932
v 59.691357 1142.144043 339.030609
v 70.218544 1157.834595 341.542236
v 77.755043 1143.032104 343.499390
v 59.906288 1131.497437 343.348694
v 77.969978 1132.385498 284.400055
v 116.760246 1086.776001 280.872620
v 114.189674 1089.336304 280.902130
v 119.342438 1084.163818 281.070953
v -2.260668 1054.574341 281.153107
v 15.022015 1040.180054 281.089020
v 71.788437 1051.408569 280.902130
v 119.342438 1084.163818 280.872620
v 114.189674 1089.336304 280.805695
v 102.982368 1101.062866 280.902130
v 119.342438 1084.163818 280.777405
v 130.501022 1106.019531 280.719513
v 97.928268 1116.164795 280.686554
v 129.973053 1121.936768 0.629271
v 48.223240 865.786194 356.071106
v 46.194237 831.103088 382.975647
v 60.134796 871.563782 349.385956
v 58.105793 836.880676 386.388458
v 44.751038 869.158447 352.798798
v 42.722031 834.475403 379.703339
v 56.662594 874.936035 346.113678
v 54.633591 840.252930 373.481201
v -6.477050 814.452209 378.296692
v -6.477049 818.829773 378.181702
v -2.492053 811.440918 382.534851
v -2.557889 815.518555 328.257782
v 84.458412 864.199341 333.073273
v 84.458412 868.576965 332.958313
v 88.443413 861.188049 337.311462
v 88.377563 865.265686 375.627838
v 8.061788 810.071472 409.408051
v 10.948882 843.664551 368.888306
v 19.953594 815.826538 402.668518
v 22.840689 849.419556 372.467621
v 4.588395 813.547852 406.247833
v 7.475489 847.140869 365.728088
v 16.480202 819.302856 399.508301
v 19.367296 852.895935 364.435913
v 29.191589 821.009155 400.193909
v 29.191599 853.515503 358.505157
v 41.117188 827.533203 394.263153
v 41.117199 860.039551 361.275665
v 25.718201 824.485535 397.033691
v 25.718210 856.991882 355.344910
v 37.643799 831.009521 391.102936
v 37.643810 863.515869 345.222565
v 67.727585 842.246826 380.931885
v 68.223793 874.802856 339.191864
v 79.652481 848.679871 374.901215
v 80.148697 881.235901 342.083710
v 64.254341 845.742615 377.793030
v 64.750549 878.298706 336.053009
v 76.179237 852.175659 371.762360
v 76.675453 884.731750 407.806152
v -2.871587 839.011292 403.116394
v -2.574163 834.266846 404.737732
v -6.758733 843.383667 400.111450
v -6.383269 838.553101 363.466034
v 87.825661 888.526184 358.776276
v 88.123093 883.781799 360.397583
v 83.938522 892.898621 355.771301
v 84.313980 888.068054 352.798798
v 42.722031 834.475403 386.388458
v 44.751038 869.158447 346.113678
v 54.633591 840.252930 352.798798
v 42.722031 834.475403 386.388458
v 44.751038 869.158447 379.703339
v 56.662594 874.936035 333.073273
v 84.458412 868.576965 328.257782
v 84.458412 864.199341 378.296692
v -6.477049 818.829773 333.073273
v 84.458412 868.576965 373.481201
v -6.477050 814.452209 328.257782
v 84.458412 864.199341 406.247833
v 7.475489 847.140869 372.467621
v 4.588395 813.547852 399.508301
v 19.367296 852.895935 406.247833
v 7.475489 847.140869 372.467621
v 4.588395 813.547852 365.728088
v 16.480202 819.302856 397.033691
v 25.718210 856.991882 361.275665
v 25.718201 824.485535 391.102936
v 37.643810 863.515869 397.033691
v 25.718210 856.991882 361.275665
v 25.718201 824.485535 355.344910
v 37.643799 831.009521 377.793030
v 64.750549 878.298706 342.083710
v 64.254341 845.742615 371.762360
v 76.675453 884.731750 377.793030
v 64.750549 878.298706 342.083710
v 64.254341 845.742615 336.053009
v 76.179237 852.175659 358.776276
v 88.123093 883.781799 363.466034
v 87.825661 888.526184 403.116394
v -2.574163 834.266846 358.776276
v 88.123093 883.781799 407.806152
v -2.871587 839.011292 363.466034
v 87.825661 888.526184 0.948061

vt 0.950605 1.002681
vt 0.732917 0.452221
vt 0.998217 0.997921
vt 0.950612 0.694074
vt 0.950612 0.997921
vt 0.998248 0.694077
vt 0.998248 0.505187
vt 0.950605 0.505187
vt 0.998217 0.558153
vt 0.950605 0.558153
vt 0.998217 0.611119
vt 0.950605 0.611119
vt 0.998217 0.933374
vt 0.430108 0.559495
vt 0.430148 0.559495
vt 0.661436 0.933370
vt 0.661436 0.933370
vt 0.661437 0.559495
vt 0.661437 0.933370
vt 0.711338 0.559495
vt 0.711338 0.452221
vt 0.950605 1.002681
vt 0.732917 0.452221
vt 0.998217 0.997921
vt 0.950612 0.694074
vt 0.950612 0.997921
vt 0.998248 0.694077
vt 0.998248 0.505187
vt 0.950605 0.505187
vt 0.998217 0.558153
vt 0.950605 0.558153
vt 0.998217 0.611119
vt 0.950605 0.611119
vt 0.998217 0.940288
vt 0.246120 0.558623
vt 0.246120 0.994941
vt 0.246120 0.502977
vt 0.246120 0.940288
vt 0.359973 0.558623
vt 0.359973 0.940288
vt 0.411402 0.558623
vt 0.411402 0.940289
vt 0.246120 0.558623
vt 0.246120 0.940289
vt 0.246115 0.502977
vt 0.246120 0.940288
vt 0.359973 0.558623
vt 0.359973 0.940288
vt 0.411402 0.558623
vt 0.411402 0.346079
vt 0.906279 0.346085
vt 0.906228 0.251882
vt 0.906279 0.346079
vt 0.995705 0.346080
vt 0.995737 0.251882
vt 0.995705 0.434024
vt 0.906228 0.346079
vt 0.906279 0.346085
vt 0.906228 0.251882
vt 0.906279 0.434024
vt 0.995653 0.346079
vt 0.995705 0.346080
vt 0.995737 0.251882
vt 0.995705 0.935791
vt 0.709911 0.556047
vt 0.709911 0.935792
vt 0.191963 0.935791
vt 0.655249 0.556127
vt 0.191710 0.556047
vt 0.655249 0.231382
vt 0.449124 0.137410
vt 0.374054 0.165602
vt 0.222570 0.290834
vt 0.222547 0.366736
vt 0.332537 0.290832
vt 0.222541 0.165612
vt 0.222569 0.088590
vt 0.326848 0.088083
vt 0.007460 0.468959
vt 0.265808 0.372836
vt 0.007550 0.088092
vt 0.007613 0.482298
vt 0.450963 0.482298
vt 0.552049 0.482298
vt 0.653185 0.482298
vt 0.552131 0.482298
vt 0.450975 0.482298
vt 0.350483 0.376952
vt 0.450963 0.376952
vt 0.552049 0.376952
vt 0.653185 0.376952
vt 0.552131 0.376952
vt 0.450975 0.376952
vt 0.350483 0.011751
vt 0.384103 0.011720
vt 0.276057 0.011654
vt 0.164753 0.073237
vt 0.384103 0.073228
vt 0.276043 0.073210
vt 0.164426 0.011787
vt 0.483297 0.011809
vt 0.577987 0.011831
vt 0.756611 0.073246
vt 0.483108 0.073252
vt 0.577804 0.073258
vt 0.756525 0.495318
vt 0.731338 0.531822
vt 0.861678 0.495325
vt 0.809186 0.694074
vt 0.950620 0.997922
vt 0.950620 0.581653
vt 0.916017 0.559495
vt 0.661437 0.933370
vt 0.661437 0.559495
vt 0.430148 0.933370
vt 0.430148 0.995857
vt 0.430069 0.933390
vt 0.661449 0.933390
vt 0.430084 0.996036
vt 0.661448 0.495318
vt 0.731338 0.531822
vt 0.861678 0.495325
vt 0.809186 0.694074
vt 0.950620 0.997922
vt 0.950620 0.581653
vt 0.916017 0.558623
vt 0.359964 0.940288
vt 0.359964 0.558623
vt 0.246120 0.502977
vt 0.359962 0.558623
vt 0.359962 0.940289
vt 0.359963 0.940289
vt 0.246120 0.994941
vt 0.359964 0.502977
vt 0.359962 0.558623
vt 0.359962 0.558620
vt 0.246092 0.940286
vt 0.359975 0.558630
vt 0.360054 0.994941
vt 0.246120 0.940289
vt 0.359963 0.994941
vt 0.359964 0.482298
vt 0.653237 0.376952
vt 0.653237 0.281044
vt 0.727816 0.471380
vt 0.727816 0.376212
vt 0.672871 0.376212
vt 0.892651 0.471380
vt 0.837706 0.281044
vt 0.837706 0.018156
vt 0.799931 0.178807
vt 0.909919 0.150201
vt 0.761174 0.018092
vt 0.977242 0.243952
vt 0.829645 0.215343
vt 0.761167 1.000000
vt 0.225036 0.182262
vt 0.773023 0.306717
vt 0.772981 0.306961
vt 0.224969 0.077936
vt 0.773016 0.078135
vt 0.225011 0.077936
vt 0.773016 0.078135
vt 0.225011 0.182726
vt 0.225036 0.182262
vt 0.773023 0.306717
vt 0.772981 0.306961
vt 0.224969 0.077936
vt 0.773016 0.078135
vt 0.225011 0.077936
vt 0.773016 0.078135
vt 0.225011 0.182726
vt 0.225036 0.182262
vt 0.773023 0.182262
vt 0.773023 0.182726
vt 0.225036 1.000000
vt 0.035856 0.002828
vt 0.036036 0.450062
vt 0.035856 0.510787
vt 0.117254 0.434560
vt 0.770752 0.002835
vt 0.828944 0.434623
vt 0.770752 0.495446
vt 0.844695 0.002835
vt 0.997390 0.495455
vt 0.844704 0.466736
vt 0.423736 0.005585
vt 0.407574 0.466789
vt 0.423736 0.523583
vt 0.469278 0.450010
vt 0.035856 0.002828
vt 0.036036 0.450062
vt 0.035856 0.510787
vt 0.117254 0.434560
vt 0.770752 0.002835
vt 0.828944 0.434623
vt 0.770752 0.495446
vt 0.844695 0.002835
vt 0.997390 0.495455
vt 0.844704 0.466736
vt 0.423736 0.005585
vt 0.407574 0.466789
vt 0.423736 0.523583
vt 0.469278 0.002828
vt 0.828948 0.434559
vt 0.770753 0.434623
vt 0.770753 0.466838
vt 0.423140 0.450088
vt 0.036185 0.434560
vt 0.770753 0.495446
vt 0.844695 0.002828
vt 0.828948 0.434559
vt 0.770753 0.434623
vt 0.770753 0.466838
vt 0.423140 0.450088
vt 0.036185 0.434560
vt 0.770753 0.495446
vt 0.844695 1.000000
vt 0.013242 0.482008
vt 0.013795 0.981942
vt 0.013789 0.983029
vt 0.985697 0.482004
vt 0.984655 0.981942
vt 0.984666 0.731119
vt 0.265830 0.482045
vt 0.218967 0.776440
vt 0.219019 0.731119
vt 0.740411 0.482107
vt 0.740330 0.776440
vt 0.787122 0.903876
vt 0.090508 0.481981
vt 0.090508 0.903850
vt 0.090508 0.903876
vt 0.909734 0.776460
vt 0.219019 0.482107
vt 0.265405 0.731115
vt 0.265405 0.776460
vt 0.787244 0.731115
vt 0.740330 0.993439
vt 0.002505 0.482012
vt 0.002505 0.993427
vt 0.002505 0.993439
vt 0.995687 0.482012
vt 0.995687 0.993427
vt 0.995687 0.993439
vt 0.002505 0.482012
vt 0.002505 0.993427
vt 0.002505 0.993439
vt 0.995687 0.482012
vt 0.995687 0.993427
vt 0.995687 0.731119
vt 0.265830 0.482045
vt 0.218967 0.776440
vt 0.219019 0.731119
vt 0.740411 0.482107
vt 0.740330 0.776440
vt 0.787122 0.903876
vt 0.090508 0.481981
vt 0.090508 0.903850
vt 0.090508 0.903850
vt 0.909734 0.481947
vt 0.909876 0.903876
vt 0.909734 0.776460
vt 0.219019 0.482107
vt 0.265405 0.731115
vt 0.265405 0.776460
vt 0.787244 0.482045
vt 0.787215 0.731115
vt 0.740330 0.993439
vt 0.002505 0.993427
vt 0.002505 0.993439
vt 0.995687 0.482012
vt 0.995687 0.993427
vt 0.995687 0.731119
vt 0.265830 0.776440
vt 0.219019 0.731119
vt 0.740411 0.482107
vt 0.740330 0.776440
vt 0.787122 0.903876
vt 0.090508 0.903850
vt 0.090508 0.903850
vt 0.909734 0.481947
vt 0.909876 0.903876
vt 0.909734 0.776460
vt 0.219019 0.482107
vt 0.265405 0.731115
vt 0.265405 0.776460
vt 0.787244 0.482045
vt 0.787215 0.731115
vt 0.740330 0.731119
vt 0.265830 0.482107
vt 0.265405 0.482107
vt 0.740330 0.731119
vt 0.740411 0.731115
vt 0.265405 0.731115
vt 0.740330 0.993427
vt 0.002505 0.993427
vt 0.995687 0.903850
vt 0.909734 0.903850
vt 0.090508 0.776440
vt 0.787122 0.776440
vt 0.219019 0.482012
vt 0.995687 0.481947
vt 0.909876 0.993439
vt 0.995687 0.903876
vt 0.909734 0.482045
vt 0.787215 0.776460
vt 0.787244 0.993439
vt 0.002505 0.903876
vt 0.090508 0.776460
vt 0.219019 1.000000
vt 0.437945 0.400747
vt 0.437945 0.599900
vt 0.974893 0.599901
vt 0.437942 0.400714
vt 0.437942 0.599901
vt 0.974897 0.400807
vt 0.437942 0.400484
vt 0.437945 0.285536
vt 0.969300 0.058943
vt 0.969180 0.058943
vt 0.284076 0.285538
vt 0.284076 0.327991
vt 0.969303 0.327990
vt 0.284070 0.285515
vt 0.284076 0.285514
vt 0.969300 0.012324
vt 0.971014 0.012323
vt 0.286512 0.327997
vt 0.969299 0.058943
vt 0.284076 0.285538
vt 0.284076 0.285515
vt 0.284076 0.327990
vt 0.284070 0.012324
vt 0.971014 0.012323
vt 0.286512 0.012322
vt 0.970575 0.289832
vt 0.284076 0.289831
vt 0.969300 0.289832
vt 0.284076 0.012322
vt 0.970575 0.997513
vt 0.235009 0.622010
vt 0.235009 0.622010
vt 0.593136 0.997512
vt 0.593136 0.621577
vt 0.235764 0.621577
vt 0.593376 0.622138
vt 0.976212 0.622138
vt 0.618605 0.787741
vt 0.976212 0.787905
vt 0.618605 0.787728
vt 0.976212 0.787852
vt 0.618605 0.043988
vt 0.285905 0.043989
vt 0.971013 0.327997
vt 0.284073 0.285536
vt 0.969300 0.058943
vt 0.969180 0.327991
vt 0.969303 0.285514
vt 0.969300 0.043988
vt 0.285905 0.043989
vt 0.971013 0.327997
vt 0.284073 0.327997
vt 0.969299 0.298219
vt 0.889243 0.056561
vt 0.352153 0.298397
vt 0.352153 0.056713
vt 0.889243 0.298397
vt 0.352153 0.056561
vt 0.352153 0.058951
vt 0.969180 0.058951
vt 0.284076 0.043988
vt 0.285905 0.043987
vt 0.970575 0.012323
vt 0.286512 0.058951
vt 0.969180 0.289831
vt 0.969300 0.058951
vt 0.284076 0.043988
vt 0.285905 0.043987
vt 0.970575 0.012323
vt 0.286512 0.058951
vt 0.969180 0.285515
vt 0.284076 0.285514
vt 0.969300 0.058951
vt 0.284076 0.043988
vt 0.285905 0.012322
vt 0.970575 0.043987
vt 0.970575 0.012323
vt 0.286512 0.058951
vt 0.969180 0.285514
vt 0.969300 0.285515
vt 0.284076 0.058951
vt 0.284076 0.043988
vt 0.285905 0.043987
vt 0.970575 0.012322
vt 0.970575 0.012323
vt 0.286512 0.997513
vt 0.593376 0.997513
vt 0.235764 0.621577
vt 0.976212 0.621577
vt 0.618605 0.622010
vt 0.593025 0.997513
vt 0.234883 0.997512
vt 0.593025 0.622010
vt 0.234883 1.000000
vt 0.392858 0.017762
vt 0.382472 0.370729
vt 0.392858 0.017762
vt 0.483323 0.204026
vt 0.497863 0.403768
vt 0.537329 0.403768
vt 0.537329 0.204026
vt 0.497863 0.017762
vt 0.754753 0.157088
vt 0.777601 0.308619
vt 0.823298 0.308619
vt 0.823298 0.157088
vt 0.777601 0.017762
vt 0.976242 0.082084
vt 0.976317 0.082084
vt 0.976317 0.356015
vt 0.821993 0.449787
vt 0.891291 0.535439
vt 0.827028 0.535439
vt 0.827028 0.449787
vt 0.891291 0.356015
vt 0.909051 0.535439
vt 0.910649 0.535439
vt 0.910649 0.017762
vt 0.382472 0.017762
vt 0.483323 0.204026
vt 0.497863 0.204026
vt 0.497863 0.017762
vt 0.754753 0.157088
vt 0.777601 0.157088
vt 0.777601 0.017762
vt 0.976242 0.356015
vt 0.821993 0.449787
vt 0.891291 0.449787
vt 0.891291 0.356015
vt 0.909051 0.017762
vt 0.382472 0.370729
vt 0.392858 0.017762
vt 0.483323 0.204026
vt 0.497863 0.403768
vt 0.537329 0.017762
vt 0.754753 0.157088
vt 0.777601 0.308619
vt 0.823298 0.308619
vt 0.823298 0.157088
vt 0.777601 0.017762
vt 0.976242 0.082084
vt 0.976317 0.082084
vt 0.976317 0.356015
vt 0.821993 0.449787
vt 0.891291 0.535439
vt 0.827028 0.535439
vt 0.827028 0.449787
vt 0.891291 0.356015
vt 0.909051 0.535439
vt 0.910649 0.535439
vt 0.910649 0.017762
vt 0.382472 0.017762
vt 0.483323 0.204026
vt 0.497863 0.204026
vt 0.497863 0.017762
vt 0.754753 0.157088
vt 0.777601 0.157088
vt 0.777601 0.017762
vt 0.976242 0.356015
vt 0.821993 0.449787
vt 0.891291 0.449787
vt 0.891291 0.356015
vt 0.909051 0.370729
vt 0.392858 0.017762
vt 0.382472 0.370729
vt 0.392858 0.017762
vt 0.483323 0.204026
vt 0.497863 0.403768
vt 0.537329 0.403768
vt 0.537329 0.204026
vt 0.497863 0.017762
vt 0.754753 0.157088
vt 0.777601 0.308619
vt 0.823298 0.308619
vt 0.823298 0.157088
vt 0.777601 0.017762
vt 0.976242 0.082084
vt 0.976317 0.082084
vt 0.976317 0.356015
vt 0.821993 0.449787
vt 0.891291 0.535439
vt 0.827028 0.535439
vt 0.827028 0.449787
vt 0.891291 0.356015
vt 0.909051 0.535439
vt 0.910649 0.535439
vt 0.910649 0.204026
vt 0.497863 0.157088
vt 0.777601 0.356015
vt 0.750235 0.356015
vt 0.821993 0.449787
vt 0.891291 0.449787
vt 0.891291 0.356015
vt 0.909051 0.356015
vt 0.750235 0.420336
vt 0.750323 0.420336
vt 0.750323 0.370729
vt 0.392858 0.403768
vt 0.537329 0.370729
vt 0.392858 0.403768
vt 0.537329 0.308619
vt 0.823298 0.308619
vt 0.823298 0.082084
vt 0.976317 0.082084
vt 0.976317 0.356015
vt 0.750235 0.420336
vt 0.750323 0.535439
vt 0.827028 0.420336
vt 0.750323 0.535439
vt 0.827028 0.535439
vt 0.910649 0.535439
vt 0.910649 0.356015
vt 0.750235 0.420336
vt 0.750323 0.420336
vt 0.750323 0.370729
vt 0.392858 0.403768
vt 0.537329 0.308619
vt 0.823298 0.082084
vt 0.976317 0.308619
vt 0.823298 0.082084
vt 0.976317 0.356015
vt 0.750235 0.420336
vt 0.750323 0.535439
vt 0.827028 0.420336
vt 0.750323 0.535439
vt 0.827028 0.535439
vt 0.910649 0.535439
vt 0.910649 0.356015
vt 0.750235 0.420336
vt 0.750323 0.420336
vt 0.750323 0.370729
vt 0.392858 0.403768
vt 0.537329 0.308619
vt 0.823298 0.082084
vt 0.976317 0.420336
vt 0.750323 0.535439
vt 0.827028 0.420336
vt 0.750323 0.535439
vt 0.827028 0.535439
vt 0.910649 0.535439
vt 0.910649 1.000000
vt 0.067971 0.301026
vt 0.067971 0.051939
vt 0.210024 0.301026
vt 0.210024 0.051967
vt 0.372806 0.301079
vt 0.372806 0.051958
vt 0.268002 0.301062
vt 0.268002 0.345461
vt 0.332473 0.417993
vt 0.332473 0.345477
vt 0.332455 0.418003
vt 0.332455 0.345471
vt 0.996171 0.418002
vt 0.996171 0.345471
vt 0.958388 0.418002
vt 0.958388 0.051939
vt 0.067971 0.301026
vt 0.067971 0.051939
vt 0.210024 0.301026
vt 0.210024 0.051967
vt 0.372806 0.301079
vt 0.372806 0.051958
vt 0.268002 0.301062
vt 0.268002 0.051939
vt 0.067971 0.301026
vt 0.067971 0.051939
vt 0.210024 0.301026
vt 0.210024 0.051967
vt 0.372806 0.301079
vt 0.372806 0.051958
vt 0.268002 0.301062
vt 0.268002 0.051939
vt 0.067971 0.301026
vt 0.067971 0.051939
vt 0.210024 0.301026
vt 0.210024 0.051967
vt 0.372806 0.301079
vt 0.372806 0.051958
vt 0.268002 0.301062
vt 0.268002 0.345461
vt 0.332473 0.417993
vt 0.332473 0.345477
vt 0.332455 0.418003
vt 0.332455 0.345471
vt 0.996171 0.418002
vt 0.996171 0.345471
vt 0.958388 0.418002
vt 0.958388 0.301009
vt 0.004920 0.051930
vt 0.004920 0.363437
vt 0.209781 0.363497
vt 0.069180 0.000484
vt 0.067983 0.000376
vt 0.210010 0.417993
vt 0.958390 0.345461
vt 0.958390 0.458149
vt 0.332465 0.458149
vt 0.958382 0.305970
vt 0.332455 0.305970
vt 0.958390 0.301009
vt 0.004920 0.051930
vt 0.004920 0.363437
vt 0.209781 0.363497
vt 0.069180 0.000484
vt 0.067983 0.000376
vt 0.210010 0.301009
vt 0.004920 0.051930
vt 0.004920 0.363437
vt 0.209781 0.363497
vt 0.069180 0.000484
vt 0.067983 0.000376
vt 0.210010 0.301009
vt 0.004920 0.051930
vt 0.004920 0.363437
vt 0.209781 0.363497
vt 0.069180 0.000484
vt 0.067983 0.000376
vt 0.210010 0.417993
vt 0.958390 0.345461
vt 0.958390 0.458149
vt 0.332465 0.458149
vt 0.958382 0.305970
vt 0.332455 0.305970
vt 0.958390 1.000000

f 2/2 107/107 108/108
f 107/107 109/109 108/108
f 2/2 108/108 110/110
f 110/110 111/111 2/2
f 108/108 112/112 110/110
f 17/17 115/115 16/16
f 115/115 17/17 116/116
f 23/23 121/121 122/122
f 121/121 123/123 122/122
f 23/23 122/122 124/124
f 124/124 125/125 23/23
f 122/122 126/126 124/124
f 137/137 138/138 45/45
f 138/138 137/137 139/139
f 53/53 55/55 52/52
f 55/55 53/53 56/56
f 60/60 63/63 59/59
f 63/63 60/60 64/64
f 151/151 152/152 153/153
f 152/152 151/151 154/154
f 153/153 155/155 156/156
f 155/155 153/153 152/152
f 14/14 114/114 35/35
f 3/3 9/9 1/1
f 157/157 161/161 158/158
f 161/161 157/157 162/162
f 163/163 173/173 174/174
f 173/173 163/163 164/164
f 165/165 166/166 169/169
f 169/169 170/170 165/165
f 171/171 175/175 176/176
f 176/176 172/172 171/171
f 160/160 157/157 166/166
f 177/177 188/188 178/178
f 188/188 177/177 187/187
f 178/178 189/189 179/179
f 189/189 178/178 188/188
f 187/187 205/205 188/188
f 205/205 187/187 206/206
f 188/188 207/207 189/189
f 207/207 188/188 205/205
f 191/191 202/202 192/192
f 202/202 191/191 201/201
f 192/192 203/203 193/193
f 203/203 192/192 202/202
f 201/201 212/212 202/202
f 212/212 201/201 213/213
f 202/202 214/214 203/203
f 214/214 202/202 212/212
f 190/190 211/211 194/194
f 223/223 243/243 244/244
f 243/243 223/223 222/222
f 224/224 244/244 245/245
f 244/244 224/224 223/223
f 251/251 262/262 250/250
f 262/262 251/251 261/261
f 250/250 263/263 249/249
f 263/263 250/250 262/262
f 261/261 268/268 262/262
f 268/268 261/261 257/257
f 262/262 267/267 263/263
f 267/267 262/262 268/268
f 274/274 283/283 273/273
f 283/283 274/274 282/282
f 273/273 284/284 272/272
f 284/284 273/273 283/283
f 282/282 289/289 283/283
f 289/289 282/282 279/279
f 283/283 288/288 284/284
f 288/288 283/283 289/289
f 298/298 304/304 303/303
f 304/304 298/298 299/299
f 303/303 306/306 305/305
f 306/306 303/303 304/304
f 299/299 307/307 304/304
f 307/307 299/299 301/301
f 304/304 308/308 306/306
f 308/308 304/304 307/307
f 219/219 231/231 220/220
f 220/220 232/232 231/231
f 231/231 235/235 232/232
f 232/232 226/226 219/219
f 220/220 221/221 246/246
f 246/246 258/258 247/247
f 247/247 259/259 258/258
f 258/258 264/264 259/259
f 219/219 221/221 245/245
f 242/242 245/245 221/221
f 320/320 322/322 321/321
f 322/322 320/320 323/323
f 324/324 326/326 325/325
f 326/326 324/324 327/327
f 354/354 355/355 328/328
f 328/328 329/329 354/354
f 356/356 320/320 330/330
f 320/320 356/356 323/323
f 357/357 358/358 331/331
f 331/331 332/332 357/357
f 359/359 334/334 333/333
f 333/333 360/360 359/359
f 361/361 335/335 362/362
f 335/335 361/361 336/336
f 363/363 364/364 357/357
f 357/357 332/332 363/363
f 365/365 366/366 367/367
f 366/366 365/365 368/368
f 369/369 368/368 365/365
f 368/368 369/369 370/370
f 371/371 338/338 339/339
f 338/338 371/371 372/372
f 373/373 337/337 374/374
f 375/375 337/337 373/373
f 376/376 377/377 340/340
f 340/340 378/378 376/376
f 379/379 380/380 341/341
f 381/381 379/379 341/341
f 382/382 383/383 384/384
f 383/383 382/382 385/385
f 386/386 387/387 388/388
f 389/389 387/387 386/386
f 390/390 391/391 392/392
f 392/392 393/393 390/390
f 394/394 395/395 396/396
f 397/397 394/394 396/396
f 342/342 344/344 343/343
f 344/344 342/342 345/345
f 314/314 313/313 319/319
f 314/314 312/312 398/398
f 312/312 315/315 317/317
f 407/407 410/410 408/408
f 409/409 410/410 407/407
f 408/408 410/410 411/411
f 406/406 412/412 413/413
f 406/406 413/413 407/407
f 413/413 409/409 407/407
f 409/409 414/414 415/415
f 409/409 415/415 410/410
f 410/410 415/415 416/416
f 410/410 416/416 411/411
f 412/412 417/417 418/418
f 412/412 418/418 413/413
f 413/413 418/418 414/414
f 413/413 414/414 409/409
f 414/414 419/419 420/420
f 414/414 420/420 415/415
f 415/415 420/420 416/416
f 417/417 421/421 418/418
f 418/418 421/421 419/419
f 418/418 419/419 414/414
f 506/506 422/422 423/423
f 506/506 423/423 507/507
f 507/507 423/423 424/424
f 508/508 425/425 426/426
f 508/508 426/426 422/422
f 508/508 422/422 506/506
f 422/422 427/427 423/423
f 423/423 428/428 424/424
f 425/425 429/429 426/426
f 426/426 427/427 422/422
f 430/430 509/509 432/432
f 431/431 430/430 432/432
f 509/509 510/510 432/432
f 511/511 433/433 512/512
f 511/511 430/430 433/433
f 433/433 430/430 431/431
f 431/431 435/435 434/434
f 431/431 432/432 435/435
f 432/432 513/513 435/435
f 432/432 510/510 513/513
f 512/512 436/436 514/514
f 512/512 433/433 436/436
f 433/433 434/434 436/436
f 433/433 431/431 434/434
f 434/434 515/515 437/437
f 434/434 435/435 515/515
f 435/435 513/513 515/515
f 514/514 436/436 516/516
f 436/436 437/437 516/516
f 436/436 434/434 437/437
f 517/517 439/439 438/438
f 517/517 518/518 439/439
f 518/518 519/519 439/439
f 520/520 440/440 521/521
f 520/520 438/438 440/440
f 520/520 517/517 438/438
f 438/438 439/439 441/441
f 439/439 519/519 522/522
f 521/521 440/440 523/523
f 440/440 438/438 441/441
f 442/442 445/445 443/443
f 444/444 445/445 442/442
f 443/443 445/445 446/446
f 444/444 447/447 448/448
f 444/444 448/448 445/445
f 445/445 448/448 449/449
f 445/445 449/449 446/446
f 447/447 452/452 453/453
f 447/447 453/453 448/448
f 448/448 453/453 449/449
f 450/450 454/454 451/451
f 451/451 454/454 452/452
f 451/451 452/452 447/447
f 524/524 455/455 456/456
f 524/524 456/456 525/525
f 525/525 456/456 457/457
f 526/526 458/458 459/459
f 526/526 459/459 455/455
f 526/526 455/455 524/524
f 455/455 460/460 456/456
f 456/456 461/461 457/457
f 458/458 462/462 459/459
f 459/459 460/460 455/455
f 463/463 527/527 465/465
f 464/464 463/463 465/465
f 527/527 528/528 465/465
f 466/466 463/463 464/464
f 464/464 468/468 467/467
f 464/464 465/465 468/468
f 465/465 529/529 468/468
f 465/465 528/528 529/529
f 466/466 467/467 469/469
f 466/466 464/464 467/467
f 467/467 530/530 470/470
f 467/467 468/468 530/530
f 468/468 529/529 530/530
f 531/531 469/469 532/532
f 469/469 470/470 532/532
f 469/469 467/467 470/470
f 533/533 472/472 471/471
f 533/533 534/534 472/472
f 534/534 535/535 472/472
f 536/536 473/473 537/537
f 536/536 471/471 473/473
f 536/536 533/533 471/471
f 471/471 472/472 474/474
f 472/472 535/535 538/538
f 537/537 473/473 539/539
f 473/473 471/471 474/474
f 476/476 479/479 477/477
f 478/478 479/479 476/476
f 477/477 479/479 480/480
f 475/475 481/481 482/482
f 475/475 482/482 476/476
f 482/482 478/478 476/476
f 478/478 483/483 484/484
f 478/478 484/484 479/479
f 479/479 484/484 485/485
f 479/479 485/485 480/480
f 481/481 486/486 487/487
f 481/481 487/487 482/482
f 482/482 487/487 483/483
f 482/482 483/483 478/478
f 483/483 488/488 489/489
f 483/483 489/489 484/484
f 484/484 489/489 485/485
f 486/486 490/490 487/487
f 487/487 490/490 488/488
f 487/487 488/488 483/483
f 540/540 491/491 492/492
f 540/540 492/492 541/541
f 541/541 492/492 493/493
f 542/542 494/494 495/495
f 542/542 495/495 491/491
f 542/542 491/491 540/540
f 491/491 496/496 492/492
f 492/492 497/497 493/493
f 494/494 498/498 495/495
f 495/495 496/496 491/491
f 543/543 499/499 544/544
f 544/544 500/500 545/545
f 544/544 499/499 500/500
f 545/545 500/500 546/546
f 501/501 503/503 502/502
f 501/501 547/547 503/503
f 547/547 548/548 503/503
f 549/549 504/504 550/550
f 549/549 502/502 504/504
f 549/549 501/501 502/502
f 502/502 503/503 505/505
f 503/503 548/548 551/551
f 550/550 504/504 552/552
f 504/504 502/502 505/505
f 556/556 559/559 555/555
f 559/559 556/556 560/560
f 564/564 563/563 567/567
f 567/567 568/568 564/564
f 572/572 571/571 575/575
f 575/575 576/576 572/572
f 580/580 579/579 583/583
f 583/583 584/584 580/580
f 588/588 587/587 591/591
f 591/591 592/592 588/588
f 596/596 595/595 599/599
f 599/599 600/600 596/596
f 553/553 602/602 561/561
f 608/608 561/561 569/569
f 614/614 569/569 577/577
f 620/620 577/577 585/585
f 626/626 585/585 593/593
f 553/553 554/554 603/603
f 556/556 603/603 554/554
