# MOD converted: 01_jakmul02_lv1.mod
# 20 verts, 12 faces

v 3.990508 2.750038 0.945818
v 3.990501 0.442800 6.491515
v 3.990500 3.680116 -3.313997
v 19.679871 7.008883 -1.255760
v 17.271650 6.079931 2.451324
v 19.679871 8.072742 0.335983
v -1.697998 -3.312536 1.654071
v 6.961112 2.495917 -1.437951
v -1.704522 -4.106861 -1.343944
v 7.475276 2.433123 0.000000
v -0.282452 2.217383 0.490412
v -0.282466 -3.944941 1.065785
v -0.282466 -9.402502 9.787821
v 11.478956 -0.013777 7.240123
v 9.070736 -2.472649 8.270391
v 11.478956 -6.553374 0.441134
v -1.697998 -3.940865 3.306529
v 1.996036 -4.422933 -1.497815
v -1.704522 -3.805692 2.156169
v 2.510207 -1.450040 0.000000

vt 0.107051 0.500000
vt 0.107051 0.000000
vt 0.107051 1.000000
vt 0.499815 0.500000
vt 0.499815 0.000000
vt 0.499815 1.000000
vt 0.000000 0.000000
vt 0.000000 1.000000
vt 0.099299 0.000000
vt 0.099299 1.000000
vt 0.107051 0.500000
vt 0.107051 0.000000
vt 0.107051 1.000000
vt 0.499815 0.500000
vt 0.499815 0.000000
vt 0.499815 1.000000
vt 0.000000 0.000000
vt 0.000000 1.000000
vt 0.099299 0.000000
vt 0.099299 1.000000

f 1/1 5/5 2/2
f 5/5 1/1 4/4
f 2/2 6/6 3/3
f 6/6 2/2 5/5
f 7/7 10/10 8/8
f 10/10 7/7 9/9
f 11/11 15/15 12/12
f 15/15 11/11 14/14
f 12/12 16/16 13/13
f 16/16 12/12 15/15
f 17/17 20/20 18/18
f 20/20 17/17 19/19
