# MOD converted: ca_etc_e0_114_n.mod
# 16 verts, 8 faces

v 0.453968 -56.418747 106.842171
v 0.453968 0.000005 106.842171
v 0.453968 56.418758 0.000002
v 0.453968 -56.418755 0.000000
v 0.453968 0.000000 -0.000002
v 0.453968 56.418751 -106.842171
v 0.453968 -56.418758 -106.842171
v 0.453968 -0.000005 -106.842171
v 0.453968 56.418747 106.842171
v 0.453968 0.000005 0.000000
v 0.453968 0.000000 0.000002
v 0.453968 -56.418755 0.000000
v 0.453968 0.000000 0.000000
v 0.453968 0.000000 -0.000002
v 0.453968 56.418751 -106.842171
v 0.453968 -0.000005 0.000331

vt 0.989586 0.999669
vt 0.007804 0.999669
vt 0.989586 0.004607
vt 0.989586 0.004607
vt 0.007804 0.004607
vt 0.989586 0.999669
vt 0.989586 0.999669
vt 0.007804 0.999669
vt 0.989586 0.999669
vt 0.007804 0.004607
vt 0.007804 0.004607
vt 0.989586 0.004607
vt 0.007804 0.004607
vt 0.007804 0.004607
vt 0.989586 0.999669
vt 0.007804 1.000000

f 1/1 5/5 2/2
f 5/5 1/1 4/4
f 10/10 6/6 3/3
f 6/6 10/10 11/11
f 12/12 8/8 13/13
f 8/8 12/12 7/7
f 14/14 9/9 15/15
f 9/9 14/14 16/16
