# MOD converted: do_door_b0_101_d.mod
# 60 verts, 6 faces

v -0.000008 -0.099884 81.624474
v 0.000000 -10.842201 81.624474
v 194.400238 -10.842201 81.624481
v 194.400269 -0.099884 52.622559
v 242.237732 -10.842202 52.622559
v 242.237732 -0.099885 0.000000
v 254.162506 -10.842205 63.756439
v 0.000000 -10.842202 63.756439
v 175.794434 -10.842202 42.758270
v 213.201324 -10.842203 63.756439
v -0.000008 -0.100109 63.756439
v 175.794434 -0.100110 42.758270
v 213.201324 -0.100110 -0.000000
v 0.000000 -2.805615 66.682213
v 0.000000 -2.805612 66.682213
v 182.787506 -2.805612 44.482403
v 221.760406 -2.805613 0.000000
v 223.389374 -10.842205 -0.000000
v 232.224487 -2.805614 -81.624466
v -0.000008 -0.099891 -81.624474
v 0.000000 -10.842208 -81.624474
v 194.400238 -10.842208 -81.624466
v 194.400269 -0.099891 -52.622559
v 242.237732 -10.842207 -52.622559
v 242.237732 -0.099890 -63.756439
v 0.000000 -10.842207 -63.756439
v 175.794434 -10.842207 -42.758270
v 213.201324 -10.842206 -63.756439
v -0.000008 -0.100115 -63.756439
v 175.794434 -0.100115 -42.758270
v 213.201324 -0.100114 -66.682213
v 0.000000 -2.805618 -66.682213
v 182.787506 -2.805617 -44.482403
v 221.760406 -2.805616 0.000002
v 254.162537 -0.099888 0.000002
v 223.389374 -0.100112 81.624474
v 0.000000 -10.842201 81.624474
v 194.400238 -10.842201 52.622559
v 242.237732 -10.842202 0.000000
v 254.162506 -10.842205 63.756439
v 0.000000 -10.842202 63.756439
v 175.794434 -10.842202 42.758270
v 213.201324 -10.842203 0.000000
v 223.389374 -10.842205 63.756439
v -0.000008 -0.100109 81.624474
v 0.000000 -10.842201 81.624481
v -0.000008 -0.099884 63.756439
v 0.000000 -10.842202 -81.624474
v 0.000000 -10.842208 -81.624474
v 194.400238 -10.842208 -52.622559
v 242.237732 -10.842207 -63.756439
v 0.000000 -10.842207 -63.756439
v 175.794434 -10.842207 -42.758270
v 213.201324 -10.842206 -63.756439
v -0.000008 -0.100115 -81.624474
v 0.000000 -10.842208 -63.756439
v 0.000000 -10.842207 -81.624466
v -0.000008 -0.099891 -0.000000
v 0.000000 -2.805615 -0.000000
v 232.224487 -2.805614 0.246835

vt 0.023137 0.821083
vt 0.023136 0.821087
vt 0.639983 0.753169
vt 0.639983 0.821080
vt 0.817112 0.753163
vt 0.817112 0.821079
vt 0.987954 0.169840
vt 0.013798 0.167403
vt 0.683702 0.331559
vt 0.826056 0.953015
vt 0.023463 0.952984
vt 0.647542 0.952971
vt 0.799470 0.702412
vt 0.019204 0.226492
vt 0.019079 0.221650
vt 0.658188 0.380089
vt 0.794509 0.666738
vt 0.865084 0.702412
vt 0.831604 0.753165
vt 0.023137 0.821083
vt 0.023136 0.821087
vt 0.639983 0.753169
vt 0.639983 0.821080
vt 0.817112 0.753163
vt 0.817112 0.169840
vt 0.013798 0.167403
vt 0.683702 0.331559
vt 0.826056 0.953015
vt 0.023463 0.952984
vt 0.647542 0.952971
vt 0.799470 0.226492
vt 0.019079 0.221650
vt 0.658188 0.380089
vt 0.794509 0.753161
vt 0.987954 0.952962
vt 0.955143 0.029712
vt 0.013679 0.027017
vt 0.754315 0.253791
vt 0.936376 0.666301
vt 0.982073 0.877048
vt 0.023463 0.877016
vt 0.647541 0.877003
vt 0.799468 0.876995
vt 0.955142 0.111631
vt 0.993090 0.000160
vt 0.900000 0.111631
vt 0.900099 -0.000163
vt 0.992991 0.029712
vt 0.013679 0.027017
vt 0.754315 0.253791
vt 0.936376 0.877048
vt 0.023463 0.877016
vt 0.647541 0.877003
vt 0.799468 0.111631
vt 0.993090 0.000160
vt 0.900000 -0.000163
vt 0.992991 0.111631
vt 0.900099 0.702412
vt 0.019204 0.702412
vt 0.831604 1.000000

f 2/2 4/4 1/1
f 4/4 2/2 3/3
f 21/21 23/23 22/22
f 23/23 21/21 20/20
f 45/45 48/48 55/55
f 1/1 37/37 9/9
