# MOD converted: fu_closet_e0_103_n.mod
# 245 verts, 163 faces

v 31.512297 53.193047 0.231032
v 31.512285 -50.010212 64.377342
v 0.066805 53.185928 59.063251
v 11.286124 -50.010853 59.063251
v 11.286148 53.186119 -91.174065
v -0.001425 53.118561 -4.735374
v 7.525684 -50.010262 -26.375032
v 14.313267 -50.010475 -31.876842
v 9.650879 -50.010544 -48.574978
v 13.950243 -50.010757 -42.389137
v 7.687435 -50.010639 42.984474
v 7.687441 -50.010712 32.472179
v 9.650888 -50.010616 26.970371
v 14.313275 -50.010544 5.330713
v 7.525690 -50.010330 0.297670
v 12.505183 -50.010166 91.572197
v -0.001443 -50.026470 -63.820980
v 0.066811 53.186024 -26.375032
v 14.313293 53.186501 -31.876842
v 9.650906 53.186428 -42.389137
v 7.687452 53.186333 -58.506943
v 11.286151 53.186192 32.472179
v 9.650915 53.186356 5.330713
v 7.525708 53.186642 64.338287
v 0.066799 30.611151 91.700775
v 0.025841 30.481703 64.377289
v 0.066793 -50.011044 64.338234
v 9.336811 20.060654 64.338234
v 9.336799 -17.248152 64.338287
v 0.066787 -27.492838 91.700775
v 0.025829 -27.461823 91.701035
v 9.260494 -17.131874 91.701035
v 9.260507 20.151754 -91.183472
v 0.025835 -27.461752 -91.183723
v 9.260501 -17.131826 -91.165016
v -0.001443 -50.031452 -91.183472
v 0.025853 30.481750 -91.183723
v 9.260518 20.151802 92.444107
v 231.676849 -53.836014 92.444160
v 231.676880 57.030758 109.115219
v 229.969788 57.030758 109.241173
v 236.055374 57.030758 109.241119
v 236.055328 -53.835987 109.115166
v 229.969742 -53.835987 104.176575
v 238.397720 -53.835987 104.176620
v 238.397736 57.030758 92.444160
v 219.970291 -53.835987 92.444214
v 219.970322 57.030785 0.005680
v 231.676849 -53.836014 0.005680
v 231.676880 57.030785 0.005680
v 219.970291 -53.836014 0.005680
v 219.970322 57.030785 -92.432777
v 231.676849 -53.835987 -92.432777
v 231.676880 57.030785 -92.432777
v 219.970291 -53.835987 -109.103775
v 229.969803 57.030785 -109.229729
v 236.055389 57.030785 -109.229729
v 236.055328 -53.835987 -109.103775
v 229.969742 -53.835987 -92.432777
v 219.970322 57.030758 -104.165184
v 238.397720 -53.835987 -104.165184
v 238.397751 57.030785 -58.506943
v 11.286124 -50.010784 -63.820980
v 0.066793 -50.010948 49.170319
v 13.950252 -50.010853 91.572250
v -0.001431 53.123566 0.297670
v 12.505210 53.186806 -4.735374
v 7.525702 53.186710 -48.574978
v 13.950270 53.186214 49.170319
v 13.950278 53.186119 42.984474
v 7.687459 53.186260 26.970371
v 14.313302 53.186428 -63.820980
v 0.066793 -27.492767 -63.820927
v 9.336804 -17.248104 -63.820927
v 9.336823 20.060726 -63.820980
v 0.066811 30.611198 -91.218338
v 31.520191 53.136524 -91.117371
v 31.514177 -50.015812 91.605858
v 31.518066 53.135052 -86.065453
v 35.856510 -44.485882 -85.984413
v 220.739914 -44.552574 -85.984413
v 220.739929 47.632137 85.773933
v 220.739914 -44.552551 85.769821
v 35.856510 -44.485905 85.773979
v 220.739929 47.632160 0.262725
v 35.912201 47.642471 -86.013756
v 35.893646 47.617390 85.718277
v 35.893646 47.617340 -0.421461
v 220.739914 47.632149 91.576103
v 31.513546 -50.014366 0.297670
v 12.505183 -50.010166 0.231032
v 31.512285 -50.010212 0.297670
v 12.505210 53.186806 0.231032
v 31.512297 53.193047 64.377342
v 0.066805 53.185928 91.572250
v -0.001431 53.123566 59.063251
v 11.286148 53.186119 64.338287
v 0.066799 30.611151 64.377342
v 0.066805 53.185928 59.063251
v 11.286124 -50.010853 64.377289
v 0.066793 -50.011044 91.572197
v -0.001443 -50.026470 64.338287
v 0.066787 -27.492838 64.377289
v 0.066793 -50.011044 64.338234
v 9.336799 -17.248152 64.338234
v 9.336811 20.060654 91.701035
v 9.260507 20.151754 91.572250
v -0.001431 53.123566 91.700775
v 0.025841 30.481703 91.605858
v 31.518066 53.135052 91.701035
v 9.260494 -17.131874 91.576103
v 31.513546 -50.014366 91.572197
v -0.001443 -50.026470 91.700775
v 0.025829 -27.461823 92.444107
v 231.676849 -53.836014 0.005680
v 231.676849 -53.836014 109.115166
v 229.969742 -53.835987 92.444160
v 219.970291 -53.835987 109.115219
v 229.969788 57.030758 109.241119
v 236.055328 -53.835987 109.115166
v 229.969742 -53.835987 104.176575
v 238.397720 -53.835987 92.444160
v 231.676880 57.030758 109.241173
v 236.055374 57.030758 104.176620
v 238.397736 57.030758 109.115219
v 229.969788 57.030758 92.444214
v 219.970322 57.030785 0.005680
v 231.676880 57.030785 0.005680
v 219.970291 -53.836014 0.005680
v 219.970322 57.030785 109.241119
v 236.055328 -53.835987 109.241173
v 236.055374 57.030758 -91.218338
v 31.520191 53.136524 -91.117371
v 31.514177 -50.015812 91.576103
v 31.513546 -50.014366 91.605858
v 31.518066 53.135052 0.005680
v 231.676849 -53.836014 0.005680
v 231.676880 57.030785 0.005680
v 219.970291 -53.836014 -92.432777
v 231.676849 -53.835987 0.005680
v 231.676849 -53.836014 -109.103775
v 229.969742 -53.835987 -109.103775
v 229.969803 57.030785 -92.432777
v 219.970291 -53.835987 -109.229729
v 236.055328 -53.835987 -109.103775
v 229.969742 -53.835987 -104.165184
v 238.397720 -53.835987 -109.229729
v 236.055389 57.030785 -92.432777
v 231.676880 57.030785 -104.165184
v 238.397751 57.030785 -109.103775
v 229.969803 57.030785 -92.432777
v 219.970322 57.030758 0.005680
v 231.676880 57.030785 0.005680
v 219.970322 57.030785 0.005680
v 219.970291 -53.836014 -92.432777
v 219.970322 57.030758 -92.432777
v 219.970291 -53.835987 0.005680
v 219.970322 57.030785 -109.229729
v 236.055328 -53.835987 -109.229729
v 236.055389 57.030785 -63.820980
v 0.066811 53.186024 -91.174065
v -0.001425 53.118561 -63.820980
v 0.066793 -50.010948 -63.820980
v 0.066811 30.611198 -58.506943
v 11.286151 53.186192 -63.820980
v 0.066811 53.186024 -58.506943
v 11.286124 -50.010784 -48.574978
v 13.950243 -50.010757 -58.506943
v 11.286151 53.186192 -58.506943
v 11.286124 -50.010784 -48.574978
v 13.950270 53.186214 26.970371
v 14.313275 -50.010544 5.330713
v 7.525708 53.186642 5.330713
v 7.525690 -50.010330 26.970371
v 14.313302 53.186428 -4.735374
v 7.525684 -50.010262 0.297670
v 12.505210 53.186806 -4.735374
v 7.525702 53.186710 5.330713
v 7.525708 53.186642 0.297670
v 12.505183 -50.010166 5.330713
v 7.525690 -50.010330 49.170319
v 13.950252 -50.010853 42.984474
v 7.687459 53.186260 42.984474
v 7.687441 -50.010712 49.170319
v 13.950278 53.186119 42.984474
v 7.687441 -50.010712 32.472179
v 9.650915 53.186356 32.472179
v 9.650888 -50.010616 42.984474
v 7.687459 53.186260 -26.375032
v 14.313267 -50.010475 -31.876842
v 9.650906 53.186428 -31.876842
v 9.650879 -50.010544 -26.375032
v 14.313293 53.186501 -31.876842
v 9.650879 -50.010544 -42.389137
v 7.687452 53.186333 -42.389137
v 7.687435 -50.010639 -31.876842
v 9.650906 53.186428 59.063251
v 11.286124 -50.010853 49.170319
v 13.950278 53.186119 49.170319
v 13.950252 -50.010853 59.063251
v 11.286148 53.186119 -42.389137
v 7.687435 -50.010639 -48.574978
v 13.950270 53.186214 -48.574978
v 13.950243 -50.010757 -42.389137
v 7.687452 53.186333 -4.735374
v 7.525684 -50.010262 -26.375032
v 14.313293 53.186501 -26.375032
v 14.313267 -50.010475 -4.735374
v 7.525702 53.186710 32.472179
v 9.650888 -50.010616 26.970371
v 14.313302 53.186428 26.970371
v 14.313275 -50.010544 32.472179
v 9.650915 53.186356 -91.165016
v -0.001443 -50.031452 -63.820980
v 0.066793 -27.492767 -63.820980
v 0.066793 -50.010948 -63.820927
v 9.336804 -17.248104 -63.820927
v 9.336823 20.060726 -91.183723
v 9.260501 -17.131826 -91.165016
v -0.001443 -50.031452 -91.183472
v 0.025835 -27.461752 -91.117371
v 31.514177 -50.015812 -91.218338
v 31.520191 53.136524 -91.174065
v -0.001425 53.118561 -91.183723
v 9.260518 20.151802 -91.183472
v 0.025853 30.481750 85.773979
v 220.739929 47.632160 85.718277
v 35.893646 47.617340 -85.984413
v 220.739914 -44.552574 85.769821
v 35.856510 -44.485905 -86.065453
v 35.856510 -44.485882 85.773933
v 220.739914 -44.552551 0.262725
v 35.912201 47.642471 -91.218338
v 31.520191 53.136524 0.231032
v 31.512297 53.193047 -86.013756
v 35.893646 47.617390 -91.117371
v 31.514177 -50.015812 0.231032
v 31.512285 -50.010212 91.576103
v 31.513546 -50.014366 91.605858
v 31.518066 53.135052 85.718277
v 35.893646 47.617340 -86.013756
v 35.893646 47.617390 -0.421461
v 220.739914 47.632149 -85.984413
v 220.739929 47.632137 0.262725
v 35.912201 47.642471 0.529243

vt 0.346554 0.470757
vt 0.346554 0.755818
vt 0.209948 0.732060
vt 0.264424 0.732060
vt 0.264424 0.877763
vt 0.209948 0.491747
vt 0.246220 0.588493
vt 0.279078 0.613091
vt 0.256508 0.687744
vt 0.277320 0.660089
vt 0.247003 0.660089
vt 0.247003 0.613091
vt 0.256508 0.588493
vt 0.279078 0.491747
vt 0.246220 0.470757
vt 0.270325 0.877763
vt 0.209948 0.755818
vt 0.209948 0.588493
vt 0.279078 0.613091
vt 0.256508 0.660089
vt 0.247003 0.732060
vt 0.264424 0.613091
vt 0.256508 0.491747
vt 0.246220 0.964229
vt 0.192084 0.998067
vt 0.192084 0.755818
vt 0.209948 0.610988
vt 0.162872 0.731089
vt 0.162872 0.764068
vt 0.192713 0.998067
vt 0.311317 0.998067
vt 0.298143 0.998067
vt 0.209031 0.998067
vt 0.311317 0.998067
vt 0.298143 0.877763
vt 0.209948 0.998067
vt 0.192084 0.998067
vt 0.209031 0.669824
vt 0.462915 0.669824
vt 0.995403 0.554769
vt 0.995403 0.588618
vt 0.995403 0.588618
vt 0.462915 0.554769
vt 0.462915 0.617657
vt 0.462915 0.617657
vt 0.995403 0.591879
vt 0.355060 0.498890
vt 0.995403 0.993510
vt 0.462915 0.993510
vt 0.995403 0.990302
vt 0.355060 0.990302
vt 0.355060 0.669824
vt 0.462915 0.669824
vt 0.995403 0.591879
vt 0.355060 0.554769
vt 0.995403 0.588618
vt 0.995403 0.588618
vt 0.462915 0.554769
vt 0.462915 0.498890
vt 0.995403 0.617657
vt 0.462915 0.617657
vt 0.995403 0.732060
vt 0.264424 0.755818
vt 0.209948 0.687744
vt 0.277320 0.877763
vt 0.209948 0.470757
vt 0.270513 0.491747
vt 0.246220 0.687744
vt 0.277320 0.687744
vt 0.277320 0.660089
vt 0.247003 0.588493
vt 0.279078 0.576842
vt 0.193827 0.609821
vt 0.163986 0.729922
vt 0.163986 0.964229
vt 0.192084 0.877763
vt 0.346554 0.877763
vt 0.346554 0.877763
vt 0.346554 0.021448
vt 0.114071 0.021448
vt 0.997345 0.464980
vt 0.997345 0.021448
vt 0.997345 0.021448
vt 0.114071 0.464980
vt 0.997345 0.993678
vt 0.116550 0.464980
vt 0.114250 0.464980
vt 0.114250 0.993678
vt 0.997262 0.877763
vt 0.346554 0.470757
vt 0.270137 0.470757
vt 0.346554 0.470757
vt 0.270325 0.470757
vt 0.346554 0.964229
vt 0.148498 0.998067
vt 0.148498 0.504353
vt 0.156597 0.577025
vt 0.192713 0.504354
vt 0.192713 0.836556
vt 0.156597 0.836557
vt 0.192713 0.998067
vt 0.350674 0.964229
vt 0.311317 0.964229
vt 0.350674 0.964229
vt 0.298143 0.964229
vt 0.209031 0.837903
vt 0.050908 0.996516
vt 0.006217 0.886087
vt 0.006217 0.996516
vt 0.142613 0.656558
vt 0.050908 0.497230
vt 0.142613 0.497230
vt 0.006217 0.606503
vt 0.006217 0.591879
vt 0.421639 0.990302
vt 0.417382 0.554769
vt 0.462915 0.498890
vt 0.462915 0.554769
vt 0.995403 0.485688
vt 0.443092 0.485688
vt 0.408933 0.509913
vt 0.453226 0.591879
vt 0.421639 0.485688
vt 0.443092 0.509913
vt 0.453226 0.485688
vt 0.408933 0.591879
vt 0.355060 0.990302
vt 0.417382 0.472171
vt 0.462915 0.472171
vt 0.995403 0.588618
vt 0.462915 0.588618
vt 0.995403 0.487539
vt 0.078758 -0.000406
vt 0.078758 -0.000406
vt 0.078758 0.487539
vt 0.078758 0.993510
vt 0.462915 0.993510
vt 0.995403 0.990302
vt 0.355060 0.591879
vt 0.421639 0.990302
vt 0.417382 0.554769
vt 0.462915 0.554769
vt 0.995403 0.498890
vt 0.462915 0.485688
vt 0.443092 0.485688
vt 0.408933 0.509913
vt 0.453226 0.485688
vt 0.443092 0.591879
vt 0.421639 0.509913
vt 0.453226 0.485688
vt 0.408933 0.591879
vt 0.355060 0.990302
vt 0.417382 0.990302
vt 0.355060 0.472171
vt 0.462915 0.498890
vt 0.995403 0.498890
vt 0.462915 0.472171
vt 0.995403 0.588618
vt 0.462915 0.588618
vt 0.995403 0.964229
vt 0.148498 0.998067
vt 0.148498 0.504353
vt 0.193827 0.763885
vt 0.193827 0.836557
vt 0.157711 0.836556
vt 0.193827 0.504354
vt 0.157711 0.886515
vt 0.351362 0.918717
vt 0.149186 0.918717
vt 0.351362 0.886515
vt 0.149186 0.918717
vt 0.351362 0.886515
vt 0.149186 0.886515
vt 0.351362 0.918717
vt 0.149186 0.926322
vt 0.351705 0.943127
vt 0.149529 0.926322
vt 0.149529 0.959043
vt 0.149529 0.943127
vt 0.351705 0.959043
vt 0.351705 0.959043
vt 0.351705 0.926322
vt 0.149529 0.926322
vt 0.351705 0.959043
vt 0.149529 0.918717
vt 0.351362 0.886515
vt 0.149186 0.886515
vt 0.351362 0.918717
vt 0.149186 0.926322
vt 0.351705 0.959043
vt 0.149529 0.959043
vt 0.351705 0.926322
vt 0.149529 0.886515
vt 0.351362 0.918717
vt 0.149186 0.918717
vt 0.351362 0.886515
vt 0.149186 0.918717
vt 0.351362 0.886515
vt 0.149186 0.886515
vt 0.351362 0.918717
vt 0.149186 0.926322
vt 0.351705 0.959043
vt 0.149529 0.959043
vt 0.351705 0.926322
vt 0.149529 0.886515
vt 0.351362 0.918717
vt 0.149186 0.918717
vt 0.351362 0.886515
vt 0.149186 0.959043
vt 0.351705 0.926322
vt 0.149529 0.926322
vt 0.351705 0.959043
vt 0.149529 0.998067
vt 0.350674 0.964229
vt 0.311317 0.964229
vt 0.350674 0.964229
vt 0.298143 0.964229
vt 0.209031 0.656558
vt 0.050908 0.497230
vt 0.006217 0.606503
vt 0.006217 0.497230
vt 0.142613 0.996516
vt 0.142613 0.996516
vt 0.006217 0.837903
vt 0.050908 0.886087
vt 0.006217 0.796752
vt 0.997262 0.796752
vt 0.116358 0.019537
vt 0.997262 0.789314
vt 0.117172 0.019537
vt 0.117172 0.787823
vt 0.997262 0.405741
vt 0.117172 -0.001040
vt 0.077744 0.405741
vt 0.077744 0.019537
vt 0.117172 -0.001040
vt 0.077744 0.405741
vt 0.077744 0.815797
vt 0.077744 0.815797
vt 0.077744 0.789314
vt 0.117172 0.796752
vt 0.116358 0.993678
vt 0.997262 0.796752
vt 0.997262 0.993678
vt 0.116550 1.000000

f 10/10 9/9 11/11
f 10/10 8/8 9/9
f 8/8 16/16 7/7
f 16/16 78/78 2/2
f 8/8 78/78 16/16
f 10/10 78/78 8/8
f 63/63 78/78 10/10
f 64/64 78/78 63/63
f 64/64 36/36 78/78
f 27/27 90/90 17/17
f 90/90 91/91 92/92
f 91/91 14/14 15/15
f 90/90 14/14 91/91
f 13/13 65/65 12/12
f 14/14 65/65 13/13
f 90/90 65/65 14/14
f 90/90 4/4 65/65
f 27/27 4/4 90/90
f 18/18 77/77 6/6
f 77/77 67/67 1/1
f 67/67 19/19 68/68
f 77/77 19/19 67/67
f 20/20 69/69 21/21
f 19/19 69/69 20/20
f 77/77 69/69 19/19
f 77/77 22/22 69/69
f 18/18 22/22 77/77
f 70/70 23/23 71/71
f 70/70 72/72 23/23
f 72/72 93/93 24/24
f 93/93 79/79 94/94
f 72/72 79/79 93/93
f 70/70 79/79 72/72
f 5/5 79/79 70/70
f 3/3 79/79 5/5
f 3/3 66/66 79/79
f 95/95 26/26 96/96
f 26/26 95/95 25/25
f 97/97 98/98 99/99
f 97/97 28/28 98/98
f 100/100 28/28 97/97
f 100/100 29/29 28/28
f 101/101 29/29 100/100
f 101/101 30/30 29/29
f 102/102 103/103 104/104
f 103/103 102/102 31/31
f 31/31 105/105 103/103
f 105/105 31/31 32/32
f 32/32 106/106 105/105
f 106/106 32/32 33/33
f 26/26 106/106 33/33
f 106/106 26/26 25/25
f 107/107 108/108 109/109
f 107/107 110/110 108/108
f 111/111 110/110 107/107
f 111/111 112/112 110/110
f 111/111 113/113 112/112
f 111/111 114/114 113/113
f 49/49 40/40 39/39
f 40/40 49/49 50/50
f 51/51 115/115 47/47
f 115/115 51/51 116/116
f 42/42 44/44 43/43
f 44/44 42/42 41/41
f 117/117 48/48 118/118
f 48/48 117/117 119/119
f 46/46 39/39 40/40
f 39/39 46/46 45/45
f 47/47 120/120 121/121
f 47/47 122/122 120/120
f 115/115 122/122 47/47
f 123/123 124/124 125/125
f 123/123 126/126 124/124
f 127/127 126/126 123/123
f 127/127 128/128 52/52
f 128/128 127/127 123/123
f 129/129 48/48 130/130
f 48/48 129/129 118/118
f 46/46 131/131 45/45
f 131/131 46/46 132/132
f 80/80 133/133 87/87
f 133/133 80/80 134/134
f 80/80 82/82 81/81
f 82/82 80/80 87/87
f 135/135 88/88 136/136
f 88/88 135/135 84/84
f 84/84 85/85 88/88
f 85/85 84/84 83/83
f 137/137 54/54 138/138
f 54/54 137/137 53/53
f 139/139 140/140 141/141
f 140/140 139/139 55/55
f 57/57 59/59 56/56
f 59/59 57/57 58/58
f 142/142 60/60 143/143
f 60/60 142/142 144/144
f 62/62 53/53 61/61
f 53/53 62/62 54/54
f 145/145 55/55 146/146
f 147/147 55/55 145/145
f 140/140 55/55 147/147
f 148/148 149/149 150/150
f 151/151 149/149 148/148
f 152/152 149/149 151/151
f 152/152 153/153 149/149
f 153/153 152/152 154/154
f 155/155 156/156 157/157
f 156/156 155/155 158/158
f 62/62 159/159 160/160
f 159/159 62/62 61/61
f 161/161 37/37 76/76
f 37/37 161/161 162/162
f 163/163 74/74 73/73
f 164/164 165/165 166/166
f 75/75 165/165 164/164
f 75/75 167/167 165/165
f 74/74 167/167 75/75
f 163/163 167/167 74/74
f 168/168 169/169 170/170
f 169/169 168/168 171/171
f 172/172 173/173 174/174
f 173/173 172/172 175/175
f 176/176 177/177 178/178
f 176/176 179/179 177/177
f 179/179 180/180 181/181
f 176/176 180/180 179/179
f 182/182 183/183 184/184
f 183/183 182/182 185/185
f 186/186 187/187 188/188
f 187/187 186/186 189/189
f 190/190 191/191 192/192
f 191/191 190/190 193/193
f 194/194 195/195 196/196
f 195/195 194/194 197/197
f 198/198 199/199 200/200
f 199/199 198/198 201/201
f 202/202 203/203 204/204
f 203/203 202/202 205/205
f 206/206 207/207 208/208
f 207/207 206/206 209/209
f 210/210 211/211 212/212
f 211/211 210/210 213/213
f 214/214 215/215 34/34
f 215/215 214/214 216/216
f 34/34 217/217 35/35
f 217/217 34/34 215/215
f 35/35 218/218 38/38
f 218/218 35/35 217/217
f 37/37 218/218 76/76
f 218/218 37/37 38/38
f 219/219 220/220 221/221
f 219/219 222/222 220/220
f 219/219 223/223 222/222
f 224/224 225/225 226/226
f 223/223 225/225 224/224
f 219/219 225/225 223/223
f 227/227 89/89 229/229
f 229/229 232/232 233/233
f 233/233 236/236 230/230
f 237/237 231/231 230/230
f 238/238 237/237 239/239
f 238/238 230/230 233/233
f 233/233 235/235 242/242
