# MOD converted: pr_etc_e0_125_a.mod
# 128 verts, 17 faces

v 26.816856 -28.072117 140.195145
v 26.816849 -28.072117 -149.804855
v 207.319473 33.039307 150.195145
v 207.319473 33.039307 -134.588730
v 36.035301 -46.058636 144.606430
v 45.156891 -42.979053 -144.216141
v 211.242828 13.265090 134.979019
v 220.364441 16.344681 -149.804855
v 36.291443 -24.873352 150.195145
v 36.291443 -24.873352 -139.804855
v 216.794067 36.238071 140.195145
v 216.794067 36.238071 -144.216141
v 45.156891 -42.979053 134.979019
v 36.035301 -46.058640 -134.588730
v 220.364441 16.344681 144.606430
v 211.242828 13.265090 -116.627922
v 52.562775 -41.260094 117.749962
v 52.562775 -41.260098 124.965279
v 56.455170 -39.884987 124.965279
v 198.394638 10.203483 118.000755
v 202.436310 11.546131 -116.878731
v 202.436310 11.546134 -123.843254
v 198.394638 10.203481 -123.843254
v 56.455170 -39.884983 -111.945740
v 51.890617 -27.828484 112.336037
v 51.890610 -27.828487 119.240562
v 55.792053 -26.474888 119.240562
v 193.060959 19.911190 112.576042
v 196.703476 21.232311 -112.185738
v 196.703476 21.232311 -118.850258
v 193.060959 19.911190 -118.850258
v 55.792053 -26.474892 -118.850258
v 78.907288 -18.586838 -91.679199
v 51.890610 -27.828487 -118.850258
v 98.385803 -15.130573 -74.049088
v 51.890602 -27.828491 -83.434265
v 52.562752 -41.260105 -73.245445
v 52.562752 -41.260109 -123.843254
v 104.157806 -24.777809 -123.843254
v 92.209869 -27.614258 -107.918915
v 6.461227 -34.972984 -91.938736
v 6.461227 -34.972984 -107.918915
v 4.986000 -18.667507 -91.938736
v 4.986000 -18.667507 -107.918915
v 84.585999 -8.659717 -91.938736
v 84.585999 -8.659717 -107.918915
v 79.474319 6.480858 -91.938736
v 79.474319 6.480858 -105.558372
v 0.028015 -32.275089 -105.558380
v 0.062965 -22.821041 -94.299271
v 0.062965 -22.821041 -94.299271
v 0.028015 -32.275089 -22.067383
v 6.904739 49.255943 21.932617
v 6.904739 49.255936 -22.067383
v 6.872108 80.754776 21.932617
v 6.872101 80.754784 -22.067385
v 116.555252 1.058490 21.932615
v 116.555252 1.058482 -22.067383
v 150.928848 12.324286 21.932617
v 150.928848 12.324283 -19.558750
v -0.050034 52.019375 -19.558750
v -0.077972 78.890594 19.423985
v -0.077972 78.890594 19.423985
v -0.050041 52.019371 92.270988
v 6.460136 -34.949532 108.251167
v 6.460136 -34.949532 92.270988
v 4.986000 -18.667507 108.251167
v 4.986000 -18.667507 92.270988
v 84.585999 -8.659716 108.251167
v 84.585999 -8.659716 92.270988
v 79.474319 6.480858 108.251167
v 79.474319 6.480858 94.631531
v 0.115593 -32.383080 94.631523
v 0.062965 -22.821041 105.890633
v 0.062965 -22.821041 105.890633
v 0.115593 -32.383080 -139.804855
v 26.816856 -28.072117 140.195145
v 26.816849 -28.072117 150.195145
v 36.291443 -24.873352 150.195145
v 207.319473 33.039307 140.195145
v 216.794067 36.238071 -139.804855
v 216.794067 36.238071 -149.804855
v 207.319473 33.039307 -149.804855
v 36.291443 -24.873352 -91.938736
v 84.585999 -8.659717 -107.918915
v 84.585999 -8.659717 -91.938736
v 6.461227 -34.972984 -91.938736
v 79.474319 6.480858 -91.938736
v 84.585999 -8.659717 -91.938736
v 4.986000 -18.667507 -107.918915
v 79.474319 6.480858 -91.938736
v 79.474319 6.480858 -107.918915
v 4.986000 -18.667507 -107.918915
v 84.585999 -8.659717 -107.918915
v 6.461227 -34.972984 -107.918915
v 79.474319 6.480858 -105.558380
v 0.062965 -22.821041 -94.299271
v 0.062965 -22.821041 -105.558372
v 0.028015 -32.275089 -94.299271
v 0.028015 -32.275089 21.932617
v 6.904739 49.255936 21.932615
v 116.555252 1.058482 21.932617
v 6.872101 80.754784 21.932617
v 150.928848 12.324283 -22.067383
v 6.872108 80.754776 -22.067385
v 116.555252 1.058490 -22.067383
v 6.904739 49.255943 -22.067383
v 150.928848 12.324286 -19.558750
v -0.077972 78.890594 19.423985
v -0.077972 78.890594 -19.558750
v -0.050034 52.019375 19.423985
v -0.050041 52.019371 108.251167
v 84.585999 -8.659716 92.270988
v 84.585999 -8.659716 108.251167
v 6.460136 -34.949532 108.251167
v 79.474319 6.480858 108.251167
v 84.585999 -8.659716 108.251167
v 4.986000 -18.667507 92.270988
v 79.474319 6.480858 108.251167
v 79.474319 6.480858 92.270988
v 4.986000 -18.667507 92.270988
v 84.585999 -8.659716 92.270988
v 6.460136 -34.949532 92.270988
v 79.474319 6.480858 94.631523
v 0.062965 -22.821041 105.890633
v 0.062965 -22.821041 94.631531
v 0.115593 -32.383080 105.890633
v 0.115593 -32.383080 0.381939

vt 0.012999 0.981704
vt 0.012999 0.605074
vt 0.260493 0.994691
vt 0.260493 0.903065
vt 0.335350 0.064865
vt 0.364253 0.931968
vt 0.890692 0.103245
vt 0.929605 0.605074
vt 0.025987 0.994691
vt 0.025987 0.618061
vt 0.273481 0.981704
vt 0.273481 0.931968
vt 0.364253 0.093768
vt 0.335350 0.894864
vt 0.929606 0.064865
vt 0.890692 0.864402
vt 0.380383 0.132432
vt 0.380383 0.114875
vt 0.393221 0.114875
vt 0.861314 0.131648
vt 0.874562 0.865185
vt 0.874562 0.886935
vt 0.861314 0.886935
vt 0.393221 0.835086
vt 0.409819 0.161747
vt 0.409819 0.141018
vt 0.422200 0.141018
vt 0.837064 0.161027
vt 0.848694 0.835806
vt 0.848694 0.855815
vt 0.837064 0.855815
vt 0.422217 0.855815
vt 0.455620 0.810215
vt 0.409819 0.855815
vt 0.551423 0.716388
vt 0.409819 0.767045
vt 0.380383 0.704383
vt 0.380383 0.886935
vt 0.560094 0.886935
vt 0.510801 0.097898
vt 0.167281 0.097898
vt 0.122298 0.097898
vt 0.167281 0.239012
vt 0.111740 0.071590
vt 0.122179 0.022973
vt 0.122179 0.071590
vt 0.163399 0.022973
vt 0.163399 0.264420
vt 0.079729 0.255883
vt 0.105095 0.075229
vt 0.128943 0.264420
vt 0.079729 0.393810
vt 0.175436 0.393810
vt 0.075798 0.277199
vt 0.278526 0.263840
vt 0.005309 0.592755
vt 0.175436 0.592755
vt 0.075798 0.593906
vt 0.278526 0.620784
vt 0.007637 0.273100
vt 0.071575 0.247182
vt 0.016520 0.257353
vt 0.184568 0.273100
vt 0.071575 0.097898
vt 0.167281 0.097898
vt 0.122298 0.097898
vt 0.167281 0.239012
vt 0.111740 0.022973
vt 0.122179 0.022973
vt 0.163399 0.071590
vt 0.122179 0.071590
vt 0.163399 0.264420
vt 0.079729 0.255883
vt 0.105095 0.075229
vt 0.128943 0.264420
vt 0.079729 0.918229
vt 0.282521 0.080535
vt 0.282521 0.005268
vt 0.353639 0.005268
vt 0.907246 0.078605
vt 0.989800 0.922090
vt 0.989800 0.990872
vt 0.909029 0.990872
vt 0.345917 0.312995
vt 0.122298 0.312995
vt 0.167281 0.249751
vt 0.066856 0.017704
vt 0.111740 0.017704
vt 0.066856 0.097898
vt 0.122298 0.312995
vt 0.167281 0.312995
vt 0.122298 0.239012
vt 0.111740 0.017704
vt 0.066856 0.249751
vt 0.066856 0.017704
vt 0.111740 0.075229
vt 0.160636 0.255883
vt 0.105095 0.075229
vt 0.160636 0.075229
vt 0.128943 0.294222
vt 0.069845 0.561166
vt 0.063812 0.277199
vt 0.178887 0.593906
vt 0.178887 0.263840
vt 0.005309 0.561166
vt 0.063812 0.294222
vt 0.069845 0.620784
vt 0.007637 0.257353
vt 0.272845 0.247182
vt 0.016520 0.379488
vt 0.169756 0.379488
vt 0.081478 0.312995
vt 0.122298 0.312995
vt 0.167281 0.249751
vt 0.066856 0.017704
vt 0.111740 0.017704
vt 0.066856 0.097898
vt 0.122298 0.312995
vt 0.167281 0.312995
vt 0.122298 0.239012
vt 0.111740 0.017704
vt 0.066856 0.249751
vt 0.066856 0.017704
vt 0.111740 0.075229
vt 0.160636 0.255883
vt 0.105095 0.075229
vt 0.160636 0.075229
vt 0.128943 1.000000

f 81/81 15/15 82/82
f 15/15 81/81 8/8
f 82/82 7/7 83/83
f 7/7 82/82 15/15
f 90/90 91/91 43/43
f 91/91 90/90 92/92
f 103/103 59/59 55/55
f 59/59 103/103 104/104
f 118/118 119/119 67/67
f 119/119 118/118 120/120
f 77/77 5/5 78/78
f 78/78 14/14 5/5
f 5/5 77/77 41/41
f 41/41 86/86 53/53
f 53/53 57/57 65/65
f 1/1 79/79 16/16
f 80/80 16/16 79/79
