# MOD converted: pr_etc_b0_101_n.mod
# 272 verts, 13 faces

v 91.876022 4.485596 102.624573
v 91.876022 4.485596 -102.624573
v 200.412491 4.485596 102.624573
v 200.412491 4.485596 -102.624573
v 91.876022 -5.079819 102.624573
v 91.876022 -5.079819 -102.624573
v 200.412491 -5.079819 102.624573
v 200.412491 -5.079819 82.337402
v 15.377793 3.483963 90.172943
v 15.377793 3.483963 82.337402
v 92.859421 3.483963 90.172943
v 92.859421 3.483963 82.337402
v 15.377793 -4.078186 90.172943
v 15.377793 -4.078186 82.337402
v 92.859421 -4.078186 90.172943
v 92.859421 -4.078186 -90.172958
v 15.377793 3.483963 -82.337418
v 15.377793 3.483963 -90.172958
v 92.859421 3.483963 -82.337418
v 92.859421 3.483963 -90.172958
v 15.377793 -4.078186 -82.337418
v 15.377793 -4.078186 -90.172958
v 92.859421 -4.078186 -82.337418
v 92.859421 -4.078186 -84.244064
v 40.293896 2.366211 84.244049
v 40.293896 2.366211 -84.244064
v 43.989258 2.366211 84.244049
v 43.989258 2.366211 -84.244064
v 40.293896 -2.960434 84.244049
v 40.293896 -2.960434 -84.244064
v 43.989258 -2.960434 84.244049
v 43.989258 -2.960434 82.337402
v 11.864579 27.304550 90.172943
v 11.864579 27.304550 82.337402
v 15.844918 27.304550 90.172943
v 15.844918 27.304550 82.337402
v 11.864579 -27.898773 90.172943
v 11.864579 -27.898773 82.337402
v 15.844918 -27.898773 90.172943
v 15.844918 -27.898773 -90.172989
v 11.864579 27.304581 -82.337463
v 11.864579 27.304581 -90.172989
v 15.844918 27.304581 -82.337463
v 15.844918 27.304581 -90.172989
v 11.864579 -27.898773 -82.337463
v 11.864579 -27.898773 -90.172989
v 15.844918 -27.898773 -82.337463
v 15.844918 -27.898773 -83.110733
v 12.596000 24.362122 -83.110733
v 6.298000 30.660126 -89.399734
v 6.298000 30.660126 -89.399734
v 12.596000 24.362122 -83.110733
v 0.000000 24.362122 -89.399734
v 0.000000 24.362122 -83.110733
v 6.298000 18.064117 -89.399734
v 6.298000 18.064117 -83.110733
v 12.596000 -24.362122 -83.110733
v 6.298000 -18.064117 -89.399734
v 6.298000 -18.064117 -89.399734
v 12.596000 -24.362122 -83.110733
v 0.000000 -24.362122 -89.399734
v 0.000000 -24.362122 -83.110733
v 6.298000 -30.660126 -89.399734
v 6.298000 -30.660126 89.399658
v 12.596000 -24.362122 89.399658
v 6.298000 -18.064117 83.110657
v 6.298000 -18.064117 83.110657
v 12.596000 -24.362122 89.399658
v 0.000000 -24.362122 83.110657
v 0.000000 -24.362122 89.399658
v 6.298000 -30.660126 83.110657
v 6.298000 -30.660126 89.399658
v 12.596000 24.362122 89.399658
v 6.298000 30.660126 83.110657
v 6.298000 30.660126 83.110657
v 12.596000 24.362122 89.399658
v 0.000000 24.362122 83.110657
v 0.000000 24.362122 89.399658
v 6.298000 18.064117 83.110657
v 6.298000 18.064117 -97.126938
v 94.157928 -14.556229 97.126892
v 94.157928 -14.556229 -97.126953
v 94.157928 -4.452194 97.126892
v 94.157928 -4.452194 -97.126938
v 100.823677 -14.556229 97.126892
v 100.823677 -14.556229 33.944366
v 94.225502 -11.417908 53.439484
v 94.225502 -11.417908 33.944366
v 100.690025 -4.953369 53.439484
v 100.690025 -4.953369 33.944366
v 97.299881 -14.492279 53.439484
v 97.299881 -14.492279 33.944366
v 103.764404 -8.027756 53.439484
v 103.764404 -8.027756 59.673798
v 94.225502 -11.417908 79.168915
v 94.225502 -11.417908 59.673798
v 100.690025 -4.953369 79.168915
v 100.690025 -4.953369 59.673798
v 97.299881 -14.492279 79.168915
v 97.299881 -14.492279 59.673798
v 103.764404 -8.027756 79.168915
v 103.764404 -8.027756 23.088440
v 94.253426 -10.967667 23.088440
v 97.253426 -10.967667 23.088440
v 94.253426 -7.967667 23.088440
v 97.253426 -7.967667 3.088440
v 94.253426 -10.967667 3.088440
v 97.253426 -10.967667 3.088440
v 94.253426 -7.967667 3.088440
v 97.253426 -7.967667 1.694427
v 94.253426 -10.967667 1.694427
v 97.253426 -10.967667 1.694427
v 94.253426 -7.967667 1.694427
v 97.253426 -7.967667 -18.305573
v 94.253426 -10.967667 -18.305573
v 97.253426 -10.967667 -18.305573
v 94.253426 -7.967667 -18.305573
v 97.253426 -7.967667 -102.624573
v 91.876022 4.485596 102.624573
v 91.876022 4.485596 -102.624573
v 91.876022 4.485596 -102.624573
v 200.412491 4.485596 -102.624573
v 91.876022 -5.079819 102.624573
v 91.876022 4.485596 102.624573
v 91.876022 -5.079819 102.624573
v 200.412491 4.485596 102.624573
v 200.412491 -5.079819 -102.624573
v 200.412491 4.485596 102.624573
v 200.412491 4.485596 -102.624573
v 200.412491 -5.079819 102.624573
v 200.412491 -5.079819 -102.624573
v 91.876022 -5.079819 -102.624573
v 200.412491 -5.079819 102.624573
v 91.876022 -5.079819 82.337402
v 92.859421 -4.078186 82.337402
v 15.377793 3.483963 82.337402
v 92.859421 3.483963 82.337402
v 15.377793 -4.078186 90.172943
v 92.859421 -4.078186 90.172943
v 15.377793 3.483963 90.172943
v 15.377793 -4.078186 90.172943
v 92.859421 3.483963 -90.172958
v 92.859421 -4.078186 -90.172958
v 15.377793 3.483963 -90.172958
v 92.859421 3.483963 -90.172958
v 15.377793 -4.078186 -82.337418
v 92.859421 -4.078186 -82.337418
v 15.377793 3.483963 -82.337418
v 15.377793 -4.078186 -82.337418
v 92.859421 3.483963 -84.244064
v 40.293896 2.366211 84.244049
v 40.293896 2.366211 -84.244064
v 43.989258 2.366211 84.244049
v 43.989258 2.366211 84.244049
v 43.989258 -2.960434 -84.244064
v 40.293896 -2.960434 -84.244064
v 43.989258 -2.960434 84.244049
v 40.293896 -2.960434 82.337402
v 11.864579 27.304550 90.172943
v 11.864579 27.304550 82.337402
v 11.864579 27.304550 82.337402
v 15.844918 27.304550 82.337402
v 11.864579 -27.898773 90.172943
v 11.864579 27.304550 90.172943
v 11.864579 -27.898773 90.172943
v 15.844918 27.304550 90.172943
v 15.844918 -27.898773 82.337402
v 15.844918 27.304550 90.172943
v 15.844918 27.304550 82.337402
v 15.844918 -27.898773 90.172943
v 15.844918 -27.898773 82.337402
v 11.864579 -27.898773 82.337402
v 15.844918 -27.898773 90.172943
v 11.864579 -27.898773 -90.172989
v 11.864579 27.304581 -82.337463
v 11.864579 27.304581 -90.172989
v 11.864579 27.304581 -90.172989
v 15.844918 27.304581 -90.172989
v 11.864579 -27.898773 -82.337463
v 11.864579 27.304581 -82.337463
v 11.864579 -27.898773 -82.337463
v 15.844918 27.304581 -82.337463
v 15.844918 -27.898773 -90.172989
v 15.844918 27.304581 -82.337463
v 15.844918 27.304581 -90.172989
v 15.844918 -27.898773 -82.337463
v 15.844918 -27.898773 -90.172989
v 11.864579 -27.898773 -90.172989
v 15.844918 -27.898773 -82.337463
v 11.864579 -27.898773 -89.399734
v 12.596000 24.362122 -89.399734
v 6.298000 30.660126 -89.399734
v 0.000000 24.362122 -83.110733
v 6.298000 30.660126 -83.110733
v 0.000000 24.362122 -89.399734
v 6.298000 18.064117 -83.110733
v 6.298000 18.064117 -83.110733
v 12.596000 24.362122 -89.399734
v 12.596000 -24.362122 -89.399734
v 6.298000 -18.064117 -89.399734
v 0.000000 -24.362122 -83.110733
v 6.298000 -18.064117 -83.110733
v 0.000000 -24.362122 -89.399734
v 6.298000 -30.660126 -83.110733
v 6.298000 -30.660126 -83.110733
v 12.596000 -24.362122 83.110657
v 12.596000 -24.362122 83.110657
v 6.298000 -18.064117 83.110657
v 0.000000 -24.362122 89.399658
v 6.298000 -18.064117 89.399658
v 0.000000 -24.362122 83.110657
v 6.298000 -30.660126 89.399658
v 6.298000 -30.660126 89.399658
v 12.596000 -24.362122 83.110657
v 12.596000 24.362122 83.110657
v 6.298000 30.660126 83.110657
v 0.000000 24.362122 89.399658
v 6.298000 30.660126 89.399658
v 0.000000 24.362122 83.110657
v 6.298000 18.064117 89.399658
v 6.298000 18.064117 89.399658
v 12.596000 24.362122 97.126892
v 94.157928 -14.556229 -97.126938
v 94.157928 -14.556229 53.439484
v 97.299881 -14.492279 33.944366
v 97.299881 -14.492279 53.439484
v 103.764404 -8.027756 53.439484
v 94.225502 -11.417908 53.439484
v 97.299881 -14.492279 33.944366
v 103.764404 -8.027756 53.439484
v 100.690025 -4.953369 53.439484
v 103.764404 -8.027756 33.944366
v 97.299881 -14.492279 33.944366
v 100.690025 -4.953369 33.944366
v 103.764404 -8.027756 33.944366
v 94.225502 -11.417908 79.168915
v 97.299881 -14.492279 59.673798
v 97.299881 -14.492279 79.168915
v 103.764404 -8.027756 79.168915
v 94.225502 -11.417908 79.168915
v 97.299881 -14.492279 59.673798
v 103.764404 -8.027756 79.168915
v 100.690025 -4.953369 79.168915
v 103.764404 -8.027756 59.673798
v 97.299881 -14.492279 59.673798
v 100.690025 -4.953369 59.673798
v 103.764404 -8.027756 59.673798
v 94.225502 -11.417908 3.088440
v 97.253426 -10.967667 23.088440
v 94.253426 -10.967667 3.088440
v 94.253426 -10.967667 23.088440
v 97.253426 -10.967667 3.088440
v 97.253426 -7.967667 23.088440
v 97.253426 -10.967667 3.088440
v 97.253426 -10.967667 23.088440
v 97.253426 -7.967667 3.088440
v 94.253426 -7.967667 23.088440
v 97.253426 -7.967667 3.088440
v 97.253426 -7.967667 23.088440
v 94.253426 -7.967667 -18.305573
v 97.253426 -10.967667 1.694427
v 94.253426 -10.967667 -18.305573
v 94.253426 -10.967667 1.694427
v 97.253426 -10.967667 -18.305573
v 97.253426 -7.967667 1.694427
v 97.253426 -10.967667 -18.305573
v 97.253426 -10.967667 1.694427
v 97.253426 -7.967667 -18.305573
v 94.253426 -7.967667 1.694427
v 97.253426 -7.967667 -18.305573
v 97.253426 -7.967667 1.694427
v 94.253426 -7.967667 0.191374

vt 0.013119 0.808627
vt 0.367535 0.987459
vt 0.013118 0.987461
vt 0.367535 0.941483
vt 0.442544 0.013933
vt 0.442544 0.941483
vt 0.935798 0.941483
vt 0.935798 0.646577
vt 0.013680 0.688300
vt 0.013680 0.646577
vt 0.291452 0.688300
vt 0.291452 0.772798
vt 0.013680 0.731076
vt 0.013680 0.772798
vt 0.291452 0.731076
vt 0.291452 0.646577
vt 0.013680 0.688300
vt 0.013680 0.646577
vt 0.291452 0.688300
vt 0.291452 0.772798
vt 0.013680 0.731076
vt 0.013680 0.772798
vt 0.291452 0.731076
vt 0.291452 0.591052
vt 0.326448 0.591052
vt 0.368809 0.685409
vt 0.326448 0.685409
vt 0.368809 0.491856
vt 0.326448 0.491857
vt 0.368809 0.778957
vt 0.326448 0.778957
vt 0.368809 0.611809
vt 0.015935 0.538059
vt 0.015936 0.611809
vt 0.076027 0.538059
vt 0.076028 0.476744
vt 0.076028 0.398989
vt 0.076028 0.538059
vt 0.293994 0.538059
vt 0.293994 0.611809
vt 0.015935 0.538059
vt 0.015936 0.611809
vt 0.076027 0.538059
vt 0.076028 0.476744
vt 0.076028 0.398989
vt 0.076028 0.538059
vt 0.293995 0.538059
vt 0.293995 0.506187
vt 0.044356 0.454273
vt 0.044356 0.454273
vt 0.018104 0.506187
vt 0.018103 0.402359
vt 0.044356 0.402358
vt 0.018104 0.020050
vt 0.367114 0.020050
vt 0.367114 0.506187
vt 0.044356 0.454273
vt 0.044356 0.454273
vt 0.018104 0.506187
vt 0.018103 0.402359
vt 0.044356 0.402358
vt 0.018104 0.020050
vt 0.367114 0.020050
vt 0.367114 0.506187
vt 0.044356 0.454273
vt 0.044356 0.454273
vt 0.018104 0.506187
vt 0.018103 0.402359
vt 0.044356 0.402358
vt 0.018104 0.020050
vt 0.367114 0.020050
vt 0.367114 0.506187
vt 0.044356 0.454273
vt 0.044356 0.454273
vt 0.018104 0.506187
vt 0.018103 0.402359
vt 0.044356 0.402358
vt 0.018104 0.020050
vt 0.367114 0.020050
vt 0.367114 0.941483
vt 0.935798 0.013933
vt 0.935798 0.941483
vt 0.981033 0.013933
vt 0.981033 0.941483
vt 0.910381 0.013933
vt 0.910381 0.990931
vt 0.391739 0.970667
vt 0.391739 0.990931
vt 0.391739 0.954318
vt 0.407461 0.990931
vt 0.406485 0.970667
vt 0.406485 0.990931
vt 0.413967 0.970667
vt 0.413967 0.990931
vt 0.938538 0.970667
vt 0.938538 0.990931
vt 0.938538 0.954318
vt 0.954260 0.990931
vt 0.953284 0.970667
vt 0.953284 0.990931
vt 0.960766 0.970667
vt 0.960766 0.563887
vt 0.990708 0.560453
vt 0.990708 0.563887
vt 0.987348 0.560453
vt 0.987348 0.703071
vt 0.987343 0.699939
vt 0.987343 0.703071
vt 0.990703 0.699939
vt 0.990703 0.737534
vt 0.990708 0.734100
vt 0.990708 0.737534
vt 0.987348 0.734100
vt 0.987348 0.876718
vt 0.987343 0.873585
vt 0.987343 0.876718
vt 0.990703 0.873585
vt 0.990703 0.941483
vt 0.397344 0.013933
vt 0.397344 0.985277
vt 0.442544 0.985277
vt 0.935798 0.941483
vt 0.442544 0.985277
vt 0.442544 0.941483
vt 0.442544 0.985277
vt 0.935798 0.013933
vt 0.935798 0.941483
vt 0.981033 0.013933
vt 0.981033 0.941483
vt 0.935798 0.013933
vt 0.935798 0.941483
vt 0.442544 0.941483
vt 0.935798 0.013933
vt 0.442544 0.731076
vt 0.291452 0.688301
vt 0.013680 0.688301
vt 0.291452 0.731076
vt 0.013680 0.731076
vt 0.291452 0.688300
vt 0.013680 0.731076
vt 0.013680 0.688300
vt 0.291452 0.731076
vt 0.291452 0.688301
vt 0.013680 0.688301
vt 0.291452 0.731076
vt 0.013680 0.731076
vt 0.291452 0.688300
vt 0.013680 0.731076
vt 0.013680 0.688300
vt 0.291452 0.591051
vt 0.326448 0.591052
vt 0.368809 0.685409
vt 0.326448 0.685409
vt 0.368809 0.397499
vt 0.368809 0.491857
vt 0.326448 0.397499
vt 0.326448 0.491857
vt 0.368809 0.476744
vt 0.293995 0.398989
vt 0.293995 0.476743
vt 0.076028 0.538059
vt 0.076027 0.476743
vt 0.293995 0.476743
vt 0.076028 0.476743
vt 0.293995 0.538059
vt 0.076027 0.538059
vt 0.076027 0.611809
vt 0.293994 0.538059
vt 0.293994 0.611809
vt 0.076027 0.538059
vt 0.076028 0.611809
vt 0.015935 0.611809
vt 0.076027 0.538059
vt 0.015936 0.476744
vt 0.293995 0.398989
vt 0.293995 0.476744
vt 0.076028 0.538059
vt 0.076028 0.476744
vt 0.293995 0.476744
vt 0.076028 0.476744
vt 0.293995 0.538059
vt 0.076028 0.538059
vt 0.076027 0.611809
vt 0.293994 0.538059
vt 0.293994 0.611809
vt 0.076027 0.538059
vt 0.076028 0.611809
vt 0.015935 0.611809
vt 0.076027 0.538059
vt 0.015936 0.368258
vt 0.367124 0.368259
vt 0.019689 0.020052
vt 0.019446 0.368259
vt 0.019689 0.020052
vt 0.019446 0.454273
vt 0.018104 0.454273
vt 0.044356 0.368258
vt 0.367124 0.368258
vt 0.367124 0.368259
vt 0.019689 0.020052
vt 0.019446 0.368259
vt 0.019689 0.020052
vt 0.019446 0.454273
vt 0.018104 0.454273
vt 0.044356 0.368258
vt 0.367124 0.368258
vt 0.367124 0.368259
vt 0.019689 0.020052
vt 0.019446 0.368259
vt 0.019689 0.020052
vt 0.019446 0.454273
vt 0.018104 0.454273
vt 0.044356 0.368258
vt 0.367124 0.368258
vt 0.367124 0.368259
vt 0.019689 0.020052
vt 0.019446 0.368259
vt 0.019689 0.020052
vt 0.019446 0.454273
vt 0.018104 0.454273
vt 0.044356 0.368258
vt 0.367124 0.013933
vt 0.925587 0.941483
vt 0.925587 0.970667
vt 0.406485 0.990931
vt 0.406485 0.970667
vt 0.407461 0.954318
vt 0.412836 0.970667
vt 0.412836 0.990931
vt 0.406485 0.970667
vt 0.391739 0.970667
vt 0.406485 0.970667
vt 0.407461 0.954318
vt 0.412836 0.970667
vt 0.412836 0.954318
vt 0.407461 0.970667
vt 0.953284 0.990931
vt 0.953284 0.970667
vt 0.954260 0.954318
vt 0.959636 0.970667
vt 0.959636 0.990931
vt 0.953284 0.970667
vt 0.938538 0.970667
vt 0.953284 0.970667
vt 0.954260 0.954318
vt 0.959636 0.970667
vt 0.959636 0.954318
vt 0.954260 0.699939
vt 0.990703 0.560453
vt 0.987348 0.699939
vt 0.987343 0.560453
vt 0.990708 0.699939
vt 0.990703 0.560453
vt 0.987348 0.699939
vt 0.987343 0.560453
vt 0.990708 0.699939
vt 0.990703 0.560453
vt 0.987348 0.699939
vt 0.987343 0.560453
vt 0.990708 0.873585
vt 0.990703 0.734100
vt 0.987348 0.873585
vt 0.987343 0.734100
vt 0.990708 0.873585
vt 0.990703 0.734100
vt 0.987348 0.873585
vt 0.987343 0.734100
vt 0.990708 0.873585
vt 0.990703 0.734100
vt 0.987348 0.873585
vt 0.987343 0.734100
vt 0.990708 1.000000

f 230/230 231/231 232/232
f 231/231 230/230 89/89
f 242/242 243/243 244/244
f 243/243 242/242 97/97
f 257/257 258/258 259/259
f 258/258 257/257 260/260
f 269/269 270/270 271/271
f 270/270 269/269 272/272
f 225/225 88/88 237/237
f 237/237 96/96 249/249
f 249/249 252/252 261/261
f 1/1 227/227 228/228
f 229/229 228/228 227/227
