# MOD converted: pr_etc_e0_101_n.mod
# 142 verts, 40 faces

v 212.676224 0.001606 -0.001615
v 212.676224 -6.043501 6.043491
v 212.676224 -0.001624 0.001614
v 212.676224 6.043482 -6.310634
v 235.126419 0.001677 -0.001686
v 235.126419 -6.310644 6.310634
v 235.126419 -0.001695 0.001686
v 235.126419 6.310626 -0.000000
v 240.337677 -0.000009 -0.002668
v 219.856827 -9.984308 -9.984299
v 219.856827 0.002659 9.984299
v 219.856827 -0.002677 0.002667
v 219.856827 9.984290 -0.001486
v 207.698318 -5.559416 -5.559407
v 207.698318 0.001476 0.001485
v 207.698318 5.559397 5.559406
v 207.698318 -0.001495 -3.838674
v 174.640244 -3.915001 -3.836547
v 174.640244 4.045431 4.123885
v 174.640244 4.043303 4.121757
v 174.640244 -3.917129 -3.838650
v 8.486749 -3.915022 -3.836522
v 8.486749 4.045410 4.123909
v 8.486749 4.043282 4.121781
v 8.486763 -3.917151 -7.779915
v 5.652387 -7.854182 -7.775681
v 5.652387 7.986675 8.065175
v 5.652387 7.982440 8.060940
v 5.652387 -7.858417 -10.595106
v 0.023512 -10.667868 -10.589365
v 0.023512 10.801865 10.880366
v 0.023512 10.796124 10.874625
v 0.023512 -10.673608 -6.087495
v 180.233582 6.297583 -6.090827
v 180.233582 -6.165949 6.372705
v 180.233582 -6.169281 6.376037
v 180.233582 6.294251 -6.087497
v 207.970810 6.297585 -6.090828
v 207.970810 -6.165947 6.372703
v 207.970810 -6.169279 6.376035
v 207.970810 6.294252 -5.552616
v 193.569504 0.406739 -5.554061
v 198.973862 -4.997615 -5.552617
v 204.378220 0.406739 -5.551171
v 198.973862 5.811094 -26.452126
v 215.374146 0.412328 -29.550495
v 210.947144 5.817511 -32.651749
v 206.520157 0.413984 -29.553385
v 210.947159 -4.991199 -49.770454
v 253.852936 0.418571 -52.917389
v 250.100845 5.823767 -56.067211
v 246.348755 0.420253 -52.920280
v 250.100845 -4.984942 -63.160091
v 259.786072 0.422154 -64.557388
v 254.565872 5.826882 -65.957588
v 249.345657 0.422901 -64.560280
v 254.565872 -4.981827 -69.977982
v 255.466110 0.423974 5.910741
v 198.973862 5.808031 5.909298
v 204.378220 0.403676 5.907855
v 198.973862 -5.000679 5.909297
v 193.569504 0.403676 26.808811
v 215.374146 0.398094 29.910067
v 210.947144 5.801621 33.008434
v 206.520157 0.396437 29.907179
v 210.947159 -5.007090 50.127140
v 253.852936 0.391873 53.276966
v 250.100845 5.795387 56.423901
v 246.348755 0.390190 53.274075
v 250.100845 -5.013323 63.516773
v 259.786072 0.388300 64.916962
v 254.565872 5.792282 66.314270
v 249.345657 0.387552 64.914070
v 254.565872 -5.016429 70.334671
v 255.466110 0.386476 -0.002668
v 219.856827 -9.984308 -0.001615
v 212.676224 -6.043501 9.984299
v 219.856827 -0.002677 6.043491
v 212.676224 -0.001624 -6.043491
v 212.676224 0.001606 0.002667
v 219.856827 9.984290 -9.984299
v 219.856827 0.002659 0.001614
v 212.676224 6.043482 -0.001686
v 235.126419 -6.310644 -0.000000
v 240.337677 -0.000009 6.310634
v 235.126419 -0.001695 -0.000000
v 240.337677 -0.000009 0.001686
v 235.126419 6.310626 -0.000000
v 240.337677 -0.000009 -6.310634
v 235.126419 0.001677 -5.559407
v 207.698318 0.001476 0.001485
v 207.698318 5.559397 -0.001486
v 207.698318 -5.559416 5.559406
v 207.698318 -0.001495 -3.836547
v 174.640244 4.045431 -3.836522
v 8.486749 4.045410 4.123885
v 174.640244 4.043303 4.123909
v 8.486749 4.043282 4.121757
v 174.640244 -3.917129 -3.838650
v 8.486749 -3.915022 -3.838674
v 174.640244 -3.915001 4.121781
v 8.486763 -3.917151 -3.838650
v 8.486749 -3.915022 -3.836522
v 8.486749 4.045410 -3.836522
v 8.486749 4.045410 4.123909
v 8.486749 4.043282 -7.775681
v 5.652387 7.986675 4.123909
v 8.486749 4.043282 4.121781
v 8.486763 -3.917151 8.065175
v 5.652387 7.982440 4.121781
v 8.486763 -3.917151 -7.779915
v 5.652387 -7.854182 -3.838650
v 8.486749 -3.915022 8.060940
v 5.652387 -7.858417 -10.589365
v 0.023512 10.801865 10.880366
v 0.023512 10.796124 -10.595106
v 0.023512 -10.667868 10.874625
v 0.023512 -10.673608 -3.836547
v 174.640244 4.045431 -3.838674
v 174.640244 -3.915001 -3.838674
v 174.640244 -3.915001 4.121757
v 174.640244 -3.917129 -6.090827
v 180.233582 -6.165949 4.121757
v 174.640244 -3.917129 4.123885
v 174.640244 4.043303 6.372705
v 180.233582 -6.169281 4.123885
v 174.640244 4.043303 -6.087495
v 180.233582 6.297583 -3.836547
v 174.640244 4.045431 6.376037
v 180.233582 6.294251 -6.090828
v 207.970810 -6.165947 -6.087497
v 207.970810 6.297585 6.372703
v 207.970810 -6.169279 -6.090828
v 207.970810 -6.165947 6.376035
v 207.970810 6.294252 6.372703
v 207.970810 -6.169279 -6.087497
v 207.970810 6.297585 6.376035
v 207.970810 6.294252 10.880366
v 0.023512 10.796124 -10.595106
v 0.023512 -10.667868 10.874625
v 0.023512 -10.673608 -10.589365
v 0.023512 10.801865 0.836937

vt 0.437321 0.334367
vt 0.437321 0.334367
vt 0.437321 0.163063
vt 0.437321 0.166097
vt 0.887720 0.332460
vt 0.887720 0.332460
vt 0.887720 0.166097
vt 0.887720 0.246847
vt 0.992269 0.391436
vt 0.581379 0.110355
vt 0.581379 0.391436
vt 0.581379 0.110355
vt 0.581379 0.334367
vt 0.340334 0.163063
vt 0.340334 0.334367
vt 0.340334 0.334367
vt 0.340334 0.012289
vt 0.998665 0.090734
vt 0.998665 0.090734
vt 0.998665 0.012289
vt 0.998665 0.012289
vt 0.003995 0.090734
vt 0.003995 0.090734
vt 0.003995 0.012289
vt 0.003995 0.327346
vt 0.132492 0.650305
vt 0.132492 0.650305
vt 0.132492 0.327346
vt 0.132492 0.258610
vt 0.012429 0.715191
vt 0.012429 0.715191
vt 0.012429 0.258610
vt 0.012429 0.992666
vt 0.595415 0.737955
vt 0.595415 0.992666
vt 0.595415 0.992666
vt 0.595415 0.576671
vt 0.998503 0.678385
vt 0.896789 0.576671
vt 0.795074 0.474956
vt 0.896789 0.223977
vt 0.093057 0.223977
vt 0.150998 0.223977
vt 0.206336 0.223977
vt 0.150998 0.391926
vt 0.376898 0.434773
vt 0.315705 0.477620
vt 0.254513 0.434773
vt 0.315705 0.714246
vt 0.908775 0.757764
vt 0.856911 0.801283
vt 0.805047 0.757764
vt 0.856911 0.899325
vt 0.990786 0.918660
vt 0.918629 0.937994
vt 0.846473 0.918660
vt 0.918629 0.993566
vt 0.931073 0.223977
vt 0.150998 0.223977
vt 0.206336 0.223977
vt 0.150998 0.223977
vt 0.093908 0.391926
vt 0.376898 0.434773
vt 0.315705 0.477620
vt 0.254513 0.434773
vt 0.315705 0.714246
vt 0.908775 0.757764
vt 0.856911 0.801283
vt 0.805047 0.757764
vt 0.856911 0.899325
vt 0.990786 0.918660
vt 0.918629 0.937994
vt 0.846473 0.918660
vt 0.918629 0.993566
vt 0.931073 0.110355
vt 0.581379 0.163063
vt 0.437321 0.391436
vt 0.581379 0.334367
vt 0.437321 0.163063
vt 0.437321 0.391436
vt 0.581379 0.110355
vt 0.581379 0.334367
vt 0.437321 0.166097
vt 0.887720 0.246847
vt 0.992269 0.332460
vt 0.887720 0.246847
vt 0.992269 0.332460
vt 0.887720 0.246847
vt 0.992269 0.166097
vt 0.887720 0.163063
vt 0.340334 0.163063
vt 0.340334 0.163063
vt 0.340334 0.334367
vt 0.340334 0.012289
vt 0.998665 0.012289
vt 0.003995 0.090734
vt 0.998665 0.090734
vt 0.003995 0.090734
vt 0.998665 0.012289
vt 0.003995 0.012289
vt 0.998665 0.090734
vt 0.003995 0.403239
vt 0.190524 0.571525
vt 0.190524 0.403239
vt 0.190524 0.571525
vt 0.190524 0.327346
vt 0.132492 0.571525
vt 0.190524 0.403239
vt 0.190524 0.650305
vt 0.132492 0.571525
vt 0.190524 0.327346
vt 0.132492 0.403239
vt 0.190524 0.650305
vt 0.132492 0.258610
vt 0.012429 0.715191
vt 0.012429 0.258610
vt 0.012429 0.715191
vt 0.012429 0.945182
vt 0.713824 0.809840
vt 0.713824 0.809840
vt 0.713824 0.945182
vt 0.713824 0.737955
vt 0.595415 0.809840
vt 0.713824 0.945182
vt 0.713824 0.737955
vt 0.595415 0.945182
vt 0.713824 0.737955
vt 0.595415 0.809840
vt 0.713824 0.992666
vt 0.595415 0.737955
vt 0.008227 0.992666
vt 0.008227 0.992666
vt 0.008227 0.737955
vt 0.008227 0.992666
vt 0.008227 0.737955
vt 0.008227 0.737955
vt 0.008227 0.992666
vt 0.008227 0.713285
vt 0.362801 0.552459
vt 0.199696 0.713285
vt 0.199696 0.552459
vt 0.362801 1.000000

f 2/2 11/11 10/10
f 11/11 2/2 1/1
f 3/3 76/76 12/12
f 76/76 3/3 77/77
f 4/4 78/78 13/13
f 78/78 4/4 79/79
f 80/80 81/81 82/82
f 81/81 80/80 83/83
f 5/5 9/9 6/6
f 84/84 85/85 7/7
f 86/86 87/87 8/8
f 88/88 89/89 90/90
f 6/6 11/11 5/5
f 11/11 6/6 10/10
f 7/7 76/76 84/84
f 76/76 7/7 12/12
f 8/8 78/78 86/86
f 78/78 8/8 13/13
f 90/90 81/81 88/88
f 81/81 90/90 82/82
f 18/18 23/23 19/19
f 23/23 18/18 22/22
f 95/95 24/24 20/20
f 24/24 95/95 96/96
f 97/97 25/25 21/21
f 25/25 97/97 98/98
f 99/99 100/100 101/101
f 100/100 99/99 102/102
f 2/2 14/14 80/80
f 80/80 91/91 4/4
f 4/4 92/92 3/3
f 3/3 94/94 41/41
f 41/41 40/40 119/119
f 119/119 34/34 121/121
f 121/121 123/123 124/124
f 124/124 126/126 127/127
f 127/127 130/130 34/34
f 34/34 132/132 123/123
f 123/123 134/134 126/126
f 126/126 136/136 130/130
