# MOD converted: pr_etc_e0_102_n.mod
# 381 verts, 173 faces

v 108.404175 38.156113 -68.935394
v 78.869675 48.669968 31.708908
v 74.392303 50.605427 38.888023
v 40.072144 36.244541 -32.395859
v 82.710358 42.233253 99.567184
v 46.817478 38.937008 53.512127
v 109.886810 23.286634 31.213909
v 102.659622 29.683828 59.466961
v 57.859329 65.359085 5.432506
v 18.994772 62.424393 -78.561356
v 20.144592 42.541862 85.756073
v 28.581240 51.098991 -21.910540
v 25.133257 64.091499 31.010914
v 25.133249 64.091476 -22.359253
v 40.496674 45.833179 47.420109
v 108.046272 29.496235 40.516182
v 101.726418 26.435680 40.516171
v 114.366127 25.037447 27.829876
v 119.039314 67.055725 14.284632
v 130.696945 21.660254 1.626689
v 118.732666 29.709513 11.409199
v 112.781586 20.308439 0.434307
v 100.473549 21.659916 -99.787239
v 62.126701 -0.261280 -58.973236
v 82.718193 -0.261040 22.252249
v 128.660339 -0.260492 82.732513
v 99.152519 -0.260848 31.711020
v 101.944260 -0.260803 38.939152
v 40.035305 -0.261512 -26.332249
v 40.557320 -0.261557 -32.324379
v 82.652550 -0.261079 -87.522583
v 16.666840 -0.261810 41.917706
v 108.404182 -38.677559 35.855221
v 132.649826 -0.260445 28.564434
v 134.828354 -0.260420 -68.935333
v 78.869675 -49.192135 31.708960
v 74.392303 -51.127647 38.888062
v 40.072155 -36.767563 -32.395802
v 82.710358 -42.755402 111.879181
v 66.162735 -0.261195 99.044800
v 16.761782 -0.261770 99.567215
v 46.817490 -39.459846 53.512180
v 109.886810 -23.808029 31.213961
v 102.659630 -30.205406 59.467014
v 57.859341 -65.881691 5.432544
v 18.994783 -62.948006 -78.561310
v 20.144602 -43.065388 85.756119
v 28.581247 -51.622261 -21.910488
v 25.133270 -64.614883 31.010963
v 25.133261 -64.614845 -22.359201
v 40.496681 -46.356258 -62.276073
v 123.710365 -0.260562 24.115913
v 133.427765 -53.143978 12.304672
v 121.923088 -71.999939 41.832741
v 119.234947 -64.871201 35.927105
v 113.949478 -42.728054 24.115917
v 102.023643 -61.698730 47.420174
v 108.046272 -30.017672 40.516247
v 101.726410 -26.957279 40.516232
v 114.366127 -25.558752 25.746958
v 119.039314 -67.028313 11.956417
v 138.052383 -0.260421 16.744087
v 128.822891 -0.260528 16.861208
v 141.064743 -0.260385 14.284695
v 130.696930 -22.181253 1.626750
v 118.732674 -30.230778 11.409248
v 112.781586 -20.829832 0.434356
v 100.473549 -22.181620 -9.010555
v 94.107750 -0.260933 -8.703007
v 99.412964 -0.260871 2.222339
v 101.662804 -0.260845 59.739468
v 83.461227 0.000922 59.319492
v 76.697655 3.025628 59.319530
v 76.697647 -3.426550 2.478343
v 122.426849 -0.265187 0.237598
v 118.410492 3.357928 0.237590
v 118.410500 -4.567523 3.538288
v 116.576088 -4.411310 3.504070
v 116.535339 3.047410 -6.101948
v 95.151016 -0.269071 9.581657
v 126.408150 -21.173674 5.456924
v 120.104790 -0.366234 9.572758
v 126.416695 20.870132 3.538288
v 116.576088 -4.411290 3.504093
v 116.535339 3.047390 5.456951
v 120.104790 -0.366234 26.198935
v 133.427765 51.899578 14.387680
v 121.923065 70.755280 43.915749
v 119.234924 63.626488 38.010113
v 113.949471 41.483219 26.198912
v 102.023636 60.453602 11.409199
v 112.781586 20.308439 1.626689
v 118.732666 29.709513 1.626750
v 118.732674 -30.230778 11.409248
v 112.781586 -20.829832 1.626689
v 118.732666 29.709513 11.409199
v 112.781586 20.308439 11.409248
v 112.781586 -20.829832 1.626750
v 118.732674 -30.230778 1.626689
v 118.732666 29.709513 11.409199
v 112.781586 20.308439 0.434307
v 100.473549 21.659916 1.626750
v 118.732674 -30.230778 11.409248
v 112.781586 -20.829832 0.434356
v 100.473549 -22.181620 2.222339
v 101.662804 -0.260845 2.222339
v 101.662804 -0.260845 2.222339
v 101.662804 -0.260845 -32.395859
v 82.710358 42.233253 31.708908
v 74.392303 50.605427 31.213909
v 102.659622 29.683828 22.252249
v 128.660339 -0.260492 99.044800
v 16.761782 -0.261770 85.756073
v 28.581240 51.098991 5.432506
v 18.994772 62.424393 -78.561356
v 20.144592 42.541862 -87.522583
v 16.666840 -0.261810 31.213909
v 102.659622 29.683828 -32.395859
v 82.710358 42.233253 31.711020
v 101.944260 -0.260803 47.420109
v 108.046272 29.496235 27.829876
v 119.039314 67.055725 27.829876
v 119.039314 67.055725 40.516171
v 114.366127 25.037447 40.516182
v 101.726418 26.435680 11.956417
v 138.052383 -0.260421 1.626689
v 118.732666 29.709513 1.626689
v 118.732666 29.709513 -8.703007
v 99.412964 -0.260871 -58.973236
v 82.718193 -0.261040 82.732513
v 99.152519 -0.260848 -32.395802
v 82.710358 -42.755402 31.708960
v 74.392303 -51.127647 99.044800
v 16.761782 -0.261770 111.879181
v 66.162735 -0.261195 22.252249
v 128.660339 -0.260492 35.855221
v 132.649826 -0.260445 28.564434
v 134.828354 -0.260420 31.213961
v 102.659630 -30.205406 22.252249
v 128.660339 -0.260492 -87.522583
v 16.666840 -0.261810 99.044800
v 16.761782 -0.261770 85.756119
v 28.581247 -51.622261 5.432544
v 18.994783 -62.948006 -99.787239
v 62.126701 -0.261280 -78.561310
v 20.144602 -43.065388 -87.522583
v 16.666840 -0.261810 31.213961
v 102.659630 -30.205406 38.939152
v 40.035305 -0.261512 31.711020
v 101.944260 -0.260803 -32.324379
v 82.652550 -0.261079 -32.395802
v 82.710358 -42.755402 -58.973236
v 82.718193 -0.261040 31.711020
v 101.944260 -0.260803 -62.276073
v 123.710365 -0.260562 -26.332249
v 40.557320 -0.261557 24.115913
v 133.427765 -53.143978 41.832741
v 119.234947 -64.871201 12.304672
v 121.923088 -71.999939 41.832741
v 119.234947 -64.871201 41.832741
v 119.234947 -64.871201 35.927105
v 113.949478 -42.728054 24.115917
v 102.023643 -61.698730 35.927105
v 113.949478 -42.728054 12.304672
v 121.923088 -71.999939 24.115917
v 102.023643 -61.698730 24.115913
v 133.427765 -53.143978 47.420174
v 108.046272 -30.017672 25.746958
v 119.039314 -67.028313 25.746958
v 119.039314 -67.028313 40.516247
v 101.726410 -26.957279 40.516232
v 114.366127 -25.558752 16.861208
v 141.064743 -0.260385 11.956417
v 138.052383 -0.260421 11.956417
v 138.052383 -0.260421 1.626750
v 118.732674 -30.230778 16.744087
v 128.822891 -0.260528 -8.703007
v 99.412964 -0.260871 -9.010555
v 94.107750 -0.260933 2.222339
v 101.662804 -0.260845 1.626750
v 118.732674 -30.230778 -8.703007
v 99.412964 -0.260871 2.222339
v 101.662804 -0.260845 59.319492
v 76.697655 3.025628 0.237598
v 118.410492 3.357928 2.478343
v 122.426849 -0.265187 59.319530
v 76.697647 -3.426550 0.237590
v 118.410500 -4.567523 59.739468
v 83.461227 0.000922 2.478343
v 122.426849 -0.265187 0.237590
v 118.410500 -4.567523 0.237598
v 118.410492 3.357928 3.538288
v 116.576088 -4.411290 -6.101948
v 95.151016 -0.269071 3.504070
v 116.535339 3.047410 5.456924
v 120.104790 -0.366234 9.581657
v 126.408150 -21.173674 3.538288
v 116.576088 -4.411310 3.504093
v 116.535339 3.047390 9.572758
v 126.416695 20.870132 5.456951
v 120.104790 -0.366234 -58.973236
v 82.718193 -0.261040 26.198935
v 133.427765 51.899578 43.915749
v 119.234924 63.626488 14.387680
v 121.923065 70.755280 43.915749
v 119.234924 63.626488 43.915749
v 119.234924 63.626488 26.198912
v 102.023636 60.453602 38.010113
v 113.949471 41.483219 38.010113
v 113.949471 41.483219 14.387680
v 121.923065 70.755280 26.198935
v 133.427765 51.899578 26.198912
v 102.023636 60.453602 0.625081
v 24.033989 20.189234 7.640198
v 24.033989 20.189234 -6.622334
v 38.673267 20.189272 7.640198
v 38.673267 20.189272 -6.622334
v 24.033951 -21.096363 7.640198
v 24.033951 -21.096363 -6.622334
v 38.673229 -21.096325 7.640198
v 38.673229 -21.096325 7.640198
v 24.033951 -21.096363 -6.622334
v 24.033989 20.189234 -6.622334
v 24.033951 -21.096363 7.640198
v 24.033989 20.189234 7.640198
v 38.673229 -21.096325 7.640198
v 24.033989 20.189234 7.640198
v 24.033951 -21.096363 7.640198
v 38.673267 20.189272 -6.622334
v 38.673229 -21.096325 7.640198
v 38.673267 20.189272 7.640198
v 38.673229 -21.096325 -6.622334
v 38.673267 20.189272 -6.622334
v 24.033951 -21.096363 -6.622334
v 38.673267 20.189272 -6.622334
v 38.673229 -21.096325 -6.622334
v 24.033989 20.189234 1.000000
v 27.211729 70.068420 -35.028233
v 53.898785 70.068565 -65.630966
v 53.789005 70.068565 -80.870529
v 26.907728 70.068459 -65.265427
v 0.220675 70.068314 -34.662708
v 0.330451 70.068314 87.936043
v 27.211733 70.068443 72.330956
v 53.898788 70.068565 41.728218
v 53.789009 70.068565 26.488646
v 26.907732 70.068459 42.093750
v 0.220676 70.068314 72.696465
v 0.330456 70.068314 -19.423084
v 27.211884 -70.592072 -35.028175
v 53.898933 -70.591965 -65.630890
v 53.789154 -70.591972 -80.870476
v 26.907879 -70.592117 -65.265381
v 0.220832 -70.592224 -34.662666
v 0.330604 -70.592201 87.936089
v 27.211884 -70.592049 72.331001
v 53.898937 -70.591934 41.728271
v 53.789158 -70.591942 26.488697
v 26.907879 -70.592094 42.093800
v 0.220835 -70.592186 72.696503
v 0.330614 -70.592171 -35.028217
v 53.898907 -48.017208 -65.630951
v 53.789127 -48.017208 -65.265419
v 0.220800 -48.017445 -34.662697
v 0.330576 -48.017452 -19.423122
v 27.211855 -48.017323 -80.870514
v 26.907852 -48.017303 72.330963
v 53.898911 -48.017178 41.728233
v 53.789131 -48.017178 42.093761
v 0.220805 -48.017422 72.696480
v 0.330585 -48.017422 87.936058
v 27.211863 -48.017300 26.488659
v 26.907858 -48.017273 -35.028198
v 53.898808 46.946632 -65.630928
v 53.789028 46.946617 -65.265404
v 0.220708 46.946384 -34.662689
v 0.330480 46.946396 -18.861580
v 27.211760 46.946522 -80.870491
v 26.907757 46.946468 72.330978
v 53.898811 46.946655 41.728249
v 53.789032 46.946655 42.093773
v 0.220706 46.946407 72.696480
v 0.330486 46.946423 87.936073
v 27.211760 46.946548 26.488672
v 26.907755 46.946507 -35.028175
v 53.898933 -70.591965 -65.630890
v 53.789154 -70.591972 -65.265381
v 0.220832 -70.592224 -34.662666
v 0.330604 -70.592201 -35.028217
v 53.898907 -48.017208 -65.630951
v 53.789127 -48.017208 -65.265419
v 0.220800 -48.017445 -34.662697
v 0.330576 -48.017452 72.331001
v 53.898937 -70.591934 41.728271
v 53.789158 -70.591942 42.093800
v 0.220835 -70.592186 72.696503
v 0.330614 -70.592171 72.330963
v 53.898911 -48.017178 41.728233
v 53.789131 -48.017178 42.093761
v 0.220805 -48.017422 72.696480
v 0.330585 -48.017422 -19.423084
v 27.211884 -70.592072 -35.028217
v 53.898907 -48.017208 -19.423122
v 27.211855 -48.017323 -35.028175
v 53.898933 -70.591965 -80.870476
v 26.907879 -70.592117 -65.630951
v 53.789127 -48.017208 -65.630890
v 53.789154 -70.591972 -80.870514
v 26.907852 -48.017303 -80.870476
v 26.907879 -70.592117 -65.265419
v 0.220800 -48.017445 -80.870514
v 26.907852 -48.017303 -65.265381
v 0.220832 -70.592224 -19.423084
v 27.211884 -70.592072 -34.662697
v 0.330576 -48.017452 -34.662666
v 0.330604 -70.592201 -19.423122
v 27.211855 -48.017323 87.936089
v 27.211884 -70.592049 72.330963
v 53.898911 -48.017178 87.936058
v 27.211863 -48.017300 72.331001
v 53.898937 -70.591934 26.488697
v 26.907879 -70.592094 41.728233
v 53.789131 -48.017178 41.728271
v 53.789158 -70.591942 26.488659
v 26.907858 -48.017273 26.488697
v 26.907879 -70.592094 42.093761
v 0.220805 -48.017422 26.488659
v 26.907858 -48.017273 42.093800
v 0.220835 -70.592186 87.936089
v 27.211884 -70.592049 72.696480
v 0.330585 -48.017422 72.696503
v 0.330614 -70.592171 87.936058
v 27.211863 -48.017300 -35.028233
v 53.898785 70.068565 -65.630966
v 53.789005 70.068565 -65.265427
v 0.220675 70.068314 -34.662708
v 0.330451 70.068314 -35.028198
v 53.898808 46.946632 -65.630928
v 53.789028 46.946617 -65.265404
v 0.220708 46.946384 -34.662689
v 0.330480 46.946396 72.330956
v 53.898788 70.068565 41.728218
v 53.789009 70.068565 42.093750
v 0.220676 70.068314 72.696465
v 0.330456 70.068314 72.330978
v 53.898811 46.946655 41.728249
v 53.789032 46.946655 42.093773
v 0.220706 46.946407 72.696480
v 0.330486 46.946423 -18.861591
v 27.211729 70.068420 -35.028198
v 53.898808 46.946632 -35.028233
v 53.898785 70.068565 -18.861580
v 27.211760 46.946522 -80.870529
v 26.907728 70.068459 -65.630928
v 53.789028 46.946617 -80.870491
v 26.907757 46.946468 -65.630966
v 53.789005 70.068565 -80.870529
v 26.907728 70.068459 -65.265404
v 0.220708 46.946384 -65.265427
v 0.220675 70.068314 -80.870491
v 26.907757 46.946468 -18.861591
v 27.211729 70.068420 -34.662689
v 0.330480 46.946396 -18.861580
v 27.211760 46.946522 -34.662708
v 0.330451 70.068314 87.936043
v 27.211733 70.068443 72.330978
v 53.898811 46.946655 72.330956
v 53.898788 70.068565 87.936073
v 27.211760 46.946548 26.488646
v 26.907732 70.068459 41.728249
v 53.789032 46.946655 26.488672
v 26.907755 46.946507 41.728218
v 53.789009 70.068565 26.488646
v 26.907732 70.068459 42.093773
v 0.220706 46.946407 42.093750
v 0.220676 70.068314 26.488672
v 26.907755 46.946507 87.936043
v 27.211733 70.068443 72.696480
v 0.330486 46.946423 87.936073
v 27.211760 46.946548 72.696465
v 0.330456 70.068314 0.335097

vt 0.517595 0.755755
vt 0.307781 0.423398
vt 0.747784 0.425658
vt 0.840911 0.257819
vt 0.688178 0.053574
vt 0.143090 0.309744
vt 0.543359 0.222366
vt 0.662279 0.281816
vt 0.225120 0.096578
vt 0.670834 0.096578
vt 0.516258 0.115549
vt 0.813822 0.516747
vt 0.062083 0.355726
vt 0.062083 0.257819
vt 0.817039 0.971918
vt 0.454209 0.931634
vt 0.454209 0.931634
vt 0.454209 0.955311
vt 0.608145 0.572958
vt 0.610570 0.611762
vt 0.534643 0.534631
vt 0.534386 0.577812
vt 0.456310 0.994779
vt 0.232207 0.018472
vt 0.952003 0.313438
vt 0.696227 0.084306
vt 0.435761 0.662298
vt 0.952003 0.423985
vt 0.952003 0.257819
vt 0.952003 0.089733
vt 0.952003 0.001749
vt 0.496390 0.374919
vt 0.517595 0.385702
vt 0.644236 0.418611
vt 0.654069 0.755755
vt 0.307781 0.423398
vt 0.747784 0.425658
vt 0.840911 0.257819
vt 0.688178 0.002955
vt 0.308204 0.002955
vt 0.007005 0.053574
vt 0.143090 0.309744
vt 0.543359 0.222366
vt 0.662279 0.281816
vt 0.225120 0.096578
vt 0.670834 0.096578
vt 0.516258 0.115549
vt 0.813822 0.516747
vt 0.062083 0.355726
vt 0.062083 0.257819
vt 0.817039 0.850739
vt 0.573057 0.476862
vt 0.765639 0.566256
vt 0.765639 0.519792
vt 0.667023 0.568092
vt 0.819242 0.568092
vt 0.819242 0.971918
vt 0.454209 0.931634
vt 0.454209 0.931634
vt 0.454209 0.955311
vt 0.608145 0.618250
vt 0.693249 0.522630
vt 0.652573 0.585472
vt 0.729420 0.572958
vt 0.610570 0.611762
vt 0.534643 0.534631
vt 0.534386 0.577812
vt 0.456310 0.579646
vt 0.362443 0.622670
vt 0.422314 0.502206
vt 0.416883 0.230904
vt 0.994436 0.211597
vt 0.962810 0.230904
vt 0.994436 0.701103
vt 0.994436 0.698595
vt 0.962810 0.701103
vt 0.994436 0.039258
vt 0.997050 0.039258
vt 0.997050 0.206355
vt 0.989828 0.206355
vt 0.989828 0.045210
vt 0.962291 0.206355
vt 0.989828 0.045210
vt 0.962291 0.045210
vt 0.962291 0.039258
vt 0.997050 0.476862
vt 0.765639 0.566256
vt 0.765639 0.519792
vt 0.667023 0.568092
vt 0.819242 0.568092
vt 0.819242 0.534631
vt 0.534386 0.456233
vt 0.543259 0.456233
vt 0.543259 0.534631
vt 0.534386 0.611762
vt 0.534643 0.534631
vt 0.534386 0.534631
vt 0.534386 0.611762
vt 0.534643 0.611762
vt 0.534643 0.534631
vt 0.534386 0.577812
vt 0.456310 0.611762
vt 0.534643 0.534631
vt 0.534386 0.577812
vt 0.456310 0.502206
vt 0.416883 0.502206
vt 0.416883 0.502206
vt 0.416883 0.637433
vt 0.364182 0.425138
vt 0.323883 0.432953
vt 0.504464 0.446901
vt 0.620896 0.001749
vt 0.843284 0.148836
vt 0.039210 0.458957
vt 0.003542 0.784614
vt 0.011755 0.944527
vt 0.014436 0.665043
vt 0.880556 0.088345
vt 0.831114 0.155137
vt 0.616415 0.971918
vt 0.454209 0.955311
vt 0.608145 0.955311
vt 0.608145 0.971918
vt 0.454209 0.931634
vt 0.454209 0.464299
vt 0.689139 0.456233
vt 0.543259 0.456233
vt 0.543259 0.448168
vt 0.394356 0.637433
vt 0.602707 0.084306
vt 0.435761 0.637433
vt 0.364182 0.425138
vt 0.323883 0.002955
vt 0.007005 0.002955
vt 0.308204 0.313438
vt 0.696227 0.385702
vt 0.644236 0.418611
vt 0.654069 0.432953
vt 0.504464 0.446901
vt 0.620896 0.001749
vt 0.496390 0.001749
vt 0.843284 0.148836
vt 0.039210 0.458957
vt 0.003542 0.994779
vt 0.232207 0.784614
vt 0.011755 0.944527
vt 0.014436 0.665043
vt 0.880556 0.423985
vt 0.952003 0.662298
vt 0.952003 0.089733
vt 0.952003 0.088345
vt 0.831114 0.018472
vt 0.952003 0.155137
vt 0.616415 0.850739
vt 0.573057 0.257819
vt 0.952003 0.671855
vt 0.819242 0.625895
vt 0.725659 0.671855
vt 0.819242 0.625895
vt 0.725659 0.519792
vt 0.667023 0.476862
vt 0.765639 0.566256
vt 0.765639 0.245806
vt 0.675826 0.120536
vt 0.808657 0.120536
vt 0.675826 0.245806
vt 0.808657 0.971918
vt 0.454209 0.955311
vt 0.608145 0.955311
vt 0.608145 0.931634
vt 0.454209 0.971918
vt 0.454209 0.585472
vt 0.729420 0.618250
vt 0.693249 0.464299
vt 0.689139 0.456233
vt 0.543259 0.522630
vt 0.652573 0.622670
vt 0.422314 0.579646
vt 0.362443 0.502206
vt 0.416883 0.456233
vt 0.543259 0.448168
vt 0.394356 0.502206
vt 0.416883 0.211597
vt 0.962810 0.698595
vt 0.962810 0.701103
vt 0.994436 0.211597
vt 0.962810 0.698595
vt 0.962810 0.230904
vt 0.994436 0.698602
vt 0.962810 0.701201
vt 0.994436 0.726986
vt 0.962810 0.045210
vt 0.962291 0.206355
vt 0.989828 0.039258
vt 0.997050 0.045210
vt 0.962291 0.206355
vt 0.989828 0.039258
vt 0.997050 0.045210
vt 0.962291 0.206355
vt 0.989828 0.039258
vt 0.997050 0.637433
vt 0.602707 0.671855
vt 0.819242 0.625895
vt 0.725659 0.671855
vt 0.819242 0.625895
vt 0.725659 0.519792
vt 0.667023 0.566256
vt 0.765639 0.476862
vt 0.765639 0.245806
vt 0.675826 0.120536
vt 0.808657 0.245806
vt 0.808657 0.120536
vt 0.675826 1.000000
vt 0.000000 1.000000
vt 0.000000 0.000000
vt 1.000000 1.000000
vt 1.000000 1.000000
vt 0.000000 0.000000
vt 0.000000 1.000000
vt 1.000000 0.000000
vt 1.000000 0.000000
vt 1.000000 1.000000
vt 0.000000 1.000000
vt 1.000000 0.000000
vt 0.000000 0.000000
vt 1.000000 1.000000
vt 0.000000 1.000000
vt 1.000000 0.000000
vt 0.000000 0.000000
vt 1.000000 1.000000
vt 0.000000 1.000000
vt 1.000000 0.000000
vt 0.000000 0.000000
vt 1.000000 1.000000
vt 0.000000 1.000000
vt 1.000000 0.000000
vt 0.000000 1.000000
vt 0.733932 0.746719
vt 0.876945 0.909702
vt 0.876945 0.988741
vt 0.733932 0.906499
vt 0.597202 0.745217
vt 0.597202 0.664903
vt 0.733932 0.746719
vt 0.876945 0.909702
vt 0.876945 0.988741
vt 0.733932 0.906499
vt 0.597202 0.745217
vt 0.597202 0.664903
vt 0.733932 0.746719
vt 0.876945 0.909702
vt 0.876945 0.988741
vt 0.733932 0.906499
vt 0.597202 0.745217
vt 0.597202 0.664903
vt 0.733932 0.746719
vt 0.876945 0.909702
vt 0.876945 0.988741
vt 0.733932 0.906499
vt 0.597202 0.745217
vt 0.597202 0.746719
vt 0.995736 0.909702
vt 0.995736 0.909702
vt 0.876945 0.746719
vt 0.876945 0.664903
vt 0.733932 0.988741
vt 0.733932 0.746719
vt 0.995736 0.909702
vt 0.995736 0.909702
vt 0.876945 0.746719
vt 0.876945 0.664903
vt 0.733932 0.988741
vt 0.733932 0.746719
vt 0.876945 0.909702
vt 0.876945 0.909702
vt 0.995736 0.746719
vt 0.995736 0.664903
vt 0.733932 0.988741
vt 0.733932 0.746719
vt 0.876945 0.909702
vt 0.876945 0.909702
vt 0.995736 0.746719
vt 0.995736 0.664903
vt 0.733932 0.988741
vt 0.733932 0.746719
vt 0.876945 0.909702
vt 0.876945 0.909702
vt 0.995736 0.746719
vt 0.995736 0.746719
vt 0.876945 0.909702
vt 0.876945 0.906499
vt 0.597202 0.745217
vt 0.597202 0.746719
vt 0.876945 0.909702
vt 0.876945 0.909702
vt 0.995736 0.746719
vt 0.995736 0.746719
vt 0.876945 0.909702
vt 0.876945 0.906499
vt 0.597202 0.745217
vt 0.597202 0.746719
vt 0.876945 0.909702
vt 0.995736 0.746719
vt 0.995736 0.909702
vt 0.876945 0.746719
vt 0.995736 0.909702
vt 0.876945 0.909702
vt 0.995736 0.746719
vt 0.876945 0.909702
vt 0.995736 0.746719
vt 0.876945 0.909702
vt 0.876945 0.746719
vt 0.995736 0.909702
vt 0.876945 0.746719
vt 0.995736 0.746719
vt 0.876945 0.909702
vt 0.995736 0.746719
vt 0.876945 0.909702
vt 0.995736 0.746719
vt 0.995736 0.909702
vt 0.876945 0.746719
vt 0.995736 0.909702
vt 0.876945 0.909702
vt 0.995736 0.746719
vt 0.876945 0.909702
vt 0.995736 0.746719
vt 0.876945 0.909702
vt 0.876945 0.746719
vt 0.995736 0.909702
vt 0.876945 0.746719
vt 0.995736 0.746719
vt 0.876945 0.909702
vt 0.995736 0.746719
vt 0.995736 0.909702
vt 0.995736 0.909702
vt 0.876945 0.746719
vt 0.876945 0.746719
vt 0.876945 0.909702
vt 0.876945 0.906499
vt 0.597202 0.745217
vt 0.597202 0.746719
vt 0.995736 0.909702
vt 0.995736 0.909702
vt 0.876945 0.746719
vt 0.876945 0.746719
vt 0.876945 0.909702
vt 0.876945 0.906499
vt 0.597202 0.745217
vt 0.597202 0.746719
vt 0.995736 0.909702
vt 0.876945 0.909702
vt 0.995736 0.746719
vt 0.876945 0.746719
vt 0.876945 0.909702
vt 0.995736 0.746719
vt 0.995736 0.909702
vt 0.876945 0.909702
vt 0.876945 0.746719
vt 0.995736 0.746719
vt 0.876945 0.909702
vt 0.995736 0.909702
vt 0.995736 0.746719
vt 0.876945 0.909702
vt 0.876945 0.746719
vt 0.995736 0.746719
vt 0.995736 0.909702
vt 0.876945 0.909702
vt 0.995736 0.746719
vt 0.876945 0.746719
vt 0.876945 0.909702
vt 0.995736 0.746719
vt 0.995736 0.909702
vt 0.876945 0.909702
vt 0.876945 0.746719
vt 0.995736 0.746719
vt 0.876945 0.909702
vt 0.995736 0.909702
vt 0.995736 0.746719
vt 0.876945 0.909702
vt 0.876945 0.746719
vt 0.995736 1.000000

f 1/1 27/27 7/7
f 4/4 5/5 3/3
f 5/5 4/4 15/15
f 109/109 9/9 110/110
f 9/9 109/109 2/2
f 41/41 40/40 6/6
f 26/26 7/7 8/8
f 7/7 26/26 34/34
f 35/35 111/111 1/1
f 111/111 35/35 112/112
f 9/9 111/111 110/110
f 111/111 9/9 1/1
f 6/6 40/40 9/9
f 10/10 113/113 12/12
f 10/10 32/32 113/113
f 10/10 11/11 32/32
f 13/13 9/9 2/2
f 9/9 13/13 14/14
f 115/115 14/14 13/13
f 24/24 116/116 2/2
f 116/116 24/24 117/117
f 31/31 25/25 119/119
f 6/6 9/9 114/114
f 1/1 34/34 35/35
f 34/34 1/1 7/7
f 8/8 7/7 120/120
f 7/7 27/27 120/120
f 52/52 2/2 109/109
f 30/30 4/4 29/29
f 4/4 30/30 15/15
f 114/114 41/41 6/6
f 15/15 31/31 119/119
f 31/31 15/15 30/30
f 130/130 52/52 109/109
f 52/52 24/24 2/2
f 33/33 43/43 131/131
f 38/38 39/39 51/51
f 39/39 38/38 37/37
f 132/132 45/45 36/36
f 45/45 132/132 133/133
f 134/134 42/42 135/135
f 136/136 43/43 137/137
f 43/43 136/136 44/44
f 138/138 139/139 140/140
f 139/139 138/138 33/33
f 45/45 139/139 33/33
f 139/139 45/45 133/133
f 42/42 45/45 135/135
f 46/46 141/141 47/47
f 46/46 142/142 141/141
f 46/46 48/48 142/142
f 49/49 45/45 50/50
f 45/45 49/49 36/36
f 144/144 49/49 50/50
f 145/145 146/146 147/147
f 146/146 145/145 36/36
f 151/151 152/152 153/153
f 42/42 143/143 45/45
f 33/33 137/137 43/43
f 137/137 33/33 138/138
f 44/44 154/154 43/43
f 43/43 154/154 131/131
f 155/155 132/132 36/36
f 156/156 38/38 51/51
f 38/38 156/156 149/149
f 143/143 42/42 134/134
f 76/76 72/72 75/75
f 72/72 76/76 73/73
f 77/77 184/184 185/185
f 184/184 77/77 74/74
f 186/186 187/187 188/188
f 187/187 186/186 189/189
f 51/51 151/151 156/156
f 151/151 51/51 152/152
f 202/202 132/132 155/155
f 155/155 36/36 145/145
f 114/114 9/9 16/16
f 19/19 17/17 123/123
f 124/124 125/125 143/143
f 143/143 144/144 53/53
f 55/55 54/54 157/157
f 56/56 158/158 159/159
f 160/160 57/57 161/161
f 162/162 163/163 164/164
f 164/164 167/167 58/58
f 59/59 61/61 170/170
f 171/171 172/172 84/84
f 79/79 80/80 82/82
f 78/78 81/81 85/85
f 86/86 83/83 87/87
f 88/88 89/89 203/203
f 204/204 90/90 205/205
f 91/91 206/206 207/207
f 208/208 209/209 210/210
f 230/230 231/231 232/232
f 231/231 230/230 233/233
f 214/214 226/226 227/227
f 228/228 227/227 226/226
f 286/286 263/263 262/262
f 263/263 286/286 287/287
f 288/288 265/265 264/264
f 265/265 288/288 289/289
f 294/294 269/269 268/268
f 269/269 294/294 295/295
f 296/296 271/271 270/270
f 271/271 296/296 297/297
f 302/302 303/303 304/304
f 303/303 302/302 305/305
f 306/306 307/307 308/308
f 307/307 306/306 309/309
f 310/310 311/311 312/312
f 311/311 310/310 313/313
f 314/314 315/315 316/316
f 315/315 314/314 317/317
f 318/318 319/319 320/320
f 319/319 318/318 321/321
f 322/322 323/323 324/324
f 323/323 322/322 325/325
f 326/326 327/327 328/328
f 327/327 326/326 329/329
f 330/330 331/331 332/332
f 331/331 330/330 333/333
f 275/275 334/334 274/274
f 334/334 275/275 335/335
f 277/277 336/336 276/276
f 336/336 277/277 337/337
f 281/281 342/342 280/280
f 342/342 281/281 343/343
f 283/283 344/344 282/282
f 344/344 283/283 345/345
f 350/350 351/351 352/352
f 351/351 350/350 353/353
f 354/354 355/355 356/356
f 355/355 354/354 357/357
f 358/358 359/359 360/360
f 359/359 358/358 361/361
f 362/362 363/363 364/364
f 363/363 362/362 365/365
f 366/366 367/367 368/368
f 367/367 366/366 369/369
f 370/370 371/371 372/372
f 371/371 370/370 373/373
f 374/374 375/375 376/376
f 375/375 374/374 377/377
f 378/378 379/379 380/380
f 379/379 378/378 381/381
f 239/239 240/240 241/241
f 242/242 243/243 241/241
f 242/242 238/238 247/247
f 245/245 246/246 247/247
f 248/248 249/249 247/247
f 248/248 244/244 251/251
f 253/253 252/252 254/254
f 250/250 255/255 253/253
f 250/250 254/254 251/251
f 250/250 253/253 257/257
f 259/259 258/258 260/260
f 256/256 261/261 259/259
f 256/256 260/260 257/257
f 256/256 259/259 267/267
f 290/290 291/291 267/267
f 292/292 293/293 267/267
f 292/292 266/266 273/273
f 298/298 299/299 273/273
f 300/300 301/301 273/273
f 300/300 272/272 338/338
f 279/279 339/339 340/340
f 278/278 341/341 279/279
f 278/278 340/340 338/338
f 278/278 279/279 346/346
f 285/285 347/347 348/348
f 284/284 349/349 285/285
f 284/284 348/348 346/346
