# MOD converted: boss_tarintus_skill3_lighting.mod
# 100 verts, 50 faces

v 18.034935 519.603271 -240.971130
v 18.034935 519.603271 -241.940491
v 19.004284 519.603271 -240.971130
v 19.004284 519.603271 0.500000
v 18.081713 -337.586304 -146.968353
v 18.081713 -337.586304 -147.844147
v 18.957506 -337.586304 -146.968353
v 18.957506 -337.586304 -0.000000
v -128.940567 308.073151 -260.665710
v -128.940567 308.073151 -261.520325
v -128.085953 308.073151 -260.665710
v -128.085953 308.073151 -0.000000
v 47.441586 75.072418 60.985817
v 47.441586 75.072418 60.129906
v 48.297497 75.072418 60.985817
v 48.297497 75.072418 0.500000
v 18.034935 205.155914 393.593262
v 18.034935 205.155914 392.623901
v 19.004284 205.155914 393.593262
v 19.004284 205.155914 0.500000
v 4.601223 1.406274 35.958504
v 4.601223 1.406274 35.253899
v 4.601223 2.110877 35.958504
v 4.601223 2.110877 0.000000
v 0.000000 8.159545 7.383455
v 0.000000 8.159545 5.703948
v 0.000000 9.839051 7.383455
v 0.000000 9.839051 0.000000
v 20.151688 9.614021 6.481143
v 20.156509 9.551460 5.929001
v 20.161333 9.488900 7.095842
v 20.151182 9.061858 6.543701
v 20.156006 8.999298 5.991560
v 20.160830 8.936738 7.158401
v 20.150679 8.509696 6.606260
v 20.155502 8.447136 6.054118
v 20.160324 8.384575 6.543701
v 20.156006 8.999298 6.481143
v 20.156509 9.551460 7.095842
v 20.151182 9.061858 6.543701
v 20.156006 8.999298 6.606260
v 20.155502 8.447136 6.543701
v 20.156006 8.999298 5.991560
v 20.160830 8.936738 0.063378
v 2082.157959 8.369732 6.543699
v 2082.163330 8.369734 7.173117
v 2082.168945 8.369737 5.914283
v 2082.157471 8.999173 6.543701
v 2082.162842 8.999176 7.173120
v 2082.168213 8.999179 5.914286
v 2082.156738 9.628615 6.543704
v 2082.162354 9.628618 7.173122
v 2082.167725 9.628620 6.543701
v 2082.162842 8.999176 6.543699
v 2082.163330 8.369734 5.914283
v 2082.157471 8.999173 6.543701
v 2082.162842 8.999176 6.543704
v 2082.162354 9.628618 6.543701
v 2082.162842 8.999176 7.173120
v 2082.168213 8.999179 0.067617
v 2092.486328 -93.250008 169.151337
v 2092.486328 67.368202 -30.864796
v 2094.582275 -93.250114 169.151413
v 2094.582275 67.368095 1.000000
v 2092.486328 -41.295544 1.357993
v 2092.486328 59.892246 -112.591972
v 2094.582275 -41.295647 1.358083
v 2094.582275 59.892143 1.000000
v 2092.486328 99.191490 -20.270914
v 2092.486328 -81.503319 71.493202
v 2094.582275 99.191551 -20.271036
v 2094.582275 -81.503258 1.000000
v 2092.486328 150.712051 20.618467
v 2092.486328 -115.960243 -17.476244
v 2094.582275 150.712036 20.618334
v 2094.582275 -115.960266 1.000000
v 2092.486328 8.844282 200.194183
v 2092.486328 8.844282 -148.972015
v 2094.582275 8.844147 200.194183
v 2094.582275 8.844147 1.250000
v 2092.486328 100.261818 127.082748
v 2092.486328 -51.391220 1.541377
v 2094.582275 100.261726 127.082649
v 2094.582275 -51.391308 1.000000
v 2071.458008 7.973268 7.569563
v 2071.475830 7.973275 5.517839
v 2071.456299 10.025077 7.569571
v 2071.474121 10.025084 0.000000
v 66.451340 41.245758 53.313843
v 66.451340 41.245758 52.358521
v 67.406662 41.245758 53.313843
v 67.406662 41.245758 0.000000
v 1.719328 8.056549 -13.227198
v 1.719328 8.056549 -14.298681
v 2.790812 8.056549 -13.227198
v 2.790812 8.056549 0.000000
v 1.719328 -31.377533 22.652197
v 1.719328 -31.377533 21.580713
v 2.790812 -31.377533 22.652197
v 2.790812 -31.377533 0.000000

vt 0.000000 0.500000
vt 0.500000 1.000000
vt 0.000000 1.000000
vt 0.500000 1.000000
vt 0.500000 1.000000
vt 0.000000 0.500000
vt 0.500000 0.500000
vt 0.000000 1.000000
vt 0.500000 1.000000
vt 0.000000 0.500000
vt 0.500000 0.500000
vt 0.000000 1.000000
vt 0.500000 0.000000
vt 0.500000 0.500000
vt 1.000000 0.000000
vt 1.000000 1.000000
vt 0.500000 1.000000
vt 0.500000 0.500000
vt 0.000000 1.000000
vt 0.000000 1.000000
vt 0.000000 0.000000
vt 0.000000 1.000000
vt 1.000000 0.000000
vt 1.000000 1.000000
vt 0.000000 0.000000
vt 0.000000 1.000000
vt 1.000000 0.000000
vt 1.000000 1.000000
vt 0.936622 0.063378
vt 0.936622 0.936622
vt 0.936622 0.936622
vt 0.063378 0.063378
vt 0.063378 0.936622
vt 0.063378 0.936622
vt 0.936622 0.063378
vt 0.936622 0.936622
vt 0.936622 0.063378
vt 0.063378 0.063378
vt 0.936622 0.936622
vt 0.063378 0.063378
vt 0.063378 0.063378
vt 0.936622 0.063378
vt 0.063378 0.936622
vt 0.063378 1.000000
vt 0.932383 0.067617
vt 0.932383 0.932383
vt 0.932383 0.932383
vt 0.067617 0.067617
vt 0.067617 0.932383
vt 0.067617 0.932383
vt 0.932383 0.067617
vt 0.932383 0.932383
vt 0.932383 0.067617
vt 0.067617 0.067617
vt 0.932383 0.932383
vt 0.067617 0.067617
vt 0.067617 0.067617
vt 0.932383 0.067617
vt 0.067617 0.932383
vt 0.067617 1.000000
vt 0.250000 -0.003423
vt 0.250000 0.000000
vt 0.257370 -0.003423
vt 0.257370 1.000000
vt 0.250000 -0.003423
vt 0.250000 0.000000
vt 0.257370 -0.003423
vt 0.257370 1.000000
vt 0.250000 -0.003423
vt 0.250000 0.000000
vt 0.257370 -0.003423
vt 0.257370 1.000000
vt 0.250000 -0.003423
vt 0.250000 0.000000
vt 0.257370 -0.003423
vt 0.257370 1.000000
vt 0.250000 0.246577
vt 0.250000 -0.250000
vt 0.257370 0.246577
vt 0.257370 1.000000
vt 0.250000 -0.003423
vt 0.250000 0.000000
vt 0.257370 -0.003423
vt 0.257370 1.000000
vt 0.000000 0.000000
vt 0.000000 1.000000
vt 1.000000 0.000000
vt 1.000000 1.000000
vt 0.000000 0.000000
vt 0.000000 1.000000
vt 1.000000 0.000000
vt 1.000000 1.000000
vt 0.000000 0.000000
vt 0.000000 1.000000
vt 1.000000 0.000000
vt 1.000000 1.000000
vt 0.000000 0.000000
vt 0.000000 1.000000
vt 1.000000 0.000000
vt 1.000000 1.000000

f 3/3 4/4 1/1
f 2/2 1/1 4/4
f 7/7 8/8 5/5
f 6/6 5/5 8/8
f 11/11 12/12 9/9
f 10/10 9/9 12/12
f 15/15 16/16 13/13
f 14/14 13/13 16/16
f 19/19 20/20 17/17
f 18/18 17/17 20/20
f 23/23 24/24 21/21
f 22/22 21/21 24/24
f 27/27 28/28 25/25
f 26/26 25/25 28/28
f 32/32 33/33 29/29
f 30/30 29/29 33/33
f 38/38 34/34 39/39
f 31/31 39/39 34/34
f 35/35 36/36 40/40
f 41/41 40/40 36/36
f 42/42 37/37 43/43
f 44/44 43/43 37/37
f 48/48 49/49 45/45
f 46/46 45/45 49/49
f 54/54 50/50 55/55
f 47/47 55/55 50/50
f 51/51 52/52 56/56
f 57/57 56/56 52/52
f 58/58 53/53 59/59
f 60/60 59/59 53/53
f 63/63 64/64 61/61
f 62/62 61/61 64/64
f 67/67 68/68 65/65
f 66/66 65/65 68/68
f 71/71 72/72 69/69
f 70/70 69/69 72/72
f 75/75 76/76 73/73
f 74/74 73/73 76/76
f 77/77 80/80 78/78
f 80/80 77/77 79/79
f 83/83 84/84 81/81
f 82/82 81/81 84/84
f 87/87 88/88 85/85
f 86/86 85/85 88/88
f 91/91 92/92 89/89
f 90/90 89/89 92/92
f 95/95 96/96 93/93
f 94/94 93/93 96/96
f 99/99 100/100 97/97
f 98/98 97/97 100/100
