# MOD converted: eff_s_3322.mod
# 56 verts, 28 faces

v 110.407440 12.187711 8.080177
v 110.407440 39.841190 15.489937
v 110.492310 12.187712 8.080183
v 110.492310 39.841194 0.500000
v 66.176704 11.119657 -8.290535
v 66.176704 11.119679 -36.919533
v 66.261574 11.119651 -8.290535
v 66.261574 11.119674 0.500000
v 66.176712 -26.793648 26.047674
v 66.176712 -6.549877 5.803933
v 66.261581 -26.793652 26.047680
v 66.261581 -6.549881 0.500000
v 51.134460 -36.144524 50.784519
v 51.134460 -15.900751 30.540777
v 51.219330 -36.144527 50.784523
v 51.219330 -15.900755 0.500000
v 66.176704 -13.144108 53.925644
v 66.176704 15.375945 56.420845
v 66.261574 -13.144108 53.925652
v 66.261574 15.375945 0.500000
v 100.038818 16.105482 40.806721
v 100.038818 28.204613 66.753410
v 100.123688 16.105488 40.806721
v 100.123688 28.204618 0.500000
v 66.176704 41.541573 24.162117
v 66.176704 63.472652 42.564491
v 66.261574 41.541576 24.162121
v 66.261574 63.472656 0.500000
v 83.288177 60.234493 -14.280920
v 83.288177 60.234489 14.348078
v 83.373047 60.234497 -14.280920
v 83.373047 60.234493 0.500000
v 66.176704 42.659103 -35.802219
v 66.176704 54.758236 -9.855533
v 66.261574 42.659107 -35.802219
v 66.261574 54.758240 0.500000
v 58.625309 36.365078 -55.477276
v 58.625309 31.393700 -27.283220
v 58.710178 36.365082 -55.477280
v 58.710178 31.393705 0.500000
v 71.751312 24.649506 -52.035076
v 71.751312 -3.979492 -52.035084
v 71.836182 24.649506 -52.035084
v 71.836182 -3.979492 0.500000
v 78.699081 -8.221433 -36.680588
v 78.699081 -33.014874 -50.995087
v 78.783951 -8.221436 -36.680592
v 78.783951 -33.014877 0.500000
v 80.850296 -36.703255 -8.300811
v 80.850296 -48.802391 -34.247498
v 80.935165 -36.703262 -8.300814
v 80.935165 -48.802399 0.500000
v 95.382950 -48.985397 19.264519
v 95.382950 -48.985397 -9.364479
v 95.467819 -48.985405 19.264519
v 95.467819 -48.985405 0.500000

vt 0.000000 0.000000
vt 0.000000 0.500000
vt 1.000000 0.000000
vt 1.000000 1.000000
vt 0.000000 0.000000
vt 0.000000 0.500000
vt 1.000000 0.000000
vt 1.000000 1.000000
vt 0.000000 0.000000
vt 0.000000 0.500000
vt 1.000000 0.000000
vt 1.000000 1.000000
vt 0.000000 0.000000
vt 0.000000 0.500000
vt 1.000000 0.000000
vt 1.000000 1.000000
vt 0.000000 0.000000
vt 0.000000 0.500000
vt 1.000000 0.000000
vt 1.000000 1.000000
vt 0.000000 0.000000
vt 0.000000 0.500000
vt 1.000000 0.000000
vt 1.000000 1.000000
vt 0.000000 0.000000
vt 0.000000 0.500000
vt 1.000000 0.000000
vt 1.000000 1.000000
vt 0.000000 0.000000
vt 0.000000 0.500000
vt 1.000000 0.000000
vt 1.000000 1.000000
vt 0.000000 0.000000
vt 0.000000 0.500000
vt 1.000000 0.000000
vt 1.000000 1.000000
vt 0.000000 0.000000
vt 0.000000 0.500000
vt 1.000000 0.000000
vt 1.000000 1.000000
vt 0.000000 0.000000
vt 0.000000 0.500000
vt 1.000000 0.000000
vt 1.000000 1.000000
vt 0.000000 0.000000
vt 0.000000 0.500000
vt 1.000000 0.000000
vt 1.000000 1.000000
vt 0.000000 0.000000
vt 0.000000 0.500000
vt 1.000000 0.000000
vt 1.000000 1.000000
vt 0.000000 0.000000
vt 0.000000 0.500000
vt 1.000000 0.000000
vt 1.000000 1.000000

f 3/3 4/4 1/1
f 2/2 1/1 4/4
f 7/7 8/8 5/5
f 6/6 5/5 8/8
f 11/11 12/12 9/9
f 10/10 9/9 12/12
f 15/15 16/16 13/13
f 14/14 13/13 16/16
f 19/19 20/20 17/17
f 18/18 17/17 20/20
f 23/23 24/24 21/21
f 22/22 21/21 24/24
f 27/27 28/28 25/25
f 26/26 25/25 28/28
f 31/31 32/32 29/29
f 30/30 29/29 32/32
f 35/35 36/36 33/33
f 34/34 33/33 36/36
f 39/39 40/40 37/37
f 38/38 37/37 40/40
f 43/43 44/44 41/41
f 42/42 41/41 44/44
f 47/47 48/48 45/45
f 46/46 45/45 48/48
f 51/51 52/52 49/49
f 50/50 49/49 52/52
f 55/55 56/56 53/53
f 54/54 53/53 56/56
