# MOD converted: eff_c_bcurse2.mod
# 847 verts, 772 faces

v 3.766235 -65.055588 -89.143036
v 3.766235 -31.111525 -89.143036
v 64.582672 -65.055588 -89.143036
v 64.582672 -31.111525 -89.143028
v 125.399124 -65.055588 -89.143028
v 125.399124 -31.111525 -89.143028
v 186.215576 -65.055588 -89.143028
v 186.215576 -31.111525 -89.143028
v 247.032028 -65.055588 -89.143028
v 247.032028 -31.111525 -89.143021
v 307.848480 -65.055588 -89.143021
v 307.848480 -31.111525 -89.143021
v 368.664917 -65.055588 -89.143021
v 368.664917 -31.111525 -89.143021
v 429.481384 -65.055588 -89.143021
v 429.481384 -31.111525 -89.143013
v 490.297821 -65.055588 -89.143013
v 490.297821 -31.111525 -89.143013
v 551.114258 -65.055588 -89.143013
v 551.114258 -31.111525 -89.143013
v 611.930725 -65.055588 -89.143013
v 611.930725 -31.111525 -89.143005
v 672.747192 -65.055588 -89.143005
v 672.747192 -31.111525 -89.143005
v 733.563599 -65.055588 -89.143005
v 733.563599 -31.111525 0.000000
v 3.766235 -48.083542 -72.170990
v 3.766235 -48.083542 -106.115051
v 64.582672 -48.083546 -72.170990
v 64.582672 -48.083546 -106.115051
v 125.399124 -48.083546 -72.170990
v 125.399124 -48.083546 -106.115051
v 186.215576 -48.083549 -72.170990
v 186.215576 -48.083549 -106.115051
v 247.032028 -48.083553 -72.170990
v 247.032028 -48.083553 -106.115051
v 307.848480 -48.083553 -72.170990
v 307.848480 -48.083553 -106.115051
v 368.664917 -48.083557 -72.170990
v 368.664917 -48.083557 -106.115051
v 429.481384 -48.083561 -72.170990
v 429.481384 -48.083561 -106.115051
v 490.297821 -48.083561 -72.170990
v 490.297821 -48.083561 -106.115051
v 551.114258 -48.083565 -72.170990
v 551.114258 -48.083565 -106.115051
v 611.930725 -48.083569 -72.170990
v 611.930725 -48.083569 -106.115051
v 672.747192 -48.083569 -72.170990
v 672.747192 -48.083569 -106.115051
v 733.563599 -48.083572 -72.170990
v 733.563599 -48.083572 0.000000
v 3.766235 63.804394 -15.862978
v 3.766235 97.748459 -15.862973
v 64.582672 63.804394 -15.862975
v 64.582672 97.748459 -15.862970
v 125.399124 63.804394 -15.862972
v 125.399124 97.748459 -15.862968
v 186.215576 63.804394 -15.862969
v 186.215576 97.748459 -15.862966
v 247.032028 63.804394 -15.862967
v 247.032028 97.748459 -15.862963
v 307.848480 63.804394 -15.862965
v 307.848480 97.748459 -15.862960
v 368.664917 63.804398 -15.862962
v 368.664917 97.748459 -15.862957
v 429.481384 63.804398 -15.862959
v 429.481384 97.748459 -15.862955
v 490.297821 63.804398 -15.862956
v 490.297821 97.748459 -15.862952
v 551.114258 63.804398 -15.862953
v 551.114258 97.748459 -15.862949
v 611.930725 63.804398 -15.862951
v 611.930725 97.748459 -15.862947
v 672.747192 63.804398 -15.862948
v 672.747192 97.748459 -15.862944
v 733.563599 63.804398 -15.862946
v 733.563599 97.748459 0.000000
v 3.766235 80.776443 1.109072
v 3.766235 80.776443 -32.834991
v 64.582672 80.776443 1.109072
v 64.582672 80.776443 -32.834991
v 125.399124 80.776436 1.109072
v 125.399124 80.776436 -32.834991
v 186.215576 80.776436 1.109072
v 186.215576 80.776436 -32.834991
v 247.032028 80.776436 1.109072
v 247.032028 80.776436 -32.834991
v 307.848480 80.776428 1.109072
v 307.848480 80.776428 -32.834991
v 368.664917 80.776428 1.109072
v 368.664917 80.776428 -32.834991
v 429.481384 80.776428 1.109072
v 429.481384 80.776428 -32.834991
v 490.297821 80.776421 1.109072
v 490.297821 80.776421 -32.834991
v 551.114258 80.776421 1.109072
v 551.114258 80.776421 -32.834991
v 611.930725 80.776421 1.109072
v 611.930725 80.776421 -32.834991
v 672.747192 80.776413 1.109072
v 672.747192 80.776413 -32.834991
v 733.563599 80.776413 1.109072
v 733.563599 80.776413 0.000000
v 3.766235 -26.545427 79.109413
v 3.766235 7.398638 79.109413
v 64.582672 -26.545427 79.109413
v 64.582672 7.398638 79.109421
v 125.399124 -26.545427 79.109421
v 125.399124 7.398638 79.109421
v 186.215576 -26.545427 79.109421
v 186.215576 7.398638 79.109421
v 247.032028 -26.545427 79.109421
v 247.032028 7.398638 79.109428
v 307.848480 -26.545427 79.109428
v 307.848480 7.398638 79.109428
v 368.664917 -26.545427 79.109428
v 368.664917 7.398638 79.109428
v 429.481384 -26.545427 79.109428
v 429.481384 7.398638 79.109436
v 490.297821 -26.545427 79.109436
v 490.297821 7.398638 79.109436
v 551.114258 -26.545427 79.109436
v 551.114258 7.398638 79.109436
v 611.930725 -26.545427 79.109436
v 611.930725 7.398638 79.109444
v 672.747192 -26.545427 79.109444
v 672.747192 7.398638 79.109444
v 733.563599 -26.545427 79.109444
v 733.563599 7.398638 -0.004863
v 3.766235 -9.573379 96.081459
v 3.766235 -9.573379 62.137398
v 64.582672 -9.573381 96.081459
v 64.582672 -9.573381 62.137398
v 125.399124 -9.573384 96.081459
v 125.399124 -9.573384 62.137398
v 186.215576 -9.573387 96.081459
v 186.215576 -9.573387 62.137398
v 247.032028 -9.573389 96.081459
v 247.032028 -9.573389 62.137398
v 307.848480 -9.573392 96.081459
v 307.848480 -9.573392 62.137398
v 368.664917 -9.573395 96.081459
v 368.664917 -9.573395 62.137398
v 429.481384 -9.573398 96.081459
v 429.481384 -9.573398 62.137398
v 490.297821 -9.573400 96.081459
v 490.297821 -9.573400 62.137398
v 551.114258 -9.573402 96.081459
v 551.114258 -9.573402 62.137398
v 611.930725 -9.573405 96.081459
v 611.930725 -9.573405 62.137398
v 672.747192 -9.573408 96.081459
v 672.747192 -9.573408 62.137398
v 733.563599 -9.573411 96.081459
v 733.563599 -9.573411 -0.004863
v 3.766235 33.616108 52.165756
v 3.766235 67.560173 52.165760
v 64.582672 33.616108 52.165756
v 64.582672 67.560173 52.165760
v 125.399124 33.616108 52.165760
v 125.399124 67.560173 52.165764
v 186.215576 33.616108 52.165764
v 186.215576 67.560173 52.165768
v 247.032028 33.616108 52.165764
v 247.032028 67.560173 52.165768
v 307.848480 33.616108 52.165768
v 307.848480 67.560173 52.165771
v 368.664917 33.616112 52.165771
v 368.664917 67.560173 52.165775
v 429.481384 33.616112 52.165775
v 429.481384 67.560173 52.165779
v 490.297821 33.616112 52.165775
v 490.297821 67.560173 52.165779
v 551.114258 33.616112 52.165779
v 551.114258 67.560173 52.165783
v 611.930725 33.616112 52.165783
v 611.930725 67.560173 52.165787
v 672.747192 33.616112 52.165783
v 672.747192 67.560173 52.165787
v 733.563599 33.616112 52.165787
v 733.563599 67.560173 0.000000
v 3.766235 50.588158 69.137802
v 3.766235 50.588158 35.193741
v 64.582672 50.588154 69.137802
v 64.582672 50.588154 35.193741
v 125.399124 50.588154 69.137802
v 125.399124 50.588154 35.193741
v 186.215576 50.588150 69.137802
v 186.215576 50.588150 35.193741
v 247.032028 50.588146 69.137802
v 247.032028 50.588146 35.193741
v 307.848480 50.588146 69.137802
v 307.848480 50.588146 35.193741
v 368.664917 50.588142 69.137802
v 368.664917 50.588142 35.193741
v 429.481384 50.588139 69.137802
v 429.481384 50.588139 35.193741
v 490.297821 50.588139 69.137802
v 490.297821 50.588139 35.193741
v 551.114258 50.588135 69.137802
v 551.114258 50.588135 35.193741
v 611.930725 50.588131 69.137802
v 611.930725 50.588131 35.193741
v 672.747192 50.588131 69.137802
v 672.747192 50.588131 35.193741
v 733.563599 50.588127 69.137802
v 733.563599 50.588127 0.000000
v 3.766235 -81.248276 7.435477
v 3.766235 -47.304214 7.435481
v 64.582672 -81.248276 7.435480
v 64.582672 -47.304214 7.435483
v 125.399124 -81.248276 7.435482
v 125.399124 -47.304214 7.435486
v 186.215576 -81.248276 7.435485
v 186.215576 -47.304214 7.435489
v 247.032028 -81.248276 7.435487
v 247.032028 -47.304214 7.435492
v 307.848480 -81.248276 7.435490
v 307.848480 -47.304214 7.435494
v 368.664917 -81.248276 7.435493
v 368.664917 -47.304214 7.435497
v 429.481384 -81.248276 7.435495
v 429.481384 -47.304211 7.435500
v 490.297821 -81.248276 7.435498
v 490.297821 -47.304211 7.435502
v 551.114258 -81.248276 7.435501
v 551.114258 -47.304211 7.435505
v 611.930725 -81.248276 7.435503
v 611.930725 -47.304211 7.435507
v 672.747192 -81.248276 7.435506
v 672.747192 -47.304211 7.435510
v 733.563599 -81.248276 7.435509
v 733.563599 -47.304211 0.000000
v 3.766235 -64.276230 24.407526
v 3.766235 -64.276230 -9.536539
v 64.582672 -64.276230 24.407526
v 64.582672 -64.276230 -9.536539
v 125.399124 -64.276237 24.407526
v 125.399124 -64.276237 -9.536539
v 186.215576 -64.276237 24.407526
v 186.215576 -64.276237 -9.536539
v 247.032028 -64.276237 24.407526
v 247.032028 -64.276237 -9.536539
v 307.848480 -64.276245 24.407526
v 307.848480 -64.276245 -9.536539
v 368.664917 -64.276245 24.407526
v 368.664917 -64.276245 -9.536539
v 429.481384 -64.276245 24.407526
v 429.481384 -64.276245 -9.536539
v 490.297821 -64.276253 24.407526
v 490.297821 -64.276253 -9.536539
v 551.114258 -64.276253 24.407526
v 551.114258 -64.276253 -9.536539
v 611.930725 -64.276253 24.407526
v 611.930725 -64.276253 -9.536539
v 672.747192 -64.276260 24.407526
v 672.747192 -64.276260 -9.536539
v 733.563599 -64.276260 24.407526
v 733.563599 -64.276260 0.000000
v 3.766235 15.024275 -38.110168
v 3.766235 48.968338 -38.110165
v 64.582672 15.024275 -38.110168
v 64.582672 48.968338 -38.110165
v 125.399124 15.024275 -38.110165
v 125.399124 48.968338 -38.110161
v 186.215576 15.024275 -38.110161
v 186.215576 48.968338 -38.110157
v 247.032028 15.024275 -38.110161
v 247.032028 48.968338 -38.110157
v 307.848480 15.024275 -38.110157
v 307.848480 48.968338 -38.110153
v 368.664917 15.024275 -38.110153
v 368.664917 48.968338 -38.110149
v 429.481384 15.024275 -38.110149
v 429.481384 48.968342 -38.110146
v 490.297821 15.024275 -38.110149
v 490.297821 48.968342 -38.110146
v 551.114258 15.024275 -38.110146
v 551.114258 48.968342 -38.110142
v 611.930725 15.024275 -38.110142
v 611.930725 48.968342 -38.110138
v 672.747192 15.024275 -38.110142
v 672.747192 48.968342 -38.110138
v 733.563599 15.024275 -38.110138
v 733.563599 48.968342 0.000000
v 3.766235 31.996323 -21.138121
v 3.766235 31.996323 -55.082184
v 64.582672 31.996321 -21.138121
v 64.582672 31.996321 -55.082184
v 125.399124 31.996319 -21.138121
v 125.399124 31.996319 -55.082184
v 186.215576 31.996315 -21.138121
v 186.215576 31.996315 -55.082184
v 247.032028 31.996313 -21.138121
v 247.032028 31.996313 -55.082184
v 307.848480 31.996309 -21.138121
v 307.848480 31.996309 -55.082184
v 368.664917 31.996307 -21.138121
v 368.664917 31.996307 -55.082184
v 429.481384 31.996305 -21.138121
v 429.481384 31.996305 -55.082184
v 490.297821 31.996302 -21.138121
v 490.297821 31.996302 -55.082184
v 551.114258 31.996300 -21.138121
v 551.114258 31.996300 -55.082184
v 611.930725 31.996296 -21.138121
v 611.930725 31.996296 -55.082184
v 672.747192 31.996294 -21.138121
v 672.747192 31.996294 -55.082184
v 733.563599 31.996292 -21.138121
v 733.563599 31.996292 0.000000
v 3.766235 -63.771847 -38.110168
v 3.766235 -29.827780 -38.110165
v 64.582672 -63.771847 -38.110168
v 64.582672 -29.827780 -38.110165
v 125.399124 -63.771847 -38.110165
v 125.399124 -29.827780 -38.110161
v 186.215576 -63.771847 -38.110161
v 186.215576 -29.827780 -38.110157
v 247.032028 -63.771847 -38.110161
v 247.032028 -29.827780 -38.110157
v 307.848480 -63.771847 -38.110157
v 307.848480 -29.827780 -38.110153
v 368.664917 -63.771843 -38.110153
v 368.664917 -29.827780 -38.110149
v 429.481384 -63.771843 -38.110149
v 429.481384 -29.827780 -38.110146
v 490.297821 -63.771843 -38.110149
v 490.297821 -29.827780 -38.110146
v 551.114258 -63.771843 -38.110146
v 551.114258 -29.827780 -38.110142
v 611.930725 -63.771843 -38.110142
v 611.930725 -29.827780 -38.110138
v 672.747192 -63.771843 -38.110142
v 672.747192 -29.827780 -38.110138
v 733.563599 -63.771843 -38.110138
v 733.563599 -29.827780 -0.002432
v 3.766235 -46.799797 -21.138121
v 3.766235 -46.799797 -55.082184
v 64.582672 -46.799801 -21.138121
v 64.582672 -46.799801 -55.082184
v 125.399124 -46.799801 -21.138121
v 125.399124 -46.799801 -55.082184
v 186.215576 -46.799805 -21.138121
v 186.215576 -46.799805 -55.082184
v 247.032028 -46.799809 -21.138121
v 247.032028 -46.799809 -55.082184
v 307.848480 -46.799809 -21.138121
v 307.848480 -46.799809 -55.082184
v 368.664917 -46.799812 -21.138121
v 368.664917 -46.799812 -55.082184
v 429.481384 -46.799816 -21.138121
v 429.481384 -46.799816 -55.082184
v 490.297821 -46.799816 -21.138121
v 490.297821 -46.799816 -55.082184
v 551.114258 -46.799820 -21.138121
v 551.114258 -46.799820 -55.082184
v 611.930725 -46.799824 -21.138121
v 611.930725 -46.799824 -55.082184
v 672.747192 -46.799824 -21.138121
v 672.747192 -46.799824 -55.082184
v 733.563599 -46.799828 -21.138121
v 733.563599 -46.799828 -0.002432
v 3.766235 -63.771847 47.038101
v 3.766235 -29.827780 47.038105
v 64.582672 -63.771847 47.038101
v 64.582672 -29.827780 47.038105
v 125.399124 -63.771847 47.038105
v 125.399124 -29.827780 47.038109
v 186.215576 -63.771847 47.038109
v 186.215576 -29.827780 47.038113
v 247.032028 -63.771847 47.038109
v 247.032028 -29.827780 47.038113
v 307.848480 -63.771847 47.038113
v 307.848480 -29.827780 47.038116
v 368.664917 -63.771843 47.038116
v 368.664917 -29.827780 47.038120
v 429.481384 -63.771843 47.038120
v 429.481384 -29.827780 47.038124
v 490.297821 -63.771843 47.038120
v 490.297821 -29.827780 47.038124
v 551.114258 -63.771843 47.038124
v 551.114258 -29.827780 47.038128
v 611.930725 -63.771843 47.038128
v 611.930725 -29.827780 47.038132
v 672.747192 -63.771843 47.038128
v 672.747192 -29.827780 47.038132
v 733.563599 -63.771843 47.038132
v 733.563599 -29.827780 0.000000
v 3.766235 -46.799797 64.010147
v 3.766235 -46.799797 30.066084
v 64.582672 -46.799801 64.010147
v 64.582672 -46.799801 30.066084
v 125.399124 -46.799801 64.010147
v 125.399124 -46.799801 30.066084
v 186.215576 -46.799805 64.010147
v 186.215576 -46.799805 30.066084
v 247.032028 -46.799809 64.010147
v 247.032028 -46.799809 30.066084
v 307.848480 -46.799809 64.010147
v 307.848480 -46.799809 30.066084
v 368.664917 -46.799812 64.010147
v 368.664917 -46.799812 30.066084
v 429.481384 -46.799816 64.010147
v 429.481384 -46.799816 30.066084
v 490.297821 -46.799816 64.010147
v 490.297821 -46.799816 30.066084
v 551.114258 -46.799820 64.010147
v 551.114258 -46.799820 30.066084
v 611.930725 -46.799824 64.010147
v 611.930725 -46.799824 30.066084
v 672.747192 -46.799824 64.010147
v 672.747192 -46.799824 30.066084
v 733.563599 -46.799828 64.010147
v 733.563599 -46.799828 0.000000
v 404.857788 -14.025079 -3.685018
v 428.134125 -18.849068 -101.092438
v 380.268768 -25.441917 -39.574635
v 414.462769 -34.234848 -127.118637
v 347.618408 -34.239639 -71.961098
v 395.228760 -48.164677 -146.298019
v 307.047760 -40.505016 -101.088394
v 365.735687 -60.694744 -160.338074
v 258.103973 -44.911884 -125.616425
v 321.880981 -71.294167 -170.922287
v 197.727020 -47.940716 -144.229126
v 262.169342 -79.625443 -167.680420
v 133.125458 -45.341690 -155.462585
v 194.469589 -85.333870 -150.484146
v 77.282036 -37.595081 -150.236053
v 129.192734 -84.356064 -121.936493
v 32.675949 -25.537125 -130.251389
v 71.778755 -77.530769 -84.098114
v 2.579731 -9.961007 -97.752792
v 26.874050 -65.739746 -39.270294
v -9.470518 7.878911 -54.743931
v -1.138295 -49.403633 0.003189
v 394.459045 -92.135353 -36.821419
v 419.717102 -55.593300 -67.081505
v 364.886292 -116.988945 -49.776028
v 397.562317 -87.912979 -81.165031
v 329.370087 -134.333466 -60.485584
v 370.135498 -115.779564 -90.978683
v 287.583588 -144.507431 -68.671082
v 333.217041 -138.427719 -97.134720
v 238.334946 -148.856949 -73.486191
v 283.452393 -154.084473 -100.077682
v 178.433441 -148.111115 -74.252304
v 219.485886 -161.593918 -96.729012
v 117.088600 -135.536453 -69.446068
v 149.341080 -159.297775 -86.547813
v 65.591728 -112.525307 -57.102757
v 86.581375 -141.234619 -70.940544
v 25.608288 -81.438271 -38.726078
v 36.427460 -110.350639 -51.042381
v -0.448918 -44.308403 -16.091030
v 3.352449 -69.919594 -27.701340
v -9.789721 -3.200062 8.740175
v -8.547703 -23.184031 -0.000000
v 384.871490 -118.964798 19.778887
v 409.692963 -83.581345 1.366218
v 353.019440 -145.256088 27.417564
v 382.367615 -114.691734 3.662887
v 316.327881 -163.146454 33.642021
v 350.384186 -139.599762 4.517987
v 273.924500 -172.697220 38.199669
v 310.159851 -157.235199 4.085466
v 224.113831 -174.643646 40.735661
v 258.934814 -165.853760 2.215506
v 163.830093 -169.086060 41.198940
v 195.319855 -164.346161 -2.316851
v 102.776199 -150.283203 39.362865
v 127.868874 -151.162888 -8.829915
v 52.779331 -119.499252 34.117863
v 70.055122 -122.890587 -16.885902
v 15.905598 -79.808823 26.360781
v 25.922716 -83.158035 -25.918253
v -5.232732 -34.140953 16.859673
v -1.030627 -35.739437 -35.056244
v -7.855655 14.531214 6.078466
v -7.474728 15.634935 0.000000
v 385.645111 -66.365959 69.944244
v 414.229248 -49.873352 121.044479
v 353.409943 -87.039162 97.841080
v 389.024261 -66.893753 133.091003
v 316.042969 -101.843529 121.384651
v 359.022095 -80.642975 138.399765
v 273.189758 -110.862694 139.573151
v 320.093750 -90.475433 138.100845
v 223.529282 -114.861748 150.576019
v 269.076904 -95.064056 132.606079
v 163.806549 -114.221375 153.280960
v 204.743210 -93.466179 116.495689
v 103.864120 -105.283508 146.895309
v 135.281799 -84.355682 92.032127
v 54.859245 -88.396980 126.870903
v 74.760880 -65.549942 61.405159
v 18.200903 -65.444420 96.207474
v 28.079004 -39.329807 26.583338
v -3.919739 -38.028000 58.125957
v -0.647692 -8.256576 -10.356936
v -8.925640 -7.494281 15.739512
v -7.688758 24.852764 0.000000
v 347.996887 -2.118860 55.630817
v 380.605042 4.300059 140.671143
v 320.488129 -6.654265 91.494156
v 361.992279 10.269620 160.809921
v 287.618439 -11.103165 122.905884
v 338.740417 15.852610 172.321045
v 249.757629 -15.319204 148.819122
v 306.426025 20.891966 177.301895
v 206.132126 -19.148808 166.649780
v 261.768890 25.223410 176.937607
v 153.524857 -22.703224 174.726059
v 203.932434 28.947475 162.824036
v 100.313904 -26.825308 171.883698
v 139.904053 32.696522 137.163116
v 56.217968 -30.018867 150.710953
v 82.126068 34.859745 102.595192
v 22.211035 -32.417542 114.618439
v 35.764370 35.703903 61.235115
v 0.142685 -33.985611 67.542198
v 5.109011 35.326393 15.051643
v -7.744428 -34.230526 13.564500
v -5.942822 33.367790 -0.000000
v 355.582245 98.358536 90.153870
v 391.668671 74.783852 123.537331
v 317.704773 108.046486 106.617027
v 359.544586 94.789490 133.204590
v 276.995911 111.194633 118.369057
v 324.038788 110.432343 135.221420
v 233.043518 108.024933 123.894836
v 281.417206 120.219109 130.275101
v 184.243607 99.287239 121.057838
v 229.137711 122.128540 118.224464
v 127.300919 84.805527 108.550064
v 166.349503 115.065292 96.404541
v 73.315117 61.525707 86.407097
v 101.352470 99.776718 67.483589
v 32.663475 33.310101 54.282032
v 48.976002 74.437012 33.884178
v 6.036229 2.153476 15.728998
v 13.094589 42.294731 -2.139973
v -5.034250 -29.990679 -25.529062
v -3.259600 6.639668 -38.498318
v 1.377285 -60.957008 -65.605927
v 2.552862 -29.450155 -0.000000
v 377.071136 118.141113 7.382596
v 408.139526 84.280060 14.681679
v 343.207336 142.778381 8.383374
v 380.724609 115.112503 22.092793
v 304.827423 158.030884 8.883731
v 348.891418 140.209702 28.066530
v 261.555145 164.174988 8.924983
v 308.604431 158.094635 32.714874
v 211.979385 162.477127 8.362726
v 256.862823 166.300156 36.225193
v 152.818008 153.256592 6.977179
v 192.536987 163.306305 37.995644
v 94.335793 130.690628 3.856076
v 123.873459 148.331467 36.939262
v 47.493336 97.679008 -0.865250
v 65.263786 117.347084 33.533237
v 13.507569 57.157001 -6.852743
v 21.340687 74.430298 28.109234
v -5.603875 11.782175 -13.626810
v -4.064032 23.935907 20.715839
v -7.441753 -35.798397 -20.424774
v -7.499998 -29.770679 -0.000000
v 358.794830 124.838013 -73.981087
v 408.825195 75.160606 -59.902771
v 323.540161 143.168701 -91.982979
v 377.961182 100.045639 -63.441406
v 285.558441 153.204544 -106.389740
v 342.290558 119.570953 -62.724655
v 244.405823 155.535416 -115.940178
v 297.968353 131.791656 -58.430828
v 197.744324 151.241577 -119.133354
v 243.043686 134.272446 -50.122021
v 141.616013 140.105118 -115.584595
v 177.185684 125.876175 -35.368103
v 88.333237 118.419426 -105.098343
v 107.133949 105.984215 -16.501905
v 46.701096 88.610352 -85.877953
v 49.457439 73.053955 5.322732
v 17.710096 53.109238 -60.689690
v 8.360268 31.111580 28.691999
v 3.264418 14.291079 -32.039810
v -12.867370 -15.760461 51.792957
v 5.379771 -25.709372 -2.035506
v -11.046623 -63.239349 -0.000000
v 394.046295 41.840328 -54.120392
v 418.887543 38.306782 -120.938301
v 364.183563 53.615475 -88.637794
v 396.958069 43.862366 -141.171295
v 328.424042 62.127975 -118.465149
v 369.769684 47.682381 -153.694351
v 286.448761 67.341019 -142.874924
v 333.105835 49.367134 -159.963089
v 237.071579 69.540611 -160.030853
v 283.617096 48.194107 -160.831741
v 177.103653 68.834084 -168.697968
v 219.956696 43.619473 -148.958344
v 115.719948 63.977287 -166.827179
v 150.172043 34.943878 -125.412643
v 64.259560 54.892956 -147.958862
v 87.740410 22.149714 -92.740112
v 24.370777 42.643223 -115.168266
v 37.869072 6.511176 -53.101738
v -1.546003 28.129051 -71.915169
v 5.013007 -10.536371 -8.630763
v -10.696250 11.987299 -21.687147
v -6.766752 -27.293428 -0.000000
v 331.152008 -57.891918 -39.221951
v 345.174316 -31.989969 -85.202362
v 312.657288 -73.689255 -60.440289
v 333.098663 -54.155766 -104.634315
v 288.174866 -85.813278 -79.372284
v 316.125031 -74.222969 -119.640213
v 257.497284 -94.532173 -96.092987
v 290.821045 -92.125877 -131.189117
v 219.915878 -100.774284 -109.874619
v 254.255615 -107.138641 -140.188171
v 173.059311 -105.259888 -120.051353
v 205.160278 -118.743469 -141.396881
v 123.017807 -103.030159 -124.091309
v 149.491837 -125.377365 -133.479355
v 78.792931 -94.157112 -117.282112
v 96.940506 -121.893211 -117.940071
v 42.111557 -79.800804 -100.946587
v 52.106911 -109.503349 -95.903633
v 15.222572 -60.886318 -76.787483
v 19.069475 -89.655128 -68.246826
v 0.653846 -38.409149 -46.755383
v 1.627809 -63.725498 -0.000000
v 320.555511 -113.296638 -28.363392
v 340.736938 -82.602142 -35.499649
v 296.926605 -136.824966 -29.869148
v 323.035065 -110.382309 -41.703686
v 268.548798 -153.563934 -30.819279
v 301.120758 -134.216736 -46.517582
v 235.161026 -163.781219 -31.199133
v 271.622589 -153.454697 -50.059052
v 195.810898 -168.652542 -30.823448
v 231.860153 -166.537445 -52.477303
v 147.949051 -168.843643 -29.475471
v 180.750320 -172.416138 -53.171402
v 98.933945 -158.469421 -26.428240
v 124.703979 -169.445007 -51.374683
v 57.787468 -138.444489 -21.725409
v 74.558395 -152.608994 -47.545364
v 25.840332 -110.916084 -15.748495
v 34.484951 -124.523323 -42.020519
v 5.020383 -77.713890 -9.000177
v 8.057711 -88.120735 -34.911873
v -2.443006 -40.617599 -2.208489
v -1.450622 -46.384071 -0.000000
v 323.382263 -112.913628 84.977715
v 322.240234 -89.845299 58.286358
v 299.665833 -133.010513 96.289162
v 298.673370 -110.247810 67.424637
v 272.104767 -147.940689 104.584633
v 271.362457 -125.513802 73.436020
v 238.930389 -157.306091 109.647430
v 238.516541 -135.329468 76.101089
v 198.413574 -160.740768 111.285950
v 198.304901 -139.348846 75.070534
v 148.814194 -157.994537 109.438538
v 148.908081 -137.110291 69.013092
v 97.279129 -146.374924 102.466545
v 97.766548 -126.162285 57.551579
v 54.071129 -125.103790 89.871735
v 54.832863 -105.766647 41.914570
v 21.622431 -96.646164 73.156120
v 22.556904 -78.187866 23.469769
v 2.369488 -63.373169 53.682533
v 3.384154 -45.784264 3.790180
v -1.238104 -27.535509 32.608578
v -0.252889 -11.034690 -0.000000
v 320.764832 -34.388802 83.369423
v 340.856171 -29.437063 135.651917
v 297.209106 -45.925278 110.515602
v 323.236786 -35.761967 151.138779
v 268.883850 -54.970707 133.884293
v 301.393158 -40.858822 160.458511
v 235.528748 -61.519756 152.846695
v 271.951843 -44.603642 164.751190
v 196.194946 -65.893478 165.907379
v 232.227859 -46.546036 164.653702
v 148.335129 -68.357033 172.074158
v 181.134842 -46.291534 154.454056
v 99.290100 -67.289169 169.834534
v 125.078423 -42.831882 135.160843
v 58.084015 -62.084469 154.211639
v 74.881134 -35.328159 108.805336
v 26.054117 -53.565704 127.703056
v 34.722214 -24.605953 77.125481
v 5.133804 -42.380577 93.099625
v 8.184594 -11.665923 41.848263
v -2.442274 -28.945871 53.203251
v -1.449894 2.260338 -0.000000
v 320.555511 51.489628 83.694679
v 340.736938 35.791615 134.221161
v 296.926605 56.722828 108.505890
v 323.035034 48.377666 151.819565
v 268.548798 59.719448 129.622177
v 301.120758 59.472031 163.074936
v 235.161026 60.659134 146.472687
v 271.622589 68.762047 169.064346
v 195.810898 60.027786 157.614822
v 231.860153 75.628769 170.438980
v 147.949051 58.029072 162.031937
v 180.750320 79.735497 161.801682
v 98.933945 52.240849 157.935257
v 124.703979 80.888916 143.561218
v 57.787468 43.784401 141.003418
v 74.558395 76.543678 117.806259
v 25.840330 33.336491 113.692047
v 34.484947 67.677017 86.289886
v 5.020382 21.520063 78.792320
v 8.057710 55.319950 50.609222
v -2.443006 9.128201 39.251453
v -1.450622 40.333408 0.002453
v 331.089966 79.281212 29.605968
v 330.202484 95.594841 72.918114
v 310.419342 101.139565 41.270317
v 309.542328 118.856422 84.574303
v 285.214203 118.309212 50.213787
v 284.455353 137.366409 93.354530
v 253.651825 130.618362 56.388386
v 253.131805 150.959778 99.136803
v 213.955658 137.880997 59.721642
v 213.715408 159.485687 101.992912
v 164.356934 139.838867 59.947262
v 164.342453 162.865494 100.340492
v 111.560051 132.982330 54.824078
v 112.077881 157.986328 92.526924
v 65.667419 115.819893 43.922859
v 66.678444 142.733795 79.948647
v 29.441074 90.350708 28.265129
v 30.884209 119.296776 63.825489
v 5.644830 58.662548 9.049015
v 7.433264 89.775520 44.969231
v -2.931784 23.076736 -12.119269
v -0.961843 56.036804 -0.000000
v 322.416229 120.956352 -41.101315
v 321.281830 112.522469 -1.206198
v 298.404327 143.671585 -44.700283
v 297.420959 135.267014 -4.625991
v 270.623474 160.481094 -47.213791
v 269.891937 152.106995 -6.998446
v 237.310745 170.922363 -48.541599
v 236.908676 162.651031 -8.238750
v 196.742554 174.554871 -48.617954
v 196.645737 166.485703 -8.100381
v 147.183853 171.002335 -47.538803
v 147.289185 163.133377 -6.269044
v 95.819031 157.368881 -44.619232
v 96.316277 149.823120 -2.679057
v 52.920910 132.922562 -39.665455
v 53.690022 125.815315 2.352874
v 20.886669 100.430138 -33.319759
v 21.825691 93.781960 8.347164
v 2.117835 62.617729 -26.061552
v 3.134019 56.435627 14.590102
v -0.970897 22.168686 -18.136124
v 0.012728 16.531765 0.001451
v 331.248901 76.912613 -96.533455
v 330.043518 42.068855 -88.157005
v 310.516174 93.389267 -116.177811
v 309.445465 59.081440 -104.286949
v 285.253784 106.337898 -131.608353
v 284.415802 72.615211 -116.126564
v 253.652832 115.589378 -142.680862
v 253.130783 82.589287 -123.505783
v 213.945480 121.010201 -149.267426
v 213.725586 88.887146 -126.172890
v 164.357208 122.620758 -151.321777
v 164.342163 91.238380 -121.315742
v 111.623680 117.808998 -145.798080
v 112.014236 87.339584 -107.375267
v 65.829987 105.185234 -131.065826
v 66.515869 75.904083 -86.110268
v 29.720650 86.445282 -109.070740
v 30.604630 58.344536 -59.377853
v 6.042940 63.148876 -81.660240
v 7.035152 36.209660 -29.185659
v -2.443006 36.671352 -50.531269
v -1.450622 11.232638 -0.000000
v 331.248901 21.520813 -100.014397
v 330.043518 -23.582436 -126.585777
v 310.516174 21.115564 -125.998322
v 309.445465 -23.177183 -147.265259
v 285.253784 20.666666 -146.518143
v 284.415802 -22.728279 -162.281662
v 253.652832 20.143356 -161.411392
v 253.130783 -22.204964 -171.418900
v 213.945480 19.552675 -170.505173
v 213.725586 -21.614275 -174.497269
v 164.357208 19.072050 -173.590240
v 164.342163 -21.133644 -167.683548
v 111.623680 18.508142 -166.852753
v 112.014236 -20.569727 -148.890121
v 65.829987 17.798538 -148.216583
v 66.515869 -19.860115 -120.554375
v 29.720650 17.111778 -120.080315
v 30.604630 -19.173351 -85.101524
v 6.042940 16.448956 -84.854630
v 7.035151 -18.510527 -44.953537
v -2.443006 15.573156 -44.953537
v -1.450622 -17.634726 -0.000000
v 0.000000 -213.043518 212.908783
v 0.000000 -213.043518 -212.083405
v 0.000000 211.948669 212.908783
v 0.000000 211.948669 0.000000
v 8.504532 -213.854996 213.854996
v 8.504532 -213.854996 -213.854996
v 8.504532 213.854996 213.854996
v 8.504532 213.854996 0.000000
v 0.000000 0.000000 115.098160
v 0.000000 59.430355 66.451950
v 0.000000 102.936394 -0.000006
v 0.000000 118.860710 -66.451958
v 0.000000 102.936394 -115.098167
v 0.000000 59.430351 -132.903915
v 0.000000 -0.000010 -115.098160
v 0.000000 -59.430367 -66.451942
v 0.000000 -102.936401 0.000017
v 0.000000 -118.860710 66.451973
v 0.000000 -102.936394 115.098167
v 0.000000 -59.430340 204.911255
v 27.193913 0.000033 177.458359
v 27.193913 91.629768 102.455627
v 27.193913 158.707382 -0.000009
v 27.193913 183.259491 -102.455635
v 27.193913 158.707382 -177.458374
v 27.193913 91.629768 -204.911270
v 27.193913 0.000017 -177.458359
v 27.193913 -91.629723 -102.455612
v 27.193913 -158.707321 0.000026
v 27.193913 -183.259430 102.455673
v 27.193913 -158.707291 177.458374
v 27.193913 -91.629669 66.451950
v 0.000000 102.936394 102.455627
v 27.193913 158.707382 66.451950
v 0.000000 102.936394 0.029555

vt 0.795174 0.000000
vt 0.795174 0.999424
vt 0.818820 0.003534
vt 0.818820 0.999424
vt 0.830751 0.003534
vt 0.830751 0.999424
vt 0.842682 0.003534
vt 0.842682 0.999424
vt 0.854612 0.003534
vt 0.854612 0.999424
vt 0.866543 0.003534
vt 0.866543 0.999424
vt 0.878474 0.003534
vt 0.878474 0.999424
vt 0.890405 0.003534
vt 0.890405 0.999424
vt 0.902335 0.003534
vt 0.902335 0.999424
vt 0.914266 0.003534
vt 0.914266 0.999424
vt 0.926197 0.003534
vt 0.926197 0.999424
vt 0.938128 0.003534
vt 0.938128 1.000000
vt 1.000000 -0.000655
vt 1.000000 1.000000
vt 0.795174 0.000000
vt 0.795174 0.999424
vt 0.818820 0.003534
vt 0.818820 0.999424
vt 0.830751 0.003534
vt 0.830751 0.999424
vt 0.842682 0.003534
vt 0.842682 0.999424
vt 0.854612 0.003534
vt 0.854612 0.999424
vt 0.866543 0.003534
vt 0.866543 0.999424
vt 0.878474 0.003534
vt 0.878474 0.999424
vt 0.890405 0.003534
vt 0.890405 0.999424
vt 0.902335 0.003534
vt 0.902335 0.999424
vt 0.914266 0.003534
vt 0.914266 0.999424
vt 0.926197 0.003534
vt 0.926197 0.999424
vt 0.938128 0.003534
vt 0.938128 1.000000
vt 1.000000 -0.000655
vt 1.000000 1.000000
vt 0.795174 0.000000
vt 0.795174 0.999424
vt 0.818820 0.003534
vt 0.818820 0.999424
vt 0.830751 0.003534
vt 0.830751 0.999424
vt 0.842682 0.003534
vt 0.842682 0.999424
vt 0.854612 0.003534
vt 0.854612 0.999424
vt 0.866543 0.003534
vt 0.866543 0.999424
vt 0.878474 0.003534
vt 0.878474 0.999424
vt 0.890405 0.003534
vt 0.890405 0.999424
vt 0.902335 0.003534
vt 0.902335 0.999424
vt 0.914266 0.003534
vt 0.914266 0.999424
vt 0.926197 0.003534
vt 0.926197 0.999424
vt 0.938128 0.003534
vt 0.938128 1.000000
vt 1.000000 -0.000655
vt 1.000000 1.000000
vt 0.795174 0.000000
vt 0.795174 0.999424
vt 0.818820 0.003534
vt 0.818820 0.999424
vt 0.830751 0.003534
vt 0.830751 0.999424
vt 0.842682 0.003534
vt 0.842682 0.999424
vt 0.854612 0.003534
vt 0.854612 0.999424
vt 0.866543 0.003534
vt 0.866543 0.999424
vt 0.878474 0.003534
vt 0.878474 0.999424
vt 0.890405 0.003534
vt 0.890405 0.999424
vt 0.902335 0.003534
vt 0.902335 0.999424
vt 0.914266 0.003534
vt 0.914266 0.999424
vt 0.926197 0.003534
vt 0.926197 0.999424
vt 0.938128 0.003534
vt 0.938128 1.000000
vt 1.000000 -0.000655
vt 1.000000 1.000000
vt 0.007295 0.000000
vt 0.007295 1.004863
vt 0.155677 0.004130
vt 0.155677 1.004863
vt 0.225441 0.004130
vt 0.225441 1.004863
vt 0.267146 0.004130
vt 0.267146 1.004863
vt 0.308850 0.004130
vt 0.308850 1.004863
vt 0.350555 0.004130
vt 0.350555 1.004863
vt 0.392259 0.004130
vt 0.392259 1.004863
vt 0.433964 0.004130
vt 0.433964 1.004863
vt 0.644027 0.004130
vt 0.644027 1.004863
vt 0.713791 0.004130
vt 0.713791 1.004863
vt 0.783556 0.004130
vt 0.783556 1.004863
vt 0.853320 0.004130
vt 0.853320 1.004863
vt 1.000000 0.003414
vt 1.000036 1.000000
vt 0.007295 0.000000
vt 0.007295 1.004863
vt 0.155677 0.004130
vt 0.155677 1.004863
vt 0.225441 0.004130
vt 0.225441 1.004863
vt 0.267146 0.004130
vt 0.267146 1.004863
vt 0.308850 0.004130
vt 0.308850 1.004863
vt 0.350555 0.004130
vt 0.350555 1.004863
vt 0.392259 0.004130
vt 0.392259 1.004863
vt 0.433964 0.004130
vt 0.433964 1.004863
vt 0.644027 0.004130
vt 0.644027 1.004863
vt 0.713791 0.004130
vt 0.713791 1.004863
vt 0.783556 0.004130
vt 0.783556 1.004863
vt 0.853320 0.004130
vt 0.853320 1.004863
vt 1.000000 0.003414
vt 1.000036 1.000000
vt 0.795174 0.000000
vt 0.795174 0.999424
vt 0.818820 0.003534
vt 0.818820 0.999424
vt 0.830751 0.003534
vt 0.830751 0.999424
vt 0.842682 0.003534
vt 0.842682 0.999424
vt 0.854612 0.003534
vt 0.854612 0.999424
vt 0.866543 0.003534
vt 0.866543 0.999424
vt 0.878474 0.003534
vt 0.878474 0.999424
vt 0.890405 0.003534
vt 0.890405 0.999424
vt 0.902335 0.003534
vt 0.902335 0.999424
vt 0.914266 0.003534
vt 0.914266 0.999424
vt 0.926197 0.003534
vt 0.926197 0.999424
vt 0.938128 0.003534
vt 0.938128 1.000000
vt 1.000000 -0.000655
vt 1.000000 1.000000
vt 0.795174 0.000000
vt 0.795174 0.999424
vt 0.818820 0.003534
vt 0.818820 0.999424
vt 0.830751 0.003534
vt 0.830751 0.999424
vt 0.842682 0.003534
vt 0.842682 0.999424
vt 0.854612 0.003534
vt 0.854612 0.999424
vt 0.866543 0.003534
vt 0.866543 0.999424
vt 0.878474 0.003534
vt 0.878474 0.999424
vt 0.890405 0.003534
vt 0.890405 0.999424
vt 0.902335 0.003534
vt 0.902335 0.999424
vt 0.914266 0.003534
vt 0.914266 0.999424
vt 0.926197 0.003534
vt 0.926197 0.999424
vt 0.938128 0.003534
vt 0.938128 1.000000
vt 1.000000 -0.000655
vt 1.000000 1.000000
vt 0.795174 0.000000
vt 0.795174 0.999424
vt 0.818820 0.003534
vt 0.818820 0.999424
vt 0.830751 0.003534
vt 0.830751 0.999424
vt 0.842682 0.003534
vt 0.842682 0.999424
vt 0.854612 0.003534
vt 0.854612 0.999424
vt 0.866543 0.003534
vt 0.866543 0.999424
vt 0.878474 0.003534
vt 0.878474 0.999424
vt 0.890405 0.003534
vt 0.890405 0.999424
vt 0.902335 0.003534
vt 0.902335 0.999424
vt 0.914266 0.003534
vt 0.914266 0.999424
vt 0.926197 0.003534
vt 0.926197 0.999424
vt 0.938128 0.003534
vt 0.938128 1.000000
vt 1.000000 -0.000655
vt 1.000000 1.000000
vt 0.795174 0.000000
vt 0.795174 0.999424
vt 0.818820 0.003534
vt 0.818820 0.999424
vt 0.830751 0.003534
vt 0.830751 0.999424
vt 0.842682 0.003534
vt 0.842682 0.999424
vt 0.854612 0.003534
vt 0.854612 0.999424
vt 0.866543 0.003534
vt 0.866543 0.999424
vt 0.878474 0.003534
vt 0.878474 0.999424
vt 0.890405 0.003534
vt 0.890405 0.999424
vt 0.902335 0.003534
vt 0.902335 0.999424
vt 0.914266 0.003534
vt 0.914266 0.999424
vt 0.926197 0.003534
vt 0.926197 0.999424
vt 0.938128 0.003534
vt 0.938128 1.000000
vt 1.000000 -0.000655
vt 1.000000 1.000000
vt 0.795174 0.000000
vt 0.795174 0.999424
vt 0.818820 0.003534
vt 0.818820 0.999424
vt 0.830751 0.003534
vt 0.830751 0.999424
vt 0.842682 0.003534
vt 0.842682 0.999424
vt 0.854612 0.003534
vt 0.854612 0.999424
vt 0.866543 0.003534
vt 0.866543 0.999424
vt 0.878474 0.003534
vt 0.878474 0.999424
vt 0.890405 0.003534
vt 0.890405 0.999424
vt 0.902335 0.003534
vt 0.902335 0.999424
vt 0.914266 0.003534
vt 0.914266 0.999424
vt 0.926197 0.003534
vt 0.926197 0.999424
vt 0.938128 0.003534
vt 0.938128 1.000000
vt 1.000000 -0.000655
vt 1.000000 1.000000
vt 0.795174 0.000000
vt 0.795174 0.999424
vt 0.818820 0.003534
vt 0.818820 0.999424
vt 0.830751 0.003534
vt 0.830751 0.999424
vt 0.842682 0.003534
vt 0.842682 0.999424
vt 0.854612 0.003534
vt 0.854612 0.999424
vt 0.866543 0.003534
vt 0.866543 0.999424
vt 0.878474 0.003534
vt 0.878474 0.999424
vt 0.890405 0.003534
vt 0.890405 0.999424
vt 0.902335 0.003534
vt 0.902335 0.999424
vt 0.914266 0.003534
vt 0.914266 0.999424
vt 0.926197 0.003534
vt 0.926197 0.999424
vt 0.938128 0.003534
vt 0.938128 1.000000
vt 1.000000 -0.000655
vt 1.000000 1.000000
vt 0.401235 0.000000
vt 0.401235 0.998955
vt 0.486943 0.000643
vt 0.486943 0.998034
vt 0.623229 0.003832
vt 0.623229 0.998034
vt 0.659980 0.003832
vt 0.659980 0.998034
vt 0.696730 0.003832
vt 0.696730 0.998034
vt 0.733481 0.003832
vt 0.733481 0.998034
vt 0.770231 0.003832
vt 0.770231 0.998034
vt 0.806981 0.003832
vt 0.806981 0.998034
vt 0.843732 0.003832
vt 0.843732 0.998034
vt 0.880482 0.003832
vt 0.880482 0.998034
vt 0.904781 0.003832
vt 0.904781 1.002144
vt 0.911649 0.003832
vt 0.911649 1.002432
vt 1.000000 0.001379
vt 1.000018 1.000000
vt 0.401235 0.000000
vt 0.401235 0.998955
vt 0.486943 0.000643
vt 0.486943 0.998034
vt 0.623229 0.003832
vt 0.623229 0.998034
vt 0.659980 0.003832
vt 0.659980 0.998034
vt 0.696730 0.003832
vt 0.696730 0.998034
vt 0.733481 0.003832
vt 0.733481 0.998034
vt 0.770231 0.003832
vt 0.770231 0.998034
vt 0.806981 0.003832
vt 0.806981 0.998034
vt 0.843732 0.003832
vt 0.843732 0.998034
vt 0.880482 0.003832
vt 0.880482 0.998034
vt 0.904781 0.003832
vt 0.904781 1.002144
vt 0.911649 0.003832
vt 0.911649 1.002432
vt 1.000000 0.001379
vt 1.000018 1.000000
vt 0.795174 0.000000
vt 0.795174 0.999424
vt 0.818820 0.003534
vt 0.818820 0.999424
vt 0.830751 0.003534
vt 0.830751 0.999424
vt 0.842682 0.003534
vt 0.842682 0.999424
vt 0.854612 0.003534
vt 0.854612 0.999424
vt 0.866543 0.003534
vt 0.866543 0.999424
vt 0.878474 0.003534
vt 0.878474 0.999424
vt 0.890405 0.003534
vt 0.890405 0.999424
vt 0.902335 0.003534
vt 0.902335 0.999424
vt 0.914266 0.003534
vt 0.914266 0.999424
vt 0.926197 0.003534
vt 0.926197 0.999424
vt 0.938128 0.003534
vt 0.938128 1.000000
vt 1.000000 -0.000655
vt 1.000000 1.000000
vt 0.795174 0.000000
vt 0.795174 0.999424
vt 0.818820 0.003534
vt 0.818820 0.999424
vt 0.830751 0.003534
vt 0.830751 0.999424
vt 0.842682 0.003534
vt 0.842682 0.999424
vt 0.854612 0.003534
vt 0.854612 0.999424
vt 0.866543 0.003534
vt 0.866543 0.999424
vt 0.878474 0.003534
vt 0.878474 0.999424
vt 0.890405 0.003534
vt 0.890405 0.999424
vt 0.902335 0.003534
vt 0.902335 0.999424
vt 0.914266 0.003534
vt 0.914266 0.999424
vt 0.926197 0.003534
vt 0.926197 0.999424
vt 0.938128 0.003534
vt 0.938128 1.000000
vt 1.000000 -0.000655
vt 1.000000 1.000000
vt 0.226310 0.001570
vt 0.226310 0.996811
vt 0.312237 0.001570
vt 0.312237 0.996811
vt 0.366377 0.001570
vt 0.366377 0.996811
vt 0.410536 0.001570
vt 0.410536 0.996811
vt 0.459681 0.001570
vt 0.459681 0.996811
vt 0.518683 0.001570
vt 0.518683 0.996811
vt 0.582008 0.001570
vt 0.582008 0.996811
vt 0.669257 0.001570
vt 0.669257 0.996811
vt 0.781296 0.001570
vt 0.781296 0.996811
vt 0.919637 -0.001418
vt 0.919637 0.996811
vt 0.994014 -0.003189
vt 0.994014 1.000000
vt -0.000000 0.907312
vt -0.000000 1.000000
vt 0.000116 0.907312
vt 0.000116 1.000000
vt 0.000223 0.907312
vt 0.000223 1.000000
vt 0.000330 0.907312
vt 0.000330 1.000000
vt 0.000449 0.907312
vt 0.000449 1.000000
vt 0.000593 0.907312
vt 0.000593 1.000000
vt 0.000746 0.907312
vt 0.000746 1.000000
vt 0.000958 0.907312
vt 0.000958 1.000000
vt 0.001230 0.907312
vt 0.001230 1.000000
vt 0.001602 0.907033
vt 0.001602 1.000000
vt 0.007669 0.907033
vt 0.007669 1.000000
vt 0.226310 0.004758
vt 0.226310 1.000000
vt 0.312237 0.004758
vt 0.312237 1.000000
vt 0.366377 0.004758
vt 0.366377 1.000000
vt 0.410536 0.004758
vt 0.410536 1.000000
vt 0.459681 0.004758
vt 0.459681 1.000000
vt 0.518683 0.004758
vt 0.518683 1.000000
vt 0.582008 0.004758
vt 0.582008 1.000000
vt 0.669257 0.004758
vt 0.669257 1.000000
vt 0.781296 0.004758
vt 0.781296 1.000000
vt 0.919637 0.001771
vt 0.919637 1.000000
vt 0.994014 0.000000
vt 0.994014 1.000000
vt 0.237803 0.004759
vt 0.237803 1.000000
vt 0.348828 0.004759
vt 0.348828 1.000000
vt 0.412493 0.004759
vt 0.412493 1.000000
vt 0.454237 0.004759
vt 0.454237 1.000000
vt 0.500692 0.004759
vt 0.500692 1.000000
vt 0.556466 0.004759
vt 0.556466 1.000000
vt 0.616326 0.004759
vt 0.616326 1.000000
vt 0.698801 0.004759
vt 0.698801 1.000000
vt 0.804710 0.004759
vt 0.804710 1.000000
vt 0.941152 0.001771
vt 0.941152 1.000000
vt 0.994014 0.000000
vt 0.994014 1.000000
vt -0.000000 0.907312
vt -0.000000 1.000000
vt 0.000116 0.907312
vt 0.000116 1.000000
vt 0.000223 0.907312
vt 0.000223 1.000000
vt 0.000330 0.907312
vt 0.000330 1.000000
vt 0.000449 0.907312
vt 0.000449 1.000000
vt 0.000593 0.907312
vt 0.000593 1.000000
vt 0.000746 0.907312
vt 0.000746 1.000000
vt 0.000958 0.907312
vt 0.000958 1.000000
vt 0.001230 0.907312
vt 0.001230 1.000000
vt 0.001602 0.907033
vt 0.001602 1.000000
vt 0.007669 0.907033
vt 0.007669 1.000000
vt -0.000000 0.907312
vt -0.000000 1.000000
vt 0.000116 0.907312
vt 0.000116 1.000000
vt 0.000223 0.907312
vt 0.000223 1.000000
vt 0.000330 0.907312
vt 0.000330 1.000000
vt 0.000449 0.907312
vt 0.000449 1.000000
vt 0.000593 0.907312
vt 0.000593 1.000000
vt 0.000746 0.907312
vt 0.000746 1.000000
vt 0.000958 0.907312
vt 0.000958 1.000000
vt 0.001230 0.907312
vt 0.001230 1.000000
vt 0.001602 0.907033
vt 0.001602 1.000000
vt 0.007669 0.907033
vt 0.007669 1.000000
vt -0.000000 0.907312
vt -0.000000 1.000000
vt 0.000116 0.907312
vt 0.000116 1.000000
vt 0.000223 0.907312
vt 0.000223 1.000000
vt 0.000330 0.907312
vt 0.000330 1.000000
vt 0.000449 0.907312
vt 0.000449 1.000000
vt 0.000593 0.907312
vt 0.000593 1.000000
vt 0.000746 0.907312
vt 0.000746 1.000000
vt 0.000958 0.907312
vt 0.000958 1.000000
vt 0.001230 0.907312
vt 0.001230 1.000000
vt 0.001602 0.907033
vt 0.001602 1.000000
vt 0.007669 0.907033
vt 0.007669 1.000000
vt -0.000000 0.907312
vt -0.000000 1.000000
vt 0.000116 0.907312
vt 0.000116 1.000000
vt 0.000223 0.907312
vt 0.000223 1.000000
vt 0.000330 0.907312
vt 0.000330 1.000000
vt 0.000449 0.907312
vt 0.000449 1.000000
vt 0.000593 0.907312
vt 0.000593 1.000000
vt 0.000746 0.907312
vt 0.000746 1.000000
vt 0.000958 0.907312
vt 0.000958 1.000000
vt 0.001230 0.907312
vt 0.001230 1.000000
vt 0.001602 0.907033
vt 0.001602 1.000000
vt 0.007669 0.907033
vt 0.007669 1.000000
vt -0.000000 0.907312
vt -0.000000 1.000000
vt 0.000116 0.907312
vt 0.000116 1.000000
vt 0.000223 0.907312
vt 0.000223 1.000000
vt 0.000330 0.907312
vt 0.000330 1.000000
vt 0.000449 0.907312
vt 0.000449 1.000000
vt 0.000593 0.907312
vt 0.000593 1.000000
vt 0.000746 0.907312
vt 0.000746 1.000000
vt 0.000958 0.907312
vt 0.000958 1.000000
vt 0.001230 0.907312
vt 0.001230 1.000000
vt 0.001602 0.907033
vt 0.001602 1.000000
vt 0.007669 0.907033
vt 0.007669 1.000000
vt -0.000000 0.907312
vt -0.000000 1.000000
vt 0.000116 0.907312
vt 0.000116 1.000000
vt 0.000223 0.907312
vt 0.000223 1.000000
vt 0.000330 0.907312
vt 0.000330 1.000000
vt 0.000449 0.907312
vt 0.000449 1.000000
vt 0.000593 0.907312
vt 0.000593 1.000000
vt 0.000746 0.907312
vt 0.000746 1.000000
vt 0.000958 0.907312
vt 0.000958 1.000000
vt 0.001230 0.907312
vt 0.001230 1.000000
vt 0.001602 0.907033
vt 0.001602 1.000000
vt 0.007669 0.907033
vt 0.007669 1.000000
vt -0.000000 0.907312
vt -0.000000 1.000000
vt 0.000116 0.907312
vt 0.000116 1.000000
vt 0.000223 0.907312
vt 0.000223 1.000000
vt 0.000330 0.907312
vt 0.000330 1.000000
vt 0.000449 0.907312
vt 0.000449 1.000000
vt 0.000593 0.907312
vt 0.000593 1.000000
vt 0.000746 0.907312
vt 0.000746 1.000000
vt 0.000958 0.907312
vt 0.000958 1.000000
vt 0.001230 0.907312
vt 0.001230 1.000000
vt 0.001602 0.907033
vt 0.001602 1.000000
vt 0.007669 0.907033
vt 0.007669 1.000000
vt -0.000000 0.907312
vt -0.000000 1.000000
vt 0.000116 0.907312
vt 0.000116 1.000000
vt 0.000223 0.907312
vt 0.000223 1.000000
vt 0.000330 0.907312
vt 0.000330 1.000000
vt 0.000449 0.907312
vt 0.000449 1.000000
vt 0.000593 0.907312
vt 0.000593 1.000000
vt 0.000746 0.907312
vt 0.000746 1.000000
vt 0.000958 0.907312
vt 0.000958 1.000000
vt 0.001230 0.907312
vt 0.001230 1.000000
vt 0.001602 0.907033
vt 0.001602 1.000000
vt 0.007669 0.907033
vt 0.007669 1.000000
vt -0.000000 0.907312
vt -0.000000 1.000000
vt 0.000116 0.907312
vt 0.000116 1.000000
vt 0.000223 0.907312
vt 0.000223 1.000000
vt 0.000330 0.907312
vt 0.000330 1.000000
vt 0.000449 0.907312
vt 0.000449 1.000000
vt 0.000593 0.907312
vt 0.000593 1.000000
vt 0.000746 0.907312
vt 0.000746 1.000000
vt 0.000958 0.907312
vt 0.000958 1.000000
vt 0.001230 0.907312
vt 0.001230 1.000000
vt 0.001602 0.907033
vt 0.001602 1.000000
vt 0.007669 0.907033
vt 0.007669 1.000000
vt 0.226310 0.002306
vt 0.226310 0.997547
vt 0.312237 0.002306
vt 0.312237 0.997547
vt 0.366377 0.002306
vt 0.366377 0.997547
vt 0.410536 0.002306
vt 0.410536 0.997547
vt 0.459681 0.002306
vt 0.459681 0.997547
vt 0.518683 0.002306
vt 0.518683 0.997547
vt 0.582008 0.002306
vt 0.582008 0.997547
vt 0.669257 0.002306
vt 0.669257 0.997547
vt 0.781296 0.002306
vt 0.781296 0.997547
vt 0.919637 -0.000682
vt 0.919637 0.997547
vt 0.994014 -0.002453
vt 0.994014 1.000000
vt -0.000000 0.907312
vt -0.000000 1.000000
vt 0.000116 0.907312
vt 0.000116 1.000000
vt 0.000223 0.907312
vt 0.000223 1.000000
vt 0.000330 0.907312
vt 0.000330 1.000000
vt 0.000449 0.907312
vt 0.000449 1.000000
vt 0.000593 0.907312
vt 0.000593 1.000000
vt 0.000746 0.907312
vt 0.000746 1.000000
vt 0.000958 0.907312
vt 0.000958 1.000000
vt 0.001230 0.907312
vt 0.001230 1.000000
vt 0.001602 0.907033
vt 0.001602 1.000000
vt 0.007669 0.907033
vt 0.007669 1.000000
vt 0.226310 0.003307
vt 0.226310 0.998549
vt 0.312237 0.003307
vt 0.312237 0.998549
vt 0.366377 0.003307
vt 0.366377 0.998549
vt 0.410536 0.003307
vt 0.410536 0.998549
vt 0.459681 0.003307
vt 0.459681 0.998549
vt 0.518683 0.003307
vt 0.518683 0.998549
vt 0.582008 0.003307
vt 0.582008 0.998549
vt 0.669257 0.003307
vt 0.669257 0.998549
vt 0.781296 0.003307
vt 0.781296 0.998549
vt 0.919637 0.000320
vt 0.919637 0.998549
vt 0.994014 -0.001451
vt 0.994014 1.000000
vt -0.000000 0.907312
vt -0.000000 1.000000
vt 0.000116 0.907312
vt 0.000116 1.000000
vt 0.000223 0.907312
vt 0.000223 1.000000
vt 0.000330 0.907312
vt 0.000330 1.000000
vt 0.000449 0.907312
vt 0.000449 1.000000
vt 0.000593 0.907312
vt 0.000593 1.000000
vt 0.000746 0.907312
vt 0.000746 1.000000
vt 0.000958 0.907312
vt 0.000958 1.000000
vt 0.001230 0.907312
vt 0.001230 1.000000
vt 0.001602 0.907033
vt 0.001602 1.000000
vt 0.007669 0.907033
vt 0.007669 1.000000
vt -0.000000 0.907312
vt -0.000000 1.000000
vt 0.000116 0.907312
vt 0.000116 1.000000
vt 0.000223 0.907312
vt 0.000223 1.000000
vt 0.000330 0.907312
vt 0.000330 1.000000
vt 0.000449 0.907312
vt 0.000449 1.000000
vt 0.000593 0.907312
vt 0.000593 1.000000
vt 0.000746 0.907312
vt 0.000746 1.000000
vt 0.000958 0.907312
vt 0.000958 1.000000
vt 0.001230 0.907312
vt 0.001230 1.000000
vt 0.001602 0.907033
vt 0.001602 1.000000
vt 0.007669 0.907033
vt 0.007669 1.000000
vt 0.000000 0.000000
vt 0.000000 1.000000
vt 1.000000 0.000000
vt 1.000000 1.000000
vt 0.000000 0.000000
vt 0.000000 1.000000
vt 1.000000 0.000000
vt 1.000000 1.000000
vt 0.000000 0.536943
vt 0.000000 0.970445
vt 0.000000 0.536943
vt 0.000000 0.970445
vt 0.000000 0.536943
vt 0.000000 0.970445
vt 0.000000 0.536943
vt 0.000000 0.970445
vt 0.000000 0.536943
vt 0.000000 0.970445
vt 0.000000 0.536943
vt 0.000000 0.970445
vt 0.909589 0.536943
vt 0.909589 0.970445
vt 0.909589 0.536943
vt 0.909589 0.970445
vt 0.909589 0.536943
vt 0.909589 0.970445
vt 0.909589 0.536943
vt 0.909589 0.970445
vt 0.909589 0.536943
vt 0.909589 0.970445
vt 0.909589 0.536943
vt 0.909589 0.970445
vt 0.000000 0.970445
vt 0.909589 0.970445
vt 0.000000 1.000000

f 3/3 4/4 1/1
f 2/2 1/1 4/4
f 5/5 6/6 3/3
f 4/4 3/3 6/6
f 7/7 8/8 5/5
f 6/6 5/5 8/8
f 9/9 10/10 7/7
f 8/8 7/7 10/10
f 11/11 12/12 9/9
f 10/10 9/9 12/12
f 13/13 14/14 11/11
f 12/12 11/11 14/14
f 15/15 16/16 13/13
f 14/14 13/13 16/16
f 17/17 18/18 15/15
f 16/16 15/15 18/18
f 19/19 20/20 17/17
f 18/18 17/17 20/20
f 21/21 22/22 19/19
f 20/20 19/19 22/22
f 23/23 24/24 21/21
f 22/22 21/21 24/24
f 25/25 26/26 23/23
f 24/24 23/23 26/26
f 29/29 30/30 27/27
f 28/28 27/27 30/30
f 31/31 32/32 29/29
f 30/30 29/29 32/32
f 33/33 34/34 31/31
f 32/32 31/31 34/34
f 35/35 36/36 33/33
f 34/34 33/33 36/36
f 37/37 38/38 35/35
f 36/36 35/35 38/38
f 39/39 40/40 37/37
f 38/38 37/37 40/40
f 41/41 42/42 39/39
f 40/40 39/39 42/42
f 43/43 44/44 41/41
f 42/42 41/41 44/44
f 45/45 46/46 43/43
f 44/44 43/43 46/46
f 47/47 48/48 45/45
f 46/46 45/45 48/48
f 49/49 50/50 47/47
f 48/48 47/47 50/50
f 51/51 52/52 49/49
f 50/50 49/49 52/52
f 55/55 56/56 53/53
f 54/54 53/53 56/56
f 57/57 58/58 55/55
f 56/56 55/55 58/58
f 59/59 60/60 57/57
f 58/58 57/57 60/60
f 61/61 62/62 59/59
f 60/60 59/59 62/62
f 63/63 64/64 61/61
f 62/62 61/61 64/64
f 65/65 66/66 63/63
f 64/64 63/63 66/66
f 67/67 68/68 65/65
f 66/66 65/65 68/68
f 69/69 70/70 67/67
f 68/68 67/67 70/70
f 71/71 72/72 69/69
f 70/70 69/69 72/72
f 73/73 74/74 71/71
f 72/72 71/71 74/74
f 75/75 76/76 73/73
f 74/74 73/73 76/76
f 77/77 78/78 75/75
f 76/76 75/75 78/78
f 81/81 82/82 79/79
f 80/80 79/79 82/82
f 83/83 84/84 81/81
f 82/82 81/81 84/84
f 85/85 86/86 83/83
f 84/84 83/83 86/86
f 87/87 88/88 85/85
f 86/86 85/85 88/88
f 89/89 90/90 87/87
f 88/88 87/87 90/90
f 91/91 92/92 89/89
f 90/90 89/89 92/92
f 93/93 94/94 91/91
f 92/92 91/91 94/94
f 95/95 96/96 93/93
f 94/94 93/93 96/96
f 97/97 98/98 95/95
f 96/96 95/95 98/98
f 99/99 100/100 97/97
f 98/98 97/97 100/100
f 101/101 102/102 99/99
f 100/100 99/99 102/102
f 103/103 104/104 101/101
f 102/102 101/101 104/104
f 107/107 108/108 105/105
f 106/106 105/105 108/108
f 109/109 110/110 107/107
f 108/108 107/107 110/110
f 111/111 112/112 109/109
f 110/110 109/109 112/112
f 113/113 114/114 111/111
f 112/112 111/111 114/114
f 115/115 116/116 113/113
f 114/114 113/113 116/116
f 117/117 118/118 115/115
f 116/116 115/115 118/118
f 119/119 120/120 117/117
f 118/118 117/117 120/120
f 121/121 122/122 119/119
f 120/120 119/119 122/122
f 123/123 124/124 121/121
f 122/122 121/121 124/124
f 125/125 126/126 123/123
f 124/124 123/123 126/126
f 127/127 128/128 125/125
f 126/126 125/125 128/128
f 129/129 130/130 127/127
f 128/128 127/127 130/130
f 133/133 134/134 131/131
f 132/132 131/131 134/134
f 135/135 136/136 133/133
f 134/134 133/133 136/136
f 137/137 138/138 135/135
f 136/136 135/135 138/138
f 139/139 140/140 137/137
f 138/138 137/137 140/140
f 141/141 142/142 139/139
f 140/140 139/139 142/142
f 143/143 144/144 141/141
f 142/142 141/141 144/144
f 145/145 146/146 143/143
f 144/144 143/143 146/146
f 147/147 148/148 145/145
f 146/146 145/145 148/148
f 149/149 150/150 147/147
f 148/148 147/147 150/150
f 151/151 152/152 149/149
f 150/150 149/149 152/152
f 153/153 154/154 151/151
f 152/152 151/151 154/154
f 155/155 156/156 153/153
f 154/154 153/153 156/156
f 159/159 160/160 157/157
f 158/158 157/157 160/160
f 161/161 162/162 159/159
f 160/160 159/159 162/162
f 163/163 164/164 161/161
f 162/162 161/161 164/164
f 165/165 166/166 163/163
f 164/164 163/163 166/166
f 167/167 168/168 165/165
f 166/166 165/165 168/168
f 169/169 170/170 167/167
f 168/168 167/167 170/170
f 171/171 172/172 169/169
f 170/170 169/169 172/172
f 173/173 174/174 171/171
f 172/172 171/171 174/174
f 175/175 176/176 173/173
f 174/174 173/173 176/176
f 177/177 178/178 175/175
f 176/176 175/175 178/178
f 179/179 180/180 177/177
f 178/178 177/177 180/180
f 181/181 182/182 179/179
f 180/180 179/179 182/182
f 185/185 186/186 183/183
f 184/184 183/183 186/186
f 187/187 188/188 185/185
f 186/186 185/185 188/188
f 189/189 190/190 187/187
f 188/188 187/187 190/190
f 191/191 192/192 189/189
f 190/190 189/189 192/192
f 193/193 194/194 191/191
f 192/192 191/191 194/194
f 195/195 196/196 193/193
f 194/194 193/193 196/196
f 197/197 198/198 195/195
f 196/196 195/195 198/198
f 199/199 200/200 197/197
f 198/198 197/197 200/200
f 201/201 202/202 199/199
f 200/200 199/199 202/202
f 203/203 204/204 201/201
f 202/202 201/201 204/204
f 205/205 206/206 203/203
f 204/204 203/203 206/206
f 207/207 208/208 205/205
f 206/206 205/205 208/208
f 211/211 212/212 209/209
f 210/210 209/209 212/212
f 213/213 214/214 211/211
f 212/212 211/211 214/214
f 215/215 216/216 213/213
f 214/214 213/213 216/216
f 217/217 218/218 215/215
f 216/216 215/215 218/218
f 219/219 220/220 217/217
f 218/218 217/217 220/220
f 221/221 222/222 219/219
f 220/220 219/219 222/222
f 223/223 224/224 221/221
f 222/222 221/221 224/224
f 225/225 226/226 223/223
f 224/224 223/223 226/226
f 227/227 228/228 225/225
f 226/226 225/225 228/228
f 229/229 230/230 227/227
f 228/228 227/227 230/230
f 231/231 232/232 229/229
f 230/230 229/229 232/232
f 233/233 234/234 231/231
f 232/232 231/231 234/234
f 237/237 238/238 235/235
f 236/236 235/235 238/238
f 239/239 240/240 237/237
f 238/238 237/237 240/240
f 241/241 242/242 239/239
f 240/240 239/239 242/242
f 243/243 244/244 241/241
f 242/242 241/241 244/244
f 245/245 246/246 243/243
f 244/244 243/243 246/246
f 247/247 248/248 245/245
f 246/246 245/245 248/248
f 249/249 250/250 247/247
f 248/248 247/247 250/250
f 251/251 252/252 249/249
f 250/250 249/249 252/252
f 253/253 254/254 251/251
f 252/252 251/251 254/254
f 255/255 256/256 253/253
f 254/254 253/253 256/256
f 257/257 258/258 255/255
f 256/256 255/255 258/258
f 259/259 260/260 257/257
f 258/258 257/257 260/260
f 263/263 264/264 261/261
f 262/262 261/261 264/264
f 265/265 266/266 263/263
f 264/264 263/263 266/266
f 267/267 268/268 265/265
f 266/266 265/265 268/268
f 269/269 270/270 267/267
f 268/268 267/267 270/270
f 271/271 272/272 269/269
f 270/270 269/269 272/272
f 273/273 274/274 271/271
f 272/272 271/271 274/274
f 275/275 276/276 273/273
f 274/274 273/273 276/276
f 277/277 278/278 275/275
f 276/276 275/275 278/278
f 279/279 280/280 277/277
f 278/278 277/277 280/280
f 281/281 282/282 279/279
f 280/280 279/279 282/282
f 283/283 284/284 281/281
f 282/282 281/281 284/284
f 285/285 286/286 283/283
f 284/284 283/283 286/286
f 289/289 290/290 287/287
f 288/288 287/287 290/290
f 291/291 292/292 289/289
f 290/290 289/289 292/292
f 293/293 294/294 291/291
f 292/292 291/291 294/294
f 295/295 296/296 293/293
f 294/294 293/293 296/296
f 297/297 298/298 295/295
f 296/296 295/295 298/298
f 299/299 300/300 297/297
f 298/298 297/297 300/300
f 301/301 302/302 299/299
f 300/300 299/299 302/302
f 303/303 304/304 301/301
f 302/302 301/301 304/304
f 305/305 306/306 303/303
f 304/304 303/303 306/306
f 307/307 308/308 305/305
f 306/306 305/305 308/308
f 309/309 310/310 307/307
f 308/308 307/307 310/310
f 311/311 312/312 309/309
f 310/310 309/309 312/312
f 315/315 316/316 313/313
f 314/314 313/313 316/316
f 317/317 318/318 315/315
f 316/316 315/315 318/318
f 319/319 320/320 317/317
f 318/318 317/317 320/320
f 321/321 322/322 319/319
f 320/320 319/319 322/322
f 323/323 324/324 321/321
f 322/322 321/321 324/324
f 325/325 326/326 323/323
f 324/324 323/323 326/326
f 327/327 328/328 325/325
f 326/326 325/325 328/328
f 329/329 330/330 327/327
f 328/328 327/327 330/330
f 331/331 332/332 329/329
f 330/330 329/329 332/332
f 333/333 334/334 331/331
f 332/332 331/331 334/334
f 335/335 336/336 333/333
f 334/334 333/333 336/336
f 337/337 338/338 335/335
f 336/336 335/335 338/338
f 341/341 342/342 339/339
f 340/340 339/339 342/342
f 343/343 344/344 341/341
f 342/342 341/341 344/344
f 345/345 346/346 343/343
f 344/344 343/343 346/346
f 347/347 348/348 345/345
f 346/346 345/345 348/348
f 349/349 350/350 347/347
f 348/348 347/347 350/350
f 351/351 352/352 349/349
f 350/350 349/349 352/352
f 353/353 354/354 351/351
f 352/352 351/351 354/354
f 355/355 356/356 353/353
f 354/354 353/353 356/356
f 357/357 358/358 355/355
f 356/356 355/355 358/358
f 359/359 360/360 357/357
f 358/358 357/357 360/360
f 361/361 362/362 359/359
f 360/360 359/359 362/362
f 363/363 364/364 361/361
f 362/362 361/361 364/364
f 367/367 368/368 365/365
f 366/366 365/365 368/368
f 369/369 370/370 367/367
f 368/368 367/367 370/370
f 371/371 372/372 369/369
f 370/370 369/369 372/372
f 373/373 374/374 371/371
f 372/372 371/371 374/374
f 375/375 376/376 373/373
f 374/374 373/373 376/376
f 377/377 378/378 375/375
f 376/376 375/375 378/378
f 379/379 380/380 377/377
f 378/378 377/377 380/380
f 381/381 382/382 379/379
f 380/380 379/379 382/382
f 383/383 384/384 381/381
f 382/382 381/381 384/384
f 385/385 386/386 383/383
f 384/384 383/383 386/386
f 387/387 388/388 385/385
f 386/386 385/385 388/388
f 389/389 390/390 387/387
f 388/388 387/387 390/390
f 393/393 394/394 391/391
f 392/392 391/391 394/394
f 395/395 396/396 393/393
f 394/394 393/393 396/396
f 397/397 398/398 395/395
f 396/396 395/395 398/398
f 399/399 400/400 397/397
f 398/398 397/397 400/400
f 401/401 402/402 399/399
f 400/400 399/399 402/402
f 403/403 404/404 401/401
f 402/402 401/401 404/404
f 405/405 406/406 403/403
f 404/404 403/403 406/406
f 407/407 408/408 405/405
f 406/406 405/405 408/408
f 409/409 410/410 407/407
f 408/408 407/407 410/410
f 411/411 412/412 409/409
f 410/410 409/409 412/412
f 413/413 414/414 411/411
f 412/412 411/411 414/414
f 415/415 416/416 413/413
f 414/414 413/413 416/416
f 417/417 420/420 419/419
f 420/420 417/417 418/418
f 419/419 422/422 421/421
f 422/422 419/419 420/420
f 421/421 424/424 423/423
f 424/424 421/421 422/422
f 423/423 426/426 425/425
f 426/426 423/423 424/424
f 425/425 428/428 427/427
f 428/428 425/425 426/426
f 427/427 430/430 429/429
f 430/430 427/427 428/428
f 429/429 432/432 431/431
f 432/432 429/429 430/430
f 431/431 434/434 433/433
f 434/434 431/431 432/432
f 433/433 436/436 435/435
f 436/436 433/433 434/434
f 435/435 438/438 437/437
f 438/438 435/435 436/436
f 439/439 442/442 441/441
f 442/442 439/439 440/440
f 441/441 444/444 443/443
f 444/444 441/441 442/442
f 443/443 446/446 445/445
f 446/446 443/443 444/444
f 445/445 448/448 447/447
f 448/448 445/445 446/446
f 447/447 450/450 449/449
f 450/450 447/447 448/448
f 449/449 452/452 451/451
f 452/452 449/449 450/450
f 451/451 454/454 453/453
f 454/454 451/451 452/452
f 453/453 456/456 455/455
f 456/456 453/453 454/454
f 455/455 458/458 457/457
f 458/458 455/455 456/456
f 457/457 460/460 459/459
f 460/460 457/457 458/458
f 461/461 464/464 463/463
f 464/464 461/461 462/462
f 463/463 466/466 465/465
f 466/466 463/463 464/464
f 465/465 468/468 467/467
f 468/468 465/465 466/466
f 467/467 470/470 469/469
f 470/470 467/467 468/468
f 469/469 472/472 471/471
f 472/472 469/469 470/470
f 471/471 474/474 473/473
f 474/474 471/471 472/472
f 473/473 476/476 475/475
f 476/476 473/473 474/474
f 475/475 478/478 477/477
f 478/478 475/475 476/476
f 477/477 480/480 479/479
f 480/480 477/477 478/478
f 479/479 482/482 481/481
f 482/482 479/479 480/480
f 483/483 486/486 485/485
f 486/486 483/483 484/484
f 485/485 488/488 487/487
f 488/488 485/485 486/486
f 487/487 490/490 489/489
f 490/490 487/487 488/488
f 489/489 492/492 491/491
f 492/492 489/489 490/490
f 491/491 494/494 493/493
f 494/494 491/491 492/492
f 493/493 496/496 495/495
f 496/496 493/493 494/494
f 495/495 498/498 497/497
f 498/498 495/495 496/496
f 497/497 500/500 499/499
f 500/500 497/497 498/498
f 499/499 502/502 501/501
f 502/502 499/499 500/500
f 501/501 504/504 503/503
f 504/504 501/501 502/502
f 505/505 508/508 507/507
f 508/508 505/505 506/506
f 507/507 510/510 509/509
f 510/510 507/507 508/508
f 509/509 512/512 511/511
f 512/512 509/509 510/510
f 511/511 514/514 513/513
f 514/514 511/511 512/512
f 513/513 516/516 515/515
f 516/516 513/513 514/514
f 515/515 518/518 517/517
f 518/518 515/515 516/516
f 517/517 520/520 519/519
f 520/520 517/517 518/518
f 519/519 522/522 521/521
f 522/522 519/519 520/520
f 521/521 524/524 523/523
f 524/524 521/521 522/522
f 523/523 526/526 525/525
f 526/526 523/523 524/524
f 527/527 530/530 529/529
f 530/530 527/527 528/528
f 529/529 532/532 531/531
f 532/532 529/529 530/530
f 531/531 534/534 533/533
f 534/534 531/531 532/532
f 533/533 536/536 535/535
f 536/536 533/533 534/534
f 535/535 538/538 537/537
f 538/538 535/535 536/536
f 537/537 540/540 539/539
f 540/540 537/537 538/538
f 539/539 542/542 541/541
f 542/542 539/539 540/540
f 541/541 544/544 543/543
f 544/544 541/541 542/542
f 543/543 546/546 545/545
f 546/546 543/543 544/544
f 545/545 548/548 547/547
f 548/548 545/545 546/546
f 549/549 552/552 551/551
f 552/552 549/549 550/550
f 551/551 554/554 553/553
f 554/554 551/551 552/552
f 553/553 556/556 555/555
f 556/556 553/553 554/554
f 555/555 558/558 557/557
f 558/558 555/555 556/556
f 557/557 560/560 559/559
f 560/560 557/557 558/558
f 559/559 562/562 561/561
f 562/562 559/559 560/560
f 561/561 564/564 563/563
f 564/564 561/561 562/562
f 563/563 566/566 565/565
f 566/566 563/563 564/564
f 565/565 568/568 567/567
f 568/568 565/565 566/566
f 567/567 570/570 569/569
f 570/570 567/567 568/568
f 571/571 574/574 573/573
f 574/574 571/571 572/572
f 573/573 576/576 575/575
f 576/576 573/573 574/574
f 575/575 578/578 577/577
f 578/578 575/575 576/576
f 577/577 580/580 579/579
f 580/580 577/577 578/578
f 579/579 582/582 581/581
f 582/582 579/579 580/580
f 581/581 584/584 583/583
f 584/584 581/581 582/582
f 583/583 586/586 585/585
f 586/586 583/583 584/584
f 585/585 588/588 587/587
f 588/588 585/585 586/586
f 587/587 590/590 589/589
f 590/590 587/587 588/588
f 589/589 592/592 591/591
f 592/592 589/589 590/590
f 593/593 596/596 595/595
f 596/596 593/593 594/594
f 595/595 598/598 597/597
f 598/598 595/595 596/596
f 597/597 600/600 599/599
f 600/600 597/597 598/598
f 599/599 602/602 601/601
f 602/602 599/599 600/600
f 601/601 604/604 603/603
f 604/604 601/601 602/602
f 603/603 606/606 605/605
f 606/606 603/603 604/604
f 605/605 608/608 607/607
f 608/608 605/605 606/606
f 607/607 610/610 609/609
f 610/610 607/607 608/608
f 609/609 612/612 611/611
f 612/612 609/609 610/610
f 611/611 614/614 613/613
f 614/614 611/611 612/612
f 615/615 618/618 617/617
f 618/618 615/615 616/616
f 617/617 620/620 619/619
f 620/620 617/617 618/618
f 619/619 622/622 621/621
f 622/622 619/619 620/620
f 621/621 624/624 623/623
f 624/624 621/621 622/622
f 623/623 626/626 625/625
f 626/626 623/623 624/624
f 625/625 628/628 627/627
f 628/628 625/625 626/626
f 627/627 630/630 629/629
f 630/630 627/627 628/628
f 629/629 632/632 631/631
f 632/632 629/629 630/630
f 631/631 634/634 633/633
f 634/634 631/631 632/632
f 633/633 636/636 635/635
f 636/636 633/633 634/634
f 637/637 640/640 639/639
f 640/640 637/637 638/638
f 639/639 642/642 641/641
f 642/642 639/639 640/640
f 641/641 644/644 643/643
f 644/644 641/641 642/642
f 643/643 646/646 645/645
f 646/646 643/643 644/644
f 645/645 648/648 647/647
f 648/648 645/645 646/646
f 647/647 650/650 649/649
f 650/650 647/647 648/648
f 649/649 652/652 651/651
f 652/652 649/649 650/650
f 651/651 654/654 653/653
f 654/654 651/651 652/652
f 653/653 656/656 655/655
f 656/656 653/653 654/654
f 655/655 658/658 657/657
f 658/658 655/655 656/656
f 659/659 662/662 661/661
f 662/662 659/659 660/660
f 661/661 664/664 663/663
f 664/664 661/661 662/662
f 663/663 666/666 665/665
f 666/666 663/663 664/664
f 665/665 668/668 667/667
f 668/668 665/665 666/666
f 667/667 670/670 669/669
f 670/670 667/667 668/668
f 669/669 672/672 671/671
f 672/672 669/669 670/670
f 671/671 674/674 673/673
f 674/674 671/671 672/672
f 673/673 676/676 675/675
f 676/676 673/673 674/674
f 675/675 678/678 677/677
f 678/678 675/675 676/676
f 677/677 680/680 679/679
f 680/680 677/677 678/678
f 681/681 684/684 683/683
f 684/684 681/681 682/682
f 683/683 686/686 685/685
f 686/686 683/683 684/684
f 685/685 688/688 687/687
f 688/688 685/685 686/686
f 687/687 690/690 689/689
f 690/690 687/687 688/688
f 689/689 692/692 691/691
f 692/692 689/689 690/690
f 691/691 694/694 693/693
f 694/694 691/691 692/692
f 693/693 696/696 695/695
f 696/696 693/693 694/694
f 695/695 698/698 697/697
f 698/698 695/695 696/696
f 697/697 700/700 699/699
f 700/700 697/697 698/698
f 699/699 702/702 701/701
f 702/702 699/699 700/700
f 703/703 706/706 705/705
f 706/706 703/703 704/704
f 705/705 708/708 707/707
f 708/708 705/705 706/706
f 707/707 710/710 709/709
f 710/710 707/707 708/708
f 709/709 712/712 711/711
f 712/712 709/709 710/710
f 711/711 714/714 713/713
f 714/714 711/711 712/712
f 713/713 716/716 715/715
f 716/716 713/713 714/714
f 715/715 718/718 717/717
f 718/718 715/715 716/716
f 717/717 720/720 719/719
f 720/720 717/717 718/718
f 719/719 722/722 721/721
f 722/722 719/719 720/720
f 721/721 724/724 723/723
f 724/724 721/721 722/722
f 725/725 728/728 727/727
f 728/728 725/725 726/726
f 727/727 730/730 729/729
f 730/730 727/727 728/728
f 729/729 732/732 731/731
f 732/732 729/729 730/730
f 731/731 734/734 733/733
f 734/734 731/731 732/732
f 733/733 736/736 735/735
f 736/736 733/733 734/734
f 735/735 738/738 737/737
f 738/738 735/735 736/736
f 737/737 740/740 739/739
f 740/740 737/737 738/738
f 739/739 742/742 741/741
f 742/742 739/739 740/740
f 741/741 744/744 743/743
f 744/744 741/741 742/742
f 743/743 746/746 745/745
f 746/746 743/743 744/744
f 747/747 750/750 749/749
f 750/750 747/747 748/748
f 749/749 752/752 751/751
f 752/752 749/749 750/750
f 751/751 754/754 753/753
f 754/754 751/751 752/752
f 753/753 756/756 755/755
f 756/756 753/753 754/754
f 755/755 758/758 757/757
f 758/758 755/755 756/756
f 757/757 760/760 759/759
f 760/760 757/757 758/758
f 759/759 762/762 761/761
f 762/762 759/759 760/760
f 761/761 764/764 763/763
f 764/764 761/761 762/762
f 763/763 766/766 765/765
f 766/766 763/763 764/764
f 765/765 768/768 767/767
f 768/768 765/765 766/766
f 769/769 772/772 771/771
f 772/772 769/769 770/770
f 771/771 774/774 773/773
f 774/774 771/771 772/772
f 773/773 776/776 775/775
f 776/776 773/773 774/774
f 775/775 778/778 777/777
f 778/778 775/775 776/776
f 777/777 780/780 779/779
f 780/780 777/777 778/778
f 779/779 782/782 781/781
f 782/782 779/779 780/780
f 781/781 784/784 783/783
f 784/784 781/781 782/782
f 783/783 786/786 785/785
f 786/786 783/783 784/784
f 785/785 788/788 787/787
f 788/788 785/785 786/786
f 787/787 790/790 789/789
f 790/790 787/787 788/788
f 791/791 794/794 793/793
f 794/794 791/791 792/792
f 793/793 796/796 795/795
f 796/796 793/793 794/794
f 795/795 798/798 797/797
f 798/798 795/795 796/796
f 797/797 800/800 799/799
f 800/800 797/797 798/798
f 799/799 802/802 801/801
f 802/802 799/799 800/800
f 801/801 804/804 803/803
f 804/804 801/801 802/802
f 803/803 806/806 805/805
f 806/806 803/803 804/804
f 805/805 808/808 807/807
f 808/808 805/805 806/806
f 807/807 810/810 809/809
f 810/810 807/807 808/808
f 809/809 812/812 811/811
f 812/812 809/809 810/810
f 815/815 816/816 813/813
f 814/814 813/813 816/816
f 819/819 820/820 817/817
f 818/818 817/817 820/820
f 821/821 833/833 834/834
f 821/821 834/834 822/822
f 822/822 834/834 835/835
f 822/822 835/835 823/823
f 845/845 846/846 836/836
f 847/847 836/836 824/824
f 824/824 836/836 837/837
f 824/824 837/837 825/825
f 825/825 837/837 838/838
f 825/825 838/838 826/826
f 826/826 838/838 839/839
f 826/826 839/839 827/827
f 827/827 839/839 840/840
f 827/827 840/840 828/828
f 828/828 840/840 841/841
f 828/828 841/841 829/829
f 829/829 841/841 842/842
f 829/829 842/842 830/830
f 830/830 842/842 843/843
f 830/830 843/843 831/831
f 831/831 843/843 844/844
f 831/831 844/844 832/832
f 832/832 844/844 833/833
f 832/832 833/833 821/821
