# MOD converted: eff_c_fightermagic_top.mod
# 576 verts, 432 faces

v -17.565437 -3.091584 -4.340400
v -17.565437 0.180589 24.141973
v 540.341675 -2.715809 -0.645050
v 540.341675 -0.195206 11.748468
v 125.283325 -1.455500 -18.520613
v 756.819580 1.622565 -14.505269
v -17.565437 1.214259 -31.987272
v 125.283325 2.992008 -49.469276
v -17.565437 4.769763 -45.453945
v 756.819580 4.361428 54.839130
v 631.482483 -5.837418 56.266468
v -17.565437 -5.982557 50.052139
v 125.283325 -5.350616 43.837814
v -17.565437 -4.718678 45.265144
v 631.482483 -4.863837 -38.330276
v 778.277649 3.637018 -36.800762
v -17.565437 3.481501 -43.459930
v 125.283325 4.158672 -50.119099
v -17.565437 4.835845 -48.589607
v 778.277649 4.680295 32.305202
v 772.521118 -3.545938 35.849205
v -17.565437 -3.906312 20.419331
v 125.283325 -2.337244 4.989459
v -17.565437 -0.768171 8.533446
v 772.521118 -1.128577 -0.962716
v 540.341675 -23.185974 -1.338494
v -17.565435 -26.881321 0.297590
v 125.283325 -10.792451 1.933678
v -17.565458 5.296420 1.557889
v 540.341675 1.601052 3.428213
v 829.492920 19.993382 3.035569
v -17.565428 16.132156 4.745103
v 125.283325 32.943291 6.454642
v -17.565470 49.754429 6.061977
v 829.492920 45.893158 -3.910444
v 631.482483 -52.173187 -4.003736
v -17.565435 -53.090649 -3.597533
v 125.283325 -49.096130 -3.191324
v -17.565435 -45.101604 -3.284630
v 631.482483 -46.019100 5.390114
v 778.277588 39.286274 5.234591
v -17.565460 37.756786 5.911758
v 125.283325 44.415947 6.588943
v -17.565460 51.075123 6.433391
v 778.277588 49.545601 -1.920935
v 835.193665 -32.608803 -2.319510
v -17.565426 -36.528351 -0.584154
v 125.283325 -19.463314 1.151199
v -17.565468 -2.398268 0.752608
v 835.193665 -6.317854 39.058510
v 935.566833 -4.232694 40.049011
v -17.565426 -4.333394 35.736565
v 125.283325 -3.894861 31.424114
v -17.565426 -3.456328 32.414608
v 935.566833 -3.557072 -12.645683
v 838.319153 1.025138 -11.299219
v -17.565428 0.888233 -17.161467
v 125.283325 1.484367 -23.023716
v -17.565428 2.080505 -21.677254
v 838.319153 1.943561 -20.495459
v 756.819580 26.730930 -18.531517
v -17.565439 24.322382 -27.082115
v 125.283325 34.808868 -35.632710
v -17.565460 45.295372 -33.668785
v 756.819580 42.886757 26.983913
v 631.482483 -31.497969 27.566704
v -17.565435 -32.212669 25.029379
v 125.283325 -29.100895 22.492060
v -17.565435 -25.989101 23.074837
v 631.482483 -26.703856 10.038702
v 715.094299 -10.716298 11.181329
v -17.565437 -12.117581 6.206595
v 125.283325 -6.016547 1.231860
v -17.565458 0.084493 2.374469
v 715.094299 -1.316846 28.218428
v 944.176514 21.777189 25.809853
v -17.565428 19.813276 36.296349
v 125.283325 28.363871 46.782837
v -17.565470 36.914471 44.374252
v 944.176514 34.950520 -30.010477
v 631.482483 -25.702173 -30.725201
v -17.565435 -26.284941 -27.613417
v 125.283325 -23.747622 -24.501631
v -17.565435 -21.210300 -25.216364
v 631.482483 -21.793095 -9.228800
v 811.145386 -8.756964 -10.630109
v -17.565426 -9.899567 -4.529070
v 125.283325 -4.924838 1.571963
v -17.565468 0.049901 0.170652
v 811.145386 -1.092732 27.837337
v -17.565437 -3.091584 11.748468
v 125.283325 -1.455500 -4.340400
v -17.565437 0.180589 -0.645050
v 540.341675 -0.195206 24.141973
v 540.341675 -2.715809 -14.505269
v -17.565437 1.214259 -31.987272
v 125.283325 2.992008 -49.469276
v -17.565437 4.769763 -45.453945
v 756.819580 4.361428 -18.520613
v 756.819580 1.622565 56.266468
v -17.565437 -5.982557 50.052139
v 125.283325 -5.350616 43.837814
v -17.565437 -4.718678 45.265144
v 631.482483 -4.863837 54.839130
v 631.482483 -5.837418 -36.800762
v -17.565437 3.481501 -43.459930
v 125.283325 4.158672 -50.119099
v -17.565437 4.835845 -48.589607
v 778.277649 4.680295 -38.330276
v 778.277649 3.637018 35.849205
v -17.565437 -3.906312 20.419331
v 125.283325 -2.337244 4.989459
v -17.565437 -0.768171 8.533446
v 772.521118 -1.128577 32.305202
v 772.521118 -3.545938 -1.338494
v -17.565435 -26.881321 0.297590
v 125.283325 -10.792451 1.933678
v -17.565458 5.296420 1.557889
v 540.341675 1.601052 -0.962716
v 540.341675 -23.185974 3.035569
v -17.565428 16.132156 4.745103
v 125.283325 32.943291 6.454642
v -17.565470 49.754429 6.061977
v 829.492920 45.893158 3.428213
v 829.492920 19.993382 -4.003736
v -17.565435 -53.090649 -3.597533
v 125.283325 -49.096130 -3.191324
v -17.565435 -45.101604 -3.284630
v 631.482483 -46.019100 -3.910444
v 631.482483 -52.173187 5.234591
v -17.565460 37.756786 5.911758
v 125.283325 44.415947 6.588943
v -17.565460 51.075123 6.433391
v 778.277588 49.545601 5.390114
v 778.277588 39.286274 -2.319510
v -17.565426 -36.528351 -0.584154
v 125.283325 -19.463314 1.151199
v -17.565468 -2.398268 0.752608
v 835.193665 -6.317854 -1.920935
v 835.193665 -32.608803 40.049011
v -17.565426 -4.333394 35.736565
v 125.283325 -3.894861 31.424114
v -17.565426 -3.456328 32.414608
v 935.566833 -3.557072 39.058510
v 935.566833 -4.232694 -11.299219
v -17.565428 0.888233 -17.161467
v 125.283325 1.484367 -23.023716
v -17.565428 2.080505 -21.677254
v 838.319153 1.943561 -12.645683
v 838.319153 1.025138 -18.531517
v -17.565439 24.322382 -27.082115
v 125.283325 34.808868 -35.632710
v -17.565460 45.295372 -33.668785
v 756.819580 42.886757 -20.495459
v 756.819580 26.730930 27.566704
v -17.565435 -32.212669 25.029379
v 125.283325 -29.100895 22.492060
v -17.565435 -25.989101 23.074837
v 631.482483 -26.703856 26.983913
v 631.482483 -31.497969 11.181329
v -17.565437 -12.117581 6.206595
v 125.283325 -6.016547 1.231860
v -17.565458 0.084493 2.374469
v 715.094299 -1.316846 10.038702
v 715.094299 -10.716298 25.809853
v -17.565428 19.813276 36.296349
v 125.283325 28.363871 46.782837
v -17.565470 36.914471 44.374252
v 944.176514 34.950520 28.218428
v 944.176514 21.777189 -30.725201
v -17.565435 -26.284941 -27.613417
v 125.283325 -23.747622 -24.501631
v -17.565435 -21.210300 -25.216364
v 631.482483 -21.793095 -30.010477
v 631.482483 -25.702173 -10.630109
v -17.565426 -9.899567 -4.529070
v 125.283325 -4.924838 1.571963
v -17.565468 0.049901 0.170652
v 811.145386 -1.092732 -9.228800
v 811.145386 -8.756964 0.632620
v 404.857758 -0.681875 13.054695
v 428.134064 -5.505864 -84.352722
v 380.268707 -12.098714 -22.834921
v 414.462738 -20.891644 -110.378922
v 347.618378 -20.896435 -55.221382
v 395.228699 -34.821472 -129.558289
v 307.047729 -27.161810 -84.348686
v 365.735657 -47.351540 -143.598343
v 258.103943 -31.568682 -108.876709
v 321.880920 -57.950962 -154.182571
v 197.726974 -34.597511 -127.489410
v 262.169281 -66.282234 -150.940704
v 133.125412 -31.998484 -138.722870
v 194.469543 -71.990669 -133.744431
v 77.281990 -24.251875 -133.496323
v 129.192688 -71.012863 -105.196770
v 32.675907 -12.193916 -113.511673
v 71.778717 -64.187561 -67.358391
v 2.579686 3.382203 -81.013077
v 26.874004 -52.396538 -22.530571
v -9.470564 21.222122 -38.004211
v -1.138341 -36.060425 0.003189
v 394.459015 -78.519409 -33.743134
v 419.717072 -41.977352 -64.003220
v 364.886230 -103.372993 -46.697742
v 397.562286 -74.297028 -78.086746
v 329.370026 -120.717522 -57.407299
v 370.135468 -102.163612 -87.900398
v 287.583557 -130.891479 -65.592796
v 333.217010 -124.811768 -94.056442
v 238.334900 -135.240997 -70.407906
v 283.452362 -140.468521 -96.999397
v 178.433395 -134.495163 -71.174019
v 219.485840 -147.977966 -93.650726
v 117.088554 -121.920509 -66.367783
v 149.341034 -145.681824 -83.469528
v 65.591682 -98.909355 -54.024467
v 86.581329 -127.618675 -67.862259
v 25.608242 -67.822319 -35.647793
v 36.427414 -96.734688 -47.964100
v -0.448964 -30.692451 -13.012742
v 3.352403 -56.303646 -24.623058
v -9.789767 10.415890 11.818462
v -8.547749 -9.568082 -0.000000
v 384.871460 -109.132904 22.989307
v 409.692932 -73.749451 4.576641
v 353.019409 -135.424194 30.627987
v 382.367584 -104.859840 6.873311
v 316.327850 -153.314575 36.852444
v 350.384155 -129.767868 7.728413
v 273.924469 -162.865341 41.410091
v 310.159821 -147.403320 7.295893
v 224.113815 -164.811768 43.946087
v 258.934784 -156.021881 5.425934
v 163.830078 -159.254211 44.409367
v 195.319824 -154.514297 0.893579
v 102.776176 -140.451340 42.573296
v 127.868851 -141.331024 -5.619483
v 52.779305 -109.667412 37.328293
v 70.055092 -113.058746 -13.675469
v 15.905564 -69.976990 29.571213
v 25.922686 -73.326195 -22.707819
v -5.232771 -24.309120 20.070105
v -1.030665 -25.907600 -31.845812
v -7.855701 24.363047 9.288899
v -7.474773 25.466768 0.000000
v 385.645050 -62.783157 46.095325
v 414.229187 -46.290565 97.195572
v 353.409912 -83.456352 73.992165
v 389.024231 -63.310951 109.242104
v 316.042908 -98.260719 97.535744
v 359.022034 -77.060165 114.550865
v 273.189697 -107.279884 115.724251
v 320.093719 -86.892616 114.251945
v 223.529236 -111.278938 126.727119
v 269.076843 -91.481232 108.757179
v 163.806503 -110.638573 129.432053
v 204.743164 -89.883362 92.646774
v 103.864067 -101.700722 123.046394
v 135.281754 -80.772873 68.183205
v 54.859200 -84.814209 103.021965
v 74.760826 -61.967148 37.556213
v 18.200857 -61.861664 72.358521
v 28.078953 -35.747036 2.734376
v -3.919784 -34.445267 34.276981
v -0.647741 -4.673825 -34.205917
v -8.925683 -3.911568 -8.109482
v -7.688807 28.435492 0.000000
v 347.996918 -1.263636 19.072392
v 380.605072 5.155284 104.112709
v 320.488159 -5.799042 54.935730
v 361.992340 11.124846 124.251495
v 287.618469 -10.247942 86.347458
v 338.740479 16.707836 135.762619
v 249.757675 -14.463983 112.260689
v 306.426056 21.747194 140.743469
v 206.132172 -18.293587 130.091354
v 261.768921 26.078636 140.379181
v 153.524902 -21.848003 138.167633
v 203.932480 29.802704 126.265602
v 100.313950 -25.970087 135.325272
v 139.904099 33.551750 100.604691
v 56.218014 -29.163647 114.152527
v 82.126114 35.714973 66.036766
v 22.211081 -31.562323 78.060013
v 35.764416 36.559132 24.676689
v 0.142731 -33.130390 30.983774
v 5.109057 36.181622 -21.506783
v -7.744382 -33.375305 -22.993925
v -5.942777 34.223019 -0.000000
v 355.582184 99.694847 85.317635
v 391.668640 76.120163 118.701096
v 317.704742 109.382790 101.780792
v 359.544556 96.125801 128.368362
v 276.995850 112.530937 113.532814
v 324.038727 111.768654 130.385178
v 233.043457 109.361237 119.058594
v 281.417145 121.555420 125.438850
v 184.243546 100.623535 116.221596
v 229.137665 123.464844 113.388214
v 127.300865 86.141823 103.713821
v 166.349457 116.401588 91.568291
v 73.315063 62.862003 81.570847
v 101.352425 101.113014 62.647331
v 32.663422 34.646393 49.445778
v 48.975948 75.773308 29.047922
v 6.036180 3.489767 10.892741
v 13.094540 43.631023 -6.976232
v -5.034298 -28.654390 -30.365320
v -3.259649 7.975958 -43.334579
v 1.377239 -59.620720 -70.442192
v 2.552816 -28.113867 -0.000000
v 377.071167 119.477409 2.546348
v 408.139526 85.616356 9.845430
v 343.207367 144.114685 3.547126
v 380.724609 116.448799 17.256544
v 304.827454 159.367188 4.047483
v 348.891449 141.545990 23.230282
v 261.555176 165.511276 4.088736
v 308.604462 159.430939 27.878626
v 211.979431 163.813431 3.526480
v 256.862854 167.636444 31.388943
v 152.818069 154.592896 2.140933
v 192.537033 164.642593 33.159393
v 94.335854 132.026932 -0.980170
v 123.873512 149.667755 32.103012
v 47.493401 99.015312 -5.701496
v 65.263847 118.683380 28.696987
v 13.507638 58.493305 -11.688989
v 21.340755 75.766602 23.272984
v -5.603803 13.118479 -18.463057
v -4.063959 25.272211 15.879587
v -7.441679 -34.462090 -25.261019
v -7.499924 -28.434376 -0.000000
v 358.794830 126.174286 -78.817299
v 408.825165 76.496864 -64.738983
v 323.540161 144.504990 -96.819191
v 377.961182 101.381905 -68.277626
v 285.558441 154.540833 -111.225960
v 342.290558 120.907227 -67.560875
v 244.405823 156.871704 -120.776405
v 297.968353 133.127945 -63.267059
v 197.744324 152.577881 -123.969582
v 243.043686 135.608734 -54.958260
v 141.616013 141.441437 -120.420837
v 177.185684 127.212479 -40.204350
v 88.333221 119.755753 -109.934601
v 107.133942 107.320541 -21.338163
v 46.701073 89.946686 -90.714218
v 49.457420 74.390289 0.486469
v 17.710060 54.445580 -65.525970
v 8.360235 32.447922 23.855730
v 3.264371 15.627420 -36.876095
v -12.867415 -14.424115 46.956684
v 5.379712 -24.373032 -6.871796
v -11.046684 -61.903004 -0.000000
v 394.046295 36.958553 -38.262318
v 418.887543 33.425007 -105.080223
v 364.183533 48.733700 -72.779716
v 396.958069 38.980591 -125.313217
v 328.424011 57.246201 -102.607079
v 369.769684 42.800606 -137.836288
v 286.448761 62.459244 -127.016853
v 333.105835 44.485355 -144.105011
v 237.071533 64.658836 -144.172775
v 283.617065 43.312328 -144.973663
v 177.103592 63.952309 -152.839890
v 219.956665 38.737694 -133.100266
v 115.719887 59.095509 -150.969116
v 150.171997 30.062099 -109.554573
v 64.259483 50.011177 -132.100784
v 87.740341 17.267933 -76.882042
v 24.370695 37.761448 -99.310196
v 37.868992 1.629395 -37.243664
v -1.546090 23.247274 -56.057095
v 5.012922 -15.418154 7.227310
v -10.696338 7.105522 -5.829075
v -6.766839 -32.175209 -0.000000
v 331.152039 -18.885189 -3.682177
v 345.174347 7.016757 -49.662590
v 312.657288 -34.682526 -24.900513
v 333.098694 -15.149037 -69.094551
v 288.174866 -46.806541 -43.832516
v 316.125061 -35.216240 -84.100441
v 257.497284 -55.525436 -60.553215
v 290.821075 -53.119144 -95.649353
v 219.915878 -61.767544 -74.334854
v 254.255615 -68.131905 -104.648415
v 173.059311 -66.253136 -84.511589
v 205.160278 -79.736732 -105.857132
v 123.017792 -64.023407 -88.551552
v 149.491821 -86.370613 -97.939606
v 78.792915 -55.150356 -81.742363
v 96.940483 -82.886459 -82.400322
v 42.111534 -40.794044 -65.406837
v 52.106888 -70.496597 -60.363888
v 15.222547 -21.879557 -41.247734
v 19.069447 -50.648369 -32.707081
v 0.653820 0.597613 -11.215636
v 1.627779 -24.718737 -0.000000
v 320.555511 -69.795799 -15.720285
v 340.736938 -39.101303 -22.856543
v 296.926605 -93.324127 -17.226042
v 323.035034 -66.881470 -29.060581
v 268.548798 -110.063095 -18.176172
v 301.120758 -90.715889 -33.874474
v 235.161026 -120.280388 -18.556026
v 271.622589 -109.953857 -37.415943
v 195.810898 -125.151695 -18.180342
v 231.860153 -123.036598 -39.834194
v 147.949051 -125.342804 -16.832365
v 180.750320 -128.915298 -40.528297
v 98.933945 -114.968575 -13.785132
v 124.703979 -125.944168 -38.731575
v 57.787468 -94.943649 -9.082301
v 74.558395 -109.108147 -34.902260
v 25.840330 -67.415237 -3.105388
v 34.484947 -81.022476 -29.377413
v 5.020382 -34.213047 3.642929
v 8.057710 -44.619888 -22.268766
v -2.443006 2.883247 10.434618
v -1.450622 -2.883226 -0.000000
v 323.382294 -76.348991 50.884945
v 322.240234 -53.280647 24.193607
v 299.665863 -96.445877 62.196404
v 298.673370 -73.683159 33.331894
v 272.104797 -111.376045 70.491882
v 271.362488 -88.949142 39.343285
v 238.930420 -120.741447 75.554688
v 238.516556 -98.764809 42.008362
v 198.413605 -124.176132 77.193222
v 198.304932 -102.784195 40.977802
v 148.814209 -121.429909 75.345802
v 148.908096 -100.545647 34.920361
v 97.279152 -109.810303 68.373810
v 97.766563 -89.597649 23.458843
v 54.071144 -88.539177 55.778996
v 54.832882 -69.202026 7.821820
v 21.622444 -60.081566 39.063366
v 22.556917 -41.623257 -10.622994
v 2.369494 -26.808588 19.589766
v 3.384161 -9.219667 -30.302603
v -1.238104 9.029062 -1.484206
v -0.252889 25.529896 -0.000000
v 320.764832 -21.215780 30.393002
v 340.856140 -16.264057 82.675499
v 297.209076 -32.752247 57.539181
v 323.236786 -22.588947 98.162361
v 268.883850 -41.797668 80.907883
v 301.393158 -27.685789 107.482101
v 235.528748 -48.346710 99.870270
v 271.951843 -31.430599 111.774780
v 196.194946 -52.720432 112.930962
v 232.227859 -33.372990 111.677292
v 148.335129 -55.183987 119.097740
v 181.134842 -33.118484 101.477654
v 99.290108 -54.116127 116.858109
v 125.078423 -29.658833 82.184441
v 58.084023 -48.911438 101.235222
v 74.881142 -22.155117 55.828918
v 26.054129 -40.392685 74.726631
v 34.722225 -11.432924 24.149059
v 5.133818 -29.207571 40.123192
v 8.184607 1.507089 -11.128159
v -2.442260 -15.772883 0.226816
v -1.449880 15.433331 -0.000000
v 320.555511 26.758793 32.847275
v 340.736938 11.060783 83.373756
v 296.926605 31.991995 57.658485
v 323.035034 23.646832 100.972153
v 268.548798 34.988617 78.774773
v 301.120758 34.741196 112.227531
v 235.161026 35.928303 95.625275
v 271.622589 44.031212 118.216942
v 195.810898 35.296955 106.767418
v 231.860153 50.897930 119.591576
v 147.949051 33.298241 111.184532
v 180.750320 55.004658 110.954269
v 98.933945 27.510019 107.087845
v 124.703979 56.158077 92.713814
v 57.787468 19.053570 90.156006
v 74.558395 51.812847 66.958847
v 25.840330 8.605662 62.844639
v 34.484947 42.946178 35.442474
v 5.020382 -3.210765 27.944910
v 8.057710 30.589115 -0.238187
v -2.443006 -15.602629 -11.595953
v -1.450622 15.602573 0.002453
v 331.089966 39.724422 7.263940
v 330.202484 56.038052 50.576084
v 310.419342 61.582775 18.928288
v 309.542328 79.299629 62.232269
v 285.214203 78.752419 27.871758
v 284.455353 97.809624 71.012505
v 253.651810 91.061569 34.046356
v 253.131790 111.402985 76.794769
v 213.955658 98.324196 37.379612
v 213.715408 119.928886 79.650879
v 164.356934 100.282082 37.605228
v 164.342438 123.308701 77.998459
v 111.560043 93.425537 32.482044
v 112.077873 118.429535 70.184891
v 65.667412 76.263092 21.580828
v 66.678444 103.177002 57.606613
v 29.441072 50.793915 5.923095
v 30.884207 79.739975 41.483456
v 5.644829 19.105751 -13.293019
v 7.433263 50.218723 22.627195
v -2.931784 -16.480062 -34.461304
v -0.961843 16.480005 -0.000000
v 322.416199 79.895523 -41.417210
v 321.281830 71.461624 -1.522100
v 298.404327 102.610741 -45.016182
v 297.420929 94.206169 -4.941896
v 270.623444 119.420250 -47.529694
v 269.891907 111.046135 -7.314354
v 237.310730 129.861511 -48.857502
v 236.908661 121.590172 -8.554657
v 196.742538 133.494019 -48.933857
v 196.645706 125.424835 -8.416286
v 147.183838 129.941483 -47.854702
v 147.289169 122.072495 -6.584946
v 95.819023 116.308014 -44.935131
v 96.316269 108.762245 -2.994951
v 52.920906 91.861702 -39.981346
v 53.690018 84.754433 2.036988
v 20.886671 59.369274 -33.635643
v 21.825693 52.721092 8.031288
v 2.117843 21.556870 -26.377424
v 3.134027 15.374762 14.274236
v -0.970883 -18.892164 -18.451986
v 0.012742 -24.529093 0.001451
v 331.248901 52.960617 -62.592026
v 330.043518 18.116861 -54.215565
v 310.516174 69.437271 -82.236374
v 309.445465 35.129448 -70.345512
v 285.253784 82.385902 -97.666924
v 284.415802 48.663219 -82.185120
v 253.652832 91.637383 -108.739433
v 253.130783 58.637295 -89.564339
v 213.945480 97.058205 -115.325989
v 213.725586 64.935158 -92.231445
v 164.357208 98.668762 -117.380341
v 164.342163 67.286385 -87.374298
v 111.623680 93.857002 -111.856644
v 112.014236 63.387596 -73.433830
v 65.829987 81.233238 -97.124382
v 66.515869 51.952095 -52.168831
v 29.720650 62.493282 -75.129303
v 30.604630 34.392540 -25.436419
v 6.042940 39.196877 -47.718811
v 7.035151 12.257664 4.755768
v -2.443006 12.719351 -16.589846
v -1.450622 -12.719360 -0.000000
v 331.248901 22.551607 -60.977901
v 330.043518 -22.551643 -87.549286
v 310.516174 22.146358 -86.961830
v 309.445465 -22.146391 -108.228760
v 285.253784 21.697460 -107.481659
v 284.415802 -21.697485 -123.245171
v 253.652832 21.174150 -122.374901
v 253.130783 -21.174170 -132.382416
v 213.945480 20.583467 -131.468689
v 213.725586 -20.583481 -135.460785
v 164.357208 20.102844 -134.553757
v 164.342163 -20.102850 -128.647049
v 111.623680 19.538937 -127.816261
v 112.014236 -19.538933 -109.853630
v 65.829987 18.829332 -109.180092
v 66.515869 -18.829321 -81.517883
v 29.720650 18.142572 -81.043823
v 30.604630 -18.142557 -46.065029
v 6.042940 17.479750 -45.818138
v 7.035151 -17.479733 -5.917045
v -2.443006 16.603951 -5.917046
v -1.450622 -16.603931 -0.000000

vt 0.000000 0.367380
vt 0.000000 0.462803
vt 0.000000 0.462803
vt 1.000000 0.415091
vt 0.500000 0.674911
vt 0.000000 0.579488
vt 0.000000 0.627199
vt 0.500000 0.579488
vt 0.000000 0.674911
vt 1.000000 0.674911
vt 0.000000 0.579488
vt 0.000000 0.627199
vt 0.500000 0.579488
vt 0.000000 0.674911
vt 1.000000 0.674911
vt 0.000000 0.579488
vt 0.000000 0.627199
vt 0.500000 0.579488
vt 0.000000 0.674911
vt 1.000000 0.674911
vt 0.000000 0.579488
vt 0.000000 0.627199
vt 0.500000 0.579488
vt 0.000000 0.674911
vt 1.000000 0.674911
vt 0.000000 0.579488
vt 0.000000 0.627199
vt 0.500000 0.579488
vt 0.000000 0.674911
vt 1.000000 0.674911
vt 0.000000 0.579488
vt 0.000000 0.627199
vt 0.500000 0.579488
vt 0.000000 0.674911
vt 1.000000 0.462803
vt 0.000000 0.367380
vt 0.000000 0.415091
vt 0.500000 0.367380
vt 0.000000 0.462803
vt 1.000000 0.160846
vt 0.000000 0.065424
vt 0.000000 0.113135
vt 0.500000 0.065424
vt 0.000000 0.160846
vt 1.000000 0.160846
vt 0.000000 0.065424
vt 0.000000 0.113135
vt 0.500000 0.065424
vt 0.000000 0.160846
vt 1.000000 0.674911
vt 0.000000 0.579488
vt 0.000000 0.627199
vt 0.500000 0.579488
vt 0.000000 0.674911
vt 1.000000 0.674911
vt 0.000000 0.579488
vt 0.000000 0.627199
vt 0.500000 0.579488
vt 0.000000 0.674911
vt 1.000000 0.462803
vt 0.000000 0.367380
vt 0.000000 0.415091
vt 0.500000 0.367380
vt 0.000000 0.462803
vt 1.000000 0.462803
vt 0.000000 0.367380
vt 0.000000 0.415091
vt 0.500000 0.367380
vt 0.000000 0.462803
vt 1.000000 0.160846
vt 0.000000 0.065424
vt 0.000000 0.113135
vt 0.500000 0.065424
vt 0.000000 0.160846
vt 1.000000 0.160846
vt 0.000000 0.065424
vt 0.000000 0.113135
vt 0.500000 0.065424
vt 0.000000 0.160846
vt 1.000000 0.160846
vt 0.000000 0.065424
vt 0.000000 0.113135
vt 0.500000 0.065424
vt 0.000000 0.160846
vt 1.000000 0.674911
vt 0.000000 0.579488
vt 0.000000 0.627199
vt 0.500000 0.579488
vt 0.000000 0.674911
vt 1.000000 0.462803
vt 0.000000 0.415091
vt 0.500000 0.367380
vt 1.000000 0.367380
vt 1.000000 0.462803
vt 1.000000 0.674911
vt 0.000000 0.627199
vt 0.500000 0.579488
vt 1.000000 0.579488
vt 1.000000 0.674911
vt 1.000000 0.674911
vt 0.000000 0.627199
vt 0.500000 0.579488
vt 1.000000 0.579488
vt 1.000000 0.674911
vt 1.000000 0.674911
vt 0.000000 0.627199
vt 0.500000 0.579488
vt 1.000000 0.579488
vt 1.000000 0.674911
vt 1.000000 0.674911
vt 0.000000 0.627199
vt 0.500000 0.579488
vt 1.000000 0.579488
vt 1.000000 0.674911
vt 1.000000 0.674911
vt 0.000000 0.627199
vt 0.500000 0.579488
vt 1.000000 0.579488
vt 1.000000 0.674911
vt 1.000000 0.674911
vt 0.000000 0.627199
vt 0.500000 0.579488
vt 1.000000 0.579488
vt 1.000000 0.674911
vt 1.000000 0.462803
vt 0.000000 0.415091
vt 0.500000 0.367380
vt 1.000000 0.367380
vt 1.000000 0.462803
vt 1.000000 0.160846
vt 0.000000 0.113135
vt 0.500000 0.065424
vt 1.000000 0.065424
vt 1.000000 0.160846
vt 1.000000 0.160846
vt 0.000000 0.113135
vt 0.500000 0.065424
vt 1.000000 0.065424
vt 1.000000 0.160846
vt 1.000000 0.674911
vt 0.000000 0.627199
vt 0.500000 0.579488
vt 1.000000 0.579488
vt 1.000000 0.674911
vt 1.000000 0.674911
vt 0.000000 0.627199
vt 0.500000 0.579488
vt 1.000000 0.579488
vt 1.000000 0.674911
vt 1.000000 0.462803
vt 0.000000 0.415091
vt 0.500000 0.367380
vt 1.000000 0.367380
vt 1.000000 0.462803
vt 1.000000 0.462803
vt 0.000000 0.415091
vt 0.500000 0.367380
vt 1.000000 0.367380
vt 1.000000 0.462803
vt 1.000000 0.160846
vt 0.000000 0.113135
vt 0.500000 0.065424
vt 1.000000 0.065424
vt 1.000000 0.160846
vt 1.000000 0.160846
vt 0.000000 0.113135
vt 0.500000 0.065424
vt 1.000000 0.065424
vt 1.000000 0.160846
vt 1.000000 0.160846
vt 0.000000 0.113135
vt 0.500000 0.065424
vt 1.000000 0.065424
vt 1.000000 0.160846
vt 1.000000 0.674911
vt 0.000000 0.627199
vt 0.500000 0.579488
vt 1.000000 0.579488
vt 1.000000 0.674911
vt 1.000000 1.000000
vt 0.226310 0.001570
vt 0.226310 0.996811
vt 0.312237 0.001570
vt 0.312237 0.996811
vt 0.366377 0.001570
vt 0.366377 0.996811
vt 0.410536 0.001570
vt 0.410536 0.996811
vt 0.459681 0.001570
vt 0.459681 0.996811
vt 0.518683 0.001570
vt 0.518683 0.996811
vt 0.582008 0.001570
vt 0.582008 0.996811
vt 0.669257 0.001570
vt 0.669257 0.996811
vt 0.781296 0.001570
vt 0.781296 0.996811
vt 0.919637 -0.001418
vt 0.919637 0.996811
vt 0.994014 -0.003189
vt 0.994014 1.000000
vt -0.000000 0.907312
vt -0.000000 1.000000
vt 0.000116 0.907312
vt 0.000116 1.000000
vt 0.000223 0.907312
vt 0.000223 1.000000
vt 0.000330 0.907312
vt 0.000330 1.000000
vt 0.000449 0.907312
vt 0.000449 1.000000
vt 0.000593 0.907312
vt 0.000593 1.000000
vt 0.000746 0.907312
vt 0.000746 1.000000
vt 0.000958 0.907312
vt 0.000958 1.000000
vt 0.001230 0.907312
vt 0.001230 1.000000
vt 0.001602 0.907033
vt 0.001602 1.000000
vt 0.007669 0.907033
vt 0.007669 1.000000
vt 0.226310 0.004758
vt 0.226310 1.000000
vt 0.312237 0.004758
vt 0.312237 1.000000
vt 0.366377 0.004758
vt 0.366377 1.000000
vt 0.410536 0.004758
vt 0.410536 1.000000
vt 0.459681 0.004758
vt 0.459681 1.000000
vt 0.518683 0.004758
vt 0.518683 1.000000
vt 0.582008 0.004758
vt 0.582008 1.000000
vt 0.669257 0.004758
vt 0.669257 1.000000
vt 0.781296 0.004758
vt 0.781296 1.000000
vt 0.919637 0.001771
vt 0.919637 1.000000
vt 0.994014 0.000000
vt 0.994014 1.000000
vt 0.237803 0.004759
vt 0.237803 1.000000
vt 0.348828 0.004759
vt 0.348828 1.000000
vt 0.412493 0.004759
vt 0.412493 1.000000
vt 0.454237 0.004759
vt 0.454237 1.000000
vt 0.500692 0.004759
vt 0.500692 1.000000
vt 0.556466 0.004759
vt 0.556466 1.000000
vt 0.616326 0.004759
vt 0.616326 1.000000
vt 0.698801 0.004759
vt 0.698801 1.000000
vt 0.804710 0.004759
vt 0.804710 1.000000
vt 0.941152 0.001771
vt 0.941152 1.000000
vt 0.994014 0.000000
vt 0.994014 1.000000
vt -0.000000 0.907312
vt -0.000000 1.000000
vt 0.000116 0.907312
vt 0.000116 1.000000
vt 0.000223 0.907312
vt 0.000223 1.000000
vt 0.000330 0.907312
vt 0.000330 1.000000
vt 0.000449 0.907312
vt 0.000449 1.000000
vt 0.000593 0.907312
vt 0.000593 1.000000
vt 0.000746 0.907312
vt 0.000746 1.000000
vt 0.000958 0.907312
vt 0.000958 1.000000
vt 0.001230 0.907312
vt 0.001230 1.000000
vt 0.001602 0.907033
vt 0.001602 1.000000
vt 0.007669 0.907033
vt 0.007669 1.000000
vt -0.000000 0.907312
vt -0.000000 1.000000
vt 0.000116 0.907312
vt 0.000116 1.000000
vt 0.000223 0.907312
vt 0.000223 1.000000
vt 0.000330 0.907312
vt 0.000330 1.000000
vt 0.000449 0.907312
vt 0.000449 1.000000
vt 0.000593 0.907312
vt 0.000593 1.000000
vt 0.000746 0.907312
vt 0.000746 1.000000
vt 0.000958 0.907312
vt 0.000958 1.000000
vt 0.001230 0.907312
vt 0.001230 1.000000
vt 0.001602 0.907033
vt 0.001602 1.000000
vt 0.007669 0.907033
vt 0.007669 1.000000
vt -0.000000 0.907312
vt -0.000000 1.000000
vt 0.000116 0.907312
vt 0.000116 1.000000
vt 0.000223 0.907312
vt 0.000223 1.000000
vt 0.000330 0.907312
vt 0.000330 1.000000
vt 0.000449 0.907312
vt 0.000449 1.000000
vt 0.000593 0.907312
vt 0.000593 1.000000
vt 0.000746 0.907312
vt 0.000746 1.000000
vt 0.000958 0.907312
vt 0.000958 1.000000
vt 0.001230 0.907312
vt 0.001230 1.000000
vt 0.001602 0.907033
vt 0.001602 1.000000
vt 0.007669 0.907033
vt 0.007669 1.000000
vt -0.000000 0.907312
vt -0.000000 1.000000
vt 0.000116 0.907312
vt 0.000116 1.000000
vt 0.000223 0.907312
vt 0.000223 1.000000
vt 0.000330 0.907312
vt 0.000330 1.000000
vt 0.000449 0.907312
vt 0.000449 1.000000
vt 0.000593 0.907312
vt 0.000593 1.000000
vt 0.000746 0.907312
vt 0.000746 1.000000
vt 0.000958 0.907312
vt 0.000958 1.000000
vt 0.001230 0.907312
vt 0.001230 1.000000
vt 0.001602 0.907033
vt 0.001602 1.000000
vt 0.007669 0.907033
vt 0.007669 1.000000
vt -0.000000 0.907312
vt -0.000000 1.000000
vt 0.000116 0.907312
vt 0.000116 1.000000
vt 0.000223 0.907312
vt 0.000223 1.000000
vt 0.000330 0.907312
vt 0.000330 1.000000
vt 0.000449 0.907312
vt 0.000449 1.000000
vt 0.000593 0.907312
vt 0.000593 1.000000
vt 0.000746 0.907312
vt 0.000746 1.000000
vt 0.000958 0.907312
vt 0.000958 1.000000
vt 0.001230 0.907312
vt 0.001230 1.000000
vt 0.001602 0.907033
vt 0.001602 1.000000
vt 0.007669 0.907033
vt 0.007669 1.000000
vt -0.000000 0.907312
vt -0.000000 1.000000
vt 0.000116 0.907312
vt 0.000116 1.000000
vt 0.000223 0.907312
vt 0.000223 1.000000
vt 0.000330 0.907312
vt 0.000330 1.000000
vt 0.000449 0.907312
vt 0.000449 1.000000
vt 0.000593 0.907312
vt 0.000593 1.000000
vt 0.000746 0.907312
vt 0.000746 1.000000
vt 0.000958 0.907312
vt 0.000958 1.000000
vt 0.001230 0.907312
vt 0.001230 1.000000
vt 0.001602 0.907033
vt 0.001602 1.000000
vt 0.007669 0.907033
vt 0.007669 1.000000
vt -0.000000 0.907312
vt -0.000000 1.000000
vt 0.000116 0.907312
vt 0.000116 1.000000
vt 0.000223 0.907312
vt 0.000223 1.000000
vt 0.000330 0.907312
vt 0.000330 1.000000
vt 0.000449 0.907312
vt 0.000449 1.000000
vt 0.000593 0.907312
vt 0.000593 1.000000
vt 0.000746 0.907312
vt 0.000746 1.000000
vt 0.000958 0.907312
vt 0.000958 1.000000
vt 0.001230 0.907312
vt 0.001230 1.000000
vt 0.001602 0.907033
vt 0.001602 1.000000
vt 0.007669 0.907033
vt 0.007669 1.000000
vt -0.000000 0.907312
vt -0.000000 1.000000
vt 0.000116 0.907312
vt 0.000116 1.000000
vt 0.000223 0.907312
vt 0.000223 1.000000
vt 0.000330 0.907312
vt 0.000330 1.000000
vt 0.000449 0.907312
vt 0.000449 1.000000
vt 0.000593 0.907312
vt 0.000593 1.000000
vt 0.000746 0.907312
vt 0.000746 1.000000
vt 0.000958 0.907312
vt 0.000958 1.000000
vt 0.001230 0.907312
vt 0.001230 1.000000
vt 0.001602 0.907033
vt 0.001602 1.000000
vt 0.007669 0.907033
vt 0.007669 1.000000
vt -0.000000 0.907312
vt -0.000000 1.000000
vt 0.000116 0.907312
vt 0.000116 1.000000
vt 0.000223 0.907312
vt 0.000223 1.000000
vt 0.000330 0.907312
vt 0.000330 1.000000
vt 0.000449 0.907312
vt 0.000449 1.000000
vt 0.000593 0.907312
vt 0.000593 1.000000
vt 0.000746 0.907312
vt 0.000746 1.000000
vt 0.000958 0.907312
vt 0.000958 1.000000
vt 0.001230 0.907312
vt 0.001230 1.000000
vt 0.001602 0.907033
vt 0.001602 1.000000
vt 0.007669 0.907033
vt 0.007669 1.000000
vt 0.226310 0.002306
vt 0.226310 0.997547
vt 0.312237 0.002306
vt 0.312237 0.997547
vt 0.366377 0.002306
vt 0.366377 0.997547
vt 0.410536 0.002306
vt 0.410536 0.997547
vt 0.459681 0.002306
vt 0.459681 0.997547
vt 0.518683 0.002306
vt 0.518683 0.997547
vt 0.582008 0.002306
vt 0.582008 0.997547
vt 0.669257 0.002306
vt 0.669257 0.997547
vt 0.781296 0.002306
vt 0.781296 0.997547
vt 0.919637 -0.000682
vt 0.919637 0.997547
vt 0.994014 -0.002453
vt 0.994014 1.000000
vt -0.000000 0.907312
vt -0.000000 1.000000
vt 0.000116 0.907312
vt 0.000116 1.000000
vt 0.000223 0.907312
vt 0.000223 1.000000
vt 0.000330 0.907312
vt 0.000330 1.000000
vt 0.000449 0.907312
vt 0.000449 1.000000
vt 0.000593 0.907312
vt 0.000593 1.000000
vt 0.000746 0.907312
vt 0.000746 1.000000
vt 0.000958 0.907312
vt 0.000958 1.000000
vt 0.001230 0.907312
vt 0.001230 1.000000
vt 0.001602 0.907033
vt 0.001602 1.000000
vt 0.007669 0.907033
vt 0.007669 1.000000
vt 0.226310 0.003307
vt 0.226310 0.998549
vt 0.312237 0.003307
vt 0.312237 0.998549
vt 0.366377 0.003307
vt 0.366377 0.998549
vt 0.410536 0.003307
vt 0.410536 0.998549
vt 0.459681 0.003307
vt 0.459681 0.998549
vt 0.518683 0.003307
vt 0.518683 0.998549
vt 0.582008 0.003307
vt 0.582008 0.998549
vt 0.669257 0.003307
vt 0.669257 0.998549
vt 0.781296 0.003307
vt 0.781296 0.998549
vt 0.919637 0.000320
vt 0.919637 0.998549
vt 0.994014 -0.001451
vt 0.994014 1.000000
vt -0.000000 0.907312
vt -0.000000 1.000000
vt 0.000116 0.907312
vt 0.000116 1.000000
vt 0.000223 0.907312
vt 0.000223 1.000000
vt 0.000330 0.907312
vt 0.000330 1.000000
vt 0.000449 0.907312
vt 0.000449 1.000000
vt 0.000593 0.907312
vt 0.000593 1.000000
vt 0.000746 0.907312
vt 0.000746 1.000000
vt 0.000958 0.907312
vt 0.000958 1.000000
vt 0.001230 0.907312
vt 0.001230 1.000000
vt 0.001602 0.907033
vt 0.001602 1.000000
vt 0.007669 0.907033
vt 0.007669 1.000000
vt -0.000000 0.907312
vt -0.000000 1.000000
vt 0.000116 0.907312
vt 0.000116 1.000000
vt 0.000223 0.907312
vt 0.000223 1.000000
vt 0.000330 0.907312
vt 0.000330 1.000000
vt 0.000449 0.907312
vt 0.000449 1.000000
vt 0.000593 0.907312
vt 0.000593 1.000000
vt 0.000746 0.907312
vt 0.000746 1.000000
vt 0.000958 0.907312
vt 0.000958 1.000000
vt 0.001230 0.907312
vt 0.001230 1.000000
vt 0.001602 0.907033
vt 0.001602 1.000000
vt 0.007669 0.907033
vt 0.007669 1.000000

f 3/3 5/5 1/1
f 91/91 92/92 2/2
f 93/93 5/5 4/4
f 94/94 92/92 95/95
f 6/6 8/8 7/7
f 96/96 97/97 9/9
f 98/98 8/8 10/10
f 99/99 97/97 100/100
f 11/11 13/13 12/12
f 101/101 102/102 14/14
f 103/103 13/13 15/15
f 104/104 102/102 105/105
f 16/16 18/18 17/17
f 106/106 107/107 19/19
f 108/108 18/18 20/20
f 109/109 107/107 110/110
f 21/21 23/23 22/22
f 111/111 112/112 24/24
f 113/113 23/23 25/25
f 114/114 112/112 115/115
f 26/26 28/28 27/27
f 116/116 117/117 29/29
f 118/118 28/28 30/30
f 119/119 117/117 120/120
f 31/31 33/33 32/32
f 121/121 122/122 34/34
f 123/123 33/33 35/35
f 124/124 122/122 125/125
f 36/36 38/38 37/37
f 126/126 127/127 39/39
f 128/128 38/38 40/40
f 129/129 127/127 130/130
f 41/41 43/43 42/42
f 131/131 132/132 44/44
f 133/133 43/43 45/45
f 134/134 132/132 135/135
f 46/46 48/48 47/47
f 136/136 137/137 49/49
f 138/138 48/48 50/50
f 139/139 137/137 140/140
f 51/51 53/53 52/52
f 141/141 142/142 54/54
f 143/143 53/53 55/55
f 144/144 142/142 145/145
f 56/56 58/58 57/57
f 146/146 147/147 59/59
f 148/148 58/58 60/60
f 149/149 147/147 150/150
f 61/61 63/63 62/62
f 151/151 152/152 64/64
f 153/153 63/63 65/65
f 154/154 152/152 155/155
f 66/66 68/68 67/67
f 156/156 157/157 69/69
f 158/158 68/68 70/70
f 159/159 157/157 160/160
f 71/71 73/73 72/72
f 161/161 162/162 74/74
f 163/163 73/73 75/75
f 164/164 162/162 165/165
f 76/76 78/78 77/77
f 166/166 167/167 79/79
f 168/168 78/78 80/80
f 169/169 167/167 170/170
f 81/81 83/83 82/82
f 171/171 172/172 84/84
f 173/173 83/83 85/85
f 174/174 172/172 175/175
f 86/86 88/88 87/87
f 176/176 177/177 89/89
f 178/178 88/88 90/90
f 179/179 177/177 180/180
f 181/181 184/184 183/183
f 184/184 181/181 182/182
f 183/183 186/186 185/185
f 186/186 183/183 184/184
f 185/185 188/188 187/187
f 188/188 185/185 186/186
f 187/187 190/190 189/189
f 190/190 187/187 188/188
f 189/189 192/192 191/191
f 192/192 189/189 190/190
f 191/191 194/194 193/193
f 194/194 191/191 192/192
f 193/193 196/196 195/195
f 196/196 193/193 194/194
f 195/195 198/198 197/197
f 198/198 195/195 196/196
f 197/197 200/200 199/199
f 200/200 197/197 198/198
f 199/199 202/202 201/201
f 202/202 199/199 200/200
f 203/203 206/206 205/205
f 206/206 203/203 204/204
f 205/205 208/208 207/207
f 208/208 205/205 206/206
f 207/207 210/210 209/209
f 210/210 207/207 208/208
f 209/209 212/212 211/211
f 212/212 209/209 210/210
f 211/211 214/214 213/213
f 214/214 211/211 212/212
f 213/213 216/216 215/215
f 216/216 213/213 214/214
f 215/215 218/218 217/217
f 218/218 215/215 216/216
f 217/217 220/220 219/219
f 220/220 217/217 218/218
f 219/219 222/222 221/221
f 222/222 219/219 220/220
f 221/221 224/224 223/223
f 224/224 221/221 222/222
f 225/225 228/228 227/227
f 228/228 225/225 226/226
f 227/227 230/230 229/229
f 230/230 227/227 228/228
f 229/229 232/232 231/231
f 232/232 229/229 230/230
f 231/231 234/234 233/233
f 234/234 231/231 232/232
f 233/233 236/236 235/235
f 236/236 233/233 234/234
f 235/235 238/238 237/237
f 238/238 235/235 236/236
f 237/237 240/240 239/239
f 240/240 237/237 238/238
f 239/239 242/242 241/241
f 242/242 239/239 240/240
f 241/241 244/244 243/243
f 244/244 241/241 242/242
f 243/243 246/246 245/245
f 246/246 243/243 244/244
f 247/247 250/250 249/249
f 250/250 247/247 248/248
f 249/249 252/252 251/251
f 252/252 249/249 250/250
f 251/251 254/254 253/253
f 254/254 251/251 252/252
f 253/253 256/256 255/255
f 256/256 253/253 254/254
f 255/255 258/258 257/257
f 258/258 255/255 256/256
f 257/257 260/260 259/259
f 260/260 257/257 258/258
f 259/259 262/262 261/261
f 262/262 259/259 260/260
f 261/261 264/264 263/263
f 264/264 261/261 262/262
f 263/263 266/266 265/265
f 266/266 263/263 264/264
f 265/265 268/268 267/267
f 268/268 265/265 266/266
f 269/269 272/272 271/271
f 272/272 269/269 270/270
f 271/271 274/274 273/273
f 274/274 271/271 272/272
f 273/273 276/276 275/275
f 276/276 273/273 274/274
f 275/275 278/278 277/277
f 278/278 275/275 276/276
f 277/277 280/280 279/279
f 280/280 277/277 278/278
f 279/279 282/282 281/281
f 282/282 279/279 280/280
f 281/281 284/284 283/283
f 284/284 281/281 282/282
f 283/283 286/286 285/285
f 286/286 283/283 284/284
f 285/285 288/288 287/287
f 288/288 285/285 286/286
f 287/287 290/290 289/289
f 290/290 287/287 288/288
f 291/291 294/294 293/293
f 294/294 291/291 292/292
f 293/293 296/296 295/295
f 296/296 293/293 294/294
f 295/295 298/298 297/297
f 298/298 295/295 296/296
f 297/297 300/300 299/299
f 300/300 297/297 298/298
f 299/299 302/302 301/301
f 302/302 299/299 300/300
f 301/301 304/304 303/303
f 304/304 301/301 302/302
f 303/303 306/306 305/305
f 306/306 303/303 304/304
f 305/305 308/308 307/307
f 308/308 305/305 306/306
f 307/307 310/310 309/309
f 310/310 307/307 308/308
f 309/309 312/312 311/311
f 312/312 309/309 310/310
f 313/313 316/316 315/315
f 316/316 313/313 314/314
f 315/315 318/318 317/317
f 318/318 315/315 316/316
f 317/317 320/320 319/319
f 320/320 317/317 318/318
f 319/319 322/322 321/321
f 322/322 319/319 320/320
f 321/321 324/324 323/323
f 324/324 321/321 322/322
f 323/323 326/326 325/325
f 326/326 323/323 324/324
f 325/325 328/328 327/327
f 328/328 325/325 326/326
f 327/327 330/330 329/329
f 330/330 327/327 328/328
f 329/329 332/332 331/331
f 332/332 329/329 330/330
f 331/331 334/334 333/333
f 334/334 331/331 332/332
f 335/335 338/338 337/337
f 338/338 335/335 336/336
f 337/337 340/340 339/339
f 340/340 337/337 338/338
f 339/339 342/342 341/341
f 342/342 339/339 340/340
f 341/341 344/344 343/343
f 344/344 341/341 342/342
f 343/343 346/346 345/345
f 346/346 343/343 344/344
f 345/345 348/348 347/347
f 348/348 345/345 346/346
f 347/347 350/350 349/349
f 350/350 347/347 348/348
f 349/349 352/352 351/351
f 352/352 349/349 350/350
f 351/351 354/354 353/353
f 354/354 351/351 352/352
f 353/353 356/356 355/355
f 356/356 353/353 354/354
f 357/357 360/360 359/359
f 360/360 357/357 358/358
f 359/359 362/362 361/361
f 362/362 359/359 360/360
f 361/361 364/364 363/363
f 364/364 361/361 362/362
f 363/363 366/366 365/365
f 366/366 363/363 364/364
f 365/365 368/368 367/367
f 368/368 365/365 366/366
f 367/367 370/370 369/369
f 370/370 367/367 368/368
f 369/369 372/372 371/371
f 372/372 369/369 370/370
f 371/371 374/374 373/373
f 374/374 371/371 372/372
f 373/373 376/376 375/375
f 376/376 373/373 374/374
f 375/375 378/378 377/377
f 378/378 375/375 376/376
f 379/379 382/382 381/381
f 382/382 379/379 380/380
f 381/381 384/384 383/383
f 384/384 381/381 382/382
f 383/383 386/386 385/385
f 386/386 383/383 384/384
f 385/385 388/388 387/387
f 388/388 385/385 386/386
f 387/387 390/390 389/389
f 390/390 387/387 388/388
f 389/389 392/392 391/391
f 392/392 389/389 390/390
f 391/391 394/394 393/393
f 394/394 391/391 392/392
f 393/393 396/396 395/395
f 396/396 393/393 394/394
f 395/395 398/398 397/397
f 398/398 395/395 396/396
f 397/397 400/400 399/399
f 400/400 397/397 398/398
f 401/401 404/404 403/403
f 404/404 401/401 402/402
f 403/403 406/406 405/405
f 406/406 403/403 404/404
f 405/405 408/408 407/407
f 408/408 405/405 406/406
f 407/407 410/410 409/409
f 410/410 407/407 408/408
f 409/409 412/412 411/411
f 412/412 409/409 410/410
f 411/411 414/414 413/413
f 414/414 411/411 412/412
f 413/413 416/416 415/415
f 416/416 413/413 414/414
f 415/415 418/418 417/417
f 418/418 415/415 416/416
f 417/417 420/420 419/419
f 420/420 417/417 418/418
f 419/419 422/422 421/421
f 422/422 419/419 420/420
f 423/423 426/426 425/425
f 426/426 423/423 424/424
f 425/425 428/428 427/427
f 428/428 425/425 426/426
f 427/427 430/430 429/429
f 430/430 427/427 428/428
f 429/429 432/432 431/431
f 432/432 429/429 430/430
f 431/431 434/434 433/433
f 434/434 431/431 432/432
f 433/433 436/436 435/435
f 436/436 433/433 434/434
f 435/435 438/438 437/437
f 438/438 435/435 436/436
f 437/437 440/440 439/439
f 440/440 437/437 438/438
f 439/439 442/442 441/441
f 442/442 439/439 440/440
f 441/441 444/444 443/443
f 444/444 441/441 442/442
f 445/445 448/448 447/447
f 448/448 445/445 446/446
f 447/447 450/450 449/449
f 450/450 447/447 448/448
f 449/449 452/452 451/451
f 452/452 449/449 450/450
f 451/451 454/454 453/453
f 454/454 451/451 452/452
f 453/453 456/456 455/455
f 456/456 453/453 454/454
f 455/455 458/458 457/457
f 458/458 455/455 456/456
f 457/457 460/460 459/459
f 460/460 457/457 458/458
f 459/459 462/462 461/461
f 462/462 459/459 460/460
f 461/461 464/464 463/463
f 464/464 461/461 462/462
f 463/463 466/466 465/465
f 466/466 463/463 464/464
f 467/467 470/470 469/469
f 470/470 467/467 468/468
f 469/469 472/472 471/471
f 472/472 469/469 470/470
f 471/471 474/474 473/473
f 474/474 471/471 472/472
f 473/473 476/476 475/475
f 476/476 473/473 474/474
f 475/475 478/478 477/477
f 478/478 475/475 476/476
f 477/477 480/480 479/479
f 480/480 477/477 478/478
f 479/479 482/482 481/481
f 482/482 479/479 480/480
f 481/481 484/484 483/483
f 484/484 481/481 482/482
f 483/483 486/486 485/485
f 486/486 483/483 484/484
f 485/485 488/488 487/487
f 488/488 485/485 486/486
f 489/489 492/492 491/491
f 492/492 489/489 490/490
f 491/491 494/494 493/493
f 494/494 491/491 492/492
f 493/493 496/496 495/495
f 496/496 493/493 494/494
f 495/495 498/498 497/497
f 498/498 495/495 496/496
f 497/497 500/500 499/499
f 500/500 497/497 498/498
f 499/499 502/502 501/501
f 502/502 499/499 500/500
f 501/501 504/504 503/503
f 504/504 501/501 502/502
f 503/503 506/506 505/505
f 506/506 503/503 504/504
f 505/505 508/508 507/507
f 508/508 505/505 506/506
f 507/507 510/510 509/509
f 510/510 507/507 508/508
f 511/511 514/514 513/513
f 514/514 511/511 512/512
f 513/513 516/516 515/515
f 516/516 513/513 514/514
f 515/515 518/518 517/517
f 518/518 515/515 516/516
f 517/517 520/520 519/519
f 520/520 517/517 518/518
f 519/519 522/522 521/521
f 522/522 519/519 520/520
f 521/521 524/524 523/523
f 524/524 521/521 522/522
f 523/523 526/526 525/525
f 526/526 523/523 524/524
f 525/525 528/528 527/527
f 528/528 525/525 526/526
f 527/527 530/530 529/529
f 530/530 527/527 528/528
f 529/529 532/532 531/531
f 532/532 529/529 530/530
f 533/533 536/536 535/535
f 536/536 533/533 534/534
f 535/535 538/538 537/537
f 538/538 535/535 536/536
f 537/537 540/540 539/539
f 540/540 537/537 538/538
f 539/539 542/542 541/541
f 542/542 539/539 540/540
f 541/541 544/544 543/543
f 544/544 541/541 542/542
f 543/543 546/546 545/545
f 546/546 543/543 544/544
f 545/545 548/548 547/547
f 548/548 545/545 546/546
f 547/547 550/550 549/549
f 550/550 547/547 548/548
f 549/549 552/552 551/551
f 552/552 549/549 550/550
f 551/551 554/554 553/553
f 554/554 551/551 552/552
f 555/555 558/558 557/557
f 558/558 555/555 556/556
f 557/557 560/560 559/559
f 560/560 557/557 558/558
f 559/559 562/562 561/561
f 562/562 559/559 560/560
f 561/561 564/564 563/563
f 564/564 561/561 562/562
f 563/563 566/566 565/565
f 566/566 563/563 564/564
f 565/565 568/568 567/567
f 568/568 565/565 566/566
f 567/567 570/570 569/569
f 570/570 567/567 568/568
f 569/569 572/572 571/571
f 572/572 569/569 570/570
f 571/571 574/574 573/573
f 574/574 571/571 572/572
f 573/573 576/576 575/575
f 576/576 573/573 574/574
