# MOD converted: eff_s_2481.mod
# 112 verts, 56 faces

v 1.174760 86.906067 5.994957
v 1.173078 86.568474 5.967119
v 1.220923 86.915596 6.040107
v 1.219241 86.578003 0.000000
v 1.174760 86.906067 5.934155
v 1.172767 86.497009 5.968100
v 1.220923 86.907219 5.980285
v 1.218930 86.498161 0.000000
v 1.174763 96.044472 6.190502
v 1.172074 95.708115 6.239635
v 1.229523 96.052635 6.155932
v 1.226834 95.716278 0.000000
v 1.174763 96.044472 6.244300
v 1.171589 95.636337 6.238750
v 1.229523 96.046646 6.208846
v 1.226349 95.638512 0.000000
v -3.035571 -279.811249 17.124294
v -3.066122 -279.742218 17.196045
v -2.575186 -279.861908 17.297464
v -2.605737 -279.792908 0.000257
v -3.059688 -279.857056 17.073584
v -3.042006 -279.696411 17.246754
v -2.599304 -279.907715 17.246754
v -2.581622 -279.747070 0.000257
v -3.073263 -279.807098 17.022873
v -3.028430 -279.746368 17.297464
v -2.612878 -279.857758 17.196045
v -2.568045 -279.797028 0.000257
v 1.096165 -182.540115 -0.852249
v 1.117909 -182.379974 -0.714686
v 1.433551 -182.585922 -0.714686
v 1.455294 -182.425781 0.000257
v 1.122743 -182.495117 -0.802053
v 1.091331 -182.424988 -0.764882
v 1.460128 -182.540924 -0.664489
v 1.428717 -182.470795 0.000257
v 1.082550 -182.489655 -0.902446
v 1.131524 -182.430435 -0.664489
v 1.419935 -182.535461 -0.764882
v 1.468910 -182.476242 0.000257
v -6.732742 -99.995796 21.223942
v -6.710980 -99.835655 21.301884
v -6.472009 -100.031227 21.301884
v -6.450247 -99.871086 0.000257
v -6.741491 -99.945992 21.172031
v -6.702230 -99.885460 21.353792
v -6.480759 -99.981422 21.249975
v -6.441498 -99.920891 0.000257
v -6.711019 -99.950134 21.275858
v -6.732703 -99.881317 21.249983
v -6.450286 -99.985565 21.353800
v -6.471970 -99.916748 0.000257
v -5.204832 -44.195843 -2.267856
v -5.152141 -44.138229 -2.097288
v -5.041858 -44.222126 -2.196727
v -4.989167 -44.164509 0.000257
v -5.162532 -44.202667 -2.168413
v -5.194441 -44.131409 -2.196723
v -4.999558 -44.228947 -2.097284
v -5.031467 -44.157688 0.000257
v -5.191350 -44.246811 -2.218136
v -5.165622 -44.087261 -2.147007
v -5.028377 -44.273094 -2.147007
v -5.002648 -44.113541 0.000257
v -5.361007 -279.555298 -29.614216
v -5.387125 -279.486755 -29.664042
v -4.893552 -279.606750 -29.767019
v -4.919670 -279.538208 0.000257
v -5.382908 -279.601349 -29.562727
v -5.365226 -279.440704 -29.715530
v -4.915453 -279.652802 -29.715530
v -4.897771 -279.492157 0.000257
v -5.394266 -279.551636 -29.511230
v -5.353866 -279.490417 -29.767012
v -4.926811 -279.603088 -29.664032
v -4.886411 -279.541870 0.000257
v -9.552055 -43.494843 -11.932053
v -9.571129 -43.425652 -11.877516
v -9.381471 -43.522346 -11.981599
v -9.400545 -43.453159 0.000257
v -9.574456 -43.540024 -11.880011
v -9.548728 -43.380470 -11.929557
v -9.403872 -43.567532 -11.929557
v -9.378143 -43.407978 0.000257
v -9.581520 -43.490089 -11.827966
v -9.541664 -43.430405 -11.981595
v -9.410935 -43.517597 -11.877512
v -9.371080 -43.457909 0.000257
v -8.309989 -99.732841 -25.135403
v -8.327156 -99.664642 -25.096731
v -8.046136 -99.768700 -25.201792
v -8.063303 -99.700493 0.000257
v -8.329453 -99.778816 -25.082872
v -8.307692 -99.618668 -25.149261
v -8.065600 -99.814667 -25.149261
v -8.043839 -99.654526 0.000257
v -8.335930 -99.729317 -25.030338
v -8.301185 -99.668167 -25.201790
v -8.072077 -99.765167 -25.096727
v -8.037332 -99.704025 0.000257
v -7.377155 -181.341064 -22.430088
v -7.392509 -181.273102 -22.407192
v -7.022599 -181.389191 -22.512695
v -7.037953 -181.321243 0.000257
v -7.395704 -181.387146 -22.377333
v -7.373960 -181.227005 -22.459940
v -7.041148 -181.435287 -22.459940
v -7.019404 -181.275146 0.000257
v -7.401290 -181.337784 -22.324587
v -7.368373 -181.276382 -22.512695
v -7.046735 -181.385925 -22.407192
v -7.013818 -181.324524 0.000257

vt 0.000000 0.000000
vt 0.000000 1.000000
vt 0.974491 0.000000
vt 0.974491 1.000000
vt 0.000000 0.000000
vt 0.000000 1.000000
vt 0.969389 0.000000
vt 0.969389 1.000000
vt 0.000000 0.000000
vt 0.000000 1.000000
vt 0.974491 0.000000
vt 0.974491 1.000000
vt 0.000000 0.000000
vt 0.000000 1.000000
vt 0.972765 0.000000
vt 0.972765 1.000000
vt 0.500081 0.875000
vt 0.500000 0.999743
vt 1.000134 0.875000
vt 1.000053 1.000000
vt 0.500081 0.875000
vt 0.500000 0.999743
vt 1.000134 0.875000
vt 1.000053 1.000000
vt 0.500081 0.875000
vt 0.500000 0.999743
vt 1.000134 0.875000
vt 1.000053 1.000000
vt 0.500081 0.875000
vt 0.500000 0.999743
vt 1.000134 0.875000
vt 1.000053 1.000000
vt 0.500081 0.875000
vt 0.500000 0.999743
vt 1.000134 0.875000
vt 1.000053 1.000000
vt 0.500081 0.875000
vt 0.500000 0.999743
vt 1.000134 0.875000
vt 1.000053 1.000000
vt 0.500081 0.875000
vt 0.500000 0.999743
vt 1.000134 0.875000
vt 1.000053 1.000000
vt 0.500081 0.875000
vt 0.500000 0.999743
vt 1.000134 0.875000
vt 1.000053 1.000000
vt 0.500081 0.875000
vt 0.500000 0.999743
vt 1.000134 0.875000
vt 1.000053 1.000000
vt 0.500081 0.875000
vt 0.500000 0.999743
vt 1.000134 0.875000
vt 1.000053 1.000000
vt 0.500081 0.875000
vt 0.500000 0.999743
vt 1.000134 0.875000
vt 1.000053 1.000000
vt 0.500081 0.875000
vt 0.500000 0.999743
vt 1.000134 0.875000
vt 1.000053 1.000000
vt 0.500081 0.875000
vt 0.500000 0.999743
vt 1.000134 0.875000
vt 1.000053 1.000000
vt 0.500081 0.875000
vt 0.500000 0.999743
vt 1.000134 0.875000
vt 1.000053 1.000000
vt 0.500081 0.875000
vt 0.500000 0.999743
vt 1.000134 0.875000
vt 1.000053 1.000000
vt 0.500081 0.875000
vt 0.500000 0.999743
vt 1.000134 0.875000
vt 1.000053 1.000000
vt 0.500081 0.875000
vt 0.500000 0.999743
vt 1.000134 0.875000
vt 1.000053 1.000000
vt 0.500081 0.875000
vt 0.500000 0.999743
vt 1.000134 0.875000
vt 1.000053 1.000000
vt 0.500081 0.875000
vt 0.500000 0.999743
vt 1.000134 0.875000
vt 1.000053 1.000000
vt 0.500081 0.875000
vt 0.500000 0.999743
vt 1.000134 0.875000
vt 1.000053 1.000000
vt 0.500081 0.875000
vt 0.500000 0.999743
vt 1.000134 0.875000
vt 1.000053 1.000000
vt 0.500081 0.875000
vt 0.500000 0.999743
vt 1.000134 0.875000
vt 1.000053 1.000000
vt 0.500081 0.875000
vt 0.500000 0.999743
vt 1.000134 0.875000
vt 1.000053 1.000000
vt 0.500081 0.875000
vt 0.500000 0.999743
vt 1.000134 0.875000
vt 1.000053 1.000000

f 3/3 4/4 1/1
f 2/2 1/1 4/4
f 7/7 8/8 5/5
f 6/6 5/5 8/8
f 11/11 12/12 9/9
f 10/10 9/9 12/12
f 15/15 16/16 13/13
f 14/14 13/13 16/16
f 19/19 20/20 17/17
f 18/18 17/17 20/20
f 23/23 24/24 21/21
f 22/22 21/21 24/24
f 27/27 28/28 25/25
f 26/26 25/25 28/28
f 31/31 32/32 29/29
f 30/30 29/29 32/32
f 35/35 36/36 33/33
f 34/34 33/33 36/36
f 39/39 40/40 37/37
f 38/38 37/37 40/40
f 43/43 44/44 41/41
f 42/42 41/41 44/44
f 47/47 48/48 45/45
f 46/46 45/45 48/48
f 51/51 52/52 49/49
f 50/50 49/49 52/52
f 55/55 56/56 53/53
f 54/54 53/53 56/56
f 59/59 60/60 57/57
f 58/58 57/57 60/60
f 63/63 64/64 61/61
f 62/62 61/61 64/64
f 67/67 68/68 65/65
f 66/66 65/65 68/68
f 71/71 72/72 69/69
f 70/70 69/69 72/72
f 75/75 76/76 73/73
f 74/74 73/73 76/76
f 79/79 80/80 77/77
f 78/78 77/77 80/80
f 83/83 84/84 81/81
f 82/82 81/81 84/84
f 87/87 88/88 85/85
f 86/86 85/85 88/88
f 91/91 92/92 89/89
f 90/90 89/89 92/92
f 95/95 96/96 93/93
f 94/94 93/93 96/96
f 99/99 100/100 97/97
f 98/98 97/97 100/100
f 103/103 104/104 101/101
f 102/102 101/101 104/104
f 107/107 108/108 105/105
f 106/106 105/105 108/108
f 111/111 112/112 109/109
f 110/110 109/109 112/112
