# MOD converted: eff_s_1470.mod
# 136 verts, 68 faces

v 91.645439 -29.986797 3.497772
v 91.633301 -29.944668 3.440032
v 91.683685 -29.956028 3.470045
v 91.671547 -29.913898 3.502426
v 91.670609 -29.935192 3.467221
v 91.633507 -29.920801 3.470582
v 91.683479 -29.979895 3.435377
v 91.646378 -29.965504 3.500368
v 91.657921 -29.972929 3.465163
v 91.620819 -29.958538 3.472641
v 91.696167 -29.942158 3.437436
v 91.659065 -29.927767 0.000000
v 91.032799 -48.308277 1.403582
v 91.024887 -48.301491 1.400290
v 91.042686 -48.326965 1.417908
v 91.034775 -48.320179 1.393363
v 91.021393 -48.309910 1.396184
v 91.036293 -48.299858 1.407689
v 91.031281 -48.328598 1.410510
v 91.046188 -48.318546 -0.001489
v 91.027000 -48.307793 1.404257
v 91.028114 -48.301743 1.380249
v 91.007858 -48.323883 1.400789
v 91.008972 -48.317833 1.391698
v 91.021889 -48.297791 1.396275
v 91.033226 -48.311749 1.388231
v 91.002747 -48.313881 1.392808
v 91.014091 -48.327835 0.007618
v 91.027489 -48.312775 1.386523
v 91.030243 -48.297245 1.393045
v 91.037895 -48.334332 1.378517
v 91.040642 -48.318806 1.398185
v 91.036789 -48.303013 1.389389
v 91.020943 -48.307007 1.390179
v 91.047195 -48.324570 1.381383
v 91.031349 -48.328568 0.009850
v 87.648407 -29.903219 1.886113
v 87.648407 -29.997477 1.886113
v 87.748413 -29.903219 1.886113
v 87.748413 -29.997477 1.838985
v 87.698410 -30.000353 1.933242
v 87.698410 -30.000353 1.838985
v 87.698410 -29.900343 1.933242
v 87.698410 -29.900343 1.838985
v 87.648407 -29.950348 1.933242
v 87.648407 -29.950348 1.838985
v 87.748413 -29.950348 1.933242
v 87.748413 -29.950348 0.000000
v 91.031113 -48.313873 1.392254
v 91.025269 -48.293510 1.419439
v 91.026314 -48.305695 1.413762
v 91.020462 -48.285336 1.394340
v 91.019539 -48.306999 1.395847
v 91.036842 -48.300385 1.415847
v 91.014732 -48.298820 1.417354
v 91.032043 -48.292210 0.009850
v 91.031944 -48.313873 1.397429
v 91.026802 -48.293510 1.394018
v 91.053787 -48.305695 1.400338
v 91.048645 -48.285336 1.402956
v 91.029373 -48.306999 1.385582
v 91.029373 -48.300385 1.405865
v 91.051224 -48.298820 1.388492
v 91.051216 -48.292210 0.006662
v 91.027489 -48.313847 1.397387
v 91.030243 -48.294365 1.365892
v 91.037895 -48.315002 1.374420
v 91.040642 -48.295525 1.396695
v 91.036789 -48.307358 1.389551
v 91.020943 -48.300854 1.373728
v 91.047195 -48.308517 1.366584
v 91.031349 -48.302013 0.009850
v 91.023537 -48.313847 1.391527
v 91.031067 -48.294365 1.392282
v 90.998657 -48.315002 1.387421
v 91.006187 -48.295525 1.385381
v 91.028702 -48.307358 1.402534
v 91.025902 -48.300854 1.381275
v 91.003822 -48.308517 1.398428
v 91.001022 -48.302013 0.009850
v 91.027000 -48.313847 1.390424
v 91.028114 -48.294365 1.415732
v 91.007858 -48.315002 1.406842
v 91.008972 -48.295525 1.388284
v 91.021889 -48.307358 1.401454
v 91.033226 -48.300854 1.404702
v 91.002747 -48.308517 1.417872
v 91.014091 -48.302013 0.007618
v 91.032784 -48.313847 1.393143
v 91.024811 -48.294365 1.420828
v 91.041664 -48.315002 1.416741
v 91.033691 -48.295525 1.398262
v 91.020668 -48.307358 1.392111
v 91.036926 -48.300854 1.421860
v 91.029556 -48.308517 1.415708
v 91.045807 -48.302013 0.000285
v 91.031097 -48.313847 1.397803
v 91.027725 -48.294365 1.378599
v 91.053833 -48.315002 1.386897
v 91.050461 -48.295525 1.401482
v 91.033188 -48.307358 1.385826
v 91.025642 -48.300854 1.390576
v 91.055916 -48.308517 1.374920
v 91.048370 -48.302013 0.003473
v 91.024010 -48.313869 1.393884
v 91.032051 -48.293510 1.372215
v 91.015610 -48.305695 1.373512
v 91.023651 -48.285336 1.388889
v 91.035553 -48.306999 1.397582
v 91.020508 -48.300385 1.368517
v 91.027153 -48.298820 1.377210
v 91.012108 -48.292210 0.003473
v 91.032799 -48.310783 1.399160
v 91.024887 -48.295654 1.373745
v 91.042686 -48.291939 1.385038
v 91.034775 -48.276810 1.398733
v 91.036293 -48.303219 1.388294
v 91.021393 -48.303219 1.384611
v 91.046188 -48.284374 1.374172
v 91.031281 -48.284374 0.004548
v 91.032799 -48.310783 1.389118
v 91.024887 -48.295654 1.414533
v 91.042686 -48.291939 1.403240
v 91.034775 -48.276810 1.399984
v 91.021393 -48.303219 1.389545
v 91.036293 -48.303219 1.414106
v 91.031281 -48.284374 1.403667
v 91.046188 -48.284374 -0.001489
v 91.020752 -48.309845 1.394139
v 91.034637 -48.296322 1.394139
v 91.004761 -48.287975 1.394139
v 91.018654 -48.274448 1.385040
v 91.027695 -48.303085 1.403239
v 91.027695 -48.303085 1.385040
v 91.011703 -48.281212 1.403239
v 91.011703 -48.281212 0.003034

vt 0.000000 0.000000
vt 0.000000 1.000000
vt 1.000000 0.000000
vt 1.000000 0.000000
vt 1.000000 0.000000
vt 0.000000 1.000000
vt 1.000000 1.000000
vt 0.000000 1.000000
vt 0.000000 0.000000
vt 0.000000 1.000000
vt 1.000000 0.000000
vt 1.000000 1.000000
vt 0.001317 0.003476
vt 0.001317 1.001489
vt 0.995947 0.003476
vt 0.995947 1.001489
vt 0.001317 0.003476
vt 0.001317 1.001489
vt 0.995947 0.003476
vt 0.995947 1.000000
vt 0.010286 0.008748
vt 0.010286 0.992382
vt 0.993557 0.008748
vt 0.993557 0.992382
vt 0.010286 0.008748
vt 0.010286 0.992382
vt 0.993557 0.008748
vt 0.993557 1.000000
vt 0.001996 0.006835
vt 0.001996 0.990150
vt 0.997702 0.006835
vt 0.997702 0.990150
vt 0.001996 0.006835
vt 0.001996 0.990150
vt 0.997702 0.006835
vt 0.997702 1.000000
vt 0.000000 0.000000
vt 0.000000 1.000000
vt 1.000000 0.000000
vt 1.000000 0.000000
vt 1.000000 0.000000
vt 0.000000 1.000000
vt 1.000000 1.000000
vt 0.000000 1.000000
vt 0.000000 0.000000
vt 0.000000 1.000000
vt 1.000000 0.000000
vt 1.000000 1.000000
vt 0.011561 0.006835
vt 0.011561 0.990150
vt 0.997702 0.006835
vt 0.997702 0.990150
vt 0.011561 0.006835
vt 0.011561 0.990150
vt 0.997702 0.006835
vt 0.997702 1.000000
vt 0.008373 0.006834
vt 0.008373 0.993338
vt 0.994513 0.006834
vt 0.994513 0.993338
vt 0.008373 0.006834
vt 0.008373 0.993338
vt 0.994513 0.006834
vt 0.994513 1.000000
vt 0.001996 0.006835
vt 0.001996 0.990150
vt 0.997702 0.006835
vt 0.997702 0.990150
vt 0.001996 0.006835
vt 0.001996 0.990150
vt 0.997702 0.006835
vt 0.997702 1.000000
vt 0.005184 0.006835
vt 0.005184 0.990150
vt 0.994513 0.006835
vt 0.994513 0.990150
vt 0.005184 0.006835
vt 0.005184 0.990150
vt 0.994513 0.006835
vt 0.994513 1.000000
vt 0.010286 0.008748
vt 0.010286 0.992382
vt 0.993557 0.008748
vt 0.993557 0.992382
vt 0.010286 0.008748
vt 0.010286 0.992382
vt 0.993557 0.008748
vt 0.993557 1.000000
vt 0.005184 0.000457
vt 0.005184 0.999715
vt 1.000890 0.000457
vt 1.000890 0.999715
vt 0.005184 0.000457
vt 0.005184 0.999715
vt 1.000890 0.000457
vt 1.000890 1.000000
vt 0.008373 -0.002731
vt 0.008373 0.996527
vt 1.000890 -0.002731
vt 1.000890 0.996527
vt 0.008373 -0.002731
vt 0.008373 0.996527
vt 1.000890 -0.002731
vt 1.000890 1.000000
vt 0.005184 0.000457
vt 0.005184 0.996527
vt 1.000890 0.000457
vt 1.000890 0.996527
vt 0.005184 0.000457
vt 0.005184 0.996527
vt 1.000890 0.000457
vt 1.000890 1.000000
vt 0.004335 0.003476
vt 0.004335 0.995452
vt 1.001985 0.003476
vt 1.001985 0.995452
vt 0.004335 0.003476
vt 0.004335 0.995452
vt 1.001985 0.003476
vt 1.001985 1.000000
vt 0.001317 0.003476
vt 0.001317 1.001489
vt 0.995947 0.003476
vt 0.995947 1.001489
vt 0.001317 0.003476
vt 0.001317 1.001489
vt 0.995947 0.003476
vt 0.995947 1.000000
vt 0.008586 0.006443
vt 0.008586 0.996966
vt 0.995752 0.006443
vt 0.995752 0.996966
vt 0.008586 0.006443
vt 0.008586 0.996966
vt 0.995752 0.006443
vt 0.995752 1.000000

f 3/3 4/4 1/1
f 2/2 1/1 4/4
f 7/7 8/8 5/5
f 6/6 5/5 8/8
f 11/11 12/12 9/9
f 10/10 9/9 12/12
f 15/15 16/16 13/13
f 14/14 13/13 16/16
f 19/19 20/20 17/17
f 18/18 17/17 20/20
f 23/23 24/24 21/21
f 22/22 21/21 24/24
f 27/27 28/28 25/25
f 26/26 25/25 28/28
f 31/31 32/32 29/29
f 30/30 29/29 32/32
f 35/35 36/36 33/33
f 34/34 33/33 36/36
f 39/39 40/40 37/37
f 38/38 37/37 40/40
f 43/43 44/44 41/41
f 42/42 41/41 44/44
f 47/47 48/48 45/45
f 46/46 45/45 48/48
f 51/51 52/52 49/49
f 50/50 49/49 52/52
f 55/55 56/56 53/53
f 54/54 53/53 56/56
f 59/59 60/60 57/57
f 58/58 57/57 60/60
f 63/63 64/64 61/61
f 62/62 61/61 64/64
f 67/67 68/68 65/65
f 66/66 65/65 68/68
f 71/71 72/72 69/69
f 70/70 69/69 72/72
f 75/75 76/76 73/73
f 74/74 73/73 76/76
f 79/79 80/80 77/77
f 78/78 77/77 80/80
f 83/83 84/84 81/81
f 82/82 81/81 84/84
f 87/87 88/88 85/85
f 86/86 85/85 88/88
f 91/91 92/92 89/89
f 90/90 89/89 92/92
f 95/95 96/96 93/93
f 94/94 93/93 96/96
f 99/99 100/100 97/97
f 98/98 97/97 100/100
f 103/103 104/104 101/101
f 102/102 101/101 104/104
f 107/107 108/108 105/105
f 106/106 105/105 108/108
f 111/111 112/112 109/109
f 110/110 109/109 112/112
f 115/115 116/116 113/113
f 114/114 113/113 116/116
f 119/119 120/120 117/117
f 118/118 117/117 120/120
f 123/123 124/124 121/121
f 122/122 121/121 124/124
f 127/127 128/128 125/125
f 126/126 125/125 128/128
f 131/131 132/132 129/129
f 130/130 129/129 132/132
f 135/135 136/136 133/133
f 134/134 133/133 136/136
