# MOD converted: eff_c_f_chaos.mod
# 276 verts, 178 faces

v 224.791397 -26.274752 2.705842
v 224.791397 -26.274752 2.296376
v 225.194717 -26.274752 2.705842
v 225.194717 -26.274752 -0.000000
v -1.588523 -48.475029 -130.493423
v -1.558850 -48.460663 -130.448318
v -1.588522 -48.474983 -130.493408
v -1.558849 -48.460617 -130.448303
v -1.588522 -48.474941 -130.493393
v -1.558849 -48.460575 -130.448288
v -1.588521 -48.474895 -130.493393
v -1.558848 -48.460529 -130.448273
v -1.588521 -48.474854 -130.493378
v -1.558848 -48.460487 -130.448257
v -1.588520 -48.474808 -130.493362
v -1.558847 -48.460442 -130.448242
v -1.588520 -48.474766 -130.493347
v -1.558847 -48.460400 -130.448242
v -1.588519 -48.474720 -130.493332
v -1.558846 -48.460354 -130.448227
v -1.588519 -48.474678 -130.493317
v -1.558846 -48.460312 -130.448212
v -1.588519 -48.474632 -130.493301
v -1.558846 -48.460266 -130.448196
v -1.588518 -48.474590 -130.493286
v -1.558845 -48.460224 -130.448181
v -1.588518 -48.474545 -130.493271
v -1.558845 -48.460178 -130.448166
v -1.588517 -48.474503 -130.493256
v -1.558844 -48.460136 -130.448151
v -1.588517 -48.474457 -130.493240
v -1.558844 -48.460091 -130.448135
v -1.588516 -48.474415 -130.493225
v -1.558843 -48.460049 -130.448120
v -1.588516 -48.474369 -130.493210
v -1.558843 -48.460003 -130.448105
v -1.588515 -48.474327 -130.493195
v -1.558843 -48.459961 -130.448090
v -1.588515 -48.474281 -130.493179
v -1.558842 -48.459915 -130.448074
v -1.588515 -48.474239 -130.493179
v -1.558842 -48.459873 -130.448059
v -1.588514 -48.474194 -130.493164
v -1.558841 -48.459827 -130.448044
v -1.588514 -48.474152 -130.493149
v -1.558841 -48.459785 -130.448029
v -1.588513 -48.474106 -130.493134
v -1.558840 -48.459740 1.000000
v 30.809891 -51.768051 7.550336
v 30.809891 -51.768196 7.431251
v 30.928970 -51.767906 7.550336
v 30.928970 -51.768051 0.000000
v 76.354408 -39.026157 7.083866
v 76.354408 -39.026234 7.020558
v 76.417717 -39.026295 7.083866
v 76.417717 -39.026371 0.000000
v 37.760704 -39.337334 -11.498502
v 37.760704 -39.336929 -11.718173
v 37.980370 -39.337090 -11.498502
v 37.980370 -39.336685 0.000000
v 59.450062 -32.566589 8.108059
v 59.450062 -32.566708 7.988157
v 59.569958 -32.566662 8.108059
v 59.569958 -32.566780 0.000000
v 29.432322 -37.184551 -8.447724
v 29.432322 -37.183903 -8.945025
v 29.929602 -37.183468 -8.447725
v 29.929602 -37.182819 0.000000
v 82.543800 -53.098457 -3.284181
v 82.543800 -53.098427 -3.413765
v 82.673378 -53.098740 -3.284181
v 82.673378 -53.098709 0.000000
v 84.701874 -37.450546 -7.615031
v 84.701874 -37.450420 -7.739440
v 84.826279 -37.450817 -7.615031
v 84.826279 -37.450691 0.000000
v 29.404806 -40.094261 -9.117997
v 29.404806 -40.094013 -9.295470
v 29.582270 -40.093876 -9.117997
v 29.582270 -40.093628 0.000000
v 52.913284 -27.917650 3.747377
v 52.913284 -27.917681 3.674051
v 52.986603 -27.917631 3.747377
v 52.986603 -27.917662 0.000000
v 86.549759 -47.289139 -11.665733
v 86.549759 -47.288277 -12.201626
v 87.085632 -47.290070 -11.665731
v 87.085632 -47.289207 0.000000
v 96.478836 -40.190952 -9.690924
v 96.478836 -40.190289 -10.227768
v 97.015656 -40.192165 -9.690922
v 97.015656 -40.191502 0.000000
v 36.786869 -45.880093 -10.696882
v 36.786869 -45.880005 -10.756218
v 36.846203 -45.879997 -10.696883
v 36.846203 -45.879910 0.000000
v 54.084949 -30.882847 10.774269
v 54.084949 -30.882944 10.697355
v 54.161861 -30.882811 10.774269
v 54.161861 -30.882908 0.000000
v 43.757828 -47.884560 11.399219
v 43.757828 -47.884632 11.354888
v 43.802155 -47.884518 11.399219
v 43.802155 -47.884590 0.000000
v 91.762550 -39.693745 -7.026280
v 91.762550 -39.693649 -7.104993
v 91.841255 -39.693916 -7.026280
v 91.841255 -39.693821 0.000000
v 91.430428 -32.528759 0.028264
v 91.430428 -32.528782 -0.166941
v 91.625618 -32.529102 0.028264
v 91.625618 -32.529125 0.000000
v 88.706322 -38.267101 10.798782
v 88.706322 -38.267159 10.752489
v 88.752617 -38.267197 10.798782
v 88.752617 -38.267254 0.000000
v 72.898720 -43.073860 -12.683754
v 72.898720 -43.073788 -12.719378
v 72.934349 -43.073895 -12.683754
v 72.934349 -43.073822 0.000000
v 65.066452 -40.135033 -11.498200
v 65.066452 -40.134624 -11.696057
v 65.264297 -40.134975 -11.498200
v 65.264297 -40.134567 0.000000
v 48.334286 -29.157595 7.550355
v 48.334286 -29.157835 7.279873
v 48.604755 -29.157141 7.550355
v 48.604755 -29.157381 0.000000
v 110.169159 -37.258202 -0.193417
v 110.169159 -37.258129 -0.457483
v 110.433212 -37.258900 -0.193417
v 110.433212 -37.258827 0.000000
v 51.905121 -48.059761 -1.952858
v 51.905121 -48.059692 -2.040066
v 51.992325 -48.059654 -1.952858
v 51.992325 -48.059586 0.000000
v 48.434982 -48.090916 5.147931
v 48.434982 -48.090954 4.872148
v 48.710754 -48.090405 5.147931
v 48.710754 -48.090443 0.000000
v 79.272820 -29.958010 -7.477189
v 79.272820 -29.957865 -7.637233
v 79.432854 -29.958105 -7.477189
v 79.432854 -29.957960 0.000000
v 43.161484 -34.115479 10.203016
v 43.161484 -34.115524 10.174332
v 43.190170 -34.115440 10.203016
v 43.190170 -34.115486 0.000000
v 62.598015 -44.546597 -8.189173
v 62.598015 -44.546509 -8.244595
v 62.653435 -44.546562 -8.189173
v 62.653435 -44.546474 0.000000
v 50.541050 -38.873795 -5.790457
v 50.541050 -38.873592 -5.920152
v 50.670742 -38.873569 -5.790457
v 50.670742 -38.873367 0.000000
v 76.278748 -28.330002 -6.031286
v 76.278748 -28.329931 -6.128573
v 76.376038 -28.330038 -6.031286
v 76.376038 -28.329967 0.000000
v 98.032288 -52.696720 -3.769056
v 98.032288 -52.696663 -3.824488
v 98.087723 -52.696831 -3.769056
v 98.087723 -52.696774 0.000000
v 102.339622 -35.079025 9.789563
v 102.339622 -35.079113 9.712869
v 102.416313 -35.079166 9.789563
v 102.416313 -35.079254 0.000000
v 76.039871 -37.724369 -13.446138
v 76.039871 -37.724304 -13.478489
v 76.072220 -37.724380 -13.446138
v 76.072220 -37.724316 0.000000
v 70.361725 -54.401138 2.365487
v 70.361725 -54.401138 2.340343
v 70.386871 -54.401146 2.365487
v 70.386871 -54.401146 0.000000
v 77.873627 -58.491718 9.132280
v 77.873627 -58.491734 9.088043
v 77.917862 -58.491741 9.132280
v 77.917862 -58.491756 0.000000
v 29.585665 -42.592865 -2.786891
v 29.585665 -42.592861 -2.801001
v 29.599775 -42.592823 -2.786891
v 29.599775 -42.592819 0.000000
v 96.128128 -46.605030 -6.670909
v 96.128128 -46.604916 -6.733030
v 96.190247 -46.605091 -6.670909
v 96.190247 -46.604977 0.000000
v 70.571945 -27.834961 -2.395161
v 70.571945 -27.834957 -2.535411
v 70.712189 -27.834866 -2.395161
v 70.712189 -27.834862 0.000000
v 120.368668 -44.563583 0.605848
v 120.368668 -44.563610 0.495090
v 120.479416 -44.563862 0.605848
v 120.479416 -44.563889 0.000000
v 106.031776 -32.016830 -1.896479
v 106.031776 -32.016827 -1.922841
v 106.058144 -32.016895 -1.896479
v 106.058144 -32.016891 0.000000
v 68.006157 -29.722094 2.664717
v 68.006157 -29.722109 2.637465
v 68.033409 -29.722082 2.664717
v 68.033409 -29.722097 0.000000
v 41.799660 -32.548866 6.716808
v 41.799660 -32.548874 6.710188
v 41.806282 -32.548859 6.716808
v 41.806282 -32.548866 0.000000
v 114.288986 -43.673103 -8.069215
v 114.288986 -43.673054 -8.119426
v 114.339188 -43.673229 -8.069214
v 114.339188 -43.673180 0.000000
v 112.337517 -35.252411 -9.621096
v 112.337517 -35.252365 -9.670984
v 112.387398 -35.252525 -9.621096
v 112.387398 -35.252480 0.000000
v 122.122116 -42.646503 0.859816
v 122.122116 -42.646538 0.793440
v 122.188492 -42.646683 0.859816
v 122.188492 -42.646717 0.000000
v 51.350124 -33.008797 6.598582
v 51.350124 -33.008839 6.558780
v 51.389927 -33.008724 6.598583
v 51.389927 -33.008766 0.000000
v -1.588523 -8.454509 132.334732
v -1.558850 -8.468876 132.289627
v -1.588522 -8.454553 132.334717
v -1.558849 -8.468920 132.289612
v -1.588522 -8.454597 132.334702
v -1.558849 -8.468964 132.289597
v -1.588521 -8.454640 132.334702
v -1.558848 -8.469007 132.289581
v -1.588521 -8.454684 132.334686
v -1.558848 -8.469051 132.289566
v -1.588520 -8.454728 132.334671
v -1.558847 -8.469095 132.289551
v -1.588520 -8.454772 132.334656
v -1.558847 -8.469139 132.289551
v -1.588519 -8.454816 132.334641
v -1.558846 -8.469183 132.289536
v -1.588519 -8.454860 132.334625
v -1.558846 -8.469227 132.289520
v -1.588519 -8.454904 132.334610
v -1.558846 -8.469271 132.289505
v -1.588518 -8.454947 132.334595
v -1.558845 -8.469315 132.289490
v -1.588518 -8.454991 132.334579
v -1.558845 -8.469358 132.289474
v -1.588517 -8.455035 132.334564
v -1.558844 -8.469402 132.289459
v -1.588517 -8.455079 132.334549
v -1.558844 -8.469445 132.289444
v -1.588516 -8.455123 132.334534
v -1.558843 -8.469489 132.289429
v -1.588516 -8.455167 132.334518
v -1.558843 -8.469533 132.289413
v -1.588515 -8.455211 132.334503
v -1.558843 -8.469577 132.289398
v -1.588515 -8.455254 132.334488
v -1.558842 -8.469621 132.289383
v -1.588515 -8.455297 132.334488
v -1.558842 -8.469665 132.289368
v -1.588514 -8.455341 132.334473
v -1.558841 -8.469708 132.289352
v -1.588514 -8.455385 132.334457
v -1.558841 -8.469752 132.289337
v -1.588513 -8.455429 132.334442
v -1.558840 -8.469796 1.000000
v 0.000000 -32.606560 -0.260339
v 0.000000 -32.606560 -0.260596
v 0.000000 -32.606293 -0.260339
v 0.000000 -32.606293 0.000000
v 132.280685 -35.647015 2.581509
v 132.280685 -35.647015 2.346855
v 132.511826 -35.647015 2.581509
v 132.511826 -35.647015 0.000000

vt 0.499529 0.499815
vt 0.499529 1.000000
vt 1.000000 0.499815
vt 1.000000 1.000000
vt 0.000000 0.000000
vt 1.000000 0.047619
vt -0.000000 0.047619
vt 1.000000 0.095238
vt -0.000000 0.095238
vt 1.000000 0.142857
vt -0.000000 0.142857
vt 1.000000 0.190476
vt -0.000000 0.190476
vt 1.000000 0.238095
vt -0.000000 0.238095
vt 1.000000 0.285714
vt -0.000000 0.285714
vt 1.000000 0.333333
vt -0.000000 0.333333
vt 1.000000 0.380952
vt -0.000000 0.380953
vt 1.000000 0.428571
vt -0.000000 0.428572
vt 1.000000 0.476190
vt -0.000000 0.476191
vt 1.000000 0.523809
vt -0.000000 0.523810
vt 1.000000 0.571429
vt -0.000000 0.571429
vt 1.000000 0.619048
vt -0.000000 0.619048
vt 1.000000 0.666667
vt -0.000000 0.666667
vt 1.000000 0.714286
vt -0.000000 0.714286
vt 1.000000 0.761905
vt -0.000000 0.761905
vt 1.000000 0.809524
vt -0.000000 0.809524
vt 1.000000 0.857143
vt -0.000000 0.857143
vt 1.000000 0.904762
vt -0.000000 0.904762
vt 1.000000 0.952381
vt -0.000000 0.952381
vt 1.000000 1.000000
vt -0.000000 1.000000
vt 1.000000 1.000000
vt 0.000000 0.000000
vt 0.000000 1.000000
vt 1.000000 0.000000
vt 1.000000 1.000000
vt 0.000000 0.000000
vt 0.000000 1.000000
vt 1.000000 0.000000
vt 1.000000 1.000000
vt 0.000000 0.000000
vt 0.000000 1.000000
vt 1.000000 0.000000
vt 1.000000 1.000000
vt 0.000000 0.000000
vt 0.000000 1.000000
vt 1.000000 0.000000
vt 1.000000 1.000000
vt 0.000000 0.000000
vt 0.000000 1.000000
vt 1.000000 0.000000
vt 1.000000 1.000000
vt 0.000000 0.000000
vt 0.000000 1.000000
vt 1.000000 0.000000
vt 1.000000 1.000000
vt 0.000000 0.000000
vt 0.000000 1.000000
vt 1.000000 0.000000
vt 1.000000 1.000000
vt 0.000000 0.000000
vt 0.000000 1.000000
vt 1.000000 0.000000
vt 1.000000 1.000000
vt 0.000000 0.000000
vt 0.000000 1.000000
vt 1.000000 0.000000
vt 1.000000 1.000000
vt 0.000000 0.000000
vt 0.000000 1.000000
vt 1.000000 0.000000
vt 1.000000 1.000000
vt 0.000000 0.000000
vt 0.000000 1.000000
vt 1.000000 0.000000
vt 1.000000 1.000000
vt 0.000000 0.000000
vt 0.000000 1.000000
vt 1.000000 0.000000
vt 1.000000 1.000000
vt 0.000000 0.000000
vt 0.000000 1.000000
vt 1.000000 0.000000
vt 1.000000 1.000000
vt 0.000000 0.000000
vt 0.000000 1.000000
vt 1.000000 0.000000
vt 1.000000 1.000000
vt 0.000000 0.000000
vt 0.000000 1.000000
vt 1.000000 0.000000
vt 1.000000 1.000000
vt 0.000000 0.000000
vt 0.000000 1.000000
vt 1.000000 0.000000
vt 1.000000 1.000000
vt 0.000000 0.000000
vt 0.000000 1.000000
vt 1.000000 0.000000
vt 1.000000 1.000000
vt 0.000000 0.000000
vt 0.000000 1.000000
vt 1.000000 0.000000
vt 1.000000 1.000000
vt 0.000000 0.000000
vt 0.000000 1.000000
vt 1.000000 0.000000
vt 1.000000 1.000000
vt 0.000000 0.000000
vt 0.000000 1.000000
vt 1.000000 0.000000
vt 1.000000 1.000000
vt 0.000000 0.000000
vt 0.000000 1.000000
vt 1.000000 0.000000
vt 1.000000 1.000000
vt 0.000000 0.000000
vt 0.000000 1.000000
vt 1.000000 0.000000
vt 1.000000 1.000000
vt 0.000000 0.000000
vt 0.000000 1.000000
vt 1.000000 0.000000
vt 1.000000 1.000000
vt 0.000000 0.000000
vt 0.000000 1.000000
vt 1.000000 0.000000
vt 1.000000 1.000000
vt 0.000000 0.000000
vt 0.000000 1.000000
vt 1.000000 0.000000
vt 1.000000 1.000000
vt 0.000000 0.000000
vt 0.000000 1.000000
vt 1.000000 0.000000
vt 1.000000 1.000000
vt 0.000000 0.000000
vt 0.000000 1.000000
vt 1.000000 0.000000
vt 1.000000 1.000000
vt 0.000000 0.000000
vt 0.000000 1.000000
vt 1.000000 0.000000
vt 1.000000 1.000000
vt 0.000000 0.000000
vt 0.000000 1.000000
vt 1.000000 0.000000
vt 1.000000 1.000000
vt 0.000000 0.000000
vt 0.000000 1.000000
vt 1.000000 0.000000
vt 1.000000 1.000000
vt 0.000000 0.000000
vt 0.000000 1.000000
vt 1.000000 0.000000
vt 1.000000 1.000000
vt 0.000000 0.000000
vt 0.000000 1.000000
vt 1.000000 0.000000
vt 1.000000 1.000000
vt 0.000000 0.000000
vt 0.000000 1.000000
vt 1.000000 0.000000
vt 1.000000 1.000000
vt 0.000000 0.000000
vt 0.000000 1.000000
vt 1.000000 0.000000
vt 1.000000 1.000000
vt 0.000000 0.000000
vt 0.000000 1.000000
vt 1.000000 0.000000
vt 1.000000 1.000000
vt 0.000000 0.000000
vt 0.000000 1.000000
vt 1.000000 0.000000
vt 1.000000 1.000000
vt 0.000000 0.000000
vt 0.000000 1.000000
vt 1.000000 0.000000
vt 1.000000 1.000000
vt 0.000000 0.000000
vt 0.000000 1.000000
vt 1.000000 0.000000
vt 1.000000 1.000000
vt 0.000000 0.000000
vt 0.000000 1.000000
vt 1.000000 0.000000
vt 1.000000 1.000000
vt 0.000000 0.000000
vt 0.000000 1.000000
vt 1.000000 0.000000
vt 1.000000 1.000000
vt 0.000000 0.000000
vt 0.000000 1.000000
vt 1.000000 0.000000
vt 1.000000 1.000000
vt 0.000000 0.000000
vt 0.000000 1.000000
vt 1.000000 0.000000
vt 1.000000 1.000000
vt 0.000000 0.000000
vt 0.000000 1.000000
vt 1.000000 0.000000
vt 1.000000 1.000000
vt 0.000000 0.000000
vt 0.000000 1.000000
vt 1.000000 0.000000
vt 1.000000 1.000000
vt 0.000000 0.000000
vt 1.000000 0.047619
vt -0.000000 0.047619
vt 1.000000 0.095238
vt -0.000000 0.095238
vt 1.000000 0.142857
vt -0.000000 0.142857
vt 1.000000 0.190476
vt -0.000000 0.190476
vt 1.000000 0.238095
vt -0.000000 0.238095
vt 1.000000 0.285714
vt -0.000000 0.285714
vt 1.000000 0.333333
vt -0.000000 0.333333
vt 1.000000 0.380952
vt -0.000000 0.380953
vt 1.000000 0.428571
vt -0.000000 0.428572
vt 1.000000 0.476190
vt -0.000000 0.476191
vt 1.000000 0.523809
vt -0.000000 0.523810
vt 1.000000 0.571429
vt -0.000000 0.571429
vt 1.000000 0.619048
vt -0.000000 0.619048
vt 1.000000 0.666667
vt -0.000000 0.666667
vt 1.000000 0.714286
vt -0.000000 0.714286
vt 1.000000 0.761905
vt -0.000000 0.761905
vt 1.000000 0.809524
vt -0.000000 0.809524
vt 1.000000 0.857143
vt -0.000000 0.857143
vt 1.000000 0.904762
vt -0.000000 0.904762
vt 1.000000 0.952381
vt -0.000000 0.952381
vt 1.000000 1.000000
vt -0.000000 1.000000
vt 1.000000 1.000000
vt 0.000000 0.000000
vt 0.000000 1.000000
vt 1.000000 0.000000
vt 1.000000 1.000000
vt 0.749979 0.749979
vt 0.749979 1.000000
vt 1.000000 0.749979
vt 1.000000 1.000000

f 3/3 4/4 1/1
f 2/2 1/1 4/4
f 7/7 8/8 5/5
f 6/6 5/5 8/8
f 9/9 10/10 7/7
f 8/8 7/7 10/10
f 11/11 12/12 9/9
f 10/10 9/9 12/12
f 13/13 14/14 11/11
f 12/12 11/11 14/14
f 15/15 16/16 13/13
f 14/14 13/13 16/16
f 17/17 18/18 15/15
f 16/16 15/15 18/18
f 19/19 20/20 17/17
f 18/18 17/17 20/20
f 21/21 22/22 19/19
f 20/20 19/19 22/22
f 23/23 24/24 21/21
f 22/22 21/21 24/24
f 25/25 26/26 23/23
f 24/24 23/23 26/26
f 27/27 28/28 25/25
f 26/26 25/25 28/28
f 29/29 30/30 27/27
f 28/28 27/27 30/30
f 31/31 32/32 29/29
f 30/30 29/29 32/32
f 33/33 34/34 31/31
f 32/32 31/31 34/34
f 35/35 36/36 33/33
f 34/34 33/33 36/36
f 37/37 38/38 35/35
f 36/36 35/35 38/38
f 39/39 40/40 37/37
f 38/38 37/37 40/40
f 41/41 42/42 39/39
f 40/40 39/39 42/42
f 43/43 44/44 41/41
f 42/42 41/41 44/44
f 45/45 46/46 43/43
f 44/44 43/43 46/46
f 47/47 48/48 45/45
f 46/46 45/45 48/48
f 51/51 52/52 49/49
f 50/50 49/49 52/52
f 55/55 56/56 53/53
f 54/54 53/53 56/56
f 59/59 60/60 57/57
f 58/58 57/57 60/60
f 63/63 64/64 61/61
f 62/62 61/61 64/64
f 67/67 68/68 65/65
f 66/66 65/65 68/68
f 71/71 72/72 69/69
f 70/70 69/69 72/72
f 75/75 76/76 73/73
f 74/74 73/73 76/76
f 79/79 80/80 77/77
f 78/78 77/77 80/80
f 83/83 84/84 81/81
f 82/82 81/81 84/84
f 87/87 88/88 85/85
f 86/86 85/85 88/88
f 91/91 92/92 89/89
f 90/90 89/89 92/92
f 95/95 96/96 93/93
f 94/94 93/93 96/96
f 99/99 100/100 97/97
f 98/98 97/97 100/100
f 103/103 104/104 101/101
f 102/102 101/101 104/104
f 107/107 108/108 105/105
f 106/106 105/105 108/108
f 111/111 112/112 109/109
f 110/110 109/109 112/112
f 115/115 116/116 113/113
f 114/114 113/113 116/116
f 119/119 120/120 117/117
f 118/118 117/117 120/120
f 123/123 124/124 121/121
f 122/122 121/121 124/124
f 127/127 128/128 125/125
f 126/126 125/125 128/128
f 131/131 132/132 129/129
f 130/130 129/129 132/132
f 135/135 136/136 133/133
f 134/134 133/133 136/136
f 139/139 140/140 137/137
f 138/138 137/137 140/140
f 143/143 144/144 141/141
f 142/142 141/141 144/144
f 147/147 148/148 145/145
f 146/146 145/145 148/148
f 151/151 152/152 149/149
f 150/150 149/149 152/152
f 155/155 156/156 153/153
f 154/154 153/153 156/156
f 159/159 160/160 157/157
f 158/158 157/157 160/160
f 163/163 164/164 161/161
f 162/162 161/161 164/164
f 167/167 168/168 165/165
f 166/166 165/165 168/168
f 171/171 172/172 169/169
f 170/170 169/169 172/172
f 175/175 176/176 173/173
f 174/174 173/173 176/176
f 179/179 180/180 177/177
f 178/178 177/177 180/180
f 183/183 184/184 181/181
f 182/182 181/181 184/184
f 187/187 188/188 185/185
f 186/186 185/185 188/188
f 191/191 192/192 189/189
f 190/190 189/189 192/192
f 195/195 196/196 193/193
f 194/194 193/193 196/196
f 199/199 200/200 197/197
f 198/198 197/197 200/200
f 203/203 204/204 201/201
f 202/202 201/201 204/204
f 207/207 208/208 205/205
f 206/206 205/205 208/208
f 211/211 212/212 209/209
f 210/210 209/209 212/212
f 215/215 216/216 213/213
f 214/214 213/213 216/216
f 219/219 220/220 217/217
f 218/218 217/217 220/220
f 223/223 224/224 221/221
f 222/222 221/221 224/224
f 227/227 228/228 225/225
f 226/226 225/225 228/228
f 229/229 230/230 227/227
f 228/228 227/227 230/230
f 231/231 232/232 229/229
f 230/230 229/229 232/232
f 233/233 234/234 231/231
f 232/232 231/231 234/234
f 235/235 236/236 233/233
f 234/234 233/233 236/236
f 237/237 238/238 235/235
f 236/236 235/235 238/238
f 239/239 240/240 237/237
f 238/238 237/237 240/240
f 241/241 242/242 239/239
f 240/240 239/239 242/242
f 243/243 244/244 241/241
f 242/242 241/241 244/244
f 245/245 246/246 243/243
f 244/244 243/243 246/246
f 247/247 248/248 245/245
f 246/246 245/245 248/248
f 249/249 250/250 247/247
f 248/248 247/247 250/250
f 251/251 252/252 249/249
f 250/250 249/249 252/252
f 253/253 254/254 251/251
f 252/252 251/251 254/254
f 255/255 256/256 253/253
f 254/254 253/253 256/256
f 257/257 258/258 255/255
f 256/256 255/255 258/258
f 259/259 260/260 257/257
f 258/258 257/257 260/260
f 261/261 262/262 259/259
f 260/260 259/259 262/262
f 263/263 264/264 261/261
f 262/262 261/261 264/264
f 265/265 266/266 263/263
f 264/264 263/263 266/266
f 267/267 268/268 265/265
f 266/266 265/265 268/268
f 271/271 272/272 269/269
f 270/270 269/269 272/272
f 275/275 276/276 273/273
f 274/274 273/273 276/276
