# MOD converted: eff_s_destruct.mod
# 108 verts, 54 faces

v 0.963352 198.492386 0.696144
v 0.963352 198.899948 0.519707
v 1.268949 198.492386 0.519707
v 1.268949 198.899948 -0.000000
v 0.000000 0.369845 -0.224083
v 0.000000 0.369845 -0.089083
v 0.000000 0.369845 -0.359083
v 0.000000 0.504845 -0.224083
v 0.000000 0.504845 -0.089083
v 0.000000 0.504845 -0.359083
v 0.000000 0.639845 -0.224083
v 0.000000 0.639845 -0.089083
v 0.000000 0.639845 -0.224083
v 0.000000 0.504845 -0.224083
v 0.000000 0.369845 -0.359083
v 0.000000 0.504845 -0.224083
v 0.000000 0.504845 -0.224083
v 0.000000 0.639845 -0.224083
v 0.000000 0.504845 -0.089083
v 0.000000 0.504845 0.162818
v 79.784538 0.238293 0.097427
v 79.784538 -0.238300 0.097427
v 80.456062 0.238293 0.097427
v 80.456062 -0.238300 0.000000
v 0.963352 -0.643410 -212.063492
v 0.963352 -0.643410 -212.471054
v 1.268949 -0.819847 -212.063492
v 1.268949 -0.819847 -0.000000
v 0.963352 -0.643410 -423.721649
v 0.963352 -0.643410 -424.129181
v 1.268949 -0.819847 -423.721649
v 1.268949 -0.819847 -0.000000
v 0.963352 -0.643410 180.676895
v 0.963352 -0.643410 180.269333
v 1.268949 -0.819847 180.676895
v 1.268949 -0.819847 -0.000000
v 0.963352 -0.643410 361.759125
v 0.963352 -0.643410 361.351593
v 1.268949 -0.819847 361.759125
v 1.268949 -0.819847 -0.000000
v 0.963352 17.410124 0.519709
v 0.963352 17.817671 0.696146
v 1.268949 17.410124 0.696146
v 1.268949 17.817671 -0.000000
v 0.963352 379.574646 0.519707
v 0.963352 379.982178 0.696144
v 1.268949 379.574646 0.696144
v 1.268949 379.982178 -0.000000
v 0.963352 -194.248001 0.519707
v 0.963352 -193.840439 0.696144
v 1.268949 -194.248001 0.696144
v 1.268949 -193.840439 -0.000000
v 0.963352 -0.819847 180.676895
v 0.963352 -0.819847 180.269333
v 1.268949 -0.643410 180.676895
v 1.268949 -0.643410 -0.000000
v 0.963352 -405.906128 0.519707
v 0.963352 -405.498596 0.696143
v 1.268949 -405.906128 0.696143
v 1.268949 -405.498596 -0.000000
v 79.784538 -0.000003 0.335724
v 79.784538 -0.000003 -0.140869
v 80.456062 -0.000004 0.335724
v 80.456062 -0.000004 0.000000
v 0.963352 17.410124 0.696146
v 0.963352 17.817671 0.519709
v 1.268949 17.410124 0.519709
v 1.268949 17.817671 -0.000000
v 0.963352 -405.906128 0.696144
v 0.963352 -405.498596 0.519708
v 1.268949 -405.906128 0.519708
v 1.268949 -405.498596 -0.000000
v 0.963352 -194.248001 0.696144
v 0.963352 -193.840439 0.519707
v 1.268949 -194.248001 0.519707
v 1.268949 -193.840439 -0.000000
v 0.963352 379.574646 0.696144
v 0.963352 379.982178 0.519707
v 1.268949 379.574646 0.519707
v 1.268949 379.982178 -0.000000
v 0.963352 198.492386 0.519707
v 0.963352 198.899948 0.696144
v 1.268949 198.492386 0.696144
v 1.268949 198.899948 -0.000000
v 0.963352 -0.819847 -423.721649
v 0.963352 -0.819847 -424.129181
v 1.268949 -0.643410 -423.721649
v 1.268949 -0.643410 -0.000000
v 0.963352 -0.819847 -212.063492
v 0.963352 -0.819847 -212.471054
v 1.268949 -0.643410 -212.063492
v 1.268949 -0.643410 -0.000000
v 0.963352 -0.819847 361.759125
v 0.963352 -0.819847 361.351593
v 1.268949 -0.643410 361.759125
v 1.268949 -0.643410 -0.000000
v 0.963352 -0.643410 180.676895
v 0.963352 -0.643410 180.269333
v 1.268949 -0.819847 180.676895
v 1.268949 -0.819847 -0.000000
v 0.000000 -12.551412 10.835160
v 0.000000 12.551237 -10.835445
v 0.000000 -12.551413 -10.835446
v 0.000000 12.551236 0.000000
v 0.000000 -14.198110 11.668473
v 0.000000 -14.198110 -11.668758
v 0.000000 14.197934 11.668473
v 0.000000 14.197934 0.000000

vt 0.673345 0.496315
vt 0.673345 1.000000
vt 1.000000 0.496315
vt 1.000000 1.000000
vt 0.994082 0.998174
vt 0.994082 0.837178
vt 0.994370 0.837182
vt 0.005308 0.998174
vt 0.005308 0.837178
vt 0.005318 0.837280
vt 0.994164 0.998298
vt 0.994164 0.837159
vt 0.994453 0.998305
vt 0.005318 0.998305
vt 0.994370 0.837280
vt 0.005387 0.998298
vt 0.005387 0.998314
vt 0.994453 0.998314
vt 0.005339 0.837159
vt 0.005339 1.000000
vt 0.671530 0.499439
vt 0.671530 1.000000
vt 0.998129 0.499439
vt 0.998129 1.000000
vt 0.673345 0.496315
vt 0.673345 1.000000
vt 1.000000 0.496315
vt 1.000000 1.000000
vt 0.673345 0.496315
vt 0.673345 1.000000
vt 1.000000 0.496315
vt 1.000000 1.000000
vt 0.673345 0.496315
vt 0.673345 1.000000
vt 1.000000 0.496315
vt 1.000000 1.000000
vt 0.673345 0.496315
vt 0.673345 1.000000
vt 1.000000 0.496315
vt 1.000000 1.000000
vt 0.673345 0.496315
vt 0.673345 1.000000
vt 1.000000 0.496315
vt 1.000000 1.000000
vt 0.673345 0.496315
vt 0.673345 1.000000
vt 1.000000 0.496315
vt 1.000000 1.000000
vt 0.673345 0.496315
vt 0.673345 1.000000
vt 1.000000 0.496315
vt 1.000000 1.000000
vt 0.673345 0.496315
vt 0.673345 1.000000
vt 1.000000 0.496315
vt 1.000000 1.000000
vt 0.673345 0.496315
vt 0.673345 1.000000
vt 1.000000 0.496315
vt 1.000000 1.000000
vt 0.671530 0.499439
vt 0.671530 1.000000
vt 0.998129 0.499439
vt 0.998129 1.000000
vt 0.673345 0.496315
vt 0.673345 1.000000
vt 1.000000 0.496315
vt 1.000000 1.000000
vt 0.673345 0.496315
vt 0.673345 1.000000
vt 1.000000 0.496315
vt 1.000000 1.000000
vt 0.673345 0.496315
vt 0.673345 1.000000
vt 1.000000 0.496315
vt 1.000000 1.000000
vt 0.673345 0.496315
vt 0.673345 1.000000
vt 1.000000 0.496315
vt 1.000000 1.000000
vt 0.673345 0.496315
vt 0.673345 1.000000
vt 1.000000 0.496315
vt 1.000000 1.000000
vt 0.673345 0.496315
vt 0.673345 1.000000
vt 1.000000 0.496315
vt 1.000000 1.000000
vt 0.673345 0.496315
vt 0.673345 1.000000
vt 1.000000 0.496315
vt 1.000000 1.000000
vt 0.673345 0.496315
vt 0.673345 1.000000
vt 1.000000 0.496315
vt 1.000000 1.000000
vt 0.673345 0.496315
vt 0.673345 1.000000
vt 1.000000 0.496315
vt 1.000000 1.000000
vt 0.000000 0.000000
vt 0.000000 1.000000
vt 1.000000 0.000000
vt 1.000000 1.000000
vt 0.000000 0.000000
vt 0.000000 1.000000
vt 1.000000 0.000000
vt 1.000000 1.000000

f 3/3 4/4 1/1
f 2/2 1/1 4/4
f 8/8 9/9 5/5
f 6/6 5/5 9/9
f 14/14 10/10 15/15
f 7/7 15/15 10/10
f 11/11 12/12 16/16
f 17/17 16/16 12/12
f 18/18 13/13 19/19
f 20/20 19/19 13/13
f 23/23 24/24 21/21
f 22/22 21/21 24/24
f 27/27 28/28 25/25
f 26/26 25/25 28/28
f 31/31 32/32 29/29
f 30/30 29/29 32/32
f 35/35 36/36 33/33
f 34/34 33/33 36/36
f 39/39 40/40 37/37
f 38/38 37/37 40/40
f 43/43 44/44 41/41
f 42/42 41/41 44/44
f 47/47 48/48 45/45
f 46/46 45/45 48/48
f 51/51 52/52 49/49
f 50/50 49/49 52/52
f 55/55 56/56 53/53
f 54/54 53/53 56/56
f 59/59 60/60 57/57
f 58/58 57/57 60/60
f 63/63 64/64 61/61
f 62/62 61/61 64/64
f 67/67 68/68 65/65
f 66/66 65/65 68/68
f 71/71 72/72 69/69
f 70/70 69/69 72/72
f 75/75 76/76 73/73
f 74/74 73/73 76/76
f 79/79 80/80 77/77
f 78/78 77/77 80/80
f 83/83 84/84 81/81
f 82/82 81/81 84/84
f 87/87 88/88 85/85
f 86/86 85/85 88/88
f 91/91 92/92 89/89
f 90/90 89/89 92/92
f 95/95 96/96 93/93
f 94/94 93/93 96/96
f 99/99 100/100 97/97
f 98/98 97/97 100/100
f 103/103 104/104 101/101
f 102/102 101/101 104/104
f 107/107 108/108 105/105
f 106/106 105/105 108/108
