# MOD converted: eff_s_2410.mod
# 52 verts, 22 faces

v 80.225220 103.940453 19.780830
v 80.225220 103.854279 19.794317
v 80.228958 103.940453 19.780830
v 80.228958 103.854279 0.761125
v 153.600815 51.041046 14.647182
v 153.586517 50.991798 14.646845
v 153.602921 51.040436 14.647226
v 153.588623 50.991188 0.761125
v 80.225220 104.518356 -117.806389
v 80.225220 104.434097 -117.828934
v 80.228958 104.518356 -117.806389
v 80.228958 104.434097 0.761125
v 80.227089 104.517868 -117.808197
v 80.227089 104.433617 -117.827126
v 80.227089 104.518837 -117.804581
v 80.227089 104.434578 0.761125
v 14.722316 102.164009 -28.296391
v 14.731230 102.113510 -28.296726
v 14.724480 102.164391 -28.296345
v 14.733393 102.113892 0.761125
v 80.227089 103.941498 -28.298237
v 80.227089 103.854279 -28.294498
v 80.227089 103.941498 -28.294498
v 80.227089 103.854279 0.761125
v 80.225220 103.941498 -28.296368
v 80.225220 103.854279 -28.296368
v 80.228958 103.941498 -28.296368
v 80.228958 103.854279 0.761125
v 80.417351 -6.951089 -28.162325
v 80.417351 -81.401703 -28.162319
v 106.863075 -6.951086 -28.162321
v 53.971634 -6.951118 -1.716602
v 80.417351 -6.951097 -54.608044
v 80.417351 -6.951089 -28.162325
v 80.417351 -81.401703 -28.162325
v 80.417351 -81.401703 -28.162319
v 106.863075 -6.951086 -1.716602
v 80.417351 -6.951097 -28.162321
v 53.971634 -6.951118 -28.162325
v 80.417351 -81.401703 0.083620
v 80.417351 -6.951089 -28.162325
v 80.417351 -81.401703 -28.162319
v 106.863075 -6.951086 -28.162321
v 53.971634 -6.951118 -1.716602
v 80.417351 -6.951097 -54.608044
v 80.417351 -6.951089 -28.162325
v 80.417351 -81.401703 -28.162325
v 80.417351 -81.401703 -28.162319
v 106.863075 -6.951086 -1.716602
v 80.417351 -6.951097 -28.162321
v 53.971634 -6.951118 -28.162325
v 80.417351 -81.401703 0.083620

vt -0.002993 0.238875
vt 1.000000 0.761125
vt -0.002993 0.761125
vt 1.000000 1.000000
vt -0.002993 0.238875
vt 1.000000 0.761125
vt -0.002993 0.761125
vt 1.000000 1.000000
vt -0.002993 0.238875
vt 1.000000 0.761125
vt -0.002993 0.761125
vt 1.000000 1.000000
vt -0.002993 0.238875
vt 1.000000 0.761125
vt -0.002993 0.761125
vt 1.000000 1.000000
vt -0.002993 0.238875
vt 1.000000 0.761125
vt -0.002993 0.761125
vt 1.000000 1.000000
vt -0.002993 0.238875
vt 1.000000 0.761125
vt -0.002993 0.761125
vt 1.000000 1.000000
vt -0.002993 0.238875
vt 1.000000 0.761125
vt -0.002993 0.761125
vt 1.000000 1.000000
vt 0.945461 0.918163
vt 0.934241 0.926191
vt 0.942191 0.926173
vt 0.942180 0.929462
vt 0.932380 0.916362
vt 0.945450 0.918145
vt 0.934230 0.918163
vt 0.934241 0.926191
vt 0.942191 0.929462
vt 0.932380 0.926191
vt 0.942191 0.918163
vt 0.934241 1.000000
vt 0.945461 0.918163
vt 0.934241 0.926191
vt 0.942191 0.926173
vt 0.942180 0.929462
vt 0.932380 0.916362
vt 0.945450 0.918145
vt 0.934230 0.918163
vt 0.934241 0.926191
vt 0.942191 0.929462
vt 0.932380 0.926191
vt 0.942191 0.918163
vt 0.934241 1.000000

f 3/3 4/4 1/1
f 2/2 1/1 4/4
f 7/7 8/8 5/5
f 6/6 5/5 8/8
f 11/11 12/12 9/9
f 10/10 9/9 12/12
f 15/15 16/16 13/13
f 14/14 13/13 16/16
f 19/19 20/20 17/17
f 18/18 17/17 20/20
f 23/23 24/24 21/21
f 22/22 21/21 24/24
f 27/27 28/28 25/25
f 26/26 25/25 28/28
f 29/29 31/31 30/30
f 34/34 35/35 32/32
f 33/33 36/36 37/37
f 38/38 39/39 40/40
f 41/41 43/43 42/42
f 46/46 47/47 44/44
f 45/45 48/48 49/49
f 50/50 51/51 52/52
