# MOD converted: eff_s_1531.mod
# 20 verts, 10 faces

v -64.784874 0.000002 158.210938
v -64.784874 0.000002 -149.347961
v 266.689728 -0.000010 158.210938
v 266.689728 -0.000010 0.000000
v 150.706619 -114.851013 -91.018204
v 21.536085 -39.254482 96.623184
v 167.745636 30.616966 5.330191
v 38.575096 106.213493 -26.892166
v 90.316940 163.762634 134.667114
v -11.853086 16.237978 -129.062134
v 201.134811 -24.875494 32.497150
v 98.964783 -172.400146 111.697586
v 126.185005 45.820648 53.023895
v -10.164305 -47.455997 -47.418911
v 199.446030 38.818481 -106.092606
v 63.096718 -54.458164 -84.853462
v 6.984897 -4.318755 90.458450
v 6.984903 -4.318748 -84.853462
v 182.296814 -4.318768 90.458450
v 182.296829 -4.318761 0.000000

vt 0.000000 0.000000
vt 0.000000 1.000000
vt 1.000000 0.000000
vt 1.000000 1.000000
vt 0.000000 0.000000
vt 0.000000 1.000000
vt 1.000000 0.000000
vt 1.000000 1.000000
vt 0.000000 0.000000
vt 0.000000 1.000000
vt 1.000000 0.000000
vt 1.000000 1.000000
vt 0.000000 0.000000
vt 0.000000 1.000000
vt 1.000000 0.000000
vt 1.000000 1.000000
vt 0.000000 0.000000
vt 0.000000 1.000000
vt 1.000000 0.000000
vt 1.000000 1.000000

f 3/3 4/4 1/1
f 2/2 1/1 4/4
f 7/7 8/8 5/5
f 6/6 5/5 8/8
f 11/11 12/12 9/9
f 10/10 9/9 12/12
f 15/15 16/16 13/13
f 14/14 13/13 16/16
f 19/19 20/20 17/17
f 18/18 17/17 20/20
