# MOD converted: eff_h_iceeps2.mod
# 356 verts, 98 faces

v 106.349129 1.383166 1.541897
v 106.349129 1.383166 1.291256
v 106.599770 1.383166 1.541897
v 106.599770 1.383166 0.871851
v 96.176796 2.466980 2.473013
v 96.159126 2.456791 2.442486
v 96.180687 2.445624 2.454630
v 96.163017 2.435434 2.402257
v 96.135963 2.535121 2.427301
v 96.099518 2.514108 2.364347
v 96.143990 2.491080 2.389390
v 96.107544 2.470067 2.357930
v 96.092293 2.534039 2.389390
v 96.107544 2.470067 2.473013
v 96.159126 2.456791 2.427301
v 96.099518 2.514108 2.454630
v 96.163017 2.435434 2.402257
v 96.135963 2.535121 2.442486
v 96.180687 2.445624 2.364347
v 96.143990 2.491080 2.460869
v 96.176796 2.466980 2.364347
v 96.143990 2.491080 2.357930
v 96.092293 2.534039 2.402257
v 96.135963 2.535121 2.357930
v 96.092293 2.534039 2.357930
v 96.092293 2.534039 2.389390
v 96.107544 2.470067 2.427301
v 96.099518 2.514108 0.093263
v 86.495743 37.698204 34.867817
v 86.495743 37.698204 34.833385
v 86.530167 37.698204 34.867817
v 86.530167 37.698204 0.000000
v 100.548401 -65.879189 -17.454533
v 100.548401 -65.879189 -17.520905
v 100.614777 -65.879189 -17.454533
v 100.614777 -65.879189 1.000000
v 136.643188 -46.408985 -0.747286
v 136.643188 -46.408985 -0.787244
v 136.683136 -46.408985 -0.747286
v 136.683136 -46.408985 0.000000
v 69.995018 41.813824 -28.972157
v 69.995018 41.813824 -29.042358
v 70.065224 41.813824 -28.972157
v 70.065224 41.813824 0.127148
v 70.067284 34.840832 36.562588
v 70.067284 34.840832 36.508251
v 70.121620 34.840832 36.562588
v 70.121620 34.840832 0.561628
v 95.570969 24.196682 -40.436649
v 95.570969 24.196682 -40.471081
v 95.605392 24.196682 -40.436649
v 95.605392 24.196682 0.000000
v 117.837807 16.693178 12.666604
v 117.837807 16.693178 12.482051
v 118.022362 16.693178 12.666604
v 118.022362 16.693178 0.871851
v 115.323647 -8.934122 21.687044
v 115.323647 -8.934122 21.502493
v 115.508202 -8.934122 21.687044
v 115.508202 -8.934122 0.871851
v 108.572517 1.383166 17.992638
v 108.572517 1.383166 17.775597
v 108.789558 1.383166 17.992638
v 108.789558 1.383166 0.871851
v 106.382172 -8.934122 1.508853
v 106.382172 -8.934122 1.324300
v 106.566727 -8.934122 1.508853
v 106.566727 -8.934122 0.871851
v 106.349129 1.383166 1.541897
v 106.349129 1.383166 1.291256
v 106.599770 1.383166 1.541897
v 106.599770 1.383166 0.871851
v 125.336609 -12.796871 -32.960571
v 125.336609 -12.796871 -32.995003
v 125.371033 -12.796871 -32.960571
v 125.371033 -12.796871 0.117640
v 77.291000 43.325798 7.005359
v 77.291000 43.325798 6.970929
v 77.325424 43.325798 7.005359
v 77.325424 43.325798 0.117640
v 86.495743 37.698204 34.867817
v 86.495743 37.698204 34.833385
v 86.530167 37.698204 34.867817
v 86.530167 37.698204 0.000000
v 136.643188 -46.408985 -0.747286
v 136.643188 -46.408985 -0.787244
v 136.683136 -46.408985 -0.747286
v 136.683136 -46.408985 0.000000
v 95.570969 24.196682 -40.436649
v 95.570969 24.196682 -40.471081
v 95.605392 24.196682 -40.436649
v 95.605392 24.196682 0.000000
v 100.548401 -65.879189 -17.454533
v 100.548401 -65.879189 -17.520905
v 100.614777 -65.879189 -17.454533
v 100.614777 -65.879189 1.000000
v 69.995018 41.813824 -28.972157
v 69.995018 41.813824 -29.042358
v 70.065224 41.813824 -28.972157
v 70.065224 41.813824 0.127148
v 141.540359 -53.845741 -39.179848
v 141.540359 -53.845741 -39.231834
v 141.592331 -53.845741 -39.179848
v 141.592331 -53.845741 0.000000
v 70.067284 34.840832 36.562588
v 70.067284 34.840832 36.508251
v 70.121620 34.840832 36.562588
v 70.121620 34.840832 0.561628
v 111.376335 -13.650377 10.666003
v 111.376335 -13.650377 10.616094
v 111.426247 -13.650377 10.666003
v 111.426247 -13.650377 0.000000
v 110.021606 -5.136509 -55.293228
v 110.021606 -5.136509 -55.293289
v 110.021667 -5.136509 -55.293228
v 110.021667 -5.136509 0.798836
v 94.193359 15.813539 -31.086641
v 94.193359 15.813539 -31.212675
v 94.317261 15.813539 -31.086641
v 94.317261 15.813539 0.462963
v 78.371712 -8.636678 18.229906
v 78.371712 -8.636678 18.124308
v 78.475517 -8.636678 18.229906
v 78.475517 -8.636678 0.479688
v 88.808174 33.229919 10.069108
v 88.808174 33.229919 9.905272
v 88.969231 33.229919 10.069108
v 88.969231 33.229919 0.462963
v 77.937714 22.667953 -26.559872
v 77.937714 22.667953 -26.678822
v 78.054642 22.667953 -26.559872
v 78.054642 22.667953 0.462963
v 124.003532 5.365444 -21.267595
v 124.003532 5.365444 -21.373194
v 124.107338 5.365444 -21.267595
v 124.107338 5.365444 0.462963
v 22.222679 -20.573746 113.209625
v 22.222679 -20.573746 -50.625126
v 183.280609 -20.573753 113.209625
v 183.280609 -20.573753 0.250000
v 96.165154 2.446235 2.453672
v 96.166435 2.456507 2.461827
v 96.173378 2.445908 2.460824
v 96.174660 2.456180 2.501185
v 96.109421 2.446563 2.498057
v 96.113419 2.478604 2.523494
v 96.135086 2.445543 2.520365
v 96.139084 2.477584 2.533227
v 96.104919 2.466674 2.520365
v 96.139084 2.477584 2.453672
v 96.166435 2.456507 2.498057
v 96.113419 2.478604 2.460824
v 96.174660 2.456180 2.501185
v 96.109421 2.446563 2.461827
v 96.173378 2.445908 2.523494
v 96.135086 2.445543 2.454675
v 96.165154 2.446235 2.523494
v 96.135086 2.445543 2.533227
v 96.104919 2.466674 2.501185
v 96.109421 2.446563 2.533227
v 96.104919 2.466674 2.533227
v 96.104919 2.466674 2.520365
v 96.139084 2.477584 2.498057
v 96.113419 2.478604 0.093263
v 96.173553 2.456968 2.457684
v 96.183800 2.447073 2.457815
v 96.156013 2.455341 2.445997
v 96.166260 2.445447 2.543422
v 96.156273 2.407855 2.519051
v 96.177406 2.387450 2.519322
v 96.120094 2.404501 2.494951
v 96.141220 2.384097 2.556780
v 96.135796 2.362178 2.494951
v 96.141220 2.384097 2.457684
v 96.183800 2.447073 2.519051
v 96.177406 2.387450 2.445997
v 96.166260 2.445447 2.543422
v 96.156273 2.407855 2.457815
v 96.156013 2.455341 2.519322
v 96.120094 2.404501 2.469502
v 96.173553 2.456968 2.519322
v 96.120094 2.404501 2.556780
v 96.135796 2.362178 2.543422
v 96.156273 2.407855 2.556780
v 96.135796 2.362178 2.556780
v 96.135796 2.362178 2.494951
v 96.141220 2.384097 2.519051
v 96.177406 2.387450 0.093263
v 96.186829 2.454331 2.474126
v 96.180328 2.447159 2.441373
v 96.159485 2.455256 2.464762
v 96.152985 2.448084 2.451941
v 96.223305 2.572481 2.500174
v 96.209892 2.557690 2.432632
v 96.166916 2.574388 2.480865
v 96.153511 2.559598 2.471698
v 96.199722 2.636307 2.480865
v 96.153511 2.559598 2.474126
v 96.180328 2.447159 2.500174
v 96.209892 2.557690 2.464762
v 96.152985 2.448084 2.451941
v 96.223305 2.572481 2.441373
v 96.159485 2.455256 2.432632
v 96.166916 2.574388 2.450737
v 96.186829 2.454331 2.432632
v 96.166916 2.574388 2.471698
v 96.199722 2.636307 2.451941
v 96.223305 2.572481 2.471698
v 96.199722 2.636307 2.471698
v 96.199722 2.636307 2.480865
v 96.153511 2.559598 2.500174
v 96.209892 2.557690 0.093263
v 96.176422 2.452837 2.461387
v 96.172455 2.445578 2.454112
v 96.167358 2.456837 2.458036
v 96.163391 2.449578 2.526473
v 96.205467 2.514807 2.538713
v 96.193100 2.492163 2.516020
v 96.177200 2.527282 2.528260
v 96.164833 2.504638 2.556843
v 96.191605 2.534498 2.528260
v 96.164833 2.504638 2.461387
v 96.172455 2.445578 2.538713
v 96.193100 2.492163 2.458036
v 96.163391 2.449578 2.526473
v 96.205467 2.514807 2.454112
v 96.167358 2.456837 2.516020
v 96.177200 2.527282 2.457463
v 96.176422 2.452837 2.516020
v 96.177200 2.527282 2.556843
v 96.191605 2.534498 2.526473
v 96.205467 2.514807 2.556843
v 96.191605 2.534498 2.556843
v 96.191605 2.534498 2.528260
v 96.164833 2.504638 2.538713
v 96.193100 2.492163 0.093263
v 96.164612 2.452900 2.459293
v 96.161560 2.443268 2.456206
v 96.178253 2.459147 2.467052
v 96.175201 2.449515 2.362985
v 96.199020 2.412224 2.396817
v 96.189491 2.382180 2.387189
v 96.241585 2.431710 2.421021
v 96.232056 2.401665 2.364165
v 96.234856 2.388204 2.421021
v 96.232056 2.401665 2.459293
v 96.161560 2.443268 2.396817
v 96.189491 2.382180 2.467052
v 96.175201 2.449515 2.362985
v 96.199020 2.412224 2.456206
v 96.178253 2.459147 2.387189
v 96.241585 2.431710 2.448447
v 96.164612 2.452900 2.387189
v 96.241585 2.431710 2.364165
v 96.234856 2.388204 2.362985
v 96.199020 2.412224 2.364165
v 96.234856 2.388204 2.364165
v 96.234856 2.388204 2.421021
v 96.232056 2.401665 2.396817
v 96.189491 2.382180 0.093263
v 96.162796 2.454623 2.453398
v 96.167984 2.444145 2.462101
v 96.171829 2.458270 2.460947
v 96.177017 2.447792 2.385014
v 96.189087 2.489281 2.381414
v 96.205284 2.456595 2.408560
v 96.217270 2.500655 2.404960
v 96.233467 2.467970 2.368413
v 96.228798 2.490235 2.404960
v 96.233467 2.467970 2.453398
v 96.167984 2.444145 2.381414
v 96.205284 2.456595 2.460947
v 96.177017 2.447792 2.385014
v 96.189087 2.489281 2.462101
v 96.171829 2.458270 2.408560
v 96.217270 2.500655 2.454552
v 96.162796 2.454623 2.408560
v 96.217270 2.500655 2.368413
v 96.228798 2.490235 2.385014
v 96.189087 2.489281 2.368413
v 96.228798 2.490235 2.368413
v 96.228798 2.490235 2.404960
v 96.233467 2.467970 2.381414
v 96.205284 2.456595 0.093263
v 96.169502 2.451843 2.458113
v 96.165161 2.447511 2.457386
v 96.174652 2.454903 2.451770
v 96.170311 2.450572 2.469384
v 96.133797 2.497264 2.451867
v 96.120239 2.483754 2.449598
v 96.149849 2.506812 2.432081
v 96.136292 2.493302 2.447761
v 96.120285 2.513945 2.432081
v 96.136292 2.493302 2.458113
v 96.165161 2.447511 2.451867
v 96.120239 2.483754 2.451770
v 96.170311 2.450572 2.469384
v 96.133797 2.497264 2.457386
v 96.174652 2.454903 2.449598
v 96.149849 2.506812 2.463729
v 96.169502 2.451843 2.449598
v 96.149849 2.506812 2.447761
v 96.120285 2.513945 2.469384
v 96.133797 2.497264 2.447761
v 96.120285 2.513945 2.447761
v 96.120285 2.513945 2.432081
v 96.136292 2.493302 2.451867
v 96.120239 2.483754 0.093263
v 96.169334 2.458261 2.462129
v 96.163139 2.454183 2.453370
v 96.176674 2.448232 2.462622
v 96.170479 2.444154 2.392151
v 96.118423 2.434367 2.421011
v 96.099098 2.421648 2.393689
v 96.141312 2.403084 2.422550
v 96.121986 2.390364 2.386011
v 96.099159 2.395920 2.422550
v 96.121986 2.390364 2.462129
v 96.163139 2.454183 2.421011
v 96.099098 2.421648 2.462622
v 96.170479 2.444154 2.392151
v 96.118423 2.434367 2.453370
v 96.176674 2.448232 2.393689
v 96.141312 2.403084 2.452877
v 96.169334 2.458261 2.393689
v 96.141312 2.403084 2.386011
v 96.099159 2.395920 2.392151
v 96.118423 2.434367 2.386011
v 96.099159 2.395920 2.386011
v 96.099159 2.395920 2.422550
v 96.121986 2.390364 2.421011
v 96.099098 2.421648 0.093263
v 96.170662 2.441281 2.461079
v 96.160103 2.448625 2.454420
v 96.179710 2.453790 2.461590
v 96.169151 2.461134 2.533293
v 96.210152 2.389279 2.555656
v 96.177216 2.412186 2.534885
v 96.238365 2.428298 2.557249
v 96.205429 2.451205 2.582328
v 96.223831 2.407131 2.557249
v 96.205429 2.451205 2.461079
v 96.160103 2.448625 2.555656
v 96.177216 2.412186 2.461590
v 96.169151 2.461134 2.533293
v 96.210152 2.389279 2.454420
v 96.179710 2.453790 2.534885
v 96.238365 2.428298 2.453910
v 96.170662 2.441281 2.534885
v 96.238365 2.428298 2.582328
v 96.223831 2.407131 2.533293
v 96.210152 2.389279 2.582328
v 96.223831 2.407131 2.582328
v 96.223831 2.407131 2.557249
v 96.205429 2.451205 2.555656
v 96.177216 2.412186 0.093263

vt 0.243702 0.121851
vt 0.243702 0.128149
vt 0.256298 0.121851
vt 0.256298 1.000000
vt 0.000499 0.093263
vt 0.000499 0.093263
vt 0.000499 0.093262
vt 0.000499 0.938158
vt 0.702337 0.061842
vt 0.702337 0.061842
vt 0.702337 0.938158
vt 0.702337 0.500000
vt 0.938707 0.061842
vt 0.702337 0.906737
vt 0.000499 0.938158
vt 0.702337 0.906737
vt 0.000499 0.061842
vt 0.702337 0.906738
vt 0.000499 0.938158
vt 0.702337 0.093263
vt 0.000499 0.938158
vt 0.702337 0.500000
vt 0.938707 0.061842
vt 0.702337 0.500000
vt 0.938707 0.500000
vt 0.938707 0.061842
vt 0.702337 0.938158
vt 0.702337 1.000000
vt 0.000000 0.000000
vt 0.000000 1.000000
vt 1.000000 0.000000
vt 1.000000 1.000000
vt -0.000000 -0.000000
vt 1.000000 1.000000
vt 0.000000 1.000000
vt 1.000000 1.000000
vt 0.000000 0.000000
vt 0.000000 1.000000
vt 1.000000 0.000000
vt 1.000000 1.000000
vt 0.962629 0.962630
vt 0.127148 0.037371
vt 0.872853 0.127148
vt 0.037370 1.000000
vt -0.204416 -0.204416
vt 0.561628 1.204416
vt 0.438372 0.561628
vt 1.204416 1.000000
vt 0.000000 0.000000
vt 0.000000 1.000000
vt 1.000000 0.000000
vt 1.000000 1.000000
vt 0.243702 0.121851
vt 0.243702 0.128149
vt 0.256298 0.121851
vt 0.256298 1.000000
vt 0.243702 0.121851
vt 0.243702 0.128149
vt 0.256298 0.121851
vt 0.256298 1.000000
vt 0.243702 0.121851
vt 0.243702 0.128149
vt 0.256298 0.121851
vt 0.256298 1.000000
vt 0.243702 0.121851
vt 0.243702 0.128149
vt 0.256298 0.121851
vt 0.256298 1.000000
vt 0.243702 0.121851
vt 0.243702 0.128149
vt 0.256298 0.121851
vt 0.256298 1.000000
vt 0.203211 0.684806
vt 0.166433 0.813707
vt 0.381738 0.684806
vt 0.322893 1.000000
vt 0.203211 0.684806
vt 0.166433 0.813707
vt 0.381738 0.684806
vt 0.322893 1.000000
vt 0.000000 0.000000
vt 0.000000 1.000000
vt 1.000000 0.000000
vt 1.000000 1.000000
vt 0.000000 0.000000
vt 0.000000 1.000000
vt 1.000000 0.000000
vt 1.000000 1.000000
vt 0.000000 0.000000
vt 0.000000 1.000000
vt 1.000000 0.000000
vt 1.000000 1.000000
vt -0.000000 -0.000000
vt 1.000000 1.000000
vt 0.000000 1.000000
vt 1.000000 1.000000
vt 0.962629 0.962630
vt 0.127148 0.037371
vt 0.872853 0.127148
vt 0.037370 1.000000
vt 0.000000 0.000000
vt 0.000000 1.000000
vt 1.000000 0.000000
vt 1.000000 1.000000
vt -0.204416 -0.204416
vt 0.561628 1.204416
vt 0.438372 0.561628
vt 1.204416 1.000000
vt 0.000000 0.000000
vt 0.000000 1.000000
vt 1.000000 0.000000
vt 1.000000 1.000000
vt -0.140856 -0.140856
vt 0.798836 1.140856
vt 0.201164 0.798836
vt 1.140856 1.000000
vt 0.000000 0.287037
vt 0.000000 0.537037
vt 0.500000 0.287037
vt 0.500000 1.000000
vt 0.000000 0.270312
vt 0.000000 0.520312
vt 0.500000 0.270312
vt 0.500000 1.000000
vt 0.000000 0.287037
vt 0.000000 0.537037
vt 0.500000 0.287037
vt 0.500000 1.000000
vt 0.000000 0.287037
vt 0.000000 0.537037
vt 0.500000 0.287037
vt 0.500000 1.000000
vt 0.000000 0.287037
vt 0.000000 0.537037
vt 0.500000 0.287037
vt 0.500000 1.000000
vt 0.000000 0.500000
vt 0.000000 0.750000
vt 0.500000 0.500000
vt 0.500000 1.000000
vt 0.000499 0.093263
vt 0.000499 0.093263
vt 0.000499 0.093262
vt 0.000499 0.938158
vt 0.702337 0.061842
vt 0.702337 0.061842
vt 0.702337 0.938158
vt 0.702337 0.500000
vt 0.938707 0.061842
vt 0.702337 0.906737
vt 0.000499 0.938158
vt 0.702337 0.906737
vt 0.000499 0.061842
vt 0.702337 0.906738
vt 0.000499 0.938158
vt 0.702337 0.093263
vt 0.000499 0.938158
vt 0.702337 0.500000
vt 0.938707 0.061842
vt 0.702337 0.500000
vt 0.938707 0.500000
vt 0.938707 0.061842
vt 0.702337 0.938158
vt 0.702337 1.000000
vt 0.000499 0.093263
vt 0.000499 0.093263
vt 0.000499 0.093262
vt 0.000499 0.938158
vt 0.702337 0.061842
vt 0.702337 0.061842
vt 0.702337 0.938158
vt 0.702337 0.500000
vt 0.938707 0.061842
vt 0.702337 0.906737
vt 0.000499 0.938158
vt 0.702337 0.906737
vt 0.000499 0.061842
vt 0.702337 0.906738
vt 0.000499 0.938158
vt 0.702337 0.093263
vt 0.000499 0.938158
vt 0.702337 0.500000
vt 0.938707 0.061842
vt 0.702337 0.500000
vt 0.938707 0.500000
vt 0.938707 0.061842
vt 0.702337 0.938158
vt 0.702337 1.000000
vt 0.000499 0.093263
vt 0.000499 0.093263
vt 0.000499 0.093262
vt 0.000499 0.938158
vt 0.702337 0.061842
vt 0.702337 0.061842
vt 0.702337 0.938158
vt 0.702337 0.500000
vt 0.938707 0.061842
vt 0.702337 0.906737
vt 0.000499 0.938158
vt 0.702337 0.906737
vt 0.000499 0.061842
vt 0.702337 0.906738
vt 0.000499 0.938158
vt 0.702337 0.093263
vt 0.000499 0.938158
vt 0.702337 0.500000
vt 0.938707 0.061842
vt 0.702337 0.500000
vt 0.938707 0.500000
vt 0.938707 0.061842
vt 0.702337 0.938158
vt 0.702337 1.000000
vt 0.000499 0.093263
vt 0.000499 0.093263
vt 0.000499 0.093262
vt 0.000499 0.938158
vt 0.702337 0.061842
vt 0.702337 0.061842
vt 0.702337 0.938158
vt 0.702337 0.500000
vt 0.938707 0.061842
vt 0.702337 0.906737
vt 0.000499 0.938158
vt 0.702337 0.906737
vt 0.000499 0.061842
vt 0.702337 0.906738
vt 0.000499 0.938158
vt 0.702337 0.093263
vt 0.000499 0.938158
vt 0.702337 0.500000
vt 0.938707 0.061842
vt 0.702337 0.500000
vt 0.938707 0.500000
vt 0.938707 0.061842
vt 0.702337 0.938158
vt 0.702337 1.000000
vt 0.000499 0.093263
vt 0.000499 0.093263
vt 0.000499 0.093262
vt 0.000499 0.938158
vt 0.702337 0.061842
vt 0.702337 0.061842
vt 0.702337 0.938158
vt 0.702337 0.500000
vt 0.938707 0.061842
vt 0.702337 0.906737
vt 0.000499 0.938158
vt 0.702337 0.906737
vt 0.000499 0.061842
vt 0.702337 0.906738
vt 0.000499 0.938158
vt 0.702337 0.093263
vt 0.000499 0.938158
vt 0.702337 0.500000
vt 0.938707 0.061842
vt 0.702337 0.500000
vt 0.938707 0.500000
vt 0.938707 0.061842
vt 0.702337 0.938158
vt 0.702337 1.000000
vt 0.000499 0.093263
vt 0.000499 0.093263
vt 0.000499 0.093262
vt 0.000499 0.938158
vt 0.702337 0.061842
vt 0.702337 0.061842
vt 0.702337 0.938158
vt 0.702337 0.500000
vt 0.938707 0.061842
vt 0.702337 0.906737
vt 0.000499 0.938158
vt 0.702337 0.906737
vt 0.000499 0.061842
vt 0.702337 0.906738
vt 0.000499 0.938158
vt 0.702337 0.093263
vt 0.000499 0.938158
vt 0.702337 0.500000
vt 0.938707 0.061842
vt 0.702337 0.500000
vt 0.938707 0.500000
vt 0.938707 0.061842
vt 0.702337 0.938158
vt 0.702337 1.000000
vt 0.000499 0.093263
vt 0.000499 0.093263
vt 0.000499 0.093262
vt 0.000499 0.938158
vt 0.702337 0.061842
vt 0.702337 0.061842
vt 0.702337 0.938158
vt 0.702337 0.500000
vt 0.938707 0.061842
vt 0.702337 0.906737
vt 0.000499 0.938158
vt 0.702337 0.906737
vt 0.000499 0.061842
vt 0.702337 0.906738
vt 0.000499 0.938158
vt 0.702337 0.093263
vt 0.000499 0.938158
vt 0.702337 0.500000
vt 0.938707 0.061842
vt 0.702337 0.500000
vt 0.938707 0.500000
vt 0.938707 0.061842
vt 0.702337 0.938158
vt 0.702337 1.000000
vt 0.000499 0.093263
vt 0.000499 0.093263
vt 0.000499 0.093262
vt 0.000499 0.938158
vt 0.702337 0.061842
vt 0.702337 0.061842
vt 0.702337 0.938158
vt 0.702337 0.500000
vt 0.938707 0.061842
vt 0.702337 0.906737
vt 0.000499 0.938158
vt 0.702337 0.906737
vt 0.000499 0.061842
vt 0.702337 0.906738
vt 0.000499 0.938158
vt 0.702337 0.093263
vt 0.000499 0.938158
vt 0.702337 0.500000
vt 0.938707 0.061842
vt 0.702337 0.500000
vt 0.938707 0.500000
vt 0.938707 0.061842
vt 0.702337 0.938158
vt 0.702337 1.000000
vt 0.000499 0.093263
vt 0.000499 0.093263
vt 0.000499 0.093262
vt 0.000499 0.938158
vt 0.702337 0.061842
vt 0.702337 0.061842
vt 0.702337 0.938158
vt 0.702337 0.500000
vt 0.938707 0.061842
vt 0.702337 0.906737
vt 0.000499 0.938158
vt 0.702337 0.906737
vt 0.000499 0.061842
vt 0.702337 0.906738
vt 0.000499 0.938158
vt 0.702337 0.093263
vt 0.000499 0.938158
vt 0.702337 0.500000
vt 0.938707 0.061842
vt 0.702337 0.500000
vt 0.938707 0.500000
vt 0.938707 0.061842
vt 0.702337 0.938158
vt 0.702337 1.000000

f 3/3 4/4 1/1
f 2/2 1/1 4/4
f 11/11 17/17 12/12
f 17/17 11/11 7/7
f 5/5 14/14 15/15
f 16/16 15/15 14/14
f 31/31 32/32 29/29
f 30/30 29/29 32/32
f 35/35 36/36 33/33
f 34/34 33/33 36/36
f 39/39 40/40 37/37
f 38/38 37/37 40/40
f 43/43 44/44 41/41
f 42/42 41/41 44/44
f 47/47 48/48 45/45
f 46/46 45/45 48/48
f 51/51 52/52 49/49
f 50/50 49/49 52/52
f 55/55 56/56 53/53
f 54/54 53/53 56/56
f 59/59 60/60 57/57
f 58/58 57/57 60/60
f 63/63 64/64 61/61
f 62/62 61/61 64/64
f 67/67 68/68 65/65
f 66/66 65/65 68/68
f 71/71 72/72 69/69
f 70/70 69/69 72/72
f 75/75 76/76 73/73
f 74/74 73/73 76/76
f 79/79 80/80 77/77
f 78/78 77/77 80/80
f 83/83 84/84 81/81
f 82/82 81/81 84/84
f 87/87 88/88 85/85
f 86/86 85/85 88/88
f 91/91 92/92 89/89
f 90/90 89/89 92/92
f 95/95 96/96 93/93
f 94/94 93/93 96/96
f 99/99 100/100 97/97
f 98/98 97/97 100/100
f 103/103 104/104 101/101
f 102/102 101/101 104/104
f 107/107 108/108 105/105
f 106/106 105/105 108/108
f 111/111 112/112 109/109
f 110/110 109/109 112/112
f 115/115 116/116 113/113
f 114/114 113/113 116/116
f 119/119 120/120 117/117
f 118/118 117/117 120/120
f 123/123 124/124 121/121
f 122/122 121/121 124/124
f 127/127 128/128 125/125
f 126/126 125/125 128/128
f 131/131 132/132 129/129
f 130/130 129/129 132/132
f 135/135 136/136 133/133
f 134/134 133/133 136/136
f 139/139 140/140 137/137
f 138/138 137/137 140/140
f 147/147 153/153 148/148
f 153/153 147/147 143/143
f 141/141 150/150 151/151
f 152/152 151/151 150/150
f 171/171 177/177 172/172
f 177/177 171/171 167/167
f 165/165 174/174 175/175
f 176/176 175/175 174/174
f 195/195 201/201 196/196
f 201/201 195/195 191/191
f 189/189 198/198 199/199
f 200/200 199/199 198/198
f 219/219 225/225 220/220
f 225/225 219/219 215/215
f 213/213 222/222 223/223
f 224/224 223/223 222/222
f 243/243 249/249 244/244
f 249/249 243/243 239/239
f 237/237 246/246 247/247
f 248/248 247/247 246/246
f 267/267 273/273 268/268
f 273/273 267/267 263/263
f 261/261 270/270 271/271
f 272/272 271/271 270/270
f 291/291 297/297 292/292
f 297/297 291/291 287/287
f 285/285 294/294 295/295
f 296/296 295/295 294/294
f 315/315 321/321 316/316
f 321/321 315/315 311/311
f 309/309 318/318 319/319
f 320/320 319/319 318/318
f 339/339 345/345 340/340
f 345/345 339/339 335/335
f 333/333 342/342 343/343
f 344/344 343/343 342/342
