# MOD converted: eff_ex_del.mod
# 48 verts, 24 faces

v 93.348068 -0.469121 0.000000
v 93.348068 -0.469121 0.469120
v 93.348068 -0.469121 -0.469120
v 93.348068 -0.000000 0.000000
v 93.348068 -0.000000 0.469120
v 93.348068 -0.000000 -0.469120
v 93.348068 0.469120 0.000000
v 93.348068 0.469120 0.469120
v 93.348068 0.469120 0.000000
v 93.348068 -0.000000 0.000000
v 93.348068 -0.469121 -0.469120
v 93.348068 -0.000000 0.000000
v 93.348068 -0.000000 0.000000
v 93.348068 0.469120 0.000000
v 93.348068 -0.000000 0.469120
v 93.348068 -0.000000 0.508799
v 99.141342 -0.469120 0.000000
v 99.141342 -0.469120 0.469120
v 99.141342 -0.469120 -0.469120
v 99.141342 0.000001 0.000000
v 99.141342 0.000001 0.469120
v 99.141342 0.000001 -0.469120
v 99.141342 0.469121 0.000000
v 99.141342 0.469121 0.469120
v 99.141342 0.469121 0.000000
v 99.141342 0.000001 0.000000
v 99.141342 -0.469120 -0.469120
v 99.141342 0.000001 0.000000
v 99.141342 0.000001 0.000000
v 99.141342 0.469121 0.000000
v 99.141342 0.000001 0.469120
v 99.141342 0.000001 0.508799
v 95.591522 -0.469121 0.000000
v 95.591522 -0.469121 0.469120
v 95.591522 -0.469121 -0.469120
v 95.591522 -0.000000 0.000000
v 95.591522 -0.000000 0.469120
v 95.591522 -0.000000 -0.469120
v 95.591522 0.469120 0.000000
v 95.591522 0.469120 0.469120
v 95.591522 0.469120 0.000000
v 95.591522 -0.000000 0.000000
v 95.591522 -0.469121 -0.469120
v 95.591522 -0.000000 0.000000
v 95.591522 -0.000000 0.000000
v 95.591522 0.469120 0.000000
v 95.591522 -0.000000 0.469120
v 95.591522 -0.000000 0.508799

vt 0.367188 0.377920
vt 0.367188 0.491201
vt 0.367188 0.491201
vt 0.255859 0.377920
vt 0.255859 0.491201
vt 0.255859 0.491201
vt 0.367188 0.377920
vt 0.367188 0.491201
vt 0.367188 0.377920
vt 0.255859 0.377920
vt 0.367188 0.491201
vt 0.255859 0.377920
vt 0.255859 0.377920
vt 0.367188 0.377920
vt 0.255859 0.491201
vt 0.255859 1.000000
vt 0.367188 0.377920
vt 0.367188 0.491201
vt 0.367188 0.491201
vt 0.255859 0.377920
vt 0.255859 0.491201
vt 0.255859 0.491201
vt 0.367188 0.377920
vt 0.367188 0.491201
vt 0.367188 0.377920
vt 0.255859 0.377920
vt 0.367188 0.491201
vt 0.255859 0.377920
vt 0.255859 0.377920
vt 0.367188 0.377920
vt 0.255859 0.491201
vt 0.255859 1.000000
vt 0.367188 0.377920
vt 0.367188 0.491201
vt 0.367188 0.491201
vt 0.255859 0.377920
vt 0.255859 0.491201
vt 0.255859 0.491201
vt 0.367188 0.377920
vt 0.367188 0.491201
vt 0.367188 0.377920
vt 0.255859 0.377920
vt 0.367188 0.491201
vt 0.255859 0.377920
vt 0.255859 0.377920
vt 0.367188 0.377920
vt 0.255859 0.491201
vt 0.255859 1.000000

f 4/4 5/5 1/1
f 2/2 1/1 5/5
f 10/10 6/6 11/11
f 3/3 11/11 6/6
f 7/7 8/8 12/12
f 13/13 12/12 8/8
f 14/14 9/9 15/15
f 16/16 15/15 9/9
f 20/20 21/21 17/17
f 18/18 17/17 21/21
f 26/26 22/22 27/27
f 19/19 27/27 22/22
f 23/23 24/24 28/28
f 29/29 28/28 24/24
f 30/30 25/25 31/31
f 32/32 31/31 25/25
f 36/36 37/37 33/33
f 34/34 33/33 37/37
f 42/42 38/38 43/43
f 35/35 43/43 38/38
f 39/39 40/40 44/44
f 45/45 44/44 40/40
f 46/46 41/41 47/47
f 48/48 47/47 41/41
