# MOD converted: eff_poison_gas.mod
# 144 verts, 88 faces

v 155.137100 -51.403297 69.434975
v 155.137100 -51.403297 68.590569
v 155.491348 -51.403297 69.434975
v 155.491348 -51.403297 0.748971
v 19.472155 157.003540 192.270111
v 19.472155 157.003540 191.720093
v 19.577438 157.003540 192.270111
v 19.577438 157.003540 191.720093
v 19.682724 157.003540 192.270111
v 19.682724 157.003540 191.720093
v 19.788008 157.003540 192.270111
v 19.788008 157.003540 0.000000
v 19.472155 -67.148766 -243.367966
v 19.472155 -67.148766 -243.917984
v 19.577438 -67.148766 -243.367966
v 19.577438 -67.148766 -243.917984
v 19.682724 -67.148766 -243.367966
v 19.682724 -67.148766 -243.917984
v 19.788008 -67.148766 -243.367966
v 19.788008 -67.148766 0.000000
v 0.000000 -0.186649 89.474197
v 0.000000 -0.186649 88.474197
v 0.000000 0.813351 89.474197
v 0.000000 0.813351 0.000000
v 0.000000 158.128326 196.941376
v 0.000000 158.128326 195.941376
v 0.000000 159.128326 196.941376
v 0.000000 159.128326 0.000000
v 0.000000 -0.634220 -14.539219
v 0.000000 -0.634220 -15.539219
v 0.000000 0.365780 -14.539219
v 0.000000 0.365780 0.000000
v 0.000000 108.660507 -167.294037
v 0.000000 108.660507 -168.294037
v 0.000000 109.660507 -167.294037
v 0.000000 109.660507 0.000000
v 0.000000 -66.384872 -241.478790
v 0.000000 -66.384872 -242.478790
v 0.000000 -65.384872 -241.478790
v 0.000000 -65.384872 0.000000
v 0.000000 -66.384872 149.643341
v 0.000000 -66.384872 148.643341
v 0.000000 -65.384872 149.643341
v 0.000000 -65.384872 0.000000
v -9.583025 157.745483 195.150375
v -9.583025 157.647766 195.150375
v -8.676741 157.745483 195.150375
v -8.676741 157.647766 0.000000
v -9.583025 0.016003 88.587570
v -9.583025 -0.016040 88.587570
v -8.676741 0.016003 88.587570
v -8.676741 -0.016040 0.000000
v -9.583025 -66.328522 -241.516571
v -9.583025 -66.368805 -241.516571
v -8.676741 -66.328522 -241.516571
v -8.676741 -66.368805 0.000000
v -9.583025 108.754723 -166.399612
v -9.583025 108.685646 -166.399612
v -8.676741 108.754723 -166.399612
v -8.676741 108.685646 0.000000
v -9.583025 0.048833 -15.299835
v -9.583025 -0.048870 -15.299835
v -8.676741 0.048833 -15.299835
v -8.676741 -0.048870 0.000000
v -9.583025 -66.328522 149.082428
v -9.583025 -66.368805 149.082428
v -8.676741 -66.328522 149.082428
v -8.676741 -66.368805 0.000000
v 155.137115 73.831131 -47.706188
v 155.137115 73.831131 -48.550587
v 155.491364 73.831131 -47.706188
v 155.491364 73.831131 0.748971
v -9.583025 157.696625 195.199234
v -9.583025 157.696625 195.101517
v -8.676741 157.696625 195.199234
v -8.676741 157.696625 0.000000
v -9.583025 -0.000019 88.603592
v -9.583025 -0.000019 88.571548
v -8.676741 -0.000019 88.603592
v -8.676741 -0.000019 0.000000
v -9.583025 108.720184 -166.365082
v -9.583025 108.720184 -166.434143
v -8.676741 108.720184 -166.365082
v -8.676741 108.720184 0.000000
v -9.583025 -66.348663 -241.496429
v -9.583025 -66.348663 -241.536713
v -8.676741 -66.348663 -241.496429
v -8.676741 -66.348663 0.000000
v -9.583025 -66.348663 149.102570
v -9.583025 -66.348663 149.062286
v -8.676741 -66.348663 149.102570
v -8.676741 -66.348663 0.000000
v -9.583025 -0.000019 -15.250983
v -9.583025 -0.000019 -15.348687
v -8.676741 -0.000019 -15.250983
v -8.676741 -0.000019 0.000000
v 19.472155 -34.824043 -112.685463
v 19.472155 -34.824043 -113.235466
v 19.577438 -34.824043 -112.685463
v 19.577438 -34.824043 -113.235466
v 19.682724 -34.824043 -112.685463
v 19.682724 -34.824043 -113.235466
v 19.788008 -34.824043 -112.685463
v 19.788008 -34.824043 0.000000
v 19.472155 -34.824043 229.547943
v 19.472155 -34.824043 228.997925
v 19.577438 -34.824043 229.547943
v 19.577438 -34.824043 228.997925
v 19.682724 -34.824043 229.547943
v 19.682724 -34.824043 228.997925
v 19.788008 -34.824043 229.547943
v 19.788008 -34.824043 0.000000
v 23.045614 77.402634 -140.719849
v 23.045614 77.402634 -141.269867
v 23.150898 77.402634 -140.719849
v 23.150898 77.402634 -141.269867
v 23.256184 77.402634 -140.719849
v 23.256184 77.402634 -141.269867
v 23.361467 77.402634 -140.719849
v 23.361467 77.402634 0.000000
v 58.154896 -74.190674 123.923454
v 58.154896 -74.190674 123.373451
v 58.260178 -74.190674 123.923454
v 58.260178 -74.190674 123.373451
v 58.365463 -74.190674 123.923454
v 58.365463 -74.190674 123.373451
v 58.470745 -74.190674 123.923454
v 58.470745 -74.190674 0.000000
v 56.470356 137.276443 -172.650513
v 56.470356 137.276443 -173.200531
v 56.575638 137.276443 -172.650513
v 56.575638 137.276443 -173.200531
v 56.680923 137.276443 -172.650513
v 56.680923 137.276443 -173.200531
v 56.786205 137.276443 -172.650513
v 56.786205 137.276443 0.000000
v 118.474640 -0.000007 -5.570366
v 118.474640 -0.000007 -6.120369
v 118.579926 -0.000007 -5.570366
v 118.579926 -0.000007 -6.120369
v 118.685211 -0.000007 -5.570366
v 118.685211 -0.000007 -6.120369
v 118.790497 -0.000007 -5.570366
v 118.790497 -0.000007 0.000000

vt 0.000000 0.002432
vt 0.000000 0.251029
vt 0.499065 0.002432
vt 0.499065 1.000000
vt 0.750006 0.750299
vt 0.750006 1.000000
vt 0.989735 0.750299
vt 0.989735 1.000000
vt 0.996567 0.750299
vt 0.996567 1.000000
vt 1.000000 0.750299
vt 1.000000 1.000000
vt 0.750006 0.750299
vt 0.750006 1.000000
vt 0.989735 0.750299
vt 0.989735 1.000000
vt 0.996567 0.750299
vt 0.996567 1.000000
vt 1.000000 0.750299
vt 1.000000 1.000000
vt 0.000000 0.000000
vt 0.000000 1.000000
vt 1.000000 0.000000
vt 1.000000 1.000000
vt 0.000000 0.000000
vt 0.000000 1.000000
vt 1.000000 0.000000
vt 1.000000 1.000000
vt 0.000000 0.000000
vt 0.000000 1.000000
vt 1.000000 0.000000
vt 1.000000 1.000000
vt 0.000000 0.000000
vt 0.000000 1.000000
vt 1.000000 0.000000
vt 1.000000 1.000000
vt 0.000000 0.000000
vt 0.000000 1.000000
vt 1.000000 0.000000
vt 1.000000 1.000000
vt 0.000000 0.000000
vt 0.000000 1.000000
vt 1.000000 0.000000
vt 1.000000 1.000000
vt 0.000000 0.000000
vt 0.000000 1.000000
vt 1.000000 0.000000
vt 1.000000 1.000000
vt 0.000000 0.000000
vt 0.000000 1.000000
vt 1.000000 0.000000
vt 1.000000 1.000000
vt 0.000000 0.000000
vt 0.000000 1.000000
vt 1.000000 0.000000
vt 1.000000 1.000000
vt 0.000000 0.000000
vt 0.000000 1.000000
vt 1.000000 0.000000
vt 1.000000 1.000000
vt 0.000000 0.000000
vt 0.000000 1.000000
vt 1.000000 0.000000
vt 1.000000 1.000000
vt 0.000000 0.000000
vt 0.000000 1.000000
vt 1.000000 0.000000
vt 1.000000 1.000000
vt 0.000000 0.002432
vt 0.000000 0.251029
vt 0.499065 0.002432
vt 0.499065 1.000000
vt 0.000000 0.000000
vt 0.000000 1.000000
vt 1.000000 0.000000
vt 1.000000 1.000000
vt 0.000000 0.000000
vt 0.000000 1.000000
vt 1.000000 0.000000
vt 1.000000 1.000000
vt 0.000000 0.000000
vt 0.000000 1.000000
vt 1.000000 0.000000
vt 1.000000 1.000000
vt 0.000000 0.000000
vt 0.000000 1.000000
vt 1.000000 0.000000
vt 1.000000 1.000000
vt 0.000000 0.000000
vt 0.000000 1.000000
vt 1.000000 0.000000
vt 1.000000 1.000000
vt 0.000000 0.000000
vt 0.000000 1.000000
vt 1.000000 0.000000
vt 1.000000 1.000000
vt 0.750006 0.750299
vt 0.750006 1.000000
vt 0.989735 0.750299
vt 0.989735 1.000000
vt 0.996567 0.750299
vt 0.996567 1.000000
vt 1.000000 0.750299
vt 1.000000 1.000000
vt 0.750006 0.750299
vt 0.750006 1.000000
vt 0.989735 0.750299
vt 0.989735 1.000000
vt 0.996567 0.750299
vt 0.996567 1.000000
vt 1.000000 0.750299
vt 1.000000 1.000000
vt 0.750006 0.750299
vt 0.750006 1.000000
vt 0.989735 0.750299
vt 0.989735 1.000000
vt 0.996567 0.750299
vt 0.996567 1.000000
vt 1.000000 0.750299
vt 1.000000 1.000000
vt 0.750006 0.750299
vt 0.750006 1.000000
vt 0.989735 0.750299
vt 0.989735 1.000000
vt 0.996567 0.750299
vt 0.996567 1.000000
vt 1.000000 0.750299
vt 1.000000 1.000000
vt 0.750006 0.750299
vt 0.750006 1.000000
vt 0.989735 0.750299
vt 0.989735 1.000000
vt 0.996567 0.750299
vt 0.996567 1.000000
vt 1.000000 0.750299
vt 1.000000 1.000000
vt 0.750006 0.750299
vt 0.750006 1.000000
vt 0.989735 0.750299
vt 0.989735 1.000000
vt 0.996567 0.750299
vt 0.996567 1.000000
vt 1.000000 0.750299
vt 1.000000 1.000000

f 3/3 4/4 1/1
f 2/2 1/1 4/4
f 7/7 8/8 5/5
f 6/6 5/5 8/8
f 9/9 10/10 7/7
f 8/8 7/7 10/10
f 11/11 12/12 9/9
f 10/10 9/9 12/12
f 15/15 16/16 13/13
f 14/14 13/13 16/16
f 17/17 18/18 15/15
f 16/16 15/15 18/18
f 19/19 20/20 17/17
f 18/18 17/17 20/20
f 23/23 24/24 21/21
f 22/22 21/21 24/24
f 27/27 28/28 25/25
f 26/26 25/25 28/28
f 31/31 32/32 29/29
f 30/30 29/29 32/32
f 35/35 36/36 33/33
f 34/34 33/33 36/36
f 39/39 40/40 37/37
f 38/38 37/37 40/40
f 43/43 44/44 41/41
f 42/42 41/41 44/44
f 47/47 48/48 45/45
f 46/46 45/45 48/48
f 51/51 52/52 49/49
f 50/50 49/49 52/52
f 55/55 56/56 53/53
f 54/54 53/53 56/56
f 59/59 60/60 57/57
f 58/58 57/57 60/60
f 63/63 64/64 61/61
f 62/62 61/61 64/64
f 67/67 68/68 65/65
f 66/66 65/65 68/68
f 71/71 72/72 69/69
f 70/70 69/69 72/72
f 75/75 76/76 73/73
f 74/74 73/73 76/76
f 79/79 80/80 77/77
f 78/78 77/77 80/80
f 83/83 84/84 81/81
f 82/82 81/81 84/84
f 87/87 88/88 85/85
f 86/86 85/85 88/88
f 91/91 92/92 89/89
f 90/90 89/89 92/92
f 95/95 96/96 93/93
f 94/94 93/93 96/96
f 99/99 100/100 97/97
f 98/98 97/97 100/100
f 101/101 102/102 99/99
f 100/100 99/99 102/102
f 103/103 104/104 101/101
f 102/102 101/101 104/104
f 107/107 108/108 105/105
f 106/106 105/105 108/108
f 109/109 110/110 107/107
f 108/108 107/107 110/110
f 111/111 112/112 109/109
f 110/110 109/109 112/112
f 115/115 116/116 113/113
f 114/114 113/113 116/116
f 117/117 118/118 115/115
f 116/116 115/115 118/118
f 119/119 120/120 117/117
f 118/118 117/117 120/120
f 123/123 124/124 121/121
f 122/122 121/121 124/124
f 125/125 126/126 123/123
f 124/124 123/123 126/126
f 127/127 128/128 125/125
f 126/126 125/125 128/128
f 131/131 132/132 129/129
f 130/130 129/129 132/132
f 133/133 134/134 131/131
f 132/132 131/131 134/134
f 135/135 136/136 133/133
f 134/134 133/133 136/136
f 139/139 140/140 137/137
f 138/138 137/137 140/140
f 141/141 142/142 139/139
f 140/140 139/139 142/142
f 143/143 144/144 141/141
f 142/142 141/141 144/144
