# MOD converted: eff_main_slow.mod
# 28 verts, 14 faces

v -1.362104 -13.152514 46.611240
v -1.362104 -13.152514 -25.484602
v 70.733742 -13.152517 46.611240
v 70.733742 -13.152517 0.465911
v 9.677996 -2.011538 53.573036
v 9.677996 -2.011538 -1.186876
v 64.437912 -2.011540 53.573036
v 64.437912 -2.011540 0.131694
v 7.942866 -10.443825 52.942898
v 7.942866 -10.443825 -1.817014
v 62.702778 -10.443827 52.942898
v 62.702778 -10.443827 0.129193
v -0.314802 -2.011538 41.626137
v -0.314802 -2.011538 -13.133778
v 54.445110 -2.011540 41.626137
v 54.445110 -2.011540 0.131948
v 1.765858 -5.690167 37.295067
v 1.765858 -5.690167 -26.061470
v 65.122398 -5.690170 37.295067
v 65.122398 -5.690170 0.378734
v 2.247893 9.154034 42.173733
v 2.247893 9.154034 -29.922110
v 74.343735 9.154030 42.173733
v 74.343735 9.154030 0.375663
v 9.452017 3.728188 36.379383
v 9.452017 3.728188 -19.101135
v 64.932533 3.728185 36.379383
v 64.932533 3.728185 0.137571

vt 0.599001 0.522351
vt 0.599001 0.534089
vt 0.615234 0.522351
vt 0.615234 1.000000
vt 0.625000 0.772603
vt 0.625000 0.868306
vt 0.718750 0.772603
vt 0.718750 1.000000
vt 0.625000 0.775104
vt 0.625000 0.870807
vt 0.718750 0.775104
vt 0.718750 1.000000
vt 0.625000 0.772349
vt 0.625000 0.868052
vt 0.718750 0.772349
vt 0.718750 1.000000
vt 0.621094 0.517750
vt 0.621094 0.621266
vt 0.728516 0.517750
vt 0.728516 1.000000
vt 0.498047 0.520821
vt 0.498047 0.624337
vt 0.615234 0.520821
vt 0.615234 1.000000
vt 0.625000 0.766726
vt 0.625000 0.862429
vt 0.718750 0.766726
vt 0.718750 1.000000

f 3/3 4/4 1/1
f 2/2 1/1 4/4
f 7/7 8/8 5/5
f 6/6 5/5 8/8
f 11/11 12/12 9/9
f 10/10 9/9 12/12
f 15/15 16/16 13/13
f 14/14 13/13 16/16
f 19/19 20/20 17/17
f 18/18 17/17 20/20
f 23/23 24/24 21/21
f 22/22 21/21 24/24
f 27/27 28/28 25/25
f 26/26 25/25 28/28
