# MOD converted: n088_eff_01.mod
# 876 verts, 366 faces

v 529.337341 -19.519222 13.522831
v 529.337341 -19.519222 13.500238
v 529.359924 -19.519222 13.522831
v 529.359924 -19.519222 0.000000
v 509.363464 -22.351866 38.937759
v 509.363464 -22.351866 38.919670
v 509.381531 -22.351866 38.937759
v 509.381531 -22.351866 0.000000
v 564.308167 -16.465876 -19.946758
v 564.308167 -16.465876 -19.963161
v 564.324524 -16.465876 -19.946758
v 564.324524 -16.465876 0.000000
v 602.009277 -21.222027 17.320852
v 602.009277 -21.222027 17.303701
v 602.026367 -21.222027 17.320852
v 602.026367 -21.222027 0.000000
v 618.570557 -21.588198 -18.819422
v 618.570557 -21.588198 -18.837919
v 618.589111 -21.588198 -18.819422
v 618.589111 -21.588198 0.000000
v 549.206543 11.791286 23.954309
v 549.206543 11.791286 23.931314
v 549.229492 11.791286 23.954309
v 549.229492 11.791286 0.000000
v 500.323212 29.355730 30.136705
v 500.323212 29.355730 30.125174
v 500.334747 29.355730 30.136705
v 500.334747 29.355730 0.000000
v 568.808533 -16.465878 -19.947712
v 568.808533 -16.465878 -19.962208
v 568.823059 -16.465878 -19.947712
v 568.823059 -16.465878 0.000000
v 501.735809 -27.919596 -27.067144
v 501.735809 -27.919596 -27.079916
v 501.748566 -27.919596 -27.067144
v 501.748566 -27.919596 0.000000
v 468.129395 -22.351864 9.734912
v 468.129395 -22.351864 9.719672
v 468.144653 -22.351864 9.734912
v 468.144653 -22.351864 0.000000
v 608.207886 -7.300493 -29.823154
v 608.207886 -7.300493 -29.840096
v 608.224854 -7.300493 -29.823154
v 608.224854 -7.300493 0.000000
v 526.543579 -19.519220 10.213691
v 526.543579 -19.519220 10.194896
v 526.562378 -19.519220 10.213691
v 526.562378 -19.519220 0.000000
v 555.263184 -1.440687 24.457537
v 555.263184 -1.440687 24.441015
v 555.279663 -1.440687 24.457537
v 555.279663 -1.440687 0.000000
v 635.930237 17.900658 -41.028061
v 635.930237 17.900658 -41.041878
v 635.944031 17.900658 -41.028061
v 635.944031 17.900658 0.000000
v 572.921814 -10.355167 13.149251
v 572.921814 -10.355167 13.136405
v 572.934631 -10.355167 13.149251
v 572.934631 -10.355167 0.000000
v 556.437805 37.871910 -7.962582
v 556.437805 37.871910 -7.983574
v 556.458801 37.871910 -7.962582
v 556.458801 37.871910 0.000000
v 595.332275 40.395844 29.764605
v 595.332275 40.395844 29.750425
v 595.346436 40.395844 29.764605
v 595.346436 40.395844 0.000000
v 545.712219 10.263948 0.634327
v 545.712219 10.263948 0.617624
v 545.728943 10.263948 0.634327
v 545.728943 10.263948 0.000000
v 645.508240 -18.533516 -28.496080
v 645.508240 -18.533516 -28.524714
v 645.536926 -18.533516 -28.496080
v 645.536926 -18.533516 0.000000
v 636.548584 -27.155933 26.764345
v 636.548584 -27.155933 26.745756
v 636.567139 -27.155933 26.764345
v 636.567139 -27.155933 0.000000
v 634.937256 -22.573912 -8.389822
v 634.937256 -22.573912 -8.408060
v 634.955444 -22.573912 -8.389822
v 634.955444 -22.573912 0.000000
v 588.412354 -21.588194 -14.450085
v 588.412354 -21.588194 -14.470570
v 588.432861 -21.588194 -14.450085
v 588.432861 -21.588194 0.000000
v 642.934021 28.592047 -11.288151
v 642.934021 28.592047 -11.298744
v 642.944641 28.592047 -11.288151
v 642.944641 28.592047 0.000000
v 569.469543 -21.588194 7.043360
v 569.469543 -21.588194 7.032766
v 569.480164 -21.588194 7.043360
v 569.480164 -21.588194 0.000000
v 612.974182 36.061920 34.754196
v 612.974182 36.061920 34.737762
v 612.990662 36.061920 34.754196
v 612.990662 36.061920 0.000000
v 609.860962 -28.755922 -45.154953
v 609.860962 -28.755922 -45.170319
v 609.876343 -28.755922 -45.154953
v 609.876343 -28.755922 0.000000
v 604.803772 36.061924 24.390900
v 604.803772 36.061924 24.381760
v 604.812927 36.061924 24.390900
v 604.812927 36.061924 0.000000
v 626.252380 5.976148 -16.712494
v 626.252380 5.976148 -16.728016
v 626.267883 5.976148 -16.712494
v 626.267883 5.976148 0.000000
v 599.963074 10.403565 38.882725
v 599.963074 10.403565 38.870090
v 599.975647 10.403565 38.882725
v 599.975647 10.403565 0.000000
v 435.095764 -11.813188 26.260685
v 435.095764 -11.813188 26.258373
v 435.098083 -11.813188 26.260685
v 435.098083 -11.813188 0.000000
v 622.413025 23.826601 27.663797
v 622.413025 23.826601 27.655577
v 622.421204 23.826601 27.663797
v 622.421204 23.826601 0.000000
v 579.350769 -29.622396 -37.224899
v 579.350769 -29.622396 -37.243546
v 579.369446 -29.622396 -37.224899
v 579.369446 -29.622396 0.000000
v 644.801819 -3.115962 4.442288
v 644.801819 -3.115962 4.411149
v 644.832947 -3.115962 4.442288
v 644.832947 -3.115962 0.000000
v 618.190918 -21.222025 17.322659
v 618.190918 -21.222025 17.301895
v 618.211670 -21.222025 17.322659
v 618.211670 -21.222025 0.000000
v 627.121277 32.776566 -4.161840
v 627.121277 32.776566 -4.182832
v 627.142273 32.776566 -4.161840
v 627.142273 32.776566 0.000000
v 362.978149 24.589743 -27.548996
v 362.978149 -30.960125 28.000868
v 491.608765 24.589746 -27.549000
v 491.608765 -30.960121 -27.548998
v 362.978149 24.589745 28.000874
v 362.978149 -30.960119 -27.549002
v 491.608765 24.589741 28.000870
v 491.608765 -30.960125 0.225934
v 362.978149 36.094498 0.225942
v 362.978149 -42.464878 0.225930
v 491.608765 36.094498 0.225938
v 491.608765 -42.464878 -39.053753
v 362.978149 -3.185188 39.505623
v 362.978149 -3.185188 -39.053753
v 491.608765 -3.185191 39.505623
v 491.608765 -3.185191 0.000000
v 406.087616 -3.223588 0.234597
v 406.087616 -3.237175 0.201555
v 406.268585 -3.225149 0.230310
v 406.268585 -3.235615 0.215933
v 406.133942 -3.230382 0.251048
v 406.338776 -3.243163 0.246390
v 406.087616 -3.241467 0.266670
v 406.133942 -3.248849 0.286951
v 406.087616 -3.256231 0.282293
v 406.338776 -3.254535 0.165943
v 406.298126 -3.212187 0.164288
v 406.087616 -3.211585 0.171497
v 406.133942 -3.214209 0.178706
v 406.087616 -3.216832 0.177050
v 406.298126 -3.216230 0.274029
v 406.345764 -3.251527 0.272255
v 406.087616 -3.250881 0.279980
v 406.133942 -3.253693 0.287705
v 406.087616 -3.256505 0.285931
v 406.345764 -3.255859 0.192085
v 406.343872 -3.221702 0.187974
v 406.087616 -3.220206 0.205874
v 406.133942 -3.226721 0.223774
v 406.087616 -3.233236 0.219663
v 406.343872 -3.231740 0.237613
v 406.268585 -3.208335 0.239173
v 406.087616 -3.204048 0.232379
v 406.133942 -3.222713 0.225586
v 406.087616 -3.241377 0.227146
v 406.268585 -3.237090 0.219380
v 406.362366 -3.258427 0.221011
v 406.087616 -3.253948 0.213912
v 406.133942 -3.273450 0.206814
v 406.087616 -3.292953 0.208444
v 406.362366 -3.288474 0.249852
v 406.298126 -3.174707 0.250240
v 406.087616 -3.173643 0.248553
v 406.133942 -3.178277 0.246866
v 406.087616 -3.182911 0.247254
v 406.298126 -3.181846 0.211234
v 406.345764 -3.280809 0.211880
v 406.087616 -3.279035 0.209068
v 406.133942 -3.286760 0.206256
v 406.087616 -3.294485 0.206902
v 406.345764 -3.292711 0.241591
v 406.364197 -3.197404 0.243246
v 406.087616 -3.192857 0.236041
v 406.133942 -3.212654 0.228835
v 406.087616 -3.232451 0.230490
v 406.364197 -3.227904 0.184250
v 406.396759 -3.218851 0.183101
v 406.087616 -3.218432 0.188104
v 406.133942 -3.220253 0.193107
v 406.087616 -3.222074 0.191958
v 406.396759 -3.221656 0.244232
v 406.365234 -3.240682 0.242670
v 406.087616 -3.240114 0.249471
v 406.133942 -3.242589 0.256272
v 406.087616 -3.245064 0.254710
v 406.365234 -3.244496 0.245838
v 406.338776 -3.273655 0.244225
v 406.087616 -3.270195 0.251248
v 406.133942 -3.285257 0.258271
v 406.087616 -3.300318 0.256658
v 406.338776 -3.296859 0.206839
v 406.298126 -3.190022 0.206360
v 406.087616 -3.188995 0.208444
v 406.133942 -3.193464 0.210529
v 406.087616 -3.197934 0.210050
v 406.298126 -3.196907 0.220758
v 406.325256 -3.219870 0.219819
v 406.087616 -3.217857 0.223905
v 406.133942 -3.226620 0.227991
v 406.087616 -3.235383 0.227053
v 406.325256 -3.233370 0.189325
v 406.399567 -3.253086 0.192784
v 406.087616 -3.251472 0.177723
v 406.133942 -3.258496 0.162661
v 406.087616 -3.265519 0.166121
v 406.399567 -3.263906 0.272958
v 406.298126 -3.214087 0.273985
v 406.087616 -3.213608 0.269515
v 406.133942 -3.215692 0.265046
v 406.087616 -3.217777 0.266072
v 406.298126 -3.217298 0.243110
v 406.356415 -3.228005 0.245122
v 406.087616 -3.227067 0.236360
v 406.133942 -3.231153 0.227597
v 406.087616 -3.235239 0.229609
v 406.356415 -3.234301 0.197268
v 406.087616 -3.223588 0.215933
v 406.133942 -3.230382 0.234597
v 406.087616 -3.237175 0.230310
v 406.268585 -3.235615 0.201555
v 406.268585 -3.225149 0.246390
v 406.087616 -3.241467 0.266670
v 406.133942 -3.248849 0.286951
v 406.087616 -3.256231 0.282293
v 406.338776 -3.254535 0.251048
v 406.338776 -3.243163 0.164288
v 406.087616 -3.211585 0.171497
v 406.133942 -3.214209 0.178706
v 406.087616 -3.216832 0.177050
v 406.298126 -3.216230 0.165943
v 406.298126 -3.212187 0.272255
v 406.087616 -3.250881 0.279980
v 406.133942 -3.253693 0.287705
v 406.087616 -3.256505 0.285931
v 406.345764 -3.255859 0.274029
v 406.345764 -3.251527 0.187974
v 406.087616 -3.220206 0.205874
v 406.133942 -3.226721 0.223774
v 406.087616 -3.233236 0.219663
v 406.343872 -3.231740 0.192085
v 406.343872 -3.221702 0.239173
v 406.087616 -3.204048 0.232379
v 406.133942 -3.222713 0.225586
v 406.087616 -3.241377 0.227146
v 406.268585 -3.237090 0.237613
v 406.268585 -3.208335 0.221011
v 406.087616 -3.253948 0.213912
v 406.133942 -3.273450 0.206814
v 406.087616 -3.292953 0.208444
v 406.362366 -3.288474 0.219380
v 406.362366 -3.258427 0.250240
v 406.087616 -3.173643 0.248553
v 406.133942 -3.178277 0.246866
v 406.087616 -3.182911 0.247254
v 406.298126 -3.181846 0.249852
v 406.298126 -3.174707 0.211880
v 406.087616 -3.279035 0.209068
v 406.133942 -3.286760 0.206256
v 406.087616 -3.294485 0.206902
v 406.345764 -3.292711 0.211234
v 406.345764 -3.280809 0.243246
v 406.087616 -3.192857 0.236041
v 406.133942 -3.212654 0.228835
v 406.087616 -3.232451 0.230490
v 406.364197 -3.227904 0.241591
v 406.364197 -3.197404 0.183101
v 406.087616 -3.218432 0.188104
v 406.133942 -3.220253 0.193107
v 406.087616 -3.222074 0.191958
v 406.396759 -3.221656 0.184250
v 406.396759 -3.218851 0.242670
v 406.087616 -3.240114 0.249471
v 406.133942 -3.242589 0.256272
v 406.087616 -3.245064 0.254710
v 406.365234 -3.244496 0.244232
v 406.365234 -3.240682 0.244225
v 406.087616 -3.270195 0.251248
v 406.133942 -3.285257 0.258271
v 406.087616 -3.300318 0.256658
v 406.338776 -3.296859 0.245838
v 406.338776 -3.273655 0.206360
v 406.087616 -3.188995 0.208444
v 406.133942 -3.193464 0.210529
v 406.087616 -3.197934 0.210050
v 406.298126 -3.196907 0.206839
v 406.298126 -3.190022 0.219819
v 406.087616 -3.217857 0.223905
v 406.133942 -3.226620 0.227991
v 406.087616 -3.235383 0.227053
v 406.325256 -3.233370 0.220758
v 406.325256 -3.219870 0.192784
v 406.087616 -3.251472 0.177723
v 406.133942 -3.258496 0.162661
v 406.087616 -3.265519 0.166121
v 406.399567 -3.263906 0.189325
v 406.399567 -3.253086 0.273985
v 406.087616 -3.213608 0.269515
v 406.133942 -3.215692 0.265046
v 406.087616 -3.217777 0.266072
v 406.298126 -3.217298 0.272958
v 406.298126 -3.214087 0.245122
v 406.087616 -3.227067 0.236360
v 406.133942 -3.231153 0.227597
v 406.087616 -3.235239 0.229609
v 406.356415 -3.234301 0.243110
v 406.356415 -3.228005 0.534370
v 406.087616 -3.223588 0.234597
v 406.087616 -3.237175 0.201555
v 406.268585 -3.225149 0.230310
v 406.268585 -3.235615 0.215933
v 406.133942 -3.230382 0.251048
v 406.338776 -3.243163 0.246390
v 406.087616 -3.241467 0.266670
v 406.133942 -3.248849 0.286951
v 406.087616 -3.256231 0.282293
v 406.338776 -3.254535 0.165943
v 406.298126 -3.212187 0.164288
v 406.087616 -3.211585 0.171497
v 406.133942 -3.214209 0.178706
v 406.087616 -3.216832 0.177050
v 406.298126 -3.216230 0.274029
v 406.345764 -3.251527 0.272255
v 406.087616 -3.250881 0.279980
v 406.133942 -3.253693 0.287705
v 406.087616 -3.256505 0.285931
v 406.345764 -3.255859 0.192085
v 406.343872 -3.221702 0.187974
v 406.087616 -3.220206 0.205874
v 406.133942 -3.226721 0.223774
v 406.087616 -3.233236 0.219663
v 406.343872 -3.231740 0.237613
v 406.268585 -3.208335 0.239173
v 406.087616 -3.204048 0.232379
v 406.133942 -3.222713 0.225586
v 406.087616 -3.241377 0.227146
v 406.268585 -3.237090 0.219380
v 406.362366 -3.258427 0.221011
v 406.087616 -3.253948 0.213912
v 406.133942 -3.273450 0.206814
v 406.087616 -3.292953 0.208444
v 406.362366 -3.288474 0.249852
v 406.298126 -3.174707 0.250239
v 406.087616 -3.173643 0.248553
v 406.133942 -3.178277 0.246866
v 406.087616 -3.182911 0.247254
v 406.298126 -3.181846 0.211234
v 406.345764 -3.280809 0.211880
v 406.087616 -3.279035 0.209068
v 406.133942 -3.286760 0.206256
v 406.087616 -3.294485 0.206902
v 406.345764 -3.292711 0.241591
v 406.364197 -3.197404 0.243246
v 406.087616 -3.192857 0.236041
v 406.133942 -3.212654 0.228835
v 406.087616 -3.232451 0.230490
v 406.364197 -3.227904 0.184250
v 406.396759 -3.218851 0.183101
v 406.087616 -3.218432 0.188104
v 406.133942 -3.220253 0.193107
v 406.087616 -3.222074 0.191958
v 406.396759 -3.221656 0.244232
v 406.365234 -3.240682 0.242670
v 406.087616 -3.240114 0.249471
v 406.133942 -3.242589 0.256272
v 406.087616 -3.245064 0.254710
v 406.365234 -3.244496 0.245838
v 406.338776 -3.273655 0.244225
v 406.087616 -3.270195 0.251248
v 406.133942 -3.285257 0.258271
v 406.087616 -3.300318 0.256658
v 406.338776 -3.296859 0.206839
v 406.298126 -3.190022 0.206360
v 406.087616 -3.188995 0.208444
v 406.133942 -3.193464 0.210529
v 406.087616 -3.197934 0.210050
v 406.298126 -3.196907 0.220758
v 406.325256 -3.219870 0.219819
v 406.087616 -3.217857 0.223905
v 406.133942 -3.226620 0.227991
v 406.087616 -3.235383 0.227053
v 406.325256 -3.233370 0.189325
v 406.399567 -3.253086 0.192784
v 406.087616 -3.251472 0.177723
v 406.133942 -3.258496 0.162661
v 406.087616 -3.265519 0.166121
v 406.399567 -3.263906 0.272958
v 406.298126 -3.214087 0.273985
v 406.087616 -3.213608 0.269515
v 406.133942 -3.215692 0.265046
v 406.087616 -3.217776 0.266072
v 406.298126 -3.217298 0.243110
v 406.356415 -3.228005 0.245122
v 406.087616 -3.227067 0.236360
v 406.133942 -3.231153 0.227597
v 406.087616 -3.235239 0.229609
v 406.356415 -3.234301 0.197268
v 406.087616 -3.223588 0.215933
v 406.133942 -3.230382 0.234597
v 406.087616 -3.237175 0.230310
v 406.268585 -3.235615 0.201555
v 406.268585 -3.225149 0.246390
v 406.087616 -3.241467 0.266670
v 406.133942 -3.248849 0.286951
v 406.087616 -3.256231 0.282293
v 406.338776 -3.254535 0.251048
v 406.338776 -3.243163 0.164288
v 406.087616 -3.211585 0.171497
v 406.133942 -3.214209 0.178706
v 406.087616 -3.216832 0.177050
v 406.298126 -3.216230 0.165943
v 406.298126 -3.212187 0.272255
v 406.087616 -3.250881 0.279980
v 406.133942 -3.253693 0.287705
v 406.087616 -3.256505 0.285931
v 406.345764 -3.255859 0.274029
v 406.345764 -3.251527 0.187974
v 406.087616 -3.220206 0.205874
v 406.133942 -3.226721 0.223774
v 406.087616 -3.233236 0.219663
v 406.343872 -3.231740 0.192085
v 406.343872 -3.221702 0.239173
v 406.087616 -3.204048 0.232379
v 406.133942 -3.222713 0.225586
v 406.087616 -3.241377 0.227146
v 406.268585 -3.237090 0.237613
v 406.268585 -3.208335 0.221011
v 406.087616 -3.253948 0.213912
v 406.133942 -3.273450 0.206814
v 406.087616 -3.292953 0.208444
v 406.362366 -3.288474 0.219380
v 406.362366 -3.258427 0.250239
v 406.087616 -3.173643 0.248553
v 406.133942 -3.178277 0.246866
v 406.087616 -3.182911 0.247254
v 406.298126 -3.181846 0.249852
v 406.298126 -3.174707 0.211880
v 406.087616 -3.279035 0.209068
v 406.133942 -3.286760 0.206256
v 406.087616 -3.294485 0.206902
v 406.345764 -3.292711 0.211234
v 406.345764 -3.280809 0.243246
v 406.087616 -3.192857 0.236041
v 406.133942 -3.212654 0.228835
v 406.087616 -3.232451 0.230490
v 406.364197 -3.227904 0.241591
v 406.364197 -3.197404 0.183101
v 406.087616 -3.218432 0.188104
v 406.133942 -3.220253 0.193107
v 406.087616 -3.222074 0.191958
v 406.396759 -3.221656 0.184250
v 406.396759 -3.218851 0.242670
v 406.087616 -3.240114 0.249471
v 406.133942 -3.242589 0.256272
v 406.087616 -3.245064 0.254710
v 406.365234 -3.244496 0.244232
v 406.365234 -3.240682 0.244225
v 406.087616 -3.270195 0.251248
v 406.133942 -3.285257 0.258271
v 406.087616 -3.300318 0.256658
v 406.338776 -3.296859 0.245838
v 406.338776 -3.273655 0.206360
v 406.087616 -3.188995 0.208444
v 406.133942 -3.193464 0.210529
v 406.087616 -3.197934 0.210050
v 406.298126 -3.196907 0.206839
v 406.298126 -3.190022 0.219819
v 406.087616 -3.217857 0.223905
v 406.133942 -3.226620 0.227991
v 406.087616 -3.235383 0.227053
v 406.325256 -3.233370 0.220758
v 406.325256 -3.219870 0.192784
v 406.087616 -3.251472 0.177723
v 406.133942 -3.258496 0.162661
v 406.087616 -3.265519 0.166121
v 406.399567 -3.263906 0.189325
v 406.399567 -3.253086 0.273985
v 406.087616 -3.213608 0.269515
v 406.133942 -3.215692 0.265046
v 406.087616 -3.217776 0.266072
v 406.298126 -3.217298 0.272958
v 406.298126 -3.214087 0.245122
v 406.087616 -3.227067 0.236360
v 406.133942 -3.231153 0.227597
v 406.087616 -3.235239 0.229609
v 406.356415 -3.234301 0.243110
v 406.356415 -3.228005 0.589981
v 406.087616 -2.765709 0.482956
v 406.087616 -2.765709 0.447793
v 406.268585 -2.765709 0.478394
v 406.268585 -2.765709 0.463093
v 406.133942 -2.765709 0.500462
v 406.338776 -2.765709 0.495505
v 406.087616 -2.765709 0.517087
v 406.133942 -2.765709 0.538670
v 406.087616 -2.765709 0.533713
v 406.338776 -2.765709 0.409896
v 406.298126 -2.765709 0.408134
v 406.087616 -2.765709 0.415805
v 406.133942 -2.765709 0.423477
v 406.087616 -2.765709 0.421715
v 406.298126 -2.765709 0.524918
v 406.345764 -2.765709 0.523030
v 406.087616 -2.765709 0.531251
v 406.133942 -2.765709 0.539472
v 406.087616 -2.765709 0.537584
v 406.345764 -2.765709 0.437715
v 406.343872 -2.765709 0.433340
v 406.087616 -2.765709 0.452389
v 406.133942 -2.765709 0.471438
v 406.087616 -2.765709 0.467062
v 406.343872 -2.765709 0.475925
v 406.268585 -2.737576 0.475925
v 406.087616 -2.733014 0.475925
v 406.133942 -2.752877 0.475925
v 406.087616 -2.772739 0.475925
v 406.268585 -2.768177 0.475925
v 406.362366 -2.790884 0.475925
v 406.087616 -2.786117 0.475925
v 406.133942 -2.806871 0.475925
v 406.087616 -2.827625 0.475925
v 406.362366 -2.822858 0.475925
v 406.298126 -2.701790 0.475925
v 406.087616 -2.700658 0.475925
v 406.133942 -2.705589 0.475925
v 406.087616 -2.710521 0.475925
v 406.298126 -2.709388 0.475925
v 406.345764 -2.814702 0.475925
v 406.087616 -2.812813 0.475925
v 406.133942 -2.821034 0.475925
v 406.087616 -2.829256 0.475925
v 406.345764 -2.827367 0.475925
v 406.364197 -2.725944 0.475925
v 406.087616 -2.721105 0.475925
v 406.133942 -2.742172 0.475925
v 406.087616 -2.763240 0.475925
v 406.364197 -2.758401 0.429378
v 406.396759 -2.765709 0.428155
v 406.087616 -2.765709 0.433479
v 406.133942 -2.765709 0.438803
v 406.087616 -2.765709 0.437580
v 406.396759 -2.765709 0.493209
v 406.365234 -2.765709 0.491547
v 406.087616 -2.765709 0.498784
v 406.133942 -2.765709 0.506021
v 406.087616 -2.765709 0.504359
v 406.365234 -2.765709 0.505995
v 406.338776 -2.796144 0.503296
v 406.087616 -2.793445 0.515047
v 406.133942 -2.805196 0.526798
v 406.087616 -2.816947 0.524099
v 406.338776 -2.814248 0.440744
v 406.298126 -2.730892 0.439943
v 406.087616 -2.730092 0.443430
v 406.133942 -2.733579 0.446917
v 406.087616 -2.737066 0.446116
v 406.298126 -2.736265 0.464032
v 406.325256 -2.754180 0.462461
v 406.087616 -2.752610 0.469298
v 406.133942 -2.759447 0.476135
v 406.087616 -2.766284 0.474565
v 406.325256 -2.764713 0.445855
v 406.399567 -2.796144 0.448554
v 406.087616 -2.793445 0.436803
v 406.133942 -2.805196 0.425052
v 406.087616 -2.816947 0.427751
v 406.399567 -2.814248 0.511106
v 406.298126 -2.730892 0.511907
v 406.087616 -2.730092 0.508420
v 406.133942 -2.733579 0.504933
v 406.087616 -2.737066 0.505734
v 406.298126 -2.736265 0.487818
v 406.356415 -2.754180 0.489389
v 406.087616 -2.752610 0.482552
v 406.133942 -2.759447 0.475715
v 406.087616 -2.766284 0.477285
v 406.356415 -2.764713 0.443231
v 406.087616 -2.765709 0.463093
v 406.133942 -2.765709 0.482956
v 406.087616 -2.765709 0.478394
v 406.268585 -2.765709 0.447793
v 406.268585 -2.765709 0.495505
v 406.087616 -2.765709 0.517087
v 406.133942 -2.765709 0.538670
v 406.087616 -2.765709 0.533713
v 406.338776 -2.765709 0.500462
v 406.338776 -2.765709 0.408134
v 406.087616 -2.765709 0.415805
v 406.133942 -2.765709 0.423477
v 406.087616 -2.765709 0.421715
v 406.298126 -2.765709 0.409896
v 406.298126 -2.765709 0.523030
v 406.087616 -2.765709 0.531251
v 406.133942 -2.765709 0.539472
v 406.087616 -2.765709 0.537584
v 406.345764 -2.765709 0.524918
v 406.345764 -2.765709 0.433340
v 406.087616 -2.765709 0.452389
v 406.133942 -2.765709 0.471438
v 406.087616 -2.765709 0.467062
v 406.343872 -2.765709 0.437715
v 406.343872 -2.765709 0.475925
v 406.087616 -2.733014 0.475925
v 406.133942 -2.752877 0.475925
v 406.087616 -2.772739 0.475925
v 406.268585 -2.768177 0.475925
v 406.268585 -2.737576 0.475925
v 406.087616 -2.786117 0.475925
v 406.133942 -2.806871 0.475925
v 406.087616 -2.827625 0.475925
v 406.362366 -2.822858 0.475925
v 406.362366 -2.790884 0.475925
v 406.087616 -2.700658 0.475925
v 406.133942 -2.705589 0.475925
v 406.087616 -2.710521 0.475925
v 406.298126 -2.709388 0.475925
v 406.298126 -2.701790 0.475925
v 406.087616 -2.812813 0.475925
v 406.133942 -2.821034 0.475925
v 406.087616 -2.829256 0.475925
v 406.345764 -2.827367 0.475925
v 406.345764 -2.814702 0.475925
v 406.087616 -2.721105 0.475925
v 406.133942 -2.742172 0.475925
v 406.087616 -2.763240 0.475925
v 406.364197 -2.758401 0.475925
v 406.364197 -2.725944 0.428155
v 406.087616 -2.765709 0.433479
v 406.133942 -2.765709 0.438803
v 406.087616 -2.765709 0.437580
v 406.396759 -2.765709 0.429378
v 406.396759 -2.765709 0.491547
v 406.087616 -2.765709 0.498784
v 406.133942 -2.765709 0.506021
v 406.087616 -2.765709 0.504359
v 406.365234 -2.765709 0.493209
v 406.365234 -2.765709 0.503296
v 406.087616 -2.793445 0.515047
v 406.133942 -2.805196 0.526798
v 406.087616 -2.816947 0.524099
v 406.338776 -2.814248 0.505995
v 406.338776 -2.796144 0.439943
v 406.087616 -2.730092 0.443430
v 406.133942 -2.733579 0.446917
v 406.087616 -2.737066 0.446116
v 406.298126 -2.736265 0.440744
v 406.298126 -2.730892 0.462461
v 406.087616 -2.752610 0.469298
v 406.133942 -2.759447 0.476135
v 406.087616 -2.766284 0.474565
v 406.325256 -2.764713 0.464032
v 406.325256 -2.754180 0.448554
v 406.087616 -2.793445 0.436803
v 406.133942 -2.805196 0.425052
v 406.087616 -2.816947 0.427751
v 406.399567 -2.814248 0.445855
v 406.399567 -2.796144 0.511907
v 406.087616 -2.730092 0.508420
v 406.133942 -2.733579 0.504933
v 406.087616 -2.737066 0.505734
v 406.298126 -2.736265 0.511106
v 406.298126 -2.730892 0.489389
v 406.087616 -2.752610 0.482552
v 406.133942 -2.759447 0.475715
v 406.087616 -2.766284 0.477285
v 406.356415 -2.764713 0.487818
v 406.356415 -2.754180 0.573739
v 406.087616 -2.765709 0.482956
v 406.087616 -2.765709 0.447793
v 406.268585 -2.765709 0.478394
v 406.268585 -2.765709 0.463093
v 406.133942 -2.765709 0.500462
v 406.338776 -2.765709 0.495505
v 406.087616 -2.765709 0.517087
v 406.133942 -2.765709 0.538670
v 406.087616 -2.765709 0.533713
v 406.338776 -2.765709 0.409896
v 406.298126 -2.765709 0.408134
v 406.087616 -2.765709 0.415805
v 406.133942 -2.765709 0.423477
v 406.087616 -2.765709 0.421715
v 406.298126 -2.765709 0.524918
v 406.345764 -2.765709 0.523030
v 406.087616 -2.765709 0.531251
v 406.133942 -2.765709 0.539472
v 406.087616 -2.765709 0.537584
v 406.345764 -2.765709 0.437715
v 406.343872 -2.765709 0.433340
v 406.087616 -2.765709 0.452389
v 406.133942 -2.765709 0.471438
v 406.087616 -2.765709 0.467062
v 406.343872 -2.765709 0.475925
v 406.268585 -2.737576 0.475925
v 406.087616 -2.733014 0.475925
v 406.133942 -2.752877 0.475925
v 406.087616 -2.772739 0.475925
v 406.268585 -2.768177 0.475925
v 406.362366 -2.790884 0.475925
v 406.087616 -2.786117 0.475925
v 406.133942 -2.806871 0.475925
v 406.087616 -2.827625 0.475925
v 406.362366 -2.822858 0.475925
v 406.298126 -2.701790 0.475925
v 406.087616 -2.700658 0.475925
v 406.133942 -2.705589 0.475925
v 406.087616 -2.710521 0.475925
v 406.298126 -2.709388 0.475925
v 406.345764 -2.814702 0.475925
v 406.087616 -2.812813 0.475925
v 406.133942 -2.821034 0.475925
v 406.087616 -2.829256 0.475925
v 406.345764 -2.827367 0.475925
v 406.364197 -2.725944 0.475925
v 406.087616 -2.721105 0.475925
v 406.133942 -2.742172 0.475925
v 406.087616 -2.763240 0.475925
v 406.364197 -2.758401 0.429378
v 406.396759 -2.765709 0.428155
v 406.087616 -2.765709 0.433479
v 406.133942 -2.765709 0.438803
v 406.087616 -2.765709 0.437580
v 406.396759 -2.765709 0.493209
v 406.365234 -2.765709 0.491547
v 406.087616 -2.765709 0.498784
v 406.133942 -2.765709 0.506021
v 406.087616 -2.765709 0.504359
v 406.365234 -2.765709 0.505995
v 406.338776 -2.796144 0.503296
v 406.087616 -2.793445 0.515047
v 406.133942 -2.805196 0.526798
v 406.087616 -2.816947 0.524099
v 406.338776 -2.814248 0.440744
v 406.298126 -2.730892 0.439943
v 406.087616 -2.730092 0.443430
v 406.133942 -2.733579 0.446917
v 406.087616 -2.737066 0.446116
v 406.298126 -2.736265 0.464032
v 406.325256 -2.754180 0.462461
v 406.087616 -2.752610 0.469298
v 406.133942 -2.759447 0.476135
v 406.087616 -2.766284 0.474565
v 406.325256 -2.764713 0.445855
v 406.399567 -2.796144 0.448554
v 406.087616 -2.793445 0.436803
v 406.133942 -2.805196 0.425052
v 406.087616 -2.816947 0.427751
v 406.399567 -2.814248 0.511106
v 406.298126 -2.730893 0.511907
v 406.087616 -2.730092 0.508420
v 406.133942 -2.733579 0.504933
v 406.087616 -2.737066 0.505734
v 406.298126 -2.736265 0.487818
v 406.356415 -2.754180 0.489389
v 406.087616 -2.752610 0.482552
v 406.133942 -2.759447 0.475715
v 406.087616 -2.766284 0.477285
v 406.356415 -2.764713 0.443231
v 406.087616 -2.765709 0.463093
v 406.133942 -2.765709 0.482956
v 406.087616 -2.765709 0.478394
v 406.268585 -2.765709 0.447793
v 406.268585 -2.765709 0.495505
v 406.087616 -2.765709 0.517087
v 406.133942 -2.765709 0.538670
v 406.087616 -2.765709 0.533713
v 406.338776 -2.765709 0.500462
v 406.338776 -2.765709 0.408134
v 406.087616 -2.765709 0.415805
v 406.133942 -2.765709 0.423477
v 406.087616 -2.765709 0.421715
v 406.298126 -2.765709 0.409896
v 406.298126 -2.765709 0.523030
v 406.087616 -2.765709 0.531251
v 406.133942 -2.765709 0.539472
v 406.087616 -2.765709 0.537584
v 406.345764 -2.765709 0.524918
v 406.345764 -2.765709 0.433340
v 406.087616 -2.765709 0.452389
v 406.133942 -2.765709 0.471438
v 406.087616 -2.765709 0.467062
v 406.343872 -2.765709 0.437715
v 406.343872 -2.765709 0.475925
v 406.087616 -2.733014 0.475925
v 406.133942 -2.752877 0.475925
v 406.087616 -2.772739 0.475925
v 406.268585 -2.768177 0.475925
v 406.268585 -2.737576 0.475925
v 406.087616 -2.786117 0.475925
v 406.133942 -2.806871 0.475925
v 406.087616 -2.827625 0.475925
v 406.362366 -2.822858 0.475925
v 406.362366 -2.790884 0.475925
v 406.087616 -2.700658 0.475925
v 406.133942 -2.705589 0.475925
v 406.087616 -2.710521 0.475925
v 406.298126 -2.709388 0.475925
v 406.298126 -2.701790 0.475925
v 406.087616 -2.812813 0.475925
v 406.133942 -2.821034 0.475925
v 406.087616 -2.829256 0.475925
v 406.345764 -2.827367 0.475925
v 406.345764 -2.814702 0.475925
v 406.087616 -2.721105 0.475925
v 406.133942 -2.742172 0.475925
v 406.087616 -2.763240 0.475925
v 406.364197 -2.758401 0.475925
v 406.364197 -2.725944 0.428155
v 406.087616 -2.765709 0.433479
v 406.133942 -2.765709 0.438803
v 406.087616 -2.765709 0.437580
v 406.396759 -2.765709 0.429378
v 406.396759 -2.765709 0.491547
v 406.087616 -2.765709 0.498784
v 406.133942 -2.765709 0.506021
v 406.087616 -2.765709 0.504359
v 406.365234 -2.765709 0.493209
v 406.365234 -2.765709 0.503296
v 406.087616 -2.793445 0.515047
v 406.133942 -2.805196 0.526798
v 406.087616 -2.816947 0.524099
v 406.338776 -2.814248 0.505995
v 406.338776 -2.796144 0.439943
v 406.087616 -2.730092 0.443430
v 406.133942 -2.733579 0.446917
v 406.087616 -2.737066 0.446116
v 406.298126 -2.736265 0.440744
v 406.298126 -2.730892 0.462461
v 406.087616 -2.752610 0.469298
v 406.133942 -2.759447 0.476135
v 406.087616 -2.766284 0.474565
v 406.325256 -2.764713 0.464032
v 406.325256 -2.754180 0.448554
v 406.087616 -2.793445 0.436803
v 406.133942 -2.805196 0.425052
v 406.087616 -2.816947 0.427751
v 406.399567 -2.814248 0.445855
v 406.399567 -2.796144 0.511907
v 406.087616 -2.730092 0.508420
v 406.133942 -2.733579 0.504933
v 406.087616 -2.737066 0.505734
v 406.298126 -2.736265 0.511106
v 406.298126 -2.730893 0.489389
v 406.087616 -2.752610 0.482552
v 406.133942 -2.759447 0.475715
v 406.087616 -2.766284 0.477285
v 406.356415 -2.764713 0.487818
v 406.356415 -2.754180 0.249063

vt 0.000000 0.000000
vt 0.000000 1.000000
vt 1.000000 0.000000
vt 1.000000 1.000000
vt 0.000000 0.000000
vt 0.000000 1.000000
vt 1.000000 0.000000
vt 1.000000 1.000000
vt 0.000000 0.000000
vt 0.000000 1.000000
vt 1.000000 0.000000
vt 1.000000 1.000000
vt 0.000000 0.000000
vt 0.000000 1.000000
vt 1.000000 0.000000
vt 1.000000 1.000000
vt 0.000000 0.000000
vt 0.000000 1.000000
vt 1.000000 0.000000
vt 1.000000 1.000000
vt 0.000000 0.000000
vt 0.000000 1.000000
vt 1.000000 0.000000
vt 1.000000 1.000000
vt 0.000000 0.000000
vt 0.000000 1.000000
vt 1.000000 0.000000
vt 1.000000 1.000000
vt 0.000000 0.000000
vt 0.000000 1.000000
vt 1.000000 0.000000
vt 1.000000 1.000000
vt 0.000000 0.000000
vt 0.000000 1.000000
vt 1.000000 0.000000
vt 1.000000 1.000000
vt 0.000000 0.000000
vt 0.000000 1.000000
vt 1.000000 0.000000
vt 1.000000 1.000000
vt 0.000000 0.000000
vt 0.000000 1.000000
vt 1.000000 0.000000
vt 1.000000 1.000000
vt 0.000000 0.000000
vt 0.000000 1.000000
vt 1.000000 0.000000
vt 1.000000 1.000000
vt 0.000000 0.000000
vt 0.000000 1.000000
vt 1.000000 0.000000
vt 1.000000 1.000000
vt 0.000000 0.000000
vt 0.000000 1.000000
vt 1.000000 0.000000
vt 1.000000 1.000000
vt 0.000000 0.000000
vt 0.000000 1.000000
vt 1.000000 0.000000
vt 1.000000 1.000000
vt 0.000000 0.000000
vt 0.000000 1.000000
vt 1.000000 0.000000
vt 1.000000 1.000000
vt 0.000000 0.000000
vt 0.000000 1.000000
vt 1.000000 0.000000
vt 1.000000 1.000000
vt 0.000000 0.000000
vt 0.000000 1.000000
vt 1.000000 0.000000
vt 1.000000 1.000000
vt 0.000000 0.000000
vt 0.000000 1.000000
vt 1.000000 0.000000
vt 1.000000 1.000000
vt 0.000000 0.000000
vt 0.000000 1.000000
vt 1.000000 0.000000
vt 1.000000 1.000000
vt 0.000000 0.000000
vt 0.000000 1.000000
vt 1.000000 0.000000
vt 1.000000 1.000000
vt 0.000000 0.000000
vt 0.000000 1.000000
vt 1.000000 0.000000
vt 1.000000 1.000000
vt 0.000000 0.000000
vt 0.000000 1.000000
vt 1.000000 0.000000
vt 1.000000 1.000000
vt 0.000000 0.000000
vt 0.000000 1.000000
vt 1.000000 0.000000
vt 1.000000 1.000000
vt 0.000000 0.000000
vt 0.000000 1.000000
vt 1.000000 0.000000
vt 1.000000 1.000000
vt 0.000000 0.000000
vt 0.000000 1.000000
vt 1.000000 0.000000
vt 1.000000 1.000000
vt 0.000000 0.000000
vt 0.000000 1.000000
vt 1.000000 0.000000
vt 1.000000 1.000000
vt 0.000000 0.000000
vt 0.000000 1.000000
vt 1.000000 0.000000
vt 1.000000 1.000000
vt 0.000000 0.000000
vt 0.000000 1.000000
vt 1.000000 0.000000
vt 1.000000 1.000000
vt 0.000000 0.000000
vt 0.000000 1.000000
vt 1.000000 0.000000
vt 1.000000 1.000000
vt 0.000000 0.000000
vt 0.000000 1.000000
vt 1.000000 0.000000
vt 1.000000 1.000000
vt 0.000000 0.000000
vt 0.000000 1.000000
vt 1.000000 0.000000
vt 1.000000 1.000000
vt 0.000000 0.000000
vt 0.000000 1.000000
vt 1.000000 0.000000
vt 1.000000 1.000000
vt 0.000000 0.000000
vt 0.000000 1.000000
vt 1.000000 0.000000
vt 1.000000 1.000000
vt 0.000000 0.000000
vt 0.000000 1.000000
vt 1.000000 0.000000
vt 1.000000 1.000000
vt 0.334799 0.750000
vt 0.334799 1.000000
vt 0.667485 0.750000
vt 0.667485 1.000000
vt 0.334799 0.750000
vt 0.334799 1.000000
vt 0.667485 0.750000
vt 0.667485 1.000000
vt 0.334799 0.750000
vt 0.334799 1.000000
vt 0.667485 0.750000
vt 0.667485 1.000000
vt 0.334799 0.750000
vt 0.334799 1.000000
vt 0.667485 0.750000
vt 0.667485 1.000000
vt 0.041108 0.465630
vt 0.041108 0.553163
vt 0.041108 0.553163
vt 0.958431 0.509396
vt 0.499770 0.747734
vt 0.041108 0.660201
vt 0.041108 0.703968
vt 0.499770 0.660201
vt 0.041108 0.747734
vt 0.958431 0.747734
vt 0.041108 0.660201
vt 0.041108 0.703968
vt 0.499770 0.660201
vt 0.041108 0.747734
vt 0.958431 0.747734
vt 0.041108 0.660201
vt 0.041108 0.703968
vt 0.499770 0.660201
vt 0.041108 0.747734
vt 0.958431 0.747734
vt 0.041108 0.660201
vt 0.041108 0.703968
vt 0.499770 0.660201
vt 0.041108 0.747734
vt 0.958431 0.747734
vt 0.041108 0.660201
vt 0.041108 0.703968
vt 0.499770 0.660201
vt 0.041108 0.747734
vt 0.958431 0.747734
vt 0.041108 0.660201
vt 0.041108 0.703968
vt 0.499770 0.660201
vt 0.041108 0.747734
vt 0.958431 0.553163
vt 0.041108 0.465630
vt 0.041108 0.509396
vt 0.499770 0.465630
vt 0.041108 0.553163
vt 0.958431 0.276171
vt 0.041108 0.188638
vt 0.041108 0.232405
vt 0.499770 0.188638
vt 0.041108 0.276171
vt 0.958431 0.276171
vt 0.041108 0.188638
vt 0.041108 0.232405
vt 0.499770 0.188638
vt 0.041108 0.276171
vt 0.958431 0.747734
vt 0.041108 0.660201
vt 0.041108 0.703968
vt 0.499770 0.660201
vt 0.041108 0.747734
vt 0.958431 0.747734
vt 0.041108 0.660201
vt 0.041108 0.703968
vt 0.499770 0.660201
vt 0.041108 0.747734
vt 0.958431 0.553163
vt 0.041108 0.465630
vt 0.041108 0.509396
vt 0.499770 0.465630
vt 0.041108 0.553163
vt 0.958431 0.553163
vt 0.041108 0.465630
vt 0.041108 0.509396
vt 0.499770 0.465630
vt 0.041108 0.553163
vt 0.958431 0.276171
vt 0.041108 0.188638
vt 0.041108 0.232405
vt 0.499770 0.188638
vt 0.041108 0.276171
vt 0.958431 0.276171
vt 0.041108 0.188638
vt 0.041108 0.232405
vt 0.499770 0.188638
vt 0.041108 0.276171
vt 0.958431 0.276171
vt 0.041108 0.188638
vt 0.041108 0.232405
vt 0.499770 0.188638
vt 0.041108 0.276171
vt 0.958431 0.747734
vt 0.041108 0.660201
vt 0.041108 0.703968
vt 0.499770 0.660201
vt 0.041108 0.747734
vt 0.958431 0.553163
vt 0.041108 0.509396
vt 0.499769 0.465630
vt 0.958431 0.465630
vt 0.958431 0.553163
vt 0.958431 0.747734
vt 0.041108 0.703968
vt 0.499769 0.660201
vt 0.958431 0.660201
vt 0.958431 0.747734
vt 0.958431 0.747734
vt 0.041108 0.703968
vt 0.499769 0.660201
vt 0.958431 0.660201
vt 0.958431 0.747734
vt 0.958431 0.747734
vt 0.041108 0.703968
vt 0.499769 0.660201
vt 0.958431 0.660201
vt 0.958431 0.747734
vt 0.958431 0.747734
vt 0.041108 0.703968
vt 0.499769 0.660201
vt 0.958431 0.660201
vt 0.958431 0.747734
vt 0.958431 0.747734
vt 0.041108 0.703968
vt 0.499769 0.660201
vt 0.958431 0.660201
vt 0.958431 0.747734
vt 0.958431 0.747734
vt 0.041108 0.703968
vt 0.499769 0.660201
vt 0.958431 0.660201
vt 0.958431 0.747734
vt 0.958431 0.553163
vt 0.041108 0.509396
vt 0.499769 0.465630
vt 0.958431 0.465630
vt 0.958431 0.553163
vt 0.958431 0.276171
vt 0.041108 0.232405
vt 0.499769 0.188638
vt 0.958431 0.188638
vt 0.958431 0.276171
vt 0.958431 0.276171
vt 0.041108 0.232405
vt 0.499769 0.188638
vt 0.958431 0.188638
vt 0.958431 0.276171
vt 0.958431 0.747734
vt 0.041108 0.703968
vt 0.499769 0.660201
vt 0.958431 0.660201
vt 0.958431 0.747734
vt 0.958431 0.747734
vt 0.041108 0.703968
vt 0.499769 0.660201
vt 0.958431 0.660201
vt 0.958431 0.747734
vt 0.958431 0.553163
vt 0.041108 0.509396
vt 0.499769 0.465630
vt 0.958431 0.465630
vt 0.958431 0.553163
vt 0.958431 0.553163
vt 0.041108 0.509396
vt 0.499769 0.465630
vt 0.958431 0.465630
vt 0.958431 0.553163
vt 0.958431 0.276171
vt 0.041108 0.232405
vt 0.499769 0.188638
vt 0.958431 0.188638
vt 0.958431 0.276171
vt 0.958431 0.276171
vt 0.041108 0.232405
vt 0.499769 0.188638
vt 0.958431 0.188638
vt 0.958431 0.276171
vt 0.958431 0.276171
vt 0.041108 0.232405
vt 0.499769 0.188638
vt 0.958431 0.188638
vt 0.958431 0.276171
vt 0.958431 0.747734
vt 0.041108 0.703968
vt 0.499769 0.660201
vt 0.958431 0.660201
vt 0.958431 0.747734
vt 0.958431 1.000000
vt 0.037303 0.410019
vt 0.037303 0.463727
vt 0.037304 0.463727
vt 0.969888 0.436873
vt 0.503596 0.550246
vt 0.037304 0.496538
vt 0.037303 0.523392
vt 0.503596 0.496538
vt 0.037303 0.550246
vt 0.969888 0.550246
vt 0.037304 0.496538
vt 0.037303 0.523392
vt 0.503596 0.496538
vt 0.037303 0.550246
vt 0.969888 0.550246
vt 0.037304 0.496538
vt 0.037303 0.523392
vt 0.503596 0.496538
vt 0.037303 0.550246
vt 0.969888 0.550246
vt 0.037304 0.496538
vt 0.037303 0.523392
vt 0.503596 0.496538
vt 0.037303 0.550246
vt 0.969888 0.550246
vt 0.037304 0.496538
vt 0.037303 0.523392
vt 0.503596 0.496538
vt 0.037303 0.550246
vt 0.969888 0.550246
vt 0.037304 0.496538
vt 0.037303 0.523392
vt 0.503596 0.496538
vt 0.037303 0.550246
vt 0.969888 0.463727
vt 0.037304 0.410019
vt 0.037303 0.436873
vt 0.503596 0.410019
vt 0.037303 0.463727
vt 0.969888 0.344356
vt 0.037304 0.290648
vt 0.037303 0.317502
vt 0.503596 0.290648
vt 0.037303 0.344356
vt 0.969888 0.344356
vt 0.037304 0.290648
vt 0.037303 0.317502
vt 0.503596 0.290648
vt 0.037303 0.344356
vt 0.969888 0.550246
vt 0.037304 0.496538
vt 0.037303 0.523392
vt 0.503596 0.496538
vt 0.037303 0.550246
vt 0.969888 0.550246
vt 0.037304 0.496538
vt 0.037303 0.523392
vt 0.503596 0.496538
vt 0.037303 0.550246
vt 0.969888 0.463727
vt 0.037304 0.410019
vt 0.037303 0.436873
vt 0.503596 0.410019
vt 0.037303 0.463727
vt 0.969888 0.463727
vt 0.037304 0.410019
vt 0.037303 0.436873
vt 0.503596 0.410019
vt 0.037303 0.463727
vt 0.969888 0.344356
vt 0.037304 0.290648
vt 0.037303 0.317502
vt 0.503596 0.290648
vt 0.037303 0.344356
vt 0.969888 0.344356
vt 0.037304 0.290648
vt 0.037303 0.317502
vt 0.503596 0.290648
vt 0.037303 0.344356
vt 0.969888 0.344356
vt 0.037304 0.290648
vt 0.037303 0.317502
vt 0.503596 0.290648
vt 0.037303 0.344356
vt 0.969888 0.550246
vt 0.037304 0.496538
vt 0.037303 0.523392
vt 0.503596 0.496538
vt 0.037303 0.550246
vt 0.969888 0.463727
vt 0.037303 0.436873
vt 0.503596 0.410019
vt 0.969888 0.410019
vt 0.969888 0.463727
vt 0.969888 0.550246
vt 0.037303 0.523392
vt 0.503596 0.496538
vt 0.969888 0.496538
vt 0.969888 0.550246
vt 0.969888 0.550246
vt 0.037303 0.523392
vt 0.503596 0.496538
vt 0.969888 0.496538
vt 0.969888 0.550246
vt 0.969888 0.550246
vt 0.037303 0.523392
vt 0.503596 0.496538
vt 0.969888 0.496538
vt 0.969888 0.550246
vt 0.969888 0.550246
vt 0.037303 0.523392
vt 0.503596 0.496538
vt 0.969888 0.496538
vt 0.969888 0.550246
vt 0.969888 0.550246
vt 0.037303 0.523392
vt 0.503596 0.496538
vt 0.969888 0.496538
vt 0.969888 0.550246
vt 0.969888 0.550246
vt 0.037303 0.523392
vt 0.503596 0.496538
vt 0.969888 0.496538
vt 0.969888 0.550246
vt 0.969888 0.463727
vt 0.037303 0.436873
vt 0.503596 0.410019
vt 0.969888 0.410019
vt 0.969888 0.463727
vt 0.969888 0.344356
vt 0.037303 0.317502
vt 0.503596 0.290648
vt 0.969888 0.290648
vt 0.969888 0.344356
vt 0.969888 0.344356
vt 0.037303 0.317502
vt 0.503596 0.290648
vt 0.969888 0.290648
vt 0.969888 0.344356
vt 0.969888 0.550246
vt 0.037303 0.523392
vt 0.503596 0.496538
vt 0.969888 0.496538
vt 0.969888 0.550246
vt 0.969888 0.550246
vt 0.037303 0.523392
vt 0.503596 0.496538
vt 0.969888 0.496538
vt 0.969888 0.550246
vt 0.969888 0.463727
vt 0.037303 0.436873
vt 0.503596 0.410019
vt 0.969888 0.410019
vt 0.969888 0.463727
vt 0.969888 0.463727
vt 0.037303 0.436873
vt 0.503596 0.410019
vt 0.969888 0.410019
vt 0.969888 0.463727
vt 0.969888 0.344356
vt 0.037303 0.317502
vt 0.503596 0.290648
vt 0.969888 0.290648
vt 0.969888 0.344356
vt 0.969888 0.344356
vt 0.037303 0.317502
vt 0.503596 0.290648
vt 0.969888 0.290648
vt 0.969888 0.344356
vt 0.969888 0.344356
vt 0.037303 0.317502
vt 0.503596 0.290648
vt 0.969888 0.290648
vt 0.969888 0.344356
vt 0.969888 0.550246
vt 0.037303 0.523392
vt 0.503596 0.496538
vt 0.969888 0.496538
vt 0.969888 0.550246
vt 0.969888 1.000000
vt 0.080673 0.426261
vt 0.080673 0.509287
vt 0.080673 0.509287
vt 0.950752 0.467774
vt 0.515712 0.622636
vt 0.080673 0.539611
vt 0.080673 0.581124
vt 0.515712 0.539611
vt 0.080673 0.622636
vt 0.950752 0.622636
vt 0.080673 0.539611
vt 0.080673 0.581124
vt 0.515712 0.539611
vt 0.080673 0.622636
vt 0.950752 0.622636
vt 0.080673 0.539611
vt 0.080673 0.581124
vt 0.515712 0.539611
vt 0.080673 0.622636
vt 0.950752 0.622636
vt 0.080673 0.539611
vt 0.080673 0.581124
vt 0.515712 0.539611
vt 0.080673 0.622636
vt 0.950752 0.622636
vt 0.080673 0.539611
vt 0.080673 0.581124
vt 0.515712 0.539611
vt 0.080673 0.622636
vt 0.950752 0.622636
vt 0.080673 0.539611
vt 0.080673 0.581124
vt 0.515712 0.539611
vt 0.080673 0.622636
vt 0.950752 0.509287
vt 0.080673 0.426261
vt 0.080673 0.467774
vt 0.515712 0.426261
vt 0.080673 0.509287
vt 0.950752 0.356148
vt 0.080673 0.273123
vt 0.080673 0.314636
vt 0.515712 0.273123
vt 0.080673 0.356148
vt 0.950752 0.356148
vt 0.080673 0.273123
vt 0.080673 0.314636
vt 0.515712 0.273123
vt 0.080673 0.356148
vt 0.950752 0.622636
vt 0.080673 0.539611
vt 0.080673 0.581124
vt 0.515712 0.539611
vt 0.080673 0.622636
vt 0.950752 0.622636
vt 0.080673 0.539611
vt 0.080673 0.581124
vt 0.515712 0.539611
vt 0.080673 0.622636
vt 0.950752 0.509287
vt 0.080673 0.426261
vt 0.080673 0.467774
vt 0.515712 0.426261
vt 0.080673 0.509287
vt 0.950752 0.509287
vt 0.080673 0.426261
vt 0.080673 0.467774
vt 0.515712 0.426261
vt 0.080673 0.509287
vt 0.950752 0.356148
vt 0.080673 0.273123
vt 0.080673 0.314636
vt 0.515712 0.273123
vt 0.080673 0.356148
vt 0.950752 0.356148
vt 0.080673 0.273123
vt 0.080673 0.314636
vt 0.515712 0.273123
vt 0.080673 0.356148
vt 0.950752 0.356148
vt 0.080673 0.273123
vt 0.080673 0.314636
vt 0.515712 0.273123
vt 0.080673 0.356148
vt 0.950752 0.622636
vt 0.080673 0.539611
vt 0.080673 0.581124
vt 0.515712 0.539611
vt 0.080673 0.622636
vt 0.950752 0.509287
vt 0.080673 0.467774
vt 0.515712 0.426261
vt 0.950752 0.426261
vt 0.950752 0.509287
vt 0.950752 0.622636
vt 0.080673 0.581123
vt 0.515712 0.539611
vt 0.950752 0.539611
vt 0.950752 0.622636
vt 0.950752 0.622636
vt 0.080673 0.581123
vt 0.515712 0.539611
vt 0.950752 0.539611
vt 0.950752 0.622636
vt 0.950752 0.622636
vt 0.080673 0.581123
vt 0.515712 0.539611
vt 0.950752 0.539611
vt 0.950752 0.622636
vt 0.950752 0.622636
vt 0.080673 0.581123
vt 0.515712 0.539611
vt 0.950752 0.539611
vt 0.950752 0.622636
vt 0.950752 0.622636
vt 0.080673 0.581123
vt 0.515712 0.539611
vt 0.950752 0.539611
vt 0.950752 0.622636
vt 0.950752 0.622636
vt 0.080673 0.581123
vt 0.515712 0.539611
vt 0.950752 0.539611
vt 0.950752 0.622636
vt 0.950752 0.509287
vt 0.080673 0.467774
vt 0.515712 0.426261
vt 0.950752 0.426261
vt 0.950752 0.509287
vt 0.950752 0.356148
vt 0.080673 0.314636
vt 0.515712 0.273123
vt 0.950752 0.273123
vt 0.950752 0.356148
vt 0.950752 0.356148
vt 0.080673 0.314636
vt 0.515712 0.273123
vt 0.950752 0.273123
vt 0.950752 0.356148
vt 0.950752 0.622636
vt 0.080673 0.581123
vt 0.515712 0.539611
vt 0.950752 0.539611
vt 0.950752 0.622636
vt 0.950752 0.622636
vt 0.080673 0.581123
vt 0.515712 0.539611
vt 0.950752 0.539611
vt 0.950752 0.622636
vt 0.950752 0.509287
vt 0.080673 0.467774
vt 0.515712 0.426261
vt 0.950752 0.426261
vt 0.950752 0.509287
vt 0.950752 0.509287
vt 0.080673 0.467774
vt 0.515712 0.426261
vt 0.950752 0.426261
vt 0.950752 0.509287
vt 0.950752 0.356148
vt 0.080673 0.314636
vt 0.515712 0.273123
vt 0.950752 0.273123
vt 0.950752 0.356148
vt 0.950752 0.356148
vt 0.080673 0.314636
vt 0.515712 0.273123
vt 0.950752 0.273123
vt 0.950752 0.356148
vt 0.950752 0.356148
vt 0.080673 0.314636
vt 0.515712 0.273123
vt 0.950752 0.273123
vt 0.950752 0.356148
vt 0.950752 0.622636
vt 0.080673 0.581123
vt 0.515712 0.539611
vt 0.950752 0.539611
vt 0.950752 0.622636
vt 0.950752 1.000000
vt 0.000000 0.750937
vt 0.000000 0.788505
vt 0.000000 0.788505
vt 0.978531 0.769721
vt 0.489265 0.872012
vt 0.000000 0.834444
vt 0.000000 0.853228
vt 0.489265 0.834444
vt 0.000000 0.872012
vt 0.978531 0.872012
vt 0.000000 0.834444
vt 0.000000 0.853228
vt 0.489265 0.834444
vt 0.000000 0.872012
vt 0.978531 0.872012
vt 0.000000 0.834444
vt 0.000000 0.853228
vt 0.489265 0.834444
vt 0.000000 0.872012
vt 0.978531 0.872012
vt 0.000000 0.834444
vt 0.000000 0.853228
vt 0.489265 0.834444
vt 0.000000 0.872012
vt 0.978531 0.872012
vt 0.000000 0.834444
vt 0.000000 0.853228
vt 0.489265 0.834444
vt 0.000000 0.872012
vt 0.978531 0.872012
vt 0.000000 0.834444
vt 0.000000 0.853228
vt 0.489265 0.834444
vt 0.000000 0.872012
vt 0.978531 0.788505
vt 0.000000 0.750937
vt 0.000000 0.769721
vt 0.489265 0.750937
vt 0.000000 0.788505
vt 0.978531 0.669625
vt 0.000000 0.632057
vt 0.000000 0.650841
vt 0.489265 0.632057
vt 0.000000 0.669625
vt 0.978531 0.669625
vt 0.000000 0.632057
vt 0.000000 0.650841
vt 0.489265 0.632057
vt 0.000000 0.669625
vt 0.978531 0.872012
vt 0.000000 0.834444
vt 0.000000 0.853228
vt 0.489265 0.834444
vt 0.000000 0.872012
vt 0.978531 0.872012
vt 0.000000 0.834444
vt 0.000000 0.853228
vt 0.489265 0.834444
vt 0.000000 0.872012
vt 0.978531 0.788505
vt 0.000000 0.750937
vt 0.000000 0.769721
vt 0.489265 0.750937
vt 0.000000 0.788505
vt 0.978531 0.788505
vt 0.000000 0.750937
vt 0.000000 0.769721
vt 0.489265 0.750937
vt 0.000000 0.788505
vt 0.978531 0.669625
vt 0.000000 0.632057
vt 0.000000 0.650841
vt 0.489265 0.632057
vt 0.000000 0.669625
vt 0.978531 0.669625
vt 0.000000 0.632057
vt 0.000000 0.650841
vt 0.489265 0.632057
vt 0.000000 0.669625
vt 0.978531 0.669625
vt 0.000000 0.632057
vt 0.000000 0.650841
vt 0.489265 0.632057
vt 0.000000 0.669625
vt 0.978531 0.872012
vt 0.000000 0.834444
vt 0.000000 0.853228
vt 0.489265 0.834444
vt 0.000000 0.872012
vt 0.978531 0.788505
vt 0.000000 0.769721
vt 0.489265 0.750937
vt 0.978530 0.750937
vt 0.978530 0.788505
vt 0.978530 0.872012
vt 0.000000 0.853228
vt 0.489265 0.834444
vt 0.978530 0.834444
vt 0.978530 0.872012
vt 0.978530 0.872012
vt 0.000000 0.853228
vt 0.489265 0.834444
vt 0.978530 0.834444
vt 0.978530 0.872012
vt 0.978530 0.872012
vt 0.000000 0.853228
vt 0.489265 0.834444
vt 0.978530 0.834444
vt 0.978530 0.872012
vt 0.978530 0.872012
vt 0.000000 0.853228
vt 0.489265 0.834444
vt 0.978530 0.834444
vt 0.978530 0.872012
vt 0.978530 0.872012
vt 0.000000 0.853228
vt 0.489265 0.834444
vt 0.978530 0.834444
vt 0.978530 0.872012
vt 0.978530 0.872012
vt 0.000000 0.853228
vt 0.489265 0.834444
vt 0.978530 0.834444
vt 0.978530 0.872012
vt 0.978530 0.788505
vt 0.000000 0.769721
vt 0.489265 0.750937
vt 0.978530 0.750937
vt 0.978530 0.788505
vt 0.978530 0.669625
vt 0.000000 0.650840
vt 0.489265 0.632057
vt 0.978530 0.632057
vt 0.978530 0.669625
vt 0.978530 0.669625
vt 0.000000 0.650840
vt 0.489265 0.632057
vt 0.978530 0.632057
vt 0.978530 0.669625
vt 0.978530 0.872012
vt 0.000000 0.853228
vt 0.489265 0.834444
vt 0.978530 0.834444
vt 0.978530 0.872012
vt 0.978530 0.872012
vt 0.000000 0.853228
vt 0.489265 0.834444
vt 0.978530 0.834444
vt 0.978530 0.872012
vt 0.978530 0.788505
vt 0.000000 0.769721
vt 0.489265 0.750937
vt 0.978530 0.750937
vt 0.978530 0.788505
vt 0.978530 0.788505
vt 0.000000 0.769721
vt 0.489265 0.750937
vt 0.978530 0.750937
vt 0.978530 0.788505
vt 0.978530 0.669625
vt 0.000000 0.650840
vt 0.489265 0.632057
vt 0.978530 0.632057
vt 0.978530 0.669625
vt 0.978530 0.669625
vt 0.000000 0.650840
vt 0.489265 0.632057
vt 0.978530 0.632057
vt 0.978530 0.669625
vt 0.978530 0.669625
vt 0.000000 0.650840
vt 0.489265 0.632057
vt 0.978530 0.632057
vt 0.978530 0.669625
vt 0.978530 0.872012
vt 0.000000 0.853228
vt 0.489265 0.834444
vt 0.978530 0.834444
vt 0.978530 0.872012
vt 0.978530 1.000000

f 3/3 4/4 1/1
f 2/2 1/1 4/4
f 7/7 8/8 5/5
f 6/6 5/5 8/8
f 11/11 12/12 9/9
f 10/10 9/9 12/12
f 15/15 16/16 13/13
f 14/14 13/13 16/16
f 19/19 20/20 17/17
f 18/18 17/17 20/20
f 23/23 24/24 21/21
f 22/22 21/21 24/24
f 27/27 28/28 25/25
f 26/26 25/25 28/28
f 31/31 32/32 29/29
f 30/30 29/29 32/32
f 35/35 36/36 33/33
f 34/34 33/33 36/36
f 39/39 40/40 37/37
f 38/38 37/37 40/40
f 43/43 44/44 41/41
f 42/42 41/41 44/44
f 47/47 48/48 45/45
f 46/46 45/45 48/48
f 51/51 52/52 49/49
f 50/50 49/49 52/52
f 55/55 56/56 53/53
f 54/54 53/53 56/56
f 59/59 60/60 57/57
f 58/58 57/57 60/60
f 63/63 64/64 61/61
f 62/62 61/61 64/64
f 67/67 68/68 65/65
f 66/66 65/65 68/68
f 71/71 72/72 69/69
f 70/70 69/69 72/72
f 75/75 76/76 73/73
f 74/74 73/73 76/76
f 79/79 80/80 77/77
f 78/78 77/77 80/80
f 83/83 84/84 81/81
f 82/82 81/81 84/84
f 87/87 88/88 85/85
f 86/86 85/85 88/88
f 91/91 92/92 89/89
f 90/90 89/89 92/92
f 95/95 96/96 93/93
f 94/94 93/93 96/96
f 99/99 100/100 97/97
f 98/98 97/97 100/100
f 103/103 104/104 101/101
f 102/102 101/101 104/104
f 107/107 108/108 105/105
f 106/106 105/105 108/108
f 111/111 112/112 109/109
f 110/110 109/109 112/112
f 115/115 116/116 113/113
f 114/114 113/113 116/116
f 119/119 120/120 117/117
f 118/118 117/117 120/120
f 123/123 124/124 121/121
f 122/122 121/121 124/124
f 127/127 128/128 125/125
f 126/126 125/125 128/128
f 131/131 132/132 129/129
f 130/130 129/129 132/132
f 135/135 136/136 133/133
f 134/134 133/133 136/136
f 139/139 140/140 137/137
f 138/138 137/137 140/140
f 143/143 144/144 141/141
f 142/142 141/141 144/144
f 147/147 148/148 145/145
f 146/146 145/145 148/148
f 151/151 152/152 149/149
f 150/150 149/149 152/152
f 155/155 156/156 153/153
f 154/154 153/153 156/156
f 159/159 161/161 157/157
f 247/247 248/248 158/158
f 249/249 161/161 160/160
f 250/250 248/248 251/251
f 162/162 164/164 163/163
f 252/252 253/253 165/165
f 254/254 164/164 166/166
f 255/255 253/253 256/256
f 167/167 169/169 168/168
f 257/257 258/258 170/170
f 259/259 169/169 171/171
f 260/260 258/258 261/261
f 172/172 174/174 173/173
f 262/262 263/263 175/175
f 264/264 174/174 176/176
f 265/265 263/263 266/266
f 177/177 179/179 178/178
f 267/267 268/268 180/180
f 269/269 179/179 181/181
f 270/270 268/268 271/271
f 182/182 184/184 183/183
f 272/272 273/273 185/185
f 274/274 184/184 186/186
f 275/275 273/273 276/276
f 187/187 189/189 188/188
f 277/277 278/278 190/190
f 279/279 189/189 191/191
f 280/280 278/278 281/281
f 192/192 194/194 193/193
f 282/282 283/283 195/195
f 284/284 194/194 196/196
f 285/285 283/283 286/286
f 197/197 199/199 198/198
f 287/287 288/288 200/200
f 289/289 199/199 201/201
f 290/290 288/288 291/291
f 202/202 204/204 203/203
f 292/292 293/293 205/205
f 294/294 204/204 206/206
f 295/295 293/293 296/296
f 207/207 209/209 208/208
f 297/297 298/298 210/210
f 299/299 209/209 211/211
f 300/300 298/298 301/301
f 212/212 214/214 213/213
f 302/302 303/303 215/215
f 304/304 214/214 216/216
f 305/305 303/303 306/306
f 217/217 219/219 218/218
f 307/307 308/308 220/220
f 309/309 219/219 221/221
f 310/310 308/308 311/311
f 222/222 224/224 223/223
f 312/312 313/313 225/225
f 314/314 224/224 226/226
f 315/315 313/313 316/316
f 227/227 229/229 228/228
f 317/317 318/318 230/230
f 319/319 229/229 231/231
f 320/320 318/318 321/321
f 232/232 234/234 233/233
f 322/322 323/323 235/235
f 324/324 234/234 236/236
f 325/325 323/323 326/326
f 237/237 239/239 238/238
f 327/327 328/328 240/240
f 329/329 239/239 241/241
f 330/330 328/328 331/331
f 242/242 244/244 243/243
f 332/332 333/333 245/245
f 334/334 244/244 246/246
f 335/335 333/333 336/336
f 339/339 341/341 337/337
f 427/427 428/428 338/338
f 429/429 341/341 340/340
f 430/430 428/428 431/431
f 342/342 344/344 343/343
f 432/432 433/433 345/345
f 434/434 344/344 346/346
f 435/435 433/433 436/436
f 347/347 349/349 348/348
f 437/437 438/438 350/350
f 439/439 349/349 351/351
f 440/440 438/438 441/441
f 352/352 354/354 353/353
f 442/442 443/443 355/355
f 444/444 354/354 356/356
f 445/445 443/443 446/446
f 357/357 359/359 358/358
f 447/447 448/448 360/360
f 449/449 359/359 361/361
f 450/450 448/448 451/451
f 362/362 364/364 363/363
f 452/452 453/453 365/365
f 454/454 364/364 366/366
f 455/455 453/453 456/456
f 367/367 369/369 368/368
f 457/457 458/458 370/370
f 459/459 369/369 371/371
f 460/460 458/458 461/461
f 372/372 374/374 373/373
f 462/462 463/463 375/375
f 464/464 374/374 376/376
f 465/465 463/463 466/466
f 377/377 379/379 378/378
f 467/467 468/468 380/380
f 469/469 379/379 381/381
f 470/470 468/468 471/471
f 382/382 384/384 383/383
f 472/472 473/473 385/385
f 474/474 384/384 386/386
f 475/475 473/473 476/476
f 387/387 389/389 388/388
f 477/477 478/478 390/390
f 479/479 389/389 391/391
f 480/480 478/478 481/481
f 392/392 394/394 393/393
f 482/482 483/483 395/395
f 484/484 394/394 396/396
f 485/485 483/483 486/486
f 397/397 399/399 398/398
f 487/487 488/488 400/400
f 489/489 399/399 401/401
f 490/490 488/488 491/491
f 402/402 404/404 403/403
f 492/492 493/493 405/405
f 494/494 404/404 406/406
f 495/495 493/493 496/496
f 407/407 409/409 408/408
f 497/497 498/498 410/410
f 499/499 409/409 411/411
f 500/500 498/498 501/501
f 412/412 414/414 413/413
f 502/502 503/503 415/415
f 504/504 414/414 416/416
f 505/505 503/503 506/506
f 417/417 419/419 418/418
f 507/507 508/508 420/420
f 509/509 419/419 421/421
f 510/510 508/508 511/511
f 422/422 424/424 423/423
f 512/512 513/513 425/425
f 514/514 424/424 426/426
f 515/515 513/513 516/516
f 519/519 521/521 517/517
f 607/607 608/608 518/518
f 609/609 521/521 520/520
f 610/610 608/608 611/611
f 522/522 524/524 523/523
f 612/612 613/613 525/525
f 614/614 524/524 526/526
f 615/615 613/613 616/616
f 527/527 529/529 528/528
f 617/617 618/618 530/530
f 619/619 529/529 531/531
f 620/620 618/618 621/621
f 532/532 534/534 533/533
f 622/622 623/623 535/535
f 624/624 534/534 536/536
f 625/625 623/623 626/626
f 537/537 539/539 538/538
f 627/627 628/628 540/540
f 629/629 539/539 541/541
f 630/630 628/628 631/631
f 542/542 544/544 543/543
f 632/632 633/633 545/545
f 634/634 544/544 546/546
f 635/635 633/633 636/636
f 547/547 549/549 548/548
f 637/637 638/638 550/550
f 639/639 549/549 551/551
f 640/640 638/638 641/641
f 552/552 554/554 553/553
f 642/642 643/643 555/555
f 644/644 554/554 556/556
f 645/645 643/643 646/646
f 557/557 559/559 558/558
f 647/647 648/648 560/560
f 649/649 559/559 561/561
f 650/650 648/648 651/651
f 562/562 564/564 563/563
f 652/652 653/653 565/565
f 654/654 564/564 566/566
f 655/655 653/653 656/656
f 567/567 569/569 568/568
f 657/657 658/658 570/570
f 659/659 569/569 571/571
f 660/660 658/658 661/661
f 572/572 574/574 573/573
f 662/662 663/663 575/575
f 664/664 574/574 576/576
f 665/665 663/663 666/666
f 577/577 579/579 578/578
f 667/667 668/668 580/580
f 669/669 579/579 581/581
f 670/670 668/668 671/671
f 582/582 584/584 583/583
f 672/672 673/673 585/585
f 674/674 584/584 586/586
f 675/675 673/673 676/676
f 587/587 589/589 588/588
f 677/677 678/678 590/590
f 679/679 589/589 591/591
f 680/680 678/678 681/681
f 592/592 594/594 593/593
f 682/682 683/683 595/595
f 684/684 594/594 596/596
f 685/685 683/683 686/686
f 597/597 599/599 598/598
f 687/687 688/688 600/600
f 689/689 599/599 601/601
f 690/690 688/688 691/691
f 602/602 604/604 603/603
f 692/692 693/693 605/605
f 694/694 604/604 606/606
f 695/695 693/693 696/696
f 699/699 701/701 697/697
f 787/787 788/788 698/698
f 789/789 701/701 700/700
f 790/790 788/788 791/791
f 702/702 704/704 703/703
f 792/792 793/793 705/705
f 794/794 704/704 706/706
f 795/795 793/793 796/796
f 707/707 709/709 708/708
f 797/797 798/798 710/710
f 799/799 709/709 711/711
f 800/800 798/798 801/801
f 712/712 714/714 713/713
f 802/802 803/803 715/715
f 804/804 714/714 716/716
f 805/805 803/803 806/806
f 717/717 719/719 718/718
f 807/807 808/808 720/720
f 809/809 719/719 721/721
f 810/810 808/808 811/811
f 722/722 724/724 723/723
f 812/812 813/813 725/725
f 814/814 724/724 726/726
f 815/815 813/813 816/816
f 727/727 729/729 728/728
f 817/817 818/818 730/730
f 819/819 729/729 731/731
f 820/820 818/818 821/821
f 732/732 734/734 733/733
f 822/822 823/823 735/735
f 824/824 734/734 736/736
f 825/825 823/823 826/826
f 737/737 739/739 738/738
f 827/827 828/828 740/740
f 829/829 739/739 741/741
f 830/830 828/828 831/831
f 742/742 744/744 743/743
f 832/832 833/833 745/745
f 834/834 744/744 746/746
f 835/835 833/833 836/836
f 747/747 749/749 748/748
f 837/837 838/838 750/750
f 839/839 749/749 751/751
f 840/840 838/838 841/841
f 752/752 754/754 753/753
f 842/842 843/843 755/755
f 844/844 754/754 756/756
f 845/845 843/843 846/846
f 757/757 759/759 758/758
f 847/847 848/848 760/760
f 849/849 759/759 761/761
f 850/850 848/848 851/851
f 762/762 764/764 763/763
f 852/852 853/853 765/765
f 854/854 764/764 766/766
f 855/855 853/853 856/856
f 767/767 769/769 768/768
f 857/857 858/858 770/770
f 859/859 769/769 771/771
f 860/860 858/858 861/861
f 772/772 774/774 773/773
f 862/862 863/863 775/775
f 864/864 774/774 776/776
f 865/865 863/863 866/866
f 777/777 779/779 778/778
f 867/867 868/868 780/780
f 869/869 779/779 781/781
f 870/870 868/868 871/871
f 782/782 784/784 783/783
f 872/872 873/873 785/785
f 874/874 784/784 786/786
f 875/875 873/873 876/876
