# MOD converted: [r]siege_d_w_clothrobe002.mod
# 856 verts, 776 faces

v 94.529221 -12.940328 8.030516
v 111.021469 -9.036827 7.486013
v 99.338852 -14.320436 4.800853
v 96.753891 -13.890671 11.748295
v 108.263779 -7.841958 9.731354
v 102.616638 -14.019626 5.051835
v 99.394577 -15.492498 3.062054
v 96.487366 -14.565691 7.831725
v 108.280197 -11.555344 6.500144
v 102.659882 -15.195739 5.151420
v 108.388428 -11.335025 7.165932
v 105.471420 -13.749496 10.739824
v 105.716751 -12.019839 8.448583
v 114.697083 1.305560 -0.000000
v 64.995102 -22.407896 0.000000
v 99.669388 9.562024 5.711400
v 112.156830 -6.502254 9.952602
v 113.688766 -3.854955 2.513169
v 120.708969 7.190928 11.375367
v 110.797165 -9.233243 5.039317
v 120.036469 4.715664 7.770559
v 113.292084 -8.256707 4.058568
v 102.765427 -14.324383 5.365860
v 108.271835 -9.517181 5.935387
v 118.932663 1.249916 3.356306
v 116.480789 7.595031 6.691356
v 115.655792 4.886782 4.058570
v 102.765411 -13.908092 -0.000002
v 48.362392 31.617634 -0.000001
v 38.274910 34.434086 6.056013
v 82.786316 -12.550474 11.102493
v 82.701370 -9.087369 15.017791
v 82.869843 -5.042684 8.011724
v 74.901260 -16.499588 13.946266
v 75.029312 -11.308261 7.796982
v 76.788193 16.475494 18.821716
v 75.460617 -5.157384 20.714951
v 76.058990 3.142493 15.426858
v 76.573761 12.071373 11.861598
v 54.347435 -23.589617 20.459782
v 54.706024 -14.589726 12.452649
v 55.317165 25.973091 28.526506
v 54.513538 -5.456994 31.111689
v 54.744072 4.719006 24.468517
v 55.041073 17.842873 12.885950
v 47.561176 -25.230717 22.496555
v 47.553551 -15.702094 13.832584
v 48.218376 28.161497 31.196026
v 47.705700 -5.867814 33.958378
v 47.876816 5.144764 27.192289
v 48.082817 19.207680 15.029920
v 26.092567 -29.510517 28.019005
v 26.848164 -18.875008 17.428671
v 26.832148 32.974525 38.405029
v 27.594658 -7.355075 40.738991
v 27.866051 5.376453 34.677353
v 27.714952 22.094059 9.961708
v 64.932724 -20.410763 17.098118
v 65.305779 -12.801484 23.845108
v 65.263702 -5.321699 26.228359
v 65.580292 4.393883 10.078727
v 66.084457 21.711147 20.094231
v 65.933655 15.292014 14.130197
v 38.270195 -26.727482 25.090244
v 38.556664 -16.876703 34.753662
v 38.276981 -6.691050 37.407627
v 38.279068 5.290671 30.959286
v 38.273369 20.943798 15.674879
v 38.271015 30.617905 -0.000000
v 47.577148 -27.772730 -0.000001
v 25.631485 -32.315834 4.481040
v 87.947662 -11.214602 5.928600
v 83.788300 11.822182 10.937697
v 87.966507 -4.349634 16.390093
v 83.086166 1.912444 12.365880
v 83.654999 9.064900 11.667666
v 87.964630 1.112461 15.704847
v 16.951305 -31.003178 30.389179
v 17.569885 -19.928947 18.145374
v 17.514462 34.727303 41.078251
v 19.177790 -8.076553 43.472309
v 19.453131 5.494911 37.215260
v 19.299965 23.253836 -0.000001
v 16.331079 -33.900566 11.786284
v 113.199127 -0.115240 14.731773
v 112.239044 -0.394786 15.173873
v 113.773071 3.630337 8.375339
v 108.275360 -8.388667 11.588936
v 107.669464 -4.372220 4.368942
v 88.348572 8.733922 13.104090
v 107.057648 -3.410357 9.103679
v 88.296295 6.511400 11.804135
v 113.871170 7.252558 12.147763
v 114.408997 3.662333 6.142079
v 116.655396 -2.402370 4.628689
v 101.468185 -14.739776 8.180883
v 113.723740 -2.362577 5.935387
v 118.932663 1.249916 6.691351
v 115.655685 4.793454 1.102560
v 96.255508 -13.962761 0.000001
v 87.998520 -12.458691 4.309385
v 92.446808 -10.756520 9.740319
v 101.923187 -13.252991 8.303346
v 92.591568 -7.973475 5.858604
v 106.451736 10.349090 4.574905
v 100.004852 9.746399 10.388740
v 111.302933 9.048583 14.668438
v 112.545090 7.633446 10.323978
v 106.021393 10.404838 12.387402
v 102.690399 3.160408 13.380384
v 107.260788 10.483676 12.456749
v 103.493484 -6.693872 11.326384
v 97.368423 1.721218 8.901662
v 102.252808 8.914151 9.824759
v 92.582504 -4.106721 10.592977
v 92.579025 0.947241 12.367897
v 104.178467 7.448819 12.093911
v 103.780670 -1.068178 5.746298
v 111.492004 9.695889 21.502188
v 111.444412 -0.287178 22.334332
v 111.460983 7.472138 19.600023
v 107.535553 10.076001 16.889782
v 102.198013 6.862332 16.583549
v 101.059860 3.094182 18.749672
v 106.924088 -3.314050 17.199787
v 101.999268 -0.856543 22.992847
v 110.002670 6.320632 20.310766
v 105.961578 8.505206 18.728176
v 101.892227 6.152958 20.558273
v 106.235962 -2.324458 18.776569
v 102.008698 0.187299 22.555473
v 112.513153 3.567924 22.977839
v 109.883667 0.331553 4.871793
v 95.347824 -11.482845 8.267470
v 95.313477 -9.293815 10.469524
v 95.853439 -5.330609 8.440730
v 92.884903 6.467935 4.479628
v 92.797226 8.201401 12.273279
v 99.388168 -6.638389 12.221806
v 99.631348 1.682880 8.275528
v 97.893478 7.716689 24.556799
v 100.422821 4.999466 24.697279
v 100.579224 0.262149 27.409874
v 107.620712 5.080406 25.941988
v 103.696472 -1.666872 42.556328
v 93.429138 4.155313 45.344963
v 99.612579 4.512892 27.291193
v 107.460876 0.017314 24.920202
v 104.097717 7.439153 26.851065
v 99.492279 4.721265 29.583443
v 106.736786 4.979867 29.003225
v 102.519714 6.985729 27.135811
v 103.275757 7.461091 29.508957
v 106.545883 -0.010021 28.176710
v 102.746063 -1.746927 26.920527
v 99.600052 0.249580 32.524979
v 96.533432 -0.304345 34.043427
v 100.166794 -2.821096 35.712116
v 104.491165 -0.809332 35.860443
v 104.553177 5.244627 34.062164
v 100.325806 7.442347 32.386600
v 96.575531 4.906699 37.894638
v 94.969543 4.434681 39.474888
v 98.123428 6.593183 39.392235
v 97.946198 -2.590837 37.857906
v 94.890778 -0.167294 41.111176
v 101.783585 4.806403 41.100555
v 101.760880 -0.781416 43.942329
v 96.242432 6.017179 42.308517
v 93.345795 -0.186620 43.616524
v 96.132263 -2.531462 45.099113
v 99.779800 -0.829873 8.787140
v 87.973358 -8.192575 2.703773
v 99.490158 -14.339169 0.000001
v 94.529221 -12.940328 5.365860
v 108.271835 -9.517181 2.703773
v 99.490158 -14.339169 6.600409
v 115.051071 7.039863 4.669835
v 105.258347 -12.876034 9.243744
v 105.479294 -11.452110 4.896245
v 98.008118 -13.561770 9.275316
v 98.097000 -12.091852 11.354246
v 97.620804 -6.030345 12.663394
v 115.332458 -2.670782 16.850548
v 114.380249 -2.836457 21.534412
v 112.140472 -2.814420 8.543114
v 114.485123 -1.750858 15.000507
v 108.463654 11.739365 17.044748
v 115.946243 8.615116 21.956177
v 113.702026 7.652265 17.279558
v 116.175629 2.846234 22.130827
v 113.931183 2.849225 19.324688
v 107.680771 10.271688 7.454666
v 110.169418 11.799763 8.166206
v 115.786713 7.807847 8.543115
v 116.307968 2.842330 12.411648
v 116.901810 8.716475 10.889056
v 109.503372 12.155934 13.008103
v 117.142044 2.843950 15.121761
v 107.540390 -5.546207 18.853603
v 106.363846 -4.749399 8.490782
v 109.979568 -6.502278 11.876393
v 108.638382 -5.503358 15.910213
v 84.809799 3.701430 12.328719
v 84.996063 7.954475 16.805889
v 79.741959 10.218697 31.133177
v 63.407475 8.080151 25.590376
v 63.370937 15.440276 34.116173
v 57.940601 8.569253 28.350523
v 57.822643 17.383871 25.903358
v 71.698479 6.978471 21.540014
v 71.765335 12.916090 38.038315
v 49.928089 8.482756 31.217350
v 49.576683 20.199827 20.407406
v 79.517746 5.237662 9.220177
v 88.355957 5.895848 10.492437
v 88.506958 2.019333 38.723183
v 40.447193 15.329862 14.234003
v 84.757187 -4.589331 14.335073
v 85.368195 0.077892 19.487162
v 80.082077 -0.686807 29.048960
v 63.045776 -9.966980 30.455261
v 63.747334 -0.911776 31.797342
v 57.527149 -10.986210 34.097641
v 58.249054 -0.754614 24.087353
v 71.447044 -7.914529 25.286720
v 72.106354 -0.978525 34.904957
v 49.431114 -12.704604 38.561462
v 50.155766 0.320753 18.457693
v 79.364594 -6.389301 11.230155
v 88.323105 0.427549 10.920116
v 88.202957 -3.021546 40.772324
v 40.521111 -7.044574 7.892409
v 85.970825 6.483481 4.914300
v 95.637100 -10.269476 12.420927
v 85.811340 -0.961973 6.113219
v 84.597809 -8.526890 11.743648
v 81.259979 6.081715 7.933943
v 81.867203 9.946151 14.431840
v 80.418243 -0.460527 7.193524
v 78.195053 -7.934030 12.391367
v 79.363449 -5.645861 15.930883
v 74.294052 -0.114813 13.668089
v 74.246933 -6.448443 9.133307
v 75.819504 10.104842 13.842688
v 75.245071 5.513744 9.297134
v 20.264702 -2.586936 17.204370
v 20.265865 2.800809 7.471300
v 20.263885 2.228154 1.578796
v 71.732735 0.407194 2.517104
v 72.838364 -6.118456 16.273346
v 61.238457 1.330631 9.189054
v 60.962254 -8.349245 3.868528
v 60.538143 -5.700884 2.639497
v 60.193581 0.739914 10.037152
v 71.281830 8.316417 14.518494
v 61.267483 -5.957135 5.720013
v 49.485336 -4.992258 4.933090
v 45.601578 1.223328 6.882038
v 46.695221 6.816226 12.316340
v 47.043743 6.663718 14.222160
v 50.382385 -4.519932 15.951600
v 46.731358 1.763585 4.798631
v 60.583775 7.449693 11.600007
v 61.100113 7.329614 10.521892
v 46.646202 -6.920057 6.317609
v 46.230339 -4.815236 14.510118
v 47.241203 -4.363331 10.878217
v 43.308483 -6.292440 14.682620
v 44.178059 -4.079065 6.955083
v 43.504089 -4.681976 17.414551
v 35.977295 3.111615 13.876111
v 36.258957 8.683967 7.502649
v 35.936661 8.924902 5.179392
v 34.617271 2.729722 3.177333
v 70.987663 8.051791 10.119942
v 49.943409 -6.861849 15.499417
v 49.321869 1.617449 11.986691
v 49.079174 6.302316 6.913686
v 48.539841 6.430013 4.806092
v 48.443005 1.133678 5.125807
v 90.730988 -9.334618 7.791548
v 73.788223 -8.163166 11.105585
v 85.131516 -5.751201 5.009944
v 116.060715 3.682956 4.731467
v 114.336578 -0.861268 4.507625
v 119.760315 -1.870013 8.601362
v 113.049774 -0.536705 7.474738
v 113.480438 7.461776 10.627806
v 109.555008 -3.173057 10.934698
v 112.235321 7.765565 8.480064
v 114.635651 3.820666 11.470344
v 112.690659 -0.912356 11.904906
v 113.786270 3.730842 5.972378
v 109.937729 -6.343232 4.591613
v 98.052444 -13.212394 4.719616
v 101.552185 -13.973433 4.995645
v 105.558380 -12.544181 8.871488
v 105.256348 -11.208055 10.209303
v 106.982742 -7.025520 16.083004
v 20.265396 -2.313050 12.710944
v 20.265057 -3.855582 9.300167
v 20.264065 6.971632 14.665114
v 20.265274 7.107161 5.032402
v 121.847458 2.502491 0.000001
v 113.354782 -3.374938 12.153022
v 81.097183 -13.516609 9.920376
v 87.194733 -11.236483 11.218040
v 89.696411 -6.766499 14.118141
v 83.789261 -8.507184 8.242326
v 77.911255 -16.779427 6.545074
v 84.089417 -14.891636 1.947877
v 80.931503 -16.945797 3.666408
v 74.826187 -18.897230 15.301190
v 85.513046 -0.593244 10.672098
v 91.502548 5.462765 6.637398
v 91.300552 9.278177 8.507658
v 85.480637 10.965526 15.390799
v 86.217163 6.598849 11.955542
v 91.369339 -0.498386 0.025796
v 85.224716 12.906906 0.031906
v 91.153732 9.715561 -3.135451
v 77.690079 -17.782730 -0.823122
v 72.095657 -19.926920 -7.969934
v 74.681152 -18.026968 -5.182993
v 69.769455 -20.322811 -12.171440
v 69.125549 -19.357294 -9.748418
v 81.652237 -13.838383 -7.668688
v 87.749786 -11.463102 -11.055426
v 90.116974 -6.736289 -14.316203
v 83.974625 -8.521355 -4.830524
v 79.672668 -17.259975 -3.328974
v 85.850830 -15.167374 2.234575
v 83.924377 -16.506601 1.332576
v 77.675827 -18.566910 -16.416569
v 85.733902 -0.596303 -10.609943
v 91.502563 5.462765 -6.674198
v 91.300552 9.278181 -8.586658
v 85.480637 10.965518 -14.668550
v 85.907883 6.612664 -12.500750
v 91.369339 -0.498393 7.558702
v 82.109848 -16.606810 7.251539
v 75.913742 -18.741415 11.831142
v 80.733185 -15.804186 12.284473
v 74.809998 -17.672308 16.626318
v 79.688797 -13.811957 17.752365
v 73.982254 -15.570122 22.140551
v 75.133789 -9.850624 2.021389
v 85.194534 -16.361853 8.258687
v 83.063446 -16.632784 0.703957
v 76.537094 -18.670015 7.407633
v 74.664886 -18.809219 1.140296
v 80.957489 -17.691236 8.081239
v 78.795975 -17.850466 -8.030513
v 111.028244 -9.036394 -7.486008
v 99.338852 -14.320438 -4.800851
v 96.753891 -13.890671 -11.748293
v 108.265808 -7.842168 -9.731353
v 102.616638 -14.019626 -5.051834
v 99.394577 -15.492496 -3.062053
v 96.487350 -14.565691 -7.831721
v 108.282944 -11.555717 -6.500140
v 102.659866 -15.195739 -5.151418
v 108.391129 -11.335492 -7.165930
v 105.471420 -13.749497 -10.739821
v 105.716736 -12.019841 -8.448584
v 114.698578 1.310611 0.000000
v 116.626999 7.942039 0.000001
v 82.799576 -13.677862 -0.000000
v 75.002884 -17.841404 -0.000000
v 83.944092 12.684818 0.000000
v 88.501236 8.954801 0.000001
v 94.117477 -12.264011 0.000001
v 106.834930 10.694317 -5.711398
v 112.162140 -6.501487 -0.000000
v 120.705978 7.771181 -9.952602
v 113.696289 -3.850636 -2.513169
v 120.708954 7.190927 -11.375366
v 110.804062 -9.232507 -5.039316
v 120.036469 4.715663 -7.770558
v 113.298416 -8.255050 -4.058567
v 102.765427 -14.324382 -5.365857
v 108.274170 -9.517661 -5.935386
v 118.932663 1.249916 -3.356305
v 116.480789 7.595029 -6.691358
v 115.653107 4.892445 -4.058571
v 102.765396 -13.908092 -0.000001
v 76.982788 17.949095 0.000000
v 55.292839 29.271786 -0.000001
v 26.501621 37.330757 -0.000001
v 66.196541 24.194057 -6.056013
v 82.786301 -12.550473 -11.102492
v 82.701370 -9.087369 -15.017789
v 82.869812 -5.042687 -8.011727
v 74.901260 -16.499588 -13.946265
v 75.029312 -11.308260 -7.796982
v 76.788177 16.475498 -18.821714
v 75.460617 -5.157385 -20.714951
v 76.058990 3.142495 -15.426856
v 76.573761 12.071373 -11.861598
v 54.347431 -23.589615 -20.459780
v 54.706020 -14.589729 -12.452645
v 55.317162 25.973089 -28.526505
v 54.513538 -5.456992 -31.111687
v 54.744064 4.719006 -24.468515
v 55.041065 17.842871 -12.885950
v 47.561172 -25.230713 -22.496552
v 47.553547 -15.702093 -13.832585
v 48.218372 28.161493 -31.196026
v 47.705696 -5.867815 -33.958374
v 47.876808 5.144764 -27.192289
v 48.082809 19.207678 -15.029918
v 26.092569 -29.510515 -28.019001
v 26.848162 -18.875008 -17.428669
v 26.832150 32.974522 -38.405029
v 27.594656 -7.355078 -40.738983
v 27.866051 5.376450 -34.677353
v 27.714956 22.094059 -9.961706
v 64.932716 -20.410757 -17.098116
v 65.305771 -12.801481 -23.845100
v 65.263695 -5.321695 -26.228359
v 65.580292 4.393883 -10.078724
v 66.084457 21.711147 -20.094229
v 65.933640 15.292008 -14.130195
v 38.270195 -26.727478 -25.090246
v 38.556656 -16.876703 -34.753662
v 38.276978 -6.691051 -37.407627
v 38.279068 5.290675 -30.959286
v 38.273373 20.943800 -15.674878
v 38.271011 30.617901 -0.000001
v 54.377350 -25.873590 -0.000001
v 38.025032 -30.001942 -4.481042
v 87.947647 -11.214600 -5.928600
v 83.788300 11.822182 -10.937695
v 87.966492 -4.349636 -16.390091
v 83.086151 1.912444 -12.365879
v 83.654999 9.064900 -11.667665
v 87.964630 1.112460 -0.000002
v 18.068567 39.286266 -15.704847
v 16.951305 -31.003176 -30.389175
v 17.569889 -19.928947 -18.145376
v 17.514458 34.727299 -41.078251
v 19.177788 -8.076555 -43.472301
v 19.453133 5.494909 -37.215260
v 19.299967 23.253832 -0.000000
v 111.869781 10.065230 -11.786283
v 113.201233 -0.112418 -14.731773
v 112.240784 -0.392830 -15.173872
v 113.772461 3.633196 -8.375339
v 108.277496 -8.389017 -11.588936
v 107.674881 -4.373513 -4.368942
v 88.348572 8.733921 -13.104090
v 107.061127 -3.411471 -9.103678
v 88.296295 6.511399 -11.804134
v 113.871155 7.252557 -12.147762
v 114.408157 3.666110 -6.142079
v 116.661224 -2.395733 -4.628687
v 101.468185 -14.739777 -8.180883
v 113.729523 -2.358672 -5.935386
v 118.932663 1.249916 -6.691352
v 115.653091 4.799118 -1.102558
v 96.255493 -13.962761 0.000001
v 92.527512 -12.171432 0.000000
v 92.741684 8.728627 -4.309388
v 92.446808 -10.756516 -9.740318
v 101.923172 -13.252990 -8.303343
v 92.591553 -7.973477 -5.858603
v 106.451736 10.349090 -4.574904
v 100.004852 9.746399 -10.388740
v 111.297913 9.049767 -14.668436
v 112.542160 7.635561 -10.323977
v 106.015320 10.402110 -12.387400
v 102.690063 3.156786 -13.380383
v 107.256180 10.482707 -12.456746
v 103.493469 -6.693875 -11.326384
v 97.368408 1.721220 -8.901662
v 102.252808 8.914151 -9.824759
v 92.582504 -4.106722 -10.592977
v 92.579010 0.947240 -12.367895
v 104.175629 7.446018 -12.093910
v 103.782791 -1.071233 -5.746298
v 111.487854 9.696289 -21.502186
v 111.444382 -0.287202 -22.334332
v 111.461014 7.472109 -19.600021
v 107.535599 10.075995 -16.889782
v 102.198029 6.862353 -16.583546
v 101.059860 3.094210 -18.749716
v 106.924164 -3.314049 -17.199785
v 101.999237 -0.856519 -22.992846
v 110.002686 6.320611 -20.310760
v 105.961594 8.505207 -18.728174
v 101.892242 6.152978 -20.558283
v 106.235977 -2.324458 -18.776567
v 102.008698 0.187318 -22.555475
v 112.513153 3.567892 -22.977837
v 109.883667 0.331533 -4.871791
v 95.347824 -11.482845 -8.267467
v 95.313477 -9.293817 -10.469522
v 95.853439 -5.330612 -8.440730
v 92.884888 6.467936 -4.479628
v 92.797211 8.201401 -12.273277
v 99.388153 -6.638391 -12.221806
v 99.631348 1.682880 -8.275528
v 97.893478 7.716687 -24.556799
v 100.422821 4.999477 -24.697275
v 100.579193 0.262159 -27.409872
v 107.620728 5.080394 -25.941986
v 103.696442 -1.666871 -42.556328
v 93.429123 4.155311 -45.344955
v 99.612564 4.512893 -27.291193
v 107.460846 0.017304 -24.920198
v 104.097748 7.439153 -26.851061
v 99.492264 4.721270 -29.583435
v 106.736786 4.979864 -29.003218
v 102.519730 6.985729 -27.135807
v 103.275757 7.461090 -29.508957
v 106.545868 -0.010025 -28.176710
v 102.746063 -1.746927 -26.920527
v 99.600037 0.249583 -32.524979
v 96.533432 -0.304350 -34.043430
v 100.166779 -2.821096 -35.712116
v 104.491165 -0.809330 -35.860435
v 104.553177 5.244628 -34.062160
v 100.325790 7.442347 -32.386593
v 96.575531 4.906694 -37.894634
v 94.969543 4.434677 -39.474880
v 98.123413 6.593183 -39.392235
v 97.946182 -2.590838 -37.857903
v 94.890762 -0.167297 -41.111168
v 101.783585 4.806405 -41.100555
v 101.760864 -0.781414 -43.942329
v 96.242432 6.017178 -42.308510
v 93.345795 -0.186623 -43.616524
v 96.132263 -2.531463 -45.099113
v 99.779785 -0.829872 -8.787138
v 87.973358 -8.192576 -2.703771
v 99.490143 -14.339169 -5.365857
v 108.274170 -9.517661 -2.703771
v 99.490143 -14.339169 -6.600409
v 115.045853 7.044831 -4.669837
v 105.258347 -12.876033 -9.243743
v 105.487488 -11.454597 -4.896243
v 98.008118 -13.561770 -9.275312
v 98.096985 -12.091852 -11.354244
v 97.620789 -6.030345 -12.663394
v 115.336044 -2.666772 -16.850548
v 114.382339 -2.834196 -21.534410
v 112.140442 -2.814447 -8.543115
v 114.490189 -1.746016 -15.000530
v 108.460190 11.739300 -17.044744
v 115.943924 8.617970 -21.956177
v 113.702057 7.652230 -17.279554
v 116.175537 2.849191 -22.130825
v 113.931168 2.849189 -19.324688
v 107.680817 10.271683 -7.454675
v 110.158691 11.799532 -8.166208
v 115.780609 7.814030 -8.543116
v 116.307678 2.849191 -12.411647
v 116.897614 8.721468 -10.889061
v 109.496841 12.155883 -13.008103
v 117.141846 2.849187 -15.121758
v 107.543518 -5.546602 -18.853600
v 106.363800 -4.749395 -8.490788
v 109.984879 -6.502365 -11.876393
v 108.643921 -5.503825 -15.910211
v 84.809799 3.701430 -12.328719
v 84.996048 7.954476 -16.805889
v 79.741959 10.218699 -31.133175
v 63.407471 8.080149 -25.590370
v 63.370934 15.440276 -34.116173
v 57.940598 8.569253 -28.350519
v 57.822643 17.383871 -25.903355
v 71.698471 6.978467 -21.540012
v 71.765327 12.916088 -38.038315
v 49.928085 8.482757 -31.217348
v 49.576679 20.199827 -20.407406
v 79.517746 5.237665 -9.220176
v 88.355942 5.895848 -10.492436
v 88.506958 2.019332 -38.723179
v 40.447186 15.329852 -14.234000
v 84.757172 -4.589335 -14.335073
v 85.368195 0.077891 -19.487160
v 80.082062 -0.686809 -29.048954
v 63.045773 -9.966981 -30.455261
v 63.747334 -0.911777 -31.797340
v 57.527149 -10.986211 -34.097637
v 58.249043 -0.754614 -24.087353
v 71.447037 -7.914530 -25.286716
v 72.106339 -0.978526 -34.904953
v 49.431114 -12.704607 -38.561459
v 50.155762 0.320751 -18.457691
v 79.364594 -6.389302 -11.230152
v 88.323105 0.427550 -10.920115
v 88.202957 -3.021547 -40.772316
v 40.521114 -7.044572 0.000000
v 71.916672 6.790865 0.000001
v 96.203552 -11.507483 -7.892408
v 85.970810 6.483482 -4.914298
v 95.637085 -10.269477 -12.420925
v 85.811340 -0.961973 -6.113218
v 84.597794 -8.526892 -11.743647
v 81.259964 6.081713 -7.933943
v 81.867203 9.946150 -14.431840
v 80.418228 -0.460524 -7.193523
v 78.195053 -7.934029 -12.391365
v 79.363449 -5.645861 -15.930883
v 74.294037 -0.114798 -13.668089
v 74.246933 -6.448441 -9.133305
v 75.819489 10.104842 -13.842685
v 75.245056 5.513745 -9.297134
v 20.264702 -2.586937 -17.204369
v 20.265863 2.800809 -7.471298
v 20.263885 2.228154 -1.578796
v 71.732727 0.407195 -2.517106
v 72.838348 -6.118457 -16.273344
v 61.238453 1.330633 -9.189055
v 60.962254 -8.349243 -3.868527
v 60.538136 -5.700882 -2.639496
v 60.193581 0.739916 -10.037151
v 71.281830 8.316416 -14.518494
v 61.267475 -5.957134 -5.720014
v 49.485336 -4.992260 -4.933090
v 45.601574 1.223328 -6.882037
v 46.695221 6.816225 -12.316338
v 47.043743 6.663717 -14.222160
v 50.382381 -4.519933 -15.951599
v 46.731354 1.763584 -4.798631
v 60.583775 7.449693 -11.600007
v 61.100105 7.329613 -10.521891
v 46.646202 -6.920057 -6.317609
v 46.230331 -4.815236 -14.510117
v 47.241196 -4.363330 -10.878220
v 43.308475 -6.292440 -14.682620
v 44.178055 -4.079066 -6.955082
v 43.504086 -4.681977 -17.414549
v 35.977295 3.111614 -13.876110
v 36.258957 8.683967 -7.502649
v 35.936657 8.924902 -5.179392
v 34.617271 2.729721 -3.177334
v 70.987656 8.051791 -10.119942
v 49.943409 -6.861848 -15.499416
v 49.321869 1.617449 -11.986691
v 49.079174 6.302315 -6.913686
v 48.539841 6.430012 -4.806090
v 48.442997 1.133678 0.000001
v 90.590378 -10.690756 -5.125807
v 90.730972 -9.334616 -7.791546
v 73.788223 -8.163167 -11.105582
v 85.131516 -5.751204 -5.009944
v 116.060699 3.682956 -4.731466
v 114.336578 -0.861267 -4.507625
v 119.760315 -1.870012 -8.601362
v 113.053406 -0.533443 -7.474737
v 113.474747 7.465225 -10.627808
v 109.561737 -3.173153 -10.934699
v 112.229263 7.768516 -8.480065
v 114.634201 3.825655 -11.470344
v 112.694748 -0.908759 -11.904907
v 113.784912 3.735764 -5.972379
v 109.942932 -6.343665 -4.591614
v 98.052444 -13.212392 -4.719614
v 101.552170 -13.973433 -4.995641
v 105.558365 -12.544181 -8.871485
v 105.256332 -11.208055 -10.209303
v 106.984619 -7.026031 0.000000
v 82.091522 10.272741 -0.000000
v 71.640945 0.357237 -16.083004
v 20.265392 -2.313049 -12.710943
v 20.265057 -3.855582 -9.300167
v 20.264067 6.971630 -14.665112
v 20.265272 7.107160 0.000001
v 101.873184 -13.628912 0.000002
v 118.314697 -4.114709 -5.032402
v 121.847443 2.502491 0.000001
v 77.209000 -8.413602 0.000001
v 109.272202 -7.277813 0.000000
v 86.436676 7.734852 -0.000000
v 116.831131 5.999372 -0.000000
v 112.293152 8.712035 0.000001
v 84.058502 -9.924293 0.000000
v 75.187820 10.886941 0.000000
v 72.451721 -6.192501 -0.000000
v 122.715271 5.133458 0.000001
v 104.428955 -12.716115 0.000001
v 98.267609 -12.757771 5.711400
v 112.156830 -6.502254 5.365860
v 108.271835 -9.517181 5.711400
v 112.156830 -6.502254 5.151420
v 108.388428 -11.335025 4.058568
v 102.765427 -14.324383 2.703773
v 99.490158 -14.339169 6.142079
v 116.655396 -2.402370 8.448583
v 114.697083 1.305560 6.691351
v 115.655685 4.793454 6.691356
v 115.655792 4.886782 3.356306
v 116.480789 7.595031 0.000000
v 116.626999 7.942039 4.058570
v 102.765411 -13.908092 1.102560
v 96.255508 -13.962761 4.481040
v 87.947662 -11.214602 0.000001
v 87.998520 -12.458691 8.787140
v 87.973358 -8.192575 12.387402
v 102.690399 3.160408 11.326384
v 97.368423 1.721218 10.592977
v 92.579025 0.947241 11.667666
v 87.964630 1.112461 9.103679
v 88.296295 6.511400 10.937697
v 87.966507 -4.349634 11.667666
v 87.964630 1.112461 4.368942
v 88.348572 8.733922 0.000000
v 88.501236 8.954801 12.367897
v 104.178467 7.448819 16.889782
v 102.198013 6.862332 18.728176
v 101.892227 6.152958 12.221806
v 99.631348 1.682880 24.556799
v 100.422821 4.999466 26.851065
v 99.492279 4.721265 32.386600
v 96.575531 4.906699 37.894638
v 94.969543 4.434681 42.556328
v 93.429138 4.155313 22.130827
v 113.931183 2.849225 18.853603
v 106.363846 -4.749399 21.534412
v 112.140472 -2.814420 19.324688
v 107.680771 10.271688 21.956177
v 113.702026 7.652265 15.000507
v 108.463654 11.739365 10.889056
v 109.503372 12.155934 11.876393
v 108.638382 -5.503358 15.121761
v 107.540390 -5.546207 7.454666
v 110.169418 11.799763 8.490782
v 109.979568 -6.502278 0.000001
v 84.058502 -9.924293 6.113219
v 84.597809 -8.526890 1.578796
v 71.732735 0.407194 4.806092
v 48.443005 1.133678 4.933090
v 45.601578 1.223328 5.179392
v 34.617271 2.729722 2.639497
v 60.193581 0.739914 7.471300
v 20.263885 2.228154 -0.000000
v 71.640945 0.357237 4.914300
v 95.637100 -10.269476 0.000001
v 96.203552 -11.507483 8.507658
v 85.480637 10.965526 6.637398
v 91.300552 9.278177 1.140296
v 80.957489 -17.691236 0.025796
v 85.224716 12.906906 0.031906
v 91.153732 9.715561 8.081239
v 78.795975 -17.850466 2.234575
v 83.924377 -16.506601 7.558702
v 82.109848 -16.606810 7.251539
v 75.913742 -18.741415 1.332576
v 77.675827 -18.566910 0.000001
v 94.529221 -12.940328 -5.711398
v 112.162140 -6.501487 -5.365857
v 108.274170 -9.517661 -5.151418
v 108.391129 -11.335492 -5.711398
v 112.162140 -6.501487 0.000000
v 116.626999 7.942039 -0.000000
v 120.705978 7.771181 -4.058567
v 102.765427 -14.324382 -2.703771
v 99.490143 -14.339169 0.000001
v 87.998520 -12.458691 0.000001
v 82.799576 -13.677862 -0.000001
v 76.982788 17.949095 -0.000000
v 83.944092 12.684818 0.000000
v 55.292839 29.271786 -0.000001
v 66.196541 24.194057 -0.000002
v 48.362392 31.617634 -0.000001
v 38.274910 34.434086 -0.000001
v 26.501621 37.330757 -0.000000
v 75.002884 -17.841404 -0.000000
v 64.995102 -22.407896 -0.000000
v 47.577148 -27.772730 -0.000001
v 54.377350 -25.873590 -0.000001
v 38.025032 -30.001942 -0.000001
v 25.631485 -32.315834 0.000000
v 88.501236 8.954801 -0.000002
v 18.068567 39.286266 -0.000001
v 16.331079 -33.900566 -6.142079
v 116.661224 -2.395733 -8.448584
v 114.698578 1.310611 -6.691352
v 115.653091 4.799118 -6.691358
v 115.653107 4.892445 -0.000000
v 111.869781 10.065230 -3.356305
v 116.480789 7.595029 0.000000
v 116.626999 7.942039 -4.058571
v 102.765396 -13.908092 -1.102558
v 96.255493 -13.962761 0.000001
v 94.117477 -12.264011 0.000001
v 94.529221 -12.940328 0.000001
v 92.527512 -12.171432 -4.481042
v 87.947647 -11.214600 0.000001
v 87.998520 -12.458691 -8.787138
v 87.973358 -8.192576 -12.387400
v 102.690063 3.156786 -10.592977
v 92.579010 0.947240 -11.326384
v 97.368408 1.721220 -11.667665
v 87.964630 1.112460 -9.103678
v 88.296295 6.511399 -10.937695
v 87.966492 -4.349636 -11.667665
v 87.964630 1.112460 0.000000
v 99.669388 9.562024 -4.368942
v 88.348572 8.733921 0.000000
v 88.501236 8.954801 0.000000
v 92.741684 8.728627 0.000001
v 106.834930 10.694317 -12.367895
v 104.175629 7.446018 -16.889782
v 102.198029 6.862353 -18.728174
v 101.892242 6.152978 -12.221806
v 99.631348 1.682880 -24.556799
v 100.422821 4.999477 -26.851061
v 99.492264 4.721270 -32.386593
v 96.575531 4.906694 -37.894634
v 94.969543 4.434677 -42.556328
v 93.429123 4.155311 -22.130825
v 113.931168 2.849189 -21.534410
v 112.140442 -2.814447 -18.853600
v 106.363800 -4.749395 -19.324688
v 107.680817 10.271683 -21.956177
v 113.702057 7.652230 -15.000530
v 108.460190 11.739300 -11.876393
v 108.643921 -5.503825 -10.889061
v 109.496841 12.155883 -15.121758
v 107.543518 -5.546602 -8.490788
v 109.984879 -6.502365 -7.454675
v 110.158691 11.799532 0.000001
v 90.590378 -10.690756 0.000001
v 84.058502 -9.924293 0.000001
v 84.058502 -9.924293 -6.113218
v 84.597794 -8.526892 0.000000
v 82.091522 10.272741 0.000000
v 86.436676 7.734852 -0.000000
v 71.640945 0.357237 0.000000
v 71.916672 6.790865 0.000000
v 75.187820 10.886941 -1.578796
v 71.732727 0.407195 -4.806090
v 48.442997 1.133678 -4.933090
v 45.601574 1.223328 -5.179392
v 34.617271 2.729721 -2.639496
v 60.193581 0.739916 -7.471298
v 20.263885 2.228154 0.000001
v 77.209000 -8.413602 0.000000
v 72.451721 -6.192501 -0.000000
v 71.640945 0.357237 0.000001
v 96.203552 -11.507483 -0.000000
v 116.831131 5.999372 -0.000000
v 122.715271 5.133458 0.000002
v 118.314697 -4.114709 0.000001
v 113.354782 -3.374938 0.000001
v 96.203552 -11.507483 -4.914298
v 95.637085 -10.269477 0.000001
v 104.428955 -12.716115 0.000001
v 109.272202 -7.277813 0.000001
v 98.267609 -12.757771 0.000001
v 101.873184 -13.628912 -0.000000
v 112.293152 8.712035 0.254930

vt 0.783568 0.693695
vt 0.992805 0.667934
vt 0.858663 0.692373
vt 0.821119 0.643039
vt 0.967020 0.650234
vt 0.903667 0.699911
vt 0.852633 0.715020
vt 0.815749 0.690687
vt 0.957661 0.691627
vt 0.891342 0.729824
vt 0.955040 0.691157
vt 0.924502 0.646636
vt 0.935344 0.159063
vt 0.180840 0.431662
vt 0.505275 0.552215
vt 0.926900 0.731880
vt 0.996251 0.094678
vt 0.177833 0.265328
vt 0.120104 0.021612
vt 0.188663 0.225985
vt 0.123500 0.048154
vt 0.143845 0.730681
vt 0.887957 0.009780
vt 0.067952 0.180234
vt 0.127360 0.258644
vt 0.172397 0.206382
vt 0.179569 0.735091
vt 0.888958 0.907342
vt 0.371910 0.933425
vt 0.306385 0.532289
vt 0.597703 0.569993
vt 0.583778 0.606302
vt 0.574181 0.513176
vt 0.544252 0.554338
vt 0.529958 0.770265
vt 0.543962 0.601775
vt 0.519621 0.654613
vt 0.516020 0.718234
vt 0.527860 0.461708
vt 0.408660 0.519621
vt 0.390512 0.815330
vt 0.394864 0.588588
vt 0.369723 0.648407
vt 0.363030 0.734433
vt 0.373410 0.446495
vt 0.365733 0.508094
vt 0.342881 0.828679
vt 0.346501 0.583118
vt 0.322969 0.647363
vt 0.315675 0.738560
vt 0.324572 0.400566
vt 0.238308 0.477237
vt 0.207771 0.867727
vt 0.205137 0.567458
vt 0.186222 0.641452
vt 0.179451 0.747487
vt 0.184026 0.487236
vt 0.478469 0.537354
vt 0.463474 0.594924
vt 0.445624 0.653088
vt 0.439480 0.795183
vt 0.468993 0.726825
vt 0.450650 0.425675
vt 0.307068 0.496379
vt 0.283982 0.574957
vt 0.258445 0.644409
vt 0.250120 0.743959
vt 0.256295 0.847699
vt 0.279753 0.378220
vt 0.394704 0.321196
vt 0.265990 0.541500
vt 0.629262 0.752769
vt 0.594922 0.610742
vt 0.612686 0.654853
vt 0.569322 0.709722
vt 0.579622 0.657616
vt 0.610143 0.375036
vt 0.180474 0.464796
vt 0.148206 0.885528
vt 0.147826 0.560745
vt 0.129638 0.639070
vt 0.122140 0.751940
vt 0.127298 0.296054
vt 0.212181 0.287466
vt 0.878339 0.282874
vt 0.848963 0.322949
vt 0.851073 0.217809
vt 0.893108 0.222784
vt 0.865469 0.741227
vt 0.622971 0.222784
vt 0.841881 0.706243
vt 0.612946 0.358105
vt 0.878216 0.324153
vt 0.875642 0.133260
vt 0.125755 0.127675
vt 0.929427 0.291992
vt 0.899747 0.349122
vt 0.931628 0.205692
vt 0.179423 0.739342
vt 0.806964 0.509299
vt 0.644526 0.055933
vt 0.923707 0.140044
vt 0.888208 0.058997
vt 0.877237 0.462661
vt 0.896213 0.531318
vt 0.885111 0.395510
vt 0.882397 0.361665
vt 0.851478 0.442335
vt 0.862855 0.483757
vt 0.780662 0.418199
vt 0.840940 0.167743
vt 0.848976 0.536316
vt 0.780310 0.495931
vt 0.852557 0.058675
vt 0.838156 0.573232
vt 0.771275 0.467317
vt 0.812798 0.170578
vt 0.814299 0.413060
vt 0.917589 0.291144
vt 0.783230 0.355698
vt 0.779356 0.398916
vt 0.785850 0.133199
vt 0.734645 0.160670
vt 0.755654 0.238697
vt 0.785409 0.191558
vt 0.772035 0.351844
vt 0.763871 0.402552
vt 0.766194 0.147268
vt 0.727871 0.245754
vt 0.762313 0.196512
vt 0.751462 0.324438
vt 0.781708 0.294503
vt 0.762106 0.083014
vt 0.924547 0.092687
vt 0.886386 0.098676
vt 0.845416 0.582065
vt 0.825388 0.594240
vt 0.865619 0.125017
vt 0.846932 0.513841
vt 0.777958 0.538733
vt 0.841897 0.433669
vt 0.699480 0.213778
vt 0.694686 0.347664
vt 0.703443 0.256638
vt 0.698195 0.429896
vt 0.536710 0.353184
vt 0.537656 0.297691
vt 0.701564 0.392070
vt 0.710143 0.434084
vt 0.679361 0.346970
vt 0.682696 0.390066
vt 0.673127 0.390220
vt 0.692295 0.297965
vt 0.679858 0.258166
vt 0.675184 0.216184
vt 0.672309 0.217467
vt 0.623224 0.259234
vt 0.624824 0.298197
vt 0.626525 0.349992
vt 0.630152 0.392303
vt 0.631998 0.437385
vt 0.629477 0.433202
vt 0.574644 0.391540
vt 0.578179 0.259105
vt 0.571602 0.216582
vt 0.569396 0.351793
vt 0.578682 0.299108
vt 0.575330 0.390530
vt 0.538840 0.217625
vt 0.533231 0.260284
vt 0.533855 0.300336
vt 0.536308 0.576021
vt 0.618459 0.732188
vt 0.848576 0.079231
vt 0.973936 0.209795
vt 0.928919 0.124353
vt 0.948450 0.358321
vt 0.918922 0.168735
vt 0.929173 0.178927
vt 0.890658 0.105345
vt 0.926987 0.116366
vt 0.887297 0.111847
vt 0.846174 0.593130
vt 0.715558 0.589471
vt 0.679527 0.580175
vt 0.637012 0.592944
vt 0.751381 0.757711
vt 0.678973 0.685947
vt 0.678047 0.684828
vt 0.632688 0.638557
vt 0.675509 0.636698
vt 0.628899 0.509183
vt 0.712851 0.751631
vt 0.752052 0.690330
vt 0.752109 0.640485
vt 0.754599 0.687590
vt 0.716027 0.756478
vt 0.721125 0.640184
vt 0.713699 0.524698
vt 0.687112 0.523295
vt 0.651709 0.544220
vt 0.750218 0.531823
vt 0.719927 0.914290
vt 0.864337 0.964019
vt 0.869927 0.964543
vt 0.799528 0.887754
vt 0.617251 0.976270
vt 0.622564 0.880475
vt 0.560205 0.982027
vt 0.562167 0.900563
vt 0.707821 0.970053
vt 0.712286 0.866545
vt 0.483125 0.994966
vt 0.480784 0.909271
vt 0.794802 0.961679
vt 0.949945 0.922601
vt 0.948656 0.925319
vt 0.391473 0.914290
vt 0.864337 0.964019
vt 0.869927 0.964543
vt 0.799528 0.887754
vt 0.617251 0.976270
vt 0.622564 0.880475
vt 0.560205 0.982027
vt 0.562167 0.900563
vt 0.707821 0.970053
vt 0.712286 0.866545
vt 0.483125 0.994966
vt 0.480784 0.909271
vt 0.794802 0.961679
vt 0.949945 0.922601
vt 0.948656 0.925319
vt 0.391473 0.106102
vt 0.507690 0.305487
vt 0.478441 0.147171
vt 0.498387 0.311041
vt 0.410912 0.116123
vt 0.474123 0.084729
vt 0.481670 0.147233
vt 0.469463 0.208847
vt 0.469811 0.176006
vt 0.467992 0.146312
vt 0.439602 0.178362
vt 0.441882 0.087268
vt 0.451857 0.118855
vt 0.445354 0.216198
vt 0.193049 0.137543
vt 0.193020 0.256356
vt 0.193037 0.014974
vt 0.413677 0.246754
vt 0.444216 0.139704
vt 0.382224 0.207019
vt 0.383860 0.237925
vt 0.380840 0.269722
vt 0.372696 0.092666
vt 0.426977 0.177343
vt 0.384224 0.227750
vt 0.327053 0.256313
vt 0.302124 0.075661
vt 0.306530 0.106263
vt 0.307954 0.176068
vt 0.330616 0.141195
vt 0.307830 0.064024
vt 0.378224 0.100202
vt 0.381156 0.201043
vt 0.313923 0.225938
vt 0.311131 0.175984
vt 0.314379 0.199973
vt 0.296090 0.173908
vt 0.298517 0.224564
vt 0.297353 0.141836
vt 0.256228 0.108445
vt 0.257192 0.079263
vt 0.257438 0.256652
vt 0.252692 0.053502
vt 0.427680 0.202254
vt 0.329932 0.140272
vt 0.321287 0.105191
vt 0.318157 0.075132
vt 0.315274 0.043499
vt 0.313832 0.308907
vt 0.445672 0.210028
vt 0.445525 0.174573
vt 0.498899 0.830897
vt 0.889023 0.829825
vt 0.828816 0.888113
vt 0.848360 0.785889
vt 0.825765 0.783857
vt 0.918280 0.757052
vt 0.777077 0.746074
vt 0.906652 0.788125
vt 0.876384 0.748723
vt 0.822384 0.745385
vt 0.867530 0.813653
vt 0.757998 0.821271
vt 0.639261 0.833679
vt 0.667678 0.838772
vt 0.702923 0.801938
vt 0.707045 0.773603
vt 0.740802 0.178823
vt 0.193028 0.197783
vt 0.193038 0.079321
vt 0.193044 0.110769
vt 0.193025 0.890786
vt 0.888315 0.863479
vt 0.789332 0.432974
vt 0.011970 0.473491
vt 0.101243 0.557431
vt 0.101304 0.522350
vt 0.012022 0.353817
vt 0.011996 0.395460
vt 0.101246 0.303354
vt 0.101280 0.267665
vt 0.012016 0.645165
vt 0.011970 0.764704
vt 0.101236 0.855389
vt 0.101268 0.860686
vt 0.011975 0.760118
vt 0.011907 0.664764
vt 0.101301 0.989030
vt 0.012509 0.957686
vt 0.100803 0.212543
vt 0.101320 0.191415
vt 0.012055 0.130147
vt 0.101361 0.121362
vt 0.012129 0.031437
vt 0.059020 0.432974
vt 0.011970 0.473491
vt 0.101243 0.557431
vt 0.101304 0.522350
vt 0.012022 0.353817
vt 0.011996 0.395460
vt 0.101246 0.303354
vt 0.101280 0.131032
vt 0.678541 0.645165
vt 0.011970 0.764704
vt 0.101236 0.855389
vt 0.101268 0.860686
vt 0.011975 0.760118
vt 0.011907 0.664764
vt 0.101301 0.303354
vt 0.101280 0.012990
vt 0.678404 0.212543
vt 0.101320 0.191415
vt 0.012055 0.130147
vt 0.101361 0.121362
vt 0.012129 0.031437
vt 0.059020 0.157706
vt 0.538135 0.025053
vt 0.538181 0.136545
vt 0.701185 0.004344
vt 0.701117 0.284704
vt 0.055636 0.010410
vt 0.619856 0.693695
vt 0.992805 0.667934
vt 0.858663 0.692373
vt 0.821119 0.643039
vt 0.967020 0.650234
vt 0.903667 0.699911
vt 0.852633 0.715020
vt 0.815749 0.690687
vt 0.957661 0.691627
vt 0.891342 0.729824
vt 0.955040 0.691157
vt 0.924502 0.646636
vt 0.935344 0.159063
vt 0.180840 0.304732
vt 0.167310 0.493086
vt 0.616724 0.465626
vt 0.568158 0.791913
vt 0.612828 0.774660
vt 0.640571 0.070467
vt 0.973415 0.484190
vt 0.952857 0.731880
vt 0.996251 0.301783
vt 0.117537 0.094678
vt 0.177833 0.265328
vt 0.120104 0.021612
vt 0.188663 0.225985
vt 0.123500 0.048154
vt 0.143845 0.730681
vt 0.887957 0.009780
vt 0.067952 0.180234
vt 0.127360 0.258644
vt 0.172397 0.206382
vt 0.179569 0.735091
vt 0.888958 0.818917
vt 0.564810 0.888363
vt 0.417939 0.962560
vt 0.231338 0.855340
vt 0.491420 0.532289
vt 0.597703 0.569993
vt 0.583778 0.606302
vt 0.574181 0.513176
vt 0.544252 0.554338
vt 0.529958 0.770265
vt 0.543962 0.601775
vt 0.519621 0.654613
vt 0.516020 0.718234
vt 0.527860 0.461708
vt 0.408660 0.519621
vt 0.390512 0.815330
vt 0.394864 0.588588
vt 0.369723 0.648407
vt 0.363030 0.734433
vt 0.373410 0.446495
vt 0.365733 0.508094
vt 0.342881 0.828679
vt 0.346501 0.583118
vt 0.322969 0.647363
vt 0.315675 0.738560
vt 0.324572 0.400566
vt 0.238308 0.477237
vt 0.207771 0.867727
vt 0.205137 0.567458
vt 0.186222 0.641452
vt 0.179451 0.747487
vt 0.184026 0.487236
vt 0.478469 0.537354
vt 0.463474 0.594924
vt 0.445624 0.653088
vt 0.439480 0.795183
vt 0.468993 0.726825
vt 0.450650 0.425675
vt 0.307068 0.496379
vt 0.283982 0.574957
vt 0.258445 0.644409
vt 0.250120 0.743959
vt 0.256295 0.847699
vt 0.279753 0.398228
vt 0.438085 0.351668
vt 0.335050 0.541500
vt 0.629262 0.752769
vt 0.594922 0.610742
vt 0.612686 0.654853
vt 0.569322 0.709722
vt 0.579622 0.657616
vt 0.610143 0.983436
vt 0.178903 0.375036
vt 0.180474 0.464796
vt 0.148206 0.885528
vt 0.147826 0.560745
vt 0.129638 0.639070
vt 0.122140 0.751940
vt 0.127298 0.434870
vt 0.972830 0.287466
vt 0.878339 0.282874
vt 0.848963 0.322949
vt 0.851073 0.217809
vt 0.893108 0.222784
vt 0.865469 0.741227
vt 0.622971 0.222784
vt 0.841881 0.706243
vt 0.612946 0.358105
vt 0.878216 0.324153
vt 0.875642 0.133260
vt 0.125755 0.127675
vt 0.929427 0.291992
vt 0.899747 0.349122
vt 0.931628 0.205692
vt 0.179423 0.739342
vt 0.806964 0.055944
vt 0.969343 0.606699
vt 0.909568 0.055933
vt 0.923707 0.140044
vt 0.888208 0.058997
vt 0.877237 0.462661
vt 0.896213 0.531318
vt 0.885111 0.395510
vt 0.882397 0.361665
vt 0.851478 0.442335
vt 0.862855 0.483757
vt 0.780662 0.418199
vt 0.840940 0.167743
vt 0.848976 0.536316
vt 0.780310 0.495931
vt 0.852557 0.058675
vt 0.838156 0.573232
vt 0.771275 0.467317
vt 0.812798 0.170578
vt 0.814299 0.413060
vt 0.917589 0.291144
vt 0.783230 0.355698
vt 0.779356 0.398916
vt 0.785850 0.133199
vt 0.734645 0.160670
vt 0.755654 0.238697
vt 0.785409 0.191558
vt 0.772035 0.351844
vt 0.763871 0.402552
vt 0.766194 0.147268
vt 0.727871 0.245754
vt 0.762313 0.196512
vt 0.751462 0.324438
vt 0.781708 0.294503
vt 0.762106 0.083014
vt 0.924547 0.092687
vt 0.886386 0.098676
vt 0.845416 0.582065
vt 0.825388 0.594240
vt 0.865619 0.125017
vt 0.846932 0.513841
vt 0.777958 0.538733
vt 0.841897 0.433669
vt 0.699480 0.213778
vt 0.694686 0.347664
vt 0.703443 0.256638
vt 0.698195 0.429896
vt 0.536710 0.353184
vt 0.537656 0.297691
vt 0.701564 0.392070
vt 0.710143 0.434084
vt 0.679361 0.346970
vt 0.682696 0.390066
vt 0.673127 0.390220
vt 0.692295 0.297965
vt 0.679858 0.258166
vt 0.675184 0.216184
vt 0.672309 0.217467
vt 0.623224 0.259234
vt 0.624824 0.298197
vt 0.626525 0.349992
vt 0.630152 0.392303
vt 0.631998 0.437385
vt 0.629477 0.433202
vt 0.574644 0.391540
vt 0.578179 0.259105
vt 0.571602 0.216582
vt 0.569396 0.351793
vt 0.578682 0.299108
vt 0.575330 0.390530
vt 0.538840 0.217625
vt 0.533231 0.260284
vt 0.533855 0.300336
vt 0.536308 0.576021
vt 0.618459 0.732188
vt 0.848576 0.209795
vt 0.928919 0.124353
vt 0.948450 0.358321
vt 0.918922 0.168735
vt 0.929173 0.178927
vt 0.890658 0.105345
vt 0.926987 0.116366
vt 0.887297 0.111847
vt 0.846174 0.593130
vt 0.715558 0.589471
vt 0.679527 0.580175
vt 0.637012 0.592944
vt 0.751381 0.757711
vt 0.678973 0.685947
vt 0.678047 0.684828
vt 0.632688 0.638557
vt 0.675509 0.636698
vt 0.628899 0.509183
vt 0.712851 0.751631
vt 0.752052 0.690330
vt 0.752109 0.640485
vt 0.754599 0.687590
vt 0.716027 0.756478
vt 0.721125 0.640184
vt 0.713699 0.524698
vt 0.687112 0.523295
vt 0.651709 0.544220
vt 0.750218 0.531823
vt 0.719927 0.914290
vt 0.864337 0.964019
vt 0.869927 0.964543
vt 0.799528 0.887754
vt 0.617251 0.976270
vt 0.622564 0.880475
vt 0.560205 0.982027
vt 0.562167 0.900563
vt 0.707821 0.970053
vt 0.712286 0.866545
vt 0.483125 0.994966
vt 0.480784 0.909271
vt 0.794802 0.961679
vt 0.949945 0.922601
vt 0.948656 0.925319
vt 0.391473 0.914290
vt 0.864337 0.964019
vt 0.869927 0.964543
vt 0.799528 0.887754
vt 0.617251 0.976270
vt 0.622564 0.880475
vt 0.560205 0.982027
vt 0.562167 0.900563
vt 0.707821 0.970053
vt 0.712286 0.866545
vt 0.483125 0.994966
vt 0.480784 0.909271
vt 0.794802 0.961679
vt 0.949945 0.922601
vt 0.948656 0.925319
vt 0.391473 0.031286
vt 0.434469 0.329343
vt 0.488921 0.106102
vt 0.507690 0.305487
vt 0.478441 0.147171
vt 0.498387 0.311041
vt 0.410912 0.116123
vt 0.474123 0.084729
vt 0.481670 0.147233
vt 0.469463 0.208847
vt 0.469811 0.176006
vt 0.467992 0.146312
vt 0.439602 0.178362
vt 0.441882 0.087268
vt 0.451857 0.118855
vt 0.445354 0.216198
vt 0.193049 0.137543
vt 0.193020 0.256356
vt 0.193037 0.014974
vt 0.413677 0.246754
vt 0.444216 0.139704
vt 0.382224 0.207019
vt 0.383860 0.237925
vt 0.380840 0.269722
vt 0.372696 0.092666
vt 0.426977 0.177343
vt 0.384224 0.227750
vt 0.327053 0.256313
vt 0.302124 0.075661
vt 0.306530 0.106263
vt 0.307954 0.176068
vt 0.330616 0.141195
vt 0.307830 0.064024
vt 0.378224 0.100202
vt 0.381156 0.201043
vt 0.313923 0.225938
vt 0.311131 0.175984
vt 0.314379 0.199973
vt 0.296090 0.173908
vt 0.298517 0.224564
vt 0.297353 0.141836
vt 0.256228 0.108445
vt 0.257192 0.079263
vt 0.257438 0.256652
vt 0.252692 0.053502
vt 0.427680 0.202254
vt 0.329932 0.140272
vt 0.321287 0.105191
vt 0.318157 0.075132
vt 0.315274 0.043499
vt 0.313832 0.335536
vt 0.451287 0.308907
vt 0.445672 0.210028
vt 0.445525 0.174573
vt 0.498899 0.830897
vt 0.889023 0.829825
vt 0.828816 0.888113
vt 0.848360 0.785889
vt 0.825765 0.783857
vt 0.918280 0.757052
vt 0.777077 0.746074
vt 0.906652 0.788125
vt 0.876384 0.748723
vt 0.822384 0.745385
vt 0.867530 0.813653
vt 0.757998 0.821271
vt 0.639261 0.833679
vt 0.667678 0.838772
vt 0.702923 0.801938
vt 0.707045 0.773603
vt 0.740802 0.050543
vt 0.490820 0.010300
vt 0.419952 0.178823
vt 0.193028 0.197783
vt 0.193038 0.079321
vt 0.193044 0.110769
vt 0.193025 0.874769
vt 0.664225 0.901461
vt 0.809975 0.890786
vt 0.888315 0.247617
vt 0.478072 0.866442
vt 0.752656 0.063747
vt 0.520207 0.857904
vt 0.937819 0.826973
vt 0.972832 0.344368
vt 0.418059 0.042806
vt 0.457787 0.260657
vt 0.452402 0.903139
vt 0.928668 0.878160
vt 0.689479 0.862855
vt 0.626608 0.030655
vt 0.111989 0.740987
vt 0.957217 0.731880
vt 0.996251 0.729824
vt 0.955040 0.730681
vt 0.887957 0.732188
vt 0.848576 0.314030
vt 0.934120 0.325332
vt 0.896648 0.352530
vt 0.919087 0.352492
vt 0.919064 0.372466
vt 0.956122 0.384730
vt 0.991240 0.156144
vt 0.940356 0.092938
vt 0.963124 0.010085
vt 0.923434 0.010068
vt 0.966842 0.014217
vt 0.881225 0.139373
vt 0.780504 0.093301
vt 0.780868 0.056752
vt 0.790758 0.614426
vt 0.767317 0.623031
vt 0.816887 0.016126
vt 0.841827 0.015205
vt 0.791023 0.634111
vt 0.855374 0.645962
vt 0.899682 0.111392
vt 0.753421 0.454259
vt 0.768640 0.445037
vt 0.751637 0.113822
vt 0.781597 0.169840
vt 0.684093 0.175085
vt 0.668671 0.171654
vt 0.623439 0.172100
vt 0.568724 0.174957
vt 0.530561 0.484944
vt 0.743963 0.450445
vt 0.717001 0.461921
vt 0.740322 0.747102
vt 0.639018 0.503272
vt 0.739834 0.513389
vt 0.695255 0.513625
vt 0.678616 0.445268
vt 0.688852 0.446155
vt 0.702177 0.511072
vt 0.665124 0.446271
vt 0.674739 0.237941
vt 0.511715 0.204614
vt 0.504568 0.280306
vt 0.423264 0.259048
vt 0.315242 0.044299
vt 0.300763 0.045984
vt 0.251848 0.030286
vt 0.369435 0.052668
vt 0.193044 0.286067
vt 0.430203 0.800049
vt 0.612196 0.855155
vt 0.607133 0.861489
vt 0.012246 0.856245
vt 0.100635 0.152184
vt 0.619881 0.989532
vt 0.012240 0.957867
vt 0.101438 0.284704
vt 0.055636 0.146948
vt 0.559402 0.034781
vt 0.559437 0.267665
vt 0.012016 0.267665
vt 0.012016 0.745070
vt 0.783568 0.030655
vt 0.111989 0.740987
vt 0.957217 0.729824
vt 0.955040 0.731880
vt 0.996251 0.304732
vt 0.167310 0.301783
vt 0.117537 0.730681
vt 0.887957 0.732188
vt 0.848576 0.509299
vt 0.644526 0.493086
vt 0.616724 0.818917
vt 0.564810 0.791913
vt 0.612828 0.888363
vt 0.417939 0.855340
vt 0.491420 0.907342
vt 0.371910 0.933425
vt 0.306385 0.962560
vt 0.231338 0.465626
vt 0.568158 0.431662
vt 0.505275 0.378220
vt 0.394704 0.398228
vt 0.438085 0.351668
vt 0.335050 0.321196
vt 0.265990 0.774660
vt 0.640571 0.983436
vt 0.178903 0.296054
vt 0.212181 0.314030
vt 0.934120 0.325332
vt 0.896648 0.352530
vt 0.919087 0.352492
vt 0.919064 0.434870
vt 0.972830 0.372466
vt 0.956122 0.384730
vt 0.991240 0.156144
vt 0.940356 0.092938
vt 0.963124 0.070467
vt 0.973415 0.079231
vt 0.973936 0.055944
vt 0.969343 0.010085
vt 0.923434 0.010068
vt 0.966842 0.014217
vt 0.881225 0.139373
vt 0.780504 0.056752
vt 0.790758 0.093301
vt 0.780868 0.614426
vt 0.767317 0.623031
vt 0.816887 0.016126
vt 0.841827 0.015205
vt 0.791023 0.552215
vt 0.926900 0.634111
vt 0.855374 0.645962
vt 0.899682 0.606699
vt 0.909568 0.484190
vt 0.952857 0.111392
vt 0.753421 0.454259
vt 0.768640 0.445037
vt 0.751637 0.113822
vt 0.781597 0.169840
vt 0.684093 0.175085
vt 0.668671 0.171654
vt 0.623439 0.172100
vt 0.568724 0.174957
vt 0.530561 0.484944
vt 0.743963 0.461921
vt 0.740322 0.450445
vt 0.717001 0.747102
vt 0.639018 0.503272
vt 0.739834 0.513389
vt 0.695255 0.445268
vt 0.688852 0.513625
vt 0.678616 0.446155
vt 0.702177 0.446271
vt 0.674739 0.511072
vt 0.665124 0.335536
vt 0.451287 0.344368
vt 0.418059 0.237941
vt 0.511715 0.204614
vt 0.504568 0.050543
vt 0.490820 0.063747
vt 0.520207 0.010300
vt 0.419952 0.031286
vt 0.434469 0.042806
vt 0.457787 0.280306
vt 0.423264 0.259048
vt 0.315242 0.044299
vt 0.300763 0.045984
vt 0.251848 0.030286
vt 0.369435 0.052668
vt 0.193044 0.247617
vt 0.478072 0.260657
vt 0.452402 0.286067
vt 0.430203 0.329343
vt 0.488921 0.857904
vt 0.937819 0.903139
vt 0.928668 0.901461
vt 0.809975 0.863479
vt 0.789332 0.855155
vt 0.607133 0.800049
vt 0.612196 0.878160
vt 0.689479 0.866442
vt 0.752656 0.862855
vt 0.626608 0.874769
vt 0.664225 0.826973
vt 0.972832 1.000000

f 646/646 237/237 680/680
f 646/646 235/235 282/282
f 239/239 238/238 234/234
f 236/236 234/234 238/238
f 238/238 240/240 236/236
f 732/732 733/733 241/241
f 733/733 284/284 242/242
f 240/240 284/284 236/236
f 242/242 241/241 733/733
f 239/239 677/677 666/666
f 677/677 239/239 234/234
f 250/250 596/596 667/667
f 245/245 681/681 256/256
f 243/243 257/257 244/244
f 257/257 243/243 252/252
f 283/283 241/241 244/244
f 244/244 257/257 253/253
f 276/276 264/264 256/256
f 256/256 265/265 246/246
f 251/251 254/254 255/255
f 734/734 251/251 255/255
f 253/253 258/258 254/254
f 258/258 253/253 277/277
f 281/281 280/280 264/264
f 278/278 252/252 279/279
f 257/257 262/262 277/277
f 277/277 253/253 257/257
f 267/267 259/259 735/735
f 735/735 254/254 258/258
f 268/268 262/262 278/278
f 261/261 280/280 260/260
f 280/280 261/261 279/279
f 264/264 265/265 256/256
f 258/258 266/266 267/267
f 266/266 258/258 277/277
f 262/262 266/266 277/277
f 266/266 262/262 268/268
f 278/278 263/263 268/268
f 735/735 258/258 267/267
f 273/273 263/263 261/261
f 263/263 273/273 272/272
f 269/269 267/267 266/266
f 267/267 269/269 271/271
f 268/268 269/269 266/266
f 269/269 268/268 270/270
f 275/275 247/247 249/249
f 247/247 275/275 271/271
f 736/736 274/274 260/260
f 274/274 736/736 737/737
f 261/261 274/274 273/273
f 274/274 261/261 260/260
f 263/263 270/270 268/268
f 301/301 272/272 248/248
f 272/272 301/301 270/270
f 272/272 270/270 263/263
f 259/259 267/267 271/271
f 270/270 301/301 269/269
f 302/302 269/269 301/301
f 271/271 275/275 259/259
f 738/738 264/264 276/276
f 276/276 250/250 738/738
f 271/271 269/269 247/247
f 273/273 248/248 272/272
f 248/248 273/273 304/304
f 304/304 273/273 274/274
f 274/274 303/303 304/304
f 739/739 274/274 737/737
f 274/274 739/739 303/303
f 681/681 276/276 256/256
f 675/675 241/241 682/682
f 252/252 243/243 246/246
f 251/251 253/253 254/254
f 283/283 251/251 241/241
f 734/734 682/682 251/251
f 256/256 246/246 245/245
f 278/278 261/261 263/263
f 252/252 262/262 257/257
f 281/281 736/736 260/260
f 265/265 252/252 246/246
f 682/682 241/241 251/251
f 682/682 734/734 740/740
f 276/276 681/681 596/596
f 276/276 596/596 250/250
f 245/245 666/666 681/681
f 238/238 246/246 240/240
f 242/242 240/240 244/244
f 238/238 239/239 245/245
f 241/241 675/675 732/732
f 666/666 245/245 239/239
f 246/246 243/243 240/240
f 243/243 244/244 240/240
f 244/244 241/241 242/242
f 245/245 246/246 238/238
f 279/279 261/261 278/278
f 278/278 262/262 252/252
f 264/264 279/279 265/265
f 279/279 252/252 265/265
f 281/281 260/260 280/280
f 279/279 264/264 280/280
f 254/254 735/735 255/255
f 738/738 281/281 264/264
f 282/282 237/237 646/646
f 646/646 597/597 235/235
f 253/253 251/251 283/283
f 253/253 283/283 244/244
f 284/284 240/240 242/242
f 286/286 287/287 305/305
f 305/305 285/285 286/286
f 678/678 285/285 305/305
f 305/305 683/683 678/678
f 287/287 286/286 673/673
f 306/306 673/673 286/286
f 296/296 741/741 742/742
f 292/292 285/285 289/289
f 293/293 292/292 294/294
f 292/292 293/293 288/288
f 291/291 292/292 289/289
f 290/290 288/288 293/293
f 299/299 298/298 295/295
f 292/292 291/291 294/294
f 684/684 676/676 298/298
f 685/685 297/297 296/296
f 297/297 685/685 672/672
f 295/295 288/288 290/290
f 742/742 685/685 296/296
f 678/678 679/679 289/289
f 295/295 306/306 286/286
f 306/306 295/295 676/676
f 295/295 286/286 288/288
f 285/285 678/678 289/289
f 285/285 288/288 286/286
f 288/288 285/285 292/292
f 298/298 676/676 295/295
f 684/684 298/298 297/297
f 290/290 300/300 295/295
f 300/300 299/299 295/295
f 269/269 302/302 247/247
f 297/297 672/672 684/684
f 827/827 828/828 601/601
f 827/827 647/647 599/599
f 603/603 598/598 602/602
f 600/600 602/602 598/598
f 602/602 600/600 604/604
f 829/829 605/605 830/830
f 830/830 606/606 649/649
f 604/604 600/600 649/649
f 606/606 830/830 605/605
f 603/603 831/831 832/832
f 832/832 598/598 603/603
f 614/614 833/833 834/834
f 609/609 620/620 835/835
f 607/607 608/608 621/621
f 621/621 616/616 607/607
f 648/648 608/608 605/605
f 608/608 617/617 621/621
f 640/640 620/620 628/628
f 620/620 610/610 629/629
f 615/615 619/619 618/618
f 836/836 619/619 615/615
f 617/617 618/618 622/622
f 622/622 641/641 617/617
f 645/645 628/628 644/644
f 642/642 643/643 616/616
f 621/621 641/641 626/626
f 641/641 621/621 617/617
f 631/631 837/837 623/623
f 837/837 622/622 618/618
f 632/632 642/642 626/626
f 625/625 624/624 644/644
f 644/644 643/643 625/625
f 628/628 620/620 629/629
f 622/622 631/631 630/630
f 630/630 641/641 622/622
f 626/626 641/641 630/630
f 630/630 632/632 626/626
f 642/642 632/632 627/627
f 837/837 631/631 622/622
f 637/637 625/625 627/627
f 627/627 636/636 637/637
f 633/633 630/630 631/631
f 631/631 635/635 633/633
f 632/632 630/630 633/633
f 633/633 634/634 632/632
f 639/639 613/613 611/611
f 611/611 635/635 639/639
f 838/838 624/624 638/638
f 638/638 839/839 838/838
f 625/625 637/637 638/638
f 638/638 624/624 625/625
f 627/627 632/632 634/634
f 668/668 612/612 636/636
f 636/636 634/634 668/668
f 636/636 627/627 634/634
f 623/623 635/635 631/631
f 634/634 633/633 668/668
f 669/669 668/668 633/633
f 635/635 623/623 639/639
f 840/840 640/640 628/628
f 640/640 840/840 614/614
f 635/635 611/611 633/633
f 637/637 636/636 612/612
f 612/612 671/671 637/637
f 671/671 638/638 637/637
f 638/638 671/671 670/670
f 841/841 839/839 638/638
f 638/638 670/670 841/841
f 835/835 620/620 640/640
f 842/842 843/843 605/605
f 616/616 610/610 607/607
f 615/615 618/618 617/617
f 648/648 605/605 615/615
f 836/836 615/615 843/843
f 620/620 609/609 610/610
f 642/642 627/627 625/625
f 616/616 621/621 626/626
f 645/645 624/624 838/838
f 629/629 610/610 616/616
f 843/843 615/615 605/605
f 843/843 844/844 836/836
f 640/640 834/834 835/835
f 640/640 614/614 834/834
f 609/609 835/835 831/831
f 602/602 604/604 610/610
f 606/606 608/608 604/604
f 602/602 609/609 603/603
f 605/605 829/829 842/842
f 831/831 603/603 609/609
f 610/610 604/604 607/607
f 607/607 604/604 608/608
f 608/608 606/606 605/605
f 609/609 602/602 610/610
f 643/643 642/642 625/625
f 642/642 616/616 626/626
f 628/628 629/629 643/643
f 643/643 629/629 616/616
f 645/645 644/644 624/624
f 643/643 644/644 628/628
f 618/618 619/619 837/837
f 840/840 628/628 645/645
f 647/647 827/827 601/601
f 827/827 599/599 845/845
f 617/617 648/648 615/615
f 617/617 608/608 648/648
f 649/649 606/606 604/604
f 651/651 674/674 652/652
f 674/674 651/651 650/650
f 846/846 674/674 650/650
f 674/674 846/846 847/847
f 652/652 848/848 651/651
f 849/849 651/651 848/848
f 661/661 850/850 851/851
f 657/657 654/654 650/650
f 658/658 659/659 657/657
f 657/657 653/653 658/658
f 656/656 654/654 657/657
f 655/655 658/658 653/653
f 664/664 660/660 663/663
f 657/657 659/659 656/656
f 852/852 663/663 853/853
f 854/854 662/662 855/855
f 662/662 854/854 661/661
f 660/660 655/655 653/653
f 850/850 661/661 854/854
f 846/846 654/654 856/856
f 651/651 849/849 660/660
f 853/853 660/660 849/849
f 660/660 653/653 651/651
f 650/650 654/654 846/846
f 650/650 651/651 653/653
f 653/653 657/657 650/650
f 663/663 660/660 853/853
f 852/852 662/662 663/663
f 655/655 660/660 665/665
f 665/665 660/660 664/664
f 633/633 611/611 669/669
f 662/662 852/852 855/855
f 8/8 1/1 9/9
f 9/9 5/5 10/10
f 8/8 7/7 2/2
f 5/5 9/9 8/8
f 4/4 1/1 17/17
f 2/2 9/9 6/6
f 6/6 10/10 12/12
f 10/10 23/23 11/11
f 9/9 12/12 21/21
f 21/21 99/99 95/95
f 686/686 24/24 21/21
f 19/19 99/99 25/25
f 18/18 95/95 687/687
f 688/688 689/689 18/18
f 20/20 22/22 95/95
f 22/22 686/686 18/18
f 22/22 95/95 26/26
f 26/26 19/19 25/25
f 14/14 18/18 690/690
f 690/690 691/691 101/101
f 369/369 101/101 32/32
f 32/32 31/31 173/173
f 32/32 173/173 33/33
f 33/33 74/74 34/34
f 34/34 31/31 36/36
f 36/36 73/73 35/35
f 35/35 32/32 38/38
f 38/38 75/75 37/37
f 37/37 33/33 39/39
f 39/39 76/76 40/40
f 59/59 41/41 35/35
f 58/58 34/34 42/42
f 391/391 389/389 388/388
f 62/62 36/36 41/41
f 60/60 43/43 37/37
f 59/59 35/35 44/44
f 63/63 45/45 43/43
f 61/61 44/44 38/38
f 60/60 37/37 45/45
f 62/62 42/42 36/36
f 63/63 39/39 46/46
f 46/46 40/40 48/48
f 48/48 42/42 47/47
f 47/47 41/41 50/50
f 50/50 44/44 49/49
f 49/49 43/43 51/51
f 51/51 45/45 64/64
f 64/64 46/46 69/69
f 69/69 48/48 65/65
f 65/65 47/47 67/67
f 67/67 50/50 66/66
f 66/66 49/49 68/68
f 68/68 51/51 35/35
f 40/40 58/58 37/37
f 41/41 59/59 61/61
f 43/43 60/60 42/42
f 388/388 391/391 45/45
f 36/36 62/62 44/44
f 61/61 63/63 39/39
f 63/63 61/61 39/39
f 61/61 60/60 64/64
f 52/52 64/64 65/65
f 53/53 65/65 66/66
f 55/55 66/66 67/67
f 56/56 67/67 68/68
f 57/57 68/68 69/69
f 54/54 69/69 31/31
f 369/369 31/31 34/34
f 370/370 34/34 40/40
f 431/431 40/40 46/46
f 70/70 46/46 58/58
f 15/15 58/58 64/64
f 432/432 64/64 371/371
f 372/372 371/371 76/76
f 92/92 76/76 73/73
f 90/90 73/73 52/52
f 78/78 52/52 53/53
f 79/79 53/53 55/55
f 81/81 55/55 56/56
f 82/82 56/56 57/57
f 83/83 57/57 54/54
f 80/80 54/54 71/71
f 84/84 71/71 87/87
f 86/86 85/85 180/180
f 180/180 179/179 103/103
f 112/112 139/139 89/89
f 86/86 89/89 103/103
f 103/103 182/182 93/93
f 108/108 87/87 91/91
f 89/89 86/86 107/107
f 108/108 93/93 94/94
f 87/87 85/85 93/93
f 87/87 94/94 692/692
f 692/692 97/97 93/93
f 119/119 107/107 98/98
f 98/98 693/693 88/88
f 178/178 93/93 446/446
f 697/697 446/446 696/696
f 178/178 695/695 698/698
f 179/179 96/96 698/698
f 181/181 699/699 373/373
f 134/134 373/373 463/463
f 701/701 463/463 702/702
f 702/702 700/700 105/105
f 109/109 107/107 111/111
f 107/107 109/109 110/110
f 117/117 114/114 118/118
f 89/89 91/91 117/117
f 140/140 110/110 112/112
f 112/112 118/118 114/114
f 117/117 111/111 137/137
f 116/116 113/113 115/115
f 704/704 705/705 706/706
f 706/706 116/116 708/708
f 708/708 115/115 106/106
f 16/16 138/138 106/106
f 137/137 141/141 710/710
f 710/710 138/138 137/137
f 707/707 137/137 89/89
f 118/118 112/112 16/16
f 16/16 106/106 446/446
f 446/446 374/374 105/105
f 107/107 119/119 132/132
f 120/120 86/86 108/108
f 108/108 122/122 111/111
f 122/122 108/108 123/123
f 123/123 712/712 125/125
f 125/125 91/91 124/124
f 124/124 703/703 122/122
f 122/122 111/111 126/126
f 126/126 118/118 127/127
f 127/127 121/121 129/129
f 129/129 123/123 130/130
f 130/130 125/125 126/126
f 131/131 124/124 128/128
f 128/128 122/122 131/131
f 131/131 126/126 120/120
f 87/87 132/132 133/133
f 133/133 120/120 463/463
f 134/134 102/102 135/135
f 102/102 134/134 104/104
f 102/102 135/135 104/104
f 136/136 115/115 704/704
f 115/115 136/136 106/106
f 16/16 464/464 139/139
f 139/139 183/183 704/704
f 183/183 715/715 139/139
f 703/703 715/715 114/114
f 141/141 137/137 106/106
f 141/141 114/114 149/149
f 149/149 128/128 143/143
f 131/131 143/143 148/148
f 148/148 145/145 144/144
f 144/144 127/127 130/130
f 130/130 145/145 164/164
f 162/162 163/163 150/150
f 161/161 152/152 717/717
f 143/143 156/156 160/160
f 148/148 151/151 145/145
f 156/156 143/143 166/166
f 158/158 165/165 145/145
f 148/148 154/154 160/160
f 152/152 161/161 153/153
f 150/150 152/152 716/716
f 143/143 717/717 151/151
f 153/153 151/151 150/150
f 144/144 149/149 151/151
f 153/153 152/152 142/142
f 153/153 149/149 165/165
f 159/159 168/168 154/154
f 155/155 145/145 156/156
f 145/145 155/155 718/718
f 156/156 157/157 155/155
f 157/157 156/156 719/719
f 157/157 166/166 154/154
f 158/158 155/155 157/157
f 155/155 158/158 167/167
f 147/147 168/168 158/158
f 154/154 159/159 152/152
f 160/160 154/154 167/167
f 161/161 164/164 156/156
f 718/718 717/717 161/161
f 150/150 162/162 146/146
f 163/163 146/146 157/157
f 719/719 718/718 171/171
f 165/165 171/171 159/159
f 165/165 158/158 161/161
f 167/167 160/160 172/172
f 147/147 172/172 170/170
f 166/166 170/170 158/158
f 166/166 157/157 159/159
f 168/168 159/159 169/169
f 164/164 169/169 162/162
f 164/164 161/161 115/115
f 708/708 702/702 104/104
f 115/115 702/702 132/132
f 121/121 127/127 111/111
f 108/108 107/107 696/696
f 119/119 93/93 103/103
f 103/103 96/96 180/180
f 89/89 112/112 698/698
f 176/176 179/179 182/182
f 182/182 135/135 183/183
f 183/183 136/136 704/704
f 139/139 715/715 180/180
f 88/88 89/89 177/177
f 134/134 699/699 103/103
f 180/180 112/112 184/184
f 184/184 199/199 200/200
f 185/185 191/191 721/721
f 721/721 193/193 203/203
f 203/203 202/202 184/184
f 184/184 187/187 197/197
f 197/197 189/189 188/188
f 188/188 724/724 189/189
f 189/189 190/190 193/193
f 721/721 725/725 198/198
f 197/197 199/199 726/726
f 729/729 726/726 193/193
f 722/722 193/193 727/727
f 728/728 727/727 216/216
f 217/217 216/216 215/215
f 215/215 204/204 207/207
f 212/212 208/208 209/209
f 209/209 207/207 213/213
f 214/214 218/218 207/207
f 211/211 212/212 206/206
f 212/212 211/211 206/206
f 211/211 215/215 209/209
f 213/213 209/209 219/219
f 219/219 232/232 230/230
f 230/230 219/219 222/222
f 227/227 223/223 224/224
f 224/224 222/222 228/228
f 229/229 233/233 222/222
f 226/226 227/227 221/221
f 227/227 226/226 221/221
f 226/226 230/230 224/224
f 228/228 224/224 307/307
f 315/315 310/310 308/308
f 312/312 308/308 313/313
f 323/323 313/313 318/318
f 317/317 318/318 319/319
f 316/316 319/319 321/321
f 322/322 321/321 314/314
f 323/323 324/324 325/325
f 326/326 327/327 328/328
f 331/331 336/336 329/329
f 329/329 333/333 334/334
f 353/353 333/333 335/335
f 335/335 745/745 339/339
f 339/339 338/338 340/340
f 340/340 337/337 746/746
f 746/746 747/747 342/342
f 348/348 347/347 749/749
f 749/749 349/349 343/343
f 343/343 352/352 750/750
f 750/750 354/354 748/748
f 345/345 751/751 748/748
f 344/344 345/345 332/332
f 353/353 752/752 333/333
f 353/353 332/332 375/375
f 753/753 361/361 362/362
f 362/362 365/365 363/363
f 360/360 361/361 355/355
f 362/362 358/358 361/361
f 753/753 357/357 375/375
f 362/362 355/355 359/359
f 359/359 366/366 365/365
f 382/382 363/363 364/364
f 365/365 362/362 380/380
f 461/461 380/380 457/457
f 383/383 754/754 380/380
f 461/461 378/378 384/384
f 457/457 377/377 755/755
f 756/756 757/757 377/377
f 381/381 379/379 457/457
f 754/754 381/381 377/377
f 457/457 381/381 385/385
f 378/378 385/385 384/384
f 377/377 367/367 760/760
f 760/760 756/756 387/387
f 761/761 760/760 762/762
f 762/762 763/763 393/393
f 392/392 393/393 536/536
f 536/536 393/393 394/394
f 435/435 394/394 395/395
f 392/392 395/395 397/397
f 434/434 397/397 396/396
f 393/393 396/396 399/399
f 436/436 399/399 398/398
f 394/394 398/398 400/400
f 437/437 400/400 401/401
f 402/402 420/420 396/396
f 395/395 419/419 403/403
f 766/766 767/767 764/764
f 397/397 423/423 402/402
f 404/404 421/421 398/398
f 396/396 420/420 405/405
f 406/406 424/424 404/404
f 405/405 422/422 399/399
f 398/398 421/421 406/406
f 403/403 423/423 397/397
f 400/400 424/424 407/407
f 401/401 407/407 409/409
f 403/403 409/409 408/408
f 402/402 408/408 411/411
f 405/405 411/411 410/410
f 404/404 410/410 412/412
f 406/406 412/412 425/425
f 407/407 425/425 430/430
f 409/409 430/430 426/426
f 408/408 426/426 428/428
f 411/411 428/428 427/427
f 410/410 427/427 429/429
f 412/412 429/429 396/396
f 419/419 401/401 398/398
f 420/420 402/402 422/422
f 421/421 404/404 403/403
f 767/767 764/764 406/406
f 423/423 397/397 405/405
f 424/424 422/422 400/400
f 422/422 424/424 400/400
f 421/421 422/422 425/425
f 425/425 413/413 426/426
f 426/426 414/414 427/427
f 427/427 416/416 428/428
f 428/428 417/417 429/429
f 429/429 418/418 430/430
f 430/430 415/415 392/392
f 392/392 763/763 395/395
f 395/395 771/771 401/401
f 401/401 774/774 407/407
f 407/407 773/773 419/419
f 419/419 772/772 425/425
f 425/425 775/775 765/765
f 765/765 777/777 437/437
f 437/437 454/454 434/434
f 434/434 452/452 413/413
f 413/413 440/440 414/414
f 414/414 441/441 416/416
f 416/416 443/443 417/417
f 417/417 444/444 418/418
f 418/418 445/445 415/415
f 415/415 442/442 776/776
f 776/776 779/779 449/449
f 447/447 448/448 542/542
f 542/542 450/450 466/466
f 502/502 475/475 451/451
f 451/451 448/448 466/466
f 466/466 458/458 455/455
f 449/449 471/471 453/453
f 448/448 451/451 470/470
f 455/455 471/471 456/456
f 447/447 449/449 455/455
f 456/456 449/449 780/780
f 459/459 780/780 455/455
f 470/470 482/482 460/460
f 781/781 460/460 450/450
f 455/455 540/540 784/784
f 784/784 786/786 785/785
f 783/783 540/540 787/787
f 458/458 541/541 787/787
f 788/788 543/543 789/789
f 789/789 497/497 791/791
f 791/791 793/793 794/794
f 792/792 794/794 468/468
f 470/470 472/472 474/474
f 472/472 470/470 473/473
f 477/477 480/480 481/481
f 453/453 451/451 480/480
f 473/473 503/503 475/475
f 481/481 475/475 477/477
f 474/474 480/480 500/500
f 476/476 479/479 478/478
f 796/796 797/797 798/798
f 479/479 798/798 800/800
f 478/478 800/800 469/469
f 501/501 802/802 469/469
f 504/504 500/500 803/803
f 501/501 803/803 500/500
f 500/500 799/799 451/451
f 475/475 481/481 802/802
f 469/469 802/802 784/784
f 806/806 784/784 468/468
f 482/482 470/470 495/495
f 448/448 483/483 471/471
f 485/485 471/471 474/474
f 471/471 485/485 486/486
f 807/807 486/486 488/488
f 453/453 488/488 487/487
f 795/795 487/487 485/485
f 474/474 485/485 489/489
f 481/481 489/489 490/490
f 484/484 490/490 492/492
f 486/486 492/492 493/493
f 488/488 493/493 489/489
f 487/487 494/494 491/491
f 485/485 491/491 494/494
f 489/489 494/494 483/483
f 495/495 449/449 496/496
f 483/483 496/496 791/791
f 465/465 497/497 498/498
f 497/497 465/465 467/467
f 498/498 465/465 467/467
f 478/478 499/499 797/797
f 499/499 478/478 469/469
f 805/805 802/802 502/502
f 502/502 466/466 797/797
f 810/810 545/545 502/502
f 810/810 795/795 477/477
f 500/500 504/504 469/469
f 477/477 504/504 512/512
f 491/491 512/512 506/506
f 506/506 494/494 511/511
f 508/508 511/511 507/507
f 490/490 507/507 493/493
f 508/508 493/493 527/527
f 526/526 525/525 513/513
f 515/515 524/524 812/812
f 519/519 506/506 523/523
f 514/514 511/511 508/508
f 506/506 519/519 529/529
f 528/528 521/521 508/508
f 517/517 511/511 523/523
f 524/524 515/515 516/516
f 515/515 513/513 811/811
f 812/812 506/506 514/514
f 514/514 516/516 513/513
f 512/512 507/507 514/514
f 515/515 516/516 505/505
f 512/512 516/516 528/528
f 531/531 522/522 517/517
f 508/508 518/518 519/519
f 518/518 508/508 813/813
f 520/520 519/519 518/518
f 519/519 520/520 814/814
f 529/529 520/520 517/517
f 518/518 521/521 520/520
f 521/521 518/518 530/530
f 531/531 510/510 521/521
f 522/522 517/517 515/515
f 517/517 523/523 530/530
f 527/527 524/524 519/519
f 812/812 813/813 524/524
f 525/525 513/513 509/509
f 509/509 526/526 520/520
f 813/813 814/814 534/534
f 534/534 528/528 522/522
f 521/521 528/528 524/524
f 523/523 530/530 535/535
f 535/535 510/510 533/533
f 533/533 529/529 521/521
f 520/520 529/529 522/522
f 522/522 531/531 532/532
f 532/532 527/527 525/525
f 524/524 527/527 478/478
f 794/794 800/800 467/467
f 794/794 478/478 495/495
f 490/490 484/484 474/474
f 470/470 471/471 785/785
f 455/455 482/482 466/466
f 475/475 451/451 787/787
f 541/541 538/538 544/544
f 544/544 543/543 545/545
f 545/545 544/544 797/797
f 810/810 502/502 542/542
f 451/451 450/450 539/539
f 788/788 497/497 466/466
f 475/475 542/542 546/546
f 561/561 546/546 562/562
f 553/553 547/547 816/816
f 555/555 816/816 565/565
f 564/564 565/565 546/546
f 549/549 546/546 559/559
f 551/551 559/559 550/550
f 819/819 550/550 551/551
f 552/552 551/551 555/555
f 820/820 816/816 560/560
f 561/561 559/559 821/821
f 821/821 824/824 555/555
f 555/555 818/818 823/823
f 823/823 822/822 578/578
f 578/578 579/579 577/577
f 566/566 577/577 569/569
f 570/570 574/574 571/571
f 569/569 571/571 575/575
f 580/580 576/576 569/569
f 574/574 573/573 568/568
f 573/573 574/574 568/568
f 577/577 573/573 571/571
f 571/571 575/575 581/581
f 594/594 581/581 592/592
f 581/581 592/592 584/584
f 585/585 589/589 586/586
f 584/584 586/586 590/590
f 595/595 591/591 584/584
f 589/589 588/588 583/583
f 588/588 589/589 583/583
f 592/592 588/588 586/586
