# MOD converted: [r]siege_h_m_clothhead003.mod
# 70 verts, 35 faces

v 152.897644 -18.972290 0.000022
v 140.238190 -15.642508 4.296954
v 154.280762 -17.182196 4.299883
v 151.309738 -17.182194 1.056274
v 146.866150 -16.793718 6.166709
v 149.893982 -16.686638 6.158762
v 152.695541 -18.476742 6.354381
v 155.829193 -16.843872 6.210322
v 154.282562 -16.860428 6.071026
v 151.311478 -16.869045 8.759999
v 153.190979 -16.444405 8.592360
v 152.035507 -16.384363 11.137857
v 152.581573 -15.964418 10.466107
v 150.547989 -15.443415 10.388081
v 154.490128 -15.601976 10.680552
v 153.397675 -15.758605 10.595877
v 151.558060 -15.674006 13.500860
v 152.581573 -14.809659 13.299579
v 153.397659 -14.463593 13.276397
v 151.558060 -14.378993 18.184099
v 152.581573 -9.931606 17.726793
v 153.397659 -9.961429 17.421104
v 151.558060 -9.876830 2.280713
v 143.162033 -15.509260 1.344598
v 143.614807 -15.658101 0.000020
v 149.685226 -18.583813 0.000022
v 156.033600 -18.972286 -3.355910
v 152.897644 -18.972275 0.000028
v 160.340179 -17.377710 -4.296902
v 154.280762 -17.182175 -4.299834
v 151.309753 -17.182173 -1.056228
v 146.866150 -16.793713 -6.166659
v 149.893997 -16.686607 -6.158718
v 152.695557 -18.476711 -6.354326
v 155.829193 -16.843840 -6.210268
v 154.282562 -16.860399 -6.070975
v 151.311493 -16.869017 -8.759945
v 153.190994 -16.444363 -8.592306
v 152.035522 -16.384321 -11.137801
v 152.581589 -15.964363 -10.466051
v 150.548004 -15.443363 -10.388020
v 154.490143 -15.601926 -10.680494
v 153.397690 -15.758553 -10.595820
v 151.558075 -15.673953 -13.500798
v 152.581589 -14.809591 -13.299515
v 153.397675 -14.463526 -13.276334
v 151.558075 -14.378928 -18.184011
v 152.581589 -9.931517 -17.726706
v 153.397675 -9.961341 -17.421017
v 151.558075 -9.876745 0.000021
v 142.968750 -16.748465 -2.280664
v 143.162033 -15.509250 -1.344549
v 143.614807 -15.658093 6.158762
v 152.695541 -18.476742 6.210322
v 154.282562 -16.860428 6.071026
v 151.311478 -16.869045 10.595877
v 151.558060 -15.674006 10.680552
v 153.397675 -15.758605 11.137857
v 152.581573 -15.964418 0.000022
v 156.033600 -18.972286 0.000020
v 149.685226 -18.583813 0.000028
v 160.340179 -17.377710 0.000021
v 142.968750 -16.748465 -6.158718
v 152.695557 -18.476711 -6.210268
v 154.282562 -16.860399 -6.070975
v 151.311493 -16.869017 -10.595820
v 151.558075 -15.673953 -10.680494
v 153.397690 -15.758553 0.000022
v 140.238190 -15.642508 -11.137801
v 152.581589 -15.964363 0.691419

vt 0.626093 0.013144
vt 0.016277 0.471189
vt 0.686817 0.454897
vt 0.543820 0.154207
vt 0.335661 0.510883
vt 0.707304 0.455049
vt 0.846178 0.517025
vt 0.991487 0.655639
vt 0.682325 0.626238
vt 0.539632 0.755652
vt 0.867067 0.743063
vt 0.811596 0.866010
vt 0.657263 0.946029
vt 0.741211 0.929685
vt 0.929836 0.953811
vt 0.877999 0.950447
vt 0.789859 0.864704
vt 0.476086 0.981039
vt 0.473050 0.719067
vt 0.471283 0.862117
vt 0.010447 0.978593
vt 0.037361 0.716777
vt 0.051573 0.294024
vt 0.152083 0.206647
vt 0.176095 0.012258
vt 0.477410 0.012545
vt 0.783802 0.308581
vt 0.626093 0.013768
vt 0.987577 0.471189
vt 0.686817 0.454897
vt 0.543820 0.154207
vt 0.335661 0.510883
vt 0.707304 0.455049
vt 0.846178 0.517025
vt 0.991487 0.655639
vt 0.682325 0.626238
vt 0.539632 0.755652
vt 0.867067 0.743063
vt 0.811596 0.866010
vt 0.657263 0.946029
vt 0.741211 0.929685
vt 0.929836 0.953811
vt 0.877999 0.950447
vt 0.789859 0.864704
vt 0.476086 0.981039
vt 0.473050 0.719067
vt 0.471283 0.862117
vt 0.010447 0.978593
vt 0.037361 0.716777
vt 0.051573 0.012747
vt 0.150122 0.294024
vt 0.152083 0.206647
vt 0.176095 0.579727
vt 0.619466 0.426116
vt 0.917525 0.431050
vt 0.760639 0.720548
vt 0.676191 0.982486
vt 0.674479 0.992702
vt 0.844002 0.012545
vt 0.783802 0.012258
vt 0.477410 0.013768
vt 0.987577 0.012747
vt 0.150122 0.579727
vt 0.619466 0.426116
vt 0.917525 0.431050
vt 0.760639 0.720548
vt 0.676191 0.982486
vt 0.674479 0.013144
vt 0.016277 0.992702
vt 0.844002 1.000000

f 4/4 26/26 1/1
f 26/26 4/4 5/5
f 5/5 51/51 26/26
f 51/51 5/5 25/25
f 4/4 54/54 10/10
f 54/54 4/4 1/1
f 7/7 6/6 56/56
f 24/24 2/2 51/51
f 25/25 24/24 51/51
f 31/31 61/61 32/32
f 61/61 31/31 28/28
f 32/32 63/63 53/53
f 63/63 32/32 61/61
f 31/31 64/64 28/28
f 64/64 31/31 37/37
f 34/34 66/66 33/33
f 52/52 63/63 69/69
f 53/53 63/63 52/52
f 27/27 29/29 7/7
f 12/12 6/6 3/3
f 3/3 9/9 55/55
f 8/8 7/7 11/11
f 15/15 16/16 17/17
f 14/14 12/12 7/7
f 11/11 59/59 7/7
f 17/17 12/12 7/7
f 16/16 59/59 60/60
f 60/60 28/28 34/34
f 33/33 39/39 30/30
f 30/30 28/28 65/65
f 34/34 35/35 38/38
f 43/43 42/42 44/44
f 39/39 41/41 34/34
f 70/70 38/38 34/34
f 39/39 44/44 34/34
