# MOD converted: [r]siege_e_m_clothhead003.mod
# 70 verts, 35 faces

v 152.900604 -18.947906 0.000041
v 140.240631 -15.620153 4.296965
v 154.283447 -17.157589 4.299896
v 151.312439 -17.158062 1.056291
v 146.868790 -16.770304 6.166722
v 149.896606 -16.662727 6.158778
v 152.698441 -18.452381 6.354391
v 155.831818 -16.819012 6.210332
v 154.285202 -16.835817 6.071038
v 151.314133 -16.844910 8.760010
v 153.193558 -16.419960 8.592370
v 152.038086 -16.360104 11.137867
v 152.584076 -15.940064 10.466118
v 150.550415 -15.419389 10.388086
v 154.492569 -15.577320 10.680561
v 153.400146 -15.734122 10.595886
v 151.560516 -15.649817 13.500866
v 152.583893 -14.785299 13.299583
v 153.399933 -14.439103 13.276402
v 151.560318 -14.354798 18.184092
v 152.583115 -9.907236 17.726786
v 153.399216 -9.936930 17.421097
v 151.559601 -9.852626 2.280729
v 143.164459 -15.486436 1.344613
v 143.617264 -15.635205 0.000039
v 149.688141 -18.559950 0.000037
v 156.036560 -18.947411 -3.355892
v 152.900604 -18.947910 0.000036
v 160.342896 -17.352148 -4.296891
v 154.283447 -17.157591 -4.299820
v 151.312439 -17.158064 -1.056212
v 146.868774 -16.770304 -6.166646
v 149.896591 -16.662731 -6.158702
v 152.698441 -18.452383 -6.354317
v 155.831818 -16.819016 -6.210258
v 154.285187 -16.835819 -6.070963
v 151.314117 -16.844912 -8.759934
v 153.193558 -16.419966 -8.592295
v 152.038071 -16.360109 -11.137792
v 152.584076 -15.940071 -10.466042
v 150.550400 -15.419394 -10.388013
v 154.492569 -15.577327 -10.680487
v 153.400146 -15.734128 -10.595812
v 151.560516 -15.649823 -13.500792
v 152.583893 -14.785307 -13.299510
v 153.399918 -14.439111 -13.276328
v 151.560303 -14.354806 -18.184019
v 152.583115 -9.907247 -17.726713
v 153.399200 -9.936939 -17.421024
v 151.559586 -9.852635 0.000040
v 142.971375 -16.725676 -2.280649
v 143.164459 -15.486437 -1.344533
v 143.617264 -15.635206 6.158778
v 152.698441 -18.452381 6.210332
v 154.285202 -16.835817 6.071038
v 151.314133 -16.844910 10.595886
v 151.560516 -15.649817 10.680561
v 153.400146 -15.734122 11.137867
v 152.584076 -15.940064 0.000037
v 156.036560 -18.947411 0.000039
v 149.688141 -18.559950 0.000036
v 160.342896 -17.352148 0.000040
v 142.971375 -16.725676 -6.158702
v 152.698441 -18.452383 -6.210258
v 154.285187 -16.835819 -6.070963
v 151.314117 -16.844912 -10.595812
v 151.560516 -15.649823 -10.680487
v 153.400146 -15.734128 0.000041
v 140.240631 -15.620153 -11.137792
v 152.584076 -15.940071 0.691419

vt 0.626093 0.013144
vt 0.016277 0.471189
vt 0.686817 0.454897
vt 0.543820 0.154207
vt 0.335661 0.510883
vt 0.707304 0.455049
vt 0.846178 0.517025
vt 0.991487 0.655639
vt 0.682325 0.626238
vt 0.539632 0.755652
vt 0.867067 0.743063
vt 0.811596 0.866010
vt 0.657263 0.946029
vt 0.741211 0.929685
vt 0.929836 0.953811
vt 0.877999 0.950447
vt 0.789859 0.864704
vt 0.476086 0.981039
vt 0.473050 0.719067
vt 0.471283 0.862117
vt 0.010447 0.978593
vt 0.037361 0.716777
vt 0.051573 0.294024
vt 0.152083 0.206647
vt 0.176095 0.012258
vt 0.477410 0.012545
vt 0.783802 0.308581
vt 0.626093 0.013768
vt 0.987577 0.471189
vt 0.686817 0.454897
vt 0.543820 0.154207
vt 0.335661 0.510883
vt 0.707304 0.455049
vt 0.846178 0.517025
vt 0.991487 0.655639
vt 0.682325 0.626238
vt 0.539632 0.755652
vt 0.867067 0.743063
vt 0.811596 0.866010
vt 0.657263 0.946029
vt 0.741211 0.929685
vt 0.929836 0.953811
vt 0.877999 0.950447
vt 0.789859 0.864704
vt 0.476086 0.981039
vt 0.473050 0.719067
vt 0.471283 0.862117
vt 0.010447 0.978593
vt 0.037361 0.716777
vt 0.051573 0.012747
vt 0.150122 0.294024
vt 0.152083 0.206647
vt 0.176095 0.579727
vt 0.619466 0.426116
vt 0.917525 0.431050
vt 0.760639 0.720548
vt 0.676191 0.982486
vt 0.674479 0.992702
vt 0.844002 0.012545
vt 0.783802 0.012258
vt 0.477410 0.013768
vt 0.987577 0.012747
vt 0.150122 0.579727
vt 0.619466 0.426116
vt 0.917525 0.431050
vt 0.760639 0.720548
vt 0.676191 0.982486
vt 0.674479 0.013144
vt 0.016277 0.992702
vt 0.844002 1.000000

f 4/4 26/26 1/1
f 26/26 4/4 5/5
f 5/5 51/51 26/26
f 51/51 5/5 25/25
f 4/4 54/54 10/10
f 54/54 4/4 1/1
f 7/7 6/6 56/56
f 24/24 2/2 51/51
f 25/25 24/24 51/51
f 31/31 61/61 32/32
f 61/61 31/31 28/28
f 32/32 63/63 53/53
f 63/63 32/32 61/61
f 31/31 64/64 28/28
f 64/64 31/31 37/37
f 34/34 66/66 33/33
f 52/52 63/63 69/69
f 53/53 63/63 52/52
f 27/27 29/29 7/7
f 12/12 6/6 3/3
f 3/3 9/9 55/55
f 8/8 7/7 11/11
f 15/15 16/16 17/17
f 14/14 12/12 7/7
f 11/11 59/59 7/7
f 17/17 12/12 7/7
f 16/16 59/59 60/60
f 60/60 28/28 34/34
f 33/33 39/39 30/30
f 30/30 28/28 65/65
f 34/34 35/35 38/38
f 43/43 42/42 44/44
f 39/39 41/41 34/34
f 70/70 38/38 34/34
f 39/39 44/44 34/34
