# MOD converted: [r]temple_e_m_metalarmor002.mod
# 876 verts, 912 faces

v 97.164978 11.104970 13.608754
v 97.164719 7.350124 13.745819
v 91.970093 7.531143 -0.000001
v 97.165291 12.325629 8.668435
v 91.977600 11.808970 14.790112
v 97.164490 -0.302846 12.819230
v 97.164154 -7.705374 15.114625
v 91.960732 -0.289538 13.005655
v 91.959244 -7.718604 10.587049
v 91.958382 -9.847395 7.762478
v 97.164040 -12.135917 0.000000
v 97.164032 -13.962465 0.000000
v 91.956818 -13.972629 7.978828
v 91.957504 -12.143077 -0.000001
v 91.981773 12.326097 0.000000
v 86.547119 -14.698361 9.737104
v 86.575531 -12.897822 9.402037
v 87.320404 14.703119 16.021082
v 87.209679 9.959157 18.419277
v 80.240089 11.973965 20.703754
v 72.659485 13.492255 11.216501
v 73.220367 18.445103 10.281815
v 80.395065 17.568420 12.886883
v 86.724312 -10.900007 15.983840
v 86.774895 -8.516972 21.677336
v 70.868538 -9.481897 20.110106
v 65.047325 -13.458573 27.313879
v 58.376003 1.983442 25.496023
v 68.382751 1.573934 22.978668
v 65.132797 14.020788 23.018469
v 71.066444 10.423335 19.029144
v 86.916107 0.415175 17.287941
v 87.074432 7.595846 17.256767
v 72.744057 -12.925068 18.812241
v 79.444153 -9.332752 15.129981
v 79.472794 -12.142899 -0.000002
v 72.414917 19.164331 -0.000000
v 80.113632 18.287560 0.000001
v 87.404343 15.333091 22.843487
v 78.908707 1.140152 20.573648
v 80.168716 8.959200 -0.000001
v 79.303650 -16.060415 11.569931
v 79.424728 -14.430552 0.000000
v 71.560150 -17.230455 12.733618
v 71.568008 -15.319221 12.078646
v 67.692795 19.247334 0.000001
v 65.671783 20.036703 14.260209
v 61.067612 -16.541698 0.000001
v 61.064655 -17.570915 12.940223
v 61.678089 19.643452 -0.000000
v 58.848633 20.569538 21.966082
v 57.732708 -14.720994 27.593964
v 51.061398 1.549463 24.864172
v 57.818188 14.232689 13.849875
v 54.454193 20.157021 -0.000000
v 51.534027 21.132799 -8.710289
v 97.164978 11.104966 -13.608752
v 97.164719 7.350130 -13.745821
v 91.970100 7.531140 -8.668433
v 91.977608 11.808969 -14.790112
v 97.164490 -0.302847 -12.819227
v 97.164154 -7.705373 -15.114631
v 91.960732 -0.289464 -13.005653
v 91.959251 -7.718600 -10.587051
v 91.958374 -9.847390 -7.762471
v 97.164040 -12.135920 -7.978830
v 91.957497 -12.143079 -9.737106
v 86.575531 -12.897823 -9.402037
v 87.320404 14.703119 -16.021082
v 87.209671 9.959154 -18.419275
v 80.240089 11.973969 -20.703756
v 72.659485 13.492255 -11.216500
v 73.220367 18.445101 -10.281811
v 80.395065 17.568420 -12.886883
v 86.724312 -10.900009 -15.983840
v 86.774910 -8.516978 -21.677326
v 70.868538 -9.481904 -20.110111
v 65.047325 -13.458572 -27.313879
v 58.376011 1.983462 -25.496017
v 68.382751 1.573945 -22.978668
v 65.132797 14.020790 -23.018465
v 71.066444 10.423333 -19.029144
v 86.916107 0.415175 -17.287939
v 87.074432 7.595846 -17.256762
v 72.744064 -12.925066 -18.812237
v 79.444145 -9.332756 -15.129984
v 79.472794 -12.142898 -22.843485
v 78.908707 1.140162 -20.573652
v 80.168716 8.959206 -11.569927
v 79.424728 -14.430555 -12.733615
v 71.568008 -15.319218 -12.078646
v 67.692795 19.247330 -14.260220
v 61.067608 -16.541697 -12.940227
v 61.678093 19.643456 -21.966085
v 57.732708 -14.720992 -27.593966
v 51.061390 1.549543 -24.864166
v 57.818188 14.232692 -13.849876
v 54.454193 20.157026 0.663560
v 90.567802 -6.517320 7.449142
v 90.583702 10.392599 12.988313
v 90.569077 -0.084781 11.100801
v 95.074997 -6.505867 12.807496
v 95.075302 -0.095645 7.542677
v 95.075706 9.782967 6.856339
v 90.566292 -10.348701 6.721912
v 95.074898 -10.342499 11.784501
v 95.075493 6.531459 12.381108
v 120.578163 -0.061324 12.000784
v 121.376099 8.797968 12.247543
v 101.464798 -6.333138 10.554214
v 116.481003 11.531181 14.742209
v 109.178711 -0.031898 14.736996
v 108.645477 7.807618 10.298692
v 115.712830 -6.176035 16.968201
v 120.012466 8.326615 13.158195
v 122.435188 4.781922 15.068607
v 115.224777 10.463407 16.915588
v 119.962440 -0.123860 17.654907
v 121.011185 4.463437 5.665681
v 116.234131 -8.294479 7.642180
v 101.464798 -10.376101 6.479784
v 121.411804 -3.328709 9.686122
v 124.186813 5.014725 6.339575
v 124.850159 8.973266 15.467804
v 114.978333 -3.790040 9.604735
v 109.036263 11.210013 6.268623
v 126.586906 -2.704128 8.245363
v 127.975136 2.824427 5.837293
v 128.812073 7.424634 13.849253
v 101.464798 -0.071422 13.380211
v 101.465805 7.125380 8.308387
v 109.478798 -10.267000 13.330805
v 109.412605 -6.341282 22.011627
v 106.602654 0.120724 21.957108
v 106.471313 6.841111 24.818329
v 110.488388 9.491014 24.727180
v 110.765572 -2.708726 27.126286
v 114.941612 0.010667 27.182510
v 115.007439 6.875094 15.525543
v 109.518272 7.418725 18.645140
v 113.768745 9.913283 15.250429
v 109.755020 0.164204 18.640335
v 113.841202 -2.867848 21.667088
v 118.283768 7.361675 21.533482
v 118.225845 -0.037735 8.408888
v 101.465805 10.304801 8.679994
v 122.677094 0.621356 6.136402
v 121.710091 10.592076 28.039478
v 103.380714 6.144745 28.232891
v 103.527802 0.406410 33.137070
v 111.440773 6.044756 30.670525
v 107.484863 -1.842296 45.882812
v 92.817688 5.221766 48.243683
v 96.572601 7.533293 45.628487
v 92.772888 -0.168934 50.570671
v 100.195770 5.665714 48.018124
v 96.520889 -3.080159 32.970787
v 111.280807 0.175580 50.401733
v 100.354172 -0.967565 29.872009
v 107.855743 8.632074 30.468094
v 101.940826 5.883735 35.256165
v 110.039795 6.032046 33.851341
v 105.464943 8.413517 31.771620
v 106.725815 8.656681 35.132004
v 109.841797 0.107734 32.968903
v 106.018799 -1.954431 30.569302
v 102.046799 0.353488 35.612419
v 98.271400 -0.413647 38.211796
v 102.582344 -3.251355 40.890594
v 106.662804 -0.882910 40.991169
v 106.625801 6.128673 38.138832
v 102.558731 8.740551 35.588287
v 98.271103 5.739234 15.019093
v 109.307076 -3.610798 13.691014
v 108.734619 9.702687 11.016224
v 101.465805 9.272924 22.015396
v 118.743729 4.005569 46.296005
v 102.943207 -0.931025 43.956215
v 98.890503 -3.151006 41.614609
v 94.834824 -0.267000 46.292294
v 102.936798 5.872478 43.963577
v 98.971985 8.044648 41.660847
v 94.914894 5.433994 2.056554
v 120.902359 -4.739921 2.198817
v 125.901985 -3.938197 2.129796
v 122.392151 -4.430821 9.097638
v 90.567055 -8.360748 0.000000
v 63.814598 -15.048942 11.812227
v 90.577202 6.688209 13.671685
v 86.454910 8.790752 9.762236
v 79.713524 -12.329542 18.067142
v 72.304283 -8.044251 21.174757
v 70.151718 1.529561 19.190350
v 72.475662 9.192709 22.366285
v 61.486355 1.884167 8.024579
v 86.550804 12.898787 8.687552
v 80.553787 15.380001 15.873446
v 79.730339 -7.915095 19.260044
v 79.266678 1.153931 17.377888
v 80.357780 7.924841 14.421379
v 73.928391 -11.025865 8.301522
v 85.905769 -11.002272 10.989304
v 86.034607 -9.272263 14.749846
v 86.337807 6.744241 9.379958
v 74.340851 16.139164 15.559760
v 80.419586 10.535477 17.299921
v 73.855164 11.850239 10.623536
v 72.909988 -13.099082 12.766951
v 79.755150 -10.348545 18.996284
v 67.337418 12.307925 16.231668
v 86.200684 0.526137 13.631241
v 86.078400 -7.208672 11.721367
v 63.817154 -14.157689 16.622858
v 67.263390 -11.487853 10.021632
v 69.554245 16.833860 10.645531
v 64.345802 17.176880 0.000001
v 72.903183 -14.754120 -0.000000
v 85.881165 -12.561449 0.000000
v 123.183800 1.950669 -0.000000
v 86.623474 13.444309 0.000001
v 67.804138 17.517408 0.000000
v 116.992798 12.388396 -0.000001
v 109.050789 12.398399 -0.000001
v 101.462799 11.532101 0.000000
v 109.485802 -12.259201 -0.000000
v 116.321808 -9.340242 -0.000000
v 122.302917 -5.071639 0.000000
v 73.643372 16.761988 -0.000000
v 124.658798 10.563900 0.000001
v 61.895630 17.978825 0.000000
v 101.464798 -12.317501 0.000000
v 95.074890 -11.924200 -0.000000
v 120.869820 -5.396773 -0.000001
v 90.587303 10.840402 -0.000001
v 129.103577 9.306485 -0.000000
v 95.075989 10.840000 -0.000000
v 90.565704 -11.933002 0.000000
v 80.310066 16.002735 0.000000
v 79.608681 -13.740921 -11.175999
v 90.567810 -6.517321 -7.449142
v 90.583702 10.392599 -12.988313
v 90.569084 -0.084779 -11.100800
v 95.074997 -6.505871 -12.807496
v 95.075302 -0.095645 -7.542678
v 95.075706 9.782968 -6.856338
v 90.566292 -10.348701 -6.721913
v 95.074898 -10.342501 -11.784501
v 95.075493 6.531460 -12.381104
v 120.586113 -0.052829 -12.000779
v 121.360191 8.808248 -12.247541
v 101.464798 -6.333142 -10.554214
v 116.455826 11.527824 -14.742209
v 109.183403 -0.043293 -14.736996
v 108.637665 7.795415 -10.298688
v 115.718765 -6.177291 -16.968201
v 120.002998 8.332924 -13.158187
v 122.430099 4.795604 -15.068604
v 115.219826 10.462526 -16.915588
v 119.967720 -0.117646 -17.654907
v 121.008461 4.471667 -5.665679
v 116.236588 -8.295015 -7.642181
v 101.464798 -10.376099 -6.479787
v 121.415428 -3.327160 -9.686122
v 124.185555 5.018224 -6.339572
v 124.834969 8.987979 -15.467804
v 114.986115 -3.791775 -9.604733
v 109.036263 11.210010 -6.268622
v 126.590179 -2.699740 -8.245361
v 127.975182 2.829842 -5.837293
v 128.812073 7.424635 -13.849253
v 101.464798 -0.071423 -13.380209
v 101.465805 7.125379 -8.308387
v 109.478798 -10.267000 -13.330797
v 109.412605 -6.341277 -22.011627
v 106.602623 0.120772 -21.957108
v 106.471359 6.841157 -24.818329
v 110.488464 9.491016 -24.727192
v 110.765541 -2.708727 -27.126282
v 114.941582 0.010620 -27.182510
v 115.007492 6.875046 -15.525543
v 109.511093 7.408118 -18.645142
v 113.744202 9.906426 -15.250433
v 109.759377 0.153863 -18.640335
v 113.861420 -2.874392 -21.667084
v 118.275978 7.366901 -21.533478
v 118.230965 -0.032647 -8.408886
v 101.465805 10.304801 -8.679995
v 122.681076 0.628951 -6.136400
v 121.690849 10.599212 -28.039476
v 103.380753 6.144773 -28.232895
v 103.527794 0.406445 -33.137070
v 111.440773 6.044719 -30.670515
v 107.484802 -1.842297 -45.882812
v 92.817688 5.221759 -48.243698
v 96.572586 7.533290 -45.628483
v 92.772888 -0.168942 -50.570686
v 100.195763 5.665719 -48.018120
v 96.520905 -3.080159 -32.970791
v 111.280792 0.175542 -50.401726
v 100.354179 -0.967560 -29.872004
v 107.855766 8.632071 -30.468094
v 101.940826 5.883741 -35.256168
v 110.039795 6.032036 -33.851280
v 105.464844 8.413518 -31.771599
v 106.725815 8.656679 -35.132004
v 109.841789 0.107729 -32.968903
v 106.018784 -1.954428 -30.569304
v 102.046799 0.353489 -35.612411
v 98.271400 -0.413650 -38.211788
v 102.582336 -3.251355 -40.890594
v 106.662804 -0.882908 -40.991177
v 106.625801 6.128675 -38.138836
v 102.558723 8.740550 -35.588287
v 98.271103 5.739232 -15.019087
v 109.307076 -3.610795 -13.691016
v 108.723816 9.690257 -11.016224
v 101.465805 9.272923 -22.015396
v 118.741798 4.011697 -46.296005
v 102.943207 -0.931020 -43.956215
v 98.890533 -3.151005 -41.614609
v 94.834831 -0.267004 -46.292297
v 102.936798 5.872479 -43.963593
v 98.971992 8.044648 -41.660851
v 94.914894 5.433987 -2.056551
v 120.902359 -4.739921 -2.198817
v 125.901978 -3.938197 -2.129793
v 122.392151 -4.430822 -9.097637
v 90.567055 -8.360750 -11.812225
v 90.577202 6.688210 -13.671683
v 86.454910 8.790753 -9.762239
v 79.713524 -12.329540 -18.067142
v 72.304291 -8.044251 -21.174755
v 70.151718 1.529560 -19.190348
v 72.475662 9.192711 -22.366289
v 61.486374 1.884178 -8.024578
v 86.550804 12.898788 -8.687552
v 80.553787 15.380002 -15.873446
v 79.730339 -7.915099 -19.260044
v 79.266678 1.153932 -17.377884
v 80.357780 7.924845 -14.421383
v 73.928391 -11.025867 -8.301520
v 85.905769 -11.002272 -10.989304
v 86.034607 -9.272267 -14.749845
v 86.337807 6.744241 -9.379961
v 74.340851 16.139164 -15.559763
v 80.419594 10.535477 -17.299921
v 73.855164 11.850240 -10.623534
v 72.909988 -13.099086 -12.766949
v 79.755157 -10.348547 -18.996283
v 67.337418 12.307925 -16.231668
v 86.200699 0.526138 -13.631240
v 86.078400 -7.208676 -11.721367
v 63.817162 -14.157690 -16.622860
v 67.263397 -11.487850 -10.021633
v 69.554245 16.833862 -10.645533
v 64.345810 17.176878 5.519425
v 123.104805 -0.287932 5.644165
v 125.742798 5.144211 5.446915
v 132.238373 4.085750 4.901305
v 130.072693 -1.004877 1.047150
v 73.239914 0.744481 10.625179
v 77.292603 10.600487 9.407536
v 81.752396 11.890345 1.782535
v 76.502403 11.587493 13.131779
v 81.433144 -6.882236 16.908386
v 81.751190 -0.111809 18.950068
v 65.630341 3.331560 16.576225
v 65.757240 -7.060754 9.703277
v 65.601585 -10.927876 7.623816
v 79.094131 -9.809237 2.867004
v 73.332695 9.521695 4.325925
v 65.344078 11.154201 15.723178
v 79.855965 6.307203 1.407582
v 64.934769 1.775996 2.128390
v 74.226509 -7.484020 3.078093
v 65.228180 -7.226280 13.150430
v 65.630920 10.986360 8.342284
v 87.792435 10.940006 12.108588
v 86.465088 -5.962290 13.983446
v 86.800117 0.058484 7.266053
v 86.214684 -8.965386 12.860593
v 87.401840 6.541641 9.779047
v 22.092670 -2.668289 9.783232
v 22.091936 10.548014 20.712090
v 22.094387 4.781179 7.254528
v 22.091616 3.989374 19.161617
v 22.093658 -2.289599 17.201143
v 22.093630 10.735408 2.685202
v 53.866741 -8.354578 3.366097
v 46.682518 2.855595 6.766569
v 48.152901 9.976328 14.064683
v 48.733440 10.907379 18.908978
v 54.919189 -7.624785 19.169073
v 48.289639 3.655163 11.465567
v 49.271278 -10.616444 2.852843
v 49.792870 -6.889603 19.323116
v 50.910721 -6.173610 11.818769
v 45.556870 -7.758389 17.540512
v 46.853989 -4.323292 5.918479
v 45.848782 -5.259001 20.219305
v 38.878998 4.019915 15.545598
v 39.202301 10.935097 7.938631
v 38.842705 11.214699 4.905760
v 37.259003 3.546652 11.000348
v 54.222435 -11.865087 21.208384
v 52.071575 4.501820 14.538295
v 52.463879 12.767455 5.322182
v 51.898621 12.082840 0.902577
v 50.665318 3.593468 14.499195
v 22.093155 -4.422406 20.879007
v 56.186405 4.256289 13.950912
v 56.521656 13.085701 4.831680
v 55.847904 12.603087 0.573526
v 54.373180 3.302020 0.000001
v 128.726074 -3.807350 -0.000001
v 74.135796 -8.022912 -0.000000
v 81.603699 12.603209 0.000000
v 86.129723 -10.478774 -0.000001
v 73.393494 0.686674 0.000000
v 74.884804 7.044058 -0.000000
v 87.879150 11.654860 0.000000
v 126.537811 8.181260 -0.000000
v 121.965813 -2.804041 -0.000000
v 133.221466 6.875776 -0.000000
v 80.753181 -10.888690 -5.519425
v 123.104805 -0.287933 -5.644165
v 125.742798 5.144211 -5.446916
v 132.238373 4.085751 -4.901304
v 130.072662 -1.004877 -1.047151
v 73.239914 0.744493 -10.625179
v 77.292603 10.600487 -9.407537
v 81.752396 11.890348 -1.782535
v 76.502403 11.587494 -13.131777
v 81.433144 -6.882237 -16.908384
v 81.751190 -0.111823 -18.950069
v 65.630341 3.331562 -16.576225
v 65.757240 -7.060755 -9.703276
v 65.601585 -10.927873 -7.623817
v 79.094131 -9.809237 -2.867008
v 73.332710 9.521698 -4.325931
v 65.344078 11.154202 -15.723177
v 79.855965 6.307202 -1.407581
v 64.934769 1.776002 -2.128389
v 74.226509 -7.484020 -3.078094
v 65.228180 -7.226280 -13.150430
v 65.630920 10.986360 -8.342285
v 87.792435 10.940006 -12.108586
v 86.465096 -5.962290 -13.983446
v 86.800117 0.058486 -7.266053
v 86.214699 -8.965393 -12.860593
v 87.401840 6.541643 -9.779047
v 22.092670 -2.668289 -9.783232
v 22.091934 10.548016 -20.712090
v 22.094395 4.781167 -7.254529
v 22.091608 3.989380 -19.161621
v 22.093657 -2.289599 -17.201143
v 22.093630 10.735408 -2.685204
v 53.866741 -8.354573 -3.366099
v 46.682522 2.855601 -6.766572
v 48.152901 9.976325 -14.064682
v 48.733440 10.907378 -18.908987
v 54.919189 -7.624781 -19.169071
v 48.289639 3.655170 -11.465572
v 49.271278 -10.616444 -2.852845
v 49.792866 -6.889603 -19.323116
v 50.910721 -6.173613 -11.818770
v 45.556870 -7.758393 -17.540510
v 46.853985 -4.323291 -5.918481
v 45.848782 -5.259003 -20.219294
v 38.878998 4.019923 -15.545598
v 39.202301 10.935098 -7.938632
v 38.842705 11.214696 -4.905764
v 37.259003 3.546663 -11.000348
v 54.222435 -11.865087 -21.208376
v 52.071575 4.501828 -14.538295
v 52.463879 12.767455 -5.322183
v 51.898624 12.082840 -0.902577
v 50.665318 3.593475 -14.499201
v 22.093155 -4.422405 -20.879007
v 56.186405 4.256289 -13.950913
v 56.521648 13.085701 -4.831681
v 55.847900 12.603088 -0.573529
v 54.373184 3.302027 13.241919
v 117.446060 -6.759448 24.009447
v 112.677643 -5.049414 15.948812
v 125.128006 -3.565000 28.968044
v 118.910812 -2.256305 26.771950
v 115.191544 -4.797964 14.434811
v 121.080467 -6.660177 19.001991
v 114.643867 -6.314470 25.568186
v 121.366676 -3.008536 19.724417
v 124.156845 -3.403904 20.603365
v 118.139061 -6.307997 29.820185
v 120.694115 3.762777 20.576557
v 125.942581 3.759454 26.420328
v 123.149971 3.762780 13.267802
v 117.501793 -4.148128 15.309998
v 123.335670 -1.751136 28.384594
v 117.689743 -0.767298 14.230760
v 120.652763 -4.074839 19.039934
v 114.724709 -3.818425 15.955201
v 124.690582 3.758319 24.035355
v 112.731842 -3.222656 26.567913
v 114.764519 -2.676001 29.029797
v 119.039986 3.762759 28.719025
v 112.664497 -2.887841 34.229733
v 113.956856 -0.915153 36.470905
v 114.934753 3.762763 21.898899
v 116.715500 3.760114 13.241958
v 117.458229 14.284678 24.009441
v 112.677444 12.574775 15.948812
v 125.135773 11.081767 28.968046
v 118.910675 9.781822 26.771948
v 115.191345 12.323394 14.434811
v 121.092430 14.181138 19.001978
v 114.655411 13.841347 25.568188
v 121.366516 10.534060 19.724419
v 124.161552 10.924054 20.603363
v 118.138809 13.833418 16.800955
v 126.915550 3.756998 13.269996
v 117.514580 11.673293 15.309998
v 123.345459 9.265550 28.384590
v 117.689629 8.292789 14.230757
v 120.663971 11.595264 19.039936
v 114.733414 11.345202 24.035357
v 112.731689 10.748017 26.567921
v 114.764374 10.201421 28.719028
v 112.664337 10.413246 34.229736
v 113.956741 8.440637 -13.241931
v 117.446007 -6.759444 -24.009445
v 112.677582 -5.049420 -15.948814
v 125.127945 -3.565053 -28.968042
v 118.910767 -2.256365 -26.771952
v 115.191483 -4.797993 -14.434811
v 121.080391 -6.660201 -19.001991
v 114.643791 -6.314470 -25.568186
v 121.366623 -3.008598 -19.724417
v 124.156799 -3.403963 -20.603367
v 118.138985 -6.308022 -29.820185
v 120.694122 3.762704 -20.576555
v 125.942581 3.759381 -26.420332
v 123.149971 3.762704 -13.267814
v 117.501755 -4.148127 -15.309996
v 123.335632 -1.751176 -28.384592
v 117.689713 -0.767349 -14.230758
v 120.652718 -4.074860 -19.039938
v 114.724663 -3.818427 -15.955200
v 124.690590 3.758270 -24.035355
v 112.731796 -3.222664 -26.567917
v 114.764481 -2.676030 -29.029791
v 119.039986 3.762698 -28.719028
v 112.664452 -2.887862 -34.229729
v 113.956825 -0.915202 -36.470905
v 114.934753 3.762699 -21.898895
v 116.714500 3.761927 -13.241949
v 117.458305 14.284678 -24.009449
v 112.677521 12.574762 -15.948813
v 125.135834 11.081711 -28.968044
v 118.910721 9.781757 -26.771950
v 115.191414 12.323359 -14.434813
v 121.092514 14.181112 -19.001987
v 114.655510 13.841341 -25.568192
v 121.366577 10.533994 -19.724417
v 124.161613 10.923995 -20.603363
v 118.138901 13.833387 -16.800953
v 126.915558 3.756932 -13.269993
v 117.514633 11.673291 -15.309996
v 123.345520 9.265509 -28.384594
v 117.689674 8.292735 -14.230756
v 120.664032 11.595241 -19.039938
v 114.733475 11.345200 -24.035355
v 112.731750 10.748007 -26.567917
v 114.764435 10.201390 -28.719028
v 112.664398 10.413219 -34.229729
v 113.956787 8.440585 6.721912
v 95.074898 -10.342499 11.100801
v 95.074997 -6.505867 7.542677
v 95.075706 9.782967 11.784501
v 95.075493 6.531459 0.000000
v 95.074890 -11.924200 -0.000000
v 95.075989 10.840000 12.807496
v 95.075302 -0.095645 8.679994
v 122.677094 0.621356 6.479784
v 121.411804 -3.328709 9.686122
v 124.186813 5.014725 6.339575
v 124.850159 8.973266 -0.000000
v 124.658798 10.563900 6.268623
v 126.586906 -2.704128 8.245363
v 127.975136 2.824427 5.837293
v 128.812073 7.424634 -0.000001
v 129.103577 9.306485 13.380211
v 101.465805 7.125380 14.736996
v 108.645477 7.807618 15.525543
v 109.518272 7.418725 21.957108
v 106.471313 6.841111 11.784501
v 95.075493 6.531459 28.039478
v 103.380714 6.144745 41.660847
v 94.914894 5.433994 35.588287
v 98.271103 5.739234 30.468094
v 101.940826 5.883735 45.882812
v 92.817688 5.221766 2.129796
v 122.392151 -4.430821 2.056554
v 120.902359 -4.739921 -0.000000
v 120.869820 -5.396773 2.129796
v 122.392151 -4.430821 2.056554
v 120.902359 -4.739921 2.198817
v 125.901985 -3.938197 -0.000000
v 122.302917 -5.071639 -0.000000
v 90.565704 -11.933002 6.856339
v 90.566292 -10.348701 11.812227
v 90.577202 6.688209 7.449142
v 90.583702 10.392599 9.097638
v 90.567055 -8.360748 11.175999
v 90.567802 -6.517320 11.812227
v 90.577202 6.688209 12.988313
v 90.569077 -0.084781 10.989304
v 86.034607 -9.272263 9.097638
v 90.567055 -8.360748 12.766951
v 79.755150 -10.348545 18.996284
v 67.337418 12.307925 13.671685
v 86.454910 8.790752 15.559760
v 80.419586 10.535477 17.299921
v 73.855164 11.850239 14.421379
v 73.928391 -11.025865 -0.000001
v 90.587303 10.840402 -0.000000
v 95.075989 10.840000 0.000000
v 95.074890 -11.924200 -0.000000
v 90.565704 -11.933002 -0.000001
v 90.587303 10.840402 -6.721913
v 95.074898 -10.342501 -11.100800
v 95.074997 -6.505871 -0.000001
v 109.050789 12.398399 -7.542678
v 95.075706 9.782968 -11.784501
v 95.075493 6.531460 -0.000001
v 101.462799 11.532101 -0.000000
v 120.869820 -5.396773 -0.000000
v 116.321808 -9.340242 0.000000
v 101.464798 -12.317501 0.000000
v 95.074890 -11.924200 0.000000
v 109.485802 -12.259201 0.000000
v 116.992798 12.388396 -0.000000
v 95.075989 10.840000 -0.000000
v 124.658798 10.563900 -12.807496
v 95.075302 -0.095645 -6.479787
v 121.415428 -3.327160 -8.679995
v 122.681076 0.628951 -9.686122
v 124.185555 5.018224 -6.339572
v 124.834969 8.987979 -0.000001
v 129.103577 9.306485 -0.000000
v 124.658798 10.563900 0.000000
v 123.183800 1.950669 -6.268622
v 126.590179 -2.699740 -8.245361
v 127.975182 2.829842 -5.837293
v 128.812073 7.424635 -0.000001
v 129.103577 9.306485 -13.380209
v 101.465805 7.125379 -14.736996
v 108.637665 7.795415 -15.525543
v 109.511093 7.408118 -21.957108
v 106.471359 6.841157 -11.784501
v 95.075493 6.531460 -28.039476
v 103.380753 6.144773 -41.660851
v 94.914894 5.433987 -35.588287
v 98.271103 5.739232 -30.468094
v 101.940826 5.883741 -45.882812
v 92.817688 5.221759 -2.129793
v 122.392151 -4.430822 -0.000000
v 122.302917 -5.071639 -0.000000
v 120.869820 -5.396773 -2.056551
v 120.902359 -4.739921 -2.129793
v 122.392151 -4.430822 -2.056551
v 120.902359 -4.739921 -2.198817
v 125.901978 -3.938197 -0.000000
v 122.302917 -5.071639 -0.000000
v 90.565704 -11.933002 -0.000000
v 85.881165 -12.561449 -6.856338
v 90.566292 -10.348701 -7.449142
v 90.583702 10.392599 -11.812225
v 90.577202 6.688210 -9.097637
v 90.567055 -8.360750 -11.175999
v 90.567810 -6.517321 -11.812225
v 90.577202 6.688210 -12.988313
v 90.569084 -0.084779 0.000000
v 73.643372 16.761988 0.000000
v 80.310066 16.002735 -0.000000
v 86.623474 13.444309 -10.989304
v 86.034607 -9.272267 -9.097637
v 90.567055 -8.360750 0.000000
v 79.608681 -13.740921 -12.766949
v 79.755157 -10.348547 0.000001
v 72.903183 -14.754120 -18.996283
v 67.337418 12.307925 0.000001
v 67.804138 17.517408 -13.671683
v 86.454910 8.790753 -15.559763
v 80.419594 10.535477 -17.299921
v 73.855164 11.850240 -14.421383
v 73.928391 -11.025867 0.000000
v 63.814598 -15.048942 0.000001
v 61.895630 17.978825 -0.000001
v 90.587303 10.840402 1.047150
v 73.239914 0.744481 1.407582
v 64.934769 1.775996 -0.000001
v 73.393494 0.686674 0.573526
v 54.373180 3.302020 3.366097
v 46.682518 2.855595 4.905760
v 37.259003 3.546652 7.254528
v 22.091616 3.989374 0.902577
v 50.665318 3.593468 0.000000
v 126.537811 8.181260 -0.000000
v 133.221466 6.875776 0.000001
v 128.726074 -3.807350 -0.000000
v 121.965813 -2.804041 -0.000001
v 73.393494 0.686674 0.000000
v 74.884804 7.044058 -1.047151
v 73.239914 0.744493 -1.407581
v 64.934769 1.776002 -0.000001
v 74.135796 -8.022912 -0.000001
v 73.393494 0.686674 -0.000000
v 80.753181 -10.888690 -0.000000
v 87.879150 11.654860 -0.000000
v 81.603699 12.603209 0.000000
v 86.129723 -10.478774 -0.573529
v 54.373184 3.302027 -3.366099
v 46.682522 2.855601 -4.905764
v 37.259003 3.546663 -7.254529
v 22.091608 3.989380 -0.902577
v 50.665318 3.593475 13.241919
v 117.446060 -6.759448 19.001991
v 114.643867 -6.314470 26.771950
v 115.191544 -4.797964 24.009447
v 112.677643 -5.049414 15.948812
v 125.128006 -3.565000 14.434811
v 121.080467 -6.660177 29.820185
v 120.694115 3.762777 28.968044
v 118.910812 -2.256305 16.800955
v 126.915550 3.756998 24.035355
v 112.731842 -3.222656 26.567913
v 114.764519 -2.676001 28.384594
v 117.689743 -0.767298 29.029797
v 119.039986 3.762759 13.267802
v 117.501793 -4.148128 19.039934
v 114.724709 -3.818425 15.309998
v 123.335670 -1.751136 14.230760
v 120.652763 -4.074839 24.035355
v 112.731842 -3.222656 15.955201
v 124.690582 3.758319 28.719025
v 112.664497 -2.887841 34.229733
v 113.956856 -0.915153 36.470905
v 114.934753 3.762763 29.820185
v 120.694115 3.762777 26.420328
v 123.149971 3.762780 20.576557
v 125.942581 3.759454 16.800955
v 126.915550 3.756998 13.241958
v 117.458229 14.284678 19.001978
v 114.655411 13.841347 26.771948
v 115.191345 12.323394 24.009441
v 112.677444 12.574775 15.948812
v 125.135773 11.081767 14.434811
v 121.092430 14.181138 29.820185
v 120.694115 3.762777 29.029797
v 119.039986 3.762759 28.968046
v 118.910675 9.781822 15.955201
v 124.690582 3.758319 16.800955
v 126.915550 3.756998 24.035357
v 112.731689 10.748017 26.567921
v 114.764374 10.201421 28.384590
v 117.689629 8.292789 36.470905
v 114.934753 3.762763 29.029797
v 119.039986 3.762759 13.269996
v 117.514580 11.673293 21.898899
v 116.715500 3.760114 19.039936
v 114.733414 11.345202 15.309998
v 123.345459 9.265550 14.230757
v 120.663971 11.595264 24.035357
v 112.731689 10.748017 15.955201
v 124.690582 3.758319 28.719028
v 112.664337 10.413246 34.229736
v 113.956741 8.440637 36.470905
v 114.934753 3.762763 -13.241931
v 117.446007 -6.759444 -19.001991
v 114.643791 -6.314470 -26.771952
v 115.191483 -4.797993 -24.009445
v 112.677582 -5.049420 -15.948814
v 125.127945 -3.565053 -14.434811
v 121.080391 -6.660201 -29.820185
v 120.694122 3.762704 -28.968042
v 118.910767 -2.256365 -16.800953
v 126.915558 3.756932 -24.035355
v 112.731796 -3.222664 -26.567917
v 114.764481 -2.676030 -28.384592
v 117.689713 -0.767349 -29.029791
v 119.039986 3.762698 -13.267814
v 117.501755 -4.148127 -19.039938
v 114.724663 -3.818427 -15.309996
v 123.335632 -1.751176 -14.230758
v 120.652718 -4.074860 -24.035355
v 112.731796 -3.222664 -15.955200
v 124.690590 3.758270 -28.719028
v 112.664452 -2.887862 -34.229729
v 113.956825 -0.915202 -36.470905
v 114.934753 3.762699 -29.820185
v 120.694122 3.762704 -26.420332
v 123.149971 3.762704 -20.576555
v 125.942581 3.759381 -16.800953
v 126.915558 3.756932 -13.241949
v 117.458305 14.284678 -19.001987
v 114.655510 13.841341 -26.771950
v 115.191414 12.323359 -24.009449
v 112.677521 12.574762 -15.948813
v 125.135834 11.081711 -14.434813
v 121.092514 14.181112 -29.820185
v 120.694122 3.762704 -29.029791
v 119.039986 3.762698 -28.968044
v 118.910721 9.781757 -15.955200
v 124.690590 3.758270 -16.800953
v 126.915558 3.756932 -24.035355
v 112.731750 10.748007 -26.567917
v 114.764435 10.201390 -28.384594
v 117.689674 8.292735 -29.029791
v 119.039986 3.762698 -36.470905
v 114.934753 3.762699 -13.269993
v 117.514633 11.673291 -19.039938
v 114.733475 11.345200 -21.898895
v 116.714500 3.761927 -15.309996
v 123.345520 9.265509 -14.230756
v 120.664032 11.595241 -24.035355
v 112.731750 10.748007 -15.955200
v 124.690590 3.758270 -28.719028
v 112.664398 10.413219 -34.229729
v 113.956787 8.440585 -36.470905
v 114.934753 3.762699 0.731065
v 121.372780 -9.685169 -11.178106
v 116.683525 -9.813237 -20.676186
v 117.577621 -9.230770 -31.468704
v 118.573395 -4.003091 -27.082047
v 121.742073 -4.973660 -25.070879
v 110.531036 -7.606865 -18.610004
v 113.067955 -9.239102 -32.568180
v 120.874329 3.763020 -28.181519
v 124.042999 3.763020 -14.670663
v 126.595131 -5.691638 -19.542131
v 125.342087 -5.483787 -20.641598
v 127.646179 3.758727 -15.770135
v 128.901550 3.755560 -28.635197
v 113.774597 -7.282446 -11.211495
v 116.755440 -6.443983 -18.658968
v 113.172279 -6.018582 -25.104300
v 110.600983 -5.249891 -28.371937
v 113.223640 -4.544583 -13.846428
v 124.282578 -3.351291 -12.453935
v 120.820953 -6.349435 -30.715910
v 116.997925 -2.081893 -31.548382
v 118.740089 3.763005 -14.678900
v 126.030785 3.757277 -31.147406
v 110.514091 -4.817901 -38.257595
v 112.181557 -2.272658 -41.149265
v 113.443306 3.763013 -22.347738
v 115.740280 3.760799 -12.717208
v 121.388329 17.205334 -20.676172
v 117.577423 16.756689 -11.178101
v 116.699265 17.338945 -27.082045
v 121.741943 12.499672 -31.468706
v 118.573280 11.529100 -25.070869
v 110.530884 15.132741 -18.609995
v 113.082977 16.766937 -14.670650
v 126.605232 13.206353 -19.542130
v 125.348236 13.002862 -28.635191
v 113.774437 14.808383 -11.214286
v 116.771973 13.969604 -18.658962
v 113.183594 13.546287 -28.371939
v 113.223534 12.070509 -25.104300
v 110.600861 12.775769 -13.846417
v 124.295280 10.862986 -12.453930
v 120.835495 13.868912 -30.715900
v 116.997833 9.607882 -31.147402
v 110.513962 12.343822 -38.257584
v 112.181465 9.798649 0.036527

vt 0.985352 0.244458
vt 0.985347 0.243856
vt 0.876397 0.499999
vt 0.985359 0.338468
vt 0.876554 0.222275
vt 0.985342 0.259283
vt 0.985335 0.218354
vt 0.876200 0.257653
vt 0.876169 0.302721
vt 0.876151 0.354237
vt 0.985333 0.499999
vt 0.985332 0.499999
vt 0.876118 0.351323
vt 0.876133 0.499999
vt 0.876642 0.499999
vt 0.762658 0.319984
vt 0.763254 0.325990
vt 0.778876 0.203535
vt 0.776554 0.162593
vt 0.630376 0.124858
vt 0.471384 0.296599
vt 0.483148 0.311614
vt 0.633627 0.261701
vt 0.766374 0.204412
vt 0.767435 0.108222
vt 0.433821 0.139540
vt 0.311729 0.014997
vt 0.171808 0.040835
vt 0.381686 0.088074
vt 0.313522 0.083865
vt 0.437972 0.148023
vt 0.770397 0.180156
vt 0.773718 0.187278
vt 0.473158 0.155791
vt 0.613683 0.223154
vt 0.614284 0.499999
vt 0.466255 0.499999
vt 0.627724 0.499999
vt 0.780636 0.082354
vt 0.602453 0.123168
vt 0.628879 0.499999
vt 0.610736 0.288309
vt 0.613276 0.499999
vt 0.448327 0.269633
vt 0.448492 0.282685
vt 0.367215 0.499999
vt 0.324826 0.245827
vt 0.228261 0.499999
vt 0.228199 0.269156
vt 0.241065 0.499999
vt 0.181721 0.110307
vt 0.158316 0.014997
vt 0.018395 0.058840
vt 0.160109 0.255417
vt 0.089554 0.499999
vt 0.028307 0.663558
vt 0.985352 0.755540
vt 0.985347 0.756141
vt 0.876397 0.661530
vt 0.876554 0.777723
vt 0.985342 0.740714
vt 0.985335 0.781644
vt 0.876200 0.742345
vt 0.876169 0.697277
vt 0.876151 0.645760
vt 0.985333 0.648675
vt 0.876133 0.680013
vt 0.763254 0.674008
vt 0.778876 0.796463
vt 0.776554 0.837405
vt 0.630376 0.875139
vt 0.471384 0.703399
vt 0.483148 0.688384
vt 0.633627 0.738297
vt 0.766374 0.795586
vt 0.767435 0.891776
vt 0.433821 0.860458
vt 0.311729 0.985001
vt 0.171808 0.959163
vt 0.381686 0.911924
vt 0.313522 0.916132
vt 0.437972 0.851975
vt 0.770397 0.819842
vt 0.773718 0.812720
vt 0.473158 0.844207
vt 0.613683 0.776844
vt 0.614284 0.917644
vt 0.602453 0.876830
vt 0.628879 0.711688
vt 0.613276 0.730365
vt 0.448492 0.717313
vt 0.367215 0.754171
vt 0.228261 0.730842
vt 0.241065 0.889691
vt 0.158316 0.985001
vt 0.018395 0.941157
vt 0.160109 0.744581
vt 0.089554 1.000000
vt 0.006582 0.084820
vt 0.006552 0.204835
vt 0.006543 0.268072
vt 0.060161 0.204445
vt 0.060116 0.088000
vt 0.060125 0.324304
vt 0.006629 0.323900
vt 0.060217 0.140115
vt 0.060105 0.833653
vt 0.578946 0.835134
vt 0.691314 0.833847
vt 0.321175 0.826443
vt 0.753708 0.729850
vt 0.397039 0.675760
vt 0.318929 0.854569
vt 0.483495 0.770936
vt 0.682560 0.830136
vt 0.641773 0.767071
vt 0.743193 0.782076
vt 0.589338 0.775178
vt 0.636940 0.910497
vt 0.476804 0.892585
vt 0.326262 0.908235
vt 0.549536 0.876861
vt 0.648072 0.907609
vt 0.694620 0.785949
vt 0.492786 0.808464
vt 0.828076 0.120929
vt 0.902962 0.204682
vt 0.923120 0.261228
vt 0.893106 0.769838
vt 0.303182 0.705490
vt 0.268642 0.886018
vt 0.403574 0.815229
vt 0.410003 0.649945
vt 0.441177 0.617598
vt 0.366469 0.658114
vt 0.732917 0.656605
vt 0.517095 0.663165
vt 0.588941 0.660083
vt 0.664068 0.741091
vt 0.807049 0.736965
vt 0.737793 0.718341
vt 0.407646 0.732221
vt 0.508936 0.733079
vt 0.667815 0.735662
vt 0.589014 0.790456
vt 0.900714 0.883638
vt 0.594521 0.891319
vt 0.725718 0.591135
vt 0.785991 0.576351
vt 0.450570 0.585928
vt 0.659360 0.579650
vt 0.519836 0.370702
vt 0.384277 0.370971
vt 0.723562 0.370769
vt 0.452384 0.370929
vt 0.660480 0.370823
vt 0.521721 0.582521
vt 0.591416 0.370876
vt 0.583995 0.598793
vt 0.725437 0.558632
vt 0.785905 0.553376
vt 0.660740 0.544845
vt 0.724245 0.573120
vt 0.723047 0.549911
vt 0.591096 0.546937
vt 0.521222 0.543690
vt 0.451954 0.486545
vt 0.451969 0.486613
vt 0.521305 0.486674
vt 0.587837 0.486755
vt 0.660956 0.486815
vt 0.724037 0.481730
vt 0.786221 0.776056
vt 0.404055 0.763465
vt 0.818713 0.765779
vt 0.892799 0.735720
vt 0.636905 0.420863
vt 0.585653 0.418771
vt 0.521549 0.417165
vt 0.452218 0.422659
vt 0.660693 0.420039
vt 0.723763 0.418611
vt 0.786768 0.943880
vt 0.530059 0.960738
vt 0.561932 0.977064
vt 0.552327 0.295575
vt 0.006605 0.627834
vt 0.003728 0.138885
vt 0.006536 0.426695
vt 0.320592 0.845633
vt 0.143264 0.302497
vt 0.721834 0.172469
vt 0.751069 0.068392
vt 0.719506 0.167653
vt 0.868759 0.496672
vt 0.321780 0.488457
vt 0.247467 0.300743
vt 0.620977 0.177571
vt 0.627274 0.085611
vt 0.612455 0.342992
vt 0.699776 0.932616
vt 0.122154 0.319175
vt 0.535354 0.101646
vt 0.531237 0.479877
vt 0.170478 0.403299
vt 0.245804 0.381735
vt 0.164459 0.750064
vt 0.155712 0.333793
vt 0.620640 0.026082
vt 0.789292 0.186098
vt 0.533099 0.291148
vt 0.534760 0.627870
vt 0.171578 0.349266
vt 0.790297 0.471926
vt 0.111164 0.464194
vt 0.046622 0.749968
vt 0.003728 0.932271
vt 0.003728 0.989869
vt 0.612772 0.596110
vt 0.322680 0.596110
vt 0.089477 0.922957
vt 0.795313 0.891208
vt 0.863662 0.862514
vt 0.929604 0.964147
vt 0.399624 0.964173
vt 0.477082 0.960938
vt 0.242188 0.596110
vt 0.161835 0.956483
vt 0.729707 0.596110
vt 0.016261 0.964154
vt 0.325530 0.391174
vt 0.060299 0.964214
vt 0.521003 0.014251
vt 0.006709 0.299949
vt 0.828721 0.014385
vt 0.060299 0.391174
vt 0.006701 0.596110
vt 0.244447 0.844161
vt 0.003728 0.268935
vt 0.006582 0.084820
vt 0.006552 0.204835
vt 0.006543 0.268072
vt 0.060161 0.204445
vt 0.060116 0.088000
vt 0.060125 0.324304
vt 0.006629 0.323900
vt 0.060217 0.140115
vt 0.060105 0.833653
vt 0.578946 0.835134
vt 0.691314 0.833847
vt 0.321175 0.826443
vt 0.753708 0.729850
vt 0.397039 0.675760
vt 0.318929 0.854569
vt 0.483495 0.770936
vt 0.682560 0.830136
vt 0.641773 0.767071
vt 0.743193 0.782076
vt 0.589338 0.775178
vt 0.636940 0.910497
vt 0.476804 0.892585
vt 0.326262 0.908235
vt 0.549536 0.876861
vt 0.648072 0.907609
vt 0.694620 0.785949
vt 0.492786 0.808464
vt 0.828076 0.120929
vt 0.902962 0.204682
vt 0.923120 0.261228
vt 0.893106 0.769838
vt 0.303182 0.705490
vt 0.268642 0.886018
vt 0.403574 0.815229
vt 0.410003 0.649945
vt 0.441177 0.617598
vt 0.366469 0.658114
vt 0.732917 0.656605
vt 0.517095 0.663165
vt 0.588941 0.660083
vt 0.664068 0.741091
vt 0.807049 0.736965
vt 0.737793 0.718341
vt 0.407646 0.732221
vt 0.508936 0.733079
vt 0.667815 0.735662
vt 0.589014 0.790456
vt 0.900714 0.883638
vt 0.594521 0.891319
vt 0.725718 0.591135
vt 0.785991 0.576351
vt 0.450570 0.585928
vt 0.659360 0.579650
vt 0.519836 0.370702
vt 0.384277 0.370971
vt 0.723562 0.370769
vt 0.452384 0.370929
vt 0.660480 0.370823
vt 0.521721 0.582521
vt 0.591416 0.370876
vt 0.583995 0.598793
vt 0.725437 0.558632
vt 0.785905 0.553376
vt 0.660740 0.544845
vt 0.724245 0.573120
vt 0.723047 0.549911
vt 0.591096 0.546937
vt 0.521222 0.543690
vt 0.451954 0.486545
vt 0.451969 0.486613
vt 0.521305 0.486674
vt 0.587837 0.486755
vt 0.660956 0.486815
vt 0.724037 0.481730
vt 0.786221 0.776056
vt 0.404055 0.763465
vt 0.818713 0.765779
vt 0.892799 0.735720
vt 0.636905 0.420863
vt 0.585653 0.418771
vt 0.521549 0.417165
vt 0.452218 0.422659
vt 0.660693 0.420039
vt 0.723763 0.418611
vt 0.786768 0.943880
vt 0.530059 0.960738
vt 0.561932 0.977064
vt 0.552327 0.295575
vt 0.006605 0.138885
vt 0.006536 0.426695
vt 0.320592 0.845633
vt 0.143264 0.302497
vt 0.721834 0.172469
vt 0.751069 0.068392
vt 0.719506 0.167653
vt 0.868759 0.496672
vt 0.321780 0.488457
vt 0.247467 0.300743
vt 0.620977 0.177571
vt 0.627274 0.085611
vt 0.612455 0.342992
vt 0.699776 0.932616
vt 0.122154 0.319175
vt 0.535354 0.101646
vt 0.531237 0.479877
vt 0.170478 0.403299
vt 0.245804 0.381735
vt 0.164459 0.750064
vt 0.155712 0.333793
vt 0.620640 0.026082
vt 0.789292 0.186098
vt 0.533099 0.291148
vt 0.534760 0.627870
vt 0.171578 0.349266
vt 0.790297 0.471926
vt 0.111164 0.464194
vt 0.046622 0.944178
vt 0.938583 0.903238
vt 0.943507 0.902863
vt 0.982961 0.940242
vt 0.979846 0.016022
vt 0.380878 0.107830
vt 0.404367 0.100713
vt 0.436081 0.043425
vt 0.436109 0.229256
vt 0.436059 0.185438
vt 0.436052 0.168895
vt 0.348845 0.223451
vt 0.349047 0.262930
vt 0.348852 0.273454
vt 0.436077 0.060583
vt 0.392765 0.070934
vt 0.347965 0.146795
vt 0.436056 0.343070
vt 0.346675 0.311546
vt 0.410139 0.299873
vt 0.348088 0.117641
vt 0.348590 0.099466
vt 0.462013 0.229228
vt 0.461945 0.185323
vt 0.461936 0.273692
vt 0.462004 0.146499
vt 0.461949 0.282684
vt 0.080887 0.081908
vt 0.080748 0.173341
vt 0.080510 0.327841
vt 0.080522 0.221322
vt 0.080682 0.129104
vt 0.080506 0.297620
vt 0.270275 0.343438
vt 0.238214 0.075981
vt 0.244077 0.120852
vt 0.244279 0.222528
vt 0.273863 0.171389
vt 0.244660 0.258911
vt 0.253382 0.295203
vt 0.249999 0.220533
vt 0.252995 0.257607
vt 0.230720 0.219649
vt 0.233169 0.293444
vt 0.232484 0.173439
vt 0.173605 0.125570
vt 0.175200 0.082098
vt 0.176034 0.344391
vt 0.177623 0.260395
vt 0.273709 0.170232
vt 0.261408 0.119055
vt 0.257907 0.075095
vt 0.256547 0.343641
vt 0.254978 0.250520
vt 0.080859 0.169952
vt 0.279753 0.118751
vt 0.277449 0.074251
vt 0.275102 0.027281
vt 0.269343 0.974244
vt 0.981391 0.328489
vt 0.419309 0.043425
vt 0.436109 0.315237
vt 0.462101 0.008645
vt 0.392828 0.031277
vt 0.406728 0.048817
vt 0.462077 0.867015
vt 0.943712 0.980522
vt 0.937836 0.867398
vt 0.984946 0.317413
vt 0.436134 0.944178
vt 0.938583 0.903238
vt 0.943507 0.902863
vt 0.982961 0.940242
vt 0.979846 0.016022
vt 0.380878 0.107830
vt 0.404367 0.100713
vt 0.436081 0.043425
vt 0.436109 0.229256
vt 0.436059 0.185438
vt 0.436052 0.168895
vt 0.348845 0.223451
vt 0.349047 0.262930
vt 0.348852 0.273454
vt 0.436077 0.060583
vt 0.392765 0.070934
vt 0.347965 0.146795
vt 0.436056 0.343070
vt 0.346675 0.311546
vt 0.410139 0.299873
vt 0.348088 0.117641
vt 0.348590 0.099466
vt 0.462013 0.229228
vt 0.461945 0.185323
vt 0.461936 0.273692
vt 0.462004 0.146499
vt 0.461949 0.282684
vt 0.080887 0.081908
vt 0.080748 0.173341
vt 0.080510 0.327841
vt 0.080522 0.221322
vt 0.080682 0.129104
vt 0.080506 0.297620
vt 0.270275 0.343438
vt 0.238214 0.075981
vt 0.244077 0.120852
vt 0.244279 0.222528
vt 0.273863 0.171389
vt 0.244660 0.258911
vt 0.253382 0.295203
vt 0.249999 0.220533
vt 0.252995 0.257607
vt 0.230720 0.219649
vt 0.233169 0.293444
vt 0.232484 0.173439
vt 0.173605 0.125570
vt 0.175200 0.082098
vt 0.176034 0.344391
vt 0.177623 0.260395
vt 0.273709 0.170232
vt 0.261408 0.119055
vt 0.257907 0.075095
vt 0.256547 0.343641
vt 0.254978 0.250520
vt 0.080859 0.169952
vt 0.279753 0.118751
vt 0.277449 0.074251
vt 0.275102 0.027281
vt 0.269343 0.688570
vt 0.808331 0.527891
vt 0.812787 0.700349
vt 0.918835 0.503434
vt 0.918698 0.508633
vt 0.859983 0.695229
vt 0.860106 0.601154
vt 0.807652 0.559741
vt 0.928974 0.648127
vt 0.929035 0.601932
vt 0.860047 0.505611
vt 0.975390 0.650305
vt 0.985727 0.561918
vt 0.985665 0.960973
vt 0.810512 0.971820
vt 0.846819 0.971820
vt 0.846819 0.961464
vt 0.828748 0.960973
vt 0.764814 0.996304
vt 0.856674 0.960973
vt 0.810512 0.961464
vt 0.828748 0.996304
vt 0.856674 0.456318
vt 0.848524 0.407446
vt 0.901862 0.392371
vt 0.952486 0.974884
vt 0.904084 0.688570
vt 0.808331 0.527891
vt 0.812787 0.700349
vt 0.918835 0.503434
vt 0.918698 0.508633
vt 0.859983 0.695229
vt 0.860106 0.601154
vt 0.807652 0.559741
vt 0.928974 0.648127
vt 0.929035 0.601932
vt 0.860047 0.702527
vt 0.975527 0.960973
vt 0.810512 0.971820
vt 0.846819 0.971820
vt 0.846819 0.961464
vt 0.828748 0.960973
vt 0.764814 0.960973
vt 0.810512 0.961464
vt 0.828748 0.456318
vt 0.848524 0.407446
vt 0.901862 0.688570
vt 0.808331 0.527891
vt 0.812787 0.700349
vt 0.918835 0.503434
vt 0.918698 0.508633
vt 0.859983 0.695229
vt 0.860106 0.601154
vt 0.807652 0.559741
vt 0.928974 0.648127
vt 0.929035 0.601932
vt 0.860047 0.505611
vt 0.975390 0.650305
vt 0.985727 0.561918
vt 0.985665 0.960973
vt 0.810512 0.971820
vt 0.846819 0.971820
vt 0.846819 0.961464
vt 0.828748 0.960973
vt 0.764814 0.996304
vt 0.856674 0.960973
vt 0.810512 0.961464
vt 0.828748 0.996304
vt 0.856674 0.456318
vt 0.848524 0.407446
vt 0.901862 0.392371
vt 0.952486 0.974884
vt 0.904084 0.688570
vt 0.808331 0.527891
vt 0.812787 0.700349
vt 0.918835 0.503434
vt 0.918698 0.508633
vt 0.859983 0.695229
vt 0.860106 0.601154
vt 0.807652 0.559741
vt 0.928974 0.648127
vt 0.929035 0.601932
vt 0.860047 0.702527
vt 0.975527 0.960973
vt 0.810512 0.971820
vt 0.846819 0.971820
vt 0.846819 0.961464
vt 0.828748 0.960973
vt 0.764814 0.960973
vt 0.810512 0.961464
vt 0.828748 0.456318
vt 0.848524 0.407446
vt 0.901862 0.903171
vt 0.261898 0.851342
vt 0.255637 0.770757
vt 0.964329 0.722679
vt 0.948949 0.964151
vt 0.261704 0.837466
vt 0.990469 0.794280
vt 0.239502 0.139221
vt 0.985071 0.065123
vt 0.944555 0.227431
vt 0.996236 0.304104
vt 0.945588 0.361900
vt 0.865083 0.930520
vt 0.579709 0.917542
vt 0.631296 0.935022
vt 0.670072 0.975593
vt 0.695803 0.738574
vt 0.884073 0.751947
vt 0.816316 0.666842
vt 0.331050 0.663786
vt 0.792432 0.738410
vt 0.211585 0.572971
vt 0.382537 0.420280
vt 0.384106 0.491589
vt 0.383860 0.545599
vt 0.383913 0.370998
vt 0.786637 0.059387
vt 0.864722 0.940407
vt 0.187500 0.960938
vt 0.187500 0.940407
vt 0.242188 0.033041
vt 0.876844 0.091647
vt 0.853187 0.996311
vt 0.552729 0.998075
vt 0.003728 0.998083
vt 0.101267 0.449779
vt 0.364550 0.503845
vt 0.364630 0.306795
vt 0.481605 0.281759
vt 0.481595 0.102407
vt 0.481467 0.194394
vt 0.481577 0.934426
vt 0.160998 0.998094
vt 0.133659 0.846218
vt 0.186689 0.360714
vt 0.083693 0.073851
vt 0.529646 0.050155
vt 0.611615 0.032298
vt 0.700771 0.764369
vt 0.204861 0.596110
vt 0.364675 0.014385
vt 0.060299 0.391174
vt 0.060299 0.391174
vt 0.006701 0.014251
vt 0.006709 0.903171
vt 0.261898 0.851342
vt 0.255637 0.891208
vt 0.863662 0.770757
vt 0.964329 0.722679
vt 0.948949 0.862514
vt 0.929604 0.964214
vt 0.521003 0.964173
vt 0.477082 0.964154
vt 0.325530 0.964151
vt 0.261704 0.964147
vt 0.399624 0.922957
vt 0.795313 0.837466
vt 0.990469 0.956483
vt 0.729707 0.794280
vt 0.239502 0.065123
vt 0.944555 0.139221
vt 0.985071 0.227431
vt 0.996236 0.304104
vt 0.945588 0.299949
vt 0.828721 0.361900
vt 0.865083 0.989869
vt 0.612772 0.930520
vt 0.579709 0.917542
vt 0.631296 0.935022
vt 0.670072 0.975593
vt 0.695803 0.738574
vt 0.884073 0.751947
vt 0.816316 0.666842
vt 0.331050 0.663786
vt 0.792432 0.738410
vt 0.211585 0.572971
vt 0.382537 0.420280
vt 0.384106 0.491589
vt 0.383860 0.545599
vt 0.383913 0.370998
vt 0.786637 0.059387
vt 0.864722 0.960938
vt 0.242188 0.960938
vt 0.187500 0.940407
vt 0.187500 0.940407
vt 0.242188 0.033041
vt 0.876844 0.091647
vt 0.853187 0.996311
vt 0.552729 0.998075
vt 0.003728 0.932271
vt 0.003728 0.998083
vt 0.101267 0.503845
vt 0.364630 0.449779
vt 0.364550 0.306795
vt 0.481605 0.281759
vt 0.481595 0.102407
vt 0.481467 0.194394
vt 0.481577 0.596110
vt 0.161835 0.596110
vt 0.244447 0.596110
vt 0.322680 0.934426
vt 0.160998 0.998094
vt 0.133659 0.844161
vt 0.003728 0.846218
vt 0.186689 0.749968
vt 0.003728 0.360714
vt 0.083693 0.596110
vt 0.089477 0.073851
vt 0.529646 0.050155
vt 0.611615 0.032298
vt 0.700771 0.764369
vt 0.204861 0.627834
vt 0.003728 0.596110
vt 0.016261 0.596110
vt 0.364675 0.348219
vt 0.385961 0.022720
vt 0.346118 0.356609
vt 0.398140 0.343549
vt 0.269683 0.028778
vt 0.238023 0.034900
vt 0.166527 0.037543
vt 0.080666 0.028152
vt 0.254680 0.867015
vt 0.943712 0.867398
vt 0.984946 0.974244
vt 0.981391 0.980522
vt 0.937836 0.008645
vt 0.392828 0.031277
vt 0.406728 0.348219
vt 0.385961 0.022720
vt 0.346118 0.328489
vt 0.419309 0.356609
vt 0.398140 0.317413
vt 0.436134 0.048817
vt 0.462077 0.043425
vt 0.436109 0.315237
vt 0.462101 0.343549
vt 0.269683 0.028778
vt 0.238023 0.034900
vt 0.166527 0.037543
vt 0.080666 0.028152
vt 0.254680 0.949296
vt 0.810116 0.949296
vt 0.764654 0.949950
vt 0.831864 0.949296
vt 0.810116 0.963741
vt 0.855731 0.949950
vt 0.831864 0.996343
vt 0.868748 0.963741
vt 0.855731 0.996343
vt 0.868748 0.504113
vt 0.814450 0.491096
vt 0.856982 0.488987
vt 0.903602 0.491829
vt 0.952455 0.998870
vt 0.882274 0.982829
vt 0.883188 0.993532
vt 0.894972 0.995328
vt 0.891100 0.968946
vt 0.884845 0.992459
vt 0.904126 0.955930
vt 0.887444 0.940615
vt 0.893681 0.934387
vt 0.904220 0.505611
vt 0.975390 0.561918
vt 0.985665 0.650305
vt 0.985727 0.702527
vt 0.975527 0.949296
vt 0.810116 0.949296
vt 0.764654 0.949950
vt 0.831864 0.949296
vt 0.810116 0.963741
vt 0.855731 0.949950
vt 0.831864 0.996343
vt 0.868748 0.996304
vt 0.856674 0.963741
vt 0.855731 0.996304
vt 0.856674 0.996343
vt 0.868748 0.504113
vt 0.814450 0.491096
vt 0.856982 0.488987
vt 0.903602 0.392371
vt 0.952486 0.491829
vt 0.952455 0.998870
vt 0.882274 0.974884
vt 0.904084 0.982829
vt 0.883188 0.993532
vt 0.894972 0.995328
vt 0.891100 0.968946
vt 0.884845 0.992459
vt 0.904126 0.955930
vt 0.887444 0.940615
vt 0.893681 0.934387
vt 0.904220 0.949296
vt 0.810116 0.949296
vt 0.764654 0.949950
vt 0.831864 0.949296
vt 0.810116 0.963741
vt 0.855731 0.949950
vt 0.831864 0.996343
vt 0.868748 0.963741
vt 0.855731 0.996343
vt 0.868748 0.504113
vt 0.814450 0.491096
vt 0.856982 0.488987
vt 0.903602 0.491829
vt 0.952455 0.998870
vt 0.882274 0.982829
vt 0.883188 0.993532
vt 0.894972 0.995328
vt 0.891100 0.968946
vt 0.884845 0.992459
vt 0.904126 0.955930
vt 0.887444 0.940615
vt 0.893681 0.934387
vt 0.904220 0.505611
vt 0.975390 0.561918
vt 0.985665 0.650305
vt 0.985727 0.702527
vt 0.975527 0.949296
vt 0.810116 0.949296
vt 0.764654 0.949950
vt 0.831864 0.949296
vt 0.810116 0.963741
vt 0.855731 0.949950
vt 0.831864 0.996343
vt 0.868748 0.996304
vt 0.856674 0.963741
vt 0.855731 0.996304
vt 0.856674 0.996343
vt 0.868748 0.504113
vt 0.814450 0.491096
vt 0.856982 0.488987
vt 0.903602 0.491829
vt 0.952455 0.392371
vt 0.952486 0.998870
vt 0.882274 0.982829
vt 0.883188 0.974884
vt 0.904084 0.993532
vt 0.894972 0.995328
vt 0.891100 0.968946
vt 0.884845 0.992459
vt 0.904126 0.955930
vt 0.887444 0.940615
vt 0.893681 0.934387
vt 0.904220 1.000000
vt 0.874114 0.974258
vt 0.790411 0.945868
vt 0.595502 0.757726
vt 0.372180 0.790826
vt 0.553275 0.894749
vt 0.315644 0.952782
vt 0.528385 0.489126
vt 0.403115 0.489085
vt 0.583925 0.819780
vt 0.960726 0.810219
vt 0.817360 0.491202
vt 0.847942 0.493772
vt 0.991307 0.877260
vt 0.316251 0.859105
vt 0.790484 0.842660
vt 0.528968 0.814164
vt 0.315963 0.784591
vt 0.307497 0.743080
vt 0.920236 0.850391
vt 0.865163 0.694466
vt 0.348878 0.492297
vt 0.372310 0.497756
vt 0.943451 0.794731
vt 0.175298 0.700351
vt 0.054097 0.490573
vt 0.018147 0.502971
vt 0.506815 0.045252
vt 0.866630 0.058499
vt 0.587883 0.047101
vt 0.782855 0.194181
vt 0.548152 0.227364
vt 0.367627 0.118282
vt 0.308978 0.064762
vt 0.521147 0.174478
vt 0.955446 0.178966
vt 0.812100 0.122946
vt 0.309775 0.162041
vt 0.784858 0.174584
vt 0.523522 0.217252
vt 0.302626 0.198659
vt 0.310679 0.257705
vt 0.916393 0.159998
vt 0.859609 0.295306
vt 0.345451 0.208726
vt 0.170266 0.288164
vt 0.050558 1.000000

f 1/1 3/3 2/2
f 4/4 5/5 1/1
f 6/6 8/8 7/7
f 9/9 7/7 8/8
f 10/10 7/7 9/9
f 2/2 3/3 8/8
f 11/11 13/13 12/12
f 13/13 11/11 14/14
f 5/5 4/4 15/15
f 6/6 2/2 8/8
f 1/1 5/5 3/3
f 11/11 10/10 14/14
f 7/7 10/10 11/11
f 13/13 17/17 16/16
f 17/17 13/13 14/14
f 18/18 3/3 5/5
f 3/3 18/18 19/19
f 20/20 22/22 21/21
f 22/22 20/20 23/23
f 10/10 25/25 24/24
f 25/25 10/10 9/9
f 26/26 28/28 27/27
f 28/28 26/26 29/29
f 28/28 31/31 30/30
f 31/31 28/28 29/29
f 3/3 32/32 8/8
f 32/32 3/3 33/33
f 34/34 35/35 26/26
f 35/35 34/34 36/36
f 37/37 23/23 38/38
f 23/23 37/37 22/22
f 18/18 38/38 23/23
f 38/38 18/18 39/39
f 19/19 23/23 20/20
f 23/23 19/19 18/18
f 29/29 35/35 40/40
f 35/35 29/29 26/26
f 31/31 40/40 41/41
f 40/40 31/31 29/29
f 24/24 14/14 10/10
f 14/14 24/24 17/17
f 17/17 42/42 16/16
f 42/42 17/17 43/43
f 36/36 17/17 24/24
f 17/17 36/36 43/43
f 24/24 35/35 36/36
f 35/35 24/24 25/25
f 32/32 41/41 40/40
f 41/41 32/32 33/33
f 43/43 44/44 42/42
f 44/44 43/43 45/45
f 32/32 9/9 8/8
f 9/9 32/32 25/25
f 35/35 32/32 40/40
f 32/32 35/35 25/25
f 30/30 21/21 46/46
f 46/46 37/37 47/47
f 37/37 46/46 22/22
f 19/19 33/33 3/3
f 20/20 33/33 19/19
f 33/33 20/20 41/41
f 21/21 41/41 20/20
f 41/41 21/21 31/31
f 21/21 30/30 31/31
f 34/34 43/43 36/36
f 43/43 34/34 45/45
f 48/48 44/44 45/45
f 44/44 48/48 49/49
f 26/26 27/27 34/34
f 46/46 50/50 30/30
f 50/50 47/47 51/51
f 47/47 50/50 46/46
f 21/21 22/22 46/46
f 18/18 15/15 39/39
f 15/15 18/18 5/5
f 52/52 28/28 53/53
f 28/28 52/52 27/27
f 53/53 30/30 54/54
f 30/30 53/53 28/28
f 54/54 50/50 55/55
f 50/50 54/54 30/30
f 55/55 51/51 56/56
f 51/51 55/55 50/50
f 57/57 58/58 59/59
f 4/4 57/57 60/60
f 61/61 62/62 63/63
f 64/64 63/63 62/62
f 65/65 64/64 62/62
f 58/58 63/63 59/59
f 66/66 12/12 13/13
f 13/13 67/67 66/66
f 60/60 15/15 4/4
f 61/61 63/63 58/58
f 57/57 59/59 60/60
f 66/66 67/67 65/65
f 62/62 66/66 65/65
f 13/13 16/16 68/68
f 68/68 67/67 13/13
f 69/69 60/60 59/59
f 59/59 70/70 69/69
f 71/71 72/72 73/73
f 73/73 74/74 71/71
f 65/65 75/75 76/76
f 76/76 64/64 65/65
f 77/77 78/78 79/79
f 79/79 80/80 77/77
f 79/79 81/81 82/82
f 82/82 80/80 79/79
f 59/59 63/63 83/83
f 83/83 84/84 59/59
f 85/85 77/77 86/86
f 86/86 87/87 85/85
f 37/37 38/38 74/74
f 74/74 73/73 37/37
f 69/69 74/74 38/38
f 38/38 39/39 69/69
f 70/70 71/71 74/74
f 74/74 69/69 70/70
f 80/80 88/88 86/86
f 86/86 77/77 80/80
f 82/82 89/89 88/88
f 88/88 80/80 82/82
f 75/75 65/65 67/67
f 67/67 68/68 75/75
f 68/68 16/16 42/42
f 42/42 90/90 68/68
f 87/87 75/75 68/68
f 68/68 90/90 87/87
f 75/75 87/87 86/86
f 86/86 76/76 75/75
f 83/83 88/88 89/89
f 89/89 84/84 83/83
f 90/90 42/42 44/44
f 44/44 91/91 90/90
f 83/83 63/63 64/64
f 64/64 76/76 83/83
f 86/86 88/88 83/83
f 83/83 76/76 86/86
f 81/81 92/92 72/72
f 92/92 47/47 37/37
f 37/37 73/73 92/92
f 70/70 59/59 84/84
f 71/71 70/70 84/84
f 84/84 89/89 71/71
f 72/72 71/71 89/89
f 89/89 82/82 72/72
f 72/72 82/82 81/81
f 85/85 87/87 90/90
f 90/90 91/91 85/85
f 93/93 91/91 44/44
f 44/44 49/49 93/93
f 77/77 85/85 78/78
f 92/92 81/81 94/94
f 94/94 51/51 47/47
f 47/47 92/92 94/94
f 72/72 92/92 73/73
f 69/69 39/39 15/15
f 15/15 60/60 69/69
f 95/95 96/96 79/79
f 79/79 78/78 95/95
f 96/96 97/97 81/81
f 81/81 79/79 96/96
f 97/97 98/98 94/94
f 94/94 81/81 97/97
f 98/98 56/56 51/51
f 51/51 94/94 98/98
f 489/489 493/493 484/484
f 493/493 491/491 487/487
f 485/485 490/490 493/493
f 494/494 487/487 496/496
f 491/491 496/496 487/487
f 486/486 492/492 493/493
f 491/491 492/492 496/496
f 495/495 496/496 492/492
f 492/492 486/486 495/495
f 520/520 495/495 486/486
f 492/492 491/491 493/493
f 488/488 485/485 493/493
f 490/490 484/484 493/493
f 489/489 486/486 493/493
f 488/488 493/493 487/487
f 727/727 728/728 497/497
f 501/501 497/497 728/728
f 729/729 503/503 730/730
f 503/503 729/729 504/504
f 731/731 732/732 498/498
f 500/500 498/498 732/732
f 733/733 499/499 734/734
f 499/499 733/733 505/505
f 734/734 504/504 729/729
f 504/504 734/734 499/499
f 732/732 727/727 500/500
f 497/497 500/500 727/727
f 728/728 730/730 501/501
f 503/503 501/501 730/730
f 498/498 502/502 731/731
f 735/735 731/731 502/502
f 736/736 737/737 506/506
f 737/737 507/507 506/506
f 507/507 737/737 738/738
f 738/738 508/508 507/507
f 508/508 738/738 739/739
f 515/515 510/510 519/519
f 519/519 513/513 517/517
f 511/511 519/519 516/516
f 749/749 750/750 513/513
f 517/517 513/513 750/750
f 512/512 519/519 518/518
f 517/517 750/750 518/518
f 751/751 518/518 750/750
f 518/518 751/751 512/512
f 752/752 512/512 751/751
f 518/518 519/519 517/517
f 514/514 519/519 511/511
f 516/516 519/519 510/510
f 515/515 519/519 512/512
f 514/514 513/513 519/519
f 753/753 521/521 754/754
f 525/525 754/754 521/521
f 755/755 526/526 527/527
f 526/526 755/755 756/756
f 757/757 522/522 758/758
f 524/524 758/758 522/522
f 759/759 523/523 760/760
f 523/523 759/759 761/761
f 761/761 527/527 523/523
f 527/527 761/761 755/755
f 758/758 524/524 753/753
f 521/521 753/753 524/524
f 754/754 525/525 756/756
f 526/526 756/756 525/525
f 522/522 757/757 762/762
f 763/763 762/762 757/757
f 764/764 528/528 765/765
f 765/765 529/529 766/766
f 529/529 765/765 528/528
f 766/766 767/767 768/768
f 767/767 766/766 529/529
f 535/535 530/530 539/539
f 539/539 533/533 537/537
f 531/531 539/539 536/536
f 540/540 542/542 533/533
f 537/537 533/533 542/542
f 532/532 539/539 538/538
f 537/537 542/542 538/538
f 541/541 538/538 542/542
f 538/538 541/541 532/532
f 566/566 532/532 541/541
f 538/538 539/539 537/537
f 534/534 539/539 531/531
f 536/536 539/539 530/530
f 535/535 539/539 532/532
f 534/534 533/533 539/539
f 779/779 543/543 780/780
f 547/547 780/780 543/543
f 781/781 782/782 549/549
f 549/549 550/550 781/781
f 783/783 544/544 784/784
f 546/546 784/784 544/544
f 785/785 786/786 545/545
f 545/545 551/551 785/785
f 786/786 781/781 550/550
f 550/550 545/545 786/786
f 784/784 546/546 779/779
f 543/543 779/779 546/546
f 780/780 547/547 782/782
f 549/549 782/782 547/547
f 544/544 783/783 548/548
f 787/787 548/548 783/783
f 788/788 552/552 789/789
f 789/789 552/552 553/553
f 553/553 790/790 789/789
f 790/790 553/553 554/554
f 554/554 791/791 790/790
f 561/561 565/565 556/556
f 565/565 563/563 559/559
f 557/557 562/562 565/565
f 801/801 559/559 802/802
f 563/563 802/802 559/559
f 558/558 564/564 565/565
f 563/563 564/564 802/802
f 803/803 802/802 564/564
f 564/564 558/558 803/803
f 804/804 803/803 558/558
f 564/564 563/563 565/565
f 560/560 557/557 565/565
f 562/562 556/556 565/565
f 561/561 558/558 565/565
f 560/560 565/565 559/559
f 805/805 806/806 567/567
f 571/571 567/567 806/806
f 807/807 573/573 572/572
f 572/572 808/808 807/807
f 809/809 810/810 568/568
f 570/570 568/568 810/810
f 811/811 812/812 569/569
f 569/569 813/813 811/811
f 813/813 569/569 573/573
f 573/573 807/807 813/813
f 810/810 805/805 570/570
f 567/567 570/570 805/805
f 806/806 808/808 571/571
f 572/572 571/571 808/808
f 568/568 814/814 809/809
f 815/815 809/809 814/814
f 816/816 817/817 574/574
f 817/817 818/818 575/575
f 575/575 574/574 817/817
f 818/818 819/819 820/820
f 820/820 575/575 818/818
f 189/189 107/107 236/236
f 100/100 104/104 103/103
f 101/101 102/102 99/99
f 102/102 101/101 187/187
f 102/102 99/99 107/107
f 189/189 101/101 106/106
f 106/106 105/105 100/100
f 236/236 234/234 103/103
f 107/107 101/101 104/104
f 100/100 189/189 576/576
f 121/121 577/577 111/111
f 223/223 126/126 109/109
f 116/116 124/124 112/112
f 113/113 130/130 578/578
f 579/579 176/176 223/223
f 224/224 126/126 174/174
f 133/133 125/125 119/119
f 118/118 116/116 108/108
f 115/115 119/119 125/125
f 114/114 108/108 120/120
f 114/114 132/132 176/176
f 146/146 578/578 115/115
f 116/116 109/109 115/115
f 109/109 111/111 115/115
f 111/111 117/117 120/120
f 226/226 233/233 576/576
f 580/580 231/231 133/133
f 132/132 125/125 231/231
f 110/110 577/577 114/114
f 122/122 108/108 121/121
f 576/576 231/231 148/148
f 148/148 222/222 578/578
f 146/146 581/581 148/148
f 229/229 222/222 226/226
f 184/184 120/120 116/116
f 147/147 123/123 116/116
f 123/123 124/124 114/114
f 120/120 122/122 116/116
f 108/108 147/147 114/114
f 125/125 132/132 108/108
f 118/118 125/125 175/175
f 117/117 126/126 111/111
f 126/126 117/117 111/111
f 222/222 223/223 582/582
f 110/110 130/130 112/112
f 130/130 174/174 127/127
f 583/583 584/584 129/129
f 129/129 586/586 583/583
f 128/128 585/585 235/235
f 235/235 587/587 186/186
f 219/219 185/185 588/588
f 219/219 591/591 121/121
f 225/225 132/132 582/582
f 577/577 110/110 130/130
f 131/131 582/582 175/175
f 176/176 592/592 131/131
f 130/130 113/113 225/225
f 132/132 225/225 133/133
f 132/132 133/133 174/174
f 110/110 133/133 141/141
f 141/141 175/175 113/113
f 112/112 594/594 142/142
f 594/594 112/112 125/125
f 143/143 142/142 144/144
f 115/115 117/117 125/125
f 125/125 118/118 117/117
f 141/141 144/144 118/118
f 119/119 145/145 144/144
f 115/115 144/144 594/594
f 594/594 142/142 140/140
f 141/141 140/140 143/143
f 145/145 137/137 138/138
f 137/137 145/145 144/144
f 144/144 141/141 177/177
f 138/138 145/145 177/177
f 139/139 138/138 142/142
f 112/112 125/125 146/146
f 224/224 581/581 175/175
f 126/126 146/146 224/224
f 146/146 126/126 596/596
f 582/582 131/131 127/127
f 128/128 583/583 147/147
f 108/108 122/122 124/124
f 229/229 148/148 109/109
f 124/124 148/148 136/136
f 160/160 136/136 150/150
f 134/134 150/150 158/158
f 158/158 152/152 151/151
f 151/151 139/139 137/137
f 137/137 152/152 172/172
f 173/173 183/183 161/161
f 172/172 163/163 598/598
f 598/598 599/599 600/600
f 150/150 167/167 171/171
f 158/158 162/162 152/152
f 167/167 150/150 152/152
f 158/158 165/165 178/178
f 178/178 159/159 181/181
f 181/181 171/171 162/162
f 163/163 172/172 164/164
f 161/161 163/163 597/597
f 150/150 600/600 162/162
f 164/164 162/162 161/161
f 151/151 160/160 162/162
f 164/164 163/163 149/149
f 164/164 160/160 156/156
f 156/156 159/159 165/165
f 166/166 152/152 167/167
f 152/152 166/166 599/599
f 167/167 168/168 169/169
f 168/168 167/167 153/153
f 180/180 155/155 179/179
f 179/179 157/157 165/165
f 169/169 166/166 167/167
f 166/166 169/169 171/171
f 181/181 170/170 169/169
f 165/165 170/170 172/172
f 171/171 165/165 183/183
f 182/182 172/172 167/167
f 599/599 600/600 172/172
f 161/161 173/173 130/130
f 110/110 174/174 112/112
f 174/174 125/125 141/141
f 117/117 175/175 593/593
f 146/146 176/176 592/592
f 176/176 579/579 144/144
f 145/145 119/119 169/169
f 179/179 169/169 168/168
f 180/180 168/168 182/182
f 182/182 154/154 601/601
f 601/601 154/154 180/180
f 153/153 598/598 584/584
f 602/602 127/127 185/185
f 219/219 588/588 227/227
f 227/227 605/605 602/602
f 584/584 606/606 127/127
f 602/602 607/607 608/608
f 219/219 186/186 106/106
f 187/187 105/105 102/102
f 187/187 106/106 609/609
f 609/609 610/610 196/196
f 196/196 190/190 206/206
f 206/206 197/197 613/613
f 613/613 614/614 192/192
f 192/192 193/193 195/195
f 195/195 193/193 615/615
f 615/615 204/204 201/201
f 201/201 209/209 228/228
f 228/228 205/205 196/196
f 196/196 220/220 190/190
f 190/190 196/196 193/193
f 193/193 192/192 194/194
f 194/194 193/193 617/617
f 202/202 191/191 619/619
f 619/619 191/191 203/203
f 203/203 212/212 211/211
f 211/211 204/204 191/191
f 191/191 208/208 211/211
f 211/211 212/212 198/198
f 198/198 212/212 620/620
f 215/215 205/205 621/621
f 204/204 615/615 622/622
f 622/622 200/200 623/623
f 210/210 194/194 624/624
f 624/624 208/208 213/213
f 213/213 188/188 192/192
f 214/214 201/201 215/215
f 216/216 215/215 207/207
f 205/205 215/215 196/196
f 196/196 612/612 245/245
f 248/248 329/329 626/626
f 245/245 241/241 244/244
f 243/243 242/242 240/240
f 242/242 243/243 328/328
f 240/240 243/243 248/248
f 242/242 329/329 247/247
f 246/246 247/247 241/241
f 629/629 626/626 244/244
f 242/242 248/248 245/245
f 329/329 241/241 630/630
f 631/631 262/262 252/252
f 267/267 632/632 250/250
f 265/265 257/257 253/253
f 271/271 254/254 633/633
f 317/317 634/634 632/632
f 267/267 635/635 315/315
f 266/266 274/274 260/260
f 257/257 259/259 249/249
f 260/260 256/256 266/266
f 249/249 255/255 261/261
f 273/273 255/255 317/317
f 633/633 287/287 256/256
f 250/250 257/257 256/256
f 252/252 250/250 256/256
f 258/258 252/252 261/261
f 636/636 637/637 630/630
f 638/638 639/639 274/274
f 266/266 273/273 638/638
f 631/631 251/251 255/255
f 249/249 263/263 262/262
f 638/638 630/630 289/289
f 641/641 289/289 633/633
f 642/642 287/287 289/289
f 641/641 643/643 637/637
f 261/261 325/325 257/257
f 264/264 288/288 257/257
f 265/265 264/264 255/255
f 263/263 261/261 257/257
f 288/288 249/249 255/255
f 273/273 266/266 249/249
f 266/266 259/259 316/316
f 267/267 258/258 252/252
f 258/258 267/267 252/252
f 632/632 641/641 644/644
f 271/271 251/251 253/253
f 315/315 271/271 268/268
f 645/645 646/646 270/270
f 648/648 270/270 646/646
f 647/647 269/269 649/649
f 650/650 649/649 327/327
f 326/326 651/651 652/652
f 655/655 651/651 262/262
f 273/273 640/640 644/644
f 251/251 631/631 271/271
f 644/644 272/272 316/316
f 656/656 317/317 272/272
f 254/254 271/271 640/640
f 640/640 273/273 274/274
f 274/274 273/273 315/315
f 274/274 251/251 282/282
f 316/316 282/282 254/254
f 658/658 253/253 283/283
f 253/253 658/658 266/266
f 283/283 284/284 285/285
f 258/258 256/256 266/266
f 259/259 266/266 258/258
f 285/285 282/282 259/259
f 286/286 260/260 285/285
f 285/285 256/256 658/658
f 283/283 658/658 281/281
f 281/281 282/282 284/284
f 278/278 286/286 279/279
f 286/286 278/278 285/285
f 282/282 285/285 318/318
f 286/286 279/279 318/318
f 279/279 280/280 283/283
f 266/266 253/253 287/287
f 642/642 635/635 316/316
f 287/287 267/267 635/635
f 267/267 287/287 660/660
f 272/272 644/644 268/268
f 646/646 269/269 288/288
f 263/263 249/249 265/265
f 289/289 643/643 250/250
f 289/289 265/265 277/277
f 277/277 301/301 291/291
f 291/291 275/275 299/299
f 293/293 299/299 292/292
f 280/280 292/292 278/278
f 293/293 278/278 313/313
f 324/324 314/314 302/302
f 304/304 313/313 662/662
f 663/663 662/662 664/664
f 308/308 291/291 312/312
f 303/303 299/299 293/293
f 291/291 308/308 293/293
f 306/306 299/299 319/319
f 300/300 319/319 322/322
f 312/312 322/322 303/303
f 313/313 304/304 305/305
f 304/304 302/302 661/661
f 664/664 291/291 303/303
f 303/303 305/305 302/302
f 301/301 292/292 303/303
f 304/304 305/305 290/290
f 301/301 305/305 297/297
f 300/300 297/297 306/306
f 293/293 307/307 308/308
f 307/307 293/293 663/663
f 309/309 308/308 310/310
f 308/308 309/309 294/294
f 296/296 321/321 320/320
f 298/298 320/320 306/306
f 307/307 310/310 308/308
f 310/310 307/307 312/312
f 311/311 322/322 310/310
f 311/311 306/306 313/313
f 306/306 312/312 324/324
f 313/313 323/323 308/308
f 664/664 663/663 313/313
f 314/314 302/302 271/271
f 315/315 251/251 253/253
f 266/266 315/315 282/282
f 316/316 258/258 657/657
f 317/317 287/287 656/656
f 634/634 317/317 285/285
f 260/260 286/286 310/310
f 310/310 320/320 309/309
f 309/309 321/321 323/323
f 295/295 323/323 665/665
f 295/295 665/665 321/321
f 662/662 294/294 645/645
f 268/268 666/666 326/326
f 652/652 651/651 667/667
f 670/670 667/667 666/666
f 671/671 645/645 268/268
f 672/672 666/666 673/673
f 327/327 651/651 247/247
f 246/246 328/328 243/243
f 247/247 328/328 674/674
f 676/676 674/674 336/336
f 330/330 336/336 346/346
f 337/337 346/346 679/679
f 680/680 679/679 332/332
f 333/333 332/332 335/335
f 333/333 335/335 681/681
f 344/344 681/681 341/341
f 349/349 341/341 683/683
f 345/345 683/683 336/336
f 685/685 336/336 330/330
f 336/336 330/330 333/333
f 332/332 333/333 334/334
f 333/333 334/334 686/686
f 331/331 342/342 689/689
f 331/331 689/689 343/343
f 352/352 343/343 351/351
f 344/344 351/351 331/331
f 348/348 331/331 351/351
f 352/352 351/351 338/338
f 352/352 338/338 691/691
f 345/345 355/355 693/693
f 681/681 344/344 694/694
f 340/340 694/694 695/695
f 334/334 350/350 696/696
f 348/348 696/696 353/353
f 697/697 353/353 332/332
f 341/341 354/354 355/355
f 355/355 356/356 347/347
f 355/355 345/345 336/336
f 677/677 336/336 357/357
f 358/358 357/357 422/422
f 424/424 422/422 360/360
f 357/357 415/415 423/423
f 415/415 357/357 419/419
f 361/361 420/420 362/362
f 363/363 364/364 367/367
f 368/368 366/366 365/365
f 369/369 370/370 362/362
f 371/371 372/372 374/374
f 375/375 376/376 374/374
f 700/700 375/375 362/362
f 372/372 377/377 371/371
f 371/371 361/361 362/362
f 364/364 371/371 375/375
f 416/416 370/370 373/373
f 367/367 366/366 376/376
f 375/375 369/369 370/370
f 369/369 375/375 700/700
f 702/702 416/416 363/363
f 377/377 367/367 370/370
f 375/375 700/700 420/420
f 371/371 364/364 361/361
f 371/371 420/420 363/363
f 417/417 363/363 366/366
f 365/365 370/370 373/373
f 373/373 366/366 363/363
f 373/373 378/378 382/382
f 378/378 373/373 370/370
f 425/425 381/381 418/418
f 381/381 425/425 369/369
f 366/366 368/368 420/420
f 364/364 417/417 363/363
f 417/417 364/364 362/362
f 377/377 373/373 389/389
f 389/389 376/376 372/372
f 372/372 701/701 377/377
f 377/377 412/412 368/368
f 368/368 393/393 409/409
f 396/396 390/390 389/389
f 389/389 703/703 406/406
f 406/406 397/397 391/391
f 392/392 408/408 407/407
f 408/408 392/392 395/395
f 395/395 405/405 397/397
f 406/406 394/394 392/392
f 402/402 394/394 401/401
f 394/394 402/402 395/395
f 398/398 396/396 400/400
f 396/396 398/398 395/395
f 397/397 398/398 399/399
f 398/398 397/397 386/386
f 404/404 383/383 400/400
f 383/383 404/404 391/391
f 704/704 403/403 705/705
f 403/403 704/704 402/402
f 392/392 403/403 391/391
f 403/403 392/392 397/397
f 394/394 399/399 385/385
f 387/387 401/401 399/399
f 401/401 387/387 394/394
f 401/401 399/399 400/400
f 390/390 396/396 398/398
f 410/410 398/398 390/390
f 400/400 404/404 383/383
f 400/400 398/398 401/401
f 401/401 402/402 403/403
f 403/403 384/384 705/705
f 705/705 706/706 394/394
f 406/406 392/392 393/393
f 393/393 368/368 391/391
f 707/707 704/704 406/406
f 407/407 392/392 377/377
f 377/377 372/372 408/408
f 707/707 391/391 410/410
f 383/383 398/398 406/406
f 406/406 411/411 412/412
f 413/413 414/414 409/409
f 409/409 703/703 426/426
f 426/426 427/427 708/708
f 708/708 709/709 429/429
f 710/710 426/426 711/711
f 426/426 710/710 712/712
f 713/713 430/430 431/431
f 433/433 432/432 436/436
f 435/435 437/437 434/434
f 439/439 438/438 431/431
f 441/441 440/440 443/443
f 445/445 444/444 443/443
f 444/444 714/714 431/431
f 446/446 441/441 440/440
f 430/430 440/440 431/431
f 440/440 433/433 444/444
f 439/439 716/716 442/442
f 435/435 436/436 445/445
f 438/438 444/444 439/439
f 444/444 438/438 714/714
f 716/716 717/717 432/432
f 436/436 446/446 439/439
f 714/714 444/444 713/713
f 433/433 440/440 430/430
f 713/713 440/440 432/432
f 432/432 720/720 435/435
f 439/439 434/434 442/442
f 435/435 442/442 432/432
f 447/447 442/442 451/451
f 442/442 447/447 439/439
f 450/450 718/718 721/721
f 718/718 450/450 438/438
f 437/437 435/435 713/713
f 720/720 433/433 432/432
f 433/433 720/720 431/431
f 442/442 446/446 458/458
f 445/445 458/458 441/441
f 715/715 441/441 446/446
f 481/481 446/446 437/437
f 462/462 437/437 478/478
f 459/459 465/465 458/458
f 722/722 458/458 475/475
f 466/466 475/475 460/460
f 477/477 461/461 476/476
f 461/461 477/477 464/464
f 474/474 464/464 466/466
f 463/463 475/475 461/461
f 463/463 471/471 470/470
f 471/471 463/463 464/464
f 465/465 467/467 469/469
f 467/467 465/465 464/464
f 467/467 466/466 468/468
f 466/466 467/467 455/455
f 452/452 473/473 469/469
f 473/473 452/452 460/460
f 472/472 723/723 724/724
f 723/723 472/472 471/471
f 472/472 461/461 460/460
f 461/461 472/472 466/466
f 468/468 463/463 454/454
f 470/470 456/456 468/468
f 456/456 470/470 463/463
f 468/468 470/470 469/469
f 465/465 459/459 467/467
f 467/467 479/479 459/459
f 473/473 469/469 452/452
f 467/467 469/469 470/470
f 471/471 470/470 472/472
f 453/453 472/472 724/724
f 725/725 724/724 463/463
f 461/461 475/475 462/462
f 437/437 462/462 460/460
f 723/723 726/726 475/475
f 461/461 476/476 446/446
f 441/441 446/446 477/477
f 460/460 726/726 479/479
f 467/467 452/452 475/475
f 480/480 475/475 481/481
f 483/483 482/482 478/478
f 722/722 478/478 740/740
f 741/741 509/509 742/742
f 740/740 509/509 741/741
f 744/744 509/509 745/745
f 742/742 509/509 744/744
f 748/748 509/509 769/769
f 770/770 771/771 772/772
f 770/770 769/769 771/771
f 770/770 774/774 775/775
f 770/770 772/772 774/774
f 770/770 778/778 792/792
f 555/555 793/793 794/794
f 555/555 792/792 793/793
f 555/555 796/796 797/797
f 555/555 794/794 796/796
f 555/555 800/800 821/821
f 822/822 823/823 824/824
f 821/821 823/823 822/822
f 826/826 823/823 827/827
f 824/824 823/823 826/826
f 832/832 833/833 831/831
f 834/834 835/835 833/833
f 833/833 837/837 836/836
f 839/839 834/834 838/838
f 834/834 839/839 835/835
f 833/833 841/841 840/840
f 839/839 841/841 835/835
f 841/841 839/839 842/842
f 842/842 840/840 841/841
f 840/840 842/842 843/843
f 833/833 835/835 841/841
f 833/833 836/836 844/844
f 833/833 832/832 837/837
f 833/833 840/840 831/831
f 834/834 833/833 844/844
f 845/845 837/837 832/832
f 837/837 845/845 846/846
f 836/836 847/847 844/844
f 848/848 844/844 847/847
f 849/849 831/831 840/840
f 831/831 849/849 850/850
f 834/834 851/851 838/838
f 852/852 838/838 851/851
f 844/844 848/848 834/834
f 851/851 834/834 848/848
f 850/850 832/832 831/831
f 832/832 850/850 845/845
f 846/846 836/836 837/837
f 836/836 846/846 847/847
f 840/840 853/853 849/849
f 853/853 840/840 843/843
f 854/854 848/848 847/847
f 854/854 855/855 848/848
f 851/851 848/848 855/855
f 855/855 856/856 851/851
f 852/852 851/851 856/856
f 859/859 860/860 858/858
f 861/861 862/862 859/859
f 864/864 859/859 863/863
f 862/862 839/839 838/838
f 839/839 862/862 861/861
f 866/866 859/859 865/865
f 866/866 839/839 861/861
f 839/839 866/866 842/842
f 865/865 842/842 866/866
f 842/842 865/865 843/843
f 861/861 859/859 866/866
f 863/863 859/859 867/867
f 860/860 859/859 864/864
f 865/865 859/859 858/858
f 859/859 862/862 867/867
f 864/864 868/868 860/860
f 868/868 864/864 869/869
f 870/870 871/871 867/867
f 863/863 867/867 871/871
f 858/858 872/872 865/865
f 872/872 858/858 873/873
f 852/852 874/874 838/838
f 862/862 838/838 874/874
f 874/874 870/870 862/862
f 867/867 862/862 870/870
f 860/860 873/873 858/858
f 873/873 860/860 868/868
f 863/863 869/869 864/864
f 869/869 863/863 871/871
f 853/853 865/865 872/872
f 865/865 853/853 843/843
f 870/870 875/875 871/871
f 874/874 876/876 870/870
f 875/875 870/870 876/876
f 852/852 856/856 874/874
f 876/876 874/874 856/856
f 846/846 845/845 857/857
f 850/850 849/849 857/857
f 845/845 850/850 857/857
f 847/847 846/846 857/857
f 849/849 853/853 857/857
f 854/854 847/847 857/857
f 855/855 854/854 857/857
f 856/856 855/855 869/869
f 857/857 868/868 873/873
f 857/857 872/872 868/868
f 857/857 873/873 871/871
f 857/857 869/869 872/872
f 857/857 853/853 875/875
f 857/857 871/871 876/876
f 857/857 875/875 856/856
