# MOD converted: [r]temple_h_w_leathearmor006.mod
# 638 verts, 299 faces

v 73.721909 -15.118650 -15.181983
v 81.277985 -10.056635 -13.584298
v 52.404881 -13.880428 -23.322546
v 59.091064 -7.633070 -6.117224
v 62.771641 -16.990536 -19.890795
v 70.832565 -9.219579 -27.282011
v 45.229820 -3.410388 -24.526764
v 40.457649 -7.322200 -10.846758
v 58.469170 -14.454610 -28.432524
v 40.418041 -0.551528 -17.536911
v 69.758583 -11.459022 -18.795401
v 56.207695 -10.964588 -18.856041
v 47.299313 -10.703339 -31.828949
v 38.788914 7.735732 -28.241974
v 63.328411 3.710809 -23.714518
v 75.642174 1.628538 -30.599844
v 49.098438 6.003500 -3.398646
v 79.693855 17.687519 -15.144823
v 85.258911 11.720516 -13.526507
v 59.326447 23.594532 -23.260859
v 63.392776 15.639626 -6.090066
v 69.999779 22.932978 -19.835711
v 75.337135 13.160949 -27.219095
v 48.977749 16.067968 -24.444176
v 45.933289 21.012695 -18.784912
v 53.436279 22.034101 -10.802329
v 65.135674 22.069284 -28.379671
v 43.438721 14.810741 -18.730131
v 61.857899 19.652548 -17.483597
v 74.703590 15.635259 -18.581314
v 84.450935 0.718721 0.074575
v 73.721916 -15.118646 15.181989
v 81.277985 -10.056641 13.584300
v 52.404881 -13.880432 23.322557
v 59.091064 -7.633084 6.117222
v 62.771645 -16.990534 19.890802
v 70.832565 -9.219589 27.282024
v 45.229816 -3.410407 24.526772
v 40.457649 -7.322216 10.846758
v 58.469170 -14.454614 28.432539
v 40.418041 -0.551547 17.536913
v 69.758583 -11.459027 18.795406
v 56.207691 -10.964598 18.856045
v 47.299313 -10.703348 31.828972
v 38.788914 7.735709 28.241993
v 63.328411 3.710790 23.714533
v 75.642166 1.628523 30.599871
v 49.098442 6.003478 3.398675
v 79.693855 17.687519 15.144850
v 85.258904 11.720509 13.526542
v 59.326447 23.594524 23.260889
v 63.392776 15.639609 6.090100
v 69.999786 22.932976 19.835737
v 75.337128 13.160936 27.219126
v 48.977753 16.067947 24.444210
v 45.933285 21.012676 18.784946
v 53.436275 22.034090 10.802361
v 65.135681 22.069281 28.379700
v 43.438721 14.810720 18.730165
v 61.857899 19.652534 17.483627
v 74.703590 15.635248 18.581329
v 84.450928 0.718711 0.074947
v 72.581268 -13.887386 0.000000
v 83.500221 -10.503827 -0.000000
v 89.860626 12.053521 0.000001
v 119.427200 -4.983879 0.000000
v 115.459236 -3.686793 0.000000
v 94.790321 -10.807157 0.000000
v 98.772964 -12.001797 0.000000
v 103.630066 -12.125299 -0.000000
v 111.075241 -7.130825 0.000000
v 118.448746 8.449735 -0.000000
v 94.794731 13.148406 -0.000000
v 79.804085 15.711835 -0.000000
v 60.183521 17.537739 -0.000000
v 56.501602 -15.009786 0.000000
v 82.376976 -9.441706 0.000001
v 70.129013 -12.460042 0.000001
v 119.354881 -4.180035 0.000000
v 116.498390 -3.563756 12.628259
v 89.770042 2.545869 10.565637
v 89.226189 -6.142078 10.719949
v 89.896103 7.057982 6.248233
v 89.918236 10.876296 7.911177
v 85.023804 11.574080 6.046762
v 89.128204 -8.483120 9.772842
v 80.025162 13.939301 14.972502
v 76.789467 -9.012235 15.437735
v 79.926598 9.100341 14.688693
v 84.386429 2.268973 18.061850
v 79.460403 2.664470 12.396272
v 84.771049 7.669277 7.139318
v 83.575714 -9.373896 11.880341
v 83.758667 -6.577128 12.018428
v 89.562019 -2.944052 13.521058
v 84.109917 -2.486945 17.935480
v 78.056259 -3.602538 12.966948
v 73.859749 15.112206 18.544731
v 73.264900 9.591477 21.312769
v 72.499733 2.573299 11.881849
v 49.416969 20.300756 20.001028
v 48.826702 17.954887 21.110666
v 72.012085 -1.026310 25.331219
v 48.140396 10.977696 24.511166
v 60.272881 2.796132 22.646708
v 60.639095 10.515466 7.848768
v 61.487679 19.259834 17.213863
v 61.291447 16.858786 14.852920
v 36.218784 20.294312 17.302963
v 31.164719 19.926239 20.832413
v 36.883865 18.378956 8.511586
v 75.036682 -11.923930 11.082951
v 110.429077 11.822834 5.778246
v 102.013634 13.544547 6.235284
v 110.450294 13.475008 5.424299
v 94.799515 12.079754 10.827383
v 109.458138 -6.097093 14.659035
v 102.440392 -0.320065 11.141743
v 94.803589 8.205755 12.771285
v 94.961525 3.125923 5.851281
v 94.799278 -9.688210 11.011937
v 94.822472 -6.569593 11.924731
v 101.345222 11.245275 7.877811
v 112.903175 -2.816711 3.902926
v 115.902229 -2.080787 5.358462
v 111.623817 -4.863364 10.121668
v 115.481880 5.237121 8.257335
v 115.186348 10.230395 5.161446
v 115.249306 11.288894 6.343983
v 117.996910 6.362484 9.101068
v 114.887733 1.078175 10.942526
v 114.997284 9.231141 14.195930
v 113.875496 0.285483 12.630182
v 94.957764 -3.156335 15.220720
v 113.899490 8.270891 14.756392
v 109.524292 10.716407 14.942971
v 114.490593 4.413184 6.629692
v 108.469528 -8.878773 4.227838
v 120.129578 -3.242327 7.203856
v 121.467117 0.251529 6.573701
v 123.061584 5.316985 7.011087
v 116.933907 1.606072 14.534982
v 101.933517 7.562954 12.964029
v 111.671844 -2.495792 14.236002
v 102.206139 -2.863521 43.985977
v 90.563667 4.652575 43.711876
v 90.471207 -0.151547 47.274277
v 97.930443 5.048123 45.364548
v 94.248062 -2.745783 47.002274
v 98.115479 -0.862937 35.346977
v 93.816391 -0.337017 35.325443
v 93.813179 5.269799 22.916370
v 105.074150 10.871578 23.251816
v 105.099548 -3.893115 20.949135
v 99.032593 -0.469108 20.913012
v 98.865303 7.664268 25.065924
v 109.958336 -1.074153 25.038868
v 110.120461 8.051003 23.725967
v 95.912437 8.349323 23.993431
v 96.205437 -2.198749 29.450825
v 109.216690 8.872783 26.953423
v 103.238724 -6.370048 29.464062
v 108.954308 -2.810366 25.433071
v 103.854042 12.177942 25.952477
v 94.538193 8.516013 31.745249
v 109.084503 9.009592 29.918671
v 102.158752 12.990555 27.788231
v 102.935654 13.056709 31.593153
v 108.687820 -3.021414 29.167786
v 102.300224 -6.757545 26.100346
v 94.762985 -2.464117 34.549324
v 99.846771 13.406191 37.545914
v 107.361320 -3.034136 30.853968
v 91.850899 -2.326199 34.507034
v 99.977936 -7.101337 37.725235
v 107.551079 8.830474 30.752718
v 91.731018 8.192913 37.338352
v 98.540421 -2.818846 39.421764
v 102.371140 -0.578131 39.520359
v 102.351509 6.055669 37.364017
v 98.358162 8.004729 39.637138
v 92.200317 4.961632 41.420071
v 96.311035 -2.833882 43.415825
v 100.111229 5.336863 43.234783
v 100.217377 -0.813478 39.509750
v 92.159119 -0.243789 15.890512
v 101.601494 3.563667 41.571152
v 96.354134 7.359112 17.998943
v 107.989235 9.526689 12.121663
v 100.120964 -6.993682 6.792603
v 99.280190 -10.503553 11.961792
v 105.141815 -7.295172 6.953507
v 104.114037 -10.237054 18.092619
v 112.105507 15.004848 14.808059
v 111.649231 -7.006426 16.933006
v 118.788208 -0.848160 18.284166
v 113.074905 12.512138 17.321667
v 119.382950 9.122067 16.792311
v 106.023331 14.224528 17.142479
v 106.115089 13.301508 16.393560
v 115.036942 -2.838504 45.972458
v 94.757248 12.300047 37.894547
v 98.550270 13.587194 6.685154
v 82.693703 -8.131700 12.231200
v 83.099747 -4.983900 13.749152
v 83.852264 -0.166955 11.610653
v 84.288940 3.998040 8.630640
v 84.595398 6.922896 10.433514
v 56.817734 -13.374706 19.881029
v 57.789001 -8.585406 15.039662
v 74.070618 9.318332 9.325268
v 74.267693 12.763185 19.105656
v 73.074158 0.611948 19.119600
v 59.916176 11.389263 9.832670
v 60.215797 16.916567 16.605265
v 71.927841 -6.614393 9.371164
v 70.732658 -10.911367 22.731344
v 59.333282 1.820173 5.009027
v 122.611458 2.854045 4.507278
v 120.603455 -1.682559 4.762104
v 117.331177 -1.005299 5.117918
v 119.325111 3.677943 15.763522
v 101.744835 -0.060732 17.635620
v 108.070847 -1.832983 19.331810
v 112.226593 0.857181 19.441126
v 112.312012 7.073161 16.017498
v 101.456390 7.190480 37.364017
v 98.358162 8.004729 45.726585
v 94.374008 6.712369 41.571152
v 96.354134 7.359112 17.635620
v 108.070847 -1.832983 19.441126
v 112.312012 7.073161 19.331810
v 112.226593 0.857181 17.998943
v 107.989235 9.526689 15.492465
v 105.696121 -5.373621 18.481279
v 117.269348 4.750836 15.606390
v 100.542114 9.787655 41.881359
v 96.707359 12.944403 -0.000000
v 73.879410 17.336418 0.000000
v 89.115395 -9.640572 0.000000
v 115.275620 11.981956 0.000000
v 123.851883 7.752667 -0.000001
v 102.041382 14.356293 -0.000000
v 85.114326 12.917788 -0.000001
v 110.408386 14.012831 0.000000
v 108.011734 -10.921608 -0.000000
v 84.905655 8.560373 -0.000000
v 74.415512 13.063380 -0.000000
v 123.522873 5.340433 -0.000000
v 120.073753 6.105447 -12.628258
v 89.770042 2.545869 -10.565635
v 89.226189 -6.142081 -10.719948
v 89.896103 7.057982 -6.248232
v 89.918236 10.876296 -7.911175
v 85.023804 11.574080 -6.046759
v 89.128204 -8.483121 -9.772840
v 80.025162 13.939299 -14.972499
v 76.789482 -9.012236 -15.437730
v 79.926598 9.100339 -14.688692
v 84.386429 2.268973 -18.061848
v 79.460403 2.664471 -12.396271
v 84.771049 7.669278 -7.139316
v 83.575714 -9.373897 -11.880339
v 83.758667 -6.577130 -12.018427
v 89.562019 -2.944053 -13.521057
v 84.109917 -2.486946 -17.935476
v 78.056259 -3.602543 -12.966947
v 73.859756 15.112205 -18.544729
v 73.264900 9.591478 -21.312769
v 72.499733 2.573302 -11.881847
v 49.416977 20.300758 -20.001026
v 48.826710 17.954884 -21.110664
v 72.012085 -1.026307 -25.331215
v 48.140400 10.977696 -24.511166
v 60.272888 2.796135 -22.646708
v 60.639099 10.515463 -7.848765
v 61.487682 19.259832 -17.213861
v 61.291443 16.858786 -14.852919
v 36.218784 20.294312 -17.302961
v 31.164719 19.926239 -20.832411
v 36.883869 18.378954 -8.511584
v 75.036682 -11.923930 -11.082949
v 110.423744 11.824041 -5.778244
v 102.013634 13.544546 -6.235283
v 110.450294 13.475008 -5.424299
v 94.799530 12.079754 -10.827378
v 109.458138 -6.097099 -14.659035
v 102.442307 -0.322305 -11.141743
v 94.803589 8.205754 -12.771284
v 94.961525 3.125923 -5.851279
v 94.799278 -9.688211 -11.011935
v 94.822472 -6.569594 -11.924730
v 101.340218 11.241906 -7.877812
v 112.909401 -2.813314 -3.902924
v 115.902222 -2.080786 -5.358463
v 111.623817 -4.863362 -10.121667
v 115.479332 5.243779 -8.257334
v 115.182350 10.233250 -5.161444
v 115.244942 11.291111 -6.343981
v 117.996910 6.362483 -9.101066
v 114.889404 1.083016 -10.942525
v 114.989685 9.238287 -14.195929
v 113.877045 0.289103 -12.630181
v 94.957764 -3.156336 -15.220718
v 113.896286 8.274728 -14.756392
v 109.522156 10.717078 -14.942968
v 114.489685 4.417274 -6.629691
v 108.469528 -8.878773 -4.227837
v 120.129578 -3.242328 -7.203855
v 121.467117 0.251529 -6.573701
v 123.061577 5.316985 -7.011086
v 116.933907 1.606072 -14.534983
v 101.933540 7.562976 -12.964027
v 111.678299 -2.491310 -14.236002
v 102.209572 -2.865968 -43.985973
v 90.563667 4.652571 -43.711876
v 90.471207 -0.151549 -47.274273
v 97.930443 5.048125 -45.364548
v 94.248062 -2.745784 -47.002270
v 98.115479 -0.862935 -35.346981
v 93.816391 -0.337021 -35.325439
v 93.813179 5.269794 -22.916367
v 105.074188 10.871572 -23.251816
v 105.099518 -3.893121 -20.949135
v 99.032585 -0.469089 -20.913008
v 98.865326 7.664288 -25.065924
v 109.958313 -1.074182 -25.038864
v 110.120483 8.050972 -23.725964
v 95.912453 8.349337 -23.993433
v 96.205421 -2.198740 -29.450821
v 109.216721 8.872765 -26.953424
v 103.238708 -6.370051 -29.464064
v 108.954292 -2.810378 -25.433064
v 103.854065 12.177939 -25.952473
v 94.538208 8.516026 -31.745243
v 109.084518 9.009572 -29.918663
v 102.158775 12.990551 -27.788223
v 102.935669 13.056705 -31.593153
v 108.687820 -3.021420 -29.167788
v 102.300209 -6.757548 -26.100348
v 94.762985 -2.464112 -34.549305
v 99.846756 13.406193 -37.545914
v 107.361320 -3.034131 -30.853970
v 91.850899 -2.326206 -34.507042
v 99.977943 -7.101337 -37.725224
v 107.551071 8.830482 -30.752707
v 91.731018 8.192904 -37.338352
v 98.540421 -2.818846 -39.421761
v 102.371140 -0.578127 -39.520351
v 102.351509 6.055672 -37.364010
v 98.358162 8.004729 -39.637138
v 92.200317 4.961627 -41.420071
v 96.311043 -2.833883 -43.415821
v 100.111229 5.336865 -43.234783
v 100.217377 -0.813475 -39.509750
v 92.159119 -0.243793 -15.890511
v 101.601501 3.563689 -17.635616
v 108.073669 -1.831702 -19.441124
v 112.309517 7.077010 -12.121662
v 100.120964 -6.993684 -6.792602
v 99.280190 -10.503554 -11.961790
v 105.146500 -7.296229 -6.953504
v 104.114037 -10.237055 -16.017498
v 101.456413 7.190502 -18.092619
v 112.102211 15.006433 -14.808058
v 111.661087 -7.001229 -16.933002
v 118.790436 -0.841439 -17.321667
v 119.379234 9.129175 -15.492462
v 105.706032 -5.374380 -16.792315
v 106.020256 14.224550 -17.142475
v 106.112259 13.301583 -15.606388
v 100.542152 9.787683 -45.972450
v 94.757233 12.300048 -37.894527
v 98.550262 13.587196 -6.685154
v 82.693703 -8.131700 -12.231199
v 83.099747 -4.983900 -13.749152
v 83.852264 -0.166956 -11.610653
v 84.288940 3.998039 -8.630639
v 84.595398 6.922897 -10.433517
v 56.817734 -13.374706 -19.881029
v 57.788998 -8.585408 -15.039660
v 74.070618 9.318332 -9.325266
v 74.267693 12.763185 -19.105654
v 73.074158 0.611949 -19.119600
v 59.916183 11.389262 -9.832669
v 60.215805 16.916567 -16.605263
v 71.927849 -6.614394 -9.371165
v 70.732666 -10.911369 -22.731342
v 59.333282 1.820182 -5.009027
v 122.611458 2.854045 -4.507278
v 120.603455 -1.682558 -4.762103
v 117.331177 -1.005298 -5.117918
v 119.325020 3.678795 -15.763521
v 101.746597 -0.063115 -19.331808
v 112.227806 0.860963 -17.998938
v 107.987427 9.527287 -37.364010
v 98.358162 8.004729 -41.571140
v 96.354126 7.359112 -45.726585
v 94.374023 6.712368 -41.571140
v 96.354126 7.359112 -17.635616
v 108.073669 -1.831702 -19.441124
v 112.309517 7.077011 -19.331806
v 112.227806 0.860964 -17.998938
v 107.987427 9.527287 -16.393557
v 115.040367 -2.833843 -41.881336
v 96.707352 12.944402 -18.284164
v 113.072289 12.513971 -18.481277
v 117.268242 4.757073 0.000000
v 70.363968 0.609774 -0.000000
v 70.636711 5.213560 -0.000000
v 78.958611 8.572657 -0.000001
v 71.171341 -5.938744 12.159380
v 79.508797 3.613406 8.163909
v 78.909767 7.577923 15.071892
v 79.178772 -0.286810 7.402203
v 76.891472 -7.977236 12.970534
v 78.091850 -5.619147 16.457338
v 73.014305 0.138214 14.194645
v 72.967270 -6.194748 9.398141
v 74.447014 7.752625 14.355774
v 74.059578 5.618138 9.207589
v 20.475508 -4.618793 9.014820
v 20.475145 8.894991 19.064840
v 20.468670 4.294076 6.689487
v 20.476900 3.588442 17.289248
v 20.469292 -4.281302 15.836189
v 20.470835 9.061999 1.665710
v 70.647324 0.660521 2.635614
v 71.561165 -5.864398 17.339214
v 60.885487 1.740176 9.633829
v 60.584908 -8.788300 3.599603
v 60.123497 -5.907761 2.262836
v 59.748714 1.097669 10.401945
v 70.590302 6.739261 15.430500
v 60.917011 -6.186473 5.554412
v 48.628948 -5.419451 4.895716
v 44.635262 1.578524 7.014294
v 45.823822 7.658143 12.921474
v 46.202896 7.492359 15.245880
v 49.651630 -4.881062 16.873074
v 45.863380 2.165788 4.611245
v 60.173206 6.898467 12.256156
v 60.734959 6.767839 10.970892
v 45.770515 -7.273479 6.143355
v 45.318466 -4.985489 15.306173
v 46.417305 -4.494267 11.302121
v 42.379601 -6.217192 15.638716
v 43.370815 -3.694198 6.830184
v 42.602551 -4.381433 18.503038
v 35.618946 3.077533 14.372152
v 35.918606 9.239805 7.780076
v 35.585251 9.489020 4.991144
v 34.116920 2.655791 3.296145
v 69.711075 6.474658 10.569818
v 49.151180 -7.550566 16.701809
v 48.442852 2.114840 12.697711
v 48.166138 7.455077 6.915073
v 47.551334 7.600637 4.512652
v 47.440918 1.563402 8.209723
v 72.508774 -7.909385 6.384390
v 82.236633 -8.080509 11.356663
v 82.260818 -5.143855 0.000000
v 75.876511 -8.470570 0.000000
v 81.666016 -9.558965 -0.000000
v 73.907669 8.307442 -12.159379
v 79.508797 3.613406 -8.163908
v 78.909767 7.577923 -15.071890
v 79.178772 -0.286808 -7.402203
v 76.891472 -7.977236 -12.970532
v 78.091850 -5.619149 -16.457336
v 73.014305 0.138222 -14.194643
v 72.967270 -6.194749 -9.398142
v 74.447014 7.752625 -14.355772
v 74.059578 5.618139 -9.207589
v 20.475513 -4.618791 -9.014819
v 20.475145 8.894991 -19.064837
v 20.468674 4.294076 -6.689488
v 20.476908 3.588443 -17.289246
v 20.469297 -4.281302 -15.836188
v 20.470842 9.061998 -1.665710
v 70.647324 0.660523 -2.635614
v 71.561165 -5.864399 -17.339211
v 60.885487 1.740176 -9.633827
v 60.584908 -8.788299 -3.599604
v 60.123497 -5.907763 -2.262836
v 59.748714 1.097671 -10.401945
v 70.590302 6.739261 -15.430499
v 60.917011 -6.186471 -5.554414
v 48.628948 -5.419450 -4.895716
v 44.635269 1.578524 -7.014294
v 45.823826 7.658143 -12.921473
v 46.202892 7.492359 -15.245878
v 49.651630 -4.881061 -16.873074
v 45.863384 2.165791 -4.611245
v 60.173206 6.898467 -12.256155
v 60.734947 6.767839 -10.970891
v 45.770515 -7.273476 -6.143355
v 45.318466 -4.985488 -15.306171
v 46.417301 -4.494267 -11.302121
v 42.379604 -6.217191 -15.638715
v 43.370811 -3.694196 -6.830183
v 42.602551 -4.381432 -18.503036
v 35.618946 3.077534 -14.372152
v 35.918610 9.239805 -7.780076
v 35.585251 9.489020 -4.991143
v 34.116924 2.655792 -3.296147
v 69.711090 6.474658 -10.569818
v 49.151180 -7.550565 -16.701807
v 48.442852 2.114842 -12.697709
v 48.166138 7.455078 -6.915072
v 47.551331 7.600638 -4.512653
v 47.440922 1.563403 -8.209721
v 72.508774 -7.909384 -6.384388
v 82.236633 -8.080509 -11.356663
v 82.260811 -5.143854 39.637138
v 92.200317 4.961632 16.017498
v 101.456390 7.190480 15.763522
v 101.744835 -0.060732 20.913012
v 98.865303 7.664268 17.998943
v 107.989235 9.526689 15.763522
v 101.744835 -0.060732 17.635620
v 108.070847 -1.832983 20.949135
v 99.032593 -0.469108 19.331810
v 112.226593 0.857181 19.441126
v 112.312012 7.073161 23.725967
v 95.912437 8.349323 23.993431
v 96.205437 -2.198749 25.952477
v 94.538193 8.516013 26.100346
v 94.762985 -2.464117 37.364017
v 98.358162 8.004729 35.346977
v 93.816391 -0.337017 35.325443
v 93.813179 5.269799 30.752718
v 91.731018 8.192913 30.853968
v 91.850899 -2.326199 35.325443
v 93.813179 5.269799 37.338352
v 98.540421 -2.818846 35.346977
v 93.816391 -0.337017 43.985977
v 90.563667 4.652575 35.325443
v 93.813179 5.269799 39.421764
v 102.371140 -0.578131 39.520359
v 102.351509 6.055669 16.017498
v 101.456390 7.190480 47.274277
v 97.930443 5.048123 41.571152
v 96.354134 7.359112 45.726585
v 94.374008 6.712369 43.415825
v 100.111229 5.336863 37.364017
v 98.358162 8.004729 39.520359
v 102.351509 6.055669 15.763522
v 101.744835 -0.060732 16.017498
v 101.456390 7.190480 45.726585
v 94.374008 6.712369 -0.000000
v 85.114326 12.917788 -0.000000
v 89.860626 12.053521 0.000000
v 94.790321 -10.807157 -0.000000
v 94.794731 13.148406 0.000000
v 89.115395 -9.640572 0.000000
v 83.500221 -10.503827 -0.000000
v 79.804085 15.711835 -0.000000
v 73.879410 17.336418 -0.000001
v 72.581268 -13.887386 -0.000001
v 102.041382 14.356293 -0.000001
v 110.408386 14.012831 0.000000
v 98.772964 -12.001797 0.000000
v 118.448746 8.449735 0.000000
v 115.275620 11.981956 -0.000000
v 111.075241 -7.130825 0.000000
v 115.459236 -3.686793 0.000001
v 119.427200 -4.983879 0.000000
v 108.011734 -10.921608 0.000000
v 103.630066 -12.125299 0.000000
v 123.851883 7.752667 -39.637138
v 92.200317 4.961627 -16.017498
v 101.456413 7.190502 -15.763521
v 101.746597 -0.063115 -20.913008
v 98.865326 7.664288 -17.998938
v 107.987427 9.527287 -17.635616
v 108.073669 -1.831702 -15.763521
v 101.746597 -0.063115 -20.949135
v 99.032585 -0.469089 -19.331806
v 112.227806 0.860964 -19.441124
v 112.309517 7.077011 -23.725964
v 95.912453 8.349337 -23.993433
v 96.205421 -2.198740 -25.952473
v 94.538208 8.516026 -26.100348
v 94.762985 -2.464112 -37.364010
v 98.358162 8.004729 -35.325439
v 93.813179 5.269794 -35.346981
v 93.816391 -0.337021 -30.752707
v 91.731018 8.192904 -30.853970
v 91.850899 -2.326206 -35.325439
v 93.813179 5.269794 -35.346981
v 93.816391 -0.337021 -37.338352
v 98.540421 -2.818846 -43.985973
v 90.563667 4.652571 -35.325439
v 93.813179 5.269794 -39.421761
v 102.371140 -0.578127 -39.520351
v 102.351509 6.055672 -16.017498
v 101.456413 7.190502 -47.274273
v 97.930443 5.048125 -45.726585
v 94.374023 6.712368 -41.571140
v 96.354126 7.359112 -43.415821
v 100.111229 5.336865 -37.364010
v 98.358162 8.004729 -39.520351
v 102.351509 6.055672 -15.763521
v 101.746597 -0.063115 -16.017498
v 101.456413 7.190502 -45.726585
v 94.374023 6.712368 -0.000000
v 74.415512 13.063380 -0.000000
v 84.905655 8.560373 -0.000000
v 60.183521 17.537739 0.000001
v 70.129013 -12.460042 -0.000000
v 56.501602 -15.009786 0.000000
v 82.376976 -9.441706 -0.000000
v 120.073753 6.105447 -0.000000
v 123.522873 5.340433 0.000001
v 119.354881 -4.180035 0.000000
v 116.498390 -3.563756 1.665710
v 70.647324 0.660521 4.512652
v 47.440918 1.563402 4.895716
v 44.635262 1.578524 4.991144
v 34.116920 2.655791 2.262836
v 59.748714 1.097669 6.689487
v 20.476900 3.588442 0.000000
v 70.363968 0.609774 0.000000
v 70.363968 0.609774 -0.000000
v 70.636711 5.213560 -0.000000
v 73.907669 8.307442 -1.665710
v 70.647324 0.660523 -4.512653
v 47.440922 1.563403 -4.895716
v 44.635269 1.578524 -4.991143
v 34.116924 2.655792 -2.262836
v 59.748714 1.097671 -6.689488
v 20.476908 3.588443 -0.000001
v 71.171341 -5.938744 0.000000
v 75.876511 -8.470570 0.000000
v 70.363968 0.609774 -0.000000
v 78.958611 8.572657 0.000000
v 81.666016 -9.558965 0.059510

vt 0.254938 0.960185
vt 0.120380 0.724651
vt 0.247555 0.748714
vt 0.129898 0.833874
vt 0.295068 0.861302
vt 0.122267 0.638153
vt 0.115023 0.617695
vt 0.158060 0.783129
vt 0.259502 0.602102
vt 0.095328 0.856956
vt 0.151406 0.738281
vt 0.180756 0.677216
vt 0.199135 0.582808
vt 0.018940 0.768979
vt 0.018786 0.885298
vt 0.018806 0.656398
vt 0.018768 0.925425
vt 0.254938 0.960185
vt 0.120380 0.724651
vt 0.247555 0.748714
vt 0.129898 0.833874
vt 0.295068 0.861302
vt 0.122267 0.638153
vt 0.115023 0.617695
vt 0.158060 0.677216
vt 0.199135 0.783129
vt 0.259502 0.602102
vt 0.095328 0.738281
vt 0.180756 0.856956
vt 0.151406 0.976743
vt 0.018933 1.000000
vt 0.254896 0.960185
vt 0.120380 0.724709
vt 0.247668 0.748725
vt 0.129877 0.834086
vt 0.295038 0.861274
vt 0.122291 0.638214
vt 0.115074 0.617557
vt 0.157889 0.783159
vt 0.259470 0.602250
vt 0.095552 0.856957
vt 0.151397 0.738286
vt 0.180769 0.677163
vt 0.199049 0.582598
vt 0.018758 0.768840
vt 0.018806 0.885205
vt 0.018814 0.656393
vt 0.018775 0.925053
vt 0.254896 0.960185
vt 0.120380 0.724709
vt 0.247668 0.748725
vt 0.129877 0.834086
vt 0.295038 0.861274
vt 0.122291 0.638214
vt 0.115074 0.617557
vt 0.157889 0.677163
vt 0.199049 0.783159
vt 0.259470 0.602250
vt 0.095552 0.738286
vt 0.180769 0.856957
vt 0.151397 0.976743
vt 0.018933 1.000000
vt 0.313808 0.948585
vt 0.441076 0.521748
vt 0.651417 0.939694
vt 0.891966 0.935192
vt 0.848142 0.979346
vt 0.585125 0.984642
vt 0.632214 0.983712
vt 0.692384 0.957660
vt 0.793340 0.715996
vt 0.948997 0.536852
vt 0.704494 0.454084
vt 0.554323 0.266520
vt 0.194731 0.266520
vt 0.194450 0.266236
vt 0.317127 0.266395
vt 0.269924 0.977510
vt 0.974922 0.977586
vt 0.954621 0.710901
vt 0.559026 0.820125
vt 0.526359 0.655147
vt 0.584941 0.589834
vt 0.616719 0.573092
vt 0.554318 0.888583
vt 0.518023 0.538074
vt 0.494890 0.787871
vt 0.371889 0.608377
vt 0.455227 0.699768
vt 0.487980 0.677182
vt 0.421394 0.635843
vt 0.519288 0.868014
vt 0.450961 0.802621
vt 0.460066 0.775393
vt 0.539654 0.758336
vt 0.473635 0.740662
vt 0.391629 0.512720
vt 0.419899 0.584325
vt 0.374326 0.657080
vt 0.336165 0.322124
vt 0.214146 0.393181
vt 0.157788 0.694095
vt 0.321796 0.475827
vt 0.105413 0.611430
vt 0.202391 0.530717
vt 0.236620 0.373119
vt 0.348782 0.453492
vt 0.285299 0.266131
vt 0.073832 0.256899
vt 0.012727 0.327098
vt 0.043158 0.854645
vt 0.350099 0.691913
vt 0.808532 0.611412
vt 0.749548 0.657651
vt 0.833999 0.598023
vt 0.679548 0.845615
vt 0.751013 0.806668
vt 0.672126 0.671910
vt 0.646670 0.733526
vt 0.621458 0.909309
vt 0.587826 0.848053
vt 0.593056 0.674638
vt 0.723549 0.849017
vt 0.803928 0.890500
vt 0.849939 0.894361
vt 0.788065 0.773983
vt 0.841509 0.719346
vt 0.863546 0.699035
vt 0.880809 0.773030
vt 0.902660 0.819898
vt 0.827943 0.728601
vt 0.841563 0.796521
vt 0.780540 0.803689
vt 0.597951 0.740742
vt 0.793728 0.725314
vt 0.776180 0.769187
vt 0.797745 0.904380
vt 0.734250 0.893164
vt 0.899024 0.849737
vt 0.919007 0.803327
vt 0.952771 0.833073
vt 0.868417 0.732311
vt 0.715777 0.818864
vt 0.766640 0.823018
vt 0.671166 0.431066
vt 0.573465 0.373960
vt 0.573507 0.225343
vt 0.573525 0.331171
vt 0.573516 0.285244
vt 0.573534 0.380137
vt 0.678269 0.132240
vt 0.678231 0.136335
vt 0.898003 0.348324
vt 0.894561 0.567996
vt 0.981278 0.568184
vt 0.934168 0.289319
vt 0.898428 0.196670
vt 0.900972 0.038183
vt 0.820495 0.512490
vt 0.989621 0.188843
vt 0.819879 0.369112
vt 0.816516 0.303739
vt 0.817473 0.121169
vt 0.836995 0.020017
vt 0.790338 0.186708
vt 0.793736 0.110591
vt 0.780066 0.115704
vt 0.807697 0.307287
vt 0.792384 0.380765
vt 0.787203 0.489559
vt 0.991896 0.099900
vt 0.739565 0.308464
vt 0.739468 0.457444
vt 0.991967 0.390322
vt 0.739159 0.187011
vt 0.739786 0.003315
vt 0.740014 0.331414
vt 0.678287 0.283039
vt 0.696692 0.214921
vt 0.696635 0.180292
vt 0.678351 0.132454
vt 0.625849 0.331293
vt 0.625901 0.225471
vt 0.625934 0.285441
vt 0.625919 0.377048
vt 0.625888 0.623644
vt 0.958257 0.548051
vt 0.856536 0.053084
vt 0.083855 0.850743
vt 0.655791 0.913076
vt 0.643384 0.838981
vt 0.704811 0.912049
vt 0.695125 0.031792
vt 0.139818 0.235225
vt 0.122343 0.172503
vt 0.162123 0.052135
vt 0.133788 0.095082
vt 0.174536 0.008295
vt 0.093038 0.019162
vt 0.088495 0.184344
vt 0.133524 0.480256
vt 0.804145 0.480356
vt 0.905067 0.183308
vt 0.317154 0.115140
vt 0.317189 0.096483
vt 0.317253 0.122768
vt 0.317290 0.159396
vt 0.317316 0.148094
vt 0.194474 0.041805
vt 0.194548 0.097246
vt 0.269928 0.161166
vt 0.269929 0.051764
vt 0.269927 0.050371
vt 0.194711 0.154854
vt 0.194734 0.079733
vt 0.269926 0.160653
vt 0.269924 0.009737
vt 0.194666 0.923040
vt 0.974918 0.949901
vt 0.974919 0.949909
vt 0.954577 0.923133
vt 0.954545 0.792008
vt 0.703569 0.190684
vt 0.073146 0.150884
vt 0.099704 0.094136
vt 0.108121 0.749643
vt 0.725588 0.548078
vt 0.905065 0.180160
vt 0.573516 0.180226
vt 0.625934 0.791707
vt 0.743114 0.766263
vt 0.769243 0.781436
vt 0.757500 0.750085
vt 0.763930 0.232387
vt 0.066954 0.122552
vt 0.146931 0.009223
vt 0.035382 0.480306
vt 0.856547 0.406069
vt 0.507186 0.962734
vt 0.509694 0.662513
vt 0.921848 0.748372
vt 0.995551 0.557482
vt 0.776736 0.497590
vt 0.602182 0.609853
vt 0.876379 0.976830
vt 0.739003 0.266236
vt 0.317343 0.266236
vt 0.269930 0.894696
vt 0.974917 0.894742
vt 0.954544 0.710901
vt 0.559026 0.820125
vt 0.526359 0.655147
vt 0.584941 0.589834
vt 0.616719 0.573092
vt 0.554318 0.888583
vt 0.518023 0.538074
vt 0.494890 0.787871
vt 0.371889 0.608377
vt 0.455227 0.699768
vt 0.487980 0.677182
vt 0.421394 0.635843
vt 0.519288 0.868014
vt 0.450961 0.802621
vt 0.460066 0.775393
vt 0.539654 0.758336
vt 0.473635 0.740662
vt 0.391629 0.512720
vt 0.419899 0.584325
vt 0.374326 0.657080
vt 0.336165 0.322124
vt 0.214146 0.393181
vt 0.157788 0.694095
vt 0.321796 0.475827
vt 0.105413 0.611430
vt 0.202391 0.530717
vt 0.236620 0.373119
vt 0.348782 0.453492
vt 0.285299 0.266131
vt 0.073832 0.256899
vt 0.012727 0.327098
vt 0.043158 0.854645
vt 0.350099 0.691913
vt 0.808532 0.611412
vt 0.749548 0.657651
vt 0.833999 0.598023
vt 0.679548 0.845615
vt 0.751013 0.806668
vt 0.672126 0.671910
vt 0.646670 0.733526
vt 0.621458 0.909309
vt 0.587826 0.848053
vt 0.593056 0.674638
vt 0.723549 0.849017
vt 0.803928 0.890500
vt 0.849939 0.894361
vt 0.788065 0.773983
vt 0.841509 0.719346
vt 0.863546 0.699035
vt 0.880809 0.773030
vt 0.902660 0.819898
vt 0.827943 0.728601
vt 0.841563 0.796521
vt 0.780540 0.803689
vt 0.597951 0.740742
vt 0.793728 0.725314
vt 0.776180 0.769187
vt 0.797745 0.904380
vt 0.734250 0.893164
vt 0.899024 0.849737
vt 0.919007 0.803327
vt 0.952771 0.833073
vt 0.868417 0.732311
vt 0.715777 0.818864
vt 0.766640 0.823018
vt 0.671166 0.431066
vt 0.573465 0.373960
vt 0.573507 0.225343
vt 0.573525 0.331171
vt 0.573516 0.285244
vt 0.573534 0.380137
vt 0.678269 0.132240
vt 0.678231 0.136335
vt 0.898003 0.348324
vt 0.894561 0.567996
vt 0.981278 0.568184
vt 0.934168 0.289319
vt 0.898428 0.196670
vt 0.900972 0.038183
vt 0.820495 0.512490
vt 0.989621 0.188843
vt 0.819879 0.369112
vt 0.816516 0.303739
vt 0.817473 0.121169
vt 0.836995 0.020017
vt 0.790338 0.186708
vt 0.793736 0.110591
vt 0.780066 0.115704
vt 0.807697 0.307287
vt 0.792384 0.380765
vt 0.787203 0.489559
vt 0.991896 0.099900
vt 0.739565 0.308464
vt 0.739468 0.457444
vt 0.991967 0.390322
vt 0.739159 0.187011
vt 0.739786 0.003315
vt 0.740014 0.331414
vt 0.678287 0.283039
vt 0.696692 0.214921
vt 0.696635 0.180292
vt 0.678351 0.132454
vt 0.625849 0.331293
vt 0.625901 0.225471
vt 0.625934 0.285441
vt 0.625919 0.377048
vt 0.625888 0.623644
vt 0.958257 0.190684
vt 0.073146 0.094136
vt 0.108121 0.850743
vt 0.655791 0.913076
vt 0.643384 0.838981
vt 0.704811 0.912049
vt 0.695125 0.749643
vt 0.725588 0.031792
vt 0.139818 0.235225
vt 0.122343 0.172503
vt 0.162123 0.095082
vt 0.174536 0.232387
vt 0.066954 0.008295
vt 0.093038 0.019162
vt 0.088495 0.009223
vt 0.035382 0.480256
vt 0.804145 0.480356
vt 0.905067 0.183308
vt 0.317154 0.115140
vt 0.317189 0.096483
vt 0.317253 0.122768
vt 0.317290 0.159396
vt 0.317316 0.148094
vt 0.194474 0.041805
vt 0.194548 0.097246
vt 0.269928 0.161166
vt 0.269929 0.051764
vt 0.269927 0.050371
vt 0.194711 0.154854
vt 0.194734 0.079733
vt 0.269926 0.160653
vt 0.269924 0.009737
vt 0.194666 0.923040
vt 0.974918 0.949901
vt 0.974919 0.949909
vt 0.954577 0.923133
vt 0.954545 0.792008
vt 0.703569 0.150884
vt 0.099704 0.053084
vt 0.083855 0.548078
vt 0.905065 0.548051
vt 0.856536 0.180160
vt 0.573516 0.180226
vt 0.625934 0.791707
vt 0.743114 0.766263
vt 0.769243 0.781436
vt 0.757500 0.750085
vt 0.763930 0.184344
vt 0.133524 0.480306
vt 0.856547 0.052135
vt 0.133788 0.122552
vt 0.146931 0.253916
vt 0.563889 0.270778
vt 0.548036 0.314000
vt 0.531665 0.287905
vt 0.353047 0.306978
vt 0.475915 0.310280
vt 0.502604 0.304200
vt 0.449469 0.304533
vt 0.397091 0.302796
vt 0.425009 0.275680
vt 0.450252 0.277857
vt 0.423006 0.287385
vt 0.500445 0.281174
vt 0.473593 0.035387
vt 0.385477 0.035383
vt 0.516208 0.035359
vt 0.455544 0.035376
vt 0.347123 0.035367
vt 0.421174 0.035365
vt 0.486172 0.253916
vt 0.563889 0.280087
vt 0.364865 0.220879
vt 0.457922 0.222441
vt 0.397835 0.219556
vt 0.370249 0.211779
vt 0.341867 0.263623
vt 0.495856 0.222789
vt 0.424325 0.168185
vt 0.374444 0.144376
vt 0.347164 0.152760
vt 0.519956 0.154817
vt 0.490987 0.171589
vt 0.423805 0.149826
vt 0.457112 0.217058
vt 0.525474 0.219859
vt 0.493182 0.155645
vt 0.399952 0.152978
vt 0.376175 0.156081
vt 0.423885 0.138612
vt 0.400973 0.140931
vt 0.425868 0.139819
vt 0.377487 0.100541
vt 0.456500 0.101462
vt 0.488391 0.101697
vt 0.516263 0.097163
vt 0.346840 0.264293
vt 0.529150 0.170935
vt 0.398794 0.162679
vt 0.457994 0.154817
vt 0.490987 0.152760
vt 0.519956 0.155558
vt 0.550421 0.281337
vt 0.396087 0.337728
vt 0.400689 0.332315
vt 0.426227 0.312422
vt 0.364131 0.344555
vt 0.372357 0.293048
vt 0.538243 0.306978
vt 0.475915 0.310280
vt 0.502604 0.304200
vt 0.449469 0.304533
vt 0.397091 0.302796
vt 0.425009 0.275680
vt 0.450252 0.277857
vt 0.423006 0.287385
vt 0.500445 0.281174
vt 0.473593 0.035387
vt 0.385477 0.035383
vt 0.516208 0.035359
vt 0.455544 0.035376
vt 0.347123 0.035367
vt 0.421174 0.035365
vt 0.486172 0.253916
vt 0.563889 0.280087
vt 0.364865 0.220879
vt 0.457922 0.222441
vt 0.397835 0.219556
vt 0.370249 0.211779
vt 0.341867 0.263623
vt 0.495856 0.222789
vt 0.424325 0.168185
vt 0.374444 0.144376
vt 0.347164 0.152760
vt 0.519956 0.154817
vt 0.490987 0.171589
vt 0.423805 0.149826
vt 0.457112 0.217058
vt 0.525474 0.219859
vt 0.493182 0.155645
vt 0.399952 0.152978
vt 0.376175 0.156081
vt 0.423885 0.138612
vt 0.400973 0.140931
vt 0.425868 0.139819
vt 0.377487 0.100541
vt 0.456500 0.101462
vt 0.488391 0.101697
vt 0.516263 0.097163
vt 0.346840 0.264293
vt 0.529150 0.170935
vt 0.398794 0.162679
vt 0.457994 0.154817
vt 0.490987 0.152760
vt 0.519956 0.155558
vt 0.550421 0.281337
vt 0.396087 0.337728
vt 0.400689 0.332315
vt 0.426227 0.431182
vt 0.625863 0.622117
vt 0.937263 0.625170
vt 0.979252 0.065898
vt 0.892072 0.158194
vt 0.982137 0.381187
vt 0.964645 0.318977
vt 0.986661 0.418486
vt 0.889148 0.270031
vt 0.990172 0.206424
vt 0.990010 0.514196
vt 0.930811 0.447968
vt 0.814043 0.490611
vt 0.929508 0.466213
vt 0.783547 0.166598
vt 0.696867 0.426023
vt 0.978616 0.426095
vt 0.944896 0.457635
vt 0.930631 0.485353
vt 0.738885 0.110638
vt 0.697122 0.331672
vt 0.696681 0.385105
vt 0.696573 0.132668
vt 0.573467 0.431298
vt 0.678261 0.285638
vt 0.678304 0.225600
vt 0.678343 0.094240
vt 0.966366 0.225343
vt 0.573525 0.180226
vt 0.625934 0.180160
vt 0.573516 0.225471
vt 0.625934 0.180292
vt 0.678351 0.225600
vt 0.678343 0.205500
vt 0.020991 0.024323
vt 0.032105 0.548024
vt 0.804071 0.497590
vt 0.602182 0.521748
vt 0.651417 0.979346
vt 0.585125 0.536852
vt 0.704494 0.962734
vt 0.509694 0.948585
vt 0.441076 0.454084
vt 0.554323 0.406069
vt 0.507186 0.940490
vt 0.313808 0.557482
vt 0.776736 0.609853
vt 0.876379 0.984642
vt 0.632214 0.715996
vt 0.948997 0.662513
vt 0.921848 0.957660
vt 0.793340 0.935192
vt 0.848142 0.939694
vt 0.891966 0.976830
vt 0.739003 0.983712
vt 0.692384 0.748372
vt 0.995551 0.431182
vt 0.625863 0.622117
vt 0.937263 0.625170
vt 0.979252 0.065898
vt 0.892072 0.158194
vt 0.982137 0.318977
vt 0.986661 0.381187
vt 0.964645 0.418486
vt 0.889148 0.270031
vt 0.990172 0.206424
vt 0.990010 0.514196
vt 0.930811 0.447968
vt 0.814043 0.490611
vt 0.929508 0.466213
vt 0.783547 0.166598
vt 0.696867 0.426095
vt 0.944896 0.426023
vt 0.978616 0.457635
vt 0.930631 0.485353
vt 0.738885 0.110638
vt 0.697122 0.385105
vt 0.696573 0.331672
vt 0.696681 0.132668
vt 0.573467 0.431298
vt 0.678261 0.285638
vt 0.678304 0.225600
vt 0.678343 0.094240
vt 0.966366 0.225343
vt 0.573525 0.180160
vt 0.573516 0.180226
vt 0.625934 0.225471
vt 0.625934 0.180292
vt 0.678351 0.225600
vt 0.678343 0.205500
vt 0.020991 0.024323
vt 0.032105 0.548024
vt 0.804071 0.266236
vt 0.269930 0.266236
vt 0.317343 0.266520
vt 0.194731 0.266395
vt 0.269924 0.266520
vt 0.194450 0.266236
vt 0.317127 0.894742
vt 0.954544 0.894696
vt 0.974917 0.977510
vt 0.974922 0.977586
vt 0.954621 0.263389
vt 0.333894 0.156904
vt 0.344551 0.143076
vt 0.549657 0.096358
vt 0.548047 0.208664
vt 0.555589 0.035383
vt 0.544192 0.263389
vt 0.333894 0.253916
vt 0.563889 0.270778
vt 0.548036 0.293048
vt 0.538243 0.263389
vt 0.333894 0.156904
vt 0.344551 0.143076
vt 0.549657 0.096358
vt 0.548047 0.208664
vt 0.555589 0.035383
vt 0.544192 0.287905
vt 0.353047 0.312422
vt 0.364131 0.263389
vt 0.333894 0.314000
vt 0.531665 0.344555
vt 0.372357 1.000000

f 5/5 2/2 1/1
f 16/16 31/31 6/6
f 2/2 6/6 31/31
f 4/4 8/8 7/7
f 15/15 7/7 17/17
f 7/7 15/15 4/4
f 6/6 11/11 4/4
f 12/12 4/4 11/11
f 6/6 4/4 16/16
f 10/10 14/14 7/7
f 12/12 13/13 4/4
f 8/8 4/4 13/13
f 7/7 8/8 10/10
f 17/17 7/7 14/14
f 5/5 9/9 11/11
f 3/3 13/13 12/12
f 12/12 11/11 3/3
f 9/9 3/3 11/11
f 6/6 2/2 11/11
f 11/11 2/2 5/5
f 19/19 22/22 18/18
f 31/31 16/16 23/23
f 23/23 19/19 31/31
f 25/25 21/21 24/24
f 24/24 15/15 17/17
f 15/15 24/24 21/21
f 23/23 21/21 30/30
f 29/29 30/30 21/21
f 21/21 16/16 15/15
f 14/14 28/28 24/24
f 29/29 21/21 26/26
f 21/21 25/25 26/26
f 25/25 24/24 28/28
f 24/24 17/17 14/14
f 27/27 22/22 30/30
f 26/26 20/20 29/29
f 30/30 29/29 20/20
f 20/20 27/27 30/30
f 19/19 23/23 30/30
f 19/19 30/30 22/22
f 15/15 16/16 4/4
f 23/23 16/16 21/21
f 33/33 36/36 32/32
f 62/62 47/47 37/37
f 37/37 33/33 62/62
f 39/39 35/35 38/38
f 38/38 46/46 48/48
f 46/46 38/38 35/35
f 42/42 37/37 35/35
f 35/35 43/43 42/42
f 35/35 37/37 47/47
f 45/45 41/41 38/38
f 44/44 43/43 35/35
f 35/35 39/39 44/44
f 39/39 38/38 41/41
f 38/38 48/48 45/45
f 40/40 36/36 42/42
f 44/44 34/34 43/43
f 42/42 43/43 34/34
f 34/34 40/40 42/42
f 33/33 37/37 42/42
f 33/33 42/42 36/36
f 53/53 50/50 49/49
f 47/47 62/62 54/54
f 50/50 54/54 62/62
f 52/52 56/56 55/55
f 46/46 55/55 48/48
f 55/55 46/46 52/52
f 52/52 54/54 61/61
f 61/61 60/60 52/52
f 47/47 52/52 46/46
f 59/59 45/45 55/55
f 52/52 60/60 57/57
f 56/56 52/52 57/57
f 55/55 56/56 59/59
f 48/48 55/55 45/45
f 53/53 58/58 61/61
f 51/51 57/57 60/60
f 60/60 61/61 51/51
f 58/58 51/51 61/61
f 54/54 50/50 61/61
f 61/61 50/50 53/53
f 47/47 46/46 35/35
f 47/47 54/54 52/52
f 410/410 409/409 428/428
f 465/465 434/434 420/420
f 435/435 419/419 418/418
f 418/418 430/430 435/435
f 416/416 419/419 460/460
f 435/435 431/431 419/419
f 442/442 434/434 454/454
f 443/443 421/421 434/434
f 432/432 433/433 429/429
f 429/429 433/433 618/618
f 436/436 432/432 431/431
f 431/431 455/455 436/436
f 458/458 442/442 459/459
f 430/430 457/457 456/456
f 440/440 455/455 435/435
f 431/431 435/435 455/455
f 437/437 619/619 445/445
f 432/432 436/436 619/619
f 440/440 456/456 446/446
f 458/458 438/438 439/439
f 439/439 457/457 458/458
f 443/443 434/434 442/442
f 444/444 445/445 436/436
f 436/436 455/455 444/444
f 444/444 455/455 440/440
f 440/440 446/446 444/444
f 441/441 446/446 456/456
f 436/436 445/445 619/619
f 441/441 439/439 451/451
f 451/451 450/450 441/441
f 445/445 444/444 447/447
f 447/447 449/449 445/445
f 447/447 444/444 446/446
f 446/446 448/448 447/447
f 422/422 425/425 453/453
f 453/453 449/449 422/422
f 452/452 438/438 620/620
f 620/620 621/621 452/452
f 452/452 451/451 439/439
f 439/439 438/438 452/452
f 448/448 446/446 441/441
f 450/450 424/424 426/426
f 426/426 448/448 450/450
f 448/448 441/441 450/450
f 445/445 449/449 437/437
f 426/426 447/447 448/448
f 447/447 426/426 422/422
f 453/453 437/437 449/449
f 442/442 454/454 622/622
f 428/428 622/622 454/454
f 447/447 422/422 449/449
f 424/424 450/450 451/451
f 451/451 427/427 424/424
f 451/451 452/452 427/427
f 423/423 427/427 452/452
f 452/452 621/621 623/623
f 623/623 423/423 452/452
f 454/454 434/434 465/465
f 412/412 416/416 429/429
f 418/418 421/421 430/430
f 431/431 432/432 429/429
f 429/429 416/416 460/460
f 412/412 429/429 618/618
f 421/421 420/420 434/434
f 439/439 441/441 456/456
f 440/440 435/435 430/430
f 620/620 438/438 459/459
f 430/430 421/421 443/443
f 412/412 463/463 416/416
f 618/618 624/624 412/412
f 465/465 410/410 454/454
f 410/410 428/428 454/454
f 411/411 465/465 420/420
f 421/421 415/415 413/413
f 415/415 419/419 417/417
f 414/414 420/420 413/413
f 420/420 414/414 411/411
f 418/418 415/415 421/421
f 419/419 415/415 418/418
f 416/416 417/417 419/419
f 421/421 413/413 420/420
f 439/439 456/456 457/457
f 440/440 430/430 456/456
f 457/457 443/443 442/442
f 430/430 443/443 457/457
f 438/438 458/458 459/459
f 442/442 458/458 457/457
f 619/619 433/433 432/432
f 459/459 442/442 622/622
f 429/429 460/460 431/431
f 460/460 419/419 431/431
f 461/461 416/416 464/464
f 462/462 417/417 461/461
f 416/416 461/461 417/417
f 463/463 464/464 416/416
f 415/415 417/417 462/462
f 625/625 626/626 481/481
f 487/487 627/627 473/473
f 472/472 488/488 471/471
f 483/483 471/471 488/488
f 472/472 469/469 513/513
f 484/484 488/488 472/472
f 487/487 495/495 507/507
f 474/474 496/496 487/487
f 486/486 485/485 482/482
f 486/486 482/482 628/628
f 485/485 489/489 484/484
f 508/508 484/484 489/489
f 495/495 511/511 512/512
f 510/510 483/483 509/509
f 508/508 493/493 488/488
f 488/488 484/484 508/508
f 629/629 490/490 498/498
f 489/489 485/485 629/629
f 509/509 493/493 499/499
f 491/491 511/511 492/492
f 510/510 492/492 511/511
f 487/487 496/496 495/495
f 498/498 497/497 489/489
f 508/508 489/489 497/497
f 508/508 497/497 493/493
f 499/499 493/493 497/497
f 499/499 494/494 509/509
f 498/498 489/489 629/629
f 492/492 494/494 504/504
f 503/503 504/504 494/494
f 497/497 498/498 500/500
f 502/502 500/500 498/498
f 497/497 500/500 499/499
f 501/501 499/499 500/500
f 478/478 475/475 506/506
f 502/502 506/506 475/475
f 491/491 505/505 630/630
f 631/631 630/630 505/505
f 504/504 505/505 492/492
f 491/491 492/492 505/505
f 499/499 501/501 494/494
f 477/477 503/503 479/479
f 501/501 479/479 503/503
f 494/494 501/501 503/503
f 502/502 498/498 490/490
f 500/500 479/479 501/501
f 479/479 500/500 475/475
f 490/490 506/506 502/502
f 507/507 495/495 632/632
f 632/632 481/481 507/507
f 475/475 500/500 502/502
f 503/503 477/477 504/504
f 480/480 504/504 477/477
f 505/505 504/504 480/480
f 480/480 476/476 505/505
f 631/631 505/505 633/633
f 476/476 633/633 505/505
f 487/487 507/507 627/627
f 469/469 634/634 482/482
f 474/474 471/471 483/483
f 485/485 484/484 482/482
f 469/469 482/482 513/513
f 482/482 634/634 628/628
f 473/473 474/474 487/487
f 494/494 492/492 509/509
f 488/488 493/493 483/483
f 491/491 630/630 512/512
f 474/474 483/483 496/496
f 635/635 634/634 469/469
f 636/636 628/628 634/634
f 626/626 627/627 507/507
f 481/481 626/626 507/507
f 627/627 637/637 473/473
f 468/468 474/474 466/466
f 472/472 468/468 470/470
f 473/473 467/467 466/466
f 467/467 473/473 637/637
f 468/468 471/471 474/474
f 468/468 472/472 471/471
f 470/470 469/469 472/472
f 466/466 474/474 473/473
f 509/509 492/492 510/510
f 483/483 493/493 509/509
f 496/496 510/510 495/495
f 496/496 483/483 510/510
f 511/511 491/491 512/512
f 511/511 495/495 510/510
f 486/486 629/629 485/485
f 495/495 512/512 632/632
f 513/513 482/482 484/484
f 472/472 513/513 484/484
f 469/469 514/514 638/638
f 470/470 515/515 514/514
f 514/514 469/469 470/470
f 638/638 635/635 469/469
f 470/470 468/468 515/515
f 217/217 210/210 216/216
f 217/217 205/205 216/216
f 216/216 213/213 212/212
f 211/211 208/208 207/207
f 208/208 211/211 212/212
f 212/212 208/208 214/214
f 214/214 211/211 215/215
f 215/215 212/212 205/205
f 216/216 210/210 209/209
f 209/209 76/76 77/77
f 77/77 204/204 206/206
f 211/211 213/213 380/380
f 381/381 388/388 387/387
f 376/376 388/388 387/387
f 384/384 387/387 383/383
f 379/379 382/382 378/378
f 382/382 379/379 383/383
f 379/379 383/383 385/385
f 382/382 385/385 386/386
f 383/383 386/386 376/376
f 381/381 387/387 380/380
f 612/612 380/380 613/613
f 375/375 613/613 377/377
