# MOD converted: [r]temple_h_w_leatherglove004.mod
# 422 verts, 13 faces

v 92.934998 0.436766 48.866009
v 94.517822 0.680826 57.271015
v 96.749550 0.481085 52.154404
v 92.934547 3.285353 49.008022
v 94.517395 3.335115 57.388676
v 96.749199 2.680309 38.644794
v 110.694099 2.582619 53.834480
v 96.287552 0.580166 53.961178
v 96.287170 2.948318 54.319435
v 102.157982 0.815622 54.428745
v 102.157661 2.858637 46.953884
v 107.743950 1.440764 47.028236
v 107.743729 2.830445 46.352959
v 103.030128 1.442003 46.437271
v 103.029877 3.017901 43.088638
v 88.696198 5.377233 45.611755
v 93.991638 7.992087 42.818565
v 88.616318 -0.501453 47.820175
v 98.152061 5.861378 45.373749
v 93.907791 -4.539009 47.617580
v 98.303253 -1.372369 45.341129
v 86.669510 -5.577521 55.629410
v 91.584732 7.234176 51.071125
v 89.122032 -6.092662 53.761444
v 89.074745 -4.586245 53.165680
v 85.241730 -7.001313 51.496563
v 87.173981 -6.794880 51.835747
v 82.674919 -8.019578 48.424091
v 84.230865 -7.392765 48.987629
v 92.704796 7.901615 51.223251
v 89.600731 3.859937 48.749359
v 86.613083 -3.098336 49.917885
v 84.942154 -5.122019 52.200542
v 83.810577 -6.073845 55.700836
v 92.238724 -4.484391 47.195412
v 89.852974 -6.589138 51.057331
v 92.335274 -5.752491 53.027740
v 84.433525 -8.946978 49.868809
v 86.723770 -8.626822 54.383240
v 89.199234 1.283828 56.342140
v 92.691963 1.388800 47.764965
v 89.403687 7.012371 59.185707
v 89.387024 -4.498841 57.698006
v 87.121490 -4.477894 58.261883
v 87.063126 1.426562 59.731049
v 89.512589 1.420877 62.569920
v 86.174278 -4.379933 60.510117
v 84.902977 -4.376640 61.230885
v 84.804039 1.335672 63.329086
v 86.045532 1.298786 53.662392
v 88.556297 7.218775 56.052418
v 92.607025 -1.435727 59.497917
v 89.533264 -1.816334 62.983810
v 86.088371 -2.127272 55.869339
v 92.237495 4.598111 59.458641
v 89.365143 4.027236 62.913013
v 86.096489 3.621802 54.229973
v 89.263443 -1.559062 57.984352
v 87.091774 -1.842662 60.929245
v 84.829536 -2.052268 54.058163
v 88.987549 4.327799 58.049934
v 86.979401 3.910771 60.828537
v 84.883041 3.593753 61.382622
v 86.175270 6.244393 59.434700
v 84.991394 6.192749 56.911263
v 87.267006 6.741702 58.459087
v 89.153091 6.833074 58.390995
v 87.095917 1.183969 59.860168
v 89.545380 1.178291 61.897614
v 84.242393 0.931860 64.136627
v 85.675003 0.894995 59.705429
v 89.559799 -1.487961 63.998024
v 85.722534 -1.524369 58.859695
v 89.407166 4.460065 61.716015
v 86.331642 4.231735 58.191956
v 87.118233 -1.514307 61.751476
v 84.279617 -1.449309 57.324627
v 87.295319 4.249292 59.795788
v 85.110756 4.151105 37.811993
v 90.608719 5.684238 32.830196
v 92.346466 6.239661 34.976589
v 98.226288 9.678746 40.840691
v 95.582748 8.693357 37.837185
v 90.611923 -0.812220 43.124901
v 100.696098 6.095433 34.501057
v 105.142273 -1.751687 43.014996
v 100.722603 -1.307679 40.912079
v 95.611122 -4.623470 32.911602
v 92.401779 -0.845882 34.965565
v 98.196800 -4.743855 34.554962
v 105.316040 6.632373 51.745827
v 97.379852 1.815923 50.806305
v 95.666061 6.800646 50.659962
v 95.985718 -3.309994 48.913235
v 93.076118 -5.062148 47.675396
v 89.148102 0.688526 51.162952
v 89.410988 -1.316113 56.268665
v 93.116768 5.127952 56.741463
v 93.571236 1.507990 56.451744
v 93.486298 -1.690402 48.366520
v 99.728355 2.244505 43.407227
v 102.264725 2.393876 34.725315
v 106.678596 2.696095 21.236353
v 95.939682 7.217229 40.832630
v 95.444260 7.879672 23.878784
v 103.177940 11.623812 43.721409
v 100.137177 6.095429 43.611504
v 100.163681 -1.307680 26.054239
v 110.301674 -2.366676 39.282375
v 91.212471 5.684236 21.327314
v 95.988922 -1.861544 39.307571
v 91.215683 -0.812219 23.862095
v 103.145081 -5.746656 40.904011
v 95.472641 -3.306729 26.141964
v 110.498398 7.720502 27.556982
v 101.813377 9.435898 30.121605
v 107.852631 -1.680139 25.489437
v 96.381012 -1.188275 27.587179
v 101.812889 -4.243761 30.203499
v 107.926224 6.765243 25.436129
v 96.351738 6.320742 30.450624
v 100.411758 8.807585 32.753311
v 106.067581 -1.589881 30.501427
v 100.425697 -3.926443 32.849209
v 106.091125 6.526206 28.180624
v 95.231339 6.088007 28.219881
v 95.247589 -1.084262 26.360477
v 112.098503 4.629090 30.166988
v 107.893410 2.605521 26.327137
v 112.023727 0.795541 29.003796
v 101.112541 9.121738 37.859650
v 97.691833 2.564068 -52.001999
v 92.934998 0.436766 -48.866009
v 94.517822 0.680827 -57.271015
v 96.749542 0.481085 -52.154404
v 92.934547 3.285353 -49.008022
v 94.517395 3.335116 -57.388680
v 96.749199 2.680310 -38.644794
v 110.694099 2.582621 -53.834484
v 96.287552 0.580167 -53.961178
v 96.287170 2.948318 -54.319435
v 102.157982 0.815623 -54.428745
v 102.157661 2.858637 -46.953884
v 107.743950 1.440765 -47.028236
v 107.743729 2.830446 -46.352959
v 103.030128 1.442005 -46.437271
v 103.029877 3.017903 -43.088634
v 88.696198 5.377229 -45.611752
v 93.991638 7.992087 -42.818565
v 88.616318 -0.501458 -47.820175
v 98.152061 5.861380 -45.373756
v 93.907791 -4.539010 -47.617584
v 98.303253 -1.372367 -45.341133
v 86.669510 -5.577524 -55.629406
v 91.584732 7.234176 -51.071125
v 89.122032 -6.092660 -53.761444
v 89.074745 -4.586245 -53.165680
v 85.241730 -7.001315 -51.496563
v 87.173981 -6.794880 -51.835747
v 82.674919 -8.019578 -48.424091
v 84.230873 -7.392763 -48.987621
v 92.704796 7.901614 -51.223251
v 89.600731 3.859937 -48.749363
v 86.613083 -3.098337 -49.917885
v 84.942154 -5.122020 -52.200542
v 83.810577 -6.073844 -55.700840
v 92.238724 -4.484390 -47.195419
v 89.852974 -6.589139 -51.057343
v 92.335297 -5.752491 -53.027740
v 84.433525 -8.946979 -49.868809
v 86.723770 -8.626822 -54.383240
v 89.199234 1.283828 -56.342140
v 92.691963 1.388800 -47.764957
v 89.403687 7.012368 -59.185703
v 89.387024 -4.498841 -57.698006
v 87.121490 -4.477892 -58.261883
v 87.063126 1.426563 -59.731049
v 89.512589 1.420877 -62.569916
v 86.174271 -4.379934 -60.510117
v 84.902969 -4.376639 -61.230885
v 84.804039 1.335673 -63.329086
v 86.045525 1.298785 -53.662388
v 88.556297 7.218774 -56.052422
v 92.607025 -1.435727 -59.497917
v 89.533264 -1.816334 -62.983803
v 86.088371 -2.127273 -55.869339
v 92.237495 4.598112 -59.458645
v 89.365150 4.027235 -62.913017
v 86.096489 3.621802 -54.229973
v 89.263443 -1.559062 -57.984352
v 87.091774 -1.842661 -60.929241
v 84.829536 -2.052267 -54.058163
v 88.987549 4.327799 -58.049934
v 86.979401 3.910772 -60.828541
v 84.883041 3.593755 -61.382626
v 86.175270 6.244395 -59.434700
v 84.991394 6.192751 -56.911263
v 87.267006 6.741703 -58.459095
v 89.153099 6.833074 -58.390995
v 87.095917 1.183969 -59.860168
v 89.545380 1.178290 -61.897614
v 84.242393 0.931861 -64.136627
v 85.675003 0.894994 -59.705425
v 89.559799 -1.487962 -63.998020
v 85.722534 -1.524371 -58.859695
v 89.407166 4.460065 -61.716011
v 86.331642 4.231735 -58.191956
v 87.118233 -1.514306 -61.751472
v 84.279617 -1.449307 -57.324631
v 87.295319 4.249292 -59.795792
v 85.110756 4.151107 -37.811989
v 90.608719 5.684232 -32.830193
v 92.346466 6.239654 -34.976582
v 98.226288 9.678746 -40.840687
v 95.582748 8.693357 -37.837189
v 90.611923 -0.812225 -43.124897
v 100.696098 6.095437 -34.501060
v 105.142273 -1.751683 -43.014999
v 100.722603 -1.307676 -40.912090
v 95.611130 -4.623471 -32.911606
v 92.401779 -0.845888 -34.965576
v 98.196815 -4.743856 -34.554958
v 105.316040 6.632378 -51.745827
v 97.379852 1.815926 -50.806301
v 95.666061 6.800647 -50.659962
v 95.985718 -3.309994 -48.913239
v 93.076118 -5.062149 -47.675396
v 89.148102 0.688523 -51.162952
v 89.410988 -1.316113 -56.268661
v 93.116768 5.127952 -56.741463
v 93.571236 1.507991 -56.451744
v 93.486298 -1.690402 -48.366520
v 99.728355 2.244507 -43.407227
v 102.264725 2.393880 -34.725315
v 106.678596 2.696100 -21.236353
v 95.939705 7.217270 -40.832626
v 95.444252 7.879672 -23.878792
v 103.178009 11.623812 -43.721405
v 100.137177 6.095435 -43.611504
v 100.163681 -1.307677 -26.054237
v 110.301643 -2.366715 -39.282372
v 91.212471 5.684233 -21.327316
v 95.988899 -1.861507 -39.307575
v 91.215683 -0.812225 -23.862091
v 103.145020 -5.746656 -40.904018
v 95.472641 -3.306729 -26.141962
v 110.498428 7.720461 -27.556984
v 101.813408 9.435896 -30.121605
v 107.852608 -1.680163 -25.489439
v 96.380997 -1.188256 -27.587177
v 101.812859 -4.243762 -30.203495
v 107.926247 6.765219 -25.436127
v 96.351738 6.320761 -30.450624
v 100.411781 8.807586 -32.753315
v 106.067574 -1.589887 -30.501410
v 100.425636 -3.926444 -32.849205
v 106.091125 6.526201 -28.180622
v 95.231346 6.088013 -28.219883
v 95.247574 -1.084257 -26.360477
v 112.098511 4.629041 -30.166988
v 107.893410 2.605505 -26.327133
v 112.023720 0.795492 -29.003815
v 101.112617 9.121738 -37.859650
v 97.691833 2.564068 42.818565
v 88.616318 -0.501453 48.749359
v 86.613083 -3.098336 45.341129
v 86.669510 -5.577521 45.341129
v 86.669510 -5.577521 51.071125
v 89.122032 -6.092662 47.195412
v 89.852974 -6.589138 51.071125
v 89.122032 -6.092662 51.496563
v 87.173981 -6.794880 53.165680
v 85.241730 -7.001313 53.027740
v 84.433525 -8.946978 53.761444
v 89.074745 -4.586245 51.071125
v 89.122032 -6.092662 53.761444
v 89.074745 -4.586245 55.700836
v 92.238724 -4.484391 53.761444
v 89.074745 -4.586245 57.698006
v 87.121490 -4.477894 54.229973
v 89.263443 -1.559062 62.569920
v 86.174278 -4.379933 60.510117
v 84.902977 -4.376640 54.383240
v 89.199234 1.283828 54.058163
v 88.987549 4.327799 62.983810
v 86.088371 -2.127272 63.329086
v 86.045532 1.298786 62.913013
v 86.096489 3.621802 57.984352
v 87.091774 -1.842662 60.929245
v 84.829536 -2.052268 59.497917
v 89.533264 -1.816334 62.983810
v 86.088371 -2.127272 56.052418
v 92.607025 -1.435727 54.229973
v 89.263443 -1.559062 58.049934
v 86.979401 3.910771 60.828537
v 84.883041 3.593753 59.458641
v 89.365143 4.027236 62.913013
v 86.096489 3.621802 55.869339
v 92.237495 4.598111 54.058163
v 88.987549 4.327799 63.329086
v 86.045532 1.298786 61.230885
v 84.804039 1.335672 59.731049
v 89.512589 1.420877 58.261883
v 87.063126 1.426562 56.342140
v 92.691963 1.388800 54.383240
v 89.199234 1.283828 53.662392
v 88.556297 7.218775 55.629410
v 91.584732 7.234176 64.136627
v 85.675003 0.894995 63.998024
v 85.722534 -1.524369 53.662392
v 88.556297 7.218775 56.911263
v 87.267006 6.741702 59.434700
v 84.991394 6.192749 61.382622
v 86.175270 6.244393 61.716015
v 86.331642 4.231735 63.998024
v 85.722534 -1.524369 61.751476
v 84.279617 -1.449309 59.705429
v 89.559799 -1.487961 58.191956
v 87.118233 -1.514307 61.716015
v 86.331642 4.231735 59.795788
v 85.110756 4.151105 58.859695
v 89.407166 4.460065 57.324627
v 87.295319 4.249292 58.390995
v 87.095917 1.183969 61.897614
v 84.242393 0.931860 59.860168
v 89.545380 1.178291 64.136627
v 85.675003 0.894995 37.837185
v 90.611923 -0.812220 32.911602
v 92.401779 -0.845882 55.869339
v 92.237495 4.598111 56.342140
v 92.691963 1.388800 56.052418
v 92.607025 -1.435727 25.436129
v 96.351738 6.320742 21.236353
v 95.939682 7.217229 28.180624
v 95.231339 6.088007 39.282375
v 91.212471 5.684236 32.830196
v 92.346466 6.239661 34.976589
v 98.226288 9.678746 34.965565
v 98.196800 -4.743855 32.911602
v 92.401779 -0.845882 34.501057
v 105.142273 -1.751687 34.554962
v 105.316040 6.632373 34.725315
v 106.678596 2.696095 -42.818565
v 88.616318 -0.501458 -48.749363
v 86.613083 -3.098337 -45.341133
v 86.669510 -5.577524 -45.341133
v 86.669510 -5.577524 -51.071125
v 89.122032 -6.092660 -47.195419
v 89.852974 -6.589139 -51.071125
v 89.122032 -6.092660 -51.496563
v 87.173981 -6.794880 -53.165680
v 85.241730 -7.001315 -53.027740
v 84.433525 -8.946979 -53.761444
v 89.074745 -4.586245 -51.071125
v 89.122032 -6.092660 -53.761444
v 89.074745 -4.586245 -55.700840
v 92.238724 -4.484390 -57.698006
v 87.121490 -4.477892 -53.761444
v 89.074745 -4.586245 -54.229973
v 89.263443 -1.559062 -60.510117
v 84.902969 -4.376639 -62.569916
v 86.174271 -4.379934 -54.383240
v 89.199234 1.283828 -54.058163
v 88.987549 4.327799 -62.983803
v 86.088371 -2.127273 -63.329086
v 86.045525 1.298785 -62.913017
v 86.096489 3.621802 -60.929241
v 84.829536 -2.052267 -57.984352
v 87.091774 -1.842661 -59.497917
v 89.533264 -1.816334 -62.983803
v 86.088371 -2.127273 -54.229973
v 89.263443 -1.559062 -56.052422
v 92.607025 -1.435727 -60.828541
v 84.883041 3.593755 -58.049934
v 86.979401 3.910772 -59.458645
v 89.365150 4.027235 -62.913017
v 86.096489 3.621802 -54.058163
v 88.987549 4.327799 -55.869339
v 92.237495 4.598112 -61.230885
v 84.804039 1.335673 -63.329086
v 86.045525 1.298785 -59.731049
v 89.512589 1.420877 -58.261883
v 87.063126 1.426563 -56.342140
v 92.691963 1.388800 -54.383240
v 89.199234 1.283828 -53.662388
v 88.556297 7.218774 -55.629406
v 91.584732 7.234176 -64.136627
v 85.675003 0.894994 -63.998020
v 85.722534 -1.524371 -53.662388
v 88.556297 7.218774 -56.911263
v 87.267006 6.741703 -59.434700
v 84.991394 6.192751 -61.382626
v 86.175270 6.244395 -61.716011
v 86.331642 4.231735 -61.751472
v 84.279617 -1.449307 -63.998020
v 85.722534 -1.524371 -59.705425
v 89.559799 -1.487962 -58.191956
v 87.118233 -1.514306 -59.795792
v 85.110756 4.151107 -61.716011
v 86.331642 4.231735 -58.859695
v 89.407166 4.460065 -57.324631
v 87.295319 4.249292 -61.897614
v 84.242393 0.931861 -58.390995
v 87.095917 1.183969 -59.860168
v 89.545380 1.178290 -64.136627
v 85.675003 0.894994 -37.837189
v 90.611923 -0.812225 -32.911606
v 92.401779 -0.845888 -56.342140
v 92.691963 1.388800 -55.869339
v 92.237495 4.598112 -56.052422
v 92.607025 -1.435727 -21.236353
v 95.939705 7.217270 -25.436127
v 96.351738 6.320761 -39.282372
v 91.212471 5.684233 -28.180622
v 95.231346 6.088013 -34.976582
v 98.226288 9.678746 -32.830193
v 92.346466 6.239654 -32.911606
v 92.401779 -0.845888 -34.965576
v 98.196815 -4.743856 -34.501060
v 105.142273 -1.751683 -34.554958
v 105.316040 6.632378 -34.725315
v 106.678596 2.696100 0.809610

vt 0.469579 0.195789
vt 0.576702 0.060623
vt 0.423897 0.190390
vt 0.469579 0.195789
vt 0.576702 0.060623
vt 0.423897 0.064330
vt 0.863946 0.111230
vt 0.475165 0.111230
vt 0.475165 0.007883
vt 0.526640 0.007883
vt 0.526640 0.005041
vt 0.707896 0.005041
vt 0.707896 0.096537
vt 0.694707 0.096537
vt 0.694707 0.790668
vt 0.710988 0.666830
vt 0.715800 0.150628
vt 0.716876 0.562543
vt 0.712722 0.289584
vt 0.701347 0.407484
vt 0.708049 0.172951
vt 0.620820 0.618995
vt 0.526982 0.726782
vt 0.422863 0.299295
vt 0.509841 0.673943
vt 0.481608 0.699400
vt 0.445792 0.618921
vt 0.484081 0.604358
vt 0.421542 0.661427
vt 0.646717 0.772931
vt 0.558391 0.934088
vt 0.569475 0.651261
vt 0.419523 0.650738
vt 0.464767 0.359745
vt 0.511491 0.236140
vt 0.622131 0.312200
vt 0.584673 0.577031
vt 0.490060 0.557920
vt 0.434612 0.798088
vt 0.480269 0.237294
vt 0.231998 0.734032
vt 0.638670 0.156476
vt 0.083077 0.159204
vt 0.023343 0.353225
vt 0.384177 0.138063
vt 0.243321 0.457934
vt 0.463491 0.459268
vt 0.429377 0.354900
vt 0.432022 0.355387
vt 0.465451 0.681231
vt 0.532018 0.241090
vt 0.155178 0.149019
vt 0.147283 0.421426
vt 0.466342 0.241641
vt 0.315150 0.142989
vt 0.317910 0.319276
vt 0.460809 0.853474
vt 0.461140 0.410152
vt 0.383211 0.413876
vt 0.433111 0.738741
vt 0.506087 0.311958
vt 0.382996 0.313564
vt 0.427738 0.083094
vt 0.398290 0.104224
vt 0.441193 0.172265
vt 0.443318 0.169918
vt 0.394083 0.361274
vt 0.385656 0.136244
vt 0.232990 0.368111
vt 0.444414 0.010220
vt 0.230810 0.138242
vt 0.159799 0.013089
vt 0.167961 0.155545
vt 0.332488 0.069246
vt 0.348628 0.401404
vt 0.383914 0.401352
vt 0.443076 0.304257
vt 0.372339 0.306743
vt 0.416262 0.801178
vt 0.803664 0.810130
vt 0.895064 0.680819
vt 0.920208 0.672761
vt 0.810907 0.923234
vt 0.780551 0.558875
vt 0.807424 0.402159
vt 0.978589 0.404814
vt 0.800870 0.289018
vt 0.797698 0.940485
vt 0.869429 0.282727
vt 0.909940 0.555784
vt 0.986617 0.484056
vt 0.637550 0.587855
vt 0.640790 0.369701
vt 0.631712 0.308581
vt 0.630709 0.852033
vt 0.604245 0.868298
vt 0.527325 0.556801
vt 0.530116 0.489172
vt 0.522913 0.430258
vt 0.521024 0.484878
vt 0.714706 0.482312
vt 0.807685 0.482788
vt 0.991003 0.989021
vt 0.250386 0.813791
vt 0.049261 0.877636
vt 0.309479 0.738365
vt 0.055368 0.632171
vt 0.061895 0.639337
vt 0.341488 0.391735
vt 0.019658 0.414266
vt 0.296077 0.481122
vt 0.042039 0.527014
vt 0.321223 0.557370
vt 0.061721 0.759688
vt 0.338687 0.858028
vt 0.229851 0.635195
vt 0.253124 0.442605
vt 0.223839 0.531835
vt 0.242534 0.754916
vt 0.248516 0.938445
vt 0.193202 0.845737
vt 0.180335 0.632898
vt 0.207461 0.537533
vt 0.194871 0.752390
vt 0.201178 0.353875
vt 0.151313 0.453928
vt 0.179711 0.710892
vt 0.347174 0.697080
vt 0.246657 0.685291
vt 0.346580 0.851548
vt 0.204982 0.834470
vt 0.394604 0.190390
vt 0.469579 0.195789
vt 0.576702 0.060623
vt 0.423897 0.190390
vt 0.469579 0.195789
vt 0.576702 0.060623
vt 0.423897 0.064330
vt 0.863946 0.111230
vt 0.475165 0.111230
vt 0.475165 0.007883
vt 0.526640 0.007883
vt 0.526640 0.005041
vt 0.707896 0.005041
vt 0.707896 0.096537
vt 0.694707 0.096537
vt 0.694707 0.790668
vt 0.710988 0.666830
vt 0.715800 0.150628
vt 0.716876 0.562543
vt 0.712722 0.289584
vt 0.701347 0.407484
vt 0.708049 0.172951
vt 0.620820 0.618995
vt 0.526982 0.726782
vt 0.422863 0.299295
vt 0.509841 0.673943
vt 0.481608 0.699400
vt 0.445792 0.618921
vt 0.484081 0.604358
vt 0.421542 0.661427
vt 0.646717 0.772931
vt 0.558391 0.934088
vt 0.569475 0.651261
vt 0.419523 0.650738
vt 0.464767 0.359745
vt 0.511491 0.236140
vt 0.622131 0.312200
vt 0.584673 0.577031
vt 0.490060 0.557920
vt 0.434612 0.798088
vt 0.480269 0.237294
vt 0.231998 0.734032
vt 0.638670 0.156476
vt 0.083077 0.159204
vt 0.023343 0.353225
vt 0.384177 0.138063
vt 0.243321 0.457934
vt 0.463491 0.459268
vt 0.429377 0.354900
vt 0.432022 0.355387
vt 0.465451 0.681231
vt 0.532018 0.241090
vt 0.155178 0.149019
vt 0.147283 0.421426
vt 0.466342 0.241641
vt 0.315150 0.142989
vt 0.317910 0.319276
vt 0.460809 0.853474
vt 0.461140 0.410152
vt 0.383211 0.413876
vt 0.433111 0.738741
vt 0.506087 0.311958
vt 0.382996 0.313564
vt 0.427738 0.083094
vt 0.398290 0.104224
vt 0.441193 0.172265
vt 0.443318 0.169918
vt 0.394083 0.361274
vt 0.385656 0.136244
vt 0.232990 0.368111
vt 0.444414 0.010220
vt 0.230810 0.138242
vt 0.159799 0.013089
vt 0.167961 0.155545
vt 0.332488 0.069246
vt 0.348628 0.401404
vt 0.383914 0.401352
vt 0.443076 0.304257
vt 0.372339 0.306743
vt 0.416262 0.801178
vt 0.803664 0.810130
vt 0.895064 0.680819
vt 0.920208 0.672761
vt 0.810907 0.923234
vt 0.780551 0.558875
vt 0.807424 0.402159
vt 0.978589 0.404814
vt 0.800870 0.289018
vt 0.797698 0.940485
vt 0.869429 0.282727
vt 0.909940 0.555784
vt 0.986617 0.484056
vt 0.637550 0.587855
vt 0.640790 0.369701
vt 0.631712 0.308581
vt 0.630709 0.852033
vt 0.604245 0.868298
vt 0.527325 0.556801
vt 0.530116 0.489172
vt 0.522913 0.430258
vt 0.521024 0.484878
vt 0.714706 0.482312
vt 0.807685 0.482788
vt 0.991003 0.989021
vt 0.250386 0.813791
vt 0.049261 0.877636
vt 0.309479 0.738365
vt 0.055368 0.632171
vt 0.061895 0.639337
vt 0.341488 0.391735
vt 0.019658 0.414266
vt 0.296077 0.481122
vt 0.042039 0.527014
vt 0.321223 0.557370
vt 0.061721 0.759688
vt 0.338687 0.858028
vt 0.229851 0.635195
vt 0.253124 0.442605
vt 0.223839 0.531835
vt 0.242534 0.754916
vt 0.248516 0.938445
vt 0.193202 0.845737
vt 0.180335 0.632898
vt 0.207461 0.537533
vt 0.194871 0.752390
vt 0.201178 0.353875
vt 0.151313 0.453928
vt 0.179711 0.710892
vt 0.347174 0.697080
vt 0.246657 0.685291
vt 0.346580 0.851548
vt 0.204982 0.834470
vt 0.394604 0.897389
vt 0.690681 0.668547
vt 0.371825 0.595578
vt 0.350073 0.989902
vt 0.626061 0.259644
vt 0.553400 0.527886
vt 0.364415 0.497318
vt 0.429014 0.524473
vt 0.457438 0.540623
vt 0.492081 0.655383
vt 0.502044 0.915980
vt 0.441494 0.952200
vt 0.488662 0.249827
vt 0.018466 0.246845
vt 0.091239 0.457428
vt 0.326373 0.458413
vt 0.382501 0.409933
vt 0.328974 0.053275
vt 0.074290 0.083750
vt 0.022353 0.357878
vt 0.328445 0.311275
vt 0.327387 0.045754
vt 0.140050 0.031665
vt 0.252804 0.039905
vt 0.312846 0.324949
vt 0.120156 0.307976
vt 0.189218 0.273736
vt 0.106811 0.261384
vt 0.199218 0.290722
vt 0.022584 0.350862
vt 0.045631 0.324949
vt 0.120156 0.307976
vt 0.189218 0.273736
vt 0.106811 0.261384
vt 0.199218 0.290722
vt 0.022584 0.350862
vt 0.045631 0.261384
vt 0.199218 0.307976
vt 0.189218 0.273736
vt 0.106811 0.324949
vt 0.120156 0.290722
vt 0.022584 0.350862
vt 0.045631 0.242081
vt 0.460616 0.244415
vt 0.394386 0.368607
vt 0.480961 0.406323
vt 0.479787 0.271467
vt 0.326816 0.272979
vt 0.369008 0.275718
vt 0.411820 0.275558
vt 0.443019 0.306888
vt 0.445506 0.261384
vt 0.199218 0.307976
vt 0.189218 0.273736
vt 0.106811 0.324949
vt 0.120156 0.261384
vt 0.199218 0.307976
vt 0.189218 0.273736
vt 0.106811 0.324949
vt 0.120156 0.324949
vt 0.120156 0.307976
vt 0.189218 0.273736
vt 0.106811 0.261384
vt 0.199218 0.153749
vt 0.801966 0.146483
vt 0.896728 0.561117
vt 0.512420 0.489035
vt 0.504822 0.425790
vt 0.503447 0.338602
vt 0.185935 0.296944
vt 0.248315 0.924255
vt 0.155337 0.887526
vt 0.022054 0.883617
vt 0.362170 0.843592
vt 0.348281 0.832235
vt 0.441381 0.880293
vt 0.417955 0.773123
vt 0.427312 0.768335
vt 0.358712 0.756236
vt 0.393396 0.897389
vt 0.690681 0.668547
vt 0.371825 0.595578
vt 0.350073 0.989902
vt 0.626061 0.259644
vt 0.553400 0.527886
vt 0.364415 0.497318
vt 0.429014 0.524473
vt 0.457438 0.540623
vt 0.492081 0.655383
vt 0.502044 0.915980
vt 0.441494 0.952200
vt 0.488662 0.249827
vt 0.018466 0.246845
vt 0.091239 0.458413
vt 0.382501 0.457428
vt 0.326373 0.409933
vt 0.328974 0.083750
vt 0.022353 0.053275
vt 0.074290 0.357878
vt 0.328445 0.311275
vt 0.327387 0.045754
vt 0.140050 0.031665
vt 0.252804 0.039905
vt 0.312846 0.307976
vt 0.189218 0.324949
vt 0.120156 0.273736
vt 0.106811 0.261384
vt 0.199218 0.350862
vt 0.045631 0.290722
vt 0.022584 0.307976
vt 0.189218 0.324949
vt 0.120156 0.273736
vt 0.106811 0.261384
vt 0.199218 0.350862
vt 0.045631 0.290722
vt 0.022584 0.307976
vt 0.189218 0.261384
vt 0.199218 0.273736
vt 0.106811 0.324949
vt 0.120156 0.290722
vt 0.022584 0.350862
vt 0.045631 0.242081
vt 0.460616 0.244415
vt 0.394386 0.368607
vt 0.480961 0.406323
vt 0.479787 0.271467
vt 0.326816 0.272979
vt 0.369008 0.275718
vt 0.411820 0.275558
vt 0.443019 0.306888
vt 0.445506 0.307976
vt 0.189218 0.261384
vt 0.199218 0.273736
vt 0.106811 0.324949
vt 0.120156 0.307976
vt 0.189218 0.261384
vt 0.199218 0.273736
vt 0.106811 0.324949
vt 0.120156 0.307976
vt 0.189218 0.324949
vt 0.120156 0.273736
vt 0.106811 0.261384
vt 0.199218 0.153749
vt 0.801966 0.146483
vt 0.896728 0.489035
vt 0.504822 0.561117
vt 0.512420 0.425790
vt 0.503447 0.296944
vt 0.248315 0.338602
vt 0.185935 0.887526
vt 0.022054 0.924255
vt 0.155337 0.843592
vt 0.348281 0.883617
vt 0.362170 0.880293
vt 0.417955 0.832235
vt 0.441381 0.773123
vt 0.427312 0.768335
vt 0.358712 0.756236
vt 0.393396 1.000000

f 7/7 13/13 12/12
f 6/6 3/3 10/10
f 10/10 11/11 6/6
f 11/11 10/10 12/12
f 12/12 13/13 11/11
f 145/145 139/139 144/144
f 135/135 138/138 142/142
f 143/143 142/142 138/138
f 142/142 143/143 144/144
f 145/145 144/144 143/143
f 2/2 1/1 136/136
f 133/133 137/137 134/134
f 1/1 5/5 15/15
