# MOD converted: [r]temple_d_m_metalarmor003_1.mod
# 1101 verts, 1279 faces

v 126.774025 8.181283 -0.000000
v 78.738846 15.474524 -0.000000
v 87.684563 11.853981 -0.000001
v 91.865715 11.531801 0.000000
v 75.339890 -7.010101 -0.000000
v 80.974190 -9.159811 -0.000000
v 88.252678 8.334232 19.765953
v 72.088074 0.644320 22.609833
v 60.852444 0.771681 16.594677
v 71.998352 -6.782939 23.149584
v 57.946457 0.772157 17.433458
v 73.004616 9.182864 19.226694
v 60.898964 -6.747796 20.084377
v 60.898994 8.961861 18.492859
v 61.405441 9.717566 15.812686
v 73.386002 10.372005 17.309395
v 61.405445 -7.158099 15.012850
v 71.614182 -7.587630 5.519422
v 123.341019 -0.287911 5.644171
v 125.979034 5.144233 6.090593
v 131.217926 4.411296 5.469995
v 129.743469 -0.329529 12.712358
v 87.684860 6.779943 19.225283
v 65.641426 -6.735259 18.854959
v 78.784241 0.381570 16.091402
v 78.738861 -6.772048 12.027545
v 87.684845 -6.396771 7.241742
v 86.834419 -10.005899 6.650524
v 78.738853 -11.058338 11.661081
v 91.865997 -6.739146 13.961926
v 91.865662 0.241892 7.920217
v 91.865715 10.556118 6.852938
v 91.704407 -10.348703 12.380244
v 91.866005 6.833429 4.197381
v 85.099098 -11.208739 4.612166
v 91.865715 11.192584 16.930519
v 78.738838 9.266290 22.608416
v 65.594894 0.900088 8.015025
v 87.684586 10.864697 14.494937
v 87.684975 0.307727 4.698579
v 87.684593 11.515594 23.148178
v 62.123760 0.899337 11.877876
v 78.738846 13.553720 7.016615
v 77.448021 15.420143 3.800597
v 76.390732 15.945930 7.806139
v 78.738838 14.957523 7.625274
v 75.244484 -10.928051 13.691686
v 71.287140 -9.220153 15.694603
v 67.252045 -8.261757 12.884706
v 74.299835 14.216238 10.829144
v 73.640060 -10.090828 19.685646
v 67.292198 9.461071 15.194872
v 68.329346 13.160228 21.029835
v 72.189560 0.648456 17.956287
v 72.190094 -6.752921 18.605843
v 73.015518 9.392513 7.529513
v 81.113602 -8.481745 15.695501
v 81.921982 -0.365116 12.916500
v 82.345116 -6.139545 9.263858
v 81.988609 10.436525 14.626599
v 82.013397 5.607568 10.362310
v 22.092743 -1.901630 10.365928
v 22.092056 9.512230 19.804325
v 22.094212 4.531868 8.182091
v 22.091797 3.848071 18.465296
v 22.093620 -1.574582 16.772200
v 22.093533 9.674068 1.371487
v 74.443817 0.462302 2.426579
v 75.596901 -6.556808 18.874083
v 65.849182 2.773126 9.484247
v 65.823097 -10.347597 3.173078
v 65.416298 -7.754532 1.298576
v 65.218307 1.458244 10.413497
v 77.637291 8.951623 15.933691
v 65.964310 -7.617864 4.151949
v 53.983292 -8.042192 4.934116
v 46.640793 2.482440 7.181028
v 48.089005 9.351969 14.041689
v 48.502609 9.225093 17.031105
v 54.945004 -7.712407 18.299192
v 48.014412 3.116802 4.028521
v 65.507202 11.099182 13.323391
v 66.053413 10.938072 11.226202
v 49.342697 -9.484316 5.179158
v 49.181705 -7.064766 16.917591
v 50.084908 -6.593331 11.846596
v 45.985413 -6.286060 16.562492
v 47.054504 -3.510016 6.983565
v 46.226002 -4.267009 20.219299
v 39.115204 3.979073 15.545600
v 39.438507 10.813207 7.938624
v 39.078903 11.094536 4.905766
v 37.495209 3.518162 3.144531
v 74.703087 8.949370 10.538095
v 54.522095 -10.650170 20.215797
v 50.853310 2.990061 14.770096
v 51.236397 11.505226 5.755462
v 50.676399 11.686214 2.668392
v 49.485901 2.365315 14.438729
v 22.093182 -3.416517 8.044943
v 77.879013 -8.480647 13.344998
v 79.907600 -6.122521 1.938812
v 77.910210 11.978183 15.052094
v 79.977989 5.221148 20.753693
v 55.317001 2.949360 14.715593
v 55.217892 12.637289 5.076435
v 54.730618 12.778172 1.472551
v 53.758308 2.218009 10.097926
v 88.235016 -5.657240 6.485571
v 88.249382 7.974162 11.735909
v 88.236008 -0.586161 6.193760
v 88.233688 -8.333092 10.672931
v 88.243523 4.992063 -0.000000
v 116.558006 -9.340243 0.000000
v 91.703819 -11.933000 0.000000
v 94.736176 -11.924193 0.000000
v 109.722023 -12.259195 0.000000
v 123.420013 1.950688 0.000000
v 101.701004 -12.317493 -0.000000
v 123.037582 -5.047165 0.000001
v 94.737282 10.840011 -0.000001
v 91.725410 10.840407 -0.000000
v 129.939514 9.176840 11.172593
v 91.705917 -6.517320 7.445727
v 91.721802 10.392605 12.984903
v 91.707191 -0.084763 11.097404
v 94.736282 -6.505860 12.804096
v 94.736557 -0.095560 7.539279
v 94.737000 9.782981 6.718504
v 94.736206 -10.342493 11.781096
v 94.736786 6.531471 11.808794
v 91.715317 6.688212 12.381104
v 120.807823 -0.069331 12.000809
v 121.625229 8.788451 11.765700
v 101.696686 -6.326164 10.554214
v 116.713760 11.530166 10.298698
v 115.922516 -6.171170 13.158216
v 122.675484 4.769651 5.665677
v 116.464638 -8.293392 7.341527
v 101.701004 -10.376094 5.984447
v 121.648819 -3.328395 8.945706
v 124.425850 5.006684 5.854964
v 125.073891 8.985295 15.467813
v 115.195045 -3.786566 9.227051
v 109.288666 11.226104 5.525123
v 126.283440 -2.601472 7.267070
v 128.348541 2.823138 5.145034
v 129.653534 7.330709 13.304402
v 101.701004 -0.071417 12.853800
v 101.706055 7.139487 7.981673
v 109.715004 -10.266993 12.806606
v 109.626526 -6.324022 8.078073
v 101.702003 10.304811 8.016503
v 122.916298 0.626980 6.136403
v 121.946648 10.591361 13.152649
v 108.982201 9.715413 10.582821
v 101.702003 9.272931 5.775943
v 123.754227 -2.997740 2.262921
v 125.669334 -3.706603 1.798415
v 122.567154 -4.614294 22.011631
v 106.838867 0.120671 21.957113
v 106.707451 6.841060 24.818329
v 110.724487 9.491025 24.727188
v 111.001892 -2.708713 27.126282
v 115.177849 0.010744 27.182522
v 115.243576 6.875177 15.967839
v 109.757225 7.422083 18.645128
v 113.996590 9.910484 15.692719
v 109.989578 0.167452 18.640347
v 114.085297 -2.870843 21.667089
v 118.522514 7.359470 21.533506
v 118.460335 -0.039891 28.039492
v 103.616837 6.144709 28.232895
v 103.763992 0.406372 33.137096
v 111.676857 6.044822 30.670496
v 107.721016 -1.842281 45.882812
v 92.817688 5.221786 48.243652
v 96.572617 7.533300 45.628487
v 92.772888 -0.168912 50.570671
v 100.195770 5.665714 48.018127
v 96.520889 -3.080151 32.970791
v 111.517014 0.175642 50.401733
v 100.354172 -0.967570 29.872007
v 108.091789 8.632088 30.468094
v 102.176994 5.883738 35.256191
v 110.275978 6.032063 33.851303
v 105.701012 8.413528 31.771603
v 106.961990 8.656691 35.132004
v 110.077995 0.107750 32.968903
v 106.254990 -1.954417 30.569298
v 102.282990 0.353491 35.612404
v 98.507599 -0.413641 38.209171
v 102.814056 -3.251245 40.890598
v 106.899002 -0.882905 40.991188
v 106.862000 6.128682 38.138729
v 102.794754 8.740561 35.588295
v 98.507301 5.739245 22.015398
v 118.978409 4.010380 46.296032
v 103.179413 -0.931024 43.956116
v 99.126450 -3.150992 41.614639
v 95.071030 -0.266988 46.292313
v 103.173004 5.872479 43.963539
v 99.208145 8.044657 41.660851
v 95.151077 5.434008 14.741922
v 109.409988 -0.020625 14.736725
v 108.879204 7.803556 16.968204
v 120.260551 8.317816 15.068599
v 115.490738 10.467628 16.915606
v 120.192009 -0.132509 17.654915
v 121.250816 4.452246 -0.000000
v 132.061127 7.199046 -0.000001
v 122.202011 -2.804021 0.000001
v 128.725983 -3.807319 0.000000
v 82.942978 -11.898921 0.000000
v 91.865891 2.110793 0.000841
v 74.648956 16.291250 0.000000
v 81.839905 10.577187 0.000000
v 74.597397 0.413465 -0.000000
v 88.233147 -9.553893 0.000000
v 76.088478 6.252856 -19.765955
v 72.088074 0.644302 -22.609831
v 60.852444 0.771591 -16.594675
v 71.998344 -6.782940 -23.149586
v 57.946457 0.772299 -17.433458
v 73.004623 9.182865 -19.226694
v 60.898964 -6.747795 -20.084377
v 60.898994 8.961858 -18.492861
v 61.405441 9.717566 -15.812686
v 73.386009 10.372005 -17.309393
v 61.405441 -7.158098 -15.012854
v 71.614182 -7.587632 -5.519421
v 123.341019 -0.287910 -5.644171
v 125.979034 5.144234 -6.090593
v 131.217926 4.411295 -5.469995
v 129.743469 -0.329528 -12.712358
v 87.684860 6.779944 -19.225283
v 65.641426 -6.735258 -18.854958
v 78.784241 0.381557 -16.091402
v 78.738861 -6.772049 -12.027544
v 87.684845 -6.396768 -7.241742
v 86.834419 -10.005899 -6.650527
v 78.738853 -11.058337 -11.661078
v 91.865997 -6.739141 -13.961926
v 91.865662 0.241890 -7.920218
v 91.865715 10.556117 -12.380243
v 91.866005 6.833428 -4.197380
v 85.099098 -11.208736 -4.612167
v 91.865715 11.192585 -16.930517
v 78.738846 9.266290 -22.608419
v 65.594894 0.900079 -8.015025
v 87.684586 10.864697 -14.494937
v 87.684975 0.307726 -4.698579
v 87.684593 11.515594 -23.148176
v 62.123760 0.899328 -11.877875
v 78.738846 13.553719 -7.016616
v 77.448021 15.420143 -3.800598
v 76.390732 15.945933 -7.806139
v 78.738846 14.957522 -7.625271
v 75.244484 -10.928050 -13.691686
v 71.287140 -9.220152 -15.694603
v 67.252045 -8.261757 -12.884707
v 74.299835 14.216238 -10.829146
v 73.640060 -10.090828 -19.685646
v 67.292198 9.461069 -15.194872
v 68.329346 13.160228 -21.029835
v 72.189560 0.648428 -17.956287
v 72.190094 -6.752921 -18.605841
v 73.015518 9.392513 -7.529512
v 81.113602 -8.481746 -15.695500
v 81.921982 -0.365118 -12.916501
v 82.345116 -6.139545 -9.263859
v 81.988609 10.436522 -14.626599
v 82.013405 5.607568 -10.362311
v 22.092743 -1.901629 -10.365928
v 22.092056 9.512229 -19.804325
v 22.094212 4.531868 -8.182091
v 22.091797 3.848068 -18.465298
v 22.093620 -1.574583 -16.772200
v 22.093533 9.674068 -1.371487
v 74.443817 0.462296 -2.426579
v 75.596901 -6.556809 -18.874083
v 65.849182 2.773126 -9.484247
v 65.823090 -10.347596 -3.173079
v 65.416298 -7.754533 -1.298575
v 65.218307 1.458241 -10.413499
v 77.637291 8.951621 -15.933694
v 65.964310 -7.617864 -4.151950
v 53.983292 -8.042192 -4.934117
v 46.640793 2.482439 -7.181028
v 48.089005 9.351969 -14.041689
v 48.502609 9.225093 -17.031105
v 54.945004 -7.712408 -18.299192
v 48.014412 3.116801 -4.028521
v 65.507202 11.099184 -13.323391
v 66.053413 10.938072 -11.226201
v 49.342701 -9.484316 -5.179158
v 49.181705 -7.064767 -16.917591
v 50.084908 -6.593330 -11.846597
v 45.985413 -6.286060 -16.562490
v 47.054504 -3.510016 -6.983564
v 46.226002 -4.267010 -20.219299
v 39.115204 3.979071 -15.545600
v 39.438507 10.813208 -7.938624
v 39.078903 11.094535 -4.905765
v 37.495209 3.518161 -3.144531
v 74.703087 8.949371 -10.538095
v 54.522095 -10.650169 -20.215799
v 50.853310 2.990060 -14.770096
v 51.236397 11.505227 -5.755463
v 50.676399 11.686215 -2.668392
v 49.485901 2.365313 -14.438729
v 22.093184 -3.416517 -8.044945
v 77.879013 -8.480645 -13.344998
v 79.907600 -6.122519 -1.938813
v 77.910210 11.978183 -15.052093
v 79.977989 5.221148 -20.753693
v 55.317001 2.949359 -14.715594
v 55.217899 12.637289 -5.076437
v 54.730621 12.778172 -1.472552
v 53.758308 2.218006 -10.097926
v 88.235016 -5.657240 -6.485571
v 88.249382 7.974162 -11.735909
v 88.236008 -0.586163 -6.193761
v 88.233688 -8.333092 -10.672931
v 88.243523 4.992063 0.000000
v 117.228996 12.388410 -0.000001
v 101.698997 11.532113 -0.000000
v 120.900002 -5.396763 -0.000000
v 124.895027 10.563911 -0.000001
v 109.286995 12.398412 -11.172591
v 91.705917 -6.517316 -7.445728
v 91.721802 10.392606 -12.984903
v 91.707191 -0.084762 -11.097404
v 94.736282 -6.505861 -12.804097
v 94.736557 -0.095560 -7.539278
v 94.737000 9.782981 -6.852935
v 91.704407 -10.348701 -6.718504
v 94.736206 -10.342491 -11.781096
v 94.736786 6.531471 -11.808794
v 91.715317 6.688213 -12.381103
v 120.805649 -0.071785 -12.000806
v 121.629524 8.785488 -11.765701
v 101.694542 -6.322681 -10.554214
v 116.718796 11.530697 -10.298697
v 115.917221 -6.170161 -13.158214
v 122.676834 4.765778 -5.665675
v 116.463539 -8.293174 -7.341525
v 101.701004 -10.376093 -5.984447
v 121.648819 -3.328394 -8.945704
v 124.427376 5.002266 -5.854964
v 125.073891 8.985293 -15.467813
v 115.191154 -3.785815 -9.227050
v 109.288666 11.226105 -5.525125
v 126.283440 -2.601473 -7.267070
v 128.348541 2.823138 -5.145034
v 129.653534 7.330709 -13.304402
v 101.701004 -0.071417 -12.853802
v 101.708099 7.146538 -7.981672
v 109.715004 -10.266992 -12.806605
v 109.624367 -6.322349 -8.078073
v 101.702003 10.304811 -8.016505
v 122.916298 0.626979 -6.136403
v 121.949455 10.590234 -13.152649
v 108.985138 9.718731 -10.582822
v 101.702003 9.272932 -5.775943
v 123.754227 -2.997741 -2.262920
v 125.669334 -3.706603 -1.798412
v 122.567154 -4.614294 -22.011629
v 106.838875 0.120655 -21.957111
v 106.707436 6.841045 -24.818336
v 110.724442 9.491025 -24.727184
v 111.001915 -2.708712 -27.126282
v 115.177864 0.010761 -27.182522
v 115.243561 6.875195 -15.967838
v 109.759178 7.424818 -18.645130
v 113.997925 9.910820 -15.692720
v 109.988403 0.170119 -18.640348
v 114.084709 -2.870670 -21.667089
v 118.523361 7.358856 -21.533504
v 118.459770 -0.040488 -28.039492
v 103.616829 6.144700 -28.232895
v 103.764000 0.406360 -33.137093
v 111.676857 6.044834 -30.670492
v 107.721046 -1.842281 -45.882812
v 92.817688 5.221789 -48.243660
v 96.572617 7.533300 -45.628487
v 92.772888 -0.168909 -50.570671
v 100.195770 5.665713 -48.018127
v 96.520889 -3.080151 -32.970787
v 111.517021 0.175655 -50.401733
v 100.354172 -0.967572 -29.872007
v 108.091782 8.632090 -30.468096
v 102.176987 5.883735 -35.256191
v 110.275978 6.032066 -33.851299
v 105.701004 8.413528 -31.771603
v 106.961990 8.656691 -35.132004
v 110.077995 0.107752 -32.968899
v 106.254990 -1.954417 -30.569298
v 102.282997 0.353489 -35.612404
v 98.507599 -0.413641 -38.209167
v 102.814056 -3.251245 -40.890598
v 106.899002 -0.882906 -40.991188
v 106.862000 6.128682 -38.138741
v 102.794754 8.740562 -35.588295
v 98.507301 5.739247 -22.015396
v 118.978607 4.009668 -46.296028
v 103.179413 -0.931025 -43.956131
v 99.126419 -3.150992 -41.614639
v 95.071030 -0.266987 -46.292313
v 103.173004 5.872479 -43.963551
v 99.208145 8.044657 -41.660854
v 95.151077 5.434011 -14.741922
v 109.408722 -0.017632 -14.736725
v 108.881317 7.806768 -16.968204
v 120.263702 8.315575 -15.068597
v 115.495148 10.468264 -16.915606
v 120.190247 -0.134705 -17.654915
v 121.251709 4.449370 14.494937
v 87.684975 0.307727 13.961926
v 91.865662 0.241892 7.920217
v 91.865715 10.556118 12.380244
v 91.866005 6.833429 4.612166
v 91.865715 11.192584 13.961926
v 91.865662 0.241892 11.661081
v 91.865997 -6.739146 6.852938
v 91.704407 -10.348703 -0.000001
v 91.865715 11.531801 18.854959
v 78.784241 0.381570 12.712358
v 87.684860 6.779943 21.029835
v 72.189560 0.648456 14.494937
v 87.684975 0.307727 23.148178
v 62.123760 0.899337 22.608416
v 65.594894 0.900088 1.371487
v 74.443817 0.462302 2.668392
v 49.485901 2.365315 1.472551
v 53.758308 2.218009 14.041689
v 48.502609 9.225093 6.983565
v 46.226002 -4.267009 4.934116
v 46.640793 2.482440 7.181028
v 48.089005 9.351969 4.905766
v 37.495209 3.518162 18.299192
v 48.014412 3.116802 16.562492
v 47.054504 -3.510016 11.846596
v 45.985413 -6.286060 4.934116
v 46.640793 2.482440 1.298576
v 65.218307 1.458244 8.182091
v 22.091797 3.848071 0.000000
v 74.597397 0.413465 4.934116
v 46.640793 2.482440 6.852938
v 91.704407 -10.348703 11.808794
v 91.715317 6.688212 11.781096
v 94.736786 6.531471 0.000000
v 91.703819 -11.933000 13.158216
v 122.675484 4.769651 17.654915
v 121.250816 4.452246 8.945706
v 124.425850 5.006684 7.267070
v 128.348541 2.823138 7.267070
v 128.348541 2.823138 5.525123
v 126.283440 -2.601472 5.145034
v 129.653534 7.330709 -0.000000
v 129.939514 9.176840 12.853800
v 101.706055 7.139487 14.736725
v 108.879204 7.803556 2.262921
v 125.669334 -3.706603 1.798415
v 122.567154 -4.614294 -0.000000
v 123.037582 -5.047165 14.736725
v 108.879204 7.803556 14.741922
v 109.409988 -0.020625 15.967839
v 109.757225 7.422083 14.736725
v 108.879204 7.803556 15.467813
v 115.195045 -3.786566 16.968204
v 120.260551 8.317816 15.068599
v 115.490738 10.467628 16.915606
v 120.192009 -0.132509 17.654915
v 121.250816 4.452246 21.957113
v 106.707451 6.841060 28.039492
v 103.616837 6.144709 41.660851
v 95.151077 5.434008 35.588295
v 98.507301 5.739245 30.468094
v 102.176994 5.883738 45.882812
v 92.817688 5.221786 0.000000
v 126.774025 8.181283 -0.000000
v 132.061127 7.199046 0.000001
v 128.725983 -3.807319 -0.000001
v 122.202011 -2.804021 -14.494937
v 87.684975 0.307726 0.000000
v 91.703819 -11.933000 -13.961926
v 91.865662 0.241890 0.000000
v 91.865891 2.110793 -12.380243
v 91.866005 6.833428 -7.920218
v 91.865715 10.556117 -4.612167
v 91.865715 11.192585 -0.000001
v 91.865715 11.531801 -11.661078
v 91.865997 -6.739141 -13.961926
v 91.865662 0.241890 -6.852935
v 91.704407 -10.348701 0.000000
v 82.942978 -11.898921 -0.000000
v 87.684563 11.853981 -0.000001
v 91.865715 11.531801 -18.854958
v 78.784241 0.381557 -12.712358
v 87.684860 6.779944 -21.029835
v 72.189560 0.648428 -14.494937
v 87.684975 0.307726 -0.000000
v 78.738846 15.474524 0.000841
v 74.648956 16.291250 -22.608419
v 65.594894 0.900079 -23.148176
v 62.123760 0.899328 0.000000
v 74.597397 0.413465 0.000000
v 76.088478 6.252856 -1.371487
v 74.443817 0.462296 -2.668392
v 49.485901 2.365313 -1.472552
v 53.758308 2.218006 -14.041689
v 48.502609 9.225093 -6.983564
v 46.226002 -4.267010 -4.934117
v 46.640793 2.482439 -7.181028
v 48.089005 9.351969 -4.905765
v 37.495209 3.518161 -18.299192
v 48.014412 3.116801 -16.562490
v 47.054504 -3.510016 -11.846597
v 45.985413 -6.286060 -4.934117
v 46.640793 2.482439 -1.298575
v 65.218307 1.458241 -8.182091
v 22.091797 3.848068 0.000000
v 75.339890 -7.010101 0.000000
v 74.597397 0.413465 -4.934117
v 46.640793 2.482439 -0.000000
v 80.974190 -9.159811 0.000000
v 81.839905 10.577187 -0.000000
v 88.233147 -9.553893 -0.000000
v 88.252678 8.334232 0.000001
v 94.737282 10.840011 -6.852935
v 91.704407 -10.348701 -11.808794
v 91.715317 6.688213 -11.781096
v 94.736786 6.531471 0.000000
v 91.703819 -11.933000 0.000000
v 94.736176 -11.924193 -0.000001
v 91.725410 10.840407 -0.000001
v 109.286995 12.398412 -0.000001
v 101.698997 11.532113 -13.158214
v 122.676834 4.765778 -17.654915
v 121.251709 4.449370 -0.000000
v 120.900002 -5.396763 0.000000
v 101.701004 -12.317493 0.000000
v 109.722023 -12.259195 0.000000
v 117.228996 12.388410 -0.000000
v 124.895027 10.563911 -0.000000
v 116.558006 -9.340243 -8.945704
v 124.427376 5.002266 -7.267070
v 128.348541 2.823138 -0.000000
v 129.939514 9.176840 0.000000
v 123.420013 1.950688 -5.525125
v 126.283440 -2.601473 -7.267070
v 128.348541 2.823138 -5.145034
v 129.653534 7.330709 -0.000000
v 129.939514 9.176840 -12.853802
v 101.708099 7.146538 -14.736725
v 108.881317 7.806768 -0.000000
v 123.037582 -5.047165 -2.262920
v 125.669334 -3.706603 -1.798412
v 122.567154 -4.614294 -0.000000
v 123.037582 -5.047165 -14.736725
v 108.881317 7.806768 -14.741922
v 109.408722 -0.017632 -14.736725
v 108.881317 7.806768 -15.967838
v 109.759178 7.424818 -15.467813
v 115.191154 -3.785815 -16.968204
v 120.263702 8.315575 -15.068597
v 115.495148 10.468264 -16.915606
v 120.190247 -0.134705 -17.654915
v 121.251709 4.449370 -21.957111
v 106.707436 6.841045 -28.039492
v 103.616829 6.144700 -41.660854
v 95.151077 5.434011 -35.588295
v 98.507301 5.739247 -30.468096
v 102.176987 5.883735 -45.882812
v 92.817688 5.221789 0.991877
v 128.342102 -5.268600 -27.780687
v 128.773071 -3.662558 -27.855883
v 133.075821 3.598121 -13.325941
v 125.223785 -5.211386 -21.061577
v 132.517258 3.593867 -14.555806
v 129.593552 3.580486 -18.855776
v 117.712616 -9.807411 -27.448559
v 124.337471 -6.316640 -13.322308
v 115.581245 -9.290945 -11.792999
v 111.039207 -9.780454 -32.350372
v 128.396729 -2.873579 -30.767271
v 134.304733 3.599165 -31.817535
v 131.155090 -1.782450 -34.770638
v 133.264786 -0.042261 -33.006474
v 136.254028 3.606603 -36.182198
v 140.152817 3.615446 -24.489075
v 119.268669 -8.965720 -11.897781
v 131.962372 3.599786 -10.832062
v 126.661682 -6.228709 -11.250317
v 115.471031 -9.527011 -10.142828
v 128.721619 3.575747 -9.702055
v 124.434967 -5.167152 -10.151758
v 114.839310 -9.259272 -20.769575
v 128.341934 12.337228 -27.780691
v 128.772934 10.759065 -13.325943
v 125.223610 12.217018 -18.855787
v 117.712379 16.145210 -27.448565
v 124.337303 13.210074 -13.322304
v 115.580978 15.505089 -12.347946
v 111.038971 15.452413 -32.173260
v 129.073181 9.948357 -34.770638
v 133.264740 7.218593 -31.817558
v 131.154984 8.917265 -24.489080
v 119.268448 15.448031 -10.832062
v 126.661522 13.282991 -11.250324
v 115.470810 15.730553 -9.702058
v 124.434807 12.154859 -9.964550
v 114.839096 15.431041 -21.424341
v 119.726448 3.332622 -22.354874
v 126.255440 -5.078460 -29.167368
v 124.543297 -3.464805 -30.541866
v 128.621231 3.579642 -14.316465
v 125.537346 -4.985547 -23.897377
v 130.146133 3.577988 -16.811735
v 129.329575 3.562757 -17.312401
v 116.704369 -8.935921 -27.507755
v 120.416435 -5.856966 -11.393347
v 116.348564 -8.423856 -9.099657
v 112.635643 -8.656280 -32.857342
v 122.027946 -2.634452 -34.709293
v 127.857239 3.579431 -33.895729
v 124.638336 -1.648306 -37.865837
v 125.576569 0.031647 -37.991673
v 129.045303 3.588351 -42.526196
v 130.922867 3.602169 -23.152414
v 116.481674 -8.149624 -22.354874
v 126.255264 12.103000 -29.167379
v 124.543152 10.511372 -14.316466
v 125.537163 11.945682 -17.312410
v 116.704140 15.247245 -27.507761
v 120.416267 12.696190 -11.393345
v 116.348320 14.620277 -9.099663
v 112.635406 14.360259 -33.072910
v 122.693146 9.672603 -37.865833
v 125.576508 7.095380 -33.895741
v 124.638260 8.732859 -23.152411
v 116.481461 14.595559 -22.586893
v 118.029388 3.321502 -27.855883
v 133.075821 3.598121 -14.555806
v 129.593552 3.580486 -21.061577
v 132.517258 3.593867 -33.006474
v 136.254028 3.606603 -30.767271
v 134.304733 3.599165 -36.182198
v 140.152817 3.615446 -11.897781
v 131.962372 3.599786 -10.142828
v 128.721619 3.575747 -27.448559
v 124.337471 -6.316640 -21.424341
v 119.726448 3.332622 -32.350372
v 128.396729 -2.873579 -34.770638
v 133.264786 -0.042261 -36.182198
v 140.152817 3.615446 -18.855776
v 117.712616 -9.807411 -24.489075
v 119.268669 -8.965720 -10.142828
v 128.721619 3.575747 -21.424341
v 119.726448 3.332622 -9.702055
v 124.434967 -5.167152 -10.151758
v 114.839310 -9.259272 -11.792999
v 111.039207 -9.780454 -21.424341
v 119.726448 3.332622 -32.173260
v 129.073181 9.948357 -21.424341
v 119.726448 3.332622 -27.448565
v 124.337303 13.210074 -34.770638
v 133.264740 7.218593 -36.182198
v 140.152817 3.615446 -24.489080
v 119.268448 15.448031 -18.855787
v 117.712379 16.145210 -9.702058
v 124.434807 12.154859 -21.424341
v 119.726448 3.332622 -10.142828
v 128.721619 3.575747 -9.964550
v 114.839096 15.431041 -12.347946
v 111.038971 15.452413 -30.541866
v 128.621231 3.579642 -16.811735
v 129.329575 3.562757 -23.897377
v 130.146133 3.577988 -37.991673
v 129.045303 3.588351 -34.709293
v 127.857239 3.579431 -42.526196
v 130.922867 3.602169 -16.811735
v 129.329575 3.562757 -14.316465
v 125.537346 -4.985547 -11.393347
v 116.348564 -8.423856 -9.099657
v 112.635643 -8.656280 -22.586893
v 118.029388 3.321502 -22.586893
v 118.029388 3.321502 -32.857342
v 122.027946 -2.634452 -22.586893
v 118.029388 3.321502 -37.865837
v 125.576569 0.031647 -42.526196
v 130.922867 3.602169 -17.312401
v 116.704369 -8.935921 -22.586893
v 118.029388 3.321502 -23.152414
v 116.481674 -8.149624 -27.507755
v 120.416435 -5.856966 -14.316466
v 125.537163 11.945682 -22.586893
v 118.029388 3.321502 -16.811735
v 129.329575 3.562757 -22.586893
v 118.029388 3.321502 -9.099663
v 112.635406 14.360259 -11.393345
v 116.348320 14.620277 -22.586893
v 118.029388 3.321502 -37.865833
v 125.576508 7.095380 -22.586893
v 118.029388 3.321502 -33.072910
v 122.693146 9.672603 -42.526196
v 130.922867 3.602169 -27.507761
v 120.416267 12.696190 -22.586893
v 118.029388 3.321502 -23.152411
v 116.481461 14.595559 -17.312410
v 116.704140 15.247245 0.349121
v 128.831985 3.559131 -13.109316
v 125.263321 -3.621005 -24.914204
v 128.161911 -2.356086 -24.975626
v 131.675827 3.573560 -19.426863
v 131.219681 3.570075 -19.188379
v 127.809967 -3.667715 -17.625395
v 119.129097 -7.374484 -22.225988
v 120.399879 -6.687082 -28.408260
v 127.116562 -1.711740 -33.734394
v 136.430756 3.587734 -13.106323
v 117.388466 -6.952710 -24.642950
v 124.539444 -4.523623 -28.408237
v 132.111710 3.574419 -30.789644
v 133.469131 3.580501 -31.549458
v 130.738174 0.600550 -28.570982
v 129.405136 -0.820634 -11.942985
v 130.766525 3.574894 -11.072623
v 126.437637 -4.451832 -11.414168
v 117.298477 -7.145503 -11.857352
v 113.679092 -7.352489 -10.509744
v 128.119934 3.555253 -10.149762
v 124.619102 -3.584888 -10.516997
v 116.782555 -6.926850 -13.109313
v 125.263145 10.612390 -24.914209
v 128.161774 9.421739 -19.188377
v 127.809792 10.710578 -17.625397
v 119.128838 13.820452 -22.225988
v 120.399635 13.251093 -28.411537
v 127.687592 8.759655 -13.106317
v 117.388199 13.297668 -24.642952
v 124.539246 11.423412 -31.549450
v 130.738144 6.530326 -28.570982
v 129.405029 7.917589 -11.072620
v 126.437447 11.482943 -11.414176
v 117.298233 13.481796 -12.310564
v 113.678841 13.254640 -10.149765
v 124.618950 10.561616 -10.364106
v 116.782326 13.237187 -22.774775
v 125.525276 -3.501625 -28.338383
v 124.126991 -2.183780 -29.460918
v 127.457329 3.569274 -16.209980
v 124.938850 -3.425759 -24.034513
v 128.702713 3.567915 -18.247820
v 128.035858 3.555464 -18.656668
v 117.725151 -6.651953 -26.983007
v 120.756683 -4.137416 -13.822701
v 117.434578 -6.233769 -11.949485
v 114.402336 -6.423595 -31.351900
v 122.072746 -1.505648 -32.864365
v 126.833389 3.569107 -32.199940
v 124.204605 -0.700279 -35.442226
v 124.573242 0.671711 -35.545002
v 127.406052 3.576398 -39.248268
v 129.337021 3.587694 -23.426081
v 117.543259 -6.009793 -22.774769
v 125.525101 10.530094 -28.338390
v 124.126839 9.230258 -16.209976
v 124.938660 10.401602 -18.656672
v 117.724907 13.097907 -26.983007
v 120.756508 11.014540 -13.822699
v 117.434341 12.585866 -11.949487
v 114.402092 12.373507 -31.527956
v 122.615959 8.545256 -35.442230
v 124.573166 6.440506 -32.199944
v 124.204498 7.777792 -23.426071
v 117.543037 12.565700 0.611844
v 128.342117 -5.268723 27.769958
v 128.773102 -3.662678 27.845150
v 133.075821 3.597996 13.315223
v 125.223778 -5.211510 21.050844
v 132.517273 3.593740 14.545079
v 129.593552 3.580359 18.845064
v 117.712608 -9.807525 27.437836
v 124.337479 -6.316756 13.311600
v 115.581238 -9.291059 11.782296
v 111.039192 -9.780563 32.339645
v 128.396759 -2.873696 30.756533
v 134.304749 3.599040 31.806803
v 131.155106 -1.782571 34.759899
v 133.264801 -0.042382 32.995735
v 136.254059 3.606478 36.171455
v 140.152847 3.615318 24.478361
v 119.268677 -8.965833 11.887053
v 131.962372 3.599655 10.821343
v 126.661674 -6.228835 11.239611
v 115.471024 -9.527125 10.132103
v 128.721619 3.575619 9.691339
v 124.434959 -5.167277 10.141052
v 114.839294 -9.259387 20.758842
v 128.341965 12.337106 27.769957
v 128.772964 10.758945 13.315218
v 125.223625 12.216894 18.845062
v 117.712402 16.145098 27.437834
v 124.337326 13.209959 13.311584
v 115.581001 15.504975 12.337232
v 111.038994 15.452303 32.162525
v 129.073212 9.948238 34.759899
v 133.264771 7.218471 31.806820
v 131.154999 8.917145 24.478354
v 119.268471 15.447920 10.821335
v 126.661537 13.282865 11.239605
v 115.470833 15.730439 9.691334
v 124.434814 12.154735 9.953833
v 114.839119 15.430926 21.413620
v 119.726463 3.332508 22.344151
v 126.255440 -5.078580 29.156643
v 124.543304 -3.464920 30.531136
v 128.621262 3.579523 14.305746
v 125.537338 -4.985670 23.886646
v 130.146149 3.577864 16.801010
v 129.329590 3.562631 17.301689
v 116.704353 -8.936033 27.497036
v 120.416443 -5.857077 11.382638
v 116.348541 -8.423971 9.088953
v 112.635628 -8.656393 32.846615
v 122.027962 -2.634563 34.698559
v 127.857269 3.579314 33.885002
v 124.638351 -1.648419 37.855095
v 125.607193 0.031535 37.980930
v 129.075943 3.588235 42.515461
v 131.440338 3.602053 23.141703
v 116.481682 -8.149734 22.344145
v 126.255287 12.102880 29.156647
v 124.543182 10.511256 14.305739
v 125.537178 11.945559 17.301685
v 116.704163 15.247131 27.497032
v 120.416290 12.696078 11.382625
v 116.348328 14.620162 9.088948
v 112.635429 14.360147 33.062176
v 122.693169 9.672492 37.855091
v 125.607140 7.095268 33.885010
v 124.638290 8.732746 23.141687
v 116.481491 14.595448 22.576174
v 118.029396 3.321390 27.845150
v 133.075821 3.597996 21.050844
v 132.517273 3.593740 14.545079
v 129.593552 3.580359 30.756533
v 134.304749 3.599040 32.995735
v 136.254059 3.606478 36.171455
v 140.152847 3.615318 11.887053
v 131.962372 3.599655 10.132103
v 128.721619 3.575619 32.339645
v 128.396759 -2.873696 21.413620
v 119.726463 3.332508 27.437836
v 124.337479 -6.316756 34.759899
v 133.264801 -0.042382 36.171455
v 140.152847 3.615318 24.478361
v 119.268677 -8.965833 18.845064
v 117.712608 -9.807525 9.691339
v 124.434959 -5.167277 21.413620
v 119.726463 3.332508 10.132103
v 128.721619 3.575619 10.141052
v 114.839294 -9.259387 11.782296
v 111.039192 -9.780563 21.413620
v 119.726463 3.332508 27.437834
v 124.337326 13.209959 21.413620
v 119.726463 3.332508 32.162525
v 129.073212 9.948238 34.759899
v 133.264771 7.218471 36.171455
v 140.152847 3.615318 24.478354
v 119.268471 15.447920 18.845062
v 117.712402 16.145098 10.132103
v 128.721619 3.575619 21.413620
v 119.726463 3.332508 9.691334
v 124.434814 12.154735 9.953833
v 114.839119 15.430926 12.337232
v 111.038994 15.452303 30.531136
v 128.621262 3.579523 23.886646
v 130.146149 3.577864 16.801010
v 129.329590 3.562631 34.698559
v 127.857269 3.579314 37.980930
v 129.075943 3.588235 42.515461
v 131.440338 3.602053 14.305746
v 125.537338 -4.985670 16.801010
v 129.329590 3.562631 9.088953
v 112.635628 -8.656393 11.382638
v 116.348541 -8.423971 22.576174
v 118.029396 3.321390 22.576174
v 118.029396 3.321390 37.855095
v 125.607193 0.031535 22.576174
v 118.029396 3.321390 32.846615
v 122.027962 -2.634563 42.515461
v 131.440338 3.602053 23.141703
v 116.481682 -8.149734 22.576174
v 118.029396 3.321390 17.301689
v 116.704353 -8.936033 27.497036
v 120.416443 -5.857077 16.801010
v 129.329590 3.562631 22.576174
v 118.029396 3.321390 14.305739
v 125.537178 11.945559 22.576174
v 118.029396 3.321390 11.382625
v 116.348328 14.620162 9.088948
v 112.635429 14.360147 22.576174
v 118.029396 3.321390 33.062176
v 122.693169 9.672492 22.576174
v 118.029396 3.321390 37.855091
v 125.607140 7.095268 42.515461
v 131.440338 3.602053 23.141687
v 116.481491 14.595448 22.576174
v 118.029396 3.321390 27.497032
v 120.416290 12.696078 17.301685
v 116.704163 15.247131 0.349121
v 128.832016 3.559016 13.108967
v 125.263344 -3.621118 24.913845
v 128.161972 -2.356195 24.975254
v 131.675888 3.573448 19.426491
v 131.219727 3.569960 19.188021
v 127.809998 -3.667827 17.625063
v 119.129128 -7.374589 22.225655
v 120.399925 -6.687185 28.407904
v 127.116631 -1.711846 33.734009
v 136.430832 3.587622 13.105997
v 117.388481 -6.952816 24.642603
v 124.539497 -4.523729 28.407864
v 132.111771 3.574308 30.789268
v 133.469208 3.580390 31.549088
v 130.738251 0.600442 28.570618
v 129.405197 -0.820743 11.942616
v 130.766571 3.574776 11.072270
v 126.437653 -4.451947 11.413843
v 117.298485 -7.145609 11.857038
v 113.679100 -7.352592 10.509382
v 128.119934 3.555137 10.149414
v 124.619110 -3.585002 10.516674
v 116.782562 -6.926956 13.108956
v 125.263176 10.612279 24.913841
v 128.161835 9.421631 19.188013
v 127.809845 10.710466 17.625055
v 119.128883 13.820349 22.225643
v 120.399696 13.250991 28.411173
v 127.687668 8.759549 13.105980
v 117.388229 13.297564 24.642595
v 124.539314 11.423308 31.549078
v 130.738220 6.530219 28.570612
v 129.405090 7.917481 11.072259
v 126.437469 11.482829 11.413841
v 117.298256 13.481691 12.310239
v 113.678879 13.254539 10.149410
v 124.618973 10.561503 10.363772
v 116.782349 13.237082 22.774424
v 125.525322 -3.501733 28.338034
v 124.127060 -2.183884 29.460558
v 127.457405 3.569168 16.209631
v 124.938881 -3.425869 24.034149
v 128.702774 3.567806 18.247458
v 128.035904 3.555352 18.656342
v 117.725189 -6.652056 26.982670
v 120.756737 -4.137517 13.822375
v 117.434593 -6.233874 11.949167
v 114.402344 -6.423698 31.351557
v 122.072823 -1.505749 32.864006
v 126.833473 3.569004 32.199589
v 124.204681 -0.700380 35.441879
v 124.573326 0.671610 35.544640
v 127.406143 3.576296 39.247902
v 129.337112 3.587592 23.425753
v 117.543304 -6.009893 22.774410
v 125.525162 10.529987 28.338037
v 124.126915 9.230155 16.209620
v 124.938705 10.401493 18.656334
v 117.724960 13.097805 26.982662
v 120.756577 11.014440 13.822363
v 117.434372 12.585762 11.949160
v 114.402122 12.373405 31.527607
v 122.616043 8.545156 35.441879
v 124.573265 6.440406 32.199589
v 124.204582 7.777691 23.425735
v 117.543098 12.565601 0.611844
v 76.953835 -7.851015 22.147388
v 77.010620 0.585759 14.094414
v 87.962944 -7.408504 21.088663
v 68.686707 -7.828545 24.713596
v 68.685997 0.900539 22.585966
v 60.318939 -7.807704 18.421803
v 62.382675 -9.608045 7.265702
v 86.934525 -11.665078 17.004436
v 87.963112 0.498747 7.954694
v 92.952499 12.585594 14.510221
v 92.952843 8.195084 14.902075
v 87.962952 8.132010 4.594270
v 92.952499 13.336245 8.051164
v 87.962639 12.949533 4.682198
v 87.962639 13.717190 16.375660
v 92.952423 0.421103 13.662053
v 92.952827 -7.812286 7.078465
v 92.952927 -12.390072 4.173286
v 84.823044 -13.083695 0.000000
v 92.952927 -15.386629 6.666034
v 76.953835 -12.906205 0.000000
v 92.952698 2.625247 -0.000001
v 92.952499 13.736309 -0.000000
v 82.176918 -13.897696 27.212694
v 55.805962 1.196459 26.576012
v 60.259281 1.197386 -0.000000
v 87.962639 14.116295 19.877958
v 76.953819 11.064386 21.854643
v 69.735634 11.213258 7.839995
v 76.953827 17.776585 13.918919
v 76.953827 16.120949 0.000864
v 76.953827 18.386330 3.771366
v 74.005363 18.942312 0.000014
v 71.806160 19.349567 7.038154
v 75.335442 18.322189 15.107000
v 71.364235 16.902323 23.128796
v 62.434082 11.294119 17.832323
v 63.761402 15.656873 7.656728
v 72.559135 -12.752578 16.059174
v 67.537384 -10.738396 12.682786
v 70.528145 -11.765238 25.610962
v 42.588898 -4.881895 30.237694
v 38.075928 1.396706 26.153799
v 44.704052 8.437820 24.098463
v 51.453918 -6.350121 21.401409
v 53.520069 -7.880896 28.725197
v 46.940941 1.305782 20.811935
v 54.898788 13.601166 24.641296
v 53.569069 9.891636 -18.888107
v 76.953835 -7.851014 -22.147387
v 77.010620 0.585782 -14.094411
v 87.962944 -7.408507 -21.088663
v 68.686707 -7.828545 -24.713591
v 68.686005 0.900575 -22.585964
v 60.318939 -7.807711 -18.421801
v 62.382671 -9.608046 -7.265705
v 86.934525 -11.665078 -17.004436
v 87.963112 0.498750 -7.954694
v 92.952499 12.585594 -14.510222
v 92.952843 8.195084 -14.902073
v 87.962952 8.132010 -4.594270
v 92.952499 13.336246 -8.051165
v 87.962639 12.949533 -4.682197
v 87.962639 13.717190 -16.375660
v 92.952431 0.421104 -13.662051
v 92.952827 -7.812286 -7.078465
v 92.952927 -12.390073 -4.173284
v 84.823044 -13.083695 -6.666089
v 76.953827 -12.906315 -27.212694
v 55.805965 1.196488 -26.576010
v 60.259277 1.197421 -19.877958
v 76.953819 11.064389 -21.854645
v 69.735634 11.213258 -7.839995
v 76.953827 17.776588 -13.918921
v 76.953827 16.120949 -3.771366
v 74.005363 18.942307 -7.038155
v 75.335449 18.322191 -15.107000
v 71.364243 16.902325 -23.128794
v 62.434082 11.294117 -17.832321
v 63.761398 15.656875 -7.656773
v 72.559128 -12.752651 -16.059175
v 67.537384 -10.738395 -12.682788
v 70.528145 -11.765239 -25.610966
v 42.588905 -4.881891 -30.237694
v 38.075928 1.396626 -26.153795
v 44.704048 8.437824 -24.098465
v 51.453926 -6.350118 -21.401413
v 53.520069 -7.880891 -28.725195
v 46.940956 1.306043 -20.811935
v 54.898788 13.601166 -24.641296
v 53.569069 9.891638 17.004436
v 87.963112 0.498747 16.375660
v 92.952423 0.421103 13.662053
v 92.952827 -7.812286 0.000000
v 92.952698 2.625247 16.375660
v 92.952423 0.421103 7.078465
v 92.952927 -12.390072 16.375660
v 92.952423 0.421103 0.000000
v 92.952698 2.625247 14.510221
v 92.952843 8.195084 22.147388
v 77.010620 0.585759 24.713596
v 68.685997 0.900539 26.576012
v 60.259281 1.197386 27.212694
v 55.805962 1.196459 0.000000
v 92.952927 -15.386629 28.725197
v 46.940941 1.305782 30.237694
v 38.075928 1.396706 -17.004436
v 87.963112 0.498750 -16.375660
v 92.952431 0.421104 -13.662051
v 92.952827 -7.812286 -16.375660
v 92.952431 0.421104 -7.078465
v 92.952927 -12.390073 -16.375660
v 92.952431 0.421104 -14.510222
v 92.952843 8.195084 0.000000
v 92.952698 2.625247 -22.147387
v 77.010620 0.585782 -24.713591
v 68.686005 0.900575 -26.576010
v 60.259277 1.197421 -27.212694
v 55.805965 1.196488 -28.725195
v 46.940956 1.306043 -30.237694
v 38.075928 1.396626 0.481345

vt 0.678401 0.640856
vt 0.834188 0.640856
vt 0.937127 0.676926
vt 0.423450 0.139637
vt 0.045881 0.101212
vt 0.062333 0.045019
vt 0.356779 0.314591
vt 0.983009 0.314596
vt 0.891116 0.265203
vt 0.983009 0.314598
vt 0.870799 0.374329
vt 0.983009 0.265450
vt 0.891441 0.375280
vt 0.891441 0.390737
vt 0.899321 0.390261
vt 0.987347 0.252698
vt 0.899321 0.249183
vt 0.987347 0.103435
vt 0.672066 0.052865
vt 0.678147 0.052402
vt 0.726881 0.098573
vt 0.723034 0.494574
vt 0.937130 0.231091
vt 0.683475 0.274493
vt 0.834188 0.195038
vt 0.834188 0.148266
vt 0.937130 0.093196
vt 0.927344 0.086395
vt 0.834188 0.144049
vt 0.985243 0.213493
vt 0.985239 0.549718
vt 0.985240 0.091077
vt 0.985244 0.498396
vt 0.985243 0.058164
vt 0.907376 0.587784
vt 0.985240 0.446036
vt 0.834188 0.312988
vt 0.682939 0.548627
vt 0.937127 0.219626
vt 0.937131 0.586789
vt 0.937127 0.319199
vt 0.642997 0.504177
vt 0.834188 0.560116
vt 0.819335 0.597122
vt 0.807168 0.551030
vt 0.834188 0.097611
vt 0.793977 0.167418
vt 0.748440 0.190464
vt 0.702008 0.492591
vt 0.783108 0.134479
vt 0.775516 0.414332
vt 0.702471 0.466008
vt 0.714405 0.293741
vt 0.758563 0.213065
vt 0.758831 0.430184
vt 0.768330 0.111894
vt 0.124272 0.115836
vt 0.217438 0.109740
vt 0.170460 0.105232
vt 0.307634 0.113610
vt 0.261211 0.247390
vt 0.452330 0.060370
vt 0.452318 0.144812
vt 0.452310 0.289043
vt 0.452324 0.188093
vt 0.452316 0.103963
vt 0.452309 0.171026
vt 0.429253 0.149551
vt 0.064257 0.208225
vt 0.238298 0.217180
vt 0.127785 0.225797
vt 0.081899 0.247546
vt 0.021717 0.138695
vt 0.302558 0.212933
vt 0.173062 0.292308
vt 0.094028 0.369410
vt 0.065698 0.318222
vt 0.345539 0.316418
vt 0.299047 0.274985
vt 0.179308 0.144495
vt 0.628326 0.208725
vt 0.361957 0.207724
vt 0.302146 0.307564
vt 0.141576 0.318651
vt 0.100615 0.301497
vt 0.185170 0.339853
vt 0.153678 0.330059
vt 0.197119 0.352553
vt 0.113615 0.145238
vt 0.571067 0.099793
vt 0.573112 0.058201
vt 0.574783 0.296378
vt 0.570341 0.152577
vt 0.361821 0.281172
vt 0.136518 0.295223
vt 0.243243 0.290618
vt 0.300305 0.295083
vt 0.349381 0.310763
vt 0.407300 0.217933
vt 0.452326 0.138889
vt 0.123645 0.128020
vt 0.170599 0.122838
vt 0.362206 0.127741
vt 0.258509 0.270032
vt 0.241358 0.268052
vt 0.302289 0.271936
vt 0.352626 0.287102
vt 0.418742 0.063298
vt 0.170175 0.058489
vt 0.307960 0.067312
vt 0.216679 0.056948
vt 0.127277 0.065464
vt 0.265807 0.994284
vt 0.361021 0.009865
vt 0.985244 0.994284
vt 0.066190 0.994284
vt 0.268661 0.737196
vt 0.563280 0.994284
vt 0.160290 0.994284
vt 0.448565 0.640782
vt 0.065933 0.640784
vt 0.025240 0.640782
vt 0.541544 0.843663
vt 0.025244 0.541718
vt 0.025159 0.771708
vt 0.028126 0.844349
vt 0.066192 0.773749
vt 0.066196 0.538920
vt 0.065929 0.903512
vt 0.066190 0.446746
vt 0.065926 0.453651
vt 0.028990 0.827005
vt 0.418635 0.478641
vt 0.428821 0.835320
vt 0.160290 0.498186
vt 0.362559 0.855140
vt 0.352873 0.454348
vt 0.456260 0.917736
vt 0.359869 0.895094
vt 0.160290 0.913429
vt 0.429840 0.858417
vt 0.480770 0.561677
vt 0.475768 0.785301
vt 0.342974 0.516117
vt 0.262315 0.919635
vt 0.492419 0.527451
vt 0.538081 0.571268
vt 0.537679 0.766990
vt 0.160290 0.684335
vt 0.160304 0.886445
vt 0.268566 0.821257
vt 0.267672 0.531641
vt 0.160032 0.885975
vt 0.446940 0.557874
vt 0.433288 0.463079
vt 0.258094 0.497799
vt 0.160032 0.916246
vt 0.458247 0.963710
vt 0.484122 0.969986
vt 0.442209 0.879290
vt 0.687770 0.856139
vt 0.626433 0.889402
vt 0.927294 0.888163
vt 0.750100 0.893550
vt 0.809087 0.891019
vt 0.870767 0.957528
vt 0.988157 0.954141
vt 0.931297 0.938850
vt 0.660240 0.950246
vt 0.743402 0.950951
vt 0.873844 0.953071
vt 0.809147 0.834412
vt 0.970868 0.822274
vt 0.695482 0.830137
vt 0.866902 0.824982
vt 0.752350 0.653432
vt 0.641054 0.653653
vt 0.919613 0.653487
vt 0.696971 0.653618
vt 0.867822 0.653532
vt 0.753898 0.827339
vt 0.811119 0.653575
vt 0.805026 0.840699
vt 0.921153 0.807726
vt 0.970798 0.803411
vt 0.868035 0.796407
vt 0.920174 0.819621
vt 0.919190 0.800566
vt 0.810856 0.798124
vt 0.753489 0.795459
vt 0.696618 0.748541
vt 0.696630 0.748597
vt 0.753556 0.748647
vt 0.808180 0.748714
vt 0.868213 0.748763
vt 0.920003 0.744588
vt 0.971057 0.953119
vt 0.848466 0.694615
vt 0.806388 0.692898
vt 0.753756 0.691579
vt 0.696834 0.696090
vt 0.867996 0.693939
vt 0.919778 0.692766
vt 0.971506 0.747568
vt 0.264575 0.658895
vt 0.257202 0.411528
vt 0.410484 0.437193
vt 0.345860 0.765741
vt 0.410280 0.740749
vt 0.437844 0.008595
vt 0.729333 0.148328
vt 0.671143 0.140573
vt 0.724942 0.009865
vt 0.882565 0.722242
vt 0.414462 0.640856
vt 0.787125 0.091302
vt 0.368943 0.162518
vt 0.433984 0.045990
vt 0.078018 0.139887
vt 0.394550 0.314591
vt 0.983009 0.314596
vt 0.891116 0.265203
vt 0.983009 0.314598
vt 0.870799 0.374329
vt 0.983009 0.265450
vt 0.891441 0.375280
vt 0.891441 0.390737
vt 0.899321 0.390261
vt 0.987347 0.252698
vt 0.899321 0.249183
vt 0.987347 0.103435
vt 0.672066 0.052865
vt 0.678147 0.052402
vt 0.726881 0.098573
vt 0.723034 0.494574
vt 0.937130 0.231091
vt 0.683475 0.274493
vt 0.834188 0.195038
vt 0.834188 0.148266
vt 0.937130 0.093196
vt 0.927344 0.086395
vt 0.834188 0.144049
vt 0.985243 0.213493
vt 0.985239 0.549718
vt 0.985240 0.498396
vt 0.985243 0.058164
vt 0.907376 0.587784
vt 0.985240 0.446036
vt 0.834188 0.312988
vt 0.682939 0.548627
vt 0.937127 0.219626
vt 0.937131 0.586789
vt 0.937127 0.319199
vt 0.642997 0.504177
vt 0.834188 0.560116
vt 0.819335 0.597122
vt 0.807168 0.551030
vt 0.834188 0.097611
vt 0.793977 0.167418
vt 0.748440 0.190464
vt 0.702008 0.492591
vt 0.783108 0.134479
vt 0.775516 0.414332
vt 0.702471 0.466008
vt 0.714405 0.293741
vt 0.758563 0.213065
vt 0.758831 0.430184
vt 0.768330 0.111894
vt 0.124272 0.115836
vt 0.217438 0.109740
vt 0.170460 0.105232
vt 0.307634 0.113610
vt 0.261211 0.247390
vt 0.452330 0.060370
vt 0.452318 0.144812
vt 0.452310 0.289043
vt 0.452324 0.188093
vt 0.452316 0.103963
vt 0.452309 0.171026
vt 0.429253 0.149551
vt 0.064257 0.208225
vt 0.238298 0.217180
vt 0.127785 0.225797
vt 0.081899 0.247546
vt 0.021717 0.138695
vt 0.302558 0.212933
vt 0.173062 0.292308
vt 0.094028 0.369410
vt 0.065698 0.318222
vt 0.345539 0.316418
vt 0.299047 0.274985
vt 0.179308 0.144495
vt 0.628326 0.208725
vt 0.361957 0.207724
vt 0.302146 0.307564
vt 0.141576 0.318651
vt 0.100615 0.301497
vt 0.185170 0.339853
vt 0.153678 0.330059
vt 0.197119 0.352553
vt 0.113615 0.145238
vt 0.571067 0.099793
vt 0.573112 0.058201
vt 0.574783 0.296378
vt 0.570341 0.152577
vt 0.361821 0.281172
vt 0.136518 0.295223
vt 0.243243 0.290618
vt 0.300305 0.295083
vt 0.349381 0.310763
vt 0.407300 0.217933
vt 0.452326 0.138889
vt 0.123645 0.128020
vt 0.170599 0.122838
vt 0.362206 0.127741
vt 0.258509 0.270032
vt 0.241358 0.268052
vt 0.302289 0.271936
vt 0.352626 0.287102
vt 0.418742 0.063298
vt 0.170175 0.058489
vt 0.307960 0.067312
vt 0.216679 0.056948
vt 0.127277 0.065464
vt 0.265807 0.640782
vt 0.369814 0.640782
vt 0.159991 0.994284
vt 0.419685 0.640782
vt 0.473388 0.640782
vt 0.262511 0.843663
vt 0.025244 0.541718
vt 0.025159 0.771708
vt 0.028126 0.844349
vt 0.066192 0.773749
vt 0.066196 0.538920
vt 0.065929 0.091077
vt 0.985244 0.903512
vt 0.066190 0.446746
vt 0.065926 0.453651
vt 0.028990 0.827005
vt 0.418635 0.478641
vt 0.428821 0.835320
vt 0.160290 0.498186
vt 0.362559 0.855140
vt 0.352873 0.454348
vt 0.456260 0.917736
vt 0.359869 0.895094
vt 0.160290 0.913429
vt 0.429840 0.858417
vt 0.480770 0.561677
vt 0.475768 0.785301
vt 0.342974 0.516117
vt 0.262315 0.919635
vt 0.492419 0.527451
vt 0.538081 0.571268
vt 0.537679 0.766990
vt 0.160290 0.684335
vt 0.160304 0.886445
vt 0.268566 0.821257
vt 0.267672 0.531641
vt 0.160032 0.885975
vt 0.446940 0.557874
vt 0.433288 0.463079
vt 0.258094 0.497799
vt 0.160032 0.916246
vt 0.458247 0.963710
vt 0.484122 0.969986
vt 0.442209 0.879290
vt 0.687770 0.856139
vt 0.626433 0.889402
vt 0.927294 0.888163
vt 0.750100 0.893550
vt 0.809087 0.891019
vt 0.870767 0.957528
vt 0.988157 0.954141
vt 0.931297 0.938850
vt 0.660240 0.950246
vt 0.743402 0.950951
vt 0.873844 0.953071
vt 0.809147 0.834412
vt 0.970868 0.822274
vt 0.695482 0.830137
vt 0.866902 0.824982
vt 0.752350 0.653432
vt 0.641054 0.653653
vt 0.919613 0.653487
vt 0.696971 0.653618
vt 0.867822 0.653532
vt 0.753898 0.827339
vt 0.811119 0.653575
vt 0.805026 0.840699
vt 0.921153 0.807726
vt 0.970798 0.803411
vt 0.868035 0.796407
vt 0.920174 0.819621
vt 0.919190 0.800566
vt 0.810856 0.798124
vt 0.753489 0.795459
vt 0.696618 0.748541
vt 0.696630 0.748597
vt 0.753556 0.748647
vt 0.808180 0.748714
vt 0.868213 0.748763
vt 0.920003 0.744588
vt 0.971057 0.953119
vt 0.848466 0.694615
vt 0.806388 0.692898
vt 0.753756 0.691579
vt 0.696834 0.696090
vt 0.867996 0.693939
vt 0.919778 0.692766
vt 0.971506 0.747568
vt 0.264575 0.658895
vt 0.257202 0.411528
vt 0.410484 0.437193
vt 0.345860 0.765741
vt 0.410280 0.740749
vt 0.437844 0.422111
vt 0.937132 0.428244
vt 0.985239 0.682370
vt 0.394342 0.690295
vt 0.378127 0.680097
vt 0.406500 0.710185
vt 0.362309 0.735261
vt 0.354019 0.763347
vt 0.356899 0.640856
vt 0.985240 0.369848
vt 0.834188 0.493125
vt 0.937130 0.350600
vt 0.758564 0.422111
vt 0.937132 0.325141
vt 0.642997 0.331352
vt 0.682940 0.198538
vt 0.015229 0.340105
vt 0.045968 0.314862
vt 0.035613 0.097851
vt 0.630135 0.251567
vt 0.628142 0.010645
vt 0.626731 0.056414
vt 0.630773 0.010810
vt 0.566455 0.320027
vt 0.247190 0.188001
vt 0.627588 0.220734
vt 0.624448 0.293757
vt 0.628164 0.217402
vt 0.427681 0.019273
vt 0.452316 0.191177
vt 0.006954 0.331100
vt 0.393681 0.900048
vt 0.027251 0.698020
vt 0.025373 0.698828
vt 0.066198 0.992737
vt 0.026273 0.801503
vt 0.457052 0.393594
vt 0.437052 0.511263
vt 0.479978 0.881097
vt 0.533823 0.695646
vt 0.568268 0.705606
vt 0.537252 0.707779
vt 0.594040 0.737196
vt 0.604596 0.432253
vt 0.160032 0.406813
vt 0.256930 0.720669
vt 0.528449 0.726913
vt 0.525743 0.737196
vt 0.523268 0.966441
vt 0.995765 0.948299
vt 0.651532 0.896569
vt 0.597354 0.903890
vt 0.587402 0.994357
vt 0.730142 0.982032
vt 0.885950 0.978858
vt 0.935730 0.991178
vt 0.809413 0.985514
vt 0.848495 0.894060
vt 0.976156 0.812295
vt 0.639625 0.694136
vt 0.640913 0.752683
vt 0.640711 0.797026
vt 0.640755 0.653675
vt 0.971399 0.008123
vt 0.678401 0.008595
vt 0.729333 0.140573
vt 0.724942 0.148328
vt 0.671143 0.422111
vt 0.937132 0.009865
vt 0.985244 0.428244
vt 0.985239 0.722242
vt 0.414462 0.690295
vt 0.378127 0.682370
vt 0.394342 0.680097
vt 0.406500 0.676926
vt 0.423450 0.735261
vt 0.354019 0.710185
vt 0.362309 0.763347
vt 0.356899 0.009865
vt 0.882565 0.640856
vt 0.937127 0.640856
vt 0.985240 0.369848
vt 0.834188 0.493125
vt 0.937130 0.350600
vt 0.758564 0.422111
vt 0.937132 0.640856
vt 0.834188 0.640856
vt 0.787125 0.331352
vt 0.682940 0.325141
vt 0.642997 0.162518
vt 0.433984 0.139887
vt 0.394550 0.198538
vt 0.015229 0.340105
vt 0.045968 0.314862
vt 0.035613 0.097851
vt 0.630135 0.251567
vt 0.628142 0.010645
vt 0.626731 0.056414
vt 0.630773 0.010810
vt 0.566455 0.320027
vt 0.247190 0.188001
vt 0.627588 0.220734
vt 0.624448 0.293757
vt 0.628164 0.217402
vt 0.427681 0.019273
vt 0.452316 0.139637
vt 0.045881 0.191177
vt 0.006954 0.331100
vt 0.393681 0.101212
vt 0.062333 0.091302
vt 0.368943 0.045990
vt 0.078018 0.045019
vt 0.356779 0.640782
vt 0.065933 0.900048
vt 0.027251 0.698020
vt 0.025373 0.698828
vt 0.066198 0.992737
vt 0.026273 0.994284
vt 0.066190 0.640784
vt 0.025240 0.640782
vt 0.262511 0.640782
vt 0.159991 0.801503
vt 0.457052 0.393594
vt 0.437052 0.994284
vt 0.419685 0.994284
vt 0.160290 0.994284
vt 0.268661 0.640782
vt 0.369814 0.640782
vt 0.473388 0.994284
vt 0.361021 0.511263
vt 0.479978 0.881097
vt 0.533823 0.640782
vt 0.541544 0.737196
vt 0.563280 0.705606
vt 0.537252 0.695646
vt 0.568268 0.707779
vt 0.594040 0.737196
vt 0.604596 0.432253
vt 0.160032 0.406813
vt 0.256930 0.994284
vt 0.448565 0.720669
vt 0.528449 0.726913
vt 0.525743 0.737196
vt 0.523268 0.966441
vt 0.995765 0.948299
vt 0.651532 0.903890
vt 0.587402 0.896569
vt 0.597354 0.994357
vt 0.730142 0.982032
vt 0.885950 0.978858
vt 0.935730 0.991178
vt 0.809413 0.985514
vt 0.848495 0.894060
vt 0.976156 0.812295
vt 0.639625 0.694136
vt 0.640913 0.752683
vt 0.640711 0.797026
vt 0.640755 0.653675
vt 0.971399 1.000000
vt 0.596070 0.441132
vt 0.610515 0.438882
vt 0.754724 0.873565
vt 0.491558 0.642143
vt 0.736004 0.836772
vt 0.638014 0.708133
vt 0.239816 0.451068
vt 0.461852 0.873674
vt 0.168382 0.919425
vt 0.016153 0.304424
vt 0.597901 0.351784
vt 0.795912 0.320364
vt 0.690349 0.232018
vt 0.761057 0.284795
vt 0.861244 0.189789
vt 0.991914 0.539605
vt 0.291969 0.916290
vt 0.717406 0.948173
vt 0.539750 0.935660
vt 0.164689 0.968792
vt 0.608791 0.981978
vt 0.465120 0.968525
vt 0.143516 0.650879
vt 0.596066 0.441132
vt 0.610510 0.873565
vt 0.491553 0.708132
vt 0.239810 0.451068
vt 0.461848 0.873674
vt 0.168375 0.902823
vt 0.016147 0.309722
vt 0.620573 0.232018
vt 0.761056 0.320363
vt 0.690346 0.539605
vt 0.291962 0.948173
vt 0.539746 0.935660
vt 0.164683 0.981978
vt 0.465116 0.974126
vt 0.143510 0.631290
vt 0.307312 0.603452
vt 0.526134 0.399647
vt 0.468751 0.358527
vt 0.605426 0.843932
vt 0.502067 0.557306
vt 0.656534 0.769283
vt 0.629167 0.754305
vt 0.206024 0.449297
vt 0.330437 0.931381
vt 0.194100 1.000000
vt 0.069659 0.289257
vt 0.384448 0.233853
vt 0.579820 0.258192
vt 0.471936 0.139421
vt 0.487065 0.135657
vt 0.603322 0.000000
vt 0.682566 0.579593
vt 0.198561 0.603452
vt 0.526130 0.399647
vt 0.468747 0.843932
vt 0.502062 0.754304
vt 0.206018 0.449297
vt 0.330432 0.931381
vt 0.194093 1.000000
vt 0.069652 0.282808
vt 0.406743 0.139421
vt 0.487064 0.258192
vt 0.471934 0.579593
vt 0.198555 0.596511
vt 0.250434 0.438882
vt 0.754724 0.836772
vt 0.638014 0.642143
vt 0.736004 0.284795
vt 0.861244 0.351784
vt 0.795912 0.189789
vt 0.991914 0.916290
vt 0.717406 0.968792
vt 0.608791 0.451068
vt 0.461852 0.631290
vt 0.307312 0.304424
vt 0.597901 0.232018
vt 0.761057 0.189789
vt 0.991914 0.708133
vt 0.239816 0.539605
vt 0.291969 0.968792
vt 0.608791 0.631290
vt 0.307312 0.981978
vt 0.465120 0.968525
vt 0.143516 0.919425
vt 0.016153 0.631290
vt 0.307312 0.309722
vt 0.620573 0.631290
vt 0.307312 0.451068
vt 0.461848 0.232018
vt 0.761056 0.189789
vt 0.991914 0.539605
vt 0.291962 0.708132
vt 0.239810 0.981978
vt 0.465116 0.631290
vt 0.307312 0.968792
vt 0.608791 0.974126
vt 0.143510 0.902823
vt 0.016147 0.358527
vt 0.605426 0.769283
vt 0.629167 0.557306
vt 0.656534 0.135657
vt 0.603322 0.233853
vt 0.579820 0.000000
vt 0.682566 0.769283
vt 0.629167 0.843932
vt 0.502067 0.931381
vt 0.194100 1.000000
vt 0.069659 0.596511
vt 0.250434 0.596511
vt 0.250434 0.289257
vt 0.384448 0.596511
vt 0.250434 0.139421
vt 0.487065 0.000000
vt 0.682566 0.754305
vt 0.206024 0.596511
vt 0.250434 0.579593
vt 0.198561 0.449297
vt 0.330437 0.843932
vt 0.502062 0.596511
vt 0.250434 0.769283
vt 0.629167 0.596511
vt 0.250434 1.000000
vt 0.069652 0.931381
vt 0.194093 0.596511
vt 0.250434 0.139421
vt 0.487064 0.596511
vt 0.250434 0.282808
vt 0.406743 0.000000
vt 0.682566 0.449297
vt 0.330432 0.596511
vt 0.250434 0.579593
vt 0.198555 0.754304
vt 0.206018 1.000000
vt 0.623199 0.377340
vt 0.550814 0.504456
vt 0.582027 0.505118
vt 0.653822 0.445368
vt 0.648910 0.442800
vt 0.578237 0.425970
vt 0.484760 0.475510
vt 0.498444 0.542081
vt 0.570771 0.599433
vt 0.705024 0.377308
vt 0.466016 0.501536
vt 0.543019 0.542080
vt 0.658516 0.567724
vt 0.673133 0.575905
vt 0.609769 0.543833
vt 0.595414 0.362169
vt 0.644031 0.352797
vt 0.563459 0.356475
vt 0.465047 0.368739
vt 0.426073 0.339083
vt 0.615531 0.332411
vt 0.543877 0.334719
vt 0.459492 0.377340
vt 0.550814 0.504456
vt 0.582027 0.442800
vt 0.578237 0.425970
vt 0.484760 0.475510
vt 0.498444 0.542081
vt 0.570771 0.377308
vt 0.466016 0.501536
vt 0.543019 0.575905
vt 0.609769 0.543833
vt 0.595414 0.352797
vt 0.563459 0.356475
vt 0.465047 0.368739
vt 0.426073 0.332411
vt 0.543877 0.334719
vt 0.459492 0.442800
vt 0.578237 0.504456
vt 0.582027 0.505118
vt 0.653822 0.377340
vt 0.550814 0.445368
vt 0.648910 0.388156
vt 0.623199 0.425970
vt 0.484760 0.501536
vt 0.543019 0.377308
vt 0.466016 0.368739
vt 0.426073 0.542081
vt 0.570771 0.542080
vt 0.658516 0.543833
vt 0.595414 0.575905
vt 0.609769 0.567724
vt 0.673133 0.599433
vt 0.705024 0.475510
vt 0.498444 0.442800
vt 0.578237 0.504456
vt 0.582027 0.377340
vt 0.550814 0.425970
vt 0.484760 0.501536
vt 0.543019 0.377308
vt 0.466016 0.368739
vt 0.426073 0.542081
vt 0.570771 0.575905
vt 0.609769 0.543833
vt 0.595414 0.475510
vt 0.498444 1.000000
vt 0.596070 0.441132
vt 0.610515 0.438882
vt 0.754724 0.873565
vt 0.491558 0.642143
vt 0.736004 0.836772
vt 0.638014 0.708133
vt 0.239816 0.451068
vt 0.461852 0.873674
vt 0.168382 0.919425
vt 0.016153 0.304424
vt 0.597901 0.351784
vt 0.795912 0.320364
vt 0.690349 0.232018
vt 0.761057 0.284795
vt 0.861244 0.189789
vt 0.991914 0.539605
vt 0.291969 0.916290
vt 0.717406 0.948173
vt 0.539750 0.935660
vt 0.164689 0.968792
vt 0.608791 0.981978
vt 0.465120 0.968525
vt 0.143516 0.650879
vt 0.596066 0.441132
vt 0.610510 0.873565
vt 0.491553 0.708132
vt 0.239810 0.451068
vt 0.461848 0.873674
vt 0.168375 0.902823
vt 0.016147 0.309722
vt 0.620573 0.232018
vt 0.761056 0.320363
vt 0.690346 0.539605
vt 0.291962 0.948173
vt 0.539746 0.935660
vt 0.164683 0.981978
vt 0.465116 0.974126
vt 0.143510 0.631290
vt 0.307312 0.603452
vt 0.526134 0.399647
vt 0.468751 0.358527
vt 0.605426 0.843932
vt 0.502067 0.557306
vt 0.656534 0.769283
vt 0.629167 0.754305
vt 0.206024 0.449297
vt 0.330437 0.931381
vt 0.194100 1.000000
vt 0.069659 0.289257
vt 0.384448 0.233853
vt 0.579820 0.258192
vt 0.471936 0.139421
vt 0.487065 0.135657
vt 0.603322 0.000000
vt 0.682566 0.579593
vt 0.198561 0.603452
vt 0.526130 0.399647
vt 0.468747 0.843932
vt 0.502062 0.754304
vt 0.206018 0.449297
vt 0.330432 0.931381
vt 0.194093 1.000000
vt 0.069652 0.282808
vt 0.406743 0.139421
vt 0.487064 0.258192
vt 0.471934 0.579593
vt 0.198555 0.596511
vt 0.250434 0.438882
vt 0.754724 0.642143
vt 0.736004 0.836772
vt 0.638014 0.351784
vt 0.795912 0.284795
vt 0.861244 0.189789
vt 0.991914 0.916290
vt 0.717406 0.968792
vt 0.608791 0.304424
vt 0.597901 0.631290
vt 0.307312 0.451068
vt 0.461852 0.232018
vt 0.761057 0.189789
vt 0.991914 0.539605
vt 0.291969 0.708133
vt 0.239816 0.981978
vt 0.465120 0.631290
vt 0.307312 0.968792
vt 0.608791 0.968525
vt 0.143516 0.919425
vt 0.016153 0.631290
vt 0.307312 0.451068
vt 0.461848 0.631290
vt 0.307312 0.309722
vt 0.620573 0.232018
vt 0.761056 0.189789
vt 0.991914 0.539605
vt 0.291962 0.708132
vt 0.239810 0.968792
vt 0.608791 0.631290
vt 0.307312 0.981978
vt 0.465116 0.974126
vt 0.143510 0.902823
vt 0.016147 0.358527
vt 0.605426 0.557306
vt 0.656534 0.769283
vt 0.629167 0.233853
vt 0.579820 0.135657
vt 0.603322 0.000000
vt 0.682566 0.843932
vt 0.502067 0.769283
vt 0.629167 1.000000
vt 0.069659 0.931381
vt 0.194100 0.596511
vt 0.250434 0.596511
vt 0.250434 0.139421
vt 0.487065 0.596511
vt 0.250434 0.289257
vt 0.384448 0.000000
vt 0.682566 0.579593
vt 0.198561 0.596511
vt 0.250434 0.754305
vt 0.206024 0.449297
vt 0.330437 0.769283
vt 0.629167 0.596511
vt 0.250434 0.843932
vt 0.502062 0.596511
vt 0.250434 0.931381
vt 0.194093 1.000000
vt 0.069652 0.596511
vt 0.250434 0.282808
vt 0.406743 0.596511
vt 0.250434 0.139421
vt 0.487064 0.000000
vt 0.682566 0.579593
vt 0.198555 0.596511
vt 0.250434 0.449297
vt 0.330432 0.754304
vt 0.206018 1.000000
vt 0.623199 0.377340
vt 0.550814 0.504456
vt 0.582027 0.505118
vt 0.653822 0.445368
vt 0.648910 0.442800
vt 0.578237 0.425970
vt 0.484760 0.475510
vt 0.498444 0.542081
vt 0.570771 0.599433
vt 0.705024 0.377308
vt 0.466016 0.501536
vt 0.543019 0.542080
vt 0.658516 0.567724
vt 0.673133 0.575905
vt 0.609769 0.543833
vt 0.595414 0.362169
vt 0.644031 0.352797
vt 0.563459 0.356475
vt 0.465047 0.368739
vt 0.426073 0.339083
vt 0.615531 0.332411
vt 0.543877 0.334719
vt 0.459492 0.377340
vt 0.550814 0.504456
vt 0.582027 0.442800
vt 0.578237 0.425970
vt 0.484760 0.475510
vt 0.498444 0.542081
vt 0.570771 0.377308
vt 0.466016 0.501536
vt 0.543019 0.575905
vt 0.609769 0.543833
vt 0.595414 0.352797
vt 0.563459 0.356475
vt 0.465047 0.368739
vt 0.426073 0.332411
vt 0.543877 0.334719
vt 0.459492 0.442800
vt 0.578237 0.504456
vt 0.582027 0.505118
vt 0.653822 0.377340
vt 0.550814 0.445368
vt 0.648910 0.388156
vt 0.623199 0.425970
vt 0.484760 0.501536
vt 0.543019 0.377308
vt 0.466016 0.368739
vt 0.426073 0.542081
vt 0.570771 0.542080
vt 0.658516 0.543833
vt 0.595414 0.575905
vt 0.609769 0.567724
vt 0.673133 0.599433
vt 0.705024 0.475510
vt 0.498444 0.442800
vt 0.578237 0.504456
vt 0.582027 0.377340
vt 0.550814 0.425970
vt 0.484760 0.501536
vt 0.543019 0.377308
vt 0.466016 0.368739
vt 0.426073 0.542081
vt 0.570771 0.575905
vt 0.609769 0.543833
vt 0.595414 0.475510
vt 0.498444 1.000000
vt 0.780485 0.519423
vt 0.830917 0.818791
vt 0.706309 0.381518
vt 0.814532 0.381510
vt 0.870621 0.244920
vt 0.837700 0.265173
vt 0.773267 0.804877
vt 0.600647 0.818793
vt 0.751336 0.950261
vt 0.611308 0.950266
vt 0.712743 0.818791
vt 0.718806 0.950261
vt 0.559312 0.818787
vt 0.612801 0.818787
vt 0.560673 0.950260
vt 0.741607 0.950265
vt 0.699619 0.950267
vt 0.597750 0.776311
vt 0.552798 0.950267
vt 0.488224 0.518655
vt 0.591369 0.950264
vt 0.488224 0.950261
vt 0.488224 0.740512
vt 0.488224 0.200632
vt 0.909289 0.244335
vt 0.899438 0.818787
vt 0.488224 0.518655
vt 0.795798 0.393150
vt 0.826384 0.518655
vt 0.609533 0.518655
vt 0.703593 0.518655
vt 0.488224 0.478765
vt 0.546579 0.416111
vt 0.488224 0.496760
vt 0.597126 0.411210
vt 0.721977 0.265677
vt 0.846099 0.278703
vt 0.764146 0.424461
vt 0.606698 0.368773
vt 0.736710 0.401938
vt 0.684467 0.070925
vt 0.884506 0.026637
vt 0.956096 0.091682
vt 0.892905 0.157923
vt 0.861103 0.178199
vt 0.819371 0.113634
vt 0.932692 0.191729
vt 0.810250 0.178680
vt 0.869502 0.518655
vt 0.195963 0.519423
vt 0.145532 0.818791
vt 0.270140 0.381518
vt 0.161917 0.381510
vt 0.105828 0.244920
vt 0.138749 0.265173
vt 0.203182 0.804877
vt 0.375801 0.818793
vt 0.225113 0.950261
vt 0.365140 0.950266
vt 0.263706 0.818791
vt 0.257643 0.950261
vt 0.417137 0.818787
vt 0.363648 0.818787
vt 0.415776 0.950260
vt 0.234842 0.950265
vt 0.276830 0.950267
vt 0.378698 0.776311
vt 0.423651 0.518655
vt 0.385079 0.200632
vt 0.067159 0.244335
vt 0.077011 0.518655
vt 0.180650 0.393150
vt 0.150065 0.518655
vt 0.366915 0.518655
vt 0.272855 0.478765
vt 0.429870 0.496760
vt 0.379322 0.411210
vt 0.254472 0.265677
vt 0.130350 0.278703
vt 0.212303 0.424461
vt 0.369750 0.368773
vt 0.239739 0.401938
vt 0.291982 0.070925
vt 0.091943 0.026637
vt 0.020353 0.091682
vt 0.083544 0.157923
vt 0.115346 0.178199
vt 0.157078 0.113634
vt 0.043756 0.191729
vt 0.166199 0.178680
vt 0.106947 0.818793
vt 0.751336 0.950260
vt 0.741607 0.950265
vt 0.699619 0.950264
vt 0.488224 0.950260
vt 0.741607 0.950267
vt 0.597750 0.950260
vt 0.741607 0.950264
vt 0.488224 0.950266
vt 0.712743 0.519423
vt 0.830917 0.381510
vt 0.870621 0.244335
vt 0.899438 0.200632
vt 0.909289 0.950267
vt 0.488224 0.113634
vt 0.932692 0.026637
vt 0.956096 0.818793
vt 0.225113 0.950260
vt 0.234842 0.950265
vt 0.276830 0.950260
vt 0.234842 0.950267
vt 0.378698 0.950260
vt 0.234842 0.950266
vt 0.263706 0.950264
vt 0.488224 0.519423
vt 0.145532 0.381510
vt 0.105828 0.244335
vt 0.077011 0.200632
vt 0.067159 0.113634
vt 0.043756 0.026637
vt 0.020353 1.000000

f 9/9 10/10 8/8
f 10/10 13/13 17/17
f 17/17 18/18 10/10
f 9/9 11/11 13/13
f 9/9 13/13 10/10
f 12/12 9/9 8/8
f 15/15 14/14 12/12
f 12/12 16/16 15/15
f 11/11 9/9 14/14
f 14/14 9/9 12/12
f 27/27 25/25 26/26
f 55/55 26/26 25/25
f 25/25 54/54 55/55
f 49/49 55/55 24/24
f 26/26 28/28 27/27
f 27/27 40/40 25/25
f 23/23 34/34 32/32
f 39/39 32/32 36/36
f 36/36 41/41 39/39
f 40/40 30/30 31/31
f 30/30 40/40 27/27
f 30/30 28/28 33/33
f 23/23 419/419 34/34
f 115/115 33/33 35/35
f 30/30 27/27 28/28
f 34/34 419/419 420/420
f 39/39 23/23 32/32
f 35/35 28/28 29/29
f 29/29 28/28 26/26
f 215/215 421/421 422/422
f 215/215 4/4 423/423
f 423/423 421/421 215/215
f 215/215 424/424 425/425
f 215/215 425/425 426/426
f 215/215 422/422 424/424
f 35/35 214/214 115/115
f 33/33 28/28 35/35
f 38/38 42/42 24/24
f 36/36 427/427 3/3
f 3/3 41/41 36/36
f 428/428 429/429 37/37
f 56/56 430/430 428/428
f 428/428 37/37 56/56
f 39/39 37/37 429/429
f 431/431 429/429 428/428
f 39/39 41/41 46/46
f 39/39 46/46 43/43
f 43/43 37/37 39/39
f 3/3 2/2 46/46
f 46/46 41/41 3/3
f 2/2 45/45 46/46
f 2/2 216/216 45/45
f 44/44 46/46 45/45
f 50/50 43/43 46/46
f 53/53 52/52 56/56
f 47/47 29/29 26/26
f 52/52 432/432 433/433
f 26/26 55/55 48/48
f 54/54 38/38 24/24
f 24/24 55/55 54/54
f 52/52 433/433 430/430
f 430/430 56/56 52/52
f 37/37 43/43 50/50
f 50/50 56/56 37/37
f 26/26 48/48 51/51
f 51/51 47/47 26/26
f 49/49 48/48 55/55
f 56/56 50/50 53/53
f 68/68 220/220 218/218
f 60/60 103/103 74/74
f 58/58 102/102 59/59
f 75/75 58/58 70/70
f 71/71 101/101 102/102
f 59/59 102/102 57/57
f 94/94 82/82 74/74
f 74/74 104/104 61/61
f 69/69 72/72 73/73
f 434/434 69/69 73/73
f 71/71 76/76 72/72
f 76/76 71/71 95/95
f 99/99 107/107 108/108
f 105/105 106/106 97/97
f 75/75 80/80 95/95
f 95/95 71/71 75/75
f 89/89 77/77 435/435
f 436/436 72/72 76/76
f 86/86 80/80 96/96
f 79/79 98/98 78/78
f 98/98 79/79 97/97
f 82/82 83/83 74/74
f 76/76 84/84 85/85
f 84/84 76/76 95/95
f 80/80 84/84 95/95
f 84/84 80/80 86/86
f 96/96 88/88 86/86
f 435/435 76/76 85/85
f 91/91 81/81 437/437
f 81/81 91/91 90/90
f 87/87 85/85 84/84
f 85/85 87/87 89/89
f 86/86 87/87 84/84
f 87/87 86/86 88/88
f 93/93 62/62 65/65
f 62/62 93/93 438/438
f 439/439 92/92 440/440
f 92/92 439/439 441/441
f 437/437 92/92 91/91
f 92/92 437/437 440/440
f 442/442 88/88 96/96
f 66/66 90/90 64/64
f 90/90 66/66 443/443
f 90/90 443/443 81/81
f 435/435 85/85 89/89
f 443/443 66/66 444/444
f 100/100 444/444 66/66
f 438/438 93/93 445/445
f 446/446 82/82 68/68
f 94/94 68/68 82/82
f 438/438 444/444 62/62
f 67/67 64/64 90/90
f 90/90 91/91 67/67
f 67/67 91/91 92/92
f 92/92 63/63 67/67
f 63/63 92/92 441/441
f 441/441 447/447 63/63
f 103/103 94/94 74/74
f 5/5 57/57 69/69
f 70/70 58/58 104/104
f 69/69 71/71 72/72
f 71/71 69/69 101/101
f 448/448 5/5 434/434
f 74/74 61/61 60/60
f 97/97 79/79 442/442
f 105/105 80/80 75/75
f 99/99 449/449 98/98
f 83/83 70/70 104/104
f 5/5 6/6 57/57
f 69/69 434/434 5/5
f 94/94 103/103 220/220
f 94/94 220/220 68/68
f 97/97 442/442 96/96
f 105/105 75/75 70/70
f 82/82 106/106 83/83
f 106/106 70/70 83/83
f 449/449 78/78 98/98
f 106/106 82/82 107/107
f 72/72 436/436 73/73
f 446/446 108/108 82/82
f 62/62 444/444 100/100
f 101/101 57/57 102/102
f 101/101 69/69 57/57
f 102/102 75/75 71/71
f 58/58 75/75 102/102
f 103/103 217/217 220/220
f 217/217 103/103 60/60
f 83/83 104/104 74/74
f 104/104 58/58 61/61
f 96/96 80/80 105/105
f 96/96 105/105 97/97
f 105/105 70/70 106/106
f 107/107 97/97 106/106
f 97/97 107/107 98/98
f 99/99 98/98 107/107
f 108/108 107/107 82/82
f 76/76 435/435 436/436
f 219/219 112/112 57/57
f 57/57 112/112 59/59
f 6/6 219/219 57/57
f 59/59 109/109 58/58
f 111/111 58/58 109/109
f 61/61 113/113 60/60
f 110/110 60/60 113/113
f 60/60 110/110 7/7
f 7/7 217/217 60/60
f 58/58 111/111 113/113
f 113/113 61/61 58/58
f 109/109 59/59 112/112
f 467/467 167/167 168/168
f 468/468 469/469 470/470
f 469/469 468/468 169/169
f 170/170 169/169 471/471
f 472/472 473/473 171/171
f 172/172 170/170 471/471
f 471/471 474/474 172/172
f 168/168 171/171 473/473
f 475/475 172/172 474/474
f 198/198 475/475 171/171
f 472/472 171/171 475/475
f 161/161 162/162 469/469
f 469/469 169/169 161/161
f 476/476 163/163 167/167
f 168/168 167/167 163/163
f 164/164 161/161 170/170
f 169/169 170/170 161/161
f 172/172 164/164 170/170
f 164/164 172/172 165/165
f 163/163 166/166 171/171
f 171/171 168/168 163/163
f 165/165 172/172 198/198
f 166/166 165/165 198/198
f 468/468 471/471 169/169
f 476/476 173/173 163/163
f 184/184 163/163 173/173
f 477/477 162/162 174/174
f 161/161 174/174 162/162
f 166/166 175/175 182/182
f 182/182 165/165 166/166
f 164/164 165/165 182/182
f 182/182 176/176 164/164
f 163/163 184/184 175/175
f 175/175 166/166 163/163
f 174/174 161/161 164/164
f 164/164 176/176 174/174
f 197/197 204/204 196/196
f 196/196 187/187 185/185
f 192/192 201/201 478/478
f 478/478 479/479 192/192
f 174/174 191/191 480/480
f 194/194 189/189 195/195
f 182/182 186/186 189/189
f 191/191 174/174 176/176
f 182/182 189/189 176/176
f 181/181 200/200 199/199
f 199/199 183/183 181/181
f 196/196 203/203 202/202
f 202/202 195/195 196/196
f 187/187 196/196 186/186
f 185/185 187/187 188/188
f 174/174 480/480 477/477
f 182/182 175/175 186/186
f 188/188 186/186 175/175
f 188/188 173/173 185/185
f 175/175 184/184 188/188
f 188/188 187/187 186/186
f 188/188 184/184 173/173
f 199/199 202/202 180/180
f 180/180 183/183 199/199
f 190/190 176/176 189/189
f 176/176 190/190 191/191
f 191/191 192/192 479/479
f 192/192 191/191 193/193
f 201/201 179/179 177/177
f 179/179 201/201 200/200
f 200/200 181/181 179/179
f 193/193 190/190 189/189
f 190/190 193/193 191/191
f 202/202 194/194 195/195
f 189/189 194/194 193/193
f 195/195 186/186 196/196
f 195/195 189/189 186/186
f 203/203 196/196 204/204
f 479/479 480/480 191/191
f 185/185 197/197 196/196
f 166/166 198/198 171/171
f 172/172 475/475 198/198
f 194/194 199/199 193/193
f 202/202 199/199 194/194
f 200/200 193/193 199/199
f 193/193 200/200 192/192
f 201/201 192/192 200/200
f 180/180 202/202 203/203
f 203/203 178/178 180/180
f 203/203 204/204 481/481
f 481/481 178/178 203/203
f 177/177 478/478 201/201
f 467/467 168/168 473/473
f 222/222 221/221 223/223
f 223/223 230/230 226/226
f 230/230 223/223 231/231
f 222/222 226/226 224/224
f 222/222 223/223 226/226
f 225/225 221/221 222/222
f 228/228 225/225 227/227
f 225/225 228/228 229/229
f 224/224 227/227 222/222
f 227/227 225/225 222/222
f 240/240 239/239 238/238
f 267/267 238/238 239/239
f 238/238 267/267 266/266
f 261/261 237/237 267/267
f 239/239 240/240 241/241
f 240/240 238/238 252/252
f 236/236 245/245 246/246
f 251/251 248/248 245/245
f 248/248 251/251 253/253
f 252/252 244/244 243/243
f 243/243 240/240 252/252
f 243/243 337/337 241/241
f 236/236 246/246 486/486
f 487/487 247/247 337/337
f 243/243 241/241 240/240
f 246/246 488/488 486/486
f 251/251 245/245 236/236
f 247/247 242/242 241/241
f 242/242 239/239 241/241
f 489/489 490/490 491/491
f 489/489 492/492 493/493
f 492/492 489/489 491/491
f 489/489 494/494 495/495
f 489/489 496/496 494/494
f 489/489 495/495 490/490
f 247/247 487/487 497/497
f 337/337 247/247 241/241
f 250/250 237/237 254/254
f 248/248 498/498 499/499
f 498/498 248/248 253/253
f 500/500 249/249 501/501
f 268/268 500/500 502/502
f 500/500 268/268 249/249
f 251/251 501/501 249/249
f 503/503 500/500 501/501
f 251/251 258/258 253/253
f 251/251 255/255 258/258
f 255/255 251/251 249/249
f 498/498 258/258 504/504
f 258/258 498/498 253/253
f 504/504 258/258 257/257
f 504/504 257/257 505/505
f 256/256 257/257 258/258
f 262/262 258/258 255/255
f 265/265 268/268 264/264
f 259/259 239/239 242/242
f 264/264 506/506 507/507
f 239/239 260/260 267/267
f 266/266 237/237 250/250
f 237/237 266/266 267/267
f 264/264 502/502 506/506
f 502/502 264/264 268/268
f 249/249 262/262 255/255
f 262/262 249/249 268/268
f 239/239 263/263 260/260
f 263/263 239/239 259/259
f 261/261 267/267 260/260
f 268/268 265/265 262/262
f 280/280 508/508 509/509
f 272/272 286/286 315/315
f 270/270 271/271 314/314
f 287/287 282/282 270/270
f 283/283 314/314 313/313
f 271/271 269/269 314/314
f 306/306 286/286 294/294
f 286/286 273/273 316/316
f 281/281 285/285 284/284
f 510/510 285/285 281/281
f 283/283 284/284 288/288
f 288/288 307/307 283/283
f 311/311 320/320 319/319
f 317/317 309/309 318/318
f 287/287 307/307 292/292
f 307/307 287/287 283/283
f 301/301 511/511 289/289
f 512/512 288/288 284/284
f 298/298 308/308 292/292
f 291/291 290/290 310/310
f 310/310 309/309 291/291
f 294/294 286/286 295/295
f 288/288 297/297 296/296
f 296/296 307/307 288/288
f 292/292 307/307 296/296
f 296/296 298/298 292/292
f 308/308 298/298 300/300
f 511/511 297/297 288/288
f 303/303 513/513 293/293
f 293/293 302/302 303/303
f 299/299 296/296 297/297
f 297/297 301/301 299/299
f 298/298 296/296 299/299
f 299/299 300/300 298/298
f 305/305 277/277 274/274
f 274/274 514/514 305/305
f 515/515 516/516 304/304
f 304/304 517/517 515/515
f 513/513 303/303 304/304
f 304/304 516/516 513/513
f 518/518 308/308 300/300
f 278/278 276/276 302/302
f 302/302 519/519 278/278
f 302/302 293/293 519/519
f 511/511 301/301 297/297
f 519/519 520/520 278/278
f 312/312 278/278 520/520
f 514/514 521/521 305/305
f 522/522 280/280 294/294
f 306/306 294/294 280/280
f 514/514 274/274 520/520
f 279/279 302/302 276/276
f 302/302 279/279 303/303
f 279/279 304/304 303/303
f 304/304 279/279 275/275
f 275/275 517/517 304/304
f 517/517 275/275 523/523
f 315/315 286/286 306/306
f 524/524 281/281 269/269
f 282/282 316/316 270/270
f 281/281 284/284 283/283
f 283/283 313/313 281/281
f 525/525 510/510 524/524
f 286/286 272/272 273/273
f 309/309 518/518 291/291
f 317/317 287/287 292/292
f 311/311 310/310 526/526
f 295/295 316/316 282/282
f 524/524 269/269 527/527
f 281/281 524/524 510/510
f 306/306 509/509 315/315
f 306/306 280/280 509/509
f 309/309 308/308 518/518
f 317/317 282/282 287/287
f 294/294 295/295 318/318
f 318/318 295/295 282/282
f 526/526 310/310 290/290
f 318/318 319/319 294/294
f 284/284 285/285 512/512
f 522/522 294/294 320/320
f 274/274 312/312 520/520
f 313/313 314/314 269/269
f 313/313 269/269 281/281
f 314/314 283/283 287/287
f 270/270 314/314 287/287
f 315/315 509/509 528/528
f 528/528 272/272 315/315
f 295/295 286/286 316/316
f 316/316 273/273 270/270
f 308/308 317/317 292/292
f 308/308 309/309 317/317
f 317/317 318/318 282/282
f 319/319 318/318 309/309
f 309/309 310/310 319/319
f 311/311 319/319 310/310
f 320/320 294/294 319/319
f 288/288 512/512 511/511
f 529/529 269/269 324/324
f 269/269 271/271 324/324
f 527/527 269/269 529/529
f 271/271 270/270 321/321
f 323/323 321/321 270/270
f 273/273 272/272 325/325
f 322/322 325/325 272/272
f 272/272 530/530 322/322
f 530/530 272/272 528/528
f 270/270 325/325 323/323
f 325/325 270/270 273/273
f 321/321 324/324 271/271
f 562/562 376/376 375/375
f 563/563 564/564 565/565
f 565/565 377/377 563/563
f 378/378 566/566 377/377
f 567/567 379/379 568/568
f 380/380 566/566 378/378
f 566/566 380/380 569/569
f 376/376 568/568 379/379
f 570/570 569/569 380/380
f 406/406 379/379 570/570
f 567/567 570/570 379/379
f 369/369 565/565 370/370
f 565/565 369/369 377/377
f 571/571 375/375 371/371
f 376/376 371/371 375/375
f 372/372 378/378 369/369
f 377/377 369/369 378/378
f 380/380 378/378 372/372
f 372/372 373/373 380/380
f 371/371 379/379 374/374
f 379/379 371/371 376/376
f 373/373 406/406 380/380
f 374/374 406/406 373/373
f 563/563 377/377 566/566
f 571/571 371/371 381/381
f 392/392 381/381 371/371
f 572/572 382/382 370/370
f 369/369 370/370 382/382
f 374/374 390/390 383/383
f 390/390 374/374 373/373
f 372/372 390/390 373/373
f 390/390 372/372 384/384
f 371/371 383/383 392/392
f 383/383 371/371 374/374
f 382/382 372/372 369/369
f 372/372 382/382 384/384
f 405/405 404/404 412/412
f 404/404 393/393 395/395
f 400/400 573/573 409/409
f 573/573 400/400 574/574
f 382/382 575/575 399/399
f 402/402 403/403 397/397
f 390/390 397/397 394/394
f 399/399 384/384 382/382
f 390/390 384/384 397/397
f 389/389 407/407 408/408
f 407/407 389/389 391/391
f 404/404 410/410 411/411
f 410/410 404/404 403/403
f 395/395 394/394 404/404
f 393/393 396/396 395/395
f 382/382 572/572 575/575
f 390/390 394/394 383/383
f 396/396 383/383 394/394
f 396/396 393/393 381/381
f 383/383 396/396 392/392
f 396/396 394/394 395/395
f 396/396 381/381 392/392
f 407/407 388/388 410/410
f 388/388 407/407 391/391
f 398/398 397/397 384/384
f 384/384 399/399 398/398
f 399/399 574/574 400/400
f 400/400 401/401 399/399
f 409/409 385/385 387/387
f 387/387 408/408 409/409
f 408/408 387/387 389/389
f 401/401 397/397 398/398
f 398/398 399/399 401/401
f 410/410 403/403 402/402
f 397/397 401/401 402/402
f 403/403 404/404 394/394
f 403/403 394/394 397/397
f 411/411 412/412 404/404
f 574/574 399/399 575/575
f 393/393 404/404 405/405
f 374/374 379/379 406/406
f 380/380 406/406 570/570
f 402/402 401/401 407/407
f 410/410 402/402 407/407
f 408/408 407/407 401/401
f 401/401 400/400 408/408
f 409/409 408/408 400/400
f 388/388 411/411 410/410
f 411/411 388/388 386/386
f 411/411 576/576 412/412
f 576/576 411/411 386/386
f 385/385 409/409 573/573
f 562/562 568/568 376/376
f 21/21 19/19 20/20
f 19/19 21/21 20/20
f 21/21 1/1 211/211
f 1/1 21/21 19/19
f 19/19 212/212 132/132
f 131/131 129/129 125/125
f 129/129 121/121 126/126
f 126/126 124/124 127/127
f 450/450 130/130 451/451
f 126/126 452/452 453/453
f 116/116 130/130 127/127
f 124/124 450/450 130/130
f 450/450 453/453 121/121
f 122/122 125/125 452/452
f 126/126 128/128 125/125
f 132/132 129/129 140/140
f 127/127 130/130 330/330
f 145/145 136/136 138/138
f 143/143 134/134 206/206
f 149/149 205/205 131/131
f 157/157 129/129 327/327
f 145/145 330/330 152/152
f 144/144 205/205 209/209
f 209/209 133/133 207/207
f 455/455 138/138 137/137
f 133/133 144/144 137/137
f 151/151 139/139 153/153
f 129/129 157/157 138/138
f 208/208 207/207 328/328
f 141/141 139/139 116/116
f 119/119 130/130 137/137
f 144/144 152/152 117/117
f 140/140 119/119 135/135
f 127/127 140/140 141/141
f 133/133 137/137 130/130
f 119/119 140/140 136/136
f 326/326 136/136 153/153
f 121/121 129/129 329/329
f 326/326 155/155 328/328
f 139/139 114/114 154/154
f 142/142 454/454 456/456
f 143/143 138/138 139/139
f 141/141 137/137 133/133
f 154/154 454/454 152/152
f 151/151 137/137 209/209
f 144/144 133/133 208/208
f 208/208 136/136 326/326
f 330/330 136/136 135/135
f 149/149 128/128 154/154
f 146/146 154/154 456/456
f 143/143 456/456 457/457
f 142/142 154/154 143/143
f 329/329 143/143 118/118
f 458/458 459/459 118/118
f 460/460 458/458 118/118
f 461/461 460/460 117/117
f 151/151 140/140 127/127
f 135/135 128/128 150/150
f 128/128 149/149 157/157
f 462/462 156/156 149/149
f 206/206 150/150 114/114
f 139/139 117/117 151/151
f 117/117 139/139 135/135
f 140/140 152/152 151/151
f 152/152 140/140 135/135
f 149/149 135/135 463/463
f 208/208 156/156 327/327
f 121/121 153/153 145/145
f 145/145 327/327 128/128
f 150/150 452/452 457/457
f 154/154 146/146 133/133
f 141/141 154/154 329/329
f 155/155 134/134 156/156
f 462/462 463/463 153/153
f 131/131 462/462 160/160
f 158/158 141/141 160/160
f 146/146 158/158 141/141
f 159/159 146/146 118/118
f 459/459 464/464 118/118
f 464/464 465/465 118/118
f 465/465 466/466 235/235
f 232/232 234/234 233/233
f 234/234 232/232 233/233
f 482/482 234/234 483/483
f 234/234 482/482 232/232
f 485/485 232/232 340/340
f 336/336 339/339 332/332
f 531/531 336/336 333/333
f 331/331 333/333 334/334
f 338/338 532/532 533/533
f 534/534 333/333 535/535
f 338/338 536/536 334/334
f 532/532 331/331 338/338
f 535/535 532/532 531/531
f 332/332 537/537 534/534
f 335/335 333/333 332/332
f 336/336 340/340 348/348
f 338/338 334/334 538/538
f 344/344 353/353 346/346
f 342/342 351/351 414/414
f 413/413 357/357 339/339
f 336/336 365/365 539/539
f 538/538 353/353 360/360
f 413/413 352/352 417/417
f 341/341 417/417 415/415
f 346/346 541/541 345/345
f 352/352 341/341 345/345
f 347/347 359/359 361/361
f 365/365 336/336 346/346
f 415/415 416/416 542/542
f 347/347 349/349 536/536
f 338/338 543/543 345/345
f 360/360 352/352 544/544
f 543/543 348/348 343/343
f 348/348 334/334 349/349
f 345/345 341/341 338/338
f 348/348 543/543 344/344
f 344/344 545/545 361/361
f 336/336 531/531 546/546
f 363/363 545/545 542/542
f 547/547 347/347 362/362
f 540/540 350/350 548/548
f 346/346 351/351 347/347
f 345/345 349/349 341/341
f 540/540 362/362 360/360
f 345/345 359/359 417/417
f 341/341 352/352 416/416
f 344/344 416/416 545/545
f 344/344 538/538 343/343
f 335/335 357/357 362/362
f 362/362 354/354 548/548
f 548/548 351/351 549/549
f 362/362 350/350 351/351
f 351/351 546/546 551/551
f 552/552 553/553 551/551
f 553/553 554/554 551/551
f 554/554 555/555 544/544
f 348/348 359/359 334/334
f 335/335 343/343 358/358
f 357/357 335/335 365/365
f 364/364 556/556 357/357
f 358/358 414/414 547/547
f 544/544 347/347 359/359
f 347/347 544/544 343/343
f 360/360 348/348 359/359
f 348/348 360/360 343/343
f 343/343 357/357 557/557
f 364/364 416/416 539/539
f 361/361 531/531 353/353
f 539/539 353/353 335/335
f 534/534 358/358 549/549
f 354/354 362/362 341/341
f 362/362 349/349 546/546
f 342/342 363/363 364/364
f 557/557 556/556 361/361
f 556/556 339/339 368/368
f 349/349 366/366 368/368
f 366/366 354/354 349/349
f 354/354 367/367 551/551
f 559/559 552/552 551/551
f 560/560 559/559 551/551
f 578/578 579/579 577/577
f 581/581 582/582 580/580
f 580/580 577/577 581/581
f 577/577 580/580 583/583
f 583/583 584/584 577/577
f 586/586 583/583 585/585
f 580/580 585/585 583/583
f 578/578 584/584 587/587
f 578/578 577/577 584/584
f 581/581 577/577 579/579
f 589/589 590/590 588/588
f 591/591 588/588 590/590
f 590/590 589/589 587/587
f 592/592 591/591 590/590
f 587/587 589/589 578/578
f 579/579 578/578 588/588
f 589/589 588/588 578/578
f 593/593 584/584 583/583
f 582/582 594/594 580/580
f 595/595 580/580 594/594
f 580/580 595/595 585/585
f 596/596 585/585 595/595
f 596/596 586/586 585/585
f 594/594 597/597 595/595
f 598/598 595/595 597/597
f 595/595 598/598 596/596
f 599/599 596/596 598/598
f 599/599 586/586 596/596
f 645/645 601/601 600/600
f 646/646 647/647 602/602
f 600/600 602/602 647/647
f 602/602 600/600 603/603
f 604/604 603/603 600/600
f 603/603 606/606 605/605
f 605/605 602/602 603/603
f 604/604 601/601 607/607
f 600/600 601/601 604/604
f 600/600 647/647 645/645
f 648/648 608/608 649/649
f 609/609 649/649 608/608
f 609/609 608/608 607/607
f 648/648 650/650 608/608
f 609/609 607/607 601/601
f 609/609 601/601 649/649
f 645/645 649/649 601/601
f 604/604 610/610 603/603
f 611/611 651/651 602/602
f 646/646 602/602 651/651
f 612/612 611/611 605/605
f 602/602 605/605 611/611
f 606/606 612/612 605/605
f 613/613 652/652 611/611
f 651/651 611/611 652/652
f 614/614 613/613 612/612
f 611/611 612/612 613/613
f 606/606 614/614 612/612
f 586/586 615/615 583/583
f 653/653 654/654 655/655
f 655/655 654/654 656/656
f 656/656 654/654 657/657
f 658/658 654/654 659/659
f 659/659 654/654 653/653
f 660/660 661/661 662/662
f 662/662 661/661 663/663
f 663/663 661/661 664/664
f 603/603 665/665 606/606
f 666/666 667/667 668/668
f 669/669 667/667 666/666
f 670/670 667/667 669/669
f 668/668 667/667 671/671
f 671/671 667/667 672/672
f 673/673 674/674 675/675
f 676/676 674/674 673/673
f 677/677 674/674 676/676
f 617/617 618/618 616/616
f 620/620 621/621 619/619
f 619/619 616/616 620/620
f 616/616 619/619 622/622
f 622/622 623/623 616/616
f 625/625 622/622 624/624
f 619/619 624/624 622/622
f 617/617 623/623 626/626
f 617/617 616/616 623/623
f 620/620 616/616 618/618
f 628/628 629/629 627/627
f 630/630 627/627 629/629
f 629/629 628/628 626/626
f 631/631 630/630 629/629
f 626/626 628/628 617/617
f 618/618 617/617 627/627
f 628/628 627/627 617/617
f 632/632 623/623 622/622
f 678/678 634/634 633/633
f 679/679 680/680 635/635
f 633/633 635/635 680/680
f 635/635 633/633 636/636
f 637/637 636/636 633/633
f 636/636 639/639 638/638
f 638/638 635/635 636/636
f 637/637 634/634 640/640
f 633/633 634/634 637/637
f 633/633 680/680 678/678
f 681/681 641/641 682/682
f 642/642 682/682 641/641
f 642/642 641/641 640/640
f 681/681 683/683 641/641
f 642/642 640/640 634/634
f 642/642 634/634 682/682
f 678/678 682/682 634/634
f 637/637 643/643 636/636
f 684/684 644/644 685/685
f 686/686 644/644 687/687
f 625/625 688/688 622/622
f 685/685 644/644 686/686
f 623/623 689/689 626/626
f 690/690 691/691 692/692
f 692/692 691/691 693/693
f 694/694 695/695 696/696
f 696/696 695/695 697/697
f 698/698 699/699 700/700
f 636/636 701/701 639/639
f 702/702 699/699 703/703
f 703/703 699/699 698/698
f 640/640 704/704 637/637
f 705/705 706/706 707/707
f 708/708 706/706 705/705
f 709/709 710/710 711/711
f 711/711 710/710 712/712
f 718/718 715/715 716/716
f 714/714 717/717 713/713
f 717/717 714/714 718/718
f 719/719 718/718 714/714
f 718/718 719/719 724/724
f 723/723 732/732 719/719
f 719/719 714/714 723/723
f 721/721 715/715 724/724
f 724/724 715/715 718/718
f 716/716 717/717 718/718
f 725/725 728/728 727/727
f 727/727 726/726 725/725
f 721/721 727/727 728/728
f 727/727 722/722 726/726
f 715/715 721/721 728/728
f 725/725 716/716 715/715
f 715/715 728/728 725/725
f 719/719 720/720 724/724
f 714/714 713/713 729/729
f 729/729 730/730 714/714
f 723/723 714/714 730/730
f 730/730 731/731 723/723
f 723/723 731/731 732/732
f 730/730 729/729 733/733
f 733/733 734/734 730/730
f 731/731 730/730 734/734
f 734/734 735/735 731/731
f 731/731 735/735 732/732
f 738/738 716/716 737/737
f 736/736 713/713 717/717
f 717/717 738/738 736/736
f 739/739 736/736 738/738
f 738/738 743/743 739/739
f 742/742 739/739 748/748
f 739/739 742/742 736/736
f 741/741 743/743 737/737
f 743/743 738/738 737/737
f 716/716 738/738 717/717
f 725/725 726/726 744/744
f 744/744 745/745 725/725
f 741/741 745/745 744/744
f 744/744 726/726 722/722
f 737/737 745/745 741/741
f 725/725 745/745 737/737
f 737/737 716/716 725/725
f 739/739 743/743 740/740
f 736/736 746/746 729/729
f 729/729 713/713 736/736
f 742/742 747/747 746/746
f 746/746 736/736 742/742
f 742/742 748/748 747/747
f 746/746 749/749 733/733
f 733/733 729/729 746/746
f 747/747 750/750 749/749
f 749/749 746/746 747/747
f 747/747 748/748 750/750
f 751/751 752/752 753/753
f 754/754 755/755 756/756
f 755/755 754/754 751/751
f 757/757 751/751 754/754
f 751/751 757/757 758/758
f 759/759 760/760 757/757
f 757/757 754/754 759/759
f 761/761 752/752 758/758
f 758/758 752/752 751/751
f 753/753 755/755 751/751
f 762/762 763/763 764/764
f 764/764 765/765 762/762
f 761/761 764/764 763/763
f 764/764 766/766 765/765
f 752/752 761/761 763/763
f 762/762 753/753 752/752
f 752/752 763/763 762/762
f 757/757 767/767 758/758
f 768/768 753/753 769/769
f 770/770 756/756 755/755
f 755/755 768/768 770/770
f 771/771 770/770 768/768
f 768/768 772/772 771/771
f 773/773 771/771 774/774
f 771/771 773/773 770/770
f 775/775 772/772 769/769
f 772/772 768/768 769/769
f 753/753 768/768 755/755
f 762/762 765/765 776/776
f 776/776 777/777 762/762
f 775/775 777/777 776/776
f 776/776 765/765 766/766
f 769/769 777/777 775/775
f 762/762 777/777 769/769
f 769/769 753/753 762/762
f 771/771 772/772 778/778
f 779/779 781/781 780/780
f 782/782 784/784 783/783
f 783/783 779/779 782/782
f 785/785 782/782 779/779
f 779/779 786/786 785/785
f 787/787 785/785 788/788
f 785/785 787/787 782/782
f 789/789 786/786 780/780
f 786/786 779/779 780/780
f 781/781 779/779 783/783
f 790/790 792/792 791/791
f 792/792 790/790 793/793
f 789/789 791/791 792/792
f 792/792 793/793 794/794
f 780/780 791/791 789/789
f 790/790 780/780 781/781
f 780/780 790/790 791/791
f 785/785 786/786 795/795
f 782/782 796/796 784/784
f 796/796 782/782 797/797
f 787/787 797/797 782/782
f 797/797 787/787 798/798
f 787/787 788/788 798/798
f 797/797 799/799 796/796
f 799/799 797/797 800/800
f 798/798 800/800 797/797
f 800/800 798/798 801/801
f 798/798 788/788 801/801
f 802/802 803/803 847/847
f 804/804 848/848 849/849
f 848/848 804/804 802/802
f 805/805 802/802 804/804
f 802/802 805/805 806/806
f 807/807 808/808 805/805
f 805/805 804/804 807/807
f 809/809 803/803 806/806
f 806/806 803/803 802/802
f 847/847 848/848 802/802
f 850/850 810/810 851/851
f 810/810 850/850 811/811
f 809/809 810/810 811/811
f 810/810 852/852 851/851
f 803/803 809/809 811/811
f 850/850 803/803 811/811
f 803/803 850/850 847/847
f 805/805 812/812 806/806
f 804/804 853/853 813/813
f 853/853 804/804 849/849
f 807/807 813/813 814/814
f 813/813 807/807 804/804
f 807/807 814/814 808/808
f 813/813 854/854 815/815
f 854/854 813/813 853/853
f 814/814 815/815 816/816
f 815/815 814/814 813/813
f 814/814 816/816 808/808
f 785/785 817/817 788/788
f 855/855 856/856 857/857
f 858/858 856/856 855/855
f 859/859 856/856 858/858
f 860/860 856/856 861/861
f 857/857 856/856 860/860
f 862/862 863/863 864/864
f 865/865 863/863 862/862
f 866/866 863/863 865/865
f 808/808 867/867 805/805
f 868/868 869/869 870/870
f 870/870 869/869 871/871
f 871/871 869/869 872/872
f 873/873 869/869 868/868
f 874/874 869/869 873/873
f 875/875 876/876 877/877
f 877/877 876/876 878/878
f 878/878 876/876 879/879
f 818/818 820/820 819/819
f 821/821 823/823 822/822
f 822/822 818/818 821/821
f 824/824 821/821 818/818
f 818/818 825/825 824/824
f 826/826 824/824 827/827
f 824/824 826/826 821/821
f 828/828 825/825 819/819
f 825/825 818/818 819/819
f 820/820 818/818 822/822
f 829/829 831/831 830/830
f 831/831 829/829 832/832
f 828/828 830/830 831/831
f 831/831 832/832 833/833
f 819/819 830/830 828/828
f 829/829 819/819 820/820
f 819/819 829/829 830/830
f 824/824 825/825 834/834
f 835/835 836/836 880/880
f 837/837 881/881 882/882
f 881/881 837/837 835/835
f 838/838 835/835 837/837
f 835/835 838/838 839/839
f 840/840 841/841 838/838
f 838/838 837/837 840/840
f 842/842 836/836 839/839
f 839/839 836/836 835/835
f 880/880 881/881 835/835
f 883/883 843/843 884/884
f 843/843 883/883 844/844
f 842/842 843/843 844/844
f 843/843 885/885 884/884
f 836/836 842/842 844/844
f 883/883 836/836 844/844
f 836/836 883/883 880/880
f 838/838 845/845 839/839
f 886/886 846/846 887/887
f 888/888 846/846 889/889
f 824/824 890/890 827/827
f 889/889 846/846 886/886
f 828/828 891/891 825/825
f 892/892 893/893 894/894
f 895/895 893/893 892/892
f 896/896 897/897 898/898
f 899/899 897/897 896/896
f 900/900 901/901 902/902
f 841/841 903/903 838/838
f 904/904 901/901 905/905
f 902/902 901/901 904/904
f 839/839 906/906 842/842
f 907/907 908/908 909/909
f 909/909 908/908 910/910
f 911/911 912/912 913/913
f 914/914 912/912 911/911
f 920/920 918/918 917/917
f 916/916 915/915 919/919
f 919/919 920/920 916/916
f 921/921 916/916 920/920
f 920/920 926/926 921/921
f 925/925 921/921 934/934
f 921/921 925/925 916/916
f 923/923 926/926 917/917
f 926/926 920/920 917/917
f 918/918 920/920 919/919
f 927/927 929/929 930/930
f 929/929 927/927 928/928
f 923/923 930/930 929/929
f 929/929 928/928 924/924
f 917/917 930/930 923/923
f 927/927 917/917 918/918
f 917/917 927/927 930/930
f 921/921 926/926 922/922
f 916/916 931/931 915/915
f 931/931 916/916 932/932
f 925/925 932/932 916/916
f 932/932 925/925 933/933
f 925/925 934/934 933/933
f 932/932 935/935 931/931
f 935/935 932/932 936/936
f 933/933 936/936 932/932
f 936/936 933/933 937/937
f 933/933 934/934 937/937
f 940/940 939/939 918/918
f 938/938 919/919 915/915
f 919/919 938/938 940/940
f 941/941 940/940 938/938
f 940/940 941/941 945/945
f 944/944 950/950 941/941
f 941/941 938/938 944/944
f 943/943 939/939 945/945
f 945/945 939/939 940/940
f 918/918 919/919 940/940
f 927/927 946/946 928/928
f 946/946 927/927 947/947
f 943/943 946/946 947/947
f 946/946 924/924 928/928
f 939/939 943/943 947/947
f 927/927 939/939 947/947
f 939/939 927/927 918/918
f 941/941 942/942 945/945
f 938/938 931/931 948/948
f 931/931 938/938 915/915
f 944/944 948/948 949/949
f 948/948 944/944 938/938
f 944/944 949/949 950/950
f 948/948 935/935 951/951
f 935/935 948/948 931/931
f 949/949 951/951 952/952
f 951/951 949/949 948/948
f 949/949 952/952 950/950
f 953/953 955/955 954/954
f 956/956 958/958 957/957
f 957/957 953/953 956/956
f 959/959 956/956 953/953
f 953/953 960/960 959/959
f 961/961 959/959 962/962
f 959/959 961/961 956/956
f 963/963 960/960 954/954
f 960/960 953/953 954/954
f 955/955 953/953 957/957
f 964/964 966/966 965/965
f 966/966 964/964 967/967
f 963/963 965/965 966/966
f 966/966 967/967 968/968
f 954/954 965/965 963/963
f 964/964 954/954 955/955
f 954/954 964/964 965/965
f 959/959 960/960 969/969
f 970/970 971/971 955/955
f 972/972 957/957 958/958
f 957/957 972/972 970/970
f 973/973 970/970 972/972
f 970/970 973/973 974/974
f 975/975 976/976 973/973
f 973/973 972/972 975/975
f 977/977 971/971 974/974
f 974/974 971/971 970/970
f 955/955 957/957 970/970
f 964/964 978/978 967/967
f 978/978 964/964 979/979
f 977/977 978/978 979/979
f 978/978 968/968 967/967
f 971/971 977/977 979/979
f 964/964 971/971 979/979
f 971/971 964/964 955/955
f 973/973 980/980 974/974
f 981/981 983/983 982/982
f 982/982 984/984 981/981
f 984/984 982/982 985/985
f 986/986 987/987 984/984
f 983/983 981/981 988/988
f 982/982 983/983 989/989
f 990/990 992/992 991/991
f 993/993 994/994 990/990
f 994/994 993/993 995/995
f 996/996 989/989 997/997
f 983/983 997/997 989/989
f 998/998 997/997 988/988
f 991/991 992/992 1072/1072
f 999/999 1000/1000 998/998
f 988/988 997/997 983/983
f 1073/1073 991/991 1072/1072
f 990/990 994/994 992/992
f 1001/1001 999/999 988/988
f 981/981 1001/1001 988/988
f 991/991 1002/1002 990/990
f 993/993 1002/1002 1003/1003
f 1002/1002 993/993 990/990
f 1074/1074 1075/1075 1076/1076
f 1077/1077 1075/1075 1074/1074
f 1078/1078 1079/1079 1080/1080
f 1000/1000 999/999 1004/1004
f 999/999 998/998 988/988
f 986/986 1006/1006 1005/1005
f 1007/1007 993/993 1003/1003
f 993/993 1007/1007 995/995
f 1008/1008 1081/1081 992/992
f 1081/1081 1009/1009 1082/1082
f 1009/1009 1081/1081 1008/1008
f 992/992 994/994 1008/1008
f 1081/1081 1072/1072 992/992
f 1010/1010 994/994 995/995
f 1011/1011 994/994 1010/1010
f 994/994 1011/1011 1008/1008
f 1010/1010 1007/1007 1012/1012
f 1007/1007 1010/1010 995/995
f 1010/1010 1012/1012 1013/1013
f 1013/1013 1012/1012 1014/1014
f 1013/1013 1015/1015 1010/1010
f 1010/1010 1016/1016 1011/1011
f 1009/1009 1018/1018 1017/1017
f 981/981 1019/1019 1001/1001
f 1083/1083 1017/1017 1084/1084
f 1020/1020 981/981 984/984
f 986/986 985/985 1006/1006
f 985/985 986/986 984/984
f 1082/1082 1017/1017 1083/1083
f 1017/1017 1082/1082 1009/1009
f 1016/1016 1008/1008 1011/1011
f 1008/1008 1016/1016 1009/1009
f 1021/1021 981/981 1020/1020
f 981/981 1021/1021 1019/1019
f 984/984 987/987 1020/1020
f 1018/1018 1009/1009 1016/1016
f 1075/1075 1077/1077 1085/1085
f 1022/1022 1026/1026 1025/1025
f 1022/1022 1027/1027 1023/1023
f 1027/1027 1022/1022 1025/1025
f 1024/1024 1029/1029 1028/1028
f 1024/1024 1086/1086 1029/1029
f 1086/1086 1024/1024 1087/1087
f 986/986 1026/1026 987/987
f 1026/1026 986/986 1025/1025
f 1005/1005 1025/1025 986/986
f 1025/1025 1005/1005 1027/1027
f 1028/1028 1017/1017 1018/1018
f 1017/1017 1028/1028 1029/1029
f 1029/1029 1084/1084 1017/1017
f 1084/1084 1029/1029 1086/1086
f 1030/1030 1031/1031 1032/1032
f 1031/1031 1030/1030 1033/1033
f 1033/1033 1034/1034 1031/1031
f 1035/1035 1033/1033 1036/1036
f 1032/1032 1037/1037 1030/1030
f 1031/1031 1038/1038 1032/1032
f 1039/1039 1040/1040 1041/1041
f 1042/1042 1039/1039 1043/1043
f 1043/1043 1044/1044 1042/1042
f 1045/1045 1046/1046 1038/1038
f 1032/1032 1038/1038 1046/1046
f 1047/1047 1037/1037 1046/1046
f 1040/1040 1088/1088 1041/1041
f 1048/1048 1047/1047 1000/1000
f 1037/1037 1032/1032 1046/1046
f 1089/1089 1088/1088 1040/1040
f 1039/1039 1041/1041 1043/1043
f 1049/1049 1037/1037 1048/1048
f 1030/1030 1037/1037 1049/1049
f 1040/1040 1039/1039 1002/1002
f 1042/1042 1003/1003 1002/1002
f 1002/1002 1039/1039 1042/1042
f 1090/1090 1091/1091 1075/1075
f 1092/1092 1090/1090 1075/1075
f 1093/1093 1094/1094 1095/1095
f 1000/1000 1004/1004 1048/1048
f 1048/1048 1037/1037 1047/1047
f 1035/1035 1050/1050 1051/1051
f 1007/1007 1003/1003 1042/1042
f 1042/1042 1044/1044 1007/1007
f 1052/1052 1041/1041 1096/1096
f 1096/1096 1097/1097 1053/1053
f 1053/1053 1052/1052 1096/1096
f 1041/1041 1052/1052 1043/1043
f 1096/1096 1041/1041 1088/1088
f 1054/1054 1044/1044 1043/1043
f 1055/1055 1054/1054 1043/1043
f 1043/1043 1052/1052 1055/1055
f 1054/1054 1012/1012 1007/1007
f 1007/1007 1044/1044 1054/1054
f 1054/1054 1056/1056 1012/1012
f 1056/1056 1014/1014 1012/1012
f 1056/1056 1054/1054 1057/1057
f 1054/1054 1055/1055 1058/1058
f 1053/1053 1059/1059 1060/1060
f 1030/1030 1049/1049 1061/1061
f 1098/1098 1099/1099 1059/1059
f 1062/1062 1033/1033 1030/1030
f 1035/1035 1051/1051 1034/1034
f 1034/1034 1033/1033 1035/1035
f 1097/1097 1098/1098 1059/1059
f 1059/1059 1053/1053 1097/1097
f 1058/1058 1055/1055 1052/1052
f 1052/1052 1053/1053 1058/1058
f 1063/1063 1062/1062 1030/1030
f 1030/1030 1061/1061 1063/1063
f 1033/1033 1062/1062 1036/1036
f 1060/1060 1058/1058 1053/1053
f 1075/1075 1085/1085 1092/1092
f 1064/1064 1067/1067 1068/1068
f 1064/1064 1069/1069 1067/1067
f 1069/1069 1064/1064 1065/1065
f 1066/1066 1070/1070 1071/1071
f 1066/1066 1100/1100 1101/1101
f 1100/1100 1066/1066 1071/1071
f 1035/1035 1068/1068 1067/1067
f 1068/1068 1035/1035 1036/1036
f 1050/1050 1067/1067 1069/1069
f 1067/1067 1050/1050 1035/1035
f 1070/1070 1059/1059 1071/1071
f 1059/1059 1070/1070 1060/1060
f 1071/1071 1099/1099 1100/1100
f 1099/1099 1071/1071 1059/1059
