# MOD converted: [r]temple_h_m_clothrobe006.mod
# 578 verts, 103 faces

v 109.356346 -13.489853 -0.000000
v 96.249672 12.082890 -0.000000
v 93.824539 -12.270309 -0.000001
v 101.847527 12.132167 -0.000001
v 108.553070 13.178258 0.000000
v 124.738426 12.145744 0.000000
v 132.820648 16.136475 0.000000
v 101.184692 -12.469666 -0.000000
v 115.908516 -13.013434 0.000001
v 115.621994 13.915213 -0.000000
v 119.832756 -13.445169 -0.000000
v 125.413361 9.550501 -0.000000
v 117.298653 -10.101808 0.000000
v 129.068253 9.599592 -0.000000
v 123.095345 -7.171136 0.000000
v 120.992584 1.066495 -0.000001
v 107.663414 18.968487 -0.000001
v 99.538177 21.277098 -0.000001
v 96.936119 22.179892 -0.000001
v 93.351868 24.442970 -0.000001
v 91.024513 25.860569 -0.000001
v 114.810844 16.827158 0.000001
v 120.112747 14.280134 -11.973709
v 116.126961 -8.264766 -6.297102
v 109.284523 -12.162360 -10.654959
v 122.110062 -8.542185 -15.068438
v 114.891510 11.362957 -11.693190
v 94.417358 -7.100492 -6.450183
v 93.959602 -10.494303 -13.987484
v 94.849045 -0.611131 -10.301043
v 101.585121 9.089788 -13.504033
v 101.527481 -0.367499 -11.753214
v 109.304039 -7.959075 -14.812443
v 106.254829 8.194345 -14.789784
v 106.342339 -0.392231 -7.996257
v 107.945663 12.100181 -17.022007
v 125.473213 4.462480 -9.521791
v 120.096390 13.040312 -20.372522
v 123.601845 4.124940 -18.998501
v 121.844368 -1.177107 -17.786213
v 121.458954 9.128986 -18.773975
v 113.918480 10.758164 -16.486769
v 107.403053 7.728717 -16.493948
v 107.491753 -0.286546 -15.194447
v 115.307129 -3.821310 -17.955690
v 114.411194 -3.250350 -29.166311
v 108.715233 13.096385 -25.297066
v 99.099823 10.017100 -19.982059
v 104.860718 7.709660 -23.345951
v 111.391747 11.348355 -25.639141
v 99.359924 -2.769453 -20.046986
v 105.015419 -0.609400 -35.236794
v 113.936775 -4.919063 -35.530914
v 113.444839 11.112716 -26.934959
v 116.512329 8.749631 -26.914822
v 116.352661 -1.613028 -23.678051
v 111.759964 -4.114007 -30.785728
v 107.735397 -7.976153 -43.969872
v 99.179703 8.133378 -41.592777
v 95.062447 5.475759 -35.658112
v 98.347511 5.786911 -30.168476
v 101.574020 6.267581 -33.728928
v 105.761154 8.380083 -38.258034
v 102.718140 8.846305 -30.265778
v 101.675934 -0.071817 -41.165554
v 106.863876 6.183894 -35.547375
v 110.599007 -0.439866 -41.063007
v 106.901596 -0.963364 -35.666786
v 110.789368 6.410754 -41.545647
v 94.980835 -0.335544 -43.932571
v 99.115067 -3.275353 -38.329647
v 102.737572 -3.377538 -31.373960
v 107.523453 14.648884 -46.317623
v 103.246124 -1.012409 -33.015343
v 106.224144 -2.902233 -35.682686
v 98.347816 -0.485029 -21.221228
v 118.918068 -0.586816 -21.357412
v 118.957436 8.585795 -46.313850
v 103.239594 5.922741 -50.570686
v 100.195763 5.665727 -45.882812
v 92.817688 5.221767 -48.243698
v 96.572586 7.533300 -48.018116
v 96.520905 -3.080150 -45.628483
v 92.772888 -0.168933 -50.401726
v 100.354179 -0.967551 -8.260210
v 131.928452 -15.794893 -19.095896
v 133.471664 2.091229 -12.844703
v 132.980423 13.326524 -15.324393
v 132.657959 -9.780352 -11.543659
v 101.289024 -7.121207 -6.344675
v 101.223778 -11.003752 -15.238362
v 124.214310 -3.597662 -10.547732
v 124.707153 10.213631 -3.970647
v 120.677849 -12.376704 -6.083601
v 116.316055 -11.918523 -9.044027
v 114.280724 16.172522 -14.850079
v 120.029610 -5.471503 -6.626285
v 124.564209 -12.785695 -7.389927
v 124.857147 6.488596 -6.228816
v 126.974541 -3.031738 -6.901158
v 129.005219 6.155689 -1.722027
v 125.845688 -6.450298 -12.591427
v 122.616081 1.957018 -5.497509
v 118.143738 -9.380774 -6.194633
v 122.940414 -4.287436 -10.588881
v 121.802383 -6.176767 -16.166765
v 96.058731 19.882240 -7.968649
v 95.797569 21.006205 -16.150703
v 88.025826 22.651909 -10.655368
v 88.209343 24.054892 -15.233051
v 72.035934 30.215902 -2.826857
v 99.337280 21.171093 -5.522587
v 102.320229 20.224833 -3.890457
v 96.790848 22.073887 -3.324297
v 93.206589 24.336966 -1.859743
v 95.134773 23.070963 -16.590368
v 113.702782 14.156328 -9.044027
v 114.979233 13.576067 -16.101191
v 106.062721 17.118591 -7.863817
v 107.020660 18.629341 -15.966535
v 81.182594 25.876188 -12.392436
v 81.238441 26.730661 -9.041977
v 95.959061 8.669916 -36.213066
v 116.549362 3.357237 -27.754105
v 118.299576 3.765608 -22.118532
v 120.804840 3.978719 -0.000001
v 122.202011 -2.804030 0.000000
v 126.774017 8.181273 -0.000000
v 133.220993 6.875782 0.000001
v 128.725998 -3.807329 0.000000
v 91.124306 -11.118160 -0.000001
v 92.583504 10.721920 0.000000
v 86.138412 -10.812769 -0.000000
v 87.856026 12.152913 -0.000000
v 80.634445 -10.198063 0.000000
v 80.728394 12.552681 -0.000001
v 74.394981 -7.408858 -0.000000
v 73.652496 0.659306 -0.000000
v 75.143585 7.006253 -5.519420
v 123.341003 -0.287923 -5.644170
v 125.979012 5.144221 -5.446900
v 132.238007 4.085751 -4.901290
v 130.072998 -1.004868 -8.577031
v 90.977669 -9.161142 -12.656736
v 91.397415 -0.147592 -8.909031
v 92.448822 8.608629 -8.334931
v 87.769363 11.438059 -13.071589
v 87.638054 6.541616 -14.323586
v 87.234276 0.058408 -12.319559
v 86.701279 -5.962309 -7.258693
v 86.450867 -9.695961 -7.529509
v 80.573616 -9.395612 -15.913160
v 81.382149 0.011045 -13.245846
v 81.805115 -6.073658 -9.263864
v 81.448624 11.929777 -14.955943
v 81.473404 6.511712 -9.778972
v 22.092699 -2.668408 -9.783160
v 22.091902 10.548102 -20.712202
v 22.094400 4.781163 -7.254410
v 22.091599 3.989364 -19.161701
v 22.093700 -2.289708 -17.201200
v 22.093601 10.735502 -1.371493
v 73.498886 0.715361 -2.426578
v 74.485397 -7.100898 -18.080996
v 65.849487 3.048939 -9.693561
v 65.823395 -9.885254 -3.684124
v 65.484695 -6.527678 -2.168840
v 65.218536 1.637948 -10.413499
v 77.097321 10.220325 -15.927754
v 65.964569 -6.377532 -5.815864
v 53.147678 -5.515373 -4.802032
v 48.839397 2.337647 -7.105890
v 50.121700 9.160026 -13.619898
v 50.413197 8.973998 -15.854450
v 54.045319 -5.018207 -17.827000
v 50.164005 2.996657 -4.815968
v 65.589813 10.144567 -12.820338
v 65.849991 9.992325 -11.408499
v 50.064194 -7.595922 -6.158771
v 49.576492 -5.242711 -16.122999
v 50.761799 -4.790619 -11.768799
v 46.406197 -6.410502 -16.484699
v 47.475296 -3.579263 -6.905739
v 46.646790 -4.350482 -20.219299
v 39.115196 4.019938 -15.545599
v 39.438503 10.935122 -7.938621
v 39.078903 11.214720 -4.905760
v 37.495201 3.546679 -3.144531
v 73.591599 10.022953 -10.972402
v 54.012733 -7.906873 -17.640697
v 52.946701 2.939467 -13.286398
v 52.648201 8.932144 -6.888580
v 52.214596 9.095493 -4.385400
v 51.866104 2.320655 -14.499200
v 22.093201 -4.422548 -8.044945
v 77.339012 -9.288541 -13.674347
v 79.367622 -6.079217 -1.938810
v 76.798698 11.866166 -15.381448
v 79.438019 6.020410 -0.000001
v 89.156380 16.194715 -0.000001
v 81.695694 19.087902 0.000000
v 73.403511 21.941433 0.000000
v 88.117439 -13.678833 -19.149960
v 88.213387 -1.638236 -8.838239
v 88.996017 14.099751 -22.826157
v 81.816605 -1.559286 -10.930454
v 81.815994 16.571491 -27.139204
v 73.443207 0.360989 -13.228721
v 73.425240 19.384411 -8.604847
v 50.269791 27.939297 -16.988955
v 40.931801 26.310453 -26.843727
v 62.539150 13.875855 -4.500371
v 62.510670 25.574434 -15.215450
v 88.088272 -8.203979 -18.474983
v 81.423012 -9.664731 -22.240540
v 73.438171 -11.077402 -14.175613
v 73.424896 -15.526159 -29.933449
v 62.574966 -4.395859 -17.120682
v 62.576439 -17.060287 -24.873730
v 54.717701 -12.932207 -27.075003
v 73.434853 -3.105267 -18.386724
v 50.455418 24.279568 -33.568790
v 50.674988 7.594522 -30.985123
v 62.565945 3.578598 -24.770765
v 62.575706 -12.417746 -31.577225
v 41.018974 14.812925 -26.688761
v 31.640434 23.282127 -8.762808
v 88.446510 -12.417676 -11.969427
v 81.423035 -13.836855 -4.046650
v 81.315407 -15.138817 -15.699280
v 76.876358 -12.813925 -10.875433
v 71.671173 -16.655344 -25.995407
v 40.978951 22.215134 -16.987190
v 88.665604 6.949569 -20.094406
v 81.850616 8.691391 -23.439489
v 73.436104 10.967104 -16.211300
v 62.521755 21.837856 -29.463783
v 50.585228 16.260836 11.973710
v 116.126961 -8.264768 6.297106
v 109.284523 -12.162359 10.654962
v 122.099770 -8.545979 15.068439
v 114.896439 11.363920 11.693190
v 94.417358 -7.100490 6.450186
v 93.959602 -10.494301 13.987484
v 94.849045 -0.611132 10.301043
v 101.585121 9.089788 13.504033
v 101.527481 -0.367499 11.753215
v 109.304039 -7.959074 14.812442
v 106.254822 8.194339 14.789784
v 106.342346 -0.392241 7.996257
v 107.945663 12.100180 17.022009
v 125.474861 4.453124 9.521793
v 120.096390 13.040310 20.372524
v 123.602554 4.120420 18.998501
v 121.841995 -1.180481 17.786213
v 121.462578 9.125977 18.773983
v 113.919991 10.758510 16.486771
v 107.403046 7.728710 16.493950
v 107.491760 -0.286562 15.194447
v 115.303207 -3.820584 17.955694
v 114.410027 -3.250061 29.166302
v 108.715202 13.096387 25.297064
v 99.099808 10.017081 19.982056
v 104.860703 7.709638 23.345970
v 111.391747 11.348356 25.639141
v 99.359940 -2.769477 20.046986
v 105.015434 -0.609424 35.236794
v 113.936813 -4.919043 35.530910
v 113.444824 11.112732 26.934963
v 116.512306 8.749652 26.914822
v 116.352676 -1.613009 23.678045
v 111.759987 -4.114006 30.785725
v 107.735428 -7.976152 43.969868
v 99.179710 8.133377 41.592773
v 95.062447 5.475763 35.658108
v 98.347519 5.786916 30.168474
v 101.574020 6.267580 33.728920
v 105.761154 8.380085 38.258034
v 102.718163 8.846306 30.265785
v 101.675934 -0.071816 41.165550
v 106.863884 6.183890 35.547379
v 110.599007 -0.439867 41.063015
v 106.901588 -0.963369 35.666786
v 110.789375 6.410757 41.545654
v 94.980827 -0.335539 43.932571
v 99.115051 -3.275352 38.329647
v 102.737541 -3.377538 31.373955
v 107.523438 14.648885 46.317627
v 103.246117 -1.012413 33.015347
v 106.224136 -2.902232 35.682690
v 98.347809 -0.485024 21.221230
v 118.917412 -0.587484 21.357412
v 118.958519 8.585114 46.313847
v 103.239601 5.922738 50.570679
v 100.195770 5.665726 45.882812
v 92.817688 5.221769 48.243698
v 96.572594 7.533300 48.018120
v 96.520889 -3.080151 45.628487
v 92.772888 -0.168932 50.401733
v 100.354172 -0.967553 8.260214
v 131.906616 -15.810097 19.095900
v 133.470703 2.071544 12.844706
v 132.992584 13.308971 15.324396
v 132.643143 -9.798168 11.543661
v 101.289024 -7.121205 6.344675
v 101.223778 -11.003752 15.238363
v 124.208473 -3.604149 10.547733
v 124.713730 10.207636 3.970646
v 120.665947 -12.377792 6.083601
v 116.316055 -11.918522 9.044030
v 114.280724 16.172522 14.850080
v 120.023094 -5.473965 6.626287
v 124.545891 -12.792315 7.389927
v 124.857147 6.488596 6.228817
v 126.974541 -3.031737 6.901158
v 129.005219 6.155689 1.722032
v 125.845688 -6.450297 12.591428
v 122.615532 1.954029 5.497511
v 118.143723 -9.380772 6.194635
v 122.940414 -4.287436 10.588884
v 121.797081 -6.179054 16.166765
v 96.058731 19.882240 7.968648
v 95.797569 21.006205 16.150703
v 88.025826 22.651909 10.655367
v 88.209343 24.054892 15.233050
v 72.035934 30.215902 2.826856
v 99.337280 21.171093 5.522586
v 102.320229 20.224836 3.890457
v 96.790848 22.073885 3.324295
v 93.206589 24.336966 1.859745
v 95.134773 23.070963 16.590368
v 113.702782 14.156328 9.044028
v 114.979240 13.576069 16.101191
v 106.062721 17.118593 7.863816
v 107.020660 18.629341 15.966535
v 81.182594 25.876188 12.392435
v 81.238441 26.730661 9.041977
v 95.959061 8.669917 36.213066
v 116.549370 3.357260 27.754105
v 118.299576 3.765635 22.118536
v 120.805260 3.976597 5.519421
v 123.341003 -0.287922 5.644171
v 125.979012 5.144219 5.446900
v 132.238007 4.085750 4.901291
v 130.072998 -1.004867 8.577032
v 90.977669 -9.161142 12.656736
v 91.397408 -0.147592 8.909031
v 92.448822 8.608630 8.334932
v 87.769363 11.438059 13.071590
v 87.638054 6.541614 14.323586
v 87.234276 0.058409 12.319559
v 86.701279 -5.962308 7.258694
v 86.450867 -9.695961 7.529510
v 80.573616 -9.395610 15.913159
v 81.382141 0.011058 13.245846
v 81.805115 -6.073655 9.263864
v 81.448624 11.929776 14.955943
v 81.473404 6.511713 9.778971
v 22.092697 -2.668408 9.783160
v 22.091898 10.548101 20.712202
v 22.094402 4.781161 7.254410
v 22.091600 3.989361 19.161701
v 22.093702 -2.289709 17.201200
v 22.093601 10.735502 1.371493
v 73.498886 0.715358 2.426579
v 74.485397 -7.100897 18.080996
v 65.849487 3.048938 9.693562
v 65.823395 -9.885254 3.684123
v 65.484695 -6.527677 2.168840
v 65.218544 1.637948 10.413500
v 77.097321 10.220325 15.927754
v 65.964569 -6.377532 5.815863
v 53.147678 -5.515372 4.802032
v 48.839397 2.337647 7.105888
v 50.121700 9.160027 13.619898
v 50.413197 8.973998 15.854450
v 54.045315 -5.018207 17.827000
v 50.164005 2.996655 4.815968
v 65.589813 10.144567 12.820338
v 65.849991 9.992323 11.408500
v 50.064194 -7.595923 6.158770
v 49.576492 -5.242709 16.122999
v 50.761803 -4.790619 11.768796
v 46.406197 -6.410501 16.484697
v 47.475296 -3.579264 6.905739
v 46.646790 -4.350482 20.219299
v 39.115196 4.019935 15.545598
v 39.438507 10.935121 7.938620
v 39.078903 11.214719 4.905760
v 37.495201 3.546679 3.144532
v 73.591599 10.022952 10.972399
v 54.012737 -7.906873 17.640697
v 52.946701 2.939467 13.286398
v 52.648201 8.932144 6.888580
v 52.214596 9.095494 4.385400
v 51.866104 2.320656 14.499200
v 22.093201 -4.422548 8.044946
v 77.339012 -9.288539 13.674347
v 79.367622 -6.079215 1.938810
v 76.798691 11.866165 15.381447
v 79.438019 6.020410 19.149961
v 88.213387 -1.638230 8.838239
v 88.996017 14.099751 22.826157
v 81.816605 -1.559285 10.930453
v 81.815994 16.571489 27.139200
v 73.443207 0.360988 13.228721
v 73.425240 19.384409 8.604846
v 50.269798 27.939297 16.988953
v 40.931808 26.310455 26.843725
v 62.539158 13.875854 4.500371
v 62.510674 25.574438 15.215453
v 88.088272 -8.203974 18.474985
v 81.423012 -9.664732 22.240540
v 73.438171 -11.077404 14.175613
v 73.424896 -15.526160 29.933449
v 62.574966 -4.395858 17.120682
v 62.576439 -17.060291 24.873730
v 54.717697 -12.932208 27.075001
v 73.434853 -3.105261 18.386726
v 50.455425 24.279570 33.568787
v 50.674995 7.594521 30.985123
v 62.565952 3.578595 24.770767
v 62.575699 -12.417746 31.577227
v 41.018982 14.812929 26.688755
v 31.640440 23.282127 8.762810
v 88.446503 -12.417675 11.969426
v 81.423035 -13.836853 4.046650
v 81.315407 -15.138819 15.699281
v 76.876358 -12.813925 10.875432
v 71.671165 -16.655346 25.995409
v 40.978958 22.215134 16.987190
v 88.665604 6.949569 20.094404
v 81.850616 8.691388 23.439487
v 73.436104 10.967104 16.211300
v 62.521763 21.837856 29.463785
v 50.585232 16.260838 -20.372522
v 123.601845 4.124940 -17.022007
v 125.473213 4.462480 -9.521791
v 120.096390 13.040312 -17.786213
v 121.458954 9.128986 -15.068438
v 114.891510 11.362957 -15.194447
v 115.307129 -3.821310 -14.812443
v 106.254829 8.194345 -16.486769
v 107.403053 7.728717 -14.789784
v 106.342339 -0.392231 -14.812443
v 106.254829 8.194345 -19.982059
v 104.860718 7.709660 -25.297066
v 99.099823 10.017100 -30.168476
v 101.574020 6.267581 -17.786213
v 121.458954 9.128986 -18.998501
v 121.844368 -1.177107 -20.372522
v 123.601845 4.124940 -41.592777
v 95.062447 5.475759 -35.658112
v 98.347511 5.786911 -45.882812
v 92.817688 5.221767 -19.095896
v 133.471664 2.091229 -6.626285
v 124.564209 -12.785695 -8.260210
v 131.928452 -15.794893 -15.324393
v 132.657959 -9.780352 -19.095896
v 133.471664 2.091229 -12.844703
v 132.980423 13.326524 0.000000
v 132.820648 16.136475 -3.970647
v 120.677849 -12.376704 -0.000000
v 119.832756 -13.445169 -7.389927
v 124.857147 6.488596 -0.000000
v 125.413361 9.550501 -10.588881
v 121.802383 -6.176767 -12.591427
v 122.616081 1.957018 -0.000000
v 117.298653 -10.101808 -5.497509
v 118.143738 -9.380774 0.000001
v 120.112747 14.280134 -1.371493
v 73.498886 0.715361 -4.385400
v 51.866104 2.320655 -4.802032
v 48.839397 2.337647 -4.905760
v 37.495201 3.546679 -2.168840
v 65.218536 1.637948 -7.254410
v 22.091599 3.989364 -0.000000
v 73.652496 0.659306 -9.041977
v 95.959061 8.669916 -13.987484
v 94.849045 -0.611131 -11.693190
v 94.417358 -7.100492 -0.000000
v 96.249672 12.082890 -6.450183
v 93.959602 -10.494303 -0.000000
v 93.824539 -12.270309 -0.000000
v 93.824539 -12.270309 -8.762808
v 88.446510 -12.417676 -11.969427
v 81.423035 -13.836855 0.000000
v 109.356346 -13.489853 -0.000000
v 115.908516 -13.013434 0.000000
v 101.184692 -12.469666 -0.000001
v 108.553070 13.178258 -0.000001
v 101.847527 12.132167 20.372524
v 123.602554 4.120420 17.022009
v 125.474861 4.453124 9.521793
v 120.096390 13.040310 17.786213
v 121.462578 9.125977 0.000001
v 120.112747 14.280134 0.000001
v 115.621994 13.915213 0.000000
v 124.738426 12.145744 15.068439
v 114.896439 11.363920 15.194447
v 115.303207 -3.820584 14.812442
v 106.254822 8.194339 14.789784
v 106.342346 -0.392241 16.486771
v 107.403046 7.728710 14.812442
v 106.254822 8.194339 25.297064
v 99.099808 10.017081 19.982056
v 104.860703 7.709638 30.168474
v 101.574020 6.267580 17.786213
v 121.462578 9.125977 18.998501
v 121.841995 -1.180481 20.372524
v 123.602554 4.120420 41.592773
v 95.062447 5.475763 35.658108
v 98.347519 5.786916 45.882812
v 92.817688 5.221769 0.000000
v 132.820648 16.136475 19.095900
v 133.470703 2.071544 -0.000000
v 93.824539 -12.270309 -0.000000
v 119.832756 -13.445169 8.260214
v 131.906616 -15.810097 6.626287
v 124.545891 -12.792315 15.324396
v 132.643143 -9.798168 19.095900
v 133.470703 2.071544 12.844706
v 132.992584 13.308971 -0.000000
v 125.413361 9.550501 0.000000
v 132.820648 16.136475 3.970646
v 120.665947 -12.377792 -0.000000
v 119.832756 -13.445169 -0.000000
v 117.298653 -10.101808 7.389927
v 124.857147 6.488596 0.000000
v 129.068253 9.599592 -0.000000
v 125.413361 9.550501 -0.000000
v 123.095345 -7.171136 0.000000
v 120.992584 1.066495 10.588884
v 121.797081 -6.179054 12.591428
v 122.615532 1.954029 5.497511
v 118.143723 -9.380772 -0.000000
v 117.298653 -10.101808 -0.000001
v 114.810844 16.827158 -0.000001
v 107.663414 18.968487 -0.000001
v 99.538177 21.277098 -0.000001
v 96.936119 22.179892 -0.000001
v 93.351868 24.442970 -0.000001
v 91.024513 25.860569 0.000001
v 120.112747 14.280134 -0.000000
v 96.249672 12.082890 0.000000
v 126.774017 8.181273 -0.000000
v 133.220993 6.875782 0.000001
v 128.725998 -3.807329 -0.000001
v 122.202011 -2.804030 -0.000001
v 92.583504 10.721920 -0.000000
v 87.856026 12.152913 0.000000
v 86.138412 -10.812769 0.000000
v 91.124306 -11.118160 0.000000
v 80.728394 12.552681 -0.000000
v 80.634445 -10.198063 -0.000000
v 73.652496 0.659306 -0.000000
v 75.143585 7.006253 1.371493
v 73.498886 0.715358 4.385400
v 51.866104 2.320656 4.802032
v 48.839397 2.337647 4.905760
v 37.495201 3.546679 2.168840
v 65.218544 1.637948 7.254410
v 22.091600 3.989361 -0.000001
v 74.394981 -7.408858 -0.000000
v 73.652496 0.659306 9.041977
v 95.959061 8.669917 13.987484
v 94.849045 -0.611132 11.693190
v 94.417358 -7.100490 -0.000001
v 89.156380 16.194715 -0.000000
v 96.249672 12.082890 6.450186
v 93.959602 -10.494301 -0.000000
v 93.824539 -12.270309 -0.000001
v 81.695694 19.087902 0.000000
v 73.403511 21.941433 0.000000
v 88.117439 -13.678833 -0.000000
v 93.824539 -12.270309 8.762810
v 88.446503 -12.417675 11.969426
v 81.423035 -13.836853 0.011807

vt 0.750931 0.582248
vt 0.636048 0.988269
vt 0.617426 0.582932
vt 0.680153 0.577405
vt 0.736848 0.068768
vt 0.776620 0.003216
vt 0.776620 0.988204
vt 0.685403 0.988242
vt 0.807206 0.571407
vt 0.800521 0.989666
vt 0.854024 0.583025
vt 0.906030 0.706755
vt 0.996096 0.992229
vt 0.166438 0.822499
vt 0.109132 0.924288
vt 0.119914 0.256886
vt 0.776620 0.345468
vt 0.776620 0.371222
vt 0.776620 0.419039
vt 0.777124 0.453051
vt 0.776620 0.200773
vt 0.776620 0.568497
vt 0.841178 0.861798
vt 0.815176 0.915156
vt 0.750640 0.878928
vt 0.870463 0.709903
vt 0.801228 0.865035
vt 0.610568 0.919489
vt 0.604952 0.790659
vt 0.608714 0.684563
vt 0.674737 0.788614
vt 0.673820 0.857751
vt 0.750569 0.715775
vt 0.719510 0.786637
vt 0.722142 0.649571
vt 0.734106 0.755221
vt 0.924440 0.139673
vt 0.873930 0.729151
vt 0.890777 0.777714
vt 0.865673 0.134414
vt 0.960187 0.099716
vt 0.712376 0.028311
vt 0.706133 0.405796
vt 0.690197 0.799819
vt 0.808264 0.331809
vt 0.710621 0.101952
vt 0.581507 0.010583
vt 0.565133 0.016601
vt 0.665050 0.112882
vt 0.655383 0.402030
vt 0.565133 0.407312
vt 0.646279 0.278291
vt 0.565738 0.153619
vt 0.564619 0.173444
vt 0.655274 0.264346
vt 0.655143 0.317307
vt 0.655154 0.335813
vt 0.565133 0.138691
vt 0.434431 0.081185
vt 0.434431 0.067637
vt 0.471743 0.448013
vt 0.518793 0.130337
vt 0.518793 0.136488
vt 0.471743 0.384564
vt 0.518793 0.188156
vt 0.471743 0.246717
vt 0.518793 0.245946
vt 0.471742 0.184172
vt 0.518793 0.344159
vt 0.434431 0.294085
vt 0.434431 0.295251
vt 0.471743 0.097334
vt 0.560996 0.245922
vt 0.434431 0.299128
vt 0.518793 0.359337
vt 0.471743 0.266551
vt 0.714068 0.166456
vt 0.716772 0.188730
vt 0.434431 0.189851
vt 0.394178 0.091351
vt 0.394178 0.142714
vt 0.394178 0.292940
vt 0.394178 0.335383
vt 0.394178 0.243688
vt 0.394178 0.943020
vt 0.952382 0.796645
vt 0.998391 0.003216
vt 0.895941 0.883296
vt 0.973446 0.858342
vt 0.674318 0.916849
vt 0.679085 0.825776
vt 0.893926 0.068846
vt 0.888766 0.958475
vt 0.866295 0.923543
vt 0.812939 0.198467
vt 0.866150 0.830432
vt 0.854528 0.941464
vt 0.894038 0.619423
vt 0.906983 0.866318
vt 0.168628 0.933532
vt 0.193552 0.856664
vt 0.130357 0.650538
vt 0.922451 0.695463
vt 0.974122 0.829418
vt 0.181437 0.683197
vt 0.945013 0.373791
vt 0.960187 0.379108
vt 0.855147 0.455747
vt 0.960187 0.458786
vt 0.886421 0.626546
vt 0.960187 0.345668
vt 0.804177 0.315718
vt 0.830493 0.372363
vt 0.813383 0.420210
vt 0.812111 0.394599
vt 0.795788 0.195211
vt 0.960187 0.653106
vt 0.800101 0.273591
vt 0.960187 0.268293
vt 0.852215 0.533083
vt 0.960187 0.531169
vt 0.915081 0.691404
vt 0.618071 0.216588
vt 0.565133 0.216611
vt 0.655210 0.216586
vt 0.717134 0.498002
vt 0.867534 0.537690
vt 0.714339 0.509440
vt 0.720340 0.480865
vt 0.830108 0.008155
vt 0.296109 0.007179
vt 0.068406 0.037030
vt 0.303037 0.037722
vt 0.058880 0.068946
vt 0.310466 0.082120
vt 0.051822 0.107120
vt 0.319024 0.146597
vt 0.004164 0.125418
vt 0.035719 0.539664
vt 0.829376 0.546486
vt 0.767684 0.511053
vt 0.762051 0.503664
vt 0.803025 0.020871
vt 0.245240 0.026992
vt 0.184639 0.019961
vt 0.124360 0.048205
vt 0.107343 0.053209
vt 0.146663 0.053673
vt 0.185441 0.052061
vt 0.223165 0.046094
vt 0.260189 0.082481
vt 0.267274 0.088774
vt 0.187374 0.081953
vt 0.226209 0.085574
vt 0.105799 0.090913
vt 0.149958 0.442130
vt 0.286014 0.442130
vt 0.098567 0.442130
vt 0.186073 0.442130
vt 0.328100 0.442130
vt 0.229097 0.442130
vt 0.144257 0.152640
vt 0.009449 0.116912
vt 0.308597 0.182391
vt 0.173177 0.172483
vt 0.266200 0.173449
vt 0.304131 0.182482
vt 0.350591 0.113979
vt 0.111813 0.177160
vt 0.227376 0.248758
vt 0.296438 0.280748
vt 0.337935 0.277783
vt 0.092117 0.276400
vt 0.133308 0.248131
vt 0.227563 0.276642
vt 0.180240 0.182639
vt 0.078131 0.182050
vt 0.123706 0.267492
vt 0.260702 0.269801
vt 0.294054 0.267654
vt 0.227685 0.290424
vt 0.260104 0.288064
vt 0.225034 0.288293
vt 0.293642 0.344335
vt 0.183642 0.344165
vt 0.137166 0.344230
vt 0.095627 0.347256
vt 0.337393 0.132976
vt 0.064407 0.244489
vt 0.262420 0.259218
vt 0.177769 0.261630
vt 0.130758 0.264144
vt 0.091400 0.270007
vt 0.048035 0.442130
vt 0.257695 0.103213
vt 0.268275 0.096344
vt 0.227027 0.108167
vt 0.060956 0.101767
vt 0.151954 0.557632
vt 0.578452 0.529514
vt 0.519617 0.485836
vt 0.441359 0.699174
vt 0.087196 0.796619
vt 0.534761 0.633841
vt 0.557194 0.798768
vt 0.470059 0.614454
vt 0.491452 0.786073
vt 0.383638 0.594323
vt 0.414296 0.462165
vt 0.216207 0.506395
vt 0.110246 0.671605
vt 0.298199 0.475545
vt 0.337520 0.861470
vt 0.544895 0.875042
vt 0.484638 0.894910
vt 0.408637 0.968036
vt 0.432746 0.842838
vt 0.291876 0.996093
vt 0.339294 0.950104
vt 0.237118 0.818468
vt 0.388942 0.551050
vt 0.198892 0.746686
vt 0.162209 0.768612
vt 0.284277 0.926392
vt 0.314575 0.651828
vt 0.084507 0.561645
vt 0.006143 0.931929
vt 0.563664 0.947201
vt 0.506724 0.785969
vt 0.087196 0.888517
vt 0.005170 0.911370
vt 0.087196 0.580928
vt 0.097810 0.716532
vt 0.542113 0.704175
vt 0.475055 0.691104
vt 0.393460 0.572311
vt 0.316546 0.652337
vt 0.181275 0.861798
vt 0.815176 0.915156
vt 0.750640 0.878928
vt 0.870463 0.709903
vt 0.801228 0.865035
vt 0.610568 0.919489
vt 0.604952 0.790659
vt 0.608714 0.684563
vt 0.674737 0.788614
vt 0.673820 0.857751
vt 0.750569 0.715775
vt 0.719510 0.786637
vt 0.722142 0.649571
vt 0.734106 0.755221
vt 0.924440 0.139673
vt 0.873930 0.729151
vt 0.890777 0.777714
vt 0.865673 0.134414
vt 0.960187 0.099716
vt 0.712376 0.028311
vt 0.706133 0.405796
vt 0.690197 0.799819
vt 0.808264 0.331809
vt 0.710621 0.101952
vt 0.581507 0.010583
vt 0.565133 0.016601
vt 0.665050 0.112882
vt 0.655383 0.402030
vt 0.565133 0.407312
vt 0.646279 0.278291
vt 0.565738 0.153619
vt 0.564619 0.173444
vt 0.655274 0.264346
vt 0.655143 0.317307
vt 0.655154 0.335813
vt 0.565133 0.138691
vt 0.434431 0.081185
vt 0.434431 0.067637
vt 0.471743 0.448013
vt 0.518793 0.130337
vt 0.518793 0.136488
vt 0.471743 0.384564
vt 0.518793 0.188156
vt 0.471743 0.246717
vt 0.518793 0.245946
vt 0.471742 0.184172
vt 0.518793 0.344159
vt 0.434431 0.294085
vt 0.434431 0.295251
vt 0.471743 0.097334
vt 0.560996 0.245922
vt 0.434431 0.299128
vt 0.518793 0.359337
vt 0.471743 0.266551
vt 0.714068 0.166456
vt 0.716772 0.188730
vt 0.434431 0.189851
vt 0.394178 0.091351
vt 0.394178 0.142714
vt 0.394178 0.292940
vt 0.394178 0.335383
vt 0.394178 0.243688
vt 0.394178 0.943020
vt 0.952382 0.796645
vt 0.998391 0.003216
vt 0.895941 0.883296
vt 0.973446 0.858342
vt 0.674318 0.916849
vt 0.679085 0.825776
vt 0.893926 0.068846
vt 0.888766 0.958475
vt 0.866295 0.923543
vt 0.812939 0.198467
vt 0.866150 0.830432
vt 0.854528 0.941464
vt 0.894038 0.619423
vt 0.906983 0.866318
vt 0.168628 0.933532
vt 0.193552 0.856664
vt 0.130357 0.650538
vt 0.922451 0.695463
vt 0.974122 0.829418
vt 0.181437 0.683197
vt 0.945013 0.373791
vt 0.960187 0.379108
vt 0.855147 0.455747
vt 0.960187 0.458786
vt 0.886421 0.626546
vt 0.960187 0.345668
vt 0.804177 0.315718
vt 0.830493 0.372363
vt 0.813383 0.420210
vt 0.812111 0.394599
vt 0.795788 0.195211
vt 0.960187 0.653106
vt 0.800101 0.273591
vt 0.960187 0.268293
vt 0.852215 0.533083
vt 0.960187 0.531169
vt 0.915081 0.691404
vt 0.618071 0.216588
vt 0.565133 0.216611
vt 0.655210 0.216586
vt 0.717134 0.539664
vt 0.829376 0.546486
vt 0.767684 0.511053
vt 0.762051 0.503664
vt 0.803025 0.020871
vt 0.245240 0.026992
vt 0.184639 0.019961
vt 0.124360 0.048205
vt 0.107343 0.053209
vt 0.146663 0.053673
vt 0.185441 0.052061
vt 0.223165 0.046094
vt 0.260189 0.082481
vt 0.267274 0.088774
vt 0.187374 0.081953
vt 0.226209 0.085574
vt 0.105799 0.090913
vt 0.149958 0.442130
vt 0.286014 0.442130
vt 0.098567 0.442130
vt 0.186073 0.442130
vt 0.328100 0.442130
vt 0.229097 0.442130
vt 0.144257 0.152640
vt 0.009449 0.116912
vt 0.308597 0.182391
vt 0.173177 0.172483
vt 0.266200 0.173449
vt 0.304131 0.182482
vt 0.350591 0.113979
vt 0.111813 0.177160
vt 0.227376 0.248758
vt 0.296438 0.280748
vt 0.337935 0.277783
vt 0.092117 0.276400
vt 0.133308 0.248131
vt 0.227563 0.276642
vt 0.180240 0.182639
vt 0.078131 0.182050
vt 0.123706 0.267492
vt 0.260702 0.269801
vt 0.294054 0.267654
vt 0.227685 0.290424
vt 0.260104 0.288064
vt 0.225034 0.288293
vt 0.293642 0.344335
vt 0.183642 0.344165
vt 0.137166 0.344230
vt 0.095627 0.347256
vt 0.337393 0.132976
vt 0.064407 0.244489
vt 0.262420 0.259218
vt 0.177769 0.261630
vt 0.130758 0.264144
vt 0.091400 0.270007
vt 0.048035 0.442130
vt 0.257695 0.103213
vt 0.268275 0.096344
vt 0.227027 0.108167
vt 0.060956 0.101767
vt 0.151954 0.796619
vt 0.534761 0.633841
vt 0.557194 0.798768
vt 0.470059 0.614454
vt 0.491452 0.786073
vt 0.383638 0.594323
vt 0.414296 0.462165
vt 0.216207 0.506395
vt 0.110246 0.671605
vt 0.298199 0.475545
vt 0.337520 0.861470
vt 0.544895 0.875042
vt 0.484638 0.894910
vt 0.408637 0.968036
vt 0.432746 0.842838
vt 0.291876 0.996093
vt 0.339294 0.950104
vt 0.237118 0.818468
vt 0.388942 0.551050
vt 0.198892 0.746686
vt 0.162209 0.768612
vt 0.284277 0.926392
vt 0.314575 0.651828
vt 0.084507 0.561645
vt 0.006143 0.931929
vt 0.563664 0.947201
vt 0.506724 0.785969
vt 0.087196 0.888517
vt 0.005170 0.911370
vt 0.087196 0.580928
vt 0.097810 0.716532
vt 0.542113 0.704175
vt 0.475055 0.691104
vt 0.393460 0.572311
vt 0.316546 0.652337
vt 0.181275 0.087911
vt 0.994029 0.069368
vt 0.966008 0.655317
vt 0.846294 0.737259
vt 0.862894 0.091295
vt 0.742663 0.337968
vt 0.735536 0.020228
vt 0.729791 0.485593
vt 0.682238 0.414486
vt 0.711797 0.492740
vt 0.700021 0.482927
vt 0.639721 0.479837
vt 0.565133 0.054846
vt 0.518793 0.169308
vt 0.755905 0.258863
vt 0.752493 0.216456
vt 0.757116 0.396453
vt 0.434431 0.416943
vt 0.471743 0.383453
vt 0.394178 0.003216
vt 0.990815 0.715805
vt 0.951958 0.733842
vt 0.934119 0.708389
vt 0.909320 0.670870
vt 0.881542 0.624816
vt 0.864968 0.572787
vt 0.874381 0.713489
vt 0.971925 0.723212
vt 0.987939 0.926180
vt 0.227096 0.998978
vt 0.202067 0.798671
vt 0.219432 0.866119
vt 0.261404 0.760936
vt 0.109592 0.765575
vt 0.162217 0.144692
vt 0.776620 0.136488
vt 0.355280 0.262851
vt 0.341984 0.283532
vt 0.046960 0.352507
vt 0.047537 0.194656
vt 0.027719 0.442130
vt 0.056454 0.130081
vt 0.359980 0.691404
vt 0.618071 0.790659
vt 0.608714 0.865035
vt 0.610568 0.582248
vt 0.636048 0.919489
vt 0.604952 0.988269
vt 0.617426 0.641144
vt 0.041021 0.734552
vt 0.005170 0.819970
vt 0.005170 0.988193
vt 0.750931 0.988242
vt 0.807206 0.988204
vt 0.685403 0.577405
vt 0.736848 0.582932
vt 0.680153 0.087911
vt 0.994029 0.069368
vt 0.966008 0.655317
vt 0.846294 0.737259
vt 0.862894 0.568497
vt 0.841178 0.571407
vt 0.800521 0.068768
vt 0.776620 0.091295
vt 0.742663 0.337968
vt 0.735536 0.020228
vt 0.729791 0.414486
vt 0.711797 0.485593
vt 0.682238 0.492740
vt 0.700021 0.479837
vt 0.565133 0.482927
vt 0.639721 0.054846
vt 0.518793 0.169308
vt 0.755905 0.258863
vt 0.752493 0.216456
vt 0.757116 0.396453
vt 0.434431 0.416943
vt 0.471743 0.383453
vt 0.394178 0.003216
vt 0.776620 0.003216
vt 0.990815 0.988269
vt 0.617426 0.989666
vt 0.854024 0.733842
vt 0.934119 0.715805
vt 0.951958 0.708389
vt 0.909320 0.670870
vt 0.881542 0.624816
vt 0.864968 0.583025
vt 0.906030 0.572787
vt 0.874381 0.713489
vt 0.971925 0.723212
vt 0.987939 0.706755
vt 0.996096 0.926180
vt 0.227096 0.992229
vt 0.166438 0.998978
vt 0.202067 0.822499
vt 0.109132 0.924288
vt 0.119914 0.798671
vt 0.219432 0.866119
vt 0.261404 0.765575
vt 0.162217 0.760936
vt 0.109592 0.200773
vt 0.776620 0.256886
vt 0.776620 0.345468
vt 0.776620 0.371222
vt 0.776620 0.419039
vt 0.777124 0.453051
vt 0.776620 0.144692
vt 0.776620 0.582248
vt 0.636048 0.537690
vt 0.714339 0.509440
vt 0.720340 0.480865
vt 0.830108 0.498002
vt 0.867534 0.007179
vt 0.068406 0.037722
vt 0.058880 0.037030
vt 0.303037 0.008155
vt 0.296109 0.082120
vt 0.051822 0.068946
vt 0.310466 0.146597
vt 0.004164 0.125418
vt 0.035719 0.136488
vt 0.355280 0.262851
vt 0.341984 0.283532
vt 0.046960 0.352507
vt 0.047537 0.194656
vt 0.027719 0.442130
vt 0.056454 0.107120
vt 0.319024 0.130081
vt 0.359980 0.691404
vt 0.618071 0.790659
vt 0.608714 0.865035
vt 0.610568 0.557632
vt 0.578452 0.582248
vt 0.636048 0.919489
vt 0.604952 0.988269
vt 0.617426 0.529514
vt 0.519617 0.485836
vt 0.441359 0.699174
vt 0.087196 0.641144
vt 0.041021 0.734552
vt 0.005170 0.819970
vt 0.005170 1.000000

f 485/485 203/203 486/486
f 487/487 486/486 230/230
f 203/203 230/230 486/486
f 231/231 487/487 232/232
f 230/230 232/232 487/487
f 575/575 576/576 577/577
f 577/577 578/578 428/428
f 428/428 575/575 577/577
f 578/578 429/429 430/430
f 430/430 428/428 578/578
f 25/25 24/24 33/33
f 24/24 25/25 97/97
f 40/40 92/92 24/24
f 26/26 95/95 25/25
f 95/95 1/1 9/9
f 1/1 95/95 8/8
f 91/91 1/1 25/25
f 1/1 91/91 93/93
f 41/41 38/38 37/37
f 37/37 92/92 437/437
f 41/41 438/438 118/118
f 439/439 440/440 23/23
f 439/439 118/118 38/38
f 6/6 93/93 26/26
f 89/89 98/98 86/86
f 98/98 89/89 92/92
f 92/92 87/87 37/37
f 87/87 92/92 88/88
f 88/88 93/93 456/456
f 438/438 88/88 93/93
f 88/88 438/438 3/3
f 29/29 8/8 91/91
f 8/8 29/29 33/33
f 25/25 91/91 26/26
f 11/11 9/9 97/97
f 26/26 24/24 92/92
f 26/26 97/97 98/98
f 94/94 26/26 120/120
f 96/96 119/119 117/117
f 119/119 96/96 17/17
f 22/22 120/120 96/96
f 120/120 22/22 108/108
f 113/113 107/107 119/119
f 107/107 113/113 110/110
f 108/108 109/109 107/107
f 109/109 108/108 110/110
f 122/122 110/110 18/18
f 17/17 112/112 119/119
f 113/113 112/112 19/19
f 18/18 114/114 112/112
f 115/115 20/20 116/116
f 20/20 19/19 115/115
f 21/21 20/20 6/6
f 38/38 471/471 438/438
f 41/41 93/93 96/96
f 38/38 117/117 41/41
f 117/117 38/38 22/22
f 471/471 96/96 38/38
f 96/96 471/471 121/121
f 111/111 122/122 483/483
f 484/484 228/228 240/240
f 248/248 240/240 255/255
f 312/312 307/307 241/241
f 489/489 310/310 306/306
f 240/240 306/306 256/256
f 308/308 253/253 255/255
f 255/255 307/307 256/256
f 493/493 494/494 495/495
f 333/333 242/242 495/495
f 242/242 496/496 495/495
f 497/497 498/498 495/495
f 498/498 333/333 499/499
f 253/253 308/308 304/304
f 252/252 307/307 499/499
f 499/499 308/308 494/494
f 308/308 494/494 244/244
f 306/306 244/244 240/240
f 248/248 306/306 309/309
f 241/241 310/310 518/518
f 309/309 310/310 518/518
f 310/310 489/489 241/241
f 312/312 239/239 241/241
f 307/307 312/312 309/309
f 313/313 241/241 311/311
f 332/332 311/311 538/538
f 311/311 538/538 328/328
f 334/334 328/328 323/323
f 322/322 323/323 324/324
f 325/325 336/336 337/337
f 336/336 325/325 539/539
f 540/540 327/327 328/328
f 334/334 335/335 328/328
f 335/335 539/539 328/328
f 539/539 327/327 540/540
f 327/327 540/540 331/331
f 329/329 541/541 330/330
f 331/331 541/541 543/543
f 330/330 542/542 253/253
f 499/499 544/544 256/256
f 494/494 308/308 253/253
f 256/256 253/253 544/544
f 253/253 544/544 326/326
f 336/336 337/337 572/572
