# MOD converted: [r]temple_d_w_clothrobe001_1.mod
# 626 verts, 665 faces

v 108.693504 8.735311 3.706045
v 108.233383 4.134061 3.611748
v 105.432106 1.306503 17.647753
v 120.360039 5.887276 17.475189
v 118.546501 -1.796783 17.302629
v 114.391815 -7.707157 24.441113
v 122.284782 2.867770 24.305180
v 121.104713 -3.373368 24.169249
v 117.583504 -7.840809 31.492216
v 121.191833 0.294235 35.974735
v 118.180183 -2.170705 31.341461
v 118.585159 -5.643243 10.810193
v 116.018112 7.821231 10.649862
v 114.416100 0.618979 10.489531
v 110.472939 -4.809580 31.416725
v 121.057022 -3.566006 -0.785538
v 110.108429 10.504375 5.332990
v 110.937546 5.305634 9.111709
v 108.002312 2.220914 8.863606
v 125.601852 15.785694 16.929056
v 125.828957 9.371296 23.283953
v 120.537292 3.971988 15.348244
v 129.354599 18.186560 21.732485
v 129.631210 12.502257 27.651533
v 125.674751 8.025205 21.939119
v 130.950287 21.013195 30.632509
v 130.177277 22.152689 31.035868
v 128.792770 14.326889 3.498006
v 119.386063 13.197592 11.354194
v 119.758102 6.935087 17.211441
v 114.783867 1.935624 27.074986
v 131.660248 17.459278 6.141808
v 110.216919 8.354988 11.239038
v 127.908600 20.477833 8.853323
v 133.424973 27.389751 0.000074
v 134.648132 41.009418 4.899433
v 135.712631 35.539352 10.442371
v 120.390106 14.123626 0.000060
v 136.808960 34.786163 0.000002
v 111.313240 7.601803 0.000028
v 129.004929 19.724665 0.000043
v 134.521301 26.636572 0.000014
v 121.486427 13.370455 -3.800336
v 108.693512 8.735329 -3.706056
v 108.233383 4.134080 -3.611772
v 105.432114 1.306522 -17.647757
v 120.360046 5.887355 -17.475225
v 118.546509 -1.796704 -17.302692
v 114.391823 -7.707076 -24.441132
v 122.284782 2.867878 -24.305222
v 121.104713 -3.373259 -24.169312
v 117.583504 -7.840701 -31.492241
v 121.191833 0.294376 -35.974773
v 118.180183 -2.170545 -31.341515
v 118.585167 -5.643103 -10.810188
v 116.018120 7.821280 -10.649889
v 114.416107 0.619029 -10.489581
v 110.472946 -4.809530 -31.416767
v 121.057030 -3.565867 0.785553
v 110.108429 10.504374 -5.332996
v 110.937553 5.305661 -9.111729
v 108.002319 2.220957 -8.863567
v 125.601852 15.785734 -16.929043
v 125.828957 9.371372 -23.283962
v 120.537292 3.972093 -15.348194
v 129.354599 18.186628 -21.732460
v 129.631226 12.502355 -27.651527
v 125.674759 8.025327 -21.939058
v 130.950302 21.013290 -30.632444
v 130.177277 22.152822 -31.035833
v 128.792786 14.327024 -3.497979
v 119.386063 13.197609 -11.354194
v 119.758110 6.935139 -17.211460
v 114.783875 1.935703 -27.074938
v 131.660248 17.459396 -6.141800
v 110.216919 8.355018 -11.238980
v 127.908600 20.477882 -8.853234
v 133.424988 27.389790 -4.899308
v 135.712646 35.539371 -10.442340
v 120.390106 14.123672 0.000028
v 129.004929 19.724665 0.000014
v 121.486427 13.370455 0.000043
v 134.521301 26.636572 0.000074
v 134.648132 41.009418 0.000060
v 136.808960 34.786163 0.000002
v 111.313240 7.601803 0.239013
v 71.916679 6.790862 -11.743647
v 81.259979 6.081708 -7.933943
v 81.867218 9.946144 -14.431839
v 80.418243 -0.460531 -7.193524
v 78.195061 -7.934035 -12.391366
v 79.363457 -5.645866 -15.930884
v 74.294052 -0.114807 -13.668087
v 74.246941 -6.448450 -9.133306
v 75.819496 10.104837 -13.842688
v 75.245071 5.513743 -9.297135
v 20.264702 -2.586938 -17.204372
v 20.265865 2.800809 -7.471301
v 20.263887 2.228152 -1.578796
v 71.732735 0.407189 -2.517105
v 72.838364 -6.118462 -16.273350
v 61.238464 1.330628 -9.189054
v 60.962261 -8.349251 -3.868528
v 60.538143 -5.700889 -2.639495
v 60.193584 0.739910 -10.037152
v 71.281837 8.316411 -14.518496
v 61.267483 -5.957139 -5.720013
v 49.485336 -4.992263 -4.933091
v 45.601582 1.223325 -6.882038
v 46.695225 6.816223 -12.316340
v 47.043743 6.663713 -14.222160
v 50.382385 -4.519937 -15.951600
v 46.731365 1.763581 -4.798632
v 60.583775 7.449690 -11.600008
v 61.100113 7.329610 -10.521892
v 46.646210 -6.920061 -6.317610
v 46.230339 -4.815239 -14.510118
v 47.241203 -4.363333 -10.878220
v 43.308483 -6.292444 -14.682620
v 44.178059 -4.079069 -6.955084
v 43.504089 -4.681981 -17.414553
v 35.977295 3.111613 -13.876112
v 36.258957 8.683964 -7.502650
v 35.936661 8.924900 -5.179392
v 34.617271 2.729719 -3.177335
v 70.987663 8.051786 -10.119942
v 49.943417 -6.861853 -15.499418
v 49.321877 1.617445 -11.986692
v 49.079170 6.302312 -6.913686
v 48.539845 6.430010 -4.806091
v 48.443001 1.133676 -7.791547
v 73.788223 -8.163174 0.000000
v 82.091530 10.272735 -0.000000
v 71.640945 0.357232 -16.083004
v 20.265394 -2.313051 -12.710943
v 20.265059 -3.855584 -9.300168
v 20.264072 6.971630 -14.665115
v 20.265274 7.107161 0.000000
v 77.209007 -8.413609 11.743648
v 81.260017 6.081699 7.933943
v 81.867218 9.946144 14.431840
v 80.418236 -0.460524 7.193524
v 78.195076 -7.934037 12.391368
v 79.363457 -5.645866 15.930886
v 74.294052 -0.114844 13.668091
v 74.246948 -6.448443 9.133308
v 75.819496 10.104835 13.842690
v 75.442657 5.278230 9.297139
v 20.264664 -2.586934 17.204370
v 20.265890 2.800810 7.471303
v 20.263868 2.228155 1.578797
v 71.732735 0.407190 2.517106
v 72.838364 -6.118462 16.273350
v 61.238430 1.330623 9.189052
v 60.962284 -8.349245 3.868522
v 60.538174 -5.700886 2.639495
v 60.193600 0.739905 10.037154
v 71.281830 8.316413 14.518497
v 61.267509 -5.957130 5.720016
v 49.485321 -4.992261 4.933090
v 45.601562 1.223324 6.882032
v 46.695232 6.816222 12.316331
v 47.043781 6.663713 14.222158
v 50.382378 -4.519935 15.951596
v 46.731384 1.763585 4.798635
v 60.415806 7.644116 11.600013
v 60.936131 7.519447 10.521892
v 46.646210 -6.920057 6.317610
v 46.230316 -4.815236 14.510118
v 47.241203 -4.363332 10.878224
v 43.308453 -6.292440 14.682618
v 44.178062 -4.079068 6.955084
v 43.504066 -4.681976 17.414545
v 35.977348 3.111612 13.876102
v 36.259029 8.683961 7.502644
v 35.936691 8.924899 5.179396
v 34.617241 2.729724 3.177335
v 70.987663 8.051786 10.119942
v 49.943420 -6.861849 15.499416
v 49.321884 1.617448 11.986692
v 49.079151 6.302315 6.913683
v 48.539825 6.430010 4.806091
v 48.442986 1.133678 7.791547
v 73.788239 -8.163170 0.000000
v 75.187836 10.886936 0.000000
v 72.451744 -6.192507 16.083010
v 20.265392 -2.313049 12.710947
v 20.265028 -3.855581 9.300168
v 20.264084 6.971631 14.665112
v 20.265312 7.107163 -1.578796
v 71.732735 0.407189 -4.806091
v 48.443001 1.133676 -4.933091
v 45.601582 1.223325 -5.179392
v 34.617271 2.729719 -2.639495
v 60.193584 0.739910 -7.471301
v 20.263887 2.228152 -0.000000
v 71.640945 0.357232 0.000000
v 71.916679 6.790862 -0.000000
v 71.640945 0.357232 0.000000
v 75.187836 10.886936 1.578797
v 71.732735 0.407190 4.806091
v 48.442986 1.133678 4.933090
v 45.601562 1.223324 5.179396
v 34.617241 2.729724 2.639495
v 60.193600 0.739905 7.471303
v 20.263868 2.228155 0.000000
v 77.209007 -8.413609 0.000000
v 72.451744 -6.192507 -0.000000
v 71.640945 0.357232 0.000000
v 82.091530 10.272735 0.963127
v 89.524597 -12.124764 0.000004
v 90.803291 7.235642 -0.000000
v 116.892326 7.123108 0.000001
v 113.371773 -2.496196 0.000137
v 122.715332 5.133417 0.000031
v 118.314743 -4.114750 0.000001
v 100.835388 -12.674532 0.000001
v 105.225021 -11.664289 0.000001
v 108.294167 -8.798119 0.000001
v 96.662270 -11.317687 0.000001
v 108.806664 10.579059 0.000000
v 103.149330 9.835349 0.000000
v 97.175545 7.428014 -0.000000
v 113.590782 9.239216 10.834914
v 89.931992 -6.636344 8.714857
v 90.654495 5.552441 12.054165
v 90.267494 -0.861380 6.049320
v 89.665192 -10.480826 5.190528
v 116.160027 4.788218 5.469828
v 114.928932 0.045153 5.032430
v 121.847519 2.502450 4.507651
v 119.760361 -1.870052 8.555395
v 112.894318 -1.010732 7.474739
v 113.007729 9.103580 11.144751
v 104.682236 -5.400543 5.854774
v 103.219734 9.453985 11.197357
v 100.154442 -0.182002 11.833633
v 102.737144 -0.285417 6.856555
v 108.812561 10.354854 10.574053
v 102.912727 7.247278 11.071570
v 108.948112 -3.279774 8.652482
v 114.797333 4.409355 10.821486
v 108.826065 9.502803 5.142607
v 96.773407 -10.108642 8.679107
v 96.923622 -6.864006 10.344481
v 97.082573 -0.407184 8.546874
v 97.134483 4.455923 4.849368
v 97.160446 7.346550 8.441718
v 108.669388 -5.247292 4.995442
v 100.933319 -12.903397 9.149507
v 100.805145 -10.725889 4.812863
v 105.393669 -11.695385 5.110183
v 108.848457 -7.744831 9.226661
v 105.348389 -9.774713 10.599209
v 100.507278 -7.078847 15.018469
v 80.045540 4.944292 9.343515
v 80.670303 11.532627 18.728317
v 79.179306 -1.623729 8.507834
v 76.891602 -13.977366 15.986402
v 78.093903 -9.102686 -0.000002
v 80.719711 12.747849 -0.000002
v 75.876900 -15.478487 11.811705
v 112.338745 8.069151 11.296626
v 112.700241 -0.520378 11.897762
v 113.782806 4.031903 9.500144
v 85.673294 7.595358 16.037207
v 84.560593 -1.639572 7.384174
v 83.276596 -11.890567 0.000000
v 82.705994 -13.780098 0.000000
v 86.166206 9.145259 14.466226
v 83.841293 -7.534059 16.933611
v 71.449036 7.737752 9.018646
v 72.076500 15.464310 0.000002
v 72.184555 16.753242 21.940426
v 70.687286 -1.207588 9.866128
v 69.603546 -16.442791 -0.000004
v 66.361305 -17.845758 17.719074
v 70.018387 -11.589592 11.898492
v 58.015278 -19.471893 5.662418
v 108.084846 -6.645018 9.337523
v 113.769310 4.115405 9.044325
v 112.132088 -0.889024 0.000001
v 111.134422 9.845059 6.995132
v 115.951752 -3.125962 5.554724
v 113.512733 -8.234673 6.120450
v 118.533264 8.010959 7.182825
v 118.125343 3.218963 -0.000000
v 116.342003 10.226826 0.000001
v 111.986549 -9.745902 -0.000000
v 108.810760 2.955400 18.945877
v 61.616180 9.749524 9.942153
v 61.965244 18.334507 -0.000002
v 62.120605 20.260590 24.968674
v 61.091675 -0.731862 19.783630
v 59.425217 -13.992229 10.956725
v 115.008278 -11.265156 6.995132
v 117.578209 -3.128706 4.715944
v 115.139404 -7.396272 9.357481
v 121.616478 9.482133 6.120449
v 120.159721 8.010621 7.182825
v 119.751808 3.216215 2.029881
v 120.961540 13.378368 0.000000
v 118.756012 10.226829 0.000001
v 113.613029 -9.745903 4.487731
v 111.982643 -12.929513 0.000000
v 110.437241 2.955399 13.113278
v 120.558479 -0.377079 13.505494
v 113.747101 -5.940575 15.051873
v 116.565521 3.643012 7.138430
v 117.433357 13.376839 7.869543
v 107.939758 -10.216025 10.956717
v 109.137627 -6.454597 6.995132
v 113.388275 -3.121635 4.715945
v 110.945717 -7.395515 11.894390
v 114.563698 9.489454 6.120449
v 113.959656 10.569691 7.182825
v 116.890022 3.511480 4.509881
v 113.192902 14.405766 1.111534
v 114.048378 13.026883 13.113281
v 115.244255 -0.753097 0.000001
v 109.423065 -9.745903 3.007607
v 105.396233 -12.929245 0.000000
v 106.247307 2.955398 12.558367
v 104.104195 6.846446 12.934984
v 104.140335 0.053486 24.556801
v 100.422852 4.999410 25.941996
v 103.696632 -1.666893 27.406576
v 107.623795 4.916010 42.556335
v 93.429192 4.155308 24.920204
v 104.097740 7.439132 24.697285
v 100.579323 0.262088 27.291203
v 107.460999 0.017345 26.851065
v 99.492325 4.721243 29.583441
v 106.736816 4.979863 29.003241
v 102.519791 6.985715 27.135822
v 103.275787 7.461077 29.508961
v 106.545952 -0.010033 28.176710
v 102.746185 -1.746944 26.920525
v 99.600105 0.249561 32.524975
v 96.533493 -0.304349 34.043423
v 100.166855 -2.821110 35.712116
v 104.491241 -0.809357 35.860458
v 104.553238 5.244605 34.062183
v 100.325882 7.442337 32.386604
v 96.575600 4.906697 37.894646
v 94.969604 4.434677 39.474911
v 98.123512 6.593175 39.392231
v 97.946243 -2.590850 37.857899
v 94.890839 -0.167297 41.111176
v 101.783661 4.806385 41.100563
v 101.760933 -0.781436 42.308525
v 93.345856 -0.186627 45.099121
v 99.779861 -0.829889 43.942329
v 96.242493 6.017169 45.344963
v 99.612640 4.512877 43.616524
v 96.132324 -2.531473 12.631454
v 109.094330 -1.948165 13.762179
v 108.599670 8.878240 14.934417
v 112.199341 6.184321 14.577418
v 112.021759 0.391337 -10.834920
v 89.931992 -6.400925 -8.714854
v 90.654495 5.610000 -12.054165
v 90.267494 -0.696931 -6.049317
v 89.665192 -10.306493 -5.190527
v 116.160027 4.788219 -5.469827
v 114.928932 0.045152 -5.032370
v 121.847504 2.502449 -4.507605
v 119.760345 -1.870051 -8.555399
v 112.897125 -1.008684 -7.474739
v 113.002655 9.105531 -11.144746
v 104.695572 -5.408213 -5.854774
v 103.219734 9.453983 -11.197357
v 100.154442 -0.182002 -11.833633
v 102.739380 -0.290322 -6.856554
v 108.806519 10.353596 -10.574055
v 102.909088 7.242287 -11.071575
v 108.954964 -3.280429 -8.652481
v 114.795921 4.412830 -10.821486
v 108.819618 9.502116 -5.142606
v 96.773407 -10.108643 -8.679106
v 96.923622 -6.864009 -10.344481
v 97.082573 -0.407184 -8.546873
v 97.134483 4.455924 -4.849368
v 97.160446 7.346550 -8.441721
v 108.676933 -5.248643 -4.995440
v 100.933319 -12.903399 -9.149503
v 100.805145 -10.725895 -4.812863
v 105.393669 -11.695383 -5.110180
v 108.848457 -7.744831 -9.226659
v 105.348389 -9.774716 -10.599208
v 100.507278 -7.078849 -15.018467
v 80.045540 4.990499 -9.343517
v 80.670311 11.542263 -18.728321
v 79.179306 -1.512771 -8.507843
v 76.891602 -13.886658 -15.986408
v 78.093903 -8.957855 -11.811706
v 112.332352 8.072435 -11.296628
v 112.703865 -0.516821 -11.897762
v 113.781120 4.036810 -9.500151
v 85.673294 7.626810 -16.037203
v 84.560593 -1.488286 -7.384179
v 83.276596 -11.760242 -14.466225
v 83.841293 -7.323404 -16.933611
v 71.449036 7.750664 -9.018647
v 72.076500 15.465399 -21.940434
v 70.687279 -1.163803 -9.866132
v 69.603546 -16.399092 -17.719082
v 70.018394 -11.524881 -11.898506
v 58.015270 -19.471889 -5.662412
v 108.084846 -6.645020 -9.337524
v 113.768127 4.118236 -9.044330
v 112.134796 -0.887450 -6.995131
v 115.960632 -3.117863 -5.554720
v 113.512733 -8.234674 -6.120449
v 118.533264 8.010959 -7.182825
v 118.124359 3.230338 -18.945881
v 61.616184 9.750261 -9.942158
v 61.965244 18.334515 -24.968685
v 61.091675 -0.729079 -19.783640
v 59.425220 -13.991112 -10.956722
v 115.029846 -11.257096 -6.995131
v 117.587105 -3.118200 -4.715939
v 115.139397 -7.396273 -9.357484
v 121.605721 9.499412 -6.120449
v 120.159721 8.010621 -7.182827
v 119.750824 3.229998 -2.029881
v 120.961540 13.378371 -4.487728
v 111.982643 -12.929515 -13.113281
v 120.563087 -0.360081 -13.505496
v 113.760384 -5.933516 -15.051871
v 116.563866 3.654758 -7.138430
v 117.433350 13.376839 -7.869541
v 107.959717 -10.219481 -10.956722
v 109.151726 -6.455227 -6.995133
v 113.397179 -3.117329 -4.715943
v 110.945724 -7.395516 -11.894394
v 114.552956 9.497162 -6.120449
v 113.959656 10.569691 -7.182827
v 116.888580 3.521028 -4.509880
v 113.192902 14.405766 -1.111534
v 114.048378 13.026883 -13.113284
v 115.249451 -0.743964 -3.007602
v 105.396233 -12.929245 -12.558365
v 104.098358 6.839805 -12.934985
v 104.143814 0.047008 -24.556797
v 100.422859 4.999437 -25.942001
v 103.696594 -1.666890 -27.406584
v 107.623817 4.915981 -42.556335
v 93.429192 4.155304 -24.920204
v 104.097778 7.439136 -24.697287
v 100.579285 0.262113 -27.291203
v 107.460976 0.017320 -26.851065
v 99.492332 4.721245 -29.583441
v 106.736839 4.979861 -29.003235
v 102.519791 6.985713 -27.135815
v 103.275818 7.461077 -29.508961
v 106.545952 -0.010038 -28.176720
v 102.746162 -1.746943 -26.920530
v 99.600105 0.249567 -32.524982
v 96.533493 -0.304356 -34.043434
v 100.166855 -2.821110 -35.712124
v 104.491241 -0.809351 -35.860451
v 104.553238 5.244609 -34.062172
v 100.325874 7.442337 -32.386604
v 96.575600 4.906689 -37.894642
v 94.969604 4.434673 -39.474899
v 98.123512 6.593174 -39.392239
v 97.946243 -2.590851 -37.857903
v 94.890839 -0.167303 -41.111176
v 101.783661 4.806387 -41.100563
v 101.760933 -0.781431 -42.308525
v 93.345856 -0.186630 -45.099121
v 99.779861 -0.829887 -43.942329
v 96.242493 6.017168 -45.344963
v 99.612640 4.512878 -43.616528
v 96.132324 -2.531474 -12.631456
v 109.099144 -1.948253 -13.762180
v 108.593010 8.877915 -14.934415
v 112.195534 6.187883 -14.577421
v 112.024086 0.394639 5.190528
v 116.160027 4.788218 -0.000000
v 116.892326 7.123108 0.000001
v 113.371773 -2.496196 5.469828
v 114.928932 0.045153 5.190528
v 116.160027 4.788218 8.652482
v 114.797333 4.409355 8.652482
v 114.797333 4.409355 8.555395
v 112.894318 -1.010732 7.474739
v 113.007729 9.103580 11.071570
v 108.948112 -3.279774 10.821486
v 108.826065 9.502803 7.474739
v 113.007729 9.103580 0.000001
v 108.294167 -8.798119 5.554724
v 113.512733 -8.234673 6.995132
v 115.951752 -3.125962 7.182825
v 118.125343 3.218963 6.120450
v 118.533264 8.010959 -0.000000
v 116.342003 10.226826 6.995132
v 115.951752 -3.125962 0.000001
v 111.986549 -9.745902 11.071570
v 108.948112 -3.279774 11.144751
v 104.682236 -5.400543 8.441718
v 108.669388 -5.247292 5.110183
v 108.848457 -7.744831 9.226661
v 105.348389 -9.774713 4.812863
v 105.393669 -11.695385 6.995132
v 117.578209 -3.128706 15.051873
v 116.565521 3.643012 6.995132
v 113.388275 -3.121635 1.111534
v 114.048378 13.026883 10.821486
v 108.826065 9.502803 10.574053
v 102.912727 7.247278 11.833633
v 102.737144 -0.285417 12.558367
v 104.104195 6.846446 11.833633
v 102.737144 -0.285417 24.556801
v 100.422852 4.999410 11.296626
v 112.700241 -0.520378 11.897762
v 113.782806 4.031903 26.851065
v 99.492325 4.721243 24.697285
v 100.579323 0.262088 27.291203
v 107.460999 0.017345 25.941996
v 103.696632 -1.666893 24.556801
v 100.422852 4.999410 27.406576
v 107.623795 4.916010 24.556801
v 100.422852 4.999410 24.920204
v 104.097740 7.439132 37.894646
v 94.969604 4.434677 32.386604
v 96.575600 4.906697 42.556335
v 93.429192 4.155308 11.071570
v 108.948112 -3.279774 11.071570
v 108.948112 -3.279774 11.811705
v 112.338745 8.069151 10.821486
v 108.826065 9.502803 13.762179
v 108.599670 8.878240 14.934417
v 112.199341 6.184321 11.897762
v 113.782806 4.031903 14.577418
v 112.021759 0.391337 11.296626
v 112.700241 -0.520378 -0.000000
v 116.892326 7.123108 0.000137
v 122.715332 5.133417 0.000001
v 113.371773 -2.496196 0.000031
v 118.314743 -4.114750 0.000001
v 96.662270 -11.317687 0.000001
v 108.806664 10.579059 -5.190527
v 116.160027 4.788219 -0.000000
v 116.892326 7.123108 0.000001
v 89.524597 -12.124764 0.000000
v 97.175545 7.428014 0.000000
v 103.149330 9.835349 0.000004
v 90.803291 7.235642 0.000001
v 108.294167 -8.798119 0.000001
v 105.225021 -11.664289 0.000001
v 100.835388 -12.674532 -0.000000
v 113.590782 9.239216 0.000001
v 113.371773 -2.496196 -5.469827
v 114.928932 0.045152 -5.190527
v 116.160027 4.788219 -8.652481
v 114.795921 4.412830 -8.652481
v 114.795921 4.412830 -8.555399
v 112.897125 -1.008684 -7.474739
v 113.002655 9.105531 -11.071575
v 108.954964 -3.280429 -10.821486
v 108.819618 9.502116 0.000000
v 82.705994 -13.780098 0.000000
v 86.166206 9.145259 -0.000002
v 80.719711 12.747849 -0.000002
v 75.876900 -15.478487 0.000002
v 72.184555 16.753242 -0.000004
v 66.361305 -17.845758 -7.474739
v 113.002655 9.105531 -0.000000
v 116.342003 10.226826 0.000001
v 111.134422 9.845059 0.000001
v 111.986549 -9.745902 0.000001
v 108.294167 -8.798119 -5.554720
v 113.512733 -8.234674 -6.995131
v 115.960632 -3.117863 -0.000000
v 108.810760 2.955400 -7.182825
v 118.124359 3.230338 -6.120449
v 118.533264 8.010959 -0.000000
v 116.342003 10.226826 -6.995131
v 115.960632 -3.117863 0.000001
v 111.986549 -9.745902 -11.071575
v 108.954964 -3.280429 -8.441721
v 108.676933 -5.248643 -11.144746
v 104.695572 -5.408213 -5.110180
v 108.848457 -7.744831 -9.226659
v 105.348389 -9.774716 -4.812863
v 105.393669 -11.695383 -0.000002
v 62.120605 20.260590 0.000000
v 118.756012 10.226829 -6.995131
v 117.587105 -3.118200 0.000001
v 113.613029 -9.745903 0.000000
v 110.437241 2.955399 -15.051871
v 116.563866 3.654758 -6.995133
v 113.397179 -3.117329 0.000001
v 109.423065 -9.745903 0.000000
v 106.247307 2.955398 -1.111534
v 114.048378 13.026883 -10.821486
v 108.819618 9.502116 -10.574055
v 102.909088 7.242287 -11.833633
v 102.739380 -0.290322 -12.558365
v 104.098358 6.839805 -11.833633
v 102.739380 -0.290322 -24.556797
v 100.422859 4.999437 -11.296628
v 112.703865 -0.516821 -11.897762
v 113.781120 4.036810 -26.851065
v 99.492332 4.721245 -24.697287
v 100.579285 0.262113 -27.291203
v 107.460976 0.017320 -25.942001
v 103.696594 -1.666890 -24.556797
v 100.422859 4.999437 -27.406584
v 107.623817 4.915981 -24.556797
v 100.422859 4.999437 -24.920204
v 104.097778 7.439136 -37.894642
v 94.969604 4.434673 -32.386604
v 96.575600 4.906689 -42.556335
v 93.429192 4.155304 -11.071575
v 108.954964 -3.280429 -11.071575
v 108.954964 -3.280429 -11.811706
v 112.332352 8.072435 -13.762180
v 108.593010 8.877915 -10.821486
v 108.819618 9.502116 -14.934415
v 112.195534 6.187883 -11.897762
v 113.781120 4.036810 -11.296628
v 112.703865 -0.516821 -14.577421
v 112.024086 0.394639 0.563525

vt 0.020033 0.496699
vt 0.020033 0.232411
vt 0.020033 0.980279
vt 0.479695 0.496702
vt 0.479696 0.013125
vt 0.479697 0.921042
vt 0.666687 0.496704
vt 0.666629 0.072367
vt 0.666696 0.794349
vt 0.846392 0.496788
vt 0.987222 0.200087
vt 0.846402 0.921289
vt 0.270657 0.496700
vt 0.270657 0.072110
vt 0.270657 0.496752
vt 0.846288 0.760987
vt 0.020033 0.496699
vt 0.020033 0.232411
vt 0.020033 0.980279
vt 0.479695 0.496702
vt 0.479696 0.013125
vt 0.479697 0.921042
vt 0.666687 0.496704
vt 0.666629 0.072367
vt 0.666696 0.794349
vt 0.846392 0.496788
vt 0.987222 0.200087
vt 0.846402 0.921289
vt 0.270657 0.496700
vt 0.270657 0.072110
vt 0.270657 0.496752
vt 0.846288 0.232411
vt 0.020033 0.013125
vt 0.479697 0.072367
vt 0.666696 0.496788
vt 0.987222 0.200087
vt 0.846402 0.072110
vt 0.270657 0.496752
vt 0.846288 0.496699
vt 0.020033 0.496702
vt 0.479696 0.496704
vt 0.666629 0.496700
vt 0.270657 0.760987
vt 0.020033 0.496699
vt 0.020033 0.232411
vt 0.020033 0.980279
vt 0.479695 0.496702
vt 0.479696 0.013125
vt 0.479697 0.921042
vt 0.666687 0.496704
vt 0.666629 0.072367
vt 0.666696 0.794349
vt 0.846392 0.496788
vt 0.987222 0.200087
vt 0.846402 0.921289
vt 0.270657 0.496700
vt 0.270657 0.072110
vt 0.270657 0.496752
vt 0.846288 0.760987
vt 0.020033 0.496699
vt 0.020033 0.232411
vt 0.020033 0.980279
vt 0.479695 0.496702
vt 0.479696 0.013125
vt 0.479697 0.921042
vt 0.666687 0.496704
vt 0.666629 0.072367
vt 0.666696 0.794349
vt 0.846392 0.496788
vt 0.987222 0.200087
vt 0.846402 0.921289
vt 0.270657 0.496700
vt 0.270657 0.072110
vt 0.270657 0.496752
vt 0.846288 0.232411
vt 0.020033 0.013125
vt 0.479697 0.072367
vt 0.666696 0.200087
vt 0.846402 0.072110
vt 0.270657 0.496702
vt 0.479696 0.496700
vt 0.270657 0.496704
vt 0.666629 0.496788
vt 0.987222 0.496752
vt 0.846288 0.496699
vt 0.020033 1.000000
vt 0.862458 0.161486
vt 0.920535 0.115372
vt 0.931587 0.207182
vt 0.913710 0.297684
vt 0.914220 0.249446
vt 0.911556 0.205829
vt 0.869977 0.252907
vt 0.873316 0.119102
vt 0.887925 0.165500
vt 0.878400 0.308483
vt 0.501504 0.192949
vt 0.501461 0.367469
vt 0.501487 0.012913
vt 0.832008 0.353365
vt 0.876734 0.196123
vt 0.785943 0.295000
vt 0.788338 0.340396
vt 0.783915 0.387101
vt 0.771989 0.127031
vt 0.851487 0.251410
vt 0.788872 0.325450
vt 0.705141 0.367405
vt 0.668631 0.102053
vt 0.675084 0.147003
vt 0.677168 0.249537
vt 0.710360 0.198314
vt 0.676988 0.084960
vt 0.780084 0.138100
vt 0.784379 0.286221
vt 0.685911 0.322788
vt 0.681821 0.249414
vt 0.686579 0.284650
vt 0.659793 0.246364
vt 0.663347 0.320770
vt 0.661643 0.199254
vt 0.601412 0.150209
vt 0.602825 0.107344
vt 0.603185 0.367903
vt 0.596234 0.069505
vt 0.852515 0.288001
vt 0.709357 0.196957
vt 0.696697 0.145429
vt 0.692113 0.101276
vt 0.687890 0.054811
vt 0.685777 0.299419
vt 0.878651 0.065159
vt 0.944989 0.006047
vt 0.841197 0.253584
vt 0.501473 0.281433
vt 0.501489 0.107429
vt 0.501497 0.153622
vt 0.501470 0.354633
vt 0.926318 0.161486
vt 0.920535 0.115372
vt 0.931587 0.207182
vt 0.913710 0.297684
vt 0.914220 0.249446
vt 0.911556 0.205829
vt 0.869977 0.252907
vt 0.873316 0.119102
vt 0.887925 0.165500
vt 0.878400 0.308483
vt 0.501504 0.192949
vt 0.501461 0.367469
vt 0.501487 0.012913
vt 0.832008 0.353365
vt 0.876734 0.196123
vt 0.785943 0.295000
vt 0.788338 0.340396
vt 0.783915 0.387101
vt 0.771989 0.127031
vt 0.851487 0.251410
vt 0.788872 0.325450
vt 0.705141 0.367405
vt 0.668631 0.102053
vt 0.675084 0.147003
vt 0.677168 0.249537
vt 0.710360 0.198314
vt 0.676988 0.084960
vt 0.780084 0.138100
vt 0.784379 0.286221
vt 0.685911 0.322788
vt 0.681821 0.249414
vt 0.686579 0.284650
vt 0.659793 0.246364
vt 0.663347 0.320770
vt 0.661643 0.199254
vt 0.601412 0.150209
vt 0.602825 0.107344
vt 0.603185 0.367903
vt 0.596234 0.069505
vt 0.852515 0.288001
vt 0.709357 0.196957
vt 0.696697 0.145429
vt 0.692113 0.101276
vt 0.687890 0.054811
vt 0.685777 0.299419
vt 0.878651 0.053794
vt 0.896609 0.373786
vt 0.888724 0.253584
vt 0.501473 0.281433
vt 0.501489 0.107429
vt 0.501497 0.153622
vt 0.501470 0.402648
vt 0.846049 0.371423
vt 0.687842 0.055986
vt 0.666637 0.058463
vt 0.594997 0.035404
vt 0.767212 0.068279
vt 0.501497 0.411110
vt 0.856211 0.036873
vt 0.862458 0.006047
vt 0.841197 0.053794
vt 0.896609 0.402648
vt 0.846049 0.371423
vt 0.687842 0.055986
vt 0.666637 0.058463
vt 0.594997 0.035404
vt 0.767212 0.068279
vt 0.501497 0.354633
vt 0.926318 0.373786
vt 0.888724 0.411110
vt 0.856211 0.065159
vt 0.944989 1.000000
vt 0.422065 0.917715
vt 0.419773 0.319854
vt 0.387231 0.419902
vt 0.407410 0.300462
vt 0.438300 0.412031
vt 0.454395 0.399991
vt 0.632305 0.415626
vt 0.691752 0.457320
vt 0.765956 0.410872
vt 0.560877 0.955568
vt 0.699213 0.955367
vt 0.624687 0.950461
vt 0.545503 0.948164
vt 0.771336 0.600503
vt 0.421327 0.818231
vt 0.420353 0.689345
vt 0.420923 0.518939
vt 0.421741 0.352571
vt 0.398018 0.388989
vt 0.405860 0.331203
vt 0.455258 0.371662
vt 0.452534 0.649214
vt 0.814794 0.850426
vt 0.759841 0.638590
vt 0.658052 0.876541
vt 0.617472 0.697152
vt 0.588468 0.709749
vt 0.634245 0.864127
vt 0.688512 0.808135
vt 0.621451 0.663316
vt 0.730684 0.689149
vt 0.855561 0.808503
vt 0.686730 0.509385
vt 0.548195 0.593097
vt 0.539142 0.687694
vt 0.548069 0.783457
vt 0.546948 0.878663
vt 0.539527 0.597608
vt 0.727180 0.497013
vt 0.609412 0.561422
vt 0.597994 0.491620
vt 0.669453 0.523570
vt 0.754711 0.565834
vt 0.656365 0.613387
vt 0.600422 0.792918
vt 0.230039 0.877767
vt 0.233195 0.690725
vt 0.225134 0.504974
vt 0.216609 0.596942
vt 0.220455 0.970145
vt 0.235518 0.378909
vt 0.213062 0.107460
vt 0.393411 0.212326
vt 0.401408 0.155687
vt 0.398066 0.823941
vt 0.300010 0.692282
vt 0.298422 0.505605
vt 0.296793 0.393736
vt 0.296851 0.950867
vt 0.300353 0.600009
vt 0.296894 0.804297
vt 0.129385 0.887453
vt 0.128834 0.984792
vt 0.128732 0.690677
vt 0.129480 0.504281
vt 0.129167 0.372240
vt 0.120858 0.592453
vt 0.129465 0.501561
vt 0.011577 0.496094
vt 0.992188 0.609375
vt 0.992188 0.558594
vt 0.992188 0.722656
vt 0.992188 0.554688
vt 0.914062 0.492188
vt 0.914062 0.664062
vt 0.914062 0.613281
vt 0.914062 0.722656
vt 0.914062 0.425781
vt 0.914062 0.695312
vt 0.863281 0.799296
vt 0.011424 0.888753
vt 0.010756 0.998148
vt 0.010632 0.704410
vt 0.011540 0.592683
vt 0.011521 0.959302
vt 0.994079 0.848416
vt 0.893020 0.817034
vt 0.963712 0.959302
vt 0.994079 0.817034
vt 0.963712 0.848416
vt 0.893020 0.959302
vt 0.994079 0.848416
vt 0.893020 0.848416
vt 0.893020 0.959302
vt 0.994079 0.695312
vt 0.863281 0.979593
vt 0.847532 0.959302
vt 0.994079 0.959302
vt 0.994079 0.959302
vt 0.994079 0.959302
vt 0.994079 0.959302
vt 0.994079 0.848416
vt 0.893020 0.817034
vt 0.963712 0.959302
vt 0.994079 0.817034
vt 0.963712 0.848416
vt 0.893020 0.959302
vt 0.994079 0.848416
vt 0.893020 0.979593
vt 0.847532 0.848416
vt 0.893020 0.959302
vt 0.994079 0.695312
vt 0.863281 0.032840
vt 0.308016 0.308625
vt 0.347439 0.029416
vt 0.233594 0.237287
vt 0.233620 0.132123
vt 0.233645 0.044520
vt 0.038981 0.079902
vt 0.247553 0.288749
vt 0.233587 0.188482
vt 0.233645 0.030010
vt 0.208459 0.132157
vt 0.208495 0.082130
vt 0.200985 0.082011
vt 0.223141 0.188424
vt 0.208492 0.236300
vt 0.208471 0.287037
vt 0.208453 0.285247
vt 0.140269 0.234937
vt 0.140256 0.188272
vt 0.140287 0.131383
vt 0.140368 0.084432
vt 0.140426 0.030827
vt 0.140338 0.038176
vt 0.085944 0.087312
vt 0.085696 0.233787
vt 0.084378 0.282630
vt 0.085467 0.131094
vt 0.085388 0.188323
vt 0.083112 0.280410
vt 0.039003 0.188363
vt 0.039015 0.089769
vt 0.039003 0.130851
vt 0.039006 0.232854
vt 0.039002 0.243216
vt 0.365953 0.065236
vt 0.334544 0.118260
vt 0.342634 0.187880
vt 0.352312 0.600503
vt 0.421327 0.818231
vt 0.420353 0.689345
vt 0.420923 0.518939
vt 0.421741 0.352571
vt 0.398018 0.388989
vt 0.405860 0.331203
vt 0.455258 0.371662
vt 0.452534 0.649214
vt 0.814794 0.850426
vt 0.759841 0.638590
vt 0.658052 0.876541
vt 0.617472 0.697152
vt 0.588468 0.709749
vt 0.634245 0.864127
vt 0.688512 0.808135
vt 0.621451 0.663316
vt 0.730684 0.689149
vt 0.855561 0.808503
vt 0.686730 0.509385
vt 0.548195 0.593097
vt 0.539142 0.687694
vt 0.548069 0.783457
vt 0.546948 0.878663
vt 0.539527 0.597608
vt 0.727180 0.497013
vt 0.609412 0.561422
vt 0.597994 0.491620
vt 0.669453 0.523570
vt 0.754711 0.565834
vt 0.656365 0.613387
vt 0.600422 0.792918
vt 0.230039 0.877767
vt 0.233195 0.690725
vt 0.225134 0.504974
vt 0.216609 0.596942
vt 0.220455 0.107460
vt 0.393411 0.212326
vt 0.401408 0.155687
vt 0.398066 0.823941
vt 0.300010 0.692282
vt 0.298422 0.505605
vt 0.296793 0.600009
vt 0.296894 0.804297
vt 0.129385 0.887453
vt 0.128834 0.690677
vt 0.129480 0.504281
vt 0.129167 0.592453
vt 0.129465 0.501561
vt 0.011577 0.496094
vt 0.992188 0.609375
vt 0.992188 0.558594
vt 0.992188 0.554688
vt 0.914062 0.492188
vt 0.914062 0.664062
vt 0.914062 0.613281
vt 0.914062 0.799296
vt 0.011424 0.888753
vt 0.010756 0.704410
vt 0.011540 0.592683
vt 0.011521 0.959302
vt 0.994079 0.848416
vt 0.893020 0.817034
vt 0.963712 0.959302
vt 0.994079 0.817034
vt 0.963712 0.848416
vt 0.893020 0.959302
vt 0.994079 0.959302
vt 0.994079 0.979593
vt 0.847532 0.959302
vt 0.994079 0.959302
vt 0.994079 0.959302
vt 0.994079 0.959302
vt 0.994079 0.959302
vt 0.994079 0.848416
vt 0.893020 0.817034
vt 0.963712 0.959302
vt 0.994079 0.817034
vt 0.963712 0.848416
vt 0.893020 0.959302
vt 0.994079 0.848416
vt 0.893020 0.979593
vt 0.847532 0.959302
vt 0.994079 0.032840
vt 0.308016 0.308625
vt 0.347439 0.029416
vt 0.233594 0.237287
vt 0.233620 0.132123
vt 0.233645 0.044520
vt 0.038981 0.079902
vt 0.247553 0.288749
vt 0.233587 0.188482
vt 0.233645 0.030010
vt 0.208459 0.132157
vt 0.208495 0.082130
vt 0.200985 0.082011
vt 0.223141 0.188424
vt 0.208492 0.236300
vt 0.208471 0.287037
vt 0.208453 0.285247
vt 0.140269 0.234937
vt 0.140256 0.188272
vt 0.140287 0.131383
vt 0.140368 0.084432
vt 0.140426 0.030827
vt 0.140338 0.038176
vt 0.085944 0.087312
vt 0.085696 0.233787
vt 0.084378 0.282630
vt 0.085467 0.131094
vt 0.085388 0.188323
vt 0.083112 0.280410
vt 0.039003 0.188363
vt 0.039015 0.089769
vt 0.039003 0.130851
vt 0.039006 0.232854
vt 0.039002 0.243216
vt 0.365953 0.065236
vt 0.334544 0.118260
vt 0.342634 0.187880
vt 0.352312 0.856887
vt 0.814133 0.938456
vt 0.826593 0.501919
vt 0.849050 0.566878
vt 0.852082 0.635721
vt 0.895659 0.812749
vt 0.807391 0.142941
vt 0.444915 0.205400
vt 0.444338 0.091508
vt 0.437854 0.265462
vt 0.413618 0.064622
vt 0.386525 0.664062
vt 0.992188 0.425781
vt 0.992188 0.817034
vt 0.963712 0.848416
vt 0.893020 0.848416
vt 0.893020 0.817034
vt 0.963712 0.848416
vt 0.893020 0.847656
vt 0.820312 0.848416
vt 0.893020 0.663316
vt 0.730684 0.638590
vt 0.658052 0.597608
vt 0.727180 0.523570
vt 0.754711 0.565834
vt 0.656365 0.491620
vt 0.669453 0.847656
vt 0.820312 0.979593
vt 0.847532 0.847656
vt 0.820312 0.848416
vt 0.893020 0.058371
vt 0.340266 0.032330
vt 0.310623 0.020946
vt 0.284599 0.380206
vt 0.315693 0.325000
vt 0.360869 0.339722
vt 0.233557 0.186474
vt 0.375316 0.146715
vt 0.365078 0.334315
vt 0.208442 0.288749
vt 0.233587 0.188482
vt 0.233645 0.237287
vt 0.233620 0.339722
vt 0.233557 0.132123
vt 0.233645 0.029416
vt 0.233594 0.079902
vt 0.247553 0.330991
vt 0.086555 0.335150
vt 0.140326 0.327183
vt 0.038976 0.243216
vt 0.365953 0.243216
vt 0.365953 0.098268
vt 0.354650 0.058371
vt 0.340266 0.065236
vt 0.334544 0.118260
vt 0.342634 0.146715
vt 0.365078 0.187880
vt 0.352312 0.186474
vt 0.375316 0.319854
vt 0.387231 0.300462
vt 0.438300 0.419902
vt 0.407410 0.412031
vt 0.454395 0.410872
vt 0.560877 0.955568
vt 0.699213 0.856887
vt 0.814133 0.938456
vt 0.826593 0.436475
vt 0.422065 0.950461
vt 0.545503 0.955367
vt 0.624687 0.917715
vt 0.419773 0.457320
vt 0.765956 0.415626
vt 0.691752 0.399991
vt 0.632305 0.948164
vt 0.771336 0.501919
vt 0.849050 0.566878
vt 0.852082 0.635721
vt 0.895659 0.812749
vt 0.807391 0.142941
vt 0.444915 0.205400
vt 0.444338 0.091508
vt 0.437854 0.265462
vt 0.413618 0.064622
vt 0.386525 0.393736
vt 0.296851 0.950867
vt 0.300353 0.970145
vt 0.235518 0.378909
vt 0.213062 0.984792
vt 0.128732 0.372240
vt 0.120858 0.664062
vt 0.992188 0.722656
vt 0.914062 0.722656
vt 0.992188 0.425781
vt 0.914062 0.425781
vt 0.992188 0.817034
vt 0.963712 0.848416
vt 0.893020 0.695312
vt 0.863281 0.848416
vt 0.893020 0.817034
vt 0.963712 0.848416
vt 0.893020 0.847656
vt 0.820312 0.848416
vt 0.893020 0.663316
vt 0.730684 0.597608
vt 0.727180 0.638590
vt 0.658052 0.523570
vt 0.754711 0.565834
vt 0.656365 0.491620
vt 0.669453 0.998148
vt 0.010632 0.848416
vt 0.893020 0.847656
vt 0.820312 0.848416
vt 0.893020 0.695312
vt 0.863281 0.979593
vt 0.847532 0.847656
vt 0.820312 0.848416
vt 0.893020 0.695312
vt 0.863281 0.848416
vt 0.893020 0.058371
vt 0.340266 0.032330
vt 0.310623 0.020946
vt 0.284599 0.380206
vt 0.315693 0.325000
vt 0.360869 0.339722
vt 0.233557 0.186474
vt 0.375316 0.146715
vt 0.365078 0.334315
vt 0.208442 0.288749
vt 0.233587 0.188482
vt 0.233645 0.237287
vt 0.233620 0.339722
vt 0.233557 0.132123
vt 0.233645 0.029416
vt 0.233594 0.079902
vt 0.247553 0.330991
vt 0.086555 0.335150
vt 0.140326 0.327183
vt 0.038976 0.243216
vt 0.365953 0.243216
vt 0.365953 0.098268
vt 0.354650 0.065236
vt 0.334544 0.058371
vt 0.340266 0.118260
vt 0.342634 0.146715
vt 0.365078 0.186474
vt 0.375316 0.187880
vt 0.352312 1.000000

f 13/13 5/5 14/14
f 5/5 13/13 4/4
f 5/5 15/15 14/14
f 15/15 5/5 6/6
f 4/4 8/8 5/5
f 8/8 4/4 7/7
f 5/5 9/9 6/6
f 9/9 5/5 8/8
f 10/10 11/11 16/16
f 11/11 12/12 16/16
f 1/1 14/14 2/2
f 14/14 1/1 13/13
f 14/14 3/3 2/2
f 3/3 14/14 15/15
f 10/10 8/8 7/7
f 8/8 10/10 16/16
f 8/8 12/12 9/9
f 12/12 8/8 16/16
f 29/29 21/21 30/30
f 21/21 29/29 20/20
f 21/21 31/31 30/30
f 31/31 21/21 22/22
f 20/20 24/24 21/21
f 24/24 20/20 23/23
f 21/21 25/25 22/22
f 25/25 21/21 24/24
f 26/26 27/27 32/32
f 27/27 28/28 32/32
f 17/17 30/30 18/18
f 30/30 17/17 29/29
f 30/30 19/19 18/18
f 19/19 30/30 31/31
f 26/26 24/24 23/23
f 24/24 26/26 32/32
f 24/24 28/28 25/25
f 28/28 24/24 32/32
f 41/41 38/38 43/43
f 38/38 41/41 34/34
f 41/41 35/35 34/34
f 35/35 41/41 42/42
f 36/36 37/37 39/39
f 43/43 33/33 40/40
f 33/33 43/43 38/38
f 42/42 37/37 35/35
f 37/37 42/42 39/39
f 56/56 57/57 48/48
f 48/48 47/47 56/56
f 48/48 57/57 58/58
f 58/58 49/49 48/48
f 47/47 48/48 51/51
f 51/51 50/50 47/47
f 48/48 49/49 52/52
f 52/52 51/51 48/48
f 53/53 59/59 54/54
f 54/54 59/59 55/55
f 44/44 45/45 57/57
f 57/57 56/56 44/44
f 57/57 45/45 46/46
f 46/46 58/58 57/57
f 53/53 50/50 51/51
f 51/51 59/59 53/53
f 51/51 52/52 55/55
f 55/55 59/59 51/51
f 72/72 73/73 64/64
f 64/64 63/63 72/72
f 64/64 73/73 74/74
f 74/74 65/65 64/64
f 63/63 64/64 67/67
f 67/67 66/66 63/63
f 64/64 65/65 68/68
f 68/68 67/67 64/64
f 69/69 75/75 70/70
f 70/70 75/75 71/71
f 60/60 61/61 73/73
f 73/73 72/72 60/60
f 73/73 61/61 62/62
f 62/62 74/74 73/73
f 69/69 66/66 67/67
f 67/67 75/75 69/69
f 67/67 68/68 71/71
f 71/71 75/75 67/67
f 81/81 82/82 80/80
f 80/80 77/77 81/81
f 81/81 77/77 78/78
f 78/78 83/83 81/81
f 84/84 85/85 79/79
f 82/82 86/86 76/76
f 76/76 80/80 82/82
f 83/83 78/78 79/79
f 79/79 85/85 83/83
f 100/100 134/134 87/87
f 95/95 106/106 185/185
f 93/93 94/94 107/107
f 107/107 102/102 93/93
f 132/132 94/94 91/91
f 94/94 103/103 107/107
f 126/126 106/106 114/114
f 106/106 96/96 115/115
f 101/101 105/105 104/104
f 191/191 105/105 101/101
f 103/103 104/104 108/108
f 108/108 127/127 103/103
f 131/131 114/114 130/130
f 128/128 129/129 102/102
f 107/107 127/127 112/112
f 127/127 107/107 103/103
f 117/117 192/192 109/109
f 192/192 108/108 104/104
f 118/118 128/128 112/112
f 111/111 110/110 130/130
f 130/130 129/129 111/111
f 114/114 106/106 115/115
f 108/108 117/117 116/116
f 116/116 127/127 108/108
f 112/112 127/127 116/116
f 116/116 118/118 112/112
f 128/128 118/118 113/113
f 192/192 117/117 108/108
f 123/123 111/111 113/113
f 113/113 122/122 123/123
f 119/119 116/116 117/117
f 117/117 121/121 119/119
f 118/118 116/116 119/119
f 119/119 120/120 118/118
f 125/125 99/99 97/97
f 97/97 121/121 125/125
f 193/193 110/110 124/124
f 124/124 194/194 193/193
f 111/111 123/123 124/124
f 124/124 110/110 111/111
f 113/113 118/118 120/120
f 135/135 98/98 122/122
f 122/122 120/120 135/135
f 122/122 113/113 120/120
f 109/109 121/121 117/117
f 120/120 119/119 135/135
f 136/136 135/135 119/119
f 121/121 109/109 125/125
f 195/195 126/126 114/114
f 126/126 195/195 100/100
f 121/121 97/97 119/119
f 123/123 122/122 98/98
f 98/98 138/138 123/123
f 138/138 124/124 123/123
f 124/124 138/138 137/137
f 196/196 194/194 124/124
f 124/124 137/137 196/196
f 185/185 106/106 126/126
f 139/139 186/186 91/91
f 102/102 96/96 93/93
f 101/101 104/104 103/103
f 132/132 91/91 101/101
f 191/191 101/101 186/186
f 106/106 95/95 96/96
f 128/128 113/113 111/111
f 102/102 107/107 112/112
f 131/131 110/110 193/193
f 115/115 96/96 102/102
f 186/186 101/101 91/91
f 186/186 197/197 191/191
f 126/126 87/87 185/185
f 126/126 100/100 87/87
f 95/95 185/185 133/133
f 88/88 90/90 96/96
f 92/92 94/94 90/90
f 88/88 95/95 89/89
f 133/133 89/89 95/95
f 96/96 90/90 93/93
f 93/93 90/90 94/94
f 94/94 92/92 91/91
f 95/95 88/88 96/96
f 129/129 128/128 111/111
f 128/128 102/102 112/112
f 114/114 115/115 129/129
f 129/129 115/115 102/102
f 131/131 130/130 110/110
f 129/129 130/130 114/114
f 104/104 105/105 192/192
f 195/195 114/114 131/131
f 103/103 132/132 101/101
f 103/103 94/94 132/132
f 119/119 97/97 136/136
f 152/152 198/198 199/199
f 147/147 200/200 158/158
f 145/145 159/159 146/146
f 159/159 145/145 154/154
f 184/184 143/143 146/146
f 146/146 159/159 155/155
f 178/178 166/166 158/158
f 158/158 167/167 148/148
f 153/153 156/156 157/157
f 201/201 153/153 157/157
f 155/155 160/160 156/156
f 160/160 155/155 179/179
f 183/183 182/182 166/166
f 180/180 154/154 181/181
f 159/159 164/164 179/179
f 179/179 155/155 159/159
f 169/169 161/161 202/202
f 202/202 156/156 160/160
f 170/170 164/164 180/180
f 163/163 182/182 162/162
f 182/182 163/163 181/181
f 166/166 167/167 158/158
f 160/160 168/168 169/169
f 168/168 160/160 179/179
f 164/164 168/168 179/179
f 168/168 164/164 170/170
f 180/180 165/165 170/170
f 202/202 160/160 169/169
f 175/175 165/165 163/163
f 165/165 175/175 174/174
f 171/171 169/169 168/168
f 169/169 171/171 173/173
f 170/170 171/171 168/168
f 171/171 170/170 172/172
f 177/177 149/149 151/151
f 149/149 177/177 173/173
f 203/203 176/176 162/162
f 176/176 203/203 204/204
f 163/163 176/176 175/175
f 176/176 163/163 162/162
f 165/165 172/172 170/170
f 187/187 174/174 150/150
f 174/174 187/187 172/172
f 174/174 172/172 165/165
f 161/161 169/169 173/173
f 172/172 187/187 171/171
f 188/188 171/171 187/187
f 173/173 177/177 161/161
f 205/205 166/166 178/178
f 178/178 152/152 205/205
f 173/173 171/171 149/149
f 175/175 150/150 174/174
f 150/150 175/175 190/190
f 190/190 175/175 176/176
f 176/176 189/189 190/190
f 206/206 176/176 204/204
f 176/176 206/206 189/189
f 200/200 178/178 158/158
f 207/207 143/143 208/208
f 154/154 145/145 148/148
f 153/153 155/155 156/156
f 184/184 153/153 143/143
f 201/201 208/208 153/153
f 158/158 148/148 147/147
f 180/180 163/163 165/165
f 154/154 164/164 159/159
f 183/183 203/203 162/162
f 167/167 154/154 148/148
f 208/208 143/143 153/153
f 208/208 201/201 209/209
f 178/178 200/200 198/198
f 178/178 198/198 152/152
f 147/147 210/210 200/200
f 140/140 148/148 142/142
f 144/144 142/142 146/146
f 140/140 141/141 147/147
f 210/210 147/147 141/141
f 148/148 145/145 142/142
f 145/145 146/146 142/142
f 146/146 143/143 144/144
f 147/147 148/148 140/140
f 181/181 163/163 180/180
f 180/180 164/164 154/154
f 166/166 181/181 167/167
f 181/181 154/154 167/167
f 183/183 162/162 182/182
f 181/181 166/166 182/182
f 156/156 202/202 157/157
f 205/205 183/183 166/166
f 155/155 153/153 184/184
f 155/155 184/184 146/146
f 171/171 188/188 149/149
f 511/511 324/324 358/358
f 324/324 511/511 512/512
f 513/513 324/324 512/512
f 514/514 515/515 325/325
f 515/515 357/357 325/325
f 324/324 330/330 358/358
f 330/330 324/324 326/326
f 325/325 516/516 514/514
f 516/516 325/325 331/331
f 332/332 327/327 357/357
f 357/357 360/360 332/332
f 325/325 357/357 327/327
f 327/327 331/331 325/325
f 358/358 328/328 359/359
f 328/328 358/358 330/330
f 332/332 359/359 328/328
f 359/359 332/332 360/360
f 357/357 517/517 360/360
f 360/360 518/518 359/359
f 347/347 345/345 346/346
f 333/333 344/344 335/335
f 519/519 520/520 339/339
f 343/343 342/342 337/337
f 337/337 521/521 334/334
f 522/522 339/339 520/520
f 349/349 341/341 348/348
f 522/522 521/521 337/337
f 343/343 335/335 344/344
f 336/336 333/333 335/335
f 523/523 520/520 519/519
f 334/334 521/521 524/524
f 524/524 336/336 334/334
f 333/333 336/336 525/525
f 336/336 524/524 526/526
f 334/334 336/336 335/335
f 525/525 336/336 526/526
f 341/341 337/337 342/342
f 350/350 355/355 351/351
f 337/337 338/338 522/522
f 339/339 522/522 338/338
f 527/527 340/340 349/349
f 338/338 340/340 339/339
f 528/528 339/339 340/340
f 337/337 341/341 338/338
f 340/340 338/338 341/341
f 348/348 342/342 351/351
f 335/335 343/343 334/334
f 334/334 343/343 337/337
f 350/350 344/344 347/347
f 339/339 528/528 519/519
f 344/344 333/333 345/345
f 329/329 347/347 346/346
f 347/347 329/329 354/354
f 340/340 527/527 528/528
f 356/356 349/349 348/348
f 349/349 356/356 352/352
f 342/342 348/348 341/341
f 344/344 350/350 343/343
f 342/342 350/350 351/351
f 350/350 342/342 343/343
f 352/352 527/527 349/349
f 527/527 352/352 529/529
f 341/341 349/349 340/340
f 353/353 348/348 351/351
f 348/348 353/353 356/356
f 351/351 355/355 353/353
f 354/354 350/350 347/347
f 350/350 354/354 355/355
f 345/345 347/347 344/344
f 530/530 357/357 515/515
f 531/531 517/517 357/357
f 532/532 533/533 534/534
f 534/534 535/535 532/532
f 536/536 537/537 538/538
f 532/532 535/535 536/536
f 599/599 478/478 444/444
f 444/444 600/600 599/599
f 601/601 600/600 444/444
f 602/602 445/445 603/603
f 603/603 445/445 477/477
f 444/444 478/478 450/450
f 450/450 446/446 444/444
f 445/445 602/602 604/604
f 604/604 451/451 445/445
f 452/452 477/477 447/447
f 477/477 452/452 480/480
f 445/445 447/447 477/477
f 447/447 445/445 451/451
f 478/478 479/479 448/448
f 448/448 450/450 478/478
f 452/452 448/448 479/479
f 479/479 480/480 452/452
f 477/477 480/480 605/605
f 480/480 479/479 606/606
f 467/467 466/466 465/465
f 453/453 455/455 464/464
f 607/607 459/459 608/608
f 463/463 457/457 462/462
f 457/457 454/454 609/609
f 610/610 608/608 459/459
f 469/469 468/468 461/461
f 610/610 457/457 609/609
f 463/463 464/464 455/455
f 456/456 455/455 453/453
f 611/611 607/607 608/608
f 454/454 612/612 609/609
f 612/612 454/454 456/456
f 453/453 613/613 456/456
f 456/456 614/614 612/612
f 454/454 455/455 456/456
f 613/613 614/614 456/456
f 461/461 462/462 457/457
f 470/470 471/471 475/475
f 457/457 610/610 458/458
f 459/459 458/458 610/610
f 615/615 469/469 460/460
f 458/458 459/459 460/460
f 616/616 460/460 459/459
f 457/457 458/458 461/461
f 460/460 461/461 458/458
f 468/468 471/471 462/462
f 455/455 454/454 463/463
f 454/454 457/457 463/463
f 470/470 467/467 464/464
f 459/459 607/607 616/616
f 464/464 465/465 453/453
f 449/449 466/466 467/467
f 467/467 474/474 449/449
f 460/460 616/616 615/615
f 476/476 468/468 469/469
f 469/469 472/472 476/476
f 462/462 461/461 468/468
f 464/464 463/463 470/470
f 462/462 471/471 470/470
f 470/470 463/463 462/462
f 472/472 469/469 615/615
f 615/615 617/617 472/472
f 461/461 460/460 469/469
f 473/473 471/471 468/468
f 468/468 476/476 473/473
f 471/471 473/473 475/475
f 474/474 467/467 470/470
f 470/470 475/475 474/474
f 465/465 464/464 467/467
f 618/618 603/603 477/477
f 619/619 477/477 605/605
f 620/620 621/621 622/622
f 621/621 620/620 623/623
f 624/624 625/625 626/626
f 620/620 624/624 623/623
f 231/231 230/230 229/229
f 230/230 231/231 229/229
f 231/231 213/213 215/215
f 213/213 231/231 230/230
f 214/214 232/232 216/216
f 232/232 214/214 250/250
f 244/244 220/220 226/226
f 247/247 248/248 236/236
f 239/239 221/221 240/240
f 237/237 238/238 240/240
f 243/243 236/236 246/246
f 255/255 237/237 481/481
f 482/482 234/234 220/220
f 220/220 244/244 240/240
f 247/247 237/237 246/246
f 237/237 247/247 248/248
f 222/222 223/223 243/243
f 239/239 236/236 245/245
f 244/244 251/251 247/247
f 248/248 247/247 234/234
f 239/239 243/243 212/212
f 248/248 223/223 249/249
f 253/253 233/233 238/238
f 235/235 238/238 252/252
f 219/219 253/253 252/252
f 217/217 218/218 252/252
f 254/254 251/251 218/218
f 219/219 252/252 217/217
f 252/252 250/250 254/254
f 235/235 251/251 255/255
f 244/244 250/250 245/245
f 255/255 246/246 249/249
f 233/233 241/241 255/255
f 245/245 251/251 220/220
f 217/217 250/250 227/227
f 225/225 228/228 239/239
f 234/234 224/224 248/248
f 212/212 226/226 221/221
f 222/222 236/236 482/482
f 224/224 234/234 222/222
f 248/248 236/236 224/224
f 221/221 239/239 241/241
f 238/238 235/235 219/219
f 483/483 253/253 484/484
f 253/253 483/483 484/484
f 242/242 233/233 486/486
f 481/481 234/234 487/487
f 489/489 263/263 488/488
f 264/264 490/490 263/263
f 265/265 487/487 491/491
f 263/263 489/489 266/266
f 227/227 226/226 268/268
f 269/269 211/211 271/271
f 268/268 228/228 270/270
f 226/226 212/212 256/256
f 256/256 267/267 258/258
f 267/267 256/256 268/268
f 259/259 269/269 271/271
f 260/260 268/268 271/271
f 267/267 258/258 259/259
f 268/268 260/260 270/270
f 266/266 270/270 262/262
f 269/269 259/259 268/268
f 211/211 228/228 271/271
f 225/225 227/227 266/266
f 267/267 227/227 266/266
f 226/226 270/270 258/258
f 260/260 271/271 267/267
f 228/228 225/225 272/272
f 272/272 256/256 273/273
f 273/273 257/257 275/275
f 275/275 258/258 277/277
f 262/262 276/276 259/259
f 276/276 259/259 278/278
f 260/260 275/275 258/258
f 275/275 260/260 282/282
f 285/285 284/284 492/492
f 281/281 286/286 285/285
f 282/282 280/280 281/281
f 287/287 286/286 284/284
f 281/281 282/282 492/492
f 283/283 492/492 281/281
f 284/284 287/287 285/285
f 280/280 289/289 493/493
f 289/289 280/280 494/494
f 290/290 495/495 496/496
f 290/290 498/498 499/499
f 290/290 496/496 500/500
f 290/290 494/494 501/501
f 502/502 503/503 504/504
f 503/503 505/505 506/506
f 504/504 505/505 502/502
f 505/505 503/503 291/291
f 291/291 272/272 292/292
f 292/292 273/273 294/294
f 294/294 275/275 279/279
f 279/279 276/276 295/295
f 295/295 278/278 296/296
f 298/298 297/297 299/299
f 301/301 300/300 302/302
f 300/300 303/303 307/307
f 507/507 301/301 298/298
f 305/305 304/304 298/298
f 306/306 297/297 301/301
f 306/306 303/303 507/507
f 306/306 301/301 304/304
f 306/306 298/298 308/308
f 494/494 495/495 309/309
f 496/496 497/497 310/310
f 497/497 498/498 508/508
f 499/499 496/496 494/494
f 311/311 500/500 312/312
f 314/314 313/313 315/315
f 317/317 316/316 318/318
f 316/316 319/319 320/320
f 509/509 317/317 314/314
f 322/322 321/321 314/314
f 323/323 313/313 317/317
f 323/323 510/510 509/509
f 323/323 317/317 321/321
f 323/323 314/314 368/368
f 366/366 367/367 365/365
f 367/367 366/366 365/365
f 539/539 367/367 540/540
f 367/367 539/539 366/366
f 368/368 541/541 542/542
f 541/541 368/368 386/386
f 543/543 380/380 362/362
f 384/384 383/383 372/372
f 544/544 375/375 376/376
f 374/374 373/373 376/376
f 372/372 379/379 382/382
f 373/373 391/391 545/545
f 370/370 546/546 543/543
f 380/380 543/543 376/376
f 373/373 383/383 382/382
f 383/383 373/373 384/384
f 548/548 549/549 379/379
f 372/372 375/375 381/381
f 387/387 380/380 383/383
f 383/383 384/384 370/370
f 379/379 375/375 550/550
f 548/548 384/384 385/385
f 369/369 389/389 374/374
f 374/374 371/371 388/388
f 389/389 551/551 388/388
f 552/552 553/553 388/388
f 387/387 390/390 552/552
f 388/388 551/551 553/553
f 386/386 388/388 390/390
f 387/387 371/371 391/391
f 386/386 380/380 381/381
f 382/382 391/391 385/385
f 377/377 369/369 391/391
f 387/387 381/381 543/543
f 386/386 553/553 363/363
f 364/364 361/361 375/375
f 554/554 370/370 384/384
f 362/362 550/550 544/544
f 372/372 549/549 546/546
f 370/370 554/554 549/549
f 372/372 384/384 554/554
f 375/375 544/544 377/377
f 371/371 374/374 551/551
f 389/389 555/555 556/556
f 555/555 389/389 556/556
f 369/369 378/378 558/558
f 370/370 545/545 559/559
f 397/397 561/561 560/560
f 562/562 398/398 397/397
f 559/559 399/399 563/563
f 561/561 397/397 400/400
f 362/362 363/363 402/402
f 547/547 564/564 403/403
f 364/364 402/402 565/565
f 550/550 362/362 392/392
f 401/401 392/392 394/394
f 392/392 401/401 402/402
f 564/564 395/395 403/403
f 402/402 396/396 403/403
f 394/394 401/401 395/395
f 396/396 402/402 565/565
f 565/565 400/400 567/567
f 395/395 564/564 402/402
f 364/364 547/547 403/403
f 363/363 361/361 400/400
f 363/363 401/401 400/400
f 565/565 362/362 394/394
f 403/403 396/396 401/401
f 361/361 364/364 404/404
f 392/392 404/404 405/405
f 393/393 405/405 406/406
f 394/394 406/406 569/569
f 407/407 567/567 395/395
f 395/395 407/407 408/408
f 406/406 396/396 394/394
f 396/396 406/406 412/412
f 413/413 414/414 570/570
f 415/415 411/411 414/414
f 410/410 412/412 411/411
f 415/415 416/416 413/413
f 412/412 411/411 570/570
f 570/570 572/572 411/411
f 416/416 413/413 414/414
f 573/573 410/410 574/574
f 410/410 573/573 575/575
f 576/576 577/577 578/578
f 580/580 577/577 581/581
f 578/578 577/577 582/582
f 575/575 577/577 583/583
f 584/584 585/585 586/586
f 587/587 584/584 588/588
f 587/587 586/586 585/585
f 584/584 587/587 417/417
f 404/404 417/417 418/418
f 405/405 418/418 419/419
f 406/406 419/419 409/409
f 407/407 409/409 420/420
f 408/408 420/420 421/421
f 422/422 423/423 424/424
f 425/425 426/426 427/427
f 590/590 425/425 429/429
f 426/426 591/591 423/423
f 592/592 428/428 423/423
f 422/422 593/593 426/426
f 590/590 593/593 591/591
f 426/426 593/593 592/592
f 423/423 593/593 430/430
f 576/576 575/575 431/431
f 579/579 578/578 432/432
f 580/580 579/579 594/594
f 578/578 581/581 575/575
f 582/582 433/433 434/434
f 435/435 436/436 437/437
f 438/438 439/439 440/440
f 441/441 438/438 442/442
f 439/439 595/595 436/436
f 596/596 443/443 436/436
f 435/435 597/597 439/439
f 598/598 597/597 595/595
f 439/439 597/597 596/596
