# MOD converted: [r]temple_e_w_clothhead005.mod
# 292 verts, 12 faces

v 169.927612 -4.425798 8.387511
v 171.372818 6.472384 9.766912
v 167.889908 17.750040 18.617146
v 161.503174 16.960890 10.739386
v 161.815765 23.053123 9.964676
v 160.766144 -17.893269 24.475103
v 152.210526 7.571158 21.134588
v 151.343719 18.296284 11.099770
v 150.724091 26.375813 26.044533
v 140.868774 -1.451124 26.860363
v 140.933334 8.395392 21.544106
v 138.976593 19.499727 11.509858
v 137.323608 27.200268 17.076677
v 136.693649 -15.723169 17.001451
v 130.051956 -12.492790 23.331139
v 130.911469 -5.350553 22.456987
v 140.516113 -8.841946 25.986614
v 131.274048 -1.008366 27.139252
v 130.736603 9.011505 20.518866
v 129.092346 18.941868 11.152560
v 128.647324 26.936089 9.982049
v 120.632294 21.506618 16.217175
v 120.427902 14.540111 24.937405
v 124.226326 -2.600109 26.944662
v 126.304810 7.807917 7.635658
v 115.712708 8.681097 11.695862
v 116.129837 6.076002 21.157373
v 119.832245 5.289737 13.849789
v 116.115753 1.758105 13.484255
v 118.074745 -2.996887 6.529597
v 114.731750 -5.733426 10.846594
v 115.093887 -2.934145 6.684767
v 116.941917 -6.008686 7.468655
v 110.207825 10.487660 12.304368
v 110.754120 8.374513 15.692962
v 111.680817 3.618907 13.623965
v 110.449776 -1.854393 9.436129
v 108.018173 -6.474812 18.433083
v 123.433662 -11.837364 13.079381
v 119.030067 -9.412040 9.618872
v 145.693390 -20.907351 6.611235
v 127.334190 7.237448 13.762750
v 126.643272 2.389653 17.250605
v 142.516998 3.936853 11.579660
v 144.302704 -2.505373 6.492308
v 107.460869 -10.097992 13.894078
v 168.000580 6.844244 9.407072
v 165.831696 -12.791658 13.202305
v 139.549408 -18.143810 19.952198
v 161.853210 -3.405630 20.888596
v 151.159058 -12.151731 15.874544
v 160.094147 -14.866419 14.801138
v 166.972504 -4.205116 24.305889
v 152.383438 -2.336296 19.880024
v 162.508759 6.779185 26.360329
v 133.660950 5.222429 26.074776
v 129.629181 6.342770 27.202023
v 128.899933 9.152540 23.432137
v 130.666916 6.454434 10.231645
v 153.450012 -20.193790 15.948939
v 151.713013 -18.172735 18.289478
v 142.051453 2.363773 15.090594
v 144.152100 -10.606374 12.654679
v 144.702271 -12.684706 16.506830
v 143.359024 -17.767853 6.755747
v 107.348129 10.570714 0.243357
v 116.322380 -7.025416 4.612616
v 116.078438 -8.358277 2.014522
v 110.878784 -10.293702 -0.298997
v 113.415573 -7.708694 7.344939
v 109.654236 -10.058299 7.240104
v 112.991165 -9.670378 0.188886
v 115.143272 -8.157028 0.000001
v 155.504532 -19.706932 12.746917
v 154.001801 -16.985300 18.158794
v 152.678589 -13.880230 12.878198
v 146.741669 -17.577135 14.177769
v 138.545013 -15.890212 19.109156
v 145.916412 -13.706821 8.322465
v 139.161148 -18.267870 6.568015
v 147.470078 -19.725269 6.839842
v 154.921982 -18.673124 0.329055
v 139.609406 -19.277018 15.173244
v 132.224564 -7.259991 10.117592
v 124.310440 -11.724648 20.568556
v 129.927887 -2.644202 20.429380
v 138.625000 -2.566527 13.816086
v 119.330193 -7.328415 16.288378
v 146.076859 -6.960748 13.554264
v 127.245544 -8.940360 18.828465
v 123.905998 -3.828832 6.694506
v 139.267258 -18.474031 12.948571
v 138.581879 -15.984849 19.146265
v 137.347076 -11.529791 11.366446
v 122.563171 -10.369684 14.930212
v 125.600647 -7.411422 16.902367
v 131.352325 -5.624587 11.839725
v 123.517052 -10.210680 14.733073
v 125.965462 -7.806928 -0.000003
v 128.226486 22.133213 10.006899
v 125.232430 5.344027 17.129854
v 122.965736 13.076755 7.043919
v 127.418762 20.602814 13.231845
v 124.836128 16.390156 16.363016
v 131.691650 6.287614 22.423851
v 129.177368 13.996430 -0.000004
v 128.110123 31.200788 0.000009
v 147.530243 -23.159092 -0.000001
v 172.685379 6.555183 -0.000004
v 169.429596 18.646038 -0.000005
v 161.349564 25.571388 -0.000005
v 120.073761 23.872513 -0.000003
v 136.696671 31.430599 -0.000000
v 171.430237 -4.660622 -0.000004
v 149.611938 29.188662 -1.509759
v 112.657005 -7.431211 0.000281
v 101.593857 11.364591 0.000001
v 148.736877 -6.321349 0.000010
v 155.644226 -22.200399 -0.530751
v 115.447327 -6.995295 -0.000002
v 137.778702 11.494789 0.554022
v 115.173424 10.486981 0.000708
v 108.872154 11.098358 0.000002
v 161.946777 -19.654510 -8.704902
v 169.927612 -4.425797 -8.387510
v 171.372818 6.472382 -9.766920
v 167.889908 17.750040 0.000001
v 167.413574 -14.177423 -18.617149
v 161.503174 16.960888 -10.739391
v 161.815765 23.053118 -9.964669
v 160.766144 -17.893272 -24.475103
v 152.210510 7.571155 -21.134590
v 151.343704 18.296276 -11.099783
v 150.724075 26.375809 -26.044533
v 140.868759 -1.451123 -26.860365
v 140.933319 8.395393 -21.544104
v 138.976578 19.499725 -11.509867
v 137.323593 27.200264 -17.076664
v 136.693649 -15.723180 -17.001448
v 130.051941 -12.492791 -23.331141
v 130.911453 -5.350546 -22.456984
v 140.516098 -8.841948 -25.986616
v 131.274033 -1.008373 -27.139252
v 130.736588 9.011501 -20.518867
v 129.092331 18.941862 -11.152567
v 128.647308 26.936090 -9.982056
v 120.632294 21.506615 -16.217176
v 120.427887 14.540108 -24.937401
v 124.226311 -2.600115 -26.944662
v 126.304794 7.807909 -6.692478
v 115.713127 9.570999 -11.040611
v 116.130493 7.488135 -21.157373
v 119.832230 5.289735 -13.712395
v 116.116562 3.469954 -13.484253
v 118.074745 -2.996889 -7.386224
v 114.732147 -4.869134 -11.320841
v 115.094528 -1.557356 -6.684764
v 116.941917 -6.008688 -7.467026
v 110.207840 10.487766 -12.302823
v 110.748512 8.378400 -15.692591
v 111.680092 3.625134 -13.625070
v 110.454628 -1.850218 -9.437633
v 108.025848 -6.475167 -18.433079
v 123.433655 -11.837370 -13.079378
v 119.030060 -9.412041 -9.618868
v 145.693390 -20.907347 -0.000001
v 127.064667 9.658116 -6.611236
v 127.334190 7.237448 -13.762749
v 126.643272 2.389652 -17.250605
v 142.516998 3.936848 -11.579660
v 144.302704 -2.505376 -6.491760
v 107.462891 -10.098199 -13.894084
v 168.000580 6.844240 -9.407068
v 165.831696 -12.791662 -13.202304
v 139.549408 -18.143806 -19.952198
v 161.853210 -3.405631 -20.888588
v 151.159027 -12.151739 -15.874538
v 160.094147 -14.866426 -14.801139
v 166.972488 -4.205149 -24.305889
v 152.383423 -2.336300 -19.880028
v 162.508759 6.779180 -26.360332
v 133.660934 5.222418 -26.074772
v 129.629166 6.342766 -27.202023
v 128.899918 9.152534 -23.432135
v 130.666901 6.454431 -10.231635
v 153.450012 -20.193796 -15.948935
v 151.713013 -18.172741 -18.289478
v 142.051437 2.363769 -15.090590
v 144.152100 -10.606381 -12.654676
v 144.702255 -12.684711 -16.506823
v 143.359024 -17.767859 -6.754517
v 107.348923 10.570802 -1.161380
v 113.415588 -7.601166 -2.381716
v 116.322380 -6.698091 -1.071181
v 117.189995 -6.877786 -1.258144
v 115.475159 -8.377192 -6.944491
v 116.078430 -6.917203 -4.901223
v 110.878784 -9.431366 -2.023763
v 113.415573 -7.493629 -10.010615
v 109.654236 -7.894207 -9.813736
v 112.991165 -7.543903 -2.606792
v 115.143272 -7.808431 0.000008
v 147.917343 -20.867496 -12.746911
v 154.001801 -16.985306 -18.158783
v 152.678589 -13.880239 -12.878192
v 146.741669 -17.577143 -14.177760
v 138.545013 -15.890218 -19.109150
v 145.916382 -13.706824 -8.322458
v 139.161133 -18.267868 -6.568009
v 147.470078 -19.725271 -6.839838
v 154.921982 -18.673126 -0.329051
v 139.609406 -19.277018 -15.173244
v 132.224548 -7.259991 -10.117589
v 124.310432 -11.724653 -20.568554
v 129.927872 -2.644196 -20.429377
v 138.624985 -2.566532 -13.816081
v 119.330177 -7.328423 -16.288372
v 146.076859 -6.960754 -13.554263
v 127.245529 -8.940365 -18.828463
v 123.905983 -3.828836 -6.694499
v 139.267258 -18.474033 -12.948563
v 138.581879 -15.984855 -19.146259
v 137.347076 -11.529785 -11.366442
v 122.563164 -10.369687 -14.930210
v 125.600632 -7.411426 -16.902367
v 131.352310 -5.624592 -11.839717
v 123.517036 -10.210686 -14.733068
v 125.965446 -7.806934 -0.000001
v 123.695999 6.398469 -10.006901
v 125.232414 5.344025 -17.129858
v 122.965729 13.076751 -7.043924
v 127.418762 20.602810 -13.231850
v 124.836121 16.390154 -16.363020
v 131.691635 6.287611 -22.423847
v 129.177353 13.996428 6.611235
v 127.334190 7.237448 -0.000002
v 137.778702 11.494789 9.618872
v 145.693390 -20.907351 11.579660
v 144.302704 -2.505373 0.000001
v 148.736877 -6.321349 0.000009
v 147.530243 -23.159092 6.684767
v 116.941917 -6.008686 -0.530751
v 115.447327 -6.995295 13.079381
v 119.030067 -9.412040 13.762750
v 126.643272 2.389653 18.433083
v 123.433662 -11.837364 17.250605
v 142.516998 3.936853 17.001451
v 130.051956 -12.492790 17.076677
v 136.693649 -15.723169 13.202305
v 139.549408 -18.143810 -0.000001
v 172.685379 6.555183 -0.000000
v 171.430237 -4.660622 -0.000004
v 169.429596 18.646038 0.000001
v 167.413574 -14.177423 -0.000005
v 161.349564 25.571388 0.000002
v 161.946777 -19.654510 -0.000003
v 136.696671 31.430599 -0.000004
v 149.611938 29.188662 -0.000004
v 128.110123 31.200788 -0.000005
v 120.073761 23.872513 0.554022
v 115.173424 10.486981 -0.530751
v 115.447327 -6.995295 0.000708
v 108.872154 11.098358 -1.509759
v 112.657005 -7.431211 0.000281
v 101.593857 11.364591 0.000010
v 155.644226 -22.200399 0.000009
v 147.530243 -23.159092 -6.611236
v 127.334190 7.237448 -0.000002
v 137.778702 11.494789 -0.000001
v 127.064667 9.658116 -0.000002
v 137.778702 11.494789 0.000001
v 148.736877 -6.321349 -9.618868
v 145.693390 -20.907347 0.000001
v 148.736877 -6.321349 -11.579660
v 144.302704 -2.505376 0.000009
v 147.530243 -23.159092 -0.530751
v 115.447327 -6.995295 -6.684764
v 116.941917 -6.008688 -13.079378
v 119.030060 -9.412041 -13.762749
v 126.643272 2.389652 -18.433079
v 123.433655 -11.837370 -17.250605
v 142.516998 3.936848 -17.001448
v 130.051941 -12.492791 -17.076664
v 136.693649 -15.723180 -13.202304
v 139.549408 -18.143806 -1.258144
v 115.475159 -8.377192 -1.071181
v 117.189995 -6.877786 -1.161380
v 113.415588 -7.601166 0.000001
v 155.504532 -19.706932 0.000008
v 147.917343 -20.867496 -0.000003
v 128.226486 22.133213 -0.000001
v 123.695999 6.398469 0.448738

vt 0.891268 0.662456
vt 0.883749 0.765497
vt 0.820276 0.723928
vt 0.729731 0.811116
vt 0.751717 0.389496
vt 0.827301 0.614470
vt 0.643760 0.723238
vt 0.636649 0.850676
vt 0.640857 0.507643
vt 0.541438 0.606793
vt 0.534059 0.728332
vt 0.515910 0.856652
vt 0.501862 0.320153
vt 0.530145 0.353726
vt 0.419888 0.451817
vt 0.442702 0.425565
vt 0.556907 0.503164
vt 0.440926 0.601847
vt 0.446291 0.734360
vt 0.415248 0.851719
vt 0.413262 0.817312
vt 0.325957 0.720639
vt 0.309229 0.508421
vt 0.361795 0.603028
vt 0.378780 0.791160
vt 0.225254 0.717537
vt 0.227020 0.605661
vt 0.307165 0.625423
vt 0.219997 0.527485
vt 0.216325 0.495894
vt 0.141121 0.553309
vt 0.178723 0.470381
vt 0.157099 0.791156
vt 0.144947 0.715012
vt 0.170834 0.640503
vt 0.194043 0.580545
vt 0.151536 0.555327
vt 0.099194 0.398631
vt 0.320825 0.441645
vt 0.230089 0.271723
vt 0.698329 0.791151
vt 0.051063 0.770359
vt 0.098636 0.670716
vt 0.125041 0.579803
vt 0.084076 0.536684
vt 0.043508 0.649681
vt 0.825841 0.453982
vt 0.868384 0.279151
vt 0.016167 0.542244
vt 0.757017 0.427019
vt 0.676675 0.429533
vt 0.782127 0.541743
vt 0.827491 0.524407
vt 0.658358 0.635599
vt 0.749446 0.563482
vt 0.478495 0.572887
vt 0.420604 0.600416
vt 0.434349 0.577998
vt 0.444965 0.333486
vt 0.766493 0.366828
vt 0.715032 0.224435
vt 0.126728 0.274558
vt 0.067528 0.290520
vt 0.057939 0.336928
vt 0.625191 0.800627
vt 0.097342 0.060396
vt 0.600270 0.222356
vt 0.579127 0.136396
vt 0.358682 0.042074
vt 0.488424 0.327890
vt 0.338424 0.322226
vt 0.459309 0.060381
vt 0.544486 0.175619
vt 0.980678 0.066349
vt 0.939917 0.014471
vt 0.920626 0.076248
vt 0.863752 0.071528
vt 0.783736 0.018375
vt 0.849210 0.131710
vt 0.793451 0.135151
vt 0.875904 0.119347
vt 0.956302 0.196085
vt 0.805626 0.137644
vt 0.664913 0.235589
vt 0.628372 0.144231
vt 0.724592 0.028844
vt 0.728347 0.253736
vt 0.692973 0.011408
vt 0.666876 0.190367
vt 0.649593 0.207719
vt 0.711630 0.142189
vt 0.795415 0.084627
vt 0.783736 0.014585
vt 0.770106 0.243376
vt 0.657950 0.198175
vt 0.677491 0.140665
vt 0.690289 0.240574
vt 0.647372 0.195877
vt 0.669304 0.066465
vt 0.297557 0.251789
vt 0.189423 0.275629
vt 0.294750 0.138460
vt 0.323800 0.218579
vt 0.306334 0.351995
vt 0.192846 0.370596
vt 0.281800 0.972118
vt 0.400997 0.209072
vt 0.789046 0.686114
vt 0.964166 0.822641
vt 0.894118 0.910818
vt 0.793323 0.919274
vt 0.303153 0.982927
vt 0.505694 0.546302
vt 0.977896 0.961351
vt 0.655932 0.431313
vt 0.083720 0.885449
vt 0.048510 0.548656
vt 0.013905 0.271371
vt 0.859569 0.415563
vt 0.111313 0.056561
vt 0.129638 0.874462
vt 0.217334 0.879420
vt 0.129875 0.338492
vt 0.915489 0.551262
vt 0.891268 0.662456
vt 0.883749 0.765497
vt 0.820276 0.425394
vt 0.957283 0.723928
vt 0.729731 0.811116
vt 0.751717 0.389496
vt 0.827301 0.614470
vt 0.643760 0.723238
vt 0.636649 0.850676
vt 0.640857 0.507643
vt 0.541438 0.606793
vt 0.534059 0.728332
vt 0.515910 0.856652
vt 0.501862 0.320153
vt 0.530145 0.353726
vt 0.419888 0.451817
vt 0.442702 0.425565
vt 0.556907 0.503164
vt 0.440926 0.601847
vt 0.446291 0.734360
vt 0.415248 0.851719
vt 0.413262 0.817312
vt 0.325957 0.720639
vt 0.309229 0.508421
vt 0.361795 0.603028
vt 0.378780 0.791160
vt 0.225254 0.717537
vt 0.227020 0.605661
vt 0.307165 0.625423
vt 0.219997 0.527485
vt 0.216325 0.495894
vt 0.141121 0.553309
vt 0.178723 0.470381
vt 0.157099 0.791156
vt 0.144947 0.715012
vt 0.170834 0.640503
vt 0.194043 0.580545
vt 0.151536 0.555327
vt 0.099194 0.398631
vt 0.320825 0.441645
vt 0.230089 0.271723
vt 0.698329 0.057259
vt 0.128261 0.791151
vt 0.051063 0.770359
vt 0.098636 0.670716
vt 0.125041 0.579803
vt 0.084076 0.536684
vt 0.043508 0.649681
vt 0.825841 0.453982
vt 0.868384 0.279151
vt 0.016167 0.542244
vt 0.757017 0.427019
vt 0.676675 0.429533
vt 0.782127 0.541743
vt 0.827491 0.524407
vt 0.658358 0.635599
vt 0.749446 0.563482
vt 0.478495 0.572887
vt 0.420604 0.600416
vt 0.434349 0.577998
vt 0.444965 0.333486
vt 0.766493 0.366828
vt 0.715032 0.224435
vt 0.126728 0.274558
vt 0.067528 0.290520
vt 0.057939 0.336928
vt 0.625191 0.800627
vt 0.097342 0.010296
vt 0.488790 0.060396
vt 0.600270 0.011683
vt 0.630881 0.007829
vt 0.552381 0.222356
vt 0.579127 0.136396
vt 0.358682 0.042074
vt 0.488424 0.327890
vt 0.338424 0.322226
vt 0.459309 0.060381
vt 0.544486 0.192887
vt 0.887695 0.066349
vt 0.939917 0.014471
vt 0.920626 0.076248
vt 0.863752 0.071528
vt 0.783736 0.018375
vt 0.849210 0.131710
vt 0.793451 0.135151
vt 0.875904 0.119347
vt 0.956302 0.196085
vt 0.805626 0.137644
vt 0.664913 0.235589
vt 0.628372 0.144231
vt 0.724592 0.028844
vt 0.728347 0.253736
vt 0.692973 0.011408
vt 0.666876 0.190367
vt 0.649593 0.207719
vt 0.711630 0.142189
vt 0.795415 0.084627
vt 0.783736 0.014585
vt 0.770106 0.243376
vt 0.657950 0.198175
vt 0.677491 0.140665
vt 0.690289 0.240574
vt 0.647372 0.195877
vt 0.669304 0.140611
vt 0.147623 0.251789
vt 0.189423 0.275629
vt 0.294750 0.138460
vt 0.323800 0.218579
vt 0.306334 0.351995
vt 0.192846 0.370596
vt 0.281800 0.091553
vt 0.107459 0.786689
vt 0.008222 0.324029
vt 0.020381 0.318250
vt 0.141197 0.391156
vt 0.132869 0.380818
vt 0.012207 0.076159
vt 0.038080 0.033004
vt 0.042328 0.116341
vt 0.014301 0.137354
vt 0.093690 0.159084
vt 0.004344 0.222790
vt 0.135889 0.201546
vt 0.018645 0.246522
vt 0.020775 0.290699
vt 0.593993 0.686114
vt 0.964166 0.546302
vt 0.977896 0.822641
vt 0.894118 0.425394
vt 0.957283 0.910818
vt 0.793323 0.338492
vt 0.915489 0.982927
vt 0.505694 0.961351
vt 0.655932 0.972118
vt 0.400997 0.919274
vt 0.303153 0.874462
vt 0.217334 0.415563
vt 0.111313 0.879420
vt 0.129875 0.431313
vt 0.083720 0.885449
vt 0.048510 0.271371
vt 0.859569 0.209072
vt 0.789046 0.091553
vt 0.107459 0.056561
vt 0.129638 0.057259
vt 0.128261 0.786689
vt 0.008222 0.548656
vt 0.013905 0.324029
vt 0.020381 0.391156
vt 0.132869 0.318250
vt 0.141197 0.380818
vt 0.012207 0.033004
vt 0.042328 0.076159
vt 0.038080 0.116341
vt 0.014301 0.137354
vt 0.093690 0.159084
vt 0.004344 0.222790
vt 0.135889 0.201546
vt 0.018645 0.246522
vt 0.020775 0.290699
vt 0.593993 0.007829
vt 0.552381 0.011683
vt 0.630881 0.010296
vt 0.488790 0.175619
vt 0.980678 0.192887
vt 0.887695 0.066465
vt 0.297557 0.140611
vt 0.147623 1.000000

f 100/100 229/229 103/103
f 101/101 103/103 229/229
f 103/103 101/101 104/104
f 104/104 101/101 102/102
f 102/102 105/105 106/106
f 105/105 102/102 101/101
f 291/291 232/232 292/292
f 230/230 292/292 232/232
f 232/232 233/233 230/230
f 233/233 231/231 230/230
f 231/231 234/234 230/230
f 234/234 231/231 235/235
