# MOD converted: [r]temple_d_w_leathearmor004_1.mod
# 765 verts, 1166 faces

v 108.884354 -7.024336 -0.000000
v 115.943253 9.048517 0.000000
v 119.830719 10.022186 0.000001
v 113.184219 -3.294332 0.000000
v 97.517052 7.105753 0.000000
v 80.969307 11.676985 0.000001
v 79.297089 -10.016580 -0.000000
v 68.409348 0.630236 0.000000
v 70.411469 7.564504 0.000001
v 82.706001 -10.198384 4.911948
v 114.166000 -0.780668 9.139211
v 89.932007 -5.578317 10.173702
v 90.267517 -0.895691 7.360451
v 90.654503 4.415318 10.728448
v 113.086258 -1.107734 9.894913
v 114.471603 7.547382 11.889296
v 102.046280 -7.798144 7.590456
v 109.041702 10.150383 11.659992
v 102.396469 -0.616697 10.796023
v 103.026779 6.789577 11.273431
v 107.854744 -4.384744 12.856567
v 114.398964 7.389436 10.402606
v 114.592781 4.006500 12.254781
v 103.667839 6.906020 11.354222
v 109.065033 9.412099 14.790927
v 108.424034 8.940971 12.934998
v 104.147552 -0.014219 12.810575
v 113.139366 -0.735579 13.816197
v 108.365868 -2.590534 16.319098
v 112.440720 6.193112 13.158151
v 114.367836 3.709798 15.962099
v 112.275948 0.399605 8.871489
v 104.868500 -10.954576 5.972380
v 109.556793 -6.090302 5.946715
v 114.349998 -0.647761 5.190429
v 116.123779 3.936433 5.239542
v 116.246040 8.299476 12.539673
v 108.508308 -3.222919 7.066543
v 102.960762 9.442542 5.032384
v 121.847519 2.502482 4.507609
v 119.760376 -1.870021 17.416615
v 102.394470 0.017259 17.367451
v 102.186485 6.138517 19.275764
v 106.619049 8.401292 19.506365
v 106.389763 -2.277800 21.155024
v 110.481453 0.187173 21.165422
v 110.623093 6.239217 24.460499
v 99.795670 5.476067 24.610500
v 99.962616 0.417908 27.706295
v 108.009995 5.386845 26.143898
v 103.981972 -1.641793 42.556335
v 93.429138 4.155314 43.942329
v 96.242447 6.017181 42.308525
v 93.345802 -0.186620 45.344963
v 99.612595 4.512893 43.616531
v 96.132271 -2.531463 27.583097
v 107.836037 0.156422 45.099121
v 99.779808 -0.829872 25.125801
v 104.403984 7.692634 26.764599
v 98.904297 5.101958 29.858597
v 107.095001 5.375575 29.287209
v 102.676994 7.497877 27.340248
v 103.579079 7.714620 29.779800
v 106.893044 0.096018 28.373011
v 103.041534 -1.741718 26.838100
v 99.018311 0.370693 32.525005
v 96.145599 -0.085627 34.407806
v 100.473022 -2.636741 36.231087
v 104.628998 -0.597497 36.379406
v 104.691010 5.539145 34.426517
v 100.632034 7.766875 32.386600
v 96.187698 5.196587 8.784782
v 114.970459 4.297247 9.243816
v 113.137215 -0.887501 10.688489
v 107.368507 -6.291248 7.616069
v 117.724052 -0.873020 5.432907
v 121.303444 6.045639 5.179933
v 120.096825 9.303239 8.707408
v 120.460274 5.327379 11.434867
v 115.358086 -3.860080 10.990614
v 105.671211 -8.990613 10.604866
v 118.573631 1.309703 8.627109
v 112.645187 -8.830431 11.010977
v 111.219414 -7.514771 10.215167
v 105.342514 -11.244951 10.410145
v 97.537201 2.882988 11.321312
v 98.145477 -2.046837 6.911045
v 97.263275 5.752643 8.621850
v 119.152550 7.050234 -0.000000
v 116.894196 6.252857 6.468088
v 83.276596 -8.719866 12.897600
v 84.560593 -0.715799 8.350563
v 85.344162 7.161861 5.100181
v 89.665199 -9.081145 4.593371
v 97.756027 -12.958921 4.508066
v 105.170525 -12.290703 9.170400
v 101.450104 -12.561183 0.000001
v 100.370010 -12.927825 4.410779
v 101.345535 -14.049088 11.256196
v 98.392990 -7.143498 9.093271
v 97.869125 -11.505589 9.020876
v 95.961105 -6.317956 4.914295
v 95.766098 -10.016006 10.081140
v 96.673401 2.592613 10.131198
v 96.405380 -0.766605 -0.000000
v 74.970665 12.085831 0.000000
v 74.199928 -9.237094 7.377012
v 29.526287 -4.977713 7.968535
v 29.525345 10.812384 20.632969
v 29.527945 3.648075 5.038244
v 29.525103 3.976480 18.836264
v 29.527275 -4.474154 16.564466
v 29.527079 11.029535 0.721909
v 41.591328 2.493779 4.686515
v 42.970207 15.883630 18.329023
v 43.985321 16.462193 27.131769
v 43.777687 3.136072 10.621909
v 44.404419 -12.563145 3.354049
v 43.927986 -9.447144 23.094578
v 46.458549 -8.593732 11.267670
v 41.406502 -12.736639 23.682627
v 42.981350 -8.710471 3.630208
v 41.246845 -9.557343 19.428560
v 37.342453 15.568693 6.356054
v 36.297260 15.263056 26.681381
v 47.735134 3.028476 17.636547
v 46.785339 16.100765 4.475116
v 45.319283 15.438789 0.684218
v 44.170593 2.391236 13.433406
v 29.526783 -7.401083 4.487663
v 35.354263 -9.231065 23.096672
v 37.170212 -7.698340 9.297135
v 20.264702 -2.586936 9.300163
v 20.264139 6.971706 17.204374
v 20.265865 2.800811 7.471301
v 20.263887 2.228154 16.083004
v 20.265396 -2.313049 14.665105
v 20.265369 7.107242 1.700185
v 35.211365 3.690137 26.713327
v 37.886509 3.424309 12.464154
v 35.877441 -12.103573 9.808138
v 49.106152 -12.242667 16.915833
v 50.339035 15.385894 0.808051
v 48.085049 2.249497 3.210036
v 48.324394 -8.810074 22.099422
v 50.677433 -8.252377 25.876148
v 51.621265 3.000539 4.161829
v 49.038048 14.365769 22.338715
v 62.120384 2.738758 1.039734
v 60.045773 1.413670 18.621710
v 61.812031 -6.994915 14.068366
v 61.488937 12.657900 17.557167
v 75.049088 0.001744 13.981453
v 75.136528 6.548684 0.965662
v 69.064217 0.683824 2.319549
v 70.568169 -6.315771 8.709591
v 60.879398 -10.257063 2.516900
v 60.252575 -7.400753 10.484085
v 71.179451 9.875889 3.357508
v 60.356277 11.812969 2.529121
v 69.393745 8.978809 7.690103
v 71.184456 -8.494062 14.666384
v 73.123581 -7.767003 1.853291
v 71.214310 10.740726 14.388184
v 73.190895 5.754894 7.967291
v 80.886482 10.684075 12.286324
v 80.513100 6.577268 15.407413
v 80.127136 0.055892 12.869690
v 79.652634 -6.857621 6.938530
v 79.378265 -8.569951 7.419111
v 74.276382 -8.312580 14.034235
v 75.453575 -7.474682 8.855249
v 75.112831 11.154111 11.505904
v 83.841293 -5.783045 12.710943
v 20.265059 -3.855582 0.000000
v 90.803299 5.818124 0.000001
v 110.377457 9.797990 0.000000
v 103.827171 9.324667 0.000001
v 96.882278 -11.254014 0.000001
v 104.041107 -11.798159 0.000000
v 121.461929 8.662992 0.000001
v 89.524597 -10.437285 -0.000000
v 71.129532 -6.411156 -4.911949
v 114.166000 -0.780667 -9.139209
v 89.931999 -5.578320 -10.173702
v 90.267517 -0.895691 -7.360451
v 90.654503 4.415317 -10.728449
v 113.089577 -1.104776 -9.894915
v 114.467140 7.551359 -11.889294
v 102.046280 -7.798147 -7.590455
v 109.041702 10.150383 -11.659992
v 102.396454 -0.616685 -10.796026
v 103.026787 6.789590 -11.273435
v 107.854744 -4.384740 -12.856567
v 114.395454 7.393084 -10.402607
v 114.591499 4.010681 -12.254781
v 103.666161 6.903956 -11.354224
v 109.062378 9.411948 -14.790931
v 108.421021 8.940852 -12.934999
v 104.148560 -0.016050 -12.810576
v 113.141800 -0.732809 -13.816198
v 108.368347 -2.590782 -16.319099
v 112.438995 6.194977 -13.158151
v 114.367012 3.713475 -15.962100
v 112.277000 0.401358 -8.871486
v 104.868500 -10.954579 -5.972378
v 109.556793 -6.090304 -5.946714
v 114.349998 -0.647762 -5.190430
v 116.123779 3.936433 -5.239542
v 116.245430 8.300017 -12.539673
v 108.510834 -3.223206 -7.066541
v 102.960762 9.442542 -5.032384
v 121.847519 2.502481 -4.507607
v 119.760376 -1.870023 -17.416615
v 102.394455 0.017281 -17.367451
v 102.186501 6.138540 -19.275770
v 106.619095 8.401292 -19.506367
v 106.390259 -2.277922 -21.155027
v 110.481705 0.187484 -21.165424
v 110.622734 6.239543 -24.460499
v 99.795677 5.476075 -24.610500
v 99.962608 0.417915 -27.706295
v 108.009995 5.386836 -26.143976
v 103.982162 -1.641792 -42.556335
v 93.429138 4.155313 -43.942329
v 96.242439 6.017180 -42.308525
v 93.345802 -0.186621 -45.344963
v 99.612587 4.512894 -43.616531
v 96.132271 -2.531463 -27.583097
v 107.836029 0.156414 -45.099121
v 99.779808 -0.829871 -25.125803
v 104.403999 7.692633 -26.764599
v 98.904297 5.101965 -29.858595
v 107.095001 5.375566 -29.287201
v 102.676994 7.497876 -27.340151
v 103.578850 7.714623 -29.779804
v 106.893036 0.096010 -28.373009
v 103.041519 -1.741718 -26.838100
v 99.018311 0.370701 -32.525005
v 96.145599 -0.085631 -34.407806
v 100.473015 -2.636741 -36.231091
v 104.628998 -0.597494 -36.379402
v 104.691002 5.539148 -34.426506
v 100.632019 7.766873 -32.386600
v 96.187698 5.196583 -8.784783
v 114.969460 4.299967 -9.243817
v 113.139236 -0.885739 -10.688488
v 107.368507 -6.291252 -7.616068
v 117.724426 -0.872276 -5.432908
v 121.303085 6.046695 -5.179934
v 120.096115 9.304166 -8.707408
v 120.459984 5.328426 -11.434868
v 115.358772 -3.859483 -10.990610
v 105.671211 -8.990617 -10.604866
v 118.573769 1.310602 -8.627110
v 112.646400 -8.830173 -11.010977
v 111.220490 -7.514605 -10.215166
v 105.342514 -11.244952 -10.410145
v 97.537193 2.882988 -11.321312
v 98.145477 -2.046840 -6.911045
v 97.263275 5.752642 -8.621850
v 119.152077 7.051147 0.000002
v 118.314766 -4.114721 -0.000000
v 122.715347 5.133449 0.000000
v 85.218933 8.485876 -6.468088
v 83.276596 -8.719867 -12.897600
v 84.560593 -0.715800 -8.350563
v 85.344162 7.161861 -5.100180
v 89.665199 -9.081145 -4.593368
v 97.756027 -12.958921 -4.508060
v 105.170525 -12.290704 -9.170398
v 101.450104 -12.561183 -4.410778
v 101.345535 -14.049089 -11.256195
v 98.392990 -7.143501 -9.093271
v 97.869125 -11.505589 -9.020874
v 95.961098 -6.317959 -4.914294
v 95.766098 -10.016006 -10.081140
v 96.673401 2.592613 -10.131198
v 96.405380 -0.766606 -7.377011
v 29.526287 -4.977712 -7.968535
v 29.525345 10.812383 -20.632971
v 29.527945 3.648073 -5.038244
v 29.525106 3.976480 -18.836264
v 29.527275 -4.474154 -16.564468
v 29.527081 11.029535 -0.721910
v 41.591328 2.493781 -4.686515
v 42.970207 15.883630 -18.329023
v 43.985325 16.462193 -27.131765
v 43.777683 3.136071 -10.621911
v 44.404419 -12.563145 -3.354052
v 43.927986 -9.447145 -23.094578
v 46.458549 -8.593731 -11.267673
v 41.406502 -12.736639 -23.682627
v 42.981350 -8.710470 -3.630211
v 41.246845 -9.557345 -19.428562
v 37.342453 15.568693 -6.356053
v 36.297260 15.263054 -26.681381
v 47.735130 3.028474 -17.636549
v 46.785339 16.100763 -4.475116
v 45.319290 15.438789 -0.684217
v 44.170586 2.391234 -13.433410
v 29.526783 -7.401085 -4.487665
v 35.354263 -9.231067 -23.096674
v 37.170212 -7.698338 -9.297136
v 20.264702 -2.586937 -9.300164
v 20.264141 6.971706 -17.204372
v 20.265865 2.800810 -7.471301
v 20.263887 2.228154 -16.083004
v 20.265394 -2.313049 -14.665105
v 20.265371 7.107241 -1.700185
v 35.211365 3.690137 -26.713329
v 37.886509 3.424313 -12.464156
v 35.877441 -12.103575 -9.808140
v 49.106155 -12.242669 -16.915829
v 50.339027 15.385894 -0.808051
v 48.085049 2.249497 -3.210037
v 48.324394 -8.810077 -22.099422
v 50.677422 -8.252377 -25.876146
v 51.621265 3.000542 -4.161831
v 49.038048 14.365769 -22.338711
v 62.120384 2.738761 -1.039733
v 60.045780 1.413671 -18.621706
v 61.812031 -6.994915 -14.068366
v 61.488937 12.657900 -17.557167
v 75.049088 0.001754 -13.981453
v 75.136528 6.548684 -0.965662
v 69.064224 0.683825 -2.319550
v 70.568169 -6.315771 -8.709595
v 60.879406 -10.257064 -2.516901
v 60.252575 -7.400754 -10.484085
v 71.179451 9.875889 -3.357509
v 60.356285 11.812968 -2.529121
v 69.393745 8.978809 -7.690104
v 71.184456 -8.494062 -14.666385
v 73.123581 -7.767002 -1.853292
v 71.214310 10.740726 -14.388185
v 73.190895 5.754894 -7.967291
v 80.886482 10.684075 -12.286324
v 80.513100 6.577267 -15.407413
v 80.127136 0.055895 -12.869687
v 79.652634 -6.857625 -6.938532
v 79.378265 -8.569950 -7.419109
v 74.276382 -8.312580 -14.034236
v 75.453575 -7.474682 -8.855249
v 75.112831 11.154109 -11.505903
v 83.841293 -5.783047 -12.710943
v 20.265059 -3.855582 0.000002
v 83.955376 11.485531 0.000002
v 76.305893 13.275003 -0.000000
v 55.076637 18.231422 0.000002
v 84.244759 10.162851 16.276627
v 80.886826 -0.376842 7.924812
v 86.348412 9.125326 11.342602
v 83.902725 -8.423860 9.893945
v 74.992500 -12.287528 7.890148
v 70.638390 -14.250532 11.634168
v 67.465553 -13.246360 6.564091
v 78.598976 -12.633256 18.049706
v 76.286621 0.096355 21.286058
v 60.294689 -7.672356 18.785076
v 68.194077 -7.238201 16.083941
v 75.668312 -6.532221 13.626025
v 60.574619 15.023845 9.874210
v 76.707458 11.832866 21.409683
v 68.910248 0.681428 22.211153
v 61.281830 8.056664 19.899586
v 69.210999 7.187911 16.972620
v 76.637596 6.109443 13.013426
v 85.735802 4.839122 5.886619
v 59.699337 15.691963 9.477744
v 62.662617 -15.190435 13.569566
v 59.455791 -13.820956 11.624471
v 69.029709 13.545260 22.656801
v 60.362659 -3.652074 23.029539
v 61.180851 5.605972 25.249918
v 56.701176 1.488409 14.177704
v 85.452072 2.386501 13.723506
v 84.150314 -5.046477 3.670323
v 86.498131 9.826750 8.704382
v 86.380272 7.646141 12.569185
v 84.368416 -4.685095 3.677066
v 86.533119 8.430149 12.585608
v 85.483353 2.227632 15.042349
v 81.306595 -0.346100 13.398299
v 84.920975 -1.259167 -0.000003
v 42.866043 -16.488602 11.134377
v 72.462029 -10.187836 11.919785
v 47.880318 -12.900919 10.816179
v 54.160500 -12.114908 10.422187
v 63.345943 -11.116413 -0.000001
v 63.138599 -14.528673 -0.000001
v 72.080864 -13.686965 0.000000
v 54.088917 -15.437022 9.152781
v 83.880020 -9.195982 -11.134372
v 72.462029 -10.187840 -11.919787
v 47.880318 -12.900919 -10.816177
v 54.160500 -12.114908 -10.422192
v 63.345951 -11.116417 0.000001
v 79.023300 -12.275301 0.000001
v 83.157677 -11.523547 6.367616
v 82.858658 -10.473757 0.030595
v 76.780296 -12.826249 0.030593
v 88.185097 -10.517195 3.090130
v 85.123444 -10.734383 3.047327
v 80.041656 -11.845109 0.030591
v 82.667274 -12.930012 -6.306430
v 82.858658 -10.473760 -3.028944
v 85.123444 -10.734383 -2.986142
v 80.041656 -11.845110 0.000002
v 68.226204 15.179639 0.000002
v 86.533119 8.813294 -16.276625
v 80.886826 -0.376887 -7.924812
v 86.348412 9.125326 -11.342602
v 83.902725 -8.423861 -9.893945
v 74.992477 -12.287528 -7.890153
v 70.638344 -14.250532 -11.634166
v 67.465523 -13.246362 -6.564089
v 78.598969 -12.633252 -18.049704
v 76.286621 0.096318 -21.286055
v 60.294697 -7.672357 -18.785074
v 68.194061 -7.238205 -16.083939
v 75.668312 -6.532220 -13.626017
v 60.574688 15.023841 -9.874206
v 76.707458 11.832869 -21.409676
v 68.910278 0.681458 -22.211151
v 61.281895 8.056660 -19.899582
v 69.211037 7.187908 -16.972618
v 76.637604 6.109441 -13.013424
v 85.735802 4.839122 -5.886616
v 59.699387 15.691958 -9.477751
v 62.662575 -15.190434 -13.569568
v 59.455761 -13.820957 -11.624467
v 69.029747 13.545260 -22.656792
v 60.362686 -3.652077 -23.029531
v 61.180912 5.605973 -25.249908
v 56.701233 1.488414 -14.177704
v 85.452072 2.386504 -13.723501
v 84.150314 -5.046483 -3.670320
v 86.498131 9.826749 -8.704380
v 86.380272 7.646139 -12.569180
v 84.368416 -4.685098 -3.677065
v 86.533119 8.430151 -12.585606
v 85.483353 2.227635 -15.042346
v 81.306595 -0.346103 -13.398298
v 84.920975 -1.259168 -9.152777
v 83.880020 -9.195988 12.254781
v 103.667839 6.906020 10.796023
v 103.026779 6.789577 10.410145
v 97.537201 2.882988 6.911045
v 97.263275 5.752643 11.889296
v 102.046280 -7.798144 17.367451
v 102.186485 6.138517 24.460499
v 99.795670 5.476067 42.556335
v 93.429138 4.155314 32.386600
v 96.187698 5.196587 26.764599
v 98.904297 5.101958 8.871489
v 104.868500 -10.954576 5.972380
v 109.556793 -6.090302 5.946715
v 114.349998 -0.647761 5.190429
v 116.123779 3.936433 -0.000000
v 116.894196 6.252857 -0.000000
v 115.943253 9.048517 5.239542
v 116.246040 8.299476 9.243816
v 113.137215 -0.887501 11.889296
v 102.046280 -7.798144 8.784782
v 114.970459 4.297247 10.688489
v 107.368507 -6.291248 11.321312
v 98.145477 -2.046837 10.410145
v 97.537201 2.882988 0.000000
v 97.517052 7.105753 0.684218
v 44.170593 2.391236 0.721909
v 41.591328 2.493779 0.808051
v 48.085049 2.249497 1.700185
v 35.211365 3.690137 7.471301
v 20.263887 2.228154 5.038244
v 29.525103 3.976480 1.039734
v 60.045773 1.413670 0.965662
v 69.064217 0.683824 -0.000000
v 68.409348 0.630236 8.350563
v 85.344162 7.161861 12.897600
v 84.560593 -0.715799 0.000000
v 85.218933 8.485876 11.505904
v 83.841293 -5.783045 6.468088
v 83.276596 -8.719866 0.000001
v 82.706001 -10.198384 0.000000
v 85.218933 8.485876 0.000000
v 90.803299 5.818124 0.000001
v 96.882278 -11.254014 0.000000
v 103.827171 9.324667 -12.254781
v 103.666161 6.903956 -10.796026
v 103.026787 6.789590 -10.410145
v 97.537193 2.882988 0.000000
v 97.517052 7.105753 -6.911045
v 97.263275 5.752642 -11.889294
v 102.046280 -7.798147 -0.000000
v 115.943253 9.048517 0.000001
v 110.377457 9.797990 -17.367451
v 102.186501 6.138540 0.000001
v 104.041107 -11.798159 0.000001
v 108.884354 -7.024336 0.000001
v 113.184219 -3.294332 0.000000
v 121.461929 8.662992 0.000000
v 119.830719 10.022186 -0.000000
v 116.894196 6.252857 -0.000000
v 122.715347 5.133449 0.000001
v 89.524597 -10.437285 0.000001
v 82.706001 -10.198384 -24.460499
v 99.795677 5.476075 -32.386600
v 96.187698 5.196583 -42.556335
v 93.429138 4.155313 -26.764599
v 98.904297 5.101965 -8.871486
v 104.868500 -10.954579 -5.972378
v 109.556793 -6.090304 -5.946714
v 114.349998 -0.647762 -5.190430
v 116.123779 3.936433 -0.000000
v 116.894196 6.252857 -0.000000
v 115.943253 9.048517 -5.239542
v 116.245430 8.300017 -9.243817
v 113.139236 -0.885739 -11.889294
v 102.046280 -7.798147 -8.784783
v 114.969460 4.299967 -10.688488
v 107.368507 -6.291252 -11.321312
v 98.145477 -2.046840 -10.410145
v 97.537193 2.882988 0.000000
v 97.517052 7.105753 0.000001
v 100.370010 -12.927825 0.000002
v 118.314766 -4.114721 -0.684217
v 44.170586 2.391234 -0.721910
v 41.591328 2.493781 -0.808051
v 48.085049 2.249497 -1.700185
v 35.211365 3.690137 -7.471301
v 20.263887 2.228154 -5.038244
v 29.525106 3.976480 -1.039733
v 60.045780 1.413671 0.000000
v 70.411469 7.564504 -0.000000
v 68.409348 0.630236 -0.965662
v 69.064224 0.683825 -0.000000
v 71.129532 -6.411156 -0.000000
v 68.409348 0.630236 0.000000
v 74.199928 -9.237094 -0.000000
v 74.970665 12.085831 -8.350563
v 85.344162 7.161861 -12.897600
v 84.560593 -0.715800 0.000000
v 80.969307 11.676985 0.000000
v 85.218933 8.485876 -11.505903
v 83.841293 -5.783047 -6.468088
v 83.276596 -8.719867 0.000001
v 82.706001 -10.198384 0.000001
v 79.297089 -10.016580 12.585608
v 85.483353 2.227632 15.042349
v 81.306595 -0.346100 12.569185
v 84.368416 -4.685095 0.000002
v 84.244759 10.162851 3.677066
v 86.533119 8.430149 9.152781
v 83.880020 -9.195982 0.000001
v 83.157677 -11.523547 0.000001
v 79.023300 -12.275301 -0.000001
v 72.080864 -13.686965 0.000000
v 54.088917 -15.437022 -0.000001
v 63.138599 -14.528673 -0.000003
v 42.866043 -16.488602 -9.152777
v 83.880020 -9.195988 0.000002
v 83.955376 11.485531 0.000002
v 68.226204 15.179639 0.000002
v 76.305893 13.275003 -0.000000
v 55.076637 18.231422 0.000002
v 84.244759 10.162851 -15.042346
v 81.306595 -0.346103 -12.585606
v 85.483353 2.227635 -12.569180
v 84.368416 -4.685098 0.000002
v 84.244759 10.162851 0.000002
v 86.533119 8.813294 -3.677065
v 86.533119 8.430151 0.179884
v 104.989380 -14.669040 -0.074858
v 103.561676 -15.693350 -0.074857
v 102.537369 -14.265650 -0.074854
v 103.965073 -13.241341 4.398847
v 103.160889 -14.368227 3.520276
v 102.092285 -15.451612 2.641712
v 101.427055 -14.082987 3.520281
v 102.495667 -12.999602 6.251916
v 98.746521 -13.642002 5.009432
v 98.544823 -14.868008 3.766953
v 98.746521 -13.641999 5.009434
v 98.948219 -12.415997 4.398848
v 94.332153 -12.915778 3.520283
v 94.997375 -14.284399 2.641710
v 96.065979 -13.201016 3.520281
v 95.400764 -11.832394 -0.074856
v 92.503662 -12.614965 -0.074852
v 93.527969 -14.042663 -0.074857
v 94.955673 -13.018354 -0.074857
v 93.931366 -11.590657 -4.548562
v 94.332153 -12.915778 -3.669989
v 94.997375 -14.284401 -2.791424
v 96.065987 -13.201017 -3.669993
v 95.400764 -11.832394 -6.401624
v 98.746521 -13.642004 -5.159144
v 98.544830 -14.868007 -3.916659
v 98.746521 -13.642001 -5.159142
v 98.948219 -12.416000 -4.548558
v 103.160889 -14.368226 -3.669994
v 102.092278 -15.451611 -2.791421
v 101.427055 -14.082988 -3.669985
v 102.495667 -12.999605 7.206270
v 86.993164 -13.594052 6.748480
v 86.056717 -12.557615 9.844618
v 81.240135 -10.156523 11.199137
v 80.781570 -10.497535 8.052630
v 86.129921 -11.767746 10.252047
v 82.708321 -10.062150 8.515848
v 87.008842 -12.926617 11.611984
v 82.192268 -10.525526 9.689432
v 82.877617 -6.674651 10.999006
v 82.893303 -6.007216 10.152649
v 83.756538 -7.833522 11.456800
v 83.829758 -7.043653 6.593294
v 87.694191 -9.075741 7.006142
v 89.104904 -9.103733 7.953233
v 87.178139 -9.539120 8.360662
v 88.646324 -9.444744 8.385923
v 93.874565 -11.564911 8.382459
v 92.742416 -12.502419 7.589575
v 91.834290 -11.566092 7.718155
v 93.000595 -10.589740 9.986979
v 86.192505 -9.971888 9.623945
v 86.785606 -11.267160 8.471572
v 87.602760 -10.688575 8.959642
v 87.043785 -9.354483 5.397108
v 84.941902 -11.397213 6.064880
v 85.815865 -12.372383 6.193456
v 86.982170 -11.396031 5.400573
v 86.074059 -10.459703 3.796055
v 92.623962 -12.990233 4.823390
v 91.772690 -13.607640 5.311461
v 91.213715 -12.273549 4.159086
v 92.030853 -11.694963 10.541447
v 107.033447 -10.105147 9.780995
v 107.489120 -11.277657 6.101297
v 104.110306 -14.964685 5.796006
v 102.676025 -14.860041 8.500971
v 106.771858 -10.856773 5.887078
v 104.371597 -13.475961 9.366972
v 106.238602 -9.718469 5.687277
v 102.859779 -13.405492 3.100245
v 106.318085 -13.990872 1.925770
v 105.523239 -13.604186 3.966248
v 105.784821 -12.852563 2.686230
v 105.067558 -12.431680 6.779950
v 109.696899 -10.303845 6.671216
v 109.880653 -8.849296 6.580141
v 108.185089 -10.233379 6.365925
v 108.446381 -8.744652 3.450125
v 96.948982 -16.688501 2.831253
v 95.786591 -16.035406 5.538209
v 90.422073 -14.471788 6.941089
v 90.030746 -14.672017 3.969038
v 95.612457 -15.032814 5.892000
v 91.801628 -13.922145 4.616577
v 96.751389 -15.816132 7.323534
v 91.386864 -14.252512 4.721896
v 91.090950 -10.768396 5.888354
v 90.893349 -9.896024 5.369441
v 92.229874 -11.551709 6.507224
v 92.055740 -10.549120 2.014938
v 96.455475 -12.332014 2.397386
v 97.811584 -11.912509 3.446476
v 96.040695 -12.662382 3.800264
v 97.420258 -12.112741 6.580508
v 106.736069 -15.961754 5.157484
v 106.470810 -15.706132 2.094478
v 101.124321 -16.470200 2.630369
v 99.841095 -16.947117 5.426954
v 105.165970 -14.961255 3.251095
v 101.367973 -15.504107 6.878846
v 105.433617 -15.349124 3.815833
v 100.087135 -16.113194 1.274282
v 101.057953 -12.708320 1.572618
v 99.755501 -12.095696 2.726171
v 101.325607 -13.096189 2.995638
v 100.020767 -12.351315 4.337296
v 106.404434 -11.944248 5.522765
v 106.650475 -11.110326 4.902034
v 105.123596 -12.553334 6.058652
v 105.367249 -11.587247 -7.355987
v 86.993156 -13.594050 -6.898193
v 86.056717 -12.557614 -9.994329
v 81.240135 -10.156526 -11.348849
v 80.781555 -10.497538 -8.202341
v 86.129921 -11.767748 -10.401756
v 82.708321 -10.062152 -8.665557
v 87.008842 -12.926622 -11.761697
v 82.192268 -10.525526 -9.839144
v 82.877617 -6.674652 -11.148718
v 82.893295 -6.007220 -10.302361
v 83.756538 -7.833525 -11.606513
v 83.829758 -7.043652 -6.743007
v 87.694191 -9.075741 -7.155854
v 89.104904 -9.103733 -8.102945
v 87.178139 -9.539121 -8.510372
v 88.646324 -9.444746 -8.535636
v 93.874565 -11.564910 -8.532170
v 92.742416 -12.502419 -7.739288
v 91.834290 -11.566092 -7.867865
v 93.000595 -10.589743 -10.136691
v 86.192505 -9.971892 -9.773653
v 86.785606 -11.267164 -8.621281
v 87.602760 -10.688578 -9.109356
v 87.043785 -9.354481 -5.546820
v 84.941902 -11.397215 -6.214588
v 85.815865 -12.372386 -6.343168
v 86.982170 -11.396030 -5.550284
v 86.074059 -10.459705 -3.945765
v 92.623962 -12.990234 -4.973100
v 91.772690 -13.607643 -5.461176
v 91.213715 -12.273548 -4.308796
v 92.030869 -11.694963 -10.691160
v 107.033440 -10.105152 -9.930709
v 107.489120 -11.277658 -6.251012
v 104.110306 -14.964685 -5.945719
v 102.676025 -14.860042 -8.650683
v 106.771866 -10.856777 -6.036789
v 104.371597 -13.475962 -9.516683
v 106.238602 -9.718467 -5.836977
v 102.859779 -13.405496 -3.249960
v 106.318085 -13.990871 -2.075490
v 105.523239 -13.604185 -4.115956
v 105.784821 -12.852564 -2.835937
v 105.067558 -12.431682 -6.929663
v 109.696899 -10.303845 -6.820928
v 109.880646 -8.849298 -6.729851
v 108.185089 -10.233380 -6.515635
v 108.446381 -8.744654 -3.599830
v 96.948982 -16.688503 -2.980961
v 95.786591 -16.035404 -5.687921
v 90.422073 -14.471788 -7.090801
v 90.030746 -14.672019 -4.118747
v 95.612457 -15.032814 -6.041716
v 91.801628 -13.922143 -4.766283
v 96.751389 -15.816133 -7.473245
v 91.386864 -14.252514 -4.871606
v 91.090950 -10.768399 -6.038066
v 90.893349 -9.896023 -5.519150
v 92.229874 -11.551711 -6.656936
v 92.055740 -10.549123 -2.164648
v 96.455475 -12.332014 -2.547094
v 97.811584 -11.912510 -3.596185
v 96.040695 -12.662384 -3.949976
v 97.420258 -12.112742 -6.730218
v 106.736069 -15.961752 -5.307196
v 106.470810 -15.706132 -2.244185
v 101.124321 -16.470200 -2.780078
v 99.841095 -16.947117 -5.576666
v 105.165970 -14.961255 -3.400805
v 101.367973 -15.504108 -7.028556
v 105.433617 -15.349124 -3.965548
v 100.087135 -16.113194 -1.423991
v 101.057953 -12.708321 -1.722331
v 99.755501 -12.095695 -2.875876
v 101.325607 -13.096190 -3.145350
v 100.020767 -12.351315 -4.487009
v 106.404434 -11.944249 -5.672473
v 106.650482 -11.110331 -5.051744
v 105.123596 -12.553334 -6.208362
v 105.367249 -11.587250 0.795284

vt 0.264457 0.298351
vt 0.970918 0.508220
vt 0.490611 0.825318
vt 0.308750 0.465012
vt 0.914634 0.841175
vt 0.966818 0.604395
vt 0.955521 0.930866
vt 0.898434 0.887023
vt 0.900524 0.813795
vt 0.029105 0.789334
vt 0.337004 0.715453
vt 0.074736 0.671710
vt 0.069462 0.617183
vt 0.064282 0.177666
vt 0.856789 0.271525
vt 0.868081 0.066078
vt 0.872003 0.328846
vt 0.863600 0.069639
vt 0.818989 0.384370
vt 0.805830 0.131684
vt 0.840310 0.264777
vt 0.825968 0.232288
vt 0.866070 0.361960
vt 0.789988 0.320806
vt 0.822707 0.314807
vt 0.790961 0.088544
vt 0.799649 0.192853
vt 0.822564 0.140989
vt 0.789238 0.257665
vt 0.781530 0.230439
vt 0.824655 0.197025
vt 0.780339 0.740597
vt 0.220268 0.771209
vt 0.278981 0.780771
vt 0.336770 0.765941
vt 0.373036 0.281603
vt 0.920103 0.136873
vt 0.812431 0.397595
vt 0.846683 0.802008
vt 0.412465 0.823552
vt 0.379158 0.097329
vt 0.729532 0.040241
vt 0.720230 0.312655
vt 0.733140 0.147129
vt 0.728728 0.195858
vt 0.730319 0.261609
vt 0.732648 0.358754
vt 0.658232 0.106705
vt 0.656180 0.252957
vt 0.660695 0.153723
vt 0.657464 0.358489
vt 0.472042 0.301975
vt 0.474256 0.100005
vt 0.473059 0.259117
vt 0.473038 0.150298
vt 0.472003 0.198480
vt 0.659099 0.197539
vt 0.473567 0.303092
vt 0.669442 0.358760
vt 0.633194 0.253333
vt 0.637317 0.301699
vt 0.626421 0.301910
vt 0.648890 0.198519
vt 0.635314 0.153957
vt 0.631793 0.106450
vt 0.630982 0.105081
vt 0.574833 0.152236
vt 0.574560 0.196230
vt 0.575212 0.255584
vt 0.577347 0.303459
vt 0.578996 0.362393
vt 0.574774 0.234930
vt 0.885195 0.169871
vt 0.872723 0.122444
vt 0.867887 0.416959
vt 0.607340 0.462556
vt 0.542445 0.499676
vt 0.534905 0.463580
vt 0.582951 0.429931
vt 0.653751 0.397774
vt 0.726347 0.451477
vt 0.616715 0.386455
vt 0.671798 0.410228
vt 0.686158 0.382373
vt 0.723373 0.009217
vt 0.823239 0.043734
vt 0.849967 0.601070
vt 0.118639 0.480510
vt 0.584285 0.734564
vt 0.408074 0.760213
vt 0.027246 0.682373
vt 0.018289 0.614695
vt 0.014009 0.761565
vt 0.080083 0.774078
vt 0.156807 0.779488
vt 0.216521 0.743228
vt 0.189706 0.814399
vt 0.173522 0.780286
vt 0.185000 0.704926
vt 0.156460 0.740245
vt 0.161929 0.712965
vt 0.126284 0.761929
vt 0.130963 0.636763
vt 0.117912 0.664679
vt 0.120156 0.857506
vt 0.932114 0.592123
vt 0.926411 0.573829
vt 0.613076 0.878368
vt 0.619663 0.743731
vt 0.622718 0.522659
vt 0.590944 0.681492
vt 0.624082 0.814753
vt 0.624458 0.478383
vt 0.688106 0.905445
vt 0.709836 0.824808
vt 0.711473 0.735795
vt 0.712459 0.594950
vt 0.716573 0.549051
vt 0.719341 0.669364
vt 0.732435 0.598789
vt 0.700965 0.669716
vt 0.714511 0.552435
vt 0.700988 0.816458
vt 0.674952 0.893544
vt 0.666412 0.736498
vt 0.728530 0.827852
vt 0.723160 0.908589
vt 0.725143 0.990698
vt 0.731452 0.626436
vt 0.625895 0.561313
vt 0.664108 0.672529
vt 0.685024 0.600727
vt 0.537061 0.850439
vt 0.541893 0.747381
vt 0.547075 0.561026
vt 0.521377 0.688619
vt 0.549091 0.806121
vt 0.547394 0.959208
vt 0.633739 0.738186
vt 0.682546 0.606047
vt 0.677956 0.594623
vt 0.745972 0.828643
vt 0.739024 0.978434
vt 0.775101 0.550766
vt 0.748809 0.670363
vt 0.750289 0.737747
vt 0.743730 0.906598
vt 0.751244 0.736901
vt 0.805664 0.517119
vt 0.839184 0.673133
vt 0.813830 0.816627
vt 0.811786 0.720104
vt 0.893632 0.765485
vt 0.895255 0.928726
vt 0.892325 0.583756
vt 0.882502 0.610350
vt 0.819296 0.568328
vt 0.823981 0.810821
vt 0.877719 0.884329
vt 0.826582 0.871027
vt 0.881372 0.627176
vt 0.884675 0.679426
vt 0.884756 0.859024
vt 0.904390 0.766533
vt 0.884888 0.797220
vt 0.943475 0.762065
vt 0.931087 0.722115
vt 0.926189 0.686353
vt 0.926815 0.645881
vt 0.937857 0.632961
vt 0.905255 0.682656
vt 0.899207 0.807980
vt 0.907933 0.718647
vt 0.021863 0.642041
vt 0.542716 0.553065
vt 0.060667 0.352347
vt 0.952794 0.425210
vt 0.929100 0.806982
vt 0.139559 0.816926
vt 0.207981 0.474393
vt 0.484635 0.805926
vt 0.083499 0.576973
vt 0.894752 0.789334
vt 0.337004 0.715453
vt 0.074736 0.671710
vt 0.069462 0.617183
vt 0.064282 0.177666
vt 0.856789 0.271525
vt 0.868081 0.066078
vt 0.872003 0.328846
vt 0.863600 0.069639
vt 0.818989 0.384370
vt 0.805830 0.131684
vt 0.840310 0.264777
vt 0.825968 0.232288
vt 0.866070 0.361960
vt 0.789988 0.320806
vt 0.822707 0.314807
vt 0.790961 0.088544
vt 0.799649 0.192853
vt 0.822564 0.140989
vt 0.789238 0.257665
vt 0.781530 0.230439
vt 0.824655 0.197025
vt 0.780339 0.740597
vt 0.220268 0.771209
vt 0.278981 0.780771
vt 0.336770 0.765941
vt 0.373036 0.281603
vt 0.920103 0.136873
vt 0.812431 0.397595
vt 0.846683 0.802008
vt 0.412465 0.823552
vt 0.379158 0.097329
vt 0.729532 0.040241
vt 0.720230 0.312655
vt 0.733140 0.147129
vt 0.728728 0.195858
vt 0.730319 0.261609
vt 0.732648 0.358754
vt 0.658232 0.106705
vt 0.656180 0.252957
vt 0.660695 0.153723
vt 0.657464 0.358489
vt 0.472042 0.301975
vt 0.474256 0.100005
vt 0.473059 0.259117
vt 0.473038 0.150298
vt 0.472003 0.198480
vt 0.659099 0.197539
vt 0.473567 0.303092
vt 0.669442 0.358760
vt 0.633194 0.253333
vt 0.637317 0.301699
vt 0.626421 0.301910
vt 0.648890 0.198519
vt 0.635314 0.153957
vt 0.631793 0.106450
vt 0.630982 0.105081
vt 0.574833 0.152236
vt 0.574560 0.196230
vt 0.575212 0.255584
vt 0.577347 0.303459
vt 0.578996 0.362393
vt 0.574774 0.234930
vt 0.885195 0.169871
vt 0.872723 0.122444
vt 0.867887 0.416959
vt 0.607340 0.462556
vt 0.542445 0.499676
vt 0.534905 0.463580
vt 0.582951 0.429931
vt 0.653751 0.397774
vt 0.726347 0.451477
vt 0.616715 0.386455
vt 0.671798 0.410228
vt 0.686158 0.382373
vt 0.723373 0.009217
vt 0.823239 0.043734
vt 0.849967 0.601070
vt 0.118639 0.480510
vt 0.584285 0.853908
vt 0.349620 0.772240
vt 0.447570 0.549091
vt 0.012855 0.760213
vt 0.027246 0.682373
vt 0.018289 0.614695
vt 0.014009 0.761565
vt 0.080083 0.774078
vt 0.156807 0.779488
vt 0.216521 0.743228
vt 0.189706 0.780286
vt 0.185000 0.704926
vt 0.156460 0.740245
vt 0.161929 0.712965
vt 0.126284 0.761929
vt 0.130963 0.636763
vt 0.117912 0.664679
vt 0.120156 0.573829
vt 0.613076 0.878368
vt 0.619663 0.743731
vt 0.622718 0.522659
vt 0.590944 0.681492
vt 0.624082 0.814753
vt 0.624458 0.478383
vt 0.688106 0.905445
vt 0.709836 0.824808
vt 0.711473 0.735795
vt 0.712459 0.594950
vt 0.716573 0.549051
vt 0.719341 0.669364
vt 0.732435 0.598789
vt 0.700965 0.669716
vt 0.714511 0.552435
vt 0.700988 0.816458
vt 0.674952 0.893544
vt 0.666412 0.736498
vt 0.728530 0.827852
vt 0.723160 0.908589
vt 0.725143 0.990698
vt 0.731452 0.626436
vt 0.625895 0.561313
vt 0.664108 0.672529
vt 0.685024 0.600727
vt 0.537061 0.850439
vt 0.541893 0.747381
vt 0.547075 0.561026
vt 0.521377 0.688619
vt 0.549091 0.806121
vt 0.547394 0.959208
vt 0.633739 0.738186
vt 0.682546 0.606047
vt 0.677956 0.594623
vt 0.745972 0.828643
vt 0.739024 0.978434
vt 0.775101 0.550766
vt 0.748809 0.670363
vt 0.750289 0.737747
vt 0.743730 0.906598
vt 0.751244 0.736901
vt 0.805664 0.517119
vt 0.839184 0.673133
vt 0.813830 0.816627
vt 0.811786 0.720104
vt 0.893632 0.765485
vt 0.895255 0.928726
vt 0.892325 0.583756
vt 0.882502 0.610350
vt 0.819296 0.568328
vt 0.823981 0.810821
vt 0.877719 0.884329
vt 0.826582 0.871027
vt 0.881372 0.627176
vt 0.884675 0.679426
vt 0.884756 0.859024
vt 0.904390 0.766533
vt 0.884888 0.797220
vt 0.943475 0.762065
vt 0.931087 0.722115
vt 0.926189 0.686353
vt 0.926815 0.645881
vt 0.937857 0.632961
vt 0.905255 0.682656
vt 0.899207 0.807980
vt 0.907933 0.718647
vt 0.021863 0.642041
vt 0.542716 0.504889
vt 0.455259 0.545043
vt 0.385057 0.664462
vt 0.159893 0.497545
vt 0.470753 0.262717
vt 0.366801 0.402012
vt 0.440063 0.170967
vt 0.430437 0.083593
vt 0.340515 0.034047
vt 0.299945 0.059972
vt 0.243793 0.069816
vt 0.400528 0.264667
vt 0.304367 0.157636
vt 0.114423 0.168586
vt 0.215260 0.182318
vt 0.315769 0.482605
vt 0.145441 0.435467
vt 0.336272 0.267878
vt 0.206664 0.357002
vt 0.114698 0.346466
vt 0.211902 0.337018
vt 0.311479 0.333817
vt 0.415185 0.573918
vt 0.177457 0.008229
vt 0.197732 0.041680
vt 0.141383 0.459937
vt 0.246101 0.208068
vt 0.107851 0.324235
vt 0.110464 0.269760
vt 0.053010 0.304690
vt 0.411752 0.216587
vt 0.417055 0.448185
vt 0.461875 0.381216
vt 0.446611 0.218591
vt 0.429929 0.440062
vt 0.475910 0.305000
vt 0.430097 0.263041
vt 0.398312 0.442753
vt 0.091144 0.990951
vt 0.022687 0.860660
vt 0.369300 0.852294
vt 0.083553 0.864028
vt 0.156120 0.868328
vt 0.262809 0.992114
vt 0.256679 0.992429
vt 0.362250 0.991800
vt 0.151108 0.150113
vt 0.447899 0.860660
vt 0.369300 0.852294
vt 0.083553 0.864028
vt 0.156120 0.868328
vt 0.262809 0.990702
vt 0.452836 0.990299
vt 0.505510 0.728185
vt 0.411910 0.593059
vt 0.340654 0.655166
vt 0.521026 0.688142
vt 0.461729 0.659549
vt 0.380857 0.624003
vt 0.430522 0.530448
vt 0.479996 0.592674
vt 0.494601 0.565417
vt 0.413270 0.591275
vt 0.299181 0.725878
vt 0.518959 0.262717
vt 0.366801 0.402012
vt 0.440063 0.170967
vt 0.430437 0.083593
vt 0.340515 0.034047
vt 0.299945 0.059972
vt 0.243793 0.069816
vt 0.400528 0.264667
vt 0.304367 0.157636
vt 0.114423 0.168586
vt 0.215260 0.182318
vt 0.315769 0.482605
vt 0.145441 0.435467
vt 0.336272 0.267878
vt 0.206664 0.357002
vt 0.114698 0.346466
vt 0.211902 0.337018
vt 0.311479 0.333817
vt 0.415185 0.573918
vt 0.177457 0.008229
vt 0.197732 0.041680
vt 0.141383 0.459937
vt 0.246101 0.208068
vt 0.107851 0.324235
vt 0.110464 0.269760
vt 0.053010 0.304690
vt 0.411752 0.216587
vt 0.417055 0.448185
vt 0.461875 0.381216
vt 0.446611 0.218591
vt 0.429929 0.440062
vt 0.475910 0.305000
vt 0.430097 0.263041
vt 0.398312 0.443057
vt 0.091365 0.878899
vt 0.505745 0.035742
vt 0.768950 0.012371
vt 0.775612 0.634418
vt 0.125283 0.434379
vt 0.837088 0.699885
vt 0.190197 0.357274
vt 0.734730 0.043075
vt 0.653958 0.043301
vt 0.470888 0.042548
vt 0.576811 0.042625
vt 0.631502 0.365448
vt 0.712409 0.365762
vt 0.662074 0.390130
vt 0.599595 0.427886
vt 0.555504 0.437326
vt 0.492912 0.543257
vt 0.508596 0.521762
vt 0.558171 0.461073
vt 0.673416 0.405620
vt 0.774304 0.487867
vt 0.609005 0.424363
vt 0.716077 0.669035
vt 0.140672 0.430773
vt 0.781746 0.544233
vt 0.115014 0.475088
vt 0.723347 0.988838
vt 0.688760 0.483553
vt 0.763852 0.492819
vt 0.629345 0.890699
vt 0.527625 0.928832
vt 0.597890 0.946398
vt 0.852013 0.533245
vt 0.874427 0.529979
vt 0.879850 0.774772
vt 0.967318 0.720806
vt 0.955763 0.825368
vt 0.993105 0.681924
vt 0.953473 0.656263
vt 0.966878 0.614856
vt 0.981573 0.549091
vt 0.012855 0.553065
vt 0.060667 0.806982
vt 0.139559 0.425210
vt 0.929100 0.035742
vt 0.768950 0.012371
vt 0.775612 0.634418
vt 0.125283 0.465012
vt 0.914634 0.434379
vt 0.837088 0.699885
vt 0.190197 0.298351
vt 0.970918 0.352347
vt 0.952794 0.357274
vt 0.734730 0.816926
vt 0.207981 0.820116
vt 0.264457 0.825318
vt 0.308750 0.474393
vt 0.484635 0.508220
vt 0.490611 0.734564
vt 0.408074 0.772240
vt 0.447570 0.805926
vt 0.083499 0.813795
vt 0.029105 0.043075
vt 0.653958 0.042548
vt 0.576811 0.043301
vt 0.470888 0.042625
vt 0.631502 0.365448
vt 0.712409 0.365762
vt 0.662074 0.390130
vt 0.599595 0.427886
vt 0.555504 0.437326
vt 0.492912 0.543257
vt 0.508596 0.521762
vt 0.558171 0.461073
vt 0.673416 0.405620
vt 0.774304 0.487867
vt 0.609005 0.424363
vt 0.716077 0.669035
vt 0.140672 0.430773
vt 0.781746 0.544233
vt 0.115014 0.814399
vt 0.173522 0.853908
vt 0.349620 0.475088
vt 0.723347 0.988838
vt 0.688760 0.483553
vt 0.763852 0.492819
vt 0.629345 0.890699
vt 0.527625 0.928832
vt 0.597890 0.946398
vt 0.852013 0.887023
vt 0.900524 0.930866
vt 0.898434 0.533245
vt 0.874427 0.576973
vt 0.894752 0.529979
vt 0.879850 0.592123
vt 0.926411 0.857506
vt 0.932114 0.774772
vt 0.967318 0.720806
vt 0.955763 0.841175
vt 0.966818 0.825368
vt 0.993105 0.681924
vt 0.953473 0.656263
vt 0.966878 0.614856
vt 0.981573 0.604395
vt 0.955521 0.496103
vt 0.104802 0.445021
vt 0.023916 0.407994
vt 0.072840 0.725255
vt 0.441759 0.838026
vt 0.519734 0.878899
vt 0.505745 0.990299
vt 0.505510 0.990702
vt 0.452836 0.992429
vt 0.362250 0.991800
vt 0.151108 0.992114
vt 0.256679 0.990951
vt 0.022687 0.150113
vt 0.447899 0.504889
vt 0.455259 0.591275
vt 0.299181 0.545043
vt 0.385057 0.664462
vt 0.159893 0.497545
vt 0.470753 0.444913
vt 0.024122 0.496424
vt 0.104664 0.408348
vt 0.073410 0.725255
vt 0.441759 0.725878
vt 0.518959 0.838026
vt 0.519734 1.000000
vt 0.090395 0.186107
vt 0.093844 0.167498
vt 0.097293 0.186107
vt 0.093844 0.164544
vt 0.028535 0.153825
vt 0.044133 0.143105
vt 0.059730 0.153825
vt 0.044133 0.092397
vt 0.013200 0.095846
vt 0.031809 0.099295
vt 0.050418 0.095846
vt 0.031809 0.030538
vt 0.053372 0.046135
vt 0.064092 0.061732
vt 0.074811 0.046135
vt 0.064092 0.015202
vt 0.125519 0.033811
vt 0.122070 0.052420
vt 0.118621 0.033811
vt 0.122070 0.030562
vt 0.053504 0.046159
vt 0.064224 0.061757
vt 0.074943 0.046159
vt 0.064224 0.092422
vt 0.013332 0.095870
vt 0.031941 0.099319
vt 0.050550 0.095870
vt 0.031941 0.164569
vt 0.028668 0.153849
vt 0.044265 0.143129
vt 0.059862 0.153849
vt 0.044265 0.731313
vt 0.348940 0.721137
vt 0.340459 0.720746
vt 0.234537 0.731241
vt 0.220834 0.707886
vt 0.329985 0.707681
vt 0.242217 0.721137
vt 0.340459 0.720746
vt 0.234537 0.647630
vt 0.235176 0.636950
vt 0.221657 0.660881
vt 0.242627 0.647630
vt 0.235176 0.648021
vt 0.341097 0.637022
vt 0.349762 0.661086
vt 0.330395 0.648021
vt 0.341097 0.165274
vt 0.882819 0.152886
vt 0.895208 0.140496
vt 0.910604 0.152886
vt 0.895208 0.013033
vt 0.882164 0.025422
vt 0.894553 0.037809
vt 0.909947 0.025422
vt 0.894553 0.013033
vt 0.992490 0.025422
vt 0.980101 0.037811
vt 0.964705 0.025422
vt 0.980101 0.165274
vt 0.993145 0.152886
vt 0.980756 0.140498
vt 0.965362 0.152886
vt 0.980756 0.165274
vt 0.882819 0.152886
vt 0.895208 0.025422
vt 0.894553 0.013033
vt 0.882164 0.140496
vt 0.910604 0.037809
vt 0.909947 0.152886
vt 0.895208 0.025422
vt 0.894553 0.025422
vt 0.980101 0.013033
vt 0.992490 0.037811
vt 0.964705 0.025422
vt 0.980101 0.152886
vt 0.980756 0.165274
vt 0.993145 0.140498
vt 0.965362 0.152886
vt 0.980756 0.731313
vt 0.348940 0.721137
vt 0.340459 0.720746
vt 0.234537 0.731241
vt 0.220834 0.707886
vt 0.329985 0.707681
vt 0.242217 0.721137
vt 0.340459 0.720746
vt 0.234537 0.647630
vt 0.235176 0.636950
vt 0.221657 0.660881
vt 0.242627 0.647630
vt 0.235176 0.648021
vt 0.341097 0.637022
vt 0.349762 0.661086
vt 0.330395 0.648021
vt 0.341097 0.731313
vt 0.348940 0.721137
vt 0.340459 0.720746
vt 0.234537 0.731241
vt 0.220834 0.707886
vt 0.329985 0.707681
vt 0.242217 0.721137
vt 0.340459 0.720746
vt 0.234537 0.647630
vt 0.235176 0.636950
vt 0.221657 0.660881
vt 0.242627 0.647630
vt 0.235176 0.648021
vt 0.341097 0.637022
vt 0.349762 0.661086
vt 0.330395 0.648021
vt 0.341097 0.731313
vt 0.348940 0.721137
vt 0.340459 0.720746
vt 0.234537 0.731241
vt 0.220834 0.707886
vt 0.329985 0.707681
vt 0.242217 0.721137
vt 0.340459 0.720746
vt 0.234537 0.647630
vt 0.235176 0.636950
vt 0.221657 0.660881
vt 0.242627 0.647630
vt 0.235176 0.648021
vt 0.341097 0.637022
vt 0.349762 0.661086
vt 0.330395 0.648021
vt 0.341097 0.165274
vt 0.882819 0.152886
vt 0.895208 0.140496
vt 0.910604 0.152886
vt 0.895208 0.013033
vt 0.882164 0.025422
vt 0.894553 0.037809
vt 0.909947 0.025422
vt 0.894553 0.013033
vt 0.992490 0.025422
vt 0.980101 0.037811
vt 0.964705 0.025422
vt 0.980101 0.165274
vt 0.993145 0.152886
vt 0.980756 0.140498
vt 0.965362 0.152886
vt 0.980756 0.165274
vt 0.882819 0.152886
vt 0.895208 0.025422
vt 0.894553 0.013033
vt 0.882164 0.140496
vt 0.910604 0.037809
vt 0.909947 0.152886
vt 0.895208 0.025422
vt 0.894553 0.025422
vt 0.980101 0.013033
vt 0.992490 0.037811
vt 0.964705 0.025422
vt 0.980101 0.152886
vt 0.980756 0.165274
vt 0.993145 0.140498
vt 0.965362 0.152886
vt 0.980756 0.731313
vt 0.348940 0.721137
vt 0.340459 0.720746
vt 0.234537 0.731241
vt 0.220834 0.707886
vt 0.329985 0.707681
vt 0.242217 0.721137
vt 0.340459 0.720746
vt 0.234537 0.647630
vt 0.235176 0.636950
vt 0.221657 0.660881
vt 0.242627 0.647630
vt 0.235176 0.648021
vt 0.341097 0.637022
vt 0.349762 0.661086
vt 0.330395 0.648021
vt 0.341097 0.731313
vt 0.348940 0.721137
vt 0.340459 0.720746
vt 0.234537 0.731241
vt 0.220834 0.707886
vt 0.329985 0.707681
vt 0.242217 0.721137
vt 0.340459 0.720746
vt 0.234537 0.647630
vt 0.235176 0.636950
vt 0.221657 0.660881
vt 0.242627 0.647630
vt 0.235176 0.648021
vt 0.341097 0.637022
vt 0.349762 0.661086
vt 0.330395 0.648021
vt 0.341097 1.000000

f 176/176 265/265 14/14
f 93/93 14/14 265/265
f 174/174 13/13 92/92
f 91/91 94/94 12/12
f 95/95 103/103 179/179
f 178/178 39/39 18/18
f 73/73 37/37 16/16
f 16/16 23/23 73/73
f 25/25 24/24 26/26
f 24/24 25/25 20/20
f 19/19 447/447 448/448
f 447/447 19/19 27/27
f 86/86 87/87 19/19
f 19/19 448/448 86/86
f 449/449 88/88 104/104
f 39/39 178/178 5/5
f 5/5 450/450 39/39
f 17/17 21/21 19/19
f 28/28 23/23 31/31
f 23/23 28/28 15/15
f 22/22 31/31 23/23
f 21/21 15/15 38/38
f 451/451 97/97 33/33
f 23/23 16/16 22/22
f 16/16 18/18 25/25
f 16/16 25/25 22/22
f 83/83 84/84 81/81
f 81/81 85/85 83/83
f 99/99 97/97 95/95
f 101/101 95/95 97/97
f 451/451 100/100 101/101
f 18/18 16/16 37/37
f 37/37 2/2 177/177
f 37/37 177/177 18/18
f 29/29 27/27 38/38
f 22/22 25/25 26/26
f 28/28 29/29 38/38
f 29/29 28/28 32/32
f 26/26 30/30 22/22
f 31/31 32/32 28/28
f 32/32 31/31 30/30
f 22/22 30/30 31/31
f 76/76 82/82 80/80
f 42/42 43/43 447/447
f 447/447 27/27 42/42
f 452/452 44/44 26/26
f 26/26 24/24 452/452
f 45/45 27/27 29/29
f 27/27 45/45 42/42
f 46/46 45/45 29/29
f 29/29 32/32 46/46
f 44/44 47/47 30/30
f 30/30 26/26 44/44
f 47/47 46/46 32/32
f 30/30 47/47 32/32
f 76/76 80/80 83/83
f 96/96 180/180 1/1
f 34/34 4/4 11/11
f 35/35 34/34 11/11
f 36/36 35/35 11/11
f 78/78 77/77 181/181
f 181/181 3/3 78/78
f 38/38 27/27 21/21
f 28/28 38/38 15/15
f 25/25 39/39 20/20
f 39/39 25/25 18/18
f 177/177 178/178 18/18
f 36/36 40/40 90/90
f 264/264 90/90 40/40
f 19/19 21/21 27/27
f 87/87 17/17 19/19
f 10/10 182/182 91/91
f 14/14 93/93 13/13
f 92/92 13/13 93/93
f 452/452 48/48 44/44
f 59/59 44/44 48/48
f 453/453 43/43 49/49
f 42/42 49/49 43/43
f 47/47 50/50 57/57
f 57/57 46/46 47/47
f 45/45 46/46 57/57
f 57/57 51/51 45/45
f 44/44 59/59 47/47
f 50/50 47/47 59/59
f 49/49 42/42 45/45
f 45/45 51/51 49/49
f 72/72 52/52 53/53
f 71/71 62/62 60/60
f 454/454 455/455 67/67
f 49/49 66/66 456/456
f 69/69 64/64 70/70
f 57/57 61/61 64/64
f 66/66 49/49 51/51
f 68/68 56/56 54/54
f 57/57 64/64 51/51
f 56/56 68/68 69/69
f 55/55 70/70 71/71
f 62/62 71/71 70/70
f 60/60 62/62 63/63
f 49/49 456/456 453/453
f 57/57 50/50 61/61
f 63/63 61/61 50/50
f 63/63 48/48 60/60
f 50/50 59/59 63/63
f 63/63 62/62 61/61
f 63/63 59/59 48/48
f 69/69 58/58 56/56
f 55/55 58/58 69/69
f 65/65 51/51 64/64
f 51/51 65/65 66/66
f 66/66 67/67 455/455
f 67/67 66/66 65/65
f 67/67 54/54 454/454
f 54/54 67/67 68/68
f 68/68 65/65 64/64
f 65/65 68/68 67/67
f 55/55 69/69 70/70
f 64/64 69/69 68/68
f 70/70 61/61 62/62
f 70/70 64/64 61/61
f 71/71 53/53 55/55
f 53/53 71/71 72/72
f 455/455 456/456 66/66
f 60/60 72/72 71/71
f 74/74 73/73 23/23
f 23/23 15/15 74/74
f 21/21 75/75 74/74
f 74/74 15/15 21/21
f 21/21 17/17 75/75
f 77/77 78/78 79/79
f 83/83 85/85 457/457
f 76/76 83/83 458/458
f 458/458 459/459 76/76
f 77/77 76/76 459/459
f 459/459 460/460 77/77
f 181/181 77/77 460/460
f 460/460 461/461 181/181
f 78/78 3/3 462/462
f 462/462 463/463 78/78
f 89/89 79/79 78/78
f 82/82 79/79 89/89
f 84/84 80/80 464/464
f 457/457 85/85 465/465
f 79/79 82/82 76/76
f 80/80 82/82 466/466
f 466/466 464/464 80/80
f 77/77 79/79 76/76
f 80/80 84/84 83/83
f 458/458 83/83 457/457
f 467/467 84/84 464/464
f 81/81 84/84 467/467
f 465/465 85/85 81/81
f 465/465 81/81 467/467
f 12/12 13/13 174/174
f 91/91 12/12 174/174
f 105/105 468/468 104/104
f 449/449 104/104 468/468
f 450/450 469/469 20/20
f 20/20 39/39 450/450
f 88/88 470/470 176/176
f 176/176 14/14 88/88
f 451/451 468/468 100/100
f 89/89 466/466 82/82
f 463/463 466/466 89/89
f 78/78 463/463 89/89
f 102/102 103/103 101/101
f 95/95 101/101 103/103
f 179/179 98/98 95/95
f 99/99 95/95 98/98
f 4/4 34/34 1/1
f 33/33 96/96 34/34
f 34/34 96/96 1/1
f 96/96 33/33 99/99
f 97/97 99/99 33/33
f 96/96 99/99 180/180
f 98/98 180/180 99/99
f 12/12 94/94 102/102
f 103/103 102/102 94/94
f 103/103 94/94 179/179
f 182/182 179/179 94/94
f 14/14 104/104 88/88
f 14/14 13/13 104/104
f 13/13 105/105 104/104
f 102/102 105/105 12/12
f 13/13 12/12 105/105
f 101/101 100/100 102/102
f 468/468 105/105 100/100
f 102/102 100/100 105/105
f 182/182 94/94 91/91
f 4/4 263/263 11/11
f 41/41 11/11 263/263
f 11/11 41/41 36/36
f 40/40 36/36 41/41
f 129/129 148/148 144/144
f 126/126 147/147 143/143
f 143/143 127/127 126/126
f 123/123 114/114 471/471
f 120/120 146/146 126/126
f 115/115 127/127 128/128
f 127/127 115/115 116/116
f 145/145 118/118 119/119
f 118/118 145/145 142/142
f 146/146 120/120 118/118
f 118/118 142/142 146/146
f 126/126 122/122 120/120
f 471/471 145/145 119/119
f 116/116 124/124 117/117
f 140/140 117/117 124/124
f 121/121 119/119 118/118
f 119/119 121/121 123/123
f 120/120 122/122 118/118
f 121/121 118/118 122/122
f 115/115 472/472 125/125
f 139/139 125/125 472/472
f 125/125 116/116 115/115
f 116/116 125/125 124/124
f 117/117 122/122 126/126
f 132/132 140/140 112/112
f 110/110 112/112 140/140
f 471/471 119/119 123/123
f 131/131 141/141 108/108
f 130/130 108/108 141/141
f 126/126 127/127 116/116
f 116/116 117/117 126/126
f 129/129 472/472 128/128
f 472/472 115/115 128/128
f 126/126 146/146 147/147
f 148/148 128/128 127/127
f 127/127 143/143 148/148
f 129/129 128/128 148/148
f 145/145 471/471 473/473
f 131/131 474/474 123/123
f 114/114 123/123 474/474
f 141/141 131/131 121/121
f 123/123 121/121 131/131
f 122/122 141/141 121/121
f 141/141 122/122 132/132
f 132/132 122/122 140/140
f 117/117 140/140 122/122
f 136/136 111/111 133/133
f 108/108 133/133 111/111
f 137/137 112/112 135/135
f 110/110 135/135 112/112
f 112/112 137/137 130/130
f 135/135 110/110 138/138
f 113/113 138/138 110/110
f 138/138 113/113 134/134
f 109/109 134/134 113/113
f 134/134 109/109 475/475
f 476/476 475/475 109/109
f 130/130 175/175 133/133
f 131/131 108/108 474/474
f 111/111 474/474 108/108
f 132/132 112/112 130/130
f 130/130 141/141 132/132
f 140/140 124/124 110/110
f 113/113 110/110 124/124
f 124/124 125/125 113/113
f 109/109 113/113 125/125
f 125/125 139/139 109/109
f 476/476 109/109 139/139
f 157/157 145/145 158/158
f 145/145 157/157 142/142
f 151/151 146/146 142/142
f 142/142 157/157 151/151
f 473/473 158/158 145/145
f 147/147 146/146 151/151
f 147/147 151/151 149/149
f 160/160 143/143 152/152
f 152/152 147/147 149/149
f 143/143 160/160 148/148
f 158/158 473/473 150/150
f 477/477 144/144 160/160
f 143/143 147/147 152/152
f 144/144 148/148 160/160
f 155/155 9/9 8/8
f 173/173 164/164 159/159
f 153/153 163/163 172/172
f 157/157 162/162 163/163
f 172/172 163/163 171/171
f 161/161 160/160 159/159
f 159/159 165/165 154/154
f 156/156 158/158 150/150
f 478/478 156/156 150/150
f 160/160 152/152 159/159
f 477/477 160/160 155/155
f 161/161 155/155 160/160
f 164/164 161/161 159/159
f 183/183 171/171 156/156
f 156/156 157/157 158/158
f 157/157 156/156 162/162
f 479/479 183/183 478/478
f 159/159 154/154 173/173
f 152/152 149/149 165/165
f 183/183 107/107 171/171
f 156/156 478/478 183/183
f 161/161 164/164 9/9
f 161/161 9/9 155/155
f 162/162 171/171 163/163
f 162/162 156/156 171/171
f 163/163 151/151 157/157
f 164/164 106/106 9/9
f 106/106 164/164 173/173
f 152/152 165/165 159/159
f 165/165 153/153 154/154
f 480/480 166/166 167/167
f 168/168 481/481 167/167
f 480/480 167/167 481/481
f 6/6 166/166 482/482
f 480/480 482/482 166/166
f 168/168 169/169 481/481
f 481/481 169/169 483/483
f 169/169 170/170 484/484
f 485/485 170/170 7/7
f 170/170 485/485 484/484
f 106/106 173/173 6/6
f 166/166 6/6 173/173
f 172/172 169/169 153/153
f 168/168 153/153 169/169
f 170/170 169/169 172/172
f 172/172 171/171 170/170
f 153/153 168/168 154/154
f 167/167 154/154 168/168
f 167/167 166/166 154/154
f 173/173 154/154 166/166
f 107/107 170/170 171/171
f 170/170 107/107 7/7
f 153/153 165/165 149/149
f 151/151 153/153 149/149
f 163/163 153/153 151/151
f 108/108 130/130 133/133
f 484/484 483/483 169/169
f 101/101 97/97 451/451
f 137/137 175/175 130/130
f 486/486 487/487 187/187
f 187/187 268/268 486/486
f 186/186 346/346 267/267
f 269/269 266/266 185/185
f 277/277 270/270 488/488
f 212/212 489/489 191/191
f 210/210 246/246 189/189
f 196/196 189/189 246/246
f 197/197 198/198 199/199
f 198/198 197/197 193/193
f 490/490 192/192 491/491
f 192/192 490/490 200/200
f 260/260 259/259 192/192
f 491/491 192/192 259/259
f 261/261 492/492 278/278
f 489/489 212/212 493/493
f 494/494 493/493 212/212
f 194/194 190/190 192/192
f 196/196 201/201 204/204
f 201/201 196/196 188/188
f 204/204 195/195 196/196
f 188/188 194/194 211/211
f 272/272 495/495 206/206
f 189/189 196/196 195/195
f 191/191 189/189 198/198
f 198/198 189/189 195/195
f 257/257 256/256 254/254
f 258/258 254/254 256/256
f 272/272 273/273 270/270
f 270/270 275/275 272/272
f 274/274 495/495 275/275
f 189/189 191/191 210/210
f 496/496 210/210 497/497
f 497/497 210/210 191/191
f 200/200 202/202 211/211
f 198/198 195/195 199/199
f 202/202 201/201 211/211
f 201/201 202/202 205/205
f 203/203 199/199 195/195
f 205/205 204/204 201/201
f 204/204 205/205 203/203
f 203/203 195/195 204/204
f 255/255 249/249 253/253
f 216/216 215/215 490/490
f 200/200 490/490 215/215
f 217/217 498/498 199/199
f 197/197 199/199 498/498
f 200/200 218/218 202/202
f 218/218 200/200 215/215
f 218/218 219/219 202/202
f 205/205 202/202 219/219
f 220/220 217/217 203/203
f 199/199 203/203 217/217
f 219/219 220/220 205/205
f 220/220 203/203 205/205
f 253/253 249/249 256/256
f 499/499 271/271 500/500
f 501/501 207/207 184/184
f 207/207 208/208 184/184
f 208/208 209/209 184/184
f 250/250 251/251 502/502
f 503/503 502/502 251/251
f 200/200 211/211 194/194
f 211/211 201/201 188/188
f 212/212 198/198 193/193
f 198/198 212/212 191/191
f 489/489 497/497 191/191
f 213/213 209/209 504/504
f 504/504 505/505 213/213
f 194/194 192/192 200/200
f 190/190 260/260 192/192
f 506/506 507/507 266/266
f 268/268 187/187 186/186
f 186/186 267/267 268/268
f 221/221 498/498 217/217
f 217/217 232/232 221/221
f 216/216 508/508 222/222
f 222/222 215/215 216/216
f 223/223 220/220 230/230
f 219/219 230/230 220/220
f 219/219 218/218 230/230
f 224/224 230/230 218/218
f 232/232 217/217 220/220
f 220/220 223/223 232/232
f 215/215 222/222 218/218
f 224/224 218/218 222/222
f 225/225 245/245 226/226
f 235/235 244/244 233/233
f 509/509 510/510 240/240
f 239/239 222/222 511/511
f 237/237 242/242 243/243
f 234/234 230/230 237/237
f 222/222 239/239 224/224
f 229/229 241/241 227/227
f 237/237 230/230 224/224
f 241/241 229/229 242/242
f 243/243 228/228 244/244
f 244/244 235/235 243/243
f 235/235 233/233 236/236
f 511/511 222/222 508/508
f 223/223 230/230 234/234
f 234/234 236/236 223/223
f 221/221 236/236 233/233
f 232/232 223/223 236/236
f 235/235 236/236 234/234
f 232/232 236/236 221/221
f 231/231 242/242 229/229
f 231/231 228/228 242/242
f 224/224 238/238 237/237
f 238/238 224/224 239/239
f 240/240 239/239 509/509
f 239/239 240/240 238/238
f 227/227 240/240 510/510
f 240/240 227/227 241/241
f 238/238 241/241 237/237
f 241/241 238/238 240/240
f 242/242 228/228 243/243
f 242/242 237/237 241/241
f 234/234 243/243 235/235
f 237/237 243/243 234/234
f 226/226 244/244 228/228
f 244/244 226/226 245/245
f 511/511 509/509 239/239
f 245/245 233/233 244/244
f 246/246 247/247 196/196
f 188/188 196/196 247/247
f 248/248 194/194 247/247
f 188/188 247/247 194/194
f 190/190 194/194 248/248
f 251/251 250/250 252/252
f 258/258 256/256 512/512
f 256/256 249/249 513/513
f 514/514 513/513 249/249
f 249/249 250/250 514/514
f 515/515 514/514 250/250
f 250/250 502/502 515/515
f 516/516 515/515 502/502
f 503/503 251/251 517/517
f 518/518 517/517 251/251
f 252/252 262/262 251/251
f 252/252 255/255 262/262
f 253/253 257/257 519/519
f 258/258 512/512 520/520
f 255/255 252/252 249/249
f 255/255 253/253 521/521
f 519/519 521/521 253/253
f 252/252 250/250 249/249
f 257/257 253/253 256/256
f 256/256 513/513 512/512
f 257/257 522/522 519/519
f 257/257 254/254 522/522
f 258/258 520/520 254/254
f 254/254 520/520 522/522
f 186/186 185/185 346/346
f 185/185 266/266 346/346
f 523/523 279/279 278/278
f 278/278 492/492 523/523
f 524/524 494/494 193/193
f 212/212 193/193 494/494
f 525/525 261/261 487/487
f 187/187 487/487 261/261
f 523/523 495/495 274/274
f 521/521 262/262 255/255
f 521/521 518/518 262/262
f 518/518 251/251 262/262
f 277/277 276/276 275/275
f 275/275 270/270 277/277
f 526/526 488/488 270/270
f 270/270 273/273 526/526
f 207/207 501/501 500/500
f 271/271 206/206 207/207
f 271/271 207/207 500/500
f 206/206 271/271 273/273
f 273/273 272/272 206/206
f 273/273 271/271 499/499
f 499/499 526/526 273/273
f 269/269 185/185 276/276
f 276/276 277/277 269/269
f 269/269 277/277 488/488
f 488/488 506/506 269/269
f 278/278 187/187 261/261
f 186/186 187/187 278/278
f 279/279 186/186 278/278
f 279/279 276/276 185/185
f 185/185 186/186 279/279
f 274/274 275/275 276/276
f 279/279 523/523 274/274
f 274/274 276/276 279/279
f 269/269 506/506 266/266
f 527/527 501/501 184/184
f 184/184 214/214 527/527
f 214/214 184/184 209/209
f 209/209 213/213 214/214
f 320/320 301/301 316/316
f 319/319 298/298 315/315
f 299/299 315/315 298/298
f 286/286 295/295 528/528
f 318/318 292/292 298/298
f 299/299 287/287 300/300
f 287/287 299/299 288/288
f 290/290 317/317 291/291
f 317/317 290/290 314/314
f 292/292 318/318 290/290
f 314/314 290/290 318/318
f 294/294 298/298 292/292
f 317/317 528/528 291/291
f 296/296 288/288 289/289
f 289/289 312/312 296/296
f 291/291 293/293 290/290
f 293/293 291/291 295/295
f 294/294 292/292 290/290
f 290/290 293/293 294/294
f 529/529 287/287 297/297
f 297/297 311/311 529/529
f 288/288 297/297 287/287
f 297/297 288/288 296/296
f 294/294 289/289 298/298
f 312/312 304/304 284/284
f 284/284 282/282 312/312
f 291/291 528/528 295/295
f 313/313 303/303 280/280
f 280/280 302/302 313/313
f 299/299 298/298 288/288
f 289/289 288/288 298/298
f 529/529 301/301 300/300
f 287/287 529/529 300/300
f 318/318 298/298 319/319
f 300/300 320/320 299/299
f 315/315 299/299 320/320
f 300/300 301/301 320/320
f 528/528 317/317 530/530
f 531/531 303/303 295/295
f 295/295 286/286 531/531
f 303/303 313/313 293/293
f 293/293 295/295 303/303
f 313/313 294/294 293/293
f 294/294 313/313 304/304
f 294/294 304/304 312/312
f 312/312 289/289 294/294
f 283/283 308/308 305/305
f 305/305 280/280 283/283
f 284/284 309/309 307/307
f 307/307 282/282 284/284
f 309/309 284/284 302/302
f 282/282 307/307 310/310
f 310/310 285/285 282/282
f 285/285 310/310 306/306
f 306/306 281/281 285/285
f 281/281 306/306 532/532
f 532/532 533/533 281/281
f 347/347 302/302 305/305
f 280/280 303/303 531/531
f 531/531 283/283 280/280
f 284/284 304/304 302/302
f 313/313 302/302 304/304
f 296/296 312/312 282/282
f 282/282 285/285 296/296
f 297/297 296/296 285/285
f 285/285 281/281 297/297
f 311/311 297/297 281/281
f 281/281 533/533 311/311
f 317/317 329/329 330/330
f 329/329 317/317 314/314
f 318/318 323/323 314/314
f 329/329 314/314 323/323
f 330/330 530/530 317/317
f 318/318 319/319 323/323
f 323/323 319/319 321/321
f 315/315 332/332 324/324
f 319/319 324/324 321/321
f 332/332 315/315 320/320
f 530/530 330/330 322/322
f 316/316 534/534 332/332
f 319/319 315/315 324/324
f 320/320 316/316 332/332
f 535/535 327/327 536/536
f 336/336 345/345 331/331
f 335/335 325/325 344/344
f 334/334 329/329 335/335
f 335/335 344/344 343/343
f 332/332 333/333 331/331
f 337/337 331/331 326/326
f 330/330 328/328 322/322
f 328/328 537/537 322/322
f 324/324 332/332 331/331
f 332/332 534/534 327/327
f 327/327 333/333 332/332
f 333/333 336/336 331/331
f 343/343 538/538 328/328
f 329/329 328/328 330/330
f 328/328 329/329 334/334
f 538/538 539/539 537/537
f 326/326 331/331 345/345
f 321/321 324/324 337/337
f 540/540 538/538 343/343
f 537/537 328/328 538/538
f 336/336 333/333 535/535
f 535/535 333/333 327/327
f 343/343 334/334 335/335
f 328/328 334/334 343/343
f 323/323 335/335 329/329
f 541/541 336/336 535/535
f 336/336 541/541 345/345
f 337/337 324/324 331/331
f 325/325 337/337 326/326
f 338/338 542/542 339/339
f 543/543 340/340 339/339
f 339/339 542/542 543/543
f 338/338 544/544 545/545
f 545/545 542/542 338/338
f 341/341 340/340 543/543
f 341/341 543/543 546/546
f 342/342 341/341 547/547
f 342/342 548/548 549/549
f 548/548 342/342 547/547
f 345/345 541/541 544/544
f 544/544 338/338 345/345
f 341/341 344/344 325/325
f 325/325 340/340 341/341
f 341/341 342/342 344/344
f 343/343 344/344 342/342
f 340/340 325/325 326/326
f 326/326 339/339 340/340
f 338/338 339/339 326/326
f 326/326 345/345 338/338
f 342/342 540/540 343/343
f 540/540 342/342 549/549
f 337/337 325/325 321/321
f 325/325 323/323 321/321
f 325/325 335/335 323/323
f 302/302 280/280 305/305
f 546/546 547/547 341/341
f 272/272 275/275 495/495
f 347/347 309/309 302/302
f 405/405 406/406 401/401
f 404/404 406/406 403/403
f 401/401 406/406 404/404
f 402/402 406/406 405/405
f 406/406 409/409 407/407
f 406/406 408/408 403/403
f 406/406 407/407 408/408
f 406/406 402/402 409/409
f 377/377 352/352 384/384
f 383/383 377/377 354/354
f 378/378 354/354 382/382
f 380/380 382/382 362/362
f 356/356 355/355 362/362
f 352/352 359/359 362/362
f 358/358 354/354 361/361
f 365/365 360/360 362/362
f 361/361 362/362 358/358
f 394/394 354/354 362/362
f 355/355 358/358 364/364
f 367/367 368/368 366/366
f 367/367 363/363 368/368
f 359/359 352/352 365/365
f 375/375 376/376 364/364
f 368/368 369/369 365/365
f 367/367 366/366 353/353
f 364/364 369/369 380/380
f 353/353 369/369 379/379
f 353/353 379/379 373/373
f 364/364 410/410 349/349
f 410/410 364/364 370/370
f 410/410 350/350 361/361
f 371/371 357/357 370/370
f 373/373 410/410 370/370
f 367/367 373/373 361/361
f 356/356 362/362 357/357
f 356/356 361/361 360/360
f 371/371 361/361 372/372
f 371/371 360/360 365/365
f 376/376 374/374 366/366
f 375/375 365/365 360/360
f 365/365 374/374 369/369
f 377/377 383/383 378/378
f 352/352 362/362 377/377
f 368/368 352/352 354/354
f 378/378 362/362 369/369
f 368/368 377/377 379/379
f 348/348 379/379 380/380
f 369/369 383/383 349/349
f 364/364 348/348 550/550
f 552/552 385/385 411/411
f 553/553 554/554 399/399
f 400/400 555/555 387/387
f 555/555 387/387 389/389
f 393/393 389/389 390/390
f 387/387 390/390 556/556
f 557/557 446/446 558/558
f 395/395 557/557 446/446
f 557/557 395/395 559/559
f 397/397 560/560 398/398
f 560/560 397/397 396/396
f 397/397 561/561 559/559
f 561/561 397/397 560/560
f 398/398 558/558 395/395
f 558/558 398/398 437/437
f 444/444 412/412 443/443
f 444/444 437/437 562/562
f 414/414 441/441 438/438
f 441/441 414/414 439/439
f 442/442 413/413 440/440
f 413/413 442/442 416/416
f 422/422 415/415 412/412
f 422/422 419/419 418/418
f 422/422 414/414 425/425
f 421/421 420/420 419/419
f 422/422 425/425 421/421
f 425/425 422/422 562/562
f 418/418 414/414 415/415
f 422/422 418/418 433/433
f 424/424 428/428 427/427
f 433/433 428/428 427/427
f 426/426 423/423 427/427
f 428/428 425/425 419/419
f 425/425 428/428 419/419
f 428/428 412/412 435/435
f 425/425 436/436 428/428
f 424/424 429/429 427/427
f 425/425 426/426 424/424
f 440/440 429/429 563/563
f 439/439 424/424 413/413
f 565/565 424/424 564/564
f 430/430 566/566 431/431
f 421/421 417/417 433/433
f 430/430 564/564 423/423
f 430/430 433/433 427/427
f 423/423 433/433 416/416
f 421/421 422/422 416/416
f 417/417 421/421 431/431
f 420/420 421/421 431/431
f 432/432 420/420 436/436
f 425/425 434/434 435/435
f 420/420 434/434 437/437
f 429/429 443/443 441/441
f 438/438 444/444 412/412
f 444/444 438/438 412/412
f 438/438 422/422 428/428
f 437/437 412/412 438/438
f 414/414 422/422 428/428
f 429/429 437/437 442/442
f 439/439 567/567 563/563
f 567/567 439/439 429/429
f 440/440 443/443 424/424
f 565/565 563/563 568/568
f 569/569 445/445 570/570
f 568/568 445/445 571/571
f 574/574 579/579 575/575
f 579/579 574/574 578/578
f 575/575 580/580 576/576
f 580/580 575/575 579/579
f 576/576 581/581 577/577
f 581/581 576/576 580/580
f 577/577 578/578 574/574
f 578/578 577/577 581/581
f 578/578 583/583 579/579
f 583/583 578/578 582/582
f 579/579 584/584 580/580
f 584/584 579/579 583/583
f 580/580 585/585 581/581
f 585/585 580/580 584/584
f 581/581 582/582 578/578
f 582/582 581/581 585/585
f 582/582 587/587 583/583
f 587/587 582/582 586/586
f 583/583 588/588 584/584
f 588/588 583/583 587/587
f 584/584 589/589 585/585
f 589/589 584/584 588/588
f 585/585 586/586 582/582
f 586/586 585/585 589/589
f 586/586 591/591 587/587
f 591/591 586/586 590/590
f 587/587 592/592 588/588
f 592/592 587/587 591/591
f 588/588 593/593 589/589
f 593/593 588/588 592/592
f 589/589 590/590 586/586
f 590/590 589/589 593/593
f 590/590 595/595 591/591
f 595/595 590/590 594/594
f 591/591 596/596 592/592
f 596/596 591/591 595/595
f 592/592 597/597 593/593
f 597/597 592/592 596/596
f 593/593 594/594 590/590
f 594/594 593/593 597/597
f 594/594 599/599 595/595
f 599/599 594/594 598/598
f 595/595 600/600 596/596
f 600/600 595/595 599/599
f 596/596 601/601 597/597
f 601/601 596/596 600/600
f 597/597 598/598 594/594
f 598/598 597/597 601/601
f 598/598 603/603 599/599
f 603/603 598/598 602/602
f 599/599 604/604 600/600
f 604/604 599/599 603/603
f 600/600 605/605 601/601
f 605/605 600/600 604/604
f 601/601 602/602 598/598
f 602/602 601/601 605/605
f 602/602 575/575 603/603
f 575/575 602/602 574/574
f 603/603 576/576 604/604
f 576/576 603/603 575/575
f 604/604 577/577 605/605
f 577/577 604/604 576/576
f 605/605 574/574 602/602
f 574/574 605/605 577/577
f 606/606 608/608 607/607
f 608/608 606/606 609/609
f 607/607 611/611 610/610
f 611/611 607/607 608/608
f 610/610 613/613 612/612
f 613/613 610/610 611/611
f 612/612 609/609 606/606
f 609/609 612/612 613/613
f 609/609 614/614 608/608
f 614/614 609/609 615/615
f 608/608 616/616 611/611
f 616/616 608/608 614/614
f 611/611 617/617 613/613
f 617/617 611/611 616/616
f 613/613 615/615 609/609
f 615/615 613/613 617/617
f 615/615 618/618 614/614
f 618/618 615/615 619/619
f 614/614 620/620 616/616
f 620/620 614/614 618/618
f 616/616 621/621 617/617
f 621/621 616/616 620/620
f 617/617 619/619 615/615
f 619/619 617/617 621/621
f 619/619 607/607 618/618
f 607/607 619/619 606/606
f 618/618 610/610 620/620
f 610/610 618/618 607/607
f 620/620 612/612 621/621
f 612/612 620/620 610/610
f 621/621 606/606 619/619
f 606/606 621/621 612/612
f 622/622 627/627 623/623
f 627/627 622/622 626/626
f 623/623 628/628 624/624
f 628/628 623/623 627/627
f 624/624 629/629 625/625
f 629/629 624/624 628/628
f 625/625 626/626 622/622
f 626/626 625/625 629/629
f 626/626 631/631 627/627
f 631/631 626/626 630/630
f 627/627 632/632 628/628
f 632/632 627/627 631/631
f 628/628 633/633 629/629
f 633/633 628/628 632/632
f 629/629 630/630 626/626
f 630/630 629/629 633/633
f 630/630 635/635 631/631
f 635/635 630/630 634/634
f 631/631 636/636 632/632
f 636/636 631/631 635/635
f 632/632 637/637 633/633
f 637/637 632/632 636/636
f 633/633 634/634 630/630
f 634/634 633/633 637/637
f 634/634 623/623 635/635
f 623/623 634/634 622/622
f 635/635 624/624 636/636
f 624/624 635/635 623/623
f 636/636 625/625 637/637
f 625/625 636/636 624/624
f 637/637 622/622 634/634
f 622/622 637/637 625/625
f 638/638 640/640 639/639
f 640/640 638/638 641/641
f 639/639 643/643 642/642
f 643/643 639/639 640/640
f 642/642 645/645 644/644
f 645/645 642/642 643/643
f 644/644 641/641 638/638
f 641/641 644/644 645/645
f 641/641 646/646 640/640
f 646/646 641/641 647/647
f 640/640 648/648 643/643
f 648/648 640/640 646/646
f 643/643 649/649 645/645
f 649/649 643/643 648/648
f 645/645 647/647 641/641
f 647/647 645/645 649/649
f 647/647 650/650 646/646
f 650/650 647/647 651/651
f 646/646 652/652 648/648
f 652/652 646/646 650/650
f 648/648 653/653 649/649
f 653/653 648/648 652/652
f 649/649 651/651 647/647
f 651/651 649/649 653/653
f 651/651 639/639 650/650
f 639/639 651/651 638/638
f 650/650 642/642 652/652
f 642/642 650/650 639/639
f 652/652 644/644 653/653
f 644/644 652/652 642/642
f 653/653 638/638 651/651
f 638/638 653/653 644/644
f 654/654 656/656 655/655
f 656/656 654/654 657/657
f 655/655 659/659 658/658
f 659/659 655/655 656/656
f 658/658 661/661 660/660
f 661/661 658/658 659/659
f 660/660 657/657 654/654
f 657/657 660/660 661/661
f 657/657 662/662 656/656
f 662/662 657/657 663/663
f 656/656 664/664 659/659
f 664/664 656/656 662/662
f 659/659 665/665 661/661
f 665/665 659/659 664/664
f 661/661 663/663 657/657
f 663/663 661/661 665/665
f 663/663 666/666 662/662
f 666/666 663/663 667/667
f 662/662 668/668 664/664
f 668/668 662/662 666/666
f 664/664 669/669 665/665
f 669/669 664/664 668/668
f 665/665 667/667 663/663
f 667/667 665/665 669/669
f 667/667 655/655 666/666
f 655/655 667/667 654/654
f 666/666 658/658 668/668
f 658/658 666/666 655/655
f 668/668 660/660 669/669
f 660/660 668/668 658/658
f 669/669 654/654 667/667
f 654/654 669/669 660/660
f 670/670 672/672 671/671
f 672/672 670/670 673/673
f 671/671 675/675 674/674
f 675/675 671/671 672/672
f 674/674 677/677 676/676
f 677/677 674/674 675/675
f 676/676 673/673 670/670
f 673/673 676/676 677/677
f 673/673 678/678 672/672
f 678/678 673/673 679/679
f 672/672 680/680 675/675
f 680/680 672/672 678/678
f 675/675 681/681 677/677
f 681/681 675/675 680/680
f 677/677 679/679 673/673
f 679/679 677/677 681/681
f 679/679 682/682 678/678
f 682/682 679/679 683/683
f 678/678 684/684 680/680
f 684/684 678/678 682/682
f 680/680 685/685 681/681
f 685/685 680/680 684/684
f 681/681 683/683 679/679
f 683/683 681/681 685/685
f 683/683 671/671 682/682
f 671/671 683/683 670/670
f 682/682 674/674 684/684
f 674/674 682/682 671/671
f 684/684 676/676 685/685
f 676/676 684/684 674/674
f 685/685 670/670 683/683
f 670/670 685/685 676/676
f 686/686 688/688 689/689
f 688/688 686/686 687/687
f 687/687 691/691 688/688
f 691/691 687/687 690/690
f 690/690 693/693 691/691
f 693/693 690/690 692/692
f 692/692 689/689 693/693
f 689/689 692/692 686/686
f 689/689 694/694 695/695
f 694/694 689/689 688/688
f 688/688 696/696 694/694
f 696/696 688/688 691/691
f 691/691 697/697 696/696
f 697/697 691/691 693/693
f 693/693 695/695 697/697
f 695/695 693/693 689/689
f 695/695 698/698 699/699
f 698/698 695/695 694/694
f 694/694 700/700 698/698
f 700/700 694/694 696/696
f 696/696 701/701 700/700
f 701/701 696/696 697/697
f 697/697 699/699 701/701
f 699/699 697/697 695/695
f 699/699 687/687 686/686
f 687/687 699/699 698/698
f 698/698 690/690 687/687
f 690/690 698/698 700/700
f 700/700 692/692 690/690
f 692/692 700/700 701/701
f 701/701 686/686 692/692
f 686/686 701/701 699/699
f 702/702 707/707 706/706
f 707/707 702/702 703/703
f 703/703 708/708 707/707
f 708/708 703/703 704/704
f 704/704 709/709 708/708
f 709/709 704/704 705/705
f 705/705 706/706 709/709
f 706/706 705/705 702/702
f 706/706 711/711 710/710
f 711/711 706/706 707/707
f 707/707 712/712 711/711
f 712/712 707/707 708/708
f 708/708 713/713 712/712
f 713/713 708/708 709/709
f 709/709 710/710 713/713
f 710/710 709/709 706/706
f 710/710 715/715 714/714
f 715/715 710/710 711/711
f 711/711 716/716 715/715
f 716/716 711/711 712/712
f 712/712 717/717 716/716
f 717/717 712/712 713/713
f 713/713 714/714 717/717
f 714/714 713/713 710/710
f 714/714 703/703 702/702
f 703/703 714/714 715/715
f 715/715 704/704 703/703
f 704/704 715/715 716/716
f 716/716 705/705 704/704
f 705/705 716/716 717/717
f 717/717 702/702 705/705
f 702/702 717/717 714/714
f 718/718 720/720 721/721
f 720/720 718/718 719/719
f 719/719 723/723 720/720
f 723/723 719/719 722/722
f 722/722 725/725 723/723
f 725/725 722/722 724/724
f 724/724 721/721 725/725
f 721/721 724/724 718/718
f 721/721 726/726 727/727
f 726/726 721/721 720/720
f 720/720 728/728 726/726
f 728/728 720/720 723/723
f 723/723 729/729 728/728
f 729/729 723/723 725/725
f 725/725 727/727 729/729
f 727/727 725/725 721/721
f 727/727 730/730 731/731
f 730/730 727/727 726/726
f 726/726 732/732 730/730
f 732/732 726/726 728/728
f 728/728 733/733 732/732
f 733/733 728/728 729/729
f 729/729 731/731 733/733
f 731/731 729/729 727/727
f 731/731 719/719 718/718
f 719/719 731/731 730/730
f 730/730 722/722 719/719
f 722/722 730/730 732/732
f 732/732 724/724 722/722
f 724/724 732/732 733/733
f 733/733 718/718 724/724
f 718/718 733/733 731/731
f 734/734 736/736 737/737
f 736/736 734/734 735/735
f 735/735 739/739 736/736
f 739/739 735/735 738/738
f 738/738 741/741 739/739
f 741/741 738/738 740/740
f 740/740 737/737 741/741
f 737/737 740/740 734/734
f 737/737 742/742 743/743
f 742/742 737/737 736/736
f 736/736 744/744 742/742
f 744/744 736/736 739/739
f 739/739 745/745 744/744
f 745/745 739/739 741/741
f 741/741 743/743 745/745
f 743/743 741/741 737/737
f 743/743 746/746 747/747
f 746/746 743/743 742/742
f 742/742 748/748 746/746
f 748/748 742/742 744/744
f 744/744 749/749 748/748
f 749/749 744/744 745/745
f 745/745 747/747 749/749
f 747/747 745/745 743/743
f 747/747 735/735 734/734
f 735/735 747/747 746/746
f 746/746 738/738 735/735
f 738/738 746/746 748/748
f 748/748 740/740 738/738
f 740/740 748/748 749/749
f 749/749 734/734 740/740
f 734/734 749/749 747/747
f 750/750 752/752 753/753
f 752/752 750/750 751/751
f 751/751 755/755 752/752
f 755/755 751/751 754/754
f 754/754 757/757 755/755
f 757/757 754/754 756/756
f 756/756 753/753 757/757
f 753/753 756/756 750/750
f 753/753 758/758 759/759
f 758/758 753/753 752/752
f 752/752 760/760 758/758
f 760/760 752/752 755/755
f 755/755 761/761 760/760
f 761/761 755/755 757/757
f 757/757 759/759 761/761
f 759/759 757/757 753/753
f 759/759 762/762 763/763
f 762/762 759/759 758/758
f 758/758 764/764 762/762
f 764/764 758/758 760/760
f 760/760 765/765 764/764
f 765/765 760/760 761/761
f 761/761 763/763 765/765
f 763/763 761/761 759/759
f 763/763 751/751 750/750
f 751/751 763/763 762/762
f 762/762 754/754 751/751
f 754/754 762/762 764/764
f 764/764 756/756 754/754
f 756/756 764/764 765/765
f 765/765 750/750 756/756
f 750/750 765/765 763/763
