# MOD converted: [r]temple_e_m_clothhead005.mod
# 277 verts, 18 faces

v 138.102020 30.807682 0.000011
v 157.528229 -23.071272 0.000001
v 182.493073 6.371293 -0.000002
v 179.266968 18.351793 -0.000003
v 171.257294 25.219376 -0.000002
v 129.992981 24.193352 -0.000005
v 146.716522 31.019241 0.000002
v 181.249390 -4.741949 8.623836
v 179.760406 -4.509210 8.310462
v 181.192505 6.289268 9.673467
v 177.740814 17.464491 18.442759
v 171.398193 16.691151 10.626856
v 171.714813 22.724915 9.860283
v 170.672821 -17.852940 24.363317
v 162.073563 7.434133 21.021070
v 161.223541 18.068401 10.996324
v 160.664032 26.048151 -0.000002
v 159.599976 28.819172 26.435583
v 150.393845 -1.410523 27.253008
v 150.434601 8.416571 21.820402
v 148.569427 19.442938 11.593724
v 147.150604 26.962313 17.395702
v 146.347427 -15.667023 17.717709
v 139.414886 -12.383391 24.462902
v 139.897537 -5.155921 22.751400
v 150.139038 -8.802530 27.333530
v 140.071838 -0.760188 28.476099
v 140.585938 9.308581 21.437119
v 138.156830 19.197855 11.521660
v 138.264954 26.836685 10.553720
v 129.992950 21.983582 17.458908
v 129.155090 15.338103 27.419785
v 132.145096 -2.143228 29.583088
v 132.653137 8.446790 7.597837
v 125.636635 13.120163 12.294858
v 125.796547 9.807073 23.536646
v 127.689369 6.168324 16.054987
v 124.761406 4.544787 14.778573
v 126.902260 -2.353951 7.771564
v 123.657845 -3.977289 13.163896
v 123.685699 -1.338487 7.322378
v 126.383377 -5.478008 8.333565
v 118.194931 13.753728 -0.000000
v 121.365540 -5.796443 0.000001
v 108.450325 16.374918 14.709251
v 121.018852 10.633325 17.331593
v 122.744659 4.645690 15.607263
v 121.203560 -2.428438 11.714410
v 117.637001 -5.338367 20.003403
v 132.157776 -11.639421 14.371234
v 127.970604 -9.067015 9.576478
v 155.633118 -20.838614 0.000003
v 170.520142 -6.382120 -0.020832
v 133.156403 7.175458 6.793338
v 132.848038 5.106367 14.292818
v 136.036545 2.813247 18.435711
v 152.299866 3.940327 11.458460
v 166.100861 -2.587751 8.249957
v 114.479431 -8.600184 13.763481
v 177.850311 6.658345 9.313988
v 175.700241 -12.798206 13.308497
v 149.377411 -18.088535 19.769592
v 171.745255 -3.493440 20.798586
v 161.039001 -12.149282 15.725107
v 169.999084 -14.852610 14.661293
v 176.830887 -4.289967 24.198351
v 162.249466 -2.403332 19.695803
v 172.397369 6.599883 27.241274
v 144.124588 5.175591 28.062702
v 139.817642 6.391548 28.446096
v 136.499252 7.065467 28.770704
v 138.951675 9.059768 24.490049
v 139.630615 6.782623 0.000012
v 165.595428 -22.121275 10.133434
v 163.390503 -20.132156 15.845959
v 161.628448 -18.127226 18.352894
v 151.825867 2.378993 15.090275
v 154.017654 -10.588353 12.627131
v 154.604919 -12.661810 16.559933
v 153.191040 -17.027424 7.795712
v 113.497253 14.206163 1.437408
v 125.756287 -5.643953 1.530827
v 124.332870 -7.078016 6.328309
v 125.388069 -6.828856 3.786848
v 118.753059 -7.030508 0.944432
v 122.521484 -6.431040 9.503351
v 118.279045 -7.419604 9.338142
v 121.927505 -7.467193 0.000001
v 124.819313 -6.159694 0.000001
v 133.643661 6.556659 0.000000
v 125.648987 14.499133 0.000003
v 116.563408 15.266238 0.000004
v 171.849579 -19.598518 -8.623832
v 179.760406 -4.509210 -8.310460
v 181.192505 6.289267 -9.673469
v 177.740814 17.464487 0.000002
v 177.269104 -14.171581 -18.442762
v 171.398193 16.691145 -10.626858
v 171.714813 22.724913 -9.860272
v 170.672821 -17.852943 -24.363316
v 162.073532 7.434128 -21.021072
v 161.223526 18.068399 -10.996326
v 160.664032 26.048149 -26.435579
v 150.393814 -1.410537 -27.253008
v 150.434601 8.416559 -21.820402
v 148.569412 19.442932 -11.593727
v 147.150589 26.962309 -17.395687
v 146.347397 -15.667028 -17.717697
v 139.414886 -12.383403 -24.462898
v 139.897522 -5.155914 -22.751392
v 150.139038 -8.802538 -27.333527
v 140.071838 -0.760195 -28.476093
v 140.585938 9.308580 -21.437115
v 138.156815 19.197855 -11.521662
v 138.264954 26.836681 -10.553721
v 129.992950 21.983576 -17.458906
v 129.155075 15.338101 -27.419783
v 132.145065 -2.143228 -29.583086
v 132.653137 8.446783 -7.597836
v 125.636635 13.120163 -12.294856
v 125.796539 9.807073 -23.536642
v 127.689354 6.168321 -16.054983
v 124.761391 4.544784 -14.778567
v 126.902245 -2.353954 -7.771560
v 123.657837 -3.977291 -13.163890
v 123.685699 -1.338492 -7.322374
v 126.383377 -5.478009 -8.333558
v 118.194931 13.753731 -14.709247
v 121.009827 10.638080 -17.331589
v 122.742622 4.653032 -15.607257
v 121.209778 -2.423240 -11.714417
v 117.646660 -5.338112 -20.003399
v 132.157776 -11.639421 -14.371226
v 127.970604 -9.067020 -9.576466
v 155.633118 -20.838614 0.020833
v 133.156403 7.175458 -6.793336
v 132.848022 5.106369 -14.292814
v 136.036530 2.813245 -18.435707
v 152.299866 3.940323 -11.458456
v 166.100861 -2.587751 -8.249949
v 114.479431 -8.600187 -13.763476
v 177.850296 6.658343 -9.313982
v 175.700226 -12.798206 -13.308483
v 149.377396 -18.088541 -19.769587
v 171.745239 -3.493443 -20.798578
v 161.038986 -12.149292 -15.725098
v 169.999069 -14.852617 -14.661289
v 176.830856 -4.289970 -24.198349
v 162.249451 -2.403335 -19.695799
v 172.397369 6.599880 -27.241272
v 144.124557 5.175583 -28.062696
v 139.817612 6.391553 -28.446089
v 136.499222 7.065466 -28.770700
v 138.951660 9.059766 -24.490040
v 139.630600 6.782623 -10.133423
v 163.390503 -20.132160 -15.845948
v 161.628448 -18.127232 -18.352892
v 151.825867 2.378984 -15.090267
v 154.017639 -10.588356 -12.627122
v 154.604919 -12.661814 -16.559921
v 153.191040 -17.027426 -7.795709
v 113.497253 14.206165 0.000001
v 122.521492 -6.431046 -1.437401
v 125.756287 -5.643954 0.000001
v 126.689743 -5.801040 0.000001
v 124.637321 -7.551315 -6.328306
v 125.388069 -6.828856 -3.786844
v 118.753052 -7.030508 -0.944426
v 122.521484 -6.431040 -9.503347
v 118.279037 -7.419605 -9.338140
v 121.927498 -7.467192 -1.530820
v 124.332870 -7.078017 -14.605446
v 164.118408 -13.816082 18.538727
v 159.656754 -9.886120 17.662619
v 146.513367 -7.346834 13.531569
v 138.107086 -11.496910 20.749836
v 143.616516 -1.286430 13.393768
v 146.264862 -13.054865 22.767925
v 155.394241 2.036049 18.416279
v 138.687408 -4.692077 15.871674
v 141.276230 -9.086856 16.411058
v 137.583771 -7.835623 14.979744
v 148.602875 -12.204012 15.502149
v 145.993958 -11.313639 -17.662594
v 146.513367 -7.346840 -18.416267
v 138.687378 -4.692076 -20.749826
v 143.616516 -1.286435 -22.767910
v 155.394211 2.036047 -14.979730
v 148.602875 -12.204021 -15.502136
v 145.993927 -11.313650 -15.871668
v 141.276199 -9.086868 -16.411036
v 137.583771 -7.835631 -13.531558
v 138.107086 -11.496914 -13.393760
v 146.264862 -13.054867 14.230406
v 157.829025 -15.421291 12.642262
v 154.274429 -15.577184 9.325756
v 157.949890 -18.108189 8.996943
v 165.606476 -17.403208 0.000010
v 159.063751 -20.598658 0.323583
v 149.549133 -17.720875 6.869904
v 154.199478 -18.334452 16.503904
v 152.653015 -11.982574 -15.805696
v 155.556717 -14.149632 -10.458478
v 150.148132 -17.314791 -9.789186
v 165.606476 -16.983295 -9.932425
v 158.141449 -18.050383 -7.866100
v 154.204437 -17.755390 -18.538710
v 159.656723 -9.886129 -0.209252
v 151.181549 -18.607496 -4.101739
v 156.079895 -19.677544 0.436363
v 151.843323 -19.268850 4.644420
v 151.730316 -18.307961 -0.068635
v 154.335602 -20.209757 -4.938485
v 158.576904 -19.960110 -4.728731
v 151.964508 -18.140585 -2.711059
v 153.511108 -19.069427 -13.947984
v 152.472229 -15.416560 -10.724804
v 154.220032 -17.211727 14.605451
v 164.118408 -13.816084 0.000012
v 166.322418 -19.476551 -16.503883
v 152.653015 -11.982576 6.793338
v 132.848038 5.106367 0.000001
v 133.643661 6.556659 9.576478
v 155.633118 -20.838614 11.458460
v 166.100861 -2.587751 0.000003
v 170.520142 -6.382120 0.000011
v 157.528229 -23.071272 0.000001
v 124.819313 -6.159694 7.322378
v 126.383377 -5.478008 14.371234
v 127.970604 -9.067015 14.292818
v 136.036545 2.813247 20.003403
v 132.157776 -11.639421 18.435711
v 152.299866 3.940327 17.717709
v 139.414886 -12.383391 17.395702
v 146.347427 -15.667023 13.308497
v 149.377411 -18.088535 0.000001
v 182.493073 6.371293 0.000002
v 181.249390 -4.741949 -0.000002
v 179.266968 18.351793 0.000002
v 177.269104 -14.171581 -0.000003
v 171.257294 25.219376 0.000004
v 171.849579 -19.598518 -0.000005
v 146.716522 31.019241 -0.000002
v 159.599976 28.819172 -0.000002
v 138.102020 30.807682 -0.000002
v 129.992981 24.193352 0.000000
v 125.648987 14.499133 0.000001
v 124.819313 -6.159694 0.000003
v 116.563408 15.266238 -0.000000
v 121.365540 -5.796443 0.000001
v 108.450325 16.374918 0.000012
v 165.595428 -22.121275 0.000011
v 157.528229 -23.071272 -6.793336
v 132.848022 5.106369 0.000001
v 133.643661 6.556659 0.000001
v 133.643661 6.556659 0.000003
v 170.520142 -6.382120 -9.576466
v 155.633118 -20.838614 0.000003
v 170.520142 -6.382120 -11.458456
v 166.100861 -2.587751 0.000011
v 157.528229 -23.071272 0.000001
v 124.819313 -6.159694 -7.322374
v 126.383377 -5.478009 -14.371226
v 127.970604 -9.067020 -14.292814
v 136.036530 2.813245 -20.003399
v 132.157776 -11.639421 -18.435707
v 152.299866 3.940323 -17.717697
v 139.414886 -12.383403 -17.395687
v 146.347397 -15.667028 -13.308483
v 149.377396 -18.088541 0.000001
v 124.637321 -7.551315 0.000001
v 126.689743 -5.801040 0.000001
v 122.521492 -6.431046 16.503904
v 152.653015 -11.982574 18.538727
v 159.656754 -9.886120 -18.538710
v 159.656723 -9.886129 -16.503883
v 152.653015 -11.982576 0.021730

vt 0.408861 0.209384
vt 0.789953 0.688336
vt 0.975305 0.824863
vt 0.905257 0.913041
vt 0.804462 0.926735
vt 0.311672 0.985149
vt 0.516833 0.548524
vt 0.989035 0.553484
vt 0.902407 0.664678
vt 0.894888 0.767720
vt 0.831415 0.726150
vt 0.740870 0.813338
vt 0.762856 0.391719
vt 0.838440 0.616692
vt 0.654899 0.725460
vt 0.647789 0.852898
vt 0.651996 0.963573
vt 0.667071 0.509865
vt 0.552577 0.609015
vt 0.545198 0.730554
vt 0.527049 0.858875
vt 0.513001 0.317095
vt 0.536473 0.353429
vt 0.423974 0.454039
vt 0.453841 0.427787
vt 0.568046 0.505386
vt 0.452066 0.605080
vt 0.446936 0.736582
vt 0.426387 0.853941
vt 0.424402 0.819535
vt 0.337096 0.722861
vt 0.320368 0.510643
vt 0.372934 0.605250
vt 0.389919 0.793382
vt 0.236393 0.719759
vt 0.238159 0.607883
vt 0.318304 0.627645
vt 0.231136 0.529707
vt 0.227465 0.498116
vt 0.152260 0.555531
vt 0.189862 0.472603
vt 0.168238 0.793378
vt 0.156086 0.439581
vt 0.081760 0.887671
vt 0.059649 0.712700
vt 0.172401 0.642725
vt 0.188557 0.583774
vt 0.160156 0.558557
vt 0.107815 0.397518
vt 0.328125 0.438829
vt 0.235686 0.272887
vt 0.699236 0.548656
vt 0.013905 0.057259
vt 0.128261 0.791151
vt 0.051063 0.770359
vt 0.098636 0.670716
vt 0.125041 0.579803
vt 0.084076 0.528830
vt 0.043060 0.651903
vt 0.836980 0.456204
vt 0.879523 0.279151
vt 0.016167 0.544466
vt 0.768156 0.429241
vt 0.687814 0.431756
vt 0.793266 0.543966
vt 0.838631 0.526629
vt 0.669497 0.637821
vt 0.760585 0.562530
vt 0.483286 0.566511
vt 0.441557 0.573872
vt 0.412722 0.603649
vt 0.434994 0.583479
vt 0.443982 0.277850
vt 0.868154 0.335709
vt 0.777633 0.369050
vt 0.726171 0.224435
vt 0.126728 0.274558
vt 0.067528 0.290520
vt 0.057939 0.339150
vt 0.636330 0.799323
vt 0.103947 0.060396
vt 0.600270 0.060381
vt 0.544486 0.222356
vt 0.579127 0.136396
vt 0.358682 0.042074
vt 0.488424 0.327890
vt 0.338424 0.322226
vt 0.459309 0.423831
vt 0.109353 0.056561
vt 0.129638 0.876684
vt 0.228473 0.881642
vt 0.141014 0.340715
vt 0.926629 0.553484
vt 0.902407 0.664678
vt 0.894888 0.767720
vt 0.831415 0.427617
vt 0.968422 0.726150
vt 0.740870 0.813338
vt 0.762856 0.391719
vt 0.838440 0.616692
vt 0.654899 0.725460
vt 0.647789 0.852898
vt 0.651996 0.509865
vt 0.552577 0.609015
vt 0.545198 0.730554
vt 0.527049 0.858875
vt 0.513001 0.317095
vt 0.536473 0.353429
vt 0.423974 0.454039
vt 0.453841 0.427787
vt 0.568046 0.505386
vt 0.452066 0.605080
vt 0.446936 0.736582
vt 0.426387 0.853941
vt 0.424402 0.819535
vt 0.337096 0.722861
vt 0.320368 0.510643
vt 0.372934 0.605250
vt 0.389919 0.793382
vt 0.236393 0.719759
vt 0.238159 0.607883
vt 0.318304 0.627645
vt 0.231136 0.529707
vt 0.227465 0.498116
vt 0.152260 0.555531
vt 0.189862 0.472603
vt 0.168238 0.793378
vt 0.156086 0.712700
vt 0.172401 0.642725
vt 0.188557 0.583774
vt 0.160156 0.558557
vt 0.107815 0.397518
vt 0.328125 0.438829
vt 0.235686 0.272887
vt 0.699236 0.057259
vt 0.128261 0.791151
vt 0.051063 0.770359
vt 0.098636 0.670716
vt 0.125041 0.579803
vt 0.084076 0.528830
vt 0.043060 0.651903
vt 0.836980 0.456204
vt 0.879523 0.279151
vt 0.016167 0.544466
vt 0.768156 0.429241
vt 0.687814 0.431756
vt 0.793266 0.543966
vt 0.838631 0.526629
vt 0.669497 0.637821
vt 0.760585 0.562530
vt 0.483286 0.566511
vt 0.441557 0.573872
vt 0.412722 0.603649
vt 0.434994 0.583479
vt 0.443982 0.335709
vt 0.777633 0.369050
vt 0.726171 0.224435
vt 0.126728 0.274558
vt 0.067528 0.290520
vt 0.057939 0.339150
vt 0.636330 0.799323
vt 0.103947 0.010296
vt 0.488790 0.060396
vt 0.600270 0.011683
vt 0.630881 0.007829
vt 0.552381 0.222356
vt 0.579127 0.136396
vt 0.358682 0.042074
vt 0.488424 0.327890
vt 0.338424 0.322226
vt 0.459309 0.060381
vt 0.544486 0.364878
vt 0.294088 0.148438
vt 0.976562 0.093750
vt 0.875000 0.117188
vt 0.777344 0.031250
vt 0.875000 0.136719
vt 0.835938 0.062500
vt 0.976562 0.039062
vt 0.804688 0.089844
vt 0.816406 0.066406
vt 0.785156 0.132812
vt 0.867188 0.113281
vt 0.855469 0.093750
vt 0.875000 0.039062
vt 0.804688 0.031250
vt 0.875000 0.062500
vt 0.976562 0.132812
vt 0.867188 0.113281
vt 0.855469 0.089844
vt 0.816406 0.066406
vt 0.785156 0.117188
vt 0.777344 0.136719
vt 0.835938 0.075815
vt 0.231588 0.087534
vt 0.196432 0.126597
vt 0.231588 0.126597
vt 0.301901 0.216440
vt 0.243307 0.208628
vt 0.149557 0.150034
vt 0.196432 0.140625
vt 0.902344 0.372690
vt 0.212057 0.318003
vt 0.157370 0.310190
vt 0.305807 0.310190
vt 0.235495 0.290659
vt 0.196432 0.148438
vt 0.976562 0.220347
vt 0.165182 0.251597
vt 0.215963 0.208628
vt 0.172995 0.169565
vt 0.172995 0.216440
vt 0.200338 0.259409
vt 0.239401 0.263315
vt 0.172995 0.243784
vt 0.188620 0.353159
vt 0.180807 0.318003
vt 0.196432 0.064097
vt 0.290182 0.212534
vt 0.309713 0.140625
vt 0.902344 0.091553
vt 0.107459 0.786689
vt 0.008222 0.324029
vt 0.020381 0.318250
vt 0.141197 0.391156
vt 0.132869 0.380818
vt 0.012207 0.033004
vt 0.042328 0.076159
vt 0.038080 0.116341
vt 0.014301 0.137354
vt 0.093690 0.159084
vt 0.004344 0.222790
vt 0.135889 0.201546
vt 0.018645 0.246522
vt 0.020775 0.288039
vt 0.604265 0.688336
vt 0.975305 0.548524
vt 0.989035 0.824863
vt 0.905257 0.427617
vt 0.968422 0.913041
vt 0.804462 0.340715
vt 0.926629 0.985149
vt 0.516833 0.963573
vt 0.667071 0.978270
vt 0.408861 0.926735
vt 0.311672 0.876684
vt 0.228473 0.423831
vt 0.109353 0.881642
vt 0.141014 0.439581
vt 0.081760 0.887671
vt 0.059649 0.277850
vt 0.868154 0.209384
vt 0.789953 0.091553
vt 0.107459 0.056561
vt 0.129638 0.786689
vt 0.008222 0.548656
vt 0.013905 0.324029
vt 0.020381 0.391156
vt 0.132869 0.318250
vt 0.141197 0.380818
vt 0.012207 0.033004
vt 0.042328 0.076159
vt 0.038080 0.116341
vt 0.014301 0.137354
vt 0.093690 0.159084
vt 0.004344 0.222790
vt 0.135889 0.201546
vt 0.018645 0.246522
vt 0.020775 0.288039
vt 0.604265 0.007829
vt 0.552381 0.011683
vt 0.630881 0.010296
vt 0.488790 0.040659
vt 0.180807 0.009409
vt 0.247213 0.419565
vt 0.251120 0.396128
vt 0.184713 1.000000

f 82/82 83/83 166/166
f 166/166 165/165 82/82
f 82/82 84/84 83/83
f 83/83 87/87 85/85
f 83/83 85/85 86/86
f 163/163 166/166 83/83
f 83/83 86/86 163/163
f 83/83 84/84 88/88
f 88/88 87/87 83/83
f 164/164 271/271 172/172
f 271/271 164/164 272/272
f 164/164 172/172 167/167
f 168/168 170/170 172/172
f 172/172 169/169 168/168
f 273/273 172/172 271/271
f 172/172 273/273 169/169
f 172/172 171/171 167/167
f 171/171 172/172 170/170
