# MOD converted: [r]temple_d_w_clothhead005_1.mod
# 282 verts, 12 faces

v 127.879539 30.089418 0.000002
v 172.454788 5.443810 0.000001
v 169.199005 17.534666 0.000001
v 161.118973 24.460012 0.000004
v 136.466095 30.319227 0.000002
v 171.199646 -5.771995 0.000002
v 149.381348 28.077288 0.000002
v 101.432808 11.364635 0.000010
v 155.413635 -23.311773 0.000003
v 161.716171 -20.765888 8.704906
v 169.697021 -5.537170 8.387512
v 171.142227 5.361010 9.766914
v 167.659317 16.638668 0.000002
v 167.182983 -15.288795 18.617153
v 161.272583 15.849514 10.739391
v 161.585175 21.941744 9.964670
v 160.535553 -19.004642 24.475109
v 151.979935 6.459781 21.134602
v 151.113129 17.184902 11.099777
v 150.493500 25.264439 26.044537
v 140.638184 -2.562468 26.860367
v 140.702744 7.284022 21.544106
v 138.746002 18.388351 11.509860
v 137.093018 26.088892 17.076675
v 136.463058 -16.834549 17.001455
v 129.821365 -13.604159 23.331141
v 130.680878 -6.461923 22.456991
v 140.285522 -9.953316 25.986618
v 131.043457 -2.119733 20.518867
v 128.861755 17.830492 11.152565
v 128.416733 25.824718 9.982051
v 120.401718 20.395247 16.217176
v 120.197311 13.428736 24.937407
v 123.995743 -3.711483 7.191701
v 116.016716 8.982142 11.412085
v 116.287659 6.601584 21.157375
v 119.601669 4.178364 13.834246
v 116.011246 2.418248 13.484256
v 117.844170 -4.108257 6.984748
v 114.130371 -5.439429 11.126469
v 114.683411 -2.396037 6.684770
v 116.711334 -7.120057 7.496555
v 110.146385 10.488072 12.244985
v 112.747231 8.373429 15.379483
v 114.346619 3.616368 13.602154
v 112.711243 -1.855591 9.893327
v 108.910522 -6.473652 18.433079
v 123.203079 -12.948740 13.079382
v 118.799484 -10.523412 9.618872
v 145.462799 -22.018721 0.000002
v 126.834084 8.546747 6.611238
v 127.103615 6.126078 13.762752
v 126.412697 1.278267 17.250605
v 142.286407 2.825479 11.579661
v 144.072113 -3.616743 6.575377
v 107.358681 -10.096192 13.894083
v 167.769989 5.732868 9.407071
v 165.601105 -13.903033 13.202305
v 139.318817 -19.255180 19.952202
v 161.622635 -4.516974 20.888599
v 150.928452 -13.263102 15.874544
v 159.863556 -15.977794 14.801139
v 166.741898 -5.316484 24.305893
v 152.152847 -3.447701 19.880030
v 162.278168 5.667809 25.962053
v 129.752579 6.628939 10.231652
v 153.219421 -21.305161 15.948938
v 151.482422 -19.284107 18.289480
v 141.820862 1.252399 15.090595
v 143.921509 -11.717749 12.654681
v 144.471680 -13.796077 16.506828
v 143.128433 -18.879229 6.755135
v 107.191620 10.572371 0.000008
v 147.299652 -24.270464 0.000001
v 119.843185 22.761143 0.000001
v 111.351898 -7.439276 0.000001
v 148.506287 -7.432720 0.000001
v 114.743256 -7.182890 -0.000000
v 137.548126 10.383422 0.000002
v 115.559555 10.383770 0.000002
v 108.711502 11.098397 -8.704901
v 169.697021 -5.537168 -8.387508
v 171.142227 5.361010 -9.766915
v 167.659317 16.638668 -18.617144
v 161.272583 15.849519 -10.739392
v 161.585175 21.941746 -9.964664
v 160.535553 -19.004646 -24.475098
v 151.979919 6.459782 -21.134590
v 151.113129 17.184906 -11.099778
v 150.493500 25.264437 -26.044529
v 140.638184 -2.562475 -26.860359
v 140.702744 7.284023 -21.544104
v 138.746002 18.388359 -11.509863
v 137.093018 26.088894 -17.076666
v 136.463058 -16.834545 -17.001444
v 129.821365 -13.604165 -23.331133
v 130.680878 -6.461923 -22.456985
v 140.285522 -9.953319 -25.986609
v 131.043442 -2.119775 -20.518866
v 128.861755 17.830494 -11.152561
v 128.416733 25.824722 -9.982052
v 120.401703 20.395247 -16.217173
v 120.197304 13.428739 -24.937401
v 123.995720 -3.711488 -7.191699
v 116.014221 8.984207 -11.412083
v 116.285309 6.605371 -21.157373
v 119.601654 4.178367 -13.834244
v 116.011345 2.422190 -13.484253
v 117.844162 -4.108256 -6.984745
v 114.133484 -5.438080 -11.126465
v 114.686317 -2.393176 -6.684764
v 116.711334 -7.120059 -7.496549
v 110.137978 10.487807 -12.244980
v 112.737740 8.379663 -15.379479
v 114.345947 3.626795 -13.602150
v 112.720665 -1.848792 -9.893321
v 108.922058 -6.474567 -18.433081
v 123.203064 -12.948738 -13.079377
v 118.799469 -10.523411 -9.618860
v 145.462799 -22.018726 -6.611233
v 127.103607 6.126079 -13.762748
v 126.412682 1.278270 -17.250603
v 142.286407 2.825476 -11.579660
v 144.072113 -3.616744 -6.575369
v 107.367393 -10.098217 -13.894077
v 167.769989 5.732869 -9.407070
v 165.601105 -13.903034 -13.202303
v 139.318817 -19.255177 -19.952196
v 161.622620 -4.516973 -20.888588
v 150.928436 -13.263111 -15.874542
v 159.863556 -15.977787 -14.801138
v 166.741882 -5.316504 -24.305889
v 152.152832 -3.447696 -19.880022
v 162.278168 5.667811 -25.962044
v 129.752563 6.628942 -10.231635
v 153.219421 -21.305164 -15.948941
v 151.482422 -19.284101 -18.289476
v 141.820862 1.252403 -15.090590
v 143.921509 -11.717749 -12.654678
v 144.471680 -13.796076 -16.506819
v 143.128433 -18.879230 -6.755129
v 107.187775 10.570795 1.322700
v 115.065765 -7.277982 5.823307
v 114.726929 -8.023781 3.484656
v 109.289825 -9.605189 0.869064
v 112.089096 -7.657714 8.744978
v 108.185204 -8.567390 8.592954
v 111.542526 -8.611176 1.408664
v 113.755936 -8.253059 0.000010
v 155.273941 -20.818304 12.746921
v 153.771210 -18.096670 18.158798
v 152.447998 -14.991607 12.878201
v 146.511078 -18.688507 14.177767
v 138.314423 -17.001587 19.109158
v 145.685806 -14.818191 8.322464
v 138.930557 -19.379240 6.568019
v 147.239487 -20.836637 6.839848
v 154.691391 -19.784496 0.329062
v 139.378815 -20.388388 15.173244
v 131.993973 -8.371364 10.117592
v 124.079857 -12.836024 20.568560
v 129.697296 -3.755569 20.429382
v 138.394409 -3.677914 13.816089
v 119.099609 -8.439788 16.288374
v 145.846268 -8.072124 13.554266
v 127.014961 -10.051730 18.828463
v 123.675415 -4.940206 6.694504
v 139.036667 -19.585400 12.948570
v 138.351288 -17.096222 19.146267
v 137.116486 -12.641153 11.366448
v 122.332588 -11.481053 14.930212
v 125.370064 -8.522793 16.902372
v 131.121735 -6.735952 11.839724
v 123.286461 -11.322055 14.733075
v 125.734879 -8.918299 -0.000000
v 127.995903 21.021841 9.751221
v 124.359459 4.659803 17.129856
v 122.735161 11.965382 7.043921
v 127.188187 19.491442 13.231852
v 124.605553 15.278782 16.265083
v 131.172928 5.351325 22.423851
v 128.946777 12.885058 0.000001
v 112.089119 -7.657720 -1.322700
v 115.065765 -7.277983 0.000001
v 115.924713 -7.401372 0.000001
v 114.036087 -8.688589 -5.823299
v 114.726929 -8.023784 -3.484647
v 109.289825 -9.605192 -0.869059
v 112.089096 -7.657712 -8.744976
v 108.185204 -8.567388 -8.592950
v 111.542511 -8.611177 -1.408664
v 113.755936 -8.253059 0.000008
v 147.686752 -21.978870 -12.746916
v 153.771210 -18.096670 -18.158789
v 152.447998 -14.991605 -12.878199
v 146.511078 -18.688507 -14.177756
v 138.314423 -17.001589 -19.109148
v 145.685806 -14.818195 -8.322454
v 138.930557 -19.379246 -6.568018
v 147.239487 -20.836637 -6.839839
v 154.691391 -19.784496 -0.329049
v 139.378815 -20.388388 -15.173244
v 131.993973 -8.371363 -10.117586
v 124.079849 -12.836024 -20.568554
v 129.697296 -3.755564 -20.429373
v 138.394409 -3.677920 -13.816087
v 119.099602 -8.439785 -16.288378
v 145.846268 -8.072120 -13.554267
v 127.014946 -10.051729 -18.828461
v 123.675400 -4.940206 -6.694494
v 139.036667 -19.585407 -12.948565
v 138.351288 -17.096222 -19.146259
v 137.116486 -12.641157 -11.366439
v 122.332581 -11.481060 -14.930203
v 125.370049 -8.522800 -16.902363
v 131.121735 -6.735963 -11.839717
v 123.286453 -11.322055 -14.733070
v 125.734863 -8.918299 0.000109
v 122.715286 5.133448 -9.751017
v 124.359467 4.659860 -17.129854
v 122.735153 11.965381 -7.043921
v 127.188179 19.491442 -13.231846
v 124.605545 15.278785 -16.264866
v 131.172958 5.351417 -22.423845
v 128.946777 12.885058 6.611238
v 127.103615 6.126078 -0.000000
v 137.548126 10.383422 11.579661
v 144.072113 -3.616743 0.000001
v 148.506287 -7.432720 9.618872
v 145.462799 -22.018721 0.000008
v 147.299652 -24.270464 6.684770
v 116.711334 -7.120057 0.000001
v 114.743256 -7.182890 13.079382
v 118.799484 -10.523412 13.762752
v 126.412697 1.278267 18.433079
v 123.203079 -12.948740 17.250605
v 142.286407 2.825479 17.001455
v 129.821365 -13.604159 17.076675
v 136.463058 -16.834549 13.202305
v 139.318817 -19.255180 0.000002
v 172.454788 5.443810 0.000002
v 171.199646 -5.771995 0.000001
v 169.199005 17.534666 0.000002
v 167.182983 -15.288795 0.000001
v 161.118973 24.460012 0.000003
v 161.716171 -20.765888 0.000004
v 136.466095 30.319227 0.000002
v 149.381348 28.077288 0.000002
v 127.879539 30.089418 0.000001
v 119.843185 22.761143 0.000002
v 115.559555 10.383770 0.000001
v 114.743256 -7.182890 0.000002
v 108.711502 11.098397 0.000001
v 111.351898 -7.439276 0.000002
v 101.432808 11.364635 0.000010
v 155.413635 -23.311773 0.000008
v 147.299652 -24.270464 -0.000000
v 137.548126 10.383422 0.000002
v 126.834084 8.546747 -6.611233
v 127.103607 6.126079 -0.000000
v 137.548126 10.383422 0.000001
v 148.506287 -7.432720 0.000001
v 148.506287 -7.432720 -11.579660
v 144.072113 -3.616744 -9.618860
v 145.462799 -22.018726 0.000008
v 147.299652 -24.270464 0.000001
v 114.743256 -7.182890 -6.684764
v 116.711334 -7.120059 -13.079377
v 118.799469 -10.523411 -13.762748
v 126.412682 1.278270 -18.433081
v 123.203064 -12.948738 -17.250603
v 142.286407 2.825476 -17.001444
v 129.821365 -13.604165 -17.076666
v 136.463058 -16.834545 -13.202303
v 139.318817 -19.255177 0.000001
v 114.036087 -8.688589 0.000001
v 115.924713 -7.401372 0.000001
v 112.089119 -7.657720 0.000010
v 155.273941 -20.818304 0.000008
v 147.686752 -21.978870 0.000109
v 122.715286 5.133448 -0.000000
v 127.995903 21.021841 0.027882

vt 0.400997 0.686114
vt 0.964166 0.822641
vt 0.894118 0.910818
vt 0.793323 0.982927
vt 0.505694 0.546302
vt 0.977896 0.961351
vt 0.655932 0.885449
vt 0.048510 0.271371
vt 0.859569 0.338492
vt 0.915489 0.551262
vt 0.891268 0.662456
vt 0.883749 0.765497
vt 0.820276 0.425394
vt 0.957283 0.723928
vt 0.729731 0.811116
vt 0.751717 0.389496
vt 0.827301 0.614470
vt 0.643760 0.723238
vt 0.636649 0.850676
vt 0.640857 0.507643
vt 0.541438 0.606793
vt 0.534059 0.728332
vt 0.515910 0.856652
vt 0.501862 0.320153
vt 0.530145 0.353726
vt 0.419888 0.451817
vt 0.442702 0.425565
vt 0.556907 0.503164
vt 0.440926 0.734360
vt 0.415248 0.851719
vt 0.413262 0.817312
vt 0.325957 0.720639
vt 0.309229 0.508421
vt 0.361795 0.791160
vt 0.225254 0.717537
vt 0.227020 0.605661
vt 0.307165 0.625423
vt 0.219997 0.527485
vt 0.216325 0.495894
vt 0.141121 0.553309
vt 0.178723 0.470381
vt 0.157099 0.791156
vt 0.144947 0.715012
vt 0.170834 0.640503
vt 0.194043 0.580545
vt 0.151536 0.555327
vt 0.099194 0.398631
vt 0.320825 0.441645
vt 0.230089 0.271723
vt 0.698329 0.057259
vt 0.128261 0.791151
vt 0.051063 0.770359
vt 0.098636 0.670716
vt 0.125041 0.579803
vt 0.084076 0.536684
vt 0.043508 0.649681
vt 0.825841 0.453982
vt 0.868384 0.279151
vt 0.016167 0.542244
vt 0.757017 0.427019
vt 0.676675 0.429533
vt 0.782127 0.541743
vt 0.827491 0.524407
vt 0.658358 0.635599
vt 0.749446 0.588287
vt 0.436552 0.333486
vt 0.766493 0.366828
vt 0.715032 0.224435
vt 0.126728 0.274558
vt 0.067528 0.290520
vt 0.057939 0.336928
vt 0.625191 0.800627
vt 0.097342 0.209072
vt 0.789046 0.919274
vt 0.303153 0.431313
vt 0.083720 0.548656
vt 0.013905 0.415563
vt 0.111313 0.056561
vt 0.129638 0.874462
vt 0.217334 0.879420
vt 0.129875 0.551262
vt 0.891268 0.662456
vt 0.883749 0.765497
vt 0.820276 0.723928
vt 0.729731 0.811116
vt 0.751717 0.389496
vt 0.827301 0.614470
vt 0.643760 0.723238
vt 0.636649 0.850676
vt 0.640857 0.507643
vt 0.541438 0.606793
vt 0.534059 0.728332
vt 0.515910 0.856652
vt 0.501862 0.320153
vt 0.530145 0.353726
vt 0.419888 0.451817
vt 0.442702 0.425565
vt 0.556907 0.503164
vt 0.440926 0.734360
vt 0.415248 0.851719
vt 0.413262 0.817312
vt 0.325957 0.720639
vt 0.309229 0.508421
vt 0.361795 0.791160
vt 0.225254 0.717537
vt 0.227020 0.605661
vt 0.307165 0.625423
vt 0.219997 0.527485
vt 0.216325 0.495894
vt 0.141121 0.553309
vt 0.178723 0.470381
vt 0.157099 0.791156
vt 0.144947 0.715012
vt 0.170834 0.640503
vt 0.194043 0.580545
vt 0.151536 0.555327
vt 0.099194 0.398631
vt 0.320825 0.441645
vt 0.230089 0.271723
vt 0.698329 0.791151
vt 0.051063 0.770359
vt 0.098636 0.670716
vt 0.125041 0.579803
vt 0.084076 0.536684
vt 0.043508 0.649681
vt 0.825841 0.453982
vt 0.868384 0.279151
vt 0.016167 0.542244
vt 0.757017 0.427019
vt 0.676675 0.429533
vt 0.782127 0.541743
vt 0.827491 0.524407
vt 0.658358 0.635599
vt 0.749446 0.588287
vt 0.436552 0.333486
vt 0.766493 0.366828
vt 0.715032 0.224435
vt 0.126728 0.274558
vt 0.067528 0.290520
vt 0.057939 0.336928
vt 0.625191 0.800627
vt 0.097342 0.060396
vt 0.600270 0.222356
vt 0.579127 0.136396
vt 0.358682 0.042074
vt 0.488424 0.327890
vt 0.338424 0.322226
vt 0.459309 0.060381
vt 0.544486 0.175619
vt 0.980678 0.066349
vt 0.939917 0.014471
vt 0.920626 0.076248
vt 0.863752 0.071528
vt 0.783736 0.018375
vt 0.849210 0.131710
vt 0.793451 0.135151
vt 0.875904 0.119347
vt 0.956302 0.196085
vt 0.805626 0.137644
vt 0.664913 0.235589
vt 0.628372 0.144231
vt 0.724592 0.028844
vt 0.728347 0.253736
vt 0.692973 0.011408
vt 0.666876 0.190367
vt 0.649593 0.207719
vt 0.711630 0.142189
vt 0.795415 0.084627
vt 0.783736 0.014585
vt 0.770106 0.243376
vt 0.657950 0.198175
vt 0.677491 0.140665
vt 0.690289 0.240574
vt 0.647372 0.195877
vt 0.669304 0.066465
vt 0.297557 0.251789
vt 0.189423 0.275629
vt 0.294750 0.138460
vt 0.323800 0.218579
vt 0.306334 0.351995
vt 0.192846 0.370596
vt 0.281800 0.010296
vt 0.488790 0.060396
vt 0.600270 0.011683
vt 0.630881 0.007829
vt 0.552381 0.222356
vt 0.579127 0.136396
vt 0.358682 0.042074
vt 0.488424 0.327890
vt 0.338424 0.322226
vt 0.459309 0.060381
vt 0.544486 0.192887
vt 0.887695 0.066349
vt 0.939917 0.014471
vt 0.920626 0.076248
vt 0.863752 0.071528
vt 0.783736 0.018375
vt 0.849210 0.131710
vt 0.793451 0.135151
vt 0.875904 0.119347
vt 0.956302 0.196085
vt 0.805626 0.137644
vt 0.664913 0.235589
vt 0.628372 0.144231
vt 0.724592 0.028844
vt 0.728347 0.253736
vt 0.692973 0.011408
vt 0.666876 0.190367
vt 0.649593 0.207719
vt 0.711630 0.142189
vt 0.795415 0.084627
vt 0.783736 0.014585
vt 0.770106 0.243376
vt 0.657950 0.198175
vt 0.677491 0.140665
vt 0.690289 0.240574
vt 0.647372 0.195877
vt 0.669304 0.140611
vt 0.147623 0.251789
vt 0.189423 0.275629
vt 0.294750 0.138460
vt 0.323800 0.218579
vt 0.306334 0.351995
vt 0.192846 0.370596
vt 0.281800 0.091553
vt 0.107459 0.786689
vt 0.008222 0.318250
vt 0.141197 0.391156
vt 0.132869 0.324029
vt 0.020381 0.380818
vt 0.012207 0.076159
vt 0.038080 0.033004
vt 0.042328 0.116341
vt 0.014301 0.137354
vt 0.093690 0.159084
vt 0.004344 0.222790
vt 0.135889 0.201546
vt 0.018645 0.246522
vt 0.020775 0.290699
vt 0.593993 0.686114
vt 0.964166 0.546302
vt 0.977896 0.822641
vt 0.894118 0.425394
vt 0.957283 0.910818
vt 0.793323 0.338492
vt 0.915489 0.982927
vt 0.505694 0.961351
vt 0.655932 0.972118
vt 0.400997 0.919274
vt 0.303153 0.874462
vt 0.217334 0.415563
vt 0.111313 0.879420
vt 0.129875 0.431313
vt 0.083720 0.885449
vt 0.048510 0.271371
vt 0.859569 0.209072
vt 0.789046 0.056561
vt 0.129638 0.057259
vt 0.128261 0.091553
vt 0.107459 0.786689
vt 0.008222 0.548656
vt 0.013905 0.391156
vt 0.132869 0.318250
vt 0.141197 0.324029
vt 0.020381 0.380818
vt 0.012207 0.033004
vt 0.042328 0.076159
vt 0.038080 0.116341
vt 0.014301 0.137354
vt 0.093690 0.159084
vt 0.004344 0.222790
vt 0.135889 0.201546
vt 0.018645 0.246522
vt 0.020775 0.290699
vt 0.593993 0.007829
vt 0.552381 0.011683
vt 0.630881 0.010296
vt 0.488790 0.175619
vt 0.980678 0.192887
vt 0.887695 0.140611
vt 0.147623 0.066465
vt 0.297557 1.000000

f 219/219 179/179 176/176
f 179/179 219/219 177/177
f 177/177 180/180 179/179
f 177/177 178/178 180/180
f 181/181 182/182 178/178
f 178/178 177/177 181/181
f 222/222 281/281 282/282
f 281/281 222/222 220/220
f 223/223 220/220 222/222
f 221/221 220/220 223/223
f 224/224 220/220 221/221
f 221/221 225/225 224/224
