# MOD converted: [r]temple_h_w_clothhead005.mod
# 282 verts, 12 faces

v 127.879539 30.089418 0.000002
v 172.454788 5.443811 0.000000
v 169.199005 17.534666 -0.000000
v 161.118973 24.460012 0.000003
v 136.466095 30.319227 0.000002
v 171.199646 -5.771995 0.000001
v 149.381348 28.077288 0.000002
v 101.432808 11.364635 0.000009
v 155.413635 -23.311775 0.000001
v 161.716171 -20.765888 8.704906
v 169.697021 -5.537168 8.387512
v 171.142227 5.361010 9.766916
v 167.659317 16.638668 -0.000001
v 167.182983 -15.288796 18.617149
v 161.272583 15.849515 10.739391
v 161.585175 21.941746 9.964672
v 160.535553 -19.004642 24.475107
v 151.979935 6.459784 21.134598
v 151.113129 17.184906 11.099779
v 150.493500 25.264435 26.044537
v 140.638184 -2.562467 26.860367
v 140.702744 7.284024 21.544107
v 138.746002 18.388353 11.509863
v 137.093018 26.088894 17.076675
v 136.463058 -16.834547 17.001453
v 129.821365 -13.604159 23.331141
v 130.680878 -6.461921 22.456987
v 140.285522 -9.953318 25.986618
v 131.043457 -2.119747 20.518869
v 128.861755 17.830492 11.152563
v 128.416733 25.824718 9.982052
v 120.401711 20.395247 16.217176
v 120.197311 13.428738 24.937407
v 123.995743 -3.711483 7.191702
v 116.014221 8.984207 11.412086
v 116.285309 6.605371 21.157375
v 119.601662 4.178366 13.834247
v 116.011353 2.422186 13.484255
v 117.844170 -4.108260 6.984748
v 114.133499 -5.438080 11.126470
v 114.686325 -2.393177 6.684770
v 116.711334 -7.120057 7.496556
v 110.143311 10.487992 12.244985
v 112.742722 8.376000 15.379486
v 114.345818 3.620656 13.602155
v 112.714699 -1.852815 9.893330
v 108.914055 -6.473988 18.433081
v 123.203072 -12.948739 13.079382
v 118.799477 -10.523411 9.618872
v 145.462799 -22.018721 0.000002
v 126.834084 8.546747 6.611237
v 127.103615 6.126078 13.762752
v 126.412689 1.278268 17.250605
v 142.286407 2.825480 11.579662
v 144.072113 -3.616741 6.575376
v 107.363625 -10.097386 13.894082
v 167.769989 5.732869 9.407070
v 165.601105 -13.903034 13.202302
v 139.318817 -19.255182 19.952202
v 161.622620 -4.516987 20.888597
v 150.928452 -13.263102 15.874544
v 159.863556 -15.977791 14.801140
v 166.741898 -5.316494 24.305893
v 152.152847 -3.447714 19.880030
v 162.278168 5.667811 25.962051
v 129.752563 6.628940 10.231650
v 153.219421 -21.305162 15.948939
v 151.482422 -19.284107 18.289480
v 141.820862 1.252402 15.090595
v 143.921509 -11.717748 12.654681
v 144.471680 -13.796076 16.506830
v 143.128433 -18.879223 6.755134
v 107.188507 10.571136 0.000007
v 147.299652 -24.270464 0.000003
v 119.843185 22.761143 -0.000000
v 111.351898 -7.439276 0.000001
v 148.506287 -7.432720 0.000000
v 114.743256 -7.182890 0.000001
v 137.548126 10.383421 0.000002
v 115.559563 10.383770 0.000002
v 108.711502 11.098398 -8.704901
v 169.697021 -5.537169 -8.387508
v 171.142227 5.361010 -9.766914
v 167.659317 16.638668 -18.617144
v 161.272583 15.849516 -10.739388
v 161.585175 21.941746 -9.964666
v 160.535553 -19.004644 -24.475098
v 151.979935 6.459783 -21.134588
v 151.113129 17.184908 -11.099776
v 150.493500 25.264437 -26.044529
v 140.638184 -2.562468 -26.860359
v 140.702744 7.284025 -21.544102
v 138.746002 18.388359 -11.509862
v 137.093018 26.088894 -17.076668
v 136.463058 -16.834545 -17.001448
v 129.821365 -13.604161 -23.331135
v 130.680878 -6.461922 -22.456984
v 140.285522 -9.953321 -25.986610
v 131.043457 -2.119754 -20.518864
v 128.861755 17.830494 -11.152559
v 128.416733 25.824720 -9.982051
v 120.401703 20.395247 -16.217173
v 120.197311 13.428739 -24.937401
v 123.995728 -3.711491 -7.191699
v 116.014221 8.984207 -11.412083
v 116.285309 6.605372 -21.157372
v 119.601654 4.178369 -13.834244
v 116.011345 2.422185 -13.484254
v 117.844162 -4.108255 -6.984746
v 114.133492 -5.438081 -11.126466
v 114.686317 -2.393177 -6.684763
v 116.711334 -7.120059 -7.496551
v 110.137993 10.487807 -12.244980
v 112.737740 8.379663 -15.379480
v 114.345940 3.626794 -13.602151
v 112.720665 -1.848792 -9.893322
v 108.922058 -6.474566 -18.433081
v 123.203064 -12.948734 -13.079377
v 118.799469 -10.523411 -9.618866
v 145.462799 -22.018723 -6.611234
v 127.103607 6.126079 -13.762748
v 126.412682 1.278268 -17.250603
v 142.286407 2.825476 -11.579659
v 144.072113 -3.616745 -6.575372
v 107.367393 -10.098216 -13.894078
v 167.769989 5.732868 -9.407070
v 165.601105 -13.903033 -13.202304
v 139.318817 -19.255177 -19.952196
v 161.622620 -4.516988 -20.888590
v 150.928452 -13.263108 -15.874541
v 159.863556 -15.977789 -14.801136
v 166.741898 -5.316498 -24.305889
v 152.152832 -3.447709 -19.880022
v 162.278168 5.667810 -25.962044
v 129.752563 6.628942 -10.231635
v 153.219421 -21.305166 -15.948939
v 151.482422 -19.284103 -18.289476
v 141.820862 1.252403 -15.090589
v 143.921509 -11.717751 -12.654679
v 144.471680 -13.796074 -16.506821
v 143.128433 -18.879227 -6.755130
v 107.187775 10.570796 1.322701
v 115.065765 -7.277983 5.823306
v 114.726929 -8.023781 3.484655
v 109.289825 -9.605189 0.869065
v 112.089096 -7.657713 8.744977
v 108.185204 -8.567390 8.592953
v 111.542519 -8.611176 1.408664
v 113.755936 -8.253059 0.000009
v 155.273941 -20.818304 12.746919
v 153.771210 -18.096672 18.158796
v 152.447998 -14.991604 12.878200
v 146.511078 -18.688509 14.177769
v 138.314423 -17.001585 19.109158
v 145.685806 -14.818192 8.322463
v 138.930557 -19.379238 6.568018
v 147.239487 -20.836639 6.839844
v 154.691391 -19.784496 0.329060
v 139.378815 -20.388390 15.173245
v 131.993973 -8.371364 10.117590
v 124.079857 -12.836025 20.568560
v 129.697296 -3.755569 20.429382
v 138.394409 -3.677910 13.816087
v 119.099602 -8.439790 16.288376
v 145.846268 -8.072124 13.554266
v 127.014954 -10.051733 18.828463
v 123.675407 -4.940209 6.694506
v 139.036667 -19.585400 12.948569
v 138.351288 -17.096224 19.146265
v 137.116486 -12.641157 11.366447
v 122.332588 -11.481054 14.930213
v 125.370056 -8.522793 16.902370
v 131.121735 -6.735958 11.839724
v 123.286461 -11.322054 14.733073
v 125.734871 -8.918300 0.000001
v 127.995903 21.021841 10.006902
v 125.001839 4.232654 17.129856
v 122.735161 11.965382 7.043922
v 127.188187 19.491440 13.231849
v 124.605553 15.278783 16.363022
v 131.461060 5.176240 22.423851
v 128.946777 12.885055 -0.000000
v 112.089119 -7.657719 -1.322700
v 115.065765 -7.277983 0.000001
v 115.924713 -7.401372 0.000000
v 114.036087 -8.688589 -5.823302
v 114.726929 -8.023782 -3.484649
v 109.289825 -9.605191 -0.869059
v 112.089096 -7.657712 -8.744976
v 108.185204 -8.567388 -8.592949
v 111.542511 -8.611178 -1.408664
v 113.755936 -8.253059 0.000007
v 147.686752 -21.978870 -12.746915
v 153.771210 -18.096672 -18.158787
v 152.447998 -14.991608 -12.878200
v 146.511078 -18.688507 -14.177759
v 138.314423 -17.001587 -19.109150
v 145.685806 -14.818192 -8.322454
v 138.930557 -19.379244 -6.568015
v 147.239487 -20.836637 -6.839838
v 154.691391 -19.784496 -0.329048
v 139.378815 -20.388390 -15.173241
v 131.993973 -8.371365 -10.117589
v 124.079849 -12.836022 -20.568554
v 129.697296 -3.755565 -20.429375
v 138.394409 -3.677911 -13.816083
v 119.099602 -8.439789 -16.288374
v 145.846268 -8.072123 -13.554265
v 127.014946 -10.051729 -18.828461
v 123.675400 -4.940204 -6.694497
v 139.036667 -19.585405 -12.948565
v 138.351288 -17.096224 -19.146257
v 137.116486 -12.641159 -11.366441
v 122.332581 -11.481057 -14.930206
v 125.370049 -8.522798 -16.902365
v 131.121735 -6.735959 -11.839716
v 123.286461 -11.322057 -14.733071
v 125.734863 -8.918296 0.000002
v 123.465416 5.287099 -10.006899
v 125.001839 4.232656 -17.129854
v 122.735153 11.965380 -7.043921
v 127.188179 19.491442 -13.231845
v 124.605545 15.278785 -16.363014
v 131.461060 5.176242 -22.423847
v 128.946777 12.885056 6.611237
v 127.103615 6.126078 0.000001
v 137.548126 10.383421 11.579662
v 144.072113 -3.616741 0.000001
v 148.506287 -7.432720 9.618872
v 145.462799 -22.018721 0.000007
v 147.299652 -24.270464 6.684770
v 116.711334 -7.120057 0.000000
v 114.743256 -7.182890 13.079382
v 118.799477 -10.523411 13.762752
v 126.412689 1.278268 18.433081
v 123.203072 -12.948739 17.250605
v 142.286407 2.825480 17.001453
v 129.821365 -13.604159 17.076675
v 136.463058 -16.834547 13.202302
v 139.318817 -19.255182 0.000002
v 172.454788 5.443811 0.000002
v 171.199646 -5.771995 0.000000
v 169.199005 17.534666 -0.000001
v 167.182983 -15.288796 -0.000000
v 161.118973 24.460012 0.000001
v 161.716171 -20.765888 0.000003
v 136.466095 30.319227 0.000001
v 149.381348 28.077288 0.000001
v 127.879539 30.089418 0.000003
v 119.843185 22.761143 0.000002
v 115.559563 10.383770 0.000000
v 114.743256 -7.182890 0.000002
v 108.711502 11.098398 -0.000000
v 111.351898 -7.439276 0.000002
v 101.432808 11.364635 0.000009
v 155.413635 -23.311775 0.000007
v 147.299652 -24.270464 0.000001
v 137.548126 10.383421 0.000002
v 126.834084 8.546747 -6.611234
v 127.103607 6.126079 0.000001
v 137.548126 10.383421 0.000001
v 148.506287 -7.432720 0.000001
v 148.506287 -7.432720 -11.579659
v 144.072113 -3.616745 -9.618866
v 145.462799 -22.018723 0.000007
v 147.299652 -24.270464 0.000000
v 114.743256 -7.182890 -6.684763
v 116.711334 -7.120059 -13.079377
v 118.799469 -10.523411 -13.762748
v 126.412682 1.278268 -18.433081
v 123.203064 -12.948734 -17.250603
v 142.286407 2.825476 -17.001448
v 129.821365 -13.604161 -17.076668
v 136.463058 -16.834545 -13.202304
v 139.318817 -19.255177 0.000000
v 114.036087 -8.688589 0.000001
v 115.924713 -7.401372 -0.000000
v 112.089119 -7.657719 0.000009
v 155.273941 -20.818304 0.000007
v 147.686752 -21.978870 0.000002
v 123.465416 5.287099 0.000001
v 127.995903 21.021841 0.027882

vt 0.400997 0.686114
vt 0.964166 0.822641
vt 0.894118 0.910818
vt 0.793323 0.982927
vt 0.505694 0.546302
vt 0.977896 0.961351
vt 0.655932 0.885449
vt 0.048510 0.271371
vt 0.859569 0.338492
vt 0.915489 0.551262
vt 0.891268 0.662456
vt 0.883749 0.765497
vt 0.820276 0.425394
vt 0.957283 0.723928
vt 0.729731 0.811116
vt 0.751717 0.389496
vt 0.827301 0.614470
vt 0.643760 0.723238
vt 0.636649 0.850676
vt 0.640857 0.507643
vt 0.541438 0.606793
vt 0.534059 0.728332
vt 0.515910 0.856652
vt 0.501862 0.320153
vt 0.530145 0.353726
vt 0.419888 0.451817
vt 0.442702 0.425565
vt 0.556907 0.503164
vt 0.440926 0.734360
vt 0.415248 0.851719
vt 0.413262 0.817312
vt 0.325957 0.720639
vt 0.309229 0.508421
vt 0.361795 0.791160
vt 0.225254 0.717537
vt 0.227020 0.605661
vt 0.307165 0.625423
vt 0.219997 0.527485
vt 0.216325 0.495894
vt 0.141121 0.553309
vt 0.178723 0.470381
vt 0.157099 0.791156
vt 0.144947 0.715012
vt 0.170834 0.640503
vt 0.194043 0.580545
vt 0.151536 0.555327
vt 0.099194 0.398631
vt 0.320825 0.441645
vt 0.230089 0.271723
vt 0.698329 0.057259
vt 0.128261 0.791151
vt 0.051063 0.770359
vt 0.098636 0.670716
vt 0.125041 0.579803
vt 0.084076 0.536684
vt 0.043508 0.649681
vt 0.825841 0.453982
vt 0.868384 0.279151
vt 0.016167 0.542244
vt 0.757017 0.427019
vt 0.676675 0.429533
vt 0.782127 0.541743
vt 0.827491 0.524407
vt 0.658358 0.635599
vt 0.749446 0.588287
vt 0.436552 0.333486
vt 0.766493 0.366828
vt 0.715032 0.224435
vt 0.126728 0.274558
vt 0.067528 0.290520
vt 0.057939 0.336928
vt 0.625191 0.800627
vt 0.097342 0.209072
vt 0.789046 0.919274
vt 0.303153 0.431313
vt 0.083720 0.548656
vt 0.013905 0.415563
vt 0.111313 0.056561
vt 0.129638 0.874462
vt 0.217334 0.879420
vt 0.129875 0.551262
vt 0.891268 0.662456
vt 0.883749 0.765497
vt 0.820276 0.723928
vt 0.729731 0.811116
vt 0.751717 0.389496
vt 0.827301 0.614470
vt 0.643760 0.723238
vt 0.636649 0.850676
vt 0.640857 0.507643
vt 0.541438 0.606793
vt 0.534059 0.728332
vt 0.515910 0.856652
vt 0.501862 0.320153
vt 0.530145 0.353726
vt 0.419888 0.451817
vt 0.442702 0.425565
vt 0.556907 0.503164
vt 0.440926 0.734360
vt 0.415248 0.851719
vt 0.413262 0.817312
vt 0.325957 0.720639
vt 0.309229 0.508421
vt 0.361795 0.791160
vt 0.225254 0.717537
vt 0.227020 0.605661
vt 0.307165 0.625423
vt 0.219997 0.527485
vt 0.216325 0.495894
vt 0.141121 0.553309
vt 0.178723 0.470381
vt 0.157099 0.791156
vt 0.144947 0.715012
vt 0.170834 0.640503
vt 0.194043 0.580545
vt 0.151536 0.555327
vt 0.099194 0.398631
vt 0.320825 0.441645
vt 0.230089 0.271723
vt 0.698329 0.791151
vt 0.051063 0.770359
vt 0.098636 0.670716
vt 0.125041 0.579803
vt 0.084076 0.536684
vt 0.043508 0.649681
vt 0.825841 0.453982
vt 0.868384 0.279151
vt 0.016167 0.542244
vt 0.757017 0.427019
vt 0.676675 0.429533
vt 0.782127 0.541743
vt 0.827491 0.524407
vt 0.658358 0.635599
vt 0.749446 0.588287
vt 0.436552 0.333486
vt 0.766493 0.366828
vt 0.715032 0.224435
vt 0.126728 0.274558
vt 0.067528 0.290520
vt 0.057939 0.336928
vt 0.625191 0.800627
vt 0.097342 0.060396
vt 0.600270 0.222356
vt 0.579127 0.136396
vt 0.358682 0.042074
vt 0.488424 0.327890
vt 0.338424 0.322226
vt 0.459309 0.060381
vt 0.544486 0.175619
vt 0.980678 0.066349
vt 0.939917 0.014471
vt 0.920626 0.076248
vt 0.863752 0.071528
vt 0.783736 0.018375
vt 0.849210 0.131710
vt 0.793451 0.135151
vt 0.875904 0.119347
vt 0.956302 0.196085
vt 0.805626 0.137644
vt 0.664913 0.235589
vt 0.628372 0.144231
vt 0.724592 0.028844
vt 0.728347 0.253736
vt 0.692973 0.011408
vt 0.666876 0.190367
vt 0.649593 0.207719
vt 0.711630 0.142189
vt 0.795415 0.084627
vt 0.783736 0.014585
vt 0.770106 0.243376
vt 0.657950 0.198175
vt 0.677491 0.140665
vt 0.690289 0.240574
vt 0.647372 0.195877
vt 0.669304 0.066465
vt 0.297557 0.251789
vt 0.189423 0.275629
vt 0.294750 0.138460
vt 0.323800 0.218579
vt 0.306334 0.351995
vt 0.192846 0.370596
vt 0.281800 0.010296
vt 0.488790 0.060396
vt 0.600270 0.011683
vt 0.630881 0.007829
vt 0.552381 0.222356
vt 0.579127 0.136396
vt 0.358682 0.042074
vt 0.488424 0.327890
vt 0.338424 0.322226
vt 0.459309 0.060381
vt 0.544486 0.192887
vt 0.887695 0.066349
vt 0.939917 0.014471
vt 0.920626 0.076248
vt 0.863752 0.071528
vt 0.783736 0.018375
vt 0.849210 0.131710
vt 0.793451 0.135151
vt 0.875904 0.119347
vt 0.956302 0.196085
vt 0.805626 0.137644
vt 0.664913 0.235589
vt 0.628372 0.144231
vt 0.724592 0.028844
vt 0.728347 0.253736
vt 0.692973 0.011408
vt 0.666876 0.190367
vt 0.649593 0.207719
vt 0.711630 0.142189
vt 0.795415 0.084627
vt 0.783736 0.014585
vt 0.770106 0.243376
vt 0.657950 0.198175
vt 0.677491 0.140665
vt 0.690289 0.240574
vt 0.647372 0.195877
vt 0.669304 0.140611
vt 0.147623 0.251789
vt 0.189423 0.275629
vt 0.294750 0.138460
vt 0.323800 0.218579
vt 0.306334 0.351995
vt 0.192846 0.370596
vt 0.281800 0.091553
vt 0.107459 0.786689
vt 0.008222 0.318250
vt 0.141197 0.391156
vt 0.132869 0.324029
vt 0.020381 0.380818
vt 0.012207 0.076159
vt 0.038080 0.033004
vt 0.042328 0.116341
vt 0.014301 0.137354
vt 0.093690 0.159084
vt 0.004344 0.222790
vt 0.135889 0.201546
vt 0.018645 0.246522
vt 0.020775 0.290699
vt 0.593993 0.686114
vt 0.964166 0.546302
vt 0.977896 0.822641
vt 0.894118 0.425394
vt 0.957283 0.910818
vt 0.793323 0.338492
vt 0.915489 0.982927
vt 0.505694 0.961351
vt 0.655932 0.972118
vt 0.400997 0.919274
vt 0.303153 0.874462
vt 0.217334 0.415563
vt 0.111313 0.879420
vt 0.129875 0.431313
vt 0.083720 0.885449
vt 0.048510 0.271371
vt 0.859569 0.209072
vt 0.789046 0.056561
vt 0.129638 0.057259
vt 0.128261 0.091553
vt 0.107459 0.786689
vt 0.008222 0.548656
vt 0.013905 0.391156
vt 0.132869 0.318250
vt 0.141197 0.324029
vt 0.020381 0.380818
vt 0.012207 0.033004
vt 0.042328 0.076159
vt 0.038080 0.116341
vt 0.014301 0.137354
vt 0.093690 0.159084
vt 0.004344 0.222790
vt 0.135889 0.201546
vt 0.018645 0.246522
vt 0.020775 0.290699
vt 0.593993 0.007829
vt 0.552381 0.011683
vt 0.630881 0.010296
vt 0.488790 0.175619
vt 0.980678 0.192887
vt 0.887695 0.140611
vt 0.147623 0.066465
vt 0.297557 1.000000

f 219/219 179/179 176/176
f 179/179 219/219 177/177
f 177/177 180/180 179/179
f 177/177 178/178 180/180
f 181/181 182/182 178/178
f 178/178 177/177 181/181
f 222/222 281/281 282/282
f 281/281 222/222 220/220
f 223/223 220/220 222/222
f 221/221 220/220 223/223
f 224/224 220/220 221/221
f 221/221 225/225 224/224
