# MOD converted: [r]temple_h_w_clothrobe001.mod
# 586 verts, 726 faces

v 107.220428 4.535837 3.706049
v 106.760307 -0.065412 3.611752
v 103.959030 -2.892969 17.647758
v 118.886963 1.687793 17.475193
v 117.073418 -5.996265 17.302631
v 112.918732 -11.906636 24.441118
v 120.811699 -1.331715 24.305183
v 119.631630 -7.572853 24.169252
v 116.110420 -12.040292 31.492220
v 119.718750 -3.905252 35.974739
v 116.707100 -6.370191 31.341465
v 117.112076 -9.842729 10.810199
v 114.545036 3.621752 10.649866
v 112.943024 -3.580499 10.489532
v 108.999855 -9.009056 31.416729
v 119.583946 -7.765492 -0.785532
v 108.635353 6.304901 5.332995
v 109.464470 1.106159 9.111712
v 106.529236 -1.978560 8.863614
v 124.128784 11.586210 16.929062
v 124.355881 5.171811 23.283958
v 119.064209 -0.227496 15.348252
v 127.881531 13.987073 21.732492
v 128.158142 8.302769 27.651541
v 124.201675 3.825716 21.939127
v 129.477219 16.813705 30.632521
v 128.704208 17.953197 31.035875
v 127.319702 10.127398 3.498013
v 117.912987 8.998113 11.354199
v 118.285027 2.735606 17.211445
v 113.310791 -2.263855 27.074995
v 130.187180 13.259787 6.141813
v 108.743843 4.155513 11.239047
v 126.435532 16.278347 8.853333
v 131.951920 23.190264 0.000086
v 133.175079 36.809929 4.899444
v 134.239578 31.339863 10.442378
v 118.917030 9.924145 0.000071
v 135.335907 30.586676 0.000006
v 109.840164 3.402329 0.000035
v 127.531853 15.525182 0.000052
v 133.048233 22.437086 0.000020
v 120.013359 9.170976 -3.800331
v 107.220436 4.535857 -3.706053
v 106.760307 -0.065392 -3.611768
v 103.959030 -2.892948 -17.647755
v 118.886971 1.687880 -17.475224
v 117.073425 -5.996178 -17.302692
v 112.918732 -11.906548 -24.441128
v 120.811707 -1.331596 -24.305222
v 119.631638 -7.572733 -24.169312
v 116.110420 -12.040173 -31.492241
v 119.718758 -3.905097 -35.974773
v 116.707108 -6.370015 -31.341515
v 117.112083 -9.842574 -10.810184
v 114.545044 3.621806 -10.649886
v 112.943024 -3.580444 -10.489579
v 108.999863 -9.009001 -31.416767
v 119.583946 -7.765340 0.785559
v 108.635361 6.304900 -5.332993
v 109.464478 1.106188 -9.111726
v 106.529236 -1.978513 -8.863561
v 124.128784 11.586254 -16.929039
v 124.355888 5.171894 -23.283960
v 119.064217 -0.227381 -15.348187
v 127.881531 13.987147 -21.732456
v 128.158142 8.302875 -27.651524
v 124.201683 3.825851 -21.939051
v 129.477234 16.813810 -30.632437
v 128.704208 17.953344 -31.035830
v 127.319710 10.127547 -3.497973
v 117.912994 8.998131 -11.354190
v 118.285027 2.735663 -17.211458
v 113.310799 -2.263770 -27.074932
v 130.187180 13.259916 -6.141796
v 108.743843 4.155546 -11.238974
v 126.435532 16.278402 -8.853226
v 131.951920 23.190306 -4.899297
v 134.239578 31.339884 -10.442334
v 118.917038 9.924196 0.000035
v 127.531853 15.525182 0.000020
v 120.013359 9.170976 0.000052
v 133.048233 22.437086 0.000086
v 133.175079 36.809929 0.000071
v 135.335907 30.586676 0.000006
v 109.840164 3.402329 0.239013
v 89.524597 -10.573358 0.000011
v 90.803291 7.235065 -0.000000
v 116.892326 7.123107 -0.000000
v 113.371758 -2.496196 -0.000000
v 123.522591 5.340425 0.000001
v 119.354492 -4.180037 0.000000
v 100.835396 -12.674532 0.000000
v 105.225037 -11.664290 -0.000000
v 108.294167 -8.798118 0.000000
v 96.662277 -11.317686 0.000001
v 108.806656 10.579060 -0.000001
v 103.149330 9.835348 -0.000000
v 97.175545 7.428012 0.000000
v 113.590782 9.239216 10.530321
v 89.931992 -5.250169 8.480809
v 90.654495 5.698239 11.722277
v 90.267487 -0.120171 5.876497
v 89.665192 -9.087654 5.190527
v 116.160255 4.787661 5.469827
v 114.928589 0.044686 5.009039
v 122.611069 2.854040 4.507287
v 120.603065 -1.682564 8.555399
v 112.898048 -1.008071 7.474741
v 113.001122 9.106153 11.144752
v 104.696121 -5.408719 5.854772
v 103.219734 9.453983 11.197358
v 100.154427 -0.182000 11.833632
v 102.736313 -0.286308 6.856555
v 108.811073 10.353820 10.574053
v 102.913269 7.246572 11.071574
v 108.951653 -3.281334 8.652479
v 114.795532 4.413930 10.821504
v 108.820190 9.501086 5.142608
v 96.773407 -10.108641 8.679108
v 96.923622 -6.864008 10.344481
v 97.082558 -0.407184 8.546872
v 97.134468 4.455921 4.849368
v 97.160446 7.346546 8.441721
v 108.672058 -5.248410 4.995442
v 100.933319 -12.903398 9.149506
v 100.805145 -10.725889 4.812867
v 105.393669 -11.695382 5.110183
v 108.846451 -7.744727 9.226657
v 105.348404 -9.774715 10.599205
v 100.507286 -7.078849 13.822545
v 80.045532 5.190322 8.606047
v 80.670303 11.004675 17.219406
v 79.179306 -0.730777 7.802899
v 76.891602 -10.454929 14.680494
v 78.093903 -6.578225 -0.000000
v 80.719704 12.094419 0.000000
v 75.876892 -11.608673 11.810703
v 113.243767 8.067584 12.483635
v 103.278458 6.833611 13.761726
v 107.783943 8.876821 12.860235
v 103.330971 0.040925 12.748286
v 112.784233 -0.552638 13.813765
v 107.943817 -1.948806 16.172661
v 111.470947 6.154597 13.300586
v 113.876854 4.034653 15.824413
v 111.306534 0.438017 8.810860
v 85.673309 7.541549 14.848993
v 84.560600 -0.778342 6.824623
v 83.276604 -9.231722 0.000000
v 82.706001 -10.793241 -0.000000
v 86.166199 8.939884 13.380583
v 83.841301 -6.130039 15.456642
v 71.449028 7.587846 8.235874
v 72.076500 14.339764 0.000000
v 72.184563 15.492944 20.015984
v 70.687256 -0.214372 8.994358
v 69.603546 -11.991452 0.000000
v 66.361313 -12.950989 16.157694
v 70.018387 -8.228239 10.807935
v 58.015285 -14.033442 5.662416
v 108.083038 -6.644896 9.337527
v 113.767815 4.119078 9.044329
v 112.135674 -0.887029 0.000000
v 111.134422 9.845057 6.995134
v 115.959892 -3.118524 5.554724
v 113.506607 -8.236242 6.120450
v 118.533875 8.010123 7.182827
v 118.124390 3.229471 0.000000
v 116.341995 10.226826 -0.000000
v 111.986549 -9.745901 0.000000
v 108.810753 2.955400 17.215384
v 61.616180 9.271874 9.034693
v 61.965256 16.760431 -0.000003
v 62.120617 18.489157 22.685936
v 61.091682 0.253213 17.971308
v 59.425217 -9.885588 9.189460
v 20.484205 -4.618870 8.996701
v 20.483406 8.895572 19.047203
v 20.485806 4.294419 6.671240
v 20.483200 3.588790 17.271500
v 20.485102 -4.281379 15.818404
v 20.485001 9.062572 5.554139
v 48.629494 -5.419724 4.895458
v 44.634895 1.578640 7.014110
v 45.823799 7.658532 12.921599
v 46.202698 7.492742 15.246099
v 49.652096 -4.881306 16.873398
v 45.863094 2.165931 10.970900
v 45.770500 -7.273837 6.143127
v 45.318398 -4.985736 15.306400
v 46.417301 -4.494487 11.302197
v 42.378899 -6.217439 15.638998
v 43.370190 -3.694327 6.830048
v 42.601891 -4.381607 18.503405
v 35.618698 3.077842 14.372300
v 35.918503 9.240406 7.779898
v 35.585098 9.489624 4.990849
v 34.116600 2.656087 10.569797
v 49.151691 -7.550946 16.702099
v 48.443199 2.114961 12.697798
v 48.166500 7.455453 6.914859
v 47.551689 7.601022 4.512318
v 47.441292 1.563499 11.784182
v 79.914116 5.799754 7.912278
v 80.473923 9.410053 14.607849
v 79.138016 -0.312232 7.173875
v 77.088295 -8.368221 12.572945
v 78.165527 -5.156555 -0.000001
v 80.518204 10.312855 -0.000001
v 76.179146 -9.324044 -0.000000
v 73.907799 11.140409 16.457996
v 73.013992 0.138661 14.195202
v 72.966919 -6.194985 9.398401
v 74.447098 10.585207 14.356301
v 74.059296 5.618506 1.665680
v 70.646591 0.660656 2.635961
v 71.561203 -5.864994 17.339800
v 60.885490 1.740332 9.634028
v 60.585098 -8.788692 3.599490
v 60.123802 -5.908004 2.262650
v 59.749001 1.097810 10.455600
v 70.001793 8.569874 15.430999
v 60.917091 -6.186737 4.611198
v 60.173409 8.396206 12.256500
v 60.735004 8.265583 3.296189
v 69.710503 8.305254 -0.000001
v 71.171677 -5.939034 -0.000002
v 70.360901 0.610695 -0.000001
v 70.636642 7.044332 8.209989
v 72.508217 -7.909703 43.985962
v 90.563248 4.652628 45.726570
v 94.373810 6.712591 43.711777
v 90.471046 -0.151394 47.274376
v 97.930428 5.048261 45.364567
v 94.248062 -2.745785 47.002373
v 98.115440 -0.863106 26.688982
v 102.244576 7.691787 26.023682
v 97.636307 5.475188 27.708281
v 101.825676 -1.642644 26.173683
v 97.803253 0.417031 29.146276
v 105.676651 0.155596 29.269484
v 105.850609 5.386023 28.327787
v 96.744919 5.101112 31.421783
v 104.935623 5.374717 30.850393
v 100.517632 7.497024 28.904591
v 101.422607 7.713725 31.342981
v 104.733635 0.095159 29.935972
v 100.881638 -1.742564 28.401276
v 96.858932 0.369848 34.088184
v 93.986237 -0.086475 35.970978
v 98.313652 -2.637596 37.794273
v 102.469635 -0.598355 37.942589
v 102.531639 5.538288 35.989693
v 98.472656 7.766023 33.949791
v 94.028336 5.195740 40.013023
v 92.082642 4.798075 41.196152
v 96.133804 7.012991 41.289482
v 95.843552 -2.718940 39.717010
v 92.052155 -0.133149 43.106705
v 99.907829 5.195809 43.006660
v 99.954521 -0.787025 10.956719
v 115.030510 -11.256908 6.995134
v 117.587379 -3.117826 4.715944
v 115.138130 -7.396708 9.357484
v 121.606522 9.498081 6.120450
v 120.160347 8.009633 7.182827
v 119.750801 3.230490 2.029881
v 120.961540 13.378368 0.000000
v 118.755997 10.226825 -0.000000
v 113.612999 -9.745903 4.487727
v 111.973907 -12.930151 -0.000000
v 110.437225 2.955402 13.113282
v 120.562798 -0.361141 13.505493
v 113.750618 -5.940568 15.051875
v 116.564507 3.646231 7.138430
v 117.434631 13.376032 7.869544
v 107.959717 -10.219477 10.956719
v 109.146118 -6.455747 6.995133
v 113.396416 -3.117758 4.715947
v 110.943794 -7.395607 11.894393
v 114.558815 9.491334 6.120450
v 113.957764 10.570541 7.182827
v 116.888649 3.520273 4.509881
v 113.195030 14.405432 1.111534
v 114.048370 13.026881 13.113284
v 115.246117 -0.750770 -0.000000
v 109.423073 -9.745904 3.007608
v 105.396240 -12.929245 -0.394421
v 106.247284 2.955400 -10.530321
v 89.931992 -5.250170 -8.480809
v 90.654495 5.698240 -11.722277
v 90.267487 -0.120171 -5.876497
v 89.665192 -9.087654 -5.190527
v 116.159607 4.789395 -5.469827
v 114.929558 0.046083 -5.009039
v 122.611053 2.854043 -4.507286
v 120.603065 -1.682565 -8.555395
v 112.899376 -1.006928 -7.474741
v 112.999008 9.107208 -11.144752
v 104.697647 -5.409266 -5.854770
v 103.219734 9.453983 -11.197358
v 100.154427 -0.182001 -11.833632
v 102.739944 -0.291371 -6.856556
v 108.802132 10.352867 -10.574053
v 102.908302 7.241203 -11.071572
v 108.958366 -3.280538 -8.652478
v 114.794998 4.415650 -10.821498
v 108.813004 9.501670 -5.142608
v 96.773407 -10.108642 -8.679104
v 96.923630 -6.864008 -10.344481
v 97.082558 -0.407187 -8.546872
v 97.134468 4.455921 -4.849369
v 97.160446 7.346546 -8.441718
v 108.676941 -5.248645 -4.995441
v 100.933319 -12.903397 -9.149503
v 100.805145 -10.725891 -4.812860
v 105.393669 -11.695385 -5.110179
v 108.854630 -7.745762 -9.226653
v 105.348404 -9.774717 -10.599208
v 100.507286 -7.078847 -13.822543
v 80.045532 5.190321 -8.606047
v 80.670303 11.004675 -17.219406
v 79.179306 -0.730780 -7.802899
v 76.891602 -10.454929 -14.680493
v 78.093903 -6.578227 -11.810699
v 113.234474 8.076058 -12.483635
v 103.274696 6.830026 -13.761726
v 107.776810 8.877543 -12.860235
v 103.333702 0.037497 -12.748283
v 112.790398 -0.544313 -13.813765
v 107.949593 -1.947891 -16.172661
v 111.467056 6.160119 -13.300584
v 113.874794 4.045016 -15.824413
v 111.309464 0.443232 -8.810860
v 85.673294 7.541550 -14.848993
v 84.560600 -0.778343 -6.824623
v 83.276604 -9.231722 -13.380581
v 83.841301 -6.130042 -15.456641
v 71.449036 7.587847 -8.235874
v 72.076500 14.339762 -20.015984
v 70.687256 -0.214376 -8.994358
v 69.603531 -11.991454 -16.157692
v 70.018387 -8.228242 -10.807930
v 58.015282 -14.033445 -5.662415
v 108.090385 -6.646303 -9.337523
v 113.767387 4.120573 -9.044327
v 112.136971 -0.886059 -6.995133
v 115.961960 -3.116643 -5.554720
v 113.515182 -8.234034 -6.120449
v 118.532127 8.012672 -7.182826
v 118.124275 3.232020 -17.215384
v 61.616180 9.271873 -9.034693
v 61.965252 16.760431 -22.685930
v 61.091682 0.253450 -17.971306
v 59.425228 -9.885590 -9.189460
v 20.484205 -4.618871 -8.996702
v 20.483404 8.895572 -19.047203
v 20.485802 4.294421 -6.671242
v 20.483202 3.588793 -17.271503
v 20.485106 -4.281381 -15.818404
v 20.485001 9.062571 -5.554141
v 48.629494 -5.419726 -4.895461
v 44.634903 1.578642 -7.014108
v 45.823799 7.658533 -12.921600
v 46.202698 7.492741 -15.246101
v 49.652096 -4.881306 -16.873398
v 45.863094 2.165932 -10.970900
v 45.770500 -7.273837 -6.143128
v 45.318398 -4.985737 -15.306400
v 46.417301 -4.494487 -11.302200
v 42.378899 -6.217438 -15.638999
v 43.370190 -3.694328 -6.830050
v 42.601894 -4.381608 -18.503403
v 35.618698 3.077840 -14.372302
v 35.918503 9.240404 -7.779901
v 35.585098 9.489622 -4.990849
v 34.116600 2.656093 -10.569799
v 49.151688 -7.550946 -16.702099
v 48.443199 2.114962 -12.697800
v 48.166500 7.455452 -6.914859
v 47.551693 7.601022 -4.512320
v 47.441292 1.563504 -11.784183
v 79.914116 5.799753 -7.912279
v 80.473923 9.410053 -14.607849
v 79.138016 -0.312237 -7.173872
v 77.088295 -8.368225 -12.572945
v 78.165527 -5.156556 -16.457996
v 73.013992 0.138713 -14.195201
v 72.966919 -6.194983 -9.398399
v 74.447098 10.585207 -14.356301
v 74.059296 5.618507 -1.665680
v 70.646591 0.660655 -2.635961
v 71.561203 -5.864991 -17.339800
v 60.885513 1.740333 -9.634032
v 60.585087 -8.788693 -3.599490
v 60.123802 -5.908002 -2.262652
v 59.749008 1.097815 -10.455599
v 70.001785 8.569875 -15.431000
v 60.917099 -6.186734 -4.611200
v 60.173401 8.396205 -12.256500
v 60.735001 8.265586 -3.296189
v 69.710503 8.305254 -8.209991
v 72.508217 -7.909703 -43.985962
v 90.563248 4.652625 -45.726570
v 94.373810 6.712591 -43.711784
v 90.471046 -0.151400 -47.274376
v 97.930428 5.048265 -45.364578
v 94.248062 -2.745785 -47.002380
v 98.115448 -0.863103 -26.688974
v 102.244637 7.691783 -26.023682
v 97.636330 5.475223 -27.708281
v 101.825630 -1.642645 -26.173683
v 97.803223 0.417065 -29.146282
v 105.676636 0.155558 -29.269484
v 105.850632 5.385984 -28.327782
v 96.744934 5.101115 -31.421782
v 104.935638 5.374715 -30.850378
v 100.517624 7.497024 -28.904583
v 101.422638 7.713726 -31.342979
v 104.733620 0.095156 -29.935978
v 100.881615 -1.742566 -28.401281
v 96.858932 0.369848 -34.088184
v 93.986237 -0.086483 -35.970978
v 98.313629 -2.637597 -37.794281
v 102.469635 -0.598349 -37.942581
v 102.531639 5.538295 -35.989681
v 98.472641 7.766024 -33.949783
v 94.028336 5.195734 -40.013020
v 92.082642 4.798069 -41.196148
v 96.133812 7.012992 -41.289494
v 95.843575 -2.718942 -39.717014
v 92.052155 -0.133156 -43.106697
v 99.907829 5.195814 -43.006664
v 99.954521 -0.787021 -10.956717
v 115.032928 -11.255882 -6.995131
v 117.588417 -3.116645 -4.715944
v 115.141647 -7.395333 -9.357485
v 121.604256 9.501919 -6.120449
v 120.158592 8.012671 -7.182825
v 119.750748 3.232008 -2.029881
v 120.961540 13.378366 -4.487731
v 111.986099 -12.929243 -13.113282
v 120.565948 -0.349962 -13.505493
v 113.768219 -5.929117 -15.051872
v 116.563133 3.661850 -7.138430
v 117.431053 13.378371 -7.869542
v 107.959717 -10.219477 -10.956718
v 109.151718 -6.455231 -6.995132
v 113.398483 -3.116645 -4.715946
v 110.951714 -7.395334 -11.894394
v 114.546974 9.501916 -6.120450
v 113.955154 10.571724 -7.182827
v 116.888428 3.522452 -4.509881
v 113.186150 14.407169 -1.111534
v 114.048370 13.026881 -13.113282
v 115.252655 -0.738371 -3.007607
v 105.396240 -12.929245 0.394421
v 106.247284 2.955399 5.190527
v 116.160255 4.787661 -0.000000
v 116.892326 7.123107 -0.000000
v 113.371758 -2.496196 5.469827
v 114.928589 0.044686 5.190527
v 116.160255 4.787661 8.652479
v 114.795532 4.413930 10.821504
v 108.820190 9.501086 10.574053
v 102.913269 7.246572 12.483635
v 103.278458 6.833611 10.574053
v 102.913269 7.246572 11.833632
v 102.736313 -0.286308 8.652479
v 114.795532 4.413930 8.555399
v 112.898048 -1.008071 7.474741
v 113.001122 9.106153 11.071574
v 108.951653 -3.281334 7.474741
v 113.001122 9.106153 -0.000000
v 108.294167 -8.798118 5.554724
v 113.506607 -8.236242 6.995134
v 115.959892 -3.118524 7.182827
v 118.124390 3.229471 6.120450
v 118.533875 8.010123 0.000000
v 116.341995 10.226826 6.995134
v 115.959892 -3.118524 -0.000000
v 111.986549 -9.745901 11.071574
v 108.951653 -3.281334 11.144752
v 104.696121 -5.408719 8.441721
v 108.672058 -5.248410 5.110183
v 108.846451 -7.744727 9.226657
v 105.348404 -9.774715 4.812867
v 105.393669 -11.695382 4.895458
v 44.634895 1.578640 4.990849
v 34.116600 2.656087 6.671240
v 20.483200 3.588790 4.512318
v 47.441292 1.563499 1.665680
v 70.646591 0.660656 2.262650
v 59.749001 1.097810 -0.000002
v 70.360901 0.610695 26.023682
v 97.636307 5.475188 28.327787
v 96.744919 5.101112 40.013023
v 92.082642 4.798075 33.949791
v 94.028336 5.195740 43.985962
v 90.563248 4.652628 6.995134
v 117.587379 -3.117826 15.051875
v 116.564507 3.646231 6.995133
v 113.396416 -3.117758 1.111534
v 114.048370 13.026881 -0.000000
v 116.892326 7.123107 -0.000000
v 123.522591 5.340425 -0.000000
v 113.371758 -2.496196 0.000001
v 119.354492 -4.180037 0.000000
v 96.662277 -11.317686 0.000001
v 108.806656 10.579060 -5.190527
v 116.159607 4.789395 -0.000000
v 116.892326 7.123107 0.000000
v 89.524597 -10.573358 -0.000000
v 97.175545 7.428012 -0.000001
v 103.149330 9.835348 0.000011
v 90.803291 7.235065 -0.000000
v 108.294167 -8.798118 0.000000
v 105.225037 -11.664290 0.000000
v 100.835396 -12.674532 0.000000
v 113.590782 9.239216 -0.000000
v 113.371758 -2.496196 -5.469827
v 114.929558 0.046083 -5.190527
v 116.159607 4.789395 -8.652478
v 114.794998 4.415650 -10.821498
v 108.813004 9.501670 -10.574053
v 102.908302 7.241203 -12.483635
v 103.274696 6.830026 -11.833632
v 102.739944 -0.291371 -10.574053
v 102.908302 7.241203 -8.652478
v 114.794998 4.415650 -8.555395
v 112.899376 -1.006928 -7.474741
v 112.999008 9.107208 -11.071572
v 108.958366 -3.280538 0.000000
v 82.706001 -10.793241 -0.000000
v 86.166199 8.939884 -0.000000
v 80.719704 12.094419 0.000000
v 75.876892 -11.608673 0.000000
v 72.184563 15.492944 0.000000
v 66.361313 -12.950989 -7.474741
v 112.999008 9.107208 0.000000
v 116.341995 10.226826 0.000000
v 111.134422 9.845057 -0.000000
v 111.986549 -9.745901 -0.000000
v 108.294167 -8.798118 -5.554720
v 113.515182 -8.234034 -6.995133
v 115.961960 -3.116643 0.000000
v 108.810753 2.955400 -7.182826
v 118.124275 3.232020 -6.120449
v 118.532127 8.012672 0.000000
v 116.341995 10.226826 -6.995133
v 115.961960 -3.116643 -0.000000
v 111.986549 -9.745901 -11.071572
v 108.958366 -3.280538 -8.441718
v 108.676941 -5.248645 -11.144752
v 104.697647 -5.409266 -5.110179
v 108.854630 -7.745762 -9.226653
v 105.348404 -9.774717 -4.812860
v 105.393669 -11.695385 -0.000003
v 62.120617 18.489157 -4.895461
v 44.634903 1.578642 -4.990849
v 34.116600 2.656093 -6.671242
v 20.483202 3.588793 -4.512320
v 47.441292 1.563504 -0.000001
v 70.636642 7.044332 -0.000002
v 70.360901 0.610695 -0.000000
v 73.907799 11.140409 -1.665680
v 70.646591 0.660655 -2.262652
v 59.749008 1.097815 -0.000001
v 76.179146 -9.324044 -0.000001
v 71.171677 -5.939034 -0.000002
v 70.360901 0.610695 -0.000001
v 80.518204 10.312855 -26.023682
v 97.636330 5.475223 -28.327782
v 96.744934 5.101115 -40.013020
v 92.082642 4.798069 -33.949783
v 94.028336 5.195734 -43.985962
v 90.563248 4.652625 0.000000
v 118.755997 10.226825 -6.995131
v 117.588417 -3.116645 -0.000000
v 113.612999 -9.745903 -0.000000
v 110.437225 2.955402 -15.051872
v 116.563133 3.661850 -6.995132
v 113.398483 -3.116645 -0.000000
v 109.423073 -9.745904 -1.111534
v 114.048370 13.026881 0.563525

vt 0.020033 0.496699
vt 0.020033 0.232411
vt 0.020033 0.980279
vt 0.479695 0.496702
vt 0.479696 0.013125
vt 0.479697 0.921042
vt 0.666687 0.496704
vt 0.666629 0.072367
vt 0.666696 0.794349
vt 0.846392 0.496788
vt 0.987222 0.200087
vt 0.846402 0.921289
vt 0.270657 0.496700
vt 0.270657 0.072110
vt 0.270657 0.496752
vt 0.846288 0.760987
vt 0.020033 0.496699
vt 0.020033 0.232411
vt 0.020033 0.980279
vt 0.479695 0.496702
vt 0.479696 0.013125
vt 0.479697 0.921042
vt 0.666687 0.496704
vt 0.666629 0.072367
vt 0.666696 0.794349
vt 0.846392 0.496788
vt 0.987222 0.200087
vt 0.846402 0.921289
vt 0.270657 0.496700
vt 0.270657 0.072110
vt 0.270657 0.496752
vt 0.846288 0.232411
vt 0.020033 0.013125
vt 0.479697 0.072367
vt 0.666696 0.496788
vt 0.987222 0.200087
vt 0.846402 0.072110
vt 0.270657 0.496752
vt 0.846288 0.496699
vt 0.020033 0.496702
vt 0.479696 0.496704
vt 0.666629 0.496700
vt 0.270657 0.760987
vt 0.020033 0.496699
vt 0.020033 0.232411
vt 0.020033 0.980279
vt 0.479695 0.496702
vt 0.479696 0.013125
vt 0.479697 0.921042
vt 0.666687 0.496704
vt 0.666629 0.072367
vt 0.666696 0.794349
vt 0.846392 0.496788
vt 0.987222 0.200087
vt 0.846402 0.921289
vt 0.270657 0.496700
vt 0.270657 0.072110
vt 0.270657 0.496752
vt 0.846288 0.760987
vt 0.020033 0.496699
vt 0.020033 0.232411
vt 0.020033 0.980279
vt 0.479695 0.496702
vt 0.479696 0.013125
vt 0.479697 0.921042
vt 0.666687 0.496704
vt 0.666629 0.072367
vt 0.666696 0.794349
vt 0.846392 0.496788
vt 0.987222 0.200087
vt 0.846402 0.921289
vt 0.270657 0.496700
vt 0.270657 0.072110
vt 0.270657 0.496752
vt 0.846288 0.232411
vt 0.020033 0.013125
vt 0.479697 0.072367
vt 0.666696 0.200087
vt 0.846402 0.072110
vt 0.270657 0.496702
vt 0.479696 0.496700
vt 0.270657 0.496704
vt 0.666629 0.496788
vt 0.987222 0.496752
vt 0.846288 0.496699
vt 0.020033 1.000000
vt 0.422065 0.917715
vt 0.419773 0.319854
vt 0.387231 0.419902
vt 0.407410 0.300462
vt 0.438300 0.412031
vt 0.454395 0.399991
vt 0.632305 0.415626
vt 0.691752 0.457320
vt 0.765956 0.410872
vt 0.560877 0.955568
vt 0.699213 0.955367
vt 0.624687 0.950461
vt 0.545503 0.948164
vt 0.771336 0.600503
vt 0.421327 0.818231
vt 0.420353 0.689345
vt 0.420923 0.518939
vt 0.421741 0.352571
vt 0.398018 0.388989
vt 0.405860 0.331203
vt 0.455258 0.371662
vt 0.452534 0.649214
vt 0.814794 0.850426
vt 0.759841 0.638590
vt 0.658052 0.876541
vt 0.617472 0.697152
vt 0.588468 0.709749
vt 0.634245 0.864127
vt 0.688512 0.808135
vt 0.621451 0.663316
vt 0.730684 0.689149
vt 0.855561 0.808503
vt 0.686730 0.509385
vt 0.548195 0.593097
vt 0.539142 0.687694
vt 0.548069 0.783457
vt 0.546948 0.878663
vt 0.539527 0.597608
vt 0.727180 0.497013
vt 0.609412 0.561422
vt 0.597994 0.491620
vt 0.669453 0.523570
vt 0.754711 0.565834
vt 0.656365 0.613387
vt 0.600422 0.792918
vt 0.230039 0.877767
vt 0.233195 0.690725
vt 0.225134 0.504974
vt 0.216609 0.596942
vt 0.220455 0.970145
vt 0.235518 0.378909
vt 0.213062 0.107460
vt 0.391806 0.027344
vt 0.328125 0.078125
vt 0.347656 0.320312
vt 0.343750 0.211164
vt 0.398695 0.257812
vt 0.363281 0.136719
vt 0.343750 0.155687
vt 0.392641 0.199219
vt 0.351562 0.823941
vt 0.300010 0.692282
vt 0.298422 0.505605
vt 0.296793 0.393736
vt 0.296851 0.950867
vt 0.300353 0.600009
vt 0.296894 0.804297
vt 0.129385 0.887453
vt 0.128834 0.984792
vt 0.128732 0.690677
vt 0.129480 0.504281
vt 0.129167 0.372240
vt 0.120858 0.592453
vt 0.129465 0.501561
vt 0.011577 0.496094
vt 0.992188 0.609375
vt 0.992188 0.558594
vt 0.992188 0.722656
vt 0.992188 0.554688
vt 0.914062 0.492188
vt 0.914062 0.664062
vt 0.914062 0.613281
vt 0.914062 0.722656
vt 0.914062 0.425781
vt 0.914062 0.695312
vt 0.863281 0.799296
vt 0.011424 0.888753
vt 0.010756 0.998148
vt 0.010632 0.704410
vt 0.011540 0.592683
vt 0.011521 0.105856
vt 0.463273 0.318607
vt 0.463160 0.229997
vt 0.463145 0.045271
vt 0.463201 0.166055
vt 0.463185 0.264904
vt 0.463119 0.094929
vt 0.702916 0.045914
vt 0.669104 0.325791
vt 0.676502 0.268613
vt 0.677524 0.170706
vt 0.707768 0.224513
vt 0.676923 0.133314
vt 0.673780 0.097853
vt 0.672944 0.171575
vt 0.675056 0.133784
vt 0.646592 0.169818
vt 0.648530 0.098008
vt 0.649537 0.225486
vt 0.587880 0.269874
vt 0.588436 0.317068
vt 0.589251 0.044350
vt 0.577358 0.132207
vt 0.707626 0.223538
vt 0.694609 0.270307
vt 0.692178 0.327471
vt 0.688316 0.045284
vt 0.681198 0.264509
vt 0.967985 0.312733
vt 0.981418 0.216723
vt 0.959689 0.122081
vt 0.960309 0.172526
vt 0.957072 0.365243
vt 0.997707 0.062527
vt 0.975013 0.377129
vt 0.938905 0.218138
vt 0.906536 0.168907
vt 0.910593 0.308833
vt 0.928350 0.260312
vt 0.916774 0.419880
vt 0.860388 0.063852
vt 0.914749 0.228288
vt 0.804400 0.124888
vt 0.807311 0.077415
vt 0.801936 0.028573
vt 0.787440 0.300541
vt 0.884063 0.170472
vt 0.807960 0.344537
vt 0.797279 0.288966
vt 0.802499 0.360699
vt 0.885313 0.042497
vt 0.929321 0.427060
vt 0.871557 0.394824
vt 0.897397 0.120266
vt 0.917079 0.070312
vt 0.050781 0.113281
vt 0.050781 0.300781
vt 0.050781 0.152344
vt 0.050781 0.253906
vt 0.050781 0.210938
vt 0.050781 0.105469
vt 0.230469 0.054688
vt 0.218750 0.257812
vt 0.218750 0.308594
vt 0.218750 0.210938
vt 0.218750 0.156250
vt 0.218750 0.054688
vt 0.199219 0.156250
vt 0.199219 0.105469
vt 0.195312 0.105469
vt 0.210938 0.210938
vt 0.199219 0.257812
vt 0.199219 0.304688
vt 0.199219 0.304688
vt 0.128906 0.253906
vt 0.128906 0.210938
vt 0.128906 0.156250
vt 0.128906 0.109375
vt 0.128906 0.054688
vt 0.128906 0.062500
vt 0.085938 0.113281
vt 0.085938 0.253906
vt 0.085938 0.300781
vt 0.085938 0.152344
vt 0.085938 0.210938
vt 0.085938 0.959302
vt 0.994079 0.848416
vt 0.893020 0.817034
vt 0.963712 0.959302
vt 0.994079 0.817034
vt 0.963712 0.848416
vt 0.893020 0.959302
vt 0.994079 0.848416
vt 0.893020 0.848416
vt 0.893020 0.959302
vt 0.994079 0.695312
vt 0.863281 0.979593
vt 0.847532 0.959302
vt 0.994079 0.959302
vt 0.994079 0.959302
vt 0.994079 0.959302
vt 0.994079 0.959302
vt 0.994079 0.848416
vt 0.893020 0.817034
vt 0.963712 0.959302
vt 0.994079 0.817034
vt 0.963712 0.848416
vt 0.893020 0.959302
vt 0.994079 0.848416
vt 0.893020 0.979593
vt 0.847532 0.848416
vt 0.893020 0.959302
vt 0.994079 0.695312
vt 0.863281 0.600503
vt 0.421327 0.818231
vt 0.420353 0.689345
vt 0.420923 0.518939
vt 0.421741 0.352571
vt 0.398018 0.388989
vt 0.405860 0.331203
vt 0.455258 0.371662
vt 0.452534 0.649214
vt 0.814794 0.850426
vt 0.759841 0.638590
vt 0.658052 0.876541
vt 0.617472 0.697152
vt 0.588468 0.709749
vt 0.634245 0.864127
vt 0.688512 0.808135
vt 0.621451 0.663316
vt 0.730684 0.689149
vt 0.855561 0.808503
vt 0.686730 0.509385
vt 0.548195 0.593097
vt 0.539142 0.687694
vt 0.548069 0.783457
vt 0.546948 0.878663
vt 0.539527 0.597608
vt 0.727180 0.497013
vt 0.609412 0.561422
vt 0.597994 0.491620
vt 0.669453 0.523570
vt 0.754711 0.565834
vt 0.656365 0.613387
vt 0.600422 0.792918
vt 0.230039 0.877767
vt 0.233195 0.690725
vt 0.225134 0.504974
vt 0.216609 0.596942
vt 0.220455 0.107460
vt 0.391806 0.027344
vt 0.328125 0.078125
vt 0.347656 0.320312
vt 0.343750 0.211164
vt 0.398695 0.257812
vt 0.363281 0.136719
vt 0.343750 0.155687
vt 0.392641 0.199219
vt 0.351562 0.823941
vt 0.300010 0.692282
vt 0.298422 0.505605
vt 0.296793 0.600009
vt 0.296894 0.804297
vt 0.129385 0.887453
vt 0.128834 0.690677
vt 0.129480 0.504281
vt 0.129167 0.592453
vt 0.129465 0.501561
vt 0.011577 0.496094
vt 0.992188 0.609375
vt 0.992188 0.558594
vt 0.992188 0.554688
vt 0.914062 0.492188
vt 0.914062 0.664062
vt 0.914062 0.613281
vt 0.914062 0.799296
vt 0.011424 0.888753
vt 0.010756 0.704410
vt 0.011540 0.592683
vt 0.011521 0.105856
vt 0.463273 0.318607
vt 0.463160 0.229997
vt 0.463145 0.045271
vt 0.463201 0.166055
vt 0.463185 0.264904
vt 0.463119 0.094929
vt 0.702916 0.045914
vt 0.669104 0.325791
vt 0.676502 0.268613
vt 0.677524 0.170706
vt 0.707768 0.224513
vt 0.676923 0.133314
vt 0.673780 0.097853
vt 0.672944 0.171575
vt 0.675056 0.133784
vt 0.646592 0.169818
vt 0.648530 0.098008
vt 0.649537 0.225486
vt 0.587880 0.269874
vt 0.588436 0.317068
vt 0.589251 0.044350
vt 0.577358 0.132207
vt 0.707626 0.223538
vt 0.694609 0.270307
vt 0.692178 0.327471
vt 0.688316 0.045284
vt 0.681198 0.264509
vt 0.967985 0.312733
vt 0.981418 0.216723
vt 0.959689 0.122081
vt 0.960309 0.172526
vt 0.957072 0.218138
vt 0.906536 0.168907
vt 0.910593 0.308833
vt 0.928350 0.260312
vt 0.916774 0.419880
vt 0.860388 0.063852
vt 0.914749 0.228288
vt 0.804400 0.124888
vt 0.807311 0.077415
vt 0.801936 0.028573
vt 0.787440 0.300541
vt 0.884063 0.170472
vt 0.807960 0.344537
vt 0.797279 0.288966
vt 0.802499 0.360699
vt 0.885313 0.120266
vt 0.917079 0.070312
vt 0.050781 0.113281
vt 0.050781 0.300781
vt 0.050781 0.152344
vt 0.050781 0.253906
vt 0.050781 0.210938
vt 0.050781 0.105469
vt 0.230469 0.054688
vt 0.218750 0.257812
vt 0.218750 0.308594
vt 0.218750 0.210938
vt 0.218750 0.156250
vt 0.218750 0.054688
vt 0.199219 0.156250
vt 0.199219 0.105469
vt 0.195312 0.105469
vt 0.210938 0.210938
vt 0.199219 0.257812
vt 0.199219 0.304688
vt 0.199219 0.304688
vt 0.128906 0.253906
vt 0.128906 0.210938
vt 0.128906 0.156250
vt 0.128906 0.109375
vt 0.128906 0.054688
vt 0.128906 0.062500
vt 0.085938 0.113281
vt 0.085938 0.253906
vt 0.085938 0.300781
vt 0.085938 0.152344
vt 0.085938 0.210938
vt 0.085938 0.959302
vt 0.994079 0.848416
vt 0.893020 0.817034
vt 0.963712 0.959302
vt 0.994079 0.817034
vt 0.963712 0.848416
vt 0.893020 0.959302
vt 0.994079 0.959302
vt 0.994079 0.979593
vt 0.847532 0.959302
vt 0.994079 0.959302
vt 0.994079 0.959302
vt 0.994079 0.959302
vt 0.994079 0.959302
vt 0.994079 0.848416
vt 0.893020 0.817034
vt 0.963712 0.959302
vt 0.994079 0.817034
vt 0.963712 0.848416
vt 0.893020 0.959302
vt 0.994079 0.848416
vt 0.893020 0.979593
vt 0.847532 0.959302
vt 0.994079 0.695312
vt 0.863281 0.856887
vt 0.814133 0.938456
vt 0.826593 0.501919
vt 0.849050 0.566878
vt 0.852082 0.635721
vt 0.895659 0.812749
vt 0.807391 0.064622
vt 0.381709 0.010732
vt 0.347889 0.382812
vt 0.316406 0.373741
vt 0.339444 0.335446
vt 0.363480 0.142941
vt 0.444915 0.205400
vt 0.444338 0.091508
vt 0.437854 0.266625
vt 0.410905 0.664062
vt 0.992188 0.425781
vt 0.992188 0.817034
vt 0.963712 0.848416
vt 0.893020 0.848416
vt 0.893020 0.817034
vt 0.963712 0.848416
vt 0.893020 0.847656
vt 0.820312 0.848416
vt 0.893020 0.663316
vt 0.730684 0.638590
vt 0.658052 0.597608
vt 0.727180 0.523570
vt 0.754711 0.565834
vt 0.656365 0.491620
vt 0.669453 0.375868
vt 0.668571 0.366357
vt 0.576778 0.357405
vt 0.463143 0.376065
vt 0.682658 0.012315
vt 0.877453 0.396360
vt 0.781634 0.003466
vt 0.889804 0.359375
vt 0.218750 0.351562
vt 0.199219 0.347656
vt 0.085938 0.351562
vt 0.128906 0.343750
vt 0.050781 0.847656
vt 0.820312 0.979593
vt 0.847532 0.847656
vt 0.820312 0.848416
vt 0.893020 0.319854
vt 0.387231 0.300462
vt 0.438300 0.419902
vt 0.407410 0.412031
vt 0.454395 0.410872
vt 0.560877 0.955568
vt 0.699213 0.856887
vt 0.814133 0.938456
vt 0.826593 0.436475
vt 0.422065 0.950461
vt 0.545503 0.955367
vt 0.624687 0.917715
vt 0.419773 0.457320
vt 0.765956 0.415626
vt 0.691752 0.399991
vt 0.632305 0.948164
vt 0.771336 0.501919
vt 0.849050 0.566878
vt 0.852082 0.635721
vt 0.895659 0.812749
vt 0.807391 0.064622
vt 0.381709 0.010732
vt 0.347889 0.382812
vt 0.316406 0.335446
vt 0.363480 0.373741
vt 0.339444 0.142941
vt 0.444915 0.205400
vt 0.444338 0.091508
vt 0.437854 0.266625
vt 0.410905 0.393736
vt 0.296851 0.950867
vt 0.300353 0.970145
vt 0.235518 0.378909
vt 0.213062 0.984792
vt 0.128732 0.372240
vt 0.120858 0.664062
vt 0.992188 0.722656
vt 0.914062 0.722656
vt 0.992188 0.425781
vt 0.914062 0.425781
vt 0.992188 0.817034
vt 0.963712 0.848416
vt 0.893020 0.695312
vt 0.863281 0.848416
vt 0.893020 0.817034
vt 0.963712 0.848416
vt 0.893020 0.847656
vt 0.820312 0.848416
vt 0.893020 0.663316
vt 0.730684 0.597608
vt 0.727180 0.638590
vt 0.658052 0.523570
vt 0.754711 0.565834
vt 0.656365 0.491620
vt 0.669453 0.998148
vt 0.010632 0.375868
vt 0.668571 0.366357
vt 0.576778 0.357405
vt 0.463143 0.376065
vt 0.682658 0.394824
vt 0.897397 0.427060
vt 0.871557 0.377129
vt 0.938905 0.012315
vt 0.877453 0.396360
vt 0.781634 0.062527
vt 0.975013 0.042497
vt 0.929321 0.003466
vt 0.889804 0.365243
vt 0.997707 0.359375
vt 0.218750 0.351562
vt 0.199219 0.347656
vt 0.085938 0.351562
vt 0.128906 0.343750
vt 0.050781 0.848416
vt 0.893020 0.847656
vt 0.820312 0.848416
vt 0.893020 0.695312
vt 0.863281 0.979593
vt 0.847532 0.847656
vt 0.820312 0.848416
vt 0.893020 0.848416
vt 0.893020 1.000000

f 13/13 5/5 14/14
f 5/5 13/13 4/4
f 5/5 15/15 14/14
f 15/15 5/5 6/6
f 4/4 8/8 5/5
f 8/8 4/4 7/7
f 5/5 9/9 6/6
f 9/9 5/5 8/8
f 10/10 11/11 16/16
f 11/11 12/12 16/16
f 1/1 14/14 2/2
f 14/14 1/1 13/13
f 14/14 3/3 2/2
f 3/3 14/14 15/15
f 10/10 8/8 7/7
f 8/8 10/10 16/16
f 8/8 12/12 9/9
f 12/12 8/8 16/16
f 29/29 21/21 30/30
f 21/21 29/29 20/20
f 21/21 31/31 30/30
f 31/31 21/21 22/22
f 20/20 24/24 21/21
f 24/24 20/20 23/23
f 21/21 25/25 22/22
f 25/25 21/21 24/24
f 26/26 27/27 32/32
f 27/27 28/28 32/32
f 17/17 30/30 18/18
f 30/30 17/17 29/29
f 30/30 19/19 18/18
f 19/19 30/30 31/31
f 26/26 24/24 23/23
f 24/24 26/26 32/32
f 24/24 28/28 25/25
f 28/28 24/24 32/32
f 41/41 38/38 43/43
f 38/38 41/41 34/34
f 41/41 35/35 34/34
f 35/35 41/41 42/42
f 36/36 37/37 39/39
f 43/43 33/33 40/40
f 33/33 43/43 38/38
f 42/42 37/37 35/35
f 37/37 42/42 39/39
f 56/56 57/57 48/48
f 48/48 47/47 56/56
f 48/48 57/57 58/58
f 58/58 49/49 48/48
f 47/47 48/48 51/51
f 51/51 50/50 47/47
f 48/48 49/49 52/52
f 52/52 51/51 48/48
f 53/53 59/59 54/54
f 54/54 59/59 55/55
f 44/44 45/45 57/57
f 57/57 56/56 44/44
f 57/57 45/45 46/46
f 46/46 58/58 57/57
f 53/53 50/50 51/51
f 51/51 59/59 53/53
f 51/51 52/52 55/55
f 55/55 59/59 51/51
f 72/72 73/73 64/64
f 64/64 63/63 72/72
f 64/64 73/73 74/74
f 74/74 65/65 64/64
f 63/63 64/64 67/67
f 67/67 66/66 63/63
f 64/64 65/65 68/68
f 68/68 67/67 64/64
f 69/69 75/75 70/70
f 70/70 75/75 71/71
f 60/60 61/61 73/73
f 73/73 72/72 60/60
f 73/73 61/61 62/62
f 62/62 74/74 73/73
f 69/69 66/66 67/67
f 67/67 75/75 69/69
f 67/67 68/68 71/71
f 71/71 75/75 67/67
f 81/81 82/82 80/80
f 80/80 77/77 81/81
f 81/81 77/77 78/78
f 78/78 83/83 81/81
f 84/84 85/85 79/79
f 82/82 86/86 76/76
f 76/76 80/80 82/82
f 83/83 78/78 79/79
f 79/79 85/85 83/83
f 108/108 107/107 106/106
f 105/105 106/106 107/107
f 105/105 107/107 89/89
f 91/91 89/89 107/107
f 106/106 90/90 108/108
f 92/92 108/108 90/90
f 126/126 120/120 96/96
f 102/102 123/123 124/124
f 112/112 115/115 97/97
f 116/116 113/113 114/114
f 116/116 119/119 112/112
f 122/122 102/102 103/103
f 102/102 122/122 123/123
f 122/122 131/131 113/113
f 460/460 461/461 110/110
f 96/96 104/104 87/87
f 104/104 96/96 120/120
f 116/116 123/123 113/113
f 122/122 113/113 123/123
f 124/124 98/98 99/99
f 119/119 115/115 112/112
f 121/121 120/120 127/127
f 123/123 116/116 112/112
f 112/112 124/124 123/123
f 110/110 115/115 119/119
f 88/88 124/124 99/99
f 125/125 129/129 109/109
f 114/114 113/113 131/131
f 131/131 111/111 114/114
f 128/128 95/95 129/129
f 128/128 93/93 94/94
f 128/128 130/130 126/126
f 126/126 130/130 127/127
f 94/94 95/95 128/128
f 93/93 128/128 126/126
f 130/130 111/111 127/127
f 131/131 127/127 111/111
f 127/127 120/120 126/126
f 121/121 131/131 122/122
f 125/125 109/109 117/117
f 131/131 121/121 127/127
f 96/96 93/93 126/126
f 103/103 121/121 122/122
f 121/121 103/103 101/101
f 101/101 120/120 121/121
f 120/120 101/101 104/104
f 115/115 110/110 100/100
f 124/124 88/88 102/102
f 97/97 98/98 112/112
f 461/461 100/100 110/110
f 98/98 124/124 112/112
f 100/100 97/97 115/115
f 117/117 114/114 111/111
f 95/95 462/462 129/129
f 463/463 129/129 462/462
f 463/463 109/109 129/129
f 109/109 463/463 464/464
f 464/464 118/118 109/109
f 465/465 460/460 110/110
f 140/140 141/141 466/466
f 466/466 467/467 140/140
f 468/468 469/469 470/470
f 470/470 142/142 468/468
f 144/144 142/142 470/470
f 471/471 146/146 143/143
f 143/143 472/472 471/471
f 471/471 473/473 139/139
f 472/472 143/143 474/474
f 139/139 146/146 471/471
f 466/466 139/139 473/473
f 470/470 474/474 144/144
f 466/466 141/141 139/139
f 144/144 474/474 143/143
f 143/143 147/147 144/144
f 145/145 139/139 141/141
f 147/147 143/143 146/146
f 146/146 145/145 147/147
f 145/145 146/146 139/139
f 148/148 103/103 102/102
f 150/150 151/151 87/87
f 153/153 150/150 104/104
f 152/152 102/102 88/88
f 132/132 148/148 133/133
f 148/148 132/132 149/149
f 134/134 149/149 132/132
f 150/150 135/135 151/151
f 153/153 136/136 150/150
f 153/153 149/149 134/134
f 135/135 150/150 136/136
f 152/152 137/137 133/133
f 133/133 148/148 152/152
f 138/138 151/151 135/135
f 150/150 87/87 104/104
f 153/153 101/101 103/103
f 148/148 149/149 103/103
f 148/148 102/102 152/152
f 134/134 136/136 153/153
f 149/149 153/153 103/103
f 153/153 104/104 101/101
f 154/154 133/133 155/155
f 133/133 154/154 132/132
f 155/155 137/137 156/156
f 137/137 155/155 133/133
f 157/157 132/132 154/154
f 132/132 157/157 134/134
f 159/159 138/138 158/158
f 135/135 158/158 138/138
f 158/158 136/136 160/160
f 136/136 158/158 135/135
f 160/160 136/136 157/157
f 134/134 157/157 136/136
f 164/164 167/167 166/166
f 475/475 163/163 168/168
f 167/167 164/164 162/162
f 163/163 169/169 168/168
f 166/166 163/163 164/164
f 475/475 168/168 170/170
f 170/170 165/165 475/475
f 163/163 166/166 169/169
f 167/167 162/162 171/171
f 476/476 171/171 162/162
f 477/477 172/172 478/478
f 479/479 172/172 480/480
f 480/480 172/172 481/481
f 482/482 172/172 479/479
f 483/483 172/172 477/477
f 484/484 485/485 486/486
f 487/487 486/486 488/488
f 489/489 487/487 488/488
f 485/485 488/488 486/486
f 173/173 155/155 174/174
f 155/155 173/173 154/154
f 174/174 156/156 175/175
f 156/156 174/174 155/155
f 176/176 154/154 173/173
f 154/154 176/176 157/157
f 161/161 160/160 177/177
f 160/160 161/161 158/158
f 177/177 157/157 176/176
f 157/157 177/177 160/160
f 191/191 185/185 204/204
f 192/192 188/188 201/201
f 187/187 203/203 186/186
f 203/203 187/187 202/202
f 184/184 190/190 191/191
f 190/190 184/184 200/200
f 188/188 190/190 200/200
f 190/190 188/188 192/192
f 201/201 189/189 192/192
f 204/204 184/184 191/191
f 197/197 189/189 187/187
f 189/189 197/197 196/196
f 193/193 191/191 190/190
f 191/191 193/193 195/195
f 192/192 193/193 190/190
f 193/193 192/192 194/194
f 199/199 178/178 181/181
f 178/178 199/199 195/195
f 490/490 198/198 186/186
f 198/198 490/490 491/491
f 187/187 198/198 197/197
f 198/198 187/187 186/186
f 189/189 194/194 192/192
f 182/182 196/196 180/180
f 196/196 182/182 194/194
f 196/196 194/194 189/189
f 185/185 191/191 195/195
f 194/194 182/182 193/193
f 178/178 193/193 182/182
f 195/195 199/199 185/185
f 195/195 193/193 178/178
f 197/197 180/180 196/196
f 180/180 197/197 183/183
f 183/183 197/197 198/198
f 198/198 179/179 183/183
f 492/492 198/198 491/491
f 198/198 492/492 179/179
f 201/201 187/187 189/189
f 493/493 490/490 186/186
f 202/202 187/187 201/201
f 493/493 186/186 203/203
f 230/230 229/229 217/217
f 212/212 223/223 215/215
f 224/224 214/214 213/213
f 213/213 219/219 224/224
f 208/208 214/214 231/231
f 224/224 220/220 214/214
f 225/225 223/223 227/227
f 226/226 216/216 223/223
f 221/221 222/222 218/218
f 218/218 222/222 494/494
f 184/184 221/221 220/220
f 220/220 200/200 184/184
f 203/203 225/225 493/493
f 219/219 202/202 201/201
f 188/188 200/200 224/224
f 220/220 224/224 200/200
f 221/221 184/184 204/204
f 226/226 223/223 225/225
f 225/225 227/227 495/495
f 217/217 495/495 227/227
f 227/227 223/223 212/212
f 208/208 228/228 211/211
f 213/213 216/216 219/219
f 220/220 221/221 218/218
f 218/218 208/208 231/231
f 228/228 218/218 494/494
f 216/216 215/215 223/223
f 188/188 224/224 219/219
f 219/219 216/216 226/226
f 208/208 218/218 228/228
f 494/494 496/496 228/228
f 212/212 230/230 227/227
f 230/230 217/217 227/227
f 210/210 212/212 215/215
f 216/216 207/207 205/205
f 207/207 214/214 209/209
f 206/206 215/215 205/205
f 215/215 206/206 210/210
f 213/213 207/207 216/216
f 214/214 207/207 213/213
f 208/208 209/209 214/214
f 216/216 205/205 215/215
f 188/188 219/219 201/201
f 202/202 226/226 225/225
f 219/219 226/226 202/202
f 225/225 203/203 202/202
f 204/204 222/222 221/221
f 493/493 225/225 495/495
f 218/218 231/231 220/220
f 231/231 214/214 220/220
f 238/238 141/141 140/140
f 140/140 239/239 238/238
f 497/497 468/468 142/142
f 142/142 241/241 497/497
f 240/240 144/144 242/242
f 147/147 242/242 144/144
f 144/144 240/240 142/142
f 241/241 142/142 240/240
f 243/243 145/145 141/141
f 141/141 238/238 243/243
f 145/145 243/243 242/242
f 242/242 147/147 145/145
f 256/256 257/257 258/258
f 255/255 246/246 244/244
f 241/241 250/250 498/498
f 253/253 248/248 254/254
f 242/242 245/245 248/248
f 250/250 241/241 240/240
f 252/252 259/259 260/260
f 242/242 248/248 240/240
f 246/246 255/255 254/254
f 244/244 246/246 247/247
f 241/241 498/498 497/497
f 242/242 243/243 245/245
f 247/247 245/245 243/243
f 247/247 239/239 244/244
f 243/243 238/238 247/247
f 247/247 246/246 245/245
f 247/247 238/238 239/239
f 248/248 253/253 252/252
f 235/235 262/262 261/261
f 249/249 240/240 248/248
f 240/240 249/249 250/250
f 251/251 260/260 499/499
f 251/251 250/250 249/249
f 250/250 251/251 500/500
f 252/252 249/249 248/248
f 249/249 252/252 251/251
f 253/253 262/262 259/259
f 254/254 245/245 246/246
f 254/254 248/248 245/245
f 255/255 258/258 261/261
f 500/500 498/498 250/250
f 244/244 256/256 255/255
f 257/257 232/232 258/258
f 258/258 232/232 233/233
f 499/499 500/500 251/251
f 259/259 236/236 260/260
f 260/260 236/236 234/234
f 259/259 252/252 253/253
f 261/261 254/254 255/255
f 262/262 253/253 261/261
f 261/261 253/253 254/254
f 260/260 234/234 499/499
f 499/499 234/234 501/501
f 260/260 251/251 252/252
f 262/262 237/237 259/259
f 259/259 237/237 236/236
f 235/235 237/237 262/262
f 258/258 233/233 261/261
f 261/261 233/233 235/235
f 258/258 255/255 256/256
f 263/263 265/265 264/264
f 266/266 268/268 267/267
f 269/269 267/267 270/270
f 274/274 502/502 268/268
f 265/265 272/272 271/271
f 265/265 273/273 264/264
f 268/268 273/273 267/267
f 267/267 273/273 270/270
f 502/502 273/273 268/268
f 271/271 273/273 265/265
f 275/275 477/477 478/478
f 276/276 479/479 480/480
f 277/277 480/480 481/481
f 503/503 482/482 479/479
f 477/477 278/278 483/483
f 279/279 281/281 280/280
f 282/282 284/284 283/283
f 285/285 283/283 286/286
f 287/287 504/504 284/284
f 281/281 289/289 288/288
f 281/281 290/290 280/280
f 284/284 290/290 283/283
f 283/283 290/290 505/505
f 504/504 290/290 284/284
f 288/288 290/290 281/281
f 298/298 296/296 297/297
f 295/295 297/297 296/296
f 295/295 506/506 297/297
f 507/507 297/297 506/506
f 296/296 298/298 508/508
f 509/509 508/508 298/298
f 316/316 510/510 310/310
f 292/292 314/314 313/313
f 302/302 511/511 305/305
f 306/306 304/304 303/303
f 306/306 302/302 309/309
f 312/312 293/293 292/292
f 292/292 313/313 312/312
f 312/312 303/303 321/321
f 512/512 300/300 513/513
f 510/510 514/514 294/294
f 294/294 310/310 510/510
f 306/306 303/303 313/313
f 312/312 313/313 303/303
f 314/314 515/515 516/516
f 309/309 302/302 305/305
f 311/311 317/317 310/310
f 313/313 302/302 306/306
f 302/302 313/313 314/314
f 300/300 309/309 305/305
f 517/517 515/515 314/314
f 315/315 299/299 319/319
f 304/304 321/321 303/303
f 321/321 304/304 301/301
f 318/318 319/319 518/518
f 318/318 519/519 520/520
f 318/318 316/316 320/320
f 316/316 317/317 320/320
f 519/519 318/318 518/518
f 520/520 316/316 318/318
f 320/320 317/317 301/301
f 321/321 301/301 317/317
f 317/317 316/316 310/310
f 311/311 312/312 321/321
f 315/315 307/307 299/299
f 321/321 317/317 311/311
f 510/510 316/316 520/520
f 293/293 312/312 311/311
f 311/311 291/291 293/293
f 291/291 311/311 310/310
f 310/310 294/294 291/291
f 305/305 521/521 300/300
f 314/314 292/292 517/517
f 511/511 302/302 516/516
f 513/513 300/300 521/521
f 516/516 302/302 314/314
f 521/521 305/305 511/511
f 307/307 301/301 304/304
f 518/518 319/319 522/522
f 523/523 522/522 319/319
f 523/523 319/319 299/299
f 299/299 524/524 523/523
f 524/524 299/299 308/308
f 525/525 300/300 512/512
f 328/328 526/526 329/329
f 526/526 328/328 527/527
f 528/528 529/529 530/530
f 529/529 528/528 330/330
f 332/332 529/529 330/330
f 531/531 331/331 334/334
f 331/331 531/531 532/532
f 531/531 327/327 533/533
f 532/532 534/534 331/331
f 327/327 531/531 334/334
f 526/526 533/533 327/327
f 529/529 332/332 534/534
f 526/526 327/327 329/329
f 332/332 331/331 534/534
f 331/331 332/332 335/335
f 333/333 329/329 327/327
f 335/335 334/334 331/331
f 334/334 335/335 333/333
f 333/333 327/327 334/334
f 336/336 292/292 293/293
f 338/338 514/514 535/535
f 339/339 294/294 338/338
f 536/536 517/517 292/292
f 322/322 323/323 336/336
f 336/336 337/337 322/322
f 324/324 322/322 337/337
f 338/338 535/535 325/325
f 339/339 338/338 326/326
f 339/339 324/324 337/337
f 325/325 326/326 338/338
f 536/536 323/323 537/537
f 323/323 536/536 336/336
f 538/538 325/325 535/535
f 338/338 294/294 514/514
f 339/339 293/293 291/291
f 336/336 293/293 337/337
f 336/336 536/536 292/292
f 324/324 339/339 326/326
f 337/337 293/293 339/339
f 339/339 291/291 294/294
f 340/340 341/341 323/323
f 323/323 322/322 340/340
f 341/341 539/539 537/537
f 537/537 323/323 341/341
f 342/342 340/340 322/322
f 322/322 324/324 342/342
f 540/540 343/343 538/538
f 325/325 538/538 343/343
f 343/343 344/344 326/326
f 326/326 325/325 343/343
f 344/344 342/342 326/326
f 324/324 326/326 342/342
f 348/348 349/349 350/350
f 541/541 351/351 347/347
f 350/350 346/346 348/348
f 347/347 351/351 352/352
f 349/349 348/348 347/347
f 541/541 542/542 351/351
f 542/542 541/541 543/543
f 347/347 352/352 349/349
f 350/350 544/544 346/346
f 545/545 346/346 544/544
f 546/546 547/547 548/548
f 549/549 550/550 548/548
f 550/550 551/551 548/548
f 552/552 549/549 548/548
f 553/553 546/546 548/548
f 554/554 555/555 556/556
f 557/557 558/558 555/555
f 559/559 558/558 557/557
f 556/556 555/555 558/558
f 353/353 354/354 341/341
f 341/341 340/340 353/353
f 354/354 560/560 539/539
f 539/539 341/341 354/354
f 355/355 353/353 340/340
f 340/340 342/342 355/355
f 345/345 356/356 344/344
f 344/344 343/343 345/345
f 356/356 355/355 342/342
f 342/342 344/344 356/356
f 370/370 383/383 364/364
f 371/371 380/380 367/367
f 366/366 365/365 382/382
f 382/382 381/381 366/366
f 363/363 370/370 369/369
f 369/369 379/379 363/363
f 367/367 379/379 369/369
f 369/369 371/371 367/367
f 380/380 371/371 368/368
f 383/383 370/370 363/363
f 376/376 366/366 368/368
f 368/368 375/375 376/376
f 372/372 369/369 370/370
f 370/370 374/374 372/372
f 371/371 369/369 372/372
f 372/372 373/373 371/371
f 378/378 360/360 357/357
f 357/357 374/374 378/378
f 561/561 365/365 377/377
f 377/377 562/562 561/561
f 366/366 376/376 377/377
f 377/377 365/365 366/366
f 368/368 371/371 373/373
f 361/361 359/359 375/375
f 375/375 373/373 361/361
f 375/375 368/368 373/373
f 364/364 374/374 370/370
f 373/373 372/372 361/361
f 357/357 361/361 372/372
f 374/374 364/364 378/378
f 374/374 357/357 372/372
f 376/376 375/375 359/359
f 359/359 362/362 376/376
f 362/362 377/377 376/376
f 377/377 362/362 358/358
f 563/563 562/562 377/377
f 377/377 358/358 563/563
f 380/380 368/368 366/366
f 564/564 365/365 561/561
f 381/381 380/380 366/366
f 564/564 382/382 365/365
f 565/565 393/393 566/566
f 567/567 391/391 399/399
f 400/400 389/389 390/390
f 389/389 400/400 395/395
f 387/387 404/404 390/390
f 400/400 390/390 396/396
f 401/401 403/403 399/399
f 402/402 399/399 392/392
f 397/397 394/394 398/398
f 394/394 568/568 398/398
f 363/363 396/396 397/397
f 396/396 363/363 379/379
f 382/382 564/564 401/401
f 395/395 380/380 381/381
f 367/367 400/400 379/379
f 396/396 379/379 400/400
f 397/397 383/383 363/363
f 402/402 401/401 399/399
f 401/401 569/569 403/403
f 393/393 403/403 569/569
f 403/403 567/567 399/399
f 387/387 570/570 571/571
f 389/389 395/395 392/392
f 396/396 394/394 397/397
f 394/394 404/404 387/387
f 571/571 568/568 394/394
f 392/392 399/399 391/391
f 367/367 395/395 400/400
f 395/395 402/402 392/392
f 387/387 571/571 394/394
f 568/568 571/571 572/572
f 567/567 403/403 565/565
f 565/565 403/403 393/393
f 573/573 391/391 567/567
f 392/392 384/384 386/386
f 386/386 388/388 390/390
f 385/385 384/384 391/391
f 391/391 573/573 385/385
f 389/389 392/392 386/386
f 390/390 389/389 386/386
f 387/387 390/390 388/388
f 392/392 391/391 384/384
f 367/367 380/380 395/395
f 381/381 401/401 402/402
f 395/395 381/381 402/402
f 401/401 381/381 382/382
f 383/383 397/397 398/398
f 564/564 569/569 401/401
f 394/394 396/396 404/404
f 404/404 396/396 390/390
f 411/411 328/328 329/329
f 328/328 411/411 412/412
f 574/574 330/330 528/528
f 330/330 574/574 414/414
f 413/413 415/415 332/332
f 335/335 332/332 415/415
f 332/332 330/330 413/413
f 414/414 413/413 330/330
f 416/416 329/329 333/333
f 329/329 416/416 411/411
f 333/333 415/415 416/416
f 415/415 333/333 335/335
f 429/429 431/431 430/430
f 428/428 417/417 419/419
f 414/414 575/575 423/423
f 426/426 427/427 421/421
f 415/415 421/421 418/418
f 423/423 413/413 414/414
f 425/425 433/433 432/432
f 415/415 413/413 421/421
f 419/419 427/427 428/428
f 417/417 420/420 419/419
f 414/414 574/574 575/575
f 415/415 418/418 416/416
f 420/420 416/416 418/418
f 420/420 417/417 412/412
f 416/416 420/420 411/411
f 420/420 418/418 419/419
f 420/420 412/412 411/411
f 421/421 425/425 426/426
f 408/408 434/434 435/435
f 422/422 421/421 413/413
f 413/413 423/423 422/422
f 424/424 576/576 433/433
f 424/424 422/422 423/423
f 423/423 577/577 424/424
f 425/425 421/421 422/422
f 422/422 424/424 425/425
f 426/426 432/432 435/435
f 427/427 419/419 418/418
f 427/427 418/418 421/421
f 428/428 434/434 431/431
f 577/577 423/423 575/575
f 417/417 428/428 429/429
f 430/430 431/431 405/405
f 431/431 406/406 405/405
f 576/576 424/424 577/577
f 432/432 433/433 409/409
f 433/433 407/407 409/409
f 432/432 426/426 425/425
f 434/434 428/428 427/427
f 435/435 434/434 426/426
f 434/434 427/427 426/426
f 433/433 576/576 407/407
f 576/576 578/578 407/407
f 433/433 425/425 424/424
f 435/435 432/432 410/410
f 432/432 409/409 410/410
f 408/408 435/435 410/410
f 431/431 434/434 406/406
f 434/434 408/408 406/406
f 431/431 429/429 428/428
f 436/436 437/437 438/438
f 439/439 440/440 441/441
f 442/442 579/579 440/440
f 444/444 441/441 580/580
f 438/438 581/581 443/443
f 438/438 437/437 582/582
f 441/441 440/440 582/582
f 440/440 579/579 582/582
f 580/580 441/441 582/582
f 581/581 438/438 582/582
f 445/445 547/547 546/546
f 446/446 550/550 549/549
f 447/447 551/551 550/550
f 583/583 549/549 552/552
f 546/546 553/553 448/448
f 449/449 450/450 451/451
f 452/452 453/453 454/454
f 455/455 456/456 453/453
f 457/457 454/454 584/584
f 451/451 585/585 458/458
f 451/451 450/450 459/459
f 454/454 453/453 459/459
f 453/453 586/586 459/459
f 584/584 454/454 459/459
f 585/585 451/451 459/459
