# MOD converted: [r]temple_h_w_clothrobe006.mod
# 605 verts, 561 faces

v 76.786301 -12.120024 -0.000000
v 73.907799 11.140401 0.000000
v 71.171677 -5.939043 0.000000
v 70.360901 0.610696 0.000000
v 70.636642 7.044326 -16.458000
v 73.014008 0.138670 -14.195200
v 72.966904 -6.194990 -9.398400
v 74.447098 10.585200 -14.356300
v 74.059303 5.618498 -9.189460
v 20.484203 -4.618871 -8.996699
v 20.483404 8.895572 -19.047203
v 20.485802 4.294419 -6.671240
v 20.483202 3.588790 -17.271500
v 20.485104 -4.281381 -15.818403
v 20.485001 9.062570 -1.665680
v 70.646599 0.660653 -2.635961
v 71.561203 -5.864998 -17.339800
v 60.885494 1.740327 -9.634030
v 60.585091 -8.788699 -3.599491
v 60.123795 -5.908009 -2.262650
v 59.748997 1.097809 -10.455598
v 70.001801 8.569869 -15.430996
v 60.917095 -6.186741 -5.554139
v 48.629494 -5.419729 -4.895459
v 44.634899 1.578639 -7.014111
v 45.823803 7.658530 -12.921600
v 46.202698 7.492739 -15.246099
v 49.652096 -4.881310 -16.873400
v 45.863098 2.165929 -4.611200
v 60.173401 8.396198 -12.256500
v 60.735001 8.265580 -10.970900
v 45.770500 -7.273840 -6.143131
v 45.318398 -4.985741 -15.306400
v 46.417297 -4.494491 -11.302200
v 42.378899 -6.217441 -15.638998
v 43.370201 -3.694330 -6.830048
v 42.601894 -4.381609 -18.503403
v 35.618698 3.077838 -14.372301
v 35.918503 9.240402 -7.779900
v 35.585098 9.489620 -4.990849
v 34.116600 2.656090 -3.296190
v 69.710503 8.305250 -10.569798
v 49.151695 -7.550949 -16.702101
v 48.443192 2.114960 -12.697800
v 48.166504 7.455450 -6.914860
v 47.551697 7.601020 -4.512320
v 47.441299 1.563498 -8.209988
v 72.508202 -7.909711 -16.098475
v 77.273079 7.042483 -16.076403
v 83.517319 -1.129789 -18.488766
v 77.241791 -1.007840 -14.218628
v 83.933327 5.592466 -0.000000
v 77.130577 14.511824 -7.321951
v 84.237267 9.916222 -9.134991
v 77.241241 12.709430 -0.000000
v 84.384796 11.489539 -15.067996
v 76.879745 -7.472899 -12.718737
v 83.402245 -5.913250 -8.210704
v 76.879745 -11.057599 -7.260521
v 83.731781 -9.555750 0.000000
v 83.429062 -10.581046 -19.910475
v 69.288048 -1.007844 -17.250713
v 69.319328 8.018499 -9.996519
v 69.287491 14.031796 -0.000000
v 69.176819 15.834190 -16.581059
v 68.925987 -8.267956 -9.072229
v 68.925987 -11.852654 0.000000
v 68.826996 -12.916784 -20.756786
v 61.239937 -1.007840 -18.236994
v 61.271225 8.728427 -10.357019
v 61.239391 14.953332 -0.000001
v 61.128716 16.755726 -17.206514
v 60.877884 -8.741200 -9.432734
v 60.877884 -12.325899 -0.000001
v 60.778896 -13.390033 -4.671503
v 60.820969 -13.127542 -4.076185
v 68.864250 -12.706152 -0.000000
v 116.894188 6.252837 -0.000000
v 113.158913 -3.299143 -0.000001
v 123.522461 5.340425 0.000001
v 119.354454 -4.180035 -0.000000
v 108.884354 -7.024356 0.000000
v 111.905304 8.965495 0.000000
v 104.041107 -11.798179 -0.000000
v 84.384796 13.780528 0.000000
v 77.521706 17.652004 -0.000001
v 68.968872 20.263901 0.000000
v 83.429062 -12.478111 -0.000000
v 90.124718 8.897975 0.000000
v 88.679024 -11.287464 0.000000
v 100.749657 -13.663255 -0.000000
v 95.664680 9.255099 -0.000000
v 99.857941 10.440089 0.000000
v 114.746849 11.172858 0.000000
v 122.181679 14.843927 0.000000
v 95.946625 -11.824854 -0.000001
v 106.360641 12.800591 0.000000
v 107.882210 -11.911647 -0.000000
v 99.039543 17.449097 -0.000000
v 91.565147 19.572788 -0.000000
v 89.171509 20.403271 -0.000000
v 85.890305 22.141327 -0.000000
v 83.749374 23.445377 -0.000001
v 105.614471 15.479290 -0.000001
v 110.491684 13.136281 0.000000
v 104.148285 -13.358870 -5.190431
v 116.123787 3.936415 -5.305109
v 113.919006 -0.752674 -5.009030
v 122.611450 2.854044 -4.507280
v 120.603455 -1.682561 -8.773781
v 113.238632 -0.277519 -7.474745
v 113.083359 7.720838 -10.679106
v 109.358627 -2.919649 -8.652481
v 114.816246 4.082657 -12.433300
v 112.928253 -0.652475 -12.825499
v 114.108383 3.992932 -5.972381
v 109.555962 -6.090278 -4.508071
v 105.170525 -12.290723 -8.871487
v 104.868500 -10.954601 -10.209300
v 106.597801 -6.772858 -11.014609
v 106.932846 -8.774920 -4.451615
v 100.910553 -14.444497 -9.801494
v 112.329010 -7.857964 -13.861455
v 105.688667 10.452771 -9.516776
v 89.224350 -6.531751 -5.030433
v 88.803268 -9.653714 -12.408301
v 89.621460 -0.562184 -9.475927
v 95.423294 7.092998 -11.963926
v 95.370262 -0.338075 -9.468871
v 101.118698 -13.035686 -12.043064
v 99.342125 7.537968 -13.134474
v 99.422630 -0.360817 -7.355756
v 99.299194 9.448364 -15.871816
v 115.875763 4.105022 -19.185644
v 115.320343 3.794522 -17.921682
v 113.703644 -1.082830 -16.806501
v 113.349098 8.397743 -17.284113
v 106.474129 9.896426 -14.385693
v 101.008720 7.109639 -14.387106
v 101.090576 -0.263611 -13.980489
v 108.194313 -3.515229 -16.504126
v 106.878700 -2.990006 -26.099535
v 102.521675 12.047357 -23.954515
v 93.231621 9.214717 -17.864962
v 98.449181 7.092107 -20.572041
v 104.641304 10.439341 -24.228294
v 93.516769 -2.547627 -17.915539
v 98.594994 -0.560595 -30.871613
v 108.132660 -4.525056 -31.209061
v 107.727516 10.222576 -23.568073
v 109.551666 8.048775 -23.558903
v 109.403923 -1.483834 -20.855419
v 104.998711 -3.784484 -27.710957
v 101.862160 -7.337272 -41.196152
v 96.133812 7.012991 -40.013020
v 92.082642 4.798075 -33.955055
v 94.026680 5.195427 -28.028696
v 96.174820 5.332085 -30.667217
v 100.487732 7.805361 -35.999298
v 98.469154 7.765431 -28.102594
v 96.281334 -0.066073 -37.946640
v 102.529961 5.537991 -31.629869
v 105.143639 -0.404641 -37.789612
v 102.471413 -0.598052 -31.711241
v 105.333641 5.897243 -39.717010
v 92.052155 -0.133150 -41.289482
v 95.843544 -2.718940 -35.962975
v 98.317070 -2.637074 -28.275763
v 101.753448 13.475497 -43.006660
v 99.954514 -0.787026 -29.952713
v 100.806763 -2.669773 -34.083298
v 93.988594 -0.086186 -19.239027
v 111.206795 -0.539821 -19.361750
v 111.250885 7.898062 -43.106701
v 99.907829 5.195809 -47.274277
v 97.930450 5.048129 -43.985985
v 90.563667 4.652565 -45.726570
v 94.374008 6.712374 -45.364567
v 94.248062 -2.745785 -43.711884
v 90.471207 -0.151553 -47.002281
v 98.115479 -0.862933 -7.598567
v 121.360947 -14.529731 -17.566311
v 122.780548 1.923711 -11.815837
v 122.328651 12.259056 -14.096907
v 122.032021 -8.996955 -9.270405
v 95.150917 -6.922309 -4.703711
v 95.090897 -10.299691 -14.231037
v 114.717690 -3.309499 -9.702857
v 114.718079 9.395507 -3.652593
v 108.659592 -10.928764 -8.319308
v 105.126030 14.876802 -13.660583
v 110.415207 -5.373225 -6.095518
v 113.781151 -11.761567 -11.582850
v 112.794502 1.800254 -14.871801
v 88.364403 18.289661 -7.330359
v 88.124161 19.323591 -14.857029
v 80.974945 20.837477 -9.801868
v 81.143753 22.128082 -14.012881
v 66.265839 27.795595 -2.600424
v 91.380333 19.475275 -5.080225
v 94.124352 18.604813 -3.578832
v 89.037872 20.305752 -3.058019
v 85.756660 22.043814 -1.710777
v 87.514458 21.222969 -8.319600
v 105.769386 12.488612 -14.811482
v 97.567078 15.747377 -7.233922
v 98.448280 17.137117 -14.687612
v 74.679848 23.803493 -11.399799
v 74.731232 24.589521 -8.330078
v 89.857384 6.866069 -31.386248
v 110.646103 3.088312 -24.215782
v 111.240242 3.463972 -19.952682
v 112.991295 3.660013 -8.759094
v 110.476639 11.995770 -15.261475
v 104.595169 13.022374 -4.473492
v 97.159332 -13.762838 -9.372488
v 97.420815 -12.292004 -4.353413
v 104.780136 -13.927935 -9.549541
v 104.623329 -12.276074 -12.279928
v 97.844696 -7.411262 -12.563047
v 102.320457 -8.229080 -17.678717
v 83.517334 -1.376410 -8.073339
v 84.237274 11.932470 -21.354990
v 77.632919 -1.233180 -10.062604
v 77.632378 15.534866 -25.898573
v 69.005386 0.577504 -12.392335
v 68.988876 18.261696 -8.337982
v 47.688179 25.187162 -16.582073
v 39.098160 22.969639 -25.745899
v 58.974766 12.939558 -4.227889
v 58.948570 23.564739 -13.994690
v 83.402252 -7.929440 -17.601721
v 77.270874 -9.197534 -21.099031
v 69.000771 -9.835236 -13.298426
v 68.988541 -13.905842 -28.748764
v 59.007710 -3.586633 -16.309959
v 59.009052 -14.896876 -23.891525
v 51.779804 -10.921071 -25.835585
v 68.997726 -2.586303 -17.742445
v 47.858940 22.041151 -32.014290
v 48.060928 7.036503 -29.770332
v 58.999397 3.545536 -23.730509
v 59.008377 -10.736426 -29.781466
v 39.178360 13.038576 -25.104925
v 30.551031 19.312954 -8.005934
v 83.731781 -11.273775 -11.039831
v 77.270874 -12.473967 -3.688703
v 77.171883 -13.723921 -14.711909
v 72.163559 -11.521020 -10.170299
v 67.375290 -14.904666 -24.845827
v 39.141544 19.401972 -15.640367
v 83.933327 6.519709 -18.732368
v 77.664215 8.222936 -22.270041
v 68.998871 10.377424 -15.432037
v 58.958767 20.395412 -28.206524
v 47.978352 14.719795 16.458000
v 73.014008 0.138658 14.195200
v 72.966904 -6.194990 9.398399
v 74.447098 10.585201 14.356300
v 74.059303 5.618500 9.189459
v 20.484203 -4.618870 8.996699
v 20.483404 8.895572 19.047203
v 20.485806 4.294419 6.671240
v 20.483200 3.588789 17.271500
v 20.485102 -4.281380 15.818401
v 20.485001 9.062570 1.665680
v 70.646599 0.660653 2.635960
v 71.561203 -5.864998 17.339800
v 60.885487 1.740326 9.634028
v 60.585098 -8.788698 3.599490
v 60.123795 -5.908010 2.262650
v 59.748997 1.097806 10.455600
v 70.001801 8.569869 15.430996
v 60.917095 -6.186742 5.554138
v 48.629494 -5.419728 4.895460
v 44.634899 1.578638 7.014111
v 45.823803 7.658531 12.921600
v 46.202698 7.492740 15.246099
v 49.652096 -4.881311 16.873400
v 45.863098 2.165929 4.611199
v 60.173401 8.396199 12.256500
v 60.735001 8.265580 10.970900
v 45.770500 -7.273840 6.143129
v 45.318398 -4.985740 15.306399
v 46.417301 -4.494491 11.302197
v 42.378899 -6.217441 15.638996
v 43.370201 -3.694331 6.830048
v 42.601891 -4.381609 18.503405
v 35.618698 3.077839 14.372302
v 35.918503 9.240402 7.779898
v 35.585098 9.489621 4.990849
v 34.116600 2.656089 3.296191
v 69.710510 8.305250 10.569797
v 49.151699 -7.550950 16.702101
v 48.443192 2.114959 12.697800
v 48.166504 7.455450 6.914860
v 47.551697 7.601021 4.512320
v 47.441299 1.563497 8.209989
v 72.508202 -7.909711 16.098475
v 77.273079 7.042484 16.076403
v 83.517319 -1.129789 18.488766
v 77.241791 -1.007840 14.218628
v 83.933327 5.592466 7.321951
v 84.237267 9.916221 9.134992
v 77.241241 12.709427 15.067996
v 76.879745 -7.472898 12.718740
v 83.402245 -5.913246 8.210704
v 76.879745 -11.057599 7.260519
v 83.731781 -9.555752 19.910475
v 69.288048 -1.007835 17.250715
v 69.319328 8.018499 9.996518
v 69.287491 14.031798 16.581059
v 68.925987 -8.267956 9.072228
v 68.925987 -11.852654 20.756786
v 61.239937 -1.007838 18.236998
v 61.271225 8.728429 10.357021
v 61.239388 14.953334 17.206512
v 60.877880 -8.741202 9.432736
v 60.877884 -12.325899 4.671501
v 60.820972 -13.127543 4.076184
v 68.864250 -12.706153 5.190430
v 116.123787 3.936414 5.305109
v 113.919006 -0.752673 5.009030
v 122.611458 2.854044 4.507280
v 120.603455 -1.682560 8.773781
v 113.236252 -0.280297 7.474745
v 113.086975 7.718484 10.679105
v 109.355759 -2.920120 8.652481
v 114.817131 4.078877 12.433300
v 112.925606 -0.655953 12.825499
v 114.109200 3.988584 5.972381
v 109.555077 -6.090233 4.508072
v 105.170525 -12.290724 8.871490
v 104.868500 -10.954598 10.209302
v 106.596748 -6.772678 11.014612
v 106.931572 -8.774801 4.451615
v 100.910553 -14.444495 9.801496
v 112.319092 -7.860961 13.861453
v 105.691673 10.453238 9.516777
v 89.224350 -6.531749 5.030433
v 88.803268 -9.653714 12.408301
v 89.621460 -0.562182 9.475927
v 95.423294 7.092998 11.963926
v 95.370262 -0.338074 9.468873
v 101.118698 -13.035684 12.043065
v 99.345215 7.542838 13.134474
v 99.420464 -0.356233 7.355756
v 99.299789 9.449187 15.871818
v 115.876877 4.097302 19.185646
v 115.320702 3.790962 17.921682
v 113.702065 -1.085663 16.806503
v 113.351280 8.395177 17.284111
v 106.476898 9.896171 14.385693
v 101.011528 7.113022 14.387106
v 101.088478 -0.260273 13.980489
v 108.193649 -3.515337 16.504128
v 106.876373 -2.990294 26.099537
v 102.521637 12.047356 23.954515
v 93.231590 9.214683 17.864962
v 98.451981 7.096205 20.572039
v 104.641273 10.439342 24.228292
v 93.516800 -2.547660 17.915539
v 98.592705 -0.556588 30.871609
v 108.132683 -4.525026 31.209064
v 107.727478 10.222606 23.568073
v 109.551643 8.048798 23.558905
v 109.403923 -1.483811 20.855415
v 104.998734 -3.784482 27.710960
v 101.862221 -7.337271 41.196152
v 96.133804 7.012990 40.013023
v 92.082642 4.798079 33.955055
v 94.026680 5.195430 28.028700
v 96.174828 5.332082 30.667233
v 100.487770 7.805361 35.999302
v 98.469154 7.765431 28.102594
v 96.281342 -0.066076 37.946640
v 102.529953 5.537987 31.629869
v 105.143639 -0.404639 37.789612
v 102.471413 -0.598055 31.711245
v 105.333656 5.897246 39.717007
v 92.052155 -0.133145 41.289478
v 95.843544 -2.718939 35.962978
v 98.317085 -2.637074 28.275772
v 101.753433 13.475498 43.006660
v 99.954521 -0.787028 29.952713
v 100.806770 -2.669772 34.083298
v 93.988594 -0.086181 19.239027
v 111.205437 -0.541965 19.361752
v 111.252869 7.895883 43.106705
v 99.907829 5.195806 47.274277
v 97.930443 5.048128 43.985985
v 90.563667 4.652568 45.726578
v 94.374016 6.712374 45.364563
v 94.248062 -2.745784 43.711884
v 90.471207 -0.151552 47.002281
v 98.115479 -0.862934 7.598566
v 121.340057 -14.542189 17.566315
v 122.779373 1.905777 11.815839
v 122.339867 12.243882 14.096907
v 122.017761 -9.012714 9.270404
v 95.150917 -6.922309 4.703712
v 95.090897 -10.299690 14.231038
v 114.711975 -3.315780 9.702856
v 114.724075 9.390609 3.652596
v 108.659592 -10.928762 8.319302
v 105.127220 14.877160 13.660583
v 110.414528 -5.373459 6.095518
v 113.775299 -11.762878 11.582850
v 112.793686 1.797073 14.871803
v 88.364403 18.289661 7.330358
v 88.124161 19.323591 14.857029
v 80.974945 20.837477 9.801868
v 81.143753 22.128082 14.012880
v 66.265839 27.795595 2.600423
v 91.380333 19.475275 5.080225
v 94.124352 18.604813 3.578831
v 89.037872 20.305752 3.058018
v 85.756660 22.043814 1.710779
v 87.514458 21.222967 8.319600
v 105.772041 12.489429 14.811482
v 97.567078 15.747379 7.233923
v 98.448280 17.137117 14.687613
v 74.679848 23.803492 11.399798
v 74.731232 24.589521 8.330078
v 89.857384 6.866069 31.386248
v 110.646103 3.088354 24.215782
v 111.240242 3.464005 19.952682
v 112.991600 3.657158 8.759095
v 110.479164 11.995410 15.261479
v 104.596176 13.022539 4.473493
v 97.159332 -13.762838 9.372487
v 97.420815 -12.292004 4.353414
v 104.780136 -13.927935 9.549542
v 104.623329 -12.276073 12.279928
v 97.844696 -7.411263 12.563050
v 102.320442 -8.229076 17.678717
v 83.517334 -1.376406 8.073339
v 84.237274 11.932470 21.354990
v 77.632919 -1.233180 10.062604
v 77.632378 15.534869 25.898573
v 69.005386 0.577504 12.392335
v 68.988876 18.261700 8.337984
v 47.688175 25.187159 16.582069
v 39.098160 22.969641 25.745899
v 58.974762 12.939558 4.227889
v 58.948570 23.564735 13.994690
v 83.402245 -7.929437 17.601725
v 77.270874 -9.197528 21.099028
v 69.000763 -9.835240 13.298429
v 68.988541 -13.905839 28.748764
v 59.007710 -3.586637 16.309959
v 59.009052 -14.896876 23.891525
v 51.779804 -10.921069 25.835581
v 68.997726 -2.586308 17.742449
v 47.858940 22.041155 32.014286
v 48.060928 7.036503 29.770329
v 58.999401 3.545536 23.730509
v 59.008381 -10.736424 29.781466
v 39.178360 13.038581 25.104923
v 30.551031 19.312956 8.005934
v 83.731781 -11.273776 11.039828
v 77.270874 -12.473967 3.688704
v 77.171883 -13.723921 14.711909
v 72.163559 -11.521020 10.170300
v 67.375290 -14.904665 24.845825
v 39.141544 19.401972 15.640368
v 83.933327 6.519708 18.732367
v 77.664215 8.222934 22.270039
v 68.998871 10.377423 15.432037
v 58.958767 20.395412 28.206524
v 47.978352 14.719796 -1.631514
v 111.555626 -5.052198 -0.000000
v 109.695290 -6.549708 -0.000000
v 112.131378 -5.633969 1.631514
v 111.555626 -5.052198 -1.665680
v 70.646599 0.660653 -4.512320
v 47.441299 1.563498 -4.895459
v 44.634899 1.578639 -4.990849
v 34.116600 2.656090 -2.262650
v 59.748997 1.097809 -6.671240
v 20.483202 3.588790 0.000000
v 70.360901 0.610696 -15.871816
v 115.875763 4.105022 -19.185644
v 115.320343 3.794522 -8.759094
v 110.476639 11.995770 -16.806501
v 113.349098 8.397743 -13.861455
v 105.688667 10.452771 -12.043064
v 99.342125 7.537968 -12.043064
v 99.342125 7.537968 -14.385693
v 101.008720 7.109639 -13.134474
v 99.422630 -0.360817 -17.864962
v 98.449181 7.092107 -23.954515
v 93.231621 9.214717 -28.028696
v 96.174820 5.332085 -16.806501
v 113.349098 8.397743 -17.921682
v 113.703644 -1.082830 -19.185644
v 115.320343 3.794522 -40.013020
v 92.082642 4.798075 -33.955055
v 94.026680 5.195427 -43.985985
v 90.563667 4.652565 -17.566311
v 122.780548 1.923711 -13.980489
v 108.194313 -3.515229 -10.679106
v 109.358627 -2.919649 -6.095518
v 113.781151 -11.761567 -7.598567
v 121.360947 -14.529731 -14.096907
v 122.032021 -8.996955 -17.566311
v 122.780548 1.923711 0.000000
v 111.905304 8.965495 -7.474745
v 113.083359 7.720838 -11.815837
v 122.328651 12.259056 0.000000
v 122.181679 14.843927 -4.508071
v 105.170525 -12.290723 -3.652593
v 108.659592 -10.928764 0.000000
v 104.041107 -11.798179 0.000000
v 107.882210 -11.911647 -0.000001
v 110.491684 13.136281 -8.005934
v 83.731781 -11.273775 0.000000
v 88.679024 -11.287464 -11.039831
v 77.270874 -12.473967 0.000000
v 70.636642 7.044326 0.000000
v 70.360901 0.610696 -0.000000
v 73.907799 11.140401 1.665680
v 70.646599 0.660653 4.512320
v 47.441299 1.563497 4.895460
v 44.634899 1.578638 4.990849
v 34.116600 2.656089 2.262650
v 59.748997 1.097806 6.671240
v 20.483200 3.588789 0.000000
v 71.171677 -5.939043 0.000000
v 70.360901 0.610696 -0.000000
v 77.130577 14.511824 -0.000000
v 84.384796 11.489539 -0.000000
v 69.176819 15.834190 0.000000
v 68.826996 -12.916784 -0.000000
v 76.786301 -12.120024 -0.000001
v 61.128716 16.755726 -0.000001
v 60.778896 -13.390033 0.000000
v 83.429062 -10.581046 -0.000000
v 116.894188 6.252837 -0.000001
v 123.522461 5.340425 0.000001
v 119.354454 -4.180035 -0.000000
v 113.158913 -3.299143 0.000000
v 104.041107 -11.798179 -0.000000
v 108.884354 -7.024356 0.000000
v 111.905304 8.965495 0.000000
v 104.148285 -13.358870 0.000000
v 100.749657 -13.663255 0.000000
v 95.946625 -11.824854 -0.000000
v 99.857941 10.440089 -0.000000
v 95.664680 9.255099 15.871818
v 115.876877 4.097302 19.185646
v 115.320702 3.790962 8.759095
v 110.479164 11.995410 16.806503
v 113.351280 8.395177 -0.000001
v 106.360641 12.800591 -0.000001
v 110.491684 13.136281 0.000000
v 114.746849 11.172858 13.861453
v 105.691673 10.453238 12.043065
v 99.345215 7.542838 12.043065
v 99.345215 7.542838 13.134474
v 99.420464 -0.356233 14.385693
v 101.011528 7.113022 23.954515
v 93.231590 9.214683 17.864962
v 98.451981 7.096205 28.028700
v 96.174828 5.332082 16.806503
v 113.351280 8.395177 17.921682
v 113.702065 -1.085663 19.185646
v 115.320702 3.790962 40.013023
v 92.082642 4.798079 33.955055
v 94.026680 5.195430 43.985985
v 90.563667 4.652568 0.000000
v 122.181679 14.843927 17.566315
v 122.779373 1.905777 0.000000
v 88.679024 -11.287464 0.000000
v 107.882210 -11.911647 13.980489
v 108.193649 -3.515337 10.679105
v 109.355759 -2.920120 7.598566
v 121.340057 -14.542189 6.095518
v 113.775299 -11.762878 14.096907
v 122.017761 -9.012714 17.566315
v 122.779373 1.905777 0.000000
v 111.905304 8.965495 11.815839
v 122.339867 12.243882 7.474745
v 113.086975 7.718484 0.000000
v 122.181679 14.843927 3.652596
v 108.659592 -10.928762 4.508072
v 105.170525 -12.290724 0.000000
v 107.882210 -11.911647 0.000000
v 104.041107 -11.798179 -0.000001
v 105.614471 15.479290 -0.000000
v 99.039543 17.449097 -0.000000
v 91.565147 19.572788 -0.000000
v 89.171509 20.403271 -0.000000
v 85.890305 22.141327 -0.000000
v 83.749374 23.445377 -0.000001
v 110.491684 13.136281 -0.000000
v 90.124718 8.897975 -0.000000
v 84.384796 13.780528 0.000000
v 77.521706 17.652004 -0.000001
v 68.968872 20.263901 8.005934
v 83.731781 -11.273776 0.000000
v 83.429062 -12.478111 0.000000
v 88.679024 -11.287464 11.039828
v 77.270874 -12.473967 -0.000000
v 113.158913 -3.299143 0.970948

vt 0.206004 0.128635
vt 0.360635 0.417620
vt 0.353492 0.085515
vt 0.310446 0.113353
vt 0.329703 0.265938
vt 0.336513 0.308454
vt 0.339537 0.187615
vt 0.352769 0.229517
vt 0.344142 0.358645
vt 0.002769 0.177073
vt 0.002764 0.254306
vt 0.002731 0.411915
vt 0.002755 0.309066
vt 0.002742 0.218790
vt 0.002739 0.091715
vt 0.302122 0.399178
vt 0.342633 0.257172
vt 0.260399 0.346468
vt 0.262569 0.387466
vt 0.258563 0.429645
vt 0.247760 0.194776
vt 0.319766 0.307102
vt 0.263052 0.373968
vt 0.187213 0.411857
vt 0.154144 0.172217
vt 0.159989 0.212812
vt 0.161877 0.305411
vt 0.191940 0.259151
vt 0.161714 0.156781
vt 0.255092 0.204772
vt 0.258983 0.338540
vt 0.169796 0.371564
vt 0.166091 0.305300
vt 0.170401 0.337122
vt 0.146139 0.302545
vt 0.149359 0.369741
vt 0.147815 0.260000
vt 0.093261 0.215707
vt 0.094541 0.176996
vt 0.094867 0.412307
vt 0.088571 0.142823
vt 0.320697 0.340148
vt 0.191032 0.257926
vt 0.179565 0.211390
vt 0.175413 0.171516
vt 0.171588 0.129554
vt 0.169675 0.350459
vt 0.344370 0.029096
vt 0.072225 0.003535
vt 0.105191 0.029079
vt 0.102906 0.003543
vt 0.072107 0.029079
vt 0.007979 0.003522
vt 0.043727 0.029100
vt 0.042125 0.003497
vt 0.014286 0.029078
vt 0.133287 0.003524
vt 0.134801 0.029071
vt 0.165698 0.003516
vt 0.166098 0.003507
vt 0.202217 0.067938
vt 0.102531 0.067963
vt 0.073171 0.067964
vt 0.040367 0.067948
vt 0.005092 0.067940
vt 0.133112 0.067930
vt 0.164930 0.067907
vt 0.209521 0.104096
vt 0.101593 0.104150
vt 0.074201 0.104145
vt 0.037271 0.104122
vt 0.003293 0.104102
vt 0.133464 0.104087
vt 0.164898 0.104044
vt 0.211941 0.104062
vt 0.191944 0.067916
vt 0.192740 0.811249
vt 0.192879 0.923672
vt 0.202651 0.817055
vt 0.228630 0.903115
vt 0.230658 0.957783
vt 0.206261 0.786166
vt 0.169110 0.994300
vt 0.217052 0.557632
vt 0.578452 0.529514
vt 0.519617 0.485836
vt 0.441359 0.699174
vt 0.087196 0.582248
vt 0.636048 0.988269
vt 0.617426 0.986141
vt 0.754783 0.584898
vt 0.690675 0.580009
vt 0.731126 0.068768
vt 0.776620 0.003216
vt 0.776620 0.984802
vt 0.706063 0.571407
vt 0.800521 0.989666
vt 0.854024 0.256886
vt 0.776620 0.345468
vt 0.776620 0.371222
vt 0.776620 0.419039
vt 0.777124 0.453051
vt 0.776620 0.196188
vt 0.776620 0.568497
vt 0.841178 0.986008
vt 0.802999 0.848016
vt 0.174174 0.892549
vt 0.174936 0.846440
vt 0.220933 0.875549
vt 0.220194 0.895939
vt 0.142537 0.827604
vt 0.138646 0.932674
vt 0.122477 0.858464
vt 0.142883 0.899397
vt 0.115151 0.866112
vt 0.111518 0.945316
vt 0.164809 0.985379
vt 0.184800 0.983283
vt 0.157465 0.959061
vt 0.135649 0.854201
vt 0.825065 0.934231
vt 0.751740 0.880893
vt 0.873738 0.709903
vt 0.801228 0.870574
vt 0.613634 0.927841
vt 0.607426 0.791017
vt 0.610471 0.683962
vt 0.685633 0.788377
vt 0.683888 0.877232
vt 0.752593 0.715775
vt 0.719510 0.787764
vt 0.720704 0.654757
vt 0.727068 0.755221
vt 0.924440 0.729151
vt 0.890777 0.777714
vt 0.865673 0.134414
vt 0.960187 0.099716
vt 0.712376 0.028311
vt 0.706133 0.405796
vt 0.690197 0.337968
vt 0.735536 0.331809
vt 0.710621 0.101952
vt 0.581507 0.010583
vt 0.565133 0.016601
vt 0.665050 0.112882
vt 0.655383 0.402030
vt 0.565133 0.407312
vt 0.646279 0.278291
vt 0.565738 0.153619
vt 0.564619 0.173444
vt 0.655274 0.264346
vt 0.655143 0.317307
vt 0.655154 0.335813
vt 0.565133 0.138691
vt 0.434431 0.081185
vt 0.434431 0.067637
vt 0.471743 0.448013
vt 0.518793 0.130337
vt 0.518793 0.136488
vt 0.471743 0.384564
vt 0.518793 0.188156
vt 0.471743 0.246717
vt 0.518793 0.245946
vt 0.471742 0.184172
vt 0.518793 0.344159
vt 0.434431 0.294085
vt 0.434431 0.295251
vt 0.471743 0.097334
vt 0.560996 0.245922
vt 0.434431 0.299128
vt 0.518793 0.359337
vt 0.471743 0.266551
vt 0.714068 0.166456
vt 0.716772 0.188730
vt 0.434431 0.189851
vt 0.394178 0.091351
vt 0.394178 0.142714
vt 0.394178 0.292940
vt 0.394178 0.335383
vt 0.394178 0.243688
vt 0.394178 0.943020
vt 0.952382 0.796645
vt 0.998391 0.003216
vt 0.895941 0.883296
vt 0.973446 0.864615
vt 0.687857 0.920051
vt 0.691066 0.825776
vt 0.893926 0.068846
vt 0.888766 0.958475
vt 0.866295 0.193883
vt 0.866150 0.828467
vt 0.847323 0.941464
vt 0.894038 0.672353
vt 0.933257 0.373791
vt 0.960187 0.379108
vt 0.855147 0.455747
vt 0.960187 0.458786
vt 0.886421 0.626546
vt 0.960187 0.345668
vt 0.804177 0.315718
vt 0.830493 0.372363
vt 0.813383 0.420210
vt 0.812111 0.394599
vt 0.795788 0.653106
vt 0.800101 0.273591
vt 0.960187 0.268293
vt 0.852215 0.533083
vt 0.960187 0.531169
vt 0.915081 0.691404
vt 0.618071 0.216588
vt 0.565133 0.216611
vt 0.655210 0.216586
vt 0.717134 0.139673
vt 0.873930 0.195211
vt 0.960187 0.926536
vt 0.714214 0.871929
vt 0.712700 0.935996
vt 0.809756 0.876821
vt 0.805104 0.835490
vt 0.719822 0.835498
vt 0.770900 0.796619
vt 0.534761 0.633841
vt 0.557194 0.798768
vt 0.470059 0.614454
vt 0.491452 0.786073
vt 0.383638 0.594323
vt 0.414296 0.462165
vt 0.216207 0.506395
vt 0.110246 0.671605
vt 0.298199 0.475545
vt 0.337520 0.861470
vt 0.544895 0.875042
vt 0.484638 0.894910
vt 0.408637 0.968036
vt 0.432746 0.842838
vt 0.291876 0.996093
vt 0.339294 0.950104
vt 0.237118 0.818468
vt 0.388942 0.551050
vt 0.198892 0.746686
vt 0.162209 0.768612
vt 0.284277 0.926392
vt 0.314575 0.651828
vt 0.084507 0.561645
vt 0.006143 0.931929
vt 0.563664 0.947201
vt 0.506724 0.785969
vt 0.087196 0.888517
vt 0.005170 0.911370
vt 0.087196 0.580928
vt 0.097810 0.716532
vt 0.542113 0.704175
vt 0.475055 0.691104
vt 0.393460 0.572311
vt 0.316546 0.652337
vt 0.181275 0.265938
vt 0.336513 0.308454
vt 0.339537 0.187615
vt 0.352769 0.229517
vt 0.344142 0.358645
vt 0.002769 0.177073
vt 0.002764 0.254306
vt 0.002731 0.411915
vt 0.002755 0.309066
vt 0.002742 0.218790
vt 0.002739 0.091715
vt 0.302122 0.399178
vt 0.342633 0.257172
vt 0.260399 0.346468
vt 0.262569 0.387466
vt 0.258563 0.429645
vt 0.247760 0.194776
vt 0.319766 0.307102
vt 0.263052 0.373968
vt 0.187213 0.411857
vt 0.154144 0.172217
vt 0.159989 0.212812
vt 0.161877 0.305411
vt 0.191940 0.259151
vt 0.161714 0.156781
vt 0.255092 0.204772
vt 0.258983 0.338540
vt 0.169796 0.371564
vt 0.166091 0.305300
vt 0.170401 0.337122
vt 0.146139 0.302545
vt 0.149359 0.369741
vt 0.147815 0.260000
vt 0.093261 0.215707
vt 0.094541 0.176996
vt 0.094867 0.412307
vt 0.088571 0.142823
vt 0.320697 0.340148
vt 0.191032 0.257926
vt 0.179565 0.211390
vt 0.175413 0.171516
vt 0.171588 0.129554
vt 0.169675 0.350459
vt 0.344370 0.029096
vt 0.072225 0.003535
vt 0.105191 0.029079
vt 0.102906 0.003543
vt 0.072107 0.003522
vt 0.043727 0.029100
vt 0.042125 0.029078
vt 0.133287 0.003524
vt 0.134801 0.029071
vt 0.165698 0.003516
vt 0.166098 0.067938
vt 0.102531 0.067963
vt 0.073171 0.067964
vt 0.040367 0.067940
vt 0.133112 0.067930
vt 0.164930 0.104096
vt 0.101593 0.104150
vt 0.074201 0.104145
vt 0.037271 0.104102
vt 0.133464 0.104087
vt 0.164898 0.104062
vt 0.191944 0.067916
vt 0.192740 0.848016
vt 0.174174 0.892549
vt 0.174936 0.846440
vt 0.220933 0.875549
vt 0.220194 0.895939
vt 0.142537 0.827604
vt 0.138646 0.932674
vt 0.122477 0.858464
vt 0.142883 0.899397
vt 0.115151 0.866112
vt 0.111518 0.945316
vt 0.164809 0.985379
vt 0.184800 0.983283
vt 0.157465 0.959061
vt 0.135649 0.854201
vt 0.825065 0.934231
vt 0.751740 0.880893
vt 0.873738 0.709903
vt 0.801228 0.870574
vt 0.613634 0.927841
vt 0.607426 0.791017
vt 0.610471 0.683962
vt 0.685633 0.788377
vt 0.683888 0.877232
vt 0.752593 0.715775
vt 0.719510 0.787764
vt 0.720704 0.654757
vt 0.727068 0.755221
vt 0.924440 0.729151
vt 0.890777 0.777714
vt 0.865673 0.134414
vt 0.960187 0.099716
vt 0.712376 0.028311
vt 0.706133 0.405796
vt 0.690197 0.337968
vt 0.735536 0.331809
vt 0.710621 0.101952
vt 0.581507 0.010583
vt 0.565133 0.016601
vt 0.665050 0.112882
vt 0.655383 0.402030
vt 0.565133 0.407312
vt 0.646279 0.278291
vt 0.565738 0.153619
vt 0.564619 0.173444
vt 0.655274 0.264346
vt 0.655143 0.317307
vt 0.655154 0.335813
vt 0.565133 0.138691
vt 0.434431 0.081185
vt 0.434431 0.067637
vt 0.471743 0.448013
vt 0.518793 0.130337
vt 0.518793 0.136488
vt 0.471743 0.384564
vt 0.518793 0.188156
vt 0.471743 0.246717
vt 0.518793 0.245946
vt 0.471742 0.184172
vt 0.518793 0.344159
vt 0.434431 0.294085
vt 0.434431 0.295251
vt 0.471743 0.097334
vt 0.560996 0.245922
vt 0.434431 0.299128
vt 0.518793 0.359337
vt 0.471743 0.266551
vt 0.714068 0.166456
vt 0.716772 0.188730
vt 0.434431 0.189851
vt 0.394178 0.091351
vt 0.394178 0.142714
vt 0.394178 0.292940
vt 0.394178 0.335383
vt 0.394178 0.243688
vt 0.394178 0.943020
vt 0.952382 0.796645
vt 0.998391 0.003216
vt 0.895941 0.883296
vt 0.973446 0.864615
vt 0.687857 0.920051
vt 0.691066 0.825776
vt 0.893926 0.068846
vt 0.888766 0.958475
vt 0.866295 0.193883
vt 0.866150 0.828467
vt 0.847323 0.941464
vt 0.894038 0.672353
vt 0.933257 0.373791
vt 0.960187 0.379108
vt 0.855147 0.455747
vt 0.960187 0.458786
vt 0.886421 0.626546
vt 0.960187 0.345668
vt 0.804177 0.315718
vt 0.830493 0.372363
vt 0.813383 0.420210
vt 0.812111 0.394599
vt 0.795788 0.653106
vt 0.800101 0.273591
vt 0.960187 0.268293
vt 0.852215 0.533083
vt 0.960187 0.531169
vt 0.915081 0.691404
vt 0.618071 0.216588
vt 0.565133 0.216611
vt 0.655210 0.216586
vt 0.717134 0.139673
vt 0.873930 0.195211
vt 0.960187 0.926536
vt 0.714214 0.871929
vt 0.712700 0.935996
vt 0.809756 0.876821
vt 0.805104 0.835490
vt 0.719822 0.835498
vt 0.770900 0.796619
vt 0.534761 0.633841
vt 0.557194 0.798768
vt 0.470059 0.614454
vt 0.491452 0.786073
vt 0.383638 0.594323
vt 0.414296 0.462165
vt 0.216207 0.506395
vt 0.110246 0.671605
vt 0.298199 0.475545
vt 0.337520 0.861470
vt 0.544895 0.875042
vt 0.484638 0.894910
vt 0.408637 0.968036
vt 0.432746 0.842838
vt 0.291876 0.996093
vt 0.339294 0.950104
vt 0.237118 0.818468
vt 0.388942 0.551050
vt 0.198892 0.746686
vt 0.162209 0.768612
vt 0.284277 0.926392
vt 0.314575 0.651828
vt 0.084507 0.561645
vt 0.006143 0.931929
vt 0.563664 0.947201
vt 0.506724 0.785969
vt 0.087196 0.888517
vt 0.005170 0.911370
vt 0.087196 0.580928
vt 0.097810 0.716532
vt 0.542113 0.704175
vt 0.475055 0.691104
vt 0.393460 0.572311
vt 0.316546 0.652337
vt 0.181275 0.926103
vt 0.054728 0.961897
vt 0.002537 0.961897
vt 0.054986 0.997691
vt 0.054728 0.443686
vt 0.314840 0.415486
vt 0.171545 0.130615
vt 0.152338 0.132851
vt 0.087451 0.112027
vt 0.243433 0.141717
vt 0.002764 0.451328
vt 0.324044 0.069368
vt 0.966008 0.087911
vt 0.994029 0.655317
vt 0.846294 0.737259
vt 0.862894 0.091295
vt 0.742663 0.020228
vt 0.729791 0.492740
vt 0.700021 0.485593
vt 0.682238 0.414486
vt 0.711797 0.482927
vt 0.639721 0.479837
vt 0.565133 0.054846
vt 0.518793 0.169308
vt 0.755905 0.258863
vt 0.752493 0.216456
vt 0.757116 0.396453
vt 0.434431 0.416943
vt 0.471743 0.383453
vt 0.394178 0.003216
vt 0.990815 0.799819
vt 0.808264 0.647911
vt 0.928863 0.624940
vt 0.890153 0.638680
vt 0.859382 0.670679
vt 0.873698 0.708599
vt 0.901638 0.682360
vt 0.991478 0.686196
vt 0.960001 0.730000
vt 0.945246 0.731012
vt 0.995191 0.599164
vt 0.919740 0.609273
vt 0.907606 0.584005
vt 0.907746 0.596557
vt 0.898098 0.153206
vt 0.776620 0.734552
vt 0.005170 0.641144
vt 0.041021 0.819970
vt 0.005170 0.113353
vt 0.329703 0.085515
vt 0.310446 0.128635
vt 0.360635 0.443686
vt 0.314840 0.415486
vt 0.171545 0.130615
vt 0.152338 0.132851
vt 0.087451 0.112027
vt 0.243433 0.141717
vt 0.002764 0.417620
vt 0.353492 0.451328
vt 0.324044 0.029079
vt 0.007979 0.003497
vt 0.014286 0.067948
vt 0.005092 0.067907
vt 0.209521 0.029052
vt 0.206004 0.104122
vt 0.003293 0.104044
vt 0.211941 0.003507
vt 0.202217 0.811249
vt 0.192879 0.817055
vt 0.228630 0.903115
vt 0.230658 0.923672
vt 0.202651 0.994300
vt 0.217052 0.957783
vt 0.206261 0.786166
vt 0.169110 0.986008
vt 0.802999 0.986141
vt 0.754783 0.984802
vt 0.706063 0.580009
vt 0.731126 0.584898
vt 0.690675 0.069368
vt 0.966008 0.087911
vt 0.994029 0.655317
vt 0.846294 0.737259
vt 0.862894 0.571407
vt 0.800521 0.568497
vt 0.841178 0.068768
vt 0.776620 0.091295
vt 0.742663 0.020228
vt 0.729791 0.492740
vt 0.700021 0.414486
vt 0.711797 0.485593
vt 0.682238 0.479837
vt 0.565133 0.482927
vt 0.639721 0.054846
vt 0.518793 0.169308
vt 0.755905 0.258863
vt 0.752493 0.216456
vt 0.757116 0.396453
vt 0.434431 0.416943
vt 0.471743 0.383453
vt 0.394178 0.003216
vt 0.776620 0.003216
vt 0.990815 0.988269
vt 0.617426 0.989666
vt 0.854024 0.799819
vt 0.808264 0.647911
vt 0.928863 0.638680
vt 0.859382 0.624940
vt 0.890153 0.670679
vt 0.873698 0.708599
vt 0.901638 0.682360
vt 0.991478 0.730000
vt 0.945246 0.686196
vt 0.960001 0.731012
vt 0.995191 0.609273
vt 0.907606 0.599164
vt 0.919740 0.596557
vt 0.898098 0.584005
vt 0.907746 0.196188
vt 0.776620 0.256886
vt 0.776620 0.345468
vt 0.776620 0.371222
vt 0.776620 0.419039
vt 0.777124 0.453051
vt 0.776620 0.153206
vt 0.776620 0.582248
vt 0.636048 0.557632
vt 0.578452 0.529514
vt 0.519617 0.485836
vt 0.441359 0.734552
vt 0.005170 0.699174
vt 0.087196 0.641144
vt 0.041021 0.819970
vt 0.005170 0.961897
vt 0.105795 1.000000

f 49/49 50/50 51/51
f 50/50 49/49 52/52
f 53/53 54/54 55/55
f 54/54 53/53 56/56
f 57/57 51/51 50/50
f 50/50 58/58 57/57
f 59/59 57/57 58/58
f 58/58 60/60 59/59
f 54/54 49/49 55/55
f 49/49 54/54 52/52
f 62/62 63/63 49/49
f 49/49 51/51 62/62
f 64/64 65/65 53/53
f 53/53 55/55 64/64
f 66/66 62/62 51/51
f 51/51 57/57 66/66
f 67/67 66/66 57/57
f 57/57 59/59 67/67
f 68/68 77/77 1/1
f 63/63 64/64 55/55
f 55/55 49/49 63/63
f 69/69 70/70 63/63
f 63/63 62/62 69/69
f 71/71 72/72 65/65
f 65/65 64/64 71/71
f 73/73 69/69 62/62
f 62/62 66/66 73/73
f 74/74 73/73 66/66
f 66/66 67/67 74/74
f 75/75 76/76 77/77
f 77/77 68/68 75/75
f 70/70 71/71 64/64
f 64/64 63/63 70/70
f 76/76 74/74 67/67
f 67/67 77/77 76/76
f 77/77 67/67 59/59
f 59/59 1/1 77/77
f 1/1 59/59 60/60
f 60/60 61/61 1/1
f 300/300 302/302 301/301
f 301/301 303/303 300/300
f 531/531 305/305 304/304
f 304/304 532/532 531/531
f 306/306 301/301 302/302
f 301/301 306/306 307/307
f 308/308 307/307 306/306
f 307/307 308/308 309/309
f 304/304 305/305 300/300
f 300/300 303/303 304/304
f 310/310 300/300 311/311
f 300/300 310/310 302/302
f 312/312 531/531 533/533
f 531/531 312/312 305/305
f 313/313 302/302 310/310
f 302/302 313/313 306/306
f 314/314 306/306 313/313
f 306/306 314/314 308/308
f 534/534 535/535 321/321
f 311/311 305/305 312/312
f 305/305 311/311 300/300
f 315/315 311/311 316/316
f 311/311 315/315 310/310
f 317/317 533/533 536/536
f 533/533 317/317 312/312
f 318/318 310/310 315/315
f 310/310 318/318 313/313
f 319/319 313/313 318/318
f 313/313 319/319 314/314
f 537/537 321/321 320/320
f 321/321 537/537 534/534
f 316/316 312/312 317/317
f 312/312 316/316 311/311
f 320/320 314/314 319/319
f 314/314 320/320 321/321
f 321/321 308/308 314/314
f 308/308 321/321 535/535
f 535/535 309/309 308/308
f 309/309 535/535 538/538
f 4/4 5/5 8/8
f 22/22 2/2 6/6
f 18/18 6/6 7/7
f 19/19 23/23 42/42
f 9/9 31/31 17/17
f 21/21 20/20 476/476
f 21/21 17/17 19/19
f 43/43 19/19 47/47
f 30/30 46/46 44/44
f 45/45 18/18 23/23
f 23/23 19/19 33/33
f 24/24 20/20 34/34
f 44/44 28/28 27/27
f 45/45 27/27 30/30
f 22/22 31/31 24/24
f 43/43 24/24 28/28
f 34/34 28/28 44/44
f 34/34 29/29 477/477
f 33/33 24/24 39/39
f 38/38 39/39 35/35
f 37/37 35/35 34/34
f 36/36 34/34 41/41
f 37/37 41/41 478/478
f 479/479 478/478 27/27
f 26/26 27/27 29/29
f 34/34 36/36 14/14
f 36/36 14/14 38/38
f 29/29 36/36 25/25
f 37/37 33/33 36/36
f 35/35 14/14 10/10
f 14/14 35/35 37/37
f 25/25 41/41 480/480
f 480/480 16/16 37/37
f 10/10 35/35 39/39
f 15/15 11/11 481/481
f 11/11 481/481 2/2
f 22/22 42/42 18/18
f 9/9 6/6 17/17
f 20/20 19/19 476/476
f 17/17 3/3 22/22
f 8/8 9/9 44/44
f 29/29 27/27 18/18
f 23/23 28/28 47/47
f 26/26 478/478 31/31
f 9/9 18/18 3/3
f 482/482 476/476 42/42
f 5/5 2/2 42/42
f 16/16 5/5 45/45
f 18/18 28/28 30/30
f 31/31 18/18 47/47
f 46/46 26/26 45/45
f 46/46 30/30 20/20
f 21/21 477/477 480/480
f 30/30 47/47 19/19
f 48/48 17/17 19/19
f 7/7 48/48 108/108
f 108/108 107/107 78/78
f 78/78 80/80 110/110
f 81/81 108/108 79/79
f 108/108 81/81 114/114
f 112/112 107/107 115/115
f 111/111 115/115 116/116
f 112/112 114/114 113/113
f 115/115 111/111 119/119
f 117/117 118/118 84/84
f 118/118 82/82 117/117
f 113/113 111/111 78/78
f 112/112 83/83 117/117
f 111/111 108/108 107/107
f 112/112 78/78 107/107
f 114/114 107/107 118/118
f 117/117 82/82 113/113
f 117/117 119/119 188/188
f 192/192 136/136 106/106
f 106/106 91/91 127/127
f 125/125 127/127 91/91
f 122/122 91/91 131/131
f 128/128 131/131 132/132
f 220/220 186/186 133/133
f 133/133 124/124 93/93
f 92/92 93/93 214/214
f 189/189 137/137 135/135
f 134/134 136/136 188/188
f 136/136 134/134 483/483
f 484/484 137/137 124/124
f 205/205 485/485 486/486
f 124/124 485/485 97/97
f 105/105 485/485 205/205
f 97/97 485/485 189/189
f 214/214 94/94 138/138
f 139/139 487/487 141/141
f 140/140 142/142 488/488
f 487/487 139/139 489/489
f 490/490 491/491 140/140
f 491/491 490/490 125/125
f 186/186 126/126 187/187
f 126/126 186/186 143/143
f 146/146 143/143 147/147
f 147/147 148/148 211/211
f 211/211 212/212 149/149
f 154/154 149/149 150/150
f 143/143 151/151 146/146
f 151/151 143/143 153/153
f 154/154 153/153 155/155
f 156/156 157/157 158/158
f 161/161 147/147 163/163
f 165/165 211/211 154/154
f 147/147 161/161 166/166
f 167/167 168/168 171/171
f 163/163 149/149 169/169
f 159/159 494/494 493/493
f 158/158 147/147 150/150
f 165/165 169/169 494/494
f 143/143 150/150 165/165
f 159/159 169/169 144/144
f 143/143 169/169 167/167
f 170/170 164/164 149/149
f 154/154 171/171 161/161
f 171/171 154/154 160/160
f 159/159 160/160 138/138
f 487/487 495/495 141/141
f 142/142 496/496 173/173
f 496/496 142/142 495/495
f 174/174 138/138 496/496
f 173/173 497/497 174/174
f 174/174 495/495 490/490
f 140/140 490/490 138/138
f 139/139 138/138 142/142
f 153/153 173/173 152/152
f 173/173 153/153 174/174
f 138/138 174/174 212/212
f 212/212 213/213 498/498
f 166/166 172/172 175/175
f 170/170 176/176 175/175
f 155/155 160/160 177/177
f 178/178 177/177 172/172
f 499/499 498/498 179/179
f 180/180 179/179 164/164
f 168/168 167/167 160/160
f 162/162 175/175 181/181
f 179/179 181/181 170/170
f 181/181 176/176 180/180
f 500/500 180/180 168/168
f 172/172 166/166 164/164
f 162/162 164/164 178/178
f 176/176 178/178 157/157
f 160/160 155/155 193/193
f 182/182 193/193 123/123
f 188/188 185/185 183/183
f 134/134 183/183 95/95
f 184/184 94/94 189/189
f 189/189 184/184 96/96
f 90/90 187/187 126/126
f 187/187 90/90 217/217
f 217/217 216/216 218/218
f 218/218 190/190 93/93
f 205/205 124/124 168/168
f 171/171 168/168 164/164
f 163/163 164/164 162/162
f 165/165 162/162 161/161
f 172/172 161/161 171/171
f 168/168 171/171 121/121
f 188/188 123/123 192/192
f 121/121 502/502 192/192
f 502/502 136/136 123/123
f 193/193 190/190 491/491
f 140/140 141/141 503/503
f 506/506 503/503 194/194
f 507/507 194/194 508/508
f 511/511 508/508 509/509
f 510/510 509/509 503/503
f 504/504 503/503 512/512
f 513/513 512/512 206/206
f 215/215 206/206 207/207
f 191/191 207/207 195/195
f 206/206 195/195 197/197
f 195/195 197/197 198/198
f 198/198 197/197 200/200
f 100/100 99/99 207/207
f 206/206 201/201 99/99
f 207/207 201/201 200/200
f 99/99 201/201 202/202
f 200/200 202/202 101/101
f 202/202 204/204 102/102
f 204/204 203/203 101/101
f 203/203 103/103 516/516
f 94/94 214/214 189/189
f 483/483 137/137 215/215
f 137/137 215/215 191/191
f 214/214 191/191 209/209
f 208/208 199/199 92/92
f 92/92 128/128 127/127
f 127/127 210/210 211/211
f 211/211 150/150 212/212
f 212/212 151/151 213/213
f 497/497 173/173 163/163
f 165/165 150/150 96/96
f 216/216 217/217 130/130
f 130/130 219/219 502/502
f 121/121 221/221 220/220
f 217/217 186/186 220/220
f 130/130 217/217 219/219
f 130/130 221/221 121/121
f 219/219 221/221 130/130
f 220/220 221/221 132/132
f 502/502 221/221 252/252
f 252/252 210/210 127/127
f 222/222 127/127 210/210
f 210/210 223/223 232/232
f 125/125 246/246 126/126
f 126/126 90/90 253/253
f 253/253 252/252 224/224
f 224/224 226/226 86/86
f 86/86 85/85 227/227
f 227/227 87/87 255/255
f 255/255 240/240 233/233
f 232/232 233/233 247/247
f 233/233 247/247 234/234
f 233/233 234/234 236/236
f 243/243 238/238 234/234
f 239/239 234/234 231/231
f 231/231 87/87 242/242
f 242/242 241/241 226/226
f 226/226 242/242 235/235
f 234/234 235/235 243/243
f 237/237 238/238 229/229
f 251/251 245/245 517/517
f 518/518 88/88 248/248
f 88/88 248/248 250/250
f 248/248 250/250 251/251
f 244/244 245/245 240/240
f 240/240 251/251 252/252
f 223/223 252/252 225/225
f 225/225 253/253 256/256
f 256/256 240/240 230/230
f 230/230 255/255 256/256
f 256/256 241/241 240/240
f 256/256 251/251 219/219
f 218/218 219/219 190/190
f 121/121 123/123 267/267
f 520/520 521/521 259/259
f 522/522 273/273 257/257
f 257/257 269/269 258/258
f 274/274 270/270 293/293
f 282/282 260/260 268/268
f 271/271 272/272 523/523
f 268/268 272/272 270/270
f 270/270 294/294 298/298
f 297/297 281/281 295/295
f 269/269 296/296 274/274
f 270/270 274/274 284/284
f 271/271 275/275 285/285
f 279/279 295/295 278/278
f 278/278 296/296 281/281
f 282/282 273/273 275/275
f 275/275 294/294 279/279
f 279/279 285/285 295/295
f 280/280 285/285 524/524
f 275/275 284/284 290/290
f 290/290 289/289 286/286
f 286/286 288/288 285/285
f 285/285 287/287 292/292
f 292/292 288/288 525/525
f 525/525 526/526 278/278
f 278/278 277/277 280/280
f 287/287 285/285 265/265
f 265/265 287/287 289/289
f 287/287 280/280 276/276
f 284/284 288/288 287/287
f 265/265 286/286 261/261
f 286/286 265/265 288/288
f 292/292 276/276 527/527
f 267/267 527/527 288/288
f 286/286 261/261 290/290
f 262/262 266/266 528/528
f 528/528 262/262 522/522
f 293/293 273/273 269/269
f 257/257 260/260 268/268
f 270/270 271/271 523/523
f 529/529 268/268 273/273
f 260/260 259/259 295/295
f 278/278 280/280 269/269
f 279/279 274/274 298/298
f 525/525 277/277 282/282
f 269/269 260/260 529/529
f 523/523 530/530 293/293
f 522/522 520/520 293/293
f 520/520 267/267 296/296
f 279/279 269/269 281/281
f 269/269 282/282 298/298
f 277/277 297/297 296/296
f 281/281 297/297 271/271
f 524/524 272/272 527/527
f 298/298 281/281 270/270
f 268/268 299/299 270/270
f 299/299 258/258 323/323
f 322/322 323/323 539/539
f 540/540 539/539 325/325
f 323/323 541/541 542/542
f 541/541 323/323 329/329
f 322/322 327/327 330/330
f 330/330 326/326 331/331
f 329/329 327/327 328/328
f 326/326 330/330 334/334
f 333/333 332/332 543/543
f 544/544 333/333 332/332
f 326/326 328/328 539/539
f 545/545 327/327 332/332
f 323/323 326/326 322/322
f 539/539 327/327 322/322
f 322/322 329/329 333/333
f 544/544 332/332 328/328
f 334/334 332/332 403/403
f 351/351 407/407 546/546
f 547/547 546/546 342/342
f 342/342 340/340 547/547
f 547/547 337/337 346/346
f 346/346 343/343 347/347
f 401/401 435/435 348/348
f 339/339 348/348 549/549
f 549/549 550/550 429/429
f 352/352 404/404 350/350
f 351/351 349/349 403/403
f 349/349 351/351 551/551
f 352/352 552/552 339/339
f 553/553 420/420 554/554
f 553/553 339/339 555/555
f 553/553 556/556 420/420
f 553/553 555/555 404/404
f 557/557 429/429 353/353
f 558/558 354/354 356/356
f 357/357 355/355 559/559
f 354/354 558/558 560/560
f 561/561 562/562 355/355
f 562/562 561/561 340/340
f 341/341 401/401 402/402
f 401/401 341/341 358/358
f 358/358 361/361 362/362
f 363/363 362/362 426/426
f 427/427 426/426 364/364
f 364/364 369/369 365/365
f 366/366 358/358 361/361
f 358/358 366/366 368/368
f 368/368 369/369 370/370
f 372/372 371/371 373/373
f 362/362 376/376 378/378
f 426/426 380/380 369/369
f 376/376 362/362 381/381
f 383/383 382/382 386/386
f 364/364 378/378 384/384
f 565/565 374/374 563/563
f 362/362 373/373 365/365
f 384/384 380/380 565/565
f 365/365 358/358 380/380
f 384/384 374/374 359/359
f 384/384 358/358 382/382
f 379/379 385/385 364/364
f 386/386 369/369 376/376
f 369/369 386/386 375/375
f 375/375 374/374 353/353
f 566/566 558/558 356/356
f 567/567 357/357 388/388
f 357/357 567/567 566/566
f 353/353 389/389 567/567
f 568/568 388/388 389/389
f 566/566 389/389 562/562
f 562/562 355/355 353/353
f 353/353 354/354 357/357
f 388/388 368/368 367/367
f 368/368 388/388 389/389
f 389/389 353/353 427/427
f 428/428 427/427 569/569
f 387/387 381/381 390/390
f 391/391 385/385 390/390
f 375/375 370/370 392/392
f 392/392 393/393 387/387
f 569/569 570/570 394/394
f 394/394 395/395 379/379
f 382/382 383/383 375/375
f 390/390 377/377 396/396
f 396/396 394/394 385/385
f 391/391 396/396 395/395
f 395/395 571/571 383/383
f 381/381 387/387 379/379
f 379/379 377/377 393/393
f 393/393 391/391 372/372
f 370/370 375/375 408/408
f 408/408 397/397 338/338
f 400/400 403/403 398/398
f 398/398 349/349 572/572
f 557/557 399/399 404/404
f 399/399 404/404 548/548
f 402/402 574/574 341/341
f 574/574 402/402 432/432
f 431/431 432/432 433/433
f 405/405 433/433 549/549
f 339/339 420/420 383/383
f 383/383 386/386 379/379
f 379/379 378/378 377/377
f 377/377 380/380 376/376
f 376/376 387/387 386/386
f 386/386 383/383 336/336
f 338/338 403/403 407/407
f 576/576 336/336 407/407
f 351/351 576/576 338/338
f 405/405 408/408 561/561
f 356/356 355/355 577/577
f 577/577 580/580 409/409
f 409/409 581/581 582/582
f 582/582 585/585 584/584
f 584/584 583/583 577/577
f 577/577 579/579 587/587
f 587/587 586/586 421/421
f 421/421 430/430 422/422
f 422/422 406/406 410/410
f 410/410 421/421 412/412
f 412/412 410/410 413/413
f 412/412 413/413 415/415
f 591/591 592/592 422/422
f 416/416 421/421 591/591
f 416/416 422/422 415/415
f 416/416 591/591 417/417
f 417/417 415/415 593/593
f 419/419 417/417 594/594
f 418/418 419/419 593/593
f 595/595 418/418 596/596
f 429/429 557/557 404/404
f 352/352 551/551 430/430
f 430/430 352/352 406/406
f 406/406 429/429 424/424
f 414/414 423/423 550/550
f 343/343 550/550 342/342
f 425/425 342/342 426/426
f 365/365 426/426 427/427
f 366/366 427/427 428/428
f 388/388 568/568 378/378
f 365/365 380/380 548/548
f 432/432 431/431 345/345
f 434/434 345/345 576/576
f 436/436 336/336 435/435
f 401/401 432/432 435/435
f 432/432 345/345 434/434
f 436/436 345/345 336/336
f 436/436 434/434 345/345
f 436/436 435/435 347/347
f 436/436 576/576 467/467
f 425/425 467/467 342/342
f 342/342 437/437 425/425
f 438/438 425/425 447/447
f 461/461 340/340 341/341
f 574/574 341/341 468/468
f 467/467 468/468 439/439
f 441/441 439/439 599/599
f 598/598 599/599 442/442
f 600/600 442/442 470/470
f 455/455 470/470 448/448
f 448/448 447/447 462/462
f 462/462 448/448 449/449
f 449/449 448/448 451/451
f 453/453 458/458 449/449
f 449/449 454/454 446/446
f 600/600 446/446 457/457
f 456/456 457/457 441/441
f 457/457 441/441 450/450
f 450/450 449/449 458/458
f 453/453 452/452 444/444
f 460/460 466/466 601/601
f 602/602 603/603 463/463
f 463/463 602/602 465/465
f 465/465 463/463 466/466
f 460/460 459/459 455/455
f 466/466 455/455 467/467
f 467/467 438/438 440/440
f 468/468 440/440 471/471
f 455/455 471/471 445/445
f 470/470 445/445 471/471
f 456/456 471/471 455/455
f 466/466 471/471 434/434
f 434/434 433/433 405/405
f 338/338 336/336 472/472
f 605/605 474/474 472/472
f 474/474 473/473 475/475
f 474/474 605/605 475/475
