# MOD converted: [r]temple_e_m_metalarmor006.mod
# 725 verts, 169 faces

v 108.838142 -11.981208 10.808138
v 124.211136 -4.527375 34.761665
v 115.517159 -5.241214 30.192247
v 109.946480 -8.000319 22.206230
v 107.194237 -10.837765 29.338308
v 119.331131 -6.931148 26.266323
v 114.073570 -10.710460 25.251022
v 127.100922 -5.713150 11.541361
v 120.651917 -8.793837 25.508774
v 110.392975 -10.526581 27.785673
v 110.806915 -9.769145 31.331505
v 121.447845 3.751352 25.705517
v 129.260849 3.751354 16.563148
v 108.838036 19.483822 10.808140
v 124.211075 12.030016 34.761665
v 115.517097 12.743911 30.192245
v 109.946404 15.502985 22.206232
v 107.194138 18.340389 29.338306
v 119.331055 14.433836 26.266321
v 114.073471 18.213120 25.251019
v 127.100861 13.215852 11.541358
v 120.651833 16.296474 25.508751
v 110.392845 18.029232 27.785671
v 110.806824 17.271805 22.704140
v 122.924484 3.751339 36.360466
v 118.063049 3.751354 12.131512
v 128.106995 3.751330 -0.000002
v 39.789745 -25.796974 0.000001
v 83.769371 -15.971214 -0.034566
v 70.338463 -22.197636 16.120943
v 70.337898 -19.038046 15.225142
v 53.014790 -23.518089 16.829844
v 83.867035 -9.424185 -0.000002
v 94.948196 13.306280 0.007178
v 87.930794 -14.650640 -0.000000
v 121.570335 -8.234433 -0.000003
v 107.164886 16.595745 -0.000002
v 122.810638 10.558615 11.945724
v 89.729500 -8.194750 9.124483
v 125.396400 7.837660 9.500737
v 121.472023 13.313795 8.010796
v 128.738449 -2.017342 8.197801
v 131.440857 6.193584 11.393337
v 95.174995 -8.819910 9.683448
v 115.686340 15.389719 11.160641
v 113.515755 -8.768381 9.535950
v 106.931038 14.781087 6.074533
v 95.652092 -12.520463 15.801566
v 110.793716 0.066561 11.336457
v 100.876137 -10.242475 9.529370
v 100.156639 13.611288 13.845950
v 100.685181 -0.846564 5.115546
v 122.304390 -6.503985 4.491977
v 127.598732 -6.310711 15.000408
v 90.099907 -2.777392 10.158942
v 88.264114 11.670749 13.197189
v 94.904129 -0.634555 8.654198
v 94.942497 11.372345 16.053587
v 90.032440 8.118931 13.773291
v 94.925362 7.891402 14.517198
v 100.290237 8.275127 6.677063
v 89.635696 -12.295075 5.649743
v 119.231697 -9.070150 10.192512
v 119.539444 -5.811804 8.969858
v 123.630264 -1.359243 17.456787
v 121.245598 4.468498 16.984213
v 120.310913 8.611067 5.670835
v 123.374359 -0.391612 6.048803
v 125.619278 5.705256 5.892830
v 119.653084 -5.373683 8.725400
v 121.656319 -0.173219 9.640656
v 123.711296 4.990633 6.169911
v 122.496407 9.656178 5.446338
v 132.238373 4.085623 4.901304
v 130.072693 -1.004994 5.232993
v 126.466339 -0.586986 5.547835
v 128.254349 4.722499 3.741818
v 121.482193 -4.124402 16.915316
v 120.202171 0.016982 13.247159
v 119.703606 -4.136090 11.753896
v 123.339478 0.286015 11.910871
v 124.046066 5.663825 12.704876
v 120.884216 11.648375 13.516003
v 113.963615 -6.758926 12.182532
v 107.972481 -12.204892 7.410782
v 101.013596 -12.929659 7.571804
v 113.224930 -11.438250 23.125479
v 106.155182 0.097559 23.069374
v 106.020081 6.866385 25.678074
v 110.220932 9.332017 25.848698
v 110.339973 -2.356663 28.326500
v 114.496864 0.264850 28.343899
v 114.634781 6.736667 18.071810
v 114.273285 9.940598 18.004612
v 114.406494 -2.296860 21.555925
v 118.722206 7.309237 21.422329
v 118.677643 0.611974 28.039604
v 103.616974 6.027240 28.232998
v 103.764008 0.468869 33.137108
v 111.676987 6.044565 30.670498
v 107.721024 -1.842267 32.970795
v 111.517006 0.175532 29.872009
v 108.091957 8.631843 30.468294
v 102.176994 5.724738 35.256104
v 110.275986 6.031734 33.851303
v 105.701019 8.413059 31.771603
v 106.961990 8.656322 35.131897
v 110.078003 0.107823 32.968910
v 106.255005 -1.954190 30.569500
v 102.282997 0.416039 35.612511
v 98.507797 -0.413595 38.209122
v 102.814018 -3.251087 40.890511
v 106.899002 -0.882850 40.991096
v 106.862000 6.128436 38.138847
v 102.794930 8.740201 35.588402
v 98.507500 5.739021 50.401733
v 100.354172 -0.967652 50.570679
v 100.195770 5.665628 48.243690
v 96.572594 7.533211 45.882904
v 92.817902 5.221569 45.628609
v 92.773102 -0.168908 48.018097
v 96.520874 -3.080011 43.998512
v 99.099701 -3.150116 41.713577
v 95.014877 -0.257826 46.386604
v 103.116943 -0.931774 46.323601
v 103.151329 5.870727 41.697281
v 95.131226 5.431958 43.989685
v 99.192139 8.041213 15.643224
v 110.457298 7.399431 15.069391
v 115.156502 10.887156 15.331284
v 115.221581 -2.549813 10.621562
v 83.786079 -11.995848 -0.034563
v 71.370651 18.671616 16.120939
v 71.370094 16.294729 15.225140
v 54.047028 19.992107 16.816900
v 84.899223 10.668254 23.549377
v 124.080383 -1.764702 28.553532
v 121.746887 3.751376 18.545223
v 126.413826 3.751368 23.549376
v 124.080338 9.267450 31.216825
v 139.825455 3.751415 -0.000001
v 52.988968 -27.594318 0.034562
v 70.338455 -22.197634 -16.120947
v 70.337898 -19.038046 -15.225145
v 53.014786 -23.518093 -16.803959
v 83.867035 -9.424186 -0.000002
v 89.016518 14.772950 0.000001
v 127.086830 -7.736291 -0.000002
v 132.769318 10.477739 -0.000002
v 126.365112 11.855034 -0.000003
v 121.813606 14.737183 -0.000003
v 116.038422 16.902851 -0.000000
v 118.630020 -10.631464 -0.000003
v 100.158226 15.261532 -0.000002
v 133.221008 6.875645 0.000000
v 125.724014 -3.378229 -0.000002
v 128.726013 -3.807465 -0.000000
v 120.188332 -6.412011 -0.000000
v 122.314102 -3.612390 -0.000002
v 129.226013 7.667638 -0.000002
v 126.390785 8.761481 0.000000
v 95.852623 -13.753732 -11.945728
v 89.729500 -8.194751 -9.124486
v 125.394089 7.840935 -9.500740
v 121.468224 13.315025 -8.010799
v 128.738449 -2.017343 -8.197803
v 131.440857 6.193586 -11.393342
v 95.174995 -8.819911 -9.683450
v 115.679047 15.388501 -11.160642
v 113.518906 -8.769413 -9.535954
v 106.929970 14.780150 -6.074534
v 95.652100 -12.520463 -15.801571
v 110.794937 0.064235 -11.336461
v 100.876137 -9.039285 -9.529373
v 100.156639 13.611286 -13.845955
v 100.685181 -2.471071 -5.115550
v 122.305305 -6.503672 -4.491981
v 127.598732 -6.310710 -15.000412
v 90.099907 -2.777394 -10.130266
v 88.264114 11.670748 -13.197195
v 94.904129 -2.115335 -8.654202
v 94.942497 11.372345 -16.053589
v 90.032440 8.118932 -13.773296
v 94.925362 7.891403 -14.517200
v 100.290237 8.275126 -6.677064
v 89.635696 -12.295077 -5.649746
v 119.234932 -9.070044 -10.192513
v 119.540283 -5.811641 -8.969860
v 123.632248 -1.356766 -17.456791
v 121.244720 4.471210 -16.984215
v 120.307755 8.613230 -5.670838
v 123.374359 -0.391613 -6.048807
v 125.619278 5.705256 -6.144067
v 119.716064 -5.251735 -8.725404
v 121.658562 -0.170756 -9.640660
v 123.709785 4.994664 -6.169915
v 122.493950 9.657496 -5.446342
v 132.238373 4.085624 -4.901307
v 130.072693 -1.004996 -5.232997
v 126.466339 -0.586987 -5.547840
v 128.254349 4.722499 -3.741824
v 121.482880 -4.124196 -16.915318
v 120.203766 0.019079 -13.247162
v 119.708733 -4.134259 -11.753899
v 123.341393 0.290125 -11.910875
v 124.044060 5.668447 -12.704881
v 120.877846 11.650932 -13.516006
v 113.969254 -6.760608 -12.182537
v 107.972481 -12.204892 -7.410783
v 101.013596 -12.929661 -7.571805
v 113.224930 -11.438251 -23.125484
v 106.155167 0.097574 -23.069382
v 106.020096 6.866399 -25.678064
v 110.220924 9.332016 -25.848696
v 110.339951 -2.356663 -28.326500
v 114.496857 0.264833 -28.343903
v 114.634796 6.736649 -18.071810
v 114.271408 9.940169 -18.004616
v 114.407883 -2.297258 -21.555927
v 118.721039 7.310138 -21.422335
v 118.678253 0.612856 -28.039606
v 103.616989 6.027252 -28.232998
v 103.764008 0.468879 -33.137100
v 111.677002 6.044551 -30.670506
v 107.721024 -1.842267 -32.970795
v 111.517006 0.175520 -29.872005
v 108.091988 8.631840 -30.468304
v 102.177002 5.724739 -35.256096
v 110.276001 6.031732 -33.851295
v 105.701019 8.413059 -31.771610
v 106.961990 8.656321 -35.131897
v 110.078003 0.107820 -32.968903
v 106.254990 -1.954191 -30.569504
v 102.282997 0.416041 -35.612511
v 98.507797 -0.413595 -38.209106
v 102.814011 -3.251087 -40.890511
v 106.899002 -0.882847 -40.991096
v 106.862000 6.128437 -38.138855
v 102.794937 8.740201 -35.588402
v 98.507500 5.739020 -50.401733
v 100.354172 -0.967649 -50.570679
v 100.195770 5.665630 -48.243690
v 96.572601 7.533211 -45.882904
v 92.817902 5.221566 -45.628609
v 92.773102 -0.168911 -48.018097
v 96.520889 -3.080012 -43.998505
v 99.099709 -3.150115 -41.713570
v 95.014877 -0.257829 -46.386604
v 103.116951 -0.931773 -46.323593
v 103.151329 5.870728 -41.697281
v 95.131226 5.431955 -43.989685
v 99.192146 8.041213 -15.643227
v 110.455353 7.396952 -15.069393
v 115.151329 10.886242 -15.331287
v 115.224602 -2.550529 -10.621577
v 83.786125 -11.996012 0.000003
v 40.821987 22.271004 0.000005
v 54.021210 21.176373 0.000001
v 84.804466 13.546792 0.034568
v 71.370659 18.671612 -16.120939
v 71.370087 16.294729 -15.225140
v 54.047020 19.992105 -16.816898
v 84.899223 10.668256 -23.346323
v 124.345474 -1.577575 -18.511961
v 126.599762 3.751335 -30.753607
v 139.556335 3.751323 -23.346321
v 124.345474 9.080246 -28.180681
v 122.091179 3.751338 0.000000
v 108.410431 -20.594841 0.000000
v 113.514786 -16.287764 0.000000
v 100.944984 -17.663475 -13.268926
v 67.943703 -21.124205 -0.000002
v 52.539791 -28.482773 -9.657679
v 71.722794 -21.165997 -0.000002
v 69.169022 -25.493374 -8.969358
v 60.401409 -26.510479 -8.909406
v 76.941200 -19.018568 -0.000000
v 77.013031 -21.750751 13.081121
v 67.943687 -21.434551 9.657675
v 71.722794 -21.165995 8.969351
v 60.401402 -26.510479 8.909403
v 76.941200 -19.018568 -0.000001
v 70.201248 22.798098 -13.758342
v 68.975891 20.059650 -9.657677
v 72.754982 18.631359 -0.000002
v 53.572021 26.609274 -8.969355
v 61.433624 21.439459 -8.909405
v 77.973381 17.246265 -0.000001
v 78.045242 19.723644 -10.639146
v 83.710999 15.164210 9.657674
v 72.754974 18.631357 13.758343
v 68.975891 20.059650 8.969355
v 61.433624 21.439459 8.909401
v 77.973381 17.246265 10.639141
v 83.710999 15.164207 -16.563152
v 108.838081 -11.981185 -10.808142
v 124.211105 -4.527390 -34.761665
v 115.517128 -5.241241 -30.192253
v 109.946442 -8.000326 -22.206234
v 107.194183 -10.837751 -29.338310
v 119.331093 -6.931177 -26.266327
v 114.073517 -10.710470 -25.251024
v 127.100883 -5.713194 -11.541363
v 120.651871 -8.793842 -25.508768
v 110.392914 -10.526580 -27.785677
v 110.806870 -9.769146 -31.331505
v 121.447845 3.751311 -25.705521
v 129.260864 3.751301 -16.563152
v 108.838097 19.483839 -10.808144
v 124.211105 12.030001 -34.761665
v 115.517136 12.743881 -30.192253
v 109.946457 15.502975 -22.206236
v 107.194199 18.340401 -29.338310
v 119.331100 14.433801 -26.266323
v 114.073532 18.213108 -25.251022
v 127.100891 13.215802 -11.541364
v 120.651894 16.296465 -25.508766
v 110.392929 18.029228 -27.785675
v 110.806885 17.271797 -22.704147
v 122.924484 3.751308 -36.360466
v 118.063049 3.751314 -12.131516
v 128.106995 3.751302 -0.000002
v 70.263290 0.655172 -0.000002
v 78.098137 12.026683 0.000000
v 70.971611 -7.656186 10.139389
v 73.984146 10.115730 8.977416
v 78.240036 11.346601 1.701033
v 73.230057 11.057599 12.531383
v 78.707245 -6.567675 16.135311
v 78.238876 -0.106895 12.987754
v 76.178909 -6.573592 17.932869
v 62.852108 3.130120 15.705830
v 62.971142 -6.619466 9.257948
v 62.825134 -10.247422 7.824194
v 74.132683 -9.563058 7.275245
v 77.371674 -9.360850 2.219326
v 70.205299 9.086267 4.213168
v 62.583584 10.468966 14.343948
v 78.407845 6.535440 15.004298
v 76.430305 6.018733 1.475313
v 62.199547 1.670766 1.514481
v 71.058212 -7.141933 3.042508
v 62.474815 -6.774754 12.491903
v 62.852657 10.311498 7.960869
v 84.003952 10.439705 11.554969
v 82.737228 -5.689795 13.467369
v 83.245865 0.055676 6.933848
v 82.498276 -8.555589 12.272599
v 83.631157 6.242442 9.778970
v 22.092691 -2.668421 9.783160
v 22.091928 10.548093 20.712204
v 22.094416 4.781899 7.254410
v 22.091623 3.989348 19.161703
v 22.093700 -2.289730 17.201200
v 22.093628 10.735493 5.056696
v 53.243767 -6.513688 3.803751
v 48.725922 2.858724 6.494315
v 50.223450 10.826224 13.398548
v 50.563889 10.572125 16.780272
v 54.292091 -5.933071 19.014931
v 50.272842 3.628340 11.519113
v 50.156281 -8.742178 5.515407
v 49.586723 -5.993976 17.208534
v 50.970985 -5.466011 11.939884
v 45.884281 -7.357778 17.447348
v 47.132854 -4.051322 6.260544
v 46.165295 -4.951982 21.088612
v 37.306938 3.395431 16.024485
v 37.657257 10.888279 7.782060
v 37.267624 11.191236 4.495840
v 35.551598 2.882623 11.078765
v 54.253990 -9.306599 18.866308
v 53.009048 3.360282 13.781169
v 52.660450 10.358819 6.309480
v 52.154083 10.549601 3.386149
v 51.747082 2.637605 14.499201
v 22.093195 -4.422564 -0.000002
v 84.086632 11.121875 -10.139394
v 73.984146 10.115731 -8.977420
v 78.240036 11.346600 -1.701037
v 73.230057 11.057599 -12.531387
v 78.707245 -6.567675 -16.135317
v 78.238884 -0.106897 -12.987758
v 76.178909 -6.573593 -17.932871
v 62.852108 3.130121 -15.705834
v 62.971134 -6.619467 -9.257954
v 62.825134 -10.247423 -7.824196
v 74.132683 -9.563061 -7.275250
v 77.371674 -9.360848 -2.219329
v 70.205299 9.086267 -4.213172
v 62.583588 10.468966 -14.343951
v 78.407845 6.535441 -15.004302
v 76.430305 6.018734 -1.475317
v 62.199554 1.670764 -1.514484
v 71.058212 -7.141933 -3.042511
v 62.474823 -6.774754 -12.491905
v 62.852665 10.311499 -7.960874
v 84.003952 10.439705 -11.554972
v 82.737228 -5.689797 -13.467372
v 83.245865 0.055674 -6.933851
v 82.498276 -8.555590 -12.272602
v 83.631157 6.242444 -9.778975
v 22.092691 -2.668422 -9.783163
v 22.091928 10.548094 -20.712208
v 22.094416 4.781899 -7.254415
v 22.091625 3.989350 -19.161707
v 22.093699 -2.289729 -17.201204
v 22.093626 10.735495 -5.056698
v 53.243771 -6.513688 -3.803755
v 48.725922 2.858726 -6.494318
v 50.223450 10.826225 -13.398552
v 50.563889 10.572126 -16.780275
v 54.292091 -5.933072 -19.014935
v 50.272842 3.628340 -11.519119
v 50.156277 -8.742178 -5.515411
v 49.586723 -5.993977 -17.208542
v 50.970985 -5.466010 -11.939891
v 45.884281 -7.357778 -17.447353
v 47.132854 -4.051321 -6.260550
v 46.165295 -4.951984 -21.088615
v 37.306938 3.395430 -16.024490
v 37.657257 10.888277 -7.782063
v 37.267624 11.191236 -4.495845
v 35.551598 2.882627 -11.078773
v 54.253990 -9.306598 -18.866312
v 53.009052 3.360283 -13.781171
v 52.660450 10.358819 -6.309484
v 52.154083 10.549600 -3.386153
v 51.747082 2.637608 -14.499204
v 22.093193 -4.422564 0.000000
v 77.286499 -10.390950 -0.000000
v 82.417221 -9.999786 -0.000002
v 71.686409 6.721903 -0.482683
v 70.116753 0.710354 0.482679
v 70.116753 0.710353 -19.628082
v 58.891872 -18.925606 -32.967377
v 60.430603 2.842170 -39.774467
v 34.189518 5.009328 -22.076317
v 38.946552 -18.888884 -28.731014
v 60.425606 -9.256721 -32.872940
v 37.535755 -9.858536 -9.768107
v 71.610657 -22.634302 -12.235413
v 89.214592 -11.488391 -5.859322
v 80.835991 -20.381859 -16.288195
v 84.942886 -11.446546 -9.341868
v 83.415558 -16.058521 -28.934618
v 66.779747 -12.696631 -20.696547
v 85.574394 -12.482438 -16.327311
v 95.328156 -0.039896 -22.519524
v 90.896088 0.326154 -34.216614
v 70.013718 2.050740 -27.497143
v 68.778885 -12.532251 -32.739182
v 49.978443 -11.140241 -14.176021
v 56.891678 -23.303072 -12.335857
v 68.497726 -22.113276 -15.331774
v 74.652596 -21.167067 -22.104822
v 66.002052 -20.020084 -21.017904
v 55.573097 -19.501444 -14.249529
v 70.686035 -20.220938 -39.839958
v 49.159317 3.773014 -19.324158
v 91.011826 0.316574 0.004902
v 86.382294 0.698905 -19.628084
v 61.935577 20.978094 -22.076332
v 42.246414 24.116621 -28.731022
v 62.390045 14.529750 -32.872948
v 39.900082 18.770037 -10.829581
v 75.413536 22.358133 -13.290278
v 92.346970 11.483934 -5.080863
v 84.367645 17.671583 -16.288195
v 86.933823 12.661128 -8.146605
v 87.038681 16.340862 -28.934624
v 69.211761 16.751913 -20.696541
v 87.723320 13.538221 -27.497154
v 71.158150 16.277550 -32.739182
v 52.383472 17.981035 -14.176020
v 60.575493 24.863939 -12.335855
v 71.828156 21.853945 -15.331764
v 77.845818 20.547533 -22.104832
v 69.126457 20.861319 -21.017887
v 58.752048 22.039991 -14.249526
v 73.780838 20.302088 -33.049202
v 71.097260 1.961256 19.637880
v 58.891884 -18.925608 32.977180
v 60.430599 2.842159 39.784264
v 34.189518 5.009322 22.086121
v 38.946556 -18.888885 28.740810
v 60.425610 -9.256718 32.882729
v 37.535759 -9.858534 9.606499
v 72.560989 -22.665766 13.477303
v 90.603416 -10.926950 6.387616
v 81.144257 -20.138954 16.297981
v 84.942886 -11.446549 9.954464
v 83.778191 -15.165310 28.944412
v 66.779755 -12.696633 20.706329
v 85.574394 -12.482442 15.801311
v 94.775177 0.005780 22.529310
v 90.896095 0.326138 34.226418
v 70.013687 2.050724 27.506933
v 68.778900 -12.532253 32.748978
v 49.978443 -11.140241 14.185802
v 56.891670 -23.303072 12.345656
v 68.497726 -22.113277 15.731325
v 74.590431 -21.065241 22.114616
v 66.002045 -20.020084 21.027691
v 55.573097 -19.501444 14.259309
v 70.686028 -20.220936 39.849762
v 49.159317 3.773024 19.324001
v 90.138496 0.388704 19.637878
v 61.935570 20.978088 22.086123
v 42.246410 24.116615 28.740808
v 62.390045 14.529753 32.882729
v 39.900085 18.770033 10.839375
v 75.413536 22.358143 13.816634
v 92.533134 11.227792 5.033146
v 84.809052 17.235849 16.297985
v 86.933838 12.661132 8.651819
v 87.175415 16.220465 28.944414
v 69.211769 16.751915 20.706335
v 87.723328 13.538226 27.506935
v 71.158157 16.277552 32.748978
v 52.383469 17.981035 14.185808
v 60.575500 24.863939 12.345658
v 71.828163 21.853937 15.341557
v 77.845825 20.547539 22.114616
v 69.126457 20.861313 21.027697
v 58.752045 22.039995 14.259315
v 73.780838 20.302088 33.058990
v 71.097267 1.961221 0.004902
v 86.382294 0.698905 -15.178608
v 53.014706 -23.521713 -7.635389
v 61.205971 -26.183365 15.204404
v 53.014748 -23.519703 7.661028
v 61.233555 -26.174356 16.563148
v 108.838142 -11.981208 11.541361
v 120.651917 -8.793837 34.761665
v 115.517159 -5.241214 30.192247
v 109.946480 -8.000319 10.808138
v 124.211136 -4.527375 12.131512
v 128.106995 3.751330 36.360466
v 118.063049 3.751354 27.785673
v 110.806915 -9.769145 25.508774
v 110.392975 -10.526581 22.206230
v 107.194237 -10.837765 12.131512
v 128.106995 3.751330 25.705517
v 129.260849 3.751354 36.360466
v 118.063049 3.751354 31.331505
v 121.447845 3.751352 16.563148
v 108.838036 19.483822 11.541358
v 120.651833 16.296474 22.704140
v 122.924484 3.751339 34.761665
v 115.517097 12.743911 30.192245
v 109.946404 15.502985 10.808140
v 124.211075 12.030016 27.785671
v 110.806824 17.271805 25.508751
v 110.392845 18.029232 22.206232
v 107.194138 18.340389 15.069391
v 115.156502 10.887156 15.643224
v 110.457298 7.399431 15.801566
v 110.793716 0.066561 15.331284
v 115.221581 -2.549813 16.984213
v 120.310913 8.611067 16.915316
v 120.202171 0.016982 17.456787
v 121.245598 4.468498 15.643224
v 110.457298 7.399431 23.069374
v 106.020081 6.866385 28.039604
v 103.616974 6.027240 30.468294
v 102.176994 5.724738 35.588402
v 98.507500 5.739021 41.697281
v 95.131226 5.431958 45.882904
v 92.817902 5.221569 18.545223
v 126.413826 3.751368 31.216825
v 139.825455 3.751415 28.553532
v 121.746887 3.751376 -0.000002
v 39.789745 -25.796974 0.000001
v 83.769371 -15.971214 -0.000001
v 52.988968 -27.594318 0.007178
v 87.930794 -14.650640 -0.000002
v 126.365112 11.855034 -0.000003
v 121.813606 14.737183 -0.000002
v 132.769318 10.477739 -0.000000
v 121.570335 -8.234433 0.000001
v 127.086830 -7.736291 -0.000003
v 107.164886 16.595745 -0.000003
v 116.038422 16.902851 -0.000003
v 100.158226 15.261532 -0.000002
v 94.948196 13.306280 -0.000002
v 89.016518 14.772950 0.000000
v 95.852623 -13.753732 -0.000000
v 118.630020 -10.631464 -0.000000
v 122.314102 -3.612390 -0.000000
v 120.188332 -6.412011 -0.000002
v 126.390785 8.761481 -0.000002
v 122.810638 10.558615 -0.000002
v 129.226013 7.667638 -0.000002
v 133.221008 6.875645 -0.000002
v 128.726013 -3.807465 0.000000
v 125.724014 -3.378229 -15.069393
v 115.151329 10.886242 -15.643227
v 110.455353 7.396952 -15.331287
v 115.224602 -2.550529 -15.801571
v 110.794937 0.064235 -16.984215
v 120.307755 8.613230 -16.915318
v 120.203766 0.019079 -17.456791
v 121.244720 4.471210 -15.643227
v 110.455353 7.396952 -23.069382
v 106.020096 6.866399 -28.039606
v 103.616989 6.027252 -30.468304
v 102.177002 5.724739 -35.588402
v 98.507500 5.739020 -41.697281
v 95.131226 5.431955 -45.882904
v 92.817902 5.221566 0.000005
v 54.021210 21.176373 0.000003
v 40.821987 22.271004 0.000001
v 84.804466 13.546792 -18.511961
v 126.599762 3.751335 -30.753607
v 139.556335 3.751323 -28.180681
v 122.091179 3.751338 0.000000
v 95.852623 -13.753732 -7.410783
v 101.013596 -12.929661 -12.182537
v 107.972481 -12.204892 -7.571805
v 113.224930 -11.438251 -0.000000
v 118.630020 -10.631464 -10.621577
v 83.786125 -11.996012 0.007178
v 87.930794 -14.650640 7.410782
v 101.013596 -12.929659 12.182532
v 107.972481 -12.204892 7.571804
v 113.224930 -11.438250 10.621562
v 83.786079 -11.995848 -10.639146
v 83.710999 15.164210 -0.000002
v 89.016518 14.772950 10.639141
v 83.710999 15.164207 -16.563152
v 108.838081 -11.981185 -11.541363
v 120.651871 -8.793842 -34.761665
v 115.517128 -5.241241 -30.192253
v 109.946442 -8.000326 -10.808142
v 124.211105 -4.527390 -12.131516
v 128.106995 3.751302 -36.360466
v 118.063049 3.751314 -27.785677
v 110.806870 -9.769146 -25.508768
v 110.392914 -10.526580 -22.206234
v 107.194183 -10.837751 -12.131516
v 128.106995 3.751302 -25.705521
v 129.260864 3.751301 -36.360466
v 118.063049 3.751314 -31.331505
v 121.447845 3.751311 -16.563152
v 108.838097 19.483839 -22.704147
v 122.924484 3.751308 -11.541364
v 120.651894 16.296465 -34.761665
v 115.517136 12.743881 -30.192253
v 109.946457 15.502975 -10.808144
v 124.211105 12.030001 -27.785675
v 110.806885 17.271797 -25.508766
v 110.392929 18.029228 -22.206236
v 107.194199 18.340401 0.482679
v 70.116753 0.710353 1.475313
v 62.199547 1.670766 0.482679
v 70.116753 0.710353 -0.000002
v 71.686409 6.721903 3.386149
v 51.747082 2.637605 3.803751
v 48.725922 2.858724 4.495840
v 35.551598 2.882623 7.254410
v 22.091623 3.989348 -1.475317
v 62.199554 1.670764 -0.482683
v 70.116753 0.710354 0.000000
v 70.971611 -7.656186 0.000000
v 77.286499 -10.390950 -0.000002
v 71.686409 6.721903 -0.000002
v 84.086632 11.121875 -0.000002
v 78.098137 12.026683 -0.000000
v 82.417221 -9.999786 -3.386153
v 51.747082 2.637608 -3.803755
v 48.725922 2.858726 -4.495845
v 35.551598 2.882627 -7.254415
v 22.091625 3.989350 -0.000002
v 70.263290 0.655172 -0.000002
v 71.686409 6.721903 -0.482683
v 70.116753 0.710354 0.482679
v 70.116753 0.710353 -0.000002
v 70.263290 0.655172 0.000000
v 70.971611 -7.656186 -0.482683
v 70.116753 0.710354 0.000000
v 70.971611 -7.656186 -0.000002
v 70.263290 0.655172 -9.341868
v 83.415558 -16.058521 -12.235413
v 89.214592 -11.488391 -16.327311
v 95.328156 -0.039896 -5.859322
v 80.835991 -20.381859 -22.104822
v 66.002052 -20.020084 -15.331774
v 74.652596 -21.167067 -32.967377
v 60.430603 2.842170 -39.774467
v 34.189518 5.009328 -16.327311
v 95.328156 -0.039896 -8.146605
v 87.038681 16.340862 0.004902
v 86.382294 0.698905 -13.290278
v 92.346970 11.483934 -16.327311
v 95.328156 -0.039896 -5.080863
v 84.367645 17.671583 -19.324158
v 91.011826 0.316574 -22.519524
v 90.896088 0.326154 -34.216614
v 70.013718 2.050740 -33.049202
v 71.097260 1.961256 -39.839958
v 49.159317 3.773014 -22.104832
v 69.126457 20.861319 -15.331764
v 77.845818 20.547533 9.954464
v 83.778191 -15.165310 13.477303
v 90.603416 -10.926950 15.801311
v 94.775177 0.005780 6.387616
v 81.144257 -20.138954 22.114616
v 66.002045 -20.020084 15.731325
v 74.590431 -21.065241 32.977180
v 60.430599 2.842159 39.784264
v 34.189518 5.009322 15.801311
v 94.775177 0.005780 8.651819
v 87.175415 16.220465 13.816634
v 92.533134 11.227792 0.004902
v 86.382294 0.698905 15.801311
v 94.775177 0.005780 5.033146
v 84.809052 17.235849 19.324001
v 90.138496 0.388704 22.529310
v 90.896095 0.326138 34.226418
v 70.013687 2.050724 33.058990
v 71.097267 1.961221 39.849762
v 49.159317 3.773024 22.114616
v 69.126457 20.861313 15.341557
v 77.845825 20.547539 0.796766

vt 0.719387 0.365694
vt 0.858911 0.061389
vt 0.872356 0.061422
vt 0.794635 0.135985
vt 0.719433 0.137466
vt 0.869698 0.139073
vt 0.801943 0.251092
vt 0.904674 0.325036
vt 0.802276 0.122206
vt 0.767504 0.101119
vt 0.783923 0.125334
vt 0.977319 0.244580
vt 0.997332 0.203234
vt 0.719387 0.365694
vt 0.858911 0.061389
vt 0.872356 0.061422
vt 0.794635 0.135985
vt 0.719433 0.137466
vt 0.869698 0.139073
vt 0.801943 0.251092
vt 0.904674 0.325036
vt 0.802276 0.122206
vt 0.767504 0.101119
vt 0.783923 0.061306
vt 0.765051 0.061342
vt 0.965263 0.393383
vt 0.950745 0.992390
vt 0.275760 0.989295
vt 0.587947 0.990580
vt 0.492462 0.869682
vt 0.493593 0.878432
vt 0.369109 0.862885
vt 0.590800 0.356783
vt 0.598310 0.802570
vt 0.497426 0.750635
vt 0.896636 0.351039
vt 0.729021 0.336138
vt 0.421609 0.671685
vt 0.530063 0.533274
vt 0.893436 0.483628
vt 0.844593 0.629452
vt 0.929869 0.548021
vt 0.953090 0.684006
vt 0.581431 0.456281
vt 0.793278 0.696516
vt 0.770150 0.442521
vt 0.712368 0.747861
vt 0.577818 0.603685
vt 0.735615 0.696084
vt 0.634551 0.440845
vt 0.649384 0.624701
vt 0.637456 0.695720
vt 0.879900 0.682938
vt 0.930983 0.613677
vt 0.535521 0.450703
vt 0.529146 0.617120
vt 0.583123 0.445258
vt 0.595613 0.513710
vt 0.536723 0.511264
vt 0.589785 0.514999
vt 0.641503 0.735269
vt 0.520067 0.718287
vt 0.844336 0.668251
vt 0.831044 0.629348
vt 0.880613 0.565968
vt 0.811055 0.544816
vt 0.807509 0.332306
vt 0.417200 0.334476
vt 0.418528 0.329902
vt 0.416337 0.332306
vt 0.417200 0.332576
vt 0.419555 0.333953
vt 0.421015 0.336136
vt 0.417014 0.334690
vt 0.415781 0.332306
vt 0.417200 0.334476
vt 0.418528 0.331368
vt 0.414708 0.594596
vt 0.806885 0.641754
vt 0.819220 0.608200
vt 0.861949 0.558790
vt 0.868846 0.508747
vt 0.831501 0.669075
vt 0.766271 0.722052
vt 0.708576 0.749421
vt 0.630129 0.737640
vt 0.780203 0.126968
vt 0.491627 0.127097
vt 0.449077 0.127005
vt 0.666608 0.127005
vt 0.536516 0.127001
vt 0.578042 0.127001
vt 0.622721 0.067375
vt 0.674376 0.048298
vt 0.541401 0.070447
vt 0.633377 0.063517
vt 0.588571 0.174833
vt 0.695031 0.175784
vt 0.493645 0.172963
vt 0.623851 0.175059
vt 0.536710 0.173960
vt 0.576629 0.165615
vt 0.665965 0.198610
vt 0.695032 0.194792
vt 0.624332 0.204948
vt 0.665906 0.184334
vt 0.666577 0.196208
vt 0.576503 0.199204
vt 0.536804 0.199954
vt 0.493858 0.244747
vt 0.495188 0.244883
vt 0.536403 0.244555
vt 0.575276 0.242246
vt 0.625481 0.240763
vt 0.666382 0.243906
vt 0.449368 0.324474
vt 0.575197 0.324483
vt 0.625822 0.324485
vt 0.665891 0.324542
vt 0.449395 0.324500
vt 0.496923 0.324494
vt 0.537500 0.291871
vt 0.537050 0.293324
vt 0.496186 0.290737
vt 0.575230 0.288024
vt 0.625671 0.291757
vt 0.449384 0.289239
vt 0.666097 0.536105
vt 0.737237 0.515330
vt 0.776735 0.627308
vt 0.774116 0.694002
vt 0.465601 0.990580
vt 0.492462 0.869682
vt 0.493593 0.878432
vt 0.369109 0.862885
vt 0.590800 0.766270
vt 0.911725 0.786284
vt 0.976747 0.785355
vt 0.846723 0.766270
vt 0.911725 0.982475
vt 0.913653 0.991762
vt 0.368925 0.990580
vt 0.492462 0.869682
vt 0.493593 0.878432
vt 0.369109 0.862885
vt 0.590800 0.353499
vt 0.543706 0.726832
vt 0.943489 0.466381
vt 0.992655 0.440541
vt 0.934823 0.404023
vt 0.887991 0.371607
vt 0.826966 0.766422
vt 0.866263 0.352350
vt 0.654298 0.337052
vt 0.419382 0.331368
vt 0.414708 0.333552
vt 0.413967 0.331368
vt 0.414708 0.331368
vt 0.414708 0.337052
vt 0.419382 0.337052
vt 0.419382 0.803150
vt 0.571521 0.671685
vt 0.530063 0.533274
vt 0.893436 0.483628
vt 0.844593 0.629452
vt 0.929869 0.548021
vt 0.953090 0.684006
vt 0.581431 0.456281
vt 0.793278 0.696516
vt 0.770150 0.442521
vt 0.712368 0.747861
vt 0.577818 0.603685
vt 0.735615 0.696034
vt 0.634335 0.440845
vt 0.649384 0.625628
vt 0.637357 0.695720
vt 0.879900 0.682938
vt 0.930983 0.613677
vt 0.535521 0.450080
vt 0.529092 0.617120
vt 0.583123 0.445258
vt 0.595613 0.513710
vt 0.536723 0.511264
vt 0.589785 0.514851
vt 0.640898 0.735269
vt 0.520067 0.718287
vt 0.844336 0.668251
vt 0.831044 0.629348
vt 0.880613 0.565968
vt 0.811055 0.544816
vt 0.807509 0.332306
vt 0.417200 0.334476
vt 0.418528 0.329902
vt 0.416337 0.332306
vt 0.417200 0.332576
vt 0.419555 0.333953
vt 0.421015 0.336136
vt 0.417014 0.334690
vt 0.415781 0.332306
vt 0.417200 0.334476
vt 0.418528 0.331368
vt 0.414708 0.594596
vt 0.806885 0.641754
vt 0.819220 0.608200
vt 0.861949 0.558790
vt 0.868846 0.508747
vt 0.831501 0.669075
vt 0.766271 0.722052
vt 0.708576 0.749421
vt 0.630129 0.737640
vt 0.780203 0.126968
vt 0.491627 0.127097
vt 0.449077 0.127005
vt 0.666608 0.127005
vt 0.536516 0.127001
vt 0.578042 0.127001
vt 0.622721 0.067375
vt 0.674376 0.048298
vt 0.541401 0.070447
vt 0.633377 0.063517
vt 0.588571 0.174833
vt 0.695031 0.175784
vt 0.493645 0.172963
vt 0.623851 0.175059
vt 0.536710 0.173960
vt 0.576629 0.165615
vt 0.665965 0.198610
vt 0.695032 0.194792
vt 0.624332 0.204948
vt 0.665906 0.184334
vt 0.666577 0.196208
vt 0.576503 0.199204
vt 0.536804 0.199954
vt 0.493858 0.244747
vt 0.495188 0.244883
vt 0.536403 0.244555
vt 0.575276 0.242246
vt 0.625481 0.240763
vt 0.666382 0.243906
vt 0.449368 0.324474
vt 0.575197 0.324483
vt 0.625822 0.324485
vt 0.665891 0.324542
vt 0.449395 0.324500
vt 0.496923 0.324494
vt 0.537500 0.291871
vt 0.537050 0.293324
vt 0.496186 0.290737
vt 0.575230 0.288024
vt 0.625671 0.291757
vt 0.449384 0.289239
vt 0.666097 0.536105
vt 0.737237 0.515330
vt 0.776735 0.627308
vt 0.774116 0.694002
vt 0.465601 0.992390
vt 0.275760 0.991762
vt 0.368925 0.989295
vt 0.587947 0.990580
vt 0.492462 0.869682
vt 0.493593 0.878432
vt 0.369109 0.862885
vt 0.590800 0.766270
vt 0.911725 0.785355
vt 0.846723 0.982475
vt 0.913653 0.766270
vt 0.911725 0.786284
vt 0.976747 0.861833
vt 0.735656 0.861833
vt 0.791624 0.861833
vt 0.653799 0.886483
vt 0.294601 0.775268
vt 0.174845 0.853335
vt 0.323981 0.775268
vt 0.304127 0.847771
vt 0.235964 0.847287
vt 0.364551 0.775268
vt 0.365110 0.664054
vt 0.294601 0.697201
vt 0.323981 0.702765
vt 0.235964 0.703250
vt 0.364551 0.775268
vt 0.304127 0.886483
vt 0.294601 0.853335
vt 0.323981 0.775268
vt 0.174845 0.847771
vt 0.235964 0.847287
vt 0.364551 0.775268
vt 0.365110 0.429884
vt 0.477810 0.697201
vt 0.323981 0.664054
vt 0.294601 0.702765
vt 0.235964 0.703250
vt 0.364551 0.429884
vt 0.477810 0.203234
vt 0.719387 0.365694
vt 0.858911 0.061389
vt 0.872356 0.061422
vt 0.794635 0.135985
vt 0.719433 0.137466
vt 0.869698 0.139073
vt 0.801943 0.251092
vt 0.904674 0.325036
vt 0.802276 0.122206
vt 0.767504 0.101119
vt 0.783923 0.125334
vt 0.977319 0.244580
vt 0.997332 0.203234
vt 0.719387 0.365694
vt 0.858911 0.061389
vt 0.872356 0.061422
vt 0.794635 0.135985
vt 0.719433 0.137466
vt 0.869698 0.139073
vt 0.801943 0.251092
vt 0.904674 0.325036
vt 0.802276 0.122206
vt 0.767504 0.101119
vt 0.783923 0.061306
vt 0.765051 0.061342
vt 0.965263 0.393383
vt 0.950745 0.320072
vt 0.294688 0.285080
vt 0.329209 0.023144
vt 0.307481 0.228649
vt 0.301930 0.234942
vt 0.326329 0.277793
vt 0.310558 0.121869
vt 0.320958 0.159628
vt 0.324288 0.121869
vt 0.320958 0.175350
vt 0.226682 0.122506
vt 0.226704 0.083200
vt 0.226679 0.082850
vt 0.304759 0.083310
vt 0.326323 0.276782
vt 0.287514 0.269593
vt 0.226603 0.194958
vt 0.317923 0.194958
vt 0.317923 0.012278
vt 0.226391 0.036632
vt 0.298949 0.046089
vt 0.226571 0.223974
vt 0.226659 0.235949
vt 0.361405 0.122554
vt 0.361392 0.161656
vt 0.361371 0.082177
vt 0.362172 0.200807
vt 0.361372 0.064905
vt 0.006694 0.261582
vt 0.006588 0.172015
vt 0.006406 0.020669
vt 0.006415 0.125013
vt 0.006538 0.215349
vt 0.006403 0.051123
vt 0.155847 0.011346
vt 0.127248 0.264278
vt 0.140802 0.221061
vt 0.141419 0.122147
vt 0.160588 0.171493
vt 0.135527 0.088133
vt 0.142353 0.054198
vt 0.138600 0.124407
vt 0.142560 0.089926
vt 0.123111 0.125435
vt 0.125492 0.056510
vt 0.123769 0.171919
vt 0.089721 0.218811
vt 0.090940 0.261395
vt 0.091579 0.015244
vt 0.083956 0.086110
vt 0.159765 0.172550
vt 0.150279 0.221061
vt 0.141419 0.264278
vt 0.140802 0.310800
vt 0.144230 0.096412
vt 0.006673 0.269761
vt 0.354505 0.228649
vt 0.301930 0.234942
vt 0.326329 0.277793
vt 0.310558 0.121869
vt 0.320958 0.159628
vt 0.324288 0.121869
vt 0.320958 0.175350
vt 0.226682 0.122506
vt 0.226704 0.083200
vt 0.226679 0.082850
vt 0.304759 0.083310
vt 0.326323 0.276782
vt 0.287514 0.269593
vt 0.226603 0.194958
vt 0.317923 0.194958
vt 0.317923 0.012278
vt 0.226391 0.036632
vt 0.298949 0.046089
vt 0.226571 0.223974
vt 0.226659 0.235949
vt 0.361405 0.122554
vt 0.361392 0.161656
vt 0.361371 0.082177
vt 0.362172 0.200807
vt 0.361372 0.064905
vt 0.006694 0.261582
vt 0.006588 0.172015
vt 0.006406 0.020669
vt 0.006415 0.125013
vt 0.006538 0.215349
vt 0.006403 0.051123
vt 0.155847 0.011346
vt 0.127248 0.264278
vt 0.140802 0.221061
vt 0.141419 0.122147
vt 0.160588 0.171493
vt 0.135527 0.088133
vt 0.142353 0.054198
vt 0.138600 0.124407
vt 0.142560 0.089926
vt 0.123111 0.125435
vt 0.125492 0.056510
vt 0.123769 0.171919
vt 0.089721 0.218811
vt 0.090940 0.261395
vt 0.091579 0.015244
vt 0.083956 0.086110
vt 0.159765 0.172550
vt 0.150279 0.221061
vt 0.141419 0.264278
vt 0.140802 0.310800
vt 0.144230 0.096412
vt 0.006673 0.034884
vt 0.328117 0.035158
vt 0.361846 0.300180
vt 0.304289 0.006815
vt 0.294960 0.320072
vt 0.294688 0.562443
vt 0.190826 0.361228
vt 0.193843 0.323575
vt 0.005402 0.560890
vt 0.050070 0.465819
vt 0.192939 0.457918
vt 0.029807 0.658351
vt 0.308962 0.561928
vt 0.454772 0.663352
vt 0.394006 0.547918
vt 0.407415 0.624924
vt 0.404286 0.483064
vt 0.220303 0.518454
vt 0.384442 0.468183
vt 0.513870 0.423638
vt 0.451658 0.346193
vt 0.262180 0.796530
vt 0.156734 0.753948
vt 0.007609 0.969456
vt 0.071103 0.982407
vt 0.162302 0.601687
vt 0.315903 0.559939
vt 0.227143 0.890366
vt 0.060537 0.957366
vt 0.179368 0.578731
vt 0.004407 0.447883
vt 0.472151 0.676317
vt 0.232944 0.562443
vt 0.190826 0.560890
vt 0.050070 0.465819
vt 0.192939 0.457918
vt 0.029807 0.648625
vt 0.307840 0.561928
vt 0.454772 0.663352
vt 0.394006 0.547918
vt 0.407415 0.624924
vt 0.404286 0.483064
vt 0.220303 0.518454
vt 0.384442 0.796530
vt 0.156734 0.753948
vt 0.007609 0.969456
vt 0.071103 0.982407
vt 0.162302 0.601687
vt 0.315903 0.559939
vt 0.227143 0.890366
vt 0.060537 0.957366
vt 0.179368 0.640032
vt 0.178683 0.562443
vt 0.190826 0.361228
vt 0.193843 0.323575
vt 0.005402 0.560890
vt 0.050070 0.465819
vt 0.192939 0.457918
vt 0.029807 0.656906
vt 0.316433 0.561928
vt 0.454772 0.658396
vt 0.393474 0.547918
vt 0.407415 0.624924
vt 0.404286 0.483064
vt 0.220303 0.518454
vt 0.384442 0.468183
vt 0.513870 0.423638
vt 0.451658 0.346193
vt 0.262180 0.796530
vt 0.156734 0.753948
vt 0.007609 0.969456
vt 0.071103 0.982407
vt 0.162302 0.598532
vt 0.314423 0.559939
vt 0.227143 0.890366
vt 0.060537 0.957366
vt 0.179368 0.578731
vt 0.004407 0.447883
vt 0.472151 0.562443
vt 0.190826 0.560890
vt 0.050070 0.465819
vt 0.192939 0.457918
vt 0.029807 0.648625
vt 0.307840 0.561928
vt 0.454772 0.663352
vt 0.394006 0.547918
vt 0.407415 0.624924
vt 0.404286 0.483064
vt 0.220303 0.518454
vt 0.384442 0.796530
vt 0.156734 0.753948
vt 0.007609 0.969456
vt 0.071103 0.982407
vt 0.162302 0.601687
vt 0.315903 0.559939
vt 0.227143 0.890366
vt 0.060537 0.957366
vt 0.179368 0.640032
vt 0.178683 0.676317
vt 0.232944 0.878778
vt 0.369108 0.933941
vt 0.427972 0.878586
vt 0.369108 0.933747
vt 0.428170 0.012443
vt 0.776405 0.012479
vt 0.776402 0.012321
vt 0.754275 0.012329
vt 0.754280 0.012479
vt 0.776402 0.012451
vt 0.776302 0.011986
vt 0.754235 0.012330
vt 0.754283 0.012332
vt 0.754286 0.012610
vt 0.776449 0.393383
vt 0.950745 0.244580
vt 0.997332 0.061342
vt 0.965263 0.125334
vt 0.977319 0.012443
vt 0.776405 0.012479
vt 0.776402 0.061306
vt 0.765051 0.012321
vt 0.754275 0.012329
vt 0.754280 0.012479
vt 0.776402 0.012330
vt 0.754283 0.012332
vt 0.754286 0.012610
vt 0.776449 0.042699
vt 0.684104 0.056728
vt 0.694983 0.041637
vt 0.491437 0.018114
vt 0.538837 0.034753
vt 0.646999 0.021976
vt 0.587366 0.029037
vt 0.619289 0.056728
vt 0.448473 0.127058
vt 0.695509 0.175999
vt 0.449364 0.199217
vt 0.449375 0.244195
vt 0.695033 0.291870
vt 0.695029 0.324535
vt 0.695026 0.785355
vt 0.846723 0.982475
vt 0.913653 0.786284
vt 0.976747 0.992390
vt 0.275760 0.989295
vt 0.587947 0.991762
vt 0.368925 0.802534
vt 0.497438 0.440541
vt 0.934823 0.404023
vt 0.887991 0.466381
vt 0.992655 0.750635
vt 0.896636 0.726832
vt 0.943489 0.351039
vt 0.729021 0.371607
vt 0.826966 0.352350
vt 0.654298 0.356783
vt 0.598310 0.353499
vt 0.543706 0.803150
vt 0.571521 0.766422
vt 0.866263 0.331368
vt 0.414708 0.331368
vt 0.414708 0.337052
vt 0.419382 0.336138
vt 0.421609 0.337052
vt 0.419382 0.337052
vt 0.419382 0.333552
vt 0.413967 0.331368
vt 0.414708 0.042699
vt 0.684104 0.056728
vt 0.694983 0.018114
vt 0.538837 0.041637
vt 0.491437 0.034753
vt 0.646999 0.021976
vt 0.587366 0.029037
vt 0.619289 0.056728
vt 0.448473 0.127058
vt 0.695509 0.175999
vt 0.449364 0.199217
vt 0.449375 0.244195
vt 0.695033 0.291870
vt 0.695029 0.324535
vt 0.695026 0.991762
vt 0.368925 0.992390
vt 0.275760 0.989295
vt 0.587947 0.785355
vt 0.846723 0.982475
vt 0.913653 0.786284
vt 0.976747 0.861833
vt 0.597962 0.938868
vt 0.654551 0.995411
vt 0.730853 0.944856
vt 0.788445 0.861833
vt 0.847711 0.861127
vt 0.417766 0.773812
vt 0.442501 0.784797
vt 0.654551 0.728254
vt 0.730853 0.778810
vt 0.788445 0.689410
vt 0.417766 0.861127
vt 0.417766 0.775268
vt 0.450734 0.689410
vt 0.417766 0.012443
vt 0.776405 0.012479
vt 0.776402 0.012321
vt 0.754275 0.012329
vt 0.754280 0.012479
vt 0.776402 0.012451
vt 0.776302 0.011986
vt 0.754235 0.012330
vt 0.754283 0.012332
vt 0.754286 0.012610
vt 0.776449 0.393383
vt 0.950745 0.244580
vt 0.997332 0.061342
vt 0.965263 0.125334
vt 0.977319 0.012443
vt 0.776405 0.061306
vt 0.765051 0.012479
vt 0.776402 0.012321
vt 0.754275 0.012329
vt 0.754280 0.012479
vt 0.776402 0.012330
vt 0.754283 0.012332
vt 0.754286 0.012610
vt 0.776449 0.006815
vt 0.294960 0.317600
vt 0.226422 0.320072
vt 0.294688 0.300180
vt 0.304289 0.010196
vt 0.141396 0.310024
vt 0.129425 0.307630
vt 0.084309 0.305040
vt 0.006525 0.317600
vt 0.226422 0.320072
vt 0.294688 0.023144
vt 0.307481 0.034884
vt 0.328117 0.300180
vt 0.304289 0.269761
vt 0.354505 0.285080
vt 0.329209 0.035158
vt 0.361846 0.010196
vt 0.141396 0.310024
vt 0.129425 0.307630
vt 0.084309 0.305040
vt 0.006525 0.320072
vt 0.294688 0.300180
vt 0.304289 0.320072
vt 0.294688 0.006815
vt 0.294960 0.006815
vt 0.294960 0.023144
vt 0.307481 0.006815
vt 0.294960 0.023144
vt 0.307481 0.006815
vt 0.294960 0.599037
vt 0.194966 0.592320
vt 0.234857 0.612563
vt 0.286830 0.609280
vt 0.177955 0.872807
vt 0.138988 0.942468
vt 0.210207 0.361228
vt 0.193843 0.323575
vt 0.005402 0.468183
vt 0.513870 0.599037
vt 0.194966 0.676317
vt 0.232944 0.592320
vt 0.234857 0.612563
vt 0.286830 0.609280
vt 0.177955 0.447883
vt 0.472151 0.423638
vt 0.451658 0.346193
vt 0.262180 0.640032
vt 0.178683 0.578731
vt 0.004407 0.872807
vt 0.138988 0.942468
vt 0.210207 0.599037
vt 0.194966 0.592320
vt 0.234857 0.612563
vt 0.286830 0.607206
vt 0.179374 0.872807
vt 0.138988 0.938698
vt 0.209764 0.361228
vt 0.193843 0.323575
vt 0.005402 0.468183
vt 0.513870 0.599037
vt 0.194966 0.592320
vt 0.234857 0.676317
vt 0.232944 0.612563
vt 0.286830 0.609280
vt 0.177955 0.447883
vt 0.472151 0.423638
vt 0.451658 0.346193
vt 0.262180 0.640032
vt 0.178683 0.578731
vt 0.004407 0.872807
vt 0.138988 0.942468
vt 0.210207 1.000000

f 557/557 558/558 94/94
f 95/95 559/559 560/560
f 561/561 557/557 94/94
f 562/562 95/95 560/560
f 95/95 562/562 97/97
f 94/94 96/96 561/561
f 563/563 97/97 562/562
f 97/97 563/563 96/96
f 561/561 96/96 563/563
f 88/88 89/89 564/564
f 564/564 559/559 88/88
f 565/565 90/90 94/94
f 94/94 558/558 565/565
f 91/91 88/88 95/95
f 559/559 95/95 88/88
f 97/97 91/91 95/95
f 91/91 97/97 92/92
f 90/90 93/93 96/96
f 96/96 94/94 90/90
f 93/93 92/92 97/97
f 96/96 93/93 97/97
f 565/565 98/98 103/103
f 103/103 90/90 565/565
f 566/566 89/89 99/99
f 88/88 99/99 89/89
f 93/93 100/100 102/102
f 102/102 92/92 93/93
f 91/91 92/92 102/102
f 102/102 101/101 91/91
f 90/90 103/103 100/100
f 100/100 93/93 90/90
f 99/99 88/88 91/91
f 91/91 101/101 99/99
f 115/115 106/106 104/104
f 99/99 110/110 567/567
f 113/113 108/108 114/114
f 102/102 105/105 108/108
f 110/110 99/99 101/101
f 102/102 108/108 101/101
f 106/106 115/115 114/114
f 104/104 106/106 107/107
f 99/99 567/567 566/566
f 102/102 100/100 105/105
f 107/107 105/105 100/100
f 107/107 98/98 104/104
f 100/100 103/103 107/107
f 107/107 106/106 105/105
f 107/107 103/103 98/98
f 109/109 101/101 108/108
f 101/101 109/109 110/110
f 110/110 111/111 116/116
f 111/111 110/110 109/109
f 112/112 109/109 108/108
f 109/109 112/112 111/111
f 108/108 113/113 112/112
f 114/114 105/105 106/106
f 114/114 108/108 105/105
f 116/116 567/567 110/110
f 104/104 568/568 115/115
f 117/117 125/125 118/118
f 126/126 118/118 125/125
f 128/128 119/119 118/118
f 118/118 126/126 128/128
f 124/124 121/121 120/120
f 120/120 127/127 124/124
f 123/123 122/122 121/121
f 121/121 124/124 123/123
f 125/125 117/117 122/122
f 122/122 123/123 125/125
f 569/569 570/570 119/119
f 119/119 128/128 569/569
f 112/112 113/113 123/123
f 125/125 123/123 113/113
f 112/112 123/123 111/111
f 124/124 111/111 123/123
f 114/114 126/126 113/113
f 114/114 115/115 126/126
f 128/128 126/126 115/115
f 125/125 113/113 126/126
f 111/111 124/124 116/116
f 127/127 116/116 124/124
f 568/568 569/569 115/115
f 128/128 115/115 569/569
f 598/598 218/218 599/599
f 219/219 600/600 601/601
f 602/602 218/218 598/598
f 603/603 600/600 219/219
f 219/219 221/221 603/603
f 218/218 602/602 220/220
f 604/604 603/603 221/221
f 221/221 220/220 604/604
f 602/602 604/604 220/220
f 212/212 605/605 213/213
f 605/605 212/212 601/601
f 606/606 218/218 214/214
f 218/218 606/606 599/599
f 215/215 219/219 212/212
f 601/601 212/212 219/219
f 221/221 219/219 215/215
f 215/215 216/216 221/221
f 214/214 220/220 217/217
f 220/220 214/214 218/218
f 217/217 221/221 216/216
f 220/220 221/221 217/217
f 606/606 227/227 222/222
f 227/227 606/606 214/214
f 607/607 223/223 213/213
f 212/212 213/213 223/223
f 217/217 226/226 224/224
f 226/226 217/217 216/216
f 215/215 226/226 216/216
f 226/226 215/215 225/225
f 214/214 224/224 227/227
f 224/224 214/214 217/217
f 223/223 215/215 212/212
f 215/215 223/223 225/225
f 239/239 228/228 230/230
f 223/223 608/608 234/234
f 237/237 238/238 232/232
f 226/226 232/232 229/229
f 234/234 225/225 223/223
f 226/226 225/225 232/232
f 230/230 238/238 239/239
f 228/228 231/231 230/230
f 223/223 607/607 608/608
f 226/226 229/229 224/224
f 231/231 224/224 229/229
f 231/231 228/228 222/222
f 224/224 231/231 227/227
f 231/231 229/229 230/230
f 231/231 222/222 227/227
f 233/233 232/232 225/225
f 225/225 234/234 233/233
f 234/234 240/240 235/235
f 235/235 233/233 234/234
f 236/236 232/232 233/233
f 233/233 235/235 236/236
f 232/232 236/236 237/237
f 238/238 230/230 229/229
f 238/238 229/229 232/232
f 240/240 234/234 608/608
f 228/228 239/239 609/609
f 241/241 242/242 249/249
f 250/250 249/249 242/242
f 252/252 242/242 243/243
f 242/242 252/252 250/250
f 248/248 244/244 245/245
f 244/244 248/248 251/251
f 247/247 245/245 246/246
f 245/245 247/247 248/248
f 249/249 246/246 241/241
f 246/246 249/249 247/247
f 610/610 243/243 611/611
f 243/243 610/610 252/252
f 236/236 247/247 237/237
f 249/249 237/237 247/247
f 236/236 235/235 247/247
f 248/248 247/247 235/235
f 238/238 237/237 250/250
f 238/238 250/250 239/239
f 252/252 239/239 250/250
f 249/249 250/250 237/237
f 235/235 240/240 248/248
f 251/251 248/248 240/240
f 609/609 239/239 610/610
f 252/252 610/610 239/239
f 141/141 138/138 571/571
f 573/573 572/572 265/265
f 268/268 266/266 615/615
