# MOD converted: bothhands_r007.mod
# 108 verts, 71 faces

v 88.950821 90.364273 -56.576668
v 87.645638 67.218613 -57.335037
v 87.009331 51.390606 -60.658955
v 84.220276 38.469799 -66.776390
v 79.087181 28.537867 -58.002434
v 86.449387 23.702961 -51.888145
v 91.579666 106.513397 -50.683826
v 90.144409 77.735352 -50.446571
v 89.861656 66.250610 -50.129002
v 89.483185 54.765869 -49.867100
v 89.171059 43.281132 -49.754719
v 89.037125 31.796394 -49.754734
v 89.037140 19.144991 -47.869545
v 94.951714 85.524956 -49.770561
v 93.356583 83.477722 -47.400471
v 95.345345 73.480927 -49.301487
v 93.750206 71.992981 -46.921642
v 95.747154 61.996185 -48.822659
v 94.152023 60.508244 -46.037418
v 96.489128 50.511452 -47.938435
v 94.893997 49.023506 -44.827728
v 97.504204 39.026714 -46.728741
v 95.909073 37.538769 -43.811897
v 98.356606 28.300245 -45.061218
v 97.308319 23.702957 -53.092537
v 93.015007 77.735352 -53.329823
v 93.297791 66.250618 -53.647419
v 93.676285 54.765881 -53.909355
v 93.988449 43.281143 -54.021767
v 94.122414 31.796408 -54.021782
v 94.122429 19.145000 -52.071316
v 91.426285 -22.178528 -49.595787
v 93.503487 -20.577831 -52.079243
v 93.949448 -20.577827 -54.554771
v 91.872246 -20.577826 -54.546841
v 89.349075 -20.577831 -52.063381
v 88.903114 -20.577833 -49.587852
v 90.980316 -20.577835 -50.259537
v 92.946465 7.136801 -52.110641
v 93.312843 7.136804 -53.922379
v 91.792625 7.136804 -53.883015
v 89.906021 7.136802 -52.031910
v 89.539642 7.136799 -50.220173
v 91.059868 7.136798 -45.061218
v 97.308319 23.702957 -54.021782
v 94.122429 19.145000 -58.002434
v 86.449387 23.702961 -49.754734
v 89.037140 19.144991 -47.202969
v 95.511208 22.874073 -42.564251
v 99.403542 24.678173 -41.245201
v 100.510338 30.814646 -42.106853
v 99.787300 39.642109 -43.315144
v 99.712410 17.077162 -39.690811
v 102.753578 15.757816 -36.264370
v 105.628708 10.858491 -33.903645
v 107.609558 20.866236 -47.665306
v 96.062202 16.832043 -36.314541
v 105.586563 31.175583 -42.390457
v 98.610413 17.077162 -38.766125
v 101.651581 15.757818 -35.339684
v 104.526711 10.858492 -32.978958
v 106.507561 20.866234 -46.740620
v 94.960205 16.832043 -35.389854
v 104.484558 31.175585 -48.282478
v 90.762222 34.234173 -43.928677
v 93.491005 26.139370 -48.639793
v 92.057716 25.970491 -46.158279
v 89.100357 26.308241 -42.503155
v 93.642792 16.994762 -48.627251
v 91.779625 16.775234 -45.401466
v 87.935280 17.214279 -45.332386
v 90.906822 13.825315 -52.075264
v 87.579704 34.234173 -55.518639
v 83.765907 26.139374 -53.289032
v 88.156555 25.970493 -50.807522
v 85.199196 26.308243 -55.915665
v 82.388397 16.994766 -53.017349
v 88.095909 16.775234 -49.791569
v 84.251556 17.214279 -52.729961
v 84.699539 13.825318 -52.326061
v 85.519791 18.607914 -52.865784
v 86.163010 21.741604 -51.588776
v 84.641129 20.594589 -46.210312
v 90.651497 18.607912 -46.750034
v 91.294716 21.741604 -45.473030
v 89.772835 20.594587 -52.067215
v 95.272713 34.234184 -48.623863
v 99.086533 26.139383 -50.853466
v 94.695885 25.970497 -53.334976
v 97.653244 26.308262 -48.226860
v 100.464066 16.994778 -51.125175
v 94.756554 16.775240 -54.350952
v 98.600906 17.214304 -51.412571
v 98.152931 13.825334 -55.860001
v 92.090195 34.234184 -60.213821
v 89.361435 26.139387 -55.502705
v 90.794724 25.970497 -57.984222
v 93.752083 26.308262 -61.639370
v 89.209671 16.994781 -55.515274
v 91.072838 16.775242 -58.741058
v 94.917183 17.214304 -58.810143
v 91.945648 13.825336 -57.932209
v 92.200966 18.607929 -57.392475
v 91.557732 21.741617 -58.669483
v 93.079620 20.594610 -51.816460
v 97.332664 18.607929 -51.276730
v 96.689438 21.741617 -52.553738
v 98.211327 20.594608 0.815072

vt 0.325091 0.447303
vt 0.317439 0.638902
vt 0.313877 0.763453
vt 0.280454 0.848844
vt 0.224339 0.940590
vt 0.298257 0.001863
vt 0.380517 0.328087
vt 0.380517 0.458276
vt 0.380517 0.588466
vt 0.380517 0.718655
vt 0.380517 0.848844
vt 0.380517 0.992259
vt 0.380517 0.197898
vt 0.434584 0.262993
vt 0.409008 0.328087
vt 0.440895 0.393182
vt 0.415319 0.458276
vt 0.447337 0.523371
vt 0.421761 0.588466
vt 0.454989 0.653560
vt 0.429413 0.718655
vt 0.462777 0.783750
vt 0.437201 0.848844
vt 0.466467 0.940590
vt 0.440891 0.328087
vt 0.380517 0.458276
vt 0.380517 0.588466
vt 0.380517 0.718655
vt 0.380517 0.848844
vt 0.380517 0.992259
vt 0.380517 0.993394
vt 0.912118 0.965733
vt 0.982254 0.965733
vt 0.937992 0.965733
vt 0.886244 0.965733
vt 0.841982 0.965733
vt 0.886244 0.965733
vt 0.937992 0.664265
vt 0.965659 0.664265
vt 0.931870 0.664265
vt 0.892366 0.664265
vt 0.858577 0.664265
vt 0.892366 0.664265
vt 0.931870 0.463023
vt 0.991909 0.518392
vt 0.915244 0.463023
vt 0.810788 0.518392
vt 0.915244 0.452689
vt 0.728743 0.248013
vt 0.770975 0.129376
vt 0.637565 0.106377
vt 0.445520 0.352259
vt 0.842752 0.263463
vt 0.882257 0.266669
vt 0.994158 0.066984
vt 0.918262 0.452689
vt 0.853909 0.013127
vt 0.694966 0.352259
vt 0.842752 0.263463
vt 0.882257 0.266669
vt 0.994158 0.066984
vt 0.918262 0.452689
vt 0.853909 0.013127
vt 0.694966 0.695809
vt 0.471422 0.814645
vt 0.545864 0.809648
vt 0.479599 0.819642
vt 0.479599 0.948892
vt 0.563265 0.942397
vt 0.477125 0.955387
vt 0.477125 0.995421
vt 0.505838 0.695809
vt 0.471422 0.814645
vt 0.545864 0.809648
vt 0.479599 0.819642
vt 0.479599 0.948892
vt 0.563265 0.942397
vt 0.477125 0.955387
vt 0.477125 0.995421
vt 0.505838 0.214775
vt 0.174451 0.214775
vt 0.092424 0.214775
vt 0.133438 0.402262
vt 0.174451 0.402262
vt 0.092424 0.402262
vt 0.133438 0.695809
vt 0.471422 0.814645
vt 0.545864 0.809648
vt 0.479599 0.819642
vt 0.479599 0.948892
vt 0.563265 0.942397
vt 0.477125 0.955387
vt 0.477125 0.995421
vt 0.505838 0.695809
vt 0.471422 0.814645
vt 0.545864 0.809648
vt 0.479599 0.819642
vt 0.479599 0.948892
vt 0.563265 0.942397
vt 0.477125 0.955387
vt 0.477125 0.995421
vt 0.505838 0.214775
vt 0.174451 0.214775
vt 0.092424 0.214775
vt 0.133438 0.402262
vt 0.174451 0.402262
vt 0.092424 0.402262
vt 0.133438 1.000000

f 40/40 39/39 33/33
f 34/34 40/40 33/33
f 41/41 40/40 34/34
f 35/35 41/41 34/34
f 36/36 41/41 35/35
f 36/36 42/42 41/41
f 43/43 42/42 36/36
f 37/37 43/43 36/36
f 44/44 43/43 37/37
f 38/38 44/44 37/37
f 33/33 44/44 38/38
f 33/33 39/39 44/44
f 40/40 45/45 39/39
f 40/40 46/46 45/45
f 41/41 46/46 40/40
f 42/42 47/47 41/41
f 41/41 47/47 46/46
f 43/43 47/47 42/42
f 43/43 48/48 47/47
f 44/44 48/48 43/43
f 45/45 48/48 44/44
f 39/39 45/45 44/44
f 66/66 67/67 65/65
f 67/67 68/68 65/65
f 68/68 66/66 65/65
f 69/69 70/70 66/66
f 70/70 67/67 66/66
f 70/70 71/71 67/67
f 71/71 68/68 67/67
f 71/71 69/69 68/68
f 69/69 66/66 68/68
f 75/75 74/74 73/73
f 76/76 75/75 73/73
f 74/74 76/76 73/73
f 78/78 77/77 74/74
f 75/75 78/78 74/74
f 79/79 78/78 75/75
f 76/76 79/79 75/75
f 77/77 79/79 76/76
f 74/74 77/77 76/76
f 86/86 85/85 82/82
f 83/83 86/86 82/82
f 84/84 86/86 83/83
f 81/81 84/84 83/83
f 89/89 88/88 87/87
f 90/90 89/89 87/87
f 88/88 90/90 87/87
f 92/92 91/91 88/88
f 89/89 92/92 88/88
f 93/93 92/92 89/89
f 90/90 93/93 89/89
f 91/91 93/93 90/90
f 88/88 91/91 90/90
f 96/96 97/97 95/95
f 97/97 98/98 95/95
f 98/98 96/96 95/95
f 99/99 100/100 96/96
f 100/100 97/97 96/96
f 100/100 101/101 97/97
f 101/101 98/98 97/97
f 101/101 99/99 98/98
f 99/99 96/96 98/98
f 107/107 108/108 104/104
f 108/108 105/105 104/104
f 108/108 106/106 105/105
f 106/106 103/103 105/105
f 33/33 32/32 35/35
f 34/34 32/32 36/36
f 35/35 32/32 37/37
f 36/36 32/32 38/38
f 37/37 32/32 33/33
