# MOD converted: bow020.mod
# 736 verts, 300 faces

v -4.075723 36.416756 4.891743
v -4.341326 9.510529 -0.876470
v 1.843358 86.298187 -35.770565
v 14.089048 113.463158 -33.923840
v 13.265854 105.167793 5.731888
v -4.411077 71.271706 18.923389
v -10.291304 22.034662 -7.062742
v 1.292251 86.888367 -11.934443
v 3.463862 92.134254 -28.139156
v 10.687276 96.221527 -30.561497
v 11.767058 100.808907 -35.390133
v 13.919472 100.499222 8.292829
v -5.857390 0.078835 -2.491352
v -0.745486 78.083130 -30.544937
v 11.759674 107.326920 -13.288889
v 6.038714 102.505760 -28.392252
v 11.954466 110.314331 8.883667
v -4.199983 13.081624 7.891590
v -5.373764 16.179295 -34.916378
v 15.819766 108.715736 -32.030910
v 14.508870 96.839569 4.930699
v -4.053928 45.584789 17.782467
v -1.911241 49.819405 -3.220760
v -0.420334 50.397633 -5.900105
v 0.774008 57.354118 0.466909
v -2.064154 60.799084 20.799053
v -6.642970 20.995140 -37.132298
v 16.714298 101.037041 12.385497
v -7.376991 73.034111 24.361927
v -5.959617 29.425714 0.886498
v 1.011410 53.419651 17.675583
v -6.831047 20.339184 12.590920
v -1.641741 67.951241 23.453522
v -12.310660 34.023579 10.251810
v -6.730631 12.733165 25.603613
v -13.269084 29.153128 4.979608
v -4.075696 -36.416756 13.113564
v -7.701495 -24.784847 -0.876452
v 1.843426 -86.298187 -35.770542
v 14.089129 -113.463158 -41.268074
v 16.539709 -108.872787 8.896095
v -5.821514 -28.145830 7.153824
v -5.044868 -56.720268 24.616465
v -12.829032 -22.779428 -7.062723
v 1.292319 -86.888367 4.763318
v -3.979272 -64.714981 -11.934424
v 3.463928 -92.134254 -31.450602
v 12.163463 -92.041656 -30.561478
v 11.767131 -100.808907 -35.390114
v 13.919544 -100.499222 -2.491337
v -0.745430 -78.083130 -30.544916
v 11.759751 -107.326920 1.385823
v -2.473705 -90.299583 20.402052
v -10.950402 -51.519424 -14.055766
v 4.409545 -100.345680 -13.288866
v 6.038794 -102.505760 -28.392231
v 11.954546 -110.314331 8.883670
v -4.199974 -12.923955 -34.916355
v 15.819844 -108.715736 -32.030891
v 14.508940 -96.839569 4.930708
v -4.053895 -45.584789 17.782476
v -1.911205 -49.819397 -5.900094
v 0.774050 -57.354118 20.799055
v -6.642955 -20.995140 -37.132275
v 16.714373 -101.037041 12.385511
v -7.376938 -73.034111 24.361933
v -5.959596 -29.425716 0.886508
v 1.011449 -53.419651 17.675587
v -6.831032 -20.339188 17.676180
v -6.831285 -0.000000 12.590934
v -1.641691 -67.951241 20.811584
v -11.132970 -19.323967 23.453527
v -12.310636 -34.023579 -36.112644
v 14.241617 -93.288795 10.251812
v -6.730622 -12.575497 25.603619
v -13.269062 -29.153130 7.023603
v -3.371476 0.078836 -27.488596
v 10.397367 -112.477043 -13.428856
v 4.130095 -104.399864 4.891744
v -4.341318 -9.352858 -3.337259
v -3.677046 -86.298187 -42.023079
v 16.876257 -102.863228 -33.923817
v 13.265930 -105.167793 5.731902
v -4.411025 -71.271706 2.447836
v -2.947125 -56.618103 -3.741867
v -0.188000 -60.887791 14.321347
v -8.239880 -18.553520 18.923393
v -10.291287 -22.034666 -28.139137
v 10.687346 -96.221527 6.782610
v -4.879393 -61.953609 -14.754850
v 2.750068 -102.505760 -29.250782
v 10.028504 -110.314331 7.455109
v -7.404747 -12.923956 7.224185
v -5.381024 -17.125324 -36.486740
v 12.296903 -108.715736 -33.582928
v 11.027167 -96.839569 5.237888
v -4.190817 -62.951862 11.928145
v -15.044568 -49.819405 -3.220750
v -0.420298 -50.397633 0.466920
v -2.064110 -60.799084 17.463816
v -14.125095 -20.995144 -38.633320
v 13.346996 -101.037041 19.337257
v -17.231741 -29.425720 -1.540010
v -4.432101 -53.419651 15.515747
v -11.676328 -20.339190 15.516324
v -11.676614 -0.000002 8.257307
v -11.363568 -67.951241 -40.359547
v 16.134718 -97.831100 5.595519
v -6.575181 0.078834 -27.488615
v 10.397285 112.477043 -13.428879
v 4.130013 104.399864 4.103175
v -3.989809 0.078835 13.113559
v -7.701513 24.784847 -3.337277
v -3.677114 86.298187 -42.023098
v 16.876183 102.863228 -41.268097
v 16.539629 108.872787 8.896089
v -5.821534 28.145830 2.447825
v -2.947166 56.618103 7.153813
v -5.044909 56.720268 -3.741879
v -0.188044 60.887791 24.616461
v -12.829049 22.779425 14.321343
v -8.239893 18.553520 14.339310
v -8.247894 -0.000001 18.922396
v -10.290852 -0.000002 4.763306
v -3.979318 64.714981 -31.450619
v 12.163397 92.041656 6.782599
v -4.879438 61.953609 1.385803
v -2.473776 90.299583 20.402042
v -10.950439 51.519424 -14.055788
v 4.409467 100.345680 -14.754872
v 2.749988 102.505760 -29.250805
v 10.028425 110.314331 7.455106
v -7.404757 13.081623 -36.486763
v 12.296824 108.715736 -33.582947
v 11.027097 96.839569 5.237876
v -4.190862 62.951859 11.928136
v -15.044604 49.819397 17.463812
v -14.125111 20.995136 -38.633339
v 13.346923 101.037041 19.337252
v -17.231762 29.425713 -1.540020
v -4.432140 53.419651 15.515743
v -11.676342 20.339182 8.257294
v -11.363619 67.951241 20.811583
v -11.132983 19.323963 -40.359566
v 16.134647 97.831100 -36.112663
v 14.241550 93.288795 3.228602
v -3.295209 65.620651 4.584298
v -3.899525 66.441353 4.223322
v -3.738616 68.000999 3.092444
v -3.234543 61.465393 1.536578
v -2.540970 59.867916 1.273669
v -2.423776 61.058533 7.849074
v -5.354828 57.592304 6.672330
v -4.830282 55.401981 4.830510
v -4.009304 61.471294 3.772602
v -3.537700 59.933861 1.561858
v -2.552272 65.368965 2.058947
v -2.773855 67.195709 3.228615
v -3.295161 -65.620651 4.584311
v -3.899476 -66.441353 4.223335
v -3.738567 -68.000999 3.092455
v -3.234499 -61.465393 1.536590
v -2.540927 -59.867916 1.273681
v -2.423732 -61.058533 7.849085
v -5.354787 -57.592304 6.672340
v -4.830242 -55.401981 4.830521
v -4.009260 -61.471294 3.772613
v -3.537657 -59.933861 1.561871
v -2.552224 -65.368965 2.058959
v -2.773806 -67.195709 12.590920
v -1.641741 67.951241 -13.288889
v 6.038714 102.505760 -0.876470
v 1.843358 86.298187 -2.491352
v -0.745486 78.083130 -0.876470
v 1.843358 86.298187 -13.428879
v 4.130013 104.399864 -28.392252
v 11.954466 110.314331 -13.288889
v 6.038714 102.505760 -27.488615
v 10.397285 112.477043 -28.392252
v 11.954466 110.314331 -28.392252
v 11.954466 110.314331 -30.544937
v 11.759674 107.326920 -35.770565
v 14.089048 113.463158 -34.916378
v 15.819766 108.715736 -28.392252
v 11.954466 110.314331 -34.916378
v 15.819766 108.715736 -37.132298
v 16.714298 101.037041 -37.132298
v 16.714298 101.037041 -42.023098
v 16.876183 102.863228 -33.923840
v 13.265854 105.167793 -30.544937
v 11.759674 107.326920 -34.916378
v 15.819766 108.715736 -31.450619
v 12.163397 92.041656 -32.030910
v 14.508870 96.839569 -41.268097
v 16.539629 108.872787 -34.916378
v 15.819766 108.715736 -35.770565
v 14.089048 113.463158 -28.139156
v 10.687276 96.221527 -32.030910
v 14.508870 96.839569 -30.561497
v 11.767058 100.808907 -35.390133
v 13.919472 100.499222 -32.030910
v 14.508870 96.839569 12.590920
v -1.641741 67.951241 17.782467
v -1.911241 49.819405 17.782467
v -1.911241 49.819405 4.930699
v -4.053928 45.584789 0.886498
v 1.011410 53.419651 17.782467
v -1.911241 49.819405 7.153813
v -5.044909 56.720268 0.886498
v 1.011410 53.419651 0.886498
v 1.011410 53.419651 -5.900105
v 0.774008 57.354118 0.886498
v 1.011410 53.419651 -3.741879
v -0.188044 60.887791 0.886498
v 1.011410 53.419651 0.466909
v -2.064154 60.799084 12.590920
v -1.641741 67.951241 17.782467
v -1.911241 49.819405 -32.030910
v 14.508870 96.839569 -40.359566
v 16.134647 97.831100 -36.112663
v 14.241550 93.288795 24.361927
v -5.959617 29.425714 24.616461
v -12.829049 22.779425 24.616461
v -12.829049 22.779425 20.799053
v -6.642970 20.995140 8.883667
v -4.199983 13.081624 7.891590
v -5.373764 16.179295 20.799053
v -6.642970 20.995140 20.402042
v -10.950439 51.519424 24.361927
v -5.959617 29.425714 17.782467
v -1.911241 49.819405 -35.390133
v 13.919472 100.499222 -37.132298
v 16.714298 101.037041 -32.030910
v 14.508870 96.839569 -37.132298
v 16.714298 101.037041 -40.359566
v 16.134647 97.831100 -32.030910
v 14.508870 96.839569 -0.876470
v 1.843358 86.298187 12.590920
v -1.641741 67.951241 1.385803
v -2.473776 90.299583 12.385497
v -7.376991 73.034111 13.113559
v -7.701513 24.784847 24.361927
v -5.959617 29.425714 20.799053
v -6.642970 20.995140 24.361927
v -5.959617 29.425714 4.979600
v -4.075723 36.416756 8.896089
v -5.821534 28.145830 24.361927
v -5.959617 29.425714 17.782467
v -1.911241 49.819405 4.979600
v -4.075723 36.416756 6.782599
v -4.879438 61.953609 12.590920
v -1.641741 67.951241 5.237876
v -4.190862 62.951859 20.799053
v -6.642970 20.995140 20.811583
v -11.132983 19.323963 8.883667
v -4.199983 13.081624 24.361927
v -5.959617 29.425714 25.603613
v -13.269084 29.153128 23.453522
v -12.310660 34.023579 4.930699
v -4.053928 45.584789 0.886498
v 1.011410 53.419651 -3.220760
v -0.420334 50.397633 0.886498
v 1.011410 53.419651 7.153813
v -5.044909 56.720268 2.447825
v -2.947166 56.618103 17.676180
v -6.831285 -0.000000 17.675583
v -6.831047 20.339184 8.883667
v -4.199983 13.081624 10.251810
v -6.730631 12.733165 7.023603
v -3.371476 0.078836 4.891743
v -4.341326 9.510529 8.883667
v -4.199983 13.081624 -7.062742
v 1.292251 86.888367 -0.876470
v 1.843358 86.298187 4.763306
v -3.979318 64.714981 12.590920
v -1.641741 67.951241 5.731888
v -4.411077 71.271706 -11.934443
v 3.463862 92.134254 -0.876470
v 1.843358 86.298187 -13.288889
v 6.038714 102.505760 -14.055788
v 4.409467 100.345680 -37.132298
v 16.714298 101.037041 12.590934
v -1.641691 -67.951241 -13.288866
v 6.038794 -102.505760 -0.876452
v 1.843426 -86.298187 -2.491337
v -0.745430 -78.083130 -0.876452
v 1.843426 -86.298187 -13.428856
v 4.130095 -104.399864 -28.392231
v 11.954546 -110.314331 -13.288866
v 6.038794 -102.505760 -27.488596
v 10.397367 -112.477043 -28.392231
v 11.954546 -110.314331 -28.392231
v 11.954546 -110.314331 -30.544916
v 11.759751 -107.326920 -35.770542
v 14.089129 -113.463158 -28.392231
v 11.954546 -110.314331 -34.916355
v 15.819844 -108.715736 -34.916355
v 15.819844 -108.715736 -37.132275
v 16.714373 -101.037041 -42.023079
v 16.876257 -102.863228 -37.132275
v 16.714373 -101.037041 -33.923817
v 13.265930 -105.167793 -34.916355
v 15.819844 -108.715736 -30.544916
v 11.759751 -107.326920 -31.450602
v 12.163463 -92.041656 -32.030891
v 14.508940 -96.839569 -41.268074
v 16.539709 -108.872787 -35.770542
v 14.089129 -113.463158 -34.916355
v 15.819844 -108.715736 -28.139137
v 10.687346 -96.221527 -32.030891
v 14.508940 -96.839569 -30.561478
v 11.767131 -100.808907 -32.030891
v 14.508940 -96.839569 -35.390114
v 13.919544 -100.499222 12.590934
v -1.641691 -67.951241 17.782476
v -1.911205 -49.819397 17.782476
v -1.911205 -49.819397 4.930708
v -4.053895 -45.584789 0.886508
v 1.011449 -53.419651 17.782476
v -1.911205 -49.819397 0.886508
v 1.011449 -53.419651 7.153824
v -5.044868 -56.720268 0.886508
v 1.011449 -53.419651 -5.900094
v 0.774050 -57.354118 0.886508
v 1.011449 -53.419651 -3.741867
v -0.188000 -60.887791 0.466920
v -2.064110 -60.799084 0.886508
v 1.011449 -53.419651 17.782476
v -1.911205 -49.819397 12.590934
v -1.641691 -67.951241 -32.030891
v 14.508940 -96.839569 -36.112644
v 14.241617 -93.288795 -40.359547
v 16.134718 -97.831100 24.616465
v -12.829032 -22.779428 24.361933
v -5.959596 -29.425716 24.616465
v -12.829032 -22.779428 20.799055
v -6.642955 -20.995140 8.883670
v -4.199974 -12.923955 20.799055
v -6.642955 -20.995140 7.224185
v -5.381024 -17.125324 17.782476
v -1.911205 -49.819397 20.402052
v -10.950402 -51.519424 24.361933
v -5.959596 -29.425716 -35.390114
v 13.919544 -100.499222 -32.030891
v 14.508940 -96.839569 -37.132275
v 16.714373 -101.037041 -37.132275
v 16.714373 -101.037041 -32.030891
v 14.508940 -96.839569 -40.359547
v 16.134718 -97.831100 12.385511
v -7.376938 -73.034111 12.590934
v -1.641691 -67.951241 1.385823
v -2.473705 -90.299583 -0.876452
v 1.843426 -86.298187 13.113564
v -7.701495 -24.784847 24.361933
v -5.959596 -29.425716 20.799055
v -6.642955 -20.995140 24.361933
v -5.959596 -29.425716 8.896095
v -5.821514 -28.145830 4.979608
v -4.075696 -36.416756 24.361933
v -5.959596 -29.425716 4.979608
v -4.075696 -36.416756 17.782476
v -1.911205 -49.819397 6.782610
v -4.879393 -61.953609 5.237888
v -4.190817 -62.951862 12.590934
v -1.641691 -67.951241 20.799055
v -6.642955 -20.995140 8.883670
v -4.199974 -12.923955 20.811584
v -11.132970 -19.323967 24.361933
v -5.959596 -29.425716 23.453527
v -12.310636 -34.023579 25.603619
v -13.269062 -29.153130 4.930708
v -4.053895 -45.584789 -3.220750
v -0.420298 -50.397633 0.886508
v 1.011449 -53.419651 0.886508
v 1.011449 -53.419651 2.447836
v -2.947125 -56.618103 7.153824
v -5.044868 -56.720268 14.339310
v -8.247894 -0.000001 17.676180
v -6.831285 -0.000000 17.676180
v -6.831285 -0.000000 17.675587
v -6.831032 -20.339188 18.922396
v -10.290852 -0.000002 8.292829
v -5.857390 0.078835 8.883670
v -4.199974 -12.923955 10.251812
v -6.730622 -12.575497 7.023603
v -3.371476 0.078836 7.023603
v -3.371476 0.078836 4.891744
v -4.341318 -9.352858 8.883670
v -4.199974 -12.923955 4.103175
v -3.989809 0.078835 -13.288866
v 6.038794 -102.505760 -0.876452
v 1.843426 -86.298187 4.763318
v -3.979272 -64.714981 5.731902
v -4.411025 -71.271706 12.590934
v -1.641691 -67.951241 -7.062723
v 1.292319 -86.888367 -11.934424
v 3.463928 -92.134254 -0.876452
v 1.843426 -86.298187 -11.934424
v 3.463928 -92.134254 -14.055766
v 4.409545 -100.345680 -13.288866
v 6.038794 -102.505760 -37.132275
v 16.714373 -101.037041 6.782610
v -4.879393 -61.953609 7.153824
v -5.044868 -56.720268 -2.491337
v -0.745430 -78.083130 5.731902
v -4.411025 -71.271706 8.257307
v -11.363568 -67.951241 -30.544916
v 11.759751 -107.326920 -14.055766
v 4.409545 -100.345680 1.385823
v -2.473705 -90.299583 -13.428856
v 4.130095 -104.399864 -14.754850
v 2.750068 -102.505760 -3.337259
v -3.677046 -86.298187 -2.491337
v -0.745430 -78.083130 -3.337259
v -3.677046 -86.298187 -7.062723
v 1.292319 -86.888367 -13.428856
v 4.130095 -104.399864 -29.250782
v 10.028504 -110.314331 -14.754850
v 2.750068 -102.505760 -27.488596
v 10.397367 -112.477043 4.891744
v -4.341318 -9.352858 7.224185
v -5.381024 -17.125324 -27.488596
v 10.397367 -112.477043 -35.770542
v 14.089129 -113.463158 -29.250782
v 10.028504 -110.314331 -29.250782
v 10.028504 -110.314331 -30.544916
v 11.759751 -107.326920 -35.770542
v 14.089129 -113.463158 -36.486740
v 12.296903 -108.715736 -29.250782
v 10.028504 -110.314331 -33.923817
v 13.265930 -105.167793 -35.390114
v 13.919544 -100.499222 -36.486740
v 12.296903 -108.715736 -42.023079
v 16.876257 -102.863228 -38.633320
v 13.346996 -101.037041 -41.268074
v 16.539709 -108.872787 -40.359547
v 16.134718 -97.831100 -38.633320
v 13.346996 -101.037041 -42.023079
v 16.876257 -102.863228 -36.112644
v 14.241617 -93.288795 -31.450602
v 12.163463 -92.041656 -33.923817
v 13.265930 -105.167793 -30.544916
v 11.759751 -107.326920 -36.486740
v 12.296903 -108.715736 -31.450602
v 12.163463 -92.041656 -28.139137
v 10.687346 -96.221527 -33.582928
v 11.027167 -96.839569 -41.268074
v 16.539709 -108.872787 -36.486740
v 12.296903 -108.715736 -35.770542
v 14.089129 -113.463158 -28.139137
v 10.687346 -96.221527 -30.561478
v 11.767131 -100.808907 -33.582928
v 11.027167 -96.839569 -30.561478
v 11.767131 -100.808907 -35.390114
v 13.919544 -100.499222 -33.582928
v 11.027167 -96.839569 5.237888
v -4.190817 -62.951862 8.257307
v -11.363568 -67.951241 4.763318
v -3.979272 -64.714981 4.979608
v -4.075696 -36.416756 11.928145
v -15.044568 -49.819405 4.930708
v -4.053895 -45.584789 11.928145
v -15.044568 -49.819405 4.930708
v -4.053895 -45.584789 -1.540010
v -4.432101 -53.419651 -5.900094
v 0.774050 -57.354118 -3.220750
v -0.420298 -50.397633 11.928145
v -15.044568 -49.819405 7.153824
v -5.044868 -56.720268 -1.540010
v -4.432101 -53.419651 -1.540010
v -4.432101 -53.419651 2.447836
v -2.947125 -56.618103 0.466920
v -2.064110 -60.799084 -5.900094
v 0.774050 -57.354118 -1.540010
v -4.432101 -53.419651 -3.741867
v -0.188000 -60.887791 -3.741867
v -0.188000 -60.887791 -1.540010
v -4.432101 -53.419651 0.466920
v -2.064110 -60.799084 12.385511
v -7.376938 -73.034111 8.257307
v -11.363568 -67.951241 20.402052
v -10.950402 -51.519424 11.928145
v -15.044568 -49.819405 -33.582928
v 11.027167 -96.839569 -40.359547
v 16.134718 -97.831100 -36.112644
v 14.241617 -93.288795 24.616465
v -12.829032 -22.779428 25.603619
v -13.269062 -29.153130 19.337257
v -17.231741 -29.425720 24.616465
v -12.829032 -22.779428 24.616465
v -12.829032 -22.779428 17.463816
v -14.125095 -20.995144 20.811584
v -11.132970 -19.323967 7.455109
v -7.404747 -12.923956 13.113564
v -7.701495 -24.784847 7.224185
v -5.381024 -17.125324 17.463816
v -14.125095 -20.995144 23.453527
v -12.310636 -34.023579 20.402052
v -10.950402 -51.519424 11.928145
v -15.044568 -49.819405 19.337257
v -17.231741 -29.425720 -35.390114
v 13.919544 -100.499222 -38.633320
v 13.346996 -101.037041 -33.582928
v 11.027167 -96.839569 -38.633320
v 13.346996 -101.037041 -40.359547
v 16.134718 -97.831100 -33.582928
v 11.027167 -96.839569 -3.337259
v -3.677046 -86.298187 8.257307
v -11.363568 -67.951241 1.385823
v -2.473705 -90.299583 12.385511
v -7.376938 -73.034111 13.113564
v -7.701495 -24.784847 19.337257
v -17.231741 -29.425720 8.896095
v -5.821514 -28.145830 17.463816
v -14.125095 -20.995144 19.337257
v -17.231741 -29.425720 4.979608
v -4.075696 -36.416756 8.896095
v -5.821514 -28.145830 19.337257
v -17.231741 -29.425720 11.928145
v -15.044568 -49.819405 4.979608
v -4.075696 -36.416756 6.782610
v -4.879393 -61.953609 8.257307
v -11.363568 -67.951241 5.237888
v -4.190817 -62.951862 17.463816
v -14.125095 -20.995144 10.251812
v -6.730622 -12.575497 20.811584
v -11.132970 -19.323967 7.455109
v -7.404747 -12.923956 19.337257
v -17.231741 -29.425720 25.603619
v -13.269062 -29.153130 23.453527
v -12.310636 -34.023579 4.930708
v -4.053895 -45.584789 -1.540010
v -4.432101 -53.419651 -3.220750
v -0.420298 -50.397633 -1.540010
v -4.432101 -53.419651 7.153824
v -5.044868 -56.720268 2.447836
v -2.947125 -56.618103 14.339310
v -8.247894 -0.000001 14.321347
v -8.239880 -18.553520 18.923393
v -10.291287 -22.034666 15.516324
v -11.676614 -0.000002 18.922396
v -10.290852 -0.000002 15.515747
v -11.676328 -20.339190 8.292829
v -5.857390 0.078835 7.455109
v -7.404747 -12.923956 10.251812
v -6.730622 -12.575497 5.595519
v -6.575181 0.078834 4.891744
v -4.341318 -9.352858 4.103175
v -3.989809 0.078835 7.455109
v -7.404747 -12.923956 -7.062723
v 1.292319 -86.888367 -3.337259
v -3.677046 -86.298187 -11.934424
v 3.463928 -92.134254 4.763318
v -3.979272 -64.714981 8.257307
v -11.363568 -67.951241 5.731902
v -4.411025 -71.271706 -11.934424
v 3.463928 -92.134254 -3.337259
v -3.677046 -86.298187 -14.754850
v 2.750068 -102.505760 -14.055766
v 4.409545 -100.345680 -38.633320
v 13.346996 -101.037041 7.153813
v -5.044909 56.720268 6.782599
v -4.879438 61.953609 8.257294
v -11.363619 67.951241 5.731888
v -4.411077 71.271706 -2.491352
v -0.745486 78.083130 -30.544937
v 11.759674 107.326920 -14.055788
v 4.409467 100.345680 -14.754872
v 2.749988 102.505760 -13.428879
v 4.130013 104.399864 1.385803
v -2.473776 90.299583 -3.337277
v -3.677114 86.298187 -2.491352
v -0.745486 78.083130 -7.062742
v 1.292251 86.888367 -3.337277
v -3.677114 86.298187 -13.428879
v 4.130013 104.399864 -29.250805
v 10.028425 110.314331 -27.488615
v 10.397285 112.477043 -14.754872
v 2.749988 102.505760 4.891743
v -4.341326 9.510529 7.891590
v -5.373764 16.179295 -27.488615
v 10.397285 112.477043 -29.250805
v 10.028425 110.314331 -35.770565
v 14.089048 113.463158 -29.250805
v 10.028425 110.314331 -30.544937
v 11.759674 107.326920 -35.770565
v 14.089048 113.463158 -29.250805
v 10.028425 110.314331 -36.486763
v 12.296824 108.715736 -33.923840
v 13.265854 105.167793 -35.390133
v 13.919472 100.499222 -36.486763
v 12.296824 108.715736 -42.023098
v 16.876183 102.863228 -41.268097
v 16.539629 108.872787 -38.633339
v 13.346923 101.037041 -40.359566
v 16.134647 97.831100 -42.023098
v 16.876183 102.863228 -38.633339
v 13.346923 101.037041 -36.112663
v 14.241550 93.288795 -31.450619
v 12.163397 92.041656 -33.923840
v 13.265854 105.167793 -36.486763
v 12.296824 108.715736 -30.544937
v 11.759674 107.326920 -31.450619
v 12.163397 92.041656 -33.582947
v 11.027097 96.839569 -28.139156
v 10.687276 96.221527 -41.268097
v 16.539629 108.872787 -35.770565
v 14.089048 113.463158 -36.486763
v 12.296824 108.715736 -28.139156
v 10.687276 96.221527 -33.582947
v 11.027097 96.839569 -30.561497
v 11.767058 100.808907 -30.561497
v 11.767058 100.808907 -33.582947
v 11.027097 96.839569 -35.390133
v 13.919472 100.499222 5.237876
v -4.190862 62.951859 4.763306
v -3.979318 64.714981 8.257294
v -11.363619 67.951241 4.979600
v -4.075723 36.416756 4.930699
v -4.053928 45.584789 11.928136
v -15.044604 49.819397 11.928136
v -15.044604 49.819397 4.930699
v -4.053928 45.584789 -1.540020
v -4.432140 53.419651 -3.220760
v -0.420334 50.397633 -5.900105
v 0.774008 57.354118 11.928136
v -15.044604 49.819397 -1.540020
v -4.432140 53.419651 7.153813
v -5.044909 56.720268 -1.540020
v -4.432140 53.419651 0.466909
v -2.064154 60.799084 2.447825
v -2.947166 56.618103 -5.900105
v 0.774008 57.354118 -3.741879
v -0.188044 60.887791 -1.540020
v -4.432140 53.419651 -3.741879
v -0.188044 60.887791 0.466909
v -2.064154 60.799084 -1.540020
v -4.432140 53.419651 11.928136
v -15.044604 49.819397 8.257294
v -11.363619 67.951241 20.402042
v -10.950439 51.519424 12.385497
v -7.376991 73.034111 -33.582947
v 11.027097 96.839569 -36.112663
v 14.241550 93.288795 -40.359566
v 16.134647 97.831100 24.616461
v -12.829049 22.779425 25.603613
v -13.269084 29.153128 24.616461
v -12.829049 22.779425 19.337252
v -17.231762 29.425713 24.616461
v -12.829049 22.779425 20.811583
v -11.132983 19.323963 17.463812
v -14.125111 20.995136 7.455106
v -7.404757 13.081623 13.113559
v -7.701513 24.784847 17.463812
v -14.125111 20.995136 7.891590
v -5.373764 16.179295 11.928136
v -15.044604 49.819397 20.402042
v -10.950439 51.519424 19.337252
v -17.231762 29.425713 23.453522
v -12.310660 34.023579 -35.390133
v 13.919472 100.499222 -33.582947
v 11.027097 96.839569 -38.633339
v 13.346923 101.037041 -38.633339
v 13.346923 101.037041 -33.582947
v 11.027097 96.839569 -40.359566
v 16.134647 97.831100 12.385497
v -7.376991 73.034111 8.257294
v -11.363619 67.951241 1.385803
v -2.473776 90.299583 -3.337277
v -3.677114 86.298187 13.113559
v -7.701513 24.784847 19.337252
v -17.231762 29.425713 17.463812
v -14.125111 20.995136 8.896089
v -5.821534 28.145830 19.337252
v -17.231762 29.425713 8.896089
v -5.821534 28.145830 4.979600
v -4.075723 36.416756 19.337252
v -17.231762 29.425713 4.979600
v -4.075723 36.416756 11.928136
v -15.044604 49.819397 6.782599
v -4.879438 61.953609 5.237876
v -4.190862 62.951859 8.257294
v -11.363619 67.951241 17.463812
v -14.125111 20.995136 10.251810
v -6.730631 12.733165 7.455106
v -7.404757 13.081623 20.811583
v -11.132983 19.323963 19.337252
v -17.231762 29.425713 23.453522
v -12.310660 34.023579 25.603613
v -13.269084 29.153128 4.930699
v -4.053928 45.584789 -3.220760
v -0.420334 50.397633 -1.540020
v -4.432140 53.419651 -1.540020
v -4.432140 53.419651 2.447825
v -2.947166 56.618103 7.153813
v -5.044909 56.720268 14.339310
v -8.247894 -0.000001 14.321343
v -8.239893 18.553520 15.516324
v -11.676614 -0.000002 18.923389
v -10.291304 22.034662 15.516324
v -11.676614 -0.000002 15.515743
v -11.676342 20.339182 18.922396
v -10.290852 -0.000002 8.292829
v -5.857390 0.078835 7.455106
v -7.404757 13.081623 10.251810
v -6.730631 12.733165 5.595519
v -6.575181 0.078834 5.595519
v -6.575181 0.078834 4.891743
v -4.341326 9.510529 7.455106
v -7.404757 13.081623 4.103175
v -3.989809 0.078835 -7.062742
v 1.292251 86.888367 -11.934443
v 3.463862 92.134254 -3.337277
v -3.677114 86.298187 4.763306
v -3.979318 64.714981 5.731888
v -4.411077 71.271706 8.257294
v -11.363619 67.951241 -14.754872
v 2.749988 102.505760 -3.337277
v -3.677114 86.298187 -11.934443
v 3.463862 92.134254 -14.055788
v 4.409467 100.345680 -38.633339
v 13.346923 101.037041 4.830510
v -4.009304 61.471294 2.058947
v -2.773855 67.195709 4.830510
v -4.009304 61.471294 3.092444
v -3.234543 61.465393 3.772602
v -3.537700 59.933861 3.092444
v -3.234543 61.465393 3.772602
v -3.537700 59.933861 4.830521
v -4.009260 -61.471294 2.058959
v -2.773806 -67.195709 4.830521
v -4.009260 -61.471294 3.772613
v -3.537657 -59.933861 3.092455
v -3.234499 -61.465393 3.092455
v -3.234499 -61.465393 3.772613
v -3.537657 -59.933861 0.647473

vt 0.540682 0.423275
vt 0.252448 0.104421
vt 0.579533 0.025237
vt 0.072640 0.113758
vt 0.119035 0.151916
vt 0.762181 0.264875
vt 0.267223 0.147784
vt 0.534766 0.152924
vt 0.453474 0.229530
vt 0.189306 0.176459
vt 0.169639 0.165581
vt 0.111461 0.492671
vt 0.166284 0.171304
vt 0.641731 0.080606
vt 0.151993 0.092163
vt 0.353299 0.042685
vt 0.161065 0.467278
vt 0.293956 0.437042
vt 0.332348 0.079157
vt 0.085851 0.214537
vt 0.133165 0.329949
vt 0.632004 0.444921
vt 0.706813 0.229560
vt 0.673428 0.185344
vt 0.739806 0.246530
vt 0.801260 0.548559
vt 0.417765 0.166046
vt 0.074619 0.428370
vt 0.958100 0.551673
vt 0.506196 0.265868
vt 0.717820 0.300699
vt 0.267184 0.393341
vt 0.899015 0.580281
vt 0.561637 0.503940
vt 0.291157 0.608065
vt 0.512482 0.352527
vt 0.540682 0.462998
vt 0.436961 0.104421
vt 0.579533 0.025237
vt 0.072640 0.086575
vt 0.017349 0.411261
vt 0.464827 0.340233
vt 0.782441 0.613212
vt 0.444466 0.147784
vt 0.534766 0.318129
vt 0.865371 0.152924
vt 0.453474 0.270823
vt 0.146782 0.176459
vt 0.169639 0.165581
vt 0.111461 0.171304
vt 0.641731 0.080606
vt 0.151993 0.041708
vt 0.573900 0.529261
vt 0.739011 0.116075
vt 0.366043 0.092163
vt 0.353299 0.042685
vt 0.161065 0.467278
vt 0.293956 0.079157
vt 0.085851 0.214537
vt 0.133165 0.329949
vt 0.632004 0.444921
vt 0.706813 0.186130
vt 0.738614 0.548559
vt 0.417765 0.166046
vt 0.074619 0.428370
vt 0.958100 0.551673
vt 0.506196 0.265868
vt 0.717820 0.300699
vt 0.267184 0.300150
vt 0.447139 0.393341
vt 0.899015 0.590828
vt 0.394744 0.580281
vt 0.561637 0.255259
vt 0.091407 0.503940
vt 0.291157 0.608065
vt 0.512482 0.460056
vt 0.163592 0.014644
vt 0.170662 0.069134
vt 0.348435 0.423275
vt 0.252448 0.104421
vt 0.579533 0.152679
vt 0.018593 0.113758
vt 0.119035 0.151916
vt 0.762181 0.287185
vt 0.772456 0.199513
vt 0.785018 0.336738
vt 0.267273 0.264875
vt 0.267223 0.229530
vt 0.189306 0.337956
vt 0.835841 0.092163
vt 0.353299 0.042685
vt 0.161065 0.467278
vt 0.293956 0.437042
vt 0.332348 0.079157
vt 0.085851 0.214537
vt 0.133165 0.322735
vt 0.847392 0.444921
vt 0.706813 0.229560
vt 0.673428 0.246530
vt 0.801260 0.548559
vt 0.417765 0.166046
vt 0.074619 0.551673
vt 0.506196 0.265868
vt 0.717820 0.300699
vt 0.267184 0.300150
vt 0.447139 0.393341
vt 0.899015 0.204686
vt 0.041852 0.460056
vt 0.163592 0.014644
vt 0.170662 0.069134
vt 0.348435 0.424120
vt 0.159513 0.462998
vt 0.436961 0.104421
vt 0.579533 0.152679
vt 0.018593 0.086575
vt 0.017349 0.411261
vt 0.464827 0.287185
vt 0.772456 0.340233
vt 0.782441 0.199513
vt 0.785018 0.613212
vt 0.444466 0.336738
vt 0.267273 0.336107
vt 0.447240 0.264249
vt 0.447268 0.318129
vt 0.865371 0.270823
vt 0.146782 0.337956
vt 0.835841 0.041708
vt 0.573900 0.529261
vt 0.739011 0.116075
vt 0.366043 0.092163
vt 0.353299 0.042685
vt 0.161065 0.467278
vt 0.293956 0.079157
vt 0.085851 0.214537
vt 0.133165 0.322735
vt 0.847392 0.444921
vt 0.706813 0.548559
vt 0.417765 0.166046
vt 0.074619 0.551673
vt 0.506196 0.265868
vt 0.717820 0.300699
vt 0.267184 0.393341
vt 0.899015 0.590828
vt 0.394744 0.204686
vt 0.041852 0.255259
vt 0.091407 0.266297
vt 0.937345 0.285061
vt 0.951564 0.279080
vt 0.971109 0.248223
vt 0.877921 0.223871
vt 0.855317 0.220215
vt 0.871576 0.316732
vt 0.817106 0.296500
vt 0.788485 0.275664
vt 0.874158 0.257428
vt 0.854662 0.237965
vt 0.935911 0.246844
vt 0.961593 0.266297
vt 0.937345 0.285061
vt 0.951564 0.279080
vt 0.971109 0.248223
vt 0.877921 0.223871
vt 0.855317 0.220215
vt 0.871576 0.316732
vt 0.817106 0.296500
vt 0.788485 0.275664
vt 0.874158 0.257428
vt 0.854662 0.237965
vt 0.935911 0.246844
vt 0.961593 0.115640
vt 0.830118 0.092163
vt 0.353299 0.104421
vt 0.579533 0.171304
vt 0.641731 0.104421
vt 0.579533 0.069134
vt 0.348435 0.042685
vt 0.161065 0.092163
vt 0.353299 0.014644
vt 0.170662 0.042685
vt 0.161065 0.042685
vt 0.161065 0.080606
vt 0.151993 0.025237
vt 0.072640 0.079157
vt 0.085851 0.042685
vt 0.161065 0.079157
vt 0.085851 0.166046
vt 0.074619 0.166046
vt 0.074619 0.152679
vt 0.018593 0.113758
vt 0.119035 0.080606
vt 0.151993 0.079157
vt 0.085851 0.270823
vt 0.146782 0.214537
vt 0.133165 0.086575
vt 0.017349 0.079157
vt 0.085851 0.025237
vt 0.072640 0.229536
vt 0.189247 0.214537
vt 0.133165 0.176431
vt 0.169606 0.165581
vt 0.111461 0.214537
vt 0.133165 0.393341
vt 0.899015 0.444921
vt 0.706813 0.444921
vt 0.706813 0.329949
vt 0.632004 0.265868
vt 0.717820 0.444921
vt 0.706813 0.340233
vt 0.782441 0.265868
vt 0.717820 0.265868
vt 0.717820 0.185309
vt 0.742502 0.265868
vt 0.717820 0.200205
vt 0.785657 0.265868
vt 0.717820 0.246530
vt 0.801260 0.393341
vt 0.899015 0.444921
vt 0.706813 0.214537
vt 0.133165 0.204686
vt 0.041852 0.255259
vt 0.091407 0.551673
vt 0.506196 0.613212
vt 0.444466 0.613212
vt 0.444466 0.548559
vt 0.417765 0.467278
vt 0.293956 0.437042
vt 0.332348 0.548559
vt 0.417765 0.529261
vt 0.739011 0.551673
vt 0.506196 0.444921
vt 0.706813 0.165581
vt 0.111461 0.166046
vt 0.074619 0.214537
vt 0.133165 0.166046
vt 0.074619 0.204686
vt 0.041852 0.214537
vt 0.133165 0.104421
vt 0.579533 0.115640
vt 0.830118 0.041708
vt 0.573900 0.051217
vt 0.799613 0.462998
vt 0.436961 0.551673
vt 0.506196 0.548559
vt 0.417765 0.551673
vt 0.506196 0.352527
vt 0.540682 0.411261
vt 0.464827 0.551673
vt 0.506196 0.444921
vt 0.706813 0.352527
vt 0.540682 0.337956
vt 0.835841 0.393341
vt 0.899015 0.322738
vt 0.847389 0.548559
vt 0.417765 0.590828
vt 0.394744 0.467278
vt 0.293956 0.551673
vt 0.506196 0.608065
vt 0.512482 0.580281
vt 0.561637 0.329949
vt 0.632004 0.265868
vt 0.717820 0.229749
vt 0.673293 0.265868
vt 0.717820 0.340233
vt 0.782441 0.287185
vt 0.772456 0.300150
vt 0.447139 0.300699
vt 0.267184 0.467278
vt 0.293956 0.503940
vt 0.291157 0.460056
vt 0.163592 0.423275
vt 0.252448 0.467278
vt 0.293956 0.147784
vt 0.534766 0.104421
vt 0.579533 0.318109
vt 0.865250 0.393341
vt 0.899015 0.331573
vt 0.898815 0.152924
vt 0.453474 0.104421
vt 0.579533 0.092163
vt 0.353299 0.116075
vt 0.366043 0.166046
vt 0.074619 0.115640
vt 0.830118 0.092163
vt 0.353299 0.104421
vt 0.579533 0.171304
vt 0.641731 0.104421
vt 0.579533 0.069134
vt 0.348435 0.042685
vt 0.161065 0.092163
vt 0.353299 0.014644
vt 0.170662 0.042685
vt 0.161065 0.042685
vt 0.161065 0.080606
vt 0.151993 0.025237
vt 0.072640 0.042685
vt 0.161065 0.079157
vt 0.085851 0.079157
vt 0.085851 0.166046
vt 0.074619 0.152679
vt 0.018593 0.166046
vt 0.074619 0.113758
vt 0.119035 0.079157
vt 0.085851 0.080606
vt 0.151993 0.270823
vt 0.146782 0.214537
vt 0.133165 0.086575
vt 0.017349 0.025237
vt 0.072640 0.079157
vt 0.085851 0.229536
vt 0.189247 0.214537
vt 0.133165 0.176431
vt 0.169606 0.214537
vt 0.133165 0.165581
vt 0.111461 0.393341
vt 0.899015 0.444921
vt 0.706813 0.444921
vt 0.706813 0.329949
vt 0.632004 0.265868
vt 0.717820 0.444921
vt 0.706813 0.265868
vt 0.717820 0.340233
vt 0.782441 0.265868
vt 0.717820 0.184906
vt 0.743226 0.265868
vt 0.717820 0.200205
vt 0.785657 0.246530
vt 0.801260 0.265868
vt 0.717820 0.444921
vt 0.706813 0.393341
vt 0.899015 0.214537
vt 0.133165 0.255259
vt 0.091407 0.204686
vt 0.041852 0.613212
vt 0.444466 0.551673
vt 0.506196 0.613212
vt 0.444466 0.548559
vt 0.417765 0.467278
vt 0.293956 0.548559
vt 0.417765 0.437042
vt 0.332348 0.444921
vt 0.706813 0.529261
vt 0.739011 0.551673
vt 0.506196 0.165581
vt 0.111461 0.214537
vt 0.133165 0.166046
vt 0.074619 0.166046
vt 0.074619 0.214537
vt 0.133165 0.204686
vt 0.041852 0.051217
vt 0.799613 0.115640
vt 0.830118 0.041708
vt 0.573900 0.104421
vt 0.579533 0.462998
vt 0.436961 0.551673
vt 0.506196 0.548559
vt 0.417765 0.551673
vt 0.506196 0.411261
vt 0.464827 0.352527
vt 0.540682 0.551673
vt 0.506196 0.352527
vt 0.540682 0.444921
vt 0.706813 0.337956
vt 0.835841 0.322738
vt 0.847389 0.393341
vt 0.899015 0.548559
vt 0.417765 0.467278
vt 0.293956 0.590828
vt 0.394744 0.551673
vt 0.506196 0.580281
vt 0.561637 0.608065
vt 0.512482 0.329949
vt 0.632004 0.229749
vt 0.673293 0.265868
vt 0.717820 0.265868
vt 0.717820 0.287185
vt 0.772456 0.340233
vt 0.782441 0.336107
vt 0.447240 0.300150
vt 0.447139 0.300150
vt 0.447139 0.300699
vt 0.267184 0.264249
vt 0.447268 0.492671
vt 0.166284 0.467278
vt 0.293956 0.503940
vt 0.291157 0.460056
vt 0.163592 0.460056
vt 0.163592 0.423275
vt 0.252448 0.467278
vt 0.293956 0.424120
vt 0.159513 0.092163
vt 0.353299 0.104421
vt 0.579533 0.318109
vt 0.865250 0.331573
vt 0.898815 0.393341
vt 0.899015 0.147784
vt 0.534766 0.152924
vt 0.453474 0.104421
vt 0.579533 0.152924
vt 0.453474 0.116075
vt 0.366043 0.092163
vt 0.353299 0.166046
vt 0.074619 0.337956
vt 0.835841 0.340233
vt 0.782441 0.171304
vt 0.641731 0.151916
vt 0.762181 0.115640
vt 0.830118 0.080606
vt 0.151993 0.116075
vt 0.366043 0.041708
vt 0.573900 0.069134
vt 0.348435 0.092163
vt 0.353299 0.104421
vt 0.579533 0.171304
vt 0.641731 0.104421
vt 0.579533 0.147784
vt 0.534766 0.069134
vt 0.348435 0.042685
vt 0.161065 0.092163
vt 0.353299 0.014644
vt 0.170662 0.423275
vt 0.252448 0.437042
vt 0.332348 0.014644
vt 0.170662 0.025237
vt 0.072640 0.042685
vt 0.161065 0.042685
vt 0.161065 0.080606
vt 0.151993 0.025237
vt 0.072640 0.079157
vt 0.085851 0.042685
vt 0.161065 0.113758
vt 0.119035 0.165581
vt 0.111461 0.079157
vt 0.085851 0.152679
vt 0.018593 0.166046
vt 0.074619 0.086575
vt 0.017349 0.204686
vt 0.041852 0.166046
vt 0.074619 0.152679
vt 0.018593 0.255259
vt 0.091407 0.270823
vt 0.146782 0.113758
vt 0.119035 0.080606
vt 0.151993 0.079157
vt 0.085851 0.270823
vt 0.146782 0.229530
vt 0.189306 0.214537
vt 0.133165 0.086575
vt 0.017349 0.079157
vt 0.085851 0.025237
vt 0.072640 0.229536
vt 0.189247 0.176459
vt 0.169639 0.214537
vt 0.133165 0.176431
vt 0.169606 0.165581
vt 0.111461 0.214537
vt 0.133165 0.322735
vt 0.847392 0.393341
vt 0.899015 0.318129
vt 0.865371 0.352527
vt 0.540682 0.444921
vt 0.706813 0.329949
vt 0.632004 0.444921
vt 0.706813 0.329949
vt 0.632004 0.265868
vt 0.717820 0.185344
vt 0.739806 0.229560
vt 0.673428 0.444921
vt 0.706813 0.340233
vt 0.782441 0.265868
vt 0.717820 0.265868
vt 0.717820 0.287185
vt 0.772456 0.246530
vt 0.801260 0.185309
vt 0.742502 0.265868
vt 0.717820 0.199513
vt 0.785018 0.200205
vt 0.785657 0.265868
vt 0.717820 0.246530
vt 0.801260 0.428370
vt 0.958100 0.393341
vt 0.899015 0.529261
vt 0.739011 0.444921
vt 0.706813 0.214537
vt 0.133165 0.204686
vt 0.041852 0.255259
vt 0.091407 0.613212
vt 0.444466 0.608065
vt 0.512482 0.551673
vt 0.506196 0.613212
vt 0.444466 0.613212
vt 0.444466 0.548559
vt 0.417765 0.590828
vt 0.394744 0.467278
vt 0.293956 0.462998
vt 0.436961 0.437042
vt 0.332348 0.548559
vt 0.417765 0.580281
vt 0.561637 0.529261
vt 0.739011 0.444921
vt 0.706813 0.551673
vt 0.506196 0.165581
vt 0.111461 0.166046
vt 0.074619 0.214537
vt 0.133165 0.166046
vt 0.074619 0.204686
vt 0.041852 0.214537
vt 0.133165 0.104421
vt 0.579533 0.115640
vt 0.830118 0.041708
vt 0.573900 0.051217
vt 0.799613 0.462998
vt 0.436961 0.551673
vt 0.506196 0.411261
vt 0.464827 0.548559
vt 0.417765 0.551673
vt 0.506196 0.352527
vt 0.540682 0.411261
vt 0.464827 0.551673
vt 0.506196 0.444921
vt 0.706813 0.352527
vt 0.540682 0.337956
vt 0.835841 0.393341
vt 0.899015 0.322738
vt 0.847389 0.548559
vt 0.417765 0.503940
vt 0.291157 0.590828
vt 0.394744 0.467278
vt 0.293956 0.551673
vt 0.506196 0.608065
vt 0.512482 0.580281
vt 0.561637 0.329949
vt 0.632004 0.265868
vt 0.717820 0.229749
vt 0.673293 0.265868
vt 0.717820 0.340233
vt 0.782441 0.287185
vt 0.772456 0.336107
vt 0.447240 0.336738
vt 0.267273 0.264875
vt 0.267223 0.300150
vt 0.447139 0.264249
vt 0.447268 0.300699
vt 0.267184 0.492671
vt 0.166284 0.467278
vt 0.293956 0.503940
vt 0.291157 0.460056
vt 0.163592 0.423275
vt 0.252448 0.424120
vt 0.159513 0.467278
vt 0.293956 0.147784
vt 0.534766 0.104421
vt 0.579533 0.152924
vt 0.453474 0.318109
vt 0.865250 0.393341
vt 0.899015 0.331573
vt 0.898815 0.152924
vt 0.453474 0.104421
vt 0.579533 0.092163
vt 0.353299 0.116075
vt 0.366043 0.166046
vt 0.074619 0.340233
vt 0.782441 0.337956
vt 0.835841 0.115640
vt 0.830118 0.151916
vt 0.762181 0.171304
vt 0.641731 0.080606
vt 0.151993 0.116075
vt 0.366043 0.092163
vt 0.353299 0.069134
vt 0.348435 0.041708
vt 0.573900 0.104421
vt 0.579533 0.171304
vt 0.641731 0.147784
vt 0.534766 0.104421
vt 0.579533 0.069134
vt 0.348435 0.042685
vt 0.161065 0.014644
vt 0.170662 0.092163
vt 0.353299 0.423275
vt 0.252448 0.437042
vt 0.332348 0.014644
vt 0.170662 0.042685
vt 0.161065 0.025237
vt 0.072640 0.042685
vt 0.161065 0.080606
vt 0.151993 0.025237
vt 0.072640 0.042685
vt 0.161065 0.079157
vt 0.085851 0.113758
vt 0.119035 0.165581
vt 0.111461 0.079157
vt 0.085851 0.152679
vt 0.018593 0.086575
vt 0.017349 0.166046
vt 0.074619 0.204686
vt 0.041852 0.152679
vt 0.018593 0.166046
vt 0.074619 0.255259
vt 0.091407 0.270823
vt 0.146782 0.113758
vt 0.119035 0.079157
vt 0.085851 0.080606
vt 0.151993 0.270823
vt 0.146782 0.214537
vt 0.133165 0.229530
vt 0.189306 0.086575
vt 0.017349 0.025237
vt 0.072640 0.079157
vt 0.085851 0.229536
vt 0.189247 0.214537
vt 0.133165 0.176459
vt 0.169639 0.176431
vt 0.169606 0.214537
vt 0.133165 0.165581
vt 0.111461 0.322735
vt 0.847392 0.318129
vt 0.865371 0.393341
vt 0.899015 0.352527
vt 0.540682 0.329949
vt 0.632004 0.444921
vt 0.706813 0.444921
vt 0.706813 0.329949
vt 0.632004 0.265868
vt 0.717820 0.229560
vt 0.673428 0.186130
vt 0.738614 0.444921
vt 0.706813 0.265868
vt 0.717820 0.340233
vt 0.782441 0.265868
vt 0.717820 0.246530
vt 0.801260 0.287185
vt 0.772456 0.184906
vt 0.743226 0.199513
vt 0.785018 0.265868
vt 0.717820 0.200205
vt 0.785657 0.246530
vt 0.801260 0.265868
vt 0.717820 0.444921
vt 0.706813 0.393341
vt 0.899015 0.529261
vt 0.739011 0.428370
vt 0.958100 0.214537
vt 0.133165 0.255259
vt 0.091407 0.204686
vt 0.041852 0.613212
vt 0.444466 0.608065
vt 0.512482 0.613212
vt 0.444466 0.551673
vt 0.506196 0.613212
vt 0.444466 0.590828
vt 0.394744 0.548559
vt 0.417765 0.467278
vt 0.293956 0.462998
vt 0.436961 0.548559
vt 0.417765 0.437042
vt 0.332348 0.444921
vt 0.706813 0.529261
vt 0.739011 0.551673
vt 0.506196 0.580281
vt 0.561637 0.165581
vt 0.111461 0.214537
vt 0.133165 0.166046
vt 0.074619 0.166046
vt 0.074619 0.214537
vt 0.133165 0.204686
vt 0.041852 0.051217
vt 0.799613 0.115640
vt 0.830118 0.041708
vt 0.573900 0.104421
vt 0.579533 0.462998
vt 0.436961 0.551673
vt 0.506196 0.548559
vt 0.417765 0.411261
vt 0.464827 0.551673
vt 0.506196 0.411261
vt 0.464827 0.352527
vt 0.540682 0.551673
vt 0.506196 0.352527
vt 0.540682 0.444921
vt 0.706813 0.337956
vt 0.835841 0.322738
vt 0.847389 0.393341
vt 0.899015 0.548559
vt 0.417765 0.503940
vt 0.291157 0.467278
vt 0.293956 0.590828
vt 0.394744 0.551673
vt 0.506196 0.580281
vt 0.561637 0.608065
vt 0.512482 0.329949
vt 0.632004 0.229749
vt 0.673293 0.265868
vt 0.717820 0.265868
vt 0.717820 0.287185
vt 0.772456 0.340233
vt 0.782441 0.336107
vt 0.447240 0.336738
vt 0.267273 0.300150
vt 0.447139 0.264875
vt 0.267223 0.300150
vt 0.447139 0.300699
vt 0.267184 0.264249
vt 0.447268 0.492671
vt 0.166284 0.467278
vt 0.293956 0.503940
vt 0.291157 0.460056
vt 0.163592 0.460056
vt 0.163592 0.423275
vt 0.252448 0.467278
vt 0.293956 0.424120
vt 0.159513 0.147784
vt 0.534766 0.152924
vt 0.453474 0.104421
vt 0.579533 0.318109
vt 0.865250 0.331573
vt 0.898815 0.393341
vt 0.899015 0.092163
vt 0.353299 0.104421
vt 0.579533 0.152924
vt 0.453474 0.116075
vt 0.366043 0.166046
vt 0.074619 0.275664
vt 0.874158 0.246844
vt 0.961593 0.275664
vt 0.874158 0.248223
vt 0.877921 0.257428
vt 0.854662 0.248223
vt 0.877921 0.257428
vt 0.854662 0.275664
vt 0.874158 0.246844
vt 0.961593 0.275664
vt 0.874158 0.257428
vt 0.854662 0.248223
vt 0.877921 0.248223
vt 0.877921 0.257428
vt 0.854662 1.000000

f 127/127 119/119 23/23
f 23/23 33/33 127/127
f 14/14 6/6 171/171
f 171/171 3/3 14/14
f 15/15 16/16 17/17
f 16/16 15/15 130/130
f 111/111 172/172 128/128
f 173/173 128/128 172/172
f 174/174 175/175 8/8
f 176/176 177/177 178/178
f 177/177 176/176 110/110
f 2/2 18/18 19/19
f 179/179 4/4 180/180
f 181/181 20/20 182/182
f 183/183 184/184 185/185
f 5/5 28/28 12/12
f 186/186 115/115 187/187
f 115/115 186/186 116/116
f 145/145 188/188 189/189
f 146/146 126/126 21/21
f 190/190 191/191 192/192
f 193/193 10/10 194/194
f 195/195 196/196 197/197
f 198/198 11/11 199/199
f 200/200 201/201 202/202
f 136/136 203/203 125/125
f 1/1 204/204 22/22
f 205/205 31/31 206/206
f 207/207 25/25 24/24
f 208/208 209/209 210/210
f 211/211 118/118 26/26
f 212/212 213/213 120/120
f 214/214 215/215 216/216
f 29/29 217/217 129/129
f 218/218 129/129 217/217
f 219/219 220/220 221/221
f 30/30 27/27 121/121
f 36/36 222/222 223/223
f 224/224 225/225 144/144
f 226/226 113/113 227/227
f 113/113 226/226 228/228
f 34/34 229/229 230/230
f 231/231 230/230 229/229
f 232/232 233/233 234/234
f 235/235 236/236 237/237
f 238/238 239/239 240/240
f 241/241 240/240 239/239
f 242/242 243/243 117/117
f 243/243 242/242 244/244
f 245/245 246/246 247/247
f 248/248 249/249 250/250
f 251/251 252/252 253/253
f 254/254 35/35 255/255
f 35/35 254/254 256/256
f 257/257 258/258 259/259
f 260/260 261/261 262/262
f 263/263 264/264 265/265
f 32/32 123/123 70/70
f 123/123 32/32 122/122
f 7/7 266/266 124/124
f 266/266 7/7 267/267
f 13/13 268/268 77/77
f 268/268 13/13 269/269
f 270/270 271/271 112/112
f 271/271 270/270 272/272
f 273/273 274/274 9/9
f 275/275 276/276 277/277
f 278/278 279/279 280/280
f 280/280 281/281 278/278
f 190/190 192/192 282/282
f 62/62 43/43 90/90
f 90/90 71/71 62/62
f 283/283 84/84 51/51
f 51/51 39/39 283/283
f 52/52 56/56 55/55
f 56/56 52/52 57/57
f 284/284 79/79 53/53
f 53/53 285/285 284/284
f 286/286 45/45 287/287
f 288/288 289/289 78/78
f 289/289 288/288 290/290
f 80/80 94/94 58/58
f 291/291 292/292 40/40
f 293/293 294/294 59/59
f 295/295 296/296 297/297
f 83/83 50/50 65/65
f 298/298 82/82 41/41
f 82/82 298/298 299/299
f 108/108 300/300 301/301
f 74/74 60/60 48/48
f 302/302 303/303 304/304
f 305/305 306/306 89/89
f 307/307 308/308 309/309
f 310/310 311/311 49/49
f 312/312 313/313 314/314
f 97/97 46/46 315/315
f 37/37 61/61 316/316
f 317/317 318/318 68/68
f 319/319 99/99 63/63
f 320/320 321/321 322/322
f 323/323 100/100 85/85
f 324/324 86/86 325/325
f 326/326 327/327 328/328
f 329/329 330/330 54/54
f 66/66 54/54 330/330
f 331/331 332/332 333/333
f 67/67 44/44 64/64
f 76/76 334/334 335/335
f 336/336 72/72 337/337
f 338/338 38/38 339/339
f 38/38 338/338 340/340
f 341/341 342/342 343/343
f 73/73 343/343 342/342
f 344/344 345/345 346/346
f 347/347 348/348 349/349
f 350/350 351/351 352/352
f 353/353 352/352 351/351
f 354/354 355/355 356/356
f 355/355 354/354 42/42
f 357/357 358/358 359/359
f 360/360 361/361 362/362
f 363/363 364/364 365/365
f 366/366 75/75 367/367
f 75/75 366/366 368/368
f 369/369 370/370 371/371
f 372/372 373/373 374/374
f 375/375 376/376 377/377
f 69/69 378/378 87/87
f 378/378 69/69 379/379
f 88/88 380/380 381/381
f 380/380 88/88 382/382
f 383/383 384/384 385/385
f 384/384 383/383 386/386
f 387/387 388/388 389/389
f 388/388 387/387 390/390
f 391/391 392/392 47/47
f 393/393 394/394 395/395
f 396/396 397/397 398/398
f 399/399 400/400 401/401
f 302/302 402/402 303/303
f 403/403 404/404 98/98
f 98/98 107/107 403/403
f 405/405 406/406 407/407
f 407/407 81/81 405/405
f 408/408 91/91 92/92
f 91/91 408/408 409/409
f 410/410 411/411 412/412
f 412/412 413/413 410/410
f 414/414 415/415 416/416
f 417/417 418/418 419/419
f 418/418 417/417 420/420
f 421/421 93/93 422/422
f 423/423 424/424 425/425
f 426/426 95/95 427/427
f 428/428 429/429 430/430
f 431/431 102/102 432/432
f 433/433 434/434 435/435
f 434/434 433/433 436/436
f 437/437 438/438 439/439
f 440/440 441/441 96/96
f 442/442 443/443 444/444
f 445/445 446/446 447/447
f 448/448 449/449 450/450
f 451/451 452/452 453/453
f 454/454 455/455 456/456
f 457/457 458/458 459/459
f 460/460 461/461 462/462
f 463/463 104/104 464/464
f 465/465 466/466 467/467
f 468/468 469/469 470/470
f 471/471 472/472 473/473
f 474/474 475/475 476/476
f 477/477 478/478 479/479
f 480/480 481/481 482/482
f 483/483 482/482 481/481
f 484/484 485/485 486/486
f 103/103 101/101 487/487
f 488/488 489/489 490/490
f 491/491 492/492 493/493
f 494/494 495/495 496/496
f 495/495 494/494 497/497
f 498/498 499/499 500/500
f 500/500 501/501 498/498
f 502/502 503/503 504/504
f 505/505 506/506 507/507
f 508/508 509/509 510/510
f 511/511 510/510 509/509
f 512/512 513/513 514/514
f 513/513 512/512 515/515
f 516/516 517/517 518/518
f 519/519 520/520 521/521
f 522/522 523/523 524/524
f 525/525 526/526 527/527
f 526/526 525/525 528/528
f 529/529 530/530 531/531
f 532/532 533/533 534/534
f 535/535 536/536 537/537
f 105/105 538/538 106/106
f 538/538 105/105 539/539
f 540/540 541/541 542/542
f 541/541 540/540 543/543
f 544/544 545/545 109/109
f 545/545 544/544 546/546
f 547/547 548/548 549/549
f 548/548 547/547 550/550
f 551/551 552/552 553/553
f 554/554 555/555 556/556
f 557/557 558/558 559/559
f 559/559 560/560 557/557
f 442/442 444/444 561/561
f 137/137 562/562 563/563
f 563/563 143/143 137/137
f 564/564 565/565 566/566
f 566/566 114/114 564/564
f 567/567 131/131 568/568
f 131/131 567/567 132/132
f 569/569 570/570 571/571
f 571/571 572/572 569/569
f 573/573 574/574 575/575
f 576/576 577/577 578/578
f 577/577 576/576 579/579
f 580/580 581/581 133/133
f 582/582 583/583 584/584
f 585/585 586/586 134/134
f 587/587 588/588 589/589
f 590/590 591/591 139/139
f 592/592 593/593 594/594
f 593/593 592/592 595/595
f 596/596 597/597 598/598
f 599/599 135/135 600/600
f 601/601 602/602 603/603
f 604/604 605/605 606/606
f 607/607 608/608 609/609
f 610/610 611/611 612/612
f 613/613 614/614 615/615
f 616/616 617/617 618/618
f 619/619 620/620 621/621
f 622/622 623/623 141/141
f 624/624 625/625 626/626
f 627/627 628/628 629/629
f 630/630 631/631 632/632
f 633/633 634/634 635/635
f 636/636 637/637 638/638
f 639/639 640/640 641/641
f 642/642 641/641 640/640
f 643/643 644/644 645/645
f 140/140 646/646 138/138
f 647/647 648/648 649/649
f 650/650 651/651 652/652
f 653/653 654/654 655/655
f 654/654 653/653 656/656
f 657/657 658/658 659/659
f 660/660 659/659 658/658
f 661/661 662/662 663/663
f 664/664 665/665 666/666
f 667/667 668/668 669/669
f 670/670 669/669 668/668
f 671/671 672/672 673/673
f 672/672 671/671 674/674
f 675/675 676/676 677/677
f 678/678 679/679 680/680
f 681/681 682/682 683/683
f 684/684 685/685 686/686
f 685/685 684/684 687/687
f 688/688 689/689 690/690
f 691/691 692/692 693/693
f 694/694 695/695 696/696
f 142/142 697/697 698/698
f 697/697 142/142 699/699
f 700/700 701/701 702/702
f 701/701 700/700 703/703
f 704/704 705/705 706/706
f 705/705 704/704 707/707
f 708/708 709/709 710/710
f 709/709 708/708 711/711
f 712/712 713/713 714/714
f 715/715 716/716 717/717
f 718/718 719/719 720/720
f 720/720 721/721 718/718
f 601/601 722/722 602/602
f 153/153 156/156 154/154
f 156/156 153/153 155/155
f 723/723 157/157 150/150
f 157/157 723/723 147/147
f 157/157 147/147 158/158
f 147/147 149/149 724/724
f 149/149 147/147 148/148
f 725/725 726/726 727/727
f 728/728 151/151 729/729
f 151/151 728/728 152/152
f 165/165 166/166 168/168
f 168/168 167/167 165/165
f 730/730 162/162 169/169
f 169/169 159/159 730/730
f 169/169 170/170 159/159
f 159/159 731/731 161/161
f 161/161 160/160 159/159
f 732/732 733/733 734/734
f 735/735 736/736 163/163
f 163/163 164/164 735/735
