# MOD converted: d_m_costume_cow_hair.mod
# 405 verts, 30 faces

v 123.162422 -1.953721 10.164430
v 121.276978 15.250975 -0.000002
v 118.833130 17.244804 -0.000000
v 113.117775 -15.004803 9.364471
v 117.926453 -10.689809 10.161234
v 124.724571 15.117041 -0.000001
v 123.026794 17.996975 -0.000000
v 121.148293 -16.685913 11.311007
v 123.457253 -10.704732 16.103088
v 129.160202 -2.421711 10.164374
v 127.682365 17.090311 -0.000001
v 126.295128 19.963282 0.000001
v 127.123352 -17.396206 11.797714
v 128.483673 -11.570196 15.978453
v 123.882195 9.715481 16.567211
v 129.223267 9.985241 -15.104843
v 123.162422 -1.953720 -10.164361
v 121.276978 15.250894 -9.364488
v 117.926453 -10.689831 -10.161237
v 124.724579 15.117044 -11.311001
v 123.457268 -10.704737 -16.103085
v 129.160202 -2.421710 -10.164374
v 127.682365 17.090311 -11.797716
v 128.483673 -11.570198 -15.978457
v 123.882195 9.715479 -16.567204
v 129.223282 9.985244 12.123635
v 124.198753 13.578122 12.177778
v 127.123474 12.606064 21.461109
v 128.617706 15.740931 19.254761
v 123.170700 19.171625 20.624126
v 132.203064 15.373804 28.822105
v 129.415451 20.007450 26.108147
v 124.531723 23.414930 27.119911
v 134.157806 21.816650 35.586285
v 130.904465 28.772953 17.078243
v 120.116898 12.801492 20.088737
v 123.141586 9.565230 11.777195
v 125.838829 11.802187 18.791031
v 127.741821 12.563286 14.350739
v 127.341316 12.421249 23.299133
v 117.398003 15.102953 26.561470
v 120.102310 11.216360 28.578045
v 123.610794 14.871589 33.804146
v 116.286392 15.581032 -0.000001
v 123.490410 2.688551 -0.000001
v 124.232208 1.831709 -0.000001
v 184.968704 10.812172 -0.000000
v 152.412170 32.608421 -0.000002
v 183.271576 18.564392 0.000000
v 133.262817 31.672934 -0.000003
v 176.977646 26.303768 -0.000002
v 166.485229 30.988914 -0.000000
v 129.166199 27.292641 0.000001
v 128.725998 -3.807319 0.000002
v 174.147675 -22.670876 -0.000001
v 164.184235 -22.664555 -0.000001
v 168.092087 -24.968016 -0.000001
v 184.512695 -7.927370 0.000001
v 125.810654 -9.063745 -0.000001
v 167.602203 -5.474470 -0.000001
v 186.269775 2.687341 -0.000000
v 179.854431 -16.855103 16.435467
v 153.881470 -0.831304 26.723785
v 135.453262 6.234015 24.741901
v 134.710999 19.853392 10.696468
v 182.533600 13.729359 18.040913
v 176.494141 9.082117 12.300046
v 176.882416 20.692707 26.225487
v 153.722855 6.384123 24.206253
v 153.371292 18.842779 20.031212
v 169.635971 16.514330 15.411472
v 153.072769 27.484381 17.202534
v 130.011383 20.529318 14.266485
v 167.373978 26.431826 22.349808
v 130.878601 4.766910 16.263294
v 133.953156 27.621962 20.457912
v 173.556503 1.806078 17.038994
v 136.529434 -0.942081 16.452812
v 172.539902 -12.536900 10.120836
v 165.114380 -18.968563 19.255379
v 131.734406 -2.629633 10.525968
v 127.676514 -7.039162 22.679001
v 136.316116 -1.196092 23.212566
v 154.306763 -1.590556 11.930776
v 176.336151 -14.104259 19.312054
v 169.175537 -5.712477 10.114005
v 169.664978 -21.227770 12.079951
v 172.151398 -16.033470 11.733145
v 167.133240 -13.972101 15.303821
v 162.895065 -2.969212 8.199822
v 183.084656 -1.532403 30.874542
v 159.350693 18.067364 24.851810
v 173.639420 6.482472 25.066303
v 170.173645 3.622030 35.681767
v 170.903656 11.083966 35.538879
v 167.958420 5.457101 45.513878
v 159.526947 11.431667 8.914631
v 187.193802 4.158462 8.881402
v 175.131851 -19.390892 8.048841
v 181.159195 -10.548189 12.968617
v 182.707169 7.655334 16.730167
v 167.418137 -11.334921 14.353683
v 179.302811 -8.578823 16.900089
v 179.028748 0.486876 24.714813
v 162.799393 5.380022 42.289440
v 157.334778 15.048044 42.869678
v 162.625137 14.335073 33.083588
v 168.138199 12.644219 21.549313
v 170.755341 8.108246 27.191719
v 169.742950 16.808445 18.697590
v 174.992859 -7.051243 21.553638
v 163.285034 -3.252114 10.976154
v 131.078735 -3.263731 6.111877
v 164.294052 -21.640289 6.374753
v 168.509476 -23.838011 -16.435452
v 153.881439 -0.831299 -26.723785
v 135.453262 6.234016 -24.741901
v 134.710999 19.853395 -10.696474
v 182.533585 13.729364 -18.040897
v 176.494125 9.082123 -12.300055
v 176.882416 20.692705 -26.225483
v 153.722839 6.384131 -24.206253
v 153.371277 18.842787 -20.031200
v 169.635971 16.514336 -15.411472
v 153.072769 27.484377 -17.202534
v 130.011353 20.529322 -14.266490
v 167.373978 26.431824 -22.349808
v 130.878601 4.766911 -16.263294
v 133.953125 27.621962 -20.457897
v 173.556488 1.806082 -17.038979
v 136.529434 -0.942081 -16.452801
v 172.539902 -12.536901 -10.120841
v 165.114380 -18.968563 -19.255371
v 131.734375 -2.629630 -10.525967
v 127.676498 -7.039162 -22.678989
v 136.316086 -1.196097 -23.212555
v 154.306763 -1.590556 -11.930779
v 176.336151 -14.104258 -19.312057
v 169.175537 -5.712480 -10.113998
v 169.664978 -21.227772 -12.079954
v 172.151398 -16.033474 -11.733147
v 167.133240 -13.972102 -15.303823
v 162.895050 -2.969207 -8.199827
v 183.084625 -1.532401 -30.874531
v 159.350677 18.067373 -24.851795
v 173.639389 6.482476 -25.066296
v 170.173645 3.622032 -35.681770
v 170.903625 11.083971 -35.538879
v 167.958405 5.457102 -45.513889
v 159.526917 11.431671 -8.914631
v 187.193802 4.158464 -8.881405
v 175.131836 -19.390894 -8.048844
v 181.159195 -10.548191 -12.968618
v 182.707169 7.655336 -16.730167
v 167.418106 -11.334918 -14.353684
v 179.302811 -8.578817 -16.900089
v 179.028732 0.486877 -24.714813
v 162.799377 5.380025 -42.289448
v 157.334732 15.048055 -42.869675
v 162.625076 14.335091 -33.083584
v 168.138168 12.644228 -21.549313
v 170.755325 8.108252 -27.191715
v 169.742950 16.808449 -18.697578
v 174.992859 -7.051245 -21.553627
v 163.285034 -3.252109 -10.976154
v 131.078720 -3.263730 -6.111871
v 164.294052 -21.640293 -6.374744
v 168.509476 -23.838013 20.990665
v 155.360718 0.279538 -20.990650
v 155.360718 -2.921196 -17.712250
v 156.700607 -8.190352 -16.601875
v 165.898224 -8.034929 -20.171040
v 147.439072 0.677214 -20.849930
v 147.462982 -4.107922 -16.723011
v 147.817352 -7.445102 -15.636453
v 138.383759 -7.269055 -19.362808
v 137.377090 -5.045035 -17.646400
v 136.321091 -2.196648 -13.098020
v 129.422989 -9.490358 -16.590511
v 132.534500 -7.007395 -13.589815
v 128.710938 -7.054314 17.712276
v 156.700638 -8.190344 17.528294
v 164.100479 -4.227986 20.171051
v 147.439087 0.677209 21.837334
v 147.463013 -4.107914 16.723026
v 147.817352 -7.445091 16.262699
v 138.383759 -7.269051 20.334988
v 137.377106 -5.045045 17.646416
v 136.434921 -1.743363 13.724256
v 129.423004 -9.490363 17.216759
v 132.534515 -7.007386 0.000009
v 162.982010 -15.218309 13.670678
v 160.285980 -12.415223 7.582787
v 162.457047 -14.339419 8.894860
v 168.210571 -12.090500 -0.050212
v 172.140152 -13.274975 -13.670669
v 160.285965 -12.415222 -7.582774
v 162.457047 -14.339420 -16.365185
v 167.760468 -7.790171 -11.125200
v 167.609238 -12.465611 5.865697
v 171.355499 -12.285748 14.221628
v 168.510300 -9.635746 20.201691
v 163.705383 -6.857493 20.302116
v 155.363419 -6.285724 -13.565331
v 164.630981 -16.280510 -1.270903
v 155.824768 -21.373131 -11.009037
v 153.711731 -19.026855 -7.757045
v 148.428009 -18.089767 -7.721160
v 152.030304 -20.286016 -9.113970
v 146.971024 -16.978270 -0.375834
v 165.678497 -20.297926 -6.948594
v 157.162048 -21.044109 -5.899025
v 165.411484 -19.480520 -16.444607
v 155.961990 -15.539923 -14.511112
v 145.704895 -11.048061 -20.083958
v 162.386169 -8.222482 -20.278126
v 158.165314 -11.089115 -13.259751
v 149.942902 -15.362560 -16.236668
v 151.374161 -14.509363 -18.482105
v 152.283813 -11.334251 -10.626208
v 161.239853 -19.174894 -20.236706
v 163.074020 -9.863167 -14.387944
v 157.233658 -16.794558 -17.549248
v 160.343933 -15.728346 -21.560379
v 157.941910 -9.838768 -18.783253
v 153.912033 -14.766574 -22.030006
v 151.313309 -8.801609 12.095558
v 163.286652 -15.874973 16.884781
v 164.033325 -12.726942 8.183474
v 161.399597 -16.506521 5.834929
v 167.352722 -18.155024 3.938129
v 154.953445 -18.589354 -1.871177
v 148.936279 -19.369778 16.323132
v 156.364090 -16.238312 11.361204
v 157.178802 -15.924470 17.293446
v 153.182098 -11.961761 14.757842
v 152.501617 -15.160641 19.526566
v 148.925720 -12.854089 20.841843
v 144.774612 -4.880078 20.386406
v 157.043106 -12.608134 15.492656
v 157.297058 -17.181252 22.186287
v 157.118240 -7.479586 22.369434
v 148.944733 -11.401545 21.741882
v 150.584015 -8.033802 3.073682
v 158.870331 -21.387468 13.044274
v 159.539520 -15.266624 15.648727
v 168.202515 -5.381499 15.942520
v 169.242081 -4.848374 19.206249
v 163.563431 0.474137 21.340454
v 155.665085 -0.342157 22.323235
v 146.746689 -2.096732 -17.534985
v 169.548065 -1.074546 -20.886223
v 162.616821 0.723221 -22.626965
v 159.568146 -5.076450 -21.356258
v 163.874008 -3.977699 -23.474739
v 153.953766 -4.906532 -21.707912
v 155.054321 0.540327 -20.711796
v 148.602829 -5.666277 -23.303318
v 149.293457 -3.059206 -22.384464
v 149.941254 0.411472 -21.022160
v 145.486282 -0.142445 -22.724422
v 155.079697 -6.866376 22.495777
v 155.590866 -4.179017 5.902612
v 182.617645 7.422440 4.834486
v 186.257248 4.382145 4.171283
v 183.622742 0.350952 5.239405
v 179.983124 3.391248 14.636176
v 183.216415 6.861470 13.568053
v 186.856018 3.821173 12.904846
v 184.221527 -0.210020 13.972974
v 180.581909 2.830275 24.941624
v 184.577072 5.554255 22.305153
v 187.538834 3.233444 21.983925
v 184.918121 -0.879984 25.008385
v 182.459961 1.477211 33.096184
v 188.225647 0.527221 28.572605
v 189.825104 0.153185 28.765228
v 187.145721 -3.769798 33.880535
v 185.998779 -1.668470 34.503948
v 194.348923 -5.457106 30.205173
v 194.175644 -5.079659 30.621418
v 190.963516 -8.070742 35.325733
v 191.244110 -7.741518 19.796925
v 199.298584 -17.253368 29.466274
v 198.260956 -11.312813 27.080475
v 197.324249 -10.277433 27.324310
v 195.115051 -12.059181 29.245564
v 196.241913 -13.925131 -5.902615
v 182.617645 7.422440 -4.834487
v 186.257233 4.382146 -4.171285
v 183.622742 0.350953 -5.239408
v 179.983124 3.391248 -14.636181
v 183.216415 6.861472 -13.568053
v 186.856003 3.821176 -12.904847
v 184.221527 -0.210018 -13.972974
v 180.581909 2.830277 -24.941616
v 184.577057 5.554258 -22.305157
v 187.538818 3.233446 -21.983925
v 184.918106 -0.879984 -25.008381
v 182.459946 1.477215 -33.096184
v 188.225647 0.527224 -28.572605
v 189.825104 0.153184 -28.765228
v 187.145706 -3.769793 -33.880543
v 185.998764 -1.668486 -34.503948
v 194.348907 -5.457100 -30.205173
v 194.175629 -5.079653 -30.621418
v 190.963516 -8.070735 -35.325733
v 191.244095 -7.741519 -19.796917
v 199.298553 -17.253370 -29.466278
v 198.260956 -11.312801 -27.080479
v 197.324249 -10.277423 -27.324310
v 195.115021 -12.059172 -29.245567
v 196.241898 -13.925124 -0.000001
v 125.272354 2.160083 10.161234
v 124.724571 15.117041 10.164430
v 121.276978 15.250975 10.164374
v 127.682365 17.090311 -0.000002
v 118.833130 17.244804 10.164430
v 121.276978 15.250975 9.364471
v 117.926453 -10.689809 -0.000000
v 113.117775 -15.004803 15.104843
v 123.162422 -1.953721 15.978453
v 123.882195 9.715481 -10.164361
v 121.276978 15.250894 -9.364488
v 117.926453 -10.689831 -15.104843
v 123.162422 -1.953720 -15.978457
v 123.882195 9.715479 20.031212
v 169.635971 16.514330 20.457912
v 173.556503 1.806078 18.040913
v 176.494141 9.082117 20.031212
v 169.635971 16.514330 42.289440
v 157.334778 15.048044 21.549313
v 170.755341 8.108246 30.874542
v 159.350693 18.067364 -0.000001
v 124.232208 1.831709 0.000000
v 133.262817 31.672934 -0.000000
v 152.412170 32.608421 -0.000000
v 129.166199 27.292641 -0.000002
v 166.485229 30.988914 -0.000002
v 183.271576 18.564392 -0.000001
v 184.968704 10.812172 -0.000001
v 184.512695 -7.927370 0.000001
v 125.810654 -9.063745 -0.000001
v 167.602203 -5.474470 -0.000001
v 168.092087 -24.968016 0.000001
v 128.725998 -3.807319 -0.000001
v 186.269775 2.687341 -0.000000
v 179.854431 -16.855103 0.000002
v 174.147675 -22.670876 -20.031200
v 169.635971 16.514336 -20.457897
v 173.556488 1.806082 -20.031200
v 169.635971 16.514336 -18.040897
v 176.494125 9.082123 -42.289448
v 157.334732 15.048055 -21.549313
v 170.755325 8.108252 -30.874531
v 159.350677 18.067373 -0.000001
v 164.184235 -22.664555 13.724256
v 129.423004 -9.490363 -0.050212
v 172.140152 -13.274975 -13.565331
v 164.630981 -16.280510 -5.899025
v 165.411484 -19.480520 -0.050212
v 172.140152 -13.274975 -11.125200
v 167.609238 -12.465611 -16.365185
v 167.760468 -7.790171 14.221628
v 168.510300 -9.635746 8.894860
v 168.210571 -12.090500 5.865697
v 171.355499 -12.285748 15.648727
v 168.202515 -5.381499 17.528294
v 164.100479 -4.227986 20.201691
v 163.705383 -6.857493 -20.083958
v 162.386169 -8.222482 -20.278126
v 158.165314 -11.089115 -18.482105
v 152.283813 -11.334251 -21.356258
v 163.874008 -3.977699 -20.236706
v 163.074020 -9.863167 -22.626965
v 159.568146 -5.076450 -21.560379
v 157.941910 -9.838768 -22.030006
v 151.313309 -8.801609 -16.365185
v 167.760468 -7.790171 -17.534985
v 169.548065 -1.074546 20.201691
v 163.705383 -6.857493 20.302116
v 155.363419 -6.285724 15.942520
v 169.242081 -4.848374 5.239405
v 179.983124 3.391248 13.972974
v 180.581909 2.830275 25.008385
v 182.459961 1.477211 33.880535
v 185.998779 -1.668470 35.325733
v 191.244110 -7.741518 29.245564
v 196.241913 -13.925131 -5.239408
v 179.983124 3.391248 -13.972974
v 180.581909 2.830277 -25.008381
v 182.459946 1.477215 -33.880543
v 185.998764 -1.668486 -35.325733
v 191.244095 -7.741519 -29.245567
v 196.241898 -13.925124 0.000001
v 127.123352 -17.396206 11.797714
v 128.483673 -11.570196 16.103088
v 129.160202 -2.421711 16.567211
v 129.223267 9.985241 10.164374
v 127.682365 17.090311 -0.000001
v 126.295128 19.963282 -11.797716
v 128.483673 -11.570198 -16.103085
v 129.160202 -2.421710 -16.567204
v 129.223282 9.985244 -10.164374
v 127.682365 17.090311 0.911806

vt 0.922113 0.516453
vt 0.887001 0.472753
vt 0.872047 0.213546
vt 0.819938 0.151947
vt 0.871045 0.516610
vt 0.930904 0.473149
vt 0.932628 0.214854
vt 0.912062 0.142372
vt 0.935581 0.086323
vt 0.997854 0.516622
vt 0.997485 0.473782
vt 0.997743 0.215830
vt 0.997258 0.142119
vt 0.997974 0.038093
vt 0.921622 0.038116
vt 0.997868 0.336424
vt 0.907438 0.430194
vt 0.891740 0.276480
vt 0.863944 0.429072
vt 0.936966 0.287870
vt 0.927244 0.340228
vt 0.997063 0.431250
vt 0.997834 0.289811
vt 0.997532 0.393723
vt 0.903837 0.389046
vt 0.996866 0.004612
vt 0.753098 0.008983
vt 0.806526 0.080171
vt 0.786890 0.060343
vt 0.683061 0.077514
vt 0.852820 0.152025
vt 0.733433 0.138811
vt 0.625692 0.173613
vt 0.814597 0.231445
vt 0.677432 0.329077
vt 0.667285 0.326047
vt 0.758868 0.261975
vt 0.707237 0.291998
vt 0.832880 0.263490
vt 0.777528 0.388134
vt 0.695219 0.383321
vt 0.777958 0.378505
vt 0.862354 0.445957
vt 0.800705 0.155259
vt 0.422989 0.223511
vt 0.381136 0.648967
vt 0.328152 0.411904
vt 0.004452 0.626012
vt 0.228731 0.285670
vt 0.039735 0.582880
vt 0.127896 0.516995
vt 0.053987 0.242882
vt 0.097062 0.215363
vt 0.604460 0.656905
vt 0.789406 0.611309
vt 0.916020 0.634334
vt 0.871734 0.669080
vt 0.569351 0.207861
vt 0.523179 0.515247
vt 0.841356 0.662861
vt 0.436734 0.666152
vt 0.690966 0.401750
vt 0.650632 0.311978
vt 0.465896 0.316348
vt 0.325078 0.570324
vt 0.328983 0.535875
vt 0.418509 0.546238
vt 0.253030 0.409200
vt 0.479780 0.410896
vt 0.335194 0.499962
vt 0.349161 0.408631
vt 0.194131 0.286488
vt 0.282816 0.486592
vt 0.200433 0.284843
vt 0.467297 0.308861
vt 0.215838 0.522241
vt 0.519079 0.293313
vt 0.619241 0.550834
vt 0.678006 0.568611
vt 0.819990 0.278608
vt 0.546311 0.248780
vt 0.536576 0.307713
vt 0.545711 0.409118
vt 0.578157 0.592529
vt 0.672935 0.506941
vt 0.621226 0.592268
vt 0.787197 0.576410
vt 0.725641 0.548337
vt 0.761604 0.463959
vt 0.671170 0.616409
vt 0.509295 0.820103
vt 0.988676 0.711765
vt 0.830013 0.716314
vt 0.771374 0.782854
vt 0.841509 0.781137
vt 0.779002 0.868989
vt 0.794994 0.613284
vt 0.435134 0.609461
vt 0.732219 0.619876
vt 0.613602 0.575163
vt 0.430076 0.524724
vt 0.702977 0.581368
vt 0.603113 0.559595
vt 0.508684 0.458507
vt 0.490909 0.874757
vt 0.873443 0.849344
vt 0.841428 0.772356
vt 0.701884 0.694542
vt 0.703330 0.755669
vt 0.942038 0.544886
vt 0.607654 0.464732
vt 0.598222 0.254521
vt 0.613389 0.588285
vt 0.863172 0.609916
vt 0.823619 0.401750
vt 0.650632 0.311978
vt 0.465896 0.316348
vt 0.325078 0.570324
vt 0.328983 0.535875
vt 0.418509 0.546238
vt 0.253030 0.409200
vt 0.479780 0.410896
vt 0.335194 0.499962
vt 0.349161 0.408631
vt 0.194131 0.286488
vt 0.282816 0.486592
vt 0.200433 0.284843
vt 0.467297 0.308861
vt 0.215838 0.522241
vt 0.519079 0.293313
vt 0.619241 0.550834
vt 0.678006 0.568611
vt 0.819990 0.278608
vt 0.546311 0.248780
vt 0.536576 0.307713
vt 0.545711 0.409118
vt 0.578157 0.592529
vt 0.672935 0.506941
vt 0.621226 0.592268
vt 0.787197 0.576410
vt 0.725641 0.548337
vt 0.761604 0.463959
vt 0.671170 0.616409
vt 0.509295 0.820103
vt 0.988676 0.711765
vt 0.830013 0.716314
vt 0.771374 0.782854
vt 0.841509 0.781137
vt 0.779002 0.868989
vt 0.794994 0.613284
vt 0.435134 0.609461
vt 0.732219 0.619876
vt 0.613602 0.575163
vt 0.430076 0.524724
vt 0.702977 0.581368
vt 0.603113 0.559595
vt 0.508684 0.458507
vt 0.490909 0.874757
vt 0.873443 0.849344
vt 0.841428 0.772356
vt 0.701884 0.694542
vt 0.703330 0.755669
vt 0.942038 0.544886
vt 0.607654 0.464732
vt 0.598222 0.254521
vt 0.613389 0.588285
vt 0.863172 0.609916
vt 0.823619 0.839706
vt 0.462899 0.839706
vt 0.462899 0.815974
vt 0.530030 0.770032
vt 0.437764 0.904306
vt 0.525756 0.877301
vt 0.563635 0.846251
vt 0.602378 0.878310
vt 0.701857 0.906982
vt 0.675457 0.926728
vt 0.654346 0.912326
vt 0.833307 0.917088
vt 0.752862 0.933256
vt 0.788651 0.815974
vt 0.530030 0.770032
vt 0.437764 0.904306
vt 0.525756 0.877301
vt 0.563635 0.846251
vt 0.602378 0.878310
vt 0.701857 0.906982
vt 0.675457 0.926728
vt 0.654346 0.912326
vt 0.833307 0.917088
vt 0.752862 0.724507
vt 0.569256 0.785717
vt 0.527816 0.754971
vt 0.534112 0.724920
vt 0.427582 0.684405
vt 0.456592 0.785717
vt 0.527816 0.754971
vt 0.534112 0.770032
vt 0.437764 0.724920
vt 0.427582 0.712388
vt 0.436379 0.752382
vt 0.433789 0.672151
vt 0.328097 0.685635
vt 0.081300 0.941997
vt 0.251976 0.875439
vt 0.113950 0.939716
vt 0.100052 0.919910
vt 0.042946 0.917445
vt 0.071725 0.933685
vt 0.029662 0.863451
vt 0.249638 0.907076
vt 0.145932 0.892484
vt 0.256902 0.969311
vt 0.130704 0.982777
vt 0.028772 0.992637
vt 0.236772 0.996673
vt 0.174080 0.960931
vt 0.066540 0.977315
vt 0.087828 0.994398
vt 0.108556 0.207965
vt 0.215365 0.125972
vt 0.182461 0.189336
vt 0.266611 0.165384
vt 0.243317 0.125812
vt 0.241640 0.159596
vt 0.311877 0.125005
vt 0.316918 0.760008
vt 0.214617 0.715386
vt 0.260041 0.795312
vt 0.187345 0.824773
vt 0.267395 0.826148
vt 0.119412 0.868639
vt 0.010048 0.752476
vt 0.110349 0.786952
vt 0.146035 0.656198
vt 0.111964 0.768257
vt 0.077873 0.746839
vt 0.032600 0.705650
vt 0.148040 0.687005
vt 0.218995 0.724530
vt 0.190709 0.658924
vt 0.280385 0.662696
vt 0.152298 0.645641
vt 0.214655 0.848015
vt 0.149417 0.621966
vt 0.061539 0.763399
vt 0.436270 0.717572
vt 0.353481 0.074134
vt 0.634242 0.029739
vt 0.681063 0.001810
vt 0.682178 0.974076
vt 0.674052 0.995382
vt 0.590783 0.968393
vt 0.549830 0.968159
vt 0.591729 0.972027
vt 0.486858 0.995789
vt 0.507407 0.960987
vt 0.403287 0.981860
vt 0.423907 0.997076
vt 0.437183 0.995210
vt 0.369061 0.977292
vt 0.309545 0.021119
vt 0.653945 0.075476
vt 0.006781 0.051259
vt 0.010235 0.028000
vt 0.006520 0.004574
vt 0.006734 0.075501
vt 0.089210 0.051278
vt 0.089227 0.028017
vt 0.089066 0.004551
vt 0.089206 0.075540
vt 0.189113 0.051713
vt 0.188874 0.028043
vt 0.188897 0.004576
vt 0.189950 0.074082
vt 0.285363 0.051519
vt 0.285175 0.029320
vt 0.285149 0.007142
vt 0.285512 0.071078
vt 0.364875 0.051194
vt 0.364507 0.031786
vt 0.364352 0.012362
vt 0.364672 0.050947
vt 0.522717 0.065092
vt 0.439856 0.050579
vt 0.439812 0.036777
vt 0.439775 0.022827
vt 0.439841 0.075476
vt 0.006781 0.051259
vt 0.010235 0.028000
vt 0.006520 0.004574
vt 0.006734 0.075501
vt 0.089210 0.051278
vt 0.089227 0.028017
vt 0.089066 0.004551
vt 0.089206 0.075540
vt 0.189113 0.051713
vt 0.188874 0.028043
vt 0.188897 0.004576
vt 0.189950 0.074082
vt 0.285363 0.051519
vt 0.285175 0.029320
vt 0.285149 0.007142
vt 0.285512 0.071078
vt 0.364875 0.051194
vt 0.364507 0.031786
vt 0.364352 0.012362
vt 0.364672 0.050947
vt 0.522717 0.065092
vt 0.439856 0.050579
vt 0.439812 0.036777
vt 0.439775 0.022827
vt 0.439841 0.949118
vt 0.915773 0.004839
vt 0.936910 0.004890
vt 0.891864 0.004825
vt 0.997678 0.155958
vt 0.331173 0.186300
vt 0.347216 0.182828
vt 0.510737 0.154319
vt 0.546077 0.200557
vt 0.451522 0.203632
vt 0.382593 0.125387
vt 0.345360 0.126363
vt 0.509012 0.109547
vt 0.448744 0.107525
vt 0.379662 0.711751
vt 0.605739 0.679756
vt 0.783035 0.674704
vt 0.894152 0.723152
vt 0.994833 0.861157
vt 0.716590 0.505981
vt 0.450373 0.808778
vt 0.612854 0.223511
vt 0.381136 0.285670
vt 0.039735 0.411904
vt 0.004452 0.242882
vt 0.097062 0.516995
vt 0.053987 0.626012
vt 0.228731 0.648967
vt 0.328152 0.669080
vt 0.569351 0.207861
vt 0.523179 0.515247
vt 0.841356 0.634334
vt 0.871734 0.215363
vt 0.604460 0.662861
vt 0.436734 0.666152
vt 0.690966 0.656905
vt 0.789406 0.711751
vt 0.605739 0.679756
vt 0.783035 0.723152
vt 0.994833 0.674704
vt 0.894152 0.861157
vt 0.716590 0.505981
vt 0.450373 0.808778
vt 0.612854 0.611309
vt 0.916020 0.933256
vt 0.788651 0.852167
vt 0.355008 0.173235
vt 0.167627 0.219277
vt 0.131074 0.217095
vt 0.006557 0.167953
vt 0.067618 0.127233
vt 0.118624 0.763733
vt 0.323225 0.793564
vt 0.287775 0.818688
vt 0.338379 0.744942
vt 0.323569 0.720345
vt 0.357030 0.650542
vt 0.006194 0.930964
vt 0.591694 0.935000
vt 0.529002 0.932725
vt 0.463478 0.927962
vt 0.384528 0.916495
vt 0.298209 0.956489
vt 0.350328 0.954836
vt 0.285079 0.989926
vt 0.272868 0.891234
vt 0.337311 0.896460
vt 0.451114 0.053798
vt 0.543799 0.014756
vt 0.628118 0.106016
vt 0.502508 0.094738
vt 0.006379 0.094756
vt 0.088839 0.094788
vt 0.188855 0.092226
vt 0.285417 0.087024
vt 0.365211 0.076566
vt 0.439969 0.094738
vt 0.006379 0.094756
vt 0.088839 0.094788
vt 0.188855 0.092226
vt 0.285417 0.087024
vt 0.365211 0.076566
vt 0.439969 0.949626
vt 0.820581 0.915370
vt 0.848529 0.898159
vt 0.894131 0.898655
vt 0.947900 0.919063
vt 0.986688 0.948985
vt 0.998007 0.981357
vt 0.848529 0.998568
vt 0.894131 0.998072
vt 0.947900 0.977664
vt 0.986688 1.000000

f 396/396 314/314 397/397
f 397/397 314/314 398/398
f 398/398 314/314 399/399
f 400/400 314/314 401/401
f 399/399 314/314 400/400
f 396/396 402/402 314/314
f 402/402 403/403 314/314
f 403/403 404/404 314/314
f 405/405 401/401 314/314
f 404/404 405/405 314/314
f 250/250 263/263 251/251
f 263/263 250/250 365/365
f 229/229 365/365 255/255
f 371/371 254/254 372/372
f 254/254 371/371 253/253
f 253/253 252/252 254/254
f 372/372 256/256 373/373
f 256/256 372/372 253/253
f 257/257 253/253 256/256
f 256/256 373/373 257/257
f 257/257 256/256 261/261
f 259/259 258/258 261/261
f 260/260 259/259 374/374
f 375/375 376/376 377/377
f 377/377 262/262 378/378
f 262/262 377/377 379/379
f 374/374 380/380 375/375
f 374/374 379/379 381/381
f 263/263 382/382 251/251
f 381/381 249/249 383/383
