# MOD converted: d_m_costume_hiphop_hair02.mod
# 242 verts, 145 faces

v 159.163574 -20.211197 -1.428779
v 158.989487 -22.827435 15.244993
v 181.510529 18.942728 -12.375881
v 185.364883 -3.103865 0.485455
v 185.580963 -8.349113 15.570095
v 184.071503 -1.490511 17.715704
v 182.815262 7.185051 -7.225157
v 175.827332 -19.620462 7.395260
v 175.055023 -18.080999 21.076719
v 173.325104 -9.475428 27.107513
v 171.284363 3.648986 21.269249
v 156.843689 -13.637806 26.423716
v 154.560226 1.099316 7.487513
v 158.540771 -22.060181 -21.927219
v 158.514633 -13.714281 0.152707
v 188.568695 7.425363 21.968445
v 169.060928 23.167679 21.167459
v 152.442596 20.473890 -20.889286
v 175.160141 -11.033048 -26.546766
v 157.573715 -5.613862 -25.560238
v 155.571304 8.904213 -14.109076
v 183.513672 11.127807 -3.739886
v 181.336243 24.960056 4.938791
v 181.005402 24.889685 -25.724756
v 173.206848 4.659158 -20.511711
v 171.102020 19.174461 -8.719269
v 169.104523 31.313803 5.268669
v 168.190887 34.194485 -10.868598
v 152.291397 30.511822 4.533135
v 151.459457 31.915068 -22.545464
v 154.286636 17.836096 -4.137730
v 162.317871 0.629038 -31.470179
v 154.978790 -21.596376 -37.827461
v 152.670013 -6.747958 -34.371914
v 149.906494 6.482713 -18.690907
v 155.380707 -31.492762 -5.241451
v 154.032837 -31.547701 -2.856092
v 190.421417 5.176466 2.937169
v 190.037292 4.382432 3.695002
v 188.955353 10.390493 0.736177
v 192.021179 8.307050 -2.095488
v 189.324432 11.197337 0.113382
v 184.149506 6.879408 14.778233
v 153.361481 -16.018940 17.953966
v 151.733215 -14.224055 19.765379
v 150.723694 -11.576553 16.421959
v 143.768723 -9.855225 23.260452
v 149.405426 -3.965052 19.433901
v 144.925232 -7.723330 21.091860
v 144.379745 -2.382132 23.783848
v 159.429214 0.202142 13.197222
v 159.306564 -17.001640 19.683109
v 160.597580 -12.032207 22.635302
v 149.893433 0.400590 21.686857
v 145.705582 0.005375 17.649475
v 138.079819 -0.452347 16.491243
v 160.621643 -15.125202 23.178022
v 159.521805 -4.325290 -6.777568
v 151.369873 -20.298399 -10.613527
v 150.548859 -20.125721 -13.077226
v 149.923584 -17.956913 -12.594840
v 143.088394 -16.575891 -2.619894
v 156.258301 -20.590769 -11.060037
v 158.846252 -17.723154 -7.821810
v 160.480850 -20.917236 2.169068
v 153.997162 -21.288342 -3.823168
v 151.424988 -19.808455 6.262164
v 152.301025 -19.005596 -4.915545
v 141.999405 -18.648426 0.269323
v 145.525848 -19.552391 -2.442186
v 158.450195 -22.216524 -5.498884
v 159.354507 -20.616882 0.803006
v 157.284225 -21.278671 -7.497255
v 150.495117 -21.664890 -3.442416
v 156.905975 -19.668547 5.909986
v 165.061752 -19.714678 10.647890
v 159.447266 -17.765549 0.971404
v 166.661667 -19.987923 -4.059816
v 164.894836 -20.341991 -19.779827
v 149.578812 -13.710353 -15.065758
v 144.496368 -13.452288 -19.079420
v 144.549255 -11.820753 -21.150967
v 158.952515 -10.103662 -20.753494
v 149.898666 -9.735017 -20.202234
v 145.864243 -9.897839 -18.040506
v 138.181122 -9.438375 -19.120419
v 159.020462 -14.686104 -0.000014
v 154.505066 27.457424 0.000009
v 140.437485 27.035637 0.000012
v 132.061111 7.198997 0.000013
v 126.497078 11.980138 0.000014
v 130.844727 22.444324 0.000010
v 124.997726 16.471338 17.712255
v 155.537170 -8.509398 22.869894
v 155.730331 7.211549 13.557035
v 153.969330 21.334419 19.964285
v 151.835785 -3.068470 17.436066
v 148.338806 1.776304 18.547483
v 150.265137 -2.827767 19.895691
v 143.323990 8.635844 12.623461
v 141.516312 23.488890 17.183155
v 136.349792 -0.066503 19.466621
v 143.741699 -0.396781 21.560417
v 157.196899 1.656553 15.863974
v 141.271698 5.239878 10.001453
v 135.648666 6.378021 8.341963
v 121.630264 11.473028 17.490063
v 131.684891 12.020630 10.086632
v 130.805740 20.111494 3.826658
v 119.900963 19.847923 13.694735
v 123.587090 15.558002 20.163614
v 161.425537 -5.478212 -17.712278
v 155.537155 -8.509396 -22.869915
v 155.730316 7.211541 -13.557064
v 153.969330 21.334415 -19.964314
v 151.835770 -3.068485 -17.436028
v 148.338806 1.776311 -18.547512
v 150.265106 -2.827768 -19.895718
v 143.323990 8.635841 -12.623491
v 141.516296 23.488892 -17.183178
v 136.349777 -0.066499 -19.466646
v 143.741684 -0.396787 -21.560442
v 157.196899 1.656549 -15.863937
v 141.271683 5.239881 -10.001421
v 135.648666 6.378022 -8.341992
v 121.630280 11.473027 -17.490095
v 131.684875 12.020633 -10.086660
v 130.805725 20.111486 -3.826685
v 119.900963 19.847923 -13.694767
v 123.587090 15.558005 -20.163639
v 161.425552 -5.478221 -0.145998
v 150.241913 30.108049 2.284644
v 140.879013 30.429996 10.454130
v 144.023880 32.383339 10.279390
v 135.565369 29.504751 17.155760
v 135.597153 28.558054 -0.145999
v 145.488159 28.776035 7.617180
v 151.467682 30.002935 16.357716
v 145.610535 29.090757 -2.576631
v 140.878998 30.430012 -10.746119
v 144.023834 32.383331 -10.571382
v 135.565338 29.504744 -17.447748
v 135.597076 28.558056 -7.909163
v 151.467636 30.002947 -16.649719
v 145.610458 29.090752 -19.252201
v 148.919373 -6.307533 -20.365881
v 148.884537 -3.023261 -18.597561
v 141.666031 -3.313447 -20.864471
v 149.843521 0.185067 19.252171
v 148.919388 -6.307527 20.365850
v 148.884552 -3.023266 18.597534
v 141.666031 -3.313440 20.460211
v 148.851974 0.185063 -0.000214
v 142.659897 27.636522 -0.000011
v 171.495941 -17.501984 -0.145995
v 148.024902 29.183451 13.928999
v 153.555115 24.763720 12.196175
v 142.986740 23.486069 24.332830
v 160.571991 7.319325 22.313847
v 150.324738 5.138145 19.146566
v 146.325470 14.312614 21.357016
v 157.369537 16.826464 19.426533
v 167.907181 -11.422091 16.654596
v 150.385437 -13.672418 23.062180
v 164.206131 -3.449977 19.817808
v 148.338348 -6.065143 9.582859
v 170.127243 -16.661598 8.635635
v 151.281052 -17.791609 13.486736
v 149.027557 25.802956 24.175810
v 154.499786 6.312844 21.073204
v 151.992310 16.181633 19.202883
v 159.588898 -13.292541 22.927671
v 157.263947 -4.560562 10.017292
v 160.883667 -17.938049 -0.000012
v 151.466339 -18.928041 -0.145992
v 151.950302 30.648577 -0.000009
v 161.837799 -19.216328 -14.220987
v 153.555054 24.763685 -12.488164
v 142.986740 23.486050 -24.332855
v 160.571884 7.319315 -22.313869
v 150.324677 5.138129 -19.438540
v 146.325378 14.312609 -21.648979
v 157.369446 16.826450 -19.426554
v 167.907104 -11.422104 -16.654619
v 150.385345 -13.672436 -23.062187
v 164.205994 -3.450006 -19.817823
v 148.338318 -6.065147 -9.582891
v 170.127167 -16.661612 -8.635659
v 151.281052 -17.791613 -13.778717
v 149.027542 25.802950 -24.175827
v 154.499725 6.312850 -21.365185
v 151.992249 16.181648 -19.202908
v 159.588867 -13.292534 -22.927689
v 157.263885 -4.560576 -10.017318
v 160.883636 -17.938053 -26.546766
v 157.573715 -5.613862 -25.560238
v 155.571304 8.904213 -10.868598
v 152.291397 30.511822 4.533135
v 151.459457 31.915068 21.167459
v 152.442596 20.473890 -22.545464
v 154.286636 17.836096 -21.927219
v 158.514633 -13.714281 -21.927219
v 158.514633 -13.714281 -26.546766
v 157.573715 -5.613862 -25.560238
v 155.571304 8.904213 -22.545464
v 154.286636 17.836096 -15.322624
v 159.163574 -20.211197 -1.428779
v 158.989487 -22.827435 7.487513
v 158.540771 -22.060181 21.269249
v 156.843689 -13.637806 -4.137730
v 162.317871 0.629038 7.487513
v 158.540771 -22.060181 26.423716
v 154.560226 1.099316 21.167459
v 152.442596 20.473890 -1.428779
v 158.989487 -22.827435 -15.322624
v 159.163574 -20.211197 -21.927219
v 158.514633 -13.714281 5.909986
v 165.061752 -19.714678 -11.060037
v 158.846252 -17.723154 -13.077226
v 149.923584 -17.956913 21.560417
v 157.196899 1.656553 17.436066
v 148.338806 1.776304 8.341963
v 121.630264 11.473028 17.490063
v 131.684891 12.020630 10.086632
v 130.805740 20.111494 0.000013
v 126.497078 11.980138 3.826658
v 119.900963 19.847923 0.000010
v 124.997726 16.471338 0.000009
v 140.437485 27.035637 -0.000014
v 154.505066 27.457424 -21.560442
v 157.196899 1.656549 -17.436028
v 148.338806 1.776311 0.000012
v 132.061111 7.198997 0.000013
v 126.497078 11.980138 0.000014
v 130.844727 22.444324 -17.490095
v 131.684875 12.020633 -8.341992
v 121.630280 11.473027 -10.086660
v 130.805725 20.111486 0.000013
v 126.497078 11.980138 0.000010
v 124.997726 16.471338 -3.826685
v 119.900963 19.847923 0.000010
v 124.997726 16.471338 0.136339

vt 0.451135 0.733126
vt 0.364775 0.264827
vt 0.716979 0.665269
vt 0.749385 0.582106
vt 0.651606 0.429233
vt 0.613616 0.357310
vt 0.647523 0.708283
vt 0.547333 0.585303
vt 0.491226 0.436342
vt 0.474121 0.308573
vt 0.509265 0.444383
vt 0.307497 0.265670
vt 0.354009 0.628353
vt 0.327643 0.936983
vt 0.513882 0.474666
vt 0.787727 0.138888
vt 0.609200 0.071002
vt 0.446306 0.821938
vt 0.655247 0.863661
vt 0.451135 0.733126
vt 0.364775 0.582106
vt 0.651606 0.429233
vt 0.613616 0.357310
vt 0.647523 0.708283
vt 0.547333 0.585303
vt 0.491226 0.436342
vt 0.474121 0.308573
vt 0.509265 0.444383
vt 0.307497 0.265670
vt 0.354009 0.628353
vt 0.327643 0.856628
vt 0.688286 0.024530
vt 0.687303 0.076154
vt 0.777264 0.160359
vt 0.807486 0.076154
vt 0.777264 0.160359
vt 0.807486 0.974059
vt 0.396461 0.910428
vt 0.379007 0.853029
vt 0.363825 0.892760
vt 0.439666 0.910428
vt 0.379007 0.926852
vt 0.318609 0.197410
vt 0.232975 0.166746
vt 0.228670 0.132801
vt 0.221966 0.139374
vt 0.166380 0.079796
vt 0.221842 0.098806
vt 0.158763 0.070555
vt 0.160365 0.042833
vt 0.283510 0.229499
vt 0.288183 0.141118
vt 0.284308 0.037971
vt 0.220492 0.043246
vt 0.168801 0.063189
vt 0.098498 0.187076
vt 0.298081 0.087684
vt 0.285462 0.197410
vt 0.232975 0.166746
vt 0.228670 0.132801
vt 0.221966 0.139374
vt 0.166380 0.229499
vt 0.288183 0.141118
vt 0.284308 0.187076
vt 0.298081 0.346590
vt 0.121131 0.297861
vt 0.118398 0.398663
vt 0.117185 0.296947
vt 0.021028 0.356342
vt 0.058847 0.310573
vt 0.064803 0.287007
vt 0.082359 0.330539
vt 0.061335 0.289911
vt 0.026818 0.296844
vt 0.162055 0.370365
vt 0.210813 0.431160
vt 0.177199 0.331413
vt 0.115339 0.289625
vt 0.120174 0.079796
vt 0.221842 0.098806
vt 0.158763 0.070555
vt 0.160365 0.042833
vt 0.283510 0.037971
vt 0.220492 0.043246
vt 0.168801 0.063189
vt 0.098498 0.087684
vt 0.285462 0.660646
vt 0.293717 0.680230
vt 0.200111 0.988784
vt 0.105480 0.945684
vt 0.016926 0.711935
vt 0.110095 0.104656
vt 0.075526 0.653961
vt 0.204139 0.879014
vt 0.291747 0.767354
vt 0.292538 0.576349
vt 0.169189 0.958504
vt 0.223929 0.619814
vt 0.131491 0.873498
vt 0.206034 0.771767
vt 0.200165 0.584356
vt 0.022546 0.576252
vt 0.093120 0.967073
vt 0.296419 0.923489
vt 0.170838 0.937405
vt 0.118305 0.895732
vt 0.037100 0.864587
vt 0.104867 0.788318
vt 0.109517 0.781702
vt 0.033243 0.821360
vt 0.043014 0.599760
vt 0.250400 0.653961
vt 0.204139 0.879014
vt 0.291747 0.767354
vt 0.292538 0.576349
vt 0.169189 0.958504
vt 0.223929 0.619814
vt 0.131491 0.873498
vt 0.206034 0.771767
vt 0.200165 0.584356
vt 0.022546 0.576252
vt 0.093120 0.967073
vt 0.296419 0.923489
vt 0.170838 0.937405
vt 0.118305 0.895732
vt 0.037100 0.864587
vt 0.104867 0.788318
vt 0.109517 0.781702
vt 0.033243 0.821360
vt 0.043014 0.599760
vt 0.250400 0.923978
vt 0.766457 0.865444
vt 0.833747 0.935452
vt 0.886146 0.868874
vt 0.929144 0.908480
vt 0.988157 0.881673
vt 0.785890 0.977163
vt 0.826530 0.982364
vt 0.931964 0.865444
vt 0.833747 0.935452
vt 0.886146 0.868874
vt 0.929144 0.908480
vt 0.988157 0.977163
vt 0.826530 0.982364
vt 0.931964 0.197410
vt 0.232975 0.166746
vt 0.228670 0.139374
vt 0.166380 0.132801
vt 0.221966 0.197410
vt 0.232975 0.166746
vt 0.228670 0.139374
vt 0.166380 0.132801
vt 0.221966 0.028968
vt 0.845322 0.826859
vt 0.946049 0.020912
vt 0.895706 0.176146
vt 0.960387 0.169500
vt 0.857047 0.417453
vt 0.986770 0.401185
vt 0.849796 0.301612
vt 0.858942 0.315506
vt 0.980532 0.623605
vt 0.992987 0.585089
vt 0.824335 0.527786
vt 0.990897 0.502926
vt 0.834568 0.734471
vt 0.969215 0.671863
vt 0.796212 0.172565
vt 0.915856 0.409970
vt 0.926690 0.309552
vt 0.928190 0.605606
vt 0.912860 0.515121
vt 0.922495 0.699876
vt 0.885901 0.751179
vt 0.764322 0.017997
vt 0.935174 0.792808
vt 0.856099 0.176146
vt 0.960387 0.169500
vt 0.857047 0.417453
vt 0.986770 0.401185
vt 0.849796 0.301612
vt 0.858942 0.315506
vt 0.980532 0.623605
vt 0.992987 0.585089
vt 0.824335 0.527786
vt 0.990897 0.502926
vt 0.834568 0.734471
vt 0.969215 0.671863
vt 0.796212 0.172565
vt 0.915856 0.409970
vt 0.926690 0.309552
vt 0.928190 0.605606
vt 0.912860 0.515121
vt 0.922495 0.699876
vt 0.885901 0.917695
vt 0.677533 0.913203
vt 0.714671 0.868540
vt 0.762658 0.827230
vt 0.763954 0.783067
vt 0.735833 0.902233
vt 0.736629 0.906848
vt 0.654633 0.095462
vt 0.642633 0.133059
vt 0.700111 0.217336
vt 0.750971 0.263099
vt 0.791283 0.133059
vt 0.700111 0.217336
vt 0.750971 0.263099
vt 0.791283 0.868540
vt 0.762658 0.856628
vt 0.688286 0.902233
vt 0.736629 0.827230
vt 0.763954 0.783067
vt 0.735833 0.913203
vt 0.714671 0.917695
vt 0.677533 0.906848
vt 0.654633 0.368567
vt 0.111803 0.141118
vt 0.284308 0.132801
vt 0.221966 0.532984
vt 0.169635 0.536954
vt 0.093501 0.182269
vt 0.039272 0.252272
vt 0.107270 0.193529
vt 0.129650 0.104848
vt 0.016078 0.109686
vt 0.133386 0.707929
vt 0.033208 0.680230
vt 0.200111 0.660646
vt 0.293717 0.532984
vt 0.169635 0.536954
vt 0.093501 0.988784
vt 0.105480 0.945684
vt 0.016926 0.711935
vt 0.110095 0.252272
vt 0.107270 0.182269
vt 0.039272 0.193529
vt 0.129650 0.104848
vt 0.016078 0.104656
vt 0.075526 0.109686
vt 0.133386 0.707929
vt 0.033208 1.000000

f 45/45 44/44 57/57
f 52/52 57/57 44/44
f 46/46 45/45 53/53
f 57/57 53/53 45/45
f 47/47 44/44 45/45
f 47/47 45/45 46/46
f 53/53 58/58 46/46
f 48/48 46/46 58/58
f 58/58 51/51 48/48
f 54/54 48/48 51/51
f 49/49 46/46 50/50
f 48/48 50/50 46/46
f 48/48 54/54 50/50
f 55/55 50/50 54/54
f 56/56 49/49 50/50
f 56/56 50/50 55/55
f 59/59 60/60 65/65
f 65/65 63/63 59/59
f 60/60 61/61 64/64
f 64/64 65/65 60/60
f 59/59 62/62 60/60
f 60/60 62/62 61/61
f 66/66 67/67 75/75
f 75/75 76/76 66/66
f 68/68 66/66 76/76
f 76/76 77/77 68/68
f 66/66 69/69 67/67
f 68/68 70/70 66/66
f 79/79 78/78 71/71
f 71/71 72/72 79/79
f 78/78 218/218 73/73
f 73/73 71/71 78/78
f 71/71 74/74 72/72
f 73/73 74/74 71/71
f 87/87 219/219 220/220
f 220/220 80/80 87/87
f 83/83 87/87 80/80
f 80/80 84/84 83/83
f 220/220 81/81 82/82
f 82/82 80/80 220/220
f 84/84 80/80 82/82
f 82/82 85/85 84/84
f 81/81 86/86 82/82
f 82/82 86/86 85/85
f 100/100 95/95 96/96
f 96/96 101/101 100/100
f 88/88 89/89 101/101
f 101/101 96/96 88/88
f 98/98 104/104 100/100
f 99/99 94/94 112/112
f 112/112 97/97 99/99
f 103/103 97/97 221/221
f 221/221 222/222 103/103
f 97/97 103/103 99/99
f 103/103 102/102 99/99
f 222/222 102/102 103/103
f 95/95 100/100 104/104
f 107/107 106/106 105/105
f 105/105 108/108 107/107
f 91/91 90/90 106/106
f 106/106 107/107 91/91
f 105/105 98/98 100/100
f 100/100 108/108 105/105
f 100/100 101/101 109/109
f 109/109 108/108 100/100
f 101/101 89/89 92/92
f 92/92 109/109 101/101
f 92/92 110/110 109/109
f 223/223 224/224 225/225
f 226/226 223/223 225/225
f 225/225 93/93 226/226
f 225/225 227/227 93/93
f 109/109 111/111 108/108
f 92/92 228/228 110/110
f 114/114 119/119 115/115
f 120/120 115/115 119/119
f 229/229 230/230 120/120
f 115/115 120/120 230/230
f 123/123 117/117 119/119
f 113/113 118/118 131/131
f 116/116 131/131 118/118
f 116/116 122/122 231/231
f 232/232 231/231 122/122
f 122/122 116/116 118/118
f 121/121 122/122 118/118
f 121/121 232/232 122/122
f 119/119 114/114 123/123
f 125/125 126/126 124/124
f 127/127 124/124 126/126
f 233/233 234/234 125/125
f 126/126 125/125 234/234
f 117/117 124/124 119/119
f 127/127 119/119 124/124
f 120/120 119/119 128/128
f 127/127 128/128 119/119
f 229/229 120/120 235/235
f 128/128 235/235 120/120
f 129/129 235/235 128/128
f 236/236 237/237 238/238
f 237/237 239/239 238/238
f 240/240 238/238 239/239
f 241/241 238/238 240/240
f 130/130 128/128 127/127
f 242/242 235/235 129/129
f 148/148 147/147 146/146
f 148/148 149/149 147/147
f 151/151 152/152 150/150
f 153/153 152/152 151/151
f 133/133 134/134 135/135
f 135/135 136/136 132/132
f 137/137 133/133 134/134
f 138/138 132/132 134/134
f 134/134 136/136 132/132
f 141/141 140/140 142/142
f 143/143 142/142 132/132
f 140/140 137/137 141/141
f 132/132 144/144 141/141
f 143/143 141/141 176/176
f 176/176 156/156 170/170
f 170/170 159/159 161/161
f 161/161 171/171 160/160
f 160/160 166/166 172/172
f 172/172 164/164 165/165
f 165/165 173/173 167/167
f 167/167 174/174 158/158
f 158/158 169/169 160/160
f 160/160 170/170 157/157
f 157/157 169/169 159/159
f 159/159 170/170 163/163
f 163/163 172/172 164/164
f 164/164 172/172 177/177
f 177/177 174/174 176/176
f 156/156 176/176 191/191
f 180/180 191/191 182/182
f 192/192 182/182 181/181
f 187/187 181/181 193/193
f 185/185 193/193 186/186
f 194/194 186/186 188/188
f 195/195 188/188 179/179
f 190/190 179/179 181/181
f 191/191 181/181 178/178
f 190/190 178/178 180/180
f 191/191 180/180 184/184
f 193/193 184/184 185/185
f 193/193 185/185 177/177
