# MOD converted: d_m_clothrobe013.mod
# 638 verts, 421 faces

v 126.874939 -4.760581 22.595598
v 126.383904 -2.304323 24.900629
v 126.571144 3.428050 22.509455
v 127.326996 9.078594 16.211214
v 120.539864 -6.672153 23.508963
v 120.231255 -3.506863 26.741678
v 121.291992 3.878855 23.396980
v 121.457214 11.290073 21.682405
v 126.653481 -1.404276 16.944809
v 127.065269 -3.462353 16.842737
v 128.182755 10.025601 21.610235
v 127.443687 8.133149 23.613731
v 126.810364 3.398717 17.151014
v 129.723984 3.112278 11.257947
v 127.756645 -2.501881 8.866776
v 128.512466 3.148662 11.171809
v 128.699722 8.881039 16.822792
v 128.208694 11.337295 8.679466
v 122.642052 -3.816218 5.515793
v 124.949677 3.418921 8.567493
v 123.868004 10.980718 16.052856
v 122.273628 14.253876 12.177312
v 127.804344 -1.569901 12.105138
v 128.594528 7.967523 10.173816
v 128.437637 3.164529 16.687836
v 123.269691 3.601842 -16.944611
v 126.880890 -4.752710 -22.595596
v 126.387939 -2.295855 -24.900627
v 126.570740 3.437045 -22.509455
v 127.322205 9.087741 -16.211214
v 120.547310 -6.669081 -23.508957
v 120.236229 -3.502783 -26.741682
v 121.291237 3.884266 -23.396980
v 121.450706 11.295037 -21.682404
v 126.656822 -1.395764 -16.944805
v 127.070190 -3.454340 -16.842735
v 128.177231 10.034419 -21.610229
v 127.439613 8.142230 -23.613729
v 126.809990 3.407672 -17.151011
v 129.723801 3.122287 -11.257946
v 127.760834 -2.494322 -8.866774
v 128.512268 3.156371 -11.171806
v 128.695068 8.889274 -16.822788
v 128.202133 11.346128 -8.679465
v 122.647270 -3.812870 -5.515790
v 124.949272 3.423432 -8.567493
v 123.861725 10.984948 -16.052856
v 122.264809 14.258197 -12.177311
v 127.807823 -1.562152 -12.105138
v 128.590591 7.975840 -10.173814
v 128.437454 3.172405 -16.687834
v 123.269142 3.607008 0.000000
v 73.721741 8.175353 0.870693
v 70.771591 0.715442 2.888553
v 74.385338 11.638546 8.890132
v 80.975204 11.795685 14.203594
v 80.746719 -7.212097 16.096775
v 80.908371 -0.007749 16.203547
v 65.954094 -6.868481 8.045642
v 77.612579 -9.619162 9.663939
v 65.818184 -9.834390 7.791798
v 80.767029 -9.731808 9.785591
v 76.935776 10.861449 15.328944
v 80.956474 6.265933 1.250310
v 65.235886 1.564373 3.594334
v 65.492119 -7.490386 3.969277
v 53.157894 -6.437212 10.293864
v 54.024494 -8.903889 4.761808
v 65.593338 10.984140 6.428616
v 52.214706 10.570567 1.915390
v 51.868809 2.375689 13.602562
v 52.648262 11.103698 12.030270
v 65.843773 11.257296 18.301844
v 65.843353 3.468616 18.820719
v 52.893574 3.577744 16.792944
v 54.053181 -6.253425 2.057927
v 49.583580 2.413128 4.120263
v 49.623337 -6.579714 17.016357
v 50.778671 -6.256450 6.647447
v 50.121864 10.767016 13.868348
v 50.413246 11.261053 10.831232
v 50.093956 -8.992508 19.030540
v 50.245522 3.744629 21.068842
v 37.859917 4.241800 15.385636
v 37.932076 12.625934 11.300046
v 46.460052 -8.530334 4.261499
v 46.681683 -6.074066 17.507843
v 47.503456 -5.610924 2.837194
v 10.405089 2.562901 5.978359
v 11.774219 -8.636710 2.440291
v 37.050919 2.445197 4.888523
v 37.077538 -6.195136 7.460967
v 37.572628 12.167740 28.028454
v 11.299099 4.795419 26.080515
v 11.834240 -8.141107 19.387678
v 37.661659 -5.527212 12.148565
v 37.442287 -8.491577 18.197252
v 10.707989 15.808567 8.529079
v 10.477508 14.990911 2.871099
v 75.237289 -9.179491 -0.000000
v 80.826447 12.418567 12.319557
v 86.701279 -5.962294 14.323585
v 87.234299 0.058409 13.071584
v 87.638054 6.541639 8.334930
v 87.769363 10.940004 15.469145
v 12.934010 -14.832461 14.133328
v 16.544563 2.069386 2.970572
v 21.787914 2.677263 25.229179
v 22.674194 4.761158 17.187252
v 22.342003 14.975724 8.134180
v 22.059362 14.283847 6.220403
v 22.270374 -7.192355 14.195790
v 22.870796 -10.304473 23.633394
v 22.758059 -6.263102 6.396477
v 16.889023 -7.737401 14.761285
v 17.533726 -11.946167 24.469397
v 17.337801 -6.698161 -0.000001
v 94.178825 10.581617 9.004386
v 101.536545 9.758073 12.415498
v 122.565002 9.282431 9.714586
v 108.209419 10.975689 13.670407
v 87.638092 6.526201 9.172389
v 88.028709 11.315461 11.102254
v 74.403297 14.169197 15.337826
v 81.417114 -7.136451 17.770809
v 81.942062 0.073889 8.299676
v 73.561264 -11.845325 7.525767
v 80.924850 -10.850125 15.088631
v 82.013420 7.377176 9.367894
v 64.887154 -12.836131 12.496195
v 65.795410 15.551511 10.815977
v 115.891212 12.458345 8.624901
v 94.074738 9.710802 17.362162
v 74.180267 -7.829335 20.532995
v 75.016853 0.051299 17.461454
v 75.102379 8.438287 19.171463
v 65.604439 -8.385008 23.007631
v 66.151230 0.222728 19.319447
v 66.401665 9.123430 20.245365
v 56.680035 -8.446933 24.470083
v 57.330135 0.531791 13.580755
v 57.263409 16.274258 20.757572
v 57.450176 9.589825 9.924492
v 56.400974 -13.145010 12.491193
v 101.232719 6.146482 12.070682
v 93.722656 5.725353 -0.000000
v 123.247871 10.395066 -0.000000
v 56.973816 17.882774 0.000000
v 86.136688 -11.320231 16.325169
v 115.133545 11.302149 9.315493
v 124.414856 4.976003 6.170455
v 123.100754 9.677062 15.311282
v 108.691231 -0.047336 0.000001
v 115.830292 12.776650 36.297348
v 111.732231 -1.343269 -0.000000
v 100.139275 -11.755625 6.977521
v 114.961594 -8.986079 6.690831
v 107.281349 -10.779728 12.961976
v 115.310036 -5.796550 13.171283
v 121.129951 -1.916774 6.439506
v 120.230133 -4.219110 9.200212
v 122.457977 -0.658076 6.553686
v 126.433296 5.274920 18.976454
v 104.043083 -0.972760 18.917646
v 104.153145 8.417664 23.217777
v 112.077667 13.396972 23.455330
v 111.906746 -5.928115 27.318222
v 119.269730 -1.468369 27.756132
v 120.167557 8.485500 27.088066
v 102.602097 6.988311 27.298317
v 102.478325 0.141302 33.528259
v 112.560471 6.927613 30.338903
v 107.383636 -3.455150 42.468197
v 90.924866 7.750051 46.963055
v 97.219254 11.605310 42.005577
v 90.878105 -2.189087 51.356270
v 104.560081 8.515886 46.689175
v 97.509789 -6.891965 33.346024
v 112.348717 -0.415706 51.028206
v 104.864265 -3.611552 30.402079
v 107.488983 10.208105 28.811602
v 100.614548 7.463489 34.289349
v 105.477196 11.768364 31.965160
v 107.099640 10.619001 32.501793
v 106.164291 -4.480363 28.950537
v 100.410332 -0.473546 12.373796
v 107.773987 -7.026011 15.204706
v 108.722481 7.791706 17.964817
v 122.051483 8.614933 13.543449
v 123.260689 4.797873 17.181358
v 108.047813 7.393107 19.072622
v 114.246552 10.886850 17.014622
v 108.394096 0.060068 17.916916
v 120.971649 0.021029 19.041519
v 114.579155 -3.291468 21.572100
v 120.700172 7.928556 18.437725
v 122.650093 4.473611 21.438484
v 120.687904 -0.084981 15.939663
v 115.215607 -3.128920 32.756157
v 95.373680 -1.719106 37.428078
v 103.274857 -6.969908 42.277325
v 111.251831 -2.722383 42.454865
v 111.179657 8.341756 37.321388
v 103.236938 12.814302 32.695923
v 95.705452 8.135143 37.740204
v 91.527710 8.346629 43.033291
v 99.563728 13.566530 42.951721
v 99.827995 -8.342282 37.662949
v 91.392731 -2.690109 48.530678
v 108.701187 9.021841 48.227989
v 108.735657 -3.920177 -0.000000
v 119.606827 -6.254026 -0.000000
v 114.766479 -10.844056 13.638371
v 86.701294 -6.679369 6.850644
v 86.289337 -9.983799 36.409348
v 112.023277 7.155890 -0.000000
v 92.537872 -11.579504 6.076767
v 124.066711 -0.338492 6.199974
v 100.339012 -10.352567 45.882797
v 92.817726 5.221794 48.243675
v 96.572617 7.533317 45.628464
v 92.772926 -0.168911 50.570656
v 100.195801 5.665749 48.018097
v 96.520935 -3.080129 50.401695
v 100.354218 -0.967530 6.234633
v 92.722031 -9.963625 11.452929
v 93.047325 -6.341817 14.130072
v 93.544983 -0.140093 14.157463
v 101.095894 -0.095565 15.943481
v 87.234352 0.048964 11.418038
v 100.688217 -6.823333 9.941015
v 81.988609 12.672957 -0.000000
v 81.839928 13.619062 0.000001
v 128.726044 -3.807282 6.090566
v 131.217926 4.411326 5.469984
v 129.743500 -0.329509 23.354019
v 104.881546 6.987955 26.930304
v 109.647469 10.076582 23.505302
v 104.972710 0.060818 29.987816
v 114.828659 6.947683 29.870966
v 114.671501 -0.278691 26.859745
v 109.519417 -3.302254 21.171392
v 104.856026 7.459785 21.321083
v 104.699066 -0.190238 28.813148
v 117.341530 7.605126 25.407894
v 110.808739 11.256305 28.711946
v 117.151123 -0.838816 25.374413
v 110.634903 -4.364673 4.347759
v 112.537018 -10.838873 39.965668
v 91.020882 8.259317 45.002396
v 98.376617 12.972519 44.818058
v 98.665398 -8.012402 39.685280
v 90.926491 -2.634502 49.746784
v 106.869759 -4.012098 50.074360
v 106.693886 9.007723 17.252501
v 105.649803 8.629475 17.135981
v 105.896835 -0.863109 20.483398
v 113.442444 12.768481 20.550997
v 113.653496 -5.454056 24.141178
v 121.490677 9.105055 23.674599
v 120.659172 -1.534143 0.000000
v 73.669159 -7.645537 -0.000000
v 87.856026 11.654859 0.000000
v 71.149872 0.659339 -0.870692
v 70.771591 0.715446 -2.888553
v 74.385338 11.638546 -8.890132
v 80.975204 11.795685 -14.203593
v 80.746719 -7.212098 -16.096775
v 80.908371 -0.007757 -16.203545
v 65.954094 -6.868482 -8.045643
v 77.612579 -9.619163 -9.663939
v 65.818184 -9.834390 -7.791801
v 80.767029 -9.731807 -9.785591
v 76.935776 10.861448 -15.328944
v 80.956474 6.265933 -1.250310
v 65.235886 1.564375 -3.594337
v 65.492119 -7.490388 -3.969279
v 53.157894 -6.437213 -10.293867
v 54.024494 -8.903889 -4.761808
v 65.593346 10.984140 -6.428616
v 52.214706 10.570567 -1.915390
v 51.868809 2.375689 -13.602562
v 52.648258 11.103699 -12.030270
v 65.843773 11.257293 -18.301844
v 65.843353 3.468617 -18.820717
v 52.893574 3.577745 -16.792944
v 54.053181 -6.253427 -2.057926
v 49.583588 2.413132 -4.120265
v 49.623333 -6.579716 -17.016357
v 50.778671 -6.256451 -6.647448
v 50.121864 10.767015 -13.868347
v 50.413246 11.261054 -10.831234
v 50.093956 -8.992509 -19.030540
v 50.245522 3.744628 -21.068842
v 37.859917 4.241798 -15.385635
v 37.932076 12.625933 -11.300049
v 46.460052 -8.530334 -4.261499
v 46.681683 -6.074066 -17.507843
v 47.503448 -5.610922 -2.837196
v 10.405087 2.562903 -5.978361
v 11.774220 -8.636711 -2.440291
v 37.050919 2.445203 -4.888525
v 37.077538 -6.195137 -7.460969
v 37.572628 12.167738 -28.028454
v 11.299098 4.795423 -26.080517
v 11.834236 -8.141106 -19.387678
v 37.661659 -5.527210 -12.148565
v 37.442291 -8.491578 -18.197252
v 10.707990 15.808568 -8.529079
v 10.477509 14.990911 0.000001
v 81.033646 -10.634989 -2.871100
v 75.237289 -9.179493 -12.319557
v 86.701279 -5.962294 -14.323586
v 87.234299 0.058410 -13.071584
v 87.638054 6.541640 -8.334929
v 87.769371 10.940005 -15.469144
v 12.934011 -14.832462 -14.133328
v 16.544565 2.069386 -2.970572
v 21.787914 2.677255 -25.229181
v 22.674192 4.761157 -17.187252
v 22.342001 14.975724 -8.134180
v 22.059362 14.283847 -6.220405
v 22.270374 -7.192356 -14.195789
v 22.870794 -10.304473 -23.633398
v 22.758060 -6.263100 -6.396477
v 16.889023 -7.737401 -14.761289
v 17.533728 -11.946167 -24.469398
v 17.337801 -6.698160 -9.004385
v 101.536545 9.758073 -12.415498
v 122.558228 9.287779 -9.714584
v 108.209419 10.975689 -13.670406
v 87.638084 6.526202 -9.172390
v 88.028709 11.315462 -11.102254
v 74.403297 14.169197 -15.337824
v 81.417122 -7.136455 -17.770809
v 81.942062 0.073876 -8.299675
v 73.561264 -11.845326 -7.525767
v 80.924850 -10.850127 -15.088631
v 82.013420 7.377174 -9.367898
v 64.887154 -12.836132 -12.496194
v 65.795410 15.551508 -10.815977
v 115.885635 12.457388 -8.624902
v 94.074738 9.710803 -17.362162
v 74.180267 -7.829334 -20.532997
v 75.016853 0.051312 -17.461454
v 75.102379 8.438288 -19.171461
v 65.604439 -8.385008 -23.007631
v 66.151222 0.222718 -19.319447
v 66.401672 9.123430 -20.245367
v 56.680035 -8.446931 -24.470085
v 57.330132 0.531768 -13.580753
v 57.263409 16.274258 -20.757572
v 57.450176 9.589823 -9.924497
v 56.400978 -13.145011 -12.491194
v 101.232719 6.146483 -12.070682
v 93.722656 5.725353 -0.000001
v 108.119034 12.210542 -0.000000
v 88.115364 12.030312 -0.000000
v 101.646408 10.970208 -0.000000
v 73.893539 15.400455 -16.325169
v 115.128662 11.301473 -9.315493
v 124.414856 4.976003 -6.170455
v 123.100754 9.677062 -15.311282
v 108.692383 -0.050249 -0.000000
v 65.359558 16.965374 -0.000000
v 126.980804 8.664188 0.000000
v 107.130051 -12.542318 -0.000000
v 122.656525 -3.436977 -36.297348
v 111.732231 -1.343274 -6.977522
v 114.961594 -8.986080 -6.690829
v 107.281349 -10.779728 -12.961972
v 115.312386 -5.797018 -13.171282
v 121.135071 -1.912689 -6.439506
v 120.230133 -4.219110 -9.200211
v 122.457977 -0.658078 -6.553685
v 126.433296 5.274920 -18.976456
v 104.043068 -0.972733 -18.917648
v 104.153168 8.417687 -23.217781
v 112.077713 13.396969 -23.455330
v 111.906715 -5.928115 -27.318222
v 119.269714 -1.468397 -27.756130
v 120.167572 8.485468 -27.088066
v 102.602112 6.988329 -27.298317
v 102.478317 0.141319 -33.528259
v 112.560486 6.927592 -30.338902
v 107.383606 -3.455149 -42.468201
v 90.924858 7.750046 -46.963074
v 97.219269 11.605311 -42.005573
v 90.878105 -2.189088 -51.356274
v 104.560081 8.515889 -46.689087
v 97.509651 -6.891963 -33.346020
v 112.348701 -0.415725 -51.028202
v 104.864265 -3.611550 -30.402088
v 107.489021 10.208104 -28.811602
v 100.614548 7.463492 -34.289349
v 105.477211 11.768364 -31.965157
v 107.099640 10.618999 -32.501789
v 106.164284 -4.480363 -28.950537
v 100.410332 -0.473540 -12.373796
v 107.773987 -7.026010 -15.204706
v 108.722488 7.791718 -17.964817
v 122.048164 8.618290 -13.543448
v 123.258675 4.804187 -17.181358
v 108.046288 7.390478 -19.072632
v 114.245026 10.886578 -17.014622
v 108.395081 0.057535 -17.916916
v 120.973328 0.023784 -19.041519
v 114.581551 -3.291893 -21.572100
v 120.698837 7.929959 -18.437727
v 122.649178 4.477359 -21.438484
v 120.688705 -0.083589 -15.939666
v 115.219116 -3.129598 -32.756157
v 95.373688 -1.719108 -37.428066
v 103.274857 -6.969908 -42.277325
v 111.251831 -2.722380 -42.454872
v 111.179649 8.341758 -37.321400
v 103.236946 12.814301 -32.695927
v 95.705452 8.135139 -37.740208
v 91.527710 8.346629 -43.033295
v 99.563721 13.566529 -42.951710
v 99.827988 -8.342282 -37.662945
v 91.392731 -2.690111 -48.530682
v 108.701180 9.021843 -48.227985
v 108.735664 -3.920175 -13.638370
v 86.701302 -6.679374 -6.850644
v 86.289345 -9.983801 -36.409348
v 112.023277 7.155884 -6.076767
v 124.066711 -0.338493 -6.199975
v 100.339012 -10.352567 -45.882797
v 92.817726 5.221790 -48.243675
v 96.572617 7.533317 -45.628464
v 92.772926 -0.168914 -50.570660
v 100.195801 5.665751 -48.018097
v 96.520935 -3.080128 -50.401695
v 100.354218 -0.967528 -6.234633
v 92.722031 -9.963625 -11.452927
v 93.047325 -6.341821 -14.130073
v 93.544983 -0.140093 -14.157464
v 101.095894 -0.095566 -15.943482
v 87.234360 0.048966 -11.418038
v 100.688217 -6.823334 -9.941012
v 81.988609 12.672957 -0.000000
v 132.061157 7.199069 -6.090566
v 131.217926 4.411327 -5.469983
v 129.743500 -0.329510 -23.354021
v 104.881561 6.987970 -26.930305
v 109.647507 10.076580 -23.505301
v 104.972702 0.060836 -29.987816
v 114.828674 6.947661 -29.870968
v 114.671486 -0.278711 -26.859741
v 109.519386 -3.302254 -21.171394
v 104.856041 7.459807 -21.321083
v 104.699059 -0.190217 -28.813148
v 117.341545 7.605100 -25.407894
v 110.808777 11.256303 -28.711945
v 117.151108 -0.838840 -25.374413
v 110.634872 -4.364673 -4.347755
v 112.537018 -10.838873 -39.965672
v 91.020874 8.259313 -45.002407
v 98.376625 12.972518 -44.818050
v 98.665398 -8.012400 -39.685280
v 90.926498 -2.634508 -49.746780
v 106.869759 -4.012095 -50.074364
v 106.693878 9.007726 -17.252502
v 105.648712 8.627553 -17.135983
v 105.897552 -0.864985 -20.483395
v 113.440544 12.768122 -20.550997
v 113.655098 -5.454375 -24.141176
v 121.489494 9.106312 -23.674595
v 120.660027 -1.533056 26.741678
v 121.291992 3.878855 23.396980
v 121.457214 11.290073 21.610235
v 127.443687 8.133149 16.842737
v 128.182755 10.025601 23.613731
v 126.810364 3.398717 21.682405
v 126.653481 -1.404276 16.944809
v 127.065269 -3.462353 8.567493
v 123.868004 10.980718 5.515793
v 124.949677 3.418921 12.105138
v 128.594528 7.967523 10.173816
v 128.437637 3.164529 12.177312
v 127.804344 -1.569901 8.679466
v 122.642052 -3.816218 23.508963
v 120.231255 -3.506863 16.052856
v 122.273628 14.253876 16.211214
v 120.539864 -6.672153 -26.741682
v 121.291237 3.884266 -23.396980
v 121.450706 11.295037 -21.610229
v 127.439613 8.142230 -16.842735
v 128.177231 10.034419 -23.613729
v 126.809990 3.407672 -21.682404
v 126.656822 -1.395764 -16.944805
v 127.070190 -3.454340 -5.515790
v 124.949272 3.423432 -8.567493
v 123.861725 10.984948 -12.105138
v 128.590591 7.975840 -10.173814
v 128.437454 3.172405 -12.177311
v 127.807823 -1.562152 -8.679465
v 122.647270 -3.812870 -23.508957
v 120.236229 -3.502783 -16.052856
v 122.264809 14.258197 -16.211214
v 120.547310 -6.669081 0.870693
v 70.771591 0.715442 1.915390
v 51.868809 2.375689 2.057927
v 49.583580 2.413128 2.440291
v 37.050919 2.445197 1.250310
v 65.235886 1.564373 0.000000
v 71.149872 0.659339 5.978359
v 11.774219 -8.636710 2.837194
v 10.405089 2.562901 28.028454
v 11.299099 4.795419 18.197252
v 10.707989 15.808567 15.469145
v 12.934010 -14.832461 2.970572
v 21.787914 2.677263 8.529079
v 10.477508 14.990911 2.837194
v 10.405089 2.562901 26.080515
v 11.834240 -8.141107 6.850644
v 86.289337 -9.983799 6.690831
v 107.281349 -10.779728 27.088066
v 102.602097 6.988311 23.354019
v 104.881546 6.987955 28.811602
v 100.614548 7.463489 27.298317
v 102.478325 0.141302 33.346024
v 112.348717 -0.415706 30.338903
v 107.383636 -3.455150 27.088066
v 102.602097 6.988311 33.528259
v 112.560471 6.927613 27.088066
v 102.602097 6.988311 30.402079
v 107.488983 10.208105 32.695923
v 95.705452 8.135143 16.325169
v 115.133545 11.302149 15.204706
v 108.722481 7.791706 15.204706
v 108.722481 7.791706 15.311282
v 108.691231 -0.047336 17.181358
v 108.047813 7.393107 15.939663
v 115.215607 -3.128920 17.964817
v 122.051483 8.614933 17.916916
v 120.971649 0.021029 18.437725
v 122.650093 4.473611 17.252501
v 105.649803 8.629475 37.740204
v 91.527710 8.346629 39.965668
v 91.020882 8.259317 42.468197
v 90.924866 7.750051 6.234633
v 92.722031 -9.963625 6.199974
v 100.339012 -10.352567 45.882797
v 92.817726 5.221794 -0.000000
v 114.766479 -10.844056 23.354019
v 104.881546 6.987955 26.930304
v 109.647469 10.076582 23.354019
v 104.881546 6.987955 23.505302
v 104.972710 0.060818 21.171392
v 104.856026 7.459785 29.987816
v 114.828659 6.947683 29.870966
v 114.671501 -0.278691 26.859745
v 109.519417 -3.302254 18.917646
v 104.153145 8.417664 4.347759
v 112.537018 -10.838873 0.000000
v 71.149872 0.659339 0.000000
v 73.721741 8.175353 -0.870692
v 70.771591 0.715446 -1.915390
v 51.868809 2.375689 -2.057926
v 49.583588 2.413132 -2.440291
v 37.050919 2.445203 -1.250310
v 65.235886 1.564375 0.000000
v 73.669159 -7.645537 0.000000
v 71.149872 0.659339 0.000001
v 81.033646 -10.634989 -0.000000
v 80.826447 12.418567 -0.000000
v 87.856026 11.654859 -5.978361
v 11.774220 -8.636711 -2.837196
v 10.405087 2.562903 -28.028454
v 11.299098 4.795423 -18.197252
v 10.707990 15.808568 -15.469144
v 12.934011 -14.832462 0.000000
v 86.136688 -11.320231 -2.970572
v 21.787914 2.677255 -8.529079
v 10.477509 14.990911 -2.837196
v 10.405087 2.562903 -26.080517
v 11.834236 -8.141106 -0.000001
v 94.178825 10.581617 -0.000000
v 101.646408 10.970208 -0.000001
v 108.119034 12.210542 0.000001
v 115.830292 12.776650 -0.000000
v 123.247871 10.395066 -0.000000
v 88.115364 12.030312 -0.000000
v 73.893539 15.400455 -6.850644
v 86.289345 -9.983801 -0.000000
v 81.839928 13.619062 -0.000000
v 65.359558 16.965374 -0.000000
v 56.973816 17.882774 -0.000000
v 119.606827 -6.254026 -0.000000
v 126.980804 8.664188 -6.690829
v 107.281349 -10.779728 0.000000
v 107.130051 -12.542318 -0.000000
v 100.139275 -11.755625 -27.088066
v 102.602112 6.988329 -23.354021
v 104.881561 6.987970 -28.811602
v 100.614548 7.463492 -27.298317
v 102.478317 0.141319 -33.346020
v 112.348701 -0.415725 -30.338902
v 107.383606 -3.455149 -27.088066
v 102.602112 6.988329 -33.528259
v 112.560486 6.927592 -27.088066
v 102.602112 6.988329 -30.402088
v 107.489021 10.208104 -32.695927
v 95.705452 8.135139 -16.325169
v 115.128662 11.301473 -15.204706
v 108.722488 7.791718 -15.204706
v 108.722488 7.791718 -17.181358
v 108.046288 7.390478 -15.311282
v 108.692383 -0.050249 -15.939666
v 115.219116 -3.129598 -17.964817
v 122.048164 8.618290 -17.916916
v 120.973328 0.023784 -18.437727
v 122.649178 4.477359 -17.252502
v 105.648712 8.627553 -37.740208
v 91.527710 8.346629 -39.965672
v 91.020874 8.259313 -42.468201
v 90.924858 7.750046 -0.000000
v 114.766479 -10.844056 -0.000000
v 92.537872 -11.579504 -6.234633
v 92.722031 -9.963625 -0.000000
v 122.656525 -3.436977 -6.199975
v 100.339012 -10.352567 -45.882797
v 92.817726 5.221790 -0.000000
v 132.061157 7.199069 0.000001
v 128.726044 -3.807282 -0.000000
v 114.766479 -10.844056 -23.354021
v 104.881561 6.987970 -26.930305
v 109.647507 10.076580 -23.354021
v 104.881561 6.987970 -21.171394
v 104.856041 7.459807 -23.505301
v 104.972702 0.060836 -29.987816
v 114.828674 6.947661 -29.870968
v 114.671486 -0.278711 -26.859741
v 109.519386 -3.302254 -18.917648
v 104.153168 8.417687 -4.347755
v 112.537018 -10.838873 0.914288

vt 0.635535 0.086003
vt 0.544978 0.087000
vt 0.467336 0.086003
vt 0.544978 0.004038
vt 0.634992 0.008689
vt 0.545396 0.009548
vt 0.444363 0.008689
vt 0.545396 0.101828
vt 0.553796 0.101615
vt 0.635002 0.569369
vt 0.616588 0.569097
vt 0.546412 0.102536
vt 0.482437 0.484591
vt 0.581877 0.086104
vt 0.722248 0.086419
vt 0.795838 0.086104
vt 0.722248 0.085712
vt 0.635535 0.009779
vt 0.723467 0.010383
vt 0.817818 0.009779
vt 0.723467 0.004038
vt 0.634992 0.101903
vt 0.715218 0.519962
vt 0.666423 0.102770
vt 0.782058 0.280663
vt 0.629926 0.085712
vt 0.635535 0.086003
vt 0.544978 0.087000
vt 0.467336 0.086003
vt 0.544978 0.004038
vt 0.634992 0.008689
vt 0.545396 0.009548
vt 0.444363 0.008689
vt 0.545396 0.101828
vt 0.553796 0.101615
vt 0.635002 0.569369
vt 0.616588 0.569097
vt 0.546412 0.102536
vt 0.482437 0.484591
vt 0.581877 0.086104
vt 0.722248 0.086419
vt 0.795838 0.086104
vt 0.722248 0.085712
vt 0.635535 0.009779
vt 0.723467 0.010383
vt 0.817818 0.009779
vt 0.723467 0.004038
vt 0.634992 0.101903
vt 0.715218 0.519962
vt 0.666423 0.102770
vt 0.782058 0.280663
vt 0.629926 0.426599
vt 0.439692 0.465575
vt 0.408507 0.397278
vt 0.439795 0.353748
vt 0.476121 0.216931
vt 0.472768 0.263081
vt 0.470861 0.217664
vt 0.377351 0.172485
vt 0.459434 0.173056
vt 0.383266 0.174851
vt 0.480294 0.350264
vt 0.448966 0.302001
vt 0.470199 0.073833
vt 0.379605 0.132715
vt 0.384890 0.129518
vt 0.304982 0.172849
vt 0.306169 0.390960
vt 0.381049 0.388793
vt 0.294194 0.448313
vt 0.296537 0.342224
vt 0.290700 0.345225
vt 0.376116 0.282861
vt 0.373232 0.282593
vt 0.289959 0.218264
vt 0.300421 0.072397
vt 0.289576 0.130084
vt 0.283053 0.217791
vt 0.277454 0.389190
vt 0.280240 0.342825
vt 0.273879 0.174299
vt 0.280205 0.283336
vt 0.270293 0.283535
vt 0.187500 0.350038
vt 0.192935 0.174107
vt 0.255155 0.126502
vt 0.266065 0.220042
vt 0.254063 0.013762
vt 0.067869 0.077186
vt 0.051471 0.061878
vt 0.217134 0.117868
vt 0.206495 0.400324
vt 0.200903 0.289461
vt 0.012988 0.080682
vt 0.976093 0.216819
vt 0.187619 0.165840
vt 0.196028 0.376966
vt 0.020760 0.052351
vt 0.862013 0.136611
vt 0.448992 0.408025
vt 0.484987 0.221749
vt 0.512676 0.264280
vt 0.512479 0.307473
vt 0.514403 0.348954
vt 0.519810 0.138230
vt 0.028541 0.059548
vt 0.921201 0.494924
vt 0.125890 0.286243
vt 0.085959 0.365844
vt 0.094133 0.419865
vt 0.104791 0.099207
vt 0.114374 0.152795
vt 0.101038 0.216856
vt 0.087578 0.089400
vt 0.081165 0.145797
vt 0.063277 0.215031
vt 0.050943 0.947265
vt 0.565949 0.873312
vt 0.641304 0.852100
vt 0.842136 0.887580
vt 0.707060 0.795283
vt 0.511088 0.860380
vt 0.506258 0.860481
vt 0.369963 0.641854
vt 0.475180 0.713842
vt 0.458819 0.532327
vt 0.444403 0.565270
vt 0.509619 0.789398
vt 0.451127 0.497536
vt 0.365709 0.857145
vt 0.284442 0.880128
vt 0.782108 0.861721
vt 0.569610 0.618850
vt 0.405559 0.697202
vt 0.387070 0.780387
vt 0.378724 0.592398
vt 0.325969 0.678328
vt 0.301051 0.769026
vt 0.292442 0.566588
vt 0.243328 0.662309
vt 0.217298 0.853299
vt 0.201987 0.757890
vt 0.206006 0.465276
vt 0.288321 0.819275
vt 0.645081 0.803461
vt 0.573195 0.947279
vt 0.889037 0.984467
vt 0.209675 0.119744
vt 0.520614 0.838408
vt 0.770212 0.834702
vt 0.890258 0.892384
vt 0.870386 0.762257
vt 0.726660 0.974924
vt 0.807635 0.366317
vt 0.921170 0.118350
vt 0.630580 0.668001
vt 0.831451 0.627877
vt 0.755378 0.722444
vt 0.801640 0.768905
vt 0.843724 0.725539
vt 0.883074 0.775663
vt 0.880681 0.848963
vt 0.915762 0.607996
vt 0.086199 0.987896
vt 0.094682 0.910966
vt 0.085720 0.685986
vt 0.072210 0.755950
vt 0.075103 0.837990
vt 0.081858 0.182815
vt 0.680318 0.543657
vt 0.680255 0.315017
vt 0.680197 0.473140
vt 0.680214 0.128938
vt 0.784626 0.198660
vt 0.801816 0.514445
vt 0.805355 0.271364
vt 0.802910 0.440241
vt 0.787576 0.398117
vt 0.680191 0.368850
vt 0.801034 0.251236
vt 0.679733 0.163457
vt 0.974199 0.219421
vt 0.931899 0.232255
vt 0.953428 0.430735
vt 0.920254 0.496084
vt 0.927776 0.690704
vt 0.735634 0.830318
vt 0.718970 0.818301
vt 0.808582 0.824272
vt 0.857736 0.976275
vt 0.127900 0.907585
vt 0.135292 0.620582
vt 0.121499 0.788396
vt 0.813010 0.691052
vt 0.126498 0.834477
vt 0.138961 0.807016
vt 0.814868 0.758853
vt 0.135332 0.750924
vt 0.788588 0.516673
vt 0.880306 0.436053
vt 0.870993 0.363550
vt 0.874995 0.281287
vt 0.877098 0.202432
vt 0.901882 0.121255
vt 0.921076 0.102332
vt 0.851012 0.189278
vt 0.846824 0.445858
vt 0.816878 0.528216
vt 0.834438 0.271830
vt 0.827519 0.365807
vt 0.828820 0.680062
vt 0.922777 0.116603
vt 0.759193 0.657405
vt 0.528306 0.175188
vt 0.519061 0.291950
vt 0.926415 0.116971
vt 0.570030 0.777934
vt 0.914250 0.171089
vt 0.631053 0.165888
vt 0.748680 0.218238
vt 0.760052 0.511820
vt 0.770933 0.287266
vt 0.760538 0.449780
vt 0.760776 0.376569
vt 0.760044 0.170158
vt 0.564166 0.668288
vt 0.594971 0.737750
vt 0.580239 0.751243
vt 0.653559 0.726504
vt 0.514282 0.677435
vt 0.670736 0.860990
vt 0.444997 0.956227
vt 0.451258 0.746460
vt 0.989981 0.848108
vt 0.962503 0.801670
vt 0.965365 0.186953
vt 0.731914 0.252073
vt 0.732030 0.540791
vt 0.732170 0.315501
vt 0.732131 0.399017
vt 0.732241 0.472235
vt 0.732265 0.982003
vt 0.064196 0.617314
vt 0.059948 0.839039
vt 0.052265 0.910492
vt 0.059952 0.755868
vt 0.046009 0.685960
vt 0.045659 0.152346
vt 0.740839 0.110322
vt 0.815979 0.190229
vt 0.826403 0.443778
vt 0.801545 0.523208
vt 0.822504 0.368598
vt 0.815938 0.269620
vt 0.815774 0.540946
vt 0.113831 0.614289
vt 0.103849 0.909276
vt 0.110506 0.688519
vt 0.099354 0.836234
vt 0.110410 0.757401
vt 0.105217 0.117032
vt 0.452323 0.401267
vt 0.529191 0.468930
vt 0.413392 0.465575
vt 0.408507 0.397278
vt 0.439795 0.353748
vt 0.476121 0.216931
vt 0.472768 0.263081
vt 0.470861 0.217664
vt 0.377351 0.172485
vt 0.459434 0.173056
vt 0.383266 0.174851
vt 0.480294 0.350264
vt 0.448966 0.302001
vt 0.470199 0.073833
vt 0.379605 0.132715
vt 0.384890 0.129518
vt 0.304982 0.172849
vt 0.306169 0.390960
vt 0.381049 0.388793
vt 0.294194 0.448313
vt 0.296537 0.342224
vt 0.290700 0.345225
vt 0.376116 0.282861
vt 0.373232 0.282593
vt 0.289959 0.218264
vt 0.300421 0.072397
vt 0.289576 0.130084
vt 0.283053 0.217791
vt 0.277454 0.389190
vt 0.280240 0.342825
vt 0.273879 0.174299
vt 0.280205 0.283336
vt 0.270293 0.283535
vt 0.187500 0.350038
vt 0.192935 0.174107
vt 0.255155 0.126502
vt 0.266065 0.220042
vt 0.254063 0.013762
vt 0.067869 0.077186
vt 0.051471 0.061878
vt 0.217134 0.117868
vt 0.206495 0.400324
vt 0.200903 0.289461
vt 0.012988 0.080682
vt 0.976093 0.216819
vt 0.187619 0.165840
vt 0.196028 0.376966
vt 0.020760 0.052351
vt 0.862013 0.120825
vt 0.489055 0.136611
vt 0.448992 0.221749
vt 0.512676 0.264280
vt 0.512479 0.307473
vt 0.514403 0.348954
vt 0.519810 0.138230
vt 0.028541 0.059548
vt 0.921201 0.494924
vt 0.125890 0.286243
vt 0.085959 0.365844
vt 0.094133 0.419865
vt 0.104791 0.099207
vt 0.114374 0.152795
vt 0.101038 0.216856
vt 0.087578 0.089400
vt 0.081165 0.145797
vt 0.063277 0.215031
vt 0.050943 0.873312
vt 0.641304 0.852100
vt 0.842136 0.887580
vt 0.707060 0.795283
vt 0.511088 0.860380
vt 0.506258 0.860481
vt 0.369963 0.641854
vt 0.475180 0.713842
vt 0.458819 0.532327
vt 0.444403 0.565270
vt 0.509619 0.789398
vt 0.451127 0.497536
vt 0.365709 0.857145
vt 0.284442 0.880128
vt 0.782108 0.861721
vt 0.569610 0.618850
vt 0.405559 0.697202
vt 0.387070 0.780387
vt 0.378724 0.592398
vt 0.325969 0.678328
vt 0.301051 0.769026
vt 0.292442 0.566588
vt 0.243328 0.662309
vt 0.217298 0.853299
vt 0.201987 0.757890
vt 0.206006 0.465276
vt 0.288321 0.819275
vt 0.645081 0.803461
vt 0.573195 0.982721
vt 0.711373 0.949567
vt 0.510409 0.962630
vt 0.632944 0.967057
vt 0.374647 0.838408
vt 0.770212 0.834702
vt 0.890258 0.892384
vt 0.870386 0.762257
vt 0.726660 0.977122
vt 0.290530 0.924104
vt 0.929932 0.115999
vt 0.695197 0.715361
vt 0.943541 0.366317
vt 0.921170 0.668001
vt 0.831451 0.627877
vt 0.755378 0.722444
vt 0.801640 0.768905
vt 0.843724 0.725539
vt 0.883074 0.775663
vt 0.880681 0.848963
vt 0.915762 0.607996
vt 0.086199 0.987896
vt 0.094682 0.910966
vt 0.085720 0.685986
vt 0.072210 0.755950
vt 0.075103 0.837990
vt 0.081858 0.182815
vt 0.680318 0.543657
vt 0.680255 0.315017
vt 0.680197 0.473140
vt 0.680214 0.128938
vt 0.784626 0.198660
vt 0.801816 0.514445
vt 0.805355 0.271364
vt 0.802910 0.440241
vt 0.787576 0.398117
vt 0.680191 0.368850
vt 0.801034 0.251236
vt 0.679733 0.163457
vt 0.974199 0.219421
vt 0.931899 0.232255
vt 0.953428 0.430735
vt 0.920254 0.496084
vt 0.927776 0.690704
vt 0.735634 0.830318
vt 0.718970 0.818301
vt 0.808582 0.824272
vt 0.857736 0.976275
vt 0.127900 0.907585
vt 0.135292 0.620582
vt 0.121499 0.788396
vt 0.813010 0.691052
vt 0.126498 0.834477
vt 0.138961 0.807016
vt 0.814868 0.758853
vt 0.135332 0.750924
vt 0.788588 0.516673
vt 0.880306 0.436053
vt 0.870993 0.363550
vt 0.874995 0.281287
vt 0.877098 0.202432
vt 0.901882 0.121255
vt 0.921076 0.102332
vt 0.851012 0.189278
vt 0.846824 0.445858
vt 0.816878 0.528216
vt 0.834438 0.271830
vt 0.827519 0.365807
vt 0.828820 0.657405
vt 0.528306 0.175188
vt 0.519061 0.291950
vt 0.926415 0.777934
vt 0.914250 0.171089
vt 0.631053 0.165888
vt 0.748680 0.218238
vt 0.760052 0.511820
vt 0.770933 0.287266
vt 0.760538 0.449780
vt 0.760776 0.376569
vt 0.760044 0.170158
vt 0.564166 0.668288
vt 0.594971 0.737750
vt 0.580239 0.751243
vt 0.653559 0.726504
vt 0.514282 0.677435
vt 0.670736 0.860990
vt 0.444997 0.910939
vt 0.979268 0.848108
vt 0.962503 0.801670
vt 0.965365 0.186953
vt 0.731914 0.252073
vt 0.732030 0.540791
vt 0.732170 0.315501
vt 0.732131 0.399017
vt 0.732241 0.472235
vt 0.732265 0.982003
vt 0.064196 0.617314
vt 0.059948 0.839039
vt 0.052265 0.910492
vt 0.059952 0.755868
vt 0.046009 0.685960
vt 0.045659 0.152346
vt 0.740839 0.110322
vt 0.815979 0.190229
vt 0.826403 0.443778
vt 0.801545 0.523208
vt 0.822504 0.368598
vt 0.815938 0.269620
vt 0.815774 0.540946
vt 0.113831 0.614289
vt 0.103849 0.909276
vt 0.110506 0.688519
vt 0.099354 0.836234
vt 0.110410 0.757401
vt 0.105217 0.192893
vt 0.629130 0.220549
vt 0.565233 0.101828
vt 0.553796 0.101615
vt 0.635002 0.519297
vt 0.497019 0.449157
vt 0.497306 0.399749
vt 0.547141 0.349276
vt 0.566157 0.377438
vt 0.630750 0.101903
vt 0.715218 0.449822
vt 0.666710 0.400022
vt 0.617317 0.349276
vt 0.566157 0.220549
vt 0.565233 0.283415
vt 0.538821 0.283415
vt 0.538821 0.192893
vt 0.629130 0.220549
vt 0.565233 0.101828
vt 0.553796 0.101615
vt 0.635002 0.519297
vt 0.497019 0.449157
vt 0.497306 0.399749
vt 0.547141 0.377438
vt 0.630750 0.349276
vt 0.566157 0.101903
vt 0.715218 0.449822
vt 0.666710 0.400022
vt 0.617317 0.349276
vt 0.566157 0.220549
vt 0.565233 0.283415
vt 0.538821 0.283415
vt 0.538821 0.074601
vt 0.412401 0.072258
vt 0.298235 0.449248
vt 0.289955 0.465447
vt 0.215806 0.455440
vt 0.376377 0.070965
vt 0.416934 0.004781
vt 0.942694 0.010455
vt 0.896195 0.110044
vt 0.928287 0.090219
vt 0.871320 0.033639
vt 0.978291 0.035053
vt 0.131133 0.436715
vt 0.033435 0.517762
vt 0.058070 0.211425
vt 0.012656 0.588790
vt 0.555919 0.172941
vt 0.697640 0.605487
vt 0.680314 0.603712
vt 0.731875 0.553994
vt 0.958075 0.489186
vt 0.948987 0.362371
vt 0.946098 0.428578
vt 0.943473 0.539957
vt 0.975712 0.292832
vt 0.950660 0.181970
vt 0.992408 0.234712
vt 0.967063 0.586844
vt 0.912792 0.909454
vt 0.162628 0.976117
vt 0.147481 0.549346
vt 0.150790 0.620764
vt 0.137817 0.549712
vt 0.131192 0.684680
vt 0.154883 0.839911
vt 0.174283 0.749239
vt 0.165253 0.798147
vt 0.172001 0.982085
vt 0.111291 0.613077
vt 0.850782 0.610154
vt 0.814254 0.591389
vt 0.782114 0.608276
vt 0.611170 0.619400
vt 0.680366 0.557364
vt 0.756383 0.619687
vt 0.879649 0.973930
vt 0.039179 0.909510
vt 0.037569 0.545600
vt 0.042976 0.614917
vt 0.037968 0.533727
vt 0.066191 0.838212
vt 0.029955 0.756400
vt 0.024949 0.685411
vt 0.026533 0.532180
vt 0.096471 0.631127
vt 0.825104 0.468930
vt 0.413392 0.426599
vt 0.439692 0.074601
vt 0.412401 0.072258
vt 0.298235 0.449248
vt 0.289955 0.465447
vt 0.215806 0.455440
vt 0.376377 0.117032
vt 0.452323 0.070965
vt 0.416934 0.120825
vt 0.489055 0.408025
vt 0.484987 0.401267
vt 0.529191 0.004781
vt 0.942694 0.010455
vt 0.896195 0.110044
vt 0.928287 0.090219
vt 0.871320 0.033639
vt 0.978291 0.119744
vt 0.520614 0.035053
vt 0.131133 0.436715
vt 0.033435 0.517762
vt 0.058070 0.211425
vt 0.012656 0.947265
vt 0.565949 0.962630
vt 0.632944 0.982721
vt 0.711373 0.974924
vt 0.807635 0.947279
vt 0.889037 0.949567
vt 0.510409 0.967057
vt 0.374647 0.588790
vt 0.555919 0.956227
vt 0.451258 0.977122
vt 0.290530 0.984467
vt 0.209675 0.680062
vt 0.922777 0.924104
vt 0.929932 0.172941
vt 0.697640 0.115999
vt 0.695197 0.118350
vt 0.630580 0.605487
vt 0.680314 0.603712
vt 0.731875 0.553994
vt 0.958075 0.489186
vt 0.948987 0.362371
vt 0.946098 0.428578
vt 0.943473 0.539957
vt 0.975712 0.292832
vt 0.950660 0.181970
vt 0.992408 0.234712
vt 0.967063 0.586844
vt 0.912792 0.909454
vt 0.162628 0.976117
vt 0.147481 0.549346
vt 0.150790 0.549712
vt 0.131192 0.620764
vt 0.137817 0.684680
vt 0.154883 0.839911
vt 0.174283 0.749239
vt 0.165253 0.798147
vt 0.172001 0.982085
vt 0.111291 0.613077
vt 0.850782 0.610154
vt 0.814254 0.591389
vt 0.782114 0.116603
vt 0.759193 0.116971
vt 0.570030 0.608276
vt 0.611170 0.715361
vt 0.943541 0.619400
vt 0.680366 0.557364
vt 0.756383 0.910939
vt 0.979268 0.746460
vt 0.989981 0.619687
vt 0.879649 0.973930
vt 0.039179 0.909510
vt 0.037569 0.545600
vt 0.042976 0.533727
vt 0.066191 0.614917
vt 0.037968 0.838212
vt 0.029955 0.756400
vt 0.024949 0.685411
vt 0.026533 0.532180
vt 0.096471 0.631127
vt 0.825104 1.000000

f 1/1 6/6 5/5
f 6/6 1/1 2/2
f 2/2 7/7 6/6
f 7/7 2/2 3/3
f 3/3 8/8 7/7
f 8/8 3/3 4/4
f 18/18 22/22 8/8
f 8/8 4/4 18/18
f 1/1 19/19 15/15
f 19/19 1/1 5/5
f 15/15 20/20 16/16
f 20/20 15/15 19/19
f 16/16 21/21 17/17
f 21/21 16/16 20/20
f 21/21 22/22 18/18
f 18/18 17/17 21/21
f 27/27 32/32 28/28
f 32/32 27/27 31/31
f 28/28 33/33 29/29
f 33/33 28/28 32/32
f 29/29 34/34 30/30
f 34/34 29/29 33/33
f 34/34 48/48 44/44
f 44/44 30/30 34/34
f 27/27 45/45 31/31
f 45/45 27/27 41/41
f 41/41 46/46 45/45
f 46/46 41/41 42/42
f 42/42 47/47 46/46
f 47/47 42/42 43/43
f 44/44 48/48 47/47
f 47/47 43/43 44/44
f 12/12 14/14 2/2
f 2/2 1/1 18/18
f 3/3 2/2 475/475
f 476/476 14/14 12/12
f 475/475 14/14 476/476
f 477/477 14/14 11/11
f 14/14 24/24 15/15
f 15/15 23/23 18/18
f 18/18 474/474 17/17
f 17/17 480/480 16/16
f 16/16 25/25 481/481
f 14/14 482/482 24/24
f 14/14 481/481 482/482
f 14/14 477/477 37/37
f 40/40 38/38 28/28
f 28/28 35/35 44/44
f 44/44 490/490 30/30
f 30/30 489/489 29/29
f 29/29 39/39 491/491
f 40/40 492/492 38/38
f 40/40 491/491 492/492
f 40/40 493/493 37/37
f 50/50 40/40 41/41
f 41/41 27/27 44/44
f 42/42 41/41 497/497
f 498/498 40/40 50/50
f 497/497 40/40 498/498
f 493/493 40/40 118/118
f 133/133 359/359 119/119
f 359/359 133/133 132/132
f 357/357 121/121 120/120
f 190/190 151/151 153/153
f 188/188 229/229 145/145
f 229/229 188/188 357/357
f 359/359 121/121 190/190
f 189/189 197/197 188/188
f 121/121 119/119 189/189
f 190/190 120/120 150/150
f 120/120 132/132 189/189
f 120/120 150/150 152/152
f 132/132 120/120 154/154
f 132/132 152/152 119/119
f 121/121 359/359 154/154
f 152/152 147/147 120/120
f 151/151 152/152 188/188
f 150/150 121/121 132/132
f 121/121 150/150 132/132
f 154/154 357/357 122/122
f 133/133 123/123 228/228
f 146/146 122/122 118/118
f 118/118 358/358 228/228
f 122/122 230/230 124/124
f 232/232 360/360 128/128
f 125/125 127/127 129/129
f 124/124 136/136 232/232
f 124/124 129/129 126/126
f 125/125 128/128 129/129
f 129/129 126/126 232/232
f 129/129 123/123 122/122
f 123/123 129/129 134/134
f 127/127 125/125 232/232
f 233/233 360/360 130/130
f 137/137 130/130 124/124
f 131/131 124/124 136/136
f 139/139 136/136 365/365
f 143/143 139/139 229/229
f 228/228 229/229 125/125
f 134/134 125/125 126/126
f 135/135 126/126 137/137
f 137/137 134/134 135/135
f 136/136 138/138 139/139
f 138/138 136/136 137/137
f 140/140 137/137 139/139
f 143/143 138/138 141/141
f 138/138 143/143 365/365
f 148/148 142/142 143/143
f 131/131 142/142 137/137
f 130/130 137/137 188/188
f 119/119 145/145 146/146
f 133/133 122/122 145/145
f 146/146 145/145 157/157
f 159/159 158/158 160/160
f 157/157 161/161 159/159
f 157/157 160/160 212/212
f 218/218 161/161 160/160
f 161/161 162/162 151/151
f 161/161 218/218 152/152
f 151/151 162/162 152/152
f 147/147 152/152 519/519
f 156/156 367/367 238/238
f 238/238 237/237 520/520
f 520/520 521/521 241/241
f 241/241 240/240 179/179
f 179/179 173/173 240/240
f 240/240 238/238 248/248
f 167/167 248/248 207/207
f 205/205 206/206 182/182
f 204/204 183/183 522/522
f 523/523 186/186 155/155
f 524/524 216/216 525/525
f 186/186 523/523 209/209
f 201/201 208/208 525/525
f 524/524 155/155 203/203
f 183/183 204/204 184/184
f 182/182 183/183 526/526
f 523/523 522/522 216/216
f 184/184 216/216 182/182
f 527/527 529/529 216/216
f 184/184 183/183 528/528
f 184/184 529/529 208/208
f 202/202 211/211 155/155
f 185/185 525/525 186/186
f 525/525 185/185 530/530
f 186/186 200/200 185/185
f 200/200 186/186 156/156
f 519/519 219/219 192/192
f 531/531 191/191 532/532
f 191/191 531/531 533/533
f 534/534 535/535 193/193
f 535/535 534/534 153/153
f 187/187 199/199 197/197
f 194/194 190/190 160/160
f 190/190 194/194 199/199
f 160/160 194/194 187/187
f 187/187 231/231 536/536
f 195/195 193/193 192/192
f 537/537 531/531 536/536
f 538/538 195/195 198/198
f 195/195 538/538 537/537
f 192/192 196/196 538/538
f 539/539 198/198 196/196
f 537/537 196/196 190/190
f 160/160 151/151 535/535
f 535/535 193/193 191/191
f 191/191 540/540 257/257
f 257/257 259/259 159/159
f 199/199 187/187 160/160
f 199/199 159/159 193/193
f 534/534 536/536 541/541
f 200/200 209/209 155/155
f 201/201 185/185 200/200
f 155/155 202/202 183/183
f 203/203 216/216 210/210
f 204/204 207/207 186/186
f 530/530 522/522 204/204
f 182/182 205/205 174/174
f 174/174 175/175 200/200
f 541/541 530/530 176/176
f 176/176 253/253 202/202
f 208/208 201/201 204/204
f 210/210 203/203 180/180
f 180/180 178/178 176/176
f 176/176 543/543 201/201
f 209/209 200/200 177/177
f 177/177 255/255 205/205
f 207/207 204/204 367/367
f 367/367 213/213 169/169
f 169/169 260/260 203/203
f 216/216 203/203 259/259
f 259/259 261/261 169/169
f 169/169 168/168 217/217
f 219/219 226/226 544/544
f 214/214 518/518 149/149
f 226/226 215/215 212/212
f 368/368 218/218 210/210
f 203/203 210/210 180/180
f 180/180 254/254 158/158
f 231/231 227/227 217/217
f 156/156 219/219 175/175
f 221/221 175/175 176/176
f 222/222 176/176 178/178
f 224/224 178/178 543/543
f 546/546 543/543 177/177
f 223/223 177/177 180/180
f 225/225 180/180 545/545
f 227/227 214/214 149/149
f 217/217 226/226 228/228
f 228/228 230/230 229/229
f 229/229 231/231 123/123
f 123/123 358/358 235/235
f 235/235 443/443 234/234
f 368/368 234/234 547/547
f 547/547 212/212 228/228
f 228/228 227/227 246/246
f 246/246 243/243 550/550
f 550/550 552/552 247/247
f 247/247 245/245 248/248
f 248/248 247/247 245/245
f 245/245 246/246 242/242
f 242/242 173/173 248/248
f 248/248 555/555 166/166
f 166/166 165/165 552/552
f 552/552 556/556 168/168
f 168/168 169/169 167/167
f 167/167 168/168 169/169
f 169/169 166/166 547/547
f 157/157 158/158 207/207
f 207/207 206/206 253/253
f 253/253 209/209 208/208
f 208/208 211/211 541/541
f 541/541 209/209 255/255
f 255/255 210/210 211/211
f 211/211 210/210 164/164
f 164/164 556/556 540/540
f 540/540 165/165 193/193
f 193/193 195/195 260/260
f 260/260 196/196 195/195
f 198/198 196/196 580/580
f 581/581 343/343 329/329
f 343/343 581/581 342/342
f 331/331 582/582 330/330
f 362/362 403/403 364/364
f 439/439 401/401 355/355
f 401/401 439/439 582/582
f 331/331 581/581 403/403
f 410/410 402/402 401/401
f 329/329 331/331 402/402
f 330/330 403/403 361/361
f 342/342 330/330 402/402
f 361/361 330/330 363/363
f 330/330 342/342 583/583
f 363/363 342/342 329/329
f 581/581 331/331 583/583
f 584/584 363/363 330/330
f 363/363 362/362 401/401
f 331/331 361/361 342/342
f 361/361 331/331 342/342
f 582/582 583/583 332/332
f 333/333 343/343 438/438
f 332/332 356/356 580/580
f 585/585 580/580 438/438
f 440/440 332/332 334/334
f 586/586 442/442 337/337
f 344/344 335/335 339/339
f 346/346 334/334 442/442
f 339/339 334/334 336/336
f 338/338 335/335 339/339
f 336/336 339/339 442/442
f 333/333 339/339 332/332
f 339/339 333/333 335/335
f 338/338 337/337 442/442
f 586/586 588/588 340/340
f 340/340 347/347 341/341
f 589/589 334/334 586/586
f 334/334 589/589 349/349
f 341/341 346/346 334/334
f 346/346 341/341 589/589
f 349/349 353/353 439/439
f 439/439 438/438 335/335
f 335/335 344/344 336/336
f 336/336 345/345 347/347
f 344/344 347/347 348/348
f 345/345 348/348 350/350
f 351/351 347/347 348/348
f 347/347 351/351 348/348
f 349/349 348/348 589/589
f 352/352 590/590 353/353
f 352/352 341/341 347/347
f 347/347 340/340 401/401
f 355/355 329/329 356/356
f 332/332 343/343 355/355
f 355/355 356/356 370/370
f 371/371 372/372 373/373
f 374/374 370/370 372/372
f 373/373 370/370 591/591
f 374/374 428/428 373/373
f 375/375 374/374 362/362
f 428/428 374/374 363/363
f 375/375 362/362 363/363
f 363/363 584/584 593/593
f 594/594 595/595 447/447
f 447/447 394/394 596/596
f 596/596 384/384 450/450
f 392/392 450/450 449/449
f 449/449 385/385 377/377
f 377/377 453/453 420/420
f 419/419 418/418 395/395
f 396/396 417/417 598/598
f 399/399 599/599 369/369
f 427/427 600/600 601/601
f 599/599 399/399 422/422
f 421/421 414/414 601/601
f 369/369 600/600 416/416
f 417/417 396/396 397/397
f 396/396 395/395 602/602
f 598/598 599/599 427/427
f 427/427 397/397 395/395
f 605/605 603/603 427/427
f 396/396 397/397 604/604
f 605/605 397/397 421/421
f 424/424 415/415 369/369
f 601/601 398/398 399/399
f 398/398 601/601 606/606
f 413/413 399/399 398/398
f 399/399 413/413 595/595
f 429/429 593/593 405/405
f 404/404 607/607 608/608
f 607/607 404/404 609/609
f 610/610 611/611 406/406
f 611/611 610/610 364/364
f 412/412 400/400 410/410
f 403/403 407/407 373/373
f 407/407 403/403 412/412
f 407/407 373/373 400/400
f 441/441 400/400 612/612
f 406/406 408/408 405/405
f 607/607 613/613 612/612
f 408/408 614/614 411/411
f 614/614 408/408 613/613
f 409/409 405/405 614/614
f 411/411 615/615 409/409
f 409/409 613/613 403/403
f 362/362 373/373 610/610
f 610/610 465/465 404/404
f 404/404 405/405 466/466
f 466/466 377/377 372/372
f 400/400 412/412 373/373
f 372/372 412/412 406/406
f 612/612 611/611 617/617
f 422/422 413/413 369/369
f 398/398 414/414 413/413
f 415/415 369/369 396/396
f 427/427 416/416 423/423
f 420/420 417/417 399/399
f 598/598 606/606 417/417
f 418/418 395/395 387/387
f 387/387 459/459 413/413
f 606/606 617/617 389/389
f 389/389 391/391 415/415
f 414/414 421/421 417/417
f 416/416 423/423 393/393
f 393/393 463/463 389/389
f 389/389 462/462 414/414
f 413/413 422/422 390/390
f 390/390 388/388 418/418
f 417/417 420/420 594/594
f 620/620 594/594 382/382
f 405/405 469/469 467/467
f 382/382 379/379 416/416
f 416/416 427/427 468/468
f 468/468 380/380 382/382
f 382/382 469/469 621/621
f 436/436 429/429 622/622
f 587/587 425/425 575/575
f 426/426 436/436 591/591
f 428/428 623/623 423/423
f 423/423 416/416 393/393
f 393/393 390/390 371/371
f 437/437 441/441 621/621
f 429/429 595/595 388/388
f 388/388 431/431 389/389
f 389/389 432/432 391/391
f 391/391 434/434 619/619
f 619/619 625/625 390/390
f 390/390 433/433 393/393
f 393/393 435/435 624/624
f 425/425 437/437 575/575
f 436/436 621/621 438/438
f 438/438 437/437 439/439
f 439/439 364/364 333/333
f 333/333 442/442 444/444
f 626/626 444/444 627/627
f 627/627 623/623 628/628
f 628/628 370/370 438/438
f 438/438 439/439 455/455
f 455/455 630/630 631/631
f 631/631 633/633 456/456
f 456/456 635/635 457/457
f 457/457 636/636 454/454
f 454/454 634/634 451/451
f 451/451 448/448 457/457
f 457/457 453/453 379/379
f 379/379 455/455 632/632
f 632/632 453/453 381/381
f 381/381 456/456 380/380
f 380/380 457/457 382/382
f 382/382 454/454 628/628
f 371/371 370/370 420/420
f 420/420 460/460 462/462
f 462/462 461/461 421/421
f 421/421 461/461 617/617
f 617/617 618/618 464/464
f 464/464 460/460 424/424
f 424/424 463/463 377/377
f 377/377 466/466 616/616
f 616/616 467/467 406/406
f 406/406 466/466 469/469
f 382/382 467/467 408/408
f 408/408 468/468 411/411
