# MOD converted: d_m_costume_dress_hair.mod
# 340 verts, 180 faces

v 180.264893 -4.475178 0.001347
v 181.111816 10.184226 0.001341
v 160.087952 31.358749 0.001342
v 151.499786 32.107574 0.001344
v 177.116272 21.510170 -0.041419
v 162.898392 -15.323215 0.000040
v 132.061096 7.198745 0.001347
v 128.023315 14.004093 0.001343
v 136.081772 23.989801 0.001344
v 167.935455 27.918238 0.001340
v 141.056274 30.642330 0.001347
v 133.116409 21.019360 16.916580
v 156.431122 -8.124212 16.100012
v 168.640427 -11.759315 7.977270
v 175.269928 -15.778850 10.261189
v 178.585419 -3.415895 23.636343
v 165.939423 12.191189 11.085926
v 179.040527 10.650658 24.801371
v 158.495422 12.975045 15.813375
v 159.332901 27.460970 24.876019
v 151.584335 12.740816 17.567266
v 151.122833 27.027760 12.528355
v 175.748627 19.200359 22.694870
v 156.842239 1.297673 15.880223
v 141.291656 5.260349 17.436064
v 148.338806 1.776310 23.068256
v 154.769043 -4.090652 18.748083
v 136.723434 12.281933 12.688134
v 136.708405 20.320108 22.503193
v 165.947784 0.771325 18.845762
v 174.744812 11.156654 15.289682
v 167.056183 24.271648 22.385063
v 141.713440 12.327426 16.377018
v 141.136414 25.262247 16.513905
v 134.634628 12.474843 0.001347
v 129.910156 20.488548 8.122561
v 130.799606 18.386538 14.774606
v 131.929779 13.349632 11.177238
v 131.680405 10.478925 13.547866
v 128.225800 15.659840 7.270402
v 127.237358 21.426714 16.908686
v 149.762802 -7.257435 21.536242
v 148.109222 -3.392620 16.739460
v 145.381088 -7.684873 21.322222
v 144.634125 -3.055331 18.601112
v 143.294052 1.650007 16.997696
v 142.710724 -6.538997 19.858414
v 142.183258 -3.667239 18.555151
v 140.846405 -0.510611 16.680817
v 139.158463 -6.084043 13.041250
v 159.743103 -15.526608 24.344599
v 159.074036 -10.936895 19.748201
v 160.692795 -14.972439 -17.000114
v 156.487900 -7.783247 -13.349855
v 160.061523 -11.934133 -7.554932
v 162.285324 -14.119517 -17.166887
v 173.475647 -10.487642 -10.258489
v 178.585358 -3.415883 -23.633631
v 165.939301 12.191211 -11.083231
v 179.040466 10.650665 -24.777369
v 159.013031 12.674470 -15.763443
v 159.332840 27.406301 -25.621801
v 151.584122 12.740831 -17.564562
v 151.122696 27.027779 -12.525667
v 175.748566 19.200363 -22.678316
v 156.842133 1.297689 -15.863917
v 141.291656 5.260355 -17.436028
v 148.338806 1.776312 -22.280680
v 154.768967 -4.288726 -19.379181
v 136.662903 12.281942 -12.685439
v 136.708298 20.320116 -18.843037
v 174.744690 11.156652 -15.287000
v 167.056076 24.271654 -22.689825
v 141.713318 12.327433 -16.374300
v 141.136307 25.262251 -16.511200
v 134.634567 12.474842 -8.119873
v 130.799576 18.386541 -11.174537
v 131.680359 10.478933 -13.545171
v 128.225739 15.659846 -7.267709
v 127.237328 21.426718 -17.424860
v 150.661743 -7.704258 -21.399433
v 148.124893 -3.392613 -17.550919
v 145.903397 -7.663773 -20.625895
v 144.949448 -3.055324 -18.419142
v 143.494217 1.675199 -17.350243
v 143.560242 -6.527986 -19.904261
v 143.027130 -3.982349 -18.384972
v 141.535538 -0.485565 -17.446630
v 140.246262 -6.160456 8.126017
v 155.981842 -16.889229 3.112261
v 159.312790 -21.660398 20.360897
v 154.033173 -15.035418 -1.317126
v 162.451584 -23.554586 14.686914
v 154.458038 -14.320733 26.217709
v 157.662476 -4.248402 22.962322
v 149.339722 -11.659036 20.137625
v 148.123779 -12.863051 15.962945
v 148.546463 -12.221836 20.287914
v 144.526489 -9.479980 22.778738
v 151.437500 0.693371 25.742302
v 151.356354 -4.571497 23.786026
v 152.480713 -10.292107 21.596312
v 146.552155 -2.746821 22.184391
v 146.702850 -5.918615 20.976458
v 146.891083 -8.366742 18.265030
v 142.829712 -8.129244 21.449368
v 145.633499 -9.293482 -5.301547
v 169.924500 -20.412571 -12.839424
v 168.204865 -16.471525 -2.357079
v 163.178635 -23.938025 -10.064495
v 163.671661 -21.649046 -15.401996
v 161.510986 -17.463104 -9.587127
v 159.137085 -21.481342 -13.297559
v 159.187897 -20.415394 -15.928878
v 158.326019 -17.565634 2.757839
v 154.042084 -19.182186 -2.113505
v 155.683655 -21.412813 -5.947208
v 157.701813 -22.331186 -10.728309
v 154.262451 -19.985104 -6.029294
v 152.385925 -19.887142 1.951852
v 161.368134 -22.941971 -8.278629
v 158.655334 -23.638565 -17.039633
v 150.655151 -16.845289 -20.875477
v 160.335815 -16.242588 -22.275732
v 158.397842 -10.313083 -17.972813
v 155.175430 -16.714392 -20.780029
v 154.093002 -16.240427 -21.586987
v 151.531403 -12.208346 -20.387083
v 146.564178 -12.267754 -23.089630
v 150.035812 -7.620139 -21.684362
v 145.524277 -7.471355 -25.177528
v 157.362610 -0.391744 -25.415739
v 150.155457 -0.142124 -22.769480
v 150.155457 0.717246 -23.681219
v 144.652863 1.763947 -22.365318
v 168.284302 -3.116740 -21.278061
v 162.877594 -13.769262 -24.073215
v 163.053802 -4.044550 -22.917288
v 157.286255 -12.141855 -24.960762
v 157.889587 -8.815480 -24.602245
v 157.358917 -5.771164 -24.947935
v 153.273041 -6.272160 -24.094044
v 153.580856 -10.023591 18.381548
v 173.573471 -1.667590 9.854629
v 134.008179 17.778456 14.558293
v 171.949936 -13.875272 -9.851927
v 134.008148 17.778454 -10.001390
v 135.661743 6.410070 23.505848
v 166.727112 -6.942719 -1.413297
v 175.888306 -16.203968 10.551279
v 165.412842 -19.696873 2.630202
v 169.219360 -22.151648 -10.567663
v 173.861694 -12.691454 -20.810820
v 169.584045 -8.993174 -23.606133
v 165.604736 0.609689 -18.553663
v 167.901642 -14.491308 -18.446369
v 173.576965 -1.656633 13.675925
v 160.286026 -13.073207 10.017694
v 135.661743 6.410067 -2.675889
v 163.462906 -24.422201 -23.234980
v 157.940887 -7.651830 -24.286358
v 163.295105 -8.785051 -14.771914
v 131.929718 13.349629 19.627405
v 168.502289 -11.422817 8.418300
v 160.363815 -14.908403 16.547022
v 163.047440 -11.308646 12.716907
v 164.226547 -12.123144 11.536805
v 158.300766 -14.192217 6.164595
v 156.759399 -16.569466 9.743159
v 156.491882 -15.270029 4.870238
v 154.251724 -16.702690 7.499655
v 154.140015 -16.212944 3.995903
v 151.364075 -16.464901 1.458378
v 167.616623 -18.567354 11.340344
v 165.946777 -13.586158 8.920392
v 170.233429 -13.069188 4.468137
v 160.985443 -19.559240 -7.990694
v 161.616837 -19.595932 -1.624289
v 157.562744 -20.948696 -13.764106
v 156.799210 -18.890881 -8.363394
v 155.529663 -19.867807 -16.508276
v 150.846207 -15.571667 -15.505007
v 165.443604 -11.230190 -5.224447
v 169.688385 -12.442648 -8.530590
v 171.836609 -9.450396 -11.014865
v 161.717667 -15.190246 -19.327944
v 156.518875 -9.767635 -14.560326
v 156.272293 -15.708421 -20.370430
v 150.447281 -8.158445 -17.383493
v 151.855011 -12.685812 -19.885649
v 145.214508 -7.199849 15.215511
v 168.296539 -11.759318 7.977270
v 174.926056 -15.778852 13.673792
v 171.606049 -13.875267 -1.413293
v 175.544418 -16.203968 7.582798
v 162.457062 -15.002398 23.636343
v 165.939423 12.191189 18.381548
v 173.573471 -1.667590 0.001347
v 133.116409 21.019360 9.854629
v 134.008179 17.778456 16.513905
v 134.634628 12.474843 10.017694
v 135.661743 6.410067 9.854629
v 134.008179 17.778456 16.513905
v 134.634628 12.474843 23.505848
v 166.727112 -6.942719 19.627405
v 168.502289 -11.422817 -18.446369
v 173.576965 -1.656633 -23.633631
v 165.939301 12.191211 -9.851927
v 134.008148 17.778454 0.001347
v 133.116409 21.019360 -10.001390
v 135.661743 6.410070 -16.511200
v 134.634567 12.474842 -16.511200
v 134.634567 12.474842 -9.851927
v 134.008148 17.778454 22.503193
v 165.947784 0.771325 23.505848
v 166.727112 -6.942719 22.694870
v 156.842239 1.297673 22.503193
v 165.947784 0.771325 -1.413297
v 175.888306 -16.203968 -10.567663
v 173.861694 -12.691454 10.551279
v 165.412842 -19.696873 2.630202
v 169.219360 -22.151648 -10.567663
v 173.861694 -12.691454 -17.166887
v 173.475647 -10.487642 -17.166887
v 173.475647 -10.487642 -20.810820
v 169.584045 -8.993174 -20.810820
v 169.584045 -8.993174 -23.606133
v 165.604736 0.609689 -23.606133
v 165.604736 0.609689 -22.678316
v 156.842133 1.297689 -18.553663
v 167.901642 -14.491308 -20.810820
v 169.584045 -8.993174 -20.810820
v 169.584045 -8.993174 -18.446369
v 173.576965 -1.656633 19.627405
v 168.502289 -11.422817 16.100012
v 168.640427 -11.759315 -0.041419
v 162.898392 -15.323215 22.694870
v 156.842239 1.297673 18.845762
v 174.744812 11.156654 0.001347
v 129.910156 20.488548 14.774606
v 131.929779 13.349632 24.344599
v 159.074036 -10.936895 -22.678316
v 156.842133 1.297689 -18.843037
v 174.744690 11.156652 26.217709
v 157.662476 -4.248402 -5.301547
v 169.924500 -20.412571 -25.177528
v 157.362610 -0.391744 -22.365318
v 168.284302 -3.116740 9.854629
v 134.008179 17.778456 -9.851927
v 134.008148 17.778454 -10.001390
v 135.661743 6.410070 23.505848
v 166.727112 -6.942719 10.551279
v 165.412842 -19.696873 -10.567663
v 173.861694 -12.691454 -20.810820
v 169.584045 -8.993174 -23.606133
v 165.604736 0.609689 -18.553663
v 167.901642 -14.491308 13.675925
v 160.286026 -13.073207 10.017694
v 135.661743 6.410067 -2.675889
v 163.462906 -24.422201 -23.234980
v 157.940887 -7.651830 -24.286358
v 163.295105 -8.785051 -14.771914
v 131.929718 13.349629 0.001347
v 129.910156 20.488548 14.774606
v 131.929779 13.349632 26.217709
v 157.662476 -4.248402 -20.810820
v 169.584045 -8.993174 -18.553663
v 167.901642 -14.491308 13.675925
v 160.286026 -13.073207 -14.771914
v 131.929718 13.349629 0.001347
v 129.910156 20.488548 -18.553663
v 167.901642 -14.491308 22.694870
v 156.842239 1.297673 17.436064
v 148.338806 1.776310 18.748083
v 136.723434 12.281933 16.513905
v 134.634628 12.474843 10.017694
v 135.661743 6.410067 16.513905
v 134.634628 12.474843 9.854629
v 134.008179 17.778456 0.001347
v 133.116409 21.019360 14.774606
v 131.929779 13.349632 13.547866
v 128.225800 15.659840 22.503193
v 165.947784 0.771325 0.000002
v 180.264893 -4.475178 10.261189
v 178.585419 -3.415895 18.381548
v 173.573471 -1.667590 18.381548
v 173.573471 -1.667590 19.627405
v 168.502289 -11.422817 22.503193
v 165.947784 0.771325 23.505848
v 166.727112 -6.942719 16.100012
v 168.640427 -11.759315 13.041250
v 159.743103 -15.526608 0.000002
v 180.264893 -4.475178 0.001347
v 181.111816 10.184226 0.001344
v 167.935455 27.918238 0.001341
v 160.087952 31.358749 0.001344
v 177.116272 21.510170 0.001342
v 151.499786 32.107574 -22.678316
v 156.842133 1.297689 -1.413297
v 175.888306 -16.203968 0.001340
v 141.056274 30.642330 0.001343
v 136.081772 23.989801 0.001347
v 133.116409 21.019360 -17.436028
v 148.338806 1.776312 -19.379181
v 136.662903 12.281942 -16.511200
v 134.634567 12.474842 0.001347
v 128.023315 14.004093 -10.001390
v 135.661743 6.410070 0.000040
v 132.061096 7.198745 -16.511200
v 134.634567 12.474842 -9.851927
v 134.008148 17.778454 0.001347
v 133.116409 21.019360 -14.771914
v 131.929718 13.349629 -13.545171
v 128.225739 15.659846 -23.606133
v 165.604736 0.609689 -10.567663
v 173.861694 -12.691454 -10.258489
v 178.585358 -3.415883 -17.166887
v 173.475647 -10.487642 -18.446369
v 173.576965 -1.656633 10.551279
v 165.412842 -19.696873 2.630202
v 169.219360 -22.151648 3.112261
v 159.312790 -21.660398 -2.113505
v 155.683655 -21.412813 -20.875477
v 160.335815 -16.242588 -18.553663
v 167.901642 -14.491308 -20.780029
v 154.093002 -16.240427 -20.387083
v 146.564178 -12.267754 -20.810820
v 169.584045 -8.993174 -18.446369
v 173.576965 -1.656633 -20.810820
v 169.584045 -8.993174 -23.606133
v 165.604736 0.609689 16.908686
v 149.762802 -7.257435 16.739460
v 145.381088 -7.684873 16.997696
v 142.710724 -6.538997 -17.550919
v 145.903397 -7.663773 -17.424860
v 150.661743 -7.704258 -17.350243
v 143.560242 -6.527986 -17.446630
v 140.246262 -6.160456 13.673792
v 171.606049 -13.875267 7.582798
v 162.457062 -15.002398 0.697551

vt 0.984437 0.167043
vt 0.970498 0.035655
vt 0.741302 0.011452
vt 0.663323 0.097470
vt 0.919090 0.639335
vt 0.358520 0.608813
vt 0.148344 0.528382
vt 0.194577 0.066491
vt 0.512280 0.050138
vt 0.823554 0.018037
vt 0.566660 0.088126
vt 0.478832 0.464275
vt 0.299085 0.252079
vt 0.322978 0.543054
vt 0.868269 0.343725
vt 0.952231 0.296484
vt 0.795236 0.240152
vt 0.939766 0.304619
vt 0.732083 0.154685
vt 0.720398 0.305864
vt 0.666255 0.164243
vt 0.649905 0.194648
vt 0.897159 0.038513
vt 0.252403 0.359158
vt 0.574423 0.400553
vt 0.624199 0.385304
vt 0.280763 0.280375
vt 0.529854 0.177242
vt 0.517492 0.388333
vt 0.797525 0.279128
vt 0.885701 0.171321
vt 0.802333 0.302297
vt 0.572851 0.168887
vt 0.563241 0.257247
vt 0.487739 0.091943
vt 0.439406 0.163355
vt 0.433666 0.342659
vt 0.442990 0.381467
vt 0.452667 0.338870
vt 0.400799 0.135330
vt 0.384545 0.453320
vt 0.222440 0.384488
vt 0.203292 0.456738
vt 0.149195 0.382124
vt 0.139572 0.323061
vt 0.128134 0.443535
vt 0.073003 0.396922
vt 0.068205 0.351162
vt 0.062499 0.431965
vt 0.015406 0.420516
vt 0.741985 0.164098
vt 0.220750 0.227633
vt 0.222947 0.464275
vt 0.299085 0.507456
vt 0.337075 0.564870
vt 0.355657 0.472992
vt 0.454552 0.343725
vt 0.952231 0.296484
vt 0.795236 0.240152
vt 0.939766 0.301374
vt 0.739687 0.163174
vt 0.723012 0.305864
vt 0.666255 0.164243
vt 0.649905 0.194648
vt 0.897159 0.983063
vt 0.228878 0.359158
vt 0.574423 0.400553
vt 0.624199 0.385304
vt 0.280763 0.280375
vt 0.529854 0.177242
vt 0.517492 0.279128
vt 0.885701 0.171321
vt 0.802333 0.302297
vt 0.572851 0.168887
vt 0.563241 0.257247
vt 0.487739 0.163355
vt 0.433666 0.381467
vt 0.452667 0.338870
vt 0.400799 0.135330
vt 0.384545 0.453320
vt 0.222440 0.384488
vt 0.203292 0.456738
vt 0.149195 0.382124
vt 0.139572 0.323061
vt 0.128134 0.443535
vt 0.073003 0.396922
vt 0.068205 0.351162
vt 0.062499 0.431965
vt 0.015406 0.432058
vt 0.661365 0.506977
vt 0.658488 0.220925
vt 0.158236 0.578139
vt 0.121541 0.278048
vt 0.159498 0.092413
vt 0.235398 0.175716
vt 0.105168 0.200264
vt 0.089809 0.245944
vt 0.104314 0.167169
vt 0.033422 0.015235
vt 0.177894 0.069844
vt 0.163488 0.143740
vt 0.147663 0.019983
vt 0.101970 0.061973
vt 0.093994 0.108903
vt 0.081825 0.057254
vt 0.022010 0.133579
vt 0.071080 0.651946
vt 0.791110 0.730998
vt 0.779658 0.598105
vt 0.701493 0.668375
vt 0.705931 0.726338
vt 0.691284 0.646346
vt 0.650180 0.681527
vt 0.658647 0.719583
vt 0.660371 0.468036
vt 0.597871 0.512507
vt 0.586770 0.662111
vt 0.111170 0.732201
vt 0.121713 0.498329
vt 0.534164 0.535117
vt 0.689487 0.607677
vt 0.617246 0.718982
vt 0.609009 0.784502
vt 0.688542 0.813345
vt 0.247017 0.745399
vt 0.624594 0.782008
vt 0.615438 0.787256
vt 0.134532 0.793228
vt 0.529600 0.849345
vt 0.118188 0.849252
vt 0.015188 0.945655
vt 0.231426 0.948913
vt 0.120250 0.981265
vt 0.119842 0.969568
vt 0.034466 0.885485
vt 0.874717 0.833054
vt 0.743775 0.929359
vt 0.820903 0.881769
vt 0.687706 0.917833
vt 0.708136 0.950307
vt 0.745636 0.974850
vt 0.679966 0.921909
vt 0.642865 0.375156
vt 0.892332 0.174426
vt 0.480733 0.479583
vt 0.864897 0.174426
vt 0.480733 0.411937
vt 0.523373 0.168660
vt 0.309119 0.633060
vt 0.867743 0.496896
vt 0.763240 0.562720
vt 0.782564 0.728819
vt 0.850301 0.830362
vt 0.420964 0.957413
vt 0.359638 0.794437
vt 0.783330 0.375156
vt 0.892332 0.507456
vt 0.337075 0.411937
vt 0.523373 0.581663
vt 0.694173 0.849471
vt 0.240381 0.886106
vt 0.774134 0.342659
vt 0.442990 0.447180
vt 0.424082 0.496896
vt 0.763240 0.425966
vt 0.854177 0.479583
vt 0.864897 0.420516
vt 0.741985 0.506977
vt 0.658488 0.432058
vt 0.661365 0.512507
vt 0.586770 0.468036
vt 0.597871 0.498329
vt 0.534164 0.496896
vt 0.763240 0.425966
vt 0.854177 0.479583
vt 0.864897 0.420516
vt 0.741985 0.506977
vt 0.658488 0.432058
vt 0.661365 0.512507
vt 0.586770 0.468036
vt 0.597871 0.498329
vt 0.534164 0.496896
vt 0.763240 0.425966
vt 0.854177 0.479583
vt 0.864897 0.420516
vt 0.741985 0.506977
vt 0.658488 0.432058
vt 0.661365 0.512507
vt 0.586770 0.468036
vt 0.597871 0.498329
vt 0.534164 0.472992
vt 0.454552 0.543855
vt 0.490413 0.502384
vt 0.469426 0.633376
vt 0.501289 0.564870
vt 0.355657 0.296484
vt 0.795236 0.375156
vt 0.892332 0.088126
vt 0.478832 0.174426
vt 0.480733 0.339090
vt 0.490436 0.411937
vt 0.523373 0.174426
vt 0.480733 0.257247
vt 0.487739 0.168660
vt 0.309119 0.220060
vt 0.315916 0.375156
vt 0.892332 0.296484
vt 0.795236 0.174426
vt 0.480733 0.088126
vt 0.478832 0.411937
vt 0.523373 0.339090
vt 0.490436 0.257247
vt 0.487739 0.174426
vt 0.480733 0.097019
vt 0.326457 0.168660
vt 0.309119 0.038513
vt 0.252403 0.097019
vt 0.326457 0.633060
vt 0.867743 0.728819
vt 0.850301 0.496896
vt 0.763240 0.562720
vt 0.782564 0.728819
vt 0.850301 0.794334
vt 0.844869 0.794334
vt 0.844869 0.846080
vt 0.827174 0.830362
vt 0.420964 0.957413
vt 0.359638 0.957413
vt 0.359638 0.983063
vt 0.228878 0.794437
vt 0.783330 0.846080
vt 0.827174 0.846080
vt 0.827174 0.826528
vt 0.914268 0.447180
vt 0.424082 0.472992
vt 0.454552 0.639335
vt 0.358520 0.400661
vt 0.728861 0.279128
vt 0.885701 0.091943
vt 0.439406 0.342659
vt 0.442990 0.164098
vt 0.220750 0.400661
vt 0.728861 0.279128
vt 0.885701 0.092413
vt 0.235398 0.651946
vt 0.791110 0.945655
vt 0.231426 0.885485
vt 0.874717 0.174426
vt 0.480733 0.174426
vt 0.480733 0.411937
vt 0.523373 0.400063
vt 0.368465 0.496896
vt 0.763240 0.543855
vt 0.490413 0.846080
vt 0.827174 0.388333
vt 0.797525 0.794437
vt 0.783330 0.507456
vt 0.337075 0.411937
vt 0.523373 0.581663
vt 0.694173 0.849471
vt 0.240381 0.886106
vt 0.774134 0.342659
vt 0.442990 0.091943
vt 0.439406 0.242412
vt 0.441346 0.092413
vt 0.235398 0.400063
vt 0.368465 0.794437
vt 0.783330 0.507456
vt 0.337075 0.242412
vt 0.441346 0.091943
vt 0.439406 0.794437
vt 0.783330 0.308489
vt 0.300139 0.317930
vt 0.182577 0.316947
vt 0.523601 0.339090
vt 0.490436 0.691236
vt 0.209903 0.700760
vt 0.306766 0.610076
vt 0.303447 0.528467
vt 0.312249 0.242412
vt 0.441346 0.220661
vt 0.392951 0.310779
vt 0.393360 0.657243
vt 0.981199 0.542991
vt 0.983525 0.449283
vt 0.964937 0.178975
vt 0.394779 0.220060
vt 0.315916 0.097019
vt 0.326457 0.168660
vt 0.309119 0.425966
vt 0.854177 0.290271
vt 0.225345 0.302449
vt 0.984437 0.167043
vt 0.970498 0.050138
vt 0.823554 0.027775
vt 0.736936 0.097470
vt 0.919090 0.011452
vt 0.663323 0.308489
vt 0.300139 0.633376
vt 0.501289 0.018037
vt 0.566660 0.066491
vt 0.512280 0.088126
vt 0.478832 0.317930
vt 0.182577 0.316947
vt 0.523601 0.339090
vt 0.490436 0.528382
vt 0.194577 0.691236
vt 0.209903 0.608813
vt 0.148344 0.700760
vt 0.306766 0.610076
vt 0.303447 0.528467
vt 0.312249 0.242412
vt 0.441346 0.220661
vt 0.392951 0.310779
vt 0.393360 0.728819
vt 0.850301 0.750700
vt 0.949153 0.794334
vt 0.844869 0.826528
vt 0.914268 0.464103
vt 0.024052 0.476976
vt 0.132692 0.579938
vt 0.043225 0.656055
vt 0.052573 0.732408
vt 0.269609 0.754777
vt 0.396766 0.732096
vt 0.163554 0.769197
vt 0.048205 0.846080
vt 0.827174 0.923433
vt 0.485382 0.830362
vt 0.420964 0.957413
vt 0.359638 0.317930
vt 0.182577 0.323061
vt 0.128134 0.351162
vt 0.062499 0.323061
vt 0.128134 0.317930
vt 0.182577 0.351162
vt 0.062499 0.431965
vt 0.015406 0.502384
vt 0.469426 0.564870
vt 0.355657 1.000000

f 22/22 33/33 21/21
f 33/33 22/22 34/34
f 25/25 275/275 159/159
f 275/275 25/25 33/33
f 276/276 159/159 275/275
f 277/277 8/8 7/7
f 8/8 277/277 278/278
f 259/259 38/38 39/39
f 241/241 202/202 201/201
f 40/40 39/39 38/38
f 74/74 64/64 63/63
f 64/64 74/74 75/75
f 305/305 67/67 148/148
f 67/67 305/305 74/74
f 148/148 306/306 305/305
f 307/307 308/308 309/309
f 308/308 307/307 310/310
f 263/263 251/251 78/78
f 211/211 163/163 212/212
f 78/78 79/79 263/263
f 252/252 13/13 30/30
f 144/144 17/17 18/18
f 18/18 239/239 31/31
f 198/198 197/197 18/18
f 18/18 16/16 20/20
f 20/20 32/32 2/2
f 2/2 5/5 20/20
f 20/20 22/22 3/3
f 3/3 4/4 23/23
f 239/239 18/18 238/238
f 19/19 238/238 27/27
f 27/27 13/13 33/33
f 238/238 21/21 11/11
f 11/11 34/34 29/29
f 29/29 28/28 9/9
f 9/9 12/12 29/29
f 29/29 249/249 273/273
f 274/274 43/43 23/23
f 23/23 32/32 5/5
f 5/5 10/10 32/32
f 32/32 20/20 34/34
f 34/34 11/11 279/279
f 8/8 278/278 280/280
f 8/8 279/279 145/145
f 36/36 37/37 240/240
f 200/200 199/199 145/145
f 37/37 281/281 265/265
f 204/204 203/203 282/282
f 281/281 37/37 41/41
f 37/37 36/36 42/42
f 42/42 13/13 43/43
f 27/27 273/273 44/44
f 44/44 42/42 274/274
f 274/274 46/46 47/47
f 47/47 44/44 48/48
f 48/48 45/45 50/50
f 47/47 48/48 50/50
f 48/48 49/49 252/252
f 283/283 273/273 284/284
f 285/285 286/286 287/287
f 288/288 14/14 287/287
f 289/289 290/290 253/253
f 51/51 253/253 53/53
f 288/288 52/52 205/205
f 242/242 206/206 14/14
f 14/14 288/288 15/15
f 15/15 146/146 286/286
f 291/291 146/146 287/287
f 290/290 288/288 56/56
f 55/55 54/54 157/157
f 256/256 59/59 157/157
f 157/157 72/72 207/207
f 244/244 208/208 293/293
f 293/293 58/58 295/295
f 295/295 73/73 65/65
f 65/65 297/297 63/63
f 64/64 298/298 72/72
f 65/65 60/60 61/61
f 243/243 63/63 256/256
f 256/256 243/243 267/267
f 267/267 54/54 300/300
f 300/300 6/6 68/68
f 68/68 67/67 243/243
f 74/74 63/63 64/64
f 64/64 75/75 74/74
f 74/74 70/70 250/250
f 250/250 303/303 76/76
f 76/76 250/250 304/304
f 299/299 82/82 59/59
f 73/73 295/295 61/61
f 61/61 62/62 302/302
f 302/302 301/301 307/307
f 311/311 310/310 307/307
f 312/312 311/311 271/271
f 147/147 77/77 209/209
f 264/264 210/210 77/77
f 147/147 313/313 213/213
f 270/270 214/214 313/313
f 80/80 271/271 69/69
f 82/82 81/81 84/84
f 84/84 83/83 85/85
f 85/85 84/84 86/86
f 89/89 88/88 315/315
f 267/267 299/299 316/316
f 316/316 317/317 318/318
f 318/318 319/319 253/253
f 253/253 51/51 92/92
f 53/53 52/52 320/320
f 320/320 322/322 292/292
f 292/292 53/53 95/95
f 216/216 215/215 218/218
f 217/217 245/245 92/92
f 96/96 97/97 92/92
f 92/92 97/97 96/96
f 99/99 98/98 266/266
f 52/52 149/149 266/266
f 266/266 24/24 52/52
f 52/52 266/266 101/101
f 101/101 100/100 102/102
f 102/102 101/101 103/103
f 106/106 105/105 96/96
f 107/107 96/96 108/108
f 150/150 152/152 15/15
f 152/152 150/150 109/109
f 153/153 108/108 219/219
f 246/246 220/220 108/108
f 108/108 152/152 109/109
f 109/109 108/108 111/111
f 111/111 110/110 112/112
f 112/112 111/111 91/91
f 91/91 90/90 93/93
f 93/93 322/322 323/323
f 119/119 118/118 116/116
f 120/120 117/117 260/260
f 151/151 121/121 221/221
f 160/160 222/222 121/121
f 122/122 260/260 113/113
f 123/123 115/115 156/156
f 224/224 223/223 153/153
f 109/109 268/268 225/225
f 257/257 226/226 268/268
f 268/268 109/109 154/154
f 154/154 325/325 161/161
f 228/228 227/227 154/154
f 125/125 261/261 124/124
f 124/124 112/112 324/324
f 324/324 326/326 126/126
f 129/129 127/127 326/326
f 327/327 128/128 125/125
f 131/131 130/130 261/261
f 247/247 155/155 261/261
f 261/261 130/130 132/132
f 230/230 229/229 247/247
f 247/247 133/133 130/130
f 135/135 134/134 262/262
f 272/272 137/137 231/231
f 162/162 232/232 136/136
f 136/136 255/255 262/262
f 262/262 137/137 138/138
f 138/138 262/262 140/140
f 142/142 141/141 139/139
f 143/143 140/140 319/319
f 318/318 328/328 329/329
f 330/330 331/331 234/234
f 233/233 248/248 46/46
f 46/46 274/274 49/49
f 334/334 50/50 304/304
f 85/85 88/88 337/337
f 88/88 338/338 258/258
f 236/236 235/235 165/165
f 165/165 168/168 169/169
f 169/169 170/170 172/172
f 173/173 171/171 174/174
f 174/174 177/177 178/178
f 178/178 179/179 181/181
f 182/182 180/180 183/183
f 183/183 186/186 187/187
f 187/187 188/188 190/190
f 191/191 189/189 196/196
f 193/193 194/194 269/269
