# MOD converted: d_w_costume_soccer_hair.mod
# 201 verts, 46 faces

v 143.021011 0.595438 9.962357
v 167.072235 0.595448 24.051256
v 152.983337 0.595459 9.962358
v 118.969734 0.595465 18.408045
v 124.612961 0.595368 24.051254
v 133.058624 0.595456 24.051264
v 143.020981 10.557800 18.408049
v 143.020981 19.003479 9.962357
v 143.020981 24.646702 18.408049
v 143.020981 -17.812584 24.051260
v 143.020981 -9.366916 10.627885
v 164.276749 11.223331 19.765768
v 155.810547 11.706399 11.110950
v 155.810532 20.361214 10.627886
v 164.276749 -10.032434 11.110950
v 155.810532 -19.170328 19.765774
v 155.810532 -10.515506 10.627884
v 121.765228 11.223329 19.765774
v 130.231430 11.706390 19.765768
v 130.231430 -10.515500 11.110946
v 130.231430 20.361216 -0.000001
v 167.072235 10.557811 0.000001
v 167.072235 -9.366910 0.000000
v 133.058624 24.646715 16.696024
v 130.231445 -13.585251 0.000000
v 116.988083 0.595447 -0.000000
v 152.983337 24.646706 0.014824
v 116.149773 -7.152966 -0.000003
v 124.612946 19.003487 0.000009
v 147.642578 -24.518158 0.000002
v 117.293762 -12.758300 -26.032892
v 143.020981 0.595461 -9.962358
v 167.072235 0.595449 -24.051256
v 152.983322 0.595439 -0.000001
v 161.429016 19.003498 -9.962357
v 118.969711 0.595434 -18.408041
v 124.612923 0.595372 -24.051258
v 133.058624 0.595459 -24.051256
v 143.020981 10.557810 -18.408037
v 143.020981 19.003487 -9.962360
v 143.020981 24.646713 -18.408037
v 143.020966 -17.812586 -24.051256
v 143.020966 -9.366909 -10.627887
v 164.276749 11.223339 -19.765764
v 155.810532 11.706406 -11.110952
v 155.810532 20.361217 -10.627881
v 164.276749 -10.032438 -11.110947
v 155.810516 -19.170330 -19.765760
v 155.810532 -10.515514 -10.627884
v 121.765213 11.223331 -19.765764
v 130.231430 11.706401 -19.765766
v 130.231430 -10.515504 -11.110953
v 130.231430 20.361214 0.000000
v 169.053879 0.595449 0.000004
v 161.429016 -17.812588 -0.000001
v 152.983337 -23.455811 0.000000
v 118.969727 10.557808 -13.210490
v 164.996979 0.612295 -17.402159
v 159.597549 -6.425591 -22.699720
v 155.126465 0.612299 -20.894808
v 156.358856 4.950603 -17.418016
v 159.614014 7.645182 -14.083221
v 163.238312 5.540842 -20.988239
v 156.295197 -3.518385 -9.621809
v 120.244743 -11.499352 -16.696024
v 130.231415 -13.585248 -16.524326
v 139.719391 -18.163086 0.000001
v 143.020981 26.628345 28.965553
v 165.112411 0.612281 24.656536
v 167.121750 5.366750 20.347523
v 169.131073 0.612281 24.656540
v 167.121765 -4.142179 29.444952
v 176.284653 0.612279 27.067717
v 176.284668 2.989524 24.690485
v 176.284668 0.612289 27.067717
v 176.284698 -1.764934 24.668806
v 185.237549 0.612290 -28.965553
v 165.112396 0.612301 -24.656540
v 167.121735 5.366771 -20.347523
v 169.131073 0.612292 -24.656538
v 167.121735 -4.142173 -29.444963
v 176.284637 0.612288 -27.067724
v 176.284637 2.989530 -24.690493
v 176.284637 0.612297 -27.067722
v 176.284637 -1.764935 -24.668806
v 185.237549 0.612295 13.210491
v 164.996979 0.612292 14.723842
v 162.777527 -4.437253 17.402159
v 159.597549 -6.425575 22.699732
v 155.126495 0.612294 20.894815
v 156.358856 4.950603 17.418022
v 159.614014 7.645176 14.083218
v 163.238312 5.540837 20.988241
v 156.295212 -3.518388 -14.723845
v 162.777527 -4.437250 0.000003
v 148.506866 -13.268301 8.007603
v 147.047409 -11.709647 13.094163
v 134.851852 -4.693962 7.546086
v 127.019608 -3.058050 12.959505
v 142.292984 -8.284208 10.210288
v 144.809601 -22.530762 -8.007606
v 147.047409 -11.709651 -13.094161
v 134.851852 -4.693960 -7.546086
v 127.019585 -3.058047 -0.000001
v 124.705246 -4.045411 -12.959502
v 142.292984 -8.284222 -10.210286
v 144.809601 -22.530762 0.000008
v 146.670502 -24.518162 16.363625
v 139.951447 -12.094250 12.361914
v 146.139221 -17.385202 6.565239
v 149.227631 -20.031801 0.224754
v 143.392120 -22.100901 -7.698310
v 138.134247 -19.645811 -16.490444
v 138.566956 -11.737321 -10.658113
v 139.519806 -19.238228 -6.545249
v 149.227615 -20.031837 0.009561
v 149.958084 -21.456284 -13.581277
v 127.045067 -9.497560 -15.765460
v 134.634552 -6.347233 -14.500085
v 133.694122 -12.755652 8.209901
v 138.629456 -20.212044 14.831165
v 131.570694 -12.221822 -2.699842
v 138.429779 -21.133522 -1.415787
v 135.549927 -19.580677 9.281973
v 133.162552 -17.895466 -13.969055
v 144.775436 -16.194025 -13.276127
v 137.926117 -16.252426 13.212251
v 139.168243 -17.157061 -11.936019
v 131.318146 -14.311464 -7.751978
v 135.295898 -18.916832 -4.964334
v 142.734528 -21.752537 1.700231
v 136.420578 -20.701092 7.615612
v 142.716034 -20.613668 0.000008
v 142.454102 -30.467049 9.621817
v 120.244743 -11.499342 10.973159
v 141.764572 -25.844706 -10.973145
v 141.764572 -25.844707 10.210287
v 145.781662 -22.530766 16.524328
v 139.719421 -18.163078 -10.210293
v 145.781662 -22.530767 0.000000
v 169.053879 0.595449 0.000000
v 116.988083 0.595447 11.110946
v 130.231430 20.361216 -0.000003
v 124.612946 19.003487 0.000000
v 169.053879 0.595449 -0.000001
v 167.072235 10.557811 -0.000001
v 161.429016 19.003498 -0.000000
v 152.983337 24.646706 0.000001
v 143.020981 26.628345 0.000000
v 169.053879 0.595449 0.000001
v 167.072235 -9.366910 0.000004
v 161.429016 -17.812588 -0.000001
v 152.983337 -23.455811 0.000009
v 147.642578 -24.518158 0.000000
v 116.988083 0.595447 0.000000
v 118.969727 10.557808 -0.000003
v 124.612946 19.003487 0.000000
v 133.058624 24.646715 0.000000
v 116.988083 0.595447 0.014824
v 116.149773 -7.152966 0.000002
v 117.293762 -12.758300 -11.110953
v 130.231430 20.361214 -0.000003
v 124.612946 19.003487 17.418022
v 159.614014 7.645176 20.894815
v 156.358856 4.950603 14.083218
v 163.238312 5.540837 13.210491
v 164.996979 0.612292 14.723842
v 162.777527 -4.437253 17.402159
v 159.597549 -6.425575 22.699732
v 155.126495 0.612294 20.988241
v 156.295212 -3.518388 -17.418016
v 159.614014 7.645182 -20.894808
v 156.358856 4.950603 -14.083221
v 163.238312 5.540842 -13.210490
v 164.996979 0.612295 -14.723845
v 162.777527 -4.437250 -17.402159
v 159.597549 -6.425591 -22.699720
v 155.126465 0.612299 -20.988239
v 156.295197 -3.518385 16.696024
v 130.231445 -13.585251 16.524328
v 139.719421 -18.163078 9.621817
v 120.244743 -11.499342 0.000002
v 117.293762 -12.758300 0.000003
v 148.506866 -13.268301 0.000008
v 146.670502 -24.518162 -16.696024
v 130.231415 -13.585248 -16.524326
v 139.719391 -18.163086 -9.621809
v 120.244743 -11.499352 0.000002
v 117.293762 -12.758300 -0.000001
v 124.705246 -4.045411 0.000008
v 142.454102 -30.467049 10.210287
v 145.781662 -22.530766 0.000008
v 142.454102 -30.467049 0.000009
v 147.642578 -24.518158 10.973159
v 141.764572 -25.844706 16.524328
v 139.719421 -18.163078 -10.210293
v 145.781662 -22.530767 0.000008
v 142.454102 -30.467049 -10.973145
v 141.764572 -25.844707 0.000009
v 147.642578 -24.518158 -16.524326
v 139.719391 -18.163086 0.572580

vt 0.690239 0.555236
vt 0.861221 0.472103
vt 0.748445 0.285357
vt 0.530231 0.338307
vt 0.582552 0.382398
vt 0.634340 0.369252
vt 0.738364 0.312102
vt 0.785741 0.260391
vt 0.841462 0.546346
vt 0.605920 0.486278
vt 0.644299 0.469758
vt 0.894429 0.421717
vt 0.818814 0.367454
vt 0.885697 0.613123
vt 0.789243 0.636020
vt 0.691230 0.553135
vt 0.719394 0.238180
vt 0.609086 0.299318
vt 0.674817 0.433075
vt 0.555200 0.215868
vt 0.714613 0.497268
vt 0.970834 0.671515
vt 0.849873 0.153565
vt 0.875231 0.454706
vt 0.530265 0.217559
vt 0.483322 0.305225
vt 0.953894 0.295623
vt 0.414791 0.137735
vt 0.636368 0.717260
vt 0.611532 0.317435
vt 0.394984 0.698333
vt 0.299599 0.790975
vt 0.491925 0.729329
vt 0.366110 0.398452
vt 0.977570 0.622003
vt 0.099703 0.643963
vt 0.170830 0.669539
vt 0.233853 0.767880
vt 0.270226 0.836292
vt 0.241410 0.909596
vt 0.221272 0.568626
vt 0.366152 0.630406
vt 0.330594 0.859901
vt 0.431439 0.815014
vt 0.353911 0.899395
vt 0.336663 0.700400
vt 0.510035 0.602889
vt 0.485086 0.666144
vt 0.424572 0.713733
vt 0.094269 0.743805
vt 0.178851 0.575941
vt 0.242260 0.817639
vt 0.123206 0.582006
vt 0.942511 0.712950
vt 0.760818 0.724449
vt 0.663931 0.171533
vt 0.554551 0.776594
vt 0.466870 0.707022
vt 0.443703 0.735663
vt 0.379222 0.769056
vt 0.376497 0.803447
vt 0.396739 0.805880
vt 0.436735 0.714945
vt 0.402792 0.522877
vt 0.140596 0.543835
vt 0.249932 0.551796
vt 0.351317 0.225925
vt 0.916099 0.949784
vt 0.802826 0.891164
vt 0.783541 0.832544
vt 0.764256 0.891164
vt 0.783541 0.853387
vt 0.913426 0.831058
vt 0.892236 0.808730
vt 0.871047 0.831058
vt 0.892236 0.727670
vt 0.956059 0.949784
vt 0.802826 0.891164
vt 0.783541 0.832544
vt 0.764256 0.891164
vt 0.783541 0.853387
vt 0.913426 0.831058
vt 0.892236 0.808730
vt 0.871047 0.831058
vt 0.892236 0.727670
vt 0.956059 0.539653
vt 0.836896 0.559316
vt 0.797341 0.551229
vt 0.764487 0.480808
vt 0.760117 0.462972
vt 0.788480 0.465047
vt 0.828331 0.499400
vt 0.848957 0.511282
vt 0.752624 0.732428
vt 0.466047 0.026967
vt 0.330537 0.035878
vt 0.281379 0.039089
vt 0.183974 0.039978
vt 0.126309 0.038680
vt 0.233859 0.099016
vt 0.293257 0.035878
vt 0.281379 0.039089
vt 0.183974 0.039978
vt 0.126309 0.033556
vt 0.080053 0.038680
vt 0.233859 0.099016
vt 0.293257 0.090099
vt 0.352965 0.490653
vt 0.355496 0.409304
vt 0.375918 0.341409
vt 0.366931 0.318205
vt 0.281447 0.280576
vt 0.190412 0.183366
vt 0.127300 0.250865
vt 0.187495 0.238064
vt 0.295833 0.286304
vt 0.337849 0.240747
vt 0.021624 0.175021
vt 0.050786 0.222966
vt 0.095345 0.405094
vt 0.285556 0.519961
vt 0.273456 0.319474
vt 0.221580 0.342122
vt 0.196186 0.438169
vt 0.239084 0.191656
vt 0.209276 0.228764
vt 0.152499 0.447444
vt 0.318745 0.257110
vt 0.088183 0.289078
vt 0.158465 0.283893
vt 0.249735 0.364327
vt 0.229663 0.378670
vt 0.313928 0.132821
vt 0.360824 0.367402
vt 0.461188 0.124211
vt 0.292395 0.124211
vt 0.292395 0.629561
vt 0.608223 0.540959
vt 0.584141 0.532244
vt 0.441028 0.613947
vt 0.917047 0.232579
vt 0.468131 0.172941
vt 0.778262 0.085841
vt 0.830451 0.850718
vt 0.553206 0.914969
vt 0.491122 0.966574
vt 0.406582 0.988621
vt 0.312956 0.991715
vt 0.225165 0.813382
vt 0.569780 0.727217
vt 0.589825 0.629091
vt 0.585456 0.537842
vt 0.550917 0.494683
vt 0.520345 0.611702
vt 0.017905 0.696135
vt 0.009970 0.784314
vt 0.017771 0.988877
vt 0.142109 0.591292
vt 0.024214 0.514868
vt 0.055504 0.487227
vt 0.065706 0.893917
vt 0.114520 0.980429
vt 0.061361 0.890979
vt 0.647571 0.953034
vt 0.647581 0.826924
vt 0.652339 0.802844
vt 0.661297 0.837103
vt 0.653664 0.890979
vt 0.647273 0.981117
vt 0.651940 0.954486
vt 0.647808 0.890979
vt 0.647571 0.953034
vt 0.647581 0.826924
vt 0.652339 0.802844
vt 0.661297 0.837103
vt 0.653664 0.890979
vt 0.647273 0.981117
vt 0.651940 0.954486
vt 0.647808 0.101534
vt 0.181699 0.101610
vt 0.241508 0.102531
vt 0.110148 0.094183
vt 0.052003 0.026967
vt 0.330537 0.090099
vt 0.352965 0.101534
vt 0.181699 0.101610
vt 0.241508 0.102531
vt 0.110148 0.094183
vt 0.052003 0.033556
vt 0.080053 0.132821
vt 0.360824 0.048112
vt 0.525359 0.116401
vt 0.671813 0.015700
vt 0.653826 0.116244
vt 0.525920 0.111483
vt 0.402076 0.048112
vt 0.525359 0.116401
vt 0.671813 0.116244
vt 0.525920 0.015700
vt 0.653826 0.111483
vt 0.402076 1.000000

f 133/133 128/128 121/121
f 121/121 112/112 133/133
f 122/122 128/128 109/109
f 109/109 128/128 110/110
f 115/115 131/131 113/113
f 114/114 126/126 127/127
f 114/114 127/127 120/120
f 116/116 131/131 115/115
f 115/115 126/126 116/116
f 113/113 131/131 123/123
f 112/112 131/131 116/116
f 116/116 117/117 112/112
f 118/118 119/119 120/120
f 114/114 120/120 119/119
f 121/121 128/128 122/122
f 123/123 124/124 113/113
f 131/131 132/132 123/123
f 132/132 131/131 112/112
f 121/121 125/125 132/132
f 127/127 129/129 120/120
f 115/115 130/130 127/127
f 132/132 112/112 121/121
f 126/126 115/115 127/127
f 112/112 117/117 111/111
f 128/128 133/133 110/110
f 133/133 112/112 111/111
f 110/110 133/133 111/111
f 165/165 70/70 71/71
f 71/71 167/167 72/72
f 72/72 169/169 170/170
f 170/170 171/171 69/69
f 69/69 73/73 70/70
f 70/70 74/74 71/71
f 71/71 75/75 72/72
f 72/72 76/76 73/73
f 77/77 73/73 71/71
f 168/168 167/167 72/72
f 171/171 169/169 70/70
f 166/166 164/164 172/172
f 79/79 173/173 80/80
f 80/80 79/79 81/81
f 81/81 80/80 178/178
f 81/81 78/78 82/82
f 82/82 86/86 80/80
f 175/175 176/176 81/81
f 177/177 179/179 79/79
