# MOD converted: d_w_costume_pirate_mask.mod
# 26 verts, 15 faces

v 140.168243 -15.953830 -9.274087
v 142.006226 -15.126469 -17.664753
v 133.368866 -6.334283 -15.836720
v 127.073586 -6.073005 -11.252404
v 125.262314 -10.939264 -2.063056
v 133.854858 -14.378640 -5.346012
v 128.055481 -13.748082 -15.245966
v 139.095932 -9.955965 3.733792
v 147.975616 -15.292786 6.890585
v 147.628632 -14.834519 -4.479226
v 140.565552 -15.775294 -2.861983
v 138.455109 -15.515374 8.269942
v 152.525543 -13.646519 10.925010
v 151.770752 -12.801219 -1.848617
v 142.815277 -16.200518 0.042710
v 141.049728 -16.017866 -15.217669
v 126.650391 0.837163 -14.174456
v 125.446335 0.363525 -16.035141
v 128.031616 -6.161242 -14.888152
v 126.706940 -7.064420 -13.368526
v 127.203697 5.226188 -12.565367
v 126.345367 5.350969 -15.794092
v 127.069992 -3.795170 -14.540071
v 125.762756 -4.117529 -3.156942
v 140.168243 -15.953830 -15.836720
v 127.073586 -6.073005 0.971117

vt 0.883168 0.387489
vt 0.976346 0.975683
vt 0.482470 0.922299
vt 0.126429 0.566683
vt 0.012431 0.000000
vt 0.512201 0.212308
vt 0.175965 0.760085
vt 0.820241 0.895316
vt 0.987899 0.895288
vt 0.735836 0.994518
vt 0.987870 0.994542
vt 0.735875 0.842610
vt 0.987888 0.842514
vt 0.736117 0.961706
vt 0.987878 0.961772
vt 0.735809 0.895316
vt 0.987899 0.895288
vt 0.735836 0.994518
vt 0.987870 0.994542
vt 0.735875 0.842610
vt 0.987888 0.842514
vt 0.736117 0.961706
vt 0.987878 0.961772
vt 0.735809 0.994569
vt 0.857621 0.994569
vt 0.857621 1.000000

f 2/2 5/5 8/8
f 1/1 7/7 2/2
f 1/1 6/6 7/7
f 3/3 5/5 4/4
f 5/5 3/3 8/8
f 7/7 5/5 2/2
f 10/10 16/16 9/9
f 9/9 13/13 15/15
f 25/25 11/11 16/16
f 12/12 25/25 15/15
f 16/16 25/25 26/26
f 23/23 19/19 24/24
f 23/23 26/26 20/20
f 24/24 26/26 18/18
f 18/18 22/22 24/24
