# MOD converted: d_w_costume_dracula_body.mod
# 818 verts, 527 faces

v 64.369270 15.887348 0.000000
v 61.287365 -13.842171 6.113342
v 81.443909 -8.728335 11.185001
v 81.849945 -5.495930 12.573118
v 82.602470 -0.153081 10.617536
v 83.039154 4.123868 7.892419
v 83.345612 7.127340 9.327357
v 61.551991 -12.934608 17.773235
v 62.364964 -8.695865 12.516341
v 77.169556 8.130832 7.760691
v 79.269997 11.005578 16.207817
v 76.311386 0.745113 17.092533
v 64.145477 9.584680 8.790010
v 64.396385 14.865530 14.086675
v 75.276535 -6.903080 7.949800
v 74.197563 -10.886499 20.321362
v 63.657578 1.750625 0.000001
v 81.127174 -10.073555 0.000000
v 83.655884 8.383083 -0.000001
v 73.652626 -11.798159 -0.000001
v 79.605278 11.941689 0.000049
v 118.315369 -4.095363 0.000001
v 106.952087 11.095068 -0.000003
v 114.955956 10.790011 0.000000
v 96.454521 8.894588 0.000001
v 89.077133 -9.814504 9.165478
v 89.291153 -7.150293 5.972379
v 109.838997 -5.718808 5.380891
v 90.228813 8.580623 5.255789
v 106.980934 10.561773 9.632135
v 109.497154 9.914907 4.516964
v 96.458488 8.070165 5.087007
v 101.370522 9.434378 8.537597
v 96.461746 6.677244 10.602677
v 96.586319 2.182322 9.866826
v 101.441429 8.275358 7.115854
v 113.157433 -1.283538 9.142678
v 115.357933 4.916132 7.214092
v 113.923622 9.196666 4.445976
v 114.414757 10.114679 4.967535
v 117.847656 6.034596 8.669186
v 114.784149 0.802003 9.261779
v 113.647758 7.931551 11.590378
v 113.869377 0.648431 10.485070
v 96.583374 -0.899478 3.825193
v 117.892601 -6.514220 1.494340
v 117.430321 -6.792139 12.567530
v 114.039558 7.328972 12.310834
v 109.930252 10.121462 12.210242
v 114.559540 4.035198 6.056554
v 118.804619 -4.305474 6.711548
v 120.293892 -0.624872 5.796528
v 121.283157 4.095437 3.471886
v 121.550774 7.896708 5.489900
v 116.807884 1.317987 10.801530
v 111.799637 -1.323440 12.568117
v 102.921928 7.100797 4.840187
v 111.747452 -4.023482 3.141631
v 115.796043 -2.340534 12.268686
v 102.032768 -7.576957 4.593373
v 98.301857 -12.965997 9.313482
v 98.381165 -11.509089 4.410784
v 101.657730 -13.909795 9.170396
v 101.708748 -12.417503 11.935140
v 99.297607 -7.131364 4.508068
v 105.756973 -11.899288 8.871490
v 105.683281 -10.580095 10.431157
v 107.024132 -6.343313 4.914304
v 96.197098 -10.064201 9.241075
v 96.320854 -6.360375 5.041266
v 89.142319 -9.660040 12.572775
v 103.311546 -0.489581 10.869617
v 109.093346 -2.608936 5.032400
v 121.847435 2.502468 4.507626
v 119.760368 -1.870028 4.762106
v 117.331184 -0.998400 5.117918
v 119.325035 3.685693 3.572149
v 116.108803 4.579005 3.267016
v 114.227272 0.355451 0.000001
v 100.910828 -12.828703 0.000002
v 113.201233 -2.229025 0.000001
v 110.151375 -6.481060 -0.000003
v 121.652122 8.705983 0.000004
v 115.342323 -3.946843 0.000000
v 101.394928 10.149014 0.000002
v 116.498390 -3.556858 0.000109
v 122.715340 5.133442 0.000000
v 90.608757 9.578979 -0.000002
v 116.839020 6.445898 -0.000002
v 120.073753 6.112343 0.000001
v 97.357574 -11.280306 0.000001
v 104.592010 -11.467703 -0.000003
v 118.305206 8.081677 11.961700
v 86.793968 9.248224 6.734145
v 86.895493 11.028489 0.000000
v 86.961113 12.300794 13.847422
v 86.401688 2.440879 13.318538
v 86.142494 -1.855862 6.309108
v 85.545143 -11.800087 11.470524
v 85.730202 -8.659088 0.000000
v 89.742645 1.925853 -0.000001
v 77.026497 14.562747 0.000001
v 80.066742 -12.225811 -0.000000
v 84.350807 11.530092 0.000000
v 75.847527 -13.784801 -0.000001
v 67.422958 -15.759835 -0.000002
v 81.239067 12.964550 -0.000002
v 59.188526 17.095926 0.000001
v 82.087036 -10.715843 0.000002
v 68.603294 16.089035 11.914321
v 84.251602 7.773296 6.278599
v 84.320114 10.333487 6.538409
v 82.376221 -9.543120 17.828869
v 76.839119 2.525712 14.938090
v 75.839722 -9.234520 15.533825
v 77.027328 10.004045 8.187011
v 77.027832 13.113681 8.351643
v 75.837425 -12.352273 19.852474
v 68.604279 10.831002 10.464105
v 68.604889 14.418725 4.094685
v 58.002331 -16.293837 9.804342
v 67.410812 -14.104444 11.769180
v 60.867924 15.055574 16.229237
v 77.669228 -2.458470 15.609693
v 81.006775 2.343371 13.066421
v 80.027390 -7.611744 13.597996
v 81.198158 8.854513 7.159811
v 81.217499 11.662364 7.357595
v 80.046547 -10.937326 15.044617
v 80.558990 -2.245784 17.337465
v 111.621185 0.264510 17.552467
v 111.975090 7.249198 16.019072
v 108.354225 9.797724 14.366776
v 103.168739 -1.091726 14.320257
v 103.440102 6.746988 16.098690
v 107.413498 -3.247121 21.425955
v 110.226776 0.324178 21.391443
v 110.641235 7.047687 19.405993
v 106.903427 9.103336 17.558540
v 102.050407 6.481141 19.829916
v 106.560448 -3.297082 17.774452
v 102.136871 -0.868017 17.611475
v 113.050232 3.733915 21.758099
v 111.414818 3.491520 23.913342
v 98.318687 6.460380 24.120136
v 98.533226 -0.540497 28.542782
v 108.960449 6.342055 26.294512
v 104.033279 -3.383840 28.371210
v 108.735733 -0.875422 25.055014
v 104.383560 10.622157 25.860783
v 96.956772 6.315313 30.568188
v 108.207405 6.732561 29.697079
v 102.522156 10.883769 27.195509
v 103.518639 10.835699 30.444149
v 107.919670 -1.239302 28.303106
v 103.126099 -4.047190 25.973213
v 97.118057 -0.853811 33.644016
v 92.779564 -1.772091 36.183300
v 99.151108 10.933130 33.611256
v 92.774094 6.787507 28.757463
v 109.476616 3.308095 30.806900
v 108.704880 3.160410 39.046585
v 92.738625 5.606348 41.153305
v 97.468857 8.375213 38.840828
v 92.701317 -0.588197 43.145576
v 101.817665 6.073857 40.922173
v 97.376907 -3.759080 42.895638
v 101.954231 -1.301194 36.274742
v 99.191216 -5.722794 39.067978
v 105.156174 -2.383148 39.212795
v 105.126930 7.329771 39.414371
v 105.722542 2.545240 41.750366
v 91.006226 5.849591 43.953209
v 96.101868 8.754154 43.683998
v 95.994781 -4.660303 41.444313
v 90.902206 -0.967659 45.899918
v 101.191650 -1.949595 46.139145
v 101.028015 6.412137 41.234524
v 97.403770 2.259286 0.000001
v 108.836761 -8.359994 0.000001
v 110.330116 -9.762222 8.481719
v 112.071854 -5.697195 10.161021
v 117.098518 1.241346 7.677978
v 118.763390 7.336374 8.213280
v 115.035912 -4.910410 9.457827
v 119.201691 1.297241 7.143203
v 120.624489 7.446538 10.114363
v 115.061195 -2.113526 9.628544
v 117.627541 -1.817699 3.678437
v 108.800140 -9.023367 3.298624
v 112.863747 -6.030559 0.000001
v 110.559601 -6.349774 2.930135
v 110.907761 -7.233553 2.259854
v 108.963158 -8.363614 0.753538
v 108.057884 -9.764222 6.360816
v 105.499527 -13.635138 2.340685
v 102.352798 -14.759089 -0.000003
v 112.309204 -8.118646 0.000001
v 106.589500 -11.532627 5.058338
v 110.176704 -7.401515 4.924118
v 112.599785 -6.207582 -0.000003
v 121.196388 9.711133 0.000001
v 110.729897 -7.172544 -0.000003
v 119.312767 9.214429 9.557950
v 90.147476 7.158128 11.064729
v 89.832840 1.718811 10.642124
v 89.623108 -1.717888 13.713687
v 83.625687 2.157911 11.457302
v 82.685745 -6.515715 13.212602
v 83.112297 -1.979409 43.009235
v 101.909698 2.971217 46.029427
v 101.103058 2.576906 -0.000007
v 130.077362 13.209584 0.000000
v 103.583740 16.940069 -0.000000
v 124.401405 10.101218 9.636331
v 121.689339 1.498171 8.681911
v 117.396515 -4.858693 13.507580
v 125.855644 1.631640 12.487298
v 121.623184 -9.505275 11.995497
v 128.712158 8.157264 6.228838
v 112.955513 -4.743402 7.401923
v 118.221878 1.473755 8.589162
v 124.311134 6.458109 5.187462
v 124.827209 9.644044 6.389806
v 130.329010 12.736638 8.532851
v 115.410431 -2.457710 10.796172
v 117.690277 5.246472 10.278560
v 117.093269 0.910194 11.567980
v 113.179031 12.081648 15.382179
v 116.022720 0.090346 16.053986
v 116.968994 4.401892 14.250129
v 113.766876 -3.172374 5.806945
v 119.312294 6.423571 6.822309
v 110.821701 -6.609067 8.498308
v 109.886528 -7.183976 13.733962
v 109.317261 -6.090356 18.298916
v 110.281693 -3.808318 21.680244
v 112.103645 -0.978275 22.223301
v 113.511002 3.685623 22.383635
v 111.536453 8.524818 6.227179
v 103.602394 16.495134 13.131207
v 103.491547 15.844453 5.535360
v 113.850685 13.131772 17.218843
v 113.436096 10.774023 19.220438
v 102.971054 14.580527 24.834661
v 102.227928 12.300135 37.697178
v 35.998070 18.098516 7.737998
v 72.773483 23.889755 17.203178
v 72.775642 22.215904 25.373905
v 72.789185 19.939337 32.356102
v 72.780373 16.711334 6.915472
v 91.264191 19.511669 14.998553
v 91.263420 18.744019 22.023119
v 91.260788 16.962936 35.818951
v 54.357674 17.783876 9.072418
v 54.330452 26.781643 19.068447
v 54.333763 24.637627 28.230116
v 54.360668 21.897961 28.199736
v 91.241455 14.653443 9.197990
v 48.193733 26.383928 28.937826
v 47.233158 22.074387 0.000000
v 72.774124 24.117859 0.000002
v 35.959568 28.886614 0.000000
v 91.265945 19.855804 0.000001
v 114.164185 13.837958 -0.000003
v 119.785583 8.595182 -0.000001
v 54.330524 26.893902 4.679606
v 67.417160 -15.564421 4.799751
v 75.841721 -13.389964 -6.113342
v 81.443909 -8.728337 -11.185000
v 81.849945 -5.495933 -12.573117
v 82.602470 -0.153076 -10.617535
v 83.039154 4.123869 -7.892419
v 83.345612 7.127339 -9.327353
v 61.551983 -12.934610 -17.773235
v 62.364964 -8.695863 -12.516342
v 77.169571 8.130833 -7.760691
v 79.269989 11.005579 -16.207819
v 76.311386 0.745118 -17.092537
v 64.145477 9.584679 -8.790210
v 64.396278 14.865610 -14.086675
v 75.276535 -6.903082 -7.949799
v 74.197556 -10.886500 -20.321363
v 63.657574 1.750623 -9.165479
v 89.291153 -7.150291 -5.972376
v 109.838997 -5.718809 -5.380891
v 90.228813 8.580624 -5.255788
v 106.977928 10.560474 -9.632135
v 109.490433 9.914743 -4.516963
v 96.458488 8.070165 -5.087006
v 101.370522 9.434378 -8.537599
v 96.461746 6.677244 -10.602675
v 96.586319 2.182322 -9.866826
v 101.439308 8.272407 -7.115854
v 113.160545 -1.281397 -9.142681
v 115.357124 4.918254 -7.214097
v 113.921150 9.198096 -4.445981
v 114.414757 10.114676 -4.967538
v 117.847649 6.034595 -8.669185
v 114.785637 0.805613 -9.261779
v 113.642662 7.935101 -11.590378
v 113.871834 0.653629 -10.485068
v 96.583374 -0.899478 -3.825187
v 117.892593 -6.514221 -1.494337
v 117.430321 -6.792139 -12.567528
v 114.034180 7.334546 -12.310834
v 109.922874 10.122271 -12.210243
v 114.557999 4.041257 -6.056554
v 118.804604 -4.305473 -6.711548
v 120.293892 -0.624875 -5.796526
v 121.283150 4.095438 -3.471891
v 121.550774 7.896705 -5.489900
v 116.807884 1.317984 -10.801530
v 111.803871 -1.321046 -12.568117
v 102.914688 7.091263 -4.840185
v 111.747452 -4.023483 -3.141627
v 115.796043 -2.340537 -12.268687
v 102.032753 -7.576958 -4.593368
v 98.301857 -12.965997 -9.313480
v 98.381172 -11.509090 -4.410779
v 101.657730 -13.909798 -9.170393
v 101.708748 -12.417504 -11.935139
v 99.297607 -7.131364 -4.508063
v 105.756973 -11.899291 -8.871489
v 105.683289 -10.580097 -10.431157
v 107.033760 -6.345827 -4.914303
v 96.197098 -10.064201 -9.241072
v 96.320854 -6.360378 -5.041264
v 89.142319 -9.660042 -12.572773
v 103.316902 -0.498490 -10.869618
v 109.099289 -2.609242 -5.032403
v 121.847504 2.502474 -4.507627
v 119.760368 -1.870026 -4.762102
v 117.331177 -0.998407 -5.117920
v 119.325020 3.685689 -3.572151
v 116.108803 4.579002 -3.267015
v 114.227272 0.355447 -11.961700
v 86.793968 9.248227 -6.734144
v 86.895493 11.028486 -13.847424
v 86.401688 2.440878 -13.318540
v 86.142494 -1.855864 -6.309108
v 85.545151 -11.800089 -11.470522
v 85.730194 -8.659090 -11.914321
v 84.251602 7.773294 -6.278600
v 84.320114 10.333486 -6.538408
v 82.376221 -9.543122 -17.828867
v 76.839111 2.525714 -14.938090
v 75.839722 -9.234519 -15.533825
v 77.027336 10.004048 -8.187011
v 77.027832 13.113679 -8.351645
v 75.837425 -12.352275 -19.852474
v 68.604279 10.831005 -10.464107
v 68.604889 14.418723 -4.094681
v 58.002331 -16.293837 -9.804342
v 67.410820 -14.104445 -11.769423
v 60.867760 15.055657 -16.229235
v 77.669220 -2.458481 -15.609693
v 81.006775 2.343372 -13.066422
v 80.027390 -7.611745 -13.597998
v 81.198158 8.854513 -7.159811
v 81.217506 11.662367 -7.357596
v 80.046532 -10.937325 -15.044616
v 80.558990 -2.245795 -17.337463
v 111.623779 0.268238 -17.552467
v 111.970306 7.253332 -16.019068
v 108.346710 9.797868 -14.366776
v 103.172874 -1.097222 -14.320256
v 103.434570 6.740265 -16.098690
v 107.419792 -3.247903 -21.425955
v 110.226768 0.324139 -21.391443
v 110.640060 7.048536 -19.405993
v 106.900009 9.102968 -17.558538
v 102.050438 6.481181 -19.829918
v 106.560387 -3.297086 -17.774454
v 102.136833 -0.867978 -17.611475
v 113.049149 3.739141 -21.758099
v 111.414825 3.491470 -23.913342
v 98.318733 6.460428 -24.120140
v 98.533188 -0.540467 -28.542782
v 108.960503 6.342010 -26.294516
v 104.033234 -3.383842 -28.371214
v 108.735710 -0.875452 -25.055008
v 104.379341 10.621178 -25.860779
v 96.956787 6.315338 -30.568186
v 108.207420 6.732539 -29.697075
v 102.522202 10.883770 -27.195518
v 103.518723 10.835697 -30.444159
v 107.919655 -1.239308 -28.303116
v 103.126068 -4.047190 -25.973219
v 97.118050 -0.853789 -33.644024
v 92.779564 -1.772100 -36.183281
v 99.151085 10.933125 -33.611248
v 92.774094 6.787494 -28.757460
v 109.476631 3.308045 -30.806900
v 108.704880 3.160407 -39.046574
v 92.738625 5.606341 -41.153290
v 97.468842 8.375212 -38.840828
v 92.701317 -0.588206 -43.145573
v 101.817665 6.073862 -40.922176
v 97.376884 -3.759080 -42.895645
v 101.954231 -1.301189 -36.274746
v 99.191193 -5.722793 -39.067982
v 105.156174 -2.383141 -39.212788
v 105.126930 7.329777 -39.414368
v 105.722542 2.545248 -41.750366
v 91.006226 5.849584 -43.953201
v 96.101852 8.754152 -43.684006
v 95.994781 -4.660303 -41.444313
v 90.902214 -0.967666 -45.899918
v 101.191650 -1.949592 -46.139145
v 101.028008 6.412141 -41.234524
v 97.403770 2.259285 -8.481718
v 112.076500 -5.695996 -10.161022
v 117.099449 1.245629 -7.677982
v 118.763374 7.336369 -8.213281
v 115.038826 -4.908623 -9.457829
v 119.201683 1.297235 -7.143208
v 120.624481 7.446535 -10.114363
v 115.066467 -2.107832 -9.628543
v 117.627525 -1.817706 -3.678437
v 108.800140 -9.023367 -3.298622
v 112.863739 -6.030559 -2.930133
v 110.907761 -7.233553 -2.259853
v 108.963142 -8.363616 -0.753532
v 108.057884 -9.764224 -6.360812
v 105.499527 -13.635140 -2.340683
v 102.352791 -14.759087 -5.058334
v 110.176704 -7.401516 -4.924116
v 112.599792 -6.207583 -9.557951
v 90.147476 7.158128 -11.064729
v 89.832840 1.718811 -10.642124
v 89.623108 -1.717887 -13.713688
v 83.625687 2.157908 -11.457301
v 82.685745 -6.515718 -13.212602
v 83.112297 -1.979406 -43.009232
v 101.909698 2.971222 -46.029419
v 101.103058 2.576909 -9.636331
v 121.689323 1.498172 -8.681914
v 117.399414 -4.855990 -13.507582
v 125.855637 1.631631 -12.487279
v 121.623161 -9.505295 -11.995502
v 128.712143 8.157250 -6.228840
v 112.958374 -4.742550 -7.401922
v 118.221878 1.473749 -8.589165
v 124.311134 6.458105 -5.187470
v 124.827209 9.644040 -6.389819
v 130.329010 12.736630 -8.532851
v 115.412392 -2.455755 -10.796178
v 117.689331 5.249596 -10.278560
v 117.094376 0.914464 -11.567981
v 113.170311 12.085142 -15.382180
v 116.025620 0.098426 -16.053988
v 116.967117 4.411133 -14.250129
v 113.773064 -3.167226 -5.806948
v 119.312286 6.423567 -6.822306
v 110.821701 -6.609069 -8.498308
v 109.896683 -7.184015 -13.733961
v 109.327042 -6.089729 -18.298916
v 110.288589 -3.805713 -21.680243
v 112.104492 -0.977150 -22.223301
v 113.511002 3.685556 -22.383638
v 111.536514 8.524758 -6.227178
v 103.591675 16.490059 -13.131207
v 103.481323 15.840474 -5.535359
v 113.846581 13.132896 -17.218842
v 113.427582 10.779542 -19.220434
v 102.971146 14.580553 -24.834660
v 102.227966 12.300141 -37.697186
v 35.998085 18.098576 -7.737999
v 72.773483 23.889755 -17.203184
v 72.775642 22.215904 -25.373899
v 72.789223 19.939386 -32.356102
v 72.780411 16.711374 -6.915470
v 91.264191 19.511673 -14.998557
v 91.263420 18.744017 -22.023117
v 91.260834 16.962980 -35.818951
v 54.357689 17.783924 -9.072417
v 54.330448 26.781639 -19.068447
v 54.333763 24.637629 -28.230112
v 54.360687 21.898005 -28.199734
v 91.241486 14.653480 -9.197990
v 48.193726 26.383919 -28.937830
v 47.233173 22.074436 -4.679605
v 67.417160 -15.564421 -4.799750
v 75.841721 -13.389964 0.000000
v 71.171677 -5.067174 9.297133
v 20.264715 -2.586860 9.300163
v 20.264133 6.971707 17.204367
v 20.265945 2.800888 7.471300
v 20.263920 2.228231 16.083002
v 20.265442 -2.312973 14.665109
v 20.265366 7.107240 5.720022
v 49.485374 -4.992371 4.933097
v 45.601608 1.223223 6.882040
v 46.695286 6.816118 12.316338
v 47.043835 6.663611 14.222165
v 50.382439 -4.520046 15.951602
v 46.731441 1.763481 10.970898
v 45.770500 -7.266942 6.317616
v 46.230370 -4.815342 15.306402
v 46.417297 -4.487593 11.302197
v 42.378899 -6.210544 15.639003
v 43.370190 -3.687431 6.955089
v 43.504116 -4.682077 17.579748
v 35.618698 3.084724 14.372300
v 36.841858 9.247299 7.779898
v 36.508453 9.496518 5.188577
v 34.716522 2.662976 10.119946
v 49.943470 -6.861955 15.499421
v 49.321941 1.617340 11.986696
v 49.079208 6.302213 6.913690
v 48.539879 6.429910 4.806098
v 48.443035 1.133568 11.044509
v 79.914116 5.271632 7.415636
v 80.473930 8.451357 13.690930
v 79.138016 -0.111440 6.723582
v 77.083344 -7.093393 11.783760
v 78.165527 -4.378014 15.424958
v 73.013992 0.285660 13.304193
v 72.966904 -5.292592 8.808478
v 74.447098 9.486363 13.455175
v 74.059311 5.111999 1.561128
v 70.646606 0.745427 2.470502
v 71.561203 -5.001957 16.273352
v 61.238495 1.330566 9.189059
v 60.962334 -8.349306 3.599488
v 60.123795 -5.901107 2.639499
v 60.193649 0.739848 9.799316
v 70.001793 7.711381 14.518502
v 61.267567 -5.957190 4.798637
v 60.415871 7.644066 11.600014
v 60.936195 7.519398 3.089293
v 69.710503 7.478325 7.694662
v 72.508209 -6.802814 0.000000
v 70.636635 6.367780 -0.000000
v 70.360901 0.701432 0.000000
v 76.179169 -8.048477 -0.000000
v 73.907814 9.975288 0.000000
v 80.518204 9.246477 -9.297132
v 20.264715 -2.586862 -9.300165
v 20.264139 6.971705 -17.204367
v 20.265947 2.800887 -7.471299
v 20.263922 2.228229 -16.083002
v 20.265440 -2.312974 -14.665109
v 20.265369 7.107239 -5.720022
v 49.485374 -4.992372 -4.933097
v 45.601627 1.223223 -6.882041
v 46.695293 6.816117 -12.316340
v 47.043839 6.663609 -14.222165
v 50.382427 -4.520046 -15.951607
v 46.731434 1.763478 -10.521898
v 46.646255 -6.920166 -6.317617
v 46.230373 -4.815345 -14.510124
v 47.241249 -4.363438 -10.878226
v 43.308502 -6.292535 -14.682626
v 44.178104 -4.079168 -6.955091
v 43.504120 -4.682079 -17.644346
v 35.618698 3.084726 -14.372301
v 36.841858 9.247300 -7.779898
v 36.508453 9.496518 -5.155193
v 34.716526 2.662975 -10.119950
v 49.943462 -6.861958 -15.499427
v 49.321941 1.617338 -11.986698
v 49.079220 6.302212 -6.913691
v 48.539886 6.429909 -4.806097
v 48.443054 1.133565 -11.044507
v 79.914116 5.271631 -7.415636
v 80.473930 8.451358 -13.690930
v 79.138016 -0.111436 -6.723582
v 77.083344 -7.093393 -11.783760
v 78.165535 -4.378017 -15.424957
v 73.013992 0.285668 -13.304192
v 72.966904 -5.292592 -8.808477
v 74.447098 9.486363 -13.455175
v 74.059311 5.112000 -1.561128
v 70.646606 0.745429 -2.470502
v 71.561203 -5.001958 -16.273354
v 61.238483 1.330566 -9.189055
v 60.962337 -8.349309 -3.599489
v 60.123795 -5.901109 -2.639496
v 60.193642 0.739855 -9.799316
v 70.001793 7.711381 -14.518497
v 61.267548 -5.957196 -4.798633
v 60.583824 7.449638 -11.600012
v 61.100143 7.329561 -3.089293
v 69.710495 7.478323 -7.694661
v 72.508209 -6.802816 5.380891
v 90.228813 8.580623 9.557950
v 90.147476 7.158128 9.557950
v 90.147476 7.158128 11.064729
v 89.832840 1.718811 9.165478
v 89.291153 -7.150293 5.041266
v 89.142319 -9.660040 11.064729
v 89.832840 1.718811 10.642124
v 89.623108 -1.717888 10.642124
v 89.623108 -1.717888 9.165478
v 89.291153 -7.150293 0.000000
v 90.608757 9.578979 5.380891
v 90.228813 8.580623 -9.557951
v 90.147476 7.158128 -5.380891
v 90.228813 8.580624 -11.064729
v 89.832840 1.718811 -9.557951
v 90.147476 7.158128 -5.041264
v 89.142319 -9.660042 -9.165479
v 89.291153 -7.150291 -10.642124
v 89.623108 -1.717887 -11.064729
v 89.832840 1.718811 -9.165479
v 89.291153 -7.150291 -10.642124
v 89.623108 -1.717887 -5.380891
v 90.228813 8.580624 0.000000
v 90.608757 9.578979 9.165478
v 89.291153 -7.150293 5.380891
v 90.228813 8.580623 0.000000
v 90.608757 9.578979 11.914321
v 84.251602 7.773296 6.278599
v 84.320114 10.333487 6.538409
v 82.376221 -9.543120 9.557950
v 90.147476 7.158128 11.064729
v 89.832840 1.718811 10.642124
v 89.623108 -1.717888 13.713687
v 83.625687 2.157911 11.457302
v 82.685745 -6.515715 13.212602
v 83.112297 -1.979409 -9.165479
v 89.291153 -7.150291 -5.380891
v 90.228813 8.580624 -11.914321
v 84.251602 7.773294 -6.278600
v 84.320114 10.333486 -6.538408
v 82.376221 -9.543122 -9.557951
v 90.147476 7.158128 -11.064729
v 89.832840 1.718811 -10.642124
v 89.623108 -1.717887 -13.713688
v 83.625687 2.157908 -11.457301
v 82.685745 -6.515718 -13.212602
v 83.112297 -1.979406 12.710941
v 20.265078 -3.855505 -12.710943
v 20.265074 -3.855507 12.572775
v 103.311546 -0.489581 10.602677
v 96.586319 2.182322 5.489900
v 116.807884 1.317987 8.669186
v 114.784149 0.802003 11.590378
v 113.869377 0.648431 11.064729
v 89.832840 1.718811 6.711548
v 120.293892 -0.624872 5.117918
v 119.325035 3.685693 0.000002
v 116.498390 -3.556858 4.762106
v 117.331184 -0.998400 -0.000002
v 120.073753 6.112343 13.847422
v 86.401688 2.440879 0.000000
v 89.742645 1.925853 0.000000
v 89.742645 1.925853 0.000000
v 89.742645 1.925853 0.000000
v 89.742645 1.925853 0.000000
v 89.742645 1.925853 5.041266
v 89.142319 -9.660040 0.000001
v 89.077133 -9.814504 11.914321
v 84.251602 7.773296 6.278599
v 84.320114 10.333487 6.538409
v 82.376221 -9.543120 0.000001
v 82.087036 -10.715843 13.713687
v 83.625687 2.157911 11.457302
v 82.685745 -6.515715 13.212602
v 83.112297 -1.979409 -0.000000
v 84.350807 11.530092 12.210242
v 114.559540 4.035198 11.590378
v 113.869377 0.648431 12.567530
v 114.039558 7.328972 12.310834
v 109.930252 10.121462 12.568117
v 102.921928 7.100797 10.801530
v 111.799637 -1.323440 10.869617
v 109.093346 -2.608936 12.572775
v 103.311546 -0.489581 14.320257
v 103.440102 6.746988 17.558540
v 102.050407 6.481141 23.913342
v 98.318687 6.460380 25.860783
v 96.956772 6.315313 33.611256
v 92.774094 6.787507 12.568117
v 102.921928 7.100797 39.046585
v 92.738625 5.606348 41.750366
v 91.006226 5.849591 41.234524
v 97.403770 2.259286 41.234524
v 97.403770 2.259286 3.678437
v 108.800140 -9.023367 2.930135
v 110.907761 -7.233553 0.000001
v 106.589500 -11.532627 -0.000003
v 112.309204 -8.118646 3.298624
v 112.863747 -6.030559 7.401923
v 118.221878 1.473755 6.228838
v 112.955513 -4.743402 5.806945
v 119.312294 6.423571 -0.000003
v 119.785583 8.595182 -0.000001
v 79.605278 11.941689 0.000000
v 83.655884 8.383083 0.000000
v 64.369270 15.887348 0.000000
v 61.287365 -13.842171 -0.000001
v 73.652626 -11.798159 0.000001
v 81.127174 -10.073555 0.000000
v 101.394928 10.149014 0.000001
v 106.952087 11.095068 0.000000
v 96.454521 8.894588 -12.572773
v 103.316902 -0.498490 -10.602675
v 96.586319 2.182322 0.000000
v 90.608757 9.578979 -5.489900
v 116.807884 1.317984 -8.669185
v 114.785637 0.805613 -11.590378
v 113.871834 0.653629 -0.000003
v 114.955956 10.790011 -0.000003
v 118.305206 8.081677 0.000004
v 115.342323 -3.946843 0.000001
v 110.151375 -6.481060 -11.064729
v 89.832840 1.718811 -6.711548
v 120.293892 -0.624875 -0.000003
v 121.652122 8.705983 0.000001
v 89.077133 -9.814504 0.000001
v 97.357574 -11.280306 0.000001
v 104.592010 -11.467703 0.000001
v 100.910828 -12.828703 -0.000002
v 120.073753 6.112343 0.000109
v 122.715340 5.133442 0.000049
v 118.315369 -4.095363 0.000002
v 116.498390 -3.556858 -5.117920
v 119.325020 3.685689 -0.000002
v 116.839020 6.445898 0.000002
v 113.201233 -2.229025 0.000002
v 116.498390 -3.556858 -4.762102
v 117.331177 -0.998407 -0.000002
v 120.073753 6.112343 0.000000
v 86.961113 12.300794 -13.847424
v 86.401688 2.440878 0.000000
v 89.742645 1.925853 0.000000
v 89.742645 1.925853 0.000000
v 89.742645 1.925853 0.000000
v 89.742645 1.925853 0.000000
v 89.742645 1.925853 0.000000
v 89.742645 1.925853 -5.041264
v 89.142319 -9.660042 0.000001
v 89.077133 -9.814504 0.000001
v 82.087036 -10.715843 -0.000000
v 84.350807 11.530092 0.000000
v 90.608757 9.578979 -11.914321
v 84.251602 7.773294 -6.278600
v 84.320114 10.333486 -6.538408
v 82.376221 -9.543122 0.000001
v 82.087036 -10.715843 0.000001
v 80.066742 -12.225811 -13.713688
v 83.625687 2.157908 -11.457301
v 82.685745 -6.515718 -13.212602
v 83.112297 -1.979406 -0.000002
v 81.239067 12.964550 -0.000000
v 84.350807 11.530092 0.000000
v 75.847527 -13.784801 -0.000001
v 67.422958 -15.759835 -0.000001
v 77.026497 14.562747 0.000002
v 68.603294 16.089035 -0.000002
v 59.188526 17.095926 -12.210243
v 114.557999 4.041257 -11.590378
v 113.871834 0.653629 -12.567528
v 114.034180 7.334546 -12.310834
v 109.922874 10.122271 -12.568117
v 102.914688 7.091263 -10.801530
v 111.803871 -1.321046 -10.869618
v 109.099289 -2.609242 -12.572773
v 103.316902 -0.498490 -14.320256
v 103.434570 6.740265 -17.558538
v 102.050438 6.481181 -23.913342
v 98.318733 6.460428 -25.860779
v 96.956787 6.315338 -33.611248
v 92.774094 6.787494 -12.568117
v 102.914688 7.091263 -39.046574
v 92.738625 5.606341 -41.750366
v 91.006226 5.849584 -41.234524
v 97.403770 2.259285 -41.234524
v 97.403770 2.259285 -0.000003
v 119.312767 9.214429 -0.000003
v 121.196388 9.711133 0.000001
v 110.330116 -9.762222 0.000001
v 106.589500 -11.532627 -3.678437
v 108.800140 -9.023367 0.000001
v 110.559601 -6.349774 -2.930133
v 110.907761 -7.233553 -0.000003
v 112.309204 -8.118646 0.000001
v 106.589500 -11.532627 -0.000003
v 112.309204 -8.118646 -3.298622
v 112.863739 -6.030559 0.000001
v 110.729897 -7.172544 0.000001
v 108.836761 -8.359994 -0.000000
v 124.401405 10.101218 -0.000007
v 130.077362 13.209584 -0.000003
v 119.785583 8.595182 0.000001
v 114.164185 13.837958 0.000000
v 103.583740 16.940069 0.000000
v 91.265945 19.855804 -0.000001
v 54.330524 26.893902 0.000000
v 72.774124 24.117859 0.000002
v 35.959568 28.886614 -7.401922
v 118.221878 1.473749 -6.228840
v 112.958374 -4.742550 -5.806948
v 119.312286 6.423567 -0.000003
v 119.785583 8.595182 4.933097
v 45.601608 1.223223 5.188577
v 34.716522 2.662976 7.471300
v 20.263920 2.228231 4.806098
v 48.443035 1.133568 1.561128
v 70.646606 0.745427 2.639499
v 60.193649 0.739848 -0.000000
v 70.360901 0.701432 -4.933097
v 45.601627 1.223223 -5.155193
v 34.716526 2.662975 -7.471299
v 20.263922 2.228229 -4.806097
v 48.443054 1.133565 0.000000
v 70.636635 6.367780 -0.000000
v 70.360901 0.701432 -0.000000
v 73.907814 9.975288 -1.561128
v 70.646606 0.745429 -2.639496
v 60.193642 0.739855 0.000000
v 76.179169 -8.048477 0.000000
v 71.171677 -5.067174 -0.000000
v 70.360901 0.701432 0.000000
v 80.518204 9.246477 0.689511

vt 0.460724 0.310489
vt 0.460370 0.238848
vt 0.615977 0.180159
vt 0.616020 0.164096
vt 0.616101 0.186726
vt 0.616148 0.218261
vt 0.616181 0.208531
vt 0.460400 0.117021
vt 0.460494 0.164753
vt 0.556592 0.219785
vt 0.556593 0.125596
vt 0.556590 0.124397
vt 0.460698 0.214351
vt 0.460727 0.149676
vt 0.556589 0.219343
vt 0.556587 0.089413
vt 0.460642 0.310244
vt 0.615943 0.310244
vt 0.616214 0.310381
vt 0.556586 0.310244
vt 0.556594 0.462017
vt 0.478292 0.976034
vt 0.778060 0.976034
vt 0.861693 0.976034
vt 0.612967 0.402581
vt 0.521423 0.267284
vt 0.993687 0.494232
vt 0.784275 0.326598
vt 0.993678 0.913886
vt 0.778212 0.843738
vt 0.813416 0.910978
vt 0.613038 0.917803
vt 0.699623 0.861978
vt 0.613170 0.789520
vt 0.615381 0.865591
vt 0.700613 0.520335
vt 0.844015 0.826684
vt 0.883679 0.870975
vt 0.863625 0.915729
vt 0.860111 0.915137
vt 0.904372 0.543470
vt 0.866019 0.834401
vt 0.859771 0.731262
vt 0.884994 0.601650
vt 0.612566 0.458553
vt 0.937394 0.426849
vt 0.928652 0.770809
vt 0.845115 0.783187
vt 0.803382 0.757458
vt 0.867866 0.501544
vt 0.954934 0.557238
vt 0.971643 0.836782
vt 0.971693 0.890401
vt 0.987921 0.499909
vt 0.885888 0.593019
vt 0.823056 0.801513
vt 0.687236 0.486441
vt 0.824725 0.448372
vt 0.864625 0.600907
vt 0.688220 0.483729
vt 0.635389 0.538939
vt 0.636349 0.481517
vt 0.681497 0.539874
vt 0.682115 0.593237
vt 0.641480 0.482696
vt 0.729069 0.536253
vt 0.724598 0.580555
vt 0.743012 0.487617
vt 0.609892 0.538062
vt 0.611391 0.488520
vt 0.521425 0.753892
vt 0.686435 0.605587
vt 0.801166 0.379908
vt 0.478288 0.420399
vt 0.478289 0.420411
vt 0.457947 0.380048
vt 0.457915 0.340889
vt 0.425715 0.378060
vt 0.425660 0.402172
vt 0.669080 0.404125
vt 0.425622 0.402581
vt 0.814295 0.976034
vt 0.986870 0.404592
vt 0.857713 0.976034
vt 0.700007 0.462131
vt 0.457991 0.337182
vt 0.478287 0.390595
vt 0.993637 0.314123
vt 0.425756 0.337252
vt 0.457914 0.402172
vt 0.623950 0.402172
vt 0.714956 0.976034
vt 0.911246 0.843293
vt 0.495917 0.905377
vt 0.495923 0.976034
vt 0.495906 0.782126
vt 0.495878 0.586246
vt 0.493577 0.488520
vt 0.493491 0.536424
vt 0.493521 0.843293
vt 0.522311 0.904892
vt 0.447573 0.588823
vt 0.456620 0.390882
vt 0.911550 0.571013
vt 0.426782 0.535549
vt 0.367264 0.883577
vt 0.477836 0.987892
vt 0.323148 0.390882
vt 0.911550 0.944406
vt 0.388562 0.266728
vt 0.911494 0.327991
vt 0.911522 0.327991
vt 0.911522 0.751708
vt 0.371564 0.671613
vt 0.372530 0.806265
vt 0.385557 0.854847
vt 0.414866 0.624485
vt 0.396035 0.823730
vt 0.314649 0.883772
vt 0.349320 0.519618
vt 0.286864 0.594548
vt 0.333273 0.912600
vt 0.291440 0.715307
vt 0.379542 0.747199
vt 0.408697 0.680243
vt 0.407531 0.793822
vt 0.420258 0.837741
vt 0.447808 0.636545
vt 0.427553 0.716848
vt 0.405215 0.289649
vt 0.820703 0.289649
vt 0.820703 0.286752
vt 0.767057 0.282216
vt 0.712174 0.282216
vt 0.712174 0.286752
vt 0.767057 0.252179
vt 0.822096 0.252179
vt 0.822096 0.252336
vt 0.768786 0.263985
vt 0.637921 0.252336
vt 0.768786 0.261474
vt 0.709346 0.291476
vt 0.859040 0.253651
vt 0.860007 0.193693
vt 0.703019 0.193693
vt 0.703019 0.190825
vt 0.824926 0.192588
vt 0.765647 0.190825
vt 0.824926 0.192588
vt 0.765647 0.171834
vt 0.698923 0.177517
vt 0.825843 0.174326
vt 0.765457 0.183755
vt 0.768225 0.177517
vt 0.825843 0.174326
vt 0.765457 0.171834
vt 0.698923 0.126787
vt 0.695728 0.127183
vt 0.759449 0.130539
vt 0.616357 0.193532
vt 0.858571 0.179520
vt 0.857353 0.064654
vt 0.703469 0.066772
vt 0.759142 0.064654
vt 0.703469 0.067718
vt 0.792241 0.066772
vt 0.759142 0.067718
vt 0.792241 0.127183
vt 0.759449 0.127768
vt 0.816579 0.127768
vt 0.816579 0.126094
vt 0.836958 0.025865
vt 0.707801 0.027560
vt 0.755461 0.027560
vt 0.755461 0.025865
vt 0.707801 0.027302
vt 0.783529 0.027302
vt 0.783529 0.025865
vt 0.707801 0.671806
vt 0.759467 0.481381
vt 0.382740 0.671663
vt 0.675826 0.671791
vt 0.585375 0.671799
vt 0.526055 0.692408
vt 0.675745 0.692655
vt 0.585315 0.692632
vt 0.525982 0.671751
vt 0.627077 0.692617
vt 0.627018 0.409238
vt 0.351098 0.362423
vt 0.862987 0.391535
vt 0.834132 0.424713
vt 0.394686 0.652252
vt 0.906063 0.679612
vt 0.907016 0.646512
vt 0.797609 0.725730
vt 0.790606 0.397745
vt 0.870924 0.481381
vt 0.305381 0.671734
vt 0.717646 0.692494
vt 0.717586 0.692800
vt 0.446880 0.692580
vt 0.759426 0.671871
vt 0.446577 0.267284
vt 0.993687 0.212502
vt 0.993711 0.212502
vt 0.993711 0.213235
vt 0.911487 0.266728
vt 0.911494 0.213235
vt 0.911487 0.067718
vt 0.808205 0.027302
vt 0.799493 0.614215
vt 0.959758 0.820736
vt 0.283527 0.633389
vt 0.932862 0.716777
vt 0.957080 0.764406
vt 0.948977 0.714417
vt 0.995857 0.776516
vt 0.984708 0.676444
vt 0.994255 0.993865
vt 0.201016 0.952458
vt 0.217801 0.684878
vt 0.956820 0.658561
vt 0.950497 0.639390
vt 0.982072 0.971048
vt 0.199068 0.913531
vt 0.208165 0.945140
vt 0.197585 0.883780
vt 0.202763 0.932255
vt 0.161508 0.902609
vt 0.171543 0.958275
vt 0.157315 0.924147
vt 0.243027 1.001991
vt 0.188766 0.999045
vt 0.175891 0.983096
vt 0.141234 0.950996
vt 0.121468 0.912006
vt 0.105839 0.880035
vt 0.116261 0.867034
vt 0.115122 0.820736
vt 0.240094 0.820075
vt 0.191812 0.888212
vt 0.244922 0.879246
vt 0.163105 0.816876
vt 0.149003 0.812132
vt 0.097684 0.374844
vt 0.004756 0.618031
vt 0.229545 0.618063
vt 0.163216 0.618179
vt 0.105416 0.618160
vt 0.043671 0.739752
vt 0.235289 0.739792
vt 0.178712 0.739841
vt 0.129198 0.496502
vt 0.018501 0.496310
vt 0.220221 0.496334
vt 0.150076 0.496516
vt 0.085040 0.739818
vt 0.073619 0.455710
vt 0.219344 0.449352
vt 0.079975 0.618031
vt 0.283528 0.374589
vt 0.283529 0.739752
vt 0.283527 0.890278
vt 0.283527 0.927230
vt 0.283527 0.496310
vt 0.283528 0.563709
vt 0.351040 0.601744
vt 0.409112 0.238848
vt 0.615977 0.180159
vt 0.616020 0.164096
vt 0.616101 0.186726
vt 0.616148 0.218261
vt 0.616181 0.208531
vt 0.460400 0.117021
vt 0.460494 0.164753
vt 0.556592 0.219785
vt 0.556593 0.125596
vt 0.556590 0.124397
vt 0.460698 0.214351
vt 0.460727 0.149676
vt 0.556589 0.219343
vt 0.556587 0.089413
vt 0.460642 0.267284
vt 0.993687 0.494232
vt 0.784275 0.326598
vt 0.993678 0.913886
vt 0.778212 0.843738
vt 0.813416 0.910978
vt 0.613038 0.917803
vt 0.699623 0.861978
vt 0.613170 0.789520
vt 0.615381 0.865591
vt 0.700613 0.520335
vt 0.844015 0.826684
vt 0.883679 0.870975
vt 0.863625 0.915729
vt 0.860111 0.915137
vt 0.904372 0.543470
vt 0.866019 0.834401
vt 0.859771 0.731262
vt 0.884994 0.601650
vt 0.612566 0.458553
vt 0.937394 0.426849
vt 0.928652 0.770809
vt 0.845115 0.783187
vt 0.803382 0.757458
vt 0.867866 0.501544
vt 0.954934 0.557238
vt 0.971643 0.836782
vt 0.971693 0.890401
vt 0.987921 0.499909
vt 0.885888 0.593019
vt 0.823056 0.801513
vt 0.687236 0.486441
vt 0.824725 0.448372
vt 0.864625 0.600907
vt 0.688220 0.483729
vt 0.635389 0.538939
vt 0.636349 0.481517
vt 0.681497 0.539874
vt 0.682115 0.593237
vt 0.641480 0.482696
vt 0.729069 0.536253
vt 0.724598 0.580555
vt 0.743012 0.487617
vt 0.609892 0.538062
vt 0.611391 0.488520
vt 0.521425 0.753892
vt 0.686435 0.605587
vt 0.801166 0.379908
vt 0.478288 0.420399
vt 0.478289 0.420411
vt 0.457947 0.380048
vt 0.457915 0.340889
vt 0.425715 0.378060
vt 0.425660 0.843293
vt 0.495917 0.905377
vt 0.495923 0.782126
vt 0.495878 0.586246
vt 0.493577 0.488520
vt 0.493491 0.536424
vt 0.493521 0.266728
vt 0.911494 0.327991
vt 0.911522 0.327991
vt 0.911522 0.751708
vt 0.371564 0.671613
vt 0.372530 0.806265
vt 0.385557 0.854847
vt 0.414866 0.624485
vt 0.396035 0.823730
vt 0.314649 0.883772
vt 0.349320 0.519618
vt 0.286864 0.594548
vt 0.333273 0.912600
vt 0.291440 0.715307
vt 0.379542 0.747199
vt 0.408697 0.680243
vt 0.407531 0.793822
vt 0.420258 0.837741
vt 0.447808 0.636545
vt 0.427553 0.716848
vt 0.405215 0.289649
vt 0.820703 0.289649
vt 0.820703 0.286752
vt 0.767057 0.282216
vt 0.712174 0.282216
vt 0.712174 0.286752
vt 0.767057 0.252179
vt 0.822096 0.252179
vt 0.822096 0.252336
vt 0.768786 0.263985
vt 0.637921 0.252336
vt 0.768786 0.261474
vt 0.709346 0.291476
vt 0.859040 0.253651
vt 0.860007 0.193693
vt 0.703019 0.193693
vt 0.703019 0.190825
vt 0.824926 0.192588
vt 0.765647 0.190825
vt 0.824926 0.192588
vt 0.765647 0.171834
vt 0.698923 0.177517
vt 0.825843 0.174326
vt 0.765457 0.183755
vt 0.768225 0.177517
vt 0.825843 0.174326
vt 0.765457 0.171834
vt 0.698923 0.126787
vt 0.695728 0.127183
vt 0.759449 0.130539
vt 0.616357 0.193532
vt 0.858571 0.179520
vt 0.857353 0.064654
vt 0.703469 0.066772
vt 0.759142 0.064654
vt 0.703469 0.067718
vt 0.792241 0.066772
vt 0.759142 0.067718
vt 0.792241 0.127183
vt 0.759449 0.127768
vt 0.816579 0.127768
vt 0.816579 0.126094
vt 0.836958 0.025865
vt 0.707801 0.027560
vt 0.755461 0.027560
vt 0.755461 0.025865
vt 0.707801 0.027302
vt 0.783529 0.027302
vt 0.783529 0.025865
vt 0.707801 0.671663
vt 0.675826 0.671791
vt 0.585375 0.671799
vt 0.526055 0.692408
vt 0.675745 0.692655
vt 0.585315 0.692632
vt 0.525982 0.671751
vt 0.627077 0.692617
vt 0.627018 0.409238
vt 0.351098 0.362423
vt 0.862987 0.424713
vt 0.394686 0.652252
vt 0.906063 0.679612
vt 0.907016 0.646512
vt 0.797609 0.725730
vt 0.790606 0.671734
vt 0.717646 0.692494
vt 0.717586 0.267284
vt 0.993687 0.212502
vt 0.993711 0.212502
vt 0.993711 0.213235
vt 0.911487 0.266728
vt 0.911494 0.213235
vt 0.911487 0.067718
vt 0.808205 0.027302
vt 0.799493 0.716777
vt 0.957080 0.764406
vt 0.948977 0.714417
vt 0.995857 0.776516
vt 0.984708 0.676444
vt 0.994255 0.993865
vt 0.201016 0.952458
vt 0.217801 0.684878
vt 0.956820 0.658561
vt 0.950497 0.639390
vt 0.982072 0.971048
vt 0.199068 0.913531
vt 0.208165 0.945140
vt 0.197585 0.883780
vt 0.202763 0.932255
vt 0.161508 0.902609
vt 0.171543 0.958275
vt 0.157315 0.924147
vt 0.243027 1.001991
vt 0.188766 0.999045
vt 0.175891 0.983096
vt 0.141234 0.950996
vt 0.121468 0.912006
vt 0.105839 0.880035
vt 0.116261 0.867034
vt 0.115122 0.820736
vt 0.240094 0.820075
vt 0.191812 0.888212
vt 0.244922 0.879246
vt 0.163105 0.816876
vt 0.149003 0.812132
vt 0.097684 0.374844
vt 0.004756 0.618031
vt 0.229545 0.618063
vt 0.163216 0.618179
vt 0.105416 0.618160
vt 0.043671 0.739752
vt 0.235289 0.739792
vt 0.178712 0.739841
vt 0.129198 0.496502
vt 0.018501 0.496310
vt 0.220221 0.496334
vt 0.150076 0.496516
vt 0.085040 0.739818
vt 0.073619 0.455710
vt 0.219344 0.449352
vt 0.079975 0.563709
vt 0.351040 0.601744
vt 0.409112 0.025624
vt 0.397257 0.078053
vt 0.011602 0.254106
vt 0.011508 0.180780
vt 0.011497 0.027919
vt 0.011543 0.127869
vt 0.011529 0.209666
vt 0.011474 0.069011
vt 0.209907 0.029107
vt 0.175935 0.260040
vt 0.177883 0.212735
vt 0.178046 0.131717
vt 0.213922 0.176243
vt 0.177264 0.100775
vt 0.185797 0.071431
vt 0.185106 0.132437
vt 0.186853 0.101164
vt 0.163299 0.130983
vt 0.164903 0.071559
vt 0.165736 0.177048
vt 0.111596 0.213778
vt 0.118427 0.252832
vt 0.118457 0.027157
vt 0.111219 0.099859
vt 0.213804 0.175436
vt 0.198422 0.214137
vt 0.196163 0.260745
vt 0.196106 0.027930
vt 0.192859 0.209340
vt 0.429252 0.249245
vt 0.440368 0.169797
vt 0.422388 0.091480
vt 0.422900 0.133223
vt 0.420221 0.170142
vt 0.394902 0.129403
vt 0.398260 0.246017
vt 0.396454 0.205866
vt 0.386875 0.315614
vt 0.320920 0.049324
vt 0.373142 0.179367
vt 0.291786 0.093802
vt 0.293103 0.054519
vt 0.290672 0.020062
vt 0.284117 0.239156
vt 0.359807 0.131524
vt 0.293396 0.275562
vt 0.288566 0.229577
vt 0.290927 0.281924
vt 0.341041 0.089978
vt 0.387127 0.296996
vt 0.363164 0.317911
vt 0.347910 0.042199
vt 0.435068 0.292315
vt 0.396674 0.282480
vt 0.445333 0.078053
vt 0.011602 0.254106
vt 0.011508 0.180780
vt 0.011497 0.027919
vt 0.011543 0.127869
vt 0.011529 0.209666
vt 0.011474 0.069011
vt 0.209907 0.029107
vt 0.175935 0.260040
vt 0.177883 0.212735
vt 0.178046 0.131717
vt 0.213922 0.176243
vt 0.177264 0.100775
vt 0.185797 0.071431
vt 0.185106 0.132437
vt 0.186853 0.101164
vt 0.163299 0.130983
vt 0.164903 0.071559
vt 0.165736 0.177048
vt 0.111596 0.213778
vt 0.118427 0.252832
vt 0.118457 0.027157
vt 0.111219 0.099859
vt 0.213804 0.175436
vt 0.198422 0.214137
vt 0.196163 0.260745
vt 0.196106 0.027930
vt 0.192859 0.209340
vt 0.429252 0.249245
vt 0.440368 0.169797
vt 0.422388 0.091480
vt 0.422900 0.133223
vt 0.420221 0.170142
vt 0.394902 0.129403
vt 0.398260 0.246017
vt 0.396454 0.205866
vt 0.386875 0.315614
vt 0.320920 0.049324
vt 0.373142 0.179367
vt 0.291786 0.093802
vt 0.293103 0.054519
vt 0.290672 0.020062
vt 0.284117 0.239156
vt 0.359807 0.131524
vt 0.293396 0.275562
vt 0.288566 0.229577
vt 0.290927 0.281924
vt 0.341041 0.089978
vt 0.387127 0.326598
vt 0.993678 0.267284
vt 0.993687 0.267284
vt 0.993687 0.212502
vt 0.993711 0.267284
vt 0.993687 0.326598
vt 0.993678 0.212502
vt 0.993711 0.212502
vt 0.993711 0.212502
vt 0.993711 0.267284
vt 0.993687 0.390595
vt 0.993637 0.326598
vt 0.993678 0.267284
vt 0.993687 0.326598
vt 0.993678 0.212502
vt 0.993711 0.267284
vt 0.993687 0.326598
vt 0.993678 0.267284
vt 0.993687 0.212502
vt 0.993711 0.212502
vt 0.993711 0.267284
vt 0.993687 0.212502
vt 0.993711 0.326598
vt 0.993678 0.390595
vt 0.993637 0.536424
vt 0.521439 0.905377
vt 0.522315 0.976034
vt 0.522305 0.266728
vt 0.911494 0.327991
vt 0.911522 0.327991
vt 0.911522 0.843293
vt 0.522311 0.782126
vt 0.522289 0.586246
vt 0.521465 0.213235
vt 0.911487 0.266728
vt 0.911494 0.213235
vt 0.911487 0.536424
vt 0.521439 0.905377
vt 0.522315 0.266728
vt 0.911494 0.327991
vt 0.911522 0.327991
vt 0.911522 0.843293
vt 0.522311 0.782126
vt 0.522289 0.586246
vt 0.521465 0.213235
vt 0.911487 0.266728
vt 0.911494 0.213235
vt 0.911487 0.100600
vt 0.011569 0.099525
vt 0.011571 0.654606
vt 0.708776 0.658855
vt 0.612617 0.858352
vt 0.919281 0.815586
vt 0.901299 0.609592
vt 0.856548 0.651177
vt 0.521514 0.811486
vt 0.954741 0.340938
vt 0.438779 0.404141
vt 0.438702 0.378087
vt 0.438730 0.314125
vt 0.438813 0.651177
vt 0.493684 0.905377
vt 0.522315 0.782126
vt 0.522289 0.586246
vt 0.521465 0.536424
vt 0.521439 0.488520
vt 0.521425 0.326598
vt 0.993678 0.390595
vt 0.993637 0.787425
vt 0.442442 0.829079
vt 0.467338 0.642786
vt 0.445661 0.600349
vt 0.473089 0.744815
vt 0.432739 0.682036
vt 0.428970 0.715720
vt 0.428856 0.870965
vt 0.494381 0.332647
vt 0.853270 0.330013
vt 0.816381 0.330013
vt 0.816381 0.324738
vt 0.761677 0.301698
vt 0.695572 0.327205
vt 0.787263 0.324738
vt 0.761677 0.309456
vt 0.708973 0.281862
vt 0.637632 0.261474
vt 0.709346 0.201202
vt 0.634289 0.182806
vt 0.632444 0.126787
vt 0.695728 0.300368
vt 0.665880 0.057491
vt 0.651225 0.016514
vt 0.664938 0.027560
vt 0.755461 0.027302
vt 0.783529 0.347754
vt 0.820019 0.355499
vt 0.842727 0.375010
vt 0.782488 0.481381
vt 0.423657 0.417093
vt 0.431208 0.712261
vt 0.927372 0.759694
vt 0.922697 0.680748
vt 0.923299 0.648116
vt 0.911948 0.310244
vt 0.556594 0.310244
vt 0.616214 0.310489
vt 0.460724 0.310489
vt 0.460370 0.310381
vt 0.556586 0.310244
vt 0.615943 0.976034
vt 0.700007 0.976034
vt 0.778060 0.976034
vt 0.612967 0.654606
vt 0.708776 0.658855
vt 0.612617 0.976034
vt 0.522305 0.858352
vt 0.919281 0.815586
vt 0.901299 0.609592
vt 0.856548 0.976034
vt 0.861693 0.976034
vt 0.911246 0.404592
vt 0.857713 0.402581
vt 0.814295 0.651177
vt 0.521514 0.811486
vt 0.954741 0.976034
vt 0.986870 0.402581
vt 0.521423 0.402172
vt 0.623950 0.402172
vt 0.714956 0.402172
vt 0.669080 0.337252
vt 0.457914 0.337182
vt 0.478287 0.462017
vt 0.478292 0.462131
vt 0.457991 0.340938
vt 0.438779 0.314123
vt 0.425756 0.404125
vt 0.425622 0.404141
vt 0.438702 0.378087
vt 0.438730 0.314125
vt 0.438813 0.976034
vt 0.495906 0.651177
vt 0.493684 0.843293
vt 0.522311 0.905377
vt 0.522315 0.782126
vt 0.522289 0.586246
vt 0.521465 0.536424
vt 0.521439 0.488520
vt 0.521425 0.326598
vt 0.993678 0.390595
vt 0.993637 0.390882
vt 0.911550 0.390882
vt 0.911550 0.390595
vt 0.993637 0.787425
vt 0.442442 0.829079
vt 0.467338 0.642786
vt 0.445661 0.600349
vt 0.473089 0.588823
vt 0.456620 0.744815
vt 0.432739 0.682036
vt 0.428970 0.715720
vt 0.428856 0.883577
vt 0.477836 0.870965
vt 0.494381 0.571013
vt 0.426782 0.535549
vt 0.367264 0.904892
vt 0.447573 0.944406
vt 0.388562 0.987892
vt 0.323148 0.332647
vt 0.853270 0.330013
vt 0.816381 0.330013
vt 0.816381 0.324738
vt 0.761677 0.301698
vt 0.695572 0.327205
vt 0.787263 0.324738
vt 0.761677 0.309456
vt 0.708973 0.281862
vt 0.637632 0.261474
vt 0.709346 0.201202
vt 0.634289 0.182806
vt 0.632444 0.126787
vt 0.695728 0.300368
vt 0.665880 0.057491
vt 0.651225 0.016514
vt 0.664938 0.027560
vt 0.755461 0.027302
vt 0.783529 0.671871
vt 0.446577 0.692800
vt 0.446880 0.481381
vt 0.382740 0.481381
vt 0.305381 0.347754
vt 0.820019 0.391535
vt 0.834132 0.355499
vt 0.842727 0.397745
vt 0.870924 0.375010
vt 0.782488 0.481381
vt 0.423657 0.417093
vt 0.431208 0.692580
vt 0.759426 0.671806
vt 0.759467 0.633389
vt 0.932862 0.614215
vt 0.959758 0.927230
vt 0.283527 0.890278
vt 0.283527 0.820736
vt 0.283527 0.739752
vt 0.283527 0.496310
vt 0.283528 0.618031
vt 0.283528 0.374589
vt 0.283529 0.712261
vt 0.927372 0.759694
vt 0.922697 0.680748
vt 0.923299 0.648116
vt 0.911948 0.301489
vt 0.175690 0.293619
vt 0.111198 0.286211
vt 0.011494 0.301652
vt 0.192902 0.016825
vt 0.354337 0.318446
vt 0.281492 0.009699
vt 0.377132 0.301489
vt 0.175690 0.293619
vt 0.111198 0.286211
vt 0.011494 0.301652
vt 0.192902 0.296996
vt 0.363164 0.317911
vt 0.347910 0.292315
vt 0.396674 0.016825
vt 0.354337 0.318446
vt 0.281492 0.042199
vt 0.435068 0.025624
vt 0.397257 0.009699
vt 0.377132 0.282480
vt 0.445333 1.000000

f 500/500 494/494 513/513
f 501/501 497/497 510/510
f 496/496 512/512 495/495
f 512/512 496/496 511/511
f 493/493 499/499 500/500
f 499/499 493/493 509/509
f 497/497 499/499 509/509
f 499/499 497/497 501/501
f 510/510 498/498 501/501
f 513/513 493/493 500/500
f 506/506 498/498 496/496
f 498/498 506/506 505/505
f 502/502 500/500 499/499
f 500/500 502/502 504/504
f 501/501 502/502 499/499
f 502/502 501/501 503/503
f 508/508 487/487 490/490
f 487/487 508/508 504/504
f 799/799 507/507 495/495
f 507/507 799/799 800/800
f 496/496 507/507 506/506
f 507/507 496/496 495/495
f 498/498 503/503 501/501
f 491/491 505/505 489/489
f 505/505 491/491 503/503
f 505/505 503/503 498/498
f 494/494 500/500 504/504
f 503/503 491/491 502/502
f 635/635 502/502 491/491
f 504/504 508/508 494/494
f 504/504 502/502 487/487
f 506/506 489/489 505/505
f 489/489 506/506 492/492
f 492/492 506/506 507/507
f 507/507 488/488 492/492
f 801/801 507/507 800/800
f 507/507 801/801 488/488
f 510/510 496/496 498/498
f 802/802 799/799 495/495
f 511/511 496/496 510/510
f 802/802 495/495 512/512
f 535/535 536/536 523/523
f 538/538 529/529 521/521
f 530/530 520/520 519/519
f 519/519 525/525 530/530
f 517/517 520/520 534/534
f 530/530 526/526 520/520
f 531/531 529/529 533/533
f 532/532 522/522 529/529
f 527/527 528/528 524/524
f 524/524 528/528 803/803
f 493/493 527/527 526/526
f 526/526 509/509 493/493
f 512/512 531/531 802/802
f 525/525 511/511 510/510
f 497/497 509/509 530/530
f 526/526 530/530 509/509
f 527/527 493/493 513/513
f 532/532 529/529 531/531
f 531/531 533/533 804/804
f 523/523 804/804 533/533
f 533/533 529/529 538/538
f 517/517 486/486 537/537
f 519/519 522/522 525/525
f 526/526 527/527 524/524
f 524/524 517/517 534/534
f 486/486 524/524 803/803
f 522/522 521/521 529/529
f 497/497 530/530 525/525
f 525/525 522/522 532/532
f 517/517 524/524 486/486
f 803/803 805/805 486/486
f 538/538 535/535 533/533
f 535/535 523/523 533/533
f 539/539 538/538 521/521
f 522/522 516/516 514/514
f 516/516 520/520 518/518
f 515/515 521/521 514/514
f 521/521 515/515 539/539
f 519/519 516/516 522/522
f 520/520 516/516 519/519
f 517/517 518/518 520/520
f 522/522 514/514 521/521
f 497/497 525/525 510/510
f 511/511 532/532 531/531
f 525/525 532/532 511/511
f 531/531 512/512 511/511
f 513/513 528/528 527/527
f 802/802 531/531 804/804
f 524/524 534/534 526/526
f 534/534 520/520 526/526
f 553/553 566/566 547/547
f 554/554 563/563 550/550
f 549/549 548/548 565/565
f 565/565 564/564 549/549
f 546/546 553/553 552/552
f 552/552 562/562 546/546
f 550/550 562/562 552/552
f 552/552 554/554 550/550
f 563/563 554/554 551/551
f 566/566 553/553 546/546
f 559/559 549/549 551/551
f 551/551 558/558 559/559
f 555/555 552/552 553/553
f 553/553 557/557 555/555
f 554/554 552/552 555/555
f 555/555 556/556 554/554
f 561/561 543/543 540/540
f 540/540 557/557 561/561
f 806/806 548/548 560/560
f 560/560 807/807 806/806
f 549/549 559/559 560/560
f 560/560 548/548 549/549
f 551/551 554/554 556/556
f 544/544 542/542 558/558
f 558/558 556/556 544/544
f 558/558 551/551 556/556
f 547/547 557/557 553/553
f 556/556 555/555 544/544
f 540/540 636/636 555/555
f 557/557 547/547 561/561
f 557/557 540/540 555/555
f 559/559 558/558 542/542
f 542/542 545/545 559/559
f 545/545 560/560 559/559
f 560/560 545/545 541/541
f 808/808 807/807 560/560
f 560/560 541/541 808/808
f 563/563 551/551 549/549
f 809/809 548/548 806/806
f 564/564 563/563 549/549
f 809/809 565/565 548/548
f 810/810 576/576 811/811
f 812/812 574/574 582/582
f 583/583 572/572 573/573
f 572/572 583/583 578/578
f 570/570 587/587 573/573
f 583/583 573/573 579/579
f 584/584 586/586 582/582
f 585/585 582/582 575/575
f 580/580 577/577 581/581
f 577/577 813/813 581/581
f 546/546 579/579 580/580
f 579/579 546/546 562/562
f 565/565 809/809 584/584
f 578/578 563/563 564/564
f 550/550 583/583 562/562
f 579/579 562/562 583/583
f 580/580 566/566 546/546
f 585/585 584/584 582/582
f 584/584 814/814 586/586
f 576/576 586/586 814/814
f 586/586 812/812 582/582
f 570/570 815/815 816/816
f 572/572 578/578 575/575
f 579/579 577/577 580/580
f 577/577 587/587 570/570
f 816/816 813/813 577/577
f 575/575 582/582 574/574
f 550/550 578/578 583/583
f 578/578 585/585 575/575
f 570/570 816/816 577/577
f 813/813 816/816 817/817
f 812/812 586/586 810/810
f 810/810 586/586 576/576
f 818/818 574/574 812/812
f 575/575 567/567 569/569
f 569/569 571/571 573/573
f 568/568 567/567 574/574
f 574/574 818/818 568/568
f 572/572 575/575 569/569
f 573/573 572/572 569/569
f 570/570 573/573 571/571
f 575/575 574/574 567/567
f 550/550 563/563 578/578
f 564/564 584/584 585/585
f 578/578 564/564 585/585
f 584/584 564/564 565/565
f 566/566 580/580 581/581
f 809/809 814/814 584/584
f 577/577 579/579 587/587
f 587/587 579/579 573/573
f 502/502 635/635 487/487
f 555/555 636/636 544/544
f 111/111 589/589 615/615
f 29/29 112/112 654/654
f 654/654 113/113 590/590
f 208/208 591/591 621/621
f 205/205 615/615 592/592
f 617/617 593/593 113/113
f 27/27 209/209 594/594
f 210/210 595/595 623/623
f 206/206 621/621 596/596
f 622/622 597/597 209/209
f 207/207 623/623 598/598
f 616/616 599/599 112/112
f 88/88 104/104 656/656
f 656/656 657/657 658/658
f 658/658 129/129 660/660
f 660/660 656/656 661/661
f 661/661 126/126 660/660
f 660/660 125/125 661/661
f 661/661 662/662 657/657
f 657/657 663/663 117/117
f 117/117 120/120 105/105
f 268/268 106/106 116/116
f 119/119 114/114 102/102
f 102/102 110/110 120/120
f 123/123 119/119 106/106
f 268/268 121/121 110/110
f 110/110 108/108 115/115
f 122/122 118/118 127/127
f 127/127 128/128 105/105
f 103/103 269/269 114/114
f 114/114 125/125 118/118
f 118/118 129/129 124/124
f 124/124 130/130 126/126
f 126/126 130/130 128/128
f 128/128 107/107 664/664
f 132/132 143/143 131/131
f 665/665 664/664 132/132
f 664/664 666/666 667/667
f 133/133 666/666 132/132
f 133/133 667/667 131/131
f 671/671 670/670 664/664
f 143/143 131/131 137/137
f 131/131 144/144 133/133
f 132/132 133/133 672/672
f 134/134 140/140 142/142
f 140/140 134/134 131/131
f 136/136 131/131 135/135
f 133/133 135/135 136/136
f 134/134 136/136 132/132
f 131/131 143/143 144/144
f 143/143 132/132 673/673
f 139/139 673/673 674/674
f 140/140 146/146 142/142
f 146/146 140/140 138/138
f 147/147 144/144 141/141
f 148/148 141/141 139/139
f 138/138 139/139 146/146
f 148/148 146/146 159/159
f 153/153 151/151 146/146
f 157/157 675/675 172/172
f 162/162 171/171 161/161
f 152/152 162/162 157/157
f 146/146 148/148 149/149
f 155/155 148/148 153/153
f 159/159 171/171 151/151
f 153/153 154/154 146/146
f 675/675 674/674 161/161
f 147/147 152/152 154/154
f 152/152 147/147 154/154
f 145/145 151/151 147/147
f 153/153 152/152 154/154
f 150/150 145/145 156/156
f 157/157 156/156 169/169
f 169/169 158/158 155/155
f 170/170 169/169 171/171
f 152/152 153/153 171/171
f 162/162 152/152 160/160
f 675/675 157/157 151/151
f 676/676 159/159 149/149
f 147/147 161/161 144/144
f 162/162 155/155 170/170
f 155/155 162/162 170/170
f 162/162 172/172 672/672
f 671/671 134/134 676/676
f 163/163 164/164 678/678
f 160/160 158/158 169/169
f 169/169 170/170 166/166
f 171/171 159/159 170/170
f 168/168 167/167 166/166
f 211/211 172/172 158/158
f 158/158 169/169 166/166
f 172/172 171/171 159/159
f 159/159 676/676 168/168
f 170/170 172/172 174/174
f 164/164 173/173 163/163
f 173/173 164/164 176/176
f 165/165 175/175 167/167
f 167/167 177/177 168/168
f 177/177 167/167 178/178
f 178/178 212/212 679/679
f 678/678 176/176 165/165
f 176/176 678/678 178/178
f 166/166 174/174 164/164
f 174/174 166/166 173/173
f 179/179 174/174 175/175
f 680/680 176/176 177/177
f 681/681 175/175 178/178
f 681/681 212/212 176/176
f 179/179 679/679 174/174
f 680/680 178/178 669/669
f 665/665 131/131 185/185
f 182/182 185/185 186/186
f 183/183 186/186 187/187
f 184/184 187/187 183/183
f 186/186 183/183 182/182
f 185/185 182/182 190/190
f 193/193 190/190 682/682
f 683/683 192/192 191/191
f 198/198 192/192 684/684
f 682/682 192/192 685/685
f 181/181 685/685 683/683
f 191/191 192/192 194/194
f 195/195 194/194 200/200
f 201/201 200/200 172/172
f 168/168 211/211 212/212
f 681/681 177/177 218/218
f 219/219 218/218 220/220
f 218/218 220/220 225/225
f 224/224 225/225 221/221
f 222/222 226/226 228/228
f 226/226 222/222 233/233
f 228/228 222/222 230/230
f 230/230 232/232 244/244
f 231/231 227/227 266/266
f 265/265 243/243 226/226
f 228/228 232/232 243/243
f 233/233 266/266 227/227
f 231/231 228/228 238/238
f 237/237 232/232 221/221
f 234/234 226/226 235/235
f 232/232 237/237 238/238
f 239/239 238/238 231/231
f 239/239 231/231 232/232
f 230/230 238/238 245/245
f 242/242 245/245 243/243
f 229/229 243/243 214/214
f 265/265 214/214 246/246
f 245/245 246/246 214/214
f 241/241 214/214 245/245
f 254/254 245/245 241/241
f 242/242 241/241 246/246
f 259/259 246/246 267/267
f 262/262 267/267 257/257
f 249/249 257/257 248/248
f 249/249 248/248 258/258
f 250/250 258/258 262/262
f 264/264 262/262 249/249
f 253/253 249/249 252/252
f 253/253 252/252 250/250
f 254/254 250/250 257/257
f 258/258 261/261 257/257
f 256/256 260/260 263/263
f 267/267 263/263 227/227
f 229/229 244/244 687/687
f 688/688 216/216 217/217
f 216/216 688/688 689/689
f 687/687 223/223 216/216
f 689/689 224/224 121/121
f 105/105 269/269 268/268
f 118/118 122/122 268/268
f 103/103 129/129 269/269
f 129/129 118/118 601/601
f 600/600 344/344 626/626
f 627/627 287/287 735/735
f 628/628 735/735 603/603
f 602/602 433/433 632/632
f 626/626 430/430 605/605
f 604/604 346/346 628/628
f 633/633 285/285 607/607
f 606/606 435/435 634/634
f 632/632 431/431 609/609
f 608/608 434/434 633/633
f 634/634 432/432 611/611
f 610/610 345/345 627/627
f 738/738 739/739 740/740
f 741/741 740/740 742/742
f 362/362 742/742 745/745
f 740/740 745/745 746/746
f 359/359 746/746 745/745
f 358/358 745/745 746/746
f 747/747 746/746 741/741
f 749/749 741/741 350/350
f 353/353 350/350 750/750
f 751/751 484/484 349/349
f 347/347 352/352 752/752
f 753/753 752/752 353/353
f 352/352 356/356 751/751
f 354/354 484/484 753/753
f 754/754 753/753 348/348
f 351/351 355/355 360/360
f 361/361 360/360 750/750
f 485/485 744/744 347/347
f 358/358 347/347 351/351
f 362/362 351/351 357/357
f 363/363 357/357 359/359
f 363/363 359/359 361/361
f 748/748 361/361 755/755
f 376/376 365/365 364/364
f 755/755 756/756 365/365
f 757/757 755/755 758/758
f 757/757 366/366 365/365
f 758/758 366/366 364/364
f 761/761 762/762 755/755
f 364/364 376/376 370/370
f 377/377 364/364 366/366
f 366/366 365/365 763/763
f 373/373 367/367 375/375
f 367/367 373/373 364/364
f 364/364 369/369 368/368
f 368/368 366/366 369/369
f 369/369 367/367 365/365
f 376/376 364/364 377/377
f 365/365 376/376 764/764
f 764/764 372/372 765/765
f 379/379 373/373 375/375
f 373/373 379/379 371/371
f 377/377 380/380 374/374
f 374/374 381/381 372/372
f 372/372 371/371 379/379
f 379/379 381/381 392/392
f 384/384 386/386 379/379
f 766/766 390/390 405/405
f 404/404 395/395 394/394
f 395/395 385/385 390/390
f 381/381 379/379 382/382
f 381/381 388/388 386/386
f 404/404 392/392 384/384
f 387/387 386/386 379/379
f 765/765 766/766 394/394
f 385/385 380/380 387/387
f 380/380 385/385 387/387
f 384/384 378/378 380/380
f 385/385 386/386 387/387
f 378/378 383/383 389/389
f 389/389 390/390 402/402
f 391/391 402/402 388/388
f 402/402 403/403 404/404
f 386/386 385/385 404/404
f 385/385 395/395 393/393
f 390/390 766/766 384/384
f 392/392 767/767 382/382
f 394/394 380/380 377/377
f 388/388 395/395 403/403
f 395/395 388/388 403/403
f 405/405 395/395 763/763
f 367/367 762/762 767/767
f 397/397 396/396 769/769
f 391/391 393/393 402/402
f 403/403 402/402 399/399
f 392/392 404/404 403/403
f 400/400 401/401 399/399
f 405/405 436/436 391/391
f 402/402 391/391 399/399
f 404/404 405/405 392/392
f 767/767 392/392 401/401
f 405/405 403/403 407/407
f 406/406 397/397 396/396
f 397/397 406/406 409/409
f 408/408 398/398 400/400
f 410/410 400/400 401/401
f 400/400 410/410 411/411
f 437/437 411/411 770/770
f 409/409 769/769 398/398
f 769/769 409/409 411/411
f 407/407 399/399 397/397
f 399/399 407/407 406/406
f 407/407 412/412 408/408
f 409/409 771/771 410/410
f 408/408 772/772 411/411
f 437/437 772/772 409/409
f 770/770 412/412 407/407
f 411/411 771/771 760/760
f 364/364 756/756 416/416
f 416/416 413/413 417/417
f 417/417 414/414 418/418
f 418/418 415/415 414/414
f 414/414 417/417 413/413
f 413/413 416/416 421/421
f 421/421 423/423 777/777
f 778/778 779/779 422/422
f 778/778 780/780 781/781
f 778/778 777/777 782/782
f 782/782 775/775 779/779
f 778/778 422/422 424/424
f 424/424 425/425 428/428
f 428/428 429/429 405/405
f 436/436 401/401 437/437
f 410/410 772/772 440/440
f 440/440 441/441 442/442
f 442/442 440/440 447/447
f 447/447 446/446 443/443
f 448/448 444/444 450/450
f 444/444 448/448 455/455
f 444/444 450/450 452/452
f 454/454 452/452 466/466
f 449/449 453/453 788/788
f 465/465 789/789 448/448
f 454/454 450/450 465/465
f 788/788 455/455 449/449
f 450/450 453/453 460/460
f 454/454 459/459 443/443
f 448/448 456/456 457/457
f 459/459 454/454 460/460
f 460/460 461/461 453/453
f 453/453 461/461 454/454
f 460/460 452/452 467/467
f 467/467 464/464 465/465
f 465/465 451/451 790/790
f 790/790 789/789 468/468
f 468/468 467/467 790/790
f 790/790 463/463 467/467
f 467/467 476/476 463/463
f 463/463 464/464 468/468
f 468/468 481/481 792/792
f 792/792 793/793 479/479
f 479/479 471/471 470/470
f 470/470 471/471 480/480
f 480/480 472/472 793/793
f 793/793 791/791 471/471
f 471/471 475/475 474/474
f 474/474 475/475 472/472
f 472/472 476/476 479/479
f 483/483 480/480 479/479
f 482/482 478/478 794/794
f 794/794 792/792 449/449
f 466/466 451/451 795/795
f 438/438 796/796 439/439
f 796/796 438/438 797/797
f 445/445 795/795 438/438
f 446/446 797/797 354/354
f 485/485 750/750 484/484
f 355/355 351/351 484/484
f 362/362 744/744 485/485
