# MOD converted: e_m_hair011.mod
# 319 verts, 113 faces

v 164.083374 12.126918 -13.947974
v 166.711533 25.832684 -19.223783
v 155.583817 25.976620 -23.684269
v 154.069794 18.701242 -20.833092
v 144.177505 24.986441 -19.974819
v 166.884460 20.044754 -7.582769
v 162.457077 -15.002419 -8.812990
v 168.909027 -13.157658 -16.014067
v 173.834335 -1.361047 -13.424994
v 174.326355 15.065086 -0.000002
v 177.036758 14.391663 -4.318160
v 176.726395 13.754752 -11.973005
v 176.957932 7.355130 -15.584533
v 173.469971 -6.909898 -0.000002
v 170.838776 34.929451 -17.712263
v 156.700668 -8.853332 -13.670679
v 160.286026 -13.078215 -18.038668
v 169.294662 -7.984905 -20.400057
v 171.881500 1.197155 -24.909893
v 155.372696 13.594928 -14.933517
v 155.682190 27.235123 0.000001
v 156.226181 30.945953 -20.322281
v 136.135742 14.061331 -13.894017
v 137.686356 21.361465 -0.000001
v 136.760544 26.590969 -24.225536
v 154.756546 3.775895 -17.075216
v 141.786484 5.783246 -18.252293
v 147.031647 1.372374 -22.639576
v 145.522995 14.872612 -14.587166
v 144.435593 24.248743 -0.000001
v 143.169662 28.346294 -0.000001
v 133.224564 6.930802 -10.469412
v 135.486557 6.711075 -17.001011
v 125.217880 12.873183 -0.000001
v 125.332390 11.696133 -0.000002
v 134.040573 21.468372 -9.125476
v 133.150024 18.622631 -24.387756
v 162.400146 1.776814 -17.822573
v 173.271378 9.877651 -0.000004
v 167.769516 28.916328 -0.000001
v 129.424362 15.673775 -26.439751
v 161.238281 -2.325650 -27.005308
v 151.123215 -1.554590 -22.374882
v 148.347778 5.622515 -9.300117
v 128.508224 12.305348 -21.125492
v 170.844879 -4.297876 -30.132542
v 155.259857 8.522865 -27.287533
v 164.391037 6.313091 -22.518969
v 156.823639 -3.656808 -18.457378
v 146.678055 -3.670521 -17.170019
v 139.045013 -3.681089 -19.372004
v 138.432434 0.086257 -15.526612
v 132.785599 -4.922695 -21.590118
v 146.257339 -2.050406 -19.666431
v 138.337906 -2.859245 -21.833174
v 143.606735 -0.646767 -22.674219
v 141.644867 1.674880 -20.011076
v 135.019012 -0.818024 -14.847684
v 165.788864 -14.976171 -17.074007
v 157.790588 -14.147061 -18.058716
v 137.714920 -5.890185 -16.412365
v 170.741180 -13.846760 -19.161005
v 158.513596 -8.223966 -22.022171
v 160.296204 -7.877313 -20.527023
v 158.113190 -10.149864 -23.462111
v 149.885162 -5.606971 -19.149439
v 154.023483 -10.829688 -18.047905
v 166.449478 -11.407129 -19.820354
v 146.947571 -8.449363 -20.516495
v 146.486404 -5.616224 -13.894018
v 126.278572 20.957863 -0.000002
v 128.669205 27.021685 -5.938450
v 176.172150 19.405663 -0.000002
v 177.787979 22.003382 -8.600432
v 167.296783 29.056190 -9.308221
v 152.545837 32.728622 7.582784
v 162.457077 -15.002415 8.812997
v 168.909042 -13.157652 -1.380523
v 173.384644 -16.295490 9.730720
v 175.360123 -0.091853 0.000047
v 162.126617 -16.130951 -4.191470
v 188.992340 10.042950 4.318156
v 176.726364 13.754761 -14.508167
v 188.084793 -1.247939 -21.272778
v 184.742111 14.281549 -12.221840
v 177.846466 -0.395840 9.470226
v 176.957916 7.355139 4.957987
v 168.011078 -20.477592 -1.826006
v 167.241974 -20.431192 8.037837
v 170.868240 -15.641305 5.766245
v 162.111847 -17.746796 -16.845396
v 159.885178 -15.103254 -9.717695
v 164.585327 -18.276340 -13.639870
v 167.968613 -19.326395 -4.693001
v 168.430359 -23.067608 -12.752833
v 185.262054 -17.469606 -18.258375
v 178.931824 -18.842747 -5.016643
v 174.323685 -19.592339 -10.604775
v 172.468765 -21.153904 -10.084836
v 172.393127 -19.143061 -8.828620
v 171.356476 -17.820507 -6.758142
v 166.160019 -20.167826 -0.953638
v 181.002289 -16.262428 -9.626151
v 176.240540 -14.428736 -4.171142
v 162.794952 -17.098042 -8.331839
v 165.723511 -15.307468 -15.823535
v 165.731659 -17.361132 -20.984571
v 160.164124 -15.906181 -21.254274
v 157.392487 -13.561450 -23.972353
v 153.706451 -9.332848 -22.040186
v 160.159775 -13.293779 -2.251400
v 183.235657 -20.639593 7.927837
v 175.840927 -10.160303 2.605807
v 181.288544 -11.797104 -4.841092
v 174.214905 -11.865234 -9.061568
v 189.739166 -9.153683 -13.635019
v 170.263000 -18.335281 -21.791979
v 164.517990 -14.130388 -21.786140
v 167.781281 -15.942413 -24.133551
v 164.072342 -8.911888 -20.585505
v 168.731445 -12.885111 9.759524
v 173.545929 -7.084854 7.081575
v 178.428650 2.575302 -20.227102
v 174.001099 -10.328686 -27.116261
v 167.174515 -5.547707 -0.548020
v 178.632278 3.056399 0.910729
v 187.745331 -4.469655 8.377909
v 180.067886 -2.730554 -0.012575
v 179.924911 -7.088875 0.487294
v 174.031296 -22.291904 3.218156
v 175.364578 -20.457951 -8.387757
v 175.413086 -22.091528 -13.510612
v 171.707993 -22.337923 -10.010090
v 166.618988 -22.140455 -7.171063
v 162.045502 -18.738285 -2.270391
v 162.202896 -19.466242 0.759618
v 162.961273 -17.707531 -12.217324
v 178.423935 -7.617229 -24.639154
v 182.683502 0.291599 8.791187
v 163.432098 -15.491650 -9.449883
v 178.011902 15.450909 -23.281214
v 165.266052 18.086948 -17.727915
v 174.952606 11.860034 -19.686543
v 177.788483 4.179328 -25.731138
v 170.448395 8.019331 -13.848834
v 173.089966 25.366165 -6.127405
v 176.172165 20.205784 23.391987
v 164.083420 12.126918 13.947964
v 166.711533 25.832680 19.223782
v 155.583801 25.976622 23.684267
v 154.069824 18.701239 20.833088
v 144.177521 24.986433 19.974815
v 166.884506 20.044756 13.424987
v 174.326355 15.065096 9.646985
v 178.739090 14.657230 17.712259
v 156.700684 -8.853344 13.670678
v 160.286057 -13.078215 18.038673
v 169.294693 -7.984904 20.400064
v 171.099854 -0.082079 24.909889
v 155.372726 13.594930 14.933514
v 155.682175 27.235128 20.322287
v 136.135757 14.061330 13.894011
v 137.686386 21.361465 24.225536
v 154.756592 3.775899 17.075220
v 141.786499 5.783242 18.252293
v 147.031677 1.372369 22.639572
v 145.523026 14.872613 14.587165
v 144.435608 24.248741 10.469413
v 135.486542 6.711076 17.001003
v 125.217903 12.873186 9.125471
v 133.150024 18.622635 24.387756
v 162.400177 1.776810 17.822577
v 172.613831 9.877653 23.281212
v 167.439651 18.086969 25.934441
v 160.130722 -2.308481 27.005306
v 151.123245 -1.554601 22.374886
v 148.347809 5.622514 9.300112
v 128.508224 12.305349 11.988624
v 180.260864 4.146295 14.815159
v 179.150696 1.726882 14.938824
v 178.970001 6.158193 21.351603
v 181.921936 5.778123 21.125494
v 170.844910 -4.297873 13.944298
v 175.079132 -4.604563 30.132540
v 155.259918 8.522856 27.287539
v 164.391083 6.313081 16.209616
v 177.043839 11.860044 22.518974
v 156.823669 -3.656811 18.457382
v 146.678101 -3.670522 17.170013
v 139.045044 -3.681094 19.372011
v 138.432465 0.086285 15.526615
v 132.785614 -4.922694 21.590118
v 146.257370 -2.050409 19.666435
v 138.337936 -2.859247 21.833174
v 143.606766 -0.646776 22.674221
v 141.644897 1.674900 20.011078
v 135.019012 -0.818023 13.814157
v 163.278854 -15.973759 15.048705
v 163.805481 -12.267471 11.266602
v 159.121826 -16.569019 18.058714
v 137.714951 -5.544483 12.711642
v 170.704712 -12.895585 20.507622
v 151.763580 -5.979651 22.022171
v 159.068390 -6.733032 20.527020
v 156.885422 -9.005595 22.339903
v 149.885223 -6.793476 14.464861
v 156.920288 -15.371368 17.753565
v 151.409714 -10.141185 18.047911
v 166.449509 -11.407127 17.854406
v 145.476181 -7.296736 19.331230
v 145.015030 -4.653265 13.894014
v 126.278587 20.957861 19.424026
v 177.126282 6.933248 20.380320
v 174.482452 0.922147 29.531462
v 168.547028 5.620993 13.421538
v 173.359207 23.243170 5.938442
v 176.172150 19.405664 8.600422
v 167.296783 29.056192 9.308217
v 152.545837 32.728630 -24.225536
v 154.756546 3.775895 -13.894017
v 137.686356 21.361465 -20.322281
v 136.135742 14.061331 -23.391993
v 164.083374 12.126918 -17.075216
v 141.786484 5.783246 -13.947974
v 166.711533 25.832684 -23.391993
v 164.083374 12.126918 -24.387756
v 162.400146 1.776814 -18.038668
v 169.294662 -7.984905 -24.387756
v 162.400146 1.776814 -17.822573
v 173.271378 9.877651 -24.225536
v 154.756546 3.775895 -18.252293
v 147.031647 1.372374 -7.582769
v 162.457077 -15.002419 -0.000002
v 134.040573 21.468372 -0.000001
v 136.760544 26.590969 -5.938450
v 176.172150 19.405663 -0.000002
v 177.787979 22.003382 -0.000004
v 167.769516 28.916328 -8.812990
v 168.909027 -13.157658 -0.000002
v 177.036758 14.391663 -0.548020
v 178.632278 3.056399 -4.318160
v 176.726395 13.754752 -0.000002
v 177.036758 14.391663 -15.584533
v 173.469971 -6.909898 -15.584533
v 173.469971 -6.909898 -12.221840
v 177.846466 -0.395840 -11.973005
v 176.957932 7.355130 -4.318160
v 176.726395 13.754752 -11.973005
v 176.957932 7.355130 8.037837
v 170.868240 -15.641305 -8.828620
v 171.356476 -17.820507 -1.380523
v 173.384644 -16.295490 -5.016643
v 174.323685 -19.592339 -10.084836
v 172.393127 -19.143061 -1.380523
v 173.384644 -16.295490 -8.828620
v 171.356476 -17.820507 -1.380523
v 173.384644 -16.295490 -4.841092
v 174.214905 -11.865234 -4.841092
v 174.214905 -11.865234 -7.582769
v 162.457077 -15.002419 -7.582769
v 162.457077 -15.002419 -8.331839
v 165.723511 -15.307468 -14.847684
v 165.788864 -14.976171 -21.254274
v 157.392487 -13.561450 -22.040186
v 160.159775 -13.293779 -14.847684
v 165.788864 -14.976171 -16.845396
v 159.885178 -15.103254 -23.972353
v 153.706451 -9.332848 3.218156
v 175.364578 -20.457951 -4.841092
v 174.214905 -11.865234 -0.012575
v 179.924911 -7.088875 -4.841092
v 174.214905 -11.865234 -16.412365
v 170.741180 -13.846760 -14.847684
v 165.788864 -14.976171 -21.791979
v 164.517990 -14.130388 -20.585505
v 168.731445 -12.885111 -16.412365
v 170.741180 -13.846760 -24.133551
v 164.072342 -8.911888 -0.548020
v 178.632278 3.056399 -16.014067
v 173.834335 -1.361047 -12.221840
v 177.846466 -0.395840 -0.012575
v 179.924911 -7.088875 8.037837
v 170.868240 -15.641305 -16.014067
v 173.834335 -1.361047 8.812997
v 168.909042 -13.157652 -13.424994
v 174.326355 15.065086 -11.973005
v 176.957932 7.355130 -4.318160
v 176.726395 13.754752 -17.822573
v 173.271378 9.877651 -11.973005
v 176.957932 7.355130 9.470226
v 176.957916 7.355139 4.318156
v 176.726364 13.754761 24.225536
v 154.756592 3.775899 13.894011
v 137.686386 21.361465 20.322287
v 136.135757 14.061330 23.391987
v 164.083420 12.126918 17.075220
v 141.786499 5.783242 9.470226
v 176.957916 7.355139 9.730720
v 175.360123 -0.091853 13.424987
v 174.326355 15.065096 13.947964
v 166.711533 25.832680 17.822577
v 172.613831 9.877653 24.387756
v 162.400177 1.776810 18.038673
v 169.294693 -7.984904 8.791187
v 163.432098 -15.491650 7.582784
v 162.457077 -15.002415 9.470226
v 176.957916 7.355139 9.730720
v 175.360123 -0.091853 9.759524
v 173.545929 -7.084854 24.387756
v 162.400177 1.776810 18.252293
v 147.031677 1.372369 24.225536
v 154.756592 3.775899 8.812997
v 168.909042 -13.157652 8.791187
v 163.432098 -15.491650 9.730720
v 175.360123 -0.091853 9.470226
v 176.957916 7.355139 5.938442
v 176.172150 19.405664 13.424987
v 174.326355 15.065096 13.424987
v 174.326355 15.065096 0.426948

vt 0.524337 0.473665
vt 0.442535 0.445057
vt 0.531686 0.495446
vt 0.573753 0.414294
vt 0.611563 0.522429
vt 0.479975 0.835588
vt 0.987584 0.531062
vt 0.232483 0.485049
vt 0.109317 0.567356
vt 0.415045 0.609149
vt 0.358860 0.645176
vt 0.344088 0.510763
vt 0.034001 0.496924
vt 0.153504 0.527081
vt 0.178702 0.821854
vt 0.859210 0.819813
vt 0.933553 0.917792
vt 0.920320 0.442965
vt 0.094434 0.711606
vt 0.910856 0.590273
vt 0.908178 0.478574
vt 0.898984 0.697627
vt 0.767026 0.621652
vt 0.769389 0.511053
vt 0.753481 0.781999
vt 0.908453 0.772113
vt 0.795765 0.806378
vt 0.836476 0.699299
vt 0.836970 0.608598
vt 0.824984 0.500366
vt 0.800292 0.860478
vt 0.382029 0.911698
vt 0.353207 0.945363
vt 0.399832 0.869939
vt 0.430775 0.914733
vt 0.487861 0.943759
vt 0.447900 0.993170
vt 0.828351 0.453794
vt 0.022897 0.433792
vt 0.342692 0.890084
vt 0.454839 0.360817
vt 0.148495 0.293910
vt 0.186926 0.767559
vt 0.858564 0.916527
vt 0.408531 0.443822
vt 0.136529 0.285124
vt 0.060650 0.359747
vt 0.068061 0.877477
vt 0.812491 0.792235
vt 0.765952 0.750367
vt 0.721603 0.759376
vt 0.665362 0.701001
vt 0.696034 0.841573
vt 0.728890 0.764727
vt 0.699995 0.870290
vt 0.677469 0.936246
vt 0.695156 0.936119
vt 0.599820 0.471896
vt 0.241227 0.439218
vt 0.298309 0.341016
vt 0.437006 0.483216
vt 0.206279 0.394031
vt 0.279496 0.386405
vt 0.201781 0.385143
vt 0.230331 0.307724
vt 0.230740 0.403722
vt 0.319132 0.448732
vt 0.206930 0.372041
vt 0.367655 0.349212
vt 0.365987 0.669436
vt 0.685500 0.514525
vt 0.694052 0.632960
vt 0.292337 0.574032
vt 0.300537 0.450742
vt 0.403056 0.350464
vt 0.450331 0.325179
vt 0.394735 0.758502
vt 0.019472 0.643651
vt 0.011782 0.814121
vt 0.124684 0.300999
vt 0.487775 0.878974
vt 0.298307 0.938946
vt 0.163076 0.320901
vt 0.778565 0.268577
vt 0.979194 0.326388
vt 0.866752 0.870633
vt 0.141683 0.220018
vt 0.418064 0.200325
vt 0.508553 0.220695
vt 0.339158 0.295021
vt 0.419690 0.192838
vt 0.317157 0.299077
vt 0.614093 0.276058
vt 0.669890 0.196118
vt 0.565524 0.005763
vt 0.701804 0.246569
vt 0.807041 0.122057
vt 0.580599 0.182347
vt 0.679750 0.332249
vt 0.706928 0.262484
vt 0.174295 0.239308
vt 0.588777 0.636237
vt 0.074511 0.241241
vt 0.114762 0.292726
vt 0.539401 0.275711
vt 0.239923 0.192120
vt 0.244216 0.151086
vt 0.319325 0.140805
vt 0.353706 0.082636
vt 0.394341 0.121524
vt 0.319603 0.017330
vt 0.418551 0.734996
vt 0.083399 0.670908
vt 0.102251 0.031361
vt 0.990290 0.558385
vt 0.160855 0.212068
vt 0.192379 0.114430
vt 0.256602 0.128725
vt 0.223864 0.048408
vt 0.250271 0.110276
vt 0.196798 0.772800
vt 0.081488 0.826657
vt 0.167781 0.125647
vt 0.107208 0.015364
vt 0.101706 0.807929
vt 0.234414 0.707705
vt 0.211555 0.776580
vt 0.147926 0.678323
vt 0.147560 0.132987
vt 0.438208 0.128794
vt 0.398444 0.135647
vt 0.642507 0.224549
vt 0.696842 0.244355
vt 0.630080 0.290946
vt 0.574789 0.266768
vt 0.518282 0.275744
vt 0.480324 0.088675
vt 0.947902 0.184352
vt 0.883238 0.308166
vt 0.374594 0.841031
vt 0.069983 0.982089
vt 0.056953 0.895244
vt 0.023898 0.042343
vt 0.845217 0.013436
vt 0.778018 0.898757
vt 0.135421 0.828728
vt 0.112447 0.573052
vt 0.524337 0.473665
vt 0.442535 0.445057
vt 0.531686 0.495446
vt 0.573753 0.414294
vt 0.611563 0.522429
vt 0.479975 0.733948
vt 0.296231 0.686110
vt 0.314517 0.821854
vt 0.859210 0.819813
vt 0.933553 0.917792
vt 0.920320 0.671474
vt 0.476165 0.711606
vt 0.910856 0.590273
vt 0.908178 0.697627
vt 0.767026 0.621652
vt 0.769389 0.781999
vt 0.908453 0.772113
vt 0.795765 0.806378
vt 0.836476 0.699299
vt 0.836970 0.608598
vt 0.824984 0.911698
vt 0.353207 0.945363
vt 0.399832 0.943759
vt 0.447900 0.993170
vt 0.828351 0.798593
vt 0.355916 0.823024
vt 0.267666 0.701025
vt 0.563059 0.719499
vt 0.626101 0.767559
vt 0.858564 0.916527
vt 0.408531 0.062130
vt 0.308660 0.094154
vt 0.331398 0.074034
vt 0.272218 0.150961
vt 0.262380 0.701357
vt 0.478394 0.703394
vt 0.420928 0.599823
vt 0.610037 0.622012
vt 0.543253 0.764434
vt 0.327639 0.877477
vt 0.812491 0.792235
vt 0.765952 0.750367
vt 0.721603 0.759376
vt 0.665362 0.701001
vt 0.696034 0.841573
vt 0.728890 0.764727
vt 0.699995 0.870290
vt 0.677469 0.936246
vt 0.695156 0.936119
vt 0.599820 0.823716
vt 0.443699 0.803670
vt 0.464941 0.857662
vt 0.432708 0.980231
vt 0.575022 0.767727
vt 0.425143 0.875925
vt 0.553146 0.778938
vt 0.541620 0.805861
vt 0.538328 0.825520
vt 0.591039 0.866663
vt 0.462540 0.890741
vt 0.518964 0.771801
vt 0.472422 0.927621
vt 0.549082 0.924954
vt 0.571307 0.669436
vt 0.685500 0.092631
vt 0.007883 0.110847
vt 0.061256 0.204686
vt 0.024084 0.682397
vt 0.231966 0.632960
vt 0.292337 0.450742
vt 0.403056 0.350464
vt 0.450331 0.943692
vt 0.769469 0.981325
vt 0.448777 0.989764
vt 0.392525 0.714539
vt 0.975453 0.970669
vt 0.321708 0.586095
vt 0.990332 0.366242
vt 0.014864 0.360222
vt 0.112505 0.458762
vt 0.170555 0.793051
vt 0.966748 0.599849
vt 0.451261 0.868060
vt 0.671120 0.831596
vt 0.670683 0.519158
vt 0.283826 0.582310
vt 0.657925 0.530283
vt 0.691406 0.536683
vt 0.358688 0.518916
vt 0.312498 0.475288
vt 0.990810 0.917792
vt 0.920320 0.962855
vt 0.193065 0.428207
vt 0.877645 0.429966
vt 0.974175 0.465815
vt 0.966180 0.122373
vt 0.978246 0.153146
vt 0.053752 0.081592
vt 0.893357 0.013369
vt 0.897280 0.185615
vt 0.840672 0.261529
vt 0.876099 0.733813
vt 0.015339 0.346401
vt 0.685237 0.104333
vt 0.520136 0.152025
vt 0.777922 0.167557
vt 0.709754 0.191357
vt 0.823979 0.198530
vt 0.758018 0.333642
vt 0.118201 0.283989
vt 0.073805 0.587828
vt 0.017374 0.286240
vt 0.274051 0.332845
vt 0.571688 0.342327
vt 0.609645 0.183778
vt 0.244801 0.930059
vt 0.106493 0.920399
vt 0.125400 0.966294
vt 0.175908 0.960720
vt 0.130440 0.900433
vt 0.071557 0.028750
vt 0.530035 0.480596
vt 0.727773 0.467172
vt 0.801029 0.686408
vt 0.224706 0.157668
vt 0.163216 0.992845
vt 0.103527 0.950464
vt 0.072969 0.943074
vt 0.105625 0.965924
vt 0.131824 0.908803
vt 0.066511 0.976296
vt 0.291937 0.096420
vt 0.848114 0.364964
vt 0.701986 0.731343
vt 0.279475 0.055932
vt 0.632088 0.165185
vt 0.976618 0.257474
vt 0.320095 0.879193
vt 0.059507 0.843408
vt 0.007809 0.800779
vt 0.069500 0.900183
vt 0.006655 0.130602
vt 0.778601 0.712335
vt 0.375232 0.645176
vt 0.344088 0.943692
vt 0.769469 0.981325
vt 0.448777 0.989764
vt 0.392525 0.714539
vt 0.975453 0.970669
vt 0.321708 0.618191
vt 0.383169 0.672711
vt 0.390194 0.567356
vt 0.415045 0.586095
vt 0.990332 0.599849
vt 0.451261 0.664893
vt 0.550783 0.736719
vt 0.468857 0.835588
vt 0.987584 0.823759
vt 0.991690 0.011135
vt 0.293252 0.034555
vt 0.373459 0.727556
vt 0.396668 0.793051
vt 0.966748 0.831596
vt 0.670683 0.868060
vt 0.671120 0.784831
vt 0.403223 0.828381
vt 0.407702 0.022216
vt 0.082834 0.008749
vt 0.019483 0.536683
vt 0.358688 0.601933
vt 0.219810 0.861092
vt 0.351808 1.000000

f 106/106 107/107 260/260
f 92/92 260/260 107/107
f 108/108 109/109 92/92
f 92/92 107/107 108/108
f 108/108 110/110 109/109
f 263/263 108/108 107/107
f 108/108 263/263 111/111
f 264/264 265/265 266/266
f 266/266 267/267 264/264
f 108/108 111/111 110/110
f 265/265 264/264 268/268
f 101/101 117/117 107/107
f 107/107 106/106 101/101
f 119/119 118/118 107/107
f 107/107 117/117 119/119
f 118/118 119/119 120/120
f 273/273 121/121 119/119
f 119/119 117/117 273/273
f 274/274 275/275 276/276
f 276/276 277/277 274/274
f 119/119 121/121 120/120
f 276/276 275/275 278/278
f 43/43 228/228 227/227
f 43/43 42/42 19/19
f 46/46 228/228 9/9
f 228/228 14/14 7/7
f 18/18 17/17 8/8
f 60/60 233/233 63/63
f 70/70 69/69 68/68
f 59/59 62/62 228/228
f 62/62 14/14 60/60
f 63/63 67/67 65/65
f 68/68 64/64 228/228
f 66/66 65/65 59/59
f 14/14 62/62 63/63
f 60/60 59/59 68/68
f 65/65 59/59 228/228
f 68/68 62/62 63/63
f 69/69 67/67 70/70
f 61/61 69/69 7/7
f 239/239 18/18 91/91
f 90/90 88/88 79/79
f 250/250 103/103 88/88
f 131/131 130/130 102/102
f 102/102 136/136 134/134
f 102/102 99/99 94/94
f 93/93 134/134 117/117
f 101/101 104/104 93/93
f 100/100 251/251 98/98
f 252/252 98/98 100/100
f 93/93 94/94 97/97
f 100/100 94/94 253/253
f 132/132 98/98 99/99
f 254/254 97/97 99/99
f 256/256 254/254 101/101
f 257/257 104/104 99/99
f 132/132 96/96 99/99
f 133/133 134/134 94/94
f 134/134 133/133 258/258
f 104/104 257/257 259/259
f 79/79 103/103 135/135
f 93/93 261/261 112/112
f 130/130 131/131 269/269
f 89/89 112/112 113/113
f 129/129 114/114 113/113
f 250/250 78/78 128/128
f 113/113 80/80 103/103
f 250/250 114/114 122/122
f 114/114 250/250 270/270
f 271/271 84/84 104/104
f 258/258 245/245 103/103
f 129/129 116/116 78/78
f 122/122 113/113 270/270
f 84/84 281/281 123/123
f 128/128 80/80 112/112
f 89/89 130/130 131/131
f 88/88 90/90 283/283
f 252/252 269/269 102/102
f 95/95 98/98 99/99
f 102/102 132/132 99/99
f 97/97 133/133 94/94
f 133/133 97/97 134/134
f 93/93 135/135 102/102
f 134/134 135/135 88/88
f 137/137 91/91 88/88
f 130/130 89/89 136/136
f 137/137 89/89 88/88
f 89/89 137/137 140/140
f 285/285 90/90 140/140
f 91/91 77/77 304/304
f 304/304 176/176 303/303
f 175/175 176/176 299/299
f 184/184 183/183 305/305
f 306/306 157/157 184/184
f 304/304 183/183 309/309
f 309/309 304/304 305/305
f 157/157 158/158 199/199
f 199/199 202/202 198/198
f 314/314 200/200 203/203
f 210/210 211/211 209/209
f 202/202 199/199 304/304
f 309/309 202/202 199/199
f 198/198 203/203 207/207
f 208/208 198/198 205/205
f 204/204 209/209 304/304
f 205/205 206/206 198/198
f 313/313 314/314 198/198
f 200/200 207/207 313/313
f 202/202 309/309 203/203
f 198/198 208/208 209/209
f 199/199 205/205 304/304
f 202/202 209/209 203/203
f 208/208 210/210 211/211
