# MOD converted: e_m_costume_rain_body.mod
# 596 verts, 187 faces

v 123.451050 -1.309393 6.803648
v 128.894913 4.773172 6.263700
v 126.480919 -2.194371 6.629031
v 125.650124 5.214011 -0.000001
v 129.875732 8.514047 1.918127
v 125.137581 -5.282402 -0.000000
v 121.788765 -4.763427 18.895214
v 104.088585 -0.694131 17.373878
v 104.412743 10.101317 9.932028
v 122.444130 -1.121041 11.533430
v 117.392845 -4.072782 6.429974
v 118.299149 -6.924432 11.323976
v 115.100021 -7.789819 11.126394
v 109.252792 -13.968236 5.683890
v 103.075920 -17.617973 5.225020
v 109.139839 -15.570200 5.578417
v 113.420509 -13.514042 0.000000
v 113.262878 -13.695684 9.989716
v 113.157150 -12.012171 -0.000001
v 111.445061 13.109954 -0.000001
v 104.669975 14.944210 19.807793
v 96.527534 11.754898 21.963959
v 96.389175 0.254466 20.584545
v 95.562973 -9.140407 14.901082
v 94.337379 -17.680424 7.333086
v 93.731285 -19.672255 10.681998
v 96.365639 16.320644 22.461779
v 87.274490 13.581441 25.737841
v 87.078011 1.306404 23.924871
v 85.753174 -9.341026 17.359657
v 84.086540 -19.385065 8.772468
v 83.275078 -21.700314 -0.000001
v 86.679550 20.333683 11.832764
v 87.089256 18.811766 25.548206
v 76.595154 16.102289 29.770403
v 76.791534 2.286726 27.416883
v 75.344398 -9.541336 19.674513
v 72.850731 -20.378056 10.411757
v 71.153358 -23.006905 -0.000000
v 70.294968 -24.088144 12.922601
v 75.901108 21.638279 28.475914
v 64.241875 18.815622 33.264977
v 66.454514 3.730697 30.658859
v 64.260376 -9.936605 22.095451
v 59.851219 -20.692406 12.453011
v 59.133575 -23.702770 13.725673
v 62.062763 25.184580 -0.000001
v 96.273102 17.450104 0.000001
v 83.104752 -22.114958 25.856337
v 74.696075 -13.968249 29.483074
v 61.972290 -15.127703 7.410769
v 70.572029 -23.111286 8.125607
v 57.377838 -24.425556 19.382305
v 76.486122 17.720022 21.595274
v 63.809124 21.119814 -0.000000
v 79.938461 0.605514 -6.021205
v 122.994125 -1.309394 -6.803646
v 128.894913 4.773170 -6.263706
v 126.480919 -2.194371 -6.261756
v 125.073135 5.214011 -0.000001
v 125.881401 8.828763 -1.918137
v 125.137581 -5.282401 -10.058937
v 124.040916 4.961013 -8.426908
v 123.237633 9.396887 -17.373878
v 104.412727 9.279421 -9.989707
v 113.157150 -12.012177 -6.429989
v 118.299149 -6.924429 -5.578416
v 113.420509 -13.514040 -17.671856
v 103.503403 -8.911053 -0.000000
v 117.946075 -8.857099 0.000007
v 120.641060 11.352835 -11.126390
v 109.252792 -13.968240 -5.683880
v 103.075920 -17.617977 -12.684423
v 103.203667 -15.977604 -5.225017
v 109.139839 -15.570205 0.000000
v 108.915390 -15.800553 0.000000
v 102.955238 -17.966846 -21.963959
v 96.389175 0.254467 -19.807793
v 96.527534 11.348270 -20.584545
v 95.562996 -9.140409 -14.901082
v 94.337379 -17.680426 -7.333078
v 93.731285 -19.672258 0.000000
v 93.584732 -20.097630 -10.681999
v 96.365639 16.320644 -25.737841
v 87.078026 1.306405 -22.461777
v 87.274475 13.581438 -23.924871
v 85.753181 -9.341029 -17.359652
v 84.086540 -19.385071 -8.772463
v 83.275078 -21.700314 -11.832765
v 87.089256 18.811766 -29.770405
v 76.791534 2.286739 -25.548214
v 76.595154 16.102289 -27.416883
v 75.344398 -9.541337 -25.856339
v 74.696083 -13.968246 -10.411762
v 71.153358 -23.006901 -19.674513
v 72.850731 -20.378054 -7.410772
v 70.572029 -23.111284 -12.922601
v 75.901108 21.638279 -0.000001
v 75.587372 23.580547 -19.382305
v 76.486130 17.720036 -33.264980
v 66.454514 3.730707 -28.475916
v 64.241875 18.815624 -30.658855
v 64.260391 -9.936607 -29.483074
v 61.972294 -15.127703 -12.453004
v 59.133572 -23.702766 -22.095451
v 59.851219 -20.692404 -8.125605
v 57.377838 -24.425556 -13.725674
v 62.062763 25.184586 -0.000003
v 61.799343 27.408726 -21.595274
v 63.809113 21.119814 -0.000002
v 56.963581 -25.066984 19.430338
v 95.425034 -12.323778 22.552458
v 85.394737 -13.276408 -19.430338
v 95.425056 -12.323781 -22.552456
v 85.394737 -13.276419 -0.000001
v 126.774002 8.181262 -0.000000
v 119.449013 -5.396771 5.644174
v 125.978996 5.144211 5.519415
v 123.797928 -0.287931 5.446900
v 132.238022 4.085740 4.901292
v 130.072998 -1.004878 6.144629
v 119.658997 -4.208410 -5.519420
v 123.341003 -0.287933 -5.446900
v 132.237991 4.085742 -4.901290
v 130.072998 -1.004879 -5.644170
v 125.978996 5.144210 -0.000001
v 133.221008 6.875771 0.000001
v 128.725998 -3.807340 -0.000000
v 122.202011 -2.804041 -6.144639
v 119.658997 -4.208412 -0.000001
v 89.999825 18.681072 -0.000000
v 81.281891 21.017036 3.190984
v 82.558594 20.674938 4.512734
v 85.640862 19.849054 3.190985
v 88.723114 19.023170 -0.000001
v 92.973335 22.556242 4.512734
v 82.449860 25.375998 6.381969
v 86.808846 24.208021 4.512734
v 91.167809 23.040041 -0.000001
v 92.335785 27.399008 3.190988
v 84.894562 29.392878 4.512736
v 87.976822 28.566988 3.190983
v 91.059074 27.741100 -0.000000
v 80.644310 25.859795 -4.512735
v 82.449875 25.375998 -3.190985
v 82.558594 20.674938 -6.381971
v 86.808846 24.208025 -4.512734
v 85.640862 19.849054 -4.512732
v 91.167809 23.040039 -3.190986
v 88.723114 19.023170 -0.000001
v 83.617851 29.734970 -3.190985
v 84.894562 29.392879 -4.512733
v 87.976822 28.566988 -3.190986
v 91.059074 27.741100 -0.000001
v 88.460617 30.372532 16.000765
v 108.689018 9.238474 16.902617
v 108.692322 -0.640936 12.126996
v 116.777100 11.708792 16.167107
v 116.073967 11.272669 17.187822
v 108.654137 8.876155 17.663261
v 108.575005 -0.611483 15.046036
v 116.361160 -3.364083 13.864642
v 121.887978 -1.049154 14.516393
v 122.719849 4.984169 13.148732
v 122.324669 9.036849 29.055611
v 110.168556 10.483577 25.799816
v 101.514618 7.327868 26.003044
v 101.743980 -1.097129 32.812286
v 114.230186 -1.084619 30.318562
v 109.416031 -3.901901 17.283619
v 121.650772 0.167628 17.672920
v 121.833687 7.882889 33.046280
v 114.455345 7.407563 27.773464
v 99.649902 7.424794 33.698978
v 107.264282 10.324998 39.891933
v 104.172729 11.180913 27.864206
v 99.844765 -1.128051 43.321793
v 109.400810 7.536236 35.271191
v 113.114441 -1.390993 43.036278
v 109.367172 -2.285494 35.479500
v 113.382858 7.347198 46.922691
v 107.400246 8.316470 31.199284
v 109.018913 10.634859 39.719505
v 103.993919 -5.629655 32.399635
v 108.019432 -4.617577 34.721512
v 93.737679 -1.510870 34.580589
v 93.804512 7.034033 46.688667
v 107.553619 -3.620392 43.985744
v 101.482704 12.094212 43.934040
v 101.026657 -7.595554 38.696255
v 89.312759 -2.399672 39.297115
v 89.246613 7.587831 14.896736
v 108.858467 -8.610508 38.800877
v 105.193901 2.464237 45.882812
v 92.817703 5.221774 48.243698
v 96.572601 7.533303 45.628487
v 92.772881 -0.168927 50.570686
v 100.195763 5.665726 48.018120
v 96.520889 -3.080149 50.401733
v 100.354172 -0.967552 35.612400
v 98.507599 -0.413645 38.209099
v 102.814003 -3.251248 40.890602
v 106.899002 -0.882905 40.991196
v 106.862000 6.128678 38.138893
v 102.794998 8.740550 35.588303
v 98.507301 5.739235 46.115273
v 103.312088 -0.923618 46.325722
v 103.151031 5.893897 43.650612
v 99.383675 -3.162572 41.072693
v 95.380043 -0.244222 41.267174
v 95.385109 5.465004 43.876186
v 99.435364 8.030789 8.449501
v 111.077858 12.648473 7.834884
v 117.767067 11.551859 10.058939
v 124.040924 4.961012 8.426920
v 123.237633 9.396885 12.684426
v 103.203667 -15.977604 17.671856
v 103.503403 -8.911057 9.613804
v 104.425697 14.164416 -16.000759
v 108.689026 9.238487 -16.902620
v 108.692322 -0.640931 -18.895214
v 104.088585 -0.694133 -8.449499
v 111.077858 12.648474 -12.126982
v 116.777100 11.708795 -16.167095
v 116.073997 11.272676 -17.187819
v 108.654152 8.876187 -17.663265
v 108.574989 -0.611453 -17.373878
v 104.412743 10.101316 -15.046047
v 116.361137 -3.364076 -13.864651
v 121.887962 -1.049158 -14.516391
v 122.719856 4.984163 -9.932034
v 122.444138 -1.121042 -13.148720
v 122.324677 9.036845 -11.533438
v 117.392845 -4.072777 -7.834871
v 117.767075 11.551863 -29.055613
v 110.168617 10.483582 -25.799818
v 101.514656 7.327920 -26.003042
v 101.743958 -1.097082 -32.812286
v 114.230164 -1.084646 -30.318567
v 109.415993 -3.901899 -17.283623
v 121.650772 0.167617 -17.672913
v 121.833702 7.882877 -33.046280
v 114.455360 7.407536 -27.773472
v 99.649910 7.424802 -33.698990
v 107.264313 10.324998 -39.891941
v 104.172714 11.180912 -27.864204
v 99.844765 -1.128048 -43.321793
v 109.400810 7.536238 -35.271187
v 113.114441 -1.390998 -43.036274
v 109.367172 -2.285491 -35.479492
v 113.382858 7.347194 -46.922695
v 107.400223 8.316471 -31.199287
v 109.018944 10.634859 -11.323967
v 115.100021 -7.789824 -39.719513
v 103.993958 -5.629656 -32.399628
v 108.019432 -4.617576 -34.721504
v 93.737679 -1.510873 -34.580589
v 93.804520 7.034019 -46.688660
v 107.553627 -3.620390 -43.985756
v 101.482689 12.094213 -14.896736
v 108.858467 -8.610509 -43.934032
v 101.026665 -7.595553 -38.696247
v 89.312782 -2.399687 -39.297115
v 89.246613 7.587827 -38.800873
v 105.193901 2.464237 -9.613803
v 104.425697 14.164415 -45.628487
v 92.772888 -0.168933 -48.018120
v 96.520897 -3.080151 -43.650608
v 99.383690 -3.162573 -41.072685
v 95.380043 -0.244228 -38.138901
v 102.794998 8.740550 -40.991192
v 106.862000 6.128680 -46.325726
v 103.151031 5.893898 -40.890594
v 106.899002 -0.882904 -45.882812
v 92.817696 5.221768 -41.267174
v 95.385109 5.464998 -50.401733
v 100.354187 -0.967551 -46.115273
v 103.312088 -0.923617 -43.876190
v 99.435364 8.030787 -35.588303
v 98.507294 5.739228 -50.570686
v 100.195770 5.665727 -38.209095
v 102.814003 -3.251250 -35.612400
v 98.507599 -0.413650 -48.243698
v 96.572594 7.533300 -0.000001
v 74.363136 -7.111933 -0.000000
v 73.620644 0.659288 16.333355
v 81.921799 -0.128114 0.806189
v 73.467056 0.715350 1.738066
v 74.453560 -6.607231 19.254913
v 65.878944 3.363148 9.710331
v 65.848244 -10.463214 2.842140
v 65.449600 -6.965262 1.474634
v 65.136360 1.791427 11.163052
v 77.637306 10.261906 16.949987
v 66.014404 -6.798015 3.809314
v 52.209393 -7.412137 19.111372
v 53.353718 -6.680895 4.174294
v 65.573341 11.108908 12.988978
v 65.879555 11.365414 2.986297
v 73.559753 10.137875 11.083635
v 51.695606 -10.687507 21.606188
v 54.726318 3.997379 14.315545
v 53.090988 12.991831 5.307549
v 52.837109 13.232088 1.811419
v 52.982620 3.087221 8.044941
v 77.878998 -9.739194 14.094557
v 79.907600 -6.700768 1.715589
v 77.910202 12.043556 15.801657
v 79.977997 6.397272 10.447591
v 60.664463 1.212228 0.000002
v 75.111732 7.006250 -0.806189
v 73.467049 0.715348 -11.163053
v 77.637306 10.261908 -1.715589
v 77.910202 12.043555 -14.094557
v 79.907600 -6.700768 -16.333355
v 81.921799 -0.128141 -19.254913
v 65.878944 3.363151 -16.949986
v 66.014404 -6.798019 -8.044942
v 77.878998 -9.739197 -9.710336
v 65.848259 -10.463212 -4.174294
v 65.573341 11.108907 -2.986297
v 73.559753 10.137874 -15.801656
v 79.977997 6.397271 -1.474634
v 65.136360 1.791430 -2.842141
v 65.449600 -6.965263 -1.738067
v 74.453560 -6.607233 -3.809314
v 52.209393 -7.412135 -11.083637
v 51.695610 -10.687507 -5.307550
v 52.837109 13.232089 -1.811421
v 52.982624 3.087227 -14.315547
v 53.090977 12.991833 -21.606186
v 54.726330 3.997382 -19.111380
v 53.353706 -6.680892 -12.988976
v 65.879555 11.365413 -0.000000
v 81.839897 12.929378 -10.447594
v 60.664463 1.212228 9.778971
v 22.092699 -2.668409 9.783160
v 22.091898 10.548101 20.712200
v 22.094406 4.781158 7.254410
v 22.091606 3.989356 19.161703
v 22.093704 -2.289711 17.201200
v 22.093607 10.735502 5.815862
v 53.147705 -5.515388 4.802031
v 48.839401 2.337630 7.105889
v 50.121696 9.160009 13.619900
v 50.413200 8.973980 15.854451
v 54.045322 -5.018224 17.827000
v 50.164009 2.996639 11.408499
v 50.064201 -7.595942 6.158771
v 49.576500 -5.242727 16.123001
v 50.761803 -4.790635 11.768800
v 46.406200 -6.410521 16.484699
v 47.475300 -3.579280 6.905740
v 46.646801 -4.350500 20.219299
v 39.115200 4.019917 15.545599
v 39.438499 10.935100 7.938620
v 39.078899 11.214700 4.905760
v 37.495201 3.546656 10.972399
v 54.012741 -7.906889 17.640701
v 52.946701 2.939450 13.286400
v 52.648201 8.932130 6.888582
v 52.214603 9.095482 4.385400
v 51.866112 2.320638 14.499200
v 22.093201 -4.422550 4.860180
v 59.319893 -5.894524 10.331219
v 59.915451 -8.706514 5.941375
v 58.903946 9.436443 17.702831
v 59.394989 2.942799 15.773202
v 59.999699 -5.573665 12.993357
v 59.245987 9.281485 3.415533
v 58.550968 1.954184 -13.286400
v 52.648201 8.932130 -12.993357
v 59.245987 9.281485 -17.702831
v 59.394989 2.942802 -17.640701
v 52.946701 2.939450 -10.972404
v 54.012737 -7.906890 -15.854451
v 54.045322 -5.018223 -15.773201
v 59.999695 -5.573668 -10.331213
v 59.915451 -8.706514 -4.385401
v 51.866096 2.320641 -4.802031
v 48.839401 2.337630 -6.158772
v 49.576500 -5.242730 -5.815866
v 53.147705 -5.515389 -4.860179
v 59.319893 -5.894525 -3.415532
v 58.550976 1.954187 -16.123001
v 50.761799 -4.790636 -7.105891
v 50.121704 9.160008 -6.888581
v 52.214607 9.095480 -13.619902
v 50.413200 8.973978 -11.408498
v 50.064201 -7.595940 -17.827000
v 50.164009 2.996641 -15.545599
v 39.438499 10.935100 -20.219301
v 39.115204 4.019920 -11.768804
v 46.406193 -6.410520 -6.905738
v 46.646801 -4.350500 -16.484699
v 47.475300 -3.579279 -7.254412
v 22.091604 3.989364 -9.778970
v 22.092699 -2.668410 -4.905760
v 37.495201 3.546661 -7.938621
v 39.078896 11.214700 -20.712202
v 22.094406 4.781164 -19.161701
v 22.093704 -2.289711 -14.499200
v 22.093201 -4.422550 -17.201200
v 22.093607 10.735502 -9.783161
v 22.091904 10.548102 -5.941373
v 58.903946 9.436448 6.629031
v 125.650124 5.214011 -0.000001
v 125.881401 8.828763 -0.000000
v 121.788765 -4.763427 6.021199
v 123.451050 -1.309393 6.629031
v 125.650124 5.214011 10.058939
v 124.040924 4.961012 18.895214
v 104.088585 -0.694131 21.963959
v 96.389175 0.254466 25.737841
v 87.078011 1.306404 29.770403
v 76.791534 2.286726 33.264977
v 66.454514 3.730697 33.264977
v 66.454514 3.730697 28.475914
v 64.241875 18.815622 30.658859
v 64.260376 -9.936605 29.483074
v 61.972290 -15.127703 22.095451
v 59.851219 -20.692406 12.453011
v 59.133575 -23.702770 8.125607
v 57.377838 -24.425556 13.725673
v 62.062763 25.184580 -0.000003
v 61.799343 27.408726 21.595274
v 63.809124 21.119814 -0.000002
v 56.963581 -25.066984 -0.000001
v 125.881401 8.828763 -0.000001
v 129.875732 8.514047 -0.000000
v 121.788765 -4.763427 -0.000001
v 111.445061 13.109954 -6.261756
v 125.073135 5.214011 -0.000001
v 104.669975 14.944210 -5.578416
v 113.420509 -13.514040 0.000007
v 120.641060 11.352835 -0.000001
v 125.881401 8.828763 -6.429989
v 118.299149 -6.924429 -6.021205
v 122.994125 -1.309394 -6.021205
v 122.994125 -1.309394 -6.261756
v 125.073135 5.214011 -10.058937
v 124.040916 4.961013 -5.225017
v 109.139839 -15.570205 -5.683880
v 103.075920 -17.617977 -18.895214
v 104.088585 -0.694133 -21.963959
v 96.389175 0.254467 -7.333078
v 93.731285 -19.672258 -0.000001
v 96.273102 17.450104 -25.737841
v 87.078026 1.306405 -8.772463
v 83.275078 -21.700314 -0.000001
v 86.679550 20.333683 -29.770405
v 76.791534 2.286739 -0.000001
v 75.587372 23.580547 -33.264980
v 66.454514 3.730707 -0.000003
v 61.799343 27.408726 -33.264980
v 66.454514 3.730707 -0.000000
v 79.938461 0.605514 -28.475916
v 64.241875 18.815624 -30.658855
v 64.260391 -9.936607 -29.483074
v 61.972294 -15.127703 -22.095451
v 59.851219 -20.692404 -12.453004
v 59.133572 -23.702766 -8.125605
v 57.377838 -24.425556 -0.000002
v 56.963581 -25.066984 -13.725674
v 62.062763 25.184586 -0.000003
v 61.799343 27.408726 -21.595274
v 63.809113 21.119814 -8.125605
v 57.377838 -24.425556 -7.410772
v 70.572029 -23.111284 -0.000001
v 126.774002 8.181262 -0.000001
v 133.221008 6.875771 0.000001
v 128.725998 -3.807340 -0.000000
v 122.202011 -2.804041 -0.000000
v 119.449013 -5.396771 -0.000000
v 81.281891 21.017036 -0.000000
v 80.644310 25.859795 -0.000001
v 92.973335 22.556242 -0.000001
v 89.999825 18.681072 -0.000001
v 83.617851 29.734970 -0.000001
v 92.335785 27.399008 -0.000001
v 88.460617 30.372532 18.895214
v 104.088585 -0.694131 8.449501
v 111.077858 12.648473 12.126996
v 116.777100 11.708792 16.000765
v 108.689018 9.238474 16.902617
v 108.692322 -0.640936 17.187822
v 108.654137 8.876155 16.000765
v 108.689018 9.238474 17.373878
v 104.412743 10.101317 10.058939
v 124.040924 4.961012 9.932028
v 122.444130 -1.121041 10.058939
v 124.040924 4.961012 8.426920
v 123.237633 9.396885 11.533430
v 117.392845 -4.072782 7.834884
v 117.767067 11.551859 14.516393
v 122.719849 4.984169 16.902617
v 108.692322 -0.640936 18.895214
v 104.088585 -0.694131 17.671856
v 103.503403 -8.911057 25.799816
v 101.514618 7.327868 27.773464
v 99.649902 7.424794 11.533430
v 117.392845 -4.072782 11.323976
v 115.100021 -7.789819 13.148732
v 122.324669 9.036849 13.864642
v 121.887978 -1.049154 14.516393
v 122.719849 4.984169 34.580589
v 93.804512 7.034033 9.989716
v 113.157150 -12.012171 39.297115
v 89.246613 7.587831 11.126394
v 109.252792 -13.968236 12.684426
v 103.203667 -15.977604 46.922691
v 107.400246 8.316470 46.688667
v 107.553619 -3.620392 43.934040
v 101.026657 -7.595554 38.696255
v 89.312759 -2.399672 39.297115
v 89.246613 7.587831 43.985744
v 101.482704 12.094212 9.613804
v 104.425697 14.164416 35.588303
v 98.507301 5.739235 45.882812
v 92.817703 5.221774 41.267174
v 95.385109 5.465004 -18.895214
v 104.088585 -0.694133 -8.449499
v 111.077858 12.648474 -12.126982
v 116.777100 11.708795 -16.000759
v 108.689026 9.238487 -16.902620
v 108.692322 -0.640931 -16.000759
v 108.689026 9.238487 -17.187819
v 108.654152 8.876187 -10.058937
v 124.040916 4.961013 -9.932034
v 122.444138 -1.121042 -8.426908
v 123.237633 9.396887 -10.058937
v 124.040916 4.961013 -11.533438
v 117.392845 -4.072777 -7.834871
v 117.767075 11.551863 -14.516391
v 122.719856 4.984163 -16.902620
v 108.692322 -0.640931 -17.671856
v 103.503403 -8.911053 -18.895214
v 104.088585 -0.694133 -25.799818
v 101.514656 7.327920 -27.773472
v 99.649910 7.424802 -11.533438
v 117.392845 -4.072777 -11.323967
v 115.100021 -7.789824 -13.148720
v 122.324677 9.036845 -13.864651
v 121.887962 -1.049158 -14.516391
v 122.719856 4.984163 -34.580589
v 93.804520 7.034019 -9.989707
v 113.157150 -12.012177 -39.297115
v 89.246613 7.587827 -11.126390
v 109.252792 -13.968240 -12.684423
v 103.203667 -15.977604 -46.922695
v 107.400223 8.316471 -46.688660
v 107.553627 -3.620390 -43.934032
v 101.026665 -7.595553 -38.696247
v 89.312782 -2.399687 -39.297115
v 89.246613 7.587827 -43.985756
v 101.482689 12.094213 -9.613803
v 104.425697 14.164415 -35.588303
v 98.507294 5.739228 -45.882812
v 92.817696 5.221768 -41.267174
v 95.385109 5.464998 0.806189
v 73.467056 0.715350 1.811419
v 52.982620 3.087221 1.474634
v 65.136360 1.791427 -0.000000
v 73.620644 0.659288 3.809314
v 52.209393 -7.412137 11.083635
v 51.695606 -10.687507 5.307549
v 52.837109 13.232088 14.315545
v 53.090988 12.991831 21.606188
v 54.726318 3.997379 1.811419
v 52.982620 3.087221 19.111372
v 53.353718 -6.680895 -0.000000
v 73.620644 0.659288 0.000002
v 75.111732 7.006250 -0.806189
v 73.467049 0.715348 -1.811421
v 52.982624 3.087227 -1.474634
v 65.136360 1.791430 -0.000001
v 74.363136 -7.111933 -0.000000
v 73.620644 0.659288 -0.000000
v 81.839897 12.929378 -3.809314
v 52.209393 -7.412135 -11.083637
v 51.695610 -10.687507 -5.307550
v 52.837109 13.232089 -14.315547
v 53.090977 12.991833 -21.606186
v 54.726330 3.997382 -1.811421
v 52.982624 3.087227 -19.111380
v 53.353706 -6.680892 4.802031
v 48.839401 2.337630 4.905760
v 37.495201 3.546656 7.254410
v 22.091606 3.989356 4.385400
v 51.866112 2.320638 3.415533
v 58.550968 1.954184 -4.802031
v 48.839401 2.337630 -4.905760
v 37.495201 3.546661 -7.254412
v 22.091604 3.989364 -4.385401
v 51.866096 2.320641 -3.415532
v 58.550976 1.954187 0.117188

vt 0.226562 0.847656
vt 0.175781 0.847656
vt 0.230469 0.882812
vt 0.175781 0.847656
vt 0.113281 0.847656
vt 0.281250 0.882812
vt 0.292969 0.246094
vt 0.421875 0.167969
vt 0.406250 0.812500
vt 0.929688 0.773753
vt 0.875200 0.851562
vt 0.875000 0.795874
vt 0.833347 0.814164
vt 0.773361 0.863281
vt 0.710938 0.867188
vt 0.769531 0.863281
vt 0.808594 0.910156
vt 0.808594 0.828125
vt 0.808594 0.015625
vt 0.453125 0.015625
vt 0.394531 0.183594
vt 0.339844 0.269512
vt 0.363294 0.695312
vt 0.667969 0.781250
vt 0.640625 0.847656
vt 0.632812 0.105469
vt 0.328125 0.203125
vt 0.257812 0.303966
vt 0.285531 0.664062
vt 0.585938 0.761719
vt 0.554688 0.835938
vt 0.542969 0.015625
vt 0.238281 0.113281
vt 0.246094 0.226562
vt 0.167969 0.339844
vt 0.203125 0.636719
vt 0.500000 0.738281
vt 0.457031 0.820312
vt 0.437500 0.910156
vt 0.429688 0.121094
vt 0.152344 0.250749
vt 0.061088 0.374511
vt 0.119433 0.605718
vt 0.408765 0.716035
vt 0.348402 0.799567
vt 0.338123 0.128086
vt 0.033364 0.015625
vt 0.324219 0.910156
vt 0.539062 0.673641
vt 0.484811 0.646498
vt 0.377152 0.847656
vt 0.433594 0.839783
vt 0.322441 0.183594
vt 0.164062 0.198458
vt 0.053685 0.069196
vt 0.705357 0.882812
vt 0.226562 0.847656
vt 0.175781 0.847656
vt 0.230469 0.882812
vt 0.175781 0.882812
vt 0.113281 0.847656
vt 0.281250 0.101562
vt 0.585938 0.082031
vt 0.546875 0.167969
vt 0.406250 0.828125
vt 0.808594 0.851562
vt 0.875000 0.863281
vt 0.808594 0.734375
vt 0.742188 0.910156
vt 0.875000 0.015625
vt 0.535156 0.814085
vt 0.773333 0.863281
vt 0.710938 0.800781
vt 0.718750 0.867188
vt 0.769531 0.910156
vt 0.765625 0.910156
vt 0.710938 0.269512
vt 0.363294 0.183594
vt 0.339844 0.695312
vt 0.667969 0.781250
vt 0.640625 0.847656
vt 0.632812 0.910156
vt 0.628906 0.105469
vt 0.328125 0.303966
vt 0.285531 0.203125
vt 0.257812 0.664062
vt 0.585938 0.761719
vt 0.554688 0.835938
vt 0.542969 0.113281
vt 0.246094 0.339844
vt 0.203125 0.226562
vt 0.167969 0.636719
vt 0.500000 0.673592
vt 0.484674 0.820312
vt 0.437500 0.738281
vt 0.457031 0.847656
vt 0.433594 0.121094
vt 0.152344 0.015625
vt 0.144531 0.183594
vt 0.164062 0.374511
vt 0.119433 0.250749
vt 0.061088 0.605718
vt 0.408765 0.646498
vt 0.377152 0.799567
vt 0.338123 0.716035
vt 0.348402 0.839783
vt 0.322441 0.128086
vt 0.033364 0.015265
vt 0.025586 0.198458
vt 0.053685 0.011719
vt 0.621094 0.718750
vt 0.660156 0.695312
vt 0.574219 0.718750
vt 0.660156 0.695312
vt 0.574219 0.316406
vt 0.382812 0.507812
vt 0.351562 0.371094
vt 0.386719 0.417969
vt 0.378906 0.359375
vt 0.449219 0.406250
vt 0.445312 0.453125
vt 0.324219 0.417969
vt 0.378906 0.359375
vt 0.449219 0.406250
vt 0.445312 0.371094
vt 0.386719 0.304688
vt 0.445312 0.457031
vt 0.453125 0.476562
vt 0.394531 0.453125
vt 0.324219 0.023438
vt 0.851562 0.023438
vt 0.976562 0.019531
vt 0.949219 0.019531
vt 0.914062 0.019531
vt 0.882812 0.070312
vt 0.847656 0.058594
vt 0.949219 0.054688
vt 0.914062 0.058594
vt 0.882812 0.109375
vt 0.871094 0.097656
vt 0.941406 0.093750
vt 0.914062 0.097656
vt 0.890625 0.066406
vt 0.980469 0.058594
vt 0.949219 0.019531
vt 0.949219 0.054688
vt 0.914062 0.019531
vt 0.914062 0.058594
vt 0.882812 0.019531
vt 0.882812 0.105469
vt 0.960938 0.097656
vt 0.941406 0.093750
vt 0.914062 0.097656
vt 0.890625 0.128906
vt 0.914062 0.156250
vt 0.445312 0.222656
vt 0.460938 0.113281
vt 0.503906 0.503906
vt 0.289062 0.449219
vt 0.257812 0.714844
vt 0.253906 0.652344
vt 0.289062 0.773438
vt 0.929688 0.761719
vt 0.972656 0.125000
vt 0.542969 0.496094
vt 0.152344 0.417969
vt 0.152344 0.746094
vt 0.152344 0.621094
vt 0.152344 0.671875
vt 0.152344 0.609375
vt 0.289062 0.550781
vt 0.289062 0.554688
vt 0.152344 0.410156
vt 0.128906 0.492188
vt 0.113281 0.488281
vt 0.066406 0.753906
vt 0.128906 0.550781
vt 0.066406 0.621094
vt 0.128906 0.628906
vt 0.066406 0.550781
vt 0.128906 0.546875
vt 0.015625 0.492188
vt 0.128906 0.687500
vt 0.066406 0.675781
vt 0.128906 0.781250
vt 0.066406 0.851562
vt 0.066406 0.636719
vt 0.015625 0.484375
vt 0.015625 0.699219
vt 0.015625 0.804688
vt 0.015625 0.875000
vt 0.015625 0.765625
vt 0.792969 0.375000
vt 0.312500 0.902344
vt 0.031250 0.902344
vt 0.238281 0.902344
vt 0.074219 0.902344
vt 0.203125 0.902344
vt 0.113281 0.902344
vt 0.152344 0.988281
vt 0.070312 0.988281
vt 0.113281 0.988281
vt 0.152344 0.988281
vt 0.203125 0.988281
vt 0.246094 0.988281
vt 0.289062 0.941406
vt 0.152344 0.941406
vt 0.203125 0.941406
vt 0.113281 0.941406
vt 0.074219 0.941406
vt 0.031250 0.941406
vt 0.242188 0.089844
vt 0.453125 0.078125
vt 0.511719 0.101562
vt 0.585938 0.082031
vt 0.546875 0.800781
vt 0.718750 0.734375
vt 0.742188 0.097656
vt 0.398438 0.156250
vt 0.445312 0.222656
vt 0.460938 0.246094
vt 0.421875 0.089844
vt 0.453125 0.113281
vt 0.503906 0.503906
vt 0.289062 0.449219
vt 0.257812 0.714844
vt 0.253906 0.167969
vt 0.406250 0.652344
vt 0.289062 0.773438
vt 0.929688 0.761719
vt 0.972656 0.812500
vt 0.929688 0.125000
vt 0.542969 0.773719
vt 0.876065 0.078125
vt 0.511719 0.496094
vt 0.152344 0.417969
vt 0.152344 0.746094
vt 0.152344 0.621094
vt 0.152344 0.671875
vt 0.152344 0.609375
vt 0.289062 0.550781
vt 0.289062 0.554688
vt 0.152344 0.410156
vt 0.128906 0.492188
vt 0.113281 0.488281
vt 0.066406 0.753906
vt 0.128906 0.550781
vt 0.066406 0.621094
vt 0.128906 0.628906
vt 0.066406 0.550781
vt 0.128906 0.546875
vt 0.015625 0.492188
vt 0.128906 0.795847
vt 0.833446 0.687500
vt 0.066406 0.675781
vt 0.128906 0.781250
vt 0.066406 0.851562
vt 0.066406 0.636719
vt 0.015625 0.484375
vt 0.015625 0.765625
vt 0.792969 0.699219
vt 0.015625 0.804688
vt 0.015625 0.875000
vt 0.015625 0.375000
vt 0.312500 0.097656
vt 0.398438 0.902344
vt 0.074219 0.902344
vt 0.113281 0.941406
vt 0.113281 0.941406
vt 0.074219 0.988281
vt 0.246094 0.988281
vt 0.203125 0.941406
vt 0.203125 0.988281
vt 0.152344 0.902344
vt 0.031250 0.941406
vt 0.031250 0.902344
vt 0.152344 0.941406
vt 0.152344 0.941406
vt 0.242188 0.988281
vt 0.289062 0.902344
vt 0.203125 0.988281
vt 0.113281 0.988281
vt 0.070312 0.902344
vt 0.238281 0.570312
vt 0.937500 0.156250
vt 0.890625 0.386719
vt 0.945312 0.156250
vt 0.890625 0.562500
vt 0.917969 0.371094
vt 0.835938 0.500000
vt 0.835938 0.550781
vt 0.835938 0.609375
vt 0.835938 0.296875
vt 0.914062 0.441406
vt 0.835938 0.550781
vt 0.742188 0.445312
vt 0.742188 0.230469
vt 0.835938 0.292969
vt 0.835938 0.226562
vt 0.898438 0.503906
vt 0.742188 0.371094
vt 0.742188 0.292969
vt 0.742188 0.234375
vt 0.742188 0.164062
vt 0.742188 0.496094
vt 0.933594 0.441406
vt 0.937500 0.226562
vt 0.937500 0.343750
vt 0.929688 0.683594
vt 0.914062 0.191406
vt 0.917969 0.156250
vt 0.890625 0.296875
vt 0.914062 0.226562
vt 0.937500 0.441406
vt 0.937500 0.386719
vt 0.945312 0.371094
vt 0.835938 0.441406
vt 0.835938 0.496094
vt 0.933594 0.500000
vt 0.835938 0.230469
vt 0.835938 0.226562
vt 0.898438 0.343750
vt 0.929688 0.609375
vt 0.835938 0.550781
vt 0.835938 0.562500
vt 0.917969 0.550781
vt 0.742188 0.503906
vt 0.742188 0.234375
vt 0.742188 0.164062
vt 0.742188 0.292969
vt 0.742188 0.371094
vt 0.742188 0.445312
vt 0.742188 0.292969
vt 0.835938 0.222656
vt 0.972656 0.683594
vt 0.914062 0.429688
vt 0.503906 0.226562
vt 0.503906 0.320312
vt 0.503906 0.476562
vt 0.503906 0.367188
vt 0.503906 0.273438
vt 0.503906 0.445312
vt 0.667969 0.488281
vt 0.636719 0.222656
vt 0.644531 0.269531
vt 0.644531 0.371094
vt 0.675781 0.320312
vt 0.644531 0.406250
vt 0.652344 0.441406
vt 0.648438 0.367188
vt 0.652344 0.406250
vt 0.632812 0.367188
vt 0.632812 0.441406
vt 0.632812 0.320312
vt 0.582031 0.269531
vt 0.585938 0.226562
vt 0.585938 0.484375
vt 0.578125 0.410156
vt 0.671875 0.316406
vt 0.664062 0.265625
vt 0.660156 0.222656
vt 0.656250 0.488281
vt 0.652344 0.398438
vt 0.503906 0.449219
vt 0.703125 0.410156
vt 0.707031 0.218750
vt 0.699219 0.316406
vt 0.699219 0.371094
vt 0.707031 0.265625
vt 0.699219 0.492188
vt 0.695312 0.265625
vt 0.660156 0.265625
vt 0.699219 0.316406
vt 0.699219 0.316406
vt 0.664062 0.410156
vt 0.671875 0.371094
vt 0.675781 0.371094
vt 0.707031 0.410156
vt 0.707031 0.488281
vt 0.652344 0.488281
vt 0.636719 0.441406
vt 0.648438 0.445312
vt 0.667969 0.449219
vt 0.703125 0.492188
vt 0.695312 0.367188
vt 0.652344 0.222656
vt 0.644531 0.222656
vt 0.656250 0.269531
vt 0.644531 0.406250
vt 0.652344 0.320312
vt 0.644531 0.269531
vt 0.585938 0.320312
vt 0.582031 0.406250
vt 0.632812 0.441406
vt 0.632812 0.367188
vt 0.632812 0.476562
vt 0.503906 0.429688
vt 0.503906 0.484375
vt 0.578125 0.226562
vt 0.585938 0.320312
vt 0.503906 0.367188
vt 0.503906 0.398438
vt 0.503906 0.273438
vt 0.503906 0.226562
vt 0.503906 0.218750
vt 0.699219 0.070312
vt 0.597656 0.015625
vt 0.578125 0.910156
vt 0.921875 0.851562
vt 0.937500 0.835938
vt 0.984375 0.796875
vt 0.976562 0.675781
vt 0.765625 0.628924
vt 0.699235 0.582583
vt 0.621532 0.542969
vt 0.539062 0.500252
vt 0.459323 0.121094
vt 0.664062 0.140625
vt 0.707031 0.101562
vt 0.640625 0.097656
vt 0.628906 0.074219
vt 0.617188 0.046875
vt 0.617188 0.035156
vt 0.617188 0.132812
vt 0.742188 0.121094
vt 0.773438 0.140625
vt 0.722656 0.910156
vt 0.318413 0.882812
vt 0.113281 0.847656
vt 0.113281 0.882812
vt 0.292969 0.015625
vt 0.453125 0.070312
vt 0.597656 0.015625
vt 0.394531 0.957031
vt 0.808594 0.015625
vt 0.535156 0.015625
vt 0.578125 0.968750
vt 0.875000 0.968750
vt 0.937500 0.851562
vt 0.937500 0.835938
vt 0.984375 0.796875
vt 0.976562 0.953125
vt 0.769531 0.957031
vt 0.710938 0.675781
vt 0.765625 0.628924
vt 0.699235 0.972656
vt 0.632812 0.015625
vt 0.324219 0.582583
vt 0.621532 0.984375
vt 0.542969 0.015625
vt 0.238281 0.542969
vt 0.539062 0.015625
vt 0.144531 0.500252
vt 0.459323 0.015265
vt 0.025586 0.121094
vt 0.664062 0.069196
vt 0.705357 0.140625
vt 0.707031 0.101562
vt 0.640625 0.097656
vt 0.628906 0.074219
vt 0.617188 0.046875
vt 0.617188 0.035156
vt 0.617188 0.011719
vt 0.621094 0.132812
vt 0.742188 0.121094
vt 0.773438 0.140625
vt 0.722656 0.980529
vt 0.322441 0.972656
vt 0.433594 0.316406
vt 0.382812 0.304688
vt 0.445312 0.457031
vt 0.453125 0.476562
vt 0.394531 0.507812
vt 0.351562 0.023438
vt 0.976562 0.066406
vt 0.980469 0.070312
vt 0.847656 0.023438
vt 0.851562 0.105469
vt 0.960938 0.109375
vt 0.871094 0.128906
vt 0.914062 0.246094
vt 0.421875 0.089844
vt 0.453125 0.500000
vt 0.320312 0.445312
vt 0.265625 0.714844
vt 0.261719 0.781250
vt 0.261719 0.789062
vt 0.273438 0.167969
vt 0.406250 0.796875
vt 0.976562 0.812500
vt 0.929688 0.101562
vt 0.585938 0.082031
vt 0.546875 0.773753
vt 0.875200 0.078125
vt 0.511719 0.140625
vt 0.578125 0.710938
vt 0.824219 0.675781
vt 0.765625 0.734375
vt 0.742188 0.808594
vt 0.152344 0.820312
vt 0.128906 0.660720
vt 0.322243 0.795874
vt 0.833347 0.527344
vt 0.320312 0.617188
vt 0.320312 0.570312
vt 0.320312 0.394531
vt 0.066406 0.828125
vt 0.808594 0.378906
vt 0.015625 0.814164
vt 0.773361 0.800781
vt 0.718750 0.343750
vt 0.339844 0.398438
vt 0.347656 0.425781
vt 0.312500 0.406250
vt 0.246094 0.355469
vt 0.242188 0.328125
vt 0.304688 0.097656
vt 0.398438 0.988281
vt 0.027344 0.902344
vt 0.277344 0.941406
vt 0.281250 0.246094
vt 0.421875 0.089844
vt 0.453125 0.500000
vt 0.320312 0.445312
vt 0.265625 0.714844
vt 0.261719 0.789062
vt 0.273438 0.781250
vt 0.261719 0.796875
vt 0.976562 0.812500
vt 0.929688 0.082031
vt 0.546875 0.101562
vt 0.585938 0.773753
vt 0.875200 0.078125
vt 0.511719 0.140625
vt 0.578125 0.710938
vt 0.824219 0.734375
vt 0.742188 0.675781
vt 0.765625 0.808594
vt 0.152344 0.820312
vt 0.128906 0.660720
vt 0.322243 0.795874
vt 0.833347 0.527344
vt 0.320312 0.617188
vt 0.320312 0.570312
vt 0.320312 0.394531
vt 0.066406 0.828125
vt 0.808594 0.378906
vt 0.015625 0.814164
vt 0.773361 0.800781
vt 0.718750 0.343750
vt 0.339844 0.398438
vt 0.347656 0.425781
vt 0.312500 0.406250
vt 0.246094 0.355469
vt 0.242188 0.328125
vt 0.304688 0.097656
vt 0.398438 0.988281
vt 0.027344 0.902344
vt 0.277344 0.941406
vt 0.281250 0.605469
vt 0.890625 0.621094
vt 0.742188 0.164062
vt 0.835938 0.609375
vt 0.894531 0.718750
vt 0.957031 0.679688
vt 0.976562 0.707031
vt 0.859375 0.664062
vt 0.859375 0.628906
vt 0.898438 0.730469
vt 0.906250 0.640625
vt 0.953125 0.156250
vt 0.890625 0.191406
vt 0.917969 0.605469
vt 0.890625 0.621094
vt 0.742188 0.164062
vt 0.835938 0.570312
vt 0.937500 0.609375
vt 0.894531 0.222656
vt 0.972656 0.718750
vt 0.957031 0.679688
vt 0.976562 0.707031
vt 0.859375 0.664062
vt 0.859375 0.628906
vt 0.898438 0.730469
vt 0.906250 0.640625
vt 0.953125 0.175781
vt 0.636719 0.175781
vt 0.578125 0.179688
vt 0.503906 0.171875
vt 0.656250 0.171875
vt 0.699219 0.175781
vt 0.636719 0.175781
vt 0.578125 0.179688
vt 0.503906 0.171875
vt 0.656250 0.171875
vt 0.699219 1.000000

f 370/370 360/360 368/368
f 360/360 370/370 361/361
f 359/359 369/369 347/347
f 369/369 359/359 366/366
f 363/363 350/350 344/344
f 343/343 371/371 365/365
f 371/371 343/343 363/363
f 360/360 351/351 347/347
f 345/345 346/346 362/362
f 361/361 362/362 346/346
f 350/350 343/343 349/349
f 359/359 349/349 343/343
f 359/359 347/347 349/349
f 351/351 349/349 347/347
f 351/351 360/360 348/348
f 350/350 363/363 343/343
f 346/346 356/356 348/348
f 355/355 348/348 356/356
f 349/349 352/352 350/350
f 354/354 350/350 352/352
f 349/349 351/351 352/352
f 353/353 352/352 351/351
f 340/340 358/358 337/337
f 354/354 337/337 358/358
f 345/345 587/587 357/357
f 588/588 357/357 587/587
f 356/356 346/346 357/357
f 345/345 357/357 346/346
f 351/351 348/348 353/353
f 339/339 341/341 355/355
f 353/353 355/355 341/341
f 348/348 355/355 353/353
f 354/354 344/344 350/350
f 352/352 353/353 341/341
f 341/341 364/364 352/352
f 344/344 354/354 358/358
f 337/337 354/354 352/352
f 355/355 342/342 339/339
f 342/342 355/355 356/356
f 357/357 342/342 356/356
f 342/342 357/357 338/338
f 588/588 338/338 357/357
f 338/338 588/588 589/589
f 348/348 360/360 346/346
f 345/345 590/590 587/587
f 360/360 361/361 346/346
f 362/362 590/590 345/345
f 364/364 337/337 352/352
f 365/365 359/359 343/343
f 359/359 365/365 366/366
f 362/362 591/591 590/590
f 591/591 362/362 367/367
f 347/347 368/368 360/360
f 368/368 347/347 369/369
f 370/370 362/362 361/361
f 362/362 370/370 367/367
f 373/373 375/375 372/372
f 375/375 373/373 374/374
f 376/376 378/378 379/379
f 378/378 376/376 377/377
f 380/380 381/381 382/382
f 383/383 385/385 380/380
f 385/385 383/383 384/384
f 375/375 377/377 386/386
f 387/387 388/388 389/389
f 372/372 389/389 388/388
f 382/382 390/390 383/383
f 376/376 383/383 390/390
f 376/376 390/390 377/377
f 386/386 377/377 390/390
f 386/386 391/391 375/375
f 382/382 383/383 380/380
f 389/389 391/391 392/392
f 393/393 392/392 391/391
f 390/390 382/382 394/394
f 395/395 394/394 382/382
f 390/390 394/394 386/386
f 396/396 386/386 394/394
f 397/397 398/398 399/399
f 395/395 399/399 398/398
f 387/387 400/400 592/592
f 593/593 592/592 400/400
f 392/392 400/400 389/389
f 387/387 389/389 400/400
f 386/386 396/396 391/391
f 401/401 393/393 402/402
f 396/396 402/402 393/393
f 391/391 396/396 393/393
f 395/395 382/382 381/381
f 394/394 402/402 396/396
f 402/402 394/394 403/403
f 381/381 399/399 395/395
f 398/398 394/394 395/395
f 393/393 401/401 404/404
f 404/404 392/392 393/393
f 400/400 392/392 404/404
f 404/404 405/405 400/400
f 593/593 400/400 405/405
f 405/405 594/594 593/593
f 391/391 389/389 375/375
f 387/387 592/592 595/595
f 375/375 389/389 372/372
f 388/388 387/387 595/595
f 403/403 394/394 398/398
f 384/384 376/376 379/379
f 376/376 384/384 383/383
f 388/388 596/596 406/406
f 596/596 388/388 595/595
f 377/377 374/374 378/378
f 374/374 377/377 375/375
f 373/373 388/388 406/406
f 388/388 373/373 372/372
f 288/288 311/311 290/290
f 295/295 287/287 307/307
f 291/291 306/306 294/294
f 300/300 298/298 293/293
f 289/289 292/292 293/293
f 561/561 289/289 292/292
f 291/291 296/296 301/301
f 296/296 291/291 298/298
f 305/305 304/304 303/303
f 302/302 290/290 301/301
f 301/301 291/291 296/296
f 562/562 292/292 294/294
f 298/298 299/299 300/300
f 300/300 288/288 294/294
f 308/308 300/300 309/309
f 290/290 287/287 292/292
f 289/289 291/291 306/306
f 291/291 289/289 561/561
f 564/564 285/285 295/295
f 290/290 297/297 309/309
f 299/299 290/290 285/285
f 289/289 561/561 311/311
f 300/300 308/308 288/288
f 300/300 311/311 290/290
f 302/302 297/297 299/299
f 298/298 303/303 299/299
f 303/303 290/290 304/304
f 303/303 298/298 293/293
f 292/292 562/562 298/298
f 563/563 305/305 291/291
f 287/287 295/295 311/311
f 308/308 335/335 294/294
f 299/299 309/309 565/565
f 566/566 310/310 567/567
f 310/310 569/569 570/570
f 310/310 567/567 565/565
f 310/310 570/570 569/569
f 310/310 566/566 572/572
f 573/573 312/312 317/317
f 316/316 318/318 315/315
f 319/319 320/320 313/313
f 321/321 322/322 324/324
f 325/325 326/326 324/324
f 326/326 574/574 325/325
f 327/327 320/320 328/328
f 320/320 327/327 321/321
f 329/329 330/330 331/331
f 317/317 332/332 328/328
f 320/320 328/328 327/327
f 325/325 575/575 313/313
f 334/334 321/321 322/322
f 312/312 322/322 313/313
f 322/322 314/314 323/323
f 316/316 317/317 325/325
f 320/320 326/326 319/319
f 326/326 320/320 574/574
f 577/577 578/578 318/318
f 333/333 317/317 323/323
f 317/317 334/334 577/577
f 574/574 326/326 573/573
f 314/314 322/322 312/312
f 573/573 322/322 317/317
f 333/333 332/332 334/334
f 331/331 321/321 334/334
f 317/317 331/331 329/329
f 321/321 331/331 324/324
f 575/575 325/325 321/321
f 330/330 576/576 320/320
f 318/318 316/316 573/573
f 579/579 314/314 313/313
f 323/323 334/334 580/580
f 336/336 581/581 582/582
f 584/584 336/336 585/585
f 582/582 336/336 580/580
f 585/585 336/336 584/584
