# MOD converted: e_m_chstume_chef_body.mod
# 739 verts, 916 faces

v 121.579834 -0.301987 12.018013
v 106.769020 -8.509501 10.782500
v 115.536560 -6.862216 13.432848
v 115.177307 -5.253300 11.920501
v 89.752602 -8.462391 12.456701
v 84.037300 -8.189289 7.672354
v 112.420135 14.561339 5.932779
v 103.725868 13.723772 4.833990
v 90.132797 11.171500 5.715234
v 85.241211 12.289408 12.041674
v 118.832855 11.998549 11.966717
v 113.288399 12.712167 13.842765
v 107.467140 -2.884368 14.432298
v 94.521698 5.792521 11.218267
v 106.526314 12.787519 15.120900
v 94.158401 -2.361139 10.719900
v 94.252800 10.709099 14.795902
v 89.753494 -1.578249 9.565790
v 90.132896 9.656068 15.198100
v 83.736992 -1.825847 14.479403
v 83.964897 6.644218 10.018402
v 85.080200 11.239901 5.314300
v 95.396301 13.131601 15.128593
v 110.000145 8.445862 15.342380
v 109.418518 -1.425972 7.065908
v 76.393799 -13.625502 15.568168
v 77.846298 8.772118 20.400898
v 54.289097 -1.670693 17.590654
v 54.503395 10.116369 10.377398
v 54.931702 14.686500 16.290998
v 40.806099 -9.748810 21.569304
v 40.932499 -1.917691 18.260500
v 41.140999 9.745779 11.920703
v 41.425598 14.596600 14.631899
v 65.694702 -9.435280 19.457102
v 65.767601 -1.876590 16.596064
v 66.358200 10.177571 8.513325
v 66.765610 14.694790 0.001044
v 120.092896 13.893181 7.672695
v 119.572609 13.484292 13.682525
v 122.668800 8.579467 24.168699
v 117.580360 -0.521362 24.471502
v 117.724960 7.902589 20.036198
v 107.314034 -1.178838 27.601101
v 115.851013 0.473393 21.938202
v 105.640015 0.316173 14.081123
v 123.015724 4.100595 24.282898
v 118.318199 3.945526 6.101169
v 96.368202 -12.685703 14.039613
v 101.599342 -2.977990 14.591869
v 101.420029 4.274360 10.377422
v 101.301964 11.390562 5.540722
v 115.402588 -8.245820 11.309799
v 122.578979 -0.257027 11.705201
v 95.808296 -9.593968 13.667101
v 89.749100 5.680813 13.949398
v 76.471710 -8.871632 17.581301
v 76.661400 -1.948981 27.617401
v 115.980972 6.998332 24.596996
v 110.916039 -2.420281 11.055773
v 124.836380 4.182371 8.955019
v 124.647293 8.543589 5.420517
v 124.930893 10.291298 0.001219
v 125.067993 10.754913 5.531666
v 106.486107 -11.489704 6.792741
v 84.084702 -11.844100 6.989581
v 65.794899 -13.999801 16.059700
v 54.176495 -9.772020 7.260025
v 54.177204 -14.324162 7.260528
v 40.809074 -14.083070 0.000000
v 40.778797 -14.819800 -0.000001
v 54.149696 -14.958501 -0.000001
v 90.135193 11.467300 0.000079
v 103.037888 13.500988 0.000653
v 113.070229 15.061474 0.000000
v 95.987198 -12.685799 0.000001
v 85.183899 12.223100 5.517297
v 123.325592 -0.300576 0.475542
v 130.926041 9.355337 2.385813
v 126.050964 -4.765961 11.055744
v 123.784348 4.152682 5.519668
v 123.347595 -0.261560 5.785313
v 125.949608 5.133415 5.650300
v 123.902191 7.949770 0.357723
v 126.671646 8.566251 -0.000002
v 133.700607 7.865191 5.446238
v 132.491608 5.164877 4.900729
v 130.074631 0.196883 18.560089
v 121.806335 4.034827 16.177706
v 113.652794 10.835408 18.168335
v 119.222229 9.938165 15.151268
v 108.275688 4.254496 18.047329
v 120.011978 -0.645476 16.035149
v 114.613586 -4.137804 19.153700
v 108.052971 7.768508 -0.000038
v 106.476044 -11.490292 6.501644
v 125.942337 5.092071 0.396412
v 126.917732 9.173772 28.039495
v 103.616974 6.144774 28.232897
v 103.764000 0.468913 33.410599
v 111.808975 6.196323 30.800898
v 107.624039 -2.148537 45.882797
v 92.817703 5.221765 48.243690
v 96.572601 7.533290 45.628502
v 92.772903 -0.168934 50.570702
v 100.195999 5.665717 48.018105
v 96.520882 -3.080159 33.234703
v 111.640007 -0.013562 50.401703
v 100.353996 -0.967566 29.956003
v 108.015961 8.933864 30.468094
v 102.177002 5.725012 35.256195
v 110.276001 6.032040 33.851299
v 105.700989 8.413520 31.771603
v 106.961990 8.656681 35.132008
v 110.077995 0.107736 32.968903
v 106.255005 -1.954430 30.569294
v 102.283005 0.415953 35.612404
v 98.507599 -0.413646 38.209110
v 102.814003 -3.251251 40.890598
v 106.898994 -0.882907 40.991188
v 106.862000 6.128677 38.138866
v 102.794960 8.740550 35.588295
v 98.507301 5.739231 41.660892
v 95.151100 5.433982 43.992786
v 99.190186 8.041162 43.956264
v 99.126717 -3.151009 41.614601
v 95.070984 -0.267001 46.292297
v 103.172997 5.872478 46.296005
v 103.179001 -0.931019 30.086401
v 107.976944 10.355703 27.528999
v 102.722977 6.944330 27.866999
v 102.695015 -0.469681 30.850903
v 107.562019 -3.574699 33.804100
v 112.705025 -0.775835 33.911800
v 113.056969 6.806160 21.603195
v 104.787964 7.567816 24.445992
v 110.497925 10.796700 28.274200
v 116.681961 7.910686 28.157402
v 116.612030 -0.800705 24.604303
v 110.932053 -3.848550 21.584799
v 104.940033 -0.415937 20.695499
v 112.491081 10.776330 19.152500
v 106.340996 3.578038 22.075602
v 111.986053 -4.027412 6.422581
v 89.803696 -11.600400 7.331543
v 128.211456 -1.384581 8.211410
v 130.324677 4.826563 21.885403
v 105.513969 6.815591 24.327301
v 110.616959 9.378330 1.690504
v 122.466843 -2.047517 -0.000001
v 93.972801 13.440401 -0.000002
v 76.412201 -14.021500 -0.000000
v 84.090897 -12.448701 0.000954
v 122.065125 -2.803584 0.000467
v 115.391586 -8.249680 -0.000000
v 89.812004 -11.599901 0.000000
v 65.768799 -14.843798 -0.000001
v 128.656601 -2.561172 6.323157
v 76.461723 13.984079 12.210722
v 123.575027 -0.919979 13.385479
v 124.846085 6.507515 7.758192
v 128.155121 5.440467 7.069002
v 126.612946 -1.253605 5.105576
v 120.438034 -5.170934 1.583590
v 124.189972 -4.695347 2.051037
v 117.618355 -7.953971 0.470851
v 128.974136 10.243687 0.001286
v 125.980240 12.729501 0.000600
v 118.012772 -8.384451 -0.516959
v 123.267624 -5.303755 7.528769
v 81.148697 -8.762569 14.953701
v 80.943398 -0.075080 12.394302
v 81.366699 -6.140409 8.889451
v 81.010399 11.362900 14.035400
v 81.035202 6.443772 8.589963
v 22.134741 -4.303001 8.595241
v 22.133844 13.250119 22.560043
v 22.136911 3.598668 20.578882
v 22.136013 -4.431976 18.073772
v 22.136015 13.489605 2.426302
v 75.632607 -6.673740 17.763000
v 65.879509 2.878401 9.689199
v 65.854309 -9.572644 3.904070
v 65.528404 -6.340468 2.445410
v 65.271904 1.520137 10.412400
v 77.672798 9.522060 15.690301
v 65.990311 -6.195699 5.815640
v 53.184502 -5.582149 7.105598
v 50.159199 9.091470 13.618799
v 50.450603 8.905471 15.852999
v 54.082092 -5.084939 17.825298
v 50.201591 2.928879 4.993751
v 65.629395 9.708788 12.618001
v 65.879898 9.562241 11.407698
v 50.101601 -7.662342 6.158600
v 49.614101 -5.309430 16.121601
v 50.799198 -4.857389 11.767901
v 46.444496 -6.477109 16.483200
v 47.513405 -3.646219 6.905459
v 46.685001 -4.417348 20.217400
v 39.153801 3.323414 15.544300
v 39.476898 10.866200 10.971597
v 54.049400 -7.973230 17.639099
v 52.983696 2.871709 13.285301
v 52.685200 8.863640 6.888340
v 52.251495 9.026969 4.385350
v 51.903091 2.252988 14.621340
v 22.135380 -7.157222 8.044071
v 77.914299 -8.952380 13.343502
v 79.942802 -6.145969 1.860299
v 77.945503 11.167401 12.536401
v 89.766396 -0.168863 10.206001
v 89.768402 -5.702418 5.499462
v 89.767403 -8.094739 7.014801
v 89.769501 10.266101 11.700199
v 89.766998 5.778122 0.000000
v 74.800301 0.591783 0.000000
v 80.861198 11.985700 0.000000
v 89.767189 -8.977000 -0.000000
v 89.772293 10.834199 5.364183
v 22.133331 4.203952 4.905769
v 37.534000 3.478666 4.802031
v 48.877098 2.269960 1.371360
v 74.646706 0.647828 -0.000000
v 76.291000 6.937799 7.938260
v 39.117401 11.145798 3.144131
v 74.739006 9.324311 0.000001
v 75.542198 -7.178351 -0.000001
v 81.068398 -9.729590 -0.000000
v 89.199394 -9.025899 3.874755
v 89.475693 11.331562 5.643810
v 85.826660 12.459168 10.160544
v 89.063332 12.145517 10.000703
v 85.903976 13.655759 6.013462
v 89.588112 13.304946 6.119452
v 86.373993 14.304887 3.129133
v 89.501221 11.302028 3.068795
v 90.070290 12.609891 2.358817
v 86.489189 14.161360 2.671080
v 86.333481 13.003063 4.524322
v 78.351952 15.895834 7.461886
v 79.998398 14.939722 10.160544
v 89.063332 12.145517 10.000703
v 85.903976 13.655759 3.129133
v 89.501221 11.302028 10.000703
v 85.903976 13.655759 6.013462
v 89.588112 13.304946 3.129133
v 89.501221 11.302028 12.210387
v 122.040588 -0.273616 12.511635
v 123.554810 6.546117 5.105214
v 119.043823 -4.286887 2.050681
v 116.284447 -6.889524 8.096547
v 115.347328 -8.204306 6.346635
v 118.175964 -6.322364 4.129379
v 119.873886 -4.624861 1.852979
v 117.920143 -7.461079 4.289956
v 116.111015 -7.949568 5.677976
v 117.815994 -8.035053 2.951911
v 118.800674 -6.135936 8.222496
v 17.556446 -6.040444 8.228406
v 14.522971 14.931586 23.858278
v 16.299154 3.769570 21.640892
v 17.558025 -5.439443 18.837088
v 14.525666 15.228993 14.973013
v 17.858137 -8.823853 4.612098
v 16.294710 4.524130 9.932859
v 15.291852 -5.474612 9.937114
v 12.450788 12.357241 21.196318
v 14.114315 3.435184 19.598997
v 15.293331 -4.911731 17.579235
v 12.453313 12.635784 14.795693
v 15.574409 -8.081473 7.332055
v 14.110148 4.419857 16.577955
v 65.879593 5.057388 16.229647
v 52.887074 5.450975 16.406296
v 50.285603 5.584499 18.901234
v 39.244801 5.910320 21.535904
v 22.136707 6.126959 22.877281
v 15.952670 6.383334 20.395384
v 13.746515 5.633354 14.474274
v 79.882690 5.924056 -0.000000
v 86.447563 12.115167 -0.000000
v 86.631348 12.990047 -0.000000
v 89.183487 10.904441 -0.000000
v 89.606270 11.291518 -0.000000
v 88.933548 10.386488 -0.000001
v 90.177620 13.445774 0.000000
v 86.119942 14.657022 0.000000
v 86.112717 12.992552 0.000540
v 116.524399 -7.320017 0.001206
v 124.690147 11.553438 -5.418104
v 124.926872 10.294716 -6.174027
v 125.942017 5.883394 -18.559113
v 121.806000 4.041527 -13.661029
v 121.584923 -0.295954 -18.046471
v 120.017075 -0.640896 -10.781501
v 115.536530 -6.862112 -5.539780
v 115.402573 -8.245762 -5.531734
v 106.485985 -11.489678 -12.017988
v 106.769005 -8.509441 -13.431752
v 115.181961 -5.253982 -6.101169
v 96.368202 -12.685703 -4.833990
v 90.132797 11.171502 -5.715235
v 85.241203 12.289394 -13.681477
v 122.661804 8.586911 -18.167465
v 119.214996 9.941898 -7.671125
v 112.420410 14.561416 -12.040728
v 118.822517 12.000221 -11.965484
v 113.283592 12.710140 -16.176497
v 113.650856 10.834567 -15.150731
v 108.276222 4.251570 -11.217731
v 106.526901 12.787634 -15.127808
v 109.999054 8.443573 -13.842434
v 107.470360 -2.887717 -16.034050
v 114.619392 -4.138633 -14.591930
v 101.420013 4.274432 -14.039787
v 101.598816 -2.977916 -15.341821
v 109.421288 -1.428460 -5.932582
v 103.725861 13.723801 -11.920501
v 89.752602 -8.462392 -14.795902
v 89.753494 -1.578255 -15.120900
v 94.158401 -2.361144 -11.705200
v 95.808296 -9.593969 -13.667101
v 89.749100 5.680811 -9.565788
v 90.132896 9.656071 -10.719900
v 94.252800 10.709100 -14.432300
v 94.521698 5.792519 -12.456700
v 84.037300 -8.189293 -15.198100
v 83.736992 -1.825848 -14.479402
v 83.964897 6.644219 -10.018402
v 85.080200 11.239901 -10.377380
v 101.301949 11.390615 -5.314301
v 95.396301 13.131600 -7.065910
v 76.393799 -13.625501 -13.949402
v 76.471703 -8.871627 -6.792737
v 84.084702 -11.844103 -17.581299
v 76.661400 -1.948984 -15.568169
v 77.846298 8.772118 -6.323160
v 76.461723 13.984079 -16.059700
v 54.176495 -9.772019 -20.400898
v 54.289097 -1.670691 -19.457102
v 65.767609 -1.876589 -6.989582
v 65.794907 -13.999800 -14.631900
v 65.694695 -9.435279 -17.590652
v 54.503399 10.116367 -10.377398
v 54.931694 14.686502 -8.513322
v 66.765610 14.694787 -16.596066
v 66.358200 10.177574 -16.290998
v 40.806099 -9.748810 -21.569302
v 40.932503 -1.917691 -18.260502
v 41.140999 9.745777 -11.920695
v 41.425598 14.596601 -7.232805
v 54.176102 -14.317410 -7.670787
v 119.567146 13.485019 -14.080081
v 123.014854 4.108609 -24.282902
v 118.317993 3.946190 -24.471500
v 117.724998 7.902550 -24.168699
v 117.580994 -0.520835 -20.695501
v 112.489006 10.775601 -19.153698
v 108.053001 7.768539 -19.152500
v 106.341003 3.578080 -22.075603
v 111.986008 -4.027410 -20.036201
v 107.314011 -1.178801 -27.617403
v 115.981003 6.998289 -24.327293
v 110.616982 9.378330 -21.885401
v 105.514000 6.815630 -24.596994
v 110.916000 -2.420280 -27.601101
v 115.850998 0.473355 -21.938202
v 105.639999 0.316209 -5.515225
v 123.328583 -0.298033 -11.308804
v 122.584389 -0.251344 -11.054630
v 124.834717 4.194515 -8.953289
v 124.641693 8.550967 -6.422582
v 89.803696 -11.600400 -7.212842
v 40.805298 -14.067901 -1.688538
v 122.467354 -2.047501 0.371371
v 130.926056 9.361807 -7.869270
v 130.324768 5.832008 -7.781228
v 128.215103 -0.440533 -5.458042
v 125.949173 5.835693 -11.054657
v 123.782745 4.163077 -5.648082
v 123.900406 7.952651 -5.517592
v 123.350571 -0.259008 -5.446242
v 132.491608 5.164877 -4.900732
v 130.074585 0.196883 -30.086401
v 107.977005 10.355700 -27.528997
v 102.722992 6.944359 -21.603203
v 104.788002 7.567858 -24.445992
v 110.497986 10.796700 -27.867001
v 102.695000 -0.469651 -21.584801
v 104.940002 -0.415892 -33.804096
v 112.704994 -0.775872 -33.911800
v 113.056992 6.806119 -28.274200
v 116.681999 7.910640 -28.157402
v 116.612000 -0.800750 -24.604298
v 110.931999 -3.848549 -30.850903
v 107.561996 -3.574699 -43.992798
v 99.190186 8.041160 -41.660892
v 95.151100 5.433979 -35.588299
v 98.507301 5.739229 -30.468098
v 102.177002 5.725018 -33.851299
v 105.700989 8.413520 -38.138878
v 102.794960 8.740550 -30.569302
v 102.282990 0.415960 -28.232901
v 103.763992 0.468935 -40.991196
v 106.862000 6.128680 -35.131996
v 110.077995 0.107727 -40.890591
v 106.899002 -0.882905 -35.256195
v 110.276001 6.032029 -33.234703
v 111.639999 -0.013591 -30.800894
v 107.624001 -2.148540 -41.614601
v 95.070999 -0.267005 -43.956276
v 99.126762 -3.151009 -38.209099
v 102.814003 -3.251250 -31.771603
v 106.961990 8.656680 -28.039495
v 103.617004 6.144799 -33.410599
v 111.808998 6.196289 -29.956005
v 108.016006 8.933859 -46.295998
v 103.179001 -0.931017 -32.968899
v 106.254990 -1.954430 -35.612400
v 98.507599 -0.413649 -46.292301
v 103.172997 5.872479 -50.570702
v 100.195999 5.665720 -45.882805
v 92.817703 5.221760 -48.243690
v 96.572601 7.533289 -48.018105
v 96.520905 -3.080161 -45.628502
v 92.772903 -0.168938 -50.401695
v 100.353996 -0.967562 -3.309341
v 126.051109 -4.412249 -5.103940
v 120.443008 -5.170052 -2.049854
v 117.618362 -7.953950 -13.384323
v 124.840469 6.520576 -7.360516
v 128.154800 6.384908 -7.516982
v 126.616470 -0.343193 -12.209675
v 123.581329 -0.912962 -2.518942
v 124.190483 -4.440548 -1.371360
v 74.646706 0.647832 -10.412402
v 77.672798 9.522059 -1.860300
v 77.945503 11.167401 -8.889450
v 81.010399 11.362901 -12.394302
v 81.366699 -6.140409 -13.343500
v 79.942795 -6.145973 -14.953701
v 80.943398 -0.075083 -17.762997
v 65.879501 2.878403 -15.690301
v 65.990295 -6.195700 -8.044070
v 77.914299 -8.952380 -9.689200
v 65.854301 -9.572644 -7.528768
v 81.148697 -8.762571 -4.993750
v 65.629395 9.708787 -3.144130
v 74.739006 9.324310 -14.035402
v 81.035202 6.443771 -14.474274
v 79.882690 5.924055 -2.445409
v 65.271896 1.520145 -3.904068
v 65.528397 -6.340469 -2.426302
v 75.632607 -6.673741 -5.815640
v 53.184498 -5.582153 -10.971600
v 54.049408 -7.973229 -6.888341
v 52.251503 9.026970 -4.385350
v 51.903095 2.252995 -13.285301
v 52.685200 8.863639 -16.577953
v 65.879593 5.057389 -16.229649
v 52.887074 5.450974 -15.853001
v 54.082100 -5.084941 -4.802032
v 48.877102 2.269963 -6.158602
v 49.614105 -5.309432 -17.639099
v 52.983696 2.871710 -16.121597
v 50.799194 -4.857391 -7.105599
v 50.159203 9.091468 -13.618799
v 50.450603 8.905469 -12.618000
v 65.879898 9.562241 -11.407700
v 50.101608 -7.662339 -17.825298
v 50.201599 2.928881 -16.406296
v 50.285599 5.584500 -15.544299
v 39.476898 10.866197 -18.901234
v 39.244804 5.910322 -11.767905
v 46.444496 -6.477110 -6.905462
v 46.685001 -4.417351 -16.483200
v 47.513401 -3.646220 -5.364184
v 22.133331 4.203956 -8.589962
v 22.134743 -4.303001 -4.905770
v 37.534004 3.478673 -7.938263
v 39.117401 11.145800 -22.560038
v 22.136913 3.598682 -20.217400
v 39.153801 3.323424 -20.578882
v 22.136015 -4.431977 -14.621344
v 22.135378 -7.157223 -21.535902
v 22.136707 6.126964 -18.073774
v 22.136013 13.489603 -8.595241
v 22.133842 13.250121 -12.536401
v 89.766396 -0.168866 -10.205999
v 89.768402 -5.702422 -5.499461
v 89.767403 -8.094739 -7.014801
v 89.769501 10.266102 -11.700200
v 89.766998 5.778120 -5.643810
v 85.826660 12.459168 -3.874755
v 89.475693 11.331561 -10.160543
v 89.063339 12.145516 -10.000704
v 85.903976 13.655760 -10.000704
v 85.903976 13.655760 -6.119452
v 86.373993 14.304889 -6.013463
v 89.588112 13.304945 -6.013463
v 89.588112 13.304945 -10.160543
v 89.063339 12.145516 -10.000704
v 85.903976 13.655760 -3.129133
v 89.501221 11.302028 -2.358814
v 86.489189 14.161360 -3.129133
v 89.501221 11.302028 -3.068796
v 90.070290 12.609888 -2.049614
v 116.284447 -6.889502 -5.103716
v 119.048309 -4.286773 -12.510551
v 123.550514 6.554352 -12.209416
v 122.045563 -0.267423 -1.851760
v 117.920128 -7.461057 -5.676675
v 117.822678 -8.035541 -2.950468
v 118.806099 -6.136254 -4.288931
v 116.111008 -7.949529 -8.095606
v 115.347305 -8.204224 -6.345263
v 118.181671 -6.322560 -4.127792
v 119.878494 -4.624425 -4.612098
v 16.294710 4.524132 -8.222496
v 17.556448 -6.040445 -21.640894
v 17.558027 -5.439440 -23.858271
v 16.299154 3.769580 -14.973013
v 17.858139 -8.823852 -22.877283
v 15.952671 6.383333 -18.837091
v 14.525667 15.228992 -8.228405
v 14.522970 14.931587 -7.332056
v 14.110149 4.419858 -9.932861
v 15.291852 -5.474613 -19.598999
v 15.293335 -4.911731 -21.196318
v 14.114312 3.435172 -14.795694
v 15.574408 -8.081471 -20.395384
v 13.746516 5.633355 -17.579235
v 12.453314 12.635783 -9.937116
v 12.450789 12.357240 -3.129133
v 89.501221 11.302028 -2.671079
v 86.333481 13.003064 -7.461886
v 79.998398 14.939722 -4.524326
v 78.351952 15.895832 18.560089
v 121.806335 4.034827 12.456701
v 84.037300 -8.189289 15.198100
v 83.736992 -1.825847 10.018402
v 85.080200 11.239901 14.479403
v 83.964897 6.644218 5.715234
v 85.241211 12.289408 18.560089
v 121.806335 4.034827 18.047329
v 120.011978 -0.645476 18.168335
v 119.222229 9.938165 16.177706
v 113.652794 10.835408 15.151268
v 108.275688 4.254496 15.128593
v 110.000145 8.445862 16.035149
v 114.613586 -4.137804 15.342380
v 109.418518 -1.425972 15.128593
v 110.000145 8.445862 19.153700
v 108.052971 7.768508 21.885403
v 105.513969 6.815591 14.081123
v 123.015724 4.100595 11.055773
v 124.836380 4.182371 6.792741
v 84.084702 -11.844100 6.501644
v 125.942337 5.092071 -0.000000
v 84.090897 -12.448701 6.501644
v 125.942337 5.092071 0.396412
v 126.917732 9.173772 5.517297
v 123.325592 -0.300576 0.000954
v 122.065125 -2.803584 27.528999
v 102.722977 6.944330 21.603195
v 104.787964 7.567816 30.468094
v 102.177002 5.725012 28.039495
v 103.616974 6.144774 35.588295
v 98.507301 5.739231 41.660892
v 95.151100 5.433982 45.882797
v 92.817703 5.221765 29.956003
v 108.015961 8.933864 28.039495
v 103.616974 6.144774 28.039495
v 103.616974 6.144774 28.232897
v 103.764000 0.468913 30.800898
v 107.624039 -2.148537 33.234703
v 111.640007 -0.013562 33.410599
v 111.808975 6.196323 1.690504
v 122.466843 -2.047517 0.000001
v 85.183899 12.223100 1.371360
v 74.646706 0.647828 4.385350
v 51.903091 2.252988 4.802031
v 48.877098 2.269960 4.905769
v 37.534000 3.478666 2.445410
v 65.271904 1.520137 5.364183
v 22.133331 4.203952 0.000000
v 74.800301 0.591783 -0.000000
v 89.606270 11.291518 0.000000
v 86.119942 14.657022 -0.000001
v 90.177620 13.445774 -0.000000
v 88.933548 10.386488 4.612098
v 16.294710 4.524130 7.332055
v 14.110148 4.419857 17.639099
v 52.983696 2.871709 16.577955
v 65.879593 5.057388 16.229647
v 52.887074 5.450975 17.763000
v 65.879509 2.878401 17.825298
v 50.201591 2.928879 16.406296
v 50.285603 5.584499 20.217400
v 39.153801 3.323414 18.901234
v 39.244801 5.910320 22.560043
v 22.136911 3.598668 21.535904
v 22.136707 6.126959 23.858278
v 16.299154 3.769570 22.877281
v 15.952670 6.383334 21.196318
v 14.114315 3.435184 20.395384
v 13.746515 5.633354 -0.000000
v 89.183487 10.904441 3.874755
v 89.475693 11.331562 -0.000001
v 90.177620 13.445774 0.000000
v 86.112717 12.992552 2.671080
v 86.333481 13.003063 0.000000
v 86.112717 12.992552 0.000540
v 116.524399 -7.320017 0.001286
v 125.980240 12.729501 0.001219
v 125.067993 10.754913 0.396412
v 126.917732 9.173772 -0.000001
v 90.135193 11.467300 -18.559113
v 121.806000 4.041527 -12.456700
v 84.037300 -8.189293 -15.198100
v 83.736992 -1.825848 -10.018402
v 85.080200 11.239901 -14.479402
v 83.964897 6.644219 -5.715235
v 85.241203 12.289394 0.000653
v 113.070229 15.061474 0.000079
v 103.037888 13.500988 0.001044
v 120.092896 13.893181 -18.559113
v 121.806000 4.041527 -18.046471
v 120.017075 -0.640896 -18.167465
v 119.214996 9.941898 -16.176497
v 113.650856 10.834567 -15.150731
v 108.276222 4.251570 -15.127808
v 109.999054 8.443573 -16.034050
v 114.619392 -4.138633 -15.341821
v 109.421288 -1.428460 -19.153698
v 108.053001 7.768539 -15.127808
v 109.999054 8.443573 -21.885401
v 105.514000 6.815630 -14.080081
v 123.014854 4.108609 -0.000001
v 93.972801 13.440401 -11.054630
v 124.834717 4.194515 -6.792737
v 84.084702 -11.844103 -6.174027
v 125.942017 5.883394 -0.000000
v 84.090897 -12.448701 -0.000002
v 76.412201 -14.021500 0.000467
v 115.391586 -8.249680 0.000954
v 122.065125 -2.803584 -0.000038
v 106.476044 -11.490292 0.000000
v 95.987198 -12.685799 -0.000000
v 89.812004 -11.599901 -0.000000
v 84.090897 -12.448701 0.000000
v 65.768799 -14.843798 -0.000001
v 54.149696 -14.958501 -7.232805
v 54.176102 -14.317410 -0.000001
v 54.149696 -14.958501 0.000000
v 40.778797 -14.819800 -7.212842
v 40.805298 -14.067901 0.000001
v 85.183899 12.223100 -6.174027
v 125.942017 5.883394 0.396412
v 126.917732 9.173772 -5.515225
v 123.328583 -0.298033 0.357723
v 126.671646 8.566251 -0.000002
v 133.700607 7.865191 -0.000001
v 128.656601 -2.561172 0.000954
v 122.065125 -2.803584 -21.603203
v 104.788002 7.567858 -27.528997
v 102.722992 6.944359 -30.468098
v 102.177002 5.725018 -28.039495
v 103.617004 6.144799 -35.588299
v 98.507301 5.739229 -41.660892
v 95.151100 5.433979 -45.882805
v 92.817703 5.221760 -29.956005
v 108.016006 8.933859 -28.039495
v 103.617004 6.144799 -28.039495
v 103.617004 6.144799 -28.232901
v 103.763992 0.468935 -30.800894
v 107.624001 -2.148540 -33.234703
v 111.639999 -0.013591 -33.410599
v 111.808998 6.196289 -1.688538
v 122.467354 -2.047501 0.000001
v 85.183899 12.223100 -0.516959
v 123.267624 -5.303755 0.000600
v 118.012772 -8.384451 0.001286
v 125.980240 12.729501 0.470851
v 128.974136 10.243687 -0.000000
v 76.291000 6.937799 0.000000
v 74.800301 0.591783 -1.371360
v 74.646706 0.647832 -4.385350
v 51.903095 2.252995 -4.802032
v 48.877102 2.269963 -4.905770
v 37.534004 3.478673 -2.445409
v 65.271896 1.520145 -5.364184
v 22.133331 4.203956 0.000001
v 75.542198 -7.178351 0.000000
v 74.800301 0.591783 0.000000
v 80.861198 11.985700 -0.000001
v 81.068398 -9.729590 -0.000000
v 89.772293 10.834199 -0.000000
v 89.199394 -9.025899 0.000000
v 89.767189 -8.977000 -0.000000
v 86.631348 12.990047 -0.000000
v 89.183487 10.904441 -0.000000
v 89.606270 11.291518 -0.000000
v 88.933548 10.386488 0.000000
v 86.119942 14.657022 0.000000
v 86.112717 12.992552 -0.000000
v 89.606270 11.291518 -0.000001
v 90.177620 13.445774 -0.000001
v 90.177620 13.445774 0.000000
v 86.119942 14.657022 -0.000000
v 86.447563 12.115167 -0.000000
v 88.933548 10.386488 -4.612098
v 16.294710 4.524132 -7.332056
v 14.110149 4.419858 -16.229649
v 52.887074 5.450974 -16.577953
v 65.879593 5.057389 -17.639099
v 52.983696 2.871710 -17.762997
v 65.879501 2.878403 -16.406296
v 50.285599 5.584500 -17.825298
v 50.201599 2.928881 -20.217400
v 39.153801 3.323424 -18.901234
v 39.244804 5.910322 -21.535902
v 22.136707 6.126964 -22.560038
v 22.136913 3.598682 -23.858271
v 16.299154 3.769580 -22.877283
v 15.952671 6.383333 -21.196318
v 14.114312 3.435172 -20.395384
v 13.746516 5.633355 -0.000000
v 89.183487 10.904441 -3.874755
v 89.475693 11.331561 -0.000001
v 90.177620 13.445774 -2.671079
v 86.333481 13.003064 0.000000
v 86.112717 12.992552 0.000000
v 86.112717 12.992552 0.000540
v 116.524399 -7.320017 0.000540
v 116.524399 -7.320017 0.001206
v 124.690147 11.553438 0.001286
v 125.980240 12.729501 0.214844

vt 0.906250 0.824219
vt 0.718750 0.835938
vt 0.816406 0.796875
vt 0.816406 0.808594
vt 0.531250 0.800781
vt 0.476562 0.449219
vt 0.804688 0.429688
vt 0.710938 0.406250
vt 0.566406 0.406250
vt 0.476562 0.511719
vt 0.875000 0.511719
vt 0.816406 0.734375
vt 0.734375 0.589844
vt 0.601562 0.500000
vt 0.746094 0.710938
vt 0.585938 0.496094
vt 0.609375 0.695312
vt 0.539062 0.488281
vt 0.554688 0.695312
vt 0.476562 0.566406
vt 0.476562 0.472656
vt 0.476562 0.421875
vt 0.625000 0.586547
vt 0.781959 0.709619
vt 0.770341 0.382767
vt 0.378970 0.395641
vt 0.119674 0.149155
vt 0.207783 0.151421
vt 0.094481 0.153225
vt 0.014717 0.006930
vt 0.293416 0.008290
vt 0.202775 0.007801
vt 0.088732 0.005995
vt 0.013707 0.267765
vt 0.300484 0.268444
vt 0.216092 0.274669
vt 0.101389 0.280704
vt 0.014860 0.342773
vt 0.886719 0.453125
vt 0.882812 0.542969
vt 0.925781 0.797694
vt 0.400389 0.874099
vt 0.399521 0.692399
vt 0.399521 0.806138
vt 0.366583 0.677456
vt 0.365715 0.753906
vt 0.949219 0.839938
vt 0.399521 0.917969
vt 0.609375 0.730469
vt 0.671875 0.621094
vt 0.679688 0.496094
vt 0.687500 0.917969
vt 0.816406 0.820312
vt 0.917969 0.828125
vt 0.601562 0.574219
vt 0.542969 0.381924
vt 0.299562 0.383964
vt 0.224628 0.868675
vt 0.365715 0.741726
vt 0.365715 0.804688
vt 0.972656 0.480469
vt 0.945312 0.429688
vt 0.937500 0.342773
vt 0.949219 0.925781
vt 0.710938 0.467562
vt 0.373846 0.271958
vt 0.384781 0.147111
vt 0.294262 0.150162
vt 0.387569 0.008913
vt 0.390074 0.012517
vt 0.459789 0.154582
vt 0.456760 0.342773
vt 0.566406 0.342773
vt 0.707031 0.342773
vt 0.816406 0.995443
vt 0.601562 0.343750
vt 0.476562 0.917969
vt 0.945312 0.563202
vt 0.309245 0.563202
vt 0.459274 0.714991
vt 0.875842 0.683764
vt 0.898809 0.689236
vt 0.850667 0.715082
vt 0.836454 0.686305
vt 0.799495 0.638320
vt 0.790250 0.634947
vt 0.836809 0.632921
vt 0.878095 0.703125
vt 0.937500 0.570922
vt 0.826856 0.595019
vt 0.889356 0.634791
vt 0.759281 0.726562
vt 0.882812 0.753906
vt 0.820312 0.615844
vt 0.399521 0.995443
vt 0.710938 0.464844
vt 0.992188 0.342773
vt 0.980469 0.997188
vt 0.234523 0.933567
vt 0.234523 0.739165
vt 0.234523 0.869914
vt 0.234523 0.618335
vt 0.019514 0.679642
vt 0.019514 0.933567
vt 0.019514 0.739165
vt 0.019514 0.869914
vt 0.019514 0.807687
vt 0.234523 0.807687
vt 0.019514 0.679642
vt 0.234523 0.618335
vt 0.204786 0.739165
vt 0.204786 0.679642
vt 0.198904 0.679642
vt 0.234523 0.807687
vt 0.204786 0.869914
vt 0.204786 0.933567
vt 0.204786 0.933567
vt 0.138543 0.869914
vt 0.138543 0.807687
vt 0.138543 0.739165
vt 0.138543 0.679642
vt 0.138543 0.618335
vt 0.138543 0.618335
vt 0.070093 0.679642
vt 0.070093 0.869914
vt 0.070093 0.933567
vt 0.070093 0.739165
vt 0.070093 0.807687
vt 0.070093 0.932645
vt 0.279840 0.996582
vt 0.279840 0.677456
vt 0.279840 0.741726
vt 0.279840 0.806138
vt 0.280708 0.868675
vt 0.279840 0.996582
vt 0.340938 0.932645
vt 0.340938 0.868675
vt 0.340938 0.806138
vt 0.341806 0.741726
vt 0.340938 0.677456
vt 0.340938 0.932645
vt 0.399521 0.655764
vt 0.399521 0.741726
vt 0.399521 0.902344
vt 0.535156 0.563202
vt 0.413394 0.563202
vt 0.356142 0.615844
vt 0.365715 0.932645
vt 0.365715 0.968750
vt 0.921875 0.342773
vt 0.609375 0.389625
vt 0.445690 0.471274
vt 0.440847 0.995443
vt 0.914062 0.995443
vt 0.816406 0.995443
vt 0.535156 0.277285
vt 0.451826 0.628598
vt 0.926299 0.387200
vt 0.016069 0.521318
vt 0.344010 0.521318
vt 0.284801 0.553166
vt 0.284801 0.553166
vt 0.344010 0.521318
vt 0.390657 0.553166
vt 0.390657 0.521318
vt 0.426086 0.553166
vt 0.210382 0.521318
vt 0.210382 0.521318
vt 0.460858 0.553942
vt 0.460858 0.243789
vt 0.874789 0.167056
vt 0.841525 0.207087
vt 0.842222 0.085162
vt 0.858883 0.128051
vt 0.839253 0.246539
vt 0.579949 0.061422
vt 0.574523 0.143045
vt 0.576177 0.187913
vt 0.577460 0.101995
vt 0.575041 0.295932
vt 0.850105 0.149891
vt 0.771486 0.244035
vt 0.779180 0.283187
vt 0.775701 0.320226
vt 0.763552 0.093188
vt 0.833235 0.203909
vt 0.777922 0.267805
vt 0.694563 0.058765
vt 0.679752 0.101664
vt 0.679262 0.199035
vt 0.696177 0.149846
vt 0.678759 0.050413
vt 0.774411 0.098080
vt 0.773422 0.231932
vt 0.678133 0.265085
vt 0.674306 0.199356
vt 0.677604 0.230527
vt 0.655299 0.195210
vt 0.657700 0.263792
vt 0.656564 0.150177
vt 0.622473 0.103861
vt 0.624221 0.233196
vt 0.700970 0.149079
vt 0.695827 0.100326
vt 0.693274 0.058148
vt 0.692614 0.013086
vt 0.690913 0.217307
vt 0.578822 0.247039
vt 0.840335 0.207087
vt 0.842222 0.033888
vt 0.854713 0.164871
vt 0.902564 0.205380
vt 0.907870 0.240330
vt 0.918922 0.079872
vt 0.908338 0.123781
vt 0.902452 0.006079
vt 0.818891 0.016715
vt 0.876901 0.277654
vt 0.934619 0.026475
vt 0.918484 0.300501
vt 0.580925 0.304808
vt 0.606897 0.308192
vt 0.660976 0.006079
vt 0.818891 0.004172
vt 0.843608 0.061793
vt 0.625405 0.039489
vt 0.824736 0.316331
vt 0.861047 0.306297
vt 0.884549 0.283232
vt 0.922616 0.682185
vt 0.991812 0.699635
vt 0.957115 0.742437
vt 0.988739 0.741346
vt 0.958462 0.600414
vt 0.125470 0.532550
vt 0.125470 0.928089
vt 0.995884 0.940226
vt 0.985247 0.978615
vt 0.961639 0.995401
vt 0.958098 0.527883
vt 0.182024 0.484734
vt 0.182472 0.600414
vt 0.183460 0.532550
vt 0.183460 0.928089
vt 0.995884 0.532550
vt 0.183460 0.600414
vt 0.125470 0.573000
vt 0.977594 0.488315
vt 0.344010 0.488315
vt 0.284801 0.488315
vt 0.390657 0.488315
vt 0.426086 0.604846
vt 0.866656 0.626622
vt 0.833654 0.625980
vt 0.797763 0.584767
vt 0.798826 0.581745
vt 0.833264 0.605677
vt 0.833264 0.602945
vt 0.797763 0.246539
vt 0.527362 0.061422
vt 0.521936 0.143045
vt 0.523590 0.187913
vt 0.524873 0.101995
vt 0.522454 0.217307
vt 0.526235 0.292006
vt 0.528338 0.246539
vt 0.501971 0.061422
vt 0.496545 0.143045
vt 0.498198 0.187913
vt 0.499481 0.101995
vt 0.497062 0.217307
vt 0.500844 0.292006
vt 0.502946 0.137957
vt 0.771932 0.133296
vt 0.695001 0.133593
vt 0.678929 0.137132
vt 0.622966 0.133674
vt 0.575917 0.135025
vt 0.523368 0.133955
vt 0.497947 0.128253
vt 0.838627 0.645502
vt 0.962274 0.532550
vt 0.048548 0.600414
vt 0.049168 0.625433
vt 0.968155 0.628214
vt 0.983311 0.925579
vt 0.950380 0.972957
vt 0.932898 0.996188
vt 0.925490 0.488320
vt 0.460853 0.488315
vt 0.210384 0.429688
vt 0.937500 0.464844
vt 0.992188 0.703125
vt 0.937500 0.785156
vt 0.906250 0.726562
vt 0.882812 0.835938
vt 0.816406 0.917969
vt 0.816406 0.925781
vt 0.710938 0.824219
vt 0.718750 0.796875
vt 0.816406 0.917969
vt 0.609375 0.406250
vt 0.566406 0.406250
vt 0.476562 0.542969
vt 0.925781 0.595019
vt 0.889356 0.449219
vt 0.804688 0.511719
vt 0.875000 0.511719
vt 0.816406 0.570922
vt 0.826856 0.634791
vt 0.759281 0.500000
vt 0.746094 0.586547
vt 0.781959 0.734375
vt 0.734375 0.753906
vt 0.820312 0.621094
vt 0.679688 0.730469
vt 0.671875 0.709619
vt 0.770341 0.429688
vt 0.710938 0.808594
vt 0.531250 0.695312
vt 0.539062 0.710938
vt 0.585938 0.828125
vt 0.601562 0.574219
vt 0.542969 0.488281
vt 0.554688 0.496094
vt 0.609375 0.589844
vt 0.601562 0.800781
vt 0.476562 0.695312
vt 0.476562 0.566406
vt 0.476562 0.472656
vt 0.476562 0.496094
vt 0.687500 0.421875
vt 0.625000 0.382767
vt 0.378970 0.381924
vt 0.299562 0.467562
vt 0.373846 0.383964
vt 0.224628 0.395641
vt 0.119674 0.387200
vt 0.016069 0.147111
vt 0.294262 0.149155
vt 0.207783 0.268444
vt 0.216092 0.271958
vt 0.384781 0.267765
vt 0.300484 0.151421
vt 0.094481 0.153225
vt 0.014717 0.280704
vt 0.014860 0.274669
vt 0.101389 0.006930
vt 0.293416 0.008290
vt 0.202775 0.007801
vt 0.088732 0.005995
vt 0.013707 0.150162
vt 0.387569 0.453125
vt 0.882812 0.753906
vt 0.949219 0.839938
vt 0.399521 0.874099
vt 0.399521 0.797694
vt 0.400389 0.932645
vt 0.399521 0.615844
vt 0.399521 0.655764
vt 0.399521 0.741726
vt 0.399521 0.692399
vt 0.399521 0.868675
vt 0.365715 0.932645
vt 0.365715 0.615844
vt 0.365715 0.741726
vt 0.365715 0.806138
vt 0.366583 0.677456
vt 0.365715 0.917969
vt 0.945312 0.820312
vt 0.917969 0.804688
vt 0.972656 0.480469
vt 0.945312 0.902344
vt 0.535156 0.008913
vt 0.390074 0.968750
vt 0.921875 0.563202
vt 0.309245 0.563202
vt 0.356142 0.563202
vt 0.413394 0.689236
vt 0.850667 0.714991
vt 0.875842 0.715082
vt 0.836454 0.683764
vt 0.898809 0.634947
vt 0.836809 0.632921
vt 0.878095 0.932645
vt 0.279840 0.996582
vt 0.279840 0.996582
vt 0.340938 0.932645
vt 0.340938 0.677456
vt 0.279840 0.677456
vt 0.340938 0.806138
vt 0.280708 0.868675
vt 0.279840 0.868675
vt 0.340938 0.806138
vt 0.341806 0.741726
vt 0.340938 0.741726
vt 0.279840 0.679642
vt 0.070093 0.618335
vt 0.070093 0.618335
vt 0.138543 0.618335
vt 0.204786 0.679642
vt 0.198904 0.679642
vt 0.138543 0.933567
vt 0.204786 0.933567
vt 0.234523 0.739165
vt 0.138543 0.807687
vt 0.204786 0.807687
vt 0.138543 0.739165
vt 0.204786 0.807687
vt 0.234523 0.869914
vt 0.234523 0.933567
vt 0.070093 0.869914
vt 0.070093 0.869914
vt 0.138543 0.679642
vt 0.234523 0.997188
vt 0.234523 0.739165
vt 0.234523 0.679642
vt 0.234523 0.807687
vt 0.070093 0.869914
vt 0.204786 0.933567
vt 0.138543 0.739165
vt 0.070093 0.739165
vt 0.019514 0.618335
vt 0.019514 0.679642
vt 0.019514 0.869914
vt 0.019514 0.933567
vt 0.019514 0.807687
vt 0.019514 0.563202
vt 0.459274 0.521318
vt 0.390657 0.521318
vt 0.426086 0.521318
vt 0.284801 0.553166
vt 0.284801 0.553166
vt 0.344010 0.521318
vt 0.344010 0.553166
vt 0.390657 0.006079
vt 0.818891 0.093188
vt 0.833235 0.033888
vt 0.854713 0.085162
vt 0.858883 0.207087
vt 0.842222 0.207087
vt 0.842222 0.167056
vt 0.841525 0.149891
vt 0.771486 0.203909
vt 0.777922 0.247039
vt 0.840335 0.244035
vt 0.779180 0.243789
vt 0.874789 0.050413
vt 0.774411 0.039489
vt 0.824736 0.128051
vt 0.839253 0.128253
vt 0.838627 0.320226
vt 0.763552 0.283187
vt 0.775701 0.295932
vt 0.850105 0.267805
vt 0.694563 0.233196
vt 0.700970 0.058148
vt 0.692614 0.013086
vt 0.690913 0.100326
vt 0.693274 0.137957
vt 0.771932 0.133296
vt 0.695001 0.199035
vt 0.696177 0.308192
vt 0.660976 0.265085
vt 0.674306 0.149079
vt 0.695827 0.199356
vt 0.677604 0.058765
vt 0.679752 0.101664
vt 0.679262 0.098080
vt 0.773422 0.231932
vt 0.678133 0.149846
vt 0.678759 0.133593
vt 0.678929 0.103861
vt 0.624221 0.137132
vt 0.622966 0.230527
vt 0.655299 0.263792
vt 0.656564 0.195210
vt 0.657700 0.300501
vt 0.580925 0.246539
vt 0.579949 0.304808
vt 0.606897 0.061793
vt 0.625405 0.143045
vt 0.576177 0.150177
vt 0.622473 0.187913
vt 0.577460 0.217307
vt 0.578822 0.133674
vt 0.575917 0.101995
vt 0.575041 0.061422
vt 0.574523 0.164871
vt 0.902564 0.205380
vt 0.907870 0.240330
vt 0.918922 0.079872
vt 0.908338 0.123781
vt 0.902452 0.699635
vt 0.957115 0.682185
vt 0.991812 0.742437
vt 0.988739 0.741346
vt 0.958462 0.532550
vt 0.183460 0.532550
vt 0.125470 0.600414
vt 0.125470 0.600414
vt 0.125470 0.600414
vt 0.183460 0.532550
vt 0.183460 0.573000
vt 0.977594 0.978615
vt 0.961639 0.928089
vt 0.995884 0.940226
vt 0.985247 0.488315
vt 0.426086 0.488315
vt 0.390657 0.488315
vt 0.284801 0.488315
vt 0.344010 0.584767
vt 0.798826 0.605677
vt 0.833264 0.602945
vt 0.797763 0.581745
vt 0.833264 0.604846
vt 0.866656 0.626622
vt 0.833654 0.625980
vt 0.797763 0.292006
vt 0.528338 0.246539
vt 0.527362 0.187913
vt 0.524873 0.143045
vt 0.523590 0.217307
vt 0.526235 0.135025
vt 0.523368 0.101995
vt 0.522454 0.061422
vt 0.521936 0.292006
vt 0.502946 0.246539
vt 0.501971 0.187913
vt 0.499481 0.143045
vt 0.498198 0.217307
vt 0.500844 0.133955
vt 0.497947 0.101995
vt 0.497062 0.061422
vt 0.496545 0.928089
vt 0.995884 0.995401
vt 0.958098 0.484734
vt 0.182472 0.527883
vt 0.182024 0.632812
vt 0.949219 0.468000
vt 0.304094 0.467525
vt 0.230444 0.475192
vt 0.080622 0.466572
vt 0.140122 0.492699
vt 0.048989 0.841070
vt 0.453782 0.792869
vt 0.454650 0.895087
vt 0.453782 0.932645
vt 0.453782 0.654426
vt 0.453782 0.615844
vt 0.453782 0.741726
vt 0.453782 0.692432
vt 0.453782 0.996582
vt 0.453782 0.996582
vt 0.399521 0.996582
vt 0.365715 0.570312
vt 0.968750 0.527344
vt 0.984375 0.902344
vt 0.476562 0.878906
vt 0.984375 0.995443
vt 0.476562 0.604343
vt 0.356142 0.604343
vt 0.309245 0.604343
vt 0.413394 0.665289
vt 0.939446 0.615844
vt 0.279840 0.615844
vt 0.340938 0.997188
vt 0.204786 0.618335
vt 0.234523 0.997188
vt 0.138543 0.997188
vt 0.070093 0.997188
vt 0.019514 0.932645
vt 0.254512 0.996582
vt 0.254512 0.615844
vt 0.254512 0.677456
vt 0.254512 0.741726
vt 0.254512 0.806138
vt 0.255380 0.868675
vt 0.254512 0.604343
vt 0.459274 0.521558
vt 0.012340 0.325447
vt 0.822491 0.309458
vt 0.679745 0.013436
vt 0.673637 0.014348
vt 0.618454 0.007181
vt 0.767195 0.016921
vt 0.573643 0.325447
vt 0.822491 0.904713
vt 0.966530 0.972957
vt 0.932898 0.925579
vt 0.950380 0.645155
vt 0.986080 0.016921
vt 0.521056 0.016921
vt 0.495665 0.207941
vt 0.467643 0.269633
vt 0.485819 0.207941
vt 0.485819 0.269632
vt 0.467643 0.194543
vt 0.467643 0.194543
vt 0.485819 0.149160
vt 0.467643 0.149160
vt 0.485819 0.111421
vt 0.467643 0.111421
vt 0.485819 0.068914
vt 0.467644 0.068914
vt 0.485819 0.048370
vt 0.467644 0.048371
vt 0.485820 0.600414
vt 0.049168 0.560423
vt 0.979390 0.925579
vt 0.950380 0.531045
vt 0.019628 0.484303
vt 0.075784 0.531045
vt 0.019628 0.488315
vt 0.460853 0.521310
vt 0.210382 0.342773
vt 0.949219 0.342773
vt 0.980469 0.342773
vt 0.566406 0.632812
vt 0.949219 0.468000
vt 0.304094 0.467525
vt 0.230444 0.475192
vt 0.080622 0.466572
vt 0.140122 0.492699
vt 0.048989 0.342773
vt 0.816406 0.342773
vt 0.707031 0.342773
vt 0.886719 0.841070
vt 0.453782 0.792869
vt 0.454650 0.895087
vt 0.453782 0.932645
vt 0.453782 0.654426
vt 0.453782 0.615844
vt 0.453782 0.741726
vt 0.453782 0.692432
vt 0.453782 0.996582
vt 0.399521 0.996582
vt 0.453782 0.996582
vt 0.365715 0.570312
vt 0.968750 0.342773
vt 0.609375 0.527344
vt 0.984375 0.902344
vt 0.476562 0.878906
vt 0.984375 0.471274
vt 0.440847 0.389625
vt 0.445690 0.995443
vt 0.816406 0.995443
vt 0.914062 0.995443
vt 0.710938 0.995443
vt 0.601562 0.995443
vt 0.535156 0.995443
vt 0.476562 0.277285
vt 0.451826 0.154582
vt 0.456760 0.166072
vt 0.985800 0.170492
vt 0.925840 0.028427
vt 0.922811 0.024823
vt 0.983294 0.343750
vt 0.476562 0.604343
vt 0.356142 0.604343
vt 0.309245 0.604343
vt 0.413394 0.686305
vt 0.799495 0.638320
vt 0.790250 0.628598
vt 0.926299 0.665289
vt 0.939446 0.615844
vt 0.340938 0.615844
vt 0.279840 0.997188
vt 0.204786 0.618335
vt 0.234523 0.997188
vt 0.138543 0.997188
vt 0.070093 0.997188
vt 0.019514 0.932645
vt 0.254512 0.996582
vt 0.254512 0.615844
vt 0.254512 0.677456
vt 0.254512 0.741726
vt 0.254512 0.806138
vt 0.255380 0.868675
vt 0.254512 0.604343
vt 0.459274 0.521558
vt 0.012340 0.553942
vt 0.460858 0.521318
vt 0.460858 0.521318
vt 0.210382 0.553166
vt 0.210382 0.004172
vt 0.843608 0.006079
vt 0.818891 0.325447
vt 0.822491 0.309458
vt 0.679745 0.013436
vt 0.673637 0.014348
vt 0.618454 0.007181
vt 0.767195 0.016921
vt 0.573643 0.316331
vt 0.861047 0.325447
vt 0.822491 0.016715
vt 0.876901 0.306297
vt 0.884549 0.026475
vt 0.918484 0.283232
vt 0.922616 0.277654
vt 0.934619 0.532550
vt 0.048548 0.600414
vt 0.049168 0.625433
vt 0.968155 0.628214
vt 0.983311 0.972957
vt 0.932898 0.996188
vt 0.925490 0.904713
vt 0.966530 0.925579
vt 0.950380 0.925579
vt 0.950380 0.972957
vt 0.932898 0.645502
vt 0.962274 0.645155
vt 0.986080 0.016921
vt 0.521056 0.016921
vt 0.495665 0.207941
vt 0.485819 0.269633
vt 0.485819 0.207941
vt 0.467643 0.269632
vt 0.467643 0.194543
vt 0.485819 0.194543
vt 0.467643 0.149160
vt 0.467643 0.149160
vt 0.485819 0.111421
vt 0.485819 0.111421
vt 0.467643 0.068914
vt 0.467644 0.068914
vt 0.485819 0.048370
vt 0.467644 0.048371
vt 0.485820 0.600414
vt 0.049168 0.560423
vt 0.979390 0.925579
vt 0.950380 0.484303
vt 0.075784 0.531045
vt 0.019628 0.531045
vt 0.019628 0.488320
vt 0.460853 0.488315
vt 0.460853 0.488315
vt 0.210384 0.521310
vt 0.210382 1.000000

f 63/63 98/98 64/64
f 98/98 63/63 97/97
f 89/89 93/93 1/1
f 3/3 65/65 53/53
f 2/2 3/3 4/4
f 4/4 3/3 1/1
f 1/1 93/93 4/4
f 2/2 49/49 65/65
f 73/73 10/10 9/9
f 41/41 91/91 540/540
f 7/7 12/12 11/11
f 91/91 11/11 12/12
f 12/12 90/90 91/91
f 92/92 24/24 15/15
f 13/13 4/4 94/94
f 4/4 13/13 2/2
f 94/94 4/4 93/93
f 24/24 12/12 15/15
f 15/15 51/51 92/92
f 13/13 92/92 50/50
f 92/92 13/13 25/25
f 15/15 7/7 8/8
f 7/7 15/15 12/12
f 12/12 24/24 90/90
f 13/13 50/50 2/2
f 5/5 16/16 18/18
f 16/16 5/5 55/55
f 56/56 17/17 19/19
f 17/17 56/56 14/14
f 16/16 14/14 56/56
f 56/56 18/18 16/16
f 5/5 18/18 6/6
f 20/20 6/6 18/18
f 21/21 19/19 22/22
f 19/19 21/21 56/56
f 20/20 56/56 21/21
f 56/56 20/20 18/18
f 22/22 9/9 10/10
f 9/9 22/22 19/19
f 8/8 17/17 52/52
f 17/17 23/23 9/9
f 9/9 19/19 17/17
f 94/94 25/25 13/13
f 26/26 541/541 57/57
f 541/541 26/26 66/66
f 57/57 542/542 58/58
f 542/542 57/57 541/541
f 27/27 543/543 159/159
f 543/543 27/27 544/544
f 58/58 544/544 27/27
f 544/544 58/58 542/542
f 545/545 159/159 543/543
f 68/68 36/36 28/28
f 57/57 67/67 26/26
f 58/58 35/35 57/57
f 29/29 38/38 30/30
f 28/28 37/37 29/29
f 27/27 36/36 58/58
f 31/31 28/28 32/32
f 28/28 31/31 68/68
f 33/33 30/30 34/34
f 30/30 33/33 29/29
f 32/32 29/29 33/33
f 29/29 32/32 28/28
f 57/57 35/35 67/67
f 35/35 69/69 67/67
f 58/58 36/36 35/35
f 36/36 68/68 35/35
f 37/37 28/28 36/36
f 29/29 37/37 38/38
f 159/159 38/38 37/37
f 159/159 37/37 27/27
f 27/27 37/37 36/36
f 74/74 7/7 75/75
f 39/39 7/7 40/40
f 7/7 11/11 40/40
f 11/11 91/91 41/41
f 47/47 89/89 1/1
f 48/48 546/546 43/43
f 546/546 42/42 547/547
f 548/548 43/43 546/546
f 548/548 549/549 142/142
f 142/142 43/43 548/548
f 95/95 550/550 143/143
f 550/550 95/95 551/551
f 144/144 547/547 42/42
f 547/547 144/144 552/552
f 143/143 553/553 44/44
f 553/553 143/143 550/550
f 142/142 554/554 555/555
f 554/554 142/142 549/549
f 44/44 552/552 144/144
f 552/552 44/44 553/553
f 59/59 142/142 149/149
f 142/142 59/59 43/43
f 143/143 148/148 95/95
f 60/60 42/42 45/45
f 42/42 60/60 144/144
f 143/143 44/44 46/46
f 46/46 148/148 143/143
f 149/149 555/555 556/556
f 555/555 149/149 142/142
f 46/46 144/144 60/60
f 144/144 46/46 44/44
f 41/41 540/540 557/557
f 42/42 546/546 48/48
f 45/45 48/48 59/59
f 48/48 45/45 42/42
f 2/2 55/55 49/49
f 8/8 23/23 17/17
f 23/23 74/74 151/151
f 50/50 55/55 2/2
f 55/55 50/50 16/16
f 14/14 16/16 50/50
f 50/50 92/92 51/51
f 50/50 51/51 14/14
f 15/15 52/52 51/51
f 52/52 14/14 51/51
f 14/14 52/52 17/17
f 8/8 52/52 15/15
f 78/78 3/3 53/53
f 3/3 78/78 54/54
f 41/41 40/40 11/11
f 3/3 2/2 65/65
f 3/3 54/54 1/1
f 1/1 54/54 47/47
f 54/54 61/61 47/47
f 557/557 558/558 41/41
f 558/558 62/62 41/41
f 40/40 41/41 62/62
f 145/145 55/55 5/5
f 55/55 145/145 49/49
f 559/559 5/5 6/6
f 5/5 559/559 145/145
f 62/62 63/63 40/40
f 63/63 39/39 40/40
f 39/39 63/63 64/64
f 54/54 560/560 61/61
f 560/560 54/54 78/78
f 558/558 97/97 62/62
f 62/62 97/97 63/63
f 152/152 153/153 66/66
f 154/154 53/53 155/155
f 155/155 65/65 96/96
f 96/96 49/49 76/76
f 156/156 76/76 49/49
f 561/561 156/156 145/145
f 68/68 69/69 35/35
f 70/70 69/69 68/68
f 68/68 31/31 70/70
f 157/157 152/152 26/26
f 26/26 67/67 157/157
f 72/72 157/157 67/67
f 67/67 69/69 72/72
f 71/71 72/72 69/69
f 69/69 70/70 71/71
f 10/10 73/73 77/77
f 8/8 74/74 23/23
f 9/9 151/151 73/73
f 151/151 9/9 23/23
f 7/7 74/74 8/8
f 75/75 7/7 39/39
f 66/66 26/26 152/152
f 53/53 154/154 150/150
f 65/65 155/155 53/53
f 49/49 96/96 65/65
f 49/49 145/145 156/156
f 145/145 559/559 561/561
f 79/79 562/562 147/147
f 79/79 563/563 562/562
f 564/564 147/147 562/562
f 147/147 564/564 146/146
f 83/83 84/84 81/81
f 84/84 83/83 85/85
f 81/81 82/82 83/83
f 83/83 87/87 85/85
f 82/82 88/88 87/87
f 87/87 83/83 82/82
f 87/87 86/86 85/85
f 88/88 82/82 158/158
f 565/565 158/158 82/82
f 130/130 136/136 131/131
f 136/136 130/130 137/137
f 132/132 566/566 567/567
f 567/567 141/141 132/132
f 134/134 138/138 135/135
f 138/138 134/134 139/139
f 134/134 140/140 139/139
f 140/140 134/134 133/133
f 135/135 137/137 130/130
f 137/137 135/135 138/138
f 140/140 132/132 141/141
f 132/132 140/140 133/133
f 125/125 123/123 124/124
f 111/111 122/122 113/113
f 568/568 100/100 117/117
f 121/121 120/120 115/115
f 115/115 108/108 112/112
f 102/102 117/117 100/100
f 127/127 119/119 126/126
f 102/102 108/108 115/115
f 121/121 113/113 122/122
f 114/114 111/111 113/113
f 99/99 100/100 568/568
f 112/112 108/108 101/101
f 101/101 114/114 112/112
f 111/111 114/114 569/569
f 114/114 101/101 110/110
f 112/112 114/114 113/113
f 569/569 114/114 110/110
f 126/126 120/120 129/129
f 115/115 116/116 102/102
f 117/117 102/102 116/116
f 570/570 117/117 118/118
f 116/116 118/118 117/117
f 571/571 118/118 127/127
f 115/115 119/119 116/116
f 118/118 116/116 119/119
f 128/128 106/106 129/129
f 119/119 115/115 120/120
f 113/113 121/121 112/112
f 112/112 121/121 115/115
f 128/128 122/122 125/125
f 117/117 570/570 568/568
f 122/122 111/111 123/123
f 103/103 125/125 124/124
f 125/125 103/103 104/104
f 118/118 571/571 570/570
f 107/107 127/127 126/126
f 127/127 107/107 105/105
f 120/120 126/126 119/119
f 122/122 128/128 121/121
f 109/109 126/126 129/129
f 126/126 109/109 107/107
f 129/129 106/106 109/109
f 105/105 571/571 127/127
f 571/571 105/105 572/572
f 119/119 127/127 118/118
f 120/120 128/128 129/129
f 128/128 120/120 121/121
f 104/104 128/128 125/125
f 128/128 104/104 106/106
f 123/123 125/125 122/122
f 131/131 573/573 130/130
f 573/573 131/131 574/574
f 132/132 575/575 566/566
f 575/575 132/132 576/576
f 133/133 576/576 132/132
f 576/576 133/133 577/577
f 134/134 577/577 133/133
f 577/577 134/134 578/578
f 135/135 578/578 134/134
f 578/578 135/135 579/579
f 130/130 579/579 135/135
f 579/579 130/130 573/573
f 137/137 556/556 136/136
f 556/556 137/137 149/149
f 138/138 149/149 137/137
f 149/149 138/138 59/59
f 139/139 59/59 138/138
f 59/59 139/139 45/45
f 140/140 45/45 139/139
f 45/45 140/140 60/60
f 141/141 60/60 140/140
f 60/60 141/141 46/46
f 567/567 46/46 141/141
f 46/46 567/567 148/148
f 59/59 48/48 43/43
f 53/53 150/150 78/78
f 80/80 564/564 580/580
f 564/564 80/80 146/146
f 581/581 159/159 545/545
f 164/164 169/169 170/170
f 169/169 164/164 166/166
f 161/161 167/167 168/168
f 167/167 161/161 162/162
f 162/162 160/160 163/163
f 160/160 162/162 161/161
f 160/160 165/165 163/163
f 165/165 160/160 164/164
f 164/164 170/170 165/165
f 217/217 224/224 225/225
f 186/186 174/174 211/211
f 173/173 172/172 210/210
f 182/182 187/187 172/172
f 210/210 183/183 209/209
f 171/171 173/173 210/210
f 186/186 227/227 193/193
f 175/175 186/186 281/281
f 185/185 181/181 184/184
f 185/185 582/582 181/181
f 184/184 183/183 188/188
f 203/203 188/188 183/183
f 193/193 207/207 206/206
f 205/205 275/275 274/274
f 203/203 182/182 191/191
f 187/187 203/203 183/183
f 583/583 196/196 223/223
f 188/188 583/583 184/184
f 204/204 197/197 191/191
f 189/189 190/190 206/206
f 205/205 206/206 190/190
f 186/186 193/193 194/194
f 196/196 188/188 195/195
f 203/203 195/195 188/188
f 203/203 191/191 195/195
f 197/197 195/195 191/191
f 197/197 204/204 192/192
f 196/196 583/583 188/188
f 190/190 202/202 276/276
f 277/277 276/276 202/202
f 195/195 198/198 196/196
f 200/200 196/196 198/198
f 195/195 197/197 198/198
f 199/199 198/198 197/197
f 221/221 222/222 176/176
f 200/200 176/176 222/222
f 189/189 584/584 226/226
f 585/585 226/226 584/584
f 202/202 190/190 226/226
f 189/189 226/226 190/190
f 197/197 192/192 199/199
f 178/178 179/179 201/201
f 199/199 201/201 179/179
f 192/192 201/201 199/199
f 200/200 223/223 196/196
f 198/198 199/199 179/179
f 179/179 208/208 198/198
f 223/223 200/200 222/222
f 227/227 586/586 193/193
f 586/586 227/227 224/224
f 176/176 200/200 198/198
f 278/278 277/277 180/180
f 180/180 277/277 202/202
f 226/226 180/180 202/202
f 180/180 226/226 177/177
f 585/585 177/177 226/226
f 177/177 585/585 587/587
f 186/186 211/211 227/227
f 172/172 281/281 182/182
f 184/184 181/181 183/183
f 209/209 183/183 181/181
f 582/582 588/588 228/228
f 174/174 186/186 175/175
f 276/276 275/275 190/190
f 187/187 182/182 203/203
f 189/189 207/207 584/584
f 281/281 274/274 182/182
f 190/190 275/275 205/205
f 182/182 204/204 191/191
f 194/194 193/193 205/205
f 194/194 205/205 274/274
f 206/206 207/207 189/189
f 206/206 205/205 193/193
f 185/185 184/184 583/583
f 193/193 586/586 207/207
f 208/208 176/176 198/198
f 210/210 209/209 171/171
f 171/171 209/209 181/181
f 183/183 210/210 187/187
f 210/210 172/172 187/187
f 225/225 211/211 218/218
f 186/186 194/194 281/281
f 175/175 281/281 172/172
f 212/212 173/173 213/213
f 173/173 212/212 172/172
f 213/213 171/171 214/214
f 171/171 213/213 173/173
f 215/215 175/175 216/216
f 175/175 215/215 174/174
f 229/229 214/214 171/171
f 174/174 220/220 218/218
f 216/216 172/172 212/212
f 172/172 216/216 175/175
f 181/181 228/228 171/171
f 171/171 228/228 229/229
f 228/228 181/181 582/582
f 225/225 227/227 211/211
f 224/224 227/227 225/225
f 174/174 218/218 211/211
f 230/230 214/214 229/229
f 214/214 230/230 219/219
f 220/220 174/174 215/215
f 232/232 233/233 231/231
f 233/233 232/232 234/234
f 246/246 235/235 236/236
f 247/247 244/244 243/243
f 236/236 284/284 283/283
f 286/286 248/248 285/285
f 289/289 239/239 288/288
f 287/287 245/245 589/589
f 590/590 238/238 591/591
f 592/592 282/282 231/231
f 164/164 252/252 166/166
f 252/252 164/164 251/251
f 168/168 250/250 161/161
f 161/161 249/249 160/160
f 249/249 161/161 250/250
f 160/160 251/251 164/164
f 251/251 160/160 249/249
f 256/256 259/259 258/258
f 258/258 253/253 257/257
f 256/256 258/258 257/257
f 253/253 258/258 254/254
f 259/259 254/254 258/258
f 254/254 259/259 255/255
f 176/176 266/266 221/221
f 266/266 176/176 260/260
f 178/178 263/263 179/179
f 263/263 178/178 262/262
f 179/179 265/265 208/208
f 265/265 179/179 263/263
f 180/180 279/279 278/278
f 279/279 180/180 264/264
f 177/177 264/264 180/180
f 264/264 177/177 261/261
f 587/587 261/261 177/177
f 261/261 587/587 593/593
f 208/208 260/260 176/176
f 260/260 208/208 265/265
f 260/260 273/273 266/266
f 273/273 260/260 267/267
f 262/262 270/270 263/263
f 270/270 262/262 269/269
f 263/263 272/272 265/265
f 272/272 263/263 270/270
f 279/279 271/271 280/280
f 271/271 279/279 264/264
f 261/261 271/271 264/264
f 271/271 261/261 268/268
f 593/593 268/268 261/261
f 268/268 593/593 594/594
f 265/265 267/267 260/260
f 267/267 265/265 272/272
f 595/595 596/596 597/597
f 596/596 595/595 598/598
f 599/599 597/597 600/600
f 597/597 599/599 595/595
f 600/600 601/601 599/599
f 601/601 600/600 602/602
f 603/603 602/602 604/604
f 602/602 603/603 601/601
f 604/604 605/605 603/603
f 605/605 604/604 606/606
f 606/606 607/607 605/605
f 607/607 606/606 608/608
f 274/274 281/281 194/194
f 282/282 232/232 231/231
f 609/609 236/236 235/235
f 248/248 286/286 610/610
f 237/237 611/611 238/238
f 239/239 289/289 240/240
f 238/238 590/590 239/239
f 612/612 242/242 613/613
f 242/242 614/614 241/241
f 166/166 290/290 169/169
f 615/615 166/166 252/252
f 250/250 616/616 291/291
f 617/617 618/618 292/292
f 293/293 292/292 618/618
f 295/295 296/296 294/294
f 298/298 299/299 297/297
f 301/301 297/297 300/300
f 295/295 297/297 301/301
f 301/301 296/296 295/295
f 299/299 302/302 300/300
f 303/303 304/304 619/619
f 620/620 306/306 305/305
f 308/308 309/309 307/307
f 309/309 308/308 306/306
f 306/306 310/310 309/309
f 312/312 313/313 311/311
f 315/315 301/301 314/314
f 300/300 314/314 301/301
f 296/296 301/301 315/315
f 312/312 309/309 313/313
f 311/311 316/316 312/312
f 317/317 311/311 314/314
f 318/318 314/314 311/311
f 319/319 307/307 312/312
f 309/309 312/312 307/307
f 310/310 313/313 309/309
f 300/300 317/317 314/314
f 321/321 322/322 320/320
f 323/323 320/320 322/322
f 325/325 326/326 324/324
f 327/327 324/324 326/326
f 324/324 327/327 322/322
f 322/322 321/321 324/324
f 328/328 321/321 320/320
f 321/321 328/328 329/329
f 331/331 325/325 330/330
f 324/324 330/330 325/325
f 330/330 324/324 329/329
f 321/321 329/329 324/324
f 304/304 303/303 331/331
f 325/325 331/331 303/303
f 332/332 326/326 319/319
f 303/303 333/333 326/326
f 326/326 325/325 303/303
f 314/314 318/318 315/315
f 335/335 621/621 334/334
f 336/336 334/334 621/621
f 337/337 622/622 335/335
f 621/621 335/335 622/622
f 339/339 623/623 338/338
f 624/624 338/338 623/623
f 338/338 624/624 337/337
f 622/622 337/337 624/624
f 623/623 339/339 625/625
f 341/341 342/342 340/340
f 334/334 343/343 335/335
f 335/335 344/344 337/337
f 346/346 347/347 345/345
f 345/345 348/348 341/341
f 337/337 342/342 338/338
f 350/350 341/341 349/349
f 340/340 349/349 341/341
f 352/352 346/346 351/351
f 345/345 351/351 346/346
f 351/351 345/345 350/350
f 341/341 350/350 345/345
f 343/343 344/344 335/335
f 343/343 353/353 344/344
f 344/344 342/342 337/337
f 344/344 340/340 342/342
f 342/342 341/341 348/348
f 347/347 348/348 345/345
f 348/348 347/347 339/339
f 338/338 348/348 339/339
f 342/342 348/348 338/338
f 626/626 307/307 627/627
f 354/354 307/307 628/628
f 354/354 308/308 307/307
f 305/305 306/306 308/308
f 295/295 294/294 355/355
f 357/357 629/629 356/356
f 630/630 358/358 629/629
f 629/629 357/357 631/631
f 359/359 632/632 631/631
f 631/631 357/357 359/359
f 361/361 633/633 360/360
f 634/634 360/360 633/633
f 358/358 630/630 362/362
f 635/635 362/362 630/630
f 363/363 636/636 361/361
f 633/633 361/361 636/636
f 637/637 638/638 359/359
f 632/632 359/359 638/638
f 362/362 635/635 363/363
f 636/636 363/363 635/635
f 365/365 359/359 364/364
f 357/357 364/364 359/359
f 360/360 366/366 361/361
f 368/368 358/358 367/367
f 362/362 367/367 358/358
f 369/369 363/363 361/361
f 361/361 366/366 369/369
f 639/639 637/637 365/365
f 359/359 365/365 637/637
f 367/367 362/362 369/369
f 363/363 369/369 362/362
f 640/640 620/620 305/305
f 356/356 629/629 358/358
f 364/364 356/356 368/368
f 358/358 368/368 356/356
f 302/302 323/323 300/300
f 326/326 333/333 319/319
f 641/641 627/627 333/333
f 300/300 323/323 317/317
f 322/322 317/317 323/323
f 317/317 322/322 327/327
f 316/316 311/311 317/317
f 327/327 316/316 317/317
f 316/316 332/332 312/312
f 316/316 327/327 332/332
f 326/326 332/332 327/327
f 312/312 332/332 319/319
f 298/298 297/297 370/370
f 371/371 370/370 297/297
f 308/308 354/354 305/305
f 299/299 300/300 297/297
f 295/295 371/371 297/297
f 355/355 371/371 295/295
f 355/355 372/372 371/371
f 305/305 642/642 640/640
f 305/305 373/373 642/642
f 373/373 305/305 354/354
f 320/320 323/323 374/374
f 302/302 374/374 323/323
f 328/328 320/320 643/643
f 374/374 643/643 320/320
f 354/354 292/292 373/373
f 354/354 628/628 292/292
f 617/617 292/292 628/628
f 372/372 644/644 371/371
f 370/370 371/371 644/644
f 373/373 293/293 642/642
f 292/292 293/293 373/373
f 336/336 645/645 646/646
f 647/647 298/298 648/648
f 649/649 299/299 647/647
f 650/650 302/302 649/649
f 302/302 650/650 651/651
f 374/374 651/651 652/652
f 344/344 353/353 340/340
f 340/340 353/353 375/375
f 375/375 349/349 340/340
f 334/334 646/646 653/653
f 653/653 343/343 334/334
f 343/343 653/653 654/654
f 654/654 353/353 343/343
f 655/655 656/656 657/657
f 657/657 658/658 655/655
f 659/659 619/619 304/304
f 333/333 627/627 319/319
f 619/619 641/641 303/303
f 333/333 303/303 641/641
f 319/319 627/627 307/307
f 628/628 307/307 626/626
f 646/646 334/334 336/336
f 376/376 648/648 298/298
f 298/298 647/647 299/299
f 299/299 649/649 302/302
f 651/651 374/374 302/302
f 652/652 643/643 374/374
f 378/378 660/660 377/377
f 660/660 661/661 377/377
f 660/660 378/378 662/662
f 379/379 662/662 378/378
f 381/381 382/382 380/380
f 663/663 380/380 382/382
f 380/380 383/383 381/381
f 663/663 384/384 380/380
f 384/384 385/385 383/383
f 383/383 380/380 384/384
f 663/663 664/664 384/384
f 665/665 383/383 385/385
f 383/383 665/665 666/666
f 387/387 388/388 386/386
f 389/389 386/386 388/388
f 667/667 668/668 390/390
f 390/390 391/391 667/667
f 393/393 394/394 392/392
f 395/395 392/392 394/394
f 395/395 396/396 392/392
f 397/397 392/392 396/396
f 386/386 389/389 393/393
f 394/394 393/393 389/389
f 391/391 390/390 396/396
f 397/397 396/396 390/390
f 399/399 400/400 398/398
f 402/402 403/403 401/401
f 404/404 405/405 669/669
f 407/407 408/408 406/406
f 409/409 410/410 407/407
f 405/405 404/404 411/411
f 413/413 414/414 412/412
f 407/407 410/410 411/411
f 403/403 402/402 406/406
f 402/402 401/401 415/415
f 669/669 405/405 416/416
f 417/417 410/410 409/409
f 409/409 415/415 417/417
f 670/670 415/415 401/401
f 418/418 417/417 415/415
f 402/402 415/415 409/409
f 418/418 415/415 670/670
f 419/419 408/408 413/413
f 411/411 420/420 407/407
f 420/420 411/411 404/404
f 421/421 404/404 671/671
f 404/404 421/421 420/420
f 412/412 421/421 672/672
f 420/420 414/414 407/407
f 414/414 420/420 421/421
f 419/419 423/423 422/422
f 408/408 407/407 414/414
f 409/409 406/406 402/402
f 407/407 406/406 409/409
f 398/398 403/403 422/422
f 669/669 671/671 404/404
f 400/400 401/401 403/403
f 399/399 398/398 424/424
f 425/425 424/424 398/398
f 671/671 672/672 421/421
f 413/413 412/412 426/426
f 427/427 426/426 412/412
f 414/414 413/413 408/408
f 406/406 422/422 403/403
f 419/419 413/413 428/428
f 426/426 428/428 413/413
f 428/428 423/423 419/419
f 412/412 672/672 427/427
f 673/673 427/427 672/672
f 421/421 412/412 414/414
f 419/419 422/422 408/408
f 406/406 408/408 422/422
f 398/398 422/422 425/425
f 423/423 425/425 422/422
f 403/403 398/398 400/400
f 386/386 674/674 387/387
f 675/675 387/387 674/674
f 668/668 676/676 390/390
f 677/677 390/390 676/676
f 390/390 677/677 397/397
f 678/678 397/397 677/677
f 397/397 678/678 392/392
f 679/679 392/392 678/678
f 392/392 679/679 393/393
f 680/680 393/393 679/679
f 393/393 680/680 386/386
f 674/674 386/386 680/680
f 388/388 639/639 389/389
f 365/365 389/389 639/639
f 389/389 365/365 394/394
f 364/364 394/394 365/365
f 394/394 364/364 395/395
f 368/368 395/395 364/364
f 395/395 368/368 396/396
f 367/367 396/396 368/368
f 396/396 367/367 391/391
f 369/369 391/391 367/367
f 391/391 369/369 667/667
f 366/366 667/667 369/369
f 357/357 356/356 364/364
f 370/370 376/376 298/298
f 681/681 662/662 429/429
f 379/379 429/429 662/662
f 625/625 339/339 682/682
f 683/683 684/684 430/430
f 431/431 430/430 684/684
f 685/685 686/686 432/432
f 433/433 432/432 686/686
f 434/434 435/435 433/433
f 432/432 433/433 435/435
f 434/434 436/436 435/435
f 430/430 435/435 436/436
f 436/436 683/683 430/430
f 687/687 437/437 688/688
f 439/439 440/440 438/438
f 442/442 443/443 441/441
f 443/443 445/445 444/444
f 446/446 447/447 442/442
f 442/442 441/441 448/448
f 449/449 450/450 438/438
f 452/452 438/438 451/451
f 454/454 455/455 453/453
f 455/455 689/689 453/453
f 456/456 447/447 454/454
f 447/447 456/456 457/457
f 458/458 459/459 449/449
f 461/461 462/462 460/460
f 463/463 444/444 457/457
f 447/447 457/457 445/445
f 464/464 465/465 690/690
f 454/454 690/690 456/456
f 463/463 467/467 466/466
f 458/458 469/469 468/468
f 469/469 458/458 460/460
f 470/470 449/449 438/438
f 471/471 456/456 465/465
f 456/456 471/471 457/457
f 471/471 463/463 457/457
f 463/463 471/471 467/467
f 472/472 466/466 467/467
f 456/456 690/690 465/465
f 473/473 474/474 469/469
f 474/474 473/473 475/475
f 465/465 476/476 471/471
f 476/476 465/465 477/477
f 476/476 467/467 471/471
f 467/467 476/476 478/478
f 480/480 481/481 479/479
f 481/481 480/480 477/477
f 482/482 691/691 468/468
f 691/691 482/482 692/692
f 482/482 469/469 474/474
f 469/469 482/482 468/468
f 478/478 472/472 467/467
f 484/484 485/485 483/483
f 485/485 484/484 478/478
f 478/478 484/484 472/472
f 465/465 464/464 477/477
f 485/485 478/478 476/476
f 476/476 486/486 485/485
f 481/481 477/477 464/464
f 449/449 693/693 450/450
f 437/437 450/450 693/693
f 476/476 477/477 480/480
f 488/488 475/475 487/487
f 474/474 475/475 488/488
f 474/474 488/488 482/482
f 489/489 482/482 488/488
f 482/482 489/489 692/692
f 694/694 692/692 489/489
f 450/450 439/439 438/438
f 444/444 452/452 443/443
f 447/447 455/455 454/454
f 455/455 447/447 446/446
f 695/695 696/696 689/689
f 451/451 438/438 440/440
f 469/469 462/462 473/473
f 457/457 444/444 445/445
f 691/691 459/459 468/468
f 444/444 461/461 452/452
f 460/460 462/462 469/469
f 463/463 466/466 444/444
f 460/460 449/449 470/470
f 461/461 460/460 470/470
f 468/468 459/459 458/458
f 449/449 460/460 458/458
f 690/690 454/454 453/453
f 459/459 693/693 449/449
f 476/476 480/480 486/486
f 448/448 446/446 442/442
f 455/455 446/446 448/448
f 445/445 442/442 447/447
f 445/445 443/443 442/442
f 697/697 439/439 687/687
f 452/452 470/470 438/438
f 443/443 452/452 451/451
f 491/491 441/441 490/490
f 443/443 490/490 441/441
f 492/492 448/448 491/491
f 441/441 491/491 448/448
f 494/494 451/451 493/493
f 440/440 493/493 451/451
f 448/448 492/492 698/698
f 697/697 699/699 440/440
f 490/490 443/443 494/494
f 451/451 494/494 443/443
f 448/448 695/695 455/455
f 698/698 695/695 448/448
f 689/689 455/455 695/695
f 439/439 450/450 687/687
f 687/687 450/450 437/437
f 439/439 697/697 440/440
f 698/698 492/492 700/700
f 701/701 700/700 492/492
f 493/493 440/440 699/699
f 496/496 497/497 495/495
f 498/498 495/495 497/497
f 500/500 501/501 499/499
f 503/503 504/504 502/502
f 702/702 703/703 500/500
f 704/704 505/505 705/705
f 706/706 506/506 707/707
f 708/708 507/507 709/709
f 710/710 508/508 711/711
f 496/496 712/712 713/713
f 431/431 509/509 430/430
f 510/510 430/430 509/509
f 432/432 511/511 685/685
f 435/435 512/512 432/432
f 511/511 432/432 512/512
f 430/430 510/510 435/435
f 512/512 435/435 510/510
f 514/514 515/515 513/513
f 516/516 517/517 514/514
f 516/516 514/514 513/513
f 518/518 514/514 517/517
f 514/514 518/518 515/515
f 519/519 515/515 518/518
f 479/479 520/520 480/480
f 521/521 480/480 520/520
f 485/485 522/522 483/483
f 523/523 483/483 522/522
f 486/486 524/524 485/485
f 522/522 485/485 524/524
f 487/487 525/525 488/488
f 526/526 488/488 525/525
f 488/488 526/526 489/489
f 527/527 489/489 526/526
f 489/489 527/527 694/694
f 714/714 694/694 527/527
f 480/480 521/521 486/486
f 524/524 486/486 521/521
f 520/520 528/528 521/521
f 529/529 521/521 528/528
f 522/522 530/530 523/523
f 531/531 523/523 530/530
f 524/524 532/532 522/522
f 530/530 522/522 532/532
f 533/533 534/534 525/525
f 526/526 525/525 534/534
f 526/526 534/534 527/527
f 535/535 527/527 534/534
f 527/527 535/535 714/714
f 715/715 714/714 535/535
f 521/521 529/529 524/524
f 532/532 524/524 529/529
f 716/716 717/717 718/718
f 719/719 718/718 717/717
f 720/720 716/716 721/721
f 718/718 721/721 716/716
f 721/721 722/722 720/720
f 723/723 720/720 722/722
f 724/724 723/723 725/725
f 722/722 725/725 723/723
f 725/725 726/726 724/724
f 727/727 724/724 726/726
f 726/726 728/728 727/727
f 729/729 727/727 728/728
f 470/470 452/452 461/461
f 496/496 495/495 712/712
f 501/501 500/500 730/730
f 731/731 705/705 505/505
f 508/508 732/732 536/536
f 537/537 707/707 506/506
f 506/506 711/711 508/508
f 733/733 538/538 734/734
f 539/539 735/735 538/538
f 684/684 736/736 431/431
f 509/509 431/431 737/737
f 738/738 739/739 511/511
