# MOD converted: e_m_metalglove005.mod
# 350 verts, 207 faces

v 99.057755 7.982278 46.089874
v 94.668655 5.088301 51.747658
v 102.828133 5.545244 51.473526
v 103.099243 -1.383859 48.736118
v 98.958694 -4.181078 45.754288
v 94.620369 -0.542925 49.126949
v 91.190994 -6.539060 59.889938
v 95.616714 7.893859 54.546528
v 93.991936 -4.796806 57.817467
v 93.051483 -5.618756 58.018497
v 87.916138 -7.983859 55.815319
v 91.071411 -6.533060 55.773842
v 85.664787 -9.016278 51.727989
v 88.934502 -7.823299 51.674690
v 97.428230 8.361971 51.593269
v 92.360115 0.691810 51.194683
v 90.663734 -4.046699 54.005981
v 88.739143 -5.646346 56.679203
v 86.388870 -6.757153 60.040714
v 96.414375 -5.501422 51.247948
v 95.098221 -7.255680 54.855118
v 97.589310 -5.689847 57.484642
v 87.563835 -9.943410 53.826981
v 91.739822 -9.125141 58.588425
v 93.142639 1.117496 60.867393
v 96.908051 1.237497 49.819447
v 92.929268 8.059033 64.064766
v 93.163040 -5.518060 62.028862
v 90.523621 -5.493936 62.711452
v 90.395500 1.280648 64.742470
v 93.263046 1.274156 67.923584
v 89.385429 -5.381115 65.286125
v 88.026604 -5.377319 66.156181
v 87.832947 1.176757 68.837685
v 89.151085 1.134588 57.646141
v 92.423409 7.876367 45.664871
v 101.209579 8.352477 48.404575
v 105.464951 5.600945 45.469910
v 101.099274 -4.156188 42.537926
v 96.187927 -0.482940 48.368565
v 105.615555 -1.573372 42.730671
v 96.222580 5.007646 60.505577
v 96.832504 -1.996936 64.459953
v 93.311844 -2.433682 68.420448
v 89.238350 -2.790655 60.246208
v 96.395981 4.898248 64.395683
v 93.108849 4.248170 68.334740
v 89.255417 3.786197 58.407539
v 93.236862 -2.138446 62.375549
v 90.458511 -2.463912 65.790520
v 87.894371 -2.704535 58.171135
v 92.914619 4.590481 62.444614
v 90.313690 4.115488 65.672768
v 87.970329 3.754230 66.474617
v 89.505219 6.770241 63.982151
v 88.242851 6.711573 61.082802
v 90.781303 7.334963 63.155190
v 92.947716 7.438685 62.872231
v 90.422951 1.003333 64.903252
v 93.290520 0.996842 66.915321
v 87.075142 0.715042 69.787285
v 88.614555 0.672874 64.715843
v 93.323685 -2.056865 69.622704
v 88.686859 -1.806244 63.668747
v 93.220390 4.741088 66.896645
v 89.664345 4.481086 62.631405
v 90.470322 -2.087094 66.740608
v 87.135513 -2.012516 61.590065
v 90.774834 4.501080 64.434502
v 88.353653 4.389263 52.019485
v 103.241104 2.120519 43.252434
v 109.364037 6.123885 39.848434
v 104.564392 -4.364902 34.865555
v 108.081467 10.520773 38.441986
v 113.383926 6.699740 34.631626
v 107.956917 -4.748178 30.589111
v 101.794922 -0.539526 38.404305
v 113.562943 -2.000268 30.817802
v 101.829781 6.149726 38.882092
v 105.374649 2.680604 39.998375
v 104.743019 10.010808 43.409668
v 109.779594 6.366094 39.775135
v 104.624046 -4.833044 35.905510
v 98.740768 -0.818590 43.373718
v 109.950333 -2.211929 36.123669
v 98.774002 5.841463 40.058472
v 104.677452 9.537385 36.205551
v 99.046616 -0.605078 43.218761
v 109.523956 -1.910044 36.409866
v 99.077744 5.632531 38.877602
v 109.632126 -3.228651 36.073624
v 108.082054 -2.906668 38.569538
v 112.141327 -1.184714 36.101891
v 111.996605 -5.108102 40.582371
v 111.753952 2.517467 38.577477
v 111.353867 5.005257 38.627632
v 111.436012 -0.060636 38.520695
v 115.122787 2.549817 38.982250
v 109.434570 8.250154 36.141811
v 107.939400 8.505095 38.528961
v 111.451302 5.740973 36.639835
v 112.227089 9.771798 -49.206772
v 99.057755 7.982273 -46.089890
v 94.668655 5.088294 -51.747665
v 102.828140 5.545249 -51.473515
v 103.099228 -1.383854 -48.736122
v 98.958717 -4.181078 -45.754280
v 94.620361 -0.542934 -49.126945
v 91.190994 -6.539060 -59.889938
v 95.616661 7.893776 -54.546524
v 93.991920 -4.796803 -57.817463
v 93.051521 -5.618669 -58.018497
v 87.916138 -7.983850 -55.815269
v 91.071388 -6.533073 -55.773842
v 85.664787 -9.016277 -51.727997
v 88.934502 -7.823297 -51.674686
v 97.428207 8.361966 -51.593258
v 92.360123 0.691804 -51.194679
v 90.663734 -4.046701 -54.005966
v 88.739143 -5.646370 -56.679203
v 86.388870 -6.757151 -60.040703
v 96.414368 -5.501333 -51.247959
v 95.098206 -7.255685 -54.855114
v 97.589310 -5.689845 -57.484642
v 87.563835 -9.943411 -53.826962
v 91.739799 -9.125120 -58.588436
v 93.142654 1.117499 -60.867371
v 96.908028 1.237500 -49.819447
v 92.929253 8.059024 -64.064751
v 93.163017 -5.517978 -62.028885
v 90.523636 -5.493854 -62.711460
v 90.395508 1.280649 -64.742462
v 93.263031 1.274157 -67.923592
v 89.385422 -5.381118 -65.286125
v 88.026604 -5.377323 -66.156181
v 87.832962 1.176756 -68.837685
v 89.151085 1.134588 -57.646164
v 92.423431 7.876287 -45.665077
v 101.209892 8.352469 -48.404579
v 105.464951 5.600949 -45.469856
v 101.099213 -4.156187 -42.537926
v 96.187920 -0.482949 -48.368568
v 105.615578 -1.573368 -42.730671
v 96.222572 5.007638 -60.505554
v 96.832474 -1.996892 -64.459938
v 93.311821 -2.433637 -68.420448
v 89.238350 -2.790656 -60.246201
v 96.395973 4.898206 -64.395668
v 93.108833 4.248132 -68.334740
v 89.255417 3.786197 -58.407555
v 93.236893 -2.138403 -62.375568
v 90.458534 -2.463866 -65.790520
v 87.894371 -2.704537 -58.171143
v 92.914627 4.590442 -62.444622
v 90.313705 4.115454 -65.672768
v 87.970329 3.754229 -66.474609
v 89.505219 6.770241 -63.982147
v 88.242851 6.711571 -61.082809
v 90.781319 7.334890 -63.155167
v 92.947701 7.438612 -62.872238
v 90.422958 1.003337 -64.903236
v 93.290497 0.996846 -66.915321
v 87.075142 0.715040 -69.787285
v 88.614555 0.672874 -64.715828
v 93.323669 -2.056825 -69.622704
v 88.686867 -1.806248 -63.668739
v 93.220375 4.741044 -66.896645
v 89.664345 4.481084 -62.631420
v 90.470337 -2.087052 -66.740608
v 87.135513 -2.012519 -61.590084
v 90.774849 4.501040 -64.434502
v 88.353653 4.389262 -52.019493
v 103.241119 2.120522 -43.252445
v 109.364044 6.123888 -39.848400
v 104.564346 -4.364901 -34.865555
v 108.081459 10.520770 -38.441986
v 113.383919 6.699744 -34.631603
v 107.956902 -4.748177 -30.589104
v 101.794922 -0.539529 -38.404301
v 113.562943 -2.000261 -30.817804
v 101.829765 6.149720 -38.882092
v 105.374657 2.680603 -39.998386
v 104.743027 10.010805 -43.409672
v 109.779587 6.366096 -39.775108
v 104.624031 -4.833043 -35.905510
v 98.740768 -0.818599 -43.373711
v 109.950333 -2.211925 -36.123669
v 98.774002 5.841451 -40.058464
v 104.677399 9.537385 -36.205551
v 99.046616 -0.605087 -43.218758
v 109.523956 -1.910037 -36.409866
v 99.077744 5.632519 -38.877602
v 109.632126 -3.228647 -36.073612
v 108.082047 -2.906667 -38.569542
v 112.141335 -1.184709 -36.101879
v 111.996613 -5.108100 -40.582367
v 111.753952 2.517471 -38.577488
v 111.353867 5.005260 -38.627632
v 111.436020 -0.060632 -38.520699
v 115.122787 2.549823 -38.982262
v 109.434547 8.250155 -36.141808
v 107.939369 8.505095 -38.528969
v 111.451309 5.740974 -36.639835
v 112.227089 9.771799 45.754288
v 94.620369 -0.542925 49.126949
v 91.190994 -6.539060 54.546528
v 93.991936 -4.796806 55.773842
v 85.664787 -9.016278 51.727989
v 88.934502 -7.823299 55.815319
v 91.071411 -6.533060 58.018497
v 87.916138 -7.983859 58.018497
v 87.916138 -7.983859 56.679203
v 86.388870 -6.757153 49.819447
v 92.929268 8.059033 57.646141
v 92.423409 7.876367 57.817467
v 93.051483 -5.618756 62.028862
v 90.523621 -5.493936 65.286125
v 88.026604 -5.377319 65.286125
v 88.026604 -5.377319 65.790520
v 87.894371 -2.704535 65.672768
v 87.970329 3.754230 66.156181
v 87.832947 1.176757 46.089874
v 94.668655 5.088301 46.089874
v 94.668655 5.088301 42.730671
v 96.222580 5.007646 65.790520
v 87.894371 -2.704535 64.459953
v 93.311844 -2.433682 62.375549
v 90.458511 -2.463912 68.420448
v 89.238350 -2.790655 58.407539
v 93.236862 -2.138446 60.505577
v 96.832504 -1.996936 65.672768
v 87.970329 3.754230 64.395683
v 93.108849 4.248170 62.444614
v 90.313690 4.115488 68.334740
v 89.255417 3.786197 58.171135
v 92.914619 4.590481 60.246208
v 96.395981 4.898248 66.156181
v 87.832947 1.176757 64.742470
v 93.263046 1.274156 68.837685
v 89.151085 1.134588 62.711452
v 90.395500 1.280648 58.588425
v 93.142639 1.117496 60.867393
v 96.908051 1.237497 66.915321
v 87.075142 0.715042 66.740608
v 87.135513 -2.012516 61.082802
v 90.781303 7.334963 63.982151
v 88.242851 6.711573 64.434502
v 88.353653 4.389263 63.982151
v 88.242851 6.711573 66.740608
v 87.135513 -2.012516 64.715843
v 93.323685 -2.056865 69.622704
v 88.686859 -1.806244 62.631405
v 90.470322 -2.087094 64.434502
v 88.353653 4.389263 63.668747
v 93.220390 4.741088 66.896645
v 89.664345 4.481086 61.590065
v 90.774834 4.501080 66.915321
v 87.075142 0.715042 64.903252
v 93.290520 0.996842 62.872231
v 90.422951 1.003333 69.787285
v 88.614555 0.672874 36.409866
v 99.077744 5.632531 30.817802
v 101.829781 6.149726 36.123669
v 98.774002 5.841463 38.441986
v 113.383926 6.699740 34.865555
v 108.081467 10.520773 30.589111
v 101.794922 -0.539526 34.631626
v 107.956917 -4.748178 38.404305
v 113.562943 -2.000268 30.817802
v 101.829781 6.149726 43.252434
v 109.364037 6.123885 40.058472
v 104.677452 9.537385 36.205551
v 99.046616 -0.605078 39.848434
v 104.564392 -4.364902 43.218761
v 109.523956 -1.910044 36.409866
v 99.077744 5.632531 36.409866
v 99.077744 5.632531 -45.754280
v 94.620361 -0.542934 -49.126945
v 91.190994 -6.539060 -54.546524
v 93.991920 -4.796803 -51.727997
v 88.934502 -7.823297 -55.773842
v 85.664787 -9.016277 -55.815269
v 91.071388 -6.533073 -58.018497
v 87.916138 -7.983850 -58.018497
v 87.916138 -7.983850 -56.679203
v 86.388870 -6.757151 -49.819447
v 92.929253 8.059024 -57.646164
v 92.423431 7.876287 -57.817463
v 93.051521 -5.618669 -62.028885
v 90.523636 -5.493854 -65.286125
v 88.026604 -5.377323 -65.286125
v 88.026604 -5.377323 -65.790520
v 87.894371 -2.704537 -65.672768
v 87.970329 3.754229 -66.156181
v 87.832962 1.176756 -46.089890
v 94.668655 5.088294 -46.089890
v 94.668655 5.088294 -42.730671
v 96.222572 5.007638 -65.790520
v 87.894371 -2.704537 -62.375568
v 90.458534 -2.463866 -64.459938
v 93.311821 -2.433637 -68.420448
v 89.238350 -2.790656 -58.407555
v 93.236893 -2.138403 -60.505554
v 96.832474 -1.996892 -65.672768
v 87.970329 3.754229 -62.444622
v 90.313705 4.115454 -64.395668
v 93.108833 4.248132 -68.334740
v 89.255417 3.786197 -58.171143
v 92.914627 4.590442 -60.246201
v 96.395973 4.898206 -66.156181
v 87.832962 1.176756 -68.837685
v 89.151085 1.134588 -64.742462
v 93.263031 1.274157 -62.711460
v 90.395508 1.280649 -60.867371
v 96.908028 1.237500 -58.588436
v 93.142654 1.117499 -66.915321
v 87.075142 0.715040 -66.740608
v 87.135513 -2.012519 -61.082809
v 90.781319 7.334890 -63.982147
v 88.242851 6.711571 -64.434502
v 88.353653 4.389262 -63.982147
v 88.242851 6.711571 -66.740608
v 87.135513 -2.012519 -69.622704
v 88.686867 -1.806248 -64.715828
v 93.323669 -2.056825 -62.631420
v 90.470337 -2.087052 -64.434502
v 88.353653 4.389262 -66.896645
v 89.664345 4.481084 -63.668739
v 93.220375 4.741044 -61.590084
v 90.774849 4.501040 -66.915321
v 87.075142 0.715040 -62.872238
v 90.422958 1.003337 -64.903236
v 93.290497 0.996846 -69.787285
v 88.614555 0.672874 -36.409866
v 99.077744 5.632519 -36.123669
v 98.774002 5.841451 -30.817804
v 101.829765 6.149720 -38.441986
v 113.383919 6.699744 -34.865555
v 108.081459 10.520770 -30.589104
v 101.794922 -0.539529 -34.631603
v 107.956902 -4.748177 -38.404301
v 113.562943 -2.000261 -30.817804
v 101.829765 6.149720 -43.252445
v 109.364044 6.123888 -40.058464
v 104.677399 9.537385 -36.205551
v 99.046616 -0.605087 -39.848400
v 104.564346 -4.364901 -43.218758
v 109.523956 -1.910037 -36.409866
v 99.077744 5.632519 -36.409866
v 99.077744 5.632519 0.680436

vt 0.538484 0.025137
vt 0.034459 0.430175
vt 0.538482 0.600495
vt 0.538466 0.718736
vt 0.538449 0.855175
vt 0.538530 0.877993
vt 0.438697 0.365865
vt 0.317004 0.228801
vt 0.161286 0.721606
vt 0.285785 0.291183
vt 0.130226 0.255130
vt 0.141152 0.314831
vt 0.069449 0.263320
vt 0.034932 0.328917
vt 0.456104 0.109965
vt 0.115034 0.194209
vt 0.088293 0.246464
vt 0.082684 0.290702
vt 0.097929 0.652594
vt 0.291510 0.781596
vt 0.410693 0.707303
vt 0.371070 0.866877
vt 0.261191 0.843932
vt 0.335815 0.112633
vt 0.222650 0.509242
vt 0.297912 0.242725
vt 0.448677 0.650145
vt 0.206755 0.707143
vt 0.202469 0.109176
vt 0.292982 0.496093
vt 0.202883 0.650365
vt 0.115807 0.665407
vt 0.067367 0.463193
vt 0.049409 0.484453
vt 0.098779 0.296718
vt 0.321127 0.296129
vt 0.647428 0.428210
vt 0.647438 0.726025
vt 0.647418 0.864613
vt 0.647414 0.593574
vt 0.647431 0.986784
vt 0.647407 0.580223
vt 0.294721 0.587344
vt 0.203382 0.597338
vt 0.106682 0.429550
vt 0.309841 0.432249
vt 0.213475 0.429107
vt 0.113719 0.162108
vt 0.220285 0.167712
vt 0.289383 0.610727
vt 0.057991 0.059697
vt 0.219198 0.068131
vt 0.290242 0.408726
vt 0.064298 0.346738
vt 0.163884 0.301661
vt 0.184876 0.306847
vt 0.253164 0.359197
vt 0.246233 0.117105
vt 0.294817 0.505518
vt 0.199237 0.117681
vt 0.369480 0.499546
vt 0.076079 0.570696
vt 0.195365 0.558588
vt 0.073018 0.413011
vt 0.228633 0.392324
vt 0.146824 0.160029
vt 0.292065 0.159130
vt 0.367303 0.058343
vt 0.276322 0.060837
vt 0.329244 0.510163
vt 0.538478 0.428210
vt 0.847066 0.726025
vt 0.847058 0.296562
vt 0.990118 0.428987
vt 0.990210 0.727023
vt 0.990121 0.864890
vt 0.990112 0.593254
vt 0.990140 0.988496
vt 0.990105 0.101902
vt 0.477036 0.296129
vt 0.857134 0.428210
vt 0.857138 0.726025
vt 0.857130 0.864613
vt 0.857128 0.593574
vt 0.857136 0.986784
vt 0.857126 0.296129
vt 0.847062 0.864613
vt 0.847056 0.593574
vt 0.847063 0.986784
vt 0.847054 0.870134
vt 0.079205 0.868955
vt 0.203086 0.868955
vt 0.203086 0.785687
vt 0.201086 0.870134
vt 0.079205 0.868955
vt 0.203086 0.868955
vt 0.203086 0.785687
vt 0.201086 0.870134
vt 0.079205 0.868955
vt 0.203086 0.868955
vt 0.203086 0.785687
vt 0.201086 0.319564
vt 0.538484 0.025137
vt 0.034459 0.430175
vt 0.538482 0.600495
vt 0.538466 0.718736
vt 0.538449 0.855175
vt 0.538530 0.877993
vt 0.438697 0.365865
vt 0.317004 0.228801
vt 0.161286 0.721606
vt 0.285785 0.291183
vt 0.130226 0.255130
vt 0.141152 0.314831
vt 0.069449 0.263320
vt 0.034932 0.328917
vt 0.456104 0.109965
vt 0.115034 0.194209
vt 0.088293 0.246464
vt 0.082684 0.290702
vt 0.097929 0.652594
vt 0.291510 0.781596
vt 0.410693 0.707303
vt 0.371070 0.866877
vt 0.261191 0.843932
vt 0.335815 0.112633
vt 0.222650 0.509242
vt 0.297912 0.242725
vt 0.448677 0.650145
vt 0.206755 0.707143
vt 0.202469 0.109176
vt 0.292982 0.496093
vt 0.202883 0.650365
vt 0.115807 0.665407
vt 0.067367 0.463193
vt 0.049409 0.484453
vt 0.098779 0.296718
vt 0.321127 0.296129
vt 0.647428 0.428210
vt 0.647438 0.726025
vt 0.647418 0.864613
vt 0.647414 0.593574
vt 0.647431 0.986784
vt 0.647407 0.580223
vt 0.294721 0.587344
vt 0.203382 0.597338
vt 0.106682 0.429550
vt 0.309841 0.432249
vt 0.213475 0.429107
vt 0.113719 0.162108
vt 0.220285 0.167712
vt 0.289383 0.610727
vt 0.057991 0.059697
vt 0.219198 0.068131
vt 0.290242 0.408726
vt 0.064298 0.346738
vt 0.163884 0.301661
vt 0.184876 0.306847
vt 0.253164 0.359197
vt 0.246233 0.117105
vt 0.294817 0.505518
vt 0.199237 0.117681
vt 0.369480 0.499546
vt 0.076079 0.570696
vt 0.195365 0.558588
vt 0.073018 0.413011
vt 0.228633 0.392324
vt 0.146824 0.160029
vt 0.292065 0.159130
vt 0.367303 0.058343
vt 0.276322 0.060837
vt 0.329244 0.510163
vt 0.538478 0.428210
vt 0.847066 0.726025
vt 0.847058 0.296562
vt 0.990118 0.428987
vt 0.990210 0.727023
vt 0.990121 0.864890
vt 0.990112 0.593254
vt 0.990140 0.988496
vt 0.990105 0.101902
vt 0.477036 0.296129
vt 0.857134 0.428210
vt 0.857138 0.726025
vt 0.857130 0.864613
vt 0.857128 0.593574
vt 0.857136 0.986784
vt 0.857126 0.296129
vt 0.847062 0.864613
vt 0.847056 0.593574
vt 0.847063 0.986784
vt 0.847054 0.870134
vt 0.079205 0.868955
vt 0.203086 0.868955
vt 0.203086 0.785687
vt 0.201086 0.870134
vt 0.079205 0.868955
vt 0.203086 0.868955
vt 0.203086 0.785687
vt 0.201086 0.870134
vt 0.079205 0.868955
vt 0.203086 0.868955
vt 0.203086 0.785687
vt 0.201086 0.103989
vt 0.017957 0.199421
vt 0.017269 0.769027
vt 0.335831 0.913028
vt 0.275550 0.905046
vt 0.352998 0.803493
vt 0.307498 0.823938
vt 0.258842 0.880709
vt 0.221343 0.920486
vt 0.230445 0.013526
vt 0.107204 0.009245
vt 0.215644 0.215505
vt 0.214770 0.213244
vt 0.284821 0.699943
vt 0.132353 0.211544
vt 0.343366 0.170746
vt 0.350294 0.071858
vt 0.346924 0.110289
vt 0.353952 0.196808
vt 0.538473 0.968452
vt 0.538520 0.153426
vt 0.647401 0.960904
vt 0.015084 0.909750
vt 0.061284 0.903544
vt 0.022359 0.982839
vt 0.048442 0.839035
vt 0.028468 0.838609
vt 0.067723 0.699284
vt 0.015088 0.765499
vt 0.067038 0.770031
vt 0.025472 0.676505
vt 0.053013 0.839035
vt 0.028468 0.838609
vt 0.067723 0.699284
vt 0.015088 0.765499
vt 0.067038 0.676505
vt 0.053013 0.770031
vt 0.025472 0.839035
vt 0.028468 0.838609
vt 0.067723 0.495988
vt 0.016778 0.555629
vt 0.013468 0.017449
vt 0.269573 0.025476
vt 0.324410 0.368679
vt 0.103745 0.322426
vt 0.121096 0.699284
vt 0.015088 0.765499
vt 0.067038 0.676505
vt 0.053013 0.770031
vt 0.025472 0.699284
vt 0.015088 0.765499
vt 0.067038 0.676505
vt 0.053013 0.770031
vt 0.025472 0.699284
vt 0.015088 0.765499
vt 0.067038 0.770031
vt 0.025472 0.676505
vt 0.053013 0.153426
vt 0.847052 0.154118
vt 0.990177 0.153426
vt 0.857123 0.020758
vt 0.526258 0.100121
vt 0.558666 0.181895
vt 0.433171 0.102928
vt 0.392696 0.019157
vt 0.419709 0.182261
vt 0.504026 0.428210
vt 0.847066 0.296129
vt 0.847062 0.864613
vt 0.847056 0.726025
vt 0.847058 0.593574
vt 0.847063 0.986784
vt 0.847054 0.153426
vt 0.847052 0.103989
vt 0.017957 0.199421
vt 0.017269 0.769027
vt 0.335831 0.905046
vt 0.352998 0.913028
vt 0.275550 0.803493
vt 0.307498 0.823938
vt 0.258842 0.880709
vt 0.221343 0.920486
vt 0.230445 0.013526
vt 0.107204 0.009245
vt 0.215644 0.215505
vt 0.214770 0.213244
vt 0.284821 0.699943
vt 0.132353 0.211544
vt 0.343366 0.170746
vt 0.350294 0.071858
vt 0.346924 0.110289
vt 0.353952 0.196808
vt 0.538473 0.968452
vt 0.538520 0.153426
vt 0.647401 0.960904
vt 0.015084 0.903544
vt 0.022359 0.909750
vt 0.061284 0.982839
vt 0.048442 0.839035
vt 0.028468 0.838609
vt 0.067723 0.699284
vt 0.015088 0.770031
vt 0.025472 0.765499
vt 0.067038 0.676505
vt 0.053013 0.839035
vt 0.028468 0.838609
vt 0.067723 0.699284
vt 0.015088 0.676505
vt 0.053013 0.765499
vt 0.067038 0.770031
vt 0.025472 0.838609
vt 0.067723 0.839035
vt 0.028468 0.495988
vt 0.016778 0.555629
vt 0.013468 0.017449
vt 0.269573 0.025476
vt 0.324410 0.368679
vt 0.103745 0.322426
vt 0.121096 0.699284
vt 0.015088 0.676505
vt 0.053013 0.765499
vt 0.067038 0.770031
vt 0.025472 0.699284
vt 0.015088 0.676505
vt 0.053013 0.765499
vt 0.067038 0.770031
vt 0.025472 0.699284
vt 0.015088 0.770031
vt 0.025472 0.765499
vt 0.067038 0.676505
vt 0.053013 0.153426
vt 0.847052 0.153426
vt 0.857123 0.154118
vt 0.990177 0.020758
vt 0.526258 0.100121
vt 0.558666 0.181895
vt 0.433171 0.102928
vt 0.392696 0.019157
vt 0.419709 0.182261
vt 0.504026 0.428210
vt 0.847066 0.296129
vt 0.847062 0.864613
vt 0.847056 0.726025
vt 0.847058 0.593574
vt 0.847063 0.986784
vt 0.847054 0.153426
vt 0.847052 1.000000

f 91/91 92/92 94/94
f 93/93 91/91 94/94
f 95/95 98/98 96/96
f 97/97 98/98 95/95
f 99/99 102/102 100/100
f 101/101 102/102 99/99
f 193/193 196/196 194/194
f 195/195 196/196 193/193
f 197/197 198/198 200/200
f 199/199 197/197 200/200
f 201/201 202/202 204/204
f 203/203 201/201 204/204
f 36/36 8/8 15/15
f 8/8 3/3 7/7
f 6/6 5/5 36/36
f 15/15 27/27 205/205
f 17/17 16/16 11/11
f 19/19 11/11 12/12
f 9/9 18/18 17/17
f 18/18 9/9 16/16
f 17/17 9/9 19/19
f 13/13 19/19 14/14
f 17/17 206/206 205/205
f 206/206 17/17 16/16
f 49/49 25/25 26/26
f 71/71 46/46 207/207
f 21/21 22/22 4/4
f 10/10 22/22 23/23
f 21/21 24/24 5/5
f 22/22 21/21 207/207
f 21/21 207/207 210/210
f 24/24 210/210 7/7
f 5/5 21/21 3/3
f 3/3 8/8 208/208
f 23/23 212/212 207/207
f 22/22 10/10 212/212
f 213/213 208/208 14/14
f 18/18 17/17 32/32
f 32/32 45/45 4/4
f 71/71 26/26 16/16
f 2/2 205/205 16/16
f 214/214 2/2 16/16
f 16/16 25/25 9/9
f 9/9 216/216 10/10
f 29/29 10/10 217/217
f 217/217 50/50 218/218
f 218/218 29/29 219/219
f 219/219 220/220 34/34
f 34/34 35/35 53/53
f 53/53 52/52 221/221
f 221/221 53/53 15/15
f 1/1 27/27 223/223
f 27/27 1/1 16/16
f 215/215 214/214 37/37
f 37/37 1/1 5/5
f 39/39 5/5 71/71
f 4/4 41/41 71/71
f 38/38 3/3 4/4
f 41/41 4/4 40/40
f 40/40 6/6 225/225
f 225/225 223/223 43/43
f 44/44 45/45 26/26
f 26/26 46/46 31/31
f 31/31 47/47 226/226
f 226/226 229/229 230/230
f 230/230 228/228 232/232
f 232/232 235/235 236/236
f 236/236 234/234 238/238
f 238/238 241/241 239/239
f 239/239 241/241 63/63
f 63/63 43/43 64/64
f 64/64 63/63 58/58
f 58/58 65/65 55/55
f 55/55 66/66 25/25
f 25/25 49/49 59/59
f 59/59 67/67 244/244
f 244/244 245/245 52/52
f 69/69 70/70 248/248
f 248/248 66/66 250/250
f 250/250 253/253 251/251
f 251/251 253/253 254/254
f 254/254 257/257 255/255
f 255/255 257/257 258/258
f 258/258 261/261 242/242
f 242/242 260/260 41/41
f 38/38 71/71 43/43
f 4/4 71/71 38/38
f 38/38 72/72 40/40
f 40/40 88/88 39/39
f 39/39 73/73 42/42
f 42/42 90/90 37/37
f 37/37 87/87 41/41
f 41/41 89/89 82/82
f 82/82 75/75 84/84
f 84/84 77/77 83/83
f 83/83 76/76 86/86
f 86/86 79/79 81/81
f 81/81 74/74 85/85
f 85/85 78/78 265/265
f 80/80 266/266 267/267
f 80/80 269/269 270/270
f 80/80 267/267 266/266
f 80/80 270/270 269/269
f 80/80 265/265 271/271
f 271/271 82/82 83/83
f 83/83 274/274 85/85
f 85/85 275/275 84/84
f 84/84 273/273 264/264
f 264/264 277/277 275/275
f 275/275 85/85 103/103
f 110/110 138/138 117/117
f 105/105 110/110 109/109
f 107/107 108/108 138/138
f 129/129 117/117 278/278
f 118/118 119/119 113/113
f 113/113 121/121 114/114
f 120/120 111/111 119/119
f 111/111 120/120 118/118
f 111/111 119/119 121/121
f 121/121 115/115 116/116
f 279/279 119/119 278/278
f 119/119 279/279 118/118
f 127/127 151/151 128/128
f 148/148 173/173 280/280
f 124/124 123/123 106/106
f 124/124 112/112 125/125
f 126/126 123/123 107/107
f 123/123 124/124 280/280
f 280/280 123/123 283/283
f 283/283 126/126 109/109
f 123/123 107/107 105/105
f 110/110 105/105 282/282
f 285/285 125/125 280/280
f 112/112 124/124 285/285
f 282/282 286/286 116/116
f 119/119 120/120 134/134
f 147/147 134/134 106/106
f 128/128 173/173 118/118
f 278/278 104/104 118/118
f 104/104 287/287 118/118
f 127/127 118/118 111/111
f 289/289 111/111 112/112
f 112/112 131/131 290/290
f 152/152 290/290 291/291
f 131/131 291/291 292/292
f 293/293 292/292 136/136
f 137/137 136/136 155/155
f 154/154 155/155 294/294
f 155/155 294/294 117/117
f 129/129 103/103 296/296
f 103/103 129/129 118/118
f 287/287 288/288 139/139
f 103/103 139/139 107/107
f 107/107 141/141 173/173
f 143/143 106/106 173/173
f 105/105 140/140 106/106
f 106/106 143/143 142/142
f 108/108 142/142 298/298
f 296/296 298/298 145/145
f 147/147 146/146 128/128
f 148/148 128/128 133/133
f 149/149 133/133 299/299
f 302/302 299/299 303/303
f 300/300 303/303 305/305
f 308/308 305/305 309/309
f 306/306 309/309 311/311
f 314/314 311/311 313/313
f 314/314 313/313 165/165
f 145/145 165/165 166/166
f 165/165 166/166 160/160
f 167/167 160/160 157/157
f 168/168 157/157 127/127
f 151/151 127/127 161/161
f 169/169 161/161 317/317
f 318/318 317/317 154/154
f 172/172 171/171 321/321
f 168/168 321/321 323/323
f 326/326 323/323 325/325
f 326/326 325/325 327/327
f 330/330 327/327 329/329
f 330/330 329/329 331/331
f 334/334 331/331 316/316
f 332/332 316/316 143/143
f 173/173 140/140 145/145
f 173/173 106/106 140/140
f 174/174 140/140 142/142
f 190/190 142/142 141/141
f 175/175 141/141 144/144
f 192/192 144/144 139/139
f 189/189 139/139 143/143
f 191/191 143/143 184/184
f 177/177 184/184 186/186
f 179/179 186/186 185/185
f 178/178 185/185 188/188
f 181/181 188/188 183/183
f 176/176 183/183 187/187
f 180/180 187/187 338/338
f 339/339 182/182 340/340
f 342/342 182/182 343/343
f 340/340 182/182 339/339
f 343/343 182/182 342/342
f 338/338 182/182 344/344
f 184/184 344/344 185/185
f 347/347 185/185 187/187
f 348/348 187/187 186/186
f 346/346 186/186 336/336
f 350/350 336/336 348/348
