# MOD converted: e_m_leatherboots026.mod
# 256 verts, 186 faces

v 51.426529 4.173668 -5.460484
v 22.835693 3.193365 -3.009311
v 39.221199 3.792345 -8.062134
v 22.837040 -5.876599 -1.047370
v 49.367859 3.149445 -22.416658
v 22.839214 4.272046 -20.987389
v 22.838280 -5.360701 -14.564542
v 22.837666 -8.266287 -17.992893
v 22.838177 12.383678 -8.646580
v 22.836109 12.128460 -7.510828
v 3.428911 -23.273888 -16.539726
v 3.424118 -25.305182 -8.378000
v 9.251635 -21.834696 -16.306450
v 10.855186 -24.021683 -15.126554
v 17.960608 -7.975906 -24.241871
v 9.675678 -20.212128 -21.723467
v 13.106262 -9.722938 -23.439651
v 11.778812 6.210606 -18.424353
v 12.071412 12.056433 -27.828630
v 3.434268 -12.529741 -25.065809
v 3.429065 -21.460129 -23.268513
v -0.000463 9.431913 -18.844332
v -0.001815 12.907032 -25.946760
v 3.443670 -5.072586 -9.359920
v -0.000249 12.419276 -8.854714
v 12.080012 12.000831 -8.438734
v 12.577911 -10.415837 -5.872795
v 0.002362 8.533873 -5.874197
v 11.778516 4.750530 -5.332616
v 3.444641 -6.415089 -28.592686
v 0.000241 -12.601257 -25.280365
v 0.000237 -21.475668 -7.274776
v 0.000235 -23.305372 -4.262528
v 0.000245 -13.848948 -26.229015
v -0.001212 -5.081532 -5.871033
v 0.001988 -6.311287 -16.567715
v -0.001246 -25.399342 -24.917528
v 1.904674 -0.794427 -5.711923
v 1.907742 -2.061957 -22.261250
v 16.912306 -4.921240 -8.032063
v 16.869207 -5.741077 -15.565159
v 15.094156 -11.796866 -5.792353
v 0.002232 0.889139 -24.092972
v -0.000714 1.971921 -12.178406
v 39.489124 0.449503 -5.403272
v 51.070187 12.270880 -4.316894
v 45.960178 -7.245099 -14.751919
v 51.813839 13.463521 -11.874963
v 45.586250 -10.446739 -19.204342
v 47.247814 -6.046485 -19.491467
v 40.647408 -5.838644 -12.521245
v 40.041992 -9.538832 -5.465559
v 39.429306 -6.697944 -21.516371
v 40.830791 4.541005 -16.069984
v 40.095394 13.567800 -6.609620
v 39.930012 13.786982 -22.387249
v 11.365740 -15.792087 -15.946729
v 12.895961 -18.056606 -8.404949
v 10.727412 -16.768463 -4.799855
v 3.434741 -13.986942 -21.723467
v 13.106262 -9.722938 -28.936867
v 12.989842 -14.383205 -27.533834
v 14.347321 -8.221200 -22.387245
v 11.365742 -15.792089 -23.897339
v 3.526574 3.241162 -23.320511
v 3.578549 8.453154 -18.718328
v 3.620417 12.651833 -9.219636
v 3.354157 12.303084 -6.220915
v 2.924304 8.452427 -5.733810
v 3.238986 -1.143176 21.235762
v 51.426529 4.173663 5.405759
v 22.835693 3.193358 2.954587
v 39.221195 3.792342 8.007408
v 22.837040 -5.876598 0.992646
v 49.367859 3.149444 22.361937
v 22.839214 4.272043 20.932663
v 22.838282 -5.360703 14.509818
v 22.837671 -8.266290 17.938169
v 22.838177 12.383678 8.591855
v 22.836111 12.128460 7.456103
v 3.428910 -23.273888 16.485001
v 3.424117 -25.305182 8.323276
v 9.251634 -21.834696 16.251724
v 10.855185 -24.021683 15.071831
v 17.960608 -7.975907 24.187149
v 9.675678 -20.212128 21.668743
v 13.106259 -9.722937 23.384928
v 11.778811 6.210607 18.369629
v 12.071411 12.056433 27.773907
v 3.434268 -12.529743 25.011087
v 3.429063 -21.460129 23.213787
v -0.000463 9.431915 18.789608
v -0.001817 12.907034 25.892038
v 3.443671 -5.072587 9.305195
v -0.000251 12.419277 8.799991
v 12.080013 12.000830 8.384010
v 12.577911 -10.415838 5.818072
v 0.002361 8.533874 5.819472
v 11.778516 4.750530 5.277891
v 3.444641 -6.415090 28.537960
v 0.000243 -12.601259 25.225641
v 0.000238 -21.475668 7.220051
v 0.000233 -23.305374 4.207805
v 0.000243 -13.848948 26.174294
v -0.001211 -5.081532 5.816308
v 0.001989 -6.311288 16.512991
v -0.001246 -25.399340 24.862806
v 1.904674 -0.794428 5.657199
v 1.907743 -2.061957 22.206526
v 16.912306 -4.921239 7.977340
v 16.869209 -5.741076 15.510430
v 15.094156 -11.796866 5.737630
v 0.002231 0.889139 24.038248
v -0.000714 1.971920 12.123683
v 39.489124 0.449503 5.348548
v 51.070187 12.270879 4.262167
v 45.960178 -7.245098 14.697195
v 51.813839 13.463522 11.820238
v 45.586250 -10.446738 19.149616
v 47.247814 -6.046484 19.436745
v 40.647408 -5.838644 12.466524
v 40.041992 -9.538832 5.410835
v 39.429306 -6.697943 21.461647
v 40.830791 4.541003 16.015261
v 40.095394 13.567801 6.554893
v 39.930008 13.786981 22.332521
v 11.365742 -15.792089 15.892006
v 12.895961 -18.056606 8.350222
v 10.727412 -16.768463 4.745131
v 3.434741 -13.986942 21.668743
v 13.106259 -9.722937 28.882145
v 12.989841 -14.383206 27.479113
v 14.347322 -8.221202 22.332523
v 11.365743 -15.792089 23.842615
v 3.526574 3.241163 23.265789
v 3.578549 8.453155 18.663605
v 3.620417 12.651833 9.164911
v 3.354157 12.303085 6.166191
v 2.924304 8.452427 5.679085
v 3.238986 -1.143176 -3.009311
v 39.221199 3.792345 -1.047370
v 49.367859 3.149445 -4.799855
v 3.434741 -13.986942 -5.874197
v 11.778516 4.750530 -8.438734
v 12.577911 -10.415837 -5.332616
v 3.444641 -6.415089 -7.510828
v 3.428911 -23.273888 -7.274776
v 0.000235 -23.305372 -16.539726
v 3.424118 -25.305182 -4.799855
v 3.434741 -13.986942 -4.262528
v 0.000245 -13.848948 -5.871033
v 0.001988 -6.311287 -4.262528
v 0.000245 -13.848948 -5.871033
v 0.001988 -6.311287 -5.332616
v 3.444641 -6.415089 -28.592686
v 0.000241 -12.601257 -25.946760
v 3.443670 -5.072586 -26.229015
v -0.001212 -5.081532 -25.065809
v 3.429065 -21.460129 -25.280365
v 0.000237 -21.475668 -28.592686
v 0.000241 -12.601257 -27.828630
v 3.434268 -12.529741 -16.539726
v 3.424118 -25.305182 -16.567715
v -0.001246 -25.399342 -16.567715
v -0.001246 -25.399342 -5.460484
v 22.835693 3.193365 -5.711923
v 1.907742 -2.061957 -26.229015
v -0.001212 -5.081532 -24.917528
v 1.904674 -0.794427 -25.946760
v 3.443670 -5.072586 -21.723467
v 13.106262 -9.722938 -27.828630
v 3.434268 -12.529741 -6.220915
v 2.924304 8.452427 -14.751919
v 51.813839 13.463521 -21.290483
v 51.426529 4.173668 -1.047370
v 49.367859 3.149445 -5.403272
v 51.070187 12.270880 -19.204342
v 47.247814 -6.046485 -11.874963
v 45.586250 -10.446739 -4.316894
v 45.960178 -7.245099 -22.387249
v 11.365740 -15.792087 -15.565159
v 15.094156 -11.796866 -15.946729
v 12.895961 -18.056606 -8.404949
v 10.727412 -16.768463 -23.897339
v 3.526574 3.241162 -24.092972
v -0.000714 1.971921 -23.268513
v -0.000463 9.431913 -23.320511
v 3.578549 8.453154 -18.844332
v -0.001815 12.907032 -18.718328
v 3.620417 12.651833 -18.718328
v 3.620417 12.651833 -9.359920
v -0.000249 12.419276 -9.219636
v 3.354157 12.303084 -18.844332
v -0.001815 12.907032 -5.872795
v 0.002362 8.533873 -6.220915
v 2.924304 8.452427 -5.792353
v 0.002232 0.889139 -5.733810
v 3.238986 -1.143176 2.954587
v 39.221195 3.792342 0.992646
v 49.367859 3.149444 4.745131
v 3.434741 -13.986942 8.384010
v 12.577911 -10.415838 5.819472
v 11.778516 4.750530 5.277891
v 3.444641 -6.415090 7.456103
v 3.428910 -23.273888 7.220051
v 0.000233 -23.305374 16.485001
v 3.424117 -25.305182 4.745131
v 3.434741 -13.986942 4.207805
v 0.000243 -13.848948 4.207805
v 0.000243 -13.848948 5.816308
v 0.001989 -6.311288 5.277891
v 3.444641 -6.415090 5.816308
v 0.001989 -6.311288 25.892038
v 3.443671 -5.072587 28.537960
v 0.000243 -12.601259 26.174294
v -0.001211 -5.081532 25.011087
v 3.429063 -21.460129 28.537960
v 0.000243 -12.601259 25.225641
v 0.000238 -21.475668 27.773907
v 3.434268 -12.529743 16.485001
v 3.424117 -25.305182 16.512991
v -0.001246 -25.399340 16.512991
v -0.001246 -25.399340 5.405759
v 22.835693 3.193358 5.657199
v 1.907743 -2.061957 26.174294
v -0.001211 -5.081532 25.892038
v 3.443671 -5.072587 24.862806
v 1.904674 -0.794428 21.668743
v 13.106259 -9.722937 27.773907
v 3.434268 -12.529743 6.166191
v 2.924304 8.452427 14.697195
v 51.813839 13.463522 21.235762
v 51.426529 4.173663 0.992646
v 49.367859 3.149444 5.348548
v 51.070187 12.270879 19.149616
v 47.247814 -6.046484 11.820238
v 45.586250 -10.446738 4.262167
v 45.960178 -7.245098 22.332521
v 11.365742 -15.792089 15.510430
v 15.094156 -11.796866 15.892006
v 12.895961 -18.056606 8.350222
v 10.727412 -16.768463 23.842615
v 3.526574 3.241163 24.038248
v -0.000714 1.971920 23.213787
v -0.000463 9.431915 23.265789
v 3.578549 8.453155 18.789608
v -0.001817 12.907034 18.663605
v 3.620417 12.651833 18.663605
v 3.620417 12.651833 9.305195
v -0.000251 12.419277 18.789608
v -0.001817 12.907034 9.164911
v 3.354157 12.303085 5.818072
v 0.002361 8.533874 6.166191
v 2.924304 8.452427 5.737630
v 0.002231 0.889139 5.679085
v 3.238986 -1.143176 0.594297

vt 0.785195 0.787582
vt 0.466883 0.822802
vt 0.653082 0.691968
vt 0.432647 0.020036
vt 0.832155 0.380084
vt 0.426266 0.512964
vt 0.407922 0.604358
vt 0.416966 0.257342
vt 0.451598 0.139799
vt 0.471646 0.840084
vt 0.081290 0.684651
vt 0.006279 0.787780
vt 0.143209 0.668726
vt 0.116352 0.605452
vt 0.343057 0.536012
vt 0.116698 0.526169
vt 0.254141 0.327467
vt 0.304725 0.234669
vt 0.324380 0.056463
vt 0.892041 0.514638
vt 0.026580 0.054220
vt 0.128631 0.025944
vt 0.103203 0.403735
vt 0.165546 0.024609
vt 0.044512 0.120938
vt 0.343717 0.394188
vt 0.989474 0.052462
vt 0.016348 0.026805
vt 0.352091 0.524699
vt 0.989474 0.236059
vt 0.145567 0.300964
vt 0.124438 0.294693
vt 0.012663 0.226286
vt 0.006008 0.172260
vt 0.139037 0.169606
vt 0.007195 0.708988
vt 0.907972 0.136778
vt 0.133290 0.928771
vt 0.853526 0.488230
vt 0.328263 0.713913
vt 0.361189 0.619989
vt 0.274471 0.110241
vt 0.007782 0.110901
vt 0.129771 0.916421
vt 0.575151 0.151128
vt 0.831512 0.694978
vt 0.736233 0.272234
vt 0.821445 0.604358
vt 0.730698 0.512964
vt 0.740088 0.512964
vt 0.653082 0.604358
vt 0.653082 0.691968
vt 0.653082 0.387280
vt 0.653082 0.261498
vt 0.653082 0.150632
vt 0.653082 0.527460
vt 0.202321 0.645915
vt 0.220586 0.781289
vt 0.230598 0.915841
vt 0.209932 0.684277
vt 0.989691 0.585275
vt 0.893872 0.585275
vt 0.989691 0.684277
vt 0.893872 0.327163
vt 0.199959 0.279652
vt 0.210633 0.212907
vt 0.223394 0.105094
vt 0.240226 0.048190
vt 0.242345 0.905745
vt 0.293782 0.405703
vt 0.785195 0.787582
vt 0.466883 0.822802
vt 0.653082 0.691968
vt 0.432647 0.020036
vt 0.832155 0.380084
vt 0.426266 0.512964
vt 0.407922 0.604358
vt 0.416966 0.257342
vt 0.451598 0.139799
vt 0.471646 0.840084
vt 0.081290 0.684651
vt 0.006279 0.787780
vt 0.143209 0.668726
vt 0.116352 0.605452
vt 0.343057 0.536012
vt 0.116698 0.526169
vt 0.254141 0.327467
vt 0.304725 0.234669
vt 0.324380 0.056463
vt 0.892041 0.514638
vt 0.026580 0.054220
vt 0.128631 0.025944
vt 0.103203 0.403735
vt 0.165546 0.024609
vt 0.044512 0.120938
vt 0.343717 0.394188
vt 0.989474 0.052462
vt 0.016348 0.026805
vt 0.352091 0.524699
vt 0.989474 0.236059
vt 0.145567 0.300964
vt 0.124438 0.294693
vt 0.012663 0.226286
vt 0.006008 0.172260
vt 0.139037 0.169606
vt 0.007195 0.708988
vt 0.907972 0.136778
vt 0.133290 0.928771
vt 0.853526 0.488230
vt 0.328263 0.713913
vt 0.361189 0.619989
vt 0.274471 0.110241
vt 0.007782 0.110901
vt 0.129771 0.916421
vt 0.575151 0.151128
vt 0.831512 0.694978
vt 0.736233 0.272234
vt 0.821445 0.604358
vt 0.730698 0.512964
vt 0.740088 0.512964
vt 0.653082 0.604358
vt 0.653082 0.691968
vt 0.653082 0.387280
vt 0.653082 0.261498
vt 0.653082 0.150632
vt 0.653082 0.527460
vt 0.202321 0.645915
vt 0.220586 0.781289
vt 0.230598 0.915841
vt 0.209932 0.684277
vt 0.989691 0.585275
vt 0.893872 0.585275
vt 0.989691 0.684277
vt 0.893872 0.327163
vt 0.199959 0.279652
vt 0.210633 0.212907
vt 0.223394 0.105094
vt 0.240226 0.048190
vt 0.242345 0.905745
vt 0.293782 0.022565
vt 0.653082 0.829046
vt 0.788706 0.510684
vt 0.892041 0.860695
vt 0.406566 0.723311
vt 0.281272 0.857965
vt 0.254482 0.849658
vt 0.986612 0.851019
vt 0.907972 0.707627
vt 0.986612 0.995083
vt 0.986612 0.995083
vt 0.907972 0.568787
vt 0.989474 0.568787
vt 0.892041 0.990265
vt 0.804988 0.989438
vt 0.883329 0.004213
vt 0.892041 0.055366
vt 0.989474 0.004213
vt 0.989474 0.849658
vt 0.986612 0.851019
vt 0.907972 0.995083
vt 0.907972 0.995083
vt 0.986612 0.707627
vt 0.986612 0.708988
vt 0.907972 0.318455
vt 0.068741 0.023048
vt 0.481059 0.134971
vt 0.007381 0.990265
vt 0.804988 0.928771
vt 0.853526 0.989438
vt 0.883329 0.199143
vt 0.989474 0.363524
vt 0.106077 0.967460
vt 0.375298 0.892405
vt 0.640472 0.853272
vt 0.594162 0.979967
vt 0.589085 0.952073
vt 0.634669 0.866646
vt 0.543332 0.910303
vt 0.522360 0.962855
vt 0.538728 0.199143
vt 0.892041 0.290527
vt 0.989474 0.290527
vt 0.892041 0.394188
vt 0.892041 0.869151
vt 0.883329 0.886753
vt 0.804988 0.784682
vt 0.804988 0.783855
vt 0.883329 0.714722
vt 0.804988 0.713895
vt 0.883329 0.584032
vt 0.883329 0.714722
vt 0.804988 0.713895
vt 0.883329 0.581022
vt 0.804988 0.784682
vt 0.804988 0.783855
vt 0.883329 0.886753
vt 0.804988 0.869151
vt 0.883329 0.022565
vt 0.653082 0.829046
vt 0.788706 0.510684
vt 0.892041 0.723311
vt 0.281272 0.860695
vt 0.406566 0.857965
vt 0.254482 0.849658
vt 0.986612 0.851019
vt 0.907972 0.707627
vt 0.986612 0.995083
vt 0.986612 0.995083
vt 0.907972 0.568787
vt 0.892041 0.568787
vt 0.989474 0.989438
vt 0.883329 0.990265
vt 0.804988 0.055366
vt 0.989474 0.004213
vt 0.892041 0.004213
vt 0.989474 0.849658
vt 0.986612 0.995083
vt 0.907972 0.851019
vt 0.907972 0.995083
vt 0.986612 0.707627
vt 0.986612 0.708988
vt 0.907972 0.318455
vt 0.068741 0.023048
vt 0.481059 0.134971
vt 0.007381 0.990265
vt 0.804988 0.989438
vt 0.883329 0.928771
vt 0.853526 0.199143
vt 0.989474 0.363524
vt 0.106077 0.967460
vt 0.375298 0.892405
vt 0.640472 0.853272
vt 0.594162 0.979967
vt 0.589085 0.952073
vt 0.634669 0.866646
vt 0.543332 0.910303
vt 0.522360 0.962855
vt 0.538728 0.199143
vt 0.892041 0.290527
vt 0.989474 0.290527
vt 0.892041 0.394188
vt 0.892041 0.869151
vt 0.883329 0.886753
vt 0.804988 0.784682
vt 0.804988 0.783855
vt 0.883329 0.714722
vt 0.804988 0.713895
vt 0.883329 0.584032
vt 0.883329 0.714722
vt 0.804988 0.581022
vt 0.804988 0.713895
vt 0.883329 0.784682
vt 0.804988 0.783855
vt 0.883329 0.886753
vt 0.804988 0.869151
vt 0.883329 1.000000

f 48/48 1/1 55/55
f 54/54 55/55 1/1
f 47/47 3/3 53/53
f 46/46 56/56 5/5
f 141/141 5/5 56/56
f 55/55 56/56 48/48
f 46/46 48/48 56/56
f 1/1 50/50 54/54
f 142/142 3/3 47/47
f 54/54 50/50 51/51
f 118/118 125/125 71/71
f 124/124 71/71 125/125
f 117/117 123/123 73/73
f 116/116 75/75 126/126
f 199/199 126/126 75/75
f 125/125 118/118 126/126
f 116/116 126/126 118/118
f 71/71 124/124 120/120
f 200/200 117/117 73/73
f 124/124 121/121 120/120
f 2/2 4/4 54/54
f 51/51 52/52 53/53
f 53/53 52/52 17/17
f 15/15 42/42 18/18
f 19/19 9/9 67/67
f 19/19 66/66 18/18
f 66/66 19/19 26/26
f 19/19 68/68 15/15
f 7/7 8/8 40/40
f 15/15 17/17 18/18
f 17/17 24/24 40/40
f 18/18 6/6 19/19
f 26/26 9/9 10/10
f 9/9 26/26 29/29
f 26/26 69/69 13/13
f 59/59 60/60 13/13
f 60/60 11/11 27/27
f 30/30 143/143 41/41
f 41/41 2/2 29/29
f 10/10 26/26 32/32
f 34/34 35/35 36/36
f 35/35 34/34 144/144
f 146/146 145/145 12/12
f 21/21 14/14 42/42
f 15/15 145/145 13/13
f 13/13 14/14 65/65
f 18/18 24/24 15/15
f 8/8 4/4 41/41
f 145/145 15/15 147/147
f 149/149 147/147 150/150
f 151/151 147/147 148/148
f 147/147 151/151 30/30
f 143/143 30/30 39/39
f 154/154 155/155 20/20
f 156/156 157/157 158/158
f 157/157 156/156 159/159
f 162/162 159/159 163/163
f 164/164 159/159 160/160
f 159/159 164/164 165/165
f 33/33 32/32 22/22
f 28/28 22/22 69/69
f 19/19 67/67 22/22
f 28/28 25/25 10/10
f 29/29 166/166 9/9
f 6/6 18/18 40/40
f 17/17 18/18 36/36
f 167/167 35/35 38/38
f 35/35 167/167 168/168
f 169/169 170/170 18/18
f 65/65 66/66 144/144
f 70/70 146/146 11/11
f 14/14 13/13 171/171
f 20/20 157/157 16/16
f 172/172 57/57 7/7
f 40/40 6/6 7/7
f 15/15 40/40 4/4
f 4/4 2/2 57/57
f 57/57 58/58 14/14
f 21/21 16/16 172/172
f 16/16 21/21 11/11
f 12/12 14/14 44/44
f 43/43 44/44 144/144
f 173/173 70/70 174/174
f 45/45 175/175 176/176
f 45/45 174/174 175/175
f 45/45 179/179 180/180
f 45/45 176/176 179/179
f 45/45 180/180 51/51
f 51/51 50/50 54/54
f 54/54 6/6 55/55
f 55/55 9/9 10/10
f 10/10 166/166 4/4
f 4/4 8/8 20/20
f 171/171 182/182 181/181
f 182/182 27/27 184/184
f 27/27 143/143 61/61
f 61/61 64/64 170/170
f 169/169 186/186 187/187
f 187/187 188/188 189/189
f 189/189 190/190 191/191
f 191/191 194/194 193/193
f 193/193 192/192 196/196
f 196/196 195/195 198/198
f 197/197 39/39 198/198
f 39/39 155/155 72/72
f 72/72 73/73 124/124
f 124/124 76/76 121/121
f 121/121 77/77 123/123
f 123/123 117/117 87/87
f 112/112 85/85 88/88
f 79/79 89/89 137/137
f 136/136 89/89 88/88
f 89/89 136/136 96/96
f 138/138 89/89 85/85
f 78/78 77/77 110/110
f 87/87 85/85 88/88
f 94/94 87/87 110/110
f 76/76 88/88 89/89
f 79/79 96/96 80/80
f 96/96 79/79 99/99
f 139/139 96/96 83/83
f 130/130 129/129 83/83
f 81/81 130/130 97/97
f 201/201 100/100 111/111
f 72/72 111/111 99/99
f 96/96 80/80 102/102
f 105/105 104/104 106/106
f 104/104 105/105 203/203
f 202/202 204/204 82/82
f 84/84 91/91 112/112
f 202/202 85/85 83/83
f 83/83 129/129 135/135
f 94/94 88/88 85/85
f 74/74 78/78 111/111
f 85/85 202/202 205/205
f 205/205 207/207 208/208
f 205/205 209/209 206/206
f 209/209 205/205 100/100
f 100/100 201/201 109/109
f 212/212 213/213 90/90
f 214/214 215/215 216/216
f 215/215 214/214 217/217
f 217/217 220/220 221/221
f 217/217 222/222 219/219
f 222/222 217/217 223/223
f 102/102 103/103 92/92
f 92/92 98/98 139/139
f 137/137 89/89 92/92
f 95/95 98/98 80/80
f 224/224 99/99 79/79
f 88/88 76/76 110/110
f 88/88 87/87 106/106
f 105/105 225/225 108/108
f 225/225 105/105 226/226
f 227/227 228/228 88/88
f 136/136 135/135 203/203
f 204/204 140/140 81/81
f 83/83 84/84 229/229
f 214/214 90/90 86/86
f 127/127 230/230 77/77
f 76/76 110/110 77/77
f 110/110 85/85 74/74
f 72/72 74/74 127/127
f 127/127 86/86 84/84
f 86/86 91/91 230/230
f 91/91 86/86 81/81
f 84/84 82/82 114/114
f 114/114 113/113 203/203
f 140/140 231/231 232/232
f 233/233 115/115 234/234
f 232/232 115/115 233/233
f 237/237 115/115 238/238
f 234/234 115/115 237/237
f 238/238 115/115 121/121
f 121/121 122/122 124/124
f 125/125 126/126 80/80
f 80/80 126/126 74/74
f 74/74 123/123 90/90
f 240/240 229/229 239/239
f 97/97 240/240 242/242
f 201/201 97/97 131/131
f 134/134 131/131 227/227
f 244/244 228/228 245/245
f 245/245 244/244 247/247
f 247/247 245/245 249/249
f 109/109 255/255 256/256
