# MOD converted: e_m_leatherglove021.mod
# 360 verts, 7 faces

v 95.157356 -4.891831 58.495502
v 97.680099 -3.481321 61.128929
v 94.870285 6.939830 58.617867
v 97.393028 5.614408 60.234604
v 94.143211 -6.371095 56.568573
v 97.182068 -4.610137 60.387737
v 93.665436 8.436823 56.721714
v 97.077011 6.773626 60.126511
v 96.643211 1.064887 63.055702
v 94.437126 1.024282 62.799187
v 92.880707 1.032582 58.302898
v 96.609085 1.083402 45.658298
v 91.616989 6.142730 48.781944
v 96.585159 9.200016 45.321907
v 91.557785 -0.987237 52.013008
v 101.293999 6.729921 48.482628
v 96.514999 -4.837738 51.789604
v 101.503983 -2.043530 47.450207
v 87.796875 -7.143745 60.576000
v 92.777489 9.274984 54.691700
v 89.966187 -7.768532 58.438511
v 90.325478 -6.931155 56.683411
v 85.002785 -8.870591 54.937103
v 87.560287 -8.620220 54.728607
v 82.092087 -10.105594 50.830803
v 84.435196 -9.345360 52.672508
v 94.569511 9.790949 54.940697
v 90.522186 4.302479 51.549603
v 87.261269 -4.136867 52.728508
v 85.087387 -6.591290 55.324013
v 83.410583 -7.745711 60.751808
v 93.555786 -6.790448 50.121502
v 91.378777 -8.370687 55.115932
v 93.840248 -7.355961 56.406303
v 84.047791 -11.230392 52.913811
v 87.241089 -10.842093 59.204903
v 90.390182 1.147865 61.586800
v 94.013985 1.291774 50.746197
v 90.759201 8.125910 64.627602
v 90.234581 -6.810408 62.524002
v 87.708588 -6.781469 63.195503
v 87.560883 1.343544 65.301994
v 90.311081 1.335744 68.322296
v 86.401985 -6.646159 65.665703
v 85.152588 -6.641610 66.520706
v 84.934486 1.218944 69.219505
v 86.142685 1.168364 58.248001
v 89.714294 9.254026 61.226006
v 93.951385 -2.587397 65.023903
v 90.367981 -3.111207 68.809303
v 86.241684 -3.539327 60.954704
v 93.531189 5.682244 64.953499
v 90.170784 4.902585 68.725105
v 86.261185 4.348534 59.029007
v 90.488586 -2.757106 62.864998
v 87.633484 -3.147447 66.160706
v 85.006584 -3.436038 58.784103
v 90.179688 5.313145 62.928604
v 87.489082 4.743463 66.046692
v 85.084885 4.310194 66.891701
v 86.566086 7.927415 64.381905
v 85.406685 7.857054 61.595894
v 87.991882 8.604702 63.719906
v 90.052383 8.729095 63.355598
v 87.582687 1.010943 65.462105
v 90.332886 1.003155 67.247101
v 84.166183 0.665187 70.141800
v 85.585388 0.614613 65.277596
v 90.371483 -2.659267 69.981300
v 85.661682 -2.709367 64.237495
v 90.303581 5.493765 67.314903
v 86.708786 5.181944 63.118790
v 87.636887 -2.695517 67.076103
v 84.231087 -2.606078 62.097893
v 87.969284 5.205924 64.833397
v 85.500984 5.071815 41.295769
v 93.735733 5.802300 34.915215
v 95.502121 7.188720 38.451843
v 104.537720 10.632045 44.319469
v 99.222534 8.735583 41.326561
v 93.736137 -0.651375 47.770081
v 104.483086 5.967848 40.095253
v 108.732185 -1.883209 47.641285
v 104.521172 -0.919124 44.405197
v 99.239883 -3.730437 34.935555
v 95.553741 -1.404981 38.439445
v 104.506042 -4.354787 40.168945
v 108.920258 7.665024 37.951420
v 103.255005 2.973794 56.020508
v 98.365677 1.823390 55.270397
v 97.888496 7.869112 55.137913
v 98.293770 -4.393581 52.633804
v 95.027161 -6.518679 50.603210
v 90.463486 0.456032 54.842003
v 90.301796 -1.975294 36.705936
v 100.074791 -3.403928 36.714500
v 100.096710 9.527592 41.196007
v 111.540222 3.021410 46.030807
v 101.215508 -3.542836 42.392941
v 102.828743 -4.262182 40.381752
v 98.537910 -4.467039 44.195145
v 96.959610 -4.441922 43.992405
v 96.691666 9.238071 42.316792
v 93.106483 7.031145 38.555817
v 94.466293 6.780125 40.117172
v 98.249420 9.806825 42.170650
v 102.639137 10.113164 45.981003
v 101.059036 8.574330 41.997417
v 92.431030 -1.321953 38.357029
v 93.847481 -1.443066 45.447151
v 105.065491 7.201108 45.382240
v 105.055359 -1.814969 -61.008236
v 95.157364 -4.891829 -58.497162
v 97.680107 -3.481318 -61.130600
v 94.870277 6.939833 -58.619530
v 97.393028 5.614411 -60.236259
v 94.143227 -6.371093 -56.570232
v 97.182076 -4.610136 -60.389408
v 93.665428 8.436825 -56.723381
v 97.077011 6.773628 -60.128174
v 96.643211 1.064890 -63.057365
v 94.437134 1.024284 -62.800850
v 92.880707 1.032584 -58.304565
v 96.609085 1.083403 -45.659966
v 91.616989 6.142726 -48.783401
v 96.584793 9.200024 -45.323570
v 91.557785 -0.987241 -52.014671
v 101.293991 6.729923 -48.484268
v 96.514969 -4.837737 -51.791267
v 101.503983 -2.043528 -47.451874
v 87.796875 -7.143746 -60.577667
v 92.777481 9.274986 -54.693371
v 89.966187 -7.768532 -58.440170
v 90.325485 -6.931157 -56.685074
v 85.002785 -8.870590 -54.938766
v 87.560287 -8.620220 -54.730270
v 82.092087 -10.105594 -50.832466
v 84.435196 -9.345361 -52.674175
v 94.569504 9.790947 -54.942360
v 90.522186 4.302476 -51.551270
v 87.261269 -4.136867 -52.730171
v 85.087387 -6.591290 -55.325676
v 83.410583 -7.745709 -60.753471
v 93.555786 -6.790450 -50.123169
v 91.378777 -8.370688 -55.117599
v 93.840240 -7.355960 -56.407967
v 84.047791 -11.230391 -52.915474
v 87.241089 -10.842093 -59.206566
v 90.390182 1.147864 -61.588463
v 94.013985 1.291774 -50.747864
v 90.759193 8.125906 -64.629265
v 90.234581 -6.810410 -62.525665
v 87.708588 -6.781470 -63.197166
v 87.560883 1.343545 -65.303658
v 90.311081 1.335748 -68.323967
v 86.401985 -6.646158 -65.667366
v 85.152588 -6.641611 -66.522369
v 84.934486 1.218946 -69.221169
v 86.142685 1.168369 -58.249664
v 89.714294 9.254027 -61.227669
v 93.951385 -2.587397 -65.025558
v 90.367981 -3.111207 -68.810966
v 86.241684 -3.539327 -60.956367
v 93.531189 5.682245 -64.955162
v 90.170784 4.902585 -68.726768
v 86.261185 4.348534 -59.030670
v 90.488586 -2.757107 -62.866661
v 87.633484 -3.147448 -66.162369
v 85.006584 -3.436038 -58.785767
v 90.179688 5.313145 -62.930267
v 87.489082 4.743464 -66.048355
v 85.084885 4.310194 -66.893364
v 86.566086 7.927415 -64.383568
v 85.406685 7.857055 -61.597557
v 87.991882 8.604704 -63.721565
v 90.052383 8.729096 -63.357262
v 87.582687 1.010943 -65.463768
v 90.332886 1.003155 -67.248764
v 84.166183 0.665187 -70.143463
v 85.585388 0.614614 -65.279266
v 90.371483 -2.659267 -69.982964
v 85.661682 -2.709368 -64.239159
v 90.303581 5.493765 -67.316566
v 86.708786 5.181945 -63.120453
v 87.636887 -2.695518 -67.077766
v 84.231087 -2.606078 -62.099556
v 87.969284 5.205925 -64.835060
v 85.500984 5.071815 -41.297432
v 93.735733 5.802297 -34.916878
v 95.502121 7.188717 -38.453510
v 104.537712 10.632045 -44.320709
v 99.221817 8.735598 -41.328224
v 93.736137 -0.651378 -47.771744
v 104.483086 5.967849 -40.096912
v 108.732185 -1.883208 -47.642944
v 104.521172 -0.919122 -44.406853
v 99.239876 -3.730437 -34.937210
v 95.553749 -1.404986 -38.441105
v 104.506042 -4.354787 -40.170612
v 108.920258 7.665024 -37.953083
v 103.255005 2.973794 -56.022167
v 98.365677 1.823393 -55.272064
v 97.888489 7.869114 -55.139568
v 98.293777 -4.393579 -52.635468
v 95.027176 -6.518680 -50.604874
v 90.463486 0.456030 -54.843666
v 90.301796 -1.975296 -36.707596
v 100.074799 -3.403928 -36.716171
v 100.096710 9.527590 -41.197670
v 111.540222 3.021412 -46.032471
v 101.215515 -3.542835 -42.394600
v 102.828743 -4.262180 -40.383411
v 98.537910 -4.467040 -44.196808
v 96.959625 -4.441923 -43.994072
v 96.691666 9.238070 -42.318459
v 93.106483 7.031140 -38.557480
v 94.466293 6.780121 -40.118832
v 98.249420 9.806823 -42.172318
v 102.639130 10.113164 -45.982666
v 101.059036 8.574330 -41.999077
v 92.431030 -1.321955 -38.358692
v 93.847481 -1.443067 -45.448814
v 105.065483 7.201109 -45.383904
v 105.055359 -1.814968 45.321907
v 91.557785 -0.987237 47.450207
v 87.796875 -7.143745 54.691700
v 89.966187 -7.768532 50.830803
v 84.435196 -9.345360 54.728607
v 82.092087 -10.105594 54.937103
v 87.560287 -8.620220 56.683411
v 85.002785 -8.870591 56.683411
v 85.002785 -8.870591 55.324013
v 83.410583 -7.745711 58.438511
v 90.325478 -6.931155 62.524002
v 87.708588 -6.781469 65.665703
v 85.152588 -6.641610 65.665703
v 85.152588 -6.641610 65.665703
v 85.152588 -6.641610 66.160706
v 85.006584 -3.436038 66.520706
v 84.934486 1.218944 66.046692
v 85.084885 4.310194 62.864998
v 87.633484 -3.147447 66.160706
v 85.006584 -3.436038 65.023903
v 90.367981 -3.111207 68.809303
v 86.241684 -3.539327 61.226006
v 93.951385 -2.587397 59.029007
v 90.488586 -2.757106 62.928604
v 87.489082 4.743463 66.046692
v 85.084885 4.310194 64.953499
v 90.170784 4.902585 68.725105
v 86.261185 4.348534 60.954704
v 93.531189 5.682244 58.784103
v 90.179688 5.313145 69.219505
v 86.142685 1.168364 66.520706
v 84.934486 1.218944 65.301994
v 90.311081 1.335744 63.195503
v 87.560883 1.343544 61.586800
v 94.013985 1.291774 59.204903
v 90.390182 1.147865 67.247101
v 84.166183 0.665187 67.076103
v 84.231087 -2.606078 64.381905
v 85.406685 7.857054 64.833397
v 85.500984 5.071815 69.981300
v 85.661682 -2.709367 67.076103
v 84.231087 -2.606078 65.277596
v 90.371483 -2.659267 63.118790
v 87.636887 -2.695517 61.226006
v 93.951385 -2.587397 59.029007
v 90.488586 -2.757106 67.314903
v 86.708786 5.181944 64.833397
v 85.500984 5.071815 64.237495
v 90.303581 5.493765 62.097893
v 87.969284 5.205924 60.954704
v 93.531189 5.682244 58.784103
v 90.179688 5.313145 63.355598
v 87.582687 1.010943 67.247101
v 84.166183 0.665187 65.462105
v 90.332886 1.003155 70.141800
v 85.585388 0.614613 61.586800
v 94.013985 1.291774 59.204903
v 90.390182 1.147865 41.326561
v 93.736137 -0.651375 34.935555
v 95.553741 -1.404981 36.714500
v 100.096710 9.527592 34.915215
v 95.502121 7.188720 34.935555
v 95.553741 -1.404981 36.705936
v 100.074791 -3.403928 38.439445
v 104.506042 -4.354787 40.095253
v 108.732185 -1.883209 40.168945
v 108.920258 7.665024 38.451843
v 104.537720 10.632045 41.196007
v 111.540222 3.021410 -45.323570
v 91.557785 -0.987241 -47.451874
v 87.796875 -7.143746 -54.693371
v 89.966187 -7.768532 -50.832466
v 84.435196 -9.345361 -54.730270
v 82.092087 -10.105594 -54.938766
v 87.560287 -8.620220 -56.685074
v 85.002785 -8.870590 -56.685074
v 85.002785 -8.870590 -55.325676
v 83.410583 -7.745709 -58.440170
v 90.325485 -6.931157 -62.525665
v 87.708588 -6.781470 -65.667366
v 85.152588 -6.641611 -65.667366
v 85.152588 -6.641611 -65.667366
v 85.152588 -6.641611 -66.162369
v 85.006584 -3.436038 -66.522369
v 84.934486 1.218946 -66.048355
v 85.084885 4.310194 -62.866661
v 87.633484 -3.147448 -65.025558
v 90.367981 -3.111207 -66.162369
v 85.006584 -3.436038 -68.810966
v 86.241684 -3.539327 -61.227669
v 93.951385 -2.587397 -59.030670
v 90.488586 -2.757107 -62.930267
v 87.489082 4.743464 -64.955162
v 90.170784 4.902585 -66.048355
v 85.084885 4.310194 -68.726768
v 86.261185 4.348534 -60.956367
v 93.531189 5.682245 -58.785767
v 90.179688 5.313145 -69.221169
v 86.142685 1.168369 -65.303658
v 90.311081 1.335748 -66.522369
v 84.934486 1.218946 -63.197166
v 87.560883 1.343545 -61.588463
v 94.013985 1.291774 -59.206566
v 90.390182 1.147864 -67.248764
v 84.166183 0.665187 -67.077766
v 84.231087 -2.606078 -64.383568
v 85.406685 7.857055 -64.835060
v 85.500984 5.071815 -69.982964
v 85.661682 -2.709368 -65.279266
v 90.371483 -2.659267 -67.077766
v 84.231087 -2.606078 -63.120453
v 87.636887 -2.695518 -61.227669
v 93.951385 -2.587397 -59.030670
v 90.488586 -2.757107 -67.316566
v 86.708786 5.181945 -64.239159
v 90.303581 5.493765 -64.835060
v 85.500984 5.071815 -62.099556
v 87.969284 5.205925 -60.956367
v 93.531189 5.682245 -58.785767
v 90.179688 5.313145 -63.357262
v 87.582687 1.010943 -65.463768
v 90.332886 1.003155 -67.248764
v 84.166183 0.665187 -70.143463
v 85.585388 0.614614 -61.588463
v 94.013985 1.291774 -59.206566
v 90.390182 1.147864 -41.328224
v 93.736137 -0.651378 -34.937210
v 95.553749 -1.404986 -36.716171
v 100.096710 9.527590 -34.916878
v 95.502121 7.188717 -34.937210
v 95.553749 -1.404986 -36.707596
v 100.074799 -3.403928 -38.441105
v 104.506042 -4.354787 -40.096912
v 108.732185 -1.883208 -40.170612
v 108.920258 7.665024 -38.453510
v 104.537712 10.632045 -41.197670
v 111.540222 3.021412 0.061104

vt 0.116751 0.897289
vt 0.188184 0.663414
vt 0.076877 0.682687
vt 0.154494 0.986846
vt 0.110119 0.925195
vt 0.235258 0.624551
vt 0.050680 0.641505
vt 0.191704 0.788405
vt 0.136000 0.819039
vt 0.047212 0.820490
vt 0.011724 0.787562
vt 0.180567 0.661682
vt 0.529038 0.556741
vt 0.535045 0.098039
vt 0.507766 0.456778
vt 0.542389 0.204835
vt 0.549796 0.315028
vt 0.551082 0.070014
vt 0.607964 0.523902
vt 0.726238 0.865189
vt 0.723029 0.199838
vt 0.752233 0.941107
vt 0.715327 0.897226
vt 0.712468 0.987289
vt 0.661591 0.937949
vt 0.608668 0.556456
vt 0.604338 0.676990
vt 0.679115 0.844737
vt 0.639887 0.905663
vt 0.650726 0.949367
vt 0.682960 0.262410
vt 0.748313 0.136926
vt 0.632196 0.213433
vt 0.675124 0.055775
vt 0.763658 0.088813
vt 0.706049 0.713873
vt 0.753298 0.391889
vt 0.744190 0.627314
vt 0.605464 0.257017
vt 0.826497 0.205530
vt 0.831171 0.695992
vt 0.829079 0.400823
vt 0.827044 0.258470
vt 0.907680 0.251362
vt 0.956774 0.410204
vt 0.961693 0.406252
vt 0.912265 0.586767
vt 0.718874 0.329139
vt 0.745502 0.318087
vt 0.833405 0.304485
vt 0.912438 0.464026
vt 0.734240 0.457422
vt 0.819179 0.455208
vt 0.910566 0.772580
vt 0.764092 0.763280
vt 0.840451 0.293738
vt 0.967517 0.648891
vt 0.737594 0.642819
vt 0.817574 0.458644
vt 0.961168 0.539352
vt 0.861184 0.582232
vt 0.847500 0.583729
vt 0.781024 0.533338
vt 0.788462 0.699937
vt 0.832324 0.389813
vt 0.831193 0.690102
vt 0.914256 0.382701
vt 0.937613 0.332029
vt 0.829498 0.330053
vt 0.934495 0.483101
vt 0.810227 0.501339
vt 0.872755 0.758068
vt 0.840371 0.741561
vt 0.921302 0.635734
vt 0.799928 0.628715
vt 0.858334 0.670697
vt 0.451383 0.677979
vt 0.343576 0.534931
vt 0.324341 0.555152
vt 0.451542 0.774427
vt 0.467314 0.440965
vt 0.459314 0.303532
vt 0.328251 0.326508
vt 0.466161 0.215556
vt 0.464774 0.807873
vt 0.369999 0.234409
vt 0.340816 0.457304
vt 0.316796 0.502606
vt 0.097737 0.387364
vt 0.630195 0.483731
vt 0.614948 0.285961
vt 0.628873 0.212335
vt 0.627832 0.750117
vt 0.618397 0.778500
vt 0.693563 0.168331
vt 0.348239 0.600499
vt 0.336646 0.381761
vt 0.312086 0.837495
vt 0.329045 0.844742
vt 0.227453 0.725823
vt 0.215201 0.720077
vt 0.318177 0.244197
vt 0.297671 0.359039
vt 0.297517 0.369126
vt 0.197102 0.242057
vt 0.193472 0.121979
vt 0.196419 0.122189
vt 0.307302 0.571026
vt 0.302836 0.576703
vt 0.204584 0.020647
vt 0.271649 0.937731
vt 0.290475 0.938896
vt 0.116751 0.897289
vt 0.188184 0.663414
vt 0.076877 0.682687
vt 0.154494 0.986846
vt 0.110119 0.925195
vt 0.235258 0.624551
vt 0.050680 0.641505
vt 0.191704 0.788405
vt 0.136000 0.819039
vt 0.047212 0.820490
vt 0.011724 0.787562
vt 0.180567 0.661682
vt 0.529038 0.556741
vt 0.535045 0.098039
vt 0.507766 0.456778
vt 0.542389 0.204835
vt 0.549796 0.315028
vt 0.551082 0.070014
vt 0.607964 0.523902
vt 0.726238 0.865189
vt 0.723029 0.199838
vt 0.752233 0.941107
vt 0.715327 0.897226
vt 0.712468 0.987289
vt 0.661591 0.937949
vt 0.608668 0.556456
vt 0.604338 0.676990
vt 0.679115 0.844737
vt 0.639887 0.905663
vt 0.650726 0.949367
vt 0.682960 0.262410
vt 0.748313 0.136926
vt 0.632196 0.213433
vt 0.675124 0.055775
vt 0.763658 0.088813
vt 0.706049 0.713873
vt 0.753298 0.391889
vt 0.744190 0.627314
vt 0.605464 0.257017
vt 0.826497 0.205530
vt 0.831171 0.695992
vt 0.829079 0.400823
vt 0.827044 0.258470
vt 0.907680 0.251362
vt 0.956774 0.410204
vt 0.961693 0.406252
vt 0.912265 0.586767
vt 0.718874 0.329139
vt 0.745502 0.318087
vt 0.833405 0.304485
vt 0.912438 0.464026
vt 0.734240 0.457422
vt 0.819179 0.455208
vt 0.910566 0.772580
vt 0.764092 0.763280
vt 0.840451 0.293738
vt 0.967517 0.648891
vt 0.737594 0.642819
vt 0.817574 0.458644
vt 0.961168 0.539352
vt 0.861184 0.582232
vt 0.847500 0.583729
vt 0.781024 0.533338
vt 0.788462 0.699937
vt 0.832324 0.389813
vt 0.831193 0.690102
vt 0.914256 0.382701
vt 0.937613 0.332029
vt 0.829498 0.330053
vt 0.934495 0.483101
vt 0.810227 0.501339
vt 0.872755 0.758068
vt 0.840371 0.741561
vt 0.921302 0.635734
vt 0.799928 0.628715
vt 0.858334 0.670697
vt 0.451383 0.677979
vt 0.343576 0.534931
vt 0.324341 0.555152
vt 0.451542 0.774427
vt 0.467314 0.440965
vt 0.459314 0.303532
vt 0.328251 0.326508
vt 0.466161 0.215556
vt 0.464774 0.807873
vt 0.369999 0.234409
vt 0.340816 0.457304
vt 0.316796 0.502606
vt 0.097737 0.387364
vt 0.630195 0.483731
vt 0.614948 0.285961
vt 0.628873 0.212335
vt 0.627832 0.750117
vt 0.618397 0.778500
vt 0.693563 0.168331
vt 0.348239 0.600499
vt 0.336646 0.381761
vt 0.312086 0.837495
vt 0.329045 0.844742
vt 0.227453 0.725823
vt 0.215201 0.720077
vt 0.318177 0.244197
vt 0.297671 0.359039
vt 0.297517 0.369126
vt 0.197102 0.242057
vt 0.193472 0.121979
vt 0.196419 0.122189
vt 0.307302 0.571026
vt 0.302836 0.576703
vt 0.204584 0.020647
vt 0.271649 0.937731
vt 0.290475 0.770861
vt 0.533514 0.877890
vt 0.562774 0.158763
vt 0.708803 0.031166
vt 0.679529 0.015300
vt 0.748712 0.122781
vt 0.743869 0.086146
vt 0.790238 0.043206
vt 0.794813 0.011158
vt 0.787671 0.838591
vt 0.773670 0.820546
vt 0.847095 0.218277
vt 0.905458 0.218277
vt 0.905458 0.806473
vt 0.909490 0.755079
vt 0.907132 0.683692
vt 0.895822 0.636228
vt 0.880717 0.111346
vt 0.033466 0.188093
vt 0.037374 0.108254
vt 0.091354 0.208709
vt 0.084529 0.015457
vt 0.091512 0.026899
vt 0.022903 0.111346
vt 0.033466 0.188093
vt 0.037374 0.108254
vt 0.091354 0.208709
vt 0.084529 0.015457
vt 0.091512 0.026899
vt 0.022903 0.396562
vt 0.163488 0.377083
vt 0.116649 0.299077
vt 0.171074 0.303386
vt 0.113099 0.211057
vt 0.171892 0.222575
vt 0.103296 0.378498
vt 0.988930 0.326500
vt 0.985833 0.553220
vt 0.905310 0.517567
vt 0.916412 0.396562
vt 0.163488 0.377083
vt 0.116649 0.299077
vt 0.171074 0.303386
vt 0.113099 0.211057
vt 0.171892 0.222575
vt 0.103296 0.396562
vt 0.163488 0.377083
vt 0.116649 0.299077
vt 0.171074 0.303386
vt 0.113099 0.211057
vt 0.171892 0.222575
vt 0.103296 0.111346
vt 0.033466 0.188093
vt 0.037374 0.108254
vt 0.091354 0.208709
vt 0.084529 0.015457
vt 0.091512 0.026899
vt 0.022903 0.105422
vt 0.451477 0.089509
vt 0.352231 0.461556
vt 0.024456 0.408939
vt 0.050165 0.413609
vt 0.152815 0.460818
vt 0.169452 0.505648
vt 0.180632 0.589488
vt 0.154098 0.589487
vt 0.039571 0.502775
vt 0.004315 0.589487
vt 0.100240 0.770861
vt 0.533514 0.877890
vt 0.562774 0.158763
vt 0.708803 0.031166
vt 0.679529 0.015300
vt 0.748712 0.122781
vt 0.743869 0.086146
vt 0.790238 0.043206
vt 0.794813 0.011158
vt 0.787671 0.838591
vt 0.773670 0.820546
vt 0.847095 0.218277
vt 0.905458 0.218277
vt 0.905458 0.806473
vt 0.909490 0.755079
vt 0.907132 0.683692
vt 0.895822 0.636228
vt 0.880717 0.111346
vt 0.033466 0.108254
vt 0.091354 0.188093
vt 0.037374 0.208709
vt 0.084529 0.015457
vt 0.091512 0.026899
vt 0.022903 0.111346
vt 0.033466 0.108254
vt 0.091354 0.188093
vt 0.037374 0.208709
vt 0.084529 0.015457
vt 0.091512 0.026899
vt 0.022903 0.396562
vt 0.163488 0.299077
vt 0.171074 0.377083
vt 0.116649 0.303386
vt 0.113099 0.211057
vt 0.171892 0.222575
vt 0.103296 0.378498
vt 0.988930 0.326500
vt 0.985833 0.553220
vt 0.905310 0.517567
vt 0.916412 0.396562
vt 0.163488 0.299077
vt 0.171074 0.377083
vt 0.116649 0.303386
vt 0.113099 0.211057
vt 0.171892 0.222575
vt 0.103296 0.396562
vt 0.163488 0.299077
vt 0.171074 0.377083
vt 0.116649 0.303386
vt 0.113099 0.211057
vt 0.171892 0.222575
vt 0.103296 0.111346
vt 0.033466 0.108254
vt 0.091354 0.188093
vt 0.037374 0.208709
vt 0.084529 0.015457
vt 0.091512 0.026899
vt 0.022903 0.105422
vt 0.451477 0.089509
vt 0.352231 0.461556
vt 0.024456 0.408939
vt 0.050165 0.413609
vt 0.152815 0.460818
vt 0.169452 0.505648
vt 0.180632 0.589488
vt 0.154098 0.589487
vt 0.039571 0.502775
vt 0.004315 0.589487
vt 0.100240 1.000000

f 4/4 7/7 3/3
f 7/7 4/4 8/8
f 116/116 119/119 120/120
f 119/119 116/116 115/115
f 1/1 5/5 113/113
f 1/1 6/6 9/9
f 2/2 9/9 6/6
