# MOD converted: e_m_metalglove017.mod
# 288 verts, 193 faces

v 91.907394 6.142727 48.282215
v 96.583412 9.200047 44.948357
v 91.848137 -0.583220 51.134308
v 100.806122 6.729910 47.983868
v 96.515015 -4.433726 50.910858
v 101.015625 -1.639520 49.150177
v 88.451233 -5.416104 60.077301
v 92.777512 8.357555 54.452515
v 91.294266 -5.038779 57.939827
v 90.325470 -5.589906 57.969688
v 85.459526 -8.463105 56.155762
v 88.364052 -7.338005 55.357250
v 82.964592 -9.339875 52.189255
v 85.616699 -7.947529 52.175583
v 94.572586 9.318308 52.646553
v 90.488342 1.335216 53.457756
v 88.292870 -3.726655 54.570625
v 86.119064 -4.883230 56.567192
v 84.090057 -7.119267 60.253139
v 93.555817 -5.468807 51.395866
v 92.685852 -6.752770 54.617218
v 93.840172 -4.997123 57.131531
v 84.637520 -10.738980 53.792603
v 88.272697 -9.424589 58.706196
v 90.390228 1.363130 61.088062
v 94.014000 1.486983 50.247482
v 90.759216 7.885398 64.128906
v 90.234634 -5.485984 62.025253
v 87.708565 -5.461074 62.696823
v 87.560905 1.531531 64.803261
v 90.311081 1.524824 67.823639
v 86.402016 -5.344629 65.167030
v 85.152565 -5.340709 66.021988
v 84.934532 1.424297 68.720833
v 86.142654 1.380772 57.749298
v 89.714310 8.339521 60.727310
v 93.951401 -1.851542 64.525185
v 90.368042 -2.302344 68.310646
v 86.241722 -2.670799 60.455975
v 93.531158 5.265543 64.454781
v 90.170807 4.594545 68.226364
v 86.261208 4.117715 58.530251
v 90.488571 -1.997597 62.366348
v 87.633537 -2.333539 65.662003
v 85.006592 -2.581906 58.285450
v 90.179733 4.947881 62.429913
v 87.489113 4.457603 65.547958
v 85.084923 4.084716 66.393013
v 86.566124 7.197795 63.883202
v 85.406708 7.137245 61.097176
v 87.991882 7.780693 63.221214
v 90.052399 7.887748 62.856903
v 87.582680 1.245293 64.963364
v 90.332870 1.238584 66.748367
v 84.166191 0.947723 69.643135
v 85.585442 0.904197 64.778893
v 90.371460 -1.913398 69.482613
v 85.661720 -1.956513 63.738789
v 90.303635 5.103329 66.816154
v 86.708832 4.834970 62.620056
v 87.636932 -1.944592 66.577393
v 84.231056 -1.867617 61.599213
v 87.969276 4.855607 64.334740
v 85.500977 4.740187 42.887009
v 93.088417 5.936479 33.049976
v 97.653015 6.851096 37.294304
v 103.155304 10.688084 46.052486
v 97.900459 9.443806 42.915188
v 93.088760 -0.934670 49.131191
v 102.459045 6.391580 40.675007
v 109.628922 -1.494172 49.013638
v 102.502274 -1.483050 46.134613
v 97.922760 -4.250688 33.151245
v 97.695374 -1.054247 37.275864
v 103.125633 -4.437252 40.846737
v 109.800575 7.289242 57.317326
v 99.538376 0.060029 58.683594
v 98.932274 1.613298 58.429161
v 103.325386 1.634566 56.006180
v 100.096237 1.616394 57.372444
v 99.490166 3.169660 55.359241
v 96.596832 -0.652531 53.417511
v 98.237503 1.651312 55.415176
v 96.571960 3.888530 57.356922
v 94.931274 1.584689 -45.284737
v 91.907394 6.142724 -48.282219
v 96.583405 9.200047 -44.948357
v 91.848137 -0.583224 -51.134312
v 100.806114 6.729912 -47.983864
v 96.515015 -4.433726 -50.910858
v 101.015625 -1.639518 -49.150177
v 88.451233 -5.416105 -60.077301
v 92.777504 8.357555 -54.452515
v 91.294266 -5.038780 -57.939827
v 90.325470 -5.589908 -57.969688
v 85.459526 -8.463105 -56.155762
v 88.364052 -7.338005 -55.357250
v 82.964592 -9.339876 -52.189251
v 85.616699 -7.947530 -52.175591
v 94.572578 9.318307 -52.646553
v 90.488342 1.335213 -53.457756
v 88.292870 -3.726655 -54.570625
v 86.119064 -4.883230 -56.567192
v 84.090057 -7.119268 -60.253136
v 93.555824 -5.468808 -51.395866
v 92.685852 -6.752770 -54.617218
v 93.840172 -4.997123 -57.131531
v 84.637520 -10.738981 -53.792603
v 88.272697 -9.424590 -58.706196
v 90.390228 1.363130 -61.088066
v 94.014000 1.486983 -50.247482
v 90.759209 7.885394 -64.128906
v 90.234634 -5.485985 -62.025253
v 87.708565 -5.461075 -62.696823
v 87.560905 1.531531 -64.803261
v 90.311081 1.524824 -67.823639
v 86.402016 -5.344630 -65.167030
v 85.152565 -5.340709 -66.021988
v 84.934532 1.424297 -68.720833
v 86.142654 1.380769 -57.749298
v 89.714310 8.339520 -60.727310
v 93.951401 -1.851542 -64.525185
v 90.368042 -2.302344 -68.310646
v 86.241722 -2.670799 -60.455975
v 93.531158 5.265544 -64.454781
v 90.170807 4.594545 -68.226364
v 86.261208 4.117714 -58.530251
v 90.488571 -1.997597 -62.366348
v 87.633545 -2.333539 -65.662003
v 85.006592 -2.581906 -58.285450
v 90.179733 4.947880 -62.429913
v 87.489113 4.457604 -65.547958
v 85.084923 4.084716 -66.393013
v 86.566124 7.197796 -63.883205
v 85.406708 7.137244 -61.097176
v 87.991882 7.780694 -63.221214
v 90.052399 7.887748 -62.856903
v 87.582680 1.245293 -64.963364
v 90.332870 1.238584 -66.748367
v 84.166191 0.947723 -69.643135
v 85.585442 0.904198 -64.778893
v 90.371460 -1.913398 -69.482613
v 85.661720 -1.956512 -63.738789
v 90.303635 5.103329 -66.816154
v 86.708832 4.834970 -62.620056
v 87.636932 -1.944593 -66.577393
v 84.231056 -1.867618 -61.599213
v 87.969269 4.855607 -64.334740
v 85.500977 4.740188 -42.887009
v 93.088417 5.936479 -33.049980
v 97.653015 6.851093 -37.294308
v 103.155296 10.688084 -46.052498
v 97.900459 9.443805 -42.915184
v 93.088760 -0.934672 -49.131195
v 102.459045 6.391581 -40.675007
v 109.628922 -1.494170 -49.013634
v 102.502274 -1.483049 -46.134583
v 97.922714 -4.250687 -33.151245
v 97.695374 -1.054251 -37.275860
v 103.125641 -4.437252 -40.846737
v 109.800575 7.289244 -57.317322
v 99.538376 0.060032 -58.683598
v 98.932266 1.613301 -58.429161
v 103.325386 1.634573 -56.006180
v 100.096237 1.616397 -57.372444
v 99.490166 3.169663 -55.359238
v 96.596832 -0.652530 -53.417511
v 98.237503 1.651314 -55.415176
v 96.571960 3.888532 -57.356918
v 94.931274 1.584691 44.948357
v 91.848137 -0.583220 49.150177
v 88.451233 -5.416104 54.452515
v 91.294266 -5.038779 55.357250
v 82.964592 -9.339875 52.189255
v 85.616699 -7.947529 56.155762
v 88.364052 -7.338005 57.969688
v 85.459526 -8.463105 57.969688
v 85.459526 -8.463105 56.567192
v 84.090057 -7.119267 50.247482
v 90.759216 7.885398 57.749298
v 89.714310 8.339521 57.939827
v 90.325470 -5.589906 62.025253
v 87.708565 -5.461074 65.167030
v 85.152565 -5.340709 65.167030
v 85.152565 -5.340709 65.662003
v 85.006592 -2.581906 65.547958
v 85.084923 4.084716 66.021988
v 84.934532 1.424297 45.284737
v 91.907394 6.142727 65.662003
v 85.006592 -2.581906 64.525185
v 90.368042 -2.302344 62.366348
v 87.633537 -2.333539 68.310646
v 86.241722 -2.670799 58.530251
v 90.488571 -1.997597 60.727310
v 93.951401 -1.851542 65.547958
v 85.084923 4.084716 64.454781
v 90.170807 4.594545 62.429913
v 87.489113 4.457603 68.226364
v 86.261208 4.117715 58.285450
v 90.179733 4.947881 60.455975
v 93.531158 5.265543 66.021988
v 84.934532 1.424297 64.803261
v 90.311081 1.524824 68.720833
v 86.142654 1.380772 62.696823
v 87.560905 1.531531 58.706196
v 90.390228 1.363130 61.088062
v 94.014000 1.486983 66.748367
v 84.166191 0.947723 66.577393
v 84.231056 -1.867617 61.097176
v 87.991882 7.780693 63.883202
v 85.406708 7.137245 64.334740
v 85.500977 4.740187 63.883202
v 85.406708 7.137245 66.577393
v 84.231056 -1.867617 64.778893
v 90.371460 -1.913398 69.482613
v 85.661720 -1.956513 62.620056
v 87.636932 -1.944592 64.334740
v 85.500977 4.740187 63.738789
v 90.303635 5.103329 66.816154
v 86.708832 4.834970 61.599213
v 87.969276 4.855607 66.748367
v 84.166191 0.947723 64.963364
v 90.332870 1.238584 62.856903
v 87.582680 1.245293 69.643135
v 85.585442 0.904197 45.284737
v 91.907394 6.142727 42.887009
v 93.088417 5.936479 46.134613
v 97.922760 -4.250688 33.049976
v 97.653015 6.851096 -44.948357
v 91.848137 -0.583224 -49.150177
v 88.451233 -5.416105 -54.452515
v 91.294266 -5.038780 -52.189251
v 85.616699 -7.947530 -55.357250
v 82.964592 -9.339876 -56.155762
v 88.364052 -7.338005 -57.969688
v 85.459526 -8.463105 -57.969688
v 85.459526 -8.463105 -56.567192
v 84.090057 -7.119268 -50.247482
v 90.759209 7.885394 -57.749298
v 89.714310 8.339520 -57.939827
v 90.325470 -5.589908 -62.025253
v 87.708565 -5.461075 -65.167030
v 85.152565 -5.340709 -65.167030
v 85.152565 -5.340709 -65.662003
v 85.006592 -2.581906 -65.547958
v 85.084923 4.084716 -66.021988
v 84.934532 1.424297 -45.284737
v 91.907394 6.142724 -65.662003
v 85.006592 -2.581906 -62.366348
v 87.633545 -2.333539 -64.525185
v 90.368042 -2.302344 -68.310646
v 86.241722 -2.670799 -58.530251
v 90.488571 -1.997597 -60.727310
v 93.951401 -1.851542 -65.547958
v 85.084923 4.084716 -62.429913
v 87.489113 4.457604 -64.454781
v 90.170807 4.594545 -68.226364
v 86.261208 4.117714 -58.285450
v 90.179733 4.947880 -60.455975
v 93.531158 5.265544 -66.021988
v 84.934532 1.424297 -68.720833
v 86.142654 1.380769 -64.803261
v 90.311081 1.524824 -62.696823
v 87.560905 1.531531 -61.088066
v 94.014000 1.486983 -58.706196
v 90.390228 1.363130 -66.748367
v 84.166191 0.947723 -66.577393
v 84.231056 -1.867618 -61.097176
v 87.991882 7.780694 -63.883205
v 85.406708 7.137244 -64.334740
v 85.500977 4.740188 -63.883205
v 85.406708 7.137244 -66.577393
v 84.231056 -1.867618 -69.482613
v 85.661720 -1.956512 -64.778893
v 90.371460 -1.913398 -62.620056
v 87.636932 -1.944593 -64.334740
v 85.500977 4.740188 -66.816154
v 86.708832 4.834970 -63.738789
v 90.303635 5.103329 -61.599213
v 87.969269 4.855607 -66.748367
v 84.166191 0.947723 -62.856903
v 87.582680 1.245293 -64.963364
v 90.332870 1.238584 -69.643135
v 85.585442 0.904198 -45.284737
v 91.907394 6.142724 -42.887009
v 93.088417 5.936479 -46.134583
v 97.922714 -4.250687 -33.049980
v 97.653015 6.851093 0.052477

vt 0.036343 0.135537
vt 0.651189 0.640876
vt 0.651189 0.247584
vt 0.651189 0.520656
vt 0.651189 0.388782
vt 0.651189 0.673432
vt 0.553519 0.178978
vt 0.433262 0.786304
vt 0.320715 0.508820
vt 0.407519 0.825784
vt 0.407818 0.811896
vt 0.357477 0.903038
vt 0.440839 0.946914
vt 0.368916 0.143305
vt 0.570720 0.845099
vt 0.154786 0.879089
vt 0.272415 0.886216
vt 0.345378 0.866837
vt 0.407147 0.449001
vt 0.408068 0.580361
vt 0.525845 0.502423
vt 0.486689 0.655037
vt 0.389175 0.632884
vt 0.462919 0.708307
vt 0.158509 0.317407
vt 0.414394 0.060088
vt 0.563381 0.446636
vt 0.324313 0.501667
vt 0.320078 0.618907
vt 0.153681 0.304712
vt 0.320487 0.446848
vt 0.234439 0.457114
vt 0.186570 0.272947
vt 0.168824 0.293473
vt 0.217612 0.112218
vt 0.437336 0.385939
vt 0.411241 0.391111
vt 0.320980 0.395651
vt 0.225421 0.240465
vt 0.426183 0.243071
vt 0.330954 0.240038
vt 0.232375 0.711312
vt 0.227590 0.623481
vt 0.235413 0.408578
vt 0.177305 0.712696
vt 0.084595 0.622390
vt 0.096370 0.220360
vt 0.183537 0.159660
vt 0.281948 0.116990
vt 0.302692 0.121997
vt 0.370175 0.172540
vt 0.363326 0.616574
vt 0.164752 0.313812
vt 0.314330 0.521669
vt 0.165554 0.305492
vt 0.193477 0.376740
vt 0.310504 0.365050
vt 0.190452 0.224497
vt 0.345934 0.204524
vt 0.265090 0.620071
vt 0.224686 0.524435
vt 0.223428 0.640084
vt 0.082703 0.572815
vt 0.086184 0.016365
vt 0.729827 0.016365
vt 0.906554 0.135537
vt 0.906554 0.135537
vt 0.729827 0.640876
vt 0.729828 0.247584
vt 0.729827 0.388782
vt 0.906555 0.388782
vt 0.729827 0.520656
vt 0.729828 0.640876
vt 0.906555 0.520656
vt 0.906555 0.247584
vt 0.906554 0.898725
vt 0.645528 0.947363
vt 0.627913 0.935446
vt 0.833667 0.833033
vt 0.677320 0.898725
vt 0.645528 0.807055
vt 0.508852 0.722859
vt 0.577494 0.807055
vt 0.508852 0.885227
vt 0.440524 0.947523
vt 0.036343 0.135537
vt 0.651189 0.640876
vt 0.651189 0.247584
vt 0.651189 0.520656
vt 0.651189 0.388782
vt 0.651189 0.673432
vt 0.553519 0.178978
vt 0.433262 0.786304
vt 0.320715 0.508820
vt 0.407519 0.825784
vt 0.407818 0.811896
vt 0.357477 0.903038
vt 0.440839 0.946914
vt 0.368916 0.143305
vt 0.570720 0.845099
vt 0.154786 0.879089
vt 0.272415 0.886216
vt 0.345378 0.866837
vt 0.407147 0.449001
vt 0.408068 0.580361
vt 0.525845 0.502423
vt 0.486689 0.655037
vt 0.389175 0.632884
vt 0.462919 0.708307
vt 0.158509 0.317407
vt 0.414394 0.060088
vt 0.563381 0.446636
vt 0.324313 0.501667
vt 0.320078 0.618907
vt 0.153681 0.304712
vt 0.320487 0.446848
vt 0.234439 0.457114
vt 0.186570 0.272947
vt 0.168824 0.293473
vt 0.217612 0.112218
vt 0.437336 0.385939
vt 0.411241 0.391111
vt 0.320980 0.395651
vt 0.225421 0.240465
vt 0.426183 0.243071
vt 0.330954 0.240038
vt 0.232375 0.711312
vt 0.227590 0.623481
vt 0.235413 0.408578
vt 0.177305 0.712696
vt 0.084595 0.622390
vt 0.096370 0.220360
vt 0.183537 0.159660
vt 0.281948 0.116990
vt 0.302692 0.121997
vt 0.370175 0.172540
vt 0.363326 0.616574
vt 0.164752 0.313812
vt 0.314330 0.521669
vt 0.165554 0.305492
vt 0.193477 0.376740
vt 0.310504 0.365050
vt 0.190452 0.224497
vt 0.345934 0.204524
vt 0.265090 0.620071
vt 0.224686 0.524435
vt 0.223428 0.640084
vt 0.082703 0.572815
vt 0.086184 0.016365
vt 0.729827 0.016365
vt 0.906554 0.135537
vt 0.906554 0.135537
vt 0.729827 0.640876
vt 0.729828 0.247584
vt 0.729827 0.388782
vt 0.906555 0.388782
vt 0.729827 0.520656
vt 0.729828 0.640876
vt 0.906555 0.520656
vt 0.906555 0.247584
vt 0.906554 0.898725
vt 0.645528 0.947363
vt 0.627913 0.935446
vt 0.833667 0.833033
vt 0.677320 0.898725
vt 0.645528 0.807055
vt 0.508852 0.722859
vt 0.577494 0.807055
vt 0.508852 0.885227
vt 0.440524 0.976071
vt 0.145256 0.981273
vt 0.282072 0.559712
vt 0.469745 0.699595
vt 0.403365 0.691889
vt 0.479899 0.590434
vt 0.434936 0.613579
vt 0.386854 0.668392
vt 0.349797 0.706796
vt 0.358792 0.855055
vt 0.020129 0.717215
vt 0.014149 0.718320
vt 0.302148 0.629278
vt 0.298989 0.501527
vt 0.250790 0.554860
vt 0.296615 0.546055
vt 0.239649 0.550341
vt 0.101572 0.541407
vt 0.155233 0.016365
vt 0.651189 0.281340
vt 0.018625 0.380869
vt 0.096102 0.381868
vt 0.023103 0.252220
vt 0.075465 0.480023
vt 0.019387 0.486012
vt 0.108409 0.281340
vt 0.018625 0.380869
vt 0.096102 0.381868
vt 0.023103 0.252220
vt 0.075465 0.480023
vt 0.019387 0.486012
vt 0.108409 0.281340
vt 0.018625 0.380869
vt 0.096102 0.252220
vt 0.075465 0.381868
vt 0.023103 0.480023
vt 0.019387 0.486012
vt 0.108409 0.302056
vt 0.136578 0.362194
vt 0.133307 0.648665
vt 0.025603 0.578960
vt 0.036809 0.181695
vt 0.222519 0.137038
vt 0.239665 0.281340
vt 0.018625 0.380869
vt 0.096102 0.252220
vt 0.075465 0.381868
vt 0.023103 0.281340
vt 0.018625 0.380869
vt 0.096102 0.252220
vt 0.075465 0.381868
vt 0.023103 0.281340
vt 0.018625 0.380869
vt 0.096102 0.381868
vt 0.023103 0.252220
vt 0.075465 0.758190
vt 0.651189 0.758189
vt 0.729828 0.520656
vt 0.729828 0.758189
vt 0.906556 0.976071
vt 0.145256 0.981273
vt 0.282072 0.559712
vt 0.469745 0.691889
vt 0.479899 0.699595
vt 0.403365 0.590434
vt 0.434936 0.613579
vt 0.386854 0.668392
vt 0.349797 0.706796
vt 0.358792 0.855055
vt 0.020129 0.717215
vt 0.014149 0.718320
vt 0.302148 0.629278
vt 0.298989 0.501527
vt 0.250790 0.554860
vt 0.296615 0.546055
vt 0.239649 0.550341
vt 0.101572 0.541407
vt 0.155233 0.016365
vt 0.651189 0.281340
vt 0.018625 0.381868
vt 0.023103 0.380869
vt 0.096102 0.252220
vt 0.075465 0.480023
vt 0.019387 0.486012
vt 0.108409 0.281340
vt 0.018625 0.381868
vt 0.023103 0.380869
vt 0.096102 0.252220
vt 0.075465 0.480023
vt 0.019387 0.486012
vt 0.108409 0.281340
vt 0.018625 0.252220
vt 0.075465 0.380869
vt 0.096102 0.381868
vt 0.023103 0.486012
vt 0.108409 0.480023
vt 0.019387 0.302056
vt 0.136578 0.362194
vt 0.133307 0.648665
vt 0.025603 0.578960
vt 0.036809 0.181695
vt 0.222519 0.137038
vt 0.239665 0.281340
vt 0.018625 0.252220
vt 0.075465 0.380869
vt 0.096102 0.381868
vt 0.023103 0.281340
vt 0.018625 0.252220
vt 0.075465 0.380869
vt 0.096102 0.381868
vt 0.023103 0.281340
vt 0.018625 0.381868
vt 0.023103 0.380869
vt 0.096102 0.252220
vt 0.075465 0.758190
vt 0.651189 0.758189
vt 0.729828 0.520656
vt 0.729828 0.758189
vt 0.906556 1.000000

f 77/77 79/79 78/78
f 79/79 77/77 80/80
f 79/79 80/80 81/81
f 78/78 79/79 81/81
f 77/77 85/85 82/82
f 85/85 77/77 78/78
f 77/77 83/83 80/80
f 83/83 77/77 82/82
f 81/81 83/83 84/84
f 83/83 81/81 80/80
f 81/81 85/85 78/78
f 85/85 81/81 84/84
f 162/162 163/163 164/164
f 164/164 165/165 162/162
f 164/164 166/166 165/165
f 163/163 166/166 164/164
f 162/162 170/170 163/163
f 170/170 162/162 167/167
f 162/162 168/168 167/167
f 168/168 162/162 165/165
f 166/166 168/168 165/165
f 168/168 166/166 169/169
f 166/166 170/170 169/169
f 170/170 166/166 163/163
f 36/36 8/8 15/15
f 8/8 4/4 7/7
f 3/3 5/5 36/36
f 15/15 27/27 171/171
f 17/17 16/16 11/11
f 19/19 11/11 12/12
f 9/9 18/18 17/17
f 18/18 9/9 16/16
f 17/17 9/9 19/19
f 13/13 19/19 14/14
f 17/17 172/172 171/171
f 172/172 17/17 16/16
f 43/43 25/25 26/26
f 4/4 40/40 173/173
f 21/21 22/22 6/6
f 10/10 22/22 23/23
f 21/21 24/24 5/5
f 22/22 21/21 173/173
f 21/21 173/173 176/176
f 24/24 176/176 7/7
f 5/5 21/21 40/40
f 4/4 8/8 174/174
f 23/23 178/178 173/173
f 22/22 10/10 178/178
f 179/179 174/174 14/14
f 18/18 17/17 32/32
f 32/32 39/39 6/6
f 37/37 20/20 6/6
f 4/4 26/26 16/16
f 1/1 171/171 16/16
f 180/180 1/1 16/16
f 16/16 25/25 9/9
f 9/9 182/182 10/10
f 29/29 10/10 183/183
f 183/183 44/44 184/184
f 184/184 29/29 185/185
f 185/185 186/186 34/34
f 34/34 35/35 47/47
f 47/47 46/46 187/187
f 187/187 47/47 15/15
f 2/2 27/27 189/189
f 27/27 2/2 16/16
f 181/181 180/180 37/37
f 38/38 39/39 26/26
f 26/26 40/40 31/31
f 31/31 41/41 190/190
f 190/190 193/193 194/194
f 194/194 192/192 196/196
f 196/196 199/199 200/200
f 200/200 198/198 202/202
f 202/202 205/205 203/203
f 203/203 205/205 57/57
f 57/57 37/37 58/58
f 58/58 57/57 52/52
f 52/52 59/59 49/49
f 49/49 60/60 25/25
f 25/25 43/43 53/53
f 53/53 61/61 208/208
f 208/208 209/209 46/46
f 63/63 64/64 212/212
f 212/212 60/60 214/214
f 214/214 217/217 215/215
f 215/215 217/217 218/218
f 218/218 221/221 219/219
f 219/219 221/221 222/222
f 222/222 225/225 206/206
f 206/206 224/224 37/37
f 6/6 26/26 65/65
f 189/189 2/2 68/68
f 67/67 66/66 226/226
f 227/227 69/69 73/73
f 73/73 72/72 4/4
f 68/68 70/70 72/72
f 6/6 5/5 4/4
f 6/6 72/72 74/74
f 74/74 75/75 69/69
f 69/69 73/73 72/72
f 75/75 71/71 72/72
f 73/73 75/75 228/228
f 69/69 75/75 4/4
f 72/72 70/70 68/68
f 68/68 65/65 227/227
f 229/229 74/74 66/66
f 65/65 68/68 71/71
f 71/71 76/76 87/87
f 93/93 121/121 100/100
f 89/89 93/93 92/92
f 90/90 88/88 121/121
f 112/112 100/100 230/230
f 101/101 102/102 96/96
f 96/96 104/104 97/97
f 103/103 94/94 102/102
f 94/94 103/103 101/101
f 94/94 102/102 104/104
f 104/104 98/98 99/99
f 231/231 102/102 230/230
f 102/102 231/231 101/101
f 110/110 128/128 111/111
f 125/125 89/89 232/232
f 107/107 106/106 91/91
f 107/107 95/95 108/108
f 109/109 106/106 90/90
f 106/106 107/107 232/232
f 232/232 106/106 235/235
f 235/235 109/109 92/92
f 106/106 90/90 125/125
f 93/93 89/89 234/234
f 237/237 108/108 232/232
f 95/95 107/107 237/237
f 234/234 238/238 99/99
f 102/102 103/103 117/117
f 124/124 117/117 91/91
f 105/105 122/122 91/91
f 111/111 89/89 101/101
f 230/230 86/86 101/101
f 86/86 239/239 101/101
f 110/110 101/101 94/94
f 241/241 94/94 95/95
f 95/95 114/114 242/242
f 129/129 242/242 243/243
f 114/114 243/243 244/244
f 245/245 244/244 119/119
f 120/120 119/119 132/132
f 131/131 132/132 246/246
f 132/132 246/246 100/100
f 112/112 87/87 248/248
f 87/87 112/112 101/101
f 239/239 240/240 122/122
f 124/124 123/123 111/111
f 125/125 111/111 116/116
f 126/126 116/116 249/249
f 252/252 249/249 253/253
f 250/250 253/253 255/255
f 258/258 255/255 259/259
f 256/256 259/259 261/261
f 264/264 261/261 263/263
f 264/264 263/263 142/142
f 122/122 142/142 143/143
f 142/142 143/143 137/137
f 144/144 137/137 134/134
f 145/145 134/134 110/110
f 128/128 110/110 138/138
f 146/146 138/138 267/267
f 268/268 267/267 131/131
f 149/149 148/148 271/271
f 145/145 271/271 273/273
f 276/276 273/273 275/275
f 276/276 275/275 277/277
f 280/280 277/277 279/279
f 280/280 279/279 281/281
f 284/284 281/281 266/266
f 282/282 266/266 122/122
f 111/111 91/91 150/150
f 87/87 248/248 153/153
f 151/151 152/152 285/285
f 154/154 286/286 158/158
f 157/157 158/158 89/89
f 153/153 152/152 157/157
f 90/90 91/91 89/89
f 157/157 91/91 159/159
f 160/160 159/159 154/154
f 158/158 154/154 157/157
f 160/160 158/158 157/157
f 156/156 160/160 154/154
f 287/287 160/160 89/89
f 155/155 157/157 153/153
f 150/150 153/153 286/286
f 159/159 288/288 151/151
f 153/153 150/150 156/156
