# MOD converted: e_m_clothrobe017.mod
# 693 verts, 62 faces

v 84.308868 19.149002 -0.000001
v 90.479607 12.386958 9.584708
v 90.543175 11.106163 13.499014
v 84.356628 16.516356 13.838308
v 90.562012 5.770970 21.567402
v 82.720642 -2.270913 20.712076
v 83.534264 9.623470 14.722305
v 90.427574 -1.887735 12.335740
v 90.031326 -8.064793 6.371781
v 89.494911 -11.654887 17.604452
v 80.566078 -12.784232 9.552787
v 79.988770 -16.045794 -0.000001
v 82.247177 21.439758 0.000000
v 89.421265 -12.272968 10.779964
v 115.867081 12.321971 9.709565
v 107.086121 11.099856 -0.000001
v 107.321342 12.335108 13.269078
v 120.755333 9.602924 7.359226
v 122.574745 10.241043 13.026315
v 122.341454 4.799921 18.071798
v 114.266983 9.939445 15.642731
v 110.450562 7.392409 13.091554
v 115.151268 11.233747 13.338787
v 108.732002 7.787879 12.968101
v 109.421715 -0.048139 14.426600
v 110.796806 0.059449 8.922366
v 100.755539 9.346513 -0.000001
v 100.926544 10.634074 12.403700
v 115.310120 -3.413830 11.722349
v 107.482391 -7.717324 17.456699
v 121.243820 4.474317 16.915600
v 120.205643 0.021412 12.827744
v 119.925407 -1.340250 16.971924
v 120.347794 8.789313 15.331701
v 115.227654 -2.551226 7.008683
v 115.295464 -8.345896 11.810690
v 100.640533 5.104825 6.544322
v 119.880638 -6.261467 7.270753
v 107.358322 -11.267429 -0.000000
v 115.241608 -9.984076 0.000000
v 107.253082 -12.391805 10.414763
v 100.152534 -7.792720 0.000001
v 116.508240 12.661695 -0.000000
v 122.391808 11.264634 18.004602
v 114.409546 -2.297754 21.422405
v 118.679268 0.614258 21.556005
v 118.720047 7.311182 -0.000000
v 119.539627 -7.131206 9.792455
v 121.989349 -1.383738 20.847593
v 107.011940 7.013024 20.903696
v 107.147034 0.097576 23.544384
v 111.311882 9.743559 23.831295
v 111.615402 -2.810694 6.767214
v 123.299202 -3.271575 -0.000000
v 122.246674 -6.194016 8.223123
v 125.219124 5.535553 10.194089
v 123.687233 5.231900 0.000001
v 125.348572 9.971876 26.166800
v 115.726974 0.264267 26.184195
v 115.867607 7.206803 0.000000
v 99.896530 -11.700097 8.003335
v 95.559784 9.950864 12.857114
v 94.678940 -1.607664 10.804047
v 94.109123 -7.470702 6.595410
v 93.990799 -10.436917 0.000000
v 95.511513 11.430445 6.795284
v 100.046539 -10.500530 -0.000000
v 93.893547 -11.441923 12.122543
v 100.084534 -1.758431 12.546792
v 94.916229 5.028888 6.815475
v 126.149017 -3.943212 0.000000
v 124.814690 -7.038239 8.471113
v 127.386620 5.591653 -0.000001
v 127.797272 10.471382 6.288693
v 127.854622 -3.072024 0.000001
v 127.253098 -5.656642 7.313694
v 129.121185 5.134073 -0.000001
v 129.710236 9.289064 -0.000000
v 123.544228 1.336698 28.039499
v 103.616920 6.144767 28.232897
v 103.764008 0.468900 33.137093
v 111.676949 6.044732 30.670498
v 107.721054 -1.842296 32.970791
v 111.517021 0.175555 29.872000
v 108.091934 8.632072 30.468088
v 102.176987 5.725012 35.256184
v 110.275978 6.032042 33.851299
v 105.700989 8.413520 31.771603
v 106.961990 8.656681 35.132004
v 110.077995 0.107732 32.968903
v 106.255005 -1.954429 30.569302
v 102.282997 0.415956 35.612404
v 98.507599 -0.413649 38.209126
v 102.814018 -3.251251 40.890598
v 106.899002 -0.882908 40.991188
v 106.862000 6.128676 38.138828
v 102.794907 8.740552 35.588295
v 98.507301 5.739231 45.882812
v 92.817688 5.221764 48.243690
v 96.572594 7.533293 45.628487
v 92.772888 -0.168936 50.570671
v 100.195770 5.665713 48.018120
v 96.520889 -3.080159 50.401733
v 100.354172 -0.967567 41.660854
v 95.151077 5.433985 43.992817
v 99.190201 8.041156 43.956173
v 99.126678 -3.151003 41.614632
v 95.071022 -0.267005 46.292313
v 103.173004 5.872480 46.296013
v 103.179413 -0.931021 14.108426
v 77.879997 -15.957911 19.320381
v 81.631294 14.972340 9.446770
v 81.969383 20.506786 24.053791
v 81.339493 4.961740 21.544071
v 79.870338 -7.575775 0.000000
v 80.664787 -16.424952 7.654190
v 84.173340 -14.225439 4.150167
v 83.941422 -14.962042 -0.000000
v 122.202003 -2.804041 5.519421
v 123.339737 -0.289594 5.644170
v 125.979866 5.141561 -0.000001
v 126.774002 8.181262 5.446900
v 132.238007 4.085741 4.901291
v 130.072998 -1.004878 -0.000001
v 133.220993 6.875771 0.000001
v 128.725998 -3.807340 11.558403
v 83.379547 12.689575 8.365108
v 90.368790 8.984325 12.759720
v 89.971779 -0.937539 8.438418
v 89.407951 -8.606078 11.025702
v 89.433174 -5.414691 -0.000000
v 90.553085 10.409829 14.415046
v 83.033852 -8.174619 8.787189
v 54.719521 21.733074 0.000000
v 60.675770 20.558422 0.000001
v 83.566864 15.344198 17.093206
v 83.260139 -1.309048 24.552763
v 64.253410 -0.725546 4.563767
v 83.241974 15.175129 8.664312
v 82.615135 -12.261246 -0.000001
v 72.421509 17.769958 20.982246
v 62.165588 -9.746113 15.839812
v 61.861179 18.040640 17.444086
v 73.675980 -9.094086 21.104156
v 74.700813 -1.129266 13.474392
v 73.666954 15.481824 5.228052
v 72.703629 18.127663 9.349504
v 50.589180 21.806229 27.364281
v 53.214973 -0.577899 22.624172
v 51.841591 -9.968713 18.110176
v 51.261875 19.342022 11.743970
v 72.607887 -13.345867 13.329240
v 60.143856 -14.584340 14.608192
v 49.643360 -15.104587 11.938363
v 90.172508 5.061314 16.656126
v 83.864555 6.602070 20.261703
v 74.660522 8.749336 23.057108
v 64.280701 9.805869 25.331041
v 53.113293 10.937195 5.598550
v 89.285126 -10.245590 5.294811
v 58.780006 21.348427 0.000001
v 81.785408 -13.714321 -0.000000
v 72.586739 -14.943217 0.000000
v 89.285126 -11.123111 6.503452
v 72.586739 -14.556615 6.372142
v 81.885696 -13.123537 6.713848
v 65.367165 -14.521558 10.227250
v 68.312630 -13.918045 -0.000004
v 62.223789 -15.515105 0.000000
v 95.118126 9.338303 8.464445
v 95.117889 8.235364 10.568287
v 95.117134 4.600162 11.009418
v 95.117355 -1.256075 8.945299
v 95.116608 -6.897012 5.196882
v 95.116447 -9.163687 -0.000000
v 95.116447 -10.195324 8.790820
v 89.198708 9.069543 13.073019
v 88.801689 -0.937547 8.438419
v 88.237869 -8.606078 11.025702
v 88.263092 -5.883193 -0.000000
v 89.382996 11.047409 12.251661
v 89.002419 5.061317 0.000000
v 88.115021 -11.591612 -0.000000
v 73.629692 0.686657 -0.000001
v 75.121002 7.044057 0.000000
v 74.371994 -8.022909 -0.000001
v 80.989380 -10.888690 0.000000
v 81.839882 12.603008 1.047151
v 73.476097 0.744486 10.625179
v 77.528809 10.600486 9.407535
v 81.988594 11.890345 1.782534
v 76.738586 11.587488 12.916500
v 82.345100 -6.073659 15.583804
v 81.921936 0.001086 13.345001
v 79.907600 -6.079220 18.128773
v 65.843277 2.946153 15.908170
v 65.954086 -6.129109 9.690037
v 65.818169 -10.205170 8.044940
v 77.879013 -8.886041 7.529510
v 81.113602 -8.696180 2.867006
v 73.568909 9.521698 4.994177
v 65.593292 10.416394 15.031187
v 82.164452 6.848669 15.723175
v 80.092163 6.307200 2.041721
v 65.235847 1.587730 2.128388
v 74.462715 -7.484020 3.604656
v 65.492096 -6.562878 12.700317
v 65.843781 10.269821 9.778970
v 22.092699 -2.668409 9.783160
v 22.091898 10.548100 20.712202
v 22.094404 4.781158 7.254410
v 22.091606 3.989356 19.161703
v 22.093704 -2.289711 17.201200
v 22.093603 10.735500 5.415751
v 53.059231 -6.433584 3.865711
v 49.100163 2.387696 6.484380
v 50.110985 10.389113 14.034102
v 50.408207 10.199436 16.252243
v 54.044983 -5.926666 18.694696
v 50.449276 3.059632 11.471103
v 50.019890 -8.621666 5.812798
v 49.555092 -6.155575 16.491650
v 50.763641 -5.694614 11.888680
v 46.322613 -7.350116 16.767471
v 47.710804 -4.949067 6.677634
v 46.866970 -5.735415 20.578289
v 39.102695 4.499717 15.680258
v 39.413872 11.631267 7.776839
v 39.067764 11.900379 4.460336
v 37.540169 3.702273 10.965665
v 54.078354 -9.254991 18.477961
v 52.711529 3.001323 13.647581
v 52.687050 10.156766 6.232512
v 52.244946 10.323322 3.552805
v 51.610912 2.370376 14.499200
v 22.093201 -4.422550 14.099398
v 21.064180 2.723825 4.773105
v 79.905258 21.746990 15.215188
v 78.616310 17.693209 24.262335
v 78.600594 -1.387632 23.262440
v 80.310059 10.665338 -0.000000
v 82.699425 17.689974 19.336536
v 75.934456 -11.151434 9.788280
v 75.128754 -15.373123 13.378512
v 79.357048 -12.196162 18.098789
v 80.834251 -6.280581 19.602058
v 82.074997 3.214043 16.666151
v 82.532784 11.102720 8.993915
v 82.917603 15.759735 19.748781
v 77.982620 14.634559 23.159090
v 77.382881 3.724728 -0.000000
v 78.516411 21.822510 22.671505
v 76.662849 -5.715034 14.079586
v 75.079330 -13.231047 9.679910
v 78.078125 19.120268 15.281140
v 80.271690 -8.722644 18.474354
v 80.280701 -1.303699 18.552263
v 80.915161 7.736961 12.301676
v 79.727905 13.768985 4.746552
v 80.350990 16.908306 -4.522224
v 84.308868 19.149000 -9.584707
v 90.543182 11.106163 -13.499014
v 84.356628 16.516356 -13.838306
v 90.562012 5.770970 -21.567402
v 82.720642 -2.270915 -20.712074
v 83.534264 9.623471 -14.722304
v 90.427574 -1.887738 -12.335737
v 90.031326 -8.064795 -6.371781
v 89.494911 -11.654887 -17.604450
v 80.566078 -12.784233 -9.552786
v 79.988770 -16.045794 -10.779962
v 115.856606 12.320110 -9.709562
v 107.086121 11.099855 -13.269077
v 120.744911 9.608380 -7.359224
v 122.566177 10.245651 -13.026313
v 122.338501 4.807640 -18.071796
v 114.258804 9.937576 -15.642731
v 110.447060 7.387939 -13.091553
v 115.141998 11.231691 -13.338784
v 108.732002 7.787879 -12.968099
v 109.424004 -0.053821 -14.426600
v 110.799004 0.055026 -8.922365
v 100.755539 9.346513 -12.403700
v 115.316002 -3.415551 -11.722347
v 107.482391 -7.717328 -17.456699
v 121.241997 4.480010 -16.915600
v 120.209000 0.025822 -12.827744
v 119.931999 -1.336157 -16.971922
v 120.340942 8.793892 -15.331700
v 115.234001 -2.552719 -7.008678
v 115.295471 -8.345900 -11.810690
v 100.640533 5.104825 -6.544322
v 119.891335 -6.260046 -7.270753
v 107.358322 -11.267429 -10.414763
v 100.152534 -7.792721 -18.004601
v 114.415588 -2.299477 -21.422403
v 118.680138 0.615524 -21.556004
v 118.718361 7.312473 -9.792452
v 121.990997 -1.382211 -20.847599
v 107.011971 7.013057 -20.903698
v 107.147018 0.097609 -23.544394
v 111.303940 9.739809 -23.831295
v 111.622040 -2.814029 -6.767211
v 123.301605 -3.269821 -8.223120
v 125.218109 5.538142 -10.194092
v 123.686302 5.234090 -26.166798
v 115.727989 0.264845 -26.184195
v 115.865959 7.207435 -8.003336
v 95.559784 9.950865 -12.857115
v 94.678940 -1.607666 -10.804049
v 94.109123 -7.470702 -6.595406
v 93.990799 -10.436920 -6.795285
v 100.046539 -10.500530 -12.122543
v 100.084534 -1.758432 -12.546793
v 94.916229 5.028889 -6.815474
v 126.151665 -3.940403 -8.471112
v 127.385582 5.595062 -6.288690
v 127.856949 -3.068629 -7.313694
v 129.120331 5.138024 -28.039499
v 103.616943 6.144789 -28.232895
v 103.763992 0.468923 -33.137093
v 111.676987 6.044703 -30.670492
v 107.721016 -1.842297 -32.970791
v 111.517014 0.175529 -29.871996
v 108.091972 8.632069 -30.468094
v 102.177002 5.725013 -35.256191
v 110.275978 6.032037 -33.851299
v 105.700981 8.413520 -31.771603
v 106.961990 8.656681 -35.132004
v 110.077995 0.107729 -32.968903
v 106.254990 -1.954429 -30.569302
v 102.282982 0.415958 -35.612404
v 98.507599 -0.413649 -38.209114
v 102.814003 -3.251250 -40.890594
v 106.899002 -0.882906 -40.991192
v 106.862000 6.128677 -38.138851
v 102.794945 8.740550 -35.588295
v 98.507301 5.739230 -45.882812
v 92.817688 5.221759 -48.243698
v 96.572586 7.533291 -45.628483
v 92.772888 -0.168942 -50.570675
v 100.195770 5.665715 -48.018120
v 96.520905 -3.080159 -50.401733
v 100.354172 -0.967563 -41.660862
v 95.151077 5.433982 -43.992836
v 99.190201 8.041156 -43.956215
v 99.126747 -3.151004 -41.614632
v 95.071022 -0.267007 -46.292313
v 103.173004 5.872483 -46.296013
v 103.179413 -0.931018 -14.108424
v 77.880005 -15.957914 -19.320379
v 81.631302 14.972342 -9.446774
v 81.969383 20.506790 -24.053791
v 81.339493 4.961740 -21.544069
v 79.870361 -7.575781 -7.654192
v 84.173340 -14.225444 -4.150166
v 83.941422 -14.962043 -5.519419
v 123.340996 -0.287933 -5.644169
v 125.978989 5.144210 -5.446900
v 132.237976 4.085744 -4.901290
v 130.072998 -1.004879 -11.558404
v 83.379547 12.689574 -8.365107
v 90.368790 8.984324 -12.759719
v 89.971779 -0.937541 -8.438419
v 89.407951 -8.606083 -11.025704
v 89.433189 -5.414692 -14.415043
v 83.033852 -8.174623 -8.787186
v 54.719521 21.733076 -17.093204
v 83.260132 -1.309054 -24.552761
v 64.253410 -0.725543 -4.563772
v 83.241974 15.175124 -8.664310
v 82.615135 -12.261249 -20.982248
v 62.165596 -9.746111 -15.839810
v 61.861176 18.040638 -17.444086
v 73.675980 -9.094090 -21.104155
v 74.700813 -1.129277 -13.474393
v 73.666954 15.481823 -5.228075
v 72.703613 18.127655 -9.349499
v 50.589184 21.806232 -27.364277
v 53.214973 -0.577913 -22.624170
v 51.841591 -9.968714 -18.110180
v 51.261879 19.342022 -11.743976
v 72.607887 -13.345866 -13.329240
v 60.143856 -14.584340 -14.608195
v 49.643360 -15.104581 -11.938361
v 90.172508 5.061316 -16.656126
v 83.864555 6.602073 -20.261703
v 74.660522 8.749340 -23.057106
v 64.280701 9.805875 -25.331041
v 53.113304 10.937195 -5.598549
v 89.285126 -10.245591 -5.294799
v 58.780006 21.348438 -6.503452
v 72.586739 -14.556613 -6.372140
v 81.885696 -13.123538 -6.713850
v 65.367165 -14.521558 -10.227245
v 68.312645 -13.918046 -8.464445
v 95.117889 8.235365 -10.568289
v 95.117142 4.600163 -11.009419
v 95.117355 -1.256077 -8.945301
v 95.116608 -6.897011 -5.196883
v 95.116447 -9.163687 -8.790819
v 89.198708 9.069545 -13.073019
v 88.801689 -0.937544 -8.438417
v 88.237869 -8.606081 -11.025701
v 88.263092 -5.883196 -12.251662
v 89.002419 5.061316 -1.047152
v 73.476112 0.744487 -10.625180
v 77.528809 10.600486 -9.407534
v 81.988594 11.890346 -1.782535
v 76.738586 11.587489 -12.916500
v 82.345100 -6.073659 -15.583803
v 81.921936 0.000973 -13.345002
v 79.907600 -6.079221 -18.128773
v 65.843277 2.946153 -15.908174
v 65.954086 -6.129109 -9.690037
v 65.818169 -10.205169 -8.044943
v 77.879013 -8.886041 -7.529513
v 81.113602 -8.696179 -2.867008
v 73.568909 9.521698 -4.994175
v 65.593292 10.416393 -15.031186
v 82.164452 6.848668 -15.723175
v 80.092163 6.307201 -2.041723
v 65.235832 1.587736 -2.128391
v 74.462715 -7.484022 -3.604661
v 65.492096 -6.562876 -12.700318
v 65.843773 10.269821 -9.778970
v 22.092699 -2.668410 -9.783161
v 22.091904 10.548100 -20.712202
v 22.094404 4.781163 -7.254412
v 22.091604 3.989364 -19.161701
v 22.093704 -2.289711 -17.201200
v 22.093603 10.735500 -5.415753
v 53.059250 -6.433587 -3.865710
v 49.100163 2.387701 -6.484380
v 50.110985 10.389116 -14.034102
v 50.408207 10.199435 -16.252247
v 54.044983 -5.926665 -18.694695
v 50.449284 3.059634 -11.471104
v 50.019890 -8.621666 -5.812801
v 49.555092 -6.155577 -16.491650
v 50.763641 -5.694615 -11.888680
v 46.322613 -7.350115 -16.767473
v 47.710800 -4.949066 -6.677634
v 46.866970 -5.735415 -20.578289
v 39.102695 4.499722 -15.680258
v 39.413872 11.631268 -7.776842
v 39.067764 11.900383 -4.460337
v 37.540169 3.702281 -10.965669
v 54.078335 -9.254994 -18.477957
v 52.711529 3.001328 -13.647581
v 52.687050 10.156766 -6.232512
v 52.244946 10.323324 -3.552805
v 51.610920 2.370379 -14.499200
v 22.093201 -4.422550 -14.099398
v 21.064180 2.723825 -4.773102
v 79.905258 21.746988 -15.215191
v 78.616310 17.693205 -24.262335
v 78.600594 -1.387635 -23.262444
v 80.310066 10.665332 -19.336542
v 75.934471 -11.151438 -9.788283
v 75.128754 -15.373123 -13.378513
v 79.357048 -12.196165 -18.098787
v 80.834267 -6.280586 -19.602062
v 82.074997 3.214042 -16.666149
v 82.532776 11.102722 -8.993914
v 82.917603 15.759736 -19.748781
v 77.982620 14.634556 -23.159092
v 77.382889 3.724727 -22.671507
v 76.662857 -5.715031 -14.079587
v 75.079338 -13.231050 -9.679909
v 78.078125 19.120268 -15.281145
v 80.271690 -8.722639 -18.474358
v 80.280716 -1.303705 -18.552265
v 80.915176 7.736962 -12.301675
v 79.727921 13.768990 -4.746553
v 80.350990 16.908306 -0.249380
v 113.727539 -10.637961 0.256456
v 113.725723 -10.622499 -0.226367
v 111.691345 -11.207690 0.501586
v 112.365219 -11.004801 2.153980
v 109.640938 -11.937174 2.782411
v 111.017220 -11.172245 8.284610
v 109.650291 -10.786464 7.333710
v 111.371552 -10.354427 11.176475
v 113.422142 -6.749399 9.409475
v 114.420677 -7.389903 13.733233
v 119.925575 -1.238079 12.485160
v 119.945946 -1.702506 -0.000000
v 121.218399 -8.272799 -0.000000
v 117.765274 -11.030025 -0.000000
v 120.835434 -9.351837 -0.000000
v 114.655922 -11.108716 3.170363
v 117.203575 -8.954581 2.298233
v 119.118446 -8.328763 2.639076
v 117.487404 -9.646832 1.790939
v 119.370537 -9.339241 1.706670
v 115.135696 -10.323421 -0.000000
v 113.661812 -9.938318 2.055347
v 114.728722 -9.275013 -0.000000
v 116.536301 -6.254586 -0.000000
v 113.654114 -9.594760 -0.000000
v 123.172348 -6.713273 3.452161
v 116.765709 -8.162211 3.561232
v 119.079597 -7.853445 2.281230
v 120.536942 -7.322304 -0.000000
v 123.070930 -6.004995 3.831329
v 118.725441 -7.137071 2.328390
v 120.480148 -6.718515 -0.000000
v 113.766579 -10.936693 0.606907
v 114.326920 -10.286828 0.432506
v 113.338737 -10.882479 -0.000000
v 113.338737 -10.882479 -3.170363
v 117.203575 -8.954581 -2.298233
v 119.118446 -8.328763 -2.639076
v 117.487404 -9.646832 -1.790933
v 119.370537 -9.339242 -1.706663
v 115.135696 -10.323421 -2.055348
v 114.728722 -9.275015 -3.452159
v 116.765709 -8.162211 -3.561227
v 119.079597 -7.853448 -2.281231
v 120.536942 -7.322303 -3.831324
v 118.725441 -7.137072 -2.328391
v 120.480164 -6.718515 -0.606907
v 114.326920 -10.286828 -0.432506
v 113.338737 -10.882479 13.338787
v 108.732002 7.787879 15.642731
v 110.450562 7.392409 20.847593
v 107.011940 7.013024 9.584708
v 90.543175 11.106163 13.838308
v 90.562012 5.770970 14.722305
v 90.427574 -1.887735 12.335740
v 90.031326 -8.064793 6.371781
v 89.494911 -11.654887 -0.000001
v 90.479607 12.386958 12.122543
v 100.084534 -1.758431 12.857114
v 94.678940 -1.607664 14.722305
v 90.427574 -1.887735 0.000001
v 127.253098 -5.656642 6.288693
v 127.854622 -3.072024 7.313694
v 129.121185 5.134073 -0.000001
v 129.710236 9.289064 28.039499
v 103.616920 6.144767 30.468088
v 102.176987 5.725012 35.588295
v 98.507301 5.739231 41.660854
v 95.151077 5.433985 45.882812
v 92.817688 5.221764 0.000000
v 89.421265 -12.272968 1.047151
v 73.476097 0.744486 2.041721
v 65.235847 1.587730 -0.000000
v 73.629692 0.686657 3.552805
v 51.610912 2.370376 3.865711
v 49.100163 2.387696 4.460336
v 37.540169 3.702273 7.254410
v 22.091606 3.989356 14.099398
v 21.064180 2.723825 14.099398
v 21.064180 2.723825 14.099398
v 21.064180 2.723825 14.099398
v 21.064180 2.723825 14.099398
v 21.064180 2.723825 14.099398
v 21.064180 2.723825 -0.000000
v 73.629692 0.686657 1.047151
v 73.476097 0.744486 -0.000001
v 75.121002 7.044057 1.047151
v 73.476097 0.744486 -0.000000
v 73.629692 0.686657 0.000000
v 74.371994 -8.022909 4.563767
v 83.241974 15.175129 16.656126
v 83.864555 6.602070 14.415046
v 83.033852 -8.174619 11.558403
v 83.379547 12.689575 8.664312
v 82.615135 -12.261246 17.093206
v 83.260139 -1.309048 16.656126
v 83.864555 6.602070 17.093206
v 83.260139 -1.309048 0.000001
v 83.566864 15.344198 4.563767
v 83.241974 15.175129 14.415046
v 83.033852 -8.174619 8.664312
v 82.615135 -12.261246 11.558403
v 83.379547 12.689575 -0.000001
v 90.479607 12.386958 -0.000001
v 82.247177 21.439758 -0.000001
v 107.321342 12.335108 -13.338784
v 108.732002 7.787879 -15.642731
v 110.447060 7.387939 -0.000001
v 100.926544 10.634074 -0.000000
v 115.241608 -9.984076 0.000001
v 116.508240 12.661695 -0.000000
v 122.391808 11.264634 -0.000000
v 119.539627 -7.131206 -20.847599
v 107.011971 7.013057 -0.000000
v 122.246674 -6.194016 0.000001
v 125.348572 9.971876 0.000000
v 107.253082 -12.391805 0.000000
v 99.896530 -11.700097 -13.838306
v 90.562012 5.770970 -9.584707
v 90.543182 11.106163 -14.722304
v 90.427574 -1.887738 -12.335737
v 90.031326 -8.064795 -6.371781
v 89.494911 -11.654887 -0.000001
v 90.479607 12.386958 0.000000
v 95.511513 11.430445 -0.000000
v 93.893547 -11.441923 0.000000
v 89.421265 -12.272968 -12.122543
v 100.084534 -1.758432 -12.857115
v 94.678940 -1.607666 -14.722304
v 90.427574 -1.887738 0.000000
v 124.814690 -7.038239 -0.000001
v 127.797272 10.471382 0.000001
v 127.253098 -5.656642 -0.000001
v 129.710236 9.289064 0.000001
v 127.253098 -5.656642 -6.288690
v 127.856949 -3.068629 -0.000000
v 123.544228 1.336698 -7.313694
v 129.120331 5.138024 -0.000001
v 129.710236 9.289064 -28.039499
v 103.616943 6.144789 -30.468094
v 102.177002 5.725013 -35.588295
v 98.507301 5.739230 -41.660862
v 95.151077 5.433982 -45.882812
v 92.817688 5.221759 0.000000
v 89.421265 -12.272968 0.000000
v 80.664787 -16.424952 -0.000001
v 126.774002 8.181262 -0.000001
v 133.220993 6.875771 0.000001
v 128.725998 -3.807340 -0.000000
v 122.202003 -2.804041 0.000001
v 83.566864 15.344198 -0.000001
v 72.421509 17.769958 -0.000000
v 90.553085 10.409829 0.000000
v 60.675770 20.558422 0.000001
v 81.785408 -13.714321 0.000000
v 89.285126 -11.123111 -0.000000
v 72.586739 -14.943217 -0.000004
v 62.223789 -15.515105 0.000000
v 95.118126 9.338303 -0.000000
v 95.116447 -10.195324 -0.000000
v 73.629692 0.686657 -0.000001
v 75.121002 7.044057 -1.047152
v 73.476112 0.744487 -2.041723
v 65.235832 1.587736 0.000000
v 74.371994 -8.022909 -0.000000
v 73.629692 0.686657 -0.000001
v 80.989380 -10.888690 -0.000000
v 89.382996 11.047409 0.000000
v 81.839882 12.603008 0.000000
v 88.115021 -11.591612 -3.552805
v 51.610920 2.370379 -3.865710
v 49.100163 2.387701 -4.460337
v 37.540169 3.702281 -7.254412
v 22.091604 3.989364 -14.099398
v 21.064180 2.723825 -14.099398
v 21.064180 2.723825 -14.099398
v 21.064180 2.723825 -14.099398
v 21.064180 2.723825 -14.099398
v 21.064180 2.723825 -14.099398
v 21.064180 2.723825 -0.000000
v 73.629692 0.686657 -0.000001
v 75.121002 7.044057 -1.047152
v 73.476112 0.744487 -1.047152
v 73.476112 0.744487 0.000000
v 74.371994 -8.022909 -0.000000
v 73.629692 0.686657 -4.563772
v 83.241974 15.175124 -16.656126
v 83.864555 6.602073 -0.000000
v 82.699425 17.689974 -14.415043
v 83.033852 -8.174623 -11.558404
v 83.379547 12.689574 -8.664310
v 82.615135 -12.261249 -17.093204
v 83.260132 -1.309054 -16.656126
v 83.864555 6.602073 -17.093204
v 83.260132 -1.309054 0.000001
v 83.566864 15.344198 -4.563772
v 83.241974 15.175124 -0.000000
v 78.516411 21.822510 -14.415043
v 83.033852 -8.174623 -8.664310
v 82.615135 -12.261249 -11.558404
v 83.379547 12.689574 2.055347
v 114.728722 -9.275013 3.452161
v 116.765709 -8.162211 -0.000000
v 113.654114 -9.594760 3.831329
v 118.725441 -7.137071 -0.000000
v 123.070930 -6.004995 2.328390
v 120.480148 -6.718515 0.606907
v 114.326920 -10.286828 -0.000000
v 114.655922 -11.108716 -2.055348
v 114.728722 -9.275015 -3.452159
v 116.765709 -8.162211 -3.831324
v 118.725441 -7.137072 -2.328391
v 120.480164 -6.718515 -0.606907
v 114.326920 -10.286828 -0.000000
v 114.655922 -11.108716 -0.000000
v 113.766579 -10.936693 -0.000000
v 113.338737 -10.882479 0.388803

vt 0.213904 0.671199
vt 0.274865 0.704007
vt 0.208056 0.647327
vt 0.154902 0.740760
vt 0.169303 0.763919
vt 0.065354 0.696130
vt 0.107262 0.793941
vt 0.139616 0.844907
vt 0.125322 0.899796
vt 0.123322 0.830463
vt 0.044864 0.895340
vt 0.042521 0.578845
vt 0.238287 0.878022
vt 0.254633 0.807933
vt 0.721721 0.796039
vt 0.803727 0.880634
vt 0.810394 0.797078
vt 0.674547 0.845450
vt 0.685931 0.808892
vt 0.627084 0.731543
vt 0.714440 0.732458
vt 0.762165 0.780957
vt 0.727248 0.755876
vt 0.781450 0.726687
vt 0.459032 0.723044
vt 0.486653 0.798822
vt 0.873181 0.878921
vt 0.866140 0.779143
vt 0.511088 0.788526
vt 0.429982 0.765216
vt 0.627950 0.764995
vt 0.585998 0.802736
vt 0.564313 0.766182
vt 0.666754 0.754685
vt 0.531695 0.843011
vt 0.485481 0.745100
vt 0.878196 0.865156
vt 0.523588 0.829539
vt 0.416975 0.900687
vt 0.459808 0.887722
vt 0.399892 0.780343
vt 0.352639 0.892488
vt 0.746088 0.903558
vt 0.714104 0.726096
vt 0.544469 0.720094
vt 0.601128 0.723469
vt 0.658894 0.911251
vt 0.488814 0.845460
vt 0.572219 0.644437
vt 0.473208 0.664748
vt 0.519250 0.672716
vt 0.713139 0.664967
vt 0.561867 0.886269
vt 0.557631 0.920636
vt 0.499077 0.878661
vt 0.637777 0.845825
vt 0.630913 0.913724
vt 0.685956 0.668582
vt 0.606018 0.673683
vt 0.663929 0.883601
vt 0.332179 0.807692
vt 0.913664 0.716729
vt 0.319097 0.775851
vt 0.303528 0.825345
vt 0.296497 0.885147
vt 0.897961 0.825532
vt 0.343810 0.879384
vt 0.293369 0.725787
vt 0.360907 0.751110
vt 0.926704 0.918189
vt 0.563748 0.948076
vt 0.507450 0.902483
vt 0.639711 0.913724
vt 0.685956 0.938128
vt 0.576714 0.968752
vt 0.529093 0.923832
vt 0.640799 0.934926
vt 0.677217 0.983349
vt 0.859850 0.597665
vt 0.756049 0.589785
vt 0.531159 0.598470
vt 0.661431 0.591002
vt 0.570475 0.596002
vt 0.611318 0.607552
vt 0.709153 0.567693
vt 0.757227 0.572600
vt 0.662779 0.560617
vt 0.708921 0.584727
vt 0.708893 0.568458
vt 0.611192 0.563683
vt 0.569576 0.562515
vt 0.526868 0.507677
vt 0.522151 0.508004
vt 0.566380 0.509045
vt 0.607435 0.512392
vt 0.664274 0.513670
vt 0.709698 0.514060
vt 0.472490 0.405734
vt 0.746683 0.409017
vt 0.704018 0.408896
vt 0.515449 0.408511
vt 0.663619 0.407164
vt 0.562280 0.408414
vt 0.606104 0.447670
vt 0.751317 0.452972
vt 0.706208 0.449318
vt 0.563388 0.449036
vt 0.518374 0.454656
vt 0.664033 0.452094
vt 0.606692 0.865393
vt 0.022342 0.654753
vt 0.118324 0.607710
vt 0.174294 0.719281
vt 0.069782 0.787181
vt 0.039754 0.963751
vt 0.063949 0.898342
vt 0.087599 0.925494
vt 0.088917 0.963434
vt 0.150703 0.903917
vt 0.205214 0.894171
vt 0.293346 0.906738
vt 0.369553 0.944790
vt 0.301394 0.955345
vt 0.242859 0.947095
vt 0.360980 0.987916
vt 0.204169 0.168186
vt 0.281272 0.183937
vt 0.349836 0.284840
vt 0.339492 0.363581
vt 0.356750 0.331985
vt 0.346110 0.111652
vt 0.379028 0.350813
vt 0.285646 0.068926
vt 0.070088 0.011956
vt 0.145485 0.078015
vt 0.315826 0.292442
vt 0.274695 0.302889
vt 0.115008 0.111957
vt 0.299374 0.403304
vt 0.305767 0.041859
vt 0.225528 0.376447
vt 0.123279 0.142020
vt 0.109873 0.366695
vt 0.205750 0.298433
vt 0.195771 0.153823
vt 0.199075 0.082250
vt 0.212370 0.063857
vt 0.034610 0.313988
vt 0.014642 0.392568
vt 0.023042 0.130331
vt 0.017170 0.421389
vt 0.220124 0.448874
vt 0.134163 0.476269
vt 0.044142 0.231208
vt 0.339588 0.229666
vt 0.274746 0.224134
vt 0.195885 0.219898
vt 0.113301 0.220201
vt 0.009071 0.392544
vt 0.366900 0.050246
vt 0.113899 0.468522
vt 0.334829 0.508793
vt 0.268940 0.434724
vt 0.389546 0.461937
vt 0.241632 0.422560
vt 0.309198 0.490469
vt 0.188535 0.452087
vt 0.195183 0.552960
vt 0.194354 0.130607
vt 0.415834 0.200905
vt 0.387987 0.235590
vt 0.383145 0.284629
vt 0.385397 0.338010
vt 0.398307 0.371602
vt 0.411942 0.410814
vt 0.432324 0.270347
vt 0.980071 0.191546
vt 0.978691 0.107224
vt 0.978287 0.150070
vt 0.978014 0.317199
vt 0.972023 0.233073
vt 0.979396 0.057359
vt 0.977023 0.370058
vt 0.896262 0.339718
vt 0.908052 0.045796
vt 0.907157 0.057801
vt 0.933806 0.323160
vt 0.939707 0.370058
vt 0.896262 0.263897
vt 0.903742 0.270041
vt 0.935115 0.315836
vt 0.915681 0.150029
vt 0.934085 0.190201
vt 0.931146 0.150413
vt 0.918313 0.208998
vt 0.806379 0.152946
vt 0.805456 0.111254
vt 0.804716 0.109187
vt 0.904743 0.109205
vt 0.932378 0.315265
vt 0.886139 0.308963
vt 0.807973 0.229033
vt 0.932092 0.226594
vt 0.915159 0.027906
vt 0.802934 0.060288
vt 0.896468 0.071893
vt 0.803911 0.260574
vt 0.807225 0.096366
vt 0.538090 0.304983
vt 0.541493 0.209984
vt 0.539648 0.049451
vt 0.536936 0.160127
vt 0.538971 0.255948
vt 0.540423 0.078585
vt 0.724270 0.037015
vt 0.686914 0.305058
vt 0.701757 0.258811
vt 0.701123 0.153817
vt 0.731621 0.206703
vt 0.700402 0.118135
vt 0.707647 0.082222
vt 0.702228 0.156607
vt 0.708565 0.120454
vt 0.683027 0.158067
vt 0.686717 0.084996
vt 0.683269 0.208335
vt 0.630848 0.258046
vt 0.633253 0.303202
vt 0.634837 0.042275
vt 0.620642 0.115611
vt 0.729919 0.207503
vt 0.719321 0.259493
vt 0.716561 0.304954
vt 0.715903 0.354277
vt 0.714058 0.129786
vt 0.538630 0.049451
vt 0.536936 0.378604
vt 0.940971 0.420514
vt 0.861623 0.540957
vt 0.793409 0.476753
vt 0.823618 0.401515
vt 0.980482 0.624540
vt 0.777456 0.694875
vt 0.821804 0.647932
vt 0.813472 0.590988
vt 0.811541 0.526171
vt 0.838738 0.471261
vt 0.881245 0.422373
vt 0.914631 0.203496
vt 0.429254 0.265898
vt 0.424556 0.081178
vt 0.476836 0.328627
vt 0.434678 0.386248
vt 0.470225 0.144129
vt 0.440146 0.348525
vt 0.471268 0.296235
vt 0.445885 0.236787
vt 0.440105 0.171974
vt 0.451371 0.126245
vt 0.475972 0.611197
vt 0.213904 0.704007
vt 0.208056 0.647327
vt 0.154902 0.740760
vt 0.169303 0.763919
vt 0.065354 0.696130
vt 0.107262 0.793941
vt 0.139616 0.844907
vt 0.125322 0.899796
vt 0.123322 0.830463
vt 0.044864 0.895340
vt 0.042521 0.807933
vt 0.721721 0.796039
vt 0.803727 0.797078
vt 0.674547 0.845450
vt 0.685931 0.808892
vt 0.627084 0.731543
vt 0.714440 0.732458
vt 0.762165 0.780957
vt 0.727248 0.755876
vt 0.781450 0.726687
vt 0.459032 0.723044
vt 0.486653 0.798822
vt 0.873181 0.779143
vt 0.511088 0.788526
vt 0.429982 0.765216
vt 0.627950 0.764995
vt 0.585998 0.802736
vt 0.564313 0.766182
vt 0.666754 0.754685
vt 0.531695 0.843011
vt 0.485481 0.745100
vt 0.878196 0.865156
vt 0.523588 0.829539
vt 0.416975 0.780343
vt 0.352639 0.726096
vt 0.544469 0.720094
vt 0.601128 0.723469
vt 0.658894 0.845460
vt 0.572219 0.644437
vt 0.473208 0.664748
vt 0.519250 0.672716
vt 0.713139 0.664967
vt 0.561867 0.886269
vt 0.557631 0.878661
vt 0.637777 0.845825
vt 0.630913 0.668582
vt 0.606018 0.673683
vt 0.663929 0.807692
vt 0.913664 0.716729
vt 0.319097 0.775851
vt 0.303528 0.825345
vt 0.296497 0.825532
vt 0.343810 0.725787
vt 0.360907 0.751110
vt 0.926704 0.918189
vt 0.563748 0.902483
vt 0.639711 0.938128
vt 0.576714 0.923832
vt 0.640799 0.597665
vt 0.756049 0.589785
vt 0.531159 0.598470
vt 0.661431 0.591002
vt 0.570475 0.596002
vt 0.611318 0.607552
vt 0.709153 0.567693
vt 0.757227 0.572600
vt 0.662779 0.560617
vt 0.708921 0.584727
vt 0.708893 0.568458
vt 0.611192 0.563683
vt 0.569576 0.562515
vt 0.526868 0.507677
vt 0.522151 0.508004
vt 0.566380 0.509045
vt 0.607435 0.512392
vt 0.664274 0.513670
vt 0.709698 0.514060
vt 0.472490 0.405734
vt 0.746683 0.409017
vt 0.704018 0.408896
vt 0.515449 0.408511
vt 0.663619 0.407164
vt 0.562280 0.408414
vt 0.606104 0.447670
vt 0.751317 0.452972
vt 0.706208 0.449318
vt 0.563388 0.449036
vt 0.518374 0.454656
vt 0.664033 0.452094
vt 0.606692 0.865393
vt 0.022342 0.654753
vt 0.118324 0.607710
vt 0.174294 0.719281
vt 0.069782 0.787181
vt 0.039754 0.898342
vt 0.087599 0.925494
vt 0.088917 0.903917
vt 0.205214 0.894171
vt 0.293346 0.944790
vt 0.301394 0.955345
vt 0.242859 0.168186
vt 0.281272 0.183937
vt 0.349836 0.284840
vt 0.339492 0.363581
vt 0.356750 0.331985
vt 0.346110 0.350813
vt 0.285646 0.068926
vt 0.070088 0.292442
vt 0.274695 0.302889
vt 0.115008 0.111957
vt 0.299374 0.403304
vt 0.305767 0.376447
vt 0.123279 0.142020
vt 0.109873 0.366695
vt 0.205750 0.298433
vt 0.195771 0.153823
vt 0.199075 0.082250
vt 0.212370 0.063857
vt 0.034610 0.313988
vt 0.014642 0.392568
vt 0.023042 0.130331
vt 0.017170 0.421389
vt 0.220124 0.448874
vt 0.134163 0.476269
vt 0.044142 0.231208
vt 0.339588 0.229666
vt 0.274746 0.224134
vt 0.195885 0.219898
vt 0.113301 0.220201
vt 0.009071 0.392544
vt 0.366900 0.050246
vt 0.113899 0.461937
vt 0.241632 0.422560
vt 0.309198 0.490469
vt 0.188535 0.452087
vt 0.195183 0.200905
vt 0.387987 0.235590
vt 0.383145 0.284629
vt 0.385397 0.338010
vt 0.398307 0.371602
vt 0.411942 0.270347
vt 0.980071 0.191546
vt 0.978691 0.107224
vt 0.978287 0.150070
vt 0.978014 0.233073
vt 0.979396 0.370058
vt 0.896262 0.263897
vt 0.903742 0.270041
vt 0.935115 0.315836
vt 0.915681 0.150029
vt 0.934085 0.190201
vt 0.931146 0.150413
vt 0.918313 0.208998
vt 0.806379 0.152946
vt 0.805456 0.111254
vt 0.804716 0.109187
vt 0.904743 0.109205
vt 0.932378 0.315265
vt 0.886139 0.308963
vt 0.807973 0.229033
vt 0.932092 0.226594
vt 0.915159 0.027906
vt 0.802934 0.060288
vt 0.896468 0.071893
vt 0.803911 0.260574
vt 0.807225 0.096366
vt 0.538090 0.304983
vt 0.541493 0.209984
vt 0.539648 0.049451
vt 0.536936 0.160127
vt 0.538971 0.255948
vt 0.540423 0.078585
vt 0.724270 0.037015
vt 0.686914 0.305058
vt 0.701757 0.258811
vt 0.701123 0.153817
vt 0.731621 0.206703
vt 0.700402 0.118135
vt 0.707647 0.082222
vt 0.702228 0.156607
vt 0.708565 0.120454
vt 0.683027 0.158067
vt 0.686717 0.084996
vt 0.683269 0.208335
vt 0.630848 0.258046
vt 0.633253 0.303202
vt 0.634837 0.042275
vt 0.620642 0.115611
vt 0.729919 0.207503
vt 0.719321 0.259493
vt 0.716561 0.304954
vt 0.715903 0.354277
vt 0.714058 0.129786
vt 0.538630 0.049451
vt 0.536936 0.378604
vt 0.940971 0.420514
vt 0.861623 0.540957
vt 0.793409 0.476753
vt 0.823618 0.624540
vt 0.777456 0.694875
vt 0.821804 0.647932
vt 0.813472 0.590988
vt 0.811541 0.526171
vt 0.838738 0.471261
vt 0.881245 0.422373
vt 0.914631 0.203496
vt 0.429254 0.265898
vt 0.424556 0.328627
vt 0.434678 0.386248
vt 0.470225 0.144129
vt 0.440146 0.348525
vt 0.471268 0.296235
vt 0.445885 0.236787
vt 0.440105 0.171974
vt 0.451371 0.126245
vt 0.475972 0.685707
vt 0.059098 0.676384
vt 0.061748 0.677267
vt 0.039484 0.666353
vt 0.050379 0.648923
vt 0.019095 0.642858
vt 0.033006 0.577519
vt 0.020693 0.584428
vt 0.035486 0.514098
vt 0.091996 0.530608
vt 0.096905 0.478514
vt 0.163332 0.495740
vt 0.163499 0.589078
vt 0.416643 0.584717
vt 0.338583 0.588885
vt 0.401690 0.579297
vt 0.287615 0.517272
vt 0.333065 0.535339
vt 0.375494 0.538134
vt 0.337648 0.552497
vt 0.372338 0.549332
vt 0.295167 0.582376
vt 0.272052 0.539485
vt 0.279751 0.498290
vt 0.953401 0.469465
vt 0.960769 0.582678
vt 0.451136 0.484188
vt 0.929276 0.507818
vt 0.373612 0.532791
vt 0.405418 0.579068
vt 0.456876 0.499276
vt 0.922225 0.522576
vt 0.411772 0.638638
vt 0.917863 0.567698
vt 0.281451 0.625567
vt 0.900277 0.640914
vt 0.902561 0.656638
vt 0.338690 0.641878
vt 0.379849 0.635716
vt 0.337218 0.623521
vt 0.373782 0.613689
vt 0.294668 0.629262
vt 0.289626 0.484188
vt 0.929276 0.667565
vt 0.390416 0.644328
vt 0.419381 0.499276
vt 0.922225 0.647678
vt 0.426140 0.592031
vt 0.281468 0.625567
vt 0.900277 0.656561
vt 0.458443 0.659717
vt 0.467705 0.672104
vt 0.761484 0.815822
vt 0.947079 0.760981
vt 0.962561 0.709376
vt 0.282554 0.764441
vt 0.268661 0.822835
vt 0.257527 0.895090
vt 0.927494 0.683771
vt 0.888070 0.693435
vt 0.934841 0.696884
vt 0.974908 0.966086
vt 0.795685 0.925425
vt 0.819718 0.903048
vt 0.894017 0.959026
vt 0.940717 0.584529
vt 0.486035 0.566088
vt 0.484817 0.508916
vt 0.758093 0.451551
vt 0.468170 0.409035
vt 0.468557 0.948824
vt 0.131470 0.015401
vt 0.889950 0.359888
vt 0.808605 0.015401
vt 0.889950 0.035488
vt 0.705019 0.353776
vt 0.695077 0.352402
vt 0.626355 0.351082
vt 0.542194 0.160127
vt 0.538971 0.129786
vt 0.538630 0.209984
vt 0.539648 0.255948
vt 0.540423 0.304983
vt 0.541493 0.096366
vt 0.538090 0.370058
vt 0.896262 0.370058
vt 0.896262 0.339718
vt 0.908052 0.015401
vt 0.889950 0.015401
vt 0.889950 0.045796
vt 0.907157 0.430487
vt 0.950377 0.507314
vt 0.874973 0.616088
vt 0.839881 0.455558
vt 0.908280 0.644348
vt 0.856065 0.565481
vt 0.848093 0.236186
vt 0.480244 0.288082
vt 0.485212 0.116295
vt 0.523899 0.139808
vt 0.504903 0.333246
vt 0.502899 0.371198
vt 0.530032 0.184153
vt 0.484391 0.671199
vt 0.274865 0.578845
vt 0.238287 0.880634
vt 0.810394 0.656561
vt 0.458443 0.659717
vt 0.467705 0.878921
vt 0.866140 0.900687
vt 0.459808 0.892488
vt 0.746088 0.903558
vt 0.714104 0.911251
vt 0.488814 0.672104
vt 0.761484 0.920636
vt 0.499077 0.913724
vt 0.685956 0.887722
vt 0.399892 0.883601
vt 0.332179 0.760981
vt 0.962561 0.815822
vt 0.947079 0.709376
vt 0.282554 0.764441
vt 0.268661 0.822835
vt 0.257527 0.895090
vt 0.927494 0.885147
vt 0.897961 0.879384
vt 0.293369 0.878022
vt 0.254633 0.683771
vt 0.888070 0.693435
vt 0.934841 0.696884
vt 0.974908 0.948076
vt 0.507450 0.913724
vt 0.685956 0.968752
vt 0.529093 0.934926
vt 0.677217 0.966086
vt 0.795685 0.925425
vt 0.819718 0.983349
vt 0.859850 0.903048
vt 0.894017 0.959026
vt 0.940717 0.584529
vt 0.486035 0.566088
vt 0.484817 0.508916
vt 0.758093 0.451551
vt 0.468170 0.409035
vt 0.468557 0.948824
vt 0.131470 0.963751
vt 0.063949 0.906738
vt 0.369553 0.947095
vt 0.360980 0.987916
vt 0.204169 0.963434
vt 0.150703 0.078015
vt 0.315826 0.041859
vt 0.225528 0.111652
vt 0.379028 0.011956
vt 0.145485 0.468522
vt 0.334829 0.434724
vt 0.389546 0.508793
vt 0.268940 0.552960
vt 0.194354 0.130607
vt 0.415834 0.410814
vt 0.432324 0.370058
vt 0.896262 0.339718
vt 0.908052 0.015401
vt 0.889950 0.359888
vt 0.808605 0.045796
vt 0.907157 0.015401
vt 0.889950 0.057801
vt 0.933806 0.317199
vt 0.972023 0.323160
vt 0.939707 0.057359
vt 0.977023 0.035488
vt 0.705019 0.353776
vt 0.695077 0.352402
vt 0.626355 0.351082
vt 0.542194 0.160127
vt 0.538971 0.129786
vt 0.538630 0.209984
vt 0.539648 0.255948
vt 0.540423 0.304983
vt 0.541493 0.096366
vt 0.538090 0.370058
vt 0.896262 0.339718
vt 0.908052 0.370058
vt 0.896262 0.015401
vt 0.889950 0.045796
vt 0.907157 0.015401
vt 0.889950 0.430487
vt 0.950377 0.507314
vt 0.874973 0.401515
vt 0.980482 0.616088
vt 0.839881 0.455558
vt 0.908280 0.644348
vt 0.856065 0.565481
vt 0.848093 0.236186
vt 0.480244 0.288082
vt 0.485212 0.116295
vt 0.523899 0.139808
vt 0.504903 0.081178
vt 0.476836 0.333246
vt 0.502899 0.371198
vt 0.530032 0.184153
vt 0.484391 0.471905
vt 0.944431 0.503518
vt 0.323614 0.584928
vt 0.272734 0.494702
vt 0.370964 0.538144
vt 0.937590 0.516217
vt 0.925712 0.606468
vt 0.937530 0.632748
vt 0.950783 0.471905
vt 0.944431 0.670108
vt 0.336710 0.679601
vt 0.387584 0.516217
vt 0.925712 0.606468
vt 0.937530 0.632748
vt 0.950783 0.638638
vt 0.917863 0.640914
vt 0.902561 1.000000

f 480/480 479/479 477/477
f 478/478 480/480 477/477
f 482/482 481/481 479/479
f 480/480 482/482 479/479
f 484/484 483/483 481/481
f 482/482 484/484 481/481
f 486/486 485/485 483/483
f 484/484 486/486 483/483
f 486/486 488/488 487/487
f 486/486 487/487 485/485
f 490/490 496/496 491/491
f 497/497 492/492 489/489
f 496/496 491/491 493/493
f 493/493 499/499 494/494
f 494/494 493/493 499/499
f 510/510 497/497 496/496
f 489/489 494/494 500/500
f 501/501 678/678 502/502
f 506/506 505/505 493/493
f 679/679 499/499 494/494
f 504/504 493/493 679/679
f 493/493 504/504 680/680
f 498/498 499/499 489/489
f 489/489 502/502 504/504
f 494/494 505/505 508/508
f 681/681 504/504 682/682
f 507/507 683/683 679/679
f 504/504 681/681 506/506
f 508/508 504/504 684/684
f 509/509 685/685 492/492
f 497/497 510/510 498/498
f 510/510 499/499 509/509
f 684/684 511/511 509/509
f 511/511 512/512 490/490
f 516/516 490/490 491/491
f 492/492 517/517 489/489
f 491/491 516/516 513/513
f 518/518 513/513 514/514
f 513/513 514/514 518/518
f 517/517 524/524 516/516
f 514/514 489/489 500/500
f 686/686 501/501 502/502
f 521/521 506/506 513/513
f 518/518 687/687 514/514
f 513/513 520/520 687/687
f 520/520 513/513 680/680
f 518/518 498/498 489/489
f 489/489 514/514 520/520
f 521/521 514/514 523/523
f 520/520 688/688 682/682
f 689/689 522/522 687/687
f 688/688 520/520 506/506
f 520/520 523/523 690/690
f 691/691 692/692 492/492
f 524/524 517/517 498/498
f 518/518 524/524 692/692
f 525/525 690/690 692/692
f 1/1 510/510 498/498
f 11/11 1/1 217/217
f 184/184 189/189 185/185
f 190/190 191/191 192/192
f 193/193 194/194 195/195
