# MOD converted: e_m_costume_officer_body_lod0.mod
# 717 verts, 101 faces

v 122.312828 -2.983299 -0.000001
v 108.118980 11.901208 0.000001
v 125.412018 -3.257095 -0.000000
v 86.365921 -10.478778 0.000000
v 116.402000 12.206094 0.000002
v 128.726074 -3.807348 -0.000000
v 88.115349 11.654869 9.520350
v 91.332588 -7.719075 8.909031
v 92.419693 7.857961 12.826533
v 91.860161 -0.145836 8.847213
v 100.374992 -7.852657 12.121107
v 101.358017 -0.095502 8.531587
v 100.689011 8.306586 11.709954
v 122.799805 -0.052414 11.864303
v 123.353050 8.810061 11.028207
v 107.776001 -6.823948 11.078132
v 117.543022 11.866954 12.933027
v 118.530319 -3.492650 16.538586
v 122.549927 8.614849 11.733604
v 124.308571 4.795198 16.742439
v 109.494446 7.398659 15.423866
v 117.466400 11.224556 18.683441
v 116.597778 9.942129 15.498000
v 109.579376 0.065688 16.495243
v 122.434860 0.020496 18.288662
v 115.977386 -2.296584 20.864517
v 120.952866 7.312663 16.785755
v 123.555954 4.472773 20.745731
v 120.881065 0.615248 7.038145
v 115.216003 -7.919838 7.382107
v 107.280975 -10.205549 6.105300
v 119.864433 -5.031331 8.009076
v 122.825485 -0.159630 8.973579
v 124.332428 5.015116 5.015279
v 123.242538 9.670158 15.940632
v 119.390060 -2.551237 9.799938
v 108.633987 10.665888 5.446914
v 132.238342 4.085751 4.901293
v 130.072998 -1.004878 8.852867
v 95.517311 -7.785438 11.821107
v 95.615585 -0.142095 8.705344
v 95.903885 7.971810 4.686275
v 126.551712 -0.592375 4.864510
v 128.349518 4.715744 7.266061
v 86.450867 -8.965395 14.152390
v 110.135361 -0.041691 14.648077
v 109.553444 7.800883 8.338614
v 88.028694 10.939999 12.104907
v 86.701347 -5.962309 14.598042
v 87.234268 0.058468 13.338632
v 87.638092 6.541620 -0.000000
v 126.244965 8.761606 -0.000001
v 92.554398 9.789900 -0.000000
v 115.153000 -9.169786 -0.000000
v 122.649261 10.564011 -0.000001
v 133.221436 6.875799 -0.000001
v 129.225983 7.667767 -0.000000
v 91.124298 -10.698397 0.000000
v 101.190109 -10.959795 -0.000001
v 101.781158 10.431767 -0.000000
v 119.333488 -6.332216 -0.000000
v 95.607491 -10.851810 -0.000000
v 96.033661 9.986601 0.000000
v 107.179993 -11.591767 5.975299
v 123.240097 -0.376238 6.621323
v 125.463631 5.728318 -9.520349
v 91.332588 -7.719068 -8.909029
v 92.419701 7.857969 -12.826533
v 91.860161 -0.145836 -8.847214
v 100.374992 -7.852648 -12.121107
v 101.358017 -0.095494 -8.531587
v 100.689011 8.306595 -11.709954
v 122.802101 -0.048426 -11.864301
v 123.348457 8.814480 -11.028206
v 107.776001 -6.823943 -11.078109
v 117.537933 11.866957 -12.933026
v 118.533302 -3.492022 -16.538586
v 122.546600 8.618311 -11.733603
v 124.307106 4.800302 -16.742441
v 109.492706 7.396174 -15.423866
v 117.463173 11.224899 -18.683441
v 116.593689 9.942572 -15.498001
v 109.580475 0.063126 -16.495243
v 122.436539 0.023891 -18.288666
v 115.980423 -2.296532 -16.785755
v 123.555046 4.476824 -20.745729
v 120.881493 0.616265 -7.038143
v 115.216003 -7.919831 -7.382106
v 107.280975 -10.205540 -6.105300
v 119.869064 -5.030677 -8.009077
v 122.827271 -0.157092 -8.973579
v 124.331200 5.018612 -5.015279
v 123.238594 9.672544 -15.940632
v 119.393234 -2.549597 -9.799936
v 108.633980 10.665900 -5.446914
v 132.238342 4.085760 -4.901291
v 130.072998 -1.004869 -8.852868
v 95.517311 -7.785429 -11.821107
v 95.615585 -0.142095 -8.705344
v 95.903885 7.971819 -4.686274
v 126.553749 -0.588195 -4.864508
v 128.348450 4.720944 -7.266060
v 86.450867 -8.965388 -14.152390
v 110.137001 -0.045229 -14.648077
v 109.550728 7.797100 -8.338614
v 88.028687 10.940006 -12.104908
v 86.701347 -5.962299 -14.598042
v 87.234268 0.058470 -13.338632
v 87.638092 6.541628 -5.975298
v 123.242012 -0.373730 -6.621322
v 125.461975 5.732142 9.899524
v 116.865891 -7.714117 9.606424
v 114.548775 -9.006691 7.587762
v 113.324532 -10.252443 5.733647
v 119.503197 -7.601152 8.295367
v 118.917473 -7.131964 9.642434
v 116.471344 -7.029866 9.349336
v 114.154221 -8.322440 7.330674
v 112.929977 -9.568195 5.476554
v 119.108719 -6.916860 8.038278
v 118.522987 -6.447668 3.421887
v 115.962952 -10.139409 5.026042
v 113.910301 -10.721633 3.714986
v 118.280060 -8.846836 3.164794
v 115.568398 -9.455161 4.768952
v 113.515747 -10.037383 3.457895
v 117.885513 -8.162586 3.724657
v 109.409500 -11.391314 5.749382
v 108.023880 -10.840795 5.193916
v 105.616493 -11.308190 2.825896
v 105.514252 -12.147577 1.917843
v 107.858482 -12.198949 1.824299
v 110.418434 -11.695464 5.574839
v 110.319687 -10.663819 5.731229
v 113.095222 -9.680138 1.981305
v 113.242157 -10.763365 7.182528
v 128.978821 3.877940 10.085508
v 127.253113 3.877940 13.975012
v 126.892029 3.877946 26.320383
v 119.408745 3.877946 19.259638
v 126.014816 3.877953 7.897215
v 126.856087 0.090801 10.469810
v 125.304176 -1.232216 10.133577
v 126.926659 0.245418 12.858867
v 119.276031 -4.433787 16.463053
v 117.299957 -5.095336 14.707059
v 122.610809 -4.088646 14.236519
v 126.403755 -1.617094 21.417465
v 118.710365 -3.821372 19.421303
v 122.656761 -2.735522 24.955116
v 119.302902 -0.486155 7.171257
v 128.398743 1.460904 22.657217
v 122.752426 0.293357 23.562262
v 122.742973 3.877951 17.718941
v 126.383942 0.173489 10.963697
v 122.327087 -2.729641 13.438988
v 124.361977 3.877938 7.897216
v 126.856049 7.665070 10.469810
v 125.304138 8.988088 10.133579
v 126.926636 7.510461 12.858866
v 119.275970 12.189631 16.463053
v 117.299889 12.851181 14.707058
v 122.610748 11.844517 14.236519
v 126.403717 9.372983 21.417467
v 118.620544 11.577242 19.421301
v 122.244568 10.491406 24.955120
v 119.302872 8.242041 7.171257
v 128.398743 6.294973 22.657215
v 122.752403 7.462540 17.718941
v 126.383911 7.582414 10.963696
v 122.327034 10.485497 -7.182528
v 128.978821 3.877928 -10.085508
v 127.253113 3.877929 -13.975012
v 126.892036 3.877929 -26.320381
v 119.408745 3.877928 -19.259636
v 126.014816 3.877929 -7.897213
v 126.856071 0.090795 -10.469810
v 125.304161 -1.232223 -10.133577
v 126.926651 0.245408 -12.858868
v 119.276001 -4.433779 -16.463055
v 117.299927 -5.095330 -14.707059
v 122.610779 -4.088652 -14.236520
v 126.403740 -1.617110 -21.417467
v 118.710342 -3.821378 -19.421301
v 122.656738 -2.735535 -24.955118
v 119.302895 -0.486170 -7.171256
v 128.398743 1.460895 -22.657217
v 122.752419 0.293338 -23.562260
v 122.742973 3.877929 -17.718941
v 126.383926 0.173467 -10.963696
v 122.327065 -2.729640 -13.438988
v 124.361984 3.877928 -7.897215
v 126.856071 7.665063 -10.469810
v 125.304161 8.988080 -10.133578
v 126.926651 7.510450 -12.858868
v 119.276009 12.189636 -16.463055
v 117.299927 12.851185 -14.707057
v 122.610779 11.844508 -14.236519
v 126.403732 9.372968 -21.417465
v 118.620575 11.577234 -19.421303
v 122.244598 10.491392 -24.955120
v 119.302895 8.242024 -7.171257
v 128.398743 6.294962 -22.657215
v 122.752419 7.462520 -17.718943
v 126.383926 7.582390 -10.963696
v 122.327065 10.485496 24.862398
v 111.471603 9.921516 25.157608
v 111.799202 -2.996684 22.199535
v 106.522995 -0.000713 22.141735
v 106.383698 7.115459 27.500561
v 116.102570 0.171631 27.502718
v 116.247849 7.315633 27.951004
v 103.527649 6.425805 28.163097
v 103.689011 0.200791 33.496895
v 112.201645 6.316315 30.966650
v 108.266724 -2.333901 45.882805
v 92.817688 5.221763 48.243683
v 96.572586 7.533292 45.628487
v 92.772888 -0.168937 50.570671
v 100.195770 5.665718 48.018124
v 96.520889 -3.080159 33.314514
v 112.026451 -0.120693 50.401741
v 100.354172 -0.967562 30.090916
v 108.673355 9.105544 30.373117
v 102.150139 6.105628 35.560162
v 110.960182 6.457335 34.247318
v 106.185600 9.184322 32.050011
v 107.508453 9.657253 35.417938
v 110.733475 -0.326732 33.236870
v 106.819939 -2.688272 30.489017
v 102.271477 0.026106 35.534706
v 98.521080 -0.470371 38.556599
v 103.308105 -3.362895 41.289894
v 107.472084 -0.948729 41.392410
v 107.434372 6.198529 38.484802
v 103.288559 8.860949 35.510120
v 98.520790 5.801570 -20.864515
v 120.952019 7.313699 -24.862396
v 111.471626 9.921523 -25.157608
v 111.799179 -2.996678 -22.199533
v 106.522980 -0.000686 -22.141733
v 106.383713 7.115483 -27.500559
v 116.102562 0.171622 -27.502720
v 116.247864 7.315621 -27.951004
v 103.527664 6.425824 -28.163101
v 103.689003 0.200811 -33.496895
v 112.201660 6.316309 -30.966646
v 108.266701 -2.333893 -45.882805
v 92.817688 5.221767 -48.243690
v 96.572586 7.533300 -45.628487
v 92.772888 -0.168931 -50.570679
v 100.195770 5.665727 -48.018120
v 96.520889 -3.080151 -33.314510
v 112.026451 -0.120698 -50.401737
v 100.354172 -0.967552 -30.090916
v 108.673370 9.105551 -30.373121
v 102.150139 6.105639 -35.560165
v 110.960182 6.457342 -34.247318
v 106.185600 9.184332 -32.050011
v 107.508469 9.657261 -35.417938
v 110.733475 -0.326724 -33.236866
v 106.819923 -2.688262 -30.489017
v 102.271469 0.026117 -35.534706
v 98.521080 -0.470365 -38.556591
v 103.308105 -3.362884 -41.289894
v 107.472084 -0.948718 -41.392410
v 107.434372 6.198539 -38.484802
v 103.288551 8.860958 -35.510120
v 98.520798 5.801578 9.053085
v 110.035355 -9.660730 10.817566
v 109.209213 -8.673884 11.996205
v 110.275185 -7.126740 11.705222
v 113.076668 -6.525797 8.467392
v 112.883690 -8.771894 12.338145
v 107.913246 -7.147179 11.950782
v 105.463516 -7.561131 10.190797
v 105.245483 -9.343674 9.490432
v 107.560448 -10.031392 7.007376
v 109.286339 -10.903635 8.988870
v 107.838898 -10.354893 8.369718
v 105.453072 -10.851919 6.005569
v 105.426003 -11.707842 5.163596
v 107.795105 -11.739805 5.081707
v 110.288879 -11.082623 8.832251
v 110.190140 -10.050975 8.988640
v 112.965675 -9.067295 5.238711
v 113.112610 -10.150521 0.000000
v 80.989372 -10.888687 -10.625179
v 77.528801 10.600492 -9.407537
v 81.988594 11.890350 -1.782534
v 76.738586 11.587500 -13.131775
v 81.669342 -6.882231 -16.269924
v 81.987396 -0.111899 -18.950069
v 65.866547 3.331569 -16.576221
v 65.993416 -7.060744 -9.703281
v 65.837776 -10.927856 -7.623816
v 79.330338 -9.809225 -2.867008
v 73.568901 9.521701 -4.157473
v 65.580292 11.154206 -15.723180
v 80.092163 6.307209 -1.239125
v 65.170959 1.776003 -2.128389
v 74.462692 -7.484015 -2.909638
v 65.464363 -7.226272 -13.150425
v 65.867111 10.986365 -9.779170
v 22.092623 -2.668082 -9.783367
v 22.091995 10.547867 -20.711885
v 22.094376 4.781183 -7.254712
v 22.091619 3.989392 -19.161491
v 22.093586 -2.289416 -17.201054
v 22.093689 10.735256 -4.623040
v 53.112976 -6.929673 -3.366098
v 48.745228 2.855591 -6.766572
v 50.074154 9.976334 -14.064682
v 50.654694 10.907386 -16.992340
v 54.092514 -6.317271 -19.169079
v 50.352375 3.655164 -11.570231
v 49.529289 -9.766903 -4.591232
v 48.955276 -6.639535 -17.580877
v 50.348061 -6.038718 -11.818769
v 45.793068 -7.758388 -17.540510
v 47.090183 -4.323291 -5.918478
v 46.084976 -5.258995 -20.669855
v 39.115196 4.019919 -15.545597
v 39.438499 11.665145 -7.938629
v 39.078903 11.944746 -4.566147
v 37.495201 3.546640 -10.978244
v 54.053528 -9.875503 -19.188805
v 52.904324 3.484911 -13.823901
v 52.577843 10.866642 -6.411166
v 52.103516 10.292153 -2.856370
v 51.724277 2.722667 -14.499200
v 22.093086 -4.422162 0.000001
v 74.371994 -8.022902 -1.047087
v 73.476112 0.744474 0.000000
v 73.629791 0.686631 -0.000000
v 81.839897 12.603213 -0.000001
v 75.121010 7.044061 10.625178
v 77.528801 10.600487 9.407537
v 81.988594 11.890343 1.782533
v 76.738586 11.587493 13.131775
v 81.669342 -6.882236 16.269924
v 81.987396 -0.111898 18.950069
v 65.866547 3.331562 16.576221
v 65.993416 -7.060750 9.703278
v 65.837776 -10.927863 7.623816
v 79.330338 -9.809230 2.867007
v 73.568901 9.521695 4.157473
v 65.580284 11.154200 15.723179
v 80.092163 6.307201 1.239125
v 65.170959 1.775996 2.128387
v 74.462692 -7.484020 2.909639
v 65.464363 -7.226276 13.150424
v 65.867111 10.986360 9.779169
v 22.092623 -2.668083 9.783366
v 22.091999 10.547866 20.711885
v 22.094376 4.781179 7.254711
v 22.091618 3.989386 19.161491
v 22.093588 -2.289418 17.201054
v 22.093689 10.735255 4.623039
v 53.112976 -6.929676 3.366097
v 48.745228 2.855583 6.766572
v 50.074154 9.976330 14.064683
v 50.654694 10.907379 16.992340
v 54.092514 -6.317276 19.169081
v 50.352375 3.655158 11.570232
v 49.529289 -9.766908 4.591231
v 48.955276 -6.639539 17.580879
v 50.348057 -6.038723 11.818769
v 45.793068 -7.758392 17.540512
v 47.090183 -4.323295 5.918479
v 46.084976 -5.259000 20.669855
v 39.115196 4.019915 15.545597
v 39.438499 11.665143 7.938629
v 39.078903 11.944742 4.566146
v 37.495201 3.546633 10.978242
v 54.053528 -9.875507 19.188805
v 52.904324 3.484907 13.823899
v 52.577843 10.866637 6.411165
v 52.103516 10.292148 2.856368
v 51.724274 2.722658 14.499198
v 22.093086 -4.422164 1.047089
v 73.476112 0.744467 0.000000
v 91.242584 -12.001404 9.737556
v 91.371040 -8.612566 12.605231
v 89.780830 6.989069 12.400499
v 88.459297 -7.181465 6.646837
v 88.947968 -12.353725 14.843592
v 89.014008 0.216253 -0.000001
v 101.781158 10.324516 8.531588
v 100.689011 8.199336 -0.000001
v 95.253365 11.885720 10.320132
v 85.120354 14.545033 -0.000000
v 85.365204 16.863522 8.705349
v 94.960808 9.888058 13.075865
v 95.509117 3.507474 14.602934
v 85.622810 8.818453 12.121106
v 101.358017 -0.202770 9.468081
v 54.505894 21.436176 10.494899
v 71.951080 19.238871 16.778082
v 75.623039 11.988451 18.184978
v 63.638115 14.265776 0.000000
v 71.109344 20.786310 -0.000000
v 52.976395 22.212559 -8.531588
v 100.689011 8.199345 -10.320133
v 85.120354 14.545041 -8.705349
v 94.960808 9.888067 -14.602934
v 85.622810 8.818461 -13.075865
v 95.509117 3.507484 -12.121107
v 101.358017 -0.202772 -9.468081
v 54.505898 21.436182 -18.184982
v 63.638115 14.265779 -16.778082
v 75.623039 11.988456 -10.494899
v 71.951080 19.238878 -9.958264
v 91.362999 -8.324432 -13.551758
v 88.411682 7.133267 -12.216326
v 87.954353 -8.006527 -6.736273
v 88.578911 -10.588400 -14.920053
v 88.570251 -0.455162 6.498993
v 128.549469 4.849349 0.751060
v 125.093254 -3.802714 -0.000001
v 129.418121 8.871730 6.130350
v 126.640450 -0.766875 -6.498993
v 128.548340 4.854867 -0.751058
v 125.093254 -3.802704 -6.130350
v 126.642593 -0.762461 -0.000001
v 101.781158 10.431767 8.531587
v 100.689011 8.306586 -0.000001
v 95.253365 11.992970 10.320133
v 85.120354 14.652283 0.000001
v 85.365204 16.970772 8.705348
v 94.960815 9.995308 9.468081
v 54.505894 21.543427 12.121107
v 101.358017 -0.095502 14.602932
v 85.622810 8.925704 13.075863
v 95.509117 3.614726 18.184980
v 63.638115 14.373024 10.494899
v 71.951080 19.346123 0.000001
v 71.109344 20.893560 16.778082
v 75.623039 12.095697 -8.531587
v 100.689011 8.306595 -10.320133
v 85.120354 14.652289 -8.705349
v 94.960815 9.995317 -9.468081
v 54.505886 21.543432 -0.000000
v 52.976395 22.319809 -12.121107
v 101.358017 -0.095494 -14.602934
v 85.622810 8.925710 -13.075865
v 95.509117 3.614733 -18.184982
v 63.638115 14.373030 -10.494897
v 71.951080 19.346127 -16.778082
v 75.623039 12.095705 8.852867
v 95.517311 -7.785438 11.821107
v 95.615585 -0.142095 8.847213
v 100.374992 -7.852657 8.852867
v 95.517311 -7.785438 14.648077
v 109.553444 7.800883 16.742439
v 109.494446 7.398659 12.121107
v 101.358017 -0.095502 14.648077
v 109.553444 7.800883 -0.000001
v 108.118980 11.901208 9.799938
v 108.633987 10.665888 7.382107
v 107.280975 -10.205549 14.648077
v 109.553444 7.800883 9.799938
v 108.633987 10.665888 7.382107
v 107.280975 -10.205549 7.038145
v 115.216003 -7.919838 7.382107
v 107.280975 -10.205549 11.028207
v 107.776001 -6.823948 0.000000
v 107.179993 -11.591767 6.105300
v 119.864433 -5.031331 5.975299
v 123.240097 -0.376238 4.686275
v 126.551712 -0.592375 -0.000001
v 129.225983 7.667767 0.000000
v 122.312828 -2.983299 11.028207
v 107.776001 -6.823948 8.852867
v 95.517311 -7.785438 -0.000000
v 95.607491 -10.851810 9.520350
v 91.332588 -7.719075 11.821107
v 95.615585 -0.142095 -0.000000
v 96.033661 9.986601 8.705344
v 95.903885 7.971810 0.000001
v 125.412018 -3.257095 4.864510
v 128.349518 4.715744 8.909031
v 92.419693 7.857961 12.826533
v 91.860161 -0.145836 -0.000001
v 92.554398 9.789900 9.520350
v 91.332588 -7.719075 -0.000000
v 91.124298 -10.698397 -0.000001
v 101.781158 10.431767 -0.000000
v 96.033661 9.986601 -8.852868
v 95.517311 -7.785429 -11.821107
v 95.615585 -0.142095 -0.000000
v 91.124298 -10.698397 -0.000000
v 95.607491 -10.851810 0.000000
v 101.190109 -10.959795 -0.000001
v 92.554398 9.789900 -0.000001
v 108.118980 11.901208 -14.648077
v 109.550728 7.797100 -16.742441
v 109.492706 7.396174 -14.648077
v 109.550728 7.797100 -12.121107
v 101.358017 -0.095494 -0.000001
v 108.118980 11.901208 -9.799936
v 108.633980 10.665900 -7.382106
v 107.280975 -10.205540 -14.648077
v 109.550728 7.797100 -9.799936
v 108.633980 10.665900 -0.000000
v 115.153000 -9.169786 0.000000
v 107.179993 -11.591767 -7.382106
v 107.280975 -10.205540 -11.028206
v 107.776001 -6.823943 0.000000
v 107.179993 -11.591767 0.000000
v 116.402000 12.206094 -0.000000
v 122.649261 10.564011 -0.000000
v 119.333488 -6.332216 0.000000
v 122.312828 -2.983299 -0.000000
v 126.244965 8.761606 -4.686274
v 126.553749 -0.588195 -0.000001
v 129.225983 7.667767 -0.000001
v 129.225983 7.667767 -0.000001
v 133.221436 6.875799 0.000002
v 128.726074 -3.807348 0.000001
v 125.412018 -3.257095 -11.028206
v 107.776001 -6.823943 -0.000000
v 95.607491 -10.851810 -11.821107
v 95.615585 -0.142095 -0.000000
v 96.033661 9.986601 -8.705344
v 95.903885 7.971819 0.000001
v 125.412018 -3.257095 -4.864508
v 128.348450 4.720944 -8.909029
v 92.419701 7.857969 -12.826533
v 91.860161 -0.145836 -0.000001
v 92.554398 9.789900 -0.000000
v 88.115349 11.654869 -9.520349
v 91.332588 -7.719068 -0.000000
v 86.365921 -10.478778 -0.000000
v 91.124298 -10.698397 7.587762
v 113.324532 -10.252443 9.899524
v 116.865891 -7.714117 9.606424
v 114.548775 -9.006691 5.733647
v 119.503197 -7.601152 8.295367
v 118.917473 -7.131964 7.330674
v 112.929977 -9.568195 8.038278
v 118.522987 -6.447668 5.476554
v 119.108719 -6.916860 9.349336
v 114.154221 -8.322440 9.642434
v 116.471344 -7.029866 7.330674
v 112.929977 -9.568195 7.587762
v 113.324532 -10.252443 5.733647
v 119.503197 -7.601152 5.476554
v 119.108719 -6.916860 3.421887
v 115.962952 -10.139409 7.587762
v 113.324532 -10.252443 5.026042
v 113.910301 -10.721633 5.733647
v 119.503197 -7.601152 3.714986
v 118.280060 -8.846836 3.457895
v 117.885513 -8.162586 7.330674
v 112.929977 -9.568195 5.476554
v 119.108719 -6.916860 4.768952
v 113.515747 -10.037383 3.164794
v 115.568398 -9.455161 3.724657
v 109.409500 -11.391314 7.897215
v 126.856087 0.090801 10.469810
v 125.304176 -1.232216 12.858867
v 119.276031 -4.433787 16.463053
v 117.299957 -5.095336 10.963697
v 122.327087 -2.729641 21.417465
v 118.710365 -3.821372 24.955116
v 119.302902 -0.486155 26.320383
v 119.408745 3.877946 7.171257
v 128.398743 1.460904 7.182528
v 128.978821 3.877940 7.897216
v 126.856049 7.665070 10.469810
v 125.304138 8.988088 12.858866
v 119.275970 12.189631 16.463053
v 117.299889 12.851181 10.963696
v 122.327034 10.485497 21.417467
v 118.620544 11.577242 24.955120
v 119.302872 8.242041 7.171257
v 128.398743 6.294973 -10.469810
v 125.304161 -1.232223 -7.897213
v 126.856071 0.090795 -16.463055
v 117.299927 -5.095330 -12.858868
v 119.276001 -4.433779 -10.963696
v 122.327065 -2.729640 -21.417467
v 118.710342 -3.821378 -26.320381
v 119.408745 3.877928 -24.955118
v 119.302895 -0.486170 -7.171256
v 128.398743 1.460895 -7.182528
v 128.978821 3.877928 -10.469810
v 125.304161 8.988080 -7.897215
v 126.856071 7.665063 -16.463055
v 117.299927 12.851185 -12.858868
v 119.276009 12.189636 -10.963696
v 122.327065 10.485496 -21.417465
v 118.620575 11.577234 -24.955120
v 119.302895 8.242024 -7.171257
v 128.398743 6.294962 16.742439
v 109.494446 7.398659 15.498000
v 109.579376 0.065688 18.683441
v 116.597778 9.942129 22.141735
v 106.383698 7.115459 16.742439
v 109.494446 7.398659 18.288662
v 115.977386 -2.296584 20.745731
v 120.881065 0.615248 20.864517
v 120.952866 7.312663 24.862398
v 111.471603 9.921516 22.141735
v 106.383698 7.115459 27.951004
v 103.527649 6.425805 22.141735
v 106.383698 7.115459 22.199535
v 106.522995 -0.000713 27.502718
v 116.247849 7.315633 27.500561
v 116.102570 0.171631 25.157608
v 111.799202 -2.996684 45.882805
v 92.817688 5.221763 35.510120
v 98.520790 5.801570 30.373117
v 102.150139 6.105628 -16.538586
v 122.546600 8.618311 -18.683441
v 116.593689 9.942572 -16.785755
v 123.555046 4.476824 -20.745729
v 120.881493 0.616265 -16.742441
v 109.492706 7.396174 -15.498001
v 109.580475 0.063126 -18.683441
v 116.593689 9.942572 -22.141733
v 106.383713 7.115483 -16.742441
v 109.492706 7.396174 -18.288666
v 115.980423 -2.296532 -20.745729
v 120.881493 0.616265 -20.864515
v 120.952019 7.313699 -24.862396
v 111.471626 9.921523 -22.141733
v 106.383713 7.115483 -22.141733
v 106.383713 7.115483 -27.951004
v 103.527664 6.425824 -22.199533
v 106.522980 -0.000686 -27.502720
v 116.247864 7.315621 -27.500559
v 116.102562 0.171622 -25.157608
v 111.799179 -2.996678 -35.510120
v 98.520798 5.801578 -45.882805
v 92.817688 5.221767 -30.373121
v 102.150139 6.105639 10.817566
v 109.209213 -8.673884 7.007376
v 109.286339 -10.903635 -1.047087
v 73.476112 0.744474 0.000000
v 73.629791 0.686631 -1.047087
v 73.476112 0.744474 -1.239125
v 65.170959 1.776003 -1.047087
v 73.476112 0.744474 0.000001
v 74.371994 -8.022902 -0.000001
v 75.121010 7.044061 -0.000000
v 88.115349 11.654869 -8.338614
v 88.028687 10.940006 -14.598042
v 87.234268 0.058470 -12.104908
v 86.701347 -5.962299 -7.266060
v 86.450867 -8.965388 -13.338632
v 87.638092 6.541628 -0.000000
v 86.365921 -10.478778 -2.856370
v 51.724277 2.722667 -3.366098
v 48.745228 2.855591 -4.566147
v 37.495201 3.546640 -7.254712
v 22.091619 3.989392 0.000000
v 73.629791 0.686631 -0.000001
v 75.121010 7.044061 1.047089
v 73.476112 0.744467 0.000000
v 73.629791 0.686631 0.000001
v 74.371994 -8.022902 1.047089
v 73.476112 0.744467 1.239125
v 65.170959 1.775996 1.047089
v 73.476112 0.744467 0.000001
v 74.371994 -8.022902 0.000000
v 80.989372 -10.888687 -0.000001
v 75.121010 7.044061 8.338614
v 88.028694 10.939999 -0.000000
v 88.115349 11.654869 -0.000000
v 81.839897 12.603213 12.104907
v 86.701347 -5.962309 14.598042
v 87.234268 0.058468 7.266061
v 86.450867 -8.965395 13.338632
v 87.638092 6.541620 -0.000000
v 86.365921 -10.478778 2.856368
v 51.724274 2.722658 3.366097
v 48.745228 2.855583 4.566146
v 37.495201 3.546633 7.254711
v 22.091618 3.989386 -0.000000
v 95.607491 -10.851810 8.852867
v 95.517311 -7.785438 9.737556
v 91.371040 -8.612566 8.852867
v 95.517311 -7.785438 12.826533
v 91.860161 -0.145836 12.826533
v 91.860161 -0.145836 8.909031
v 92.419693 7.857961 9.737556
v 91.371040 -8.612566 0.000000
v 91.242584 -12.001404 -0.000001
v 101.781158 10.324516 -0.000001
v 95.253365 11.885720 -0.000000
v 85.365204 16.863522 0.000000
v 71.109344 20.786310 -0.000000
v 52.976395 22.212559 0.000000
v 91.242584 -12.001404 -0.000000
v 95.607491 -10.851810 -8.852868
v 95.517311 -7.785429 -12.826533
v 91.860161 -0.145836 -12.826533
v 91.860161 -0.145836 -8.909029
v 92.419701 7.857969 -9.958264
v 91.362999 -8.324432 0.000000
v 91.242584 -12.001404 6.621323
v 125.463631 5.728318 -0.000000
v 126.244965 8.761606 0.000000
v 122.312828 -2.983299 5.975299
v 123.240097 -0.376238 -6.621322
v 125.461975 5.732142 -0.000000
v 126.244965 8.761606 -0.000001
v 129.418121 8.871730 0.000000
v 122.312828 -2.983299 -5.975298
v 123.242012 -0.373730 -0.000001
v 101.781158 10.431767 -0.000001
v 95.253365 11.992970 0.000001
v 85.365204 16.970772 0.000001
v 71.109344 20.893560 -0.000000
v 52.976395 22.319809 0.617956

vt 0.822469 0.757400
vt 0.731718 0.932303
vt 0.389410 0.338381
vt 0.042867 0.812050
vt 0.660791 0.800615
vt 0.949825 0.695571
vt 0.050553 0.997208
vt 0.422165 0.426462
vt 0.939611 0.480913
vt 0.927627 0.800576
vt 0.086964 0.715462
vt 0.079652 0.617782
vt 0.754892 0.752361
vt 0.383717 0.737460
vt 0.521822 0.767130
vt 0.182264 0.713739
vt 0.591376 0.740846
vt 0.296652 0.680655
vt 0.499068 0.748532
vt 0.462987 0.614897
vt 0.609705 0.666117
vt 0.566404 0.629327
vt 0.551971 0.664897
vt 0.226795 0.692686
vt 0.394269 0.652300
vt 0.317663 0.627333
vt 0.478152 0.685781
vt 0.449920 0.634354
vt 0.399196 0.830149
vt 0.266622 0.485977
vt 0.638044 0.847409
vt 0.327313 0.812505
vt 0.395700 0.796428
vt 0.476308 0.808051
vt 0.556371 0.694094
vt 0.311248 0.668077
vt 0.669588 0.926871
vt 0.943307 0.865308
vt 0.952708 0.802325
vt 0.014048 0.718577
vt 0.013972 0.425436
vt 0.983432 0.859224
vt 0.997412 0.886802
vt 0.494809 0.407927
vt 0.058537 0.682505
vt 0.201491 0.626412
vt 0.639412 0.624637
vt 0.057921 0.462087
vt 0.063956 0.525244
vt 0.065346 0.577821
vt 0.063725 0.891932
vt 0.578546 0.369533
vt 0.947761 0.402168
vt 0.718858 0.859746
vt 0.609951 0.996049
vt 0.942763 0.922808
vt 0.559499 0.910198
vt 0.431750 0.408548
vt 0.545766 0.698728
vt 0.811398 0.395931
vt 0.769896 0.912345
vt 0.517058 0.648616
vt 0.890196 0.406560
vt 0.630908 0.455863
vt 0.871113 0.843210
vt 0.498256 0.535850
vt 0.927018 0.426462
vt 0.939611 0.480913
vt 0.927627 0.800576
vt 0.086964 0.715462
vt 0.079652 0.617782
vt 0.754892 0.752361
vt 0.383717 0.737460
vt 0.521822 0.767130
vt 0.182264 0.713739
vt 0.591376 0.740846
vt 0.296652 0.680655
vt 0.499068 0.748532
vt 0.462987 0.614897
vt 0.609705 0.666117
vt 0.566404 0.629327
vt 0.551971 0.664897
vt 0.226795 0.692686
vt 0.394269 0.652300
vt 0.317663 0.685781
vt 0.449920 0.634354
vt 0.399196 0.830149
vt 0.266622 0.827871
vt 0.170764 0.847409
vt 0.327313 0.812505
vt 0.395700 0.796428
vt 0.476308 0.808051
vt 0.556371 0.694094
vt 0.311248 0.668077
vt 0.669588 0.926871
vt 0.943307 0.865308
vt 0.952708 0.802325
vt 0.014048 0.718577
vt 0.013972 0.425436
vt 0.983432 0.859224
vt 0.997412 0.886802
vt 0.494809 0.407927
vt 0.058537 0.682505
vt 0.201491 0.626412
vt 0.639412 0.624637
vt 0.057921 0.462087
vt 0.063956 0.525244
vt 0.065346 0.577821
vt 0.063725 0.857985
vt 0.403833 0.843210
vt 0.498256 0.696466
vt 0.955919 0.654983
vt 0.955977 0.613500
vt 0.956037 0.779431
vt 0.955810 0.737949
vt 0.955864 0.696510
vt 0.988438 0.655029
vt 0.988496 0.613547
vt 0.988556 0.779473
vt 0.988329 0.737992
vt 0.988382 0.696466
vt 0.955919 0.654983
vt 0.955977 0.737949
vt 0.955864 0.696510
vt 0.988438 0.655029
vt 0.988496 0.737992
vt 0.988382 0.494719
vt 0.414646 0.453916
vt 0.385455 0.469070
vt 0.337629 0.519238
vt 0.337261 0.535090
vt 0.384861 0.459957
vt 0.205001 0.364146
vt 0.215102 0.362719
vt 0.286104 0.459798
vt 0.280019 0.935807
vt 0.924014 0.962684
vt 0.864721 0.983098
vt 0.812167 0.969024
vt 0.608185 0.993768
vt 0.735168 0.899421
vt 0.873047 0.886992
vt 0.831842 0.915946
vt 0.847125 0.801889
vt 0.770701 0.808114
vt 0.714984 0.865253
vt 0.757709 0.917492
vt 0.791237 0.846626
vt 0.654800 0.899489
vt 0.705142 0.907620
vt 0.622441 0.906876
vt 0.902212 0.942194
vt 0.676858 0.985025
vt 0.661369 0.945816
vt 0.754909 0.845540
vt 0.807185 0.543030
vt 0.860275 0.899421
vt 0.873047 0.886992
vt 0.831842 0.915946
vt 0.847125 0.801889
vt 0.770701 0.808114
vt 0.714984 0.865253
vt 0.757709 0.917492
vt 0.791237 0.846626
vt 0.654800 0.899489
vt 0.705142 0.907620
vt 0.622441 0.906876
vt 0.902212 0.942194
vt 0.676858 0.945816
vt 0.754909 0.845540
vt 0.807185 0.935807
vt 0.924014 0.962684
vt 0.864721 0.983098
vt 0.812167 0.969024
vt 0.608185 0.993768
vt 0.735168 0.899421
vt 0.873047 0.886992
vt 0.831842 0.915946
vt 0.847125 0.801889
vt 0.770701 0.808114
vt 0.714984 0.865253
vt 0.757709 0.917492
vt 0.791237 0.846626
vt 0.654800 0.899489
vt 0.705142 0.907620
vt 0.622441 0.906876
vt 0.902212 0.942194
vt 0.676858 0.985025
vt 0.661369 0.945816
vt 0.754909 0.845540
vt 0.807185 0.543030
vt 0.860275 0.899421
vt 0.873047 0.886992
vt 0.831842 0.915946
vt 0.847125 0.801889
vt 0.770701 0.808114
vt 0.714984 0.865253
vt 0.757709 0.917492
vt 0.791237 0.846626
vt 0.654800 0.899489
vt 0.705142 0.907620
vt 0.622441 0.906876
vt 0.902212 0.942194
vt 0.676858 0.945816
vt 0.754909 0.845540
vt 0.807185 0.539926
vt 0.537786 0.547632
vt 0.330598 0.540925
vt 0.269776 0.507794
vt 0.204824 0.545180
vt 0.395138 0.543132
vt 0.471106 0.009287
vt 0.210513 0.276511
vt 0.210758 0.112022
vt 0.210916 0.222001
vt 0.210911 0.014011
vt 0.008224 0.061680
vt 0.008429 0.271158
vt 0.008392 0.106932
vt 0.008464 0.219161
vt 0.008428 0.171166
vt 0.210973 0.171057
vt 0.008502 0.058493
vt 0.219265 0.010647
vt 0.183462 0.112563
vt 0.183825 0.062776
vt 0.174367 0.060785
vt 0.197899 0.171769
vt 0.183834 0.221209
vt 0.183687 0.274549
vt 0.183576 0.270891
vt 0.117390 0.220945
vt 0.117431 0.173602
vt 0.117471 0.112894
vt 0.117563 0.063961
vt 0.117582 0.012186
vt 0.117301 0.627333
vt 0.478152 0.539926
vt 0.537786 0.547632
vt 0.330598 0.540925
vt 0.269776 0.507794
vt 0.204824 0.545180
vt 0.395138 0.543132
vt 0.471106 0.009287
vt 0.210513 0.276511
vt 0.210758 0.112022
vt 0.210916 0.222001
vt 0.210911 0.014011
vt 0.008224 0.061680
vt 0.008429 0.271158
vt 0.008392 0.106932
vt 0.008464 0.219161
vt 0.008428 0.171166
vt 0.210973 0.171057
vt 0.008502 0.058493
vt 0.219265 0.010647
vt 0.183462 0.112563
vt 0.183825 0.062776
vt 0.174367 0.060785
vt 0.197899 0.171769
vt 0.183834 0.221209
vt 0.183687 0.274549
vt 0.183576 0.270891
vt 0.117390 0.220945
vt 0.117431 0.173602
vt 0.117471 0.112894
vt 0.117563 0.063961
vt 0.117582 0.012186
vt 0.117301 0.459957
vt 0.205001 0.411083
vt 0.182310 0.364146
vt 0.215102 0.362719
vt 0.286104 0.459798
vt 0.280019 0.453916
vt 0.385455 0.469070
vt 0.337629 0.519238
vt 0.337261 0.535090
vt 0.384861 0.494719
vt 0.414646 0.453916
vt 0.385455 0.469070
vt 0.337629 0.519238
vt 0.337261 0.535090
vt 0.384861 0.459957
vt 0.205001 0.364146
vt 0.215102 0.362719
vt 0.286104 0.459798
vt 0.280019 0.053763
vt 0.946138 0.271347
vt 0.908466 0.278413
vt 0.943566 0.326531
vt 0.920879 0.151379
vt 0.944695 0.193842
vt 0.940630 0.211496
vt 0.800219 0.152156
vt 0.800251 0.108018
vt 0.800214 0.108141
vt 0.937596 0.325396
vt 0.887728 0.317323
vt 0.800104 0.234957
vt 0.934142 0.019774
vt 0.799800 0.055726
vt 0.904178 0.066345
vt 0.800059 0.266097
vt 0.800186 0.087474
vt 0.501204 0.308327
vt 0.501051 0.207750
vt 0.500789 0.037801
vt 0.500802 0.154972
vt 0.500978 0.256411
vt 0.500784 0.071998
vt 0.710533 0.027332
vt 0.669392 0.311283
vt 0.680949 0.262327
vt 0.681118 0.151753
vt 0.717352 0.207165
vt 0.681301 0.113558
vt 0.691121 0.075452
vt 0.685722 0.154291
vt 0.691418 0.115570
vt 0.663440 0.155445
vt 0.666866 0.078048
vt 0.664386 0.207643
vt 0.603194 0.260299
vt 0.604948 0.308118
vt 0.605866 0.031709
vt 0.594900 0.111286
vt 0.716170 0.208351
vt 0.702523 0.263325
vt 0.698435 0.311427
vt 0.696830 0.363596
vt 0.693821 0.122854
vt 0.501173 0.040580
vt 0.916453 0.381070
vt 0.893232 0.386067
vt 0.902865 0.334714
vt 0.947708 0.351670
vt 0.911861 0.271347
vt 0.908466 0.278413
vt 0.943566 0.326531
vt 0.920879 0.151379
vt 0.944695 0.193842
vt 0.940630 0.211496
vt 0.800219 0.152156
vt 0.800251 0.108018
vt 0.800214 0.108141
vt 0.937596 0.325396
vt 0.887728 0.317323
vt 0.800104 0.234957
vt 0.934142 0.019774
vt 0.799800 0.055726
vt 0.904178 0.066345
vt 0.800059 0.266097
vt 0.800186 0.087474
vt 0.501204 0.308327
vt 0.501051 0.207750
vt 0.500789 0.037801
vt 0.500802 0.154972
vt 0.500978 0.256411
vt 0.500784 0.071998
vt 0.710533 0.027332
vt 0.669392 0.311283
vt 0.680949 0.262327
vt 0.681118 0.151753
vt 0.717352 0.207165
vt 0.681301 0.113558
vt 0.691121 0.075452
vt 0.685722 0.154291
vt 0.691418 0.115570
vt 0.663440 0.155445
vt 0.666866 0.078048
vt 0.664386 0.207643
vt 0.603194 0.260299
vt 0.604948 0.308118
vt 0.605866 0.031709
vt 0.594900 0.111286
vt 0.716170 0.208351
vt 0.702523 0.263325
vt 0.698435 0.311427
vt 0.696830 0.363596
vt 0.693821 0.122854
vt 0.501173 0.381070
vt 0.893232 0.907297
vt 0.430189 0.993963
vt 0.421048 0.577821
vt 0.063725 0.459541
vt 0.068003 0.404170
vt 0.046264 0.524702
vt 0.066986 0.571606
vt 0.154654 0.565750
vt 0.114449 0.540749
vt 0.157440 0.487958
vt 0.116830 0.489786
vt 0.164429 0.538231
vt 0.116063 0.546901
vt 0.080366 0.496243
vt 0.086077 0.577490
vt 0.073496 0.344724
vt 0.123864 0.424793
vt 0.121237 0.447665
vt 0.081422 0.391539
vt 0.076270 0.420929
vt 0.168308 0.337081
vt 0.167459 0.565750
vt 0.114449 0.487958
vt 0.116830 0.538231
vt 0.116063 0.496243
vt 0.086077 0.546901
vt 0.080366 0.577490
vt 0.073496 0.344724
vt 0.123864 0.391539
vt 0.076270 0.447665
vt 0.081422 0.424793
vt 0.121237 0.535850
vt 0.927018 0.577821
vt 0.063725 0.461992
vt 0.064957 0.409864
vt 0.049368 0.525244
vt 0.065346 0.994009
vt 0.221571 0.993729
vt 0.020162 0.994022
vt 0.333125 0.994302
vt 0.138098 0.994009
vt 0.221571 0.993729
vt 0.020162 0.994302
vt 0.138098 0.451431
vt 0.458498 0.440243
vt 0.381682 0.392478
vt 0.463819 0.291617
vt 0.386230 0.295109
vt 0.477173 0.387666
vt 0.384766 0.017958
vt 0.399670 0.462675
vt 0.303438 0.307445
vt 0.327475 0.404232
vt 0.316565 0.107401
vt 0.308738 0.170935
vt 0.394651 0.163553
vt 0.484583 0.214635
vt 0.318582 0.440243
vt 0.381682 0.291617
vt 0.386230 0.387666
vt 0.384766 0.017958
vt 0.399670 0.003356
vt 0.482962 0.462675
vt 0.303438 0.307445
vt 0.327475 0.404232
vt 0.316565 0.107401
vt 0.308738 0.170935
vt 0.394651 0.214635
vt 0.318582 0.533354
vt 0.983285 0.479793
vt 0.980722 0.513273
vt 0.554244 0.511523
vt 0.481328 0.599120
vt 0.136477 0.581753
vt 0.164261 0.519079
vt 0.726618 0.626412
vt 0.639412 0.757400
vt 0.731718 0.668077
vt 0.669588 0.827871
vt 0.170764 0.626412
vt 0.639412 0.668077
vt 0.669588 0.485977
vt 0.638044 0.483699
vt 0.733902 0.827871
vt 0.170764 0.767130
vt 0.182264 0.406560
vt 0.630908 0.466439
vt 0.794593 0.857985
vt 0.403833 0.895401
vt 0.428134 0.992700
vt 0.993091 0.931804
vt 0.355189 0.767130
vt 0.182264 0.997267
vt 0.507662 0.410152
vt 0.481484 0.535850
vt 0.927018 0.475023
vt 0.811637 0.369636
vt 0.991451 0.563307
vt 0.844492 0.800801
vt 0.991162 0.921773
vt 0.993018 0.602379
vt 0.015700 0.521606
vt 0.018544 0.687737
vt 0.007113 0.445388
vt 0.016202 0.353031
vt 0.007155 0.698728
vt 0.811398 0.648616
vt 0.890196 0.533354
vt 0.983285 0.479793
vt 0.980722 0.592839
vt 0.935827 0.588974
vt 0.991909 0.905300
vt 0.078486 0.369533
vt 0.947761 0.757400
vt 0.731718 0.599120
vt 0.136477 0.581753
vt 0.164261 0.626412
vt 0.639412 0.519079
vt 0.726618 0.757400
vt 0.731718 0.668077
vt 0.669588 0.827871
vt 0.170764 0.626412
vt 0.639412 0.668077
vt 0.669588 0.911680
vt 0.251578 0.907289
vt 0.163629 0.827871
vt 0.170764 0.767130
vt 0.182264 0.907289
vt 0.163629 0.812050
vt 0.660791 0.859746
vt 0.609951 0.917917
vt 0.302617 0.931804
vt 0.355189 0.891932
vt 0.578546 0.895401
vt 0.428134 0.922808
vt 0.559499 0.992700
vt 0.993091 0.996049
vt 0.942763 0.800615
vt 0.949825 0.932303
vt 0.389410 0.767130
vt 0.182264 0.903696
vt 0.014205 0.475023
vt 0.811637 0.369636
vt 0.991451 0.563307
vt 0.844492 0.800801
vt 0.991162 0.921773
vt 0.993018 0.602379
vt 0.015700 0.521606
vt 0.018544 0.687737
vt 0.007113 0.695571
vt 0.050553 0.445388
vt 0.016202 0.338381
vt 0.042867 0.353031
vt 0.007155 0.693423
vt 0.847429 0.784840
vt 0.938846 0.720199
vt 0.912071 0.876257
vt 0.847429 0.849482
vt 0.912071 0.693423
vt 0.847429 0.849482
vt 0.912071 0.876257
vt 0.847429 0.720199
vt 0.912071 0.784840
vt 0.938846 0.613547
vt 0.988556 0.613500
vt 0.956037 0.779431
vt 0.955810 0.779473
vt 0.988329 0.784840
vt 0.938846 0.693423
vt 0.847429 0.720199
vt 0.912071 0.876257
vt 0.847429 0.849482
vt 0.912071 0.849482
vt 0.912071 0.693423
vt 0.847429 0.876257
vt 0.847429 0.720199
vt 0.912071 0.784840
vt 0.938846 0.411083
vt 0.182310 0.566053
vt 0.887346 0.550644
vt 0.890664 0.539248
vt 0.907330 0.519550
vt 0.905701 0.545426
vt 0.898454 0.496016
vt 0.891789 0.483097
vt 0.868997 0.482848
vt 0.844290 0.577502
vt 0.882947 0.584369
vt 0.871169 0.566053
vt 0.887346 0.550644
vt 0.890664 0.539248
vt 0.907330 0.519550
vt 0.905701 0.545426
vt 0.898454 0.496016
vt 0.891789 0.483097
vt 0.868997 0.577502
vt 0.882947 0.550644
vt 0.890664 0.566053
vt 0.887346 0.519550
vt 0.905701 0.539248
vt 0.907330 0.545426
vt 0.898454 0.496016
vt 0.891789 0.482848
vt 0.844290 0.483097
vt 0.868997 0.577502
vt 0.882947 0.584369
vt 0.871169 0.550644
vt 0.890664 0.566053
vt 0.887346 0.519550
vt 0.905701 0.539248
vt 0.907330 0.545426
vt 0.898454 0.496016
vt 0.891789 0.483097
vt 0.868997 0.577502
vt 0.882947 0.581753
vt 0.164261 0.664897
vt 0.226795 0.629327
vt 0.551971 0.528852
vt 0.595594 0.614897
vt 0.609705 0.652300
vt 0.317663 0.634354
vt 0.399196 0.627333
vt 0.478152 0.051880
vt 0.287654 0.004777
vt 0.278448 0.329584
vt 0.210491 0.342597
vt 0.278205 0.282336
vt 0.295186 0.103368
vt 0.293827 0.167746
vt 0.296529 0.222766
vt 0.296926 0.323231
vt 0.008216 0.324809
vt 0.117372 0.325480
vt 0.183459 0.680655
vt 0.499068 0.629327
vt 0.551971 0.685781
vt 0.449920 0.634354
vt 0.399196 0.581753
vt 0.164261 0.664897
vt 0.226795 0.629327
vt 0.551971 0.528852
vt 0.595594 0.614897
vt 0.609705 0.652300
vt 0.317663 0.634354
vt 0.399196 0.627333
vt 0.478152 0.051880
vt 0.287654 0.004777
vt 0.278448 0.342597
vt 0.278205 0.329584
vt 0.210491 0.282336
vt 0.295186 0.103368
vt 0.293827 0.167746
vt 0.296529 0.222766
vt 0.296926 0.324809
vt 0.117372 0.323231
vt 0.008216 0.325480
vt 0.183459 0.494719
vt 0.414646 0.411083
vt 0.182310 0.011578
vt 0.892857 0.004625
vt 0.902575 0.011578
vt 0.892857 0.371231
vt 0.799844 0.381070
vt 0.893232 0.040580
vt 0.916453 0.351670
vt 0.911861 0.328985
vt 0.984098 0.279543
vt 0.994025 0.196119
vt 0.993975 0.152210
vt 0.994005 0.106869
vt 0.995127 0.240082
vt 0.993977 0.054071
vt 0.994658 0.026040
vt 0.689745 0.362725
vt 0.672524 0.360036
vt 0.595408 0.357128
vt 0.500961 0.386067
vt 0.902865 0.351670
vt 0.911861 0.011578
vt 0.892857 0.004625
vt 0.902575 0.040580
vt 0.916453 0.011578
vt 0.892857 0.371231
vt 0.799844 0.381070
vt 0.893232 0.040580
vt 0.916453 0.053763
vt 0.946138 0.351670
vt 0.911861 0.279543
vt 0.994025 0.328985
vt 0.984098 0.334714
vt 0.947708 0.152210
vt 0.994005 0.196119
vt 0.993975 0.106869
vt 0.995127 0.240082
vt 0.993977 0.054071
vt 0.994658 0.026040
vt 0.689745 0.362725
vt 0.672524 0.360036
vt 0.595408 0.357128
vt 0.500961 0.912345
vt 0.517058 0.997267
vt 0.507662 0.541050
vt 0.926744 0.533354
vt 0.983285 0.480913
vt 0.927627 0.521606
vt 0.018544 0.602379
vt 0.015700 0.440695
vt 0.018026 0.350182
vt 0.016224 0.571606
vt 0.154654 0.540749
vt 0.157440 0.489786
vt 0.164429 0.420929
vt 0.168308 0.337081
vt 0.167459 0.592839
vt 0.935827 0.588974
vt 0.991909 0.533354
vt 0.983285 0.480913
vt 0.927627 0.521606
vt 0.018544 0.602379
vt 0.015700 0.445388
vt 0.016202 0.353031
vt 0.007155 0.949491
vt 0.220207 0.949302
vt 0.333415 0.949033
vt 0.003424 0.949588
vt 0.128606 0.949491
vt 0.220207 0.949302
vt 0.333415 0.994022
vt 0.333125 0.949033
vt 0.003424 0.949588
vt 0.128606 0.451431
vt 0.458498 0.392478
vt 0.463819 0.295109
vt 0.477173 0.163553
vt 0.484583 0.003356
vt 0.482962 1.000000

f 112/112 118/118 113/113
f 118/118 112/112 117/117
f 113/113 119/119 114/114
f 119/119 113/113 118/118
f 115/115 121/121 116/116
f 121/121 115/115 120/120
f 116/116 117/117 112/112
f 117/117 116/116 121/121
f 122/122 126/126 125/125
f 126/126 122/122 123/123
f 123/123 546/546 126/126
f 546/546 123/123 547/547
f 548/548 127/127 549/549
f 127/127 548/548 124/124
f 124/124 125/125 127/127
f 125/125 124/124 122/122
f 537/537 538/538 539/539
f 537/537 536/536 540/540
f 537/537 539/539 550/550
f 551/551 552/552 550/550
f 553/553 551/551 554/554
f 553/553 550/550 130/130
f 128/128 129/129 131/131
f 128/128 130/130 132/132
f 128/128 131/131 142/142
f 144/144 143/143 137/137
f 138/138 144/144 143/143
f 148/148 156/156 144/144
f 148/148 143/143 138/138
f 139/139 148/148 147/147
f 148/148 150/150 140/140
f 140/140 151/151 155/155
f 148/148 139/139 152/152
f 152/152 137/137 151/151
f 149/149 150/150 151/151
f 150/150 153/153 147/147
f 146/146 145/145 153/153
f 141/141 154/154 148/148
f 155/155 150/150 139/139
f 153/153 150/150 155/155
f 141/141 153/153 147/147
f 145/145 156/156 148/148
f 147/147 156/156 158/158
f 159/159 160/160 137/137
f 160/160 138/138 159/159
f 171/171 164/164 160/160
f 159/159 164/164 138/138
f 164/164 139/139 163/163
f 166/166 164/164 140/140
f 140/140 154/154 170/170
f 139/139 164/164 160/160
f 160/160 137/137 167/167
f 166/166 165/165 167/167
f 169/169 166/166 163/163
f 161/161 162/162 169/169
f 154/154 141/141 164/164
f 166/166 170/170 139/139
f 166/166 169/169 170/170
f 169/169 141/141 163/163
f 171/171 161/161 164/164
f 171/171 163/163 178/178
f 173/173 172/172 191/191
f 174/174 173/173 183/183
f 174/174 179/179 182/182
f 182/182 181/181 185/185
f 183/183 182/182 175/175
f 175/175 189/189 174/174
f 183/183 190/190 187/187
f 187/187 177/177 185/185
f 184/184 186/186 188/188
f 185/185 186/186 180/180
f 181/181 182/182 189/189
f 176/176 188/188 185/185
f 176/176 174/174 185/185
f 176/176 190/190 191/191
f 180/180 182/182 191/191
f 182/182 183/183 195/195
f 194/194 193/193 173/173
f 195/195 172/172 199/199
f 206/206 194/194 199/199
f 194/194 195/195 174/174
f 195/195 173/173 174/174
f 199/199 195/195 198/198
f 198/198 201/201 199/199
f 201/201 198/198 175/175
f 175/175 202/202 199/199
f 174/174 205/205 195/195
f 195/195 193/193 200/200
f 204/204 202/202 197/197
f 196/196 198/198 176/176
f 189/189 204/204 205/205
f 201/201 199/199 176/176
f 205/205 174/174 204/204
f 201/201 205/205 176/176
f 204/204 205/205 196/196
f 206/206 199/199 276/276
f 639/639 275/275 277/277
f 639/639 276/276 278/278
f 639/639 277/277 281/281
f 279/279 280/280 282/282
f 279/279 281/281 283/283
