# MOD converted: e_m_costume_funky_body.mod
# 993 verts, 33 faces

v 103.616882 6.144735 28.232912
v 103.764069 0.468877 33.137093
v 111.676895 6.044771 30.670511
v 107.721130 -1.842295 45.325439
v 91.951035 5.579384 48.180389
v 96.584274 8.244448 45.123451
v 91.945770 -0.350791 50.724747
v 100.443726 6.024846 47.946121
v 96.530563 -3.382099 32.970810
v 111.517082 0.175582 50.506157
v 100.611008 -1.056507 29.871994
v 108.091873 8.632074 30.468084
v 102.176979 5.725008 35.256191
v 110.275978 6.032045 33.851299
v 105.701004 8.413520 31.771603
v 106.961990 8.656681 35.132008
v 110.078011 0.107746 32.968922
v 106.255051 -1.954430 30.569319
v 102.283020 0.415943 35.612404
v 98.507591 -0.413638 38.209148
v 102.814026 -3.251251 40.890602
v 106.898994 -0.882915 40.991173
v 106.862000 6.128672 38.138783
v 102.794868 8.740551 35.588295
v 98.507309 5.739240 21.852758
v 107.441887 0.432961 21.802063
v 107.319710 6.683226 24.239437
v 111.198776 9.147771 24.498764
v 111.486519 -2.198534 26.609619
v 115.197479 0.584260 26.625343
v 115.322060 6.859059 47.411949
v 91.027130 6.459885 50.588463
v 95.476303 8.530701 50.319702
v 95.415070 -6.038881 46.547733
v 89.752480 -3.448342 52.981499
v 99.427231 -1.611437 53.183052
v 99.238274 6.302534 46.905060
v 90.279526 0.648518 40.456879
v 95.229202 5.659294 43.077621
v 99.672272 -3.316675 45.857944
v 103.652840 6.076739 45.698372
v 103.754982 -0.969691 40.367943
v 95.226715 -0.382197 43.159592
v 99.689583 8.492499 0.000000
v 91.124313 -11.960590 0.000000
v 126.774025 8.681766 -0.000000
v 99.167564 10.378186 -0.000000
v 107.180298 -10.876203 -0.000000
v 115.153000 -9.002453 0.000001
v 81.033592 -12.136210 4.600049
v 73.190681 -11.829715 7.450915
v 91.332573 -10.248581 8.909035
v 92.419708 8.900562 13.551430
v 91.860001 -0.151335 23.595028
v 103.653748 -1.016867 23.536821
v 103.469574 8.108642 27.068888
v 109.035133 11.706919 27.409504
v 109.486656 -4.858898 30.331814
v 115.221619 -0.795965 30.338829
v 115.404778 8.365357 7.145751
v 123.341019 -0.287931 7.270495
v 125.979042 5.144214 7.174334
v 98.209358 -9.425102 12.854546
v 98.617065 -0.095602 8.531593
v 99.057678 8.306590 12.381108
v 119.917427 -0.057685 12.000811
v 120.859314 8.800932 11.164600
v 107.774521 -5.937839 10.554204
v 115.772217 11.532791 12.968097
v 109.414345 -0.029872 13.338780
v 108.748001 7.813668 12.403698
v 115.287750 -3.407249 17.226006
v 121.364326 8.601629 12.752416
v 123.241905 4.779776 15.642731
v 108.665710 7.409390 15.068596
v 115.177643 10.891476 18.071798
v 114.272209 10.898371 14.426595
v 108.995125 0.078133 17.157820
v 121.241722 0.007528 18.004608
v 114.407684 -2.825682 22.272219
v 119.890350 7.305948 17.698906
v 122.292168 4.457386 22.138628
v 119.842827 0.608546 7.038142
v 115.200081 -6.970541 7.382102
v 107.281311 -9.748079 5.107667
v 119.780571 -5.350381 8.725976
v 122.141701 -0.170016 9.319188
v 124.887444 4.992549 6.170483
v 122.470146 9.937168 15.461419
v 115.212738 -2.547770 9.714610
v 107.887154 10.670601 8.971197
v 88.028664 11.734085 13.334045
v 87.638046 6.541613 15.228755
v 87.234291 0.058397 13.097536
v 86.701271 -6.542734 7.749056
v 86.450874 -10.681775 10.402191
v 76.638428 -11.169047 17.090965
v 81.921974 0.003910 14.961170
v 80.347626 -6.654076 10.690463
v 77.755585 13.182770 15.750111
v 81.436279 6.511711 6.229086
v 127.609138 -2.079369 6.698404
v 130.936966 4.663491 4.795923
v 123.300423 -6.558450 0.000000
v 128.038422 10.027987 9.973279
v 123.815346 -1.229938 9.283544
v 127.079529 5.795606 8.954016
v 118.188103 -6.321709 6.229086
v 127.609138 -2.079369 6.698404
v 130.936966 4.663491 12.859986
v 115.472305 11.206023 12.799340
v 115.611649 11.150039 24.191624
v 110.870026 3.579064 12.252068
v 91.615883 -5.940090 11.195193
v 98.414108 -5.276437 7.850234
v 67.781105 -11.829712 11.983166
v 71.343857 -11.169044 18.403450
v 77.230240 -0.000810 16.403419
v 74.740814 -6.654075 11.528427
v 72.169250 13.701549 16.888090
v 75.816620 7.075520 0.000418
v 65.270546 14.593175 10.324714
v 99.057678 9.227769 15.695596
v 94.692703 -0.142311 11.157442
v 92.885643 10.149732 -0.000001
v 99.167564 11.138052 14.517721
v 98.617065 -0.095633 12.847984
v 98.209358 -7.100737 13.435783
v 90.601425 -7.339530 7.351697
v 87.091972 -12.102768 7.351696
v 98.046066 -11.587929 9.338026
v 115.777084 13.204084 9.714609
v 107.887825 12.151408 12.874139
v 121.827248 9.519096 9.319193
v 125.477440 4.986343 13.204010
v 124.038071 4.751726 16.041222
v 107.193825 -0.571835 12.375925
v 115.480118 -4.319757 12.713584
v 107.481895 -6.133726 7.038144
v 115.197441 -8.936693 12.717967
v 121.842690 -0.607853 6.904719
v 119.682564 -5.350525 7.382102
v 107.281311 -10.759778 8.168716
v 122.403137 11.045837 0.000001
v 116.084068 13.449369 8.725972
v 122.661873 -0.174353 7.270496
v 126.530670 5.634359 7.145751
v 123.341019 -0.287931 -0.000000
v 126.774025 9.292612 13.169609
v 115.752975 11.840379 -0.000000
v 115.153000 -8.612173 6.144638
v 119.654831 -4.208941 -0.000000
v 119.448990 -5.396771 5.519423
v 123.341019 -0.287932 -0.000000
v 122.202011 -2.804044 5.644172
v 125.979042 5.144211 9.315515
v 123.759224 4.996460 8.725976
v 121.660591 -0.168351 0.000000
v 126.774025 8.181260 5.446899
v 132.238007 4.085740 4.901291
v 130.073013 -1.004880 0.000001
v 128.725998 -3.807340 16.095184
v 106.481575 8.118946 15.401347
v 115.487816 -3.195742 16.464653
v 121.420830 -0.602191 15.827299
v 115.751480 11.454222 16.620827
v 121.532867 9.069428 17.240227
v 123.059578 4.757662 -8.531592
v 99.057678 8.306589 -13.551430
v 91.860001 -0.151336 -8.909033
v 92.419708 8.900562 -0.000001
v 92.554398 11.256149 -11.195189
v 98.414108 -5.276445 -7.174328
v 98.209358 -9.425105 -7.450914
v 91.332581 -10.248583 -12.252064
v 91.615883 -5.940097 0.000000
v 98.046066 -11.534624 -12.854546
v 98.617065 -0.095603 -7.382102
v 107.281311 -9.748078 -12.000806
v 120.834389 8.814992 -9.319183
v 124.879776 5.016521 -12.752402
v 123.233986 4.804124 -18.071804
v 114.256874 10.895287 -15.642731
v 108.654274 7.390423 -15.068602
v 115.147125 10.886116 -13.338782
v 108.734344 7.791675 -12.968092
v 109.422569 -0.050306 -14.426595
v 109.003044 0.057488 -12.403696
v 115.312317 -3.414472 -11.164601
v 107.774513 -5.937842 -17.698902
v 122.286873 4.477299 -17.157801
v 121.251411 0.023720 -12.381103
v 119.929871 -0.046990 -17.226002
v 121.345200 8.618221 -15.461427
v 115.230980 -2.552010 -7.038143
v 115.213356 -6.974744 -9.714602
v 107.883698 10.666349 -12.859987
v 115.440636 11.199890 -12.799335
v 115.582787 11.144842 -5.107665
v 119.784569 -5.349995 -18.004608
v 114.418617 -2.828526 -22.138615
v 119.846489 0.615861 -22.272224
v 119.883286 7.313370 -6.170480
v 122.457329 9.943708 -23.536823
v 103.469696 8.108768 -23.595028
v 103.653656 -1.016734 -27.068920
v 109.035362 11.706918 -27.409492
v 109.486458 -4.858902 -30.331816
v 115.221527 -0.796097 -30.338818
v 115.404915 8.365217 -8.725970
v 122.152893 -0.156004 -7.270496
v 125.979042 5.144214 -7.145749
v 123.341019 -0.287935 0.000000
v 122.281998 10.661640 -13.334043
v 87.638046 6.541617 -8.971198
v 88.028664 11.734092 -0.000000
v 88.115341 12.369739 -13.097534
v 86.701271 -6.542734 -7.749060
v 86.450874 -10.681775 -15.228755
v 87.234291 0.058399 0.000000
v 86.365944 -12.195159 -10.402188
v 76.638428 -11.169052 -4.600047
v 73.190681 -11.829715 -10.690464
v 77.755592 13.182769 0.000201
v 74.168495 14.594092 -17.090965
v 81.921951 0.003776 -14.961173
v 80.347626 -6.654074 -15.750111
v 81.436279 6.511708 -6.229087
v 127.609138 -2.079367 -6.698404
v 130.936966 4.663493 -4.795923
v 123.305038 -6.556468 -8.954018
v 118.200562 -6.322028 -9.973270
v 123.830383 -1.210032 -6.229087
v 127.609138 -2.079367 -9.283543
v 127.079483 5.795607 -6.698404
v 130.936966 4.663493 -0.000001
v 131.250534 8.486834 -10.554201
v 115.747032 11.527472 -24.191624
v 110.870026 3.579067 -11.528426
v 72.169250 13.701550 -16.403419
v 74.740814 -6.654077 -18.403448
v 77.230240 -0.000809 -11.983168
v 71.343857 -11.169041 -7.850236
v 67.781105 -11.829712 -16.888098
v 75.816620 7.075515 -10.324718
v 99.057678 9.227772 -15.695601
v 94.692703 -0.142311 -11.157444
v 92.885643 10.149731 -0.000001
v 92.554398 12.386957 -14.517721
v 98.617065 -0.095633 -12.847984
v 98.209358 -7.100733 -13.435783
v 90.601425 -7.339532 -7.351689
v 87.091972 -12.102773 -7.351689
v 98.046066 -11.587930 -7.382099
v 107.281311 -10.759773 -9.338024
v 115.747032 13.197994 -9.714602
v 107.883698 12.147149 -0.000001
v 108.118996 13.705610 -12.874134
v 121.799225 9.537834 -9.319185
v 125.468559 5.016522 -13.204003
v 124.030212 4.779685 -16.041235
v 107.204605 -0.598891 -16.095200
v 106.465508 8.089805 -12.375923
v 115.508232 -4.326294 -12.713581
v 107.492432 -6.144485 -7.038142
v 115.213356 -8.940901 -12.717960
v 121.857971 -0.588460 -6.904716
v 119.686569 -5.349994 -8.168707
v 122.388275 11.053057 0.000000
v 122.281998 11.515398 -8.725972
v 122.674866 -0.156003 -7.270495
v 126.529068 5.638850 -7.145749
v 123.341019 -0.287935 -13.169604
v 115.718849 11.835520 -6.144641
v 119.658302 -4.208502 -5.519421
v 123.341019 -0.287936 -8.725969
v 121.671768 -0.156004 -9.315510
v 123.751541 5.016522 -5.644172
v 125.979042 5.144213 -5.446901
v 132.237976 4.085737 -4.901288
v 130.072998 -1.004881 -0.000001
v 133.220993 6.875771 -15.401354
v 115.508270 -3.199146 -16.464653
v 121.432549 -0.585930 -17.240227
v 123.053329 4.779685 -15.827311
v 115.718849 11.451569 -16.620827
v 121.512184 9.086113 -3.630942
v 90.046814 -12.657810 3.712466
v 92.009079 -12.657812 -1.203651
v 113.341850 -9.771766 1.576811
v 113.341850 -9.771763 -2.511239
v 107.112717 -11.209512 2.774010
v 107.112717 -11.209512 3.400197
v 98.155136 -12.431518 -3.228050
v 98.155136 -12.431523 -0.689133
v 116.101936 -8.738003 1.015608
v 116.101936 -8.738003 6.306045
v 119.244492 -5.627513 4.945650
v 121.408966 -6.187630 7.962353
v 123.123245 -1.989902 6.669608
v 125.163887 -2.532347 -5.932891
v 119.248642 -5.627241 -4.974322
v 121.413406 -6.186508 -7.589187
v 123.141060 -1.973089 -6.296451
v 125.163887 -2.532350 10.007854
v 95.015076 10.153673 10.483196
v 94.064384 9.879240 9.532513
v 94.064377 10.428110 10.988462
v 93.053856 11.852138 10.988462
v 93.053856 10.754379 10.037779
v 93.053848 11.303259 10.007854
v 91.092636 10.153672 10.483196
v 92.043335 9.879232 9.532511
v 92.043327 10.428112 9.027246
v 93.053856 8.455207 9.977932
v 93.053848 9.004086 9.027246
v 93.053856 9.552965 -7.368631
v 95.015076 10.560226 -6.838456
v 94.064384 10.702286 -7.898807
v 94.064377 10.418172 -7.876231
v 93.053856 12.454616 -7.100001
v 93.053856 11.678385 -8.160353
v 93.053856 11.394266 -7.368635
v 91.092636 10.560233 -6.838455
v 92.043327 10.702288 -7.898808
v 92.043327 10.418165 -6.861032
v 93.053856 8.665840 -6.576911
v 93.053856 9.726187 -7.637263
v 93.053864 9.442070 -10.397094
v 95.015076 10.041262 -9.866915
v 94.064384 10.183323 -10.927269
v 94.064384 9.899200 -10.904695
v 93.053856 11.935656 -10.128459
v 93.053856 11.159420 -11.188809
v 93.053856 10.875299 -10.397089
v 91.092636 10.041262 -9.866913
v 92.043335 10.183321 -10.927265
v 92.043327 9.899199 -9.889488
v 93.053864 8.146872 -9.605370
v 93.053856 9.207222 -10.665720
v 93.053856 8.923105 -9.300202
v 80.714050 -10.966660 9.304982
v 80.696381 -10.967534 9.948003
v 81.880089 12.550514 -0.000000
v 81.379303 13.444204 -9.848345
v 81.879608 12.551000 12.655620
v 107.077126 -9.421353 12.450266
v 107.663788 -9.702423 8.530067
v 102.769592 -12.393828 8.681389
v 102.291283 -12.089549 12.343524
v 107.665276 -9.103399 8.442279
v 102.814041 -11.787744 8.187857
v 102.451775 -12.577326 8.190190
v 101.868034 -12.333920 7.234484
v 101.393921 -12.607647 7.221719
v 101.898094 -12.896991 7.273079
v 101.978912 -12.269903 8.444071
v 103.472687 -11.430235 8.205829
v 103.636131 -11.870772 7.942827
v 103.305725 -11.526630 7.912490
v 102.445557 -12.000484 13.180073
v 108.751938 -8.170653 13.744357
v 108.560974 -9.184426 14.168511
v 109.710999 -8.520463 14.131949
v 107.694702 -8.781052 12.844463
v 106.661552 -9.377536 14.944034
v 109.529137 -7.721935 12.226142
v 107.819527 -8.708982 6.003548
v 102.120277 -12.768718 6.262694
v 102.189438 -12.148337 7.717535
v 104.230293 -11.527725 5.843982
v 104.398430 -11.453424 5.545939
v 104.192604 -10.991824 6.194941
v 104.176811 -11.000942 5.616169
v 104.011238 -11.676963 5.254682
v 103.648125 -11.306185 5.067111
v 102.708206 -11.848844 5.345828
v 103.035629 -12.240234 5.828714
v 101.652710 -12.458239 5.688666
v 102.939697 -11.715189 6.898307
v 104.410034 -10.889058 6.905826
v 104.424454 -11.415629 6.888580
v 103.945023 -11.157534 5.976316
v 103.619652 -11.322621 11.106255
v 110.009491 -7.444606 10.281531
v 110.660828 -7.972080 11.384311
v 111.399338 -7.545702 12.626864
v 109.978973 -7.462227 13.170360
v 111.042404 -7.751786 9.633509
v 110.422546 -7.206129 9.750628
v 109.300850 -8.757268 9.335019
v 109.090729 -8.258801 8.952828
v 109.021431 -8.015063 11.346250
v 111.710823 -6.462338 13.713850
v 111.323357 -6.686043 10.420796
v 108.914284 -8.076925 10.069798
v 109.044067 -8.307367 7.859578
v 104.174362 -11.025123 7.535470
v 103.773483 -11.256566 13.896867
v 102.461845 -8.620582 8.239390
v 100.612076 -12.072109 8.115682
v 100.075645 -11.855440 13.761909
v 102.420654 -8.023517 8.141686
v 100.597412 -11.460918 7.795709
v 100.536835 -12.303356 7.493697
v 99.993042 -12.162775 6.441137
v 100.101776 -12.499877 6.698104
v 100.589378 -12.699679 5.729357
v 101.365280 -12.512283 5.324287
v 100.999001 -12.281831 6.738926
v 100.533691 -12.063788 5.947265
v 101.197510 -11.888742 8.442007
v 101.108040 -10.991793 8.344191
v 101.437561 -11.396798 7.926824
v 101.228073 -11.107604 7.510544
v 100.576202 -11.726677 14.964821
v 102.794754 -6.923687 15.437230
v 102.511436 -7.973577 16.328257
v 103.187714 -7.122437 15.032924
v 104.015480 -5.997791 16.052982
v 104.709763 -6.110753 15.323167
v 101.507080 -7.729865 13.768931
v 101.808777 -8.446687 13.727263
v 101.349380 -8.478490 16.863384
v 102.518600 -6.374573 16.593290
v 104.512688 -5.013239 13.707071
v 102.549187 -7.602994 8.183744
v 102.138069 -10.944556 8.245644
v 101.939194 -10.457588 7.780377
v 101.790932 -10.751159 11.763407
v 105.009491 -6.884632 6.221983
v 103.097878 -10.380486 6.617086
v 103.201180 -10.808540 12.266380
v 105.064026 -7.350631 6.784379
v 102.763603 -10.403747 12.388662
v 104.612289 -6.953924 5.720763
v 102.822578 -10.781865 6.242502
v 103.015671 -11.093605 5.132127
v 102.190887 -11.480315 5.565132
v 102.397537 -11.817236 5.781997
v 102.060928 -11.318460 7.559033
v 102.690628 -10.785257 7.508420
v 102.597992 -10.264647 6.341175
v 102.442474 -10.815880 7.290101
v 102.244247 -10.611671 13.712309
v 104.793694 -5.948135 14.646695
v 105.871407 -5.812709 13.345806
v 105.849243 -6.344616 12.606273
v 105.843109 -5.613734 11.376860
v 105.100525 -6.647812 14.690449
v 105.986496 -4.682120 12.616705
v 104.289352 -6.753736 -10.813449
v 101.100349 -7.585774 -9.798995
v 102.272903 -9.309856 -10.624125
v 97.828552 -9.286635 -9.668121
v 98.999481 -11.009833 -9.287627
v 94.945251 -10.819974 -8.455871
v 96.112755 -12.541286 -7.507549
v 92.625206 -12.081257 -6.844516
v 93.788071 -13.800014 -5.343547
v 90.975159 -12.993197 -4.840834
v 92.133606 -14.709531 -2.744020
v 90.114716 -13.515596 -2.492090
v 91.266220 -15.228125 0.572180
v 91.216454 -15.344120 0.649730
v 90.074089 -13.636573 3.876975
v 90.801208 -13.354849 3.484643
v 91.934929 -15.057635 6.725412
v 92.212433 -12.707480 6.053772
v 93.338440 -14.406034 8.352243
v 94.162193 -11.745127 7.518883
v 95.283730 -13.441232 9.480304
v 96.515991 -10.560695 8.532882
v 97.634384 -12.255072 10.051303
v 99.087692 -9.243005 9.043506
v 100.204422 -10.936469 10.532811
v 101.710136 -7.898359 9.506536
v 102.826340 -9.591537 -9.170913
v 78.786903 9.598332 -7.073545
v 77.246880 10.586860 -9.564451
v 73.689499 11.169209 -11.661819
v 75.229523 10.124104 -12.126695
v 70.030228 11.354801 -14.224056
v 71.570259 10.291668 -14.583874
v 66.521011 11.230102 -16.681238
v 68.061043 10.225459 -16.773497
v 63.393906 9.950631 -18.870863
v 64.933945 9.070292 -18.556925
v 60.857349 8.216367 -20.654293
v 62.397385 7.504835 -19.831976
v 59.025944 6.085168 -21.929344
v 60.565948 5.534028 -20.530975
v 58.027668 3.502774 -22.628347
v 59.567684 3.202538 -22.729065
v 59.423855 0.139356 -20.631697
v 57.883835 0.109978 -20.153294
v 58.567051 -3.131460 -22.250662
v 60.107071 -2.787110 -19.154081
v 59.994080 -6.007635 -21.251450
v 61.534103 -5.383834 -17.725805
v 62.033844 -7.672898 -19.823175
v 63.573906 -6.887304 -15.986271
v 64.521240 -8.847422 -18.083637
v 66.061272 -7.947708 -14.067739
v 67.258133 -9.469162 -16.165104
v 68.798157 -8.509040 -12.111344
v 70.052155 -10.002452 -14.208709
v 71.592186 -9.023843 -10.252439
v 72.706947 -9.981290 -12.349803
v 74.246979 -9.017501 -8.613410
v 75.047722 -9.934701 -10.710776
v 76.587753 -8.975440 13.280270
v 66.182632 10.082680 13.948122
v 62.183880 10.010459 18.723282
v 62.241596 3.140061 18.539263
v 66.264854 3.217723 16.640739
v 66.638565 -7.010236 16.255226
v 62.619663 -6.479319 10.232916
v 63.234180 -9.578527 10.744839
v 67.239517 -10.327683 3.843923
v 63.991394 -6.804718 3.059105
v 67.940872 -7.320740 2.354478
v 64.016899 1.604626 1.657526
v 67.966385 1.142505 4.063819
v 67.137856 10.454142 4.763150
v 63.189697 10.146461 2.710721
v 56.072033 2.136418 3.265702
v 52.442219 2.611900 11.132569
v 56.056370 -9.507685 10.125783
v 59.588703 -9.751861 16.245441
v 57.797218 -6.735992 15.416821
v 61.329575 -7.539881 13.309273
v 57.101242 10.277472 13.305552
v 60.807083 10.278317 4.815706
v 53.922962 -6.584856 4.338804
v 57.552788 -7.060346 18.329542
v 58.251537 2.877734 18.327648
v 61.957508 2.874115 5.515614
v 58.122105 10.302085 5.894820
v 54.417645 10.301244 16.587406
v 61.489719 -5.350226 21.838955
v 39.385666 2.358766 21.838957
v 39.673439 5.648053 19.613846
v 47.123035 2.053381 19.613846
v 47.335800 4.485148 20.849163
v 39.121460 2.381835 20.849161
v 39.409237 5.671163 18.844744
v 46.858826 2.076509 18.844742
v 47.071583 4.508268 -21.838959
v 39.385666 2.358775 -21.838955
v 39.673447 5.648056 -19.613848
v 47.123047 2.053421 -19.613844
v 47.335796 4.485158 -20.849159
v 39.121460 2.381925 -20.849152
v 39.409237 5.671178 -18.844742
v 46.858837 2.076538 -18.844742
v 47.071583 4.508271 -12.524772
v 69.943710 10.082680 -13.192623
v 65.944954 10.010459 -17.967787
v 66.002678 3.140066 -17.783768
v 70.025925 3.217730 -15.885242
v 70.399643 -7.010241 -15.499726
v 66.380745 -6.479319 -9.477418
v 66.995262 -9.578537 -9.989343
v 71.000595 -10.327690 -3.174881
v 67.752472 -6.804720 -2.479834
v 71.701935 -7.320742 -1.598979
v 67.777992 1.604628 -0.902026
v 71.727470 1.142497 -3.189530
v 70.898941 10.454142 -3.888861
v 66.950783 10.146467 -18.795443
v 57.812729 3.244492 -19.029898
v 53.822662 3.164720 -16.965981
v 53.871681 -7.170784 -16.890774
v 57.894913 -6.985741 -10.177747
v 58.268658 -9.749856 -10.264183
v 54.249760 -9.713433 -4.194708
v 54.265514 -6.304054 -4.043331
v 58.270885 -6.584175 -3.019892
v 53.707455 1.357558 -2.560284
v 57.656940 1.547609 -5.822330
v 53.454865 10.646824 -5.550997
v 57.404346 10.795189 -14.211816
v 57.629498 10.647975 -14.257062
v 53.681366 10.256093 -2.334247
v 62.243046 2.003825 -2.889229
v 58.613258 2.479325 -10.432161
v 61.033520 -9.262659 -9.870381
v 64.565834 -9.908219 -15.919838
v 62.774395 -6.918877 -15.461061
v 66.306709 -7.832678 -13.309270
v 61.568378 10.277471 -13.305555
v 65.274223 10.278315 -3.924306
v 58.900101 -6.185216 -3.447404
v 62.529926 -6.660707 -18.329538
v 63.228695 2.877743 -18.327648
v 66.934647 2.874114 -5.400287
v 63.099239 10.911721 -5.779492
v 59.394787 10.910878 -16.587406
v 66.466843 -5.350228 17.752800
v 27.911627 12.287837 17.947975
v 24.133823 12.413245 22.309378
v 24.180243 5.288556 22.141260
v 27.989473 5.336860 20.442810
v 28.343309 -3.411356 20.471210
v 24.538202 -3.328575 14.194127
v 24.553141 -6.588740 14.287539
v 28.345423 -6.853825 8.461730
v 24.024742 -4.205886 8.056835
v 27.764122 -4.433016 5.239427
v 23.426388 5.439260 4.976470
v 27.165766 5.325246 8.139194
v 27.739588 12.230446 8.426071
v 24.000044 12.047419 -3.989478
v 38.030117 2.003855 -4.544461
v 34.593391 2.479330 -6.597739
v 34.864975 -3.712447 -6.120836
v 38.301697 -4.187935 -12.701323
v 39.483238 -7.580776 -13.263101
v 36.138817 -6.935199 -18.421867
v 37.395542 -3.896334 -17.963095
v 40.739956 -4.810135 -19.185097
v 40.982170 -2.620483 -21.281794
v 38.081024 2.877748 -16.397198
v 37.128098 11.618431 -16.393482
v 40.636795 11.619272 -20.719448
v 41.420788 2.874141 -7.480011
v 38.840721 11.518096 -7.859212
v 35.333340 11.517261 12.853248
v 87.638046 6.541618 12.101220
v 86.701271 -5.962312 7.258695
v 86.450867 -8.965415 14.105246
v 87.234291 0.058437 0.000000
v 74.117401 0.659294 0.000000
v 75.608505 7.006250 1.079370
v 73.963806 0.715344 10.413503
v 77.637299 9.149541 1.938810
v 77.910202 10.602023 8.176590
v 81.988602 10.548867 12.916502
v 82.345093 -6.073657 13.345001
v 79.907600 -6.079220 15.583805
v 81.921974 0.003904 17.764965
v 65.843277 2.946149 15.691949
v 65.954079 -6.129108 8.044945
v 77.879005 -8.886046 9.690031
v 65.818169 -9.506139 7.529510
v 81.113602 -8.696181 4.994168
v 65.593285 9.777410 2.852409
v 74.056511 9.393078 14.626603
v 82.013397 6.511709 15.052101
v 79.977989 6.020407 2.445666
v 65.235847 1.587727 3.904493
v 65.492081 -6.273660 2.134460
v 74.950310 -6.607227 5.261566
v 53.147694 -6.081814 10.969146
v 54.012741 -8.728876 6.448916
v 52.214600 10.090425 3.678237
v 51.866104 2.591594 13.530430
v 52.648209 9.909619 18.350042
v 52.946701 3.276540 16.372908
v 54.045319 -5.531517 4.139386
v 48.839401 2.610398 5.641113
v 49.576500 -5.780010 16.670158
v 50.761803 -5.279610 6.689447
v 50.121704 10.161853 13.899570
v 50.413197 9.955942 12.700310
v 65.843758 9.630832 11.451849
v 50.064201 -8.384701 18.556252
v 50.164001 3.339838 15.545599
v 39.438499 10.935100 20.219299
v 39.115200 4.019915 11.850652
v 46.406193 -7.072596 6.467907
v 46.646801 -4.792435 17.070509
v 47.475296 -3.938803 6.076473
v 20.917906 4.168780 9.038258
v 20.918993 -3.642044 4.905761
v 37.495201 3.546651 7.938620
v 39.078899 11.214700 21.865025
v 20.920702 5.097713 20.045986
v 20.920004 -3.197758 14.575985
v 20.919500 -5.699986 17.745953
v 20.919895 12.083296 9.043176
v 20.918192 11.863439 0.000000
v 74.859909 -7.111932 0.000000
v 81.033592 -9.663344 -0.000000
v 81.839897 11.420326 13.620348
v 22.857845 3.760720 -0.000000
v 77.783585 10.424630 -1.079369
v 73.963806 0.715358 -10.413501
v 77.637299 9.149542 -1.938810
v 77.910202 10.602022 -8.176590
v 81.988602 10.548864 -12.916501
v 82.345093 -6.073659 -13.345002
v 79.907600 -6.079221 -15.583803
v 81.921967 0.003794 -17.764965
v 65.843277 2.946148 -15.691948
v 65.954079 -6.129111 -8.044942
v 77.879005 -8.886043 -9.690030
v 65.818176 -9.506135 -7.529513
v 81.113602 -8.696182 -4.994170
v 65.593285 9.777411 -2.852410
v 74.056511 9.393079 -14.626601
v 82.013397 6.511709 -15.052101
v 79.977989 6.020410 -2.445669
v 65.235847 1.587742 -3.904492
v 65.492081 -6.273659 -2.134459
v 74.950310 -6.607228 -5.261568
v 53.147690 -6.081812 -10.969149
v 54.012741 -8.728876 -6.448915
v 52.214600 10.090423 -3.678241
v 51.866104 2.591605 -13.530430
v 52.648193 9.909617 -18.350046
v 52.946701 3.276540 -16.372910
v 54.045319 -5.531516 -4.139393
v 48.839401 2.610418 -5.641116
v 49.576500 -5.780013 -16.670158
v 50.761803 -5.279610 -6.689451
v 50.121693 10.161853 -13.899570
v 50.413208 9.955941 -12.700310
v 65.843758 9.630836 -11.451850
v 50.064201 -8.384697 -18.556255
v 50.164001 3.339843 -15.545599
v 39.438499 10.935100 -20.219301
v 39.115200 4.019917 -11.850653
v 46.406193 -7.072599 -6.467909
v 46.646801 -4.792440 -17.070511
v 47.475304 -3.938803 -6.076475
v 20.917902 4.168792 -9.038260
v 20.918993 -3.642044 -4.905760
v 37.495201 3.546659 -7.938621
v 39.078896 11.214700 -21.865019
v 20.920702 5.097723 -20.045992
v 20.919996 -3.197756 -14.575990
v 20.919500 -5.699983 -17.745949
v 20.919895 12.083296 -9.043176
v 20.918192 11.863438 -14.105250
v 87.234291 0.058437 -12.101221
v 86.701271 -5.962315 -7.258696
v 86.450874 -8.965420 -12.853250
v 87.638046 6.541618 0.000000
v 86.365944 -10.478806 -13.620345
v 22.857845 3.760720 4.795923
v 123.300423 -6.558450 -4.795923
v 123.305038 -6.556468 -0.000001
v 131.250534 8.486834 -28.039490
v 103.616898 6.144747 -28.232910
v 103.764053 0.468887 -33.137093
v 111.676910 6.044757 -30.670507
v 107.721115 -1.842296 -45.325439
v 91.951035 5.579380 -48.180389
v 96.584274 8.244448 -45.123451
v 91.945770 -0.350793 -50.724747
v 100.443726 6.024848 -47.946121
v 96.530563 -3.382099 -32.970810
v 111.517067 0.175570 -50.506157
v 100.611008 -1.056505 -29.871990
v 108.091881 8.632073 -30.468088
v 102.176979 5.725009 -35.256191
v 110.275978 6.032044 -33.851299
v 105.701012 8.413519 -31.771603
v 106.961990 8.656681 -35.132008
v 110.078011 0.107743 -32.968918
v 106.255051 -1.954431 -30.569319
v 102.283020 0.415946 -35.612404
v 98.507591 -0.413641 -38.209137
v 102.814018 -3.251251 -40.890602
v 106.898994 -0.882914 -40.991173
v 106.862000 6.128673 -38.138809
v 102.794899 8.740551 -35.588295
v 98.507309 5.739240 -21.852757
v 107.441879 0.432976 -21.802063
v 107.319725 6.683239 -24.239445
v 111.198807 9.147770 -24.498764
v 111.486496 -2.198535 -26.609619
v 115.197472 0.584244 -26.625343
v 115.322075 6.859043 -47.411949
v 91.027130 6.459882 -50.588493
v 95.476357 8.530699 -50.319695
v 95.415070 -6.038881 -46.547729
v 89.752487 -3.448347 -52.981499
v 99.427231 -1.611435 -53.183052
v 99.238274 6.302536 -46.905060
v 90.279526 0.648515 -40.456879
v 95.229202 5.659293 -43.077618
v 99.672272 -3.316675 -45.857948
v 103.652840 6.076740 -45.698372
v 103.754982 -0.969690 -40.367943
v 95.226715 -0.382200 -43.159595
v 99.689590 8.492466 28.039490
v 103.616882 6.144735 21.802063
v 107.319710 6.683226 40.456879
v 95.229202 5.659294 30.468084
v 102.176979 5.725008 35.588295
v 98.507309 5.739240 47.411949
v 91.027130 6.459885 45.325439
v 91.951035 5.579384 13.338780
v 108.748001 7.813668 15.642731
v 108.665710 7.409390 12.968097
v 109.414345 -0.029872 13.338780
v 108.748001 7.813668 12.854546
v 98.617065 -0.095602 13.338780
v 108.748001 7.813668 12.968097
v 109.414345 -0.029872 12.752416
v 123.241905 4.779776 12.403698
v 115.287750 -3.407249 12.000811
v 120.859314 8.800932 12.381108
v 119.917427 -0.057685 12.752416
v 123.241905 4.779776 9.319188
v 124.887444 4.992549 23.536821
v 103.469574 8.108642 7.270495
v 125.979042 5.144214 13.551430
v 91.860001 -0.151335 15.228755
v 87.234291 0.058397 17.090965
v 81.921974 0.003910 6.698404
v 130.936966 4.663491 12.859986
v 115.472305 11.206023 12.799340
v 115.611649 11.150039 30.338829
v 115.404778 8.365357 30.331814
v 115.221619 -0.795965 27.409504
v 109.486656 -4.858898 23.595028
v 103.653748 -1.016867 23.536821
v 103.469574 8.108642 27.068888
v 109.035133 11.706919 12.854546
v 98.617065 -0.095602 18.403450
v 77.230240 -0.000810 13.204010
v 124.038071 4.751726 9.319193
v 125.477440 4.986343 7.270496
v 126.530670 5.634359 17.240227
v 123.059578 4.757662 -0.000000
v 99.167564 10.378186 -0.000001
v 92.554398 11.256149 -13.338782
v 108.734344 7.791675 -15.642731
v 108.654274 7.390423 -12.968092
v 109.422569 -0.050306 -12.854546
v 98.617065 -0.095603 -13.338782
v 108.734344 7.791675 -13.338782
v 108.734344 7.791675 -12.968092
v 109.422569 -0.050306 -12.752402
v 123.233986 4.804124 -12.403696
v 115.312317 -3.414472 -12.000806
v 120.834389 8.814992 -12.381103
v 119.929871 -0.046990 -12.752402
v 123.233986 4.804124 -9.319183
v 124.879776 5.016521 -23.536823
v 103.469696 8.108768 -7.270496
v 125.979042 5.144214 0.000000
v 126.774025 8.681766 0.000000
v 122.281998 10.661640 -0.000000
v 88.115341 12.369739 -13.551430
v 91.860001 -0.151336 -15.228755
v 87.234291 0.058399 -0.000000
v 81.379303 13.444204 -17.090965
v 81.921951 0.003776 -0.000001
v 131.250534 8.486834 -6.698404
v 130.936966 4.663493 0.000000
v 128.038422 10.027987 -0.000001
v 131.250534 8.486834 -12.859987
v 115.440636 11.199890 -12.799335
v 115.582787 11.144842 -30.338818
v 115.404915 8.365217 -30.331816
v 115.221527 -0.796097 -27.409492
v 109.486458 -4.858902 -23.595028
v 103.653656 -1.016734 -23.536823
v 103.469696 8.108768 -27.068920
v 109.035362 11.706918 -12.854546
v 98.617065 -0.095603 0.000201
v 74.168495 14.594092 0.000418
v 65.270546 14.593175 -18.403448
v 77.230240 -0.000809 -0.000001
v 99.167564 11.138052 -0.000001
v 92.554398 12.386957 -0.000001
v 108.118996 13.705610 0.000001
v 116.084068 13.449369 0.000000
v 122.281998 11.515398 -13.204003
v 124.030212 4.779685 -9.319185
v 125.468559 5.016522 -7.270495
v 126.529068 5.638850 -0.000000
v 126.774025 9.292612 -0.000000
v 115.153000 -8.612173 -0.000000
v 119.448990 -5.396771 -0.000000
v 122.202011 -2.804044 0.000000
v 126.774025 8.181260 -0.000001
v 133.220993 6.875771 0.000001
v 128.725998 -3.807340 -17.240227
v 123.053329 4.779685 1.015608
v 116.101936 -8.738003 1.576811
v 113.341850 -9.771763 -0.689133
v 116.101936 -8.738003 -1.203651
v 113.341850 -9.771766 12.450266
v 107.663788 -9.702423 12.655620
v 107.077126 -9.421353 12.343524
v 107.665276 -9.103399 5.828714
v 101.652710 -12.458239 6.003548
v 102.120277 -12.768718 6.262694
v 102.189438 -12.148337 13.170360
v 111.042404 -7.751786 12.626864
v 109.978973 -7.462227 9.335019
v 109.090729 -8.258801 9.750628
v 109.300850 -8.757268 13.713850
v 111.323357 -6.686043 10.069798
v 109.044067 -8.307367 7.859578
v 104.174362 -11.025123 7.717535
v 104.230293 -11.527725 7.535470
v 103.773483 -11.256566 13.896867
v 102.461845 -8.620582 13.768931
v 101.808777 -8.446687 13.761909
v 102.420654 -8.023517 5.324287
v 100.999001 -12.281831 5.729357
v 101.365280 -12.512283 5.947265
v 101.197510 -11.888742 16.052982
v 104.709763 -6.110753 15.032924
v 104.015480 -5.997791 11.763407
v 105.009491 -6.884632 12.266380
v 105.064026 -7.350631 16.593290
v 104.512688 -5.013239 12.388662
v 104.612289 -6.953924 8.245644
v 101.939194 -10.457588 8.183744
v 102.138069 -10.944556 7.780377
v 101.790932 -10.751159 -2.744020
v 90.114716 -13.515596 -2.492090
v 91.266220 -15.228125 0.649730
v 90.074089 -13.636573 0.572180
v 91.216454 -15.344120 -20.530975
v 58.027668 3.502774 -22.628347
v 59.567684 3.202538 -20.631697
v 57.883835 0.109978 -22.729065
v 59.423855 0.139356 -10.252439
v 72.706947 -9.981290 -12.349803
v 74.246979 -9.017501 4.763150
v 63.189697 10.146461 4.063819
v 67.137856 10.454142 5.894820
v 54.417645 10.301244 5.515614
v 58.122105 10.302085 20.849161
v 39.409237 5.671163 20.849163
v 39.121460 2.381835 18.844742
v 47.071583 4.508268 18.844744
v 46.858826 2.076509 -20.849152
v 39.409237 5.671178 -20.849159
v 39.121460 2.381925 -18.844742
v 47.071583 4.508271 -18.844742
v 46.858837 2.076538 -3.888861
v 66.950783 10.146467 -3.189530
v 70.898941 10.454142 -14.257062
v 53.681366 10.256093 -14.211816
v 57.629498 10.647975 -5.779492
v 59.394787 10.910878 -5.400287
v 63.099239 10.911721 8.426071
v 24.000044 12.047419 8.139194
v 27.739588 12.230446 -7.859212
v 35.333340 11.517261 -7.480011
v 38.840721 11.518096 1.079370
v 73.963806 0.715344 3.678237
v 51.866104 2.591594 4.139386
v 48.839401 2.610398 4.905761
v 37.495201 3.546651 2.445666
v 65.235847 1.587727 6.076473
v 20.917906 4.168780 0.000000
v 74.117401 0.659294 14.575985
v 20.919500 -5.699986 20.045986
v 20.920004 -3.197758 6.076473
v 20.917906 4.168780 9.043176
v 20.918192 11.863439 9.038258
v 20.918993 -3.642044 17.745953
v 20.919895 12.083296 21.865025
v 20.920702 5.097713 0.000000
v 74.117401 0.659294 0.000000
v 75.608505 7.006250 -1.079369
v 73.963806 0.715358 -3.678241
v 51.866104 2.591605 -4.139393
v 48.839401 2.610418 -4.905760
v 37.495201 3.546659 -2.445669
v 65.235847 1.587742 -6.076475
v 20.917902 4.168792 0.000000
v 74.859909 -7.111932 0.000000
v 74.117401 0.659294 0.000000
v 81.033592 -9.663344 0.000000
v 86.365944 -10.478806 -0.000000
v 77.783585 10.424630 -0.000000
v 81.839897 11.420326 -20.045992
v 20.919996 -3.197756 -14.575990
v 20.919500 -5.699983 -6.076475
v 20.917902 4.168792 -9.038260
v 20.918993 -3.642044 -9.043176
v 20.918192 11.863438 -21.865019
v 20.920702 5.097723 -17.745949
v 20.919895 12.083296 -21.802063
v 107.319725 6.683239 -28.039490
v 103.616898 6.144747 -40.456879
v 95.229202 5.659293 -30.468088
v 102.176979 5.725009 -35.588295
v 98.507309 5.739240 -47.411949
v 91.027130 6.459882 -45.325439
v 91.951035 5.579380 0.989058

vt 0.222022 0.255839
vt 0.222231 0.105093
vt 0.222362 0.205884
vt 0.222359 0.015273
vt 0.041147 0.058960
vt 0.041319 0.250935
vt 0.041290 0.100430
vt 0.041349 0.203282
vt 0.041320 0.159296
vt 0.222411 0.159198
vt 0.041382 0.056037
vt 0.229381 0.012189
vt 0.199279 0.105590
vt 0.199585 0.059963
vt 0.191632 0.058138
vt 0.211417 0.159849
vt 0.199593 0.205158
vt 0.199469 0.254041
vt 0.199377 0.250689
vt 0.143729 0.204917
vt 0.143763 0.161529
vt 0.143796 0.105893
vt 0.143873 0.061049
vt 0.143888 0.300102
vt 0.143715 0.261176
vt 0.304440 0.006808
vt 0.290365 0.049976
vt 0.298105 0.206584
vt 0.305902 0.156161
vt 0.305568 0.097162
vt 0.303296 0.011626
vt 0.010468 0.056437
vt 0.010641 0.204475
vt 0.010642 0.253354
vt 0.010611 0.159256
vt 0.010703 0.098975
vt 0.010670 0.273594
vt 0.010550 0.014436
vt 0.092399 0.204100
vt 0.092542 0.103162
vt 0.092611 0.160364
vt 0.092589 0.250812
vt 0.092509 0.060004
vt 0.092604 0.746208
vt 0.676496 0.375251
vt 0.941593 0.391632
vt 0.724703 0.746208
vt 0.792689 0.746208
vt 0.850814 0.746208
vt 0.604987 0.715005
vt 0.549679 0.692874
vt 0.679172 0.459145
vt 0.679839 0.528961
vt 0.690506 0.313958
vt 0.327592 0.382911
vt 0.329528 0.064258
vt 0.330312 0.254710
vt 0.322276 0.195031
vt 0.321000 0.124700
vt 0.325057 0.674776
vt 0.927471 0.431577
vt 0.947018 0.693116
vt 0.729368 0.521341
vt 0.731579 0.454252
vt 0.729849 0.217354
vt 0.514800 0.458108
vt 0.897087 0.659949
vt 0.798942 0.448833
vt 0.855445 0.313212
vt 0.504337 0.011947
vt 0.460516 0.645811
vt 0.855122 0.127111
vt 0.449149 0.470776
vt 0.928036 0.016421
vt 0.444292 0.071037
vt 0.460681 0.072418
vt 0.435333 0.312591
vt 0.430110 0.201153
vt 0.440136 0.254231
vt 0.417719 0.133694
vt 0.413064 0.162910
vt 0.442200 0.190299
vt 0.405730 0.691187
vt 0.852637 0.695178
vt 0.793416 0.701824
vt 0.889167 0.663705
vt 0.917692 0.446643
vt 0.939212 0.416155
vt 0.907774 0.256239
vt 0.438916 0.444056
vt 0.797775 0.458826
vt 0.642632 0.498087
vt 0.648422 0.543121
vt 0.661712 0.644954
vt 0.647693 0.691397
vt 0.643059 0.674520
vt 0.573458 0.587454
vt 0.621683 0.632641
vt 0.602502 0.469643
vt 0.571299 0.518856
vt 0.607261 0.699861
vt 0.948864 0.671715
vt 0.991429 0.716511
vt 0.911077 0.005084
vt 0.535551 0.182052
vt 0.544102 0.102350
vt 0.538900 0.262140
vt 0.527060 0.168621
vt 0.593356 0.089128
vt 0.583573 0.072728
vt 0.518731 0.075891
vt 0.519868 0.405793
vt 0.774092 0.648559
vt 0.683690 0.652723
vt 0.732800 0.692744
vt 0.511838 0.663758
vt 0.536494 0.578170
vt 0.589055 0.622227
vt 0.563437 0.472140
vt 0.528248 0.529567
vt 0.564540 0.391649
vt 0.481671 0.107790
vt 0.676888 0.214077
vt 0.621146 0.106896
vt 0.613296 0.007286
vt 0.681871 0.215123
vt 0.659789 0.291895
vt 0.646307 0.281727
vt 0.570864 0.354815
vt 0.528730 0.361691
vt 0.636984 0.094195
vt 0.847633 0.100399
vt 0.770196 0.130346
vt 0.913814 0.103788
vt 0.976050 0.142373
vt 0.963830 0.234230
vt 0.748208 0.299109
vt 0.822742 0.297686
vt 0.739479 0.368195
vt 0.805952 0.291751
vt 0.898644 0.359800
vt 0.860681 0.365846
vt 0.727722 0.082128
vt 0.914341 0.007286
vt 0.850643 0.330103
vt 0.914854 0.079770
vt 0.980330 0.346604
vt 0.920826 0.007286
vt 0.980334 0.131688
vt 0.848160 0.395251
vt 0.438479 0.449835
vt 0.489602 0.440915
vt 0.437441 0.497934
vt 0.486608 0.472803
vt 0.438424 0.542616
vt 0.514162 0.520107
vt 0.538875 0.482551
vt 0.514816 0.580126
vt 0.554892 0.583633
vt 0.481004 0.547368
vt 0.454642 0.520944
vt 0.417026 0.169500
vt 0.750790 0.258814
vt 0.828384 0.247898
vt 0.892655 0.157400
vt 0.848454 0.166793
vt 0.909775 0.238617
vt 0.949940 0.454252
vt 0.729849 0.528961
vt 0.690506 0.459145
vt 0.679839 0.391638
vt 0.677918 0.839693
vt 0.732800 0.799300
vt 0.729368 0.799542
vt 0.679172 0.843858
vt 0.683690 0.746208
vt 0.726856 0.521341
vt 0.731579 0.797238
vt 0.793416 0.458108
vt 0.897087 0.446643
vt 0.939212 0.470776
vt 0.928036 0.072418
vt 0.435333 0.016421
vt 0.444292 0.071037
vt 0.460681 0.011947
vt 0.460516 0.313212
vt 0.504337 0.312591
vt 0.430110 0.846605
vt 0.855122 0.832467
vt 0.798942 0.162910
vt 0.442200 0.201153
vt 0.440136 0.217354
vt 0.514800 0.127111
vt 0.449149 0.256239
vt 0.438916 0.801229
vt 0.852637 0.444056
vt 0.797775 0.072728
vt 0.518731 0.075891
vt 0.519868 0.790592
vt 0.889167 0.254231
vt 0.417719 0.190299
vt 0.405730 0.133694
vt 0.413064 0.416155
vt 0.907774 0.382911
vt 0.329528 0.313958
vt 0.327592 0.064258
vt 0.330312 0.254710
vt 0.322276 0.195031
vt 0.321000 0.124700
vt 0.325057 0.828711
vt 0.917692 0.431577
vt 0.947018 0.817640
vt 0.927471 0.372985
vt 0.907573 0.498087
vt 0.648422 0.458826
vt 0.642632 0.391628
vt 0.642872 0.847462
vt 0.647693 0.801019
vt 0.643059 0.543121
vt 0.661712 0.746208
vt 0.642503 0.817896
vt 0.573458 0.777411
vt 0.549679 0.469643
vt 0.571299 0.391638
vt 0.543478 0.904962
vt 0.621683 0.859775
vt 0.602502 0.518856
vt 0.607261 0.792555
vt 0.948864 0.820701
vt 0.991429 0.775905
vt 0.911077 0.262140
vt 0.527060 0.182052
vt 0.544102 0.168621
vt 0.593356 0.102350
vt 0.538900 0.089128
vt 0.583573 0.369667
vt 0.972172 0.448833
vt 0.855445 0.405793
vt 0.774092 0.472140
vt 0.528248 0.870189
vt 0.563437 0.914246
vt 0.589055 0.828658
vt 0.536494 0.799672
vt 0.511838 0.529567
vt 0.564540 0.107790
vt 0.676888 0.214077
vt 0.621146 0.106896
vt 0.613296 0.007286
vt 0.625628 0.215123
vt 0.659789 0.291895
vt 0.646307 0.281727
vt 0.570864 0.354815
vt 0.528730 0.361691
vt 0.636984 0.365846
vt 0.727722 0.094195
vt 0.847633 0.100399
vt 0.770196 0.007286
vt 0.777940 0.130346
vt 0.913814 0.103788
vt 0.976050 0.142373
vt 0.963830 0.234230
vt 0.748208 0.169500
vt 0.750790 0.299109
vt 0.822742 0.297686
vt 0.739479 0.368195
vt 0.805952 0.291751
vt 0.898644 0.359800
vt 0.860681 0.082128
vt 0.914341 0.007286
vt 0.911897 0.330103
vt 0.914854 0.079770
vt 0.980330 0.346604
vt 0.920826 0.131688
vt 0.848160 0.449835
vt 0.489602 0.497934
vt 0.486608 0.482551
vt 0.514816 0.520107
vt 0.538875 0.542616
vt 0.514162 0.583633
vt 0.481004 0.547368
vt 0.454642 0.621669
vt 0.517389 0.258814
vt 0.828384 0.247898
vt 0.892655 0.238617
vt 0.949940 0.157400
vt 0.848454 0.166793
vt 0.909775 0.587554
vt 0.010498 0.469148
vt 0.039006 0.548416
vt 0.348931 0.503584
vt 0.348931 0.569500
vt 0.258434 0.484280
vt 0.258434 0.474183
vt 0.128297 0.581058
vt 0.128297 0.540120
vt 0.389031 0.512633
vt 0.389030 0.435914
vt 0.348364 0.470914
vt 0.357811 0.450938
vt 0.405551 0.483895
vt 0.414168 0.436459
vt 0.347906 0.471459
vt 0.357353 0.451483
vt 0.405094 0.484441
vt 0.413711 0.605491
vt 0.989414 0.578870
vt 0.962792 0.578870
vt 0.962792 0.495654
vt 0.989414 0.522275
vt 0.962792 0.522275
vt 0.962792 0.495654
vt 0.879576 0.522275
vt 0.906198 0.522275
vt 0.906198 0.605491
vt 0.879576 0.578870
vt 0.906198 0.578870
vt 0.906198 0.605491
vt 0.989414 0.578870
vt 0.962792 0.578870
vt 0.962792 0.495654
vt 0.989414 0.522275
vt 0.962792 0.522275
vt 0.962792 0.495654
vt 0.879576 0.522275
vt 0.906198 0.522275
vt 0.906198 0.605491
vt 0.879576 0.578870
vt 0.906198 0.578870
vt 0.906198 0.605491
vt 0.989414 0.578870
vt 0.962792 0.578870
vt 0.962792 0.495654
vt 0.989414 0.522275
vt 0.962792 0.522275
vt 0.962792 0.495654
vt 0.879576 0.522275
vt 0.906198 0.522275
vt 0.906198 0.605491
vt 0.879576 0.578870
vt 0.906198 0.578870
vt 0.906198 0.810886
vt 0.602367 0.681499
vt 0.602242 0.464922
vt 0.602431 0.391633
vt 0.594867 0.464922
vt 0.602431 0.995966
vt 0.868180 0.984904
vt 0.875481 0.984904
vt 0.603677 0.995966
vt 0.598582 0.973423
vt 0.882858 0.973423
vt 0.612816 0.981290
vt 0.583882 0.989428
vt 0.571409 0.972247
vt 0.531706 0.965727
vt 0.540942 0.959208
vt 0.554632 0.958343
vt 0.637304 0.952847
vt 0.629292 0.947350
vt 0.619560 0.967076
vt 0.586826 0.946856
vt 0.877069 0.913645
vt 0.867401 0.929871
vt 0.924087 0.888883
vt 0.857733 0.903392
vt 0.784668 0.910418
vt 0.951464 0.953276
vt 0.816209 0.924077
vt 0.522081 0.924077
vt 0.540080 0.924077
vt 0.641125 0.984904
vt 0.603677 0.995966
vt 0.598582 0.973423
vt 0.612816 0.981290
vt 0.583882 0.989428
vt 0.571409 0.972247
vt 0.531706 0.965727
vt 0.540942 0.924077
vt 0.509938 0.959208
vt 0.554632 0.958343
vt 0.637304 0.952847
vt 0.629292 0.947350
vt 0.619560 0.967076
vt 0.586826 0.946856
vt 0.877069 0.913645
vt 0.867401 0.929871
vt 0.924087 0.996113
vt 0.913626 0.996113
vt 0.953979 0.888883
vt 0.857733 0.984904
vt 0.875481 0.995966
vt 0.868180 0.903392
vt 0.784668 0.910418
vt 0.951464 0.996113
vt 0.994332 0.953276
vt 0.816209 0.973423
vt 0.882858 0.924077
vt 0.650991 0.924077
vt 0.628480 0.984904
vt 0.875481 0.984904
vt 0.603677 0.995966
vt 0.598582 0.973423
vt 0.882858 0.973423
vt 0.612816 0.981290
vt 0.583882 0.989428
vt 0.571409 0.972247
vt 0.531706 0.965727
vt 0.540942 0.924077
vt 0.522081 0.924077
vt 0.509938 0.959208
vt 0.554632 0.924077
vt 0.540080 0.958343
vt 0.637304 0.952847
vt 0.629292 0.947350
vt 0.619560 0.967076
vt 0.586826 0.946856
vt 0.877069 0.913645
vt 0.867401 0.929871
vt 0.924087 0.996113
vt 0.913626 0.996113
vt 0.953979 0.888883
vt 0.857733 0.995966
vt 0.868180 0.903392
vt 0.784668 0.910418
vt 0.951464 0.996113
vt 0.994332 0.953276
vt 0.816209 0.924077
vt 0.641125 0.924077
vt 0.650991 0.924077
vt 0.628480 0.995966
vt 0.868180 0.995966
vt 0.598582 0.984904
vt 0.603677 0.984904
vt 0.875481 0.973423
vt 0.612816 0.973423
vt 0.882858 0.989428
vt 0.571409 0.981290
vt 0.583882 0.972247
vt 0.531706 0.965727
vt 0.540942 0.959208
vt 0.554632 0.952847
vt 0.629292 0.958343
vt 0.637304 0.967076
vt 0.586826 0.947350
vt 0.619560 0.946856
vt 0.877069 0.929871
vt 0.924087 0.913645
vt 0.867401 0.888883
vt 0.857733 0.903392
vt 0.784668 0.910418
vt 0.951464 0.953276
vt 0.816209 0.898932
vt 0.769916 0.965311
vt 0.769916 0.898932
vt 0.702746 0.965311
vt 0.702746 0.898932
vt 0.769916 0.965311
vt 0.769916 0.898932
vt 0.702746 0.965311
vt 0.702746 0.898932
vt 0.769916 0.965311
vt 0.769916 0.898932
vt 0.702746 0.965311
vt 0.702746 0.965311
vt 0.769916 0.898932
vt 0.769916 0.898932
vt 0.702746 0.965311
vt 0.702746 0.898932
vt 0.769916 0.965311
vt 0.769916 0.898932
vt 0.702746 0.965311
vt 0.702746 0.898932
vt 0.769916 0.965311
vt 0.769916 0.898932
vt 0.702746 0.965311
vt 0.702746 0.898932
vt 0.769916 0.965311
vt 0.769916 0.607643
vt 0.842608 0.531799
vt 0.842608 0.531799
vt 0.746227 0.607643
vt 0.746227 0.531799
vt 0.842608 0.607643
vt 0.842608 0.531799
vt 0.746227 0.607643
vt 0.746227 0.531799
vt 0.842608 0.607643
vt 0.842608 0.531799
vt 0.746227 0.607643
vt 0.746227 0.531799
vt 0.842608 0.607643
vt 0.842608 0.531799
vt 0.746227 0.607643
vt 0.746227 0.607643
vt 0.842608 0.531799
vt 0.842608 0.531799
vt 0.746227 0.607643
vt 0.746227 0.531799
vt 0.842608 0.607643
vt 0.842608 0.531799
vt 0.746227 0.607643
vt 0.746227 0.531799
vt 0.842608 0.607643
vt 0.842608 0.531799
vt 0.746227 0.607643
vt 0.746227 0.531799
vt 0.842608 0.607643
vt 0.842608 0.531799
vt 0.746227 0.607643
vt 0.746227 0.531799
vt 0.842608 0.607643
vt 0.842608 0.428416
vt 0.053304 0.326060
vt 0.053304 0.326060
vt 0.020923 0.428416
vt 0.020923 0.428416
vt 0.081520 0.326060
vt 0.081520 0.326060
vt 0.224695 0.428416
vt 0.224695 0.326060
vt 0.275311 0.428416
vt 0.275311 0.326060
vt 0.292253 0.428416
vt 0.292253 0.428416
vt 0.080239 0.326060
vt 0.080239 0.428416
vt 0.053304 0.326060
vt 0.053304 0.326060
vt 0.081520 0.428416
vt 0.081520 0.326060
vt 0.224695 0.428416
vt 0.224695 0.326060
vt 0.284079 0.428416
vt 0.284079 0.326060
vt 0.022285 0.428416
vt 0.022285 0.326060
vt 0.271075 0.428416
vt 0.271075 0.428416
vt 0.080239 0.326060
vt 0.080239 0.428416
vt 0.239507 0.223402
vt 0.791689 0.184428
vt 0.791689 0.223402
vt 0.906786 0.184428
vt 0.906786 0.223402
vt 0.791689 0.184428
vt 0.791689 0.223402
vt 0.906786 0.184428
vt 0.906786 0.223402
vt 0.791689 0.184428
vt 0.791689 0.223402
vt 0.906786 0.184428
vt 0.906786 0.223402
vt 0.791689 0.184428
vt 0.791689 0.223402
vt 0.906786 0.184428
vt 0.906786 0.428416
vt 0.053304 0.326060
vt 0.053304 0.326060
vt 0.020923 0.428416
vt 0.020923 0.428416
vt 0.081520 0.326060
vt 0.081520 0.326060
vt 0.224695 0.428416
vt 0.224695 0.326060
vt 0.275311 0.428416
vt 0.275311 0.326060
vt 0.292253 0.428416
vt 0.292253 0.428416
vt 0.080239 0.326060
vt 0.080239 0.428416
vt 0.054044 0.326060
vt 0.054044 0.326060
vt 0.021662 0.428416
vt 0.021662 0.428416
vt 0.082259 0.326060
vt 0.082259 0.326060
vt 0.225434 0.428416
vt 0.225434 0.326060
vt 0.276050 0.428416
vt 0.276050 0.326060
vt 0.292992 0.428416
vt 0.292992 0.428416
vt 0.080978 0.326060
vt 0.080978 0.428416
vt 0.053304 0.326060
vt 0.053304 0.326060
vt 0.081520 0.428416
vt 0.081520 0.326060
vt 0.224695 0.428416
vt 0.224695 0.326060
vt 0.284079 0.428416
vt 0.284079 0.326060
vt 0.022285 0.428416
vt 0.022285 0.326060
vt 0.271075 0.428416
vt 0.271075 0.428416
vt 0.080239 0.326060
vt 0.080239 0.428416
vt 0.239507 0.428416
vt 0.053304 0.326060
vt 0.053304 0.326060
vt 0.020923 0.428416
vt 0.020923 0.428416
vt 0.093058 0.326060
vt 0.093058 0.326060
vt 0.217229 0.428416
vt 0.217229 0.326060
vt 0.275311 0.428416
vt 0.275311 0.326060
vt 0.292253 0.428416
vt 0.292253 0.428416
vt 0.091777 0.326060
vt 0.091777 0.428416
vt 0.053304 0.326060
vt 0.053304 0.326060
vt 0.022285 0.428416
vt 0.022285 0.428416
vt 0.093058 0.326060
vt 0.093058 0.326060
vt 0.217229 0.428416
vt 0.217229 0.428416
vt 0.232041 0.326060
vt 0.271075 0.326060
vt 0.284079 0.428416
vt 0.284079 0.428416
vt 0.271075 0.428416
vt 0.091777 0.326060
vt 0.091777 0.734022
vt 0.494070 0.831313
vt 0.494099 0.875070
vt 0.494168 0.782698
vt 0.494069 0.572388
vt 0.399381 0.610473
vt 0.408730 0.577922
vt 0.389369 0.699406
vt 0.405202 0.638306
vt 0.418101 0.691583
vt 0.441680 0.832234
vt 0.442853 0.832097
vt 0.424446 0.785219
vt 0.438629 0.765673
vt 0.317408 0.831373
vt 0.317441 0.880677
vt 0.409431 0.880242
vt 0.317402 0.880106
vt 0.441670 0.648501
vt 0.317289 0.639563
vt 0.383649 0.739697
vt 0.438964 0.742891
vt 0.419258 0.977946
vt 0.316972 0.926382
vt 0.317242 0.938140
vt 0.400745 0.917963
vt 0.224611 0.874464
vt 0.230469 0.652870
vt 0.210371 0.595109
vt 0.207243 0.706128
vt 0.212039 0.766995
vt 0.216287 0.829660
vt 0.231699 0.967418
vt 0.181855 0.914140
vt 0.198826 0.826850
vt 0.204746 0.653029
vt 0.193866 0.707234
vt 0.194042 0.705219
vt 0.317374 0.871949
vt 0.204437 0.768308
vt 0.194232 0.709479
vt 0.114881 0.767778
vt 0.113058 0.869721
vt 0.175669 0.911266
vt 0.176653 0.825572
vt 0.179230 0.955827
vt 0.006645 0.900829
vt 0.007063 0.962572
vt 0.104438 0.656534
vt 0.115834 0.767660
vt 0.006632 0.826096
vt 0.006828 0.861656
vt 0.007031 0.713783
vt 0.006627 0.656302
vt 0.006904 0.954910
vt 0.413502 0.940313
vt 0.444352 0.629247
vt 0.445985 0.406201
vt 0.856943 0.617026
vt 0.421734 0.577922
vt 0.389369 0.699406
vt 0.405202 0.638306
vt 0.418101 0.691583
vt 0.441680 0.832234
vt 0.442853 0.832097
vt 0.424446 0.785219
vt 0.438629 0.765673
vt 0.317408 0.831373
vt 0.317441 0.880677
vt 0.409431 0.880242
vt 0.317402 0.880106
vt 0.441670 0.648501
vt 0.317289 0.639563
vt 0.383649 0.739697
vt 0.438964 0.742891
vt 0.419258 0.977946
vt 0.316972 0.926382
vt 0.317242 0.938140
vt 0.400745 0.917963
vt 0.224611 0.874464
vt 0.230469 0.652870
vt 0.210371 0.595109
vt 0.207243 0.706128
vt 0.212039 0.766995
vt 0.216287 0.829660
vt 0.231699 0.967418
vt 0.181855 0.914140
vt 0.198826 0.826850
vt 0.204746 0.653029
vt 0.193866 0.707234
vt 0.194042 0.705219
vt 0.317374 0.871949
vt 0.204437 0.768308
vt 0.194232 0.709479
vt 0.114881 0.767778
vt 0.113058 0.869721
vt 0.175669 0.911266
vt 0.176653 0.825572
vt 0.179230 0.955827
vt 0.006645 0.900829
vt 0.007063 0.962572
vt 0.104438 0.656534
vt 0.115834 0.767660
vt 0.006632 0.826096
vt 0.006828 0.861656
vt 0.007031 0.713783
vt 0.006627 0.656302
vt 0.006904 0.782698
vt 0.494069 0.831313
vt 0.494099 0.875070
vt 0.494168 0.734022
vt 0.494070 0.932167
vt 0.494297 0.406201
vt 0.856943 0.236094
vt 0.589046 0.236094
vt 0.589046 0.007480
vt 0.574728 0.010942
vt 0.222022 0.255839
vt 0.222231 0.105093
vt 0.222362 0.205884
vt 0.222359 0.015273
vt 0.041147 0.058960
vt 0.041319 0.250935
vt 0.041290 0.100430
vt 0.041349 0.203282
vt 0.041320 0.159296
vt 0.222411 0.159198
vt 0.041382 0.056037
vt 0.229381 0.012189
vt 0.199279 0.105590
vt 0.199585 0.059963
vt 0.191632 0.058138
vt 0.211417 0.159849
vt 0.199593 0.205158
vt 0.199469 0.254041
vt 0.199377 0.250689
vt 0.143729 0.204917
vt 0.143763 0.161529
vt 0.143796 0.105893
vt 0.143873 0.061049
vt 0.143888 0.300102
vt 0.143715 0.261176
vt 0.304440 0.006808
vt 0.290365 0.049976
vt 0.298105 0.206584
vt 0.305902 0.156161
vt 0.305568 0.097162
vt 0.303296 0.011626
vt 0.010468 0.056437
vt 0.010641 0.204475
vt 0.010642 0.253354
vt 0.010611 0.159256
vt 0.010703 0.098975
vt 0.010670 0.273594
vt 0.010550 0.014436
vt 0.092399 0.204100
vt 0.092542 0.103162
vt 0.092611 0.160364
vt 0.092589 0.250812
vt 0.092509 0.060004
vt 0.092604 0.304477
vt 0.222007 0.316403
vt 0.290163 0.299380
vt 0.092429 0.300717
vt 0.199279 0.013600
vt 0.143652 0.302305
vt 0.010464 0.298657
vt 0.041143 0.374038
vt 0.502987 0.375903
vt 0.424710 0.518431
vt 0.812349 0.521341
vt 0.731579 0.475181
vt 0.803734 0.475181
vt 0.803734 0.618457
vt 0.813471 0.166181
vt 0.517378 0.263018
vt 0.511213 0.123125
vt 0.520134 0.639384
vt 0.898309 0.621568
vt 0.935475 0.641758
vt 0.952133 0.010813
vt 0.337054 0.652003
vt 0.963376 0.608301
vt 0.691364 0.598061
vt 0.658984 0.560528
vt 0.626598 0.422500
vt 0.980739 0.463781
vt 0.853977 0.464182
vt 0.856048 0.389200
vt 0.803363 0.421014
vt 0.802657 0.435109
vt 0.775721 0.421749
vt 0.746599 0.390059
vt 0.745834 0.377580
vt 0.773419 0.615119
vt 0.737917 0.573996
vt 0.588647 0.276826
vt 0.958848 0.312835
vt 0.973996 0.330080
vt 0.989008 0.180781
vt 0.952064 0.391632
vt 0.724703 0.391638
vt 0.677918 0.374038
vt 0.502987 0.375903
vt 0.424710 0.518431
vt 0.812349 0.475181
vt 0.803734 0.521341
vt 0.731579 0.475181
vt 0.803734 0.873959
vt 0.813471 0.166181
vt 0.517378 0.263018
vt 0.511213 0.123125
vt 0.520134 0.853032
vt 0.898309 0.870848
vt 0.935475 0.850658
vt 0.952133 0.010813
vt 0.337054 0.840413
vt 0.963376 0.375251
vt 0.941593 0.372985
vt 0.907573 0.391628
vt 0.642872 0.884115
vt 0.691364 0.894355
vt 0.658984 0.391633
vt 0.594867 0.560528
vt 0.626598 0.369667
vt 0.972172 0.422500
vt 0.980739 0.005084
vt 0.535551 0.007480
vt 0.574728 0.463781
vt 0.853977 0.464182
vt 0.856048 0.389200
vt 0.803363 0.421014
vt 0.802657 0.435109
vt 0.775721 0.421749
vt 0.746599 0.390059
vt 0.745834 0.377580
vt 0.773419 0.877297
vt 0.737917 0.391638
vt 0.543478 0.391649
vt 0.481671 0.573996
vt 0.588647 0.007286
vt 0.681871 0.007286
vt 0.625628 0.007286
vt 0.777940 0.007286
vt 0.850643 0.007286
vt 0.911897 0.276826
vt 0.958848 0.312835
vt 0.973996 0.330080
vt 0.989008 0.007286
vt 0.980334 0.395251
vt 0.438479 0.440915
vt 0.437441 0.472803
vt 0.438424 0.580126
vt 0.554892 0.621669
vt 0.517389 0.520944
vt 0.417026 0.180781
vt 0.952064 0.469914
vt 0.263410 0.438990
vt 0.239867 0.469914
vt 0.263410 0.439536
vt 0.239410 0.931893
vt 0.799651 0.917045
vt 0.791846 0.942076
vt 0.807537 0.924077
vt 0.509938 0.924077
vt 0.522081 0.924077
vt 0.540080 0.996113
vt 0.953979 0.996113
vt 0.913626 0.917045
vt 0.791846 0.931893
vt 0.799651 0.996113
vt 0.994332 0.942076
vt 0.807537 0.924077
vt 0.650991 0.924077
vt 0.641125 0.924077
vt 0.628480 0.931893
vt 0.799651 0.917045
vt 0.791846 0.942076
vt 0.807537 0.924077
vt 0.509938 0.924077
vt 0.522081 0.924077
vt 0.540080 0.996113
vt 0.953979 0.996113
vt 0.913626 0.917045
vt 0.791846 0.931893
vt 0.799651 0.996113
vt 0.994332 0.942076
vt 0.807537 0.924077
vt 0.650991 0.924077
vt 0.641125 0.924077
vt 0.628480 0.898932
vt 0.702746 0.965311
vt 0.702746 0.898932
vt 0.769916 0.965311
vt 0.769916 0.531799
vt 0.746227 0.607643
vt 0.746227 0.531799
vt 0.842608 0.607643
vt 0.842608 0.531799
vt 0.746227 0.607643
vt 0.746227 0.326060
vt 0.226875 0.428416
vt 0.226875 0.326060
vt 0.226875 0.428416
vt 0.226875 0.175408
vt 0.789806 0.230973
vt 0.789806 0.175408
vt 0.907074 0.230973
vt 0.907074 0.175408
vt 0.789806 0.230973
vt 0.789806 0.175408
vt 0.907074 0.230973
vt 0.907074 0.326060
vt 0.226875 0.428416
vt 0.226875 0.326060
vt 0.227615 0.428416
vt 0.227615 0.326060
vt 0.226875 0.428416
vt 0.226875 0.326060
vt 0.219409 0.428416
vt 0.219409 0.326060
vt 0.219409 0.428416
vt 0.219409 0.987020
vt 0.388979 0.968848
vt 0.203007 0.596074
vt 0.185110 0.599050
vt 0.104966 0.588815
vt 0.317018 0.602270
vt 0.006810 0.994718
vt 0.399079 0.402535
vt 0.821773 0.381552
vt 0.831075 0.435139
vt 0.858460 0.423759
vt 0.887065 0.423777
vt 0.829423 0.390375
vt 0.887882 0.374574
vt 0.861913 0.572388
vt 0.399381 0.610473
vt 0.408730 0.987020
vt 0.388979 0.968848
vt 0.203007 0.596074
vt 0.185110 0.599050
vt 0.104966 0.588815
vt 0.317018 0.602270
vt 0.006810 0.954910
vt 0.413502 0.994718
vt 0.399079 0.940313
vt 0.444352 0.932167
vt 0.494297 0.617026
vt 0.421734 0.629247
vt 0.445985 0.381552
vt 0.831075 0.402535
vt 0.821773 0.435139
vt 0.858460 0.423777
vt 0.829423 0.423759
vt 0.887065 0.374574
vt 0.861913 0.390375
vt 0.887882 0.316403
vt 0.290163 0.304477
vt 0.222007 0.299380
vt 0.092429 0.300717
vt 0.199279 0.013600
vt 0.143652 0.302305
vt 0.010464 0.298657
vt 0.041143 1.000000

f 937/937 545/545 936/936
f 545/545 937/937 544/544
f 941/941 553/553 940/940
f 553/553 941/941 552/552
f 352/352 351/351 365/365
f 890/890 363/363 365/365
f 891/891 890/890 365/365
f 366/366 891/891 362/362
f 892/892 368/368 362/362
f 890/890 892/892 362/362
f 363/363 890/890 374/374
f 374/374 372/372 390/390
f 898/898 393/393 390/390
f 899/899 898/898 390/390
f 386/386 899/899 901/901
f 899/899 386/386 901/901
f 899/899 385/385 404/404
f 404/404 403/403 422/422
f 905/905 418/418 422/422
f 906/906 905/905 422/422
f 424/424 906/906 417/417
f 907/907 427/427 417/417
f 905/905 907/907 417/417
f 418/418 905/905 435/435
f 435/435 433/433 449/449
f 913/913 450/450 449/449
f 914/914 913/913 449/449
f 448/448 914/914 916/916
f 914/914 448/448 916/916
f 914/914 446/446 934/934
f 934/934 543/543 938/938
f 1/1 349/349 347/347
f 350/350 347/347 349/349
