# MOD converted: e_m_costume_hiphop_body02.mod
# 598 verts, 747 faces

v 91.332573 -7.719423 8.909032
v 92.419701 7.857614 12.340746
v 91.860428 -0.145837 0.000000
v 91.124298 -10.698753 -0.000001
v 92.554398 9.789556 20.903700
v 107.147011 0.097275 20.847599
v 107.011986 7.012722 23.544399
v 111.303970 9.739459 23.831299
v 111.622025 -2.814381 26.166800
v 115.728004 0.264476 26.184200
v 115.865982 7.207063 -0.000000
v 122.202003 -2.804394 5.519420
v 123.341003 -0.288286 5.644170
v 125.978996 5.143855 0.000000
v 126.774002 8.180904 0.000000
v 98.046051 -10.960112 8.847207
v 98.209358 -7.853009 11.724611
v 98.617065 -0.095864 8.531590
v 99.057678 8.306238 -0.000000
v 99.167557 10.377835 28.039497
v 103.616982 6.144451 28.232899
v 103.764008 0.468581 33.137096
v 111.676987 6.044340 30.670498
v 107.721016 -1.842650 45.882812
v 92.817688 5.221415 48.243694
v 96.572586 7.532944 45.628487
v 92.772888 -0.169286 50.570679
v 100.195763 5.665368 48.018120
v 96.520889 -3.080507 32.970798
v 111.517006 0.175166 50.401733
v 100.354179 -0.967911 29.872000
v 108.091988 8.631719 30.468100
v 102.177010 5.724667 35.256195
v 110.276001 6.031682 33.851303
v 105.701004 8.413171 31.771603
v 106.961990 8.656331 35.132000
v 110.077995 0.107373 32.968903
v 106.254997 -1.954781 30.569302
v 102.282997 0.415611 12.381100
v 119.929710 -0.047467 12.000801
v 120.834602 8.814472 11.164601
v 107.776001 -5.939741 10.554201
v 115.746796 11.527065 12.968102
v 109.423378 -0.052572 13.338786
v 108.733078 7.789253 12.403701
v 115.312866 -3.414990 16.983803
v 120.301323 8.617760 12.752402
v 122.254478 4.803536 15.642730
v 110.448479 7.389400 15.068601
v 115.145958 10.885550 18.071800
v 114.258492 9.937145 14.426599
v 110.798111 0.056470 16.915600
v 120.207321 0.023263 18.004602
v 114.417427 -2.300352 21.556000
v 118.715988 7.313936 17.456701
v 121.242912 4.476809 21.422401
v 118.681007 0.616407 7.038140
v 115.216003 -6.975935 0.000000
v 107.180305 -10.876550 7.382101
v 107.281311 -9.748431 -0.000000
v 115.153000 -8.612533 0.000000
v 116.402000 11.867847 0.000000
v 122.284187 10.394042 -0.000001
v 119.448997 -5.397123 6.144640
v 119.654846 -4.209295 8.725971
v 121.672226 -0.155861 9.315511
v 123.751236 5.016968 6.170480
v 122.458954 9.675856 15.331702
v 115.231316 -2.552438 9.714610
v 107.887329 10.670421 -0.000001
v 108.119003 11.900848 5.446900
v 132.238007 4.085382 4.901290
v 130.072998 -1.005236 -0.000000
v 133.220993 6.875414 0.000001
v 128.725998 -3.807696 35.612404
v 98.507599 -0.413997 38.209106
v 102.814011 -3.251600 40.890598
v 106.899002 -0.883256 40.991196
v 106.862000 6.128328 38.138882
v 102.794975 8.740200 35.588295
v 98.507301 5.738882 41.660862
v 95.151085 5.433635 43.992840
v 99.190201 8.040808 43.956249
v 99.126808 -3.151356 41.614635
v 95.071014 -0.267352 46.292316
v 103.173027 5.872134 46.296013
v 103.179413 -0.931368 -9.520352
v 91.332573 -7.719426 -8.909031
v 92.419701 7.857615 -12.340746
v 91.860428 -0.145837 -20.903698
v 107.147003 0.097292 -20.847601
v 107.012001 7.012740 -23.544407
v 111.304016 9.739458 -23.831303
v 111.622002 -2.814381 -26.166801
v 115.727997 0.264460 -26.184200
v 115.865997 7.207047 -5.519420
v 123.341003 -0.288288 -5.644170
v 125.978996 5.143854 -8.847206
v 98.209358 -7.853010 -11.724611
v 98.617065 -0.095865 -8.531590
v 99.057678 8.306238 -28.039497
v 103.616989 6.144460 -28.232899
v 103.763992 0.468595 -33.137096
v 111.677002 6.044328 -30.670502
v 107.721001 -1.842651 -45.882812
v 92.817688 5.221412 -48.243698
v 96.572586 7.532944 -45.628483
v 92.772888 -0.169289 -50.570679
v 100.195763 5.665369 -48.018120
v 96.520897 -3.080507 -32.970798
v 111.516998 0.175151 -50.401733
v 100.354179 -0.967909 -29.872000
v 108.091995 8.631717 -30.468100
v 102.177010 5.724670 -35.256199
v 110.276001 6.031679 -33.851295
v 105.701004 8.413170 -31.771599
v 106.962006 8.656331 -35.132000
v 110.077995 0.107372 -32.968899
v 106.254990 -1.954781 -30.569298
v 102.282997 0.415612 -12.381100
v 119.931999 -0.045495 -12.000801
v 120.829994 8.817046 -11.164600
v 107.776001 -5.939741 -10.554200
v 115.742004 11.526049 -12.968100
v 109.424004 -0.054169 -13.338787
v 108.732010 7.787529 -12.403701
v 115.316010 -3.415903 -16.983801
v 120.297997 8.620026 -12.752400
v 122.252998 4.807286 -15.642732
v 110.447075 7.387588 -15.068601
v 115.141998 10.884847 -18.071800
v 114.254997 9.936347 -14.426599
v 110.799004 0.054679 -16.915600
v 120.209000 0.025468 -18.004602
v 114.419998 -2.301082 -21.556000
v 118.716003 7.313917 -17.456699
v 121.241997 4.479655 -21.422401
v 118.681000 0.616390 -7.038140
v 115.216003 -6.975935 -7.382099
v 107.281311 -9.748432 -6.144641
v 119.658997 -4.208763 -8.725970
v 121.674004 -0.153882 -9.315511
v 123.750000 5.020175 -6.170481
v 122.455002 9.677944 -15.331702
v 115.234001 -2.553073 -9.714610
v 107.883011 10.665150 -5.446900
v 132.238007 4.085383 -4.901289
v 130.072998 -1.005237 -35.612400
v 98.507599 -0.414000 -38.209099
v 102.813995 -3.251600 -40.890598
v 106.899002 -0.883255 -40.991199
v 106.862000 6.128329 -38.138889
v 102.794975 8.740200 -35.588299
v 98.507301 5.738881 -41.660862
v 95.151093 5.433635 -43.992844
v 99.190201 8.040807 -43.956261
v 99.126846 -3.151356 -41.614628
v 95.071022 -0.267355 -46.292320
v 103.173019 5.872135 -46.296009
v 103.179405 -0.931366 5.778976
v 98.423965 -14.569280 4.086351
v 94.390327 -15.223497 0.000000
v 92.719536 -15.494477 -4.086351
v 94.390327 -15.223497 -5.778976
v 98.423965 -14.569280 -4.086354
v 102.457611 -13.915051 0.000000
v 104.128403 -13.644067 4.086354
v 102.457611 -13.915053 4.086358
v 102.212845 -12.159081 0.000000
v 103.883636 -11.888097 -4.086351
v 102.212845 -12.159082 -5.778975
v 98.179199 -12.813311 -4.086350
v 94.145554 -13.467529 0.000000
v 92.474770 -13.738509 4.086350
v 94.145554 -13.467529 5.778975
v 98.179199 -12.813311 1.390842
v 102.780479 -13.194758 0.000000
v 103.204842 -13.125930 8.518535
v 125.102852 4.631140 7.295907
v 126.104538 4.440267 7.409766
v 123.014053 -1.012812 7.366945
v 119.748177 -4.500024 6.445568
v 115.240463 -8.737826 4.400360
v 110.040077 -11.710644 5.739838
v 109.552696 -11.779472 7.834950
v 114.690056 -8.806657 8.790146
v 119.308762 -4.568790 8.980296
v 122.582001 -1.073912 4.841352
v 126.136154 7.374362 4.894808
v 127.337547 6.824844 0.000000
v 126.715805 9.103308 0.000000
v 127.917519 8.597221 -1.390841
v 102.780479 -13.194758 -8.518534
v 125.101837 4.634995 -7.295906
v 126.103645 4.444521 -7.409765
v 123.016335 -1.010257 -7.366944
v 119.752502 -4.499285 -6.445565
v 115.240463 -8.737827 -4.400359
v 110.040077 -11.710645 -5.739838
v 109.552696 -11.779473 -7.834950
v 114.690063 -8.806657 -8.790142
v 119.313118 -4.568113 -8.980297
v 122.584328 -1.071396 -4.841352
v 126.133545 7.378320 -4.894808
v 127.335251 6.829476 9.778994
v 22.092690 -2.668699 9.783185
v 22.091917 10.547741 20.712166
v 22.094400 4.780837 7.254449
v 22.091612 3.989032 19.161674
v 22.093691 -2.290006 17.201181
v 22.093615 10.735140 11.846597
v 45.985397 -6.410856 16.562500
v 47.054497 -3.579614 6.983570
v 46.225998 -4.350835 20.219301
v 39.115204 4.019583 15.545598
v 39.438503 10.934764 7.938620
v 39.078903 11.214364 4.905759
v 37.495201 3.546324 14.499199
v 22.093184 -4.422832 -9.778996
v 22.092693 -2.668700 -9.783185
v 22.091917 10.547741 -20.712166
v 22.094402 4.780833 -7.254453
v 22.091612 3.989042 -19.161674
v 22.093691 -2.290004 -17.201181
v 22.093615 10.735140 -11.846598
v 45.985397 -6.410856 -16.562500
v 47.054504 -3.579617 -6.983572
v 46.226002 -4.350837 -20.219303
v 39.115204 4.019586 -15.545598
v 39.438503 10.934765 -7.938621
v 39.078896 11.214365 -4.905760
v 37.495201 3.546329 -14.499201
v 22.093184 -4.422832 7.925181
v 73.903114 -11.658243 19.106871
v 72.051559 1.549832 14.648757
v 76.304314 -7.964559 10.581115
v 74.416809 14.483364 16.628174
v 76.760780 8.690663 0.486944
v 64.120102 0.676234 1.554578
v 65.589912 -8.969390 22.929970
v 64.339943 6.882847 10.104541
v 59.990963 -12.771941 2.966179
v 58.657555 -9.543643 0.718693
v 58.118465 1.767437 11.735152
v 69.819878 12.785908 17.106991
v 62.561756 -9.369503 3.919955
v 50.846230 -10.917973 1.732030
v 41.926090 3.298071 5.667761
v 43.990341 15.404981 17.078430
v 44.852451 15.212871 18.849064
v 52.498756 -10.529452 24.012468
v 44.081337 2.969246 3.958337
v 58.762993 13.659093 14.089445
v 61.268826 13.482453 12.123678
v 45.528267 -13.888089 4.431538
v 45.323479 -10.720899 19.740961
v 46.687115 -10.112429 12.578030
v 40.897728 -12.505575 20.222298
v 42.575207 -8.063227 4.947716
v 41.275246 -9.273308 2.469720
v 65.038109 12.630015 11.326828
v 51.471142 -14.074314 -0.000000
v 65.849808 -9.612722 24.019634
v 48.967262 2.798242 16.756861
v 48.368130 14.505251 5.410584
v 47.232571 14.725060 1.369931
v 45.479816 2.856268 8.592248
v 69.480316 -11.655436 15.452815
v 71.788719 -8.300822 0.932842
v 69.126076 14.445512 17.492390
v 71.156235 9.031192 23.873945
v 50.559849 2.439527 15.547008
v 53.922371 15.131391 4.742894
v 52.096432 15.284029 0.817776
v 50.945412 2.551462 13.886389
v 81.373375 -7.835500 9.085690
v 83.065353 13.709134 16.440804
v 82.052734 0.565269 7.177712
v 81.054192 -11.663420 14.844928
v 82.567467 8.102718 18.006973
v 77.380875 0.922200 20.144741
v 63.653397 -5.881197 23.468075
v 51.297714 -5.055600 18.832699
v 63.737843 10.200343 21.052834
v 51.523720 10.247561 18.387327
v 71.292107 -5.609994 20.943134
v 69.719193 6.591271 23.804232
v 54.167038 6.792357 23.317213
v 64.739357 -1.848541 25.160200
v 53.992138 -1.752779 21.970634
v 69.783173 -1.963942 0.434246
v 35.901398 4.576125 4.750440
v 35.065380 -9.481421 18.542824
v 38.912796 18.683565 5.760839
v 38.283684 18.939758 13.295984
v 35.182186 -13.682232 22.743851
v 36.361237 -7.917329 27.071476
v 38.035145 4.423390 13.403337
v 31.769180 2.431910 3.951675
v 33.575745 4.053770 7.216391
v 32.722076 -6.579185 17.452618
v 35.679508 14.724460 7.980644
v 35.156349 14.918241 13.483973
v 33.031746 -9.756623 20.630220
v 33.749550 -5.396124 23.964321
v 35.064270 3.577328 -0.000001
v 64.687462 0.604773 0.000001
v 66.457321 8.694963 -0.000000
v 83.175751 14.861811 0.000001
v 72.603607 -12.652293 0.000000
v 75.176765 15.371415 -7.925178
v 73.903122 -11.658244 -19.106869
v 72.051559 1.549833 -14.648759
v 76.304321 -7.964557 -10.581115
v 74.416824 14.483364 -16.628174
v 76.760780 8.690665 -0.486942
v 64.120102 0.676229 -1.554580
v 65.589912 -8.969392 -22.929968
v 64.339943 6.882850 -10.104541
v 59.990955 -12.771941 -2.966176
v 58.657551 -9.543641 -0.718692
v 58.118469 1.767440 -11.735151
v 69.819893 12.785909 -17.106989
v 62.561764 -9.369502 -3.919954
v 50.846230 -10.917972 -1.732030
v 41.926090 3.298078 -5.667761
v 43.990341 15.404981 -17.078428
v 44.852451 15.212869 -18.849066
v 52.498760 -10.529449 -24.012468
v 44.081337 2.969250 -3.958338
v 58.762989 13.659094 -14.089444
v 61.268822 13.482453 -12.123680
v 45.528271 -13.888090 -4.431542
v 45.323475 -10.720901 -19.740963
v 46.687111 -10.112430 -12.578030
v 40.897728 -12.505575 -20.222298
v 42.575207 -8.063225 -4.947715
v 41.275246 -9.273306 -2.469719
v 65.038116 12.630015 -11.326829
v 51.471142 -14.074315 -24.019632
v 48.967262 2.798251 -16.756861
v 48.368134 14.505253 -5.410586
v 47.232571 14.725064 -1.369931
v 45.479816 2.856276 -8.592246
v 69.480316 -11.655437 -15.452812
v 71.788719 -8.300825 -0.932841
v 69.126083 14.445510 -17.492390
v 71.156235 9.031191 -23.873945
v 50.559849 2.439534 -15.547008
v 53.922371 15.131389 -4.742895
v 52.096439 15.284031 -0.817777
v 50.945404 2.551464 -13.886386
v 81.373375 -7.835505 -9.085690
v 83.065361 13.709134 -16.440804
v 82.052734 0.565272 -7.177712
v 81.054192 -11.663420 -14.844929
v 82.567467 8.102716 -18.006973
v 77.380882 0.922200 -20.144739
v 63.653397 -5.881199 -23.468075
v 51.297718 -5.055599 -18.832699
v 63.737843 10.200343 -21.052832
v 51.523724 10.247561 -18.387329
v 71.292107 -5.609996 -20.943134
v 69.719193 6.591272 -23.804228
v 54.167027 6.792357 -23.317217
v 64.739357 -1.848540 -25.160198
v 53.992130 -1.752775 -21.970636
v 69.783173 -1.963946 -0.434247
v 35.901398 4.576130 -4.750437
v 35.065380 -9.481418 -18.542824
v 38.912796 18.683563 -5.760839
v 38.283684 18.939758 -13.295989
v 35.182182 -13.682234 -22.743851
v 36.361237 -7.917329 -27.071478
v 38.035145 4.423397 -13.403337
v 31.769178 2.431910 -3.951675
v 33.575745 4.053770 -7.216390
v 32.722076 -6.579184 -17.452618
v 35.679508 14.724460 -7.980643
v 35.156353 14.918241 -13.483974
v 33.031746 -9.756624 -20.630222
v 33.749546 -5.396123 -23.964319
v 35.064270 3.577335 0.000001
v 80.945847 -13.592458 -2.525478
v 95.880630 -15.429502 -3.571569
v 98.373535 -15.025179 -2.525479
v 100.866447 -14.620846 0.000000
v 101.899040 -14.453369 2.525479
v 100.866447 -14.620846 3.571569
v 98.373535 -15.025179 2.525479
v 95.880630 -15.429502 0.000000
v 94.848030 -15.596974 -2.262772
v 95.803894 -13.047885 -3.200041
v 98.037476 -12.685619 -2.262770
v 100.271065 -12.323348 0.000000
v 101.196251 -12.173291 2.262777
v 100.271065 -12.323347 3.200047
v 98.037476 -12.685617 2.262772
v 95.803894 -13.047884 0.000000
v 94.878708 -13.197934 -1.488627
v 94.640587 -14.903916 1.499120
v 94.640587 -14.903915 -3.580913
v 96.820206 -14.576065 -0.626634
v 97.608765 -14.457453 0.637124
v 97.608765 -14.457454 3.591402
v 96.820206 -14.576065 -3.580911
v 99.553429 -14.164945 -0.626636
v 98.764862 -14.283555 0.637120
v 98.764862 -14.283555 3.591400
v 99.553429 -14.164946 -1.488626
v 101.733047 -13.837094 1.499116
v 101.733047 -13.837095 -0.000001
v 79.515816 -16.738342 0.000000
v 89.029297 -14.749266 0.000433
v 87.597809 15.432767 -0.000000
v 79.211548 18.564657 -0.000002
v 68.059059 -18.260624 17.149582
v 122.189735 -0.527175 17.648674
v 123.004097 8.778617 11.529051
v 79.514435 -15.063573 12.757753
v 68.085800 -16.664873 10.827462
v 97.851044 -11.819073 22.739334
v 67.939041 -8.423178 12.298148
v 96.208839 12.225705 15.571435
v 68.787933 17.571775 9.820168
v 112.678719 13.500453 15.887801
v 107.106003 -5.608161 15.865542
v 115.638603 -5.090168 15.510641
v 114.544464 12.089733 16.069017
v 97.599312 -5.672238 18.312542
v 88.434433 4.021173 19.238155
v 79.515465 -7.405928 21.646170
v 79.511253 5.127807 25.065601
v 68.089874 5.645418 15.145301
v 79.346710 16.162922 16.250690
v 106.955513 12.148137 10.782214
v 88.848763 -13.067527 16.594280
v 88.323143 -6.672072 12.919505
v 88.128136 12.469156 7.305911
v 88.089828 15.105929 16.850433
v 96.880936 4.925969 10.851935
v 107.664955 -10.048367 9.899881
v 117.837440 -6.061105 10.588356
v 124.091408 -0.362963 10.469630
v 124.964523 8.847687 7.982050
v 118.947823 12.586754 6.481721
v 111.144417 -10.668842 -0.000001
v 112.233833 14.818213 0.000000
v 108.238029 -12.041524 -0.000001
v 68.792252 20.063095 20.943130
v 122.191750 -0.523818 21.442223
v 123.000656 8.782491 17.463684
v 107.107857 -3.628242 19.205095
v 115.642578 -5.090551 18.850189
v 114.539864 12.088795 17.826572
v 106.953468 10.164306 -0.000001
v 95.156761 14.480917 0.000000
v 97.453835 -13.621161 -17.149580
v 122.191727 -0.523844 -17.648672
v 123.000679 8.782459 -11.529056
v 79.514435 -15.063572 -12.757751
v 68.085800 -16.664873 -10.827461
v 97.851044 -11.819074 -22.739336
v 67.939041 -8.423175 -12.298148
v 96.208839 12.225706 -15.571435
v 68.787933 17.571777 -9.820168
v 112.672821 13.497723 -15.887801
v 107.107857 -5.610100 -15.865542
v 115.642548 -5.090555 -15.510639
v 114.539902 12.088793 -16.069017
v 97.599312 -5.672240 -18.312542
v 88.434433 4.021173 -19.238155
v 79.515472 -7.405929 -21.646172
v 79.511261 5.127805 -25.065598
v 68.089882 5.645420 -15.145302
v 79.346710 16.162920 -16.250690
v 106.953491 12.146184 -10.782215
v 88.848770 -13.067529 -16.594278
v 88.323143 -6.672078 -12.919506
v 88.128136 12.469154 -7.305910
v 88.089828 15.105927 -16.850433
v 96.880936 4.925970 -10.851933
v 107.664955 -10.048368 -9.899875
v 117.837440 -6.061110 -10.588355
v 124.093376 -0.359287 -10.469628
v 124.960915 8.851848 -7.982050
v 118.947823 12.586754 -6.481720
v 111.144409 -10.668841 -20.943127
v 122.191727 -0.523843 -21.442221
v 123.000679 8.782460 -17.463684
v 107.107849 -3.628231 -19.205097
v 115.642548 -5.090554 -18.850189
v 114.539902 12.088794 -17.826574
v 106.953484 10.164313 0.000000
v 117.161873 13.908340 23.849749
v 65.228966 8.580082 25.108339
v 58.789032 0.661487 26.406565
v 63.638702 0.558224 21.990427
v 60.316589 9.019048 22.974312
v 65.670609 -6.925286 12.988826
v 66.781685 -13.348804 15.315029
v 70.705887 -12.025969 21.160320
v 61.216423 -8.095535 15.443168
v 63.865738 13.400519 17.644350
v 68.708878 12.668262 8.278157
v 77.511703 -9.254603 6.100220
v 73.428497 -10.328063 4.946217
v 71.891762 12.849029 6.661004
v 76.612419 12.923819 24.424109
v 61.591648 9.369285 26.005468
v 55.737457 0.675415 22.582304
v 57.414577 9.851221 12.699449
v 64.512589 -14.706452 21.670937
v 58.402496 -8.938881 23.462967
v 62.076527 -7.654071 15.053841
v 67.604752 -13.254109 27.231241
v 59.845680 0.561875 15.394068
v 61.311172 14.661640 17.611202
v 65.412247 13.857696 5.136442
v 71.591461 -11.743073 7.328053
v 74.858185 -10.564517 3.869465
v 69.993546 14.317160 5.552579
v 73.960152 14.399277 12.340746
v 91.860428 -0.145837 11.724611
v 98.617065 -0.095864 28.039497
v 103.616982 6.144451 20.847599
v 107.011986 7.012722 30.468100
v 102.177010 5.724667 35.588295
v 98.507301 5.738882 15.642730
v 110.448479 7.389400 13.338786
v 108.733078 7.789253 41.660862
v 95.151085 5.433635 45.882812
v 92.817688 5.221415 -12.340746
v 91.860428 -0.145837 -11.724611
v 98.617065 -0.095865 -20.847601
v 107.012001 7.012740 -28.039497
v 103.616989 6.144460 -30.468100
v 102.177010 5.724670 -35.588299
v 98.507301 5.738881 -15.642732
v 110.447075 7.387588 -13.338787
v 108.732010 7.787529 -41.660862
v 95.151093 5.433635 -45.882812
v 92.817688 5.221412 0.000000
v 103.204842 -13.125930 0.000000
v 126.715805 9.103308 0.000000
v 127.917519 8.597221 4.905759
v 37.495201 3.546324 7.254449
v 22.091612 3.989032 -4.905760
v 37.495201 3.546329 -7.254453
v 22.091612 3.989042 0.486944
v 64.120102 0.676234 1.369931
v 45.479816 2.856268 0.817776
v 50.945412 2.551462 0.718693
v 58.118465 1.767437 -0.000001
v 64.687462 0.604773 1.732030
v 41.926090 3.298071 0.434246
v 35.901398 4.576125 3.951675
v 33.575745 4.053770 0.000001
v 66.457321 8.694963 -0.000001
v 64.687462 0.604773 -0.486942
v 64.120102 0.676229 -1.369931
v 45.479816 2.856276 -0.817777
v 50.945404 2.551464 -0.718692
v 58.118469 1.767440 -0.000000
v 65.849808 -9.612722 -0.000001
v 64.687462 0.604773 -1.732030
v 41.926090 3.298078 0.000001
v 72.603607 -12.652293 0.000000
v 75.176765 15.371415 0.000001
v 80.945847 -13.592458 -0.000000
v 83.175751 14.861811 -0.434247
v 35.901398 4.576130 -3.951675
v 33.575745 4.053770 18.312542
v 88.434433 4.021173 21.646170
v 79.511253 5.127807 25.065601
v 68.089874 5.645418 16.850433
v 96.880936 4.925969 17.648674
v 123.004097 8.778617 10.469630
v 124.964523 8.847687 21.442223
v 123.000656 8.782491 0.000000
v 97.453835 -13.621161 0.000000
v 89.029297 -14.749266 -0.000001
v 79.515816 -16.738342 -0.000002
v 68.059059 -18.260624 0.000000
v 108.238029 -12.041524 -21.646172
v 79.511261 5.127805 -18.312542
v 88.434433 4.021173 -25.065598
v 68.089882 5.645420 -0.000001
v 95.156761 14.480917 -0.000001
v 68.792252 20.063095 -0.000000
v 79.211548 18.564657 -0.000001
v 112.233833 14.818213 0.000433
v 87.597809 15.432767 -16.850433
v 96.880936 4.925970 -17.648672
v 123.000679 8.782459 -10.469628
v 124.960915 8.851848 0.000000
v 117.161873 13.908340 -21.442221
v 123.000679 8.782460 0.635785

vt 0.511387 0.231334
vt 0.895886 0.190444
vt 0.877415 0.421917
vt 0.511809 0.276305
vt 0.929652 0.204777
vt 0.604733 0.204738
vt 0.808216 0.204760
vt 0.773684 0.204781
vt 0.648405 0.204780
vt 0.688741 0.204774
vt 0.735938 0.421871
vt 0.663953 0.381838
vt 0.700614 0.375280
vt 0.759890 0.383729
vt 0.811146 0.421917
vt 0.511809 0.364215
vt 0.511387 0.314003
vt 0.510075 0.231334
vt 0.895886 0.276305
vt 0.929652 0.161821
vt 0.804906 0.161999
vt 0.609000 0.162098
vt 0.729590 0.162100
vt 0.648962 0.036882
vt 0.801434 0.037022
vt 0.766487 0.037008
vt 0.612915 0.037048
vt 0.733313 0.037030
vt 0.651036 0.162139
vt 0.686230 0.037077
vt 0.686301 0.167710
vt 0.768833 0.143627
vt 0.803908 0.143877
vt 0.729192 0.137513
vt 0.765691 0.153340
vt 0.767151 0.143886
vt 0.685786 0.143789
vt 0.649541 0.143717
vt 0.610437 0.320108
vt 0.684784 0.304710
vt 0.768232 0.340377
vt 0.563775 0.286905
vt 0.807873 0.290819
vt 0.575864 0.240993
vt 0.836408 0.320307
vt 0.630399 0.276619
vt 0.754884 0.314404
vt 0.733352 0.237696
vt 0.819699 0.264998
vt 0.794042 0.244209
vt 0.783774 0.272001
vt 0.585800 0.287660
vt 0.691949 0.264922
vt 0.643438 0.245782
vt 0.740506 0.281558
vt 0.725639 0.251772
vt 0.693219 0.371170
vt 0.614479 0.421916
vt 0.562555 0.377250
vt 0.563625 0.421884
vt 0.606938 0.338300
vt 0.853168 0.361434
vt 0.827864 0.421868
vt 0.639598 0.374696
vt 0.652965 0.351592
vt 0.692373 0.340738
vt 0.743292 0.338614
vt 0.791105 0.291000
vt 0.640733 0.262031
vt 0.853482 0.305145
vt 0.890561 0.409325
vt 0.765305 0.416427
vt 0.725935 0.410873
vt 0.805382 0.438335
vt 0.699914 0.099201
vt 0.613116 0.099227
vt 0.649732 0.099251
vt 0.684440 0.099310
vt 0.728946 0.099320
vt 0.764820 0.099128
vt 0.802777 0.062410
vt 0.801985 0.063229
vt 0.765786 0.062785
vt 0.650496 0.061931
vt 0.612996 0.064855
vt 0.731363 0.063916
vt 0.685498 0.364215
vt 0.511387 0.231334
vt 0.895886 0.190444
vt 0.877415 0.204777
vt 0.604733 0.204738
vt 0.808216 0.204760
vt 0.773684 0.204781
vt 0.648405 0.204780
vt 0.688741 0.204774
vt 0.735938 0.381838
vt 0.700614 0.375280
vt 0.759890 0.364215
vt 0.511387 0.314003
vt 0.510075 0.231334
vt 0.895886 0.161821
vt 0.804906 0.161999
vt 0.609000 0.162098
vt 0.729590 0.162100
vt 0.648962 0.036882
vt 0.801434 0.037022
vt 0.766487 0.037008
vt 0.612915 0.037048
vt 0.733313 0.037030
vt 0.651036 0.162139
vt 0.686230 0.037077
vt 0.686301 0.167710
vt 0.768833 0.143627
vt 0.803908 0.143877
vt 0.729192 0.137513
vt 0.765691 0.153340
vt 0.767151 0.143886
vt 0.685786 0.143789
vt 0.649541 0.143717
vt 0.610437 0.320108
vt 0.684784 0.304710
vt 0.768232 0.340377
vt 0.563775 0.286905
vt 0.807873 0.290819
vt 0.575864 0.240993
vt 0.836408 0.320307
vt 0.630399 0.276619
vt 0.754884 0.314404
vt 0.733352 0.237696
vt 0.819699 0.264998
vt 0.794042 0.244209
vt 0.783774 0.272001
vt 0.585800 0.287660
vt 0.691949 0.264922
vt 0.643438 0.245782
vt 0.740506 0.281558
vt 0.725639 0.251772
vt 0.693219 0.371170
vt 0.614479 0.377250
vt 0.563625 0.374696
vt 0.652965 0.351592
vt 0.692373 0.340738
vt 0.743292 0.338614
vt 0.791105 0.291000
vt 0.640733 0.262031
vt 0.853482 0.409325
vt 0.765305 0.416427
vt 0.725935 0.099201
vt 0.613116 0.099227
vt 0.649732 0.099251
vt 0.684440 0.099310
vt 0.728946 0.099320
vt 0.764820 0.099128
vt 0.802777 0.062410
vt 0.801985 0.063229
vt 0.765786 0.062785
vt 0.650496 0.061931
vt 0.612996 0.064855
vt 0.731363 0.063916
vt 0.685498 0.699914
vt 0.353497 0.600880
vt 0.312473 0.559862
vt 0.213437 0.600880
vt 0.312473 0.699914
vt 0.353497 0.798949
vt 0.312479 0.839974
vt 0.213445 0.798949
vt 0.312479 0.817765
vt 0.331296 0.866584
vt 0.213446 0.817765
vt 0.331296 0.699913
vt 0.380108 0.582063
vt 0.331289 0.533251
vt 0.213436 0.582063
vt 0.331289 0.699913
vt 0.380108 0.993123
vt 0.955137 0.993048
vt 0.990105 0.217163
vt 0.955130 0.217096
vt 0.989958 0.371854
vt 0.990420 0.490502
vt 0.990033 0.646297
vt 0.990133 0.801062
vt 0.990099 0.801277
vt 0.955137 0.646578
vt 0.955133 0.490550
vt 0.955133 0.372210
vt 0.955135 0.125137
vt 0.955154 0.126231
vt 0.989941 0.006774
vt 0.955152 0.006906
vt 0.989938 0.993123
vt 0.955137 0.217163
vt 0.955130 0.217096
vt 0.989958 0.371854
vt 0.990420 0.490502
vt 0.990033 0.646297
vt 0.990133 0.801062
vt 0.990099 0.801277
vt 0.955137 0.646578
vt 0.955133 0.490550
vt 0.955133 0.372210
vt 0.955135 0.125137
vt 0.955154 0.126231
vt 0.989941 0.946859
vt 0.083372 0.783035
vt 0.083253 0.857038
vt 0.083208 0.983369
vt 0.083334 0.894943
vt 0.083262 0.821251
vt 0.083196 0.922532
vt 0.211632 0.893837
vt 0.211736 0.949526
vt 0.211781 0.856740
vt 0.165154 0.816916
vt 0.166257 0.780478
vt 0.167126 0.989162
vt 0.165703 0.921062
vt 0.083336 0.946859
vt 0.083372 0.783035
vt 0.083253 0.857038
vt 0.083208 0.983369
vt 0.083334 0.894943
vt 0.083262 0.821251
vt 0.083196 0.922532
vt 0.211632 0.893837
vt 0.211736 0.949526
vt 0.211781 0.856740
vt 0.165154 0.816916
vt 0.166257 0.780478
vt 0.167126 0.989162
vt 0.165703 0.921062
vt 0.083336 0.391109
vt 0.427574 0.255124
vt 0.397734 0.328943
vt 0.434227 0.147650
vt 0.423785 0.204599
vt 0.430133 -0.005424
vt 0.355150 0.466064
vt 0.380246 0.224178
vt 0.314575 0.389412
vt 0.305806 0.446158
vt 0.296812 0.521846
vt 0.277494 0.152951
vt 0.391174 0.332646
vt 0.312984 0.434861
vt 0.199362 0.488161
vt 0.113505 0.103710
vt 0.139812 0.168879
vt 0.145489 0.329717
vt 0.221190 0.243161
vt 0.142539 0.088420
vt 0.307223 0.157013
vt 0.314080 0.369757
vt 0.172485 0.428383
vt 0.161787 0.323012
vt 0.177913 0.361188
vt 0.131560 0.305757
vt 0.136441 0.419257
vt 0.123981 0.078465
vt 0.370375 0.377886
vt 0.210465 0.475273
vt 0.396591 0.245342
vt 0.185099 0.163823
vt 0.186766 0.100994
vt 0.175868 0.022642
vt 0.156134 0.393304
vt 0.391659 0.332421
vt 0.400297 0.075704
vt 0.400006 0.201510
vt 0.391687 0.246883
vt 0.205782 0.157789
vt 0.230175 0.093618
vt 0.218663 0.011253
vt 0.189180 0.324476
vt 0.470280 0.157938
vt 0.475010 0.259802
vt 0.468293 0.379898
vt 0.476314 0.205938
vt 0.469483 0.259085
vt 0.434013 0.306330
vt 0.315628 0.291337
vt 0.204461 0.193292
vt 0.317011 0.197765
vt 0.210309 0.306436
vt 0.391048 0.224870
vt 0.380000 0.225355
vt 0.223326 0.276460
vt 0.319018 0.271455
vt 0.222230 0.276329
vt 0.379140 0.485283
vt 0.071777 0.416379
vt 0.082254 0.166000
vt 0.103761 0.100832
vt 0.098085 0.358310
vt 0.089832 0.302879
vt 0.094713 0.239297
vt 0.098426 0.293275
vt 0.010942 0.459246
vt 0.032629 0.399252
vt 0.041751 0.181250
vt 0.060478 0.124508
vt 0.055535 0.348692
vt 0.048350 0.300428
vt 0.052600 0.246106
vt 0.057662 -0.007198
vt 0.375823 0.036681
vt 0.388623 0.085221
vt 0.481924 0.456805
vt 0.444600 0.067181
vt 0.432332 0.391109
vt 0.427574 0.255124
vt 0.397734 0.328943
vt 0.434227 0.147650
vt 0.423785 0.204599
vt 0.430133 -0.005424
vt 0.355150 0.466064
vt 0.380246 0.224178
vt 0.314575 0.389412
vt 0.305806 0.446158
vt 0.296812 0.521846
vt 0.277494 0.152951
vt 0.391174 0.332646
vt 0.312984 0.434861
vt 0.199362 0.488161
vt 0.113505 0.103710
vt 0.139812 0.168879
vt 0.145489 0.329717
vt 0.221190 0.243161
vt 0.142539 0.088420
vt 0.307223 0.157013
vt 0.314080 0.369757
vt 0.172485 0.428383
vt 0.161787 0.323012
vt 0.177913 0.361188
vt 0.131560 0.305757
vt 0.136441 0.419257
vt 0.123981 0.078465
vt 0.370375 0.377886
vt 0.210465 0.245342
vt 0.185099 0.163823
vt 0.186766 0.100994
vt 0.175868 0.022642
vt 0.156134 0.393304
vt 0.391659 0.332421
vt 0.400297 0.075704
vt 0.400006 0.201510
vt 0.391687 0.246883
vt 0.205782 0.157789
vt 0.230175 0.093618
vt 0.218663 0.011253
vt 0.189180 0.324476
vt 0.470280 0.157938
vt 0.475010 0.259802
vt 0.468293 0.379898
vt 0.476314 0.205938
vt 0.469483 0.259085
vt 0.434013 0.306330
vt 0.315628 0.291337
vt 0.204461 0.193292
vt 0.317011 0.197765
vt 0.210309 0.306436
vt 0.391048 0.224870
vt 0.380000 0.225355
vt 0.223326 0.276460
vt 0.319018 0.271455
vt 0.222230 0.276329
vt 0.379140 0.485283
vt 0.071777 0.416379
vt 0.082254 0.166000
vt 0.103761 0.100832
vt 0.098085 0.358310
vt 0.089832 0.302879
vt 0.094713 0.239297
vt 0.098426 0.293275
vt 0.010942 0.459246
vt 0.032629 0.399252
vt 0.041751 0.181250
vt 0.060478 0.124508
vt 0.055535 0.348692
vt 0.048350 0.300428
vt 0.052600 0.246106
vt 0.057662 0.450988
vt 0.492984 0.638660
vt 0.275260 0.700049
vt 0.300691 0.761440
vt 0.275264 0.786870
vt 0.213875 0.761440
vt 0.275264 0.700049
vt 0.300691 0.638660
vt 0.275260 0.613233
vt 0.213869 0.673358
vt 0.240380 0.700049
vt 0.251437 0.726741
vt 0.240382 0.737798
vt 0.213691 0.726741
vt 0.240382 0.700049
vt 0.251437 0.673358
vt 0.240380 0.662303
vt 0.213689 0.102171
vt 0.808982 0.043838
vt 0.808982 0.143021
vt 0.851537 0.085341
vt 0.866933 0.060668
vt 0.866933 0.002988
vt 0.851537 0.143021
vt 0.904900 0.085341
vt 0.889504 0.060668
vt 0.889504 0.002988
vt 0.904900 0.102171
vt 0.947455 0.043838
vt 0.947455 0.992398
vt 0.491962 0.992398
vt 0.571483 0.480600
vt 0.588747 0.480600
vt 0.500873 0.992398
vt 0.405027 0.846287
vt 0.841222 0.676406
vt 0.903975 0.902981
vt 0.491951 0.893452
vt 0.405032 0.904329
vt 0.643238 0.809418
vt 0.405001 0.593171
vt 0.658736 0.616508
vt 0.405215 0.570489
vt 0.809439 0.856550
vt 0.718531 0.856731
vt 0.787952 0.656835
vt 0.826530 0.855076
vt 0.641190 0.682483
vt 0.587572 0.836573
vt 0.491959 0.703787
vt 0.503488 0.733632
vt 0.405046 0.612788
vt 0.502052 0.663609
vt 0.757087 0.904697
vt 0.570014 0.850804
vt 0.565739 0.598859
vt 0.589236 0.547474
vt 0.584418 0.789156
vt 0.635347 0.904130
vt 0.723063 0.911874
vt 0.805805 0.906274
vt 0.856690 0.892694
vt 0.920251 0.553663
vt 0.866878 0.939677
vt 0.751364 0.480600
vt 0.805421 0.992398
vt 0.727724 0.480600
vt 0.405216 0.812052
vt 0.841222 0.718471
vt 0.903975 0.833080
vt 0.718531 0.826189
vt 0.787952 0.694745
vt 0.826530 0.685375
vt 0.757087 0.480600
vt 0.658191 0.992398
vt 0.640007 0.846287
vt 0.841222 0.676406
vt 0.903975 0.902981
vt 0.491951 0.893452
vt 0.405032 0.904329
vt 0.643238 0.809418
vt 0.405001 0.593171
vt 0.658736 0.616508
vt 0.405215 0.570489
vt 0.809439 0.856550
vt 0.718531 0.856731
vt 0.787952 0.656835
vt 0.826530 0.855076
vt 0.641190 0.682483
vt 0.587572 0.836573
vt 0.491959 0.703787
vt 0.503488 0.733632
vt 0.405046 0.612788
vt 0.502052 0.663609
vt 0.757087 0.904697
vt 0.570014 0.850804
vt 0.565739 0.598859
vt 0.589236 0.547474
vt 0.584418 0.789156
vt 0.635347 0.904130
vt 0.723063 0.911874
vt 0.805805 0.906274
vt 0.856690 0.892694
vt 0.920251 0.553663
vt 0.866878 0.939677
vt 0.751364 0.812052
vt 0.841222 0.718471
vt 0.903975 0.833080
vt 0.718531 0.826189
vt 0.787952 0.694745
vt 0.826530 0.685375
vt 0.757087 0.480600
vt 0.850530 0.682367
vt 0.066168 0.760479
vt 0.016568 0.760418
vt 0.066169 0.682668
vt 0.016597 0.841810
vt 0.066202 0.928368
vt 0.016569 0.928120
vt 0.066113 0.841872
vt 0.016593 0.613091
vt 0.016635 0.613245
vt 0.066204 0.991951
vt 0.066125 0.992178
vt 0.016668 0.508381
vt 0.016675 0.508625
vt 0.066038 0.682367
vt 0.066168 0.760479
vt 0.016568 0.682668
vt 0.016597 0.928368
vt 0.016569 0.841872
vt 0.016593 0.841810
vt 0.066202 0.928120
vt 0.066113 0.760418
vt 0.066169 0.613091
vt 0.016635 0.613245
vt 0.066204 0.992178
vt 0.016668 0.991951
vt 0.066125 0.508381
vt 0.016675 0.508625
vt 0.066038 0.314003
vt 0.510075 0.179642
vt 0.872500 0.161823
vt 0.570091 0.204738
vt 0.560554 0.143641
vt 0.573098 0.099192
vt 0.573587 0.241664
vt 0.543147 0.258751
vt 0.533487 0.062492
vt 0.575089 0.036892
vt 0.574740 0.314003
vt 0.510075 0.179642
vt 0.872500 0.204738
vt 0.560554 0.161823
vt 0.570091 0.143641
vt 0.573098 0.099192
vt 0.573587 0.241664
vt 0.543147 0.258751
vt 0.533487 0.062492
vt 0.575089 0.036892
vt 0.574740 0.993048
vt 0.990105 0.006774
vt 0.955152 0.006906
vt 0.989938 0.739006
vt 0.161028 0.747033
vt 0.083236 0.739006
vt 0.161028 0.747033
vt 0.083236 0.535222
vt 0.349479 0.498328
vt 0.146662 0.505920
vt 0.184571 0.001170
vt 0.288174 0.542078
vt 0.372739 0.037486
vt 0.123646 0.034608
vt 0.081918 0.095678
vt 0.048497 0.036681
vt 0.388623 -0.007198
vt 0.375823 0.535222
vt 0.349479 0.498328
vt 0.146662 0.505920
vt 0.184571 0.001170
vt 0.288174 0.475273
vt 0.396591 0.542078
vt 0.372739 0.037486
vt 0.123646 0.456805
vt 0.444600 0.067181
vt 0.432332 0.450988
vt 0.492984 0.085221
vt 0.481924 0.034608
vt 0.081918 0.095678
vt 0.048497 0.786718
vt 0.566644 0.767787
vt 0.491927 0.741266
vt 0.405033 0.669099
vt 0.664888 0.827682
vt 0.904306 0.576434
vt 0.921919 0.793447
vt 0.904306 0.992398
vt 0.640007 0.992398
vt 0.571483 0.992398
vt 0.491962 0.992398
vt 0.405027 0.992398
vt 0.727724 0.767787
vt 0.491927 0.786718
vt 0.566644 0.741266
vt 0.405033 0.480600
vt 0.658191 0.480600
vt 0.405216 0.480600
vt 0.500873 0.480600
vt 0.805421 0.480600
vt 0.588747 0.669099
vt 0.664888 0.827682
vt 0.904306 0.576434
vt 0.921919 0.480600
vt 0.850530 0.793447
vt 0.904306 1.000000

f 2/2 3/3 19/19
f 5/5 19/19 20/20
f 524/524 17/17 18/18
f 17/17 524/524 1/1
f 16/16 1/1 4/4
f 1/1 16/16 17/17
f 19/19 3/3 525/525
f 19/19 5/5 2/2
f 7/7 21/21 32/32
f 32/32 8/8 7/7
f 526/526 527/527 22/22
f 6/6 22/22 527/527
f 11/11 23/23 30/30
f 30/30 10/10 11/11
f 9/9 10/10 30/30
f 30/30 24/24 9/9
f 8/8 32/32 23/23
f 23/23 11/11 8/8
f 22/22 6/6 9/9
f 9/9 24/24 22/22
f 81/81 82/82 83/83
f 80/80 35/35 33/33
f 22/22 39/39 528/528
f 78/78 37/37 79/79
f 30/30 34/34 37/37
f 39/39 22/22 24/24
f 77/77 84/84 85/85
f 30/30 37/37 24/24
f 35/35 80/80 79/79
f 33/33 35/35 36/36
f 22/22 528/528 526/526
f 30/30 23/23 34/34
f 36/36 34/34 23/23
f 36/36 21/21 33/33
f 23/23 32/32 36/36
f 36/36 35/35 34/34
f 36/36 32/32 21/21
f 78/78 87/87 84/84
f 38/38 24/24 37/37
f 24/24 38/38 39/39
f 39/39 76/76 529/529
f 76/76 39/39 38/38
f 60/60 17/17 16/16
f 71/71 70/70 43/43
f 48/48 67/67 41/41
f 50/50 49/49 51/51
f 49/49 50/50 45/45
f 44/44 530/530 531/531
f 530/530 44/44 52/52
f 531/531 18/18 44/44
f 525/525 45/45 19/19
f 20/20 70/70 71/71
f 42/42 46/46 44/44
f 53/53 48/48 56/56
f 48/48 53/53 40/40
f 47/47 56/56 48/48
f 46/46 40/40 69/69
f 46/46 60/60 58/58
f 70/70 19/19 45/45
f 48/48 41/41 47/47
f 41/41 43/43 50/50
f 41/41 50/50 47/47
f 58/58 65/65 40/40
f 59/59 61/61 60/60
f 60/60 46/46 42/42
f 61/61 58/58 60/60
f 42/42 17/17 60/60
f 58/58 40/40 46/46
f 16/16 59/59 60/60
f 43/43 41/41 68/68
f 68/68 63/63 62/62
f 70/70 20/20 19/19
f 68/68 62/62 43/43
f 54/54 52/52 69/69
f 47/47 50/50 51/51
f 53/53 54/54 69/69
f 54/54 53/53 57/57
f 51/51 55/55 47/47
f 56/56 57/57 53/53
f 57/57 56/56 55/55
f 47/47 55/55 56/56
f 64/64 65/65 61/61
f 40/40 67/67 48/48
f 67/67 68/68 41/41
f 6/6 527/527 530/530
f 530/530 52/52 6/6
f 7/7 8/8 51/51
f 51/51 49/49 7/7
f 9/9 6/6 54/54
f 52/52 54/54 6/6
f 57/57 9/9 54/54
f 9/9 57/57 10/10
f 8/8 11/11 55/55
f 55/55 51/51 8/8
f 11/11 10/10 57/57
f 55/55 11/11 57/57
f 58/58 61/61 65/65
f 65/65 66/66 40/40
f 40/40 66/66 67/67
f 12/12 13/13 65/65
f 65/65 64/64 12/12
f 67/67 14/14 68/68
f 66/66 65/65 13/13
f 13/13 14/14 67/67
f 67/67 66/66 13/13
f 14/14 15/15 68/68
f 63/63 68/68 15/15
f 69/69 52/52 46/46
f 53/53 69/69 40/40
f 50/50 70/70 45/45
f 70/70 50/50 43/43
f 62/62 71/71 43/43
f 73/73 72/72 13/13
f 14/14 13/13 72/72
f 14/14 72/72 15/15
f 74/74 15/15 72/72
f 13/13 75/75 73/73
f 75/75 13/13 12/12
f 44/44 46/46 52/52
f 17/17 42/42 18/18
f 18/18 42/42 44/44
f 76/76 85/85 532/532
f 77/77 38/38 37/37
f 38/38 77/77 76/76
f 28/28 87/87 86/86
f 37/37 78/78 77/77
f 79/79 34/34 35/35
f 79/79 37/37 34/34
f 80/80 83/83 86/86
f 529/529 528/528 39/39
f 33/33 81/81 80/80
f 26/26 83/83 25/25
f 82/82 25/25 83/83
f 532/532 529/529 76/76
f 27/27 85/85 29/29
f 84/84 29/29 85/85
f 84/84 77/77 78/78
f 86/86 79/79 80/80
f 29/29 84/84 31/31
f 87/87 31/31 84/84
f 28/28 31/31 87/87
f 533/533 532/532 27/27
f 85/85 27/27 532/532
f 85/85 76/76 77/77
f 79/79 86/86 78/78
f 87/87 78/78 86/86
f 28/28 86/86 26/26
f 83/83 26/26 86/86
f 83/83 80/80 81/81
f 90/90 89/89 101/101
f 101/101 5/5 20/20
f 99/99 534/534 100/100
f 534/534 99/99 88/88
f 88/88 16/16 4/4
f 16/16 88/88 99/99
f 90/90 101/101 535/535
f 5/5 101/101 89/89
f 102/102 92/92 113/113
f 93/93 113/113 92/92
f 536/536 537/537 103/103
f 103/103 91/91 536/536
f 104/104 96/96 111/111
f 95/95 111/111 96/96
f 95/95 94/94 111/111
f 105/105 111/111 94/94
f 113/113 93/93 104/104
f 96/96 104/104 93/93
f 91/91 103/103 94/94
f 105/105 94/94 103/103
f 155/155 154/154 156/156
f 116/116 153/153 114/114
f 120/120 103/103 538/538
f 118/118 151/151 152/152
f 115/115 111/111 118/118
f 103/103 120/120 105/105
f 157/157 150/150 158/158
f 118/118 111/111 105/105
f 153/153 116/116 152/152
f 116/116 114/114 117/117
f 538/538 103/103 537/537
f 104/104 111/111 115/115
f 115/115 117/117 104/104
f 102/102 117/117 114/114
f 113/113 104/104 117/117
f 116/116 117/117 115/115
f 113/113 117/117 102/102
f 160/160 151/151 157/157
f 105/105 119/119 118/118
f 119/119 105/105 120/120
f 149/149 120/120 539/539
f 120/120 149/149 119/119
f 99/99 140/140 16/16
f 146/146 71/71 124/124
f 143/143 129/129 122/122
f 130/130 131/131 132/132
f 131/131 130/130 126/126
f 540/540 125/125 541/541
f 125/125 540/540 133/133
f 100/100 541/541 125/125
f 126/126 535/535 101/101
f 146/146 20/20 71/71
f 127/127 123/123 125/125
f 129/129 134/134 137/137
f 134/134 129/129 121/121
f 137/137 128/128 129/129
f 121/121 127/127 145/145
f 140/140 127/127 139/139
f 101/101 146/146 126/126
f 122/122 129/129 128/128
f 124/124 122/122 131/131
f 131/131 122/122 128/128
f 141/141 139/139 121/121
f 61/61 59/59 140/140
f 127/127 140/140 123/123
f 139/139 61/61 140/140
f 99/99 123/123 140/140
f 121/121 139/139 127/127
f 59/59 16/16 140/140
f 122/122 124/124 144/144
f 63/63 144/144 62/62
f 20/20 146/146 101/101
f 62/62 144/144 124/124
f 133/133 135/135 145/145
f 131/131 128/128 132/132
f 135/135 134/134 145/145
f 134/134 135/135 138/138
f 136/136 132/132 128/128
f 138/138 137/137 134/134
f 137/137 138/138 136/136
f 136/136 128/128 137/137
f 141/141 64/64 61/61
f 143/143 121/121 129/129
f 144/144 143/143 122/122
f 536/536 91/91 540/540
f 133/133 540/540 91/91
f 93/93 92/92 132/132
f 130/130 132/132 92/92
f 91/91 94/94 135/135
f 135/135 133/133 91/91
f 94/94 138/138 135/135
f 138/138 94/94 95/95
f 96/96 93/93 136/136
f 132/132 136/136 93/93
f 95/95 96/96 138/138
f 96/96 136/136 138/138
f 61/61 139/139 141/141
f 142/142 141/141 121/121
f 142/142 121/121 143/143
f 97/97 12/12 141/141
f 64/64 141/141 12/12
f 98/98 143/143 144/144
f 141/141 142/142 97/97
f 98/98 97/97 143/143
f 142/142 143/143 97/97
f 15/15 98/98 144/144
f 144/144 63/63 15/15
f 133/133 145/145 127/127
f 145/145 134/134 121/121
f 146/146 131/131 126/126
f 131/131 146/146 124/124
f 71/71 62/62 124/124
f 147/147 148/148 97/97
f 97/97 98/98 147/147
f 147/147 98/98 15/15
f 15/15 74/74 147/147
f 75/75 97/97 148/148
f 97/97 75/75 12/12
f 127/127 125/125 133/133
f 123/123 99/99 100/100
f 123/123 100/100 125/125
f 158/158 149/149 542/542
f 119/119 150/150 118/118
f 150/150 119/119 149/149
f 160/160 109/109 159/159
f 151/151 118/118 150/150
f 115/115 152/152 116/116
f 118/118 152/152 115/115
f 156/156 153/153 159/159
f 538/538 539/539 120/120
f 154/154 114/114 153/153
f 107/107 106/106 156/156
f 155/155 156/156 106/106
f 539/539 542/542 149/149
f 108/108 110/110 158/158
f 157/157 158/158 110/110
f 150/150 157/157 151/151
f 152/152 159/159 153/153
f 110/110 112/112 157/157
f 160/160 157/157 112/112
f 112/112 109/109 160/160
f 543/543 108/108 542/542
f 158/158 542/542 108/108
f 149/149 158/158 150/150
f 152/152 151/151 159/159
f 160/160 159/159 151/151
f 109/109 107/107 159/159
f 156/156 159/159 107/107
f 153/153 156/156 154/154
f 458/458 437/437 414/414
f 420/420 421/421 413/413
f 417/417 413/413 421/421
f 442/442 422/422 458/458
f 458/458 449/449 442/442
f 442/442 428/428 427/427
f 437/437 458/458 422/422
f 420/420 432/432 423/423
f 423/423 421/421 420/420
f 429/429 419/419 446/446
f 426/426 424/424 436/436
f 436/436 429/429 426/426
f 433/433 431/431 435/435
f 574/574 575/575 432/432
f 435/435 425/425 434/434
f 434/434 433/433 435/435
f 575/575 576/576 423/423
f 423/423 432/432 575/575
f 457/457 440/440 424/424
f 416/416 450/450 425/425
f 425/425 435/435 416/416
f 426/426 448/448 457/457
f 457/457 424/424 426/426
f 414/414 420/420 413/413
f 437/437 420/420 414/414
f 438/438 437/437 422/422
f 422/422 430/430 438/438
f 438/438 432/432 420/420
f 420/420 437/437 438/438
f 432/432 438/438 574/574
f 439/439 435/435 431/431
f 440/440 439/439 424/424
f 435/435 439/439 440/440
f 435/435 440/440 416/416
f 457/457 415/415 440/440
f 415/415 416/416 440/440
f 438/438 430/430 574/574
f 427/427 441/441 430/430
f 441/441 574/574 430/430
f 431/431 577/577 424/424
f 424/424 439/439 431/431
f 436/436 424/424 577/577
f 418/418 428/428 443/443
f 443/443 444/444 418/418
f 444/444 445/445 578/578
f 578/578 418/418 444/444
f 429/429 446/446 426/426
f 446/446 419/419 579/579
f 446/446 495/495 448/448
f 448/448 426/426 446/446
f 428/428 442/442 443/443
f 430/430 422/422 442/442
f 442/442 427/427 430/430
f 449/449 447/447 442/442
f 443/443 442/442 447/447
f 428/428 454/454 427/427
f 453/453 427/427 454/454
f 429/429 455/455 419/419
f 452/452 419/419 455/455
f 436/436 456/456 429/429
f 455/455 429/429 456/456
f 427/427 453/453 441/441
f 577/577 456/456 436/436
f 418/418 451/451 428/428
f 454/454 428/428 451/451
f 578/578 580/580 418/418
f 451/451 418/418 580/580
f 478/478 581/581 582/582
f 462/462 461/461 583/583
f 583/583 584/584 462/462
f 463/463 483/483 581/581
f 585/585 581/581 483/483
f 469/469 483/483 468/468
f 581/581 478/478 463/463
f 473/473 461/461 464/464
f 462/462 464/464 461/461
f 460/460 470/470 487/487
f 465/465 467/467 477/477
f 470/470 477/477 467/467
f 472/472 474/474 476/476
f 586/586 587/587 473/473
f 466/466 476/476 475/475
f 474/474 475/475 476/476
f 588/588 586/586 464/464
f 473/473 464/464 586/586
f 481/481 589/589 465/465
f 590/590 591/591 466/466
f 476/476 466/466 591/591
f 592/592 467/467 589/589
f 465/465 589/589 467/467
f 461/461 582/582 583/583
f 461/461 478/478 582/582
f 478/478 479/479 463/463
f 471/471 463/463 479/479
f 473/473 479/479 461/461
f 478/478 461/461 479/479
f 479/479 473/473 587/587
f 476/476 480/480 472/472
f 480/480 481/481 465/465
f 480/480 476/476 481/481
f 481/481 476/476 591/591
f 593/593 589/589 481/481
f 591/591 593/593 481/481
f 471/471 479/479 587/587
f 482/482 468/468 471/471
f 587/587 482/482 471/471
f 594/594 472/472 465/465
f 480/480 465/465 472/472
f 465/465 477/477 594/594
f 469/469 459/459 484/484
f 485/485 484/484 459/459
f 486/486 485/485 595/595
f 459/459 595/595 485/485
f 487/487 470/470 467/467
f 460/460 487/487 596/596
f 597/597 487/487 592/592
f 467/467 592/592 487/487
f 483/483 469/469 484/484
f 463/463 471/471 483/483
f 468/468 483/483 471/471
f 488/488 585/585 483/483
f 483/483 484/484 488/488
f 492/492 469/469 468/468
f 468/468 491/491 492/492
f 493/493 470/470 460/460
f 460/460 490/490 493/493
f 494/494 477/477 470/470
f 470/470 493/493 494/494
f 491/491 468/468 482/482
f 494/494 594/594 477/477
f 489/489 459/459 469/469
f 469/469 492/492 489/489
f 598/598 595/595 459/459
f 459/459 489/489 598/598
f 175/175 174/174 176/176
f 169/169 176/176 175/175
f 176/176 175/175 187/187
f 182/182 187/187 185/185
f 184/184 185/185 186/186
f 183/183 186/186 181/181
f 188/188 181/181 182/182
f 187/187 182/182 189/189
f 190/190 189/189 191/191
f 192/192 191/191 201/201
f 202/202 198/198 197/197
f 198/198 202/202 193/193
f 200/200 544/544 199/199
f 201/201 199/199 198/198
f 199/199 201/201 195/195
f 196/196 194/194 203/203
f 197/197 203/203 202/202
f 203/203 197/197 194/194
f 204/204 195/195 205/205
f 545/545 205/205 546/546
f 205/205 545/545 218/218
f 218/218 214/214 210/210
f 210/210 212/212 219/219
f 212/212 210/210 214/214
f 212/212 206/206 211/211
f 548/548 207/207 206/206
f 212/212 219/219 220/220
f 220/220 228/228 229/229
f 229/229 227/227 224/224
f 233/233 224/224 226/226
f 228/228 220/220 222/222
f 225/225 229/229 230/230
f 229/229 225/225 230/230
f 225/225 231/231 221/221
f 221/221 549/549 550/550
f 549/549 221/221 226/226
f 220/220 233/233 239/239
f 308/308 307/307 237/237
f 270/270 245/245 286/286
f 269/269 236/236 291/291
f 287/287 289/289 242/242
f 268/268 269/269 236/236
f 269/269 234/234 261/261
f 271/271 238/238 240/240
f 243/243 244/244 551/551
f 240/240 244/244 242/242
f 242/242 262/262 267/267
f 274/274 275/275 285/285
f 273/273 265/265 246/246
f 242/242 246/246 260/260
f 248/248 552/552 553/553
f 243/243 247/247 257/257
f 283/283 264/264 250/250
f 250/250 265/265 253/253
f 254/254 245/245 247/247
f 247/247 262/262 251/251
f 251/251 257/257 264/264
f 259/259 257/257 552/552
f 247/247 256/256 258/258
f 258/258 260/260 257/257
f 257/257 259/259 252/252
f 259/259 264/264 552/552
f 256/256 260/260 554/554
f 239/239 554/554 270/270
f 261/261 245/245 263/263
f 240/240 268/268 555/555
f 263/263 551/551 245/245
f 238/238 237/237 265/265
f 250/250 252/252 283/283
f 251/251 282/282 267/267
f 556/556 266/266 263/263
f 310/310 234/234 240/240
f 551/551 263/263 261/261
f 270/270 308/308 261/261
f 308/308 239/239 265/265
f 252/252 264/264 251/251
f 246/246 282/282 253/253
f 273/273 254/254 556/556
f 249/249 266/266 273/273
f 253/253 274/274 243/243
f 553/553 244/244 554/554
f 275/275 253/253 268/268
f 234/234 269/269 268/268
f 240/240 234/234 269/269
f 246/246 242/242 286/286
f 246/246 269/269 270/270
f 270/270 237/237 284/284
f 235/235 238/238 257/257
f 251/251 283/283 264/264
f 284/284 273/273 274/274
f 274/274 266/266 267/267
f 266/266 274/274 275/275
f 274/274 253/253 247/247
f 552/552 553/553 384/384
f 279/279 236/236 310/310
f 384/384 234/234 236/236
f 281/281 286/286 278/278
f 281/281 276/276 238/238
f 238/238 280/280 237/237
f 311/311 237/237 281/281
f 278/278 238/238 280/280
f 238/238 278/278 276/276
f 236/236 279/279 281/281
f 236/236 276/276 235/235
f 281/281 238/238 288/288
f 287/287 241/241 264/264
f 283/283 272/272 288/288
f 290/290 289/289 273/273
f 271/271 245/245 272/272
f 285/285 264/264 282/282
f 246/246 286/286 235/235
f 286/286 281/281 291/291
f 287/287 291/291 289/289
f 291/291 289/289 287/287
f 235/235 271/271 290/290
f 289/289 290/290 287/287
f 272/272 290/290 283/283
f 290/290 272/272 288/288
f 285/285 272/272 248/248
f 260/260 292/292 293/293
f 292/292 260/260 250/250
f 249/249 294/294 295/295
f 294/294 249/249 260/260
f 258/258 293/293 296/296
f 259/259 296/296 297/297
f 252/252 297/297 298/298
f 250/250 298/298 294/294
f 298/298 250/250 249/249
f 556/556 295/295 557/557
f 295/295 556/556 292/292
f 293/293 300/300 301/301
f 300/300 293/293 294/294
f 295/295 302/302 303/303
f 302/302 295/295 293/293
f 296/296 301/301 304/304
f 297/297 304/304 305/305
f 298/298 305/305 306/306
f 305/305 298/298 306/306
f 298/298 302/302 294/294
f 302/302 298/298 303/303
f 295/295 558/558 557/557
f 558/558 295/295 301/301
f 299/299 300/300 303/303
f 299/299 302/302 304/304
f 299/299 301/301 305/305
f 299/299 304/304 306/306
f 299/299 305/305 302/302
f 299/299 306/306 558/558
f 299/299 303/303 559/559
f 317/317 560/560 347/347
f 315/315 323/323 346/346
f 363/363 314/314 364/364
f 368/368 366/366 345/345
f 314/314 312/312 331/331
f 339/339 323/323 348/348
f 323/323 316/316 321/321
f 561/561 322/322 325/325
f 325/325 340/340 351/351
f 344/344 352/352 350/350
f 362/362 342/342 329/329
f 324/324 340/340 320/320
f 340/340 324/324 326/326
f 338/338 562/562 321/321
f 563/563 325/325 360/360
f 335/335 341/341 343/343
f 343/343 342/342 332/332
f 331/331 323/323 333/333
f 333/333 335/335 337/337
f 341/341 335/335 325/325
f 334/334 338/338 336/336
f 330/330 341/341 334/334
f 562/562 338/338 331/331
f 564/564 339/339 317/317
f 347/347 323/323 312/312
f 565/565 318/318 320/320
f 320/320 345/345 565/565
f 566/566 561/561 316/316
f 323/323 315/315 328/328
f 342/342 330/330 329/329
f 360/360 359/359 567/567
f 344/344 343/343 568/568
f 565/565 312/312 561/561
f 318/318 565/565 347/347
f 339/339 317/317 330/330
f 342/342 341/341 324/324
f 329/329 359/359 350/350
f 331/331 332/332 327/327
f 567/567 343/343 331/331
f 350/350 351/351 563/563
f 321/321 322/322 352/352
f 564/564 331/331 312/312
f 345/345 346/346 318/318
f 345/345 312/312 324/324
f 346/346 320/320 324/324
f 363/363 346/346 569/569
f 569/569 315/315 348/348
f 361/361 332/332 313/313
f 348/348 316/316 329/329
f 335/335 360/360 362/362
f 341/341 342/342 361/361
f 362/362 350/350 342/342
f 352/352 331/331 562/562
f 325/325 563/563 356/356
f 570/570 312/312 356/356
f 312/312 314/314 570/570
f 568/568 312/312 358/358
f 314/314 363/363 358/358
f 355/355 353/353 354/354
f 315/315 571/571 569/569
f 571/571 315/315 355/355
f 357/357 355/355 314/314
f 353/353 356/356 314/314
f 313/313 316/316 366/366
f 365/365 319/319 364/364
f 366/366 319/319 360/360
f 341/341 349/349 367/367
f 365/365 366/366 361/361
f 350/350 332/332 348/348
f 332/332 323/323 362/362
f 349/349 341/341 324/324
f 313/313 358/358 363/363
f 368/368 313/313 364/364
f 313/313 368/368 359/359
f 366/366 363/363 368/368
f 363/363 366/366 313/313
f 364/364 348/348 360/360
f 367/367 359/359 366/366
f 359/359 367/367 348/348
f 364/364 361/361 319/319
f 319/319 362/362 365/365
f 362/362 319/319 349/349
f 360/360 349/349 362/362
f 365/365 349/349 370/370
f 338/338 369/369 326/326
f 369/369 338/338 372/372
f 327/327 371/371 328/328
f 371/371 327/327 373/373
f 336/336 370/370 338/338
f 370/370 336/336 374/374
f 337/337 373/373 336/336
f 373/373 337/337 375/375
f 330/330 374/374 337/337
f 374/374 330/330 371/371
f 328/328 375/375 330/330
f 375/375 328/328 572/572
f 567/567 372/372 327/327
f 372/372 567/567 378/378
f 370/370 377/377 369/369
f 377/377 370/370 380/380
f 372/372 379/379 371/371
f 379/379 372/372 381/381
f 373/373 378/378 370/370
f 378/378 373/373 382/382
f 374/374 381/381 373/373
f 381/381 374/374 383/383
f 375/375 382/382 374/374
f 382/382 375/375 371/371
f 375/375 379/379 383/383
f 379/379 375/375 572/572
f 372/372 573/573 380/380
f 573/573 372/372 376/376
f 378/378 377/377 376/376
f 380/380 379/379 376/376
f 381/381 378/378 376/376
f 382/382 381/381 376/376
f 383/383 382/382 376/376
f 379/379 383/383 376/376
f 573/573 380/380 165/165
f 386/386 164/164 385/385
f 164/164 386/386 166/166
f 387/387 165/165 386/386
f 165/165 387/387 167/167
f 388/388 166/166 387/387
f 166/166 388/388 168/168
f 389/389 167/167 388/388
f 167/167 389/389 161/161
f 390/390 168/168 389/389
f 168/168 390/390 162/162
f 391/391 161/161 390/390
f 161/161 391/391 163/163
f 392/392 162/162 391/391
f 162/162 392/392 164/164
f 385/385 163/163 392/392
f 163/163 385/385 386/386
f 394/394 385/385 393/393
f 385/385 394/394 387/387
f 395/395 386/386 394/394
f 386/386 395/395 388/388
f 396/396 387/387 395/395
f 387/387 396/396 389/389
f 397/397 388/388 396/396
f 388/388 397/397 390/390
f 398/398 389/389 397/397
f 389/389 398/398 391/391
f 399/399 390/390 398/398
f 390/390 399/399 392/392
f 400/400 391/391 399/399
f 391/391 400/400 385/385
f 393/393 392/392 400/400
f 392/392 393/393 405/405
f 404/404 405/405 408/408
f 407/407 408/408 410/410
f 409/409 410/410 405/405
f 412/412 409/409 497/497
f 499/499 497/497 501/501
f 503/503 501/501 496/496
f 499/499 496/496 503/503
f 497/497 503/503 506/506
f 507/507 506/506 508/508
f 509/509 508/508 511/511
f 512/512 511/511 513/513
f 514/514 513/513 510/510
f 512/512 510/510 514/514
f 511/511 514/514 521/521
f 520/520 521/521 522/522
