# MOD converted: e_m_metalarmor029.mod
# 864 verts, 1090 faces

v 43.492889 2.504747 -30.570572
v 51.561600 2.504745 -28.565210
v 51.372349 10.995464 -22.815041
v 49.949501 17.800488 -29.074459
v 70.640518 2.504755 -11.874647
v 66.682228 24.845369 -17.686560
v 91.203033 2.504747 -17.074253
v 86.591187 11.511983 -30.771130
v 61.202610 2.504747 -27.211678
v 60.294735 13.981301 -16.262613
v 57.914703 23.561125 -24.896427
v 69.558342 14.693595 -16.733707
v 71.619385 19.882662 -28.309399
v 51.307739 -5.985974 -22.815046
v 49.949486 -12.062184 -24.388582
v 69.430229 -9.684092 -11.874654
v 66.682251 -19.107063 -16.766062
v 86.508064 -6.502477 -16.335045
v 78.906387 -11.814075 -26.771767
v 60.184799 -8.971806 -16.262611
v 57.914707 -17.822842 -16.733707
v 71.619400 -14.144374 -20.645868
v 79.827621 -8.142550 -24.566628
v 80.862137 2.504750 -21.082056
v 79.942047 13.146850 -16.355597
v 78.912170 17.527212 -23.944151
v 62.043995 2.763239 -28.836411
v 43.492889 2.504747 -22.815041
v 49.949501 17.800488 -16.262613
v 57.914703 23.561125 -11.874647
v 66.682228 24.845369 -17.074253
v 86.591187 11.511983 -17.686560
v 91.203033 2.504747 -16.355597
v 78.912170 17.527212 -16.733707
v 71.619385 19.882662 -22.815046
v 49.949486 -12.062184 -11.874654
v 66.682251 -19.107063 -16.262611
v 57.914707 -17.822842 -16.766062
v 86.508064 -6.502477 -16.335045
v 78.906387 -11.814075 -16.733707
v 71.619400 -14.144374 0.993586
v 43.492889 2.504746 30.570574
v 51.561600 2.504745 28.565214
v 51.372349 10.995462 22.815044
v 49.949501 17.800484 29.074463
v 70.640518 2.504755 11.874655
v 66.682228 24.845366 17.686567
v 91.203033 2.504747 17.074261
v 86.591187 11.511982 30.771133
v 61.202610 2.504747 27.211681
v 60.294735 13.981299 16.262619
v 57.914703 23.561121 24.896433
v 69.558342 14.693594 16.733715
v 71.619385 19.882660 28.309402
v 51.307739 -5.985973 22.815050
v 49.949486 -12.062183 24.388588
v 69.430229 -9.684090 11.874661
v 66.682251 -19.107061 16.766069
v 86.508064 -6.502476 16.335052
v 78.906387 -11.814075 26.771770
v 60.184799 -8.971805 16.262617
v 57.914707 -17.822840 16.733715
v 71.619400 -14.144373 20.645874
v 79.827621 -8.142550 24.566633
v 80.862137 2.504750 21.082062
v 79.942047 13.146848 16.355604
v 78.912170 17.527210 23.944157
v 62.043995 2.763239 28.836412
v 43.492889 2.504746 22.815044
v 49.949501 17.800484 16.262619
v 57.914703 23.561121 11.874655
v 66.682228 24.845366 17.074261
v 86.591187 11.511982 17.686567
v 91.203033 2.504747 16.355604
v 78.912170 17.527210 16.733715
v 71.619385 19.882660 22.815050
v 49.949486 -12.062183 11.874661
v 66.682251 -19.107061 16.262617
v 57.914707 -17.822840 16.766069
v 86.508064 -6.502476 16.335052
v 78.906387 -11.814075 16.733715
v 71.619400 -14.144373 0.993586
v 122.761253 3.986980 -23.501835
v 118.503342 -9.019784 -23.501835
v 118.503311 16.993748 -37.291969
v 119.193069 -0.804528 -40.184124
v 117.662727 3.986980 -12.904326
v 127.532898 3.986983 -13.935477
v 123.600449 12.750529 -19.013142
v 128.838318 -1.904574 -24.317688
v 122.126564 -6.890636 -32.851711
v 121.505821 -3.722598 -25.577593
v 127.713112 -4.171148 -15.331412
v 125.595535 -3.722593 -36.246033
v 121.516571 0.132374 -31.375061
v 125.956131 -1.904579 -34.726009
v 127.766777 3.986985 -17.867796
v 131.697098 3.986986 -39.590187
v 120.053635 3.986982 -26.692720
v 132.333725 3.986986 -37.138256
v 123.926781 3.986984 -19.013144
v 128.838272 9.878545 -24.317686
v 122.126541 14.864603 -32.851711
v 121.505798 11.696564 -25.577591
v 127.713089 12.145119 -15.331416
v 125.595520 11.696562 -36.246025
v 121.516548 7.841594 -31.375059
v 125.956116 9.878549 -34.047710
v 117.736259 -5.752687 -13.935480
v 123.600471 -4.776568 -34.047718
v 117.736244 13.726644 -37.291969
v 119.193054 8.778486 -33.893745
v 118.134239 -5.189518 -36.803959
v 119.652405 -0.333012 -14.536032
v 123.962044 -4.263410 -39.735863
v 118.118469 3.986978 -13.614493
v 127.877083 3.986982 -33.893742
v 118.134216 13.163468 -23.570894
v 118.804832 16.583336 -36.803959
v 119.652390 8.306965 -14.536028
v 123.962029 12.237366 -10.562569
v 125.072289 6.180217 -9.159411
v 122.588715 9.100891 -11.611016
v 123.616821 9.855537 -10.157852
v 121.812202 11.757900 -9.366497
v 119.754654 14.907550 -9.454762
v 118.213043 15.980866 -13.620132
v 119.966957 15.037037 -14.563029
v 116.611267 17.398067 -17.449999
v 112.322449 20.544739 -21.747452
v 115.144859 18.895861 -24.463423
v 112.291458 20.283279 -28.600954
v 109.643600 20.554148 -29.401684
v 109.032135 20.650518 -29.431456
v 111.387314 19.237272 -28.868235
v 115.048927 17.254427 -31.784494
v 112.286812 18.083391 -36.230923
v 109.427742 18.275782 -36.835613
v 111.808136 15.905575 -36.492847
v 114.321136 14.160161 -38.384628
v 112.467522 13.330285 -39.807873
v 111.661491 12.005895 -38.898788
v 114.123466 10.657285 -40.878990
v 112.352592 9.416615 -43.122143
v 110.372475 6.712170 -11.624303
v 121.612312 13.758451 -23.506649
v 118.687454 16.656788 -35.150570
v 114.741051 15.357738 -35.022114
v 110.398422 18.214230 -42.072975
v 113.891144 5.028784 -23.570894
v 118.804855 -8.609392 -12.276205
v 126.914696 3.986974 -10.562571
v 125.072296 1.793731 -9.159413
v 122.588730 -1.126942 -11.611019
v 123.616837 -1.881588 -10.157854
v 121.812210 -3.783950 -9.366501
v 119.754662 -6.933603 -9.454764
v 118.213058 -8.006919 -13.620134
v 119.966965 -7.063090 -14.563033
v 116.611282 -9.424118 -17.450005
v 112.322487 -12.570788 -21.747454
v 115.144890 -10.921914 -24.463428
v 112.291481 -12.309331 -28.600960
v 109.643623 -12.580199 -29.401688
v 109.032150 -12.676570 -29.431461
v 111.387329 -11.263325 -28.868233
v 115.048943 -9.280479 -31.784498
v 112.286827 -10.109445 -36.230923
v 109.427757 -10.301838 -36.835613
v 111.808144 -7.931628 -36.492840
v 114.321144 -6.186213 -38.384617
v 112.467545 -5.356338 -39.807877
v 111.661514 -4.031950 -38.898788
v 114.123474 -2.683340 -40.878990
v 112.352600 -1.442668 -43.122143
v 110.372482 1.261776 -40.426723
v 116.931892 3.986974 -11.624306
v 121.612320 -5.784501 -23.506649
v 118.687477 -8.682838 -35.150570
v 114.741058 -7.383794 -35.022114
v 110.398438 -10.240283 -42.072975
v 113.891144 2.945159 -12.904326
v 127.532898 3.986983 -23.501835
v 118.503342 -9.019784 -34.047710
v 117.736259 -5.752687 -37.291969
v 119.193069 -0.804528 -40.184124
v 117.662727 3.986980 -13.935480
v 123.600471 -4.776568 -17.867796
v 131.697098 3.986986 -26.692720
v 132.333725 3.986986 -34.726009
v 127.766777 3.986985 -12.904326
v 127.532898 3.986983 -37.138256
v 123.926781 3.986984 -39.590187
v 120.053635 3.986982 -34.047718
v 117.736244 13.726644 -23.501835
v 118.503311 16.993748 -40.184124
v 117.662727 3.986980 -37.291969
v 119.193054 8.778486 -13.935477
v 123.600449 12.750529 -13.614493
v 127.877083 3.986982 -12.276205
v 126.914696 3.986974 -39.735863
v 118.118469 3.986978 -40.426723
v 116.931892 3.986974 0.848262
v 122.761269 3.986969 23.501842
v 118.503349 -9.019794 23.501846
v 118.503334 16.993738 37.291981
v 119.193085 -0.804539 40.184135
v 117.662750 3.986969 12.904332
v 127.532913 3.986970 13.935485
v 123.600464 12.750519 19.013147
v 128.838318 -1.904587 24.317696
v 122.126572 -6.890647 32.851723
v 121.505836 -3.722610 25.577600
v 127.713127 -4.171163 15.331418
v 125.595543 -3.722605 36.246044
v 121.516586 0.132362 31.375069
v 125.956146 -1.904593 34.726017
v 127.766800 3.986971 17.867802
v 131.697098 3.986972 39.590199
v 120.053658 3.986971 26.692726
v 132.333740 3.986970 37.138268
v 123.926804 3.986971 19.013149
v 128.838287 9.878531 24.317698
v 122.126564 14.864593 32.851723
v 121.505821 11.696552 25.577599
v 127.713112 12.145104 15.331424
v 125.595535 11.696550 36.246037
v 121.516571 7.841582 31.375067
v 125.956139 9.878535 34.047722
v 117.736275 -5.752696 13.935487
v 123.600479 -4.776579 34.047729
v 117.736267 13.726634 37.291981
v 119.193077 8.778476 33.893757
v 118.134254 -5.189528 36.803970
v 119.652420 -0.333023 14.536037
v 123.962051 -4.263420 39.735874
v 118.118492 3.986967 13.614499
v 127.877098 3.986969 33.893753
v 118.134239 13.163459 23.570906
v 118.804855 16.583326 36.803970
v 119.652412 8.306954 14.536036
v 123.962044 12.237354 10.562574
v 125.072304 6.180206 9.159419
v 122.588730 9.100882 11.611024
v 123.616837 9.855527 10.157861
v 121.812218 11.757891 9.366506
v 119.754669 14.907541 9.454772
v 118.213058 15.980858 13.620142
v 119.966972 15.037029 14.563041
v 116.611282 17.398062 17.450012
v 112.322472 20.544733 21.747465
v 115.144882 18.895853 24.463436
v 112.291481 20.283274 28.600969
v 109.643623 20.554142 29.401699
v 109.032158 20.650513 29.431471
v 111.387337 19.237267 28.868248
v 115.048950 17.254419 31.784510
v 112.286835 18.083385 36.230938
v 109.427765 18.275774 36.835629
v 111.808159 15.905568 36.492859
v 114.321159 14.160153 38.384644
v 112.467545 13.330277 39.807888
v 111.661514 12.005886 38.898800
v 114.123489 10.657276 40.879005
v 112.352615 9.416608 43.122158
v 110.372498 6.712163 11.624311
v 121.612328 13.758442 23.506660
v 118.687477 16.656778 35.150581
v 114.741074 15.357730 35.022129
v 110.398445 18.214222 42.072990
v 113.891167 5.028775 23.570902
v 118.804863 -8.609401 12.276211
v 126.914711 3.986961 10.562577
v 125.072304 1.793720 9.159419
v 122.588737 -1.126952 11.611025
v 123.616844 -1.881598 10.157861
v 121.812218 -3.783959 9.366508
v 119.754669 -6.933610 9.454772
v 118.213058 -8.006927 13.620142
v 119.966972 -7.063099 14.563042
v 116.611290 -9.424126 17.450014
v 112.322487 -12.570794 21.747463
v 115.144897 -10.921922 24.463438
v 112.291489 -12.309338 28.600971
v 109.643631 -12.580205 29.401699
v 109.032158 -12.676576 29.431473
v 111.387337 -11.263330 28.868242
v 115.048950 -9.280487 31.784510
v 112.286835 -10.109452 36.230938
v 109.427765 -10.301845 36.835629
v 111.808159 -7.931636 36.492851
v 114.321159 -6.186221 38.384632
v 112.467560 -5.356346 39.807892
v 111.661530 -4.031957 38.898800
v 114.123489 -2.683348 40.879005
v 112.352615 -1.442676 43.122158
v 110.372498 1.261769 40.426735
v 116.931915 3.986964 11.624312
v 121.612328 -5.784512 23.506657
v 118.687485 -8.682847 35.150581
v 114.741074 -7.383803 35.022129
v 110.398445 -10.240291 42.072990
v 113.891167 2.945150 12.904332
v 127.532913 3.986970 23.501842
v 118.503349 -9.019794 34.047722
v 117.736275 -5.752696 37.291981
v 119.193085 -0.804539 40.184135
v 117.662750 3.986969 13.935487
v 123.600479 -4.776579 26.692726
v 132.333740 3.986970 17.867802
v 131.697098 3.986972 34.726017
v 127.766800 3.986971 12.904332
v 127.532913 3.986970 37.138268
v 123.926804 3.986971 39.590199
v 120.053658 3.986971 23.501846
v 118.503334 16.993738 34.047729
v 117.736267 13.726634 37.291981
v 119.193077 8.778476 40.184135
v 117.662750 3.986969 13.935485
v 123.600464 12.750519 13.614499
v 127.877098 3.986969 12.276211
v 126.914711 3.986961 40.426735
v 116.931915 3.986964 39.735874
v 118.118492 3.986967 0.848262
v 76.088478 7.006244 0.000000
v 80.974190 -9.741226 0.000000
v 88.706535 -11.282108 0.000000
v 75.339890 -7.356607 0.000000
v 74.597397 0.659284 -0.000000
v 81.839897 12.054595 -0.000000
v 88.728134 10.840393 7.504095
v 81.113602 -8.961368 15.670088
v 81.921967 0.003144 12.891085
v 82.345108 -6.321826 9.238445
v 81.988602 11.431694 14.601187
v 82.013397 6.511704 9.778973
v 22.092697 -2.668411 9.783160
v 22.091898 10.548100 20.712204
v 22.094410 4.781158 7.254412
v 22.091619 3.989349 19.161709
v 22.093704 -2.289712 17.201200
v 22.093620 10.735499 1.346076
v 74.443817 0.715343 2.401166
v 75.596893 -6.851897 18.848682
v 65.849190 3.052614 9.458838
v 65.823097 -10.894103 3.147673
v 65.416298 -8.110694 1.273166
v 65.218300 1.641614 10.388086
v 77.637299 10.033196 15.908280
v 65.964302 -7.960555 4.126651
v 53.983295 -9.295473 4.908705
v 46.640804 2.540904 7.155615
v 48.089005 9.587445 14.016286
v 48.502605 9.465005 17.005592
v 54.944996 -8.960502 18.273788
v 48.014404 3.199905 4.003106
v 65.507202 11.894493 13.297983
v 66.053391 11.742194 11.200788
v 49.342697 -10.725104 5.153741
v 49.181702 -8.235270 16.892185
v 50.084900 -7.756933 11.821186
v 45.985405 -6.410524 16.537086
v 47.054508 -3.579283 6.958156
v 46.225998 -4.350505 20.193888
v 39.115200 4.019912 15.520185
v 39.438499 10.935097 7.913205
v 39.078896 11.214697 4.880345
v 37.495201 3.546651 3.119116
v 74.703087 9.910873 10.512692
v 54.522102 -12.016804 20.190386
v 50.853302 3.092915 14.744686
v 51.236404 11.872995 5.730045
v 50.676399 12.045794 2.642975
v 49.485901 2.438180 14.499200
v 22.093201 -4.422553 8.019524
v 77.878998 -8.959166 13.319586
v 79.907600 -6.327385 1.913397
v 77.910210 11.457298 15.026685
v 79.977989 6.020403 20.728285
v 55.317001 3.094144 14.690186
v 55.217896 13.163896 5.051027
v 54.730610 13.295494 1.447138
v 53.758301 2.317596 11.147185
v 88.708618 -6.313725 7.150384
v 88.724525 10.392592 12.959498
v 88.709549 -0.107760 6.827518
v 88.707130 -9.697824 11.783383
v 88.718025 6.688204 -7.504096
v 81.113602 -8.961366 -15.670090
v 81.921967 0.003086 -12.891086
v 82.345108 -6.321828 -9.238444
v 81.988602 11.431694 -14.601187
v 82.013397 6.511704 -9.778974
v 22.092699 -2.668411 -9.783161
v 22.091898 10.548100 -20.712204
v 22.094412 4.781159 -7.254412
v 22.091618 3.989353 -19.161709
v 22.093706 -2.289712 -17.201200
v 22.093620 10.735499 -1.346076
v 74.443817 0.715343 -2.401167
v 75.596893 -6.851897 -18.848684
v 65.849190 3.052615 -9.458838
v 65.823097 -10.894103 -3.147674
v 65.416298 -8.110695 -1.273165
v 65.218292 1.641617 -10.388085
v 77.637299 10.033196 -15.908280
v 65.964302 -7.960553 -4.126544
v 53.983292 -9.295634 -4.908706
v 46.640804 2.540906 -7.155615
v 48.089005 9.587445 -14.016286
v 48.502609 9.465005 -17.005686
v 54.944996 -8.960654 -18.273788
v 48.014400 3.199906 -4.003107
v 65.507202 11.894493 -13.297983
v 66.053391 11.742192 -11.200786
v 49.342697 -10.725103 -5.153744
v 49.181702 -8.235271 -16.892185
v 50.084900 -7.756932 -11.821184
v 45.985401 -6.410525 -16.537086
v 47.054508 -3.579283 -6.958156
v 46.225998 -4.350504 -20.193884
v 39.115204 4.019915 -15.520185
v 39.438499 10.935096 -7.913205
v 39.078899 11.214698 -4.880345
v 37.495201 3.546654 -3.119115
v 74.703087 9.910875 -10.512687
v 54.522095 -12.017006 -20.190384
v 50.853302 3.092917 -14.744686
v 51.236404 11.872994 -5.730045
v 50.676399 12.045794 -2.642975
v 49.485901 2.438183 -14.499200
v 22.093201 -4.422553 -8.019526
v 77.878998 -8.959165 -13.319586
v 79.907600 -6.327387 -1.913396
v 77.910217 11.457298 -15.026685
v 79.977989 6.020403 -20.728285
v 55.316998 3.094146 -14.690187
v 55.217899 13.163896 -5.051027
v 54.730614 13.295495 -1.447138
v 53.758297 2.317598 -11.147185
v 88.708618 -6.313725 -7.150384
v 88.724525 10.392593 -12.959498
v 88.709549 -0.107760 -6.827517
v 88.707130 -9.697825 -11.783384
v 88.718025 6.688203 1.346076
v 74.443817 0.715343 2.642975
v 49.485901 2.438180 1.447138
v 53.758301 2.317596 14.016286
v 48.502605 9.465005 6.958156
v 46.225998 -4.350505 7.155615
v 48.089005 9.587445 4.908705
v 46.640804 2.540904 4.880345
v 37.495201 3.546651 18.273788
v 48.014404 3.199905 16.537086
v 47.054508 -3.579283 11.821186
v 45.985405 -6.410524 4.908705
v 46.640804 2.540904 1.273166
v 65.218300 1.641614 7.254412
v 22.091619 3.989349 0.000000
v 74.597397 0.659284 4.908705
v 46.640804 2.540904 0.000000
v 74.597397 0.659284 0.000000
v 76.088478 7.006244 -1.346076
v 74.443817 0.715343 -2.642975
v 49.485901 2.438183 -1.447138
v 53.758297 2.317598 -14.016286
v 48.502609 9.465005 -6.958156
v 46.225998 -4.350504 -7.155615
v 48.089005 9.587445 -4.908706
v 46.640804 2.540906 -4.880345
v 37.495201 3.546654 -18.273788
v 48.014400 3.199906 -16.537086
v 47.054508 -3.579283 -11.821184
v 45.985401 -6.410525 -4.908706
v 46.640804 2.540906 -1.273165
v 65.218292 1.641617 -7.254412
v 22.091618 3.989353 0.000000
v 75.339890 -7.356607 0.000000
v 74.597397 0.659284 -4.908706
v 46.640804 2.540906 0.000000
v 80.974190 -9.741226 -0.000000
v 81.839897 12.054595 0.000000
v 88.706535 -11.282108 -0.000000
v 88.728134 10.840393 0.459090
v 100.889160 -14.550168 -0.000001
v 107.915176 17.380287 -0.000000
v 125.920204 12.566944 -0.000000
v 117.259064 -11.075451 0.000000
v 124.617500 -3.337212 -0.000000
v 121.141441 -8.350911 -0.000000
v 89.479752 14.509780 -0.000001
v 94.655571 15.332781 -0.000000
v 56.250011 22.252600 0.000000
v 68.883102 20.162796 0.000000
v 88.563301 -0.263037 0.000001
v 82.183739 -15.725124 0.000002
v 128.725998 -3.807350 -0.000001
v 94.437836 14.823908 0.000000
v 93.999786 -13.283836 0.000000
v 106.826157 -14.828643 0.000000
v 122.425621 14.473403 -0.000001
v 116.401993 16.478214 0.000000
v 113.110054 -13.263728 -0.000001
v 133.220993 6.875762 -0.000001
v 100.897018 16.510885 -0.000000
v 127.481674 8.114872 -0.000000
v 94.981339 -0.149566 0.000002
v 71.621826 -18.972340 0.000000
v 89.183647 -13.766872 0.000000
v 94.217522 -13.856055 -0.000001
v 133.096008 12.744725 -0.000000
v 82.239677 16.883163 0.000000
v 97.295769 -14.024785 9.681487
v 125.389030 7.835842 8.080027
v 118.132256 -9.450977 9.786101
v 122.567261 13.461035 16.008120
v 107.398346 -5.890281 10.679135
v 115.779922 15.560523 14.386051
v 113.452400 -9.641587 12.917312
v 107.321289 -10.401280 11.188686
v 107.682404 14.823552 7.370172
v 107.100899 -13.966406 7.677871
v 113.193489 -12.109761 16.967272
v 121.790848 11.736379 16.874857
v 107.121857 9.971031 16.795404
v 114.915077 13.749799 16.810432
v 107.378227 -0.932514 17.394604
v 123.893829 4.402561 17.085810
v 120.681709 -2.480735 16.658922
v 115.026527 -5.297266 17.493139
v 122.955818 4.294991 12.203058
v 100.892487 -10.038682 10.607793
v 100.895424 14.059916 15.813281
v 100.897293 -0.638579 6.676032
v 100.889778 -13.448777 16.034224
v 100.893684 9.468479 16.912964
v 115.118675 -4.140818 5.531765
v 125.931168 11.842014 5.620626
v 125.364365 -0.543114 5.748237
v 127.153816 4.936254 5.137006
v 121.941177 -6.040790 8.944440
v 123.412598 -1.360375 5.446337
v 132.238342 4.085763 4.901291
v 130.072998 -1.004879 10.929905
v 94.060631 -9.426586 5.018575
v 94.021690 -12.071634 14.083506
v 94.204445 -0.495250 9.598850
v 94.396400 12.256167 13.024702
v 94.335732 8.465387 11.349173
v 94.278358 -9.851936 5.211152
v 94.239426 -12.597784 14.625675
v 94.422180 -0.578699 9.970411
v 94.614136 12.665224 13.527893
v 94.553467 8.727480 5.585218
v 89.187164 -12.622957 11.817768
v 89.224541 -9.152874 14.895635
v 89.316208 -0.652911 9.728900
v 89.454018 12.128037 5.002200
v 89.469315 13.547382 13.418007
v 89.414001 8.420133 19.548635
v 82.214500 -0.139088 17.556038
v 82.128098 9.613317 5.899704
v 71.620102 -18.200996 7.615828
v 69.611694 19.395773 8.655670
v 57.236248 21.522350 14.189221
v 71.426872 17.324183 19.706041
v 74.530685 10.703316 21.593721
v 76.094536 -0.235977 17.815491
v 74.155144 -11.277077 14.760338
v 70.443604 -14.852811 12.142229
v 64.290344 -17.309782 6.806831
v 64.803986 -19.083246 8.562091
v 82.185707 -14.612877 15.789601
v 82.188675 -10.196094 6.324192
v 82.238548 16.082163 12.343718
v 82.237160 14.499450 4.441892
v 94.236191 -12.783528 9.676970
v 129.311172 -2.168368 10.436607
v 132.351669 7.680376 5.736575
v 129.439529 -7.449493 5.978494
v 133.034821 11.881383 8.533428
v 130.394455 -3.754083 5.697643
v 124.840538 -6.162730 5.916222
v 126.940620 -6.539153 2.717510
v 96.236671 -13.404154 17.356787
v 121.016434 10.906908 17.361156
v 120.043167 -1.684409 16.924482
v 114.991928 12.401721 16.775454
v 108.249390 -0.269353 17.023451
v 108.020142 9.232054 23.174303
v 106.341057 0.097550 23.118206
v 106.205910 7.012997 25.471603
v 110.614006 9.739812 25.758505
v 110.606148 -2.814026 28.500605
v 114.773346 0.264623 28.518005
v 114.913078 7.207181 20.690292
v 119.192688 9.250371 18.549734
v 108.067314 7.726584 21.073708
v 113.324158 10.130830 17.506409
v 108.590492 -0.288675 20.601810
v 119.084862 -0.622865 21.034655
v 113.497368 -3.091394 25.366688
v 117.660072 7.430447 22.043770
v 121.322334 4.458690 25.224728
v 117.646683 0.538543 18.796000
v 115.038361 -3.217404 28.462301
v 103.616928 6.144733 28.655704
v 103.764038 0.468870 33.559910
v 111.676949 6.044776 31.093306
v 107.721092 -1.842292 45.882210
v 92.817703 5.221782 48.243095
v 96.572601 7.533291 45.628483
v 92.772888 -0.168917 50.570114
v 100.195999 5.665703 48.017540
v 96.520828 -3.080160 33.393616
v 111.517044 0.175593 50.401142
v 100.353989 -0.967578 30.294815
v 108.091881 8.632077 30.890890
v 102.176971 5.725011 35.678997
v 110.275978 6.032041 34.274105
v 105.701004 8.413520 32.194412
v 106.961952 8.656683 35.554806
v 110.078003 0.107735 33.391716
v 106.255005 -1.954428 30.992104
v 102.282997 0.415955 36.035210
v 98.507599 -0.413644 38.631947
v 102.814026 -3.251252 41.313408
v 106.899002 -0.882911 41.413998
v 106.862000 6.128675 38.561638
v 102.794952 8.740553 36.011101
v 98.507301 5.739234 41.684921
v 95.371460 5.454036 44.074528
v 99.321999 -3.156315 46.496151
v 103.325523 5.883060 46.499149
v 103.330452 -0.929069 41.640705
v 95.298340 -0.276697 44.109001
v 99.379036 8.077787 -9.681485
v 125.385429 7.841044 -8.080026
v 118.132256 -9.450977 -9.786100
v 122.567261 13.461035 -16.008120
v 107.398346 -5.890281 -10.679132
v 115.779922 15.560523 -14.386048
v 113.455780 -9.642448 -12.917308
v 107.321289 -10.401284 -11.188684
v 107.682404 14.823554 -7.370171
v 107.100899 -13.966404 -7.677871
v 113.193489 -12.109761 -16.967272
v 121.785934 11.739322 -16.874859
v 107.120483 9.969352 -16.795404
v 114.909065 13.749097 -16.810436
v 107.378975 -0.934157 -17.394602
v 123.893005 4.406665 -17.085810
v 120.684700 -2.478362 -16.658922
v 115.031075 -5.297924 -17.493137
v 122.955040 4.298613 -12.203057
v 100.892487 -10.038684 -10.607793
v 100.895424 14.059916 -15.813281
v 100.897293 -0.638582 -6.676032
v 100.889778 -13.448777 -16.034222
v 100.893684 9.468481 -16.912966
v 115.122581 -4.141397 -5.531765
v 125.927910 11.844473 -5.620625
v 125.364365 -0.543116 -5.748237
v 127.153816 4.936253 -5.137007
v 121.942055 -6.040512 -8.944439
v 123.415710 -1.356659 -5.446337
v 132.238342 4.085761 -4.901290
v 130.072998 -1.004880 -10.929906
v 94.060631 -9.426585 -5.018575
v 94.021690 -12.071634 -14.083508
v 94.204453 -0.495253 -9.598851
v 94.396400 12.256168 -13.024702
v 94.335739 8.465389 -11.349173
v 94.278358 -9.851938 -5.211148
v 94.239426 -12.597786 -14.625675
v 94.422180 -0.578696 -9.970413
v 94.614136 12.665224 -13.527893
v 94.553467 8.727482 -5.585217
v 89.187164 -12.622957 -11.817770
v 89.224541 -9.152874 -14.895635
v 89.316208 -0.652912 -9.728900
v 89.454018 12.128038 -5.002199
v 89.469315 13.547381 -13.418007
v 89.414001 8.420133 -19.548635
v 82.214500 -0.139099 -17.556038
v 82.128098 9.613317 -5.899703
v 71.620102 -18.200998 -7.615828
v 69.611694 19.395773 -8.655670
v 57.236248 21.522350 -14.189221
v 71.426872 17.324183 -19.706041
v 74.530701 10.703319 -21.593721
v 76.094536 -0.235980 -17.815491
v 74.155144 -11.277077 -14.760339
v 70.443604 -14.852810 -12.142231
v 64.290344 -17.309786 -6.806831
v 64.803986 -19.083244 -8.562087
v 82.185707 -14.612880 -15.789599
v 82.188683 -10.196095 -6.324191
v 82.238548 16.082165 -12.343717
v 82.237160 14.499452 -4.441890
v 94.236191 -12.783529 -9.676970
v 129.311172 -2.168371 -10.436609
v 132.351669 7.680374 -5.736571
v 129.439529 -7.449495 -5.978495
v 133.034821 11.881383 -8.533427
v 130.394455 -3.754083 -5.697641
v 124.840538 -6.162730 -5.916223
v 126.940620 -6.539153 -2.717509
v 96.236671 -13.404156 -17.356787
v 121.011993 10.909490 -17.361156
v 120.045715 -1.682340 -16.924480
v 114.986649 12.401075 -16.775455
v 108.250023 -0.270829 -17.023455
v 108.018921 9.230544 -23.174305
v 106.341049 0.097564 -23.118206
v 106.205925 7.013010 -25.471598
v 110.614021 9.739810 -25.758507
v 110.606125 -2.814027 -28.500605
v 114.773338 0.264605 -28.518003
v 114.913086 7.207162 -20.690289
v 119.190994 9.251342 -18.549734
v 108.067329 7.726598 -21.073711
v 113.322227 10.130332 -17.506409
v 108.590492 -0.288663 -20.601810
v 119.085800 -0.621927 -21.034658
v 113.498962 -3.091849 -25.366690
v 117.660088 7.430426 -22.043768
v 121.321922 4.460279 -25.224724
v 117.646675 0.538522 -18.796000
v 115.039993 -3.217596 -28.462301
v 103.616936 6.144745 -28.655704
v 103.764030 0.468879 -33.559906
v 111.676964 6.044761 -31.093306
v 107.721069 -1.842294 -45.882210
v 92.817703 5.221779 -48.243103
v 96.572601 7.533291 -45.628483
v 92.772888 -0.168919 -50.570114
v 100.195999 5.665704 -48.017540
v 96.520844 -3.080160 -33.393616
v 111.517044 0.175581 -50.401138
v 100.353989 -0.967576 -30.294817
v 108.091896 8.632074 -30.890890
v 102.176971 5.725012 -35.678997
v 110.275978 6.032040 -34.274105
v 105.700996 8.413519 -32.194412
v 106.961960 8.656683 -35.554806
v 110.078003 0.107732 -33.391712
v 106.254990 -1.954428 -30.992104
v 102.282997 0.415957 -36.035210
v 98.507599 -0.413646 -38.631939
v 102.814026 -3.251252 -41.313404
v 106.899002 -0.882909 -41.413998
v 106.862000 6.128676 -38.561634
v 102.794930 8.740552 -36.011101
v 98.507301 5.739232 -41.684921
v 95.371460 5.454032 -44.074524
v 99.321999 -3.156314 -46.496151
v 103.325523 5.883061 -46.499146
v 103.330452 -0.929068 -41.640705
v 95.298347 -0.276699 -44.108990
v 99.379005 8.077787 14.625675
v 94.422180 -0.578699 11.349173
v 94.278358 -9.851936 5.211152
v 94.239426 -12.597784 4.441892
v 94.236191 -12.783528 0.000000
v 94.217522 -13.856055 13.527893
v 94.553467 8.727480 9.970411
v 94.614136 12.665224 -0.000001
v 94.655571 15.332781 9.681487
v 125.389030 7.835842 8.944440
v 123.412598 -1.360375 5.531765
v 125.931168 11.842014 -0.000000
v 125.920204 12.566944 5.137006
v 121.941177 -6.040790 15.789601
v 82.188675 -10.196094 8.562091
v 82.185707 -14.612877 19.548635
v 82.214500 -0.139088 17.556038
v 82.128098 9.613317 -0.000000
v 82.239677 16.883163 6.324192
v 82.238548 16.082163 0.000001
v 82.183739 -15.725124 12.343718
v 82.237160 14.499450 4.441892
v 94.236191 -12.783528 16.924482
v 114.991928 12.401721 17.023451
v 108.020142 9.232054 17.023451
v 108.020142 9.232054 16.775454
v 108.249390 -0.269353 18.549734
v 108.067314 7.726584 17.493139
v 122.955818 4.294991 17.361156
v 120.043167 -1.684409 16.912964
v 115.118675 -4.140818 17.356787
v 121.016434 10.906908 23.118206
v 106.205910 7.012997 28.462301
v 103.616928 6.144733 41.684921
v 95.371460 5.454036 30.890890
v 102.176971 5.725011 36.011101
v 98.507301 5.739234 45.882210
v 92.817703 5.221782 -0.000000
v 117.259064 -11.075451 -0.000000
v 121.141441 -8.350911 0.000000
v 100.889160 -14.550168 0.000000
v 93.999786 -13.283836 -0.000001
v 107.915176 17.380287 -0.000001
v 100.897018 16.510885 -0.000001
v 116.401993 16.478214 0.000000
v 122.425621 14.473403 -0.000001
v 94.437836 14.823908 0.000000
v 113.110054 -13.263728 0.000000
v 106.826157 -14.828643 -0.000000
v 125.920204 12.566944 0.000000
v 124.617500 -3.337212 -0.000000
v 127.481674 8.114872 -0.000001
v 133.220993 6.875762 0.000002
v 128.725998 -3.807350 -0.000000
v 94.981339 -0.149566 0.000000
v 94.217522 -13.856055 -0.000001
v 94.655571 15.332781 -0.000000
v 82.239677 16.883163 -0.000000
v 89.479752 14.509780 -14.625675
v 94.422180 -0.578696 -11.349173
v 94.278358 -9.851938 -5.211148
v 94.239426 -12.597786 -4.441890
v 94.236191 -12.783529 0.000000
v 94.217522 -13.856055 0.000000
v 89.183647 -13.766872 -13.527893
v 94.553467 8.727482 -9.970413
v 94.614136 12.665224 -0.000001
v 94.655571 15.332781 0.000001
v 82.183739 -15.725124 0.000000
v 68.883102 20.162796 0.000002
v 71.621826 -18.972340 -0.000000
v 56.250011 22.252600 -9.681485
v 125.385429 7.841044 -8.944439
v 123.415710 -1.356659 -5.531765
v 125.927910 11.844473 -0.000000
v 125.920204 12.566944 -0.000001
v 133.096008 12.744725 -5.137007
v 121.942055 -6.040512 -15.789599
v 82.188683 -10.196095 -8.562087
v 82.185707 -14.612880 0.000000
v 88.563301 -0.263037 -19.548635
v 82.214500 -0.139099 -17.556038
v 82.128098 9.613317 -0.000000
v 82.239677 16.883163 -6.324191
v 82.238548 16.082165 0.000001
v 82.183739 -15.725124 -12.343717
v 82.237160 14.499452 -4.441890
v 94.236191 -12.783529 0.000000
v 97.295769 -14.024785 -16.924480
v 114.986649 12.401075 -17.023455
v 108.018921 9.230544 -17.023455
v 108.018921 9.230544 -18.549734
v 108.067329 7.726598 -16.775455
v 108.250023 -0.270829 -17.493137
v 122.955040 4.298613 -17.361156
v 120.045715 -1.682340 -16.912966
v 115.122581 -4.141397 -17.356787
v 121.011993 10.909490 -23.118206
v 106.205925 7.013010 -28.462301
v 103.616936 6.144745 -41.684921
v 95.371460 5.454032 -30.890890
v 102.176971 5.725012 -36.011101
v 98.507301 5.739232 -45.882210
v 92.817703 5.221779 0.026069

vt 0.989936 0.006280
vt 0.917659 0.081911
vt 0.921319 0.158924
vt 0.934956 0.006570
vt 0.756532 0.267979
vt 0.762692 0.006594
vt 0.552959 0.096708
vt 0.588939 0.006356
vt 0.836113 0.110086
vt 0.840866 0.238603
vt 0.856239 0.119177
vt 0.758009 0.196719
vt 0.720096 0.081911
vt 0.921319 0.158924
vt 0.934956 0.119177
vt 0.758009 0.267979
vt 0.762692 0.096708
vt 0.588939 0.164707
vt 0.651322 0.110086
vt 0.840866 0.238603
vt 0.856239 0.196719
vt 0.720096 0.106993
vt 0.658966 0.006706
vt 0.661798 0.106993
vt 0.658966 0.164707
vt 0.651322 0.257358
vt 0.623049 0.257179
vt 0.557383 0.265365
vt 0.554818 0.268432
vt 0.554819 0.269116
vt 0.554819 0.262016
vt 0.554820 0.257220
vt 0.554820 0.265219
vt 0.554820 0.266473
vt 0.554819 0.249464
vt 0.554818 0.245713
vt 0.554819 0.246396
vt 0.554819 0.252424
vt 0.554820 0.249596
vt 0.554820 0.248355
vt 0.554819 1.000000
vt 0.989936 0.006280
vt 0.917659 0.081911
vt 0.921319 0.158924
vt 0.934956 0.006570
vt 0.756532 0.267979
vt 0.762692 0.006594
vt 0.552959 0.096708
vt 0.588939 0.006356
vt 0.836113 0.110086
vt 0.840866 0.238603
vt 0.856239 0.119177
vt 0.758009 0.196719
vt 0.720096 0.081911
vt 0.921319 0.158924
vt 0.934956 0.119177
vt 0.758009 0.267979
vt 0.762692 0.096708
vt 0.588939 0.164707
vt 0.651322 0.110086
vt 0.840866 0.238603
vt 0.856239 0.196719
vt 0.720096 0.106993
vt 0.658966 0.006706
vt 0.661798 0.106993
vt 0.658966 0.164707
vt 0.651322 0.257358
vt 0.623049 0.257179
vt 0.557383 0.265365
vt 0.554818 0.268432
vt 0.554819 0.269116
vt 0.554819 0.262016
vt 0.554820 0.257220
vt 0.554820 0.265219
vt 0.554820 0.266473
vt 0.554819 0.249464
vt 0.554818 0.245713
vt 0.554819 0.246396
vt 0.554819 0.252424
vt 0.554820 0.249596
vt 0.554820 0.248355
vt 0.554819 1.000000
vt 0.623033 0.153755
vt 0.555189 0.153755
vt 0.555189 0.141772
vt 0.555190 0.139239
vt 0.555188 0.163080
vt 0.555196 0.162135
vt 0.555193 0.063269
vt 0.461798 0.121377
vt 0.514505 0.196647
vt 0.489829 0.121621
vt 0.481039 0.041462
vt 0.477149 0.236299
vt 0.450202 0.172742
vt 0.468624 0.195290
vt 0.417528 0.052796
vt 0.417399 0.248337
vt 0.417507 0.121522
vt 0.417422 0.214573
vt 0.417539 0.063269
vt 0.461798 0.121377
vt 0.514505 0.196647
vt 0.489829 0.121621
vt 0.481039 0.041462
vt 0.477149 0.236299
vt 0.450202 0.172742
vt 0.468624 0.144576
vt 0.555188 0.162135
vt 0.555193 0.144576
vt 0.555188 0.141772
vt 0.555190 0.707479
vt 0.986021 0.635492
vt 0.986601 0.922498
vt 0.988048 0.590151
vt 0.989351 0.990938
vt 0.987968 0.707479
vt 0.986021 0.815805
vt 0.986130 0.635492
vt 0.986601 0.922498
vt 0.988048 0.986304
vt 0.964945 0.971592
vt 0.947530 0.954532
vt 0.967135 0.948560
vt 0.951814 0.931597
vt 0.939455 0.923812
vt 0.927173 0.899673
vt 0.957740 0.883937
vt 0.930671 0.850377
vt 0.903129 0.823907
vt 0.946802 0.797891
vt 0.922101 0.762383
vt 0.901852 0.755342
vt 0.896827 0.758024
vt 0.916284 0.762547
vt 0.954115 0.735680
vt 0.930172 0.701583
vt 0.910972 0.686771
vt 0.930227 0.676579
vt 0.948024 0.657607
vt 0.932863 0.637662
vt 0.925413 0.635908
vt 0.945436 0.617591
vt 0.933170 0.595313
vt 0.926600 0.927516
vt 0.961249 0.816085
vt 0.984842 0.703178
vt 0.956305 0.710893
vt 0.916957 0.587162
vt 0.950628 0.815805
vt 0.986130 0.993737
vt 0.979747 0.986304
vt 0.964945 0.971592
vt 0.947530 0.954532
vt 0.967135 0.948560
vt 0.951814 0.931597
vt 0.939455 0.923812
vt 0.927173 0.899673
vt 0.957740 0.883937
vt 0.930671 0.850377
vt 0.903129 0.823907
vt 0.946802 0.797891
vt 0.922101 0.762383
vt 0.901852 0.755342
vt 0.896827 0.758024
vt 0.916284 0.762547
vt 0.954115 0.735680
vt 0.930172 0.701583
vt 0.910972 0.686771
vt 0.930227 0.676579
vt 0.948024 0.657607
vt 0.932863 0.637662
vt 0.925413 0.635908
vt 0.945436 0.617591
vt 0.933170 0.595313
vt 0.926600 0.587956
vt 0.982839 0.927516
vt 0.961249 0.816085
vt 0.984842 0.703178
vt 0.956305 0.710893
vt 0.916957 0.587162
vt 0.950628 0.004166
vt 0.417406 0.121735
vt 0.551169 0.217393
vt 0.520344 0.249113
vt 0.471366 0.263714
vt 0.417529 0.028595
vt 0.498188 0.052796
vt 0.417399 0.121522
vt 0.417422 0.195290
vt 0.417528 0.004166
vt 0.417406 0.214573
vt 0.417539 0.248337
vt 0.417507 0.217393
vt 0.520344 0.121735
vt 0.551169 0.263714
vt 0.417529 0.249113
vt 0.471366 0.028595
vt 0.498188 0.990938
vt 0.987968 0.993737
vt 0.979747 0.590151
vt 0.989351 0.587956
vt 0.982839 1.000000
vt 0.623033 0.153755
vt 0.555189 0.153755
vt 0.555189 0.141772
vt 0.555190 0.139239
vt 0.555188 0.163080
vt 0.555196 0.162135
vt 0.555193 0.063269
vt 0.461798 0.121377
vt 0.514505 0.196647
vt 0.489829 0.121621
vt 0.481039 0.041462
vt 0.477149 0.236299
vt 0.450202 0.172742
vt 0.468624 0.195290
vt 0.417528 0.052796
vt 0.417399 0.248337
vt 0.417507 0.121522
vt 0.417422 0.214573
vt 0.417539 0.063269
vt 0.461798 0.121377
vt 0.514505 0.196647
vt 0.489829 0.121621
vt 0.481039 0.041462
vt 0.477149 0.236299
vt 0.450202 0.172742
vt 0.468624 0.144576
vt 0.555188 0.162135
vt 0.555193 0.144576
vt 0.555188 0.141772
vt 0.555190 0.707479
vt 0.986021 0.635492
vt 0.986601 0.922498
vt 0.988048 0.590151
vt 0.989351 0.990938
vt 0.987968 0.707479
vt 0.986021 0.815805
vt 0.986130 0.635492
vt 0.986601 0.922498
vt 0.988048 0.986304
vt 0.964945 0.971592
vt 0.947530 0.954532
vt 0.967135 0.948560
vt 0.951814 0.931597
vt 0.939455 0.923812
vt 0.927173 0.899673
vt 0.957740 0.883937
vt 0.930671 0.850377
vt 0.903129 0.823907
vt 0.946802 0.797891
vt 0.922101 0.762383
vt 0.901852 0.755342
vt 0.896827 0.758024
vt 0.916284 0.762547
vt 0.954115 0.735680
vt 0.930172 0.701583
vt 0.910972 0.686771
vt 0.930227 0.676579
vt 0.948024 0.657607
vt 0.932863 0.637662
vt 0.925413 0.635908
vt 0.945436 0.617591
vt 0.933170 0.595313
vt 0.926600 0.927516
vt 0.961249 0.816085
vt 0.984842 0.703178
vt 0.956305 0.710893
vt 0.916957 0.587162
vt 0.950628 0.815805
vt 0.986130 0.993737
vt 0.979747 0.986304
vt 0.964945 0.971592
vt 0.947530 0.954532
vt 0.967135 0.948560
vt 0.951814 0.931597
vt 0.939455 0.923812
vt 0.927173 0.899673
vt 0.957740 0.883937
vt 0.930671 0.850377
vt 0.903129 0.823907
vt 0.946802 0.797891
vt 0.922101 0.762383
vt 0.901852 0.755342
vt 0.896827 0.758024
vt 0.916284 0.762547
vt 0.954115 0.735680
vt 0.930172 0.701583
vt 0.910972 0.686771
vt 0.930227 0.676579
vt 0.948024 0.657607
vt 0.932863 0.637662
vt 0.925413 0.635908
vt 0.945436 0.617591
vt 0.933170 0.595313
vt 0.926600 0.587956
vt 0.982839 0.927516
vt 0.961249 0.816085
vt 0.984842 0.703178
vt 0.956305 0.710893
vt 0.916957 0.587162
vt 0.950628 0.004166
vt 0.417406 0.121735
vt 0.551169 0.217393
vt 0.520344 0.249113
vt 0.471366 0.263714
vt 0.417529 0.028595
vt 0.498188 0.121522
vt 0.417422 0.052796
vt 0.417399 0.195290
vt 0.417528 0.004166
vt 0.417406 0.214573
vt 0.417539 0.248337
vt 0.417507 0.121735
vt 0.551169 0.217393
vt 0.520344 0.249113
vt 0.471366 0.263714
vt 0.417529 0.028595
vt 0.498188 0.990938
vt 0.987968 0.993737
vt 0.979747 0.587956
vt 0.982839 0.590151
vt 0.989351 1.000000
vt 0.939209 0.294498
vt 0.894167 0.293641
vt 0.937152 0.291129
vt 0.863043 0.574109
vt 0.931634 0.511932
vt 0.968399 0.493086
vt 0.998885 0.341200
vt 0.900078 0.408792
vt 0.917654 0.373809
vt 0.911734 0.471071
vt 0.944999 0.439655
vt 0.928833 0.897508
vt 0.708570 0.795664
vt 0.771771 0.838885
vt 0.739802 0.919959
vt 0.693460 0.862786
vt 0.726008 0.819314
vt 0.755647 0.572584
vt 0.924504 0.306461
vt 0.859966 0.443961
vt 0.856049 0.366769
vt 0.825438 0.335791
vt 0.809219 0.297449
vt 0.780464 0.474762
vt 0.919920 0.398268
vt 0.838394 0.359042
vt 0.764238 0.355633
vt 0.702812 0.544856
vt 0.800748 0.511161
vt 0.791860 0.416329
vt 0.795318 0.907380
vt 0.841246 0.532639
vt 0.882768 0.489581
vt 0.870389 0.396437
vt 0.763722 0.369527
vt 0.746813 0.426332
vt 0.777613 0.412176
vt 0.743246 0.441145
vt 0.759772 0.386262
vt 0.725377 0.886528
vt 0.806999 0.863293
vt 0.824241 0.841955
vt 0.839915 0.965966
vt 0.752860 0.520247
vt 0.922953 0.387036
vt 0.781517 0.466552
vt 0.794822 0.506413
vt 0.810615 0.542541
vt 0.818162 0.587457
vt 0.819614 0.880062
vt 0.717681 0.346662
vt 0.880606 0.377912
vt 0.898672 0.514012
vt 0.944338 0.440814
vt 0.918120 0.459686
vt 0.812452 0.502893
vt 0.827211 0.539797
vt 0.835451 0.590472
vt 0.839066 0.363436
vt 0.944935 0.461069
vt 0.978548 0.397623
vt 0.952243 0.331321
vt 0.940090 0.432405
vt 0.964323 0.341200
vt 0.900078 0.408792
vt 0.917654 0.373809
vt 0.911734 0.471071
vt 0.944999 0.439655
vt 0.928833 0.897508
vt 0.708570 0.795664
vt 0.771771 0.838885
vt 0.739802 0.919959
vt 0.693460 0.862786
vt 0.726008 0.819314
vt 0.755647 0.572584
vt 0.924504 0.306461
vt 0.859966 0.443961
vt 0.856049 0.366769
vt 0.825438 0.335791
vt 0.809219 0.297449
vt 0.780464 0.474762
vt 0.919920 0.398268
vt 0.838394 0.359042
vt 0.764238 0.355633
vt 0.702812 0.544856
vt 0.800748 0.511161
vt 0.791860 0.416329
vt 0.795318 0.907380
vt 0.841246 0.532639
vt 0.882768 0.489581
vt 0.870389 0.396437
vt 0.763722 0.369527
vt 0.746813 0.426332
vt 0.777613 0.412176
vt 0.743246 0.441145
vt 0.759772 0.386262
vt 0.725377 0.886528
vt 0.806999 0.863293
vt 0.824241 0.841955
vt 0.839915 0.965966
vt 0.752860 0.520247
vt 0.922953 0.387036
vt 0.781517 0.466552
vt 0.794822 0.506413
vt 0.810615 0.542541
vt 0.818162 0.587457
vt 0.819614 0.880062
vt 0.717681 0.346662
vt 0.880606 0.377912
vt 0.898672 0.514012
vt 0.944338 0.440814
vt 0.918120 0.459686
vt 0.812452 0.502893
vt 0.827211 0.539797
vt 0.835451 0.590472
vt 0.839066 0.363436
vt 0.944935 0.461069
vt 0.978548 0.397623
vt 0.952243 0.331321
vt 0.940090 0.432405
vt 0.964323 0.282071
vt 0.814145 0.335085
vt 0.719481 0.322141
vt 0.735294 0.884322
vt 0.857895 0.965562
vt 0.802768 0.862700
vt 0.872969 0.837128
vt 0.887116 0.814004
vt 0.852379 0.474810
vt 0.777921 0.929164
vt 0.822997 0.947990
vt 0.811786 0.987817
vt 0.787774 0.581612
vt 0.890944 0.777048
vt 0.786352 0.274533
vt 0.817605 0.582156
vt 0.802066 0.574109
vt 0.931634 0.540910
vt 0.939209 0.282071
vt 0.814145 0.335085
vt 0.719481 0.322141
vt 0.735294 0.884322
vt 0.857895 0.965562
vt 0.802768 0.862700
vt 0.872969 0.837128
vt 0.887116 0.814004
vt 0.852379 0.474810
vt 0.777921 0.929164
vt 0.822997 0.947990
vt 0.811786 0.987817
vt 0.787774 0.581612
vt 0.890944 0.777048
vt 0.786352 0.291129
vt 0.863043 0.274533
vt 0.817605 0.582156
vt 0.802066 0.294498
vt 0.894167 0.511932
vt 0.968399 0.293641
vt 0.937152 0.493086
vt 0.998885 1.000000
vt 0.084067 0.503494
vt 0.325508 0.698155
vt 0.485932 0.973466
vt 0.267725 0.973118
vt 0.389521 0.973262
vt 0.320609 0.719360
vt 0.788741 0.198915
vt 0.555217 0.993331
vt 0.584175 0.889285
vt 0.665409 0.221008
vt 0.623134 0.283678
vt 0.526018 0.973143
vt 0.434020 0.436691
vt 0.169957 0.973982
vt 0.009222 0.973844
vt 0.148293 0.644588
vt 0.463934 0.574612
vt 0.414072 0.973708
vt 0.216670 0.803318
vt 0.540052 0.464070
vt 0.246204 0.756621
vt 0.499303 0.184057
vt 0.623267 0.283578
vt 0.401642 0.283597
vt 0.599539 0.170903
vt 0.555215 0.080681
vt 0.009167 0.776516
vt 0.747583 0.283715
vt 0.683506 0.771297
vt 0.408350 0.895362
vt 0.282073 0.700515
vt 0.384025 0.794241
vt 0.173963 0.642817
vt 0.329430 0.849661
vt 0.224088 0.844885
vt 0.162033 0.595775
vt 0.257927 0.903274
vt 0.152965 0.901930
vt 0.218134 0.721350
vt 0.349300 0.652103
vt 0.209566 0.678196
vt 0.293678 0.754031
vt 0.183505 0.787137
vt 0.370515 0.813596
vt 0.315683 0.810094
vt 0.253049 0.781817
vt 0.360568 0.834806
vt 0.096865 0.565032
vt 0.192516 0.728900
vt 0.120838 0.903271
vt 0.088607 0.631854
vt 0.159237 0.799252
vt 0.255383 0.724551
vt 0.439115 0.905214
vt 0.402358 0.810826
vt 0.444301 0.912305
vt 0.339538 0.861304
vt 0.366089 0.845610
vt 0.488983 0.900397
vt 0.455946 0.821597
vt 0.024604 0.905288
vt 0.010724 0.706502
vt 0.049013 0.538398
vt 0.124216 0.596901
vt 0.094425 0.174745
vt 0.555215 0.172110
vt 0.555215 0.183645
vt 0.555216 0.196355
vt 0.555217 0.192576
vt 0.555216 0.346197
vt 0.601949 0.428359
vt 0.611174 0.518240
vt 0.636858 0.644652
vt 0.714298 0.685515
vt 0.754151 0.600714
vt 0.679262 0.556286
vt 0.563780 0.643703
vt 0.607386 0.342887
vt 0.402737 0.836860
vt 0.608622 0.933149
vt 0.522820 0.777275
vt 0.567792 0.688520
vt 0.538739 0.581799
vt 0.502681 0.475732
vt 0.452139 0.437399
vt 0.408385 0.410377
vt 0.348563 0.346196
vt 0.348607 0.376123
vt 0.526885 0.454551
vt 0.534922 0.737084
vt 0.698047 0.696852
vt 0.652294 0.171932
vt 0.555215 0.071342
vt 0.171145 0.081264
vt 0.099057 0.088836
vt 0.220458 0.081674
vt 0.053193 0.084245
vt 0.185172 0.039262
vt 0.215677 0.061728
vt 0.215675 0.312078
vt 0.673230 0.728047
vt 0.341390 0.806305
vt 0.306316 0.691501
vt 0.289344 0.750414
vt 0.196831 0.661962
vt 0.215679 0.293223
vt 0.264640 0.298205
vt 0.306406 0.304119
vt 0.107546 0.292804
vt 0.224791 0.294615
vt 0.188023 0.294136
vt 0.141290 0.236377
vt 0.140991 0.261677
vt 0.071547 0.257073
vt 0.107031 0.231978
vt 0.264666 0.229904
vt 0.188020 0.245260
vt 0.224798 0.255503
vt 0.141266 0.232490
vt 0.164784 0.254645
vt 0.187994 0.228108
vt 0.224814 0.328800
vt 0.071591 0.328634
vt 0.264626 0.326785
vt 0.141462 0.327777
vt 0.224714 0.427975
vt 0.071645 0.427971
vt 0.107082 0.427973
vt 0.264609 0.427971
vt 0.141400 0.427972
vt 0.224670 0.327395
vt 0.188035 0.427970
vt 0.188042 0.322328
vt 0.107062 0.344513
vt 0.071592 0.341347
vt 0.141451 0.348365
vt 0.107069 0.334716
vt 0.107066 0.342171
vt 0.188037 0.344104
vt 0.224709 0.344896
vt 0.264624 0.375084
vt 0.264618 0.375082
vt 0.224721 0.375047
vt 0.188045 0.374909
vt 0.141420 0.374828
vt 0.107068 0.375024
vt 0.306359 0.404220
vt 0.071620 0.404429
vt 0.224692 0.403060
vt 0.141410 0.403903
vt 0.188044 0.404681
vt 0.264613 0.404002
vt 0.107076 0.771297
vt 0.408350 0.895362
vt 0.282073 0.700515
vt 0.384025 0.794241
vt 0.173963 0.642817
vt 0.329430 0.849661
vt 0.224088 0.844885
vt 0.162033 0.595775
vt 0.257927 0.903274
vt 0.152965 0.901930
vt 0.218134 0.721350
vt 0.349300 0.652103
vt 0.209566 0.678196
vt 0.293678 0.754031
vt 0.183505 0.787137
vt 0.370515 0.813596
vt 0.315683 0.810094
vt 0.253049 0.781817
vt 0.360568 0.834806
vt 0.096865 0.565032
vt 0.192516 0.728900
vt 0.120838 0.903271
vt 0.088607 0.631854
vt 0.159237 0.799252
vt 0.255383 0.724551
vt 0.439115 0.905214
vt 0.402358 0.810826
vt 0.444301 0.912305
vt 0.339538 0.861304
vt 0.366089 0.845610
vt 0.488983 0.900397
vt 0.455946 0.821597
vt 0.024604 0.905288
vt 0.010724 0.706502
vt 0.049013 0.538398
vt 0.124216 0.596901
vt 0.094425 0.174745
vt 0.555215 0.172110
vt 0.555215 0.183645
vt 0.555216 0.196355
vt 0.555217 0.192576
vt 0.555216 0.346197
vt 0.601949 0.428359
vt 0.611174 0.518240
vt 0.636858 0.644652
vt 0.714298 0.685515
vt 0.754151 0.600714
vt 0.679262 0.556286
vt 0.563780 0.643703
vt 0.607386 0.342887
vt 0.402737 0.836860
vt 0.608622 0.933149
vt 0.522820 0.777275
vt 0.567792 0.688520
vt 0.538739 0.581799
vt 0.502681 0.475732
vt 0.452139 0.437399
vt 0.408385 0.410377
vt 0.348563 0.346196
vt 0.348607 0.376123
vt 0.526885 0.454551
vt 0.534922 0.737084
vt 0.698047 0.696852
vt 0.652294 0.171932
vt 0.555215 0.071342
vt 0.171145 0.081264
vt 0.099057 0.088836
vt 0.220458 0.081674
vt 0.053193 0.084245
vt 0.185172 0.039262
vt 0.215677 0.061728
vt 0.215675 0.312078
vt 0.673230 0.728047
vt 0.341390 0.806305
vt 0.306316 0.691501
vt 0.289344 0.750414
vt 0.196831 0.661962
vt 0.215679 0.293223
vt 0.264640 0.298205
vt 0.306406 0.304119
vt 0.107546 0.292804
vt 0.224791 0.294615
vt 0.188023 0.294136
vt 0.141290 0.236377
vt 0.140991 0.261677
vt 0.071547 0.257073
vt 0.107031 0.231978
vt 0.264666 0.229904
vt 0.188020 0.245260
vt 0.224798 0.255503
vt 0.141266 0.232490
vt 0.164784 0.254645
vt 0.187994 0.228108
vt 0.224814 0.328800
vt 0.071591 0.328634
vt 0.264626 0.326785
vt 0.141462 0.327777
vt 0.224714 0.427975
vt 0.071645 0.427971
vt 0.107082 0.427973
vt 0.264609 0.427971
vt 0.141400 0.427972
vt 0.224670 0.327395
vt 0.188035 0.427970
vt 0.188042 0.322328
vt 0.107062 0.344513
vt 0.071592 0.341347
vt 0.141451 0.348365
vt 0.107069 0.334716
vt 0.107066 0.342171
vt 0.188037 0.344104
vt 0.224709 0.344896
vt 0.264624 0.375084
vt 0.264618 0.375082
vt 0.224721 0.375047
vt 0.188045 0.374909
vt 0.141420 0.374828
vt 0.107068 0.375024
vt 0.306359 0.404220
vt 0.071620 0.404429
vt 0.224692 0.403060
vt 0.141410 0.403903
vt 0.188044 0.404681
vt 0.264613 0.404002
vt 0.107076 0.496904
vt 0.682308 0.406644
vt 0.658152 0.338612
vt 0.652692 0.330832
vt 0.652715 0.283699
vt 0.652847 0.575579
vt 0.726577 0.611964
vt 0.757031 0.680143
vt 0.828922 0.008624
vt 0.102335 0.008617
vt 0.173151 0.008622
vt 0.059375 0.008606
vt 0.018835 0.008621
vt 0.219213 0.212708
vt 0.554968 0.209154
vt 0.554968 0.220799
vt 0.554968 0.228645
vt 0.554967 0.234494
vt 0.554968 0.233849
vt 0.554968 0.208259
vt 0.554967 0.232576
vt 0.554968 0.330832
vt 0.652715 0.232120
vt 0.107014 0.246082
vt 0.071546 0.236044
vt 0.306446 0.221663
vt 0.264705 0.253957
vt 0.306447 0.206046
vt 0.164722 0.207006
vt 0.188067 0.210495
vt 0.224932 0.205763
vt 0.140770 0.305966
vt 0.071564 0.329736
vt 0.306369 0.404209
vt 0.306348 0.345043
vt 0.306355 0.375052
vt 0.071590 0.427977
vt 0.306339 0.973466
vt 0.267725 0.973262
vt 0.320609 0.973931
vt 0.084067 0.973982
vt 0.009222 0.503494
vt 0.325508 0.464070
vt 0.246204 0.574612
vt 0.414072 0.644588
vt 0.463934 0.436691
vt 0.169957 0.973708
vt 0.216670 0.973844
vt 0.148293 0.698155
vt 0.485932 0.973118
vt 0.389521 0.756621
vt 0.499303 0.803318
vt 0.540052 0.973143
vt 0.434020 0.184057
vt 0.623267 0.170903
vt 0.555215 0.198915
vt 0.555217 0.776516
vt 0.747583 0.719360
vt 0.788741 0.496904
vt 0.682308 0.406644
vt 0.658152 0.338612
vt 0.652692 0.330832
vt 0.652715 0.283699
vt 0.652847 0.283597
vt 0.599539 0.575579
vt 0.726577 0.611964
vt 0.757031 0.680143
vt 0.828922 0.283678
vt 0.526018 0.889285
vt 0.665409 0.283578
vt 0.401642 0.993331
vt 0.584175 0.008624
vt 0.102335 0.008617
vt 0.173151 0.008622
vt 0.059375 0.008606
vt 0.018835 0.080681
vt 0.009167 0.008621
vt 0.219213 0.212708
vt 0.554968 0.209154
vt 0.554968 0.221008
vt 0.623134 0.220799
vt 0.554968 0.228645
vt 0.554967 0.234494
vt 0.554968 0.233849
vt 0.554968 0.208259
vt 0.554967 0.232576
vt 0.554968 0.330832
vt 0.652715 0.283715
vt 0.683506 0.232120
vt 0.107014 0.246082
vt 0.071546 0.236044
vt 0.306446 0.253957
vt 0.306447 0.221663
vt 0.264705 0.206046
vt 0.164722 0.207006
vt 0.188067 0.210495
vt 0.224932 0.205763
vt 0.140770 0.305966
vt 0.071564 0.329736
vt 0.306369 0.404209
vt 0.306348 0.345043
vt 0.306355 0.375052
vt 0.071590 0.427977
vt 0.306339 1.000000

f 1/1 3/3 2/2
f 1/1 4/4 3/3
f 9/9 3/3 10/10
f 3/3 9/9 2/2
f 10/10 4/4 11/11
f 4/4 10/10 3/3
f 12/12 6/6 13/13
f 5/5 10/10 12/12
f 10/10 5/5 9/9
f 12/12 11/11 6/6
f 11/11 12/12 10/10
f 5/5 25/25 24/24
f 25/25 5/5 12/12
f 12/12 26/26 25/25
f 26/26 12/12 13/13
f 1/1 2/2 14/14
f 1/1 14/14 15/15
f 9/9 14/14 2/2
f 14/14 9/9 20/20
f 20/20 15/15 14/14
f 15/15 20/20 21/21
f 16/16 22/22 17/17
f 5/5 20/20 9/9
f 20/20 5/5 16/16
f 16/16 21/21 20/20
f 21/21 16/16 17/17
f 5/5 23/23 16/16
f 23/23 5/5 24/24
f 16/16 19/19 22/22
f 19/19 16/16 23/23
f 19/19 23/23 18/18
f 18/18 24/24 7/7
f 24/24 18/18 23/23
f 24/24 8/8 7/7
f 8/8 24/24 25/25
f 25/25 26/26 8/8
f 28/28 27/27 29/29
f 30/30 27/27 31/31
f 32/32 27/27 33/33
f 34/34 27/27 32/32
f 35/35 27/27 34/34
f 29/29 27/27 30/30
f 31/31 27/27 35/35
f 36/36 27/27 28/28
f 37/37 27/27 38/38
f 33/33 27/27 39/39
f 39/39 27/27 40/40
f 40/40 27/27 41/41
f 38/38 27/27 36/36
f 41/41 27/27 37/37
f 42/42 43/43 44/44
f 42/42 44/44 45/45
f 50/50 51/51 44/44
f 44/44 43/43 50/50
f 51/51 52/52 45/45
f 45/45 44/44 51/51
f 53/53 54/54 47/47
f 46/46 53/53 51/51
f 51/51 50/50 46/46
f 53/53 47/47 52/52
f 52/52 51/51 53/53
f 46/46 65/65 66/66
f 66/66 53/53 46/46
f 53/53 66/66 67/67
f 67/67 54/54 53/53
f 42/42 55/55 43/43
f 42/42 56/56 55/55
f 50/50 43/43 55/55
f 55/55 61/61 50/50
f 61/61 55/55 56/56
f 56/56 62/62 61/61
f 57/57 58/58 63/63
f 46/46 50/50 61/61
f 61/61 57/57 46/46
f 57/57 61/61 62/62
f 62/62 58/58 57/57
f 46/46 57/57 64/64
f 64/64 65/65 46/46
f 57/57 63/63 60/60
f 60/60 64/64 57/57
f 60/60 59/59 64/64
f 59/59 48/48 65/65
f 65/65 64/64 59/59
f 65/65 48/48 49/49
f 49/49 66/66 65/65
f 66/66 49/49 67/67
f 69/69 70/70 68/68
f 71/71 72/72 68/68
f 73/73 74/74 68/68
f 75/75 73/73 68/68
f 76/76 75/75 68/68
f 70/70 71/71 68/68
f 72/72 76/76 68/68
f 77/77 69/69 68/68
f 78/78 79/79 68/68
f 74/74 80/80 68/68
f 80/80 81/81 68/68
f 81/81 82/82 68/68
f 79/79 77/77 68/68
f 82/82 78/78 68/68
f 83/83 109/109 84/84
f 83/83 84/84 110/110
f 83/83 85/85 111/111
f 83/83 89/89 85/85
f 83/83 87/87 86/86
f 83/83 86/86 109/109
f 83/83 110/110 88/88
f 83/83 112/112 87/87
f 83/83 111/111 112/112
f 83/83 88/88 89/89
f 93/93 91/91 96/96
f 92/92 96/96 91/91
f 94/94 91/91 90/90
f 93/93 90/90 91/91
f 95/95 96/96 92/92
f 93/93 100/100 90/90
f 98/98 90/90 100/100
f 97/97 100/100 96/96
f 93/93 96/96 100/100
f 98/98 183/183 90/90
f 94/94 90/90 183/183
f 97/97 96/96 95/95
f 101/101 97/97 95/95
f 99/99 101/101 95/95
f 91/91 184/184 92/92
f 185/185 92/92 184/184
f 95/95 186/186 99/99
f 187/187 99/99 186/186
f 92/92 185/185 95/95
f 186/186 95/95 185/185
f 188/188 94/94 183/183
f 184/184 91/91 188/188
f 94/94 188/188 91/91
f 104/104 103/103 108/108
f 105/105 108/108 103/103
f 105/105 103/103 102/102
f 106/106 102/102 103/103
f 108/108 107/107 104/104
f 189/189 190/190 102/102
f 105/105 102/102 190/190
f 105/105 190/190 108/108
f 191/191 108/108 190/190
f 106/106 192/192 102/102
f 189/189 102/102 192/192
f 108/108 191/191 107/107
f 191/191 193/193 107/107
f 193/193 194/194 107/107
f 195/195 196/196 104/104
f 103/103 104/104 196/196
f 197/197 198/198 194/194
f 107/107 194/194 198/198
f 198/198 195/195 107/107
f 104/104 107/107 195/195
f 106/106 199/199 192/192
f 106/106 103/103 199/199
f 196/196 199/199 103/103
f 146/146 126/126 125/125
f 127/127 126/126 128/128
f 146/146 128/128 126/126
f 129/129 128/128 147/147
f 140/140 148/148 118/118
f 120/120 144/144 143/143
f 150/150 144/144 120/120
f 146/146 121/121 128/128
f 124/124 123/123 122/122
f 117/117 121/121 124/124
f 124/124 121/121 125/125
f 146/146 125/125 121/121
f 152/152 117/117 124/124
f 124/124 122/122 152/152
f 131/131 130/130 129/129
f 131/131 136/136 132/132
f 135/135 132/132 136/136
f 147/147 128/128 119/119
f 121/121 119/119 128/128
f 129/129 147/147 131/131
f 147/147 119/119 136/136
f 118/118 136/136 119/119
f 118/118 148/148 136/136
f 131/131 147/147 136/136
f 135/135 134/134 133/133
f 133/133 132/132 135/135
f 148/148 137/137 136/136
f 140/140 139/139 148/148
f 118/118 120/120 143/143
f 148/148 138/138 149/149
f 139/139 138/138 148/148
f 149/149 137/137 148/148
f 143/143 141/141 140/140
f 140/140 118/118 143/143
f 143/143 142/142 141/141
f 150/150 145/145 144/144
f 120/120 116/116 177/177
f 177/177 150/150 120/120
f 157/157 178/178 156/156
f 178/178 157/157 159/159
f 158/158 159/159 157/157
f 159/159 160/160 179/179
f 180/180 171/171 113/113
f 175/175 114/114 174/174
f 175/175 182/182 114/114
f 115/115 178/178 159/159
f 154/154 155/155 153/153
f 115/115 200/200 155/155
f 178/178 115/115 156/156
f 155/155 156/156 115/115
f 200/200 201/201 155/155
f 153/153 155/155 201/201
f 161/161 162/162 160/160
f 166/166 167/167 163/163
f 162/162 163/163 167/167
f 115/115 159/159 151/151
f 179/179 151/151 159/159
f 179/179 160/160 162/162
f 113/113 151/151 167/167
f 179/179 167/167 151/151
f 180/180 113/113 167/167
f 179/179 162/162 167/167
f 165/165 166/166 164/164
f 163/163 164/164 166/166
f 168/168 180/180 167/167
f 170/170 171/171 180/180
f 114/114 113/113 174/174
f 169/169 180/180 181/181
f 169/169 170/170 180/180
f 168/168 181/181 180/180
f 172/172 174/174 171/171
f 113/113 171/171 174/174
f 173/173 174/174 172/172
f 176/176 182/182 175/175
f 202/202 114/114 203/203
f 182/182 203/203 114/114
f 205/205 230/230 204/204
f 231/231 205/205 204/204
f 232/232 206/206 204/204
f 206/206 210/210 204/204
f 207/207 208/208 204/204
f 230/230 207/207 204/204
f 209/209 231/231 204/204
f 208/208 233/233 204/204
f 233/233 232/232 204/204
f 210/210 209/209 204/204
f 217/217 212/212 214/214
f 212/212 217/217 213/213
f 211/211 212/212 215/215
f 212/212 211/211 214/214
f 213/213 217/217 216/216
f 211/211 221/221 214/214
f 221/221 211/211 219/219
f 217/217 221/221 218/218
f 221/221 217/217 214/214
f 211/211 304/304 219/219
f 304/304 211/211 215/215
f 216/216 217/217 218/218
f 216/216 218/218 222/222
f 216/216 222/222 220/220
f 213/213 305/305 212/212
f 305/305 213/213 306/306
f 220/220 307/307 216/216
f 307/307 220/220 308/308
f 216/216 306/306 213/213
f 306/306 216/216 307/307
f 304/304 215/215 309/309
f 309/309 212/212 305/305
f 212/212 309/309 215/215
f 229/229 224/224 225/225
f 224/224 229/229 226/226
f 223/223 224/224 226/226
f 224/224 223/223 227/227
f 225/225 228/228 229/229
f 223/223 310/310 311/311
f 310/310 223/223 226/226
f 229/229 310/310 226/226
f 310/310 229/229 312/312
f 223/223 313/313 227/227
f 313/313 223/223 311/311
f 228/228 312/312 229/229
f 228/228 314/314 312/312
f 228/228 315/315 314/314
f 225/225 316/316 317/317
f 316/316 225/225 224/224
f 315/315 318/318 319/319
f 318/318 315/315 228/228
f 228/228 317/317 318/318
f 317/317 228/228 225/225
f 313/313 320/320 227/227
f 320/320 224/224 227/227
f 224/224 320/320 316/316
f 246/246 247/247 267/267
f 249/249 247/247 248/248
f 247/247 249/249 267/267
f 268/268 249/249 250/250
f 239/239 269/269 261/261
f 264/264 265/265 241/241
f 241/241 265/265 271/271
f 249/249 242/242 267/267
f 243/243 244/244 245/245
f 245/245 242/242 238/238
f 246/246 242/242 245/245
f 242/242 246/246 267/267
f 245/245 238/238 273/273
f 273/273 243/243 245/245
f 250/250 251/251 252/252
f 253/253 257/257 252/252
f 257/257 253/253 256/256
f 240/240 249/249 268/268
f 249/249 240/240 242/242
f 252/252 268/268 250/250
f 257/257 240/240 268/268
f 240/240 257/257 239/239
f 257/257 269/269 239/239
f 257/257 268/268 252/252
f 254/254 255/255 256/256
f 256/256 253/253 254/254
f 257/257 258/258 269/269
f 269/269 260/260 261/261
f 264/264 241/241 239/239
f 270/270 259/259 269/269
f 269/269 259/259 260/260
f 269/269 258/258 270/270
f 261/261 262/262 264/264
f 264/264 239/239 261/261
f 262/262 263/263 264/264
f 265/265 266/266 271/271
f 298/298 237/237 241/241
f 241/241 271/271 298/298
f 277/277 299/299 278/278
f 280/280 278/278 299/299
f 278/278 280/280 279/279
f 300/300 281/281 280/280
f 234/234 292/292 301/301
f 295/295 235/235 296/296
f 235/235 303/303 296/296
f 280/280 299/299 236/236
f 274/274 276/276 275/275
f 276/276 321/321 236/236
f 277/277 236/236 299/299
f 236/236 277/277 276/276
f 276/276 322/322 321/321
f 322/322 276/276 274/274
f 281/281 283/283 282/282
f 284/284 288/288 287/287
f 288/288 284/284 283/283
f 272/272 280/280 236/236
f 280/280 272/272 300/300
f 283/283 281/281 300/300
f 288/288 272/272 234/234
f 272/272 288/288 300/300
f 288/288 234/234 301/301
f 288/288 283/283 300/300
f 285/285 287/287 286/286
f 287/287 285/285 284/284
f 288/288 301/301 289/289
f 301/301 292/292 291/291
f 295/295 234/234 235/235
f 302/302 301/301 290/290
f 301/301 291/291 290/290
f 301/301 302/302 289/289
f 292/292 295/295 293/293
f 295/295 292/292 234/234
f 293/293 295/295 294/294
f 296/296 303/303 297/297
f 323/323 235/235 324/324
f 235/235 323/323 303/303
f 329/329 343/343 325/325
f 349/349 335/335 378/378
f 334/334 333/333 377/377
f 345/345 350/350 333/333
f 377/377 346/346 376/376
f 332/332 334/334 377/377
f 349/349 369/369 357/357
f 336/336 349/349 379/379
f 348/348 344/344 347/347
f 348/348 446/446 344/344
f 347/347 346/346 351/351
f 370/370 351/351 346/346
f 383/383 374/374 382/382
f 372/372 380/380 381/381
f 370/370 350/350 355/355
f 350/350 370/370 346/346
f 447/447 364/364 352/352
f 351/351 448/448 347/347
f 371/371 361/361 355/355
f 353/353 354/354 373/373
f 372/372 373/373 354/354
f 349/349 357/357 358/358
f 360/360 351/351 359/359
f 370/370 359/359 351/351
f 370/370 355/355 359/359
f 361/361 359/359 355/355
f 361/361 371/371 363/363
f 360/360 447/447 351/351
f 449/449 366/366 356/356
f 365/365 356/356 366/366
f 359/359 362/362 360/360
f 364/364 360/360 362/362
f 359/359 361/361 362/362
f 363/363 362/362 361/361
f 340/340 368/368 337/337
f 450/450 337/337 368/368
f 451/451 452/452 367/367
f 453/453 367/367 452/452
f 366/366 449/449 367/367
f 451/451 367/367 449/449
f 371/371 454/454 363/363
f 339/339 341/341 365/365
f 455/455 365/365 341/341
f 356/356 365/365 455/455
f 364/364 447/447 360/360
f 456/456 455/455 341/341
f 341/341 375/375 456/456
f 457/457 450/450 368/368
f 369/369 458/458 357/357
f 458/458 369/369 343/343
f 337/337 450/450 456/456
f 365/365 342/342 339/339
f 342/342 365/365 366/366
f 367/367 342/342 366/366
f 342/342 367/367 338/338
f 453/453 338/338 367/367
f 338/338 453/453 459/459
f 349/349 378/378 369/369
f 344/344 328/328 332/332
f 379/379 345/345 333/333
f 347/347 344/344 346/346
f 376/376 346/346 344/344
f 446/446 460/460 328/328
f 335/335 349/349 336/336
f 454/454 372/372 354/354
f 350/350 380/380 355/355
f 373/373 374/374 461/461
f 379/379 358/358 345/345
f 332/332 328/328 326/326
f 328/328 344/344 446/446
f 325/325 369/369 378/378
f 343/343 369/369 325/325
f 371/371 372/372 454/454
f 345/345 380/380 350/350
f 358/358 357/357 381/381
f 358/358 381/381 345/345
f 373/373 461/461 353/353
f 382/382 381/381 357/357
f 348/348 347/347 448/448
f 357/357 458/458 383/383
f 375/375 337/337 456/456
f 377/377 376/376 332/332
f 332/332 376/376 344/344
f 346/346 377/377 350/350
f 377/377 333/333 350/350
f 325/325 378/378 330/330
f 335/335 330/330 378/378
f 349/349 358/358 379/379
f 336/336 379/379 333/333
f 380/380 371/371 355/355
f 372/372 371/371 380/380
f 381/381 380/380 345/345
f 381/381 382/382 372/372
f 373/373 372/372 382/382
f 382/382 374/374 373/373
f 357/357 383/383 382/382
f 448/448 351/351 447/447
f 332/332 327/327 387/387
f 334/334 332/332 387/387
f 332/332 326/326 327/327
f 333/333 334/334 384/384
f 384/384 386/386 333/333
f 335/335 336/336 388/388
f 388/388 385/385 335/335
f 331/331 335/335 385/385
f 335/335 331/331 330/330
f 388/388 333/333 386/386
f 333/333 388/388 336/336
f 387/387 384/384 334/334
f 462/462 463/463 400/400
f 406/406 435/435 392/392
f 391/391 434/434 390/390
f 402/402 390/390 407/407
f 434/434 433/433 403/403
f 389/389 434/434 391/391
f 406/406 414/414 426/426
f 393/393 436/436 406/406
f 405/405 404/404 401/401
f 405/405 401/401 464/464
f 404/404 408/408 403/403
f 427/427 403/403 408/408
f 440/440 439/439 431/431
f 429/429 438/438 437/437
f 427/427 412/412 407/407
f 407/407 403/403 427/427
f 465/465 409/409 421/421
f 408/408 404/404 466/466
f 428/428 412/412 418/418
f 410/410 430/430 411/411
f 429/429 411/411 430/430
f 406/406 415/415 414/414
f 417/417 416/416 408/408
f 427/427 408/408 416/416
f 427/427 416/416 412/412
f 418/418 412/412 416/416
f 418/418 420/420 428/428
f 417/417 408/408 465/465
f 467/467 413/413 423/423
f 422/422 423/423 413/413
f 416/416 417/417 419/419
f 421/421 419/419 417/417
f 416/416 419/419 418/418
f 420/420 418/418 419/419
f 397/397 394/394 425/425
f 468/468 425/425 394/394
f 469/469 424/424 470/470
f 471/471 470/470 424/424
f 423/423 424/424 467/467
f 469/469 467/467 424/424
f 428/428 420/420 472/472
f 396/396 422/422 398/398
f 473/473 398/398 422/422
f 413/413 473/473 422/422
f 421/421 417/417 465/465
f 474/474 398/398 473/473
f 398/398 474/474 432/432
f 475/475 425/425 468/468
f 426/426 414/414 476/476
f 476/476 400/400 426/426
f 394/394 474/474 468/468
f 422/422 396/396 399/399
f 399/399 423/423 422/422
f 424/424 423/423 399/399
f 399/399 395/395 424/424
f 471/471 424/424 395/395
f 395/395 477/477 471/471
f 406/406 426/426 435/435
f 401/401 389/389 478/478
f 436/436 390/390 402/402
f 404/404 403/403 401/401
f 433/433 401/401 403/403
f 464/464 478/478 479/479
f 392/392 393/393 406/406
f 472/472 411/411 429/429
f 407/407 412/412 437/437
f 430/430 480/480 431/431
f 436/436 402/402 415/415
f 389/389 481/481 478/478
f 478/478 464/464 401/401
f 463/463 435/435 426/426
f 400/400 463/463 426/426
f 428/428 472/472 429/429
f 402/402 407/407 437/437
f 415/415 438/438 414/414
f 415/415 402/402 438/438
f 430/430 410/410 480/480
f 439/439 414/414 438/438
f 405/405 466/466 404/404
f 414/414 440/440 476/476
f 432/432 474/474 394/394
f 434/434 389/389 433/433
f 389/389 401/401 433/433
f 403/403 407/407 434/434
f 434/434 407/407 390/390
f 463/463 482/482 435/435
f 392/392 435/435 482/482
f 406/406 436/436 415/415
f 393/393 390/390 436/436
f 437/437 412/412 428/428
f 429/429 437/437 428/428
f 438/438 402/402 437/437
f 438/438 429/429 439/439
f 430/430 439/439 429/429
f 439/439 430/430 431/431
f 414/414 439/439 440/440
f 466/466 465/465 408/408
f 389/389 444/444 483/483
f 391/391 444/444 389/389
f 389/389 483/483 481/481
f 390/390 441/441 391/391
f 441/441 390/390 443/443
f 392/392 445/445 393/393
f 445/445 392/392 442/442
f 484/484 442/442 392/392
f 392/392 482/482 484/484
f 445/445 443/443 390/390
f 390/390 393/393 445/445
f 444/444 391/391 441/441
f 488/488 490/490 541/541
f 542/542 528/528 529/529
f 542/542 529/529 515/515
f 538/538 516/516 514/514
f 485/485 546/546 499/499
f 546/546 485/485 535/535
f 518/518 486/486 521/521
f 486/486 505/505 521/521
f 533/533 521/521 505/505
f 527/527 517/517 530/530
f 519/519 517/517 520/520
f 526/526 524/524 518/518
f 519/519 515/515 529/529
f 520/520 523/523 519/519
f 523/523 520/520 522/522
f 517/517 519/519 530/530
f 520/520 517/517 532/532
f 516/516 518/518 524/524
f 502/502 516/516 501/501
f 498/498 533/533 505/505
f 533/533 498/498 548/548
f 518/518 516/516 502/502
f 488/488 515/515 523/523
f 523/523 503/503 488/488
f 515/515 519/519 523/523
f 525/525 526/526 521/521
f 518/518 521/521 526/526
f 518/518 502/502 486/486
f 524/524 514/514 516/516
f 514/514 524/524 528/528
f 546/546 535/535 545/545
f 532/532 545/545 535/535
f 503/503 522/522 500/500
f 522/522 503/503 523/523
f 524/524 531/531 528/528
f 531/531 524/524 586/586
f 526/526 586/586 524/524
f 586/586 526/526 588/588
f 525/525 588/588 526/526
f 588/588 525/525 590/590
f 527/527 590/590 525/525
f 590/590 527/527 589/589
f 528/528 587/587 529/529
f 587/587 528/528 531/531
f 529/529 537/537 530/530
f 537/537 529/529 587/587
f 530/530 589/589 527/527
f 589/589 530/530 537/537
f 522/522 535/535 485/485
f 485/485 500/500 522/522
f 536/536 547/547 534/534
f 547/547 536/536 549/549
f 547/547 545/545 532/532
f 532/532 534/534 547/547
f 520/520 532/532 535/535
f 535/535 522/522 520/520
f 527/527 536/536 534/534
f 536/536 527/527 525/525
f 517/517 527/527 534/534
f 517/517 534/534 532/532
f 525/525 521/521 533/533
f 541/541 542/542 515/515
f 541/541 515/515 488/488
f 528/528 542/542 514/514
f 533/533 549/549 536/536
f 549/549 533/533 548/548
f 536/536 525/525 533/533
f 501/501 516/516 538/538
f 538/538 487/487 501/501
f 529/529 530/530 519/519
f 541/541 489/489 539/539
f 489/489 541/541 490/490
f 538/538 514/514 540/540
f 539/539 542/542 541/541
f 514/514 539/539 540/540
f 539/539 514/514 542/542
f 538/538 540/540 506/506
f 506/506 487/487 538/538
f 539/539 544/544 543/543
f 543/543 540/540 539/539
f 506/506 540/540 543/543
f 543/543 504/504 506/506
f 544/544 539/539 497/497
f 489/489 497/497 539/539
f 507/507 577/577 510/510
f 492/492 553/553 507/507
f 550/550 551/551 507/507
f 554/554 552/552 507/507
f 552/552 550/550 507/507
f 553/553 554/554 507/507
f 556/556 574/574 573/573
f 573/573 555/555 556/556
f 557/557 560/560 562/562
f 562/562 561/561 557/557
f 512/512 575/575 559/559
f 559/559 491/491 512/512
f 556/556 762/762 557/557
f 762/762 556/556 763/763
f 555/555 763/763 556/556
f 763/763 555/555 764/764
f 555/555 765/765 764/764
f 765/765 509/509 766/766
f 767/767 557/557 762/762
f 557/557 767/767 560/560
f 768/768 559/559 558/558
f 769/769 491/491 559/559
f 555/555 573/573 496/496
f 496/496 509/509 555/555
f 768/768 560/560 767/767
f 560/560 768/768 558/558
f 559/559 768/768 769/769
f 574/574 556/556 557/557
f 557/557 561/561 574/574
f 560/560 558/558 576/576
f 576/576 562/562 560/560
f 558/558 559/559 575/575
f 575/575 576/576 558/558
f 569/569 574/574 561/561
f 561/561 568/568 569/569
f 564/564 566/566 576/576
f 576/576 575/575 564/564
f 574/574 569/569 570/570
f 570/570 573/573 574/574
f 562/562 567/567 568/568
f 568/568 561/561 562/562
f 494/494 564/564 512/512
f 575/575 512/512 564/564
f 573/573 563/563 496/496
f 508/508 496/496 563/563
f 563/563 570/570 571/571
f 571/571 572/572 563/563
f 494/494 493/493 565/565
f 565/565 564/564 494/494
f 564/564 565/565 566/566
f 562/562 576/576 566/566
f 566/566 567/567 562/562
f 570/570 563/563 573/573
f 765/765 555/555 509/509
f 577/577 507/507 551/551
f 770/770 771/771 578/578
f 578/578 579/579 770/770
f 772/772 770/770 579/579
f 579/579 581/581 772/772
f 581/581 511/511 773/773
f 773/773 772/772 581/581
f 584/584 582/582 578/578
f 584/584 578/578 771/771
f 583/583 771/771 774/774
f 582/582 584/584 580/580
f 584/584 771/771 583/583
f 775/775 495/495 776/776
f 777/777 495/495 775/775
f 778/778 495/495 777/777
f 779/779 495/495 780/780
f 776/776 495/495 781/781
f 782/782 495/495 778/778
f 780/780 495/495 782/782
f 783/783 766/766 585/585
f 585/585 766/766 513/513
f 599/599 784/784 598/598
f 785/785 598/598 784/784
f 786/786 787/787 788/788
f 600/600 788/788 787/787
f 604/604 601/601 789/789
f 790/790 789/789 601/601
f 789/789 597/597 604/604
f 606/606 791/791 790/790
f 597/597 789/789 792/792
f 597/597 792/792 784/784
f 606/606 602/602 600/600
f 599/599 597/597 784/784
f 606/606 601/601 602/602
f 605/605 602/602 601/601
f 597/597 599/599 603/603
f 601/601 604/604 605/605
f 603/603 605/605 604/604
f 604/604 597/597 603/603
f 788/788 591/591 592/592
f 591/591 788/788 600/600
f 599/599 793/793 593/593
f 793/793 599/599 598/598
f 602/602 594/594 600/600
f 591/591 600/600 594/594
f 602/602 595/595 594/594
f 595/595 602/602 605/605
f 603/603 593/593 596/596
f 593/593 603/603 599/599
f 605/605 596/596 595/595
f 605/605 603/603 596/596
f 791/791 606/606 600/600
f 790/790 601/601 606/606
f 600/600 787/787 791/791
f 593/593 793/793 607/607
f 607/607 618/618 593/593
f 608/608 794/794 592/592
f 592/592 591/591 608/608
f 616/616 596/596 609/609
f 596/596 616/616 595/595
f 616/616 594/594 595/595
f 594/594 616/616 610/610
f 596/596 593/593 618/618
f 618/618 609/609 596/596
f 594/594 608/608 591/591
f 608/608 594/594 610/610
f 612/612 632/632 611/611
f 632/632 612/612 637/637
f 619/619 630/630 621/621
f 626/626 795/795 631/631
f 795/795 626/626 636/636
f 796/796 608/608 625/625
f 629/629 628/628 623/623
f 623/623 616/616 620/620
f 610/610 625/625 608/608
f 615/615 636/636 633/633
f 636/636 615/615 613/613
f 610/610 616/616 623/623
f 627/627 635/635 633/633
f 635/635 627/627 628/628
f 629/629 637/637 634/634
f 637/637 629/629 630/630
f 629/629 621/621 630/630
f 622/622 619/619 621/621
f 794/794 608/608 796/796
f 620/620 616/616 609/609
f 609/609 622/622 620/620
f 619/619 622/622 607/607
f 622/622 609/609 618/618
f 620/620 622/622 621/621
f 607/607 622/622 618/618
f 628/628 634/634 635/635
f 634/634 628/628 629/629
f 623/623 624/624 610/610
f 625/625 610/610 624/624
f 631/631 625/625 626/626
f 624/624 626/626 625/625
f 623/623 627/627 624/624
f 626/626 624/624 627/627
f 627/627 623/623 628/628
f 621/621 629/629 620/620
f 620/620 629/629 623/623
f 625/625 631/631 796/796
f 630/630 619/619 797/797
f 797/797 637/637 630/630
f 637/637 797/797 632/632
f 795/795 613/613 798/798
f 613/613 795/795 636/636
f 633/633 626/626 627/627
f 626/626 633/633 636/636
f 633/633 617/617 615/615
f 617/617 633/633 635/635
f 634/634 612/612 614/614
f 612/612 634/634 637/637
f 635/635 614/614 617/617
f 614/614 635/635 634/634
f 799/799 665/665 800/800
f 666/666 653/653 652/652
f 666/666 639/639 653/653
f 662/662 638/638 640/640
f 801/801 802/802 670/670
f 670/670 659/659 801/801
f 642/642 645/645 803/803
f 803/803 645/645 804/804
f 657/657 804/804 645/645
f 651/651 654/654 641/641
f 643/643 644/644 641/641
f 650/650 642/642 648/648
f 643/643 653/653 639/639
f 644/644 643/643 647/647
f 647/647 646/646 644/644
f 641/641 654/654 643/643
f 644/644 656/656 641/641
f 640/640 648/648 642/642
f 805/805 806/806 640/640
f 807/807 804/804 657/657
f 657/657 672/672 807/807
f 642/642 805/805 640/640
f 799/799 647/647 639/639
f 647/647 799/799 808/808
f 639/639 647/647 643/643
f 649/649 645/645 650/650
f 642/642 650/650 645/645
f 642/642 803/803 805/805
f 648/648 640/640 638/638
f 638/638 652/652 648/648
f 670/670 669/669 659/659
f 656/656 659/659 669/669
f 808/808 809/809 646/646
f 646/646 647/647 808/808
f 648/648 652/652 655/655
f 655/655 710/710 648/648
f 650/650 648/648 710/710
f 710/710 712/712 650/650
f 649/649 650/650 712/712
f 712/712 714/714 649/649
f 651/651 649/649 714/714
f 714/714 713/713 651/651
f 652/652 653/653 711/711
f 711/711 655/655 652/652
f 653/653 654/654 661/661
f 661/661 711/711 653/653
f 654/654 651/651 713/713
f 713/713 661/661 654/654
f 646/646 801/801 659/659
f 801/801 646/646 809/809
f 660/660 658/658 671/671
f 671/671 673/673 660/660
f 671/671 656/656 669/669
f 656/656 671/671 658/658
f 644/644 659/659 656/656
f 659/659 644/644 646/646
f 651/651 658/658 660/660
f 660/660 649/649 651/651
f 641/641 658/658 651/651
f 641/641 656/656 658/658
f 649/649 657/657 645/645
f 665/665 639/639 666/666
f 665/665 799/799 639/639
f 652/652 638/638 666/666
f 657/657 660/660 673/673
f 673/673 672/672 657/657
f 660/660 657/657 649/649
f 806/806 662/662 640/640
f 662/662 806/806 810/810
f 653/653 643/643 654/654
f 665/665 663/663 811/811
f 811/811 800/800 665/665
f 662/662 664/664 638/638
f 663/663 665/665 666/666
f 638/638 664/664 663/663
f 663/663 666/666 638/638
f 662/662 812/812 664/664
f 812/812 662/662 810/810
f 663/663 667/667 668/668
f 667/667 663/663 664/664
f 812/812 667/667 664/664
f 667/667 812/812 813/813
f 668/668 814/814 663/663
f 811/811 663/663 814/814
f 815/815 816/816 701/701
f 817/817 815/815 677/677
f 674/674 815/815 675/675
f 678/678 815/815 676/676
f 676/676 815/815 674/674
f 677/677 815/815 678/678
f 680/680 697/697 698/698
f 697/697 680/680 679/679
f 681/681 686/686 684/684
f 686/686 681/681 685/685
f 818/818 683/683 699/699
f 683/683 818/818 819/819
f 680/680 681/681 820/820
f 820/820 821/821 680/680
f 679/679 680/680 821/821
f 821/821 822/822 679/679
f 679/679 822/822 823/823
f 823/823 824/824 825/825
f 826/826 820/820 681/681
f 681/681 684/684 826/826
f 827/827 682/682 683/683
f 828/828 683/683 819/819
f 679/679 829/829 697/697
f 829/829 679/679 825/825
f 827/827 826/826 684/684
f 684/684 682/682 827/827
f 683/683 828/828 827/827
f 698/698 681/681 680/680
f 681/681 698/698 685/685
f 684/684 700/700 682/682
f 700/700 684/684 686/686
f 682/682 699/699 683/683
f 699/699 682/682 700/700
f 693/693 685/685 698/698
f 685/685 693/693 692/692
f 688/688 700/700 690/690
f 700/700 688/688 699/699
f 698/698 694/694 693/693
f 694/694 698/698 697/697
f 686/686 692/692 691/691
f 692/692 686/686 685/685
f 818/818 699/699 688/688
f 688/688 830/830 818/818
f 829/829 831/831 687/687
f 687/687 697/697 829/829
f 687/687 695/695 694/694
f 695/695 687/687 696/696
f 830/830 689/689 832/832
f 689/689 830/830 688/688
f 688/688 690/690 689/689
f 686/686 690/690 700/700
f 690/690 686/686 691/691
f 694/694 697/697 687/687
f 823/823 825/825 679/679
f 701/701 675/675 815/815
f 833/833 702/702 834/834
f 702/702 833/833 703/703
f 835/835 703/703 833/833
f 703/703 835/835 705/705
f 705/705 836/836 837/837
f 836/836 705/705 835/835
f 708/708 702/702 706/706
f 708/708 834/834 702/702
f 707/707 838/838 834/834
f 706/706 704/704 708/708
f 708/708 707/707 834/834
f 839/839 840/840 841/841
f 842/842 839/839 841/841
f 843/843 842/842 841/841
f 844/844 845/845 841/841
f 840/840 846/846 841/841
f 847/847 843/843 841/841
f 845/845 847/847 841/841
f 848/848 709/709 824/824
f 709/709 849/849 824/824
f 723/723 722/722 850/850
f 851/851 850/850 722/722
f 852/852 853/853 854/854
f 724/724 854/854 853/853
f 728/728 855/855 725/725
f 856/856 725/725 855/855
f 855/855 728/728 721/721
f 730/730 856/856 857/857
f 721/721 858/858 855/855
f 721/721 850/850 858/858
f 730/730 724/724 726/726
f 723/723 850/850 721/721
f 730/730 726/726 725/725
f 729/729 725/725 726/726
f 721/721 727/727 723/723
f 725/725 729/729 728/728
f 727/727 728/728 729/729
f 728/728 727/727 721/721
f 853/853 716/716 715/715
f 715/715 724/724 853/853
f 723/723 717/717 859/859
f 859/859 722/722 723/723
f 726/726 724/724 718/718
f 715/715 718/718 724/724
f 726/726 718/718 719/719
f 719/719 729/729 726/726
f 727/727 720/720 717/717
f 717/717 723/723 727/727
f 729/729 719/719 720/720
f 729/729 720/720 727/727
f 857/857 724/724 730/730
f 856/856 730/730 725/725
f 724/724 857/857 854/854
f 717/717 731/731 859/859
f 731/731 717/717 742/742
f 732/732 716/716 860/860
f 716/716 732/732 715/715
f 740/740 733/733 720/720
f 720/720 719/719 740/740
f 740/740 719/719 718/718
f 718/718 734/734 740/740
f 720/720 742/742 717/717
f 742/742 720/720 733/733
f 718/718 715/715 732/732
f 732/732 734/734 718/718
f 736/736 735/735 756/756
f 756/756 761/761 736/736
f 743/743 745/745 754/754
f 750/750 755/755 861/861
f 861/861 760/760 750/750
f 862/862 749/749 732/732
f 753/753 747/747 752/752
f 747/747 744/744 740/740
f 734/734 732/732 749/749
f 739/739 757/757 760/760
f 760/760 737/737 739/739
f 734/734 747/747 740/740
f 751/751 757/757 759/759
f 759/759 752/752 751/751
f 753/753 758/758 761/761
f 761/761 754/754 753/753
f 753/753 754/754 745/745
f 746/746 745/745 743/743
f 860/860 862/862 732/732
f 744/744 733/733 740/740
f 733/733 744/744 746/746
f 743/743 731/731 746/746
f 746/746 742/742 733/733
f 744/744 745/745 746/746
f 731/731 742/742 746/746
f 752/752 759/759 758/758
f 758/758 753/753 752/752
f 747/747 734/734 748/748
f 749/749 748/748 734/734
f 755/755 750/750 749/749
f 748/748 749/749 750/750
f 747/747 748/748 751/751
f 750/750 751/751 748/748
f 751/751 752/752 747/747
f 745/745 744/744 753/753
f 744/744 747/747 753/753
f 749/749 862/862 755/755
f 754/754 863/863 743/743
f 863/863 754/754 761/761
f 761/761 756/756 863/863
f 861/861 864/864 737/737
f 737/737 760/760 861/861
f 757/757 751/751 750/750
f 750/750 760/760 757/757
f 757/757 739/739 741/741
f 741/741 759/759 757/757
f 758/758 738/738 736/736
f 736/736 761/761 758/758
f 759/759 741/741 738/738
f 738/738 758/758 759/759
