# MOD converted: e_w_celebrite_glove.mod
# 594 verts, 556 faces

v 92.722610 4.653467 44.161621
v 96.528702 6.713489 42.148598
v 92.630402 -0.150556 45.711197
v 100.089790 5.049098 43.801407
v 96.407463 -2.744951 45.439194
v 100.274803 -0.862271 44.170818
v 89.537148 -4.972527 53.964645
v 93.688797 7.028148 49.362038
v 92.426140 -4.384811 52.253002
v 91.456017 -4.499461 51.964241
v 87.048096 -7.581801 50.799412
v 89.461967 -6.425667 49.916164
v 85.270126 -8.462291 47.085064
v 87.358894 -7.565809 47.109650
v 95.164909 7.222174 46.959846
v 90.730873 0.884087 47.080715
v 89.263710 -3.439371 48.956207
v 87.811218 -5.009018 50.730171
v 85.831169 -6.534966 54.075832
v 94.372375 -4.399372 45.694675
v 93.185944 -5.837754 48.958988
v 94.832176 -4.862703 51.488403
v 86.781021 -9.551427 49.043217
v 89.617119 -8.676420 52.908546
v 91.550522 1.247238 54.770096
v 94.811394 1.349603 46.111275
v 91.771469 6.852665 57.578499
v 91.687149 -4.413569 55.899734
v 89.391846 -4.392983 56.484688
v 89.297432 1.386421 58.154331
v 91.787193 1.380876 60.951778
v 88.549461 -4.296742 58.732048
v 87.333229 -4.293500 59.478294
v 87.187004 1.297789 61.736454
v 88.369514 1.261813 52.120594
v 90.916626 7.013238 54.463177
v 94.739067 -1.409694 57.912323
v 91.822647 -1.782286 61.378708
v 88.434868 -2.086818 54.251495
v 94.361153 4.472593 57.861946
v 91.648132 3.918007 61.305286
v 88.447525 3.523902 52.752235
v 91.626961 -1.530409 56.196831
v 89.343872 -1.808068 59.165096
v 87.231438 -2.013344 52.557632
v 91.346962 4.210042 56.258911
v 89.221863 3.804827 59.063049
v 87.293640 3.496631 59.713467
v 88.620071 6.069594 57.615314
v 87.489235 6.019550 55.087330
v 89.590988 6.551367 56.807518
v 91.483704 6.639845 56.621197
v 89.324348 1.149844 58.290852
v 91.814102 1.144298 60.142239
v 86.557236 0.903897 62.558006
v 87.932625 0.867922 58.130280
v 91.838310 -1.460822 62.416061
v 87.990715 -1.496459 57.239563
v 91.727425 4.338517 60.069923
v 88.764984 4.116715 56.414780
v 89.359512 -1.486602 59.991901
v 86.604942 -1.422985 55.520077
v 89.596550 4.133778 57.998653
v 87.593590 4.038379 36.429928
v 94.493347 5.833575 44.727142
v 88.860756 5.011086 42.966095
v 89.421722 -4.937557 36.118084
v 93.824554 0.075326 50.264603
v 100.823578 -2.543465 50.088215
v 98.484863 8.035753 38.760357
v 99.490814 8.106785 49.066044
v 96.193672 8.899726 43.568909
v 91.193657 -7.095981 38.137695
v 98.155464 -3.538569 39.660339
v 93.338509 4.983109 39.489788
v 93.242264 -0.359813 43.287621
v 101.706177 -1.087037 43.441689
v 101.618904 5.398281 41.830666
v 97.485847 7.349281 41.398434
v 97.461792 -3.169954 39.764042
v 98.432785 7.980986 37.537312
v 93.645935 5.313411 36.129940
v 93.850014 1.583017 37.076653
v 95.880127 6.610770 37.548103
v 96.891365 -2.721687 39.393784
v 100.849167 7.414093 37.224266
v 93.069679 2.359694 38.507381
v 95.887535 -2.122004 40.652081
v 100.558151 -2.502090 40.783344
v 100.646706 6.868093 39.811852
v 101.745926 -2.453394 40.451672
v 103.118004 -1.774758 40.710976
v 103.673981 3.002966 40.715134
v 103.682899 5.193790 41.802666
v 102.860580 5.755201 40.704086
v 103.659187 -0.633734 41.717911
v 102.887947 -1.354327 40.707840
v 103.667282 1.354194 41.760284
v 102.874252 2.200437 38.677368
v 99.313141 -3.656657 39.586319
v 98.228256 -3.649915 39.303719
v 100.656052 -2.992435 40.460739
v 103.137291 6.247278 36.155064
v 93.903748 4.767023 36.385025
v 94.397049 -1.109903 38.236252
v 98.367020 8.004473 37.428322
v 93.546875 -0.594025 36.142166
v 93.876175 3.132687 37.639992
v 97.088150 7.287779 36.992577
v 95.699806 -1.951744 39.879501
v 101.890732 6.882946 38.650635
v 96.039375 6.647198 42.160713
v 92.393417 5.174000 41.873482
v 92.293518 -0.374629 45.469368
v 100.616638 -1.144370 45.753029
v 100.425194 5.286764 43.679714
v 96.409119 -3.194068 44.059574
v 96.546143 7.108101 44.901211
v 90.712204 6.732374 42.117569
v 89.502853 -2.655902 48.804375
v 100.664673 -3.249178 44.152328
v 88.381424 2.687230 50.558052
v 101.074860 -0.165764 46.875759
v 91.184952 7.602445 43.085388
v 88.490768 -3.169486 49.545227
v 99.870544 -4.701478 50.698898
v 100.186371 5.860325 47.904701
v 93.621536 8.735888 49.308281
v 99.774292 7.211312 47.211956
v 95.321373 8.855721 43.660114
v 88.192024 -0.470897 50.721870
v 100.825935 3.125756 48.442028
v 98.244476 -5.912510 43.230492
v 89.109688 1.747668 49.430962
v 101.250137 1.620385 47.014652
v 97.780418 -5.260003 46.756287
v 95.996849 -7.203779 45.149529
v 94.001572 -8.044279 43.700153
v 93.348221 -7.103247 42.160713
v 92.393417 5.174000 45.336029
v 87.887764 1.275527 41.873482
v 92.293518 -0.374629 45.351036
v 100.597221 -1.090914 51.655930
v 99.955505 1.403141 45.619064
v 100.417763 5.241387 43.942833
v 96.589310 7.044542 49.894016
v 94.376129 8.401416 46.578556
v 89.097351 7.021658 43.466629
v 88.335304 -4.794189 45.670425
v 92.334915 -7.065171 43.679714
v 96.409119 -3.194068 48.850723
v 96.556084 -5.418980 50.922363
v 99.297905 -3.447200 51.702484
v 98.641479 6.822263 46.978802
v 87.605164 5.011079 46.403973
v 87.125847 2.687231 52.347515
v 99.451759 -2.841477 52.706299
v 99.750725 -0.480873 44.813221
v 88.505432 -6.322454 46.318722
v 90.962540 -8.046736 52.612274
v 97.460800 7.370847 51.780128
v 95.290810 8.137899 49.523388
v 91.948334 8.948774 48.159767
v 89.370506 7.959929 45.911766
v 86.936440 -0.470901 44.039238
v 87.289421 -4.091613 52.954117
v 99.569954 2.729552 53.048153
v 99.023903 5.325732 50.099991
v 96.591835 -6.316767 51.537312
v 98.439453 -4.986085 46.725060
v 92.285400 -7.980952 48.416798
v 94.468307 -7.792342 45.484886
v 100.743881 1.173431 45.484886
v 100.743881 2.193006 43.529633
v 101.638596 1.018310 43.529636
v 101.638596 2.348124 45.496239
v 101.733009 1.005735 45.496246
v 101.733017 2.360700 44.248833
v 102.314697 0.960754 44.248833
v 102.314697 2.405678 46.445908
v 100.926048 6.313008 42.790901
v 102.630264 6.808265 46.144394
v 102.932869 5.441277 43.946205
v 103.957710 5.740651 42.103645
v 102.950745 5.936543 45.637074
v 101.509529 3.726813 45.397648
v 100.939819 2.247277 49.570210
v 101.115578 3.611507 47.354431
v 101.239052 6.962345 48.441124
v 101.125488 5.977498 45.484886
v 100.743881 2.193006 43.529636
v 101.638596 2.348124 45.496246
v 101.733017 2.360700 44.248833
v 102.314697 2.405678 45.484886
v 100.743881 1.173431 43.529633
v 101.638596 1.018310 42.103615
v 102.950745 -2.570096 42.790886
v 102.630249 -3.441820 46.445786
v 100.925941 -2.946449 45.496239
v 101.733009 1.005735 46.144333
v 102.932709 -2.074736 43.946220
v 103.957695 -2.374208 44.248833
v 102.314697 0.960754 45.637070
v 101.509521 -0.360377 48.415150
v 101.146545 -2.615587 47.354439
v 101.239029 -3.595889 45.397652
v 100.939819 1.119160 49.545975
v 101.124237 -0.294127 -42.422783
v 92.722610 4.653464 -44.161621
v 96.528717 6.713489 -42.148598
v 92.630402 -0.150559 -45.711197
v 100.089790 5.049099 -43.801399
v 96.407440 -2.744950 -45.439194
v 100.274803 -0.862270 -44.170818
v 89.537148 -4.972527 -53.964645
v 93.688805 7.028147 -49.362034
v 92.426140 -4.384811 -52.253002
v 91.456017 -4.499461 -51.964241
v 87.048096 -7.581801 -50.799412
v 89.461975 -6.425667 -49.916161
v 85.270126 -8.462289 -47.085064
v 87.358894 -7.565809 -47.109646
v 95.164902 7.222173 -46.959843
v 90.730873 0.884089 -47.080715
v 89.263710 -3.439372 -48.956207
v 87.811218 -5.009018 -50.730171
v 85.831169 -6.534965 -54.075832
v 94.372375 -4.399373 -45.694675
v 93.185944 -5.837753 -48.958988
v 94.832176 -4.862703 -51.488403
v 86.781021 -9.551425 -49.043217
v 89.617119 -8.676422 -52.908546
v 91.550522 1.247237 -54.770096
v 94.811394 1.349604 -46.111271
v 91.771469 6.852664 -57.578506
v 91.687141 -4.413571 -55.899742
v 89.391838 -4.392984 -56.484688
v 89.297432 1.386420 -58.154327
v 91.787193 1.380876 -60.951794
v 88.549454 -4.296742 -58.732063
v 87.333221 -4.293499 -59.478294
v 87.187004 1.297790 -61.736454
v 88.369514 1.261813 -52.120594
v 90.916626 7.013237 -54.463181
v 94.739067 -1.409694 -57.912327
v 91.822639 -1.782286 -61.378719
v 88.434860 -2.086818 -54.251492
v 94.361153 4.472593 -57.861942
v 91.648125 3.918007 -61.305283
v 88.447525 3.523903 -52.752232
v 91.626961 -1.530409 -56.196835
v 89.343864 -1.808069 -59.165108
v 87.231430 -2.013345 -52.557640
v 91.346962 4.210042 -56.258907
v 89.221863 3.804827 -59.063042
v 87.293640 3.496630 -59.713459
v 88.620079 6.069595 -57.615303
v 87.489243 6.019549 -55.087322
v 89.590996 6.551367 -56.807514
v 91.483711 6.639845 -56.621197
v 89.324348 1.149843 -58.290852
v 91.814102 1.144298 -60.142239
v 86.557236 0.903898 -62.558006
v 87.932625 0.867922 -58.130283
v 91.838310 -1.460823 -62.416069
v 87.990707 -1.496459 -57.239563
v 91.727425 4.338518 -60.069912
v 88.764992 4.116716 -56.414783
v 89.359505 -1.486602 -59.991909
v 86.604935 -1.422985 -55.520073
v 89.596550 4.133778 -57.998646
v 87.593597 4.038378 -36.429924
v 94.493347 5.833570 -44.727146
v 88.860756 5.011085 -42.966095
v 89.421722 -4.937558 -36.118088
v 93.824554 0.075323 -50.264603
v 100.823578 -2.543463 -50.088215
v 98.484863 8.035754 -38.760349
v 99.490814 8.106786 -49.066040
v 96.193672 8.899727 -43.568909
v 91.193657 -7.095982 -38.137703
v 98.155472 -3.538569 -39.660336
v 93.338509 4.983106 -39.489792
v 93.242264 -0.359817 -43.287624
v 101.706177 -1.087034 -43.441681
v 101.618904 5.398285 -41.830681
v 97.485901 7.349280 -41.398388
v 97.461670 -3.169953 -39.764046
v 98.432793 7.980985 -37.537308
v 93.645935 5.313407 -36.129940
v 93.850014 1.583011 -37.076649
v 95.880127 6.610767 -37.548107
v 96.891373 -2.721689 -39.393780
v 100.849167 7.414095 -37.224266
v 93.069679 2.359688 -38.507385
v 95.887535 -2.122006 -40.652088
v 100.558151 -2.502089 -40.783340
v 100.646706 6.868095 -39.811859
v 101.745926 -2.453392 -40.451679
v 103.118004 -1.774754 -40.710976
v 103.673981 3.002970 -40.715134
v 103.682899 5.193793 -41.802662
v 102.860580 5.755204 -40.704086
v 103.659187 -0.633730 -41.717915
v 102.887947 -1.354323 -40.707840
v 103.667282 1.354198 -41.760284
v 102.874252 2.200440 -38.677372
v 99.313141 -3.656657 -39.586349
v 98.228317 -3.649916 -39.303726
v 100.656052 -2.992434 -40.460735
v 103.137291 6.247282 -36.155064
v 93.903748 4.767017 -36.385029
v 94.397049 -1.109905 -38.236248
v 98.367012 8.004473 -37.428326
v 93.546875 -0.594029 -36.142162
v 93.876175 3.132684 -37.639984
v 97.088150 7.287779 -36.992580
v 95.699806 -1.951746 -39.879501
v 101.890732 6.882947 -38.650631
v 96.039375 6.647197 -42.160709
v 92.393417 5.173997 -41.873486
v 92.293518 -0.374631 -45.469368
v 100.616638 -1.144369 -45.753025
v 100.425194 5.286766 -43.679718
v 96.409119 -3.194067 -44.059551
v 96.546082 7.108102 -44.901211
v 90.712204 6.732371 -42.117569
v 89.502853 -2.655903 -48.804379
v 100.664680 -3.249176 -44.152328
v 88.381424 2.687229 -50.558052
v 101.074860 -0.165762 -46.875763
v 91.184952 7.602445 -43.085388
v 88.490768 -3.169488 -49.545227
v 99.870537 -4.701478 -50.698898
v 100.186371 5.860327 -47.904701
v 93.621529 8.735888 -49.308281
v 99.774284 7.211314 -47.211937
v 95.321327 8.855721 -43.660114
v 88.192024 -0.470897 -50.721870
v 100.825935 3.125759 -48.442028
v 98.244476 -5.912510 -43.230492
v 89.109688 1.747663 -49.430962
v 101.250137 1.620388 -47.014652
v 97.780418 -5.260004 -46.756283
v 95.996857 -7.203778 -45.149529
v 94.001572 -8.044280 -43.700153
v 93.348221 -7.103248 -42.160709
v 92.393417 5.173997 -45.336037
v 87.887764 1.275527 -41.873486
v 92.293518 -0.374631 -45.351040
v 100.597221 -1.090912 -51.655930
v 99.955505 1.403141 -45.619061
v 100.417763 5.241388 -43.942810
v 96.589264 7.044542 -49.894024
v 94.376152 8.401415 -46.578552
v 89.097343 7.021657 -43.466625
v 88.335304 -4.794190 -45.670425
v 92.334915 -7.065172 -43.679718
v 96.409119 -3.194067 -48.850723
v 96.556084 -5.418980 -50.922363
v 99.297905 -3.447199 -51.702484
v 98.641479 6.822263 -46.978802
v 87.605164 5.011075 -46.403973
v 87.125847 2.687229 -52.347519
v 99.451759 -2.841474 -52.706295
v 99.750725 -0.480873 -44.813221
v 88.505432 -6.322453 -46.318722
v 90.962540 -8.046735 -52.612278
v 97.460800 7.370847 -51.780128
v 95.290810 8.137899 -49.523388
v 91.948334 8.948772 -48.159767
v 89.370506 7.959926 -45.911766
v 86.936440 -0.470902 -44.039238
v 87.289421 -4.091614 -52.954117
v 99.569954 2.729552 -53.048149
v 99.023903 5.325733 -50.099987
v 96.591835 -6.316766 -51.537312
v 98.439453 -4.986086 -46.725060
v 92.285400 -7.980951 -48.416771
v 94.468246 -7.792339 -45.484886
v 100.743881 1.173433 -45.484886
v 100.743881 2.193007 -43.529636
v 101.638596 1.018314 -43.529636
v 101.638596 2.348126 -45.496246
v 101.733009 1.005737 -45.496246
v 101.733017 2.360702 -44.248833
v 102.314697 0.960758 -44.248833
v 102.314697 2.405681 -46.445904
v 100.926048 6.313010 -42.790897
v 102.630264 6.808268 -46.144390
v 102.932869 5.441278 -43.946209
v 103.957710 5.740656 -42.103642
v 102.950745 5.936547 -45.637074
v 101.509529 3.726815 -45.397644
v 100.939819 2.247279 -49.570210
v 101.115578 3.611510 -47.354431
v 101.239052 6.962347 -48.441120
v 101.125488 5.977500 -45.484886
v 100.743881 2.193007 -43.529636
v 101.638596 2.348126 -45.496246
v 101.733017 2.360702 -44.248833
v 102.314697 2.405681 -45.484886
v 100.743881 1.173433 -43.529636
v 101.638596 1.018314 -42.103622
v 102.950745 -2.570091 -42.790894
v 102.630249 -3.441816 -46.445786
v 100.925941 -2.946446 -45.496246
v 101.733009 1.005737 -46.144337
v 102.932709 -2.074733 -43.946224
v 103.957695 -2.374203 -44.248833
v 102.314697 0.960758 -45.637074
v 101.509529 -0.360375 -48.415150
v 101.146545 -2.615585 -47.354439
v 101.239029 -3.595886 -45.397648
v 100.939819 1.119162 -49.545975
v 101.124245 -0.294125 42.148598
v 92.630402 -0.150556 44.170818
v 89.537148 -4.972527 49.362038
v 92.426140 -4.384811 47.085064
v 87.358894 -7.565809 49.916164
v 85.270126 -8.462291 50.799412
v 89.461967 -6.425667 51.964241
v 87.048096 -7.581801 51.964241
v 87.048096 -7.581801 50.730171
v 85.831169 -6.534966 46.111275
v 91.771469 6.852665 52.120594
v 90.916626 7.013238 52.253002
v 91.456017 -4.499461 55.899734
v 89.391846 -4.392983 58.732048
v 87.333229 -4.293500 58.732048
v 87.333229 -4.293500 59.165096
v 87.231438 -2.013344 59.478294
v 87.187004 1.297789 59.063049
v 87.293640 3.496631 42.422783
v 92.722610 4.653467 56.196831
v 89.343872 -1.808068 59.165096
v 87.231438 -2.013344 57.912323
v 91.822647 -1.782286 61.378708
v 88.434868 -2.086818 54.463177
v 94.739067 -1.409694 52.752235
v 91.626961 -1.530409 56.258911
v 89.221863 3.804827 59.063049
v 87.293640 3.496631 57.861946
v 91.648132 3.918007 61.305286
v 88.447525 3.523902 54.251495
v 94.361153 4.472593 52.557632
v 91.346962 4.210042 61.736454
v 88.369514 1.261813 59.478294
v 87.187004 1.297789 58.154331
v 91.787193 1.380876 56.484688
v 89.297432 1.386421 54.770096
v 94.811394 1.349603 52.908546
v 91.550522 1.247238 60.142239
v 86.557236 0.903897 59.991901
v 86.604942 -1.422985 55.087330
v 89.590988 6.551367 57.615314
v 87.489235 6.019550 57.615314
v 87.489235 6.019550 57.998653
v 87.593590 4.038379 62.416061
v 87.990715 -1.496459 59.991901
v 86.604942 -1.422985 58.130280
v 91.838310 -1.460822 56.414780
v 89.359512 -1.486602 60.069923
v 88.764984 4.116715 57.998653
v 87.593590 4.038379 57.239563
v 91.727425 4.338517 55.520077
v 89.596550 4.133778 56.621197
v 89.324348 1.149844 60.142239
v 86.557236 0.903897 58.290852
v 91.814102 1.144298 62.558006
v 87.932625 0.867922 42.160713
v 92.393417 5.174000 39.660339
v 93.338509 4.983109 45.469368
v 100.616638 -1.144370 43.287621
v 101.706177 -1.087037 37.537312
v 93.645935 5.313411 41.717911
v 102.887947 -1.354327 42.160713
v 92.393417 5.174000 41.873482
v 92.293518 -0.374629 45.469368
v 100.616638 -1.144370 45.753029
v 100.425194 5.286764 42.160713
v 92.393417 5.174000 44.059574
v 96.546143 7.108101 43.679714
v 96.409119 -3.194068 45.469368
v 100.616638 -1.144370 44.901211
v 90.712204 6.732374 48.804375
v 100.664673 -3.249178 41.873482
v 92.293518 -0.374629 45.351036
v 100.597221 -1.090914 51.655930
v 99.955505 1.403141 43.466629
v 88.335304 -4.794189 45.484886
v 100.743881 1.173431 45.484886
v 100.743881 2.193006 43.529636
v 101.638596 2.348124 43.529633
v 101.638596 1.018310 45.484886
v 100.743881 2.193006 46.445908
v 100.926048 6.313008 42.790901
v 102.630264 6.808265 42.103645
v 102.950745 5.936543 43.529636
v 101.638596 2.348124 45.484886
v 100.743881 1.173431 46.445786
v 100.925941 -2.946449 42.790886
v 102.630249 -3.441820 42.103615
v 102.950745 -2.570096 43.529633
v 101.638596 1.018310 -42.148598
v 92.630402 -0.150559 -44.170818
v 89.537148 -4.972527 -49.362034
v 92.426140 -4.384811 -47.085064
v 87.358894 -7.565809 -49.916161
v 85.270126 -8.462289 -50.799412
v 89.461975 -6.425667 -51.964241
v 87.048096 -7.581801 -51.964241
v 87.048096 -7.581801 -50.730171
v 85.831169 -6.534965 -46.111271
v 91.771469 6.852664 -52.120594
v 90.916626 7.013237 -52.253002
v 91.456017 -4.499461 -55.899742
v 89.391838 -4.392984 -58.732063
v 87.333221 -4.293499 -58.732063
v 87.333221 -4.293499 -59.165108
v 87.231430 -2.013345 -59.478294
v 87.187004 1.297790 -59.063042
v 87.293640 3.496630 -42.422783
v 92.722610 4.653464 -56.196835
v 89.343864 -1.808069 -57.912327
v 91.822639 -1.782286 -59.165108
v 87.231430 -2.013345 -61.378719
v 88.434860 -2.086818 -54.463181
v 94.739067 -1.409694 -52.752232
v 91.626961 -1.530409 -56.258907
v 89.221863 3.804827 -57.861942
v 91.648125 3.918007 -59.063042
v 87.293640 3.496630 -61.305283
v 88.447525 3.523903 -54.251492
v 94.361153 4.472593 -52.557640
v 91.346962 4.210042 -61.736454
v 88.369514 1.261813 -58.154327
v 91.787193 1.380876 -59.478294
v 87.187004 1.297790 -56.484688
v 89.297432 1.386420 -54.770096
v 94.811394 1.349604 -52.908546
v 91.550522 1.247237 -60.142239
v 86.557236 0.903898 -59.991909
v 86.604935 -1.422985 -55.087322
v 89.590996 6.551367 -57.615303
v 87.489243 6.019549 -57.615303
v 87.489243 6.019549 -57.998646
v 87.593597 4.038378 -62.416069
v 87.990707 -1.496459 -58.130283
v 91.838310 -1.460823 -59.991909
v 86.604935 -1.422985 -56.414783
v 89.359505 -1.486602 -60.069912
v 88.764992 4.116716 -57.239563
v 91.727425 4.338518 -57.998646
v 87.593597 4.038378 -55.520073
v 89.596550 4.133778 -56.621197
v 89.324348 1.149843 -58.290852
v 91.814102 1.144298 -60.142239
v 86.557236 0.903898 -62.558006
v 87.932625 0.867922 -42.160709
v 92.393417 5.173997 -39.660336
v 93.338509 4.983106 -45.469368
v 100.616638 -1.144369 -43.287624
v 101.706177 -1.087034 -37.537308
v 93.645935 5.313407 -41.717915
v 102.887947 -1.354323 -42.160709
v 92.393417 5.173997 -41.873486
v 92.293518 -0.374631 -45.469368
v 100.616638 -1.144369 -45.753025
v 100.425194 5.286766 -42.160709
v 92.393417 5.173997 -44.059551
v 96.546082 7.108102 -43.679718
v 96.409119 -3.194067 -45.469368
v 100.616638 -1.144369 -44.901211
v 90.712204 6.732371 -48.804379
v 100.664680 -3.249176 -41.873486
v 92.293518 -0.374631 -45.351040
v 100.597221 -1.090912 -51.655930
v 99.955505 1.403141 -43.466625
v 88.335304 -4.794190 -45.484886
v 100.743881 1.173433 -45.484886
v 100.743881 2.193007 -43.529636
v 101.638596 2.348126 -43.529636
v 101.638596 1.018314 -45.484886
v 100.743881 2.193007 -46.445904
v 100.926048 6.313010 -42.790897
v 102.630264 6.808268 -42.103642
v 102.950745 5.936547 -43.529636
v 101.638596 2.348126 -45.484886
v 100.743881 1.173433 -46.445786
v 100.925941 -2.946446 -42.790894
v 102.630249 -3.441816 -42.103622
v 102.950745 -2.570091 -43.529636
v 101.638596 1.018314 0.965039

vt 0.655855 0.427011
vt 0.991246 0.949297
vt 0.991281 0.534870
vt 0.991242 0.816253
vt 0.991207 0.700954
vt 0.991225 0.971547
vt 0.897606 0.472157
vt 0.783425 0.271732
vt 0.787993 0.819048
vt 0.754126 0.344253
vt 0.755631 0.302340
vt 0.767015 0.371744
vt 0.692308 0.311861
vt 0.656346 0.436130
vt 0.913946 0.133578
vt 0.739805 0.231516
vt 0.711942 0.292265
vt 0.706098 0.343693
vt 0.721982 0.751753
vt 0.759499 0.877547
vt 0.871329 0.805102
vt 0.834152 0.926319
vt 0.722192 0.906233
vt 0.792214 0.136682
vt 0.846567 0.611967
vt 0.765508 0.352082
vt 0.906978 0.749363
vt 0.679971 0.804943
vt 0.675949 0.133449
vt 0.911420 0.599143
vt 0.676340 0.749576
vt 0.594633 0.764244
vt 0.549180 0.567060
vt 0.532332 0.588556
vt 0.578657 0.404731
vt 0.787294 0.681182
vt 0.762513 0.688125
vt 0.676808 0.697868
vt 0.586071 0.534257
vt 0.776702 0.536888
vt 0.686280 0.533823
vt 0.592676 0.194198
vt 0.844102 0.202741
vt 0.907668 0.710924
vt 0.540384 0.075141
vt 0.842970 0.084313
vt 0.908566 0.513948
vt 0.546304 0.453504
vt 0.639749 0.409548
vt 0.659446 0.414606
vt 0.723523 0.465654
vt 0.717019 0.141704
vt 0.913331 0.607823
vt 0.672919 0.144108
vt 0.985760 0.600979
vt 0.557357 0.671890
vt 0.669285 0.660082
vt 0.554484 0.518128
vt 0.700504 0.497956
vt 0.623740 0.189756
vt 0.910464 0.187626
vt 0.983492 0.074986
vt 0.894063 0.076467
vt 0.946903 0.567669
vt 0.165395 0.546093
vt 0.351899 0.333029
vt 0.387753 0.864605
vt 0.366142 0.933334
vt 0.588063 0.798621
vt 0.412239 0.700805
vt 0.185500 0.747746
vt 0.393900 0.299420
vt 0.418969 0.711503
vt 0.361420 0.959514
vt 0.255896 0.835696
vt 0.288740 0.970826
vt 0.080787 0.818307
vt 0.110775 0.703171
vt 0.095819 0.706131
vt 0.281245 0.696838
vt 0.151840 0.978947
vt 0.304119 0.899734
vt 0.357703 0.608294
vt 0.171744 0.750131
vt 0.364162 0.740275
vt 0.188166 0.910291
vt 0.321374 0.770003
vt 0.333881 0.633792
vt 0.310346 0.756747
vt 0.156046 0.609400
vt 0.335274 0.571307
vt 0.323914 0.892263
vt 0.178072 0.841062
vt 0.189636 0.820772
vt 0.160718 0.977256
vt 0.158875 0.987405
vt 0.125310 0.930797
vt 0.169369 0.904088
vt 0.143014 0.676940
vt 0.355416 0.698373
vt 0.329148 0.639657
vt 0.344297 0.806760
vt 0.192657 0.973923
vt 0.339881 0.826349
vt 0.369573 0.681145
vt 0.183130 0.841635
vt 0.338621 0.935842
vt 0.349029 0.643682
vt 0.177275 0.786540
vt 0.366747 0.770540
vt 0.190211 0.630949
vt 0.141343 0.941635
vt 0.194329 0.828815
vt 0.228187 0.959341
vt 0.023489 0.814338
vt 0.048926 0.716537
vt 0.222361 0.711528
vt 0.038187 0.600651
vt 0.418532 0.385222
vt 0.385285 0.332637
vt 0.627126 0.502002
vt 0.348705 0.913194
vt 0.547541 0.625809
vt 0.389880 0.388540
vt 0.359033 0.300719
vt 0.617595 0.847254
vt 0.449629 0.686361
vt 0.385913 0.811405
vt 0.444069 0.714394
vt 0.410105 0.439717
vt 0.349284 0.879333
vt 0.492842 0.290163
vt 0.576837 0.473362
vt 0.370016 0.877498
vt 0.531647 0.314227
vt 0.556569 0.281462
vt 0.523401 0.276598
vt 0.478258 0.305159
vt 0.454302 0.270497
vt 0.235514 0.375934
vt 0.284483 0.337775
vt 0.186296 0.018505
vt 0.207618 0.016762
vt 0.328809 0.113595
vt 0.250903 0.190009
vt 0.253213 0.206398
vt 0.362905 0.305423
vt 0.335442 0.020278
vt 0.144022 0.134648
vt 0.181119 0.169239
vt 0.055461 0.238339
vt 0.156325 0.312767
vt 0.137816 0.112520
vt 0.366259 0.341294
vt 0.339762 0.374205
vt 0.314726 0.345856
vt 0.148562 0.384232
vt 0.118353 0.037846
vt 0.181744 0.101017
vt 0.207544 0.133200
vt 0.388423 0.183712
vt 0.387137 0.235690
vt 0.379815 0.290498
vt 0.365132 0.402828
vt 0.288910 0.452079
vt 0.238785 0.034574
vt 0.361245 0.081923
vt 0.379880 0.262665
vt 0.183445 0.305252
vt 0.169547 0.158638
vt 0.209901 0.211573
vt 0.202893 0.443055
vt 0.296936 0.457043
vt 0.279351 0.471321
vt 0.319154 0.485050
vt 0.301895 0.483876
vt 0.190665 0.474536
vt 0.154198 0.521230
vt 0.182388 0.511270
vt 0.143499 0.487923
vt 0.220163 0.545379
vt 0.255368 0.451455
vt 0.071759 0.514671
vt 0.046980 0.546221
vt 0.274511 0.171778
vt 0.442098 0.132272
vt 0.426145 0.132272
vt 0.583547 0.250417
vt 0.541296 0.206271
vt 0.561446 0.457043
vt 0.279351 0.485050
vt 0.301895 0.474536
vt 0.154198 0.511270
vt 0.143499 0.457043
vt 0.279351 0.485050
vt 0.301895 0.546221
vt 0.274511 0.545379
vt 0.255368 0.487923
vt 0.220163 0.474536
vt 0.154198 0.451455
vt 0.071759 0.514671
vt 0.046980 0.511270
vt 0.143499 0.171778
vt 0.442098 0.206271
vt 0.561446 0.250417
vt 0.541296 0.132272
vt 0.426145 0.132272
vt 0.583547 0.034961
vt 0.655855 0.427011
vt 0.991246 0.949297
vt 0.991281 0.534870
vt 0.991242 0.816253
vt 0.991207 0.700954
vt 0.991225 0.971547
vt 0.897606 0.472157
vt 0.783425 0.271732
vt 0.787993 0.819048
vt 0.754126 0.344253
vt 0.755631 0.302340
vt 0.767015 0.371744
vt 0.692308 0.311861
vt 0.656346 0.436130
vt 0.913946 0.133578
vt 0.739805 0.231516
vt 0.711942 0.292265
vt 0.706098 0.343693
vt 0.721982 0.751753
vt 0.759499 0.877547
vt 0.871329 0.805102
vt 0.834152 0.926319
vt 0.722192 0.906233
vt 0.792214 0.136682
vt 0.846567 0.611967
vt 0.765508 0.352082
vt 0.906978 0.749363
vt 0.679971 0.804943
vt 0.675949 0.133449
vt 0.911420 0.599143
vt 0.676340 0.749576
vt 0.594633 0.764244
vt 0.549180 0.567060
vt 0.532332 0.588556
vt 0.578657 0.404731
vt 0.787294 0.681182
vt 0.762513 0.688125
vt 0.676808 0.697868
vt 0.586071 0.534257
vt 0.776702 0.536888
vt 0.686280 0.533823
vt 0.592676 0.194198
vt 0.844102 0.202741
vt 0.907668 0.710924
vt 0.540384 0.075141
vt 0.842970 0.084313
vt 0.908566 0.513948
vt 0.546304 0.453504
vt 0.639749 0.409548
vt 0.659446 0.414606
vt 0.723523 0.465654
vt 0.717019 0.141704
vt 0.913331 0.607823
vt 0.672919 0.144108
vt 0.985760 0.600979
vt 0.557357 0.671890
vt 0.669285 0.660082
vt 0.554484 0.518128
vt 0.700504 0.497956
vt 0.623740 0.189756
vt 0.910464 0.187626
vt 0.983492 0.074986
vt 0.894063 0.076467
vt 0.946903 0.567669
vt 0.165395 0.546093
vt 0.351899 0.333029
vt 0.387753 0.864605
vt 0.366142 0.933334
vt 0.588063 0.798621
vt 0.412239 0.700805
vt 0.185500 0.747746
vt 0.393900 0.299420
vt 0.418969 0.711503
vt 0.361420 0.959514
vt 0.255896 0.835696
vt 0.288740 0.970826
vt 0.080787 0.818307
vt 0.110775 0.703171
vt 0.095819 0.706131
vt 0.281245 0.696838
vt 0.151840 0.978947
vt 0.304119 0.899734
vt 0.357703 0.608294
vt 0.171744 0.750131
vt 0.364162 0.740275
vt 0.188166 0.910291
vt 0.321374 0.770003
vt 0.333881 0.633792
vt 0.310346 0.756747
vt 0.156046 0.609400
vt 0.335274 0.571307
vt 0.323914 0.892263
vt 0.178072 0.841062
vt 0.189636 0.820772
vt 0.160718 0.977256
vt 0.158875 0.987405
vt 0.125310 0.930797
vt 0.169369 0.904088
vt 0.143014 0.676940
vt 0.355416 0.698373
vt 0.329148 0.639657
vt 0.344297 0.806760
vt 0.192657 0.973923
vt 0.339881 0.826349
vt 0.369573 0.681145
vt 0.183130 0.841635
vt 0.338621 0.935842
vt 0.349029 0.643682
vt 0.177275 0.786540
vt 0.366747 0.770540
vt 0.190211 0.630949
vt 0.141343 0.941635
vt 0.194329 0.828815
vt 0.228187 0.959341
vt 0.023489 0.814338
vt 0.048926 0.716537
vt 0.222361 0.711528
vt 0.038187 0.600651
vt 0.418532 0.385222
vt 0.385285 0.332637
vt 0.627126 0.502002
vt 0.348705 0.913194
vt 0.547541 0.625809
vt 0.389880 0.388540
vt 0.359033 0.300719
vt 0.617595 0.847254
vt 0.449629 0.686361
vt 0.385913 0.811405
vt 0.444069 0.714394
vt 0.410105 0.439717
vt 0.349284 0.879333
vt 0.492842 0.290163
vt 0.576837 0.473362
vt 0.370016 0.877498
vt 0.531647 0.314227
vt 0.556569 0.281462
vt 0.523401 0.276598
vt 0.478258 0.305159
vt 0.454302 0.270497
vt 0.235514 0.375934
vt 0.284483 0.337775
vt 0.186296 0.018505
vt 0.207618 0.016762
vt 0.328809 0.113595
vt 0.250903 0.190009
vt 0.253213 0.206398
vt 0.362905 0.305423
vt 0.335442 0.020278
vt 0.144022 0.134648
vt 0.181119 0.169239
vt 0.055461 0.238339
vt 0.156325 0.312767
vt 0.137816 0.112520
vt 0.366259 0.341294
vt 0.339762 0.374205
vt 0.314726 0.345856
vt 0.148562 0.384232
vt 0.118353 0.037846
vt 0.181744 0.101017
vt 0.207544 0.133200
vt 0.388423 0.183712
vt 0.387137 0.235690
vt 0.379815 0.290498
vt 0.365132 0.402828
vt 0.288910 0.452079
vt 0.238785 0.034574
vt 0.361245 0.081923
vt 0.379880 0.262665
vt 0.183445 0.305252
vt 0.169547 0.158638
vt 0.209901 0.211573
vt 0.202893 0.443055
vt 0.296936 0.457043
vt 0.279351 0.471321
vt 0.319154 0.485050
vt 0.301895 0.483876
vt 0.190665 0.474536
vt 0.154198 0.521230
vt 0.182388 0.511270
vt 0.143499 0.487923
vt 0.220163 0.545379
vt 0.255368 0.451455
vt 0.071759 0.514671
vt 0.046980 0.546221
vt 0.274511 0.171778
vt 0.442098 0.132272
vt 0.426145 0.132272
vt 0.583547 0.250417
vt 0.541296 0.206271
vt 0.561446 0.457043
vt 0.279351 0.485050
vt 0.301895 0.474536
vt 0.154198 0.511270
vt 0.143499 0.457043
vt 0.279351 0.485050
vt 0.301895 0.546221
vt 0.274511 0.545379
vt 0.255368 0.487923
vt 0.220163 0.474536
vt 0.154198 0.451455
vt 0.071759 0.514671
vt 0.046980 0.511270
vt 0.143499 0.171778
vt 0.442098 0.206271
vt 0.561446 0.250417
vt 0.541296 0.132272
vt 0.426145 0.132272
vt 0.583547 0.125641
vt 0.632453 0.239553
vt 0.628186 0.865290
vt 0.801084 0.965827
vt 0.808337 0.971323
vt 0.735666 0.875654
vt 0.766751 0.893303
vt 0.721096 0.939807
vt 0.684802 0.978595
vt 0.693342 0.021463
vt 0.731648 0.016488
vt 0.839269 0.256275
vt 0.838356 0.253647
vt 0.902915 0.797921
vt 0.610158 0.251672
vt 0.961615 0.204242
vt 0.968833 0.134743
vt 0.972645 0.089280
vt 0.965323 0.307309
vt 0.991237 0.034102
vt 0.506133 0.030056
vt 0.584924 0.095547
vt 0.510460 0.078126
vt 0.609090 0.106646
vt 0.421687 0.030982
vt 0.426952 0.034102
vt 0.506133 0.030056
vt 0.584924 0.095547
vt 0.510460 0.078126
vt 0.609090 0.106646
vt 0.421687 0.030982
vt 0.426952 0.078126
vt 0.609090 0.030056
vt 0.584924 0.095547
vt 0.510460 0.034102
vt 0.506133 0.106646
vt 0.421687 0.030982
vt 0.426952 0.600145
vt 0.511675 0.658303
vt 0.508568 0.026026
vt 0.887031 0.035358
vt 0.941867 0.429795
vt 0.599600 0.474898
vt 0.583318 0.078126
vt 0.609090 0.030056
vt 0.584924 0.095547
vt 0.510460 0.034102
vt 0.506133 0.078126
vt 0.609090 0.030056
vt 0.584924 0.095547
vt 0.510460 0.034102
vt 0.506133 0.034102
vt 0.506133 0.030056
vt 0.584924 0.095547
vt 0.510460 0.078126
vt 0.609090 0.591146
vt 0.018605 0.578344
vt 0.081386 0.607321
vt 0.192820 0.588699
vt 0.248218 0.560945
vt 0.130380 0.569210
vt 0.291545 0.540225
vt 0.433078 0.441840
vt 0.433669 0.844050
vt 0.616571 0.781014
vt 0.513412 0.606641
vt 0.480653 0.702081
vt 0.478039 0.378592
vt 0.510606 0.401947
vt 0.601667 0.572361
vt 0.379579 0.917875
vt 0.615240 0.073877
vt 0.022189 0.260396
vt 0.022153 0.391208
vt 0.075782 0.452034
vt 0.211829 0.472425
vt 0.193598 0.463085
vt 0.157130 0.521520
vt 0.142525 0.530686
vt 0.178316 0.463085
vt 0.157130 0.415265
vt 0.056027 0.520394
vt 0.014894 0.546812
vt 0.033130 0.521520
vt 0.142525 0.463085
vt 0.157130 0.415265
vt 0.056027 0.520394
vt 0.014894 0.546812
vt 0.033130 0.521520
vt 0.142525 0.125641
vt 0.632453 0.239553
vt 0.628186 0.865290
vt 0.801084 0.965827
vt 0.808337 0.971323
vt 0.735666 0.875654
vt 0.766751 0.893303
vt 0.721096 0.939807
vt 0.684802 0.978595
vt 0.693342 0.021463
vt 0.731648 0.016488
vt 0.839269 0.256275
vt 0.838356 0.253647
vt 0.902915 0.797921
vt 0.610158 0.251672
vt 0.961615 0.204242
vt 0.968833 0.134743
vt 0.972645 0.089280
vt 0.965323 0.307309
vt 0.991237 0.034102
vt 0.506133 0.095547
vt 0.510460 0.030056
vt 0.584924 0.078126
vt 0.609090 0.106646
vt 0.421687 0.030982
vt 0.426952 0.034102
vt 0.506133 0.095547
vt 0.510460 0.030056
vt 0.584924 0.078126
vt 0.609090 0.106646
vt 0.421687 0.030982
vt 0.426952 0.078126
vt 0.609090 0.095547
vt 0.510460 0.030056
vt 0.584924 0.034102
vt 0.506133 0.106646
vt 0.421687 0.030982
vt 0.426952 0.600145
vt 0.511675 0.658303
vt 0.508568 0.026026
vt 0.887031 0.035358
vt 0.941867 0.429795
vt 0.599600 0.474898
vt 0.583318 0.078126
vt 0.609090 0.095547
vt 0.510460 0.030056
vt 0.584924 0.034102
vt 0.506133 0.078126
vt 0.609090 0.095547
vt 0.510460 0.030056
vt 0.584924 0.034102
vt 0.506133 0.034102
vt 0.506133 0.095547
vt 0.510460 0.030056
vt 0.584924 0.078126
vt 0.609090 0.591146
vt 0.018605 0.578344
vt 0.081386 0.607321
vt 0.192820 0.588699
vt 0.248218 0.560945
vt 0.130380 0.569210
vt 0.291545 0.540225
vt 0.433078 0.441840
vt 0.433669 0.844050
vt 0.616571 0.781014
vt 0.513412 0.606641
vt 0.480653 0.702081
vt 0.478039 0.378592
vt 0.510606 0.401947
vt 0.601667 0.572361
vt 0.379579 0.917875
vt 0.615240 0.073877
vt 0.022189 0.260396
vt 0.022153 0.391208
vt 0.075782 0.452034
vt 0.211829 0.472425
vt 0.193598 0.463085
vt 0.157130 0.521520
vt 0.142525 0.530686
vt 0.178316 0.463085
vt 0.157130 0.415265
vt 0.056027 0.520394
vt 0.014894 0.546812
vt 0.033130 0.521520
vt 0.142525 0.463085
vt 0.157130 0.415265
vt 0.056027 0.520394
vt 0.014894 0.546812
vt 0.033130 0.521520
vt 0.142525 1.000000

f 4/4 2/2 15/15
f 8/8 15/15 36/36
f 4/4 15/15 8/8
f 5/5 7/7 3/3
f 27/27 36/36 15/15
f 16/16 417/417 17/17
f 18/18 11/11 12/12
f 11/11 18/18 19/19
f 18/18 12/12 9/9
f 9/9 17/17 18/18
f 9/9 16/16 17/17
f 14/14 19/19 18/18
f 19/19 14/14 13/13
f 418/418 14/14 17/17
f 17/17 417/417 418/418
f 25/25 16/16 43/43
f 40/40 26/26 4/4
f 22/22 419/419 21/21
f 22/22 6/6 20/20
f 22/22 20/20 10/10
f 420/420 23/23 421/421
f 23/23 420/420 24/24
f 7/7 24/24 420/420
f 24/24 7/7 21/21
f 21/21 5/5 6/6
f 21/21 6/6 22/22
f 24/24 419/419 422/422
f 419/419 24/24 21/21
f 23/23 422/422 423/423
f 422/422 23/23 24/24
f 21/21 7/7 5/5
f 6/6 4/4 26/26
f 8/8 40/40 4/4
f 424/424 421/421 23/23
f 10/10 419/419 22/22
f 421/421 424/424 425/425
f 17/17 14/14 18/18
f 33/33 32/32 45/45
f 39/39 45/45 32/32
f 20/20 6/6 37/37
f 26/26 37/37 6/6
f 417/417 16/16 1/1
f 1/1 16/16 426/426
f 427/427 16/16 46/46
f 25/25 46/46 16/16
f 16/16 9/9 43/43
f 428/428 43/43 9/9
f 28/28 10/10 20/20
f 10/10 28/28 29/29
f 428/428 429/429 43/43
f 44/44 43/43 429/429
f 32/32 430/430 28/28
f 29/29 28/28 430/430
f 429/429 431/431 44/44
f 432/432 44/44 431/431
f 48/48 34/34 42/42
f 35/35 42/42 34/34
f 30/30 47/47 25/25
f 46/46 25/25 47/47
f 433/433 434/434 30/30
f 47/47 30/30 434/434
f 27/27 15/15 2/2
f 2/2 435/435 27/27
f 426/426 16/16 427/427
f 20/20 37/37 28/28
f 38/38 28/28 37/37
f 28/28 38/38 32/32
f 39/39 32/32 38/38
f 31/31 26/26 41/41
f 40/40 41/41 26/26
f 35/35 31/31 42/42
f 41/41 42/42 31/31
f 436/436 437/437 438/438
f 439/439 438/438 437/437
f 440/440 441/441 438/438
f 436/436 438/438 441/441
f 442/442 443/443 444/444
f 445/445 444/444 443/443
f 446/446 447/447 444/444
f 442/442 444/444 447/447
f 448/448 449/449 450/450
f 451/451 450/450 449/449
f 452/452 450/450 453/453
f 451/451 453/453 450/450
f 54/54 57/57 26/26
f 37/37 26/26 57/57
f 56/56 58/58 54/54
f 57/57 54/54 58/58
f 51/51 52/52 36/36
f 8/8 36/36 52/52
f 8/8 52/52 40/40
f 59/59 40/40 52/52
f 50/50 49/49 51/51
f 52/52 51/51 49/49
f 52/52 49/49 59/59
f 60/60 59/59 49/49
f 53/53 25/25 61/61
f 43/43 61/61 25/25
f 55/55 53/53 62/62
f 61/61 62/62 53/53
f 56/56 454/454 58/58
f 455/455 58/58 454/454
f 427/427 46/46 456/456
f 63/63 456/456 46/46
f 456/456 63/63 457/457
f 64/64 457/457 63/63
f 458/458 459/459 49/49
f 60/60 49/49 459/459
f 460/460 461/461 462/462
f 463/463 462/462 461/461
f 440/440 462/462 441/441
f 463/463 441/441 462/462
f 464/464 465/465 466/466
f 467/467 466/466 465/465
f 446/446 466/466 447/447
f 467/467 447/447 466/466
f 468/468 469/469 470/470
f 471/471 470/470 469/469
f 452/452 453/453 470/470
f 468/468 470/470 453/453
f 113/113 76/76 114/114
f 76/76 113/113 75/75
f 115/115 78/78 116/116
f 78/78 115/115 77/77
f 79/79 472/472 118/118
f 472/472 79/79 473/473
f 114/114 80/80 117/117
f 80/80 114/114 76/76
f 80/80 474/474 117/117
f 474/474 80/80 475/475
f 78/78 118/118 116/116
f 118/118 78/78 79/79
f 75/75 107/107 76/76
f 75/75 87/87 107/107
f 82/82 87/87 75/75
f 77/77 95/95 78/78
f 77/77 99/99 95/95
f 97/97 99/99 77/77
f 81/81 473/473 79/79
f 473/473 112/112 476/476
f 81/81 112/112 473/473
f 76/76 101/101 80/80
f 76/76 88/88 101/101
f 107/107 88/88 76/76
f 101/101 475/475 80/80
f 475/475 89/89 477/477
f 101/101 89/89 475/475
f 78/78 81/81 79/79
f 78/78 90/90 81/81
f 95/95 90/90 78/78
f 107/107 83/83 68/68
f 83/83 107/107 87/87
f 476/476 84/84 65/65
f 84/84 476/476 112/112
f 101/101 85/85 74/74
f 85/85 101/101 88/88
f 81/81 86/86 71/71
f 86/86 81/81 90/90
f 477/477 91/91 92/92
f 91/91 477/477 89/89
f 93/93 95/95 99/99
f 95/95 93/93 94/94
f 98/98 97/97 96/96
f 97/97 98/98 99/99
f 101/101 102/102 89/89
f 102/102 101/101 100/100
f 82/82 108/108 87/87
f 108/108 82/82 104/104
f 81/81 109/109 112/112
f 109/109 81/81 106/106
f 107/107 110/110 88/88
f 110/110 107/107 105/105
f 95/95 111/111 90/90
f 111/111 95/95 103/103
f 478/478 479/479 134/134
f 480/480 481/481 135/135
f 130/130 482/482 119/119
f 482/482 130/130 483/483
f 120/120 484/484 139/139
f 484/484 120/120 479/479
f 484/484 121/121 136/136
f 121/121 484/484 485/485
f 129/129 483/483 130/130
f 483/483 129/129 481/481
f 486/486 122/122 66/66
f 122/122 486/486 134/134
f 487/487 123/123 69/69
f 123/123 487/487 135/135
f 67/67 139/139 73/73
f 139/139 67/67 120/120
f 70/70 130/130 72/72
f 130/130 70/70 129/129
f 134/134 479/479 120/120
f 478/478 134/134 486/486
f 135/135 481/481 129/129
f 484/484 136/136 139/139
f 480/480 135/135 487/487
f 128/128 119/119 124/124
f 119/119 128/128 130/130
f 131/131 120/120 125/125
f 120/120 131/131 134/134
f 132/132 129/129 127/127
f 129/129 132/132 135/135
f 126/126 136/136 121/121
f 136/136 126/126 133/133
f 139/139 137/137 138/138
f 137/137 139/139 136/136
f 140/140 142/142 141/141
f 143/143 145/145 144/144
f 147/147 140/140 148/148
f 140/140 147/147 146/146
f 149/149 151/151 150/150
f 151/151 149/149 488/488
f 151/151 153/153 152/152
f 153/153 151/151 489/489
f 154/154 146/146 147/147
f 146/146 154/154 145/145
f 148/148 156/156 155/155
f 156/156 148/148 141/141
f 153/153 158/158 157/157
f 158/158 153/153 490/490
f 159/159 150/150 160/160
f 150/150 159/159 149/149
f 161/161 147/147 162/162
f 147/147 161/161 154/154
f 141/141 142/142 491/491
f 140/140 141/141 148/148
f 144/144 145/145 154/154
f 151/151 152/152 150/150
f 489/489 490/490 153/153
f 163/163 148/148 164/164
f 148/148 163/163 147/147
f 165/165 491/491 166/166
f 491/491 165/165 141/141
f 167/167 154/154 168/168
f 154/154 167/167 144/144
f 170/170 152/152 153/153
f 152/152 170/170 169/169
f 150/150 172/172 171/171
f 172/172 150/150 152/152
f 173/173 176/176 175/175
f 176/176 173/173 174/174
f 177/177 180/180 178/178
f 180/180 177/177 179/179
f 492/492 178/178 493/493
f 178/178 492/492 177/177
f 494/494 179/179 495/495
f 179/179 494/494 180/180
f 192/192 182/182 185/185
f 191/191 182/182 192/192
f 191/191 181/181 182/182
f 193/193 184/184 183/183
f 184/184 193/193 194/194
f 496/496 183/183 497/497
f 183/183 496/496 193/193
f 497/497 184/184 498/498
f 184/184 497/497 183/183
f 499/499 194/194 500/500
f 194/194 499/499 184/184
f 498/498 184/184 499/499
f 186/186 189/189 190/190
f 186/186 190/190 187/187
f 187/187 190/190 188/188
f 195/195 198/198 199/199
f 198/198 196/196 197/197
f 195/195 196/196 198/198
f 200/200 202/202 203/203
f 202/202 200/200 201/201
f 501/501 201/201 200/200
f 201/201 501/501 502/502
f 502/502 202/202 201/201
f 202/202 502/502 503/503
f 504/504 203/203 202/202
f 203/203 504/504 505/505
f 503/503 504/504 202/202
f 204/204 205/205 206/206
f 204/204 207/207 205/205
f 207/207 208/208 205/205
f 212/212 223/223 210/210
f 216/216 244/244 223/223
f 212/212 216/216 223/223
f 213/213 211/211 215/215
f 235/235 223/223 244/244
f 224/224 225/225 506/506
f 226/226 220/220 219/219
f 219/219 227/227 226/226
f 226/226 217/217 220/220
f 217/217 226/226 225/225
f 217/217 225/225 224/224
f 222/222 226/226 227/227
f 227/227 221/221 222/222
f 507/507 225/225 222/222
f 225/225 507/507 506/506
f 233/233 251/251 224/224
f 248/248 212/212 234/234
f 230/230 229/229 508/508
f 230/230 228/228 214/214
f 230/230 218/218 228/228
f 509/509 510/510 231/231
f 231/231 232/232 509/509
f 215/215 509/509 232/232
f 232/232 229/229 215/215
f 229/229 214/214 213/213
f 229/229 230/230 214/214
f 232/232 511/511 508/508
f 508/508 229/229 232/232
f 231/231 512/512 511/511
f 511/511 232/232 231/231
f 229/229 213/213 215/215
f 214/214 234/234 212/212
f 216/216 212/212 248/248
f 513/513 231/231 510/510
f 218/218 230/230 508/508
f 510/510 514/514 513/513
f 225/225 226/226 222/222
f 241/241 253/253 240/240
f 247/247 240/240 253/253
f 228/228 245/245 214/214
f 234/234 214/214 245/245
f 506/506 209/209 224/224
f 209/209 515/515 224/224
f 516/516 254/254 224/224
f 233/233 224/224 254/254
f 224/224 251/251 217/217
f 517/517 217/217 251/251
f 236/236 228/228 218/218
f 218/218 237/237 236/236
f 517/517 251/251 518/518
f 252/252 518/518 251/251
f 240/240 236/236 519/519
f 237/237 519/519 236/236
f 518/518 252/252 520/520
f 521/521 520/520 252/252
f 256/256 250/250 242/242
f 243/243 242/242 250/250
f 238/238 233/233 255/255
f 254/254 255/255 233/233
f 522/522 238/238 523/523
f 255/255 523/523 238/238
f 235/235 210/210 223/223
f 210/210 235/235 524/524
f 515/515 516/516 224/224
f 228/228 236/236 245/245
f 246/246 245/245 236/236
f 236/236 240/240 246/246
f 247/247 246/246 240/240
f 239/239 249/249 234/234
f 248/248 234/234 249/249
f 243/243 250/250 239/239
f 249/249 239/239 250/250
f 525/525 526/526 527/527
f 528/528 527/527 526/526
f 529/529 526/526 530/530
f 525/525 530/530 526/526
f 531/531 532/532 533/533
f 534/534 533/533 532/532
f 535/535 532/532 536/536
f 531/531 536/536 532/532
f 537/537 538/538 539/539
f 540/540 539/539 538/538
f 541/541 542/542 538/538
f 540/540 538/538 542/542
f 262/262 234/234 265/265
f 245/245 265/265 234/234
f 264/264 262/262 266/266
f 265/265 266/266 262/262
f 259/259 244/244 260/260
f 216/216 260/260 244/244
f 216/216 248/248 260/260
f 267/267 260/260 248/248
f 258/258 259/259 257/257
f 260/260 257/257 259/259
f 260/260 267/267 257/257
f 268/268 257/257 267/267
f 261/261 269/269 233/233
f 251/251 233/233 269/269
f 263/263 270/270 261/261
f 269/269 261/261 270/270
f 264/264 266/266 543/543
f 544/544 543/543 266/266
f 516/516 545/545 254/254
f 271/271 254/254 545/545
f 545/545 546/546 271/271
f 272/272 271/271 546/546
f 547/547 257/257 548/548
f 268/268 548/548 257/257
f 549/549 550/550 551/551
f 552/552 551/551 550/550
f 529/529 530/530 550/550
f 552/552 550/550 530/530
f 553/553 554/554 555/555
f 556/556 555/555 554/554
f 535/535 536/536 554/554
f 556/556 554/554 536/536
f 557/557 558/558 559/559
f 560/560 559/559 558/558
f 541/541 558/558 542/542
f 557/557 542/542 558/558
f 321/321 322/322 284/284
f 284/284 283/283 321/321
f 323/323 324/324 286/286
f 286/286 285/285 323/323
f 287/287 326/326 561/561
f 561/561 562/562 287/287
f 322/322 325/325 288/288
f 288/288 284/284 322/322
f 288/288 325/325 563/563
f 563/563 564/564 288/288
f 286/286 324/324 326/326
f 326/326 287/287 286/286
f 283/283 284/284 315/315
f 283/283 315/315 295/295
f 290/290 283/283 295/295
f 285/285 286/286 303/303
f 285/285 303/303 307/307
f 305/305 285/285 307/307
f 289/289 287/287 562/562
f 562/562 565/565 320/320
f 289/289 562/562 320/320
f 284/284 288/288 309/309
f 284/284 309/309 296/296
f 315/315 284/284 296/296
f 309/309 288/288 564/564
f 564/564 566/566 297/297
f 309/309 564/564 297/297
f 286/286 287/287 289/289
f 286/286 289/289 298/298
f 303/303 286/286 298/298
f 315/315 276/276 291/291
f 291/291 295/295 315/315
f 565/565 273/273 292/292
f 292/292 320/320 565/565
f 309/309 282/282 293/293
f 293/293 296/296 309/309
f 289/289 279/279 294/294
f 294/294 298/298 289/289
f 566/566 300/300 299/299
f 299/299 297/297 566/566
f 301/301 307/307 303/303
f 303/303 302/302 301/301
f 306/306 304/304 305/305
f 305/305 307/307 306/306
f 309/309 297/297 310/310
f 310/310 308/308 309/309
f 290/290 295/295 316/316
f 316/316 312/312 290/290
f 289/289 320/320 317/317
f 317/317 314/314 289/289
f 315/315 296/296 318/318
f 318/318 313/313 315/315
f 303/303 298/298 319/319
f 319/319 311/311 303/303
f 567/567 342/342 568/568
f 569/569 343/343 570/570
f 338/338 327/327 571/571
f 571/571 572/572 338/338
f 328/328 347/347 573/573
f 573/573 568/568 328/328
f 573/573 344/344 329/329
f 329/329 574/574 573/573
f 337/337 338/338 572/572
f 572/572 570/570 337/337
f 575/575 274/274 330/330
f 330/330 342/342 575/575
f 576/576 277/277 331/331
f 331/331 343/343 576/576
f 275/275 281/281 347/347
f 347/347 328/328 275/275
f 278/278 280/280 338/338
f 338/338 337/337 278/278
f 342/342 328/328 568/568
f 567/567 575/575 342/342
f 343/343 337/337 570/570
f 573/573 347/347 344/344
f 569/569 576/576 343/343
f 336/336 332/332 327/327
f 327/327 338/338 336/336
f 339/339 333/333 328/328
f 328/328 342/342 339/339
f 340/340 335/335 337/337
f 337/337 343/343 340/340
f 334/334 329/329 344/344
f 344/344 341/341 334/334
f 347/347 346/346 345/345
f 345/345 344/344 347/347
f 348/348 349/349 350/350
f 351/351 352/352 353/353
f 355/355 356/356 348/348
f 348/348 354/354 355/355
f 357/357 358/358 359/359
f 359/359 577/577 357/357
f 359/359 360/360 361/361
f 361/361 578/578 359/359
f 362/362 355/355 354/354
f 354/354 353/353 362/362
f 356/356 363/363 364/364
f 364/364 349/349 356/356
f 361/361 365/365 366/366
f 366/366 579/579 361/361
f 367/367 368/368 358/358
f 358/358 357/357 367/367
f 369/369 370/370 355/355
f 355/355 362/362 369/369
f 349/349 580/580 350/350
f 348/348 356/356 349/349
f 352/352 362/362 353/353
f 359/359 358/358 360/360
f 578/578 361/361 579/579
f 371/371 372/372 356/356
f 356/356 355/355 371/371
f 373/373 374/374 580/580
f 580/580 349/349 373/373
f 375/375 376/376 362/362
f 362/362 352/352 375/375
f 378/378 361/361 360/360
f 360/360 377/377 378/378
f 358/358 379/379 380/380
f 380/380 360/360 358/358
f 381/381 383/383 384/384
f 384/384 382/382 381/381
f 385/385 386/386 388/388
f 388/388 387/387 385/385
f 581/581 582/582 386/386
f 386/386 385/385 581/581
f 583/583 584/584 387/387
f 387/387 388/388 583/583
f 400/400 393/393 390/390
f 399/399 400/400 390/390
f 399/399 390/390 389/389
f 401/401 391/391 392/392
f 392/392 402/402 401/401
f 585/585 586/586 391/391
f 391/391 401/401 585/585
f 586/586 587/587 392/392
f 392/392 391/391 586/586
f 588/588 589/589 402/402
f 402/402 392/392 588/588
f 587/587 588/588 392/392
f 394/394 398/398 397/397
f 394/394 395/395 398/398
f 395/395 396/396 398/398
f 403/403 407/407 406/406
f 406/406 405/405 404/404
f 403/403 406/406 404/404
f 408/408 411/411 410/410
f 410/410 409/409 408/408
f 590/590 408/408 409/409
f 409/409 591/591 590/590
f 591/591 409/409 410/410
f 410/410 592/592 591/591
f 593/593 410/410 411/411
f 411/411 594/594 593/593
f 592/592 410/410 593/593
f 412/412 414/414 413/413
f 412/412 413/413 415/415
f 415/415 413/413 416/416
