# MOD converted: e_w_costume_sv_body.mod
# 773 verts, 948 faces

v 96.405396 -0.766622 4.914302
v 95.766106 -10.016021 0.000000
v 96.882271 -11.254031 12.897602
v 84.560593 -0.715818 6.468091
v 83.276604 -8.719878 0.000001
v 89.524597 -10.437300 5.100183
v 89.665199 -9.081160 10.173702
v 90.267517 -0.895705 9.020881
v 95.961098 -6.317971 11.505901
v 83.841293 -5.783060 9.139211
v 89.931999 -5.578329 5.190432
v 116.123795 3.936415 4.911952
v 114.166000 -0.780686 5.009026
v 122.611465 2.854042 4.507281
v 120.603455 -1.682561 -0.000000
v 113.184227 -3.294353 8.773780
v 113.236343 -0.279981 7.474735
v 113.086205 7.719115 8.652479
v 114.816971 4.079825 5.972381
v 109.555099 -6.090208 4.593372
v 97.756020 -12.958939 9.093269
v 97.869125 -11.505608 4.410782
v 101.345551 -14.049108 9.170403
v 101.450104 -12.561198 4.353007
v 105.375542 -11.901827 8.871491
v 104.868500 -10.954596 13.680746
v 82.623337 -0.561377 6.804410
v 80.978004 -8.452531 12.034166
v 81.772240 -5.725317 8.603851
v 85.124352 8.249466 13.848109
v 83.909302 -0.609761 6.892200
v 81.552803 -9.063931 12.610691
v 80.230148 6.740529 8.393562
v 80.831009 10.918372 15.618085
v 79.345779 -0.295099 7.506143
v 76.838051 -8.535149 13.369467
v 78.201263 -6.018174 17.019203
v 73.579613 0.140422 14.583959
v 73.064346 -6.600295 9.630886
v 74.388397 11.102313 14.829984
v 73.782738 5.804165 1.312102
v 70.199898 0.642271 2.444196
v 71.315994 -6.342491 9.130993
v 63.992943 -10.152357 2.827682
v 63.633877 -6.269452 1.428406
v 63.564465 1.027863 10.640999
v 69.965050 9.561675 16.036028
v 64.553291 -7.689343 3.144247
v 63.576515 8.867773 11.823594
v 63.563023 9.771847 3.042746
v 69.430000 8.731847 0.000000
v 70.697578 -6.255476 8.190235
v 72.538406 -8.478566 12.189152
v 82.891914 -6.130925 18.520710
v 64.030624 -1.380339 17.615089
v 67.490906 1.007314 17.749626
v 63.873543 4.722019 -0.000000
v 70.083649 7.182525 9.167839
v 64.456116 -8.407956 3.277362
v 63.968033 -5.919185 1.997866
v 63.571476 1.004058 14.904943
v 64.807381 -6.009438 4.010223
v 64.020523 8.413971 11.585073
v 64.614723 8.261614 16.141445
v 64.827301 -1.369579 16.713593
v 66.484283 0.993188 15.152302
v 64.501221 4.317913 15.335644
v 67.825195 -6.811122 8.792320
v 67.690247 -9.169456 11.279456
v 66.966217 9.484778 16.177715
v 67.283707 4.897555 0.000000
v 82.706001 -10.198400 -6.468091
v 83.276604 -8.719878 -5.100179
v 89.665199 -9.081160 -4.914296
v 95.766106 -10.016022 -9.020878
v 95.961098 -6.317972 -11.505902
v 83.841293 -5.783060 0.000000
v 80.247528 -9.576442 -6.804411
v 80.978004 -8.452531 -12.034166
v 81.772240 -5.725317 -10.173702
v 90.267517 -0.895706 -9.139211
v 89.931992 -5.578330 -10.131199
v 96.405396 -0.766621 -12.897602
v 84.560593 -0.715818 -4.911950
v 114.165993 -0.780688 -5.009035
v 122.611458 2.854043 -4.507280
v 120.603455 -1.682561 -5.190431
v 116.123795 3.936415 -0.000003
v 116.894180 6.252835 -0.000003
v 123.522461 5.340425 -0.000006
v 119.354462 -4.180035 -4.593370
v 97.756020 -12.958939 -8.652482
v 114.816246 4.082656 -7.474740
v 113.083359 7.720840 -8.871488
v 104.868500 -10.954597 -5.972381
v 109.555977 -6.090279 -4.352999
v 105.375542 -11.901829 0.000000
v 104.490898 -11.354836 -0.000000
v 108.884361 -7.024356 -9.170396
v 101.450104 -12.561201 -9.093275
v 97.869118 -11.505605 -4.410779
v 101.345551 -14.049107 0.000000
v 100.370010 -12.927844 0.000000
v 111.905304 8.965495 -8.773780
v 113.238617 -0.277518 -13.680746
v 82.623337 -0.561378 -8.603852
v 85.124352 8.249465 -13.848109
v 83.909302 -0.609759 -12.610691
v 80.230148 6.740528 -8.393563
v 80.831009 10.918372 0.000000
v 80.758118 -10.292624 0.000000
v 75.666214 -9.000372 -7.506142
v 76.838051 -8.535149 -6.892199
v 81.552803 -9.063931 -13.369467
v 78.201256 -6.018178 -12.189152
v 82.891914 -6.130924 -15.618085
v 79.345779 -0.295105 -0.000000
v 85.187782 9.780645 -0.000000
v 80.848923 11.971461 -1.312102
v 70.199898 0.642275 0.000000
v 69.791382 0.587134 -9.630887
v 74.388397 11.102313 -10.640998
v 69.965050 9.561675 -0.000000
v 73.710411 11.675131 -17.019203
v 73.579613 0.140447 -14.583960
v 73.064346 -6.600296 -15.335643
v 67.825195 -6.811122 -17.615091
v 67.490898 1.007313 -8.190237
v 72.538414 -8.478566 -8.792322
v 67.690254 -9.169456 -11.279457
v 66.966217 9.484777 -3.144247
v 63.576519 8.867772 -3.042746
v 69.430000 8.731847 -14.829984
v 73.782738 5.804165 -16.177715
v 67.283707 4.897555 -2.444198
v 71.315994 -6.342491 -1.428407
v 63.564468 1.027870 -2.827684
v 63.633873 -6.269453 -17.749624
v 63.873543 4.722021 -9.130996
v 63.992947 -10.152358 0.000000
v 83.154465 -1.456454 -18.520710
v 64.030624 -1.380337 -16.036030
v 64.553291 -7.689342 -14.904944
v 64.807381 -6.009436 -16.141445
v 64.827301 -1.369579 -16.713593
v 66.484283 0.993187 -9.167842
v 64.456116 -8.407957 -11.823592
v 63.563026 9.771846 -11.585073
v 64.614723 8.261614 -4.010223
v 64.020523 8.413970 -1.997866
v 63.571480 1.004061 -3.277361
v 63.968033 -5.919184 -15.152303
v 64.501221 4.317914 8.968699
v 79.170380 13.658527 12.665967
v 96.003967 0.290578 5.637641
v 94.439766 -12.330585 16.983156
v 77.779350 3.435205 8.408884
v 74.783340 -11.754881 6.254397
v 88.840477 -12.030819 13.365269
v 90.280281 1.144027 7.358823
v 91.095734 10.114458 10.004669
v 94.772278 -10.959976 13.749897
v 75.682785 -9.321307 10.556028
v 89.369423 -10.485443 5.864523
v 116.273026 4.019435 6.180781
v 114.111473 -1.238892 9.259018
v 115.285240 -1.444530 6.978783
v 113.719620 12.997597 12.395650
v 102.046295 -7.798163 7.159454
v 103.215599 9.853551 12.880963
v 102.937706 -1.401708 7.609781
v 108.488853 10.609796 11.823293
v 103.012901 7.049204 11.763714
v 109.686790 -3.639125 11.574208
v 113.880898 8.021122 9.224152
v 117.034645 4.871006 12.558400
v 103.660912 6.779887 11.694883
v 108.719894 9.975866 13.641146
v 108.376404 10.124685 13.671191
v 103.659416 -0.937125 12.196810
v 114.092552 -0.656067 14.515079
v 108.758102 -3.016106 16.420689
v 114.396393 6.432423 12.589008
v 115.404930 3.988369 16.032606
v 114.324738 0.134480 5.939579
v 109.722893 -6.226271 5.545915
v 97.779968 -13.029411 9.869697
v 98.043457 -11.806574 9.775330
v 101.584557 -12.561198 12.306656
v 98.621422 -7.143513 24.963623
v 104.475670 8.038548 24.246834
v 99.510719 5.650389 26.061819
v 104.024361 -2.018360 24.408443
v 99.690605 0.200729 27.611124
v 108.173409 -0.080939 27.743853
v 108.360794 5.554315 26.554827
v 98.026901 5.532861 30.583435
v 108.193924 5.861857 29.447124
v 102.615044 7.828707 27.248425
v 103.651749 8.674486 30.488676
v 107.951057 -0.486715 28.488659
v 103.001251 -2.696571 26.643202
v 98.164017 -0.156426 32.524994
v 96.145599 -0.085642 34.407784
v 100.472992 -2.636757 36.231094
v 104.628998 -0.597523 36.379402
v 104.691010 5.539130 34.426506
v 100.632004 7.766858 32.386608
v 96.187706 5.196581 5.460745
v 105.271484 -11.999005 10.143601
v 104.868500 -10.954596 10.878826
v 107.552536 -5.898589 13.319328
v 89.824844 -5.494606 12.429163
v 95.388283 -6.458107 17.140259
v 76.712776 -4.039869 14.632895
v 78.593803 9.669196 7.074502
v 96.890999 9.198323 11.073047
v 96.548790 5.924310 11.745789
v 90.811951 6.865599 8.220458
v 105.207878 -11.476799 5.473335
v 101.368881 -13.716942 9.489799
v 109.862808 -4.864700 9.024436
v 108.423935 -6.842171 6.813798
v 101.404396 -13.385131 9.970378
v 115.800674 -1.784645 10.145644
v 117.529968 4.440522 9.799320
v 116.565994 7.878200 7.861673
v 109.728127 13.339240 6.976394
v 115.727882 -1.881015 6.519641
v 110.336754 -7.202484 6.009539
v 105.952110 -12.867369 5.764935
v 101.504555 -14.556350 6.814884
v 101.540070 -14.201695 8.036703
v 105.888512 -12.309211 8.814873
v 109.085739 -7.431145 9.184880
v 110.856430 -5.498290 6.374146
v 114.816757 8.780888 6.702392
v 117.414078 4.890908 7.041008
v 116.997482 7.206730 38.239643
v 99.003586 7.772690 36.264545
v 94.343567 -0.383695 30.190311
v 95.866295 -0.743278 32.565224
v 101.324768 -3.961197 34.865097
v 106.567078 -1.388946 35.052181
v 106.645287 6.351679 32.588833
v 101.525345 9.161700 30.015749
v 95.919388 5.919609 40.114059
v 103.155266 -0.915360 38.220200
v 98.838432 -3.033555 36.120796
v 94.387299 5.102960 40.268116
v 103.219673 5.458739 36.010899
v 107.869911 2.481863 19.443995
v 106.494621 8.640088 18.170225
v 101.140457 6.126801 18.801617
v 101.224533 -0.260144 20.355614
v 106.464287 -2.071081 22.473049
v 111.116020 0.278130 22.713152
v 111.234833 5.790108 16.603096
v 107.541183 9.113882 17.460871
v 107.702888 -2.285726 19.165897
v 112.003433 5.990849 18.867350
v 111.911110 0.338120 15.447377
v 84.035606 2.344029 13.419557
v 84.729286 8.239694 7.448309
v 81.431404 -12.239606 8.174635
v 85.139610 11.889767 15.465314
v 83.201721 -4.918921 12.418336
v 82.201111 -10.197941 12.377864
v 116.551949 4.214422 12.094132
v 115.030991 -1.457953 11.662886
v 115.281944 7.948981 9.660988
v 110.413940 -5.321561 -0.000003
v 113.858841 10.912368 -0.000001
v 112.753700 14.829638 -0.000004
v 116.369507 6.684969 -0.000005
v 117.321152 7.774890 -15.447377
v 84.035606 2.344030 -13.419556
v 84.729286 8.239695 -11.745789
v 90.811951 6.865597 -13.365271
v 90.280281 1.144027 -12.665967
v 96.003967 0.290578 -11.073048
v 96.548790 5.924310 -0.000000
v 91.047493 10.038561 -0.000000
v 96.916977 9.256222 -7.074500
v 96.890991 9.198322 -7.358822
v 91.095734 10.114458 -6.254391
v 88.840485 -12.030821 -10.004665
v 94.772278 -10.959977 -5.637635
v 94.439766 -12.330585 -7.448306
v 81.431404 -12.239610 -12.418330
v 82.201111 -10.197945 -10.556025
v 89.369415 -10.485445 -8.174635
v 85.139610 11.889767 -0.000000
v 85.183868 11.985039 -13.319324
v 89.824852 -5.494614 -15.465310
v 83.200333 -4.912727 -12.429163
v 95.388283 -6.458108 -11.823292
v 103.011269 7.047000 -12.880962
v 102.939354 -1.403855 -7.159453
v 103.215599 9.853549 -11.694890
v 108.716576 9.975737 -9.224155
v 117.033058 4.876517 -7.041011
v 116.997482 7.206731 -6.702394
v 117.414078 4.890910 -13.641145
v 108.372162 10.124584 -12.558400
v 103.659081 6.777608 -13.671189
v 103.660225 -0.938131 -0.000002
v 103.247925 10.057010 -14.515079
v 108.761497 -3.015887 -9.970377
v 115.804039 -1.780216 -10.145647
v 117.528717 4.446558 -9.259016
v 115.288368 -1.440570 -9.799322
v 116.563057 7.882147 -6.978786
v 113.713684 12.999609 -11.763713
v 109.689903 -3.638807 -12.196810
v 114.095093 -0.652472 -9.489799
v 109.866508 -4.864544 -8.220457
v 105.207878 -11.476801 -10.143595
v 104.868500 -10.954601 -10.878824
v 107.553444 -5.898756 -9.024434
v 108.424957 -6.842293 -7.609785
v 108.486755 10.609427 -11.662885
v 115.278221 7.953310 -7.861672
v 109.725296 13.339203 -12.306652
v 98.621422 -7.143517 -5.545913
v 97.779968 -13.029414 -9.869690
v 98.043457 -11.806578 -9.775326
v 101.584557 -12.561197 -6.813794
v 101.404396 -13.385132 -5.764926
v 101.504547 -14.556353 -8.036701
v 105.888512 -12.309210 -6.009538
v 105.952110 -12.867368 -12.395649
v 102.046288 -7.798165 -16.603096
v 107.539970 9.113818 -19.444000
v 106.494659 8.640085 -18.170225
v 101.140465 6.126828 -18.801617
v 101.224510 -0.260124 -27.611124
v 108.173386 -0.080962 -22.473051
v 111.116005 0.278095 -20.355614
v 106.464256 -2.071086 -26.061825
v 104.024330 -2.018367 -17.460871
v 107.703850 -2.285725 -16.420692
v 114.394997 6.434794 -19.165897
v 112.002823 5.991698 -27.743853
v 108.360809 5.554295 -22.713150
v 111.234833 5.790078 -26.554821
v 98.026909 5.532864 -29.447123
v 102.615051 7.828706 -34.426506
v 100.632004 7.766861 -26.643206
v 98.164009 -0.156422 -24.408443
v 99.690590 0.200740 -36.379402
v 104.691002 5.539135 -30.488678
v 107.951057 -0.486722 -36.231091
v 104.628990 -0.597519 -30.583431
v 108.193916 5.861855 -27.248421
v 103.651756 8.674487 -24.246834
v 99.510727 5.650408 -24.963621
v 104.475700 8.038545 -0.000001
v 108.289886 14.973234 -0.000001
v 104.397606 12.884990 -34.407791
v 100.472992 -2.636769 -28.488659
v 103.001251 -2.696576 -11.574211
v 113.877136 8.024469 -16.032608
v 114.325783 0.136786 -12.589008
v 115.404099 3.992932 -6.976394
v 115.727859 -1.881016 -32.524998
v 96.145592 -0.085646 -32.386604
v 96.187691 5.196579 -8.968699
v 79.170380 13.658527 -14.632895
v 78.593803 9.669196 -6.814882
v 101.540062 -14.201697 -9.184877
v 110.860428 -5.497713 -6.519641
v 110.337738 -7.202472 -8.814872
v 109.086823 -7.431208 -12.377865
v 116.550957 4.219744 -12.094131
v 115.034119 -1.453731 -5.864524
v 116.273026 4.019435 -6.180780
v 114.111473 -1.238894 -5.939578
v 109.723785 -6.226329 -5.460736
v 105.271484 -11.999006 -5.473327
v 101.368881 -13.716943 -9.660985
v 110.417870 -5.321137 -6.374147
v 114.813293 8.783427 -0.000001
v 116.681770 9.836864 -18.867350
v 111.911575 0.338936 -16.983156
v 77.779350 3.435206 -8.408883
v 74.783340 -11.754882 -13.749894
v 75.682785 -9.321310 -17.140255
v 76.712776 -4.039868 -0.000000
v 79.284058 13.919595 9.189461
v 20.484203 -4.618871 8.996699
v 20.483404 8.895572 19.047203
v 20.485802 4.294417 6.671240
v 20.483200 3.588789 17.271500
v 20.485104 -4.281381 15.818403
v 20.485001 9.062570 17.339800
v 60.885487 1.740328 9.634030
v 60.585098 -8.788697 3.599488
v 60.123795 -5.908008 2.262649
v 59.748993 1.097804 15.430996
v 60.917095 -6.186741 5.554137
v 48.629498 -5.419728 4.895459
v 44.634899 1.578637 7.014109
v 45.823803 7.658530 12.921600
v 46.202698 7.492739 15.246097
v 49.652096 -4.881310 16.873400
v 45.863098 2.165928 4.611198
v 60.173401 8.396198 12.256500
v 60.735001 8.265580 10.970899
v 45.770500 -7.273840 6.143130
v 45.318398 -4.985740 15.306400
v 46.417301 -4.494491 11.302199
v 42.378899 -6.217441 15.638998
v 43.370201 -3.694330 6.830048
v 42.601891 -4.381608 18.503405
v 35.618698 3.077837 14.372301
v 35.918503 9.240402 7.779897
v 35.585098 9.489619 4.990849
v 34.116600 2.656088 10.569799
v 49.151699 -7.550950 16.702101
v 48.443192 2.114959 12.697800
v 48.166504 7.455450 6.914860
v 47.551697 7.601020 4.512319
v 47.441299 1.563495 42.422791
v 92.725655 4.675034 44.161880
v 96.529343 6.713466 42.148598
v 92.630409 -0.150563 45.711205
v 100.089790 5.049116 43.801395
v 96.407463 -2.744973 45.439194
v 100.274803 -0.862251 32.524994
v 96.145599 -0.085642 34.407784
v 100.472992 -2.636757 36.231094
v 104.628998 -0.597523 36.379402
v 104.691010 5.539130 34.426506
v 100.632004 7.766858 32.386608
v 96.187706 5.196581 37.772572
v 94.328148 4.905107 39.680725
v 98.420181 7.198410 39.591679
v 98.229202 -2.696447 37.732994
v 94.243286 -0.120765 41.441071
v 102.195251 5.273322 41.429649
v 102.170807 -0.747148 14.760111
v 67.458633 -6.191219 16.860937
v 67.471901 0.870537 3.793816
v 66.101471 8.339668 13.234406
v 66.940300 7.032799 11.134387
v 66.508995 8.455177 3.077813
v 66.316277 -5.884723 1.940281
v 65.633789 0.861735 8.861362
v 67.054428 -8.311772 13.319680
v 84.074158 1.585073 9.079883
v 84.964386 6.237586 9.992316
v 90.408661 -1.011444 9.263317
v 95.927834 -1.998371 6.254397
v 88.840477 -12.030819 7.587120
v 94.707954 -9.985406 5.637641
v 94.439766 -12.330585 7.448309
v 81.431404 -12.239606 11.025394
v 82.257248 -9.274773 8.583323
v 89.356873 -9.528224 10.997528
v 89.807930 -5.424124 13.844170
v 83.246887 -4.452218 9.540741
v 95.318062 -6.190827 9.680757
v 101.488884 -12.452558 5.545915
v 97.779968 -13.029411 10.869067
v 98.520226 -7.079555 8.968699
v 79.170380 13.658527 14.632895
v 78.593803 9.669196 16.983156
v 77.779350 3.435205 8.408884
v 74.783340 -11.754881 13.749897
v 75.682785 -9.321307 17.140259
v 76.712776 -4.039869 -9.634028
v 60.585091 -8.788699 -3.599491
v 60.123795 -5.908011 -5.554137
v 48.629494 -5.419729 -10.569801
v 49.151695 -7.550950 -4.512320
v 47.441299 1.563498 -4.611200
v 60.173401 8.396198 -6.914860
v 47.551697 7.601021 -16.702101
v 48.443192 2.114959 -12.697800
v 48.166504 7.455450 -17.339798
v 60.885494 1.740328 -15.430995
v 60.917099 -6.186741 -15.246099
v 49.652096 -4.881310 -6.143129
v 45.318398 -4.985739 -4.895460
v 44.634899 1.578639 -15.306401
v 46.417297 -4.494491 -12.921600
v 46.202698 7.492739 -7.014110
v 45.823803 7.658530 -10.970900
v 45.770500 -7.273840 -16.873400
v 45.863098 2.165930 -14.372301
v 35.918503 9.240401 -18.503403
v 35.618698 3.077840 -11.302199
v 42.378899 -6.217441 -6.830049
v 42.601891 -4.381609 -15.638998
v 43.370201 -3.694329 -4.990849
v 34.116600 2.656090 -6.671240
v 20.483202 3.588789 -9.189461
v 20.484203 -4.618871 -7.779899
v 35.585098 9.489620 -17.271502
v 20.485102 -4.281381 -19.047203
v 20.485802 4.294419 -2.262649
v 59.748997 1.097805 -1.940281
v 65.633789 0.861742 -3.793817
v 66.101471 8.339666 -15.818401
v 20.485001 9.062570 -8.996699
v 20.483404 8.895572 -12.256500
v 60.734993 8.265579 -13.234406
v 66.940300 7.032799 -16.860939
v 67.471901 0.870545 -39.680725
v 98.420181 7.198407 -37.772572
v 94.328133 4.905105 -32.386604
v 96.187691 5.196579 -37.732998
v 94.243286 -0.120763 -39.591732
v 98.229332 -2.696453 -34.407791
v 100.472992 -2.636769 -41.441071
v 102.195251 5.273326 -41.429649
v 102.170807 -0.747157 -45.711197
v 100.089790 5.049124 -32.524998
v 96.145592 -0.085646 -36.231091
v 104.628990 -0.597519 -34.426506
v 100.632004 7.766861 -44.161869
v 96.529343 6.713497 -42.422791
v 92.725647 4.675032 -42.148598
v 92.630402 -0.150556 -43.801392
v 96.407440 -2.744969 -36.379402
v 104.691002 5.539135 -45.439190
v 100.274788 -0.862260 -14.760113
v 67.458641 -6.191218 -8.861364
v 67.054428 -8.311772 -11.134386
v 66.508987 8.455177 -3.077814
v 66.316277 -5.884725 -9.079884
v 84.964386 6.237586 -13.319680
v 84.074158 1.585074 -9.992316
v 90.408661 -1.011444 -7.587118
v 94.707954 -9.985409 -6.254391
v 88.840485 -12.030821 -5.637635
v 94.439766 -12.330585 -11.025393
v 82.257248 -9.274774 -7.448306
v 81.431404 -12.239610 -8.583320
v 89.356873 -9.528227 -10.997525
v 89.807930 -5.424128 -13.844170
v 83.246887 -4.452219 -9.540741
v 95.318054 -6.190829 -5.545913
v 97.779968 -13.029414 -9.680752
v 101.488876 -12.452558 -10.869066
v 98.520226 -7.079557 -9.263315
v 95.927834 -1.998371 -14.632895
v 78.593803 9.669196 -8.968699
v 79.170380 13.658527 -16.983156
v 77.779350 3.435206 -13.749894
v 75.682785 -9.321310 -8.408883
v 74.783340 -11.754882 -0.000000
v 85.211426 7.854734 -17.140255
v 76.712776 -4.039868 -40.114063
v 103.155251 -0.915359 -40.268116
v 103.219666 5.458745 -36.010895
v 107.869881 2.481737 -34.865101
v 106.567070 -1.388949 -32.588829
v 101.525352 9.161701 -35.052177
v 106.645271 6.351681 -38.239643
v 99.003593 7.772689 -32.565231
v 101.324768 -3.961206 -38.220207
v 98.838432 -3.033546 -30.190315
v 95.866295 -0.743283 -30.015747
v 95.919395 5.919608 -36.120789
v 94.387291 5.102960 -36.264545
v 94.343559 -0.383705 -0.000000
v 79.284058 13.919595 4.353007
v 105.375542 -11.901827 0.000000
v 104.490898 -11.354836 5.972381
v 109.555099 -6.090208 6.892200
v 81.552803 -9.063931 7.506143
v 76.838051 -8.535149 1.312102
v 70.199898 0.642271 1.428406
v 63.564465 1.027863 0.000000
v 70.697578 -6.255476 2.444196
v 71.315994 -6.342491 0.000000
v 69.791382 0.587134 13.848109
v 83.909302 -0.609761 8.603851
v 85.124352 8.249466 0.000000
v 80.758118 -10.292624 6.892200
v 81.552803 -9.063931 12.189152
v 82.891914 -6.130925 -0.000000
v 85.187782 9.780645 16.141445
v 64.827301 -1.369579 17.615089
v 67.490906 1.007314 9.130993
v 63.992943 -10.152357 3.144247
v 63.576515 8.867773 2.827682
v 63.633877 -6.269452 1.428406
v 63.564465 1.027863 11.585073
v 64.614723 8.261614 17.749626
v 63.873543 4.722019 16.713593
v 66.484283 0.993188 15.152302
v 64.501221 4.317913 17.615089
v 67.490906 1.007314 16.036028
v 64.553291 -7.689343 11.823594
v 63.563023 9.771847 18.520710
v 64.030624 -1.380339 0.000001
v 89.524597 -10.437300 0.000000
v 80.247528 -9.576442 0.000000
v 96.882271 -11.254031 -0.000003
v 116.894180 6.252835 -0.000003
v 123.522461 5.340425 -0.000006
v 119.354462 -4.180035 -0.000000
v 113.184227 -3.294353 0.000000
v 104.490898 -11.354836 -4.352999
v 105.375542 -11.901829 -0.000000
v 108.884361 -7.024356 0.000000
v 100.370010 -12.927844 0.000000
v 104.490898 -11.354836 0.000000
v 111.905304 8.965495 -5.972381
v 109.555977 -6.090279 -6.892199
v 81.552803 -9.063931 -7.506142
v 76.838051 -8.535149 -0.000000
v 85.187782 9.780645 -0.000000
v 80.848923 11.971461 0.000000
v 69.791382 0.587134 -0.000000
v 70.083649 7.182525 -0.000000
v 73.710411 11.675131 -1.312102
v 70.199898 0.642275 -1.428407
v 63.564468 1.027870 0.000000
v 70.697578 -6.255476 -2.444198
v 71.315994 -6.342491 0.000000
v 69.791382 0.587134 -13.848109
v 83.909302 -0.609759 -8.603852
v 85.124352 8.249465 0.000000
v 83.154465 -1.456454 0.000000
v 80.758118 -10.292624 -6.892199
v 81.552803 -9.063931 -12.189152
v 82.891914 -6.130924 -0.000000
v 85.187782 9.780645 -16.141445
v 64.827301 -1.369579 -17.615091
v 67.490898 1.007313 -9.130996
v 63.992947 -10.152358 -3.144247
v 63.576519 8.867772 -2.827684
v 63.633873 -6.269453 -1.428407
v 63.564468 1.027870 -17.749624
v 63.873543 4.722021 -11.585073
v 64.614723 8.261614 -16.713593
v 66.484283 0.993187 -17.615091
v 67.490898 1.007313 -15.152303
v 64.501221 4.317914 -16.036030
v 64.553291 -7.689342 -11.823592
v 63.563026 9.771846 -18.520710
v 64.030624 -1.380337 13.365269
v 90.280281 1.144027 15.447377
v 84.035606 2.344029 11.694883
v 108.719894 9.975866 11.823293
v 103.012901 7.049204 12.880963
v 102.937706 -1.401708 12.558400
v 103.660912 6.779887 11.823293
v 103.012901 7.049204 9.224152
v 117.034645 4.871006 10.145644
v 117.529968 4.440522 12.880963
v 102.937706 -1.401708 12.665967
v 96.003967 0.290578 18.170225
v 101.140457 6.126801 26.554827
v 98.026901 5.532861 24.246834
v 99.510719 5.650389 11.763714
v 109.686790 -3.639125 11.763714
v 109.686790 -3.639125 12.880963
v 102.937706 -1.401708 12.196810
v 114.092552 -0.656067 6.702392
v 117.414078 4.890908 32.386608
v 96.187706 5.196581 11.763714
v 109.686790 -3.639125 12.880963
v 102.937706 -1.401708 12.880963
v 102.937706 -1.401708 11.574208
v 113.880898 8.021122 5.545915
v 97.779968 -13.029411 12.589008
v 115.404930 3.988369 12.196810
v 114.092552 -0.656067 12.589008
v 115.404930 3.988369 12.377864
v 116.551949 4.214422 11.574208
v 113.880898 8.021122 7.609781
v 108.488853 10.609796 -0.000002
v 103.247925 10.057010 5.864523
v 116.273026 4.019435 6.813798
v 101.404396 -13.385131 8.220458
v 105.207878 -11.476799 9.024436
v 108.423935 -6.842171 9.489799
v 109.862808 -4.864700 12.196810
v 114.092552 -0.656067 30.015749
v 95.919388 5.919609 36.120796
v 94.387299 5.102960 30.190311
v 95.866295 -0.743278 34.865097
v 106.567078 -1.388946 32.565224
v 101.324768 -3.961197 36.010899
v 107.869911 2.481863 32.588833
v 101.525345 9.161700 35.052181
v 106.645287 6.351679 30.015749
v 95.919388 5.919609 16.983156
v 77.779350 3.435205 36.120796
v 94.387299 5.102960 40.268116
v 103.219673 5.458739 38.239643
v 99.003586 7.772690 38.220200
v 98.838432 -3.033555 40.114059
v 103.155266 -0.915360 36.264545
v 94.343567 -0.383695 -13.365271
v 90.280281 1.144027 -15.447377
v 84.035606 2.344030 -11.694890
v 108.716576 9.975737 -11.823292
v 103.011269 7.047000 -12.880962
v 102.939354 -1.403855 -11.823292
v 103.011269 7.047000 -12.558400
v 103.659081 6.777608 -9.224155
v 117.033058 4.876517 -10.145647
v 117.528717 4.446558 -12.880962
v 102.939354 -1.403855 -12.665967
v 96.003967 0.290578 -18.170225
v 101.140465 6.126828 -26.554821
v 98.026909 5.532864 -24.246834
v 99.510727 5.650408 -11.763713
v 109.689903 -3.638807 -11.763713
v 109.689903 -3.638807 -12.880962
v 102.939354 -1.403855 -12.196810
v 114.095093 -0.652472 -6.702394
v 117.414078 4.890910 -32.386604
v 96.187691 5.196579 -11.763713
v 109.689903 -3.638807 -12.880962
v 102.939354 -1.403855 -12.880962
v 102.939354 -1.403855 -11.574211
v 113.877136 8.024469 -5.545913
v 97.779968 -13.029414 -12.589008
v 115.404099 3.992932 -12.196810
v 114.095093 -0.652472 -12.589008
v 115.404099 3.992932 -11.574211
v 113.877136 8.024469 -12.377865
v 116.550957 4.219744 -7.609785
v 108.486755 10.609427 -5.864524
v 116.273026 4.019435 -6.813794
v 101.404396 -13.385132 -8.220457
v 105.207878 -11.476801 -9.024434
v 108.424957 -6.842293 -9.489799
v 109.866508 -4.864544 -12.196810
v 114.095093 -0.652472 -16.983156
v 77.779350 3.435206 4.512319
v 47.441299 1.563495 4.895459
v 44.634899 1.578637 4.990849
v 34.116600 2.656088 6.671240
v 20.483200 3.588789 2.262649
v 59.748993 1.097804 37.772572
v 94.328148 4.905107 32.386608
v 96.187706 5.196581 42.422791
v 92.725655 4.675034 1.940281
v 65.633789 0.861735 -4.512320
v 47.441299 1.563498 -4.895460
v 44.634899 1.578639 -4.990849
v 34.116600 2.656090 -6.671240
v 20.483202 3.588789 -2.262649
v 59.748997 1.097805 -37.772572
v 94.328133 4.905105 -32.386604
v 96.187691 5.196579 -42.422791
v 92.725647 4.675032 -1.940281
v 65.633789 0.861742 -0.000000
v 79.284058 13.919595 -0.000000
v 85.211426 7.854734 -30.015747
v 95.919395 5.919608 -36.120789
v 94.387291 5.102960 -30.190315
v 95.866295 -0.743283 -32.588829
v 101.525352 9.161701 -30.015747
v 95.919395 5.919608 -36.010895
v 107.869881 2.481737 -35.052177
v 106.645271 6.351681 -34.865101
v 106.567070 -1.388949 -32.565231
v 101.324768 -3.961206 -36.120789
v 94.387291 5.102960 -38.220207
v 98.838432 -3.033546 -36.264545
v 94.343559 -0.383705 -40.268116
v 103.219666 5.458745 -40.114063
v 103.155251 -0.915359 -38.239643
v 99.003593 7.772689 0.285601

vt 0.437901 0.829797
vt 0.434607 0.886341
vt 0.457286 0.689241
vt 0.303790 0.811886
vt 0.290071 0.886341
vt 0.366660 0.826359
vt 0.363285 0.712564
vt 0.371584 0.772258
vt 0.430904 0.746502
vt 0.290111 0.765232
vt 0.363569 0.437463
vt 0.934404 0.472746
vt 0.932623 0.436394
vt 0.976786 0.464291
vt 0.973280 0.508659
vt 0.945096 0.462584
vt 0.908059 0.427478
vt 0.901190 0.442376
vt 0.912807 0.831279
vt 0.635154 0.838957
vt 0.473237 0.792528
vt 0.478658 0.838957
vt 0.510489 0.788848
vt 0.521736 0.838957
vt 0.558653 0.787142
vt 0.566538 0.684833
vt 0.278469 0.810517
vt 0.264750 0.743774
vt 0.264750 0.644697
vt 0.247094 0.738500
vt 0.232676 0.401036
vt 0.110371 0.671933
vt 0.193058 0.623097
vt 0.205449 0.737390
vt 0.181990 0.455213
vt 0.106477 0.791224
vt 0.178546 0.734596
vt 0.122476 0.795452
vt 0.123556 0.621747
vt 0.144047 0.683316
vt 0.128287 0.479112
vt 0.069501 0.919728
vt 0.127381 0.849776
vt 0.030574 0.908183
vt 0.033001 0.970387
vt 0.017212 0.629953
vt 0.096769 0.384612
vt 0.021630 0.565386
vt 0.024603 0.464829
vt 0.051111 0.555658
vt 0.094697 0.523143
vt 0.188818 0.855925
vt 0.130188 0.788571
vt 0.231406 0.410416
vt 0.011000 0.723525
vt 0.060798 0.703121
vt 0.023848 0.521708
vt 0.113542 0.381415
vt 0.049795 0.390593
vt 0.074475 0.417943
vt 0.083886 0.391534
vt 0.026324 0.449190
vt 0.079739 0.457363
vt 0.049615 0.410576
vt 0.021282 0.422354
vt 0.021431 0.449830
vt 0.029257 0.793027
vt 0.063292 0.856104
vt 0.075205 0.637571
vt 0.058030 0.692799
vt 0.061648 0.886341
vt 0.290881 0.811886
vt 0.290071 0.826359
vt 0.363285 0.829797
vt 0.434607 0.772258
vt 0.430904 0.746502
vt 0.290111 0.888105
vt 0.265561 0.810517
vt 0.264750 0.743774
vt 0.264750 0.712564
vt 0.371584 0.765232
vt 0.363569 0.714399
vt 0.437901 0.689241
vt 0.303790 0.472746
vt 0.932623 0.436394
vt 0.976786 0.464291
vt 0.973280 0.437463
vt 0.934404 0.397656
vt 0.940898 0.401035
vt 0.981337 0.494416
vt 0.979293 0.838957
vt 0.473237 0.442376
vt 0.912807 0.427478
vt 0.901190 0.787142
vt 0.566538 0.831279
vt 0.635154 0.838957
vt 0.558653 0.562117
vt 0.893980 0.534237
vt 0.920567 0.788848
vt 0.521736 0.792528
vt 0.478658 0.838957
vt 0.510489 0.886341
vt 0.501122 0.383185
vt 0.907349 0.462584
vt 0.908059 0.684833
vt 0.278469 0.644697
vt 0.247094 0.738500
vt 0.232676 0.671933
vt 0.193058 0.623097
vt 0.205449 0.401841
vt 0.188818 0.455213
vt 0.188818 0.455213
vt 0.272016 0.401841
vt 0.264526 0.791224
vt 0.178546 0.788571
vt 0.231406 0.737390
vt 0.181990 0.564857
vt 0.271292 0.548571
vt 0.224732 0.479112
vt 0.069501 0.471133
vt 0.080223 0.621747
vt 0.144047 0.629953
vt 0.096769 0.538785
vt 0.158321 0.734596
vt 0.122476 0.795452
vt 0.123556 0.793027
vt 0.063292 0.723525
vt 0.060798 0.855925
vt 0.130188 0.856104
vt 0.075205 0.637571
vt 0.058030 0.565386
vt 0.024603 0.555658
vt 0.094697 0.683316
vt 0.128287 0.692799
vt 0.061648 0.919728
vt 0.127381 0.970387
vt 0.017212 0.908183
vt 0.033001 0.703121
vt 0.023848 0.849776
vt 0.030574 0.411947
vt 0.400307 0.410416
vt 0.011000 0.384612
vt 0.021630 0.391534
vt 0.026324 0.410576
vt 0.021282 0.422354
vt 0.021431 0.381415
vt 0.049795 0.464829
vt 0.051111 0.457363
vt 0.049615 0.449190
vt 0.079739 0.417943
vt 0.083886 0.390593
vt 0.074475 0.449830
vt 0.029257 0.326673
vt 0.589936 0.431864
vt 0.793970 0.225717
vt 0.395448 0.463731
vt 0.589936 0.027029
vt 0.376931 0.169268
vt 0.392716 0.430272
vt 0.728704 0.315748
vt 0.728704 0.221908
vt 0.443254 0.021488
vt 0.435918 0.165036
vt 0.439211 0.671351
vt 0.587207 0.560692
vt 0.683636 0.552086
vt 0.640003 0.667998
vt 0.492528 0.290914
vt 0.497962 0.315748
vt 0.865674 0.461564
vt 0.865674 0.319168
vt 0.930803 0.371483
vt 0.865674 0.371333
vt 0.560942 0.859876
vt 0.703028 0.716049
vt 0.562406 0.967235
vt 0.767329 0.362645
vt 0.930803 0.908506
vt 0.747784 0.616011
vt 0.754840 0.434399
vt 0.570982 0.677533
vt 0.730787 0.826062
vt 0.747431 0.803847
vt 0.702592 0.756045
vt 0.736428 0.637689
vt 0.681879 0.263684
vt 0.395585 0.258491
vt 0.442172 0.295632
vt 0.443425 0.253281
vt 0.496497 0.880716
vt 0.875648 0.587978
vt 0.889202 0.699383
vt 0.889202 0.643090
vt 0.889202 0.753745
vt 0.889202 0.819165
vt 0.889202 0.945427
vt 0.919025 0.818975
vt 0.919025 0.881338
vt 0.929535 0.879423
vt 0.901268 0.757680
vt 0.919025 0.700083
vt 0.919025 0.641384
vt 0.919025 0.638197
vt 0.988978 0.697033
vt 0.988978 0.752695
vt 0.988978 0.821662
vt 0.988978 0.877824
vt 0.988978 0.578821
vt 0.988978 0.723374
vt 0.666100 0.325759
vt 0.465938 0.350830
vt 0.523553 0.157280
vt 0.497856 0.217055
vt 0.496853 0.017478
vt 0.497890 0.396484
vt 0.589936 0.315748
vt 0.793970 0.371483
vt 0.793970 0.371483
vt 0.728704 0.336866
vt 0.451996 0.774234
vt 0.657879 0.385158
vt 0.534357 0.369082
vt 0.506768 0.303530
vt 0.414538 0.551048
vt 0.630199 0.479317
vt 0.636629 0.715048
vt 0.534725 0.673041
vt 0.455899 0.556339
vt 0.665120 0.641060
vt 0.663823 0.721451
vt 0.655865 0.773298
vt 0.649570 0.768655
vt 0.642507 0.714006
vt 0.637430 0.649596
vt 0.629807 0.620051
vt 0.630405 0.669778
vt 0.532444 0.681980
vt 0.572731 0.678551
vt 0.553725 0.910655
vt 0.618810 0.910655
vt 0.366247 0.981417
vt 0.334974 0.981417
vt 0.410960 0.981417
vt 0.483699 0.981417
vt 0.580430 0.981417
vt 0.650971 0.981417
vt 0.266088 0.910655
vt 0.486996 0.910655
vt 0.427116 0.910655
vt 0.311225 0.910655
vt 0.560722 0.981417
vt 0.531890 0.890367
vt 0.812163 0.955453
vt 0.830347 0.633244
vt 0.821636 0.695118
vt 0.812491 0.757920
vt 0.818051 0.819369
vt 0.822539 0.897006
vt 0.780239 0.687899
vt 0.772135 0.824900
vt 0.784475 0.753716
vt 0.776069 0.443979
vt 0.658246 0.383191
vt 0.658246 0.094685
vt 0.384007 0.321118
vt 0.658246 0.085952
vt 0.496940 0.089430
vt 0.436824 0.475410
vt 0.612390 0.544943
vt 0.611953 0.734786
vt 0.515315 0.620357
vt 0.616729 0.594410
vt 0.517804 0.594410
vt 0.482590 0.594410
vt 0.582546 0.594410
vt 0.570474 0.026298
vt 0.658246 0.092218
vt 0.658246 0.105477
vt 0.728704 0.039313
vt 0.728704 0.040808
vt 0.793970 0.105477
vt 0.793970 0.239391
vt 0.728704 0.239391
vt 0.793970 0.163008
vt 0.793970 0.163008
vt 0.728704 0.169268
vt 0.392716 0.221908
vt 0.443254 0.225717
vt 0.395448 0.094685
vt 0.384007 0.089430
vt 0.436824 0.165036
vt 0.439211 0.156921
vt 0.658246 0.239391
vt 0.658246 0.157280
vt 0.497856 0.085952
vt 0.496940 0.217055
vt 0.496853 0.105477
vt 0.865674 0.022070
vt 0.865674 0.163008
vt 0.865674 0.117012
vt 0.930803 0.472772
vt 0.562406 0.510270
vt 0.553725 0.506840
vt 0.572731 0.908506
vt 0.747784 0.967235
vt 0.767329 0.616011
vt 0.754840 0.239391
vt 0.865674 0.677533
vt 0.730787 0.551048
vt 0.630199 0.479317
vt 0.636629 0.552086
vt 0.640003 0.473773
vt 0.534725 0.520823
vt 0.492528 0.371333
vt 0.560942 0.434399
vt 0.570982 0.385158
vt 0.534357 0.336866
vt 0.451996 0.325759
vt 0.465938 0.350830
vt 0.523553 0.369082
vt 0.506768 0.158483
vt 0.930803 0.454035
vt 0.515315 0.515779
vt 0.455899 0.253281
vt 0.496497 0.263684
vt 0.395585 0.258491
vt 0.442172 0.295632
vt 0.443425 0.303530
vt 0.414538 0.773298
vt 0.649570 0.714006
vt 0.637430 0.721451
vt 0.655865 0.290914
vt 0.497962 0.897006
vt 0.780239 0.890367
vt 0.812163 0.955453
vt 0.830347 0.633244
vt 0.821636 0.753745
vt 0.889202 0.757920
vt 0.818051 0.695118
vt 0.812491 0.699383
vt 0.889202 0.687899
vt 0.772135 0.826062
vt 0.747431 0.824900
vt 0.784475 0.819165
vt 0.889202 0.819369
vt 0.822539 0.945427
vt 0.919025 0.881338
vt 0.929535 0.877824
vt 0.988978 0.641384
vt 0.919025 0.643090
vt 0.889202 0.821662
vt 0.988978 0.757680
vt 0.919025 0.752695
vt 0.988978 0.818975
vt 0.919025 0.879423
vt 0.901268 0.587978
vt 0.889202 0.880716
vt 0.875648 0.594410
vt 0.444438 0.594410
vt 0.410431 0.697033
vt 0.988978 0.700083
vt 0.919025 0.859876
vt 0.703028 0.756045
vt 0.736428 0.803847
vt 0.702592 0.556339
vt 0.665120 0.638197
vt 0.988978 0.578821
vt 0.988978 0.150194
vt 0.589936 0.084018
vt 0.589936 0.768655
vt 0.642507 0.620051
vt 0.630405 0.641060
vt 0.663823 0.649596
vt 0.629807 0.475410
vt 0.612390 0.544943
vt 0.611953 0.517470
vt 0.587207 0.560692
vt 0.683636 0.637689
vt 0.681879 0.723374
vt 0.666100 0.774234
vt 0.657879 0.620357
vt 0.616729 0.519043
vt 0.532444 0.594410
vt 0.553913 0.753716
vt 0.776069 0.016053
vt 0.589936 0.027029
vt 0.376931 0.021488
vt 0.435918 0.017478
vt 0.497890 0.239391
vt 0.589936 0.298970
vt 0.024342 0.092787
vt 0.023103 0.183805
vt 0.020353 0.361225
vt 0.018051 0.244173
vt 0.022579 0.143158
vt 0.020224 0.191517
vt 0.320477 0.294329
vt 0.322103 0.342045
vt 0.316601 0.025674
vt 0.308617 0.249420
vt 0.323378 0.326062
vt 0.232819 0.369642
vt 0.193568 0.089710
vt 0.208469 0.137876
vt 0.209942 0.245124
vt 0.240245 0.191529
vt 0.207812 0.080043
vt 0.316290 0.133027
vt 0.319646 0.282953
vt 0.213627 0.322175
vt 0.208831 0.243757
vt 0.215765 0.281327
vt 0.186945 0.240271
vt 0.192049 0.320508
vt 0.187205 0.190088
vt 0.131490 0.138176
vt 0.133454 0.093660
vt 0.133575 0.366882
vt 0.118182 0.286214
vt 0.238037 0.189981
vt 0.228033 0.137221
vt 0.225941 0.090942
vt 0.222198 0.039244
vt 0.221434 0.417858
vt 0.292275 0.456002
vt 0.292275 0.616946
vt 0.292275 0.490847
vt 0.292275 0.577247
vt 0.292275 0.539395
vt 0.292275 0.620616
vt 0.377010 0.577899
vt 0.377010 0.538969
vt 0.377010 0.491100
vt 0.377010 0.451536
vt 0.377010 0.407114
vt 0.377010 0.413161
vt 0.330888 0.453916
vt 0.330888 0.577578
vt 0.330888 0.618640
vt 0.330888 0.490766
vt 0.330888 0.539066
vt 0.330888 0.251646
vt 0.370777 0.196698
vt 0.369093 0.071608
vt 0.359309 0.144000
vt 0.365662 0.125008
vt 0.362694 0.347906
vt 0.362020 0.016598
vt 0.348633 0.299646
vt 0.368866 0.925098
vt 0.209056 0.929698
vt 0.191367 0.947052
vt 0.210852 0.962653
vt 0.206276 0.957099
vt 0.244501 0.968217
vt 0.229879 0.972000
vt 0.237879 0.937504
vt 0.253787 0.932620
vt 0.241582 0.953379
vt 0.235249 0.947866
vt 0.223093 0.927317
vt 0.226513 0.963674
vt 0.218374 0.987801
vt 0.220495 0.981544
vt 0.235376 0.972258
vt 0.212881 0.910842
vt 0.171767 0.903413
vt 0.190407 0.903526
vt 0.209640 0.919732
vt 0.261484 0.912918
vt 0.247194 0.906701
vt 0.231231 0.294329
vt 0.322103 0.342045
vt 0.316601 0.326062
vt 0.232819 0.286214
vt 0.238037 0.039244
vt 0.221434 0.080043
vt 0.316290 0.090942
vt 0.222198 0.189981
vt 0.228033 0.137221
vt 0.225941 0.191517
vt 0.320477 0.249420
vt 0.323378 0.245124
vt 0.240245 0.322175
vt 0.208831 0.369642
vt 0.193568 0.243757
vt 0.215765 0.137876
vt 0.209942 0.089710
vt 0.208469 0.282953
vt 0.213627 0.191529
vt 0.207812 0.138176
vt 0.133454 0.190088
vt 0.131490 0.281327
vt 0.186945 0.320508
vt 0.187205 0.240271
vt 0.192049 0.366882
vt 0.118182 0.361225
vt 0.018051 0.298970
vt 0.024342 0.093660
vt 0.133575 0.244173
vt 0.022579 0.183805
vt 0.020353 0.025674
vt 0.308617 0.016598
vt 0.348633 0.071608
vt 0.359309 0.143158
vt 0.020224 0.092787
vt 0.023103 0.133027
vt 0.319646 0.144000
vt 0.365662 0.196698
vt 0.369093 0.453916
vt 0.330888 0.413161
vt 0.330888 0.407114
vt 0.377010 0.618640
vt 0.330888 0.577578
vt 0.330888 0.577899
vt 0.377010 0.490766
vt 0.330888 0.539066
vt 0.330888 0.490847
vt 0.292275 0.620616
vt 0.377010 0.538969
vt 0.377010 0.451536
vt 0.377010 0.456002
vt 0.292275 0.417858
vt 0.292275 0.616946
vt 0.292275 0.577247
vt 0.292275 0.491100
vt 0.377010 0.539395
vt 0.292275 0.251646
vt 0.370777 0.299646
vt 0.368866 0.125008
vt 0.362694 0.347906
vt 0.362020 0.929698
vt 0.191367 0.925098
vt 0.209056 0.947052
vt 0.210852 0.968217
vt 0.229879 0.957099
vt 0.244501 0.972000
vt 0.237879 0.932620
vt 0.241582 0.937504
vt 0.253787 0.953379
vt 0.235249 0.947866
vt 0.223093 0.927317
vt 0.226513 0.963674
vt 0.218374 0.981544
vt 0.235376 0.987801
vt 0.220495 0.972258
vt 0.212881 0.962653
vt 0.206276 0.903413
vt 0.190407 0.910842
vt 0.171767 0.903526
vt 0.209640 0.912918
vt 0.247194 0.919732
vt 0.261484 0.946308
vt 0.170551 0.906701
vt 0.231231 0.910655
vt 0.486996 0.910655
vt 0.560722 0.981417
vt 0.531890 0.981417
vt 0.483699 0.981417
vt 0.650971 0.981417
vt 0.580430 0.910655
vt 0.618810 0.981417
vt 0.410960 0.910655
vt 0.427116 0.981417
vt 0.334974 0.981417
vt 0.266088 0.910655
vt 0.311225 0.910655
vt 0.366247 0.928975
vt 0.153276 0.541899
vt 0.874927 0.886341
vt 0.550302 0.503598
vt 0.898611 0.844293
vt 0.234716 0.852386
vt 0.178507 0.981174
vt 0.086934 0.499025
vt 0.010927 0.947260
vt 0.149844 0.516762
vt 0.162982 0.988828
vt 0.096795 0.416225
vt 0.454935 0.451288
vt 0.433910 0.375840
vt 0.400419 0.381420
vt 0.427640 0.394029
vt 0.448582 0.456977
vt 0.399926 0.410571
vt 0.020963 0.426218
vt 0.018421 0.374018
vt 0.049884 0.450477
vt 0.083925 0.388829
vt 0.076452 0.417748
vt 0.086112 0.457501
vt 0.049643 0.456255
vt 0.020336 0.437248
vt 0.017913 0.449969
vt 0.029063 0.436401
vt 0.013149 0.789746
vt 0.027925 0.641154
vt 0.018479 0.731386
vt 0.021849 0.886341
vt 0.366660 0.888105
vt 0.265561 0.886341
vt 0.457286 0.397656
vt 0.940898 0.401035
vt 0.981337 0.494416
vt 0.979293 0.508659
vt 0.945096 0.562117
vt 0.893980 0.541899
vt 0.874927 0.534237
vt 0.920567 0.886341
vt 0.501122 0.886341
vt 0.550302 0.383185
vt 0.907349 0.503598
vt 0.898611 0.844293
vt 0.234716 0.852386
vt 0.178507 0.564857
vt 0.271292 0.548571
vt 0.224732 0.471133
vt 0.080223 0.521708
vt 0.113542 0.538785
vt 0.158321 0.981174
vt 0.086934 0.499025
vt 0.010927 0.947260
vt 0.149844 0.516762
vt 0.216638 0.988828
vt 0.096795 0.416225
vt 0.454935 0.451288
vt 0.433910 0.411947
vt 0.400307 0.375840
vt 0.400419 0.381420
vt 0.427640 0.394029
vt 0.448582 0.456977
vt 0.399926 0.410571
vt 0.020963 0.426218
vt 0.018421 0.374018
vt 0.049884 0.450477
vt 0.083925 0.388829
vt 0.076452 0.417748
vt 0.086112 0.456255
vt 0.020336 0.457501
vt 0.049643 0.437248
vt 0.017913 0.436401
vt 0.013149 0.449969
vt 0.029063 0.789746
vt 0.027925 0.641154
vt 0.018479 0.731386
vt 0.021849 0.152741
vt 0.565677 0.084927
vt 0.569629 0.918345
vt 0.727060 0.980258
vt 0.758258 0.598292
vt 0.736502 0.542129
vt 0.805914 0.523164
vt 0.797014 0.476806
vt 0.648286 0.735518
vt 0.562174 0.290288
vt 0.564364 0.213235
vt 0.566203 0.569890
vt 0.842361 0.583839
vt 0.919025 0.941715
vt 0.889202 0.672732
vt 0.689228 0.371333
vt 0.560942 0.290288
vt 0.564364 0.740998
vt 0.694240 0.480555
vt 0.678898 0.939027
vt 0.988978 0.371333
vt 0.560942 0.290288
vt 0.564364 0.290288
vt 0.564364 0.364431
vt 0.989757 0.814614
vt 0.649908 0.476117
vt 0.601431 0.539553
vt 0.606186 0.770988
vt 0.523751 0.761631
vt 0.541265 0.736523
vt 0.489896 0.675522
vt 0.432879 0.594410
vt 0.394668 0.496049
vt 0.691337 0.767788
vt 0.637199 0.716295
vt 0.625650 0.650843
vt 0.615907 0.620295
vt 0.610591 0.539553
vt 0.606186 0.981417
vt 0.721160 0.910655
vt 0.676607 0.031264
vt 0.892353 0.027341
vt 0.961331 0.012193
vt 0.927486 0.050187
vt 0.971216 0.089744
vt 0.928746 0.073081
vt 0.962294 0.070643
vt 0.892263 0.018901
vt 0.572695 0.217235
vt 0.911125 0.214578
vt 0.987704 0.196207
vt 0.950580 0.281643
vt 0.950580 0.264968
vt 0.987704 0.260619
vt 0.911125 0.152741
vt 0.565677 0.084927
vt 0.569629 0.918345
vt 0.727060 0.980258
vt 0.758258 0.598292
vt 0.736502 0.523164
vt 0.797014 0.542129
vt 0.805914 0.476806
vt 0.648286 0.453302
vt 0.562174 0.290288
vt 0.564364 0.213235
vt 0.566203 0.569890
vt 0.842361 0.583839
vt 0.919025 0.941715
vt 0.889202 0.672732
vt 0.689228 0.371333
vt 0.560942 0.290288
vt 0.564364 0.740998
vt 0.694240 0.480555
vt 0.678898 0.939027
vt 0.988978 0.371333
vt 0.560942 0.290288
vt 0.564364 0.290288
vt 0.564364 0.107553
vt 0.989757 0.814614
vt 0.649908 0.476117
vt 0.601431 0.539553
vt 0.606186 0.417833
vt 0.523751 0.452298
vt 0.489896 0.427189
vt 0.541265 0.513298
vt 0.432879 0.496049
vt 0.691337 0.767788
vt 0.637199 0.716295
vt 0.625650 0.650843
vt 0.615907 0.620295
vt 0.610591 0.539553
vt 0.606186 0.018901
vt 0.572695 0.374925
vt 0.213721 0.039170
vt 0.203160 0.040874
vt 0.125166 0.049581
vt 0.023724 0.392281
vt 0.304908 0.659335
vt 0.330888 0.663152
vt 0.377010 0.655853
vt 0.292275 0.397862
vt 0.349058 0.374925
vt 0.213721 0.039170
vt 0.203160 0.040874
vt 0.125166 0.049581
vt 0.023724 0.392281
vt 0.304908 0.659335
vt 0.330888 0.663152
vt 0.377010 0.655853
vt 0.292275 0.397862
vt 0.349058 0.928975
vt 0.153276 0.946308
vt 0.170551 0.981417
vt 0.721160 0.910655
vt 0.676607 0.031264
vt 0.892353 0.089744
vt 0.928746 0.070643
vt 0.892263 0.050187
vt 0.971216 0.073081
vt 0.962294 0.027341
vt 0.961331 0.012193
vt 0.927486 0.217235
vt 0.911125 0.281643
vt 0.950580 0.260619
vt 0.911125 0.214578
vt 0.987704 0.264968
vt 0.987704 0.196207
vt 0.950580 1.000000

f 6/6 5/5 72/72
f 6/6 2/2 7/7
f 7/7 2/2 9/9
f 7/7 10/10 5/5
f 78/78 5/5 28/28
f 5/5 78/78 72/72
f 28/28 10/10 29/29
f 10/10 28/28 5/5
f 7/7 5/5 6/6
f 8/8 10/10 11/11
f 6/6 3/3 2/2
f 11/11 1/1 8/8
f 11/11 9/9 1/1
f 8/8 4/4 10/10
f 7/7 9/9 11/11
f 11/11 10/10 7/7
f 13/13 15/15 14/14
f 14/14 12/12 13/13
f 89/89 12/12 14/14
f 14/14 90/90 89/89
f 15/15 13/13 91/91
f 16/16 91/91 13/13
f 21/21 2/2 3/3
f 19/19 12/12 18/18
f 26/26 25/25 20/20
f 98/98 99/99 570/570
f 24/24 22/22 21/21
f 23/23 24/24 21/21
f 23/23 25/25 24/24
f 103/103 571/571 23/23
f 103/103 23/23 21/21
f 22/22 2/2 21/21
f 9/9 2/2 22/22
f 3/3 103/103 21/21
f 89/89 104/104 18/18
f 572/572 99/99 16/16
f 16/16 13/13 572/572
f 572/572 13/13 17/17
f 12/12 89/89 18/18
f 12/12 17/17 13/13
f 17/17 12/12 19/19
f 25/25 26/26 24/24
f 570/570 99/99 572/572
f 571/571 25/25 23/23
f 4/4 29/29 10/10
f 29/29 4/4 27/27
f 33/33 30/30 34/34
f 30/30 33/33 31/31
f 36/36 111/111 32/32
f 111/111 36/36 112/112
f 37/37 573/573 54/54
f 573/573 37/37 574/574
f 35/35 54/54 31/31
f 54/54 35/35 37/37
f 34/34 118/118 119/119
f 118/118 34/34 30/30
f 42/42 58/58 121/121
f 40/40 124/124 47/47
f 38/38 68/68 39/39
f 68/68 38/38 56/56
f 53/53 574/574 39/39
f 39/39 69/69 53/53
f 69/69 39/39 68/68
f 47/47 49/49 70/70
f 49/49 47/47 51/51
f 47/47 71/71 41/41
f 71/71 47/47 70/70
f 46/46 43/43 45/45
f 43/43 46/46 575/575
f 51/51 576/576 49/49
f 576/576 51/51 42/42
f 124/124 51/51 47/47
f 112/112 36/36 52/52
f 57/57 56/56 71/71
f 44/44 43/43 69/69
f 43/43 44/44 45/45
f 53/53 43/43 574/574
f 575/575 577/577 43/43
f 47/47 41/41 40/40
f 52/52 36/36 578/578
f 577/577 575/575 579/579
f 51/51 124/124 58/58
f 51/51 58/58 42/42
f 40/40 119/119 124/124
f 33/33 41/41 35/35
f 37/37 35/35 39/39
f 33/33 34/34 40/40
f 119/119 40/40 34/34
f 41/41 38/38 35/35
f 38/38 39/39 35/35
f 39/39 574/574 37/37
f 40/40 41/41 33/33
f 31/31 33/33 35/35
f 580/580 141/141 581/581
f 582/582 141/141 583/583
f 583/583 141/141 584/584
f 584/584 141/141 580/580
f 581/581 141/141 585/585
f 62/62 55/55 65/65
f 55/55 62/62 48/48
f 586/586 587/587 66/66
f 587/587 586/586 55/55
f 59/59 48/48 62/62
f 48/48 59/59 588/588
f 64/64 589/589 63/63
f 589/589 64/64 50/50
f 61/61 590/590 60/60
f 590/590 61/61 591/591
f 63/63 591/591 61/61
f 591/591 63/63 589/589
f 67/67 50/50 592/592
f 50/50 67/67 593/593
f 594/594 593/593 595/595
f 593/593 594/594 596/596
f 60/60 588/588 59/59
f 588/588 60/60 590/590
f 44/44 68/68 597/597
f 68/68 44/44 69/69
f 71/71 598/598 57/57
f 598/598 71/71 70/70
f 71/71 38/38 41/41
f 38/38 71/71 56/56
f 68/68 599/599 597/597
f 599/599 68/68 56/56
f 70/70 49/49 598/598
f 69/69 43/43 53/53
f 600/600 72/72 73/73
f 600/600 74/74 75/75
f 74/74 76/76 75/75
f 74/74 73/73 77/77
f 601/601 73/73 72/72
f 73/73 601/601 79/79
f 79/79 77/77 73/73
f 77/77 79/79 80/80
f 74/74 600/600 73/73
f 81/81 82/82 77/77
f 600/600 75/75 602/602
f 82/82 81/81 83/83
f 82/82 83/83 76/76
f 81/81 77/77 84/84
f 74/74 82/82 76/76
f 82/82 74/74 77/77
f 85/85 86/86 87/87
f 86/86 85/85 88/88
f 603/603 86/86 88/88
f 86/86 603/603 604/604
f 87/87 605/605 85/85
f 606/606 85/85 605/605
f 92/92 602/602 75/75
f 93/93 94/94 88/88
f 95/95 96/96 97/97
f 607/607 608/608 609/609
f 100/100 92/92 101/101
f 102/102 92/92 100/100
f 102/102 100/100 97/97
f 610/610 102/102 611/611
f 610/610 92/92 102/102
f 101/101 92/92 75/75
f 76/76 101/101 75/75
f 602/602 92/92 610/610
f 603/603 94/94 612/612
f 613/613 606/606 609/609
f 606/606 613/613 85/85
f 613/613 105/105 85/85
f 88/88 94/94 603/603
f 88/88 85/85 105/105
f 105/105 93/93 88/88
f 97/97 100/100 95/95
f 608/608 613/613 609/609
f 611/611 102/102 97/97
f 84/84 80/80 106/106
f 80/80 84/84 77/77
f 109/109 107/107 108/108
f 107/107 109/109 110/110
f 113/113 111/111 112/112
f 111/111 113/113 114/114
f 115/115 614/614 615/615
f 614/614 115/115 116/116
f 117/117 116/116 115/115
f 116/116 117/117 108/108
f 110/110 616/616 107/107
f 616/616 110/110 617/617
f 120/120 618/618 619/619
f 122/122 123/123 620/620
f 125/125 127/127 128/128
f 127/127 125/125 126/126
f 129/129 126/126 615/615
f 126/126 130/130 127/127
f 130/130 126/126 129/129
f 123/123 132/132 133/133
f 132/132 123/123 131/131
f 123/123 135/135 131/131
f 135/135 123/123 134/134
f 137/137 136/136 621/621
f 136/136 137/137 138/138
f 133/133 622/622 120/120
f 622/622 133/133 132/132
f 620/620 123/123 133/133
f 112/112 52/52 113/113
f 139/139 135/135 128/128
f 140/140 136/136 138/138
f 136/136 140/140 130/130
f 129/129 615/615 136/136
f 621/621 136/136 623/623
f 123/123 122/122 134/134
f 52/52 624/624 113/113
f 623/623 625/625 621/621
f 133/133 619/619 620/620
f 133/133 120/120 619/619
f 122/122 620/620 617/617
f 109/109 117/117 134/134
f 115/115 126/126 117/117
f 109/109 122/122 110/110
f 617/617 110/110 122/122
f 134/134 117/117 125/125
f 125/125 117/117 126/126
f 126/126 115/115 615/615
f 122/122 109/109 134/134
f 108/108 117/117 109/109
f 626/626 627/627 628/628
f 629/629 630/630 628/628
f 630/630 631/631 628/628
f 631/631 626/626 628/628
f 627/627 632/632 628/628
f 144/144 142/142 143/143
f 142/142 144/144 145/145
f 633/633 634/634 142/142
f 634/634 633/633 146/146
f 147/147 143/143 635/635
f 143/143 147/147 144/144
f 149/149 636/636 148/148
f 636/636 149/149 150/150
f 151/151 637/637 638/638
f 637/637 151/151 152/152
f 150/150 638/638 636/636
f 638/638 150/150 151/151
f 153/153 148/148 639/639
f 148/148 153/153 640/640
f 641/641 639/639 642/642
f 639/639 641/641 643/643
f 152/152 635/635 637/637
f 635/635 152/152 147/147
f 140/140 127/127 130/130
f 127/127 140/140 644/644
f 135/135 645/645 131/131
f 645/645 135/135 139/139
f 135/135 125/125 128/128
f 125/125 135/135 134/134
f 127/127 646/646 128/128
f 646/646 127/127 644/644
f 131/131 645/645 132/132
f 130/130 129/129 136/136
f 219/219 263/263 160/160
f 263/263 219/219 264/264
f 219/219 155/155 218/218
f 155/155 219/219 160/160
f 217/217 283/283 161/161
f 283/283 217/217 284/284
f 159/159 156/156 162/162
f 164/164 265/265 159/159
f 265/265 164/164 268/268
f 294/294 161/161 283/283
f 161/161 294/294 266/266
f 267/267 647/647 648/648
f 647/647 267/267 213/213
f 213/213 162/162 214/214
f 162/162 213/213 164/164
f 159/159 162/162 164/164
f 173/173 155/155 171/171
f 173/173 178/178 170/170
f 176/176 238/238 239/239
f 649/649 177/177 179/179
f 177/177 649/649 650/650
f 651/651 652/652 653/653
f 652/652 651/651 180/180
f 173/173 218/218 155/155
f 170/170 308/308 284/284
f 651/651 182/182 180/180
f 225/225 654/654 226/226
f 654/654 225/225 167/167
f 227/227 176/176 168/168
f 174/174 222/222 181/181
f 212/212 220/220 223/223
f 220/220 212/212 211/211
f 178/178 172/172 170/170
f 173/173 217/217 218/218
f 217/217 173/173 170/170
f 176/176 227/227 655/655
f 168/168 228/228 271/271
f 656/656 657/657 190/190
f 189/189 187/187 224/224
f 187/187 189/189 188/188
f 232/232 231/231 234/234
f 189/189 169/169 188/188
f 190/190 188/188 169/169
f 169/169 189/189 211/211
f 188/188 156/156 187/187
f 162/162 156/156 188/188
f 253/253 177/177 254/254
f 177/177 253/253 259/259
f 658/658 180/180 255/255
f 180/180 658/658 652/652
f 256/256 195/195 193/193
f 195/195 256/256 257/257
f 180/180 182/182 260/260
f 259/259 183/183 179/179
f 183/183 259/259 261/261
f 257/257 196/196 195/195
f 196/196 257/257 258/258
f 197/197 208/208 199/199
f 659/659 194/194 203/203
f 207/207 206/206 201/201
f 201/201 195/195 198/198
f 193/193 203/203 194/194
f 193/193 195/195 201/201
f 207/207 199/199 208/208
f 200/200 197/197 199/199
f 192/192 194/194 659/659
f 198/198 195/195 196/196
f 196/196 200/200 198/198
f 197/197 200/200 660/660
f 200/200 196/196 191/191
f 198/198 200/200 199/199
f 660/660 200/200 191/191
f 273/273 274/274 168/168
f 359/359 360/360 228/228
f 182/182 651/651 661/661
f 662/662 663/663 212/212
f 205/205 201/201 206/206
f 201/201 202/202 193/193
f 203/203 193/193 202/202
f 175/175 649/649 179/179
f 664/664 182/182 661/661
f 182/182 664/664 185/185
f 179/179 183/183 175/175
f 184/184 185/185 664/664
f 185/185 184/184 183/183
f 175/175 183/183 184/184
f 167/167 665/665 654/654
f 665/665 167/167 229/229
f 202/202 204/204 203/203
f 209/209 203/203 204/204
f 201/201 205/205 202/202
f 204/204 202/202 205/205
f 199/199 207/207 198/198
f 198/198 207/207 201/201
f 203/203 209/209 659/659
f 208/208 197/197 666/666
f 212/212 222/222 667/667
f 222/222 212/212 223/223
f 169/169 211/211 212/212
f 668/668 169/169 212/212
f 669/669 190/190 169/169
f 188/188 190/190 162/162
f 162/162 190/190 214/214
f 170/170 172/172 308/308
f 228/228 168/168 359/359
f 284/284 217/217 170/170
f 268/268 213/213 267/267
f 213/213 268/268 164/164
f 647/647 214/214 657/657
f 214/214 647/647 213/213
f 214/214 190/190 657/657
f 264/264 154/154 216/216
f 154/154 264/264 266/266
f 219/219 217/217 161/161
f 217/217 219/219 218/218
f 168/168 274/274 359/359
f 232/232 234/234 233/233
f 236/236 235/235 230/230
f 235/235 231/231 230/230
f 231/231 235/235 234/234
f 225/225 236/236 167/167
f 167/167 236/236 229/229
f 670/670 172/172 178/178
f 233/233 671/671 232/232
f 189/189 220/220 211/211
f 220/220 189/189 224/224
f 270/270 672/672 673/673
f 672/672 270/270 269/269
f 271/271 674/674 675/675
f 674/674 271/271 676/676
f 228/228 676/676 271/271
f 676/676 228/228 677/677
f 677/677 360/360 678/678
f 360/360 677/677 228/228
f 275/275 238/238 165/165
f 238/238 275/275 276/276
f 679/679 229/229 166/166
f 229/229 679/679 665/665
f 166/166 230/230 186/186
f 230/230 166/166 229/229
f 186/186 231/231 210/210
f 231/231 186/186 230/230
f 210/210 232/232 221/221
f 232/232 210/210 231/231
f 221/221 232/232 671/671
f 671/671 233/233 680/680
f 680/680 234/234 681/681
f 234/234 680/680 233/233
f 681/681 235/235 682/682
f 235/235 681/681 234/234
f 682/682 235/235 236/236
f 270/270 683/683 272/272
f 683/683 270/270 684/684
f 176/176 237/237 168/168
f 168/168 237/237 273/273
f 239/239 276/276 384/384
f 276/276 239/239 238/238
f 237/237 384/384 273/273
f 384/384 237/237 239/239
f 176/176 239/239 237/237
f 252/252 248/248 244/244
f 248/248 252/252 251/251
f 251/251 246/246 240/240
f 246/246 251/251 245/245
f 249/249 244/244 248/248
f 244/244 249/249 243/243
f 250/250 242/242 241/241
f 242/242 250/250 247/247
f 241/241 243/243 249/249
f 243/243 241/241 242/242
f 240/240 685/685 686/686
f 685/685 240/240 246/246
f 251/251 252/252 245/245
f 687/687 688/688 689/689
f 690/690 691/691 692/692
f 688/688 691/691 690/690
f 687/687 691/691 688/688
f 687/687 693/693 691/691
f 254/254 191/191 253/253
f 191/191 254/254 660/660
f 255/255 192/192 658/658
f 192/192 255/255 194/194
f 260/260 257/257 256/256
f 257/257 260/260 262/262
f 193/193 255/255 256/256
f 255/255 193/193 194/194
f 191/191 258/258 253/253
f 258/258 191/191 196/196
f 257/257 261/261 258/258
f 261/261 257/257 262/262
f 253/253 261/261 259/259
f 261/261 253/253 258/258
f 182/182 262/262 260/260
f 262/262 182/182 185/185
f 262/262 183/183 261/261
f 183/183 262/262 185/185
f 177/177 259/259 179/179
f 256/256 180/180 260/260
f 180/180 256/256 255/255
f 216/216 263/263 264/264
f 263/263 216/216 157/157
f 268/268 158/158 265/265
f 158/158 268/268 163/163
f 390/390 266/266 294/294
f 266/266 390/390 154/154
f 648/648 215/215 267/267
f 215/215 648/648 694/694
f 267/267 163/163 268/268
f 163/163 267/267 215/215
f 219/219 266/266 264/264
f 266/266 219/219 161/161
f 225/225 269/269 270/270
f 269/269 225/225 226/226
f 675/675 227/227 271/271
f 227/227 675/675 655/655
f 270/270 272/272 225/225
f 682/682 272/272 683/683
f 682/682 236/236 272/272
f 168/168 271/271 227/227
f 229/229 236/236 230/230
f 225/225 272/272 236/236
f 695/695 696/696 697/697
f 696/696 698/698 699/699
f 695/695 698/698 696/696
f 695/695 700/700 698/698
f 279/279 277/277 278/278
f 277/277 279/279 280/280
f 279/279 281/281 280/280
f 281/281 279/279 282/282
f 285/285 283/283 284/284
f 283/283 285/285 286/286
f 287/287 288/288 289/289
f 292/292 290/290 291/291
f 290/290 292/292 287/287
f 294/294 286/286 293/293
f 286/286 294/294 283/283
f 296/296 701/701 295/295
f 701/701 296/296 702/702
f 295/295 288/288 292/292
f 288/288 295/295 297/297
f 287/287 292/292 288/288
f 298/298 299/299 281/281
f 298/298 300/300 301/301
f 302/302 303/303 304/304
f 703/703 305/305 306/306
f 306/306 704/704 703/703
f 705/705 706/706 707/707
f 707/707 307/307 705/705
f 298/298 281/281 282/282
f 300/300 284/284 308/308
f 705/705 307/307 309/309
f 310/310 311/311 708/708
f 708/708 312/312 310/310
f 313/313 314/314 302/302
f 315/315 316/316 317/317
f 320/320 318/318 319/319
f 318/318 320/320 321/321
f 301/301 300/300 322/322
f 298/298 285/285 300/300
f 285/285 298/298 282/282
f 302/302 709/709 313/313
f 314/314 323/323 324/324
f 710/710 325/325 711/711
f 328/328 326/326 327/327
f 326/326 328/328 329/329
f 330/330 331/331 332/332
f 328/328 327/327 333/333
f 325/325 333/333 327/327
f 333/333 319/319 328/328
f 327/327 326/326 289/289
f 288/288 327/327 289/289
f 335/335 306/306 334/334
f 306/306 335/335 336/336
f 712/712 307/307 707/707
f 307/307 712/712 337/337
f 340/340 338/338 339/339
f 338/338 340/340 341/341
f 307/307 342/342 309/309
f 334/334 343/343 344/344
f 343/343 334/334 305/305
f 339/339 345/345 346/346
f 345/345 339/339 338/338
f 347/347 348/348 349/349
f 713/713 350/350 351/351
f 352/352 353/353 354/354
f 353/353 355/355 338/338
f 341/341 351/351 350/350
f 341/341 353/353 338/338
f 352/352 349/349 348/348
f 356/356 348/348 347/347
f 357/357 713/713 351/351
f 355/355 345/345 338/338
f 345/345 355/355 356/356
f 347/347 714/714 356/356
f 356/356 358/358 345/345
f 355/355 348/348 356/356
f 714/714 358/358 356/356
f 273/273 314/314 274/274
f 359/359 324/324 360/360
f 309/309 715/715 705/705
f 716/716 320/320 717/717
f 361/361 354/354 353/353
f 353/353 341/341 362/362
f 350/350 362/362 341/341
f 363/363 305/305 703/703
f 718/718 715/715 309/309
f 309/309 364/364 718/718
f 305/305 363/363 343/343
f 365/365 718/718 364/364
f 364/364 343/343 365/365
f 363/363 365/365 343/343
f 312/312 719/719 366/366
f 719/719 312/312 708/708
f 362/362 350/350 367/367
f 368/368 367/367 350/350
f 353/353 362/362 361/361
f 367/367 361/361 362/362
f 348/348 355/355 352/352
f 355/355 353/353 352/352
f 350/350 713/713 368/368
f 349/349 720/720 347/347
f 320/320 317/317 321/321
f 317/317 320/320 721/721
f 333/333 320/320 319/319
f 722/722 320/320 333/333
f 723/723 333/333 325/325
f 327/327 288/288 325/325
f 288/288 297/297 325/325
f 300/300 308/308 322/322
f 324/324 359/359 314/314
f 284/284 300/300 285/285
f 291/291 295/295 292/292
f 295/295 291/291 296/296
f 701/701 297/297 295/295
f 297/297 701/701 711/711
f 297/297 711/711 325/325
f 278/278 369/369 293/293
f 369/369 278/278 370/370
f 279/279 285/285 282/282
f 285/285 279/279 286/286
f 314/314 359/359 274/274
f 330/330 371/371 331/331
f 372/372 373/373 374/374
f 374/374 332/332 331/331
f 332/332 374/374 373/373
f 310/310 312/312 372/372
f 312/312 366/366 372/372
f 724/724 301/301 322/322
f 371/371 330/330 725/725
f 328/328 318/318 329/329
f 318/318 328/328 319/319
f 376/376 726/726 375/375
f 726/726 376/376 727/727
f 323/323 728/728 729/729
f 728/728 323/323 730/730
f 324/324 729/729 731/731
f 729/729 324/324 323/323
f 731/731 360/360 324/324
f 360/360 731/731 678/678
f 275/275 304/304 276/276
f 304/304 275/275 377/377
f 732/732 366/366 719/719
f 366/366 732/732 378/378
f 378/378 373/373 366/366
f 373/373 378/378 379/379
f 379/379 332/332 373/373
f 332/332 379/379 380/380
f 380/380 330/330 332/332
f 330/330 380/380 381/381
f 381/381 725/725 330/330
f 725/725 733/733 371/371
f 733/733 331/331 371/371
f 331/331 733/733 734/734
f 734/734 374/374 331/331
f 374/374 734/734 735/735
f 735/735 372/372 374/374
f 376/376 736/736 737/737
f 736/736 376/376 382/382
f 302/302 314/314 383/383
f 314/314 273/273 383/383
f 303/303 276/276 304/304
f 276/276 303/303 384/384
f 383/383 384/384 303/303
f 384/384 383/383 273/273
f 302/302 383/383 303/303
f 336/336 358/358 714/714
f 358/358 336/336 335/335
f 337/337 357/357 351/351
f 357/357 337/337 712/712
f 342/342 339/339 385/385
f 339/339 342/342 340/340
f 341/341 337/337 351/351
f 337/337 341/341 340/340
f 358/358 346/346 345/345
f 346/346 358/358 335/335
f 339/339 344/344 385/385
f 344/344 339/339 346/346
f 335/335 344/344 346/346
f 344/344 335/335 334/334
f 309/309 385/385 364/364
f 385/385 309/309 342/342
f 385/385 343/343 364/364
f 343/343 385/385 344/344
f 306/306 305/305 334/334
f 340/340 307/307 337/337
f 307/307 340/340 342/342
f 370/370 277/277 386/386
f 277/277 370/370 278/278
f 291/291 387/387 388/388
f 387/387 291/291 290/290
f 390/390 293/293 369/369
f 293/293 390/390 294/294
f 702/702 389/389 738/738
f 389/389 702/702 296/296
f 296/296 388/388 389/389
f 388/388 296/296 291/291
f 279/279 293/293 286/286
f 293/293 279/279 278/278
f 310/310 375/375 311/311
f 375/375 310/310 376/376
f 730/730 313/313 709/709
f 313/313 730/730 323/323
f 376/376 310/310 382/382
f 735/735 736/736 382/382
f 735/735 382/382 372/372
f 314/314 313/313 323/323
f 366/366 373/373 372/372
f 310/310 372/372 382/382
f 398/398 402/402 399/399
f 402/402 398/398 420/420
f 424/424 423/423 408/408
f 421/421 397/397 422/422
f 401/401 406/406 420/420
f 420/420 398/398 401/401
f 411/411 403/403 739/739
f 739/739 399/399 402/402
f 412/412 406/406 421/421
f 405/405 423/423 404/404
f 423/423 405/405 422/422
f 402/402 410/410 411/411
f 410/410 402/402 420/420
f 406/406 410/410 420/420
f 410/410 406/406 412/412
f 421/421 407/407 412/412
f 739/739 402/402 411/411
f 417/417 407/407 405/405
f 407/407 417/417 416/416
f 413/413 411/411 410/410
f 411/411 413/413 415/415
f 412/412 413/413 410/410
f 413/413 412/412 414/414
f 419/419 391/391 394/394
f 391/391 419/419 415/415
f 740/740 418/418 404/404
f 418/418 740/740 741/741
f 405/405 418/418 417/417
f 418/418 405/405 404/404
f 407/407 414/414 412/412
f 395/395 416/416 393/393
f 416/416 395/395 414/414
f 416/416 414/414 407/407
f 403/403 411/411 415/415
f 414/414 395/395 413/413
f 391/391 413/413 395/395
f 415/415 419/419 403/403
f 400/400 445/445 449/449
f 445/445 400/400 408/408
f 415/415 413/413 391/391
f 417/417 393/393 416/416
f 393/393 417/417 396/396
f 396/396 417/417 418/418
f 418/418 392/392 396/396
f 742/742 418/418 741/741
f 418/418 742/742 392/392
f 397/397 446/446 409/409
f 446/446 397/397 444/444
f 421/421 405/405 407/407
f 397/397 406/406 401/401
f 424/424 740/740 404/404
f 422/422 405/405 421/421
f 421/421 406/406 397/397
f 408/408 422/422 409/409
f 422/422 397/397 409/409
f 424/424 404/404 423/423
f 422/422 408/408 423/423
f 399/399 739/739 743/743
f 400/400 424/424 408/408
f 438/438 436/436 437/437
f 440/440 432/432 439/439
f 441/441 428/428 442/442
f 744/744 431/431 440/440
f 439/439 433/433 442/442
f 441/441 435/435 438/438
f 438/438 425/425 426/426
f 425/425 438/438 437/437
f 431/431 744/744 745/745
f 440/440 429/429 427/427
f 429/429 440/440 439/439
f 433/433 439/439 432/432
f 435/435 441/441 434/434
f 441/441 433/433 434/434
f 433/433 441/441 442/442
f 744/744 427/427 746/746
f 427/427 744/744 440/440
f 432/432 440/440 431/431
f 439/439 430/430 429/429
f 430/430 439/439 442/442
f 442/442 428/428 430/430
f 441/441 426/426 428/428
f 426/426 441/441 438/438
f 436/436 438/438 435/435
f 401/401 444/444 397/397
f 444/444 401/401 443/443
f 398/398 443/443 401/401
f 443/443 398/398 450/450
f 447/447 408/408 409/409
f 408/408 447/447 445/445
f 446/446 447/447 409/409
f 747/747 399/399 743/743
f 399/399 747/747 448/448
f 399/399 450/450 398/398
f 450/450 399/399 448/448
f 452/452 453/453 451/451
f 456/456 457/457 455/455
f 458/458 460/460 455/455
f 460/460 458/458 459/459
f 453/453 462/462 451/451
f 462/462 453/453 461/461
f 456/456 461/461 463/463
f 461/461 456/456 460/460
f 460/460 456/456 455/455
f 465/465 457/457 464/464
f 464/464 457/457 456/456
f 456/456 466/466 464/464
f 463/463 466/466 456/456
f 461/461 459/459 462/462
f 459/459 461/461 460/460
f 463/463 453/453 454/454
f 453/453 463/463 461/461
f 454/454 466/466 463/463
f 468/468 467/467 452/452
f 451/451 468/468 452/452
f 468/468 451/451 469/469
f 470/470 459/459 458/458
f 459/459 470/470 471/471
f 452/452 569/569 554/554
f 569/569 452/452 467/467
f 472/472 451/451 462/462
f 451/451 472/472 469/469
f 471/471 462/462 459/459
f 462/462 471/471 472/472
f 473/473 474/474 475/475
f 475/475 476/476 473/473
f 477/477 478/478 479/479
f 480/480 481/481 482/482
f 483/483 476/476 484/484
f 476/476 483/483 473/473
f 485/485 748/748 486/486
f 748/748 475/475 474/474
f 487/487 480/480 484/484
f 488/488 489/489 479/479
f 479/479 481/481 488/488
f 475/475 485/485 490/490
f 490/490 476/476 475/475
f 484/484 476/476 490/490
f 490/490 487/487 484/484
f 480/480 487/487 491/491
f 748/748 485/485 475/475
f 492/492 488/488 491/491
f 491/491 493/493 492/492
f 494/494 490/490 485/485
f 485/485 495/495 494/494
f 487/487 490/490 494/494
f 494/494 496/496 487/487
f 497/497 498/498 499/499
f 499/499 495/495 497/497
f 749/749 489/489 500/500
f 500/500 750/750 749/749
f 488/488 492/492 500/500
f 500/500 489/489 488/488
f 491/491 487/487 496/496
f 501/501 502/502 493/493
f 493/493 496/496 501/501
f 493/493 491/491 496/496
f 486/486 495/495 485/485
f 496/496 494/494 501/501
f 499/499 501/501 494/494
f 495/495 486/486 497/497
f 503/503 505/505 478/478
f 505/505 503/503 504/504
f 495/495 499/499 494/494
f 492/492 493/493 502/502
f 502/502 506/506 492/492
f 506/506 500/500 492/492
f 500/500 506/506 507/507
f 751/751 750/750 500/500
f 500/500 507/507 751/751
f 482/482 509/509 510/510
f 509/509 482/482 508/508
f 480/480 491/491 488/488
f 482/482 483/483 484/484
f 477/477 489/489 749/749
f 481/481 480/480 488/488
f 480/480 482/482 484/484
f 478/478 508/508 481/481
f 481/481 508/508 482/482
f 477/477 479/479 489/489
f 481/481 479/479 478/478
f 474/474 752/752 748/748
f 503/503 478/478 477/477
f 511/511 512/512 513/513
f 514/514 515/515 516/516
f 517/517 518/518 519/519
f 753/753 514/514 520/520
f 515/515 518/518 521/521
f 517/517 511/511 522/522
f 511/511 524/524 512/512
f 524/524 511/511 523/523
f 520/520 754/754 753/753
f 514/514 526/526 515/515
f 526/526 514/514 525/525
f 521/521 516/516 515/515
f 522/522 527/527 517/517
f 517/517 521/521 518/518
f 521/521 517/517 527/527
f 753/753 525/525 514/514
f 525/525 753/753 755/755
f 516/516 520/520 514/514
f 515/515 528/528 518/518
f 528/528 515/515 526/526
f 518/518 528/528 519/519
f 517/517 523/523 511/511
f 523/523 517/517 519/519
f 513/513 522/522 511/511
f 483/483 510/510 529/529
f 510/510 483/483 482/482
f 473/473 529/529 530/530
f 529/529 473/473 483/483
f 531/531 478/478 505/505
f 478/478 531/531 508/508
f 509/509 508/508 531/531
f 756/756 474/474 532/532
f 474/474 756/756 752/752
f 474/474 530/530 532/532
f 530/530 474/474 473/473
f 533/533 534/534 535/535
f 536/536 537/537 538/538
f 540/540 541/541 539/539
f 541/541 540/540 537/537
f 535/535 543/543 542/542
f 543/543 535/535 534/534
f 536/536 542/542 541/541
f 542/542 536/536 544/544
f 541/541 537/537 536/536
f 545/545 546/546 538/538
f 546/546 536/536 538/538
f 536/536 546/546 547/547
f 544/544 536/536 547/547
f 542/542 539/539 541/541
f 539/539 542/542 543/543
f 544/544 535/535 542/542
f 535/535 544/544 548/548
f 548/548 544/544 547/547
f 549/549 533/533 550/550
f 534/534 549/549 551/551
f 549/549 534/534 533/533
f 553/553 539/539 552/552
f 539/539 553/553 540/540
f 533/533 757/757 550/550
f 757/757 533/533 758/758
f 555/555 534/534 551/551
f 534/534 555/555 543/543
f 552/552 543/543 555/555
f 543/543 552/552 539/539
f 558/558 556/556 557/557
f 556/556 558/558 559/559
f 557/557 560/560 561/561
f 560/560 557/557 562/562
f 564/564 559/559 563/563
f 559/559 564/564 556/556
f 567/567 565/565 566/566
f 565/565 567/567 568/568
f 568/568 563/563 565/565
f 563/563 568/568 564/564
f 562/562 759/759 560/560
f 759/759 562/562 760/760
f 557/557 561/561 558/558
f 761/761 762/762 763/763
f 762/762 764/764 765/765
f 762/762 766/766 764/764
f 761/761 766/766 762/762
f 761/761 767/767 766/766
f 768/768 769/769 770/770
f 769/769 771/771 772/772
f 768/768 771/771 769/769
f 768/768 773/773 771/771
