# MOD converted: e_w_costume_rain_glove.mod
# 302 verts, 33 faces

v 92.722916 4.593988 44.163399
v 96.533218 6.653800 42.148735
v 92.630455 -0.210132 45.711128
v 100.089691 4.989554 43.801430
v 96.407318 -2.804361 45.439140
v 100.274727 -0.921507 44.442051
v 89.696030 -5.364450 53.973568
v 93.728653 6.965605 49.381706
v 92.452339 -4.421676 52.261948
v 91.495926 -4.474399 51.973183
v 87.087883 -7.557372 50.808372
v 89.501762 -6.401242 49.948025
v 85.314011 -8.478552 47.093922
v 87.398636 -7.541413 46.927719
v 95.094810 7.248065 46.979248
v 90.760689 0.882486 47.136822
v 89.327148 -3.456122 48.965054
v 87.850983 -4.984597 50.755802
v 85.880295 -6.572155 54.084770
v 94.412209 -4.375071 46.207764
v 93.534348 -5.941977 49.641487
v 95.307533 -4.595801 51.490402
v 86.833366 -9.555913 49.052124
v 89.656921 -8.652048 52.917458
v 91.590439 1.228629 54.778999
v 94.851212 1.330216 45.626385
v 91.486519 6.778908 57.587502
v 91.726944 -4.389165 55.908798
v 89.431686 -4.368735 56.493622
v 89.337334 1.366742 58.163303
v 91.826996 1.361245 60.960842
v 88.589241 -4.273379 58.741096
v 87.373009 -4.270163 59.487343
v 87.226784 1.278778 61.745514
v 88.409294 1.243074 52.129505
v 90.956360 7.037823 54.472095
v 94.778877 -1.408113 57.921295
v 91.862488 -1.777894 61.387772
v 88.474648 -2.080194 54.260403
v 94.400986 4.429472 57.870934
v 91.687943 3.879095 61.314335
v 88.487328 3.488031 52.761154
v 91.666885 -1.527909 56.205807
v 89.383728 -1.803554 59.174156
v 87.271225 -2.007279 52.566559
v 91.386894 4.168917 56.267918
v 89.261719 3.766784 59.072067
v 87.333443 3.460966 59.722389
v 88.659874 6.094163 57.624199
v 87.528992 6.044117 55.096230
v 89.630753 6.575943 56.816566
v 91.523483 6.580248 56.630119
v 89.364250 1.131956 58.299801
v 91.853935 1.126464 60.151299
v 86.597015 0.887870 62.566994
v 87.972466 0.852170 58.139244
v 91.878189 -1.458937 62.425049
v 88.030563 -1.494304 57.248604
v 91.767197 4.296409 60.078926
v 88.804802 4.076354 56.423714
v 89.399391 -1.484522 60.000977
v 86.644707 -1.421389 55.529175
v 89.636360 4.093223 58.007618
v 87.633446 3.998612 42.045181
v 91.696457 -0.674832 44.000092
v 96.237846 -3.802348 40.378853
v 97.728615 -3.774076 42.367943
v 91.820389 5.138273 38.519432
v 93.192665 -0.665656 42.475513
v 102.684631 -1.382730 46.006775
v 100.932167 -1.460847 46.304382
v 100.721367 5.547749 42.821239
v 102.609322 5.695732 38.854923
v 93.249489 5.278946 44.439377
v 96.384178 7.651737 40.837730
v 98.039909 7.836908 47.636925
v 100.381744 2.123987 46.135811
v 101.152634 5.358422 42.833176
v 102.694427 5.515609 41.031654
v 103.465317 2.438360 42.532768
v 102.694427 -0.796075 45.835403
v 101.152634 -0.953262 48.297798
v 101.800606 2.092532 46.796692
v 102.571503 5.326967 43.494057
v 104.113289 5.484154 41.692535
v 104.884186 2.406904 43.193649
v 104.113289 -0.827531 46.496284
v 102.571503 -0.984717 47.121841
v 101.030739 3.398231 46.802082
v 101.194946 4.087204 47.172615
v 101.990440 4.069567 47.492367
v 101.826241 3.380595 47.843712
v 100.704056 3.829134 47.523960
v 100.868263 4.518106 47.894485
v 101.663765 4.500471 48.214237
v 101.499550 3.811498 -45.711128
v 100.089691 4.989556 -46.927719
v 95.094803 7.248065 -44.163429
v 96.533310 6.653798 -53.973568
v 93.728653 6.965605 -52.129505
v 90.956360 7.037823 -43.801430
v 96.407318 -2.804362 -42.148735
v 92.630455 -0.210134 -44.442051
v 89.696030 -5.364450 -45.626385
v 91.486519 6.778908 -46.979252
v 90.760689 0.882487 -47.136818
v 89.327148 -3.456123 -48.965054
v 87.850983 -4.984597 -50.808372
v 89.501762 -6.401242 -51.973183
v 87.087883 -7.557372 -50.755806
v 85.880295 -6.572157 -49.381702
v 92.452339 -4.421676 -47.093922
v 87.398636 -7.541413 -49.948025
v 85.314011 -8.478553 -52.917458
v 91.590439 1.228629 -52.761150
v 91.666878 -1.527909 -54.260399
v 94.400986 4.429472 -54.778996
v 94.851212 1.330216 -49.641483
v 95.307533 -4.595801 -46.207760
v 93.534348 -5.941977 -54.084770
v 94.412209 -4.375071 -45.439140
v 100.274727 -0.921505 -52.261948
v 91.495926 -4.474399 -51.490402
v 86.833366 -9.555912 -49.052128
v 89.656921 -8.652048 -58.741112
v 87.373001 -4.270163 -59.174164
v 87.271217 -2.007279 -60.960857
v 88.589233 -4.273380 -61.387783
v 88.474640 -2.080194 -54.472095
v 94.778877 -1.408113 -42.422836
v 92.722916 4.593987 -52.566559
v 91.386894 4.168918 -57.587505
v 91.726936 -4.389166 -55.908798
v 89.431686 -4.368735 -56.205811
v 89.383728 -1.803554 -59.072063
v 87.333443 3.460966 -61.314331
v 88.487328 3.488031 -59.487343
v 87.226784 1.278777 -61.745510
v 88.409294 1.243074 -56.493622
v 89.337334 1.366741 -56.267914
v 89.261719 3.766784 -57.921299
v 91.862480 -1.777894 -58.163303
v 91.827011 1.361245 -57.870930
v 91.687943 3.879095 -58.299805
v 91.853935 1.126464 -58.139248
v 91.878189 -1.458938 -62.566994
v 87.972466 0.852170 -62.425053
v 88.030563 -1.494304 -55.096218
v 89.630753 6.575943 -56.816559
v 91.523483 6.580248 -57.248600
v 91.767197 4.296409 -57.624184
v 87.528999 6.044118 -59.722374
v 88.659882 6.094164 -60.078918
v 88.804810 4.076355 -56.630119
v 89.364250 1.131956 -56.423714
v 89.399391 -1.484523 -60.151299
v 86.597015 0.887869 -60.000980
v 86.644699 -1.421390 -55.529171
v 89.636360 4.093224 -58.007607
v 87.633446 3.998612 42.148735
v 92.630455 -0.210132 44.442051
v 89.696030 -5.364450 49.381706
v 92.452339 -4.421676 47.093922
v 87.398636 -7.541413 49.948025
v 85.314011 -8.478552 50.808372
v 89.501762 -6.401242 51.973183
v 87.087883 -7.557372 51.973183
v 87.087883 -7.557372 50.755802
v 85.880295 -6.572155 45.626385
v 91.486519 6.778908 52.129505
v 90.956360 7.037823 52.261948
v 91.495926 -4.474399 55.908798
v 89.431686 -4.368735 58.741096
v 87.373009 -4.270163 58.741096
v 87.373009 -4.270163 59.174156
v 87.271225 -2.007279 59.487343
v 87.226784 1.278778 59.072067
v 87.333443 3.460966 42.422836
v 92.722916 4.593988 56.205807
v 89.383728 -1.803554 59.174156
v 87.271225 -2.007279 57.921295
v 91.862488 -1.777894 61.387772
v 88.474648 -2.080194 54.472095
v 94.778877 -1.408113 52.761154
v 91.666885 -1.527909 56.267918
v 89.261719 3.766784 59.072067
v 87.333443 3.460966 57.870934
v 91.687943 3.879095 61.314335
v 88.487328 3.488031 54.260403
v 94.400986 4.429472 52.566559
v 91.386894 4.168917 61.745514
v 88.409294 1.243074 59.487343
v 87.226784 1.278778 58.163303
v 91.826996 1.361245 56.493622
v 89.337334 1.366742 54.778999
v 94.851212 1.330216 52.917458
v 91.590439 1.228629 60.151299
v 86.597015 0.887870 60.000977
v 86.644707 -1.421389 55.096230
v 89.630753 6.575943 57.624199
v 87.528992 6.044117 57.624199
v 87.528992 6.044117 58.007618
v 87.633446 3.998612 62.425049
v 88.030563 -1.494304 60.000977
v 86.644707 -1.421389 58.139244
v 91.878189 -1.458937 56.423714
v 89.399391 -1.484522 60.078926
v 88.804802 4.076354 58.007618
v 87.633446 3.998612 57.248604
v 91.767197 4.296409 55.529175
v 89.636360 4.093223 56.630119
v 89.364250 1.131956 60.151299
v 86.597015 0.887870 58.299801
v 91.853935 1.126464 62.566994
v 87.972466 0.852170 42.367943
v 91.820389 5.138273 38.854923
v 93.249489 5.278946 38.854923
v 93.249489 5.278946 40.378853
v 97.728615 -3.774076 38.519432
v 93.192665 -0.665656 42.821239
v 102.609322 5.695732 42.475513
v 102.684631 -1.382730 40.837730
v 98.039909 7.836908 46.304382
v 100.721367 5.547749 44.000092
v 96.237846 -3.802348 46.006775
v 100.932167 -1.460847 42.367943
v 91.820389 5.138273 42.045181
v 91.696457 -0.674832 44.439377
v 96.384178 7.651737 48.297798
v 101.800606 2.092532 47.636925
v 100.381744 2.123987 42.833176
v 102.694427 5.515609 47.636925
v 100.381744 2.123987 46.135811
v 101.152634 5.358422 42.532768
v 102.694427 -0.796075 45.835403
v 101.152634 -0.953262 41.031654
v 103.465317 2.438360 41.692535
v 104.884186 2.406904 46.496284
v 102.571503 -0.984717 43.193649
v 104.113289 -0.827531 46.796692
v 102.571503 5.326967 48.297798
v 101.800606 2.092532 43.494057
v 104.113289 5.484154 47.523960
v 100.868263 4.518106 47.894485
v 101.663765 4.500471 47.172615
v 101.990440 4.069567 47.894485
v 101.663765 4.500471 -42.148735
v 92.630455 -0.210134 -44.442051
v 89.696030 -5.364450 -49.381702
v 92.452339 -4.421676 -47.093922
v 87.398636 -7.541413 -49.948025
v 85.314011 -8.478553 -50.808372
v 89.501762 -6.401242 -51.973183
v 87.087883 -7.557372 -51.973183
v 87.087883 -7.557372 -50.755806
v 85.880295 -6.572157 -45.626385
v 91.486519 6.778908 -52.129505
v 90.956360 7.037823 -52.261948
v 91.495926 -4.474399 -55.908798
v 89.431686 -4.368735 -58.741112
v 87.373001 -4.270163 -58.741112
v 87.373001 -4.270163 -59.174164
v 87.271217 -2.007279 -59.487343
v 87.226784 1.278777 -59.072063
v 87.333443 3.460966 -42.422836
v 92.722916 4.593987 -56.205811
v 89.383728 -1.803554 -57.921299
v 91.862480 -1.777894 -59.174164
v 87.271217 -2.007279 -61.387783
v 88.474640 -2.080194 -54.472095
v 94.778877 -1.408113 -52.761150
v 91.666878 -1.527909 -56.267914
v 89.261719 3.766784 -57.870930
v 91.687943 3.879095 -59.072063
v 87.333443 3.460966 -61.314331
v 88.487328 3.488031 -54.260399
v 94.400986 4.429472 -52.566559
v 91.386894 4.168918 -61.745510
v 88.409294 1.243074 -58.163303
v 91.827011 1.361245 -59.487343
v 87.226784 1.278777 -56.493622
v 89.337334 1.366741 -54.778996
v 94.851212 1.330216 -52.917458
v 91.590439 1.228629 -60.151299
v 86.597015 0.887869 -60.000980
v 86.644699 -1.421390 -55.096218
v 89.630753 6.575943 -57.624184
v 87.528999 6.044118 -57.624184
v 87.528999 6.044118 -58.007607
v 87.633446 3.998612 -62.425053
v 88.030563 -1.494304 -58.139248
v 91.878189 -1.458938 -60.000980
v 86.644699 -1.421390 -56.423714
v 89.399391 -1.484523 -60.078918
v 88.804810 4.076355 -57.248600
v 91.767197 4.296409 -58.007607
v 87.633446 3.998612 -55.529171
v 89.636360 4.093224 -56.630119
v 89.364250 1.131956 -58.299805
v 91.853935 1.126464 -60.151299
v 86.597015 0.887869 -62.566994
v 87.972466 0.852170 0.058594

vt 0.054688 0.359375
vt 0.972656 0.933594
vt 0.972656 0.476562
vt 0.972656 0.785156
vt 0.972656 0.660156
vt 0.972656 0.957031
vt 0.863281 0.410156
vt 0.730469 0.769531
vt 0.359375 0.789062
vt 0.695312 0.808594
vt 0.449219 0.796875
vt 0.394531 0.894531
vt 0.480469 0.941406
vt 0.406250 0.371094
vt 0.882812 0.832031
vt 0.183594 0.867188
vt 0.304688 0.875000
vt 0.382812 0.859375
vt 0.449219 0.714844
vt 0.703125 0.851562
vt 0.832031 0.773438
vt 0.789062 0.921875
vt 0.660156 0.898438
vt 0.742188 0.695312
vt 0.183594 0.562500
vt 0.707031 0.277344
vt 0.871094 0.714844
vt 0.609375 0.773438
vt 0.605469 0.609375
vt 0.183594 0.546875
vt 0.605469 0.714844
vt 0.507812 0.730469
vt 0.457031 0.511719
vt 0.437500 0.535156
vt 0.492188 0.335938
vt 0.734375 0.636719
vt 0.703125 0.644531
vt 0.605469 0.656250
vt 0.500000 0.476562
vt 0.722656 0.480469
vt 0.617188 0.476562
vt 0.507812 0.699219
vt 0.257812 0.617188
vt 0.269531 0.671875
vt 0.445312 0.699219
vt 0.105469 0.617188
vt 0.117188 0.457031
vt 0.453125 0.390625
vt 0.562500 0.339844
vt 0.585938 0.347656
vt 0.660156 0.402344
vt 0.652344 0.609375
vt 0.187500 0.558594
vt 0.601562 0.515625
vt 0.191406 0.550781
vt 0.464844 0.628906
vt 0.597656 0.613281
vt 0.460938 0.460938
vt 0.632812 0.437500
vt 0.542969 0.617188
vt 0.253906 0.519531
vt 0.250000 0.632812
vt 0.105469 0.562500
vt 0.105469 0.007812
vt 0.187500 0.007812
vt 0.339844 0.117188
vt 0.339844 0.007812
vt 0.031250 0.117188
vt 0.187500 0.117188
vt 0.488281 0.007812
vt 0.488281 0.007812
vt 0.675781 0.117188
vt 0.675781 0.117188
vt 0.031250 0.007812
vt 0.812500 0.117188
vt 0.812500 0.156250
vt 0.386719 0.156250
vt 0.472656 0.156250
vt 0.558594 0.156250
vt 0.648438 0.156250
vt 0.734375 0.156250
vt 0.820312 0.195312
vt 0.386719 0.195312
vt 0.472656 0.195312
vt 0.558594 0.195312
vt 0.648438 0.195312
vt 0.734375 0.195312
vt 0.820312 0.230469
vt 0.570312 0.230469
vt 0.605469 0.230469
vt 0.644531 0.230469
vt 0.531250 0.269531
vt 0.570312 0.304688
vt 0.570312 0.304688
vt 0.531250 0.269531
vt 0.531250 0.476562
vt 0.972656 0.371094
vt 0.882812 0.359375
vt 0.972656 0.410156
vt 0.730469 0.335938
vt 0.734375 0.785156
vt 0.972656 0.933594
vt 0.972656 0.957031
vt 0.863281 0.277344
vt 0.871094 0.832031
vt 0.183594 0.867188
vt 0.304688 0.875000
vt 0.382812 0.796875
vt 0.394531 0.808594
vt 0.449219 0.859375
vt 0.449219 0.769531
vt 0.359375 0.941406
vt 0.406250 0.894531
vt 0.480469 0.695312
vt 0.183594 0.699219
vt 0.257812 0.476562
vt 0.722656 0.562500
vt 0.707031 0.773438
vt 0.789062 0.851562
vt 0.832031 0.714844
vt 0.703125 0.660156
vt 0.972656 0.789062
vt 0.695312 0.921875
vt 0.660156 0.898438
vt 0.742188 0.730469
vt 0.457031 0.671875
vt 0.445312 0.714844
vt 0.507812 0.656250
vt 0.500000 0.636719
vt 0.703125 0.941406
vt 0.054688 0.699219
vt 0.105469 0.714844
vt 0.609375 0.773438
vt 0.605469 0.617188
vt 0.269531 0.457031
vt 0.453125 0.476562
vt 0.507812 0.511719
vt 0.437500 0.535156
vt 0.492188 0.609375
vt 0.183594 0.617188
vt 0.117188 0.644531
vt 0.605469 0.546875
vt 0.605469 0.480469
vt 0.617188 0.558594
vt 0.601562 0.628906
vt 0.597656 0.550781
vt 0.464844 0.613281
vt 0.460938 0.347656
vt 0.660156 0.402344
vt 0.652344 0.460938
vt 0.632812 0.339844
vt 0.585938 0.390625
vt 0.562500 0.437500
vt 0.542969 0.609375
vt 0.187500 0.617188
vt 0.253906 0.515625
vt 0.191406 0.519531
vt 0.250000 0.632812
vt 0.105469 0.562500
vt 0.105469 0.968750
vt 0.171875 0.976562
vt 0.316406 0.839844
vt 0.750000 0.964844
vt 0.761719 0.972656
vt 0.675781 0.867188
vt 0.718750 0.886719
vt 0.664062 0.937500
vt 0.617188 0.980469
vt 0.628906 0.843750
vt 0.039062 0.703125
vt 0.031250 0.707031
vt 0.335938 0.621094
vt 0.328125 0.765625
vt 0.527344 0.546875
vt 0.328125 0.539062
vt 0.273438 0.531250
vt 0.183594 0.542969
vt 0.125000 0.230469
vt 0.972656 0.414062
vt 0.128906 0.414062
vt 0.230469 0.488281
vt 0.132812 0.468750
vt 0.257812 0.503906
vt 0.023438 0.414062
vt 0.031250 0.414062
vt 0.128906 0.414062
vt 0.230469 0.488281
vt 0.132812 0.468750
vt 0.257812 0.503906
vt 0.023438 0.414062
vt 0.031250 0.468750
vt 0.257812 0.414062
vt 0.230469 0.488281
vt 0.132812 0.414062
vt 0.128906 0.503906
vt 0.023438 0.414062
vt 0.031250 0.546875
vt 0.402344 0.613281
vt 0.398438 0.644531
vt 0.042969 0.570312
vt 0.054688 0.363281
vt 0.515625 0.414062
vt 0.496094 0.468750
vt 0.257812 0.414062
vt 0.230469 0.488281
vt 0.132812 0.414062
vt 0.128906 0.468750
vt 0.257812 0.414062
vt 0.230469 0.488281
vt 0.132812 0.414062
vt 0.128906 0.414062
vt 0.128906 0.414062
vt 0.230469 0.488281
vt 0.132812 0.468750
vt 0.257812 0.007812
vt 0.964844 0.117188
vt 0.964844 0.398438
vt 0.277344 0.234375
vt 0.367188 0.289062
vt 0.277344 0.398438
vt 0.460938 0.285156
vt 0.460938 0.449219
vt 0.367188 0.398438
vt 0.460938 0.234375
vt 0.367188 0.285156
vt 0.460938 0.398438
vt 0.277344 0.289062
vt 0.277344 0.449219
vt 0.367188 0.195312
vt 0.906250 0.156250
vt 0.906250 0.910156
vt 0.601562 0.855469
vt 0.511719 0.910156
vt 0.542969 0.800781
vt 0.601562 0.800781
vt 0.542969 0.855469
vt 0.632812 0.261719
vt 0.250000 0.363281
vt 0.078125 0.363281
vt 0.195312 0.160156
vt 0.078125 0.261719
vt 0.023438 0.160156
vt 0.195312 0.269531
vt 0.605469 0.269531
vt 0.644531 0.230469
vt 0.492188 0.269531
vt 0.492188 0.968750
vt 0.171875 0.976562
vt 0.316406 0.839844
vt 0.750000 0.964844
vt 0.761719 0.972656
vt 0.675781 0.867188
vt 0.718750 0.886719
vt 0.664062 0.937500
vt 0.617188 0.980469
vt 0.628906 0.843750
vt 0.039062 0.703125
vt 0.031250 0.707031
vt 0.335938 0.621094
vt 0.328125 0.765625
vt 0.527344 0.546875
vt 0.328125 0.539062
vt 0.273438 0.531250
vt 0.183594 0.542969
vt 0.125000 0.230469
vt 0.972656 0.414062
vt 0.128906 0.488281
vt 0.132812 0.414062
vt 0.230469 0.468750
vt 0.257812 0.503906
vt 0.023438 0.414062
vt 0.031250 0.414062
vt 0.128906 0.488281
vt 0.132812 0.414062
vt 0.230469 0.468750
vt 0.257812 0.503906
vt 0.023438 0.414062
vt 0.031250 0.468750
vt 0.257812 0.488281
vt 0.132812 0.414062
vt 0.230469 0.414062
vt 0.128906 0.503906
vt 0.023438 0.414062
vt 0.031250 0.546875
vt 0.402344 0.613281
vt 0.398438 0.644531
vt 0.042969 0.570312
vt 0.054688 0.363281
vt 0.515625 0.414062
vt 0.496094 0.468750
vt 0.257812 0.488281
vt 0.132812 0.414062
vt 0.230469 0.414062
vt 0.128906 0.468750
vt 0.257812 0.488281
vt 0.132812 0.414062
vt 0.230469 0.414062
vt 0.128906 0.414062
vt 0.128906 0.488281
vt 0.132812 0.414062
vt 0.230469 0.468750
vt 0.257812 1.000000

f 84/84 77/77 83/83
f 77/77 84/84 78/78
f 85/85 78/78 84/84
f 78/78 85/85 79/79
f 86/86 79/79 85/85
f 79/79 86/86 80/80
f 87/87 80/80 86/86
f 80/80 87/87 81/81
f 88/88 81/81 87/87
f 81/81 88/88 82/82
f 230/230 82/82 88/88
f 82/82 230/230 231/231
f 95/95 93/93 96/96
f 93/93 95/95 94/94
f 244/244 89/89 93/93
f 89/89 244/244 90/90
f 245/245 90/90 244/244
f 90/90 245/245 91/91
f 96/96 246/246 247/247
f 246/246 96/96 92/92
f 93/93 92/92 96/96
f 92/92 93/93 89/89
f 65/65 69/69 68/68
f 68/68 74/74 70/70
f 76/76 217/217 218/218
f 221/221 222/222 218/218
f 221/221 219/219 218/218
f 223/223 221/221 224/224
f 227/227 228/228 224/224
f 227/227 225/225 224/224
f 229/229 227/227 232/232
f 235/235 236/236 232/232
f 235/235 233/233 232/232
