# MOD converted: e_w_costume_angel_hair.mod
# 416 verts, 93 faces

v 136.326019 0.411475 17.055107
v 144.244034 -7.404667 19.882504
v 128.484039 -3.073099 16.018703
v 128.603027 0.266312 16.570999
v 121.526024 -4.895336 14.329503
v 122.393028 -6.549778 13.898602
v 121.715019 -2.161036 12.931401
v 115.737015 -5.281464 15.271502
v 128.963013 -6.678588 -16.785000
v 136.325989 0.411478 -17.055096
v 144.243988 -7.404668 -19.882494
v 128.483963 -3.073114 -16.018696
v 128.602982 0.266312 -16.570993
v 121.525970 -4.895343 -14.329499
v 122.392990 -6.549782 -13.898601
v 121.714981 -2.161048 -12.931398
v 115.736969 -5.281466 -15.271496
v 128.962982 -6.678597 16.362999
v 131.461014 5.176218 24.288204
v 143.544037 4.982576 -12.571700
v 149.863983 -12.157897 -14.292599
v 155.622986 -15.921893 -14.977996
v 144.525986 -10.393906 14.292605
v 155.623016 -15.921890 14.978004
v 144.526031 -10.393888 6.973206
v 151.824005 -13.987194 -6.973195
v 151.823990 -13.987200 0.000010
v 152.363998 -14.655998 -27.753292
v 126.703964 -8.328819 -26.030697
v 127.770958 -3.167043 -22.008595
v 136.437973 -5.191476 -22.017399
v 134.498962 -12.757890 -25.814600
v 120.048965 -4.619920 -28.179897
v 119.548950 -9.011762 -15.630900
v 116.451981 -6.829023 -19.647890
v 114.309975 -9.466665 -22.907799
v 115.717972 -7.920571 -29.806494
v 127.483948 -6.356746 -25.885195
v 135.407974 -11.058702 -29.105900
v 118.668945 -7.222586 -20.797596
v 112.251984 -11.651600 -17.180395
v 113.150986 -9.670691 -25.350897
v 114.598961 -10.896712 5.519163
v 168.083984 -13.990194 -0.968108
v 167.132996 -9.180365 2.243852
v 173.167023 -16.747292 -2.479488
v 172.216003 -10.462591 -6.215179
v 179.356995 -19.878590 -6.930119
v 176.158966 -13.998493 -16.716398
v 177.453979 -20.502792 -15.503193
v 175.561981 -15.348598 -21.477800
v 158.887970 -8.828091 -23.268797
v 170.501984 -18.035103 -22.099197
v 170.287964 -13.294795 -22.977894
v 164.815979 -11.951900 -24.309488
v 164.694992 -14.793900 15.985103
v 158.199036 -9.031800 -15.985098
v 158.198975 -9.031809 4.687787
v 164.283997 -11.916872 5.774330
v 122.297005 6.231382 4.553799
v 124.843010 5.277701 2.672129
v 124.249008 5.700422 4.416257
v 122.070007 6.483700 6.013267
v 118.895012 6.773611 2.621258
v 122.197845 6.258571 1.726508
v 124.393845 4.940270 0.690824
v 123.944847 5.748659 1.552609
v 119.815842 6.823139 23.039602
v 143.746033 -6.118014 23.552704
v 143.736023 0.695083 23.765303
v 134.205048 -3.855684 23.023504
v 136.196030 1.419809 22.734306
v 124.660034 -0.681290 15.887504
v 141.396011 -9.467595 18.746805
v 130.966019 -5.900861 23.093803
v 139.202026 2.489597 23.458202
v 135.903656 5.439654 24.479597
v 138.587067 6.630855 25.871002
v 134.434052 9.324821 -5.774332
v 122.296989 6.231380 -4.553802
v 124.843002 5.277699 -2.672132
v 124.249001 5.700421 -4.416262
v 122.069984 6.483700 -6.013272
v 118.894989 6.773610 -2.621262
v 122.197838 6.258570 -1.726511
v 124.393845 4.940270 -0.690828
v 123.944847 5.748659 -1.552613
v 119.815842 6.823139 -22.077805
v 150.217957 2.134644 -23.039598
v 143.745972 -6.118019 -23.552702
v 143.735962 0.695088 -23.765301
v 134.204971 -3.855680 -23.023493
v 136.195953 1.419828 -22.734297
v 124.659981 -0.681289 -15.887498
v 141.395981 -9.467604 -18.746798
v 130.965973 -5.900872 -23.093796
v 139.201965 2.489578 -23.458202
v 135.903595 5.439632 -24.479601
v 138.587006 6.630840 -25.871006
v 134.433960 9.324817 -20.778000
v 152.004974 -6.694559 -18.273500
v 160.036957 -0.753086 22.077797
v 150.218048 2.134643 -24.288198
v 143.543991 4.982562 -1.133158
v 171.882996 -14.925692 21.868004
v 140.181030 -4.854707 24.032602
v 133.648026 -2.661477 28.255301
v 127.967026 4.798496 15.223806
v 157.483017 -18.618191 20.780306
v 128.836029 -9.261045 21.225615
v 152.921036 -17.051289 9.209579
v 149.623016 -22.116692 12.996308
v 137.719025 -18.960596 23.140404
v 138.027023 -13.234894 25.002501
v 130.755035 -5.462580 8.627787
v 166.283020 -19.822992 20.778000
v 152.005035 -6.694550 -24.933796
v 129.543976 -4.458947 -15.522703
v 116.875961 -0.290743 -16.662193
v 156.637985 -22.285004 -18.404593
v 126.957977 -10.265702 -7.864123
v 162.174988 -17.105797 -2.511746
v 148.101822 -22.116699 -9.299991
v 138.956833 -18.116096 -18.629194
v 142.103973 -18.495197 -24.989792
v 128.084976 -8.314694 -21.822500
v 122.102982 -3.498347 -18.733500
v 122.723984 -8.327006 -13.355983
v 132.634949 -12.621305 0.699760
v 158.962006 -19.469595 -3.902173
v 161.983978 -23.333698 -6.719903
v 153.449982 -26.021599 -13.808527
v 141.256241 -22.148090 -22.017399
v 134.498962 -12.757890 -19.955299
v 157.571991 -14.868591 -22.791595
v 147.334976 -15.440495 -25.885199
v 135.407974 -11.058593 -17.004391
v 156.111969 -17.936106 -19.835785
v 144.267975 -15.543707 -16.837337
v 133.295776 -16.042799 -8.973804
v 164.410980 -14.982500 -9.375550
v 162.382980 -11.213095 4.687788
v 164.283997 -11.916792 12.571706
v 149.864014 -12.157890 23.590996
v 134.488022 45.675209 25.099695
v 135.718018 16.574402 37.339394
v 133.534012 24.778900 15.328993
v 146.483002 31.781507 24.450594
v 147.438019 20.344503 38.621494
v 149.591049 25.049303 32.462891
v 161.472046 25.044802 35.268784
v 120.886017 27.498205 24.781792
v 120.043007 21.907608 20.605593
v 102.154015 45.176003 28.388794
v 82.175522 42.306797 36.683701
v 98.562721 28.172596 32.392799
v 82.044113 34.204884 24.385193
v 96.740219 23.055859 26.837395
v 80.295204 30.044895 18.369099
v 78.765106 35.550385 26.415897
v 67.119919 35.830692 24.693199
v 66.380219 30.782791 14.913994
v 100.785995 38.229301 30.229597
v 68.271523 31.163998 23.454296
v 161.425034 20.446804 10.456795
v 158.973022 20.210304 14.342498
v 153.038010 18.918303 15.523491
v 161.152023 24.829113 8.936800
v 152.860992 24.255802 31.636797
v 133.533005 34.223904 24.075895
v 61.099117 29.612688 33.680592
v 150.739029 42.873005 28.046696
v 166.773041 35.566513 20.200697
v 162.739014 39.678604 37.285091
v 124.529030 43.638493 33.113396
v 111.963036 43.365799 41.197392
v 111.896049 40.763309 40.669991
v 111.858040 33.792000 36.902996
v 97.452621 41.302998 34.114594
v 133.708023 44.314709 24.057394
v 147.667023 49.379303 33.842087
v 103.272018 38.780201 38.463493
v 104.142029 37.499401 13.533195
v 159.501007 33.991299 29.406897
v 147.440033 34.817703 26.862488
v 123.110016 49.432301 30.046894
v 162.476028 29.329304 20.238094
v 168.300034 28.369205 28.562595
v 78.714020 47.167488 27.695709
v 89.524345 45.162598 21.313396
v 88.894913 42.696796 28.926096
v 103.109032 49.685200 32.004402
v 99.595413 39.796795 35.090996
v 121.522003 33.074394 16.136393
v 146.855011 40.525307 13.735795
v 134.118011 38.393906 8.249125
v 119.755005 44.016994 16.788301
v 87.219116 40.271896 10.739396
v 98.022697 37.846798 17.120991
v 98.548615 42.189598 6.662212
v 108.199005 39.689396 16.002895
v 110.652023 43.557499 10.929397
v 111.518013 30.694799 14.190593
v 92.503708 40.754303 17.514196
v 92.883812 40.835796 13.657392
v 155.035019 28.106859 15.758290
v 133.634995 30.002899 19.034092
v 121.908997 43.626801 12.559194
v 120.344978 34.580093 18.568497
v 155.211029 22.979303 -0.000001
v 167.165009 -2.573122 17.055105
v 144.244019 -7.404656 14.329504
v 122.393028 -6.549769 13.898602
v 121.715019 -2.161036 16.018703
v 128.603027 0.266312 15.271501
v 128.963013 -6.678587 18.273500
v 160.037018 -0.753077 -0.000009
v 167.095001 17.825403 -0.000009
v 156.431000 26.608204 -0.000007
v 126.275009 16.586302 10.418296
v 167.435013 7.097678 21.857498
v 143.589050 16.297306 10.971192
v 144.159012 25.504902 11.991993
v 162.872009 17.696012 11.494589
v 154.915009 25.227406 22.016500
v 135.261032 4.795287 10.006894
v 125.059021 4.285995 14.072799
v 127.399025 13.341198 10.729395
v 133.913010 23.094301 18.176792
v 162.075012 7.575541 9.782014
v 124.144012 9.283933 20.011396
v 134.776031 15.269799 21.692797
v 153.226013 16.984406 9.889818
v 164.999008 -2.029762 -0.000003
v 169.347000 7.014398 -0.000011
v 144.298996 27.694799 -10.418303
v 167.434982 7.097674 -21.857504
v 143.588974 16.297304 -10.971210
v 144.158966 25.504906 -11.992006
v 162.871979 17.695999 -11.494608
v 154.914978 25.227404 -22.016495
v 135.260971 4.795263 -16.363001
v 131.460983 5.176222 -10.006902
v 125.058975 4.285993 -14.072803
v 127.398979 13.341197 -10.729408
v 133.912979 23.094297 -18.176805
v 162.074982 7.575535 -9.782025
v 124.143990 9.283927 -20.011402
v 134.775970 15.269799 -21.692802
v 153.225952 16.984400 -9.889821
v 164.998993 -2.029763 -0.000002
v 123.523003 5.340432 -0.000007
v 133.934006 24.508602 -0.000004
v 122.779999 9.339050 23.793274
v 136.619965 -3.204042 22.966139
v 140.019333 -6.035142 22.677401
v 146.362076 -7.417363 23.865475
v 151.661499 -4.128683 30.843756
v 153.625473 17.415537 31.841707
v 156.452820 20.301991 30.978529
v 152.349640 17.931995 30.439949
v 149.200378 16.498219 29.775961
v 147.749542 14.544851 29.726721
v 145.517883 14.562250 29.008516
v 143.404449 12.490944 27.550041
v 142.299622 8.041189 26.985767
v 138.367722 6.587408 25.464972
v 136.140305 2.029603 28.740993
v 158.202942 10.528700 33.069672
v 162.544464 23.654137 27.113676
v 144.887680 6.486885 25.220776
v 154.557693 -0.136571 23.837255
v 146.317017 -3.808125 23.149651
v 149.276093 -6.171830 26.598038
v 156.250519 4.015761 -23.793266
v 136.619965 -3.204041 -22.966141
v 140.019318 -6.035156 -22.677387
v 146.362061 -7.417375 -23.865473
v 151.661499 -4.128683 -30.843767
v 153.625458 17.415535 -31.841709
v 156.452805 20.301989 -30.978531
v 152.349625 17.931988 -30.439945
v 149.200348 16.498219 -29.775963
v 147.749527 14.544848 -29.726721
v 145.517883 14.562243 -29.008518
v 143.404434 12.490939 -27.550045
v 142.299606 8.041186 -26.985765
v 138.367706 6.587408 -25.464962
v 136.140320 2.029596 -28.740993
v 158.202911 10.528696 -33.069679
v 162.544449 23.654139 -27.113672
v 144.887650 6.486892 -25.220770
v 154.557678 -0.136576 -23.837248
v 146.316986 -3.808131 -23.149651
v 149.276062 -6.171829 -26.598030
v 156.250488 4.015760 0.000017
v 186.153793 15.807131 0.000017
v 188.030930 13.047266 0.000016
v 184.276657 13.047265 7.903564
v 186.153793 13.689387 6.523630
v 188.030930 11.299269 6.523630
v 184.276657 11.299268 13.689366
v 186.153793 7.903586 11.299247
v 188.030930 6.523650 11.299249
v 184.276657 6.523652 15.807117
v 186.153793 0.000035 13.047245
v 188.030930 0.000039 13.047246
v 184.276657 0.000037 13.689365
v 186.153793 -7.903507 11.299249
v 188.030930 -6.523575 11.299250
v 184.276672 -6.523576 7.903567
v 186.153793 -13.689310 6.523631
v 188.030945 -11.299193 6.523633
v 184.276672 -11.299192 0.000020
v 186.153793 -15.807058 0.000018
v 188.030945 -13.047190 0.000018
v 184.276657 -13.047190 -7.903533
v 186.153793 13.689388 -6.523594
v 188.030930 11.299265 -6.523597
v 184.276657 11.299268 -13.689329
v 186.153793 7.903586 -11.299212
v 188.030914 6.523652 -11.299212
v 184.276657 6.523651 -15.807077
v 186.153793 0.000037 -13.047210
v 188.030914 0.000038 -13.047209
v 184.276642 0.000037 -13.689329
v 186.153793 -7.903511 -11.299210
v 188.030930 -6.523577 -11.299212
v 184.276642 -6.523579 -7.903528
v 186.153793 -13.689313 -6.523595
v 188.030930 -11.299191 -6.523595
v 184.276657 -11.299194 13.657392
v 155.035019 28.106859 8.936800
v 152.860992 24.255802 15.758290
v 133.634995 30.002899 15.328993
v 146.483002 31.781507 12.559194
v 120.344978 34.580093 20.778000
v 152.005035 -6.694550 14.292605
v 155.623016 -15.921890 12.571706
v 149.864014 -12.157890 -12.571700
v 149.863983 -12.157897 -14.292599
v 155.622986 -15.921893 -22.008595
v 136.437973 -5.191476 -9.375550
v 162.382980 -11.213095 4.687787
v 164.283997 -11.916872 4.687787
v 164.283997 -11.916872 -9.375550
v 162.382980 -11.213095 -15.985098
v 158.198975 -9.031809 4.687787
v 164.283997 -11.916872 24.288204
v 143.544037 4.982576 -24.288198
v 143.543991 4.982562 15.985103
v 158.199036 -9.031800 8.627787
v 166.283020 -19.822992 4.687787
v 164.283997 -11.916872 -20.778000
v 152.004974 -6.694559 -1.133158
v 171.882996 -14.925692 26.415897
v 67.119919 35.830692 28.388794
v 82.175522 42.306797 19.034092
v 121.908997 43.626801 20.605593
v 102.154015 45.176003 15.523491
v 161.152023 24.829113 18.568497
v 155.211029 22.979303 13.657392
v 155.035019 28.106859 20.238094
v 168.300034 28.369205 26.862488
v 123.110016 49.432301 23.590996
v 134.488022 45.675209 15.523491
v 161.152023 24.829113 32.004402
v 99.595413 39.796795 35.090996
v 121.522003 33.074394 20.605593
v 102.154015 45.176003 18.568497
v 155.211029 22.979303 19.034092
v 121.908997 43.626801 15.271502
v 128.963013 -6.678588 16.018703
v 128.603027 0.266312 12.931401
v 115.737015 -5.281464 -15.271496
v 128.962982 -6.678597 -17.055096
v 144.243988 -7.404668 -16.018696
v 128.602982 0.266312 -13.898601
v 121.714981 -2.161048 -12.931398
v 115.736969 -5.281466 -14.329499
v 122.392990 -6.549782 13.898602
v 121.715019 -2.161036 14.329503
v 122.393028 -6.549778 22.016500
v 135.261032 4.795287 24.288204
v 143.544037 4.982576 9.889818
v 164.999008 -2.029762 -0.000001
v 167.165009 -2.573122 22.077797
v 150.218048 2.134643 -22.016495
v 135.260971 4.795263 -24.288198
v 143.543991 4.982562 -9.889821
v 164.998993 -2.029763 -22.077805
v 150.217957 2.134644 18.273500
v 160.037018 -0.753077 16.362999
v 131.461014 5.176218 -18.273500
v 160.036957 -0.753086 -16.363001
v 131.460983 5.176222 0.000016
v 184.276657 13.047265 6.523630
v 184.276657 11.299268 11.299249
v 184.276657 6.523652 13.047246
v 184.276657 0.000037 11.299250
v 184.276672 -6.523576 6.523633
v 184.276672 -11.299192 0.000018
v 184.276657 -13.047190 0.000017
v 186.153793 15.807131 0.000017
v 188.030930 13.047266 0.000016
v 184.276657 13.047265 0.000016
v 184.276657 13.047265 -6.523597
v 184.276657 11.299268 -11.299212
v 184.276657 6.523651 -13.047209
v 184.276642 0.000037 -11.299212
v 184.276642 -6.523579 -6.523595
v 184.276657 -11.299194 0.000018
v 188.030945 -13.047190 0.000020
v 186.153793 -15.807058 0.000018
v 184.276657 -13.047190 0.000018
v 184.276657 -13.047190 0.725696

vt 0.504984 0.324719
vt 0.432824 0.215986
vt 0.480713 0.214359
vt 0.516306 0.163118
vt 0.478615 0.158975
vt 0.457466 0.158448
vt 0.505853 0.113280
vt 0.481799 0.206503
vt 0.441464 0.274304
vt 0.504984 0.324719
vt 0.432824 0.215986
vt 0.480713 0.214359
vt 0.516306 0.163118
vt 0.478615 0.158975
vt 0.457466 0.158448
vt 0.505853 0.113280
vt 0.481799 0.206503
vt 0.441464 0.245893
vt 0.553120 0.356298
vt 0.541939 0.157754
vt 0.733870 0.175972
vt 0.781031 0.171837
vt 0.692605 0.175972
vt 0.781031 0.171837
vt 0.692605 0.757654
vt 0.033518 0.857684
vt 0.028455 0.807916
vt 0.035880 0.877803
vt 0.626235 0.930409
vt 0.598964 0.520194
vt 0.013693 0.816377
vt 0.566925 0.942327
vt 0.663738 0.896193
vt 0.677169 0.997282
vt 0.741433 0.952724
vt 0.745326 0.941627
vt 0.714327 0.897816
vt 0.616620 0.849613
vt 0.557055 0.910850
vt 0.674139 0.929959
vt 0.760441 0.965594
vt 0.764676 0.908425
vt 0.722047 0.991892
vt 0.464532 0.945518
vt 0.471541 0.991746
vt 0.501709 0.946508
vt 0.510767 0.990898
vt 0.558206 0.954684
vt 0.556157 0.991166
vt 0.607538 0.959040
vt 0.607866 0.978228
vt 0.733618 0.991167
vt 0.658265 0.963635
vt 0.662914 0.968661
vt 0.695597 0.986352
vt 0.692592 0.231367
vt 0.784035 0.677870
vt 0.109371 0.775126
vt 0.123771 0.729664
vt 0.329110 0.789882
vt 0.316407 0.783877
vt 0.275171 0.729495
vt 0.300203 0.658820
vt 0.320882 0.509771
vt 0.333443 0.458352
vt 0.311204 0.477068
vt 0.289487 0.562536
vt 0.317347 0.228306
vt 0.663734 0.273632
vt 0.647365 0.218226
vt 0.598473 0.257380
vt 0.594707 0.205463
vt 0.529389 0.171706
vt 0.668443 0.175482
vt 0.587692 0.274095
vt 0.611151 0.287125
vt 0.580937 0.303501
vt 0.597060 0.316705
vt 0.561408 0.729664
vt 0.329110 0.789882
vt 0.316407 0.783877
vt 0.275171 0.729495
vt 0.300203 0.658820
vt 0.320882 0.509771
vt 0.333443 0.458352
vt 0.311204 0.477068
vt 0.289487 0.562536
vt 0.317347 0.297761
vt 0.691484 0.228306
vt 0.663734 0.273632
vt 0.647365 0.218226
vt 0.598473 0.257380
vt 0.594707 0.205463
vt 0.529389 0.171706
vt 0.668443 0.175482
vt 0.587692 0.274095
vt 0.611151 0.287125
vt 0.580937 0.303501
vt 0.597060 0.316705
vt 0.561408 0.237507
vt 0.723197 0.296173
vt 0.773159 0.297761
vt 0.691484 0.356298
vt 0.541939 0.825741
vt 0.174781 0.961383
vt 0.178001 0.945680
vt 0.125202 0.962380
vt 0.049652 0.919926
vt 0.340904 0.870940
vt 0.127372 0.926001
vt 0.291012 0.843673
vt 0.327869 0.824443
vt 0.232480 0.901242
vt 0.195576 0.915324
vt 0.118677 0.711396
vt 0.135839 0.991180
vt 0.263956 0.460150
vt 0.011073 0.324665
vt 0.006006 0.610912
vt 0.181376 0.420297
vt 0.082551 0.677889
vt 0.207669 0.543910
vt 0.282297 0.463654
vt 0.216300 0.532484
vt 0.139541 0.451036
vt 0.040987 0.395877
vt 0.011475 0.391625
vt 0.058122 0.427718
vt 0.146228 0.645820
vt 0.306605 0.653503
vt 0.252860 0.592769
vt 0.240414 0.514761
vt 0.183803 0.486701
vt 0.087024 0.635257
vt 0.131479 0.573185
vt 0.108089 0.500755
vt 0.060526 0.621996
vt 0.157341 0.549365
vt 0.122243 0.459253
vt 0.139060 0.698524
vt 0.195103 0.714246
vt 0.163257 0.819786
vt 0.213394 0.157754
vt 0.733870 0.223218
vt 0.956694 0.512816
vt 0.768266 0.554036
vt 0.689321 0.396935
vt 0.832921 0.442093
vt 0.748472 0.470441
vt 0.656272 0.389937
vt 0.628671 0.631369
vt 0.706730 0.605378
vt 0.794842 0.712031
vt 0.994736 0.858393
vt 0.993989 0.760334
vt 0.758825 0.867935
vt 0.790751 0.746114
vt 0.831233 0.862502
vt 0.846134 0.859094
vt 0.915002 0.950229
vt 0.925334 0.952366
vt 0.883711 0.711963
vt 0.938846 0.940406
vt 0.845934 0.370715
vt 0.691178 0.011101
vt 0.487090 0.010208
vt 0.565294 0.089102
vt 0.489166 0.009719
vt 0.647710 0.579246
vt 0.620992 0.991509
vt 0.876218 0.498028
vt 0.542544 0.390343
vt 0.522442 0.425644
vt 0.472011 0.667050
vt 0.570170 0.755426
vt 0.554010 0.743478
vt 0.603044 0.739953
vt 0.647941 0.851153
vt 0.615973 0.609133
vt 0.551357 0.529769
vt 0.484336 0.815663
vt 0.585818 0.798205
vt 0.614936 0.429386
vt 0.419585 0.483813
vt 0.599248 0.299133
vt 0.933574 0.370491
vt 0.583909 0.315825
vt 0.644249 0.569564
vt 0.999965 0.509690
vt 0.947276 0.516647
vt 0.992299 0.421553
vt 0.937547 0.794290
vt 0.691597 0.653151
vt 0.653884 0.522397
vt 0.419111 0.610701
vt 0.388198 0.709688
vt 0.409677 0.918022
vt 0.471608 0.846916
vt 0.427920 0.841129
vt 0.479087 0.781884
vt 0.409319 0.757520
vt 0.465948 0.782343
vt 0.347984 0.882290
vt 0.457500 0.880631
vt 0.479387 0.079502
vt 0.640495 0.490479
vt 0.865813 0.299466
vt 0.995619 0.578688
vt 0.917777 0.077983
vt 0.563474 0.284204
vt 0.922033 0.121738
vt 0.514888 0.144985
vt 0.654542 0.118345
vt 0.665126 0.093103
vt 0.623290 0.136772
vt 0.612695 0.296173
vt 0.773159 0.230045
vt 0.310387 0.219561
vt 0.247468 0.194097
vt 0.082163 0.310278
vt 0.341211 0.347908
vt 0.164148 0.267885
vt 0.179153 0.294119
vt 0.281083 0.271342
vt 0.231293 0.293462
vt 0.550728 0.269729
vt 0.008621 0.288714
vt 0.069802 0.263504
vt 0.129413 0.357846
vt 0.296728 0.256981
vt 0.040029 0.331452
vt 0.110557 0.342751
vt 0.219251 0.290654
vt 0.846457 0.240686
vt 0.367659 0.211779
vt 0.194755 0.166360
vt 0.369474 0.074078
vt 0.212892 0.153823
vt 0.199048 0.161072
vt 0.306067 0.166590
vt 0.250475 0.293462
vt 0.550728 0.245893
vt 0.553120 0.100482
vt 0.035344 0.101858
vt 0.103953 0.143086
vt 0.149966 0.105448
vt 0.343097 0.120428
vt 0.060941 0.072247
vt 0.157303 0.096851
vt 0.264766 0.290654
vt 0.846457 0.182555
vt 0.006798 0.203345
vt 0.140219 0.186735
vt 0.039683 0.494468
vt 0.513970 0.513758
vt 0.539498 0.521188
vt 0.584998 0.492830
vt 0.619198 0.327939
vt 0.613532 0.304440
vt 0.630654 0.324682
vt 0.604186 0.337206
vt 0.583565 0.352941
vt 0.575177 0.353997
vt 0.559629 0.370904
vt 0.546754 0.405397
vt 0.543006 0.418352
vt 0.517263 0.454147
vt 0.505521 0.377973
vt 0.651492 0.275655
vt 0.670084 0.416057
vt 0.562601 0.461142
vt 0.635687 0.493478
vt 0.581789 0.509887
vt 0.604159 0.431118
vt 0.642362 0.494468
vt 0.513970 0.513758
vt 0.539498 0.521188
vt 0.584998 0.492830
vt 0.619198 0.327939
vt 0.613532 0.304440
vt 0.630654 0.324682
vt 0.604186 0.337206
vt 0.583565 0.352941
vt 0.575177 0.353997
vt 0.559629 0.370904
vt 0.546754 0.405397
vt 0.543006 0.418352
vt 0.517263 0.454147
vt 0.505521 0.377973
vt 0.651492 0.275655
vt 0.670084 0.416057
vt 0.562601 0.461142
vt 0.635687 0.493478
vt 0.581789 0.509887
vt 0.604159 0.431118
vt 0.642362 0.994340
vt 0.956985 0.994340
vt 0.916624 0.994340
vt 0.879145 0.876144
vt 0.956985 0.876144
vt 0.916624 0.876144
vt 0.879145 0.750240
vt 0.956985 0.750240
vt 0.916624 0.750240
vt 0.879145 0.623652
vt 0.956985 0.623652
vt 0.916624 0.623652
vt 0.879145 0.497327
vt 0.956985 0.497327
vt 0.916624 0.497327
vt 0.879145 0.372208
vt 0.956985 0.372208
vt 0.916624 0.372208
vt 0.879145 0.263272
vt 0.956985 0.263272
vt 0.916624 0.263272
vt 0.879145 0.876144
vt 0.956985 0.876144
vt 0.916624 0.876144
vt 0.879145 0.750240
vt 0.956985 0.750240
vt 0.916624 0.750240
vt 0.879145 0.623652
vt 0.956985 0.623652
vt 0.916624 0.623652
vt 0.879145 0.497327
vt 0.956985 0.497327
vt 0.916624 0.497327
vt 0.879145 0.372208
vt 0.956985 0.372208
vt 0.916624 0.372208
vt 0.879145 0.079628
vt 0.411795 0.009719
vt 0.405916 0.604120
vt 0.326251 0.507516
vt 0.363592 0.704548
vt 0.354532 0.237507
vt 0.723197 0.698276
vt 0.045933 0.725357
vt 0.002969 0.895621
vt 0.005279 0.913188
vt 0.052930 0.901436
vt 0.524353 0.912462
vt 0.438459 0.992467
vt 0.442407 0.207933
vt 0.949004 0.219364
vt 0.843446 0.231367
vt 0.784035 0.214129
vt 0.881094 0.303644
vt 0.635709 0.303644
vt 0.635709 0.989662
vt 0.328467 0.925406
vt 0.422075 0.992257
vt 0.425654 0.630753
vt 0.060913 0.754180
vt 0.263432 0.966265
vt 0.822950 0.900154
vt 0.737177 0.578056
vt 0.995000 0.824881
vt 0.630543 0.333225
vt 0.720195 0.378928
vt 0.747109 0.438035
vt 0.368086 0.356602
vt 0.463977 0.684775
vt 0.491851 0.603488
vt 0.473962 0.382665
vt 0.387195 0.460120
vt 0.883152 0.324795
vt 0.814218 0.425971
vt 0.995573 0.431968
vt 0.319822 0.680590
vt 0.459705 0.136772
vt 0.612695 0.093103
vt 0.623290 0.146083
vt 0.698982 0.136772
vt 0.612695 0.121738
vt 0.514888 0.093103
vt 0.623290 0.118345
vt 0.665126 0.146083
vt 0.698982 0.144985
vt 0.654542 0.118345
vt 0.665126 0.144985
vt 0.654542 0.391525
vt 0.083847 0.417187
vt 0.165203 0.329900
vt 0.398576 0.245495
vt 0.425034 0.432217
vt 0.236770 0.008059
vt 0.143288 0.008116
vt 0.227889 0.157910
vt 0.423175 0.014868
vt 0.299039 0.397260
vt 0.336804 0.340864
vt 0.046608 0.076628
vt 0.383666 0.044738
vt 0.092838 0.994340
vt 0.994703 0.876144
vt 0.994703 0.750240
vt 0.994703 0.623652
vt 0.994703 0.497327
vt 0.994703 0.372208
vt 0.994703 0.263272
vt 0.994703 0.994340
vt 0.956985 0.994340
vt 0.916624 0.994340
vt 0.879145 0.994340
vt 0.994703 0.876144
vt 0.994703 0.750240
vt 0.994703 0.623652
vt 0.994703 0.497327
vt 0.994703 0.372208
vt 0.994703 0.263272
vt 0.916624 0.263272
vt 0.956985 0.263272
vt 0.879145 0.263272
vt 0.994703 1.000000

f 297/297 301/301 298/298
f 301/301 297/297 300/300
f 298/298 302/302 299/299
f 302/302 298/298 301/301
f 397/397 300/300 297/297
f 300/300 397/397 398/398
f 300/300 304/304 301/301
f 304/304 300/300 303/303
f 301/301 305/305 302/302
f 305/305 301/301 304/304
f 398/398 303/303 300/300
f 303/303 398/398 399/399
f 303/303 307/307 304/304
f 307/307 303/303 306/306
f 304/304 308/308 305/305
f 308/308 304/304 307/307
f 399/399 306/306 303/303
f 306/306 399/399 400/400
f 306/306 310/310 307/307
f 310/310 306/306 309/309
f 307/307 311/311 308/308
f 311/311 307/307 310/310
f 400/400 309/309 306/306
f 309/309 400/400 401/401
f 309/309 313/313 310/310
f 313/313 309/309 312/312
f 310/310 314/314 311/311
f 314/314 310/310 313/313
f 401/401 312/312 309/309
f 312/312 401/401 402/402
f 312/312 316/316 313/313
f 316/316 312/312 315/315
f 313/313 317/317 314/314
f 317/317 313/313 316/316
f 402/402 315/315 312/312
f 315/315 402/402 403/403
f 319/319 404/404 405/405
f 404/404 319/319 318/318
f 320/320 405/405 406/406
f 405/405 320/320 319/319
f 318/318 407/407 404/404
f 407/407 318/318 408/408
f 322/322 318/318 319/319
f 318/318 322/322 321/321
f 323/323 319/319 320/320
f 319/319 323/323 322/322
f 321/321 408/408 318/318
f 408/408 321/321 409/409
f 325/325 321/321 322/322
f 321/321 325/325 324/324
f 326/326 322/322 323/323
f 322/322 326/326 325/325
f 324/324 409/409 321/321
f 409/409 324/324 410/410
f 328/328 324/324 325/325
f 324/324 328/328 327/327
f 329/329 325/325 326/326
f 325/325 329/329 328/328
f 327/327 410/410 324/324
f 410/410 327/327 411/411
f 331/331 327/327 328/328
f 327/327 331/331 330/330
f 332/332 328/328 329/329
f 328/328 332/332 331/331
f 330/330 411/411 327/327
f 411/411 330/330 412/412
f 413/413 330/330 331/331
f 330/330 413/413 414/414
f 415/415 331/331 332/332
f 331/331 415/415 413/413
f 414/414 412/412 330/330
f 412/412 414/414 416/416
f 266/266 267/267 258/258
f 258/258 272/272 271/271
f 265/265 266/266 263/263
f 265/265 271/271 263/263
f 264/264 265/265 271/271
f 272/272 275/275 274/274
f 271/271 255/255 273/273
f 274/274 258/258 259/259
f 269/269 270/270 262/262
f 269/269 259/259 271/271
f 268/268 255/255 287/287
f 287/287 292/292 279/279
f 279/279 294/294 284/284
f 292/292 287/287 284/284
f 296/296 293/293 295/295
f 278/278 277/277 294/294
f 276/276 292/292 294/294
f 279/279 295/295 280/280
f 291/291 290/290 283/283
f 283/283 282/282 296/296
f 280/280 290/290 292/292
