# MOD converted: e_w_metalglove008.mod
# 356 verts, 219 faces

v 96.474854 7.544255 42.385254
v 91.905655 4.905581 46.270782
v 100.257866 5.322214 45.968597
v 100.437500 -0.995634 44.103882
v 96.283646 -3.546097 42.098892
v 91.789169 -0.228883 44.287125
v 88.664558 -5.696071 53.470821
v 93.979538 7.463643 48.841454
v 91.858063 -4.107509 51.911903
v 91.408287 -4.856952 51.982506
v 86.536835 -7.013410 50.133938
v 89.118362 -5.690601 50.229660
v 84.228157 -7.954761 46.702148
v 86.687759 -6.867012 46.121170
v 94.728340 7.890462 46.372585
v 90.022491 0.896926 46.008827
v 88.185020 -3.423577 48.784313
v 86.789818 -4.882109 50.959148
v 84.993095 -5.894925 53.509491
v 94.718689 -4.749967 45.725761
v 92.454269 -6.349473 48.680378
v 95.146172 -4.921770 51.543236
v 86.153275 -8.800103 48.255646
v 89.479187 -8.054020 52.597366
v 91.584930 1.285062 54.196068
v 95.265839 1.394477 44.700272
v 90.319824 7.614247 57.542961
v 92.136948 -4.765134 56.026184
v 89.503174 -4.743138 56.658646
v 89.470848 1.433821 58.143108
v 92.310181 1.427902 61.491497
v 89.195602 -4.640270 59.274582
v 87.645340 -4.636806 60.084473
v 87.576706 1.339096 62.346142
v 89.095596 1.300647 51.833912
v 90.819847 7.447695 40.486412
v 98.022247 8.173730 42.161724
v 102.562576 5.664921 40.332260
v 97.888458 -3.523402 38.604153
v 92.967453 0.085484 42.102154
v 102.690598 -1.041922 38.770119
v 93.033424 5.123976 53.878395
v 95.153343 -1.554630 57.881847
v 92.319717 -1.952848 61.958435
v 89.123459 -2.278328 53.697418
v 94.727188 4.732293 57.848640
v 92.128433 4.139560 61.878994
v 89.128334 3.718342 52.422409
v 91.647964 -1.683656 56.347408
v 89.486725 -1.980409 59.746536
v 87.587517 -2.199805 52.248203
v 91.327873 4.451676 56.427567
v 89.364304 4.018585 59.630913
v 87.641693 3.689193 60.167759
v 89.126572 6.439140 58.070072
v 87.681175 6.385653 55.139915
v 89.620262 6.954052 56.747505
v 91.831146 7.048623 56.800560
v 89.515297 1.180972 58.285023
v 92.354652 1.175050 60.863049
v 86.984810 0.918110 63.269768
v 88.726944 0.879662 58.111622
v 92.361725 -1.609272 63.112190
v 88.772179 -1.647360 57.178192
v 92.140335 4.588997 60.529613
v 89.321953 4.351931 56.577145
v 89.528687 -1.636832 60.697777
v 87.018036 -1.568832 55.599052
v 89.676468 4.370163 58.465218
v 87.836617 4.268208 46.420536
v 100.683067 2.199601 36.984985
v 105.165314 5.849793 34.813950
v 100.258957 -3.713700 29.723537
v 102.497787 9.858825 31.957348
v 107.884659 6.374850 29.537020
v 102.344017 -4.063166 27.245094
v 96.313812 -0.225763 31.891151
v 108.037781 -1.557676 27.443165
v 96.386436 5.873390 33.803562
v 100.807777 2.710281 34.915623
v 100.445793 9.393847 37.050114
v 105.565170 6.070638 34.737633
v 100.298981 -4.140547 32.347282
v 94.340042 -0.480216 36.986969
v 105.711227 -1.750670 32.536224
v 94.409317 5.592314 34.981838
v 100.399910 8.962155 32.559891
v 94.667763 -0.285544 36.925854
v 105.302132 -1.475412 32.736847
v 94.732635 5.401811 34.741108
v 104.136093 -2.576175 34.084587
v 106.371452 -1.851140 31.896122
v 105.394829 -2.362601 32.471714
v 102.629593 -2.579763 33.462299
v 104.974182 -4.959668 35.697311
v 106.006897 2.417500 34.102188
v 106.501854 4.449870 32.935631
v 107.454643 2.452839 34.170204
v 106.541260 0.311347 35.575939
v 108.911552 2.443919 34.764748
v 103.768974 7.626425 33.917698
v 105.823372 6.495957 31.819353
v 105.051453 7.498856 32.525806
v 102.532547 8.585647 33.601948
v 105.559296 9.935884 -44.498596
v 96.474678 7.544262 -42.385254
v 91.905655 4.905574 -46.270790
v 100.257874 5.322217 -45.968590
v 100.437469 -0.995629 -44.103886
v 96.283585 -3.546095 -42.098892
v 91.789162 -0.228889 -44.287125
v 88.664543 -5.696071 -53.470814
v 93.979515 7.463645 -48.841465
v 91.858063 -4.107507 -51.911903
v 91.408310 -4.856951 -51.982510
v 86.536850 -7.013412 -50.133949
v 89.118370 -5.690601 -50.229664
v 84.228157 -7.954762 -46.702156
v 86.687744 -6.867009 -46.121170
v 94.728333 7.890461 -46.372589
v 90.022491 0.896925 -46.008823
v 88.184998 -3.423576 -48.784321
v 86.789825 -4.882108 -50.959148
v 84.993103 -5.894926 -53.509491
v 94.718697 -4.749966 -45.725769
v 92.454262 -6.349474 -48.680378
v 95.146179 -4.921765 -51.543221
v 86.153259 -8.800105 -48.255657
v 89.479210 -8.054022 -52.597363
v 91.584953 1.285063 -54.196064
v 95.265839 1.394479 -44.700275
v 90.319832 7.614243 -57.542984
v 92.136948 -4.765139 -56.026222
v 89.503174 -4.743142 -56.658642
v 89.470848 1.433821 -58.143108
v 92.310181 1.427903 -61.491558
v 89.195572 -4.640271 -59.274639
v 87.645302 -4.636807 -60.084469
v 87.576706 1.339096 -62.346146
v 89.095596 1.300647 -51.833908
v 90.819847 7.447694 -40.486599
v 98.022758 8.173723 -42.161713
v 102.562576 5.664932 -40.332066
v 97.887947 -3.523398 -38.604153
v 92.967453 0.085473 -42.102169
v 102.690598 -1.041909 -38.770103
v 93.033424 5.123960 -53.878384
v 95.153336 -1.554627 -57.881863
v 92.319717 -1.952849 -61.958481
v 89.123428 -2.278329 -53.697418
v 94.727219 4.732295 -57.848625
v 92.128448 4.139562 -61.878971
v 89.128365 3.718343 -52.422394
v 91.647957 -1.683657 -56.347420
v 89.486710 -1.980411 -59.746563
v 87.587486 -2.199807 -52.248211
v 91.327881 4.451677 -56.427551
v 89.364296 4.018585 -59.630886
v 87.641716 3.689194 -60.167713
v 89.126602 6.439146 -58.070023
v 87.681206 6.385653 -55.139900
v 89.620277 6.954054 -56.747475
v 91.831146 7.048624 -56.800560
v 89.515312 1.180971 -58.285034
v 92.354660 1.175050 -60.863052
v 86.984810 0.918110 -63.269772
v 88.726936 0.879662 -58.111633
v 92.361717 -1.609273 -63.112217
v 88.772156 -1.647361 -57.178173
v 92.140335 4.589001 -60.529583
v 89.321983 4.351931 -56.577164
v 89.528671 -1.636833 -60.697807
v 87.018005 -1.568835 -55.599041
v 89.676476 4.370164 -58.465187
v 87.836647 4.268208 -46.420528
v 100.683044 2.199607 -36.984985
v 105.165314 5.849811 -34.814014
v 100.259079 -3.713701 -29.723534
v 102.497833 9.858823 -31.957338
v 107.884659 6.374866 -29.537071
v 102.344116 -4.063167 -27.245106
v 96.313812 -0.225779 -31.891167
v 108.037781 -1.557660 -27.443144
v 96.386429 5.873371 -33.803562
v 100.807777 2.710282 -34.915615
v 100.445839 9.393847 -37.050098
v 105.565170 6.070655 -34.737686
v 100.299042 -4.140549 -32.347290
v 94.340042 -0.480233 -36.986984
v 105.711227 -1.750653 -32.536209
v 94.409317 5.592298 -34.981842
v 100.399963 8.962155 -32.559906
v 94.667763 -0.285560 -36.925869
v 105.302132 -1.475397 -32.736832
v 94.732635 5.401794 -34.741127
v 104.136093 -2.576165 -34.084610
v 106.371452 -1.851123 -31.896141
v 105.394829 -2.362590 -32.471741
v 102.629601 -2.579758 -33.462330
v 104.974205 -4.959656 -35.697311
v 106.006897 2.417516 -34.102184
v 106.501854 4.449887 -32.935635
v 107.454643 2.452857 -34.170216
v 106.541260 0.311364 -35.575939
v 108.911552 2.443943 -34.764729
v 103.768974 7.626435 -33.917683
v 105.823372 6.495973 -31.819332
v 105.051453 7.498863 -32.525787
v 102.532547 8.585649 -33.601917
v 105.559296 9.935894 42.098892
v 91.789169 -0.228883 44.287125
v 88.664558 -5.696071 48.841454
v 91.858063 -4.107509 50.229660
v 84.228157 -7.954761 46.702148
v 86.687759 -6.867012 50.133938
v 89.118362 -5.690601 51.982506
v 86.536835 -7.013410 51.982506
v 86.536835 -7.013410 50.959148
v 84.993095 -5.894925 44.700272
v 90.319824 7.614247 51.833912
v 90.819847 7.447695 51.911903
v 91.408287 -4.856952 56.026184
v 89.503174 -4.743138 59.274582
v 87.645340 -4.636806 59.274582
v 87.645340 -4.636806 59.746536
v 87.587517 -2.199805 59.630913
v 87.641693 3.689193 60.084473
v 87.576706 1.339096 42.385254
v 91.905655 4.905581 42.385254
v 91.905655 4.905581 38.770119
v 93.033424 5.123976 59.746536
v 87.587517 -2.199805 57.881847
v 92.319717 -1.952848 56.347408
v 89.486725 -1.980409 61.958435
v 89.123459 -2.278328 52.422409
v 91.647964 -1.683656 53.878395
v 95.153343 -1.554630 59.630913
v 87.641693 3.689193 57.848640
v 92.128433 4.139560 56.427567
v 89.364304 4.018585 61.878994
v 89.128334 3.718342 52.248203
v 91.327873 4.451676 53.697418
v 94.727188 4.732293 60.084473
v 87.576706 1.339096 58.143108
v 92.310181 1.427902 62.346142
v 89.095596 1.300647 56.658646
v 89.470848 1.433821 52.597366
v 91.584930 1.285062 54.196068
v 95.265839 1.394477 60.863049
v 86.984810 0.918110 60.697777
v 87.018036 -1.568832 55.139915
v 89.620262 6.954052 58.070072
v 87.681175 6.385653 58.465218
v 87.836617 4.268208 58.070072
v 87.681175 6.385653 60.697777
v 87.018036 -1.568832 58.111622
v 92.361725 -1.609272 63.112190
v 88.772179 -1.647360 56.577145
v 89.528687 -1.636832 58.465218
v 87.836617 4.268208 57.178192
v 92.140335 4.588997 60.529613
v 89.321953 4.351931 55.599052
v 89.676468 4.370163 60.863049
v 86.984810 0.918110 58.285023
v 92.354652 1.175050 56.800560
v 89.515297 1.180972 63.269768
v 88.726944 0.879662 32.736847
v 94.732635 5.401811 27.443165
v 96.386436 5.873390 32.536224
v 94.409317 5.592314 31.957348
v 107.884659 6.374850 29.723537
v 102.497787 9.858825 27.245094
v 96.313812 -0.225763 29.537020
v 102.344017 -4.063166 31.891151
v 108.037781 -1.557676 27.443165
v 96.386436 5.873390 36.984985
v 105.165314 5.849793 34.981838
v 100.399910 8.962155 32.559891
v 94.667763 -0.285544 34.813950
v 100.258957 -3.713700 36.925854
v 105.302132 -1.475412 32.736847
v 94.732635 5.401811 32.736847
v 94.732635 5.401811 -42.098892
v 91.789162 -0.228889 -44.287125
v 88.664543 -5.696071 -48.841465
v 91.858063 -4.107507 -46.702156
v 86.687744 -6.867009 -50.229664
v 84.228157 -7.954762 -50.133949
v 89.118370 -5.690601 -51.982510
v 86.536850 -7.013412 -51.982510
v 86.536850 -7.013412 -50.959148
v 84.993103 -5.894926 -44.700275
v 90.319832 7.614243 -51.833908
v 90.819847 7.447694 -51.911903
v 91.408310 -4.856951 -56.026222
v 89.503174 -4.743142 -59.274639
v 87.645302 -4.636807 -59.274639
v 87.645302 -4.636807 -59.746563
v 87.587486 -2.199807 -59.630886
v 87.641716 3.689194 -60.084469
v 87.576706 1.339096 -42.385254
v 91.905655 4.905574 -42.385254
v 91.905655 4.905574 -38.770103
v 93.033424 5.123960 -59.746563
v 87.587486 -2.199807 -56.347420
v 89.486710 -1.980411 -57.881863
v 92.319717 -1.952849 -61.958481
v 89.123428 -2.278329 -52.422394
v 91.647957 -1.683657 -53.878384
v 95.153336 -1.554627 -59.630886
v 87.641716 3.689194 -56.427551
v 89.364296 4.018585 -57.848625
v 92.128448 4.139562 -61.878971
v 89.128365 3.718343 -52.248211
v 91.327881 4.451677 -53.697418
v 94.727219 4.732295 -60.084469
v 87.576706 1.339096 -62.346146
v 89.095596 1.300647 -58.143108
v 92.310181 1.427903 -56.658642
v 89.470848 1.433821 -54.196064
v 95.265839 1.394479 -52.597363
v 91.584953 1.285063 -60.863052
v 86.984810 0.918110 -60.697807
v 87.018005 -1.568835 -55.139900
v 89.620277 6.954054 -58.070023
v 87.681206 6.385653 -58.465187
v 87.836647 4.268208 -58.070023
v 87.681206 6.385653 -60.697807
v 87.018005 -1.568835 -63.112217
v 88.772156 -1.647361 -58.111633
v 92.361717 -1.609273 -56.577164
v 89.528671 -1.636833 -58.465187
v 87.836647 4.268208 -60.529583
v 89.321983 4.351931 -57.178173
v 92.140335 4.589001 -55.599041
v 89.676476 4.370164 -60.863052
v 86.984810 0.918110 -56.800560
v 89.515312 1.180971 -58.285034
v 92.354660 1.175050 -63.269772
v 88.726936 0.879662 -32.736832
v 94.732635 5.401794 -32.536209
v 94.409317 5.592298 -27.443144
v 96.386429 5.873371 -31.957338
v 107.884659 6.374866 -29.723534
v 102.497833 9.858823 -27.245106
v 96.313812 -0.225779 -29.537071
v 102.344116 -4.063167 -31.891167
v 108.037781 -1.557660 -27.443144
v 96.386429 5.873371 -36.984985
v 105.165314 5.849811 -34.981842
v 100.399963 8.962155 -32.559906
v 94.667763 -0.285560 -34.814014
v 100.259079 -3.713701 -36.925869
v 105.302132 -1.475397 -32.736832
v 94.732635 5.401794 -32.736832
v 94.732635 5.401794 0.680436

vt 0.538484 0.025137
vt 0.034459 0.430175
vt 0.538482 0.600495
vt 0.538466 0.718736
vt 0.538449 0.855175
vt 0.538530 0.877993
vt 0.438697 0.365865
vt 0.317004 0.228801
vt 0.161286 0.721606
vt 0.285785 0.291183
vt 0.130226 0.255130
vt 0.141152 0.314831
vt 0.069449 0.263320
vt 0.034932 0.328917
vt 0.456104 0.109965
vt 0.115034 0.194209
vt 0.088293 0.246464
vt 0.082684 0.290702
vt 0.097929 0.652594
vt 0.291510 0.781596
vt 0.410693 0.707303
vt 0.371070 0.866877
vt 0.261191 0.843932
vt 0.335815 0.112633
vt 0.222650 0.509242
vt 0.297912 0.242725
vt 0.448677 0.650145
vt 0.206755 0.707143
vt 0.202469 0.109176
vt 0.292982 0.496093
vt 0.202883 0.650365
vt 0.115807 0.665407
vt 0.067367 0.463193
vt 0.049409 0.484453
vt 0.098779 0.296718
vt 0.321127 0.296129
vt 0.647428 0.428210
vt 0.647438 0.726025
vt 0.647418 0.864613
vt 0.647414 0.593574
vt 0.647431 0.986784
vt 0.647407 0.580223
vt 0.294721 0.587344
vt 0.203382 0.597338
vt 0.106682 0.429550
vt 0.309841 0.432249
vt 0.213475 0.429107
vt 0.113719 0.162108
vt 0.220285 0.167712
vt 0.289383 0.610727
vt 0.057991 0.059697
vt 0.219198 0.068131
vt 0.290242 0.408726
vt 0.064298 0.346738
vt 0.163884 0.301661
vt 0.184876 0.306847
vt 0.253164 0.359197
vt 0.246233 0.117105
vt 0.294817 0.505518
vt 0.199237 0.117681
vt 0.369480 0.499546
vt 0.076079 0.570696
vt 0.195365 0.558588
vt 0.073018 0.413011
vt 0.228633 0.392324
vt 0.146824 0.160029
vt 0.292065 0.159130
vt 0.367303 0.058343
vt 0.276322 0.060837
vt 0.329244 0.510163
vt 0.538478 0.428210
vt 0.847066 0.726025
vt 0.847058 0.296562
vt 0.990118 0.428987
vt 0.990210 0.727023
vt 0.990121 0.864890
vt 0.990112 0.593254
vt 0.990140 0.988496
vt 0.990105 0.101902
vt 0.477036 0.296129
vt 0.857134 0.428210
vt 0.857138 0.726025
vt 0.857130 0.864613
vt 0.857128 0.593574
vt 0.857136 0.986784
vt 0.857126 0.296129
vt 0.847062 0.864613
vt 0.847056 0.593574
vt 0.847063 0.986784
vt 0.847054 0.969672
vt 0.228705 0.878911
vt 0.229978 0.799611
vt 0.229341 0.878911
vt 0.229978 0.878911
vt 0.131157 0.969672
vt 0.228705 0.878911
vt 0.229978 0.799611
vt 0.229341 0.878911
vt 0.229978 0.878911
vt 0.131157 0.969672
vt 0.228705 0.878911
vt 0.229978 0.799611
vt 0.229341 0.878911
vt 0.229978 0.878911
vt 0.131157 0.319564
vt 0.538484 0.025137
vt 0.034459 0.430175
vt 0.538482 0.600495
vt 0.538466 0.718736
vt 0.538449 0.855175
vt 0.538530 0.877993
vt 0.438697 0.365865
vt 0.317004 0.228801
vt 0.161286 0.721606
vt 0.285785 0.291183
vt 0.130226 0.255130
vt 0.141152 0.314831
vt 0.069449 0.263320
vt 0.034932 0.328917
vt 0.456104 0.109965
vt 0.115034 0.194209
vt 0.088293 0.246464
vt 0.082684 0.290702
vt 0.097929 0.652594
vt 0.291510 0.781596
vt 0.410693 0.707303
vt 0.371070 0.866877
vt 0.261191 0.843932
vt 0.335815 0.112633
vt 0.222650 0.509242
vt 0.297912 0.242725
vt 0.448677 0.650145
vt 0.206755 0.707143
vt 0.202469 0.109176
vt 0.292982 0.496093
vt 0.202883 0.650365
vt 0.115807 0.665407
vt 0.067367 0.463193
vt 0.049409 0.484453
vt 0.098779 0.296718
vt 0.321127 0.296129
vt 0.647428 0.428210
vt 0.647438 0.726025
vt 0.647418 0.864613
vt 0.647414 0.593574
vt 0.647431 0.986784
vt 0.647407 0.580223
vt 0.294721 0.587344
vt 0.203382 0.597338
vt 0.106682 0.429550
vt 0.309841 0.432249
vt 0.213475 0.429107
vt 0.113719 0.162108
vt 0.220285 0.167712
vt 0.289383 0.610727
vt 0.057991 0.059697
vt 0.219198 0.068131
vt 0.290242 0.408726
vt 0.064298 0.346738
vt 0.163884 0.301661
vt 0.184876 0.306847
vt 0.253164 0.359197
vt 0.246233 0.117105
vt 0.294817 0.505518
vt 0.199237 0.117681
vt 0.369480 0.499546
vt 0.076079 0.570696
vt 0.195365 0.558588
vt 0.073018 0.413011
vt 0.228633 0.392324
vt 0.146824 0.160029
vt 0.292065 0.159130
vt 0.367303 0.058343
vt 0.276322 0.060837
vt 0.329244 0.510163
vt 0.538478 0.428210
vt 0.847066 0.726025
vt 0.847058 0.296562
vt 0.990118 0.428987
vt 0.990210 0.727023
vt 0.990121 0.864890
vt 0.990112 0.593254
vt 0.990140 0.988496
vt 0.990105 0.101902
vt 0.477036 0.296129
vt 0.857134 0.428210
vt 0.857138 0.726025
vt 0.857130 0.864613
vt 0.857128 0.593574
vt 0.857136 0.986784
vt 0.857126 0.296129
vt 0.847062 0.864613
vt 0.847056 0.593574
vt 0.847063 0.986784
vt 0.847054 0.969672
vt 0.228705 0.878911
vt 0.229978 0.799611
vt 0.229341 0.878911
vt 0.229978 0.878911
vt 0.131157 0.969672
vt 0.228705 0.878911
vt 0.229978 0.799611
vt 0.229341 0.878911
vt 0.229978 0.878911
vt 0.131157 0.969672
vt 0.228705 0.878911
vt 0.229978 0.799611
vt 0.229341 0.878911
vt 0.229978 0.878911
vt 0.131157 0.103989
vt 0.017957 0.199421
vt 0.017269 0.769027
vt 0.335831 0.913028
vt 0.275550 0.905046
vt 0.352998 0.803493
vt 0.307498 0.823938
vt 0.258842 0.878795
vt 0.239530 0.918572
vt 0.248632 0.013526
vt 0.107204 0.009245
vt 0.215644 0.215505
vt 0.214770 0.213244
vt 0.284821 0.699943
vt 0.132353 0.211544
vt 0.343366 0.170746
vt 0.350294 0.071858
vt 0.346924 0.110289
vt 0.353952 0.196808
vt 0.538473 0.968452
vt 0.538520 0.153426
vt 0.647401 0.960904
vt 0.015084 0.909750
vt 0.069798 0.903544
vt 0.022359 0.982839
vt 0.048442 0.839035
vt 0.028468 0.839460
vt 0.084752 0.699284
vt 0.015088 0.765499
vt 0.072997 0.770031
vt 0.025472 0.676505
vt 0.053013 0.839035
vt 0.028468 0.839460
vt 0.084752 0.699284
vt 0.015088 0.765499
vt 0.072997 0.676505
vt 0.053013 0.770031
vt 0.025472 0.839035
vt 0.028468 0.839460
vt 0.084752 0.495988
vt 0.016778 0.555629
vt 0.013468 0.017449
vt 0.269573 0.025476
vt 0.324410 0.368679
vt 0.103745 0.322426
vt 0.121096 0.699284
vt 0.015088 0.765499
vt 0.072997 0.676505
vt 0.053013 0.770031
vt 0.025472 0.699284
vt 0.015088 0.765499
vt 0.072997 0.676505
vt 0.053013 0.770031
vt 0.025472 0.699284
vt 0.015088 0.765499
vt 0.072997 0.770031
vt 0.025472 0.676505
vt 0.053013 0.153426
vt 0.847052 0.154118
vt 0.990177 0.153426
vt 0.857123 0.020758
vt 0.526258 0.100121
vt 0.558666 0.181895
vt 0.433171 0.102928
vt 0.392696 0.019157
vt 0.419709 0.182261
vt 0.504026 0.428210
vt 0.847066 0.296129
vt 0.847062 0.864613
vt 0.847056 0.726025
vt 0.847058 0.593574
vt 0.847063 0.986784
vt 0.847054 0.153426
vt 0.847052 0.103989
vt 0.017957 0.199421
vt 0.017269 0.769027
vt 0.335831 0.905046
vt 0.352998 0.913028
vt 0.275550 0.803493
vt 0.307498 0.823938
vt 0.258842 0.878795
vt 0.239530 0.918572
vt 0.248632 0.013526
vt 0.107204 0.009245
vt 0.215644 0.215505
vt 0.214770 0.213244
vt 0.284821 0.699943
vt 0.132353 0.211544
vt 0.343366 0.170746
vt 0.350294 0.071858
vt 0.346924 0.110289
vt 0.353952 0.196808
vt 0.538473 0.968452
vt 0.538520 0.153426
vt 0.647401 0.960904
vt 0.015084 0.903544
vt 0.022359 0.909750
vt 0.069798 0.982839
vt 0.048442 0.839035
vt 0.028468 0.839460
vt 0.084752 0.699284
vt 0.015088 0.770031
vt 0.025472 0.765499
vt 0.072997 0.676505
vt 0.053013 0.839035
vt 0.028468 0.839460
vt 0.084752 0.699284
vt 0.015088 0.676505
vt 0.053013 0.765499
vt 0.072997 0.770031
vt 0.025472 0.839460
vt 0.084752 0.839035
vt 0.028468 0.495988
vt 0.016778 0.555629
vt 0.013468 0.017449
vt 0.269573 0.025476
vt 0.324410 0.368679
vt 0.103745 0.322426
vt 0.121096 0.699284
vt 0.015088 0.676505
vt 0.053013 0.765499
vt 0.072997 0.770031
vt 0.025472 0.699284
vt 0.015088 0.676505
vt 0.053013 0.765499
vt 0.072997 0.770031
vt 0.025472 0.699284
vt 0.015088 0.770031
vt 0.025472 0.765499
vt 0.072997 0.676505
vt 0.053013 0.153426
vt 0.847052 0.153426
vt 0.857123 0.154118
vt 0.990177 0.020758
vt 0.526258 0.100121
vt 0.558666 0.181895
vt 0.433171 0.102928
vt 0.392696 0.019157
vt 0.419709 0.182261
vt 0.504026 0.428210
vt 0.847066 0.296129
vt 0.847062 0.864613
vt 0.847056 0.726025
vt 0.847058 0.593574
vt 0.847063 0.986784
vt 0.847054 0.153426
vt 0.847052 1.000000

f 91/91 95/95 92/92
f 92/92 95/95 93/93
f 93/93 95/95 94/94
f 94/94 95/95 91/91
f 96/96 100/100 97/97
f 97/97 100/100 98/98
f 98/98 100/100 99/99
f 99/99 100/100 96/96
f 101/101 102/102 105/105
f 102/102 103/103 105/105
f 103/103 104/104 105/105
f 104/104 101/101 105/105
f 196/196 197/197 200/200
f 197/197 198/198 200/200
f 198/198 199/199 200/200
f 199/199 196/196 200/200
f 201/201 202/202 205/205
f 202/202 203/203 205/205
f 203/203 204/204 205/205
f 204/204 201/201 205/205
f 206/206 210/210 207/207
f 207/207 210/210 208/208
f 208/208 210/210 209/209
f 209/209 210/210 206/206
f 36/36 8/8 15/15
f 8/8 3/3 7/7
f 6/6 5/5 36/36
f 15/15 27/27 211/211
f 17/17 16/16 11/11
f 19/19 11/11 12/12
f 9/9 18/18 17/17
f 18/18 9/9 16/16
f 17/17 9/9 19/19
f 13/13 19/19 14/14
f 17/17 212/212 211/211
f 212/212 17/17 16/16
f 49/49 25/25 26/26
f 71/71 46/46 213/213
f 21/21 22/22 4/4
f 10/10 22/22 23/23
f 21/21 24/24 5/5
f 22/22 21/21 213/213
f 21/21 213/213 216/216
f 24/24 216/216 7/7
f 5/5 21/21 3/3
f 3/3 8/8 214/214
f 23/23 218/218 213/213
f 22/22 10/10 218/218
f 219/219 214/214 14/14
f 18/18 17/17 32/32
f 32/32 45/45 4/4
f 71/71 26/26 16/16
f 2/2 211/211 16/16
f 220/220 2/2 16/16
f 16/16 25/25 9/9
f 9/9 222/222 10/10
f 29/29 10/10 223/223
f 223/223 50/50 224/224
f 224/224 29/29 225/225
f 225/225 226/226 34/34
f 34/34 35/35 53/53
f 53/53 52/52 227/227
f 227/227 53/53 15/15
f 1/1 27/27 229/229
f 27/27 1/1 16/16
f 221/221 220/220 37/37
f 37/37 1/1 5/5
f 39/39 5/5 71/71
f 4/4 41/41 71/71
f 38/38 3/3 4/4
f 41/41 4/4 40/40
f 40/40 6/6 231/231
f 231/231 229/229 43/43
f 44/44 45/45 26/26
f 26/26 46/46 31/31
f 31/31 47/47 232/232
f 232/232 235/235 236/236
f 236/236 234/234 238/238
f 238/238 241/241 242/242
f 242/242 240/240 244/244
f 244/244 247/247 245/245
f 245/245 247/247 63/63
f 63/63 43/43 64/64
f 64/64 63/63 58/58
f 58/58 65/65 55/55
f 55/55 66/66 25/25
f 25/25 49/49 59/59
f 59/59 67/67 250/250
f 250/250 251/251 52/52
f 69/69 70/70 254/254
f 254/254 66/66 256/256
f 256/256 259/259 257/257
f 257/257 259/259 260/260
f 260/260 263/263 261/261
f 261/261 263/263 264/264
f 264/264 267/267 248/248
f 248/248 266/266 41/41
f 38/38 71/71 43/43
f 4/4 71/71 38/38
f 38/38 72/72 40/40
f 40/40 88/88 39/39
f 39/39 73/73 42/42
f 42/42 90/90 37/37
f 37/37 87/87 41/41
f 41/41 89/89 82/82
f 82/82 75/75 84/84
f 84/84 77/77 83/83
f 83/83 76/76 86/86
f 86/86 79/79 81/81
f 81/81 74/74 85/85
f 85/85 78/78 271/271
f 80/80 272/272 273/273
f 80/80 275/275 276/276
f 80/80 273/273 272/272
f 80/80 276/276 275/275
f 80/80 271/271 277/277
f 277/277 82/82 83/83
f 83/83 280/280 85/85
f 85/85 281/281 84/84
f 84/84 279/279 270/270
f 270/270 283/283 281/281
f 281/281 85/85 106/106
f 113/113 141/141 120/120
f 108/108 113/113 112/112
f 110/110 111/111 141/141
f 132/132 120/120 284/284
f 121/121 122/122 116/116
f 116/116 124/124 117/117
f 123/123 114/114 122/122
f 114/114 123/123 121/121
f 114/114 122/122 124/124
f 124/124 118/118 119/119
f 285/285 122/122 284/284
f 122/122 285/285 121/121
f 130/130 154/154 131/131
f 151/151 176/176 286/286
f 127/127 126/126 109/109
f 127/127 115/115 128/128
f 129/129 126/126 110/110
f 126/126 127/127 286/286
f 286/286 126/126 289/289
f 289/289 129/129 112/112
f 126/126 110/110 108/108
f 113/113 108/108 288/288
f 291/291 128/128 286/286
f 115/115 127/127 291/291
f 288/288 292/292 119/119
f 122/122 123/123 137/137
f 150/150 137/137 109/109
f 131/131 176/176 121/121
f 284/284 107/107 121/121
f 107/107 293/293 121/121
f 130/130 121/121 114/114
f 295/295 114/114 115/115
f 115/115 134/134 296/296
f 155/155 296/296 297/297
f 134/134 297/297 298/298
f 299/299 298/298 139/139
f 140/140 139/139 158/158
f 157/157 158/158 300/300
f 158/158 300/300 120/120
f 132/132 106/106 302/302
f 106/106 132/132 121/121
f 293/293 294/294 142/142
f 106/106 142/142 110/110
f 110/110 144/144 176/176
f 146/146 109/109 176/176
f 108/108 143/143 109/109
f 109/109 146/146 145/145
f 111/111 145/145 304/304
f 302/302 304/304 148/148
f 150/150 149/149 131/131
f 151/151 131/131 136/136
f 152/152 136/136 305/305
f 308/308 305/305 309/309
f 306/306 309/309 311/311
f 314/314 311/311 315/315
f 312/312 315/315 317/317
f 320/320 317/317 319/319
f 320/320 319/319 168/168
f 148/148 168/168 169/169
f 168/168 169/169 163/163
f 170/170 163/163 160/160
f 171/171 160/160 130/130
f 154/154 130/130 164/164
f 172/172 164/164 323/323
f 324/324 323/323 157/157
f 175/175 174/174 327/327
f 171/171 327/327 329/329
f 332/332 329/329 331/331
f 332/332 331/331 333/333
f 336/336 333/333 335/335
f 336/336 335/335 337/337
f 340/340 337/337 322/322
f 338/338 322/322 146/146
f 176/176 143/143 148/148
f 176/176 109/109 143/143
f 177/177 143/143 145/145
f 193/193 145/145 144/144
f 178/178 144/144 147/147
f 195/195 147/147 142/142
f 192/192 142/142 146/146
f 194/194 146/146 187/187
f 180/180 187/187 189/189
f 182/182 189/189 188/188
f 181/181 188/188 191/191
f 184/184 191/191 186/186
f 179/179 186/186 190/190
f 183/183 190/190 344/344
f 345/345 185/185 346/346
f 348/348 185/185 349/349
f 346/346 185/185 345/345
f 349/349 185/185 348/348
f 344/344 185/185 350/350
f 187/187 350/350 188/188
f 353/353 188/188 190/190
f 354/354 190/190 189/189
f 352/352 189/189 342/342
f 356/356 342/342 354/354
