# MOD converted: e_w_wing_03.mod
# 243 verts, 4 faces

v 241.784760 113.571533 -25.542517
v 229.806366 129.703262 -36.621365
v 227.776062 125.766495 -43.894753
v 228.938797 116.379951 -44.584488
v 232.850510 105.129005 -38.427120
v 238.017029 96.311172 -27.774557
v 242.464935 93.294434 -16.695713
v 244.495255 97.231216 -9.422329
v 243.332504 106.617744 -8.732590
v 239.420807 117.868690 -14.889957
v 234.254272 126.686577 -20.214226
v 211.105118 135.527847 -38.140171
v 207.819962 129.157990 -49.908760
v 209.701340 113.970268 -51.024773
v 216.030624 95.765953 -41.061951
v 224.390228 81.498230 -23.825743
v 231.587082 76.617111 -5.899791
v 234.872223 82.986946 5.868786
v 232.990845 98.174652 6.984806
v 226.661575 116.379097 -2.978018
v 218.301971 130.646729 -14.480656
v 192.824234 128.820480 -32.406605
v 189.539093 122.450645 -44.175186
v 191.420456 107.262901 -45.291203
v 197.749741 89.058495 -35.328377
v 206.109344 74.790848 -18.092173
v 213.306198 69.909744 -0.166227
v 216.591339 76.279587 11.602356
v 214.709961 91.467323 12.718372
v 208.380676 109.671730 2.755548
v 200.021072 123.939369 -10.181490
v 180.829330 111.733307 -21.260334
v 178.799011 107.796516 -28.533720
v 179.961761 98.409904 -29.223452
v 183.873474 87.159042 -23.066095
v 189.039993 78.341171 -12.413533
v 193.487885 75.324478 -1.334682
v 195.518204 79.261246 5.938694
v 194.355453 88.647774 6.628433
v 190.443756 99.898727 0.471069
v 185.277222 108.716614 -8.247496
v 177.433945 89.960846 -9.889915
v 182.670654 91.882225 -13.604504
v 170.121490 90.229851 -6.401903
v 170.461960 95.458786 -11.458652
v 173.684357 82.353539 -2.929836
v 176.226837 82.714638 0.195400
v 174.235275 90.814133 42.540169
v 222.867096 93.353500 43.871704
v 210.977249 106.031532 34.252460
v 214.502197 106.207161 27.126499
v 219.424438 100.731926 25.215694
v 223.863846 91.697189 29.249908
v 226.124695 82.553909 37.688210
v 225.343430 76.794510 47.307449
v 221.818481 76.618881 54.433411
v 216.896240 82.094116 56.344215
v 212.456848 91.128853 52.309998
v 210.195984 100.272133 41.174210
v 194.215393 109.986023 25.609951
v 199.918900 110.270195 14.079906
v 207.883255 101.411087 10.988155
v 215.066330 86.792580 17.515648
v 218.724487 71.998436 31.169109
v 217.460373 62.679531 46.733353
v 211.756882 62.395359 58.263412
v 203.792511 71.254478 61.355148
v 196.609436 85.872986 54.827667
v 192.951294 100.667114 35.478039
v 178.984009 103.706490 19.913784
v 184.687515 103.990662 8.383732
v 192.651855 95.131554 5.291985
v 199.834946 80.513046 11.819482
v 203.493088 65.718903 25.472935
v 202.228973 56.400002 41.037193
v 196.525513 56.115833 52.567245
v 188.561142 64.974937 55.658974
v 181.378036 79.593475 49.131485
v 177.719910 94.387596 28.610863
v 170.170242 89.207802 18.991627
v 173.695190 89.383423 11.865662
v 178.617432 83.908195 9.954865
v 183.056824 74.873459 13.989076
v 185.317688 65.730179 22.427376
v 184.536423 59.970779 32.046619
v 181.011475 59.795147 39.172577
v 176.089233 65.270386 41.083382
v 171.649841 74.305115 37.049164
v 169.388977 83.448395 22.488995
v 169.250870 71.248840 24.120708
v 173.614014 73.047661 15.732087
v 166.007690 73.364563 22.303982
v 162.692459 75.444466 16.565441
v 168.637283 66.230331 23.652393
v 166.947266 63.901043 27.199001
v 163.273163 69.595688 -0.000002
v 106.343582 13.471803 -5.825150
v 103.709770 18.879303 -11.005703
v 100.883156 20.626564 -15.438262
v 100.297096 21.248833 -18.833649
v 99.709335 15.623474 -0.000002
v 107.588455 14.344576 -7.018301
v 106.750916 18.561556 -12.582789
v 105.704971 20.779757 -15.921558
v 105.519196 22.064547 -20.774750
v 104.745781 14.662126 -0.000004
v 112.061653 13.877207 -6.600252
v 113.230217 18.999666 -12.164738
v 114.325737 20.994112 -15.818028
v 110.406898 19.679697 -20.068880
v 109.799530 13.866571 -16.910444
v 115.720749 21.373438 -21.763630
v 114.947319 13.971018 -0.000004
v 113.099228 12.765955 -7.018299
v 115.800781 17.616007 -12.800099
v 118.713974 19.502893 -16.776449
v 120.702187 19.885853 -20.472637
v 120.034958 13.499782 -11.390821
v 103.014633 12.699182 -11.390821
v 106.164131 10.957467 -11.390821
v 113.210602 10.221231 -9.787415
v 118.245262 11.107837 -0.000004
v 106.174034 12.144784 -0.000000
v 107.479996 10.849573 -0.000002
v 111.445320 10.435266 -0.000002
v 112.990814 11.432543 5.825144
v 103.709770 18.879313 11.005697
v 100.883141 20.626556 15.438257
v 100.297096 21.248833 18.833635
v 99.709335 15.623475 7.018297
v 106.750916 18.561563 12.582785
v 105.704956 20.779757 15.921560
v 105.519196 22.064547 20.774744
v 104.745781 14.662127 6.600248
v 113.230217 18.999666 12.164736
v 114.325737 20.994120 15.818029
v 110.406898 19.679697 20.068876
v 109.799522 13.866571 16.910437
v 115.720741 21.373440 21.763632
v 114.947319 13.971019 7.018293
v 115.800781 17.616007 12.800093
v 118.713966 19.502895 16.776442
v 120.702187 19.885853 20.472635
v 120.034950 13.499790 11.390818
v 103.014633 12.699182 11.390818
v 106.164124 10.957468 11.390821
v 113.210602 10.221232 9.787409
v 118.245270 11.107844 -10.224590
v 86.048340 19.630095 -11.895193
v 90.652679 19.709196 -14.280895
v 94.172028 19.523315 -17.932556
v 95.154007 17.570641 -22.299318
v 95.050957 15.352973 -6.777651
v 92.264069 17.890388 -12.021544
v 96.879440 18.843597 -16.902088
v 99.800285 14.308258 -3.678978
v 98.500710 16.107788 -7.460640
v 102.160355 17.083122 -11.164877
v 104.368958 13.359437 -0.000002
v 106.695740 13.260691 -0.000002
v 109.032120 12.896547 -0.000002
v 110.571541 11.788065 10.224585
v 86.048325 19.630095 11.895182
v 90.652695 19.709198 14.280890
v 94.172012 19.523315 17.932550
v 95.154007 17.570633 22.299314
v 95.050941 15.352966 6.777643
v 92.264069 17.890396 12.021540
v 96.879425 18.843590 16.902082
v 99.800285 14.308259 3.678972
v 98.500694 16.107788 7.460630
v 102.160339 17.083124 11.164869
v 104.368958 13.359437 -1.674872
v 106.412369 15.320283 1.674866
v 106.412376 15.320292 -2.629543
v 114.232689 14.556613 2.629541
v 114.232689 14.556613 -2.241962
v 105.150948 11.037042 2.241959
v 105.150940 11.037042 -2.241962
v 114.070236 10.105128 2.241959
v 114.070229 10.105128 2.381038
v 110.833824 16.540384 -2.381047
v 110.833908 16.540369 8.414283
v 176.297195 131.867874 7.451751
v 160.968140 136.954636 -1.382016
v 163.760239 134.807083 -6.458718
v 170.207245 130.000137 -5.839209
v 177.846634 124.369911 0.239879
v 183.760391 120.066940 9.456425
v 185.689697 118.734840 18.290318
v 182.897583 120.882393 23.367012
v 176.450592 125.689331 22.747505
v 168.811203 131.319565 16.668419
v 162.897430 135.622528 6.936611
v 145.557678 132.052155 -7.356728
v 150.075378 128.577332 -15.570994
v 160.506866 120.799545 -14.568607
v 172.867645 111.689651 -4.732443
v 182.436325 104.727303 10.180428
v 185.557983 102.571907 24.473774
v 181.040283 106.046730 32.688042
v 170.608795 113.824509 31.685658
v 158.248016 122.934410 21.849491
v 148.679321 129.896759 7.065601
v 135.952103 119.033020 -7.227719
v 140.469803 115.558197 -15.441985
v 150.901291 107.780403 -14.439600
v 163.262070 98.670502 -4.603437
v 172.830719 91.708160 10.309464
v 175.952408 89.552765 24.602783
v 171.434692 93.027580 32.817059
v 161.003220 100.805374 31.814671
v 148.642441 109.915276 21.978504
v 139.073761 116.877617 7.797394
v 135.233459 102.074547 -1.036375
v 138.025558 99.926987 -6.113073
v 144.472565 95.120049 -5.493566
v 152.111938 89.489822 0.585520
v 158.025696 85.186867 9.802185
v 159.955002 83.854744 18.635948
v 157.162903 86.002304 23.712654
v 150.715897 90.809250 23.093143
v 143.076523 96.439476 17.014061
v 137.162750 100.742439 8.868420
v 142.484451 86.039017 8.831455
v 145.236053 89.768448 3.047322
v 138.901138 83.688728 8.506706
v 135.275116 86.418121 5.676278
v 144.220276 79.790298 12.760437
v 143.881683 80.110336 14.509735
v 138.353256 84.206558 -0.515212
v 142.924210 63.709633 -0.515170
v 142.359741 64.175186 8.864243
v 144.572418 88.473305 8.857239
v 143.993820 88.652176 -0.515213
v 110.302963 10.919733 -0.515181
v 109.631729 11.275980 -0.515202
v 123.107147 39.383320 -0.515162
v 122.549454 39.946800 -9.276758
v 181.942841 91.185287 -9.123852
v 181.372238 91.451355 22.370537
v 171.455109 71.562119 22.747879
v 171.100433 72.153946 0.751672

vt 0.994126 0.077837
vt 0.952495 0.145194
vt 0.952495 0.212550
vt 0.952495 0.279907
vt 0.952495 0.347264
vt 0.952495 0.414620
vt 0.952495 0.347264
vt 0.952495 0.279907
vt 0.952495 0.212550
vt 0.952495 0.145194
vt 0.952495 0.001676
vt 0.843503 0.098855
vt 0.843503 0.196035
vt 0.843503 0.293214
vt 0.843503 0.390393
vt 0.843503 0.487572
vt 0.843503 0.390393
vt 0.843503 0.293214
vt 0.843503 0.196035
vt 0.843503 0.098855
vt 0.843503 0.001676
vt 0.708782 0.098855
vt 0.708782 0.196035
vt 0.708782 0.293214
vt 0.708782 0.390393
vt 0.708782 0.487572
vt 0.708782 0.390393
vt 0.708782 0.293214
vt 0.708782 0.196035
vt 0.708782 0.098855
vt 0.708782 0.046232
vt 0.591557 0.125260
vt 0.591557 0.204287
vt 0.591557 0.283314
vt 0.591557 0.362342
vt 0.591557 0.441369
vt 0.591557 0.362342
vt 0.591557 0.283314
vt 0.591557 0.204287
vt 0.591557 0.125260
vt 0.591557 0.245896
vt 0.519891 0.494541
vt 0.159653 0.532860
vt 0.009820 0.619263
vt 0.009820 0.455351
vt 0.009820 0.381885
vt 0.009820 0.494514
vt 0.009820 0.753538
vt 0.508965 0.583047
vt 0.467334 0.650403
vt 0.467334 0.717760
vt 0.467334 0.785117
vt 0.467334 0.852474
vt 0.467334 0.919830
vt 0.467334 0.852474
vt 0.467334 0.785117
vt 0.467334 0.717760
vt 0.467334 0.650403
vt 0.467334 0.506886
vt 0.358342 0.604065
vt 0.358342 0.701245
vt 0.358342 0.798424
vt 0.358342 0.895603
vt 0.358342 0.992782
vt 0.358342 0.895603
vt 0.358342 0.798424
vt 0.358342 0.701245
vt 0.358342 0.604065
vt 0.358342 0.506886
vt 0.223621 0.604065
vt 0.223621 0.701245
vt 0.223621 0.798424
vt 0.223621 0.895603
vt 0.223621 0.992782
vt 0.223621 0.895603
vt 0.223621 0.798424
vt 0.223621 0.701245
vt 0.223621 0.604065
vt 0.223621 0.551442
vt 0.106397 0.630469
vt 0.106397 0.709497
vt 0.106397 0.788524
vt 0.106397 0.867552
vt 0.106397 0.946579
vt 0.106397 0.867552
vt 0.106397 0.788524
vt 0.106397 0.709497
vt 0.106397 0.630469
vt 0.106397 0.751106
vt 0.034731 0.560160
vt 0.717517 0.598479
vt 0.567684 0.684882
vt 0.567684 0.520970
vt 0.567684 0.447504
vt 0.567684 0.560134
vt 0.567684 0.983805
vt 0.814883 0.914000
vt 0.774282 0.851920
vt 0.736087 0.798802
vt 0.727823 0.757875
vt 0.727823 0.983805
vt 0.838103 0.899702
vt 0.813303 0.833021
vt 0.797086 0.793011
vt 0.793024 0.735069
vt 0.793024 0.983805
vt 0.878346 0.904712
vt 0.894962 0.838030
vt 0.906222 0.794252
vt 0.858225 0.744192
vt 0.858225 0.781161
vt 0.923425 0.722906
vt 0.923425 0.983805
vt 0.901566 0.899702
vt 0.929424 0.830417
vt 0.963898 0.782766
vt 0.988626 0.731522
vt 0.988626 0.698449
vt 0.773654 0.698449
vt 0.815940 0.698449
vt 0.906354 0.698449
vt 0.962825 0.666045
vt 0.814491 0.666045
vt 0.841361 0.666045
vt 0.875088 0.666045
vt 0.901958 0.914000
vt 0.774282 0.851920
vt 0.736087 0.798802
vt 0.727823 0.757875
vt 0.727823 0.899702
vt 0.813303 0.833021
vt 0.797086 0.793011
vt 0.793024 0.735069
vt 0.793024 0.904712
vt 0.894962 0.838030
vt 0.906222 0.794252
vt 0.858225 0.744192
vt 0.858225 0.781161
vt 0.923425 0.722906
vt 0.923425 0.899702
vt 0.929424 0.830417
vt 0.963898 0.782766
vt 0.988626 0.731522
vt 0.988626 0.698449
vt 0.773654 0.698449
vt 0.815940 0.698449
vt 0.906354 0.698449
vt 0.962825 0.870800
vt 0.507440 0.850735
vt 0.557657 0.822081
vt 0.596322 0.778223
vt 0.609280 0.725776
vt 0.610686 0.912200
vt 0.577339 0.849218
vt 0.626679 0.790599
vt 0.663770 0.949416
vt 0.647516 0.903997
vt 0.686388 0.859507
vt 0.714770 0.989156
vt 0.748211 0.969975
vt 0.761514 0.952148
vt 0.770820 0.870800
vt 0.507440 0.850735
vt 0.557657 0.822081
vt 0.596322 0.778223
vt 0.609280 0.725776
vt 0.610686 0.912200
vt 0.577339 0.849218
vt 0.626679 0.790599
vt 0.663770 0.949416
vt 0.647516 0.903997
vt 0.686388 0.859507
vt 0.714770 0.642544
vt 0.739502 0.593779
vt 0.739502 0.642544
vt 0.832001 0.593779
vt 0.832001 0.650800
vt 0.710045 0.585523
vt 0.710045 0.650800
vt 0.861459 0.585523
vt 0.861459 0.583498
vt 0.785024 0.652824
vt 0.785026 0.248328
vt 0.505512 0.077837
vt 0.463881 0.145194
vt 0.463881 0.212550
vt 0.463881 0.279907
vt 0.463881 0.347264
vt 0.463881 0.414620
vt 0.463881 0.347264
vt 0.463881 0.279907
vt 0.463881 0.212550
vt 0.463881 0.145194
vt 0.463881 0.001676
vt 0.354889 0.098855
vt 0.354889 0.196035
vt 0.354889 0.293214
vt 0.354889 0.390393
vt 0.354889 0.487572
vt 0.354889 0.390393
vt 0.354889 0.293214
vt 0.354889 0.196035
vt 0.354889 0.098855
vt 0.354889 0.001676
vt 0.220168 0.098855
vt 0.220168 0.196035
vt 0.220168 0.293214
vt 0.220168 0.390393
vt 0.220168 0.487572
vt 0.220168 0.390393
vt 0.220168 0.293214
vt 0.220168 0.196035
vt 0.220168 0.098855
vt 0.220168 0.046232
vt 0.102944 0.125260
vt 0.102944 0.204287
vt 0.102944 0.283314
vt 0.102944 0.362342
vt 0.102944 0.441369
vt 0.102944 0.362342
vt 0.102944 0.283314
vt 0.102944 0.204287
vt 0.102944 0.125260
vt 0.102944 0.245896
vt 0.031277 0.494006
vt 0.391238 0.532325
vt 0.541071 0.618728
vt 0.541071 0.454816
vt 0.541071 0.381350
vt 0.541071 0.493979
vt 0.541071 0.570888
vt 0.987852 0.507570
vt 0.988032 0.572213
vt 0.742476 0.507439
vt 0.742488 0.571685
vt 0.742494 0.507443
vt 0.742489 0.571129
vt 0.876425 0.507531
vt 0.876812 0.572067
vt 0.742488 0.507468
vt 0.742482 0.572153
vt 0.742502 0.507449
vt 0.742490 1.000000

f 177/177 180/180 176/176
f 180/180 177/177 181/181
f 1/1 183/183 177/177
f 176/176 177/177 183/183
