# MOD converted: e_w_costume_celebrity_body.mod
# 509 verts, 37 faces

v 95.665741 -0.766622 4.914300
v 95.026451 -9.587108 7.516100
v 95.975334 4.846415 9.020881
v 95.221458 -6.317968 9.139211
v 87.280830 -5.578328 4.911951
v 114.165207 -0.781432 5.009029
v 122.611458 2.854044 4.507281
v 120.603455 -1.682561 5.190431
v 116.124031 3.935246 0.000000
v 116.894196 6.252837 4.593371
v 97.756020 -12.958941 6.143091
v 103.453140 9.182835 6.859148
v 109.072540 9.900496 10.387201
v 103.500290 7.715027 11.502800
v 103.423996 -0.475973 10.821501
v 108.975525 9.266185 8.652481
v 114.817871 4.076288 7.474739
v 113.089752 7.716965 13.762191
v 108.592308 8.877710 12.558400
v 104.149681 6.782190 12.935002
v 104.143776 -0.008746 13.816199
v 109.099586 -1.948851 12.433300
v 112.922577 -0.658777 12.825499
v 114.110252 3.984663 8.773780
v 113.234528 -0.281949 11.810700
v 112.589844 8.018909 10.679100
v 109.352669 -2.919754 8.871488
v 104.868500 -10.954597 5.020194
v 109.549881 -6.089654 4.508070
v 105.170525 -12.290722 11.256201
v 98.392975 -7.143511 9.170403
v 101.450104 -12.561196 9.093270
v 97.869118 -11.505608 4.410780
v 101.345528 -14.049107 11.889299
v 102.046280 -7.798165 25.125797
v 104.403923 7.692623 24.460503
v 99.795654 5.476007 24.610498
v 99.962639 0.417854 27.583099
v 107.836029 0.156449 26.145096
v 103.985054 -1.641806 15.962100
v 112.273224 0.395100 16.319098
v 112.444176 6.188355 27.706297
v 108.009941 5.386879 39.680721
v 98.420174 7.198405 37.772572
v 94.328140 4.905116 32.386612
v 96.187698 5.196580 26.764601
v 98.904297 5.101947 29.287203
v 102.676971 7.497859 34.426514
v 100.632004 7.766858 26.838095
v 99.018311 0.370680 36.379410
v 104.691002 5.539120 29.779795
v 106.893013 0.095999 36.231087
v 104.628998 -0.597523 29.858601
v 107.095001 5.375552 37.732994
v 94.243286 -0.120768 39.591675
v 98.229195 -2.696462 34.407776
v 100.472977 -2.636760 27.341406
v 103.581955 7.714561 10.209301
v 106.970711 -6.772573 41.441071
v 102.195251 5.273324 41.429642
v 102.170776 -0.746992 45.711197
v 100.089790 5.049098 28.372789
v 103.041000 -1.741729 32.524994
v 96.145599 -0.085635 44.161621
v 96.528702 6.713489 42.422783
v 92.722610 4.653467 42.148598
v 92.630402 -0.150556 43.801407
v 96.407463 -2.744951 45.439194
v 100.274803 -0.862271 7.100763
v 84.497787 6.512617 6.468091
v 82.105835 -8.719875 10.013938
v 82.670525 -5.783060 -0.000000
v 84.990677 7.439160 8.069279
v 80.020630 9.498480 12.018013
v 80.045502 6.445291 12.897599
v 83.389824 -0.715821 14.734030
v 79.179298 -0.286815 7.316223
v 76.891602 -7.977250 12.822426
v 78.093903 -5.622667 1.665680
v 70.646591 0.660650 0.000000
v 70.360901 0.610695 9.398400
v 74.447098 10.585200 10.455599
v 70.001793 8.569869 16.457998
v 73.014000 0.138600 14.195200
v 72.966904 -6.194989 15.430997
v 60.917091 -6.186742 17.339800
v 60.885483 1.740327 8.209988
v 72.508202 -7.909712 9.634030
v 60.585098 -8.788696 3.296190
v 69.710503 8.305250 4.611197
v 60.173401 8.396197 14.356300
v 74.059311 5.618499 12.256500
v 60.735001 8.265580 2.635959
v 71.561203 -5.864999 2.262649
v 59.748997 1.097800 3.599487
v 60.123798 -5.908008 5.554136
v 48.629498 -5.419729 10.569799
v 49.151699 -7.550950 4.512318
v 47.441296 1.563493 6.914859
v 47.551693 7.601020 16.702099
v 48.443188 2.114957 12.697801
v 48.166500 7.455450 15.246094
v 49.652096 -4.881311 6.143130
v 45.318398 -4.985740 4.895458
v 44.634899 1.578636 15.306400
v 46.417301 -4.494491 12.921600
v 46.202698 7.492739 7.014108
v 45.823803 7.658529 10.970899
v 45.770500 -7.273841 16.873398
v 45.863094 2.165926 14.372302
v 35.918503 9.240403 18.503407
v 35.618698 3.077835 11.302199
v 42.378899 -6.217441 6.830048
v 42.601891 -4.381608 15.638998
v 43.370201 -3.694329 4.990849
v 34.116600 2.656086 6.671240
v 20.483200 3.588789 9.189461
v 20.484205 -4.618872 7.779896
v 35.585098 9.489619 17.271500
v 20.485106 -4.281381 19.047203
v 20.485802 4.294416 15.818404
v 20.485001 9.062570 8.996699
v 20.483406 8.895572 4.038440
v 96.015388 6.531582 10.173701
v 87.616341 -0.895704 3.602994
v 88.079285 5.456209 0.000000
v 86.873428 -10.437299 -0.000001
v 105.083656 9.238218 -0.000000
v 95.923340 6.958276 0.000000
v 104.041107 -11.798178 0.000000
v 81.535240 -10.198397 8.737553
v 107.070038 -8.339931 8.681263
v 109.424957 -5.008595 2.417103
v 106.005394 -10.315136 0.000000
v 105.851898 -10.013343 4.771334
v 107.573547 -8.745028 10.385335
v 106.933098 -4.030363 11.889845
v 102.889091 -3.188198 11.005386
v 99.290344 -0.822639 9.324833
v 100.989716 6.608723 10.080017
v 100.099976 3.171177 7.954846
v 97.987953 5.451948 -7.360450
v 88.003334 4.415300 -10.131200
v 95.665741 -0.766623 -5.100180
v 87.014030 -9.081161 -4.914298
v 95.026451 -9.587109 -9.020879
v 95.221458 -6.317972 0.000000
v 94.858101 -10.682660 -9.139209
v 87.280830 -5.578331 -7.516100
v 95.975334 4.846415 -4.911951
v 114.166000 -0.780686 -5.009031
v 122.611458 2.854043 -4.507280
v 120.603455 -1.682562 -5.190431
v 116.123787 3.936414 -0.000000
v 123.522461 5.340425 0.000001
v 119.354454 -4.180035 -0.000000
v 113.184235 -3.294353 -4.593370
v 97.756020 -12.958940 -6.859149
v 109.068420 9.899915 -10.387201
v 103.499420 7.714040 -11.502800
v 103.424591 -0.476934 -10.080016
v 100.099976 3.171178 -9.324831
v 100.989029 6.607266 -10.821500
v 108.971954 9.266060 -8.652481
v 114.817154 4.079119 -7.474739
v 113.086906 7.718687 -13.762196
v 108.587639 8.877752 -12.558400
v 104.148155 6.780474 -12.935004
v 104.144890 -0.010432 -6.143090
v 103.453140 9.182834 -13.816199
v 109.103310 -1.948425 -12.433299
v 112.925728 -0.655300 -12.825497
v 114.109230 3.989227 -8.773779
v 113.236351 -0.279982 -11.810700
v 112.585197 8.021978 -10.679097
v 109.355850 -2.919699 -8.681263
v 109.424957 -5.008596 -5.020194
v 109.555099 -6.090208 -4.771333
v 107.580307 -8.746709 -2.417103
v 106.005394 -10.315137 -9.170403
v 101.450104 -12.561196 -9.093270
v 97.869118 -11.505609 -4.410779
v 101.345528 -14.049107 -4.508069
v 105.170525 -12.290722 0.000000
v 100.370018 -12.927844 -11.889298
v 102.046280 -7.798164 -11.256200
v 98.392975 -7.143511 -8.871488
v 104.868500 -10.954597 0.000000
v 97.865540 -12.011594 -25.125797
v 104.403946 7.692620 -24.460503
v 99.795670 5.476024 -24.610498
v 99.962624 0.417869 -27.583099
v 107.836021 0.156430 -26.145098
v 103.985046 -1.641806 -15.962100
v 112.275124 0.398229 -16.319098
v 112.441582 6.191671 -27.706295
v 108.009956 5.386858 -39.680717
v 98.420174 7.198405 -37.772572
v 94.328140 4.905113 -32.386608
v 96.187698 5.196577 -26.764601
v 98.904297 5.101948 -29.287203
v 102.676987 7.497857 -34.426506
v 100.632011 7.766859 -26.838099
v 99.018311 0.370680 -36.379406
v 104.691002 5.539123 -29.779795
v 106.893013 0.095998 -36.231091
v 104.628998 -0.597520 -29.858601
v 107.095001 5.375550 -37.732994
v 94.243286 -0.120771 -39.591702
v 98.229263 -2.696463 -34.407787
v 100.472992 -2.636759 -27.341404
v 103.581970 7.714561 0.000000
v 111.905304 8.965495 -10.385334
v 106.934807 -4.030928 -41.441071
v 102.195251 5.273327 -41.429642
v 102.170776 -0.746989 -45.711197
v 100.089790 5.049099 -28.372795
v 103.041000 -1.741729 -32.524994
v 96.145599 -0.085638 -0.000000
v 109.673637 -6.411828 -10.209301
v 106.970711 -6.772574 -44.161621
v 96.528717 6.713489 -42.422783
v 92.722610 4.653464 -42.148598
v 92.630402 -0.150559 -43.801399
v 96.407440 -2.744950 -45.439194
v 100.274803 -0.862270 -8.069280
v 80.020630 9.498479 -7.100764
v 84.497787 6.512617 -12.018013
v 80.045502 6.445291 -12.897599
v 83.389824 -0.715820 -14.734032
v 79.179298 -0.286823 -7.316223
v 76.891602 -7.977252 -6.468090
v 82.105835 -8.719878 -12.822426
v 78.093903 -5.622668 -10.013937
v 82.670525 -5.783062 -0.000000
v 80.070030 10.492882 -1.665680
v 70.646591 0.660654 0.000001
v 70.636642 7.044327 -9.398399
v 74.447098 10.585200 -10.455599
v 70.001793 8.569869 0.000000
v 73.907799 11.140402 -16.457998
v 73.014000 0.138649 -14.195200
v 72.966904 -6.194989 -15.430996
v 60.917099 -6.186740 -17.339800
v 60.885490 1.740328 -8.209990
v 72.508202 -7.909711 -9.634028
v 60.585094 -8.788695 -3.296190
v 69.710503 8.305250 -4.611198
v 60.173401 8.396196 -14.356300
v 74.059311 5.618499 -12.256500
v 60.734997 8.265579 -2.635960
v 71.561203 -5.864998 -2.262650
v 59.748997 1.097801 -3.599489
v 60.123798 -5.908008 -5.554137
v 48.629498 -5.419729 -10.569801
v 49.151695 -7.550950 -4.512319
v 47.441296 1.563495 -6.914859
v 47.551693 7.601020 -16.702099
v 48.443188 2.114958 -12.697800
v 48.166504 7.455450 -15.246095
v 49.652096 -4.881310 -6.143131
v 45.318398 -4.985740 -4.895459
v 44.634899 1.578636 -15.306401
v 46.417297 -4.494491 -12.921599
v 46.202698 7.492739 -7.014109
v 45.823803 7.658530 -10.970900
v 45.770500 -7.273840 -16.873398
v 45.863094 2.165929 -14.372300
v 35.918503 9.240402 -18.503405
v 35.618698 3.077837 -11.302199
v 42.378899 -6.217441 -6.830048
v 42.601891 -4.381610 -15.638996
v 43.370201 -3.694330 -4.990849
v 34.116600 2.656090 -6.671240
v 20.483202 3.588789 -9.189461
v 20.484205 -4.618872 -7.779898
v 35.585098 9.489620 -17.271502
v 20.485102 -4.281381 -19.047203
v 20.485802 4.294416 -15.818406
v 20.485001 9.062570 -8.996699
v 20.483404 8.895572 -0.000000
v 75.876900 -8.470741 -0.000001
v 71.171677 -5.939044 -4.038440
v 96.015388 6.531582 -8.737552
v 107.070038 -8.339932 -0.000000
v 107.468620 -8.528469 -11.889846
v 102.890167 -3.189231 -11.005386
v 99.290344 -0.822637 -7.954845
v 97.541862 5.451948 13.519556
v 83.456062 -0.481107 10.176701
v 84.458344 6.369967 6.361953
v 81.843178 -10.381364 11.840308
v 82.510262 -6.598097 5.144302
v 85.093300 8.459453 7.645879
v 77.214622 -11.924600 13.871172
v 77.672325 -7.512981 12.558018
v 79.883118 8.043625 6.411163
v 80.330368 11.298933 15.772229
v 78.862328 0.141708 8.938250
v 70.384956 -13.676963 8.380822
v 70.368340 14.809535 10.596362
v 59.117603 -16.224497 16.044960
v 70.384956 -8.172043 18.370647
v 59.117603 -9.417361 15.693577
v 70.384956 10.219769 18.786566
v 70.384956 0.357648 21.317070
v 59.117611 0.677439 17.812927
v 59.117607 11.837775 9.622002
v 59.117611 17.697395 11.741612
v 47.380356 -18.240404 19.974346
v 47.380356 -10.255701 22.992392
v 47.380356 0.864434 19.128878
v 47.380360 13.238254 10.721371
v 47.447327 20.064638 -0.000000
v 70.384956 -15.914280 -0.000003
v 59.117611 -18.904842 -0.000001
v 47.669971 21.492937 -13.519556
v 83.456062 -0.481109 -10.176702
v 84.458344 6.369966 -6.361951
v 81.843178 -10.381365 -0.000000
v 81.556885 -12.004987 -11.840307
v 82.510262 -6.598101 -5.144302
v 85.093300 8.459453 0.000000
v 77.214630 -13.860891 -7.645880
v 77.214622 -11.924600 -13.871173
v 77.672325 -7.512979 -12.558018
v 79.883118 8.043623 -6.411163
v 80.330368 11.298933 -15.772228
v 78.862328 0.141712 -0.000000
v 85.264275 8.911524 -0.000000
v 80.330376 12.245818 -8.938258
v 70.384956 -13.676965 -8.380824
v 70.368340 14.809535 -0.000000
v 70.368332 16.153545 -10.596364
v 59.117603 -16.224495 -16.044962
v 70.384956 -8.172043 -18.370644
v 59.117603 -9.417359 -15.693578
v 70.384956 10.219769 -18.786562
v 70.384964 0.357660 -21.317072
v 59.117603 0.677443 -17.812931
v 59.117607 11.837774 -9.622003
v 59.117603 17.697395 -0.000000
v 59.117603 19.404070 -0.000003
v 47.380360 -20.937605 -11.741609
v 47.380356 -18.240404 -19.974346
v 47.380356 -10.255702 -22.992392
v 47.380356 0.864434 -19.128878
v 47.380356 13.238251 -10.721372
v 47.447327 20.064636 7.360449
v 88.003334 4.415300 5.100181
v 87.014030 -9.081160 -10.173701
v 87.616341 -0.895704 -0.000000
v 88.152122 5.818109 -3.602993
v 88.079285 5.456209 9.576677
v 91.119026 -0.857109 4.723266
v 90.498222 -8.877854 7.016429
v 91.467308 4.295145 8.565091
v 90.729111 -5.683898 3.489357
v 91.613869 5.432352 -0.000000
v 91.515717 5.952817 -9.576677
v 91.119026 -0.857110 -4.723266
v 90.498222 -8.877855 0.000000
v 90.442268 -10.034179 -7.016429
v 91.467308 4.295145 -8.565091
v 90.729126 -5.683897 -3.489356
v 91.613869 5.432353 -35.662041
v 100.114372 8.873845 -38.692390
v 103.725800 6.921082 -39.947598
v 105.221710 2.206691 -38.692390
v 103.725800 -2.507699 -35.662045
v 100.114380 -4.460464 -32.631691
v 96.502937 -2.507698 -31.376476
v 95.007034 2.206692 -32.631691
v 96.502937 6.921082 -37.777264
v 98.339478 8.873845 -40.807617
v 101.950920 6.921082 -42.062828
v 103.446823 2.206691 -40.807613
v 101.950912 -2.507699 -37.777264
v 98.339478 -4.460462 -34.746914
v 94.728058 -2.507698 -33.491703
v 93.232147 2.206690 -34.746910
v 94.728058 6.921080 -40.050442
v 103.129723 7.653807 -36.705212
v 99.143028 9.809484 -41.436081
v 104.781059 2.449549 -40.050442
v 103.129723 -2.754707 -36.705208
v 99.143013 -4.910381 -33.359978
v 95.156334 -2.754707 -31.974342
v 93.504990 2.449552 -33.359982
v 95.156334 7.653807 12.558400
v 104.149681 6.782190 11.502800
v 103.423996 -0.475973 0.000000
v 104.041107 -11.798178 24.460503
v 99.795654 5.476007 26.764601
v 98.904297 5.101947 37.772572
v 94.328140 4.905116 32.386612
v 96.187698 5.196580 42.422783
v 92.722610 4.653467 1.665680
v 70.646591 0.660650 4.512318
v 47.441296 1.563493 4.895458
v 44.634899 1.578636 4.990849
v 34.116600 2.656086 2.262649
v 59.748997 1.097800 6.671240
v 20.483200 3.588789 0.000000
v 70.360901 0.610695 4.038440
v 96.015388 6.531582 8.681263
v 109.424957 -5.008595 2.417103
v 106.005394 -10.315136 4.771334
v 107.573547 -8.745028 10.385335
v 106.933098 -4.030363 11.502800
v 103.423996 -0.475973 10.080017
v 100.099976 3.171177 7.516100
v 95.975334 4.846415 7.954846
v 97.987953 5.451948 4.038440
v 96.015388 6.531582 0.000000
v 86.873428 -10.437299 0.000000
v 90.442268 -10.034179 0.000000
v 116.894196 6.252837 -0.000000
v 123.522461 5.340425 0.000001
v 119.354454 -4.180035 -0.000000
v 113.184235 -3.294353 -0.000001
v 105.083656 9.238218 -12.558400
v 104.148155 6.780474 -11.502800
v 103.424591 -0.476934 -0.000000
v 95.923340 6.958276 0.000000
v 104.041107 -11.798178 0.000000
v 105.851898 -10.013343 -24.460503
v 99.795670 5.476024 -26.764601
v 98.904297 5.101948 0.000000
v 111.905304 8.965495 -37.772572
v 94.328140 4.905113 -0.000000
v 109.673637 -6.411828 -32.386608
v 96.187698 5.196577 -42.422783
v 92.722610 4.653464 0.000000
v 81.535240 -10.198397 -0.000000
v 80.070030 10.492882 -0.000000
v 84.990677 7.439160 0.000000
v 70.360901 0.610695 0.000001
v 70.636642 7.044327 0.000000
v 73.907799 11.140402 -1.665680
v 70.646591 0.660654 -4.512319
v 47.441296 1.563495 -4.895459
v 44.634899 1.578636 -4.990849
v 34.116600 2.656090 -2.262650
v 59.748997 1.097801 -6.671240
v 20.483202 3.588789 -0.000000
v 75.876900 -8.470741 -0.000001
v 71.171677 -5.939044 0.000000
v 70.360901 0.610695 -0.000000
v 91.515717 5.952817 -0.000000
v 88.152122 5.818109 -4.038440
v 96.015388 6.531582 -8.681263
v 109.424957 -5.008596 -2.417103
v 106.005394 -10.315137 -4.771333
v 107.580307 -8.746709 -0.000000
v 107.468620 -8.528469 -10.385334
v 106.934807 -4.030928 -11.502800
v 103.424591 -0.476934 -10.080016
v 100.099976 3.171178 -7.516100
v 95.975334 4.846415 -7.954845
v 97.541862 5.451948 -4.038440
v 96.015388 6.531582 10.173701
v 87.616341 -0.895704 7.360449
v 88.003334 4.415300 0.000000
v 86.873428 -10.437299 5.100181
v 87.014030 -9.081160 9.139211
v 87.280830 -5.578328 3.602994
v 88.079285 5.456209 -0.000000
v 88.152122 5.818109 -10.173701
v 87.616341 -0.895704 -7.360450
v 88.003334 4.415300 -5.100180
v 87.014030 -9.081161 -9.139209
v 87.280830 -5.578331 -3.602993
v 88.079285 5.456209 -0.000000
v 85.264275 8.911524 -0.000000
v 80.330376 12.245818 -0.000000
v 70.368332 16.153545 -0.000000
v 59.117603 19.404070 -0.000001
v 47.669971 21.492937 -0.000000
v 88.152122 5.818109 10.131200
v 95.665741 -0.766622 4.914300
v 95.026451 -9.587108 0.000000
v 94.858101 -10.682660 9.020881
v 95.221458 -6.317968 -0.000000
v 95.923340 6.958276 -10.131200
v 95.665741 -0.766623 -4.914298
v 95.026451 -9.587109 0.000000
v 94.858101 -10.682660 -9.020879
v 95.221458 -6.317972 -0.000000
v 95.923340 6.958276 -41.436081
v 104.781059 2.449549 -39.947598
v 105.221710 2.206691 -35.662041
v 100.114372 8.873845 -39.947598
v 105.221710 2.206691 -38.692390
v 103.725800 6.921082 -31.376476
v 95.007034 2.206692 -32.631691
v 96.502937 6.921082 -40.807617
v 101.950920 6.921082 -37.777264
v 98.339478 8.873845 -42.062828
v 103.446823 2.206691 -42.062828
v 103.446823 2.206691 -33.491703
v 93.232147 2.206690 -34.746910
v 94.728058 6.921080 -37.777264
v 98.339478 -4.460462 -34.746914
v 94.728058 -2.507698 -40.807613
v 101.950912 -2.507699 -35.662045
v 100.114380 -4.460464 -38.692390
v 103.725800 -2.507699 -32.631691
v 96.502937 -2.507698 0.513402

vt 0.984709 0.612433
vt 0.985852 0.661131
vt 0.362633 0.565034
vt 0.983355 0.513622
vt 0.441063 0.215190
vt 0.886791 0.298318
vt 0.969716 0.251003
vt 0.974958 0.295477
vt 0.885417 0.361762
vt 0.919138 0.636547
vt 0.951899 0.442423
vt 0.776611 0.386338
vt 0.798339 0.413579
vt 0.732150 0.433790
vt 0.642388 0.361361
vt 0.760632 0.276641
vt 0.829003 0.332278
vt 0.821365 0.345616
vt 0.729618 0.397859
vt 0.709606 0.085680
vt 0.726746 0.154679
vt 0.746276 0.202844
vt 0.779006 0.262853
vt 0.772457 0.209079
vt 0.828379 0.315022
vt 0.771554 0.142850
vt 0.792214 0.587252
vt 0.882639 0.120058
vt 0.868533 0.632401
vt 0.874192 0.544915
vt 0.945239 0.593546
vt 0.915248 0.593335
vt 0.946531 0.639135
vt 0.914817 0.544103
vt 0.908224 0.326956
vt 0.621378 0.380213
vt 0.606653 0.106646
vt 0.606645 0.212417
vt 0.606706 0.160933
vt 0.606680 0.213052
vt 0.731886 0.283836
vt 0.723803 0.271869
vt 0.606706 0.319140
vt 0.450637 0.370973
vt 0.450898 0.378725
vt 0.508278 0.379587
vt 0.580138 0.324606
vt 0.572254 0.322178
vt 0.508371 0.108453
vt 0.580131 0.272650
vt 0.508310 0.212479
vt 0.580173 0.212638
vt 0.508224 0.271834
vt 0.580176 0.113102
vt 0.450395 0.164625
vt 0.449247 0.163412
vt 0.508192 0.324732
vt 0.595626 0.547738
vt 0.855562 0.272955
vt 0.450312 0.212584
vt 0.447912 0.273211
vt 0.401384 0.161975
vt 0.580151 0.110340
vt 0.508205 0.316548
vt 0.401381 0.364280
vt 0.401358 0.115443
vt 0.401381 0.165610
vt 0.401381 0.212542
vt 0.401394 0.560448
vt 0.587350 0.564662
vt 0.720306 0.572313
vt 0.679761 0.543555
vt 0.527386 0.595567
vt 0.558502 0.605752
vt 0.600874 0.573004
vt 0.642778 0.612042
vt 0.642861 0.611571
vt 0.726018 0.614026
vt 0.681695 0.687333
vt 0.464358 0.678865
vt 0.458050 0.635804
vt 0.561929 0.669382
vt 0.569215 0.652343
vt 0.641618 0.649267
vt 0.684875 0.727084
vt 0.683500 0.729784
vt 0.632700 0.644349
vt 0.727613 0.727576
vt 0.723552 0.668435
vt 0.516357 0.735183
vt 0.530558 0.644581
vt 0.604562 0.731225
vt 0.579386 0.646116
vt 0.777181 0.742643
vt 0.808178 0.731652
vt 0.765264 0.804245
vt 0.751531 0.800360
vt 0.717121 0.822089
vt 0.502856 0.820142
vt 0.545550 0.812027
vt 0.633466 0.816251
vt 0.586120 0.799436
vt 0.681779 0.825735
vt 0.749085 0.837890
vt 0.790081 0.821350
vt 0.681666 0.830023
vt 0.587566 0.831944
vt 0.546264 0.821966
vt 0.715486 0.830189
vt 0.634713 0.898533
vt 0.590512 0.899835
vt 0.635577 0.846035
vt 0.714042 0.844330
vt 0.747231 0.842759
vt 0.678863 0.904607
vt 0.790539 0.991919
vt 0.790140 0.991904
vt 0.735941 0.898202
vt 0.551126 0.991932
vt 0.685497 0.991943
vt 0.629783 0.991935
vt 0.593648 0.991910
vt 0.551204 0.511627
vt 0.754925 0.579454
vt 0.441063 0.712941
vt 0.441063 0.390483
vt 0.441063 0.464277
vt 0.833467 0.534241
vt 0.786119 0.022023
vt 0.938634 0.555016
vt 0.765286 0.571267
vt 0.854583 0.134945
vt 0.818683 0.048922
vt 0.904872 0.047681
vt 0.937979 0.078577
vt 0.874396 0.104527
vt 0.788485 0.503249
vt 0.897172 0.482374
vt 0.941192 0.450007
vt 0.719642 0.454262
vt 0.686037 0.473855
vt 0.716180 0.656362
vt 0.441063 0.878926
vt 0.983193 0.445429
vt 0.441063 0.747122
vt 0.985854 0.814711
vt 0.981834 0.682764
vt 0.983934 0.513622
vt 0.441063 0.661131
vt 0.362633 0.215190
vt 0.886791 0.298318
vt 0.969716 0.251003
vt 0.974958 0.295477
vt 0.885417 0.351296
vt 0.983592 0.215864
vt 0.994763 0.156312
vt 0.943479 0.728981
vt 0.951901 0.386338
vt 0.798339 0.413579
vt 0.732150 0.433790
vt 0.642388 0.454262
vt 0.686037 0.450007
vt 0.719642 0.361361
vt 0.760632 0.276641
vt 0.829003 0.332278
vt 0.821365 0.345616
vt 0.729618 0.397859
vt 0.709606 0.085680
vt 0.726746 0.442423
vt 0.776611 0.154679
vt 0.746276 0.202844
vt 0.779006 0.262853
vt 0.772457 0.209079
vt 0.828379 0.315022
vt 0.771554 0.142850
vt 0.792214 0.134945
vt 0.818683 0.120058
vt 0.868533 0.078577
vt 0.874396 0.048922
vt 0.904872 0.771984
vt 0.915258 0.773969
vt 0.946534 0.726402
vt 0.914817 0.733157
vt 0.874187 0.682767
vt 0.923784 0.821423
vt 0.908226 0.820609
vt 0.945233 0.778253
vt 0.882650 0.682765
vt 0.954789 0.326956
vt 0.621378 0.380213
vt 0.606653 0.106646
vt 0.606645 0.212417
vt 0.606706 0.160933
vt 0.606680 0.213052
vt 0.731886 0.283836
vt 0.723803 0.271869
vt 0.606706 0.319140
vt 0.450637 0.370973
vt 0.450898 0.378725
vt 0.508278 0.379587
vt 0.580138 0.324606
vt 0.572254 0.322178
vt 0.508371 0.108453
vt 0.580131 0.272650
vt 0.508310 0.212479
vt 0.580173 0.212638
vt 0.508224 0.271834
vt 0.580176 0.113102
vt 0.450395 0.164625
vt 0.449247 0.163412
vt 0.508192 0.324732
vt 0.595626 0.406984
vt 0.876287 0.104527
vt 0.788485 0.272955
vt 0.450312 0.212584
vt 0.447912 0.273211
vt 0.401384 0.161975
vt 0.580151 0.110340
vt 0.508205 0.111878
vt 0.936291 0.817784
vt 0.855565 0.316548
vt 0.401381 0.364280
vt 0.401358 0.115443
vt 0.401381 0.165610
vt 0.401381 0.212542
vt 0.401394 0.595567
vt 0.558502 0.560448
vt 0.587350 0.605752
vt 0.600874 0.573004
vt 0.642778 0.612042
vt 0.642861 0.611571
vt 0.726018 0.564662
vt 0.720306 0.614026
vt 0.681695 0.572313
vt 0.679761 0.583216
vt 0.512365 0.687333
vt 0.464358 0.659272
vt 0.486373 0.635804
vt 0.561929 0.669382
vt 0.569215 0.627801
vt 0.501921 0.652343
vt 0.641618 0.649267
vt 0.684875 0.727084
vt 0.683500 0.729784
vt 0.632700 0.644349
vt 0.727613 0.727576
vt 0.723552 0.668435
vt 0.516357 0.735183
vt 0.530558 0.644581
vt 0.604562 0.731225
vt 0.579386 0.646116
vt 0.777181 0.742643
vt 0.808178 0.731652
vt 0.765264 0.804245
vt 0.751531 0.800360
vt 0.717121 0.822089
vt 0.502856 0.820142
vt 0.545550 0.812027
vt 0.633466 0.816251
vt 0.586120 0.799436
vt 0.681779 0.825735
vt 0.749085 0.837890
vt 0.790081 0.821350
vt 0.681666 0.830023
vt 0.587566 0.831944
vt 0.546264 0.821966
vt 0.715486 0.830189
vt 0.634713 0.898533
vt 0.590512 0.899835
vt 0.635577 0.846035
vt 0.714042 0.844330
vt 0.747231 0.842759
vt 0.678863 0.904607
vt 0.790539 0.991919
vt 0.790140 0.991904
vt 0.735941 0.898202
vt 0.551126 0.991932
vt 0.685497 0.991943
vt 0.629783 0.991935
vt 0.593648 0.991910
vt 0.551204 0.600423
vt 0.778345 0.635067
vt 0.795944 0.511627
vt 0.754925 0.794272
vt 0.854576 0.074560
vt 0.937293 0.862271
vt 0.897167 0.883155
vt 0.941197 0.473855
vt 0.716180 0.369533
vt 0.277628 0.308104
vt 0.290457 0.484778
vt 0.271137 0.425211
vt 0.271543 0.265336
vt 0.311597 0.481546
vt 0.222317 0.421209
vt 0.221782 0.295203
vt 0.239826 0.244143
vt 0.255904 0.359889
vt 0.229613 0.478930
vt 0.165800 0.215369
vt 0.183782 0.474251
vt 0.073908 0.414958
vt 0.162964 0.407323
vt 0.072522 0.276988
vt 0.167530 0.350650
vt 0.161622 0.337198
vt 0.071956 0.253443
vt 0.079091 0.185362
vt 0.095736 0.473607
vt 0.008305 0.405254
vt 0.008106 0.331599
vt 0.007242 0.242124
vt 0.015292 0.167079
vt 0.031945 0.544400
vt 0.166627 0.544387
vt 0.074755 0.093450
vt 0.061582 0.719298
vt 0.277764 0.780805
vt 0.290468 0.603956
vt 0.271003 0.544388
vt 0.269759 0.663667
vt 0.271493 0.823124
vt 0.311651 0.544383
vt 0.223357 0.607216
vt 0.222270 0.667529
vt 0.221670 0.793430
vt 0.239960 0.845048
vt 0.255784 0.728769
vt 0.229732 0.230025
vt 0.332868 0.194216
vt 0.280146 0.609909
vt 0.165747 0.873544
vt 0.183709 0.157113
vt 0.207850 0.614522
vt 0.073913 0.673920
vt 0.162927 0.681375
vt 0.072426 0.811807
vt 0.167573 0.738257
vt 0.161738 0.751497
vt 0.072069 0.835408
vt 0.079029 0.903419
vt 0.095645 0.117968
vt 0.121154 0.544381
vt 0.009748 0.615144
vt 0.008349 0.683721
vt 0.007848 0.757328
vt 0.007489 0.846505
vt 0.015324 0.921832
vt 0.031691 0.656362
vt 0.441063 0.445429
vt 0.441063 0.579454
vt 0.441063 0.752197
vt 0.441063 0.712941
vt 0.441063 0.579528
vt 0.401848 0.444217
vt 0.401848 0.658746
vt 0.401848 0.511716
vt 0.401848 0.712368
vt 0.401848 0.752043
vt 0.401848 0.579528
vt 0.401848 0.444217
vt 0.401848 0.390915
vt 0.401848 0.658746
vt 0.401848 0.511716
vt 0.401848 0.712368
vt 0.401848 0.006915
vt 0.237928 0.006915
vt 0.180616 0.006915
vt 0.123305 0.006915
vt 0.180616 0.006915
vt 0.237928 0.006915
vt 0.295239 0.006915
vt 0.352550 0.006915
vt 0.295239 0.425430
vt 0.560604 0.451114
vt 0.622612 0.513122
vt 0.648296 0.084791
vt 0.180616 0.084791
vt 0.237928 0.084791
vt 0.295239 0.513122
vt 0.472912 0.451114
vt 0.498596 0.045853
vt 0.176370 0.045853
vt 0.237928 0.045853
vt 0.114812 0.045853
vt 0.176370 0.045853
vt 0.237928 0.045853
vt 0.299486 0.045853
vt 0.361044 0.045853
vt 0.299486 0.010170
vt 0.693257 0.068406
vt 0.740913 0.682773
vt 0.877510 0.052876
vt 0.606613 0.058580
vt 0.580120 0.062086
vt 0.451543 0.057699
vt 0.508265 0.066103
vt 0.401353 0.677027
vt 0.819831 0.820186
vt 0.793773 0.839728
vt 0.503936 0.905746
vt 0.506211 0.747045
vt 0.485024 0.991910
vt 0.515231 0.665029
vt 0.830239 0.711796
vt 0.362633 0.546277
vt 0.821618 0.646683
vt 0.851173 0.610229
vt 0.835142 0.519258
vt 0.851310 0.476348
vt 0.884140 0.426514
vt 0.934318 0.405902
vt 0.990091 0.393368
vt 0.964363 0.369685
vt 0.988933 0.390483
vt 0.441063 0.390915
vt 0.401848 0.361762
vt 0.919138 0.351296
vt 0.983592 0.215864
vt 0.994763 0.156312
vt 0.943479 0.464277
vt 0.833467 0.010170
vt 0.693257 0.068406
vt 0.740913 0.534241
vt 0.786119 0.022023
vt 0.938634 0.047681
vt 0.937979 0.052876
vt 0.606613 0.058580
vt 0.580120 0.406984
vt 0.876287 0.062086
vt 0.451543 0.111878
vt 0.936291 0.057699
vt 0.508265 0.066103
vt 0.401353 0.555016
vt 0.765286 0.583216
vt 0.512365 0.543555
vt 0.527386 0.678865
vt 0.458050 0.659272
vt 0.486373 0.627801
vt 0.501921 0.677027
vt 0.819831 0.820186
vt 0.793773 0.839728
vt 0.503936 0.905746
vt 0.506211 0.747045
vt 0.485024 0.991910
vt 0.515231 0.600423
vt 0.778345 0.635067
vt 0.795944 0.665029
vt 0.830239 0.752043
vt 0.401848 0.752197
vt 0.441063 0.711796
vt 0.362633 0.819233
vt 0.821609 0.718849
vt 0.851182 0.755259
vt 0.835166 0.074560
vt 0.937293 0.846262
vt 0.851305 0.889173
vt 0.884139 0.941035
vt 0.932292 0.959118
vt 0.989028 0.972157
vt 0.959755 0.995400
vt 0.987657 0.374692
vt 0.328800 0.315833
vt 0.338799 0.544441
vt 0.325190 0.486609
vt 0.325718 0.428076
vt 0.325575 0.281525
vt 0.352993 0.255017
vt 0.367876 0.713955
vt 0.328705 0.772863
vt 0.338849 0.602302
vt 0.325702 0.660521
vt 0.325417 0.807167
vt 0.353161 0.858559
vt 0.332865 0.894726
vt 0.280219 0.931862
vt 0.207748 0.970848
vt 0.120997 0.995443
vt 0.061414 0.833706
vt 0.367940 0.579602
vt 0.362633 0.443004
vt 0.362633 0.391346
vt 0.362633 0.509809
vt 0.362633 0.751889
vt 0.362633 0.579602
vt 0.362633 0.443004
vt 0.362633 0.391346
vt 0.362633 0.509809
vt 0.362633 0.751889
vt 0.362633 0.045853
vt 0.114812 0.006915
vt 0.123305 0.883896
vt 0.377049 0.987162
vt 0.480315 0.914142
vt 0.450069 0.987162
vt 0.273782 0.914142
vt 0.304028 0.084791
vt 0.180616 0.084791
vt 0.237928 0.084791
vt 0.123305 0.084791
vt 0.123305 0.084791
vt 0.352550 0.084791
vt 0.295239 0.425430
vt 0.560604 0.451114
vt 0.498596 0.451114
vt 0.622612 0.883896
vt 0.377049 0.914142
vt 0.450069 0.914142
vt 0.304028 1.000000

f 368/368 384/384 367/367
f 384/384 368/368 383/383
f 369/369 383/383 368/368
f 383/383 369/369 385/385
f 370/370 491/491 492/492
f 491/491 370/370 386/386
f 371/371 386/386 370/370
f 386/386 371/371 387/387
f 372/372 387/387 371/371
f 387/387 372/372 388/388
f 373/373 388/388 372/372
f 388/388 373/373 389/389
f 374/374 389/389 373/373
f 389/389 374/374 390/390
f 367/367 390/390 374/374
f 390/390 367/367 384/384
f 498/498 384/384 383/383
f 384/384 498/498 499/499
f 500/500 383/383 385/385
f 383/383 500/500 498/498
f 378/378 491/491 386/386
f 491/491 378/378 501/501
f 379/379 386/386 387/387
f 386/386 379/379 378/378
f 380/380 387/387 388/388
f 387/387 380/380 379/379
f 502/502 388/388 389/389
f 388/388 502/502 380/380
f 503/503 389/389 390/390
f 389/389 503/503 502/502
f 499/499 390/390 384/384
f 390/390 499/499 503/503
f 494/494 495/495 493/493
f 496/496 494/494 497/497
f 496/496 493/493 494/494
f 507/507 508/508 494/494
f 509/509 507/507 496/496
