# MOD converted: e_w_costume_celebrity_hair.mod
# 459 verts, 8 faces

v 151.343323 -1.263736 7.423522
v 166.925049 -3.404257 14.654240
v 164.179993 -3.040547 22.707827
v 140.621429 -0.044541 22.378889
v 144.779083 -0.359912 19.632404
v 157.838257 -2.068642 22.297976
v 144.800232 -10.027552 21.759226
v 136.325623 1.062332 16.117352
v 116.680824 -3.071498 11.485271
v 109.615364 -6.609101 14.552226
v 117.134201 -7.194274 20.630407
v 131.770630 1.906870 20.597406
v 131.770645 -4.508570 14.075831
v 113.043762 -4.099255 13.386624
v 113.307541 -6.351791 19.657860
v 119.792259 -7.598202 13.130891
v 155.317810 -18.096695 18.300659
v 152.447937 -14.991632 12.020841
v 149.188675 -18.207676 7.954535
v 151.237274 -18.654249 7.768195
v 157.552460 -19.500689 7.302396
v 150.158188 -14.654985 9.650427
v 145.777115 -15.051130 15.513037
v 143.346771 -16.900553 20.042374
v 135.418869 -10.114515 19.800180
v 145.662689 -15.417943 21.091997
v 151.175873 -10.033583 7.717824
v 163.663574 -13.574059 14.180762
v 161.032166 -11.731915 21.044628
v 136.303802 -5.881405 20.348482
v 139.265961 -12.922956 22.004765
v 140.516602 -8.268541 11.222427
v 141.452347 -14.874100 20.183649
v 131.753891 -8.310325 13.037221
v 137.828339 -12.652818 20.292545
v 127.783371 -7.437976 21.002499
v 123.848579 -8.080532 18.930536
v 120.140518 -3.664412 20.949926
v 123.729408 -4.128532 20.604322
v 127.524170 -4.200706 16.476206
v 120.475998 -8.938230 16.352987
v 134.428619 -11.394548 16.490910
v 131.252167 -9.719337 16.503679
v 127.685188 -9.122220 19.032396
v 156.194550 -10.666191 14.791612
v 112.782898 -5.966100 16.997528
v 116.651642 -6.541554 17.350441
v 115.741051 1.209440 19.354170
v 123.430817 1.416415 17.067131
v 112.189705 2.051489 18.190664
v 119.228676 0.882487 19.514502
v 127.630989 2.069381 16.118612
v 114.735695 -3.838454 18.085321
v 103.256897 -0.296919 15.749129
v 111.159622 -1.664364 18.680056
v 119.164444 -5.448421 20.102751
v 123.645790 -4.869791 16.965895
v 123.867546 -9.363027 22.930475
v 127.665077 -1.473989 19.471527
v 115.154114 -2.556777 18.593285
v 111.674660 -0.132780 21.553492
v 119.196541 -3.274743 22.747463
v 123.666931 -2.513648 22.471560
v 131.770630 -1.284549 22.642733
v 136.316406 -2.009370 23.276472
v 140.581329 -3.758432 22.987982
v 144.787613 -5.948135 16.274481
v 107.855598 -0.663746 17.163254
v 108.425690 2.060097 18.080685
v 108.168167 0.521791 13.347156
v 134.313416 -11.159278 13.151153
v 130.975906 -10.653605 12.515449
v 127.691292 -10.828886 11.886946
v 119.531075 -10.359169 11.676850
v 123.932892 -11.160160 14.140799
v 119.642036 -9.379930 12.949875
v 116.212814 -9.739443 14.684283
v 117.002548 -8.753417 14.798248
v 113.942184 -9.691933 15.679139
v 114.879578 -8.842332 17.500135
v 113.034912 -9.152073 16.386827
v 138.409988 -13.375722 16.294970
v 134.512177 -11.080066 16.295897
v 131.367752 -10.142153 15.754672
v 127.766174 -10.007900 14.658200
v 123.880257 -10.271963 16.733982
v 147.052444 -16.838413 1.332123
v 165.437729 -12.984732 -14.423586
v 160.740936 -11.731915 -19.930952
v 151.175873 -10.033580 -19.632404
v 157.838257 -2.068647 -7.423522
v 166.925049 -3.404256 -0.000000
v 168.336731 -3.606946 -7.087832
v 163.916763 -13.011926 -14.654241
v 164.179977 -3.040550 -21.358719
v 151.343323 -1.263731 -22.378885
v 144.779083 -0.359923 -21.084494
v 144.800232 -8.002636 -21.080437
v 140.516602 -6.469201 -22.707827
v 140.621429 -0.044538 -22.243839
v 136.303802 -6.078877 -21.675323
v 136.325653 0.869857 -21.591482
v 123.848572 -8.656849 -12.058837
v 108.360985 -7.080326 -14.956203
v 111.479721 -6.153507 -13.506632
v 111.811714 -6.957173 -20.762791
v 135.811859 -10.435889 -22.066654
v 131.640350 -9.317094 -22.706047
v 131.770630 -5.561291 -20.227356
v 131.770630 1.413463 -16.195452
v 115.682045 -6.177323 -19.774757
v 119.896164 -8.174519 -13.660404
v 115.842941 -7.315771 -15.670972
v 115.533348 -3.515625 -14.552434
v 111.143410 -4.262306 -22.394295
v 127.783363 -8.704166 -13.950445
v 155.320801 -18.096691 -17.932901
v 152.470612 -14.991638 1.895992
v 158.721710 -18.676468 -5.988541
v 157.855942 -19.500690 -18.906437
v 145.662689 -14.818226 -14.843142
v 143.346771 -17.413855 -15.944719
v 138.015625 -15.384782 -19.707499
v 139.265961 -12.282473 1.651862
v 152.969803 -20.495934 -4.519026
v 152.355591 -20.836660 -14.144072
v 148.647659 -18.955608 0.000001
v 149.502014 -15.981901 -2.485823
v 148.442810 -16.089434 -6.355367
v 145.202164 -16.464617 -9.467309
v 137.219986 -14.196695 -12.708733
v 134.199951 -12.899361 -17.831429
v 134.657288 -12.844398 -7.768446
v 140.933060 -16.234816 -8.842794
v 146.314682 -18.444336 -15.976551
v 134.428619 -14.624142 -12.795683
v 137.358215 -16.205761 -10.823697
v 141.777100 -17.257908 -3.753322
v 149.980591 -19.000628 -16.117462
v 119.733147 -9.586930 -17.342571
v 123.867538 -10.321756 -18.304235
v 131.252304 -10.951425 -17.657434
v 127.685196 -9.846361 -18.749020
v 155.848770 -10.161915 -12.682994
v 113.913246 -9.317415 -12.733889
v 123.886497 -12.907881 -13.384264
v 127.587013 -12.223591 -12.557389
v 110.850845 -9.781157 -13.354695
v 130.865662 -12.082432 -13.585842
v 114.331406 -8.591338 -14.965655
v 123.867531 -10.391388 -17.835583
v 127.685196 -9.202794 -16.821165
v 131.005554 -12.863059 -21.829790
v 123.677437 -5.004770 -20.134298
v 120.049927 -5.444115 -16.915791
v 120.368301 1.343123 -15.082556
v 114.541023 2.993165 -22.499697
v 127.395508 -4.980792 -19.893126
v 127.796806 0.387160 -16.381708
v 120.675400 -4.574721 -14.669751
v 114.265106 -1.364145 -15.725929
v 111.130920 0.918690 -15.367298
v 110.992958 -2.174591 -17.981632
v 123.851372 0.687573 -16.746544
v 123.617050 -5.167389 -15.576834
v 117.590958 2.756089 -15.119109
v 117.606552 -2.374588 -18.037260
v 107.490791 -0.512667 -20.369246
v 127.778450 -3.325125 -19.831070
v 120.521851 -1.929682 -17.201462
v 114.403061 0.599868 -17.522532
v 111.061943 -0.933872 -20.976238
v 123.734215 -2.775340 -18.051044
v 117.598763 -0.004544 -12.204698
v 116.599480 -10.074819 -13.982593
v 117.327988 -8.487012 -14.340625
v 120.327110 -10.522291 -12.257960
v 119.767021 -12.245203 -17.117052
v 127.614304 -11.362799 7.423522
v 166.925049 -3.404257 7.954535
v 151.237274 -18.654249 7.768195
v 157.552460 -19.500689 7.302396
v 150.158188 -14.654985 7.717824
v 163.663574 -13.574059 0.788625
v 150.795242 -18.136963 19.379539
v 159.169128 5.497369 22.731194
v 145.645111 7.194662 22.136116
v 130.581467 10.457756 9.590559
v 167.407898 15.905645 6.575254
v 168.434708 4.168419 14.354474
v 165.533279 4.665176 14.965498
v 146.896423 25.734802 12.366199
v 161.936798 21.007021 18.607004
v 160.647888 13.716936 21.499090
v 146.227478 16.972969 14.449593
v 131.347427 24.854536 20.327986
v 131.040680 18.412634 16.441299
v 124.125488 27.026178 22.107716
v 123.961433 20.600317 10.275104
v 107.366730 8.693287 21.538906
v 123.744118 5.663122 15.386042
v 117.688690 26.445625 21.457050
v 152.418182 6.379373 20.825495
v 153.505096 15.662788 10.006935
v 125.059425 4.285987 13.937431
v 154.655670 24.116968 8.376583
v 117.640961 2.587738 11.123519
v 101.743736 8.540318 12.803051
v 166.682144 11.848775 5.772911
v 168.903397 11.237782 5.466301
v 86.359543 14.759506 0.000000
v 162.002594 24.870174 0.000000
v 167.610504 18.445852 9.457834
v 94.970123 15.849278 13.099884
v 96.552795 11.173643 9.936897
v 96.572594 10.936502 13.233573
v 111.941177 23.977980 9.085345
v 112.246513 5.450864 17.941677
v 112.060509 9.919561 0.000000
v 112.358772 27.778652 -0.000001
v 124.416214 31.355358 21.259018
v 130.886459 6.001260 18.044464
v 131.460693 2.408578 0.000000
v 169.375534 3.929378 -0.000001
v 169.337830 11.018787 -0.016064
v 107.366737 8.136489 0.006399
v 99.897598 22.052458 22.218218
v 137.498138 8.251899 15.134598
v 139.501831 24.399815 20.542484
v 138.634064 16.871923 17.993084
v 106.729073 17.857742 16.740915
v 100.283859 17.760233 23.535213
v 117.662796 14.206094 20.578123
v 117.662796 20.760120 21.250481
v 105.981430 13.543520 19.759087
v 99.915588 13.672951 15.601849
v 91.566551 15.283051 12.408458
v 95.717880 15.609040 14.708204
v 95.138412 15.686961 16.122093
v 95.919212 12.260493 17.094170
v 95.000938 14.065035 18.011330
v 111.801643 18.909424 21.037264
v 111.368439 14.127872 23.980045
v 123.732590 13.306100 12.375712
v 106.747429 21.615185 11.550222
v 100.276398 20.234232 17.663914
v 100.933105 10.421881 20.865643
v 117.664978 6.610286 18.441038
v 106.629280 10.231779 6.968717
v 154.971130 27.777256 6.183099
v 161.932434 24.487818 7.482749
v 146.966980 29.577799 7.080667
v 131.289261 28.108625 7.567299
v 139.507996 28.339155 8.484447
v 124.432426 29.998608 7.667098
v 117.773834 29.398495 6.347485
v 112.331314 26.735922 6.210444
v 106.703522 23.729824 6.449444
v 99.956802 22.935349 5.125966
v 94.501556 18.395369 5.697954
v 167.749283 17.915188 6.980812
v 90.208023 14.384892 2.313115
v 90.723366 15.381323 3.615997
v 91.944038 11.497922 6.244107
v 91.221199 11.800247 4.596603
v 90.070633 16.225901 0.000001
v 147.037506 30.043835 21.653374
v 136.681702 2.351019 21.358719
v 151.343323 -1.263736 7.423522
v 166.925049 -3.404257 14.654240
v 164.179993 -3.040547 22.707827
v 140.621429 -0.044541 22.378889
v 144.779083 -0.359912 19.632404
v 157.838257 -2.068642 16.784956
v 136.325623 0.411475 15.578989
v 124.392372 1.450330 15.655354
v 112.113449 6.305231 14.459938
v 117.646667 2.637433 -14.354476
v 165.533279 4.665177 -14.654241
v 164.179977 -3.040550 -19.632404
v 157.838257 -2.068647 -19.379539
v 159.169128 5.497368 -12.803051
v 166.682144 11.848780 -5.772911
v 168.903397 11.237782 -6.575253
v 168.434708 4.168419 -12.366199
v 161.936783 21.007023 -13.937435
v 154.655670 24.116970 -6.968717
v 154.971130 27.777256 -6.183099
v 161.932434 24.487818 -9.590561
v 167.407898 15.905645 -5.697955
v 167.749283 17.915188 -7.423522
v 166.925049 -3.404256 -0.000000
v 168.336731 -3.606946 -20.825497
v 153.505096 15.662788 -21.499086
v 146.227478 16.972973 -14.965501
v 146.896423 25.734804 -18.607002
v 160.647888 13.716937 -21.457050
v 152.418182 6.379371 -0.000002
v 155.286560 28.461985 -7.482749
v 146.966980 29.577801 -20.327986
v 131.040680 18.412628 -14.449592
v 131.347427 24.854540 -15.134598
v 139.501831 24.399818 -20.542482
v 138.634064 16.871925 -22.731195
v 145.645111 7.194659 -22.218216
v 137.498138 8.251904 -7.080667
v 131.289261 28.108625 -7.567300
v 139.507996 28.339157 -22.107716
v 123.961426 20.600325 -16.441301
v 124.125488 27.026176 -22.136118
v 130.581467 10.457752 -23.980045
v 123.732590 13.306100 -8.484447
v 124.432419 29.998608 -15.386042
v 117.688690 26.445625 -7.667098
v 117.773834 29.398495 -0.051502
v 106.703522 24.557987 -6.347484
v 112.331314 26.735922 -6.313448
v 106.703522 23.729826 -21.259018
v 130.886459 6.001262 -21.538910
v 123.744125 5.663125 -8.376587
v 117.640961 2.587737 -14.459940
v 117.646667 2.637437 -15.578989
v 124.392365 1.450331 -10.006936
v 125.059418 4.285987 -12.478715
v 106.747437 21.615181 -11.654446
v 100.276398 20.234234 -6.553669
v 99.956795 22.935329 0.006401
v 101.396805 8.634848 -11.227745
v 101.743744 8.540321 -10.307232
v 107.366737 8.693291 -0.000003
v 117.651627 5.762400 -0.000000
v 123.522560 5.340420 -0.000005
v 112.246513 7.495412 -9.085350
v 112.246513 5.450869 -18.544043
v 106.629280 10.231780 -15.655354
v 112.113449 6.305231 -21.358719
v 151.343323 -1.263731 -22.378885
v 144.779083 -0.359923 -18.044466
v 131.460693 2.408584 -17.768139
v 100.933105 10.421883 -5.230193
v 94.501556 18.395372 0.006399
v 94.725830 16.762911 -13.204109
v 96.552795 11.173645 -16.226318
v 95.919212 12.260497 0.006398
v 96.805138 10.441567 -10.041120
v 96.572594 10.936501 -9.562061
v 94.970123 15.849280 -7.085038
v 90.208023 14.384893 -4.700829
v 90.070633 16.225899 -15.706074
v 91.566551 15.283058 -3.720222
v 91.944038 11.497919 -6.348328
v 91.221199 11.800247 0.000000
v 117.859528 30.714191 -21.653374
v 136.681702 2.351021 -16.784952
v 136.325623 0.411468 -22.707827
v 140.621429 -0.044538 -0.000000
v 139.514191 29.292131 -2.417341
v 90.723358 15.381325 -20.578123
v 117.662796 20.760128 -18.096088
v 106.729073 17.857744 -13.233573
v 111.941177 23.977980 -18.011330
v 111.801643 18.909424 -23.535215
v 117.662796 14.206097 -21.037264
v 111.368439 14.127877 -21.353487
v 105.981430 13.543522 -20.865646
v 117.664978 6.610295 -16.845139
v 100.283859 17.760235 -19.863308
v 99.915588 13.672949 -17.941679
v 112.060509 9.919568 -17.198385
v 95.000938 14.065034 -14.812428
v 95.138412 15.686961 -12.512681
v 95.717880 15.609044 0.000000
v 131.231094 29.696177 -5.570526
v 86.359543 14.759505 19.632103
v 150.230591 11.283506 20.616896
v 149.531616 7.258281 20.740141
v 148.832642 3.233053 20.001842
v 148.133667 -0.792175 18.962288
v 154.029297 10.603366 19.947081
v 153.330322 6.578135 20.070324
v 152.631348 2.552910 19.332029
v 151.932373 -1.472323 22.055426
v 150.731964 10.620059 23.425247
v 150.105713 7.013545 23.535673
v 149.479462 3.407035 22.386707
v 148.853180 -0.199482 21.455292
v 154.135513 10.010658 22.825109
v 153.509247 6.404153 22.935539
v 152.882980 2.797638 21.786568
v 152.256714 -0.808877 15.578989
v 124.392372 1.450330 11.123519
v 101.743736 8.540318 9.936897
v 96.572594 10.936502 6.244107
v 91.221199 11.800247 0.006398
v 96.805138 10.441567 0.006399
v 94.725830 16.762911 3.615997
v 91.944038 11.497922 17.663914
v 100.933105 10.421881 18.441038
v 106.629280 10.231779 16.122093
v 95.919212 12.260493 15.601849
v 91.566551 15.283051 11.550222
v 100.276398 20.234232 13.099884
v 96.552795 11.173643 12.408458
v 95.717880 15.609040 11.123519
v 101.743736 8.540318 15.601849
v 91.566551 15.283051 2.313115
v 90.723366 15.381323 5.466301
v 86.359543 14.759506 5.466301
v 86.359543 14.759506 18.044464
v 131.460693 2.408578 15.655354
v 112.113449 6.305231 14.459938
v 117.646667 2.637433 -0.000000
v 168.336731 -3.606946 0.000000
v 169.375534 3.929378 -0.000001
v 169.337830 11.018787 0.000001
v 147.037506 30.043835 -0.000002
v 155.286560 28.461985 -0.051502
v 106.703522 24.557987 0.000000
v 112.358772 27.778652 0.006401
v 101.396805 8.634848 -0.016064
v 107.366737 8.136489 -0.000000
v 123.522560 5.340420 -0.000003
v 117.651627 5.762400 -0.000005
v 112.246513 7.495412 -15.578989
v 124.392365 1.450331 0.006399
v 99.897598 22.052458 0.006399
v 94.725830 16.762911 0.006398
v 96.805138 10.441567 0.000000
v 117.859528 30.714191 -0.000000
v 139.514191 29.292131 -11.227745
v 101.743744 8.540321 -10.041120
v 96.572594 10.936501 -6.348328
v 91.221199 11.800247 0.006398
v 96.805138 10.441567 -3.720222
v 91.944038 11.497919 0.006399
v 94.725830 16.762911 -17.768139
v 100.933105 10.421883 -18.544043
v 106.629280 10.231780 -16.226318
v 95.919212 12.260497 -15.706074
v 91.566551 15.283058 -11.654446
v 100.276398 20.234234 -13.204109
v 96.552795 11.173645 -11.227745
v 101.743744 8.540321 -12.512681
v 95.717880 15.609044 -15.706074
v 91.566551 15.283058 0.000000
v 162.002594 24.870174 0.000000
v 131.231094 29.696177 -0.000001
v 124.416214 31.355358 -2.417341
v 90.723358 15.381325 0.000000
v 167.610504 18.445852 -5.570526
v 86.359543 14.759505 -5.570526
v 86.359543 14.759505 -18.044466
v 131.460693 2.408584 -15.655354
v 112.113449 6.305231 -14.459940
v 117.646667 2.637437 20.001842
v 148.133667 -0.792175 19.332029
v 151.932373 -1.472323 18.962288
v 154.029297 10.603366 19.632103
v 150.230591 11.283506 0.293687

vt 0.518471 0.585901
vt 0.691771 0.631652
vt 0.637800 0.746797
vt 0.416111 0.734336
vt 0.457899 0.675264
vt 0.575905 0.651088
vt 0.438096 0.762400
vt 0.374771 0.708601
vt 0.171106 0.662758
vt 0.098816 0.663427
vt 0.173062 0.778314
vt 0.333352 0.709921
vt 0.328227 0.695947
vt 0.133898 0.665334
vt 0.137406 0.684880
vt 0.218107 0.527927
vt 0.516241 0.581357
vt 0.494250 0.518430
vt 0.459468 0.480892
vt 0.477435 0.482653
vt 0.542949 0.462983
vt 0.441427 0.500894
vt 0.414978 0.560976
vt 0.412566 0.648963
vt 0.360432 0.596754
vt 0.437654 0.634697
vt 0.492651 0.520021
vt 0.618495 0.571752
vt 0.580815 0.693731
vt 0.365799 0.626718
vt 0.389073 0.664761
vt 0.402709 0.533565
vt 0.378126 0.674338
vt 0.326454 0.569124
vt 0.349961 0.685904
vt 0.291816 0.687457
vt 0.258600 0.712453
vt 0.215225 0.717042
vt 0.255087 0.715987
vt 0.292059 0.655225
vt 0.215942 0.623611
vt 0.334665 0.642053
vt 0.311963 0.648960
vt 0.286035 0.610891
vt 0.533746 0.678349
vt 0.137836 0.679989
vt 0.174999 0.780815
vt 0.169793 0.790116
vt 0.252444 0.783183
vt 0.117750 0.782439
vt 0.209947 0.787750
vt 0.292724 0.722819
vt 0.164651 0.761382
vt 0.008819 0.738081
vt 0.111302 0.716690
vt 0.205340 0.719931
vt 0.250127 0.652187
vt 0.254184 0.747469
vt 0.295745 0.748949
vt 0.168819 0.758134
vt 0.117851 0.744832
vt 0.210032 0.744178
vt 0.254188 0.745146
vt 0.330762 0.733797
vt 0.371795 0.714133
vt 0.409796 0.687250
vt 0.444162 0.747846
vt 0.069978 0.778142
vt 0.070890 0.759656
vt 0.071584 0.586126
vt 0.324011 0.594137
vt 0.300070 0.593261
vt 0.274109 0.598603
vt 0.201908 0.588889
vt 0.241382 0.619352
vt 0.207073 0.615626
vt 0.174671 0.630674
vt 0.186340 0.635213
vt 0.157430 0.642640
vt 0.169351 0.660193
vt 0.153701 0.595234
vt 0.368701 0.608852
vt 0.336811 0.619397
vt 0.312211 0.621709
vt 0.280200 0.615777
vt 0.244978 0.564737
vt 0.445058 0.668777
vt 0.894176 0.795227
vt 0.842323 0.855954
vt 0.770017 0.891868
vt 0.850570 0.772067
vt 0.941760 0.708569
vt 0.966101 0.733527
vt 0.868917 0.836340
vt 0.905552 0.925231
vt 0.793914 0.949024
vt 0.735965 0.885744
vt 0.721884 0.904122
vt 0.688279 0.957898
vt 0.698570 0.912601
vt 0.655327 0.968347
vt 0.660216 0.892456
vt 0.560531 0.837071
vt 0.423578 0.862914
vt 0.448202 0.849975
vt 0.451814 0.867592
vt 0.649254 0.883053
vt 0.618047 0.919280
vt 0.620718 0.980456
vt 0.617935 0.877994
vt 0.481647 0.889970
vt 0.528199 0.854310
vt 0.482580 0.903151
vt 0.468060 0.874165
vt 0.437430 0.891432
vt 0.591481 0.766767
vt 0.785480 0.810791
vt 0.770122 0.640465
vt 0.825890 0.701740
vt 0.804776 0.824234
vt 0.720617 0.784190
vt 0.700901 0.809168
vt 0.662937 0.851867
vt 0.674635 0.632530
vt 0.774744 0.682787
vt 0.762203 0.767075
vt 0.738429 0.634055
vt 0.724356 0.659786
vt 0.714478 0.703416
vt 0.696457 0.753351
vt 0.639651 0.778441
vt 0.617603 0.826226
vt 0.638672 0.730421
vt 0.668603 0.724277
vt 0.715525 0.803600
vt 0.635287 0.781726
vt 0.654948 0.752814
vt 0.682987 0.674672
vt 0.739114 0.861343
vt 0.518799 0.861158
vt 0.552389 0.838060
vt 0.612485 0.853513
vt 0.583550 0.839247
vt 0.806925 0.834943
vt 0.469296 0.792127
vt 0.542150 0.790887
vt 0.571210 0.831923
vt 0.444434 0.789639
vt 0.596062 0.843921
vt 0.474045 0.818986
vt 0.548626 0.836980
vt 0.582344 0.815018
vt 0.609785 0.921778
vt 0.551152 0.916013
vt 0.518866 0.982959
vt 0.511963 0.978733
vt 0.465401 0.922234
vt 0.581174 0.984019
vt 0.581663 0.924757
vt 0.524694 0.934474
vt 0.464314 0.966573
vt 0.434342 0.933752
vt 0.434476 0.985118
vt 0.545711 0.924093
vt 0.551626 0.983591
vt 0.485432 0.932424
vt 0.492023 0.951910
vt 0.404391 0.942088
vt 0.584367 0.959381
vt 0.529162 0.962135
vt 0.465475 0.955082
vt 0.436160 0.955500
vt 0.554072 0.961489
vt 0.495349 0.823094
vt 0.487649 0.840317
vt 0.499040 0.822112
vt 0.521668 0.802362
vt 0.510180 0.817988
vt 0.581802 0.647022
vt 0.984270 0.578423
vt 0.775966 0.590131
vt 0.827552 0.572069
vt 0.742240 0.614302
vt 0.899265 0.633363
vt 0.746476 0.352020
vt 0.752050 0.356132
vt 0.626397 0.329056
vt 0.487245 0.227830
vt 0.842169 0.319539
vt 0.903957 0.338266
vt 0.826400 0.167016
vt 0.638075 0.195614
vt 0.777264 0.277876
vt 0.750287 0.265946
vt 0.625587 0.162321
vt 0.496269 0.248542
vt 0.493688 0.162683
vt 0.425961 0.236185
vt 0.427844 0.861445
vt 0.193160 0.373181
vt 0.411243 0.161098
vt 0.368497 0.356809
vt 0.688478 0.272419
vt 0.686586 0.864970
vt 0.366571 0.175736
vt 0.708475 0.871771
vt 0.299032 0.866675
vt 0.139824 0.272181
vt 0.826580 0.253959
vt 0.894197 0.208922
vt 0.013750 0.096347
vt 0.843316 0.165601
vt 0.910056 0.195844
vt 0.119793 0.846957
vt 0.087843 0.890858
vt 0.089258 0.155120
vt 0.301407 0.873900
vt 0.244334 0.318730
vt 0.286296 0.044041
vt 0.276141 0.013569
vt 0.417712 0.375302
vt 0.485477 0.420585
vt 0.480841 0.305787
vt 0.969069 0.237889
vt 0.948508 0.941348
vt 0.194335 0.099134
vt 0.143334 0.351348
vt 0.550934 0.171903
vt 0.570992 0.262892
vt 0.560242 0.214709
vt 0.248609 0.213660
vt 0.186131 0.285556
vt 0.372653 0.227179
vt 0.372895 0.264780
vt 0.239925 0.254741
vt 0.181342 0.849105
vt 0.037094 0.207436
vt 0.120450 0.219815
vt 0.125211 0.825594
vt 0.084894 0.240216
vt 0.127366 0.218838
vt 0.301014 0.272333
vt 0.298508 0.300212
vt 0.425273 0.158863
vt 0.243963 0.171962
vt 0.182805 0.818527
vt 0.135190 0.354932
vt 0.349650 0.816935
vt 0.184411 0.108396
vt 0.732349 0.137822
vt 0.803472 0.092636
vt 0.652298 0.084173
vt 0.495555 0.090737
vt 0.577398 0.088994
vt 0.423843 0.089756
vt 0.356540 0.093033
vt 0.292657 0.110798
vt 0.231170 0.133632
vt 0.171373 0.160664
vt 0.107148 0.196132
vt 0.865073 0.202449
vt 0.070972 0.517821
vt 0.735996 0.947414
vt 0.056482 0.918873
vt 0.044720 0.182743
vt 0.065691 0.027970
vt 0.668793 0.408071
vt 0.545757 0.425733
vt 0.691630 0.389189
vt 0.911775 0.406877
vt 0.837781 0.425347
vt 0.589097 0.424687
vt 0.626867 0.420133
vt 0.758098 0.450868
vt 0.520811 0.812247
vt 0.361792 0.821279
vt 0.244267 0.820070
vt 0.302521 0.338266
vt 0.826400 0.406877
vt 0.837781 0.420133
vt 0.758098 0.352020
vt 0.752050 0.272181
vt 0.826580 0.253959
vt 0.894197 0.319539
vt 0.903957 0.195614
vt 0.777264 0.175736
vt 0.708475 0.108396
vt 0.732349 0.137822
vt 0.803472 0.227830
vt 0.842169 0.196132
vt 0.865073 0.389189
vt 0.911775 0.373737
vt 0.986259 0.272419
vt 0.686586 0.265946
vt 0.625587 0.167016
vt 0.638075 0.277876
vt 0.750287 0.356809
vt 0.688478 0.052624
vt 0.763650 0.092636
vt 0.652298 0.248542
vt 0.493688 0.162321
vt 0.496269 0.171903
vt 0.570992 0.262892
vt 0.560242 0.356132
vt 0.626397 0.351348
vt 0.550934 0.084173
vt 0.495555 0.090737
vt 0.577398 0.236185
vt 0.427844 0.162683
vt 0.425961 0.329056
vt 0.487245 0.300212
vt 0.425273 0.088994
vt 0.423843 0.161098
vt 0.368497 0.089756
vt 0.356540 0.070966
vt 0.214274 0.093033
vt 0.292657 0.110798
vt 0.231170 0.375302
vt 0.485477 0.373181
vt 0.411243 0.871771
vt 0.299032 0.820070
vt 0.302521 0.812247
vt 0.361792 0.864970
vt 0.366571 0.158863
vt 0.243963 0.171962
vt 0.182805 0.133632
vt 0.171373 0.942609
vt 0.142610 0.866675
vt 0.139824 0.861445
vt 0.193160 0.949545
vt 0.290143 0.952341
vt 0.341200 0.945611
vt 0.237714 0.873900
vt 0.244334 0.816935
vt 0.184411 0.821279
vt 0.244267 0.425733
vt 0.691630 0.424687
vt 0.626867 0.420585
vt 0.480841 0.818527
vt 0.135190 0.160664
vt 0.107148 0.137406
vt 0.078766 0.846957
vt 0.087843 0.825594
vt 0.084894 0.947737
vt 0.100373 0.890858
vt 0.089258 0.195844
vt 0.119793 0.202449
vt 0.070972 0.182743
vt 0.065691 0.849105
vt 0.037094 0.947414
vt 0.056482 0.918873
vt 0.044720 0.022404
vt 0.342167 0.408071
vt 0.545757 0.450868
vt 0.520811 0.425347
vt 0.589097 0.021636
vt 0.584089 0.517821
vt 0.735996 0.227179
vt 0.372895 0.214709
vt 0.248609 0.155120
vt 0.301407 0.218838
vt 0.301014 0.285556
vt 0.372653 0.272333
vt 0.298508 0.264780
vt 0.239925 0.354932
vt 0.349650 0.213660
vt 0.186131 0.254741
vt 0.181342 0.318730
vt 0.286296 0.240216
vt 0.127366 0.219815
vt 0.125211 0.207436
vt 0.120450 0.017655
vt 0.495397 0.208922
vt 0.013750 0.335080
vt 0.015482 0.410793
vt 0.015482 0.488686
vt 0.015482 0.563550
vt 0.015482 0.336867
vt 0.174462 0.411789
vt 0.174462 0.487691
vt 0.174462 0.586526
vt 0.121985 0.355955
vt 0.061749 0.420651
vt 0.061749 0.479246
vt 0.061749 0.542698
vt 0.061749 0.355682
vt 0.121985 0.420414
vt 0.121985 0.479485
vt 0.121985 0.542966
vt 0.121985 0.426557
vt 0.396243 0.273010
vt 0.177921 0.242667
vt 0.127494 0.232832
vt 0.068902 0.459009
vt 0.810871 0.535252
vt 0.784749 0.460791
vt 0.750896 0.286892
vt 0.176089 0.302641
vt 0.230778 0.258576
vt 0.123071 0.231143
vt 0.067911 0.582311
vt 0.952958 0.472428
vt 0.907341 0.526613
vt 0.897497 0.440735
vt 0.970917 0.492234
vt 0.842788 0.166387
vt 0.048914 0.952350
vt 0.005224 0.475159
vt 0.682943 0.787904
vt 0.423209 0.354160
vt 0.271519 0.400250
vt 0.322128 0.373737
vt 0.986259 0.305787
vt 0.969069 0.237889
vt 0.948508 0.027970
vt 0.668793 0.052624
vt 0.763650 0.070966
vt 0.214274 0.044041
vt 0.276141 0.942609
vt 0.142610 0.941348
vt 0.194335 0.952341
vt 0.341200 0.949545
vt 0.290143 0.945611
vt 0.237714 0.426557
vt 0.396243 0.099134
vt 0.143334 0.137406
vt 0.078766 0.947737
vt 0.100373 0.022404
vt 0.342167 0.021636
vt 0.584089 0.273010
vt 0.177921 0.242667
vt 0.127494 0.232832
vt 0.068902 0.459009
vt 0.810871 0.460791
vt 0.750896 0.535252
vt 0.784749 0.286892
vt 0.176089 0.302641
vt 0.230778 0.258576
vt 0.123071 0.231143
vt 0.067911 0.582311
vt 0.952958 0.472428
vt 0.907341 0.440735
vt 0.970917 0.526613
vt 0.897497 0.492234
vt 0.842788 0.096347
vt 0.843316 0.017655
vt 0.495397 0.013569
vt 0.417712 0.166387
vt 0.048914 0.165601
vt 0.910056 0.952350
vt 0.005224 0.475159
vt 0.682943 0.787904
vt 0.423209 0.354160
vt 0.271519 0.400250
vt 0.322128 0.586233
vt 0.061749 0.561752
vt 0.174462 0.312095
vt 0.121985 0.312393
vt 0.061749 1.000000

f 457/457 389/389 390/390
f 389/389 457/457 381/381
f 381/381 388/388 389/389
f 388/388 381/381 380/380
f 380/380 387/387 388/388
f 387/387 380/380 379/379
f 1/1 456/456 390/390
f 386/386 390/390 456/456
