# MOD converted: e_w_costume_princess_body.mod
# 734 verts, 1020 faces

v 84.637497 6.490594 5.982664
v 82.240784 -8.199311 11.072659
v 82.805496 -5.483110 -0.000000
v 85.130280 7.715109 8.163909
v 80.670677 10.421467 12.159386
v 80.045547 6.445748 12.410731
v 83.524261 -0.795903 15.529915
v 79.178772 -0.286790 7.402205
v 76.891464 -7.977212 13.371798
v 78.091835 -5.619118 1.636763
v 70.647301 0.655054 9.398140
v 74.446999 10.584953 10.466317
v 70.002213 8.599926 16.952785
v 75.893738 0.138494 14.628978
v 72.967278 -6.194725 15.521158
v 60.233395 -6.351604 17.478239
v 60.233387 1.775965 8.209726
v 72.508774 -7.909361 9.577574
v 60.233395 -9.019372 3.274629
v 69.711067 8.334116 4.427701
v 60.233395 8.600186 14.794450
v 74.059570 5.618177 12.266366
v 60.233383 8.466262 2.635615
v 71.561157 -5.864368 2.019760
v 60.233383 1.117188 3.390410
v 60.233387 -6.065822 5.554412
v 48.628937 -5.419433 10.569816
v 49.151169 -7.550549 4.512651
v 47.440907 1.563437 6.915070
v 47.551319 7.600662 16.701817
v 48.442837 2.114874 12.697719
v 48.166122 7.455101 15.245875
v 49.651619 -4.881043 6.143359
v 45.318428 -4.985473 4.895723
v 44.635265 1.578562 15.306175
v 46.417290 -4.494250 12.921477
v 46.202881 7.492379 7.014299
v 45.823811 7.658165 10.970892
v 45.770508 -7.273462 16.873072
v 45.863388 2.165822 14.372154
v 35.918591 9.239818 18.503040
v 35.618931 3.077547 11.302121
v 42.379589 -6.217174 6.830192
v 42.602539 -4.381423 15.638712
v 43.370800 -3.694181 4.991153
v 34.116905 2.655817 6.671741
v 20.483442 3.588376 9.189853
v 20.484264 -4.618869 7.780076
v 35.585236 9.489035 17.271500
v 20.485106 -4.281381 19.047094
v 20.486038 4.294002 15.818442
v 20.485350 9.061914 8.997078
v 20.483732 8.894907 -0.000000
v 80.719490 11.416200 0.000000
v 70.363953 0.604057 0.000000
v 71.171326 -5.974313 0.000000
v 75.876495 -8.470541 5.374646
v 89.699814 2.961788 4.396174
v 89.664566 -8.920116 8.546406
v 89.931946 -5.323108 -0.000000
v 89.699814 3.899500 9.513798
v 90.267464 -1.114489 -8.163907
v 80.670677 10.421467 -7.723700
v 84.637497 6.490594 -12.159386
v 80.045547 6.445748 -12.410731
v 83.524261 -0.795903 -15.529915
v 79.178772 -0.286803 0.000000
v 81.670235 -9.566722 -7.402208
v 76.891464 -7.977211 -5.982664
v 82.240784 -8.199313 -13.371795
v 78.091835 -5.619125 -11.072659
v 82.805496 -5.483111 -1.636764
v 70.647301 0.655056 0.000000
v 70.636703 7.067275 -9.398140
v 74.446999 10.584953 -10.466321
v 70.002213 8.599926 -0.000001
v 73.907646 11.139779 -16.952785
v 75.893738 0.138515 -14.628976
v 72.967278 -6.194725 -15.521156
v 60.233387 -6.351604 -17.478237
v 60.233387 1.775971 -8.209727
v 72.508774 -7.909359 -9.577573
v 60.233387 -9.019372 -3.274629
v 69.711075 8.334116 -4.427701
v 60.233387 8.600186 -14.794450
v 74.059570 5.618178 -12.266365
v 60.233383 8.466261 -2.635614
v 71.561157 -5.864368 -2.019760
v 60.233387 1.117192 -3.390411
v 60.233387 -6.065822 -5.554414
v 48.628937 -5.419433 -10.569817
v 49.151169 -7.550547 -4.512652
v 47.440907 1.563441 -6.915071
v 47.551319 7.600663 -16.701817
v 48.442837 2.114877 -12.697721
v 48.166122 7.455102 -15.245877
v 49.651619 -4.881042 -6.143360
v 45.318428 -4.985475 -4.895722
v 44.635265 1.578567 -15.306175
v 46.417290 -4.494249 -12.921477
v 46.202881 7.492379 -7.014299
v 45.823811 7.658165 -10.970892
v 45.770508 -7.273462 -16.873072
v 45.863388 2.165823 -14.372155
v 35.918591 9.239818 -18.503040
v 35.618931 3.077547 -11.302121
v 42.379585 -6.217175 -6.830195
v 42.602539 -4.381426 -15.638712
v 43.370800 -3.694180 -4.991155
v 34.116905 2.655821 -6.671742
v 20.483448 3.588380 -9.189855
v 20.484262 -4.618872 -7.780077
v 35.585236 9.489038 -17.271500
v 20.485102 -4.281380 -19.047094
v 20.486036 4.294003 -15.818442
v 20.485357 9.061912 -8.997081
v 20.483736 8.894907 -5.374646
v 89.699814 2.961788 -9.513798
v 90.267464 -1.114488 -4.396174
v 89.664566 -8.920116 0.000000
v 89.524437 -10.542613 -8.546407
v 89.931946 -5.323106 1.636763
v 70.647301 0.655054 4.512651
v 47.440907 1.563437 4.895723
v 44.635265 1.578562 4.991153
v 34.116905 2.655817 2.019760
v 60.233383 1.117188 6.671741
v 20.483442 3.588376 0.000000
v 70.363953 0.604057 0.000000
v 81.670235 -9.566722 -0.000000
v 80.719490 11.416200 -0.000000
v 85.130280 7.715109 0.000000
v 70.363953 0.604057 0.000000
v 70.636703 7.067275 -0.000001
v 73.907646 11.139779 -1.636764
v 70.647301 0.655056 -4.512652
v 47.440907 1.563441 -4.895722
v 44.635265 1.578567 -4.991155
v 34.116905 2.655821 -2.019760
v 60.233387 1.117192 -6.671742
v 20.483448 3.588380 0.000000
v 71.171326 -5.974313 0.000000
v 75.876495 -8.470541 0.000000
v 70.363953 0.604057 0.000000
v 89.524437 -10.542613 -0.000000
v 89.699814 3.899500 0.041511
v 90.653870 4.415523 11.028411
v 90.267464 -0.895670 10.130533
v 96.402817 -0.761615 4.891070
v 89.664566 -9.580013 4.572059
v 95.766113 -10.010625 7.515838
v 96.715096 4.851039 9.020427
v 95.961227 -6.312778 9.778039
v 89.931946 -5.578071 4.911952
v 114.166000 -0.780685 5.009038
v 122.611053 2.854043 4.507288
v 120.603065 -1.682564 5.200833
v 116.143394 3.924685 4.593216
v 97.754234 -14.008793 4.578967
v 109.043762 9.900735 10.571659
v 102.849403 6.099857 11.502801
v 103.422005 -0.472740 8.649895
v 114.721542 3.958135 10.679099
v 109.350311 -2.919793 8.871175
v 105.198456 -12.362544 6.021074
v 109.732941 -6.548083 3.775731
v 103.716843 -14.353378 11.255812
v 98.392807 -7.137447 9.170083
v 101.813194 -13.672643 9.092956
v 97.867409 -12.555518 4.410622
v 101.344559 -15.160548 12.035362
v 102.045670 -7.786575 10.591956
v 106.084969 -6.183460 5.104714
v 119.376976 3.389291 4.722053
v 117.401566 -1.217566 2.712824
v 106.849236 -11.198154 7.046657
v 107.386398 -9.616455 -0.000000
v 102.106361 8.705755 10.556472
v 97.156067 -3.174993 11.190567
v 99.090225 -0.641694 12.242252
v 102.607330 -3.548853 11.591417
v 98.811729 -3.436592 7.378200
v 84.335983 11.509498 6.351204
v 84.335976 -11.668991 12.754568
v 84.335976 -6.506330 14.925900
v 84.335968 -0.715805 9.769624
v 76.387642 16.759115 9.511341
v 76.387650 -15.670871 12.172495
v 84.335976 6.881561 10.996516
v 68.431129 20.813095 11.727923
v 68.431137 -18.824991 21.052662
v 68.431129 -10.650540 24.649927
v 68.431137 0.344581 20.591608
v 68.431122 13.408557 12.375177
v 60.233387 23.766542 13.628338
v 60.233383 -21.650148 23.627094
v 60.233395 -12.393223 27.416595
v 60.233387 0.590008 22.909798
v 60.233387 15.459250 13.699244
v 52.739365 26.129665 15.002854
v 52.962002 -23.577158 25.522245
v 52.961998 -13.374690 29.378551
v 52.961990 0.834068 24.441946
v 52.961998 16.644735 14.469430
v 41.787548 27.624073 16.764713
v 41.787544 -26.160904 27.482880
v 41.787548 -14.242161 31.713818
v 41.787525 0.654195 26.225872
v 41.787544 17.475950 17.484482
v 76.387642 -8.722281 20.648617
v 76.386696 -0.025524 17.103081
v 76.387642 10.522232 0.864191
v 100.194130 -14.309610 4.592197
v 98.192215 -15.437897 0.889876
v 101.374222 -14.253632 4.994823
v 102.938622 -15.353787 0.994965
v 94.478523 -15.039462 4.324782
v 96.237053 -14.262188 0.456116
v 97.231598 -14.803056 2.589371
v 98.166946 -14.414421 3.943690
v 104.713013 9.800609 10.821500
v 108.977928 9.266266 14.189639
v 108.052032 8.878034 12.935004
v 104.141212 -0.004803 12.441092
v 113.077019 -0.661163 12.825498
v 114.110443 3.675169 8.773780
v 113.231789 -0.284901 11.810699
v 113.322845 8.015981 8.257136
v 113.822716 7.589154 15.962100
v 112.273232 0.395123 16.319098
v 112.444557 6.704167 39.680721
v 98.420174 7.198405 37.772572
v 94.328140 4.905120 37.732994
v 94.243286 -0.120765 39.591671
v 98.229195 -2.696462 41.441071
v 102.195251 5.273322 41.429642
v 102.170776 -0.746995 45.711197
v 100.089790 5.049097 44.161499
v 96.528381 6.713492 42.422783
v 92.722610 4.653468 42.148598
v 92.630402 -0.150554 43.801407
v 96.407471 -2.744951 45.439194
v 100.274803 -0.862273 15.348163
v 107.617645 8.523361 19.571028
v 106.308197 9.227877 17.848587
v 101.784615 6.581887 18.358593
v 101.760811 0.002534 19.886229
v 106.275566 -2.213699 18.918600
v 111.691689 3.115901 18.149155
v 111.911980 6.604635 21.551003
v 110.489021 0.391914 21.647530
v 110.455933 6.631304 37.594296
v 94.103073 -0.930068 39.762123
v 98.601379 -2.932790 41.816795
v 103.195999 5.583039 16.020287
v 107.459892 -1.874687 17.679749
v 111.503563 0.290013 37.226711
v 99.985252 10.451300 36.894295
v 99.916794 -5.873018 39.978935
v 106.883911 6.685951 33.114933
v 93.000710 6.621612 33.674099
v 93.057045 -2.062339 39.856636
v 106.503181 -2.767215 34.007759
v 101.295288 11.508487 34.123894
v 101.196838 -6.395506 37.388485
v 108.221954 7.016105 30.529226
v 93.767288 7.832782 30.792204
v 94.000168 -2.949232 36.823437
v 107.932030 -2.994759 41.581734
v 102.568481 -0.839541 39.997990
v 98.549133 7.858050 37.324451
v 94.024597 4.994197 25.060276
v 104.346764 9.633060 25.944839
v 103.877594 -3.024352 28.015549
v 109.438332 6.496338 23.568413
v 98.602318 7.053411 23.845200
v 98.745331 -0.602782 27.994621
v 109.223755 -0.412977 12.558403
v 104.153252 6.786205 16.169975
v 112.878838 3.346444 14.243645
v 108.115715 -1.948198 25.992792
v 97.064484 7.093412 26.466778
v 97.073547 -0.849656 31.215670
v 108.913223 -0.959625 29.239357
v 102.834412 9.760717 28.473782
v 103.127113 -3.488725 31.579216
v 109.124474 6.365010 45.992744
v 100.877731 -2.164894 43.678917
v 96.047424 -4.488876 46.957184
v 100.650772 5.030178 45.242348
v 96.284546 7.924883 42.896194
v 91.613113 4.898280 41.936447
v 91.413956 -1.708151 48.488770
v 97.889404 -5.709395 50.797516
v 101.182251 1.084876 47.290306
v 91.246185 9.499496 44.961418
v 87.758499 1.879205 45.490067
v 90.958374 -6.793108 50.250526
v 97.834106 7.933027 44.951359
v 98.805710 -3.838151 46.734169
v 101.348442 1.408378 43.654339
v 93.387192 7.476492 42.227543
v 90.982651 2.021754 42.605625
v 93.430237 -4.011582 46.311790
v 98.763023 6.696510 27.271778
v 103.446083 9.700073 5.088114
v 99.705826 -15.438987 2.728194
v 98.713104 -15.155905 2.942349
v 102.616554 -14.874393 2.976150
v 100.203094 -15.838392 -0.000001
v 123.522591 5.340424 10.905174
v 106.554024 -3.198244 11.041973
v 106.738380 -1.841339 6.550329
v 104.349777 -14.410532 10.533275
v 105.024391 8.779066 8.455832
v 103.528664 8.610300 3.641356
v 102.348671 8.848208 3.430621
v 90.722404 5.500781 3.290706
v 96.893562 6.152535 5.309916
v 114.310684 7.693484 8.467742
v 104.912018 9.135825 8.435860
v 109.004883 9.539704 -0.000000
v 113.184036 -3.289022 0.000000
v 100.369347 -14.039227 16.127083
v 43.684731 -25.627754 27.231342
v 43.684723 -14.028367 31.386223
v 43.684723 0.740561 26.030479
v 43.684727 17.300716 14.294325
v 43.573410 27.264511 0.000000
v 109.171791 8.975154 0.000000
v 103.229156 -12.843534 -0.000000
v 108.791061 -7.176803 -0.000001
v 76.387650 -18.051579 -0.000000
v 76.387642 17.923325 0.000002
v 60.233387 -25.097427 -0.000003
v 52.962006 -27.023510 -0.000001
v 43.684731 -28.948816 0.000000
v 43.684727 29.153360 -0.000001
v 41.787544 29.521675 8.871175
v 105.198456 -12.362544 10.591956
v 106.084969 -6.183460 14.189639
v 108.052032 8.878034 18.918600
v 111.691689 3.115901 18.149155
v 111.911980 6.604635 17.679749
v 111.503563 0.290013 14.243645
v 108.115715 -1.948198 10.905174
v 106.554024 -3.198244 11.041973
v 106.738380 -1.841339 6.550329
v 104.349777 -14.410532 10.533275
v 105.024391 8.779066 8.455832
v 103.528664 8.610300 3.641356
v 102.348671 8.848208 7.968597
v 101.056892 9.440055 13.669297
v 100.186729 -6.855834 14.694393
v 100.516251 -4.133303 11.319861
v 100.962761 -12.386793 16.237387
v 100.808388 -3.407705 11.686030
v 101.805641 9.001621 19.171194
v 104.415672 10.810350 21.359818
v 104.222450 -3.152307 26.173275
v 109.779984 -0.892111 27.588474
v 110.288322 3.178407 26.122822
v 109.775192 8.317227 8.400161
v 101.082253 -14.850329 9.760451
v 104.855064 -12.374668 11.294530
v 105.418594 -6.519063 14.278502
v 108.213539 9.844208 10.647000
v 104.855019 8.889361 19.058836
v 112.228279 -0.548993 20.162304
v 113.125336 3.144278 19.666979
v 112.465942 7.854330 11.621591
v 105.995018 -3.666232 12.017391
v 106.370865 -2.627067 14.999242
v 108.091339 -2.550243 7.022865
v 103.949608 -14.630427 8.212214
v 103.345062 9.025178 15.126559
v 102.232468 9.837492 22.825264
v 106.673271 9.312909 2.295991
v 98.783623 8.359912 3.349218
v 99.877579 8.377729 -11.028411
v 90.267464 -0.895670 -14.925900
v 84.335976 -0.715808 -12.172494
v 84.335976 6.881560 -7.658214
v 90.653870 4.415523 -7.515837
v 96.715096 4.851039 -10.130533
v 96.402817 -0.761613 -6.351204
v 84.335976 -11.668992 -4.891069
v 89.664566 -9.580014 0.000000
v 84.335968 -13.238064 -4.572060
v 95.766113 -10.010624 0.000000
v 97.372086 -11.353597 -3.430621
v 90.722404 5.500780 -3.290706
v 96.893562 6.152535 -9.778039
v 89.931946 -5.578072 -9.020426
v 95.961227 -6.312778 -12.754569
v 84.335976 -6.506327 -7.378199
v 84.335983 11.509499 -5.104716
v 119.376968 3.389291 -4.722052
v 117.401566 -1.217569 -4.911950
v 114.166000 -0.780686 -5.200833
v 116.143394 3.924685 -0.000000
v 116.894104 6.256158 -0.000000
v 120.207825 5.798122 0.000000
v 119.354492 -4.180037 0.000001
v 116.269226 -3.734433 -4.507287
v 120.603065 -1.682564 -4.593214
v 97.754234 -14.008793 -0.000001
v 104.291855 9.238346 -4.578968
v 109.039955 9.899915 -3.943689
v 104.713013 9.800611 -10.571659
v 102.846863 6.095110 -11.502800
v 103.424599 -0.476936 -11.190567
v 99.090225 -0.641695 -8.257133
v 113.815796 7.594722 -5.309916
v 114.303604 7.698787 -8.649897
v 114.719917 3.965077 -3.641356
v 102.348671 8.848208 -8.467745
v 104.912025 9.135825 -8.455832
v 103.528664 8.610301 -12.242252
v 102.610779 -3.552082 -12.035360
v 102.045670 -7.786575 -11.255812
v 98.392807 -7.137448 -11.591417
v 98.811729 -3.436596 -3.775730
v 103.716843 -14.353377 -2.712825
v 106.849236 -11.198154 0.000000
v 106.038635 -10.835774 -9.170079
v 101.813194 -13.672645 -4.410621
v 101.344559 -15.160549 -9.092953
v 97.867409 -12.555519 -6.550328
v 104.349777 -14.410533 -8.871177
v 105.198456 -12.362543 -10.679094
v 109.355843 -2.919701 -8.773780
v 113.236351 -0.279982 -6.021075
v 109.734772 -6.548193 -8.435856
v 109.001266 9.539318 -10.591955
v 106.086891 -6.184102 -10.905174
v 106.559837 -3.200655 -7.046656
v 107.386398 -9.616455 -10.556471
v 97.156067 -3.174996 -5.009041
v 122.611053 2.854043 -11.041972
v 106.742889 -1.843550 -9.511344
v 76.387650 -15.670872 -17.484482
v 76.387642 -8.722285 -17.103081
v 76.387634 10.522232 -9.769624
v 76.387642 16.759115 -20.648617
v 76.386703 -0.025185 -0.000000
v 84.335976 12.522070 0.000000
v 68.431137 -22.100422 -11.727924
v 68.431129 -18.824993 -10.996517
v 68.431129 20.813099 -0.000001
v 68.431122 22.626030 -13.628338
v 60.233383 -21.650146 -21.052664
v 68.431129 -10.650538 -23.627098
v 60.233387 -12.393224 -20.591610
v 68.431122 13.408560 -24.649925
v 68.431129 0.344595 -27.416595
v 60.233387 0.590059 -22.909798
v 60.233379 15.459250 -12.375177
v 60.233383 23.766544 -0.000000
v 60.233395 25.961557 -15.002853
v 52.962002 -23.577156 -25.522249
v 52.961994 -13.374689 -29.378557
v 52.962006 0.834091 -24.441946
v 52.961998 16.644739 -13.699245
v 52.739361 26.129663 -0.000001
v 52.962006 27.954679 -16.127085
v 43.684731 -25.627754 -27.231342
v 43.684723 -14.028367 -31.386215
v 43.684731 0.740690 -26.030474
v 43.684723 17.300718 -14.294327
v 43.573402 27.264511 0.000000
v 99.882240 -14.432475 -0.864189
v 100.194130 -14.309610 -0.889875
v 101.374222 -14.253629 0.000000
v 101.474236 -14.253630 -2.976149
v 100.203094 -15.838392 -2.942348
v 102.616554 -14.874392 -0.456115
v 97.231598 -14.803056 -2.589371
v 98.166946 -14.414421 -0.994961
v 94.478523 -15.039462 -4.324782
v 96.237053 -14.262190 -10.533274
v 105.019775 8.775923 -14.189647
v 108.047394 8.877750 -12.558401
v 104.148155 6.780475 -12.935005
v 104.144890 -0.010433 -14.243644
v 108.119408 -1.948424 -12.441092
v 113.082100 -0.655299 -12.825499
v 114.109222 3.682579 -11.810699
v 113.315315 8.021978 -10.821500
v 108.971947 9.266060 -41.441071
v 102.195251 5.273327 -41.429642
v 102.170776 -0.746989 -45.711197
v 100.089790 5.049099 -16.319098
v 112.441582 6.707458 -15.962101
v 112.275124 0.398229 -16.169975
v 112.878441 3.350029 -39.680717
v 98.420174 7.198405 -44.161495
v 96.528397 6.713493 -42.422783
v 92.722610 4.653464 -37.772572
v 94.328140 4.905113 -37.732994
v 94.243286 -0.120771 -42.148598
v 92.630402 -0.150559 -43.801399
v 96.407440 -2.744950 -39.591705
v 98.229271 -2.696464 -45.439194
v 100.274803 -0.862270 -15.348165
v 107.613258 8.522956 -17.848587
v 101.779770 6.574742 -19.571041
v 106.308296 9.227874 -18.358593
v 101.764488 -0.004492 -19.886232
v 106.275520 -2.213701 -16.020285
v 107.463524 -1.875098 -17.679749
v 111.505531 0.292845 -18.918600
v 111.691475 3.119077 -18.149155
v 111.909081 6.607843 -25.060276
v 104.346840 9.633060 -23.568411
v 98.602364 7.053460 -23.845201
v 98.745308 -0.602740 -25.944839
v 103.877541 -3.024354 -21.647530
v 110.453003 6.634031 -28.015543
v 109.438370 6.496284 -21.551001
v 110.490913 0.394649 -39.856647
v 106.503181 -2.767203 -36.894321
v 99.916832 -5.873016 -39.762138
v 98.601395 -2.932790 -41.581734
v 102.568481 -0.839535 -39.978928
v 106.883911 6.685964 -41.816788
v 103.196007 5.583047 -39.997986
v 98.549133 7.858052 -37.324448
v 94.024597 4.994191 -33.114925
v 93.000710 6.621603 -37.226704
v 99.985268 10.451299 -37.594299
v 94.103073 -0.930074 -33.674103
v 93.057045 -2.062353 -36.823444
v 107.932030 -2.994748 -34.123920
v 101.196846 -6.395505 -37.388470
v 108.221954 7.016118 -30.529209
v 93.767281 7.832768 -34.007748
v 101.295296 11.508487 -30.792215
v 94.000168 -2.949243 -31.215675
v 108.913223 -0.959634 -28.473793
v 103.127113 -3.488727 -31.579205
v 109.124474 6.365005 -43.678917
v 96.047424 -4.488877 -44.951366
v 98.805717 -3.838149 -45.992752
v 100.877739 -2.164891 -46.734169
v 101.348442 1.408382 -46.957184
v 100.650772 5.030182 -43.654331
v 93.387192 7.476488 -42.896191
v 91.613113 4.898275 -45.242359
v 96.284592 7.924883 -42.227543
v 90.982651 2.021749 -41.936451
v 91.413956 -1.708155 -42.605633
v 93.430237 -4.011585 -46.311790
v 98.763016 6.696512 -27.271778
v 103.446144 9.700071 -25.992785
v 97.064499 7.093416 -26.466782
v 97.073547 -0.849647 -27.994623
v 109.223732 -0.413023 -29.239347
v 102.834435 9.760717 -48.488777
v 97.889404 -5.709394 -50.797516
v 101.182251 1.084880 -47.290298
v 91.246178 9.499489 -44.961418
v 87.758499 1.879197 -45.490074
v 90.958374 -6.793110 -50.250526
v 97.834106 7.933029 -2.728193
v 98.713104 -15.155905 -5.088114
v 99.705826 -15.438990 -4.994825
v 102.938622 -15.353786 -4.592196
v 98.192215 -15.437897 -0.000000
v 97.153732 6.962775 -0.000000
v 90.803329 5.817797 -0.000000
v 114.242638 7.649805 -0.000004
v 41.787548 -29.266537 -16.764717
v 41.787544 -26.160904 -27.482889
v 41.787548 -14.242154 -31.713816
v 41.787552 0.654750 -26.225870
v 41.787548 17.475956 -14.469434
v 41.787548 27.624071 0.000000
v 89.524437 -10.542613 -11.319862
v 100.962761 -12.386792 -13.669295
v 100.186729 -6.855839 -11.294529
v 105.421005 -6.519972 -9.760450
v 104.855064 -12.374668 -15.126559
v 102.223412 9.830127 -11.686030
v 101.800842 8.996295 -10.646999
v 104.850304 8.886108 -14.278510
v 108.208153 9.844059 -26.173279
v 109.779945 -0.892156 -27.588474
v 110.288322 3.178349 -20.162308
v 113.125099 3.148713 -19.058834
v 112.230904 -0.545400 -26.122820
v 109.775246 8.317180 -19.666977
v 112.462074 7.858200 -14.694393
v 100.516243 -4.133298 -11.621590
v 105.996704 -3.666981 -16.237385
v 100.815338 -3.415272 -12.017389
v 106.376122 -2.629414 -21.359819
v 104.222404 -3.152298 -14.999245
v 108.095497 -2.550360 -8.400160
v 101.082253 -14.850329 -7.022856
v 103.949608 -14.630430 -22.825260
v 106.673340 9.312896 -19.171188
v 104.415741 10.810365 -7.968595
v 101.056892 9.440057 -3.641356
v 102.348671 8.848208 -8.212213
v 103.345062 9.025178 -10.591955
v 106.086891 -6.184102 -8.871177
v 105.198456 -12.362543 -10.533274
v 105.019775 8.775923 -14.189647
v 108.047394 8.877750 -18.918600
v 111.691475 3.119077 -17.679749
v 111.505531 0.292845 -18.149155
v 111.909081 6.607843 -10.905174
v 106.559837 -3.200655 -11.041972
v 106.742889 -1.843550 -14.243644
v 108.119408 -1.948424 -6.550328
v 104.349777 -14.410533 -8.455832
v 103.528664 8.610301 -0.000000
v 102.030655 8.746055 -3.349218
v 99.877579 8.377728 -2.295992
v 98.783623 8.359912 -0.000000
v 101.449104 8.470705 3.775731
v 103.716843 -14.353378 0.000000
v 103.229156 -12.843534 3.775731
v 103.716843 -14.353378 0.000000
v 100.369347 -14.039227 10.591956
v 106.084969 -6.183460 6.550329
v 104.349777 -14.410532 8.871175
v 105.198456 -12.362544 10.533275
v 105.024391 8.779066 12.558403
v 104.153252 6.786205 14.189639
v 108.052032 8.878034 37.772572
v 94.328140 4.905120 42.422783
v 92.722610 4.653468 12.935004
v 104.141212 -0.004803 17.848587
v 101.784615 6.581887 12.558403
v 104.153252 6.786205 23.568413
v 98.602318 7.053411 14.243645
v 108.115715 -1.948198 18.149155
v 111.911980 6.604635 18.918600
v 111.691689 3.115901 17.679749
v 111.503563 0.290013 37.324451
v 94.024597 4.994197 33.114933
v 93.000710 6.621612 30.529226
v 93.767288 7.832782 39.762123
v 98.601379 -2.932790 41.581734
v 102.568481 -0.839541 41.816795
v 103.195999 5.583039 37.324451
v 94.024597 4.994197 39.997990
v 98.549133 7.858050 37.594296
v 94.103073 -0.930068 37.324451
v 94.024597 4.994197 42.896194
v 91.613113 4.898280 25.992792
v 97.064484 7.093412 10.905174
v 106.554024 -3.198244 11.041973
v 106.738380 -1.841339 14.243645
v 108.115715 -1.948198 8.455832
v 103.528664 8.610300 3.641356
v 102.348671 8.848208 -0.000000
v 102.106361 8.705755 10.533275
v 105.024391 8.779066 0.000000
v 84.335968 -13.238064 0.000000
v 89.524437 -10.542613 0.000000
v 97.372086 -11.353597 -0.000000
v 120.207825 5.798122 -0.000000
v 116.894104 6.256158 0.000000
v 119.354492 -4.180037 0.000001
v 116.269226 -3.734433 -0.000000
v 113.184036 -3.289022 -0.000001
v 104.291855 9.238346 0.000000
v 109.171791 8.975154 -0.000000
v 102.106361 8.705755 0.000000
v 103.229156 -12.843534 0.000000
v 106.038635 -10.835774 -3.775730
v 103.716843 -14.353377 -3.775730
v 103.716843 -14.353377 0.000000
v 100.369347 -14.039227 -0.000000
v 108.791061 -7.176803 -10.591955
v 106.086891 -6.184102 -0.000001
v 123.522591 5.340424 -6.550328
v 104.349777 -14.410533 -8.871177
v 105.198456 -12.362543 -0.000001
v 76.387650 -18.051579 -0.000000
v 84.335976 12.522070 -0.000000
v 76.387642 17.923325 0.000000
v 68.431137 -22.100422 -0.000001
v 68.431122 22.626030 0.000002
v 60.233387 -25.097427 -0.000000
v 60.233395 25.961557 -0.000003
v 52.962006 -27.023510 -0.000001
v 52.962006 27.954679 -0.000001
v 43.684731 -28.948816 0.000000
v 43.684727 29.153360 0.000000
v 99.882240 -14.432475 0.000000
v 101.474236 -14.253630 -10.533274
v 105.019775 8.775923 -12.558401
v 104.148155 6.780475 -14.189647
v 108.047394 8.877750 -37.772572
v 94.328140 4.905113 -42.422783
v 92.722610 4.653464 -12.935005
v 104.144890 -0.010433 -17.848587
v 101.779770 6.574742 -12.558401
v 104.148155 6.780475 -23.568411
v 98.602364 7.053460 -14.243644
v 108.119408 -1.948424 -18.149155
v 111.909081 6.607843 -18.918600
v 111.691475 3.119077 -17.679749
v 111.505531 0.292845 -37.324448
v 94.024597 4.994191 -33.114925
v 93.000710 6.621603 -30.529209
v 93.767281 7.832768 -41.581734
v 102.568481 -0.839535 -39.762138
v 98.601395 -2.932790 -41.816788
v 103.196007 5.583047 -39.997986
v 98.549133 7.858052 -37.324448
v 94.024597 4.994191 -37.324448
v 94.024597 4.994191 -42.896191
v 91.613113 4.898275 -37.594299
v 94.103073 -0.930074 -25.992785
v 97.064499 7.093416 -10.905174
v 106.559837 -3.200655 -11.041972
v 106.742889 -1.843550 -14.243644
v 108.119408 -1.948424 -8.455832
v 103.528664 8.610301 -3.641356
v 102.348671 8.848208 -0.000000
v 102.106361 8.705755 -0.000000
v 97.153732 6.962775 -10.533274
v 105.019775 8.775923 -0.000000
v 90.803329 5.817797 -0.000000
v 114.242638 7.649805 -0.000004
v 41.787548 -29.266537 -0.000001
v 41.787544 29.521675 -0.000000
v 102.030655 8.746055 -0.000000
v 101.449104 8.470705 0.331645

vt 0.085762 0.955872
vt 0.169963 0.951121
vt 0.144784 0.968980
vt 0.042538 0.936679
vt 0.069480 0.930354
vt 0.095794 0.950691
vt 0.121817 0.926448
vt 0.121868 0.926740
vt 0.170290 0.925216
vt 0.145985 0.897385
vt 0.027412 0.911692
vt 0.071608 0.890839
vt 0.076133 0.912370
vt 0.121097 0.903331
vt 0.147239 0.848475
vt 0.146840 0.846798
vt 0.115776 0.906385
vt 0.170946 0.851434
vt 0.170217 0.891428
vt 0.054080 0.849976
vt 0.058791 0.906241
vt 0.098084 0.848624
vt 0.085013 0.905288
vt 0.194338 0.852348
vt 0.218212 0.852169
vt 0.190844 0.807087
vt 0.190516 0.809500
vt 0.169063 0.796568
vt 0.027484 0.797215
vt 0.058908 0.802255
vt 0.115947 0.799631
vt 0.087053 0.810074
vt 0.146341 0.793742
vt 0.190457 0.785640
vt 0.218209 0.796465
vt 0.146308 0.791079
vt 0.087491 0.789886
vt 0.058914 0.796082
vt 0.168770 0.790976
vt 0.116224 0.748533
vt 0.088383 0.747725
vt 0.116417 0.781135
vt 0.168510 0.782194
vt 0.190413 0.783169
vt 0.143862 0.744426
vt 0.218209 0.690541
vt 0.218209 0.690548
vt 0.190143 0.748739
vt 0.058952 0.690531
vt 0.147420 0.690524
vt 0.115127 0.690529
vt 0.089334 0.690545
vt 0.058953 0.944198
vt 0.042552 0.903020
vt 0.016652 0.908552
vt 0.208318 0.930422
vt 0.204161 0.987828
vt 0.091749 0.989021
vt 0.169963 0.986991
vt 0.144784 0.994510
vt 0.051790 0.986562
vt 0.121817 0.936679
vt 0.069480 0.958489
vt 0.085762 0.930354
vt 0.095794 0.950691
vt 0.121817 0.926448
vt 0.121868 0.962315
vt 0.192162 0.926740
vt 0.170290 0.955872
vt 0.169963 0.925216
vt 0.145985 0.951121
vt 0.144784 0.897385
vt 0.027412 0.905472
vt 0.030130 0.911692
vt 0.071608 0.890839
vt 0.076133 0.915816
vt 0.038518 0.912370
vt 0.121097 0.903331
vt 0.147239 0.848475
vt 0.146840 0.846798
vt 0.115776 0.906385
vt 0.170946 0.851434
vt 0.170217 0.891428
vt 0.054080 0.849976
vt 0.058791 0.906241
vt 0.098084 0.848624
vt 0.085013 0.905288
vt 0.194338 0.852348
vt 0.218212 0.852169
vt 0.190844 0.807087
vt 0.190516 0.809500
vt 0.169063 0.796568
vt 0.027484 0.797215
vt 0.058908 0.802255
vt 0.115947 0.799631
vt 0.087053 0.810074
vt 0.146341 0.793742
vt 0.190457 0.785640
vt 0.218209 0.796465
vt 0.146308 0.791079
vt 0.087491 0.789886
vt 0.058914 0.796082
vt 0.168770 0.790976
vt 0.116224 0.748533
vt 0.088383 0.747725
vt 0.116417 0.781135
vt 0.168510 0.782194
vt 0.190413 0.783169
vt 0.143862 0.744426
vt 0.218209 0.690541
vt 0.218209 0.690548
vt 0.190143 0.748739
vt 0.058952 0.690531
vt 0.147420 0.690524
vt 0.115127 0.690529
vt 0.089334 0.690545
vt 0.058953 0.987828
vt 0.091749 0.986562
vt 0.121817 0.989021
vt 0.169963 0.990566
vt 0.192162 0.986991
vt 0.144784 0.897626
vt 0.218214 0.796625
vt 0.218210 0.785605
vt 0.027486 0.744388
vt 0.027491 0.852344
vt 0.027451 0.690542
vt 0.027508 0.903065
vt 0.224631 0.962315
vt 0.192162 0.944198
vt 0.042552 0.968980
vt 0.042538 0.903020
vt 0.016652 0.905472
vt 0.030130 0.915816
vt 0.038518 0.897626
vt 0.218214 0.796625
vt 0.218210 0.785605
vt 0.027486 0.744388
vt 0.027491 0.852344
vt 0.027451 0.690542
vt 0.027508 0.908552
vt 0.208318 0.930422
vt 0.204161 0.903065
vt 0.224631 0.990566
vt 0.192162 0.994510
vt 0.051790 1.000000
vt 0.833863 0.725441
vt 0.800800 0.749599
vt 0.860969 0.841765
vt 0.759055 0.860024
vt 0.816016 0.695560
vt 0.892335 0.803533
vt 0.838725 0.777904
vt 0.779428 0.199878
vt 0.261030 0.281794
vt 0.362846 0.293461
vt 0.317289 0.183251
vt 0.321725 0.892239
vt 0.845583 0.095074
vt 0.422423 0.722082
vt 0.955397 0.774111
vt 0.929194 0.136511
vt 0.305305 0.124945
vt 0.187849 0.884600
vt 0.925560 0.186417
vt 0.160835 0.210102
vt 0.036770 0.813686
vt 0.873577 0.881191
vt 0.893763 0.861284
vt 0.863484 0.916353
vt 0.868708 0.826580
vt 0.909351 0.125866
vt 0.135405 0.232462
vt 0.338723 0.248510
vt 0.294237 0.224174
vt 0.089852 0.175742
vt 0.111062 0.071785
vt 0.521371 0.776141
vt 0.864808 0.759234
vt 0.890397 0.795034
vt 0.919387 0.783471
vt 0.883792 0.572568
vt 0.797191 0.833263
vt 0.707595 0.756318
vt 0.716648 0.697488
vt 0.730462 0.500397
vt 0.740331 0.834444
vt 0.618538 0.626743
vt 0.763490 0.433251
vt 0.687225 0.837126
vt 0.534993 0.725958
vt 0.541857 0.626807
vt 0.566173 0.517157
vt 0.618424 0.375504
vt 0.626707 0.836476
vt 0.451347 0.713999
vt 0.461391 0.597072
vt 0.492320 0.471220
vt 0.552418 0.328999
vt 0.568202 0.832321
vt 0.379660 0.699663
vt 0.393324 0.570870
vt 0.428713 0.435244
vt 0.493858 0.263391
vt 0.482514 0.823996
vt 0.266016 0.678730
vt 0.287597 0.534302
vt 0.326268 0.383469
vt 0.398640 0.739324
vt 0.625471 0.658772
vt 0.643506 0.568678
vt 0.686736 0.463187
vt 0.971769 0.521673
vt 0.887387 0.434652
vt 0.967839 0.409049
vt 0.865962 0.599026
vt 0.993893 0.573700
vt 0.907378 0.532819
vt 0.992655 0.519979
vt 0.938843 0.062759
vt 0.464611 0.044541
vt 0.374219 0.398772
vt 0.280729 0.773248
vt 0.937478 0.106139
vt 0.236826 0.088990
vt 0.282789 0.149303
vt 0.248429 0.074135
vt 0.330462 0.112111
vt 0.347364 0.061717
vt 0.233908 0.030463
vt 0.295912 0.954490
vt 0.953445 0.957443
vt 0.992711 0.955324
vt 0.795157 0.956390
vt 0.834603 0.954657
vt 0.917930 0.956373
vt 0.871370 0.991846
vt 0.917760 0.992475
vt 0.950880 0.995411
vt 0.987166 0.991900
vt 0.796931 0.992110
vt 0.835105 0.990890
vt 0.871299 0.395439
vt 0.269533 0.386319
vt 0.231299 0.343450
vt 0.247115 0.571883
vt 0.211542 0.526948
vt 0.207636 0.018007
vt 0.247113 0.010279
vt 0.285584 0.481610
vt 0.206776 0.428541
vt 0.215125 0.591919
vt 0.022038 0.532547
vt 0.009788 0.398127
vt 0.023636 0.526626
vt 0.243745 0.041385
vt 0.224165 0.342764
vt 0.070260 0.532181
vt 0.043775 0.404730
vt 0.056027 0.273531
vt 0.088077 0.595816
vt 0.056944 0.474469
vt 0.045992 0.345968
vt 0.100393 0.531833
vt 0.069135 0.406832
vt 0.079578 0.279456
vt 0.121447 0.591245
vt 0.081175 0.477858
vt 0.071641 0.471453
vt 0.010470 0.338806
vt 0.036189 0.285343
vt 0.045537 0.371232
vt 0.181806 0.531477
vt 0.149697 0.420555
vt 0.158308 0.319563
vt 0.194308 0.582189
vt 0.155961 0.478102
vt 0.148838 0.362503
vt 0.293996 0.049843
vt 0.263904 0.079538
vt 0.180512 0.652623
vt 0.149902 0.589701
vt 0.129062 0.475655
vt 0.121604 0.357113
vt 0.144336 0.531876
vt 0.126418 0.416964
vt 0.128340 0.179784
vt 0.744835 0.130946
vt 0.694481 0.247634
vt 0.801899 0.301335
vt 0.844695 0.367930
vt 0.874065 0.089465
vt 0.641819 0.118255
vt 0.755855 0.182950
vt 0.813493 0.303213
vt 0.910097 0.019673
vt 0.630885 0.063999
vt 0.710114 0.241239
vt 0.864535 0.154963
vt 0.722446 0.212424
vt 0.773663 0.332826
vt 0.860753 0.063750
vt 0.604725 0.106388
vt 0.671511 0.271373
vt 0.823207 0.363089
vt 0.162053 0.486991
vt 0.868279 0.502657
vt 0.927523 0.413374
vt 0.913495 0.469618
vt 0.914322 0.280312
vt 0.393723 0.110300
vt 0.156870 0.103943
vt 0.159709 0.912467
vt 0.904452 0.010701
vt 0.407456 0.013137
vt 0.436927 0.042961
vt 0.488195 0.633648
vt 0.859817 0.657406
vt 0.909370 0.139895
vt 0.365468 0.026673
vt 0.425129 0.064301
vt 0.391765 0.255411
vt 0.208439 0.258447
vt 0.016628 0.828328
vt 0.290591 0.682990
vt 0.308901 0.541074
vt 0.347015 0.394316
vt 0.417350 0.276126
vt 0.500138 0.134506
vt 0.459386 0.258438
vt 0.044102 0.256145
vt 0.143495 0.922774
vt 0.632160 0.450900
vt 0.815032 0.964515
vt 0.463313 0.973322
vt 0.389132 0.980906
vt 0.299427 0.179257
vt 0.592937 0.163247
vt 0.577149 0.046368
vt 0.739196 0.093738
vt 0.770171 0.283074
vt 0.934637 0.210580
vt 0.879874 0.233322
vt 0.908689 0.184727
vt 0.854490 0.153659
vt 0.811104 0.119411
vt 0.779126 0.134913
vt 0.781102 0.031615
vt 0.715312 0.325673
vt 0.943406 0.348325
vt 0.943643 0.391248
vt 0.937448 0.363598
vt 0.965071 0.051442
vt 0.813681 0.073093
vt 0.829154 0.021093
vt 0.768773 0.078929
vt 0.838994 0.333052
vt 0.974445 0.264747
vt 0.989602 0.107036
vt 0.875407 0.146027
vt 0.917994 0.155174
vt 0.941490 0.187233
vt 0.966761 0.006654
vt 0.737055 0.044972
vt 0.744753 0.086571
vt 0.775947 0.283684
vt 0.939220 0.326653
vt 0.945298 0.176085
vt 0.864182 0.199880
vt 0.892934 0.226608
vt 0.924756 0.110506
vt 0.786104 0.123813
vt 0.791554 0.144434
vt 0.818681 0.027447
vt 0.719136 0.351667
vt 0.947494 0.306261
vt 0.987309 0.225389
vt 0.983149 0.101503
vt 0.932459 0.058222
vt 0.960193 0.725441
vt 0.800800 0.697488
vt 0.730462 0.626743
vt 0.763490 0.668355
vt 0.833863 0.695560
vt 0.892335 0.749599
vt 0.860969 0.833263
vt 0.707595 0.841765
vt 0.759055 0.893214
vt 0.706858 0.860024
vt 0.816016 0.909321
vt 0.807769 0.633648
vt 0.859817 0.657406
vt 0.909370 0.777904
vt 0.779428 0.803533
vt 0.838725 0.756318
vt 0.716648 0.572568
vt 0.797191 0.232462
vt 0.338723 0.248510
vt 0.294237 0.199878
vt 0.261030 0.183251
vt 0.321725 0.205568
vt 0.400644 0.240336
vt 0.386888 0.329370
vt 0.258287 0.280702
vt 0.233851 0.293461
vt 0.317289 0.892239
vt 0.845583 0.091428
vt 0.502024 0.095074
vt 0.422423 0.062759
vt 0.464611 0.722082
vt 0.955397 0.774111
vt 0.929194 0.759234
vt 0.890397 0.112111
vt 0.347364 0.139895
vt 0.365468 0.136511
vt 0.305305 0.042961
vt 0.488195 0.026673
vt 0.425129 0.013137
vt 0.436927 0.795034
vt 0.919387 0.826580
vt 0.909351 0.813686
vt 0.873577 0.783471
vt 0.883792 0.210102
vt 0.036770 0.224174
vt 0.089852 0.257260
vt 0.086354 0.881191
vt 0.893763 0.916353
vt 0.868708 0.861284
vt 0.863484 0.912467
vt 0.904452 0.884600
vt 0.925560 0.124945
vt 0.187849 0.149303
vt 0.248429 0.186417
vt 0.160835 0.064301
vt 0.391765 0.125866
vt 0.135405 0.110300
vt 0.156870 0.175742
vt 0.111062 0.776141
vt 0.864808 0.281794
vt 0.362846 0.103943
vt 0.159709 0.834444
vt 0.618538 0.739324
vt 0.625471 0.568678
vt 0.686736 0.500397
vt 0.740331 0.658772
vt 0.643506 0.535496
vt 0.854543 0.947586
vt 0.548503 0.837126
vt 0.534993 0.433251
vt 0.687225 0.370021
vt 0.766743 0.836476
vt 0.451347 0.725958
vt 0.541857 0.713999
vt 0.461391 0.517157
vt 0.618424 0.626807
vt 0.566173 0.597072
vt 0.492320 0.471220
vt 0.552418 0.375504
vt 0.626707 0.297590
vt 0.711450 0.832321
vt 0.379660 0.699663
vt 0.393324 0.570870
vt 0.428713 0.435244
vt 0.493858 0.328999
vt 0.568202 0.241129
vt 0.658781 0.828328
vt 0.290591 0.682990
vt 0.308901 0.541074
vt 0.347015 0.394316
vt 0.417350 0.276126
vt 0.500138 0.460400
vt 0.991207 0.463187
vt 0.971769 0.434652
vt 0.967839 0.432131
vt 0.988537 0.469618
vt 0.914322 0.413374
vt 0.913495 0.532819
vt 0.992655 0.519979
vt 0.938843 0.599026
vt 0.993893 0.573700
vt 0.907378 0.010701
vt 0.407456 0.398772
vt 0.280729 0.362503
vt 0.293996 0.773248
vt 0.937478 0.079538
vt 0.180512 0.106139
vt 0.236826 0.088990
vt 0.282789 0.074135
vt 0.330462 0.044541
vt 0.374219 0.954657
vt 0.917930 0.956373
vt 0.871370 0.991846
vt 0.917760 0.030463
vt 0.295912 0.061717
vt 0.233908 0.049843
vt 0.263904 0.954490
vt 0.953445 0.992475
vt 0.950880 0.995411
vt 0.987166 0.957443
vt 0.992711 0.955324
vt 0.795157 0.991900
vt 0.796931 0.992110
vt 0.835105 0.956390
vt 0.834603 0.990890
vt 0.871299 0.395439
vt 0.269533 0.343450
vt 0.247115 0.386319
vt 0.231299 0.571883
vt 0.211542 0.526948
vt 0.207636 0.526626
vt 0.243745 0.041385
vt 0.224165 0.018007
vt 0.247113 0.010279
vt 0.285584 0.371232
vt 0.181806 0.319563
vt 0.194308 0.582189
vt 0.155961 0.531477
vt 0.149697 0.428541
vt 0.215125 0.420555
vt 0.158308 0.481610
vt 0.206776 0.474469
vt 0.045992 0.532181
vt 0.043775 0.532547
vt 0.009788 0.471453
vt 0.010470 0.404730
vt 0.056027 0.398127
vt 0.023636 0.338806
vt 0.036189 0.285343
vt 0.045537 0.273531
vt 0.088077 0.342764
vt 0.070260 0.591919
vt 0.022038 0.595816
vt 0.056944 0.477858
vt 0.071641 0.531833
vt 0.069135 0.406832
vt 0.079578 0.279456
vt 0.121447 0.345968
vt 0.100393 0.591245
vt 0.081175 0.475655
vt 0.121604 0.531876
vt 0.126418 0.416964
vt 0.128340 0.130946
vt 0.694481 0.154963
vt 0.722446 0.179784
vt 0.744835 0.212424
vt 0.773663 0.247634
vt 0.801899 0.332826
vt 0.860753 0.367930
vt 0.874065 0.301335
vt 0.844695 0.063750
vt 0.604725 0.089465
vt 0.641819 0.106388
vt 0.671511 0.271373
vt 0.823207 0.363089
vt 0.162053 0.652623
vt 0.149902 0.589701
vt 0.129062 0.478102
vt 0.148838 0.357113
vt 0.144336 0.118255
vt 0.755855 0.182950
vt 0.813493 0.303213
vt 0.910097 0.019673
vt 0.630885 0.063999
vt 0.710114 0.241239
vt 0.864535 0.502657
vt 0.927523 0.486991
vt 0.868279 0.409049
vt 0.865962 0.521673
vt 0.887387 0.630679
vt 0.924475 0.610844
vt 0.881676 0.177167
vt 0.414146 0.984164
vt 0.277431 0.823996
vt 0.266016 0.678730
vt 0.287597 0.534302
vt 0.326268 0.383469
vt 0.398640 0.263391
vt 0.482514 0.889763
vt 0.752601 0.021093
vt 0.768773 0.051442
vt 0.813681 0.086571
vt 0.775947 0.044972
vt 0.744753 0.306261
vt 0.987309 0.333052
vt 0.974445 0.326653
vt 0.945298 0.283684
vt 0.939220 0.146027
vt 0.917994 0.155174
vt 0.941490 0.199880
vt 0.892934 0.176085
vt 0.864182 0.187233
vt 0.966761 0.226608
vt 0.924756 0.073093
vt 0.829154 0.110506
vt 0.786104 0.078929
vt 0.838994 0.123813
vt 0.791554 0.107036
vt 0.875407 0.144434
vt 0.818681 0.006654
vt 0.737055 0.027447
vt 0.719136 0.225389
vt 0.983149 0.264747
vt 0.989602 0.363598
vt 0.965071 0.391248
vt 0.937448 0.351667
vt 0.947494 0.093738
vt 0.770171 0.046368
vt 0.739196 0.325673
vt 0.943406 0.283074
vt 0.934637 0.210580
vt 0.879874 0.184727
vt 0.854490 0.233322
vt 0.908689 0.119411
vt 0.779126 0.134913
vt 0.781102 0.153659
vt 0.811104 0.031615
vt 0.715312 0.348325
vt 0.943643 0.008426
vt 0.834332 0.058222
vt 0.960193 0.101503
vt 0.932459 0.028264
vt 0.838806 0.933440
vt 0.882210 0.258438
vt 0.044102 0.210102
vt 0.036770 0.938291
vt 0.833635 0.827073
vt 0.950184 0.177465
vt 0.042355 0.152853
vt 0.068366 0.376951
vt 0.315322 0.733520
vt 0.976786 0.008590
vt 0.353961 0.956848
vt 0.756101 0.995071
vt 0.759509 0.562760
vt 0.263441 0.624625
vt 0.230041 0.616213
vt 0.280089 0.642614
vt 0.175599 0.525813
vt 0.260753 0.436121
vt 0.248159 0.462331
vt 0.235303 0.486426
vt 0.241856 0.646439
vt 0.023032 0.664167
vt 0.064027 0.673049
vt 0.097600 0.181089
vt 0.655846 0.225877
vt 0.698193 0.286173
vt 0.743336 0.398628
vt 0.809156 0.342755
vt 0.780309 0.142577
vt 0.602682 0.111385
vt 0.541835 0.046902
vt 0.574043 0.305095
vt 0.171124 0.799193
vt 0.958780 0.787319
vt 0.961777 0.758754
vt 0.977429 0.699901
vt 0.971431 0.662907
vt 0.966776 0.631940
vt 0.968278 0.712292
vt 0.987390 0.893214
vt 0.706858 0.889763
vt 0.752601 0.909321
vt 0.807769 0.240336
vt 0.386888 0.205568
vt 0.400644 0.329370
vt 0.258287 0.280702
vt 0.233851 0.255411
vt 0.208439 0.091428
vt 0.502024 0.134506
vt 0.459386 0.071785
vt 0.521371 0.258438
vt 0.044102 0.257260
vt 0.086354 0.933440
vt 0.882210 0.210102
vt 0.036770 0.938291
vt 0.833635 0.256145
vt 0.143495 0.827073
vt 0.950184 0.280312
vt 0.393723 0.177465
vt 0.042355 0.152853
vt 0.068366 0.922774
vt 0.632160 0.535496
vt 0.854543 0.450900
vt 0.815032 0.947586
vt 0.548503 0.370021
vt 0.766743 0.964515
vt 0.463313 0.297590
vt 0.711450 0.973322
vt 0.389132 0.241129
vt 0.658781 0.980906
vt 0.299427 0.179257
vt 0.592937 0.460400
vt 0.991207 0.432131
vt 0.988537 0.376951
vt 0.315322 0.733520
vt 0.976786 0.008590
vt 0.353961 0.956848
vt 0.756101 0.995071
vt 0.759509 0.562760
vt 0.263441 0.624625
vt 0.230041 0.616213
vt 0.280089 0.642614
vt 0.175599 0.525813
vt 0.260753 0.436121
vt 0.248159 0.462331
vt 0.235303 0.486426
vt 0.241856 0.646439
vt 0.023032 0.664167
vt 0.064027 0.673049
vt 0.097600 0.225877
vt 0.698193 0.181089
vt 0.655846 0.286173
vt 0.743336 0.342755
vt 0.780309 0.398628
vt 0.809156 0.111385
vt 0.541835 0.046902
vt 0.574043 0.142577
vt 0.602682 0.305095
vt 0.171124 0.799193
vt 0.958780 0.787319
vt 0.961777 0.758754
vt 0.977429 0.699901
vt 0.971431 0.662907
vt 0.966776 0.631940
vt 0.968278 0.630679
vt 0.924475 0.712292
vt 0.987390 0.610844
vt 0.881676 0.177167
vt 0.414146 0.984164
vt 0.277431 0.163247
vt 0.577149 0.008426
vt 0.834332 0.028264
vt 0.838806 1.000000

f 5/5 6/6 1/1
f 7/7 1/1 6/6
f 6/6 8/8 7/7
f 68/68 2/2 9/9
f 2/2 3/3 10/10
f 8/8 3/3 7/7
f 10/10 9/9 2/2
f 5/5 4/4 54/54
f 4/4 5/5 1/1
f 11/11 74/74 55/55
f 12/12 77/77 13/13
f 14/14 16/16 15/15
f 16/16 14/14 17/17
f 18/18 9/9 15/15
f 15/15 16/16 19/19
f 20/20 21/21 13/13
f 13/13 23/23 22/22
f 24/24 26/26 25/25
f 123/123 24/24 25/25
f 19/19 27/27 26/26
f 27/27 19/19 28/28
f 29/29 30/30 21/21
f 31/31 17/17 32/32
f 16/16 33/33 28/28
f 28/28 19/19 16/16
f 34/34 35/35 124/124
f 124/124 26/26 27/27
f 36/36 33/33 31/31
f 37/37 30/30 38/38
f 30/30 37/37 32/32
f 21/21 23/23 13/13
f 27/27 39/39 34/34
f 39/39 27/27 28/28
f 33/33 39/39 28/28
f 39/39 33/33 36/36
f 31/31 40/40 36/36
f 124/124 27/27 34/34
f 41/41 40/40 37/37
f 40/40 41/41 42/42
f 43/43 34/34 39/39
f 34/34 43/43 44/44
f 36/36 43/43 39/39
f 43/43 36/36 45/45
f 46/46 48/48 47/47
f 48/48 46/46 44/44
f 125/125 49/49 38/38
f 49/49 125/125 126/126
f 37/37 49/49 41/41
f 49/49 37/37 38/38
f 40/40 45/45 36/36
f 50/50 42/42 51/51
f 42/42 50/50 45/45
f 42/42 45/45 40/40
f 35/35 34/34 44/44
f 45/45 50/50 43/43
f 48/48 43/43 50/50
f 44/44 46/46 35/35
f 127/127 21/21 20/20
f 20/20 11/11 127/127
f 44/44 43/43 48/48
f 41/41 51/51 42/42
f 51/51 41/41 52/52
f 52/52 41/41 49/49
f 49/49 53/53 52/52
f 128/128 49/49 126/126
f 49/49 128/128 53/53
f 77/77 20/20 13/13
f 24/24 56/56 9/9
f 17/17 14/14 22/22
f 24/24 19/19 26/26
f 18/18 24/24 9/9
f 123/123 56/56 24/24
f 13/13 22/22 12/12
f 31/31 37/37 40/40
f 17/17 33/33 16/16
f 29/29 125/125 38/38
f 23/23 17/17 22/22
f 9/9 56/56 57/57
f 56/56 123/123 129/129
f 20/20 77/77 74/74
f 20/20 74/74 11/11
f 12/12 54/54 77/77
f 6/6 22/22 8/8
f 10/10 8/8 15/15
f 6/6 5/5 12/12
f 9/9 57/57 68/68
f 54/54 12/12 5/5
f 22/22 14/14 8/8
f 14/14 15/15 8/8
f 15/15 9/9 10/10
f 12/12 22/22 6/6
f 32/32 37/37 31/31
f 31/31 33/33 17/17
f 21/21 32/32 23/23
f 32/32 17/17 23/23
f 29/29 38/38 30/30
f 32/32 21/21 30/30
f 26/26 124/124 25/25
f 127/127 29/29 21/21
f 19/19 24/24 18/18
f 19/19 18/18 15/15
f 3/3 8/8 10/10
f 7/7 58/58 1/1
f 58/58 7/7 62/62
f 68/68 59/59 2/2
f 59/59 68/68 121/121
f 2/2 60/60 3/3
f 60/60 2/2 59/59
f 3/3 62/62 7/7
f 62/62 3/3 60/60
f 1/1 61/61 4/4
f 61/61 1/1 58/58
f 63/63 64/64 65/65
f 66/66 65/65 64/64
f 65/65 66/66 67/67
f 130/130 69/69 70/70
f 70/70 71/71 72/72
f 67/67 66/66 72/72
f 71/71 70/70 69/69
f 63/63 131/131 132/132
f 132/132 64/64 63/63
f 73/73 133/133 134/134
f 75/75 76/76 135/135
f 78/78 79/79 80/80
f 80/80 81/81 78/78
f 82/82 79/79 69/69
f 79/79 83/83 80/80
f 84/84 76/76 85/85
f 76/76 86/86 87/87
f 88/88 89/89 90/90
f 136/136 89/89 88/88
f 83/83 90/90 91/91
f 91/91 92/92 83/83
f 93/93 85/85 94/94
f 95/95 96/96 81/81
f 80/80 92/92 97/97
f 92/92 80/80 83/83
f 98/98 137/137 99/99
f 137/137 91/91 90/90
f 100/100 95/95 97/97
f 101/101 102/102 94/94
f 94/94 96/96 101/101
f 85/85 76/76 87/87
f 91/91 98/98 103/103
f 103/103 92/92 91/91
f 97/97 92/92 103/103
f 103/103 100/100 97/97
f 95/95 100/100 104/104
f 137/137 98/98 91/91
f 105/105 101/101 104/104
f 104/104 106/106 105/105
f 107/107 103/103 98/98
f 98/98 108/108 107/107
f 100/100 103/103 107/107
f 107/107 109/109 100/100
f 110/110 111/111 112/112
f 112/112 108/108 110/110
f 138/138 102/102 113/113
f 113/113 139/139 138/138
f 101/101 105/105 113/113
f 113/113 102/102 101/101
f 104/104 100/100 109/109
f 114/114 115/115 106/106
f 106/106 109/109 114/114
f 106/106 104/104 109/109
f 99/99 108/108 98/98
f 109/109 107/107 114/114
f 112/112 114/114 107/107
f 108/108 99/99 110/110
f 140/140 84/84 85/85
f 84/84 140/140 73/73
f 108/108 112/112 107/107
f 105/105 106/106 115/115
f 115/115 116/116 105/105
f 116/116 113/113 105/105
f 113/113 116/116 117/117
f 141/141 139/139 113/113
f 113/113 117/117 141/141
f 135/135 76/76 84/84
f 88/88 69/69 142/142
f 81/81 86/86 78/78
f 88/88 90/90 83/83
f 82/82 69/69 88/88
f 136/136 88/88 142/142
f 76/76 75/75 86/86
f 95/95 104/104 101/101
f 81/81 80/80 97/97
f 93/93 102/102 138/138
f 87/87 86/86 81/81
f 69/69 143/143 142/142
f 142/142 144/144 136/136
f 84/84 134/134 135/135
f 84/84 73/73 134/134
f 75/75 135/135 131/131
f 65/65 67/67 86/86
f 71/71 79/79 67/67
f 65/65 75/75 63/63
f 69/69 130/130 143/143
f 131/131 63/63 75/75
f 86/86 67/67 78/78
f 78/78 67/67 79/79
f 79/79 71/71 69/69
f 75/75 65/65 86/86
f 96/96 95/95 101/101
f 95/95 81/81 97/97
f 85/85 87/87 96/96
f 96/96 87/87 81/81
f 93/93 94/94 102/102
f 96/96 94/94 85/85
f 90/90 89/89 137/137
f 140/140 85/85 93/93
f 83/83 82/82 88/88
f 83/83 79/79 82/82
f 72/72 71/71 67/67
f 66/66 118/118 119/119
f 118/118 66/66 64/64
f 130/130 120/120 145/145
f 120/120 130/130 70/70
f 70/70 122/122 120/120
f 122/122 70/70 72/72
f 72/72 119/119 122/122
f 119/119 72/72 66/66
f 64/64 146/146 118/118
f 146/146 64/64 132/132
f 189/189 148/148 147/147
f 148/148 189/189 186/186
f 152/152 148/148 149/149
f 148/148 152/152 147/147
f 150/150 389/389 579/579
f 389/389 150/150 184/184
f 151/151 579/579 391/391
f 579/579 151/151 150/150
f 318/318 152/152 319/319
f 152/152 318/318 147/147
f 150/150 153/153 154/154
f 153/153 150/150 151/151
f 150/150 185/185 184/184
f 185/185 150/150 154/154
f 183/183 147/147 318/318
f 147/147 183/183 189/189
f 148/148 185/185 154/154
f 185/185 148/148 186/186
f 154/154 149/149 148/148
f 149/149 154/154 153/153
f 155/155 174/174 158/158
f 174/174 155/155 175/175
f 158/158 403/403 402/402
f 403/403 158/158 174/174
f 175/175 404/404 157/157
f 404/404 175/175 405/405
f 175/175 323/323 405/405
f 323/323 175/175 155/155
f 159/159 151/151 391/391
f 160/160 408/408 221/221
f 408/408 160/160 330/330
f 180/180 161/161 152/152
f 161/161 180/180 162/162
f 158/158 229/229 163/163
f 229/229 158/158 320/320
f 178/178 221/221 408/408
f 221/221 178/178 317/317
f 316/316 221/221 317/317
f 221/221 316/316 321/321
f 168/168 181/181 182/182
f 181/181 168/168 172/172
f 176/176 331/331 426/426
f 331/331 176/176 167/167
f 159/159 169/169 170/170
f 169/169 159/159 171/171
f 314/314 171/171 623/623
f 171/171 314/314 169/169
f 324/324 624/624 625/625
f 626/626 171/171 159/159
f 169/169 172/172 170/170
f 168/168 170/170 172/172
f 172/172 169/169 165/165
f 170/170 151/151 159/159
f 227/227 166/166 155/155
f 166/166 227/227 164/164
f 153/153 151/151 170/170
f 391/391 626/626 159/159
f 322/322 320/320 160/160
f 320/320 322/322 229/229
f 164/164 312/312 173/173
f 323/323 166/166 332/332
f 166/166 323/323 155/155
f 158/158 227/227 155/155
f 227/227 158/158 163/163
f 176/176 166/166 177/177
f 166/166 176/176 332/332
f 177/177 164/164 173/173
f 164/164 177/177 166/166
f 172/172 165/165 627/627
f 170/170 168/168 153/153
f 153/153 168/168 179/179
f 157/157 174/174 175/175
f 174/174 157/157 156/156
f 403/403 156/156 311/311
f 156/156 403/403 174/174
f 176/176 628/628 167/167
f 177/177 173/173 629/629
f 153/153 179/179 149/149
f 179/179 180/180 149/149
f 180/180 152/152 149/149
f 313/313 312/312 164/164
f 181/181 180/180 182/182
f 180/180 181/181 162/162
f 168/168 182/182 179/179
f 182/182 180/180 179/179
f 333/333 184/184 188/188
f 184/184 333/333 389/389
f 188/188 185/185 210/210
f 185/185 188/188 184/184
f 212/212 183/183 187/187
f 183/183 212/212 189/189
f 211/211 185/185 186/186
f 185/185 211/211 210/210
f 187/187 447/447 334/334
f 447/447 187/187 183/183
f 212/212 186/186 189/189
f 186/186 212/212 211/211
f 448/448 188/188 191/191
f 188/188 448/448 333/333
f 190/190 334/334 451/451
f 334/334 190/190 187/187
f 335/335 191/191 196/196
f 191/191 335/335 448/448
f 196/196 192/192 197/197
f 192/192 196/196 191/191
f 198/198 194/194 199/199
f 194/194 198/198 193/193
f 197/197 193/193 198/198
f 193/193 197/197 192/192
f 195/195 451/451 460/460
f 451/451 195/195 190/190
f 199/199 190/190 195/195
f 190/190 199/199 194/194
f 336/336 196/196 201/201
f 196/196 336/336 335/335
f 201/201 197/197 202/202
f 197/197 201/201 196/196
f 203/203 199/199 204/204
f 199/199 203/203 198/198
f 202/202 198/198 203/203
f 198/198 202/202 197/197
f 200/200 460/460 466/466
f 460/460 200/200 195/195
f 204/204 195/195 200/200
f 195/195 204/204 199/199
f 201/201 337/337 336/336
f 337/337 201/201 325/325
f 325/325 202/202 326/326
f 202/202 325/325 201/201
f 203/203 328/328 327/327
f 328/328 203/203 204/204
f 202/202 327/327 326/326
f 327/327 202/202 203/203
f 200/200 338/338 329/329
f 338/338 200/200 466/466
f 328/328 200/200 329/329
f 200/200 328/328 204/204
f 210/210 191/191 188/188
f 191/191 210/210 192/192
f 211/211 192/192 210/210
f 192/192 211/211 193/193
f 194/194 211/211 212/212
f 211/211 194/194 193/193
f 194/194 187/187 190/190
f 187/187 194/194 212/212
f 215/215 472/472 475/475
f 472/472 215/215 213/213
f 310/310 215/215 309/309
f 215/215 310/310 213/213
f 219/219 213/213 220/220
f 213/213 219/219 472/472
f 218/218 219/219 220/220
f 219/219 218/218 217/217
f 316/316 315/315 321/321
f 223/223 630/630 279/279
f 162/162 631/631 161/161
f 631/631 162/162 224/224
f 281/281 313/313 164/164
f 225/225 163/163 226/226
f 163/163 225/225 227/227
f 228/228 163/163 229/229
f 163/163 228/228 226/226
f 164/164 227/227 225/225
f 228/228 322/322 222/222
f 322/322 228/228 229/229
f 236/236 238/238 237/237
f 222/222 231/231 228/228
f 231/231 222/222 632/632
f 230/230 164/164 225/225
f 164/164 230/230 281/281
f 226/226 230/230 225/225
f 230/230 226/226 280/280
f 226/226 231/231 280/280
f 231/231 226/226 228/228
f 240/240 232/232 233/233
f 232/232 240/240 239/239
f 242/242 234/234 235/235
f 234/234 242/242 241/241
f 241/241 633/633 234/234
f 633/633 241/241 634/634
f 243/243 235/235 237/237
f 235/235 243/243 242/242
f 237/237 238/238 243/243
f 239/239 236/236 232/232
f 236/236 239/239 238/238
f 279/279 244/244 223/223
f 244/244 246/246 245/245
f 246/246 244/244 279/279
f 635/635 636/636 637/637
f 636/636 635/635 247/247
f 635/635 248/248 247/247
f 248/248 635/635 256/256
f 257/257 280/280 249/249
f 280/280 257/257 230/230
f 250/250 280/280 231/231
f 280/280 250/250 249/249
f 281/281 230/230 257/257
f 231/231 632/632 250/250
f 276/276 245/245 246/246
f 245/245 276/276 273/273
f 638/638 247/247 277/277
f 247/247 638/638 636/636
f 248/248 277/277 247/247
f 277/277 248/248 274/274
f 273/273 252/252 245/245
f 252/252 273/273 275/275
f 256/256 635/635 639/639
f 245/245 640/640 244/244
f 640/640 245/245 252/252
f 641/641 251/251 642/642
f 251/251 641/641 252/252
f 640/640 252/252 641/641
f 254/254 263/263 270/270
f 263/263 254/254 259/259
f 270/270 260/260 255/255
f 260/260 270/270 263/263
f 642/642 248/248 256/256
f 248/248 642/642 251/251
f 261/261 271/271 258/258
f 271/271 261/261 272/272
f 262/262 643/643 644/644
f 643/643 262/262 253/253
f 254/254 262/262 259/259
f 262/262 254/254 253/253
f 271/271 260/260 258/258
f 260/260 271/271 255/255
f 259/259 269/269 263/263
f 269/269 259/259 265/265
f 263/263 266/266 260/260
f 266/266 263/263 269/269
f 267/267 258/258 264/264
f 258/258 267/267 261/261
f 268/268 644/644 645/645
f 644/644 268/268 262/262
f 259/259 268/268 265/265
f 268/268 259/259 262/262
f 258/258 266/266 264/264
f 266/266 258/258 260/260
f 265/265 284/284 269/269
f 284/284 265/265 286/286
f 284/284 266/266 269/269
f 266/266 284/284 287/287
f 646/646 300/300 289/289
f 300/300 647/647 288/288
f 646/646 647/647 300/300
f 301/301 648/648 290/290
f 301/301 647/647 648/648
f 301/301 288/288 647/647
f 302/302 649/649 292/292
f 302/302 650/650 649/649
f 302/302 291/291 650/650
f 303/303 651/651 293/293
f 303/303 652/652 651/651
f 303/303 653/653 652/652
f 304/304 646/646 289/289
f 304/304 651/651 646/646
f 304/304 293/293 651/651
f 305/305 650/650 291/291
f 305/305 648/648 650/650
f 305/305 290/290 648/648
f 273/273 276/276 306/306
f 277/277 282/282 638/638
f 282/282 277/277 283/283
f 274/274 283/283 277/277
f 283/283 274/274 286/286
f 275/275 306/306 287/287
f 248/248 251/251 278/278
f 278/278 274/274 248/248
f 278/278 252/252 275/275
f 252/252 278/278 251/251
f 286/286 278/278 284/284
f 278/278 286/286 274/274
f 278/278 287/287 284/284
f 287/287 278/278 275/275
f 267/267 285/285 654/654
f 285/285 267/267 264/264
f 283/283 645/645 282/282
f 645/645 283/283 268/268
f 286/286 268/268 283/283
f 268/268 286/286 265/265
f 264/264 287/287 285/285
f 287/287 264/264 266/266
f 289/289 300/300 294/294
f 288/288 301/301 295/295
f 291/291 302/302 296/296
f 653/653 303/303 297/297
f 293/293 304/304 298/298
f 290/290 305/305 299/299
f 294/294 300/300 288/288
f 295/295 301/301 290/290
f 296/296 302/302 292/292
f 297/297 303/303 293/293
f 298/298 304/304 289/289
f 299/299 305/305 291/291
f 287/287 306/306 285/285
f 306/306 275/275 273/273
f 306/306 654/654 285/285
f 306/306 276/276 654/654
f 213/213 310/310 308/308
f 216/216 310/310 309/309
f 310/310 216/216 307/307
f 310/310 214/214 308/308
f 214/214 310/310 307/307
f 176/176 426/426 332/332
f 181/181 627/627 655/655
f 627/627 181/181 172/172
f 162/162 655/655 656/656
f 655/655 162/162 181/181
f 162/162 657/657 224/224
f 657/657 162/162 656/656
f 626/626 623/623 171/171
f 169/169 314/314 165/165
f 177/177 628/628 176/176
f 628/628 177/177 629/629
f 639/639 642/642 256/256
f 640/640 223/223 244/244
f 315/315 632/632 222/222
f 658/658 659/659 319/319
f 319/319 660/660 570/570
f 660/660 319/319 659/659
f 661/661 161/161 631/631
f 161/161 661/661 658/658
f 315/315 322/322 321/321
f 322/322 315/315 222/222
f 318/318 447/447 183/183
f 447/447 318/318 571/571
f 319/319 571/571 318/318
f 571/571 319/319 570/570
f 152/152 658/658 319/319
f 658/658 152/152 161/161
f 572/572 160/160 320/320
f 160/160 572/572 330/330
f 402/402 320/320 158/158
f 320/320 402/402 572/572
f 160/160 321/321 322/322
f 321/321 160/160 221/221
f 573/573 325/325 206/206
f 325/325 573/573 337/337
f 206/206 326/326 207/207
f 326/326 206/206 325/325
f 327/327 209/209 208/208
f 209/209 327/327 328/328
f 326/326 208/208 207/207
f 208/208 326/326 327/327
f 329/329 339/339 205/205
f 339/339 329/329 338/338
f 209/209 329/329 205/205
f 329/329 209/209 328/328
f 356/356 366/366 354/354
f 366/366 356/356 365/365
f 358/358 367/367 368/368
f 367/367 358/358 377/377
f 361/361 370/370 362/362
f 370/370 361/361 369/369
f 362/362 371/371 363/363
f 371/371 362/362 370/370
f 355/355 366/366 372/372
f 366/366 355/355 354/354
f 355/355 373/373 357/357
f 373/373 355/355 372/372
f 357/357 374/374 360/360
f 374/374 357/357 373/373
f 364/364 365/365 356/356
f 365/365 364/364 375/375
f 360/360 369/369 361/361
f 369/369 360/360 374/374
f 359/359 371/371 367/367
f 371/371 359/359 378/378
f 353/353 376/376 352/352
f 358/358 376/376 353/353
f 376/376 358/358 368/368
f 366/366 340/340 341/341
f 340/340 366/366 365/365
f 368/368 342/342 350/350
f 342/342 368/368 367/367
f 343/343 369/369 345/345
f 369/369 343/343 370/370
f 344/344 370/370 343/343
f 370/370 344/344 371/371
f 372/372 341/341 347/347
f 341/341 372/372 366/366
f 373/373 347/347 348/348
f 347/347 373/373 372/372
f 346/346 373/373 348/348
f 373/373 346/346 374/374
f 340/340 375/375 349/349
f 375/375 340/340 365/365
f 345/345 374/374 346/346
f 374/374 345/345 369/369
f 367/367 344/344 342/342
f 344/344 367/367 371/371
f 351/351 368/368 350/350
f 368/368 351/351 376/376
f 352/352 376/376 351/351
f 367/367 377/377 359/359
f 371/371 378/378 363/363
f 619/619 379/379 380/380
f 379/379 619/619 622/622
f 383/383 381/381 382/382
f 381/381 383/383 384/384
f 385/385 381/381 384/384
f 381/381 385/385 386/386
f 662/662 388/388 663/663
f 388/388 662/662 387/387
f 390/390 663/663 388/388
f 663/663 390/390 664/664
f 392/392 385/385 384/384
f 385/385 392/392 393/393
f 388/388 395/395 390/390
f 395/395 388/388 394/394
f 388/388 396/396 394/394
f 396/396 388/388 387/387
f 397/397 384/384 383/383
f 384/384 397/397 392/392
f 381/381 396/396 382/382
f 396/396 381/381 394/394
f 394/394 386/386 395/395
f 386/386 394/394 381/381
f 400/400 398/398 399/399
f 398/398 400/400 401/401
f 665/665 401/401 666/666
f 401/401 665/665 398/398
f 399/399 667/667 668/668
f 667/667 399/399 406/406
f 669/669 399/399 668/668
f 399/399 669/669 400/400
f 407/407 664/664 390/390
f 409/409 670/670 671/671
f 670/670 409/409 410/410
f 413/413 411/411 412/412
f 411/411 413/413 385/385
f 401/401 414/414 415/415
f 414/414 401/401 416/416
f 672/672 410/410 417/417
f 410/410 672/672 670/670
f 419/419 410/410 418/418
f 410/410 419/419 417/417
f 422/422 420/420 421/421
f 420/420 422/422 423/423
f 425/425 673/673 424/424
f 673/673 425/425 674/674
f 407/407 427/427 428/428
f 427/427 407/407 429/429
f 430/430 428/428 427/427
f 428/428 430/430 675/675
f 324/324 676/676 624/624
f 677/677 407/407 428/428
f 427/427 429/429 421/421
f 422/422 421/421 429/429
f 421/421 431/431 427/427
f 429/429 407/407 390/390
f 434/434 433/433 400/400
f 433/433 434/434 432/432
f 395/395 429/429 390/390
f 664/664 407/407 677/677
f 415/415 435/435 409/409
f 435/435 415/415 414/414
f 432/432 436/436 437/437
f 669/669 434/434 400/400
f 434/434 669/669 678/678
f 401/401 433/433 416/416
f 433/433 401/401 400/400
f 425/425 434/434 678/678
f 434/434 425/425 438/438
f 438/438 432/432 434/434
f 432/432 438/438 436/436
f 421/421 679/679 431/431
f 429/429 395/395 422/422
f 395/395 439/439 422/422
f 406/406 398/398 440/440
f 398/398 406/406 399/399
f 665/665 440/440 398/398
f 440/440 665/665 680/680
f 425/425 424/424 681/681
f 438/438 682/682 436/436
f 395/395 386/386 439/439
f 439/439 386/386 413/413
f 413/413 386/386 385/385
f 441/441 432/432 437/437
f 420/420 413/413 412/412
f 413/413 420/420 423/423
f 422/422 439/439 423/423
f 423/423 439/439 413/413
f 683/683 387/387 662/662
f 387/387 683/683 442/442
f 442/442 396/396 387/387
f 396/396 442/442 443/443
f 444/444 397/397 383/383
f 397/397 444/444 445/445
f 446/446 396/396 443/443
f 396/396 446/446 382/382
f 445/445 684/684 397/397
f 684/684 445/445 685/685
f 444/444 382/382 446/446
f 382/382 444/444 383/383
f 686/686 442/442 683/683
f 442/442 686/686 449/449
f 450/450 685/685 445/445
f 685/685 450/450 687/687
f 688/688 449/449 686/686
f 449/449 688/688 452/452
f 452/452 453/453 449/449
f 453/453 452/452 454/454
f 457/457 455/455 456/456
f 455/455 457/457 458/458
f 454/454 456/456 453/453
f 456/456 454/454 457/457
f 459/459 687/687 450/450
f 687/687 459/459 689/689
f 458/458 450/450 455/455
f 450/450 458/458 459/459
f 690/690 452/452 688/688
f 452/452 690/690 461/461
f 461/461 454/454 452/452
f 454/454 461/461 462/462
f 463/463 458/458 457/457
f 458/458 463/463 464/464
f 462/462 457/457 454/454
f 457/457 462/462 463/463
f 465/465 689/689 459/459
f 689/689 465/465 691/691
f 464/464 459/459 458/458
f 459/459 464/464 465/465
f 461/461 692/692 467/467
f 692/692 461/461 690/690
f 467/467 462/462 461/461
f 462/462 467/467 468/468
f 463/463 470/470 464/464
f 470/470 463/463 469/469
f 462/462 469/469 463/463
f 469/469 462/462 468/468
f 465/465 693/693 691/691
f 693/693 465/465 471/471
f 470/470 465/465 464/464
f 465/465 470/470 471/471
f 443/443 449/449 453/453
f 449/449 443/443 442/442
f 446/446 453/453 456/456
f 453/453 446/446 443/443
f 455/455 446/446 456/456
f 446/446 455/455 444/444
f 455/455 445/445 444/444
f 445/445 455/455 450/450
f 474/474 694/694 473/473
f 694/694 474/474 695/695
f 476/476 474/474 473/473
f 474/474 476/476 477/477
f 478/478 473/473 694/694
f 473/473 478/478 479/479
f 481/481 478/478 480/480
f 478/478 481/481 479/479
f 419/419 418/418 482/482
f 483/483 484/484 696/696
f 412/412 697/697 485/485
f 697/697 412/412 411/411
f 486/486 432/432 441/441
f 487/487 416/416 433/433
f 416/416 487/487 488/488
f 489/489 416/416 488/488
f 416/416 489/489 414/414
f 432/432 487/487 433/433
f 435/435 489/489 490/490
f 489/489 435/435 414/414
f 491/491 492/492 493/493
f 490/490 494/494 698/698
f 494/494 490/490 489/489
f 495/495 432/432 486/486
f 432/432 495/495 487/487
f 488/488 495/495 496/496
f 495/495 488/488 487/487
f 488/488 494/494 489/489
f 494/494 488/488 496/496
f 499/499 497/497 498/498
f 497/497 499/499 500/500
f 503/503 501/501 502/502
f 501/501 503/503 504/504
f 502/502 699/699 700/700
f 699/699 502/502 501/501
f 505/505 504/504 503/503
f 504/504 505/505 492/492
f 492/492 505/505 493/493
f 498/498 491/491 493/493
f 491/491 498/498 497/497
f 484/484 483/483 506/506
f 506/506 507/507 484/484
f 507/507 506/506 508/508
f 701/701 702/702 509/509
f 702/702 701/701 703/703
f 701/701 510/510 511/511
f 510/510 701/701 509/509
f 512/512 496/496 495/495
f 496/496 512/512 513/513
f 514/514 496/496 513/513
f 496/496 514/514 494/494
f 486/486 512/512 495/495
f 494/494 514/514 698/698
f 516/516 508/508 515/515
f 508/508 516/516 507/507
f 704/704 509/509 702/702
f 509/509 704/704 517/517
f 510/510 517/517 518/518
f 517/517 510/510 509/509
f 515/515 519/519 520/520
f 519/519 515/515 508/508
f 511/511 705/705 701/701
f 508/508 706/706 519/519
f 706/706 508/508 506/506
f 707/707 708/708 521/521
f 521/521 519/519 707/707
f 706/706 707/707 519/519
f 524/524 522/522 523/523
f 522/522 524/524 525/525
f 525/525 526/526 522/522
f 526/526 525/525 527/527
f 708/708 510/510 521/521
f 510/510 708/708 511/511
f 530/530 528/528 529/529
f 528/528 530/530 531/531
f 533/533 709/709 532/532
f 709/709 533/533 710/710
f 524/524 533/533 532/532
f 533/533 524/524 523/523
f 528/528 526/526 527/527
f 526/526 528/528 531/531
f 523/523 534/534 535/535
f 534/534 523/523 522/522
f 522/522 536/536 534/534
f 536/536 522/522 526/526
f 537/537 531/531 530/530
f 531/531 537/537 538/538
f 539/539 710/710 533/533
f 710/710 539/539 711/711
f 523/523 539/539 533/533
f 539/539 523/523 535/535
f 531/531 536/536 526/526
f 536/536 531/531 538/538
f 535/535 540/540 541/541
f 540/540 535/535 534/534
f 540/540 536/536 542/542
f 536/536 540/540 534/534
f 712/712 544/544 545/545
f 713/713 544/544 712/712
f 713/713 543/543 544/544
f 546/546 712/712 545/545
f 546/546 714/714 712/712
f 546/546 547/547 714/714
f 548/548 715/715 550/550
f 548/548 716/716 715/715
f 548/548 549/549 716/716
f 551/551 717/717 718/718
f 551/551 719/719 717/717
f 551/551 552/552 719/719
f 553/553 719/719 552/552
f 553/553 713/713 719/719
f 553/553 543/543 713/713
f 554/554 714/714 547/547
f 554/554 715/715 714/714
f 554/554 550/550 715/715
f 515/515 555/555 516/516
f 517/517 556/556 557/557
f 556/556 517/517 704/704
f 518/518 557/557 541/541
f 557/557 518/518 517/517
f 520/520 542/542 555/555
f 558/558 521/521 510/510
f 510/510 518/518 558/558
f 558/558 519/519 521/521
f 519/519 558/558 520/520
f 541/541 558/558 518/518
f 558/558 541/541 540/540
f 558/558 542/542 520/520
f 542/542 558/558 540/540
f 537/537 559/559 538/538
f 559/559 537/537 720/720
f 557/557 711/711 539/539
f 711/711 557/557 556/556
f 541/541 539/539 535/535
f 539/539 541/541 557/557
f 538/538 542/542 536/536
f 542/542 538/538 559/559
f 543/543 560/560 544/544
f 545/545 561/561 546/546
f 550/550 562/562 548/548
f 718/718 563/563 551/551
f 552/552 564/564 553/553
f 547/547 565/565 554/554
f 560/560 545/545 544/544
f 561/561 547/547 546/546
f 562/562 549/549 548/548
f 563/563 552/552 551/551
f 564/564 543/543 553/553
f 565/565 550/550 554/554
f 542/542 559/559 555/555
f 555/555 515/515 520/520
f 555/555 559/559 720/720
f 555/555 720/720 516/516
f 473/473 566/566 476/476
f 568/568 476/476 567/567
f 476/476 568/568 477/477
f 476/476 569/569 567/567
f 569/569 476/476 566/566
f 425/425 678/678 674/674
f 420/420 679/679 421/421
f 679/679 420/420 721/721
f 412/412 721/721 420/420
f 721/721 412/412 722/722
f 412/412 723/723 722/722
f 723/723 412/412 485/485
f 677/677 428/428 675/675
f 427/427 431/431 430/430
f 438/438 681/681 682/682
f 681/681 438/438 425/425
f 705/705 511/511 708/708
f 706/706 506/506 483/483
f 482/482 490/490 698/698
f 724/724 393/393 725/725
f 393/393 726/726 725/725
f 726/726 393/393 727/727
f 728/728 411/411 724/724
f 411/411 728/728 697/697
f 482/482 435/435 490/490
f 435/435 482/482 418/418
f 392/392 684/684 729/729
f 684/684 392/392 397/397
f 393/393 729/729 727/727
f 729/729 393/393 392/392
f 385/385 724/724 411/411
f 724/724 385/385 393/393
f 409/409 730/730 415/415
f 730/730 409/409 671/671
f 666/666 415/415 730/730
f 415/415 666/666 401/401
f 409/409 418/418 410/410
f 418/418 409/409 435/435
f 731/731 467/467 692/692
f 467/467 731/731 574/574
f 574/574 468/468 467/467
f 468/468 574/574 575/575
f 469/469 577/577 470/470
f 577/577 469/469 576/576
f 468/468 576/576 469/469
f 576/576 468/468 575/575
f 471/471 732/732 693/693
f 732/732 471/471 578/578
f 577/577 471/471 470/470
f 471/471 577/577 578/578
f 580/580 582/582 583/583
f 582/582 580/580 581/581
f 585/585 587/587 584/584
f 587/587 585/585 586/586
f 588/588 590/590 591/591
f 590/590 588/588 589/589
f 589/589 593/593 590/590
f 593/593 589/589 592/592
f 594/594 582/582 581/581
f 582/582 594/594 595/595
f 594/594 597/597 595/595
f 597/597 594/594 596/596
f 596/596 599/599 597/597
f 599/599 596/596 598/598
f 600/600 583/583 601/601
f 583/583 600/600 580/580
f 598/598 591/591 599/599
f 591/591 598/598 588/588
f 603/603 593/593 602/602
f 593/593 603/603 587/587
f 604/604 605/605 606/606
f 585/585 606/606 586/586
f 606/606 585/585 604/604
f 582/582 608/608 583/583
f 608/608 582/582 607/607
f 586/586 610/610 587/587
f 610/610 586/586 609/609
f 611/611 591/591 590/590
f 591/591 611/611 612/612
f 613/613 590/590 593/593
f 590/590 613/613 611/611
f 595/595 607/607 582/582
f 607/607 595/595 614/614
f 597/597 614/614 595/595
f 614/614 597/597 615/615
f 616/616 597/597 599/599
f 597/597 616/616 615/615
f 608/608 601/601 583/583
f 601/601 608/608 617/617
f 612/612 599/599 591/591
f 599/599 612/612 616/616
f 587/587 613/613 593/593
f 613/613 587/587 610/610
f 618/618 586/586 606/606
f 586/586 618/618 609/609
f 605/605 618/618 606/606
f 587/587 603/603 584/584
f 593/593 592/592 602/602
f 733/733 621/621 734/734
f 621/621 733/733 620/620
