# MOD converted: e_w_metalarmor009.mod
# 761 verts, 763 faces

v 97.079399 -11.908307 0.000011
v 98.300705 8.145029 0.000013
v 101.136009 -13.217900 0.000013
v 108.428001 -7.753990 0.000012
v 113.098991 9.726319 0.000011
v 115.857986 8.613911 0.000012
v 105.428001 -11.474291 10.706212
v 97.846809 -0.694287 4.914064
v 95.919098 -10.625297 8.269259
v 97.994904 6.091128 9.586023
v 96.042915 -6.717852 10.292312
v 113.024673 -0.459263 10.483009
v 113.038017 7.854722 11.888914
v 102.385010 -7.583679 6.222899
v 103.689087 9.454775 11.502411
v 103.556870 -0.400465 5.856759
v 108.548378 10.019897 10.386812
v 103.422638 7.071862 10.365017
v 109.209549 -3.066410 10.309704
v 114.369896 4.074668 10.487911
v 108.657318 9.779924 6.702770
v 109.265320 -5.925140 4.593222
v 98.023674 -12.972492 9.092960
v 98.103096 -11.515694 4.410634
v 101.829002 -13.916301 9.170098
v 101.881012 -12.424003 11.255813
v 98.526398 -7.138075 4.507932
v 105.757004 -11.905899 8.871197
v 105.383713 -10.585396 10.208913
v 106.589050 -6.403441 0.000011
v 103.638000 9.714940 0.000011
v 111.652000 -4.060240 4.518762
v 112.193001 -3.139080 7.388442
v 113.458092 -0.418649 7.288731
v 114.995552 4.210799 4.449650
v 115.719963 7.456359 15.225712
v 108.052574 8.937795 12.935211
v 103.763176 6.765191 13.322012
v 103.775864 0.006417 15.281412
v 107.996185 -2.066221 12.674311
v 112.903648 -0.404795 13.005310
v 114.014526 3.915590 13.147909
v 112.717529 7.597093 20.567015
v 106.101639 8.313396 18.569515
v 101.821434 6.264483 18.727615
v 101.977730 0.115141 22.270617
v 109.992805 0.146499 20.538425
v 106.149551 -1.940950 18.739010
v 111.585434 0.123586 18.921509
v 111.773941 6.267390 22.470522
v 110.318886 5.907771 16.012409
v 113.305725 3.662468 15.727710
v 112.362305 -0.285296 15.782110
v 112.348633 7.178533 12.617512
v 108.391556 -2.414968 12.619709
v 108.501328 9.415263 5.757536
v 112.837914 9.302793 0.000011
v 93.193909 -11.754099 4.914061
v 93.161003 -10.471100 10.696112
v 93.620201 -0.694287 8.148018
v 93.824402 5.236948 9.586022
v 93.284897 -6.563630 0.000012
v 94.039597 7.476010 0.000012
v 118.796997 8.214206 3.878504
v 118.577660 7.068460 6.391014
v 117.860992 3.977200 6.387174
v 116.612923 -0.413357 3.840744
v 115.736320 -2.912693 0.000011
v 115.205002 -3.830880 0.000011
v 112.708000 2.307520 0.000011
v 108.610001 10.021691 6.833311
v 114.208878 7.562122 10.828211
v 106.995850 -3.069775 42.465950
v 92.705627 4.111682 44.262070
v 96.488251 6.164168 42.057575
v 92.666542 -0.683370 45.765270
v 100.068619 4.496609 43.637657
v 96.472168 -3.280969 45.328064
v 100.318947 -1.402245 25.148479
v 104.410812 7.727364 24.509640
v 99.803162 5.505054 25.999357
v 104.069130 -1.606833 24.543108
v 100.016998 0.405000 27.447220
v 107.915527 0.193595 27.686356
v 108.044121 5.417927 26.775414
v 98.933884 5.074884 29.875242
v 107.121536 5.351527 29.349052
v 102.686592 7.447688 27.371998
v 103.602913 7.713738 29.677752
v 106.966431 0.072271 28.227966
v 103.131355 -1.767390 26.742607
v 99.089920 0.342803 32.440083
v 96.179314 -0.310370 34.205933
v 100.586792 -2.863705 36.047630
v 104.768326 -0.829678 36.418255
v 104.709488 5.298750 34.533287
v 100.623779 7.534750 32.417313
v 96.209473 4.973971 13.365005
v 79.874725 -6.293134 7.320013
v 79.223564 -9.933045 7.669117
v 81.376556 10.233711 15.131067
v 80.449425 -0.089905 12.886937
v 80.987312 6.108735 0.000010
v 82.658661 -10.626801 0.000011
v 85.326851 9.050203 0.000010
v 89.524399 -10.436800 0.000012
v 90.803299 5.817800 6.915567
v 85.047997 7.951943 13.303012
v 84.219482 -0.304044 6.680863
v 82.993698 -9.254873 5.100242
v 89.664597 -9.081140 10.173211
v 90.267502 -0.895676 7.360411
v 90.653900 4.415518 11.834307
v 83.423302 -5.950326 9.138762
v 89.931885 -5.578070 0.000010
v 97.999985 -11.286701 0.000011
v 96.981918 6.940161 10.130510
v 96.378204 -0.803882 4.914062
v 95.919098 -10.070700 7.515852
v 96.582397 4.817909 9.020443
v 96.042892 -6.367018 0.000012
v 116.838890 7.114462 0.000013
v 113.304985 -2.498711 0.000009
v 123.522972 5.340430 0.000012
v 119.354874 -4.180036 5.200842
v 116.121918 4.768706 5.305119
v 113.984100 0.058274 5.009030
v 122.611443 2.854050 4.507285
v 120.603455 -1.682562 0.000006
v 78.888512 -11.452344 0.000006
v 81.428040 11.510201 11.057663
v 84.743408 5.150670 41.333302
v 102.234192 -1.155785 39.436211
v 98.304787 -3.095094 37.644714
v 94.278320 -0.512219 41.508739
v 102.182022 4.861895 39.821053
v 98.379311 6.789934 37.828590
v 94.322647 4.509623 -10.706189
v 97.846809 -0.694284 -4.914040
v 95.919098 -10.625299 -8.269236
v 97.994904 6.091130 -9.586000
v 96.042915 -6.717851 -10.292287
v 113.050011 -0.432126 -10.482987
v 113.011002 7.873799 -11.888890
v 102.385010 -7.583680 -6.222859
v 103.686996 9.452791 -11.502389
v 103.571999 -0.424700 -5.856737
v 108.540001 10.017899 -10.386786
v 103.402992 7.045799 -10.365000
v 109.243027 -3.066901 -10.309689
v 114.358986 4.116270 -10.487882
v 108.618011 9.776438 -6.702751
v 109.268005 -5.925399 -4.593195
v 98.023674 -12.972497 -9.092937
v 98.103096 -11.515701 -4.410610
v 101.829002 -13.916301 -9.170062
v 101.881035 -12.424006 -11.255788
v 98.526398 -7.138083 -4.507909
v 105.757004 -11.905899 -8.871166
v 105.388016 -10.586700 -10.208889
v 106.592003 -6.404280 -4.518737
v 112.192978 -3.139081 -7.388415
v 113.459007 -0.417762 -7.288706
v 114.991997 4.223090 -4.449626
v 115.703972 7.472868 -15.225697
v 108.018005 8.936920 -12.935186
v 103.740997 6.738404 -13.321987
v 103.792000 -0.019726 -15.281387
v 108.023994 -2.067181 -12.674290
v 112.922997 -0.381335 -13.005287
v 114.008003 3.945730 -13.147888
v 112.689003 7.619989 -20.566988
v 106.093002 8.312050 -18.569489
v 101.816010 6.256050 -18.727594
v 101.982002 0.106998 -22.270592
v 109.997009 0.151563 -20.538393
v 106.157005 -1.942228 -18.738989
v 111.598000 0.142093 -18.921486
v 111.758003 6.286860 -22.470490
v 110.314003 5.913389 -16.012388
v 113.301003 3.690930 -15.727688
v 112.380028 -0.262212 -15.782089
v 112.324013 7.201510 -12.617493
v 108.422997 -2.417200 -12.619688
v 108.462013 9.413480 -5.757518
v 112.806000 9.314260 -4.914037
v 93.161003 -10.471103 -10.696089
v 93.620201 -0.694289 -8.147999
v 93.824402 5.236948 -9.585996
v 93.284897 -6.563630 -3.878478
v 118.574982 7.073156 -6.390991
v 117.860992 3.977201 -6.387144
v 116.614990 -0.409498 -3.840718
v 115.739983 -2.909720 -6.833287
v 114.181999 7.584079 -10.828190
v 107.025002 -3.080079 -42.422787
v 92.722694 4.653388 -44.161369
v 96.528099 6.713361 -42.148689
v 92.630501 -0.150481 -45.711189
v 100.089996 5.049010 -43.801388
v 96.407402 -2.744790 -45.439190
v 100.275002 -0.862172 -25.080090
v 104.438004 7.691540 -24.452488
v 99.825806 5.474985 -26.103388
v 104.028030 -1.642420 -24.600189
v 99.994392 0.372374 -27.509285
v 107.890991 0.155787 -27.631088
v 108.066010 5.385960 -26.727091
v 98.953003 5.101009 -29.820997
v 107.143005 5.374589 -29.249491
v 102.725975 7.496799 -27.303791
v 103.630005 7.713486 -29.742086
v 106.941002 0.095299 -28.335203
v 103.088989 -1.742327 -26.800585
v 99.067009 0.369976 -32.525089
v 96.145699 -0.085559 -34.362396
v 100.525002 -2.637070 -36.147087
v 104.728996 -0.598674 -36.346088
v 104.737999 5.538000 -34.398689
v 100.677002 7.765430 -32.354488
v 96.234299 5.195421 -13.364986
v 79.874725 -6.293136 -7.319998
v 79.223564 -9.933047 -7.669102
v 81.376556 10.233705 -15.131055
v 80.449448 -0.089913 -12.886924
v 80.987312 6.108730 -6.915545
v 85.048019 7.951944 -13.302988
v 84.219475 -0.304043 -6.680838
v 82.993698 -9.254874 -5.100218
v 89.664597 -9.081141 -10.173188
v 90.267502 -0.895677 -7.360389
v 90.653900 4.415520 -11.834288
v 83.423302 -5.950325 -9.138739
v 89.931885 -5.578072 -10.130489
v 96.378204 -0.803884 -4.914038
v 95.919098 -10.070702 -7.515829
v 96.582397 4.817910 -9.020418
v 96.042892 -6.367021 -5.200820
v 116.121918 4.768707 -5.305090
v 113.984100 0.058271 -5.009019
v 122.611443 2.854048 -4.507265
v 120.603455 -1.682563 -11.057638
v 84.743408 5.150666 -41.439400
v 102.192230 -0.748750 -39.596832
v 98.241615 -2.696807 -37.733028
v 94.243401 -0.120693 -41.446419
v 102.206657 5.271691 -39.704906
v 98.425293 7.193689 -37.776348
v 94.343292 4.903533 0.000000
v 56.597797 19.459024 13.262497
v 79.853447 -6.242589 10.248823
v 68.335724 -11.042063 19.773266
v 71.391991 0.863082 16.714603
v 70.032639 -7.302837 11.175016
v 69.365761 14.825886 17.513557
v 71.249939 9.285455 19.062935
v 64.887238 10.594046 0.000000
v 61.402443 19.045866 18.346338
v 63.113907 -7.299944 22.050812
v 64.417984 1.499119 9.185004
v 58.913067 -12.153808 8.613741
v 68.296844 -11.487266 9.199241
v 61.330345 17.587286 9.101224
v 69.440834 15.749853 9.046798
v 78.107979 12.126229 15.002320
v 77.823509 7.536547 16.988861
v 77.364525 0.277006 14.469049
v 76.556633 -6.856921 20.269022
v 59.177197 11.617205 19.361038
v 57.621101 -7.164868 23.419039
v 58.253220 2.021975 14.453498
v 63.302902 -9.440921 15.791563
v 58.238647 -9.308033 14.500792
v 65.157059 13.820672 15.478351
v 60.030048 14.582491 11.138985
v 65.393051 -11.093486 11.674417
v 66.892700 15.355962 5.220904
v 54.050510 -11.735658 5.479853
v 57.335014 17.930851 -0.000000
v 69.518456 17.138565 -0.000001
v 52.918571 -13.422585 -13.262495
v 79.853477 -6.242588 -10.248825
v 68.335724 -11.042063 -19.773264
v 71.391991 0.863084 -16.714609
v 70.032639 -7.302843 -11.175018
v 69.365768 14.825886 -17.513556
v 71.249939 9.285456 -19.062935
v 64.887238 10.594046 -18.346338
v 63.113941 -7.299950 -22.050812
v 64.417984 1.499112 -0.000000
v 58.659233 -13.916235 -9.185003
v 58.913059 -12.153809 0.000001
v 68.145294 -13.241037 -8.613743
v 68.296844 -11.487269 -9.199245
v 61.330368 17.587286 -9.101224
v 69.440834 15.749853 -9.046789
v 78.107979 12.126234 -0.000000
v 78.078476 13.178225 -15.002318
v 77.823509 7.536547 -16.988865
v 77.364532 0.277016 -14.469050
v 76.556633 -6.856916 -20.269024
v 59.177197 11.617204 -19.361042
v 57.621101 -7.164864 -23.419039
v 58.253216 2.021983 -14.453498
v 63.302910 -9.440921 -15.791563
v 58.238647 -9.308031 -14.500792
v 65.157059 13.820675 -15.478350
v 60.030048 14.582491 -11.138988
v 65.393051 -11.093486 -11.674413
v 66.892700 15.355965 -5.220896
v 54.050510 -11.735662 -5.479855
v 57.335014 17.930853 12.828720
v 111.843582 -7.251131 11.364458
v 114.195694 -6.596724 9.168801
v 112.797218 -7.900718 10.589745
v 110.259315 -7.878351 11.751389
v 113.504433 -12.508624 14.524880
v 117.459045 3.210183 12.471710
v 117.609154 5.402271 10.412766
v 118.348885 3.201103 12.610605
v 117.450302 1.195490 13.730583
v 122.363571 3.201566 7.148254
v 108.837158 -9.611951 19.022596
v 106.072113 -6.614165 23.943556
v 111.269333 -3.294462 20.913132
v 108.661667 -5.796922 24.717239
v 113.189499 3.238054 7.100132
v 108.900864 -6.512345 18.956221
v 105.968468 -4.486352 8.998701
v 114.664337 -3.157598 22.947395
v 110.044128 -1.739248 20.851944
v 108.437729 -3.547040 8.162859
v 111.296623 -5.865379 9.331815
v 116.169754 3.229965 8.246778
v 112.765823 -9.030483 9.411857
v 119.560081 3.213568 9.197128
v 117.618530 -5.869951 20.179165
v 113.594109 -4.011177 20.743263
v 115.565353 3.233205 15.721331
v 117.676773 3.230029 15.401773
v 115.687843 -5.001215 18.276928
v 109.608902 -6.766680 16.399061
v 106.813843 -5.061449 13.792242
v 111.120300 -8.057705 12.498043
v 107.798416 -8.557219 12.156458
v 107.949867 -5.712388 16.651951
v 106.753021 -7.453769 24.251251
v 106.266739 -4.313791 24.184883
v 106.163132 -2.185980 27.047901
v 109.570633 3.255646 25.556999
v 108.299507 3.258083 7.148252
v 108.922783 16.142952 19.022585
v 106.103493 13.141517 23.943556
v 111.290161 9.802725 20.913130
v 108.690468 12.315149 7.100129
v 108.933121 13.039357 18.956217
v 105.993103 11.014078 8.998707
v 114.718124 9.640053 22.947395
v 110.060028 8.251911 20.851942
v 108.459396 10.065996 8.162858
v 111.357010 12.379491 8.246782
v 112.847137 15.535172 9.197133
v 117.695343 12.327991 20.179165
v 113.644638 10.491332 15.401769
v 115.745262 11.474737 18.276928
v 109.678772 13.276056 16.399061
v 106.840309 11.588372 13.792240
v 111.199142 14.563854 12.498051
v 107.880836 15.087328 12.156460
v 108.012466 12.242075 16.651941
v 106.806618 13.982630 24.251251
v 106.290840 10.836964 24.184883
v 106.180458 8.709523 11.022051
v 114.505333 13.525020 8.596572
v 112.917587 14.245898 10.212641
v 110.640770 14.732067 12.859026
v 111.937897 13.820009 11.453745
v 114.186569 17.941561 -12.828722
v 111.878746 -7.240837 -11.364460
v 114.228569 -6.579758 -9.168800
v 112.834641 -7.890040 -10.589746
v 110.296677 -7.874991 -11.751390
v 113.557899 -12.493623 -14.524879
v 117.457710 3.240310 -12.471706
v 117.600174 5.431326 -10.412769
v 118.346939 3.244602 -12.610607
v 117.455986 1.224145 -13.730586
v 122.362259 3.247329 -7.148253
v 108.880554 -9.615917 -19.022585
v 106.087097 -6.616073 -23.943558
v 111.279053 -3.286820 -20.913130
v 108.675377 -5.794259 -24.717239
v 113.188072 3.261786 -7.100128
v 108.900795 -6.512332 -18.956223
v 105.980133 -4.488444 -8.998709
v 114.696915 -3.131507 -22.947395
v 110.051392 -1.733803 -20.851942
v 108.447914 -3.544743 -8.162859
v 111.325264 -5.860723 -9.331817
v 116.167679 3.261786 -8.246780
v 112.804878 -9.021164 -9.411860
v 119.558060 3.261786 -9.197137
v 117.665833 -5.828326 -20.179165
v 113.617958 -3.989518 -20.743259
v 115.563934 3.261787 -15.721334
v 117.675362 3.261786 -15.401777
v 115.715126 -4.976247 -18.276928
v 109.642395 -6.759650 -16.399059
v 106.826385 -5.063141 -13.792241
v 111.158287 -8.049065 -12.498041
v 107.838150 -8.560559 -12.156458
v 107.979683 -5.715508 -16.651949
v 106.788895 -7.457430 -24.251251
v 106.278091 -4.313606 -24.184875
v 106.171082 -2.185977 -27.047903
v 109.569939 3.261787 -25.556999
v 108.298813 3.261787 -7.148251
v 108.880554 16.139481 -19.022606
v 106.087181 13.139643 -23.943552
v 111.279053 9.810393 -20.913132
v 108.675377 12.317840 -7.100134
v 108.900757 13.035904 -18.956211
v 105.980087 11.012017 -8.998707
v 114.696922 9.655082 -22.947395
v 110.051392 8.257375 -20.851946
v 108.447914 10.068318 -8.162857
v 111.325264 12.384302 -8.246780
v 112.804909 15.544744 -9.197136
v 117.665833 12.351899 -20.179165
v 113.617958 10.513088 -15.401777
v 115.715134 11.499816 -18.276928
v 109.642395 13.283224 -16.399055
v 106.826385 11.586711 -13.792240
v 111.158295 14.572643 -12.498045
v 107.838150 15.084136 -12.156458
v 107.979691 12.239079 -16.651947
v 106.788895 13.981004 -24.251251
v 106.278091 10.837177 -24.184879
v 106.171127 8.709551 -11.022052
v 114.469742 13.541854 -8.596572
v 112.879677 14.255947 -10.212639
v 110.601204 14.736093 -12.859026
v 111.899628 13.830542 -11.453744
v 114.136299 17.957674 17.610931
v 60.197170 8.457423 10.192490
v 59.280872 13.374259 8.991721
v 72.115891 12.083232 14.668436
v 72.124657 7.778877 0.000011
v 59.039467 14.744347 0.000012
v 72.127945 13.637047 13.956169
v 72.126541 -5.712662 20.453245
v 60.566883 0.037770 16.682945
v 72.132584 0.000063 16.724064
v 59.944172 -6.620668 10.296098
v 59.304962 -10.189763 8.460633
v 72.126312 -8.512481 0.000011
v 72.138367 -9.974821 0.000009
v 59.034290 -11.891937 -17.610912
v 60.197182 8.457429 -10.192465
v 59.280849 13.374246 -8.991693
v 72.115891 12.083232 -14.668411
v 72.124664 7.778880 -13.956150
v 72.126541 -5.712659 -20.453211
v 60.566902 0.037487 -16.682922
v 72.132584 0.000037 -16.724039
v 59.944145 -6.620659 -10.296077
v 59.304966 -10.189767 -8.460613
v 72.126312 -8.512480 0.000012
v 78.958633 11.404993 0.000008
v 75.876472 -7.686047 0.000011
v 73.907623 11.139781 0.000010
v 71.171326 -5.154222 0.000011
v 70.363953 0.609796 0.000006
v 70.636681 7.043695 12.159393
v 79.508789 6.445744 8.163919
v 78.909729 10.410251 15.071898
v 79.178764 -0.286798 7.402216
v 76.891434 -7.192717 12.970546
v 78.091843 -4.834627 16.457348
v 73.014297 0.138474 14.194661
v 72.967270 -5.410231 9.398152
v 74.446999 10.584960 14.355782
v 74.059570 5.618180 9.189728
v 20.483526 -4.618793 8.996952
v 20.482998 8.894983 19.046968
v 20.485300 4.294075 6.671611
v 20.482706 3.588447 17.271374
v 20.484365 -4.281300 15.818312
v 20.484619 9.061988 1.665725
v 70.647301 0.660560 2.635627
v 71.561157 -5.079877 17.339216
v 60.885475 1.740222 9.633840
v 60.584911 -7.656977 3.599615
v 60.123512 -4.776427 2.262845
v 59.748714 1.097712 10.401955
v 70.590286 8.569388 15.430512
v 60.917004 -5.055141 5.554428
v 48.628948 -5.419436 4.895731
v 44.635265 1.578552 7.014303
v 45.823803 7.658162 12.921489
v 46.202881 7.492379 15.245900
v 49.651619 -4.881052 16.873083
v 45.863380 2.165812 4.611265
v 60.173191 8.395764 12.256181
v 60.734917 8.265151 10.970902
v 45.770508 -7.273461 6.143371
v 45.318436 -4.985474 15.306187
v 46.417286 -4.494250 11.302135
v 42.379589 -6.217175 15.638727
v 43.370800 -3.694180 6.830204
v 42.602539 -4.381424 18.503056
v 35.618931 3.077536 14.372166
v 35.918587 9.239820 7.780088
v 35.585236 9.489033 4.991161
v 34.116905 2.655813 3.296158
v 69.711067 8.304788 10.569829
v 49.151169 -7.550551 16.701828
v 48.442837 2.114869 12.697731
v 48.166122 7.455102 6.915082
v 47.551319 7.600662 4.512663
v 47.440903 1.563443 8.209734
v 72.508774 -7.124870 0.000009
v 81.666115 -9.414069 6.468241
v 82.236633 -7.935610 11.505810
v 82.260811 -4.998949 -12.159369
v 79.508789 6.445749 -8.163886
v 78.909729 10.410257 -15.071871
v 79.178764 -0.286786 -7.402195
v 76.891418 -7.192724 -12.970526
v 78.091843 -4.834636 -16.457323
v 73.014282 0.138491 -14.194637
v 72.967278 -5.410234 -9.398127
v 74.446983 10.584953 -14.355759
v 74.059570 5.618181 -9.189707
v 20.483532 -4.618794 -8.996930
v 20.482998 8.894983 -19.046944
v 20.485300 4.294082 -6.671595
v 20.482712 3.588462 -17.271358
v 20.484379 -4.281298 -15.818293
v 20.484619 9.061989 -1.665702
v 70.647301 0.660576 -2.635603
v 71.561157 -5.079880 -17.339199
v 60.885498 1.740218 -9.633821
v 60.584915 -7.656973 -3.599590
v 60.123512 -4.776428 -2.262821
v 59.748692 1.097738 -10.401937
v 70.590286 8.569392 -15.430489
v 60.916996 -5.055145 -5.554405
v 48.628948 -5.419435 -4.895711
v 44.635258 1.578566 -7.014284
v 45.823803 7.658165 -12.921466
v 46.202881 7.492378 -15.245872
v 49.651619 -3.749733 -16.873064
v 45.863380 2.165825 -4.611241
v 60.173237 8.395761 -12.256149
v 60.734917 8.265145 -10.970881
v 45.770508 -7.273461 -6.143349
v 45.318420 -4.985476 -15.306164
v 46.417290 -4.494249 -11.302114
v 42.379589 -6.217182 -15.638710
v 43.370808 -3.694181 -6.830186
v 42.602551 -4.381426 -18.503029
v 35.618931 3.077547 -14.372143
v 35.918591 9.239820 -7.780067
v 35.585236 9.489039 -4.991145
v 34.116905 2.655834 -3.296136
v 69.711060 8.304780 -10.569809
v 49.151169 -7.550549 -16.701805
v 48.442841 2.114879 -12.697708
v 48.166122 7.455109 -6.915060
v 47.551315 7.600665 -4.512642
v 47.440907 1.563444 -8.209717
v 72.508774 -7.124870 -6.468217
v 82.236633 -7.935611 -11.505790
v 82.260811 -4.998949 10.386812
v 103.422638 7.071862 8.269259
v 97.994904 6.091128 12.935211
v 103.763176 6.765191 18.569515
v 101.821434 6.264483 8.148018
v 93.824402 5.236948 24.509640
v 99.803162 5.505054 26.775414
v 98.933884 5.074884 32.417313
v 96.209473 4.973971 13.303012
v 84.219482 -0.304044 11.834307
v 83.423302 -5.950326 6.680863
v 82.993698 -9.254873 11.057663
v 84.743408 5.150670 0.000010
v 82.658661 -10.626801 6.915567
v 85.047997 7.951943 0.000011
v 85.326851 9.050203 37.828590
v 94.322647 4.509623 42.465950
v 92.705627 4.111682 37.828590
v 94.322647 4.509623 0.000011
v 97.079399 -11.908307 0.000011
v 103.638000 9.714940 -10.386786
v 103.402992 7.045799 0.000011
v 108.610001 10.021691 0.000012
v 113.098991 9.726319 -8.269236
v 97.994904 6.091130 0.000012
v 105.428001 -11.474291 0.000013
v 108.428001 -7.753990 0.000013
v 101.136009 -13.217900 0.000011
v 115.857986 8.613911 0.000011
v 98.300705 8.145029 -12.935186
v 103.740997 6.738404 -18.569489
v 101.816010 6.256050 0.000011
v 111.652000 -4.060240 0.000011
v 93.193909 -11.754099 0.000012
v 94.039597 7.476010 -8.147999
v 93.824402 5.236948 0.000012
v 118.796997 8.214206 0.000011
v 115.205002 -3.830880 0.000011
v 112.708000 2.307520 -24.452488
v 99.825806 5.474985 -26.727091
v 98.953003 5.101009 -32.354488
v 96.234299 5.195421 0.000010
v 89.524399 -10.436800 0.000010
v 82.658661 -10.626801 0.000012
v 90.803299 5.817800 0.000011
v 85.326851 9.050203 0.000011
v 96.981918 6.940161 0.000010
v 97.999985 -11.286701 0.000012
v 116.838890 7.114462 0.000009
v 123.522972 5.340430 0.000012
v 119.354874 -4.180036 0.000013
v 113.304985 -2.498711 -13.302988
v 84.219475 -0.304043 -11.834288
v 83.423302 -5.950325 -6.680838
v 82.993698 -9.254874 -11.057638
v 84.743408 5.150666 0.000010
v 82.658661 -10.626801 0.000006
v 78.888512 -11.452344 0.000006
v 81.428040 11.510201 -6.915545
v 85.048019 7.951944 0.000011
v 85.326851 9.050203 -37.776348
v 94.343292 4.903533 -42.422787
v 92.722694 4.653388 -37.776348
v 94.343292 4.903533 7.320013
v 79.223564 -9.933045 7.669117
v 81.376556 10.233711 0.000006
v 78.888512 -11.452344 7.320013
v 79.223564 -9.933045 0.000006
v 81.428040 11.510201 7.669117
v 81.376556 10.233711 9.046798
v 78.107979 12.126229 15.131067
v 80.449425 -0.089905 12.886937
v 80.987312 6.108735 7.320013
v 79.223564 -9.933045 10.248823
v 68.335724 -11.042063 8.613741
v 68.296844 -11.487266 9.046798
v 78.107979 12.126229 9.101224
v 69.440834 15.749853 11.175016
v 69.365761 14.825886 -7.319998
v 79.223564 -9.933047 -7.669102
v 81.376556 10.233705 0.000000
v 61.402443 19.045866 -0.000000
v 69.518456 17.138565 0.000006
v 78.888512 -11.452344 0.000001
v 68.145294 -13.241037 -0.000000
v 58.659233 -13.916235 -7.319998
v 79.223564 -9.933047 0.000006
v 81.428040 11.510201 -7.669102
v 81.376556 10.233705 -0.000000
v 78.078476 13.178225 -9.046789
v 78.107979 12.126234 -15.131055
v 80.449448 -0.089913 -12.886924
v 80.987312 6.108730 -7.319998
v 79.223564 -9.933047 -8.613743
v 68.296844 -11.487269 -10.248825
v 68.335724 -11.042063 -9.046789
v 78.107979 12.126234 -11.175018
v 69.365768 14.825886 -9.101224
v 69.440834 15.749853 -0.000001
v 52.918571 -13.422585 0.000000
v 56.597797 19.459024 9.168801
v 112.797218 -7.900718 11.751389
v 113.504433 -12.508624 12.828720
v 111.843582 -7.251131 10.412766
v 118.348885 3.201103 13.730583
v 122.363571 3.201566 14.524880
v 117.459045 3.210183 9.197128
v 117.618530 -5.869951 23.943556
v 111.269333 -3.294462 20.913132
v 108.661667 -5.796922 16.651951
v 106.753021 -7.453769 19.022596
v 106.072113 -6.614165 9.411857
v 119.560081 3.213568 8.246778
v 112.765823 -9.030483 7.148254
v 108.837158 -9.611951 12.498043
v 107.798416 -8.557219 27.047901
v 109.570633 3.255646 24.251251
v 106.266739 -4.313791 9.197133
v 117.695343 12.327991 23.943556
v 111.290161 9.802725 20.913130
v 108.690468 12.315149 16.651941
v 106.806618 13.982630 19.022585
v 106.103493 13.141517 8.246782
v 112.847137 15.535172 7.148252
v 108.922783 16.142952 12.498051
v 107.880836 15.087328 24.251251
v 106.290840 10.836964 11.453745
v 114.186569 17.941561 8.596572
v 112.917587 14.245898 10.212641
v 110.640770 14.732067 11.022051
v 114.505333 13.525020 11.453745
v 114.186569 17.941561 12.859026
v 111.937897 13.820009 -11.751390
v 113.557899 -12.493623 -9.168800
v 112.834641 -7.890040 -12.828722
v 111.878746 -7.240837 -13.730586
v 122.362259 3.247329 -10.412769
v 118.346939 3.244602 -14.524879
v 117.457710 3.240310 -9.197137
v 117.665833 -5.828326 -23.943558
v 111.279053 -3.286820 -20.913130
v 108.675377 -5.794259 -16.651949
v 106.788895 -7.457430 -19.022585
v 106.087097 -6.616073 -9.411860
v 119.558060 3.261786 -8.246780
v 112.804878 -9.021164 -7.148253
v 108.880554 -9.615917 -12.498041
v 107.838150 -8.560559 -27.047903
v 109.569939 3.261787 -24.251251
v 106.278091 -4.313606 -9.197136
v 117.665833 12.351899 -23.943552
v 111.279053 9.810393 -20.913132
v 108.675377 12.317840 -16.651947
v 106.788895 13.981004 -19.022606
v 106.087181 13.139643 -8.246780
v 112.804909 15.544744 -7.148251
v 108.880554 16.139481 -12.498045
v 107.838150 15.084136 -24.251251
v 106.278091 10.837177 -10.212639
v 110.601204 14.736093 -11.453744
v 114.136299 17.957674 -11.022052
v 114.469742 13.541854 0.000011
v 59.039467 14.744347 0.000012
v 72.127945 13.637047 0.000011
v 72.138367 -9.974821 0.000009
v 59.034290 -11.891937 1.665725
v 70.647301 0.660560 4.512663
v 47.440903 1.563443 4.895731
v 44.635265 1.578552 4.991161
v 34.116905 2.655813 2.262845
v 59.748714 1.097712 6.671611
v 20.482706 3.588447 0.000011
v 70.363953 0.609796 0.000011
v 70.363953 0.609796 0.000006
v 70.636681 7.043695 0.000011
v 73.907623 11.139781 -1.665702
v 70.647301 0.660576 -4.512642
v 47.440907 1.563444 -4.895711
v 44.635258 1.578566 -4.991145
v 34.116905 2.655834 -2.262821
v 59.748692 1.097738 -6.671595
v 20.482712 3.588462 0.000010
v 71.171326 -5.154222 0.000008
v 75.876472 -7.686047 0.000011
v 70.363953 0.609796 0.000012
v 78.958633 11.404993 0.000009
v 81.666115 -9.414069 0.035335

vt 0.301134 0.858381
vt 0.940678 0.965524
vt 0.345230 0.965230
vt 0.444205 0.937669
vt 0.764647 0.960001
vt 0.727895 0.965859
vt 0.388299 0.761542
vt 0.296516 0.894156
vt 0.284607 0.705015
vt 0.265223 0.817298
vt 0.285736 0.837400
vt 0.571202 0.826144
vt 0.695997 0.805378
vt 0.368787 0.821518
vt 0.830584 0.731111
vt 0.389169 0.854012
vt 0.776314 0.666114
vt 0.323523 0.813024
vt 0.491880 0.838586
vt 0.641910 0.805515
vt 0.754628 0.874107
vt 0.466723 0.909324
vt 0.314103 0.850453
vt 0.322307 0.917129
vt 0.350908 0.849452
vt 0.356102 0.802241
vt 0.324895 0.913000
vt 0.391671 0.847196
vt 0.390768 0.812765
vt 0.417248 0.891319
vt 0.866945 0.966264
vt 0.515089 0.907207
vt 0.521371 0.887245
vt 0.573294 0.883911
vt 0.649788 0.914006
vt 0.693746 0.738141
vt 0.731032 0.749395
vt 0.798001 0.712434
vt 0.419658 0.725557
vt 0.509311 0.801251
vt 0.574334 0.800398
vt 0.637660 0.792510
vt 0.687872 0.649847
vt 0.730154 0.639478
vt 0.788700 0.657474
vt 0.457135 0.661205
vt 0.591633 0.664708
vt 0.527049 0.705005
vt 0.590404 0.711152
vt 0.670050 0.655430
vt 0.666971 0.750265
vt 0.634898 0.747585
vt 0.579976 0.756027
vt 0.680392 0.779905
vt 0.487612 0.771481
vt 0.745263 0.875040
vt 0.730827 0.963925
vt 0.253001 0.894213
vt 0.257158 0.777477
vt 0.228671 0.740263
vt 0.208673 0.825465
vt 0.256278 0.838435
vt 0.986189 0.981668
vt 0.694944 0.946365
vt 0.678159 0.923342
vt 0.645308 0.924676
vt 0.603050 0.944238
vt 0.573681 0.965989
vt 0.554074 0.988525
vt 0.624985 0.916304
vt 0.807919 0.873606
vt 0.698441 0.787277
vt 0.444417 0.370315
vt 0.429917 0.370432
vt 0.702284 0.370463
vt 0.483565 0.370473
vt 0.655218 0.370471
vt 0.538186 0.370533
vt 0.589336 0.592172
vt 0.719473 0.570992
vt 0.776296 0.582959
vt 0.532671 0.576012
vt 0.470933 0.586685
vt 0.591053 0.584840
vt 0.658032 0.542782
vt 0.774484 0.555033
vt 0.656964 0.538490
vt 0.714573 0.564071
vt 0.715631 0.555826
vt 0.590697 0.551467
vt 0.533997 0.546238
vt 0.473613 0.472722
vt 0.476994 0.473165
vt 0.535747 0.473768
vt 0.590234 0.474060
vt 0.656102 0.474193
vt 0.710213 0.473156
vt 0.419483 0.319831
vt 0.008534 0.395044
vt 0.008482 0.117737
vt 0.008482 0.260339
vt 0.008516 0.189799
vt 0.008492 0.403610
vt 0.333365 0.734531
vt 0.189345 0.402479
vt 0.264306 0.690952
vt 0.145247 0.679016
vt 0.250407 0.599335
vt 0.303101 0.477605
vt 0.330324 0.460783
vt 0.258177 0.568723
vt 0.230130 0.628639
vt 0.194586 0.542722
vt 0.323535 0.517398
vt 0.248789 0.402478
vt 0.185610 0.657445
vt 0.092917 0.547178
vt 0.170954 0.445921
vt 0.196845 0.596722
vt 0.140875 0.497261
vt 0.188017 0.790152
vt 0.136168 0.973181
vt 0.152456 0.795486
vt 0.195753 0.938918
vt 0.199135 0.847088
vt 0.104995 0.921310
vt 0.106265 0.844461
vt 0.182925 0.892976
vt 0.181694 0.497214
vt 0.008449 0.052557
vt 0.008465 0.647717
vt 0.271105 0.414970
vt 0.589723 0.416215
vt 0.537100 0.417383
vt 0.480550 0.417645
vt 0.655621 0.417808
vt 0.705904 0.417788
vt 0.425100 0.761542
vt 0.296516 0.894156
vt 0.284607 0.705015
vt 0.265223 0.817298
vt 0.285736 0.837400
vt 0.571202 0.826144
vt 0.695997 0.805378
vt 0.368787 0.821518
vt 0.830584 0.731111
vt 0.389169 0.854012
vt 0.776314 0.666114
vt 0.323523 0.813024
vt 0.491880 0.838586
vt 0.641910 0.805515
vt 0.754628 0.874107
vt 0.466723 0.909324
vt 0.314103 0.850453
vt 0.322307 0.917129
vt 0.350908 0.849452
vt 0.356102 0.802241
vt 0.324895 0.913000
vt 0.391671 0.847196
vt 0.390768 0.812765
vt 0.417248 0.907207
vt 0.521371 0.887245
vt 0.573294 0.883911
vt 0.649788 0.914006
vt 0.693746 0.738141
vt 0.731032 0.749395
vt 0.798001 0.712434
vt 0.419658 0.725557
vt 0.509311 0.801251
vt 0.574334 0.800398
vt 0.637660 0.792510
vt 0.687872 0.649847
vt 0.730154 0.639478
vt 0.788700 0.657474
vt 0.457135 0.661205
vt 0.591633 0.664708
vt 0.527049 0.705005
vt 0.590404 0.711152
vt 0.670050 0.655430
vt 0.666971 0.750265
vt 0.634898 0.747585
vt 0.579976 0.756027
vt 0.680392 0.779905
vt 0.487612 0.771481
vt 0.745263 0.875040
vt 0.730827 0.894213
vt 0.257158 0.777477
vt 0.228671 0.740263
vt 0.208673 0.825465
vt 0.256278 0.946365
vt 0.678159 0.923342
vt 0.645308 0.924676
vt 0.603050 0.944238
vt 0.573681 0.873606
vt 0.698441 0.787277
vt 0.444417 0.370315
vt 0.429917 0.370432
vt 0.702284 0.370463
vt 0.483565 0.370473
vt 0.655218 0.370471
vt 0.538186 0.370533
vt 0.589336 0.592172
vt 0.719473 0.570992
vt 0.776296 0.582959
vt 0.532671 0.576012
vt 0.470933 0.586685
vt 0.591053 0.584840
vt 0.658032 0.542782
vt 0.774484 0.555033
vt 0.656964 0.538490
vt 0.714573 0.564071
vt 0.715631 0.555826
vt 0.590697 0.551467
vt 0.533997 0.546238
vt 0.473613 0.472722
vt 0.476994 0.473165
vt 0.535747 0.473768
vt 0.590234 0.474060
vt 0.656102 0.474193
vt 0.710213 0.473156
vt 0.419483 0.319831
vt 0.008534 0.395044
vt 0.008482 0.117737
vt 0.008482 0.260339
vt 0.008516 0.189799
vt 0.008492 0.679016
vt 0.250407 0.599335
vt 0.303101 0.477605
vt 0.330324 0.460783
vt 0.258177 0.568723
vt 0.230130 0.628639
vt 0.194586 0.542722
vt 0.323535 0.517398
vt 0.248789 0.547178
vt 0.170954 0.445921
vt 0.196845 0.596722
vt 0.140875 0.497261
vt 0.188017 0.847088
vt 0.104995 0.921310
vt 0.106265 0.844461
vt 0.182925 0.892976
vt 0.181694 0.647717
vt 0.271105 0.414970
vt 0.589723 0.416215
vt 0.537100 0.417383
vt 0.480550 0.417645
vt 0.655621 0.417808
vt 0.705904 0.417788
vt 0.425100 0.379973
vt 0.886564 0.281106
vt 0.969700 0.369202
vt 0.851402 0.209543
vt 0.848422 0.297445
vt 0.846333 0.033508
vt 0.835631 0.116186
vt 0.841248 0.105352
vt 0.764664 0.440877
vt 0.886563 0.300499
vt 0.765690 0.209671
vt 0.765600 0.450988
vt 0.997035 0.567561
vt 0.986835 0.442256
vt 0.793445 0.545505
vt 0.795667 0.062850
vt 0.949265 0.131533
vt 0.928914 0.210235
vt 0.928960 0.284795
vt 0.929459 0.103343
vt 0.695427 0.302376
vt 0.693181 0.209794
vt 0.689882 0.347766
vt 0.781022 0.353225
vt 0.705623 0.048327
vt 0.781977 0.043610
vt 0.707080 0.374977
vt 0.814731 0.025886
vt 0.805920 0.387814
vt 0.955477 0.391337
vt 0.829833 0.544358
vt 0.886563 0.372202
vt 0.901234 0.281106
vt 0.969700 0.369202
vt 0.851402 0.209543
vt 0.848422 0.297445
vt 0.846333 0.033508
vt 0.835631 0.116186
vt 0.841248 0.105352
vt 0.764664 0.300499
vt 0.765690 0.209671
vt 0.765600 0.446916
vt 0.901346 0.450988
vt 0.997035 0.564833
vt 0.900215 0.567561
vt 0.986835 0.442256
vt 0.793445 0.545505
vt 0.795667 0.062850
vt 0.949265 0.659560
vt 0.886374 0.131533
vt 0.928914 0.210235
vt 0.928960 0.284795
vt 0.929459 0.103343
vt 0.695427 0.302376
vt 0.693181 0.209794
vt 0.689882 0.347766
vt 0.781022 0.353225
vt 0.705623 0.048327
vt 0.781977 0.043610
vt 0.707080 0.374977
vt 0.814731 0.025886
vt 0.805920 0.387814
vt 0.955477 0.391337
vt 0.829833 0.902195
vt 0.866555 0.949207
vt 0.866555 0.996218
vt 0.866555 0.941094
vt 0.925427 0.949206
vt 0.915808 0.894109
vt 0.925419 0.941094
vt 0.925427 0.988260
vt 0.925408 0.949097
vt 0.866472 0.941085
vt 0.974772 0.301385
vt 0.629795 0.097499
vt 0.564964 0.122868
vt 0.614848 0.105737
vt 0.587914 0.142251
vt 0.665313 0.301422
vt 0.661532 0.253807
vt 0.661507 0.329716
vt 0.661233 0.197482
vt 0.661455 0.213512
vt 0.661407 0.314330
vt 0.661268 0.355720
vt 0.661254 0.314374
vt 0.629767 0.018268
vt 0.694477 0.000418
vt 0.640182 0.089645
vt 0.631273 0.109611
vt 0.679863 0.065502
vt 0.690229 0.050101
vt 0.639806 0.084329
vt 0.589075 0.263719
vt 0.661554 0.048189
vt 0.590115 0.045905
vt 0.563184 0.280593
vt 0.661268 0.078611
vt 0.564793 0.135389
vt 0.577944 0.233202
vt 0.661358 0.181396
vt 0.629844 0.181354
vt 0.661251 0.301385
vt 0.629795 0.097499
vt 0.564964 0.122868
vt 0.614848 0.105737
vt 0.587914 0.301422
vt 0.661532 0.253807
vt 0.661507 0.329716
vt 0.661233 0.197482
vt 0.661455 0.213512
vt 0.661407 0.314330
vt 0.661268 0.314374
vt 0.629767 0.000418
vt 0.640182 0.089645
vt 0.631273 0.050101
vt 0.639806 0.084329
vt 0.589075 0.263719
vt 0.661554 0.048189
vt 0.590115 0.045905
vt 0.563184 0.280593
vt 0.661268 0.078611
vt 0.564793 0.135389
vt 0.577944 0.233202
vt 0.661358 0.996265
vt 0.866651 0.949254
vt 0.866651 0.894109
vt 0.925419 0.941094
vt 0.925427 0.949254
vt 0.915905 0.902195
vt 0.866555 0.949207
vt 0.866555 0.996218
vt 0.866555 0.941094
vt 0.925427 0.949206
vt 0.915808 0.902195
vt 0.866555 0.949207
vt 0.866555 0.996218
vt 0.866555 0.941094
vt 0.925427 0.949206
vt 0.915808 0.301385
vt 0.629795 0.097499
vt 0.564964 0.122868
vt 0.614848 0.105737
vt 0.587914 0.142251
vt 0.665313 0.301422
vt 0.661532 0.253807
vt 0.661507 0.329716
vt 0.661233 0.197482
vt 0.661455 0.213512
vt 0.661407 0.314330
vt 0.661268 0.355720
vt 0.661254 0.314374
vt 0.629767 0.018268
vt 0.694477 0.000418
vt 0.640182 0.089645
vt 0.631273 0.109611
vt 0.679863 0.065502
vt 0.690229 0.050101
vt 0.639806 0.084329
vt 0.589075 0.263719
vt 0.661554 0.048189
vt 0.590115 0.045905
vt 0.563184 0.280593
vt 0.661268 0.078611
vt 0.564793 0.135389
vt 0.577944 0.233202
vt 0.661358 0.181396
vt 0.629844 0.181354
vt 0.661251 0.301385
vt 0.629795 0.097499
vt 0.564964 0.122868
vt 0.614848 0.105737
vt 0.587914 0.301422
vt 0.661532 0.253807
vt 0.661507 0.329716
vt 0.661233 0.197482
vt 0.661455 0.213512
vt 0.661407 0.314330
vt 0.661268 0.314374
vt 0.629767 0.000418
vt 0.640182 0.089645
vt 0.631273 0.050101
vt 0.639806 0.084329
vt 0.589075 0.263719
vt 0.661554 0.048189
vt 0.590115 0.045905
vt 0.563184 0.280593
vt 0.661268 0.078611
vt 0.564793 0.135389
vt 0.577944 0.233202
vt 0.661358 0.902195
vt 0.866555 0.949207
vt 0.866555 0.996218
vt 0.866555 0.941094
vt 0.925427 0.949206
vt 0.915808 0.885707
vt 0.010252 0.942900
vt 0.010238 0.930247
vt 0.095907 0.879057
vt 0.095964 0.995456
vt 0.010233 0.988016
vt 0.095984 0.770686
vt 0.095979 0.824446
vt 0.010259 0.824130
vt 0.096017 0.765501
vt 0.010250 0.707612
vt 0.010241 0.715561
vt 0.095978 0.665233
vt 0.096057 0.656639
vt 0.010238 0.885707
vt 0.010252 0.942900
vt 0.010238 0.930247
vt 0.095907 0.879057
vt 0.095964 0.770686
vt 0.095979 0.824446
vt 0.010259 0.824130
vt 0.096017 0.765501
vt 0.010250 0.707612
vt 0.010241 0.715561
vt 0.095978 0.326550
vt 0.147895 0.056671
vt 0.150365 0.337147
vt 0.180559 0.038816
vt 0.188589 0.381665
vt 0.229906 0.352925
vt 0.209562 0.236744
vt 0.158846 0.279736
vt 0.153695 0.194141
vt 0.163178 0.109765
vt 0.162663 0.154738
vt 0.165370 0.195404
vt 0.207643 0.151513
vt 0.204250 0.276261
vt 0.189392 0.233004
vt 0.199077 0.091075
vt 0.537569 0.301669
vt 0.537567 0.203946
vt 0.537607 0.029290
vt 0.537588 0.148578
vt 0.537598 0.253284
vt 0.537596 0.375264
vt 0.239249 0.057855
vt 0.200778 0.207763
vt 0.275925 0.110970
vt 0.273493 0.066531
vt 0.277992 0.020811
vt 0.290120 0.268870
vt 0.226439 0.153642
vt 0.272949 0.073292
vt 0.358083 0.029349
vt 0.395205 0.307292
vt 0.388633 0.260208
vt 0.386516 0.152807
vt 0.352774 0.206463
vt 0.386701 0.316584
vt 0.281877 0.264564
vt 0.277512 0.114384
vt 0.377632 0.076082
vt 0.381793 0.152938
vt 0.376952 0.116030
vt 0.404188 0.156133
vt 0.400572 0.078197
vt 0.402308 0.205481
vt 0.463540 0.256854
vt 0.462102 0.301753
vt 0.461735 0.028830
vt 0.468813 0.322502
vt 0.219672 0.112519
vt 0.353795 0.207883
vt 0.366663 0.261857
vt 0.371321 0.308105
vt 0.375612 0.356775
vt 0.377759 0.108149
vt 0.198827 0.069919
vt 0.100268 0.115559
vt 0.110909 0.156699
vt 0.119347 0.236744
vt 0.158846 0.279736
vt 0.153695 0.194141
vt 0.163178 0.109765
vt 0.162663 0.154738
vt 0.165370 0.195404
vt 0.207643 0.151513
vt 0.204250 0.276261
vt 0.189392 0.233004
vt 0.199077 0.091075
vt 0.537569 0.301669
vt 0.537567 0.203946
vt 0.537607 0.029290
vt 0.537588 0.148578
vt 0.537598 0.253284
vt 0.537596 0.375264
vt 0.239249 0.057855
vt 0.200778 0.207763
vt 0.275925 0.110970
vt 0.273493 0.066531
vt 0.277992 0.020811
vt 0.290120 0.268870
vt 0.226439 0.153642
vt 0.272949 0.073292
vt 0.358083 0.029349
vt 0.395205 0.307292
vt 0.388633 0.260208
vt 0.386516 0.152807
vt 0.352774 0.206463
vt 0.386701 0.316584
vt 0.281877 0.264564
vt 0.277512 0.114384
vt 0.377632 0.076082
vt 0.381793 0.152938
vt 0.376952 0.116030
vt 0.404188 0.156133
vt 0.400572 0.078197
vt 0.402308 0.205481
vt 0.463540 0.256854
vt 0.462102 0.301753
vt 0.461735 0.028830
vt 0.468813 0.322502
vt 0.219672 0.112519
vt 0.353795 0.207883
vt 0.366663 0.261857
vt 0.371321 0.308105
vt 0.375612 0.356775
vt 0.377759 0.108149
vt 0.198827 0.115559
vt 0.110909 0.156699
vt 0.119347 0.777874
vt 0.806758 0.740698
vt 0.891347 0.652360
vt 0.352562 0.631450
vt 0.384558 0.717833
vt 0.943047 0.567836
vt 0.410749 0.541404
vt 0.418403 0.472473
vt 0.771608 0.259967
vt 0.065425 0.324186
vt 0.065385 0.402525
vt 0.065369 0.185792
vt 0.065413 0.497214
vt 0.065329 0.117923
vt 0.065414 0.052609
vt 0.065448 0.417333
vt 0.759690 0.370292
vt 0.754029 0.417762
vt 0.425103 0.964665
vt 0.301134 0.891319
vt 0.866945 0.777874
vt 0.806758 0.916304
vt 0.807919 0.937669
vt 0.764647 0.740698
vt 0.891347 0.965859
vt 0.388299 0.965230
vt 0.444205 0.965524
vt 0.345230 0.960001
vt 0.727895 0.858381
vt 0.940678 0.652360
vt 0.352562 0.631450
vt 0.384558 0.966264
vt 0.515089 0.963925
vt 0.253001 0.838435
vt 0.986189 0.717833
vt 0.943047 0.981668
vt 0.694944 0.965989
vt 0.554074 0.988525
vt 0.624985 0.567836
vt 0.410749 0.541404
vt 0.418403 0.472473
vt 0.771608 0.402479
vt 0.264306 0.403610
vt 0.333365 0.690952
vt 0.145247 0.734531
vt 0.189345 0.657445
vt 0.092917 0.402478
vt 0.185610 0.790152
vt 0.136168 0.795486
vt 0.195753 0.938918
vt 0.199135 0.973181
vt 0.152456 0.259967
vt 0.065425 0.324186
vt 0.065385 0.402525
vt 0.065369 0.185792
vt 0.065413 0.497214
vt 0.065329 0.497214
vt 0.008449 0.052557
vt 0.008465 0.117923
vt 0.065414 0.052609
vt 0.065448 0.417333
vt 0.759690 0.370292
vt 0.754029 0.417762
vt 0.425103 0.340060
vt 0.987551 0.080709
vt 0.987551 0.700829
vt 0.900614 0.703297
vt 0.974261 0.701675
vt 0.886272 0.701650
vt 0.804571 0.660737
vt 0.798055 0.210970
vt 0.962133 0.138433
vt 0.967895 0.576915
vt 0.396598 0.378292
vt 0.415724 0.380092
vt 0.391612 0.542148
vt 0.355051 0.376512
vt 0.371647 0.375847
vt 0.339038 0.340060
vt 0.987551 0.080709
vt 0.987551 0.440877
vt 0.886563 0.544358
vt 0.886563 0.700829
vt 0.900614 0.564833
vt 0.900215 0.446916
vt 0.901346 0.703297
vt 0.974261 0.701675
vt 0.886272 0.701650
vt 0.804571 0.659560
vt 0.886374 0.660737
vt 0.798055 0.210970
vt 0.962133 0.138433
vt 0.967895 0.576915
vt 0.396598 0.380092
vt 0.391612 0.378292
vt 0.415724 0.542148
vt 0.355051 0.375847
vt 0.339038 0.376512
vt 0.371647 0.372202
vt 0.901234 0.379973
vt 0.886564 0.988260
vt 0.925408 0.941085
vt 0.974772 0.894109
vt 0.925419 0.996108
vt 0.866472 0.949097
vt 0.915726 0.902086
vt 0.866472 0.329702
vt 0.629727 0.197496
vt 0.629847 0.213491
vt 0.629843 0.263714
vt 0.629833 0.253754
vt 0.629846 0.355720
vt 0.629766 0.003994
vt 0.589749 0.004454
vt 0.558874 0.280589
vt 0.629808 0.168851
vt 0.649667 0.233141
vt 0.629846 0.329702
vt 0.629727 0.197496
vt 0.629847 0.213491
vt 0.629843 0.263714
vt 0.629833 0.253754
vt 0.629846 0.003994
vt 0.589749 0.004454
vt 0.558874 0.280589
vt 0.629808 0.233141
vt 0.629846 0.941085
vt 0.974772 0.941094
vt 0.925427 0.988260
vt 0.925408 0.902241
vt 0.866656 0.949252
vt 0.915910 0.949252
vt 0.866656 0.941085
vt 0.974772 0.988260
vt 0.925408 0.894109
vt 0.925419 0.941085
vt 0.974772 0.988260
vt 0.925408 0.894109
vt 0.925419 0.329702
vt 0.629727 0.197496
vt 0.629847 0.213491
vt 0.629843 0.263714
vt 0.629833 0.253754
vt 0.629846 0.355720
vt 0.629766 0.003994
vt 0.589749 0.004454
vt 0.558874 0.280589
vt 0.629808 0.168851
vt 0.649667 0.233141
vt 0.629846 0.329702
vt 0.629727 0.197496
vt 0.629847 0.213491
vt 0.629843 0.263714
vt 0.629833 0.253754
vt 0.629846 0.003994
vt 0.589749 0.004454
vt 0.558874 0.280589
vt 0.629808 0.233141
vt 0.629846 0.988260
vt 0.925408 0.941085
vt 0.974772 0.894109
vt 0.925419 0.995456
vt 0.010233 0.988016
vt 0.095984 0.665233
vt 0.096057 0.656639
vt 0.010238 0.011909
vt 0.225624 0.025139
vt 0.375673 0.355545
vt 0.397219 0.352954
vt 0.470057 0.365096
vt 0.294963 0.346748
vt 0.537565 0.004020
vt 0.215293 0.381665
vt 0.229906 0.352925
vt 0.209562 0.337147
vt 0.180559 0.011909
vt 0.225624 0.025139
vt 0.375673 0.355545
vt 0.397219 0.352954
vt 0.470057 0.365096
vt 0.294963 0.346748
vt 0.537565 0.038816
vt 0.188589 0.056671
vt 0.150365 0.004020
vt 0.215293 0.326550
vt 0.147895 0.069919
vt 0.100268 1.000000

f 268/268 251/251 267/267
f 267/267 253/253 268/268
f 639/639 268/268 254/254
f 251/251 268/268 639/639
f 253/253 267/267 266/266
f 265/265 266/266 640/640
f 256/256 277/277 274/274
f 274/274 257/257 256/256
f 263/263 280/280 258/258
f 254/254 253/253 260/260
f 260/260 259/259 254/254
f 260/260 256/256 257/257
f 256/256 260/260 253/253
f 276/276 254/254 272/272
f 641/641 262/262 293/293
f 293/293 262/262 261/261
f 261/261 291/291 293/293
f 262/262 641/641 642/642
f 280/280 263/263 264/264
f 643/643 298/298 644/644
f 280/280 264/264 645/645
f 646/646 647/647 267/267
f 280/280 645/645 298/298
f 298/298 645/645 644/644
f 253/253 266/266 256/256
f 255/255 256/256 265/265
f 266/266 647/647 640/640
f 265/265 256/256 266/266
f 267/267 647/647 266/266
f 267/267 251/251 646/646
f 254/254 252/252 639/639
f 268/268 253/253 254/254
f 648/648 649/649 650/650
f 651/651 652/652 653/653
f 275/275 269/269 257/257
f 270/270 260/260 271/271
f 260/260 270/270 259/259
f 260/260 257/257 269/269
f 269/269 271/271 260/260
f 270/270 273/273 259/259
f 272/272 259/259 273/273
f 272/272 254/254 259/259
f 275/275 257/257 274/274
f 256/256 255/255 277/277
f 254/254 276/276 252/252
f 261/261 278/278 281/281
f 281/281 291/291 261/261
f 258/258 250/250 279/279
f 279/279 263/263 258/258
f 301/301 300/300 282/282
f 300/300 301/301 284/284
f 654/654 285/285 301/301
f 282/282 654/654 301/301
f 284/284 299/299 300/300
f 297/297 655/655 299/299
f 287/287 307/307 310/310
f 307/307 287/287 288/288
f 295/295 656/656 657/657
f 285/285 290/290 284/284
f 290/290 285/285 289/289
f 290/290 288/288 287/287
f 287/287 284/284 290/290
f 309/309 305/305 285/285
f 658/658 659/659 294/294
f 659/659 660/660 292/292
f 292/292 294/294 659/659
f 294/294 661/661 658/658
f 657/657 296/296 295/295
f 662/662 663/663 664/664
f 657/657 665/665 296/296
f 666/666 300/300 667/667
f 657/657 664/664 665/665
f 664/664 663/663 665/665
f 284/284 287/287 299/299
f 286/286 297/297 287/287
f 299/299 655/655 667/667
f 297/297 299/299 287/287
f 300/300 299/299 667/667
f 300/300 666/666 282/282
f 285/285 654/654 283/283
f 301/301 285/285 284/284
f 668/668 669/669 670/670
f 671/671 672/672 673/673
f 308/308 288/288 302/302
f 303/303 304/304 290/290
f 290/290 289/289 303/303
f 290/290 302/302 288/288
f 302/302 290/290 304/304
f 303/303 289/289 306/306
f 305/305 306/306 289/289
f 305/305 289/289 285/285
f 308/308 307/307 288/288
f 287/287 310/310 286/286
f 285/285 283/283 309/309
f 292/292 660/660 674/674
f 674/674 311/311 292/292
f 656/656 295/295 312/312
f 312/312 675/675 656/656
f 314/314 313/313 317/317
f 315/315 314/314 317/317
f 316/316 676/676 677/677
f 678/678 316/316 677/677
f 319/319 318/318 322/322
f 320/320 319/319 322/322
f 321/321 679/679 680/680
f 681/681 321/321 680/680
f 338/338 326/326 342/342
f 326/326 338/338 325/325
f 342/342 324/324 347/347
f 324/324 342/342 326/326
f 338/338 340/340 339/339
f 340/340 338/338 341/341
f 341/341 336/336 340/340
f 336/336 341/341 337/337
f 330/330 335/335 333/333
f 335/335 330/330 682/682
f 350/350 331/331 683/683
f 331/331 350/350 351/351
f 683/683 332/332 684/684
f 332/332 683/683 331/331
f 333/333 323/323 328/328
f 323/323 333/333 335/335
f 685/685 329/329 343/343
f 329/329 685/685 686/686
f 682/682 334/334 687/687
f 334/334 682/682 330/330
f 344/344 337/337 341/341
f 337/337 344/344 688/688
f 688/688 345/345 689/689
f 345/345 688/688 344/344
f 690/690 328/328 323/323
f 328/328 690/690 346/346
f 327/327 691/691 325/325
f 338/338 344/344 341/341
f 344/344 338/338 342/342
f 344/344 347/347 345/345
f 347/347 344/344 342/342
f 325/325 339/339 327/327
f 339/339 325/325 338/338
f 690/690 343/343 346/346
f 343/343 690/690 685/685
f 326/326 348/348 324/324
f 686/686 349/349 329/329
f 349/349 686/686 692/692
f 332/332 692/692 684/684
f 692/692 332/332 349/349
f 364/364 355/355 354/354
f 355/355 364/364 366/366
f 366/366 353/353 355/355
f 353/353 366/366 371/371
f 364/364 340/340 365/365
f 340/340 364/364 339/339
f 365/365 336/336 363/363
f 336/336 365/365 340/340
f 358/358 362/362 693/693
f 362/362 358/358 361/361
f 350/350 359/359 351/351
f 359/359 350/350 694/694
f 694/694 360/360 359/359
f 360/360 694/694 695/695
f 361/361 352/352 362/362
f 352/352 361/361 356/356
f 696/696 357/357 697/697
f 357/357 696/696 367/367
f 693/693 334/334 358/358
f 334/334 693/693 687/687
f 368/368 363/363 698/698
f 363/363 368/368 365/365
f 698/698 369/369 368/368
f 369/369 698/698 699/699
f 700/700 356/356 370/370
f 356/356 700/700 352/352
f 327/327 354/354 691/691
f 364/364 368/368 366/366
f 368/368 364/364 365/365
f 368/368 371/371 366/366
f 371/371 368/368 369/369
f 354/354 339/339 364/364
f 339/339 354/354 327/327
f 700/700 367/367 696/696
f 367/367 700/700 370/370
f 355/355 353/353 372/372
f 697/697 373/373 701/701
f 373/373 697/697 357/357
f 360/360 701/701 373/373
f 701/701 360/360 695/695
f 375/375 378/378 374/374
f 376/376 702/702 703/703
f 377/377 702/702 704/704
f 705/705 706/706 707/707
f 380/380 383/383 379/379
f 381/381 383/383 380/380
f 382/382 708/708 709/709
f 710/710 708/708 382/382
f 385/385 388/388 384/384
f 386/386 388/388 385/385
f 387/387 711/711 712/712
f 713/713 711/711 387/387
f 404/404 408/408 392/392
f 392/392 391/391 404/404
f 408/408 413/413 390/390
f 390/390 392/392 408/408
f 404/404 405/405 406/406
f 406/406 407/407 404/404
f 407/407 406/406 402/402
f 402/402 403/403 407/407
f 396/396 399/399 401/401
f 401/401 714/714 396/396
f 416/416 715/715 397/397
f 397/397 417/417 416/416
f 715/715 716/716 398/398
f 398/398 397/397 715/715
f 399/399 394/394 389/389
f 389/389 401/401 399/399
f 717/717 409/409 395/395
f 395/395 718/718 717/717
f 714/714 719/719 400/400
f 400/400 396/396 714/714
f 410/410 407/407 403/403
f 403/403 720/720 410/410
f 720/720 721/721 411/411
f 411/411 410/410 720/720
f 722/722 389/389 394/394
f 394/394 412/412 722/722
f 393/393 391/391 723/723
f 404/404 407/407 410/410
f 410/410 408/408 404/404
f 410/410 411/411 413/413
f 413/413 408/408 410/410
f 391/391 393/393 405/405
f 405/405 404/404 391/391
f 722/722 412/412 409/409
f 409/409 717/717 722/722
f 392/392 390/390 414/414
f 718/718 395/395 415/415
f 415/415 724/724 718/718
f 398/398 716/716 724/724
f 724/724 415/415 398/398
f 430/430 420/420 421/421
f 421/421 432/432 430/430
f 432/432 421/421 419/419
f 419/419 437/437 432/432
f 430/430 431/431 406/406
f 406/406 405/405 430/430
f 431/431 429/429 402/402
f 402/402 406/406 431/431
f 424/424 725/725 428/428
f 428/428 427/427 424/424
f 416/416 417/417 425/425
f 425/425 726/726 416/416
f 726/726 425/425 426/426
f 426/426 727/727 726/726
f 427/427 428/428 418/418
f 418/418 422/422 427/427
f 728/728 729/729 423/423
f 423/423 433/433 728/728
f 725/725 424/424 400/400
f 400/400 719/719 725/725
f 434/434 730/730 429/429
f 429/429 431/431 434/434
f 730/730 434/434 435/435
f 435/435 731/731 730/730
f 732/732 436/436 422/422
f 422/422 418/418 732/732
f 393/393 723/723 420/420
f 430/430 432/432 434/434
f 434/434 431/431 430/430
f 434/434 432/432 437/437
f 437/437 435/435 434/434
f 420/420 430/430 405/405
f 405/405 393/393 420/420
f 732/732 728/728 433/433
f 433/433 436/436 732/732
f 421/421 438/438 419/419
f 729/729 733/733 439/439
f 439/439 423/423 729/729
f 426/426 439/439 733/733
f 733/733 727/727 426/426
f 441/441 440/440 444/444
f 442/442 441/441 444/444
f 443/443 734/734 735/735
f 736/736 443/443 735/735
f 9/9 1/1 15/15
f 17/17 31/31 18/18
f 8/8 16/16 576/576
f 21/21 15/15 18/18
f 10/10 8/8 17/17
f 5/5 71/71 29/29
f 28/28 22/22 21/21
f 17/17 15/15 577/577
f 576/576 15/15 57/57
f 17/17 21/21 16/16
f 8/8 27/27 7/7
f 4/4 28/28 26/26
f 24/24 23/23 25/25
f 26/26 23/23 25/25
f 28/28 26/26 3/3
f 7/7 25/25 3/3
f 25/25 23/23 26/26
f 14/14 24/24 27/27
f 26/26 29/29 24/24
f 9/9 23/23 22/22
f 12/12 19/19 11/11
f 9/9 24/24 1/1
f 3/3 23/23 57/57
f 36/36 6/6 2/2
f 577/577 15/15 6/6
f 5/5 57/57 73/73
f 14/14 30/30 28/28
f 29/29 26/26 28/28
f 4/4 22/22 7/7
f 28/28 25/25 19/19
f 29/29 22/22 14/14
f 29/29 30/30 16/16
f 14/14 73/73 16/16
f 27/27 14/14 24/24
f 27/27 8/8 57/57
f 13/13 72/72 22/22
f 33/33 12/12 34/34
f 12/12 33/33 20/20
f 12/12 34/34 15/15
f 31/31 2/2 4/4
f 33/33 22/22 34/34
f 35/35 20/20 13/13
f 20/20 72/72 36/36
f 57/57 72/72 576/576
f 21/21 576/576 16/16
f 40/40 39/39 41/41
f 41/41 12/12 43/43
f 20/20 13/13 19/19
f 12/12 41/41 20/20
f 43/43 42/42 13/13
f 21/21 43/43 38/38
f 38/38 45/45 39/39
f 39/39 46/46 47/47
f 49/49 47/47 39/39
f 46/46 39/39 44/44
f 37/37 44/44 55/55
f 16/16 73/73 43/43
f 56/56 54/54 53/53
f 55/55 41/41 40/40
f 53/53 49/49 56/56
f 43/43 21/21 52/52
f 49/49 53/53 54/54
f 52/52 42/42 49/49
f 52/52 50/50 43/43
f 53/53 41/41 52/52
f 53/53 42/42 19/19
f 41/41 55/55 54/54
f 50/50 52/52 37/37
f 50/50 54/54 40/40
f 16/16 55/55 53/53
f 40/40 55/55 37/37
f 38/38 37/37 57/57
f 21/21 13/13 17/17
f 57/57 5/5 4/4
f 32/32 33/33 58/58
f 58/58 1/1 60/60
f 60/60 8/8 59/59
f 59/59 9/9 577/577
f 580/580 577/577 62/62
f 62/62 11/11 64/64
f 64/64 6/6 65/65
f 65/65 36/36 67/67
f 67/67 34/34 66/66
f 66/66 35/35 68/68
f 68/68 33/33 65/65
f 70/70 64/64 66/66
f 70/70 65/65 68/68
f 70/70 66/66 69/69
f 70/70 68/68 17/17
f 71/71 31/31 36/36
f 20/20 35/35 55/55
f 73/73 30/30 45/45
f 45/45 81/81 46/46
f 46/46 83/83 84/84
f 47/47 84/84 46/46
f 83/83 46/46 44/44
f 44/44 80/80 84/84
f 84/84 47/47 86/86
f 97/97 88/88 93/93
f 138/138 98/98 582/582
f 83/83 92/92 96/96
f 84/84 87/87 82/82
f 92/92 83/83 76/76
f 134/134 78/78 82/82
f 84/84 90/90 133/133
f 78/78 134/134 97/97
f 88/88 97/97 89/89
f 86/86 88/88 581/581
f 83/83 582/582 87/87
f 89/89 87/87 86/86
f 85/85 80/80 87/87
f 89/89 88/88 81/81
f 89/89 80/80 94/94
f 90/90 95/95 96/96
f 136/136 95/95 90/90
f 91/91 82/82 92/92
f 82/82 91/91 74/74
f 135/135 76/76 134/134
f 76/76 135/135 91/91
f 93/93 92/92 98/98
f 92/92 93/93 90/90
f 94/94 91/91 93/93
f 91/91 94/94 78/78
f 77/77 79/79 88/88
f 96/96 90/90 583/583
f 137/137 97/97 92/92
f 98/98 582/582 97/97
f 86/86 583/583 47/47
f 50/50 51/51 49/49
f 50/50 47/47 132/132
f 109/109 112/112 106/106
f 110/110 104/104 111/111
f 114/114 110/110 107/107
f 105/105 113/113 111/111
f 110/110 106/106 109/109
f 114/114 115/115 113/113
f 108/108 132/132 105/105
f 108/108 113/113 112/112
f 114/114 111/111 112/112
f 118/118 113/113 106/106
f 119/119 111/111 107/107
f 120/120 117/117 111/111
f 119/119 121/121 106/106
f 116/116 119/119 115/115
f 118/118 112/112 113/113
f 118/118 120/120 113/113
f 120/120 107/107 115/115
f 121/121 118/118 111/111
f 121/121 115/115 127/127
f 126/126 127/127 122/122
f 124/124 122/122 129/129
f 127/127 125/125 123/123
f 125/125 127/127 584/584
f 584/584 102/102 99/99
f 585/585 99/99 103/103
f 587/587 103/103 586/586
f 586/586 100/100 131/131
f 590/590 131/131 101/101
f 589/589 101/101 113/113
f 132/132 112/112 95/95
f 136/136 133/133 95/95
f 135/135 93/93 136/136
f 77/77 133/133 97/97
f 137/137 75/75 583/583
f 591/591 592/592 135/135
f 74/74 593/593 93/93
f 135/135 138/138 154/154
f 594/594 140/140 146/146
f 595/595 148/148 149/149
f 147/147 139/139 596/596
f 146/146 152/152 149/149
f 139/139 141/141 148/148
f 597/597 598/598 160/160
f 153/153 159/159 152/152
f 146/146 148/148 599/599
f 146/146 596/596 186/186
f 152/152 148/148 147/147
f 158/158 139/139 600/600
f 159/159 601/601 157/157
f 154/154 155/155 156/156
f 154/154 157/157 156/156
f 157/157 159/159 602/602
f 156/156 600/600 602/602
f 154/154 156/156 157/157
f 155/155 145/145 158/158
f 160/160 157/157 155/155
f 154/154 140/140 153/153
f 150/150 143/143 142/142
f 155/155 140/140 594/594
f 154/154 602/602 186/186
f 603/603 165/165 604/604
f 146/146 599/599 603/603
f 186/186 598/598 196/196
f 161/161 145/145 159/159
f 157/157 160/160 159/159
f 153/153 601/601 600/600
f 156/156 159/159 150/150
f 153/153 160/160 145/145
f 161/161 160/160 147/147
f 196/196 145/145 147/147
f 145/145 158/158 155/155
f 139/139 158/158 186/186
f 195/195 144/144 153/153
f 143/143 162/162 163/163
f 162/162 143/143 151/151
f 163/163 143/143 146/146
f 604/604 595/595 601/601
f 153/153 162/162 163/163
f 151/151 164/164 144/144
f 195/195 151/151 165/165
f 195/195 186/186 596/596
f 596/596 152/152 147/147
f 168/168 169/169 170/170
f 143/143 170/170 172/172
f 144/144 151/151 150/150
f 170/170 143/143 151/151
f 171/171 172/172 144/144
f 172/172 152/152 167/167
f 174/174 167/167 168/168
f 175/175 168/168 176/176
f 176/176 178/178 168/168
f 168/168 175/175 173/173
f 173/173 166/166 184/184
f 196/196 147/147 172/172
f 183/183 185/185 182/182
f 170/170 184/184 169/169
f 178/178 182/182 185/185
f 152/152 172/172 181/181
f 182/182 178/178 183/183
f 171/171 181/181 178/178
f 179/179 181/181 172/172
f 170/170 182/182 181/181
f 171/171 182/182 150/150
f 184/184 170/170 183/183
f 181/181 179/179 166/166
f 183/183 179/179 169/169
f 184/184 147/147 182/182
f 184/184 169/169 166/166
f 166/166 167/167 186/186
f 144/144 152/152 148/148
f 598/598 186/186 601/601
f 162/162 607/607 608/608
f 594/594 608/608 188/188
f 139/139 188/188 187/187
f 140/140 187/187 599/599
f 599/599 610/610 190/190
f 142/142 190/190 611/611
f 603/603 611/611 191/191
f 165/165 191/191 193/193
f 163/163 193/193 192/192
f 164/164 192/192 194/194
f 162/162 194/194 191/191
f 611/611 613/613 192/192
f 191/191 613/613 194/194
f 192/192 613/613 612/612
f 194/194 613/613 148/148
f 595/595 597/597 165/165
f 164/164 151/151 184/184
f 161/161 196/196 174/174
f 204/204 174/174 175/175
f 206/206 175/175 207/207
f 207/207 176/176 175/175
f 175/175 206/206 173/173
f 203/203 173/173 207/207
f 176/176 207/207 209/209
f 211/211 220/220 216/216
f 221/221 249/249 615/615
f 215/215 206/206 219/219
f 210/210 207/207 205/205
f 206/206 215/215 199/199
f 201/201 245/245 205/205
f 213/213 207/207 244/244
f 245/245 201/201 220/220
f 220/220 211/211 212/212
f 211/211 209/209 614/614
f 615/615 206/206 210/210
f 210/210 212/212 209/209
f 203/203 208/208 210/210
f 211/211 212/212 204/204
f 203/203 212/212 217/217
f 218/218 213/213 219/219
f 218/218 247/247 213/213
f 205/205 214/214 215/215
f 214/214 205/205 197/197
f 199/199 246/246 245/245
f 246/246 199/199 214/214
f 215/215 216/216 221/221
f 216/216 215/215 213/213
f 214/214 217/217 216/216
f 217/217 214/214 201/201
f 202/202 200/200 211/211
f 213/213 219/219 616/616
f 220/220 248/248 215/215
f 615/615 221/221 220/220
f 616/616 209/209 176/176
f 180/180 179/179 178/178
f 176/176 179/179 243/243
f 231/231 228/228 617/617
f 618/618 229/229 230/230
f 229/229 233/233 619/619
f 232/232 620/620 230/230
f 617/617 229/229 228/228
f 234/234 233/233 232/232
f 243/243 227/227 620/620
f 232/232 227/227 231/231
f 230/230 233/233 231/231
f 232/232 235/235 617/617
f 230/230 236/236 619/619
f 621/621 237/237 230/230
f 238/238 236/236 617/617
f 236/236 622/622 234/234
f 231/231 235/235 232/232
f 237/237 235/235 232/232
f 619/619 237/237 234/234
f 235/235 238/238 230/230
f 234/234 238/238 240/240
f 240/240 239/239 623/623
f 623/623 624/624 242/242
f 625/625 240/240 626/626
f 240/240 625/625 627/627
f 225/225 627/627 222/222
f 222/222 628/628 226/226
f 226/226 630/630 629/629
f 223/223 629/629 633/633
f 633/633 635/635 224/224
f 224/224 634/634 232/232
f 231/231 243/243 218/218
f 244/244 247/247 218/218
f 216/216 246/246 247/247
f 244/244 200/200 220/220
f 198/198 248/248 616/616
f 637/637 636/636 246/246
f 638/638 197/197 216/216
f 249/249 246/246 445/445
f 445/445 448/448 446/446
f 450/450 449/449 451/451
f 454/454 451/451 452/452
f 453/453 445/445 448/448
f 445/445 453/453 455/455
f 455/455 458/458 450/450
f 446/446 447/447 459/459
f 462/462 459/459 460/460
f 737/737 738/738 463/463
f 463/463 466/466 464/464
f 459/459 465/465 462/462
f 465/465 459/459 467/467
f 740/740 467/467 738/738
f 461/461 460/460 490/490
f 474/474 473/473 482/482
f 471/471 496/496 480/480
f 480/480 492/492 522/522
f 497/497 493/493 516/516
f 505/505 483/483 491/491
f 494/494 495/495 741/741
f 491/491 495/495 493/493
f 493/493 517/517 521/521
f 520/520 504/504 518/518
f 492/492 519/519 497/497
f 493/493 497/497 507/507
f 494/494 498/498 508/508
f 502/502 518/518 501/501
f 501/501 519/519 504/504
f 505/505 496/496 498/498
f 498/498 517/517 502/502
f 502/502 508/508 518/518
f 503/503 508/508 742/742
f 498/498 507/507 513/513
f 513/513 512/512 509/509
f 509/509 511/511 508/508
f 508/508 510/510 515/515
f 515/515 511/511 743/743
f 743/743 744/744 501/501
f 501/501 500/500 503/503
f 510/510 508/508 488/488
f 488/488 510/510 512/512
f 510/510 503/503 499/499
f 507/507 511/511 510/510
f 488/488 509/509 484/484
f 509/509 488/488 511/511
f 515/515 499/499 745/745
f 490/490 745/745 511/511
f 509/509 484/484 513/513
f 485/485 489/489 746/746
f 746/746 485/485 471/471
f 516/516 496/496 491/491
f 472/472 478/478 492/492
f 480/480 483/483 491/491
f 493/493 494/494 522/522
f 491/491 478/478 741/741
f 472/472 491/491 496/496
f 483/483 482/482 518/518
f 501/501 503/503 492/492
f 502/502 497/497 521/521
f 743/743 500/500 505/505
f 492/492 483/483 478/478
f 741/741 747/747 516/516
f 471/471 474/474 516/516
f 474/474 490/490 482/482
f 469/469 471/471 475/475
f 483/483 477/477 479/479
f 477/477 481/481 475/475
f 476/476 482/482 469/469
f 482/482 476/476 483/483
f 478/478 479/479 482/482
f 483/483 475/475 519/519
f 502/502 492/492 504/504
f 492/492 505/505 521/521
f 500/500 520/520 519/519
f 504/504 520/520 494/494
f 742/742 495/495 745/745
f 521/521 504/504 493/493
f 491/491 522/522 493/493
f 522/522 481/481 523/523
f 470/470 523/523 525/525
f 477/477 479/479 541/541
f 748/748 749/749 533/533
f 547/547 750/750 531/531
f 543/543 531/531 573/573
f 544/544 548/548 567/567
f 534/534 556/556 542/542
f 546/546 545/545 751/751
f 546/546 542/542 544/544
f 568/568 544/544 572/572
f 555/555 571/571 569/569
f 570/570 543/543 548/548
f 548/548 544/544 558/558
f 549/549 545/545 559/559
f 569/569 553/553 552/552
f 570/570 552/552 555/555
f 547/547 556/556 549/549
f 568/568 549/549 553/553
f 559/559 553/553 569/569
f 559/559 554/554 752/752
f 558/558 549/549 564/564
f 563/563 564/564 560/560
f 562/562 560/560 559/559
f 561/561 559/559 566/566
f 562/562 566/566 753/753
f 754/754 753/753 552/552
f 551/551 552/552 554/554
f 559/559 561/561 539/539
f 561/561 539/539 563/563
f 554/554 561/561 550/550
f 562/562 558/558 561/561
f 560/560 539/539 535/535
f 539/539 560/560 562/562
f 550/550 566/566 755/755
f 755/755 541/541 562/562
f 535/535 560/560 564/564
f 540/540 536/536 756/756
f 536/536 756/756 750/750
f 547/547 567/567 542/542
f 529/529 757/757 543/543
f 534/534 531/531 542/542
f 545/545 544/544 573/573
f 529/529 542/542 751/751
f 542/542 757/757 547/547
f 533/533 534/534 569/569
f 554/554 552/552 543/543
f 548/548 553/553 572/572
f 551/551 753/753 556/556
f 534/534 543/543 529/529
f 759/759 751/751 567/567
f 749/749 750/750 567/567
f 541/541 749/749 533/533
f 750/750 760/760 526/526
f 528/528 534/534 530/530
f 532/532 528/528 526/526
f 533/533 527/527 760/760
f 527/527 533/533 534/534
f 530/530 529/529 533/533
f 526/526 534/534 570/570
f 543/543 553/553 555/555
f 556/556 543/543 572/572
f 571/571 551/551 570/570
f 571/571 555/555 545/545
f 546/546 752/752 755/755
f 555/555 572/572 544/544
f 573/573 542/542 544/544
f 532/532 573/573 761/761
f 761/761 758/758 575/575
