# MOD converted: e_w_costume_rudolf_hair.mod
# 352 verts, 139 faces

v 116.403816 -5.632984 22.237961
v 134.596100 4.067180 18.365812
v 124.612602 12.863462 7.168488
v 169.338638 3.522903 15.353130
v 165.115051 4.473218 11.631417
v 164.055817 15.308146 21.156227
v 133.536087 15.379077 21.550730
v 142.481140 17.686905 11.637164
v 131.989731 24.976734 12.014352
v 152.010300 26.616627 9.345093
v 116.058220 8.982837 19.124828
v 125.276398 4.191862 11.790038
v 123.139496 19.839165 14.874209
v 120.077980 3.577976 10.941256
v 119.278267 11.528021 11.911109
v 141.835770 27.415834 0.000008
v 140.695419 -15.336710 23.515244
v 151.893448 4.896909 24.073341
v 143.009857 4.555528 -0.000004
v 170.416367 3.402704 20.909822
v 151.982971 18.137058 16.624125
v 136.784241 0.396288 15.519072
v 127.665092 0.728747 -0.000013
v 131.211548 27.439178 -0.000011
v 167.842819 13.809649 -0.000010
v 122.451836 21.068802 -0.000013
v 164.051590 22.558052 -0.000006
v 115.306961 14.366355 -0.000015
v 151.950684 29.012333 -0.000006
v 118.208191 16.676552 -0.000013
v 141.463165 29.709759 13.679905
v 122.576347 -6.735240 9.043002
v 119.849136 -9.155326 17.642818
v 134.766525 -6.799810 17.735733
v 139.016998 -11.504875 9.527084
v 165.353455 -6.967759 11.960306
v 140.447784 -16.644547 5.776396
v 152.429703 -22.942053 10.399634
v 159.457611 -13.169420 4.261829
v 118.304695 -10.496567 4.921091
v 138.723465 -19.850870 16.476812
v 128.094131 -6.279731 17.522202
v 125.649117 -5.287123 14.717395
v 121.373672 -6.433987 9.601813
v 118.607414 -8.519037 19.868193
v 134.931503 -5.758797 4.515398
v 116.972549 -10.455093 13.215322
v 143.893463 -16.764975 18.607889
v 143.848938 -11.944422 10.264557
v 151.321991 -20.408510 0.000008
v 139.465775 -20.237522 0.000010
v 141.978210 -25.072746 0.000011
v 152.592865 -24.136398 0.000002
v 115.022453 -9.656205 0.000003
v 117.828003 -11.838327 -0.000000
v 160.261826 -15.756487 0.000004
v 165.900116 -9.067108 0.000002
v 116.254120 -11.568734 20.679817
v 151.819778 -6.136149 7.182323
v 154.731277 -17.290726 0.000011
v 155.565796 -17.664377 10.736408
v 152.445984 -16.976416 7.327586
v 140.030899 -13.890965 13.995714
v 138.998795 -10.378535 4.486069
v 120.939819 -1.157310 0.000002
v 119.691444 -3.754591 10.775955
v 141.552399 -21.314510 5.783442
v 141.381653 -24.565744 15.843178
v 159.213882 -7.118866 0.000011
v 146.980301 -26.862469 6.676127
v 147.357346 -25.252274 11.597517
v 146.038391 -21.812904 12.802665
v 148.837845 -16.993786 16.650162
v 151.833832 -12.550101 22.170706
v 143.556763 -5.482088 8.723977
v 115.623001 -2.552737 0.000001
v 114.223755 -6.488765 11.524519
v 116.840546 2.938398 -0.000001
v 116.348953 2.296381 20.432875
v 159.616577 4.197791 13.938445
v 164.521164 4.650994 10.126486
v 166.309296 7.394214 7.523910
v 167.621078 3.736594 10.914575
v 166.403687 0.801333 15.485399
v 168.054749 4.835513 13.090799
v 171.901245 8.943323 9.668818
v 172.597626 4.318539 15.167067
v 171.978516 1.605600 18.955729
v 171.671326 6.838226 15.417314
v 177.913162 5.878207 23.341936
v 174.132965 8.928610 20.445814
v 177.088181 11.877785 19.393995
v 180.043427 7.857475 22.290110
v 177.088196 4.908291 29.471632
v 179.681702 11.852581 25.386953
v 182.062057 14.009901 20.496174
v 188.416901 7.610094 28.478146
v 182.062042 7.297518 33.436569
v 188.489868 13.578257 29.715096
v 189.769989 15.163352 28.522163
v 191.050171 11.257832 32.243649
v 189.769989 9.672745 32.435440
v 191.741302 12.678027 9.756233
v 179.204193 8.444944 7.416456
v 176.965454 3.707442 10.377387
v 179.241943 0.598859 12.894132
v 181.738815 5.193627 8.804846
v 181.076050 4.456989 25.953901
v 187.514862 10.191621 22.522390
v 182.668045 8.571375 21.387596
v 186.724808 11.582942 23.998787
v 186.724792 5.912856 23.923616
v 189.595367 9.249535 20.492117
v 184.748550 7.629291 0.000011
v 146.182144 -26.001598 0.000011
v 152.735687 -22.945625 2.772858
v 151.775955 -23.393160 3.921397
v 149.458923 -24.473614 2.772848
v 147.141891 -25.554070 0.000011
v 146.352844 -29.911289 0.000012
v 155.620972 -25.589485 3.921403
v 154.263702 -26.222404 5.545694
v 150.986908 -27.750393 3.921410
v 147.710144 -29.278381 0.000012
v 149.238113 -32.555157 0.000013
v 155.791672 -29.499180 2.772864
v 154.831940 -29.946712 3.921415
v 152.514923 -31.027164 2.772841
v 150.197876 -32.107620 0.000013
v 153.147812 -32.384460 20.998676
v 156.535156 3.430944 21.087248
v 152.781158 8.303789 19.905888
v 159.515289 4.493810 25.495178
v 158.529388 2.088028 20.735838
v 154.940414 2.551568 22.683748
v 151.504822 5.144908 19.879133
v 157.813080 7.995400 25.814693
v 154.051102 9.220209 24.640360
v 162.296234 7.086112 23.769329
v 163.414215 2.918088 27.213049
v 153.756165 1.902224 28.019156
v 150.830307 5.828676 34.247532
v 161.631470 3.719865 39.741920
v 160.633850 -0.939930 39.699821
v 157.941971 0.484240 34.819515
v 154.543762 3.302006 24.308708
v 158.877899 -1.386800 33.221519
v 160.895813 -2.335306 32.706787
v 163.549530 0.867602 33.520374
v 160.094269 -0.532127 34.276337
v 156.293015 0.523101 14.760470
v 120.206886 -2.094325 4.584792
v 135.301010 27.430195 11.531674
v 167.663635 -0.588737 10.049726
v 166.443253 8.843386 8.381289
v 171.686752 3.982735 16.565937
v 167.463181 4.933048 12.744469
v 170.011765 -0.128903 11.262529
v 168.791412 9.303217 -8.316571
v 116.403801 -5.632993 -22.237955
v 134.596039 4.067173 -18.365810
v 124.612572 12.863455 -7.168499
v 169.338608 3.522901 -15.353140
v 165.115005 4.473206 -11.631433
v 164.055817 15.308139 -21.156237
v 133.536011 15.379064 -21.550747
v 142.481110 17.686899 -11.637188
v 131.989731 24.976727 -12.014382
v 152.010284 26.616623 -9.345100
v 116.058182 8.982829 -19.124826
v 125.276352 4.191863 -11.790053
v 123.139488 19.839161 -14.874212
v 120.077911 3.577967 -10.941262
v 119.278267 11.528017 -11.911140
v 141.835754 27.415825 -23.515245
v 151.893402 4.896898 -24.073341
v 143.009827 4.555518 -20.909849
v 151.982956 18.137045 -16.624100
v 136.784241 0.396276 -15.519053
v 127.665077 0.728744 -13.679901
v 122.576332 -6.735253 -9.042985
v 119.849075 -9.155340 -17.642805
v 134.766525 -6.799814 -17.735723
v 139.016983 -11.504883 -9.527087
v 165.353424 -6.967769 -11.960288
v 140.447784 -16.644564 -5.776382
v 152.429703 -22.942068 -10.399625
v 159.457611 -13.169434 -4.261817
v 118.304695 -10.496568 -4.921077
v 138.723450 -19.850878 -16.476795
v 128.094131 -6.279747 -17.522179
v 125.649117 -5.287138 -14.717387
v 121.373642 -6.433994 -9.601810
v 118.607414 -8.519041 -19.868179
v 134.931473 -5.758816 -4.515387
v 116.972549 -10.455097 -13.215305
v 143.893448 -16.764992 -18.607866
v 143.848862 -11.944439 -10.264541
v 151.321960 -20.408516 -20.679804
v 151.819748 -6.136165 -7.182306
v 154.731262 -17.290731 -10.736397
v 152.445984 -16.976421 -7.327574
v 140.030899 -13.890971 -13.995709
v 138.998749 -10.378536 -4.486067
v 120.939819 -1.157316 -10.775930
v 141.552399 -21.314522 -5.783414
v 141.381653 -24.565758 -15.843168
v 159.213867 -7.118874 -6.676101
v 147.357330 -25.252279 -11.597495
v 146.038391 -21.812925 -12.802659
v 148.837845 -16.993797 -16.650139
v 151.833771 -12.550112 -22.170692
v 143.556763 -5.482111 -8.723972
v 115.622971 -2.552744 -11.524521
v 116.840530 2.938393 -20.432877
v 159.616577 4.197786 -13.938457
v 164.521149 4.650990 -10.126495
v 166.309296 7.394212 -7.523919
v 167.621078 3.736588 -10.914585
v 166.403687 0.801326 -15.485402
v 168.054718 4.835503 -13.090810
v 171.901199 8.943317 -9.668825
v 172.597595 4.318539 -15.167068
v 171.978485 1.605593 -18.955729
v 171.671265 6.838223 -15.417320
v 177.913147 5.878197 -23.341938
v 174.132919 8.928597 -20.445827
v 177.088135 11.877782 -19.393999
v 180.043396 7.857466 -22.290115
v 177.088165 4.908287 -29.471651
v 179.681702 11.852573 -25.386957
v 182.062012 14.009897 -20.496172
v 188.416870 7.610085 -28.478153
v 182.061996 7.297502 -33.436592
v 188.489838 13.578239 -29.715124
v 189.769989 15.163336 -28.522171
v 191.050140 11.257822 -32.243645
v 189.769974 9.672734 -32.435459
v 191.741196 12.677999 -9.756243
v 179.204193 8.444944 -7.416467
v 176.965454 3.707437 -10.377395
v 179.241943 0.598857 -12.894144
v 181.738800 5.193618 -8.804852
v 181.076035 4.456989 -25.953903
v 187.514847 10.191614 -22.522398
v 182.668030 8.571368 -21.387606
v 186.724808 11.582932 -23.998798
v 186.724777 5.912848 -23.923626
v 189.595337 9.249523 -20.492126
v 184.748535 7.629278 -2.772835
v 151.775955 -23.393158 -3.921385
v 149.458923 -24.473608 -2.772826
v 147.141891 -25.554066 -3.921380
v 154.263702 -26.222412 -5.545684
v 150.986908 -27.750393 -3.921373
v 147.710129 -29.278383 -2.772825
v 154.831940 -29.946722 -3.921375
v 152.514908 -31.027166 -2.772832
v 150.197861 -32.107632 -20.998671
v 156.535095 3.430942 -21.087236
v 152.781143 8.303779 -19.905888
v 159.515289 4.493808 -25.495184
v 158.529343 2.088016 -20.735826
v 154.940399 2.551561 -22.683756
v 151.504761 5.144901 -19.879131
v 157.813019 7.995384 -25.814688
v 154.051056 9.220197 -24.640360
v 162.296234 7.086095 -23.769327
v 163.414185 2.918082 -27.213051
v 153.756104 1.902209 -28.019157
v 150.830292 5.828665 -34.247551
v 161.631424 3.719838 -39.741913
v 160.633774 -0.939956 -39.699825
v 157.941910 0.484224 -34.819511
v 154.543686 3.301990 -24.308706
v 158.877899 -1.386825 -33.221516
v 160.895752 -2.335328 -32.706791
v 163.549454 0.867590 -33.520378
v 160.094208 -0.532120 -34.276337
v 156.292938 0.523071 -14.760468
v 120.206871 -2.094336 -4.584821
v 135.300995 27.430191 -11.531676
v 167.663589 -0.588739 -10.049744
v 166.443253 8.843384 -8.381296
v 171.686737 3.982728 -16.565937
v 167.463181 4.933042 -12.744477
v 170.011765 -0.128909 -11.262540
v 168.791412 9.303215 14.874209
v 120.077980 3.577976 19.124828
v 125.276398 4.191862 15.353130
v 165.115051 4.473218 22.237961
v 134.596100 4.067180 24.073341
v 143.009857 4.555528 23.515244
v 151.893448 4.896909 7.168488
v 169.338638 3.522903 -0.000004
v 170.416367 3.402704 20.432875
v 159.616577 4.197791 11.524519
v 116.840546 2.938398 -0.000001
v 116.348953 2.296381 25.495178
v 158.529388 2.088028 33.520374
v 160.094269 -0.532127 20.998676
v 156.535156 3.430944 20.735838
v 154.940414 2.551568 16.565937
v 167.463181 4.933048 8.381289
v 171.686752 3.982735 -14.874212
v 120.077911 3.577967 -0.000010
v 122.451836 21.068802 -0.000013
v 131.211548 27.439178 -0.000006
v 115.306961 14.366355 -0.000006
v 118.208191 16.676552 -0.000015
v 151.950684 29.012333 -0.000013
v 164.051590 22.558052 -0.000011
v 167.842819 13.809649 -0.000004
v 170.416367 3.402704 -0.000013
v 141.463165 29.709759 -19.124826
v 125.276352 4.191863 0.000004
v 165.900116 -9.067108 -0.000000
v 160.261826 -15.756487 0.000002
v 115.022453 -9.656205 0.000002
v 116.254120 -11.568734 0.000008
v 139.465775 -20.237522 0.000002
v 119.691444 -3.754591 0.000003
v 117.828003 -11.838327 0.000010
v 141.978210 -25.072746 0.000011
v 155.565796 -17.664377 -15.353140
v 165.115005 4.473206 -22.237955
v 134.596039 4.067173 -24.073341
v 143.009827 4.555518 -23.515245
v 151.893402 4.896898 -7.168499
v 169.338608 3.522901 -0.000004
v 170.416367 3.402704 0.000011
v 152.592865 -24.136398 -20.432877
v 159.616577 4.197786 0.000008
v 140.695419 -15.336710 0.000011
v 146.980301 -26.862469 0.000001
v 114.223755 -6.488765 -11.524521
v 116.840530 2.938393 -0.000001
v 116.348953 2.296381 -0.000001
v 116.348953 2.296381 0.000011
v 152.735687 -22.945625 0.000012
v 155.620972 -25.589485 0.000011
v 146.352844 -29.911289 0.000011
v 146.182144 -26.001598 0.000013
v 155.791672 -29.499180 0.000012
v 149.238113 -32.555157 0.000013
v 153.147812 -32.384460 -25.495184
v 158.529343 2.088016 -33.520378
v 160.094208 -0.532120 -20.998671
v 156.535095 3.430942 -20.735826
v 154.940399 2.551561 -16.565937
v 167.463181 4.933042 -8.381296
v 171.686737 3.982728 0.082525

vt 0.160757 0.205265
vt 0.088628 0.126563
vt 0.135309 0.364417
vt 0.552366 0.343289
vt 0.418768 0.286511
vt 0.497568 0.169369
vt 0.200693 0.203234
vt 0.274239 0.112570
vt 0.313324 0.193740
vt 0.458196 0.058193
vt 0.079761 0.145504
vt 0.043830 0.087455
vt 0.214582 0.839794
vt 0.044836 0.074106
vt 0.113949 0.149298
vt 0.394350 0.688288
vt 0.655214 0.296114
vt 0.243888 0.253324
vt 0.154855 0.364517
vt 0.639992 0.237797
vt 0.349660 0.762077
vt 0.437513 0.812756
vt 0.376871 0.054960
vt 0.396345 0.299817
vt 0.642161 0.024657
vt 0.272238 0.239406
vt 0.638430 0.005007
vt 0.151091 0.157390
vt 0.578107 0.012241
vt 0.194924 0.100307
vt 0.499771 0.849566
vt 0.243619 0.903897
vt 0.239934 0.727241
vt 0.309387 0.669053
vt 0.340772 0.431790
vt 0.246095 0.647052
vt 0.473343 0.515107
vt 0.546598 0.480754
vt 0.345487 0.949671
vt 0.252109 0.640726
vt 0.600747 0.789233
vt 0.263650 0.805345
vt 0.219904 0.851059
vt 0.213348 0.904532
vt 0.218750 0.720289
vt 0.254479 0.952080
vt 0.232582 0.609587
vt 0.426590 0.627017
vt 0.319747 0.536936
vt 0.472343 0.647571
vt 0.680173 0.597990
vt 0.692498 0.490276
vt 0.634519 0.992120
vt 0.207382 0.987385
vt 0.268899 0.415212
vt 0.468204 0.375546
vt 0.361697 0.991155
vt 0.244510 0.575421
vt 0.200019 0.492813
vt 0.451418 0.445974
vt 0.535804 0.531398
vt 0.414809 0.681436
vt 0.527991 0.688492
vt 0.388568 0.911518
vt 0.388376 0.954132
vt 0.386777 0.610833
vt 0.511000 0.599652
vt 0.613107 0.502905
vt 0.221105 0.543969
vt 0.692479 0.555856
vt 0.583072 0.578716
vt 0.495728 0.565841
vt 0.413309 0.560785
vt 0.314634 0.643823
vt 0.206380 0.912542
vt 0.109856 0.990340
vt 0.153278 0.880054
vt 0.042463 0.001645
vt 0.006655 0.329019
vt 0.331254 0.081844
vt 0.577977 0.040320
vt 0.655470 0.002778
vt 0.717967 0.040320
vt 0.655470 0.106763
vt 0.636447 0.094479
vt 0.753653 0.031373
vt 0.804445 0.094479
vt 0.753653 0.149348
vt 0.680388 0.142793
vt 0.880246 0.200736
vt 0.683451 0.192456
vt 0.780703 0.193026
vt 0.883164 0.192456
vt 0.780703 0.283552
vt 0.681856 0.278450
vt 0.786898 0.281601
vt 0.996813 0.278450
vt 0.786898 0.377265
vt 0.707978 0.365054
vt 0.781146 0.375534
vt 0.858453 0.365054
vt 0.781146 0.397822
vt 0.775291 0.075998
vt 0.915778 0.032410
vt 0.919492 0.075998
vt 0.915778 0.118788
vt 0.979445 0.068457
vt 0.994994 0.328088
vt 0.888975 0.236270
vt 0.885614 0.283814
vt 0.915008 0.283814
vt 0.915008 0.320814
vt 0.956559 0.246404
vt 0.954506 0.610632
vt 0.770719 0.427920
vt 0.773790 0.468427
vt 0.752237 0.518955
vt 0.738351 0.569689
vt 0.750421 0.602783
vt 0.865376 0.435953
vt 0.867828 0.478669
vt 0.834809 0.519255
vt 0.818519 0.559953
vt 0.833393 0.575151
vt 0.959202 0.463874
vt 0.961010 0.489608
vt 0.912100 0.519482
vt 0.898203 0.549350
vt 0.911140 0.519637
vt 0.991173 0.968202
vt 0.439054 0.792497
vt 0.535225 0.724777
vt 0.763151 0.992412
vt 0.559068 0.932524
vt 0.430303 0.871002
vt 0.495457 0.743971
vt 0.619641 0.828538
vt 0.627539 0.788645
vt 0.744117 0.774359
vt 0.803667 0.934456
vt 0.577135 0.884592
vt 0.596080 0.881598
vt 0.834305 0.946540
vt 0.932745 0.946521
vt 0.875573 0.926745
vt 0.741987 0.758299
vt 0.892588 0.853504
vt 0.953185 0.857443
vt 0.913403 0.998234
vt 0.779469 0.956469
vt 0.751038 0.849624
vt 0.137352 0.091273
vt 0.395577 0.415134
vt 0.134336 0.328323
vt 0.508889 0.361133
vt 0.077915 0.429768
vt 0.008460 0.408737
vt 0.102735 0.346024
vt 0.500507 0.917475
vt 0.160757 0.205265
vt 0.088628 0.126563
vt 0.135309 0.364417
vt 0.552366 0.343289
vt 0.418768 0.286511
vt 0.497568 0.169369
vt 0.200693 0.203234
vt 0.274239 0.112570
vt 0.313324 0.193740
vt 0.458196 0.058193
vt 0.079761 0.145504
vt 0.043830 0.087455
vt 0.214582 0.839794
vt 0.044836 0.074106
vt 0.113949 0.149298
vt 0.394350 0.296114
vt 0.243888 0.253324
vt 0.154855 0.237797
vt 0.349660 0.762077
vt 0.437513 0.812756
vt 0.376871 0.849566
vt 0.243619 0.903897
vt 0.239934 0.727241
vt 0.309387 0.669053
vt 0.340772 0.431790
vt 0.246095 0.647052
vt 0.473343 0.515107
vt 0.546598 0.480754
vt 0.345487 0.949671
vt 0.252109 0.640726
vt 0.600747 0.789233
vt 0.263650 0.805345
vt 0.219904 0.851059
vt 0.213348 0.904532
vt 0.218750 0.720289
vt 0.254479 0.952080
vt 0.232582 0.609587
vt 0.426590 0.627017
vt 0.319747 0.536936
vt 0.472343 0.575421
vt 0.200019 0.492813
vt 0.451418 0.531398
vt 0.414809 0.681436
vt 0.527991 0.688492
vt 0.388568 0.911518
vt 0.388376 0.610833
vt 0.511000 0.599652
vt 0.613107 0.502905
vt 0.221105 0.555856
vt 0.583072 0.578716
vt 0.495728 0.565841
vt 0.413309 0.560785
vt 0.314634 0.643823
vt 0.206380 0.912542
vt 0.109856 0.880054
vt 0.042463 0.329019
vt 0.331254 0.081844
vt 0.577977 0.040320
vt 0.655470 0.002778
vt 0.717967 0.040320
vt 0.655470 0.106763
vt 0.636447 0.094479
vt 0.753653 0.031373
vt 0.804445 0.094479
vt 0.753653 0.149348
vt 0.680388 0.142793
vt 0.880246 0.200736
vt 0.683451 0.192456
vt 0.780703 0.193026
vt 0.883164 0.192456
vt 0.780703 0.283552
vt 0.681856 0.278450
vt 0.786898 0.281601
vt 0.996813 0.278450
vt 0.786898 0.377265
vt 0.707978 0.365054
vt 0.781146 0.375534
vt 0.858453 0.365054
vt 0.781146 0.397822
vt 0.775291 0.075998
vt 0.915778 0.032410
vt 0.919492 0.075998
vt 0.915778 0.118788
vt 0.979445 0.068457
vt 0.994994 0.328088
vt 0.888975 0.236270
vt 0.885614 0.283814
vt 0.915008 0.283814
vt 0.915008 0.320814
vt 0.956559 0.246404
vt 0.954506 0.468427
vt 0.752237 0.518955
vt 0.738351 0.569689
vt 0.750421 0.478669
vt 0.834809 0.519255
vt 0.818519 0.559953
vt 0.833393 0.489608
vt 0.912100 0.519482
vt 0.898203 0.549350
vt 0.911140 0.968202
vt 0.439054 0.792497
vt 0.535225 0.724777
vt 0.763151 0.992412
vt 0.559068 0.932524
vt 0.430303 0.871002
vt 0.495457 0.743971
vt 0.619641 0.828538
vt 0.627539 0.788645
vt 0.744117 0.774359
vt 0.803667 0.934456
vt 0.577135 0.884592
vt 0.596080 0.881598
vt 0.834305 0.946540
vt 0.932745 0.946521
vt 0.875573 0.926745
vt 0.741987 0.758299
vt 0.892588 0.853504
vt 0.953185 0.857443
vt 0.913403 0.998234
vt 0.779469 0.956469
vt 0.751038 0.849624
vt 0.137352 0.091273
vt 0.395577 0.415134
vt 0.134336 0.328323
vt 0.508889 0.361133
vt 0.077915 0.429768
vt 0.008460 0.408737
vt 0.102735 0.346024
vt 0.500507 0.101480
vt 0.020179 0.787399
vt 0.045001 0.448247
vt 0.044680 0.718981
vt 0.045007 0.652927
vt 0.044767 0.586376
vt 0.044682 0.359352
vt 0.134149 0.314362
vt 0.201023 0.515034
vt 0.044653 0.071782
vt 0.009518 0.981148
vt 0.042243 0.755338
vt 0.975078 0.863088
vt 0.997678 0.694008
vt 0.938456 0.693010
vt 0.868116 0.357899
vt 0.423577 0.374794
vt 0.529848 0.101480
vt 0.020179 0.024657
vt 0.272238 0.054960
vt 0.396345 0.005007
vt 0.151091 0.012241
vt 0.194924 0.157390
vt 0.578107 0.239406
vt 0.638430 0.299817
vt 0.642161 0.364517
vt 0.639992 0.100307
vt 0.499771 0.787399
vt 0.045001 0.375546
vt 0.361697 0.415212
vt 0.468204 0.992120
vt 0.207382 0.991155
vt 0.244510 0.647571
vt 0.680173 0.954132
vt 0.386777 0.987385
vt 0.268899 0.597990
vt 0.692498 0.445974
vt 0.535804 0.448247
vt 0.044680 0.718981
vt 0.045007 0.652927
vt 0.044767 0.586376
vt 0.044682 0.359352
vt 0.134149 0.314362
vt 0.201023 0.490276
vt 0.634519 0.515034
vt 0.044653 0.688288
vt 0.655214 0.543969
vt 0.692479 0.990340
vt 0.153278 0.071782
vt 0.009518 0.001645
vt 0.006655 0.981148
vt 0.042243 0.427920
vt 0.773790 0.435953
vt 0.867828 0.602783
vt 0.865376 0.610632
vt 0.770719 0.463874
vt 0.961010 0.575151
vt 0.959202 0.519637
vt 0.991173 0.755338
vt 0.975078 0.863088
vt 0.997678 0.694008
vt 0.938456 0.693010
vt 0.868116 0.357899
vt 0.423577 0.374794
vt 0.529848 1.000000

f 81/81 85/85 86/86
f 81/81 86/86 82/82
f 82/82 86/86 87/87
f 82/82 87/87 83/83
f 83/83 87/87 88/88
f 83/83 88/88 84/84
f 84/84 88/88 85/85
f 84/84 85/85 81/81
f 85/85 89/89 86/86
f 104/104 108/108 105/105
f 105/105 108/108 106/106
f 88/88 89/89 85/85
f 89/89 91/91 92/92
f 89/89 92/92 86/86
f 86/86 92/92 93/93
f 86/86 93/93 90/90
f 90/90 93/93 94/94
f 90/90 94/94 88/88
f 88/88 94/94 91/91
f 88/88 91/91 89/89
f 91/91 95/95 96/96
f 91/91 96/96 92/92
f 92/92 96/96 110/110
f 92/92 110/110 93/93
f 93/93 110/110 94/94
f 110/110 98/98 94/94
f 94/94 98/98 95/95
f 94/94 95/95 91/91
f 95/95 99/99 100/100
f 95/95 100/100 96/96
f 96/96 100/100 109/109
f 111/111 113/113 97/97
f 97/97 113/113 112/112
f 109/109 102/102 98/98
f 98/98 102/102 99/99
f 98/98 99/99 95/95
f 104/104 105/105 87/87
f 87/87 86/86 104/104
f 87/87 106/106 88/88
f 106/106 87/87 105/105
f 90/90 104/104 86/86
f 104/104 90/90 107/107
f 106/106 107/107 90/90
f 90/90 88/88 106/106
f 108/108 107/107 106/106
f 104/104 107/107 108/108
f 109/109 101/101 102/102
f 100/100 101/101 109/109
f 114/114 97/97 112/112
f 111/111 97/97 114/114
f 111/111 114/114 110/110
f 110/110 96/96 111/111
f 110/110 112/112 98/98
f 112/112 110/110 114/114
f 109/109 111/111 96/96
f 111/111 109/109 113/113
f 112/112 113/113 109/109
f 109/109 98/98 112/112
f 217/217 222/222 221/221
f 217/217 218/218 222/222
f 218/218 223/223 222/222
f 218/218 219/219 223/223
f 219/219 224/224 223/223
f 219/219 220/220 224/224
f 220/220 221/221 224/224
f 220/220 217/217 221/221
f 221/221 222/222 225/225
f 240/240 241/241 244/244
f 241/241 242/242 244/244
f 224/224 221/221 225/225
f 225/225 228/228 227/227
f 225/225 222/222 228/228
f 222/222 229/229 228/228
f 222/222 226/226 229/229
f 226/226 230/230 229/229
f 226/226 224/224 230/230
f 224/224 227/227 230/230
f 224/224 225/225 227/227
f 227/227 232/232 231/231
f 227/227 228/228 232/232
f 228/228 246/246 232/232
f 228/228 229/229 246/246
f 229/229 230/230 246/246
f 246/246 230/230 234/234
f 230/230 231/231 234/234
f 230/230 227/227 231/231
f 231/231 236/236 235/235
f 231/231 232/232 236/236
f 232/232 245/245 236/236
f 247/247 233/233 249/249
f 233/233 248/248 249/249
f 245/245 234/234 238/238
f 234/234 235/235 238/238
f 234/234 231/231 235/235
f 240/240 223/223 241/241
f 223/223 240/240 222/222
f 223/223 224/224 242/242
f 242/242 241/241 223/223
f 226/226 222/222 240/240
f 240/240 243/243 226/226
f 242/242 226/226 243/243
f 226/226 242/242 224/224
f 244/244 242/242 243/243
f 240/240 244/244 243/243
f 245/245 238/238 237/237
f 236/236 245/245 237/237
f 250/250 248/248 233/233
f 247/247 250/250 233/233
f 247/247 246/246 250/250
f 246/246 247/247 232/232
f 246/246 234/234 248/248
f 248/248 250/250 246/246
f 245/245 232/232 247/247
f 247/247 249/249 245/245
f 248/248 245/245 249/249
f 245/245 248/248 234/234
f 122/122 121/121 123/123
f 123/123 122/122 124/124
f 124/124 123/123 120/120
f 120/120 124/124 127/127
f 127/127 126/126 128/128
f 128/128 127/127 129/129
f 129/129 128/128 125/125
f 125/125 129/129 130/130
f 126/126 127/127 130/130
f 127/127 128/128 130/130
f 128/128 129/129 130/130
f 129/129 125/125 254/254
f 341/341 254/254 255/255
f 254/254 255/255 256/256
f 255/255 256/256 342/342
f 256/256 342/342 257/257
f 344/344 257/257 258/258
f 257/257 258/258 259/259
f 258/258 259/259 345/345
f 259/259 345/345 346/346
f 257/257 344/344 346/346
f 258/258 257/257 346/346
f 259/259 258/258 346/346
