# MOD converted: e_w_costume_trump_body.mod
# 560 verts, 514 faces

v 116.124001 3.936410 4.911951
v 114.165993 -0.780687 4.543381
v 109.370003 -6.090279 -0.000000
v 113.183998 -3.294350 5.009029
v 122.611000 2.854039 4.507280
v 120.602997 -1.682558 6.784653
v 95.897804 -7.409329 7.257482
v 98.432594 -11.505600 3.894563
v 101.459999 -14.049098 4.068709
v 104.809982 -12.538997 3.804388
v 96.025902 -10.015999 3.943290
v 98.509003 -12.976000 9.453911
v 64.947403 -20.464363 8.197651
v 74.293503 -17.059563 10.695499
v 55.350899 -22.987045 12.071699
v 42.560741 -25.828102 10.965401
v 83.618690 -9.638228 16.025200
v 74.532600 -13.203262 23.928799
v 55.808197 -17.424341 20.329601
v 65.354004 -15.731258 24.979885
v 43.005638 -22.609974 6.372162
v 83.407310 -12.026602 7.068285
v 90.163284 -7.474788 4.502923
v 89.909599 -9.642919 9.891299
v 96.598785 -0.766617 11.889301
v 102.045990 -7.798169 5.282901
v 103.116997 8.724502 11.139098
v 98.736191 -7.594450 9.258469
v 76.018890 16.006199 7.111939
v 84.225304 10.794900 16.435505
v 84.146805 0.215399 13.271299
v 84.234299 7.447658 8.041319
v 90.786385 3.543060 9.952670
v 90.654388 -0.895705 14.698498
v 83.942192 -6.156140 10.965398
v 83.618690 -10.405997 23.273399
v 75.374298 1.269053 4.621900
v 90.854797 5.373950 14.755299
v 74.614700 -15.730762 20.555201
v 75.021301 -9.407663 17.541800
v 75.679703 10.671698 20.420601
v 55.808205 -22.134743 17.874302
v 65.353996 -19.460958 13.304899
v 56.005196 24.461800 11.581199
v 65.823593 20.760300 28.631172
v 56.433701 -13.139753 25.078417
v 65.787102 -11.717276 32.877075
v 56.763710 2.972529 24.615498
v 56.344101 15.591896 21.390198
v 66.016296 13.597198 28.834702
v 66.033401 2.338314 8.488308
v 96.937386 3.827200 4.684060
v 97.183403 5.633730 5.788879
v 109.337807 9.585963 11.551100
v 114.108719 3.460620 11.395599
v 103.302223 -0.724945 10.387200
v 103.503777 7.054562 10.485600
v 106.586807 -6.769874 24.200085
v 37.189484 -26.113770 17.069233
v 36.628395 29.402729 34.502239
v 38.426895 -16.009274 40.585201
v 38.898087 4.392099 30.423485
v 37.713985 19.131184 10.951674
v 114.364243 -0.857225 10.609446
v 116.097290 3.379823 7.556841
v 112.717651 -0.289915 10.436047
v 111.459503 -4.877209 7.521919
v 109.417061 -4.370214 9.001727
v 108.203995 -8.594547 9.604403
v 116.888123 6.751060 5.928582
v 115.357056 6.785380 6.780251
v 117.248962 9.752717 7.662960
v 114.510216 3.647300 7.666679
v 114.509193 3.647214 5.318480
v 65.484085 22.391098 9.919969
v 55.991688 25.478098 7.378455
v 101.816994 -12.561198 7.368192
v 105.169983 -11.149397 5.928989
v 115.356911 6.784750 7.521919
v 109.417213 -4.220365 6.201111
v 114.136421 7.871338 13.895100
v 102.701393 7.512173 15.730301
v 112.035286 -1.839383 16.044998
v 113.112343 3.167578 16.052299
v 111.976936 8.535801 13.617602
v 102.440147 -0.605474 14.929598
v 107.845924 -4.085544 14.981899
v 107.766762 11.140591 23.599224
v 97.187294 7.611693 23.797121
v 97.364716 -1.161996 28.493782
v 110.406013 -1.724125 26.764601
v 98.904297 5.101948 29.858606
v 107.094978 5.623072 29.287203
v 102.676979 7.497859 27.341404
v 103.581970 7.714561 28.231995
v 103.086998 -2.074250 26.838099
v 99.018311 0.370679 28.580223
v 110.205986 8.128615 25.668158
v 104.178871 9.791533 26.089760
v 104.094315 -4.450458 45.711205
v 100.089996 5.049097 45.439201
v 100.274994 -0.862270 43.801407
v 96.407425 -2.744951 42.422798
v 92.722603 4.653464 44.161880
v 96.529343 6.713484 42.148598
v 92.630402 -0.150556 29.950499
v 107.145012 -0.253948 29.060595
v 97.643250 -0.085646 30.943384
v 101.970650 -2.636760 32.766693
v 106.126656 -0.597509 32.915001
v 106.188622 5.539133 30.962097
v 102.129623 7.766859 28.922194
v 97.685318 5.196567 37.772606
v 94.328094 4.905116 39.680695
v 98.420189 7.198411 39.591656
v 98.229210 -2.696459 37.732994
v 94.243301 -0.120766 41.441109
v 102.194992 5.273324 41.429596
v 102.170998 -0.746991 48.092098
v 101.053001 6.215089 48.016800
v 100.912003 -2.263031 46.039200
v 96.909798 -6.758751 43.313797
v 90.213203 5.662513 46.060108
v 95.708824 9.632019 42.809898
v 89.500290 -2.479677 44.508064
v 93.046402 -7.637110 22.702801
v 112.073654 3.066572 22.167229
v 110.565025 -3.145909 22.445801
v 110.507233 9.643846 20.664572
v 106.113152 12.441884 18.384912
v 99.740601 8.357552 20.540615
v 106.345070 -6.038361 18.190588
v 99.470581 -1.746419 10.821498
v 109.275536 9.257194 11.711100
v 112.534065 -0.600084 11.221298
v 109.352295 -2.919909 11.141691
v 113.877937 7.200861 0.000000
v 89.858490 -10.437300 0.000000
v 98.440529 -12.641399 7.368192
v 105.169983 -11.149397 14.867549
v 112.761536 -0.600482 14.546502
v 115.117851 4.053514 14.056852
v 110.435371 -4.366156 10.823212
v 106.819885 -8.533654 12.622261
v 116.099121 8.362125 6.780251
v 116.558472 13.250246 0.000001
v 116.165375 15.262552 6.201111
v 114.136421 7.871338 6.201110
v 114.136421 7.871339 7.666679
v 114.509193 3.647214 7.556841
v 112.717651 -0.289915 7.521921
v 109.417213 -4.220364 7.368192
v 105.169983 -11.149397 -0.000000
v 115.446007 7.388866 0.000001
v 119.353996 -4.180040 15.867920
v 42.311836 26.576065 -0.000002
v 41.863647 27.634665 10.401700
v 75.881599 14.676200 12.724400
v 65.562500 19.227100 14.448101
v 55.867996 23.005699 0.000000
v 55.814899 24.763399 -0.000001
v 76.051399 17.396702 7.666679
v 114.509193 3.647214 0.000000
v 104.589989 -12.730998 0.000000
v 83.260101 -13.016300 -0.000000
v 64.879395 -21.990555 0.000000
v 96.144127 -10.784799 -0.000000
v 97.235588 6.958278 -0.000000
v 102.998001 9.238221 -5.928989
v 115.356911 6.784750 -0.000000
v 116.814003 6.286480 -7.662959
v 114.509583 3.650679 -6.201110
v 114.136421 7.871340 0.000000
v 114.203148 8.121224 -5.009031
v 122.610985 2.854041 -4.507280
v 120.602997 -1.682559 -4.911949
v 114.165993 -0.780687 -5.190430
v 116.124001 3.936410 -0.000001
v 123.522003 5.340420 -7.368185
v 105.169983 -11.149400 -4.543382
v 109.370003 -6.090279 -4.068708
v 104.809982 -12.538997 -0.000000
v 108.883987 -7.024361 -7.556839
v 112.720070 -0.287884 -7.521920
v 109.424004 -4.220870 -7.378448
v 101.816994 -12.561204 -3.894562
v 101.459999 -14.049096 -10.965399
v 83.618690 -9.638228 -7.068284
v 90.163284 -7.474789 -4.502922
v 89.909599 -9.642919 -6.372160
v 83.407310 -12.026602 -20.329599
v 65.354004 -15.731260 -9.453911
v 64.947403 -20.464359 -10.695501
v 55.350899 -22.987041 -23.928801
v 55.808201 -17.424343 -16.025200
v 74.532600 -13.203264 -8.197651
v 74.293503 -17.059566 -12.071698
v 42.560741 -25.828106 -24.979887
v 43.005638 -22.609978 -0.000001
v 74.032600 -18.253063 -0.000001
v 55.177101 -24.601044 -0.000001
v 42.186134 -27.867500 -3.943290
v 98.509003 -12.976000 -3.804387
v 96.025902 -10.015999 -7.257481
v 98.432594 -11.505600 0.000000
v 101.303001 -13.544299 -6.784652
v 95.897804 -7.409330 -0.000000
v 84.205399 12.481400 -7.111939
v 84.225304 10.794900 -9.258469
v 76.018898 16.006199 0.000000
v 76.188698 17.461201 -0.000000
v 90.899597 5.818110 -4.621900
v 90.854797 5.373950 -7.666681
v 114.508583 3.650592 -11.711100
v 112.538071 -0.596181 -11.551098
v 114.108002 3.466223 -11.221298
v 109.359001 -2.919650 -10.485601
v 106.598000 -6.772860 -40.585205
v 38.898087 4.392099 -30.423489
v 37.713989 19.131187 -24.615501
v 56.344101 15.591900 -32.877068
v 56.763718 2.972531 -17.069233
v 36.628395 29.402725 -9.919967
v 55.991688 25.478094 -13.304899
v 56.005196 24.461800 -10.951673
v 114.368546 -0.851491 -10.609447
v 116.096886 3.384877 -10.436044
v 111.468491 -4.874819 -7.521919
v 109.424004 -4.370719 -9.001727
v 108.214989 -8.595851 -7.368185
v 105.169983 -11.149400 -9.604404
v 116.888123 6.751057 -5.928581
v 115.357056 6.785380 -11.141690
v 113.872864 7.206104 -10.821493
v 109.269531 9.257250 -5.788881
v 109.332558 9.585200 0.000001
v 109.361557 10.131800 -11.581200
v 65.823601 20.760300 -5.318480
v 65.484108 22.391098 -10.387198
v 103.497993 7.046999 -11.395599
v 103.305000 -0.729208 -9.891299
v 96.598785 -0.766617 -8.488308
v 96.937386 3.827201 -5.282899
v 103.116997 8.724502 -11.139098
v 98.736191 -7.594450 -11.889297
v 102.045990 -7.798172 -8.041320
v 90.786385 3.543060 -9.952670
v 90.654388 -0.895705 -16.435505
v 84.146805 0.215400 -13.271298
v 84.234299 7.447659 -10.965398
v 83.618690 -10.405997 -14.698499
v 83.942192 -6.156139 -14.755300
v 74.614700 -15.730765 -20.555201
v 75.021301 -9.407664 -23.273399
v 75.374298 1.269053 -17.541800
v 75.679703 10.671700 -25.078423
v 65.787094 -11.717279 -17.874302
v 65.353989 -19.460958 -20.420601
v 55.808201 -22.134743 -28.631172
v 56.433701 -13.139751 -21.390200
v 66.016296 13.597198 -28.834702
v 66.033401 2.338315 -24.200087
v 37.189484 -26.113768 -34.502239
v 38.426895 -16.009275 -4.684060
v 97.183403 5.633730 -6.780250
v 117.248962 9.752718 -0.000000
v 117.357735 11.645447 -13.617599
v 102.442467 -0.608376 -13.895099
v 102.694984 7.504619 -15.730299
v 112.040009 -1.835589 -16.045000
v 113.112000 3.172475 -14.929600
v 107.853996 -4.086012 -16.052299
v 111.976997 8.535760 -14.981899
v 107.758011 11.140097 -22.702801
v 112.073654 3.066503 -28.580223
v 110.206039 8.128556 -22.445805
v 110.507309 9.643791 -22.167231
v 110.564964 -3.145962 -20.664581
v 106.113266 12.441881 -18.190590
v 99.470520 -1.746347 -18.384914
v 99.740662 8.357616 -23.599224
v 97.187340 7.611753 -23.797125
v 97.364685 -1.161949 -20.540615
v 106.344971 -6.038364 -26.089766
v 104.094254 -4.450461 -28.493780
v 110.405968 -1.724180 -25.668156
v 104.178917 9.791531 -29.858601
v 107.095001 5.623069 -29.950500
v 107.145012 -0.253954 -48.092094
v 101.053001 6.215090 -46.060101
v 95.708794 9.632020 -44.161880
v 96.529358 6.713484 -45.711205
v 100.089996 5.049100 -43.801399
v 96.407410 -2.744950 -46.039200
v 96.909782 -6.758748 -48.016792
v 100.912003 -2.263030 -45.439201
v 100.275002 -0.862267 -43.313801
v 90.213203 5.662508 -42.422798
v 92.722595 4.653459 -42.809898
v 89.500298 -2.479680 -42.148598
v 92.630402 -0.150559 -44.508057
v 93.046402 -7.637108 -26.764601
v 98.904297 5.101949 -26.838100
v 99.018311 0.370683 -27.341400
v 103.582001 7.714560 -29.287201
v 102.677002 7.497859 -28.232000
v 103.086998 -2.074249 -39.680702
v 98.420197 7.198411 -37.772598
v 94.328094 4.905109 -28.922194
v 97.685318 5.196568 -30.962088
v 102.129623 7.766859 -32.914993
v 106.188622 5.539129 -32.766697
v 106.126640 -0.597517 -37.733002
v 94.243301 -0.120774 -39.591717
v 98.229340 -2.696460 -30.943396
v 101.970642 -2.636759 -41.441101
v 102.194992 5.273329 -41.429600
v 102.170998 -0.746985 -29.060602
v 97.643234 -0.085642 -14.867547
v 112.765015 -0.596182 -14.546499
v 115.116631 4.060005 -14.056851
v 110.443771 -4.363977 -10.823210
v 106.819901 -8.533654 -12.622261
v 116.092690 8.370203 -6.780250
v 116.558472 13.250248 -6.201110
v 114.136421 7.871340 -7.666681
v 114.508583 3.650592 -6.201110
v 114.136421 7.871340 -7.666681
v 114.508583 3.650592 -7.556839
v 112.720070 -0.287884 -7.521921
v 109.424004 -4.220870 -7.368185
v 105.169983 -11.149400 -14.448100
v 55.867996 23.005699 -0.000000
v 65.585602 21.553001 -12.724400
v 65.562500 19.227100 -15.867920
v 42.311840 26.576067 -10.401699
v 75.881599 14.676198 14.233092
v 63.132835 -6.186736 15.112394
v 76.704041 1.027992 12.607262
v 76.273643 -5.671053 16.140923
v 62.700161 1.740330 6.430990
v 76.118073 -7.202666 8.747063
v 62.508366 -8.788691 4.464643
v 62.408566 8.054869 3.029535
v 71.394226 7.963922 9.423862
v 71.900932 8.228542 11.072762
v 62.782257 7.924245 13.765052
v 76.788963 5.236475 3.474946
v 61.726227 -5.908008 2.369303
v 73.244926 -5.341067 2.159921
v 61.280910 1.097811 1.399024
v 72.330269 0.660657 5.401647
v 48.626652 -5.419726 10.417274
v 49.148857 -8.177647 6.661770
v 47.698761 7.601025 4.359818
v 47.438431 1.563496 16.549557
v 48.440296 2.114961 12.545300
v 48.163593 7.455453 15.093554
v 49.649269 -4.881310 4.742962
v 44.632038 1.578636 5.990632
v 45.315491 -4.985736 15.153864
v 46.414452 -4.123195 12.758632
v 46.454235 7.492746 6.861614
v 45.820972 7.658535 10.818363
v 45.767670 -7.772724 16.720894
v 45.860188 2.165933 14.219836
v 35.915600 9.240408 18.350880
v 35.615799 3.077838 11.149662
v 42.376022 -6.217437 6.677555
v 42.599064 -4.381607 15.486494
v 43.367317 -3.694324 9.189454
v 20.484240 -4.618865 4.838353
v 34.113754 2.656087 6.671232
v 20.483200 3.588795 7.627400
v 35.582226 9.489628 17.271473
v 20.485161 -4.281383 19.047159
v 20.485785 4.294419 15.818363
v 20.485006 9.062576 8.996692
v 20.483438 8.895569 7.706335
v 77.131119 8.623879 12.866687
v 83.251350 0.072423 11.139962
v 83.247688 -6.198661 4.991354
v 83.247498 -8.554761 11.979162
v 83.250114 5.058640 5.364108
v 83.248146 8.756001 -0.000000
v 77.275566 9.563898 0.000000
v 72.260323 0.610912 0.000000
v 83.246864 -10.546166 -14.233092
v 63.132832 -6.186737 -15.112394
v 76.704041 1.027996 -12.607263
v 76.273643 -5.671052 -16.140923
v 62.700161 1.740329 -6.430988
v 76.118065 -7.202671 -8.747063
v 62.508366 -8.788694 -4.464643
v 62.408569 8.054870 -3.029536
v 71.394226 7.963922 -9.423862
v 71.900932 8.228542 -11.072762
v 62.782246 7.924248 -13.765052
v 76.788963 5.236474 -3.474947
v 61.726223 -5.908011 -2.369297
v 73.244926 -5.341071 -2.159922
v 61.280899 1.097816 -1.399024
v 72.330269 0.660661 -5.401649
v 48.626652 -5.419728 -10.417274
v 49.148861 -8.177649 -6.661770
v 47.698772 7.601026 -4.359818
v 47.438435 1.563499 -16.549557
v 48.440296 2.114963 -12.545300
v 48.163593 7.455453 -15.093552
v 49.649269 -4.881310 -4.742961
v 44.632038 1.578640 -5.990633
v 45.315491 -4.985736 -15.153864
v 46.414459 -4.123193 -12.758632
v 46.454235 7.492746 -6.861614
v 45.820972 7.658537 -10.818362
v 45.767662 -7.772725 -16.720890
v 45.860188 2.165935 -14.219836
v 35.915600 9.240408 -18.350880
v 35.615799 3.077842 -11.149665
v 42.376026 -6.217437 -6.677556
v 42.599064 -4.381607 -15.486494
v 43.367310 -3.694322 -9.189458
v 20.484245 -4.618864 -4.838354
v 34.113754 2.656091 -6.671235
v 20.483210 3.588797 -7.627402
v 35.582222 9.489626 -17.271477
v 20.485161 -4.281384 -19.047165
v 20.485783 4.294421 -15.818366
v 20.485012 9.062576 -8.996694
v 20.483444 8.895569 -7.706334
v 77.131119 8.623880 0.000000
v 72.947540 -5.055017 -12.866687
v 83.251350 0.072422 -11.139959
v 83.247688 -6.198661 -4.991353
v 83.247498 -8.554762 -11.979162
v 83.250114 5.058640 -5.364108
v 83.248146 8.756001 0.000000
v 76.079201 -8.063797 0.000000
v 72.957420 5.995842 0.000000
v 75.768883 -8.057828 -0.000000
v 83.246330 9.227523 5.928989
v 115.356911 6.784750 -0.000000
v 115.446007 7.388866 4.068709
v 104.809982 -12.538997 7.368192
v 105.169983 -11.149397 0.000000
v 104.589989 -12.730998 7.556841
v 112.717651 -0.289915 7.521919
v 109.417213 -4.220365 7.368192
v 105.169983 -11.149397 7.662960
v 114.510216 3.647300 7.556841
v 112.717651 -0.289915 7.257482
v 98.432594 -11.505600 7.378455
v 101.816994 -12.561198 6.784653
v 95.897804 -7.409329 7.068285
v 90.163284 -7.474788 -0.000000
v 115.446007 7.388866 10.387200
v 103.503777 7.054562 11.395599
v 103.302223 -0.724945 11.711100
v 112.534065 -0.600084 11.551100
v 114.108719 3.460620 11.221298
v 109.352295 -2.919909 11.141691
v 113.877937 7.200861 10.821498
v 109.275536 9.257194 18.384912
v 99.740601 8.357552 23.599224
v 97.187294 7.611693 42.422798
v 92.722603 4.653464 43.313797
v 90.213203 5.662513 13.895100
v 102.701393 7.512173 10.387200
v 103.503777 7.054562 26.764601
v 98.904297 5.101948 37.772606
v 94.328094 4.905116 28.922194
v 97.685318 5.196567 0.000000
v 114.203148 8.121224 7.666679
v 114.509193 3.647214 -0.000000
v 116.814003 6.286480 -0.000000
v 115.446007 7.388866 0.000000
v 114.203148 8.121224 -5.928989
v 115.356911 6.784750 -0.000001
v 123.522003 5.340420 -0.000000
v 113.183998 -3.294350 0.000001
v 119.353996 -4.180040 0.000000
v 104.589989 -12.730998 -0.000000
v 108.883987 -7.024361 -0.000000
v 115.446007 7.388866 -4.068708
v 104.809982 -12.538997 -7.368185
v 105.169983 -11.149400 0.000000
v 83.260101 -13.016300 0.000000
v 89.858490 -10.437300 -0.000001
v 74.032600 -18.253063 -0.000000
v 64.879395 -21.990555 -0.000001
v 55.177101 -24.601044 -0.000001
v 42.186134 -27.867500 0.000000
v 98.440529 -12.641399 0.000000
v 96.144127 -10.784799 0.000000
v 104.589989 -12.730998 0.000000
v 101.303001 -13.544299 -0.000000
v 84.205399 12.481400 0.000000
v 76.188698 17.461201 -0.000000
v 90.899597 5.818110 -7.556839
v 112.720070 -0.287884 -7.521920
v 109.424004 -4.220870 -7.368185
v 105.169983 -11.149400 -7.662959
v 114.509583 3.650679 -7.556839
v 112.720070 -0.287884 0.000001
v 109.361557 10.131800 -0.000000
v 97.235588 6.958278 -0.000000
v 102.998001 9.238221 -7.257481
v 98.432594 -11.505600 -7.378448
v 101.816994 -12.561204 -6.784652
v 95.897804 -7.409330 -7.068284
v 90.163284 -7.474789 -0.000000
v 115.446007 7.388866 -0.000000
v 117.357735 11.645447 -10.387198
v 103.497993 7.046999 -11.395599
v 103.305000 -0.729208 -11.711100
v 112.538071 -0.596181 -11.551098
v 114.108002 3.466223 -11.221298
v 109.359001 -2.919650 -11.141690
v 113.872864 7.206104 -10.821493
v 109.269531 9.257250 -18.384914
v 99.740662 8.357616 -23.599224
v 97.187340 7.611753 -42.422798
v 92.722595 4.653459 -43.313801
v 90.213203 5.662508 -13.895099
v 102.694984 7.504619 -10.387198
v 103.497993 7.046999 -26.764601
v 98.904297 5.101949 -37.772598
v 94.328094 4.905109 -28.922194
v 97.685318 5.196568 0.000001
v 116.165375 15.262552 0.000000
v 114.203148 8.121224 -7.666681
v 114.508583 3.650592 -0.000000
v 65.585602 21.553001 0.000000
v 55.814899 24.763399 -0.000002
v 41.863647 27.634665 -0.000001
v 76.051399 17.396702 4.359818
v 47.438431 1.563496 4.742962
v 44.632038 1.578636 4.838353
v 34.113754 2.656087 2.159921
v 61.280910 1.097811 1.399024
v 72.330269 0.660657 6.671232
v 20.483200 3.588795 0.000000
v 72.260323 0.610912 -0.000000
v 77.275566 9.563898 -4.359818
v 47.438435 1.563499 -4.742961
v 44.632038 1.578640 -4.838354
v 34.113754 2.656091 -2.159922
v 61.280899 1.097816 -1.399024
v 72.330269 0.660661 -6.671235
v 20.483210 3.588797 -0.000000
v 77.275566 9.563898 0.000000
v 72.947540 -5.055017 0.000000
v 72.260323 0.610912 0.000000
v 76.079201 -8.063797 0.000000
v 83.246864 -10.546166 0.000000
v 72.957420 5.995842 0.000000
v 72.260323 0.610912 -0.000000
v 77.275566 9.563898 0.000000
v 75.768883 -8.057828 -0.000000
v 83.246330 9.227523 0.535221

vt 0.520348 0.419798
vt 0.461287 0.406151
vt 0.384079 0.360615
vt 0.438335 0.389355
vt 0.564239 0.371620
vt 0.519223 0.704753
vt 0.146727 0.736109
vt 0.142747 0.762635
vt 0.076319 0.386564
vt 0.297307 0.693279
vt 0.110390 0.724647
vt 0.097258 0.256644
vt 0.153484 0.377338
vt 0.146899 0.137206
vt 0.161075 0.013745
vt 0.172379 0.504415
vt 0.201064 0.384481
vt 0.256171 0.137206
vt 0.341026 0.264465
vt 0.302189 0.013745
vt 0.365039 0.499054
vt 0.135910 0.608766
vt 0.179437 0.591808
vt 0.122890 0.780448
vt 0.795736 0.729321
vt 0.852911 0.891869
vt 0.861903 0.731727
vt 0.839871 0.911316
vt 0.575048 0.893815
vt 0.649176 0.770242
vt 0.641192 0.836112
vt 0.637079 0.835526
vt 0.746271 0.782823
vt 0.746271 0.702754
vt 0.641957 0.661310
vt 0.653555 0.751626
vt 0.560104 0.877187
vt 0.746271 0.632521
vt 0.625863 0.689088
vt 0.587669 0.837210
vt 0.561145 0.543850
vt 0.489665 0.587136
vt 0.558724 0.941936
vt 0.405306 0.922875
vt 0.487655 0.628667
vt 0.441048 0.657816
vt 0.513557 0.720030
vt 0.404081 0.836980
vt 0.396328 0.838703
vt 0.476918 0.735801
vt 0.478568 0.835660
vt 0.799614 0.878029
vt 0.799614 0.900270
vt 0.905243 0.841298
vt 0.956278 0.783675
vt 0.864504 0.850046
vt 0.874308 0.732655
vt 0.888962 0.448815
vt 0.313919 0.953798
vt 0.192810 0.560375
vt 0.252977 0.678121
vt 0.208260 0.829389
vt 0.195108 0.612043
vt 0.844058 0.607251
vt 0.878230 0.449367
vt 0.446079 0.634777
vt 0.791979 0.661548
vt 0.791926 0.656790
vt 0.755844 0.611118
vt 0.900325 0.639004
vt 0.903036 0.633007
vt 0.935198 0.484596
vt 0.485668 0.834148
vt 0.987179 0.976611
vt 0.499949 0.970430
vt 0.411943 0.776910
vt 0.119006 0.684607
vt 0.737290 0.510233
vt 0.520745 0.440655
vt 0.389238 0.907120
vt 0.947152 0.363549
vt 0.657267 0.359942
vt 0.813401 0.357588
vt 0.852238 0.350900
vt 0.892502 0.362965
vt 0.726272 0.359484
vt 0.777812 0.344988
vt 0.927554 0.272646
vt 0.676136 0.274338
vt 0.724558 0.268300
vt 0.818569 0.243328
vt 0.680715 0.229516
vt 0.862627 0.215391
vt 0.910825 0.234976
vt 0.911665 0.234687
vt 0.767255 0.239378
vt 0.721278 0.265425
vt 0.876569 0.262024
vt 0.915890 0.269866
vt 0.775851 0.048256
vt 0.868598 0.056291
vt 0.793291 0.068481
vt 0.736007 0.077655
vt 0.963216 0.061510
vt 0.918652 0.088510
vt 0.681146 0.233378
vt 0.820732 0.183112
vt 0.712559 0.172588
vt 0.759347 0.166421
vt 0.805897 0.164244
vt 0.863128 0.165881
vt 0.908333 0.167183
vt 0.956094 0.119732
vt 0.956930 0.112891
vt 0.910010 0.118061
vt 0.748464 0.134553
vt 0.699870 0.106803
vt 0.862902 0.108654
vt 0.798917 0.021844
vt 0.870139 0.025747
vt 0.789274 0.017054
vt 0.735395 0.061919
vt 0.982235 0.026852
vt 0.929274 0.054760
vt 0.665029 0.016541
vt 0.699165 0.326845
vt 0.849430 0.330806
vt 0.810134 0.327912
vt 0.890429 0.318861
vt 0.925370 0.329750
vt 0.652134 0.332169
vt 0.776377 0.331563
vt 0.726275 0.861066
vt 0.915728 0.789750
vt 0.941192 0.762721
vt 0.914033 0.863861
vt 0.942849 0.580465
vt 0.059972 0.715226
vt 0.046272 0.422927
vt 0.305375 0.583635
vt 0.817626 0.577728
vt 0.862628 0.610967
vt 0.781040 0.639985
vt 0.746149 0.583994
vt 0.904608 0.615821
vt 0.956030 0.663774
vt 0.985302 0.615605
vt 0.956079 0.614726
vt 0.954588 0.583994
vt 0.904608 0.583635
vt 0.817626 0.610967
vt 0.781040 0.639985
vt 0.746149 0.959976
vt 0.959058 0.333021
vt 0.484790 0.435972
vt 0.652523 0.586289
vt 0.666080 0.438406
vt 0.955535 0.435973
vt 0.849294 0.436551
vt 0.751960 0.569881
vt 0.768284 0.537244
vt 0.964429 0.583994
vt 0.904608 0.344520
vt 0.300936 0.500395
vt 0.054207 0.260320
vt 0.033427 0.681943
vt 0.053875 0.920659
vt 0.799614 0.934022
vt 0.850222 0.510233
vt 0.520745 0.476693
vt 0.598118 0.484596
vt 0.485668 0.907120
vt 0.947152 0.955302
vt 0.935322 0.389355
vt 0.564239 0.371620
vt 0.519223 0.419798
vt 0.461287 0.464779
vt 0.520348 0.406112
vt 0.625198 0.422927
vt 0.305375 0.406151
vt 0.384079 0.386564
vt 0.297307 0.355973
vt 0.374052 0.449367
vt 0.446079 0.440655
vt 0.389238 0.776910
vt 0.119006 0.762635
vt 0.076319 0.504415
vt 0.201064 0.608766
vt 0.179437 0.591808
vt 0.122890 0.499054
vt 0.135910 0.264465
vt 0.302189 0.256644
vt 0.153484 0.137206
vt 0.161075 0.137206
vt 0.341026 0.384481
vt 0.256171 0.377338
vt 0.146899 0.013745
vt 0.172379 0.013745
vt 0.365039 0.379046
vt 0.043107 0.137206
vt 0.025420 0.013745
vt 0.018245 0.724647
vt 0.097258 0.693279
vt 0.110390 0.736109
vt 0.142747 0.748558
vt 0.029995 0.704753
vt 0.146727 0.956779
vt 0.656927 0.893815
vt 0.649176 0.911316
vt 0.575048 0.989664
vt 0.606645 0.921251
vt 0.746271 0.877187
vt 0.746271 0.834148
vt 0.987179 0.789750
vt 0.941192 0.841298
vt 0.956278 0.762721
vt 0.914033 0.732655
vt 0.888962 0.678121
vt 0.208260 0.829389
vt 0.195108 0.836980
vt 0.396328 0.720030
vt 0.404081 0.953798
vt 0.192810 0.970430
vt 0.411943 0.941936
vt 0.405306 0.612043
vt 0.844058 0.607251
vt 0.878230 0.634777
vt 0.791979 0.661548
vt 0.791926 0.656790
vt 0.755844 0.684607
vt 0.737290 0.611118
vt 0.900325 0.639004
vt 0.903036 0.863861
vt 0.942849 0.861066
vt 0.915728 0.900270
vt 0.905243 0.945976
vt 0.893259 0.922875
vt 0.487655 0.976611
vt 0.499949 0.850046
vt 0.874308 0.783675
vt 0.864504 0.780448
vt 0.795736 0.835660
vt 0.799614 0.891869
vt 0.861903 0.731727
vt 0.839871 0.729321
vt 0.852911 0.835526
vt 0.746271 0.782823
vt 0.746271 0.770242
vt 0.641192 0.836112
vt 0.637079 0.661310
vt 0.653555 0.702754
vt 0.641957 0.632521
vt 0.625863 0.689088
vt 0.587669 0.751626
vt 0.560104 0.837210
vt 0.561145 0.657816
vt 0.513557 0.587136
vt 0.558724 0.543850
vt 0.489665 0.628667
vt 0.441048 0.838703
vt 0.476918 0.735801
vt 0.478568 0.448815
vt 0.313919 0.560375
vt 0.252977 0.878029
vt 0.799614 0.633007
vt 0.935198 0.676328
vt 0.957832 0.362965
vt 0.726272 0.363549
vt 0.657267 0.359942
vt 0.813401 0.357588
vt 0.852238 0.359484
vt 0.777812 0.350900
vt 0.892502 0.344988
vt 0.927554 0.326845
vt 0.849430 0.265425
vt 0.876569 0.327912
vt 0.890429 0.330806
vt 0.810134 0.318861
vt 0.925370 0.331563
vt 0.726275 0.329750
vt 0.652134 0.272646
vt 0.676136 0.274338
vt 0.724558 0.332169
vt 0.776377 0.269866
vt 0.775851 0.268300
vt 0.818569 0.262024
vt 0.915890 0.229516
vt 0.862627 0.233378
vt 0.820732 0.021844
vt 0.870139 0.026852
vt 0.929274 0.061510
vt 0.918652 0.048256
vt 0.868598 0.068481
vt 0.736007 0.017054
vt 0.735395 0.025747
vt 0.789274 0.056291
vt 0.793291 0.061919
vt 0.982235 0.077655
vt 0.963216 0.054760
vt 0.665029 0.088510
vt 0.681146 0.016541
vt 0.699165 0.243328
vt 0.680715 0.239378
vt 0.721278 0.234976
vt 0.911665 0.215391
vt 0.910825 0.234687
vt 0.767255 0.112891
vt 0.910010 0.119732
vt 0.956930 0.167183
vt 0.956094 0.165881
vt 0.908333 0.164244
vt 0.863128 0.166421
vt 0.805897 0.134553
vt 0.699870 0.118061
vt 0.748464 0.172588
vt 0.759347 0.106803
vt 0.862902 0.108654
vt 0.798917 0.183112
vt 0.712559 0.583635
vt 0.817626 0.577728
vt 0.862628 0.610967
vt 0.781040 0.639985
vt 0.746149 0.583994
vt 0.904608 0.615821
vt 0.956030 0.615605
vt 0.956079 0.583994
vt 0.904608 0.614726
vt 0.954588 0.583994
vt 0.904608 0.583635
vt 0.817626 0.610967
vt 0.781040 0.639985
vt 0.746149 0.436551
vt 0.751960 0.554676
vt 0.861975 0.435973
vt 0.849294 0.435972
vt 0.652523 0.438406
vt 0.955535 0.220718
vt 0.503479 0.278958
vt 0.472384 0.278034
vt 0.503000 0.219666
vt 0.466561 0.283607
vt 0.533901 0.219601
vt 0.528269 0.214808
vt 0.397788 0.259609
vt 0.396996 0.260521
vt 0.426143 0.217791
vt 0.436253 0.278379
vt 0.446287 0.217729
vt 0.552117 0.271615
vt 0.553469 0.211605
vt 0.584566 0.267841
vt 0.587442 0.156223
vt 0.548455 0.156974
vt 0.525437 0.144823
vt 0.399117 0.140448
vt 0.367622 0.147049
vt 0.467450 0.146340
vt 0.439535 0.157736
vt 0.502323 0.140772
vt 0.581518 0.140643
vt 0.547782 0.141875
vt 0.502365 0.146340
vt 0.439535 0.144823
vt 0.399117 0.141130
vt 0.524818 0.147049
vt 0.467450 0.091319
vt 0.436386 0.090994
vt 0.465130 0.125262
vt 0.524514 0.126981
vt 0.547682 0.127607
vt 0.502341 0.018267
vt 0.542599 0.084853
vt 0.582429 0.018225
vt 0.581833 0.091794
vt 0.405824 0.018215
vt 0.503616 0.018192
vt 0.462209 0.018176
vt 0.439604 0.018200
vt 0.404827 0.279588
vt 0.422641 0.313354
vt 0.472383 0.312430
vt 0.503000 0.318003
vt 0.533901 0.312775
vt 0.446287 0.313985
vt 0.422641 0.279540
vt 0.388065 0.267841
vt 0.587442 0.318827
vt 0.562120 0.220718
vt 0.503479 0.278958
vt 0.472384 0.278034
vt 0.503000 0.219666
vt 0.466561 0.283607
vt 0.533901 0.219601
vt 0.528269 0.214808
vt 0.397788 0.259609
vt 0.396996 0.260521
vt 0.426143 0.217791
vt 0.436253 0.278379
vt 0.446287 0.217729
vt 0.552117 0.271615
vt 0.553469 0.211605
vt 0.584566 0.267841
vt 0.587442 0.156223
vt 0.548455 0.156974
vt 0.525437 0.144823
vt 0.399117 0.140448
vt 0.367622 0.147049
vt 0.467450 0.146340
vt 0.439535 0.157736
vt 0.502323 0.140772
vt 0.581518 0.140643
vt 0.547782 0.141875
vt 0.502365 0.146340
vt 0.439535 0.144823
vt 0.399117 0.141130
vt 0.524818 0.147049
vt 0.467450 0.091319
vt 0.436386 0.090994
vt 0.465130 0.125262
vt 0.524514 0.126981
vt 0.547682 0.127607
vt 0.502341 0.018267
vt 0.542599 0.084853
vt 0.582429 0.018225
vt 0.581833 0.091794
vt 0.405824 0.018215
vt 0.503616 0.018192
vt 0.462209 0.018176
vt 0.439604 0.018200
vt 0.404827 0.279588
vt 0.422641 0.276482
vt 0.570697 0.313354
vt 0.472383 0.312430
vt 0.503000 0.318003
vt 0.533901 0.312775
vt 0.446287 0.313985
vt 0.422641 0.284431
vt 0.562131 0.274696
vt 0.374771 0.284400
vt 0.562135 0.313975
vt 0.388082 0.895113
vt 0.978967 0.500287
vt 0.602595 0.807807
vt 0.070736 0.825112
vt 0.115243 0.791975
vt 0.019109 0.763545
vt 0.963599 0.733227
vt 0.928417 0.696683
vt 0.878161 0.631228
vt 0.875032 0.644123
vt 0.836004 0.698352
vt 0.811424 0.682384
vt 0.841023 0.721041
vt 0.799614 0.720770
vt 0.746271 0.686324
vt 0.922978 0.393815
vt 0.662242 0.382708
vt 0.729051 0.393309
vt 0.821528 0.394265
vt 0.857815 0.392402
vt 0.784572 0.392740
vt 0.890411 0.380013
vt 0.934312 0.307336
vt 0.977353 0.250531
vt 0.957758 0.118714
vt 0.642665 0.109062
vt 0.622833 0.340855
vt 0.976154 0.371838
vt 0.979533 0.219305
vt 0.955784 0.151539
vt 0.660550 0.194898
vt 0.671068 0.663774
vt 0.985302 0.577728
vt 0.862628 0.476693
vt 0.598118 0.959976
vt 0.959058 0.955302
vt 0.935322 0.895113
vt 0.978967 0.406112
vt 0.625198 0.360615
vt 0.438335 0.333021
vt 0.484790 0.344520
vt 0.300936 0.355973
vt 0.374052 0.500287
vt 0.602595 0.807807
vt 0.070736 0.825112
vt 0.115243 0.500395
vt 0.054207 0.580465
vt 0.059972 0.379046
vt 0.043107 0.260320
vt 0.033427 0.137206
vt 0.025420 0.013745
vt 0.018245 0.715226
vt 0.046272 0.681943
vt 0.053875 0.791975
vt 0.019109 0.748558
vt 0.029995 0.956779
vt 0.656927 0.989664
vt 0.606645 0.921251
vt 0.746271 0.763545
vt 0.963599 0.733227
vt 0.928417 0.696683
vt 0.878161 0.631228
vt 0.875032 0.644123
vt 0.836004 0.945976
vt 0.893259 0.920659
vt 0.799614 0.934022
vt 0.850222 0.698352
vt 0.811424 0.682384
vt 0.841023 0.721041
vt 0.799614 0.720770
vt 0.746271 0.686324
vt 0.922978 0.676328
vt 0.957832 0.393815
vt 0.662242 0.382708
vt 0.729051 0.393309
vt 0.821528 0.394265
vt 0.857815 0.392402
vt 0.784572 0.392740
vt 0.890411 0.380013
vt 0.934312 0.307336
vt 0.977353 0.250531
vt 0.957758 0.118714
vt 0.642665 0.109062
vt 0.622833 0.340855
vt 0.976154 0.371838
vt 0.979533 0.219305
vt 0.955784 0.151539
vt 0.660550 0.194898
vt 0.671068 0.663774
vt 0.985302 0.663774
vt 0.985302 0.577728
vt 0.862628 0.554676
vt 0.861975 0.569881
vt 0.768284 0.586289
vt 0.666080 0.537244
vt 0.964429 0.140772
vt 0.581518 0.140448
vt 0.367622 0.084514
vt 0.373905 0.210909
vt 0.363883 0.265851
vt 0.359745 0.018190
vt 0.379703 0.265851
vt 0.359745 0.279578
vt 0.388072 0.140772
vt 0.581518 0.140448
vt 0.367622 0.084514
vt 0.373905 0.210909
vt 0.363883 0.265851
vt 0.359745 0.018190
vt 0.379703 0.279540
vt 0.388065 0.276482
vt 0.570697 0.267841
vt 0.587442 0.284431
vt 0.562131 0.318827
vt 0.562120 0.274696
vt 0.374771 0.265851
vt 0.359745 0.279578
vt 0.388072 0.284400
vt 0.562135 0.313975
vt 0.388082 1.000000

f 338/338 340/340 339/339
f 339/339 341/341 338/338
f 342/342 340/340 343/343
f 338/338 343/343 340/340
f 344/344 346/346 345/345
f 347/347 348/348 346/346
f 349/349 351/351 350/350
f 350/350 351/351 352/352
f 353/353 349/349 343/343
f 343/343 354/354 353/353
f 355/355 344/344 356/356
f 341/341 358/358 357/357
f 359/359 354/354 338/338
f 343/343 338/338 354/354
f 360/360 537/537 361/361
f 349/349 353/353 537/537
f 359/359 357/357 362/362
f 355/355 364/364 363/363
f 363/363 358/358 355/355
f 347/347 346/346 344/344
f 365/365 361/361 353/353
f 353/353 354/354 365/365
f 365/365 354/354 359/359
f 359/359 362/362 365/365
f 366/366 362/362 357/357
f 353/353 361/361 537/537
f 366/366 363/363 367/367
f 367/367 368/368 366/366
f 361/361 365/365 369/369
f 369/369 370/370 361/361
f 369/369 365/365 362/362
f 362/362 371/371 369/369
f 372/372 374/374 373/373
f 373/373 370/370 372/372
f 375/375 364/364 538/538
f 538/538 539/539 375/375
f 375/375 367/367 363/363
f 363/363 364/364 375/375
f 371/371 362/362 366/366
f 368/368 377/377 376/376
f 376/376 371/371 368/368
f 371/371 366/366 368/368
f 361/361 370/370 360/360
f 376/376 369/369 371/371
f 369/369 376/376 372/372
f 373/373 360/360 370/370
f 344/344 345/345 540/540
f 541/541 540/540 345/345
f 369/369 372/372 370/370
f 377/377 368/368 367/367
f 367/367 378/378 377/377
f 367/367 375/375 378/378
f 379/379 378/378 375/375
f 375/375 539/539 542/542
f 542/542 379/379 375/375
f 345/345 346/346 386/386
f 339/339 348/348 341/341
f 343/343 349/349 350/350
f 350/350 342/342 343/343
f 348/348 380/380 346/346
f 363/363 366/366 357/357
f 359/359 338/338 341/341
f 538/538 364/364 356/356
f 341/341 348/348 347/347
f 352/352 387/387 432/432
f 363/363 357/357 358/358
f 359/359 341/341 357/357
f 358/358 347/347 344/344
f 341/341 347/347 358/358
f 364/364 355/355 356/356
f 344/344 355/355 358/358
f 537/537 351/351 349/349
f 356/356 344/344 540/540
f 340/340 381/381 339/339
f 381/381 340/340 382/382
f 342/342 382/382 340/340
f 382/382 342/342 383/383
f 339/339 384/384 348/348
f 384/384 339/339 381/381
f 348/348 385/385 380/380
f 385/385 348/348 384/384
f 383/383 438/438 388/388
f 438/438 383/383 342/342
f 439/439 543/543 541/541
f 544/544 346/346 380/380
f 432/432 440/440 350/350
f 352/352 432/432 350/350
f 440/440 342/342 350/350
f 342/342 440/440 438/438
f 386/386 439/439 345/345
f 345/345 439/439 541/541
f 441/441 380/380 385/385
f 380/380 441/441 544/544
f 389/389 390/390 391/391
f 390/390 389/389 392/392
f 393/393 394/394 391/391
f 389/389 391/391 394/394
f 395/395 396/396 397/397
f 398/398 397/397 399/399
f 400/400 401/401 402/402
f 401/401 403/403 402/402
f 404/404 394/394 400/400
f 394/394 404/404 405/405
f 406/406 407/407 395/395
f 392/392 408/408 409/409
f 410/410 389/389 405/405
f 394/394 405/405 389/389
f 411/411 412/412 545/545
f 400/400 545/545 404/404
f 410/410 413/413 408/408
f 406/406 414/414 415/415
f 414/414 406/406 409/409
f 398/398 395/395 397/397
f 416/416 404/404 412/412
f 404/404 416/416 405/405
f 416/416 410/410 405/405
f 410/410 416/416 413/413
f 417/417 408/408 413/413
f 404/404 545/545 412/412
f 417/417 418/418 414/414
f 418/418 417/417 419/419
f 412/412 420/420 416/416
f 420/420 412/412 421/421
f 420/420 413/413 416/416
f 413/413 420/420 422/422
f 423/423 424/424 425/425
f 424/424 423/423 421/421
f 426/426 546/546 415/415
f 546/546 426/426 547/547
f 426/426 414/414 418/418
f 414/414 426/426 415/415
f 422/422 417/417 413/413
f 419/419 427/427 428/428
f 427/427 419/419 422/422
f 422/422 419/419 417/417
f 412/412 411/411 421/421
f 427/427 422/422 420/420
f 420/420 423/423 427/427
f 424/424 421/421 411/411
f 395/395 548/548 396/396
f 549/549 396/396 548/548
f 420/420 421/421 423/423
f 428/428 418/418 419/419
f 418/418 428/428 429/429
f 418/418 429/429 426/426
f 430/430 426/426 429/429
f 426/426 550/550 547/547
f 550/550 426/426 430/430
f 396/396 551/551 397/397
f 390/390 392/392 399/399
f 394/394 401/401 400/400
f 401/401 394/394 393/393
f 399/399 397/397 431/431
f 414/414 408/408 417/417
f 410/410 392/392 389/389
f 546/546 407/407 415/415
f 392/392 398/398 399/399
f 403/403 552/552 553/553
f 414/414 409/409 408/408
f 410/410 408/408 392/392
f 409/409 395/395 398/398
f 392/392 409/409 398/398
f 415/415 407/407 406/406
f 395/395 409/409 406/406
f 545/545 400/400 402/402
f 407/407 548/548 395/395
f 391/391 433/433 434/434
f 433/433 391/391 390/390
f 393/393 434/434 435/435
f 434/434 393/393 391/391
f 390/390 436/436 433/433
f 436/436 390/390 399/399
f 399/399 437/437 436/436
f 437/437 399/399 431/431
f 435/435 554/554 393/393
f 554/554 435/435 555/555
f 556/556 549/549 557/557
f 558/558 431/431 397/397
f 552/552 401/401 559/559
f 403/403 401/401 552/552
f 559/559 393/393 554/554
f 393/393 559/559 401/401
f 551/551 396/396 556/556
f 396/396 549/549 556/556
f 560/560 431/431 558/558
f 431/431 560/560 437/437
f 73/73 171/171 154/154
f 154/154 174/174 2/2
f 2/2 6/6 171/171
f 171/171 1/1 6/6
f 6/6 2/2 140/140
f 10/10 3/3 164/164
f 183/183 10/10 4/4
f 4/4 2/2 10/10
f 183/183 3/3 171/171
f 443/443 79/79 3/3
f 2/2 66/66 1/1
f 1/1 73/73 66/66
f 140/140 3/3 171/171
f 73/73 1/1 444/444
f 444/444 445/445 24/24
f 24/24 22/22 15/15
f 15/15 13/13 18/18
f 18/18 20/20 16/16
f 16/16 15/15 17/17
f 17/17 18/18 14/14
f 14/14 200/200 15/15
f 15/15 201/201 13/13
f 13/13 166/166 15/15
f 15/15 16/16 12/12
f 12/12 11/11 77/77
f 8/8 12/12 9/9
f 77/77 12/12 9/9
f 9/9 12/12 8/8
f 11/11 12/12 7/7
f 11/11 8/8 138/138
f 138/138 167/167 11/11
f 11/11 7/7 29/29
f 30/30 38/38 74/74
f 55/55 135/135 442/442
f 55/55 74/74 447/447
f 447/447 135/135 448/448
f 448/448 136/136 62/62
f 62/62 48/48 60/60
f 44/44 76/76 450/450
f 450/450 65/65 451/451
f 451/451 64/64 68/68
f 68/68 67/67 450/450
f 450/450 71/71 137/137
f 81/81 174/174 45/45
f 75/75 76/76 55/55
f 442/442 137/137 57/57
f 25/25 56/56 57/57
f 52/52 25/25 27/27
f 169/169 168/168 52/52
f 57/57 27/27 56/56
f 25/25 28/28 452/452
f 452/452 453/453 26/26
f 26/26 453/453 56/56
f 26/26 58/58 56/56
f 28/28 26/26 454/454
f 454/454 452/452 33/33
f 33/33 32/32 455/455
f 455/455 34/34 35/35
f 34/34 31/31 36/36
f 36/36 35/35 32/32
f 32/32 41/41 31/31
f 31/31 37/37 30/30
f 30/30 29/29 33/33
f 33/33 38/38 47/47
f 47/47 46/46 50/50
f 50/50 49/49 51/51
f 51/51 48/48 40/40
f 40/40 47/47 45/45
f 45/45 44/44 50/50
f 50/50 41/41 46/46
f 46/46 61/61 48/48
f 48/48 62/62 41/41
f 41/41 50/50 38/38
f 38/38 53/53 34/34
f 34/34 455/455 53/53
f 53/53 38/38 47/47
f 47/47 40/40 52/52
f 52/52 33/33 27/27
f 168/168 53/53 27/27
f 53/53 52/52 57/57
f 134/134 27/27 135/135
f 447/447 74/74 134/134
f 54/54 27/27 136/136
f 56/56 58/58 54/54
f 169/169 27/27 54/54
f 237/237 169/169 71/71
f 267/267 72/72 137/137
f 442/442 81/81 457/457
f 457/457 458/458 84/84
f 84/84 83/83 461/461
f 461/461 459/459 462/462
f 85/85 462/462 458/458
f 458/458 461/461 127/127
f 129/129 98/98 83/83
f 83/83 84/84 129/129
f 129/129 85/85 133/133
f 133/133 90/90 128/128
f 128/128 91/91 464/464
f 464/464 465/465 133/133
f 133/133 132/132 98/98
f 98/98 93/93 105/105
f 105/105 124/124 121/121
f 121/121 122/122 120/120
f 120/120 121/121 123/123
f 123/123 124/124 125/125
f 125/125 467/467 106/106
f 106/106 103/103 127/127
f 91/91 128/128 86/86
f 86/86 133/133 83/83
f 83/83 128/128 468/468
f 468/468 464/464 132/132
f 132/132 133/133 468/468
f 468/468 88/88 98/98
f 91/91 127/127 92/92
f 90/90 97/97 100/100
f 97/97 90/90 100/100
f 91/91 107/107 95/95
f 470/470 94/94 89/89
f 90/90 92/92 98/98
f 95/95 93/93 470/470
f 98/98 99/99 93/93
f 95/95 94/94 465/465
f 95/95 99/99 107/107
f 96/96 100/100 97/97
f 100/100 96/96 115/115
f 113/113 114/114 470/470
f 112/112 94/94 111/111
f 110/110 107/107 117/117
f 109/109 116/116 111/111
f 94/94 112/112 109/109
f 107/107 110/110 118/118
f 101/101 119/119 471/471
f 108/108 117/117 96/96
f 108/108 97/97 472/472
f 97/97 108/108 107/107
f 109/109 96/96 108/108
f 96/96 109/109 116/116
f 110/110 119/119 94/94
f 111/111 107/107 118/118
f 112/112 115/115 97/97
f 472/472 92/92 112/112
f 470/470 113/113 115/115
f 115/115 114/114 108/108
f 471/471 472/472 117/117
f 117/117 116/116 110/110
f 116/116 109/109 112/112
f 118/118 119/119 471/471
f 471/471 117/117 109/109
f 117/117 108/108 116/116
f 101/101 102/102 118/118
f 118/118 115/115 113/113
f 115/115 112/112 103/103
f 122/122 126/126 65/65
f 65/65 142/142 64/64
f 64/64 141/141 67/67
f 67/67 143/143 69/69
f 144/144 78/78 70/70
f 70/70 145/145 72/72
f 72/72 146/146 267/267
f 147/147 473/473 149/149
f 149/149 150/150 145/145
f 142/142 474/474 141/141
f 141/141 151/151 143/143
f 143/143 152/152 334/334
f 161/161 157/157 162/162
f 162/162 334/334 49/49
f 49/49 44/44 170/170
f 475/475 172/172 476/476
f 476/476 478/478 177/177
f 177/177 178/178 475/475
f 475/475 479/479 176/176
f 176/176 481/481 180/180
f 181/181 182/182 482/482
f 182/182 483/483 480/480
f 480/480 483/483 182/182
f 181/181 483/483 475/475
f 170/170 484/484 181/181
f 184/184 177/177 178/178
f 172/172 178/178 184/184
f 181/181 180/180 475/475
f 178/178 172/172 485/485
f 485/485 187/187 190/190
f 190/190 488/488 194/194
f 194/194 195/195 196/196
f 196/196 197/197 198/198
f 198/198 199/199 188/188
f 188/188 191/191 197/197
f 197/197 191/191 194/194
f 193/193 197/197 194/194
f 194/194 491/491 203/203
f 204/204 203/203 186/186
f 203/203 205/205 187/187
f 203/203 186/186 187/187
f 203/203 187/187 205/205
f 203/203 204/204 207/207
f 205/205 204/204 488/488
f 494/494 488/488 204/204
f 207/207 204/204 210/210
f 210/210 498/498 209/209
f 209/209 497/497 214/214
f 215/215 216/216 478/478
f 214/214 216/216 500/500
f 501/501 502/502 219/219
f 219/219 220/220 223/223
f 224/224 225/225 503/503
f 229/229 231/231 503/503
f 503/503 227/227 234/234
f 234/234 235/235 173/173
f 173/173 236/236 498/498
f 239/239 238/238 216/216
f 234/234 478/478 240/240
f 241/241 242/242 240/240
f 242/242 243/243 244/244
f 506/506 507/507 243/243
f 244/244 240/240 241/241
f 245/245 242/242 508/508
f 508/508 245/245 246/246
f 246/246 218/218 241/241
f 218/218 246/246 241/241
f 246/246 245/245 510/510
f 510/510 242/242 247/247
f 250/250 247/247 511/511
f 511/511 251/251 252/252
f 249/249 248/248 251/251
f 252/252 251/251 250/250
f 256/256 250/250 249/249
f 255/255 249/249 209/209
f 210/210 209/209 247/247
f 213/213 247/247 257/257
f 260/260 257/257 261/261
f 221/221 261/261 262/262
f 222/222 262/262 254/254
f 257/257 254/254 238/238
f 225/225 238/238 261/261
f 256/256 261/261 260/260
f 260/260 259/259 222/222
f 222/222 260/260 256/256
f 261/261 256/256 213/213
f 265/265 213/213 248/248
f 511/511 248/248 265/265
f 213/213 265/265 257/257
f 254/254 257/257 243/243
f 247/247 243/243 244/244
f 265/265 506/506 244/244
f 243/243 265/265 240/240
f 244/244 235/235 215/215
f 214/214 500/500 235/235
f 244/244 236/236 217/217
f 218/218 241/241 236/236
f 244/244 507/507 236/236
f 507/507 505/505 233/233
f 266/266 513/513 234/234
f 173/173 478/478 514/514
f 514/514 269/269 271/271
f 271/271 517/517 518/518
f 518/518 272/272 519/519
f 519/519 517/517 273/273
f 273/273 274/274 515/515
f 515/515 268/268 275/275
f 276/276 277/277 270/270
f 270/270 278/278 277/277
f 277/277 279/279 280/280
f 280/280 281/281 278/278
f 278/278 284/284 521/521
f 521/521 279/279 280/280
f 280/280 283/283 276/276
f 276/276 286/286 292/292
f 292/292 293/293 296/296
f 296/296 297/297 290/290
f 290/290 293/293 298/298
f 298/298 299/299 300/300
f 301/301 300/300 275/275
f 278/278 286/286 268/268
f 268/268 269/269 270/270
f 270/270 272/272 525/525
f 525/525 274/274 284/284
f 284/284 272/272 525/525
f 274/274 525/525 276/276
f 275/275 286/286 303/303
f 304/304 283/283 285/285
f 283/283 304/304 285/285
f 289/289 286/286 305/305
f 306/306 527/527 282/282
f 303/303 283/283 276/276
f 288/288 305/305 527/527
f 287/287 276/276 288/288
f 306/306 305/305 522/522
f 287/287 305/305 289/289
f 285/285 307/307 304/304
f 307/307 285/285 308/308
f 309/309 310/310 527/527
f 306/306 311/311 312/312
f 289/289 313/313 314/314
f 315/315 316/316 312/312
f 311/311 306/306 316/316
f 313/313 289/289 317/317
f 318/318 293/293 528/528
f 314/314 319/319 307/307
f 304/304 319/319 529/529
f 319/319 304/304 289/289
f 307/307 316/316 319/319
f 316/316 307/307 315/315
f 318/318 313/313 306/306
f 289/289 312/312 317/317
f 308/308 311/311 304/304
f 303/303 529/529 311/311
f 310/310 527/527 308/308
f 309/309 308/308 319/319
f 529/529 528/528 314/314
f 315/315 314/314 313/313
f 316/316 315/315 311/311
f 318/318 317/317 528/528
f 314/314 528/528 316/316
f 319/319 314/314 315/315
f 297/297 293/293 317/317
f 308/308 317/317 310/310
f 311/311 308/308 294/294
f 302/302 295/295 227/227
f 231/231 323/323 232/232
f 232/232 227/227 266/266
f 266/266 232/232 513/513
f 513/513 266/266 530/530
f 530/530 325/325 328/328
f 328/328 325/325 324/324
f 322/322 323/323 533/533
f 533/533 335/335 534/534
f 534/534 333/333 536/536
f 536/536 337/337 221/221
