# MOD converted: e_w_metalarmor020.mod
# 702 verts, 651 faces

v 123.522964 5.340435 0.004862
v 108.202377 11.015594 0.004831
v 119.354881 -4.180032 0.004829
v 70.363930 0.609803 0.004828
v 70.636688 7.043686 0.004827
v 79.669846 9.834138 0.004825
v 71.171310 -5.938715 0.004827
v 77.000923 -7.377100 0.004827
v 73.907639 11.139782 0.004825
v 68.189461 16.066069 0.004826
v 65.107544 -13.947200 0.004829
v 82.829803 -9.404315 0.004827
v 85.176773 7.726412 0.004823
v 74.808022 -11.914635 0.004828
v 79.605240 11.345133 0.004833
v 93.690025 8.920254 0.004841
v 114.002884 9.804343 0.004827
v 120.511848 6.544931 0.004835
v 117.338333 8.132175 0.004823
v 73.472549 -14.106303 0.004839
v 112.396347 10.140607 0.004550
v 79.285202 -12.457829 0.004825
v 120.896027 11.220490 8.653250
v 93.025047 -5.675440 11.473249
v 100.190147 -7.723981 7.279524
v 99.736694 -11.780425 9.315319
v 112.875763 -0.169144 14.327974
v 107.150970 -2.363919 6.867347
v 86.971954 -8.246410 9.739003
v 86.984894 -4.722351 5.109365
v 76.023697 -11.950613 8.913376
v 79.794647 -9.960882 16.228714
v 78.261734 -4.805757 7.944055
v 83.760216 -8.748582 6.455278
v 92.680336 -8.716770 7.059444
v 103.230598 -11.306182 8.929887
v 118.076180 -0.490585 6.822765
v 117.260971 -5.452137 6.169089
v 113.373428 -5.656124 10.075076
v 114.823112 4.629803 10.732444
v 93.714478 -0.184298 7.619470
v 93.654404 7.120687 9.813451
v 107.612640 10.708025 9.431693
v 100.295502 9.899277 13.245429
v 83.768585 5.133496 11.881754
v 87.001732 0.133135 7.611627
v 86.975319 7.353574 17.947662
v 78.484222 0.316563 10.626402
v 79.323730 13.782228 16.634098
v 78.429901 6.478190 14.418650
v 83.768616 0.221322 8.552733
v 83.623268 10.120206 0.004829
v 80.472694 14.280282 6.310781
v 120.545685 10.215652 9.864516
v 119.381233 5.146893 6.590888
v 107.085625 -10.966650 11.639377
v 107.723366 -6.016666 10.621743
v 111.963058 -3.133679 6.133947
v 111.154678 -7.337734 7.100943
v 104.097527 -13.578451 11.449572
v 104.918411 -8.923967 11.619595
v 104.227524 -6.615786 5.694227
v 116.616760 5.307984 4.862576
v 117.945320 -1.128192 5.154714
v 119.609978 3.811369 5.018667
v 122.611420 2.854048 4.516918
v 120.603424 -1.682558 0.004828
v 87.088074 9.214624 0.004828
v 116.280563 -3.595090 0.004826
v 92.963791 -9.992921 10.972578
v 112.241333 8.156441 14.059860
v 107.093712 10.108902 11.607507
v 113.556068 4.422127 42.422791
v 92.722595 4.653471 44.161522
v 96.528412 6.713492 42.148602
v 92.630371 -0.150554 45.711193
v 100.089783 5.049097 43.801411
v 96.407471 -2.744950 45.439194
v 100.274796 -0.862272 33.944458
v 95.086227 -0.436529 33.922096
v 95.082886 5.384841 15.059958
v 100.334328 6.893396 17.126091
v 107.490341 9.227725 16.751379
v 107.502975 -2.131644 18.006281
v 112.168434 6.767444 17.914623
v 112.057365 0.555056 22.939465
v 104.727905 10.569119 23.734676
v 104.832413 -4.195555 21.338387
v 98.192154 -0.771679 21.309744
v 98.023239 7.361678 25.235983
v 110.178291 -1.376481 25.201693
v 110.338852 7.748665 25.970284
v 96.064148 7.509677 26.213520
v 96.153084 -1.589026 30.544928
v 108.985893 7.961192 28.804462
v 102.813774 -5.187185 30.566414
v 108.760323 -2.116619 27.424622
v 103.617828 10.812223 28.097874
v 94.100334 7.390410 33.861401
v 108.804962 7.809603 31.767834
v 101.860092 11.191507 29.899794
v 102.510956 11.570239 33.747383
v 108.462402 -2.410958 31.125175
v 101.951553 -5.584760 28.214819
v 94.296593 -1.937356 33.495380
v 100.420418 9.845060 35.649620
v 105.543816 -1.449656 30.818552
v 94.615959 -0.963252 33.468048
v 100.511215 -4.243851 35.775230
v 105.671906 6.701467 30.747496
v 94.534935 6.263510 13.540279
v 101.099754 7.258614 36.095253
v 99.831337 -3.121292 38.061653
v 103.972328 -0.880593 38.159859
v 103.950928 5.753207 36.032280
v 99.804581 8.224396 37.772572
v 94.328110 4.905125 39.591610
v 98.229065 -2.696460 41.441086
v 102.195236 5.273318 41.429630
v 102.170753 -0.746998 37.732975
v 94.243248 -0.120757 39.680721
v 98.420113 7.198406 0.004861
v 100.514442 11.046216 0.004796
v 99.642853 -13.040178 0.004814
v 113.319710 -3.352762 0.004791
v 100.460999 -15.144233 0.004802
v 110.876709 -9.557261 0.004797
v 106.568176 -12.499851 0.004828
v 86.964607 -9.751657 0.004827
v 83.773445 -10.430961 0.004804
v 111.136078 -7.180893 0.004828
v 83.784370 11.901661 18.879425
v 122.279175 2.793802 12.367363
v 115.280815 11.488852 20.474749
v 117.058701 9.369965 22.816359
v 118.121346 2.813547 24.123280
v 110.729279 9.241121 27.437435
v 111.784836 2.843981 28.803980
v 110.796730 2.843936 19.712250
v 106.033821 13.199871 10.278448
v 110.865227 13.695782 17.343679
v 107.786377 12.313787 14.443386
v 113.400566 12.253079 14.746943
v 125.660233 2.764360 13.039602
v 120.570190 9.647346 12.745071
v 106.037880 13.746285 20.504068
v 113.879570 1.827637 17.096367
v 120.420715 8.754116 12.211185
v 115.165108 -5.862662 20.475018
v 117.022995 -3.734626 24.123257
v 110.729782 -3.553341 19.712200
v 106.009941 -7.510140 10.293023
v 110.816124 -8.018360 17.342094
v 107.709908 -6.626828 14.444118
v 113.304146 -6.614834 13.039599
v 120.504578 -4.068163 12.701344
v 105.997978 -8.046765 17.096834
v 120.378983 -3.151444 5.034152
v 111.210289 -5.671082 5.732863
v 113.857773 8.962740 11.318544
v 112.350563 -0.606168 11.845416
v 107.121971 -3.696129 13.451861
v 101.713806 -0.024162 14.768706
v 100.583763 -0.353755 5.139425
v 114.544716 -0.354966 6.974964
v 96.366486 -11.040656 10.937093
v 96.605125 -7.195837 0.004817
v 96.298744 -12.351823 12.666702
v 97.223961 -0.099154 11.049026
v 97.202187 7.441644 0.004863
v 96.931969 10.339423 8.783448
v 96.803497 8.805228 -0.103796
v 82.031693 -7.463162 10.539085
v 80.146324 5.539673 7.079192
v 79.627602 8.972749 13.061163
v 79.860550 -0.290371 6.419595
v 77.879868 -6.949898 11.241494
v 78.919312 -4.907906 15.246757
v 73.014282 0.883797 13.151816
v 72.967255 -5.449209 8.147990
v 75.763054 9.124025 13.301019
v 74.059555 6.363677 9.199368
v 20.483519 -4.618796 9.006593
v 20.482973 8.894987 19.056629
v 20.485300 4.294065 6.681252
v 20.482712 3.588432 17.281023
v 20.484358 -4.281310 15.827955
v 20.484632 9.061992 1.675364
v 70.647263 0.660532 2.645266
v 71.561127 -5.864366 17.348871
v 60.885437 1.740197 9.643486
v 60.584885 -8.788270 3.609262
v 60.123470 -5.907739 2.272488
v 59.748688 1.097701 10.411601
v 70.590240 8.569386 15.440144
v 60.917007 -6.186447 5.564067
v 48.628902 -5.419430 4.905375
v 44.635254 1.578537 7.023949
v 45.823780 7.658158 12.931130
v 46.202850 7.492377 15.255528
v 49.651585 -4.881043 16.882729
v 45.863358 2.165800 4.620892
v 60.173176 8.395775 12.265818
v 60.734913 8.265145 10.980543
v 45.770477 -7.273465 6.153009
v 45.318451 -4.985474 15.315834
v 46.417278 -4.494250 11.311776
v 42.379562 -6.217178 15.648371
v 43.370789 -3.694183 6.839834
v 42.602531 -4.381418 18.512691
v 35.618919 3.077538 14.381818
v 35.918579 9.239820 7.789728
v 35.585220 9.489038 5.000802
v 34.116890 2.655800 3.305792
v 69.711044 8.304782 10.579476
v 49.151131 -7.550548 16.711460
v 48.442806 2.114860 12.707359
v 48.166107 7.455096 6.924724
v 47.551300 7.600654 4.522303
v 47.440880 1.563417 8.219365
v 72.508728 -7.909355 5.169684
v 82.503044 -6.241971 9.843951
v 82.529449 -4.496328 26.793461
v 48.335716 7.998396 7.305646
v 83.685211 -8.384845 11.745843
v 83.769516 -4.638112 13.255411
v 83.697464 0.181937 8.940360
v 83.486473 8.603300 12.177152
v 83.697372 4.696284 10.821653
v 71.358482 -11.228556 17.844217
v 71.366165 -6.078495 19.985786
v 71.365425 -0.265001 15.592874
v 71.245621 12.424376 18.378855
v 71.365341 6.074220 22.025934
v 58.735851 -7.682384 16.957817
v 65.904091 -9.336007 26.558979
v 55.209312 0.312601 25.288288
v 58.449913 0.149020 23.053411
v 58.152222 7.104424 19.599487
v 58.266018 15.039051 21.448053
v 54.029518 15.469084 13.516726
v 50.834011 19.546413 8.752413
v 45.154537 20.193998 9.321030
v 77.521835 -9.972713 15.088649
v 77.532417 -5.283201 12.524002
v 77.366043 10.617233 16.877977
v 77.531464 -0.072190 15.535389
v 77.531342 5.429346 17.719587
v 64.755814 13.862043 22.760441
v 64.907715 -0.101098 20.058485
v 65.051010 -7.023157 20.839552
v 64.758797 6.632387 0.004828
v 83.720230 10.483592 0.004829
v 57.451118 19.110579 0.004825
v 71.378387 15.444270 0.004827
v 46.308201 21.211124 0.004829
v 77.549309 13.311950 0.004824
v 64.414757 17.468025 4.055505
v 83.599930 9.904425 5.927482
v 77.454552 12.960637 7.822175
v 71.306953 14.843330 9.253309
v 64.604149 16.475481 10.481356
v 57.911751 17.810905 5.683805
v 83.123764 -8.155741 10.391125
v 83.500603 -3.425786 11.679520
v 84.199066 -0.196530 7.335079
v 84.888832 6.560868 8.742886
v 65.372154 -12.541794 16.650784
v 66.185135 -6.695469 12.525992
v 78.224579 7.534281 7.770341
v 79.269958 10.409030 15.037428
v 77.273193 0.201240 16.013453
v 67.965675 9.945086 8.239957
v 68.216469 15.073793 13.070719
v 76.313683 -5.160339 7.380650
v 75.313293 -10.583499 19.036602
v 67.477776 1.720154 -8.643591
v 93.025002 -5.675442 -11.463624
v 100.189926 -7.723958 -7.269928
v 99.736549 -11.780411 -9.305663
v 112.884575 -0.159802 -14.318325
v 107.159958 -2.365927 -6.857686
v 86.971939 -8.246416 -9.729352
v 86.984856 -4.722352 -5.099714
v 76.023689 -11.950616 -8.903715
v 79.794632 -9.960881 -16.219063
v 78.261719 -4.805757 -7.934402
v 83.760178 -8.748584 -6.445629
v 92.680283 -8.716767 -7.049850
v 103.230484 -11.306167 -8.920235
v 118.080040 -0.481152 -6.813106
v 117.260948 -5.452137 -6.159470
v 113.378944 -5.654178 -10.065418
v 114.817757 4.645075 -10.722784
v 93.714394 -0.184293 -7.609803
v 93.654358 7.120692 -9.803741
v 107.599327 10.705148 -9.421972
v 100.295326 9.899301 -13.235771
v 83.768578 5.133495 -11.872094
v 87.001717 0.133126 -7.601974
v 86.975311 7.353572 -17.938007
v 78.484215 0.316601 -11.215643
v 79.323730 13.782223 -16.624435
v 78.429901 6.478189 -14.408988
v 83.768608 0.221328 -8.543080
v 83.623268 10.120207 -6.301116
v 120.536934 10.227144 -9.854856
v 119.378456 5.158030 -6.581299
v 107.085503 -10.966635 -11.629755
v 107.723145 -6.016641 -10.612103
v 111.972939 -3.129333 -6.124345
v 111.154541 -7.337721 -7.091356
v 104.097397 -13.578435 -11.439968
v 104.918221 -8.923939 -11.609977
v 104.227303 -6.615755 -5.684562
v 116.615112 5.311886 -4.852919
v 117.945320 -1.128191 -5.145058
v 119.609947 3.811370 -5.009013
v 122.611374 2.854051 -4.507260
v 120.603386 -1.682560 -10.962924
v 112.220581 8.167823 -14.050182
v 107.076614 10.105910 -11.597843
v 113.551331 4.434874 -42.413124
v 92.722595 4.653463 -44.152824
v 96.530853 6.713461 -42.138931
v 92.630356 -0.150560 -45.701527
v 100.089767 5.049100 -43.791725
v 96.407394 -2.744947 -45.429531
v 100.274780 -0.862266 -33.934814
v 95.086227 -0.436546 -33.912426
v 95.082870 5.384819 -15.050262
v 100.329430 6.884697 -17.116442
v 107.479187 9.227330 -16.741720
v 107.511681 -2.132151 -17.996626
v 112.161575 6.775151 -17.904964
v 112.059990 0.560015 -22.929829
v 104.728111 10.569123 -23.725008
v 104.832214 -4.195562 -21.328728
v 98.192047 -0.771537 -21.300091
v 98.023346 7.361816 -25.226324
v 110.178215 -1.376605 -25.192034
v 110.338982 7.748538 -25.960609
v 96.064156 7.509674 -26.203878
v 96.153061 -1.589031 -30.535255
v 108.985909 7.961191 -28.794867
v 102.813797 -5.187185 -30.556776
v 108.760292 -2.116618 -27.414959
v 103.617935 10.812214 -28.088196
v 94.100327 7.390380 -33.851719
v 108.804955 7.809600 -31.758152
v 101.860107 11.191509 -29.890142
v 102.511070 11.570237 -33.737728
v 108.462395 -2.410939 -31.115570
v 101.951607 -5.584760 -28.205175
v 94.296585 -1.937380 -33.485664
v 100.420364 9.845057 -35.639973
v 105.543800 -1.449640 -30.808908
v 94.615952 -0.963274 -33.458344
v 100.511040 -4.243851 -35.765560
v 105.671898 6.701481 -30.737816
v 94.534927 6.263489 -13.530587
v 101.094414 7.250367 -36.085640
v 99.831383 -3.121293 -38.052006
v 103.972313 -0.880579 -38.150192
v 103.950912 5.753220 -36.022423
v 99.804123 8.224399 -37.762909
v 94.328102 4.905111 -39.581997
v 98.229103 -2.696460 -41.431412
v 102.195206 5.273327 -41.419987
v 102.170723 -0.746988 -37.723324
v 94.243240 -0.120770 -39.670933
v 98.419823 7.198414 -18.869762
v 122.279221 2.818691 -12.357711
v 115.257385 11.505376 -20.465082
v 117.047249 9.386787 -22.806700
v 118.121376 2.833054 -24.113619
v 110.729439 9.240999 -27.427776
v 111.784836 2.843810 -28.794325
v 110.796692 2.843797 -19.702599
v 106.015640 13.198057 -10.268797
v 110.830475 13.700424 -17.334038
v 107.769806 12.313976 -14.433726
v 113.375084 12.266019 -14.737286
v 125.660385 2.808983 -13.029945
v 120.551750 9.677851 -12.735407
v 106.012321 13.740247 -20.494406
v 113.880699 1.835259 -17.086702
v 120.410301 8.775215 -12.201554
v 115.188530 -5.846463 -20.465364
v 117.034477 -3.717856 -24.113604
v 110.729637 -3.553463 -19.702583
v 106.009598 -7.510120 -10.283423
v 110.815933 -8.018332 -17.333494
v 107.730827 -6.626730 -14.434486
v 113.334274 -6.599723 -13.029948
v 120.523216 -4.037782 -12.691735
v 105.997734 -8.046737 -17.087170
v 120.389473 -3.130406 -5.024527
v 111.215828 -5.670662 -5.723198
v 113.846962 8.968539 -11.308890
v 112.363968 -0.594022 -11.835771
v 107.137169 -3.700169 -13.442204
v 101.716980 -0.031749 -14.759046
v 100.587303 -0.362234 -5.129774
v 114.546814 -0.352444 -6.965323
v 96.366417 -11.040654 -10.927445
v 96.605003 -7.195827 -12.657040
v 97.223869 -0.099144 -11.039322
v 97.201996 7.441667 -8.773748
v 96.803375 8.805241 0.113446
v 82.031693 -7.463163 -10.529432
v 80.146324 5.539669 -7.069533
v 79.627594 8.972747 -13.051512
v 79.860535 -0.290371 -6.409942
v 77.879852 -6.949898 -11.231836
v 78.919304 -4.907907 -15.237097
v 73.014275 0.883808 -13.142159
v 72.967216 -5.449211 -8.138337
v 75.763062 9.124030 -13.291366
v 74.059547 6.363678 -9.189709
v 20.483519 -4.618799 -8.996928
v 20.482971 8.894987 -19.046963
v 20.485298 4.294071 -6.671599
v 20.482712 3.588437 -17.271358
v 20.484356 -4.281307 -15.818295
v 20.484625 9.061992 -1.665709
v 70.647247 0.660535 -2.635622
v 71.561119 -5.864367 -17.339212
v 60.885429 1.740203 -9.633835
v 60.584850 -8.788279 -3.599611
v 60.123466 -5.907738 -2.262830
v 59.748657 1.097697 -10.401945
v 70.590240 8.569386 -15.430490
v 60.916988 -6.186446 -5.554409
v 48.628899 -5.419429 -4.895719
v 44.635242 1.578547 -7.014293
v 45.823769 7.658159 -12.921472
v 46.202835 7.492375 -15.245870
v 49.651585 -4.881039 -16.873070
v 45.863346 2.165805 -4.611234
v 60.173168 8.395773 -12.256162
v 60.734890 8.265141 -10.970890
v 45.770466 -7.273462 -6.143354
v 45.318451 -4.985479 -15.306175
v 46.417271 -4.494247 -11.302119
v 42.379555 -6.217179 -15.638712
v 43.370781 -3.694184 -6.830182
v 42.602520 -4.381422 -18.503027
v 35.618912 3.077542 -14.372159
v 35.918571 9.239819 -7.780071
v 35.585213 9.489037 -4.991143
v 34.116882 2.655812 -3.296142
v 69.711021 8.304779 -10.569817
v 49.151131 -7.550546 -16.701803
v 48.442806 2.114861 -12.697701
v 48.166100 7.455098 -6.915064
v 47.551285 7.600656 -4.512647
v 47.440887 1.563425 -8.209710
v 72.508720 -7.909353 -5.160029
v 82.503036 -6.241971 -9.834300
v 82.529434 -4.496327 -26.783802
v 48.335712 7.998399 -7.295990
v 83.685196 -8.384846 -11.736191
v 83.769485 -4.638111 -13.245753
v 83.697441 0.181924 -8.930702
v 83.486465 8.603300 -12.167497
v 83.697350 4.696286 -10.811996
v 71.358452 -11.228557 -17.834560
v 71.366135 -6.078496 -19.976124
v 71.365417 -0.265076 -15.583216
v 71.245613 12.424372 -18.369198
v 71.365341 6.074220 -22.016273
v 58.735851 -7.682376 -16.948166
v 65.904091 -9.336011 -26.549316
v 55.209305 0.312832 -25.278622
v 58.449905 0.148982 -23.043755
v 58.152218 7.104427 -19.589825
v 58.266014 15.039050 -21.438396
v 54.029510 15.469078 -13.507067
v 50.834003 19.546410 -8.742756
v 45.154530 20.194000 -9.311379
v 77.521820 -9.972713 -15.078992
v 77.532410 -5.283201 -12.514348
v 77.366043 10.617232 -16.868319
v 77.531433 -0.072241 -15.525725
v 77.531334 5.429350 -17.709930
v 64.755821 13.862038 -22.750786
v 64.907730 -0.101245 -20.048836
v 65.050987 -7.023160 -20.829887
v 64.758789 6.632381 -4.045851
v 83.599930 9.904426 -5.917829
v 77.454552 12.960632 -7.812516
v 71.306938 14.843324 -9.243649
v 64.604141 16.475470 -10.471697
v 57.911751 17.810905 -5.674152
v 83.123734 -8.155736 -10.381469
v 83.500580 -3.425782 -11.669863
v 84.199051 -0.196537 -7.325420
v 84.888824 6.560869 -8.733226
v 65.372131 -12.541794 -16.641132
v 66.185120 -6.695472 -12.516333
v 78.224579 7.534281 -7.760683
v 79.269958 10.409028 -15.027773
v 77.273178 0.201250 -16.003792
v 67.965683 9.945086 -8.230304
v 68.216461 15.073792 -13.061066
v 76.313683 -5.160338 -7.370997
v 75.313278 -10.583502 -19.026947
v 67.477760 1.720145 11.607507
v 113.556068 4.422127 10.075076
v 114.823112 4.629803 12.666702
v 97.223961 -0.099154 13.451861
v 101.713806 -0.024162 10.732444
v 93.714478 -0.184298 11.881754
v 87.001732 0.133135 14.418650
v 83.768616 0.221322 9.864516
v 119.381233 5.146893 11.318544
v 112.350563 -0.606168 5.034152
v 111.210289 -5.671082 11.845416
v 107.121971 -3.696129 0.004796
v 99.642853 -13.040178 7.059444
v 103.230598 -11.306182 11.619595
v 104.227524 -6.615786 0.004804
v 111.136078 -7.180893 5.034152
v 111.210289 -5.671082 5.732863
v 113.857773 8.962740 10.075076
v 114.823112 4.629803 9.315319
v 112.875763 -0.169144 0.004841
v 114.002884 9.804343 37.772572
v 94.328110 4.905125 14.059860
v 107.093712 10.108902 13.540279
v 101.099754 7.258614 13.451861
v 101.713806 -0.024162 15.059958
v 100.334328 6.893396 13.540279
v 101.099754 7.258614 14.768706
v 100.583763 -0.353755 11.845416
v 107.121971 -3.696129 10.972578
v 112.241333 8.156441 11.318544
v 112.350563 -0.606168 11.607507
v 113.556068 4.422127 21.309744
v 98.023239 7.361678 21.338387
v 98.192154 -0.771679 25.970284
v 96.064148 7.509677 26.213520
v 96.153084 -1.589026 28.097874
v 94.100334 7.390410 28.214819
v 94.296593 -1.937356 36.032280
v 99.804581 8.224396 33.944458
v 95.086227 -0.436529 33.922096
v 95.082886 5.384841 30.747496
v 94.534935 6.263510 30.818552
v 94.615959 -0.963252 33.922096
v 95.082886 5.384841 36.095253
v 99.831337 -3.121292 33.944458
v 95.086227 -0.436529 13.451861
v 101.713806 -0.024162 42.422791
v 92.722595 4.653471 33.922096
v 95.082886 5.384841 38.061653
v 103.972328 -0.880593 38.159859
v 103.950928 5.753207 19.712250
v 106.033821 13.199871 12.745071
v 106.037880 13.746285 10.278448
v 110.865227 13.695782 12.367363
v 115.280815 11.488852 17.096367
v 120.420715 8.754116 14.746943
v 125.660233 2.764360 13.039602
v 120.570190 9.647346 24.123280
v 110.729279 9.241121 28.803980
v 110.796730 2.843936 19.712200
v 106.009941 -7.510140 12.701344
v 105.997978 -8.046765 10.293023
v 110.816124 -8.018360 12.211185
v 115.165108 -5.862662 17.096834
v 120.378983 -3.151444 13.039599
v 120.504578 -4.068163 24.123257
v 110.729782 -3.553341 1.675364
v 70.647263 0.660532 4.522303
v 47.440880 1.563417 4.905375
v 44.635254 1.578537 5.000802
v 34.116890 2.655800 2.272488
v 59.748688 1.097701 6.681252
v 20.482712 3.588432 0.004829
v 70.363930 0.609803 11.745843
v 83.769516 -4.638112 0.004796
v 99.642853 -13.040178 0.004817
v 96.298744 -12.351823 0.004826
v 92.963791 -9.992921 0.004828
v 86.964607 -9.751657 0.004827
v 83.773445 -10.430961 0.004550
v 79.285202 -12.457829 0.004823
v 73.472549 -14.106303 0.004861
v 100.514442 11.046216 -10.065418
v 114.817757 4.645075 -11.597843
v 113.551331 4.434874 -12.657040
v 97.223869 -0.099144 -13.442204
v 101.716980 -0.031749 0.004863
v 96.931969 10.339423 0.004839
v 112.396347 10.140607 0.004841
v 114.002884 9.804343 0.004862
v 108.202377 11.015594 0.004833
v 93.690025 8.920254 0.004828
v 87.088074 9.214624 -10.722784
v 93.714394 -0.184293 -11.872094
v 87.001717 0.133126 0.004828
v 83.784370 11.901661 -14.408988
v 83.768608 0.221328 0.004829
v 80.472694 14.280282 0.004825
v 120.896027 11.220490 -9.854856
v 119.378456 5.158030 0.004797
v 106.568176 -12.499851 0.004791
v 100.460999 -15.144233 0.004802
v 110.876709 -9.557261 -11.308890
v 112.363968 -0.594022 -5.024527
v 111.215828 -5.670662 0.004804
v 111.136078 -7.180893 -11.835771
v 107.137169 -3.700169 0.004796
v 99.642853 -13.040178 -7.049850
v 103.230484 -11.306167 -11.609977
v 104.227303 -6.615755 0.004804
v 111.136078 -7.180893 -5.024527
v 111.215828 -5.670662 0.004814
v 113.319710 -3.352762 -5.723198
v 113.846962 8.968539 -10.065418
v 114.817757 4.645075 -9.305663
v 112.884575 -0.159802 0.004835
v 117.338333 8.132175 0.004841
v 114.002884 9.804343 0.004827
v 120.511848 6.544931 0.004828
v 116.280563 -3.595090 0.004827
v 123.522964 5.340435 0.004831
v 119.354881 -4.180032 -37.762909
v 94.328102 4.905111 -14.050182
v 107.076614 10.105910 -13.530587
v 101.094414 7.250367 -13.442204
v 101.716980 -0.031749 -13.530587
v 101.094414 7.250367 -15.050262
v 100.329430 6.884697 -11.835771
v 107.137169 -3.700169 -14.759046
v 100.587303 -0.362234 -10.962924
v 112.220581 8.167823 -11.308890
v 112.363968 -0.594022 -11.597843
v 113.551331 4.434874 -21.300091
v 98.023346 7.361816 -21.328728
v 98.192047 -0.771537 -25.960609
v 96.064156 7.509674 -26.203878
v 96.153061 -1.589031 -28.088196
v 94.100327 7.390380 -28.205175
v 94.296585 -1.937380 -36.022423
v 99.804123 8.224399 -33.912426
v 95.082870 5.384819 -33.934814
v 95.086227 -0.436546 -30.737816
v 94.534927 6.263489 -30.808908
v 94.615952 -0.963274 -33.912426
v 95.082870 5.384819 -33.934814
v 95.086227 -0.436546 -36.085640
v 99.831383 -3.121293 -13.442204
v 101.716980 -0.031749 -42.413124
v 92.722595 4.653463 -33.912426
v 95.082870 5.384819 -38.052006
v 103.972313 -0.880579 -38.150192
v 103.950912 5.753220 -19.702599
v 106.015640 13.198057 -12.735407
v 106.012321 13.740247 -10.268797
v 110.830475 13.700424 -12.357711
v 115.257385 11.505376 -17.086702
v 120.410301 8.775215 -14.737286
v 125.660385 2.808983 -13.029945
v 120.551750 9.677851 -24.113619
v 110.729439 9.240999 -28.794325
v 110.796692 2.843797 -19.702583
v 106.009598 -7.510120 -12.691735
v 105.997734 -8.046737 -10.283423
v 110.815933 -8.018332 -12.201554
v 115.188530 -5.846463 -17.087170
v 120.389473 -3.130406 -13.029948
v 120.523216 -4.037782 -24.113604
v 110.729637 -3.553463 0.004829
v 70.363930 0.609803 0.004828
v 70.636688 7.043686 0.004827
v 73.907639 11.139782 -1.665709
v 70.647247 0.660535 -4.512647
v 47.440887 1.563425 -4.895719
v 44.635242 1.578547 -4.991143
v 34.116882 2.655812 -2.262830
v 59.748657 1.097697 -6.671599
v 20.482712 3.588437 0.004825
v 71.171310 -5.938715 0.004827
v 77.000923 -7.377100 0.004829
v 70.363930 0.609803 0.004827
v 79.669846 9.834138 -11.736191
v 83.769485 -4.638111 0.004829
v 77.549309 13.311950 0.004828
v 83.720230 10.483592 0.004824
v 64.414757 17.468025 0.004825
v 71.378387 15.444270 0.004827
v 46.308201 21.211124 0.004829
v 57.451118 19.110579 0.004828
v 79.605240 11.345133 0.004827
v 85.176773 7.726412 0.004825
v 68.189461 16.066069 0.004823
v 74.808022 -11.914635 0.004826
v 65.107544 -13.947200 0.004829
v 82.829803 -9.404315 0.362064

vt 0.991447 0.081402
vt 0.763874 0.780280
vt 0.919926 0.888998
vt 0.284363 0.908895
vt 0.265656 0.959897
vt 0.246338 0.929105
vt 0.035569 0.958035
vt 0.048649 0.935174
vt 0.254100 0.995735
vt 0.308097 0.995735
vt 0.307679 0.995446
vt 0.489709 0.995446
vt 0.490030 0.995608
vt 0.419668 0.995446
vt 0.419678 0.081402
vt 0.545227 0.081402
vt 0.858942 0.626229
vt 0.962196 0.599545
vt 0.935017 0.613935
vt 0.267827 0.081402
vt 0.836669 0.613935
vt 0.348416 0.081402
vt 0.991035 0.477147
vt 0.538794 0.454960
vt 0.638184 0.518770
vt 0.631899 0.496609
vt 0.867520 0.332786
vt 0.745850 0.513214
vt 0.454939 0.465309
vt 0.455129 0.543176
vt 0.303191 0.490445
vt 0.355464 0.389041
vt 0.334214 0.503882
vt 0.410434 0.518464
vt 0.538465 0.521024
vt 0.682443 0.504762
vt 0.936764 0.550940
vt 0.910918 0.560001
vt 0.857136 0.445938
vt 0.927108 0.332787
vt 0.538646 0.194104
vt 0.544699 0.217276
vt 0.755658 0.212076
vt 0.641511 0.279951
vt 0.412417 0.332783
vt 0.455377 0.193047
vt 0.456856 0.332762
vt 0.339166 0.232788
vt 0.344516 0.278736
vt 0.338413 0.332775
vt 0.410551 0.199892
vt 0.410403 0.081402
vt 0.366729 0.168814
vt 0.985875 0.452903
vt 0.988060 0.892374
vt 0.901244 0.819517
vt 0.912287 0.833972
vt 0.978953 0.898995
vt 0.965993 0.890084
vt 0.850694 0.833860
vt 0.864682 0.454542
vt 0.694886 0.654295
vt 0.892360 0.720091
vt 0.909202 0.673138
vt 0.929644 0.687690
vt 0.963161 0.735139
vt 0.943189 0.081402
vt 0.458511 0.774796
vt 0.895385 0.613935
vt 0.537888 0.235839
vt 0.835765 0.303854
vt 0.747729 0.416994
vt 0.904902 0.362754
vt 0.988634 0.362720
vt 0.821525 0.362726
vt 0.950600 0.362714
vt 0.851618 0.362720
vt 0.922102 0.362708
vt 0.891513 0.292952
vt 0.954714 0.292978
vt 0.789609 0.693619
vt 0.704296 0.741491
vt 0.716101 0.861844
vt 0.719487 0.777594
vt 0.721994 0.825206
vt 0.722115 0.725129
vt 0.653123 0.883811
vt 0.650547 0.958523
vt 0.705185 0.985189
vt 0.705291 0.839643
vt 0.653441 0.770292
vt 0.655346 0.651658
vt 0.595106 0.953801
vt 0.673768 0.764433
vt 0.594644 0.899372
vt 0.592127 0.850438
vt 0.592844 0.713777
vt 0.607456 0.638061
vt 0.572532 0.762835
vt 0.575076 0.705859
vt 0.564843 0.709686
vt 0.585526 0.853093
vt 0.574063 0.908095
vt 0.570185 0.952513
vt 0.660788 0.697856
vt 0.534527 0.853974
vt 0.534454 0.952474
vt 0.642610 0.915248
vt 0.534222 0.763062
vt 0.534692 0.625559
vt 0.534863 0.296816
vt 0.652448 0.292941
vt 0.922263 0.834943
vt 0.502434 0.783954
vt 0.502392 0.292898
vt 0.821613 0.327865
vt 0.789752 0.327830
vt 0.922183 0.327809
vt 0.851703 0.327819
vt 0.891644 0.327839
vt 0.952657 0.327809
vt 0.821569 0.081402
vt 0.644548 0.613935
vt 0.630599 0.782020
vt 0.855007 0.983137
vt 0.792995 0.983137
vt 0.961398 0.983137
vt 0.893035 0.613935
vt 0.454831 0.613935
vt 0.410618 0.983137
vt 0.977483 0.081402
vt 0.412636 0.460351
vt 0.266626 0.607737
vt 0.149679 0.477174
vt 0.166177 0.397011
vt 0.215964 0.424509
vt 0.074671 0.352192
vt 0.127502 0.334362
vt 0.106591 0.499426
vt 0.016701 0.620835
vt 0.082536 0.519390
vt 0.058216 0.567481
vt 0.124658 0.500301
vt 0.315672 0.611028
vt 0.217876 0.577982
vt 0.032738 0.573368
vt 0.740977 0.541612
vt 0.222549 0.607737
vt 0.149679 0.477174
vt 0.166177 0.424509
vt 0.074671 0.499426
vt 0.016701 0.620835
vt 0.082536 0.519390
vt 0.058216 0.567481
vt 0.124658 0.611028
vt 0.217876 0.577982
vt 0.032738 0.541612
vt 0.222549 0.575734
vt 0.823868 0.160803
vt 0.856686 0.454596
vt 0.840875 0.454243
vt 0.746972 0.332787
vt 0.659324 0.959670
vt 0.737547 0.715548
vt 0.859845 0.518617
vt 0.585182 0.466054
vt 0.588489 0.613935
vt 0.584243 0.332787
vt 0.598985 0.245460
vt 0.598574 0.081402
vt 0.594887 0.203090
vt 0.593105 0.995952
vt 0.058355 0.951611
vt 0.180554 0.955508
vt 0.212046 0.948333
vt 0.149347 0.948725
vt 0.087541 0.946676
vt 0.120484 0.914680
vt 0.150271 0.917249
vt 0.118120 0.928491
vt 0.209499 0.921162
vt 0.177813 0.631134
vt 0.073837 0.631129
vt 0.228099 0.631101
vt 0.156516 0.631121
vt 0.028579 0.631110
vt 0.115959 0.631108
vt 0.192657 0.888998
vt 0.284363 0.919879
vt 0.049515 0.850014
vt 0.159322 0.851857
vt 0.088419 0.848454
vt 0.055867 0.839276
vt 0.022376 0.900452
vt 0.204084 0.852268
vt 0.119677 0.787836
vt 0.060817 0.759741
vt 0.028627 0.769634
vt 0.232522 0.772061
vt 0.198339 0.791852
vt 0.119063 0.766172
vt 0.158365 0.845506
vt 0.239034 0.848811
vt 0.200928 0.773038
vt 0.090917 0.769891
vt 0.062860 0.773553
vt 0.119158 0.752940
vt 0.092122 0.755675
vt 0.121498 0.754364
vt 0.064409 0.708015
vt 0.157644 0.709103
vt 0.195275 0.709379
vt 0.228164 0.704030
vt 0.028245 0.901243
vt 0.243371 0.791080
vt 0.089551 0.781338
vt 0.159406 0.772061
vt 0.198339 0.769634
vt 0.232522 0.772936
vt 0.268470 0.921355
vt 0.086356 0.987897
vt 0.091786 0.981508
vt 0.121921 0.260782
vt 0.043390 0.311107
vt 0.330198 0.435805
vt 0.410563 0.229033
vt 0.284815 0.120859
vt 0.280644 0.178423
vt 0.280505 0.346726
vt 0.267750 0.300518
vt 0.230156 0.259291
vt 0.207123 0.143529
vt 0.195349 0.209352
vt 0.194894 0.330500
vt 0.156536 0.343946
vt 0.211374 0.294560
vt 0.100682 0.279334
vt 0.129119 0.236501
vt 0.107040 0.166440
vt 0.106451 0.177794
vt 0.073649 0.135275
vt 0.062353 0.105197
vt 0.028913 0.328917
vt 0.298974 0.285403
vt 0.268322 0.132194
vt 0.237997 0.244162
vt 0.245969 0.193888
vt 0.237700 0.154985
vt 0.150900 0.269312
vt 0.168121 0.315509
vt 0.193346 0.222927
vt 0.150967 0.056107
vt 0.284808 0.056473
vt 0.114003 0.051386
vt 0.206415 0.051340
vt 0.045777 0.053747
vt 0.245612 0.053930
vt 0.160209 0.089415
vt 0.282666 0.094295
vt 0.241675 0.100970
vt 0.200460 0.110049
vt 0.155040 0.118634
vt 0.109734 0.911199
vt 0.489749 0.841946
vt 0.489801 0.822992
vt 0.489896 0.886906
vt 0.489990 0.875425
vt 0.307715 0.767444
vt 0.307825 0.823767
vt 0.419675 0.888705
vt 0.419677 0.777562
vt 0.419673 0.776146
vt 0.308066 0.882292
vt 0.308100 0.805976
vt 0.419671 0.888183
vt 0.419669 0.734866
vt 0.308000 0.477147
vt 0.538794 0.454960
vt 0.638184 0.518770
vt 0.631899 0.496609
vt 0.867520 0.332786
vt 0.745850 0.513214
vt 0.454939 0.465309
vt 0.455129 0.543176
vt 0.303191 0.490445
vt 0.355464 0.389041
vt 0.334214 0.503882
vt 0.410434 0.518464
vt 0.538465 0.521024
vt 0.682443 0.504762
vt 0.936764 0.550940
vt 0.910918 0.560001
vt 0.857136 0.445938
vt 0.927108 0.332787
vt 0.538646 0.194104
vt 0.544699 0.217276
vt 0.755658 0.212076
vt 0.641511 0.279951
vt 0.412417 0.332783
vt 0.455377 0.193047
vt 0.456856 0.332762
vt 0.339166 0.232788
vt 0.344516 0.278736
vt 0.338413 0.332775
vt 0.410551 0.199892
vt 0.410403 0.168814
vt 0.985875 0.452903
vt 0.988060 0.892374
vt 0.901244 0.819517
vt 0.912287 0.833972
vt 0.978953 0.898995
vt 0.965993 0.890084
vt 0.850694 0.833860
vt 0.864682 0.454542
vt 0.694886 0.654295
vt 0.892360 0.720091
vt 0.909202 0.673138
vt 0.929644 0.687690
vt 0.963161 0.735139
vt 0.943189 0.235839
vt 0.835765 0.303854
vt 0.747729 0.416994
vt 0.904902 0.362754
vt 0.988634 0.362720
vt 0.821525 0.362726
vt 0.950600 0.362714
vt 0.851618 0.362720
vt 0.922102 0.362708
vt 0.891513 0.292952
vt 0.954714 0.292978
vt 0.789609 0.693619
vt 0.704296 0.741491
vt 0.716101 0.861844
vt 0.719487 0.777594
vt 0.721994 0.825206
vt 0.722115 0.725129
vt 0.653123 0.883811
vt 0.650547 0.958523
vt 0.705185 0.985189
vt 0.705291 0.839643
vt 0.653441 0.770292
vt 0.655346 0.651658
vt 0.595106 0.953801
vt 0.673768 0.764433
vt 0.594644 0.899372
vt 0.592127 0.850438
vt 0.592844 0.713777
vt 0.607456 0.638061
vt 0.572532 0.762835
vt 0.575076 0.705859
vt 0.564843 0.709686
vt 0.585526 0.853093
vt 0.574063 0.908095
vt 0.570185 0.952513
vt 0.660788 0.697856
vt 0.534527 0.853974
vt 0.534454 0.952474
vt 0.642610 0.915248
vt 0.534222 0.763062
vt 0.534692 0.625559
vt 0.534863 0.296816
vt 0.652448 0.292941
vt 0.922263 0.834943
vt 0.502434 0.783954
vt 0.502392 0.292898
vt 0.821613 0.327865
vt 0.789752 0.327830
vt 0.922183 0.327809
vt 0.851703 0.327819
vt 0.891644 0.327839
vt 0.952657 0.327809
vt 0.821569 0.460351
vt 0.266626 0.607737
vt 0.149679 0.477174
vt 0.166177 0.397011
vt 0.215964 0.424509
vt 0.074671 0.352192
vt 0.127502 0.334362
vt 0.106591 0.499426
vt 0.016701 0.620835
vt 0.082536 0.519390
vt 0.058216 0.567481
vt 0.124658 0.500301
vt 0.315672 0.611028
vt 0.217876 0.577982
vt 0.032738 0.573368
vt 0.740977 0.541612
vt 0.222549 0.607737
vt 0.149679 0.477174
vt 0.166177 0.424509
vt 0.074671 0.499426
vt 0.016701 0.620835
vt 0.082536 0.519390
vt 0.058216 0.567481
vt 0.124658 0.611028
vt 0.217876 0.577982
vt 0.032738 0.541612
vt 0.222549 0.575734
vt 0.823868 0.160803
vt 0.856686 0.454596
vt 0.840875 0.454243
vt 0.746972 0.332787
vt 0.659324 0.959670
vt 0.737547 0.715548
vt 0.859845 0.518617
vt 0.585182 0.466054
vt 0.588489 0.332787
vt 0.598985 0.245460
vt 0.598574 0.203090
vt 0.593105 0.995952
vt 0.058355 0.951611
vt 0.180554 0.955508
vt 0.212046 0.948333
vt 0.149347 0.948725
vt 0.087541 0.946676
vt 0.120484 0.914680
vt 0.150271 0.917249
vt 0.118120 0.928491
vt 0.209499 0.921162
vt 0.177813 0.631134
vt 0.073837 0.631129
vt 0.228099 0.631101
vt 0.156516 0.631121
vt 0.028579 0.631110
vt 0.115959 0.631108
vt 0.192657 0.888998
vt 0.284363 0.919879
vt 0.049515 0.850014
vt 0.159322 0.851857
vt 0.088419 0.848454
vt 0.055867 0.839276
vt 0.022376 0.900452
vt 0.204084 0.852268
vt 0.119677 0.787836
vt 0.060817 0.759741
vt 0.028627 0.769634
vt 0.232522 0.772061
vt 0.198339 0.791852
vt 0.119063 0.766172
vt 0.158365 0.845506
vt 0.239034 0.848811
vt 0.200928 0.773038
vt 0.090917 0.769891
vt 0.062860 0.773553
vt 0.119158 0.752940
vt 0.092122 0.755675
vt 0.121498 0.754364
vt 0.064409 0.708015
vt 0.157644 0.709103
vt 0.195275 0.709379
vt 0.228164 0.704030
vt 0.028245 0.901243
vt 0.243371 0.791080
vt 0.089551 0.781338
vt 0.159406 0.772061
vt 0.198339 0.769634
vt 0.232522 0.772936
vt 0.268470 0.921355
vt 0.086356 0.987897
vt 0.091786 0.981508
vt 0.121921 0.260782
vt 0.043390 0.311107
vt 0.330198 0.435805
vt 0.410563 0.229033
vt 0.284815 0.120859
vt 0.280644 0.178423
vt 0.280505 0.346726
vt 0.267750 0.300518
vt 0.230156 0.259291
vt 0.207123 0.143529
vt 0.195349 0.209352
vt 0.194894 0.330500
vt 0.156536 0.343946
vt 0.211374 0.294560
vt 0.100682 0.279334
vt 0.129119 0.236501
vt 0.107040 0.166440
vt 0.106451 0.177794
vt 0.073649 0.135275
vt 0.062353 0.105197
vt 0.028913 0.328917
vt 0.298974 0.285403
vt 0.268322 0.132194
vt 0.237997 0.244162
vt 0.245969 0.193888
vt 0.237700 0.154985
vt 0.150900 0.269312
vt 0.168121 0.315509
vt 0.193346 0.222927
vt 0.150967 0.089415
vt 0.282666 0.094295
vt 0.241675 0.100970
vt 0.200460 0.110049
vt 0.155040 0.118634
vt 0.109734 0.911199
vt 0.489749 0.841946
vt 0.489801 0.822992
vt 0.489896 0.886906
vt 0.489990 0.875425
vt 0.307715 0.767444
vt 0.307825 0.823767
vt 0.419675 0.888705
vt 0.419677 0.777562
vt 0.419673 0.776146
vt 0.308066 0.882292
vt 0.308100 0.805976
vt 0.419671 0.888183
vt 0.419669 0.734866
vt 0.308000 0.266762
vt 0.892053 0.246302
vt 0.910623 0.332690
vt 0.600851 0.332686
vt 0.661191 0.332693
vt 0.540512 0.332694
vt 0.457243 0.332701
vt 0.412418 0.242608
vt 0.969940 0.820556
vt 0.995092 0.905847
vt 0.982216 0.802288
vt 0.916007 0.983137
vt 0.775275 0.896990
vt 0.826026 0.826205
vt 0.850427 0.803790
vt 0.814281 0.755427
vt 0.803066 0.600829
vt 0.872317 0.645911
vt 0.833976 0.688294
vt 0.807799 0.565975
vt 0.915955 0.327856
vt 0.988711 0.733450
vt 0.743977 0.690620
vt 0.714255 0.958787
vt 0.744786 0.983437
vt 0.735818 0.984631
vt 0.741582 0.908410
vt 0.703007 0.857935
vt 0.764470 0.768695
vt 0.759648 0.829756
vt 0.766899 0.798109
vt 0.764660 0.672404
vt 0.648684 0.936330
vt 0.646495 0.987089
vt 0.674733 0.958398
vt 0.590276 0.987826
vt 0.661384 0.972055
vt 0.567449 0.747782
vt 0.502565 0.960030
vt 0.624826 0.979116
vt 0.624866 0.987191
vt 0.642718 0.986382
vt 0.534018 0.705894
vt 0.502756 0.871346
vt 0.502426 0.911343
vt 0.502345 0.909103
vt 0.715915 0.362753
vt 0.789894 0.292957
vt 0.988789 0.292929
vt 0.891775 0.292903
vt 0.851789 0.524644
vt 0.721421 0.511822
vt 0.746006 0.516883
vt 0.767996 0.536176
vt 0.781190 0.575057
vt 0.786495 0.606974
vt 0.784899 0.555646
vt 0.793210 0.553484
vt 0.712256 0.582764
vt 0.708397 0.524644
vt 0.721421 0.511822
vt 0.746006 0.516883
vt 0.767996 0.536176
vt 0.781190 0.575057
vt 0.786495 0.555646
vt 0.793210 0.553484
vt 0.712256 0.900176
vt 0.012969 0.774524
vt 0.025544 0.758207
vt 0.267569 0.703079
vt 0.265669 0.835601
vt 0.274569 0.631130
vt 0.261120 0.900176
vt 0.012969 0.270289
vt 0.306487 0.613935
vt 0.630599 0.613935
vt 0.584243 0.613935
vt 0.537888 0.613935
vt 0.454831 0.613935
vt 0.410618 0.613935
vt 0.348416 0.613935
vt 0.267827 0.081402
vt 0.644548 0.246302
vt 0.910623 0.266762
vt 0.892053 0.332690
vt 0.600851 0.332686
vt 0.661191 0.081402
vt 0.594887 0.081402
vt 0.836669 0.081402
vt 0.858942 0.081402
vt 0.763874 0.081402
vt 0.545227 0.081402
vt 0.458511 0.332693
vt 0.540512 0.332694
vt 0.457243 0.081402
vt 0.412636 0.332701
vt 0.412418 0.081402
vt 0.366729 0.081402
vt 0.991035 0.242608
vt 0.969940 0.983137
vt 0.893035 0.983137
vt 0.792995 0.983137
vt 0.961398 0.820556
vt 0.995092 0.905847
vt 0.982216 0.983137
vt 0.977483 0.802288
vt 0.916007 0.983137
vt 0.775275 0.896990
vt 0.826026 0.826205
vt 0.850427 0.803790
vt 0.814281 0.755427
vt 0.803066 0.782020
vt 0.855007 0.600829
vt 0.872317 0.645911
vt 0.833976 0.688294
vt 0.807799 0.599545
vt 0.935017 0.565975
vt 0.915955 0.626229
vt 0.962196 0.774796
vt 0.895385 0.637936
vt 0.991447 0.780280
vt 0.919926 0.327856
vt 0.988711 0.733450
vt 0.743977 0.690620
vt 0.714255 0.958787
vt 0.744786 0.984631
vt 0.741582 0.983437
vt 0.735818 0.857935
vt 0.764470 0.908410
vt 0.703007 0.768695
vt 0.759648 0.829756
vt 0.766899 0.798109
vt 0.764660 0.672404
vt 0.648684 0.936330
vt 0.646495 0.987089
vt 0.674733 0.958398
vt 0.590276 0.987826
vt 0.661384 0.972055
vt 0.567449 0.747782
vt 0.502565 0.979116
vt 0.624866 0.960030
vt 0.624826 0.987191
vt 0.642718 0.986382
vt 0.534018 0.705894
vt 0.502756 0.911343
vt 0.502345 0.871346
vt 0.502426 0.909103
vt 0.715915 0.362753
vt 0.789894 0.292957
vt 0.988789 0.292929
vt 0.891775 0.292903
vt 0.851789 0.524644
vt 0.721421 0.511822
vt 0.746006 0.516883
vt 0.767996 0.536176
vt 0.781190 0.575057
vt 0.786495 0.606974
vt 0.784899 0.555646
vt 0.793210 0.553484
vt 0.712256 0.582764
vt 0.708397 0.524644
vt 0.721421 0.511822
vt 0.746006 0.516883
vt 0.767996 0.536176
vt 0.781190 0.575057
vt 0.786495 0.555646
vt 0.793210 0.553484
vt 0.712256 0.888998
vt 0.284363 0.908895
vt 0.265656 0.935174
vt 0.254100 0.900176
vt 0.012969 0.774524
vt 0.025544 0.758207
vt 0.267569 0.703079
vt 0.265669 0.835601
vt 0.274569 0.631130
vt 0.261120 0.929105
vt 0.035569 0.958035
vt 0.048649 0.900176
vt 0.012969 0.959897
vt 0.246338 0.270289
vt 0.306487 0.053747
vt 0.245612 0.056107
vt 0.284808 0.053930
vt 0.160209 0.051386
vt 0.206415 0.051340
vt 0.045777 0.056473
vt 0.114003 0.995446
vt 0.419678 0.995446
vt 0.490030 0.995735
vt 0.308097 0.995608
vt 0.419668 0.995735
vt 0.307679 0.995446
vt 0.489709 1.000000

f 189/189 5/5 4/4
f 181/181 9/9 195/195
f 179/179 196/196 180/180
f 196/196 179/179 191/191
f 221/221 177/177 180/180
f 180/180 196/196 192/192
f 215/215 203/203 195/195
f 195/195 204/204 182/182
f 190/190 193/193 194/194
f 576/576 190/190 194/194
f 192/192 197/197 193/193
f 197/197 192/192 216/216
f 220/220 219/219 203/203
f 217/217 191/191 218/218
f 196/196 201/201 216/216
f 216/216 192/192 196/196
f 206/206 198/198 577/577
f 577/577 193/193 197/197
f 207/207 201/201 217/217
f 200/200 219/219 199/199
f 219/219 200/200 218/218
f 203/203 204/204 195/195
f 197/197 205/205 206/206
f 205/205 197/197 216/216
f 201/201 205/205 216/216
f 205/205 201/201 207/207
f 217/217 202/202 207/207
f 577/577 197/197 206/206
f 212/212 202/202 200/200
f 202/202 212/212 211/211
f 208/208 206/206 205/205
f 206/206 208/208 210/210
f 207/207 208/208 205/205
f 208/208 207/207 209/209
f 214/214 183/183 186/186
f 183/183 214/214 210/210
f 578/578 213/213 199/199
f 213/213 578/578 579/579
f 200/200 213/213 212/212
f 213/213 200/200 199/199
f 202/202 209/209 207/207
f 187/187 211/211 185/185
f 211/211 187/187 209/209
f 211/211 209/209 202/202
f 198/198 206/206 210/210
f 209/209 187/187 208/208
f 183/183 208/208 187/187
f 210/210 214/214 198/198
f 580/580 203/203 215/215
f 215/215 189/189 580/580
f 210/210 208/208 183/183
f 212/212 185/185 211/211
f 185/185 212/212 188/188
f 188/188 212/212 213/213
f 213/213 184/184 188/188
f 581/581 213/213 579/579
f 213/213 581/581 184/184
f 9/9 215/215 195/195
f 190/190 7/7 177/177
f 191/191 179/179 182/182
f 190/190 192/192 193/193
f 221/221 190/190 177/177
f 576/576 7/7 190/190
f 195/195 182/182 181/181
f 217/217 200/200 202/202
f 191/191 201/201 196/196
f 220/220 578/578 199/199
f 204/204 191/191 182/182
f 177/177 7/7 8/8
f 7/7 576/576 582/582
f 215/215 9/9 5/5
f 215/215 5/5 189/189
f 181/181 6/6 9/9
f 174/174 182/182 176/176
f 178/178 176/176 180/180
f 174/174 175/175 181/181
f 6/6 181/181 175/175
f 182/182 179/179 176/176
f 179/179 180/180 176/176
f 180/180 177/177 178/178
f 181/181 182/182 174/174
f 218/218 200/200 217/217
f 217/217 201/201 191/191
f 203/203 218/218 204/204
f 218/218 191/191 204/204
f 220/220 199/199 219/219
f 218/218 203/203 219/219
f 193/193 577/577 194/194
f 580/580 220/220 203/203
f 192/192 190/190 221/221
f 192/192 221/221 180/180
f 173/173 222/222 177/177
f 222/222 223/223 178/178
f 178/178 177/177 222/222
f 177/177 8/8 173/173
f 223/223 176/176 178/178
f 268/268 276/276 269/269
f 275/275 276/276 265/265
f 275/275 277/277 269/269
f 277/277 275/275 272/272
f 271/271 270/270 267/267
f 267/267 270/270 266/266
f 271/271 13/13 15/15
f 13/13 271/271 267/267
f 273/273 271/271 274/274
f 271/271 273/273 270/270
f 274/274 15/15 10/10
f 15/15 274/274 271/271
f 265/265 276/276 264/264
f 276/276 275/275 269/269
f 268/268 14/14 276/276
f 14/14 268/268 11/11
f 12/12 276/276 14/14
f 276/276 12/12 264/264
f 266/266 275/275 265/265
f 275/275 266/266 272/272
f 272/272 273/273 277/277
f 273/273 272/272 270/270
f 266/266 270/270 272/272
f 427/427 677/677 678/678
f 419/419 433/433 679/679
f 417/417 418/418 434/434
f 434/434 429/429 417/417
f 459/459 418/418 415/415
f 418/418 430/430 434/434
f 453/453 433/433 441/441
f 433/433 420/420 442/442
f 428/428 432/432 431/431
f 680/680 432/432 428/428
f 430/430 431/431 435/435
f 435/435 454/454 430/430
f 458/458 441/441 457/457
f 455/455 456/456 429/429
f 434/434 454/454 439/439
f 454/454 434/434 430/430
f 444/444 681/681 436/436
f 681/681 435/435 431/431
f 445/445 455/455 439/439
f 438/438 437/437 457/457
f 457/457 456/456 438/438
f 441/441 433/433 442/442
f 435/435 444/444 443/443
f 443/443 454/454 435/435
f 439/439 454/454 443/443
f 443/443 445/445 439/439
f 455/455 445/445 440/440
f 681/681 444/444 435/435
f 450/450 438/438 440/440
f 440/440 449/449 450/450
f 446/446 443/443 444/444
f 444/444 448/448 446/446
f 445/445 443/443 446/446
f 446/446 447/447 445/445
f 452/452 424/424 421/421
f 421/421 448/448 452/452
f 682/682 437/437 451/451
f 451/451 683/683 682/682
f 438/438 450/450 451/451
f 451/451 437/437 438/438
f 440/440 445/445 447/447
f 425/425 423/423 449/449
f 449/449 447/447 425/425
f 449/449 440/440 447/447
f 436/436 448/448 444/444
f 447/447 446/446 425/425
f 421/421 425/425 446/446
f 448/448 436/436 452/452
f 684/684 453/453 441/441
f 453/453 684/684 427/427
f 448/448 421/421 446/446
f 450/450 449/449 423/423
f 423/423 426/426 450/450
f 426/426 451/451 450/450
f 451/451 426/426 422/422
f 685/685 683/683 451/451
f 451/451 422/422 685/685
f 679/679 433/433 453/453
f 428/428 415/415 686/686
f 429/429 420/420 417/417
f 428/428 431/431 430/430
f 459/459 415/415 428/428
f 680/680 428/428 686/686
f 433/433 419/419 420/420
f 455/455 440/440 438/438
f 429/429 434/434 439/439
f 458/458 437/437 682/682
f 442/442 420/420 429/429
f 415/415 687/687 686/686
f 686/686 688/688 680/680
f 453/453 678/678 679/679
f 453/453 427/427 678/678
f 419/419 679/679 689/689
f 412/412 414/414 420/420
f 416/416 418/418 414/414
f 412/412 419/419 413/413
f 689/689 413/413 419/419
f 420/420 414/414 417/417
f 417/417 414/414 418/418
f 418/418 416/416 415/415
f 419/419 412/412 420/420
f 456/456 455/455 438/438
f 455/455 429/429 439/439
f 441/441 442/442 456/456
f 456/456 442/442 429/429
f 458/458 457/457 437/437
f 456/456 457/457 441/441
f 431/431 432/432 681/681
f 684/684 441/441 458/458
f 430/430 459/459 428/428
f 430/430 418/418 459/459
f 411/411 415/415 460/460
f 460/460 416/416 461/461
f 416/416 460/460 415/415
f 415/415 411/411 687/687
f 461/461 416/416 414/414
f 500/500 501/501 508/508
f 507/507 497/497 508/508
f 507/507 501/501 509/509
f 509/509 504/504 507/507
f 503/503 499/499 502/502
f 499/499 498/498 502/502
f 503/503 697/697 698/698
f 698/698 499/499 503/503
f 505/505 506/506 503/503
f 503/503 502/502 505/505
f 506/506 699/699 697/697
f 697/697 503/503 506/506
f 497/497 496/496 508/508
f 508/508 501/501 507/507
f 500/500 508/508 700/700
f 700/700 701/701 500/500
f 702/702 700/700 508/508
f 508/508 496/496 702/702
f 498/498 497/497 507/507
f 507/507 504/504 498/498
f 504/504 509/509 505/505
f 505/505 502/502 504/504
f 498/498 504/504 502/502
f 24/24 35/35 163/163
f 163/163 25/25 28/28
f 162/162 161/161 124/124
f 124/124 26/26 73/73
f 159/159 27/27 40/40
f 161/161 27/27 162/162
f 28/28 163/163 41/41
f 41/41 24/24 46/46
f 30/30 24/24 41/41
f 46/46 24/24 30/30
f 24/24 30/30 70/70
f 70/70 35/35 130/130
f 129/129 34/34 226/226
f 30/30 46/46 226/226
f 46/46 51/51 226/226
f 226/226 34/34 29/29
f 34/34 129/129 226/226
f 32/32 34/34 31/31
f 20/20 22/22 31/31
f 22/22 34/34 31/31
f 22/22 130/130 51/51
f 51/51 48/48 124/124
f 26/26 36/36 37/37
f 27/27 37/37 39/39
f 27/27 159/159 38/38
f 27/27 39/39 43/43
f 123/123 44/44 71/71
f 510/510 511/511 512/512
f 512/512 513/513 123/123
f 123/123 171/171 44/44
f 44/44 172/172 72/72
f 71/71 43/43 160/160
f 43/43 71/71 21/21
f 160/160 17/17 43/43
f 160/160 2/2 71/71
f 511/511 160/160 112/112
f 72/72 44/44 43/43
f 44/44 72/72 43/43
f 2/2 123/123 16/16
f 68/68 42/42 514/514
f 42/42 515/515 68/68
f 47/47 515/515 52/52
f 68/68 132/132 45/45
f 515/515 47/47 52/52
f 45/45 47/47 515/515
f 45/45 516/516 132/132
f 132/132 53/53 49/49
f 52/52 49/49 45/45
f 45/45 50/50 160/160
f 21/21 2/2 160/160
f 160/160 54/54 511/511
f 511/511 517/517 56/56
f 57/57 61/61 58/58
f 56/56 59/59 60/60
f 126/126 128/128 57/57
f 56/56 58/58 128/128
f 128/128 56/56 59/59
f 59/59 519/519 127/127
f 127/127 131/131 58/58
f 58/58 518/518 60/60
f 60/60 522/522 57/57
f 57/57 520/520 61/61
f 61/61 523/523 56/56
f 127/127 59/59 524/524
f 125/125 525/525 165/165
f 525/525 125/125 526/526
f 527/527 63/63 165/165
f 528/528 525/525 527/527
f 527/527 528/528 526/526
f 529/529 526/526 65/65
f 63/63 64/64 19/19
f 63/63 18/18 125/125
f 65/65 18/18 64/64
f 1/1 18/18 67/67
f 69/69 3/3 66/66
f 65/65 64/64 66/66
f 18/18 65/65 81/81
f 81/81 117/117 76/76
f 76/76 74/74 80/80
f 80/80 113/113 79/79
f 79/79 78/78 77/77
f 119/119 77/77 531/531
f 531/531 532/532 533/533
f 533/533 164/164 84/84
f 536/536 537/537 538/538
f 531/531 83/83 539/539
f 539/539 86/86 83/83
f 85/85 538/538 540/540
f 540/540 85/85 538/538
f 85/85 540/540 89/89
f 164/164 89/89 541/541
f 82/82 541/541 88/88
f 88/88 542/542 91/91
f 86/86 91/91 87/87
f 83/83 87/87 92/92
f 91/91 86/86 85/85
f 92/92 86/86 541/541
f 93/93 87/87 98/98
f 87/87 93/93 543/543
f 90/90 94/94 89/89
f 94/94 90/90 92/92
f 95/95 91/91 97/97
f 91/91 95/95 88/88
f 96/96 88/88 87/87
f 98/98 92/92 95/95
f 92/92 98/98 544/544
f 96/96 544/544 111/111
f 99/99 111/111 94/94
f 105/105 545/545 107/107
f 114/114 107/107 97/97
f 100/100 103/103 546/546
f 544/544 96/96 97/97
f 103/103 96/96 106/106
f 110/110 106/106 99/99
f 101/101 102/102 94/94
f 545/545 543/543 97/97
f 95/95 100/100 102/102
f 100/100 95/95 102/102
f 93/93 99/99 95/95
f 101/101 100/100 102/102
f 98/98 93/93 104/104
f 104/104 546/546 108/108
f 550/550 108/108 109/109
f 104/104 109/109 107/107
f 103/103 107/107 111/111
f 106/106 111/111 103/103
f 107/107 103/103 110/110
f 106/106 110/110 550/550
f 108/108 550/550 109/109
f 551/551 109/109 114/114
f 107/107 114/114 537/537
f 536/536 555/555 75/75
f 75/75 122/122 80/80
f 121/121 118/118 120/120
f 120/120 118/118 116/116
f 116/116 122/122 119/119
f 119/119 120/120 143/143
f 134/134 143/143 133/133
f 136/136 133/133 135/135
f 136/136 135/135 146/146
f 140/140 137/137 139/139
f 138/138 137/137 134/134
f 141/141 143/143 146/146
f 141/141 146/146 148/148
f 133/133 144/144 134/134
f 148/148 145/145 560/560
f 561/561 147/147 562/562
f 563/563 147/147 561/561
f 562/562 147/147 564/564
f 565/565 147/147 566/566
f 564/564 147/147 563/563
f 566/566 147/147 567/567
f 560/560 147/147 568/568
f 567/567 147/147 155/155
f 155/155 149/149 133/133
f 133/133 136/136 150/150
f 150/150 136/136 157/157
f 151/151 152/152 139/139
f 151/151 138/138 149/149
f 155/155 153/153 157/157
f 157/157 153/153 158/158
f 144/144 133/133 149/149
f 156/156 158/158 569/569
f 147/147 570/570 571/571
f 147/147 572/572 570/570
f 147/147 571/571 573/573
f 147/147 565/565 574/574
f 147/147 573/573 572/572
f 147/147 574/574 575/575
f 147/147 569/569 568/568
f 147/147 575/575 167/167
f 167/167 166/166 70/70
f 70/70 168/168 169/169
f 169/169 167/167 514/514
f 514/514 512/512 42/42
f 42/42 172/172 170/170
f 172/172 42/42 583/583
f 583/583 245/245 257/257
f 257/257 260/260 227/227
f 227/227 247/247 229/229
f 229/229 228/228 227/227
f 227/227 229/229 236/236
f 251/251 235/235 258/258
f 258/258 262/262 235/235
f 235/235 251/251 239/239
f 239/239 238/238 234/234
f 234/234 233/233 235/235
f 237/237 238/238 239/239
f 240/240 224/224 243/243
f 254/254 256/256 224/224
f 242/242 241/241 254/254
f 242/242 263/263 254/254
f 243/243 242/242 230/230
f 230/230 244/244 255/255
f 255/255 261/261 231/231
f 231/231 245/245 248/248
f 248/248 246/246 247/247
f 247/247 248/248 254/254
f 254/254 263/263 232/232
f 232/232 250/250 252/252
f 252/252 249/249 236/236
f 236/236 230/230 228/228
f 228/228 259/259 246/246
f 246/246 260/260 233/233
f 233/233 261/261 249/249
f 249/249 262/262 263/263
f 242/242 240/240 278/278
f 289/289 278/278 403/403
f 279/279 403/403 282/282
f 401/401 402/402 584/584
f 280/280 584/584 323/323
f 281/281 399/399 294/294
f 281/281 401/401 402/402
f 403/403 282/282 295/295
f 278/278 295/295 300/300
f 278/278 284/284 295/295
f 278/278 300/300 284/284
f 284/284 278/278 586/586
f 289/289 586/586 588/588
f 288/288 587/587 464/464
f 300/300 284/284 464/464
f 305/305 300/300 464/464
f 288/288 464/464 283/283
f 587/587 288/288 464/464
f 288/288 286/286 285/285
f 589/589 590/590 285/285
f 288/288 589/589 285/285
f 588/588 589/589 305/305
f 302/302 305/305 584/584
f 290/290 280/280 291/291
f 291/291 281/281 293/293
f 399/399 281/281 292/292
f 293/293 281/281 297/297
f 298/298 591/591 321/321
f 592/592 593/593 594/594
f 595/595 594/594 591/591
f 596/596 591/591 298/298
f 410/410 298/298 322/322
f 297/297 321/321 400/400
f 321/321 297/297 597/597
f 598/598 400/400 297/297
f 599/599 400/400 321/321
f 400/400 592/592 362/362
f 298/298 322/322 297/297
f 322/322 298/298 297/297
f 591/591 599/599 600/600
f 296/296 601/601 602/602
f 603/603 296/296 601/601
f 603/603 301/301 306/306
f 604/604 601/601 299/299
f 301/301 603/603 306/306
f 301/301 299/299 603/603
f 605/605 299/299 604/604
f 606/606 604/604 303/303
f 303/303 306/306 299/299
f 304/304 299/299 400/400
f 599/599 597/597 400/400
f 307/307 400/400 592/592
f 608/608 592/592 309/309
f 314/314 310/310 311/311
f 312/312 309/309 313/313
f 609/609 610/610 310/310
f 311/311 309/309 609/609
f 309/309 609/609 312/312
f 613/613 312/312 611/611
f 614/614 611/611 311/311
f 612/612 311/311 313/313
f 617/617 313/313 310/310
f 615/615 310/310 314/314
f 618/618 314/314 309/309
f 312/312 611/611 619/619
f 620/620 621/621 405/405
f 621/621 620/620 622/622
f 316/316 623/623 405/405
f 620/620 624/624 623/623
f 624/624 623/623 622/622
f 622/622 626/626 318/318
f 317/317 316/316 625/625
f 627/627 316/316 621/621
f 627/627 318/318 317/317
f 627/627 629/629 320/320
f 630/630 628/628 319/319
f 317/317 318/318 319/319
f 318/318 627/627 331/331
f 367/367 331/331 326/326
f 324/324 326/326 330/330
f 363/363 330/330 329/329
f 328/328 329/329 327/327
f 327/327 369/369 632/632
f 633/633 632/632 634/634
f 404/404 634/634 334/334
f 637/637 638/638 639/639
f 333/333 632/632 640/640
f 336/336 640/640 333/333
f 639/639 335/335 641/641
f 335/335 641/641 639/639
f 641/641 335/335 339/339
f 339/339 404/404 642/642
f 642/642 332/332 338/338
f 643/643 338/338 341/341
f 341/341 336/336 337/337
f 337/337 333/333 342/342
f 336/336 341/341 335/335
f 336/336 342/342 642/642
f 337/337 343/343 348/348
f 343/343 337/337 644/644
f 344/344 340/340 339/339
f 340/340 344/344 342/342
f 341/341 345/345 347/347
f 345/345 341/341 338/338
f 338/338 346/346 337/337
f 342/342 348/348 345/345
f 348/348 342/342 645/645
f 645/645 346/346 361/361
f 361/361 349/349 344/344
f 646/646 355/355 357/357
f 357/357 364/364 347/347
f 353/353 350/350 647/647
f 346/346 645/645 347/347
f 346/346 353/353 356/356
f 356/356 360/360 349/349
f 352/352 351/351 344/344
f 644/644 646/646 347/347
f 350/350 345/345 352/352
f 345/345 350/350 352/352
f 349/349 343/343 345/345
f 350/350 351/351 352/352
f 343/343 348/348 354/354
f 647/647 354/354 358/358
f 358/358 651/651 359/359
f 359/359 354/354 357/357
f 357/357 353/353 361/361
f 361/361 356/356 353/353
f 353/353 357/357 360/360
f 360/360 356/356 651/651
f 651/651 358/358 359/359
f 359/359 652/652 364/364
f 364/364 357/357 637/637
f 656/656 638/638 325/325
f 372/372 325/325 330/330
f 368/368 371/371 370/370
f 368/368 370/370 366/366
f 372/372 366/366 369/369
f 370/370 369/369 383/383
f 383/383 374/374 373/373
f 373/373 376/376 375/375
f 375/375 376/376 386/386
f 377/377 380/380 379/379
f 377/377 378/378 374/374
f 383/383 381/381 386/386
f 386/386 381/381 388/388
f 384/384 373/373 374/374
f 385/385 388/388 661/661
f 387/387 662/662 663/663
f 387/387 664/664 662/662
f 387/387 663/663 665/665
f 387/387 666/666 667/667
f 387/387 665/665 664/664
f 387/387 667/667 668/668
f 387/387 661/661 669/669
f 387/387 668/668 395/395
f 389/389 395/395 373/373
f 376/376 373/373 390/390
f 376/376 390/390 397/397
f 392/392 391/391 379/379
f 378/378 391/391 389/389
f 393/393 395/395 397/397
f 393/393 397/397 398/398
f 373/373 384/384 389/389
f 398/398 396/396 670/670
f 671/671 387/387 672/672
f 673/673 387/387 671/671
f 672/672 387/387 674/674
f 666/666 387/387 675/675
f 674/674 387/387 673/673
f 675/675 387/387 676/676
f 670/670 387/387 669/669
f 676/676 387/387 407/407
f 406/406 407/407 586/586
f 585/585 586/586 408/408
f 407/407 408/408 602/602
f 594/594 602/602 296/296
f 410/410 296/296 409/409
f 296/296 410/410 690/690
f 483/483 690/690 691/691
f 492/492 691/691 465/465
f 485/485 465/465 467/467
f 466/466 467/467 465/465
f 467/467 465/465 474/474
f 473/473 489/489 693/693
f 494/494 693/693 473/473
f 489/489 473/473 477/477
f 476/476 477/477 472/472
f 471/471 472/472 473/473
f 476/476 475/475 477/477
f 462/462 478/478 481/481
f 695/695 696/696 462/462
f 479/479 480/480 696/696
f 495/495 480/480 696/696
f 480/480 481/481 468/468
f 482/482 468/468 694/694
f 493/493 694/694 469/469
f 483/483 469/469 486/486
f 484/484 486/486 485/485
f 486/486 485/485 696/696
f 495/495 696/696 470/470
f 488/488 470/470 490/490
f 487/487 490/490 474/474
f 468/468 474/474 466/466
f 491/491 466/466 484/484
f 492/492 484/484 471/471
f 493/493 471/471 487/487
f 494/494 487/487 495/495
