# MOD converted: e_w_costume_fruit01.mod
# 183 verts, 7 faces

v 172.556396 -0.000005 25.574610
v 168.223495 -0.000016 24.157207
v 193.023163 -0.000019 10.080750
v 172.556396 4.258666 25.574610
v 168.223495 4.258665 24.157206
v 193.023163 4.258658 17.827679
v 170.389984 -0.000008 17.827677
v 170.389984 4.258667 25.222681
v 192.015167 -0.000003 22.723398
v 192.714111 -0.000009 22.723398
v 192.714111 4.258664 25.222679
v 192.015167 4.258665 14.379898
v 162.828094 1.616560 16.886265
v 162.127167 1.616556 17.204826
v 172.929489 1.616551 19.711182
v 172.228607 1.616559 14.379900
v 162.828094 2.799522 16.886261
v 162.127197 2.799525 17.204824
v 172.929489 2.799520 19.711184
v 172.228577 2.799519 0.061029
v 137.467773 25.651966 0.061028
v 156.385452 33.453407 0.061033
v 120.587921 23.345945 -6.723286
v 117.071083 11.051508 -22.191025
v 129.563873 22.896370 -21.602249
v 167.463257 10.081375 -11.220428
v 167.463257 26.137962 -29.294529
v 137.342072 10.730968 -23.922558
v 137.323837 24.353437 -24.327568
v 156.353302 23.160072 -28.533287
v 156.404694 10.472870 -11.450409
v 120.064537 -9.371461 -19.435833
v 129.632721 -9.424589 -20.056519
v 136.942169 -12.343729 -16.660057
v 167.463226 -11.717966 -12.234959
v 137.381424 33.561523 -8.503134
v 120.279510 22.110544 -12.115627
v 156.366806 32.274250 -12.099476
v 145.494568 -21.346867 -12.021618
v 156.277161 -20.702593 -10.931349
v 167.463226 -16.004009 -6.623516
v 118.149445 -10.339876 -17.424915
v 124.009277 -8.290052 -17.132057
v 121.382767 18.613194 -11.110985
v 129.515701 30.384636 -13.712051
v 118.007187 10.980116 -19.628712
v 122.854675 -2.631907 -12.627750
v 118.251656 -4.233413 -25.020473
v 129.611359 -1.084745 -27.985119
v 137.100769 -0.728247 -6.696320
v 116.487427 -5.089622 -27.304871
v 156.378693 -0.852429 -21.261509
v 167.463226 -0.700557 -24.575565
v 146.677078 24.694859 -22.861462
v 146.540588 -12.376109 -12.264992
v 146.713623 33.983261 -28.571461
v 146.652145 -0.827961 -22.386951
v 156.296387 -12.367482 -29.637989
v 146.723785 10.603691 -18.829758
v 167.463272 18.995132 -20.569714
v 121.915070 10.972350 -27.126270
v 133.346710 5.086333 -26.127468
v 129.538269 10.806840 -22.194885
v 125.129013 4.961641 -25.613720
v 129.572174 5.256231 -22.891865
v 129.335480 7.514113 0.061050
v 146.780533 -24.612156 0.061031
v 137.355133 34.841000 0.061049
v 167.463242 -18.963085 0.061035
v 146.728668 35.449368 0.061047
v 167.464996 -0.633029 0.061058
v 156.244873 -24.453537 0.061041
v 117.248085 11.873063 0.061049
v 117.582024 -10.924806 0.061045
v 115.947556 -5.139887 0.061039
v 167.465164 10.078358 6.845379
v 117.071129 11.051501 22.313101
v 129.563995 22.896379 21.724321
v 167.463394 10.081388 11.342493
v 167.463318 26.137951 29.416628
v 137.342194 10.730968 24.044626
v 137.323975 24.353439 24.449638
v 156.353439 23.160080 28.655365
v 156.404846 10.472862 11.572521
v 120.064590 -9.371456 19.557932
v 129.632812 -9.424597 20.178621
v 136.942307 -12.343718 16.782152
v 167.463287 -11.717965 12.357027
v 137.381500 33.561527 8.625209
v 120.279556 22.110538 12.237677
v 156.366882 32.274246 12.221571
v 145.494629 -21.346865 12.143723
v 156.277252 -20.702587 11.053454
v 167.463287 -16.004005 6.745613
v 118.149475 -10.339877 17.547016
v 124.009369 -8.290050 17.254133
v 121.382843 18.613197 11.233036
v 129.515793 30.384640 13.834132
v 118.007248 10.980124 19.750790
v 122.854767 -2.631922 12.749838
v 118.251732 -4.233412 25.142557
v 129.611481 -1.084732 28.107227
v 137.100891 -0.728263 6.818424
v 116.487465 -5.089618 27.426958
v 156.378830 -0.852446 21.383593
v 167.463348 -0.700541 24.697632
v 146.677200 24.694860 22.983564
v 146.540695 -12.376101 12.387058
v 146.713684 33.983276 28.693550
v 146.652283 -0.827981 22.509054
v 156.296478 -12.367474 29.760069
v 146.723923 10.603685 18.951838
v 167.463379 18.995146 20.691805
v 121.915192 10.972338 27.248348
v 133.346848 5.086347 26.249563
v 129.538406 10.806842 22.316980
v 125.129128 4.961642 25.735807
v 129.572296 5.256245 23.013950
v 129.335602 7.514109 0.061033
v 129.475555 31.546970 0.061031
v 167.463303 27.354145 10.080750
v 172.556396 4.258666 17.827679
v 170.389984 -0.000008 17.827677
v 170.389984 4.258667 10.080748
v 172.556396 -0.000005 24.157206
v 193.023163 4.258658 22.723398
v 192.714111 4.258664 25.574610
v 168.223495 4.258665 25.574610
v 168.223495 -0.000016 25.222679
v 192.015167 4.258665 25.574610
v 168.223495 4.258665 10.080750
v 172.556396 4.258666 19.711184
v 172.228577 2.799519 16.886261
v 162.127197 2.799525 14.379900
v 162.828094 2.799522 17.204824
v 172.929489 2.799520 -21.261509
v 167.463226 -0.700557 -21.602249
v 167.463257 10.081375 -18.829758
v 167.463272 18.995132 -20.056519
v 136.942169 -12.343729 -19.435833
v 129.632721 -9.424589 -12.099476
v 145.494568 -21.346867 -17.424915
v 124.009277 -8.290052 -10.931349
v 167.463226 -16.004009 0.061049
v 167.463242 -18.963085 0.061050
v 146.780533 -24.612156 -11.450409
v 120.064537 -9.371461 -6.623516
v 118.149445 -10.339876 0.061049
v 117.582024 -10.924806 -16.660057
v 167.463226 -11.717966 0.061031
v 167.463303 27.354145 -11.220428
v 167.463257 26.137962 0.061031
v 137.355133 34.841000 0.061033
v 129.475555 31.546970 0.061033
v 120.587921 23.345945 0.061041
v 117.248085 11.873063 0.061028
v 156.385452 33.453407 0.061031
v 167.463303 27.354145 21.383593
v 167.463348 -0.700541 21.724321
v 167.463394 10.081388 0.061049
v 167.463242 -18.963085 0.061047
v 167.464996 -0.633029 18.951838
v 167.463379 18.995146 0.061035
v 146.728668 35.449368 0.061045
v 115.947556 -5.139887 20.178621
v 136.942307 -12.343718 19.557932
v 129.632812 -9.424597 0.061029
v 137.467773 25.651966 12.221571
v 145.494629 -21.346865 17.547016
v 124.009369 -8.290050 0.061049
v 117.582024 -10.924806 0.061058
v 156.244873 -24.453537 11.053454
v 167.463287 -16.004005 0.061049
v 167.463242 -18.963085 0.061050
v 146.780533 -24.612156 0.061050
v 146.780533 -24.612156 11.572521
v 120.064590 -9.371456 6.745613
v 118.149475 -10.339877 0.061049
v 117.582024 -10.924806 16.782152
v 167.463287 -11.717965 0.061031
v 167.463303 27.354145 0.061039
v 167.465164 10.078358 11.342493
v 167.463318 26.137951 0.491357

vt 0.113445 0.508643
vt 0.113445 0.083687
vt 0.529320 0.508643
vt 0.113445 0.437864
vt 0.039513 0.083687
vt 0.529320 0.590663
vt 0.281918 0.590663
vt 0.281918 0.095595
vt 0.499670 0.095595
vt 0.499670 0.095595
vt 0.499670 0.028906
vt 0.434935 0.988076
vt 0.069752 0.988076
vt 0.172628 0.573452
vt 0.069752 0.573452
vt 0.172628 0.988076
vt 0.069752 0.988076
vt 0.172628 0.573452
vt 0.069752 0.573452
vt 0.172628 0.129387
vt 0.275064 0.134397
vt 0.879920 0.273497
vt 0.471461 0.410082
vt 0.455825 0.376997
vt 0.650543 0.500801
vt 0.973839 0.271468
vt 0.971029 0.498466
vt 0.709717 0.367124
vt 0.714446 0.381710
vt 0.866294 0.504846
vt 0.865624 0.086090
vt 0.016518 0.681818
vt 0.583051 0.732487
vt 0.670894 0.747857
vt 0.964785 0.236084
vt 0.697055 0.321824
vt 0.522824 0.242842
vt 0.861385 0.854646
vt 0.765623 0.843348
vt 0.863581 0.736924
vt 0.247738 0.052347
vt 0.020263 0.639653
vt 0.512111 0.389112
vt 0.564488 0.259356
vt 0.624713 0.439812
vt 0.506878 0.587146
vt 0.535666 0.570139
vt 0.459190 0.594864
vt 0.617820 0.602826
vt 0.693639 0.551825
vt 0.404361 0.611341
vt 0.864161 0.622382
vt 0.978180 0.370380
vt 0.791685 0.724971
vt 0.771522 0.230905
vt 0.778497 0.607964
vt 0.781473 0.725531
vt 0.857319 0.505969
vt 0.788129 0.992194
vt 0.557400 0.464772
vt 0.568263 0.547159
vt 0.666372 0.488717
vt 0.643331 0.528701
vt 0.581227 0.540567
vt 0.630119 0.515484
vt 0.621822 0.971486
vt 0.798936 0.127919
vt 0.666458 0.605569
vt 0.271420 0.118484
vt 0.781042 0.707682
vt 0.461657 0.959425
vt 0.881162 0.380951
vt 0.408619 0.011181
vt 0.036012 0.528182
vt 0.345848 0.762180
vt 0.566356 0.410082
vt 0.455825 0.376997
vt 0.650543 0.500801
vt 0.973839 0.271468
vt 0.971029 0.498466
vt 0.709717 0.367124
vt 0.714446 0.381710
vt 0.866294 0.504846
vt 0.865624 0.086090
vt 0.016518 0.681818
vt 0.583051 0.732487
vt 0.670894 0.747857
vt 0.964785 0.236084
vt 0.697055 0.321824
vt 0.522824 0.242842
vt 0.861385 0.854646
vt 0.765623 0.843348
vt 0.863581 0.736924
vt 0.247738 0.052347
vt 0.020263 0.639653
vt 0.512111 0.389112
vt 0.564488 0.259356
vt 0.624713 0.439812
vt 0.506878 0.587146
vt 0.535666 0.570139
vt 0.459190 0.594864
vt 0.617820 0.602826
vt 0.693639 0.551825
vt 0.404361 0.611341
vt 0.864161 0.622382
vt 0.978180 0.370380
vt 0.791685 0.724971
vt 0.771522 0.230905
vt 0.778497 0.607964
vt 0.781473 0.725531
vt 0.857319 0.505969
vt 0.788129 0.992194
vt 0.557400 0.464772
vt 0.568263 0.547159
vt 0.666372 0.488717
vt 0.643331 0.528701
vt 0.581227 0.540567
vt 0.630119 0.515484
vt 0.621822 0.175773
vt 0.566160 0.159949
vt 0.987105 0.006695
vt 0.746612 0.104602
vt 0.553015 0.008434
vt 0.552094 0.102864
vt 0.747532 0.005551
vt 0.463612 0.028906
vt 0.434935 0.006695
vt 0.746612 0.102864
vt 0.747532 0.095595
vt 0.499670 0.508643
vt 0.113445 0.437864
vt 0.039513 0.573452
vt 0.219390 0.988075
vt 0.219390 0.988076
vt 0.022990 0.573453
vt 0.022989 0.909450
vt 0.351550 0.973942
vt 0.456167 0.393018
vt 0.975250 0.226316
vt 0.013578 0.174686
vt 0.015788 0.322793
vt 0.016805 0.134897
vt 0.016011 0.820711
vt 0.965347 0.929995
vt 0.983857 0.391928
vt 0.062444 0.615722
vt 0.437188 0.600020
vt 0.387056 0.581256
vt 0.326543 0.819153
vt 0.258273 0.850077
vt 0.735218 0.954159
vt 0.665932 0.127919
vt 0.666458 0.175773
vt 0.566160 0.273497
vt 0.471461 0.380951
vt 0.408619 0.134397
vt 0.879920 0.159949
vt 0.987105 0.909450
vt 0.351550 0.973942
vt 0.456167 0.605569
vt 0.271420 0.707682
vt 0.461657 0.393018
vt 0.975250 0.118484
vt 0.781042 0.528182
vt 0.345848 0.226316
vt 0.013578 0.174686
vt 0.015788 0.129387
vt 0.275064 0.322793
vt 0.016805 0.134897
vt 0.016011 0.011181
vt 0.036012 0.959425
vt 0.881162 0.820711
vt 0.965347 0.929995
vt 0.983857 0.971486
vt 0.798936 0.391928
vt 0.062444 0.615722
vt 0.437188 0.600020
vt 0.387056 0.581256
vt 0.326543 0.819153
vt 0.258273 0.850077
vt 0.735218 0.762180
vt 0.566356 0.954159
vt 0.665932 1.000000

f 122/122 123/123 124/124
f 123/123 122/122 125/125
f 128/128 123/123 129/129
f 123/123 128/128 124/124
f 5/5 2/2 126/126
f 126/126 12/12 14/14
f 1/1 126/126 10/10
