# MOD converted: e_w_costume_chic_suit_body.mod
# 537 verts, 275 faces

v 117.487816 4.343675 10.226684
v 115.590210 4.600747 5.009038
v 122.611053 2.854022 16.451910
v 111.598938 8.817375 -18.642038
v 97.928894 -9.135694 -17.638704
v 106.367653 -5.269136 20.327526
v 99.602043 3.925854 -16.301561
v 113.649231 4.352187 -16.728848
v 111.831337 0.151188 -20.327526
v 99.602043 3.925862 17.638702
v 106.364540 -5.268667 16.728849
v 111.830299 0.149733 20.156502
v 99.670120 -0.127997 22.452801
v 91.253242 -0.724512 9.097238
v 107.116119 -13.140234 10.841996
v 99.409767 -17.555239 20.228432
v 91.252922 -11.245626 9.805786
v 114.157715 -0.180874 4.667808
v 115.943832 -0.922254 12.191811
v 91.225746 -20.267054 27.188784
v 81.102150 -0.625483 22.685999
v 80.399040 -13.267396 14.284664
v 80.167343 -23.363081 -0.000000
v 111.112823 -10.044962 4.507288
v 120.603073 -1.682585 18.540073
v 97.928963 -9.135649 6.675714
v 111.054337 -8.601518 0.000000
v 119.354500 -4.180058 30.426855
v 72.853676 -0.945644 25.387804
v 71.901031 -15.093117 18.084631
v 72.012840 -26.391150 2.777638
v 73.195030 -29.003504 -0.000004
v 115.285744 -2.926048 0.000000
v 100.149620 -19.542379 0.000000
v 107.084503 -13.859682 0.000001
v 79.797211 -26.188322 0.000001
v 91.153610 -22.949196 -22.452808
v 91.253242 -0.724520 -9.097246
v 107.116119 -13.140233 -10.841998
v 99.409767 -17.555250 -20.228437
v 91.252922 -11.245635 -9.805789
v 114.167496 -0.165909 -4.667814
v 115.943832 -0.922256 -5.528793
v 117.487816 4.343673 -12.191818
v 91.225746 -20.267054 -27.188797
v 81.102150 -0.625481 -22.686008
v 80.399040 -13.267403 -14.284670
v 80.167336 -23.363083 -4.507287
v 120.603073 -1.682585 -5.009040
v 122.611053 2.854021 -6.675717
v 111.055473 -8.601439 -30.426859
v 72.853683 -0.945642 -25.387808
v 71.901031 -15.093116 -18.084631
v 72.012840 -26.391153 -2.777646
v 73.195030 -29.003504 -29.370106
v 72.652451 7.510373 -26.297556
v 81.434631 6.348778 29.370110
v 72.652435 7.510366 26.297548
v 81.434624 6.348776 11.071992
v 99.724121 19.730175 9.822593
v 107.828018 17.212210 8.357024
v 113.629921 12.144639 16.301561
v 113.649803 4.350101 18.419914
v 105.971664 11.374458 -0.000005
v 108.293991 18.356792 -0.000004
v 113.917160 13.637200 -0.000005
v 117.971657 7.554796 -0.000004
v 100.575272 21.706312 -0.000001
v 123.522598 5.340403 19.820961
v 99.455399 6.933155 -0.000004
v 91.762932 24.315882 -0.000006
v 75.824959 39.654408 -0.000000
v 83.053925 31.501024 21.502554
v 91.644333 8.224563 11.122865
v 91.831726 22.061398 24.880259
v 81.699844 11.912137 12.744224
v 83.159142 27.545755 27.843397
v 72.495026 14.123856 14.262005
v 75.435577 35.228092 22.219381
v 91.511009 5.174171 -11.071997
v 99.724121 19.730175 -9.822589
v 107.806252 17.209873 -8.357028
v 113.620529 12.148269 -10.226688
v 115.586174 4.613672 -18.419914
v 105.971710 11.374462 -16.451912
v 111.596642 8.818723 -21.502554
v 91.644333 8.224569 -11.122876
v 91.831726 22.061398 -24.880260
v 81.699844 11.912126 -12.744226
v 83.159134 27.545757 -27.843388
v 72.495041 14.123858 -14.262006
v 75.435577 35.228096 -22.219381
v 91.511009 5.174178 -19.820959
v 99.455399 6.933167 -20.156504
v 99.670105 -0.127987 0.004115
v 111.783081 -10.085425 3.694583
v 111.065529 -14.843519 7.333728
v 108.857315 -14.613545 8.002773
v 107.519714 -12.722105 0.004122
v 111.181213 -9.752319 8.106284
v 110.274429 -13.928606 9.178403
v 108.861847 -11.927990 0.004120
v 113.148247 -9.592413 4.288902
v 113.717873 -12.113976 8.435763
v 113.136543 -12.083844 9.360606
v 111.779945 -10.626854 0.004117
v 112.757309 -9.605774 0.004118
v 114.045639 -8.451635 4.934230
v 117.108635 -10.411952 9.367723
v 115.521988 -10.004369 10.279284
v 113.983124 -7.849230 0.004114
v 113.392189 -8.155764 8.445850
v 117.933228 -9.034501 9.666983
v 115.934097 -6.901629 -3.686348
v 111.065529 -14.843523 -7.325494
v 108.857315 -14.613547 -7.994543
v 107.519714 -12.722105 -8.098042
v 110.274429 -13.928606 -9.170157
v 108.861847 -11.927995 -4.280667
v 113.719322 -12.113701 -8.427529
v 113.137993 -12.083534 -9.352355
v 111.781258 -10.626659 -4.925988
v 117.109901 -10.411353 -9.359487
v 115.523216 -10.003822 -10.271039
v 113.984154 -7.848806 -8.437614
v 117.934372 -9.033751 -9.658743
v 115.934067 -6.901636 1.327318
v 114.760139 -9.466322 -1.366234
v 114.760139 -9.466319 1.327321
v 113.506027 -10.957119 -1.366229
v 113.506027 -10.957122 1.327321
v 111.536850 -11.430963 -1.366233
v 111.536850 -11.430963 1.327311
v 112.882996 -6.230891 -1.366237
v 112.882996 -6.230889 -1.366231
v 109.031059 -8.320689 1.327312
v 109.031059 -8.320688 28.514074
v 75.015999 -0.742313 24.237228
v 75.701042 13.913981 10.525440
v 75.380386 31.533501 23.963753
v 74.318008 -12.619178 14.045087
v 73.952812 -23.413010 19.861248
v 70.301788 27.189943 26.266422
v 68.608582 13.069967 8.269520
v 70.833839 39.192440 24.204233
v 67.380585 -12.348668 13.807717
v 67.011818 -23.714874 29.143877
v 68.076340 -0.541111 1.427079
v 51.567253 0.335528 2.786456
v 53.396763 14.116025 16.980797
v 61.425980 25.599205 12.043737
v 54.080669 11.065071 15.770648
v 55.438118 -8.120748 18.961369
v 57.328453 -0.593313 20.052082
v 60.219490 -10.734853 12.183112
v 59.138672 -19.212006 10.260706
v 53.114788 -8.881189 16.404905
v 55.583893 6.890959 21.904011
v 61.194775 12.560966 5.365313
v 52.864109 8.679371 2.886144
v 51.831505 -5.221594 6.507297
v 62.835106 34.126659 10.294148
v 58.379524 -0.269258 22.018147
v 80.945381 14.556061 11.236323
v 83.390785 24.975779 26.594807
v 80.910164 -0.554799 22.692062
v 80.941017 -11.980022 14.006852
v 81.008163 -21.349312 24.657415
v 60.809563 -0.574835 -0.000006
v 72.725937 46.071526 0.000001
v 58.440838 -21.947033 -0.000004
v 51.498680 0.265866 -0.000004
v 63.438332 36.836136 0.000001
v 51.830528 -5.846652 -0.000004
v 51.707863 6.079966 -0.000005
v 75.468903 36.056263 -0.000005
v 53.622101 14.689510 -28.514084
v 75.015999 -0.742309 -24.237257
v 75.701050 13.913981 -10.525454
v 75.380386 31.533501 -23.963753
v 74.318008 -12.619193 -14.045075
v 73.952812 -23.413025 -19.861254
v 70.301788 27.189949 -26.266424
v 68.608597 13.069967 -8.269530
v 70.833839 39.192448 -24.204235
v 67.380600 -12.348684 -13.807723
v 67.011818 -23.714880 -29.143887
v 68.076324 -0.541137 -1.427086
v 51.567253 0.335516 -2.786464
v 53.396763 14.116026 -16.980803
v 61.425980 25.599197 -12.043744
v 54.080669 11.065073 -15.770647
v 55.438122 -8.120750 -18.961376
v 57.328461 -0.593312 -20.052076
v 60.219501 -10.734868 -12.183103
v 59.138672 -19.212021 -10.260709
v 53.114792 -8.881198 -16.404911
v 55.583900 6.890962 -21.904016
v 61.194775 12.560966 -5.365319
v 52.864109 8.679371 -2.886152
v 51.831509 -5.221597 -6.507301
v 62.835106 34.126663 -10.294158
v 58.379524 -0.269257 -22.018158
v 80.945396 14.556061 -11.236328
v 83.390785 24.975779 -26.594816
v 80.910164 -0.554801 -22.692074
v 80.941017 -11.980025 -14.006860
v 81.008163 -21.349312 -24.657413
v 60.809566 -0.574885 0.000001
v 81.097595 -25.743347 -0.000004
v 83.467453 28.544968 0.000001
v 73.817047 -27.787760 0.000001
v 66.875481 -27.630951 33.593929
v 95.060394 -0.530975 33.570274
v 95.056488 6.103793 35.503822
v 99.682968 -3.353257 37.530151
v 104.100441 -0.997715 37.634609
v 104.079079 5.975996 35.437584
v 99.653694 8.573771 16.451912
v 111.598930 8.817375 20.327526
v 99.602043 3.925853 20.757492
v 99.269104 6.774487 28.699219
v 97.574890 6.033371 28.782907
v 97.694275 0.237862 21.243734
v 99.432320 -0.044602 21.996590
v 105.689354 10.824199 19.748791
v 113.040382 4.089704 19.436514
v 111.630333 0.225244 19.479445
v 111.749229 8.237530 21.226625
v 106.019691 -3.281673 22.789539
v 111.338211 0.112176 22.898571
v 111.379196 7.719496 26.436460
v 98.523331 6.317612 26.603235
v 98.695374 0.204978 30.212439
v 107.137138 5.703797 28.393623
v 102.914658 -2.074319 30.074007
v 106.956566 -0.084351 27.560114
v 103.158005 8.255447 32.197208
v 106.254158 5.823598 31.500544
v 101.548531 8.192186 29.579641
v 102.337662 8.279718 32.104683
v 106.040947 -0.068700 30.548939
v 101.958527 -2.119721 17.638702
v 106.364540 -5.268667 16.728848
v 111.830299 0.149733 20.156502
v 99.670120 -0.127997 16.301561
v 113.649803 4.350101 18.419914
v 105.971664 11.374456 19.820961
v 99.455391 6.933153 45.213711
v 95.406715 9.958993 47.545982
v 101.459892 -2.706268 37.593910
v 92.571060 6.534111 39.695381
v 97.944656 9.244356 39.662369
v 97.860184 -4.601667 37.552258
v 92.464546 -1.033811 41.767570
v 103.243317 6.561438 41.770912
v 103.251816 -1.855296 42.576691
v 89.347397 7.099998 42.212101
v 89.224457 -1.516396 47.830307
v 101.264389 7.176517 44.893032
v 95.280037 -5.853767 42.586140
v 96.450768 2.359844 -33.593933
v 95.060394 -0.530978 -33.570271
v 95.056488 6.103786 -35.503815
v 99.682945 -3.353256 -37.530151
v 104.100441 -0.997711 -37.634605
v 104.079079 5.975999 -35.437576
v 99.653687 8.573771 -16.451910
v 111.596626 8.818724 -20.327524
v 99.602043 3.925862 -20.757374
v 99.269142 6.774466 -28.699215
v 97.574890 6.033372 -28.782907
v 97.694275 0.237864 -21.243734
v 99.432304 -0.044580 -21.996590
v 105.689400 10.824198 -19.748789
v 113.039909 4.091856 -19.436514
v 111.631340 0.226853 -19.479445
v 111.747154 8.239185 -21.226625
v 106.019653 -3.281675 -22.789541
v 111.338203 0.112153 -22.898571
v 111.379227 7.719471 -26.436459
v 98.523331 6.317612 -26.603235
v 98.695374 0.204981 -30.212439
v 107.137138 5.703795 -28.393625
v 102.914658 -2.074319 -30.074009
v 106.956558 -0.084354 -27.560123
v 103.158051 8.255447 -32.197208
v 106.254158 5.823598 -31.500544
v 101.548546 8.192186 -29.579660
v 102.337723 8.279718 -32.104683
v 106.040932 -0.068703 -30.548944
v 101.958527 -2.119721 -17.638702
v 106.367653 -5.269136 -16.728849
v 111.831337 0.151188 -20.156500
v 99.670105 -0.127987 -16.301561
v 113.649223 4.352187 -18.419914
v 105.971710 11.374460 -19.820959
v 99.455399 6.933167 -45.213707
v 95.406715 9.958992 -47.545982
v 101.459892 -2.706266 -37.593906
v 92.571060 6.534108 -39.695374
v 97.944656 9.244355 -39.662369
v 97.860168 -4.601667 -37.552261
v 92.464546 -1.033816 -41.767567
v 103.243317 6.561441 -41.770912
v 103.251816 -1.855293 -42.576687
v 89.347397 7.099995 -42.212101
v 89.224472 -1.516399 -47.830303
v 101.264389 7.176518 -44.893036
v 95.280037 -5.853768 -42.586136
v 96.450768 2.359844 15.973363
v 65.906929 -0.319641 14.830052
v 54.791752 -5.258956 16.539248
v 54.734516 2.223914 8.434519
v 62.197384 -9.189063 9.881446
v 54.678722 -8.042875 13.734560
v 64.054298 -6.390160 6.009707
v 54.565071 7.857085 3.534088
v 59.364025 9.102262 10.803062
v 62.042637 9.288226 5.111229
v 54.440895 -5.376665 2.816135
v 60.123718 -6.901391 3.908442
v 54.269669 1.105848 1.761063
v 59.248405 0.424907 7.580282
v 46.595013 -4.241274 10.987946
v 47.395126 -6.111933 8.572300
v 45.764603 7.170641 6.257460
v 45.419270 1.882121 16.050211
v 46.431320 2.361099 13.127775
v 46.169487 7.041383 14.398384
v 47.433701 -3.856582 6.642747
v 42.577499 1.907151 7.897386
v 43.249607 -4.014491 14.646714
v 44.364288 -3.666100 13.436178
v 44.076408 7.082756 8.773244
v 43.803215 7.229163 12.363420
v 54.754627 7.735437 11.391187
v 43.701344 -5.853789 16.222473
v 43.825336 2.416576 14.088157
v 34.497536 8.656727 17.890129
v 34.166161 3.258573 11.724388
v 40.253876 -4.913956 8.588143
v 40.487679 -3.306428 14.981215
v 41.273544 -2.707477 7.186385
v 24.099087 2.897083 6.671241
v 20.483202 3.588783 9.189460
v 20.484209 -4.618874 9.286908
v 24.089905 -2.711530 9.518687
v 34.152264 8.876451 6.714075
v 32.601410 2.895323 19.047203
v 20.485807 4.294415 18.312147
v 24.167704 3.526515 16.930668
v 24.136703 -2.369208 13.121163
v 24.106979 -4.195714 15.280161
v 24.169212 8.579594 9.349026
v 24.133505 8.469708 15.441670
v 64.161148 5.709093 15.818407
v 20.485006 9.062569 8.996699
v 20.483412 8.895566 17.271503
v 20.485106 -4.281383 -15.973363
v 65.906929 -0.319645 -14.830050
v 54.791752 -5.258955 -16.539248
v 54.734516 2.223916 -8.434521
v 62.197388 -9.189063 -9.881446
v 54.678734 -8.042876 -13.734558
v 64.054298 -6.390159 -6.009707
v 54.565075 7.857086 -3.534088
v 59.364025 9.102262 -10.803063
v 62.042629 9.288223 -5.111228
v 54.440895 -5.376667 -2.816137
v 60.123734 -6.901394 -3.908443
v 54.269665 1.105852 -1.761065
v 59.248405 0.424936 -7.580282
v 46.595013 -4.241273 -10.987948
v 47.395115 -6.111934 -8.572300
v 45.764606 7.170642 -6.257461
v 45.419270 1.882124 -16.050209
v 46.431320 2.361102 -13.127775
v 46.169495 7.041384 -14.398387
v 47.433701 -3.856580 -6.642747
v 42.577499 1.907153 -7.897386
v 43.249607 -4.014494 -14.646714
v 44.364281 -3.666098 -13.436178
v 44.076405 7.082757 -8.773244
v 43.803207 7.229165 -12.363423
v 54.754627 7.735437 -11.391185
v 43.701344 -5.853789 -16.222471
v 43.825336 2.416579 -14.088156
v 34.497540 8.656727 -17.890127
v 34.166161 3.258577 -11.724388
v 40.253876 -4.913955 -8.588142
v 40.487679 -3.306428 -14.981217
v 41.273544 -2.707476 -7.186386
v 24.099087 2.897084 -6.671242
v 20.483206 3.588787 -9.189461
v 20.484209 -4.618876 -9.286908
v 24.089905 -2.711529 -9.518689
v 34.152264 8.876451 -6.714076
v 32.601406 2.895326 -19.047203
v 20.485804 4.294416 -18.312147
v 24.167704 3.526518 -16.930672
v 24.136703 -2.369207 -13.121165
v 24.106983 -4.195712 -15.280161
v 24.169212 8.579595 -9.349026
v 24.133501 8.469711 -15.441672
v 64.161148 5.709094 -15.818407
v 20.485006 9.062570 -8.996699
v 20.483406 8.895566 -17.271505
v 20.485106 -4.281384 16.301561
v 113.649803 4.350101 10.226684
v 115.590210 4.600747 5.528784
v 117.487816 4.343675 5.009038
v 122.611053 2.854022 29.370110
v 72.652435 7.510366 26.297548
v 81.434624 6.348776 22.219381
v 91.511009 5.174171 20.327526
v 99.602043 3.925854 -16.301561
v 113.649231 4.352187 -5.528793
v 117.487816 4.343673 -10.226688
v 115.586174 4.613672 -5.009040
v 122.611053 2.854021 -29.370106
v 72.652451 7.510373 -26.297556
v 81.434631 6.348778 -22.219381
v 91.511009 5.174178 -20.327526
v 99.602043 3.925862 1.427079
v 51.567253 0.335528 -0.000004
v 51.498680 0.265866 24.657415
v 60.809563 -0.574835 18.961369
v 57.328453 -0.593313 15.770648
v 55.438118 -8.120748 18.961369
v 57.328453 -0.593313 10.260706
v 53.114788 -8.881189 5.365313
v 52.864109 8.679371 12.043737
v 54.080669 11.065071 16.404905
v 55.583893 6.890959 2.886144
v 51.831505 -5.221594 1.427079
v 51.567253 0.335528 26.594807
v 80.910164 -0.554799 -0.000004
v 83.467453 28.544968 -0.000005
v 75.468903 36.056263 -0.000006
v 72.725937 46.071526 -0.000004
v 51.498680 0.265866 -0.000004
v 51.707863 6.079966 0.000001
v 51.830528 -5.846652 0.000001
v 58.440838 -21.947033 -0.000004
v 51.498680 0.265866 -1.427086
v 51.567253 0.335516 -0.000004
v 63.438332 36.836136 -24.657413
v 60.809566 -0.574885 -18.961376
v 57.328461 -0.593312 0.000001
v 66.875481 -27.630951 -0.000005
v 53.622101 14.689510 0.000001
v 73.817047 -27.787760 -18.961376
v 57.328461 -0.593312 -15.770647
v 55.438122 -8.120750 -10.260709
v 53.114792 -8.881198 -5.365319
v 52.864109 8.679371 -12.043744
v 54.080669 11.065073 -16.404911
v 55.583900 6.890962 -2.886152
v 51.831509 -5.221597 -1.427086
v 51.567253 0.335516 -26.594816
v 80.910164 -0.554801 0.000001
v 81.097595 -25.743347 21.243734
v 99.432320 -0.044602 20.156502
v 99.670120 -0.127997 26.436460
v 98.523331 6.317612 20.757492
v 99.269104 6.774487 26.603235
v 98.695374 0.204978 28.699219
v 97.574890 6.033371 28.782907
v 97.694275 0.237862 33.593929
v 95.060394 -0.530975 33.570274
v 95.056488 6.103793 19.820961
v 99.455391 6.933153 33.593929
v 95.060394 -0.530975 33.570274
v 95.056488 6.103793 35.503822
v 99.682968 -3.353257 33.593929
v 95.060394 -0.530975 37.530151
v 104.100441 -0.997715 33.593929
v 95.060394 -0.530975 37.593910
v 92.571060 6.534111 35.437584
v 99.653694 8.573771 37.593910
v 92.571060 6.534111 33.570274
v 95.056488 6.103793 37.552258
v 92.464546 -1.033811 37.634609
v 104.079079 5.975996 42.212101
v 89.224457 -1.516396 42.576691
v 89.347397 7.099998 45.213711
v 95.406715 9.958993 42.576691
v 89.347397 7.099998 42.212101
v 89.224457 -1.516396 44.893032
v 95.280037 -5.853767 47.545982
v 101.459892 -2.706268 47.830307
v 101.264389 7.176517 -21.243734
v 99.432304 -0.044580 -20.156500
v 99.670105 -0.127987 -26.436459
v 98.523331 6.317612 -20.757374
v 99.269142 6.774466 -26.603235
v 98.695374 0.204981 -28.699215
v 97.574890 6.033372 -28.782907
v 97.694275 0.237864 -33.593933
v 95.060394 -0.530978 -33.570271
v 95.056488 6.103786 -19.820959
v 99.455399 6.933167 -33.593933
v 95.060394 -0.530978 -33.570271
v 95.056488 6.103786 -35.503815
v 99.682945 -3.353256 -33.593933
v 95.060394 -0.530978 -37.530151
v 104.100441 -0.997711 -33.593933
v 95.060394 -0.530978 -37.593906
v 92.571060 6.534108 -35.437576
v 99.653687 8.573771 -37.593906
v 92.571060 6.534108 -33.570271
v 95.056488 6.103786 -37.552261
v 92.464546 -1.033816 -37.634605
v 104.079079 5.975999 -42.212101
v 89.224472 -1.516399 -42.576687
v 89.347397 7.099995 -42.576687
v 89.347397 7.099995 -45.213707
v 95.406715 9.958992 -44.893036
v 95.280037 -5.853768 -42.212101
v 89.224472 -1.516399 -47.545982
v 101.459892 -2.706266 -47.830303
v 101.264389 7.176518 6.257460
v 45.419270 1.882121 6.642747
v 42.577499 1.907151 6.714075
v 32.601410 2.895323 3.908442
v 54.269669 1.105848 1.761063
v 59.248405 0.424907 7.186385
v 24.099087 2.897083 6.671241
v 20.483202 3.588783 -6.257461
v 45.419270 1.882124 -6.642747
v 42.577499 1.907153 -6.714076
v 32.601406 2.895326 -3.908443
v 54.269665 1.105852 -1.761065
v 59.248405 0.424936 -7.186386
v 24.099087 2.897084 -6.671242
v 20.483206 3.588787 0.579102

vt 0.576413 0.384813
vt 0.570060 0.433176
vt 0.620685 0.139930
vt 0.839720 0.700058
vt 0.342517 0.690327
vt 0.419116 0.193073
vt 0.386467 0.680884
vt 0.547145 0.677000
vt 0.501830 0.809630
vt 0.386467 0.312369
vt 0.419116 0.325696
vt 0.501830 0.230778
vt 0.375688 0.204693
vt 0.302264 0.421984
vt 0.399259 0.406904
vt 0.318762 0.290719
vt 0.264109 0.398100
vt 0.527902 0.449402
vt 0.544326 0.392001
vt 0.229595 0.161231
vt 0.206551 0.263316
vt 0.161548 0.372678
vt 0.121421 0.501348
vt 0.451766 0.460284
vt 0.586148 0.302637
vt 0.342517 0.440365
vt 0.455505 0.501348
vt 0.570301 0.120461
vt 0.137338 0.236103
vt 0.083053 0.358728
vt 0.039744 0.478499
vt 0.031316 0.501348
vt 0.529538 0.501348
vt 0.316500 0.501348
vt 0.399255 0.501348
vt 0.099248 0.501348
vt 0.216497 0.798007
vt 0.302264 0.580712
vt 0.399259 0.595791
vt 0.318762 0.711977
vt 0.264109 0.604596
vt 0.527902 0.553294
vt 0.544326 0.581797
vt 0.576413 0.610694
vt 0.229595 0.841469
vt 0.206551 0.739379
vt 0.161548 0.630017
vt 0.121421 0.542411
vt 0.586148 0.569520
vt 0.620685 0.562331
vt 0.455505 0.882238
vt 0.137338 0.766592
vt 0.083053 0.643967
vt 0.039744 0.524197
vt 0.031316 0.947934
vt 0.172733 0.900815
vt 0.236202 0.054769
vt 0.172733 0.101888
vt 0.236202 0.085494
vt 0.725349 0.075694
vt 0.783605 0.063802
vt 0.839119 0.321811
vt 0.547145 0.153220
vt 0.785477 0.003528
vt 0.783202 0.003507
vt 0.831601 0.003475
vt 0.895389 0.003557
vt 0.722132 0.003464
vt 0.936081 0.203702
vt 0.736963 0.003598
vt 0.644502 0.003685
vt 0.481594 0.003643
vt 0.561045 0.218207
vt 0.680864 0.092315
vt 0.647352 0.240733
vt 0.602316 0.099532
vt 0.571432 0.265160
vt 0.534703 0.091571
vt 0.487663 0.158194
vt 0.322834 0.085494
vt 0.725349 0.075694
vt 0.783605 0.063802
vt 0.839119 0.617882
vt 0.570060 0.153220
vt 0.785477 0.139930
vt 0.839720 0.218207
vt 0.680864 0.092315
vt 0.647352 0.240733
vt 0.602316 0.099532
vt 0.571432 0.265160
vt 0.534703 0.091571
vt 0.487663 0.844510
vt 0.322834 0.203702
vt 0.736963 0.771920
vt 0.375688 0.396291
vt 0.886345 0.324087
vt 0.841360 0.248420
vt 0.828803 0.230099
vt 0.822751 0.168461
vt 0.886903 0.244401
vt 0.851561 0.226080
vt 0.846932 0.396291
vt 0.910824 0.324087
vt 0.907997 0.253287
vt 0.910824 0.234966
vt 0.910824 0.168461
vt 0.910824 0.396291
vt 0.935303 0.324087
vt 0.974634 0.244401
vt 0.961523 0.226080
vt 0.974716 0.168461
vt 0.934745 0.259503
vt 0.995868 0.230099
vt 0.997889 0.324087
vt 0.841360 0.248420
vt 0.828803 0.230099
vt 0.822751 0.244401
vt 0.851561 0.226080
vt 0.846932 0.324087
vt 0.907997 0.253287
vt 0.910824 0.234966
vt 0.910824 0.324087
vt 0.974634 0.244401
vt 0.961523 0.226080
vt 0.974716 0.259503
vt 0.995868 0.230099
vt 0.997889 0.139077
vt 0.944763 0.139077
vt 0.991525 0.100753
vt 0.944763 0.100753
vt 0.991525 0.065431
vt 0.944763 0.065431
vt 0.991525 0.159108
vt 0.944763 0.159108
vt 0.991525 0.045399
vt 0.991525 0.045399
vt 0.944763 0.218566
vt 0.240631 0.147415
vt 0.245984 0.077465
vt 0.246630 0.271722
vt 0.235585 0.345790
vt 0.234581 0.126898
vt 0.197788 0.176680
vt 0.194044 0.070980
vt 0.198203 0.272212
vt 0.185079 0.344591
vt 0.182854 0.220356
vt 0.190174 0.026029
vt 0.009061 0.035172
vt 0.094535 0.101826
vt 0.137388 0.096675
vt 0.092119 0.301188
vt 0.107567 0.235487
vt 0.147768 0.287512
vt 0.137911 0.346985
vt 0.129657 0.351499
vt 0.085362 0.145011
vt 0.120627 0.154872
vt 0.140135 0.040487
vt 0.053667 0.396225
vt 0.064948 0.052802
vt 0.136656 0.212723
vt 0.074457 0.130043
vt 0.277337 0.068333
vt 0.277800 0.189755
vt 0.277349 0.297017
vt 0.277864 0.354641
vt 0.278581 0.230139
vt 0.162757 0.015100
vt 0.198619 0.413634
vt 0.124303 0.015100
vt 0.008900 0.015100
vt 0.135963 0.413634
vt 0.062681 0.015100
vt 0.008900 0.015100
vt 0.247275 0.015100
vt 0.095397 0.218566
vt 0.240631 0.147415
vt 0.245984 0.077465
vt 0.246630 0.271722
vt 0.235585 0.345790
vt 0.234581 0.126898
vt 0.197788 0.176680
vt 0.194044 0.070980
vt 0.198203 0.272212
vt 0.185079 0.344591
vt 0.182854 0.220356
vt 0.190174 0.026029
vt 0.009061 0.035172
vt 0.094535 0.101826
vt 0.137388 0.096675
vt 0.092119 0.301188
vt 0.107567 0.235487
vt 0.147768 0.287512
vt 0.137911 0.346985
vt 0.129657 0.351499
vt 0.085362 0.145011
vt 0.120627 0.154872
vt 0.140135 0.040487
vt 0.053667 0.396225
vt 0.064948 0.052802
vt 0.136656 0.212723
vt 0.074457 0.130043
vt 0.277337 0.068333
vt 0.277800 0.189755
vt 0.277349 0.297017
vt 0.277864 0.354641
vt 0.278581 0.230139
vt 0.162757 0.413634
vt 0.279336 0.015100
vt 0.278371 0.413634
vt 0.233582 0.413634
vt 0.181865 0.483868
vt 0.842071 0.447863
vt 0.841972 0.622891
vt 0.855210 0.692842
vt 0.861231 0.804003
vt 0.861231 0.873954
vt 0.855210 0.805095
vt 0.572482 0.463195
vt 0.711278 0.943172
vt 0.731855 0.447866
vt 0.779061 0.483852
vt 0.779062 0.483864
vt 0.727698 0.876397
vt 0.657670 0.748423
vt 0.600296 0.695833
vt 0.606613 0.801013
vt 0.606613 0.620448
vt 0.657670 0.701183
vt 0.648978 0.795662
vt 0.648978 0.929282
vt 0.757361 0.483853
vt 0.757280 0.796516
vt 0.747789 0.634996
vt 0.749609 0.700329
vt 0.747789 0.863498
vt 0.733684 0.796904
vt 0.781435 0.859007
vt 0.792492 0.858843
vt 0.763958 0.699941
vt 0.781435 0.633700
vt 0.782299 0.600706
vt 0.616165 0.691750
vt 0.572482 0.483868
vt 0.716676 0.748423
vt 0.554209 0.896139
vt 0.616165 0.947607
vt 0.721018 0.900836
vt 0.983896 0.682567
vt 0.992431 0.483868
vt 0.842071 0.890765
vt 0.932326 0.606081
vt 0.932326 0.483876
vt 0.913454 0.810905
vt 0.937452 0.685941
vt 0.937452 0.990061
vt 0.961131 0.506784
vt 0.961131 0.814279
vt 0.992431 0.596009
vt 0.983896 0.522910
vt 0.946249 0.483868
vt 0.842071 0.447863
vt 0.841972 0.622891
vt 0.855210 0.692842
vt 0.861231 0.804003
vt 0.861231 0.873954
vt 0.855210 0.805095
vt 0.572482 0.463195
vt 0.711278 0.943172
vt 0.731855 0.447866
vt 0.779061 0.483852
vt 0.779062 0.483864
vt 0.727698 0.876397
vt 0.657670 0.748423
vt 0.600296 0.695833
vt 0.606613 0.801013
vt 0.606613 0.620448
vt 0.657670 0.701183
vt 0.648978 0.795662
vt 0.648978 0.929282
vt 0.757361 0.483853
vt 0.757280 0.796516
vt 0.747789 0.634996
vt 0.749609 0.700329
vt 0.747789 0.863498
vt 0.733684 0.796904
vt 0.781435 0.859007
vt 0.792492 0.858843
vt 0.763958 0.699941
vt 0.781435 0.633700
vt 0.782299 0.600706
vt 0.616165 0.691750
vt 0.572482 0.483868
vt 0.716676 0.748423
vt 0.554209 0.896139
vt 0.616165 0.947607
vt 0.721018 0.900836
vt 0.983896 0.682567
vt 0.992431 0.483868
vt 0.842071 0.890765
vt 0.932326 0.606081
vt 0.932326 0.483876
vt 0.913454 0.810905
vt 0.937452 0.685941
vt 0.937452 0.990061
vt 0.961131 0.506784
vt 0.961131 0.814279
vt 0.992431 0.596009
vt 0.983896 0.522910
vt 0.946249 0.468386
vt 0.859323 0.478170
vt 0.890658 0.478200
vt 0.845940 0.468415
vt 0.920045 0.478205
vt 0.923921 0.468400
vt 0.889143 0.478310
vt 0.766187 0.468440
vt 0.766668 0.468419
vt 0.804735 0.478354
vt 0.955326 0.468424
vt 0.956599 0.478603
vt 0.990423 0.468435
vt 0.987692 0.563970
vt 0.949596 0.558556
vt 0.919988 0.577132
vt 0.769160 0.580023
vt 0.729846 0.571664
vt 0.846839 0.575591
vt 0.805411 0.557420
vt 0.889492 0.603489
vt 0.983257 0.587803
vt 0.946993 0.582330
vt 0.887580 0.592225
vt 0.806163 0.592387
vt 0.769269 0.478231
vt 0.804792 0.582616
vt 0.918276 0.592049
vt 0.847734 0.665392
vt 0.807691 0.667077
vt 0.847373 0.609207
vt 0.916760 0.608297
vt 0.945037 0.605914
vt 0.886710 0.753736
vt 0.975962 0.765431
vt 0.975368 0.765045
vt 0.937934 0.752232
vt 0.938514 0.664510
vt 0.771654 0.674556
vt 0.732528 0.765443
vt 0.847292 0.753479
vt 0.847302 0.752322
vt 0.887038 0.752033
vt 0.911730 0.753626
vt 0.810274 0.753288
vt 0.771515 0.468405
vt 0.832397 0.765448
vt 0.810621 0.765192
vt 0.771497 0.765262
vt 0.887066 0.468386
vt 0.859323 0.478170
vt 0.890658 0.478200
vt 0.845940 0.468415
vt 0.920045 0.478205
vt 0.923921 0.468400
vt 0.889143 0.478310
vt 0.766187 0.468440
vt 0.766668 0.468419
vt 0.804735 0.478354
vt 0.955326 0.468424
vt 0.956599 0.478603
vt 0.990423 0.468435
vt 0.987692 0.563970
vt 0.949596 0.558556
vt 0.919988 0.577132
vt 0.769160 0.580023
vt 0.729846 0.571664
vt 0.846839 0.575591
vt 0.805411 0.557420
vt 0.889492 0.603489
vt 0.983257 0.587803
vt 0.946993 0.582330
vt 0.887580 0.592225
vt 0.806163 0.592387
vt 0.769269 0.478231
vt 0.804792 0.582616
vt 0.918276 0.592049
vt 0.847734 0.665392
vt 0.807691 0.667077
vt 0.847373 0.609207
vt 0.916760 0.608297
vt 0.945037 0.605914
vt 0.886710 0.753736
vt 0.975962 0.765431
vt 0.975368 0.765045
vt 0.937934 0.752232
vt 0.938514 0.664510
vt 0.771654 0.674556
vt 0.732528 0.765443
vt 0.847292 0.753479
vt 0.847302 0.752322
vt 0.887038 0.752033
vt 0.911730 0.753626
vt 0.810274 0.753288
vt 0.771515 0.468405
vt 0.832397 0.765448
vt 0.810621 0.765192
vt 0.771497 0.765262
vt 0.887066 0.143532
vt 0.880659 0.090287
vt 0.900586 0.051467
vt 0.910422 0.034112
vt 0.945606 0.308191
vt 0.558756 0.278234
vt 0.620391 0.240796
vt 0.689690 0.227324
vt 0.745240 0.143532
vt 0.880659 0.051467
vt 0.910422 0.090287
vt 0.900586 0.034112
vt 0.945606 0.308191
vt 0.558756 0.278234
vt 0.620391 0.240796
vt 0.689690 0.227324
vt 0.745240 0.406122
vt 0.010304 0.413634
vt 0.010376 0.208259
vt 0.162748 0.201646
vt 0.147754 0.179600
vt 0.122990 0.144405
vt 0.076384 0.212409
vt 0.144511 0.252790
vt 0.019286 0.201598
vt 0.004489 0.166790
vt 0.030216 0.258448
vt 0.127039 0.266365
vt 0.070893 0.247378
vt 0.277357 0.015100
vt 0.278371 0.015100
vt 0.247275 0.015100
vt 0.198619 0.015100
vt 0.008900 0.015100
vt 0.008900 0.413634
vt 0.062681 0.413634
vt 0.124303 0.413634
vt 0.010376 0.406122
vt 0.010304 0.015100
vt 0.135963 0.208259
vt 0.162748 0.201646
vt 0.147754 0.413634
vt 0.181865 0.015100
vt 0.095397 0.413634
vt 0.233582 0.144405
vt 0.076384 0.179600
vt 0.122990 0.212409
vt 0.144511 0.252790
vt 0.019286 0.201598
vt 0.004489 0.166790
vt 0.030216 0.258448
vt 0.127039 0.266365
vt 0.070893 0.247378
vt 0.277357 0.413634
vt 0.279336 0.553673
vt 0.731855 0.549239
vt 0.721018 0.447863
vt 0.757256 0.447861
vt 0.718322 0.567563
vt 0.757361 0.930752
vt 0.779189 0.566093
vt 0.779189 0.550894
vt 0.841925 0.945952
vt 0.841925 0.447860
vt 0.707274 0.447857
vt 0.913383 0.447863
vt 0.841972 0.622891
vt 0.855210 0.550894
vt 0.841925 0.692842
vt 0.861231 0.483868
vt 0.842071 0.447857
vt 0.913383 0.873954
vt 0.855210 0.975659
vt 0.913705 0.945952
vt 0.841925 0.521186
vt 0.913705 0.804003
vt 0.861231 0.483878
vt 0.963342 0.447858
vt 0.963282 0.517530
vt 0.946559 0.519451
vt 0.941922 0.525386
vt 0.941452 0.528567
vt 0.945908 0.526527
vt 0.950631 0.519769
vt 0.950888 0.553673
vt 0.731855 0.549239
vt 0.721018 0.447863
vt 0.757256 0.447861
vt 0.718322 0.567563
vt 0.757361 0.930752
vt 0.779189 0.566093
vt 0.779189 0.550894
vt 0.841925 0.945952
vt 0.841925 0.447860
vt 0.707274 0.447857
vt 0.913383 0.447863
vt 0.841972 0.622891
vt 0.855210 0.550894
vt 0.841925 0.692842
vt 0.861231 0.483868
vt 0.842071 0.447857
vt 0.913383 0.873954
vt 0.855210 0.975659
vt 0.913705 0.945952
vt 0.841925 0.521186
vt 0.913705 0.804003
vt 0.861231 0.483878
vt 0.963342 0.447858
vt 0.963282 0.519451
vt 0.941922 0.517530
vt 0.946559 0.528567
vt 0.945908 0.525386
vt 0.941452 0.526527
vt 0.950631 0.519769
vt 0.950888 0.583939
vt 0.984230 0.600480
vt 0.730502 0.675043
vt 0.979959 0.478560
vt 0.725562 0.468435
vt 0.727457 0.753540
vt 0.734436 0.765278
vt 0.734720 0.583939
vt 0.984230 0.600480
vt 0.730502 0.675043
vt 0.979959 0.478560
vt 0.725562 0.468435
vt 0.727457 0.753540
vt 0.734436 0.765278
vt 0.734720 1.000000

f 313/313 312/312 314/314
f 316/316 315/315 317/317
f 319/319 318/318 320/320
f 322/322 321/321 323/323
f 324/324 322/322 323/323
f 316/316 325/325 321/321
f 325/325 316/316 326/326
f 328/328 327/327 318/318
f 314/314 330/330 329/329
f 331/331 326/326 313/313
f 326/326 316/316 313/313
f 333/333 332/332 524/524
f 524/524 321/321 325/325
f 334/334 331/331 329/329
f 335/335 327/327 336/336
f 327/327 335/335 330/330
f 318/318 337/337 320/320
f 338/338 333/333 325/325
f 338/338 325/325 326/326
f 338/338 326/326 331/331
f 338/338 331/331 334/334
f 329/329 339/339 334/334
f 524/524 325/325 333/333
f 340/340 339/339 335/335
f 339/339 340/340 341/341
f 342/342 333/333 338/338
f 343/343 333/333 342/342
f 334/334 342/342 338/338
f 342/342 334/334 344/344
f 346/346 345/345 347/347
f 348/348 347/347 345/345
f 349/349 336/336 525/525
f 350/350 349/349 525/525
f 335/335 349/349 340/340
f 349/349 335/335 336/336
f 339/339 344/344 334/334
f 351/351 360/360 352/352
f 353/353 352/352 360/360
f 341/341 344/344 339/339
f 332/332 333/333 343/343
f 342/342 344/344 354/354
f 353/353 354/354 344/344
f 343/343 526/526 332/332
f 527/527 318/318 319/319
f 319/319 528/528 527/527
f 348/348 354/354 347/347
f 360/360 347/347 354/354
f 340/340 355/355 341/341
f 352/352 341/341 355/355
f 349/349 356/356 340/340
f 355/355 340/340 356/356
f 529/529 356/356 350/350
f 349/349 350/350 356/356
f 314/314 312/312 357/357
f 322/322 316/316 321/321
f 316/316 322/322 315/315
f 329/329 335/335 339/339
f 314/314 331/331 313/313
f 328/328 525/525 336/336
f 337/337 314/314 357/357
f 330/330 335/335 329/329
f 331/331 314/314 329/329
f 330/330 337/337 318/318
f 330/330 314/314 337/337
f 328/328 336/336 327/327
f 330/330 318/318 327/327
f 321/321 524/524 323/323
f 527/527 328/328 318/318
f 317/317 313/313 316/316
f 312/312 313/313 317/317
f 337/337 357/357 320/320
f 348/348 526/526 343/343
f 353/353 341/341 352/352
f 354/354 353/353 360/360
f 354/354 348/348 342/342
f 343/343 342/342 348/348
f 355/355 358/358 352/352
f 351/351 352/352 358/358
f 356/356 359/359 355/355
f 358/358 355/355 359/359
f 356/356 529/529 359/359
f 530/530 359/359 529/529
f 353/353 344/344 341/341
f 348/348 345/345 526/526
f 362/362 363/363 361/361
f 365/365 366/366 364/364
f 368/368 369/369 367/367
f 371/371 372/372 370/370
f 373/373 372/372 371/371
f 365/365 370/370 374/374
f 374/374 375/375 365/365
f 377/377 367/367 376/376
f 363/363 378/378 379/379
f 380/380 362/362 375/375
f 375/375 362/362 365/365
f 382/382 531/531 381/381
f 531/531 374/374 370/370
f 383/383 378/378 380/380
f 384/384 385/385 376/376
f 376/376 379/379 384/384
f 367/367 369/369 386/386
f 387/387 374/374 382/382
f 387/387 375/375 374/374
f 387/387 380/380 375/375
f 387/387 383/383 380/380
f 378/378 383/383 388/388
f 531/531 382/382 374/374
f 389/389 384/384 388/388
f 388/388 390/390 389/389
f 391/391 387/387 382/382
f 392/392 391/391 382/382
f 383/383 387/387 391/391
f 391/391 393/393 383/383
f 395/395 396/396 394/394
f 397/397 394/394 396/396
f 398/398 532/532 385/385
f 399/399 532/532 398/398
f 384/384 389/389 398/398
f 398/398 385/385 384/384
f 388/388 383/383 393/393
f 400/400 401/401 409/409
f 402/402 409/409 401/401
f 390/390 388/388 393/393
f 381/381 392/392 382/382
f 391/391 403/403 393/393
f 402/402 393/393 403/403
f 392/392 381/381 533/533
f 534/534 368/368 367/367
f 368/368 534/534 535/535
f 397/397 396/396 403/403
f 409/409 403/403 396/396
f 389/389 390/390 404/404
f 401/401 404/404 390/390
f 398/398 389/389 405/405
f 404/404 405/405 389/389
f 536/536 399/399 405/405
f 398/398 405/405 399/399
f 363/363 406/406 361/361
f 371/371 370/370 365/365
f 365/365 364/364 371/371
f 378/378 388/388 384/384
f 363/363 362/362 380/380
f 377/377 385/385 532/532
f 386/386 406/406 363/363
f 379/379 378/378 384/384
f 380/380 378/378 363/363
f 379/379 367/367 386/386
f 379/379 386/386 363/363
f 377/377 376/376 385/385
f 379/379 376/376 367/367
f 370/370 372/372 531/531
f 534/534 367/367 377/377
f 366/366 365/365 362/362
f 361/361 366/366 362/362
f 386/386 369/369 406/406
f 397/397 392/392 533/533
f 402/402 401/401 390/390
f 403/403 409/409 402/402
f 403/403 391/391 397/397
f 392/392 397/397 391/391
f 404/404 401/401 407/407
f 400/400 407/407 401/401
f 405/405 404/404 408/408
f 407/407 408/408 404/404
f 405/405 408/408 536/536
f 537/537 536/536 408/408
f 402/402 390/390 393/393
f 397/397 533/533 394/394
f 138/138 166/166 165/165
f 140/140 165/165 139/139
f 143/143 144/144 138/138
f 139/139 144/144 176/176
f 140/140 176/176 146/146
f 142/142 141/141 138/138
f 144/144 148/148 138/138
f 148/148 146/146 172/172
f 149/149 175/175 152/152
f 151/151 150/150 155/155
f 153/153 155/155 156/156
f 157/157 156/156 152/152
f 158/158 159/159 152/152
f 150/150 160/160 156/156
f 171/171 156/156 426/426
f 427/427 174/174 151/151
f 152/152 159/159 174/174
f 161/161 426/426 175/175
f 160/160 150/150 149/149
f 160/160 175/175 162/162
f 173/173 162/162 159/159
f 428/428 159/159 144/144
f 143/143 151/151 213/213
f 157/157 161/161 177/177
f 162/162 173/173 147/147
f 142/142 147/147 150/150
f 177/177 175/175 164/164
f 139/139 164/164 140/140
f 139/139 140/140 145/145
f 143/143 145/145 162/162
f 150/150 151/151 430/430
f 431/431 163/163 430/430
f 163/163 432/432 433/433
f 163/163 435/435 436/436
f 163/163 433/433 435/435
f 163/163 431/431 432/432
f 163/163 436/436 138/138
f 438/438 138/138 142/142
f 168/168 142/142 167/167
f 168/168 167/167 151/151
f 159/159 144/144 156/156
f 147/147 146/146 156/156
f 171/171 213/213 146/146
f 156/156 146/146 204/204
f 206/206 179/179 178/178
f 179/179 206/206 439/439
f 205/205 440/440 180/180
f 440/440 205/205 183/183
f 178/178 184/184 441/441
f 440/440 185/185 180/180
f 185/185 440/440 181/181
f 181/181 187/187 182/182
f 187/187 181/181 184/184
f 178/178 186/186 189/189
f 442/442 443/443 191/191
f 192/192 190/190 209/209
f 195/195 194/194 193/193
f 196/196 193/193 197/197
f 193/193 196/196 198/198
f 192/192 199/199 190/190
f 192/192 200/200 201/201
f 196/196 444/444 445/445
f 444/444 196/196 446/446
f 447/447 444/444 192/192
f 191/191 199/199 201/201
f 444/444 447/447 200/200
f 443/443 190/190 200/200
f 189/189 443/443 185/185
f 202/202 441/441 448/448
f 441/441 202/202 449/449
f 199/199 188/188 184/184
f 188/188 199/199 198/198
f 199/199 450/450 449/449
f 450/450 199/199 183/183
f 184/184 191/191 187/187
f 451/451 196/196 197/197
f 196/196 201/201 190/190
f 452/452 448/448 202/202
f 190/190 448/448 451/451
f 187/187 453/453 182/182
f 453/453 187/187 452/452
f 190/190 443/443 205/205
f 204/204 180/180 179/179
f 180/180 204/204 185/185
f 180/180 183/183 179/179
f 183/183 180/180 202/202
f 185/185 191/191 183/183
f 191/191 185/185 190/190
f 202/202 191/191 454/454
f 455/455 456/456 203/203
f 457/457 458/458 203/203
f 458/458 459/459 203/203
f 460/460 461/461 203/203
f 461/461 457/457 203/203
f 459/459 454/454 203/203
f 456/456 460/460 181/181
f 178/178 207/207 462/462
f 207/207 178/178 453/453
f 182/182 463/463 208/208
f 463/463 182/182 181/181
f 207/207 182/182 208/208
f 182/182 207/207 199/199
f 191/191 184/184 187/187
f 196/196 186/186 445/445
f 196/196 451/451 188/188
f 186/186 209/209 195/195
f 209/209 186/186 196/196
