# MOD converted: e_w_costume_dracula_body.mod
# 780 verts, 513 faces

v 64.369270 15.887349 0.000000
v 61.287357 -13.842173 6.113344
v 81.443909 -8.728335 11.185000
v 81.849945 -5.495929 12.573118
v 82.602470 -0.153078 10.617535
v 83.039154 4.123867 7.892419
v 83.345612 7.127341 9.327355
v 61.551987 -12.934608 17.773235
v 62.364956 -8.695862 12.516340
v 77.169563 8.130836 7.760692
v 79.269997 11.005579 16.207817
v 76.311386 0.745117 17.092533
v 64.145477 9.584680 8.790212
v 64.396271 14.865608 14.086675
v 75.276535 -6.903080 7.949799
v 74.197563 -10.886499 20.321362
v 63.657574 1.750611 0.000000
v 81.127167 -10.073555 -0.000000
v 83.655884 8.383102 0.000000
v 73.652626 -11.798159 -0.000000
v 79.605286 11.941689 0.000001
v 119.354881 -4.173140 0.000001
v 106.952087 11.095069 0.000000
v 114.955956 10.790010 -0.000000
v 96.454521 8.894588 0.000000
v 89.077133 -9.814504 9.165478
v 89.291153 -7.150292 5.972379
v 109.838997 -5.718810 5.380890
v 90.228813 8.580624 5.255789
v 106.983925 10.563068 9.631452
v 109.494064 9.914741 4.516964
v 96.458488 8.070164 5.087007
v 101.370522 9.434379 8.537598
v 96.461746 6.677243 10.602677
v 96.586319 2.182322 9.866827
v 101.443542 8.278311 7.115854
v 113.157326 -1.283681 9.142678
v 115.358742 4.914000 7.214094
v 113.926094 9.195229 4.445979
v 114.414757 10.114677 4.967537
v 117.847656 6.034595 8.669187
v 114.784050 0.801861 9.261779
v 113.646629 7.932089 11.590378
v 113.868889 0.647506 10.485070
v 96.583374 -0.899479 3.825190
v 118.810966 -6.514223 1.494338
v 118.348694 -6.792143 12.567530
v 114.039413 7.328762 12.310835
v 109.929665 10.121330 12.210243
v 114.559387 4.034986 6.056554
v 119.722992 -4.305479 6.711548
v 121.212265 -0.624877 5.796528
v 122.201523 4.095433 3.471889
v 122.469147 7.896705 5.489901
v 116.807877 1.317984 10.801529
v 111.799339 -1.323721 12.568117
v 102.922966 7.102149 4.840186
v 111.747452 -4.023482 3.141629
v 115.796043 -2.340538 12.268686
v 102.032768 -7.576960 4.593371
v 98.301865 -12.965996 9.313483
v 98.381165 -11.509089 4.410782
v 101.657730 -13.909795 9.170397
v 101.708748 -12.417502 11.935139
v 99.297607 -7.131365 4.508066
v 105.756973 -11.899287 8.871490
v 105.683281 -10.580095 10.431156
v 107.024925 -6.343750 4.914303
v 96.197098 -10.064201 9.241075
v 96.320854 -6.360375 5.041267
v 89.142319 -9.660040 12.572773
v 103.310417 -0.488341 10.869618
v 109.092926 -2.609125 5.009027
v 122.611473 2.860939 4.507279
v 120.603455 -1.675665 4.762105
v 117.331177 -0.998404 5.117919
v 119.325027 3.685690 3.572150
v 116.108803 4.579003 3.267015
v 114.227272 0.355450 0.000000
v 100.910828 -12.828703 -0.000000
v 113.201233 -2.229026 -0.000000
v 110.151382 -6.481060 -0.000000
v 122.570496 8.705982 0.000000
v 115.342316 -3.946844 0.000001
v 101.394936 10.149015 0.000000
v 116.498390 -3.556862 -0.000000
v 123.522873 5.347327 -0.000000
v 90.608757 9.578979 0.000000
v 116.839020 6.445897 -0.000000
v 120.073753 6.112342 0.000000
v 97.357582 -11.280305 0.000000
v 104.592010 -11.467703 -0.000001
v 118.305214 8.081677 11.961701
v 86.793968 9.248226 6.734146
v 86.895500 11.028489 -0.000001
v 86.961113 12.300821 13.847421
v 86.401688 2.440880 13.318536
v 86.142494 -1.855950 6.309110
v 85.545151 -11.800088 11.470525
v 85.730202 -8.659088 0.000000
v 89.742645 1.925853 0.000000
v 77.026497 14.562748 0.000000
v 80.066727 -12.225828 -0.000000
v 84.350800 11.530117 -0.000000
v 75.847527 -13.784847 0.000000
v 67.422958 -15.759835 -0.000000
v 81.239067 12.964552 -0.000004
v 59.188530 17.095928 0.000000
v 82.087036 -10.715843 -0.000001
v 68.603302 16.089031 11.914322
v 84.251610 7.773295 6.278600
v 84.320122 10.333486 6.538408
v 82.376221 -9.543121 17.828869
v 76.839119 2.525712 14.938090
v 75.839722 -9.234520 15.533823
v 77.027328 10.004044 8.187012
v 77.027832 13.113682 8.351644
v 75.837425 -12.352275 19.852472
v 68.604279 10.831003 10.464105
v 68.604889 14.418721 4.094682
v 58.002323 -16.293839 9.804340
v 67.410812 -14.104444 11.769423
v 60.867767 15.055655 16.229239
v 77.669235 -2.458467 15.609693
v 81.006775 2.343372 13.066422
v 80.027390 -7.611741 13.597997
v 81.198158 8.854512 7.159811
v 81.217506 11.662365 7.357596
v 80.046562 -10.937330 15.044616
v 80.558990 -2.245786 17.337465
v 111.621056 0.264317 17.552467
v 111.974960 7.249007 16.019079
v 108.354111 9.797530 14.366776
v 103.167488 -1.090412 14.320255
v 103.439919 6.746733 16.098692
v 107.413376 -3.247317 21.425957
v 110.226791 0.324186 21.391441
v 110.640022 7.048586 19.405994
v 106.899948 9.102975 17.558540
v 102.050400 6.481136 19.829920
v 106.560463 -3.297080 17.774452
v 102.136879 -0.868024 17.611473
v 113.050087 3.733724 21.758099
v 111.414833 3.491530 23.913342
v 98.318687 6.460380 24.120134
v 98.533203 -0.540489 28.542782
v 108.960449 6.342060 26.294510
v 104.033264 -3.383839 28.371208
v 108.735733 -0.875427 25.055016
v 104.379265 10.621181 25.860785
v 96.956787 6.315337 30.568188
v 108.207420 6.732542 29.697071
v 102.522125 10.883770 27.195511
v 103.518631 10.835699 30.444149
v 107.919670 -1.239301 28.301826
v 103.122841 -4.047189 25.973213
v 97.118050 -0.853794 33.644035
v 92.779610 -1.772066 36.183300
v 99.151123 10.933083 33.611271
v 92.774139 6.787483 28.757463
v 109.476631 3.308100 30.806902
v 108.704880 3.160410 39.046585
v 92.738625 5.606348 41.153305
v 97.468864 8.375212 38.840828
v 92.701317 -0.588196 43.145576
v 101.817665 6.073858 40.922176
v 97.376915 -3.759081 42.895641
v 101.954231 -1.301193 36.274754
v 99.191231 -5.722744 39.067970
v 105.156151 -2.383119 39.212784
v 105.126900 7.329744 39.414356
v 105.722511 2.545242 41.750366
v 91.006226 5.849590 43.953209
v 96.101868 8.754152 43.683998
v 95.994789 -4.660304 41.444313
v 90.902214 -0.967660 45.899918
v 101.191650 -1.949596 46.139145
v 101.028008 6.412137 41.234524
v 97.403770 2.259286 -0.000000
v 108.836761 -8.359992 -0.000000
v 110.330116 -9.762222 8.481720
v 112.067200 -5.698396 10.161020
v 117.097588 1.237072 7.677980
v 118.763382 7.336370 8.213280
v 115.038826 -4.908623 9.457826
v 119.201691 1.297234 7.143206
v 120.624489 7.446535 10.114363
v 115.060692 -2.114125 9.628544
v 117.627533 -1.817706 3.678436
v 108.800133 -9.023369 3.298623
v 112.863747 -6.030560 -0.000000
v 110.559608 -6.349774 2.930134
v 110.907761 -7.233552 2.259857
v 108.963150 -8.363612 0.753537
v 108.057884 -9.764222 6.360816
v 105.499527 -13.635138 2.340687
v 102.352798 -14.759089 -0.000000
v 112.309196 -8.118647 0.000000
v 106.589500 -11.532626 5.058334
v 110.176704 -7.401516 4.924117
v 112.599785 -6.207582 -0.000001
v 121.196396 9.711131 -0.000000
v 110.729904 -7.172544 -0.000001
v 119.312767 9.214430 9.557951
v 90.147476 7.158128 11.064729
v 89.832840 1.718810 10.642124
v 89.623108 -1.717876 13.713686
v 83.625687 2.157911 11.457301
v 82.685745 -6.515717 13.212601
v 83.112289 -1.979415 43.009235
v 101.909698 2.971217 46.029427
v 101.103058 2.576906 -0.000001
v 130.077362 13.209578 0.000002
v 103.583740 16.940071 -0.000000
v 124.401405 10.101214 9.636331
v 121.689331 1.498166 8.681912
v 117.399422 -4.855992 13.507583
v 125.855644 1.631629 12.487292
v 121.623169 -9.505285 11.995502
v 128.712158 8.157251 6.228839
v 112.958374 -4.742552 7.401923
v 118.221878 1.473748 8.589164
v 124.311142 6.458104 5.187466
v 124.827209 9.644039 6.389813
v 130.329010 12.736628 8.532851
v 115.412399 -2.455756 10.796173
v 117.691200 5.243336 10.278559
v 117.092133 0.905907 11.567980
v 113.178909 12.081477 15.382180
v 116.022720 0.090540 16.053988
v 116.968758 4.402144 14.250127
v 113.766502 -3.172757 5.806947
v 119.312294 6.423568 6.822307
v 110.821701 -6.609067 8.498309
v 109.885773 -7.184161 13.733960
v 109.316635 -6.090590 18.298916
v 110.281555 -3.808511 21.680243
v 112.104538 -0.977084 22.223299
v 113.510994 3.685637 22.383636
v 111.536453 8.524822 6.227179
v 103.602295 16.494989 13.131207
v 103.491447 15.844311 5.535359
v 113.846581 13.132896 17.218843
v 113.435959 10.773833 19.220438
v 102.971054 14.580526 24.834661
v 102.227905 12.300131 37.697182
v 35.998070 18.098520 7.737999
v 72.773483 23.889755 17.203178
v 72.775642 22.215904 25.373905
v 72.789185 19.939333 32.356102
v 72.780365 16.711321 6.915472
v 91.264191 19.511671 14.998557
v 91.263420 18.744019 22.023119
v 91.260788 16.962942 35.818951
v 54.357674 17.783878 9.072418
v 54.330452 26.781643 19.068447
v 54.333763 24.637630 28.230114
v 54.360664 21.897951 28.199734
v 91.241432 14.653432 9.197989
v 48.193733 26.383936 28.937828
v 47.233154 22.074387 0.000001
v 72.774124 24.117859 0.000003
v 35.959572 28.886623 -0.000000
v 91.265938 19.855804 -0.000000
v 114.164185 13.837958 -0.000001
v 119.785583 8.595181 0.000001
v 54.330524 26.893900 4.679606
v 67.417160 -15.564421 4.799749
v 75.841721 -13.389962 -6.113342
v 81.443909 -8.728338 -11.184999
v 81.849945 -5.495933 -12.573118
v 82.602470 -0.153077 -10.617535
v 83.039154 4.123869 -7.892419
v 83.345612 7.127339 -9.327357
v 61.551983 -12.934608 -17.773237
v 62.364967 -8.695865 -12.516341
v 77.169571 8.130834 -7.760692
v 79.269997 11.005579 -16.207817
v 76.311386 0.745121 -17.092535
v 64.145477 9.584680 -8.790210
v 64.396278 14.865611 -14.086675
v 75.276535 -6.903080 -7.949799
v 74.197563 -10.886499 -20.321365
v 63.657574 1.750615 -9.165479
v 89.291153 -7.150290 -5.972377
v 109.838997 -5.718811 -5.380891
v 90.228813 8.580624 -5.255788
v 106.977928 10.560474 -9.631740
v 109.488724 9.914744 -4.516963
v 96.458488 8.070164 -5.087006
v 101.370522 9.434378 -8.537599
v 96.461746 6.677244 -10.602674
v 96.586319 2.182323 -9.866826
v 101.439308 8.272407 -7.115854
v 113.160545 -1.281396 -9.142680
v 115.357124 4.918256 -7.214095
v 113.921150 9.198099 -4.445978
v 114.414757 10.114677 -4.967536
v 117.847649 6.034596 -8.669183
v 114.785637 0.805614 -9.261777
v 113.642662 7.935101 -11.590378
v 113.871826 0.653630 -10.485070
v 96.583374 -0.899479 -3.825190
v 118.810951 -6.514222 -1.494336
v 118.348694 -6.792143 -12.567529
v 114.034180 7.334546 -12.310834
v 109.922874 10.122271 -12.210242
v 114.557999 4.041257 -6.056554
v 119.722977 -4.305477 -6.711547
v 121.212265 -0.624879 -5.796525
v 122.201523 4.095434 -3.471889
v 122.469147 7.896705 -5.489899
v 116.807877 1.317984 -10.801528
v 111.803871 -1.321045 -12.568115
v 102.914688 7.091265 -4.840184
v 111.747452 -4.023483 -3.141629
v 115.796043 -2.340537 -12.268686
v 102.032768 -7.576959 -4.593366
v 98.301865 -12.965999 -9.313479
v 98.381172 -11.509091 -4.410781
v 101.657730 -13.909797 -9.170393
v 101.708748 -12.417503 -11.935139
v 99.297607 -7.131365 -4.508065
v 105.756973 -11.899287 -8.871489
v 105.683281 -10.580097 -10.431155
v 107.033760 -6.345827 -4.914301
v 96.197098 -10.064202 -9.241073
v 96.320854 -6.360377 -5.041267
v 89.142319 -9.660041 -12.572771
v 103.316902 -0.498486 -10.869620
v 109.099289 -2.609241 -5.009028
v 122.611458 2.860942 -4.507279
v 120.603455 -1.675664 -4.762104
v 117.331177 -0.998406 -5.117919
v 119.325027 3.685689 -3.572150
v 116.108803 4.579002 -3.267015
v 114.227272 0.355448 -11.961702
v 86.793968 9.248227 -6.734144
v 86.895500 11.028487 -13.847423
v 86.401688 2.440878 -13.318538
v 86.142494 -1.855947 -6.309110
v 85.545151 -11.800088 -11.470524
v 85.730194 -8.659088 -11.914322
v 84.251610 7.773295 -6.278600
v 84.320122 10.333487 -6.538409
v 82.376221 -9.543122 -17.828869
v 76.839119 2.525712 -14.938090
v 75.839722 -9.234521 -15.533826
v 77.027336 10.004049 -8.187012
v 77.027832 13.113680 -8.351645
v 75.837425 -12.352273 -19.852472
v 68.604279 10.831005 -10.464105
v 68.604889 14.418723 -4.094685
v 58.002331 -16.293839 -9.804341
v 67.410812 -14.104446 -11.769424
v 60.867760 15.055658 -16.229239
v 77.669235 -2.458473 -15.609693
v 81.006775 2.343372 -13.066420
v 80.027390 -7.611745 -13.597997
v 81.198158 8.854513 -7.159811
v 81.217506 11.662366 -7.357597
v 80.046539 -10.937325 -15.044616
v 80.558990 -2.245792 -17.337463
v 111.623779 0.268237 -17.552467
v 111.970306 7.253332 -16.019077
v 108.346756 9.797868 -14.366776
v 103.172874 -1.097217 -14.320255
v 103.434570 6.740267 -16.098688
v 107.419800 -3.247903 -21.425957
v 110.226768 0.324139 -21.391443
v 110.640068 7.048536 -19.405994
v 106.900017 9.102969 -17.558540
v 102.050446 6.481182 -19.829918
v 106.560387 -3.297086 -17.774454
v 102.136833 -0.867979 -17.611475
v 113.049149 3.739141 -21.758099
v 111.414833 3.491470 -23.913342
v 98.318733 6.460425 -24.120140
v 98.533188 -0.540468 -28.542782
v 108.960503 6.342010 -26.294518
v 104.033234 -3.383842 -28.371212
v 108.735703 -0.875452 -25.055016
v 104.379356 10.621179 -25.860779
v 96.956787 6.315338 -30.568186
v 108.207420 6.732539 -29.697071
v 102.522186 10.883770 -27.195517
v 103.518723 10.835696 -30.444155
v 107.919670 -1.239308 -28.301838
v 103.122841 -4.047189 -25.973215
v 97.118050 -0.853788 -33.644043
v 92.779610 -1.772076 -36.183281
v 99.151085 10.933078 -33.611263
v 92.774139 6.787474 -28.757463
v 109.476631 3.308045 -30.806900
v 108.704880 3.160407 -39.046574
v 92.738625 5.606341 -41.153286
v 97.468842 8.375212 -38.840828
v 92.701317 -0.588206 -43.145576
v 101.817665 6.073863 -40.922176
v 97.376892 -3.759080 -42.895649
v 101.954231 -1.301189 -36.274750
v 99.191193 -5.722745 -39.067966
v 105.156151 -2.383112 -39.212776
v 105.126900 7.329751 -39.414356
v 105.722511 2.545249 -41.750366
v 91.006226 5.849584 -43.953201
v 96.101852 8.754152 -43.684006
v 95.994781 -4.660303 -41.444313
v 90.902214 -0.967665 -45.899918
v 101.191650 -1.949592 -46.139145
v 101.028008 6.412141 -41.234524
v 97.403770 2.259285 -8.481719
v 112.076515 -5.695995 -10.161022
v 117.099457 1.245629 -7.677981
v 118.763382 7.336370 -8.213278
v 115.038826 -4.908624 -9.457829
v 119.201683 1.297234 -7.143206
v 120.624489 7.446534 -10.114363
v 115.066460 -2.107832 -9.628544
v 117.627533 -1.817704 -3.678436
v 108.800133 -9.023368 -3.298621
v 112.863731 -6.030560 -2.930134
v 110.907761 -7.233553 -2.259853
v 108.963150 -8.363617 -0.753531
v 108.057884 -9.764223 -6.360816
v 105.499527 -13.635140 -2.340687
v 102.352798 -14.759089 -5.058333
v 110.176712 -7.401515 -4.924119
v 112.599792 -6.207582 -9.557951
v 90.147476 7.158127 -11.064729
v 89.832840 1.718810 -10.642124
v 89.623108 -1.717874 -13.713686
v 83.625687 2.157910 -11.457302
v 82.685745 -6.515715 -13.212601
v 83.112289 -1.979414 -43.009235
v 101.909698 2.971222 -46.029419
v 101.103058 2.576910 -9.636331
v 121.689323 1.498168 -8.681914
v 117.399406 -4.855989 -13.507584
v 125.855629 1.631631 -12.487288
v 121.623154 -9.505289 -11.995501
v 128.712158 8.157249 -6.228839
v 112.958374 -4.742551 -7.401923
v 118.221878 1.473750 -8.589163
v 124.311127 6.458106 -5.187467
v 124.827209 9.644038 -6.389813
v 130.329010 12.736627 -8.532850
v 115.412399 -2.455755 -10.796176
v 117.689331 5.249598 -10.278561
v 117.094383 0.914487 -11.567980
v 113.170311 12.085142 -15.382180
v 116.025620 0.098427 -16.053988
v 116.967117 4.411132 -14.250126
v 113.773064 -3.167226 -5.806947
v 119.312294 6.423568 -6.822305
v 110.821701 -6.609070 -8.498310
v 109.896698 -7.184014 -13.733958
v 109.327042 -6.089731 -18.298916
v 110.288589 -3.805713 -21.680243
v 112.104492 -0.977149 -22.223301
v 113.511009 3.685556 -22.383636
v 111.536514 8.524757 -6.227179
v 103.591675 16.490059 -13.131206
v 103.481323 15.840474 -5.535358
v 113.846581 13.132896 -17.218842
v 113.427582 10.779543 -19.220436
v 102.971153 14.580554 -24.834660
v 102.227966 12.300142 -37.697186
v 35.998089 18.098576 -7.737998
v 72.773483 23.889755 -17.203184
v 72.775642 22.215904 -25.373903
v 72.789223 19.939384 -32.356102
v 72.780411 16.711378 -6.915472
v 91.264191 19.511673 -14.998557
v 91.263420 18.744017 -22.023117
v 91.260834 16.962982 -35.818951
v 54.357689 17.783924 -9.072418
v 54.330452 26.781639 -19.068447
v 54.333759 24.637629 -28.230116
v 54.360695 21.898006 -28.199734
v 91.241486 14.653479 -9.197992
v 48.193726 26.383921 -28.937832
v 47.233170 22.074438 -4.679605
v 67.417160 -15.564422 -4.799748
v 75.841721 -13.389963 -0.000001
v 71.171669 -5.067173 9.189456
v 20.484213 -4.611976 8.996702
v 20.483404 8.902473 19.047203
v 20.485802 4.301308 6.671240
v 20.483202 3.595684 17.271500
v 20.485115 -4.274488 15.818412
v 20.485001 9.069465 5.554135
v 48.629509 -5.412829 4.895457
v 44.634899 1.585530 7.014109
v 45.823803 7.665428 12.921600
v 46.202698 7.499635 15.246099
v 49.652096 -4.874410 16.873398
v 45.863094 2.172818 10.970898
v 45.770500 -7.266943 6.143127
v 45.820473 -4.978841 15.306402
v 46.417297 -4.487593 11.302198
v 42.378899 -6.210545 15.639001
v 43.370190 -3.687432 6.830046
v 42.601891 -4.374709 18.503416
v 35.618698 3.084722 14.372300
v 36.841858 9.247299 7.779898
v 36.508453 9.496518 4.990845
v 34.716526 2.662973 10.569800
v 49.151691 -7.544053 16.702101
v 48.443188 2.121850 12.697800
v 48.166504 7.462348 6.914856
v 47.551678 7.607920 4.512317
v 47.441303 1.570386 11.044507
v 79.914116 5.271631 7.415636
v 80.473930 8.451358 13.690931
v 79.138016 -0.111434 6.723581
v 77.083344 -7.093393 11.783763
v 78.165527 -4.378012 15.424959
v 73.013992 0.285675 13.304192
v 72.966904 -5.292592 8.808478
v 74.447098 9.486365 13.455175
v 74.059311 5.111999 1.561127
v 70.646606 0.745426 2.470502
v 71.561203 -5.001958 17.339804
v 60.885479 1.747221 9.634030
v 60.585091 -8.781794 3.599488
v 60.123798 -5.901108 2.262648
v 59.748997 1.104699 9.799316
v 70.001793 7.711382 15.430997
v 60.917122 -6.179844 4.611195
v 60.173401 8.403097 12.256500
v 60.735008 8.272478 3.089293
v 69.710503 7.478324 7.694663
v 72.508209 -6.802815 0.000000
v 70.636635 6.367779 -0.000000
v 70.360901 0.701432 -0.000000
v 76.179161 -8.048475 0.000000
v 73.907799 9.975353 -0.000000
v 80.518204 9.246496 -9.189460
v 20.484215 -4.611977 -8.996702
v 20.483404 8.902471 -19.047209
v 20.485802 4.301308 -6.671240
v 20.483200 3.595684 -17.271505
v 20.485115 -4.274488 -15.818410
v 20.485004 9.069465 -5.554134
v 48.629509 -5.412830 -4.895458
v 44.634899 1.585533 -7.014109
v 45.823803 7.665430 -12.921600
v 46.202698 7.499638 -15.246097
v 49.652092 -4.874409 -16.873398
v 45.863094 2.172821 -10.970899
v 45.770500 -7.266943 -6.143129
v 45.820473 -4.978842 -15.306402
v 46.417297 -4.487592 -11.302197
v 42.378899 -6.210546 -15.639003
v 43.370190 -3.687431 -6.830043
v 42.601891 -4.374709 -18.503412
v 35.618698 3.084727 -14.372300
v 36.841858 9.247301 -7.779897
v 36.508453 9.496519 -4.990847
v 34.716526 2.662976 -10.569798
v 49.151703 -7.544053 -16.702101
v 48.443188 2.121852 -12.697800
v 48.166504 7.462349 -6.914857
v 47.551685 7.607920 -4.512317
v 47.441296 1.570387 -11.044505
v 79.914116 5.271631 -7.415636
v 80.473930 8.451359 -13.690932
v 79.138016 -0.111436 -6.723582
v 77.083344 -7.093393 -11.783763
v 78.165535 -4.378015 -15.424957
v 73.013992 0.285678 -13.304192
v 72.966904 -5.292592 -8.808477
v 74.447098 9.486363 -13.455175
v 74.059311 5.111999 -1.561128
v 70.646606 0.745430 -2.470501
v 71.561203 -5.001960 -17.339802
v 60.885479 1.747224 -9.634030
v 60.585091 -8.781794 -3.599487
v 60.123798 -5.901109 -2.262647
v 59.749012 1.104700 -9.799315
v 70.001793 7.711380 -15.431002
v 60.917122 -6.179842 -4.611197
v 60.173401 8.403094 -12.256500
v 60.735008 8.272479 -3.089292
v 69.710503 7.478323 -7.694662
v 72.508209 -6.802815 12.572773
v 103.310417 -0.488341 10.602677
v 96.586319 2.182322 5.489901
v 116.807877 1.317984 8.669187
v 114.784050 0.801861 11.590378
v 113.868889 0.647506 11.064729
v 89.832840 1.718810 6.711548
v 121.212265 -0.624877 5.117919
v 119.325027 3.685690 0.000000
v 116.498390 -3.556862 4.762105
v 117.331177 -0.998404 -0.000000
v 120.073753 6.112342 13.847421
v 86.401688 2.440880 0.000000
v 89.742645 1.925853 0.000000
v 89.742645 1.925853 0.000000
v 89.742645 1.925853 0.000000
v 89.742645 1.925853 0.000000
v 89.742645 1.925853 5.380890
v 90.228813 8.580624 9.557951
v 90.147476 7.158128 5.041267
v 89.142319 -9.660040 0.000000
v 89.077133 -9.814504 11.064729
v 89.832840 1.718810 9.165478
v 89.291153 -7.150292 10.642124
v 89.623108 -1.717876 -0.000000
v 90.608757 9.578979 11.914322
v 84.251610 7.773295 6.278600
v 84.320122 10.333486 6.538408
v 82.376221 -9.543121 0.000000
v 82.087036 -10.715843 13.713686
v 83.625687 2.157911 11.457301
v 82.685745 -6.515717 13.212601
v 83.112289 -1.979415 -0.000000
v 84.350800 11.530117 12.210243
v 114.559387 4.034986 11.590378
v 113.868889 0.647506 12.567530
v 114.039413 7.328762 12.310835
v 109.929665 10.121330 12.568117
v 102.922966 7.102149 10.801529
v 111.799339 -1.323721 10.869618
v 109.092926 -2.609125 12.572773
v 103.310417 -0.488341 14.320255
v 103.439919 6.746733 17.558540
v 102.050400 6.481136 23.913342
v 98.318687 6.460380 25.860785
v 96.956787 6.315337 33.611271
v 92.774139 6.787483 12.568117
v 102.922966 7.102149 39.046585
v 92.738625 5.606348 41.750366
v 91.006226 5.849590 41.234524
v 97.403770 2.259286 41.234524
v 97.403770 2.259286 3.678436
v 108.800133 -9.023369 2.930134
v 110.907761 -7.233552 0.000000
v 106.589500 -11.532626 -0.000000
v 112.309196 -8.118647 3.298623
v 112.863747 -6.030560 7.401923
v 118.221878 1.473748 6.228839
v 112.958374 -4.742552 5.806947
v 119.312294 6.423568 -0.000001
v 119.785583 8.595181 -0.000000
v 79.605286 11.941689 -0.000000
v 83.655884 8.383102 0.000000
v 64.369270 15.887349 0.000000
v 61.287357 -13.842173 0.000000
v 73.652626 -11.798159 0.000000
v 81.127167 -10.073555 0.000001
v 101.394936 10.149015 0.000001
v 106.952087 11.095069 -0.000000
v 96.454521 8.894588 -12.572771
v 103.316902 -0.498486 -10.602674
v 96.586319 2.182323 -0.000000
v 90.608757 9.578979 -5.489899
v 116.807877 1.317984 -8.669183
v 114.785637 0.805614 -11.590378
v 113.871826 0.653630 0.000000
v 114.955956 10.790010 -0.000001
v 118.305214 8.081677 0.000000
v 115.342316 -3.946844 -0.000000
v 110.151382 -6.481060 -11.064729
v 89.832840 1.718810 -6.711547
v 121.212265 -0.624879 -0.000000
v 122.570496 8.705982 0.000000
v 89.077133 -9.814504 0.000000
v 97.357582 -11.280305 0.000000
v 104.592010 -11.467703 0.000000
v 100.910828 -12.828703 -0.000000
v 120.073753 6.112342 -0.000000
v 123.522873 5.347327 0.000001
v 119.354881 -4.173140 0.000000
v 116.498390 -3.556862 -5.117919
v 119.325027 3.685689 0.000000
v 116.839020 6.445897 -0.000000
v 113.201233 -2.229026 0.000000
v 116.498390 -3.556862 -4.762104
v 117.331177 -0.998406 -0.000000
v 120.073753 6.112342 -0.000001
v 86.961113 12.300821 -13.847423
v 86.401688 2.440878 0.000000
v 89.742645 1.925853 0.000000
v 89.742645 1.925853 0.000000
v 89.742645 1.925853 0.000000
v 89.742645 1.925853 0.000000
v 89.742645 1.925853 0.000000
v 89.742645 1.925853 -5.380891
v 90.228813 8.580624 -9.557951
v 90.147476 7.158127 -5.041267
v 89.142319 -9.660041 0.000000
v 89.077133 -9.814504 0.000000
v 82.087036 -10.715843 -11.064729
v 89.832840 1.718810 -9.165479
v 89.291153 -7.150290 -10.642124
v 89.623108 -1.717874 -0.000000
v 90.608757 9.578979 -0.000000
v 84.350800 11.530117 -11.914322
v 84.251610 7.773295 -6.278600
v 84.320122 10.333487 -6.538409
v 82.376221 -9.543122 0.000000
v 82.087036 -10.715843 0.000000
v 80.066727 -12.225828 -13.713686
v 83.625687 2.157910 -11.457302
v 82.685745 -6.515715 -13.212601
v 83.112289 -1.979414 -0.000000
v 81.239067 12.964552 -0.000000
v 84.350800 11.530117 -0.000000
v 75.847527 -13.784847 0.000000
v 67.422958 -15.759835 0.000000
v 77.026497 14.562748 -0.000001
v 68.603302 16.089031 -0.000004
v 59.188530 17.095928 -12.210242
v 114.557999 4.041257 -11.590378
v 113.871826 0.653630 -12.567529
v 114.034180 7.334546 -12.310834
v 109.922874 10.122271 -12.568115
v 102.914688 7.091265 -10.801528
v 111.803871 -1.321045 -10.869620
v 109.099289 -2.609241 -12.572771
v 103.316902 -0.498486 -14.320255
v 103.434570 6.740267 -17.558540
v 102.050446 6.481182 -23.913342
v 98.318733 6.460425 -25.860779
v 96.956787 6.315338 -33.611263
v 92.774139 6.787474 -12.568115
v 102.914688 7.091265 -39.046574
v 92.738625 5.606341 -41.750366
v 91.006226 5.849584 -41.234524
v 97.403770 2.259285 -41.234524
v 97.403770 2.259285 -0.000001
v 119.312767 9.214430 -0.000001
v 121.196396 9.711131 -0.000000
v 110.330116 -9.762222 0.000000
v 106.589500 -11.532626 -3.678436
v 108.800133 -9.023368 -0.000000
v 110.559608 -6.349774 -2.930134
v 110.907761 -7.233553 -0.000000
v 112.309196 -8.118647 0.000000
v 106.589500 -11.532626 -0.000000
v 112.309196 -8.118647 -3.298621
v 112.863731 -6.030560 -0.000000
v 110.729904 -7.172544 -0.000000
v 108.836761 -8.359992 -0.000000
v 124.401405 10.101214 -0.000001
v 130.077362 13.209578 -0.000001
v 119.785583 8.595181 -0.000000
v 114.164185 13.837958 0.000002
v 103.583740 16.940071 -0.000000
v 91.265938 19.855804 0.000001
v 54.330524 26.893900 0.000001
v 72.774124 24.117859 0.000003
v 35.959572 28.886623 -7.401923
v 118.221878 1.473750 -6.228839
v 112.958374 -4.742551 -5.806947
v 119.312294 6.423568 -0.000001
v 119.785583 8.595181 4.895457
v 44.634899 1.585530 4.990845
v 34.716526 2.662973 6.671240
v 20.483202 3.595684 4.512317
v 47.441303 1.570386 1.561127
v 70.646606 0.745426 2.262648
v 59.748997 1.104699 -0.000000
v 70.360901 0.701432 -4.895458
v 44.634899 1.585533 -4.990847
v 34.716526 2.662976 -6.671240
v 20.483200 3.595684 -4.512317
v 47.441296 1.570387 0.000000
v 70.636635 6.367779 -0.000000
v 70.360901 0.701432 0.000000
v 73.907799 9.975353 -1.561128
v 70.646606 0.745430 -2.262647
v 59.749012 1.104700 -0.000000
v 76.179161 -8.048475 -0.000001
v 71.171669 -5.067173 -0.000000
v 70.360901 0.701432 -0.000000
v 80.518204 9.246496 0.689511

vt 0.460724 0.310489
vt 0.460370 0.238848
vt 0.615977 0.180159
vt 0.616020 0.164096
vt 0.616101 0.186726
vt 0.616148 0.218261
vt 0.616181 0.208531
vt 0.460400 0.117021
vt 0.460494 0.164753
vt 0.556592 0.219785
vt 0.556593 0.125596
vt 0.556590 0.124397
vt 0.460698 0.214351
vt 0.460727 0.149676
vt 0.556589 0.219343
vt 0.556587 0.089413
vt 0.460642 0.310244
vt 0.615943 0.310244
vt 0.616214 0.310381
vt 0.556586 0.310244
vt 0.556594 0.462017
vt 0.478292 0.976034
vt 0.778060 0.976034
vt 0.861693 0.976034
vt 0.612967 0.402581
vt 0.521423 0.536424
vt 0.521439 0.494232
vt 0.784275 0.905377
vt 0.522315 0.913886
vt 0.778212 0.843738
vt 0.813416 0.910978
vt 0.613038 0.917803
vt 0.699623 0.861978
vt 0.613170 0.789520
vt 0.615381 0.865591
vt 0.700613 0.520335
vt 0.844015 0.826684
vt 0.883679 0.870975
vt 0.863625 0.915729
vt 0.860111 0.915137
vt 0.904372 0.543470
vt 0.866019 0.834401
vt 0.859771 0.731262
vt 0.884994 0.601650
vt 0.612566 0.458553
vt 0.937394 0.426849
vt 0.928652 0.770809
vt 0.845115 0.783187
vt 0.803382 0.757458
vt 0.867866 0.501544
vt 0.954934 0.557238
vt 0.971643 0.836782
vt 0.971693 0.890401
vt 0.987921 0.499909
vt 0.885888 0.593019
vt 0.823056 0.801513
vt 0.687236 0.486441
vt 0.824725 0.448372
vt 0.864625 0.600907
vt 0.688220 0.483729
vt 0.635389 0.538939
vt 0.636349 0.481517
vt 0.681497 0.539874
vt 0.682115 0.593237
vt 0.641480 0.482696
vt 0.729069 0.536253
vt 0.724598 0.580555
vt 0.743012 0.487617
vt 0.609892 0.538062
vt 0.611391 0.488520
vt 0.521425 0.753892
vt 0.686435 0.605587
vt 0.801166 0.379908
vt 0.478288 0.420399
vt 0.478289 0.420411
vt 0.457947 0.380048
vt 0.457915 0.340889
vt 0.425715 0.378060
vt 0.425660 0.402172
vt 0.669080 0.404125
vt 0.425622 0.402581
vt 0.814295 0.976034
vt 0.986870 0.404592
vt 0.857713 0.976034
vt 0.700007 0.462131
vt 0.457991 0.337182
vt 0.478287 0.976034
vt 0.522305 0.314123
vt 0.425756 0.337252
vt 0.457914 0.402172
vt 0.623950 0.402172
vt 0.714956 0.976034
vt 0.911246 0.843293
vt 0.495917 0.905377
vt 0.495923 0.976034
vt 0.495906 0.782126
vt 0.495878 0.586246
vt 0.493577 0.488520
vt 0.493491 0.536424
vt 0.493521 0.843293
vt 0.522311 0.904892
vt 0.447573 0.588823
vt 0.456620 0.390882
vt 0.911550 0.571013
vt 0.426782 0.535549
vt 0.367264 0.883577
vt 0.477836 0.987892
vt 0.323148 0.390882
vt 0.911550 0.944406
vt 0.388562 0.266728
vt 0.911494 0.327991
vt 0.911522 0.327991
vt 0.911522 0.751708
vt 0.371564 0.671613
vt 0.372530 0.806265
vt 0.385557 0.854847
vt 0.414866 0.624485
vt 0.396035 0.823730
vt 0.314649 0.883772
vt 0.349320 0.519618
vt 0.286864 0.594548
vt 0.333273 0.912600
vt 0.291440 0.715307
vt 0.379542 0.747199
vt 0.408697 0.680243
vt 0.407531 0.793822
vt 0.420258 0.837741
vt 0.447808 0.636545
vt 0.427553 0.716848
vt 0.405215 0.289649
vt 0.820703 0.289649
vt 0.820703 0.286752
vt 0.767057 0.282216
vt 0.712174 0.282216
vt 0.712174 0.286752
vt 0.767057 0.252179
vt 0.822096 0.252179
vt 0.822096 0.252336
vt 0.768786 0.263985
vt 0.637921 0.252336
vt 0.768786 0.261474
vt 0.709346 0.291476
vt 0.859040 0.253651
vt 0.860007 0.193693
vt 0.703019 0.193693
vt 0.703019 0.190825
vt 0.824926 0.192588
vt 0.765647 0.190825
vt 0.824926 0.192588
vt 0.765647 0.171834
vt 0.698923 0.177517
vt 0.825843 0.174326
vt 0.765457 0.183755
vt 0.768225 0.177517
vt 0.825843 0.174326
vt 0.765457 0.171834
vt 0.698923 0.126787
vt 0.695728 0.127183
vt 0.759449 0.130539
vt 0.616357 0.193532
vt 0.858571 0.179520
vt 0.857353 0.064654
vt 0.703469 0.066772
vt 0.759142 0.064654
vt 0.703469 0.067718
vt 0.792241 0.066772
vt 0.759142 0.067718
vt 0.792241 0.127183
vt 0.759449 0.127768
vt 0.816579 0.127768
vt 0.816579 0.126094
vt 0.836958 0.025865
vt 0.707801 0.027560
vt 0.755461 0.027560
vt 0.755461 0.025865
vt 0.707801 0.027302
vt 0.783529 0.027302
vt 0.783529 0.025865
vt 0.707801 0.671806
vt 0.759467 0.481381
vt 0.382740 0.671663
vt 0.675826 0.671791
vt 0.585375 0.671799
vt 0.526055 0.692408
vt 0.675745 0.692655
vt 0.585315 0.692632
vt 0.525982 0.671751
vt 0.627077 0.692617
vt 0.627018 0.409238
vt 0.351098 0.362423
vt 0.862987 0.391535
vt 0.834132 0.424713
vt 0.394686 0.652252
vt 0.906063 0.679612
vt 0.907016 0.646512
vt 0.797609 0.725730
vt 0.790606 0.397745
vt 0.870924 0.481381
vt 0.305381 0.671734
vt 0.717646 0.692494
vt 0.717586 0.692800
vt 0.446880 0.692580
vt 0.759426 0.671871
vt 0.446577 0.843293
vt 0.522311 0.782126
vt 0.522289 0.586246
vt 0.521465 0.213235
vt 0.911487 0.266728
vt 0.911494 0.213235
vt 0.911487 0.067718
vt 0.808205 0.027302
vt 0.799493 0.614215
vt 0.959758 0.820736
vt 0.283527 0.633389
vt 0.932862 0.716777
vt 0.957080 0.764406
vt 0.948977 0.714417
vt 0.995857 0.776516
vt 0.984708 0.676444
vt 0.994255 0.993865
vt 0.201016 0.952458
vt 0.217801 0.684878
vt 0.956820 0.658561
vt 0.950497 0.639390
vt 0.982072 0.971048
vt 0.199068 0.913531
vt 0.208165 0.945140
vt 0.197585 0.883780
vt 0.202763 0.932255
vt 0.161508 0.902609
vt 0.171543 0.958275
vt 0.157315 0.924147
vt 0.243027 1.001991
vt 0.188766 0.999045
vt 0.175891 0.983096
vt 0.141234 0.950996
vt 0.121468 0.912006
vt 0.105839 0.880035
vt 0.116261 0.867034
vt 0.115122 0.820736
vt 0.240094 0.820075
vt 0.191812 0.888212
vt 0.244922 0.879246
vt 0.163105 0.816876
vt 0.149003 0.812132
vt 0.097684 0.374844
vt 0.004756 0.618031
vt 0.229545 0.618063
vt 0.163216 0.618179
vt 0.105416 0.618160
vt 0.043671 0.739752
vt 0.235289 0.739792
vt 0.178712 0.739841
vt 0.129198 0.496502
vt 0.018501 0.496310
vt 0.220221 0.496334
vt 0.150076 0.496516
vt 0.085040 0.739818
vt 0.073619 0.455710
vt 0.219344 0.449352
vt 0.079975 0.618031
vt 0.283528 0.374589
vt 0.283529 0.739752
vt 0.283527 0.890278
vt 0.283527 0.927230
vt 0.283527 0.496310
vt 0.283528 0.563709
vt 0.351040 0.601744
vt 0.409112 0.238848
vt 0.615977 0.180159
vt 0.616020 0.164096
vt 0.616101 0.186726
vt 0.616148 0.218261
vt 0.616181 0.208531
vt 0.460400 0.117021
vt 0.460494 0.164753
vt 0.556592 0.219785
vt 0.556593 0.125596
vt 0.556590 0.124397
vt 0.460698 0.214351
vt 0.460727 0.149676
vt 0.556589 0.219343
vt 0.556587 0.089413
vt 0.460642 0.536424
vt 0.521439 0.494232
vt 0.784275 0.905377
vt 0.522315 0.913886
vt 0.778212 0.843738
vt 0.813416 0.910978
vt 0.613038 0.917803
vt 0.699623 0.861978
vt 0.613170 0.789520
vt 0.615381 0.865591
vt 0.700613 0.520335
vt 0.844015 0.826684
vt 0.883679 0.870975
vt 0.863625 0.915729
vt 0.860111 0.915137
vt 0.904372 0.543470
vt 0.866019 0.834401
vt 0.859771 0.731262
vt 0.884994 0.601650
vt 0.612566 0.458553
vt 0.937394 0.426849
vt 0.928652 0.770809
vt 0.845115 0.783187
vt 0.803382 0.757458
vt 0.867866 0.501544
vt 0.954934 0.557238
vt 0.971643 0.836782
vt 0.971693 0.890401
vt 0.987921 0.499909
vt 0.885888 0.593019
vt 0.823056 0.801513
vt 0.687236 0.486441
vt 0.824725 0.448372
vt 0.864625 0.600907
vt 0.688220 0.483729
vt 0.635389 0.538939
vt 0.636349 0.481517
vt 0.681497 0.539874
vt 0.682115 0.593237
vt 0.641480 0.482696
vt 0.729069 0.536253
vt 0.724598 0.580555
vt 0.743012 0.487617
vt 0.609892 0.538062
vt 0.611391 0.488520
vt 0.521425 0.753892
vt 0.686435 0.605587
vt 0.801166 0.379908
vt 0.478288 0.420399
vt 0.478289 0.420411
vt 0.457947 0.380048
vt 0.457915 0.340889
vt 0.425715 0.378060
vt 0.425660 0.843293
vt 0.495917 0.905377
vt 0.495923 0.782126
vt 0.495878 0.586246
vt 0.493577 0.488520
vt 0.493491 0.536424
vt 0.493521 0.266728
vt 0.911494 0.327991
vt 0.911522 0.327991
vt 0.911522 0.751708
vt 0.371564 0.671613
vt 0.372530 0.806265
vt 0.385557 0.854847
vt 0.414866 0.624485
vt 0.396035 0.823730
vt 0.314649 0.883772
vt 0.349320 0.519618
vt 0.286864 0.594548
vt 0.333273 0.912600
vt 0.291440 0.715307
vt 0.379542 0.747199
vt 0.408697 0.680243
vt 0.407531 0.793822
vt 0.420258 0.837741
vt 0.447808 0.636545
vt 0.427553 0.716848
vt 0.405215 0.289649
vt 0.820703 0.289649
vt 0.820703 0.286752
vt 0.767057 0.282216
vt 0.712174 0.282216
vt 0.712174 0.286752
vt 0.767057 0.252179
vt 0.822096 0.252179
vt 0.822096 0.252336
vt 0.768786 0.263985
vt 0.637921 0.252336
vt 0.768786 0.261474
vt 0.709346 0.291476
vt 0.859040 0.253651
vt 0.860007 0.193693
vt 0.703019 0.193693
vt 0.703019 0.190825
vt 0.824926 0.192588
vt 0.765647 0.190825
vt 0.824926 0.192588
vt 0.765647 0.171834
vt 0.698923 0.177517
vt 0.825843 0.174326
vt 0.765457 0.183755
vt 0.768225 0.177517
vt 0.825843 0.174326
vt 0.765457 0.171834
vt 0.698923 0.126787
vt 0.695728 0.127183
vt 0.759449 0.130539
vt 0.616357 0.193532
vt 0.858571 0.179520
vt 0.857353 0.064654
vt 0.703469 0.066772
vt 0.759142 0.064654
vt 0.703469 0.067718
vt 0.792241 0.066772
vt 0.759142 0.067718
vt 0.792241 0.127183
vt 0.759449 0.127768
vt 0.816579 0.127768
vt 0.816579 0.126094
vt 0.836958 0.025865
vt 0.707801 0.027560
vt 0.755461 0.027560
vt 0.755461 0.025865
vt 0.707801 0.027302
vt 0.783529 0.027302
vt 0.783529 0.025865
vt 0.707801 0.671663
vt 0.675826 0.671791
vt 0.585375 0.671799
vt 0.526055 0.692408
vt 0.675745 0.692655
vt 0.585315 0.692632
vt 0.525982 0.671751
vt 0.627077 0.692617
vt 0.627018 0.409238
vt 0.351098 0.362423
vt 0.862987 0.424713
vt 0.394686 0.652252
vt 0.906063 0.679612
vt 0.907016 0.646512
vt 0.797609 0.725730
vt 0.790606 0.671734
vt 0.717646 0.692494
vt 0.717586 0.843293
vt 0.522311 0.782126
vt 0.522289 0.586246
vt 0.521465 0.213235
vt 0.911487 0.266728
vt 0.911494 0.213235
vt 0.911487 0.067718
vt 0.808205 0.027302
vt 0.799493 0.716777
vt 0.957080 0.764406
vt 0.948977 0.714417
vt 0.995857 0.776516
vt 0.984708 0.676444
vt 0.994255 0.993865
vt 0.201016 0.952458
vt 0.217801 0.684878
vt 0.956820 0.658561
vt 0.950497 0.639390
vt 0.982072 0.971048
vt 0.199068 0.913531
vt 0.208165 0.945140
vt 0.197585 0.883780
vt 0.202763 0.932255
vt 0.161508 0.902609
vt 0.171543 0.958275
vt 0.157315 0.924147
vt 0.243027 1.001991
vt 0.188766 0.999045
vt 0.175891 0.983096
vt 0.141234 0.950996
vt 0.121468 0.912006
vt 0.105839 0.880035
vt 0.116261 0.867034
vt 0.115122 0.820736
vt 0.240094 0.820075
vt 0.191812 0.888212
vt 0.244922 0.879246
vt 0.163105 0.816876
vt 0.149003 0.812132
vt 0.097684 0.374844
vt 0.004756 0.618031
vt 0.229545 0.618063
vt 0.163216 0.618179
vt 0.105416 0.618160
vt 0.043671 0.739752
vt 0.235289 0.739792
vt 0.178712 0.739841
vt 0.129198 0.496502
vt 0.018501 0.496310
vt 0.220221 0.496334
vt 0.150076 0.496516
vt 0.085040 0.739818
vt 0.073619 0.455710
vt 0.219344 0.449352
vt 0.079975 0.563709
vt 0.351040 0.601744
vt 0.409112 0.025624
vt 0.397257 0.078053
vt 0.011602 0.254106
vt 0.011508 0.180780
vt 0.011497 0.027919
vt 0.011543 0.127869
vt 0.011529 0.209666
vt 0.011474 0.069011
vt 0.209907 0.029107
vt 0.175935 0.260040
vt 0.177883 0.212735
vt 0.178046 0.131717
vt 0.213922 0.176243
vt 0.177264 0.100775
vt 0.185797 0.071431
vt 0.185106 0.132437
vt 0.186853 0.101164
vt 0.163299 0.130983
vt 0.164903 0.071559
vt 0.165736 0.177048
vt 0.111596 0.213778
vt 0.118427 0.252832
vt 0.118457 0.027157
vt 0.111219 0.099859
vt 0.213804 0.175436
vt 0.198422 0.214137
vt 0.196163 0.260745
vt 0.196106 0.027930
vt 0.192859 0.209340
vt 0.429252 0.249245
vt 0.440368 0.169797
vt 0.422388 0.091480
vt 0.422900 0.133223
vt 0.420221 0.170967
vt 0.378403 0.130228
vt 0.381761 0.246017
vt 0.396454 0.205866
vt 0.386875 0.323435
vt 0.353838 0.043296
vt 0.385199 0.179367
vt 0.291786 0.093802
vt 0.293103 0.054519
vt 0.290672 0.020062
vt 0.284117 0.239156
vt 0.359807 0.131524
vt 0.293396 0.275562
vt 0.288566 0.229577
vt 0.290927 0.288937
vt 0.360841 0.089978
vt 0.387127 0.304404
vt 0.373395 0.329376
vt 0.363080 0.042199
vt 0.435068 0.292315
vt 0.396674 0.282480
vt 0.445333 0.078053
vt 0.011602 0.254106
vt 0.011508 0.180780
vt 0.011497 0.027919
vt 0.011543 0.127869
vt 0.011529 0.209666
vt 0.011474 0.069011
vt 0.209907 0.029107
vt 0.175935 0.260040
vt 0.177883 0.212735
vt 0.178046 0.131717
vt 0.213922 0.176243
vt 0.177264 0.100775
vt 0.185797 0.071431
vt 0.185106 0.132437
vt 0.186853 0.101164
vt 0.163299 0.130983
vt 0.164903 0.071559
vt 0.165736 0.177048
vt 0.111596 0.213778
vt 0.118427 0.252832
vt 0.118457 0.027157
vt 0.111219 0.099859
vt 0.213804 0.175436
vt 0.198422 0.214137
vt 0.196163 0.260745
vt 0.196106 0.027930
vt 0.192859 0.209340
vt 0.429252 0.249245
vt 0.440368 0.169797
vt 0.422388 0.091480
vt 0.422900 0.133223
vt 0.420221 0.170967
vt 0.378403 0.130228
vt 0.381761 0.246017
vt 0.396454 0.205866
vt 0.386875 0.323435
vt 0.353838 0.043296
vt 0.385199 0.179367
vt 0.291786 0.093802
vt 0.293103 0.054519
vt 0.290672 0.020062
vt 0.284117 0.239156
vt 0.359807 0.131524
vt 0.293396 0.275562
vt 0.288566 0.229577
vt 0.290927 0.288937
vt 0.360841 0.089978
vt 0.387127 0.654606
vt 0.708776 0.658855
vt 0.612617 0.858352
vt 0.919281 0.815586
vt 0.901299 0.609592
vt 0.856548 0.651177
vt 0.521514 0.811486
vt 0.954741 0.340938
vt 0.438779 0.404141
vt 0.438702 0.378087
vt 0.438730 0.314125
vt 0.438813 0.651177
vt 0.493684 0.905377
vt 0.522315 0.782126
vt 0.522289 0.586246
vt 0.521465 0.536424
vt 0.521439 0.488520
vt 0.521425 0.326598
vt 0.993678 0.267284
vt 0.993687 0.326598
vt 0.993678 0.390595
vt 0.993637 0.212502
vt 0.993711 0.267284
vt 0.993687 0.212502
vt 0.993711 0.390595
vt 0.993637 0.787425
vt 0.442442 0.829079
vt 0.467338 0.642786
vt 0.445661 0.600349
vt 0.473089 0.744815
vt 0.432739 0.682036
vt 0.428970 0.715720
vt 0.428856 0.870965
vt 0.494381 0.332647
vt 0.853270 0.330013
vt 0.816381 0.330013
vt 0.816381 0.324738
vt 0.761677 0.301698
vt 0.695572 0.327205
vt 0.787263 0.324738
vt 0.761677 0.309456
vt 0.708973 0.281862
vt 0.637632 0.261474
vt 0.709346 0.201202
vt 0.634289 0.182806
vt 0.632444 0.126787
vt 0.695728 0.300368
vt 0.665880 0.057491
vt 0.651225 0.016514
vt 0.664938 0.027560
vt 0.755461 0.027302
vt 0.783529 0.347754
vt 0.820019 0.355499
vt 0.842727 0.375010
vt 0.782488 0.481381
vt 0.423657 0.417093
vt 0.431208 0.712261
vt 0.927372 0.759694
vt 0.922697 0.680748
vt 0.923299 0.648116
vt 0.911948 0.310244
vt 0.556594 0.310244
vt 0.616214 0.310489
vt 0.460724 0.310489
vt 0.460370 0.310381
vt 0.556586 0.310244
vt 0.615943 0.976034
vt 0.700007 0.976034
vt 0.778060 0.976034
vt 0.612967 0.654606
vt 0.708776 0.658855
vt 0.612617 0.976034
vt 0.522305 0.858352
vt 0.919281 0.815586
vt 0.901299 0.609592
vt 0.856548 0.976034
vt 0.861693 0.976034
vt 0.911246 0.404592
vt 0.857713 0.402581
vt 0.814295 0.651177
vt 0.521514 0.811486
vt 0.954741 0.976034
vt 0.986870 0.402581
vt 0.521423 0.402172
vt 0.623950 0.402172
vt 0.714956 0.402172
vt 0.669080 0.337252
vt 0.457914 0.337182
vt 0.478287 0.462017
vt 0.478292 0.462131
vt 0.457991 0.340938
vt 0.438779 0.314123
vt 0.425756 0.404125
vt 0.425622 0.404141
vt 0.438702 0.378087
vt 0.438730 0.314125
vt 0.438813 0.976034
vt 0.495906 0.651177
vt 0.493684 0.843293
vt 0.522311 0.905377
vt 0.522315 0.782126
vt 0.522289 0.586246
vt 0.521465 0.536424
vt 0.521439 0.488520
vt 0.521425 0.326598
vt 0.993678 0.267284
vt 0.993687 0.326598
vt 0.993678 0.390595
vt 0.993637 0.390882
vt 0.911550 0.212502
vt 0.993711 0.267284
vt 0.993687 0.212502
vt 0.993711 0.390595
vt 0.993637 0.390882
vt 0.911550 0.787425
vt 0.442442 0.829079
vt 0.467338 0.642786
vt 0.445661 0.600349
vt 0.473089 0.588823
vt 0.456620 0.744815
vt 0.432739 0.682036
vt 0.428970 0.715720
vt 0.428856 0.883577
vt 0.477836 0.870965
vt 0.494381 0.571013
vt 0.426782 0.535549
vt 0.367264 0.904892
vt 0.447573 0.944406
vt 0.388562 0.987892
vt 0.323148 0.332647
vt 0.853270 0.330013
vt 0.816381 0.330013
vt 0.816381 0.324738
vt 0.761677 0.301698
vt 0.695572 0.327205
vt 0.787263 0.324738
vt 0.761677 0.309456
vt 0.708973 0.281862
vt 0.637632 0.261474
vt 0.709346 0.201202
vt 0.634289 0.182806
vt 0.632444 0.126787
vt 0.695728 0.300368
vt 0.665880 0.057491
vt 0.651225 0.016514
vt 0.664938 0.027560
vt 0.755461 0.027302
vt 0.783529 0.671871
vt 0.446577 0.692800
vt 0.446880 0.481381
vt 0.382740 0.481381
vt 0.305381 0.347754
vt 0.820019 0.391535
vt 0.834132 0.355499
vt 0.842727 0.397745
vt 0.870924 0.375010
vt 0.782488 0.481381
vt 0.423657 0.417093
vt 0.431208 0.692580
vt 0.759426 0.671806
vt 0.759467 0.633389
vt 0.932862 0.614215
vt 0.959758 0.927230
vt 0.283527 0.890278
vt 0.283527 0.820736
vt 0.283527 0.739752
vt 0.283527 0.496310
vt 0.283528 0.618031
vt 0.283528 0.374589
vt 0.283529 0.712261
vt 0.927372 0.759694
vt 0.922697 0.680748
vt 0.923299 0.648116
vt 0.911948 0.301489
vt 0.175690 0.293619
vt 0.111198 0.286211
vt 0.011494 0.301652
vt 0.192902 0.016825
vt 0.354337 0.318446
vt 0.281492 0.009699
vt 0.377132 0.301489
vt 0.175690 0.293619
vt 0.111198 0.286211
vt 0.011494 0.301652
vt 0.192902 0.304404
vt 0.373395 0.329376
vt 0.363080 0.292315
vt 0.396674 0.016825
vt 0.354337 0.318446
vt 0.281492 0.042199
vt 0.435068 0.025624
vt 0.397257 0.009699
vt 0.377132 0.282480
vt 0.445333 1.000000

f 500/500 494/494 513/513
f 501/501 497/497 510/510
f 496/496 512/512 495/495
f 512/512 496/496 511/511
f 493/493 499/499 500/500
f 499/499 493/493 509/509
f 497/497 499/499 509/509
f 499/499 497/497 501/501
f 510/510 498/498 501/501
f 513/513 493/493 500/500
f 506/506 498/498 496/496
f 498/498 506/506 505/505
f 502/502 500/500 499/499
f 500/500 502/502 504/504
f 501/501 502/502 499/499
f 502/502 501/501 503/503
f 508/508 487/487 490/490
f 487/487 508/508 504/504
f 761/761 507/507 495/495
f 507/507 761/761 762/762
f 496/496 507/507 506/506
f 507/507 496/496 495/495
f 498/498 503/503 501/501
f 491/491 505/505 489/489
f 505/505 491/491 503/503
f 505/505 503/503 498/498
f 494/494 500/500 504/504
f 503/503 491/491 502/502
f 487/487 502/502 491/491
f 504/504 508/508 494/494
f 504/504 502/502 487/487
f 506/506 489/489 505/505
f 489/489 506/506 492/492
f 492/492 506/506 507/507
f 507/507 488/488 492/492
f 763/763 507/507 762/762
f 507/507 763/763 488/488
f 510/510 496/496 498/498
f 764/764 761/761 495/495
f 511/511 496/496 510/510
f 764/764 495/495 512/512
f 535/535 536/536 523/523
f 538/538 529/529 521/521
f 530/530 520/520 519/519
f 519/519 525/525 530/530
f 517/517 520/520 534/534
f 530/530 526/526 520/520
f 531/531 529/529 533/533
f 532/532 522/522 529/529
f 527/527 528/528 524/524
f 524/524 528/528 765/765
f 493/493 527/527 526/526
f 526/526 509/509 493/493
f 512/512 531/531 764/764
f 525/525 511/511 510/510
f 497/497 509/509 530/530
f 526/526 530/530 509/509
f 527/527 493/493 513/513
f 532/532 529/529 531/531
f 531/531 533/533 766/766
f 523/523 766/766 533/533
f 533/533 529/529 538/538
f 517/517 486/486 537/537
f 519/519 522/522 525/525
f 526/526 527/527 524/524
f 524/524 517/517 534/534
f 486/486 524/524 765/765
f 522/522 521/521 529/529
f 497/497 530/530 525/525
f 525/525 522/522 532/532
f 517/517 524/524 486/486
f 765/765 767/767 486/486
f 538/538 535/535 533/533
f 535/535 523/523 533/533
f 539/539 538/538 521/521
f 522/522 516/516 514/514
f 516/516 520/520 518/518
f 515/515 521/521 514/514
f 521/521 515/515 539/539
f 519/519 516/516 522/522
f 520/520 516/516 519/519
f 517/517 518/518 520/520
f 522/522 514/514 521/521
f 497/497 525/525 510/510
f 511/511 532/532 531/531
f 525/525 532/532 511/511
f 531/531 512/512 511/511
f 513/513 528/528 527/527
f 764/764 531/531 766/766
f 524/524 534/534 526/526
f 534/534 520/520 526/526
f 553/553 566/566 547/547
f 554/554 563/563 550/550
f 549/549 548/548 565/565
f 565/565 564/564 549/549
f 546/546 553/553 552/552
f 552/552 562/562 546/546
f 550/550 562/562 552/552
f 552/552 554/554 550/550
f 563/563 554/554 551/551
f 566/566 553/553 546/546
f 559/559 549/549 551/551
f 551/551 558/558 559/559
f 555/555 552/552 553/553
f 553/553 557/557 555/555
f 554/554 552/552 555/555
f 555/555 556/556 554/554
f 561/561 543/543 540/540
f 540/540 557/557 561/561
f 768/768 548/548 560/560
f 560/560 769/769 768/768
f 549/549 559/559 560/560
f 560/560 548/548 549/549
f 551/551 554/554 556/556
f 544/544 542/542 558/558
f 558/558 556/556 544/544
f 558/558 551/551 556/556
f 547/547 557/557 553/553
f 556/556 555/555 544/544
f 540/540 544/544 555/555
f 557/557 547/547 561/561
f 557/557 540/540 555/555
f 559/559 558/558 542/542
f 542/542 545/545 559/559
f 545/545 560/560 559/559
f 560/560 545/545 541/541
f 770/770 769/769 560/560
f 560/560 541/541 770/770
f 563/563 551/551 549/549
f 771/771 548/548 768/768
f 564/564 563/563 549/549
f 771/771 565/565 548/548
f 772/772 576/576 773/773
f 774/774 574/574 582/582
f 583/583 572/572 573/573
f 572/572 583/583 578/578
f 570/570 587/587 573/573
f 583/583 573/573 579/579
f 584/584 586/586 582/582
f 585/585 582/582 575/575
f 580/580 577/577 581/581
f 577/577 775/775 581/581
f 546/546 579/579 580/580
f 579/579 546/546 562/562
f 565/565 771/771 584/584
f 578/578 563/563 564/564
f 550/550 583/583 562/562
f 579/579 562/562 583/583
f 580/580 566/566 546/546
f 585/585 584/584 582/582
f 584/584 776/776 586/586
f 576/576 586/586 776/776
f 586/586 774/774 582/582
f 570/570 777/777 778/778
f 572/572 578/578 575/575
f 579/579 577/577 580/580
f 577/577 587/587 570/570
f 778/778 775/775 577/577
f 575/575 582/582 574/574
f 550/550 578/578 583/583
f 578/578 585/585 575/575
f 570/570 778/778 577/577
f 775/775 778/778 779/779
f 774/774 586/586 772/772
f 772/772 586/586 576/576
f 780/780 574/574 774/774
f 575/575 567/567 569/569
f 569/569 571/571 573/573
f 568/568 567/567 574/574
f 574/574 780/780 568/568
f 572/572 575/575 569/569
f 573/573 572/572 569/569
f 570/570 573/573 571/571
f 575/575 574/574 567/567
f 550/550 563/563 578/578
f 564/564 584/584 585/585
f 578/578 564/564 585/585
f 584/584 564/564 565/565
f 566/566 580/580 581/581
f 771/771 776/776 584/584
f 577/577 579/579 587/587
f 587/587 579/579 573/573
f 605/605 112/112 607/607
f 607/607 113/113 606/606
f 606/606 111/111 610/610
f 610/610 209/209 609/609
f 609/609 208/208 611/611
f 611/611 210/210 612/612
f 612/612 104/104 613/613
f 613/613 614/614 615/615
f 615/615 129/129 617/617
f 617/617 613/613 618/618
f 618/618 126/126 617/617
f 617/617 125/125 618/618
f 618/618 619/619 614/614
f 614/614 620/620 117/117
f 117/117 120/120 105/105
f 268/268 106/106 116/116
f 119/119 114/114 102/102
f 102/102 110/110 120/120
f 123/123 119/119 106/106
f 268/268 121/121 110/110
f 110/110 108/108 115/115
f 122/122 118/118 127/127
f 127/127 128/128 105/105
f 103/103 269/269 114/114
f 114/114 125/125 118/118
f 118/118 129/129 124/124
f 124/124 130/130 126/126
f 126/126 130/130 128/128
f 128/128 107/107 621/621
f 132/132 143/143 131/131
f 622/622 621/621 132/132
f 621/621 623/623 624/624
f 133/133 623/623 132/132
f 133/133 624/624 131/131
f 628/628 627/627 621/621
f 143/143 131/131 137/137
f 131/131 144/144 133/133
f 132/132 133/133 629/629
f 134/134 140/140 142/142
f 140/140 134/134 131/131
f 136/136 131/131 135/135
f 133/133 135/135 136/136
f 134/134 136/136 132/132
f 131/131 143/143 144/144
f 143/143 132/132 630/630
f 139/139 630/630 631/631
f 140/140 146/146 142/142
f 146/146 140/140 138/138
f 147/147 144/144 141/141
f 148/148 141/141 139/139
f 138/138 139/139 146/146
f 148/148 146/146 159/159
f 153/153 151/151 146/146
f 157/157 632/632 172/172
f 162/162 171/171 161/161
f 152/152 162/162 157/157
f 146/146 148/148 149/149
f 155/155 148/148 153/153
f 159/159 171/171 151/151
f 153/153 154/154 146/146
f 632/632 631/631 161/161
f 147/147 152/152 154/154
f 152/152 147/147 154/154
f 145/145 151/151 147/147
f 153/153 152/152 154/154
f 150/150 145/145 156/156
f 157/157 156/156 169/169
f 169/169 158/158 155/155
f 170/170 169/169 171/171
f 152/152 153/153 171/171
f 162/162 152/152 160/160
f 632/632 157/157 151/151
f 633/633 159/159 149/149
f 147/147 161/161 144/144
f 162/162 155/155 170/170
f 155/155 162/162 170/170
f 162/162 172/172 629/629
f 628/628 134/134 633/633
f 163/163 164/164 635/635
f 160/160 158/158 169/169
f 169/169 170/170 166/166
f 171/171 159/159 170/170
f 168/168 167/167 166/166
f 211/211 172/172 158/158
f 158/158 169/169 166/166
f 172/172 171/171 159/159
f 159/159 633/633 168/168
f 170/170 172/172 174/174
f 164/164 173/173 163/163
f 173/173 164/164 176/176
f 165/165 175/175 167/167
f 167/167 177/177 168/168
f 177/177 167/167 178/178
f 178/178 212/212 636/636
f 635/635 176/176 165/165
f 176/176 635/635 178/178
f 166/166 174/174 164/164
f 174/174 166/166 173/173
f 179/179 174/174 175/175
f 637/637 176/176 177/177
f 638/638 175/175 178/178
f 638/638 212/212 176/176
f 179/179 636/636 174/174
f 637/637 178/178 626/626
f 622/622 131/131 185/185
f 182/182 185/185 186/186
f 183/183 186/186 187/187
f 184/184 187/187 183/183
f 186/186 183/183 182/182
f 185/185 182/182 190/190
f 193/193 190/190 639/639
f 640/640 192/192 191/191
f 198/198 192/192 641/641
f 639/639 192/192 642/642
f 181/181 642/642 640/640
f 191/191 192/192 194/194
f 195/195 194/194 200/200
f 201/201 200/200 172/172
f 168/168 211/211 212/212
f 638/638 177/177 218/218
f 219/219 218/218 220/220
f 218/218 220/220 225/225
f 224/224 225/225 221/221
f 222/222 226/226 228/228
f 226/226 222/222 233/233
f 228/228 222/222 230/230
f 230/230 232/232 244/244
f 231/231 227/227 266/266
f 265/265 243/243 226/226
f 228/228 232/232 243/243
f 233/233 266/266 227/227
f 231/231 228/228 238/238
f 237/237 232/232 221/221
f 234/234 226/226 235/235
f 232/232 237/237 238/238
f 239/239 238/238 231/231
f 239/239 231/231 232/232
f 230/230 238/238 245/245
f 242/242 245/245 243/243
f 229/229 243/243 214/214
f 265/265 214/214 246/246
f 245/245 246/246 214/214
f 241/241 214/214 245/245
f 254/254 245/245 241/241
f 242/242 241/241 246/246
f 259/259 246/246 267/267
f 262/262 267/267 257/257
f 249/249 257/257 248/248
f 249/249 248/248 258/258
f 250/250 258/258 262/262
f 264/264 262/262 249/249
f 253/253 249/249 252/252
f 253/253 252/252 250/250
f 254/254 250/250 257/257
f 258/258 261/261 257/257
f 256/256 260/260 263/263
f 267/267 263/263 227/227
f 229/229 244/244 644/644
f 645/645 216/216 217/217
f 216/216 645/645 646/646
f 644/644 223/223 216/216
f 646/646 224/224 121/121
f 105/105 269/269 268/268
f 118/118 122/122 268/268
f 103/103 129/129 269/269
f 129/129 118/118 692/692
f 345/345 692/692 694/694
f 346/346 694/694 693/693
f 344/344 693/693 698/698
f 434/434 698/698 697/697
f 433/433 697/697 699/699
f 435/435 699/699 700/700
f 701/701 700/700 702/702
f 703/703 702/702 704/704
f 362/362 704/704 707/707
f 702/702 707/707 708/708
f 359/359 708/708 707/707
f 358/358 707/707 708/708
f 709/709 708/708 703/703
f 711/711 703/703 350/350
f 353/353 350/350 712/712
f 713/713 484/484 349/349
f 347/347 352/352 714/714
f 715/715 714/714 353/353
f 352/352 356/356 713/713
f 354/354 484/484 715/715
f 716/716 715/715 348/348
f 351/351 355/355 360/360
f 361/361 360/360 712/712
f 485/485 706/706 347/347
f 358/358 347/347 351/351
f 362/362 351/351 357/357
f 363/363 357/357 359/359
f 363/363 359/359 361/361
f 710/710 361/361 717/717
f 376/376 365/365 364/364
f 717/717 718/718 365/365
f 719/719 717/717 720/720
f 719/719 366/366 365/365
f 720/720 366/366 364/364
f 723/723 724/724 717/717
f 364/364 376/376 370/370
f 377/377 364/364 366/366
f 366/366 365/365 725/725
f 373/373 367/367 375/375
f 367/367 373/373 364/364
f 364/364 369/369 368/368
f 368/368 366/366 369/369
f 369/369 367/367 365/365
f 376/376 364/364 377/377
f 365/365 376/376 726/726
f 726/726 372/372 727/727
f 379/379 373/373 375/375
f 373/373 379/379 371/371
f 377/377 380/380 374/374
f 374/374 381/381 372/372
f 372/372 371/371 379/379
f 379/379 381/381 392/392
f 384/384 386/386 379/379
f 728/728 390/390 405/405
f 404/404 395/395 394/394
f 395/395 385/385 390/390
f 381/381 379/379 382/382
f 381/381 388/388 386/386
f 404/404 392/392 384/384
f 387/387 386/386 379/379
f 727/727 728/728 394/394
f 385/385 380/380 387/387
f 380/380 385/385 387/387
f 384/384 378/378 380/380
f 385/385 386/386 387/387
f 378/378 383/383 389/389
f 389/389 390/390 402/402
f 391/391 402/402 388/388
f 402/402 403/403 404/404
f 386/386 385/385 404/404
f 385/385 395/395 393/393
f 390/390 728/728 384/384
f 392/392 729/729 382/382
f 394/394 380/380 377/377
f 388/388 395/395 403/403
f 395/395 388/388 403/403
f 405/405 395/395 725/725
f 367/367 724/724 729/729
f 397/397 396/396 731/731
f 391/391 393/393 402/402
f 403/403 402/402 399/399
f 392/392 404/404 403/403
f 400/400 401/401 399/399
f 405/405 436/436 391/391
f 402/402 391/391 399/399
f 404/404 405/405 392/392
f 729/729 392/392 401/401
f 405/405 403/403 407/407
f 406/406 397/397 396/396
f 397/397 406/406 409/409
f 408/408 398/398 400/400
f 410/410 400/400 401/401
f 400/400 410/410 411/411
f 437/437 411/411 732/732
f 409/409 731/731 398/398
f 731/731 409/409 411/411
f 407/407 399/399 397/397
f 399/399 407/407 406/406
f 407/407 412/412 408/408
f 409/409 733/733 410/410
f 408/408 734/734 411/411
f 437/437 734/734 409/409
f 732/732 412/412 407/407
f 411/411 733/733 722/722
f 364/364 718/718 416/416
f 416/416 413/413 417/417
f 417/417 414/414 418/418
f 418/418 415/415 414/414
f 414/414 417/417 413/413
f 413/413 416/416 421/421
f 421/421 423/423 739/739
f 740/740 741/741 422/422
f 740/740 742/742 743/743
f 740/740 739/739 744/744
f 744/744 737/737 741/741
f 740/740 422/422 424/424
f 424/424 425/425 428/428
f 428/428 429/429 405/405
f 436/436 401/401 437/437
f 410/410 734/734 440/440
f 440/440 441/441 442/442
f 442/442 440/440 447/447
f 447/447 446/446 443/443
f 448/448 444/444 450/450
f 444/444 448/448 455/455
f 444/444 450/450 452/452
f 454/454 452/452 466/466
f 449/449 453/453 750/750
f 465/465 751/751 448/448
f 454/454 450/450 465/465
f 750/750 455/455 449/449
f 450/450 453/453 460/460
f 454/454 459/459 443/443
f 448/448 456/456 457/457
f 459/459 454/454 460/460
f 460/460 461/461 453/453
f 453/453 461/461 454/454
f 460/460 452/452 467/467
f 467/467 464/464 465/465
f 465/465 451/451 752/752
f 752/752 751/751 468/468
f 468/468 467/467 752/752
f 752/752 463/463 467/467
f 467/467 476/476 463/463
f 463/463 464/464 468/468
f 468/468 481/481 754/754
f 754/754 755/755 479/479
f 479/479 471/471 470/470
f 470/470 471/471 480/480
f 480/480 472/472 755/755
f 755/755 753/753 471/471
f 471/471 475/475 474/474
f 474/474 475/475 472/472
f 472/472 476/476 479/479
f 483/483 480/480 479/479
f 482/482 478/478 756/756
f 756/756 754/754 449/449
f 466/466 451/451 757/757
f 438/438 758/758 439/439
f 758/758 438/438 759/759
f 445/445 757/757 438/438
f 446/446 759/759 354/354
f 485/485 712/712 484/484
f 355/355 351/351 484/484
f 362/362 706/706 485/485
