# MOD converted: e_w_costume_npc02_body.mod
# 763 verts, 1050 faces

v 61.737267 -7.044117 4.490524
v 53.007885 -5.462557 10.037689
v 52.948952 -8.865438 9.537090
v 61.772968 -9.221790 4.218657
v 61.731205 9.091206 2.822837
v 53.156124 2.920619 1.581712
v 61.729359 0.931079 11.890278
v 61.752098 9.053680 15.942044
v 61.801796 6.401413 13.605145
v 53.259766 8.514839 15.900339
v 53.013535 -5.149913 15.556873
v 61.810284 -6.801700 17.820843
v 61.818203 0.484623 17.751030
v 53.151440 2.650318 5.747041
v 53.262669 8.680332 -1.665680
v 70.646599 0.660654 -0.000000
v 70.360901 0.610694 8.350562
v 85.673294 7.161848 10.131200
v 96.405388 -0.766623 7.516103
v 96.714989 4.846417 12.897597
v 84.560593 -0.715818 6.468091
v 83.276596 -8.719873 12.159423
v 80.045479 6.445290 8.164226
v 80.670319 10.421897 15.072995
v 79.179298 -0.286819 7.402313
v 76.891602 -7.977249 12.973296
v 78.093895 -5.622667 16.458000
v 73.014008 0.138577 14.195202
v 72.966904 -6.194988 9.398402
v 74.447098 10.585202 14.356301
v 74.059303 5.618499 9.189461
v 20.484211 -4.618872 8.996700
v 20.483406 8.895572 19.047211
v 20.485802 4.294413 6.671242
v 20.483200 3.588788 17.271500
v 20.485107 -4.281381 15.818407
v 20.485001 9.062570 1.665683
v 70.646599 0.660651 2.635962
v 71.561203 -5.864997 17.339802
v 60.885483 1.740330 9.634030
v 60.585094 -8.788696 3.599488
v 60.123798 -5.908002 2.262648
v 59.748989 1.097795 10.455599
v 70.001785 8.569870 15.430997
v 60.917084 -6.186742 5.554138
v 48.629509 -5.419727 4.895458
v 44.634899 1.578631 7.014111
v 45.823799 7.658530 12.921599
v 46.202698 7.492739 15.246099
v 49.652100 -4.881311 16.873398
v 45.863094 2.165926 4.611199
v 60.173401 8.396196 12.256502
v 60.735020 8.265581 10.970902
v 45.770500 -7.273839 6.143129
v 45.318398 -4.985738 15.306402
v 46.417297 -4.494489 11.302201
v 42.378895 -6.217439 15.639001
v 43.370197 -3.694330 6.830049
v 42.601891 -4.381607 18.503408
v 35.618698 3.077831 14.372302
v 35.918503 9.240402 7.779894
v 35.585094 9.489616 4.990849
v 34.116600 2.656084 3.296191
v 69.710503 8.305250 10.569799
v 49.151703 -7.550951 16.702101
v 48.443192 2.114955 12.697800
v 48.166504 7.455450 6.914860
v 47.551697 7.601021 4.512320
v 47.441299 1.563489 5.100181
v 89.665199 -9.081161 10.173702
v 90.267517 -0.895706 7.360452
v 90.654495 4.415300 9.020882
v 95.972931 -6.681221 8.209990
v 72.508202 -7.909709 11.505900
v 83.841293 -5.783058 9.139216
v 89.931999 -5.578327 42.422783
v 92.722610 4.653471 44.161446
v 96.528229 6.713494 42.148590
v 92.630394 -0.150553 45.711197
v 100.089783 5.049096 43.801407
v 96.407471 -2.744949 45.439194
v 100.274796 -0.862274 5.190434
v 116.125061 3.930187 4.911952
v 114.165993 -0.780685 5.009028
v 122.611458 2.854045 4.507284
v 120.603455 -1.682559 8.773779
v 113.227226 -0.289809 7.474738
v 113.094643 7.713986 12.057180
v 101.568398 -8.774073 6.223103
v 103.535179 9.211805 11.502803
v 103.415955 -0.462973 6.859149
v 109.068420 9.899914 10.387202
v 103.510391 7.063510 10.678719
v 109.346237 -2.919725 11.810699
v 112.597237 8.013993 8.652480
v 114.821037 4.063679 12.558403
v 104.155014 6.788189 10.821501
v 108.992393 9.266750 13.762194
v 108.598129 8.877653 12.935002
v 104.139923 -0.002848 12.433300
v 112.917564 -0.664327 13.816202
v 109.094955 -1.949376 16.319096
v 112.447403 6.184226 12.825497
v 114.111877 3.977367 15.962099
v 112.270859 0.391207 5.972382
v 109.555092 -6.090206 4.593374
v 97.766068 -13.934851 9.093279
v 97.879158 -12.481512 4.410781
v 101.549522 -15.025017 9.170407
v 101.652687 -13.537106 11.256203
v 98.403023 -8.119419 25.125803
v 104.403900 7.692626 24.460501
v 99.795654 5.475976 26.145094
v 103.985085 -1.641802 24.610498
v 99.962654 0.417821 27.583090
v 107.836029 0.156487 27.706306
v 108.009918 5.386914 26.764610
v 98.904305 5.101942 29.858608
v 107.095001 5.375560 29.287216
v 102.676971 7.497859 27.341410
v 103.581932 7.714563 29.779779
v 106.893013 0.096002 28.372776
v 103.040993 -1.741728 26.838089
v 99.018311 0.370680 32.524994
v 96.145599 -0.085629 34.407761
v 100.472946 -2.636758 36.231075
v 104.628990 -0.597528 36.379402
v 104.690994 5.539112 34.426514
v 100.631981 7.766858 32.386612
v 96.187698 5.196588 4.508069
v 105.452415 -13.266630 8.871493
v 105.150391 -11.930506 10.209304
v 106.605087 -6.862898 37.772575
v 94.328140 4.905120 39.680710
v 98.420120 7.198406 39.591660
v 98.229156 -2.696459 37.732994
v 94.243286 -0.120766 41.441071
v 102.195251 5.273323 41.429642
v 102.170769 -0.746992 15.041525
v 118.656235 2.823561 17.946228
v 114.484001 9.181293 14.970036
v 115.661644 7.713073 12.250719
v 117.705399 3.121346 14.713112
v 114.341599 -1.449959 17.434668
v 113.447067 -3.017417 22.068108
v 113.848495 -0.976610 26.192797
v 112.573494 2.798950 22.174459
v 113.504898 7.195868 18.371075
v 110.685410 11.067236 13.224560
v 113.464775 8.811426 10.680570
v 116.830231 3.171119 12.921161
v 111.899910 -2.007848 17.574245
v 110.016624 -4.340683 22.906788
v 110.029900 -3.362862 30.777948
v 110.530342 2.749659 23.914740
v 109.380402 9.096578 17.866056
v 116.589172 -0.324477 22.579741
v 115.212891 2.751786 18.040913
v 117.507744 6.063591 18.186356
v 118.510651 2.688314 18.390419
v 109.916618 10.446524 13.492075
v 112.390015 8.403387 11.106176
v 115.437347 3.265859 13.215437
v 110.965729 -1.460070 17.663883
v 109.312187 -3.603966 22.771492
v 109.394325 -2.781659 30.269819
v 110.007416 2.815722 23.698463
v 108.812820 8.629586 25.690029
v 111.907394 -0.406407 26.934927
v 110.003120 -1.291414 26.803009
v 109.444992 -0.768841 26.512640
v 111.790039 5.518760 27.528234
v 109.931740 6.627716 27.309258
v 109.409988 6.251965 21.714720
v 78.181610 -0.162117 20.095682
v 74.503685 6.750445 18.468338
v 79.885323 3.530631 19.243973
v 80.257729 -0.690665 18.144976
v 78.855659 -4.828542 21.175404
v 74.035736 -5.968400 24.303177
v 70.418861 -3.514338 26.486855
v 67.054504 0.694965 23.616081
v 70.882141 4.972109 17.723261
v 73.581871 8.384581 16.254749
v 81.846992 4.862310 18.005459
v 81.306274 -0.851465 15.406125
v 79.827141 -6.377077 19.050159
v 72.859222 -7.636840 22.699928
v 67.933266 -6.082052 28.803413
v 62.685440 0.876420 22.242952
v 68.294975 7.182905 22.998663
v 75.100487 -3.628185 25.319599
v 70.933670 0.413289 22.604769
v 75.612419 3.996143 23.734312
v 75.730591 0.081632 17.369965
v 73.228889 7.673817 15.863951
v 81.172791 4.375661 17.451891
v 80.379852 -0.830634 14.955727
v 79.203743 -5.864984 18.551706
v 72.494835 -6.933937 22.150915
v 67.811577 -5.495746 28.066860
v 62.851906 0.884927 21.744457
v 68.175476 6.672514 25.884274
v 66.877686 -2.687879 25.716396
v 65.035919 -3.460639 25.223190
v 64.940109 -2.934566 26.093515
v 66.814949 3.467285 25.577538
v 65.467484 4.867359 25.118580
v 65.336502 4.443164 10.117178
v 72.416618 9.952846 1.967537
v 75.512062 12.775709 9.737462
v 75.861580 11.512721 14.477745
v 74.139687 -7.371040 14.595941
v 63.777554 -8.224344 18.185463
v 75.044113 -0.794070 18.256601
v 63.860275 -0.429531 8.266716
v 73.268440 -10.256910 7.385216
v 76.621803 -9.411736 10.667333
v 63.173813 9.670530 16.642265
v 74.466721 7.004381 15.656010
v 63.689320 6.468825 8.332660
v 63.389851 -10.811357 16.611328
v 80.946419 -1.018195 16.034071
v 82.002991 2.601487 15.662917
v 80.051010 -4.145111 14.441457
v 82.577103 5.169149 13.883764
v 78.910004 -6.699581 8.334144
v 82.422226 11.227732 7.648242
v 75.869080 -10.144140 14.046102
v 78.223389 -7.372093 17.374111
v 79.967491 -1.018230 16.233294
v 79.085686 -4.446698 15.936725
v 81.569969 6.372997 13.726274
v 82.061455 -6.957660 8.349135
v 82.278587 12.330802 7.245015
v 86.023567 10.156972 14.836325
v 85.202484 5.280065 6.587153
v 80.014221 -10.984886 16.877213
v 83.844299 -1.033331 3.095585
v 72.062721 -10.889116 14.934381
v 82.976761 -4.384220 10.930106
v 84.805267 -0.846149 15.624515
v 84.538330 2.306439 15.198127
v 86.685486 -1.037925 14.690054
v 84.909210 -3.682483 15.556025
v 86.162041 1.336398 16.670017
v 80.766312 2.697676 10.297006
v 114.715561 -0.576463 7.981422
v 114.926491 -4.271030 10.041572
v 117.477844 2.572762 11.188406
v 116.340973 5.201164 10.128592
v 114.450706 8.920976 5.653205
v 114.781624 10.459101 8.570146
v 118.858154 8.835913 5.826191
v 111.473572 11.053784 9.197667
v 112.076477 -3.465456 6.914390
v 109.461159 -7.949893 3.413323
v 108.829727 -9.765207 10.785314
v 120.932899 1.300622 8.696187
v 118.355255 -6.185289 8.354972
v 123.713226 9.743160 10.253119
v 121.588387 0.623325 8.231406
v 119.032036 -6.697537 7.667636
v 124.316399 8.506041 4.471258
v 115.816826 -10.240376 4.032708
v 116.646904 -10.480387 10.297005
v 113.185410 -0.642226 11.188407
v 114.841949 5.046189 10.128578
v 112.937454 8.676786 5.826190
v 109.908234 9.951810 9.197340
v 110.522606 -3.497184 6.914390
v 107.859589 -7.956633 3.413324
v 107.219254 -9.766533 4.724157
v 113.577660 -7.287088 5.888212
v 111.805809 -6.828165 11.780319
v 85.116943 3.995282 5.418043
v 85.919731 8.310757 4.906162
v 95.765610 -10.340359 10.738985
v 114.466942 4.018353 10.603540
v 113.071350 -0.478202 9.642717
v 112.844292 7.865088 9.358937
v 109.038254 9.584305 11.653957
v 104.427963 -7.818489 0.000000
v 96.505127 -11.856564 -0.000000
v 82.706017 -10.198402 -0.000002
v 86.166214 8.485859 -0.000003
v 97.153687 6.958277 -0.000003
v 80.719727 11.416306 -0.000000
v 75.876892 -8.470741 -0.000003
v 73.907791 11.140400 1.665676
v 70.646591 0.660652 -0.000001
v 71.171669 -5.939043 -0.000004
v 70.360901 0.610696 -0.000000
v 70.636635 7.044326 0.000000
v 89.524590 -10.437302 -0.000000
v 90.803291 5.818110 -0.000002
v 116.894180 6.252837 -0.000000
v 113.184204 -3.294351 -0.000002
v 123.522461 5.340425 0.000001
v 119.354446 -4.180032 0.000000
v 100.379707 -13.028269 -0.000000
v 108.884346 -7.024352 -0.000001
v 105.083649 9.238218 -0.000003
v 111.905296 8.965496 0.000000
v 104.061813 -11.895575 -0.000003
v 115.326729 10.919373 -0.000003
v 119.188141 11.092842 -0.000000
v 111.563248 -8.573763 -0.000000
v 113.308319 -9.004692 -0.000004
v 110.524628 10.867312 -0.000000
v 108.839554 -10.325817 0.000000
v 114.863747 -11.003639 -0.000001
v 124.671921 14.721440 0.000000
v 115.975845 -11.211964 -0.000000
v 125.243820 12.973087 -0.000002
v 106.745071 3.462861 0.000000
v 107.228920 -10.326311 -0.000002
v 108.944565 9.776446 -0.000005
v 95.685356 -11.166620 -8.350566
v 85.673294 7.161845 -10.131204
v 96.405388 -0.766621 -7.516106
v 96.714989 4.846416 -12.897600
v 84.560585 -0.715815 -6.468091
v 83.276596 -8.719875 -12.159426
v 80.045494 6.445289 -8.164231
v 80.670311 10.421896 -15.072996
v 79.179291 -0.286818 -7.402314
v 76.891579 -7.977247 -12.973301
v 78.093895 -5.622667 -16.458004
v 73.014000 0.138638 -14.195204
v 72.966896 -6.194990 -9.398406
v 74.447090 10.585199 -14.356304
v 74.059296 5.618500 -9.189463
v 20.484200 -4.618869 -8.996707
v 20.483398 8.895573 -19.047209
v 20.485802 4.294417 -6.671246
v 20.483196 3.588790 -17.271503
v 20.485100 -4.281381 -15.818407
v 20.485001 9.062570 -1.665688
v 70.646591 0.660654 -2.635968
v 71.561195 -5.864997 -17.339802
v 60.885498 1.740328 -9.634036
v 60.585117 -8.788694 -3.599497
v 60.123791 -5.908006 -2.262652
v 59.749001 1.097805 -10.455604
v 70.001785 8.569867 -15.431002
v 60.917095 -6.186738 -5.554144
v 48.629494 -5.419729 -4.895464
v 44.634895 1.578638 -7.014114
v 45.823799 7.658528 -12.921601
v 46.202694 7.492738 -15.246099
v 49.652096 -4.881309 -16.873398
v 45.863094 2.165930 -4.611203
v 60.173401 8.396199 -12.256506
v 60.734993 8.265579 -10.970903
v 45.770500 -7.273839 -6.143133
v 45.318390 -4.985738 -15.306404
v 46.417297 -4.494489 -11.302203
v 42.378895 -6.217439 -15.639005
v 43.370197 -3.694327 -6.830051
v 42.601891 -4.381607 -18.503407
v 35.618694 3.077837 -14.372302
v 35.918495 9.240402 -7.779899
v 35.585094 9.489621 -4.990852
v 34.116596 2.656091 -3.296193
v 69.710495 8.305250 -10.569802
v 49.151699 -7.550949 -16.702105
v 48.443188 2.114959 -12.697803
v 48.166504 7.455451 -6.914862
v 47.551685 7.601019 -4.512325
v 47.441296 1.563496 -5.100184
v 89.665199 -9.081158 -10.173705
v 90.267517 -0.895706 -7.360455
v 90.654495 4.415301 -9.020883
v 95.972931 -6.681222 -8.209991
v 72.508194 -7.909709 -11.505903
v 83.841286 -5.783058 -9.139216
v 89.931999 -5.578327 -42.422783
v 92.722603 4.653465 -44.161438
v 96.528244 6.713495 -42.148594
v 92.630394 -0.150558 -45.711197
v 100.089783 5.049099 -43.801395
v 96.407440 -2.744949 -45.439194
v 100.274796 -0.862269 -5.190437
v 116.123779 3.936414 -4.911955
v 114.165993 -0.780684 -5.009033
v 122.611450 2.854043 -4.507287
v 120.603447 -1.682561 -8.773783
v 113.236336 -0.279980 -7.474741
v 113.086899 7.718686 -12.057184
v 101.568398 -8.774073 -6.223101
v 103.535179 9.211805 -11.502804
v 103.424591 -0.476935 -6.859153
v 109.068413 9.899914 -10.387204
v 103.499405 7.049146 -10.678719
v 109.355820 -2.919560 -11.810703
v 112.585175 8.021979 -8.652487
v 114.817131 4.079119 -12.558403
v 104.148155 6.780474 -10.821502
v 108.971939 9.266061 -13.762200
v 108.587646 8.877750 -12.935008
v 104.144882 -0.010438 -12.433304
v 112.925697 -0.655299 -13.816204
v 109.103302 -1.948424 -16.319096
v 112.441574 6.191670 -12.825500
v 114.109215 3.989227 -15.962103
v 112.275116 0.398230 -5.972383
v 109.555092 -6.090206 -4.593373
v 97.766060 -13.934851 -9.093280
v 97.879158 -12.481514 -4.410780
v 101.549522 -15.025015 -9.170405
v 101.652702 -13.537111 -11.256205
v 98.403023 -8.119419 -25.125801
v 104.403946 7.692620 -24.460503
v 99.795662 5.476024 -26.145109
v 103.985046 -1.641806 -24.610508
v 99.962631 0.417870 -27.583099
v 107.836037 0.156432 -27.706306
v 108.009979 5.386859 -26.764610
v 98.904305 5.101948 -29.858604
v 107.095009 5.375551 -29.287212
v 102.676994 7.497859 -27.341408
v 103.581963 7.714561 -29.779799
v 106.893044 0.095999 -28.372797
v 103.041008 -1.741728 -26.838100
v 99.018303 0.370681 -32.524994
v 96.145592 -0.085638 -34.407795
v 100.473000 -2.636758 -36.231091
v 104.628990 -0.597518 -36.379402
v 104.690994 5.539122 -34.426514
v 100.632011 7.766858 -32.386604
v 96.187691 5.196578 -4.508075
v 105.452415 -13.266630 -8.871492
v 105.150391 -11.930506 -10.209309
v 106.605087 -6.862901 -37.772575
v 94.328133 4.905113 -39.680717
v 98.420166 7.198405 -39.591682
v 98.229195 -2.696461 -37.732994
v 94.243279 -0.120770 -41.441071
v 102.195244 5.273327 -41.429642
v 102.170769 -0.746988 -15.041531
v 118.656242 2.840804 -17.946232
v 114.473587 9.192048 -14.970038
v 115.653862 7.724285 -12.250725
v 117.704895 3.135954 -14.713116
v 114.349060 -1.439980 -17.434671
v 113.456650 -3.008451 -22.068113
v 113.853928 -0.966824 -26.192797
v 112.573517 2.805596 -22.174459
v 113.498680 7.205217 -18.371075
v 110.671066 11.072540 -13.224566
v 113.452003 8.821155 -10.680576
v 116.829308 3.190592 -12.921163
v 111.911194 -2.000821 -17.574249
v 110.026886 -4.337486 -22.906788
v 110.037048 -3.358919 -30.777952
v 110.530418 2.754529 -23.914743
v 109.373146 9.100056 -17.866060
v 116.594360 -0.310465 -22.579742
v 115.213005 2.763580 -18.040918
v 117.502457 6.079091 -18.186357
v 118.510902 2.705431 -18.390423
v 109.908707 10.448932 -13.492079
v 112.378136 8.411064 -11.106182
v 115.436180 3.282007 -13.215438
v 110.973236 -1.456250 -17.663883
v 109.321365 -3.601697 -22.771492
v 109.400826 -2.778449 -30.269827
v 110.007446 2.820061 -23.698467
v 108.806824 8.632095 -25.690031
v 111.910889 -0.400141 -26.934925
v 110.007065 -1.287325 -26.803013
v 109.448456 -0.765291 -26.512640
v 111.787331 5.524719 -27.528236
v 109.928116 6.631860 -27.309261
v 109.406708 6.255590 -21.714720
v 78.181587 -0.162119 -20.095682
v 74.503685 6.750447 -18.468340
v 79.885323 3.530632 -19.243973
v 80.257729 -0.690667 -18.144970
v 78.855659 -4.828538 -21.175406
v 74.035721 -5.968403 -24.303181
v 70.418854 -3.514335 -26.486855
v 67.054497 0.694968 -23.616081
v 70.882133 4.972112 -17.723267
v 73.581863 8.384581 -16.254755
v 81.846985 4.862310 -18.005461
v 81.306274 -0.851463 -15.406130
v 79.827110 -6.377075 -19.050165
v 72.859222 -7.636842 -22.699928
v 67.933258 -6.082060 -28.803417
v 62.685440 0.876469 -22.242952
v 68.294968 7.182903 -22.998671
v 75.100487 -3.628181 -25.319603
v 70.933655 0.413320 -22.604773
v 75.612411 3.996145 -23.734314
v 75.730568 0.081626 -17.369972
v 73.228882 7.673814 -15.863957
v 81.172806 4.375664 -17.451895
v 80.379837 -0.830625 -14.955729
v 79.203712 -5.864984 -18.551712
v 72.494827 -6.933935 -22.150917
v 67.811569 -5.495748 -28.066864
v 62.851913 0.884955 -21.744463
v 68.175461 6.672520 -25.884274
v 66.877678 -2.687870 -25.716404
v 65.035912 -3.460634 -25.223194
v 64.940102 -2.934574 -26.093517
v 66.814941 3.467291 -25.577538
v 65.467476 4.867350 -25.118584
v 65.336502 4.443153 -10.117181
v 72.416618 9.952846 -1.967540
v 75.512054 12.775708 -9.737465
v 75.861572 11.512721 -14.477746
v 74.139679 -7.371042 -14.595941
v 63.777573 -8.224344 -18.185465
v 75.044098 -0.794086 -18.256601
v 63.860264 -0.429538 -0.000000
v 73.337440 -10.315777 -8.266720
v 73.268433 -10.256912 -7.385217
v 76.621796 -9.411736 -0.000006
v 71.041626 -10.446098 -10.667337
v 63.173817 9.670527 -0.000004
v 71.692581 11.534109 -16.642269
v 74.466713 7.004384 -0.000002
v 63.020386 -11.156122 -15.656010
v 63.689304 6.468824 -8.332665
v 63.389866 -10.811357 -0.000000
v 75.739418 13.203219 -16.611334
v 80.946419 -1.018196 -16.034075
v 82.002991 2.601486 -15.662923
v 80.051010 -4.145107 0.000450
v 62.957775 11.190130 -14.441457
v 82.577095 5.169149 -13.883767
v 78.909996 -6.699581 -8.334146
v 82.422218 11.227727 -0.000000
v 82.140205 12.255238 -0.000001
v 71.218575 -11.221561 -7.648249
v 75.869072 -10.144142 -14.046107
v 78.223373 -7.372091 -0.000000
v 75.876106 -12.697527 -17.374113
v 79.967484 -1.018231 -16.233292
v 79.085686 -4.446702 -15.936728
v 81.569977 6.372996 -13.726276
v 82.061447 -6.957655 -8.349083
v 82.278595 12.330828 -7.245020
v 86.023582 10.156969 -0.000000
v 82.048920 13.440862 -0.000000
v 85.880188 11.132263 -14.836327
v 85.202484 5.280063 -6.587154
v 80.014221 -10.984890 0.000001
v 79.183464 -12.042461 -16.877220
v 83.844292 -1.033330 -3.095590
v 72.062721 -10.889114 -0.000003
v 86.825050 -0.345451 -14.934381
v 82.976761 -4.384224 -10.930109
v 84.805260 -0.846147 -15.624516
v 84.538307 2.306442 -15.198129
v 86.685486 -1.037925 -14.690054
v 84.909203 -3.682483 -15.556024
v 86.162064 1.336404 -16.670013
v 80.766312 2.697675 -10.297007
v 114.721542 -0.567506 -7.981424
v 114.934814 -4.265420 -10.041574
v 117.478149 2.581722 -11.188408
v 116.336838 5.213156 -10.128596
v 114.443604 8.926608 -5.653208
v 114.772736 10.463954 -8.570152
v 118.841789 8.859509 -5.826195
v 111.473557 11.053785 -9.197670
v 112.094879 -3.458528 -6.914393
v 109.461166 -7.949892 -3.413330
v 108.829727 -9.765209 -10.785322
v 120.933701 1.306188 -8.696191
v 118.364563 -6.176824 -8.354973
v 123.709763 9.749780 -10.253118
v 121.589928 0.632507 -8.231408
v 119.041878 -6.688517 -7.667640
v 124.313576 8.512873 -4.471261
v 115.816826 -10.240370 -4.032709
v 116.646904 -10.480391 -10.297004
v 113.191490 -0.635816 -11.188408
v 114.838089 5.055695 -10.128580
v 112.927246 8.682711 -5.826193
v 109.908226 9.951813 -9.197340
v 110.533722 -3.495620 -6.914388
v 107.859589 -7.956636 -3.413325
v 107.219254 -9.766535 -4.724157
v 113.577660 -7.287090 -5.888217
v 111.805809 -6.828163 -11.780319
v 85.116943 3.995283 -5.418046
v 85.919746 8.310756 -4.906164
v 95.765602 -10.340359 -10.738991
v 114.463181 4.034172 -10.603545
v 113.081024 -0.467639 -9.642723
v 112.836021 7.870331 -9.358937
v 109.020180 9.582987 -11.653959
v 104.427963 -7.818487 5.058588
v 72.054611 10.919621 5.333825
v 63.065788 10.678087 -5.058591
v 72.054611 10.919621 -5.333510
v 63.065788 10.678086 4.133354
v 72.155029 -10.328001 4.166327
v 63.205120 -10.983740 -4.133361
v 72.155022 -10.328003 -4.166333
v 63.205128 -10.983740 -0.000000
v 70.360901 0.610694 -1.665680
v 70.646599 0.660654 -0.000000
v 70.636635 7.044326 -0.000000
v 70.360901 0.610694 1.665683
v 70.646599 0.660651 4.512320
v 47.441299 1.563489 4.895458
v 44.634899 1.578631 4.990849
v 34.116600 2.656084 2.262648
v 59.748989 1.097795 6.671242
v 20.483200 3.588788 -0.000001
v 71.171669 -5.939043 -0.000000
v 70.360901 0.610694 4.906162
v 95.765610 -10.340359 5.190434
v 116.125061 3.930187 5.009028
v 122.611458 2.854045 10.131200
v 96.405388 -0.766623 10.387202
v 103.510391 7.063510 11.502803
v 103.415955 -0.462973 12.558403
v 104.155014 6.788189 10.387202
v 103.510391 7.063510 7.516103
v 96.714989 4.846417 -0.000003
v 97.153687 6.958277 10.603540
v 113.071350 -0.478202 9.358937
v 109.038254 9.584305 9.642717
v 112.844292 7.865088 11.502803
v 103.415955 -0.462973 10.131200
v 96.405388 -0.766623 9.020882
v 95.972931 -6.681221 24.460501
v 99.795654 5.475976 26.764610
v 98.904305 5.101942 10.678719
v 109.346237 -2.919725 37.772575
v 94.328140 4.905120 8.652480
v 114.821037 4.063679 32.386612
v 96.187698 5.196588 42.422783
v 92.722610 4.653471 7.245015
v 86.023567 10.156972 -0.000000
v 85.880188 11.132263 14.836325
v 85.202484 5.280065 6.587153
v 80.014221 -10.984886 13.726274
v 82.061455 -6.957660 0.000001
v 79.183464 -12.042461 -0.000003
v 86.825050 -0.345451 6.587153
v 80.014221 -10.984886 14.934381
v 82.976761 -4.384220 10.930106
v 84.805267 -0.846149 15.624515
v 84.538330 2.306439 14.690054
v 84.909210 -3.682483 15.198127
v 86.685486 -1.037925 14.934381
v 82.976761 -4.384220 15.624515
v 84.538330 2.306439 15.556025
v 86.162041 1.336398 15.624515
v 84.538330 2.306439 -0.000005
v 95.685356 -11.166620 10.738985
v 114.466942 4.018353 10.738985
v 114.466942 4.018353 -0.000000
v 70.636635 7.044326 -0.000001
v 71.171669 -5.939043 1.665676
v 70.646591 0.660652 -0.000004
v 70.360901 0.610696 0.000000
v 89.524590 -10.437302 -0.000000
v 82.706017 -10.198402 -0.000000
v 90.803291 5.818110 -0.000003
v 97.153687 6.958277 -0.000003
v 80.719727 11.416306 -0.000002
v 86.166214 8.485859 -0.000004
v 70.360901 0.610696 -0.000000
v 70.636635 7.044326 -0.000003
v 73.907791 11.140400 -1.665688
v 70.646591 0.660654 -4.512325
v 47.441296 1.563496 -4.895464
v 44.634895 1.578638 -4.990852
v 34.116596 2.656091 -2.262652
v 59.749001 1.097805 -6.671246
v 20.483196 3.588790 -0.000000
v 75.876892 -8.470741 -0.000001
v 71.171669 -5.939043 -0.000004
v 70.360901 0.610696 -4.906164
v 95.765602 -10.340359 0.000000
v 96.505127 -11.856564 -0.000005
v 95.685356 -11.166620 -0.000002
v 116.894180 6.252837 -5.009033
v 122.611450 2.854043 -5.190437
v 116.123779 3.936414 -0.000002
v 123.522461 5.340425 0.000001
v 119.354446 -4.180032 -0.000000
v 113.184204 -3.294351 -0.000001
v 105.083649 9.238218 -10.131204
v 96.405388 -0.766621 -10.387204
v 103.499405 7.049146 -11.502804
v 103.424591 -0.476935 -10.387204
v 103.499405 7.049146 -12.558403
v 104.148155 6.780474 -7.516106
v 96.714989 4.846416 -0.000003
v 97.153687 6.958277 -10.603545
v 113.081024 -0.467639 -9.358937
v 109.020180 9.582987 -9.642723
v 112.836021 7.870331 -11.502804
v 103.424591 -0.476935 -10.131204
v 96.405388 -0.766621 0.000000
v 104.061813 -11.895575 -0.000000
v 108.884346 -7.024352 0.000000
v 100.379707 -13.028269 -9.020883
v 95.972931 -6.681222 -24.460503
v 99.795662 5.476024 -26.764610
v 98.904305 5.101948 -0.000003
v 111.905296 8.965496 -10.678719
v 109.355820 -2.919560 -37.772575
v 94.328133 4.905113 -8.652487
v 114.817131 4.079119 -32.386604
v 96.187691 5.196578 -42.422783
v 92.722603 4.653465 -0.000000
v 73.337440 -10.315777 -0.000006
v 71.041626 -10.446098 -0.000002
v 63.020386 -11.156122 -0.000004
v 71.692581 11.534109 -0.000000
v 75.739418 13.203219 -0.000000
v 82.140205 12.255238 -0.000000
v 75.876106 -12.697527 -0.000000
v 82.048920 13.440862 -0.000000
v 85.880188 11.132263 0.000001
v 79.183464 -12.042461 -0.000001
v 71.218575 -11.221561 -7.245020
v 86.023582 10.156969 -0.000000
v 85.880188 11.132263 -0.000003
v 86.825050 -0.345451 -14.836327
v 85.202484 5.280063 -6.587154
v 80.014221 -10.984890 -13.726276
v 82.061447 -6.957655 0.000001
v 79.183464 -12.042461 -6.587154
v 80.014221 -10.984890 -0.000003
v 86.825050 -0.345451 -14.934381
v 82.976761 -4.384224 -10.930109
v 84.805260 -0.846147 -15.624516
v 84.538307 2.306442 -14.690054
v 84.909203 -3.682483 -15.198129
v 86.685486 -1.037925 -14.934381
v 82.976761 -4.384224 -15.624516
v 84.538307 2.306442 -15.556024
v 86.162064 1.336404 -15.624516
v 84.538307 2.306442 -0.000003
v 115.326729 10.919373 -0.000003
v 119.188141 11.092842 -0.000004
v 110.524628 10.867312 -0.000000
v 111.563248 -8.573763 -0.000000
v 108.839554 -10.325817 0.000000
v 114.863747 -11.003639 -0.000000
v 113.308319 -9.004692 -0.000001
v 124.671921 14.721440 0.000000
v 115.975845 -11.211964 -0.000000
v 125.243820 12.973087 -0.000002
v 106.745071 3.462861 0.000000
v 107.228920 -10.326311 -0.000002
v 108.944565 9.776446 -0.000005
v 95.685356 -11.166620 -10.738991
v 114.463181 4.034172 -10.738991
v 114.463181 4.034172 0.000450
v 62.957775 11.190130 0.278777

vt 0.993296 0.721651
vt 0.758162 0.695301
vt 0.758068 0.694344
vt 0.993177 0.721223
vt 0.993296 0.754849
vt 0.758258 0.754712
vt 0.993489 0.684841
vt 0.993156 0.664782
vt 0.993073 0.684970
vt 0.758179 0.665826
vt 0.758056 0.664782
vt 0.993073 0.632904
vt 0.993041 0.632895
vt 0.758151 0.721651
vt 0.758162 0.015088
vt 0.354633 0.008168
vt 0.363923 0.150003
vt 0.493819 0.206218
vt 0.579853 0.161008
vt 0.584842 0.210805
vt 0.480046 0.295849
vt 0.489197 0.164839
vt 0.444123 0.118359
vt 0.455296 0.210896
vt 0.437224 0.302116
vt 0.437740 0.253495
vt 0.435047 0.209533
vt 0.393015 0.256984
vt 0.396390 0.122118
vt 0.411158 0.168884
vt 0.401530 0.313000
vt 0.020534 0.110353
vt 0.020527 0.196551
vt 0.020491 0.372454
vt 0.020517 0.257666
vt 0.020503 0.156912
vt 0.020500 0.015088
vt 0.354633 0.358238
vt 0.399846 0.199750
vt 0.308067 0.299411
vt 0.310488 0.345167
vt 0.306017 0.392241
vt 0.293961 0.130111
vt 0.374324 0.255475
vt 0.311028 0.330103
vt 0.226387 0.372389
vt 0.189479 0.104934
vt 0.196002 0.150241
vt 0.198109 0.253587
vt 0.231662 0.201958
vt 0.197927 0.087706
vt 0.302144 0.141267
vt 0.306486 0.290562
vt 0.206948 0.327419
vt 0.202813 0.253463
vt 0.207623 0.288979
vt 0.180545 0.250389
vt 0.184138 0.325385
vt 0.182416 0.202906
vt 0.121529 0.153472
vt 0.122957 0.110267
vt 0.123321 0.372891
vt 0.116294 0.072128
vt 0.375364 0.292356
vt 0.230648 0.200591
vt 0.217850 0.148654
vt 0.213216 0.104151
vt 0.208948 0.057318
vt 0.206812 0.292690
vt 0.540659 0.208786
vt 0.532135 0.156557
vt 0.536934 0.247590
vt 0.581954 0.303865
vt 0.401784 0.251373
vt 0.480805 0.249846
vt 0.532950 0.069709
vt 0.619597 0.114781
vt 0.621393 0.307470
vt 0.626484 0.156665
vt 0.621309 0.260169
vt 0.623224 0.214723
vt 0.623165 0.821821
vt 0.924047 0.865243
vt 0.872671 0.859718
vt 0.991005 0.899795
vt 0.949983 0.814364
vt 0.847562 0.581489
vt 0.852280 0.819267
vt 0.670680 0.576594
vt 0.729864 0.710918
vt 0.684256 0.578870
vt 0.796637 0.634727
vt 0.731564 0.797908
vt 0.775798 0.133244
vt 0.965328 0.595082
vt 0.901567 0.056660
vt 0.926451 0.096632
vt 0.962941 0.103756
vt 0.934658 0.305366
vt 0.925337 0.218356
vt 0.959885 0.251682
vt 0.935526 0.153580
vt 0.924470 0.173922
vt 0.960696 0.208819
vt 0.926486 0.877954
vt 0.780004 0.916986
vt 0.594040 0.865900
vt 0.610178 0.929443
vt 0.637777 0.874959
vt 0.647626 0.811816
vt 0.626465 0.110660
vt 0.818958 0.062855
vt 0.806231 0.253305
vt 0.807605 0.299340
vt 0.806639 0.209186
vt 0.808216 0.158015
vt 0.808553 0.061515
vt 0.782966 0.157986
vt 0.786068 0.110459
vt 0.775648 0.111677
vt 0.796134 0.209925
vt 0.785347 0.253679
vt 0.783431 0.299888
vt 0.783246 0.304255
vt 0.723270 0.255980
vt 0.720370 0.211746
vt 0.719646 0.156264
vt 0.720456 0.110570
vt 0.722495 0.058770
vt 0.721807 0.929574
vt 0.687117 0.876932
vt 0.686908 0.827165
vt 0.730114 0.064236
vt 0.666817 0.112309
vt 0.668322 0.258497
vt 0.666714 0.306525
vt 0.670880 0.155826
vt 0.666675 0.213088
vt 0.665429 0.601844
vt 0.011583 0.668054
vt 0.100441 0.606664
vt 0.080076 0.549964
vt 0.011573 0.605497
vt 0.080049 0.667433
vt 0.099912 0.773864
vt 0.062124 0.856002
vt 0.011567 0.773864
vt 0.062124 0.668483
vt 0.145185 0.572055
vt 0.104219 0.510073
vt 0.011571 0.571390
vt 0.104377 0.668410
vt 0.144613 0.794528
vt 0.113380 0.959676
vt 0.011563 0.794674
vt 0.114672 0.669227
vt 0.056523 0.772442
vt 0.011575 0.669353
vt 0.057368 0.670674
vt 0.011585 0.673204
vt 0.164177 0.558992
vt 0.117743 0.493651
vt 0.011571 0.558427
vt 0.117885 0.672943
vt 0.164259 0.799381
vt 0.128761 0.976993
vt 0.011564 0.799947
vt 0.129195 0.836016
vt 0.058444 0.893752
vt 0.070394 0.911485
vt 0.076101 0.836041
vt 0.058558 0.894546
vt 0.071034 0.911519
vt 0.076425 0.601844
vt 0.011583 0.668054
vt 0.100441 0.606664
vt 0.080076 0.549964
vt 0.011573 0.605497
vt 0.080049 0.667433
vt 0.099912 0.773864
vt 0.062124 0.856002
vt 0.011567 0.773864
vt 0.062124 0.668483
vt 0.145185 0.572055
vt 0.104219 0.510073
vt 0.011571 0.571390
vt 0.104377 0.668410
vt 0.144613 0.794528
vt 0.113380 0.959676
vt 0.011563 0.794674
vt 0.114672 0.669227
vt 0.056523 0.772442
vt 0.011575 0.669353
vt 0.057368 0.670674
vt 0.011585 0.673204
vt 0.164177 0.558992
vt 0.117743 0.493651
vt 0.011571 0.558427
vt 0.117885 0.672943
vt 0.164259 0.799381
vt 0.128761 0.976993
vt 0.011564 0.799947
vt 0.129195 0.836016
vt 0.058444 0.893752
vt 0.070394 0.911485
vt 0.076101 0.836041
vt 0.058558 0.894546
vt 0.071034 0.911519
vt 0.076425 0.502546
vt 0.548041 0.464204
vt 0.578944 0.459537
vt 0.552742 0.479386
vt 0.373571 0.611723
vt 0.370199 0.468608
vt 0.430205 0.612336
vt 0.432718 0.489755
vt 0.311049 0.453354
vt 0.305912 0.612727
vt 0.542198 0.476268
vt 0.484038 0.612667
vt 0.486663 0.610874
vt 0.309493 0.410951
vt 0.429961 0.404997
vt 0.459797 0.418520
vt 0.399193 0.398856
vt 0.494461 0.428063
vt 0.364011 0.392242
vt 0.561076 0.938118
vt 0.391696 0.881750
vt 0.425619 0.811310
vt 0.451136 0.844743
vt 0.438756 0.746660
vt 0.471278 0.884780
vt 0.483476 0.681776
vt 0.482099 0.673801
vt 0.538498 0.748698
vt 0.526146 0.944891
vt 0.457667 0.817525
vt 0.508888 0.968447
vt 0.358125 0.854860
vt 0.496700 0.425308
vt 0.088210 0.780266
vt 0.518397 0.428842
vt 0.217935 0.425191
vt 0.195833 0.430514
vt 0.239493 0.780778
vt 0.460694 0.807906
vt 0.226296 0.838062
vt 0.264483 0.783735
vt 0.289905 0.751190
vt 0.247665 0.692732
vt 0.234292 0.668132
vt 0.255644 0.726106
vt 0.307618 0.660447
vt 0.220873 0.844036
vt 0.181630 0.895308
vt 0.135167 0.938776
vt 0.130085 0.805793
vt 0.355276 0.878609
vt 0.316152 0.722847
vt 0.397303 0.815187
vt 0.367878 0.885747
vt 0.328578 0.739229
vt 0.409577 0.938177
vt 0.279387 0.941527
vt 0.294239 0.807906
vt 0.199136 0.751190
vt 0.220506 0.692732
vt 0.207133 0.660447
vt 0.193714 0.844036
vt 0.154471 0.895308
vt 0.108007 0.938776
vt 0.102926 0.885853
vt 0.242175 0.899039
vt 0.182297 0.180404
vt 0.486932 0.117115
vt 0.503085 0.287699
vt 0.589118 0.173253
vt 0.980931 0.218685
vt 0.977558 0.131234
vt 0.985371 0.092169
vt 0.976558 0.823216
vt 0.700397 0.958386
vt 0.550052 0.345191
vt 0.499778 0.084226
vt 0.512350 0.102402
vt 0.597462 0.067748
vt 0.468844 0.359516
vt 0.449969 0.056293
vt 0.419937 0.015088
vt 0.354633 0.378821
vt 0.411966 0.008168
vt 0.363923 0.039237
vt 0.385415 0.332114
vt 0.548972 0.096966
vt 0.549627 0.485413
vt 0.891469 0.937117
vt 0.852251 0.457176
vt 0.967644 0.954519
vt 0.923124 0.983047
vt 0.611297 0.963020
vt 0.782148 0.500054
vt 0.740223 0.492498
vt 0.823288 0.989676
vt 0.680921 0.634778
vt 0.277066 0.671789
vt 0.322251 0.944927
vt 0.190020 0.931320
vt 0.222309 0.613676
vt 0.218768 0.985860
vt 0.135929 0.985360
vt 0.246032 0.642551
vt 0.430033 0.988266
vt 0.265793 0.664867
vt 0.442146 0.862735
vt 0.388809 0.985860
vt 0.108770 0.618480
vt 0.193530 0.950069
vt 0.535138 0.150003
vt 0.493819 0.206218
vt 0.579853 0.161008
vt 0.584842 0.210805
vt 0.480046 0.295849
vt 0.489197 0.164839
vt 0.444123 0.118359
vt 0.455296 0.210896
vt 0.437224 0.302116
vt 0.437740 0.253495
vt 0.435047 0.209533
vt 0.393015 0.256984
vt 0.396390 0.122118
vt 0.411158 0.168884
vt 0.401530 0.313000
vt 0.020534 0.110353
vt 0.020527 0.196551
vt 0.020491 0.372454
vt 0.020517 0.257666
vt 0.020503 0.156912
vt 0.020500 0.015088
vt 0.354633 0.358238
vt 0.399846 0.199750
vt 0.308067 0.299411
vt 0.310488 0.345167
vt 0.306017 0.392241
vt 0.293961 0.130111
vt 0.374324 0.255475
vt 0.311028 0.330103
vt 0.226387 0.372389
vt 0.189479 0.104934
vt 0.196002 0.150241
vt 0.198109 0.253587
vt 0.231662 0.201958
vt 0.197927 0.087706
vt 0.302144 0.141267
vt 0.306486 0.290562
vt 0.206948 0.327419
vt 0.202813 0.253463
vt 0.207623 0.288979
vt 0.180545 0.250389
vt 0.184138 0.325385
vt 0.182416 0.202906
vt 0.121529 0.153472
vt 0.122957 0.110267
vt 0.123321 0.372891
vt 0.116294 0.072128
vt 0.375364 0.292356
vt 0.230648 0.200591
vt 0.217850 0.148654
vt 0.213216 0.104151
vt 0.208948 0.057318
vt 0.206812 0.292690
vt 0.540659 0.208786
vt 0.532135 0.156557
vt 0.536934 0.247590
vt 0.581954 0.303865
vt 0.401784 0.251373
vt 0.480805 0.249846
vt 0.532950 0.069709
vt 0.619597 0.114781
vt 0.621393 0.307470
vt 0.626484 0.156665
vt 0.621309 0.260169
vt 0.623224 0.214723
vt 0.623165 0.821821
vt 0.924047 0.865243
vt 0.872671 0.859718
vt 0.991005 0.899795
vt 0.949983 0.814364
vt 0.847562 0.581489
vt 0.852280 0.819267
vt 0.670680 0.576594
vt 0.729864 0.710918
vt 0.684256 0.578870
vt 0.796637 0.634727
vt 0.731564 0.797908
vt 0.775798 0.133244
vt 0.965328 0.595082
vt 0.901567 0.056660
vt 0.926451 0.096632
vt 0.962941 0.103756
vt 0.934658 0.305366
vt 0.925337 0.218356
vt 0.959885 0.251682
vt 0.935526 0.153580
vt 0.924470 0.173922
vt 0.960696 0.208819
vt 0.926486 0.877954
vt 0.780004 0.916986
vt 0.594040 0.865900
vt 0.610178 0.929443
vt 0.637777 0.874959
vt 0.647626 0.811816
vt 0.626465 0.110660
vt 0.818958 0.062855
vt 0.806231 0.253305
vt 0.807605 0.299340
vt 0.806639 0.209186
vt 0.808216 0.158015
vt 0.808553 0.061515
vt 0.782966 0.157986
vt 0.786068 0.110459
vt 0.775648 0.111677
vt 0.796134 0.209925
vt 0.785347 0.253679
vt 0.783431 0.299888
vt 0.783246 0.304255
vt 0.723270 0.255980
vt 0.720370 0.211746
vt 0.719646 0.156264
vt 0.720456 0.110570
vt 0.722495 0.058770
vt 0.721807 0.929574
vt 0.687117 0.876932
vt 0.686908 0.827165
vt 0.730114 0.064236
vt 0.666817 0.112309
vt 0.668322 0.258497
vt 0.666714 0.306525
vt 0.670880 0.155826
vt 0.666675 0.213088
vt 0.665429 0.601844
vt 0.011583 0.668054
vt 0.100441 0.606664
vt 0.080076 0.549964
vt 0.011573 0.605497
vt 0.080049 0.667433
vt 0.099912 0.773864
vt 0.062124 0.856002
vt 0.011567 0.773864
vt 0.062124 0.668483
vt 0.145185 0.572055
vt 0.104219 0.510073
vt 0.011571 0.571390
vt 0.104377 0.668410
vt 0.144613 0.794528
vt 0.113380 0.959676
vt 0.011563 0.794674
vt 0.114672 0.669227
vt 0.056523 0.772442
vt 0.011575 0.669353
vt 0.057368 0.670674
vt 0.011585 0.673204
vt 0.164177 0.558992
vt 0.117743 0.493651
vt 0.011571 0.558427
vt 0.117885 0.672943
vt 0.164259 0.799381
vt 0.128761 0.976993
vt 0.011564 0.799947
vt 0.129195 0.836016
vt 0.058444 0.893752
vt 0.070394 0.911485
vt 0.076101 0.836041
vt 0.058558 0.894546
vt 0.071034 0.911519
vt 0.076425 0.601844
vt 0.011583 0.668054
vt 0.100441 0.606664
vt 0.080076 0.549964
vt 0.011573 0.605497
vt 0.080049 0.667433
vt 0.099912 0.773864
vt 0.062124 0.856002
vt 0.011567 0.773864
vt 0.062124 0.668483
vt 0.145185 0.572055
vt 0.104219 0.510073
vt 0.011571 0.571390
vt 0.104377 0.668410
vt 0.144613 0.794528
vt 0.113380 0.959676
vt 0.011563 0.794674
vt 0.114672 0.669227
vt 0.056523 0.772442
vt 0.011575 0.669353
vt 0.057368 0.670674
vt 0.011585 0.673204
vt 0.164177 0.558992
vt 0.117743 0.493651
vt 0.011571 0.558427
vt 0.117885 0.672943
vt 0.164259 0.799381
vt 0.128761 0.976993
vt 0.011564 0.799947
vt 0.129195 0.836016
vt 0.058444 0.893752
vt 0.070394 0.911485
vt 0.076101 0.836041
vt 0.058558 0.894546
vt 0.071034 0.911519
vt 0.076425 0.502546
vt 0.548041 0.464204
vt 0.578944 0.459537
vt 0.552742 0.479386
vt 0.373571 0.611723
vt 0.370199 0.468608
vt 0.430205 0.612336
vt 0.432718 0.487324
vt 0.258689 0.489755
vt 0.311049 0.453354
vt 0.305912 0.516333
vt 0.258334 0.612727
vt 0.542198 0.512284
vt 0.602319 0.476268
vt 0.484038 0.609009
vt 0.257454 0.612667
vt 0.486663 0.610874
vt 0.309493 0.461592
vt 0.602577 0.410951
vt 0.429961 0.404997
vt 0.459797 0.418520
vt 0.399193 0.612578
vt 0.589822 0.398856
vt 0.494461 0.428063
vt 0.364011 0.392242
vt 0.561076 0.386055
vt 0.599312 0.990748
vt 0.348030 0.938118
vt 0.391696 0.881750
vt 0.425619 0.992651
vt 0.393292 0.811310
vt 0.451136 0.844743
vt 0.438756 0.746660
vt 0.471278 0.884780
vt 0.483476 0.681776
vt 0.482099 0.673801
vt 0.538498 0.621806
vt 0.482558 0.623391
vt 0.539543 0.748698
vt 0.526146 0.944891
vt 0.457667 0.993943
vt 0.445718 0.817525
vt 0.508888 0.968447
vt 0.358125 0.521292
vt 0.092510 0.854860
vt 0.496700 0.425308
vt 0.088210 0.780266
vt 0.518397 0.428842
vt 0.217935 0.425191
vt 0.195833 0.430514
vt 0.239493 0.780778
vt 0.460694 0.807906
vt 0.226296 0.838062
vt 0.264483 0.783735
vt 0.289905 0.751190
vt 0.247665 0.692732
vt 0.234292 0.668132
vt 0.255644 0.726106
vt 0.307618 0.660447
vt 0.220873 0.844036
vt 0.181630 0.895308
vt 0.135167 0.938776
vt 0.130085 0.805793
vt 0.355276 0.878609
vt 0.316152 0.722847
vt 0.397303 0.815187
vt 0.367878 0.885747
vt 0.328578 0.739229
vt 0.409577 0.938177
vt 0.279387 0.941527
vt 0.294239 0.807906
vt 0.199136 0.751190
vt 0.220506 0.692732
vt 0.207133 0.660447
vt 0.193714 0.844036
vt 0.154471 0.895308
vt 0.108007 0.938776
vt 0.102926 0.885853
vt 0.242175 0.899039
vt 0.182297 0.180404
vt 0.486932 0.117115
vt 0.503085 0.287699
vt 0.589118 0.173253
vt 0.980931 0.218685
vt 0.977558 0.131234
vt 0.985371 0.092169
vt 0.976558 0.823216
vt 0.700397 0.507415
vt 0.575180 0.612653
vt 0.566010 0.507415
vt 0.575180 0.612653
vt 0.566010 0.503044
vt 0.284691 0.609942
vt 0.283473 0.503044
vt 0.284691 0.609942
vt 0.283473 0.416441
vt 0.379099 0.407912
vt 0.368827 0.039237
vt 0.385415 0.008168
vt 0.363923 0.407912
vt 0.368827 0.376440
vt 0.208899 0.058503
vt 0.187464 0.060998
vt 0.115044 0.037757
vt 0.289132 0.070893
vt 0.020527 0.378821
vt 0.411966 0.416441
vt 0.379099 0.885291
vt 0.552102 0.552013
vt 0.910471 0.523694
vt 0.985022 0.676062
vt 0.605911 0.043652
vt 0.943804 0.309635
vt 0.940421 0.373142
vt 0.918952 0.380620
vt 0.939082 0.608391
vt 0.636449 0.512190
vt 0.639538 0.787152
vt 0.833883 0.608286
vt 0.798710 0.608447
vt 0.850220 0.728447
vt 0.721789 0.723202
vt 0.616690 0.799786
vt 0.580199 0.346925
vt 0.804327 0.344503
vt 0.784808 0.259191
vt 0.967418 0.354237
vt 0.673177 0.785459
vt 0.899602 0.352562
vt 0.728257 0.353406
vt 0.626135 0.459350
vt 0.183088 0.521292
vt 0.191166 0.393015
vt 0.140623 0.462549
vt 0.009285 0.398811
vt 0.038090 0.435983
vt 0.203859 0.435983
vt 0.293890 0.494727
vt 0.210666 0.388829
vt 0.058507 0.390341
vt 0.221419 0.385319
vt 0.114954 0.849626
vt 0.518974 0.823355
vt 0.541920 0.426819
vt 0.191715 0.430330
vt 0.248163 0.793094
vt 0.537349 0.780446
vt 0.518006 0.324439
vt 0.595618 0.763499
vt 0.885907 0.620154
vt 0.901119 0.039237
vt 0.385415 0.378821
vt 0.411966 0.407912
vt 0.368827 0.416441
vt 0.379099 0.332114
vt 0.548972 0.345191
vt 0.499778 0.096966
vt 0.549627 0.102402
vt 0.597462 0.067748
vt 0.468844 0.084226
vt 0.512350 0.008168
vt 0.363923 0.039237
vt 0.385415 0.056293
vt 0.419937 0.407912
vt 0.368827 0.376440
vt 0.208899 0.058503
vt 0.187464 0.060998
vt 0.115044 0.037757
vt 0.289132 0.070893
vt 0.020527 0.359516
vt 0.449969 0.378821
vt 0.411966 0.416441
vt 0.379099 0.885291
vt 0.552102 0.958386
vt 0.550052 0.950069
vt 0.535138 0.485413
vt 0.891469 0.523694
vt 0.985022 0.552013
vt 0.910471 0.457176
vt 0.967644 0.954519
vt 0.923124 0.937117
vt 0.852251 0.500054
vt 0.740223 0.676062
vt 0.605911 0.043652
vt 0.943804 0.309635
vt 0.940421 0.380620
vt 0.939082 0.373142
vt 0.918952 0.608391
vt 0.636449 0.512190
vt 0.639538 0.787152
vt 0.833883 0.608286
vt 0.798710 0.608447
vt 0.850220 0.728447
vt 0.721789 0.723202
vt 0.616690 0.989676
vt 0.680921 0.963020
vt 0.782148 0.983047
vt 0.611297 0.799786
vt 0.580199 0.346925
vt 0.804327 0.344503
vt 0.784808 0.492498
vt 0.823288 0.259191
vt 0.967418 0.354237
vt 0.673177 0.785459
vt 0.899602 0.352562
vt 0.728257 0.353406
vt 0.626135 0.487324
vt 0.258689 0.516333
vt 0.258334 0.609009
vt 0.257454 0.512284
vt 0.602319 0.461592
vt 0.602577 0.386055
vt 0.599312 0.992651
vt 0.393292 0.621806
vt 0.482558 0.623391
vt 0.539543 0.993943
vt 0.445718 0.990748
vt 0.348030 0.459350
vt 0.183088 0.521292
vt 0.191166 0.521292
vt 0.092510 0.393015
vt 0.140623 0.462549
vt 0.009285 0.398811
vt 0.038090 0.435983
vt 0.203859 0.494727
vt 0.210666 0.435983
vt 0.293890 0.388829
vt 0.058507 0.390341
vt 0.221419 0.385319
vt 0.114954 0.849626
vt 0.518974 0.823355
vt 0.541920 0.426819
vt 0.191715 0.430330
vt 0.248163 0.793094
vt 0.537349 0.780446
vt 0.518006 0.634778
vt 0.277066 0.671789
vt 0.322251 0.613676
vt 0.218768 0.944927
vt 0.190020 0.985860
vt 0.135929 0.985360
vt 0.246032 0.931320
vt 0.222309 0.642551
vt 0.430033 0.988266
vt 0.265793 0.664867
vt 0.442146 0.862735
vt 0.388809 0.985860
vt 0.108770 0.618480
vt 0.193530 0.324439
vt 0.595618 0.763499
vt 0.885907 0.620154
vt 0.901119 0.612578
vt 0.589822 1.000000

f 16/16 17/17 294/294
f 292/292 607/607 608/608
f 295/295 22/22 285/285
f 295/295 278/278 70/70
f 296/296 20/20 287/287
f 70/70 278/278 73/73
f 70/70 75/75 22/22
f 24/24 23/23 18/18
f 21/21 276/276 23/23
f 23/23 25/25 21/21
f 285/285 22/22 26/26
f 22/22 75/75 27/27
f 25/25 75/75 21/21
f 27/27 26/26 22/22
f 24/24 286/286 288/288
f 286/286 24/24 277/277
f 38/38 609/609 610/610
f 30/30 290/290 44/44
f 28/28 45/45 29/29
f 45/45 28/28 40/40
f 74/74 26/26 29/29
f 29/29 45/45 41/41
f 64/64 52/52 44/44
f 44/44 53/53 31/31
f 39/39 42/42 43/43
f 611/611 39/39 43/43
f 41/41 46/46 42/42
f 46/46 41/41 65/65
f 69/69 68/68 52/52
f 66/66 40/40 67/67
f 45/45 50/50 65/65
f 65/65 41/41 45/45
f 55/55 47/47 612/612
f 612/612 42/42 46/46
f 56/56 50/50 66/66
f 49/49 68/68 48/48
f 68/68 49/49 67/67
f 52/52 53/53 44/44
f 46/46 54/54 55/55
f 54/54 46/46 65/65
f 50/50 54/54 65/65
f 54/54 50/50 56/56
f 66/66 51/51 56/56
f 612/612 46/46 55/55
f 61/61 51/51 49/49
f 51/51 61/61 60/60
f 57/57 55/55 54/54
f 55/55 57/57 59/59
f 56/56 57/57 54/54
f 57/57 56/56 58/58
f 63/63 32/32 35/35
f 32/32 63/63 59/59
f 613/613 62/62 48/48
f 62/62 613/613 614/614
f 49/49 62/62 61/61
f 62/62 49/49 48/48
f 51/51 58/58 56/56
f 36/36 60/60 34/34
f 60/60 36/36 58/58
f 60/60 58/58 51/51
f 47/47 55/55 59/59
f 58/58 36/36 57/57
f 32/32 57/57 36/36
f 59/59 63/63 47/47
f 615/615 52/52 64/64
f 64/64 38/38 615/615
f 59/59 57/57 32/32
f 61/61 34/34 60/60
f 34/34 61/61 37/37
f 37/37 61/61 62/62
f 62/62 33/33 37/37
f 616/616 62/62 614/614
f 62/62 616/616 33/33
f 290/290 64/64 44/44
f 289/289 26/26 617/617
f 40/40 28/28 31/31
f 39/39 41/41 42/42
f 74/74 39/39 26/26
f 611/611 617/617 39/39
f 44/44 31/31 30/30
f 66/66 49/49 51/51
f 40/40 50/50 45/45
f 69/69 613/613 48/48
f 53/53 40/40 31/31
f 617/617 26/26 39/39
f 617/617 611/611 618/618
f 64/64 290/290 609/609
f 64/64 609/609 38/38
f 30/30 288/288 290/290
f 23/23 31/31 25/25
f 27/27 25/25 29/29
f 23/23 24/24 30/30
f 26/26 289/289 285/285
f 288/288 30/30 24/24
f 31/31 28/28 25/25
f 28/28 29/29 25/25
f 29/29 26/26 27/27
f 30/30 31/31 23/23
f 67/67 49/49 66/66
f 66/66 50/50 40/40
f 52/52 67/67 53/53
f 67/67 40/40 53/53
f 69/69 48/48 68/68
f 67/67 52/52 68/68
f 42/42 612/612 43/43
f 615/615 69/69 52/52
f 70/70 22/22 295/295
f 71/71 75/75 76/76
f 619/619 319/319 284/284
f 76/76 19/19 71/71
f 72/72 19/19 20/20
f 76/76 73/73 19/19
f 41/41 39/39 74/74
f 41/41 74/74 29/29
f 75/75 25/25 27/27
f 71/71 21/21 75/75
f 70/70 73/73 76/76
f 76/76 75/75 70/70
f 84/84 86/86 85/85
f 85/85 83/83 84/84
f 297/297 620/620 621/621
f 621/621 299/299 297/297
f 86/86 84/84 300/300
f 298/298 300/300 84/84
f 107/107 619/619 284/284
f 90/90 92/92 303/303
f 93/93 622/622 91/91
f 623/623 98/98 282/282
f 96/96 620/620 88/88
f 98/98 97/97 99/99
f 97/97 98/98 623/623
f 624/624 625/625 626/626
f 625/625 624/624 100/100
f 93/93 627/627 622/622
f 90/90 303/303 628/628
f 624/624 102/102 100/100
f 104/104 280/280 279/279
f 280/280 104/104 101/101
f 95/95 279/279 281/281
f 279/279 95/95 104/104
f 629/629 106/106 87/87
f 106/106 629/629 94/94
f 132/132 131/131 106/106
f 627/627 93/93 90/90
f 88/88 630/630 631/631
f 630/630 88/88 92/92
f 632/632 633/633 111/111
f 305/305 302/302 131/131
f 110/110 108/108 107/107
f 109/109 110/110 107/107
f 110/110 283/283 89/89
f 305/305 109/109 301/301
f 109/109 305/305 131/131
f 107/107 301/301 109/109
f 301/301 107/107 284/284
f 110/110 89/89 108/108
f 111/111 108/108 89/89
f 108/108 619/619 107/107
f 634/634 619/619 108/108
f 97/97 112/112 99/99
f 112/112 97/97 113/113
f 100/100 635/635 625/625
f 635/635 100/100 115/115
f 116/116 114/114 102/102
f 102/102 105/105 116/116
f 100/100 102/102 114/114
f 114/114 115/115 100/100
f 99/99 117/117 103/103
f 117/117 99/99 112/112
f 116/116 103/103 117/117
f 103/103 116/116 105/105
f 135/135 130/130 134/134
f 118/118 129/129 120/120
f 636/636 115/115 124/124
f 128/128 127/127 122/122
f 122/122 116/116 119/119
f 114/114 124/124 115/115
f 137/137 126/126 136/136
f 114/114 116/116 122/122
f 128/128 120/120 129/129
f 121/121 118/118 120/120
f 635/635 115/115 636/636
f 119/119 116/116 117/117
f 117/117 121/121 119/119
f 118/118 121/121 113/113
f 121/121 117/117 112/112
f 119/119 121/121 120/120
f 113/113 121/121 112/112
f 92/92 88/88 304/304
f 297/297 304/304 88/88
f 628/628 627/627 90/90
f 304/304 303/303 92/92
f 102/102 624/624 637/637
f 94/94 632/632 133/133
f 126/126 122/122 127/127
f 138/138 80/80 139/139
f 122/122 123/123 114/114
f 124/124 114/114 123/123
f 638/638 125/125 137/137
f 95/95 98/98 99/99
f 101/101 102/102 637/637
f 102/102 101/101 105/105
f 99/99 103/103 95/95
f 104/104 105/105 101/101
f 105/105 104/104 103/103
f 95/95 103/103 104/104
f 106/106 302/302 298/298
f 298/298 84/84 106/106
f 106/106 84/84 87/87
f 620/620 297/297 88/88
f 83/83 87/87 84/84
f 87/87 83/83 639/639
f 123/123 125/125 124/124
f 640/640 124/124 125/125
f 122/122 126/126 123/123
f 125/125 123/123 126/126
f 136/136 127/127 139/139
f 120/120 128/128 119/119
f 119/119 128/128 122/122
f 138/138 129/129 135/135
f 124/124 640/640 636/636
f 129/129 118/118 130/130
f 131/131 302/302 106/106
f 94/94 133/133 106/106
f 133/133 132/132 106/106
f 632/632 283/283 133/133
f 632/632 111/111 89/89
f 108/108 111/111 634/634
f 634/634 111/111 633/633
f 135/135 77/77 78/78
f 77/77 135/135 134/134
f 125/125 638/638 640/640
f 137/137 81/81 79/79
f 81/81 137/137 136/136
f 127/127 136/136 126/126
f 129/129 138/138 128/128
f 138/138 127/127 128/128
f 127/127 138/138 139/139
f 638/638 79/79 641/641
f 79/79 638/638 137/137
f 126/126 137/137 125/125
f 136/136 82/82 81/81
f 82/82 136/136 139/139
f 139/139 80/80 82/82
f 138/138 78/78 80/80
f 78/78 138/138 135/135
f 130/130 135/135 129/129
f 160/160 158/158 157/157
f 141/141 150/150 149/149
f 141/141 142/142 150/150
f 142/142 151/151 150/150
f 142/142 143/143 151/151
f 144/144 152/152 151/151
f 143/143 144/144 151/151
f 145/145 153/153 152/152
f 144/144 145/145 152/152
f 146/146 154/154 145/145
f 145/145 154/154 153/153
f 155/155 170/170 169/169
f 172/172 156/156 173/173
f 172/172 148/148 156/156
f 141/141 149/149 156/156
f 148/148 141/141 156/156
f 140/140 144/144 143/143
f 157/157 145/145 144/144
f 157/157 144/144 140/140
f 157/157 146/146 145/145
f 158/158 147/147 169/169
f 158/158 146/146 157/157
f 160/160 159/159 158/158
f 159/159 141/141 148/148
f 159/159 142/142 141/141
f 140/140 142/142 159/159
f 140/140 143/143 142/142
f 140/140 159/159 160/160
f 140/140 160/160 157/157
f 161/161 150/150 162/162
f 150/150 161/161 149/149
f 151/151 162/162 150/150
f 162/162 151/151 163/163
f 152/152 163/163 151/151
f 163/163 152/152 164/164
f 164/164 153/153 165/165
f 153/153 164/164 152/152
f 165/165 154/154 166/166
f 154/154 165/165 153/153
f 171/171 155/155 167/167
f 155/155 171/171 170/170
f 174/174 156/156 168/168
f 156/156 174/174 173/173
f 168/168 149/149 161/161
f 149/149 168/168 156/156
f 158/158 169/169 146/146
f 146/146 169/169 154/154
f 147/147 155/155 169/169
f 169/169 170/170 154/154
f 170/170 166/166 154/154
f 171/171 166/166 170/170
f 159/159 148/148 158/158
f 158/158 148/148 172/172
f 158/158 172/172 147/147
f 172/172 173/173 155/155
f 172/172 155/155 147/147
f 173/173 167/167 155/155
f 167/167 173/173 174/174
f 195/195 193/193 192/192
f 176/176 185/185 184/184
f 176/176 177/177 185/185
f 177/177 186/186 185/185
f 177/177 178/178 186/186
f 179/179 187/187 186/186
f 178/178 179/179 186/186
f 180/180 188/188 187/187
f 179/179 180/180 187/187
f 181/181 189/189 180/180
f 180/180 189/189 188/188
f 190/190 205/205 204/204
f 207/207 191/191 208/208
f 207/207 183/183 191/191
f 176/176 184/184 191/191
f 183/183 176/176 191/191
f 175/175 179/179 178/178
f 192/192 180/180 179/179
f 192/192 179/179 175/175
f 192/192 181/181 180/180
f 193/193 182/182 204/204
f 193/193 181/181 192/192
f 195/195 194/194 193/193
f 194/194 176/176 183/183
f 194/194 177/177 176/176
f 175/175 177/177 194/194
f 175/175 178/178 177/177
f 175/175 194/194 195/195
f 175/175 195/195 192/192
f 196/196 185/185 197/197
f 185/185 196/196 184/184
f 197/197 186/186 198/198
f 186/186 197/197 185/185
f 198/198 187/187 199/199
f 187/187 198/198 186/186
f 199/199 188/188 200/200
f 188/188 199/199 187/187
f 200/200 189/189 201/201
f 189/189 200/200 188/188
f 206/206 190/190 202/202
f 190/190 206/206 205/205
f 209/209 191/191 203/203
f 191/191 209/209 208/208
f 203/203 184/184 196/196
f 184/184 203/203 191/191
f 193/193 204/204 181/181
f 181/181 204/204 189/189
f 182/182 190/190 204/204
f 204/204 205/205 189/189
f 205/205 201/201 189/189
f 206/206 201/201 205/205
f 194/194 183/183 193/193
f 193/193 183/183 207/207
f 193/193 207/207 182/182
f 207/207 208/208 190/190
f 207/207 190/190 182/182
f 208/208 202/202 190/190
f 202/202 208/208 209/209
f 210/210 212/212 211/211
f 213/213 215/215 214/214
f 216/216 214/214 215/215
f 519/519 218/218 217/217
f 217/217 603/603 519/519
f 210/210 600/600 219/219
f 600/600 210/210 599/599
f 220/220 210/210 219/219
f 210/210 211/211 599/599
f 215/215 220/220 216/216
f 221/221 216/216 220/220
f 604/604 522/522 603/603
f 522/522 604/604 526/526
f 217/217 218/218 213/213
f 524/524 211/211 529/529
f 212/212 210/210 220/220
f 223/223 224/224 215/215
f 223/223 215/215 225/225
f 213/213 222/222 217/217
f 222/222 213/213 214/214
f 220/220 219/219 221/221
f 225/225 215/215 213/213
f 224/224 220/220 215/215
f 212/212 220/220 226/226
f 228/228 537/537 211/211
f 211/211 212/212 228/228
f 212/212 226/226 228/228
f 213/213 227/227 225/225
f 220/220 224/224 226/226
f 213/213 218/218 227/227
f 211/211 537/537 529/529
f 229/229 240/240 541/541
f 232/232 239/239 231/231
f 235/235 233/233 236/236
f 548/548 236/236 549/549
f 236/236 548/548 235/235
f 236/236 233/233 237/237
f 234/234 229/229 238/238
f 541/541 238/238 229/229
f 238/238 541/541 552/552
f 230/230 234/234 232/232
f 230/230 229/229 234/234
f 232/232 234/234 241/241
f 240/240 538/538 541/541
f 642/642 555/555 643/643
f 644/644 555/555 642/642
f 645/645 555/555 646/646
f 647/647 648/648 649/649
f 646/646 555/555 650/650
f 242/242 555/555 644/644
f 233/233 243/243 237/237
f 232/232 241/241 239/239
f 650/650 555/555 242/242
f 245/245 651/651 244/244
f 652/652 242/242 644/644
f 244/244 651/651 246/246
f 653/653 654/654 239/239
f 239/239 241/241 653/653
f 651/651 245/245 655/655
f 651/651 656/656 246/246
f 239/239 657/657 243/243
f 657/657 239/239 654/654
f 233/233 247/247 658/658
f 231/231 239/239 247/247
f 247/247 239/239 658/658
f 248/248 275/275 249/249
f 250/250 251/251 248/248
f 249/249 250/250 248/248
f 252/252 254/254 253/253
f 250/250 254/254 251/251
f 254/254 252/252 251/251
f 255/255 252/252 253/253
f 256/256 275/275 248/248
f 253/253 307/307 306/306
f 275/275 256/256 257/257
f 249/249 275/275 274/274
f 307/307 253/253 254/254
f 310/310 253/253 306/306
f 258/258 311/311 308/308
f 253/253 310/310 255/255
f 259/259 249/249 260/260
f 249/249 259/259 250/250
f 261/261 250/250 259/259
f 250/250 261/261 254/254
f 265/265 309/309 312/312
f 274/274 265/265 249/249
f 313/313 254/254 261/261
f 254/254 313/313 307/307
f 262/262 260/260 263/263
f 260/260 262/262 259/259
f 264/264 259/259 262/262
f 259/259 264/264 261/261
f 266/266 312/312 314/314
f 312/312 266/266 265/265
f 315/315 261/261 264/264
f 261/261 315/315 313/313
f 263/263 316/316 262/262
f 262/262 316/316 264/264
f 314/314 316/316 266/266
f 264/264 316/316 315/315
f 260/260 249/249 265/265
f 265/265 263/263 260/260
f 263/263 265/265 266/266
f 266/266 316/316 263/263
f 251/251 267/267 248/248
f 267/267 251/251 268/268
f 252/252 268/268 251/251
f 268/268 252/252 269/269
f 255/255 269/269 252/252
f 269/269 255/255 270/270
f 248/248 271/271 256/256
f 271/271 248/248 267/267
f 256/256 272/272 257/257
f 272/272 256/256 271/271
f 258/258 317/317 311/311
f 317/317 258/258 273/273
f 310/310 270/270 255/255
f 270/270 310/310 318/318
f 257/257 273/273 258/258
f 273/273 257/257 272/272
f 309/309 265/265 274/274
f 309/309 274/274 308/308
f 274/274 275/275 308/308
f 275/275 258/258 308/308
f 257/257 258/258 275/275
f 71/71 19/19 72/72
f 71/71 72/72 276/276
f 71/71 276/276 21/21
f 276/276 72/72 18/18
f 23/23 276/276 18/18
f 72/72 20/20 296/296
f 277/277 24/24 18/18
f 72/72 296/296 277/277
f 72/72 277/277 18/18
f 277/277 296/296 286/286
f 659/659 278/278 295/295
f 660/660 87/87 639/639
f 87/87 660/660 629/629
f 631/631 96/96 88/88
f 96/96 631/631 661/661
f 281/281 98/98 95/95
f 98/98 281/281 282/282
f 637/637 280/280 101/101
f 90/90 630/630 92/92
f 630/630 90/90 93/93
f 110/110 131/131 132/132
f 131/131 110/110 109/109
f 132/132 133/133 283/283
f 110/110 132/132 283/283
f 632/632 89/89 283/283
f 291/291 662/662 293/293
f 663/663 664/664 665/665
f 666/666 667/667 324/324
f 666/666 372/372 593/593
f 668/668 669/669 322/322
f 372/372 375/375 593/593
f 372/372 324/324 377/377
f 326/326 320/320 325/325
f 323/323 325/325 591/591
f 325/325 323/323 327/327
f 667/667 328/328 324/324
f 324/324 329/329 377/377
f 327/327 323/323 377/377
f 329/329 324/324 328/328
f 326/326 670/670 671/671
f 671/671 592/592 326/326
f 340/340 672/672 673/673
f 332/332 346/346 674/674
f 330/330 331/331 347/347
f 347/347 342/342 330/330
f 376/376 331/331 328/328
f 331/331 343/343 347/347
f 366/366 346/346 354/354
f 346/346 333/333 355/355
f 341/341 345/345 344/344
f 675/675 345/345 341/341
f 343/343 344/344 348/348
f 348/348 367/367 343/343
f 371/371 354/354 370/370
f 368/368 369/369 342/342
f 347/347 367/367 352/352
f 367/367 347/347 343/343
f 357/357 676/676 349/349
f 676/676 348/348 344/344
f 358/358 368/368 352/352
f 351/351 350/350 370/370
f 370/370 369/369 351/351
f 354/354 346/346 355/355
f 348/348 357/357 356/356
f 356/356 367/367 348/348
f 352/352 367/367 356/356
f 356/356 358/358 352/352
f 368/368 358/358 353/353
f 676/676 357/357 348/348
f 363/363 351/351 353/353
f 353/353 362/362 363/363
f 359/359 356/356 357/357
f 357/357 361/361 359/359
f 358/358 356/356 359/359
f 359/359 360/360 358/358
f 365/365 337/337 334/334
f 334/334 361/361 365/365
f 677/677 350/350 364/364
f 364/364 678/678 677/677
f 351/351 363/363 364/364
f 364/364 350/350 351/351
f 353/353 358/358 360/360
f 338/338 336/336 362/362
f 362/362 360/360 338/338
f 362/362 353/353 360/360
f 349/349 361/361 357/357
f 360/360 359/359 338/338
f 334/334 338/338 359/359
f 361/361 349/349 365/365
f 679/679 366/366 354/354
f 366/366 679/679 340/340
f 361/361 334/334 359/359
f 363/363 362/362 336/336
f 336/336 339/339 363/363
f 339/339 364/364 363/363
f 364/364 339/339 335/335
f 680/680 678/678 364/364
f 364/364 335/335 680/680
f 674/674 346/346 366/366
f 681/681 682/682 328/328
f 342/342 333/333 330/330
f 341/341 344/344 343/343
f 376/376 328/328 341/341
f 675/675 341/341 682/682
f 346/346 332/332 333/333
f 368/368 353/353 351/351
f 342/342 347/347 352/352
f 371/371 350/350 677/677
f 355/355 333/333 342/342
f 682/682 341/341 328/328
f 682/682 683/683 675/675
f 366/366 673/673 674/674
f 366/366 340/340 673/673
f 332/332 674/674 670/670
f 325/325 327/327 333/333
f 329/329 331/331 327/327
f 325/325 332/332 326/326
f 328/328 667/667 681/681
f 670/670 326/326 332/332
f 333/333 327/327 330/330
f 330/330 327/327 331/331
f 331/331 329/329 328/328
f 332/332 325/325 333/333
f 369/369 368/368 351/351
f 368/368 342/342 352/352
f 354/354 355/355 369/369
f 369/369 355/355 342/342
f 371/371 370/370 350/350
f 369/369 370/370 354/354
f 344/344 345/345 676/676
f 679/679 354/354 371/371
f 372/372 666/666 324/324
f 373/373 378/378 377/377
f 684/684 685/685 686/686
f 378/378 373/373 321/321
f 374/374 322/322 321/321
f 378/378 321/321 375/375
f 343/343 376/376 341/341
f 343/343 331/331 376/376
f 377/377 329/329 327/327
f 373/373 377/377 323/323
f 372/372 378/378 375/375
f 378/378 372/372 377/377
f 386/386 387/387 388/388
f 387/387 386/386 385/385
f 687/687 688/688 689/689
f 688/688 687/687 690/690
f 388/388 691/691 386/386
f 692/692 386/386 691/691
f 409/409 685/685 684/684
f 392/392 693/693 394/394
f 395/395 393/393 694/694
f 695/695 597/597 400/400
f 398/398 390/390 689/689
f 400/400 401/401 399/399
f 399/399 695/695 400/400
f 696/696 697/697 698/698
f 698/698 402/402 696/696
f 395/395 694/694 699/699
f 392/392 700/700 693/693
f 696/696 402/402 404/404
f 595/595 406/406 594/594
f 406/406 595/595 403/403
f 594/594 397/397 596/596
f 397/397 594/594 406/406
f 408/408 701/701 389/389
f 701/701 408/408 396/396
f 434/434 408/408 433/433
f 699/699 392/392 395/395
f 702/702 390/390 703/703
f 390/390 702/702 394/394
f 704/704 413/413 705/705
f 706/706 433/433 707/707
f 412/412 409/409 410/410
f 411/411 409/409 412/412
f 412/412 391/391 598/598
f 411/411 706/706 708/708
f 706/706 411/411 433/433
f 708/708 409/409 411/411
f 409/409 708/708 685/685
f 412/412 410/410 391/391
f 413/413 391/391 410/410
f 410/410 409/409 684/684
f 709/709 410/410 684/684
f 399/399 401/401 414/414
f 414/414 415/415 399/399
f 402/402 698/698 710/710
f 710/710 417/417 402/402
f 418/418 404/404 416/416
f 404/404 418/418 407/407
f 402/402 416/416 404/404
f 416/416 402/402 417/417
f 401/401 405/405 419/419
f 419/419 414/414 401/401
f 418/418 419/419 405/405
f 405/405 407/407 418/418
f 437/437 436/436 432/432
f 420/420 422/422 431/431
f 711/711 426/426 417/417
f 430/430 424/424 429/429
f 424/424 421/421 418/418
f 416/416 417/417 426/426
f 439/439 438/438 428/428
f 416/416 424/424 418/418
f 430/430 431/431 422/422
f 423/423 422/422 420/420
f 710/710 711/711 417/417
f 421/421 419/419 418/418
f 419/419 421/421 423/423
f 420/420 415/415 423/423
f 423/423 414/414 419/419
f 421/421 422/422 423/423
f 415/415 414/414 423/423
f 394/394 712/712 390/390
f 687/687 390/390 712/712
f 700/700 392/392 699/699
f 712/712 394/394 693/693
f 404/404 713/713 696/696
f 396/396 435/435 704/704
f 428/428 429/429 424/424
f 440/440 441/441 382/382
f 424/424 416/416 425/425
f 426/426 425/425 416/416
f 714/714 439/439 427/427
f 397/397 401/401 400/400
f 403/403 713/713 404/404
f 404/404 407/407 403/403
f 401/401 397/397 405/405
f 406/406 403/403 407/407
f 407/407 405/405 406/406
f 397/397 406/406 405/405
f 408/408 692/692 707/707
f 692/692 408/408 386/386
f 408/408 389/389 386/386
f 689/689 390/390 687/687
f 385/385 386/386 389/389
f 389/389 715/715 385/385
f 425/425 426/426 427/427
f 716/716 427/427 426/426
f 424/424 425/425 428/428
f 427/427 428/428 425/425
f 438/438 441/441 429/429
f 422/422 421/421 430/430
f 421/421 424/424 430/430
f 440/440 437/437 431/431
f 426/426 711/711 716/716
f 431/431 432/432 420/420
f 433/433 408/408 707/707
f 396/396 408/408 435/435
f 435/435 408/408 434/434
f 704/704 435/435 598/598
f 704/704 391/391 413/413
f 410/410 709/709 413/413
f 709/709 705/705 413/413
f 379/379 437/437 380/380
f 437/437 379/379 436/436
f 427/427 716/716 714/714
f 383/383 439/439 381/381
f 439/439 383/383 438/438
f 429/429 428/428 438/438
f 431/431 430/430 440/440
f 429/429 440/440 430/430
f 440/440 429/429 441/441
f 381/381 714/714 717/717
f 714/714 381/381 439/439
f 428/428 427/427 439/439
f 384/384 438/438 383/383
f 438/438 384/384 441/441
f 441/441 384/384 382/382
f 380/380 440/440 382/382
f 440/440 380/380 437/437
f 432/432 431/431 437/437
f 462/462 459/459 460/460
f 443/443 451/451 452/452
f 443/443 452/452 444/444
f 444/444 452/452 453/453
f 444/444 453/453 445/445
f 446/446 453/453 454/454
f 445/445 453/453 446/446
f 447/447 454/454 455/455
f 446/446 454/454 447/447
f 448/448 447/447 456/456
f 447/447 455/455 456/456
f 457/457 471/471 472/472
f 474/474 475/475 458/458
f 474/474 458/458 450/450
f 443/443 458/458 451/451
f 450/450 458/458 443/443
f 442/442 445/445 446/446
f 459/459 446/446 447/447
f 459/459 442/442 446/446
f 459/459 447/447 448/448
f 460/460 471/471 449/449
f 460/460 459/459 448/448
f 462/462 460/460 461/461
f 461/461 450/450 443/443
f 461/461 443/443 444/444
f 442/442 461/461 444/444
f 442/442 444/444 445/445
f 442/442 462/462 461/461
f 442/442 459/459 462/462
f 463/463 464/464 452/452
f 452/452 451/451 463/463
f 464/464 453/453 452/452
f 453/453 464/464 465/465
f 465/465 454/454 453/453
f 454/454 465/465 466/466
f 466/466 467/467 455/455
f 455/455 454/454 466/466
f 467/467 468/468 456/456
f 456/456 455/455 467/467
f 473/473 469/469 457/457
f 457/457 472/472 473/473
f 476/476 470/470 458/458
f 458/458 475/475 476/476
f 470/470 463/463 451/451
f 451/451 458/458 470/470
f 460/460 448/448 471/471
f 448/448 456/456 471/471
f 449/449 471/471 457/457
f 471/471 456/456 472/472
f 472/472 456/456 468/468
f 473/473 472/472 468/468
f 461/461 460/460 450/450
f 460/460 474/474 450/450
f 460/460 449/449 474/474
f 474/474 457/457 475/475
f 474/474 449/449 457/457
f 475/475 457/457 469/469
f 469/469 476/476 475/475
f 497/497 494/494 495/495
f 478/478 486/486 487/487
f 478/478 487/487 479/479
f 479/479 487/487 488/488
f 479/479 488/488 480/480
f 481/481 488/488 489/489
f 480/480 488/488 481/481
f 482/482 489/489 490/490
f 481/481 489/489 482/482
f 483/483 482/482 491/491
f 482/482 490/490 491/491
f 492/492 506/506 507/507
f 509/509 510/510 493/493
f 509/509 493/493 485/485
f 478/478 493/493 486/486
f 485/485 493/493 478/478
f 477/477 480/480 481/481
f 494/494 481/481 482/482
f 494/494 477/477 481/481
f 494/494 482/482 483/483
f 495/495 506/506 484/484
f 495/495 494/494 483/483
f 497/497 495/495 496/496
f 496/496 485/485 478/478
f 496/496 478/478 479/479
f 477/477 496/496 479/479
f 477/477 479/479 480/480
f 477/477 497/497 496/496
f 477/477 494/494 497/497
f 498/498 499/499 487/487
f 487/487 486/486 498/498
f 499/499 500/500 488/488
f 488/488 487/487 499/499
f 500/500 501/501 489/489
f 489/489 488/488 500/500
f 501/501 502/502 490/490
f 490/490 489/489 501/501
f 502/502 503/503 491/491
f 491/491 490/490 502/502
f 508/508 504/504 492/492
f 492/492 507/507 508/508
f 511/511 505/505 493/493
f 493/493 510/510 511/511
f 505/505 498/498 486/486
f 486/486 493/493 505/505
f 495/495 483/483 506/506
f 483/483 491/491 506/506
f 484/484 506/506 492/492
f 506/506 491/491 507/507
f 507/507 491/491 503/503
f 508/508 507/507 503/503
f 496/496 495/495 485/485
f 495/495 509/509 485/485
f 495/495 484/484 509/509
f 509/509 492/492 510/510
f 509/509 484/484 492/492
f 510/510 492/492 504/504
f 504/504 511/511 510/510
f 512/512 513/513 514/514
f 515/515 516/516 517/517
f 518/518 517/517 516/516
f 718/718 520/520 521/521
f 520/520 718/718 605/605
f 512/512 602/602 601/601
f 602/602 512/512 523/523
f 525/525 523/523 512/512
f 512/512 601/601 513/513
f 517/517 518/518 525/525
f 527/527 525/525 518/518
f 719/719 606/606 605/605
f 606/606 719/719 720/720
f 520/520 515/515 521/521
f 721/721 722/722 513/513
f 514/514 525/525 512/512
f 530/530 517/517 531/531
f 530/530 532/532 517/517
f 515/515 520/520 528/528
f 528/528 516/516 515/515
f 525/525 527/527 523/523
f 532/532 515/515 517/517
f 531/531 517/517 525/525
f 514/514 534/534 525/525
f 536/536 513/513 723/723
f 513/513 536/536 514/514
f 514/514 536/536 534/534
f 515/515 532/532 535/535
f 525/525 534/534 531/531
f 515/515 535/535 521/521
f 513/513 722/722 723/723
f 539/539 724/724 554/554
f 543/543 542/542 553/553
f 546/546 547/547 544/544
f 725/725 726/726 547/547
f 547/547 546/546 725/725
f 547/547 550/550 544/544
f 545/545 551/551 539/539
f 724/724 539/539 551/551
f 551/551 727/727 724/724
f 540/540 543/543 545/545
f 540/540 545/545 539/539
f 543/543 556/556 545/545
f 554/554 724/724 728/728
f 729/729 730/730 731/731
f 732/732 729/729 731/731
f 733/733 734/734 731/731
f 735/735 736/736 737/737
f 734/734 738/738 731/731
f 557/557 732/732 731/731
f 544/544 550/550 558/558
f 543/543 553/553 556/556
f 738/738 557/557 731/731
f 560/560 559/559 739/739
f 740/740 732/732 557/557
f 559/559 561/561 739/739
f 741/741 553/553 742/742
f 553/553 741/741 556/556
f 739/739 743/743 560/560
f 739/739 561/561 744/744
f 553/553 558/558 745/745
f 745/745 742/742 553/553
f 544/544 746/746 562/562
f 542/542 562/562 553/553
f 562/562 746/746 553/553
f 563/563 564/564 590/590
f 565/565 563/563 566/566
f 564/564 563/563 565/565
f 567/567 568/568 569/569
f 565/565 566/566 569/569
f 569/569 566/566 567/567
f 570/570 568/568 567/567
f 571/571 563/563 590/590
f 568/568 747/747 748/748
f 590/590 572/572 571/571
f 564/564 589/589 590/590
f 748/748 569/569 568/568
f 749/749 747/747 568/568
f 573/573 750/750 751/751
f 568/568 570/570 749/749
f 574/574 575/575 564/564
f 564/564 565/565 574/574
f 576/576 574/574 565/565
f 565/565 569/569 576/576
f 580/580 752/752 753/753
f 589/589 564/564 580/580
f 754/754 576/576 569/569
f 569/569 748/748 754/754
f 577/577 578/578 575/575
f 575/575 574/574 577/577
f 579/579 577/577 574/574
f 574/574 576/576 579/579
f 581/581 755/755 752/752
f 752/752 580/580 581/581
f 756/756 579/579 576/576
f 576/576 754/754 756/756
f 578/578 577/577 757/757
f 577/577 579/579 757/757
f 755/755 581/581 757/757
f 579/579 756/756 757/757
f 575/575 580/580 564/564
f 580/580 575/575 578/578
f 578/578 581/581 580/580
f 581/581 578/578 757/757
f 582/582 566/566 563/563
f 566/566 582/582 583/583
f 583/583 567/567 566/566
f 567/567 583/583 584/584
f 584/584 570/570 567/567
f 570/570 584/584 585/585
f 586/586 563/563 571/571
f 563/563 586/586 582/582
f 587/587 571/571 572/572
f 571/571 587/587 586/586
f 758/758 573/573 751/751
f 573/573 758/758 588/588
f 585/585 749/749 570/570
f 749/749 585/585 759/759
f 588/588 572/572 573/573
f 572/572 588/588 587/587
f 753/753 589/589 580/580
f 753/753 750/750 589/589
f 589/589 750/750 590/590
f 590/590 750/750 573/573
f 572/572 590/590 573/573
f 373/373 374/374 321/321
f 373/373 591/591 374/374
f 373/373 323/323 591/591
f 591/591 320/320 374/374
f 325/325 320/320 591/591
f 374/374 668/668 322/322
f 592/592 320/320 326/326
f 374/374 592/592 668/668
f 374/374 320/320 592/592
f 592/592 671/671 668/668
f 760/760 666/666 593/593
f 389/389 761/761 715/715
f 761/761 389/389 701/701
f 398/398 703/703 390/390
f 703/703 398/398 762/762
f 400/400 596/596 397/397
f 596/596 400/400 597/597
f 713/713 403/403 595/595
f 702/702 392/392 394/394
f 392/392 702/702 395/395
f 433/433 412/412 434/434
f 412/412 433/433 411/411
f 434/434 598/598 435/435
f 412/412 598/598 434/434
f 704/704 598/598 391/391
f 600/600 524/524 533/533
f 524/524 600/600 599/599
f 721/721 602/602 763/763
f 602/602 721/721 601/601
f 599/599 211/211 524/524
f 513/513 601/601 721/721
f 222/222 603/603 217/217
f 603/603 222/222 604/604
f 605/605 528/528 520/520
f 528/528 605/605 606/606
f 519/519 603/603 522/522
f 605/605 718/718 719/719
f 1/1 4/4 5/5
f 7/7 6/6 8/8
f 10/10 9/9 3/3
f 3/3 4/4 7/7
f 1/1 6/6 2/2
f 6/6 1/1 13/13
f 14/14 11/11 15/15
f 10/10 5/5 8/8
f 5/5 10/10 14/14
f 9/9 10/10 13/13
f 9/9 14/14 12/12
f 13/13 11/11 15/15
