# MOD converted: e_w_leathearmor018.mod
# 660 verts, 758 faces

v 96.405388 -0.766623 7.516099
v 96.714981 4.846416 12.897601
v 84.560593 -0.715818 -0.000000
v 86.166199 8.485862 5.100181
v 89.665199 -9.081161 10.173702
v 90.267517 -0.895705 7.360450
v 90.654503 4.415300 9.139211
v 89.931999 -5.578330 4.911953
v 114.166000 -0.780684 -0.000000
v 116.894188 6.252838 8.773780
v 113.229500 -0.287358 7.474738
v 113.097572 7.712219 6.223100
v 103.535187 9.211806 11.502801
v 103.420715 -0.470636 6.859149
v 109.074127 9.900720 10.387200
v 103.504326 7.055586 10.679099
v 109.347534 -2.919838 11.810699
v 112.845207 8.013979 8.652481
v 114.819847 4.068501 10.821501
v 108.980934 9.266367 12.433300
v 113.166779 -0.664279 12.825498
v 114.360428 3.977594 5.607612
v 111.202362 -4.472675 0.000000
v 111.905304 8.965495 5.705033
v 116.356201 -1.750132 4.590861
v 113.956909 -4.766251 6.064552
v 118.290863 4.132556 7.583927
v 115.113655 -1.006817 7.678754
v 116.782196 4.261029 7.159808
v 115.989799 6.942749 5.596812
v 89.698135 -9.715379 6.964721
v 83.309525 -9.354091 9.066317
v 80.297012 12.250936 8.350565
v 85.673294 7.161846 14.825653
v 80.348892 7.532286 17.550493
v 79.498085 -0.072510 1.283611
v 80.612450 13.900168 14.919503
v 78.206268 -7.584004 11.505904
v 83.841293 -5.783062 8.262520
v 76.891602 -10.195188 11.531290
v 75.691284 -9.570014 5.325520
v 79.634583 13.425818 16.710840
v 78.500244 4.126983 17.065889
v 77.153244 -3.838874 12.253311
v 79.406319 10.427733 7.402313
v 76.891602 -9.107742 -10.131199
v 96.405388 -0.766622 -4.914295
v 95.766083 -10.016017 -7.516099
v 96.714981 4.846413 -12.897601
v 84.560593 -0.715817 -0.000000
v 97.153694 6.958273 -5.100183
v 89.665199 -9.081157 -10.173702
v 90.267517 -0.895706 -7.360451
v 90.654503 4.415300 -0.000000
v 90.803299 5.818110 -9.139211
v 89.931999 -5.578331 -4.911951
v 114.166000 -0.780686 -8.773780
v 113.236351 -0.279982 -7.474739
v 113.086906 7.718687 -11.889297
v 102.046288 -7.798164 -6.223097
v 103.535187 9.211804 -11.502800
v 103.424599 -0.476937 -6.859150
v 109.068420 9.899915 -10.387200
v 103.499413 7.049145 -10.679092
v 109.355843 -2.919701 -11.810698
v 112.833900 8.021978 -8.652481
v 114.817154 4.079119 -10.821500
v 108.971947 9.266060 -12.433300
v 113.174416 -0.655300 -12.825495
v 114.357925 3.989227 -5.607609
v 111.204498 -4.472459 -11.256200
v 98.392982 -7.143512 -0.000001
v 105.083656 9.238216 -10.209299
v 106.596771 -6.772576 -5.705029
v 116.356201 -1.750133 0.000000
v 114.691910 -4.678791 -0.000000
v 112.252571 -6.525192 -4.590862
v 113.956909 -4.766252 -6.064551
v 118.290863 4.132556 -7.583929
v 115.122078 -0.996090 -7.678757
v 116.779076 4.275261 -0.000001
v 118.047569 7.423235 -7.159808
v 115.980804 6.955080 -5.596809
v 89.698135 -9.715380 -6.964723
v 83.309525 -9.354092 -9.066318
v 80.297012 12.250937 -8.350565
v 85.673294 7.161845 -14.825651
v 80.348892 7.532283 -17.550493
v 79.498085 -0.072516 -1.283611
v 80.612450 13.900168 -14.919503
v 78.206268 -7.584005 -11.505904
v 83.841293 -5.783060 -8.440243
v 76.966187 -10.515807 -11.612858
v 75.725517 -9.717164 -5.325521
v 79.634583 13.425818 -16.710840
v 78.500244 4.126986 -17.065889
v 77.153244 -3.838879 -12.253311
v 79.406319 10.427732 -7.402309
v 76.891602 -9.107741 4.593372
v 97.756027 -12.958938 9.093270
v 97.869125 -11.505607 4.410780
v 101.345535 -14.049108 9.170402
v 101.450104 -12.561195 4.508069
v 105.170525 -12.290721 8.871487
v 104.868500 -10.954595 0.000000
v 100.370018 -12.927844 -4.593369
v 97.756027 -12.958939 -9.093270
v 97.869125 -11.505609 -4.410779
v 101.345535 -14.049107 -9.170402
v 101.450104 -12.561196 -4.508068
v 105.170525 -12.290720 0.000000
v 104.041107 -11.798176 -8.871488
v 104.868500 -10.954597 9.020879
v 95.961090 -6.317969 11.889299
v 102.046288 -7.798165 -0.000000
v 108.884361 -7.024356 11.256201
v 98.392982 -7.143511 10.209300
v 106.593704 -6.771738 -9.020879
v 95.961090 -6.317970 13.762188
v 108.594604 8.877687 12.935005
v 104.139381 -0.001982 13.816200
v 109.097755 -1.949057 15.962101
v 112.766945 0.393025 -12.558401
v 104.148155 6.780475 -13.762197
v 108.587646 8.877754 -12.935005
v 104.144890 -0.010430 -16.319096
v 112.936241 6.191671 12.558403
v 104.155807 6.789066 16.319098
v 112.940102 6.186187 -13.816199
v 109.103310 -1.948424 -15.962100
v 112.769775 0.398229 -0.000000
v 113.184219 -3.294353 5.190432
v 116.123787 3.936415 -5.190432
v 116.123787 3.936415 0.000000
v 82.706001 -10.198396 0.000000
v 96.882294 -11.254029 0.000000
v 89.524597 -10.437298 4.914299
v 95.766083 -10.016021 -6.468089
v 83.276604 -8.719872 6.468091
v 83.276604 -8.719872 -0.000001
v 115.387909 9.372987 16.340000
v 101.214714 6.006844 16.522184
v 101.417595 -0.136688 23.034517
v 110.911606 -0.454052 16.719723
v 107.861458 2.895957 20.129740
v 106.360077 8.699182 20.238035
v 106.342087 -2.638238 23.184149
v 111.122757 5.898732 23.517681
v 108.301208 -2.392942 19.595013
v 102.715103 -2.065509 24.898064
v 111.359680 2.838171 22.677649
v 108.371040 8.234667 19.448746
v 102.486542 7.734100 17.022566
v 100.188332 2.721729 -16.340000
v 101.214729 6.006874 -16.522184
v 101.417580 -0.136660 -23.034517
v 110.911591 -0.454083 -16.719721
v 107.861443 2.895958 -20.129742
v 106.360115 8.699180 -20.238035
v 106.342056 -2.638241 -23.184151
v 111.122772 5.898701 -13.762192
v 108.592285 8.877708 -12.935004
v 104.141220 -0.004801 -13.816200
v 109.099609 -1.948847 -15.962098
v 112.767891 0.394760 -12.558403
v 104.153259 6.786205 -16.319099
v 112.938812 6.188015 -23.517679
v 108.301178 -2.392960 -19.595013
v 102.715073 -2.065492 -24.898064
v 111.359680 2.838135 -22.677650
v 108.371071 8.234650 -19.448746
v 102.486572 7.734120 -17.022568
v 100.188332 2.721761 42.422783
v 92.722610 4.653470 44.161438
v 96.528229 6.713494 42.148598
v 92.630402 -0.150553 45.711197
v 100.089790 5.049095 43.801407
v 96.407471 -2.744951 45.439194
v 100.274803 -0.862274 12.605426
v 104.281616 6.692942 13.775262
v 108.595215 8.722655 12.971408
v 104.265656 0.093439 13.827744
v 109.084167 -1.798707 16.260046
v 112.818138 6.107073 15.913116
v 112.649872 0.477315 25.125797
v 104.403870 7.692625 24.460503
v 99.795624 5.475972 26.145098
v 103.985107 -1.641803 24.610502
v 99.962677 0.417825 27.583099
v 107.836098 0.156482 27.706295
v 108.009903 5.386918 26.764601
v 98.904297 5.101945 29.858601
v 107.095001 5.375554 29.287203
v 102.676956 7.497857 27.341410
v 103.581932 7.714563 29.779797
v 106.893059 0.096007 28.372786
v 103.041008 -1.741729 26.838099
v 99.018311 0.370673 32.524994
v 96.145599 -0.085628 34.407761
v 100.472954 -2.636760 36.231079
v 104.628998 -0.597530 36.379417
v 104.691002 5.539112 34.426521
v 100.632004 7.766857 32.386612
v 96.187698 5.196588 37.772572
v 94.328140 4.905122 39.680721
v 98.420174 7.198405 39.591667
v 98.229202 -2.696461 37.732990
v 94.243286 -0.120761 41.441071
v 102.195251 5.273319 41.429642
v 102.170776 -0.746998 -42.422783
v 92.722610 4.653468 -44.161438
v 96.528229 6.713495 -42.148598
v 92.630402 -0.150554 -45.711197
v 100.089798 5.049097 -43.801407
v 96.407471 -2.744951 -45.439194
v 100.274803 -0.862273 -12.605426
v 104.279137 6.690163 -13.775260
v 108.592949 8.722678 -12.971408
v 104.267426 0.090703 -13.827744
v 109.085960 -1.798500 -16.260046
v 112.816872 6.108852 -15.913116
v 112.650780 0.479002 -25.125797
v 104.403885 7.692623 -24.460503
v 99.795639 5.475988 -26.145100
v 103.985092 -1.641805 -24.610500
v 99.962654 0.417840 -27.583099
v 107.836075 0.156464 -27.706295
v 108.009918 5.386899 -26.764601
v 98.904297 5.101946 -29.858601
v 107.095001 5.375552 -29.287203
v 102.676956 7.497858 -27.341408
v 103.581947 7.714562 -29.779799
v 106.893044 0.096004 -28.372791
v 103.041008 -1.741729 -26.838099
v 99.018311 0.370676 -32.524994
v 96.145599 -0.085632 -34.407768
v 100.472969 -2.636760 -36.231083
v 104.628998 -0.597526 -36.379410
v 104.691002 5.539115 -34.426521
v 100.632004 7.766858 -32.386612
v 96.187698 5.196583 -37.772572
v 94.328140 4.905119 -39.680717
v 98.420174 7.198405 -39.591675
v 98.229202 -2.696461 -37.732994
v 94.243286 -0.120765 -41.441071
v 102.195251 5.273322 -41.429642
v 102.170776 -0.746995 12.973304
v 78.093903 -6.753156 12.159424
v 80.045502 6.445291 15.073001
v 79.179298 -0.286819 0.000000
v 75.876900 -8.470738 0.000000
v 73.907799 11.812493 17.270399
v 73.014008 0.138613 14.195200
v 72.966904 -7.759288 9.398399
v 74.447098 11.257291 14.356300
v 74.059303 5.618499 1.167065
v 70.646599 0.660651 2.137344
v 71.561203 -5.864996 10.455596
v 70.001793 9.866779 2.797575
v 69.710510 9.602160 0.000000
v 71.171677 -5.939038 0.000000
v 70.360901 0.610698 -0.000000
v 70.636642 7.044329 19.347670
v 66.119019 1.833748 8.209991
v 72.508202 -9.474010 8.270957
v 85.673294 6.854033 12.199278
v 84.560593 -0.715815 8.164227
v 80.670319 10.421903 -0.000000
v 80.719711 11.416306 10.807580
v 83.841293 -5.783062 8.855509
v 71.600632 -0.234581 16.966953
v 65.828552 -7.759738 9.737083
v 64.944199 -11.029035 3.472775
v 64.177292 10.563395 13.007776
v 65.344261 10.399277 0.543890
v 63.817524 1.393118 2.210983
v 64.022995 -7.409518 18.134048
v 70.147339 0.226114 19.168495
v 66.027390 -1.510477 9.189460
v 20.484213 -4.618873 8.996699
v 20.483408 8.895572 19.047203
v 20.485802 4.294413 6.671240
v 20.483200 3.588789 17.271500
v 20.485109 -4.281381 15.818407
v 20.485001 9.062570 17.339802
v 60.885468 1.740325 9.634030
v 60.585098 -8.788692 3.599483
v 60.123795 -5.908004 5.554134
v 48.629498 -5.419728 4.895458
v 44.634899 1.578636 7.014109
v 45.823803 7.658530 12.921600
v 46.202698 7.492739 15.246092
v 49.652096 -4.881310 16.873400
v 45.863098 2.165924 10.970899
v 45.770500 -7.273841 6.143130
v 45.318398 -4.985740 15.306400
v 46.417301 -4.494491 11.302199
v 42.378899 -6.217441 15.638998
v 43.370201 -3.694329 6.830048
v 42.601891 -4.381608 18.503410
v 35.618698 3.077830 14.372302
v 35.918503 9.240405 7.779893
v 35.585098 9.489620 4.990849
v 34.116600 2.656082 10.569799
v 49.151699 -7.550950 16.702101
v 48.443192 2.114955 12.697800
v 48.166504 7.455450 6.914860
v 47.551697 7.601020 4.512318
v 47.441299 1.563490 16.880642
v 72.958389 0.148234 13.947343
v 72.913452 -7.385170 14.101009
v 73.955444 5.375328 1.520363
v 70.700226 0.646252 2.445871
v 71.572617 -5.578289 2.262647
v 59.748993 1.097794 10.380298
v 70.085159 9.427579 15.430996
v 60.917095 -6.186741 4.611195
v 60.173401 8.396196 12.256500
v 60.735001 8.265580 3.075636
v 69.807312 9.175171 8.238306
v 72.475914 -9.020771 -12.973302
v 78.093903 -6.753155 -12.159424
v 80.045502 6.445298 -15.073001
v 79.179298 -0.286815 -17.270397
v 73.014008 0.138618 -14.195200
v 72.966904 -7.759281 -9.398400
v 74.447098 11.257297 -14.356300
v 74.059303 5.618505 -1.167065
v 70.646599 0.660658 -2.137344
v 71.561203 -5.864994 -10.455600
v 70.001793 9.866784 -2.797576
v 69.710503 9.602163 -19.347670
v 66.119019 1.833762 -8.209991
v 72.508202 -9.474010 -8.270957
v 85.673294 6.854041 -12.199277
v 84.560593 -0.715814 -8.164227
v 80.670319 10.421907 -10.807581
v 83.841293 -5.783053 -8.912729
v 71.541023 -0.234565 -16.966953
v 65.828552 -7.759734 -9.737083
v 64.944199 -11.029036 -3.472774
v 64.177292 10.563398 -13.007776
v 65.344261 10.399279 -0.543889
v 63.817497 1.393131 -2.210985
v 64.022995 -7.409513 -18.134047
v 70.147339 0.226186 -19.168489
v 66.027390 -1.510482 -9.189461
v 20.484209 -4.618872 -8.996699
v 20.483406 8.895572 -19.047203
v 20.485802 4.294416 -6.671240
v 20.483202 3.588791 -17.271503
v 20.485102 -4.281382 -15.818407
v 20.485001 9.062570 -17.339800
v 60.885487 1.740328 -9.634029
v 60.585075 -8.788695 -3.599488
v 60.123795 -5.908009 -5.554137
v 48.629498 -5.419729 -4.895459
v 44.634899 1.578637 -7.014109
v 45.823803 7.658530 -12.921600
v 46.202698 7.492739 -15.246094
v 49.652096 -4.881308 -16.873400
v 45.863098 2.165929 -10.970900
v 45.770500 -7.273840 -6.143130
v 45.318398 -4.985741 -15.306402
v 46.417297 -4.494490 -11.302199
v 42.378899 -6.217442 -15.638993
v 43.370201 -3.694331 -6.830048
v 42.601891 -4.381611 -18.503405
v 35.618698 3.077837 -14.372300
v 35.918503 9.240402 -7.779897
v 35.585098 9.489620 -4.990850
v 34.116600 2.656093 -10.569801
v 49.151684 -7.550950 -16.702101
v 48.443192 2.114959 -12.697800
v 48.166504 7.455450 -6.914860
v 47.551697 7.601021 -4.512318
v 47.441299 1.563496 -16.880642
v 72.958389 0.148341 -13.947344
v 72.913452 -7.385169 -14.101009
v 73.955444 5.375329 -1.520363
v 70.700226 0.646252 -2.445870
v 71.572617 -5.578289 -2.262649
v 59.748993 1.097802 -10.380298
v 70.085159 9.427579 -15.430996
v 60.917099 -6.186739 -4.611198
v 60.173401 8.396195 -12.256500
v 60.734993 8.265577 -3.075636
v 69.807312 9.175171 -8.238308
v 72.475914 -9.020773 5.009029
v 122.611458 2.854043 4.507283
v 120.603455 -1.682560 -0.000001
v 123.522461 5.340426 0.000002
v 119.354454 -4.180035 -5.009033
v 122.611458 2.854041 -4.507280
v 120.603455 -1.682561 -4.709616
v 117.384727 -1.231624 0.000000
v 116.269333 -3.737194 4.709616
v 117.384727 -1.231622 5.099729
v 119.367622 3.395231 -0.000002
v 120.208328 5.796630 -5.099732
v 119.367622 3.395227 5.303832
v 118.035637 -1.820047 5.674821
v 120.119202 3.517399 -5.303832
v 118.035637 -1.820045 0.000003
v 116.863663 -4.642745 -5.674822
v 120.119202 3.517398 -0.000001
v 121.003998 6.312268 5.701714
v 111.996742 9.880236 2.975380
v 115.648376 8.348426 0.826559
v 111.603638 10.973475 5.831262
v 107.871849 11.076893 0.896625
v 107.094200 12.105133 4.280346
v 104.015800 11.451565 -0.747914
v 101.332077 12.618778 -5.736775
v 111.981354 9.883796 -2.975382
v 115.648376 8.348426 -1.327603
v 111.603638 10.973475 -1.572022
v 104.878815 12.361957 -5.545614
v 108.551666 11.261462 16.852560
v 74.361221 6.924632 19.450066
v 69.491402 -0.619560 16.794462
v 69.811119 6.620989 7.550601
v 72.407112 -12.757326 15.852046
v 70.297714 -8.206174 15.572824
v 74.852386 -8.807699 8.309145
v 76.924736 -11.611288 19.691509
v 74.050415 -0.709176 11.121202
v 71.018341 12.136189 10.769623
v 75.355499 11.770896 0.268216
v 76.043526 -13.264924 1.892790
v 80.383759 -11.988282 -2.497048
v 78.384117 -11.978274 -0.236615
v 82.372452 -11.270841 -0.119404
v 73.108116 13.582351 -0.122171
v 77.459320 13.165246 -10.354488
v 74.745743 12.136195 -9.246900
v 78.967171 11.824186 -15.764380
v 75.614212 5.647211 -14.767989
v 80.086845 5.191617 -17.586224
v 75.869705 -0.992754 -15.933803
v 80.206757 -1.132974 -14.316360
v 75.108604 -8.024979 -12.831647
v 79.561859 -6.910131 -7.775657
v 76.105331 -10.429979 -8.642816
v 79.703995 -8.738507 -1.594556
v 81.782188 -11.702228 -2.478798
v 80.690323 -11.980209 -7.763162
v 78.856812 -9.539215 -7.477647
v 77.617470 -10.120897 -3.965001
v 84.891708 -8.336314 -5.355462
v 85.928757 -8.008377 -5.387357
v 85.371925 -8.833799 -4.412672
v 85.184792 -9.175967 10.131199
v 96.405388 -0.766623 7.516099
v 96.714981 4.846416 -0.000000
v 97.153694 6.958273 11.502801
v 103.420715 -0.470636 12.935005
v 104.139381 -0.001982 10.131199
v 96.405388 -0.766623 6.064552
v 118.290863 4.132556 7.678754
v 116.782196 4.261029 9.020879
v 95.961090 -6.317969 0.000000
v 114.691910 -4.678791 5.705033
v 116.356201 -1.750132 5.607612
v 111.202362 -4.472675 8.773780
v 113.229500 -0.287358 8.652481
v 114.819847 4.068501 -0.000000
v 90.803299 5.818110 -0.000000
v 97.153694 6.958273 -0.000000
v 86.166199 8.485862 -0.000001
v 105.083656 9.238216 -10.131199
v 96.405388 -0.766622 -7.516099
v 96.714981 4.846413 -0.000000
v 97.153694 6.958273 -11.502800
v 103.424599 -0.476937 -12.935005
v 104.144890 -0.010430 -10.131199
v 96.405388 -0.766622 0.000000
v 111.905304 8.965495 -0.000001
v 118.047569 7.423235 -0.000001
v 115.387909 9.372987 0.000000
v 114.691910 -4.678791 -0.000000
v 112.252571 -6.525192 -9.020879
v 95.961090 -6.317970 -0.000000
v 113.184219 -3.294353 -0.000000
v 108.884361 -7.024356 -0.000000
v 116.894188 6.252838 4.914299
v 95.766083 -10.016021 5.607612
v 111.202362 -4.472675 -0.000000
v 108.884361 -7.024356 11.889299
v 102.046288 -7.798165 11.256201
v 98.392982 -7.143511 9.020879
v 95.961090 -6.317969 10.209300
v 106.593704 -6.771738 -4.914295
v 95.766083 -10.016017 -5.607609
v 111.204498 -4.472459 -11.889297
v 102.046288 -7.798164 -11.256200
v 98.392982 -7.143512 -9.020879
v 95.961090 -6.317970 -10.209299
v 106.596771 -6.772576 6.468091
v 83.276604 -8.719872 0.000000
v 89.524597 -10.437298 4.914299
v 95.766083 -10.016021 5.100181
v 89.665199 -9.081161 5.100181
v 89.665199 -9.081161 0.000000
v 96.882294 -11.254029 -6.468089
v 83.276604 -8.719872 0.000000
v 89.524597 -10.437298 -5.100183
v 89.665199 -9.081157 -4.914295
v 95.766083 -10.016017 -5.100183
v 89.665199 -9.081157 0.000000
v 96.882294 -11.254029 12.558403
v 104.155807 6.789066 12.935005
v 104.139381 -0.001982 15.962101
v 112.766945 0.393025 13.816200
v 109.097755 -1.949057 13.762188
v 108.594604 8.877687 16.319098
v 112.940102 6.186187 19.448746
v 102.486542 7.734100 20.129740
v 106.360077 8.699182 16.340000
v 101.214714 6.006844 17.022566
v 100.188332 2.721729 16.522184
v 101.417595 -0.136688 23.517681
v 108.301208 -2.392942 20.238035
v 106.342087 -2.638238 23.034517
v 110.911606 -0.454052 19.595013
v 102.715103 -2.065509 22.677649
v 108.371040 8.234667 23.184149
v 111.122757 5.898732 24.898064
v 111.359680 2.838171 12.558403
v 104.155807 6.789066 16.340000
v 101.214714 6.006844 -19.448746
v 102.486572 7.734120 -16.340000
v 101.214729 6.006874 -20.129742
v 106.360115 8.699180 -17.022568
v 100.188332 2.721761 -16.522184
v 101.417580 -0.136660 -23.517679
v 108.301178 -2.392960 -23.034517
v 110.911591 -0.454083 -20.238035
v 106.342056 -2.638241 -19.595013
v 102.715073 -2.065492 -22.677650
v 108.371071 8.234650 -23.184151
v 111.122772 5.898701 -24.898064
v 111.359680 2.838135 -12.558403
v 104.153259 6.786205 -16.340000
v 101.214729 6.006874 24.460503
v 99.795624 5.475972 12.605426
v 104.281616 6.692942 26.764601
v 98.904297 5.101945 37.772572
v 94.328140 4.905122 32.386612
v 96.187698 5.196588 42.422783
v 92.722610 4.653470 -12.605426
v 104.279137 6.690163 -24.460503
v 99.795639 5.475988 -26.764601
v 98.904297 5.101946 -37.772572
v 94.328140 4.905119 -32.386612
v 96.187698 5.196583 -42.422783
v 92.722610 4.653468 6.468091
v 83.276604 -8.719872 7.402313
v 76.891602 -9.107742 0.000000
v 82.706001 -10.198396 6.468091
v 83.276604 -8.719872 7.402313
v 76.891602 -9.107742 1.167065
v 70.646599 0.660651 0.000000
v 70.360901 0.610698 12.973304
v 78.093903 -6.753156 0.543890
v 63.817524 1.393118 -0.000000
v 86.166199 8.485862 6.468091
v 83.276604 -8.719872 16.966953
v 65.828552 -7.759738 9.737083
v 64.944199 -11.029035 2.210983
v 64.022995 -7.409518 0.543890
v 63.817524 1.393118 3.472775
v 64.177292 10.563395 13.007776
v 65.344261 10.399277 19.347670
v 66.119019 1.833748 19.168495
v 66.027390 -1.510477 18.134048
v 70.147339 0.226114 4.512318
v 47.441299 1.563490 4.895458
v 44.634899 1.578636 4.990849
v 34.116600 2.656082 6.671240
v 20.483200 3.588789 2.262647
v 59.748993 1.097794 15.430996
v 60.917095 -6.186741 17.339802
v 60.885468 1.740325 9.634030
v 60.585098 -8.788692 4.611195
v 60.173401 8.396196 12.256500
v 60.735001 8.265580 3.599483
v 60.123795 -5.908004 2.262647
v 59.748993 1.097794 2.262647
v 59.748993 1.097794 1.520363
v 70.700226 0.646252 -6.468089
v 83.276604 -8.719872 -7.402309
v 76.891602 -9.107741 0.000000
v 82.706001 -10.198396 -7.402309
v 76.891602 -9.107741 -6.468089
v 83.276604 -8.719872 0.000000
v 70.360901 0.610698 -0.000000
v 70.636642 7.044329 0.000000
v 73.907799 11.812493 0.000000
v 75.876900 -8.470738 0.000000
v 71.171677 -5.939038 -1.167065
v 70.646599 0.660658 0.000000
v 70.360901 0.610698 -0.000000
v 80.719711 11.416306 -12.973302
v 78.093903 -6.753155 -0.543889
v 63.817497 1.393131 -0.000000
v 86.166199 8.485862 -6.468089
v 83.276604 -8.719872 -16.966953
v 65.828552 -7.759734 -9.737083
v 64.944199 -11.029036 -2.210985
v 64.022995 -7.409513 -0.543889
v 63.817497 1.393131 -3.472774
v 64.177292 10.563398 -13.007776
v 65.344261 10.399279 -19.347670
v 66.119019 1.833762 -19.168489
v 66.027390 -1.510482 -18.134047
v 70.147339 0.226186 -4.512318
v 47.441299 1.563496 -4.895459
v 44.634899 1.578637 -4.990850
v 34.116600 2.656093 -6.671240
v 20.483202 3.588791 -2.262649
v 59.748993 1.097802 -15.430996
v 60.917099 -6.186739 -17.339800
v 60.885487 1.740328 -9.634029
v 60.585075 -8.788695 -4.611198
v 60.173401 8.396195 -12.256500
v 60.734993 8.265577 -2.262649
v 59.748993 1.097802 -3.599488
v 60.123795 -5.908009 -2.262649
v 59.748993 1.097802 -1.520363
v 70.700226 0.646252 0.000002
v 119.354454 -4.180035 0.000000
v 116.269333 -3.737194 -0.000002
v 120.208328 5.796630 -0.000001
v 123.522461 5.340426 5.190432
v 116.123787 3.936415 4.911953
v 114.166000 -0.780684 -0.000000
v 116.894188 6.252838 -0.000000
v 113.184219 -3.294353 4.709616
v 117.384727 -1.231622 0.000000
v 116.269333 -3.737194 5.099729
v 119.367622 3.395231 -0.000002
v 120.208328 5.796630 -5.190432
v 116.123787 3.936415 -4.911951
v 114.166000 -0.780686 -0.000000
v 116.894188 6.252838 -0.000001
v 121.003998 6.312268 0.000003
v 116.863663 -4.642745 -0.000000
v 113.184219 -3.294353 -4.709616
v 117.384727 -1.231624 0.000000
v 116.269333 -3.737194 -5.099732
v 119.367622 3.395227 -0.000002
v 120.208328 5.796630 -0.000001
v 115.387909 9.372987 -0.000001
v 115.387909 9.372987 19.691509
v 74.050415 -0.709176 19.450066
v 69.491402 -0.619560 -15.933803
v 80.206757 -1.132974 -17.586224
v 75.869705 -0.992754 -14.316360
v 75.108604 -8.024979 0.179969

vt 0.266667 0.752196
vt 0.284715 0.819231
vt 0.104989 0.613346
vt 0.190797 0.963795
vt 0.209986 0.815142
vt 0.188447 0.733079
vt 0.206840 0.880166
vt 0.190007 0.598298
vt 0.650277 0.510767
vt 0.727625 0.556692
vt 0.556918 0.448533
vt 0.624447 0.327406
vt 0.656617 0.234199
vt 0.545787 0.391017
vt 0.640054 0.309204
vt 0.600569 0.588225
vt 0.489955 0.435799
vt 0.574619 0.502325
vt 0.593553 0.385716
vt 0.593456 0.532160
vt 0.516178 0.481406
vt 0.545681 0.626247
vt 0.559079 0.431138
vt 0.717387 0.060223
vt 0.600664 0.035261
vt 0.635597 0.523009
vt 0.648734 0.034521
vt 0.582765 0.512336
vt 0.622530 0.482058
vt 0.635985 0.951186
vt 0.206414 0.965286
vt 0.129965 0.647941
vt 0.057509 0.704459
vt 0.133352 0.726113
vt 0.033429 0.815716
vt 0.018512 0.566926
vt 0.104563 0.905803
vt 0.025007 0.889344
vt 0.109078 0.984949
vt 0.051097 0.959166
vt 0.021041 0.604796
vt 0.071729 0.767559
vt 0.010019 0.862311
vt 0.001735 0.683512
vt 0.034480 0.997039
vt 0.056705 0.820031
vt 0.266667 0.943433
vt 0.280768 0.752196
vt 0.284715 0.819231
vt 0.104989 0.663008
vt 0.319849 0.963795
vt 0.209986 0.815142
vt 0.188447 0.733079
vt 0.206840 0.642712
vt 0.243794 0.880166
vt 0.190007 0.598298
vt 0.650277 0.556692
vt 0.556918 0.448533
vt 0.624447 0.679545
vt 0.424975 0.327406
vt 0.656617 0.234199
vt 0.545787 0.391017
vt 0.640054 0.309204
vt 0.600569 0.588225
vt 0.489955 0.435799
vt 0.574619 0.502325
vt 0.593553 0.385716
vt 0.593456 0.532160
vt 0.516178 0.481406
vt 0.545681 0.626247
vt 0.559079 0.710216
vt 0.395925 0.354071
vt 0.728135 0.646193
vt 0.473709 0.587917
vt 0.620114 0.068361
vt 0.675940 0.046304
vt 0.691882 0.625488
vt 0.595200 0.523009
vt 0.648734 0.570075
vt 0.592487 0.512336
vt 0.622530 0.494121
vt 0.724286 0.482058
vt 0.635985 0.951186
vt 0.206414 0.965286
vt 0.129965 0.647941
vt 0.057509 0.704459
vt 0.133352 0.726113
vt 0.033429 0.815716
vt 0.018512 0.566926
vt 0.104563 0.905803
vt 0.025007 0.889344
vt 0.109078 0.984949
vt 0.051097 0.959166
vt 0.021041 0.604796
vt 0.071729 0.767559
vt 0.010019 0.862311
vt 0.001735 0.683512
vt 0.034480 0.997039
vt 0.056705 0.953187
vt 0.432095 0.941335
vt 0.380609 0.910671
vt 0.437413 0.903054
vt 0.382898 0.862666
vt 0.436731 0.861902
vt 0.381940 0.928436
vt 0.488246 0.959550
vt 0.544170 0.951653
vt 0.599913 0.917791
vt 0.540737 0.915882
vt 0.595399 0.868891
vt 0.544281 0.873539
vt 0.491256 0.874978
vt 0.595032 0.880875
vt 0.267043 0.679545
vt 0.424975 0.026903
vt 0.709340 0.710216
vt 0.395925 0.646193
vt 0.473709 0.880875
vt 0.267043 0.380072
vt 0.558932 0.247448
vt 0.532309 0.552988
vt 0.460717 0.497921
vt 0.487284 0.319502
vt 0.571239 0.380072
vt 0.558932 0.247448
vt 0.532309 0.435738
vt 0.518626 0.319502
vt 0.571239 0.435738
vt 0.518626 0.552988
vt 0.460717 0.497921
vt 0.487284 0.663988
vt 0.652059 0.544231
vt 0.669783 0.544231
vt 0.669783 0.155265
vt 0.657667 0.981370
vt 0.489739 0.140424
vt 0.735689 0.943433
vt 0.280768 0.977388
vt 0.133049 0.977388
vt 0.133049 0.461623
vt 0.722476 0.555797
vt 0.420252 0.537141
vt 0.069754 0.577601
vt 0.203487 0.705769
vt 0.506676 0.581507
vt 0.344591 0.563473
vt 0.139532 0.581304
vt 0.276319 0.585387
vt 0.172356 0.554897
vt 0.098459 0.591432
vt 0.240226 0.597583
vt 0.311399 0.575061
vt 0.386111 0.541888
vt 0.032795 0.555797
vt 0.420252 0.537141
vt 0.069754 0.577601
vt 0.203487 0.705769
vt 0.506676 0.581507
vt 0.344591 0.563473
vt 0.139532 0.581304
vt 0.276319 0.503187
vt 0.344638 0.490354
vt 0.093239 0.484071
vt 0.158046 0.492941
vt 0.214003 0.513500
vt 0.405160 0.499058
vt 0.281690 0.585387
vt 0.172356 0.554897
vt 0.098459 0.591432
vt 0.240226 0.597583
vt 0.311399 0.575061
vt 0.386111 0.541888
vt 0.032795 0.966500
vt 0.676932 0.921949
vt 0.676954 0.734243
vt 0.676953 0.881499
vt 0.676957 0.781068
vt 0.676953 0.824873
vt 0.676966 0.997842
vt 0.964641 0.949080
vt 0.983320 0.706463
vt 0.980640 0.770865
vt 0.998868 0.891417
vt 0.977892 0.825349
vt 0.985438 0.931663
vt 0.882292 0.981372
vt 0.868548 0.776702
vt 0.868574 0.726033
vt 0.868541 0.824756
vt 0.868598 0.880246
vt 0.868598 0.980788
vt 0.843800 0.880214
vt 0.843836 0.929469
vt 0.836441 0.929587
vt 0.858256 0.824813
vt 0.843833 0.777674
vt 0.843812 0.727719
vt 0.843794 0.729481
vt 0.776660 0.779016
vt 0.776648 0.824962
vt 0.776678 0.880975
vt 0.776758 0.927203
vt 0.776815 0.979982
vt 0.776728 0.972747
vt 0.723172 0.924368
vt 0.722928 0.780148
vt 0.721630 0.732058
vt 0.722702 0.881260
vt 0.722625 0.824912
vt 0.720384 0.966500
vt 0.676932 0.921949
vt 0.676954 0.734243
vt 0.676953 0.881499
vt 0.676957 0.781068
vt 0.676953 0.824873
vt 0.676966 0.997842
vt 0.964641 0.949080
vt 0.983320 0.706463
vt 0.980640 0.770865
vt 0.998868 0.891417
vt 0.977892 0.825349
vt 0.985438 0.931663
vt 0.882292 0.981372
vt 0.868548 0.776702
vt 0.868574 0.726033
vt 0.868541 0.824756
vt 0.868598 0.880246
vt 0.868598 0.980788
vt 0.843800 0.880214
vt 0.843836 0.929469
vt 0.836441 0.929587
vt 0.858256 0.824813
vt 0.843833 0.777674
vt 0.843812 0.727719
vt 0.843794 0.729481
vt 0.776660 0.779016
vt 0.776648 0.824962
vt 0.776678 0.880975
vt 0.776758 0.927203
vt 0.776815 0.979982
vt 0.776728 0.972747
vt 0.723172 0.924368
vt 0.722928 0.780148
vt 0.721630 0.732058
vt 0.722702 0.881260
vt 0.722625 0.824912
vt 0.720384 0.221139
vt 0.856115 0.369330
vt 0.846499 0.295712
vt 0.856277 0.049991
vt 0.821018 0.518735
vt 0.856450 0.302465
vt 0.921034 0.212674
vt 0.909260 0.436472
vt 0.894579 0.365727
vt 0.910587 0.623004
vt 0.909650 0.067472
vt 0.897655 0.441385
vt 0.943316 0.526153
vt 0.919128 0.044858
vt 0.874519 0.626121
vt 0.904119 0.562375
vt 0.890021 0.322703
vt 0.997900 0.145767
vt 0.899142 0.389350
vt 0.779622 0.297577
vt 0.792822 0.421642
vt 0.832185 0.495061
vt 0.799237 0.235478
vt 0.790838 0.769324
vt 0.326697 0.223601
vt 0.987744 0.156413
vt 0.979095 0.527953
vt 0.983196 0.429156
vt 0.997323 0.005273
vt 0.995163 0.085899
vt 0.984363 0.310879
vt 0.952992 0.741417
vt 0.329172 0.386981
vt 0.004375 0.141918
vt 0.004367 0.246158
vt 0.004323 0.458878
vt 0.004355 0.320065
vt 0.004338 0.198222
vt 0.004334 0.250027
vt 0.352090 0.370547
vt 0.355018 0.425880
vt 0.349611 0.407663
vt 0.253314 0.458800
vt 0.208681 0.135365
vt 0.216569 0.190155
vt 0.219118 0.315133
vt 0.259693 0.252697
vt 0.218897 0.359846
vt 0.229806 0.404418
vt 0.224806 0.314982
vt 0.230622 0.357932
vt 0.197877 0.311265
vt 0.202222 0.401958
vt 0.200139 0.253843
vt 0.126509 0.194062
vt 0.128236 0.141815
vt 0.128676 0.459407
vt 0.120179 0.362016
vt 0.258467 0.251044
vt 0.242990 0.188236
vt 0.237387 0.134419
vt 0.232225 0.077783
vt 0.229642 0.261858
vt 0.454818 0.319240
vt 0.458899 0.212701
vt 0.465116 0.501758
vt 0.425567 0.441687
vt 0.463079 0.482807
vt 0.335032 0.165812
vt 0.432215 0.317415
vt 0.355671 0.114531
vt 0.344928 0.179303
vt 0.350178 0.095693
vt 0.433472 0.375933
vt 0.465422 0.221139
vt 0.856115 0.369330
vt 0.846499 0.295712
vt 0.856277 0.302465
vt 0.921034 0.212674
vt 0.909260 0.436472
vt 0.894579 0.365727
vt 0.910587 0.623004
vt 0.909650 0.067472
vt 0.897655 0.441385
vt 0.943316 0.526153
vt 0.919128 0.322703
vt 0.997900 0.145767
vt 0.899142 0.389350
vt 0.779622 0.297577
vt 0.792822 0.421642
vt 0.832185 0.235478
vt 0.790838 0.769324
vt 0.326697 0.223601
vt 0.987744 0.156413
vt 0.979095 0.527953
vt 0.983196 0.429156
vt 0.997323 0.005273
vt 0.995163 0.085899
vt 0.984363 0.310879
vt 0.952992 0.741417
vt 0.329172 0.386981
vt 0.004375 0.141918
vt 0.004367 0.246158
vt 0.004323 0.458878
vt 0.004355 0.320065
vt 0.004338 0.198222
vt 0.004334 0.250027
vt 0.352090 0.370547
vt 0.355018 0.425880
vt 0.349611 0.407663
vt 0.253314 0.458800
vt 0.208681 0.135365
vt 0.216569 0.190155
vt 0.219118 0.315133
vt 0.259693 0.252697
vt 0.218897 0.359846
vt 0.229806 0.404418
vt 0.224806 0.314982
vt 0.230622 0.357932
vt 0.197877 0.311265
vt 0.202222 0.401958
vt 0.200139 0.253843
vt 0.126509 0.194062
vt 0.128236 0.141815
vt 0.128676 0.459407
vt 0.120179 0.362016
vt 0.258467 0.251044
vt 0.242990 0.188236
vt 0.237387 0.134419
vt 0.232225 0.077783
vt 0.229642 0.261858
vt 0.454818 0.319240
vt 0.458899 0.212701
vt 0.465116 0.501758
vt 0.425567 0.441687
vt 0.463079 0.482807
vt 0.335032 0.165812
vt 0.432215 0.317415
vt 0.355671 0.114531
vt 0.344928 0.179303
vt 0.350178 0.095693
vt 0.433472 0.375933
vt 0.465422 0.092766
vt 0.511191 0.142884
vt 0.531998 0.036903
vt 0.502021 0.181882
vt 0.570709 0.092766
vt 0.511191 0.142884
vt 0.531998 0.174509
vt 0.499916 0.209997
vt 0.554659 0.174509
vt 0.499916 0.111829
vt 0.471985 0.045510
vt 0.469387 0.111829
vt 0.471985 0.041668
vt 0.070740 0.041916
vt 0.128848 0.041668
vt 0.070740 0.054263
vt 0.007763 0.041916
vt 0.128848 0.050716
vt 0.195000 0.302166
vt 0.527643 0.256670
vt 0.519294 0.295856
vt 0.476380 0.346658
vt 0.534521 0.342653
vt 0.478686 0.385707
vt 0.535670 0.400161
vt 0.478935 0.302166
vt 0.527643 0.256670
vt 0.519294 0.295856
vt 0.476380 0.371407
vt 0.479779 0.366183
vt 0.535096 0.564926
vt 0.723707 0.603250
vt 0.670014 0.602014
vt 0.725340 0.618743
vt 0.747247 0.621801
vt 0.810213 0.649665
vt 0.799156 0.649520
vt 0.746559 0.569211
vt 0.669687 0.604047
vt 0.785025 0.566783
vt 0.781040 0.631899
vt 0.695855 0.662839
vt 0.700677 0.644448
vt 0.674172 0.673909
vt 0.684455 0.607714
vt 0.878666 0.570609
vt 0.874064 0.604047
vt 0.785025 0.566783
vt 0.781040 0.602014
vt 0.725340 0.564926
vt 0.723707 0.603250
vt 0.670014 0.569211
vt 0.669687 0.553468
vt 0.788728 0.523831
vt 0.784100 0.551918
vt 0.750499 0.521375
vt 0.762586 0.667681
vt 0.676457 0.659319
vt 0.672230 0.526967
vt 0.755086 0.536846
vt 0.750254 0.691076
vt 0.652196 0.689762
vt 0.642812 0.491947
vt 0.742609 0.490790
vt 0.736415 0.180199
vt 0.608668 0.231147
vt 0.656636 0.259170
vt 0.742526 0.607303
vt 0.396609 0.583046
vt 0.398772 0.686618
vt 0.325004 0.089621
vt 0.539836 0.065035
vt 0.528807 0.748585
vt 0.370977 0.666610
vt 0.631411 0.587917
vt 0.620114 0.000856
vt 0.635119 0.001111
vt 0.568844 0.037788
vt 0.518316 0.642712
vt 0.243794 0.663008
vt 0.319849 0.613346
vt 0.190797 0.354071
vt 0.728135 0.180199
vt 0.608668 0.231147
vt 0.656636 0.259170
vt 0.742526 0.607303
vt 0.396609 0.583046
vt 0.398772 0.686618
vt 0.325004 0.431138
vt 0.717387 0.494121
vt 0.724286 0.461623
vt 0.722476 0.666610
vt 0.631411 0.684147
vt 0.608850 0.748585
vt 0.370977 0.663988
vt 0.652059 0.703177
vt 0.589131 0.510767
vt 0.727625 0.991474
vt 0.419529 0.746404
vt 0.402008 0.786109
vt 0.489667 0.893465
vt 0.322265 0.949716
vt 0.325247 0.996744
vt 0.344920 0.823272
vt 0.343339 0.996727
vt 0.565330 0.753553
vt 0.575702 0.895500
vt 0.654184 0.950694
vt 0.659311 0.997470
vt 0.643564 0.831666
vt 0.629025 0.078215
vt 0.649155 0.087472
vt 0.635080 0.161608
vt 0.564827 0.154691
vt 0.646038 0.079854
vt 0.725305 0.099085
vt 0.540026 0.230059
vt 0.678038 0.087472
vt 0.635080 0.154691
vt 0.646038 0.161608
vt 0.564827 0.200576
vt 0.748269 0.099085
vt 0.540026 0.513500
vt 0.405160 0.490354
vt 0.093239 0.492941
vt 0.214003 0.484071
vt 0.158046 0.503187
vt 0.344638 0.499058
vt 0.281690 0.731199
vt 0.543268 0.755123
vt 0.521185 0.711527
vt 0.561426 0.685880
vt 0.549621 0.663564
vt 0.539349 0.680840
vt 0.464544 0.661800
vt 0.482639 0.697960
vt 0.448274 0.662774
vt 0.513943 0.752441
vt 0.494076 0.749744
vt 0.466817 0.724687
vt 0.457845 0.474047
vt 0.021179 0.527214
vt 0.003129 0.731199
vt 0.543268 0.711527
vt 0.561426 0.755123
vt 0.521185 0.685880
vt 0.549621 0.663564
vt 0.539349 0.680840
vt 0.464544 0.697960
vt 0.448274 0.661800
vt 0.482639 0.662774
vt 0.513943 0.752441
vt 0.494076 0.749744
vt 0.466817 0.724687
vt 0.457845 0.474047
vt 0.021179 0.527214
vt 0.003129 0.675845
vt 0.868511 0.635984
vt 0.949382 0.681169
vt 0.843783 0.684442
vt 0.723773 0.680347
vt 0.776716 0.688191
vt 0.676928 0.635984
vt 0.949382 0.675845
vt 0.868511 0.681169
vt 0.843783 0.684442
vt 0.723773 0.680347
vt 0.776716 0.688191
vt 0.676928 0.173582
vt 0.781050 0.147315
vt 0.844198 0.074452
vt 0.738862 0.158173
vt 0.753044 0.147315
vt 0.844198 0.006393
vt 0.932268 0.001906
vt 0.927023 0.221139
vt 0.856115 0.622749
vt 0.971862 0.470493
vt 0.742959 0.173582
vt 0.781050 0.746397
vt 0.349163 0.768610
vt 0.358788 0.791062
vt 0.347818 0.796673
vt 0.321876 0.785801
vt 0.295846 0.757637
vt 0.296186 0.739121
vt 0.319959 0.291440
vt 0.994696 0.740269
vt 0.324566 0.463698
vt 0.232166 0.079216
vt 0.206244 0.082234
vt 0.118667 0.094200
vt 0.004367 0.054129
vt 0.329192 0.317415
vt 0.355671 0.250027
vt 0.352090 0.370547
vt 0.355018 0.114531
vt 0.344928 0.179303
vt 0.350178 0.425880
vt 0.349611 0.482807
vt 0.335032 0.054129
vt 0.329192 0.026714
vt 0.408403 0.173582
vt 0.781050 0.147315
vt 0.844198 0.074452
vt 0.738862 0.147315
vt 0.844198 0.158173
vt 0.753044 0.626121
vt 0.904119 0.562375
vt 0.890021 0.518735
vt 0.856450 0.049991
vt 0.821018 0.044858
vt 0.874519 0.006393
vt 0.932268 0.001906
vt 0.927023 0.495061
vt 0.799237 0.221139
vt 0.856115 0.622749
vt 0.971862 0.470493
vt 0.742959 0.173582
vt 0.781050 0.746397
vt 0.349163 0.768610
vt 0.358788 0.791062
vt 0.347818 0.796673
vt 0.321876 0.785801
vt 0.295846 0.757637
vt 0.296186 0.739121
vt 0.319959 0.291440
vt 0.994696 0.740269
vt 0.324566 0.463698
vt 0.232166 0.079216
vt 0.206244 0.082234
vt 0.118667 0.094200
vt 0.004367 0.054129
vt 0.329192 0.317415
vt 0.355671 0.250027
vt 0.352090 0.370547
vt 0.355018 0.114531
vt 0.344928 0.179303
vt 0.350178 0.482807
vt 0.335032 0.425880
vt 0.349611 0.054129
vt 0.329192 0.026714
vt 0.408403 0.181882
vt 0.570709 0.209997
vt 0.554659 0.045510
vt 0.469387 0.036903
vt 0.502021 0.003044
vt 0.122589 0.000973
vt 0.064167 0.001515
vt 0.186817 0.007876
vt 0.002281 0.052574
vt 0.071608 0.072155
vt 0.016776 0.044369
vt 0.125947 0.061197
vt 0.188333 0.003044
vt 0.122589 0.000973
vt 0.064167 0.001515
vt 0.186817 0.050716
vt 0.195000 0.054263
vt 0.007763 0.007876
vt 0.002281 0.052574
vt 0.071608 0.072155
vt 0.016776 0.044369
vt 0.125947 0.061197
vt 0.188333 0.255304
vt 0.469815 0.255304
vt 0.469815 0.658097
vt 0.859049 0.629116
vt 0.865554 0.522948
vt 0.838993 0.554239
vt 0.843402 0.555300
vt 0.788639 1.000000

f 7/7 34/34 6/6
f 6/6 1/1 7/7
f 55/55 2/2 51/51
f 31/31 138/138 114/114
f 31/31 39/39 32/32
f 55/55 4/4 7/7
f 6/6 39/39 8/8
f 8/8 1/1 6/6
f 6/6 34/34 3/3
f 4/4 34/34 7/7
f 7/7 1/1 2/2
f 7/7 2/2 55/55
f 8/8 114/114 1/1
f 6/6 3/3 39/39
f 31/31 114/114 8/8
f 8/8 39/39 31/31
f 13/13 15/15 73/73
f 16/16 454/454 14/14
f 16/16 20/20 13/13
f 29/29 27/27 30/30
f 20/20 128/128 120/120
f 128/128 20/20 16/16
f 14/14 128/128 16/16
f 128/128 14/14 121/121
f 16/16 455/455 454/454
f 13/13 73/73 456/456
f 457/457 122/122 458/458
f 21/21 19/19 22/22
f 19/19 21/21 11/11
f 18/18 19/19 12/12
f 17/17 11/11 21/21
f 20/20 15/15 13/13
f 455/455 16/16 13/13
f 19/19 18/18 22/22
f 12/12 15/15 20/20
f 12/12 20/20 18/18
f 457/457 459/459 117/117
f 23/23 11/11 17/17
f 15/15 12/12 24/24
f 82/82 141/141 30/30
f 456/456 455/455 13/13
f 24/24 73/73 15/15
f 122/122 457/457 17/17
f 17/17 457/457 118/118
f 18/18 20/20 120/120
f 21/21 122/122 17/17
f 122/122 21/21 123/123
f 120/120 129/129 18/18
f 22/22 123/123 21/21
f 123/123 22/22 129/129
f 18/18 129/129 22/22
f 26/26 77/77 76/76
f 76/76 25/25 26/26
f 26/26 25/25 28/28
f 27/27 82/82 30/30
f 460/460 28/28 25/25
f 28/28 460/460 461/461
f 17/17 118/118 23/23
f 457/457 115/115 118/118
f 457/457 117/117 115/115
f 462/462 117/117 459/459
f 9/9 463/463 132/132
f 463/463 9/9 464/464
f 116/116 26/26 465/465
f 26/26 116/116 77/77
f 133/133 464/464 9/9
f 464/464 133/133 27/27
f 465/465 28/28 466/466
f 28/28 465/465 26/26
f 466/466 461/461 467/467
f 461/461 466/466 28/28
f 10/10 27/27 133/133
f 27/27 10/10 82/82
f 19/19 30/30 12/12
f 30/30 19/19 29/29
f 12/12 141/141 24/24
f 141/141 12/12 30/30
f 138/138 31/31 5/5
f 5/5 32/32 140/140
f 32/32 5/5 31/31
f 33/33 45/45 34/34
f 3/3 34/34 35/35
f 36/36 44/44 3/3
f 42/42 4/4 37/37
f 38/38 41/41 39/39
f 40/40 140/140 32/32
f 140/140 40/40 46/46
f 39/39 41/41 32/32
f 4/4 42/42 34/34
f 3/3 43/43 36/36
f 3/3 44/44 39/39
f 34/34 45/45 35/35
f 34/34 42/42 33/33
f 3/3 35/35 43/43
f 39/39 44/44 38/38
f 32/32 41/41 40/40
f 54/54 53/53 87/87
f 53/53 54/54 47/47
f 468/468 469/469 49/49
f 84/84 119/119 48/48
f 84/84 85/85 92/92
f 468/468 54/54 470/470
f 53/53 56/56 92/92
f 56/56 53/53 47/47
f 53/53 50/50 87/87
f 470/470 54/54 87/87
f 54/54 49/49 47/47
f 54/54 468/468 49/49
f 56/56 47/47 119/119
f 53/53 92/92 50/50
f 84/84 56/56 119/119
f 56/56 84/84 92/92
f 61/61 471/471 63/63
f 64/64 62/62 472/472
f 64/64 61/61 68/68
f 81/81 83/83 79/79
f 68/68 125/125 124/124
f 124/124 64/64 68/68
f 62/62 64/64 124/124
f 124/124 126/126 62/62
f 64/64 472/472 473/473
f 61/61 474/474 471/471
f 475/475 476/476 130/130
f 69/69 70/70 67/67
f 67/67 58/58 69/69
f 66/66 59/59 67/67
f 65/65 69/69 58/58
f 68/68 61/61 63/63
f 473/473 61/61 64/64
f 67/67 70/70 66/66
f 59/59 68/68 63/63
f 59/59 66/66 68/68
f 475/475 72/72 477/477
f 71/71 65/65 58/58
f 63/63 478/478 59/59
f 479/479 83/83 480/480
f 474/474 61/61 473/473
f 478/478 63/63 471/471
f 130/130 65/65 475/475
f 65/65 74/74 475/475
f 66/66 125/125 68/68
f 69/69 65/65 130/130
f 130/130 131/131 69/69
f 125/125 66/66 127/127
f 70/70 69/69 131/131
f 131/131 127/127 70/70
f 66/66 70/70 127/127
f 78/78 481/481 482/482
f 481/481 78/78 75/75
f 78/78 80/80 75/75
f 79/79 83/83 479/479
f 79/79 75/75 80/80
f 80/80 81/81 79/79
f 65/65 71/71 74/74
f 475/475 74/74 60/60
f 475/475 60/60 72/72
f 483/483 477/477 72/72
f 57/57 481/481 75/75
f 481/481 57/57 484/484
f 485/485 78/78 482/482
f 78/78 485/485 71/71
f 134/134 75/75 79/79
f 75/75 134/134 57/57
f 71/71 80/80 78/78
f 80/80 71/71 58/58
f 58/58 81/81 80/80
f 81/81 58/58 67/67
f 486/486 79/79 479/479
f 79/79 486/486 134/134
f 67/67 83/83 81/81
f 83/83 67/67 59/59
f 59/59 480/480 83/83
f 480/480 59/59 478/478
f 48/48 52/52 84/84
f 52/52 85/85 84/84
f 85/85 52/52 139/139
f 86/86 87/87 98/98
f 50/50 88/88 87/87
f 89/89 50/50 97/97
f 95/95 90/90 470/470
f 91/91 92/92 94/94
f 93/93 139/139 99/99
f 139/139 93/93 85/85
f 92/92 85/85 94/94
f 470/470 87/87 95/95
f 50/50 89/89 96/96
f 50/50 92/92 97/97
f 87/87 88/88 98/98
f 87/87 86/86 95/95
f 50/50 96/96 88/88
f 92/92 91/91 97/97
f 85/85 93/93 94/94
f 100/100 487/487 136/136
f 105/105 104/104 488/488
f 112/112 489/489 104/104
f 103/103 101/101 100/100
f 102/102 103/103 100/100
f 102/102 104/104 103/103
f 106/106 112/112 102/102
f 106/106 102/102 100/100
f 103/103 490/490 101/101
f 491/491 101/101 490/490
f 490/490 103/103 105/105
f 101/101 487/487 100/100
f 492/492 487/487 101/101
f 136/136 106/106 100/100
f 104/104 105/105 103/103
f 104/104 489/489 488/488
f 112/112 104/104 102/102
f 493/493 105/105 488/488
f 490/490 105/105 493/493
f 101/101 491/491 492/492
f 107/107 136/136 494/494
f 113/113 495/495 111/111
f 112/112 111/111 489/489
f 110/110 107/107 108/108
f 109/109 107/107 110/110
f 109/109 110/110 111/111
f 106/106 109/109 112/112
f 106/106 107/107 109/109
f 110/110 108/108 496/496
f 497/497 496/496 108/108
f 496/496 113/113 110/110
f 108/108 107/107 494/494
f 498/498 108/108 494/494
f 136/136 107/107 106/106
f 111/111 110/110 113/113
f 111/111 495/495 489/489
f 112/112 109/109 111/111
f 499/499 495/495 113/113
f 496/496 499/499 113/113
f 108/108 498/498 497/497
f 137/137 500/500 135/135
f 501/501 502/502 503/503
f 504/504 500/500 137/137
f 501/501 505/505 502/502
f 137/137 135/135 506/506
f 507/507 508/508 509/509
f 510/510 137/137 506/506
f 507/507 509/509 511/511
f 512/512 142/142 153/153
f 513/513 143/143 154/154
f 144/144 149/149 514/514
f 150/150 515/515 147/147
f 516/516 146/146 152/152
f 151/151 517/517 148/148
f 518/518 145/145 519/519
f 145/145 518/518 520/520
f 521/521 145/145 520/520
f 145/145 521/521 522/522
f 523/523 145/145 524/524
f 145/145 523/523 525/525
f 526/526 145/145 522/522
f 145/145 526/526 524/524
f 527/527 145/145 528/528
f 145/145 527/527 519/519
f 529/529 145/145 525/525
f 145/145 529/529 528/528
f 514/514 149/149 515/515
f 515/515 150/150 513/513
f 517/517 151/151 514/514
f 517/517 152/152 148/148
f 516/516 153/153 146/146
f 530/530 154/154 531/531
f 515/515 149/149 147/147
f 514/514 151/151 144/144
f 516/516 152/152 517/517
f 512/512 153/153 516/516
f 513/513 154/154 530/530
f 513/513 150/150 143/143
f 166/166 172/172 155/155
f 163/163 173/173 156/156
f 157/157 165/165 168/168
f 169/169 160/160 164/164
f 162/162 171/171 159/159
f 170/170 161/161 167/167
f 532/532 158/158 533/533
f 158/158 532/532 534/534
f 535/535 158/158 536/536
f 158/158 535/535 533/533
f 537/537 158/158 538/538
f 158/158 537/537 539/539
f 540/540 158/158 539/539
f 158/158 540/540 536/536
f 541/541 158/158 534/534
f 158/158 541/541 542/542
f 543/543 158/158 542/542
f 158/158 543/543 538/538
f 165/165 164/164 168/168
f 164/164 163/163 169/169
f 167/167 165/165 170/170
f 167/167 161/161 171/171
f 162/162 159/159 172/172
f 544/544 545/545 173/173
f 164/164 160/160 168/168
f 165/165 157/157 170/170
f 162/162 167/167 171/171
f 166/166 162/162 172/172
f 163/163 544/544 173/173
f 163/163 156/156 169/169
f 180/180 186/186 181/181
f 186/186 180/180 187/187
f 182/182 546/546 547/547
f 546/546 182/182 189/189
f 190/190 188/188 183/183
f 183/183 185/185 190/190
f 182/182 183/183 188/188
f 188/188 189/189 182/182
f 181/181 191/191 184/184
f 191/191 181/181 186/186
f 190/190 184/184 191/191
f 184/184 190/190 185/185
f 206/206 204/204 205/205
f 192/192 203/203 194/194
f 548/548 189/189 198/198
f 202/202 201/201 196/196
f 196/196 190/190 193/193
f 188/188 198/198 189/189
f 208/208 200/200 207/207
f 188/188 190/190 196/196
f 202/202 194/194 203/203
f 195/195 192/192 194/194
f 546/546 189/189 548/548
f 193/193 190/190 191/191
f 191/191 195/195 193/193
f 192/192 195/195 187/187
f 195/195 191/191 186/186
f 193/193 195/195 194/194
f 187/187 195/195 186/186
f 200/200 196/196 201/201
f 209/209 177/177 210/210
f 196/196 197/197 188/188
f 198/198 188/188 197/197
f 549/549 199/199 208/208
f 197/197 199/199 198/198
f 550/550 198/198 199/199
f 196/196 200/200 197/197
f 199/199 197/197 200/200
f 207/207 201/201 210/210
f 194/194 202/202 193/193
f 193/193 202/202 196/196
f 209/209 203/203 206/206
f 198/198 550/550 548/548
f 203/203 192/192 204/204
f 206/206 174/174 175/175
f 174/174 206/206 205/205
f 199/199 549/549 550/550
f 208/208 178/178 176/176
f 178/178 208/208 207/207
f 201/201 207/207 200/200
f 203/203 209/209 202/202
f 209/209 201/201 202/202
f 201/201 209/209 210/210
f 549/549 176/176 551/551
f 176/176 549/549 208/208
f 200/200 208/208 199/199
f 207/207 179/179 178/178
f 179/179 207/207 210/210
f 210/210 177/177 179/179
f 209/209 175/175 177/177
f 175/175 209/209 206/206
f 204/204 206/206 203/203
f 217/217 218/218 223/223
f 223/223 224/224 217/217
f 219/219 552/552 553/553
f 553/553 226/226 219/219
f 227/227 220/220 225/225
f 220/220 227/227 222/222
f 219/219 225/225 220/220
f 225/225 219/219 226/226
f 218/218 221/221 228/228
f 228/228 223/223 218/218
f 227/227 228/228 221/221
f 221/221 222/222 227/227
f 243/243 242/242 241/241
f 229/229 231/231 240/240
f 554/554 235/235 226/226
f 239/239 233/233 238/238
f 233/233 230/230 227/227
f 225/225 226/226 235/235
f 245/245 244/244 237/237
f 225/225 233/233 227/227
f 239/239 240/240 231/231
f 232/232 231/231 229/229
f 553/553 554/554 226/226
f 230/230 228/228 227/227
f 228/228 230/230 232/232
f 229/229 224/224 232/232
f 232/232 223/223 228/228
f 230/230 231/231 232/232
f 224/224 223/223 232/232
f 237/237 238/238 233/233
f 246/246 247/247 214/214
f 233/233 225/225 234/234
f 235/235 234/234 225/225
f 555/555 245/245 236/236
f 234/234 235/235 236/236
f 556/556 236/236 235/235
f 233/233 234/234 237/237
f 236/236 237/237 234/234
f 244/244 247/247 238/238
f 231/231 230/230 239/239
f 230/230 233/233 239/239
f 246/246 243/243 240/240
f 235/235 554/554 556/556
f 240/240 241/241 229/229
f 243/243 211/211 242/242
f 211/211 243/243 212/212
f 236/236 556/556 555/555
f 245/245 215/215 244/244
f 215/215 245/245 213/213
f 238/238 237/237 244/244
f 240/240 239/239 246/246
f 246/246 238/238 247/247
f 238/238 246/246 239/239
f 555/555 213/213 245/245
f 213/213 555/555 557/557
f 237/237 236/236 245/245
f 244/244 216/216 247/247
f 216/216 244/244 215/215
f 247/247 216/216 214/214
f 246/246 212/212 243/243
f 212/212 246/246 214/214
f 241/241 240/240 243/243
f 558/558 248/248 559/559
f 560/560 561/561 562/562
f 257/257 263/263 262/262
f 255/255 252/252 259/259
f 265/265 562/562 254/254
f 252/252 260/260 259/259
f 251/251 562/562 261/261
f 265/265 258/258 562/562
f 563/563 261/261 258/258
f 259/259 256/256 255/255
f 261/261 562/562 258/258
f 261/261 563/563 564/564
f 260/260 252/252 263/263
f 260/260 263/263 257/257
f 255/255 269/269 252/252
f 249/249 256/256 250/250
f 565/565 250/250 254/254
f 249/249 268/268 255/255
f 562/562 251/251 560/560
f 269/269 255/255 268/268
f 256/256 253/253 250/250
f 253/253 254/254 250/250
f 254/254 562/562 565/565
f 255/255 256/256 249/249
f 253/253 272/272 254/254
f 254/254 272/272 273/273
f 260/260 274/274 259/259
f 259/259 275/275 256/256
f 258/258 277/277 276/276
f 563/563 258/258 276/276
f 274/274 275/275 259/259
f 566/566 274/274 260/260
f 260/260 257/257 566/566
f 256/256 278/278 253/253
f 278/278 256/256 264/264
f 258/258 273/273 277/277
f 275/275 264/264 256/256
f 273/273 258/258 265/265
f 273/273 265/265 254/254
f 268/268 249/249 266/266
f 267/267 266/266 249/249
f 249/249 250/250 267/267
f 250/250 270/270 267/267
f 268/268 567/567 269/269
f 567/567 268/268 266/266
f 270/270 250/250 565/565
f 565/565 568/568 270/270
f 279/279 271/271 569/569
f 569/569 271/271 570/570
f 571/571 271/271 572/572
f 573/573 271/271 574/574
f 572/572 271/271 573/573
f 570/570 271/271 571/571
f 574/574 271/271 575/575
f 278/278 272/272 253/253
f 272/272 278/278 576/576
f 271/271 577/577 575/575
f 577/577 271/271 279/279
f 287/287 289/289 288/288
f 289/289 287/287 305/305
f 309/309 308/308 318/318
f 306/306 286/286 307/307
f 317/317 293/293 305/305
f 305/305 287/287 317/317
f 296/296 290/290 578/578
f 578/578 288/288 289/289
f 297/297 293/293 306/306
f 292/292 308/308 291/291
f 308/308 292/292 307/307
f 289/289 295/295 296/296
f 295/295 289/289 305/305
f 293/293 295/295 305/305
f 295/295 293/293 297/297
f 306/306 294/294 297/297
f 578/578 289/289 296/296
f 302/302 294/294 292/292
f 294/294 302/302 301/301
f 298/298 296/296 295/295
f 296/296 298/298 300/300
f 297/297 298/298 295/295
f 298/298 297/297 299/299
f 304/304 280/280 283/283
f 280/280 304/304 300/300
f 579/579 303/303 291/291
f 303/303 579/579 580/580
f 292/292 303/303 302/302
f 303/303 292/292 291/291
f 294/294 299/299 297/297
f 284/284 301/301 282/282
f 301/301 284/284 299/299
f 301/301 299/299 294/294
f 290/290 296/296 300/300
f 299/299 284/284 298/298
f 280/280 298/298 284/284
f 300/300 304/304 290/290
f 300/300 298/298 280/280
f 302/302 282/282 301/301
f 282/282 302/302 285/285
f 285/285 302/302 303/303
f 303/303 281/281 285/285
f 581/581 303/303 580/580
f 303/303 581/581 281/281
f 306/306 292/292 294/294
f 286/286 293/293 317/317
f 309/309 579/579 291/291
f 307/307 292/292 306/306
f 306/306 293/293 286/286
f 318/318 307/307 319/319
f 307/307 286/286 319/319
f 309/309 291/291 308/308
f 307/307 318/318 308/308
f 288/288 578/578 315/315
f 582/582 309/309 318/318
f 310/310 583/583 311/311
f 583/583 310/310 584/584
f 311/311 583/583 585/585
f 320/320 586/586 316/316
f 316/316 587/587 312/312
f 314/314 588/588 589/589
f 313/313 314/314 589/589
f 586/586 587/587 316/316
f 590/590 586/586 320/320
f 320/320 591/591 590/590
f 584/584 310/310 312/312
f 314/314 585/585 588/588
f 587/587 584/584 312/312
f 585/585 314/314 321/321
f 585/585 321/321 311/311
f 322/322 592/592 593/593
f 594/594 595/595 596/596
f 329/329 597/597 598/598
f 327/327 331/331 599/599
f 334/334 326/326 595/595
f 599/599 331/331 332/332
f 600/600 601/601 595/595
f 334/334 595/595 330/330
f 602/602 330/330 601/601
f 331/331 327/327 328/328
f 601/601 330/330 595/595
f 601/601 603/603 602/602
f 332/332 598/598 599/599
f 332/332 329/329 598/598
f 327/327 599/599 604/604
f 323/323 324/324 328/328
f 605/605 326/326 324/324
f 323/323 327/327 337/337
f 595/595 594/594 600/600
f 604/604 337/337 327/327
f 328/328 324/324 325/325
f 325/325 324/324 326/326
f 326/326 605/605 595/595
f 327/327 323/323 328/328
f 325/325 326/326 340/340
f 326/326 341/341 340/340
f 332/332 331/331 342/342
f 331/331 328/328 343/343
f 330/330 344/344 345/345
f 602/602 344/344 330/330
f 342/342 331/331 343/343
f 606/606 332/332 342/342
f 332/332 606/606 329/329
f 328/328 346/346 333/333
f 346/346 328/328 325/325
f 330/330 345/345 341/341
f 343/343 328/328 333/333
f 341/341 334/334 330/330
f 341/341 326/326 334/334
f 337/337 335/335 323/323
f 336/336 323/323 335/335
f 323/323 336/336 324/324
f 324/324 336/336 338/338
f 337/337 604/604 607/607
f 607/607 335/335 337/337
f 338/338 605/605 324/324
f 608/608 605/605 338/338
f 347/347 609/609 339/339
f 609/609 610/610 339/339
f 611/611 612/612 339/339
f 613/613 614/614 339/339
f 612/612 613/613 339/339
f 610/610 611/611 339/339
f 614/614 615/615 339/339
f 346/346 340/340 616/616
f 340/340 346/346 325/325
f 339/339 615/615 617/617
f 617/617 347/347 339/339
f 355/355 356/356 357/357
f 357/357 373/373 355/355
f 377/377 386/386 376/376
f 374/374 375/375 354/354
f 385/385 373/373 361/361
f 373/373 385/385 355/355
f 364/364 618/618 358/358
f 618/618 357/357 356/356
f 365/365 374/374 361/361
f 360/360 359/359 376/376
f 376/376 375/375 360/360
f 357/357 364/364 363/363
f 363/363 373/373 357/357
f 361/361 373/373 363/363
f 363/363 365/365 361/361
f 374/374 365/365 362/362
f 618/618 364/364 357/357
f 370/370 360/360 362/362
f 362/362 369/369 370/370
f 366/366 363/363 364/364
f 364/364 368/368 366/366
f 365/365 363/363 366/366
f 366/366 367/367 365/365
f 372/372 351/351 348/348
f 348/348 368/368 372/372
f 619/619 359/359 371/371
f 371/371 620/620 619/619
f 360/360 370/370 371/371
f 371/371 359/359 360/360
f 362/362 365/365 367/367
f 352/352 350/350 369/369
f 369/369 367/367 352/352
f 369/369 362/362 367/367
f 358/358 368/368 364/364
f 367/367 366/366 352/352
f 348/348 352/352 366/366
f 368/368 358/358 372/372
f 368/368 348/348 366/366
f 370/370 369/369 350/350
f 350/350 353/353 370/370
f 353/353 371/371 370/370
f 371/371 353/353 349/349
f 621/621 620/620 371/371
f 371/371 349/349 621/621
f 374/374 362/362 360/360
f 354/354 385/385 361/361
f 377/377 359/359 619/619
f 375/375 374/374 360/360
f 374/374 354/354 361/361
f 386/386 387/387 375/375
f 375/375 387/387 354/354
f 377/377 376/376 359/359
f 375/375 376/376 386/386
f 356/356 383/383 618/618
f 622/622 386/386 377/377
f 378/378 379/379 623/623
f 623/623 624/624 378/378
f 379/379 625/625 623/623
f 388/388 384/384 626/626
f 384/384 380/380 627/627
f 382/382 628/628 629/629
f 381/381 628/628 382/382
f 626/626 384/384 627/627
f 630/630 388/388 626/626
f 388/388 630/630 631/631
f 624/624 380/380 378/378
f 382/382 629/629 625/625
f 627/627 380/380 624/624
f 625/625 389/389 382/382
f 625/625 379/379 389/389
f 393/393 398/398 397/397
f 398/398 393/393 391/391
f 399/399 391/391 390/390
f 391/391 399/399 398/398
f 400/400 390/390 392/392
f 390/390 400/400 399/399
f 632/632 396/396 395/395
f 396/396 632/632 633/633
f 401/401 395/395 396/396
f 395/395 401/401 394/394
f 634/634 394/394 401/401
f 394/394 634/634 635/635
f 636/636 402/402 403/403
f 402/402 636/636 637/637
f 638/638 403/403 407/407
f 403/403 638/638 636/636
f 405/405 637/637 639/639
f 637/637 405/405 402/402
f 640/640 405/405 641/641
f 405/405 640/640 402/402
f 642/642 402/402 640/640
f 402/402 642/642 403/403
f 643/643 403/403 642/642
f 403/403 643/643 407/407
f 644/644 404/404 645/645
f 404/404 644/644 406/406
f 646/646 406/406 644/644
f 406/406 646/646 647/647
f 648/648 645/645 404/404
f 645/645 648/648 649/649
f 650/650 648/648 404/404
f 648/648 650/650 651/651
f 652/652 404/404 406/406
f 404/404 652/652 650/650
f 653/653 406/406 647/647
f 406/406 653/653 652/652
f 408/408 409/409 654/654
f 654/654 410/410 408/408
f 410/410 411/411 408/408
f 411/411 410/410 412/412
f 413/413 412/412 414/414
f 412/412 413/413 411/411
f 415/415 655/655 416/416
f 655/655 415/415 417/417
f 417/417 419/419 418/418
f 419/419 417/417 415/415
f 421/421 420/420 422/422
f 420/420 421/421 427/427
f 423/423 425/425 424/424
f 425/425 423/423 426/426
f 420/420 428/428 422/422
f 428/428 420/420 429/429
f 424/424 656/656 657/657
f 656/656 424/424 425/425
f 431/431 423/423 430/430
f 423/423 431/431 426/426
f 434/434 429/429 435/435
f 429/429 434/434 428/428
f 436/436 435/435 437/437
f 435/435 436/436 434/434
f 438/438 437/437 439/439
f 437/437 438/438 436/436
f 431/431 447/447 446/446
f 447/447 431/431 430/430
f 431/431 446/446 433/433
f 440/440 439/439 441/441
f 439/439 440/440 438/438
f 442/442 658/658 443/443
f 658/658 442/442 659/659
f 442/442 449/449 444/444
f 443/443 449/449 660/660
f 443/443 448/448 449/449
f 447/447 430/430 432/432
f 448/448 443/443 445/445
f 446/446 451/451 450/450
f 451/451 446/446 447/447
f 453/453 448/448 452/452
f 448/448 453/453 449/449
