# MOD converted: eff_oh_mace010.mod
# 271 verts, 123 faces

v -19.640209 -110.945816 30.989824
v 2.921358 -110.945824 -19.614292
v 8.623770 -110.945824 7.273531
v 31.185335 -110.945831 0.000000
v -3.694195 -105.759987 7.886546
v -3.694175 -115.826477 -3.249596
v 9.458390 -105.759979 -3.249602
v 9.458398 -115.826469 2.318943
v 2.881542 -100.913315 2.318939
v 2.881547 -120.673065 11.392672
v -0.725947 -105.759987 11.392665
v -0.725939 -115.826477 0.256510
v 12.426613 -105.759979 0.256503
v 12.426622 -115.826469 5.825076
v 5.849791 -100.913315 5.825072
v 5.849795 -120.673065 15.743507
v 14.247252 -110.793266 0.849751
v -3.860398 -95.374718 -9.787586
v -3.442964 -95.374718 -10.205019
v -7.778566 -95.374718 -5.869418
v -8.196000 -95.374718 -5.452033
v -3.860403 -26.994184 -9.787634
v -3.442969 -26.994184 -10.205068
v -7.778570 -26.994186 -5.869466
v -8.196004 -26.994184 -9.787634
v -3.442969 -26.994184 -9.787586
v -3.442964 -95.374718 0.674781
v -7.223596 -28.907368 -9.237692
v -6.979047 -28.907368 -9.020399
v -4.195490 -28.907366 -6.238980
v -4.439908 -28.907366 -6.598009
v -7.056291 -29.557615 -9.072021
v -6.838768 -29.557615 -8.878746
v -4.362737 -29.557615 -6.404566
v -4.580115 -29.557615 -5.960317
v -7.809547 -28.375635 -9.817946
v -7.470374 -28.375635 -9.516525
v -3.609551 -28.375633 -5.658725
v -3.948581 -28.375633 -5.960317
v -7.809547 -25.928171 -9.817946
v -7.470375 -26.321842 -9.516525
v -3.609551 -25.928169 -5.658725
v -3.948581 -26.321842 -9.505902
v -3.676107 -13.402143 -9.801617
v -7.456011 -13.402144 -9.576609
v -7.265554 -12.519082 -9.313539
v -3.903217 -12.519081 -6.024737
v -7.788745 -13.402145 -6.217006
v -7.561549 -12.519083 -5.728813
v -4.008660 -13.402144 -5.953708
v -4.199021 -12.519082 -10.179513
v -2.880316 -14.073934 -10.589708
v -8.123077 -14.073936 -5.351128
v -8.584535 -14.073936 -4.940721
v -3.341594 -14.073935 -10.179512
v -2.880316 -17.397575 -10.589708
v -8.123077 -16.862957 -5.351127
v -8.584536 -17.397577 -4.940720
v -3.341594 -16.862957 -9.599517
v -3.687086 10.355777 -9.900947
v -7.540125 10.355776 -9.671587
v -7.345985 9.455613 -9.403424
v -3.918584 9.455614 -6.050988
v -7.879300 10.355775 -6.246971
v -7.647703 9.455612 -5.749334
v -4.026068 10.355776 -5.978580
v -4.220112 9.455613 -10.286162
v -2.875896 11.051626 -10.704294
v -8.220104 11.051624 -5.364345
v -8.690489 11.051623 -4.945987
v -3.346089 11.051625 -10.286162
v -2.875896 14.439672 -10.704294
v -8.220104 13.894687 -5.364344
v -8.690491 14.439669 -4.945987
v -3.346089 13.894688 -9.943183
v -7.576532 11.413244 -6.028450
v -7.901455 11.413243 -9.618357
v -3.661795 11.413245 -5.703497
v -3.986610 11.413244 -11.218144
v -8.656051 12.843436 -4.948917
v -9.176411 12.843435 -10.697965
v -2.386809 12.843512 -4.428582
v -2.907037 12.843511 -12.112287
v -9.413152 18.534964 -4.191888
v -10.070477 18.534889 -11.455029
v -1.492760 18.534967 -3.534616
v -2.150073 18.534891 -7.823449
v -5.781616 23.949301 -4.976552
v -9.136952 -96.393120 -11.143932
v -8.594699 -96.393120 -10.662058
v -2.422228 -96.393188 -4.494379
v -2.964233 -96.393188 -5.290544
v -8.765996 -94.951157 -10.776562
v -8.283633 -94.951157 -10.347935
v -2.793082 -94.951149 -4.861581
v -3.275155 -94.951157 -3.876436
v -10.436277 -96.908638 -12.430593
v -9.684171 -96.908714 -11.762229
v -1.122952 -96.908707 -3.207662
v -1.874712 -96.908707 -3.876437
v -10.436275 -105.761765 -12.430593
v -9.684170 -104.888916 -11.762230
v -1.122949 -105.761765 -3.207661
v -1.874712 -104.888916 -9.660080
v -3.487159 -124.732613 -10.101029
v -7.710939 -124.732613 -5.862432
v -7.973742 -124.732613 -5.421271
v -3.749781 -124.732613 -9.450265
v -3.734950 -125.658752 -9.842488
v -7.492096 -125.658760 -6.072165
v -7.725875 -125.658760 -5.679685
v -3.968517 -125.658752 -10.394939
v -2.619017 -124.206947 -11.006543
v -8.477407 -124.206947 -5.127599
v -8.841909 -124.206947 -4.515728
v -2.983290 -124.206871 -10.394938
v -2.619018 -118.105087 -11.006543
v -8.477407 -118.665619 -5.127600
v -8.841909 -118.105095 -4.515728
v -2.983290 -118.665619 -6.218637
v -4.069935 -121.850021 -9.478896
v -7.235722 -121.844833 -5.817774
v -4.543457 -121.850021 0.770355
v 1.485261 -32.468410 -5.330309
v -8.554217 -15.409670 -10.784151
v -8.296661 -15.458009 -10.249447
v -7.843985 -26.977793 -9.690538
v -3.403870 -27.014805 -5.423894
v -3.758739 -26.978014 -3.793582
v -2.378530 -26.109312 -0.987218
v -0.002692 -27.687187 1.150330
v 1.806929 -24.851305 -2.537446
v -1.315097 -18.430025 -4.652931
v -3.106041 -15.446682 -10.571064
v -2.363816 -21.064331 -4.767860
v 0.045893 -22.269705 -0.980662
v 2.156807 -26.269283 -7.483727
v -1.298792 -21.146797 -12.465223
v -5.226695 -21.230669 -8.033670
v -10.461277 -21.230671 -4.897478
v -9.065511 -21.064333 -3.337583
v -6.196260 -21.146799 -1.563168
v -3.739521 -22.269707 1.143759
v -0.352582 -26.269283 -13.591910
v -10.673687 -13.154675 -17.146452
v -13.682911 -16.872877 -16.833889
v -10.448171 -14.673180 -13.904472
v -13.908428 -14.673181 -16.667059
v -13.277065 -2.219034 -20.983387
v -16.931210 -2.160406 -20.033562
v -13.156969 -2.189719 -17.104143
v -16.617226 -2.189721 -15.238600
v -12.067751 8.489049 -17.682289
v -14.136542 11.779971 -17.303576
v -11.405500 10.312026 -14.926191
v -14.213698 10.312025 -8.016532
v -5.953628 18.109016 -9.703220
v -7.381555 20.022528 -9.457429
v -5.961752 19.065809 -8.262322
v -7.373430 19.065809 -10.191476
v -2.812127 -15.417145 -7.837436
v -5.760746 -15.405672 -5.722487
v -8.091000 -27.003777 -7.613826
v -5.969237 -27.084093 -3.868402
v -2.044061 -131.463394 -5.431114
v -3.428580 -128.167221 -5.903841
v -3.843360 -126.696831 -0.768336
v 0.138737 -134.538086 -8.992162
v -6.823680 -126.742279 -8.591912
v -6.484601 -128.156784 -7.175727
v -5.285676 -129.487778 -6.233084
v -5.063891 -130.536804 -7.012782
v -5.723974 -131.461105 -8.689203
v -6.566966 -130.713287 -7.505946
v -5.565240 -132.362152 -5.508430
v -3.874168 -133.884216 -3.431944
v -2.559625 -131.463394 -5.055264
v -3.872519 -128.167221 -5.542489
v -4.270176 -126.696831 -6.997532
v -5.979509 -131.819534 -5.585323
v -5.064052 -132.121643 -6.801437
v -4.392566 -130.536804 -7.581135
v -5.052649 -131.461182 -7.830631
v -4.995419 -131.819534 -6.694710
v -3.753670 -132.121643 -6.522355
v -4.423194 -123.038658 -9.010214
v -6.838963 -123.034737 -6.216463
v -4.784532 -123.038666 -5.721902
v -8.263590 -21.875443 -10.449977
v -8.005689 -21.875441 -9.924955
v -3.299765 -21.875439 -5.196670
v -3.557485 -21.875441 -6.588037
v -7.240663 -98.337425 -9.490997
v -7.193698 -98.337425 -9.058794
v -4.322703 -98.337425 -6.155638
v -4.369499 -98.337425 -6.209532
v -7.487510 -23.064159 -9.618406
v -7.301590 -23.064157 -9.239864
v -3.908700 -23.064232 -5.830877
v -4.094523 -23.064232 9.844006
v -6.447415 -103.793846 5.813053
v -9.862336 -103.793846 -0.955843
v -13.680662 -104.960945 -8.129472
v -20.672943 -104.250519 -7.236383
v -24.103176 -102.273415 -13.656172
v -29.539608 -102.273491 9.844011
v -6.447392 -117.792702 5.813045
v -9.862326 -117.792702 -0.955850
v -13.680653 -116.625671 -8.129481
v -20.672932 -117.336182 -7.236386
v -24.103170 -119.313210 -13.656167
v -29.539583 -119.313210 -5.642488
v 11.843213 -103.793839 -9.673461
v 8.428287 -103.793839 -14.556029
v 2.382106 -104.960938 -22.633289
v -3.542580 -104.250511 -25.869349
v -2.096350 -102.273483 -32.289124
v -7.532768 -102.273483 -5.642485
v 11.843239 -117.792694 -9.673474
v 8.428303 -117.792694 -14.556038
v 2.382118 -116.625595 -22.633299
v -3.542568 -117.336174 -25.869362
v -2.096333 -119.313202 -32.289135
v -7.532753 -119.313202 2.101414
v 2.697127 -97.053802 -1.929954
v -0.717335 -97.053802 -7.755707
v -5.649563 -99.344704 -15.381709
v -12.107405 -97.950043 -16.553175
v -13.099401 -94.069206 -22.973219
v -18.535530 -94.069206 -22.973223
v -18.535522 -127.517418 -16.553177
v -13.099394 -127.517418 -15.381697
v -12.107388 -123.636650 -7.755695
v -5.649546 -122.241844 -1.929957
v -0.717328 -124.532738 2.101425
v 2.697146 -124.532738 -35.359821
v -13.085693 -117.981689 -35.359814
v -13.085706 -103.604996 -27.499886
v -22.368874 -96.682930 -19.638977
v -31.653137 -103.605003 -19.638987
v -31.653124 -117.981621 -27.499889
v -22.368866 -124.903610 7.886548
v -3.694195 -105.760063 7.886556
v -3.694175 -115.826561 -3.249587
v 9.458391 -105.760056 -3.249592
v 9.458399 -115.826553 2.318952
v 2.881542 -100.913399 2.318950
v 2.881547 -120.673141 0.770355
v 1.485261 -32.468410 -10.784151
v -8.296661 -15.458009 -5.330309
v -8.554217 -15.409670 -5.330309
v -8.554217 -15.409670 -4.652931
v -3.106041 -15.446682 -4.652931
v -3.106041 -15.446682 -10.191476
v -2.812127 -15.417145 -10.191476
v -2.812127 -15.417145 -10.784151
v -8.296661 -15.458009 -10.249447
v -7.843985 -26.977793 -9.690538
v -3.403870 -27.014805 -5.423894
v -3.758739 -26.978014 -5.722487
v -8.091000 -27.003777 -9.943183
v -7.576532 11.413244 -6.028450
v -7.901455 11.413243 -9.618357
v -3.661795 11.413245 -5.703497
v -3.986610 11.413244 -35.359814
v -13.085706 -103.604996 -35.359821
v -13.085693 -117.981689 -27.499886
v -22.368874 -96.682930 -19.638977
v -31.653137 -103.605003 -19.638987
v -31.653124 -117.981621 -27.499889
v -22.368866 -124.903610 0.453110

vt 0.000000 0.000000
vt 0.000000 1.000000
vt 1.000000 -0.000004
vt 1.000000 1.000000
vt 0.863390 0.228285
vt 0.863390 0.150249
vt 0.863394 0.228285
vt 0.863393 0.085103
vt 0.863393 0.294985
vt 0.863391 0.150250
vt 0.898789 0.228285
vt 0.898788 0.150250
vt 0.898793 0.228285
vt 0.898793 0.092308
vt 0.898792 0.292107
vt 0.898790 0.189268
vt 0.998934 1.000000
vt 0.902444 0.300292
vt 0.902444 0.375073
vt 0.902444 0.350146
vt 0.902444 0.325217
vt 0.902444 0.300290
vt 0.902444 0.375072
vt 0.902444 0.350145
vt 0.902444 0.400000
vt 0.902444 0.400000
vt 0.902444 1.000000
vt 0.687186 0.546890
vt 0.640743 0.546890
vt 0.687187 0.546890
vt 0.733633 0.562813
vt 0.687186 0.562813
vt 0.645875 0.562813
vt 0.687187 0.562813
vt 0.728504 0.541198
vt 0.687185 0.541198
vt 0.622769 0.541198
vt 0.687186 0.541198
vt 0.751608 0.443442
vt 0.687185 0.453080
vt 0.622769 0.443442
vt 0.687187 0.453080
vt 0.751608 0.546890
vt 0.687186 0.546890
vt 0.640743 0.562813
vt 0.645875 0.562813
vt 0.687186 0.546890
vt 0.687187 0.562813
vt 0.687187 0.546890
vt 0.733633 0.562813
vt 0.728504 0.541198
vt 0.687185 0.541198
vt 0.622769 0.541198
vt 0.687186 0.541198
vt 0.751608 0.443442
vt 0.687185 0.453080
vt 0.622769 0.443442
vt 0.687187 0.453080
vt 0.751608 0.546890
vt 0.687186 0.546890
vt 0.640743 0.562813
vt 0.645875 0.562813
vt 0.687186 0.546890
vt 0.687187 0.562813
vt 0.687187 0.546890
vt 0.733633 0.562813
vt 0.728504 0.541198
vt 0.687185 0.541198
vt 0.622769 0.541198
vt 0.687186 0.541198
vt 0.751608 0.443442
vt 0.687185 0.453080
vt 0.622769 0.443442
vt 0.687187 0.453080
vt 0.751608 0.026423
vt 0.899168 0.026423
vt 0.932728 0.026423
vt 0.932728 0.026422
vt 0.966290 0.040191
vt 0.898642 0.040191
vt 0.932728 0.040191
vt 0.932728 0.040190
vt 0.966817 0.098943
vt 0.869235 0.098942
vt 0.932729 0.098942
vt 0.932729 0.098941
vt 0.996223 0.173949
vt 0.932730 0.546890
vt 0.687186 0.546890
vt 0.640743 0.546890
vt 0.687187 0.546890
vt 0.733633 0.562813
vt 0.687186 0.562813
vt 0.645875 0.562813
vt 0.687187 0.562813
vt 0.728504 0.541198
vt 0.687185 0.541198
vt 0.622769 0.541198
vt 0.687186 0.541198
vt 0.751608 0.443442
vt 0.687185 0.453080
vt 0.622769 0.443442
vt 0.687187 0.453080
vt 0.751608 0.448387
vt 0.478658 0.448388
vt 0.435960 0.448387
vt 0.478644 0.448386
vt 0.521347 0.427107
vt 0.478658 0.427108
vt 0.440677 0.427108
vt 0.478645 0.427107
vt 0.516631 0.460283
vt 0.478661 0.460284
vt 0.419438 0.460283
vt 0.478641 0.460282
vt 0.537869 0.549067
vt 0.478663 0.541164
vt 0.419440 0.549067
vt 0.478643 0.541161
vt 0.537871 0.263060
vt 0.667779 0.263126
vt 0.606988 0.263060
vt 0.667779 0.306267
vt 0.723779 0.418745
vt 0.660269 0.414234
vt 0.640294 0.348782
vt 0.639442 0.346007
vt 0.660232 0.348761
vt 0.682410 0.345538
vt 0.696926 0.329909
vt 0.714446 0.350057
vt 0.729702 0.397980
vt 0.700838 0.415293
vt 0.678386 0.376454
vt 0.660402 0.368450
vt 0.698779 0.338333
vt 0.721786 0.375906
vt 0.679920 0.375349
vt 0.639273 0.375349
vt 0.639269 0.376454
vt 0.660396 0.375906
vt 0.679916 0.368450
vt 0.698776 0.338333
vt 0.721785 0.442309
vt 0.625679 0.410358
vt 0.589655 0.426257
vt 0.607891 0.426257
vt 0.607889 0.496260
vt 0.600524 0.506554
vt 0.543863 0.500627
vt 0.575975 0.500627
vt 0.575972 0.565128
vt 0.609408 0.607078
vt 0.570016 0.588682
vt 0.588063 0.588682
vt 0.588060 0.597336
vt 0.667431 0.651158
vt 0.633407 0.632518
vt 0.645906 0.632518
vt 0.645904 0.417951
vt 0.660276 0.416556
vt 0.659921 0.346603
vt 0.660204 0.304734
vt 0.659516 0.124050
vt 0.716103 0.172982
vt 0.683049 0.193975
vt 0.671531 0.070950
vt 0.779217 0.193278
vt 0.608322 0.171632
vt 0.616249 0.151261
vt 0.644290 0.136215
vt 0.657327 0.122573
vt 0.641890 0.132506
vt 0.614323 0.107273
vt 0.637752 0.082467
vt 0.677303 0.124050
vt 0.716103 0.172982
vt 0.683049 0.193975
vt 0.671531 0.115577
vt 0.639570 0.110953
vt 0.664797 0.136215
vt 0.657327 0.122573
vt 0.641890 0.115577
vt 0.639570 0.110953
vt 0.664797 0.249958
vt 0.660247 0.250017
vt 0.607965 0.249958
vt 0.660247 0.009968
vt 0.104763 0.009968
vt 0.079531 0.009968
vt 0.104846 0.009968
vt 0.130081 0.392168
vt 0.316402 0.409980
vt 0.316402 0.392168
vt 0.316402 0.375465
vt 0.316402 0.396195
vt 0.564730 0.413749
vt 0.565234 0.396195
vt 0.564730 0.375515
vt 0.564730 0.135007
vt 0.840486 0.135006
vt 0.792965 0.151798
vt 0.740957 0.138544
vt 0.649480 0.123218
vt 0.637127 0.123217
vt 0.572303 0.243527
vt 0.840485 0.243527
vt 0.792964 0.226734
vt 0.740957 0.239986
vt 0.649479 0.255312
vt 0.637125 0.255311
vt 0.572301 0.135007
vt 0.840492 0.135006
vt 0.792971 0.151798
vt 0.740962 0.138544
vt 0.649485 0.123218
vt 0.637133 0.123217
vt 0.572310 0.243527
vt 0.840491 0.243527
vt 0.792970 0.226734
vt 0.740961 0.239986
vt 0.649483 0.255312
vt 0.637132 0.255311
vt 0.572308 0.044306
vt 0.840490 0.044305
vt 0.792969 0.085643
vt 0.740960 0.053017
vt 0.649483 0.015287
vt 0.637131 0.015287
vt 0.572307 0.363575
vt 0.572304 0.363576
vt 0.637128 0.325498
vt 0.649481 0.292571
vt 0.740958 0.334293
vt 0.792967 0.334294
vt 0.840488 0.095412
vt 0.923117 0.095412
vt 0.968115 0.051746
vt 0.989053 0.010091
vt 0.968115 0.010091
vt 0.923117 0.051747
vt 0.902180 0.150249
vt 0.858963 0.228285
vt 0.858962 0.150249
vt 0.858967 0.228285
vt 0.858966 0.085103
vt 0.858965 0.294985
vt 0.858964 0.306267
vt 0.723779 0.413832
vt 0.636217 0.419172
vt 0.659864 0.419118
vt 0.661858 0.415031
vt 0.683305 0.415002
vt 0.683307 0.418148
vt 0.661868 0.418199
vt 0.659870 0.413799
vt 0.636214 0.331859
vt 0.628080 0.329133
vt 0.660179 0.331830
vt 0.689759 0.329133
vt 0.660179 0.252825
vt 0.084410 0.252825
vt 0.104772 0.252825
vt 0.104843 0.252824
vt 0.125207 0.133539
vt 0.526601 0.244988
vt 0.526600 0.040697
vt 0.526598 0.133539
vt 0.526595 0.244988
vt 0.526594 0.337928
vt 0.526596 1.000000

f 3/3 4/4 1/1
f 2/2 1/1 4/4
f 7/7 14/14 8/8
f 14/14 7/7 13/13
f 9/9 13/13 7/7
f 13/13 9/9 15/15
f 10/10 12/12 6/6
f 12/12 10/10 16/16
f 6/6 11/11 5/5
f 11/11 6/6 12/12
f 5/5 15/15 9/9
f 15/15 5/5 11/11
f 8/8 16/16 10/10
f 16/16 8/8 14/14
f 14/14 13/13 17/17
f 13/13 15/15 17/17
f 12/12 16/16 17/17
f 11/11 12/12 17/17
f 15/15 11/11 17/17
f 16/16 14/14 17/17
f 19/19 22/22 18/18
f 22/22 19/19 23/23
f 20/20 26/26 27/27
f 26/26 20/20 24/24
f 21/21 24/24 20/20
f 24/24 21/21 25/25
f 18/18 25/25 21/21
f 25/25 18/18 22/22
f 220/220 213/213 219/219
f 213/213 220/220 214/214
f 220/220 215/215 214/214
f 215/215 220/220 221/221
f 222/222 215/215 221/221
f 215/215 222/222 216/216
f 223/223 216/216 222/222
f 216/216 223/223 217/217
f 224/224 217/217 223/223
f 217/217 224/224 218/218
f 213/213 226/226 225/225
f 226/226 213/213 214/214
f 215/215 226/226 214/214
f 226/226 215/215 227/227
f 215/215 228/228 227/227
f 228/228 215/215 216/216
f 216/216 229/229 228/228
f 229/229 216/216 217/217
f 217/217 230/230 229/229
f 230/230 217/217 218/218
f 237/237 239/239 238/238
f 239/239 237/237 242/242
f 224/224 232/232 231/231
f 232/232 224/224 223/223
f 222/222 232/232 223/223
f 232/232 222/222 233/233
f 222/222 234/234 233/233
f 234/234 222/222 221/221
f 221/221 235/235 234/234
f 235/235 221/221 220/220
f 220/220 236/236 235/235
f 236/236 220/220 219/219
f 207/207 202/202 208/208
f 202/202 207/207 201/201
f 208/208 203/203 209/209
f 203/203 208/208 202/202
f 203/203 210/210 209/209
f 210/210 203/203 204/204
f 204/204 211/211 210/210
f 211/211 204/204 205/205
f 211/211 206/206 212/212
f 206/206 211/211 205/205
f 201/201 226/226 202/202
f 226/226 201/201 225/225
f 226/226 203/203 202/202
f 203/203 226/226 227/227
f 203/203 228/228 204/204
f 228/228 203/203 227/227
f 204/204 229/229 205/205
f 229/229 204/204 228/228
f 205/205 230/230 206/206
f 230/230 205/205 229/229
f 239/239 241/241 240/240
f 241/241 239/239 242/242
f 212/212 232/232 211/211
f 232/232 212/212 231/231
f 232/232 210/210 211/211
f 210/210 232/232 233/233
f 210/210 234/234 209/209
f 234/234 210/210 233/233
f 209/209 235/235 208/208
f 235/235 209/209 234/234
f 208/208 236/236 207/207
f 236/236 208/208 235/235
f 224/224 266/266 218/218
f 266/266 224/224 267/267
f 218/218 268/268 230/230
f 268/268 218/218 266/266
f 230/230 269/269 206/206
f 269/269 230/230 268/268
f 206/206 270/270 212/212
f 270/270 206/206 269/269
f 212/212 271/271 231/231
f 271/271 212/212 270/270
f 231/231 267/267 224/224
f 267/267 231/231 271/271
f 213/213 246/246 219/219
f 246/246 213/213 245/245
f 225/225 245/245 213/213
f 245/245 225/225 247/247
f 236/236 244/244 207/207
f 244/244 236/236 248/248
f 207/207 243/243 201/201
f 243/243 207/207 244/244
f 201/201 247/247 225/225
f 247/247 201/201 243/243
f 219/219 248/248 236/236
f 248/248 219/219 246/246
f 189/189 263/263 190/190
f 190/190 262/262 191/191
f 191/191 264/264 192/192
f 192/192 265/265 194/194
f 194/194 193/193 195/195
f 195/195 194/194 196/196
f 196/196 195/195 197/197
