# MOD converted: h_m_costume_hiphop_body02.mod
# 598 verts, 65 faces

v 65.228966 8.580081 25.108339
v 58.789032 0.661487 26.406561
v 63.638702 0.558224 21.990425
v 60.316593 9.019047 22.974312
v 65.670609 -6.925285 12.988827
v 66.781685 -13.348804 15.315027
v 70.705887 -12.025967 21.160320
v 61.216423 -8.095536 15.443166
v 63.865734 13.400519 17.644350
v 68.708878 12.668262 8.278158
v 75.278076 -12.861252 6.100219
v 71.194878 -13.934713 4.946218
v 70.570053 15.515017 6.661004
v 75.290718 15.589805 24.424109
v 61.591644 9.369282 26.005468
v 55.737461 0.675415 22.582304
v 57.414574 9.851221 12.699450
v 64.512589 -14.706453 21.670937
v 58.402496 -8.938881 23.462967
v 62.076530 -7.654071 15.053840
v 67.604752 -13.254108 27.231241
v 59.845676 0.561875 15.394066
v 61.311165 14.661638 17.611200
v 65.412239 13.857697 5.136444
v 69.357834 -15.349720 7.328058
v 72.624573 -14.171165 3.869466
v 68.671844 16.983149 5.552581
v 72.638443 17.065266 0.000000
v 79.515907 -16.900928 0.000000
v 89.123466 -14.898594 0.000437
v 87.678139 15.575450 -0.000000
v 79.208809 17.799582 -0.000002
v 67.952423 -18.437380 17.149582
v 122.187744 -0.530505 17.648674
v 123.007515 8.774771 11.636441
v 79.514519 -15.210557 12.876580
v 67.979424 -16.826769 10.827462
v 97.851044 -11.819073 22.951139
v 67.831291 -8.508306 12.298148
v 96.208839 12.225705 15.716474
v 68.688103 16.797453 9.820166
v 112.687363 13.504461 15.887801
v 107.104462 -5.606552 15.865543
v 115.634476 -5.089763 15.510642
v 114.549217 12.090712 16.069019
v 97.599312 -5.672236 18.489714
v 88.522858 4.053448 19.417355
v 79.515549 -7.481583 21.847794
v 79.511299 5.168895 25.299070
v 67.983543 5.691333 15.286372
v 79.345230 15.375474 16.250689
v 106.956573 12.149159 10.886532
v 88.941193 -13.200583 16.754827
v 88.410492 -6.743251 13.044502
v 88.213600 12.583167 7.376594
v 88.174919 15.245450 16.850433
v 96.880936 4.925968 10.851936
v 107.664963 -10.048368 9.899142
v 117.829025 -6.061107 10.588358
v 124.089897 -0.365775 10.469631
v 124.967255 8.844501 7.982051
v 118.947830 12.586754 6.481723
v 111.144417 -10.668843 -0.000001
v 112.233833 14.818215 0.000000
v 108.238029 -12.041524 0.000000
v 68.692459 19.311977 20.943132
v 122.190842 -0.525562 21.442223
v 123.002228 8.780510 17.463682
v 107.107880 -3.628258 19.205095
v 115.642609 -5.090544 18.850182
v 114.539818 12.088795 17.826572
v 106.953461 10.164287 -0.000001
v 95.156761 14.480917 0.000000
v 97.453835 -13.621162 -17.149580
v 122.191734 -0.523843 -17.648672
v 123.000679 8.782458 -11.636443
v 79.514511 -15.210553 -12.876586
v 67.979431 -16.826771 -10.827461
v 97.851044 -11.819074 -22.951145
v 67.831299 -8.508306 -12.298148
v 96.208839 12.225706 -15.716476
v 68.688103 16.797455 -9.820166
v 112.672813 13.497722 -15.887799
v 107.107849 -5.610100 -15.865539
v 115.642540 -5.090555 -15.510639
v 114.539917 12.088794 -16.069017
v 97.599312 -5.672240 -18.489714
v 88.522858 4.053448 -19.417351
v 79.515556 -7.481584 -21.847794
v 79.511299 5.168897 -25.299070
v 67.983551 5.691336 -15.286372
v 79.345230 15.375476 -16.250685
v 106.953476 12.146182 -10.886533
v 88.941193 -13.200587 -16.754827
v 88.410492 -6.743262 -13.044503
v 88.213600 12.583165 -7.376595
v 88.174919 15.245448 -16.850433
v 96.880936 4.925970 -10.851935
v 107.664963 -10.048369 -9.899140
v 117.834229 -6.061103 -10.588354
v 124.093384 -0.359289 -10.469629
v 124.960922 8.851849 -7.982052
v 118.947830 12.586756 -6.481720
v 111.144409 -10.668842 -20.943132
v 122.191742 -0.523843 -21.442221
v 123.000679 8.782460 -17.463688
v 107.107857 -3.628230 -19.205099
v 115.642548 -5.090552 -18.850216
v 114.539948 12.088794 -17.826576
v 106.953491 10.164315 -0.000001
v 117.161880 13.908340 9.520354
v 91.332573 -7.719423 8.909031
v 92.419701 7.857614 12.340747
v 91.860390 -0.145837 0.000000
v 91.124306 -10.698752 -0.000001
v 92.554398 9.789556 20.903698
v 107.147026 0.097259 20.847603
v 107.011971 7.012705 23.544403
v 111.303955 9.739458 23.831306
v 111.622063 -2.814379 26.166801
v 115.728012 0.264493 26.184200
v 115.865967 7.207082 -0.000001
v 122.202003 -2.804394 5.519422
v 123.341003 -0.288287 5.644170
v 125.979004 5.143853 0.000000
v 126.774002 8.180904 0.000000
v 98.046051 -10.960112 8.847208
v 98.209358 -7.853010 11.724611
v 98.617065 -0.095861 8.531590
v 99.057678 8.306238 -0.000000
v 99.167557 10.377835 28.039499
v 103.616997 6.144441 28.232901
v 103.764008 0.468571 33.137104
v 111.676994 6.044353 30.670498
v 107.721024 -1.842649 45.882812
v 92.817688 5.221416 48.243690
v 96.572601 7.532944 45.628487
v 92.772888 -0.169286 50.570675
v 100.195770 5.665367 48.018124
v 96.520889 -3.080508 32.970802
v 111.516998 0.175178 50.401733
v 100.354172 -0.967913 29.871998
v 108.091988 8.631721 30.468098
v 102.177025 5.724670 35.256195
v 110.276024 6.031680 33.851288
v 105.701004 8.413173 31.771595
v 106.961983 8.656332 35.132000
v 110.077988 0.107369 32.968910
v 106.254982 -1.954781 30.569302
v 102.282982 0.415616 12.381103
v 119.926727 -0.050045 12.000805
v 120.840622 8.811098 11.164601
v 107.776001 -5.939741 10.554200
v 115.753838 11.528563 12.968101
v 109.423027 -0.051737 13.338787
v 108.733635 7.790157 12.403703
v 115.309608 -3.414036 16.983805
v 120.304649 8.615494 12.752406
v 122.256424 4.798627 15.642730
v 110.449013 7.390084 15.068601
v 115.150085 10.886283 18.071798
v 114.260437 9.937594 14.426599
v 110.797791 0.057144 16.915600
v 120.205643 0.021058 18.004604
v 114.415993 -2.299941 21.556000
v 118.717171 7.313035 17.456699
v 121.243820 4.473962 21.422400
v 118.680397 0.615525 7.038139
v 115.210258 -6.974125 -0.000000
v 107.180305 -10.876550 7.382102
v 107.281311 -9.748434 -0.000000
v 115.153000 -8.612533 0.000000
v 116.402008 11.867847 0.000000
v 122.281998 10.394646 -0.000000
v 119.448997 -5.397122 6.144640
v 119.657616 -4.208942 8.725972
v 121.670441 -0.157839 9.315512
v 123.752472 5.013762 6.170479
v 122.457268 9.676752 15.331701
v 115.228485 -2.551772 9.714606
v 107.893684 10.678172 -0.000001
v 108.119003 11.900848 5.446900
v 132.238007 4.085382 4.901290
v 130.072998 -1.005236 -0.000000
v 133.220993 6.875415 0.000001
v 128.725998 -3.807696 35.612404
v 98.507584 -0.413990 38.209110
v 102.813980 -3.251600 40.890602
v 106.898987 -0.883264 40.991192
v 106.862015 6.128321 38.138901
v 102.795036 8.740201 35.588295
v 98.507317 5.738892 41.660862
v 95.151093 5.433641 43.992836
v 99.190208 8.040809 43.956261
v 99.126816 -3.151356 41.614628
v 95.071007 -0.267347 46.292309
v 103.173019 5.872129 46.296005
v 103.179390 -0.931372 -9.520350
v 91.332573 -7.719426 -8.909030
v 92.419701 7.857615 -12.340747
v 91.860390 -0.145837 -20.903698
v 107.147003 0.097291 -20.847599
v 107.012001 7.012737 -23.544374
v 111.303963 9.739457 -23.831306
v 111.622017 -2.814381 -26.166801
v 115.727997 0.264460 -26.184204
v 115.865997 7.207045 -5.519420
v 123.341003 -0.288287 -5.644170
v 125.979004 5.143853 -8.847206
v 98.209358 -7.853010 -11.724611
v 98.617065 -0.095861 -8.531590
v 99.057678 8.306238 -28.039501
v 103.617004 6.144458 -28.232895
v 103.763985 0.468594 -33.137104
v 111.677017 6.044329 -30.670498
v 107.720993 -1.842650 -45.882812
v 92.817688 5.221412 -48.243698
v 96.572586 7.532942 -45.628483
v 92.772888 -0.169290 -50.570679
v 100.195763 5.665370 -48.018116
v 96.520897 -3.080507 -32.970795
v 111.516998 0.175151 -50.401733
v 100.354179 -0.967909 -29.872009
v 108.092033 8.631718 -30.468100
v 102.177010 5.724669 -35.256207
v 110.276001 6.031680 -33.851307
v 105.701019 8.413170 -31.771606
v 106.962006 8.656330 -35.132000
v 110.077988 0.107372 -32.968903
v 106.254990 -1.954780 -30.569298
v 102.282990 0.415612 -12.381103
v 119.932007 -0.045495 -12.000803
v 120.830009 8.817046 -11.164600
v 107.776001 -5.939741 -10.554199
v 115.741989 11.526046 -12.968100
v 109.423981 -0.054168 -13.338783
v 108.731987 7.787526 -12.403700
v 115.316002 -3.415903 -16.983799
v 120.298004 8.620025 -12.752401
v 122.252998 4.807286 -15.642727
v 110.447075 7.387588 -15.068601
v 115.141998 10.884847 -18.071791
v 114.254990 9.936345 -14.426603
v 110.799004 0.054681 -16.915600
v 120.209000 0.025469 -18.004602
v 114.419991 -2.301082 -21.556004
v 118.716011 7.313917 -17.456699
v 121.241997 4.479655 -21.422400
v 118.681007 0.616390 -7.038140
v 115.216003 -6.975935 -7.382102
v 107.281311 -9.748433 -6.144640
v 119.658989 -4.208764 -8.725970
v 121.674004 -0.153881 -9.315512
v 123.750000 5.020175 -6.170481
v 122.455009 9.677944 -15.331700
v 115.234009 -2.553073 -9.714609
v 107.883003 10.665146 -5.446900
v 132.238007 4.085383 -4.901289
v 130.072998 -1.005237 -35.612400
v 98.507599 -0.414000 -38.209099
v 102.814003 -3.251600 -40.890598
v 106.899002 -0.883255 -40.991199
v 106.862000 6.128329 -38.138901
v 102.794991 8.740200 -35.588299
v 98.507301 5.738880 -41.660870
v 95.151093 5.433634 -43.992847
v 99.190208 8.040810 -43.956261
v 99.126846 -3.151356 -41.614635
v 95.071030 -0.267354 -46.292320
v 103.173019 5.872137 -46.296021
v 103.179420 -0.931366 5.778978
v 98.423965 -14.569281 4.086352
v 94.390327 -15.223497 0.000000
v 92.719536 -15.494476 -4.086355
v 94.390327 -15.223497 -5.778974
v 98.423965 -14.569281 -4.086353
v 102.457611 -13.915051 0.000000
v 104.128403 -13.644068 4.086357
v 102.457611 -13.915052 4.086356
v 102.212845 -12.159081 0.000000
v 103.883636 -11.888098 -4.086349
v 102.212845 -12.159082 -5.778974
v 98.179199 -12.813312 -4.086351
v 94.145554 -13.467529 0.000000
v 92.474770 -13.738508 4.086352
v 94.145554 -13.467529 5.778974
v 98.179199 -12.813313 1.390842
v 102.780479 -13.194758 0.000000
v 103.204842 -13.125930 8.518534
v 125.102852 4.631141 7.295906
v 126.103645 4.444521 7.409766
v 123.014053 -1.012813 7.366946
v 119.751045 -4.499530 6.445569
v 115.233688 -8.735954 4.400360
v 110.040085 -11.710644 5.739838
v 109.552696 -11.779472 7.834950
v 114.683243 -8.804657 8.790148
v 119.311661 -4.568337 8.980296
v 122.582001 -1.073914 4.841352
v 126.133545 7.378320 4.894807
v 127.335258 6.829475 -0.000000
v 126.715805 9.103308 0.000000
v 127.917519 8.597221 -1.390841
v 102.780479 -13.194757 -8.518534
v 125.101837 4.634995 -7.295906
v 126.103653 4.444520 -7.409764
v 123.016335 -1.010259 -7.366942
v 119.752487 -4.499286 -6.445564
v 115.240463 -8.737826 -4.400360
v 110.040085 -11.710644 -5.739839
v 109.552696 -11.779474 -7.834949
v 114.690063 -8.806655 -8.790142
v 119.313110 -4.568115 -8.980297
v 122.584328 -1.071395 -4.841352
v 126.133545 7.378320 -4.894808
v 127.335258 6.829477 9.779046
v 22.092669 -2.668618 9.783232
v 22.091940 10.547684 20.712091
v 22.094393 4.780837 7.254528
v 22.091614 3.989040 19.161621
v 22.093666 -2.289933 17.201143
v 22.093632 10.735078 11.846597
v 45.985401 -6.410856 16.562500
v 47.054501 -3.579614 6.983569
v 46.225998 -4.350835 20.219301
v 39.115204 4.019581 15.545598
v 39.438503 10.934763 7.938620
v 39.078903 11.214363 4.905759
v 37.495201 3.546324 14.499197
v 22.093155 -4.422735 -9.779049
v 22.092670 -2.668620 -9.783232
v 22.091942 10.547684 -20.712090
v 22.094400 4.780823 -7.254531
v 22.091618 3.989054 -19.161619
v 22.093664 -2.289930 -17.201143
v 22.093630 10.735078 -11.846600
v 45.985401 -6.410856 -16.562500
v 47.054504 -3.579616 -6.983572
v 46.226006 -4.350837 -20.219303
v 39.115204 4.019587 -15.545598
v 39.438503 10.934765 -7.938622
v 39.078896 11.214366 -4.905760
v 37.495201 3.546329 -14.499201
v 22.093153 -4.422736 7.925182
v 73.903114 -11.658244 19.106871
v 72.051559 1.549830 14.648754
v 76.304314 -7.964557 10.581115
v 74.416801 14.483364 16.628174
v 76.760780 8.690666 0.486943
v 64.120117 0.676236 1.554577
v 65.589928 -8.969392 22.929968
v 64.339943 6.882846 10.104539
v 59.990963 -12.771941 2.966178
v 58.657558 -9.543641 0.718692
v 58.118465 1.767433 11.735153
v 69.819878 12.785908 17.106991
v 62.561760 -9.369504 3.919955
v 50.846230 -10.917973 1.732030
v 41.926090 3.298066 5.667762
v 43.990341 15.404979 17.078432
v 44.852448 15.212871 18.849066
v 52.498764 -10.529454 24.012472
v 44.081341 2.969241 3.958336
v 58.762989 13.659092 14.089442
v 61.268822 13.482450 12.123678
v 45.528267 -13.888088 4.431539
v 45.323475 -10.720900 19.740961
v 46.687115 -10.112429 12.578030
v 40.897728 -12.505575 20.222298
v 42.575214 -8.063228 4.947716
v 41.275253 -9.273308 2.469720
v 65.038094 12.630015 11.326830
v 51.471142 -14.074316 0.000000
v 65.849800 -9.612722 24.019636
v 48.967266 2.798239 16.756861
v 48.368134 14.505249 5.410585
v 47.232571 14.725060 1.369931
v 45.479813 2.856266 8.592248
v 69.480316 -11.655436 15.452814
v 71.788719 -8.300821 0.932842
v 69.126083 14.445512 17.492390
v 71.156242 9.031191 23.873947
v 50.559856 2.439516 15.547008
v 53.922375 15.131389 4.742894
v 52.096436 15.284031 0.817777
v 50.945408 2.551460 13.886385
v 81.373375 -7.835500 9.085691
v 83.065353 13.709133 16.440802
v 82.052734 0.565261 7.177709
v 81.054192 -11.663418 14.844927
v 82.567467 8.102716 18.006969
v 77.380882 0.922200 20.144741
v 63.653397 -5.881197 23.468073
v 51.297714 -5.055600 18.832695
v 63.737846 10.200341 21.052834
v 51.523720 10.247559 18.387327
v 71.292099 -5.609993 20.943140
v 69.719193 6.591271 23.804230
v 54.167038 6.792356 23.317213
v 64.739357 -1.848541 25.160200
v 53.992142 -1.752779 21.970642
v 69.783173 -1.963943 0.434244
v 35.901398 4.576129 4.750440
v 35.065380 -9.481421 18.542824
v 38.912796 18.683565 5.760839
v 38.283684 18.939758 13.295984
v 35.182186 -13.682231 22.743851
v 36.361237 -7.917330 27.071476
v 38.035145 4.423385 13.403337
v 31.769180 2.431910 3.951674
v 33.575745 4.053770 7.216392
v 32.722076 -6.579184 17.452618
v 35.679508 14.724460 7.980644
v 35.156349 14.918241 13.483973
v 33.031746 -9.756623 20.630220
v 33.749550 -5.396123 23.964321
v 35.064270 3.577328 -0.000001
v 64.687462 0.604781 0.000001
v 66.457321 8.694965 0.000000
v 83.175751 14.861813 0.000001
v 72.603607 -12.652293 0.000000
v 75.176773 15.371415 -7.925178
v 73.903114 -11.658243 -19.106871
v 72.051567 1.549831 -14.648758
v 76.304314 -7.964557 -10.581115
v 74.416817 14.483364 -16.628174
v 76.760780 8.690666 -0.486943
v 64.120110 0.676234 -1.554580
v 65.589928 -8.969393 -22.929968
v 64.339943 6.882850 -10.104541
v 59.990959 -12.771943 -2.966175
v 58.657558 -9.543641 -0.718694
v 58.118469 1.767444 -11.735150
v 69.819885 12.785909 -17.106991
v 62.561764 -9.369501 -3.919955
v 50.846230 -10.917972 -1.732030
v 41.926090 3.298078 -5.667761
v 43.990341 15.404979 -17.078430
v 44.852459 15.212871 -18.849068
v 52.498768 -10.529449 -24.012474
v 44.081341 2.969250 -3.958340
v 58.762985 13.659093 -14.089443
v 61.268818 13.482452 -12.123680
v 45.528271 -13.888090 -4.431543
v 45.323475 -10.720902 -19.740965
v 46.687115 -10.112431 -12.578030
v 40.897728 -12.505575 -20.222298
v 42.575214 -8.063224 -4.947714
v 41.275246 -9.273307 -2.469719
v 65.038116 12.630015 -11.326830
v 51.471149 -14.074316 -24.019630
v 48.967266 2.798257 -16.756863
v 48.368134 14.505253 -5.410586
v 47.232574 14.725062 -1.369931
v 45.479813 2.856277 -8.592246
v 69.480316 -11.655439 -15.452810
v 71.788719 -8.300826 -0.932841
v 69.126083 14.445510 -17.492390
v 71.156242 9.031191 -23.873945
v 50.559856 2.439543 -15.547008
v 53.922379 15.131389 -4.742896
v 52.096436 15.284031 -0.817777
v 50.945404 2.551468 -13.886387
v 81.373375 -7.835505 -9.085691
v 83.065361 13.709134 -16.440804
v 82.052734 0.565271 -7.177712
v 81.054192 -11.663419 -14.844927
v 82.567467 8.102715 -18.006973
v 77.380882 0.922201 -20.144739
v 63.653393 -5.881197 -23.468079
v 51.297718 -5.055598 -18.832703
v 63.737846 10.200345 -21.052832
v 51.523724 10.247561 -18.387327
v 71.292099 -5.609996 -20.943136
v 69.719193 6.591272 -23.804230
v 54.167034 6.792358 -23.317217
v 64.739357 -1.848545 -25.160200
v 53.992138 -1.752779 -21.970640
v 69.783173 -1.963950 -0.434247
v 35.901398 4.576130 -4.750438
v 35.065384 -9.481418 -18.542824
v 38.912796 18.683561 -5.760839
v 38.283684 18.939758 -13.295989
v 35.182182 -13.682234 -22.743853
v 36.361237 -7.917330 -27.071478
v 38.035145 4.423405 -13.403337
v 31.769176 2.431910 -3.951676
v 33.575745 4.053770 -7.216390
v 32.722076 -6.579184 -17.452618
v 35.679508 14.724460 -7.980642
v 35.156353 14.918241 -13.483973
v 33.031715 -9.756531 -20.630222
v 33.749546 -5.396123 -23.964319
v 35.064270 3.577340 0.000001
v 80.945839 -13.592459 -2.525482
v 95.880630 -15.429502 -3.571565
v 98.373535 -15.025181 -2.525477
v 100.866455 -14.620847 0.000000
v 101.899040 -14.453370 2.525485
v 100.866440 -14.620846 3.571569
v 98.373535 -15.025180 2.525482
v 95.880630 -15.429502 0.000000
v 94.848030 -15.596975 -2.262771
v 95.803894 -13.047886 -3.200042
v 98.037476 -12.685618 -2.262770
v 100.271057 -12.323349 0.000000
v 101.196251 -12.173292 2.262776
v 100.271065 -12.323349 3.200049
v 98.037476 -12.685617 2.262771
v 95.803894 -13.047884 0.000000
v 94.878708 -13.197934 -1.488623
v 94.640587 -14.903917 1.499122
v 94.640587 -14.903916 -3.580910
v 96.820206 -14.576067 -0.626636
v 97.608765 -14.457455 0.637125
v 97.608765 -14.457453 3.591401
v 96.820206 -14.576067 -3.580910
v 99.553429 -14.164946 -0.626630
v 98.764862 -14.283558 0.637121
v 98.764862 -14.283558 3.591400
v 99.553429 -14.164947 -1.488628
v 101.733047 -13.837095 1.499114
v 101.733047 -13.837096 18.489714
v 88.522858 4.053448 21.847794
v 79.511299 5.168895 25.299070
v 67.983543 5.691333 16.850433
v 96.880936 4.925968 17.648674
v 123.007515 8.774771 10.469631
v 124.967255 8.844501 21.442223
v 123.002228 8.780510 0.000000
v 97.453835 -13.621162 0.000000
v 89.123466 -14.898594 0.000000
v 79.515907 -16.900928 -0.000002
v 67.952423 -18.437380 0.000000
v 108.238029 -12.041524 -21.847794
v 79.511299 5.168897 -18.489714
v 88.522858 4.053448 -25.299070
v 67.983551 5.691336 -0.000001
v 95.156761 14.480917 0.000000
v 68.692459 19.311977 -0.000000
v 79.208809 17.799582 -0.000001
v 112.233833 14.818215 0.000437
v 87.678139 15.575450 -16.850433
v 96.880936 4.925970 -17.648672
v 123.000679 8.782458 -10.469629
v 124.960922 8.851849 -0.000001
v 117.161880 13.908340 -21.442221
v 123.000679 8.782460 12.340747
v 91.860390 -0.145837 11.724611
v 98.617065 -0.095861 28.039499
v 103.616997 6.144441 20.847603
v 107.011971 7.012705 30.468098
v 102.177025 5.724670 35.588295
v 98.507317 5.738892 15.642730
v 110.449013 7.390084 13.338787
v 108.733635 7.790157 41.660862
v 95.151093 5.433641 45.882812
v 92.817688 5.221416 -12.340747
v 91.860390 -0.145837 -11.724611
v 98.617065 -0.095861 -20.847599
v 107.012001 7.012737 -28.039501
v 103.617004 6.144458 -30.468100
v 102.177010 5.724669 -35.588299
v 98.507301 5.738880 -15.642727
v 110.447075 7.387588 -13.338783
v 108.731987 7.787526 -41.660870
v 95.151093 5.433634 -45.882812
v 92.817688 5.221412 0.000000
v 103.204842 -13.125930 -0.000000
v 126.715805 9.103308 0.000000
v 127.917519 8.597221 4.905759
v 37.495201 3.546324 7.254528
v 22.091614 3.989040 -4.905760
v 37.495201 3.546329 -7.254531
v 22.091618 3.989054 0.486943
v 64.120117 0.676236 1.369931
v 45.479813 2.856266 0.817777
v 50.945408 2.551460 0.718692
v 58.118465 1.767433 -0.000001
v 64.687462 0.604781 1.732030
v 41.926090 3.298066 0.434244
v 35.901398 4.576129 3.951674
v 33.575745 4.053770 0.000001
v 66.457321 8.694965 -0.000001
v 64.687462 0.604781 -0.486943
v 64.120110 0.676234 -1.369931
v 45.479813 2.856277 -0.817777
v 50.945404 2.551468 -0.718694
v 58.118469 1.767444 0.000000
v 65.849800 -9.612722 -0.000001
v 64.687462 0.604781 -1.732030
v 41.926090 3.298078 0.000001
v 72.603607 -12.652293 0.000000
v 75.176773 15.371415 0.000001
v 80.945839 -13.592459 0.000000
v 83.175751 14.861813 -0.434247
v 35.901398 4.576130 -3.951676
v 33.575745 4.053770 0.317633

vt 0.066168 0.760479
vt 0.016568 0.760418
vt 0.066169 0.682668
vt 0.016597 0.841810
vt 0.066202 0.928368
vt 0.016569 0.928120
vt 0.066113 0.841872
vt 0.016593 0.613091
vt 0.016635 0.613245
vt 0.066204 0.991951
vt 0.066125 0.992178
vt 0.016668 0.508381
vt 0.016675 0.508625
vt 0.066038 0.682367
vt 0.066168 0.760479
vt 0.016568 0.682668
vt 0.016597 0.928368
vt 0.016569 0.841872
vt 0.016593 0.841810
vt 0.066202 0.928120
vt 0.066113 0.760418
vt 0.066169 0.613091
vt 0.016635 0.613245
vt 0.066204 0.992178
vt 0.016668 0.991951
vt 0.066125 0.508381
vt 0.016675 0.508625
vt 0.066038 0.992398
vt 0.491962 0.992398
vt 0.571483 0.480600
vt 0.588747 0.480600
vt 0.500873 0.992398
vt 0.405027 0.846287
vt 0.841222 0.676406
vt 0.903975 0.902981
vt 0.491951 0.893452
vt 0.405032 0.904329
vt 0.643238 0.809418
vt 0.405001 0.593171
vt 0.658736 0.616508
vt 0.405215 0.570489
vt 0.809439 0.856550
vt 0.718531 0.856731
vt 0.787952 0.656835
vt 0.826530 0.855076
vt 0.641190 0.682483
vt 0.587572 0.836573
vt 0.491959 0.703787
vt 0.503488 0.733632
vt 0.405046 0.612788
vt 0.502052 0.663609
vt 0.757087 0.904697
vt 0.570014 0.850804
vt 0.565739 0.598859
vt 0.589236 0.547474
vt 0.584418 0.789156
vt 0.635347 0.904130
vt 0.723063 0.911874
vt 0.805805 0.906274
vt 0.856690 0.892694
vt 0.920251 0.553663
vt 0.866878 0.939677
vt 0.751364 0.480600
vt 0.805421 0.992398
vt 0.727724 0.480600
vt 0.405216 0.812052
vt 0.841222 0.718471
vt 0.903975 0.833080
vt 0.718531 0.826189
vt 0.787952 0.694745
vt 0.826530 0.685375
vt 0.757087 0.480600
vt 0.658191 0.992398
vt 0.640007 0.846287
vt 0.841222 0.676406
vt 0.903975 0.902981
vt 0.491951 0.893452
vt 0.405032 0.904329
vt 0.643238 0.809418
vt 0.405001 0.593171
vt 0.658736 0.616508
vt 0.405215 0.570489
vt 0.809439 0.856550
vt 0.718531 0.856731
vt 0.787952 0.656835
vt 0.826530 0.855076
vt 0.641190 0.682483
vt 0.587572 0.836573
vt 0.491959 0.703787
vt 0.503488 0.733632
vt 0.405046 0.612788
vt 0.502052 0.663609
vt 0.757087 0.904697
vt 0.570014 0.850804
vt 0.565739 0.598859
vt 0.589236 0.547474
vt 0.584418 0.789156
vt 0.635347 0.904130
vt 0.723063 0.911874
vt 0.805805 0.906274
vt 0.856690 0.892694
vt 0.920251 0.553663
vt 0.866878 0.939677
vt 0.751364 0.812052
vt 0.841222 0.718471
vt 0.903975 0.833080
vt 0.718531 0.826189
vt 0.787952 0.694745
vt 0.826530 0.685375
vt 0.757087 0.480600
vt 0.850530 0.364215
vt 0.511387 0.231334
vt 0.895886 0.190444
vt 0.877415 0.421917
vt 0.511809 0.276305
vt 0.929652 0.204777
vt 0.604733 0.204738
vt 0.808216 0.204760
vt 0.773684 0.204781
vt 0.648405 0.204780
vt 0.688741 0.204774
vt 0.735938 0.421871
vt 0.663953 0.381838
vt 0.700614 0.375280
vt 0.759890 0.383729
vt 0.811146 0.421917
vt 0.511809 0.364215
vt 0.511387 0.314003
vt 0.510075 0.231334
vt 0.895886 0.276305
vt 0.929652 0.161821
vt 0.804906 0.161999
vt 0.609000 0.162098
vt 0.729590 0.162100
vt 0.648962 0.036882
vt 0.801434 0.037022
vt 0.766487 0.037008
vt 0.612915 0.037048
vt 0.733313 0.037030
vt 0.651036 0.162139
vt 0.686230 0.037077
vt 0.686301 0.167710
vt 0.768833 0.143627
vt 0.803908 0.143877
vt 0.729192 0.137513
vt 0.765691 0.153340
vt 0.767151 0.143886
vt 0.685786 0.143789
vt 0.649541 0.143717
vt 0.610437 0.320108
vt 0.684784 0.304710
vt 0.768232 0.340377
vt 0.563775 0.286905
vt 0.807873 0.290819
vt 0.575864 0.240993
vt 0.836408 0.320307
vt 0.630399 0.276619
vt 0.754884 0.314404
vt 0.733352 0.237696
vt 0.819699 0.264998
vt 0.794042 0.244209
vt 0.783774 0.272001
vt 0.585800 0.287660
vt 0.691949 0.264922
vt 0.643438 0.245782
vt 0.740506 0.281558
vt 0.725639 0.251772
vt 0.693219 0.371170
vt 0.614479 0.421916
vt 0.562555 0.377250
vt 0.563625 0.421884
vt 0.606938 0.338300
vt 0.853168 0.361434
vt 0.827864 0.421868
vt 0.639598 0.374696
vt 0.652965 0.351592
vt 0.692373 0.340738
vt 0.743292 0.338614
vt 0.791105 0.291000
vt 0.640733 0.262031
vt 0.853482 0.305145
vt 0.890561 0.409325
vt 0.765305 0.416427
vt 0.725935 0.410873
vt 0.805382 0.438335
vt 0.699914 0.099201
vt 0.613116 0.099227
vt 0.649732 0.099251
vt 0.684440 0.099310
vt 0.728946 0.099320
vt 0.764820 0.099128
vt 0.802777 0.062410
vt 0.801985 0.063229
vt 0.765786 0.062785
vt 0.650496 0.061931
vt 0.612996 0.064855
vt 0.731363 0.063916
vt 0.685498 0.364215
vt 0.511387 0.231334
vt 0.895886 0.190444
vt 0.877415 0.204777
vt 0.604733 0.204738
vt 0.808216 0.204760
vt 0.773684 0.204781
vt 0.648405 0.204780
vt 0.688741 0.204774
vt 0.735938 0.381838
vt 0.700614 0.375280
vt 0.759890 0.364215
vt 0.511387 0.314003
vt 0.510075 0.231334
vt 0.895886 0.161821
vt 0.804906 0.161999
vt 0.609000 0.162098
vt 0.729590 0.162100
vt 0.648962 0.036882
vt 0.801434 0.037022
vt 0.766487 0.037008
vt 0.612915 0.037048
vt 0.733313 0.037030
vt 0.651036 0.162139
vt 0.686230 0.037077
vt 0.686301 0.167710
vt 0.768833 0.143627
vt 0.803908 0.143877
vt 0.729192 0.137513
vt 0.765691 0.153340
vt 0.767151 0.143886
vt 0.685786 0.143789
vt 0.649541 0.143717
vt 0.610437 0.320108
vt 0.684784 0.304710
vt 0.768232 0.340377
vt 0.563775 0.286905
vt 0.807873 0.290819
vt 0.575864 0.240993
vt 0.836408 0.320307
vt 0.630399 0.276619
vt 0.754884 0.314404
vt 0.733352 0.237696
vt 0.819699 0.264998
vt 0.794042 0.244209
vt 0.783774 0.272001
vt 0.585800 0.287660
vt 0.691949 0.264922
vt 0.643438 0.245782
vt 0.740506 0.281558
vt 0.725639 0.251772
vt 0.693219 0.371170
vt 0.614479 0.377250
vt 0.563625 0.374696
vt 0.652965 0.351592
vt 0.692373 0.340738
vt 0.743292 0.338614
vt 0.791105 0.291000
vt 0.640733 0.262031
vt 0.853482 0.409325
vt 0.765305 0.416427
vt 0.725935 0.099201
vt 0.613116 0.099227
vt 0.649732 0.099251
vt 0.684440 0.099310
vt 0.728946 0.099320
vt 0.764820 0.099128
vt 0.802777 0.062410
vt 0.801985 0.063229
vt 0.765786 0.062785
vt 0.650496 0.061931
vt 0.612996 0.064855
vt 0.731363 0.063916
vt 0.685498 0.699914
vt 0.353497 0.600880
vt 0.312473 0.559862
vt 0.213437 0.600880
vt 0.312473 0.699914
vt 0.353497 0.798949
vt 0.312479 0.839974
vt 0.213445 0.798949
vt 0.312479 0.817765
vt 0.331296 0.866584
vt 0.213446 0.817765
vt 0.331296 0.699913
vt 0.380108 0.582063
vt 0.331289 0.533251
vt 0.213436 0.582063
vt 0.331289 0.699913
vt 0.380108 0.993123
vt 0.955137 0.993048
vt 0.990105 0.217163
vt 0.955130 0.217096
vt 0.989958 0.371854
vt 0.990420 0.490502
vt 0.990033 0.646297
vt 0.990133 0.801062
vt 0.990099 0.801277
vt 0.955137 0.646578
vt 0.955133 0.490550
vt 0.955133 0.372210
vt 0.955135 0.125137
vt 0.955154 0.126231
vt 0.989941 0.006774
vt 0.955152 0.006906
vt 0.989938 0.993123
vt 0.955137 0.217163
vt 0.955130 0.217096
vt 0.989958 0.371854
vt 0.990420 0.490502
vt 0.990033 0.646297
vt 0.990133 0.801062
vt 0.990099 0.801277
vt 0.955137 0.646578
vt 0.955133 0.490550
vt 0.955133 0.372210
vt 0.955135 0.125137
vt 0.955154 0.126231
vt 0.989941 0.946859
vt 0.083372 0.783035
vt 0.083253 0.857038
vt 0.083208 0.983369
vt 0.083334 0.894943
vt 0.083262 0.821251
vt 0.083196 0.922532
vt 0.211632 0.893837
vt 0.211736 0.949526
vt 0.211781 0.856740
vt 0.165154 0.816916
vt 0.166257 0.780478
vt 0.167126 0.989162
vt 0.165703 0.921062
vt 0.083336 0.946859
vt 0.083372 0.783035
vt 0.083253 0.857038
vt 0.083208 0.983369
vt 0.083334 0.894943
vt 0.083262 0.821251
vt 0.083196 0.922532
vt 0.211632 0.893837
vt 0.211736 0.949526
vt 0.211781 0.856740
vt 0.165154 0.816916
vt 0.166257 0.780478
vt 0.167126 0.989162
vt 0.165703 0.921062
vt 0.083336 0.391109
vt 0.427574 0.255124
vt 0.397734 0.328943
vt 0.434227 0.147650
vt 0.423785 0.204599
vt 0.430133 -0.005424
vt 0.355150 0.466064
vt 0.380246 0.224178
vt 0.314575 0.389412
vt 0.305806 0.446158
vt 0.296812 0.521846
vt 0.277494 0.152951
vt 0.391174 0.332646
vt 0.312984 0.434861
vt 0.199362 0.488161
vt 0.113505 0.103710
vt 0.139812 0.168879
vt 0.145489 0.329717
vt 0.221190 0.243161
vt 0.142539 0.088420
vt 0.307223 0.157013
vt 0.314080 0.369757
vt 0.172485 0.428383
vt 0.161787 0.323012
vt 0.177913 0.361188
vt 0.131560 0.305757
vt 0.136441 0.419257
vt 0.123981 0.078465
vt 0.370375 0.377886
vt 0.210465 0.475273
vt 0.396591 0.245342
vt 0.185099 0.163823
vt 0.186766 0.100994
vt 0.175868 0.022642
vt 0.156134 0.393304
vt 0.391659 0.332421
vt 0.400297 0.075704
vt 0.400006 0.201510
vt 0.391687 0.246883
vt 0.205782 0.157789
vt 0.230175 0.093618
vt 0.218663 0.011253
vt 0.189180 0.324476
vt 0.470280 0.157938
vt 0.475010 0.259802
vt 0.468293 0.379898
vt 0.476314 0.205938
vt 0.469483 0.259085
vt 0.434013 0.306330
vt 0.315628 0.291337
vt 0.204461 0.193292
vt 0.317011 0.197765
vt 0.210309 0.306436
vt 0.391048 0.224870
vt 0.380000 0.225355
vt 0.223326 0.276460
vt 0.319018 0.271455
vt 0.222230 0.276329
vt 0.379140 0.485283
vt 0.071777 0.416379
vt 0.082254 0.166000
vt 0.103761 0.100832
vt 0.098085 0.358310
vt 0.089832 0.302879
vt 0.094713 0.239297
vt 0.098426 0.293275
vt 0.010942 0.459246
vt 0.032629 0.399252
vt 0.041751 0.181250
vt 0.060478 0.124508
vt 0.055535 0.348692
vt 0.048350 0.300428
vt 0.052600 0.246106
vt 0.057662 -0.007198
vt 0.375823 0.036681
vt 0.388623 0.085221
vt 0.481924 0.456805
vt 0.444600 0.067181
vt 0.432332 0.391109
vt 0.427574 0.255124
vt 0.397734 0.328943
vt 0.434227 0.147650
vt 0.423785 0.204599
vt 0.430133 -0.005424
vt 0.355150 0.466064
vt 0.380246 0.224178
vt 0.314575 0.389412
vt 0.305806 0.446158
vt 0.296812 0.521846
vt 0.277494 0.152951
vt 0.391174 0.332646
vt 0.312984 0.434861
vt 0.199362 0.488161
vt 0.113505 0.103710
vt 0.139812 0.168879
vt 0.145489 0.329717
vt 0.221190 0.243161
vt 0.142539 0.088420
vt 0.307223 0.157013
vt 0.314080 0.369757
vt 0.172485 0.428383
vt 0.161787 0.323012
vt 0.177913 0.361188
vt 0.131560 0.305757
vt 0.136441 0.419257
vt 0.123981 0.078465
vt 0.370375 0.377886
vt 0.210465 0.245342
vt 0.185099 0.163823
vt 0.186766 0.100994
vt 0.175868 0.022642
vt 0.156134 0.393304
vt 0.391659 0.332421
vt 0.400297 0.075704
vt 0.400006 0.201510
vt 0.391687 0.246883
vt 0.205782 0.157789
vt 0.230175 0.093618
vt 0.218663 0.011253
vt 0.189180 0.324476
vt 0.470280 0.157938
vt 0.475010 0.259802
vt 0.468293 0.379898
vt 0.476314 0.205938
vt 0.469483 0.259085
vt 0.434013 0.306330
vt 0.315628 0.291337
vt 0.204461 0.193292
vt 0.317011 0.197765
vt 0.210309 0.306436
vt 0.391048 0.224870
vt 0.380000 0.225355
vt 0.223326 0.276460
vt 0.319018 0.271455
vt 0.222230 0.276329
vt 0.379140 0.485283
vt 0.071777 0.416379
vt 0.082254 0.166000
vt 0.103761 0.100832
vt 0.098085 0.358310
vt 0.089832 0.302879
vt 0.094713 0.239297
vt 0.098426 0.293275
vt 0.010942 0.459246
vt 0.032629 0.399252
vt 0.041751 0.181250
vt 0.060478 0.124508
vt 0.055535 0.348692
vt 0.048350 0.300428
vt 0.052600 0.246106
vt 0.057662 0.450988
vt 0.492984 0.638660
vt 0.275260 0.700049
vt 0.300691 0.761440
vt 0.275264 0.786870
vt 0.213875 0.761440
vt 0.275264 0.700049
vt 0.300691 0.638660
vt 0.275260 0.613233
vt 0.213869 0.673358
vt 0.240380 0.700049
vt 0.251437 0.726741
vt 0.240382 0.737798
vt 0.213691 0.726741
vt 0.240382 0.700049
vt 0.251437 0.673358
vt 0.240380 0.662303
vt 0.213689 0.102171
vt 0.808982 0.043838
vt 0.808982 0.143021
vt 0.851537 0.085341
vt 0.866933 0.060668
vt 0.866933 0.002988
vt 0.851537 0.143021
vt 0.904900 0.085341
vt 0.889504 0.060668
vt 0.889504 0.002988
vt 0.904900 0.102171
vt 0.947455 0.043838
vt 0.947455 0.786718
vt 0.566644 0.767787
vt 0.491927 0.741266
vt 0.405033 0.669099
vt 0.664888 0.827682
vt 0.904306 0.576434
vt 0.921919 0.793447
vt 0.904306 0.992398
vt 0.640007 0.992398
vt 0.571483 0.992398
vt 0.491962 0.992398
vt 0.405027 0.992398
vt 0.727724 0.767787
vt 0.491927 0.786718
vt 0.566644 0.741266
vt 0.405033 0.480600
vt 0.658191 0.480600
vt 0.405216 0.480600
vt 0.500873 0.480600
vt 0.805421 0.480600
vt 0.588747 0.669099
vt 0.664888 0.827682
vt 0.904306 0.576434
vt 0.921919 0.480600
vt 0.850530 0.793447
vt 0.904306 0.314003
vt 0.510075 0.179642
vt 0.872500 0.161823
vt 0.570091 0.204738
vt 0.560554 0.143641
vt 0.573098 0.099192
vt 0.573587 0.241664
vt 0.543147 0.258751
vt 0.533487 0.062492
vt 0.575089 0.036892
vt 0.574740 0.314003
vt 0.510075 0.179642
vt 0.872500 0.204738
vt 0.560554 0.161823
vt 0.570091 0.143641
vt 0.573098 0.099192
vt 0.573587 0.241664
vt 0.543147 0.258751
vt 0.533487 0.062492
vt 0.575089 0.036892
vt 0.574740 0.993048
vt 0.990105 0.006774
vt 0.955152 0.006906
vt 0.989938 0.739006
vt 0.161028 0.747033
vt 0.083236 0.739006
vt 0.161028 0.747033
vt 0.083236 0.535222
vt 0.349479 0.498328
vt 0.146662 0.505920
vt 0.184571 0.001170
vt 0.288174 0.542078
vt 0.372739 0.037486
vt 0.123646 0.034608
vt 0.081918 0.095678
vt 0.048497 0.036681
vt 0.388623 -0.007198
vt 0.375823 0.535222
vt 0.349479 0.498328
vt 0.146662 0.505920
vt 0.184571 0.001170
vt 0.288174 0.475273
vt 0.396591 0.542078
vt 0.372739 0.037486
vt 0.123646 0.456805
vt 0.444600 0.067181
vt 0.432332 0.450988
vt 0.492984 0.085221
vt 0.481924 0.034608
vt 0.081918 0.095678
vt 0.048497 1.000000

f 329/329 317/317 320/320
f 317/317 329/329 325/325
f 321/321 326/326 319/319
f 326/326 321/321 324/324
f 324/324 321/321 323/323
f 330/330 323/323 321/321
f 325/325 323/323 317/317
f 322/322 319/319 326/326
f 326/326 327/327 322/322
f 322/322 327/327 328/328
f 328/328 318/318 322/322
f 318/318 328/328 572/572
f 572/572 573/573 318/318
f 317/317 323/323 330/330
f 331/331 343/343 334/334
f 343/343 331/331 339/339
f 340/340 335/335 333/333
f 335/335 340/340 338/338
f 335/335 338/338 337/337
f 337/337 344/344 335/335
f 337/337 339/339 331/331
f 333/333 336/336 340/340
f 341/341 340/340 336/336
f 341/341 336/336 342/342
f 332/332 342/342 336/336
f 342/342 332/332 574/574
f 575/575 574/574 332/332
f 337/337 331/331 344/344
f 286/286 285/285 287/287
f 280/280 287/287 286/286
f 287/287 286/286 298/298
f 293/293 298/298 296/296
f 295/295 296/296 297/297
f 294/294 297/297 292/292
f 299/299 292/292 293/293
f 298/298 293/293 300/300
f 301/301 300/300 302/302
f 303/303 302/302 312/312
f 313/313 309/309 308/308
f 309/309 313/313 304/304
f 311/311 569/569 310/310
f 312/312 310/310 309/309
f 310/310 312/312 306/306
f 307/307 305/305 314/314
f 308/308 314/314 313/313
f 314/314 308/308 305/305
f 315/315 306/306 316/316
f 570/570 316/316 571/571
f 316/316 570/570 276/276
f 497/497 275/275 496/496
f 275/275 497/497 277/277
f 498/498 276/276 497/497
f 276/276 498/498 278/278
f 499/499 277/277 498/498
f 277/277 499/499 279/279
f 500/500 278/278 499/499
f 278/278 500/500 272/272
f 501/501 279/279 500/500
f 279/279 501/501 273/273
f 502/502 272/272 501/501
f 272/272 502/502 274/274
f 503/503 273/273 502/502
f 273/273 503/503 275/275
f 496/496 274/274 503/503
f 1/1 2/2 3/3
