# MOD converted: h_m_costume_fireman_glove.mod
# 272 verts, 164 faces

v 96.651268 7.668226 50.411644
v 100.927261 -1.006935 48.148838
v 87.777275 -6.043233 60.069389
v 93.244179 8.056735 54.097832
v 90.936394 -5.012866 58.109291
v 90.092300 -5.144150 57.077713
v 84.777924 -8.673667 55.743847
v 87.542114 -7.349742 54.600929
v 82.080505 -9.681912 51.403130
v 84.718819 -8.655390 52.001083
v 94.213486 8.389282 51.346970
v 88.995049 1.020829 51.539463
v 87.342155 -3.977222 53.633011
v 85.651764 -5.727516 56.030918
v 83.053596 -7.474898 60.196697
v 94.026970 -5.029531 51.176109
v 92.419838 -6.743326 55.103100
v 94.450119 -5.213609 56.532795
v 84.472115 -10.929134 53.732723
v 87.719788 -9.927203 58.859978
v 90.200516 1.436704 60.991730
v 94.529709 1.553931 49.809822
v 89.814919 7.743170 64.207710
v 90.758575 -5.045785 62.285259
v 87.728546 -5.022210 62.955101
v 87.620461 1.596095 64.867111
v 90.873138 1.589745 68.070526
v 86.763985 -4.911996 65.528610
v 85.371185 -4.908286 66.383163
v 85.203751 1.494601 68.969070
v 86.557930 1.453404 57.957672
v 89.474602 8.039659 60.640274
v 94.446877 -1.605890 64.589973
v 90.913742 -2.032561 68.559418
v 86.632759 -2.381293 60.397858
v 94.014099 5.130232 64.532265
v 90.713890 4.495149 68.475311
v 86.647263 4.043845 58.680977
v 90.288055 -1.744128 62.625473
v 87.673630 -2.062086 66.024506
v 85.254623 -2.297156 58.458141
v 89.967407 4.829570 62.696552
v 87.533905 4.365540 65.907654
v 85.325851 4.012611 66.652481
v 86.844841 6.959050 64.249786
v 85.549835 6.901741 61.354935
v 87.956612 7.510748 63.324806
v 90.124069 7.612073 63.111420
v 87.651283 1.325177 65.023430
v 90.903954 1.318827 67.143463
v 84.482582 1.043536 69.909851
v 86.057632 1.002340 64.839554
v 90.931694 -1.664436 69.747314
v 86.124146 -1.705240 63.819576
v 90.804680 4.976699 67.060654
v 87.010780 4.722703 62.875050
v 87.691544 -1.693959 66.971313
v 84.537193 -1.621104 61.850494
v 87.962959 4.742239 64.688782
v 85.669327 4.632996 45.452927
v 92.198578 5.309271 47.876358
v 96.510193 -3.162839 45.138954
v 92.092979 -0.191936 50.723118
v 100.715393 5.762320 41.168850
v 92.220627 8.693657 45.590771
v 99.547478 11.837267 41.041550
v 92.229866 -1.998069 49.062435
v 104.428505 7.445304 45.465065
v 99.531586 -6.188879 49.032326
v 104.492592 -3.138705 49.550354
v 105.207077 2.320970 -50.723118
v 100.715393 5.762321 -48.289726
v 96.651260 7.668225 -52.001083
v 94.213486 8.389282 -60.069386
v 93.244179 8.056733 -57.957672
v 89.474602 8.039658 -47.876358
v 96.510208 -3.162839 -48.148838
v 87.777275 -6.043231 -45.138954
v 92.092979 -0.191939 -49.809822
v 89.814919 7.743171 -51.346970
v 88.995049 1.020830 -51.539463
v 87.342155 -3.977221 -53.633011
v 85.651756 -5.727516 -57.077702
v 84.777924 -8.673664 -55.743851
v 87.542114 -7.349751 -56.030918
v 83.053596 -7.474899 -54.097836
v 90.936386 -5.012866 -51.403133
v 84.718819 -8.655390 -54.600929
v 82.080505 -9.681912 -58.859978
v 90.200516 1.436704 -58.680977
v 90.288048 -1.744128 -60.397858
v 94.014107 5.130232 -60.991734
v 94.529716 1.553929 -55.103096
v 94.450111 -5.213609 -51.176109
v 92.419830 -6.743327 -50.411640
v 100.927261 -1.006933 -60.196697
v 94.026962 -5.029532 -58.109287
v 90.092300 -5.144150 -56.532799
v 84.472115 -10.929133 -53.732723
v 87.719788 -9.927205 -65.528610
v 85.371185 -4.908286 -68.070526
v 86.763985 -4.911996 -66.024506
v 85.254623 -2.297156 -68.559418
v 86.632759 -2.381294 -60.640274
v 94.446892 -1.605891 -45.452927
v 92.198570 5.309267 -58.458145
v 89.967400 4.829571 -64.207703
v 90.758568 -5.045785 -62.285259
v 87.728554 -5.022212 -62.625469
v 87.673637 -2.062086 -65.907654
v 85.325851 4.012611 -66.383163
v 85.203751 1.494601 -68.475311
v 86.647263 4.043845 -68.969070
v 86.557930 1.453404 -62.955101
v 87.620461 1.596094 -62.696556
v 87.533905 4.365540 -64.589966
v 90.913750 -2.032563 -64.867111
v 90.873138 1.589744 -64.532272
v 90.713882 4.495149 -65.023438
v 90.903961 1.318826 -64.839554
v 90.931694 -1.664437 -69.909851
v 86.057632 1.002340 -69.747314
v 86.124146 -1.705240 -61.354950
v 87.956627 7.510748 -63.324821
v 90.124062 7.612072 -63.819584
v 90.804688 4.976698 -64.249786
v 85.549835 6.901741 -66.652473
v 86.844841 6.959051 -67.060654
v 87.010780 4.722703 -63.111420
v 87.651283 1.325177 -62.875057
v 87.691544 -1.693959 -67.143463
v 84.482582 1.043536 -66.971313
v 84.537193 -1.621104 -61.850491
v 87.962959 4.742239 -64.688782
v 85.669327 4.632996 -45.590778
v 99.547462 11.837267 -41.168850
v 92.220627 8.693650 -41.041546
v 92.229874 -1.998076 -45.465054
v 99.531593 -6.188878 -49.032318
v 104.492592 -3.138699 -49.550354
v 105.207077 2.320976 -49.062439
v 104.428490 7.445309 45.138954
v 92.092979 -0.191936 48.148838
v 87.777275 -6.043233 54.097832
v 90.936394 -5.012866 54.600929
v 82.080505 -9.681912 51.403130
v 84.718819 -8.655390 55.743847
v 87.542114 -7.349742 57.077713
v 84.777924 -8.673667 57.077713
v 84.777924 -8.673667 56.030918
v 83.053596 -7.474898 49.809822
v 89.814919 7.743170 57.957672
v 89.474602 8.039659 58.109291
v 90.092300 -5.144150 62.285259
v 87.728546 -5.022210 65.528610
v 85.371185 -4.908286 65.528610
v 85.371185 -4.908286 66.024506
v 85.254623 -2.297156 65.907654
v 85.325851 4.012611 66.383163
v 85.203751 1.494601 45.452927
v 92.198578 5.309271 66.024506
v 85.254623 -2.297156 64.589973
v 90.913742 -2.032561 62.625473
v 87.673630 -2.062086 68.559418
v 86.632759 -2.381293 58.680977
v 90.288055 -1.744128 60.640274
v 94.446877 -1.605890 65.907654
v 85.325851 4.012611 64.532265
v 90.713890 4.495149 62.696552
v 87.533905 4.365540 68.475311
v 86.647263 4.043845 58.458141
v 89.967407 4.829570 60.397858
v 94.014099 5.130232 66.383163
v 85.203751 1.494601 64.867111
v 90.873138 1.589745 68.969070
v 86.557930 1.453404 62.955101
v 87.620461 1.596095 58.859978
v 90.200516 1.436704 60.991730
v 94.529709 1.553931 67.143463
v 84.482582 1.043536 66.971313
v 84.537193 -1.621104 61.354935
v 87.956612 7.510748 64.249786
v 85.549835 6.901741 64.688782
v 85.669327 4.632996 64.249786
v 85.549835 6.901741 66.971313
v 84.537193 -1.621104 64.839554
v 90.931694 -1.664436 69.747314
v 86.124146 -1.705240 62.875050
v 87.691544 -1.693959 64.688782
v 85.669327 4.632996 63.819576
v 90.804680 4.976699 67.060654
v 87.010780 4.722703 61.850494
v 87.962959 4.742239 58.458141
v 89.967407 4.829570 60.397858
v 94.014099 5.130232 67.143463
v 84.482582 1.043536 65.023430
v 90.903954 1.318827 63.111420
v 87.651283 1.325177 69.909851
v 86.057632 1.002340 48.289726
v 96.651268 7.668226 45.452927
v 92.198578 5.309271 45.138954
v 92.092979 -0.191936 47.876358
v 96.510193 -3.162839 50.411644
v 100.927261 -1.006935 45.452927
v 92.198578 5.309271 41.168850
v 92.220627 8.693657 50.723118
v 100.715393 5.762320 -45.138954
v 92.092979 -0.191939 -48.148838
v 87.777275 -6.043231 -54.097836
v 90.936386 -5.012866 -54.600929
v 82.080505 -9.681912 -51.403133
v 84.718819 -8.655390 -55.743851
v 87.542114 -7.349751 -57.077702
v 84.777924 -8.673664 -57.077702
v 84.777924 -8.673664 -56.030918
v 83.053596 -7.474899 -49.809822
v 89.814919 7.743171 -57.957672
v 89.474602 8.039658 -58.109287
v 90.092300 -5.144150 -62.285259
v 87.728554 -5.022212 -65.528610
v 85.371185 -4.908286 -65.528610
v 85.371185 -4.908286 -66.024506
v 85.254623 -2.297156 -65.907654
v 85.325851 4.012611 -66.383163
v 85.203751 1.494601 -45.452927
v 92.198570 5.309267 -64.589966
v 90.913750 -2.032563 -66.024506
v 85.254623 -2.297156 -62.625469
v 87.673637 -2.062086 -68.559418
v 86.632759 -2.381294 -58.680977
v 90.288048 -1.744128 -60.640274
v 94.446892 -1.605891 -64.532272
v 90.713882 4.495149 -65.907654
v 85.325851 4.012611 -62.696556
v 87.533905 4.365540 -68.475311
v 86.647263 4.043845 -58.458145
v 89.967400 4.829571 -60.397858
v 94.014107 5.130232 -64.867111
v 90.873138 1.589744 -66.383163
v 85.203751 1.494601 -68.969070
v 86.557930 1.453404 -62.955101
v 87.620461 1.596094 -58.859978
v 90.200516 1.436704 -60.991734
v 94.529716 1.553929 -67.143463
v 84.482582 1.043536 -66.971313
v 84.537193 -1.621104 -61.354950
v 87.956627 7.510748 -64.249786
v 85.549835 6.901741 -64.688782
v 85.669327 4.632996 -64.249786
v 85.549835 6.901741 -64.839554
v 90.931694 -1.664437 -66.971313
v 84.537193 -1.621104 -69.747314
v 86.124146 -1.705240 -62.875057
v 87.691544 -1.693959 -63.819584
v 90.804688 4.976698 -64.688782
v 85.669327 4.632996 -67.060654
v 87.010780 4.722703 -61.850491
v 87.962959 4.742239 -58.458145
v 89.967400 4.829571 -60.397858
v 94.014107 5.130232 -65.023438
v 90.903961 1.318826 -67.143463
v 84.482582 1.043536 -63.111420
v 87.651283 1.325177 -69.909851
v 86.057632 1.002340 -48.289726
v 96.651260 7.668225 -45.452927
v 92.198570 5.309267 -45.138954
v 92.092979 -0.191939 -47.876358
v 96.510208 -3.162839 -50.411640
v 100.927261 -1.006933 -41.168850
v 92.220627 8.693650 -45.452927
v 92.198570 5.309267 -50.723118
v 100.715393 5.762321 0.665901

vt 0.962903 0.654601
vt 0.962878 0.971184
vt 0.853348 0.386918
vt 0.719761 0.788032
vt 0.344974 0.792766
vt 0.685483 0.825043
vt 0.434929 0.805764
vt 0.373121 0.899979
vt 0.461984 0.942053
vt 0.391922 0.344768
vt 0.872465 0.844410
vt 0.183340 0.877008
vt 0.297923 0.883845
vt 0.368996 0.865262
vt 0.435125 0.714034
vt 0.691769 0.861207
vt 0.822605 0.776449
vt 0.779109 0.918269
vt 0.648121 0.894769
vt 0.730044 0.719503
vt 0.186971 0.550490
vt 0.698799 0.246435
vt 0.864313 0.711237
vt 0.598724 0.776264
vt 0.594019 0.643628
vt 0.183189 0.535486
vt 0.594476 0.711487
vt 0.498882 0.728648
vt 0.445704 0.497951
vt 0.425993 0.523100
vt 0.480191 0.308032
vt 0.724288 0.631469
vt 0.695295 0.639591
vt 0.595023 0.650991
vt 0.488866 0.459573
vt 0.711896 0.462650
vt 0.606105 0.459064
vt 0.496593 0.722387
vt 0.254263 0.648017
vt 0.264257 0.666265
vt 0.435413 0.723711
vt 0.114971 0.646967
vt 0.125702 0.435812
vt 0.442339 0.365095
vt 0.551666 0.313668
vt 0.574711 0.319586
vt 0.649678 0.379310
vt 0.642068 0.641392
vt 0.192846 0.545642
vt 0.590473 0.556653
vt 0.195659 0.537634
vt 0.455271 0.620598
vt 0.586222 0.606782
vt 0.451909 0.440703
vt 0.622747 0.417101
vt 0.532936 0.644746
vt 0.249065 0.559307
vt 0.246573 0.663935
vt 0.114790 0.602113
vt 0.116522 0.942627
vt 0.067961 0.789496
vt 0.962858 0.945152
vt 0.962944 0.460290
vt 0.962898 0.086238
vt 0.952936 0.042632
vt 0.831694 0.027010
vt 0.190746 0.027234
vt 0.695960 0.021953
vt 0.333891 0.021415
vt 0.479049 0.022582
vt 0.600198 0.460290
vt 0.962898 0.334099
vt 0.962903 0.344768
vt 0.872465 0.386918
vt 0.719761 0.308032
vt 0.724288 0.789496
vt 0.962858 0.971184
vt 0.853348 0.945152
vt 0.962944 0.246435
vt 0.864313 0.844410
vt 0.183340 0.877008
vt 0.297923 0.883845
vt 0.368996 0.825043
vt 0.434929 0.805764
vt 0.373121 0.865262
vt 0.435125 0.788032
vt 0.344974 0.942053
vt 0.391922 0.899979
vt 0.461984 0.719503
vt 0.186971 0.722387
vt 0.254263 0.459573
vt 0.711896 0.550490
vt 0.698799 0.776449
vt 0.779109 0.861207
vt 0.822605 0.654601
vt 0.962878 0.714034
vt 0.691769 0.792766
vt 0.685483 0.918269
vt 0.648121 0.894769
vt 0.730044 0.728648
vt 0.445704 0.711487
vt 0.498882 0.666265
vt 0.435413 0.650991
vt 0.488866 0.631469
vt 0.695295 0.942627
vt 0.067961 0.723711
vt 0.114971 0.711237
vt 0.598724 0.776264
vt 0.594019 0.648017
vt 0.264257 0.435812
vt 0.442339 0.497951
vt 0.425993 0.459064
vt 0.496593 0.523100
vt 0.480191 0.643628
vt 0.183189 0.646967
vt 0.125702 0.639591
vt 0.595023 0.535486
vt 0.594476 0.462650
vt 0.606105 0.545642
vt 0.590473 0.620598
vt 0.586222 0.537634
vt 0.455271 0.606782
vt 0.451909 0.319586
vt 0.649678 0.379310
vt 0.642068 0.440703
vt 0.622747 0.313668
vt 0.574711 0.365095
vt 0.551666 0.417101
vt 0.532936 0.641392
vt 0.192846 0.644746
vt 0.249065 0.556653
vt 0.195659 0.559307
vt 0.246573 0.663935
vt 0.114790 0.602113
vt 0.116522 0.042632
vt 0.831694 0.086238
vt 0.952936 0.027010
vt 0.190746 0.021953
vt 0.333891 0.021415
vt 0.479049 0.022582
vt 0.600198 0.027234
vt 0.695960 0.970007
vt 0.174053 0.975000
vt 0.307326 0.845164
vt 0.745530 0.970921
vt 0.663884 0.964492
vt 0.748907 0.858993
vt 0.700253 0.879641
vt 0.646839 0.934049
vt 0.604376 0.979429
vt 0.614367 0.853953
vt 0.052170 0.728041
vt 0.046349 0.729109
vt 0.326890 0.653578
vt 0.323815 0.768049
vt 0.517046 0.584901
vt 0.321504 0.576457
vt 0.266014 0.580563
vt 0.131513 0.571997
vt 0.184703 0.194052
vt 0.962892 0.281866
vt 0.349280 0.381262
vt 0.247181 0.286969
vt 0.240542 0.355635
vt 0.386364 0.284394
vt 0.144486 0.400509
vt 0.136406 0.291827
vt 0.316075 0.382887
vt 0.250814 0.287218
vt 0.248761 0.365596
vt 0.353159 0.283288
vt 0.142273 0.399402
vt 0.134192 0.281866
vt 0.349280 0.381262
vt 0.247181 0.355635
vt 0.386364 0.286969
vt 0.240542 0.284394
vt 0.144486 0.400509
vt 0.136406 0.536659
vt 0.401824 0.604701
vt 0.398190 0.672162
vt 0.057508 0.608006
vt 0.068426 0.390125
vt 0.485644 0.337356
vt 0.504693 0.281866
vt 0.349280 0.381262
vt 0.247181 0.355635
vt 0.386364 0.286969
vt 0.240542 0.292934
vt 0.318289 0.383928
vt 0.221593 0.366703
vt 0.355373 0.289635
vt 0.214953 0.284394
vt 0.144486 0.400509
vt 0.136406 0.281866
vt 0.349280 0.381262
vt 0.247181 0.286969
vt 0.240542 0.355635
vt 0.386364 0.159533
vt 0.789883 0.190029
vt 0.907719 0.139854
vt 0.203349 0.134923
vt 0.342000 0.135673
vt 0.482481 0.167057
vt 0.078650 0.047847
vt 0.038757 0.147290
vt 0.661233 0.970007
vt 0.174053 0.975000
vt 0.307326 0.845164
vt 0.745530 0.970921
vt 0.663884 0.964492
vt 0.748907 0.858993
vt 0.700253 0.879641
vt 0.646839 0.934049
vt 0.604376 0.979429
vt 0.614367 0.853953
vt 0.052170 0.728041
vt 0.046349 0.729109
vt 0.326890 0.653578
vt 0.323815 0.768049
vt 0.517046 0.584901
vt 0.321504 0.576457
vt 0.266014 0.580563
vt 0.131513 0.571997
vt 0.184703 0.194052
vt 0.962892 0.381262
vt 0.247181 0.281866
vt 0.349280 0.286969
vt 0.240542 0.355635
vt 0.386364 0.284394
vt 0.144486 0.400509
vt 0.136406 0.382887
vt 0.250814 0.291827
vt 0.316075 0.287218
vt 0.248761 0.365596
vt 0.353159 0.283288
vt 0.142273 0.399402
vt 0.134192 0.381262
vt 0.247181 0.281866
vt 0.349280 0.355635
vt 0.386364 0.286969
vt 0.240542 0.284394
vt 0.144486 0.400509
vt 0.136406 0.536659
vt 0.401824 0.604701
vt 0.398190 0.672162
vt 0.057508 0.608006
vt 0.068426 0.390125
vt 0.485644 0.337356
vt 0.504693 0.381262
vt 0.247181 0.281866
vt 0.349280 0.355635
vt 0.386364 0.286969
vt 0.240542 0.383928
vt 0.221593 0.292934
vt 0.318289 0.366703
vt 0.355373 0.289635
vt 0.214953 0.284394
vt 0.144486 0.400509
vt 0.136406 0.381262
vt 0.247181 0.281866
vt 0.349280 0.286969
vt 0.240542 0.355635
vt 0.386364 0.159533
vt 0.789883 0.190029
vt 0.907719 0.139854
vt 0.203349 0.134923
vt 0.342000 0.135673
vt 0.482481 0.047847
vt 0.038757 0.167057
vt 0.078650 0.147290
vt 0.661233 1.000000

f 200/200 66/66 201/201
f 65/65 201/201 66/66
f 202/202 67/67 203/203
f 69/69 203/203 67/67
f 203/203 69/69 204/204
f 70/70 204/204 69/69
f 204/204 70/70 71/71
f 205/205 206/206 202/202
f 67/67 202/202 206/206
f 207/207 68/68 200/200
f 66/66 200/200 68/68
f 71/71 68/68 207/207
f 207/207 204/204 71/71
f 136/136 265/265 266/266
f 266/266 137/137 136/136
f 138/138 267/267 268/268
f 268/268 139/139 138/138
f 139/139 268/268 269/269
f 269/269 140/140 139/139
f 140/140 269/269 141/141
f 270/270 271/271 267/267
f 267/267 138/138 270/270
f 142/142 272/272 265/265
f 265/265 136/136 142/142
f 142/142 141/141 272/272
f 269/269 272/272 141/141
f 32/32 4/4 11/11
f 4/4 64/64 3/3
f 63/63 62/62 32/32
f 11/11 23/23 143/143
f 13/13 12/12 7/7
f 15/15 7/7 8/8
f 5/5 14/14 13/13
f 14/14 5/5 12/12
f 13/13 5/5 15/15
f 9/9 15/15 10/10
f 13/13 144/144 143/143
f 144/144 13/13 12/12
f 39/39 21/21 22/22
f 64/64 36/36 145/145
f 17/17 18/18 2/2
f 6/6 18/18 19/19
f 17/17 20/20 62/62
f 18/18 17/17 145/145
f 17/17 145/145 148/148
f 20/20 148/148 3/3
f 62/62 17/17 64/64
f 22/22 2/2 36/36
f 64/64 4/4 146/146
f 19/19 150/150 145/145
f 18/18 6/6 150/150
f 151/151 146/146 10/10
f 14/14 13/13 28/28
f 28/28 35/35 2/2
f 2/2 22/22 12/12
f 61/61 143/143 12/12
f 152/152 61/61 12/12
f 12/12 21/21 5/5
f 5/5 154/154 6/6
f 25/25 6/6 155/155
f 155/155 40/40 156/156
f 156/156 25/25 157/157
f 157/157 158/158 30/30
f 30/30 31/31 43/43
f 43/43 42/42 159/159
f 159/159 43/43 11/11
f 1/1 23/23 161/161
f 23/23 1/1 12/12
f 153/153 152/152 33/33
f 34/34 35/35 22/22
f 22/22 36/36 27/27
f 27/27 37/37 162/162
f 162/162 165/165 166/166
f 166/166 164/164 168/168
f 168/168 171/171 172/172
f 172/172 170/170 174/174
f 174/174 177/177 175/175
f 175/175 177/177 53/53
f 53/53 33/33 54/54
f 54/54 53/53 48/48
f 48/48 55/55 45/45
f 45/45 56/56 21/21
f 21/21 39/39 49/49
f 49/49 57/57 180/180
f 180/180 181/181 42/42
f 59/59 60/60 184/184
f 184/184 56/56 186/186
f 186/186 189/189 187/187
f 187/187 189/189 190/190
f 190/190 193/193 191/191
f 191/191 193/193 196/196
f 196/196 199/199 178/178
f 178/178 198/198 74/74
f 73/73 72/72 76/76
f 74/74 72/72 79/79
f 78/78 77/77 74/74
f 76/76 80/80 82/82
f 208/208 81/81 85/85
f 84/84 83/83 86/86
f 83/83 84/84 87/87
f 81/81 87/87 83/83
f 86/86 88/88 89/89
f 88/88 86/86 82/82
f 208/208 82/82 91/91
f 81/81 90/90 72/72
f 93/93 92/92 95/95
f 210/210 94/94 97/97
f 96/96 94/94 98/98
f 97/97 94/94 211/211
f 99/99 212/212 100/100
f 100/100 78/78 95/95
f 78/78 100/100 96/96
f 77/77 95/95 94/94
f 96/96 95/95 213/213
f 210/210 100/100 95/95
f 100/100 210/210 214/214
f 213/213 99/99 100/100
f 99/99 213/213 77/77
f 78/78 95/95 93/93
f 92/92 75/75 99/99
f 211/211 215/215 94/94
f 210/210 98/98 216/216
f 215/215 211/211 83/83
f 88/88 82/82 103/103
f 103/103 104/104 105/105
f 105/105 93/93 106/106
f 81/81 208/208 217/217
f 81/81 106/106 107/107
f 107/107 90/90 91/91
f 91/91 219/219 97/97
f 98/98 108/108 109/109
f 108/108 98/98 91/91
f 91/91 110/110 108/108
f 108/108 109/109 110/110
f 110/110 223/223 113/113
f 113/113 114/114 90/90
f 90/90 107/107 115/115
f 115/115 116/116 73/73
f 226/226 73/73 218/218
f 81/81 217/217 108/108
f 108/108 117/117 102/102
f 102/102 104/104 119/119
f 119/119 92/92 113/113
f 113/113 119/119 227/227
f 227/227 229/229 233/233
f 233/233 235/235 239/239
f 239/239 242/242 243/243
f 243/243 242/242 93/93
f 93/93 105/105 120/120
f 120/120 121/121 76/76
f 76/76 75/75 92/92
f 92/92 126/126 124/124
f 124/124 125/125 126/126
f 126/126 129/129 131/131
f 131/131 91/91 133/133
f 133/133 131/131 123/123
f 123/123 246/246 247/247
f 247/247 134/134 248/248
f 248/248 135/135 128/128
f 128/128 129/129 251/251
f 251/251 254/254 231/231
f 231/231 254/254 255/255
f 255/255 258/258 259/259
f 259/259 258/258 261/261
