# MOD converted: h_m_hair002.mod
# 223 verts, 14 faces

v 156.468674 -9.789202 14.109137
v 159.430618 -13.327836 7.582794
v 161.601669 -15.252036 20.809389
v 168.295914 -9.308894 9.784486
v 172.845184 -11.510913 22.894335
v 162.318405 -4.807191 -0.992659
v 173.979935 -13.441471 21.270765
v 171.634140 1.120745 10.705173
v 177.440964 -0.825825 23.391891
v 164.301559 14.349927 0.002511
v 179.588669 -4.536565 10.222798
v 183.540680 12.709371 -2.912505
v 179.009644 13.003988 24.909796
v 155.372726 15.649310 14.933378
v 155.682190 27.235176 0.002511
v 156.226196 30.945969 20.322189
v 139.324509 14.061394 13.893896
v 140.601624 23.264896 0.002509
v 141.576767 27.043362 12.588322
v 172.054443 22.063698 0.002508
v 173.675339 24.384075 23.889563
v 156.736923 3.775966 17.075142
v 141.786499 5.783301 18.252270
v 147.033447 1.399927 18.547508
v 151.432175 -3.116661 0.000009
v 162.126663 -16.130926 24.350960
v 145.522964 16.249086 16.056164
v 146.569870 28.176229 0.002508
v 147.740555 32.461361 -0.000000
v 133.224579 6.930820 10.469337
v 135.486557 6.711114 14.549257
v 132.686081 12.873229 0.002510
v 125.332375 11.696146 -0.015041
v 134.040573 21.468390 9.125370
v 133.150024 18.622673 24.387688
v 163.374466 2.396778 19.924629
v 172.242264 14.445925 13.947830
v 165.512436 25.832729 0.002509
v 166.220276 29.112272 -7.582777
v 161.601715 -15.252040 -19.086296
v 169.047821 -11.178361 -19.664391
v 173.410339 1.121113 -10.661253
v 176.914902 -0.827424 -23.788940
v 164.698364 16.343088 -12.225109
v 180.772018 9.377387 -25.289368
v 154.325272 15.649316 -14.928360
v 155.581635 26.693827 -20.422100
v 138.817810 13.773835 -13.888874
v 140.086655 23.170441 -11.644776
v 172.071472 23.294104 -25.424316
v 155.689484 3.293223 -17.075125
v 141.786514 5.783306 -18.252253
v 147.033447 1.399927 -18.547491
v 151.432175 -3.116658 -24.619982
v 145.811905 16.249092 -16.051144
v 146.569855 27.800173 -10.469318
v 135.486572 6.711120 -15.011286
v 132.686081 12.873230 -9.155451
v 133.325485 19.145536 -24.608524
v 164.381195 4.259815 -18.436512
v 172.396301 14.445926 -13.942812
v 165.587082 26.048969 4.467103
v 164.570374 -15.864071 15.548500
v 174.460052 13.931882 16.279770
v 174.662613 0.922213 -3.898388
v 186.785873 -7.166019 -17.037411
v 139.930832 1.487596 17.110136
v 139.930847 1.487605 4.471811
v 180.154510 14.965432 -0.317934
v 180.929520 13.889394 -5.600228
v 180.070877 -0.345806 -6.505546
v 180.741577 11.961623 -9.639137
v 177.150879 19.262161 -13.928105
v 180.744675 3.491296 -15.957592
v 178.580490 1.514058 -20.822498
v 182.067657 3.371000 -5.467668
v 129.922546 14.145867 -0.006858
v 129.424393 15.673786 5.824869
v 130.065125 14.532312 10.713121
v 177.482483 -0.677194 8.307134
v 180.645584 6.034016 28.218184
v 164.664841 12.039515 7.685676
v 169.625153 -17.018099 16.519379
v 167.287140 -16.922415 6.191580
v 165.455032 -21.621492 12.393246
v 163.824219 -21.818121 3.547327
v 155.919785 -27.058371 17.622515
v 160.759750 -10.318442 9.825134
v 168.602432 -23.417694 12.883663
v 173.062851 -17.976646 15.360380
v 175.666275 -10.321119 11.166190
v 160.711700 -20.603708 4.375134
v 162.005676 -20.364815 19.403070
v 161.331528 -16.927862 14.088296
v 161.627548 -19.176434 13.668262
v 157.807190 -16.264912 9.816110
v 153.134506 -22.184555 20.691925
v 159.873947 -9.242164 24.748690
v 165.005173 -6.047795 23.411394
v 156.406326 -7.921256 26.125586
v 159.264847 -5.557967 25.300991
v 158.744980 -0.829265 24.754206
v 151.602188 -7.030533 7.511987
v 173.072037 -16.955332 -0.603532
v 173.954575 -17.502190 -0.935470
v 179.025818 -24.121288 4.803719
v 179.011948 -8.658535 3.065121
v 178.295288 -16.950586 2.445156
v 169.736176 -20.326492 -12.648946
v 161.475266 -13.626059 -11.785757
v 162.793777 -16.879084 1.722951
v 166.353943 -18.839104 -12.282704
v 162.637360 -19.948355 -2.007984
v 164.860519 -21.979536 -13.946989
v 160.892624 -22.420403 -6.912394
v 161.753143 -24.444670 -12.233312
v 157.667725 -26.217852 -16.444334
v 157.510086 -23.815542 -3.093400
v 171.681259 -18.942596 -4.920635
v 168.955490 -22.533173 -8.610326
v 164.211563 -24.971846 -11.098418
v 160.287003 -24.126637 -16.372055
v 157.635818 -23.772974 -12.439441
v 164.260254 -23.307755 -10.610412
v 167.605591 -21.105867 -9.542263
v 170.592865 -17.261946 -10.038268
v 160.646088 -23.256256 -6.718877
v 163.205795 -20.334990 -12.655770
v 167.964935 -16.879261 -17.127153
v 163.431686 -17.136614 -12.985317
v 175.197968 -16.845810 -14.109121
v 159.430649 -13.327840 -21.805794
v 171.928238 -6.296237 -24.364691
v 166.641281 -0.183682 -25.174124
v 171.733551 2.628521 -26.013987
v 168.640015 3.693172 -21.105330
v 174.470306 2.309344 -30.515289
v 170.164993 9.270538 -25.846357
v 164.937378 4.515161 -27.143255
v 156.845444 6.211762 -29.800165
v 168.176804 13.934716 -29.257746
v 161.495392 5.515368 -25.847408
v 157.442215 -1.984543 -25.979115
v 152.475006 5.053481 -26.527437
v 154.586655 11.605702 18.439016
v 176.521225 12.329757 15.265884
v 173.705719 13.750834 18.583115
v 172.471588 11.048989 22.555489
v 178.237778 10.477500 -9.626213
v 172.845200 -11.510917 -21.869095
v 161.243942 -4.807189 -17.419321
v 156.468674 -9.789195 -18.547491
v 151.432175 -3.116658 20.809389
v 168.295914 -9.308894 -0.992659
v 173.979935 -13.441470 -19.086296
v 169.047806 -11.178358 -9.626213
v 172.845200 -11.510917 -21.869095
v 161.243942 -4.807189 -9.542263
v 170.592865 -17.261946 -14.131072
v 168.587433 -14.411878 -12.816277
v 176.363434 -6.716499 -29.019682
v 164.249588 1.515566 -24.316145
v 151.876373 1.237436 4.467103
v 164.570374 -15.864071 -19.836620
v 148.238556 -1.013948 19.822657
v 148.437881 -0.737134 19.924629
v 172.242264 14.445925 -9.626213
v 172.845200 -11.510917 12.588322
v 172.054443 22.063698 0.002508
v 173.675339 24.384075 -10.661253
v 176.914902 -0.827424 -11.644776
v 172.071472 23.294104 -19.664391
v 173.410339 1.121113 -18.436512
v 172.396301 14.445926 24.387688
v 163.374466 2.396778 23.391891
v 164.301559 14.349927 9.784486
v 172.845184 -11.510913 10.705173
v 177.440964 -0.825825 16.279770
v 174.662613 0.922213 4.375134
v 162.005676 -20.364815 3.547327
v 155.919785 -27.058371 11.166190
v 160.711700 -20.603708 17.622515
v 160.759750 -10.318442 4.467103
v 164.570374 -15.864071 17.622515
v 160.759750 -10.318442 14.088296
v 161.627548 -19.176434 13.668262
v 157.807190 -16.264912 9.816110
v 153.134506 -22.184555 21.270765
v 171.634140 1.120745 24.387688
v 163.374466 2.396778 4.467103
v 164.570374 -15.864071 9.784486
v 172.845184 -11.510913 10.705173
v 177.440964 -0.825825 0.002511
v 179.588669 -4.536565 -0.992659
v 173.979935 -13.441470 4.467103
v 164.570374 -15.864071 2.445156
v 169.736176 -20.326492 4.467103
v 164.570374 -15.864071 4.467103
v 164.570374 -15.864071 1.722951
v 166.353943 -18.839104 -2.007984
v 164.860519 -21.979536 -6.912394
v 161.753143 -24.444670 -16.372055
v 157.635818 -23.772974 -12.439441
v 164.260254 -23.307755 -10.610412
v 167.605591 -21.105867 -9.542263
v 170.592865 -17.261946 -9.626213
v 172.845200 -11.510917 -12.233312
v 157.667725 -26.217852 -11.098418
v 160.287003 -24.126637 -16.444334
v 157.510086 -23.815542 17.622515
v 160.759750 -10.318442 16.519379
v 167.287140 -16.922415 -0.992659
v 173.979935 -13.441470 0.002511
v 179.588669 -4.536565 -10.661253
v 176.914902 -0.827424 -9.626213
v 172.845200 -11.510917 -9.626213
v 172.845200 -11.510917 -7.582777
v 161.601715 -15.252040 -19.086296
v 169.047806 -11.178358 -9.626213
v 172.845200 -11.510917 -21.869095
v 161.243942 -4.807189 -17.419321
v 156.468674 -9.789195 -9.626213
v 172.845200 -11.510917 0.544511

vt 0.677316 0.501740
vt 0.693457 0.557894
vt 0.697752 0.478317
vt 0.752415 0.553232
vt 0.769755 0.420498
vt 0.726386 0.738808
vt 0.130254 0.457018
vt 0.317276 0.340056
vt 0.326961 0.246980
vt 0.779740 0.207138
vt 0.372871 0.324690
vt 0.156196 0.195985
vt 0.153593 0.244382
vt 0.701999 0.147213
vt 0.701502 0.029516
vt 0.700382 0.245935
vt 0.568181 0.154344
vt 0.563401 0.050753
vt 0.557356 0.146776
vt 0.845256 0.054079
vt 0.846213 0.349867
vt 0.695820 0.312258
vt 0.573425 0.352631
vt 0.610074 0.399368
vt 0.642210 0.617805
vt 0.700161 0.244763
vt 0.630935 0.139608
vt 0.624967 0.020389
vt 0.621012 0.247738
vt 0.449763 0.278507
vt 0.503283 0.232861
vt 0.491761 0.186679
vt 0.401575 0.084419
vt 0.483887 0.167773
vt 0.488799 0.346990
vt 0.769137 0.441459
vt 0.178439 0.143737
vt 0.785493 0.035567
vt 0.784634 0.675356
vt 0.697125 0.455392
vt 0.531956 0.318719
vt 0.851114 0.303523
vt 0.912493 0.246980
vt 0.779740 0.093425
vt 0.198436 0.244382
vt 0.701999 0.147213
vt 0.701502 0.245935
vt 0.568181 0.154344
vt 0.563401 0.146776
vt 0.845256 0.349867
vt 0.695820 0.312258
vt 0.573425 0.352631
vt 0.610074 0.399368
vt 0.642210 0.244763
vt 0.630935 0.139608
vt 0.624967 0.278507
vt 0.503283 0.232861
vt 0.491761 0.167773
vt 0.488799 0.346990
vt 0.769137 0.223595
vt 0.846006 0.143737
vt 0.785493 0.990724
vt 0.753181 0.390290
vt 0.172012 0.402034
vt 0.310564 0.234936
vt 0.338219 0.335885
vt 0.549362 0.335885
vt 0.549362 0.272661
vt 0.136860 0.226755
vt 0.146566 0.144727
vt 0.317346 0.145481
vt 0.165979 0.120151
vt 0.086104 0.079369
vt 0.278891 0.061243
vt 0.296761 0.031794
vt 0.261735 0.180483
vt 0.456464 0.133151
vt 0.444490 0.180483
vt 0.456464 0.340056
vt 0.326961 0.311074
vt 0.237105 0.550085
vt 0.226956 0.936958
vt 0.764355 0.811128
vt 0.749262 0.937302
vt 0.694718 0.850409
vt 0.672199 0.923873
vt 0.567973 0.761412
vt 0.688320 0.887098
vt 0.694595 0.867468
vt 0.761581 0.860858
vt 0.861770 0.831139
vt 0.641633 0.968574
vt 0.685824 0.743124
vt 0.747680 0.762856
vt 0.708408 0.706523
vt 0.728809 0.737120
vt 0.373986 0.656713
vt 0.817021 0.662268
vt 0.876368 0.593262
vt 0.830103 0.593922
vt 0.869063 0.587588
vt 0.914761 0.524832
vt 0.836447 0.824626
vt 0.088158 0.912839
vt 0.130726 0.945057
vt 0.061177 0.808620
vt 0.220024 0.867376
vt 0.125498 0.869763
vt 0.029282 0.841829
vt 0.448035 0.847669
vt 0.484454 0.718500
vt 0.477778 0.837381
vt 0.521189 0.736757
vt 0.516541 0.817399
vt 0.557227 0.739114
vt 0.572777 0.466435
vt 0.128372 0.456727
vt 0.075911 0.675396
vt 0.139737 0.621337
vt 0.145704 0.547524
vt 0.135695 0.506811
vt 0.121739 0.783801
vt 0.600962 0.856708
vt 0.572170 0.894489
vt 0.534791 0.641700
vt 0.071462 0.778955
vt 0.555606 0.789041
vt 0.514492 0.605502
vt 0.048111 0.542381
vt 0.020649 0.522489
vt 0.863808 0.399918
vt 0.445541 0.507520
vt 0.571781 0.558530
vt 0.530739 0.578773
vt 0.576531 0.587719
vt 0.544119 0.565691
vt 0.615355 0.659172
vt 0.553101 0.611684
vt 0.480383 0.636921
vt 0.395785 0.707471
vt 0.507452 0.631262
vt 0.443677 0.560217
vt 0.405782 0.627237
vt 0.346230 0.686470
vt 0.369082 0.084963
vt 0.433366 0.144144
vt 0.393059 0.037699
vt 0.359443 0.022710
vt 0.466938 0.986365
vt 0.427009 0.521173
vt 0.452269 0.455489
vt 0.677316 0.527707
vt 0.346975 0.771525
vt 0.836481 0.637398
vt 0.766181 0.421297
vt 0.822617 0.396389
vt 0.897997 0.420498
vt 0.726386 0.937128
vt 0.490958 0.617568
vt 0.020906 0.456509
vt 0.620828 0.603442
vt 0.492262 0.579758
vt 0.343248 0.590997
vt 0.719152 0.372098
vt 0.623459 0.371751
vt 0.623221 0.223595
vt 0.846006 0.697830
vt 0.758189 0.335657
vt 0.044018 0.226467
vt 0.019222 0.101945
vt 0.342926 0.096277
vt 0.039565 0.013817
vt 0.329816 0.025712
vt 0.123748 0.567552
vt 0.322958 0.574515
vt 0.193390 0.921322
vt 0.849549 0.918690
vt 0.969462 0.857101
vt 0.982844 0.259543
vt 0.921130 0.326253
vt 0.985970 0.213376
vt 0.965647 0.073969
vt 0.898092 0.217995
vt 0.874657 0.706302
vt 0.795562 0.857583
vt 0.404493 0.848933
vt 0.331978 0.722951
vt 0.651112 0.779130
vt 0.971444 0.648550
vt 0.963550 0.809949
vt 0.024240 0.768797
vt 0.140832 0.707286
vt 0.279745 0.840381
vt 0.298948 0.894396
vt 0.179845 0.975198
vt 0.218595 0.971497
vt 0.134717 0.679540
vt 0.428506 0.676250
vt 0.231156 0.658138
vt 0.208383 0.606666
vt 0.188539 0.539619
vt 0.160118 0.456727
vt 0.075911 0.537273
vt 0.089886 0.588059
vt 0.087151 0.641700
vt 0.071462 0.694597
vt 0.039238 0.734479
vt 0.613256 0.762037
vt 0.583044 0.783801
vt 0.600962 0.951236
vt 0.280441 0.945905
vt 0.403821 0.413868
vt 0.888104 0.408340
vt 0.962296 0.508094
vt 0.977957 0.554468
vt 0.926204 0.457382
vt 0.837440 0.342557
vt 0.476326 0.455392
vt 0.531956 0.392319
vt 0.576545 0.521173
vt 0.452269 0.460402
vt 0.399690 0.392319
vt 0.576545 1.000000

f 146/146 148/148 147/147
f 148/148 146/146 149/149
f 218/218 132/132 221/221
f 221/221 219/219 134/134
f 133/133 41/41 161/161
f 161/161 223/223 133/133
f 133/133 135/135 136/136
f 138/138 137/137 151/151
f 162/162 134/134 143/143
f 153/153 163/163 139/139
f 139/139 151/151 142/142
f 141/141 139/139 140/140
f 141/141 142/142 163/163
f 143/143 222/222 140/140
