# MOD converted: h_m_costume_kimono_body.mod
# 572 verts, 146 faces

v 81.839897 12.054600 -0.000000
v 74.364075 0.659289 8.909033
v 92.419708 7.857963 12.340744
v 91.860413 -0.151339 8.334927
v 88.028664 10.939979 13.297728
v 87.638046 6.541617 14.549723
v 87.234291 0.058446 12.545696
v 86.701271 -5.962314 7.258695
v 86.450874 -8.965415 7.529510
v 81.113602 -8.696181 16.172068
v 81.921906 -0.000804 13.504764
v 82.345093 -6.073660 9.263860
v 81.988602 11.431699 15.214866
v 82.013397 6.511709 0.909653
v 74.210480 0.715350 1.964744
v 75.196968 -6.607230 9.690029
v 66.160187 -9.506141 1.517727
v 64.808281 1.662471 10.413501
v 77.637299 9.590459 17.029320
v 66.263641 -6.119316 4.890387
v 53.109474 -6.380407 2.570586
v 48.703739 3.142963 6.134695
v 49.825741 11.426768 15.148346
v 50.544788 11.436624 18.272934
v 54.467388 -5.819345 21.556633
v 50.657604 3.632732 11.470654
v 50.231270 -9.441015 5.153177
v 49.424759 -6.785339 18.837933
v 50.866989 -6.241035 11.881027
v 46.468334 -9.719744 19.541231
v 47.037376 -6.481831 5.530199
v 45.951649 -6.735614 2.682694
v 74.303177 9.393079 10.965294
v 54.035866 -9.380102 14.739967
v 53.800262 10.687820 5.681540
v 53.152111 10.439859 2.422582
v 51.741699 2.631418 8.044942
v 77.879005 -8.886042 13.933266
v 79.907600 -6.079220 1.938810
v 77.910210 11.236300 15.640365
v 79.977989 6.020410 18.774433
v 66.132545 2.985524 13.000965
v 66.321281 9.640633 20.917446
v 53.921158 3.344379 3.304170
v 65.050636 -6.236290 3.865167
v 65.152557 9.814779 21.952600
v 47.117481 3.631850 15.552356
v 47.456768 11.960781 6.436413
v 46.658813 11.962010 2.604945
v 45.469070 3.100171 0.000000
v 75.106583 -7.111929 -0.000000
v 81.033592 -9.663349 11.116519
v 52.231689 1.707401 -0.000000
v 88.115334 11.654829 -0.000000
v 76.255096 7.006250 9.520353
v 91.332573 -7.719078 -13.297728
v 87.638046 6.541617 -8.334927
v 88.028664 10.939979 -8.909032
v 92.419708 7.857963 -12.340744
v 91.860413 -0.151340 -0.000001
v 92.554398 9.789904 -12.545696
v 86.701271 -5.962317 -9.520352
v 91.332573 -7.719079 -7.258692
v 86.450890 -8.965417 -14.549723
v 87.234291 0.058447 0.000000
v 86.365944 -10.478802 -0.000000
v 91.124313 -10.698408 -0.909653
v 74.210480 0.715349 -10.413501
v 77.637299 9.590461 -1.938810
v 77.910210 11.236300 -9.263861
v 81.988602 11.431701 -13.504764
v 82.345093 -6.073661 -13.933266
v 79.907600 -6.079221 -16.172068
v 81.921906 -0.000814 -18.774433
v 66.132545 2.985525 -17.029320
v 66.263641 -6.119317 -8.044944
v 77.879005 -8.886041 -9.690033
v 66.160187 -9.506141 -7.529512
v 81.113602 -8.696180 -3.865166
v 65.152557 9.814779 -2.682693
v 74.303177 9.393081 -15.214865
v 82.013397 6.511711 -15.640365
v 79.977989 6.020411 -1.517728
v 64.808289 1.662471 -3.304171
v 65.050636 -6.236291 -1.964743
v 75.196968 -6.607230 -4.890388
v 53.109470 -6.380406 -10.965295
v 54.035866 -9.380102 -5.681541
v 53.152103 10.439858 -2.422582
v 51.741699 2.631418 -14.739966
v 53.800262 10.687820 -20.917444
v 53.921158 3.344382 -18.272934
v 54.467388 -5.819347 -2.570585
v 48.703739 3.142964 -5.153178
v 49.424759 -6.785341 -18.837936
v 50.866989 -6.241034 -6.134695
v 49.825741 11.426768 -15.148345
v 50.544788 11.436624 -13.000965
v 66.321274 9.640633 -11.470654
v 50.231266 -9.441015 -21.556635
v 50.657604 3.632733 -15.552356
v 47.456768 11.960782 -21.952600
v 47.117481 3.631854 -11.881028
v 46.468334 -9.719744 -5.530200
v 45.951649 -6.735614 -19.541233
v 47.037373 -6.481831 -6.436413
v 46.658813 11.962010 -2.604945
v 45.469070 3.100173 -11.116519
v 52.231689 1.707401 8.883683
v 93.146873 12.146807 16.135675
v 92.511200 -0.240813 13.099935
v 99.611725 -7.407306 14.868338
v 99.995850 -0.142935 8.323246
v 100.243202 11.541084 -0.000001
v 100.410080 13.083005 12.714844
v 120.933044 -0.047738 12.334544
v 121.837502 8.814240 11.944502
v 107.774521 -5.937870 8.634611
v 115.867516 12.289944 13.786770
v 108.943550 -0.050168 13.856255
v 108.734596 8.292358 12.403700
v 115.312317 -3.414474 12.812798
v 124.178970 4.802781 15.292718
v 109.193024 7.390979 15.360355
v 109.291122 0.058027 17.122696
v 123.455917 4.494184 7.038140
v 115.213348 -6.974741 -0.000000
v 107.180298 -10.876200 7.382102
v 107.281311 -9.748078 7.795021
v 107.930397 11.478649 0.000000
v 116.402000 11.868200 0.000000
v 91.157578 -13.746674 17.106928
v 83.118042 8.453360 10.452340
v 83.432159 13.796255 15.914587
v 81.705826 -8.197108 13.967493
v 92.192131 -7.583164 9.027406
v 80.984642 -12.832446 18.669069
v 82.556877 -0.193530 12.239123
v 73.059242 15.927613 21.227823
v 73.270561 -0.362475 18.034010
v 72.617699 -9.067104 9.825785
v 71.603050 -14.178852 19.844500
v 73.377312 10.369203 0.000000
v 80.663849 -14.641849 0.000143
v 72.717865 17.463190 14.628424
v 92.936867 7.381817 14.073807
v 100.128189 7.260154 9.315510
v 125.056908 5.015616 6.170480
v 122.457329 9.677071 6.717783
v 129.058090 5.038916 6.444812
v 120.070923 -4.208541 6.439303
v 126.017647 -0.611615 8.725969
v 122.506645 -0.156581 6.933590
v 125.576744 8.539514 3.676870
v 130.012039 8.378010 8.353389
v 91.498177 -11.908064 8.144648
v 99.565224 -11.372957 3.089111
v 120.259689 -5.858387 0.000000
v 122.281998 10.395000 -14.073805
v 100.128189 7.260155 -16.135675
v 92.511200 -0.240816 -14.628424
v 92.936867 7.381816 -8.323246
v 100.243202 11.541084 -0.000001
v 93.145638 13.980474 -14.868338
v 99.995850 -0.142935 -13.099932
v 99.611725 -7.407310 -13.967493
v 92.192131 -7.583164 -8.353388
v 91.498177 -11.908065 0.000000
v 99.424911 -12.999038 -8.144646
v 99.565224 -11.372958 -8.883682
v 93.146873 12.146809 -7.382102
v 107.281311 -9.748078 -8.634611
v 115.862038 12.288694 -7.795021
v 107.929626 11.477765 -0.000001
v 108.118996 11.901200 -12.334543
v 121.833199 8.817401 -9.315510
v 125.055359 5.020530 -12.812797
v 124.177589 4.807640 -13.856255
v 108.732002 8.288622 -15.454172
v 115.026688 11.570214 -15.292718
v 109.191078 7.387949 -13.786770
v 108.944969 -0.053817 -12.403700
v 115.316002 -3.415551 -11.944499
v 107.776001 -5.939391 -12.714844
v 120.935181 -0.045141 -16.629200
v 121.490356 8.868281 -15.361020
v 115.124924 -3.011004 -7.038140
v 115.216011 -6.975581 -6.444811
v 120.071609 -4.208409 -0.000000
v 116.081665 -8.612180 -6.170480
v 122.454994 9.678301 -8.725969
v 122.508881 -0.153528 -17.106928
v 83.118042 8.453360 -10.452338
v 83.432159 13.796255 -0.000000
v 83.377281 15.463554 -15.914587
v 81.705826 -8.197107 -9.027408
v 80.984642 -12.832446 -18.669069
v 82.556877 -0.193532 -12.239123
v 73.059242 15.927612 -21.227823
v 73.270561 -0.362483 -18.034010
v 72.617699 -9.067105 -9.825780
v 71.603050 -14.178853 -19.844498
v 73.377319 10.369203 -0.000003
v 71.328537 -16.078802 -6.933589
v 125.574806 8.541817 -6.717783
v 129.058090 5.038918 -3.089112
v 120.259689 -5.858387 -6.439303
v 126.017639 -0.611615 -3.676870
v 130.012039 8.378009 -0.000000
v 125.141762 9.833755 -0.000000
v 130.212021 9.697922 0.000000
v 116.378143 1.497959 -16.357473
v 84.096619 -11.005096 -20.134493
v 87.804466 -8.908884 -18.520670
v 87.818268 -9.328797 -16.357996
v 85.732368 -10.535973 -8.902742
v 97.680527 -13.756928 -13.541608
v 92.714935 -9.005491 -9.099760
v 95.918884 -13.339916 -6.414799
v 92.565643 -14.375834 -7.884194
v 93.085625 -13.859769 -12.377872
v 90.701820 -9.572199 -12.950935
v 91.721954 -9.048596 -22.468910
v 87.086586 -7.377760 -21.962820
v 86.115761 -7.774910 -3.596945
v 91.778595 -15.327696 -4.063849
v 92.957260 -15.456633 -12.950943
v 91.721954 -9.048592 17.038349
v 120.979103 0.308134 17.811049
v 121.532204 7.732748 17.420614
v 121.810219 3.980876 17.184900
v 123.328430 4.446084 30.532734
v 107.615463 11.933470 26.123667
v 100.861198 7.242833 23.296581
v 103.269524 7.154004 27.031679
v 109.632095 11.573346 23.396442
v 103.457504 -0.633444 26.103531
v 100.915131 -1.033078 34.069103
v 113.267349 7.833765 30.469433
v 114.898277 7.524510 30.305288
v 114.717598 -0.619515 33.820175
v 113.031136 -1.159380 27.150539
v 109.680679 -4.346060 30.494436
v 107.570053 -5.003114 23.860710
v 111.648010 -3.710087 20.058922
v 106.096153 -0.390696 18.085609
v 114.032173 11.087791 18.013859
v 114.204659 -2.741498 20.726038
v 119.282539 0.372118 20.787119
v 119.897560 7.523073 19.994970
v 105.942223 7.190997 23.379990
v 111.496384 11.160856 26.862871
v 116.650238 -0.200074 26.882706
v 116.807541 7.451798 28.634340
v 98.458153 -1.558941 36.852821
v 111.659363 -1.490470 28.592573
v 98.579056 7.448820 37.086277
v 111.886528 8.068885 33.495022
v 105.845284 12.541098 33.202991
v 105.730408 -5.593224 43.079395
v 108.673660 -2.489321 33.410664
v 94.543182 8.008974 38.632637
v 102.433540 -6.891658 33.272545
v 94.544815 -3.148600 43.295658
v 108.871895 8.671135 38.990448
v 102.684319 13.433045 32.849403
v 93.838989 2.063160 32.197697
v 105.779541 2.923643 20.761292
v 120.143295 3.804591 15.454174
v 115.032303 11.571151 15.361022
v 115.121651 -3.010238 16.629200
v 121.493660 8.865541 16.526445
v 121.175369 -0.306955 -16.526445
v 121.177139 -0.304393 -17.184900
v 123.327568 4.449861 -17.122694
v 123.455032 4.498019 -17.420612
v 121.809624 3.983881 -17.811045
v 121.529533 7.735653 -26.123672
v 100.861214 7.242852 -23.296581
v 103.269539 7.154027 -27.031700
v 109.632164 11.573344 -30.532749
v 107.615517 11.933468 -26.103531
v 100.915131 -1.033060 -23.396446
v 103.457489 -0.633422 -30.469431
v 114.898293 7.524488 -30.305286
v 114.717590 -0.619528 -33.820175
v 113.031128 -1.159395 -34.069103
v 113.267372 7.833747 -27.150543
v 109.680664 -4.346060 -30.494438
v 107.570045 -5.003114 -20.058922
v 106.096138 -0.390675 -23.860714
v 111.647987 -3.710088 -28.634333
v 98.458153 -1.558940 -33.202961
v 105.730362 -5.593224 -33.495037
v 105.845299 12.541096 -28.592573
v 98.579056 7.448817 -18.085606
v 114.029991 11.087302 -15.360355
v 109.292351 0.055044 -18.013857
v 114.206146 -2.741947 -19.994968
v 105.942238 7.191018 -23.379955
v 111.496361 11.160857 -20.726038
v 119.283203 0.373113 -26.862869
v 116.650230 -0.200094 -26.882708
v 116.807556 7.451778 -20.787115
v 119.896324 7.524228 -20.761290
v 120.142792 3.807122 -36.852810
v 111.659348 -1.490471 -37.086277
v 111.886528 8.068886 -33.410671
v 94.543175 8.008963 -32.849403
v 93.838989 2.063152 -43.079388
v 108.673668 -2.489313 -43.295666
v 108.871887 8.671142 -38.632660
v 102.433617 -6.891658 -38.990475
v 102.684326 13.433043 -33.272537
v 94.544823 -3.148608 -32.197697
v 105.779541 2.923643 -17.038349
v 120.980545 0.310655 -0.000000
v 122.202011 -2.804040 45.882812
v 92.817688 5.221763 48.243698
v 96.572594 7.533292 45.628487
v 92.772888 -0.168939 50.570679
v 100.195770 5.665718 48.018120
v 96.520889 -3.080159 50.401730
v 100.354172 -0.967562 5.446900
v 132.238007 4.085740 4.901290
v 130.072998 -1.004880 0.000001
v 128.725998 -3.807341 35.612404
v 98.507591 -0.413645 38.209099
v 102.813980 -3.251250 40.890602
v 106.898994 -0.882908 40.991192
v 106.862007 6.128676 38.138893
v 102.795006 8.740550 35.588299
v 98.507309 5.739235 41.660854
v 95.151093 5.433988 43.992844
v 99.190224 8.041158 43.956261
v 99.126823 -3.151007 41.614635
v 95.071014 -0.267001 46.292313
v 103.173019 5.872482 46.296013
v 103.179405 -0.931020 5.519420
v 123.341003 -0.287932 5.644170
v 125.978996 5.144210 30.468098
v 102.177002 5.725021 35.256195
v 110.276001 6.032029 33.851295
v 105.701004 8.413520 35.132000
v 110.078003 0.107725 32.968903
v 106.254990 -1.954431 30.569304
v 102.282997 0.415962 -0.000000
v 115.153000 -8.612179 6.144639
v 119.658302 -4.208499 9.778971
v 22.092699 -2.668410 9.783160
v 22.091898 10.548100 20.712200
v 22.094402 4.781159 7.254410
v 22.091602 3.989358 19.161703
v 22.093702 -2.289710 17.201200
v 22.093601 10.735500 4.802030
v 48.839401 2.337630 7.105890
v 50.121700 9.160010 13.619900
v 50.413197 8.973980 17.827000
v 50.164001 2.996640 11.408499
v 50.064201 -7.595941 6.158771
v 49.576500 -5.242728 16.122999
v 50.761803 -4.790636 11.768800
v 46.406200 -6.410520 16.484699
v 47.475300 -3.579280 6.905740
v 46.646801 -4.350500 20.219299
v 39.115200 4.019918 15.545599
v 39.438499 10.935100 7.938620
v 39.078899 11.214700 4.905760
v 37.495201 3.546658 14.499200
v 22.093201 -4.422550 -43.992847
v 99.190208 8.041156 -41.660862
v 95.151085 5.433982 -35.588295
v 98.507301 5.739231 -30.468098
v 102.177002 5.725019 -33.851299
v 105.700989 8.413520 -38.138897
v 102.794991 8.740550 -40.991199
v 106.862000 6.128680 -35.132004
v 110.078011 0.107724 -40.890598
v 106.899002 -0.882904 -41.614632
v 95.071022 -0.267006 -43.956257
v 99.126831 -3.151007 -38.209099
v 102.814003 -3.251250 -46.296013
v 103.179413 -0.931016 -35.612400
v 98.507599 -0.413650 -30.569304
v 102.282997 0.415962 -32.968903
v 106.255005 -1.954430 -6.144639
v 119.658989 -4.208412 -0.000000
v 119.448990 -5.396770 -5.519420
v 123.341003 -0.287933 -5.446900
v 132.237991 4.085742 -4.901290
v 130.072998 -1.004879 -5.644170
v 125.978996 5.144209 0.000000
v 126.774010 8.181260 -0.000000
v 133.220993 6.875770 -46.292316
v 103.173012 5.872485 -50.570686
v 100.195763 5.665718 -35.256195
v 110.276001 6.032030 -48.243698
v 96.572586 7.533292 -45.882812
v 92.817688 5.221760 -45.628479
v 92.772888 -0.168942 -48.018112
v 96.520905 -3.080159 -50.401726
v 100.354179 -0.967560 -13.619900
v 50.413204 8.973980 -17.827000
v 50.164001 2.996641 -15.545599
v 39.438499 10.935100 -20.219301
v 39.115200 4.019919 -11.408498
v 50.064201 -7.595940 -6.158771
v 49.576500 -5.242728 -11.768798
v 46.406197 -6.410520 -6.905739
v 46.646801 -4.350499 -16.123001
v 50.761799 -4.790636 -16.484699
v 47.475300 -3.579279 -7.254411
v 22.091602 3.989361 -9.778970
v 22.092699 -2.668410 -4.905760
v 37.495201 3.546661 -7.105890
v 50.121704 9.160009 -7.938621
v 39.078896 11.214700 -4.802030
v 48.839401 2.337630 -20.712202
v 22.094402 4.781162 -19.161701
v 22.093702 -2.289711 -14.499200
v 22.093201 -4.422550 -17.201200
v 22.093601 10.735500 -9.783160
v 22.091902 10.548100 0.909653
v 74.210480 0.715350 2.422582
v 51.741699 2.631418 2.570586
v 48.703739 3.142963 2.604945
v 45.469070 3.100171 1.517727
v 64.808281 1.662471 -0.000000
v 74.364075 0.659289 15.552356
v 47.456768 11.960781 21.952600
v 47.117481 3.631850 11.881027
v 46.468334 -9.719744 5.530199
v 45.951649 -6.735614 19.541231
v 47.037376 -6.481831 2.604945
v 45.469070 3.100171 6.436413
v 46.658813 11.962010 -0.000001
v 92.554398 9.789904 -0.000000
v 88.115334 11.654829 0.000000
v 86.365944 -10.478802 -0.000000
v 91.124313 -10.698408 -0.000000
v 74.364075 0.659289 -0.000000
v 76.255096 7.006250 -0.909653
v 74.210480 0.715349 -2.422582
v 51.741699 2.631418 -2.570585
v 48.703739 3.142964 -2.604945
v 45.469070 3.100173 -1.517728
v 64.808289 1.662471 0.000000
v 75.106583 -7.111929 -0.000000
v 74.364075 0.659289 -0.000000
v 81.033592 -9.663349 -0.000000
v 81.839897 12.054600 -15.552356
v 47.456768 11.960782 -21.952600
v 47.117481 3.631854 -11.881028
v 46.468334 -9.719744 -5.530200
v 45.951649 -6.735614 -19.541233
v 47.037373 -6.481831 -2.604945
v 45.469070 3.100173 -6.436413
v 46.658813 11.962010 16.135675
v 92.511200 -0.240813 14.868338
v 99.995850 -0.142935 13.856255
v 108.734596 8.292358 15.292718
v 109.193024 7.390979 12.812798
v 124.178970 4.802781 17.122696
v 123.455917 4.494184 9.315510
v 125.056908 5.015616 18.669069
v 82.556877 -0.193530 21.227823
v 73.270561 -0.362475 6.933590
v 125.576744 8.539514 -0.000000
v 125.141762 9.833755 -16.135675
v 92.511200 -0.240816 -14.868338
v 99.995850 -0.142935 -13.856255
v 108.732002 8.288622 -15.292718
v 109.191078 7.387949 -12.812797
v 124.177589 4.807640 -17.122694
v 123.455032 4.498019 -9.315510
v 125.055359 5.020530 -18.669069
v 82.556877 -0.193532 -21.227823
v 73.270561 -0.362483 -6.933589
v 125.574806 8.541817 -0.000000
v 125.141762 9.833755 -0.000000
v 130.212021 9.697922 3.676870
v 130.012039 8.378010 -0.000000
v 130.212021 9.697922 6.439303
v 126.017647 -0.611615 6.717783
v 129.058090 5.038916 3.089111
v 120.259689 -5.858387 -0.000000
v 116.081665 -8.612180 -6.439303
v 126.017639 -0.611615 0.000000
v 116.378143 1.497959 -3.089112
v 120.259689 -5.858387 -3.676870
v 130.012039 8.378009 -6.717783
v 129.058090 5.038918 -0.000000
v 116.081665 -8.612180 -0.000000
v 130.212021 9.697922 -12.950935
v 91.721954 -9.048596 -12.950935
v 91.721954 -9.048596 -13.541608
v 92.714935 -9.005491 -12.377872
v 90.701820 -9.572199 -12.950935
v 91.721954 -9.048596 -13.541608
v 92.714935 -9.005491 -12.377872
v 90.701820 -9.572199 -12.950943
v 91.721954 -9.048592 16.526445
v 121.175369 -0.306955 15.361022
v 115.121651 -3.010238 17.122696
v 123.455917 4.494184 16.629200
v 121.493660 8.865541 15.454174
v 115.032303 11.571151 26.123667
v 100.861198 7.242833 23.296581
v 103.269524 7.154004 15.292718
v 109.193024 7.390979 15.454174
v 115.032303 11.571151 15.360355
v 109.291122 0.058027 15.361022
v 115.121651 -3.010238 17.811049
v 121.532204 7.732748 15.292718
v 109.193024 7.390979 19.994970
v 105.942223 7.190997 28.592573
v 98.579056 7.448820 33.410664
v 94.543182 8.008974 32.849403
v 93.838989 2.063160 33.410664
v 94.543182 8.008974 43.295658
v 108.871895 8.671135 43.079395
v 108.673660 -2.489321 38.632637
v 102.433540 -6.891658 38.990448
v 102.684319 13.433045 33.272545
v 94.544815 -3.148600 17.038349
v 120.979103 0.308134 17.420614
v 121.810219 3.980876 -16.526445
v 121.177139 -0.304393 -15.361020
v 115.124924 -3.011004 -17.122694
v 123.455032 4.498019 -16.629200
v 121.490356 8.868281 -15.454172
v 115.026688 11.570214 -26.123672
v 100.861214 7.242852 -23.296581
v 103.269539 7.154027 -15.292718
v 109.191078 7.387949 -15.454172
v 115.026688 11.570214 -15.360355
v 109.292351 0.055044 -15.361020
v 115.124924 -3.011004 -17.811045
v 121.529533 7.735653 -15.292718
v 109.191078 7.387949 -19.994968
v 105.942238 7.191018 -28.592573
v 98.579056 7.448817 -33.410671
v 94.543175 8.008963 -32.849403
v 93.838989 2.063152 -33.410671
v 94.543175 8.008963 -43.295666
v 108.871887 8.671142 -43.079388
v 108.673668 -2.489313 -38.632660
v 102.433617 -6.891658 -38.990475
v 102.684326 13.433043 -33.272537
v 94.544823 -3.148608 -17.038349
v 120.980545 0.310655 -17.420612
v 121.809624 3.983881 35.588299
v 98.507309 5.739235 41.660854
v 95.151093 5.433988 30.468098
v 102.177002 5.725021 45.882812
v 92.817688 5.221763 4.905760
v 37.495201 3.546658 4.802030
v 48.839401 2.337630 7.254410
v 22.091602 3.989358 -35.588295
v 98.507301 5.739231 -0.000000
v 115.153000 -8.612179 -0.000000
v 119.448990 -5.396770 -0.000000
v 122.202011 -2.804040 0.000000
v 126.774010 8.181260 -0.000000
v 133.220993 6.875770 0.000001
v 128.725998 -3.807341 -41.660862
v 95.151085 5.433982 -30.468098
v 102.177002 5.725019 -45.882812
v 92.817688 5.221760 -4.905760
v 37.495201 3.546661 -4.802030
v 48.839401 2.337630 -7.254411
v 22.091602 3.989361 0.921257

vt 0.575682 0.144511
vt 0.496248 0.007813
vt 0.675345 0.007813
vt 0.749121 0.050910
vt 0.650010 0.058706
vt 0.699866 0.061331
vt 0.751386 0.059354
vt 0.801174 0.052801
vt 0.849310 0.100129
vt 0.860556 0.108958
vt 0.751117 0.099343
vt 0.804164 0.098705
vt 0.645186 0.108843
vt 0.701938 0.150403
vt 0.496248 0.136563
vt 0.928501 0.225194
vt 0.866748 0.234009
vt 0.992639 0.134396
vt 0.645019 0.235075
vt 0.800067 0.328291
vt 0.922188 0.359130
vt 0.992639 0.362933
vt 0.566796 0.365679
vt 0.639510 0.333086
vt 0.799841 0.366690
vt 0.719978 0.360009
vt 0.866740 0.360442
vt 0.920375 0.363509
vt 0.802401 0.392695
vt 0.869842 0.392695
vt 0.804271 0.392695
vt 0.926460 0.146511
vt 0.571054 0.327450
vt 0.867508 0.336602
vt 0.642298 0.330648
vt 0.566418 0.328602
vt 0.496248 0.128397
vt 0.865103 0.119675
vt 0.806525 0.114082
vt 0.580459 0.123476
vt 0.700458 0.239577
vt 0.722879 0.230870
vt 0.648586 0.340672
vt 0.721354 0.225938
vt 0.926044 0.226784
vt 0.570511 0.392695
vt 0.721544 0.392695
vt 0.638470 0.392695
vt 0.565523 0.392695
vt 0.496248 0.117897
vt 0.941149 0.079509
vt 0.918450 0.054244
vt 0.511364 0.032817
vt 0.587736 0.123884
vt 0.542247 0.007813
vt 0.815962 0.058706
vt 0.699866 0.050910
vt 0.650010 0.007813
vt 0.675345 0.007813
vt 0.749121 0.007813
vt 0.603283 0.059354
vt 0.801174 0.007813
vt 0.815962 0.052801
vt 0.849310 0.061331
vt 0.751386 0.038667
vt 0.906846 0.007813
vt 0.893820 0.150403
vt 0.496248 0.134396
vt 0.645019 0.114082
vt 0.580459 0.098705
vt 0.645186 0.099343
vt 0.804164 0.119675
vt 0.806525 0.108958
vt 0.751117 0.239577
vt 0.722879 0.235075
vt 0.800067 0.128397
vt 0.865103 0.225194
vt 0.866748 0.100129
vt 0.860556 0.226784
vt 0.570511 0.146511
vt 0.571054 0.108843
vt 0.701938 0.123476
vt 0.700458 0.234009
vt 0.992639 0.225938
vt 0.926044 0.136563
vt 0.928501 0.328291
vt 0.922188 0.327450
vt 0.867508 0.330648
vt 0.566418 0.328602
vt 0.496248 0.336602
vt 0.642298 0.340672
vt 0.721354 0.333086
vt 0.799841 0.359130
vt 0.992639 0.360442
vt 0.920375 0.363509
vt 0.802401 0.362933
vt 0.566796 0.365679
vt 0.639510 0.230870
vt 0.648586 0.360009
vt 0.866740 0.366690
vt 0.719978 0.392695
vt 0.638470 0.392695
vt 0.721544 0.392695
vt 0.869842 0.392695
vt 0.926460 0.392695
vt 0.804271 0.392695
vt 0.565523 0.392695
vt 0.496248 0.054244
vt 0.511364 0.338030
vt 0.169091 0.465696
vt 0.175392 0.634390
vt 0.506049 0.576080
vt 0.524413 0.332449
vt 0.227581 0.260552
vt 0.228972 0.648668
vt 0.705899 0.362444
vt 0.412559 0.643899
vt 0.577097 0.330423
vt 0.356610 0.595474
vt 0.600051 0.382043
vt 0.297088 0.643244
vt 0.646452 0.370279
vt 0.450096 0.396048
vt 0.297170 0.591371
vt 0.611256 0.613519
vt 0.753376 0.696263
vt 0.631656 0.756887
vt 0.560034 0.692453
vt 0.563802 0.325948
vt 0.291184 0.260552
vt 0.359457 0.756887
vt 0.434774 0.414778
vt 0.086398 0.344669
vt 0.089296 0.608204
vt 0.353828 0.622613
vt 0.444634 0.678400
vt 0.351293 0.490041
vt 0.091892 0.349106
vt 0.003969 0.528856
vt 0.275821 0.600908
vt 0.275821 0.677668
vt 0.275821 0.421644
vt 0.003969 0.756887
vt 0.351394 0.260552
vt 0.003969 0.400937
vt 0.169504 0.393581
vt 0.228548 0.342812
vt 0.454343 0.310872
vt 0.414484 0.710179
vt 0.783447 0.704821
vt 0.677189 0.717805
vt 0.732359 0.685592
vt 0.715346 0.671405
vt 0.796634 0.710038
vt 0.821788 0.683750
vt 0.435765 0.687240
vt 0.500602 0.734937
vt 0.668282 0.260552
vt 0.408428 0.127523
vt 0.228548 0.055408
vt 0.175392 0.120166
vt 0.169504 0.188654
vt 0.227581 0.260552
vt 0.171361 0.937693
vt 0.524413 0.879383
vt 0.506049 0.891160
vt 0.444634 0.830023
vt 0.435765 0.756887
vt 0.498713 0.826533
vt 0.500602 0.183074
vt 0.169091 0.821320
vt 0.563802 0.190681
vt 0.356610 0.195156
vt 0.291184 0.260552
vt 0.291410 0.158659
vt 0.412559 0.178292
vt 0.454343 0.150825
vt 0.450096 0.139061
vt 0.297088 0.135501
vt 0.353379 0.125055
vt 0.297170 0.918299
vt 0.600051 0.870529
vt 0.646452 0.869874
vt 0.577097 0.865105
vt 0.705899 0.123445
vt 0.408390 0.894141
vt 0.654818 0.817510
vt 0.631656 0.808953
vt 0.677189 0.756887
vt 0.630055 0.210231
vt 0.414484 0.828181
vt 0.715346 0.106326
vt 0.086398 0.176435
vt 0.089296 0.260552
vt 0.092292 0.905569
vt 0.353828 0.835373
vt 0.351293 0.031062
vt 0.091892 0.171998
vt 0.003969 0.984917
vt 0.275821 0.912865
vt 0.275821 0.836105
vt 0.275821 0.099460
vt 0.003969 0.756887
vt 0.275821 0.842368
vt 0.796634 0.803594
vt 0.783447 0.778836
vt 0.668282 0.795969
vt 0.732359 0.803735
vt 0.821788 0.260552
vt 0.431551 0.711606
vt 0.855117 0.777331
vt 0.769916 0.519540
vt 0.581939 0.416798
vt 0.581939 0.440798
vt 0.549587 0.495922
vt 0.549587 0.519540
vt 0.581939 0.416798
vt 0.364657 0.495922
vt 0.549587 0.416798
vt 0.581939 0.440798
vt 0.549587 0.519540
vt 0.364657 0.495922
vt 0.364657 0.050289
vt 0.258646 0.018943
vt 0.258646 0.050289
vt 0.258646 0.018943
vt 0.258646 0.018943
vt 0.430179 0.769744
vt 0.242776 0.701942
vt 0.245747 0.736100
vt 0.247242 0.731981
vt 0.260454 0.618082
vt 0.094372 0.537556
vt 0.105964 0.550175
vt 0.140986 0.624548
vt 0.130176 0.897726
vt 0.122598 0.905075
vt 0.090081 0.685797
vt 0.090393 0.690235
vt 0.122990 0.762808
vt 0.119173 0.763434
vt 0.088148 0.825419
vt 0.118407 0.827779
vt 0.086046 0.822964
vt 0.150564 0.888839
vt 0.159803 0.633828
vt 0.218811 0.825832
vt 0.206261 0.766591
vt 0.208515 0.699227
vt 0.216098 0.954196
vt 0.174441 0.629893
vt 0.166909 0.762263
vt 0.151231 0.694640
vt 0.157334 0.909212
vt 0.059662 0.762805
vt 0.062984 0.527559
vt 0.070544 0.683021
vt 0.064137 0.613893
vt 0.063568 0.829695
vt 0.060229 0.763941
vt 0.007169 0.988444
vt 0.007169 0.828663
vt 0.007169 0.905599
vt 0.007169 0.679978
vt 0.007169 0.613251
vt 0.007169 0.943317
vt 0.007169 0.054244
vt 0.511364 0.733850
vt 0.214591 0.385602
vt 0.353379 0.619632
vt 0.654818 0.397659
vt 0.408390 0.616155
vt 0.709012 0.894159
vt 0.709396 0.731981
vt 0.260454 0.895258
vt 0.753760 0.736100
vt 0.247242 0.701942
vt 0.245747 0.537556
vt 0.105964 0.550175
vt 0.140986 0.624548
vt 0.130176 0.618082
vt 0.094372 0.905075
vt 0.090081 0.897726
vt 0.122598 0.690235
vt 0.122990 0.762808
vt 0.119173 0.763434
vt 0.088148 0.685797
vt 0.090393 0.825419
vt 0.118407 0.827779
vt 0.086046 0.888839
vt 0.159803 0.822964
vt 0.150564 0.909212
vt 0.059662 0.829695
vt 0.060229 0.613893
vt 0.063568 0.527559
vt 0.070544 0.633828
vt 0.218811 0.922402
vt 0.611256 0.825832
vt 0.206261 0.954196
vt 0.174441 0.629893
vt 0.166909 0.766591
vt 0.208515 0.762263
vt 0.151231 0.694640
vt 0.157334 0.699227
vt 0.216098 0.733850
vt 0.214591 0.762805
vt 0.062984 0.683021
vt 0.064137 0.988444
vt 0.007169 0.943317
vt 0.007169 0.763941
vt 0.007169 0.679978
vt 0.007169 0.828663
vt 0.007169 0.613251
vt 0.007169 0.905599
vt 0.007169 0.054244
vt 0.511364 0.769744
vt 0.242776 0.930584
vt 0.820925 0.843808
vt 0.993772 0.805669
vt 0.993772 0.650382
vt 0.993773 0.772088
vt 0.993773 0.688712
vt 0.993773 0.724803
vt 0.993773 0.983888
vt 0.915314 0.977638
vt 0.874093 0.979163
vt 0.830582 0.650077
vt 0.915607 0.688039
vt 0.915045 0.723175
vt 0.913833 0.769638
vt 0.910885 0.807178
vt 0.908105 0.843808
vt 0.909867 0.843808
vt 0.958532 0.806442
vt 0.955736 0.687962
vt 0.962015 0.649680
vt 0.963409 0.771133
vt 0.955886 0.723924
vt 0.958837 0.926994
vt 0.867182 0.936306
vt 0.911666 0.843808
vt 0.868890 0.766851
vt 0.868891 0.805009
vt 0.868891 0.723823
vt 0.868891 0.687335
vt 0.868891 0.649102
vt 0.868891 0.870354
vt 0.787911 0.889490
vt 0.851242 0.595114
vt 0.892171 0.595114
vt 0.709536 0.595114
vt 0.796745 0.595114
vt 0.953916 0.595114
vt 0.838988 0.595114
vt 0.755518 0.430188
vt 0.659968 0.425828
vt 0.705582 0.425457
vt 0.747682 0.426169
vt 0.796112 0.417896
vt 0.877816 0.422386
vt 0.911602 0.416836
vt 0.844608 0.442524
vt 0.876089 0.438085
vt 0.840426 0.442104
vt 0.910021 0.494038
vt 0.797098 0.493132
vt 0.750879 0.492760
vt 0.709223 0.504323
vt 0.953916 0.595114
vt 0.865788 0.806442
vt 0.955736 0.843808
vt 0.958532 0.843808
vt 0.909867 0.843808
vt 0.868890 0.805009
vt 0.868891 0.807178
vt 0.908105 0.769638
vt 0.910885 0.723823
vt 0.868891 0.723175
vt 0.913833 0.649680
vt 0.963409 0.687962
vt 0.962015 0.688039
vt 0.915045 0.723924
vt 0.958837 0.650077
vt 0.915607 0.649102
vt 0.868891 0.687335
vt 0.868891 0.889490
vt 0.851242 0.905814
vt 0.807090 0.926994
vt 0.867182 0.983888
vt 0.915314 0.977638
vt 0.874093 0.936306
vt 0.911666 0.936048
vt 0.960245 0.985472
vt 0.961851 0.771133
vt 0.955886 0.772088
vt 0.993773 0.766851
vt 0.868891 0.805669
vt 0.993772 0.843808
vt 0.993772 0.650382
vt 0.993773 0.688712
vt 0.993773 0.724803
vt 0.993773 0.425457
vt 0.747682 0.426169
vt 0.796112 0.493132
vt 0.750879 0.494038
vt 0.797098 0.417896
vt 0.877816 0.422386
vt 0.911602 0.442524
vt 0.876089 0.442104
vt 0.910021 0.416836
vt 0.844608 0.438085
vt 0.840426 0.595114
vt 0.953916 0.595114
vt 0.892171 0.504323
vt 0.953916 0.425828
vt 0.705582 0.492760
vt 0.709223 0.430188
vt 0.659968 0.595114
vt 0.796745 0.595114
vt 0.838988 0.595114
vt 0.865788 0.595114
vt 0.755518 0.595114
vt 0.709536 0.166631
vt 0.992639 0.334972
vt 0.992639 0.357451
vt 0.496248 0.392695
vt 0.992639 0.222591
vt 0.496248 0.164390
vt 0.992639 0.084056
vt 0.543475 0.097966
vt 0.503978 0.039592
vt 0.464414 0.022574
vt 0.470839 0.074337
vt 0.466176 0.007120
vt 0.515531 0.045914
vt 0.556514 0.007813
vt 0.603283 0.032817
vt 0.587736 0.038667
vt 0.906846 0.007813
vt 0.893820 0.144511
vt 0.496248 0.123884
vt 0.542247 0.166631
vt 0.992639 0.334972
vt 0.992639 0.357451
vt 0.496248 0.392695
vt 0.992639 0.222591
vt 0.496248 0.117897
vt 0.941149 0.164390
vt 0.992639 0.079509
vt 0.918450 0.078743
vt 0.575682 0.084056
vt 0.543475 0.097966
vt 0.503978 0.039592
vt 0.464414 0.022574
vt 0.470839 0.074337
vt 0.466176 0.007120
vt 0.515531 0.045914
vt 0.556514 0.558607
vt 0.456742 0.455129
vt 0.233694 0.525363
vt 0.611193 0.533894
vt 0.620933 0.649550
vt 0.755919 0.405665
vt 0.446673 0.676268
vt 0.762205 0.538970
vt 0.365158 0.506987
vt 0.003969 0.313148
vt 0.442684 0.669297
vt 0.855109 0.955166
vt 0.456742 0.065975
vt 0.233694 0.988410
vt 0.611193 0.979879
vt 0.620933 0.864223
vt 0.755919 0.115438
vt 0.446673 0.837505
vt 0.762205 0.974803
vt 0.365158 0.014116
vt 0.003969 0.207955
vt 0.442684 0.844476
vt 0.855109 0.802167
vt 0.855117 0.757187
vt 0.823134 0.777331
vt 0.828259 0.736680
vt 0.779432 0.739903
vt 0.807873 0.755063
vt 0.748727 0.777331
vt 0.734418 0.736680
vt 0.779432 0.777331
vt 0.769916 0.755063
vt 0.748727 0.757187
vt 0.823134 0.739903
vt 0.807873 0.777331
vt 0.734418 0.777331
vt 0.828259 0.440798
vt 0.364657 0.495922
vt 0.364657 0.519540
vt 0.364657 0.416798
vt 0.364657 0.440798
vt 0.364657 0.050289
vt 0.430179 0.050289
vt 0.430179 0.018943
vt 0.430179 0.774626
vt 0.247883 0.829241
vt 0.230862 0.731703
vt 0.261562 0.691959
vt 0.255971 0.633077
vt 0.243889 0.976140
vt 0.102472 0.964697
vt 0.137280 0.574852
vt 0.224942 0.633077
vt 0.243889 0.881257
vt 0.208734 0.829241
vt 0.230862 0.701942
vt 0.245747 0.943711
vt 0.223497 0.563903
vt 0.177399 0.985848
vt 0.067304 0.528280
vt 0.007169 0.039592
vt 0.464414 0.022574
vt 0.470839 0.045914
vt 0.556514 0.084056
vt 0.543475 0.097966
vt 0.503978 0.007120
vt 0.515531 0.074337
vt 0.466176 0.769744
vt 0.242776 0.736100
vt 0.247242 0.774626
vt 0.247883 0.829241
vt 0.230862 0.731703
vt 0.261562 0.691959
vt 0.255971 0.633077
vt 0.243889 0.976140
vt 0.102472 0.964697
vt 0.137280 0.574852
vt 0.224942 0.633077
vt 0.243889 0.881257
vt 0.208734 0.829241
vt 0.230862 0.701942
vt 0.245747 0.943711
vt 0.223497 0.563903
vt 0.177399 0.985848
vt 0.067304 0.528280
vt 0.007169 0.039592
vt 0.464414 0.022574
vt 0.470839 0.045914
vt 0.556514 0.084056
vt 0.543475 0.097966
vt 0.503978 0.007120
vt 0.515531 0.074337
vt 0.466176 0.769744
vt 0.242776 0.736100
vt 0.247242 0.610623
vt 0.913486 0.610624
vt 0.963381 0.610623
vt 0.868891 0.610624
vt 0.993773 0.501945
vt 0.659968 0.436376
vt 0.953916 0.595114
vt 0.659968 0.610623
vt 0.913486 0.870354
vt 0.787911 0.905814
vt 0.807090 0.930584
vt 0.820925 0.936048
vt 0.960245 0.985472
vt 0.961851 0.979163
vt 0.830582 0.610624
vt 0.963381 0.610623
vt 0.868891 0.610624
vt 0.993773 0.501945
vt 0.659968 0.436376
vt 0.953916 0.595114
vt 0.659968 1.000000

f 335/335 333/333 334/334
f 342/342 332/332 344/344
f 331/331 330/330 345/345
f 337/337 329/329 336/336
f 331/331 344/344 332/332
f 336/336 330/330 339/339
f 553/553 347/347 328/328
f 346/346 328/328 347/347
f 348/348 388/388 349/349
f 349/349 318/318 340/340
f 318/318 349/349 388/388
f 340/340 326/326 325/325
f 325/325 341/341 340/340
f 393/393 341/341 325/325
f 325/325 394/394 393/393
f 326/326 340/340 327/327
f 318/318 327/327 340/340
f 554/554 328/328 337/337
f 345/345 329/329 346/346
f 328/328 346/346 329/329
f 338/338 322/322 339/339
f 329/329 345/345 330/330
f 344/344 331/331 343/343
f 343/343 331/331 345/345
f 338/338 332/332 335/335
f 347/347 553/553 555/555
f 332/332 342/342 333/333
f 335/335 319/319 320/320
f 319/319 335/335 334/334
f 328/328 554/554 553/553
f 337/337 323/323 321/321
f 323/323 337/337 336/336
f 330/330 336/336 329/329
f 332/332 338/338 331/331
f 336/336 324/324 323/323
f 324/324 336/336 339/339
f 339/339 322/322 324/324
f 554/554 321/321 556/556
f 321/321 554/554 337/337
f 329/329 337/337 328/328
f 338/338 330/330 331/331
f 330/330 338/338 339/339
f 338/338 320/320 322/322
f 320/320 338/338 335/335
f 333/333 335/335 332/332
f 358/358 367/367 359/359
f 366/366 359/359 367/367
f 360/360 363/363 361/361
f 365/365 361/361 363/363
f 360/360 362/362 363/363
f 364/364 363/363 362/362
f 353/353 369/369 350/350
f 365/365 350/350 369/369
f 357/357 356/356 368/368
f 557/557 368/368 356/356
f 367/367 358/358 368/368
f 357/357 368/368 358/358
f 362/362 359/359 364/364
f 352/352 354/354 366/366
f 364/364 366/366 354/354
f 359/359 366/366 364/364
f 365/365 558/558 361/361
f 363/363 364/364 354/354
f 354/354 370/370 363/363
f 558/558 365/365 369/369
f 350/350 365/365 363/363
f 366/366 355/355 352/352
f 355/355 366/366 367/367
f 368/368 355/355 367/367
f 355/355 368/368 351/351
f 557/557 351/351 368/368
f 351/351 557/557 559/559
f 370/370 350/350 363/363
f 371/371 372/372 373/373
f 374/374 375/375 376/376
f 377/377 378/378 379/379
f 380/380 381/381 382/382
f 377/377 376/376 375/375
f 381/381 383/383 379/379
f 560/560 384/384 385/385
f 386/386 385/385 384/384
f 561/561 387/387 562/562
f 387/387 389/389 563/563
f 563/563 562/562 387/387
f 389/389 390/390 391/391
f 390/390 389/389 392/392
f 564/564 390/390 392/392
f 390/390 564/564 565/565
f 391/391 566/566 389/389
f 563/563 389/389 566/566
f 567/567 380/380 384/384
f 378/378 386/386 382/382
f 384/384 382/382 386/386
f 395/395 383/383 396/396
f 382/382 379/379 378/378
f 375/375 397/397 377/377
f 397/397 378/378 377/377
f 395/395 371/371 376/376
f 385/385 568/568 560/560
f 376/376 373/373 374/374
f 371/371 399/399 372/372
f 399/399 371/371 398/398
f 384/384 560/560 567/567
f 380/380 401/401 381/381
f 401/401 380/380 400/400
f 379/379 382/382 381/381
f 376/376 377/377 395/395
f 381/381 402/402 383/383
f 402/402 381/381 401/401
f 383/383 402/402 396/396
f 567/567 400/400 380/380
f 400/400 567/567 569/569
f 382/382 384/384 380/380
f 395/395 379/379 383/383
f 379/379 395/395 377/377
f 395/395 398/398 371/371
f 398/398 395/395 396/396
f 373/373 376/376 371/371
f 403/403 404/404 405/405
f 406/406 405/405 404/404
f 407/407 408/408 409/409
f 410/410 409/409 408/408
f 407/407 409/409 411/411
f 412/412 411/411 409/409
f 413/413 414/414 415/415
f 410/410 415/415 414/414
f 416/416 417/417 418/418
f 570/570 418/418 417/417
f 405/405 417/417 403/403
f 416/416 403/403 417/417
f 411/411 412/412 404/404
f 419/419 406/406 420/420
f 412/412 420/420 406/406
f 404/404 412/412 406/406
f 410/410 408/408 571/571
f 409/409 420/420 412/412
f 420/420 409/409 421/421
f 571/571 415/415 410/410
f 414/414 409/409 410/410
f 406/406 419/419 422/422
f 422/422 405/405 406/406
f 417/417 405/405 422/422
f 422/422 423/423 417/417
f 570/570 417/417 423/423
f 423/423 572/572 570/570
f 421/421 409/409 414/414
