# MOD converted: h_m_costume_korclothes_body_lod2.mod
# 785 verts, 174 faces

v 101.118446 -7.852671 15.211121
v 101.358009 -0.095422 11.709961
v 122.792900 -0.064353 11.864310
v 123.366791 8.796795 11.028204
v 107.775032 -6.823062 11.079518
v 117.564003 11.866949 12.933021
v 118.521889 -3.494416 11.733602
v 124.312950 4.779889 15.423860
v 117.477058 11.223421 7.038139
v 115.214844 -7.919530 7.695929
v 107.280968 -10.205564 6.105308
v 119.853836 -5.032810 8.009079
v 122.820267 -0.166992 8.973582
v 124.335991 5.004956 5.015281
v 123.251732 9.664583 9.799948
v 108.633965 10.665871 5.446918
v 132.238327 4.085741 4.901293
v 130.072998 -1.004891 8.852859
v 95.517303 -7.785460 16.338875
v 95.615570 -0.142111 4.686271
v 126.547295 -0.601368 4.864509
v 128.351761 4.704549 14.152394
v 110.130943 -0.032135 14.648087
v 109.560814 7.811092 16.538593
v 122.472900 8.604385 16.742447
v 109.500023 7.406618 16.495247
v 122.342850 0.010249 16.785748
v 123.471695 4.460548 15.940628
v 119.380531 -2.556137 20.745733
v 120.879715 0.612209 8.531586
v 100.689003 8.306568 6.048275
v 124.254524 -0.382699 6.694297
v 126.486206 5.718846 8.705342
v 95.903885 7.971792 17.237648
v 91.890083 -0.151579 9.206593
v 92.516563 9.446180 9.609940
v 91.299576 -8.829361 0.000011
v 92.554390 12.581514 15.598115
v 87.482925 7.776590 9.591286
v 87.952194 13.602243 0.000013
v 88.115334 14.358921 14.115975
v 86.357567 -7.245166 8.302758
v 86.056633 -10.458741 18.777351
v 86.997787 -0.011913 18.288656
v 115.969322 -2.296700 0.000016
v 108.118965 11.901190 0.000014
v 125.411995 -3.257121 0.000012
v 116.401993 12.206068 0.000014
v 128.726074 -3.807366 -8.226226
v 101.118446 -7.852679 -15.211095
v 101.358009 -0.095421 -11.709934
v 122.797508 -0.056414 -11.864278
v 123.357628 8.805622 -11.028178
v 107.775978 -6.823972 -11.080013
v 117.556305 11.866945 -12.932996
v 118.527321 -3.493291 -11.733574
v 124.310020 4.790073 -15.423833
v 117.469627 11.224190 -7.038112
v 115.215988 -7.919867 -7.695905
v 107.280952 -10.205575 -6.105287
v 119.859795 -5.032000 -8.009053
v 122.823677 -0.162176 -8.973554
v 124.333649 5.011606 -5.015255
v 123.246483 9.667751 -9.799917
v 108.633965 10.665865 -5.446894
v 132.238327 4.085729 -4.901268
v 130.072983 -1.004903 -8.852838
v 95.517303 -7.785467 -16.338844
v 95.615570 -0.142112 -4.686244
v 126.549667 -0.596568 -4.864480
v 128.350555 4.710537 -14.152371
v 110.133728 -0.038170 -14.648060
v 109.556175 7.804647 0.000011
v 115.152985 -9.169806 0.000016
v 122.653717 10.562582 0.000012
v 133.221420 6.875782 0.000013
v 129.225967 7.667747 0.000012
v 101.190102 -11.778090 0.000012
v 101.462128 11.450544 0.000014
v 119.333481 -6.332234 0.000013
v 107.179970 -11.591796 -16.538565
v 122.466278 8.611198 -16.495224
v 122.346199 0.016909 -16.785717
v 123.469879 4.468532 -15.940599
v 119.386871 -2.552891 0.000013
v 122.312820 -2.983318 -8.531559
v 100.689003 8.306562 0.000013
v 126.244949 8.761585 -6.048249
v 124.257011 -0.378762 -6.694272
v 126.484108 5.724481 -8.705317
v 95.903885 7.971784 -17.237621
v 91.890083 -0.151580 -9.206569
v 92.516563 9.446173 0.000013
v 91.073357 -12.145252 -9.609917
v 91.299576 -8.829371 0.000012
v 95.607483 -11.831294 0.000012
v 96.033661 11.596018 -15.598090
v 87.482925 7.776592 -9.591261
v 87.952194 13.602238 -14.115949
v 86.357567 -7.245172 -8.302738
v 86.056641 -10.458747 -18.777330
v 86.997787 -0.011908 0.000013
v 85.954582 -12.573021 -20.864481
v 120.953682 7.311601 24.857428
v 111.479385 10.915171 25.198938
v 111.858543 -4.029704 21.443001
v 105.436882 -0.563781 21.376137
v 105.275642 7.668817 27.909473
v 116.837021 -0.364271 27.911976
v 117.004990 7.900522 26.372972
v 101.221542 7.100584 26.658932
v 101.439178 -1.292594 34.433979
v 113.653992 6.953075 31.022461
v 108.348663 -4.710052 45.836868
v 85.913925 8.117847 51.448746
v 94.746399 12.774652 45.324509
v 85.823669 -2.742274 56.136726
v 102.045685 9.012213 50.994373
v 94.642212 -8.607248 34.188095
v 113.417885 -1.725945 55.796421
v 102.364784 -4.351213 29.841709
v 108.896782 10.713745 28.320295
v 99.180244 6.897508 36.530220
v 112.623817 7.385330 34.709309
v 106.001495 11.167656 31.959557
v 107.768211 11.120790 36.332989
v 112.309372 -2.024171 33.307842
v 106.881302 -5.299633 28.481070
v 99.348549 -1.534793 33.005745
v 94.504913 -1.841904 38.598061
v 103.402672 -5.993774 42.521362
v 109.379562 -2.528550 42.668472
v 109.325439 7.730442 38.494976
v 103.374680 11.552025 32.970455
v 94.504517 7.160678 45.882812
v 92.817688 5.221748 48.243694
v 96.572601 7.533269 45.628487
v 92.772873 -0.168955 50.570663
v 100.195770 5.665683 48.018112
v 96.520866 -3.080186 50.401726
v 100.354172 -0.967588 -24.857401
v 111.479462 10.915163 -25.198917
v 111.858490 -4.029714 -21.442978
v 105.436844 -0.563744 -21.376112
v 105.275665 7.668852 -27.909447
v 116.836990 -0.364320 -27.911949
v 117.005020 7.900470 -26.372946
v 101.221573 7.100616 -26.658905
v 101.439163 -1.292557 -34.433956
v 113.654030 6.953035 -31.022436
v 108.348625 -4.710060 -45.836845
v 85.913925 8.117844 -51.448738
v 94.746407 12.774656 -45.324478
v 85.823677 -2.742283 -56.136703
v 102.045677 9.012226 -50.994354
v 94.642258 -8.607248 -34.188057
v 113.417877 -1.725983 -55.796387
v 102.364792 -4.351203 -29.841686
v 108.896835 10.713739 -28.320280
v 99.180252 6.897506 -36.530205
v 112.623810 7.385327 -34.709301
v 106.001465 11.167650 -31.959538
v 107.768234 11.120787 -36.332966
v 112.309387 -2.024176 -33.307800
v 106.881302 -5.299632 -28.481041
v 99.348557 -1.534796 -33.005714
v 94.504929 -1.841913 -38.598015
v 103.402695 -5.993775 -42.521336
v 109.379570 -2.528542 -42.668453
v 109.325424 7.730453 -38.494965
v 103.374657 11.552021 -32.970436
v 94.504509 7.160671 -45.882790
v 92.817688 5.221744 -48.243675
v 96.572586 7.533273 -45.628464
v 92.772888 -0.168959 -50.570633
v 100.195770 5.665693 -48.018082
v 96.520874 -3.080185 -50.401695
v 100.354172 -0.967581 15.497991
v 109.575851 0.073888 18.683451
v 116.608673 9.940948 20.864508
v 120.955376 7.309558 -16.742424
v 109.496193 7.401130 -15.497966
v 109.578270 0.068230 -18.683426
v 116.601868 9.941671 -20.745707
v 120.880577 0.614217 -18.288637
v 115.974365 -2.296642 -6.990284
v 103.214798 -10.490198 -7.171871
v 106.962746 -11.120921 -9.271988
v 105.935394 -11.008144 -10.638705
v 103.834465 -10.867175 -11.378995
v 99.748474 -11.004466 -8.275917
v 98.129944 -13.128521 -11.550169
v 91.242752 -10.661911 -7.905432
v 89.464104 -13.058767 -12.581651
v 81.348495 -11.109389 -7.923152
v 79.155075 -13.995211 -15.158942
v 72.659729 -14.304361 -9.683520
v 69.978218 -17.684149 -7.970860
v 101.889870 -12.079854 -10.441684
v 99.673462 -10.781102 -7.258595
v 98.684479 -13.030422 -8.969451
v 91.261749 -10.880701 -4.932917
v 90.253914 -13.305941 -8.474513
v 81.306976 -11.617644 -3.563239
v 80.097549 -14.503462 -10.477071
v 72.223953 -14.775110 -4.689302
v 70.700554 -18.154907 16.553102
v 88.057579 -1.332798 16.888401
v 85.664337 -2.530490 17.338696
v 85.481339 -1.988674 15.895529
v 88.698471 -1.732941 17.936913
v 82.534897 -3.376304 18.353008
v 82.558495 -2.806934 18.349812
v 79.697868 -3.731236 18.516312
v 78.793388 -4.532855 19.707321
v 78.820564 -2.831882 18.952551
v 79.696762 -2.882194 19.170139
v 77.980766 -4.170380 19.596596
v 78.000488 -3.589829 19.232122
v 80.286385 -3.687084 18.202402
v 80.958702 -3.693003 18.150021
v 79.857689 -4.084120 18.783314
v 79.187881 -3.364218 19.227097
v 79.874939 -2.528175 18.868080
v 80.969368 -2.731375 17.934816
v 80.023247 -2.764446 18.897747
v 81.967567 -3.529045 17.868027
v 82.639893 -3.534961 17.815643
v 81.538872 -3.926079 18.448936
v 80.869072 -3.206178 18.892719
v 81.556129 -2.370137 18.533705
v 82.650543 -2.573334 17.600437
v 81.704437 -2.606411 19.949024
v 78.159302 -3.514017 19.612391
v 78.156769 -4.498940 20.311245
v 75.702667 -4.762812 20.673931
v 75.705406 -3.701660 18.657772
v 77.901382 -4.172004 19.282745
v 75.427521 -4.410568 18.994408
v 77.903931 -3.187082 19.645435
v 75.430252 -3.349421 22.709133
v 69.746872 -6.125454 20.806849
v 69.237946 -5.473963 21.477676
v 69.243019 -3.511279 23.379932
v 69.751945 -4.162788 17.102253
v 88.333626 -0.688631 17.823759
v 85.461098 -1.563761 18.168549
v 85.352127 -0.516613 16.475607
v 88.976395 -1.734023 19.237421
v 81.839600 -1.345684 19.533907
v 81.969437 -0.312943 20.237659
v 78.808441 -1.274149 20.403856
v 77.423874 -1.804008 21.030659
v 77.719009 0.491860 20.621889
v 78.901550 0.001274 20.991711
v 76.692673 -1.239696 21.406572
v 76.769745 -0.319964 20.629568
v 80.687805 1.409386 21.064049
v 78.759583 0.354244 20.388582
v 78.531967 0.497881 19.954102
v 80.460190 1.553025 20.673798
v 78.572899 -1.844181 19.998333
v 78.345284 -1.700542 19.849066
v 80.314438 -2.987435 19.173595
v 80.086823 -2.843798 19.414585
v 82.242653 -1.932281 18.739120
v 82.015038 -1.788636 19.804838
v 82.429337 0.266125 19.129370
v 82.201721 0.409770 21.504374
v 76.855133 -0.004024 21.856331
v 76.940796 -1.097330 22.649521
v 74.215599 -1.090083 22.270042
v 74.123322 0.087935 20.792953
v 76.687225 -1.459560 21.503838
v 73.942406 -1.480342 20.440998
v 76.601562 -0.366390 21.124378
v 73.850113 -0.302521 25.674562
v 67.615669 -1.249098 23.555546
v 67.110367 -1.970912 22.854198
v 66.939674 0.207784 24.973213
v 67.444977 0.929318 17.122295
v 88.031601 2.197477 18.123905
v 85.598709 1.603881 18.132755
v 85.453026 2.316981 16.865459
v 88.634735 1.440148 19.455482
v 82.467041 1.770072 19.421448
v 82.527863 2.472218 19.985619
v 79.630402 1.903064 20.614410
v 78.696724 1.432693 20.472000
v 78.833664 3.499938 19.920879
v 79.684357 2.940881 20.891159
v 77.920334 2.167451 20.858128
v 77.978096 2.884990 20.647099
v 80.245834 2.460251 19.853195
v 80.886848 1.773806 20.052776
v 79.768600 1.495179 20.089638
v 79.149979 2.487094 19.912842
v 79.885918 3.378784 19.766712
v 80.959351 2.937954 19.056870
v 79.985809 2.376222 20.296034
v 81.921860 2.284526 19.502132
v 82.562866 1.598088 19.701712
v 81.444618 1.319440 19.738575
v 80.826012 2.311375 19.561779
v 81.561943 3.203058 19.415651
v 82.635376 2.762225 18.705807
v 81.661835 2.200490 21.085411
v 78.150345 3.156741 21.442511
v 78.094528 2.180642 22.139755
v 75.652679 2.543715 21.755009
v 75.712799 3.595350 20.493240
v 77.826004 1.848711 21.117016
v 75.363358 2.186083 20.136143
v 77.881805 2.824808 20.732277
v 75.423477 3.237724 24.831659
v 69.715279 3.304580 22.940031
v 69.180161 2.643131 22.228428
v 69.291367 4.588230 24.120043
v 69.826485 5.249649 -17.102251
v 88.333633 -0.688637 -17.823757
v 85.461098 -1.563761 -18.168549
v 85.352127 -0.516617 -16.475605
v 88.976395 -1.734022 -19.237421
v 81.839600 -1.345695 -19.533905
v 81.969437 -0.312944 -20.237659
v 78.808441 -1.274153 -20.403854
v 77.423882 -1.804003 -21.030657
v 77.719009 0.491862 -20.621887
v 78.901550 0.001294 -20.991711
v 76.692673 -1.239707 -21.406574
v 76.769745 -0.319975 -20.629566
v 80.687805 1.409390 -21.064049
v 78.759583 0.354251 -20.388584
v 78.531967 0.497903 -19.954102
v 80.460190 1.553027 -20.673798
v 78.572906 -1.844186 -19.998333
v 78.345284 -1.700540 -19.849066
v 80.314438 -2.987437 -19.173595
v 80.086823 -2.843803 -19.414585
v 82.242653 -1.932283 -18.739120
v 82.015045 -1.788641 -19.804836
v 82.429337 0.266129 -19.129370
v 82.201721 0.409765 -21.504372
v 76.855133 -0.004064 -21.856333
v 76.940796 -1.097336 -22.649521
v 74.215607 -1.090095 -22.270317
v 74.123322 0.087890 -20.792953
v 76.687225 -1.459561 -21.503841
v 73.942413 -1.480345 -20.440996
v 76.601562 -0.366390 -21.124645
v 73.850113 -0.302539 -25.674883
v 67.615677 -1.249118 -23.555840
v 67.110367 -1.970948 -22.854485
v 66.939682 0.207760 -24.973524
v 67.444977 0.929345 -17.320980
v 88.031601 2.197482 -18.322590
v 85.598709 1.603877 -18.331436
v 85.453026 2.316980 -17.064148
v 88.634735 1.440151 -19.654167
v 82.467041 1.770075 -19.620125
v 82.527863 2.472226 -20.184303
v 79.630402 1.903068 -20.813095
v 78.696732 1.432699 -20.670691
v 78.833679 3.499935 -20.119564
v 79.684357 2.940886 -21.089840
v 77.920334 2.167453 -21.056812
v 77.978104 2.884988 -20.845783
v 80.245842 2.460254 -20.051878
v 80.886848 1.773811 -20.251457
v 79.768600 1.495169 -20.288322
v 79.149986 2.487103 -20.111526
v 79.885918 3.378785 -19.965397
v 80.959351 2.937956 -19.255552
v 79.985809 2.376220 -20.494720
v 81.921860 2.284525 -19.700815
v 82.562866 1.598082 -19.900396
v 81.444618 1.319449 -19.937260
v 80.826012 2.311373 -19.760464
v 81.561943 3.203062 -19.614334
v 82.635376 2.762232 -18.904490
v 81.661835 2.200495 -21.284098
v 78.150345 3.156746 -21.641197
v 78.094536 2.180648 -22.338438
v 75.652679 2.543709 -21.953693
v 75.712799 3.595350 -20.691925
v 77.826004 1.848713 -21.315697
v 75.363358 2.186089 -20.334827
v 77.881813 2.824812 -20.930960
v 75.423485 3.237726 -25.030655
v 69.715271 3.304615 -23.139006
v 69.180161 2.643167 -22.427391
v 69.291367 4.588283 -24.319027
v 69.826485 5.249715 -3.066691
v 102.816673 -12.089636 0.000000
v 102.305290 -13.066227 0.000000
v 106.994690 -12.913895 -3.246672
v 106.940926 -11.933680 -3.031107
v 102.727707 -10.390541 0.000000
v 102.173096 -11.092689 6.823196
v 101.844269 -7.941650 6.643933
v 107.410400 -9.091550 7.367712
v 107.426590 -11.429974 7.546978
v 101.860466 -9.949445 5.404565
v 107.498924 -12.025354 -3.211087
v 106.851967 -10.234589 -7.136284
v 106.813019 -8.849288 -6.954672
v 103.065056 -9.046000 5.583826
v 101.932770 -10.805886 0.000018
v 106.862534 -10.940350 9.224701
v 91.332581 -7.761814 8.913473
v 92.419678 7.861087 0.000017
v 91.124290 -10.764639 14.901838
v 91.859962 -0.151335 0.000017
v 86.365891 -10.774210 0.000015
v 88.115326 11.829681 7.441736
v 86.450867 -9.219986 8.486024
v 88.028687 11.105736 12.384976
v 86.701324 -6.136459 16.469275
v 87.234261 0.026934 13.595720
v 87.638092 6.637540 11.285540
v 77.528793 11.805235 9.812886
v 81.988586 12.335270 1.899258
v 76.738586 12.243914 13.715557
v 81.669350 -7.257725 18.136507
v 81.987396 -0.184117 22.105066
v 65.866539 3.787391 18.344883
v 65.993408 -8.624905 10.743566
v 65.837776 -12.614666 8.039149
v 79.330330 -10.428843 3.092323
v 73.568901 10.147083 4.267789
v 65.580284 13.848455 16.528503
v 80.092155 6.550142 1.035746
v 65.170959 1.929636 2.287910
v 74.462715 -8.162146 2.886232
v 65.464363 -8.838771 14.559039
v 65.867096 13.637571 9.779282
v 22.092621 -2.668145 9.783408
v 22.092003 10.547886 20.712515
v 22.094376 4.781251 7.254717
v 22.091618 3.989365 19.161900
v 22.093590 -2.289523 17.201443
v 22.093697 10.735449 5.247284
v 53.112965 -9.040474 1.866750
v 48.745224 3.552688 7.690060
v 50.074150 13.855852 15.982931
v 50.654678 15.054392 19.270500
v 54.092506 -8.244178 25.835426
v 50.352360 4.582983 13.149328
v 49.529289 -13.978121 5.217417
v 48.955269 -8.679394 19.979717
v 50.348053 -7.905861 13.404797
v 45.793060 -12.861170 20.669744
v 47.090183 -7.015276 5.666690
v 46.084957 -8.034657 27.278883
v 39.133022 4.269733 17.406599
v 39.311493 16.695547 8.879183
v 38.951897 17.034510 2.401696
v 37.495201 3.658048 12.450570
v 54.053528 -13.787092 25.107853
v 52.904312 4.360601 15.696450
v 52.577835 14.991827 7.281643
v 52.103512 14.255581 1.418046
v 51.724277 3.380902 14.499426
v 22.093090 -4.422280 1.129768
v 73.476128 0.679766 0.000012
v 80.989365 -11.478595 0.000017
v 73.629791 0.617909 0.000013
v 75.121002 7.439929 4.449349
v 29.793407 3.845246 8.419241
v 30.187996 -5.983378 25.772322
v 30.604786 4.628417 20.823616
v 30.691086 -5.206580 14.623296
v 30.521927 -11.081582 17.617577
v 30.664162 15.482061 9.523310
v 30.483521 15.523947 0.000015
v 92.554382 9.789890 0.000015
v 74.371979 -8.744974 0.000012
v 81.839905 13.085905 -9.224670
v 91.332581 -7.761815 -8.913441
v 92.419678 7.861087 -14.901808
v 91.859962 -0.151335 -7.441706
v 86.450867 -9.219986 -8.485993
v 88.028709 11.105736 -12.384947
v 86.701324 -6.136458 -16.469244
v 87.234261 0.026933 -13.595689
v 87.638092 6.637544 -11.285511
v 77.528793 11.805233 -9.812855
v 81.988586 12.335270 -1.899230
v 76.738586 12.243914 -13.715529
v 81.669350 -7.257724 -18.136475
v 81.987396 -0.184148 -22.105040
v 65.866539 3.787390 -18.344854
v 65.993408 -8.624907 -10.743538
v 65.837784 -12.614668 -8.039119
v 79.330330 -10.428843 -3.092292
v 73.568901 10.147081 -4.267762
v 65.580284 13.848459 -16.528473
v 80.092155 6.550144 -1.035717
v 65.170952 1.929641 -2.287881
v 74.462715 -8.162148 -2.886204
v 65.464363 -8.838771 -14.559011
v 65.867096 13.637571 -9.779253
v 22.092628 -2.668145 -9.783377
v 22.092010 10.547886 -20.712486
v 22.094376 4.781255 -7.254687
v 22.091618 3.989368 -19.161873
v 22.093590 -2.289522 -17.201412
v 22.093697 10.735449 -5.247255
v 53.112957 -9.040473 -1.866721
v 48.745224 3.552697 -7.690029
v 50.074150 13.855852 -15.982901
v 50.654686 15.054392 -19.270466
v 54.092514 -8.244181 -25.835388
v 50.352360 4.582989 -13.149301
v 49.529289 -13.978121 -5.217388
v 48.955269 -8.679396 -19.979687
v 50.348053 -7.905862 -13.404774
v 45.793064 -12.861170 -20.669718
v 47.090183 -7.015274 -5.666659
v 46.084957 -8.034658 -27.278847
v 39.133022 4.269758 -17.406569
v 39.311493 16.695551 -8.879153
v 38.951897 17.034510 -2.401667
v 37.495201 3.658053 -12.450537
v 54.053528 -13.787092 -25.107822
v 52.904320 4.360608 -15.696424
v 52.577835 14.991827 -7.281613
v 52.103512 14.255581 -1.418018
v 51.724274 3.380908 -14.499394
v 22.093094 -4.422279 -1.129737
v 73.476128 0.679775 -4.449318
v 29.793407 3.845246 -8.419214
v 30.187996 -5.983380 -25.772284
v 30.604790 4.628433 -20.823591
v 30.691086 -5.206578 -14.623267
v 30.521927 -11.081583 -17.617552
v 30.664162 15.482059 -9.523280
v 30.483528 15.523947 8.226254
v 101.118446 -7.852671 8.852859
v 95.517303 -7.785460 14.152394
v 110.130943 -0.032135 7.695929
v 107.280968 -10.205564 7.038139
v 115.214844 -7.919530 6.105308
v 119.853836 -5.032810 6.048275
v 124.254524 -0.382699 4.686271
v 126.547295 -0.601368 0.000013
v 129.225967 7.667747 15.211121
v 101.358009 -0.095422 16.338875
v 95.615570 -0.142111 4.686271
v 126.547295 -0.601368 0.000014
v 125.411995 -3.257121 4.864509
v 128.351761 4.704549 14.648087
v 109.560814 7.811092 15.423860
v 117.477058 11.223421 14.648087
v 109.560814 7.811092 14.152394
v 110.130943 -0.032135 16.742447
v 109.500023 7.406618 11.733602
v 124.312950 4.779889 11.709961
v 122.792900 -0.064353 12.933021
v 118.521889 -3.494416 11.864310
v 123.366791 8.796795 17.237648
v 91.890083 -0.151579 9.609940
v 91.299576 -8.829361 18.777351
v 86.997787 -0.011913 8.302758
v 86.056633 -10.458741 0.000012
v 101.462128 11.450544 0.000012
v 96.033661 11.596018 -8.226226
v 101.118446 -7.852679 -8.852838
v 95.517303 -7.785467 0.000016
v 108.118965 11.901190 -14.152371
v 110.133728 -0.038170 -7.695905
v 107.280952 -10.205575 -7.038112
v 115.215988 -7.919867 0.000012
v 116.401993 12.206068 0.000016
v 122.653717 10.562582 -6.105287
v 119.859795 -5.032000 -6.048249
v 124.257011 -0.378762 0.000013
v 126.244949 8.761585 -4.686244
v 126.549667 -0.596568 0.000013
v 129.225967 7.667747 0.000013
v 129.225967 7.667747 0.000012
v 133.221420 6.875782 0.000014
v 128.726074 -3.807366 -15.211095
v 101.358009 -0.095421 -16.338844
v 95.615570 -0.142112 -4.686244
v 126.549667 -0.596568 0.000014
v 125.411995 -3.257121 -4.864480
v 128.350555 4.710537 -14.648060
v 109.556175 7.804647 -15.423833
v 117.469627 11.224190 -14.648060
v 109.556175 7.804647 -16.742424
v 109.496193 7.401130 -14.152371
v 110.133728 -0.038170 -11.733574
v 124.310020 4.790073 -11.709934
v 122.797508 -0.056414 -12.932996
v 118.527321 -3.493291 -11.864278
v 123.357628 8.805622 -17.237621
v 91.890083 -0.151580 0.000011
v 92.554390 12.581514 -9.609917
v 91.299576 -8.829371 0.000013
v 88.115334 14.358921 -18.777330
v 86.997787 -0.011908 -8.302738
v 86.056641 -10.458747 16.742447
v 109.500023 7.406618 15.497991
v 109.575851 0.073888 18.683451
v 116.608673 9.940948 21.376137
v 105.275642 7.668817 16.742447
v 109.500023 7.406618 18.288656
v 115.969322 -2.296700 20.745733
v 120.879715 0.612209 20.864508
v 120.955376 7.309558 24.857428
v 111.479385 10.915171 21.376137
v 105.275642 7.668817 26.372972
v 101.221542 7.100584 21.376137
v 105.275642 7.668817 21.443001
v 105.436882 -0.563781 27.911976
v 117.004990 7.900522 27.909473
v 116.837021 -0.364271 25.198938
v 111.858543 -4.029704 45.836868
v 85.913925 8.117847 32.970455
v 94.504517 7.160678 28.320295
v 99.180244 6.897508 45.836868
v 85.913925 8.117847 51.448746
v 94.746399 12.774652 50.994373
v 94.642212 -8.607248 45.324509
v 85.823669 -2.742274 55.796421
v 102.364784 -4.351213 56.136726
v 102.045685 9.012213 -16.742424
v 109.496193 7.401130 -15.497966
v 109.578270 0.068230 -18.683426
v 116.601868 9.941671 -21.376112
v 105.275665 7.668852 -16.742424
v 109.496193 7.401130 -18.288637
v 115.974365 -2.296642 -20.745707
v 120.880577 0.614217 -20.864481
v 120.953682 7.311601 -24.857401
v 111.479462 10.915163 -21.376112
v 105.275665 7.668852 -21.376112
v 105.275665 7.668852 -26.372946
v 101.221573 7.100616 -21.442978
v 105.436844 -0.563744 -27.911949
v 117.005020 7.900470 -27.909447
v 116.836990 -0.364320 -25.198917
v 111.858490 -4.029714 -32.970436
v 94.504509 7.160671 -45.836845
v 85.913925 8.117844 -28.320280
v 99.180252 6.897506 -45.836845
v 85.913925 8.117844 -51.448738
v 94.746407 12.774656 -50.994354
v 94.642258 -8.607248 -45.324478
v 85.823677 -2.742283 -55.796387
v 102.364792 -4.351203 -56.136703
v 102.045677 9.012226 -7.970860
v 101.889870 -12.079854 -10.638705
v 103.834465 -10.867175 18.150021
v 79.857689 -4.084120 18.783314
v 79.187881 -3.364218 19.227097
v 79.874939 -2.528175 18.868080
v 80.969368 -2.731375 17.815643
v 81.538872 -3.926079 18.448936
v 80.869072 -3.206178 18.892719
v 81.556129 -2.370137 18.533705
v 82.650543 -2.573334 19.949024
v 78.159302 -3.514017 18.657772
v 77.901382 -4.172004 18.994408
v 77.903931 -3.187082 19.612391
v 78.156769 -4.498940 22.709133
v 69.746872 -6.125454 23.379932
v 69.751945 -4.162788 20.806849
v 69.237946 -5.473963 21.477676
v 69.243019 -3.511279 21.064049
v 78.759583 0.354244 20.388582
v 78.531967 0.497881 19.414585
v 82.242653 -1.932281 18.739120
v 82.015038 -1.788636 20.673798
v 78.572899 -1.844181 20.629568
v 80.687805 1.409386 21.064049
v 78.759583 0.354244 19.414585
v 82.242653 -1.932281 19.804838
v 82.429337 0.266125 19.849066
v 80.314438 -2.987435 19.173595
v 80.086823 -2.843798 19.129370
v 82.201721 0.409770 18.739120
v 82.015038 -1.788636 20.388582
v 78.531967 0.497881 19.954102
v 80.460190 1.553025 19.998333
v 78.345284 -1.700542 21.504374
v 76.855133 -0.004024 20.792953
v 76.687225 -1.459560 20.440998
v 76.601562 -0.366390 21.856331
v 76.940796 -1.097330 25.674562
v 67.615669 -1.249098 24.973213
v 67.444977 0.929318 23.555546
v 67.110367 -1.970912 22.854198
v 66.939674 0.207784 20.052776
v 79.768600 1.495179 20.089638
v 79.149979 2.487094 19.912842
v 79.885918 3.378784 19.766712
v 80.959351 2.937954 19.701712
v 81.444618 1.319440 19.738575
v 80.826012 2.311375 19.561779
v 81.561943 3.203058 19.415651
v 82.635376 2.762225 21.085411
v 78.150345 3.156741 20.493240
v 77.826004 1.848711 20.136143
v 77.881805 2.824808 21.442511
v 78.094528 2.180642 24.831659
v 69.715279 3.304580 24.120043
v 69.826485 5.249649 22.940031
v 69.180161 2.643131 22.228428
v 69.291367 4.588230 -21.064049
v 78.759583 0.354251 -20.388584
v 78.531967 0.497903 -19.414585
v 82.242653 -1.932283 -18.739120
v 82.015045 -1.788641 -20.673798
v 78.572906 -1.844186 -19.414585
v 82.242653 -1.932283 -19.849066
v 80.314438 -2.987437 -20.629566
v 80.687805 1.409390 -19.804836
v 82.429337 0.266129 -21.064049
v 78.759583 0.354251 -19.173595
v 80.086823 -2.843803 -20.388584
v 78.531967 0.497903 -19.998333
v 78.345284 -1.700540 -19.129370
v 82.201721 0.409765 -19.954102
v 80.460190 1.553027 -18.739120
v 82.015045 -1.788641 -21.504372
v 76.855133 -0.004064 -20.792953
v 76.687225 -1.459561 -21.856333
v 76.940796 -1.097336 -20.440996
v 76.601562 -0.366390 -25.674883
v 67.615677 -1.249118 -24.973524
v 67.444977 0.929345 -23.555840
v 67.110367 -1.970948 -22.854485
v 66.939682 0.207760 -20.251457
v 79.768600 1.495169 -20.288322
v 79.149986 2.487103 -20.111526
v 79.885918 3.378785 -19.965397
v 80.959351 2.937956 -19.900396
v 81.444618 1.319449 -19.937260
v 80.826012 2.311373 -19.760464
v 81.561943 3.203062 -19.614334
v 82.635376 2.762232 -21.284098
v 78.150345 3.156746 -20.691925
v 77.826004 1.848713 -21.641197
v 78.094536 2.180648 -20.334827
v 77.881813 2.824812 -25.030655
v 69.715271 3.304615 -24.319027
v 69.826485 5.249715 -23.139006
v 69.180161 2.643167 -22.427391
v 69.291367 4.588283 -7.171871
v 106.962746 -11.120921 -6.990284
v 103.214798 -10.490198 0.000000
v 102.305290 -13.066227 -3.066691
v 102.816673 -12.089636 -6.954672
v 103.065056 -9.046000 -6.990284
v 103.214798 -10.490198 6.823196
v 101.844269 -7.941650 5.583826
v 101.932770 -10.805886 7.546978
v 101.860466 -9.949445 1.129768
v 73.476128 0.679766 0.000017
v 73.629791 0.617909 1.035746
v 65.170959 1.929636 1.418046
v 51.724277 3.380902 1.866750
v 48.745224 3.552688 2.401696
v 37.495201 3.658048 4.449349
v 29.793407 3.845246 7.254717
v 22.091618 3.989365 0.000015
v 92.554382 9.789890 0.000015
v 88.115326 11.829681 0.000017
v 86.365891 -10.774210 0.000017
v 91.124290 -10.764639 0.000017
v 73.629791 0.617909 0.000013
v 75.121002 7.439929 -1.129737
v 73.476128 0.679775 0.000015
v 74.371979 -8.744974 0.000017
v 73.629791 0.617909 -1.035717
v 65.170952 1.929641 0.000012
v 80.989365 -11.478595 0.000012
v 81.839905 13.085905 -1.418018
v 51.724274 3.380908 -1.866721
v 48.745224 3.552697 -2.401667
v 37.495201 3.658053 -4.449318
v 29.793407 3.845246 -7.254687
v 22.091618 3.989368 0.216535

vt 0.276818 0.761719
vt 0.852351 0.842809
vt 0.513245 0.859420
vt 0.601109 0.788851
vt 0.348705 0.860739
vt 0.665734 0.806287
vt 0.460373 0.857642
vt 0.561312 0.819283
vt 0.663517 0.853785
vt 0.397072 0.554799
vt 0.761299 0.878876
vt 0.443645 0.881273
vt 0.502660 0.887897
vt 0.558070 0.926936
vt 0.611095 0.862026
vt 0.755655 0.581892
vt 0.043494 0.508422
vt 0.054713 0.755588
vt 0.227603 0.663588
vt 0.274926 0.501162
vt 0.108062 0.951236
vt 0.545956 0.733186
vt 0.770359 0.807568
vt 0.750254 0.609913
vt 0.393947 0.561191
vt 0.509708 0.608787
vt 0.316267 0.610739
vt 0.357096 0.605246
vt 0.280597 0.569891
vt 0.324276 0.865806
vt 0.840018 0.564929
vt 0.969094 0.925118
vt 0.558823 0.871703
vt 0.891581 0.764187
vt 0.946256 0.882511
vt 0.930686 0.530191
vt 0.598378 0.973336
vt 0.895322 0.837480
vt 0.996596 0.916894
vt 0.981774 0.997316
vt 0.934322 0.676444
vt 0.159536 0.735037
vt 0.132515 0.756527
vt 0.995600 0.570679
vt 0.265607 0.957910
vt 0.764510 0.633588
vt 0.977197 0.965654
vt 0.688018 0.431218
vt 0.051273 0.783465
vt 0.276818 0.761719
vt 0.852351 0.842809
vt 0.513245 0.859420
vt 0.601109 0.788851
vt 0.348705 0.860739
vt 0.665734 0.806287
vt 0.460373 0.857642
vt 0.561312 0.819283
vt 0.663517 0.853785
vt 0.397072 0.711607
vt 0.763734 0.878876
vt 0.443645 0.881273
vt 0.502660 0.887897
vt 0.558070 0.926936
vt 0.611095 0.862026
vt 0.755655 0.581892
vt 0.043494 0.508422
vt 0.054713 0.755588
vt 0.227603 0.663588
vt 0.274926 0.501162
vt 0.108062 0.951236
vt 0.545956 0.733186
vt 0.770359 0.807568
vt 0.750254 0.630960
vt 0.842126 0.974514
vt 0.629627 0.664449
vt 0.042844 0.996566
vt 0.575002 0.634527
vt 0.697550 0.954843
vt 0.822898 0.630833
vt 0.893868 0.633228
vt 0.758175 0.609913
vt 0.393947 0.608787
vt 0.316267 0.610739
vt 0.357096 0.605246
vt 0.280597 0.631898
vt 0.942891 0.865806
vt 0.840018 0.983032
vt 0.596561 0.701277
vt 0.963432 0.925118
vt 0.558823 0.871703
vt 0.891581 0.764187
vt 0.946256 0.882511
vt 0.930686 0.633460
vt 0.591940 0.736721
vt 0.594754 0.634214
vt 0.639289 0.961504
vt 0.867486 0.837480
vt 0.996596 0.916894
vt 0.981774 0.676444
vt 0.159536 0.735037
vt 0.132515 0.756527
vt 0.995600 0.632484
vt 0.539410 0.569907
vt 0.386184 0.500349
vt 0.455826 0.497707
vt 0.265258 0.499017
vt 0.195736 0.500622
vt 0.122362 0.498602
vt 0.320002 0.498214
vt 0.392582 0.036816
vt 0.351489 0.376585
vt 0.320744 0.174548
vt 0.328628 0.303253
vt 0.320914 0.032251
vt 0.114410 0.110354
vt 0.135127 0.395757
vt 0.136777 0.160705
vt 0.133379 0.316159
vt 0.134413 0.247500
vt 0.321907 0.250534
vt 0.134082 0.114200
vt 0.348502 0.021811
vt 0.320710 0.169824
vt 0.310190 0.104458
vt 0.300871 0.109886
vt 0.327558 0.246497
vt 0.305542 0.302785
vt 0.300746 0.381094
vt 0.298298 0.391930
vt 0.249085 0.303077
vt 0.252538 0.243355
vt 0.252048 0.164158
vt 0.255415 0.097969
vt 0.261440 0.004316
vt 0.250310 0.911819
vt 0.060025 0.883039
vt 0.082778 0.948373
vt 0.075868 0.881834
vt 0.116413 0.953431
vt 0.114442 0.925553
vt 0.137234 0.500349
vt 0.455826 0.497707
vt 0.265258 0.499017
vt 0.195736 0.500622
vt 0.122362 0.498602
vt 0.320002 0.498214
vt 0.392582 0.036816
vt 0.351489 0.376585
vt 0.320744 0.174548
vt 0.328628 0.303253
vt 0.320914 0.032251
vt 0.114410 0.110354
vt 0.135127 0.395757
vt 0.136777 0.160705
vt 0.133379 0.316159
vt 0.134413 0.247500
vt 0.321907 0.250534
vt 0.134082 0.114200
vt 0.348502 0.021811
vt 0.320710 0.169824
vt 0.310190 0.104458
vt 0.300871 0.109886
vt 0.327558 0.246497
vt 0.305542 0.302785
vt 0.300746 0.381094
vt 0.298298 0.391930
vt 0.249085 0.303077
vt 0.252538 0.243355
vt 0.252048 0.164158
vt 0.255415 0.097969
vt 0.261440 0.004316
vt 0.250310 0.911819
vt 0.060025 0.883039
vt 0.082778 0.948373
vt 0.075868 0.881834
vt 0.116413 0.953431
vt 0.114442 0.925553
vt 0.137234 0.566973
vt 0.195143 0.572975
vt 0.438836 0.569907
vt 0.386184 0.561191
vt 0.509708 0.566973
vt 0.195143 0.572975
vt 0.438836 0.569891
vt 0.324276 0.570679
vt 0.265607 0.379559
vt 0.043074 0.417738
vt 0.059937 0.398566
vt 0.081789 0.370089
vt 0.096304 0.333885
vt 0.099868 0.320960
vt 0.050836 0.242737
vt 0.095803 0.228280
vt 0.039625 0.135808
vt 0.095297 0.117805
vt 0.024622 0.029203
vt 0.097939 0.007023
vt 0.014630 0.361754
vt 0.050567 0.333885
vt 0.099868 0.320960
vt 0.050836 0.242737
vt 0.095803 0.228280
vt 0.039625 0.135808
vt 0.095297 0.117805
vt 0.024622 0.029203
vt 0.097939 0.007023
vt 0.014630 0.979000
vt 0.758743 0.997090
vt 0.713507 0.979589
vt 0.709598 0.996909
vt 0.772038 0.997365
vt 0.653597 0.979847
vt 0.653638 0.492583
vt 0.988397 0.513765
vt 0.943865 0.436199
vt 0.942568 0.449512
vt 0.985101 0.491946
vt 0.910727 0.460978
vt 0.910705 0.640406
vt 0.489336 0.648851
vt 0.455245 0.610592
vt 0.470770 0.613537
vt 0.511955 0.653614
vt 0.521879 0.675439
vt 0.486832 0.640406
vt 0.489336 0.640406
vt 0.489336 0.648851
vt 0.455245 0.610592
vt 0.470770 0.613537
vt 0.511955 0.653614
vt 0.521879 0.675439
vt 0.486832 0.640406
vt 0.489336 0.798114
vt 0.712196 0.776863
vt 0.710968 0.777808
vt 0.656600 0.802651
vt 0.658649 0.755313
vt 0.712100 0.752520
vt 0.658595 0.776863
vt 0.710968 0.777808
vt 0.656600 0.686613
vt 0.425980 0.666481
vt 0.405848 0.646348
vt 0.425980 0.666481
vt 0.446113 0.979000
vt 0.758743 0.997090
vt 0.713507 0.979589
vt 0.709598 0.996909
vt 0.772038 0.997365
vt 0.653597 0.979847
vt 0.653638 0.492583
vt 0.988397 0.513765
vt 0.943865 0.436199
vt 0.942568 0.449512
vt 0.985101 0.491946
vt 0.910727 0.460978
vt 0.910705 0.996064
vt 0.825826 0.996291
vt 0.793968 0.985951
vt 0.793933 0.985724
vt 0.825791 0.985724
vt 0.825791 0.996064
vt 0.825826 0.985684
vt 0.857648 0.996023
vt 0.857684 0.985763
vt 0.889507 0.996102
vt 0.889543 0.996023
vt 0.857684 0.985684
vt 0.857648 0.798114
vt 0.712196 0.776863
vt 0.710968 0.777808
vt 0.656600 0.802651
vt 0.658649 0.755313
vt 0.712100 0.752520
vt 0.658595 0.776863
vt 0.710968 0.777808
vt 0.656600 0.686613
vt 0.425980 0.666481
vt 0.405848 0.646348
vt 0.425980 0.666481
vt 0.446113 0.979000
vt 0.758743 0.997090
vt 0.713507 0.979589
vt 0.709598 0.996909
vt 0.772038 0.997365
vt 0.653597 0.979847
vt 0.653638 0.492583
vt 0.988397 0.513765
vt 0.943865 0.436199
vt 0.942568 0.449512
vt 0.985101 0.491946
vt 0.910727 0.460978
vt 0.910705 0.640406
vt 0.489336 0.648851
vt 0.455245 0.610592
vt 0.470770 0.613537
vt 0.511955 0.653614
vt 0.521879 0.675439
vt 0.486832 0.640406
vt 0.489336 0.640406
vt 0.489336 0.648851
vt 0.455245 0.610592
vt 0.470770 0.613537
vt 0.511955 0.653614
vt 0.521879 0.675439
vt 0.486832 0.640406
vt 0.489336 0.798114
vt 0.712196 0.776863
vt 0.710968 0.777808
vt 0.656600 0.802651
vt 0.658649 0.755313
vt 0.712100 0.752520
vt 0.658595 0.776863
vt 0.710968 0.777808
vt 0.656600 0.686613
vt 0.425980 0.666481
vt 0.405848 0.646348
vt 0.425980 0.666481
vt 0.446113 0.979000
vt 0.758743 0.997090
vt 0.713507 0.979589
vt 0.709598 0.996909
vt 0.772038 0.997365
vt 0.653597 0.979847
vt 0.653638 0.492583
vt 0.988397 0.513765
vt 0.943865 0.436199
vt 0.942568 0.449512
vt 0.985101 0.491946
vt 0.910727 0.460978
vt 0.910705 0.996064
vt 0.825826 0.996291
vt 0.793968 0.985951
vt 0.793933 0.985724
vt 0.825791 0.985724
vt 0.825791 0.996064
vt 0.825826 0.985684
vt 0.857648 0.996023
vt 0.857684 0.985763
vt 0.889507 0.996102
vt 0.889543 0.996023
vt 0.857684 0.985684
vt 0.857648 0.798114
vt 0.712196 0.776863
vt 0.710968 0.777808
vt 0.656600 0.802651
vt 0.658649 0.755313
vt 0.712100 0.752520
vt 0.658595 0.776863
vt 0.710968 0.777808
vt 0.656600 0.686613
vt 0.425980 0.666481
vt 0.405848 0.646348
vt 0.425980 0.666481
vt 0.446113 0.979000
vt 0.758743 0.997090
vt 0.713507 0.979589
vt 0.709598 0.996909
vt 0.772038 0.997365
vt 0.653597 0.979847
vt 0.653638 0.492583
vt 0.988397 0.513765
vt 0.943865 0.436199
vt 0.942568 0.449512
vt 0.985101 0.491946
vt 0.910727 0.460978
vt 0.910705 0.640406
vt 0.489336 0.648851
vt 0.455245 0.610592
vt 0.470770 0.613537
vt 0.511955 0.653614
vt 0.521879 0.675439
vt 0.486832 0.640406
vt 0.489336 0.640406
vt 0.489336 0.648851
vt 0.455245 0.610592
vt 0.470770 0.613537
vt 0.511955 0.653614
vt 0.521879 0.675439
vt 0.486832 0.640406
vt 0.489336 0.798114
vt 0.712196 0.776863
vt 0.710968 0.777808
vt 0.656600 0.802651
vt 0.658649 0.755313
vt 0.712100 0.752520
vt 0.658595 0.776863
vt 0.710968 0.777808
vt 0.656600 0.686613
vt 0.425980 0.666481
vt 0.405848 0.646348
vt 0.425980 0.666481
vt 0.446113 0.993264
vt 0.400322 0.993094
vt 0.352667 0.927858
vt 0.358816 0.939267
vt 0.400957 0.557986
vt 0.012819 0.509422
vt 0.008138 0.978605
vt 0.198463 0.893183
vt 0.218362 0.926926
vt 0.244541 0.991865
vt 0.234190 0.925787
vt 0.275971 0.910481
vt 0.402508 0.919455
vt 0.468013 0.982075
vt 0.480300 0.992506
vt 0.268979 0.894762
vt 0.340500 0.339924
vt 0.967567 0.186041
vt 0.971089 0.413854
vt 0.981966 0.264888
vt 0.959211 0.422497
vt 0.946793 0.104017
vt 0.961921 0.367043
vt 0.932891 0.162406
vt 0.938752 0.321741
vt 0.926769 0.264797
vt 0.922335 0.211283
vt 0.927545 0.152396
vt 0.856245 0.154534
vt 0.892840 0.086080
vt 0.875857 0.328351
vt 0.886298 0.265140
vt 0.882585 0.235547
vt 0.757357 0.324175
vt 0.764446 0.381401
vt 0.769810 0.383409
vt 0.875136 0.077443
vt 0.843210 0.088359
vt 0.773529 0.213718
vt 0.867807 0.503718
vt 0.759972 0.443250
vt 0.845561 0.435143
vt 0.770405 0.151940
vt 0.764691 0.400713
vt 0.435252 0.113195
vt 0.426122 0.240236
vt 0.430652 0.455664
vt 0.420805 0.306182
vt 0.432728 0.177627
vt 0.428432 0.431662
vt 0.674625 0.511277
vt 0.631140 0.077206
vt 0.650702 0.139356
vt 0.648305 0.323715
vt 0.675680 0.231933
vt 0.640870 0.375628
vt 0.646923 0.431945
vt 0.645320 0.321583
vt 0.650532 0.374591
vt 0.620359 0.314071
vt 0.625712 0.433044
vt 0.620116 0.238877
vt 0.558869 0.141563
vt 0.559875 0.092055
vt 0.561379 0.007806
vt 0.542553 0.378696
vt 0.679052 0.231283
vt 0.658104 0.140721
vt 0.663550 0.080789
vt 0.669089 0.004537
vt 0.672659 0.355573
vt 0.435999 0.005660
vt 0.842947 0.434324
vt 0.907929 0.002965
vt 0.847575 0.048971
vt 0.865538 0.481502
vt 0.481125 0.409036
vt 0.500383 0.238455
vt 0.499539 0.312223
vt 0.500537 0.361576
vt 0.507013 0.155124
vt 0.494914 0.101185
vt 0.494726 0.118733
vt 0.996086 0.458601
vt 0.865347 0.088433
vt 0.917275 0.339924
vt 0.967567 0.186041
vt 0.971089 0.264888
vt 0.959211 0.367043
vt 0.932891 0.162406
vt 0.938752 0.321741
vt 0.926769 0.264797
vt 0.922335 0.211283
vt 0.927545 0.152396
vt 0.856245 0.154534
vt 0.892840 0.086080
vt 0.875857 0.328351
vt 0.886298 0.265140
vt 0.882585 0.235547
vt 0.757357 0.324175
vt 0.764446 0.381401
vt 0.769810 0.383409
vt 0.875136 0.077443
vt 0.843210 0.088359
vt 0.773529 0.213718
vt 0.867807 0.503718
vt 0.759972 0.443250
vt 0.845561 0.435143
vt 0.770405 0.151940
vt 0.764691 0.400713
vt 0.435252 0.113195
vt 0.426122 0.240236
vt 0.430652 0.455664
vt 0.420805 0.306182
vt 0.432728 0.177627
vt 0.428432 0.431662
vt 0.674625 0.511277
vt 0.631140 0.077206
vt 0.650702 0.139356
vt 0.648305 0.323715
vt 0.675680 0.231933
vt 0.640870 0.375628
vt 0.646923 0.431945
vt 0.645320 0.321583
vt 0.650532 0.374591
vt 0.620359 0.314071
vt 0.625712 0.433044
vt 0.620116 0.238877
vt 0.558869 0.141563
vt 0.559875 0.092055
vt 0.561379 0.007806
vt 0.542553 0.378696
vt 0.679052 0.231283
vt 0.658104 0.140721
vt 0.663550 0.080789
vt 0.669089 0.004537
vt 0.672659 0.355573
vt 0.435999 0.005660
vt 0.842947 0.481502
vt 0.481125 0.409036
vt 0.500383 0.238455
vt 0.499539 0.312223
vt 0.500537 0.361576
vt 0.507013 0.155124
vt 0.494914 0.101185
vt 0.494726 0.541436
vt 0.697010 0.534725
vt 0.641795 0.734997
vt 0.401380 0.823775
vt 0.324015 0.559322
vt 0.846346 0.567501
vt 0.903799 0.909103
vt 0.499036 0.935261
vt 0.498101 0.660452
vt 0.102905 0.694205
vt 0.323394 0.765788
vt 0.910325 0.579836
vt 0.991542 0.431439
vt 0.100603 0.575808
vt 0.102819 0.578512
vt 0.516708 0.607483
vt 0.444494 0.574841
vt 0.122633 0.583140
vt 0.193588 0.556616
vt 0.126388 0.655351
vt 0.358960 0.650802
vt 0.311497 0.628466
vt 0.263676 0.651443
vt 0.395854 0.642009
vt 0.244796 0.737266
vt 0.187646 0.608929
vt 0.207127 0.545610
vt 0.543534 0.954843
vt 0.822898 0.961504
vt 0.867486 0.727773
vt 0.697305 0.733570
vt 0.639407 0.957910
vt 0.764510 0.734997
vt 0.401380 0.823775
vt 0.324015 0.702126
vt 0.847322 0.965654
vt 0.688018 0.974514
vt 0.629627 0.694204
vt 0.901982 0.909103
vt 0.499036 0.983032
vt 0.596561 0.935261
vt 0.498101 0.996566
vt 0.575002 0.660452
vt 0.102905 0.664449
vt 0.042844 0.431218
vt 0.051273 0.694205
vt 0.323394 0.765788
vt 0.910325 0.688825
vt 0.986451 0.431439
vt 0.100603 0.575808
vt 0.102819 0.578512
vt 0.516708 0.607483
vt 0.444494 0.574841
vt 0.122633 0.556616
vt 0.126388 0.583140
vt 0.193588 0.655351
vt 0.358960 0.650802
vt 0.311497 0.628466
vt 0.263676 0.651443
vt 0.395854 0.642009
vt 0.244796 0.973336
vt 0.895322 0.737266
vt 0.187646 0.997316
vt 0.934322 0.608929
vt 0.207127 0.719380
vt 0.540356 0.556616
vt 0.126388 0.566973
vt 0.195143 0.572975
vt 0.438836 0.508032
vt 0.525155 0.561191
vt 0.509708 0.570679
vt 0.265607 0.569891
vt 0.324276 0.569907
vt 0.386184 0.119034
vt 0.394412 0.055405
vt 0.402732 0.444348
vt 0.333503 0.440000
vt 0.385584 0.372807
vt 0.375413 0.176675
vt 0.389174 0.245826
vt 0.380015 0.303599
vt 0.375626 0.479431
vt 0.129093 0.460189
vt 0.258119 0.447487
vt 0.311481 0.913576
vt 0.004105 0.841168
vt 0.060627 0.994721
vt 0.139226 0.992400
vt 0.042867 0.929008
vt 0.186514 0.836150
vt 0.135609 0.556616
vt 0.126388 0.566973
vt 0.195143 0.572975
vt 0.438836 0.508032
vt 0.525155 0.561191
vt 0.509708 0.570679
vt 0.265607 0.569891
vt 0.324276 0.569907
vt 0.386184 0.119034
vt 0.394412 0.055405
vt 0.402732 0.440000
vt 0.385584 0.444348
vt 0.333503 0.372807
vt 0.375413 0.176675
vt 0.389174 0.245826
vt 0.380015 0.303599
vt 0.375626 0.460189
vt 0.258119 0.479431
vt 0.129093 0.447487
vt 0.311481 0.913576
vt 0.004105 0.841168
vt 0.060627 0.994721
vt 0.139226 0.992400
vt 0.042867 0.929008
vt 0.186514 0.836150
vt 0.135609 0.361754
vt 0.050567 0.370089
vt 0.096304 0.675439
vt 0.486832 0.653614
vt 0.521879 0.613537
vt 0.511955 0.610592
vt 0.470770 0.675439
vt 0.486832 0.653614
vt 0.521879 0.613537
vt 0.511955 0.610592
vt 0.470770 0.471017
vt 0.876001 0.504696
vt 0.879266 0.486223
vt 0.894472 0.489489
vt 0.860795 0.784503
vt 0.518220 0.827013
vt 0.523210 0.742673
vt 0.523185 0.784503
vt 0.518220 0.985951
vt 0.793933 0.996291
vt 0.793968 0.996102
vt 0.889543 0.985763
vt 0.889507 0.699529
vt 0.435488 0.716686
vt 0.509802 0.686655
vt 0.477598 0.772465
vt 0.457787 0.759591
vt 0.499897 0.742434
vt 0.425583 0.742434
vt 0.425583 0.759591
vt 0.499897 0.772465
vt 0.457787 0.686655
vt 0.477598 0.716686
vt 0.509802 0.699529
vt 0.435488 0.471017
vt 0.876001 0.504696
vt 0.879266 0.486223
vt 0.894472 0.489489
vt 0.860795 0.784503
vt 0.518220 0.827013
vt 0.523210 0.742673
vt 0.523185 0.784503
vt 0.518220 0.675439
vt 0.486832 0.653614
vt 0.521879 0.613537
vt 0.511955 0.610592
vt 0.470770 0.675439
vt 0.486832 0.653614
vt 0.521879 0.613537
vt 0.511955 0.610592
vt 0.470770 0.471017
vt 0.876001 0.504696
vt 0.879266 0.486223
vt 0.894472 0.489489
vt 0.860795 0.784503
vt 0.518220 0.827013
vt 0.523210 0.742673
vt 0.523185 0.784503
vt 0.518220 0.985951
vt 0.793933 0.996291
vt 0.793968 0.996102
vt 0.889543 0.985763
vt 0.889507 0.699529
vt 0.435488 0.772465
vt 0.457787 0.742434
vt 0.425583 0.716686
vt 0.509802 0.759591
vt 0.499897 0.686655
vt 0.477598 0.742434
vt 0.425583 0.686655
vt 0.477598 0.699529
vt 0.435488 0.759591
vt 0.499897 0.716686
vt 0.509802 0.772465
vt 0.457787 0.471017
vt 0.876001 0.504696
vt 0.879266 0.489489
vt 0.860795 0.486223
vt 0.894472 0.784503
vt 0.518220 0.827013
vt 0.523210 0.742673
vt 0.523185 0.784503
vt 0.518220 0.675439
vt 0.486832 0.653614
vt 0.521879 0.613537
vt 0.511955 0.610592
vt 0.470770 0.675439
vt 0.486832 0.653614
vt 0.521879 0.613537
vt 0.511955 0.610592
vt 0.470770 0.471017
vt 0.876001 0.504696
vt 0.879266 0.489489
vt 0.860795 0.486223
vt 0.894472 0.784503
vt 0.518220 0.827013
vt 0.523210 0.742673
vt 0.523185 0.784503
vt 0.518220 0.945769
vt 0.450399 0.991760
vt 0.459499 0.511875
vt 0.032673 0.556411
vt 0.033600 0.608699
vt 0.002087 0.607517
vt 0.019730 0.426147
vt 0.002042 0.438156
vt 0.038579 0.414664
vt 0.025724 0.501826
vt 0.813726 0.503651
vt 0.816274 0.007700
vt 0.781293 0.514055
vt 0.659454 0.002141
vt 0.639003 0.497834
vt 0.542557 0.027870
vt 0.475564 0.057578
vt 0.414103 0.118733
vt 0.996086 0.104017
vt 0.961921 0.422497
vt 0.946793 0.413854
vt 0.981966 0.002965
vt 0.847575 0.048971
vt 0.865538 0.501826
vt 0.813726 0.458601
vt 0.865347 0.503651
vt 0.816274 0.007700
vt 0.781293 0.434324
vt 0.907929 0.088433
vt 0.917275 0.514055
vt 0.659454 0.002141
vt 0.639003 0.497834
vt 0.542557 0.027870
vt 0.475564 0.057578
vt 0.414103 1.000000

f 236/236 234/234 237/237
f 234/234 236/236 235/235
f 239/239 235/235 236/236
f 235/235 239/239 238/238
f 239/239 240/240 238/238
f 240/240 239/239 241/241
f 241/241 234/234 240/240
f 234/234 241/241 237/237
f 237/237 668/668 236/236
f 668/668 237/237 669/669
f 236/236 670/670 239/239
f 670/670 236/236 668/668
f 670/670 241/241 239/239
f 241/241 670/670 671/671
f 671/671 237/237 241/241
f 237/237 671/671 669/669
f 260/260 258/258 261/261
f 258/258 260/260 259/259
f 263/263 672/672 673/673
f 672/672 263/263 262/262
f 265/265 262/262 263/263
f 262/262 265/265 264/264
f 267/267 264/264 265/265
f 264/264 267/267 266/266
f 269/269 674/674 675/675
f 674/674 269/269 268/268
f 261/261 268/268 269/269
f 268/268 261/261 258/258
f 272/272 270/270 273/273
f 270/270 272/272 271/271
f 275/275 271/271 272/272
f 271/271 275/275 274/274
f 275/275 276/276 274/274
f 276/276 275/275 277/277
f 277/277 270/270 276/276
f 270/270 277/277 273/273
f 273/273 692/692 272/272
f 692/692 273/273 693/693
f 272/272 694/694 275/275
f 694/694 272/272 692/692
f 694/694 277/277 275/275
f 277/277 694/694 695/695
f 695/695 273/273 277/277
f 273/273 695/695 693/693
f 310/310 308/308 311/311
f 308/308 310/310 309/309
f 313/313 309/309 310/310
f 309/309 313/313 312/312
f 313/313 314/314 312/312
f 314/314 313/313 315/315
f 315/315 308/308 314/314
f 308/308 315/315 311/311
f 311/311 708/708 310/310
f 708/708 311/311 709/709
f 310/310 710/710 313/313
f 710/710 310/310 708/708
f 710/710 315/315 313/313
f 315/315 710/710 711/711
f 711/711 311/311 315/315
f 311/311 711/711 709/709
f 334/334 332/332 333/333
f 332/332 334/334 335/335
f 337/337 712/712 336/336
f 712/712 337/337 713/713
f 339/339 336/336 338/338
f 336/336 339/339 337/337
f 341/341 338/338 340/340
f 338/338 341/341 339/339
f 343/343 714/714 342/342
f 714/714 343/343 715/715
f 335/335 342/342 332/332
f 342/342 335/335 343/343
f 346/346 344/344 345/345
f 344/344 346/346 347/347
f 349/349 345/345 348/348
f 345/345 349/349 346/346
f 349/349 350/350 351/351
f 350/350 349/349 348/348
f 351/351 344/344 347/347
f 344/344 351/351 350/350
f 347/347 732/732 733/733
f 732/732 347/347 346/346
f 346/346 734/734 732/732
f 734/734 346/346 349/349
f 734/734 351/351 735/735
f 351/351 734/734 349/349
f 735/735 347/347 733/733
f 347/347 735/735 351/351
f 384/384 382/382 383/383
f 382/382 384/384 385/385
f 387/387 383/383 386/386
f 383/383 387/387 384/384
f 387/387 388/388 389/389
f 388/388 387/387 386/386
f 389/389 382/382 385/385
f 382/382 389/389 388/388
f 385/385 748/748 749/749
f 748/748 385/385 384/384
f 384/384 750/750 748/748
f 750/750 384/384 387/387
f 750/750 389/389 751/751
f 389/389 750/750 387/387
f 751/751 385/385 749/749
f 385/385 751/751 389/389
f 222/222 221/221 220/220
f 223/223 222/222 220/220
f 224/224 223/223 220/220
f 225/225 224/224 220/220
f 221/221 225/225 226/226
f 221/221 656/656 226/226
f 656/656 657/657 226/226
f 657/657 658/658 226/226
f 658/658 659/659 226/226
f 659/659 221/221 227/227
f 229/229 228/228 227/227
f 230/230 229/229 227/227
f 231/231 230/230 227/227
f 232/232 231/231 227/227
f 228/228 232/232 233/233
f 228/228 660/660 233/233
f 660/660 661/661 233/233
f 661/661 662/662 233/233
f 662/662 663/663 233/233
f 663/663 228/228 664/664
f 664/664 667/667 676/676
f 679/679 680/680 676/676
f 679/679 677/677 676/676
f 681/681 679/679 688/688
f 688/688 691/691 294/294
f 296/296 295/295 294/294
f 297/297 296/296 294/294
f 298/298 297/297 294/294
f 299/299 298/298 294/294
f 295/295 299/299 300/300
f 295/295 696/696 300/300
f 696/696 697/697 300/300
f 697/697 698/698 300/300
f 698/698 699/699 300/300
f 699/699 295/295 301/301
f 303/303 302/302 301/301
f 304/304 303/303 301/301
f 305/305 304/304 301/301
f 306/306 305/305 301/301
f 302/302 306/306 307/307
f 302/302 700/700 307/307
f 700/700 701/701 307/307
f 701/701 702/702 307/307
f 702/702 703/703 307/307
f 703/703 302/302 704/704
f 704/704 707/707 716/716
f 719/719 720/720 716/716
f 719/719 717/717 716/716
f 721/721 719/719 728/728
f 728/728 731/731 368/368
f 369/369 370/370 368/368
f 370/370 371/371 368/368
f 371/371 372/372 368/368
f 372/372 373/373 368/368
f 373/373 369/369 374/374
f 736/736 369/369 374/374
f 737/737 736/736 374/374
f 738/738 737/737 374/374
f 739/739 738/738 374/374
f 369/369 739/739 375/375
f 376/376 377/377 375/375
f 377/377 378/378 375/375
f 378/378 379/379 375/375
f 379/379 380/380 375/375
f 380/380 376/376 381/381
f 740/740 376/376 381/381
f 741/741 740/740 381/381
f 742/742 741/741 381/381
f 743/743 742/742 381/381
f 376/376 743/743 744/744
