# MOD converted: h_m_metalarmor009.mod
# 706 verts, 864 faces

v 90.229103 -6.517320 7.445729
v 90.244995 10.392599 12.984900
v 90.230362 -0.084696 0.000000
v 94.736176 -11.924201 11.097403
v 94.736282 -6.505869 12.804098
v 94.736603 -0.095528 7.539281
v 94.736992 9.782973 -0.000001
v 94.737289 10.840002 6.852930
v 90.227585 -10.348702 6.718502
v 94.736191 -10.342498 11.781100
v 94.736809 6.531463 11.808798
v 90.238487 6.688210 7.529508
v 81.113602 -8.961359 15.695504
v 81.921989 0.003298 12.916497
v 82.345116 -6.321820 9.263861
v 81.988602 11.431699 14.626602
v 82.013390 6.511709 9.778971
v 22.092699 -2.668408 9.783160
v 22.091896 10.548099 20.712204
v 22.094408 4.781158 7.254410
v 22.091610 3.989350 19.161701
v 22.093706 -2.289711 17.201202
v 22.093615 10.735501 1.371490
v 74.443825 0.715343 2.426579
v 75.596893 -6.851890 18.874098
v 65.849197 3.052619 9.484252
v 65.823097 -10.894103 3.173088
v 65.416298 -8.110693 1.298579
v 65.218300 1.641621 10.413500
v 77.637291 10.033201 15.933696
v 65.964310 -7.960550 4.151957
v 53.983284 -8.297830 4.934118
v 46.640797 2.540901 7.181027
v 48.089001 9.587449 14.041698
v 48.502602 9.465007 17.031097
v 54.944984 -7.962852 18.299200
v 48.014389 3.199906 4.028522
v 65.507217 11.894497 13.323401
v 66.053398 11.742199 11.226204
v 49.342693 -9.727302 5.179153
v 49.181705 -7.237468 16.917597
v 50.084900 -6.759129 11.846598
v 45.985394 -6.410523 16.562500
v 47.054504 -3.579279 6.983568
v 46.225990 -4.350500 20.219299
v 39.115200 4.019915 15.545599
v 39.438499 10.935099 7.938620
v 39.078899 11.214699 4.905760
v 37.495201 3.546649 3.144528
v 74.703079 9.910879 10.538096
v 54.522091 -11.019202 0.000001
v 75.339897 -7.356603 20.215797
v 50.853306 3.092917 14.770099
v 51.236401 11.872996 5.755458
v 50.676395 12.045793 2.668387
v 49.485901 2.438176 14.499200
v 22.093201 -4.422550 8.044939
v 77.878990 -8.959163 13.345001
v 79.907600 -6.327381 1.938809
v 77.910210 11.457303 15.052101
v 79.977989 6.020409 20.753695
v 55.316994 3.094148 14.715598
v 55.217888 13.163898 5.076440
v 54.730610 13.295497 1.472553
v 53.758301 2.317600 11.172600
v 88.234489 -6.313720 7.175799
v 88.250397 10.392599 12.984907
v 88.235535 -0.099795 6.852931
v 88.232994 -9.697816 11.808800
v 88.243881 6.688207 0.000000
v 76.027092 15.589481 9.617000
v 77.417206 -11.818304 17.958504
v 79.855598 -0.007243 15.088399
v 79.047905 -7.969481 10.486100
v 76.031898 13.760199 15.838103
v 78.797997 8.684150 18.000294
v 71.131302 9.442797 17.318975
v 70.856003 -8.560818 20.841099
v 71.533600 0.029026 8.966674
v 66.338997 -13.391208 8.082720
v 77.416504 -12.265199 8.746400
v 66.236794 15.823003 8.540148
v 76.026711 14.687201 8.160001
v 86.667000 11.917601 13.157798
v 86.795494 7.339611 14.949616
v 86.986778 -0.079421 12.676804
v 86.726517 -6.962440 19.787224
v 64.266434 9.972985 18.900822
v 64.338715 -8.896841 22.862358
v 64.181274 0.021752 13.742016
v 71.295319 -10.654239 15.416191
v 65.285698 -10.955726 13.606845
v 71.122261 12.680679 15.110422
v 64.974312 13.000429 10.452287
v 73.938293 -12.121655 10.954704
v 73.049797 14.076437 12.381104
v 120.818367 -0.057325 12.000805
v 121.605247 8.802199 11.765704
v 101.700996 -6.333139 10.554205
v 116.699982 11.528685 14.162498
v 109.418457 -0.040558 14.157499
v 108.876595 7.799614 10.298700
v 115.952065 -6.176752 16.968208
v 120.242348 8.330696 13.158204
v 122.669121 4.787625 15.068604
v 115.459877 10.463097 16.915598
v 120.202011 -0.120036 17.654905
v 121.245560 4.468781 5.665674
v 116.472786 -8.295013 7.341524
v 101.700989 -10.376099 -0.000001
v 117.228996 12.388401 -0.000000
v 124.894989 10.563902 6.306943
v 121.647766 -3.328914 9.427775
v 124.424644 5.009948 6.170481
v 125.072639 8.986504 15.467817
v 115.218399 -3.791037 9.227051
v 109.272453 11.210011 -0.000001
v 109.286980 12.398401 5.524024
v 125.296883 -2.602643 -0.000000
v 124.257988 -4.472840 7.265969
v 127.362953 2.821241 5.143930
v 128.668732 7.329156 13.304404
v 101.700996 -0.071565 12.853803
v 101.702003 7.125380 0.000000
v 109.721992 -12.259203 7.981671
v 109.714989 -10.267001 12.806604
v 109.647896 -6.340588 22.011629
v 106.838821 0.120750 21.957111
v 106.707527 6.841134 24.818295
v 110.724579 9.491015 24.727188
v 111.001770 -2.708726 27.126286
v 115.177803 0.010651 27.182518
v 115.243660 6.875077 14.915044
v 109.749023 7.410663 18.645136
v 113.983086 9.907104 14.650737
v 109.994507 0.156345 18.640343
v 114.095398 -2.873755 21.667093
v 118.513893 7.365672 21.533495
v 118.466034 -0.033848 8.078071
v 101.702003 10.304800 8.448496
v 122.915932 0.626322 6.136402
v 121.931602 10.597391 28.039499
v 103.616920 6.144754 28.232895
v 103.764008 0.406427 33.137093
v 111.676949 6.044744 30.670496
v 107.721016 -1.842296 45.882809
v 92.817688 5.221766 48.243683
v 96.572617 7.533293 45.628487
v 92.772888 -0.168932 50.570667
v 100.195770 5.665713 48.018135
v 96.520889 -3.080160 32.970802
v 111.517014 0.175565 50.401733
v 100.354172 -0.967567 29.872000
v 108.091881 8.632073 30.468094
v 102.177017 5.883739 35.256187
v 110.275978 6.032038 33.851295
v 105.701019 8.413520 31.771595
v 106.961975 8.656683 35.132004
v 110.078003 0.107730 32.968910
v 106.254974 -1.954431 30.569302
v 102.282990 0.353491 35.612411
v 98.507584 -0.413638 38.209137
v 102.814003 -3.251253 40.890610
v 106.898987 -0.882917 40.991180
v 106.862015 6.128668 38.138844
v 102.794968 8.740551 35.588291
v 98.507317 5.739241 14.428494
v 109.540749 -3.608130 13.152656
v 108.963791 9.694540 10.582820
v 101.701996 9.272923 22.015398
v 118.978416 4.010265 5.519422
v 123.339668 -0.289687 5.644171
v 125.979576 5.142420 -0.000000
v 126.774010 8.181261 5.446899
v 132.238007 4.085738 4.901291
v 130.072998 -1.004880 -0.000000
v 133.220993 6.875770 46.296021
v 103.179390 -0.931029 43.956230
v 99.126724 -3.151005 41.614643
v 95.071030 -0.266998 46.292309
v 103.173035 5.872474 43.963585
v 99.208206 8.044650 41.660851
v 95.151100 5.433998 -0.000003
v 59.370678 -15.168900 5.096794
v 60.539143 -13.391198 -0.000001
v 60.492733 16.794407 5.349597
v 61.471336 15.823004 0.000000
v 90.227005 -11.933002 -0.000000
v 90.248596 10.840401 -0.000001
v 74.597389 0.659296 0.000001
v 77.415619 -14.025506 -0.000000
v 116.558006 -9.340246 15.255238
v 118.711136 -7.806937 14.032984
v 121.438614 -7.095284 11.485360
v 120.268013 -8.506348 12.634004
v 117.351540 -8.488237 14.348734
v 120.664055 -13.468496 17.877764
v 124.436119 3.483286 15.705666
v 124.890160 5.843159 13.615243
v 125.983818 3.483917 15.833044
v 124.709915 1.309858 17.742409
v 129.789673 3.484953 8.752592
v 116.338135 -10.363455 21.028439
v 111.631882 -7.129175 27.038830
v 116.465714 -3.543324 23.423809
v 114.124771 -6.245222 28.142653
v 118.393936 3.514616 8.704130
v 116.368324 -7.018118 20.942001
v 111.531013 -4.836949 11.574417
v 122.276848 -3.385092 25.796459
v 115.299789 -1.869036 23.325388
v 113.891312 -3.820492 10.191586
v 118.801575 -6.318006 12.143979
v 123.813812 3.503182 10.496302
v 120.369354 -9.725447 12.722315
v 127.422363 3.507930 12.217926
v 125.425064 -6.288098 23.358421
v 119.505638 -4.304499 24.243767
v 121.509483 3.509374 19.187225
v 124.494667 3.506042 18.560982
v 122.437241 -5.370979 20.748888
v 115.533295 -7.286121 18.333942
v 112.800529 -5.454498 16.179556
v 117.800606 -8.677322 14.314697
v 114.442154 -9.224457 13.970456
v 114.648285 -6.158432 18.598581
v 112.721214 -8.035189 26.640471
v 111.081657 -4.649437 26.554028
v 110.976982 -2.356156 30.105858
v 114.190727 3.515813 28.328773
v 113.049896 3.515792 8.752588
v 116.362991 17.397896 21.028439
v 111.640625 14.163616 27.038830
v 116.469368 10.573625 23.423805
v 114.129852 13.277071 8.704129
v 116.387917 14.052651 20.941998
v 111.535370 11.870366 11.574412
v 122.308586 10.395526 25.796457
v 115.302589 8.900048 23.325386
v 113.895126 10.852473 10.191586
v 118.822479 13.347416 10.496305
v 120.394173 16.752207 12.217922
v 125.445557 13.303693 23.358423
v 119.520721 11.327268 18.560982
v 122.457916 12.387881 20.748896
v 115.550636 14.317329 18.333944
v 112.817871 12.491689 16.179564
v 117.827682 15.705813 14.314698
v 114.470123 16.260904 13.970457
v 114.664551 13.193550 18.598585
v 112.743591 15.072410 26.640469
v 111.081474 11.680970 26.554031
v 110.976868 9.387691 13.702338
v 121.769012 14.590130 10.880751
v 120.421585 15.362942 12.275517
v 117.753517 15.882959 15.290644
v 118.754265 14.905210 14.114922
v 121.352867 19.351120 0.000000
v 81.839912 12.054603 -0.000000
v 88.232407 -11.282103 -0.000001
v 101.698997 11.532102 -0.000001
v 76.088486 7.006248 -0.000000
v 80.974190 -9.741223 0.000001
v 88.254013 10.840399 -0.000000
v 66.223526 16.794403 -0.000002
v 66.217903 -15.168900 -0.000000
v 86.574799 12.475205 0.000004
v 120.899994 -5.396774 -0.000000
v 128.953995 9.176827 0.000000
v 123.420013 1.950670 0.000000
v 101.700996 -12.317502 -0.000001
v 122.202019 -2.804042 0.000001
v 128.725998 -3.807342 -11.172600
v 90.229111 -6.517324 -7.445730
v 90.244995 10.392597 -12.984898
v 90.230354 -0.084693 -11.097402
v 94.736298 -6.505867 -12.804099
v 94.736610 -0.095527 -7.539279
v 94.737000 9.782970 -6.852928
v 90.227577 -10.348703 -6.718503
v 94.736191 -10.342499 -11.781098
v 94.736786 6.531461 -11.808798
v 90.238487 6.688210 -7.529510
v 81.113594 -8.961361 -15.695503
v 81.921974 0.003283 -12.916499
v 82.345108 -6.321821 -9.263862
v 81.988602 11.431701 -14.626602
v 82.013382 6.511708 -9.778972
v 22.092699 -2.668408 -9.783161
v 22.091898 10.548101 -20.712202
v 22.094410 4.781159 -7.254412
v 22.091608 3.989361 -19.161703
v 22.093704 -2.289711 -17.201200
v 22.093611 10.735500 -1.371490
v 74.443817 0.715347 -2.426580
v 75.596878 -6.851891 -18.874102
v 65.849197 3.052619 -9.484258
v 65.823097 -10.894103 -3.173089
v 65.416306 -8.110692 -1.298580
v 65.218300 1.641627 -10.413500
v 77.637291 10.033201 -15.933694
v 65.964302 -7.960551 -4.151957
v 53.983292 -8.297831 -4.934118
v 46.640797 2.540907 -7.181028
v 48.089001 9.587447 -14.041699
v 48.502598 9.465008 -17.031097
v 54.944988 -7.962851 -18.299200
v 48.014393 3.199909 -4.028522
v 65.507202 11.894496 -13.323400
v 66.053391 11.742198 -11.226202
v 49.342690 -9.727300 -5.179159
v 49.181698 -7.237470 -16.917595
v 50.084900 -6.759129 -11.846599
v 45.985394 -6.410521 -16.562500
v 47.054501 -3.579279 -6.983571
v 46.225998 -4.350501 -20.219301
v 39.115200 4.019917 -15.545599
v 39.438499 10.935099 -7.938621
v 39.078896 11.214700 -4.905760
v 37.495201 3.546654 -3.144525
v 74.703079 9.910881 -10.538097
v 54.522087 -11.019201 -20.215797
v 50.853302 3.092919 -14.770099
v 51.236408 11.872995 -5.755460
v 50.676395 12.045794 -2.668390
v 49.485897 2.438182 -14.499200
v 22.093201 -4.422550 -8.044939
v 77.879005 -8.959161 -13.345002
v 79.907600 -6.327382 -1.938811
v 77.910233 11.457304 -15.052099
v 79.977989 6.020408 -20.753698
v 55.317005 3.094149 -14.715598
v 55.217892 13.163898 -5.076440
v 54.730610 13.295498 -1.472554
v 53.758293 2.317603 -11.172602
v 88.234497 -6.313721 -7.175799
v 88.250397 10.392600 -12.984909
v 88.235542 -0.099794 -6.852932
v 88.232986 -9.697818 -11.808799
v 88.243881 6.688209 -9.617000
v 77.417198 -11.818304 -17.958502
v 79.855598 -0.007291 -15.088399
v 79.047905 -7.969481 -10.486099
v 76.031906 13.760199 -15.838100
v 78.797997 8.684149 -18.000299
v 71.131310 9.442799 -17.318975
v 70.856003 -8.560817 -20.841099
v 71.533600 0.029023 -8.966680
v 66.338997 -13.391207 -8.082721
v 77.416489 -12.265199 -8.746401
v 66.236801 15.823002 -8.540150
v 76.026711 14.687203 -8.160002
v 86.667007 11.917601 -13.157798
v 86.795517 7.339611 -14.949615
v 86.986763 -0.079418 -12.676803
v 86.726509 -6.962440 -19.787220
v 64.266434 9.972984 -18.900826
v 64.338715 -8.896838 -22.862356
v 64.181274 0.021757 -13.742019
v 71.295319 -10.654237 -15.416196
v 65.285698 -10.955722 -13.606844
v 71.122253 12.680677 -15.110423
v 64.974312 13.000431 -10.452287
v 73.938293 -12.121655 -10.954703
v 73.049789 14.076437 -12.381101
v 120.822304 -0.052831 -12.000802
v 121.596405 8.808249 -11.765704
v 101.701012 -6.333136 -10.554203
v 116.692055 11.527828 -14.162498
v 109.419594 -0.043294 -14.157495
v 108.873863 7.795417 -10.298693
v 115.954964 -6.177297 -16.968208
v 120.239197 8.332924 -13.158203
v 122.666298 4.795604 -15.068597
v 115.456017 10.462525 -16.915598
v 120.203918 -0.117645 -17.654905
v 121.244637 4.471665 -5.665675
v 116.472786 -8.295013 -7.341523
v 101.700989 -10.376098 -6.306944
v 121.651649 -3.327161 -9.427774
v 124.421814 5.018225 -6.170481
v 125.071152 8.987980 -15.467816
v 115.222298 -3.791776 -9.227050
v 109.272453 11.210011 -5.524020
v 125.297920 -2.601485 -7.265970
v 127.363014 2.823128 -5.143930
v 128.667999 7.330701 -13.304402
v 101.700996 -0.071566 -12.853801
v 101.701996 7.125379 -7.981670
v 109.714989 -10.267001 -12.806600
v 109.648804 -6.341283 -22.011631
v 106.838821 0.120766 -21.957111
v 106.707558 6.841159 -24.818436
v 110.724861 9.491014 -24.727190
v 111.001740 -2.708729 -27.126282
v 115.177780 0.010622 -27.182514
v 115.243690 6.875044 -14.915044
v 109.747284 7.408119 -18.645134
v 113.980377 9.906425 -14.650738
v 109.995583 0.153861 -18.640341
v 114.097618 -2.874391 -21.667093
v 118.512169 7.366900 -21.533495
v 118.467171 -0.032645 -8.078071
v 101.702003 10.304801 -8.448492
v 122.917290 0.628947 -6.136402
v 121.927025 10.599212 -28.039499
v 103.616936 6.144774 -28.232891
v 103.763992 0.406445 -33.137093
v 111.676964 6.044719 -30.670498
v 107.721008 -1.842298 -45.882812
v 92.817696 5.221764 -48.243683
v 96.572601 7.533291 -45.628487
v 92.772888 -0.168935 -50.570671
v 100.195763 5.665714 -48.018127
v 96.520882 -3.080159 -32.970795
v 111.516998 0.175542 -50.401733
v 100.354172 -0.967565 -29.872009
v 108.091957 8.632069 -30.468100
v 102.177002 5.883740 -35.256195
v 110.275978 6.032035 -33.851303
v 105.700996 8.413519 -31.771606
v 106.962006 8.656680 -35.131992
v 110.077980 0.107729 -32.968903
v 106.254990 -1.954430 -30.569298
v 102.282990 0.353491 -35.612404
v 98.507599 -0.413650 -38.209126
v 102.814034 -3.251251 -40.890598
v 106.899002 -0.882908 -40.991188
v 106.862000 6.128676 -38.138847
v 102.794930 8.740551 -35.588295
v 98.507301 5.739232 -14.428493
v 109.543274 -3.610797 -13.152651
v 108.960022 9.690257 -10.582820
v 101.702003 9.272922 -22.015396
v 118.978004 4.011693 -5.519421
v 123.341003 -0.287932 -5.644171
v 125.978981 5.144210 -5.446900
v 132.237976 4.085739 -4.901292
v 130.072983 -1.004878 -46.296013
v 103.179405 -0.931021 -43.956223
v 99.126740 -3.151005 -41.614632
v 95.071030 -0.267003 -46.292316
v 103.173012 5.872481 -43.963593
v 99.208191 8.044650 -41.660866
v 95.151085 5.433990 -5.096795
v 60.539146 -13.391200 -5.349597
v 61.471336 15.823004 -15.255238
v 118.717377 -7.805770 -14.032980
v 121.440300 -7.094568 -11.485356
v 120.269905 -8.505903 -12.633999
v 117.352760 -8.488219 -14.348726
v 120.664047 -13.468499 -17.877762
v 124.435760 3.487952 -15.705663
v 124.887779 5.849579 -13.615242
v 125.983238 3.492260 -15.833044
v 124.710930 1.314914 -17.742405
v 129.789337 3.492564 -8.752589
v 116.339546 -10.363630 -21.028433
v 111.631813 -7.129169 -27.038830
v 116.465675 -3.543360 -23.423805
v 114.124710 -6.245228 -28.142651
v 118.393936 3.514560 -8.704123
v 116.370041 -7.018408 -20.941994
v 111.530983 -4.836944 -11.574413
v 122.284576 -3.379435 -25.796459
v 115.299751 -1.869061 -23.325388
v 113.891273 -3.820499 -10.191581
v 118.805367 -6.317608 -12.143977
v 123.812920 3.512164 -10.496299
v 120.371445 -9.725024 -12.722316
v 127.422226 3.510100 -12.217921
v 125.426842 -6.286597 -23.358423
v 119.508400 -4.302767 -24.243765
v 121.509239 3.511904 -19.187225
v 124.494301 3.510907 -18.560978
v 122.442062 -5.367336 -20.748896
v 115.537254 -7.286050 -18.333944
v 112.803741 -5.455633 -16.179554
v 117.807343 -8.676546 -14.314693
v 114.449203 -9.225773 -13.970451
v 114.651802 -6.159260 -18.598581
v 112.725441 -8.036335 -26.640472
v 111.081619 -4.649445 -26.554031
v 110.976952 -2.356162 -30.105854
v 114.190727 3.515775 -28.328777
v 113.049896 3.515768 -8.752587
v 116.354935 17.396980 -21.028429
v 111.640663 14.163621 -27.038830
v 116.469429 10.573585 -23.423809
v 114.129929 13.277062 -8.704127
v 116.381721 14.051746 -20.941994
v 111.535416 11.870374 -11.574410
v 122.296928 10.402696 -25.796455
v 115.302635 8.900021 -23.325386
v 113.895180 10.852461 -10.191584
v 118.816566 13.347982 -10.496301
v 120.386482 16.753632 -12.217922
v 125.437469 13.309708 -23.358423
v 119.517487 11.329000 -18.560986
v 122.452370 12.391538 -20.748896
v 115.546211 14.317407 -18.333941
v 112.814186 12.490554 -16.179562
v 117.821182 15.706512 -14.314696
v 114.463341 16.259773 -13.970453
v 114.659317 13.192476 -18.598579
v 112.738892 15.071274 -26.640474
v 111.081543 11.680961 -26.554033
v 110.976906 9.387683 -13.702339
v 121.759918 14.593681 -10.880747
v 120.414665 15.364431 -12.275520
v 117.746323 15.883206 -15.290641
v 118.748169 14.906252 -14.114922
v 121.343697 19.353489 1.371490
v 74.443825 0.715343 2.668387
v 49.485901 2.438176 1.472553
v 53.758301 2.317600 14.041698
v 48.502602 9.465007 6.983568
v 46.225990 -4.350500 7.181027
v 48.089001 9.587449 4.934118
v 46.640797 2.540901 4.905760
v 37.495201 3.546649 18.299200
v 48.014389 3.199906 16.562500
v 47.054504 -3.579279 11.846598
v 45.985394 -6.410523 4.934118
v 46.640797 2.540901 1.298579
v 65.218300 1.641621 7.254410
v 22.091610 3.989350 -0.000001
v 74.597389 0.659296 4.934118
v 46.640797 2.540901 11.172600
v 90.229103 -6.517320 6.852930
v 90.227585 -10.348702 7.445729
v 90.244995 10.392599 0.000000
v 90.227005 -11.933002 6.852930
v 90.227585 -10.348702 -0.000000
v 90.248596 10.840401 7.445729
v 90.244995 10.392599 8.160001
v 86.667000 11.917601 12.984900
v 90.230362 -0.084696 11.808798
v 90.238487 6.688210 6.852930
v 90.227585 -10.348702 9.617000
v 77.417206 -11.818304 8.082720
v 77.416504 -12.265199 8.160001
v 86.667000 11.917601 8.540148
v 76.026711 14.687201 10.486100
v 76.031898 13.760199 6.718502
v 94.736191 -10.342498 11.097403
v 94.736282 -6.505869 7.539281
v 94.736992 9.782973 11.781100
v 94.736809 6.531463 0.000000
v 94.736176 -11.924201 -0.000001
v 94.737289 10.840002 12.804098
v 94.736603 -0.095528 12.853803
v 101.702003 7.125380 14.157499
v 108.876595 7.799614 14.915044
v 109.749023 7.410663 21.957111
v 106.707527 6.841134 11.781100
v 94.736809 6.531463 28.039499
v 103.616920 6.144754 41.660851
v 95.151100 5.433998 35.588291
v 98.507317 5.739241 30.468094
v 102.177017 5.883739 45.882809
v 92.817688 5.221766 11.485360
v 120.268013 -8.506348 14.348734
v 120.664055 -13.468496 15.255238
v 118.711136 -7.806937 13.615243
v 125.983818 3.483917 17.742409
v 129.789673 3.484953 17.877764
v 124.436119 3.483286 12.217926
v 125.425064 -6.288098 27.038830
v 116.465714 -3.543324 23.423809
v 114.124771 -6.245222 18.598581
v 112.721214 -8.035189 21.028439
v 111.631882 -7.129175 12.722315
v 127.422363 3.507930 10.496302
v 120.369354 -9.725447 8.752592
v 116.338135 -10.363455 14.314697
v 114.442154 -9.224457 30.105858
v 114.190727 3.515813 26.640471
v 111.081657 -4.649437 12.217922
v 125.445557 13.303693 27.038830
v 116.469368 10.573625 23.423805
v 114.129852 13.277071 18.598585
v 112.743591 15.072410 21.028439
v 111.640625 14.163616 10.496305
v 120.394173 16.752207 8.752588
v 116.362991 17.397896 14.314698
v 114.470123 16.260904 26.640469
v 111.081474 11.680970 14.114922
v 121.352867 19.351120 10.880751
v 120.421585 15.362942 12.275517
v 117.753517 15.882959 13.702338
v 121.769012 14.590130 15.290644
v 118.754265 14.905210 -0.000001
v 94.737289 10.840002 0.000000
v 94.736176 -11.924201 0.000000
v 90.227005 -11.933002 -0.000000
v 90.248596 10.840401 -0.000001
v 74.597389 0.659296 -0.000001
v 76.088486 7.006248 -1.371490
v 74.443817 0.715347 -2.668390
v 49.485897 2.438182 -1.472554
v 53.758293 2.317603 -14.041699
v 48.502598 9.465008 -6.983571
v 46.225998 -4.350501 -7.181028
v 48.089001 9.587447 -4.934118
v 46.640797 2.540907 -4.905760
v 37.495201 3.546654 -18.299200
v 48.014393 3.199909 -16.562500
v 47.054501 -3.579279 -11.846599
v 45.985394 -6.410521 -4.934118
v 46.640797 2.540907 -1.298580
v 65.218300 1.641627 -7.254412
v 22.091608 3.989361 0.000001
v 75.339897 -7.356603 -0.000001
v 74.597389 0.659296 -4.934118
v 46.640797 2.540907 -0.000000
v 80.974190 -9.741223 0.000000
v 81.839912 12.054603 -0.000000
v 88.232407 -11.282103 0.000001
v 88.254013 10.840399 -11.172600
v 90.229111 -6.517324 -6.852928
v 90.227577 -10.348703 -7.445730
v 90.244995 10.392597 -0.000000
v 66.223526 16.794403 0.000000
v 76.027092 15.589481 0.000000
v 90.227005 -11.933002 0.000001
v 77.415619 -14.025506 -0.000002
v 66.217903 -15.168900 -6.852928
v 90.227577 -10.348703 -0.000000
v 90.248596 10.840401 -7.445730
v 90.244995 10.392597 -0.000000
v 86.574799 12.475205 -8.160002
v 86.667007 11.917601 -12.984898
v 90.230354 -0.084693 -11.808798
v 90.238487 6.688210 -6.852928
v 90.227577 -10.348703 -8.082721
v 77.416489 -12.265199 -9.617000
v 77.417198 -11.818304 -8.160002
v 86.667007 11.917601 -10.486099
v 76.031906 13.760199 -8.540150
v 76.026711 14.687203 -6.718503
v 94.736191 -10.342499 -11.097402
v 94.736298 -6.505867 -0.000001
v 109.286980 12.398401 -7.539279
v 94.737000 9.782970 -11.781098
v 94.736786 6.531461 -0.000001
v 101.698997 11.532102 0.000004
v 120.899994 -5.396774 0.000000
v 101.700996 -12.317502 0.000000
v 94.736176 -11.924201 0.000000
v 109.721992 -12.259203 -0.000001
v 117.228996 12.388401 -0.000001
v 94.737289 10.840002 -0.000000
v 124.894989 10.563902 -0.000000
v 116.558006 -9.340246 -12.804099
v 94.736610 -0.095527 -0.000000
v 124.257988 -4.472840 -0.000000
v 128.953995 9.176827 0.000000
v 123.420013 1.950670 -12.853801
v 101.701996 7.125379 -14.157495
v 108.873863 7.795417 -14.915044
v 109.747284 7.408119 -21.957111
v 106.707558 6.841159 -11.781098
v 94.736786 6.531461 -28.039499
v 103.616936 6.144774 -41.660866
v 95.151085 5.433990 -35.588295
v 98.507301 5.739232 -30.468100
v 102.177002 5.883740 -0.000000
v 126.774010 8.181261 -0.000000
v 133.220993 6.875770 0.000001
v 128.725998 -3.807342 -0.000001
v 122.202019 -2.804042 -45.882812
v 92.817696 5.221764 -0.000003
v 59.370678 -15.168900 -0.000001
v 60.492733 16.794407 -14.348726
v 120.664047 -13.468499 -11.485356
v 120.269905 -8.505903 -15.255238
v 118.717377 -7.805770 -17.742405
v 129.789337 3.492564 -13.615242
v 125.983238 3.492260 -17.877762
v 124.435760 3.487952 -12.217921
v 125.426842 -6.286597 -27.038830
v 116.465675 -3.543360 -23.423805
v 114.124710 -6.245228 -18.598581
v 112.725441 -8.036335 -21.028433
v 111.631813 -7.129169 -12.722316
v 127.422226 3.510100 -10.496299
v 120.371445 -9.725024 -8.752589
v 116.339546 -10.363630 -14.314693
v 114.449203 -9.225773 -30.105854
v 114.190727 3.515775 -26.640472
v 111.081619 -4.649445 -12.217922
v 125.437469 13.309708 -27.038830
v 116.469429 10.573585 -23.423809
v 114.129929 13.277062 -18.598579
v 112.738892 15.071274 -21.028429
v 111.640663 14.163621 -10.496301
v 120.386482 16.753632 -8.752587
v 116.354935 17.396980 -14.314696
v 114.463341 16.259773 -26.640474
v 111.081543 11.680961 -10.880747
v 120.414665 15.364431 -14.114922
v 121.343697 19.353489 -12.275520
v 117.746323 15.883206 -13.702339
v 121.759918 14.593681 -15.290641
v 118.748169 14.906252 0.703747

vt 0.011763 0.112137
vt 0.011733 0.232152
vt 0.011724 0.418491
vt 0.065480 0.295389
vt 0.065341 0.231762
vt 0.065297 0.115318
vt 0.065306 0.041703
vt 0.065480 0.351622
vt 0.011810 0.351217
vt 0.065398 0.167432
vt 0.065286 0.166202
vt 0.011717 0.090831
vt 0.222542 0.095639
vt 0.336187 0.088203
vt 0.278882 0.082704
vt 0.446208 0.092925
vt 0.389580 0.627888
vt 0.808813 0.437339
vt 0.802982 0.523374
vt 0.799241 0.670327
vt 0.805939 0.567473
vt 0.802333 0.481755
vt 0.798905 0.162960
vt 0.594558 0.136765
vt 0.149336 0.208336
vt 0.361631 0.219259
vt 0.226827 0.229770
vt 0.170856 0.256300
vt 0.097445 0.123522
vt 0.440016 0.214078
vt 0.282055 0.310900
vt 0.185650 0.404949
vt 0.151093 0.342511
vt 0.492444 0.340310
vt 0.435732 0.289770
vt 0.289675 0.523051
vt 0.992075 0.208945
vt 0.512471 0.207725
vt 0.439513 0.329510
vt 0.243650 0.343033
vt 0.193685 0.322109
vt 0.296826 0.368896
vt 0.258412 0.356949
vt 0.311401 0.384388
vt 0.209542 0.523809
vt 0.923534 0.477506
vt 0.925618 0.435129
vt 0.927320 0.677801
vt 0.922794 0.140456
vt 0.512305 0.297317
vt 0.237479 0.124672
vt 0.126921 0.314456
vt 0.367663 0.308839
vt 0.437267 0.314285
vt 0.497130 0.333411
vt 0.567780 0.597875
vt 0.806749 0.123759
vt 0.221778 0.110502
vt 0.279052 0.104180
vt 0.512775 0.110161
vt 0.386285 0.283728
vt 0.365364 0.281312
vt 0.439687 0.286051
vt 0.501089 0.304550
vt 0.581737 0.031553
vt 0.278535 0.025688
vt 0.446604 0.036449
vt 0.335260 0.023808
vt 0.226207 0.034196
vt 0.395187 0.531965
vt 0.185088 0.369202
vt 0.851402 0.209543
vt 0.848422 0.297445
vt 0.846333 0.033508
vt 0.835631 0.116186
vt 0.841248 0.105352
vt 0.764664 0.300499
vt 0.765690 0.209671
vt 0.765600 0.421494
vt 0.091719 0.431693
vt 0.208291 0.625083
vt 0.082987 0.622861
vt 0.186237 0.062850
vt 0.949265 0.131533
vt 0.928914 0.210235
vt 0.928960 0.284795
vt 0.929459 0.103343
vt 0.695427 0.302376
vt 0.693181 0.209794
vt 0.689882 0.347766
vt 0.781022 0.353225
vt 0.705623 0.048327
vt 0.781977 0.043610
vt 0.707080 0.374977
vt 0.814731 0.025886
vt 0.805920 0.833653
vt 0.578946 0.835134
vt 0.691314 0.833847
vt 0.321175 0.826443
vt 0.753708 0.729850
vt 0.397039 0.675760
vt 0.318929 0.854569
vt 0.483495 0.770936
vt 0.682560 0.830136
vt 0.641773 0.767071
vt 0.743193 0.782076
vt 0.589338 0.775178
vt 0.636940 0.910497
vt 0.476804 0.892585
vt 0.326262 0.922957
vt 0.795313 0.956483
vt 0.729707 0.908235
vt 0.549536 0.876861
vt 0.648072 0.907609
vt 0.694620 0.785949
vt 0.492786 0.808464
vt 0.828076 0.891208
vt 0.863662 0.930520
vt 0.579709 0.977064
vt 0.552327 0.917542
vt 0.631296 0.935022
vt 0.670072 0.769838
vt 0.303182 0.705490
vt 0.268642 0.963758
vt 0.399624 0.886018
vt 0.403574 0.815229
vt 0.410003 0.649945
vt 0.441177 0.617598
vt 0.366469 0.658114
vt 0.732917 0.656605
vt 0.517095 0.663165
vt 0.588941 0.660083
vt 0.664068 0.741091
vt 0.807049 0.736965
vt 0.737793 0.718341
vt 0.407646 0.732221
vt 0.508936 0.733079
vt 0.667815 0.735662
vt 0.589014 0.790456
vt 0.900714 0.883638
vt 0.594521 0.891319
vt 0.725718 0.591135
vt 0.785991 0.576351
vt 0.450570 0.585928
vt 0.659360 0.579650
vt 0.519836 0.370702
vt 0.384277 0.370971
vt 0.723562 0.370769
vt 0.452384 0.370929
vt 0.660480 0.370823
vt 0.521721 0.582521
vt 0.591416 0.370876
vt 0.583995 0.598793
vt 0.725437 0.558632
vt 0.785905 0.553376
vt 0.660740 0.544845
vt 0.724245 0.573120
vt 0.723047 0.549911
vt 0.591096 0.546937
vt 0.521222 0.543690
vt 0.451954 0.486545
vt 0.451969 0.486613
vt 0.521305 0.486674
vt 0.587837 0.486755
vt 0.660956 0.486815
vt 0.724037 0.481730
vt 0.786221 0.776056
vt 0.404055 0.763465
vt 0.818713 0.765779
vt 0.892799 0.735720
vt 0.636905 0.910342
vt 0.119289 0.849153
vt 0.126648 0.795015
vt 0.126955 0.848593
vt 0.185616 0.904459
vt 0.180960 0.795587
vt 0.188582 0.420863
vt 0.585653 0.418771
vt 0.521549 0.417165
vt 0.452218 0.422659
vt 0.660693 0.420039
vt 0.723763 0.418611
vt 0.786768 0.517294
vt 0.012933 0.463052
vt 0.028544 0.531965
vt 0.020704 0.588695
vt 0.032068 0.418491
vt 0.011882 0.041568
vt 0.011890 0.152582
vt 0.600329 0.518313
vt 0.205564 0.965598
vt 0.473052 0.901978
vt 0.864792 0.948989
vt 0.864792 0.996000
vt 0.864792 0.940987
vt 0.925499 0.948989
vt 0.914046 0.894061
vt 0.925578 0.941072
vt 0.925578 0.988083
vt 0.925578 0.949106
vt 0.864673 0.941072
vt 0.974832 0.301385
vt 0.629795 0.097499
vt 0.564964 0.122868
vt 0.614848 0.105737
vt 0.587914 0.142251
vt 0.665313 0.301422
vt 0.661532 0.253807
vt 0.661507 0.329716
vt 0.661233 0.197482
vt 0.661455 0.213512
vt 0.661407 0.314330
vt 0.661268 0.355720
vt 0.661254 0.314374
vt 0.629767 0.018268
vt 0.694477 0.000418
vt 0.640182 0.089645
vt 0.631273 0.109611
vt 0.679863 0.065502
vt 0.690229 0.050101
vt 0.639806 0.084329
vt 0.589075 0.263719
vt 0.661554 0.048189
vt 0.590115 0.045905
vt 0.563184 0.280593
vt 0.661268 0.078611
vt 0.564793 0.135389
vt 0.577944 0.233202
vt 0.661358 0.181396
vt 0.629844 0.181354
vt 0.661251 0.301385
vt 0.629795 0.097499
vt 0.564964 0.122868
vt 0.614848 0.105737
vt 0.587914 0.301422
vt 0.661532 0.253807
vt 0.661507 0.329716
vt 0.661233 0.197482
vt 0.661455 0.213512
vt 0.661407 0.314330
vt 0.661268 0.314374
vt 0.629767 0.000418
vt 0.640182 0.089645
vt 0.631273 0.050101
vt 0.639806 0.084329
vt 0.589075 0.263719
vt 0.661554 0.048189
vt 0.590115 0.045905
vt 0.563184 0.280593
vt 0.661268 0.078611
vt 0.564793 0.135389
vt 0.577944 0.233202
vt 0.661358 0.996061
vt 0.864709 0.949031
vt 0.864664 0.987920
vt 0.925592 0.940907
vt 0.925593 0.949040
vt 0.913940 0.065713
vt 0.520992 0.010442
vt 0.166121 0.862514
vt 0.929604 0.124976
vt 0.552227 0.077801
vt 0.146989 0.009257
vt 0.506155 0.531965
vt 0.081608 0.517183
vt 0.087647 0.532153
vt 0.300291 0.968453
vt 0.521003 0.975593
vt 0.695803 0.989869
vt 0.612772 0.964205
vt 0.325530 0.964663
vt 0.118172 0.955280
vt 0.183269 0.296253
vt 0.011763 0.112137
vt 0.011733 0.232152
vt 0.011724 0.295389
vt 0.065341 0.231762
vt 0.065297 0.115318
vt 0.065306 0.351622
vt 0.011810 0.351217
vt 0.065398 0.167432
vt 0.065286 0.166202
vt 0.011717 0.090831
vt 0.222542 0.095639
vt 0.336187 0.088203
vt 0.278882 0.082704
vt 0.446208 0.092925
vt 0.389580 0.627888
vt 0.808813 0.437339
vt 0.802982 0.523374
vt 0.799241 0.670327
vt 0.805939 0.567473
vt 0.802333 0.481755
vt 0.798905 0.162960
vt 0.594558 0.136765
vt 0.149336 0.208336
vt 0.361631 0.219259
vt 0.226827 0.229770
vt 0.170856 0.256300
vt 0.097445 0.123522
vt 0.440016 0.214078
vt 0.282055 0.310900
vt 0.185650 0.404949
vt 0.151093 0.342511
vt 0.492444 0.340310
vt 0.435732 0.289770
vt 0.289675 0.523051
vt 0.992075 0.208945
vt 0.512471 0.207725
vt 0.439513 0.329510
vt 0.243650 0.343033
vt 0.193685 0.322109
vt 0.296826 0.368896
vt 0.258412 0.356949
vt 0.311401 0.384388
vt 0.209542 0.523809
vt 0.923534 0.477506
vt 0.925618 0.435129
vt 0.927320 0.677801
vt 0.922794 0.140456
vt 0.512305 0.297317
vt 0.237479 0.314456
vt 0.367663 0.308839
vt 0.437267 0.314285
vt 0.497130 0.333411
vt 0.567780 0.597875
vt 0.806749 0.123759
vt 0.221778 0.110502
vt 0.279052 0.104180
vt 0.512775 0.110161
vt 0.386285 0.283728
vt 0.365364 0.281312
vt 0.439687 0.286051
vt 0.501089 0.304550
vt 0.581737 0.031553
vt 0.278535 0.025688
vt 0.446604 0.036449
vt 0.335260 0.023808
vt 0.226207 0.034196
vt 0.395187 0.369202
vt 0.851402 0.209543
vt 0.848422 0.297445
vt 0.846333 0.033508
vt 0.835631 0.116186
vt 0.841248 0.105352
vt 0.764664 0.300499
vt 0.765690 0.209671
vt 0.765600 0.421494
vt 0.091719 0.431693
vt 0.208291 0.625083
vt 0.082987 0.622861
vt 0.186237 0.062850
vt 0.949265 0.131533
vt 0.928914 0.210235
vt 0.928960 0.284795
vt 0.929459 0.103343
vt 0.695427 0.302376
vt 0.693181 0.209794
vt 0.689882 0.347766
vt 0.781022 0.353225
vt 0.705623 0.048327
vt 0.781977 0.043610
vt 0.707080 0.374977
vt 0.814731 0.025886
vt 0.805920 0.833653
vt 0.578946 0.835134
vt 0.691314 0.833847
vt 0.321175 0.826443
vt 0.753708 0.729850
vt 0.397039 0.675760
vt 0.318929 0.854569
vt 0.483495 0.770936
vt 0.682560 0.830136
vt 0.641773 0.767071
vt 0.743193 0.782076
vt 0.589338 0.775178
vt 0.636940 0.910497
vt 0.476804 0.892585
vt 0.326262 0.908235
vt 0.549536 0.876861
vt 0.648072 0.907609
vt 0.694620 0.785949
vt 0.492786 0.808464
vt 0.828076 0.930520
vt 0.579709 0.917542
vt 0.631296 0.935022
vt 0.670072 0.769838
vt 0.303182 0.705490
vt 0.268642 0.886018
vt 0.403574 0.815229
vt 0.410003 0.649945
vt 0.441177 0.617598
vt 0.366469 0.658114
vt 0.732917 0.656605
vt 0.517095 0.663165
vt 0.588941 0.660083
vt 0.664068 0.741091
vt 0.807049 0.736965
vt 0.737793 0.718341
vt 0.407646 0.732221
vt 0.508936 0.733079
vt 0.667815 0.735662
vt 0.589014 0.790456
vt 0.900714 0.883638
vt 0.594521 0.891319
vt 0.725718 0.591135
vt 0.785991 0.576351
vt 0.450570 0.585928
vt 0.659360 0.579650
vt 0.519836 0.370702
vt 0.384277 0.370971
vt 0.723562 0.370769
vt 0.452384 0.370929
vt 0.660480 0.370823
vt 0.521721 0.582521
vt 0.591416 0.370876
vt 0.583995 0.598793
vt 0.725437 0.558632
vt 0.785905 0.553376
vt 0.660740 0.544845
vt 0.724245 0.573120
vt 0.723047 0.549911
vt 0.591096 0.546937
vt 0.521222 0.543690
vt 0.451954 0.486545
vt 0.451969 0.486613
vt 0.521305 0.486674
vt 0.587837 0.486755
vt 0.660956 0.486815
vt 0.724037 0.481730
vt 0.786221 0.776056
vt 0.404055 0.763465
vt 0.818713 0.765779
vt 0.892799 0.735720
vt 0.636905 0.910342
vt 0.119289 0.849153
vt 0.126648 0.848593
vt 0.185616 0.904459
vt 0.180960 0.420863
vt 0.585653 0.418771
vt 0.521549 0.417165
vt 0.452218 0.422659
vt 0.660693 0.420039
vt 0.723763 0.418611
vt 0.786768 0.463052
vt 0.028544 0.588695
vt 0.032068 0.901978
vt 0.864792 0.948989
vt 0.864792 0.996000
vt 0.864792 0.940987
vt 0.925499 0.948989
vt 0.914046 0.894061
vt 0.925578 0.941072
vt 0.925578 0.988083
vt 0.925578 0.949106
vt 0.864673 0.941072
vt 0.974832 0.301385
vt 0.629795 0.097499
vt 0.564964 0.122868
vt 0.614848 0.105737
vt 0.587914 0.142251
vt 0.665313 0.301422
vt 0.661532 0.253807
vt 0.661507 0.329716
vt 0.661233 0.197482
vt 0.661455 0.213512
vt 0.661407 0.314330
vt 0.661268 0.355720
vt 0.661254 0.314374
vt 0.629767 0.018268
vt 0.694477 0.000418
vt 0.640182 0.089645
vt 0.631273 0.109611
vt 0.679863 0.065502
vt 0.690229 0.050101
vt 0.639806 0.084329
vt 0.589075 0.263719
vt 0.661554 0.048189
vt 0.590115 0.045905
vt 0.563184 0.280593
vt 0.661268 0.078611
vt 0.564793 0.135389
vt 0.577944 0.233202
vt 0.661358 0.181396
vt 0.629844 0.181354
vt 0.661251 0.301385
vt 0.629795 0.097499
vt 0.564964 0.122868
vt 0.614848 0.105737
vt 0.587914 0.301422
vt 0.661532 0.253807
vt 0.661507 0.329716
vt 0.661233 0.197482
vt 0.661455 0.213512
vt 0.661407 0.314330
vt 0.661268 0.314374
vt 0.629767 0.000418
vt 0.640182 0.089645
vt 0.631273 0.050101
vt 0.639806 0.084329
vt 0.589075 0.263719
vt 0.661554 0.048189
vt 0.590115 0.045905
vt 0.563184 0.280593
vt 0.661268 0.078611
vt 0.564793 0.135389
vt 0.577944 0.233202
vt 0.661358 0.996061
vt 0.864709 0.949031
vt 0.864664 0.987920
vt 0.925592 0.940907
vt 0.925593 0.949040
vt 0.913940 0.196519
vt 0.089531 0.369203
vt 0.127026 0.338411
vt 0.114395 0.475527
vt 0.993919 0.632144
vt 0.991888 0.433309
vt 0.994569 0.386676
vt 0.990450 0.386844
vt 0.918835 0.344712
vt 0.372477 0.567379
vt 0.991323 0.600729
vt 0.988124 0.675130
vt 0.991910 0.219529
vt 0.592640 0.395467
vt 0.802336 0.187541
vt 0.079438 0.358219
vt 0.551168 0.281106
vt 0.969700 0.340060
vt 0.987551 0.080709
vt 0.987551 0.517913
vt 0.341559 0.444267
vt 0.344028 0.532255
vt 0.342405 0.613956
vt 0.342381 0.620472
vt 0.301468 0.210970
vt 0.962133 0.138433
vt 0.967895 0.660227
vt 0.280053 0.641102
vt 0.081430 0.665214
vt 0.083230 0.701775
vt 0.245286 0.685179
vt 0.079649 0.717787
vt 0.078985 0.903171
vt 0.261898 0.851342
vt 0.255637 0.770757
vt 0.964329 0.722679
vt 0.948949 0.963994
vt 0.261704 0.837466
vt 0.990469 0.794280
vt 0.239502 0.738574
vt 0.884073 0.751947
vt 0.816316 0.666842
vt 0.331050 0.663786
vt 0.792432 0.738410
vt 0.211585 0.572971
vt 0.382537 0.420280
vt 0.384106 0.491589
vt 0.383860 0.545599
vt 0.383913 0.370998
vt 0.786637 0.987999
vt 0.925499 0.940987
vt 0.974753 0.893976
vt 0.925499 0.996117
vt 0.864673 0.949106
vt 0.913927 0.902095
vt 0.864673 0.329702
vt 0.629727 0.197496
vt 0.629847 0.213491
vt 0.629843 0.263714
vt 0.629833 0.253754
vt 0.629846 0.355720
vt 0.629766 0.003994
vt 0.589749 0.004454
vt 0.558874 0.280589
vt 0.629808 0.168851
vt 0.649667 0.233141
vt 0.629846 0.329702
vt 0.629727 0.197496
vt 0.629847 0.213491
vt 0.629843 0.263714
vt 0.629833 0.253754
vt 0.629846 0.003994
vt 0.589749 0.004454
vt 0.558874 0.280589
vt 0.629808 0.233141
vt 0.629846 0.940908
vt 0.974846 0.940907
vt 0.925593 0.893896
vt 0.925593 0.902020
vt 0.864664 0.949031
vt 0.864664 0.041703
vt 0.065480 0.418491
vt 0.065480 0.418491
vt 0.011882 0.041568
vt 0.011890 0.152582
vt 0.600329 0.124976
vt 0.552227 0.196519
vt 0.089531 0.369203
vt 0.127026 0.338411
vt 0.114395 0.475527
vt 0.993919 0.632144
vt 0.991888 0.433309
vt 0.994569 0.386676
vt 0.990450 0.386844
vt 0.918835 0.344712
vt 0.372477 0.567379
vt 0.991323 0.600729
vt 0.988124 0.675130
vt 0.991910 0.219529
vt 0.592640 0.395467
vt 0.802336 0.124672
vt 0.126921 0.187541
vt 0.079438 0.358219
vt 0.551168 0.077801
vt 0.146989 0.065713
vt 0.520992 0.010442
vt 0.166121 0.009257
vt 0.506155 0.281106
vt 0.969700 0.340060
vt 0.987551 0.080709
vt 0.987551 0.531965
vt 0.081608 0.531965
vt 0.185088 0.517913
vt 0.341559 0.518313
vt 0.205564 0.517183
vt 0.087647 0.444267
vt 0.344028 0.532255
vt 0.342405 0.613956
vt 0.342381 0.532153
vt 0.300291 0.620472
vt 0.301468 0.210970
vt 0.962133 0.138433
vt 0.967895 0.660227
vt 0.280053 0.665214
vt 0.083230 0.641102
vt 0.081430 0.701775
vt 0.245286 0.717787
vt 0.078985 0.685179
vt 0.079649 0.903171
vt 0.261898 0.851342
vt 0.255637 0.891208
vt 0.863662 0.770757
vt 0.964329 0.722679
vt 0.948949 0.862514
vt 0.929604 0.968453
vt 0.521003 0.964205
vt 0.325530 0.963994
vt 0.261704 0.963758
vt 0.399624 0.922957
vt 0.795313 0.837466
vt 0.990469 0.956483
vt 0.729707 0.965598
vt 0.473052 0.794280
vt 0.239502 0.977064
vt 0.552327 0.975593
vt 0.695803 0.989869
vt 0.612772 0.738574
vt 0.884073 0.751947
vt 0.816316 0.666842
vt 0.331050 0.663786
vt 0.792432 0.738410
vt 0.211585 0.572971
vt 0.382537 0.420280
vt 0.384106 0.491589
vt 0.383860 0.545599
vt 0.383913 0.795015
vt 0.126955 0.795587
vt 0.188582 0.955280
vt 0.183269 0.964663
vt 0.118172 0.370998
vt 0.786637 0.517294
vt 0.012933 0.531965
vt 0.020704 0.940987
vt 0.974753 0.987999
vt 0.925499 0.893976
vt 0.925499 0.949106
vt 0.913927 0.996117
vt 0.864673 0.902095
vt 0.864673 0.329702
vt 0.629727 0.197496
vt 0.629847 0.213491
vt 0.629843 0.263714
vt 0.629833 0.253754
vt 0.629846 0.355720
vt 0.629766 0.003994
vt 0.589749 0.004454
vt 0.558874 0.280589
vt 0.629808 0.168851
vt 0.649667 0.233141
vt 0.629846 0.329702
vt 0.629727 0.197496
vt 0.629847 0.213491
vt 0.629843 0.263714
vt 0.629833 0.253754
vt 0.629846 0.003994
vt 0.589749 0.004454
vt 0.558874 0.280589
vt 0.629808 0.233141
vt 0.629846 0.940907
vt 0.925593 0.940908
vt 0.974846 0.893896
vt 0.925593 0.902020
vt 0.864664 0.949031
vt 0.864664 1.000000

f 7/7 12/12 11/11
f 8/8 2/2 7/7
f 6/6 3/3 5/5
f 1/1 5/5 3/3
f 10/10 5/5 9/9
f 11/11 12/12 3/3
f 10/10 188/188 4/4
f 9/9 5/5 1/1
f 188/188 10/10 9/9
f 2/2 8/8 189/189
f 6/6 11/11 3/3
f 7/7 2/2 12/12
f 190/190 24/24 262/262
f 30/30 16/16 60/60
f 15/15 14/14 59/59
f 26/26 31/31 14/14
f 59/59 27/27 58/58
f 13/13 15/15 59/59
f 30/30 50/50 38/38
f 17/17 30/30 61/61
f 29/29 25/25 28/28
f 29/29 514/514 25/25
f 28/28 27/27 32/32
f 51/51 32/32 27/27
f 65/65 56/56 64/64
f 54/54 62/62 63/63
f 51/51 31/31 36/36
f 31/31 51/51 27/27
f 515/515 45/45 33/33
f 32/32 516/516 28/28
f 53/53 42/42 36/36
f 34/34 35/35 55/55
f 54/54 55/55 35/35
f 30/30 38/38 39/39
f 41/41 32/32 40/40
f 51/51 40/40 32/32
f 51/51 36/36 40/40
f 42/42 40/40 36/36
f 42/42 53/53 44/44
f 41/41 515/515 32/32
f 517/517 47/47 37/37
f 46/46 37/37 47/47
f 40/40 43/43 41/41
f 45/45 41/41 43/43
f 40/40 42/42 43/43
f 44/44 43/43 42/42
f 21/21 49/49 18/18
f 518/518 18/18 49/49
f 519/519 520/520 48/48
f 521/521 48/48 520/520
f 47/47 517/517 48/48
f 519/519 48/48 517/517
f 53/53 522/522 44/44
f 20/20 22/22 46/46
f 523/523 46/46 22/22
f 37/37 46/46 523/523
f 45/45 515/515 41/41
f 524/524 523/523 22/22
f 22/22 57/57 524/524
f 525/525 518/518 49/49
f 50/50 526/526 38/38
f 526/526 50/50 24/24
f 18/18 518/518 524/524
f 46/46 23/23 20/20
f 23/23 46/46 47/47
f 48/48 23/23 47/47
f 23/23 48/48 19/19
f 521/521 19/19 48/48
f 19/19 521/521 527/527
f 30/30 60/60 50/50
f 25/25 52/52 13/13
f 61/61 26/26 14/14
f 28/28 25/25 27/27
f 58/58 27/27 25/25
f 514/514 528/528 52/52
f 16/16 30/30 17/17
f 522/522 54/54 35/35
f 31/31 62/62 36/36
f 55/55 56/56 529/529
f 61/61 39/39 26/26
f 13/13 52/52 263/263
f 52/52 25/25 514/514
f 262/262 50/50 60/60
f 24/24 50/50 262/262
f 53/53 54/54 522/522
f 26/26 62/62 31/31
f 39/39 38/38 63/63
f 39/39 63/63 26/26
f 55/55 529/529 34/34
f 64/64 63/63 38/38
f 29/29 28/28 516/516
f 38/38 526/526 65/65
f 57/57 18/18 524/524
f 59/59 58/58 13/13
f 13/13 58/58 25/25
f 27/27 59/59 31/31
f 59/59 14/14 31/31
f 262/262 60/60 259/259
f 16/16 259/259 60/60
f 30/30 39/39 61/61
f 17/17 61/61 14/14
f 62/62 53/53 36/36
f 54/54 53/53 62/62
f 63/63 62/62 26/26
f 63/63 64/64 54/54
f 55/55 54/54 64/64
f 64/64 56/56 55/55
f 38/38 65/65 64/64
f 516/516 32/32 515/515
f 13/13 260/260 69/69
f 15/15 13/13 69/69
f 13/13 263/263 260/260
f 14/14 15/15 66/66
f 66/66 68/68 14/14
f 16/16 17/17 70/70
f 70/70 67/67 16/16
f 264/264 16/16 67/67
f 16/16 264/264 259/259
f 70/70 14/14 68/68
f 14/14 70/70 17/17
f 69/69 66/66 15/15
f 87/87 530/530 86/86
f 86/86 73/73 87/87
f 531/531 87/87 74/74
f 530/530 87/87 531/531
f 73/73 86/86 85/85
f 84/84 85/85 532/532
f 76/76 96/96 93/93
f 93/93 77/77 76/76
f 82/82 71/71 265/265
f 74/74 73/73 79/79
f 79/79 78/78 74/74
f 79/79 76/76 77/77
f 76/76 79/79 73/73
f 95/95 74/74 91/91
f 533/533 81/81 191/191
f 191/191 80/80 266/266
f 80/80 191/191 81/81
f 81/81 533/533 534/534
f 71/71 82/82 83/83
f 535/535 267/267 536/536
f 71/71 83/83 537/537
f 538/538 539/539 86/86
f 71/71 537/537 267/267
f 267/267 537/537 536/536
f 73/73 85/85 76/76
f 75/75 76/76 84/84
f 85/85 539/539 532/532
f 84/84 76/76 85/85
f 86/86 539/539 85/85
f 86/86 530/530 538/538
f 74/74 72/72 531/531
f 87/87 73/73 74/74
f 540/540 541/541 542/542
f 543/543 544/544 545/545
f 94/94 88/88 77/77
f 89/89 79/79 90/90
f 79/79 89/89 78/78
f 79/79 77/77 88/88
f 88/88 90/90 79/79
f 89/89 92/92 78/78
f 91/91 78/78 92/92
f 91/91 74/74 78/78
f 94/94 77/77 93/93
f 76/76 75/75 96/96
f 74/74 95/95 72/72
f 546/546 110/110 547/547
f 100/100 118/118 117/117
f 98/98 105/105 115/115
f 101/101 102/102 123/123
f 548/548 549/549 170/170
f 118/118 261/261 117/117
f 168/168 127/127 116/116
f 108/108 107/107 105/105
f 97/97 105/105 107/107
f 105/105 104/104 108/108
f 116/116 103/103 97/97
f 109/109 103/103 126/126
f 170/170 140/140 548/548
f 104/104 105/105 98/98
f 104/104 98/98 100/100
f 104/104 100/100 106/106
f 109/109 268/268 113/113
f 546/546 550/550 271/271
f 127/127 126/126 116/116
f 271/271 125/125 110/110
f 110/110 99/99 547/547
f 103/103 113/113 97/97
f 110/110 546/546 271/271
f 142/142 100/100 98/98
f 100/100 142/142 111/111
f 548/548 140/140 551/551
f 142/142 112/112 111/111
f 192/192 268/268 109/109
f 105/105 141/141 114/114
f 105/105 114/114 115/115
f 103/103 109/109 113/113
f 105/105 97/97 141/141
f 103/103 116/116 126/126
f 97/97 107/107 116/116
f 169/169 106/106 117/117
f 100/100 117/117 106/106
f 100/100 111/111 118/118
f 552/552 99/99 123/123
f 101/101 123/123 168/168
f 113/113 120/120 119/119
f 120/120 113/113 268/268
f 119/119 141/141 113/113
f 122/122 114/114 121/121
f 114/114 122/122 115/115
f 141/141 121/121 114/114
f 269/269 115/115 122/122
f 115/115 269/269 112/112
f 120/120 270/270 119/119
f 119/119 270/270 121/121
f 121/121 270/270 122/122
f 122/122 270/270 269/269
f 110/110 125/125 126/126
f 552/552 547/547 99/99
f 123/123 124/124 552/552
f 169/169 170/170 553/553
f 124/124 123/123 102/102
f 125/125 192/192 109/109
f 109/109 126/126 125/125
f 127/127 99/99 110/110
f 110/110 126/126 127/127
f 168/168 99/99 127/127
f 135/135 554/554 134/134
f 554/554 135/135 169/169
f 102/102 101/101 555/555
f 136/136 555/555 101/101
f 116/116 137/137 136/136
f 138/138 104/104 106/106
f 116/116 139/139 137/137
f 139/139 116/116 107/107
f 106/106 135/135 138/138
f 107/107 108/108 139/139
f 138/138 171/171 108/108
f 108/108 104/104 138/138
f 555/555 128/128 129/129
f 128/128 555/555 136/136
f 134/134 556/556 130/130
f 130/130 135/135 134/134
f 137/137 131/131 128/128
f 128/128 136/136 137/137
f 137/137 139/139 131/131
f 132/132 131/131 139/139
f 138/138 130/130 133/133
f 130/130 138/138 135/135
f 171/171 132/132 139/139
f 171/171 133/133 132/132
f 136/136 101/101 116/116
f 140/140 261/261 551/551
f 169/169 117/117 140/140
f 261/261 140/140 117/117
f 557/557 552/552 124/124
f 119/119 121/121 141/141
f 141/141 97/97 113/113
f 115/115 112/112 142/142
f 98/98 115/115 142/142
f 130/130 556/556 143/143
f 143/143 154/154 130/130
f 144/144 558/558 129/129
f 129/129 128/128 144/144
f 152/152 133/133 145/145
f 133/133 152/152 132/132
f 152/152 131/131 132/132
f 131/131 152/152 146/146
f 145/145 130/130 154/154
f 130/130 145/145 133/133
f 131/131 144/144 128/128
f 144/144 131/131 146/146
f 166/166 167/167 183/183
f 155/155 166/166 157/157
f 559/559 162/162 180/180
f 162/162 559/559 560/560
f 561/561 144/144 161/161
f 165/165 164/164 159/159
f 159/159 152/152 156/156
f 146/146 161/161 144/144
f 146/146 152/152 159/159
f 178/178 151/151 179/179
f 151/151 178/178 153/153
f 181/181 166/166 182/182
f 166/166 181/181 165/165
f 156/156 157/157 166/166
f 158/158 155/155 157/157
f 558/558 144/144 561/561
f 156/156 152/152 145/145
f 145/145 158/158 156/156
f 155/155 158/158 143/143
f 158/158 145/145 154/154
f 156/156 158/158 157/157
f 143/143 158/158 154/154
f 150/150 178/178 181/181
f 178/178 150/150 153/153
f 159/159 160/160 146/146
f 161/161 146/146 160/160
f 560/560 161/161 162/162
f 163/163 162/162 161/161
f 147/147 180/180 149/149
f 179/179 149/149 180/180
f 149/149 179/179 151/151
f 159/159 163/163 160/160
f 161/161 160/160 163/163
f 165/165 181/181 164/164
f 163/163 159/159 164/164
f 166/166 165/165 156/156
f 156/156 165/165 159/159
f 183/183 182/182 166/166
f 161/161 560/560 561/561
f 166/166 155/155 167/167
f 123/123 99/99 168/168
f 101/101 168/168 116/116
f 135/135 106/106 169/169
f 554/554 169/169 553/553
f 169/169 140/140 170/170
f 553/553 170/170 549/549
f 138/138 133/133 171/171
f 171/171 139/139 108/108
f 172/172 176/176 175/175
f 175/175 173/173 172/172
f 174/174 173/173 175/175
f 175/175 177/177 174/174
f 176/176 172/172 273/273
f 272/272 273/273 172/172
f 163/163 164/164 178/178
f 164/164 181/181 178/178
f 178/178 179/179 163/163
f 162/162 163/163 179/179
f 179/179 180/180 162/162
f 182/182 150/150 181/181
f 150/150 182/182 148/148
f 562/562 182/182 183/183
f 182/182 562/562 148/148
f 180/180 147/147 559/559
f 80/80 184/184 266/266
f 184/184 80/80 185/185
f 265/265 187/187 82/82
f 187/187 265/265 186/186
f 194/194 193/193 197/197
f 195/195 194/194 197/197
f 196/196 563/563 564/564
f 565/565 196/196 564/564
f 199/199 198/198 202/202
f 200/200 199/199 202/202
f 201/201 566/566 567/567
f 568/568 201/201 567/567
f 218/218 206/206 222/222
f 206/206 218/218 205/205
f 222/222 204/204 227/227
f 204/204 222/222 206/206
f 218/218 220/220 219/219
f 220/220 218/218 221/221
f 221/221 216/216 220/220
f 216/216 221/221 217/217
f 210/210 215/215 213/213
f 215/215 210/210 569/569
f 230/230 211/211 570/570
f 211/211 230/230 231/231
f 570/570 212/212 571/571
f 212/212 570/570 211/211
f 213/213 203/203 208/208
f 203/203 213/213 215/215
f 572/572 209/209 223/223
f 209/209 572/572 573/573
f 569/569 214/214 574/574
f 214/214 569/569 210/210
f 224/224 217/217 221/221
f 217/217 224/224 575/575
f 575/575 225/225 576/576
f 225/225 575/575 224/224
f 577/577 208/208 203/203
f 208/208 577/577 226/226
f 207/207 578/578 205/205
f 218/218 224/224 221/221
f 224/224 218/218 222/222
f 224/224 227/227 225/225
f 227/227 224/224 222/222
f 205/205 219/219 207/207
f 219/219 205/205 218/218
f 577/577 223/223 226/226
f 223/223 577/577 572/572
f 206/206 228/228 204/204
f 573/573 229/229 209/209
f 229/229 573/573 579/579
f 212/212 579/579 571/571
f 579/579 212/212 229/229
f 244/244 235/235 234/234
f 235/235 244/244 246/246
f 246/246 233/233 235/235
f 233/233 246/246 251/251
f 244/244 220/220 245/245
f 220/220 244/244 219/219
f 245/245 216/216 243/243
f 216/216 245/245 220/220
f 238/238 242/242 580/580
f 242/242 238/238 241/241
f 230/230 239/239 231/231
f 239/239 230/230 581/581
f 581/581 240/240 239/239
f 240/240 581/581 582/582
f 241/241 232/232 242/242
f 232/232 241/241 236/236
f 583/583 237/237 584/584
f 237/237 583/583 247/247
f 580/580 214/214 238/238
f 214/214 580/580 574/574
f 248/248 243/243 585/585
f 243/243 248/248 245/245
f 585/585 249/249 248/248
f 249/249 585/585 586/586
f 587/587 236/236 250/250
f 236/236 587/587 232/232
f 207/207 234/234 578/578
f 244/244 248/248 246/246
f 248/248 244/244 245/245
f 248/248 251/251 246/246
f 251/251 248/248 249/249
f 234/234 219/219 244/244
f 219/219 234/234 207/207
f 587/587 247/247 583/583
f 247/247 587/587 250/250
f 235/235 233/233 252/252
f 584/584 253/253 588/588
f 253/253 584/584 237/237
f 240/240 588/588 253/253
f 588/588 240/240 582/582
f 255/255 258/258 254/254
f 256/256 589/589 590/590
f 257/257 589/589 591/591
f 592/592 258/258 593/593
f 279/279 282/282 283/283
f 594/594 279/279 275/275
f 278/278 277/277 276/276
f 274/274 276/276 277/277
f 281/281 280/280 277/277
f 282/282 276/276 283/283
f 281/281 595/595 596/596
f 280/280 274/274 277/277
f 596/596 280/280 281/281
f 275/275 597/597 594/594
f 278/278 276/276 282/282
f 279/279 283/283 275/275
f 598/598 599/599 295/295
f 301/301 330/330 287/287
f 286/286 329/329 285/285
f 297/297 285/285 302/302
f 329/329 328/328 298/298
f 284/284 329/329 286/286
f 301/301 309/309 321/321
f 288/288 331/331 301/301
f 300/300 299/299 296/296
f 300/300 296/296 600/600
f 299/299 303/303 298/298
f 322/322 298/298 303/303
f 335/335 334/334 326/326
f 324/324 333/333 332/332
f 322/322 307/307 302/302
f 302/302 298/298 322/322
f 601/601 304/304 316/316
f 303/303 299/299 602/602
f 323/323 307/307 313/313
f 305/305 325/325 306/306
f 324/324 306/306 325/325
f 301/301 310/310 309/309
f 312/312 311/311 303/303
f 322/322 303/303 311/311
f 322/322 311/311 307/307
f 313/313 307/307 311/311
f 313/313 315/315 323/323
f 312/312 303/303 601/601
f 603/603 308/308 318/318
f 317/317 318/318 308/308
f 311/311 312/312 314/314
f 316/316 314/314 312/312
f 311/311 314/314 313/313
f 315/315 313/313 314/314
f 292/292 289/289 320/320
f 604/604 320/320 289/289
f 605/605 319/319 606/606
f 607/607 606/606 319/319
f 318/318 319/319 603/603
f 605/605 603/603 319/319
f 323/323 315/315 608/608
f 291/291 317/317 293/293
f 609/609 293/293 317/317
f 308/308 609/609 317/317
f 316/316 312/312 601/601
f 610/610 293/293 609/609
f 293/293 610/610 327/327
f 611/611 320/320 604/604
f 321/321 309/309 612/612
f 612/612 295/295 321/321
f 289/289 610/610 604/604
f 317/317 291/291 294/294
f 294/294 318/318 317/317
f 319/319 318/318 294/294
f 294/294 290/290 319/319
f 607/607 319/319 290/290
f 290/290 613/613 607/607
f 301/301 321/321 330/330
f 296/296 284/284 614/614
f 331/331 285/285 297/297
f 299/299 298/298 296/296
f 328/328 296/296 298/298
f 600/600 614/614 615/615
f 287/287 288/288 301/301
f 608/608 306/306 324/324
f 302/302 307/307 332/332
f 325/325 616/616 326/326
f 331/331 297/297 310/310
f 284/284 617/617 614/614
f 614/614 600/600 296/296
f 599/599 330/330 321/321
f 295/295 599/599 321/321
f 323/323 608/608 324/324
f 297/297 302/302 332/332
f 310/310 333/333 309/309
f 310/310 297/297 333/333
f 325/325 305/305 616/616
f 334/334 309/309 333/333
f 300/300 602/602 299/299
f 309/309 335/335 612/612
f 327/327 610/610 289/289
f 329/329 284/284 328/328
f 284/284 296/296 328/328
f 298/298 302/302 329/329
f 329/329 302/302 285/285
f 599/599 618/618 330/330
f 287/287 330/330 618/618
f 301/301 331/331 310/310
f 288/288 285/285 331/331
f 332/332 307/307 323/323
f 324/324 332/332 323/323
f 333/333 297/297 332/332
f 333/333 324/324 334/334
f 325/325 334/334 324/324
f 334/334 325/325 326/326
f 309/309 334/334 335/335
f 602/602 601/601 303/303
f 284/284 339/339 619/619
f 286/286 339/339 284/284
f 284/284 619/619 617/617
f 285/285 336/336 286/286
f 336/336 285/285 338/338
f 287/287 340/340 288/288
f 340/340 287/287 337/337
f 620/620 337/337 287/287
f 287/287 618/618 620/620
f 340/340 338/338 285/285
f 285/285 288/288 340/340
f 339/339 286/286 336/336
f 356/356 355/355 621/621
f 355/355 356/356 342/342
f 622/622 343/343 356/356
f 621/621 622/622 356/356
f 342/342 354/354 355/355
f 353/353 623/623 354/354
f 345/345 362/362 365/365
f 362/362 345/345 346/346
f 351/351 624/624 625/625
f 343/343 348/348 342/342
f 348/348 343/343 347/347
f 348/348 346/346 345/345
f 345/345 342/342 348/348
f 364/364 360/360 343/343
f 626/626 627/627 350/350
f 627/627 628/628 349/349
f 349/349 350/350 627/627
f 350/350 629/629 626/626
f 625/625 352/352 351/351
f 630/630 631/631 632/632
f 625/625 633/633 352/352
f 634/634 355/355 635/635
f 625/625 632/632 633/633
f 632/632 631/631 633/633
f 342/342 345/345 354/354
f 344/344 353/353 345/345
f 354/354 623/623 635/635
f 353/353 354/354 345/345
f 355/355 354/354 635/635
f 355/355 634/634 621/621
f 343/343 622/622 341/341
f 356/356 343/343 342/342
f 636/636 637/637 638/638
f 639/639 640/640 641/641
f 363/363 346/346 357/357
f 358/358 359/359 348/348
f 348/348 347/347 358/358
f 348/348 357/357 346/346
f 357/357 348/348 359/359
f 358/358 347/347 361/361
f 360/360 361/361 347/347
f 360/360 347/347 343/343
f 363/363 362/362 346/346
f 345/345 365/365 344/344
f 343/343 341/341 364/364
f 642/642 643/643 379/379
f 369/369 384/384 644/644
f 367/367 382/382 374/374
f 370/370 388/388 371/371
f 645/645 434/434 646/646
f 644/644 384/384 647/647
f 432/432 383/383 391/391
f 377/377 374/374 376/376
f 366/366 376/376 374/374
f 374/374 377/377 373/373
f 383/383 366/366 372/372
f 378/378 390/390 372/372
f 434/434 645/645 404/404
f 373/373 367/367 374/374
f 373/373 369/369 367/367
f 373/373 375/375 369/369
f 378/378 380/380 648/648
f 642/642 649/649 650/650
f 391/391 383/383 390/390
f 649/649 379/379 651/651
f 379/379 643/643 368/368
f 372/372 366/366 380/380
f 379/379 649/649 642/642
f 406/406 367/367 369/369
f 369/369 652/652 406/406
f 645/645 653/653 404/404
f 406/406 652/652 654/654
f 655/655 378/378 648/648
f 374/374 381/381 405/405
f 374/374 382/382 381/381
f 372/372 380/380 378/378
f 374/374 405/405 366/366
f 372/372 390/390 383/383
f 366/366 383/383 376/376
f 433/433 384/384 375/375
f 369/369 375/375 384/384
f 369/369 644/644 652/652
f 656/656 388/388 368/368
f 370/370 432/432 388/388
f 380/380 385/385 657/657
f 657/657 648/648 380/380
f 385/385 380/380 405/405
f 387/387 386/386 381/381
f 381/381 382/382 387/387
f 405/405 381/381 386/386
f 658/658 387/387 382/382
f 382/382 654/654 658/658
f 657/657 385/385 659/659
f 385/385 386/386 659/659
f 386/386 387/387 659/659
f 387/387 658/658 659/659
f 379/379 390/390 651/651
f 656/656 368/368 643/643
f 388/388 656/656 389/389
f 433/433 660/660 434/434
f 389/389 371/371 388/388
f 651/651 378/378 655/655
f 378/378 651/651 390/390
f 391/391 379/379 368/368
f 379/379 391/391 390/390
f 432/432 391/391 368/368
f 399/399 398/398 661/661
f 661/661 433/433 399/399
f 371/371 662/662 370/370
f 400/400 370/370 662/662
f 383/383 400/400 401/401
f 402/402 375/375 373/373
f 383/383 401/401 403/403
f 403/403 376/376 383/383
f 375/375 402/402 399/399
f 376/376 403/403 377/377
f 402/402 377/377 435/435
f 377/377 402/402 373/373
f 662/662 393/393 392/392
f 392/392 400/400 662/662
f 398/398 394/394 663/663
f 394/394 398/398 399/399
f 401/401 392/392 395/395
f 392/392 401/401 400/400
f 401/401 395/395 403/403
f 396/396 403/403 395/395
f 402/402 397/397 394/394
f 394/394 399/399 402/402
f 435/435 403/403 396/396
f 435/435 396/396 397/397
f 400/400 383/383 370/370
f 404/404 653/653 647/647
f 433/433 404/404 384/384
f 647/647 384/384 404/404
f 664/664 389/389 656/656
f 385/385 405/405 386/386
f 405/405 380/380 366/366
f 382/382 406/406 654/654
f 367/367 406/406 382/382
f 394/394 407/407 663/663
f 407/407 394/394 418/418
f 408/408 393/393 665/665
f 393/393 408/408 392/392
f 416/416 409/409 397/397
f 397/397 396/396 416/416
f 416/416 396/396 395/395
f 395/395 410/410 416/416
f 409/409 418/418 394/394
f 394/394 397/397 409/409
f 395/395 392/392 408/408
f 408/408 410/410 395/395
f 430/430 445/445 431/431
f 419/419 421/421 430/430
f 666/666 442/442 426/426
f 426/426 667/667 666/666
f 668/668 425/425 408/408
f 429/429 423/423 428/428
f 423/423 420/420 416/416
f 410/410 408/408 425/425
f 410/410 423/423 416/416
f 440/440 441/441 415/415
f 415/415 417/417 440/440
f 443/443 444/444 430/430
f 430/430 429/429 443/443
f 420/420 430/430 421/421
f 422/422 421/421 419/419
f 665/665 668/668 408/408
f 420/420 409/409 416/416
f 409/409 420/420 422/422
f 419/419 407/407 422/422
f 422/422 418/418 409/409
f 420/420 421/421 422/422
f 407/407 418/418 422/422
f 414/414 443/443 440/440
f 440/440 417/417 414/414
f 423/423 410/410 424/424
f 425/425 424/424 410/410
f 667/667 426/426 425/425
f 427/427 425/425 426/426
f 411/411 413/413 442/442
f 441/441 442/442 413/413
f 413/413 415/415 441/441
f 423/423 424/424 427/427
f 425/425 427/427 424/424
f 429/429 428/428 443/443
f 427/427 428/428 423/423
f 430/430 420/420 429/429
f 420/420 423/423 429/429
f 445/445 430/430 444/444
f 425/425 668/668 667/667
f 430/430 431/431 419/419
f 388/388 432/432 368/368
f 370/370 383/383 432/432
f 399/399 433/433 375/375
f 661/661 660/660 433/433
f 433/433 434/434 404/404
f 660/660 646/646 434/434
f 402/402 435/435 397/397
f 435/435 377/377 403/403
f 436/436 438/438 439/439
f 438/438 436/436 437/437
f 669/669 438/438 437/437
f 438/438 669/669 670/670
f 439/439 671/671 436/436
f 672/672 436/436 671/671
f 427/427 440/440 428/428
f 428/428 440/440 443/443
f 440/440 427/427 441/441
f 426/426 441/441 427/427
f 441/441 426/426 442/442
f 444/444 443/443 414/414
f 414/414 412/412 444/444
f 673/673 445/445 444/444
f 444/444 412/412 673/673
f 442/442 666/666 411/411
f 349/349 628/628 674/674
f 674/674 446/446 349/349
f 624/624 351/351 447/447
f 447/447 675/675 624/624
f 449/449 452/452 448/448
f 450/450 452/452 449/449
f 451/451 676/676 677/677
f 678/678 676/676 451/451
f 454/454 457/457 453/453
f 455/455 457/457 454/454
f 456/456 679/679 680/680
f 681/681 679/679 456/456
f 473/473 477/477 461/461
f 461/461 460/460 473/473
f 477/477 482/482 459/459
f 459/459 461/461 477/477
f 473/473 474/474 475/475
f 475/475 476/476 473/473
f 476/476 475/475 471/471
f 471/471 472/472 476/476
f 465/465 468/468 470/470
f 470/470 682/682 465/465
f 485/485 683/683 466/466
f 466/466 486/486 485/485
f 683/683 684/684 467/467
f 467/467 466/466 683/683
f 468/468 463/463 458/458
f 458/458 470/470 468/468
f 685/685 478/478 464/464
f 464/464 686/686 685/685
f 682/682 687/687 469/469
f 469/469 465/465 682/682
f 479/479 476/476 472/472
f 472/472 688/688 479/479
f 688/688 689/689 480/480
f 480/480 479/479 688/688
f 690/690 458/458 463/463
f 463/463 481/481 690/690
f 462/462 460/460 691/691
f 473/473 476/476 479/479
f 479/479 477/477 473/473
f 479/479 480/480 482/482
f 482/482 477/477 479/479
f 460/460 462/462 474/474
f 474/474 473/473 460/460
f 690/690 481/481 478/478
f 478/478 685/685 690/690
f 461/461 459/459 483/483
f 686/686 464/464 484/484
f 484/484 692/692 686/686
f 467/467 684/684 692/692
f 692/692 484/484 467/467
f 499/499 489/489 490/490
f 490/490 501/501 499/499
f 501/501 490/490 488/488
f 488/488 506/506 501/501
f 499/499 500/500 475/475
f 475/475 474/474 499/499
f 500/500 498/498 471/471
f 471/471 475/475 500/500
f 493/493 693/693 497/497
f 497/497 496/496 493/493
f 485/485 486/486 494/494
f 494/494 694/694 485/485
f 694/694 494/494 495/495
f 495/495 695/695 694/694
f 496/496 497/497 487/487
f 487/487 491/491 496/496
f 696/696 697/697 492/492
f 492/492 502/502 696/696
f 693/693 493/493 469/469
f 469/469 687/687 693/693
f 503/503 698/698 498/498
f 498/498 500/500 503/503
f 698/698 503/503 504/504
f 504/504 699/699 698/698
f 700/700 505/505 491/491
f 491/491 487/487 700/700
f 462/462 691/691 489/489
f 499/499 501/501 503/503
f 503/503 500/500 499/499
f 503/503 501/501 506/506
f 506/506 504/504 503/503
f 489/489 499/499 474/474
f 474/474 462/462 489/489
f 700/700 696/696 502/502
f 502/502 505/505 700/700
f 490/490 507/507 488/488
f 697/697 701/701 508/508
f 508/508 492/492 697/697
f 495/495 508/508 701/701
f 701/701 695/695 495/495
f 510/510 509/509 513/513
f 511/511 702/702 703/703
f 512/512 704/704 703/703
f 705/705 706/706 513/513
