# MOD converted: h_m_costume_kindergarten_item.mod
# 226 verts, 84 faces

v 91.113235 7.700765 18.391891
v 95.129723 7.978769 18.527287
v 96.804817 0.769467 19.106718
v 99.806183 3.473983 16.114382
v 106.789795 -5.003552 18.656216
v 106.789795 -2.299035 13.930404
v 114.557243 -5.272700 17.755169
v 114.557243 -3.897272 11.657310
v 121.884949 -1.953666 15.482074
v 121.884949 -0.578235 9.471113
v 124.867661 5.277987 13.800177
v 123.997742 5.277987 5.549481
v 124.423996 11.066478 9.374247
v 122.685562 11.066477 2.228266
v 118.098022 14.484681 6.053030
v 118.098022 14.484680 14.728117
v 89.707794 13.642301 14.454896
v 93.724281 13.920303 16.869642
v 103.664406 -3.728210 -18.532257
v 91.113235 7.700769 -18.391890
v 95.129723 7.978774 -18.527285
v 96.804817 0.769472 -19.106716
v 99.806183 3.473988 -16.114378
v 106.789795 -5.003548 -18.656214
v 106.789795 -2.299030 -13.930404
v 114.557243 -5.272696 -17.755167
v 114.557243 -3.897267 -11.657309
v 121.884949 -1.953663 -15.482072
v 121.884949 -0.578231 -9.471111
v 124.867661 5.277990 -13.800174
v 123.997742 5.277990 -5.549477
v 124.423996 11.066480 -9.374243
v 122.685562 11.066479 -2.228261
v 118.098022 14.484681 -6.053026
v 118.098022 14.484681 -14.728111
v 89.707794 13.642303 -14.454890
v 93.724281 13.920308 -16.869640
v 103.664406 -3.728206 -0.000002
v 84.589569 28.189531 -0.000004
v 79.827736 13.779802 -0.000003
v 120.007912 19.220160 -0.000002
v 94.872360 29.288143 13.003886
v 81.864380 28.094687 12.788661
v 85.046265 28.189528 15.832181
v 81.864380 27.009964 15.916776
v 86.859116 26.435736 10.613833
v 85.775063 30.335114 9.964610
v 95.286087 29.288141 13.592984
v 105.101921 24.354698 11.354158
v 103.160355 26.699566 8.326558
v 111.176544 25.410980 10.702845
v 112.472969 23.523224 17.133080
v 88.355927 13.750428 17.175196
v 81.635246 13.779799 14.661852
v 106.965614 13.750434 5.878598
v 119.516228 13.750439 11.424019
v 115.904640 13.750432 17.478601
v 81.409431 19.220146 17.444843
v 88.355927 19.220148 14.965260
v 106.965614 19.220158 11.424019
v 115.904640 19.220156 5.878598
v 119.516228 19.220161 5.878598
v 116.084557 23.096542 3.578190
v 119.852264 15.344799 4.740529
v 119.776123 15.344799 3.578190
v 119.852264 17.625793 4.740529
v 119.776115 17.625795 3.003190
v 122.185081 15.771651 4.056626
v 122.668854 15.856950 3.003190
v 121.788994 18.017996 4.056626
v 122.272758 18.103298 2.312024
v 122.998131 15.915013 2.978713
v 123.935806 16.080351 2.312024
v 122.602043 18.161358 2.978714
v 123.539711 18.326696 -0.000002
v 81.022545 28.094692 -12.788665
v 85.046265 28.189531 -13.003890
v 81.864380 28.094690 -15.916781
v 86.859116 26.435738 -15.832187
v 81.864380 27.009966 -0.000002
v 85.318367 30.335115 -9.964614
v 95.286087 29.288143 -10.613836
v 85.775063 30.335117 -11.354162
v 103.160355 26.699570 -13.592989
v 105.101921 24.354700 -0.000002
v 103.160355 26.699572 -0.000002
v 111.072098 25.387327 -8.326563
v 111.176544 25.410984 -10.702850
v 112.472969 23.523226 -17.175205
v 81.635246 13.779803 -17.133091
v 88.355927 13.750432 -14.661859
v 106.965614 13.750438 -5.878605
v 119.516228 13.750441 -0.000004
v 120.007912 13.750440 -11.424027
v 115.904640 13.750436 -17.478609
v 81.409431 19.220152 -0.000003
v 79.601913 19.220150 -17.444849
v 88.355927 19.220154 -14.965263
v 106.965614 19.220161 -11.424024
v 115.904640 19.220160 -5.878603
v 116.084557 23.096544 -5.878604
v 119.516228 19.220161 -0.000003
v 116.472137 23.096546 -4.740536
v 119.776123 15.344800 -3.578197
v 119.852264 15.344800 -3.578197
v 119.852264 17.625795 -4.740535
v 119.776115 17.625797 -4.056633
v 122.668854 15.856952 -3.003196
v 122.185081 15.771651 -3.003196
v 121.788994 18.017998 -4.056633
v 122.272758 18.103300 -2.978719
v 123.935806 16.080351 -2.312030
v 122.998131 15.915014 -2.312031
v 122.602043 18.161358 -2.978720
v 123.539711 18.326696 -0.000003
v 124.573700 16.192827 -0.000003
v 123.429016 15.990989 -0.000003
v 123.032921 18.237333 -0.000003
v 124.177605 18.439173 12.772229
v 80.669563 13.779801 12.997856
v 80.443748 19.220148 -12.772238
v 80.669563 13.779802 -12.997863
v 80.443748 19.220150 -15.524741
v 119.400299 20.081709 -19.459904
v 121.859253 20.081709 -24.088856
v 121.535568 20.081707 -27.643499
v 118.552872 20.081707 -28.766077
v 114.050438 20.081705 -27.027807
v 109.748070 20.081705 -23.092644
v 107.289101 20.081705 -18.463696
v 107.612801 20.081707 -14.909043
v 110.595505 20.081705 -13.786467
v 115.097916 20.081707 -15.524745
v 119.400284 19.263165 -19.459904
v 121.859253 19.263166 -24.088860
v 121.535568 19.263165 -27.643507
v 118.552864 19.263165 -28.766085
v 114.050438 19.263163 -27.027815
v 109.748062 19.263163 -23.092648
v 107.289101 19.263163 -18.463696
v 107.612801 19.263163 -14.909055
v 110.595497 19.263163 -13.786474
v 115.097916 19.263165 -6.819602
v 98.579384 19.643959 -7.375567
v 98.112869 19.983534 -7.931534
v 97.646362 19.643957 -7.375571
v 98.112869 19.304380 -16.447739
v 110.053749 19.643961 -17.003704
v 109.587242 19.983538 -17.559673
v 109.120735 19.643961 -17.003706
v 109.587227 19.304384 -15.260856
v 106.528320 19.679359 -17.429874
v 102.094749 19.679359 -16.015167
v 107.427277 19.679361 -20.317013
v 104.517342 19.679359 -14.950357
v 106.704483 19.692425 -12.771996
v 107.264618 24.085844 -15.787216
v 107.496979 19.471561 -15.309941
v 110.048477 23.969936 15.832181
v 81.864380 27.009964 13.003886
v 81.864380 28.094687 12.772229
v 80.669563 13.779801 -0.000004
v 79.827736 13.779802 17.478601
v 81.409431 19.220146 17.133080
v 88.355927 13.750428 17.175196
v 81.635246 13.779799 14.661852
v 106.965614 13.750434 11.424019
v 115.904640 13.750432 5.878598
v 119.516228 13.750439 -0.000004
v 120.007912 13.750440 4.740529
v 119.776123 15.344799 3.578190
v 119.852264 15.344799 3.578190
v 119.852264 17.625793 3.578190
v 119.852264 17.625793 3.003190
v 121.788994 18.017996 4.740529
v 119.776115 17.625795 4.056626
v 122.668854 15.856950 4.740529
v 119.776123 15.344799 2.312024
v 122.602043 18.161358 2.978713
v 123.935806 16.080351 -0.000003
v 123.032921 18.237333 -0.000003
v 124.573700 16.192827 -0.000002
v 81.022545 28.094692 -0.000002
v 84.589569 28.189531 -0.000002
v 85.318367 30.335115 -0.000002
v 94.872360 29.288143 -0.000002
v 103.160355 26.699572 -0.000002
v 111.072098 25.387327 -0.000003
v 79.601913 19.220150 -13.003890
v 81.864380 28.094690 -0.000002
v 81.022545 28.094692 -12.772238
v 80.669563 13.779802 -0.000004
v 79.827736 13.779802 -17.133091
v 88.355927 13.750432 -17.175205
v 81.635246 13.779803 -14.661859
v 106.965614 13.750438 -11.424027
v 115.904640 13.750436 -0.000003
v 116.472137 23.096546 -0.000003
v 120.007912 19.220160 -5.878605
v 119.516228 13.750441 -0.000004
v 120.007912 13.750440 -4.740536
v 119.776123 15.344800 -3.578197
v 119.852264 15.344800 -3.578197
v 119.852264 17.625795 -3.578197
v 119.852264 17.625795 -4.740535
v 119.776115 17.625797 -3.003196
v 121.788994 18.017998 -4.056633
v 122.668854 15.856952 -4.740536
v 119.776123 15.344800 -2.312031
v 122.602043 18.161358 -2.978719
v 123.935806 16.080351 -0.000003
v 123.429016 15.990989 -0.000003
v 124.573700 16.192827 -0.000003
v 123.032921 18.237333 -0.000003
v 124.177605 18.439173 -0.000003
v 123.032921 18.237333 -0.000003
v 124.573700 16.192827 17.175196
v 81.635246 13.779799 -17.175205
v 81.635246 13.779803 -17.478609
v 81.409431 19.220152 -15.832187
v 81.864380 27.009966 -0.000002
v 81.022545 28.094692 -7.931534
v 97.646362 19.643957 -6.819602
v 98.579384 19.643959 -7.375567
v 98.112869 19.983534 -7.375571
v 98.112869 19.304380 0.934706

vt 0.118126 0.007282
vt 0.150763 0.065294
vt 0.250440 0.007282
vt 0.251478 0.065294
vt 0.403223 0.007282
vt 0.389332 0.065294
vt 0.527569 0.007282
vt 0.513788 0.065294
vt 0.653484 0.007282
vt 0.640323 0.065294
vt 0.768885 0.007282
vt 0.753077 0.065294
vt 0.886908 0.007282
vt 0.865831 0.065294
vt 0.979639 0.007282
vt 0.952240 0.065294
vt 0.020120 0.007282
vt 0.049595 0.065294
vt 0.364307 0.065294
vt 0.118126 0.007282
vt 0.150763 0.065294
vt 0.250440 0.007282
vt 0.251478 0.065294
vt 0.403223 0.007282
vt 0.389332 0.065294
vt 0.527569 0.007282
vt 0.513788 0.065294
vt 0.653484 0.007282
vt 0.640323 0.065294
vt 0.768885 0.007282
vt 0.753077 0.065294
vt 0.886908 0.007282
vt 0.865831 0.065294
vt 0.979639 0.007282
vt 0.952240 0.065294
vt 0.020120 0.007282
vt 0.049595 0.065294
vt 0.364307 0.392226
vt 0.031623 0.706824
vt 0.358638 0.433100
vt 0.321951 0.392226
vt 0.109339 0.494947
vt 0.010210 0.495042
vt 0.032789 0.539753
vt 0.014918 0.533663
vt 0.049659 0.473877
vt 0.041533 0.468332
vt 0.109196 0.508238
vt 0.181490 0.484051
vt 0.166404 0.464896
vt 0.225593 0.488713
vt 0.234501 0.663191
vt 0.468150 0.706054
vt 0.471558 0.562506
vt 0.456208 0.492746
vt 0.403158 0.511089
vt 0.434137 0.654961
vt 0.212894 0.582097
vt 0.071167 0.546907
vt 0.204148 0.513109
vt 0.266112 0.474507
vt 0.298811 0.444143
vt 0.266689 0.480596
vt 0.327958 0.489648
vt 0.323255 0.466935
vt 0.315821 0.475537
vt 0.311762 0.271297
vt 0.508456 0.269219
vt 0.484499 0.271868
vt 0.548679 0.137976
vt 0.508456 0.295738
vt 0.508456 0.295820
vt 0.484499 0.292930
vt 0.548679 0.162376
vt 0.508456 0.392226
vt 0.009361 0.289409
vt 0.032789 0.289505
vt 0.010210 0.250749
vt 0.048756 0.244699
vt 0.014918 0.392226
vt 0.039217 0.316119
vt 0.109196 0.310574
vt 0.041533 0.300400
vt 0.166404 0.276214
vt 0.181490 0.392226
vt 0.167177 0.392226
vt 0.224440 0.319556
vt 0.225593 0.295739
vt 0.234501 0.706054
vt 0.471558 0.663191
vt 0.468150 0.562506
vt 0.456208 0.492746
vt 0.403158 0.488808
vt 0.358246 0.511089
vt 0.434137 0.189193
vt 0.022011 0.654976
vt 0.339827 0.202350
vt 0.071171 0.237544
vt 0.204148 0.271342
vt 0.266112 0.340308
vt 0.266689 0.309945
vt 0.298811 0.392226
vt 0.272569 0.294803
vt 0.323255 0.303856
vt 0.327958 0.317517
vt 0.315821 0.308915
vt 0.311762 0.269219
vt 0.484499 0.271297
vt 0.508456 0.271868
vt 0.548679 0.137976
vt 0.508456 0.295820
vt 0.484499 0.295738
vt 0.508456 0.292930
vt 0.548679 0.162376
vt 0.508456 0.351687
vt 0.484499 0.343308
vt 0.508456 0.338750
vt 0.548679 0.209923
vt 0.508456 0.706394
vt 0.442610 0.654885
vt 0.244494 0.706394
vt 0.442610 0.654885
vt 0.245081 0.461174
vt 0.399239 0.448361
vt 0.440703 0.414816
vt 0.466329 0.373352
vt 0.466329 0.339808
vt 0.440703 0.326994
vt 0.399239 0.339808
vt 0.357775 0.373352
vt 0.332149 0.414816
vt 0.332149 0.448361
vt 0.357775 0.461174
vt 0.399239 0.448361
vt 0.440703 0.414816
vt 0.466329 0.373352
vt 0.466329 0.339808
vt 0.440703 0.326994
vt 0.399239 0.339808
vt 0.357775 0.373352
vt 0.332149 0.414816
vt 0.332149 0.448361
vt 0.357775 0.093319
vt 0.024576 0.107813
vt 0.024576 0.122307
vt 0.024576 0.107813
vt 0.024576 0.093319
vt 0.287854 0.107813
vt 0.287854 0.122307
vt 0.287854 0.107813
vt 0.287854 0.670923
vt 0.093980 0.695752
vt 0.182091 0.647977
vt 0.089934 0.621100
vt 0.181075 0.670923
vt 0.093980 0.695752
vt 0.182091 0.647977
vt 0.089934 0.621100
vt 0.181075 0.599182
vt 0.226524 0.595757
vt 0.244665 0.690307
vt 0.246953 0.690461
vt 0.339337 0.595366
vt 0.022039 0.627572
vt 0.081413 0.640733
vt 0.033420 0.590079
vt 0.218266 0.550814
vt 0.286965 0.507443
vt 0.326087 0.465624
vt 0.353610 0.213194
vt 0.484499 0.222032
vt 0.508456 0.228388
vt 0.548679 0.107194
vt 0.484499 0.141660
vt 0.484499 0.096978
vt 0.508456 0.134214
vt 0.548679 0.084307
vt 0.548679 0.162524
vt 0.484499 0.164285
vt 0.548679 0.201966
vt 0.484499 0.215239
vt 0.548679 0.392197
vt 0.009361 0.392226
vt 0.031623 0.392226
vt 0.039217 0.392226
vt 0.109339 0.392226
vt 0.167177 0.392226
vt 0.224440 0.654976
vt 0.339336 0.595757
vt 0.244665 0.596623
vt 0.339336 0.690315
vt 0.244725 0.690464
vt 0.341239 0.156868
vt 0.081371 0.143542
vt 0.033457 0.194373
vt 0.218266 0.233638
vt 0.286965 0.392226
vt 0.272569 0.351351
vt 0.321951 0.277008
vt 0.326087 0.318827
vt 0.353610 0.213194
vt 0.484499 0.222032
vt 0.508456 0.228388
vt 0.548679 0.107194
vt 0.484499 0.096978
vt 0.508456 0.141660
vt 0.484499 0.134214
vt 0.548679 0.084307
vt 0.548679 0.162524
vt 0.484499 0.164285
vt 0.548679 0.343308
vt 0.508456 0.351687
vt 0.484499 0.338750
vt 0.548679 0.209923
vt 0.508456 0.201966
vt 0.484499 0.215239
vt 0.548679 0.690942
vt 0.213296 0.690968
vt 0.215210 0.654956
vt 0.212259 0.599182
vt 0.226524 0.596623
vt 0.339335 0.158733
vt 0.210965 0.158733
vt 0.253270 0.178323
vt 0.232117 0.139142
vt 0.232117 1.000000

f 63/63 61/61 62/62
f 61/61 63/63 52/52
f 103/103 62/62 41/41
f 62/62 103/103 63/63
f 61/61 169/169 62/62
f 169/169 61/61 168/168
f 169/169 64/64 65/65
f 64/64 169/169 170/170
f 170/170 66/66 64/64
f 66/66 170/170 41/41
f 62/62 66/66 41/41
f 66/66 62/62 67/67
f 62/62 65/65 67/67
f 65/65 62/62 169/169
f 171/171 68/68 69/69
f 68/68 171/171 172/172
f 172/172 70/70 68/68
f 70/70 172/172 173/173
f 174/174 71/71 175/175
f 71/71 174/174 176/176
f 176/176 177/177 71/71
f 177/177 176/176 178/178
f 69/69 72/72 73/73
f 72/72 69/69 68/68
f 68/68 74/74 72/72
f 74/74 68/68 70/70
f 175/175 75/75 179/179
f 75/75 175/175 71/71
f 71/71 180/180 75/75
f 180/180 71/71 177/177
f 73/73 117/117 116/116
f 117/117 73/73 72/72
f 72/72 118/118 117/117
f 118/118 72/72 74/74
f 179/179 119/119 181/181
f 119/119 179/179 75/75
f 75/75 182/182 119/119
f 182/182 75/75 180/180
f 100/100 101/101 102/102
f 101/101 100/100 89/89
f 102/102 198/198 199/199
f 198/198 102/102 101/101
f 100/100 200/200 197/197
f 200/200 100/100 102/102
f 200/200 105/105 201/201
f 105/105 200/200 104/104
f 201/201 106/106 199/199
f 106/106 201/201 105/105
f 102/102 106/106 107/107
f 106/106 102/102 199/199
f 102/102 104/104 200/200
f 104/104 102/102 107/107
f 202/202 109/109 203/203
f 109/109 202/202 108/108
f 203/203 110/110 204/204
f 110/110 203/203 109/109
f 205/205 111/111 206/206
f 111/111 205/205 207/207
f 206/206 208/208 209/209
f 208/208 206/206 111/111
f 108/108 113/113 109/109
f 113/113 108/108 112/112
f 109/109 114/114 110/110
f 114/114 109/109 113/113
f 207/207 115/115 111/111
f 115/115 207/207 210/210
f 111/111 211/211 208/208
f 211/211 111/111 115/115
f 112/112 212/212 113/113
f 212/212 112/112 213/213
f 113/113 214/214 114/114
f 214/214 113/113 212/212
f 210/210 215/215 115/115
f 215/215 210/210 216/216
f 115/115 217/217 211/211
f 217/217 115/115 215/215
f 160/160 161/161 97/97
f 97/97 163/163 189/189
f 189/189 123/123 121/121
f 121/121 162/162 219/219
f 219/219 192/192 123/123
f 123/123 190/190 161/161
f 1/1 164/164 46/46
f 45/45 46/46 164/164
