# MOD converted: h_m_costume_maid_hair_lod0.mod
# 229 verts, 151 faces

v 164.105682 -21.129705 18.170753
v 161.159744 -12.463320 -0.000003
v 188.663696 5.468102 4.371490
v 187.449814 9.933046 -0.000008
v 177.408875 27.825994 0.000002
v 186.355652 -8.350274 12.677177
v 183.628571 -1.359641 16.773127
v 181.240753 11.269194 11.098332
v 177.560638 23.839439 14.914810
v 178.671783 -14.601664 22.499249
v 176.201904 -3.100131 24.022207
v 171.103455 12.025236 17.606989
v 165.181702 26.093887 16.745850
v 170.084167 -19.581455 27.134304
v 167.237885 -4.337807 27.554512
v 162.789032 10.373631 -0.000001
v 158.549622 -19.635071 24.199465
v 156.893829 6.867637 15.869244
v 155.132858 22.778595 22.614540
v 159.187134 -4.009150 10.708707
v 158.006104 -24.857807 19.729258
v 155.748734 -12.705093 -0.000001
v 164.593567 -22.265675 0.000009
v 159.041458 -27.438026 -0.000004
v 186.250916 14.396405 -0.000004
v 186.415894 9.390768 -0.000007
v 163.824829 32.019993 -0.000007
v 155.668518 28.901600 -8.451669
v 164.105682 -21.129704 -18.170738
v 161.159714 -12.463336 -0.000003
v 189.663376 10.726589 -4.371495
v 187.449814 9.933046 -0.000003
v 182.151474 8.669016 -12.677176
v 183.628540 -1.359633 -16.773127
v 181.240692 11.269208 -11.098350
v 177.560608 23.839436 -14.914804
v 178.671722 -14.601671 -22.499243
v 176.201843 -3.100121 -24.022219
v 171.103363 12.025240 -17.606997
v 165.181625 26.093895 0.000011
v 171.784256 -24.422874 -16.745831
v 170.084122 -19.581461 -27.134293
v 167.237793 -4.337787 -27.554525
v 162.788940 10.373619 -24.199448
v 156.893738 6.867648 -15.869258
v 155.132782 22.778593 -22.614532
v 159.187073 -4.009142 -10.708692
v 158.006088 -24.857807 -19.729242
v 155.748688 -12.705095 0.000004
v 180.175873 -20.169239 21.226934
v 150.287827 -5.300728 22.882984
v 152.020264 -2.349596 23.544056
v 152.942932 0.221677 25.301714
v 147.404053 2.849226 18.458021
v 154.112854 -11.166590 21.126181
v 157.376251 -6.247754 23.348572
v 158.053864 -1.028152 0.178905
v 174.724121 -16.331696 16.048885
v 170.089630 -10.566673 9.765427
v 173.885254 -14.595872 19.313368
v 160.115967 -5.828218 16.448633
v 172.482544 -1.721282 -9.408090
v 172.893433 -14.457815 -20.163626
v 162.588989 -5.822170 -18.866768
v 165.004578 12.052774 -20.263802
v 164.204346 0.117416 3.442403
v 157.421753 -17.818117 -5.909996
v 165.577545 -19.785959 -10.647903
v 159.963013 -14.809742 -2.169073
v 154.512939 -20.378780 3.823161
v 151.940765 -18.039288 -6.262174
v 152.816803 -16.770081 4.915532
v 142.515182 -16.205441 -0.269336
v 146.041626 -17.634485 11.882544
v 160.009705 -14.950502 7.600077
v 152.533340 -17.525747 11.436038
v 151.712341 -17.353069 13.899735
v 151.087021 -15.184258 13.417335
v 144.251831 -13.803245 20.297785
v 150.742264 -10.937699 20.196877
v 151.062103 -5.459574 15.888260
v 142.144119 -9.547409 19.597374
v 142.197006 -7.915875 19.645620
v 143.511993 -4.490171 17.483891
v 134.544159 -2.219324 -19.521017
v 156.287018 -7.682998 -19.518316
v 146.556885 -10.109804 -20.891228
v 156.497116 1.309549 -20.460224
v 150.015411 -0.158854 -19.252182
v 150.082825 -6.651461 -22.614531
v 159.187073 -4.009179 -20.722763
v 150.047989 -3.367196 -18.597546
v 142.829483 -3.657376 -24.199448
v 156.893768 6.867616 -24.413570
v 153.119675 9.619663 -23.018330
v 152.430389 5.855593 -21.526300
v 155.935608 12.424400 -23.760168
v 147.895508 13.886557 -0.971416
v 167.177460 -21.567501 4.059803
v 165.410614 -18.842770 2.442171
v 158.965973 -20.255213 5.498873
v 159.870285 -17.726398 -0.803012
v 157.800003 -18.772596 7.497247
v 151.010895 -19.383144 9.362189
v 159.170013 -16.509630 13.147558
v 159.916367 -16.530720 15.785428
v 160.844437 -13.201767 18.865530
v 150.759354 -12.888908 18.350052
v 164.926010 -1.746633 18.458021
v 154.112854 -11.166590 21.126181
v 157.376251 -6.247754 23.348572
v 158.053864 -1.028152 13.245825
v 160.115997 -11.293272 13.823544
v 151.062103 -10.910323 15.750807
v 143.512009 -9.919707 0.178905
v 174.724121 -16.331696 9.765427
v 173.885254 -14.595872 8.644322
v 161.644302 -18.144583 8.816301
v 166.515030 -16.566128 13.715440
v 167.832245 -13.411494 19.360624
v 162.936508 -8.829226 18.238787
v 160.183914 -11.560995 -17.959450
v 158.889893 -13.185515 -23.326437
v 158.104004 1.083044 -0.000007
v 155.668518 28.901600 -0.016819
v 141.600967 26.691717 14.616279
v 156.468674 -8.264717 15.869244
v 155.132858 22.778595 21.418198
v 152.999252 -3.412391 18.252272
v 147.033447 1.399926 15.228930
v 148.940353 -6.151434 21.682583
v 144.487488 12.928800 12.616305
v 142.679764 22.380167 22.614540
v 159.187134 -4.009150 15.545464
v 137.513275 -2.003314 18.186607
v 144.905136 -2.118790 24.199465
v 156.893829 6.867637 17.075148
v 141.786499 5.783302 0.033776
v 133.224594 6.855072 10.469336
v 135.486557 6.711120 7.644593
v 122.803322 11.124175 17.346989
v 132.848389 11.676702 -0.097933
v 127.660538 11.636211 9.929709
v 131.969208 19.767576 5.128668
v 122.564896 19.476564 -0.079175
v 132.008194 22.100401 -0.102535
v 126.161194 16.127417 13.483376
v 124.750572 15.214081 -14.210461
v 156.468674 -8.264723 -24.199448
v 156.893768 6.867616 -15.869258
v 155.132782 22.778593 -19.964296
v 152.999222 -3.412405 -18.252256
v 147.033447 1.399940 -15.097348
v 148.940353 -6.151441 -21.637447
v 144.487442 12.928798 -12.623475
v 142.679764 23.144960 -15.860931
v 137.513229 -2.003309 -18.144400
v 144.905136 -2.118799 -21.560429
v 158.360352 1.312625 -17.075130
v 141.786499 5.783309 -10.469322
v 135.486557 6.711120 -8.341975
v 122.793709 11.129097 -17.490080
v 132.848343 11.676702 -10.086646
v 131.969177 19.767559 -3.826671
v 121.064407 19.503994 -13.694750
v 124.750534 15.214072 17.346989
v 132.848389 11.676702 9.929709
v 131.969208 19.767576 -10.086646
v 131.969177 19.767559 -17.490080
v 132.848343 11.676702 19.313368
v 160.115967 -5.828191 -20.163626
v 162.588989 -5.822148 10.708707
v 158.006104 -24.857807 0.000009
v 159.041458 -27.438026 8.451676
v 164.105682 -21.129705 -0.000001
v 164.593567 -22.265675 18.170753
v 161.159744 -12.463320 22.614540
v 159.187134 -4.009150 19.729258
v 155.748734 -12.705093 -0.000001
v 164.593567 -22.265675 0.000009
v 159.041458 -27.438026 -10.708692
v 158.006088 -24.857807 0.000009
v 159.041458 -27.438026 -0.000001
v 158.549622 -19.635071 -0.000003
v 189.663376 10.726589 -0.000003
v 188.663696 5.468102 -0.000004
v 186.250916 14.396405 -0.000003
v 182.151474 8.669016 -0.000004
v 186.415894 9.390768 0.000002
v 186.355652 -8.350274 -0.000008
v 177.408875 27.825994 0.000004
v 180.175873 -20.169239 -0.000007
v 163.824829 32.019993 0.000011
v 171.784256 -24.422874 -0.000001
v 164.593567 -22.265675 -8.451669
v 164.105682 -21.129704 -18.170738
v 161.159714 -12.463336 -22.614532
v 159.187073 -4.009142 -0.000007
v 155.668518 28.901600 -19.729242
v 155.748688 -12.705095 3.442403
v 157.421753 -17.818117 0.178905
v 174.724121 -16.331696 -9.408090
v 172.893433 -14.457815 -5.909996
v 165.577545 -19.785959 24.199465
v 156.893829 6.867637 19.313368
v 160.115967 -5.828191 21.418198
v 152.999252 -3.412391 24.199465
v 156.893829 6.867637 18.252272
v 147.033447 1.399926 9.929709
v 131.969208 19.767576 17.346989
v 132.848389 11.676702 7.644593
v 122.803322 11.124175 -0.097933
v 127.660538 11.636211 5.128668
v 122.564896 19.476564 -0.102535
v 126.161194 16.127417 -0.000007
v 155.668518 28.901600 -0.016819
v 141.600967 26.691717 -21.560429
v 158.360352 1.312625 -18.252256
v 147.033447 1.399940 -0.097933
v 127.660538 11.636211 0.033776
v 133.224594 6.855072 -0.079175
v 132.008194 22.100401 -10.086646
v 131.969177 19.767559 -8.341975
v 122.793709 11.129097 -17.490080
v 132.848343 11.676702 -0.097933
v 127.660538 11.636211 -0.102535
v 126.161194 16.127417 -3.826671
v 121.064407 19.503994 -0.102535
v 126.161194 16.127417 0.540256

vt 0.565661 0.280942
vt 0.508972 0.158557
vt 0.442076 0.082276
vt 0.421152 0.096391
vt 0.851679 0.427531
vt 0.967923 0.373564
vt 0.862181 0.280985
vt 0.811734 0.179732
vt 0.798921 0.481678
vt 0.821599 0.393332
vt 0.756487 0.282183
vt 0.708365 0.159974
vt 0.692211 0.529744
vt 0.756564 0.409263
vt 0.675578 0.298646
vt 0.638435 0.096501
vt 0.910215 0.325961
vt 0.580353 0.155006
vt 0.603409 0.145795
vt 0.481274 0.486720
vt 0.462179 0.273931
vt 0.428731 0.562406
vt 0.626780 0.622566
vt 0.536774 0.013467
vt 0.402952 0.254329
vt 0.953826 0.022994
vt 0.736204 0.012038
vt 0.656512 0.459744
vt 0.565661 0.280942
vt 0.508972 0.073104
vt 0.458419 0.082276
vt 0.421152 0.106540
vt 0.336167 0.373564
vt 0.862181 0.280985
vt 0.811734 0.179732
vt 0.798921 0.481678
vt 0.821599 0.393332
vt 0.756487 0.282183
vt 0.708365 0.159974
vt 0.692211 0.628552
vt 0.856019 0.529744
vt 0.756564 0.409263
vt 0.675578 0.298646
vt 0.638435 0.325961
vt 0.580353 0.155006
vt 0.603409 0.145795
vt 0.481274 0.486720
vt 0.462179 0.273931
vt 0.428731 0.555379
vt 0.923324 0.696698
vt 0.856562 0.676274
vt 0.885487 0.658110
vt 0.907180 0.640166
vt 0.875122 0.750399
vt 0.857178 0.711895
vt 0.901319 0.689635
vt 0.936066 0.241398
vt 0.379743 0.782684
vt 0.927224 0.158525
vt 0.370901 0.042833
vt 0.283510 0.771332
vt 0.997405 0.431312
vt 0.261094 0.532066
vt 0.207578 0.626200
vt 0.284395 0.570581
vt 0.244276 0.229499
vt 0.288183 0.370365
vt 0.210813 0.431160
vt 0.177199 0.346590
vt 0.121131 0.297861
vt 0.118398 0.398663
vt 0.117185 0.296947
vt 0.021028 0.356342
vt 0.058847 0.141118
vt 0.284308 0.197410
vt 0.232975 0.166746
vt 0.228670 0.132801
vt 0.221966 0.139374
vt 0.166380 0.079796
vt 0.221842 0.037971
vt 0.220492 0.098806
vt 0.158763 0.070555
vt 0.160365 0.043246
vt 0.168801 0.063189
vt 0.098498 0.526071
vt 0.167189 0.500151
vt 0.092991 0.596545
vt 0.199729 0.605712
vt 0.155884 0.558905
vt 0.134599 0.560523
vt 0.183668 0.581734
vt 0.145460 0.607409
vt 0.103703 0.617465
vt 0.231833 0.653666
vt 0.222321 0.637376
vt 0.197499 0.660331
vt 0.245997 0.705306
vt 0.214424 0.937020
vt 0.872483 0.895232
vt 0.877318 0.916180
vt 0.821947 0.892614
vt 0.839503 0.936146
vt 0.818479 0.895518
vt 0.783962 0.863236
vt 0.836723 0.829850
vt 0.841660 0.791947
vt 0.866368 0.794343
vt 0.793262 0.727500
vt 0.967542 0.750399
vt 0.857178 0.711895
vt 0.901319 0.689635
vt 0.936066 0.042833
vt 0.283510 0.037971
vt 0.220492 0.043246
vt 0.168801 0.925235
vt 0.938256 0.841642
vt 0.941452 0.187076
vt 0.298081 0.854835
vt 0.881629 0.811186
vt 0.903139 0.753744
vt 0.916970 0.087684
vt 0.285462 0.494942
vt 0.174706 0.591612
vt 0.208193 0.633384
vt 0.632638 0.654732
vt 0.530607 0.835900
vt 0.196618 0.749696
vt 0.631353 0.898690
vt 0.046453 0.958050
vt 0.556569 0.801753
vt 0.123971 0.865393
vt 0.537064 0.754506
vt 0.530666 0.866182
vt 0.148381 0.766295
vt 0.015026 0.758191
vt 0.085600 0.967390
vt 0.635583 0.919884
vt 0.498699 0.991056
vt 0.427459 0.935052
vt 0.441439 0.889628
vt 0.352926 0.855681
vt 0.426791 0.944076
vt 0.330936 0.772547
vt 0.431859 0.765335
vt 0.348721 0.689290
vt 0.432490 0.104656
vt 0.075526 0.808562
vt 0.359372 0.835900
vt 0.196618 0.871406
vt 0.630490 0.749696
vt 0.631353 0.758288
vt 0.161668 0.958050
vt 0.556569 0.801753
vt 0.123971 0.865393
vt 0.537064 0.754506
vt 0.530666 0.766295
vt 0.015026 0.758191
vt 0.085600 0.967390
vt 0.635583 0.919884
vt 0.498699 0.935052
vt 0.441439 0.889628
vt 0.352926 0.855681
vt 0.426791 0.772547
vt 0.431859 0.765335
vt 0.348721 0.808562
vt 0.359372 0.855681
vt 0.426791 0.772547
vt 0.431859 0.772547
vt 0.431859 0.855681
vt 0.426791 0.920978
vt 0.117979 0.781699
vt 0.242879 0.095243
vt 0.960144 0.125343
vt 0.925676 0.604387
vt 0.750972 0.662391
vt 0.795827 0.521254
vt 0.659712 0.436996
vt 0.607617 0.032365
vt 0.970779 0.562406
vt 0.626780 0.622566
vt 0.536774 0.095243
vt 0.960144 0.125343
vt 0.925676 0.096501
vt 0.910215 0.073104
vt 0.458419 0.158557
vt 0.442076 0.013467
vt 0.402952 0.106540
vt 0.336167 0.254329
vt 0.953826 0.427531
vt 0.967923 0.096391
vt 0.851679 0.555379
vt 0.923324 0.022994
vt 0.736204 0.628552
vt 0.856019 0.662391
vt 0.795827 0.604387
vt 0.750972 0.521254
vt 0.659712 0.436996
vt 0.607617 0.012038
vt 0.656512 0.032365
vt 0.970779 0.296844
vt 0.162055 0.309059
vt 0.280225 0.986958
vt 0.927989 0.974174
vt 0.868947 0.856829
vt 0.058417 0.781699
vt 0.242879 0.758288
vt 0.161668 0.714923
vt 0.162115 0.718893
vt 0.085981 0.193529
vt 0.129650 0.252272
vt 0.107270 0.182269
vt 0.039272 0.104848
vt 0.016078 0.109686
vt 0.133386 0.684922
vt 0.348684 0.633384
vt 0.632638 0.654732
vt 0.530607 0.714923
vt 0.162115 0.718893
vt 0.085981 0.944076
vt 0.330936 0.991056
vt 0.427459 0.689290
vt 0.432490 0.193529
vt 0.129650 0.182269
vt 0.039272 0.252272
vt 0.107270 0.104848
vt 0.016078 0.104656
vt 0.075526 0.109686
vt 0.133386 0.684922
vt 0.348684 1.000000

f 51/51 56/56 55/55
f 56/56 51/51 52/52
f 52/52 57/57 56/56
f 57/57 52/52 53/53
f 52/52 51/51 54/54
f 53/53 52/52 54/54
f 99/99 100/100 116/116
f 99/99 203/203 204/204
f 101/101 100/100 99/99
f 100/100 101/101 102/102
f 103/103 99/99 204/204
f 99/99 103/103 101/101
f 102/102 101/101 104/104
f 101/101 103/103 104/104
f 100/100 119/119 116/116
f 106/106 100/100 105/105
f 100/100 106/106 119/119
f 106/106 120/120 119/119
f 120/120 106/106 107/107
f 117/117 119/119 120/120
f 106/106 105/105 108/108
f 107/107 106/106 108/108
f 120/120 121/121 59/59
f 121/121 120/120 107/107
f 62/62 121/121 109/109
f 110/110 121/121 107/107
f 121/121 110/110 111/111
f 111/111 109/109 121/121
f 109/109 111/111 112/112
f 1/1 24/24 21/21
f 21/21 1/1 173/173
f 17/17 174/174 2/2
f 20/20 22/22 31/31
f 4/4 3/3 31/31
f 25/25 4/4 33/33
f 3/3 4/4 26/26
f 7/7 6/6 26/26
f 8/8 7/7 26/26
f 9/9 8/8 26/26
f 5/5 9/9 50/50
f 6/6 10/10 7/7
f 13/13 12/12 27/27
f 27/27 13/13 50/50
f 10/10 14/14 41/41
f 175/175 176/176 10/10
f 177/177 175/175 15/15
f 12/12 16/16 15/15
f 18/18 178/178 16/16
f 12/12 13/13 16/16
f 13/13 27/27 14/14
f 175/175 41/41 15/15
f 177/177 14/14 41/41
f 50/50 14/14 16/16
f 18/18 15/15 14/14
f 11/11 15/15 13/13
f 19/19 16/16 15/15
f 11/11 12/12 15/15
f 178/178 177/177 6/6
f 7/7 10/10 27/27
f 28/28 19/19 179/179
f 17/17 173/173 180/180
f 181/181 29/29 48/48
f 29/29 48/48 182/182
f 183/183 184/184 30/30
f 49/49 47/47 185/185
f 186/186 32/32 185/185
f 32/32 187/187 188/188
f 32/32 186/186 189/189
f 190/190 34/34 189/189
f 34/34 35/35 189/189
f 35/35 36/36 189/189
f 36/36 191/191 192/192
f 37/37 190/190 34/34
f 39/39 40/40 193/193
f 40/40 193/193 192/192
f 42/42 37/37 194/194
f 195/195 196/196 37/37
f 196/196 197/197 43/43
f 44/44 39/39 43/43
f 198/198 45/45 44/44
f 40/40 39/39 44/44
f 193/193 40/40 42/42
f 194/194 196/196 43/43
f 42/42 197/197 194/194
f 42/42 192/192 44/44
f 43/43 45/45 42/42
f 43/43 38/38 40/40
f 44/44 46/46 43/43
f 39/39 38/38 43/43
f 197/197 198/198 190/190
f 37/37 34/34 193/193
f 46/46 199/199 200/200
f 182/182 184/184 58/58
f 67/67 118/118 201/201
f 202/202 68/68 69/69
f 68/68 63/63 201/201
f 68/68 69/69 71/71
f 72/72 74/74 60/60
f 118/118 67/67 75/75
f 75/75 118/118 77/77
f 76/76 79/79 78/78
f 77/77 79/79 78/78
f 80/80 81/81 83/83
f 82/82 85/85 84/84
f 83/83 85/85 123/123
f 64/64 86/86 69/69
f 86/86 87/87 123/123
f 69/69 63/63 86/86
f 124/124 88/88 92/92
f 92/92 90/90 91/91
f 91/91 88/88 90/90
f 89/89 93/93 88/88
f 124/124 94/94 95/95
f 95/95 96/96 97/97
f 97/97 95/95 96/96
f 97/97 98/98 81/81
f 81/81 114/114 84/84
f 84/84 115/115 85/85
f 115/115 84/84 94/94
f 91/91 66/66 132/132
f 132/132 133/133 125/125
f 125/125 128/128 132/132
f 137/137 130/130 134/134
f 134/134 171/171 131/131
f 131/131 207/207 136/136
f 136/136 209/209 131/131
f 136/136 207/207 131/131
f 135/135 209/209 141/141
f 141/141 142/142 143/143
f 143/143 141/141 132/132
f 132/132 142/142 133/133
f 145/145 146/146 210/210
f 211/211 212/212 213/213
f 214/214 210/210 167/167
f 148/148 168/168 145/145
f 215/215 146/146 151/151
f 156/156 151/151 155/155
f 153/153 159/159 172/172
f 172/172 152/152 218/218
f 218/218 219/219 154/154
f 152/152 158/158 154/154
f 219/219 157/157 159/159
f 150/150 155/155 160/160
f 160/160 163/163 161/161
f 161/161 162/162 155/155
f 155/155 163/163 164/164
f 164/164 163/163 222/222
f 222/222 165/165 223/223
f 224/224 225/225 223/223
f 223/223 228/228 170/170
f 169/169 166/166 165/165
