# MOD converted: h_w_clothrobe019.mod
# 638 verts, 547 faces

v 107.017418 8.511114 15.923398
v 107.185921 -2.698772 19.223150
v 113.696434 -0.591369 23.096893
v 104.156914 7.535332 8.776220
v 112.770912 -1.120227 7.854371
v 112.674446 8.158720 5.118863
v 107.738953 10.357096 8.654240
v 114.438713 3.952705 8.571177
v 108.564911 9.297251 12.227818
v 114.309570 -1.667408 12.609779
v 116.149376 3.353142 11.940388
v 114.046669 8.580445 16.130447
v 116.076080 3.167242 15.526999
v 114.541840 -1.392465 16.048594
v 114.398392 8.028257 12.499545
v 108.211525 -4.173252 4.901182
v 112.439331 9.151623 5.624299
v 81.340164 -11.181416 19.194773
v 71.131912 -5.523078 20.534233
v 71.137032 0.621182 13.207772
v 81.367378 7.899037 7.133822
v 81.362419 11.569541 15.606194
v 81.369690 0.087327 7.049718
v 71.122726 -13.320461 5.190527
v 115.084862 6.780397 5.469827
v 113.843681 0.039234 5.008600
v 122.611580 2.854239 4.507102
v 120.604401 -1.682117 18.486187
v 106.050720 6.666228 15.624872
v 102.133629 6.139099 15.606318
v 102.351387 0.492925 21.111374
v 111.478241 0.048385 19.032301
v 105.813400 -0.554655 21.249893
v 99.831001 5.714474 23.004341
v 104.087326 -1.631045 0.000000
v 81.337906 -12.379679 35.989662
v 88.782509 7.702809 27.375029
v 95.443474 5.213671 29.902418
v 100.618484 8.800974 33.395248
v 97.517342 10.026090 27.647692
v 96.531075 -0.625926 25.483345
v 97.601654 -0.130187 31.155064
v 106.245789 -0.964933 37.112793
v 105.863808 -2.421401 31.252357
v 106.495071 5.551400 28.786514
v 106.567863 -0.426846 27.290409
v 102.281601 -2.468634 35.653305
v 88.051079 0.334484 40.586140
v 99.335320 -7.647196 27.439663
v 101.961777 8.236373 25.315714
v 97.410194 5.612813 28.924875
v 106.766396 5.511751 42.763046
v 105.411873 -3.931432 29.293278
v 101.622948 -3.027750 31.039036
v 92.487816 6.755141 47.342438
v 97.208618 -9.875302 21.316181
v 100.013977 0.306880 21.411411
v 109.438156 5.664984 43.711880
v 90.471207 -0.151554 45.364567
v 94.248055 -2.745785 41.289482
v 95.843552 -2.718940 35.999298
v 98.469154 7.765431 43.106705
v 99.907829 5.195809 43.985985
v 90.563667 4.652567 39.717010
v 92.052155 -0.133149 43.006660
v 99.954521 -0.787025 41.196152
v 96.133804 7.012991 33.955055
v 94.026680 5.195426 47.002285
v 98.115479 -0.862931 47.274277
v 97.930443 5.048129 37.789616
v 102.471413 -0.598052 35.962982
v 98.317085 -2.637074 34.083298
v 93.988594 -0.086184 40.013023
v 92.082642 4.798075 45.726570
v 94.374008 6.712373 37.946640
v 102.529961 5.537991 46.112511
v 91.834984 13.309915 43.119068
v 84.709488 8.663553 50.134708
v 104.433441 -5.535357 7.993651
v 90.557182 5.531467 10.513827
v 90.541862 0.472707 10.537850
v 97.386124 -0.140859 4.152509
v 90.100044 -9.166072 4.427081
v 95.721657 -9.768986 8.402313
v 97.884834 6.037958 9.065709
v 90.368660 -5.662628 8.840878
v 96.940971 -6.223386 0.000000
v 94.832008 -11.094089 4.593216
v 97.755783 -12.952621 10.541113
v 102.250946 7.334396 11.197748
v 99.990509 0.038814 11.255812
v 98.391396 -7.136260 4.507915
v 105.163414 -12.277373 4.682269
v 108.750237 -8.067328 -0.000000
v 108.412582 -8.796779 12.035362
v 102.043533 -7.785580 9.362897
v 107.575066 -6.772847 4.410783
v 101.051437 -14.342520 9.170403
v 101.350349 -12.854613 8.871176
v 104.862068 -10.941737 10.128556
v 108.265076 -4.314737 9.092954
v 97.868958 -11.499348 12.544621
v 81.357574 -6.784033 19.434635
v 114.975838 3.324213 22.408239
v 113.152397 3.422255 21.327188
v 109.239723 0.709757 11.501066
v 102.403687 -0.279986 24.734695
v 108.013756 0.254512 24.552471
v 108.227867 5.518429 21.065756
v 111.425888 6.495872 19.717466
v 114.165550 6.776512 18.184437
v 101.042122 6.007529 18.244225
v 101.167160 0.480663 9.336296
v 71.129990 15.001354 16.808084
v 71.134727 9.163301 4.762290
v 119.908218 6.798046 6.204591
v 119.091797 3.984859 6.372405
v 118.011887 0.042217 4.289319
v 116.726822 -3.218608 8.601705
v 113.666481 -0.113613 4.336418
v 110.335495 -7.370519 8.060364
v 114.596878 4.391366 4.979431
v 114.743599 7.635789 0.260132
v 115.984543 -4.412661 7.214539
v 112.249146 -3.642826 0.000000
v 89.980057 -10.458045 -0.000000
v 102.073868 9.841668 -0.000001
v 71.121841 -14.450894 -0.000000
v 115.814758 7.119270 -0.000000
v 112.286720 -2.497428 0.000001
v 119.355423 -4.179501 0.000000
v 100.765175 -13.785847 -0.000000
v 98.095589 8.569712 0.000000
v 104.735817 -11.869993 37.503189
v 106.415337 5.467472 37.532234
v 91.730865 -6.154198 34.793056
v 100.551376 -5.322014 36.093941
v 103.221519 9.812739 32.298401
v 94.196358 -4.530586 30.946991
v 91.953018 1.047311 49.404331
v 100.009682 13.237007 42.327454
v 83.795876 -0.573320 43.989513
v 88.664909 -8.322606 50.938999
v 104.791519 5.888597 43.389648
v 105.883392 5.332567 38.720886
v 94.925980 11.815749 41.581974
v 101.453064 11.961983 -0.000001
v 107.731812 10.581195 -0.000000
v 90.385010 7.646497 -0.000000
v 123.522560 5.340430 1.686640
v 106.589119 -12.756940 3.542915
v 105.656914 -14.440834 4.629890
v 106.677940 -12.872327 7.011517
v 106.340691 -13.136092 6.366556
v 108.161461 -10.352852 3.818457
v 111.355820 -5.612673 7.596144
v 108.325104 -8.304222 0.000000
v 105.144638 -15.510337 -0.000000
v 109.678566 -9.304884 4.515213
v 98.094879 8.447195 3.790758
v 90.450134 7.257843 5.854774
v 102.146576 9.461887 0.000007
v 60.668144 19.221531 22.096411
v 61.693306 -5.899042 23.621969
v 61.380157 1.031995 8.433612
v 65.603645 -14.066064 14.696479
v 71.128456 -10.430737 10.758494
v 60.771252 17.275812 19.368458
v 60.993282 10.177663 0.000003
v 47.447567 21.166414 24.858498
v 50.212704 -6.002343 26.574768
v 49.258541 1.289524 10.658619
v 62.043964 -14.529813 20.967855
v 51.005512 -11.339916 12.435098
v 47.708672 18.485949 22.386837
v 48.348579 11.319798 0.000001
v 56.641308 -17.070539 18.355595
v 61.926781 -11.066367 -0.000001
v 65.603050 -15.344321 5.329309
v 60.819366 -15.622273 1.249069
v 115.789124 -3.592795 1.551063
v 73.050560 0.668531 8.512192
v 76.479126 10.201891 9.563012
v 72.722115 9.802198 12.866719
v 76.448250 -6.193484 17.072861
v 62.321754 -7.875638 19.676355
v 62.460297 2.622746 9.533312
v 61.922600 -11.325517 6.589066
v 76.482025 -7.733715 3.249398
v 72.230896 9.542309 3.599008
v 61.625099 11.408659 15.019912
v 76.467529 2.680037 14.574084
v 62.099960 11.236797 2.525725
v 73.921295 -5.855145 0.448056
v 61.433258 1.781767 2.274801
v 61.535130 -7.498663 5.554136
v 48.629501 -5.419724 10.569801
v 49.151695 -7.550947 4.512320
v 47.441299 1.563498 6.914857
v 47.551689 7.601021 16.702101
v 48.443199 2.114959 12.697800
v 48.166500 7.455451 15.246101
v 49.652100 -4.881308 6.143129
v 45.318398 -4.985737 4.895458
v 44.634903 1.578638 15.306400
v 46.417301 -4.494487 12.921599
v 46.202698 7.492742 7.014110
v 45.823799 7.658532 10.970900
v 45.770500 -7.273837 16.873400
v 45.863098 2.165929 14.372300
v 35.918503 9.240406 18.503408
v 35.618698 3.077837 11.302198
v 42.378899 -6.217439 6.830047
v 42.601898 -4.381605 15.639002
v 43.370197 -3.694327 4.990850
v 34.116600 2.656087 6.671240
v 20.483200 3.588790 9.189461
v 20.484207 -4.618871 7.779896
v 35.585098 9.489622 17.271500
v 20.485107 -4.281379 19.047203
v 20.485804 4.294417 15.818406
v 20.485001 9.062573 8.996701
v 20.483408 8.895573 4.684221
v 53.377789 -5.495455 9.996633
v 53.665150 -7.988525 5.884399
v 53.432514 8.057814 16.968838
v 54.019176 2.037550 15.239303
v 53.947548 -5.369790 12.279881
v 53.773960 7.921118 3.461991
v 53.292690 1.450760 -0.000000
v 76.452660 10.755250 -15.871396
v 107.014450 8.511455 -15.923398
v 107.187447 -2.698553 -19.223150
v 113.697807 -0.588367 -23.096895
v 104.156944 7.535327 -8.776219
v 112.773087 -1.118430 -7.854371
v 112.671577 8.160305 -5.118862
v 107.730011 10.354326 -8.654239
v 114.437561 3.957891 -8.571178
v 108.557243 9.296723 -12.227817
v 114.311378 -1.665107 -12.609779
v 116.149193 3.356134 -11.940388
v 114.044411 8.582622 -16.130445
v 116.075920 3.172393 -15.526999
v 114.544395 -1.388233 -16.048592
v 114.395332 8.032519 -12.748144
v 107.806671 9.542641 -4.901183
v 112.433075 9.153342 0.000003
v 71.124786 16.728979 -5.624298
v 81.340164 -11.181415 -19.194777
v 71.131905 -5.523080 -20.534239
v 71.137039 0.621185 -13.207772
v 81.367386 7.899037 -7.133823
v 81.362419 11.569539 -15.606194
v 81.369690 0.087331 -7.049720
v 71.122726 -13.320465 -5.190526
v 115.080978 6.784518 -5.469827
v 113.845390 0.041114 -5.008599
v 122.611572 2.854241 -4.507101
v 120.604401 -1.682117 -18.486187
v 106.050743 6.666224 -15.624872
v 102.132988 6.138375 -15.606318
v 102.351860 0.492238 -21.111374
v 111.478790 0.049610 -19.032301
v 105.813377 -0.554659 -21.249893
v 99.831017 5.714494 -23.004341
v 104.087303 -1.631048 -35.989658
v 88.782509 7.702801 -26.247089
v 96.143890 5.213689 -28.774479
v 101.318916 8.800974 -33.395241
v 97.517334 10.026090 -26.519754
v 97.231468 -0.625910 -24.355408
v 98.302055 -0.130173 -30.027124
v 106.946190 -0.964952 -37.112801
v 105.863808 -2.421397 -30.124418
v 107.195488 5.551383 -27.658579
v 107.268280 -0.426863 -26.162470
v 102.981979 -2.468635 -35.653309
v 88.051079 0.334474 -40.586143
v 99.335320 -7.647197 -26.311722
v 102.662193 8.236372 -24.187769
v 98.110611 5.612825 -27.796936
v 107.466812 5.511735 -42.763050
v 105.411873 -3.931426 -28.165339
v 102.323334 -3.027752 -31.039030
v 92.487816 6.755138 -47.342453
v 97.208618 -9.875302 -21.316181
v 100.013962 0.306899 -21.411411
v 109.438171 5.664958 -42.148598
v 91.549515 -0.150550 -43.686111
v 95.365654 -2.741855 -39.591675
v 97.148300 -2.696454 -34.320850
v 99.586754 7.769362 -41.428253
v 101.025429 5.199739 -42.422783
v 91.641708 4.653473 -37.732994
v 93.162392 -0.120759 -41.429642
v 101.089874 -0.746985 -39.517700
v 97.251396 7.016922 -32.276608
v 95.144279 5.199358 -45.323833
v 99.233078 -0.859002 -45.595829
v 99.048042 5.052060 -36.111168
v 103.589012 -0.594121 -34.284534
v 99.434685 -2.633143 -32.404850
v 95.106194 -0.082253 -37.648708
v 93.271812 4.906277 -44.048122
v 95.491608 6.716303 -36.268192
v 103.647552 5.541921 -46.112495
v 91.834976 13.309914 -43.119061
v 84.709480 8.663549 -50.134716
v 104.433441 -5.535349 -7.686560
v 90.557182 5.531466 -10.667373
v 90.541862 0.472707 -10.537852
v 97.386543 -0.142204 -4.152508
v 90.100044 -9.166072 -4.427079
v 95.721657 -9.768986 -8.402312
v 97.884834 6.037958 -9.219253
v 90.368660 -5.662630 -8.840878
v 96.942253 -6.224867 -4.593215
v 97.755783 -12.952620 -11.501068
v 102.405586 -0.282886 -11.197748
v 99.992218 0.034592 -11.255812
v 98.392799 -7.137447 -4.507915
v 105.169472 -12.279278 -4.682268
v 108.757965 -8.068436 -12.035360
v 102.045662 -7.786574 -9.362896
v 107.580856 -6.773470 -4.410782
v 101.051437 -14.342520 -9.170404
v 101.350349 -12.854611 -8.871178
v 104.867592 -10.943161 -10.128559
v 108.268829 -4.314832 -9.092955
v 97.868958 -11.499348 -12.544621
v 81.357574 -6.784034 -19.434635
v 114.975670 3.327686 -22.408239
v 113.152298 3.423849 -21.327188
v 109.239708 0.709732 -10.541112
v 102.248283 7.331225 -24.734694
v 108.013741 0.254486 -24.552471
v 108.227882 5.518402 -21.065752
v 111.425194 6.497087 -19.717466
v 114.164024 6.779743 -18.184437
v 101.042137 6.007551 -18.244223
v 101.167145 0.480684 -9.336293
v 71.130005 15.001349 -16.808086
v 71.134735 9.163298 -4.762290
v 119.905876 6.802958 -6.204589
v 119.091148 3.989630 -6.372405
v 118.013596 0.046457 -4.289318
v 116.730484 -3.215457 -8.601705
v 113.669479 -0.109592 -4.336421
v 110.342735 -7.370732 -8.060364
v 114.595238 4.396486 -4.979431
v 114.738869 7.639542 -0.000000
v 114.666451 9.273959 -0.260128
v 115.984543 -4.412661 -7.214539
v 112.253754 -3.641186 0.000000
v 97.863426 -12.226939 0.000000
v 112.488022 2.443673 0.000000
v 112.514275 9.403313 0.000001
v 81.353889 12.717849 -0.000000
v 120.142181 8.145350 -37.503185
v 106.415329 5.467478 -37.532249
v 91.730865 -6.154203 -34.793068
v 100.551384 -5.322014 -36.093933
v 103.221519 9.812743 -32.298409
v 94.196365 -4.530592 -30.946993
v 91.953018 1.047307 -49.404320
v 100.009674 13.237014 -42.327454
v 83.795876 -0.573331 -43.989525
v 88.664917 -8.322611 -50.938995
v 104.791519 5.888606 -43.389648
v 105.883392 5.332575 -38.720879
v 94.925980 11.815750 -41.581966
v 101.453064 11.961987 -1.686640
v 106.589127 -12.756939 -3.542914
v 105.663841 -14.442693 -4.629887
v 106.684242 -12.873687 -7.011517
v 106.347084 -13.137252 -6.366553
v 108.166756 -10.353463 -3.818456
v 111.361816 -5.612379 -7.596141
v 108.331818 -8.304804 -4.515212
v 98.094879 8.447195 -3.790758
v 90.450134 7.257843 -5.854773
v 102.146576 9.461887 -22.096411
v 61.693314 -5.899045 -23.621981
v 61.380154 1.032003 -8.433610
v 65.603638 -14.066063 -14.696479
v 71.128456 -10.430741 -10.758492
v 60.771271 17.275801 -19.368460
v 60.993298 10.177658 -24.858494
v 50.212704 -6.002346 -26.574776
v 49.258545 1.289527 -10.658623
v 62.043961 -14.529814 -20.967855
v 51.005512 -11.339920 -12.435097
v 47.708691 18.485931 -22.386843
v 48.348591 11.319786 -18.355593
v 61.926777 -11.066371 -5.329308
v 60.819366 -15.622272 -1.249068
v 115.789124 -3.592795 0.000000
v 115.792084 -4.195234 -0.000000
v 112.731529 -7.589812 -1.551064
v 73.050560 0.668530 -8.512190
v 76.479126 10.201893 -9.563011
v 72.722115 9.802197 -12.866717
v 76.448242 -6.193489 -17.072866
v 62.321751 -7.875637 -19.676357
v 62.460289 2.622745 -9.533310
v 61.922604 -11.325519 -6.589065
v 76.482025 -7.733716 -3.249399
v 72.230896 9.542308 -3.599009
v 61.625095 11.408659 -15.019912
v 76.467529 2.680035 -14.574083
v 62.099960 11.236799 -2.525725
v 73.921295 -5.855145 -0.448057
v 61.433250 1.781769 -2.274799
v 61.535130 -7.498662 -5.554136
v 48.629501 -5.419725 -10.569803
v 49.151695 -7.550947 -4.512320
v 47.441299 1.563498 -6.914857
v 47.551689 7.601022 -16.702101
v 48.443199 2.114960 -12.697800
v 48.166500 7.455451 -15.246100
v 49.652100 -4.881309 -6.143129
v 45.318398 -4.985737 -4.895458
v 44.634903 1.578639 -15.306400
v 46.417301 -4.494487 -12.921599
v 46.202698 7.492741 -7.014108
v 45.823799 7.658533 -10.970900
v 45.770500 -7.273837 -16.873400
v 45.863098 2.165929 -14.372300
v 35.918503 9.240406 -18.503407
v 35.618698 3.077836 -11.302200
v 42.378899 -6.217439 -6.830050
v 42.601898 -4.381608 -15.639002
v 43.370197 -3.694327 -4.990849
v 34.116600 2.656088 -6.671241
v 20.483202 3.588791 -9.189460
v 20.484205 -4.618870 -7.779896
v 35.585098 9.489622 -17.271500
v 20.485109 -4.281379 -19.047203
v 20.485802 4.294417 -15.818406
v 20.485001 9.062572 -8.996701
v 20.483406 8.895573 -5.259791
v 53.377789 -5.118941 -10.213944
v 53.665150 -7.443882 -6.379032
v 53.432518 7.520319 -16.715954
v 54.019173 1.906052 -15.103056
v 53.947548 -5.001750 -12.343211
v 53.773960 7.392842 -4.119987
v 53.292686 1.358835 0.000000
v 72.978928 0.614469 -0.000000
v 73.645538 -5.589933 0.000000
v 76.465919 -8.596447 -0.000000
v 73.714462 6.010643 11.620612
v 102.420036 6.737186 12.748144
v 107.810196 9.542483 12.872264
v 102.569534 0.106983 -11.620612
v 102.418129 6.734801 -12.499542
v 108.218567 -4.172689 -12.872266
v 102.571045 0.104676 8.776220
v 112.770912 -1.120227 7.854371
v 112.674446 8.158720 8.571177
v 108.564911 9.297251 15.606194
v 81.369690 0.087327 20.534233
v 71.137032 0.621182 5.190527
v 115.084862 6.780397 8.654240
v 114.438713 3.952705 -0.000000
v 115.814758 7.119270 -0.000000
v 112.286720 -2.497428 5.469827
v 113.843681 0.039234 5.190527
v 115.084862 6.780397 8.654240
v 114.438713 3.952705 21.249893
v 99.831001 5.714474 18.184437
v 101.042122 6.007529 27.375029
v 95.443474 5.213671 25.315714
v 97.410194 5.612813 33.955055
v 94.026680 5.195426 43.985985
v 90.563667 4.652567 40.013023
v 92.082642 4.798075 37.946640
v 102.529961 5.537991 50.938999
v 104.791519 5.888597 49.404331
v 100.009682 13.237007 34.083298
v 93.988594 -0.086184 42.327454
v 83.795876 -0.573320 43.989513
v 88.664909 -8.322606 33.955055
v 94.026680 5.195426 43.119068
v 84.709488 8.663553 37.789616
v 102.471413 -0.598052 50.938999
v 104.791519 5.888597 10.513827
v 90.541862 0.472707 10.537850
v 97.386124 -0.140859 11.501066
v 102.403687 -0.279986 11.197748
v 99.990509 0.038814 10.128556
v 108.265076 -4.314737 15.624872
v 102.133629 6.139099 11.620612
v 102.420036 6.737186 11.501066
v 102.403687 -0.279986 4.762290
v 119.908218 6.798046 6.204591
v 119.091797 3.984859 6.372405
v 118.011887 0.042217 -0.000000
v 120.142181 8.145350 4.289319
v 116.726822 -3.218608 0.260132
v 115.984543 -4.412661 35.989662
v 88.782509 7.702809 43.119068
v 84.709488 8.663553 50.134708
v 104.433441 -5.535357 31.039036
v 92.487816 6.755141 37.946640
v 102.529961 5.537991 35.999298
v 98.469154 7.765431 46.112511
v 91.834984 13.309915 35.962982
v 98.317085 -2.637074 47.342438
v 97.208618 -9.875302 23.621969
v 61.380157 1.031995 26.574768
v 49.258541 1.289524 -0.000000
v 109.678566 -9.304884 3.818457
v 111.355820 -5.612673 1.551063
v 73.050560 0.668531 4.512320
v 47.441299 1.563498 3.461991
v 53.292690 1.450760 4.684221
v 53.377789 -5.495455 4.895458
v 44.634903 1.578638 4.990850
v 34.116600 2.656087 0.448056
v 61.433258 1.781767 6.671240
v 20.483200 3.588790 16.968838
v 54.019176 2.037550 0.000000
v 72.978928 0.614469 5.884399
v 53.432514 8.057814 12.279881
v 53.773960 7.921118 9.996633
v 53.665150 -7.988525 3.461991
v 53.292690 1.450760 15.239303
v 53.947548 -5.369790 3.461991
v 53.292690 1.450760 -0.000000
v 102.073868 9.841668 -0.000001
v 107.731812 10.581195 0.000000
v 112.514275 9.403313 -8.776219
v 112.773087 -1.118430 -7.854371
v 112.671577 8.160305 -8.571178
v 108.557243 9.296723 0.000003
v 71.124786 16.728979 0.000001
v 81.353889 12.717849 -15.606194
v 81.369690 0.087331 -20.534239
v 71.137039 0.621185 0.000000
v 81.337906 -12.379679 -0.000001
v 71.121841 -14.450894 -5.190526
v 115.080978 6.784518 -0.000000
v 115.814758 7.119270 -0.000000
v 123.522560 5.340430 0.000001
v 119.355423 -4.179501 -0.000000
v 112.286720 -2.497428 -8.654239
v 114.437561 3.957891 -0.000000
v 115.814758 7.119270 -0.000000
v 112.286720 -2.497428 -0.000000
v 108.412582 -8.796779 -5.469827
v 113.845390 0.041114 -5.190526
v 115.080978 6.784518 -8.654239
v 114.437561 3.957891 -18.184437
v 101.042137 6.007551 -21.249893
v 99.831017 5.714494 -26.247089
v 96.143890 5.213689 -24.187769
v 98.110611 5.612825 -32.276608
v 95.144279 5.199358 -42.422783
v 91.641708 4.653473 -37.648708
v 93.271812 4.906277 -36.268192
v 103.647552 5.541921 -49.404320
v 100.009674 13.237014 -50.938995
v 104.791519 5.888606 -32.404850
v 95.106194 -0.082253 -43.989525
v 88.664917 -8.322611 -42.327454
v 83.795876 -0.573331 -32.276608
v 95.144279 5.199358 -43.119061
v 84.709480 8.663549 -36.111168
v 103.589012 -0.594121 -50.938995
v 104.791519 5.888606 0.000000
v 89.980057 -10.458045 0.000000
v 94.832008 -11.094089 -0.000000
v 90.385010 7.646497 -0.000000
v 98.095589 8.569712 -10.667373
v 90.541862 0.472707 -10.537852
v 97.386543 -0.142204 0.000000
v 100.765175 -13.785847 0.000000
v 97.863426 -12.226939 -11.197748
v 99.992218 0.034592 -11.501068
v 102.405586 -0.282886 -10.128559
v 108.268829 -4.314832 0.000000
v 104.735817 -11.869993 -15.624872
v 102.132988 6.138375 -11.620612
v 102.418129 6.734801 -11.501068
v 102.405586 -0.282886 -10.541112
v 102.248283 7.331225 0.000000
v 112.488022 2.443673 -0.000000
v 120.142181 8.145350 -4.762290
v 119.905876 6.802958 -6.204589
v 119.091148 3.989630 -6.372405
v 118.013596 0.046457 -4.289318
v 116.730484 -3.215457 -0.260128
v 115.984543 -4.412661 -35.989658
v 88.782509 7.702801 -43.119061
v 84.709480 8.663549 -50.134716
v 104.433441 -5.535349 -31.039030
v 92.487816 6.755138 -36.268192
v 103.647552 5.541921 -34.320850
v 99.586754 7.769362 -46.112495
v 91.834976 13.309914 -34.284534
v 99.434685 -2.633143 -47.342453
v 97.208618 -9.875302 0.000007
v 60.668144 19.221531 -23.621981
v 61.380154 1.032003 -0.000001
v 65.603050 -15.344321 0.000003
v 47.447567 21.166414 -26.574776
v 49.258545 1.289527 0.000001
v 56.641308 -17.070539 -0.000000
v 109.678566 -9.304884 -3.818456
v 111.361816 -5.612379 -0.000000
v 112.731529 -7.589812 0.000000
v 115.792084 -4.195234 0.000000
v 72.978928 0.614469 -0.000000
v 73.714462 6.010643 -0.000000
v 76.452660 10.755250 -1.551064
v 73.050560 0.668530 -4.512320
v 47.441299 1.563498 -4.119987
v 53.292686 1.358835 -5.259791
v 53.377789 -5.118941 -4.895458
v 44.634903 1.578639 -4.990849
v 34.116600 2.656088 -0.448057
v 61.433250 1.781769 -6.671241
v 20.483202 3.588791 -0.000000
v 73.645538 -5.589933 0.000000
v 76.465919 -8.596447 -16.715954
v 54.019173 1.906052 0.000000
v 72.978928 0.614469 -6.379032
v 53.432518 7.520319 -12.343211
v 53.773960 7.392842 -10.213944
v 53.665150 -7.443882 -4.119987
v 53.292686 1.358835 -15.103056
v 53.947548 -5.001750 -4.119987
v 53.292686 1.358835 10.541113
v 102.250946 7.334396 10.541113
v 102.250946 7.334396 -10.541112
v 102.248283 7.331225 0.671187

vt 0.422839 0.338272
vt 0.253649 0.339416
vt 0.308506 0.260955
vt 0.393603 0.546274
vt 0.585847 0.766130
vt 0.614059 0.736977
vt 0.569075 0.425325
vt 0.352218 0.775647
vt 0.575299 0.392065
vt 0.302593 0.393418
vt 0.343407 0.386809
vt 0.386723 0.368869
vt 0.338949 0.367655
vt 0.305665 0.358397
vt 0.374174 0.375708
vt 0.249836 0.734730
vt 0.612667 0.606575
vt 0.264044 0.477717
vt 0.178023 0.426684
vt 0.193823 0.813065
vt 0.312018 0.752669
vt 0.308807 0.467820
vt 0.278122 0.604072
vt 0.173038 0.743380
vt 0.656442 0.416525
vt 0.608375 0.487130
vt 0.673803 0.486553
vt 0.607741 0.301908
vt 0.406614 0.302493
vt 0.446703 0.318607
vt 0.217244 0.314872
vt 0.307492 0.302063
vt 0.258866 0.257587
vt 0.436542 0.259344
vt 0.260624 0.656916
vt 0.263595 0.192207
vt 0.071287 0.245899
vt 0.160214 0.211071
vt 0.407763 0.173572
vt 0.449653 0.217420
vt 0.201449 0.234996
vt 0.209959 0.196933
vt 0.296259 0.130935
vt 0.292389 0.204270
vt 0.352618 0.223957
vt 0.298971 0.224963
vt 0.255162 0.148810
vt 0.114865 0.087618
vt 0.228952 0.229799
vt 0.397731 0.258955
vt 0.168128 0.230000
vt 0.350466 0.079975
vt 0.288338 0.203573
vt 0.249821 0.223784
vt 0.114440 0.027020
vt 0.213890 0.263655
vt 0.218526 0.293843
vt 0.358292 0.400440
vt 0.788973 0.400424
vt 0.830980 0.439960
vt 0.832999 0.482437
vt 0.935781 0.439987
vt 0.900051 0.400437
vt 0.743542 0.440028
vt 0.787980 0.439946
vt 0.863245 0.439962
vt 0.932706 0.482298
vt 0.980022 0.400441
vt 0.862607 0.400419
vt 0.901264 0.482413
vt 0.866083 0.482381
vt 0.834460 0.482377
vt 0.789157 0.440091
vt 0.743868 0.400406
vt 0.927421 0.482424
vt 0.902648 0.072795
vt 0.512989 0.147690
vt 0.018024 0.319629
vt 0.638592 0.775866
vt 0.401107 0.829026
vt 0.407061 0.831721
vt 0.456562 0.611741
vt 0.343671 0.607693
vt 0.394009 0.776244
vt 0.468022 0.549983
vt 0.347816 0.556307
vt 0.407024 0.655414
vt 0.386416 0.613816
vt 0.425743 0.802775
vt 0.531441 0.840636
vt 0.480311 0.545891
vt 0.443137 0.607749
vt 0.493562 0.598279
vt 0.537894 0.650248
vt 0.542152 0.545201
vt 0.474910 0.554095
vt 0.520191 0.616457
vt 0.458137 0.581889
vt 0.459072 0.570676
vt 0.488588 0.397351
vt 0.245604 0.574300
vt 0.433438 0.531054
vt 0.265946 0.342416
vt 0.337619 0.316338
vt 0.335815 0.293408
vt 0.303059 0.860196
vt 0.502645 0.255719
vt 0.302849 0.262786
vt 0.350107 0.313685
vt 0.362547 0.334856
vt 0.360610 0.281549
vt 0.439180 0.293443
vt 0.222721 0.768543
vt 0.212777 0.842755
vt 0.224182 0.945473
vt 0.729060 0.932395
vt 0.699232 0.933089
vt 0.652629 0.957299
vt 0.624381 0.707150
vt 0.749771 0.598044
vt 0.739961 0.766049
vt 0.746263 0.817243
vt 0.730711 0.982985
vt 0.616850 0.648378
vt 0.745064 0.656902
vt 0.341990 0.692381
vt 0.516128 0.657025
vt 0.172184 0.417795
vt 0.722605 0.416477
vt 0.559231 0.486209
vt 0.557949 0.661619
vt 0.456003 0.692023
vt 0.468650 0.660435
vt 0.496705 0.138447
vt 0.358097 0.111002
vt 0.166110 0.141358
vt 0.239654 0.149577
vt 0.402561 0.156929
vt 0.185991 0.188237
vt 0.146980 0.038580
vt 0.447978 0.095253
vt 0.075896 0.052939
vt 0.141743 0.024017
vt 0.378543 0.086894
vt 0.363775 0.131286
vt 0.478660 0.102805
vt 0.427330 0.692726
vt 0.567953 0.691537
vt 0.398373 0.487638
vt 0.723302 0.969667
vt 0.362980 0.945007
vt 0.339938 0.931824
vt 0.364067 0.901363
vt 0.359749 0.910283
vt 0.401689 0.944287
vt 0.470150 0.893027
vt 0.426607 0.992800
vt 0.325164 0.992267
vt 0.432196 0.734002
vt 0.470094 0.731321
vt 0.399204 0.744478
vt 0.518835 0.689477
vt 0.126132 0.453675
vt 0.107629 0.395056
vt 0.121402 0.600929
vt 0.124958 0.548719
vt 0.174495 0.782358
vt 0.130756 0.871294
vt 0.146989 0.689321
vt 0.014727 0.425606
vt 0.017731 0.361816
vt 0.026353 0.585106
vt 0.094529 0.489272
vt 0.015956 0.800009
vt 0.022637 0.904678
vt 0.045041 0.657132
vt 0.044381 0.518812
vt 0.102615 0.657077
vt 0.122908 0.621205
vt 0.081991 0.979139
vt 0.569339 0.511094
vt 0.946849 0.642050
vt 0.975425 0.645316
vt 0.944490 0.791085
vt 0.971779 0.791481
vt 0.855217 0.729884
vt 0.855216 0.866131
vt 0.855223 0.867759
vt 0.978304 0.587856
vt 0.946617 0.591603
vt 0.855225 0.723704
vt 0.969188 0.663405
vt 0.855426 0.915199
vt 0.967589 0.986716
vt 0.855231 0.924555
vt 0.855229 0.319847
vt 0.942873 0.279081
vt 0.944202 0.014405
vt 0.919112 0.055312
vt 0.925138 0.176332
vt 0.930678 0.126813
vt 0.928185 0.238143
vt 0.945552 0.318654
vt 0.915278 0.378223
vt 0.911309 0.238218
vt 0.917461 0.127071
vt 0.922556 0.055405
vt 0.920228 0.277984
vt 0.916142 0.176431
vt 0.922570 0.119859
vt 0.808358 0.170766
vt 0.807783 0.277445
vt 0.888038 0.318477
vt 0.891082 0.238175
vt 0.892191 0.378512
vt 0.796906 0.377456
vt 0.678903 0.307971
vt 0.678977 0.065732
vt 0.809200 0.238928
vt 0.678886 0.165594
vt 0.678846 0.125558
vt 0.678818 0.063966
vt 0.678860 0.926711
vt 0.783254 0.868054
vt 0.783230 0.052654
vt 0.960300 0.174064
vt 0.967373 0.788926
vt 0.783213 0.122466
vt 0.964466 0.011437
vt 0.953835 0.578290
vt 0.990620 0.328813
vt 0.422839 0.338272
vt 0.253649 0.339416
vt 0.308506 0.260955
vt 0.393603 0.546274
vt 0.585847 0.766130
vt 0.614059 0.736601
vt 0.569252 0.425325
vt 0.352218 0.775647
vt 0.575299 0.392065
vt 0.302593 0.393418
vt 0.343407 0.386809
vt 0.386723 0.368869
vt 0.338949 0.367655
vt 0.305665 0.358397
vt 0.374174 0.358166
vt 0.432058 0.734730
vt 0.612667 0.689844
vt 0.209635 0.606575
vt 0.264044 0.477717
vt 0.178023 0.426684
vt 0.193823 0.812975
vt 0.312150 0.752669
vt 0.308807 0.467820
vt 0.278122 0.604072
vt 0.173038 0.743380
vt 0.656442 0.416525
vt 0.608375 0.487130
vt 0.673803 0.486553
vt 0.607741 0.301908
vt 0.406614 0.302493
vt 0.446703 0.318607
vt 0.217244 0.314872
vt 0.307492 0.302063
vt 0.258866 0.257587
vt 0.436542 0.259344
vt 0.260624 0.192207
vt 0.071287 0.245899
vt 0.160214 0.211071
vt 0.407763 0.173572
vt 0.449653 0.217420
vt 0.201449 0.234996
vt 0.209959 0.196933
vt 0.296259 0.130935
vt 0.292389 0.204270
vt 0.352618 0.223957
vt 0.298971 0.224963
vt 0.255162 0.148810
vt 0.114865 0.087618
vt 0.228952 0.229799
vt 0.397731 0.258955
vt 0.168128 0.230000
vt 0.350466 0.079975
vt 0.288338 0.203573
vt 0.249821 0.223784
vt 0.114440 0.027020
vt 0.213890 0.263655
vt 0.218526 0.293843
vt 0.358292 0.400440
vt 0.788973 0.400424
vt 0.830980 0.439960
vt 0.832999 0.482437
vt 0.935781 0.439987
vt 0.900051 0.400437
vt 0.743542 0.440028
vt 0.787980 0.439946
vt 0.863245 0.439962
vt 0.932706 0.482298
vt 0.980022 0.400441
vt 0.862607 0.400419
vt 0.901264 0.482413
vt 0.866083 0.482381
vt 0.834460 0.482377
vt 0.789157 0.440091
vt 0.743868 0.400406
vt 0.927421 0.482424
vt 0.902648 0.072795
vt 0.512989 0.147690
vt 0.018024 0.319629
vt 0.638592 0.775866
vt 0.401107 0.829026
vt 0.407061 0.831721
vt 0.456562 0.611741
vt 0.343671 0.607646
vt 0.394042 0.776244
vt 0.468022 0.549983
vt 0.347816 0.556307
vt 0.407024 0.613877
vt 0.425741 0.860196
vt 0.502645 0.840636
vt 0.480311 0.545891
vt 0.443137 0.607749
vt 0.493562 0.598279
vt 0.537894 0.545201
vt 0.474910 0.554095
vt 0.520191 0.616339
vt 0.458142 0.581889
vt 0.459072 0.570676
vt 0.488588 0.397351
vt 0.245604 0.574300
vt 0.433438 0.531054
vt 0.265946 0.342416
vt 0.337619 0.316338
vt 0.335815 0.293408
vt 0.303059 0.802775
vt 0.531441 0.255719
vt 0.302849 0.262786
vt 0.350107 0.313685
vt 0.362547 0.334856
vt 0.360610 0.281549
vt 0.439180 0.293443
vt 0.222721 0.768536
vt 0.212783 0.842776
vt 0.224153 0.945473
vt 0.729060 0.932024
vt 0.698230 0.933211
vt 0.652652 0.957203
vt 0.624513 0.707150
vt 0.749771 0.598044
vt 0.739961 0.766049
vt 0.746263 0.817243
vt 0.730711 0.877222
vt 0.707796 0.983182
vt 0.617327 0.648378
vt 0.745064 0.653943
vt 0.416831 0.987419
vt 0.678527 0.692986
vt 0.612504 0.690956
vt 0.307489 0.980795
vt 0.746184 0.138447
vt 0.358097 0.111002
vt 0.166110 0.141358
vt 0.239654 0.149577
vt 0.402561 0.156929
vt 0.185991 0.188237
vt 0.146980 0.038580
vt 0.447978 0.095253
vt 0.075896 0.052939
vt 0.141743 0.024017
vt 0.378543 0.086894
vt 0.363775 0.131286
vt 0.478660 0.102805
vt 0.427330 0.969665
vt 0.362978 0.944994
vt 0.339924 0.931806
vt 0.364052 0.901277
vt 0.359740 0.910273
vt 0.401611 0.944298
vt 0.470143 0.893164
vt 0.426619 0.734002
vt 0.470094 0.731321
vt 0.399204 0.744478
vt 0.518835 0.453675
vt 0.107629 0.395056
vt 0.121402 0.600929
vt 0.124958 0.548719
vt 0.174495 0.782352
vt 0.130776 0.871304
vt 0.146988 0.425606
vt 0.017731 0.361816
vt 0.026353 0.585106
vt 0.094529 0.489272
vt 0.015956 0.800017
vt 0.022618 0.904678
vt 0.045041 0.518812
vt 0.102615 0.621205
vt 0.081991 0.979139
vt 0.569339 0.996211
vt 0.564424 0.995431
vt 0.510828 0.511094
vt 0.946849 0.642050
vt 0.975425 0.645316
vt 0.944490 0.791085
vt 0.971779 0.791481
vt 0.855217 0.729884
vt 0.855216 0.866131
vt 0.855223 0.867759
vt 0.978304 0.587856
vt 0.946617 0.591603
vt 0.855225 0.723704
vt 0.969188 0.663596
vt 0.853738 0.915199
vt 0.967589 0.986716
vt 0.855231 0.924555
vt 0.855229 0.319847
vt 0.942873 0.279081
vt 0.944202 0.014405
vt 0.919112 0.055312
vt 0.925138 0.176332
vt 0.930678 0.126813
vt 0.928185 0.238143
vt 0.945552 0.318654
vt 0.915278 0.378223
vt 0.911309 0.238218
vt 0.917461 0.127071
vt 0.922556 0.055405
vt 0.920228 0.277984
vt 0.916142 0.176431
vt 0.922570 0.119859
vt 0.808358 0.170766
vt 0.807783 0.277445
vt 0.888038 0.318477
vt 0.891082 0.238175
vt 0.892191 0.378512
vt 0.796906 0.377456
vt 0.678903 0.307971
vt 0.678977 0.065732
vt 0.809200 0.238928
vt 0.678886 0.165594
vt 0.678846 0.125558
vt 0.678818 0.063966
vt 0.678860 0.926711
vt 0.783254 0.868054
vt 0.783230 0.052654
vt 0.960300 0.174064
vt 0.967373 0.788926
vt 0.783213 0.122466
vt 0.964466 0.011437
vt 0.953835 0.507979
vt 0.958712 0.928307
vt 0.985095 0.910272
vt 1.006363 0.550623
vt 0.965045 0.320684
vt 0.463582 0.343190
vt 0.427885 0.337275
vt 0.208162 0.320706
vt 0.463579 0.356990
vt 0.251743 0.337273
vt 0.208163 0.420475
vt 0.296973 0.413019
vt 0.401898 0.385021
vt 0.440612 0.876550
vt 0.336671 0.919054
vt 0.250264 0.417219
vt 0.674339 0.775175
vt 0.654900 0.693185
vt 0.648346 0.626388
vt 0.604014 0.568769
vt 0.610680 0.549140
vt 0.648542 0.526319
vt 0.627381 0.275218
vt 0.175917 0.292274
vt 0.175436 0.239815
vt 0.458438 0.242756
vt 0.442966 0.482551
vt 0.745743 0.400381
vt 0.964794 0.439989
vt 0.969920 0.334916
vt 0.530382 0.376311
vt 0.638475 0.319620
vt 0.638592 0.219625
vt 0.530432 0.160144
vt 0.638530 0.219132
vt 0.638597 0.265177
vt 0.530547 0.219136
vt 0.638597 0.305566
vt 0.530525 0.376265
vt 0.638475 0.495172
vt 0.356965 0.501922
vt 0.411876 0.486593
vt 0.486188 0.493837
vt 0.444509 0.538014
vt 0.530258 0.308913
vt 0.170326 0.322368
vt 0.159837 0.344395
vt 0.205721 0.799732
vt 0.682521 0.761747
vt 0.690608 0.714461
vt 0.691121 0.851690
vt 0.659514 0.667044
vt 0.684749 0.630533
vt 0.658718 0.171527
vt 0.530342 0.117570
vt 0.573832 0.015959
vt 0.285800 0.207708
vt 0.492352 0.334905
vt 0.530382 0.305442
vt 0.530524 0.268154
vt 0.638618 0.265211
vt 0.530547 0.268142
vt 0.638618 0.952421
vt 0.177041 0.991958
vt 0.082119 0.995558
vt 0.477806 0.940671
vt 0.507500 0.962544
vt 0.961111 0.378584
vt 0.919707 0.379688
vt 0.954748 0.321585
vt 0.971755 0.014848
vt 0.910757 0.018463
vt 0.800938 0.517477
vt 0.855214 0.019469
vt 0.678843 0.729193
vt 0.783209 0.966308
vt 0.972641 0.596162
vt 0.783231 0.657916
vt 0.783218 0.280084
vt 0.974077 0.538310
vt 0.783187 0.237663
vt 0.975741 0.974819
vt 0.783248 0.692381
vt 0.516128 0.692726
vt 0.567953 0.692986
vt 0.612504 0.420475
vt 0.296973 0.413019
vt 0.401898 0.385021
vt 0.440612 0.689838
vt 0.209638 0.690956
vt 0.307489 0.876550
vt 0.336671 0.919054
vt 0.250264 0.656916
vt 0.263595 0.657025
vt 0.172184 0.417219
vt 0.674339 0.417795
vt 0.722605 0.487638
vt 0.723302 0.486209
vt 0.557949 0.416477
vt 0.559231 0.775175
vt 0.654900 0.693185
vt 0.648346 0.626388
vt 0.604014 0.650248
vt 0.542152 0.568769
vt 0.610680 0.549140
vt 0.648542 0.526319
vt 0.627381 0.292274
vt 0.175436 0.275218
vt 0.175917 0.239815
vt 0.458438 0.242756
vt 0.442966 0.482551
vt 0.745743 0.400381
vt 0.964794 0.439989
vt 0.969920 0.334916
vt 0.530382 0.319620
vt 0.638592 0.376311
vt 0.638475 0.219625
vt 0.530432 0.219132
vt 0.638597 0.160144
vt 0.638530 0.265177
vt 0.530547 0.219136
vt 0.638597 0.305566
vt 0.530525 0.376265
vt 0.638475 0.656902
vt 0.341990 0.655414
vt 0.386416 0.691537
vt 0.398373 0.692023
vt 0.468650 0.495172
vt 0.356965 0.501922
vt 0.411876 0.661445
vt 0.455980 0.653943
vt 0.416831 0.493837
vt 0.444509 0.486593
vt 0.486188 0.538014
vt 0.530258 0.660435
vt 0.496705 0.308913
vt 0.170326 0.322368
vt 0.159837 0.344395
vt 0.205721 0.329993
vt 0.470562 0.987419
vt 0.678527 0.980795
vt 0.746184 0.799732
vt 0.682521 0.761747
vt 0.690608 0.714461
vt 0.691121 0.667044
vt 0.684749 0.630533
vt 0.658718 0.171527
vt 0.530342 0.117570
vt 0.573832 0.015959
vt 0.285800 0.207708
vt 0.492352 0.334905
vt 0.530382 0.305442
vt 0.530524 0.268154
vt 0.638618 0.265211
vt 0.530547 0.268142
vt 0.638618 0.689474
vt 0.126136 0.952421
vt 0.177041 0.657077
vt 0.122908 0.689321
vt 0.014727 0.991958
vt 0.082119 0.657132
vt 0.044381 0.995558
vt 0.477806 0.940671
vt 0.507500 0.995431
vt 0.510828 0.996211
vt 0.564424 0.507979
vt 0.958712 0.550623
vt 0.965045 0.578290
vt 0.990620 0.962544
vt 0.961111 0.378584
vt 0.919707 0.379688
vt 0.954748 0.321585
vt 0.971755 0.014848
vt 0.910757 0.018463
vt 0.800938 0.517477
vt 0.855214 0.019469
vt 0.678843 0.928307
vt 0.985095 0.910272
vt 1.006363 0.729193
vt 0.783209 0.966308
vt 0.972641 0.596162
vt 0.783231 0.657916
vt 0.783218 0.280084
vt 0.974077 0.538310
vt 0.783187 0.237663
vt 0.975741 0.974819
vt 0.783248 0.329993
vt 0.470562 0.327373
vt 0.152966 0.327373
vt 0.152966 1.000000

f 182/182 453/453 450/450
f 183/183 190/190 184/184
f 190/190 183/183 231/231
f 186/186 192/192 187/187
f 192/192 186/186 185/185
f 188/188 185/185 186/186
f 185/185 188/188 189/189
f 184/184 191/191 193/193
f 191/191 184/184 190/190
f 192/192 193/193 187/187
f 193/193 192/192 184/184
f 194/194 195/195 516/516
f 195/195 194/194 196/196
f 196/196 225/225 224/224
f 225/225 196/196 188/188
f 186/186 225/225 188/188
f 225/225 186/186 228/228
f 522/522 190/190 182/182
f 190/190 522/522 191/191
f 451/451 452/452 194/194
f 188/188 194/194 189/189
f 194/194 188/188 196/196
f 516/516 451/451 194/194
f 184/184 192/192 183/183
f 187/187 228/228 186/186
f 228/228 187/187 524/524
f 194/194 452/452 189/189
f 451/451 516/516 525/525
f 190/190 231/231 453/453
f 190/190 453/453 182/182
f 193/193 526/526 527/527
f 526/526 193/193 191/191
f 522/522 526/526 191/191
f 526/526 522/522 529/529
f 527/527 187/187 193/193
f 187/187 527/527 524/524
f 224/224 195/195 196/196
f 195/195 224/224 531/531
f 401/401 615/615 616/616
f 402/402 409/409 617/617
f 409/409 402/402 403/403
f 405/405 411/411 404/404
f 411/411 405/405 406/406
f 407/407 404/404 408/408
f 404/404 407/407 405/405
f 403/403 410/410 409/409
f 410/410 403/403 412/412
f 411/411 412/412 403/403
f 412/412 411/411 406/406
f 413/413 414/414 415/415
f 414/414 413/413 618/618
f 415/415 444/444 407/407
f 444/444 415/415 443/443
f 405/405 444/444 447/447
f 444/444 405/405 407/407
f 624/624 409/409 410/410
f 409/409 624/624 401/401
f 626/626 413/413 627/627
f 407/407 413/413 415/415
f 413/413 407/407 408/408
f 618/618 413/413 626/626
f 403/403 402/402 411/411
f 406/406 447/447 628/628
f 447/447 406/406 405/405
f 413/413 408/408 627/627
f 626/626 629/629 618/618
f 409/409 616/616 617/617
f 409/409 401/401 616/616
f 412/412 630/630 410/410
f 630/630 412/412 631/631
f 624/624 630/630 633/633
f 630/630 624/624 410/410
f 631/631 406/406 628/628
f 406/406 631/631 412/412
f 443/443 414/414 635/635
f 414/414 443/443 415/415
f 106/106 33/33 105/105
f 110/110 58/58 162/162
f 162/162 7/7 90/90
f 7/7 17/17 9/9
f 7/7 90/90 17/17
f 7/7 9/9 94/94
f 5/5 97/97 25/25
f 17/17 6/6 454/454
f 454/454 30/30 10/10
f 10/10 460/460 12/12
f 8/8 461/461 101/101
f 460/460 10/10 8/8
f 12/12 11/11 461/461
f 455/455 15/15 14/14
f 16/16 10/10 2/2
f 14/14 3/3 455/455
f 12/12 462/462 13/13
f 3/3 14/14 15/15
f 13/13 11/11 3/3
f 13/13 104/104 12/12
f 14/14 10/10 13/13
f 14/14 11/11 101/101
f 10/10 16/16 15/15
f 111/111 13/13 14/14
f 2/2 16/16 1/1
f 15/15 455/455 17/17
f 9/9 6/6 167/167
f 167/167 24/24 19/19
f 19/19 103/103 22/22
f 22/22 359/359 463/463
f 463/463 21/21 36/36
f 36/36 18/18 26/26
f 465/465 26/26 129/129
f 150/150 129/129 28/28
f 26/26 131/131 130/130
f 131/131 26/26 466/466
f 25/25 6/6 467/467
f 358/358 17/17 94/94
f 469/469 94/94 470/470
f 470/470 471/471 30/30
f 29/29 112/112 113/113
f 113/113 57/57 2/2
f 3/3 32/32 33/33
f 113/113 31/31 111/111
f 110/110 105/105 106/106
f 32/32 105/105 111/111
f 105/105 104/104 106/106
f 106/106 108/108 38/38
f 38/38 51/51 43/43
f 135/135 44/44 43/43
f 46/46 45/45 47/47
f 47/47 54/54 140/140
f 140/140 139/139 43/43
f 43/43 54/54 49/49
f 49/49 137/137 147/147
f 147/147 138/138 135/135
f 45/45 138/138 50/50
f 50/50 475/475 45/45
f 46/46 52/52 50/50
f 50/50 39/39 52/52
f 52/52 109/109 4/4
f 4/4 34/34 37/37
f 37/37 48/48 54/54
f 137/137 139/139 147/147
f 145/145 147/147 48/48
f 48/48 136/136 55/55
f 55/55 140/140 42/42
f 42/42 51/51 108/108
f 46/46 35/35 47/47
f 35/35 46/46 47/47
f 47/47 42/42 58/58
f 58/58 29/29 108/108
f 108/108 109/109 59/59
f 59/59 65/65 62/62
f 63/63 76/76 64/64
f 64/64 74/74 66/66
f 66/66 69/69 63/63
f 62/62 67/67 68/68
f 67/67 62/62 66/66
f 66/66 63/63 61/61
f 61/61 72/72 65/65
f 65/65 73/73 74/74
f 74/74 476/476 63/63
f 68/68 478/478 76/76
f 76/76 63/63 479/479
f 480/480 481/481 482/482
f 483/483 484/484 485/485
f 486/486 483/483 487/487
f 79/79 488/488 21/21
f 21/21 463/463 80/80
f 80/80 81/81 18/18
f 18/18 36/36 84/84
f 84/84 83/83 160/160
f 160/160 133/133 87/87
f 87/87 86/86 103/103
f 103/103 18/18 22/22
f 22/22 161/161 23/23
f 23/23 103/103 490/490
f 490/490 489/489 98/98
f 98/98 89/89 90/90
f 91/91 107/107 92/92
f 491/491 492/492 90/90
f 85/85 91/91 82/82
f 91/91 85/85 93/93
f 95/95 94/94 85/85
f 90/90 162/162 85/85
f 162/162 160/160 491/491
f 97/97 493/493 134/134
f 95/95 93/93 134/134
f 99/99 98/98 93/93
f 100/100 99/99 94/94
f 100/100 97/97 102/102
f 84/84 89/89 87/87
f 92/92 492/492 88/88
f 88/88 356/356 127/127
f 160/160 162/162 99/99
f 89/89 98/98 99/99
f 102/102 89/89 84/84
f 102/102 87/87 92/92
f 87/87 102/102 92/92
f 102/102 99/99 94/94
f 100/100 93/93 167/167
f 103/103 19/19 3/3
f 105/105 32/32 104/104
f 13/13 111/111 105/105
f 58/58 106/106 494/494
f 494/494 495/495 496/496
f 16/16 456/456 454/454
f 455/455 462/462 31/31
f 2/2 33/33 106/106
f 15/15 1/1 473/473
f 473/473 494/494 35/35
f 35/35 57/57 112/112
f 29/29 30/30 106/106
f 2/2 32/32 114/114
f 114/114 115/115 105/105
f 3/3 104/104 29/29
f 110/110 1/1 496/496
f 101/101 16/16 116/116
f 117/117 357/357 118/118
f 119/119 357/357 117/117
f 118/118 357/357 360/360
f 116/116 357/357 497/497
f 122/122 120/120 500/500
f 353/353 123/123 120/120
f 501/501 499/499 122/122
f 497/497 123/123 124/124
f 357/357 119/119 120/120
f 121/121 502/502 125/125
f 502/502 501/501 503/503
f 503/503 504/504 137/137
f 137/137 49/49 145/145
f 145/145 53/53 146/146
f 146/146 77/77 49/49
f 49/49 56/56 53/53
f 49/49 53/53 144/144
f 144/144 505/505 506/506
f 506/506 503/503 137/137
f 43/43 44/44 137/137
f 54/54 43/43 41/41
f 41/41 54/54 135/135
f 43/43 45/45 138/138
f 45/45 39/39 138/138
f 39/39 474/474 40/40
f 474/474 506/506 38/38
f 38/38 41/41 488/488
f 507/507 487/487 508/508
f 508/508 479/479 485/485
f 485/485 508/508 483/483
f 482/482 485/485 510/510
f 510/510 482/482 487/487
f 487/487 510/510 87/87
f 492/492 490/490 96/96
f 493/493 491/491 156/156
f 154/154 153/153 159/159
f 151/151 158/158 159/159
f 152/152 151/151 159/159
f 159/159 156/156 154/154
f 156/156 157/157 17/17
f 25/25 467/467 97/97
f 94/94 469/469 85/85
f 85/85 160/160 22/22
f 22/22 21/21 160/160
f 127/127 133/133 24/24
f 167/167 166/166 20/20
f 20/20 165/165 249/249
f 249/249 163/163 115/115
f 115/115 169/169 24/24
f 24/24 166/166 19/19
f 19/19 164/164 114/114
f 114/114 168/168 165/165
f 165/165 172/172 163/163
f 163/163 170/170 169/169
f 169/169 176/176 166/166
f 179/179 166/166 164/164
f 164/164 171/171 168/168
f 168/168 175/175 179/179
f 180/180 177/177 514/514
f 400/400 515/515 181/181
f 181/181 515/515 230/230
f 230/230 199/199 202/202
f 202/202 201/201 204/204
f 205/205 517/517 197/197
f 197/197 517/517 206/206
f 203/203 201/201 207/207
f 207/207 202/202 197/197
f 197/197 198/198 203/203
f 203/203 206/206 201/201
f 210/210 206/206 517/517
f 197/197 204/204 211/211
f 211/211 212/212 213/213
f 213/213 214/214 206/206
f 206/206 215/215 216/216
f 216/216 214/214 520/520
f 520/520 521/521 207/207
f 207/207 208/208 210/210
f 215/215 206/206 220/220
f 220/220 215/215 212/212
f 215/215 210/210 205/205
f 204/204 214/214 215/215
f 220/220 213/213 218/218
f 213/213 220/220 214/214
f 216/216 205/205 214/214
f 213/213 218/218 211/211
f 223/223 222/222 523/523
f 523/523 223/223 201/201
f 207/207 210/210 199/199
f 520/520 208/208 202/202
f 207/207 201/201 199/199
f 208/208 200/200 519/519
f 197/197 519/519 198/198
f 198/198 528/528 203/203
f 203/203 530/530 229/229
f 229/229 226/226 233/233
f 265/265 335/335 334/334
f 289/289 339/339 383/383
f 238/238 383/383 336/336
f 248/248 238/238 240/240
f 336/336 238/238 248/248
f 240/240 238/238 324/324
f 326/326 236/236 257/257
f 237/237 248/248 457/457
f 457/457 247/247 241/241
f 535/535 241/241 243/243
f 536/536 239/239 330/330
f 241/241 535/535 239/239
f 242/242 243/243 536/536
f 246/246 247/247 245/245
f 241/241 458/458 233/233
f 234/234 245/245 247/247
f 537/537 243/243 244/244
f 245/245 234/234 246/246
f 242/242 244/244 234/234
f 333/333 244/244 243/243
f 241/241 245/245 244/244
f 242/242 245/245 330/330
f 458/458 241/241 246/246
f 244/244 340/340 245/245
f 458/458 233/233 232/232
f 247/247 246/246 248/248
f 237/237 240/240 387/387
f 387/387 332/332 251/251
f 251/251 252/252 254/254
f 254/254 343/343 540/540
f 540/540 541/541 542/542
f 542/542 543/543 258/258
f 258/258 544/544 545/545
f 545/545 546/546 260/260
f 547/547 258/258 548/548
f 258/258 547/547 549/549
f 237/237 257/257 550/550
f 248/248 534/534 324/324
f 324/324 553/553 554/554
f 555/555 554/554 262/262
f 341/341 261/261 342/342
f 288/288 342/342 233/233
f 264/264 234/234 265/265
f 263/263 342/342 340/340
f 334/334 339/339 335/335
f 334/334 264/264 340/340
f 333/333 334/334 335/335
f 337/337 335/335 269/269
f 282/282 269/269 274/274
f 275/275 361/361 274/274
f 276/276 277/277 278/278
f 285/285 278/278 366/366
f 365/365 366/366 274/274
f 285/285 274/274 280/280
f 363/363 280/280 373/373
f 364/364 373/373 361/361
f 364/364 276/276 281/281
f 559/559 281/281 276/276
f 283/283 277/277 281/281
f 270/270 281/281 283/283
f 338/338 283/283 235/235
f 266/266 235/235 268/268
f 279/279 268/268 285/285
f 365/365 363/363 371/371
f 370/370 373/373 367/367
f 373/373 370/370 279/279
f 362/362 279/279 286/286
f 366/366 286/286 273/273
f 282/282 273/273 267/267
f 337/337 267/267 278/278
f 273/273 278/278 289/289
f 261/261 289/289 337/337
f 338/338 337/337 290/290
f 296/296 290/290 293/293
f 307/307 294/294 295/295
f 305/305 295/295 297/297
f 300/300 297/297 294/294
f 298/298 293/293 299/299
f 293/293 298/298 297/297
f 294/294 297/297 292/292
f 303/303 292/292 296/296
f 304/304 296/296 305/305
f 560/560 305/305 294/294
f 562/562 299/299 307/307
f 294/294 307/307 563/563
f 564/564 565/565 566/566
f 567/567 568/568 569/569
f 568/568 570/570 571/571
f 572/572 310/310 253/253
f 311/311 316/316 250/250
f 250/250 314/314 315/315
f 315/315 574/574 381/381
f 381/381 382/382 318/318
f 318/318 315/315 332/332
f 332/332 317/317 254/254
f 254/254 539/539 255/255
f 255/255 577/577 578/578
f 578/578 318/318 327/327
f 319/319 327/327 336/336
f 320/320 321/321 322/322
f 581/581 582/582 336/336
f 321/321 316/316 313/313
f 316/316 321/321 323/323
f 324/324 552/552 316/316
f 383/383 336/336 316/316
f 381/381 383/383 582/582
f 583/583 326/326 584/584
f 323/323 552/552 584/584
f 327/327 328/328 323/323
f 328/328 329/329 324/324
f 326/326 329/329 331/331
f 319/319 315/315 318/318
f 581/581 322/322 574/574
f 580/580 574/574 532/532
f 383/383 381/381 328/328
f 327/327 319/319 328/328
f 319/319 331/331 315/315
f 318/318 331/331 322/322
f 331/331 318/318 322/322
f 328/328 331/331 324/324
f 323/323 329/329 387/387
f 251/251 332/332 234/234
f 264/264 334/334 333/333
f 340/340 244/244 334/334
f 335/335 289/289 459/459
f 459/459 586/586 587/587
f 459/459 458/458 588/588
f 537/537 457/457 263/263
f 265/265 233/233 335/335
f 232/232 246/246 556/556
f 585/585 556/556 267/267
f 288/288 267/267 341/341
f 262/262 261/261 335/335
f 264/264 233/233 343/343
f 343/343 254/254 334/334
f 333/333 234/234 261/261
f 232/232 339/339 587/587
f 458/458 330/330 345/345
f 589/589 346/346 347/347
f 589/589 348/348 346/346
f 589/589 347/347 590/590
f 589/589 345/345 591/591
f 349/349 351/351 500/500
f 352/352 353/353 349/349
f 593/593 594/594 351/351
f 352/352 591/591 354/354
f 348/348 589/589 349/349
f 595/595 350/350 355/355
f 594/594 595/595 596/596
f 597/597 596/596 363/363
f 280/280 363/363 373/373
f 364/364 371/371 361/361
f 284/284 371/371 372/372
f 308/308 372/372 280/280
f 287/287 284/284 598/598
f 284/284 287/287 370/370
f 598/598 370/370 599/599
f 596/596 599/599 363/363
f 275/275 274/274 363/363
f 274/274 285/285 272/272
f 285/285 272/272 361/361
f 276/276 274/274 364/364
f 270/270 276/276 364/364
f 558/558 270/270 271/271
f 599/599 558/558 269/269
f 272/272 269/269 572/572
f 571/571 600/600 601/601
f 563/563 601/601 569/569
f 601/601 569/569 568/568
f 569/569 566/566 603/603
f 566/566 603/603 571/571
f 603/603 571/571 318/318
f 578/578 581/581 325/325
f 582/582 583/583 379/379
f 376/376 377/377 159/159
f 158/158 374/374 159/159
f 374/374 375/375 159/159
f 159/159 375/375 377/377
f 380/380 379/379 248/248
f 550/550 257/257 326/326
f 553/553 324/324 316/316
f 316/316 311/311 254/254
f 254/254 382/382 381/381
f 576/576 532/532 256/256
f 386/386 387/387 252/252
f 252/252 251/251 538/538
f 538/538 343/343 344/344
f 344/344 541/541 256/256
f 256/256 543/543 251/251
f 251/251 387/387 343/343
f 343/343 344/344 385/385
f 385/385 384/384 605/605
f 605/605 388/388 389/389
f 389/389 606/606 397/397
f 607/607 397/397 384/384
f 384/384 396/396 388/388
f 388/388 389/389 607/607
f 610/610 397/397 611/611
f 612/612 613/613 398/398
f 398/398 614/614 449/449
f 449/449 445/445 421/421
f 421/421 448/448 423/423
f 619/619 424/424 416/416
f 416/416 621/621 425/425
f 420/420 422/422 426/426
f 421/421 426/426 416/416
f 417/417 416/416 422/422
f 425/425 422/422 420/420
f 425/425 429/429 619/619
f 423/423 416/416 430/430
f 431/431 430/430 432/432
f 433/433 432/432 425/425
f 434/434 425/425 435/435
f 433/433 435/435 622/622
f 623/623 622/622 426/426
f 427/427 426/426 429/429
f 425/425 434/434 439/439
f 434/434 439/439 431/431
f 429/429 434/434 424/424
f 433/433 423/423 434/434
f 432/432 439/439 437/437
f 439/439 432/432 433/433
f 424/424 435/435 433/433
f 437/437 432/432 430/430
f 441/441 442/442 625/625
f 442/442 625/625 420/420
f 429/429 426/426 418/418
f 427/427 622/622 421/421
f 420/420 426/426 418/418
f 419/419 427/427 417/417
f 422/422 420/420 448/448
f 448/448 421/421 454/454
f 462/462 636/636 495/495
f 495/495 637/637 2/2
f 2/2 31/31 247/247
f 457/457 537/537 587/587
f 587/587 638/638 459/459
