# MOD converted: h_w_celebrite_hair.mod
# 887 verts, 735 faces

v 145.513275 -6.234750 13.189905
v 153.677551 -17.329626 16.497025
v 152.515472 -12.742720 6.872287
v 154.196655 -20.900879 0.000009
v 154.341736 -21.352406 12.571693
v 149.863983 -12.157952 0.000002
v 152.363739 -14.655979 16.288383
v 145.846252 -8.072155 -21.796618
v 145.513275 -6.234740 -13.189905
v 153.677551 -17.329624 -16.497023
v 152.515472 -12.742718 -6.872280
v 154.196655 -20.900881 -0.000000
v 154.341736 -21.352406 -12.571694
v 149.863983 -12.157952 0.000002
v 152.363739 -14.655979 -16.288380
v 145.846252 -8.072159 20.927204
v 152.399353 -8.471591 13.189899
v 153.677551 -18.346767 8.494851
v 161.639923 -16.681702 16.837276
v 152.786285 -12.613121 17.852787
v 158.123749 -11.788898 13.064698
v 146.442017 -18.484190 12.945247
v 138.461792 -16.722532 13.944776
v 93.256226 -10.321137 16.419773
v 145.800690 -11.871131 23.608383
v 152.137482 -1.714118 9.284172
v 165.694580 -10.082392 24.355194
v 132.890991 5.231534 15.984391
v 163.166260 -7.158551 26.259285
v 159.387024 5.231659 27.964108
v 147.411407 7.239033 27.744358
v 137.631714 10.146933 15.066420
v 146.661591 28.310152 11.989316
v 163.874939 27.668346 20.798567
v 161.768250 16.729750 24.550556
v 144.653992 18.271988 7.070850
v 138.861481 -19.841978 6.617502
v 146.791809 -21.379362 6.872287
v 154.196655 -20.900879 0.352360
v 139.309784 -20.657610 16.133642
v 141.068909 30.617590 26.478077
v 139.220215 20.531551 12.920554
v 130.415710 26.276001 24.213739
v 129.238068 11.589784 16.363031
v 131.460693 3.863538 0.000001
v 123.522591 5.340424 21.787174
v 137.583923 -0.785016 17.758677
v 127.930130 6.238551 22.501812
v 120.255287 13.406461 23.424906
v 122.469582 21.938190 13.250705
v 124.191971 30.058580 15.324251
v 92.679901 -6.443427 24.854301
v 140.584595 2.732185 24.791704
v 146.137817 0.714128 28.271301
v 152.349182 6.295715 21.489836
v 158.539459 -3.986605 14.733333
v 119.027985 8.294558 25.911667
v 153.911102 18.798927 16.784956
v 136.325623 0.411475 26.451313
v 142.532837 8.307106 10.006941
v 125.059021 4.285979 15.151628
v 155.625305 30.849606 21.737024
v 138.978943 -3.108278 16.403511
v 145.777252 -9.094480 6.766217
v 138.967621 -20.047920 12.710184
v 138.498688 -17.069187 15.983840
v 137.877045 -11.704299 19.068085
v 112.881508 20.501017 10.534145
v 112.643639 11.244492 17.464045
v 108.308113 15.932063 19.804543
v 109.606544 21.598167 11.235539
v 111.077354 28.656046 11.755885
v 106.332367 11.955691 14.040598
v 102.615448 16.642855 14.139316
v 100.127434 19.895624 8.395185
v 100.761307 13.718081 12.443386
v 96.986320 16.193924 14.574447
v 97.673012 20.107635 7.387045
v 98.546806 24.593729 8.058952
v 94.236984 13.479713 21.796621
v 145.513275 -6.234750 26.291084
v 149.452942 20.189020 15.107273
v 151.313843 31.061434 26.353256
v 134.689880 20.906986 15.562417
v 136.292755 30.631598 27.364012
v 133.235138 11.020860 22.453777
v 118.647804 22.018375 19.127056
v 114.881226 15.143464 12.157866
v 119.983818 29.579004 19.006430
v 105.783531 21.988089 16.991709
v 104.716713 16.542398 10.552230
v 106.950356 27.421242 10.672762
v 93.112831 16.250128 12.703202
v 93.758858 19.579268 6.411413
v 94.584412 23.568054 23.345221
v 130.603088 19.360018 21.984739
v 127.082466 19.645638 21.544418
v 125.619469 12.933875 15.189806
v 124.373756 7.035366 17.407290
v 111.761871 15.819070 10.019691
v 116.106972 25.889313 19.443110
v 115.686493 20.655787 12.264402
v 99.256897 16.530895 7.043026
v 102.946861 23.476854 15.071263
v 102.910866 20.517542 6.144566
v 89.129295 18.442245 3.233959
v 89.310562 19.711960 5.361758
v 89.011360 16.700649 14.242961
v 125.384926 -11.913582 11.859573
v 113.852478 -11.767429 14.320275
v 111.567421 -5.815089 17.721064
v 122.164207 -4.326334 15.529525
v 120.548508 -11.007368 14.328417
v 116.973824 -10.927916 17.203205
v 114.505028 -4.313246 18.554750
v 117.818001 -3.823800 16.447809
v 102.331841 -5.674780 13.599068
v 106.649559 -6.231297 10.877975
v 108.345406 -11.764675 13.982450
v 103.459953 -10.479428 10.618833
v 111.085434 -11.931041 13.533642
v 109.105209 -6.046296 14.505520
v 95.978157 -6.504229 16.349258
v 99.026550 -5.663069 14.088556
v 99.970749 -10.147709 12.956863
v 96.738052 -10.710365 -13.189886
v 153.677551 -18.346769 -16.837265
v 152.786255 -12.613127 -17.852770
v 158.123718 -11.788900 -20.927197
v 152.399323 -8.471606 -8.494843
v 161.639923 -16.681705 0.000009
v 154.341736 -21.352406 -6.872280
v 154.196655 -20.900879 -16.419762
v 145.800659 -11.871128 -13.064686
v 146.441986 -18.484196 -12.945229
v 138.461792 -16.722538 0.000008
v 147.094116 -22.041662 -21.489832
v 158.539398 -3.986649 -9.284167
v 165.694580 -10.082394 0.000004
v 162.929565 -16.893675 -15.984388
v 163.166229 -7.158557 -6.617488
v 146.791809 -21.379364 -0.352358
v 139.309784 -20.657608 -16.239925
v 114.232719 -6.369638 -17.694803
v 117.522850 -6.052753 -13.908603
v 120.315681 -12.764910 -12.616871
v 116.754425 -12.584761 -15.151633
v 155.625275 30.849604 -25.911665
v 153.911041 18.798935 -26.291084
v 149.452881 20.189024 -15.107281
v 151.313812 31.061432 -20.798565
v 161.768219 16.729753 -26.259281
v 159.386963 5.231660 -28.271301
v 152.349121 6.295718 -7.070839
v 138.861481 -19.841980 0.000004
v 166.861786 -10.207252 -0.000004
v 147.496094 32.618668 -0.000004
v 152.046539 35.327682 -15.066424
v 146.661591 28.310156 -26.478073
v 139.220154 20.531557 -16.133638
v 141.068909 30.617594 -24.550560
v 144.653931 18.271986 -26.451317
v 142.532776 8.307102 -27.964104
v 147.411346 7.239030 -0.000001
v 142.221466 35.474052 -26.353254
v 134.689819 20.906990 -15.562429
v 136.292725 30.631596 -27.744354
v 137.631653 10.146933 -27.364012
v 133.235046 11.020861 -12.920561
v 130.415680 26.275999 -0.000002
v 131.257095 30.444437 -0.000007
v 137.289734 35.248581 -21.984737
v 127.082428 19.645639 -23.424868
v 122.176163 21.938208 -13.250661
v 124.191994 30.058577 -21.930437
v 125.505165 12.278295 -22.501768
v 120.255470 13.406421 0.000022
v 125.055321 33.870766 -24.355183
v 132.890945 5.231547 -21.787165
v 137.583893 -0.785012 -15.189806
v 124.373718 7.035367 -14.733296
v 119.028069 8.294539 -10.006933
v 125.059036 4.285981 0.000022
v 118.362099 6.769564 -23.608379
v 152.137421 -1.714114 -24.791693
v 146.137787 0.714143 -21.796616
v 145.513245 -6.234735 -24.854298
v 140.584534 2.732196 -16.363035
v 131.460709 3.863539 -17.758671
v 127.930092 6.238549 -16.784954
v 136.325653 0.411473 -11.989327
v 163.874908 27.668344 -0.000004
v 156.256195 34.949287 -21.737017
v 138.978912 -3.108275 -6.766202
v 138.967621 -20.047926 -12.710171
v 138.498688 -17.069191 -15.983830
v 137.877045 -11.704306 -16.403502
v 145.777222 -9.094482 -0.000001
v 164.429779 31.661057 -19.443064
v 115.400032 20.655777 -22.453728
v 118.300545 22.018375 -19.127014
v 114.881264 15.143458 -10.019647
v 116.106972 25.889313 -12.157822
v 119.983826 29.579004 0.000028
v 116.493584 29.014318 0.000021
v 120.637894 32.943626 0.000029
v 112.103615 9.758654 -10.534101
v 112.643654 11.244487 -17.463987
v 108.308197 15.932045 -19.804493
v 109.606506 21.598175 -19.068039
v 112.881531 20.501009 -17.407240
v 111.761864 15.819076 -11.235488
v 111.077339 28.656050 0.000025
v 111.778442 31.899424 0.000018
v 105.960899 10.194671 -11.755830
v 106.332367 11.955696 -14.040354
v 102.617432 16.642521 -15.071001
v 102.912125 20.517332 -19.006647
v 105.789703 21.987032 -16.991966
v 104.723030 16.541313 -7.042719
v 102.947083 23.476820 -10.552270
v 106.942055 27.422663 0.000135
v 103.261124 25.613110 0.000026
v 107.449303 30.129557 -8.394898
v 100.741219 13.721488 -12.443330
v 96.986252 16.193939 -14.574393
v 97.673004 20.107641 -14.139261
v 100.127556 19.895607 -12.264350
v 99.257050 16.530876 -7.386981
v 98.546745 24.593739 0.000028
v 98.868881 26.716045 -8.058886
v 94.237030 13.479702 -12.703143
v 93.758820 19.579273 -10.672697
v 93.112953 16.250107 -5.361702
v 89.011223 16.700670 -6.144498
v 89.129227 18.442257 -6.411355
v 94.584305 23.568068 -3.233899
v 89.310562 19.711960 0.000028
v 94.804535 25.268070 0.000035
v 89.562363 20.361460 0.000026
v 94.075729 12.296948 0.000031
v 89.168640 15.057676 -23.345219
v 130.603027 19.360018 -24.213736
v 129.238022 11.589784 0.000028
v 84.261612 20.190601 -16.962055
v 121.904350 -6.269180 -13.122636
v 125.230484 -13.047598 -8.950418
v 108.183945 -12.983907 -12.109307
v 103.247505 -12.083795 -15.126079
v 102.074768 -7.616241 -12.301024
v 106.438675 -7.823879 -10.013476
v 113.674393 -13.112391 -13.147456
v 111.343773 -7.504063 -12.198645
v 99.756714 -11.764091 -10.954266
v 96.543365 -12.180646 -12.994013
v 95.754257 -8.195154 -14.976104
v 98.771492 -7.589251 -12.298596
v 108.894890 -7.634701 -8.717322
v 110.927994 -13.120008 -11.925824
v 93.045586 -11.911899 -13.760410
v 92.443092 -8.231833 0.000027
v 100.478439 12.485427 21.737024
v 138.978943 -3.108278 21.796621
v 145.513275 -6.234750 16.288383
v 145.846252 -8.072155 15.984391
v 163.166260 -7.158551 26.259285
v 159.387024 5.231659 13.935628
v 173.917603 25.223595 11.226923
v 179.740479 1.927049 19.012907
v 175.568054 2.559657 11.989316
v 163.874939 27.668346 20.798567
v 161.768250 16.729750 10.458943
v 173.274078 -11.011320 17.706821
v 169.003143 -9.516105 24.725439
v 166.020416 4.240088 13.486150
v 179.264557 17.876659 20.622723
v 170.783417 14.751443 0.474121
v 160.303497 -20.202232 9.284172
v 165.694580 -10.082392 16.876719
v 163.231750 -12.889097 19.511463
v 155.146790 -9.834647 20.329639
v 159.682678 -13.076818 13.727775
v 158.665894 -17.469025 14.977345
v 153.837341 -17.367876 15.521010
v 156.448242 -18.972012 6.701143
v 155.010132 -21.803331 10.358936
v 164.016846 32.774620 15.934937
v 165.172668 28.470711 7.808359
v 153.977325 36.696564 21.625692
v 157.434509 29.179544 18.826361
v 148.525665 32.407471 0.003589
v 164.429779 31.661057 -2.107678
v 161.411041 35.392883 -5.648735
v 175.120026 17.679798 -4.745240
v 169.956818 30.036821 0.002567
v 166.861816 -10.207253 21.489836
v 158.539459 -3.986605 22.378641
v 162.673553 -7.279923 -431602080.000000
v -431602080.000000 -431602080.000000 23.402477
v 153.268799 26.270203 -2.727505
v 171.407532 -6.623998 -4.411646
v 176.649719 2.955485 -19.013662
v 174.503418 2.598128 -17.241108
v 169.414246 -9.207106 -23.302692
v 163.717102 -7.035820 -11.486580
v 176.183289 15.808781 -10.264245
v 177.592163 1.990335 -11.980492
v 163.874939 29.122732 -8.429889
v 172.474701 -11.009773 -21.154337
v 169.293060 14.840044 -25.452394
v 168.070282 3.783460 -12.946692
v 170.320374 25.924339 -20.784470
v 161.768219 16.729748 -9.277548
v 165.694580 -10.082392 -15.973815
v 163.166290 -7.158553 -3.327738
v 160.071045 -19.108040 3.568758
v 161.029663 -18.636047 -20.860111
v 161.298279 -12.599799 -21.032320
v 156.101074 -9.051670 -26.259281
v 159.386963 5.231660 -23.251595
v 157.064301 -4.224880 -16.732271
v 165.119171 -13.113289 -17.467026
v 158.732239 -16.987225 -17.452887
v 155.273346 -14.764729 -15.062798
v 161.499817 -15.866037 -9.630534
v 155.530792 -20.225060 -15.869164
v 165.434631 30.316687 -10.350536
v 164.016846 33.915894 -20.923336
v 158.203613 33.992470 -8.062709
v 152.730835 35.590195 -18.208220
v 146.778503 28.204851 -24.193392
v 151.918335 -7.723974 -33.007114
v 151.169098 17.059931 21.489836
v 158.539459 -3.986605 -15.692729
v 155.456879 30.414112 -13.301540
v 154.745758 35.224716 1.774767
v 179.827545 2.367965 4.671706
v 174.257507 28.636324 3.099328
v 174.464233 -8.833159 3.776844
v 179.448364 18.964912 10.598165
v 160.923248 -16.692268 7.087430
v 167.076050 -15.442892 9.846498
v 164.251984 -18.307442 -6.997729
v 163.009796 -15.470650 -11.754663
v 160.986816 -16.285267 -11.006268
v 164.266510 -17.963701 -6.117115
v 166.246460 -16.190447 -3.625025
v 162.442444 -16.879055 -1.651798
v 165.107117 -17.896328 1.616841
v 164.420593 -14.926012 -28.811396
v 156.012054 15.463921 -30.103699
v 155.655029 12.436123 -26.025038
v 154.965668 16.484940 -28.027027
v 154.080994 10.557194 -11.227772
v 141.186798 34.482903 -18.341793
v 155.993744 32.412537 -13.988471
v 156.256561 34.525108 -21.501867
v 155.082550 25.923269 -13.274726
v 148.780457 35.204895 -18.580242
v 147.389465 30.470104 -16.025003
v 148.254456 33.703705 1.179791
v 165.100616 31.593258 -5.622425
v 153.768250 36.393890 -7.473293
v 164.584961 29.707611 10.712279
v 139.312897 35.364510 5.533422
v 164.534088 29.865858 2.193708
v 153.415039 37.414719 7.232877
v 151.841553 34.502228 -1.895932
v 146.407135 38.175598 3.815245
v 149.334503 38.042984 28.379469
v 172.725952 16.099304 20.528885
v 173.081573 17.724636 23.499645
v 172.521149 9.934607 22.985252
v 170.658936 16.325422 24.481087
v 172.514954 17.131582 25.947575
v 172.234741 12.999332 25.745142
v 171.063049 16.355583 26.223471
v 159.644623 19.411385 22.709452
v 162.026093 21.347229 22.681583
v 159.011139 17.039383 26.191072
v 155.808014 16.232712 15.846854
v 156.134674 31.303028 20.293232
v 159.263397 22.810520 20.028473
v 163.767731 25.604942 -26.405220
v 161.006714 -0.529513 26.259285
v 159.387024 5.231659 -23.548689
v 135.504242 2.223204 -19.215958
v 136.970032 1.761421 23.548693
v 135.504333 2.223195 19.215969
v 136.970062 1.761406 26.106007
v 158.575989 -1.907263 21.916019
v 158.448517 -9.898058 20.580820
v 152.148743 -13.180129 20.859402
v 142.128693 -13.582848 24.154654
v 138.921906 -7.532387 28.240438
v 138.861572 0.290525 29.578993
v 145.426971 3.653277 29.362839
v 155.263702 4.185174 27.537075
v 155.723297 -1.204435 24.808222
v 155.725220 -6.458674 22.494877
v 152.987518 -11.171137 22.722067
v 147.072510 -11.291315 24.187222
v 141.829132 -8.964448 26.916075
v 141.827209 -3.710187 29.229424
v 144.564880 1.002266 29.002230
v 150.479919 1.122461 25.099632
v 153.268646 -1.554361 23.231791
v 153.713531 -5.108974 21.772663
v 151.463501 -8.130635 21.722115
v 147.451843 -8.606163 22.889318
v 144.100922 -6.674605 24.757164
v 143.656036 -3.120003 26.216291
v 145.906036 -0.098317 26.266844
v 149.917694 0.377211 23.824253
v 151.073059 -2.367833 22.836016
v 151.308411 -4.248561 22.064016
v 150.117981 -5.847282 22.037273
v 147.995453 -6.098879 22.654823
v 146.222534 -5.076916 23.643066
v 145.987183 -3.196218 24.415058
v 147.177643 -1.597520 24.441801
v 149.300110 -1.345922 23.183609
v 148.645050 -3.693359 27.562304
v 136.769165 -2.611324 31.631834
v 152.518860 6.641567 19.874737
v 145.228271 -16.616364 24.053312
v 160.775360 -7.464825 25.072540
v 160.161163 -3.658731 21.552094
v 156.105133 -10.908827 19.686918
v 149.624451 -15.133823 22.372749
v 140.968597 -10.783731 25.307844
v 137.270447 -5.506207 28.726456
v 141.402435 1.504516 30.540661
v 147.497803 5.720953 27.968119
v 156.048157 1.552818 26.046453
v 153.499207 -1.936284 23.887201
v 153.360138 -6.296649 24.993113
v 154.585968 -7.216549 23.765224
v 150.776276 -2.822168 24.370634
v 149.303589 -1.795238 27.596590
v 149.315643 0.464539 23.074043
v 150.890198 -4.142264 30.477917
v 151.772278 1.092933 30.921293
v 154.585510 1.144789 29.437729
v 149.696747 0.880690 30.101828
v 157.732910 -1.027960 27.838495
v 158.295197 -4.473964 26.314428
v 156.979370 -6.433023 29.079491
v 153.204895 -0.800771 27.235254
v 155.465454 -4.138888 22.592712
v 151.605621 -8.765001 22.864338
v 146.633301 -8.900347 23.616045
v 146.614746 -10.619589 22.348013
v 149.694275 -5.652994 22.981527
v 150.883514 -4.321014 24.310665
v 154.543152 -5.369732 22.352844
v 148.205566 -5.784032 25.489174
v 156.657257 -8.052414 24.574896
v 156.711090 -10.874895 25.465033
v 155.335663 -6.237197 23.064354
v 154.313507 -13.640533 23.107077
v 150.339050 -14.301901 23.312738
v 147.630035 -13.094205 24.587444
v 154.100250 -9.365852 23.692411
v 150.295715 -11.447906 23.761047
v 143.960846 -7.236059 26.130369
v 144.116302 -2.848833 28.136074
v 143.106903 -3.019240 22.969091
v 146.531830 -4.755232 22.363680
v 148.004456 -5.782119 22.280005
v 147.900024 -9.906067 23.660273
v 146.417908 -3.435080 23.255434
v 146.170990 -13.342099 23.926632
v 143.218933 -13.395081 23.052256
v 147.746613 -11.598459 25.388041
v 139.759216 -11.185970 27.337471
v 139.109406 -7.214885 28.180838
v 140.623413 -4.381165 24.448311
v 144.561523 -10.533015 26.488819
v 142.060333 -6.839779 27.214788
v 145.854401 -0.407324 26.958422
v 150.585693 -0.644544 28.834496
v 151.041656 -0.154061 24.386301
v 147.613800 -1.924303 23.752787
v 146.424561 -3.256295 25.571970
v 143.018372 -4.027572 24.381468
v 149.102478 -1.793372 28.678854
v 141.015381 -3.385259 30.345072
v 140.488739 -1.293786 27.059559
v 141.873993 -4.435997 32.777817
v 143.271729 1.593558 32.051350
v 147.896027 2.690099 30.855293
v 150.042603 1.656504 29.008112
v 143.416687 -1.861016 29.963896
v 147.479492 0.362416 27.161043
v 149.796356 -0.982817 26.006672
v 152.595978 -3.093116 28.173941
v 153.154449 -3.879086 24.288898
v 149.319550 -2.082087 24.271683
v 147.688690 -2.269034 27.204767
v 145.905792 -1.416918 23.862482
v 150.301422 -2.810566 30.981058
v 146.354370 -1.279245 32.481121
v 147.802216 -0.364760 29.439655
v 145.788361 -2.136335 32.852425
v 150.709961 -0.061479 31.620892
v 153.174713 -1.514698 29.842991
v 153.858124 -2.763212 30.473490
v 148.393890 -1.553669 29.957775
v 151.694855 -2.235479 24.600735
v 152.982086 -5.612369 23.396193
v 150.549713 -8.312531 25.197561
v 150.933594 -9.819544 23.040125
v 150.594177 -4.366475 23.799164
v 150.420563 -2.921252 26.423965
v 152.577728 -2.291367 22.619629
v 149.751892 -5.255544 29.275253
v 154.670471 -3.779980 29.344118
v 156.167358 -5.616518 28.554352
v 153.142365 -3.147760 27.851904
v 156.565125 -8.168510 26.920218
v 154.751740 -10.417238 25.711800
v 152.737061 -10.823559 28.052391
v 154.135986 -5.674191 26.563677
v 153.294952 -8.620005 23.334785
v 147.698517 -8.548082 24.753120
v 144.991608 -6.223733 27.063299
v 144.102631 -7.476555 22.552366
v 147.993805 -5.550800 22.569584
v 149.624603 -5.363902 23.308994
v 151.556305 -8.385542 22.978788
v 147.011932 -4.822289 25.309385
v 152.077423 -11.660597 25.631401
v 150.329895 -13.315724 25.150379
v 152.186218 -9.792297 25.639259
v 147.086639 -13.820683 26.583170
v 144.385742 -12.043450 26.810469
v 143.505707 -9.578338 25.560354
v 149.545776 -10.905357 26.130957
v 145.893524 -10.150967 25.881866
v 144.773987 -3.919346 27.079664
v 147.151184 -1.540336 29.427872
v 146.894684 -2.027960 23.801147
v 146.719177 -3.266397 23.042101
v 146.892761 -4.711606 24.190845
v 145.102325 -7.295962 24.221640
v 147.561432 -2.377344 27.202997
v 143.113922 -8.859447 28.857290
v 141.701447 -7.917663 26.100370
v 144.426575 -8.694613 30.904364
v 141.118347 -5.614985 31.281200
v 143.117065 -3.116909 30.730732
v 145.200256 -1.870035 27.958368
v 143.599487 -6.848540 29.548140
v 144.497620 -3.702703 27.681644
v 146.827545 -2.554026 30.352613
v 147.086426 -4.022151 27.955427
v 149.972687 -1.919104 30.555212
v 150.181427 -2.870025 24.340185
v 147.683533 -1.988473 23.774902
v 146.811890 -3.159044 26.715330
v 144.829071 -4.791857 24.359766
v 149.237701 -1.804165 29.207659
v 144.710754 -5.978982 31.391293
v 145.251373 -4.919826 32.744976
v 146.205139 -3.393734 32.171661
v 148.651489 -3.114924 26.965799
v 151.645172 -3.630833 29.389406
v 151.799683 -4.790823 25.600657
v 151.886841 -6.419963 27.903450
v 152.705261 -7.536101 23.962112
v 150.376038 -2.840865 24.393946
v 149.111053 -2.128673 27.939396
v 149.429596 -2.148322 23.134254
v 150.483307 -4.424768 30.791748
v 149.767151 -3.219556 31.799938
v 151.329346 -3.600936 31.645813
v 153.558838 -5.122067 29.811420
v 153.657318 -7.210155 24.703066
v 150.563965 -7.937108 27.085255
v 150.852570 -9.317011 24.633255
v 147.473389 -8.551637 26.666838
v 147.700592 -9.964648 22.543709
v 149.663086 -5.260894 22.977398
v 150.529999 -4.344084 25.873352
v 152.617035 -5.678895 22.524128
v 148.108887 -5.445121 27.895481
v 153.139130 -7.086174 28.490543
v 153.053528 -9.233710 28.226002
v 151.563293 -11.053953 27.593153
v 149.355042 -11.310317 25.642733
v 146.091034 -6.937765 27.809032
v 146.372864 -7.878717 27.064560
v 145.314667 -4.448399 29.336143
v 145.351929 -5.427816 23.027683
v 146.818939 -4.778296 22.607979
v 148.023895 -5.472861 24.835070
v 148.247040 -8.464863 23.699327
v 146.658966 -3.500129 26.904484
v 148.492554 -9.813904 28.231075
v 146.588898 -10.443298 29.256119
v 144.527802 -9.866886 29.924208
v 144.556244 -7.374773 30.765202
v 148.958771 -7.575508 29.466164
v 147.021729 -6.386619 29.977751
v 147.888794 -5.319806 29.995527
v 149.321594 -5.150492 29.578873
v 150.518707 -5.839923 28.913998
v 150.662384 -7.106604 28.390480
v 149.873901 -8.188968 28.362352
v 148.435486 -8.378726 28.789356
v 147.243988 -7.668874 24.300983
v 149.048431 -2.147745 23.862738
v 150.210480 -2.882117 23.197021
v 150.429077 -4.143363 22.693823
v 149.576263 -5.192680 26.796598
v 149.335541 -2.609963 25.244843
v 151.284515 -5.414157 24.535429
v 150.082153 -6.893504 28.382895
v 151.073608 -4.744353 26.183361
v 150.976288 -3.636002 28.971191
v 149.429169 -3.766606 31.643709
v 149.462646 -5.555491 30.187346
v 149.338745 -5.210881 24.430584
v 148.878571 -7.279950 27.435263
v 151.372833 -6.540819 28.098259
v 150.806610 -9.250864 29.754972
v 150.527313 -5.931365 31.557566
v 150.937683 -6.645473 26.720135
v 150.237488 -8.024853 26.391039
v 149.827087 -8.765382 29.078165
v 150.749603 -7.213623 30.454082
v 151.521820 -8.463755 30.168375
v 147.885162 -5.384448 25.811857
v 146.074738 -4.592690 29.524639
v 146.110992 -7.525861 27.273621
v 146.486237 -7.312750 28.241335
v 146.073944 -5.923202 22.647902
v 148.151520 -5.415423 23.086155
v 146.989441 -4.681117 24.470688
v 148.073547 -7.207524 25.006767
v 146.417328 -6.331444 26.664967
v 148.177887 -8.325237 29.019699
v 147.090607 -7.766878 30.235472
v 146.792236 -8.820845 23.530207
v 146.812744 -3.621934 26.729395
v 150.176483 -8.012778 28.575089
v 149.973846 -8.255430 29.907652
v 150.000610 -8.912910 22.696312
v 149.559845 -5.189425 24.554970
v 150.063965 -6.857594 27.458246
v 151.221283 -6.510859 29.090090
v 150.671021 -7.198062 23.751862
v 146.770813 -3.419892 24.255058
v 147.623657 -2.370615 23.119688
v 147.025024 -4.613204 26.027054
v 146.127075 -4.394217 26.736475
v 147.327545 -2.928348 25.088541
v 146.435303 -6.172282 28.924046
v 147.407166 -4.048025 27.279737
v 146.547791 -7.295154 28.982441
v 147.261841 -7.726755 28.213573
v 146.241089 -5.525955 30.626312
v 146.982361 -7.519361 32.117794
v 147.708893 -5.332950 28.988922
v 149.438782 -3.731521 31.103252
v 149.703217 -4.216105 31.643797
v 146.771057 -6.747954 29.648958
v 147.082886 -6.460218 29.039223
v 150.669189 -4.080294 26.396736
v 150.863525 -3.364914 24.334789
v 149.069916 -2.080757 26.812428
v 149.344147 -2.578607 30.276306
v 147.895081 -5.455361 23.939190
v 150.330750 -2.852484 28.898115
v 148.497650 -8.475327 30.234278
v 148.486633 -9.365242 28.725939
v 129.996490 0.944934 24.869831
v 146.046692 -1.603296 23.802290
v 145.130005 -3.552191 25.975969
v 128.671677 -2.259077 25.138277
v 117.282516 -2.344490 23.872763
v 144.917816 -3.638881 22.465393
v 146.095184 -6.089175 22.188553
v 116.725746 -5.803103 26.427252
v 136.812347 3.252064 26.108603
v 146.046722 -0.161233 25.041059
v 145.130005 -1.889337 23.677258
v 135.602234 0.615927 22.008102
v 135.329895 -8.469163 22.123581
v 148.938263 -5.615725 21.840576
v 149.446655 -7.299991 19.486591
v 136.544495 -11.322506 16.837276
v 152.786285 -12.613121 17.852787
v 158.123749 -11.788898 16.419773
v 145.800690 -11.871131 15.189806
v 124.373756 7.035366 14.733333
v 119.027985 8.294558 20.927204
v 152.399353 -8.471591 21.489836
v 158.539459 -3.986605 21.489836
v 158.539459 -3.986605 24.355194
v 132.890991 5.231534 21.796621
v 145.513275 -6.234750 21.737024
v 138.978943 -3.108278 23.548693
v 135.504333 2.223195 21.737024
v 138.978943 -3.108278 21.787174
v 137.583923 -0.785016 10.534145
v 112.643639 11.244492 11.755885
v 106.332367 11.955691 8.058952
v 94.236984 13.479713 5.361758
v 89.011360 16.700649 17.758677
v 127.930130 6.238551 0.000028
v 84.261612 20.190601 8.395185
v 100.761307 13.718081 -17.852770
v 158.123718 -11.788900 -16.837265
v 152.786255 -12.613127 0.000009
v 154.341736 -21.352406 0.000008
v 147.094116 -22.041662 -16.419762
v 145.800659 -11.871128 0.000004
v 162.929565 -16.893675 0.000004
v 166.861786 -10.207252 -0.000004
v 147.496094 32.618668 -0.000004
v 152.046539 35.327682 -0.000001
v 142.221466 35.474052 -0.000002
v 131.257095 30.444437 -0.000007
v 137.289734 35.248581 0.000022
v 125.055321 33.870766 -14.733296
v 119.028069 8.294539 -15.189806
v 124.373718 7.035367 0.000022
v 118.362099 6.769564 0.000001
v 123.522591 5.340424 -20.927197
v 152.399323 -8.471606 -21.489832
v 158.539398 -3.986649 -21.489832
v 158.539398 -3.986649 -24.355183
v 132.890945 5.231547 -0.000004
v 156.256195 34.949287 -21.737017
v 138.978912 -3.108275 -21.796616
v 145.513245 -6.234735 -23.548689
v 135.504242 2.223204 -21.737017
v 138.978912 -3.108275 -21.787165
v 137.583893 -0.785012 -0.000001
v 164.429779 31.661057 0.000021
v 120.637894 32.943626 0.000028
v 116.493584 29.014318 0.000029
v 112.103615 9.758654 -10.534101
v 112.643654 11.244487 0.000025
v 111.778442 31.899424 0.000018
v 105.960899 10.194671 -11.755830
v 106.332367 11.955696 0.000026
v 107.449303 30.129557 0.000135
v 103.261124 25.613110 0.000028
v 98.868881 26.716045 0.000028
v 94.804535 25.268070 0.000035
v 89.562363 20.361460 -8.058886
v 94.237030 13.479702 0.000031
v 89.168640 15.057676 -5.361702
v 89.011223 16.700670 0.000026
v 94.075729 12.296948 -17.758671
v 127.930092 6.238549 0.000028
v 84.261612 20.190601 0.000028
v 84.261612 20.190601 -8.394898
v 100.741219 13.721488 0.000027
v 100.478439 12.485427 19.012907
v 175.568054 2.559657 24.725439
v 166.020416 4.240088 11.989316
v 163.874939 27.668346 13.935628
v 173.917603 25.223595 20.622723
v 170.783417 14.751443 13.486150
v 179.264557 17.876659 13.935628
v 173.917603 25.223595 10.458943
v 173.274078 -11.011320 7.087430
v 167.076050 -15.442892 10.598165
v 160.923248 -16.692268 15.984391
v 163.166260 -7.158551 10.458943
v 173.274078 -11.011320 9.284172
v 165.694580 -10.082392 22.378641
v 162.673553 -7.279923 17.706821
v 169.003143 -9.516105 15.984391
v 163.166260 -7.158551 21.489836
v 158.539459 -3.986605 19.511463
v 155.146790 -9.834647 15.984391
v 163.166260 -7.158551 14.977345
v 153.837341 -17.367876 13.727775
v 158.665894 -17.469025 13.727775
v 158.665894 -17.469025 6.701143
v 155.010132 -21.803331 11.989316
v 163.874939 27.668346 15.934937
v 165.172668 28.470711 -2.107678
v 161.411041 35.392883 21.625692
v 157.434509 29.179544 11.989316
v 163.874939 27.668346 11.989316
v 163.874939 27.668346 21.625692
v 157.434509 29.179544 10.358936
v 164.016846 32.774620 11.989316
v 163.874939 27.668346 7.808359
v 153.977325 36.696564 18.826361
v 148.525665 32.407471 18.826361
v 148.525665 32.407471 11.989316
v 163.874939 27.668346 20.798567
v 161.768250 16.729750 22.709452
v 162.026093 21.347229 20.622723
v 170.783417 14.751443 26.259285
v 159.387024 5.231659 26.191072
v 155.808014 16.232712 -2.727505
v 171.407532 -6.623998 -4.411646
v 176.649719 2.955485 -4.745240
v 169.956818 30.036821 -11.754663
v 160.986816 -16.285267 -15.973815
v 163.166290 -7.158553 -8.429889
v 172.474701 -11.009773 -6.117115
v 166.246460 -16.190447 -2.727505
v 171.407532 -6.623998 -8.429889
v 172.474701 -11.009773 -9.277548
v 165.694580 -10.082392 -15.973815
v 163.166290 -7.158553 -17.241108
v 169.414246 -9.207106 -16.732271
v 165.119171 -13.113289 -15.062798
v 161.499817 -15.866037 -17.452887
v 155.273346 -14.764729 -9.630534
v 155.530792 -20.225060 -11.980492
v 163.874939 29.122732 -12.946692
v 170.320374 25.924339 -15.869164
v 165.434631 30.316687 -2.107678
v 161.411041 35.392883 -11.980492
v 163.874939 29.122732 -20.923336
v 158.203613 33.992470 -10.350536
v 164.016846 33.915894 -11.980492
v 163.874939 29.122732 -8.062709
v 152.730835 35.590195 -10.350536
v 164.016846 33.915894 -15.692729
v 155.456879 30.414112 -13.301540
v 154.745758 35.224716 -11.980492
v 163.874939 29.122732 0.002567
v 166.861816 -10.207253 -3.625025
v 162.442444 -16.879055 -9.277548
v 165.694580 -10.082392 1.616841
v 164.420593 -14.926012 -11.980492
v 163.874939 29.122732 -26.259281
v 159.386963 5.231660 -24.193392
v 151.918335 -7.723974 -23.251595
v 157.064301 -4.224880 -23.302692
v 163.717102 -7.035820 -26.259281
v 159.386963 5.231660 -26.025038
v 154.965668 16.484940 -20.784470
v 161.768219 16.729748 -28.027027
v 154.080994 10.557194 -18.208220
v 146.778503 28.204851 -11.980492
v 163.874939 29.122732 -18.208220
v 146.778503 28.204851 -5.648735
v 175.120026 17.679798 0.002567
v 166.861816 -10.207253 -3.327738
v 160.071045 -19.108040 -17.452887
v 155.273346 -14.764729 -23.251595
v 157.064301 -4.224880 -21.032320
v 156.101074 -9.051670 -15.973815
v 163.166290 -7.158553 -26.259281
v 159.386963 5.231660 3.568758
v 161.029663 -18.636047 -33.007114
v 151.169098 17.059931 -11.980492
v 163.874939 29.122732 -12.946692
v 170.320374 25.924339 -20.784470
v 161.768219 16.729748 -13.988471
v 156.256561 34.525108 -11.980492
v 163.874939 29.122732 -20.784470
v 161.768219 16.729748 -21.501867
v 155.082550 25.923269 -21.154337
v 169.293060 14.840044 -13.274726
v 148.780457 35.204895 -18.580242
v 147.389465 30.470104 -13.274726
v 148.780457 35.204895 -11.227772
v 141.186798 34.482903 20.622723
v 170.783417 14.751443 23.499645
v 172.521149 9.934607 19.012907
v 175.568054 2.559657 20.528885
v 173.081573 17.724636 13.486150
v 179.264557 17.876659 25.947575
v 172.234741 12.999332 24.481087
v 172.514954 17.131582 28.379469
v 172.725952 16.099304 23.402477
v 153.268799 26.270203 20.798567
v 161.768250 16.729750 15.846854
v 156.134674 31.303028 20.293232
v 159.263397 22.810520 20.798567
v 161.768250 16.729750 26.259285
v 159.387024 5.231659 0.474121
v 160.303497 -20.202232 25.388041
v 139.759216 -11.185970 0.163311

vt 0.086291 0.906839
vt 0.141974 0.878358
vt 0.128725 0.943854
vt 0.140240 0.979531
vt 0.128825 0.898313
vt 0.112356 0.966276
vt 0.096294 0.869896
vt 0.087898 0.836689
vt 0.086291 0.906839
vt 0.141974 0.878358
vt 0.128725 0.943854
vt 0.140240 0.979531
vt 0.128825 0.898313
vt 0.112356 0.966276
vt 0.096294 0.869896
vt 0.087898 0.939307
vt 0.688256 0.885765
vt 0.870983 0.925225
vt 0.927435 0.835899
vt 0.868531 0.844416
vt 0.920102 0.887131
vt 0.817972 0.878869
vt 0.757218 0.963360
vt 0.245606 0.832764
vt 0.817038 0.374675
vt 0.883500 0.920322
vt 0.981527 0.319127
vt 0.727780 0.864559
vt 0.979046 0.307489
vt 0.957623 0.306503
vt 0.851034 0.285976
vt 0.771055 0.127349
vt 0.843409 0.116387
vt 0.973997 0.221091
vt 0.965648 0.226626
vt 0.828776 0.933902
vt 0.757218 0.938965
vt 0.816813 0.935727
vt 0.871152 0.986494
vt 0.757218 0.125537
vt 0.797852 0.219799
vt 0.782968 0.121475
vt 0.708067 0.269536
vt 0.696862 0.866713
vt 0.163017 0.818237
vt 0.061036 0.370713
vt 0.754794 0.841858
vt 0.172450 0.238339
vt 0.622759 0.190418
vt 0.643545 0.107058
vt 0.659499 0.933470
vt 0.241090 0.338934
vt 0.792467 0.352751
vt 0.834564 0.312708
vt 0.888068 0.916095
vt 0.738622 0.286881
vt 0.586157 0.227801
vt 0.896586 0.908772
vt 0.162048 0.299563
vt 0.811458 0.832719
vt 0.118832 0.119773
vt 0.910180 0.384024
vt 0.778255 0.985733
vt 0.147922 0.940392
vt 0.757218 0.887849
vt 0.757218 0.835832
vt 0.757218 0.174452
vt 0.556859 0.741837
vt 0.126585 0.199204
vt 0.510972 0.164845
vt 0.529564 0.091562
vt 0.544424 0.702581
vt 0.133450 0.168994
vt 0.456319 0.128645
vt 0.443411 0.190054
vt 0.414337 0.136537
vt 0.408296 0.117286
vt 0.425769 0.061775
vt 0.439895 0.139615
vt 0.371216 0.404344
vt 0.825181 0.221040
vt 0.867654 0.117521
vt 0.883047 0.217461
vt 0.751466 0.122041
vt 0.765024 0.279539
vt 0.734996 0.185704
vt 0.617126 0.219937
vt 0.572010 0.101076
vt 0.629077 0.154312
vt 0.506838 0.183024
vt 0.485540 0.087379
vt 0.513973 0.113583
vt 0.383773 0.099910
vt 0.402894 0.050856
vt 0.409951 0.212840
vt 0.712508 0.204068
vt 0.681769 0.257761
vt 0.662859 0.307858
vt 0.624455 0.210528
vt 0.542313 0.099421
vt 0.582898 0.178384
vt 0.583579 0.153643
vt 0.426648 0.071954
vt 0.469135 0.138958
vt 0.470169 0.066291
vt 0.355726 0.039369
vt 0.357824 0.082888
vt 0.344534 0.973464
vt 0.486188 0.981130
vt 0.401420 0.933925
vt 0.385858 0.913828
vt 0.467791 0.965046
vt 0.454593 0.967979
vt 0.427920 0.915013
vt 0.411511 0.908205
vt 0.436879 0.924745
vt 0.313884 0.937705
vt 0.349428 0.983008
vt 0.359969 0.964201
vt 0.321165 0.985706
vt 0.379841 0.937412
vt 0.367344 0.935558
vt 0.265732 0.924428
vt 0.289833 0.961084
vt 0.295844 0.968060
vt 0.271663 0.885765
vt 0.870983 0.835899
vt 0.868531 0.844416
vt 0.920102 0.939307
vt 0.688256 0.925225
vt 0.927435 0.986494
vt 0.870518 0.935727
vt 0.871152 0.832764
vt 0.817038 0.887131
vt 0.817972 0.878869
vt 0.757218 0.986494
vt 0.816723 0.916095
vt 0.738622 0.920322
vt 0.981527 0.986494
vt 0.932266 0.864559
vt 0.979046 0.938965
vt 0.816813 0.986494
vt 0.757218 0.915013
vt 0.411511 0.908205
vt 0.436879 0.965046
vt 0.454593 0.967979
vt 0.427920 0.119773
vt 0.910180 0.227801
vt 0.896586 0.221040
vt 0.867654 0.117521
vt 0.883047 0.221091
vt 0.965648 0.307489
vt 0.957623 0.312708
vt 0.888068 0.933902
vt 0.757218 0.986494
vt 0.985637 0.014154
vt 0.851012 0.014154
vt 0.889038 0.127349
vt 0.843409 0.219799
vt 0.782968 0.125537
vt 0.797852 0.226626
vt 0.828776 0.299563
vt 0.811458 0.306503
vt 0.851034 0.014154
vt 0.806748 0.217461
vt 0.751466 0.122041
vt 0.765024 0.285976
vt 0.771055 0.279539
vt 0.734996 0.121475
vt 0.708067 0.014154
vt 0.715719 0.014154
vt 0.768320 0.204068
vt 0.681769 0.190418
vt 0.643545 0.107058
vt 0.659499 0.257761
vt 0.662859 0.238339
vt 0.622759 0.014154
vt 0.667288 0.319127
vt 0.727780 0.370713
vt 0.754794 0.307858
vt 0.624455 0.286881
vt 0.586157 0.832719
vt 0.118832 0.783231
vt 0.061036 0.374675
vt 0.883500 0.352751
vt 0.834564 0.404344
vt 0.825181 0.338934
vt 0.792467 0.866713
vt 0.163017 0.841858
vt 0.172450 0.908772
vt 0.162048 0.116387
vt 0.973997 0.014154
vt 0.923476 0.384024
vt 0.778255 0.940392
vt 0.757218 0.887849
vt 0.757218 0.835832
vt 0.757218 0.985733
vt 0.147922 0.014154
vt 0.986005 0.178384
vt 0.583579 0.185704
vt 0.617126 0.219937
vt 0.572010 0.099421
vt 0.582898 0.101076
vt 0.629077 0.014154
vt 0.591286 0.014154
vt 0.634685 0.740544
vt 0.061036 0.741837
vt 0.126585 0.199204
vt 0.510972 0.164845
vt 0.529564 0.174452
vt 0.556859 0.210528
vt 0.542313 0.091562
vt 0.544424 0.014154
vt 0.553028 0.702607
vt 0.061036 0.702581
vt 0.133450 0.168994
vt 0.456319 0.138958
vt 0.470169 0.154312
vt 0.506838 0.183024
vt 0.485540 0.071954
vt 0.469135 0.087379
vt 0.513973 0.014154
vt 0.477212 0.014154
vt 0.519270 0.190054
vt 0.414337 0.136537
vt 0.408296 0.117286
vt 0.425769 0.128645
vt 0.443411 0.153643
vt 0.426648 0.061775
vt 0.439895 0.014154
vt 0.447128 0.139615
vt 0.371216 0.099910
vt 0.402894 0.113583
vt 0.383773 0.082888
vt 0.344534 0.066291
vt 0.355726 0.050856
vt 0.409951 0.039369
vt 0.357824 0.014154
vt 0.412556 0.014154
vt 0.359741 0.626562
vt 0.061036 0.591962
vt 0.061036 0.212840
vt 0.712508 0.269536
vt 0.696862 0.014154
vt 0.320046 0.913828
vt 0.467791 0.973464
vt 0.486188 0.983008
vt 0.359969 0.964201
vt 0.321165 0.924745
vt 0.313884 0.937705
vt 0.349428 0.981130
vt 0.401420 0.933925
vt 0.385858 0.961084
vt 0.295844 0.968060
vt 0.271663 0.935558
vt 0.265732 0.924428
vt 0.289833 0.937412
vt 0.367344 0.985706
vt 0.379841 0.963360
vt 0.245606 0.933470
vt 0.241090 0.666009
vt 0.061036 0.687611
vt 0.728713 0.695305
vt 0.768977 0.729843
vt 0.770604 0.902551
vt 0.693901 0.967562
vt 0.078227 0.909701
vt 0.285060 0.542903
vt 0.625652 0.478325
vt 0.633852 0.709873
vt 0.273498 0.862498
vt 0.261944 0.526864
vt 0.517733 0.462771
vt 0.533533 0.398555
vt 0.633239 0.525846
vt 0.747639 0.012424
vt 0.216929 0.542982
vt 0.385541 0.888731
vt 0.723742 0.742000
vt 0.827882 0.810054
vt 0.827172 0.770965
vt 0.832356 0.880121
vt 0.074961 0.881879
vt 0.059281 0.773584
vt 0.886098 0.767472
vt 0.951286 0.534416
vt 0.894533 0.899499
vt 0.314336 0.665784
vt 0.252313 0.432348
vt 0.900691 0.653310
vt 0.295947 0.708815
vt 0.229433 0.691705
vt 0.219332 0.243457
vt 0.011062 0.651926
vt 0.843636 0.584356
vt 0.460709 0.808018
vt 0.776230 0.405830
vt 0.535736 431602081.000000
vt -431602080.000000 0.090371
vt 0.105674 0.635220
vt 0.554969 0.668757
vt 0.638022 0.344661
vt 0.108352 0.427193
vt 0.116846 0.397339
vt 0.167835 0.261896
vt 0.051276 0.352128
vt 0.048659 0.724306
vt 0.188172 0.444391
vt 0.054190 0.260999
vt 0.127265 0.325135
vt 0.166460 0.199512
vt 0.070636 0.215790
vt 0.150139 0.615551
vt 0.218728 0.563189
vt 0.222756 0.666156
vt 0.139948 0.555772
vt 0.398017 0.446285
vt 0.181858 0.446184
vt 0.221390 0.321971
vt 0.216497 0.415463
vt 0.202915 0.385212
vt 0.394362 0.484019
vt 0.182964 0.491392
vt 0.211232 0.373775
vt 0.407655 0.562383
vt 0.171625 0.671282
vt 0.875379 0.129124
vt 0.062522 0.115318
vt 0.139430 0.674739
vt 0.189166 0.679808
vt 0.141019 0.413881
vt 0.236377 0.221501
vt 0.263487 0.367076
vt 0.551393 0.698357
vt 0.168699 0.071810
vt 0.091616 0.615087
vt 0.627780 0.590705
vt 0.815178 0.580907
vt 0.536562 0.599802
vt 0.754504 0.854752
vt 0.709231 0.867343
vt 0.739261 0.494855
vt 0.450365 0.637124
vt 0.165683 0.603418
vt 0.164576 0.495145
vt 0.088189 0.493364
vt 0.053921 0.608602
vt 0.400200 0.597641
vt 0.418249 0.247837
vt 0.295291 0.237095
vt 0.220222 0.256695
vt 0.230402 0.223506
vt 0.212441 0.558082
vt 0.141304 0.177644
vt 0.122875 0.169687
vt 0.229721 0.202393
vt 0.219854 0.442176
vt 0.963444 0.188639
vt 0.171265 0.463161
vt 0.942302 0.169328
vt 0.176115 0.733127
vt 0.741876 0.757153
vt 0.647655 0.686984
vt 0.702033 0.908749
vt 0.664552 0.756741
vt 0.765043 0.798066
vt 0.680698 0.829078
vt 0.705218 0.813536
vt 0.627871 0.824456
vt 0.668956 0.406346
vt 0.741783 0.468718
vt 0.749241 0.443480
vt 0.691377 0.394565
vt 0.680488 0.438643
vt 0.746312 0.426072
vt 0.715591 0.411532
vt 0.670717 0.076949
vt 0.164173 0.049040
vt 0.158341 0.462642
vt 0.797012 0.456979
vt 0.775738 0.906549
vt 0.221013 0.877351
vt 0.243666 0.362418
vt 0.478773 0.360515
vt 0.194333 0.407046
vt 0.790616 0.344920
vt 0.741287 0.890884
vt 0.190533 0.344920
vt 0.741287 0.890884
vt 0.190533 0.773549
vt 0.473474 0.879708
vt 0.536450 0.873277
vt 0.572968 0.810409
vt 0.466822 0.773549
vt 0.473474 0.879708
vt 0.536450 0.873277
vt 0.572968 0.810409
vt 0.466822 0.746342
vt 0.500371 0.812295
vt 0.535259 0.846753
vt 0.601425 0.812295
vt 0.535259 0.746342
vt 0.500371 0.812295
vt 0.535259 0.846753
vt 0.601425 0.812295
vt 0.535259 0.746283
vt 0.538134 0.789262
vt 0.558180 0.809173
vt 0.601306 0.789262
vt 0.558180 0.746283
vt 0.538134 0.789262
vt 0.558180 0.809173
vt 0.601306 0.789262
vt 0.558180 0.745959
vt 0.568186 0.768700
vt 0.578710 0.779223
vt 0.601452 0.768700
vt 0.578710 0.745959
vt 0.568186 0.768700
vt 0.578710 0.779223
vt 0.601452 0.768700
vt 0.578710 0.746146
vt 0.601169 0.860103
vt 0.484189 0.860103
vt 0.484189 0.860103
vt 0.484189 0.860103
vt 0.484189 0.810409
vt 0.466822 0.873277
vt 0.572968 0.879708
vt 0.536450 0.773549
vt 0.473474 0.810409
vt 0.466822 0.873277
vt 0.572968 0.879708
vt 0.536450 0.773549
vt 0.473474 0.696835
vt 0.359205 0.752289
vt 0.334471 0.762334
vt 0.354475 0.699671
vt 0.315033 0.676995
vt 0.308541 0.640696
vt 0.343293 0.717343
vt 0.307667 0.630184
vt 0.389132 0.650687
vt 0.419697 0.631697
vt 0.361496 0.697640
vt 0.435320 0.743888
vt 0.416331 0.765584
vt 0.387111 0.668257
vt 0.386151 0.725537
vt 0.384830 0.696835
vt 0.359205 0.752289
vt 0.334471 0.762334
vt 0.354475 0.699671
vt 0.315033 0.676995
vt 0.308541 0.640696
vt 0.343293 0.717343
vt 0.307667 0.630184
vt 0.389132 0.650687
vt 0.419697 0.631697
vt 0.361496 0.697640
vt 0.435320 0.743888
vt 0.416331 0.765584
vt 0.387111 0.668257
vt 0.386151 0.725537
vt 0.384830 0.696835
vt 0.359205 0.752289
vt 0.334471 0.762334
vt 0.354475 0.699671
vt 0.315033 0.676995
vt 0.308541 0.640696
vt 0.343293 0.717343
vt 0.307667 0.630184
vt 0.389132 0.650687
vt 0.419697 0.631697
vt 0.361496 0.697640
vt 0.435320 0.743888
vt 0.416331 0.765584
vt 0.387111 0.668257
vt 0.386151 0.725537
vt 0.384830 0.696835
vt 0.359205 0.752289
vt 0.334471 0.762334
vt 0.354475 0.699671
vt 0.315033 0.676995
vt 0.308541 0.640696
vt 0.343293 0.717343
vt 0.307667 0.630184
vt 0.389132 0.650687
vt 0.419697 0.631697
vt 0.361496 0.697640
vt 0.435320 0.743888
vt 0.416331 0.765584
vt 0.387111 0.668257
vt 0.386151 0.725537
vt 0.384830 0.784652
vt 0.225137 0.830073
vt 0.213066 0.842342
vt 0.241340 0.787840
vt 0.186148 0.766635
vt 0.181078 0.736933
vt 0.216560 0.804963
vt 0.181095 0.730511
vt 0.271286 0.749058
vt 0.295819 0.727717
vt 0.247422 0.786675
vt 0.308722 0.823787
vt 0.292751 0.841625
vt 0.268057 0.760834
vt 0.265856 0.809910
vt 0.264797 0.784652
vt 0.225137 0.830073
vt 0.213066 0.842342
vt 0.241340 0.787840
vt 0.186148 0.766635
vt 0.181078 0.736933
vt 0.216560 0.804963
vt 0.181095 0.730511
vt 0.271286 0.749058
vt 0.295819 0.727717
vt 0.247422 0.786675
vt 0.308722 0.823787
vt 0.292751 0.841625
vt 0.268057 0.760834
vt 0.265856 0.809910
vt 0.264797 0.784652
vt 0.225137 0.830073
vt 0.213066 0.842342
vt 0.241340 0.787840
vt 0.186148 0.766635
vt 0.181078 0.736933
vt 0.216560 0.804963
vt 0.181095 0.730511
vt 0.271286 0.749058
vt 0.295819 0.727717
vt 0.247422 0.786675
vt 0.308722 0.823787
vt 0.292751 0.841625
vt 0.268057 0.760834
vt 0.265856 0.809910
vt 0.264797 0.784652
vt 0.225137 0.830073
vt 0.213066 0.842342
vt 0.241340 0.787840
vt 0.186148 0.766635
vt 0.181078 0.736933
vt 0.216560 0.804963
vt 0.181095 0.730511
vt 0.271286 0.749058
vt 0.295819 0.727717
vt 0.247422 0.786675
vt 0.308722 0.823787
vt 0.292751 0.841625
vt 0.268057 0.760834
vt 0.265856 0.809910
vt 0.264797 0.687298
vt 0.500038 0.687084
vt 0.534142 0.725025
vt 0.498679 0.727800
vt 0.530557 0.688402
vt 0.456791 0.669773
vt 0.454132 0.650646
vt 0.497398 0.709147
vt 0.454121 0.646949
vt 0.531926 0.662205
vt 0.555569 0.688134
vt 0.570756 0.715578
vt 0.554715 0.687298
vt 0.500038 0.687084
vt 0.534142 0.725025
vt 0.498679 0.727800
vt 0.530557 0.688402
vt 0.456791 0.669773
vt 0.454132 0.650646
vt 0.497398 0.709147
vt 0.454121 0.646949
vt 0.531926 0.662205
vt 0.555569 0.688134
vt 0.570756 0.715578
vt 0.554715 0.687298
vt 0.500038 0.687084
vt 0.534142 0.725025
vt 0.498679 0.727800
vt 0.530557 0.688402
vt 0.456791 0.669773
vt 0.454132 0.650646
vt 0.497398 0.709147
vt 0.454121 0.646949
vt 0.531926 0.662205
vt 0.555569 0.688134
vt 0.570756 0.715578
vt 0.554715 0.687298
vt 0.500038 0.687084
vt 0.534142 0.725025
vt 0.498679 0.727800
vt 0.530557 0.688402
vt 0.456791 0.669773
vt 0.454132 0.650646
vt 0.497398 0.709147
vt 0.454121 0.646949
vt 0.531926 0.662205
vt 0.555569 0.688134
vt 0.570756 0.715578
vt 0.554715 0.842645
vt 0.393424 0.880486
vt 0.431491 0.896342
vt 0.393485 0.879915
vt 0.356285 0.842810
vt 0.339686 0.805793
vt 0.356232 0.788919
vt 0.393072 0.804967
vt 0.430644 0.842344
vt 0.447109 0.366443
vt 0.254778 0.342523
vt 0.256580 0.316578
vt 0.256765 0.291476
vt 0.256095 0.372831
vt 0.294118 0.314085
vt 0.294476 0.285170
vt 0.294443 0.344004
vt 0.331325 0.343226
vt 0.294948 0.373149
vt 0.332351 0.368911
vt 0.385422 0.368352
vt 0.361862 0.267527
vt 0.294200 0.314358
vt 0.331507 0.282580
vt 0.364929 0.342938
vt 0.360082 0.343754
vt 0.390810 0.284737
vt 0.334278 0.270003
vt 0.335860 0.317459
vt 0.359743 0.312137
vt 0.390430 0.392549
vt 0.363740 0.617493
vt 0.343310 0.632454
vt 0.273195 0.606919
vt 0.299640 0.630516
vt 0.303520 0.557178
vt 0.357510 0.579525
vt 0.366971 0.568505
vt 0.322832 0.593661
vt 0.332349 0.580571
vt 0.290344 0.615051
vt 0.273299 0.624286
vt 0.250912 0.596929
vt 0.376442 0.555554
vt 0.277338 0.570573
vt 0.253507 0.581563
vt 0.235371 0.535280
vt 0.351218 0.540740
vt 0.312331 0.535274
vt 0.257591 0.554558
vt 0.240670 0.486438
vt 0.261244 0.458990
vt 0.261649 0.511748
vt 0.258856 0.488278
vt 0.301890 0.456681
vt 0.301865 0.521581
vt 0.302540 0.456505
vt 0.340650 0.517106
vt 0.344050 0.508103
vt 0.372584 0.486999
vt 0.340724 0.493204
vt 0.393965 0.449515
vt 0.403481 0.423754
vt 0.342493 0.418462
vt 0.378660 0.476755
vt 0.404332 0.483598
vt 0.371794 0.402425
vt 0.345167 0.398738
vt 0.299991 0.431764
vt 0.260348 0.425986
vt 0.301467 0.457077
vt 0.373302 0.404827
vt 0.257506 0.593413
vt 0.260572 0.602831
vt 0.239040 0.841679
vt 0.045325 0.983869
vt 0.045325 0.983869
vt 0.016063 0.841679
vt 0.016063 0.591349
vt 0.045576 0.820718
vt 0.045576 0.820718
vt 0.012649 0.591349
vt 0.012649 0.457684
vt 0.037697 0.550046
vt 0.037697 0.550046
vt 0.009166 0.457684
vt 0.009166 0.457684
vt 0.037697 0.550046
vt 0.037697 0.550046
vt 0.009166 0.457684
vt 0.009166 0.981650
vt 0.685523 0.977342
vt 0.725260 0.973309
vt 0.635021 0.819581
vt 0.156540 0.786108
vt 0.150791 0.424718
vt 0.875791 0.809682
vt 0.961352 0.385233
vt 0.946303 0.872995
vt 0.219019 0.916854
vt 0.640209 0.894518
vt 0.592507 0.892223
vt 0.205962 0.935515
vt 0.188833 0.911450
vt 0.192905 0.265936
vt 0.520517 0.229239
vt 0.472887 0.626016
vt 0.109979 0.587391
vt 0.095462 0.318512
vt 0.658272 0.548430
vt 0.061036 0.666143
vt 0.113507 0.977342
vt 0.725260 0.981650
vt 0.685523 0.986494
vt 0.870518 0.986494
vt 0.816723 0.973309
vt 0.635021 0.986494
vt 0.932266 0.986494
vt 0.985637 0.014154
vt 0.851012 0.014154
vt 0.889038 0.014154
vt 0.806748 0.014154
vt 0.715719 0.014154
vt 0.768320 0.014154
vt 0.667288 0.786108
vt 0.150791 0.819581
vt 0.156540 0.783231
vt 0.061036 0.818237
vt 0.061036 0.424718
vt 0.875791 0.809682
vt 0.961352 0.385233
vt 0.946303 0.872995
vt 0.219019 0.014154
vt 0.923476 0.894518
vt 0.592507 0.916854
vt 0.640209 0.892223
vt 0.205962 0.935515
vt 0.188833 0.911450
vt 0.192905 0.014154
vt 0.986005 0.014154
vt 0.634685 0.014154
vt 0.591286 0.740544
vt 0.061036 0.265936
vt 0.520517 0.014154
vt 0.553028 0.702607
vt 0.061036 0.229239
vt 0.472887 0.014154
vt 0.519270 0.014154
vt 0.477212 0.014154
vt 0.447128 0.014154
vt 0.412556 0.014154
vt 0.359741 0.626016
vt 0.109979 0.591962
vt 0.061036 0.587391
vt 0.095462 0.626562
vt 0.061036 0.318512
vt 0.658272 0.014154
vt 0.320046 0.548430
vt 0.061036 0.666143
vt 0.113507 0.666009
vt 0.061036 0.011342
vt 0.297578 0.069972
vt 0.267142 0.885325
vt 0.308322 0.519235
vt 0.801537 0.282382
vt 0.520326 0.254557
vt 0.463278 0.299566
vt 0.443603 0.896819
vt 0.745841 0.523921
vt 0.463283 0.477693
vt 0.432960 0.429589
vt 0.498253 0.535657
vt 0.504724 0.547689
vt 0.469797 0.768739
vt 0.786416 0.714634
vt 0.788379 0.913951
vt 0.093458 0.932601
vt 0.074812 0.911759
vt 0.062983 0.703705
vt 0.811765 0.793383
vt 0.889107 0.755878
vt 0.879485 0.880035
vt 0.075724 0.851687
vt 0.066316 0.885325
vt 0.308322 0.492817
vt 0.860216 0.626427
vt 0.929318 0.896800
vt 0.349288 0.885325
vt 0.308322 0.683026
vt 0.988494 0.589398
vt 0.988494 0.688811
vt 0.944827 0.709873
vt 0.273498 0.538843
vt 0.978094 0.441199
vt 0.989966 0.822852
vt 0.988494 0.709873
vt 0.273498 0.459957
vt 0.811038 0.481038
vt 0.811275 0.450341
vt 0.850610 0.107941
vt 0.247232 0.105987
vt 0.175006 0.411721
vt 0.021736 0.339940
vt 0.011062 0.172085
vt 0.011062 0.511627
vt 0.103963 0.461061
vt 0.134340 0.649072
vt 0.238577 0.656441
vt 0.180040 0.600389
vt 0.492840 0.641908
vt 0.474626 0.646371
vt 0.438586 0.403198
vt 0.403166 0.397883
vt 0.385222 0.455861
vt 0.143046 0.489699
vt 0.156859 0.378786
vt 0.432266 0.341236
vt 0.421912 0.703291
vt 0.876378 0.688263
vt 0.826273 0.161011
vt 0.095960 0.096574
vt 0.011062 0.703291
vt 0.876378 0.646347
vt 0.941986 0.728643
vt 0.910512 0.703291
vt 0.876378 0.053073
vt 0.060381 0.289226
vt 0.414508 0.215078
vt 0.387662 0.238795
vt 0.355567 0.257301
vt 0.446926 0.250843
vt 0.319670 0.221618
vt 0.294038 0.212266
vt 0.334645 0.572786
vt 0.429853 0.724306
vt 0.188172 0.786237
vt 0.615476 0.686268
vt 0.660181 0.713475
vt 0.623892 0.704292
vt 0.582673 0.514384
vt 0.142145 0.574680
vt 0.109620 0.541577
vt 0.074013 0.272623
vt 0.239359 0.147354
vt 0.356071 0.724306
vt 0.188172 0.015220
vt 0.141965 0.666712
vt 0.760518 0.613288
vt 0.516433 0.535218
vt 0.053514 0.378629
vt 0.431493 0.418122
vt 0.430771 0.401426
vt 0.431321 0.402897
vt 0.403212 0.449005
vt 0.425612 0.250802
vt 0.269328 0.607314
vt 0.140786 0.203503
vt 0.287927 0.193940
vt 0.330745 0.418745
vt 0.984939 0.434350
vt 0.927440 0.407542
vt 0.943756 0.102847
vt 0.303844 0.127732
vt 0.242183 0.121912
vt 0.346560 0.456182
vt 0.921797 0.143327
vt 0.180129 0.456144
vt 0.921683 0.479002
vt 0.915271 0.380859
vt 0.689115 0.365664
vt 0.659716 0.334157
vt 0.674240 0.407248
vt 0.706410 0.381774
vt 0.739357 0.397357
vt 0.654527 0.419377
vt 0.682282 0.431513
vt 0.655811 0.505197
vt 0.772874 0.862704
vt 0.262045 0.424231
vt 0.451688 0.377687
vt 0.509227 0.342898
vt 0.537755 0.347810
vt 0.627080 0.819502
vt 0.742670 0.697698
vt 0.435200 1.000000

f 427/427 400/400 401/401
f 408/408 399/399 407/407
f 399/399 408/408 400/400
f 409/409 400/400 408/408
f 400/400 409/409 401/401
f 410/410 401/401 409/409
f 401/401 410/410 402/402
f 411/411 402/402 410/410
f 402/402 411/411 403/403
f 412/412 403/403 411/411
f 403/403 412/412 404/404
f 413/413 404/404 412/412
f 404/404 413/413 405/405
f 414/414 405/405 413/413
f 405/405 414/414 406/406
f 407/407 406/406 414/414
f 406/406 407/407 399/399
f 416/416 407/407 415/415
f 407/407 416/416 408/408
f 417/417 408/408 416/416
f 408/408 417/417 409/409
f 418/418 409/409 417/417
f 409/409 418/418 410/410
f 419/419 410/410 418/418
f 410/410 419/419 411/411
f 420/420 411/411 419/419
f 411/411 420/420 412/412
f 421/421 412/412 420/420
f 412/412 421/421 413/413
f 422/422 413/413 421/421
f 413/413 422/422 414/414
f 415/415 414/414 422/422
f 414/414 415/415 407/407
f 423/423 416/416 415/415
f 423/423 417/417 416/416
f 423/423 418/418 417/417
f 423/423 419/419 418/418
f 423/423 420/420 419/419
f 423/423 421/421 420/420
f 423/423 422/422 421/421
f 423/423 415/415 422/422
f 403/403 432/432 395/395
f 432/432 403/403 424/424
f 405/405 434/434 397/397
f 434/434 405/405 425/425
f 399/399 428/428 391/391
f 428/428 399/399 427/427
f 401/401 430/430 393/393
f 430/430 401/401 426/426
f 424/424 404/404 405/405
f 425/425 406/406 399/399
f 426/426 402/402 403/403
f 427/427 429/429 392/392
f 429/429 427/427 401/401
f 424/424 403/403 404/404
f 425/425 405/405 406/406
f 427/427 399/399 400/400
f 426/426 401/401 402/402
f 424/424 433/433 396/396
f 433/433 424/424 405/405
f 425/425 435/435 398/398
f 435/435 425/425 399/399
f 426/426 431/431 394/394
f 431/431 426/426 403/403
f 436/436 450/450 449/449
f 450/450 437/437 438/438
f 437/437 450/450 436/436
f 439/439 441/441 440/440
f 441/441 439/439 436/436
f 442/442 436/436 439/439
f 436/436 442/442 437/437
f 443/443 445/445 449/449
f 447/447 446/446 450/450
f 444/444 449/449 446/446
f 447/447 450/450 448/448
f 441/441 449/449 445/445
f 449/449 441/441 436/436
f 448/448 450/450 438/438
f 443/443 449/449 444/444
f 465/465 452/452 453/453
f 452/452 465/465 451/451
f 454/454 456/456 455/455
f 456/456 454/454 451/451
f 457/457 451/451 454/454
f 451/451 457/457 452/452
f 458/458 460/460 464/464
f 462/462 461/461 465/465
f 459/459 464/464 461/461
f 462/462 465/465 463/463
f 456/456 464/464 460/460
f 464/464 456/456 451/451
f 451/451 465/465 464/464
f 463/463 465/465 453/453
f 458/458 464/464 459/459
f 480/480 467/467 468/468
f 467/467 480/480 466/466
f 469/469 471/471 470/470
f 471/471 469/469 466/466
f 472/472 466/466 469/469
f 466/466 472/472 467/467
f 473/473 475/475 479/479
f 477/477 476/476 480/480
f 474/474 479/479 887/887
f 477/477 480/480 478/478
f 471/471 479/479 475/475
f 479/479 471/471 466/466
f 466/466 480/480 479/479
f 478/478 480/480 468/468
f 473/473 479/479 474/474
f 495/495 482/482 483/483
f 482/482 495/495 481/481
f 484/484 486/486 485/485
f 486/486 484/484 481/481
f 487/487 481/481 484/484
f 481/481 487/487 482/482
f 488/488 490/490 494/494
f 492/492 491/491 495/495
f 489/489 494/494 491/491
f 492/492 495/495 493/493
f 486/486 494/494 490/490
f 494/494 486/486 481/481
f 481/481 495/495 494/494
f 493/493 495/495 483/483
f 488/488 494/494 489/489
f 446/446 449/449 450/450
f 465/465 461/461 464/464
f 495/495 491/491 494/494
f 480/480 887/887 479/479
f 496/496 510/510 509/509
f 510/510 497/497 498/498
f 497/497 510/510 496/496
f 499/499 501/501 500/500
f 501/501 499/499 496/496
f 502/502 496/496 499/499
f 496/496 502/502 497/497
f 503/503 505/505 509/509
f 507/507 506/506 510/510
f 504/504 509/509 506/506
f 507/507 510/510 508/508
f 501/501 509/509 505/505
f 509/509 501/501 496/496
f 508/508 510/510 498/498
f 503/503 509/509 504/504
f 525/525 512/512 513/513
f 512/512 525/525 511/511
f 514/514 516/516 515/515
f 516/516 514/514 511/511
f 517/517 511/511 514/514
f 511/511 517/517 512/512
f 518/518 520/520 524/524
f 522/522 521/521 525/525
f 519/519 524/524 521/521
f 522/522 525/525 523/523
f 516/516 524/524 520/520
f 524/524 516/516 511/511
f 511/511 525/525 524/524
f 523/523 525/525 513/513
f 518/518 524/524 519/519
f 540/540 527/527 528/528
f 527/527 540/540 526/526
f 529/529 531/531 530/530
f 531/531 529/529 526/526
f 532/532 526/526 529/529
f 526/526 532/532 527/527
f 533/533 535/535 539/539
f 537/537 536/536 540/540
f 534/534 539/539 536/536
f 537/537 540/540 538/538
f 531/531 539/539 535/535
f 539/539 531/531 526/526
f 526/526 540/540 539/539
f 538/538 540/540 528/528
f 533/533 539/539 534/534
f 555/555 542/542 543/543
f 542/542 555/555 541/541
f 544/544 546/546 545/545
f 546/546 544/544 541/541
f 547/547 541/541 544/544
f 541/541 547/547 542/542
f 548/548 550/550 554/554
f 552/552 551/551 555/555
f 549/549 554/554 551/551
f 552/552 555/555 553/553
f 546/546 554/554 550/550
f 554/554 546/546 541/541
f 541/541 555/555 554/554
f 553/553 555/555 543/543
f 548/548 554/554 549/549
f 506/506 509/509 510/510
f 525/525 521/521 524/524
f 555/555 551/551 554/554
f 540/540 536/536 539/539
f 558/558 557/557 556/556
f 557/557 558/558 559/559
f 562/562 560/560 556/556
f 560/560 562/562 561/561
f 556/556 563/563 558/558
f 563/563 556/556 560/560
f 565/565 557/557 567/567
f 567/567 557/557 559/559
f 556/556 564/564 562/562
f 564/564 556/556 557/557
f 570/570 569/569 568/568
f 569/569 570/570 571/571
f 574/574 572/572 568/568
f 572/572 574/574 573/573
f 568/568 575/575 570/570
f 575/575 568/568 572/572
f 577/577 569/569 579/579
f 579/579 569/569 571/571
f 568/568 576/576 574/574
f 576/576 568/568 569/569
f 582/582 581/581 580/580
f 581/581 582/582 583/583
f 586/586 584/584 580/580
f 584/584 586/586 585/585
f 580/580 587/587 582/582
f 587/587 580/580 584/584
f 589/589 581/581 591/591
f 591/591 581/581 583/583
f 580/580 588/588 586/586
f 588/588 580/580 581/581
f 594/594 593/593 592/592
f 593/593 594/594 595/595
f 598/598 596/596 592/592
f 596/596 598/598 597/597
f 592/592 599/599 594/594
f 599/599 592/592 596/596
f 601/601 593/593 603/603
f 603/603 593/593 595/595
f 592/592 600/600 598/598
f 600/600 592/592 593/593
f 589/589 591/591 590/590
f 588/588 581/581 589/589
f 600/600 593/593 601/601
f 601/601 603/603 602/602
f 576/576 569/569 577/577
f 577/577 579/579 578/578
f 565/565 567/567 566/566
f 564/564 557/557 565/565
f 604/604 606/606 605/605
f 604/604 607/607 606/606
f 604/604 608/608 607/607
f 604/604 609/609 608/608
f 604/604 610/610 609/609
f 604/604 611/611 610/610
f 604/604 612/612 611/611
f 604/604 605/605 612/612
f 621/621 613/613 617/617
f 613/613 621/621 614/614
f 618/618 614/614 621/621
f 614/614 618/618 615/615
f 619/619 615/615 618/618
f 615/615 619/619 616/616
f 617/617 622/622 621/621
f 626/626 621/621 620/620
f 621/621 626/626 618/618
f 618/618 626/626 619/619
f 632/632 620/620 628/628
f 620/620 632/632 626/626
f 629/629 628/628 624/624
f 624/624 634/634 623/623
f 621/621 622/622 620/620
f 623/623 629/629 624/624
f 633/633 627/627 632/632
f 632/632 628/628 629/629
f 619/619 626/626 630/630
f 627/627 631/631 630/630
f 629/629 633/633 632/632
f 625/625 630/630 631/631
f 619/619 630/630 625/625
f 620/620 622/622 624/624
f 622/622 634/634 624/624
f 624/624 628/628 620/620
f 632/632 627/627 630/630
f 630/630 626/626 632/632
f 642/642 639/639 641/641
f 639/639 642/642 640/640
f 642/642 643/643 637/637
f 643/643 642/642 641/641
f 644/644 645/645 636/636
f 637/637 643/643 644/644
f 635/635 637/637 638/638
f 642/642 637/637 635/635
f 642/642 646/646 640/640
f 646/646 642/642 635/635
f 641/641 650/650 651/651
f 650/650 641/641 639/639
f 643/643 651/651 647/647
f 651/651 643/643 641/641
f 647/647 676/676 643/643
f 676/676 647/647 648/648
f 645/645 676/676 677/677
f 676/676 645/645 644/644
f 648/648 652/652 653/653
f 652/652 648/648 647/647
f 653/653 649/649 648/648
f 658/658 654/654 657/657
f 654/654 658/658 655/655
f 673/673 655/655 658/658
f 655/655 673/673 672/672
f 657/657 656/656 659/659
f 656/656 657/657 654/654
f 657/657 663/663 658/658
f 666/666 658/658 660/660
f 658/658 666/666 673/673
f 663/663 659/659 661/661
f 659/659 663/663 657/657
f 660/660 674/674 666/666
f 669/669 661/661 662/662
f 661/661 669/669 663/663
f 669/669 662/662 664/664
f 658/658 663/663 660/660
f 664/664 668/668 669/669
f 660/660 663/663 669/669
f 665/665 667/667 674/674
f 674/674 669/669 668/668
f 667/667 670/670 666/666
f 668/668 665/665 674/674
f 671/671 666/666 670/670
f 673/673 666/666 671/671
f 660/660 669/669 674/674
f 674/674 667/667 666/666
f 673/673 675/675 672/672
f 675/675 673/673 671/671
f 644/644 636/636 638/638
f 649/649 676/676 648/648
f 676/676 649/649 677/677
f 643/643 676/676 644/644
f 625/625 616/616 619/619
f 644/644 638/638 637/637
f 1/1 8/8 3/3
f 6/6 2/2 1/1
f 6/6 3/3 4/4
f 7/7 5/5 4/4
f 7/7 4/4 14/14
f 16/16 9/9 11/11
f 10/10 14/14 9/9
f 11/11 14/14 12/12
f 13/13 15/15 12/12
f 12/12 15/15 18/18
f 21/21 20/20 17/17
f 694/694 695/695 19/19
f 39/39 132/132 19/19
f 21/21 18/18 25/25
f 23/23 22/22 39/39
f 137/137 132/132 22/22
f 20/20 25/25 694/694
f 17/17 696/696 695/695
f 56/56 17/17 27/27
f 27/27 21/21 29/29
f 21/21 27/27 38/38
f 40/40 137/137 116/116
f 116/116 115/115 58/58
f 58/58 55/55 38/38
f 22/22 37/37 38/38
f 18/18 22/22 39/39
f 19/19 18/18 140/140
f 19/19 132/132 137/137
f 39/39 38/38 140/140
f 156/156 27/27 157/157
f 157/157 33/33 42/42
f 31/31 36/36 41/41
f 41/41 33/33 84/84
f 84/84 42/42 32/32
f 32/32 42/42 171/171
f 171/171 43/43 97/97
f 97/97 43/43 98/98
f 98/98 97/97 43/43
f 43/43 171/171 28/28
f 389/389 47/47 28/28
f 389/389 32/32 57/57
f 57/57 99/99 61/61
f 697/697 698/698 184/184
f 46/46 61/61 31/31
f 26/26 55/55 54/54
f 699/699 26/26 36/36
f 31/31 82/82 81/81
f 699/699 54/54 21/21
f 29/29 700/700 60/60
f 54/54 31/31 32/32
f 47/47 53/53 54/54
f 26/26 31/31 30/30
f 55/55 26/26 699/699
f 701/701 26/26 184/184
f 61/61 698/698 702/702
f 48/48 45/45 53/53
f 60/60 32/32 45/45
f 45/45 59/59 61/61
f 61/61 45/45 62/62
f 193/193 62/62 60/60
f 42/42 32/32 60/60
f 53/53 54/54 30/30
f 26/26 701/701 63/63
f 54/54 53/53 40/40
f 38/38 65/65 37/37
f 22/22 66/66 23/23
f 25/25 67/67 39/39
f 20/20 22/22 696/696
f 703/703 704/704 696/696
f 17/17 703/703 53/53
f 47/47 63/63 81/81
f 54/54 63/63 702/702
f 390/390 705/705 59/59
f 707/707 59/59 34/34
f 199/199 193/193 102/102
f 88/88 87/87 101/101
f 101/101 89/89 698/698
f 698/698 69/69 708/708
f 708/708 57/57 68/68
f 71/71 68/68 205/205
f 205/205 214/214 69/69
f 69/69 73/73 70/70
f 70/70 709/709 105/105
f 105/105 74/74 104/104
f 104/104 92/92 74/74
f 74/74 76/76 75/75
f 78/78 75/75 79/79
f 79/79 104/104 77/77
f 77/77 80/80 94/94
f 94/94 106/106 95/95
f 95/95 107/107 239/239
f 239/239 240/240 710/710
f 710/710 711/711 93/93
f 108/108 80/80 82/82
f 82/82 83/83 158/158
f 158/158 83/83 58/58
f 58/58 82/82 84/84
f 84/84 85/85 86/86
f 86/86 84/84 165/165
f 165/165 172/172 28/28
f 28/28 86/86 87/87
f 87/87 88/88 51/51
f 51/51 89/89 178/178
f 178/178 206/206 90/90
f 90/90 91/91 72/72
f 72/72 92/92 91/91
f 709/709 70/70 77/77
f 93/93 80/80 77/77
f 79/79 231/231 43/43
f 97/97 96/96 88/88
f 100/100 708/708 68/68
f 102/102 101/101 74/74
f 103/103 76/76 75/75
f 105/105 104/104 44/44
f 44/44 96/96 98/98
f 98/98 99/99 88/88
f 88/88 102/102 74/74
f 74/74 105/105 108/108
f 240/240 245/245 242/242
f 711/711 713/713 704/704
f 704/704 112/112 120/120
f 120/120 119/119 112/112
f 112/112 116/116 110/110
f 110/110 114/114 125/125
f 125/125 124/124 122/122
f 122/122 118/118 111/111
f 111/111 122/122 126/126
f 126/126 123/123 117/117
f 117/117 124/124 714/714
f 714/714 710/710 214/214
f 214/214 224/224 127/127
f 128/128 129/129 130/130
f 715/715 716/716 131/131
f 717/717 133/133 131/131
f 127/127 129/129 134/134
f 135/135 136/136 133/133
f 717/717 718/718 135/135
f 134/134 128/128 716/716
f 719/719 130/130 715/715
f 130/130 138/138 139/139
f 129/129 139/139 141/141
f 139/139 129/129 142/142
f 718/718 143/143 145/145
f 145/145 146/146 149/149
f 154/154 149/149 142/142
f 155/155 135/135 142/142
f 135/135 127/127 133/133
f 127/127 131/131 720/720
f 717/717 131/131 718/718
f 142/142 133/133 720/720
f 139/139 721/721 722/722
f 722/722 723/723 160/160
f 162/162 164/164 161/161
f 159/159 161/161 166/166
f 166/166 167/167 168/168
f 168/168 169/169 725/725
f 725/725 726/726 173/173
f 173/173 174/174 176/176
f 176/176 177/177 170/170
f 170/170 175/175 387/387
f 168/168 180/180 179/179
f 168/168 387/387 179/179
f 169/169 168/168 182/182
f 182/182 177/177 183/183
f 728/728 729/729 730/730
f 183/183 731/731 164/164
f 154/154 185/185 186/186
f 185/185 732/732 162/162
f 150/150 164/164 187/187
f 186/186 732/732 129/129
f 733/733 141/141 163/163
f 164/164 186/186 168/168
f 188/188 180/180 186/186
f 164/164 185/185 153/153
f 185/185 154/154 732/732
f 185/185 734/734 730/730
f 728/728 183/183 735/735
f 189/189 190/190 188/188
f 168/168 163/163 189/189
f 189/189 735/735 183/183
f 183/183 729/729 148/148
f 148/148 736/736 163/163
f 168/168 160/160 163/163
f 186/186 188/188 153/153
f 734/734 185/185 194/194
f 188/188 186/186 143/143
f 195/195 142/142 155/155
f 196/196 135/135 136/136
f 197/197 134/134 133/133
f 135/135 128/128 719/719
f 737/737 738/738 719/719
f 738/738 130/130 188/188
f 194/194 180/180 187/187
f 194/194 186/186 735/735
f 739/739 388/388 191/191
f 191/191 741/741 192/192
f 736/736 742/742 200/200
f 201/201 202/202 203/203
f 203/203 744/744 728/728
f 728/728 730/730 746/746
f 746/746 202/202 211/211
f 211/211 212/212 210/210
f 210/210 213/213 744/744
f 744/744 203/203 208/208
f 208/208 745/745 209/209
f 209/209 212/212 218/218
f 218/218 219/219 221/221
f 221/221 751/751 217/217
f 217/217 220/220 228/228
f 228/228 229/229 227/227
f 230/230 752/752 226/226
f 226/226 229/229 233/233
f 233/233 234/234 237/237
f 237/237 233/233 753/753
f 753/753 237/237 755/755
f 755/755 758/758 234/234
f 232/232 235/235 150/150
f 150/150 162/162 723/723
f 723/723 736/736 149/149
f 149/149 154/154 166/166
f 166/166 243/243 169/169
f 169/169 244/244 724/724
f 724/724 161/161 179/179
f 179/179 759/759 201/201
f 201/201 174/174 175/175
f 175/175 174/174 727/727
f 727/727 175/175 219/219
f 219/219 210/210 213/213
f 213/213 210/210 220/220
f 209/209 749/749 226/226
f 232/232 234/234 226/226
f 226/226 234/234 227/227
f 227/227 233/233 230/230
f 230/230 237/237 170/170
f 243/243 173/173 202/202
f 746/746 212/212 211/211
f 203/203 200/200 217/217
f 225/225 229/229 228/228
f 221/221 218/218 244/244
f 176/176 244/244 202/202
f 202/202 212/212 217/217
f 217/217 229/229 235/235
f 760/760 754/754 756/756
f 761/761 757/757 737/737
f 737/737 719/719 249/249
f 249/249 250/250 246/246
f 246/246 247/247 252/252
f 252/252 253/253 254/254
f 254/254 255/255 258/258
f 258/258 259/259 253/253
f 253/253 252/252 255/255
f 255/255 260/260 250/250
f 250/250 249/249 762/762
f 762/762 763/763 747/747
f 747/747 213/213 263/263
f 265/265 264/264 298/298
f 298/298 274/274 270/270
f 269/269 276/276 271/271
f 293/293 292/292 273/273
f 273/273 269/269 764/764
f 277/277 765/765 766/766
f 272/272 268/268 301/301
f 301/301 302/302 767/767
f 767/767 276/276 768/768
f 769/769 770/770 279/279
f 341/341 266/266 279/279
f 342/342 341/341 279/279
f 771/771 342/342 274/274
f 274/274 774/774 775/775
f 776/776 339/339 777/777
f 282/282 778/778 281/281
f 281/281 282/282 284/284
f 780/780 267/267 284/284
f 780/780 779/779 781/781
f 780/780 284/284 778/778
f 778/778 282/282 285/285
f 285/285 282/282 784/784
f 784/784 280/280 783/783
f 286/286 784/784 785/785
f 786/786 284/284 268/268
f 288/288 787/787 788/788
f 767/767 287/287 789/789
f 290/290 788/788 288/288
f 790/790 791/791 792/792
f 793/793 794/794 795/795
f 291/291 289/289 796/796
f 797/797 287/287 794/794
f 798/798 792/792 799/799
f 289/289 293/293 295/295
f 789/789 796/796 277/277
f 277/277 379/379 800/800
f 800/800 380/380 386/386
f 386/386 381/381 803/803
f 803/803 765/765 340/340
f 340/340 276/276 303/303
f 303/303 304/304 306/306
f 307/307 303/303 292/292
f 293/293 308/308 303/303
f 310/310 306/306 311/311
f 310/310 303/303 805/805
f 307/307 806/806 312/312
f 306/306 310/310 315/315
f 315/315 345/345 309/309
f 309/309 347/347 304/304
f 304/304 346/346 810/810
f 810/810 314/314 812/812
f 813/813 349/349 304/304
f 305/305 318/318 322/322
f 322/322 816/816 318/318
f 304/304 817/817 319/319
f 318/318 817/817 323/323
f 326/326 324/324 818/818
f 326/326 323/323 819/819
f 820/820 325/325 821/821
f 327/327 822/822 328/328
f 312/312 823/823 807/807
f 328/328 824/824 823/823
f 329/329 328/328 825/825
f 826/826 327/327 827/827
f 826/826 828/828 330/330
f 331/331 335/335 328/328
f 336/336 829/829 830/830
f 830/830 833/833 834/834
f 834/834 836/836 296/296
f 296/296 837/837 293/293
f 330/330 838/838 312/312
f 328/328 807/807 829/829
f 824/824 328/328 320/320
f 385/385 332/332 839/839
f 840/840 841/841 305/305
f 332/332 385/385 841/841
f 840/840 842/842 311/311
f 311/311 352/352 313/313
f 313/313 310/310 843/843
f 843/843 845/845 320/320
f 320/320 846/846 294/294
f 806/806 306/306 307/307
f 805/805 309/309 806/806
f 307/307 306/306 832/832
f 831/831 847/847 330/330
f 335/335 848/848 829/829
f 336/336 849/849 339/339
f 339/339 337/337 338/338
f 340/340 337/337 339/339
f 851/851 301/301 339/339
f 776/776 851/851 784/784
f 782/782 280/280 772/772
f 773/773 278/278 338/338
f 287/287 767/767 344/344
f 345/345 316/316 346/346
f 347/347 852/852 808/808
f 346/346 852/852 811/811
f 344/344 316/316 853/853
f 856/856 857/857 853/853
f 856/856 854/854 325/325
f 856/856 853/853 348/348
f 349/349 317/317 350/350
f 835/835 858/858 349/349
f 837/837 317/317 351/351
f 352/352 333/333 353/353
f 351/351 333/333 354/354
f 844/844 859/859 352/352
f 846/846 333/333 860/860
f 860/860 861/861 862/862
f 862/862 864/864 865/865
f 356/356 361/361 358/358
f 358/358 863/863 356/356
f 356/356 866/866 359/359
f 361/361 355/355 360/360
f 870/870 871/871 361/361
f 869/869 355/355 362/362
f 364/364 363/363 367/367
f 367/367 363/363 366/366
f 366/366 362/362 368/368
f 367/367 370/370 363/363
f 367/367 362/362 370/370
f 369/369 365/365 368/368
f 370/370 365/365 867/867
f 866/866 356/356 270/270
f 270/270 276/276 872/872
f 872/872 374/374 373/373
f 373/373 372/372 374/374
f 374/374 377/377 376/376
f 375/375 371/371 377/377
f 877/877 879/879 878/878
f 377/377 879/879 378/378
f 379/379 300/300 801/801
f 381/381 880/880 804/804
f 378/378 300/300 268/268
f 268/268 881/881 770/770
f 882/882 384/384 768/768
f 768/768 384/384 883/883
f 384/384 882/882 770/770
f 384/384 768/768 275/275
f 275/275 885/885 341/341
f 342/342 886/886 305/305
f 320/320 311/311 388/388
f 739/739 741/741 705/705
f 390/390 707/707 388/388
f 741/741 191/191 707/707
f 390/390 59/59 681/681
f 681/681 680/680 685/685
f 685/685 684/684 689/689
f 689/689 688/688 690/690
