# MOD converted: h_w_costume_rider_hair.mod
# 548 verts, 63 faces

v 146.511475 -16.669405 12.670591
v 138.559265 -13.124124 17.012819
v 139.197479 -10.027575 17.048809
v 145.360474 -9.961510 10.906301
v 142.373459 -14.460144 8.260501
v 148.730453 -15.691462 -5.241855
v 139.527740 -16.535673 12.016493
v 125.737350 -12.842922 13.996880
v 123.770683 -4.986008 20.433981
v 144.778839 4.537174 19.955992
v 137.934631 -1.987529 1.255955
v 143.390274 -16.674252 15.106695
v 133.738098 -8.960499 -1.407089
v 141.201294 -16.319693 16.179598
v 139.987457 -14.121401 22.497345
v 137.911530 0.767728 20.113695
v 138.111526 3.354450 21.781286
v 145.369446 -2.723234 -3.723605
v 142.798477 -17.252996 -2.715365
v 141.768982 -18.480028 -0.675248
v 144.503937 -20.516706 1.259802
v 148.427872 -21.201012 4.219100
v 148.122345 -15.438644 -1.783633
v 148.416367 -16.470867 -14.844281
v 142.029633 -13.293612 -13.575643
v 147.392761 -14.718485 -10.906297
v 142.373459 -14.460149 -6.545508
v 144.205353 -19.348104 -2.923035
v 144.692139 -17.319935 -6.513724
v 140.023987 -15.836335 -8.552572
v 140.854446 -17.311426 -15.928109
v 141.082397 -9.859807 -14.942060
v 125.783913 -7.343060 -20.140251
v 138.866760 -2.967881 -22.779497
v 137.994293 -0.070171 -19.386438
v 137.451416 2.231225 -19.260265
v 144.818619 4.110003 -5.106784
v 148.425125 -20.291578 -13.283240
v 139.554901 -12.749414 -15.353239
v 137.449600 -9.579212 -20.392002
v 145.270538 -3.037012 -11.136740
v 137.791824 -13.960012 -15.952172
v 125.297989 -5.021218 -12.326873
v 124.613304 -13.671058 -10.601522
v 141.895004 -14.843306 -10.135264
v 144.214600 -15.121613 -8.842869
v 148.730438 -15.308929 -15.656678
v 146.115479 -11.167315 -21.171602
v 145.981903 -6.259926 -13.973708
v 128.042572 -10.304802 -16.947813
v 127.520676 -8.402033 -20.615618
v 139.516983 -6.041773 -15.716378
v 138.913925 -9.916353 19.589991
v 138.633698 -5.924072 20.885973
v 145.365128 -6.210732 14.867146
v 130.887390 -9.194991 18.038456
v 129.712402 -6.294301 16.193668
v 127.824783 -4.420928 19.197720
v 132.806824 -5.700134 15.780140
v 136.153488 -11.318171 13.887064
v 135.899475 -11.575756 14.105588
v 128.562592 -9.825251 16.269814
v 126.976738 -8.658434 14.571381
v 125.560249 -7.500803 22.635986
v 145.046188 1.250682 19.018784
v 132.198669 -2.627948 22.105757
v 131.921265 0.049816 19.225006
v 132.016846 3.105593 15.383945
v 126.640633 -4.396915 17.751497
v 125.738998 -2.376491 15.859669
v 124.657471 -1.238548 16.617765
v 129.538681 -4.365778 20.635717
v 128.087021 -0.846541 17.340483
v 127.553337 1.670763 -8.842869
v 148.730438 -15.308929 -15.656678
v 146.115479 -11.167315 -15.257195
v 135.084549 -9.010684 -19.474174
v 134.469299 -6.426382 -23.204727
v 145.372604 0.225722 -14.775083
v 131.854202 -9.145201 -18.394175
v 131.236938 -7.088415 -16.880993
v 129.421143 -4.280755 -16.951351
v 127.202759 -0.803666 -20.279261
v 127.345055 -2.544432 -16.271519
v 129.767700 -4.506411 -17.188808
v 131.841736 1.210769 -22.017704
v 131.530807 -0.787683 -19.347071
v 133.304901 -3.201591 8.065163
v 119.911957 -10.240475 8.065160
v 119.982780 -6.852547 13.120361
v 122.701607 -9.889232 13.120362
v 121.821396 -6.604243 17.037525
v 126.908356 -8.305626 17.333929
v 126.031487 -5.033144 19.322687
v 133.065430 -5.889705 20.066628
v 132.188568 -2.689144 20.865629
v 139.810287 -4.212864 22.263420
v 139.175064 -0.992334 21.156752
v 145.095169 -3.327049 22.555565
v 144.459320 -0.104321 0.000003
v 118.780045 -10.328869 0.000002
v 118.850883 -6.940940 -8.065157
v 119.982780 -6.852550 -8.065156
v 119.911949 -10.240476 -13.120359
v 121.821381 -6.604247 -13.120353
v 122.701584 -9.889239 -17.333920
v 126.031471 -5.033147 -17.037510
v 126.908340 -8.305639 -20.066629
v 132.188568 -2.689155 -19.322689
v 133.065430 -5.889707 -22.263412
v 139.175064 -0.992335 -20.865631
v 139.810272 -4.212865 -22.555569
v 144.459305 -0.104325 -21.156742
v 145.095169 -3.327059 17.518120
v 131.298019 3.162834 15.498455
v 142.735382 12.288108 14.780129
v 136.452103 12.086892 5.352739
v 140.168610 18.458931 5.198142
v 134.507523 18.296822 20.404106
v 137.863464 3.236131 16.785007
v 136.325455 0.411481 17.056496
v 141.068451 -2.266264 14.212595
v 131.490692 11.245661 5.193138
v 130.904190 17.694885 -0.000003
v 130.548584 21.028717 -0.000003
v 134.321075 22.307636 22.232937
v 145.484467 1.352536 9.845407
v 121.105064 1.768119 5.532888
v 120.979530 6.374732 -0.000002
v 120.107300 8.773486 15.882571
v 127.730118 3.087497 11.051201
v 123.737411 8.244456 3.997442
v 123.339157 12.918011 -0.000004
v 125.432365 19.774450 20.932737
v 137.899124 8.693187 21.020985
v 144.109909 8.867945 19.878988
v 131.561111 8.271743 18.763264
v 127.064041 6.703813 16.339804
v 124.471069 4.944563 12.270267
v 135.710434 17.835424 12.153700
v 141.451996 17.980793 12.123838
v 130.757172 17.003473 10.973405
v 126.708298 15.475918 -0.000001
v 121.954659 15.838629 8.910707
v 122.984016 12.635354 4.736009
v 126.514206 16.120447 12.917615
v 127.298409 10.240225 14.317881
v 124.749237 2.795222 -14.780133
v 136.452103 12.086888 -12.270272
v 135.710434 17.835423 -12.153706
v 141.451996 17.980787 -15.498458
v 142.735382 12.288105 -5.352744
v 140.168610 18.458925 -5.198150
v 134.507523 18.296822 -0.000002
v 139.761139 22.912594 -14.212599
v 131.490692 11.245657 -12.123848
v 130.757172 17.003471 -5.193143
v 130.904190 17.694883 -20.932735
v 137.899109 8.693178 -19.878983
v 131.561096 8.271742 -22.232929
v 145.484436 1.352535 -20.404100
v 137.863464 3.236137 -21.020987
v 144.109909 8.867943 -17.518120
v 131.298004 3.162830 -16.785004
v 136.325455 0.411477 -17.056496
v 141.068451 -2.266268 -18.763268
v 127.064018 6.703808 -12.917616
v 127.298393 10.240225 -10.973408
v 126.708290 15.475915 -4.736015
v 126.514206 16.120445 -15.882573
v 127.730095 3.087497 -16.339806
v 124.471046 4.944558 -14.317880
v 124.749214 2.795220 -9.845407
v 121.105064 1.768118 -11.051201
v 123.737389 8.244460 -3.997445
v 123.339157 12.918012 -5.532889
v 120.979530 6.374732 -8.910709
v 122.984016 12.635354 13.513165
v 125.145142 -9.713470 13.184830
v 127.023308 -11.155268 13.811253
v 126.260323 -11.077206 -13.850356
v 124.757553 -9.659095 -14.447271
v 125.777054 -10.831239 -13.399647
v 126.267372 -11.206357 11.965080
v 127.480400 8.094085 10.006939
v 125.059029 4.285981 5.905968
v 125.899689 11.040298 16.363029
v 131.460693 3.863541 13.229489
v 131.455078 11.049811 7.013947
v 131.022812 14.962934 -0.000002
v 130.837402 16.154858 -11.965080
v 127.480377 8.094087 -16.363031
v 131.460693 3.863539 -10.006939
v 125.059006 4.285980 -5.905972
v 125.899681 11.040297 -13.229491
v 131.455078 11.049810 -7.013953
v 131.022812 14.962931 -0.000002
v 125.514160 12.169644 -0.000001
v 123.522461 5.340425 4.419031
v 155.277222 -22.951973 6.427492
v 151.266068 -24.147518 16.407984
v 147.950256 -21.037376 19.587202
v 147.372620 -16.729036 2.662353
v 158.589828 -21.186157 21.068462
v 150.233124 -13.096047 2.462556
v 161.300568 -19.537653 21.070780
v 154.427872 -10.931622 4.153447
v 163.524887 -17.923859 7.075456
v 164.178101 -16.805420 16.797455
v 161.275574 -12.063374 19.655537
v 158.734467 -10.501470 12.656121
v 162.771622 -15.147963 11.562915
v 148.384262 -23.597754 3.434711
v 154.312820 -22.960861 7.128087
v 152.478485 -23.958450 16.178221
v 146.510132 -21.124313 19.554241
v 148.707825 -17.164669 1.494781
v 157.947342 -20.935843 20.918367
v 151.237579 -13.985759 1.276576
v 161.238434 -18.920729 20.874577
v 154.906219 -12.107630 3.398173
v 163.857086 -17.086079 6.691504
v 164.650818 -15.857891 17.007627
v 160.848145 -13.057705 19.617485
v 158.597458 -11.671358 12.419021
v 163.223297 -14.180769 12.057017
v 149.683929 -23.358887 4.202190
v 149.300629 -20.574785 9.141232
v 146.520691 -20.247847 13.579261
v 144.702881 -17.766750 16.583691
v 145.319977 -13.566000 18.041904
v 148.431519 -9.587332 18.163040
v 152.935684 -7.197021 17.067228
v 157.540848 -6.494796 14.089025
v 160.502625 -7.829251 10.129013
v 162.613403 -9.620910 4.738951
v 164.039429 -11.033854 5.052903
v 149.838608 -24.687614 5.684537
v 166.791565 -13.709751 12.148757
v 165.087723 -12.011337 16.899523
v 162.575058 -9.850336 20.468149
v 159.075134 -8.204172 21.802309
v 153.712433 -8.933769 21.683191
v 148.509964 -11.658123 19.955618
v 144.979919 -16.294527 16.351673
v 144.377716 -21.256044 11.005479
v 146.577545 -24.238962 19.730507
v 148.549606 -14.604862 23.587336
v 145.850693 -10.970539 25.890907
v 140.851074 0.959286 22.909924
v 136.572586 13.670259 20.208111
v 155.063370 -11.170500 23.278126
v 152.498169 -7.997401 25.548388
v 147.446747 2.841259 23.060236
v 143.164352 15.177756 18.440062
v 147.881226 -13.817944 22.044638
v 145.445892 -10.640209 24.220688
v 140.730743 0.270240 21.335129
v 136.925461 12.471440 18.917662
v 154.394989 -10.383587 21.791632
v 152.093384 -7.667076 23.939251
v 147.326431 2.702444 21.485441
v 142.811661 14.586627 13.215812
v 132.971863 24.384136 13.807815
v 139.811768 25.734276 12.151026
v 133.410950 22.845581 12.743028
v 139.927521 23.914742 -0.000005
v 132.005707 27.439779 -0.000004
v 138.845612 28.789927 -0.000004
v 139.371262 26.626701 1.940495
v 152.011475 -24.401693 1.446180
v 151.452560 -20.246626 0.000003
v 166.968491 -14.237791 0.000003
v 158.460602 -20.298361 0.000001
v 154.695786 -23.371504 0.000002
v 153.667267 -19.378899 6.243605
v 168.198502 -2.743015 10.814178
v 167.015564 1.671819 12.487118
v 165.399612 7.702593 10.814170
v 163.783691 13.733370 6.243598
v 162.600723 18.148193 11.755815
v 158.413040 -15.149963 20.361605
v 156.185699 -6.837414 22.915739
v 153.143082 4.517754 20.361597
v 150.100494 15.872910 11.755803
v 147.873138 24.185461 12.970374
v 149.336563 -19.859167 22.465286
v 146.879120 -10.687790 24.955666
v 143.522156 1.840539 22.023590
v 140.165176 14.368863 12.970358
v 137.707718 23.540243 12.675868
v 144.238937 -20.696968 21.955166
v 141.837265 -11.733844 24.389009
v 138.556534 0.510007 21.955160
v 135.275787 12.753856 12.675852
v 132.874146 21.716984 9.189023
v 164.895645 -8.909590 15.915785
v 163.154633 -2.412032 18.377951
v 160.776352 6.463796 15.915776
v 158.398102 15.339622 9.189012
v 156.657074 21.837177 -0.000000
v 168.631500 -4.358960 -0.000004
v 162.167740 19.764141 -0.000004
v 156.019806 24.215446 0.000004
v 159.228302 -18.192572 -0.000004
v 136.808243 26.897190 -0.000002
v 147.057861 27.228062 -1.446177
v 151.452560 -20.246628 -4.202190
v 149.300629 -20.574783 -5.052883
v 149.838608 -24.687622 -1.940494
v 152.011475 -24.401693 -9.141227
v 146.520676 -20.247850 -11.005461
v 146.577545 -24.238966 -16.351662
v 144.377716 -21.256044 -13.579258
v 144.702881 -17.766750 -16.583685
v 145.319977 -13.566004 -19.955608
v 144.979919 -16.294521 -18.041901
v 148.431488 -9.587340 -21.683189
v 148.509918 -11.658127 -18.163038
v 152.935669 -7.197028 -21.802301
v 153.712433 -8.933770 -17.067228
v 157.540848 -6.494802 -20.468147
v 159.075104 -8.204184 -14.089020
v 160.502609 -7.829249 -16.899511
v 162.575058 -9.850340 -10.129011
v 162.613403 -9.620914 -12.148751
v 165.087723 -12.011342 -5.684538
v 166.791565 -13.709751 -4.738951
v 164.039429 -11.033854 0.000001
v 164.335770 -11.439075 -4.419020
v 155.277206 -22.951979 -3.434698
v 154.312820 -22.960861 -6.427484
v 151.266068 -24.147524 -7.128078
v 152.478485 -23.958454 -2.662347
v 158.589828 -21.186157 -1.494775
v 157.947342 -20.935844 -11.562912
v 148.384262 -23.597750 -12.057011
v 149.683914 -23.358894 -16.407978
v 147.950241 -21.037388 -16.178217
v 146.510117 -21.124319 -19.587193
v 147.372604 -16.729048 -19.554235
v 148.707809 -17.164677 -21.068459
v 150.233124 -13.096046 -20.918369
v 151.237564 -13.985765 -2.462548
v 161.300568 -19.537653 -1.276568
v 161.238434 -18.920732 -21.070766
v 154.427856 -10.931629 -20.874567
v 154.906219 -12.107634 -7.075450
v 164.178101 -16.805424 -6.691504
v 164.650818 -15.857892 -3.398169
v 163.857086 -17.086082 -4.153439
v 163.524887 -17.923862 -17.007626
v 160.848114 -13.057707 -16.797451
v 161.275574 -12.063375 -12.419019
v 163.223282 -14.180773 -12.656120
v 162.771622 -15.147964 -19.655531
v 158.734467 -10.501480 -19.617479
v 158.597458 -11.671358 0.000005
v 160.605911 -18.547194 -19.730503
v 148.549591 -14.604866 -23.587330
v 145.850677 -10.970541 -23.278124
v 152.498138 -7.997415 -20.208099
v 155.063370 -11.170514 -25.890909
v 140.851059 0.959288 -25.548380
v 147.446747 2.841251 -22.909927
v 136.572571 13.670258 -23.060238
v 143.164337 15.177759 -18.440052
v 147.881226 -13.817954 -22.044630
v 145.445892 -10.640211 -24.220688
v 140.730743 0.270240 -21.335127
v 136.925461 12.471443 -21.485445
v 142.811661 14.586622 -23.939241
v 147.326431 2.702445 -21.791632
v 152.093384 -7.667085 -18.917652
v 154.394974 -10.383595 -13.215819
v 132.971848 24.384130 -13.807821
v 139.811768 25.734272 -12.151035
v 133.410950 22.845585 -12.743038
v 139.927505 23.914740 -0.000004
v 132.854675 25.557539 -0.000003
v 168.784073 8.609451 -6.243607
v 168.198502 -2.743016 -10.814178
v 167.015564 1.671817 -12.487121
v 165.399612 7.702590 -10.814176
v 163.783661 13.733362 -6.243605
v 162.600723 18.148197 0.000002
v 165.532898 -11.287861 -9.189017
v 164.895630 -8.909591 -15.915786
v 163.154633 -2.412035 -18.377951
v 160.776337 6.463792 -15.915786
v 158.398102 15.339621 -9.189019
v 156.657059 21.837172 0.000000
v 150.236053 -23.216122 -12.970372
v 149.336548 -19.859163 -11.755816
v 158.413040 -15.149963 -22.465277
v 146.879089 -10.687790 -20.361599
v 156.185684 -6.837407 -24.955666
v 143.522125 1.840536 -22.915745
v 153.143066 4.517753 -22.023584
v 140.165161 14.368865 -20.361599
v 150.100464 15.872908 -12.970366
v 137.707718 23.540234 -11.755814
v 147.873138 24.185463 0.000010
v 145.117996 -23.977701 -12.675862
v 144.238922 -20.696970 -21.955160
v 141.837265 -11.733852 -24.389000
v 138.556519 0.510003 -21.955164
v 135.275787 12.753855 -12.675860
v 132.874146 21.716984 -0.000004
v 131.995056 24.997704 -0.000001
v 146.727005 2.425283 -16.166065
v 129.444687 1.502403 -16.166063
v 128.175690 1.502406 -17.014000
v 128.070923 -1.703920 -16.784193
v 127.173592 -0.836534 -17.040234
v 124.754364 -1.805352 -16.784197
v 122.335129 -0.836530 -16.166069
v 120.064056 1.502400 -16.166069
v 121.333046 1.502405 -15.318136
v 121.437813 4.708722 -15.547942
v 122.335144 3.841333 -15.291906
v 124.754356 4.810153 -17.387342
v 127.684311 -1.205305 -16.638248
v 128.897949 1.627276 -17.697630
v 124.754364 -2.378598 -17.387346
v 121.824417 -1.205298 -16.638252
v 120.610779 1.627269 -15.889162
v 121.824417 4.459846 -15.578878
v 124.754364 5.633138 -15.889162
v 127.684311 4.459847 -17.365223
v 124.754356 -3.032016 -17.013996
v 121.437813 -1.703920 -14.966911
v 124.754356 6.036824 -15.318135
v 128.070923 4.708723 -15.547940
v 127.173599 3.841335 -16.442972
v 127.684319 -1.455040 -15.693883
v 128.897949 1.377534 -16.753260
v 124.754356 -2.628336 -16.442976
v 121.824409 -1.455038 -15.693882
v 120.610786 1.377521 -14.944792
v 121.824409 4.210103 -14.634512
v 124.754372 5.383394 -14.944792
v 127.684326 4.210102 16.166073
v 129.444687 1.502406 16.166071
v 128.175705 1.502409 17.014006
v 128.070923 -1.703915 16.784203
v 127.173615 -0.836536 17.040232
v 124.754372 -1.805349 16.784199
v 122.335144 -0.836532 16.166069
v 120.064079 1.502401 16.166069
v 121.333069 1.502405 15.318136
v 121.437836 4.708727 15.547941
v 122.335152 3.841339 15.291902
v 124.754387 4.810157 17.387348
v 127.684326 -1.205302 16.638256
v 128.897964 1.627278 17.697628
v 124.754387 -2.378589 17.387346
v 121.824440 -1.205290 16.638252
v 120.610802 1.627271 15.889162
v 121.824440 4.459850 15.578870
v 124.754372 5.633139 15.889158
v 127.684326 4.459854 17.365227
v 124.754372 -3.032017 17.014004
v 121.437828 -1.703912 14.966911
v 124.754387 6.036825 15.318134
v 128.070923 4.708725 15.547940
v 127.173622 3.841337 16.442978
v 127.684326 -1.455035 15.693880
v 128.897949 1.377535 16.753262
v 124.754387 -2.628329 16.442974
v 121.824432 -1.455035 15.693882
v 120.610794 1.377522 14.944792
v 121.824425 4.210103 14.634506
v 124.754387 5.383395 14.944792
v 127.684326 4.210104 15.106695
v 133.738098 -8.960499 17.012819
v 139.197479 -10.027575 17.048809
v 145.360474 -9.961510 0.000003
v 118.780045 -10.328869 0.000002
v 118.850883 -6.940940 0.000010
v 145.117996 -23.977701 12.675868
v 144.238937 -20.696968 21.955166
v 141.837265 -11.733844 24.389009
v 138.556534 0.510007 21.955160
v 135.275787 12.753856 12.675852
v 132.874146 21.716984 -0.000004
v 131.995056 24.997704 0.000001
v 164.335770 -11.439075 0.000003
v 166.968491 -14.237791 0.000003
v 158.460602 -20.298361 0.000001
v 154.695786 -23.371504 0.000005
v 160.605911 -18.547194 -0.000005
v 132.005707 27.439779 -0.000004
v 138.845612 28.789927 -0.000004
v 132.854675 25.557539 -0.000004
v 139.371262 26.626701 0.000002
v 153.667267 -19.378899 -0.000003
v 168.784073 8.609451 -0.000000
v 168.631500 -4.358960 -0.000004
v 162.167740 19.764141 0.000002
v 165.532898 -11.287861 -0.000004
v 156.019806 24.215446 0.000004
v 159.228302 -18.192572 0.000000
v 150.236053 -23.216122 -0.000004
v 136.808243 26.897190 -0.000002
v 147.057861 27.228062 0.000010
v 145.117996 -23.977701 -0.000004
v 131.995056 24.997704 0.000010
v 145.117996 -23.977701 -0.000001
v 146.727005 2.425283 -12.675862
v 144.238922 -20.696970 -21.955160
v 141.837265 -11.733852 -24.389000
v 138.556519 0.510003 -21.955164
v 135.275787 12.753855 -12.675860
v 132.874146 21.716984 -0.000004
v 131.995056 24.997704 -17.014000
v 128.070923 -1.703920 -16.166065
v 129.444687 1.502403 -17.365223
v 124.754356 -3.032016 -17.013996
v 121.437813 -1.703920 -16.166069
v 120.064056 1.502400 -15.318136
v 121.437813 4.708722 -14.966911
v 124.754356 6.036824 -15.318135
v 128.070923 4.708723 -16.166063
v 128.175690 1.502406 -16.784193
v 127.173592 -0.836534 -17.040234
v 124.754364 -1.805352 -16.784197
v 122.335129 -0.836530 -16.166069
v 121.333046 1.502405 -15.547942
v 122.335144 3.841333 -15.291906
v 124.754356 4.810153 -15.547940
v 127.173599 3.841335 17.014006
v 128.070923 -1.703915 16.166073
v 129.444687 1.502406 17.365227
v 124.754372 -3.032017 17.014004
v 121.437828 -1.703912 16.166069
v 120.064079 1.502401 15.318136
v 121.437836 4.708727 14.966911
v 124.754387 6.036825 15.318134
v 128.070923 4.708725 16.166071
v 128.175705 1.502409 16.784203
v 127.173615 -0.836536 17.040232
v 124.754372 -1.805349 16.784199
v 122.335144 -0.836532 16.166069
v 121.333069 1.502405 15.547941
v 122.335152 3.841339 15.291902
v 124.754387 4.810157 15.547940
v 127.173622 3.841337 0.294771

vt 0.352838 0.762779
vt 0.270178 0.381859
vt 0.541192 0.381752
vt 0.604536 0.770931
vt 0.319190 0.779704
vt 0.393985 0.621714
vt 0.072500 0.426939
vt 0.379996 0.318085
vt 0.356836 0.206986
vt 0.595894 0.292856
vt 0.525583 0.520251
vt 0.098194 0.385508
vt 0.480554 0.565253
vt 0.079160 0.723268
vt 0.281226 0.254163
vt 0.527418 0.211275
vt 0.526180 0.291019
vt 0.604137 0.607810
vt 0.121241 0.584629
vt 0.109270 0.550746
vt 0.147118 0.514828
vt 0.191190 0.448629
vt 0.131594 0.588787
vt 0.206674 0.834988
vt 0.089087 0.821681
vt 0.163556 0.781235
vt 0.097498 0.656144
vt 0.144824 0.602232
vt 0.153037 0.635943
vt 0.075529 0.668257
vt 0.089533 0.871664
vt 0.066609 0.119577
vt 0.493688 0.101570
vt 0.637350 0.062409
vt 0.636153 0.022383
vt 0.630261 0.014450
vt 0.704853 0.656694
vt 0.204315 0.817311
vt 0.054124 0.862973
vt 0.015295 0.112024
vt 0.698368 0.691658
vt 0.024308 0.085665
vt 0.492583 0.186668
vt 0.456655 0.712122
vt 0.078925 0.721894
vt 0.111432 0.758589
vt 0.185582 0.215101
vt 0.680141 0.146002
vt 0.699169 0.166012
vt 0.507142 0.133512
vt 0.516813 0.131768
vt 0.638353 0.187117
vt 0.614923 0.333143
vt 0.534611 0.328156
vt 0.605112 0.386258
vt 0.450311 0.341242
vt 0.442936 0.322999
vt 0.416833 0.331346
vt 0.475273 0.733039
vt 0.232843 0.753614
vt 0.233768 0.393786
vt 0.424309 0.366729
vt 0.412346 0.358753
vt 0.388429 0.248406
vt 0.600699 0.302827
vt 0.465672 0.261556
vt 0.468511 0.220300
vt 0.459351 0.320537
vt 0.391348 0.289721
vt 0.389630 0.275673
vt 0.373818 0.325439
vt 0.427030 0.272750
vt 0.425757 0.238910
vt 0.404993 0.736233
vt 0.173971 0.874819
vt 0.136685 0.174499
vt 0.578891 0.127478
vt 0.588581 0.069532
vt 0.706763 0.168393
vt 0.547296 0.128518
vt 0.555604 0.103800
vt 0.538467 0.039783
vt 0.517775 0.069090
vt 0.527863 0.104076
vt 0.533715 0.013330
vt 0.567126 0.061450
vt 0.575970 0.096305
vt 0.582859 0.993621
vt 0.374450 0.931707
vt 0.374450 0.993621
vt 0.487715 0.931707
vt 0.487881 0.993621
vt 0.607930 0.931707
vt 0.607930 0.993621
vt 0.741276 0.931707
vt 0.741276 0.993621
vt 0.868954 0.931707
vt 0.868954 0.993621
vt 0.977739 0.931707
vt 0.977739 0.993621
vt 0.212764 0.931707
vt 0.212764 0.931707
vt 0.374450 0.993621
vt 0.374450 0.931707
vt 0.487881 0.993621
vt 0.487715 0.931707
vt 0.607930 0.993621
vt 0.607930 0.931707
vt 0.741276 0.993621
vt 0.741276 0.931707
vt 0.868954 0.993621
vt 0.868954 0.931707
vt 0.977739 0.993621
vt 0.977739 0.298881
vt 0.835095 0.219605
vt 0.988914 0.203539
vt 0.925540 0.084197
vt 0.984221 0.077828
vt 0.925930 0.318666
vt 0.908243 0.347582
vt 0.868819 0.389379
vt 0.904654 0.194336
vt 0.872703 0.075212
vt 0.886683 0.016257
vt 0.890871 0.016127
vt 0.929617 0.361906
vt 0.978235 0.211580
vt 0.711468 0.123695
vt 0.722959 0.016181
vt 0.723149 0.278100
vt 0.791414 0.172353
vt 0.776797 0.070912
vt 0.782943 0.016519
vt 0.841524 0.271913
vt 0.927667 0.285870
vt 0.988799 0.254752
vt 0.866894 0.246365
vt 0.822314 0.237681
vt 0.787147 0.144889
vt 0.933995 0.152357
vt 0.990996 0.139374
vt 0.885833 0.131279
vt 0.844213 0.016506
vt 0.794596 0.123316
vt 0.796487 0.072082
vt 0.835257 0.181266
vt 0.825439 0.250341
vt 0.761283 0.203539
vt 0.925540 0.144889
vt 0.933995 0.152357
vt 0.990996 0.219605
vt 0.988914 0.084197
vt 0.984221 0.077828
vt 0.925930 0.016047
vt 0.984440 0.194336
vt 0.872703 0.139374
vt 0.885833 0.075212
vt 0.886683 0.271913
vt 0.927667 0.254752
vt 0.866894 0.361906
vt 0.978235 0.318666
vt 0.908243 0.285870
vt 0.988799 0.298881
vt 0.835095 0.347582
vt 0.868819 0.389379
vt 0.904654 0.246365
vt 0.822314 0.181266
vt 0.825439 0.131279
vt 0.844213 0.072082
vt 0.835257 0.278100
vt 0.791414 0.237681
vt 0.787147 0.250341
vt 0.761283 0.211580
vt 0.711468 0.172353
vt 0.776797 0.070912
vt 0.782943 0.123695
vt 0.722959 0.123316
vt 0.796487 0.384301
vt 0.379305 0.405531
vt 0.401680 0.397773
vt 0.392143 0.140692
vt 0.475093 0.154364
vt 0.486008 0.168116
vt 0.490669 0.136659
vt 0.400374 0.114947
vt 0.357987 0.069476
vt 0.433168 0.185423
vt 0.353285 0.150679
vt 0.433274 0.081761
vt 0.476829 0.003991
vt 0.490096 0.136659
vt 0.400374 0.185423
vt 0.353285 0.114947
vt 0.357987 0.069476
vt 0.433168 0.150679
vt 0.433274 0.081761
vt 0.476829 0.003991
vt 0.445738 0.003991
vt 0.369724 0.352118
vt 0.132659 0.320000
vt 0.078978 0.159227
vt 0.069086 0.085387
vt 0.092519 0.379239
vt 0.181089 0.054457
vt 0.149670 0.382561
vt 0.222199 0.059142
vt 0.210812 0.358742
vt 0.257917 0.316362
vt 0.273419 0.151137
vt 0.279597 0.093708
vt 0.261686 0.229129
vt 0.272365 0.237333
vt 0.053192 0.366364
vt 0.120542 0.311418
vt 0.095661 0.154809
vt 0.051395 0.098661
vt 0.105001 0.398230
vt 0.174883 0.072192
vt 0.155024 0.401477
vt 0.226580 0.076666
vt 0.207876 0.369312
vt 0.269136 0.318996
vt 0.286669 0.154614
vt 0.266267 0.104733
vt 0.251405 0.227798
vt 0.286801 0.234235
vt 0.070866 0.340353
vt 0.041905 0.242154
vt 0.013047 0.140880
vt 0.012825 0.056225
vt 0.056356 0.010605
vt 0.133284 0.013591
vt 0.218144 0.057769
vt 0.289288 0.133660
vt 0.324979 0.223140
vt 0.339515 0.328322
vt 0.342491 0.337594
vt 0.057710 0.329630
vt 0.326591 0.225175
vt 0.323953 0.138298
vt 0.310391 0.067121
vt 0.280173 0.028054
vt 0.216707 0.023341
vt 0.140231 0.063474
vt 0.068917 0.142864
vt 0.027227 0.240812
vt 0.028233 0.831828
vt 0.197063 0.831828
vt 0.308945 0.831829
vt 0.446736 0.831830
vt 0.613348 0.888782
vt 0.197062 0.888782
vt 0.308945 0.888783
vt 0.446736 0.888783
vt 0.613347 0.808216
vt 0.197063 0.808216
vt 0.308945 0.808217
vt 0.446736 0.808217
vt 0.613348 0.912149
vt 0.197062 0.912149
vt 0.308945 0.912149
vt 0.446736 0.912150
vt 0.613347 0.831830
vt 0.825811 0.888784
vt 0.825811 0.808218
vt 0.815991 0.912151
vt 0.825811 0.831831
vt 0.978799 0.888784
vt 0.978798 0.912151
vt 0.978798 0.385957
vt 0.084538 0.394375
vt 0.073516 0.422849
vt 0.326482 0.422849
vt 0.184692 0.422849
vt 0.121696 0.422849
vt 0.108113 0.717172
vt 0.524484 0.685484
vt 0.570560 0.672934
vt 0.624270 0.685347
vt 0.678104 0.717057
vt 0.724329 0.593252
vt 0.430287 0.544867
vt 0.524165 0.530240
vt 0.625202 0.544896
vt 0.726119 0.593171
vt 0.819754 0.509955
vt 0.388474 0.457548
vt 0.501597 0.440608
vt 0.624389 0.457447
vt 0.747231 0.509789
vt 0.860491 0.467806
vt 0.368500 0.413582
vt 0.490659 0.394917
vt 0.624387 0.413486
vt 0.758147 0.467600
vt 0.880386 0.664975
vt 0.476384 0.623237
vt 0.546583 0.608710
vt 0.624280 0.623162
vt 0.702062 0.664935
vt 0.772418 0.766241
vt 0.494212 0.766147
vt 0.754655 0.728747
vt 0.829126 0.662993
vt 0.345618 0.579300
vt 0.963225 0.662782
vt 0.904311 0.394375
vt 0.073516 0.340353
vt 0.041905 0.337594
vt 0.057710 0.385957
vt 0.084538 0.242154
vt 0.013047 0.240812
vt 0.028233 0.142864
vt 0.027227 0.140880
vt 0.012825 0.056225
vt 0.056356 0.063474
vt 0.068917 0.010605
vt 0.133284 0.023341
vt 0.140231 0.013591
vt 0.218144 0.028054
vt 0.216707 0.057769
vt 0.289288 0.067121
vt 0.280173 0.133660
vt 0.324979 0.138298
vt 0.310391 0.223140
vt 0.339515 0.225175
vt 0.323953 0.329630
vt 0.326591 0.328322
vt 0.342491 0.422849
vt 0.341750 0.352118
vt 0.132659 0.366364
vt 0.120542 0.320000
vt 0.078978 0.311418
vt 0.095661 0.379239
vt 0.181089 0.398230
vt 0.174883 0.237333
vt 0.053192 0.234235
vt 0.070866 0.159227
vt 0.069086 0.154809
vt 0.051395 0.085387
vt 0.092519 0.098661
vt 0.105001 0.054457
vt 0.149670 0.072192
vt 0.155024 0.382561
vt 0.222199 0.401477
vt 0.226580 0.059142
vt 0.210812 0.076666
vt 0.207876 0.316362
vt 0.273419 0.318996
vt 0.286669 0.369312
vt 0.269136 0.358742
vt 0.257917 0.154614
vt 0.266267 0.151137
vt 0.279597 0.227798
vt 0.286801 0.229129
vt 0.272365 0.093708
vt 0.261686 0.104733
vt 0.251405 0.422849
vt 0.223357 0.831828
vt 0.197063 0.831828
vt 0.308945 0.888782
vt 0.308945 0.888782
vt 0.197062 0.831829
vt 0.446736 0.888783
vt 0.446736 0.831830
vt 0.613348 0.888783
vt 0.613347 0.808216
vt 0.197063 0.808216
vt 0.308945 0.808217
vt 0.446736 0.808217
vt 0.613348 0.912150
vt 0.613347 0.912149
vt 0.446736 0.912149
vt 0.308945 0.912149
vt 0.197062 0.831830
vt 0.825811 0.888784
vt 0.825811 0.808218
vt 0.815991 0.912151
vt 0.825811 0.808219
vt 0.978799 0.785822
vt 0.623094 0.717172
vt 0.524484 0.685484
vt 0.570560 0.672934
vt 0.624270 0.685347
vt 0.678104 0.717057
vt 0.724329 0.728699
vt 0.419693 0.664975
vt 0.476384 0.623237
vt 0.546583 0.608710
vt 0.624280 0.623162
vt 0.702062 0.664935
vt 0.772418 0.579674
vt 0.285961 0.509955
vt 0.388474 0.593252
vt 0.430287 0.457548
vt 0.501597 0.544867
vt 0.524165 0.440608
vt 0.624389 0.530240
vt 0.625202 0.457447
vt 0.747231 0.544896
vt 0.726119 0.509789
vt 0.860491 0.593171
vt 0.819754 0.535919
vt 0.262679 0.467806
vt 0.368500 0.413582
vt 0.490659 0.394917
vt 0.624387 0.413486
vt 0.758147 0.467600
vt 0.880386 0.535469
vt 0.986373 0.380702
vt 0.734012 0.713384
vt 0.989465 0.722026
vt 0.967672 0.679975
vt 0.957293 0.701496
vt 0.947993 0.700894
vt 0.919561 0.720573
vt 0.899031 0.757647
vt 0.876637 0.749005
vt 0.898430 0.791056
vt 0.908809 0.769535
vt 0.918109 0.770137
vt 0.946541 0.691272
vt 0.953614 0.718771
vt 0.978876 0.689690
vt 0.916306 0.714952
vt 0.888807 0.752260
vt 0.887226 0.779759
vt 0.912488 0.781341
vt 0.949796 0.756079
vt 0.977295 0.679101
vt 0.910919 0.711274
vt 0.877511 0.791930
vt 0.955183 0.759757
vt 0.988591 0.750458
vt 0.967071 0.691272
vt 0.953614 0.718771
vt 0.978876 0.689690
vt 0.916306 0.714952
vt 0.888807 0.752260
vt 0.887226 0.779759
vt 0.912488 0.781341
vt 0.949796 0.756079
vt 0.977295 0.713384
vt 0.989465 0.722026
vt 0.967672 0.679975
vt 0.957293 0.701496
vt 0.947993 0.700894
vt 0.919561 0.720573
vt 0.899031 0.757647
vt 0.876637 0.749005
vt 0.898430 0.791056
vt 0.908809 0.769535
vt 0.918109 0.770137
vt 0.946541 0.691272
vt 0.953614 0.718771
vt 0.978876 0.689690
vt 0.916306 0.714952
vt 0.888807 0.752260
vt 0.887226 0.779759
vt 0.912488 0.781341
vt 0.949796 0.756079
vt 0.977295 0.679101
vt 0.910919 0.711274
vt 0.877511 0.791930
vt 0.955183 0.759757
vt 0.988591 0.750458
vt 0.967071 0.691272
vt 0.953614 0.718771
vt 0.978876 0.689690
vt 0.916306 0.714952
vt 0.888807 0.752260
vt 0.887226 0.779759
vt 0.912488 0.781341
vt 0.949796 0.756079
vt 0.977295 0.738444
vt 0.196908 0.696638
vt 0.245438 0.652743
vt 0.297467 0.993621
vt 0.212764 0.931707
vt 0.212764 0.380739
vt 0.830072 0.329268
vt 0.817747 0.291612
vt 0.782527 0.281463
vt 0.734494 0.291690
vt 0.686597 0.329330
vt 0.651601 0.380658
vt 0.638229 0.422849
vt 0.341750 0.422849
vt 0.326482 0.422849
vt 0.184692 0.422849
vt 0.121696 0.422849
vt 0.223357 0.831831
vt 0.978799 0.888784
vt 0.978798 0.808219
vt 0.978799 0.912151
vt 0.978798 0.422849
vt 0.108113 0.785822
vt 0.623094 0.766241
vt 0.494212 0.766147
vt 0.754655 0.728699
vt 0.419693 0.728747
vt 0.829126 0.662993
vt 0.345618 0.579674
vt 0.285961 0.579300
vt 0.963225 0.662782
vt 0.904311 0.535919
vt 0.262679 0.535469
vt 0.986373 0.380739
vt 0.830072 0.380702
vt 0.734012 0.329268
vt 0.817747 0.291612
vt 0.782527 0.281463
vt 0.734494 0.291690
vt 0.686597 0.329330
vt 0.651601 0.380658
vt 0.638229 0.679975
vt 0.957293 0.713384
vt 0.989465 0.679101
vt 0.910919 0.711274
vt 0.877511 0.757647
vt 0.876637 0.791056
vt 0.908809 0.791930
vt 0.955183 0.759757
vt 0.988591 0.722026
vt 0.967672 0.701496
vt 0.947993 0.700894
vt 0.919561 0.720573
vt 0.899031 0.749005
vt 0.898430 0.769535
vt 0.918109 0.770137
vt 0.946541 0.750458
vt 0.967071 0.679975
vt 0.957293 0.713384
vt 0.989465 0.679101
vt 0.910919 0.711274
vt 0.877511 0.757647
vt 0.876637 0.791056
vt 0.908809 0.791930
vt 0.955183 0.759757
vt 0.988591 0.722026
vt 0.967672 0.701496
vt 0.947993 0.700894
vt 0.919561 0.720573
vt 0.899031 0.749005
vt 0.898430 0.769535
vt 0.918109 0.770137
vt 0.946541 0.750458
vt 0.967071 1.000000

f 242/242 235/235 234/234
f 235/235 242/242 241/241
f 235/235 240/240 236/236
f 240/240 235/235 241/241
f 239/239 330/330 237/237
f 330/330 239/239 273/273
f 237/237 240/240 239/239
f 240/240 237/237 236/236
f 222/222 239/239 223/223
f 239/239 222/222 273/273
f 223/223 240/240 226/226
f 240/240 223/223 239/239
f 226/226 241/241 210/210
f 241/241 226/226 240/240
f 210/210 242/242 211/211
f 242/242 210/210 241/241
f 255/255 262/262 263/263
f 262/262 255/255 254/254
f 254/254 261/261 262/262
f 261/261 254/254 253/253
f 253/253 260/260 261/261
f 260/260 253/253 252/252
f 323/323 324/324 325/325
f 324/324 323/323 322/322
f 324/324 327/327 325/325
f 327/327 324/324 326/326
f 328/328 488/488 489/489
f 488/488 328/328 329/329
f 329/329 327/327 326/326
f 327/327 329/329 328/328
f 351/351 328/328 489/489
f 328/328 351/351 350/350
f 350/350 327/327 328/328
f 327/327 350/350 355/355
f 355/355 325/325 327/327
f 325/325 355/355 354/354
f 354/354 323/323 325/325
f 323/323 354/354 357/357
f 367/367 373/373 365/365
f 373/373 367/367 372/372
f 365/365 374/374 362/362
f 374/374 365/365 373/373
f 362/362 375/375 363/363
f 375/375 362/362 374/374
f 272/272 271/271 228/228
f 228/228 238/238 246/246
f 246/246 245/245 230/230
f 230/230 229/229 214/214
f 214/214 201/201 203/203
f 203/203 245/245 216/216
f 216/216 246/246 213/213
f 213/213 247/247 248/248
f 250/250 251/251 214/214
f 271/271 272/272 308/308
f 309/309 312/312 314/314
f 315/315 314/314 332/332
f 332/332 311/311 341/341
f 337/337 333/333 360/360
f 360/360 368/368 361/361
f 361/361 369/369 364/364
f 364/364 370/370 332/332
f 1/1 245/245 232/232
f 231/231 232/232 245/245
