# MOD converted: h_w_metalarmor011.mod
# 688 verts, 776 faces

v 84.673424 -5.783060 8.350563
v 85.673294 7.161850 12.504405
v 85.177246 -0.257979 0.000009
v 84.494675 -10.218333 -0.000000
v 85.789162 8.807006 12.301107
v 84.350082 -6.535487 9.349612
v 85.620880 8.183409 13.944238
v 84.916916 -0.190720 0.000006
v 84.087761 -11.845469 -0.000000
v 85.820763 10.154924 14.486503
v 79.989830 6.776586 8.705038
v 80.352013 11.473855 -0.000000
v 80.432419 12.566623 13.790890
v 79.121201 -6.460903 4.064334
v 78.802521 -10.712214 15.939036
v 79.615433 0.033873 0.000005
v 77.005211 -11.563969 4.437747
v 78.975906 -8.247059 14.990377
v 77.927628 -0.042639 0.000005
v 77.005219 -9.623889 -0.000000
v 69.815071 0.611325 -0.000000
v 71.197678 6.496521 1.271710
v 69.672661 0.663308 10.116539
v 71.078156 9.114343 1.797753
v 72.241982 10.890997 8.589883
v 76.023636 11.072182 12.839726
v 76.856133 -5.631778 13.385783
v 74.094040 -5.636936 15.608115
v 75.105110 -0.006869 16.979086
v 59.825844 -0.292840 14.440376
v 59.222763 -5.854699 7.459643
v 72.213013 -8.239548 9.197056
v 58.898495 -8.768392 6.981712
v 75.212296 -8.063499 4.437905
v 59.935631 9.344260 2.915757
v 69.758621 8.931320 14.256927
v 76.954155 6.037960 14.968682
v 74.159309 5.582405 2.378628
v 58.524082 1.472215 3.493009
v 58.464184 -5.817230 2.250038
v 70.587395 -6.126533 5.392735
v 48.607597 -5.401268 10.582067
v 49.142300 -7.498507 6.924753
v 47.580383 7.649983 4.530011
v 47.423084 1.545919 12.702753
v 48.178658 7.498519 15.398262
v 48.398117 4.315848 15.244720
v 49.646130 -4.868556 4.890663
v 44.639706 1.580283 6.158205
v 45.301769 -5.005611 15.312201
v 46.406429 -4.477601 7.035272
v 45.824188 7.689216 12.934131
v 46.160690 7.516721 11.782520
v 60.562283 9.192097 10.969228
v 45.748081 -7.238562 16.925913
v 45.847923 2.148329 14.380035
v 35.903469 9.252932 18.516426
v 35.623825 3.090416 11.322495
v 42.444782 -6.186503 6.753991
v 42.558403 -4.372940 15.621099
v 43.357925 -3.696306 6.671242
v 20.483194 3.588787 9.189460
v 20.484201 -4.618870 4.973964
v 34.136723 2.671751 7.779901
v 35.585110 9.489624 19.047203
v 20.485809 4.294421 17.271502
v 20.485107 -4.281380 15.818406
v 20.484995 9.062570 8.996700
v 20.483414 8.895574 -0.000000
v 70.503578 -6.594513 0.000000
v 73.608917 -8.426784 -0.000001
v 75.885765 11.649767 16.439945
v 73.526291 7.982165 10.172910
v 73.796692 13.699299 6.139895
v 73.013252 -11.664651 16.124718
v 72.929436 -6.863147 18.274633
v 73.151863 0.387315 3.245867
v 84.158310 -10.941325 9.617544
v 78.961243 -9.211192 11.577020
v 72.583855 -10.161584 -0.000000
v 73.861488 14.918421 9.261122
v 74.021904 10.550044 16.517059
v 69.714630 -0.470997 15.797793
v 69.462898 5.344705 16.297010
v 60.090504 5.333643 16.591396
v 48.710079 0.530071 13.834073
v 69.208763 -6.017210 8.002235
v 68.347343 -8.967639 2.563001
v 67.097023 -6.026546 1.576968
v 66.683289 1.012673 6.121475
v 84.581604 -8.785012 8.167005
v 84.231262 -9.267540 14.049654
v 66.590576 -12.114148 19.095165
v 66.976700 -7.889163 21.315063
v 67.517914 0.478176 19.224049
v 67.892311 9.264818 11.567300
v 68.166786 15.683599 8.396329
v 67.370415 -13.472834 -0.000006
v 68.076752 17.453873 -11.170196
v 84.673393 -5.783059 -8.350563
v 85.673279 7.161848 -12.504405
v 85.177238 -0.257990 -12.301106
v 84.350082 -6.535489 -9.349613
v 85.620888 8.183412 -13.944237
v 84.916916 -0.190731 -14.486501
v 79.989861 6.776586 -8.705038
v 80.352020 11.473854 -13.790892
v 79.121201 -6.460905 -4.064335
v 78.802528 -10.712222 -15.939037
v 79.615433 0.033899 -4.437747
v 78.975906 -8.247062 -14.990379
v 77.927635 -0.042643 -1.271710
v 69.672684 0.663299 -10.116536
v 71.078156 9.114344 -1.797756
v 72.241974 10.890996 -8.589878
v 76.023636 11.072182 -12.839727
v 76.856140 -5.631781 -13.385784
v 74.094040 -5.636935 -15.608115
v 75.105110 -0.007052 -16.979086
v 59.825867 -0.292860 -14.440376
v 59.222775 -5.854698 -7.459643
v 72.213013 -8.239546 -9.197053
v 58.898495 -8.768392 -6.981713
v 75.212296 -8.063505 -4.437906
v 59.935631 9.344258 -2.915751
v 69.758629 8.931324 -14.256927
v 76.954147 6.037961 -14.968682
v 74.159302 5.582404 -2.378630
v 58.524082 1.472211 -3.493013
v 58.464188 -5.817226 -2.250036
v 70.587395 -6.126529 -5.392735
v 48.607597 -5.401267 -10.582068
v 49.142303 -7.498508 -6.924754
v 47.580372 7.649987 -4.530011
v 47.423084 1.545923 -12.702753
v 48.178665 7.498520 -15.398262
v 48.398102 4.315851 -15.244718
v 49.646130 -4.868555 -4.890664
v 44.639702 1.580286 -6.158205
v 45.301769 -5.005611 -15.312201
v 46.406437 -4.477596 -7.035272
v 45.824188 7.689216 -12.934132
v 46.160690 7.516721 -11.782522
v 60.562267 9.192097 -10.969233
v 45.748089 -7.238560 -16.925913
v 45.847923 2.148333 -14.380035
v 35.903469 9.252934 -18.516420
v 35.623825 3.090416 -11.322495
v 42.444778 -6.186504 -6.753995
v 42.558403 -4.372943 -15.621101
v 43.357925 -3.696303 -6.671242
v 20.483202 3.588794 -9.189460
v 20.484205 -4.618871 -4.973965
v 34.136719 2.671753 -7.779902
v 35.585102 9.489622 -19.047207
v 20.485798 4.294422 -17.271500
v 20.485107 -4.281384 -15.818406
v 20.485001 9.062570 -8.996700
v 20.483412 8.895574 -16.439945
v 73.526291 7.982170 -10.172912
v 73.796692 13.699299 -6.139899
v 73.013252 -11.664657 -16.124714
v 72.929436 -6.863144 -18.274635
v 73.151863 0.387338 -3.245862
v 84.158310 -10.941325 -9.617544
v 78.961243 -9.211192 -11.577024
v 72.583862 -10.161584 -9.261123
v 74.021896 10.550046 -16.517056
v 69.714638 -0.471011 -15.797799
v 69.462898 5.344703 -16.297009
v 60.090481 5.333642 -16.591393
v 48.710083 0.530091 -13.834073
v 69.208755 -6.017209 -8.002236
v 68.347351 -8.967641 -2.563003
v 67.097031 -6.026544 -1.576969
v 66.683304 1.012684 -6.121475
v 84.581604 -8.785015 -8.167005
v 84.231255 -9.267542 -14.049655
v 66.590576 -12.114145 -19.095163
v 66.976700 -7.889163 -21.315060
v 67.517914 0.478232 -19.224047
v 67.892303 9.264816 -11.567300
v 68.166786 15.683598 -8.396325
v 67.370415 -13.472835 10.131199
v 96.380997 -0.803935 4.914304
v 95.919014 -10.071101 7.516102
v 96.582626 4.818162 0.000000
v 97.079536 -11.287200 -0.000000
v 96.982300 6.940510 0.000000
v 89.524635 -10.437299 5.100180
v 89.665230 -9.081161 10.173702
v 90.267525 -0.895688 7.360465
v 90.654533 4.415297 -0.000000
v 90.803299 5.818109 9.020881
v 96.042809 -6.367281 9.139214
v 89.932037 -5.578330 43.985992
v 90.563698 4.652570 45.726578
v 94.374023 6.712375 43.711884
v 90.471230 -0.151554 47.274292
v 97.930466 5.048129 45.364582
v 94.248085 -2.745784 47.002296
v 98.115501 -0.862934 11.502807
v 103.146904 -0.286822 10.387198
v 102.986275 7.243957 10.301562
v 109.145416 -2.567218 11.750161
v 111.743568 8.071754 12.558405
v 103.597122 6.832928 10.821507
v 108.821602 9.500968 13.701661
v 107.763329 8.877378 12.874461
v 102.827316 0.040326 12.748288
v 112.112419 -0.549633 13.813767
v 107.944870 -1.948636 16.172672
v 111.469017 6.157358 13.300592
v 113.202797 4.038412 15.824410
v 111.307892 0.440412 26.658918
v 102.252113 7.692625 26.048128
v 97.598938 5.476018 27.703970
v 101.820976 -1.642416 26.200739
v 97.786858 0.417046 29.109877
v 105.683548 0.155619 29.231735
v 105.858322 5.385987 28.340693
v 96.737656 5.101936 31.421541
v 104.935692 5.374604 30.833696
v 100.548706 7.497861 28.926308
v 101.416306 7.714561 31.342709
v 104.733727 0.095319 29.935741
v 100.881905 -1.742331 28.401131
v 96.859421 0.369963 34.083294
v 93.988602 -0.086183 35.962978
v 98.317085 -2.637074 37.789612
v 102.471420 -0.598053 37.946655
v 102.529961 5.537988 36.003006
v 98.446793 7.766861 33.967770
v 94.030380 5.196584 9.094337
v 112.617432 0.021139 7.740952
v 112.615715 8.021673 11.889300
v 102.385017 -7.583859 6.223104
v 103.158844 9.454698 6.859152
v 108.743874 10.351756 9.124678
v 114.021049 4.407872 5.972380
v 109.835121 -5.513018 0.000000
v 100.805031 -12.835603 4.410782
v 101.830025 -13.916701 -0.000000
v 109.224014 -6.426002 9.170405
v 101.880989 -12.424403 -0.000001
v 104.684036 9.575294 0.000006
v 111.582008 9.707071 4.508073
v 105.757042 -11.906196 0.000000
v 104.592056 -11.474598 8.871496
v 105.388023 -10.586997 10.209303
v 106.903603 -6.357241 4.593371
v 98.023804 -12.972903 9.093272
v 98.103134 -11.516000 11.256202
v 98.526619 -7.138271 6.071082
v 116.103790 5.282941 5.792603
v 113.889412 -0.842341 5.009039
v 122.611092 2.854042 4.507290
v 120.603058 -1.682563 -0.000000
v 116.839020 7.537126 -0.000000
v 112.962921 -3.381863 -0.000001
v 123.522491 5.340426 0.000004
v 119.354485 -4.180039 0.000000
v 116.911606 -3.031980 4.698724
v 117.589485 -0.452016 5.097162
v 119.448853 4.195205 -0.000001
v 120.294861 5.943826 -10.131199
v 96.380997 -0.803934 -4.914299
v 95.919014 -10.071103 -7.516101
v 96.582626 4.818162 -5.100181
v 89.665230 -9.081163 -10.173702
v 90.267525 -0.895697 -7.360443
v 90.654526 4.415305 -9.020883
v 96.042809 -6.367282 -9.139213
v 89.932037 -5.578332 -43.985989
v 90.563698 4.652562 -45.726566
v 94.374016 6.712376 -43.711884
v 90.471230 -0.151558 -47.274281
v 97.930458 5.048133 -45.364590
v 94.248093 -2.745786 -47.002312
v 98.115501 -0.862930 -11.502807
v 103.150322 -0.291331 -10.387205
v 102.981323 7.238591 -10.301565
v 109.153671 -2.566245 -11.750161
v 111.737000 8.076053 -12.558408
v 103.594154 6.830334 -10.821504
v 108.812996 9.501662 -13.701656
v 107.759018 8.877792 -12.874459
v 102.829117 0.037804 -12.748287
v 112.116959 -0.544321 -13.813759
v 107.949600 -1.947893 -16.172667
v 111.467072 6.160120 -13.300590
v 113.201363 4.045020 -15.824418
v 111.309456 0.443212 -26.658915
v 102.252144 7.692625 -26.048130
v 97.598976 5.476059 -27.703974
v 101.820900 -1.642421 -26.200743
v 97.786835 0.417082 -29.109879
v 105.683533 0.155546 -29.231724
v 105.858330 5.385969 -28.340677
v 96.737663 5.101953 -31.421530
v 104.935692 5.374593 -30.833681
v 100.548706 7.497866 -28.926302
v 101.416344 7.714561 -31.342714
v 104.733719 0.095290 -29.935747
v 100.881882 -1.742334 -28.401133
v 96.859390 0.369976 -34.083298
v 93.988602 -0.086192 -35.962982
v 98.317070 -2.637075 -37.789623
v 102.471420 -0.598047 -37.946625
v 102.529961 5.538001 -36.002991
v 98.446785 7.766862 -33.967751
v 94.030380 5.196570 -9.094316
v 112.622116 0.026604 -7.740952
v 112.609863 8.024879 -11.889303
v 102.385040 -7.583855 -6.223098
v 103.157028 9.453069 -6.859153
v 108.738998 10.351198 -9.124676
v 114.018425 4.415640 -5.972380
v 109.839027 -5.513111 -4.410782
v 101.830025 -13.916701 -9.170403
v 101.880989 -12.424403 -4.508068
v 105.757042 -11.906201 -8.871490
v 105.388023 -10.586996 -10.209302
v 106.908035 -6.357887 -4.593365
v 98.023804 -12.972906 -9.093268
v 98.103134 -11.516002 -11.256202
v 98.526619 -7.138275 -6.071082
v 116.102020 5.286800 -5.792602
v 113.890900 -0.841030 -5.009036
v 122.611092 2.854043 -4.507284
v 120.603058 -1.682566 -4.698724
v 117.589478 -0.452017 -5.097161
v 119.448715 4.196067 10.263369
v 117.522133 3.213064 12.298890
v 107.002449 -4.717988 10.563788
v 110.409798 -3.605037 14.450610
v 116.153336 -1.929024 15.003946
v 118.058907 3.213511 16.286631
v 105.656387 -4.742524 18.152706
v 110.136887 -4.229082 20.121338
v 114.106560 -1.807505 21.208067
v 115.866852 3.213426 24.783869
v 111.998901 3.217332 23.328548
v 110.589943 -1.333913 10.187167
v 115.476509 -1.457040 19.468998
v 106.956596 -4.035376 18.974888
v 109.860138 3.217002 13.515499
v 111.591286 -4.197856 16.436981
v 106.805367 -3.666045 18.323107
v 105.472374 -3.621822 19.488653
v 108.463524 -2.682140 25.159504
v 108.258064 -1.252592 21.751305
v 110.615494 -1.232923 26.311321
v 109.216621 3.219512 22.753872
v 112.003372 3.217505 20.568861
v 105.343880 -3.311492 8.279895
v 114.950127 -0.385638 8.914922
v 110.850258 -2.341778 12.612487
v 108.732368 -3.366330 8.384984
v 116.417168 3.212757 11.675585
v 114.860420 -0.597437 11.608871
v 116.494743 3.212003 9.945585
v 109.206512 -3.108274 12.298895
v 107.012665 11.157654 10.563789
v 110.427315 10.039234 14.450614
v 116.159462 8.358255 16.286629
v 105.660637 11.181694 18.152704
v 110.145714 10.663133 20.121338
v 114.112480 8.236664 23.328556
v 110.592430 7.769541 10.187165
v 115.486191 7.883248 19.468994
v 106.960457 10.473374 13.515498
v 111.600471 10.632019 16.436983
v 106.809021 10.104652 18.323107
v 105.476013 10.060718 19.488659
v 108.470528 9.117411 25.159504
v 108.257973 7.691665 21.751305
v 110.617874 7.668809 20.568855
v 105.347351 9.750045 8.279896
v 114.958717 6.812623 8.914923
v 110.865097 8.776228 12.612486
v 108.745079 9.803226 11.675586
v 114.869095 7.022439 9.945586
v 109.224403 9.545562 -10.263367
v 117.521843 3.219476 -12.298889
v 107.007668 -4.718381 -10.563784
v 110.419075 -3.602421 -14.450612
v 116.156204 -1.924168 -15.003939
v 118.058670 3.219481 -16.286631
v 105.658440 -4.742638 -18.152702
v 110.141121 -4.226641 -20.121338
v 114.109344 -1.802635 -21.208046
v 115.866646 3.219525 -24.783857
v 111.998764 3.219500 -23.328552
v 110.591080 -1.332278 -10.187165
v 115.481102 -1.450509 -19.468992
v 106.958420 -4.034909 -18.974888
v 109.859947 3.219478 -13.515492
v 111.595810 -4.195391 -16.436981
v 106.807114 -3.665884 -18.323107
v 105.474098 -3.621801 -19.488653
v 108.466835 -2.680313 -25.159504
v 108.258041 -1.252670 -21.751305
v 110.616608 -1.231411 -26.311316
v 109.216591 3.219495 -22.753870
v 112.003311 3.219486 -20.568861
v 105.345535 -3.311300 -8.279896
v 114.953804 -0.379959 -8.914922
v 110.857765 -2.339387 -12.612491
v 108.739197 -3.365186 -8.384982
v 116.416809 3.219478 -11.675585
v 114.864594 -0.590158 -11.608869
v 116.494408 3.219477 -9.945585
v 109.215706 -3.107389 -12.298890
v 107.007683 11.157327 -10.563788
v 110.419052 10.041365 -14.450616
v 116.156227 8.363121 -16.286629
v 105.658432 11.181587 -18.152699
v 110.141098 10.665584 -20.121344
v 114.109344 8.241575 -23.328552
v 110.591080 7.771213 -10.187165
v 115.481148 7.889460 -19.468994
v 106.958412 10.473860 -13.515496
v 111.595810 10.634338 -16.436983
v 106.807083 10.104826 -18.323116
v 105.474098 10.060749 -19.488653
v 108.466835 9.119257 -25.159508
v 108.258064 7.691616 -21.751305
v 110.616623 7.670351 -20.568861
v 105.345535 9.750249 -8.279898
v 114.953842 6.818910 -8.914922
v 110.857750 8.778336 -12.612489
v 108.739189 9.804133 -11.675583
v 114.864594 7.029107 -9.945585
v 109.215706 9.546342 16.124718
v 72.929436 -6.863147 11.577020
v 72.583855 -10.161584 16.439945
v 73.526291 7.982165 18.274633
v 73.151863 0.387315 10.172910
v 73.796692 13.699299 16.439945
v 73.526291 7.982165 18.274633
v 73.151863 0.387315 16.124718
v 72.929436 -6.863147 11.577020
v 72.583855 -10.161584 6.139895
v 73.013252 -11.664651 -0.000000
v 73.861488 14.918421 10.172910
v 73.796692 13.699299 -11.577024
v 72.583862 -10.161584 -16.124714
v 72.929436 -6.863144 -18.274635
v 73.151863 0.387338 -16.439945
v 73.526291 7.982170 -16.439945
v 73.526291 7.982170 -10.172912
v 73.796692 13.699299 -16.124714
v 72.929436 -6.863144 -18.274635
v 73.151863 0.387338 -6.139899
v 73.013252 -11.664657 -11.577024
v 72.583862 -10.161584 -10.172912
v 73.796692 13.699299 -0.000000
v 73.861488 14.918421 10.172910
v 73.796692 13.699299 16.124718
v 72.929436 -6.863147 18.274633
v 73.151863 0.387315 11.577020
v 72.583855 -10.161584 14.049654
v 66.590576 -12.114148 21.315063
v 67.517914 0.478176 19.224049
v 67.892311 9.264818 8.396329
v 67.370415 -13.472834 -0.000006
v 68.076752 17.453873 -10.172912
v 73.796692 13.699299 -16.124714
v 72.929436 -6.863144 -18.274635
v 73.151863 0.387338 -11.577024
v 72.583862 -10.161584 -14.049655
v 66.590576 -12.114145 -21.315060
v 67.517914 0.478232 -19.224047
v 67.892303 9.264816 -8.396325
v 67.370415 -13.472835 14.049654
v 66.590576 -12.114148 21.315063
v 67.517914 0.478176 19.224049
v 67.892311 9.264818 -0.000006
v 68.076752 17.453873 -14.049655
v 66.590576 -12.114145 -21.315060
v 67.517914 0.478232 -19.224047
v 67.892303 9.264816 19.224049
v 67.892311 9.264818 -0.000006
v 68.076752 17.453873 -19.224047
v 67.892303 9.264816 1.271710
v 69.672661 0.663308 4.530011
v 47.423084 1.545919 4.890663
v 44.639706 1.580283 4.973964
v 34.136723 2.671751 2.378628
v 58.524082 1.472215 1.576968
v 66.683289 1.012673 6.671242
v 20.483194 3.588787 -0.000000
v 69.815071 0.611325 14.486503
v 79.989830 6.776586 8.705038
v 80.352013 11.473855 13.790890
v 79.121201 -6.460903 9.617544
v 78.961243 -9.211192 4.064334
v 78.802521 -10.712214 15.939036
v 79.615433 0.033873 0.000005
v 77.005219 -9.623889 4.064334
v 78.802521 -10.712214 4.437747
v 78.975906 -8.247059 0.000005
v 77.005211 -11.563969 6.139895
v 73.013252 -11.664651 -0.000000
v 80.432419 12.566623 14.256927
v 76.954155 6.037960 10.172910
v 73.796692 13.699299 8.589883
v 76.023636 11.072182 16.439945
v 73.526291 7.982165 11.577020
v 72.583855 -10.161584 16.124718
v 72.929436 -6.863147 12.839726
v 76.856133 -5.631778 12.839726
v 76.856133 -5.631778 11.577020
v 72.583855 -10.161584 14.990377
v 77.927628 -0.042639 16.439945
v 73.526291 7.982165 14.256927
v 76.954155 6.037960 18.274633
v 73.151863 0.387315 -0.000000
v 73.861488 14.918421 -0.000001
v 75.885765 11.649767 -0.000000
v 85.820763 10.154924 -0.000000
v 80.432419 12.566623 -0.000000
v 85.789162 8.807006 0.000009
v 84.494675 -10.218333 0.000006
v 84.087761 -11.845469 -0.000000
v 69.815071 0.611325 -0.000000
v 71.197678 6.496521 -1.271710
v 69.672684 0.663299 -4.530011
v 47.423084 1.545923 -4.890664
v 44.639702 1.580286 -4.973965
v 34.136719 2.671753 -2.378630
v 58.524082 1.472211 -1.576969
v 66.683304 1.012684 -6.671242
v 20.483202 3.588794 -0.000000
v 70.503578 -6.594513 -0.000000
v 69.815071 0.611325 0.000000
v 73.608917 -8.426784 0.000005
v 77.005219 -9.623889 -0.000001
v 75.885765 11.649767 -14.486501
v 79.989861 6.776586 -8.705038
v 80.352020 11.473854 -13.790892
v 79.121201 -6.460905 -9.617544
v 78.961243 -9.211192 -4.064335
v 78.802528 -10.712222 -15.939037
v 79.615433 0.033899 0.000005
v 77.005211 -11.563969 0.000005
v 77.005219 -9.623889 -4.437747
v 78.975906 -8.247062 -4.064335
v 78.802528 -10.712222 0.000005
v 77.005211 -11.563969 -6.139899
v 73.013252 -11.664657 -0.000000
v 73.861488 14.918421 -0.000000
v 80.432419 12.566623 -14.256927
v 76.954147 6.037961 -8.589878
v 76.023636 11.072182 -10.172912
v 73.796692 13.699299 -16.439945
v 73.526291 7.982170 -11.577024
v 72.583862 -10.161584 -12.839727
v 76.856140 -5.631781 -16.124714
v 72.929436 -6.863144 -12.839727
v 76.856140 -5.631781 -11.577024
v 72.583862 -10.161584 -14.990379
v 77.927635 -0.042643 -14.256927
v 76.954147 6.037961 -16.439945
v 73.526291 7.982170 -18.274635
v 73.151863 0.387338 -0.000001
v 75.885765 11.649767 -0.000000
v 73.861488 14.918421 8.350563
v 85.673294 7.161850 6.121475
v 84.581604 -8.785012 0.000009
v 84.494675 -10.218333 11.170196
v 84.673424 -5.783060 -0.000000
v 85.789162 8.807006 12.504405
v 85.177246 -0.257979 12.558405
v 103.597122 6.832928 10.387198
v 102.986275 7.243957 26.048128
v 97.598938 5.476018 43.985992
v 90.563698 4.652570 33.967770
v 94.030380 5.196584 28.340693
v 96.737656 5.101936 10.387198
v 102.986275 7.243957 10.821507
v 108.821602 9.500968 12.748288
v 112.112419 -0.549633 13.300592
v 113.202797 4.038412 11.750161
v 111.743568 8.071754 9.124678
v 114.021049 4.407872 10.301562
v 109.145416 -2.567218 13.300592
v 113.202797 4.038412 11.502807
v 103.146904 -0.286822 4.914304
v 95.919014 -10.071101 0.000000
v 97.079536 -11.287200 10.131199
v 96.380997 -0.803935 7.516102
v 96.582626 4.818162 -0.000000
v 96.982300 6.940510 9.020881
v 96.042809 -6.367281 5.009039
v 122.611092 2.854042 -0.000001
v 120.294861 5.943826 6.071082
v 116.103790 5.282941 -0.000000
v 116.839020 7.537126 -0.000000
v 112.962921 -3.381863 5.792603
v 113.889412 -0.842341 6.071082
v 116.103790 5.282941 4.698724
v 117.589485 -0.452016 0.000000
v 116.911606 -3.031980 5.097162
v 119.448853 4.195205 5.097162
v 119.448853 4.195205 -8.350563
v 85.673279 7.161848 0.000000
v 89.524635 -10.437299 0.000009
v 84.494675 -10.218333 -6.121475
v 84.581604 -8.785015 -0.000000
v 90.803299 5.818109 -0.000000
v 96.982300 6.940510 -11.170196
v 84.673393 -5.783059 -0.000000
v 85.789162 8.807006 0.000000
v 97.079536 -11.287200 -12.504405
v 85.177238 -0.257990 -10.387205
v 102.981323 7.238591 -12.558408
v 103.594154 6.830334 -26.048130
v 97.598976 5.476059 -33.967751
v 94.030380 5.196570 -43.985989
v 90.563698 4.652562 -28.340677
v 96.737663 5.101953 -0.000001
v 104.684036 9.575294 -10.387205
v 102.981323 7.238591 -10.821504
v 108.812996 9.501662 -12.748287
v 112.116959 -0.544321 -13.300590
v 113.201363 4.045020 -11.750161
v 111.737000 8.076053 -9.124676
v 114.018425 4.415640 -10.301565
v 109.153671 -2.566245 -13.300590
v 113.201363 4.045020 0.000000
v 104.592056 -11.474598 -0.000000
v 109.224014 -6.426002 0.000000
v 100.805031 -12.835603 0.000006
v 111.582008 9.707071 -11.502807
v 103.150322 -0.291331 0.000000
v 97.079536 -11.287200 -4.914299
v 95.919014 -10.071103 -10.131199
v 96.380997 -0.803934 -7.516101
v 96.582626 4.818162 -0.000000
v 96.982300 6.940510 -9.020883
v 96.042809 -6.367282 -0.000000
v 116.839020 7.537126 -0.000001
v 120.294861 5.943826 -5.009036
v 122.611092 2.854043 -0.000001
v 120.294861 5.943826 -0.000001
v 123.522491 5.340426 0.000004
v 119.354485 -4.180039 -0.000000
v 112.962921 -3.381863 0.000000
v 116.911606 -3.031980 -6.071082
v 116.102020 5.286800 -0.000000
v 116.839020 7.537126 -0.000000
v 112.962921 -3.381863 -5.792602
v 113.890900 -0.841030 -6.071082
v 116.102020 5.286800 -4.698724
v 117.589478 -0.452017 0.000000
v 116.911606 -3.031980 -5.097161
v 119.448715 4.196067 -5.097161
v 119.448715 4.196067 10.563788
v 110.409798 -3.605037 10.187167
v 115.476509 -1.457040 12.298890
v 107.002449 -4.717988 16.286631
v 105.656387 -4.742524 23.328548
v 110.589943 -1.333913 19.468998
v 106.956596 -4.035376 24.783869
v 111.998901 3.217332 10.263369
v 117.522133 3.213064 10.563789
v 110.427315 10.039234 10.187165
v 115.486191 7.883248 12.298895
v 107.012665 11.157654 16.286629
v 105.660637 11.181694 23.328556
v 110.592430 7.769541 19.468994
v 106.960457 10.473374 -10.563784
v 110.419075 -3.602421 -10.187165
v 115.481102 -1.450509 -12.298889
v 107.007668 -4.718381 -16.286631
v 105.658440 -4.742638 -23.328552
v 110.591080 -1.332278 -19.468992
v 106.958420 -4.034909 -24.783857
v 111.998764 3.219500 -10.263367
v 117.521843 3.219476 -10.563788
v 110.419052 10.041365 -10.187165
v 115.481148 7.889460 -12.298890
v 107.007683 11.157327 -16.286629
v 105.658432 11.181587 -23.328552
v 110.591080 7.771213 -19.468994
v 106.958412 10.473860 0.654950

vt 0.711742 0.162268
vt 0.717022 0.265763
vt 0.702794 0.470066
vt 0.751456 0.062652
vt 0.751464 0.347332
vt 0.695898 0.158215
vt 0.700212 0.266721
vt 0.686742 0.481443
vt 0.736197 0.056028
vt 0.740802 0.190785
vt 0.628101 0.121583
vt 0.645151 0.029322
vt 0.682461 0.354498
vt 0.633136 0.456921
vt 0.663438 0.269250
vt 0.627550 0.509453
vt 0.657297 0.441635
vt 0.589075 0.306649
vt 0.547657 0.498688
vt 0.589257 0.010816
vt 0.452934 0.061543
vt 0.486558 0.018089
vt 0.442289 0.188933
vt 0.485049 0.101217
vt 0.510615 0.176528
vt 0.540984 0.367481
vt 0.541946 0.368532
vt 0.513617 0.306373
vt 0.518503 0.311436
vt 0.369972 0.369166
vt 0.367868 0.431395
vt 0.504020 0.425767
vt 0.368794 0.428607
vt 0.537733 0.127195
vt 0.370556 0.104805
vt 0.471493 0.244447
vt 0.539634 0.248941
vt 0.509981 0.556272
vt 0.347550 0.487372
vt 0.362960 0.509709
vt 0.493228 0.469352
vt 0.272152 0.417571
vt 0.282024 0.144506
vt 0.250810 0.075997
vt 0.244241 0.209386
vt 0.254291 0.268607
vt 0.261447 0.364893
vt 0.278137 0.531102
vt 0.218136 0.465228
vt 0.239801 0.363472
vt 0.247097 0.146521
vt 0.230041 0.212652
vt 0.231600 0.199011
vt 0.376002 0.414951
vt 0.246428 0.287484
vt 0.232954 0.219082
vt 0.139871 0.289988
vt 0.138216 0.412348
vt 0.209730 0.463208
vt 0.211315 0.358131
vt 0.214675 0.509204
vt 0.011431 0.445572
vt 0.011706 0.526467
vt 0.128751 0.155054
vt 0.140294 0.288438
vt 0.011381 0.354236
vt 0.011498 0.226636
vt 0.011379 0.160734
vt 0.011556 0.530746
vt 0.508741 0.515578
vt 0.547380 0.089142
vt 0.551353 0.187427
vt 0.562793 0.995085
vt 0.102775 0.468399
vt 0.610382 0.995117
vt 0.329887 0.995083
vt 0.257084 0.444029
vt 0.723752 0.404535
vt 0.646946 0.995065
vt 0.406683 0.007616
vt 0.624044 0.181567
vt 0.518739 0.310893
vt 0.463878 0.254151
vt 0.461345 0.257861
vt 0.370848 0.311142
vt 0.265869 0.370211
vt 0.463604 0.432975
vt 0.463524 0.501698
vt 0.454275 0.572261
vt 0.423986 0.405622
vt 0.728683 0.395019
vt 0.707989 0.931962
vt 0.411133 0.932018
vt 0.336954 0.932060
vt 0.257122 0.932047
vt 0.178235 0.932037
vt 0.100083 0.931924
vt 0.472670 0.931984
vt 0.005145 0.345050
vt 0.711742 0.162268
vt 0.717022 0.265763
vt 0.702794 0.347332
vt 0.695898 0.158215
vt 0.700212 0.266721
vt 0.686742 0.190785
vt 0.628101 0.121583
vt 0.645151 0.354498
vt 0.633136 0.456921
vt 0.663438 0.269250
vt 0.627550 0.441635
vt 0.589075 0.306649
vt 0.547657 0.018089
vt 0.442289 0.188933
vt 0.485049 0.101217
vt 0.510615 0.176528
vt 0.540984 0.367481
vt 0.541946 0.368532
vt 0.513617 0.306373
vt 0.518503 0.311436
vt 0.369972 0.369166
vt 0.367868 0.431395
vt 0.504020 0.425767
vt 0.368794 0.428607
vt 0.537733 0.127195
vt 0.370556 0.104805
vt 0.471493 0.244447
vt 0.539634 0.248941
vt 0.509981 0.556272
vt 0.347550 0.487372
vt 0.362960 0.509709
vt 0.493228 0.469352
vt 0.272152 0.417571
vt 0.282024 0.144506
vt 0.250810 0.075997
vt 0.244241 0.209386
vt 0.254291 0.268607
vt 0.261447 0.364893
vt 0.278137 0.531102
vt 0.218136 0.465228
vt 0.239801 0.363472
vt 0.247097 0.146521
vt 0.230041 0.212652
vt 0.231600 0.199011
vt 0.376002 0.414951
vt 0.246428 0.287484
vt 0.232954 0.219082
vt 0.139871 0.289988
vt 0.138216 0.412348
vt 0.209730 0.463208
vt 0.211315 0.358131
vt 0.214675 0.509204
vt 0.011431 0.445572
vt 0.011706 0.526467
vt 0.128751 0.155054
vt 0.140294 0.288438
vt 0.011381 0.354236
vt 0.011498 0.226636
vt 0.011379 0.160734
vt 0.011556 0.187427
vt 0.562793 0.995085
vt 0.102775 0.468399
vt 0.610382 0.995117
vt 0.329887 0.995083
vt 0.257084 0.444029
vt 0.723752 0.404535
vt 0.646946 0.995065
vt 0.406683 0.181567
vt 0.518739 0.310893
vt 0.463878 0.254151
vt 0.461345 0.257861
vt 0.370848 0.311142
vt 0.265869 0.370211
vt 0.463604 0.432975
vt 0.463524 0.501698
vt 0.454275 0.572261
vt 0.423986 0.405622
vt 0.728683 0.395019
vt 0.707989 0.931962
vt 0.411133 0.932018
vt 0.336954 0.932060
vt 0.257122 0.932047
vt 0.178235 0.932037
vt 0.100083 0.931924
vt 0.472670 0.754271
vt 0.498669 0.861148
vt 0.498683 0.686923
vt 0.498676 0.913955
vt 0.508237 0.608394
vt 0.498695 0.914084
vt 0.419647 0.861162
vt 0.419939 0.754346
vt 0.419805 0.686838
vt 0.419881 0.608349
vt 0.420079 0.806750
vt 0.498672 0.806830
vt 0.419818 0.873666
vt 0.357540 0.829540
vt 0.357519 0.643628
vt 0.357520 0.789477
vt 0.357516 0.690005
vt 0.357520 0.733392
vt 0.357508 0.607174
vt 0.030202 0.914300
vt 0.052731 0.669682
vt 0.010050 0.828127
vt 0.010392 0.907919
vt 0.069504 0.870965
vt 0.025407 0.856410
vt 0.054078 0.616831
vt 0.058176 0.724423
vt 0.008422 0.679897
vt 0.050566 0.799297
vt 0.059455 0.779899
vt 0.008327 0.733861
vt 0.051982 0.839160
vt 0.157079 0.890000
vt 0.170691 0.685680
vt 0.170667 0.635494
vt 0.170700 0.733274
vt 0.170643 0.788235
vt 0.170642 0.889422
vt 0.195203 0.788203
vt 0.195168 0.836988
vt 0.202492 0.837104
vt 0.180885 0.733331
vt 0.195172 0.686643
vt 0.195192 0.637164
vt 0.195211 0.638910
vt 0.258766 0.687972
vt 0.258778 0.733480
vt 0.258748 0.788957
vt 0.258668 0.834744
vt 0.258612 0.887019
vt 0.258697 0.742918
vt 0.837799 0.913793
vt 0.805699 0.703686
vt 0.652989 0.915345
vt 0.680680 0.914275
vt 0.746526 0.782880
vt 0.894205 0.647639
vt 0.778773 0.522035
vt 0.619581 0.581877
vt 0.640769 0.576649
vt 0.790201 0.642985
vt 0.642599 0.993930
vt 0.692205 0.993943
vt 0.774435 0.593238
vt 0.698913 0.530489
vt 0.695193 0.649439
vt 0.688919 0.696291
vt 0.719448 0.585588
vt 0.578119 0.646247
vt 0.581196 0.707070
vt 0.586656 0.837305
vt 0.945568 0.912659
vt 0.945564 0.732810
vt 0.990392 0.669603
vt 0.965581 0.762534
vt 0.945474 0.992574
vt 0.945538 0.993956
vt 0.920480 0.607041
vt 0.940046 0.992660
vt 0.993704 0.685569
vt 0.922827 0.837285
vt 0.993604 0.762532
vt 0.993602 0.754271
vt 0.498669 0.861148
vt 0.498683 0.686923
vt 0.498676 0.861162
vt 0.419939 0.754346
vt 0.419805 0.686838
vt 0.419881 0.806750
vt 0.498672 0.806830
vt 0.419818 0.873666
vt 0.357540 0.829540
vt 0.357519 0.643628
vt 0.357520 0.789477
vt 0.357516 0.690005
vt 0.357520 0.733392
vt 0.357508 0.607174
vt 0.030202 0.914300
vt 0.052731 0.669682
vt 0.010050 0.828127
vt 0.010392 0.907919
vt 0.069504 0.870965
vt 0.025407 0.856410
vt 0.054078 0.616831
vt 0.058176 0.724423
vt 0.008422 0.679897
vt 0.050566 0.799297
vt 0.059455 0.779899
vt 0.008327 0.733861
vt 0.051982 0.839160
vt 0.157079 0.890000
vt 0.170691 0.685680
vt 0.170667 0.635494
vt 0.170700 0.733274
vt 0.170643 0.788235
vt 0.170642 0.889422
vt 0.195203 0.788203
vt 0.195168 0.836988
vt 0.202492 0.837104
vt 0.180885 0.733331
vt 0.195172 0.686643
vt 0.195192 0.637164
vt 0.195211 0.638910
vt 0.258766 0.687972
vt 0.258778 0.733480
vt 0.258748 0.788957
vt 0.258668 0.834744
vt 0.258612 0.887019
vt 0.258697 0.742918
vt 0.837799 0.913793
vt 0.805699 0.703686
vt 0.652989 0.915345
vt 0.680680 0.914275
vt 0.746526 0.782880
vt 0.894205 0.647639
vt 0.778773 0.581877
vt 0.640769 0.642985
vt 0.642599 0.593238
vt 0.698913 0.649439
vt 0.688919 0.696291
vt 0.719448 0.585588
vt 0.578119 0.646247
vt 0.581196 0.707070
vt 0.586656 0.837305
vt 0.945568 0.912659
vt 0.945564 0.732810
vt 0.990392 0.669603
vt 0.965581 0.685569
vt 0.922827 0.837285
vt 0.993604 0.400243
vt 0.970694 0.296987
vt 0.727418 0.348635
vt 0.776436 0.320592
vt 0.900963 0.323714
vt 0.992003 0.220814
vt 0.728451 0.218673
vt 0.818507 0.211430
vt 0.900187 0.204594
vt 0.991983 0.118875
vt 0.963770 0.134226
vt 0.877184 0.388159
vt 0.881550 0.175596
vt 0.770904 0.512875
vt 0.843960 0.306505
vt 0.815304 0.148004
vt 0.788415 0.101133
vt 0.787958 0.118742
vt 0.851759 0.024177
vt 0.914174 0.108262
vt 0.914158 0.009912
vt 0.991895 0.102202
vt 0.992260 0.063124
vt 0.811906 0.483072
vt 0.916022 0.467172
vt 0.830062 0.390656
vt 0.787531 0.478017
vt 0.989225 0.414175
vt 0.916086 0.412726
vt 0.992707 0.445066
vt 0.796047 0.296987
vt 0.727418 0.348635
vt 0.776436 0.320593
vt 0.900963 0.220814
vt 0.728451 0.218673
vt 0.818507 0.211430
vt 0.900187 0.134226
vt 0.877184 0.388159
vt 0.881550 0.175596
vt 0.770904 0.306505
vt 0.815304 0.148004
vt 0.788414 0.101133
vt 0.787958 0.118742
vt 0.851759 0.024177
vt 0.914174 0.108262
vt 0.914158 0.063124
vt 0.811906 0.483072
vt 0.916022 0.467172
vt 0.830062 0.390656
vt 0.787531 0.414175
vt 0.916086 0.445067
vt 0.796047 0.400243
vt 0.970694 0.296987
vt 0.727418 0.348635
vt 0.776436 0.320592
vt 0.900963 0.323714
vt 0.992003 0.220814
vt 0.728451 0.218673
vt 0.818507 0.211430
vt 0.900187 0.204594
vt 0.991983 0.118875
vt 0.963770 0.134226
vt 0.877184 0.388159
vt 0.881550 0.175596
vt 0.770904 0.512875
vt 0.843960 0.306505
vt 0.815304 0.148004
vt 0.788415 0.101133
vt 0.787958 0.118742
vt 0.851759 0.024177
vt 0.914174 0.108262
vt 0.914158 0.009912
vt 0.991895 0.102202
vt 0.992260 0.063124
vt 0.811906 0.483072
vt 0.916022 0.467172
vt 0.830062 0.390656
vt 0.787531 0.478017
vt 0.989225 0.414175
vt 0.916086 0.412726
vt 0.992707 0.445066
vt 0.796047 0.296987
vt 0.727418 0.348635
vt 0.776436 0.320593
vt 0.900963 0.220814
vt 0.728451 0.218673
vt 0.818507 0.211430
vt 0.900187 0.134226
vt 0.877184 0.388159
vt 0.881550 0.175596
vt 0.770904 0.306505
vt 0.815304 0.148004
vt 0.788414 0.101133
vt 0.787958 0.118742
vt 0.851759 0.024177
vt 0.914174 0.108262
vt 0.914158 0.063124
vt 0.811906 0.483072
vt 0.916022 0.467172
vt 0.830062 0.390656
vt 0.787531 0.414175
vt 0.916086 0.445067
vt 0.796047 0.995117
vt 0.329887 0.995065
vt 0.406683 0.995089
vt 0.180540 0.995083
vt 0.257084 0.995085
vt 0.102775 0.995089
vt 0.180540 0.995083
vt 0.257084 0.995117
vt 0.329887 0.995065
vt 0.406683 0.995015
vt 0.472508 0.995087
vt 0.004856 0.995085
vt 0.102775 0.995065
vt 0.406683 0.995117
vt 0.329887 0.995083
vt 0.257084 0.995089
vt 0.180540 0.995089
vt 0.180540 0.995085
vt 0.102775 0.995117
vt 0.329887 0.995083
vt 0.257084 0.995015
vt 0.472508 0.995065
vt 0.406683 0.995085
vt 0.102775 0.995087
vt 0.004856 0.109113
vt 0.583324 0.360580
vt 0.570371 0.268929
vt 0.560413 0.415938
vt 0.587523 0.931962
vt 0.411133 0.932060
vt 0.257122 0.932047
vt 0.178235 0.931924
vt 0.472670 0.931984
vt 0.005145 0.109113
vt 0.583324 0.360580
vt 0.570371 0.268929
vt 0.560413 0.415938
vt 0.587523 0.931962
vt 0.411133 0.932060
vt 0.257122 0.932047
vt 0.178235 0.931924
vt 0.472670 0.931962
vt 0.411133 0.932060
vt 0.257122 0.932047
vt 0.178235 0.931984
vt 0.005145 0.931962
vt 0.411133 0.932060
vt 0.257122 0.932047
vt 0.178235 0.932047
vt 0.178235 0.931984
vt 0.005145 0.932047
vt 0.178235 0.578190
vt 0.448721 0.537683
vt 0.245720 0.078109
vt 0.216815 0.083604
vt 0.127153 0.050354
vt 0.343483 0.028693
vt 0.420279 0.098876
vt 0.011471 0.586473
vt 0.459017 0.190785
vt 0.621630 0.121035
vt 0.637583 0.354498
vt 0.625019 0.404535
vt 0.638281 0.456921
vt 0.655322 0.269250
vt 0.618885 0.008649
vt 0.142248 0.036597
vt 0.106423 0.017800
vt 0.092551 0.026070
vt 0.150845 0.059764
vt 0.068547 0.028773
vt 0.673796 0.005416
vt 0.730442 0.047962
vt 0.786032 0.030998
vt 0.791198 0.026798
vt 0.715927 0.015498
vt 0.338338 0.040313
vt 0.299735 0.007260
vt 0.293741 0.010218
vt 0.011596 0.052825
vt 0.027132 0.008922
vt 0.232851 0.032718
vt 0.162422 0.008257
vt 0.170762 0.048538
vt 0.229749 0.018773
vt 0.878782 0.005144
vt 0.873441 0.056028
vt 0.740802 0.029322
vt 0.682461 0.062652
vt 0.751464 0.470066
vt 0.751456 0.481443
vt 0.736197 0.010816
vt 0.452934 0.061543
vt 0.486558 0.578190
vt 0.448721 0.537683
vt 0.245720 0.078109
vt 0.216815 0.083604
vt 0.127153 0.050354
vt 0.343483 0.028693
vt 0.420279 0.098876
vt 0.011471 0.530746
vt 0.508741 0.586473
vt 0.459017 0.515578
vt 0.547380 0.498688
vt 0.589257 0.089142
vt 0.551353 0.190785
vt 0.621630 0.121035
vt 0.637583 0.354498
vt 0.625019 0.404535
vt 0.638281 0.456921
vt 0.655322 0.269250
vt 0.618885 0.509453
vt 0.657297 0.008649
vt 0.142248 0.017800
vt 0.092551 0.036597
vt 0.106423 0.026070
vt 0.150845 0.059764
vt 0.068547 0.007616
vt 0.624044 0.028773
vt 0.673796 0.005416
vt 0.730442 0.030998
vt 0.791198 0.047962
vt 0.786032 0.026798
vt 0.715927 0.015498
vt 0.338338 0.007260
vt 0.293741 0.040313
vt 0.299735 0.010218
vt 0.011596 0.052825
vt 0.027132 0.008922
vt 0.232851 0.008257
vt 0.170762 0.032718
vt 0.162422 0.048538
vt 0.229749 0.005144
vt 0.873441 0.018773
vt 0.878782 0.686711
vt 0.368369 0.861170
vt 0.368314 0.914269
vt 0.371260 0.806884
vt 0.368214 0.608244
vt 0.368590 0.754406
vt 0.368205 0.560646
vt 0.068469 0.552975
vt 0.052266 0.582573
vt 0.170730 0.598015
vt 0.357546 0.590245
vt 0.258711 0.585437
vt 0.195222 0.859828
vt 0.680351 0.864241
vt 0.751334 0.782692
vt 0.800075 0.827570
vt 0.852661 0.853075
vt 0.799390 0.891415
vt 0.852220 0.734019
vt 0.765802 0.837964
vt 0.850199 0.776983
vt 0.681994 0.601554
vt 0.531451 0.540503
vt 0.532271 0.776862
vt 0.532300 0.878721
vt 0.532295 0.993911
vt 0.532357 0.690212
vt 0.531717 0.936880
vt 0.918661 0.993954
vt 0.883783 0.934999
vt 0.862896 0.993953
vt 0.860093 0.612125
vt 0.866076 0.695853
vt 0.879374 0.749375
vt 0.934675 0.912695
vt 0.993739 0.612121
vt 0.908498 0.744500
vt 0.961299 0.935966
vt 0.883986 0.686711
vt 0.368369 0.914084
vt 0.419647 0.914269
vt 0.371260 0.861170
vt 0.368314 0.608349
vt 0.420079 0.608394
vt 0.498695 0.806884
vt 0.368214 0.608244
vt 0.368590 0.913955
vt 0.508237 0.754406
vt 0.368205 0.552975
vt 0.052266 0.560646
vt 0.068469 0.582573
vt 0.170730 0.590245
vt 0.258711 0.598015
vt 0.357546 0.585437
vt 0.195222 0.993930
vt 0.692205 0.859828
vt 0.680351 0.864241
vt 0.751334 0.782692
vt 0.800075 0.827570
vt 0.852661 0.853075
vt 0.799390 0.891415
vt 0.852220 0.734019
vt 0.765802 0.837964
vt 0.850199 0.530489
vt 0.695193 0.576649
vt 0.790201 0.522035
vt 0.619581 0.993943
vt 0.774435 0.776983
vt 0.681994 0.540503
vt 0.532271 0.601554
vt 0.531451 0.776862
vt 0.532300 0.878721
vt 0.532295 0.993911
vt 0.532357 0.690212
vt 0.531717 0.762534
vt 0.945474 0.762532
vt 0.993602 0.936880
vt 0.918661 0.993954
vt 0.883783 0.993956
vt 0.920480 0.607041
vt 0.940046 0.992574
vt 0.945538 0.992660
vt 0.993704 0.934999
vt 0.862896 0.993953
vt 0.860093 0.612125
vt 0.866076 0.695853
vt 0.879374 0.749375
vt 0.934675 0.912695
vt 0.993739 0.612121
vt 0.908498 0.744500
vt 0.961299 0.935966
vt 0.883986 0.577147
vt 0.927186 0.540818
vt 0.969619 0.591815
vt 0.881669 0.575743
vt 0.825953 0.491255
vt 0.782668 0.544688
vt 0.799393 0.452605
vt 0.781528 0.506451
vt 0.989001 0.577147
vt 0.927186 0.540818
vt 0.969619 0.591815
vt 0.881669 0.575743
vt 0.825953 0.491255
vt 0.782668 0.544688
vt 0.799393 0.577147
vt 0.927186 0.540818
vt 0.969619 0.591815
vt 0.881669 0.575743
vt 0.825953 0.491255
vt 0.782668 0.544688
vt 0.799393 0.452605
vt 0.781528 0.506451
vt 0.989001 0.577147
vt 0.927186 0.540818
vt 0.969619 0.591815
vt 0.881669 0.575743
vt 0.825953 0.491255
vt 0.782668 0.544688
vt 0.799393 1.000000

f 11/11 7/7 12/12
f 8/8 7/7 11/11
f 10/10 12/12 7/7
f 12/12 10/10 13/13
f 14/14 8/8 16/16
f 6/6 79/79 92/92
f 8/8 11/11 16/16
f 8/8 14/14 6/6
f 78/78 79/79 15/15
f 2/2 8/8 3/3
f 8/8 2/2 7/7
f 5/5 7/7 2/2
f 7/7 5/5 10/10
f 3/3 6/6 1/1
f 6/6 3/3 8/8
f 78/78 9/9 4/4
f 92/92 1/1 6/6
f 21/21 23/23 22/22
f 82/82 26/26 25/25
f 27/27 29/29 28/28
f 30/30 31/31 83/83
f 28/28 88/88 32/32
f 34/34 27/27 28/28
f 24/24 36/36 35/35
f 82/82 24/24 38/38
f 39/39 89/89 40/40
f 90/90 487/487 89/89
f 40/40 33/33 42/42
f 43/43 42/42 33/33
f 35/35 45/45 44/44
f 46/46 47/47 85/85
f 43/43 31/31 48/48
f 31/31 43/43 33/33
f 488/488 50/50 49/49
f 42/42 488/488 40/40
f 86/86 51/51 48/48
f 52/52 53/53 44/44
f 46/46 44/44 53/53
f 24/24 35/35 54/54
f 50/50 42/42 55/55
f 43/43 55/55 42/42
f 43/43 48/48 55/55
f 51/51 55/55 48/48
f 86/86 47/47 56/56
f 50/50 488/488 42/42
f 53/53 57/57 56/56
f 58/58 56/56 57/57
f 55/55 59/59 50/50
f 60/60 50/50 59/59
f 55/55 51/51 59/59
f 61/61 59/59 51/51
f 62/62 64/64 63/63
f 60/60 63/63 64/64
f 52/52 489/489 65/65
f 490/490 65/65 489/489
f 57/57 53/53 65/65
f 52/52 65/65 53/53
f 51/51 56/56 61/61
f 66/66 67/67 58/58
f 61/61 58/58 67/67
f 56/56 58/58 61/61
f 60/60 49/49 50/50
f 59/59 61/61 67/67
f 67/67 63/63 59/59
f 49/49 60/60 64/64
f 36/36 491/491 35/35
f 492/492 36/36 23/23
f 63/63 60/60 59/59
f 58/58 68/68 66/66
f 68/68 58/58 57/57
f 65/65 68/68 57/57
f 68/68 65/65 69/69
f 490/490 69/69 65/65
f 69/69 490/490 493/493
f 24/24 25/25 36/36
f 41/41 70/70 34/34
f 38/38 84/84 29/29
f 40/40 88/88 33/33
f 32/32 88/88 41/41
f 487/487 494/494 70/70
f 26/26 82/82 37/37
f 56/56 47/47 53/53
f 31/31 30/30 48/48
f 52/52 45/45 489/489
f 24/24 54/54 84/84
f 34/34 70/70 71/71
f 70/70 41/41 487/487
f 22/22 36/36 25/25
f 23/23 36/36 22/22
f 47/47 46/46 53/53
f 30/30 86/86 48/48
f 54/54 35/35 46/46
f 85/85 47/47 30/30
f 44/44 45/45 52/52
f 44/44 46/46 35/35
f 39/39 40/40 488/488
f 35/35 491/491 45/45
f 19/19 29/29 27/27
f 18/18 27/27 34/34
f 19/19 37/37 29/29
f 34/34 20/20 18/18
f 20/20 34/34 71/71
f 28/28 32/32 34/34
f 34/34 32/32 41/41
f 33/33 87/87 31/31
f 28/28 29/29 83/83
f 22/22 25/25 72/72
f 26/26 72/72 25/25
f 24/24 84/84 38/38
f 37/37 38/38 29/29
f 495/495 496/496 460/460
f 460/460 73/73 495/495
f 463/463 497/497 461/461
f 498/498 75/75 499/499
f 500/500 495/495 73/73
f 73/73 462/462 500/500
f 461/461 500/500 462/462
f 500/500 461/461 497/497
f 9/9 78/78 15/15
f 4/4 91/91 78/78
f 15/15 17/17 9/9
f 501/501 502/502 503/503
f 502/502 501/501 504/504
f 463/463 75/75 498/498
f 6/6 14/14 79/79
f 498/498 497/497 463/463
f 505/505 503/503 502/502
f 460/460 506/506 81/81
f 506/506 460/460 496/496
f 507/507 508/508 509/509
f 508/508 507/507 510/510
f 511/511 512/512 513/513
f 514/514 503/503 515/515
f 516/516 517/517 518/518
f 517/517 516/516 519/519
f 512/512 519/519 516/516
f 516/516 513/513 512/512
f 515/515 503/503 505/505
f 509/509 520/520 521/521
f 520/520 509/509 508/508
f 82/82 38/38 37/37
f 24/24 82/82 25/25
f 84/84 83/83 29/29
f 87/87 83/83 31/31
f 84/84 30/30 83/83
f 84/84 85/85 30/30
f 54/54 46/46 85/85
f 84/84 54/54 85/85
f 56/56 51/51 86/86
f 30/30 47/47 86/86
f 28/28 83/83 87/87
f 88/88 28/28 87/87
f 88/88 40/40 89/89
f 87/87 33/33 88/88
f 88/88 89/89 41/41
f 487/487 41/41 89/89
f 491/491 36/36 492/492
f 39/39 90/90 89/89
f 91/91 92/92 78/78
f 91/91 1/1 92/92
f 92/92 79/79 78/78
f 93/93 76/76 94/94
f 436/436 464/464 437/437
f 439/439 438/438 96/96
f 466/466 95/95 77/77
f 479/479 74/74 97/97
f 440/440 484/484 441/441
f 94/94 76/76 465/465
f 442/442 478/478 443/443
f 98/98 80/80 477/477
f 444/444 467/467 445/445
f 97/97 74/74 99/99
f 446/446 468/468 447/447
f 106/106 107/107 104/104
f 105/105 106/106 104/104
f 522/522 104/104 107/107
f 107/107 523/523 522/522
f 108/108 110/110 105/105
f 103/103 178/178 166/166
f 105/105 110/110 106/106
f 105/105 103/103 108/108
f 165/165 109/109 166/166
f 101/101 102/102 105/105
f 105/105 104/104 101/101
f 524/524 101/101 104/104
f 104/104 522/522 524/524
f 102/102 100/100 103/103
f 103/103 105/105 102/102
f 165/165 525/525 526/526
f 178/178 103/103 100/100
f 527/527 528/528 113/113
f 168/168 115/115 116/116
f 117/117 118/118 119/119
f 120/120 169/169 121/121
f 118/118 122/122 174/174
f 124/124 118/118 117/117
f 114/114 125/125 126/126
f 168/168 128/128 114/114
f 129/129 130/130 175/175
f 176/176 175/175 529/529
f 130/130 132/132 123/123
f 133/133 123/123 132/132
f 125/125 134/134 135/135
f 136/136 171/171 137/137
f 133/133 138/138 121/121
f 121/121 123/123 133/133
f 530/530 139/139 140/140
f 132/132 130/130 530/530
f 172/172 138/138 141/141
f 142/142 134/134 143/143
f 136/136 143/143 134/134
f 114/114 144/144 125/125
f 140/140 145/145 132/132
f 133/133 132/132 145/145
f 133/133 145/145 138/138
f 141/141 138/138 145/145
f 172/172 146/146 137/137
f 140/140 132/132 530/530
f 143/143 146/146 147/147
f 148/148 147/147 146/146
f 145/145 140/140 149/149
f 150/150 149/149 140/140
f 145/145 149/149 141/141
f 151/151 141/141 149/149
f 152/152 153/153 154/154
f 150/150 154/154 153/153
f 142/142 155/155 531/531
f 532/532 531/531 155/155
f 147/147 155/155 143/143
f 142/142 143/143 155/155
f 141/141 151/151 146/146
f 156/156 148/148 157/157
f 151/151 157/157 148/148
f 146/146 151/151 148/148
f 150/150 140/140 139/139
f 149/149 157/157 151/151
f 157/157 149/149 153/153
f 139/139 154/154 150/150
f 126/126 125/125 533/533
f 534/534 113/113 126/126
f 153/153 149/149 150/150
f 148/148 156/156 158/158
f 158/158 147/147 148/148
f 155/155 147/147 158/158
f 158/158 159/159 155/155
f 532/532 155/155 159/159
f 159/159 535/535 532/532
f 114/114 126/126 115/115
f 131/131 124/124 536/536
f 128/128 119/119 170/170
f 130/130 123/123 174/174
f 122/122 131/131 174/174
f 529/529 536/536 537/537
f 116/116 127/127 168/168
f 146/146 143/143 137/137
f 121/121 138/138 120/120
f 142/142 531/531 135/135
f 114/114 170/170 144/144
f 124/124 538/538 536/536
f 536/536 529/529 131/131
f 528/528 115/115 126/126
f 113/113 528/528 126/126
f 137/137 143/143 136/136
f 120/120 138/138 172/172
f 144/144 136/136 125/125
f 171/171 120/120 137/137
f 134/134 142/142 135/135
f 134/134 125/125 136/136
f 129/129 530/530 130/130
f 125/125 135/135 533/533
f 112/112 117/117 119/119
f 111/111 124/124 117/117
f 112/112 119/119 127/127
f 124/124 111/111 539/539
f 539/539 538/538 124/124
f 118/118 124/124 122/122
f 124/124 131/131 122/122
f 123/123 121/121 173/173
f 118/118 169/169 119/119
f 528/528 540/540 115/115
f 116/116 115/115 540/540
f 114/114 128/128 170/170
f 127/127 119/119 128/128
f 541/541 469/469 542/542
f 469/469 541/541 160/160
f 472/472 470/470 543/543
f 544/544 545/545 162/162
f 546/546 160/160 541/541
f 160/160 546/546 471/471
f 470/470 471/471 546/546
f 546/546 543/543 470/470
f 526/526 109/109 165/165
f 525/525 165/165 177/177
f 109/109 526/526 547/547
f 548/548 549/549 550/550
f 550/550 551/551 548/548
f 472/472 544/544 162/162
f 103/103 166/166 108/108
f 544/544 472/472 543/543
f 552/552 550/550 549/549
f 469/469 553/553 554/554
f 554/554 542/542 469/469
f 555/555 556/556 557/557
f 557/557 558/558 555/555
f 559/559 560/560 561/561
f 562/562 563/563 549/549
f 564/564 565/565 566/566
f 566/566 567/567 564/564
f 561/561 564/564 567/567
f 564/564 561/561 560/560
f 563/563 552/552 549/549
f 556/556 568/568 569/569
f 569/569 557/557 556/556
f 168/168 127/127 128/128
f 114/114 115/115 168/168
f 170/170 119/119 169/169
f 173/173 121/121 169/169
f 170/170 169/169 120/120
f 170/170 120/120 171/171
f 144/144 171/171 136/136
f 170/170 171/171 144/144
f 146/146 172/172 141/141
f 120/120 172/172 137/137
f 118/118 173/173 169/169
f 174/174 173/173 118/118
f 174/174 175/175 130/130
f 173/173 174/174 123/123
f 174/174 131/131 175/175
f 529/529 175/175 131/131
f 533/533 534/534 126/126
f 129/129 175/175 176/176
f 177/177 165/165 178/178
f 177/177 178/178 100/100
f 178/178 165/165 166/166
f 179/179 180/180 163/163
f 449/449 448/448 473/473
f 450/450 182/182 451/451
f 475/475 164/164 181/181
f 483/483 183/183 161/161
f 453/453 452/452 486/486
f 180/180 474/474 163/163
f 455/455 454/454 482/482
f 184/184 481/481 167/167
f 457/457 456/456 476/476
f 183/183 480/480 161/161
f 459/459 458/458 485/485
f 193/193 570/570 192/192
f 192/192 185/185 193/193
f 190/190 571/571 572/572
f 190/190 186/186 191/191
f 194/194 187/187 189/189
f 191/191 186/186 195/195
f 191/191 573/573 571/571
f 194/194 574/574 193/193
f 191/191 571/571 190/190
f 192/192 573/573 196/196
f 190/190 188/188 186/186
f 196/196 185/185 192/192
f 192/192 570/570 575/575
f 574/574 570/570 193/193
f 193/193 185/185 187/187
f 193/193 187/187 194/194
f 196/196 195/195 185/185
f 192/192 575/575 573/573
f 191/191 195/195 196/196
f 196/196 573/573 191/191
f 208/208 207/207 209/209
f 207/207 208/208 204/204
f 203/203 576/576 577/577
f 576/576 203/203 210/210
f 203/203 212/212 210/210
f 207/207 216/216 209/209
f 216/216 207/207 217/217
f 210/210 578/578 576/576
f 578/578 210/210 219/219
f 220/220 218/218 212/212
f 212/212 215/215 220/220
f 210/210 212/212 218/218
f 218/218 219/219 210/210
f 209/209 221/221 213/213
f 221/221 209/209 216/216
f 220/220 213/213 221/221
f 213/213 220/220 215/215
f 198/198 234/234 197/197
f 222/222 233/233 224/224
f 229/229 579/579 580/580
f 581/581 219/219 228/228
f 232/232 231/231 226/226
f 226/226 220/220 223/223
f 218/218 228/228 219/219
f 199/199 230/230 201/201
f 218/218 220/220 226/226
f 231/231 201/201 230/230
f 233/233 200/200 232/232
f 232/232 224/224 233/233
f 225/225 222/222 224/224
f 578/578 219/219 581/581
f 223/223 220/220 221/221
f 221/221 225/225 223/223
f 222/222 225/225 217/217
f 225/225 221/221 216/216
f 223/223 225/225 224/224
f 217/217 225/225 216/216
f 212/212 203/203 205/205
f 230/230 226/226 231/231
f 232/232 200/200 231/231
f 226/226 227/227 218/218
f 228/228 218/218 227/227
f 579/579 229/229 199/199
f 230/230 199/199 229/229
f 206/206 208/208 209/209
f 211/211 212/212 205/205
f 212/212 211/211 215/215
f 209/209 213/213 206/206
f 214/214 215/215 211/211
f 215/215 214/214 213/213
f 206/206 213/213 214/214
f 227/227 229/229 228/228
f 580/580 228/228 229/229
f 226/226 230/230 227/227
f 229/229 227/227 230/230
f 201/201 231/231 202/202
f 231/231 200/200 202/202
f 224/224 232/232 223/223
f 223/223 232/232 226/226
f 200/200 233/233 198/198
f 234/234 198/198 233/233
f 228/228 580/580 581/581
f 233/233 222/222 234/234
f 238/238 239/239 246/246
f 582/582 583/583 238/238
f 584/584 240/240 585/585
f 240/240 584/584 235/235
f 586/586 587/587 236/236
f 588/588 235/235 584/584
f 250/250 248/248 241/241
f 583/583 239/239 238/238
f 587/587 586/586 589/589
f 236/236 239/239 583/583
f 236/236 583/583 586/586
f 249/249 244/244 248/248
f 243/243 248/248 245/245
f 242/242 249/249 243/243
f 237/237 245/245 250/250
f 241/241 235/235 588/588
f 239/239 236/236 247/247
f 247/247 246/246 239/239
f 588/588 590/590 251/251
f 248/248 250/250 245/245
f 248/248 244/244 241/241
f 249/249 248/248 243/243
f 588/588 251/251 241/241
f 251/251 250/250 241/241
f 237/237 250/250 251/251
f 590/590 237/237 251/251
f 252/252 591/591 592/592
f 582/582 593/593 590/590
f 582/582 594/594 593/593
f 238/238 246/246 595/595
f 594/594 582/582 238/238
f 590/590 593/593 254/254
f 245/245 253/253 252/252
f 243/243 245/245 252/252
f 242/242 243/243 252/252
f 245/245 237/237 253/253
f 254/254 253/253 237/237
f 253/253 591/591 252/252
f 596/596 591/591 253/253
f 592/592 242/242 252/252
f 595/595 594/594 238/238
f 590/590 254/254 237/237
f 253/253 254/254 596/596
f 596/596 254/254 593/593
f 264/264 258/258 257/257
f 265/265 255/255 256/256
f 259/259 255/255 266/266
f 597/597 261/261 598/598
f 258/258 264/264 262/262
f 260/260 263/263 256/256
f 587/587 599/599 236/236
f 600/600 247/247 236/236
f 241/241 244/244 601/601
f 601/601 602/602 241/241
f 241/241 602/602 235/235
f 599/599 600/600 236/236
f 603/603 235/235 602/602
f 235/235 603/603 240/240
f 263/263 604/604 256/256
f 264/264 605/605 262/262
f 256/256 604/604 265/265
f 255/255 265/265 266/266
f 257/257 606/606 264/264
f 597/597 598/598 607/607
f 272/272 271/271 608/608
f 271/271 272/272 267/267
f 609/609 610/610 611/611
f 609/609 270/270 268/268
f 612/612 613/613 269/269
f 270/270 273/273 268/268
f 270/270 611/611 614/614
f 612/612 272/272 615/615
f 270/270 609/609 611/611
f 271/271 274/274 614/614
f 609/609 268/268 616/616
f 274/274 271/271 267/267
f 271/271 617/617 608/608
f 615/615 272/272 608/608
f 272/272 269/269 267/267
f 272/272 612/612 269/269
f 274/274 267/267 273/273
f 271/271 614/614 617/617
f 270/270 274/274 273/273
f 274/274 270/270 614/614
f 286/286 287/287 285/285
f 285/285 282/282 286/286
f 281/281 618/618 619/619
f 619/619 288/288 281/281
f 281/281 288/288 290/290
f 285/285 287/287 294/294
f 294/294 295/295 285/285
f 288/288 619/619 620/620
f 620/620 297/297 288/288
f 298/298 290/290 296/296
f 290/290 298/298 293/293
f 288/288 296/296 290/290
f 296/296 288/288 297/297
f 287/287 291/291 299/299
f 299/299 294/294 287/287
f 298/298 299/299 291/291
f 291/291 293/293 298/298
f 276/276 275/275 312/312
f 300/300 302/302 311/311
f 307/307 621/621 622/622
f 623/623 306/306 297/297
f 310/310 304/304 309/309
f 304/304 301/301 298/298
f 296/296 297/297 306/306
f 277/277 279/279 308/308
f 296/296 304/304 298/298
f 309/309 308/308 279/279
f 311/311 310/310 278/278
f 310/310 311/311 302/302
f 303/303 302/302 300/300
f 620/620 623/623 297/297
f 301/301 299/299 298/298
f 299/299 301/301 303/303
f 300/300 295/295 303/303
f 303/303 294/294 299/299
f 301/301 302/302 303/303
f 295/295 294/294 303/303
f 290/290 283/283 281/281
f 308/308 309/309 304/304
f 310/310 309/309 278/278
f 304/304 296/296 305/305
f 306/306 305/305 296/296
f 622/622 277/277 307/307
f 308/308 307/307 277/277
f 284/284 287/287 286/286
f 289/289 283/283 290/290
f 290/290 293/293 289/289
f 287/287 284/284 291/291
f 292/292 289/289 293/293
f 293/293 291/291 292/292
f 284/284 292/292 291/291
f 305/305 306/306 307/307
f 621/621 307/307 306/306
f 304/304 305/305 308/308
f 307/307 308/308 305/305
f 279/279 280/280 309/309
f 309/309 280/280 278/278
f 302/302 301/301 310/310
f 301/301 304/304 310/310
f 278/278 276/276 311/311
f 312/312 311/311 276/276
f 306/306 623/623 621/621
f 311/311 312/312 300/300
f 316/316 624/624 317/317
f 625/625 316/316 626/626
f 627/627 628/628 318/318
f 318/318 313/313 627/627
f 629/629 314/314 630/630
f 631/631 627/627 313/313
f 323/323 319/319 322/322
f 626/626 316/316 317/317
f 630/630 632/632 629/629
f 314/314 626/626 317/317
f 314/314 629/629 626/626
f 633/633 322/322 634/634
f 320/320 321/321 322/322
f 635/635 320/320 633/633
f 315/315 323/323 321/321
f 319/319 631/631 313/313
f 317/317 636/636 314/314
f 636/636 317/317 624/624
f 631/631 324/324 637/637
f 322/322 321/321 323/323
f 322/322 319/319 634/634
f 633/633 320/320 322/322
f 631/631 319/319 324/324
f 324/324 319/319 323/323
f 315/315 324/324 323/323
f 637/637 324/324 315/315
f 325/325 638/638 639/639
f 625/625 637/637 640/640
f 625/625 640/640 641/641
f 316/316 642/642 624/624
f 641/641 316/316 625/625
f 637/637 327/327 640/640
f 321/321 325/325 326/326
f 320/320 325/325 321/321
f 635/635 325/325 320/320
f 321/321 326/326 315/315
f 327/327 315/315 326/326
f 326/326 325/325 639/639
f 643/643 326/326 639/639
f 638/638 325/325 635/635
f 642/642 316/316 641/641
f 637/637 315/315 327/327
f 326/326 643/643 327/327
f 643/643 640/640 327/327
f 332/332 330/330 331/331
f 333/333 329/329 328/328
f 644/644 645/645 328/328
f 646/646 647/647 648/648
f 331/331 649/649 332/332
f 650/650 329/329 651/651
f 630/630 314/314 652/652
f 653/653 314/314 636/636
f 319/319 654/654 634/634
f 654/654 319/319 655/655
f 319/319 313/313 655/655
f 652/652 314/314 653/653
f 656/656 655/655 313/313
f 313/313 318/318 656/656
f 651/651 329/329 657/657
f 332/332 649/649 658/658
f 329/329 333/333 657/657
f 328/328 645/645 333/333
f 330/330 332/332 659/659
f 646/646 660/660 647/647
f 345/345 348/348 336/336
f 334/334 338/338 337/337
f 348/348 339/339 335/335
f 348/348 340/340 339/339
f 337/337 341/341 340/340
f 348/348 337/337 340/340
f 338/338 342/342 337/337
f 337/337 342/342 341/341
f 339/339 340/340 346/346
f 340/340 341/341 344/344
f 343/343 344/344 341/341
f 343/343 341/341 342/342
f 334/334 337/337 345/345
f 340/340 344/344 346/346
f 661/661 347/347 662/662
f 663/663 347/347 661/661
f 664/664 347/347 663/663
f 665/665 347/347 666/666
f 666/666 347/347 664/664
f 667/667 347/347 665/665
f 662/662 347/347 668/668
f 345/345 337/337 348/348
f 336/336 348/348 335/335
f 349/349 351/351 350/350
f 351/351 353/353 352/352
f 354/354 352/352 355/355
f 352/352 353/353 355/355
f 351/351 352/352 356/356
f 351/351 356/356 350/350
f 361/361 363/363 358/358
f 360/360 362/362 357/357
f 362/362 361/361 357/357
f 357/357 361/361 358/358
f 361/361 359/359 363/363
f 371/371 365/365 373/373
f 334/334 366/366 338/338
f 373/373 364/364 367/367
f 373/373 367/367 368/368
f 366/366 368/368 369/369
f 373/373 368/368 366/366
f 338/338 366/366 342/342
f 366/366 369/369 342/342
f 367/367 372/372 368/368
f 368/368 370/370 369/369
f 343/343 369/369 370/370
f 343/343 342/342 369/369
f 334/334 371/371 366/366
f 368/368 372/372 370/370
f 669/669 670/670 347/347
f 671/671 669/669 347/347
f 672/672 671/671 347/347
f 673/673 674/674 347/347
f 674/674 672/672 347/347
f 667/667 673/673 347/347
f 670/670 668/668 347/347
f 371/371 373/373 366/366
f 365/365 364/364 373/373
f 374/374 375/375 376/376
f 376/376 377/377 378/378
f 354/354 355/355 377/377
f 377/377 355/355 378/378
f 376/376 379/379 377/377
f 376/376 375/375 379/379
f 383/383 381/381 384/384
f 360/360 380/380 362/362
f 362/362 380/380 383/383
f 380/380 381/381 383/383
f 383/383 384/384 382/382
f 396/396 387/387 399/399
f 385/385 388/388 389/389
f 399/399 386/386 390/390
f 399/399 390/390 391/391
f 388/388 391/391 392/392
f 399/399 391/391 388/388
f 389/389 388/388 393/393
f 388/388 392/392 393/393
f 390/390 397/397 391/391
f 391/391 395/395 392/392
f 394/394 392/392 395/395
f 394/394 393/393 392/392
f 385/385 396/396 388/388
f 391/391 397/397 395/395
f 675/675 676/676 398/398
f 677/677 675/675 398/398
f 678/678 677/677 398/398
f 679/679 680/680 398/398
f 680/680 678/678 398/398
f 681/681 679/679 398/398
f 676/676 682/682 398/398
f 396/396 399/399 388/388
f 387/387 386/386 399/399
f 400/400 401/401 402/402
f 402/402 403/403 404/404
f 405/405 406/406 403/403
f 403/403 406/406 404/404
f 402/402 407/407 403/403
f 402/402 401/401 407/407
f 412/412 409/409 414/414
f 411/411 408/408 413/413
f 413/413 408/408 412/412
f 408/408 409/409 412/412
f 412/412 414/414 410/410
f 422/422 424/424 416/416
f 385/385 389/389 417/417
f 424/424 418/418 415/415
f 424/424 419/419 418/418
f 417/417 420/420 419/419
f 424/424 417/417 419/419
f 389/389 393/393 417/417
f 417/417 393/393 420/420
f 418/418 419/419 423/423
f 419/419 420/420 421/421
f 394/394 421/421 420/420
f 394/394 420/420 393/393
f 385/385 417/417 422/422
f 419/419 421/421 423/423
f 683/683 398/398 684/684
f 685/685 398/398 683/683
f 686/686 398/398 685/685
f 687/687 398/398 688/688
f 688/688 398/398 686/686
f 681/681 398/398 687/687
f 684/684 398/398 682/682
f 422/422 417/417 424/424
f 416/416 424/424 415/415
f 425/425 427/427 426/426
f 427/427 429/429 428/428
f 405/405 428/428 406/406
f 428/428 429/429 406/406
f 427/427 428/428 430/430
f 427/427 430/430 426/426
f 434/434 435/435 432/432
f 411/411 413/413 431/431
f 413/413 434/434 431/431
f 431/431 434/434 432/432
f 434/434 433/433 435/435
