# MOD converted: h_w_costume_kindergarten_item.mod
# 226 verts, 84 faces

v 86.013969 5.872905 15.685167
v 89.676140 6.126385 15.808619
v 91.203461 -0.446948 16.336935
v 93.940063 2.018989 14.621109
v 100.307617 -5.644515 16.938713
v 100.307617 -2.414421 13.312792
v 107.389854 -5.889920 15.762100
v 107.389854 -2.629203 10.791462
v 113.793816 -2.929861 14.278824
v 113.793816 -0.852567 8.798121
v 116.964561 3.663850 12.745296
v 116.171379 3.663849 5.222436
v 116.560036 8.941708 8.709800
v 114.974953 8.941707 2.194204
v 110.618286 12.058374 5.681566
v 110.618286 12.058372 12.344593
v 84.732506 11.290308 12.095474
v 88.394676 11.543786 15.309743
v 97.457932 -4.088331 -15.808603
v 91.203461 -0.446948 -15.813135
v 86.013969 5.872904 -15.685152
v 89.676140 6.126384 -16.336922
v 93.940063 2.018988 -14.621094
v 100.307617 -5.644516 -15.309728
v 97.457932 -4.088332 -16.938698
v 100.307617 -2.414422 -13.312777
v 107.389854 -5.889920 -15.762085
v 107.389854 -2.629204 -10.791447
v 113.793816 -2.929862 -14.278809
v 113.793816 -0.852567 -8.798107
v 116.964561 3.663850 -12.745280
v 116.171379 3.663849 -5.222422
v 116.560036 8.941708 -8.709785
v 114.974953 8.941706 -2.194189
v 110.618286 12.058374 -5.681551
v 110.618286 12.058372 -12.344578
v 84.732506 11.290308 -12.095459
v 88.394676 11.543785 0.000006
v 77.980179 25.666687 0.000004
v 73.218338 11.256957 0.000005
v 113.398514 16.697309 0.000006
v 88.262970 26.765295 13.003894
v 75.254990 25.571840 12.788669
v 78.436874 25.666683 15.832189
v 75.254990 24.487118 15.916783
v 80.249725 23.912889 10.613841
v 79.165672 27.812265 9.964618
v 88.676697 26.765295 13.592992
v 98.492531 21.831846 11.354166
v 96.550964 24.176716 8.326566
v 104.567154 22.888130 10.702852
v 105.863571 21.000374 17.133087
v 81.746529 11.227582 17.175203
v 75.025848 11.256954 14.661860
v 100.356216 11.227586 5.878606
v 112.906830 11.227589 11.424026
v 109.295242 11.227583 17.478609
v 74.800034 16.697302 17.444851
v 81.746529 16.697302 14.965268
v 100.356216 16.697308 11.424027
v 109.295242 16.697306 5.878606
v 112.906830 16.697311 5.878606
v 109.475159 20.573692 3.578197
v 113.242867 12.821949 4.740536
v 113.166725 12.821949 3.578197
v 113.242867 15.102944 4.740536
v 113.166718 15.102946 3.003197
v 115.575684 13.248801 4.056633
v 116.059456 13.334100 3.003197
v 115.179596 15.495146 4.056634
v 115.663361 15.580448 2.312032
v 116.388733 13.392163 2.978720
v 117.326408 13.557501 2.312032
v 115.992645 15.638508 2.978721
v 116.930313 15.803846 0.000006
v 74.413155 25.571844 -12.788657
v 78.436874 25.666685 -13.003882
v 75.254990 25.571846 -15.916774
v 80.249725 23.912889 -15.832179
v 75.254990 24.487122 0.000006
v 78.708977 27.812271 -9.964606
v 88.676697 26.765299 -10.613829
v 79.165672 27.812269 -11.354155
v 96.550964 24.176720 -13.592981
v 98.492531 21.831854 0.000006
v 96.550964 24.176722 0.000006
v 104.462708 22.864475 -8.326555
v 104.567154 22.888136 -10.702843
v 105.863571 21.000376 -17.175198
v 75.025848 11.256958 -17.133083
v 81.746529 11.227586 -14.661851
v 100.356216 11.227590 -5.878597
v 112.906830 11.227591 0.000004
v 113.398514 11.227590 -11.424020
v 109.295242 11.227586 -17.478601
v 74.800034 16.697306 0.000005
v 72.992516 16.697304 -17.444841
v 81.746529 16.697308 -14.965255
v 100.356216 16.697311 -11.424015
v 109.295242 16.697309 -5.878594
v 109.475159 20.573692 -5.878596
v 112.906830 16.697311 0.000005
v 109.862740 20.573694 -4.740528
v 113.166725 12.821950 -3.578189
v 113.242867 12.821950 -3.578189
v 113.242867 15.102946 -4.740528
v 113.166718 15.102948 -4.056625
v 116.059456 13.334102 -3.003188
v 115.575684 13.248801 -3.003189
v 115.179596 15.495147 -4.056625
v 115.663361 15.580449 -2.978711
v 117.326408 13.557501 -2.312022
v 116.388733 13.392164 -2.312023
v 115.992645 15.638508 -2.978713
v 116.930313 15.803846 0.000004
v 117.964302 13.669977 0.000004
v 116.819618 13.468139 0.000005
v 116.423523 15.714483 0.000005
v 117.568207 15.916323 12.772237
v 74.060165 11.256956 12.997865
v 73.834351 16.697302 -12.772230
v 74.060165 11.256957 -12.997854
v 73.834351 16.697304 -15.474651
v 111.197998 18.924908 -19.062672
v 113.440033 18.924906 -23.283283
v 113.144905 18.924906 -26.524353
v 110.425331 18.924906 -27.547901
v 106.320076 18.924904 -25.962973
v 102.397240 18.924904 -22.374952
v 100.155190 18.924904 -18.154346
v 100.450340 18.924906 -14.913266
v 103.169922 18.924904 -13.889719
v 107.275154 18.924906 -15.474656
v 111.197983 18.178572 -19.062672
v 113.440033 18.178572 -23.283285
v 113.144905 18.178572 -26.524359
v 110.425323 18.178572 -27.547909
v 106.320076 18.178570 -25.962980
v 102.397232 18.178570 -22.374952
v 100.155190 18.178570 -18.154346
v 100.450340 18.178570 -14.913279
v 103.169914 18.178570 -13.889727
v 107.275154 18.178572 -7.208378
v 92.141624 18.523266 -7.715299
v 91.716263 18.832884 -8.222221
v 91.290909 18.523264 -7.715302
v 91.716263 18.213642 -15.987166
v 102.603775 18.523266 -16.494087
v 102.178421 18.832886 -17.001013
v 101.753067 18.523266 -16.494091
v 102.178406 18.213644 -14.951115
v 99.613861 18.558668 -16.928793
v 95.571396 18.558668 -15.638883
v 100.433517 18.558668 -19.561243
v 97.780281 18.558668 -14.690228
v 99.855095 18.758087 -12.704032
v 100.365822 22.763939 -15.453263
v 100.577682 18.556707 -15.018092
v 102.904106 22.658257 15.832189
v 75.254990 24.487118 13.003894
v 75.254990 25.571840 12.772237
v 74.060165 11.256956 0.000004
v 73.218338 11.256957 17.478609
v 74.800034 16.697302 17.133087
v 81.746529 11.227582 17.175203
v 75.025848 11.256954 14.661860
v 100.356216 11.227586 11.424026
v 109.295242 11.227583 5.878606
v 112.906830 11.227589 0.000004
v 113.398514 11.227590 4.740536
v 113.166725 12.821949 3.578197
v 113.242867 12.821949 3.578197
v 113.242867 15.102944 3.578197
v 113.242867 15.102944 3.003197
v 115.179596 15.495146 4.740536
v 113.166718 15.102946 4.056633
v 116.059456 13.334100 4.740536
v 113.166725 12.821949 2.312032
v 115.992645 15.638508 2.978720
v 117.326408 13.557501 0.000005
v 116.423523 15.714483 0.000004
v 117.964302 13.669977 0.000006
v 74.413155 25.571844 0.000006
v 77.980179 25.666687 0.000006
v 78.708977 27.812271 0.000006
v 88.262970 26.765295 0.000006
v 96.550964 24.176722 0.000006
v 104.462708 22.864475 0.000005
v 72.992516 16.697304 -13.003882
v 75.254990 25.571846 0.000006
v 74.413155 25.571844 -12.772230
v 74.060165 11.256957 0.000004
v 73.218338 11.256957 -17.133083
v 81.746529 11.227586 -17.175198
v 75.025848 11.256958 -14.661851
v 100.356216 11.227590 -11.424020
v 109.295242 11.227586 0.000005
v 109.862740 20.573694 0.000005
v 113.398514 16.697309 -5.878597
v 112.906830 11.227591 0.000004
v 113.398514 11.227590 -4.740528
v 113.166725 12.821950 -3.578189
v 113.242867 12.821950 -3.578189
v 113.242867 15.102946 -3.578189
v 113.242867 15.102946 -4.740528
v 113.166718 15.102948 -3.003189
v 115.179596 15.495147 -4.056625
v 116.059456 13.334102 -4.740528
v 113.166725 12.821950 -2.312023
v 115.992645 15.638508 -2.978711
v 117.326408 13.557501 0.000004
v 116.819618 13.468139 0.000004
v 117.964302 13.669977 0.000005
v 116.423523 15.714483 0.000005
v 117.568207 15.916323 0.000005
v 116.423523 15.714483 0.000004
v 117.964302 13.669977 17.175203
v 75.025848 11.256954 -17.175198
v 75.025848 11.256958 -17.478601
v 74.800034 16.697306 -15.832179
v 75.254990 24.487122 0.000006
v 74.413155 25.571844 -8.222221
v 91.290909 18.523264 -7.208378
v 92.141624 18.523266 -7.715299
v 91.716263 18.832884 -7.715302
v 91.716263 18.213642 0.934706

vt 0.118126 0.007282
vt 0.150763 0.065294
vt 0.250440 0.007282
vt 0.251478 0.065294
vt 0.403223 0.007282
vt 0.389332 0.065294
vt 0.527569 0.007282
vt 0.513788 0.065294
vt 0.653484 0.007282
vt 0.640323 0.065294
vt 0.768885 0.007282
vt 0.753077 0.065294
vt 0.886908 0.007282
vt 0.865831 0.065294
vt 0.979639 0.007282
vt 0.952240 0.065294
vt 0.020120 0.007282
vt 0.049595 0.065294
vt 0.364307 0.065294
vt 0.250440 0.065294
vt 0.118126 0.007282
vt 0.150763 0.007282
vt 0.251478 0.065294
vt 0.403223 0.065294
vt 0.364307 0.007282
vt 0.389332 0.065294
vt 0.527569 0.007282
vt 0.513788 0.065294
vt 0.653484 0.007282
vt 0.640323 0.065294
vt 0.768885 0.007282
vt 0.753077 0.065294
vt 0.886908 0.007282
vt 0.865831 0.065294
vt 0.979639 0.007282
vt 0.952240 0.065294
vt 0.020120 0.007282
vt 0.049595 0.392226
vt 0.031623 0.706824
vt 0.358638 0.433100
vt 0.321951 0.392226
vt 0.109339 0.494947
vt 0.010210 0.495042
vt 0.032789 0.539753
vt 0.014918 0.533663
vt 0.049659 0.473877
vt 0.041533 0.468332
vt 0.109196 0.508238
vt 0.181490 0.484051
vt 0.166404 0.464896
vt 0.225593 0.488713
vt 0.234501 0.663191
vt 0.468150 0.706054
vt 0.471558 0.562506
vt 0.456208 0.492746
vt 0.403158 0.511089
vt 0.434137 0.654961
vt 0.212894 0.582097
vt 0.071167 0.546907
vt 0.204148 0.513109
vt 0.266112 0.474507
vt 0.298811 0.444143
vt 0.266689 0.480596
vt 0.327958 0.489648
vt 0.323255 0.466935
vt 0.315821 0.475537
vt 0.311762 0.271297
vt 0.508456 0.269219
vt 0.484499 0.271868
vt 0.548679 0.137976
vt 0.508456 0.295738
vt 0.508456 0.295820
vt 0.484499 0.292930
vt 0.548679 0.162376
vt 0.508456 0.392226
vt 0.009361 0.289409
vt 0.032789 0.289505
vt 0.010210 0.250749
vt 0.048756 0.244699
vt 0.014918 0.392226
vt 0.039217 0.316119
vt 0.109196 0.310574
vt 0.041533 0.300400
vt 0.166404 0.276214
vt 0.181490 0.392226
vt 0.167177 0.392226
vt 0.224440 0.319556
vt 0.225593 0.295739
vt 0.234501 0.706054
vt 0.471558 0.663191
vt 0.468150 0.562506
vt 0.456208 0.492746
vt 0.403158 0.488808
vt 0.358246 0.511089
vt 0.434137 0.189193
vt 0.022011 0.654976
vt 0.339827 0.202350
vt 0.071171 0.237544
vt 0.204148 0.271342
vt 0.266112 0.340308
vt 0.266689 0.309945
vt 0.298811 0.392226
vt 0.272569 0.294803
vt 0.323255 0.303856
vt 0.327958 0.317517
vt 0.315821 0.308915
vt 0.311762 0.269219
vt 0.484499 0.271297
vt 0.508456 0.271868
vt 0.548679 0.137976
vt 0.508456 0.295820
vt 0.484499 0.295738
vt 0.508456 0.292930
vt 0.548679 0.162376
vt 0.508456 0.351687
vt 0.484499 0.343308
vt 0.508456 0.338750
vt 0.548679 0.209923
vt 0.508456 0.706394
vt 0.442610 0.654885
vt 0.244494 0.706394
vt 0.442610 0.654885
vt 0.245081 0.461174
vt 0.399239 0.448361
vt 0.440703 0.414816
vt 0.466329 0.373352
vt 0.466329 0.339808
vt 0.440703 0.326994
vt 0.399239 0.339808
vt 0.357775 0.373352
vt 0.332149 0.414816
vt 0.332149 0.448361
vt 0.357775 0.461174
vt 0.399239 0.448361
vt 0.440703 0.414816
vt 0.466329 0.373352
vt 0.466329 0.339808
vt 0.440703 0.326994
vt 0.399239 0.339808
vt 0.357775 0.373352
vt 0.332149 0.414816
vt 0.332149 0.448361
vt 0.357775 0.093319
vt 0.024576 0.107813
vt 0.024576 0.122307
vt 0.024576 0.107813
vt 0.024576 0.093319
vt 0.287854 0.107813
vt 0.287854 0.122307
vt 0.287854 0.107813
vt 0.287854 0.696862
vt 0.188119 0.624371
vt 0.201866 0.701723
vt 0.169980 0.630431
vt 0.141996 0.696862
vt 0.188119 0.624371
vt 0.201866 0.701723
vt 0.169980 0.630431
vt 0.141996 0.599182
vt 0.226524 0.595757
vt 0.244665 0.690307
vt 0.246953 0.690461
vt 0.339337 0.595366
vt 0.022039 0.627572
vt 0.081413 0.640733
vt 0.033420 0.590079
vt 0.218266 0.550814
vt 0.286965 0.507443
vt 0.326087 0.465624
vt 0.353610 0.213194
vt 0.484499 0.222032
vt 0.508456 0.228388
vt 0.548679 0.107194
vt 0.484499 0.141660
vt 0.484499 0.096978
vt 0.508456 0.134214
vt 0.548679 0.084307
vt 0.548679 0.162524
vt 0.484499 0.164285
vt 0.548679 0.201966
vt 0.484499 0.215239
vt 0.548679 0.392197
vt 0.009361 0.392226
vt 0.031623 0.392226
vt 0.039217 0.392226
vt 0.109339 0.392226
vt 0.167177 0.392226
vt 0.224440 0.654976
vt 0.339336 0.595757
vt 0.244665 0.596623
vt 0.339336 0.690315
vt 0.244725 0.690464
vt 0.341239 0.156868
vt 0.081371 0.143542
vt 0.033457 0.194373
vt 0.218266 0.233638
vt 0.286965 0.392226
vt 0.272569 0.351351
vt 0.321951 0.277008
vt 0.326087 0.318827
vt 0.353610 0.213194
vt 0.484499 0.222032
vt 0.508456 0.228388
vt 0.548679 0.107194
vt 0.484499 0.096978
vt 0.508456 0.141660
vt 0.484499 0.134214
vt 0.548679 0.084307
vt 0.548679 0.162524
vt 0.484499 0.164285
vt 0.548679 0.343308
vt 0.508456 0.351687
vt 0.484499 0.338750
vt 0.548679 0.209923
vt 0.508456 0.201966
vt 0.484499 0.215239
vt 0.548679 0.690942
vt 0.213296 0.690968
vt 0.215210 0.654956
vt 0.212259 0.599182
vt 0.226524 0.596623
vt 0.339335 0.158733
vt 0.210965 0.158733
vt 0.253270 0.178323
vt 0.232117 0.139142
vt 0.232117 1.000000

f 63/63 61/61 62/62
f 61/61 63/63 52/52
f 103/103 62/62 41/41
f 62/62 103/103 63/63
f 61/61 169/169 62/62
f 169/169 61/61 168/168
f 169/169 64/64 65/65
f 64/64 169/169 170/170
f 170/170 66/66 64/64
f 66/66 170/170 41/41
f 62/62 66/66 41/41
f 66/66 62/62 67/67
f 62/62 65/65 67/67
f 65/65 62/62 169/169
f 171/171 68/68 69/69
f 68/68 171/171 172/172
f 172/172 70/70 68/68
f 70/70 172/172 173/173
f 174/174 71/71 175/175
f 71/71 174/174 176/176
f 176/176 177/177 71/71
f 177/177 176/176 178/178
f 69/69 72/72 73/73
f 72/72 69/69 68/68
f 68/68 74/74 72/72
f 74/74 68/68 70/70
f 175/175 75/75 179/179
f 75/75 175/175 71/71
f 71/71 180/180 75/75
f 180/180 71/71 177/177
f 73/73 117/117 116/116
f 117/117 73/73 72/72
f 72/72 118/118 117/117
f 118/118 72/72 74/74
f 179/179 119/119 181/181
f 119/119 179/179 75/75
f 75/75 182/182 119/119
f 182/182 75/75 180/180
f 100/100 101/101 102/102
f 101/101 100/100 89/89
f 102/102 198/198 199/199
f 198/198 102/102 101/101
f 100/100 200/200 197/197
f 200/200 100/100 102/102
f 200/200 105/105 201/201
f 105/105 200/200 104/104
f 201/201 106/106 199/199
f 106/106 201/201 105/105
f 102/102 106/106 107/107
f 106/106 102/102 199/199
f 102/102 104/104 200/200
f 104/104 102/102 107/107
f 202/202 109/109 203/203
f 109/109 202/202 108/108
f 203/203 110/110 204/204
f 110/110 203/203 109/109
f 205/205 111/111 206/206
f 111/111 205/205 207/207
f 206/206 208/208 209/209
f 208/208 206/206 111/111
f 108/108 113/113 109/109
f 113/113 108/108 112/112
f 109/109 114/114 110/110
f 114/114 109/109 113/113
f 207/207 115/115 111/111
f 115/115 207/207 210/210
f 111/111 211/211 208/208
f 211/211 111/111 115/115
f 112/112 212/212 113/113
f 212/212 112/112 213/213
f 113/113 214/214 114/114
f 214/214 113/113 212/212
f 210/210 215/215 115/115
f 215/215 210/210 216/216
f 115/115 217/217 211/211
f 217/217 115/115 215/215
f 160/160 161/161 97/97
f 97/97 163/163 189/189
f 189/189 123/123 121/121
f 121/121 162/162 219/219
f 219/219 192/192 123/123
f 123/123 190/190 161/161
f 1/1 164/164 46/46
f 45/45 46/46 164/164
