# MOD converted: h_w_costume_thief03_body.mod
# 675 verts, 896 faces

v 113.748848 -1.641925 9.713974
v 110.002853 -4.371138 12.569901
v 114.967056 -2.120175 8.594193
v 115.787216 3.044268 13.196854
v 117.111877 3.041060 11.814896
v 106.107742 -4.915767 15.403336
v 105.567886 -4.941483 17.638565
v 109.792564 -4.428254 18.923233
v 114.052856 -1.999729 19.704834
v 115.980194 3.039654 18.594849
v 106.451393 -3.939519 22.444672
v 105.602333 -3.516766 25.899506
v 107.048134 -2.487490 22.686615
v 111.110413 -1.521757 28.744019
v 111.151154 3.051371 27.853165
v 109.502586 -0.558586 23.931625
v 112.887016 3.046674 18.499451
v 109.660744 3.046711 8.860229
v 113.759315 7.735129 12.569901
v 114.978546 8.208257 9.713974
v 110.020554 10.470769 17.638565
v 109.810394 10.522115 15.403336
v 105.576599 11.044854 11.814896
v 106.126747 11.021882 18.923233
v 114.064880 8.083656 18.594849
v 106.459023 10.040876 22.686615
v 111.115395 7.617240 25.899506
v 107.048012 8.590132 27.853165
v 109.502502 6.661300 22.444672
v 105.602180 9.619390 -8.860229
v 113.754265 -1.636932 -9.713974
v 110.011513 -4.369706 -12.569901
v 114.973030 -2.112440 -8.594193
v 115.787033 3.051274 -13.196854
v 117.111694 3.051274 -11.814896
v 106.117050 -4.917554 -15.403336
v 105.572159 -4.941908 -17.638565
v 109.801292 -4.423895 -18.923233
v 114.058685 -1.990425 -19.704834
v 115.980019 3.051274 -18.594849
v 106.455116 -3.938944 -22.444672
v 105.602257 -3.516786 -25.899506
v 107.048073 -2.487538 -22.686615
v 111.112801 -1.518227 -28.744019
v 111.151161 3.051274 -27.853165
v 109.502548 -0.558665 -23.931625
v 112.886917 3.051275 -18.499451
v 109.660561 3.051274 -8.860229
v 113.754272 7.739493 -12.569901
v 114.973030 8.214989 -9.713974
v 110.011513 10.472214 -17.638565
v 109.801292 10.526489 -15.403336
v 105.572159 11.044436 -11.814896
v 106.117050 11.020111 -18.923233
v 114.058685 8.092972 -18.594849
v 106.455132 10.041453 -22.686615
v 111.112801 7.620774 -25.899506
v 107.048073 8.590084 -27.853165
v 109.502548 6.661222 -22.444672
v 105.602257 9.619372 43.985992
v 90.563667 4.652568 45.726562
v 94.374008 6.712374 43.711884
v 90.471207 -0.151553 47.274277
v 97.930443 5.048129 45.364563
v 94.248062 -2.745784 47.002289
v 98.115479 -0.862932 26.692520
v 102.274582 7.692622 26.017303
v 97.667747 5.476028 27.710922
v 101.853470 -1.641807 26.167679
v 97.834358 0.417867 29.157196
v 105.701340 0.156432 29.280762
v 105.875061 5.386856 28.319489
v 96.771408 5.101944 31.431091
v 104.955452 5.375557 30.850220
v 100.538673 7.497859 28.906342
v 101.447830 7.714560 31.351868
v 104.753601 0.095995 29.936584
v 100.904640 -1.741729 28.393234
v 96.885254 0.370684 34.073929
v 94.000328 -0.085638 35.966049
v 98.323669 -2.636759 37.798279
v 102.475739 -0.597519 37.946701
v 102.537422 5.539123 35.985092
v 98.482628 7.766860 33.955048
v 94.026680 5.195426 20.144272
v 100.195038 0.251217 21.860046
v 104.460609 -1.756913 23.400253
v 108.114807 0.251166 23.483231
v 108.292824 5.689342 21.788620
v 104.308571 8.103340 20.051132
v 100.070724 5.997478 0.000000
v 70.273697 0.699323 0.000000
v 70.641365 7.370178 1.346863
v 68.889595 0.752514 10.750671
v 70.016418 9.532508 1.830887
v 71.589577 10.633040 9.415253
v 75.040504 10.704629 13.596527
v 74.171471 -5.337359 14.186783
v 71.230331 -5.964397 16.121536
v 70.877174 -3.160516 20.645676
v 62.323189 -0.058783 18.108597
v 69.608276 5.161247 18.914703
v 69.397331 -0.059021 8.234619
v 70.407425 -8.212990 9.256683
v 60.917580 -9.804893 7.694916
v 73.251602 -7.680464 3.958389
v 60.451233 10.789063 3.358002
v 69.096298 9.256328 14.046005
v 74.623596 6.327278 14.908813
v 71.323059 6.489229 1.334366
v 59.747398 1.228757 3.269196
v 60.212193 -7.160572 2.862091
v 69.705788 -5.932971 3.593216
v 51.313202 -8.000105 10.160706
v 51.688263 -10.974511 1.214218
v 51.241772 1.558113 4.602524
v 52.022457 11.643163 2.029144
v 46.488739 1.672540 14.172302
v 48.306305 10.293406 13.474075
v 52.678440 11.518295 17.849106
v 53.413773 8.802495 16.325912
v 52.348106 -7.818269 15.227890
v 61.485420 -7.297421 4.909958
v 42.987137 1.582747 6.849747
v 42.708836 -4.361055 19.890930
v 48.381821 2.911164 19.931503
v 53.298370 -3.407629 16.678391
v 47.713783 -6.830462 7.010681
v 43.830215 7.638378 5.346420
v 47.431763 10.457372 13.489761
v 44.281784 7.430490 12.170273
v 61.445034 10.644550 4.490143
v 46.564991 -7.068823 10.540161
v 46.848053 -9.431328 15.636642
v 43.457207 -3.696977 17.505127
v 44.102859 2.118534 14.375031
v 35.932671 9.251369 18.503403
v 35.618698 3.077841 11.322678
v 42.721127 -6.198181 6.671234
v 20.483200 3.588789 9.189453
v 20.484205 -4.618869 4.990845
v 34.116600 2.656088 7.770828
v 35.586281 9.465984 19.047195
v 20.485806 4.294418 17.271500
v 20.485102 -4.281379 15.818405
v 20.485001 9.062571 8.996704
v 20.483406 8.895569 0.000000
v 71.163818 -5.967102 18.205963
v 61.887539 -3.421150 0.000000
v 73.499123 -7.654572 0.000000
v 74.528740 11.453714 16.487274
v 61.960346 8.180473 17.411240
v 72.025444 1.402836 7.158752
v 78.886154 -8.779350 0.000000
v 78.328827 -9.536314 16.522934
v 74.783783 1.176183 12.779633
v 79.862030 -6.058303 14.995087
v 80.599426 0.104572 8.281357
v 81.782364 9.859075 12.688995
v 81.155594 5.786431 0.000000
v 82.149925 10.906102 8.109756
v 85.639664 8.289003 13.420349
v 84.910965 -1.085841 0.000000
v 85.831444 9.524900 11.809723
v 84.084106 -6.364457 0.000000
v 82.947884 -10.406424 1.442062
v 84.901337 -11.257861 11.613678
v 86.292946 -6.800854 8.094437
v 88.087593 8.029456 0.000000
v 88.357910 9.346650 13.291214
v 87.173203 -1.304518 19.617172
v 62.324390 5.852515 20.738098
v 55.975677 6.683211 20.263702
v 52.667271 3.296187 21.778305
v 55.824867 0.136752 6.727020
v 83.210983 -9.145384 11.172272
v 85.415573 4.715202 11.179672
v 87.792580 4.340331 6.791321
v 85.457443 -9.756910 -43.985992
v 90.563667 4.652562 -45.726562
v 94.374008 6.712375 -43.711884
v 90.471207 -0.151558 -47.274277
v 97.930450 5.048132 -45.364578
v 94.248062 -2.745785 -47.002289
v 98.115479 -0.862929 -26.692520
v 102.274628 7.692619 -26.017303
v 97.667770 5.476060 -27.710922
v 101.853432 -1.641809 -26.167679
v 97.834343 0.417900 -29.157196
v 105.701324 0.156394 -29.280762
v 105.875069 5.386820 -28.319489
v 96.771423 5.101949 -31.431091
v 104.955460 5.375551 -30.850204
v 100.538673 7.497859 -28.906342
v 101.447861 7.714559 -31.351868
v 104.753601 0.095992 -29.936584
v 100.904640 -1.741729 -28.393234
v 96.885254 0.370684 -34.073929
v 94.000328 -0.085646 -35.966049
v 98.323669 -2.636760 -37.798279
v 102.475739 -0.597513 -37.946701
v 102.537422 5.539131 -35.985092
v 98.482628 7.766860 -33.955048
v 94.026680 5.195417 -20.144272
v 100.195007 0.251251 -21.860046
v 104.460564 -1.756919 -23.400253
v 108.116234 0.253402 -23.483231
v 108.291298 5.691678 -21.788620
v 104.308632 8.103336 -20.051132
v 100.070732 5.997509 -1.346863
v 68.889595 0.752519 -10.750671
v 70.016418 9.532511 -1.830887
v 71.589577 10.633040 -9.415253
v 75.040504 10.704628 -13.596527
v 74.171471 -5.337361 -14.186783
v 71.230331 -5.964400 -16.121536
v 70.877174 -3.160511 -20.645676
v 62.323200 -0.058803 -18.108597
v 69.608269 5.161247 -18.914703
v 69.397339 -0.059070 -8.234619
v 70.407425 -8.212990 -9.256683
v 60.917591 -9.804895 -7.694916
v 73.251602 -7.680465 -3.958389
v 60.451229 10.789062 -3.358002
v 69.096313 9.256329 -14.046005
v 74.623596 6.327279 -14.908813
v 71.323044 6.489229 -1.334366
v 59.747398 1.228758 -3.269196
v 60.212177 -7.160573 -2.862091
v 69.705788 -5.932972 -3.593216
v 51.313202 -8.000110 -10.160706
v 51.688263 -10.974512 -1.214218
v 51.241772 1.558119 -4.602524
v 52.022461 11.643163 -2.029144
v 46.488743 1.672543 -14.172302
v 48.306305 10.293407 -13.474075
v 52.678440 11.518292 -17.849106
v 53.413769 8.802497 -16.325912
v 52.348103 -7.818269 -15.227890
v 61.485413 -7.297422 -4.909958
v 42.987137 1.582750 -6.849747
v 42.708836 -4.361056 -19.890930
v 48.381821 2.911166 -19.931503
v 53.298370 -3.407633 -16.678391
v 47.713783 -6.830462 -7.010681
v 43.830215 7.638378 -5.346420
v 47.431763 10.457372 -13.489761
v 44.281784 7.430489 -12.170273
v 61.445026 10.644550 -4.490143
v 46.564991 -7.068825 -10.540161
v 46.848045 -9.431328 -15.636642
v 43.457199 -3.696977 -17.505127
v 44.102859 2.118538 -14.375031
v 35.932671 9.251370 -18.503403
v 35.618698 3.077840 -11.322678
v 42.721127 -6.198181 -6.671234
v 20.483202 3.588791 -9.189453
v 20.484200 -4.618872 -4.990845
v 34.116600 2.656091 -7.770828
v 35.586281 9.465987 -19.047195
v 20.485802 4.294421 -17.271500
v 20.485102 -4.281383 -15.818405
v 20.485001 9.062570 -8.996704
v 20.483404 8.895569 -18.205963
v 61.887531 -3.421151 -16.487274
v 61.960346 8.180470 -17.411240
v 72.025444 1.402834 -7.158752
v 78.886169 -8.779353 -16.522934
v 74.783783 1.176186 -12.779633
v 79.862030 -6.058303 -14.995087
v 80.599426 0.104572 -8.281357
v 81.782364 9.859076 -12.688995
v 81.155594 5.786431 -8.109756
v 85.639664 8.289002 -13.420349
v 84.910965 -1.085841 -11.809723
v 84.084106 -6.364458 -1.442062
v 84.901337 -11.257862 -11.613678
v 86.292946 -6.800858 -8.094437
v 88.087593 8.029457 -13.291214
v 87.173210 -1.304517 -19.617172
v 62.324390 5.852517 -20.738098
v 55.975677 6.683213 -20.263702
v 52.667271 3.296192 -21.778305
v 55.824879 0.136633 -6.727020
v 83.210983 -9.145389 -11.172272
v 85.415573 4.715202 -11.179672
v 87.792580 4.340332 -6.791321
v 85.457443 -9.756914 24.727844
v 103.392441 -2.946283 26.611008
v 107.862488 -0.488260 26.712494
v 108.076508 6.161010 24.640503
v 103.206940 9.109633 22.516098
v 98.025452 6.534841 22.629990
v 98.177483 -0.490989 -24.727844
v 103.392380 -2.946290 -26.611008
v 107.862450 -0.488318 -26.712494
v 108.076553 6.160951 -24.640503
v 103.207001 9.109630 -22.516098
v 98.025490 6.534878 -22.629990
v 98.177444 -0.490946 20.096603
v 100.077911 0.168821 21.862106
v 104.467018 -1.897596 23.447098
v 108.227165 0.168771 23.532410
v 108.410721 5.764790 -20.096596
v 100.077888 0.168856 -21.862106
v 104.466980 -1.897599 -23.447098
v 108.228790 0.171068 -23.532410
v 108.408997 5.767190 -20.000725
v 99.949486 6.081900 0.000000
v 89.524597 -10.437299 5.100174
v 89.665199 -9.081161 10.173706
v 90.267502 -0.895707 9.139206
v 89.931999 -5.578329 5.009033
v 122.611000 2.854039 4.507294
v 120.602997 -1.682560 0.000000
v 113.200996 -2.969650 0.000000
v 119.353996 -4.180040 0.000000
v 116.498001 -3.456610 4.762100
v 117.336998 -0.887729 4.914307
v 95.918999 -10.071099 0.000000
v 97.079498 -11.287200 9.020874
v 96.042809 -6.367281 5.382004
v 113.952003 0.041959 9.142288
v 112.381363 0.020856 11.889297
v 102.385010 -7.583858 10.679108
v 108.903748 -2.566915 9.020996
v 113.905647 4.406118 12.801804
v 112.043915 -0.605152 13.787704
v 108.044113 -1.949004 16.290604
v 111.385963 6.189479 13.194000
v 113.213684 4.044192 15.933594
v 111.216515 0.396174 5.972382
v 109.838997 -5.513111 0.000000
v 100.805000 -12.835600 4.593369
v 98.023796 -12.972900 9.093277
v 98.103096 -11.515999 4.410782
v 101.829994 -13.916700 0.000000
v 109.223999 -6.426000 9.170395
v 101.881004 -12.424402 11.256195
v 98.526604 -7.138269 4.508072
v 105.757004 -11.906201 0.000000
v 104.592003 -11.474600 8.871490
v 105.388000 -10.587001 10.209305
v 106.899750 -6.356641 11.581100
v 87.221298 -0.712815 5.695953
v 86.346298 -8.859270 0.000000
v 86.177299 -10.282299 10.322800
v 86.820702 -5.784749 0.000000
v 82.702805 -9.881390 6.298187
v 82.965897 -8.630468 11.566605
v 83.765602 -5.729310 -5.100174
v 89.665199 -9.081161 -10.173706
v 90.267502 -0.895707 -9.139206
v 89.931999 -5.578330 -4.507278
v 120.602997 -1.682560 -4.762100
v 117.336998 -0.887729 -5.117920
v 119.323990 3.799581 -4.914307
v 95.918999 -10.071099 -9.020874
v 96.042809 -6.367280 -5.382004
v 113.951996 0.041960 -9.142288
v 112.387009 0.026537 -11.889297
v 102.385010 -7.583859 -11.502808
v 102.867004 -0.291355 -10.679108
v 108.910004 -2.566240 -12.801804
v 112.047997 -0.600370 -13.787697
v 108.050003 -1.948000 -13.194000
v 113.211998 4.050350 -15.933601
v 111.220001 0.401337 -5.972382
v 109.838997 -5.513110 -4.593369
v 98.023796 -12.972900 -9.093277
v 98.103096 -11.516001 -4.410782
v 101.829994 -13.916700 -9.170395
v 101.881004 -12.424402 -11.256195
v 98.526604 -7.138273 -4.508072
v 105.757004 -11.906199 -8.871490
v 105.388000 -10.587000 -10.209305
v 106.907997 -6.357880 -5.695953
v 86.346298 -8.859280 -10.322800
v 86.820702 -5.784749 -6.298187
v 82.965897 -8.630469 -11.566605
v 83.765602 -5.729313 10.131195
v 96.380997 -0.803935 11.502808
v 102.863098 -0.286039 -5.009033
v 122.610992 2.854041 -11.581100
v 87.221298 -0.712816 7.360443
v 90.654503 4.415299 0.000000
v 90.803299 5.818110 0.000000
v 123.523003 5.340420 0.000000
v 120.073997 6.212589 7.516098
v 96.582603 4.818159 0.000000
v 96.982300 6.940510 0.000000
v 116.838989 7.114440 7.474747
v 113.004669 8.021682 6.223099
v 103.156998 9.453068 6.859146
v 108.738998 10.351199 10.387207
v 103.269608 7.243929 12.179199
v 111.675087 8.071905 12.500793
v 103.244347 6.834830 10.818619
v 108.247421 9.501619 13.733704
v 107.532562 8.877342 12.877396
v 103.295303 0.042101 0.000000
v 104.683998 9.575289 0.000000
v 111.582001 9.707069 21.788620
v 104.310120 8.248854 20.000732
v 99.949471 6.081865 7.658585
v 88.010101 5.926070 0.000000
v 88.314499 7.228890 12.878601
v 84.448395 -0.570851 10.721298
v 84.944695 4.345880 7.922226
v 85.155891 7.598731 0.000000
v 85.341400 8.906009 -7.360443
v 90.654503 4.415300 -7.516098
v 96.582603 4.818160 -7.474747
v 112.999008 8.024881 -6.223099
v 103.156998 9.453069 -6.859146
v 108.738998 10.351198 -10.387207
v 103.264000 7.238589 -12.179199
v 111.668999 8.076050 -9.020996
v 113.902992 4.415640 -12.500801
v 103.238998 6.830330 -10.819321
v 108.241257 9.501660 -13.733704
v 107.526001 8.877790 -21.788620
v 104.310165 8.248850 -7.658585
v 88.010101 5.926070 -10.721298
v 84.944695 4.345880 -7.922226
v 85.155891 7.598731 5.117920
v 119.324089 3.797879 5.687134
v 115.822823 4.957767 -10.131195
v 96.380997 -0.803934 -5.687134
v 115.820999 4.961710 -12.877403
v 103.299004 0.037803 -16.290604
v 111.382004 6.194960 -12.878601
v 84.448395 -0.570861 8.860229
v 113.748848 -1.641925 9.713974
v 110.002853 -4.371137 12.569901
v 114.967056 -2.120175 8.594193
v 115.787216 3.044267 13.196854
v 117.111877 3.041060 11.814896
v 106.107742 -4.915767 15.403336
v 105.567886 -4.941483 17.638565
v 109.792564 -4.428254 18.923233
v 114.052856 -1.999730 19.704834
v 115.980194 3.039654 18.594849
v 106.451393 -3.939519 22.444672
v 105.602333 -3.516766 25.899506
v 107.048134 -2.487490 22.686615
v 111.110413 -1.521757 28.744019
v 111.151154 3.051371 27.853165
v 109.502586 -0.558586 23.931625
v 112.887016 3.046674 18.499451
v 109.660744 3.046712 8.860229
v 113.759315 7.735129 12.569901
v 114.978546 8.208257 9.713974
v 110.020554 10.470769 17.638565
v 109.810394 10.522115 15.403336
v 105.576599 11.044854 11.814896
v 106.126747 11.021882 18.923233
v 114.064880 8.083656 18.594849
v 106.459023 10.040876 22.686615
v 111.115395 7.617240 25.899506
v 107.048012 8.590132 27.853165
v 109.502502 6.661301 22.444672
v 105.602180 9.619390 -8.860229
v 113.754265 -1.636933 -9.713974
v 110.011513 -4.369706 -12.569901
v 114.973030 -2.112441 -8.594193
v 115.787033 3.051274 -13.196854
v 117.111694 3.051274 -11.814896
v 106.117050 -4.917554 -15.403336
v 105.572159 -4.941908 -17.638565
v 109.801292 -4.423895 -18.923233
v 114.058685 -1.990425 -19.704834
v 115.980019 3.051274 -18.594849
v 106.455116 -3.938944 -22.444672
v 105.602257 -3.516786 -25.899506
v 107.048073 -2.487538 -22.686615
v 111.112801 -1.518227 -28.744019
v 111.151161 3.051274 -27.853165
v 109.502548 -0.558665 -23.931625
v 112.886917 3.051274 -18.499451
v 109.660561 3.051274 -8.860229
v 113.754272 7.739493 -12.569901
v 114.973030 8.214989 -9.713974
v 110.011513 10.472214 -17.638565
v 109.801292 10.526489 -15.403336
v 105.572159 11.044437 -11.814896
v 106.117050 11.020111 -18.923233
v 114.058685 8.092972 -18.594849
v 106.455132 10.041453 -22.686615
v 111.112801 7.620774 -25.899506
v 107.048073 8.590084 -27.853165
v 109.502548 6.661222 -22.444672
v 105.602257 9.619372 9.713974
v 110.002853 -4.371138 8.860229
v 113.748848 -1.641925 11.814896
v 106.107742 -4.915767 15.403336
v 105.567886 -4.941483 25.899506
v 107.048134 -2.487490 22.444672
v 105.602333 -3.516766 18.594849
v 106.451393 -3.939519 28.744019
v 111.151154 3.051371 27.853165
v 109.502586 -0.558586 8.594193
v 115.787216 3.044268 9.713974
v 110.020554 10.470769 8.860229
v 113.759315 7.735129 11.814896
v 106.126747 11.021882 15.403336
v 105.576599 11.044854 25.899506
v 107.048012 8.590132 22.444672
v 105.602180 9.619390 18.594849
v 106.459023 10.040876 27.853165
v 109.502502 6.661300 -9.713974
v 110.011513 -4.369706 -8.860229
v 113.754265 -1.636932 -11.814896
v 106.117050 -4.917554 -15.403336
v 105.572159 -4.941908 -25.899506
v 107.048073 -2.487538 -22.444672
v 105.602257 -3.516786 -18.594849
v 106.455116 -3.938944 -28.744019
v 111.151161 3.051274 -27.853165
v 109.502548 -0.558665 -8.594193
v 115.787033 3.051274 -9.713974
v 110.011513 10.472214 -8.860229
v 113.754272 7.739493 -11.814896
v 106.117050 11.020111 -15.403336
v 105.572159 11.044436 -25.899506
v 107.048073 8.590084 -22.444672
v 105.602257 9.619372 -18.594849
v 106.455132 10.041453 -27.853165
v 109.502548 6.661222 26.017303
v 97.667747 5.476028 20.051132
v 100.070724 5.997478 43.985992
v 90.563667 4.652568 33.955048
v 94.026680 5.195426 28.319489
v 96.771408 5.101944 1.346863
v 68.889595 0.752514 2.029144
v 46.488739 1.672540 1.214218
v 51.241772 1.558113 13.489761
v 44.281784 7.430490 6.849747
v 42.708836 -4.361055 7.010681
v 43.830215 7.638378 4.909958
v 42.987137 1.582747 4.990845
v 34.116600 2.656088 17.505127
v 44.102859 2.118534 15.636642
v 43.457207 -3.696977 11.322678
v 42.721127 -6.198181 4.909958
v 42.987137 1.582747 1.334366
v 59.747398 1.228757 6.671234
v 20.483200 3.588789 0.000000
v 70.273697 0.699323 4.909958
v 42.987137 1.582747 6.727020
v 83.210983 -9.145384 0.000000
v 82.947884 -10.406424 0.000000
v 85.831444 9.524900 8.109756
v 85.639664 8.289003 11.172272
v 85.415573 4.715202 13.420349
v 84.910965 -1.085841 11.809723
v 84.084106 -6.364457 -20.051132
v 100.070732 5.997509 -26.017303
v 97.667770 5.476060 -33.955048
v 94.026680 5.195417 -43.985992
v 90.563667 4.652562 -28.319489
v 96.771423 5.101949 0.000000
v 70.273697 0.699323 0.000000
v 70.641365 7.370178 -1.346863
v 68.889595 0.752519 -2.029144
v 46.488743 1.672543 -1.214218
v 51.241772 1.558119 -13.489761
v 44.281784 7.430489 -6.849747
v 42.708836 -4.361056 -7.010681
v 43.830215 7.638378 -4.909958
v 42.987137 1.582750 -4.990845
v 34.116600 2.656091 -17.505127
v 44.102859 2.118538 -15.636642
v 43.457199 -3.696977 -11.322678
v 42.721127 -6.198181 -4.909958
v 42.987137 1.582750 -1.334366
v 59.747398 1.228758 -6.671234
v 20.483202 3.588791 0.000000
v 71.163818 -5.967102 0.000000
v 70.273697 0.699323 0.000000
v 73.499123 -7.654572 -4.909958
v 42.987137 1.582750 0.000000
v 74.528740 11.453714 0.000000
v 78.328827 -9.536314 0.000000
v 82.149925 10.906102 0.000000
v 85.831444 9.524900 0.000000
v 82.947884 -10.406424 -6.727020
v 83.210983 -9.145389 0.000000
v 82.947884 -10.406424 0.000000
v 85.831444 9.524900 -8.109756
v 85.639664 8.289002 0.000000
v 88.357910 9.346650 -11.172272
v 85.415573 4.715202 -13.420349
v 84.910965 -1.085841 -11.809723
v 84.084106 -6.364458 20.000732
v 99.949471 6.081865 22.516098
v 98.025452 6.534841 -20.000725
v 99.949486 6.081900 -22.516098
v 98.025490 6.534878 23.447098
v 108.227165 0.168771 21.862106
v 104.467018 -1.897596 23.532410
v 108.410721 5.764790 20.096603
v 100.077911 0.168821 -21.862106
v 104.466980 -1.897599 -23.447098
v 108.228790 0.171068 -23.532410
v 108.408997 5.767190 -20.096596
v 100.077888 0.168856 5.009033
v 122.611000 2.854039 5.117920
v 119.324089 3.797879 10.173706
v 90.267502 -0.895707 10.131195
v 96.380997 -0.803935 5.687134
v 115.822823 4.957767 11.502808
v 102.863098 -0.286039 9.020996
v 113.905647 4.406118 12.877396
v 103.295303 0.042101 13.194000
v 113.213684 4.044192 21.788620
v 104.310120 8.248854 16.290604
v 111.385963 6.189479 23.532410
v 108.410721 5.764790 20.096603
v 100.077911 0.168821 20.000732
v 99.949471 6.081865 11.581100
v 87.221298 -0.712815 12.878601
v 84.448395 -0.570851 -5.009033
v 122.610992 2.854041 -5.117920
v 119.323990 3.799581 -10.131195
v 96.380997 -0.803934 -10.173706
v 90.267502 -0.895707 -5.687134
v 115.820999 4.961710 -11.502808
v 102.867004 -0.291355 -9.020996
v 113.902992 4.415640 -12.877403
v 103.299004 0.037803 -13.194000
v 113.211998 4.050350 -21.788620
v 104.310165 8.248850 -23.532410
v 108.408997 5.767190 -16.290604
v 111.382004 6.194960 -20.000725
v 99.949486 6.081900 -20.096596
v 100.077888 0.168856 -11.581100
v 87.221298 -0.712816 -12.878601
v 84.448395 -0.570861 9.713974
v 110.002853 -4.371137 8.860229
v 113.748848 -1.641925 11.814896
v 106.107742 -4.915767 15.403336
v 105.567886 -4.941483 25.899506
v 107.048134 -2.487490 22.444672
v 105.602333 -3.516766 18.594849
v 106.451393 -3.939519 28.744019
v 111.151154 3.051371 27.853165
v 109.502586 -0.558586 8.594193
v 115.787216 3.044267 9.713974
v 110.020554 10.470769 8.860229
v 113.759315 7.735129 11.814896
v 106.126747 11.021882 15.403336
v 105.576599 11.044854 25.899506
v 107.048012 8.590132 22.444672
v 105.602180 9.619390 18.594849
v 106.459023 10.040876 27.853165
v 109.502502 6.661301 -9.713974
v 110.011513 -4.369706 -8.860229
v 113.754265 -1.636933 -11.814896
v 106.117050 -4.917554 -15.403336
v 105.572159 -4.941908 -25.899506
v 107.048073 -2.487538 -22.444672
v 105.602257 -3.516786 -18.594849
v 106.455116 -3.938944 -28.744019
v 111.151161 3.051274 -27.853165
v 109.502548 -0.558665 -8.594193
v 115.787033 3.051274 -9.713974
v 110.011513 10.472214 -8.860229
v 113.754272 7.739493 -11.814896
v 106.117050 11.020111 -15.403336
v 105.572159 11.044437 -25.899506
v 107.048073 8.590084 -22.444672
v 105.602257 9.619372 -18.594849
v 106.455132 10.041453 -27.853165
v 109.502548 6.661222 0.053550

vt 0.171447 0.910179
vt 0.160618 0.953252
vt 0.143056 0.979709
vt 0.180194 0.989315
vt 0.143231 0.882306
vt 0.138696 0.883048
vt 0.109837 0.918549
vt 0.101159 0.954295
vt 0.097939 0.989314
vt 0.091821 0.896703
vt 0.085956 0.898328
vt 0.054799 0.917440
vt 0.030956 0.944004
vt 0.063317 0.969810
vt 0.011668 0.944294
vt 0.019531 0.977168
vt 0.051295 0.864454
vt 0.032056 0.946450
vt 0.171447 0.953252
vt 0.143056 0.910179
vt 0.160618 0.918549
vt 0.101159 0.883048
vt 0.109837 0.882306
vt 0.138696 0.954295
vt 0.097939 0.896703
vt 0.085956 0.944004
vt 0.063317 0.917440
vt 0.030956 0.944294
vt 0.019531 0.898328
vt 0.054799 0.946450
vt 0.171447 0.910179
vt 0.160618 0.953252
vt 0.143056 0.979709
vt 0.180194 0.989315
vt 0.143231 0.882306
vt 0.138696 0.883048
vt 0.109837 0.918549
vt 0.101159 0.954295
vt 0.097939 0.989314
vt 0.091821 0.896703
vt 0.085956 0.898328
vt 0.054799 0.917440
vt 0.030956 0.944004
vt 0.063317 0.969810
vt 0.011668 0.944294
vt 0.019531 0.977168
vt 0.051295 0.864454
vt 0.032056 0.946450
vt 0.171447 0.953252
vt 0.143056 0.910179
vt 0.160618 0.918549
vt 0.101159 0.883048
vt 0.109837 0.882306
vt 0.138696 0.954295
vt 0.097939 0.896703
vt 0.085956 0.944004
vt 0.063317 0.917440
vt 0.030956 0.944294
vt 0.019531 0.898328
vt 0.054799 0.836033
vt 0.215828 0.858893
vt 0.215839 0.955208
vt 0.215839 0.879648
vt 0.215840 0.931182
vt 0.215839 0.908704
vt 0.215845 0.853070
vt 0.324883 0.827368
vt 0.316203 0.933194
vt 0.316219 0.959393
vt 0.316199 0.908347
vt 0.316235 0.879655
vt 0.316235 0.827670
vt 0.300572 0.879672
vt 0.300595 0.854204
vt 0.295925 0.854143
vt 0.309703 0.908317
vt 0.300593 0.932691
vt 0.300580 0.958521
vt 0.300569 0.957631
vt 0.267247 0.932116
vt 0.267240 0.908449
vt 0.267257 0.879598
vt 0.267303 0.855786
vt 0.267335 0.828600
vt 0.267286 0.960713
vt 0.352761 0.934328
vt 0.352770 0.908226
vt 0.352768 0.879208
vt 0.352760 0.852719
vt 0.352755 0.827551
vt 0.347778 0.513259
vt 0.159268 0.538835
vt 0.167304 0.514549
vt 0.147167 0.606985
vt 0.170206 0.561580
vt 0.174451 0.606616
vt 0.190534 0.707110
vt 0.196135 0.712115
vt 0.177726 0.693882
vt 0.176861 0.674604
vt 0.129113 0.649293
vt 0.164523 0.674257
vt 0.164582 0.747922
vt 0.173396 0.746677
vt 0.123005 0.746200
vt 0.194430 0.570158
vt 0.120197 0.563558
vt 0.157109 0.636891
vt 0.189261 0.635766
vt 0.175586 0.824679
vt 0.108004 0.780062
vt 0.118417 0.790726
vt 0.167583 0.774615
vt 0.061136 0.741071
vt 0.066958 0.526335
vt 0.050044 0.574278
vt 0.068329 0.533413
vt 0.030803 0.614748
vt 0.046986 0.610036
vt 0.075819 0.631367
vt 0.079778 0.714426
vt 0.072700 0.715035
vt 0.126564 0.806908
vt 0.011434 0.766377
vt 0.016744 0.659159
vt 0.046901 0.688379
vt 0.077991 0.709358
vt 0.043743 0.581149
vt 0.022212 0.579120
vt 0.043322 0.619295
vt 0.026329 0.608567
vt 0.125012 0.771271
vt 0.039024 0.736763
vt 0.044588 0.699670
vt 0.022678 0.651291
vt 0.368234 0.618963
vt 0.330329 0.652147
vt 0.329409 0.732233
vt 0.020486 0.757662
vt 0.261232 0.727240
vt 0.261264 0.762489
vt 0.329867 0.588601
vt 0.331052 0.652395
vt 0.261126 0.683980
vt 0.261172 0.622576
vt 0.261117 0.590731
vt 0.261164 0.802291
vt 0.177410 0.692814
vt 0.127344 0.791558
vt 0.205581 0.553454
vt 0.194508 0.629976
vt 0.127306 0.666808
vt 0.178720 0.739020
vt 0.223678 0.780162
vt 0.231496 0.668703
vt 0.196610 0.704554
vt 0.220864 0.668646
vt 0.219820 0.611262
vt 0.221484 0.637046
vt 0.219867 0.559558
vt 0.223806 0.621517
vt 0.249048 0.670070
vt 0.249539 0.563521
vt 0.252313 0.704962
vt 0.250126 0.771096
vt 0.260122 0.990571
vt 0.987837 0.990570
vt 0.882666 0.990577
vt 0.718516 0.990577
vt 0.641441 0.990584
vt 0.821134 0.646400
vt 0.128859 0.647178
vt 0.089745 0.660114
vt 0.075640 0.672560
vt 0.088688 0.735195
vt 0.252826 0.642746
vt 0.248717 0.990579
vt 0.763977 0.990570
vt 0.935341 0.836033
vt 0.215828 0.858893
vt 0.215839 0.955208
vt 0.215839 0.879648
vt 0.215840 0.931182
vt 0.215839 0.908704
vt 0.215845 0.853070
vt 0.324883 0.827368
vt 0.316203 0.933194
vt 0.316219 0.959393
vt 0.316199 0.908347
vt 0.316235 0.879655
vt 0.316235 0.827670
vt 0.300572 0.879672
vt 0.300595 0.854204
vt 0.295925 0.854143
vt 0.309703 0.908317
vt 0.300593 0.932691
vt 0.300580 0.958521
vt 0.300569 0.957631
vt 0.267247 0.932116
vt 0.267240 0.908449
vt 0.267257 0.879598
vt 0.267303 0.855786
vt 0.267335 0.828600
vt 0.267286 0.960713
vt 0.352761 0.934328
vt 0.352770 0.908226
vt 0.352768 0.879208
vt 0.352760 0.852719
vt 0.352755 0.827551
vt 0.347778 0.514549
vt 0.147167 0.606985
vt 0.170206 0.561580
vt 0.174451 0.606616
vt 0.190534 0.707110
vt 0.196135 0.712115
vt 0.177726 0.693882
vt 0.176861 0.674604
vt 0.129113 0.649293
vt 0.164523 0.674257
vt 0.164582 0.747922
vt 0.173396 0.746677
vt 0.123005 0.746200
vt 0.194430 0.570158
vt 0.120197 0.563558
vt 0.157109 0.636891
vt 0.189261 0.635766
vt 0.175586 0.824679
vt 0.108004 0.780062
vt 0.118417 0.790726
vt 0.167583 0.774615
vt 0.061136 0.741071
vt 0.066958 0.526335
vt 0.050044 0.574278
vt 0.068329 0.533413
vt 0.030803 0.614748
vt 0.046986 0.610036
vt 0.075819 0.631367
vt 0.079778 0.714426
vt 0.072700 0.715035
vt 0.126564 0.806908
vt 0.011434 0.766377
vt 0.016744 0.659159
vt 0.046901 0.688379
vt 0.077991 0.709358
vt 0.043743 0.581149
vt 0.022212 0.579120
vt 0.043322 0.619295
vt 0.026329 0.608567
vt 0.125012 0.771271
vt 0.039024 0.736763
vt 0.044588 0.699670
vt 0.022678 0.651291
vt 0.368234 0.618963
vt 0.330329 0.652147
vt 0.329409 0.732233
vt 0.020486 0.757662
vt 0.261232 0.727240
vt 0.261264 0.762489
vt 0.329867 0.588601
vt 0.331052 0.652395
vt 0.261126 0.683980
vt 0.261172 0.622576
vt 0.261117 0.590731
vt 0.261164 0.692814
vt 0.127344 0.629976
vt 0.127306 0.666808
vt 0.178720 0.739020
vt 0.223678 0.668703
vt 0.196610 0.704554
vt 0.220864 0.668646
vt 0.219820 0.611262
vt 0.221484 0.637046
vt 0.219867 0.621517
vt 0.249048 0.670070
vt 0.249539 0.704962
vt 0.250126 0.990571
vt 0.987837 0.990570
vt 0.882666 0.990577
vt 0.718516 0.990584
vt 0.821134 0.646400
vt 0.128859 0.647178
vt 0.089745 0.660114
vt 0.075640 0.672560
vt 0.088688 0.735195
vt 0.252826 0.642746
vt 0.248717 0.990579
vt 0.763977 0.990570
vt 0.935341 0.990235
vt 0.874994 0.990242
vt 0.823307 0.990241
vt 0.757871 0.990236
vt 0.700766 0.990230
vt 0.987711 0.990235
vt 0.931051 0.990235
vt 0.874994 0.990242
vt 0.823307 0.990241
vt 0.757871 0.990236
vt 0.700766 0.990230
vt 0.987711 0.990235
vt 0.931051 0.958628
vt 0.930905 0.958623
vt 0.874171 0.958626
vt 0.821760 0.958630
vt 0.757845 0.958628
vt 0.930905 0.958623
vt 0.874171 0.958626
vt 0.821760 0.958630
vt 0.757845 0.958633
vt 0.987850 0.712307
vt 0.716982 0.676397
vt 0.718020 0.606101
vt 0.724912 0.638814
vt 0.719459 0.651966
vt 0.992330 0.678566
vt 0.972959 0.715112
vt 0.908984 0.714946
vt 0.962913 0.714927
vt 0.938216 0.669528
vt 0.949552 0.680307
vt 0.760510 0.713226
vt 0.767523 0.643702
vt 0.762451 0.653876
vt 0.921420 0.624107
vt 0.898826 0.644797
vt 0.803684 0.620881
vt 0.856778 0.607090
vt 0.932366 0.598470
vt 0.884629 0.592669
vt 0.851323 0.553022
vt 0.917202 0.581390
vt 0.915616 0.572970
vt 0.880436 0.668069
vt 0.862969 0.713581
vt 0.792087 0.687924
vt 0.779697 0.666326
vt 0.782829 0.690542
vt 0.797836 0.714204
vt 0.860960 0.669794
vt 0.799078 0.642833
vt 0.783228 0.688912
vt 0.818778 0.713833
vt 0.815412 0.666834
vt 0.816457 0.645453
vt 0.832992 0.600226
vt 0.703568 0.672479
vt 0.695145 0.711897
vt 0.694422 0.634702
vt 0.696771 0.711478
vt 0.671067 0.668910
vt 0.672330 0.628896
vt 0.675479 0.748349
vt 0.716795 0.819274
vt 0.721301 0.786157
vt 0.716952 0.751722
vt 0.972929 0.760680
vt 0.949219 0.790044
vt 0.972241 0.745886
vt 0.759547 0.782691
vt 0.760353 0.776180
vt 0.920708 0.805811
vt 0.897395 0.782785
vt 0.801892 0.826605
vt 0.806060 0.808185
vt 0.854861 0.831422
vt 0.882529 0.836562
vt 0.848721 0.849319
vt 0.913537 0.857124
vt 0.877751 0.760776
vt 0.862030 0.738822
vt 0.779018 0.760562
vt 0.781527 0.736706
vt 0.797257 0.757532
vt 0.797939 0.784193
vt 0.781243 0.738860
vt 0.818192 0.760957
vt 0.815309 0.782850
vt 0.831429 0.751466
vt 0.693713 0.789492
vt 0.694001 0.754208
vt 0.670696 0.794560
vt 0.672386 0.606652
vt 0.764188 0.601517
vt 0.808953 0.779374
vt 0.990819 0.824419
vt 0.699608 0.741285
vt 0.417792 0.680591
vt 0.421427 0.680591
vt 0.664394 0.680591
vt 0.642940 0.746144
vt 0.465211 0.680591
vt 0.470952 0.680591
vt 0.621333 0.729278
vt 0.597169 0.728311
vt 0.526049 0.727387
vt 0.565802 0.765754
vt 0.525493 0.759198
vt 0.592540 0.782589
vt 0.531014 0.754961
vt 0.566931 0.776478
vt 0.568363 0.592012
vt 0.812692 0.680591
vt 0.534607 0.680591
vt 0.582777 0.958629
vt 0.701236 0.958633
vt 0.987850 0.736936
vt 0.395760 0.680591
vt 0.400625 0.594726
vt 0.684178 0.760821
vt 0.375283 0.733562
vt 0.373620 0.680591
vt 0.376977 0.619897
vt 0.417792 0.615038
vt 0.465211 0.631903
vt 0.597169 0.632871
vt 0.526049 0.633795
vt 0.565802 0.595427
vt 0.525493 0.601984
vt 0.592540 0.823610
vt 0.930999 0.578593
vt 0.531014 0.606220
vt 0.566931 0.584703
vt 0.568363 0.958629
vt 0.701236 0.624246
vt 0.395760 0.600361
vt 0.375283 0.627620
vt 0.373620 0.640760
vt 0.972608 0.625264
vt 0.954069 0.820084
vt 0.760930 0.805536
vt 0.953265 0.836314
vt 0.809619 0.878095
vt 0.914555 0.829253
vt 0.679904 0.946497
vt 0.171268 0.910226
vt 0.160439 0.953299
vt 0.142877 0.979756
vt 0.180015 0.989362
vt 0.143052 0.882354
vt 0.138517 0.883095
vt 0.109658 0.918597
vt 0.100980 0.954342
vt 0.097760 0.989362
vt 0.091642 0.896751
vt 0.085777 0.898376
vt 0.054620 0.917487
vt 0.030777 0.944052
vt 0.063138 0.969857
vt 0.011490 0.944342
vt 0.019352 0.977215
vt 0.051116 0.863011
vt 0.030959 0.946497
vt 0.171268 0.953299
vt 0.142877 0.910226
vt 0.160439 0.918597
vt 0.100980 0.883095
vt 0.109658 0.882354
vt 0.138517 0.954342
vt 0.097760 0.896751
vt 0.085777 0.944052
vt 0.063138 0.917487
vt 0.030777 0.944342
vt 0.019352 0.898376
vt 0.054620 0.946497
vt 0.171268 0.910226
vt 0.160439 0.953299
vt 0.142877 0.979756
vt 0.180015 0.989362
vt 0.143052 0.882354
vt 0.138517 0.883095
vt 0.109658 0.918597
vt 0.100980 0.954342
vt 0.097760 0.989362
vt 0.091642 0.896751
vt 0.085777 0.898376
vt 0.054620 0.917487
vt 0.030777 0.944052
vt 0.063138 0.969857
vt 0.011490 0.944342
vt 0.019352 0.977215
vt 0.051116 0.863011
vt 0.030959 0.946497
vt 0.171268 0.953299
vt 0.142877 0.910226
vt 0.160439 0.918597
vt 0.100980 0.883095
vt 0.109658 0.882354
vt 0.138517 0.954342
vt 0.097760 0.896751
vt 0.085777 0.944052
vt 0.063138 0.917487
vt 0.030777 0.944342
vt 0.019352 0.898376
vt 0.054620 0.855457
vt 0.010643 0.865544
vt 0.008625 0.848158
vt 0.017081 0.846712
vt 0.024871 0.850870
vt 0.048708 0.847932
vt 0.040756 0.848764
vt 0.032139 0.864556
vt 0.056269 0.857038
vt 0.053865 0.876507
vt 0.010762 0.855457
vt 0.010643 0.865544
vt 0.008625 0.848158
vt 0.017081 0.846712
vt 0.024871 0.850870
vt 0.048708 0.847932
vt 0.040756 0.848764
vt 0.032139 0.857038
vt 0.053865 0.855457
vt 0.010643 0.865544
vt 0.008625 0.848158
vt 0.017081 0.846712
vt 0.024871 0.850870
vt 0.048708 0.847932
vt 0.040756 0.848764
vt 0.032139 0.864556
vt 0.056269 0.857038
vt 0.053865 0.876507
vt 0.010762 0.855457
vt 0.010643 0.865544
vt 0.008625 0.848158
vt 0.017081 0.846712
vt 0.024871 0.850870
vt 0.048708 0.847932
vt 0.040756 0.848764
vt 0.032139 0.857038
vt 0.053865 0.985343
vt 0.316180 0.988431
vt 0.344053 0.978839
vt 0.215825 0.982939
vt 0.267279 0.982590
vt 0.300562 0.831652
vt 0.150377 0.812469
vt 0.031000 0.816463
vt 0.053322 0.617228
vt 0.368275 0.729462
vt 0.368262 0.586947
vt 0.368252 0.553632
vt 0.368144 0.554043
vt 0.325971 0.658609
vt 0.024934 0.683058
vt 0.368225 0.706969
vt 0.368137 0.760263
vt 0.368275 0.519226
vt 0.107972 0.560732
vt 0.261150 0.835391
vt 0.164100 0.542511
vt 0.011932 0.958331
vt 0.938865 0.958331
vt 0.987506 0.958332
vt 0.641546 0.958332
vt 0.718964 0.958333
vt 0.764866 0.958333
vt 0.821973 0.958331
vt 0.883078 0.988431
vt 0.344053 0.985343
vt 0.316180 0.982939
vt 0.267279 0.978839
vt 0.215825 0.982590
vt 0.300562 0.513259
vt 0.159268 0.538835
vt 0.167304 0.831652
vt 0.150377 0.812469
vt 0.031000 0.816463
vt 0.053322 0.617228
vt 0.368275 0.729462
vt 0.368262 0.586947
vt 0.368252 0.553632
vt 0.368144 0.554043
vt 0.325971 0.658609
vt 0.024934 0.683058
vt 0.368225 0.706969
vt 0.368137 0.760263
vt 0.368275 0.519226
vt 0.107972 0.560732
vt 0.261150 0.802291
vt 0.177410 0.835391
vt 0.164100 0.791558
vt 0.205581 0.542511
vt 0.011932 0.553454
vt 0.194508 0.780162
vt 0.231496 0.559558
vt 0.223806 0.563521
vt 0.252313 0.771096
vt 0.260122 0.958331
vt 0.938865 0.958331
vt 0.987506 0.958332
vt 0.641546 0.958332
vt 0.718964 0.990577
vt 0.641441 0.958333
vt 0.764866 0.958333
vt 0.821973 0.958331
vt 0.883078 0.958627
vt 0.642294 0.990230
vt 0.641464 0.958627
vt 0.642294 0.990230
vt 0.641464 0.519497
vt 0.857902 0.530742
vt 0.828838 0.504399
vt 0.893473 0.540917
vt 0.795032 0.898736
vt 0.824567 0.910769
vt 0.853764 0.926829
vt 0.889469 0.887665
vt 0.790556 0.713995
vt 0.664114 0.715258
vt 0.644133 0.783629
vt 0.418338 0.785037
vt 0.452092 0.719651
vt 0.623125 0.808438
vt 0.487397 0.741539
vt 0.618565 0.808438
vt 0.487397 0.766094
vt 0.617893 0.832251
vt 0.575216 0.784388
vt 0.602144 0.830874
vt 0.605058 0.855466
vt 0.512307 0.839847
vt 0.545142 0.789460
vt 0.397438 0.795442
vt 0.378597 0.647186
vt 0.664153 0.645924
vt 0.645645 0.576145
vt 0.452092 0.577553
vt 0.418338 0.641531
vt 0.623125 0.552744
vt 0.487397 0.619643
vt 0.618565 0.552744
vt 0.487397 0.595087
vt 0.617893 0.528931
vt 0.575216 0.530308
vt 0.605058 0.576793
vt 0.602144 0.521335
vt 0.545142 0.505715
vt 0.512307 0.571721
vt 0.397438 0.565739
vt 0.378597 0.854014
vt 0.052372 0.864102
vt 0.054391 0.846716
vt 0.045934 0.845269
vt 0.038144 0.849427
vt 0.014307 0.846489
vt 0.022259 0.847321
vt 0.030876 0.863114
vt 0.006746 0.855595
vt 0.009150 0.875064
vt 0.052253 0.854014
vt 0.052372 0.864102
vt 0.054391 0.846716
vt 0.045934 0.845269
vt 0.038144 0.849427
vt 0.014307 0.846489
vt 0.022259 0.847321
vt 0.030876 0.855595
vt 0.009150 0.854014
vt 0.052372 0.864102
vt 0.054391 0.846716
vt 0.045934 0.845269
vt 0.038144 0.849427
vt 0.014307 0.846489
vt 0.022259 0.847321
vt 0.030876 0.863114
vt 0.006746 0.855595
vt 0.009150 0.875064
vt 0.052253 0.854014
vt 0.052372 0.864102
vt 0.054391 0.846716
vt 0.045934 0.845269
vt 0.038144 0.849427
vt 0.014307 0.846489
vt 0.022259 0.847321
vt 0.030876 0.855595
vt 0.009150 1.000000

f 1/1 3/3 2/2
f 4/4 5/5 3/3
f 2/2 7/7 6/6
f 2/2 8/8 7/7
f 3/3 9/9 8/8
f 2/2 3/3 8/8
f 5/5 10/10 3/3
f 3/3 10/10 9/9
f 11/11 13/13 12/12
f 7/7 8/8 11/11
f 8/8 9/9 14/14
f 15/15 16/16 14/14
f 15/15 14/14 17/17
f 17/17 14/14 9/9
f 17/17 9/9 10/10
f 4/4 3/3 1/1
f 8/8 14/14 11/11
f 14/14 13/13 11/11
f 16/16 13/13 14/14
f 494/494 18/18 495/495
f 496/496 18/18 494/494
f 497/497 18/18 496/496
f 498/498 18/18 499/499
f 500/500 18/18 497/497
f 501/501 18/18 502/502
f 495/495 18/18 503/503
f 499/499 18/18 500/500
f 502/502 18/18 498/498
f 19/19 21/21 20/20
f 4/4 20/20 5/5
f 21/21 23/23 22/22
f 24/24 23/23 21/21
f 20/20 22/22 25/25
f 21/21 22/22 20/20
f 20/20 25/25 10/10
f 20/20 10/10 5/5
f 26/26 28/28 27/27
f 23/23 26/26 22/22
f 22/22 27/27 25/25
f 15/15 27/27 29/29
f 15/15 17/17 27/27
f 17/17 25/25 27/27
f 17/17 10/10 25/25
f 4/4 19/19 20/20
f 22/22 26/26 27/27
f 26/26 30/30 28/28
f 29/29 27/27 28/28
f 504/504 505/505 18/18
f 506/506 504/504 18/18
f 507/507 506/506 18/18
f 508/508 509/509 18/18
f 510/510 507/507 18/18
f 501/501 511/511 18/18
f 505/505 503/503 18/18
f 509/509 510/510 18/18
f 511/511 508/508 18/18
f 31/31 32/32 33/33
f 34/34 33/33 35/35
f 32/32 36/36 37/37
f 32/32 37/37 38/38
f 33/33 38/38 39/39
f 32/32 38/38 33/33
f 35/35 33/33 40/40
f 33/33 39/39 40/40
f 41/41 42/42 43/43
f 37/37 41/41 38/38
f 38/38 44/44 39/39
f 45/45 44/44 46/46
f 45/45 47/47 44/44
f 47/47 39/39 44/44
f 47/47 40/40 39/39
f 34/34 31/31 33/33
f 38/38 41/41 44/44
f 44/44 41/41 43/43
f 46/46 44/44 43/43
f 512/512 513/513 48/48
f 514/514 512/512 48/48
f 515/515 514/514 48/48
f 516/516 517/517 48/48
f 518/518 515/515 48/48
f 519/519 520/520 48/48
f 513/513 521/521 48/48
f 517/517 518/518 48/48
f 520/520 516/516 48/48
f 49/49 50/50 51/51
f 34/34 35/35 50/50
f 51/51 52/52 53/53
f 54/54 51/51 53/53
f 50/50 55/55 52/52
f 51/51 50/50 52/52
f 50/50 40/40 55/55
f 50/50 35/35 40/40
f 56/56 57/57 58/58
f 53/53 52/52 56/56
f 52/52 55/55 57/57
f 45/45 59/59 57/57
f 45/45 57/57 47/47
f 47/47 57/57 55/55
f 47/47 55/55 40/40
f 34/34 50/50 49/49
f 52/52 57/57 56/56
f 56/56 58/58 60/60
f 59/59 58/58 57/57
f 522/522 48/48 523/523
f 524/524 48/48 522/522
f 525/525 48/48 524/524
f 526/526 48/48 527/527
f 528/528 48/48 525/525
f 519/519 48/48 529/529
f 523/523 48/48 521/521
f 527/527 48/48 528/528
f 529/529 48/48 526/526
f 67/67 91/91 68/68
f 86/86 530/530 531/531
f 530/530 86/86 70/70
f 71/71 87/87 88/88
f 69/69 70/70 86/86
f 89/89 71/71 88/88
f 62/62 85/85 61/61
f 73/73 84/84 75/75
f 80/80 532/532 533/533
f 534/534 70/70 79/79
f 83/83 82/82 77/77
f 77/77 71/71 74/74
f 69/69 79/79 70/70
f 63/63 81/81 65/65
f 69/69 71/71 77/77
f 82/82 65/65 81/81
f 84/84 64/64 83/83
f 83/83 75/75 84/84
f 76/76 73/73 75/75
f 530/530 70/70 534/534
f 74/74 71/71 72/72
f 72/72 76/76 74/74
f 73/73 76/76 68/68
f 76/76 72/72 67/67
f 74/74 76/76 75/75
f 68/68 76/76 67/67
f 81/81 77/77 82/82
f 83/83 64/64 82/82
f 77/77 78/78 69/69
f 79/79 69/69 78/78
f 532/532 80/80 63/63
f 81/81 63/63 80/80
f 78/78 80/80 79/79
f 533/533 79/79 80/80
f 77/77 81/81 78/78
f 80/80 78/78 81/81
f 65/65 82/82 66/66
f 82/82 64/64 66/66
f 75/75 83/83 74/74
f 74/74 83/83 77/77
f 64/64 84/84 62/62
f 85/85 62/62 84/84
f 79/79 533/533 534/534
f 84/84 73/73 85/85
f 69/69 86/86 87/87
f 71/71 69/69 87/87
f 71/71 89/89 72/72
f 90/90 72/72 89/89
f 72/72 90/90 67/67
f 91/91 67/67 90/90
f 92/92 94/94 93/93
f 95/95 97/97 96/96
f 98/98 100/100 99/99
f 101/101 103/103 102/102
f 99/99 105/105 104/104
f 106/106 98/98 99/99
f 95/95 108/108 107/107
f 109/109 95/95 110/110
f 111/111 113/113 112/112
f 111/111 535/535 113/113
f 112/112 115/115 114/114
f 115/115 112/112 105/105
f 116/116 118/118 117/117
f 119/119 121/121 120/120
f 115/115 123/123 122/122
f 123/123 115/115 105/105
f 536/536 125/125 124/124
f 114/114 537/537 112/112
f 126/126 128/128 127/127
f 129/129 131/131 130/130
f 119/119 130/130 131/131
f 95/95 107/107 132/132
f 133/133 115/115 134/134
f 115/115 133/133 114/114
f 115/115 128/128 134/134
f 128/128 115/115 122/122
f 128/128 126/126 135/135
f 133/133 536/536 114/114
f 538/538 137/137 136/136
f 138/138 136/136 137/137
f 134/134 139/139 133/133
f 125/125 133/133 139/139
f 134/134 128/128 139/139
f 135/135 139/139 128/128
f 140/140 142/142 141/141
f 539/539 141/141 142/142
f 540/540 541/541 143/143
f 542/542 143/143 541/541
f 137/137 538/538 143/143
f 540/540 143/143 538/538
f 126/126 543/543 135/135
f 144/144 145/145 138/138
f 544/544 138/138 145/145
f 136/136 138/138 544/544
f 125/125 536/536 133/133
f 545/545 544/544 145/145
f 145/145 141/141 545/545
f 546/546 539/539 142/142
f 108/108 547/547 107/107
f 547/547 108/108 94/94
f 141/141 539/539 545/545
f 138/138 146/146 144/144
f 146/146 138/138 137/137
f 143/143 146/146 137/137
f 146/146 143/143 147/147
f 542/542 147/147 143/143
f 147/147 542/542 548/548
f 95/95 96/96 108/108
f 113/113 148/148 106/106
f 112/112 113/113 105/105
f 104/104 105/105 113/113
f 535/535 549/549 148/148
f 97/97 95/95 109/109
f 543/543 119/119 131/131
f 149/149 127/127 122/122
f 130/130 118/118 129/129
f 106/106 148/148 150/150
f 148/148 113/113 535/535
f 93/93 108/108 96/96
f 94/94 108/108 93/93
f 126/126 119/119 543/543
f 149/149 122/122 123/123
f 132/132 117/117 120/120
f 118/118 550/550 129/129
f 117/117 132/132 107/107
f 111/111 112/112 537/537
f 107/107 547/547 116/116
f 99/99 104/104 106/106
f 106/106 104/104 113/113
f 105/105 99/99 123/123
f 99/99 149/149 123/123
f 93/93 96/96 151/151
f 97/97 151/151 96/96
f 132/132 152/152 95/95
f 109/109 110/110 153/153
f 127/127 128/128 122/122
f 119/119 126/126 121/121
f 120/120 121/121 152/152
f 120/120 130/130 119/119
f 130/130 120/120 117/117
f 117/117 118/118 130/130
f 107/107 116/116 117/117
f 537/537 114/114 536/536
f 106/106 155/155 154/154
f 98/98 106/106 154/154
f 106/106 150/150 155/155
f 100/100 98/98 156/156
f 157/157 158/158 156/156
f 97/97 160/160 159/159
f 160/160 97/97 109/109
f 161/161 97/97 159/159
f 97/97 161/161 151/151
f 109/109 156/156 160/160
f 158/158 160/160 156/156
f 154/154 157/157 98/98
f 157/157 156/156 98/98
f 109/109 153/153 156/156
f 160/160 162/162 159/159
f 177/177 162/162 160/160
f 161/161 159/159 162/162
f 162/162 164/164 161/161
f 157/157 165/165 163/163
f 165/165 157/157 176/176
f 177/177 160/160 158/158
f 163/163 158/158 157/157
f 155/155 166/166 154/154
f 176/176 154/154 166/166
f 551/551 552/552 167/167
f 167/167 179/179 551/551
f 553/553 554/554 169/169
f 169/169 170/170 553/553
f 555/555 556/556 171/171
f 555/555 169/169 554/554
f 556/556 557/557 171/171
f 168/168 171/171 557/557
f 172/172 173/173 101/101
f 172/172 101/101 102/102
f 174/174 126/126 127/127
f 101/101 173/173 175/175
f 132/132 120/120 152/152
f 95/95 152/152 110/110
f 126/126 174/174 121/121
f 100/100 149/149 99/99
f 156/156 153/153 100/100
f 153/153 103/103 100/100
f 103/103 153/153 102/102
f 100/100 101/101 149/149
f 101/101 100/100 103/103
f 110/110 102/102 153/153
f 149/149 175/175 127/127
f 175/175 149/149 101/101
f 152/152 102/102 110/110
f 102/102 152/152 172/172
f 121/121 172/172 152/152
f 172/172 121/121 173/173
f 175/175 173/173 174/174
f 174/174 127/127 175/175
f 174/174 173/173 121/121
f 157/157 154/154 176/176
f 557/557 551/551 179/179
f 178/178 169/169 555/555
f 163/163 177/177 158/158
f 555/555 171/171 178/178
f 179/179 168/168 557/557
f 186/186 187/187 210/210
f 205/205 558/558 559/559
f 559/559 189/189 205/205
f 190/190 207/207 206/206
f 188/188 205/205 189/189
f 208/208 207/207 190/190
f 181/181 180/180 204/204
f 192/192 194/194 203/203
f 199/199 560/560 561/561
f 562/562 198/198 189/189
f 202/202 196/196 201/201
f 196/196 193/193 190/190
f 188/188 189/189 198/198
f 182/182 184/184 200/200
f 188/188 196/196 190/190
f 201/201 200/200 184/184
f 203/203 202/202 183/183
f 202/202 203/203 194/194
f 195/195 194/194 192/192
f 559/559 562/562 189/189
f 193/193 191/191 190/190
f 191/191 193/193 195/195
f 192/192 187/187 195/195
f 195/195 186/186 191/191
f 193/193 194/194 195/195
f 187/187 186/186 195/195
f 200/200 201/201 196/196
f 202/202 201/201 183/183
f 196/196 188/188 197/197
f 198/198 197/197 188/188
f 561/561 182/182 199/199
f 200/200 199/199 182/182
f 197/197 198/198 199/199
f 560/560 199/199 198/198
f 196/196 197/197 200/200
f 199/199 200/200 197/197
f 184/184 185/185 201/201
f 201/201 185/185 183/183
f 194/194 193/193 202/202
f 193/193 196/196 202/202
f 183/183 181/181 203/203
f 204/204 203/203 181/181
f 198/198 562/562 560/560
f 203/203 204/204 192/192
f 188/188 206/206 205/205
f 190/190 206/206 188/188
f 190/190 191/191 208/208
f 209/209 208/208 191/191
f 191/191 186/186 209/209
f 210/210 209/209 186/186
f 563/563 564/564 211/211
f 212/212 213/213 214/214
f 215/215 216/216 217/217
f 218/218 219/219 220/220
f 216/216 221/221 222/222
f 223/223 216/216 215/215
f 212/212 224/224 225/225
f 226/226 227/227 212/212
f 228/228 229/229 230/230
f 228/228 230/230 565/565
f 229/229 231/231 232/232
f 232/232 222/222 229/229
f 233/233 234/234 235/235
f 236/236 237/237 238/238
f 232/232 239/239 240/240
f 240/240 222/222 232/232
f 566/566 241/241 242/242
f 231/231 229/229 567/567
f 243/243 244/244 245/245
f 246/246 247/247 248/248
f 236/236 248/248 247/247
f 212/212 249/249 224/224
f 250/250 251/251 232/232
f 232/232 231/231 250/250
f 232/232 251/251 245/245
f 245/245 239/239 232/232
f 245/245 252/252 243/243
f 250/250 231/231 566/566
f 568/568 253/253 254/254
f 255/255 254/254 253/253
f 251/251 250/250 256/256
f 242/242 256/256 250/250
f 251/251 256/256 245/245
f 252/252 245/245 256/256
f 257/257 258/258 259/259
f 569/569 259/259 258/258
f 570/570 260/260 571/571
f 572/572 571/571 260/260
f 254/254 260/260 568/568
f 570/570 568/568 260/260
f 243/243 252/252 573/573
f 261/261 255/255 262/262
f 574/574 262/262 255/255
f 253/253 574/574 255/255
f 242/242 250/250 566/566
f 575/575 262/262 574/574
f 262/262 575/575 258/258
f 576/576 259/259 569/569
f 225/225 224/224 577/577
f 577/577 211/211 225/225
f 258/258 575/575 569/569
f 255/255 261/261 263/263
f 263/263 254/254 255/255
f 260/260 254/254 263/263
f 263/263 264/264 260/260
f 572/572 260/260 264/264
f 264/264 578/578 572/572
f 212/212 225/225 213/213
f 230/230 223/223 579/579
f 229/229 222/222 230/230
f 221/221 230/230 222/222
f 565/565 579/579 580/580
f 214/214 226/226 212/212
f 573/573 248/248 236/236
f 265/265 239/239 244/244
f 247/247 246/246 235/235
f 223/223 581/581 579/579
f 579/579 565/565 230/230
f 564/564 213/213 225/225
f 211/211 564/564 225/225
f 243/243 573/573 236/236
f 265/265 240/240 239/239
f 249/249 237/237 234/234
f 235/235 246/246 582/582
f 234/234 224/224 249/249
f 228/228 567/567 229/229
f 224/224 233/233 577/577
f 216/216 223/223 221/221
f 223/223 230/230 221/221
f 222/222 240/240 216/216
f 216/216 240/240 265/265
f 564/564 583/583 213/213
f 214/214 213/213 583/583
f 249/249 212/212 266/266
f 226/226 267/267 227/227
f 244/244 239/239 245/245
f 236/236 238/238 243/243
f 237/237 266/266 238/238
f 237/237 236/236 247/247
f 247/247 234/234 237/237
f 234/234 247/247 235/235
f 224/224 234/234 233/233
f 567/567 566/566 231/231
f 223/223 268/268 584/584
f 215/215 268/268 223/223
f 223/223 584/584 581/581
f 217/217 269/269 215/215
f 270/270 269/269 271/271
f 214/214 272/272 273/273
f 273/273 226/226 214/214
f 585/585 272/272 214/214
f 214/214 583/583 585/585
f 226/226 273/273 269/269
f 271/271 269/269 273/273
f 268/268 215/215 270/270
f 270/270 215/215 269/269
f 226/226 269/269 267/267
f 273/273 272/272 274/274
f 286/286 273/273 274/274
f 585/585 274/274 272/272
f 274/274 585/585 586/586
f 270/270 275/275 276/276
f 276/276 285/285 270/270
f 286/286 271/271 273/273
f 275/275 270/270 271/271
f 584/584 268/268 587/587
f 285/285 587/587 268/268
f 588/588 277/277 589/589
f 277/277 588/588 288/288
f 590/590 279/279 591/591
f 279/279 590/590 592/592
f 593/593 280/280 594/594
f 593/593 591/591 279/279
f 594/594 280/280 595/595
f 278/278 595/595 280/280
f 281/281 218/218 282/282
f 281/281 219/219 218/218
f 283/283 244/244 243/243
f 218/218 284/284 282/282
f 249/249 266/266 237/237
f 212/212 227/227 266/266
f 243/243 238/238 283/283
f 217/217 216/216 265/265
f 269/269 217/217 267/267
f 267/267 217/217 220/220
f 220/220 219/219 267/267
f 217/217 265/265 218/218
f 218/218 220/220 217/217
f 227/227 267/267 219/219
f 265/265 244/244 284/284
f 284/284 218/218 265/265
f 266/266 227/227 219/219
f 219/219 281/281 266/266
f 238/238 266/266 281/281
f 281/281 282/282 238/238
f 284/284 283/283 282/282
f 283/283 284/284 244/244
f 283/283 238/238 282/282
f 270/270 285/285 268/268
f 595/595 288/288 588/588
f 287/287 593/593 279/279
f 275/275 271/271 286/286
f 593/593 287/287 280/280
f 288/288 595/595 278/278
f 303/303 289/289 302/302
f 289/289 303/303 290/290
f 404/404 291/291 304/304
f 291/291 404/404 292/292
f 304/304 290/290 303/303
f 290/290 304/304 291/291
f 301/301 293/293 405/405
f 293/293 301/301 294/294
f 302/302 294/294 301/301
f 294/294 302/302 289/289
f 596/596 292/292 404/404
f 292/292 596/596 597/597
f 295/295 307/307 306/306
f 307/307 295/295 296/296
f 297/297 423/423 308/308
f 423/423 297/297 298/298
f 296/296 308/308 307/307
f 308/308 296/296 297/297
f 299/299 305/305 309/309
f 305/305 299/299 300/300
f 300/300 306/306 305/305
f 306/306 300/300 295/295
f 298/298 598/598 423/423
f 598/598 298/298 599/599
f 319/319 315/315 314/314
f 315/315 318/318 317/317
f 319/319 318/318 315/315
f 314/314 427/427 319/319
f 310/310 320/320 311/311
f 311/311 320/320 322/322
f 310/310 321/321 320/320
f 313/313 382/382 312/312
f 313/313 322/322 382/382
f 311/311 322/322 313/313
f 427/427 428/428 323/323
f 316/316 318/318 323/323
f 335/335 320/320 321/321
f 383/383 329/329 401/401
f 328/328 327/327 331/331
f 327/327 328/328 324/324
f 326/326 324/324 328/328
f 343/343 341/341 333/333
f 383/383 382/382 340/340
f 342/342 338/338 341/341
f 339/339 336/336 335/335
f 337/337 339/339 335/335
f 337/337 341/341 343/343
f 334/334 342/342 337/337
f 334/334 337/337 335/335
f 339/339 325/325 336/336
f 340/340 336/336 325/325
f 325/325 339/339 343/343
f 336/336 320/320 335/335
f 333/333 324/324 326/326
f 322/322 320/320 336/336
f 321/321 334/334 335/335
f 329/329 600/600 601/601
f 401/401 329/329 601/601
f 600/600 330/330 602/602
f 329/329 383/383 326/326
f 326/326 383/383 344/344
f 328/328 329/329 326/326
f 329/329 328/328 332/332
f 331/331 332/332 328/328
f 332/332 331/331 330/330
f 333/333 338/338 316/316
f 316/316 323/323 333/333
f 333/333 323/323 324/324
f 428/428 324/324 323/323
f 324/324 428/428 327/327
f 341/341 338/338 333/333
f 342/342 341/341 337/337
f 326/326 344/344 333/333
f 344/344 343/343 333/333
f 325/325 343/343 344/344
f 383/383 325/325 344/344
f 383/383 340/340 325/325
f 336/336 340/340 322/322
f 322/322 340/340 382/382
f 401/401 601/601 603/603
f 330/330 600/600 332/332
f 329/329 332/332 600/600
f 318/318 319/319 323/323
f 323/323 319/319 427/427
f 310/310 346/346 347/347
f 311/311 348/348 346/346
f 347/347 350/350 349/349
f 346/346 351/351 350/350
f 408/408 348/348 345/345
f 311/311 346/346 310/310
f 312/312 348/348 313/313
f 312/312 345/345 348/348
f 313/313 348/348 311/311
f 347/347 346/346 350/350
f 346/346 348/348 351/351
f 351/351 348/348 408/408
f 356/356 384/384 355/355
f 355/355 317/317 318/318
f 356/356 355/355 318/318
f 384/384 356/356 357/357
f 310/310 352/352 358/358
f 352/352 359/359 358/358
f 310/310 358/358 321/321
f 354/354 353/353 429/429
f 354/354 429/429 359/359
f 352/352 354/354 359/359
f 357/357 360/360 430/430
f 316/316 360/360 318/318
f 370/370 321/321 358/358
f 363/363 431/431 366/366
f 365/365 367/367 419/419
f 419/419 361/361 365/365
f 364/364 365/365 361/361
f 376/376 369/369 375/375
f 363/363 374/374 429/429
f 342/342 375/375 338/338
f 373/373 370/370 371/371
f 372/372 370/370 373/373
f 372/372 373/373 376/376
f 334/334 372/372 342/342
f 334/334 370/370 372/372
f 373/373 371/371 362/362
f 374/374 362/362 371/371
f 362/362 376/376 373/373
f 371/371 370/370 358/358
f 369/369 364/364 361/361
f 359/359 371/371 358/358
f 321/321 370/370 334/334
f 366/366 604/604 605/605
f 431/431 604/604 366/366
f 605/605 606/606 432/432
f 366/366 364/364 363/363
f 364/364 377/377 363/363
f 365/365 364/364 366/366
f 366/366 368/368 365/365
f 367/367 365/365 368/368
f 368/368 432/432 367/367
f 369/369 316/316 338/338
f 316/316 369/369 360/360
f 369/369 361/361 360/360
f 430/430 360/360 361/361
f 361/361 419/419 430/430
f 375/375 369/369 338/338
f 342/342 372/372 375/375
f 364/364 369/369 377/377
f 377/377 369/369 376/376
f 362/362 377/377 376/376
f 363/363 377/377 362/362
f 363/363 362/362 374/374
f 371/371 359/359 374/374
f 359/359 429/429 374/374
f 431/431 607/607 604/604
f 432/432 368/368 605/605
f 366/366 605/605 368/368
f 318/318 360/360 356/356
f 360/360 357/357 356/356
f 310/310 347/347 378/378
f 352/352 378/378 379/379
f 347/347 349/349 380/380
f 378/378 380/380 381/381
f 433/433 385/385 379/379
f 352/352 310/310 378/378
f 353/353 354/354 379/379
f 353/353 379/379 385/385
f 354/354 352/352 379/379
f 347/347 380/380 378/378
f 378/378 381/381 379/379
f 381/381 433/433 379/379
f 337/337 343/343 339/339
f 372/372 376/376 375/375
f 389/389 608/608 388/388
f 609/609 608/608 389/389
f 386/386 610/610 611/611
f 391/391 387/387 390/390
f 390/390 386/386 611/611
f 387/387 386/386 390/390
f 609/609 392/392 612/612
f 402/402 394/394 395/395
f 613/613 396/396 611/611
f 394/394 396/396 399/399
f 393/393 614/614 612/612
f 400/400 399/399 398/398
f 396/396 398/398 399/399
f 396/396 613/613 398/398
f 615/615 398/398 613/613
f 611/611 396/396 390/390
f 391/391 394/394 402/402
f 393/393 397/397 614/614
f 394/394 399/399 395/395
f 394/394 390/390 396/396
f 616/616 614/614 397/397
f 399/399 393/393 395/395
f 397/397 393/393 399/399
f 400/400 398/398 617/617
f 618/618 400/400 619/619
f 617/617 619/619 400/400
f 403/403 395/395 393/393
f 393/393 392/392 403/403
f 394/394 391/391 390/390
f 395/395 403/403 402/402
f 400/400 397/397 399/399
f 397/397 400/400 618/618
f 616/616 397/397 618/618
f 393/393 612/612 392/392
f 620/620 621/621 615/615
f 398/398 615/615 621/621
f 621/621 617/617 398/398
f 389/389 392/392 609/609
f 610/610 386/386 406/406
f 409/409 622/622 406/406
f 411/411 410/410 407/407
f 622/622 610/610 406/406
f 386/386 407/407 406/406
f 623/623 622/622 409/409
f 406/406 407/407 410/410
f 406/406 410/410 409/409
f 386/386 387/387 407/407
f 388/388 624/624 389/389
f 389/389 624/624 625/625
f 626/626 627/627 412/412
f 413/413 387/387 391/391
f 626/626 412/412 413/413
f 413/413 412/412 387/387
f 628/628 392/392 625/625
f 416/416 415/415 402/402
f 626/626 417/417 629/629
f 421/421 417/417 415/415
f 628/628 630/630 414/414
f 420/420 421/421 422/422
f 421/421 420/420 417/417
f 420/420 629/629 417/417
f 629/629 420/420 631/631
f 413/413 417/417 626/626
f 402/402 415/415 391/391
f 630/630 418/418 414/414
f 416/416 421/421 415/415
f 417/417 413/413 415/415
f 418/418 630/630 632/632
f 416/416 414/414 421/421
f 421/421 414/414 418/418
f 633/633 420/420 422/422
f 634/634 422/422 635/635
f 422/422 634/634 633/633
f 414/414 416/416 403/403
f 403/403 392/392 414/414
f 413/413 391/391 415/415
f 402/402 403/403 416/416
f 421/421 418/418 422/422
f 635/635 422/422 418/418
f 635/635 418/418 632/632
f 392/392 628/628 414/414
f 631/631 636/636 637/637
f 636/636 631/631 420/420
f 420/420 633/633 636/636
f 625/625 392/392 389/389
f 424/424 412/412 627/627
f 424/424 638/638 425/425
f 407/407 426/426 411/411
f 424/424 627/627 638/638
f 424/424 407/407 412/412
f 425/425 638/638 639/639
f 426/426 407/407 424/424
f 425/425 426/426 424/424
f 407/407 387/387 412/412
f 434/434 436/436 435/435
f 437/437 438/438 436/436
f 435/435 440/440 439/439
f 435/435 441/441 440/440
f 436/436 442/442 441/441
f 435/435 436/436 441/441
f 438/438 443/443 436/436
f 436/436 443/443 442/442
f 444/444 446/446 445/445
f 440/440 441/441 444/444
f 441/441 442/442 447/447
f 448/448 449/449 447/447
f 448/448 447/447 450/450
f 450/450 447/447 442/442
f 450/450 442/442 443/443
f 437/437 436/436 434/434
f 441/441 447/447 444/444
f 447/447 446/446 444/444
f 449/449 446/446 447/447
f 640/640 451/451 641/641
f 642/642 451/451 640/640
f 643/643 451/451 642/642
f 644/644 451/451 645/645
f 646/646 451/451 643/643
f 647/647 451/451 648/648
f 641/641 451/451 649/649
f 645/645 451/451 646/646
f 648/648 451/451 644/644
f 452/452 454/454 453/453
f 437/437 453/453 438/438
f 454/454 456/456 455/455
f 457/457 456/456 454/454
f 453/453 455/455 458/458
f 454/454 455/455 453/453
f 453/453 458/458 443/443
f 453/453 443/443 438/438
f 459/459 461/461 460/460
f 456/456 459/459 455/455
f 455/455 460/460 458/458
f 448/448 460/460 462/462
f 448/448 450/450 460/460
f 450/450 458/458 460/460
f 450/450 443/443 458/458
f 437/437 452/452 453/453
f 455/455 459/459 460/460
f 459/459 463/463 461/461
f 462/462 460/460 461/461
f 650/650 651/651 451/451
f 652/652 650/650 451/451
f 653/653 652/652 451/451
f 654/654 655/655 451/451
f 656/656 653/653 451/451
f 647/647 657/657 451/451
f 651/651 649/649 451/451
f 655/655 656/656 451/451
f 657/657 654/654 451/451
f 464/464 465/465 466/466
f 467/467 466/466 468/468
f 465/465 469/469 470/470
f 465/465 470/470 471/471
f 466/466 471/471 472/472
f 465/465 471/471 466/466
f 468/468 466/466 473/473
f 466/466 472/472 473/473
f 474/474 475/475 476/476
f 470/470 474/474 471/471
f 471/471 477/477 472/472
f 478/478 477/477 479/479
f 478/478 480/480 477/477
f 480/480 472/472 477/477
f 480/480 473/473 472/472
f 467/467 464/464 466/466
f 471/471 474/474 477/477
f 477/477 474/474 476/476
f 479/479 477/477 476/476
f 658/658 659/659 481/481
f 660/660 658/658 481/481
f 661/661 660/660 481/481
f 662/662 663/663 481/481
f 664/664 661/661 481/481
f 665/665 666/666 481/481
f 659/659 667/667 481/481
f 663/663 664/664 481/481
f 666/666 662/662 481/481
f 482/482 483/483 484/484
f 467/467 468/468 483/483
f 484/484 485/485 486/486
f 487/487 484/484 486/486
f 483/483 488/488 485/485
f 484/484 483/483 485/485
f 483/483 473/473 488/488
f 483/483 468/468 473/473
f 489/489 490/490 491/491
f 486/486 485/485 489/489
f 485/485 488/488 490/490
f 478/478 492/492 490/490
f 478/478 490/490 480/480
f 480/480 490/490 488/488
f 480/480 488/488 473/473
f 467/467 483/483 482/482
f 485/485 490/490 489/489
f 489/489 491/491 493/493
f 492/492 491/491 490/490
f 668/668 481/481 669/669
f 670/670 481/481 668/668
f 671/671 481/481 670/670
f 672/672 481/481 673/673
f 674/674 481/481 671/671
f 665/665 481/481 675/675
f 669/669 481/481 667/667
f 673/673 481/481 674/674
f 675/675 481/481 672/672
