# MOD converted: h_w_costume_sexy_body.mod
# 632 verts, 882 faces

v 95.766113 -10.010625 9.020425
v 95.961227 -6.312779 9.139211
v 89.931999 -5.578329 4.911951
v 114.166000 -0.780686 5.009039
v 122.611061 2.854041 4.507287
v 120.603065 -1.682564 5.190432
v 116.123787 3.936414 4.593218
v 97.754234 -14.008791 11.720251
v 109.321304 -2.920323 8.871178
v 105.198456 -12.362543 6.021073
v 109.733833 -6.548168 3.775733
v 103.716835 -14.353377 11.255812
v 98.392807 -7.137446 9.170083
v 101.813194 -13.672645 9.092955
v 97.867409 -12.555519 4.410618
v 101.344559 -15.160551 12.035363
v 102.045670 -7.786575 10.591958
v 106.085899 -6.183892 5.104714
v 119.376976 3.389290 4.722052
v 117.401566 -1.217566 2.492949
v 106.849236 -11.198154 7.046658
v 107.386398 -9.616454 10.556473
v 97.156067 -3.174993 11.190569
v 99.090225 -0.641696 12.527127
v 102.608208 -3.550358 11.591417
v 98.811729 -3.436594 12.441093
v 113.079453 -0.658880 12.825499
v 114.110039 3.984878 8.773780
v 113.233978 -0.282758 -0.000000
v 123.522591 5.340424 11.648851
v 106.740547 -1.843054 6.550327
v 104.349777 -14.410534 0.000000
v 116.269226 -3.734433 8.350563
v 86.881310 6.478629 6.468091
v 83.029060 -8.719877 5.100181
v 89.665199 -9.081161 11.137115
v 83.849693 -5.783061 9.469942
v 81.218185 10.130220 13.057568
v 80.592056 5.816024 12.528815
v 85.003563 -0.715822 15.335315
v 79.429596 -0.286832 7.402311
v 76.891602 -7.977250 13.235616
v 78.093903 -5.622667 1.243899
v 70.646599 0.660653 9.961873
v 76.590340 10.743953 10.322344
v 72.239243 9.539140 16.851688
v 73.014008 0.138619 14.588887
v 72.966904 -6.396287 8.209991
v 72.508202 -8.374347 2.996950
v 71.353836 8.752326 14.426938
v 75.254913 5.596508 2.282391
v 71.561203 -5.865000 0.000000
v 75.876892 -8.470740 10.173702
v 90.267517 -0.895707 7.360450
v 90.654503 4.415300 10.130866
v 96.404091 -0.764116 7.516100
v 96.714981 4.846415 6.223100
v 103.535759 9.212321 10.387199
v 103.501076 7.050846 11.502800
v 103.423241 -0.475331 8.652481
v 114.818039 4.075338 9.353424
v 109.504013 -4.373149 14.647082
v 72.594482 5.196907 4.414881
v 81.246353 11.351399 4.006495
v 76.280945 11.695966 5.200336
v 105.457031 -13.280457 1.377170
v 68.198395 0.668674 10.589925
v 69.791031 9.950012 17.188623
v 70.565811 0.122889 14.983970
v 70.532990 -6.498035 8.625555
v 70.059998 -8.704984 3.244966
v 68.905640 8.660136 2.349148
v 69.116081 -6.153072 14.987392
v 70.146278 5.410755 15.430996
v 60.917095 -6.186742 17.339802
v 60.885479 1.740326 9.634028
v 60.585098 -8.788695 4.611197
v 60.173401 8.396198 12.256500
v 60.735001 8.265580 2.262650
v 59.748993 1.097802 3.599488
v 60.123795 -5.908007 5.554136
v 48.629494 -5.419727 10.569797
v 49.151699 -7.550950 4.512319
v 47.441299 1.563494 6.914860
v 47.551697 7.601021 16.702101
v 48.443192 2.114958 12.697800
v 48.166504 7.455450 15.246095
v 49.652096 -4.881311 6.143130
v 45.318398 -4.985740 4.895458
v 44.634899 1.578637 15.306399
v 46.417301 -4.494491 12.921600
v 46.202698 7.492740 7.014109
v 45.823803 7.658530 10.970900
v 45.770500 -7.273841 16.873400
v 45.863098 2.165928 14.372302
v 35.918503 9.240403 18.503405
v 35.618698 3.077837 11.302197
v 42.378899 -6.217441 6.830048
v 42.601891 -4.381608 15.638996
v 43.370201 -3.694330 4.990849
v 34.116600 2.656087 6.671240
v 20.483200 3.588788 9.189460
v 20.484205 -4.618872 7.779897
v 35.585098 9.489620 17.271500
v 20.485104 -4.281380 19.047203
v 20.485804 4.294417 15.818403
v 20.485001 9.062571 8.996699
v 20.483406 8.895572 1.665680
v 70.646599 0.660652 10.322344
v 72.239243 9.539140 16.458000
v 73.014008 0.138617 14.195200
v 72.966904 -6.194990 8.209989
v 72.508202 -7.909711 3.296190
v 71.353844 8.305250 2.635960
v 71.561203 -5.864998 14.253394
v 72.594482 5.196905 -0.000000
v 81.274033 10.436188 7.475301
v 90.911308 -13.441614 7.311801
v 95.766121 -14.371078 14.875190
v 91.188683 -6.285863 14.400509
v 95.979431 -6.437114 14.640518
v 96.404091 -0.764121 15.038713
v 91.493187 -0.895701 14.720316
v 101.179222 -6.980230 7.039283
v 101.813194 -14.831547 6.524122
v 104.257088 -14.659047 13.938348
v 114.507538 -1.176194 4.567679
v 113.895599 -1.565771 5.384863
v 108.726448 -7.824162 13.293421
v 111.301460 -3.966090 14.327116
v 106.535370 -7.163554 16.653282
v 107.614258 -3.125426 14.330508
v 115.972878 4.073181 4.757658
v 115.523071 3.936414 14.835608
v 101.068916 -0.584897 15.796265
v 113.016441 -0.657616 16.400963
v 114.349411 3.983832 18.199574
v 113.141273 7.891450 16.571850
v 106.970886 10.424305 14.118710
v 107.655083 10.835370 15.687856
v 113.538216 9.230415 18.032412
v 112.665077 -0.190397 14.488159
v 101.135132 7.427758 26.009609
v 102.797287 8.941388 24.942682
v 97.068520 6.167182 25.138767
v 97.269691 -0.163345 29.257496
v 106.963890 -0.490511 27.262903
v 102.221527 -2.741113 29.420425
v 107.175087 6.055636 41.619644
v 95.833427 12.470163 37.510708
v 87.744598 7.653684 32.861969
v 93.867592 5.500975 35.394485
v 98.840149 8.434031 27.778536
v 95.836388 5.699028 31.125446
v 100.425537 8.697633 27.876253
v 95.975220 -0.222391 37.809875
v 103.377403 5.891861 32.065254
v 105.921188 6.041462 31.956408
v 105.672638 -0.566162 37.637875
v 103.313606 -1.110934 37.239452
v 87.620903 -2.870931 41.013653
v 95.679008 -8.216908 35.365734
v 98.659706 -3.437996 33.017792
v 93.813156 -0.526795 28.738342
v 101.656441 8.968849 30.000523
v 100.927399 -2.866173 45.446388
v 103.762680 8.140872 45.218441
v 103.819374 -3.882146 46.068504
v 93.605148 1.983935 9.371554
v 91.880180 8.700994 15.771899
v 87.330940 -0.715818 9.667228
v 88.183060 9.339537 7.518790
v 86.038544 -13.309151 15.537786
v 86.611641 -5.783058 9.683287
v 96.714981 8.309100 10.088490
v 101.957726 9.214082 -0.000001
v 102.264862 12.286641 10.724541
v 108.445053 10.941625 11.340127
v 114.532135 10.363275 32.862389
v 92.156250 6.502861 36.026421
v 98.437904 10.340552 39.048790
v 104.569359 6.842733 38.748951
v 104.566742 -2.091156 35.674309
v 98.413101 -5.376290 32.840549
v 92.132103 -1.482691 48.553196
v 98.879768 -2.048375 48.897110
v 98.617546 6.052553 46.505341
v 93.457047 8.701214 43.896374
v 88.258835 5.701866 43.488197
v 88.110275 -1.242239 45.854408
v 93.381058 -4.928325 11.686848
v 106.418884 -10.748710 11.712625
v 102.104553 -12.244705 11.376703
v 95.874809 -11.345194 11.531458
v 91.023758 -10.938628 11.986351
v 86.320847 -10.593755 5.045202
v 113.513977 11.168791 4.904584
v 108.851906 12.544955 4.607430
v 102.124268 11.936639 4.264217
v 96.960495 10.398828 4.020624
v 91.965134 10.559313 3.926015
v 88.475792 11.651160 14.766347
v 108.867035 -3.817813 10.493328
v 101.922928 -14.639763 7.886045
v 101.858170 -17.928125 9.591088
v 102.122498 -16.481749 10.601493
v 107.787262 -13.387136 11.995448
v 113.319550 -7.900488 12.493245
v 118.131981 -2.185091 12.836216
v 120.559402 3.976295 10.645378
v 119.814323 8.948668 5.621302
v 119.909691 10.913510 6.725867
v 123.340126 4.423268 6.998174
v 119.208534 -3.490138 7.637752
v 114.710335 -10.323563 7.779029
v 107.979950 -15.670028 13.303157
v 96.576714 5.254001 13.071490
v 91.711876 5.584055 13.421558
v 87.796455 6.188057 0.000000
v 89.524597 -10.437300 0.000000
v 116.894112 6.256157 0.000000
v 70.360901 0.610696 0.000000
v 71.171677 -5.939043 -0.000000
v 92.028976 11.161152 -0.000001
v 108.664520 12.538044 33.724964
v 90.511803 6.933442 37.428360
v 97.832039 11.147739 36.947815
v 97.747932 -6.537111 33.586746
v 90.440712 -2.058108 40.645481
v 105.020866 -2.835870 40.921623
v 104.996071 7.333502 48.082573
v 101.344299 -3.432908 48.413536
v 101.148361 7.566361 45.032684
v 94.011383 11.354408 41.376259
v 86.773369 7.106231 40.983101
v 86.618248 -2.427528 44.322227
v 93.888161 -7.372361 -5.100180
v 89.665199 -9.081162 -4.572058
v 95.766113 -10.010625 0.000000
v 97.372078 -11.353597 -9.139210
v 89.931999 -5.578332 -9.020426
v 95.961227 -6.312778 -10.130866
v 96.404091 -0.764116 -10.173702
v 90.267517 -0.895707 -5.104715
v 119.376976 3.389290 -4.722052
v 117.401566 -1.217567 -4.911950
v 114.166000 -0.780687 -5.190432
v 116.123787 3.936414 -0.000000
v 120.207825 5.798121 0.000001
v 119.354492 -4.180037 -4.507286
v 120.603065 -1.682565 -0.000000
v 113.184036 -3.289021 -4.593217
v 97.754234 -14.008793 -12.527126
v 102.610779 -3.552084 -12.035362
v 102.045670 -7.786575 -11.255812
v 98.392807 -7.137447 -11.591417
v 98.811729 -3.436594 0.000000
v 103.229156 -12.843537 -3.775726
v 103.716835 -14.353378 -2.492949
v 106.849236 -11.198154 0.000000
v 106.038635 -10.835776 -9.170082
v 101.813194 -13.672645 -4.410618
v 101.344559 -15.160551 -9.092953
v 97.867409 -12.555521 -6.550322
v 104.349777 -14.410535 0.000000
v 99.673714 -14.039227 -8.871177
v 105.198456 -12.362544 -8.773780
v 113.236351 -0.279982 -6.021075
v 109.734772 -6.548192 -9.353424
v 109.507599 -4.372833 -11.720251
v 109.324165 -2.919698 -10.591958
v 106.086891 -6.184103 -11.648851
v 106.742889 -1.843550 -0.000000
v 108.791061 -7.176801 -8.652481
v 114.817154 4.079120 -7.046657
v 107.386398 -9.616454 -10.556473
v 97.156067 -3.174995 -5.009040
v 122.611053 2.854041 -5.200335
v 105.457039 -13.280456 -11.190569
v 99.090225 -0.641695 -11.502800
v 103.424583 -0.476911 -12.441092
v 113.082100 -0.655299 -12.825499
v 114.109222 3.989227 -7.360450
v 90.654503 4.415300 -12.528815
v 85.003563 -0.715822 -8.350563
v 86.881310 6.478629 0.000000
v 82.706001 -10.198400 -6.468090
v 83.029060 -8.719878 -11.137115
v 83.849693 -5.783060 -0.000000
v 90.803299 5.818110 -0.000000
v 87.374214 7.536327 -9.469941
v 81.218185 10.130221 -13.057568
v 80.592056 5.816024 -15.335315
v 79.429596 -0.286838 -7.402311
v 76.891602 -7.977250 -13.235616
v 78.093903 -5.622668 -4.414881
v 81.246353 11.351398 -1.243899
v 70.646599 0.660653 0.000000
v 72.279984 7.044326 -2.996949
v 71.353844 8.752325 -0.000000
v 76.051041 10.610720 -4.006495
v 76.280945 11.695966 -8.209988
v 72.508202 -8.374346 -14.588887
v 72.966904 -6.396287 -10.322344
v 72.239243 9.539140 -9.961873
v 76.590340 10.743953 -14.426937
v 75.254913 5.596508 -14.647082
v 72.594482 5.196908 -16.851690
v 73.014008 0.138634 -2.282391
v 71.561203 -5.865000 -7.516099
v 96.714981 4.846415 -0.000000
v 97.153694 6.958276 -10.387200
v 103.499413 7.049146 -6.223099
v 103.535187 9.211805 -0.000000
v 103.539375 9.238218 -14.983972
v 70.532990 -6.498034 -17.188620
v 70.565811 0.122994 -8.625556
v 70.059998 -8.704986 -10.589923
v 69.791031 9.950012 -3.244967
v 68.905640 8.660136 -1.377170
v 68.198395 0.668675 -2.349148
v 69.116081 -6.153071 -14.987391
v 70.146278 5.410755 -16.458000
v 73.014008 0.138631 -14.195200
v 72.966904 -6.194990 -15.430996
v 60.917095 -6.186741 -17.339798
v 60.885479 1.740327 -8.209988
v 72.508202 -7.909711 -9.634030
v 60.585091 -8.788697 -3.296190
v 71.353844 8.305249 -10.322344
v 72.239243 9.539140 -12.256500
v 60.735001 8.265580 -4.611198
v 60.173401 8.396197 -2.635961
v 71.561203 -5.864998 -1.665680
v 70.646599 0.660652 -2.262650
v 59.748993 1.097805 -3.599491
v 60.123795 -5.908009 -5.554138
v 48.629494 -5.419729 -10.569798
v 49.151695 -7.550949 -4.512319
v 47.441299 1.563496 -6.914860
v 47.551697 7.601020 -16.702101
v 48.443192 2.114958 -12.697800
v 48.166504 7.455450 -15.246097
v 49.652096 -4.881310 -6.143131
v 45.318398 -4.985741 -4.895458
v 44.634899 1.578637 -15.306400
v 46.417297 -4.494491 -12.921600
v 46.202698 7.492739 -7.014109
v 45.823803 7.658530 -10.970900
v 45.770500 -7.273841 -16.873400
v 45.863098 2.165927 -14.372302
v 35.918503 9.240402 -18.503405
v 35.618698 3.077837 -11.302200
v 42.378899 -6.217441 -6.830048
v 42.601891 -4.381609 -15.638998
v 43.370201 -3.694330 -4.990848
v 34.116600 2.656088 -6.671240
v 20.483202 3.588790 -9.189460
v 20.484205 -4.618872 -7.779897
v 35.585098 9.489620 -17.271500
v 20.485106 -4.281382 -19.047203
v 20.485802 4.294417 -15.818404
v 20.485001 9.062570 -8.996699
v 20.483404 8.895573 -14.253395
v 72.594482 5.196906 -11.531456
v 91.023758 -10.938632 -14.875188
v 91.188683 -6.285868 -14.400509
v 95.979431 -6.437114 -11.376703
v 95.874809 -11.345194 -14.640518
v 96.404091 -0.764121 -15.038713
v 91.493195 -0.895701 -14.835610
v 101.071220 -0.588148 -14.720316
v 101.179222 -6.980231 -11.712622
v 102.104553 -12.244709 -14.327114
v 106.536469 -7.163590 -11.686850
v 106.418884 -10.748707 -12.493246
v 118.135025 -2.179568 -6.998171
v 119.208527 -3.490138 -7.637751
v 114.711655 -10.323103 -11.995445
v 113.323860 -7.898552 -12.836215
v 120.558754 3.983157 -6.725866
v 123.340126 4.423269 -7.779027
v 107.979950 -15.670028 -10.601492
v 107.787262 -13.387136 -14.330507
v 115.971992 4.079119 -13.938348
v 114.510574 -1.171309 -15.796265
v 113.017845 -0.655300 -16.400963
v 114.348602 3.989227 -18.199572
v 113.139305 7.894125 -16.571848
v 106.967903 10.424636 -14.118710
v 107.651939 10.835613 -15.687855
v 113.535713 9.232900 -16.653280
v 107.616646 -3.124863 -18.032412
v 112.666298 -0.187908 -14.488160
v 101.132111 7.424467 -26.009609
v 102.797310 8.941387 -24.942682
v 97.068542 6.167205 -25.138767
v 97.269676 -0.163327 -29.257496
v 106.963882 -0.490533 -27.262903
v 102.221504 -2.741115 -29.420425
v 107.175087 6.055611 -41.619644
v 95.833435 12.470165 -37.510696
v 87.744598 7.653678 -33.724953
v 90.511772 6.933455 -37.428360
v 97.832047 11.147776 -27.778528
v 95.836380 5.699028 -31.125433
v 100.425522 8.697631 -35.394470
v 98.840134 8.434031 -32.861965
v 93.867592 5.500970 -27.876257
v 95.975220 -0.222388 -37.809872
v 103.377403 5.891864 -32.065250
v 105.921181 6.041458 -31.956413
v 105.672623 -0.566166 -37.637878
v 103.313606 -1.110930 -37.239456
v 87.620903 -2.870940 -41.013664
v 95.679016 -8.216909 -36.947819
v 97.747932 -6.537150 -33.586735
v 90.440674 -2.058135 -28.738338
v 101.656464 8.968848 -35.365734
v 98.659691 -3.437997 -30.000523
v 100.927383 -2.866174 -45.446384
v 103.762680 8.140877 -45.218445
v 103.819374 -3.882141 -48.082581
v 101.344299 -3.432905 -48.413528
v 101.148354 7.566366 -33.017796
v 93.813156 -0.526801 -40.645496
v 105.020897 -2.835888 -40.921631
v 104.996101 7.333526 -45.032677
v 94.011383 11.354408 -41.376255
v 86.773376 7.106229 -40.983109
v 86.618248 -2.427531 -44.322235
v 93.888168 -7.372362 -9.371552
v 91.880180 8.700994 -13.071490
v 91.711876 5.584055 -13.421559
v 87.796455 6.188056 -9.667229
v 88.183060 9.339537 -11.986348
v 86.320847 -10.593759 -15.537786
v 86.611641 -5.783062 -4.020624
v 91.965134 10.559313 -3.926015
v 88.475792 11.651160 -0.000000
v 88.675957 12.080710 -15.771899
v 87.330940 -0.715820 -9.683287
v 96.714981 8.309100 -13.303156
v 96.576714 5.254003 -0.000000
v 97.153694 11.328827 -4.264216
v 96.960495 10.398828 -4.607428
v 102.123428 11.935958 -4.904583
v 108.849236 12.544568 -10.088489
v 101.955200 9.211806 -10.724542
v 108.440247 10.941730 -10.645376
v 119.811127 8.953985 -11.340127
v 114.526566 10.367528 0.000000
v 113.221649 11.261322 -5.045203
v 113.507767 11.170817 -13.293421
v 111.306580 -3.963456 -14.766346
v 108.869690 -3.817067 -36.026417
v 98.437920 10.340569 -32.862381
v 92.156235 6.502864 -39.048794
v 104.569374 6.842747 -38.748966
v 104.566757 -2.091163 -35.674301
v 98.413086 -5.376308 -32.840549
v 92.132088 -1.482707 -46.068504
v 93.605148 1.983935 -48.897110
v 98.617546 6.052555 -48.553200
v 98.879768 -2.048373 -46.505333
v 93.457047 8.701214 -43.896370
v 88.258835 5.701860 -43.488197
v 88.110283 -1.242242 -45.854408
v 93.381058 -4.928326 -7.886042
v 101.858185 -17.928127 -9.591084
v 102.122498 -16.481752 -7.311800
v 95.766121 -14.371078 -7.475298
v 90.911308 -13.441617 -7.518790
v 86.038544 -13.309151 -5.621301
v 119.909691 10.913512 0.000000
v 120.133827 12.160548 -0.000000
v 123.972275 6.536509 -10.493327
v 101.922928 -14.639764 -7.039282
v 101.813194 -14.831547 -0.000000
v 117.689178 7.146698 -4.757657
v 115.523071 3.936414 -4.567680
v 113.895599 -1.565770 -5.384860
v 108.727516 -7.824299 -6.524121
v 104.257088 -14.659046 8.350563
v 86.881310 6.478629 12.528815
v 85.003563 -0.715822 0.000000
v 82.706001 -10.198400 6.468091
v 83.029060 -8.719877 11.137115
v 83.849693 -5.783061 -0.000000
v 87.374214 7.536327 1.243899
v 70.646599 0.660653 0.000000
v 70.360901 0.610696 1.377170
v 68.198395 0.668674 8.625555
v 70.059998 -8.704984 1.377170
v 68.198395 0.668674 2.349148
v 69.116081 -6.153072 10.589925
v 69.791031 9.950012 3.244966
v 68.905640 8.660136 17.188623
v 70.565811 0.122889 14.987392
v 70.146278 5.410755 14.983970
v 70.532990 -6.498035 2.262650
v 59.748993 1.097802 4.512319
v 47.441299 1.563494 4.895458
v 44.634899 1.578637 4.990849
v 34.116600 2.656087 1.665680
v 70.646599 0.660652 6.671240
v 20.483200 3.588788 14.835608
v 101.068916 -0.584897 25.138767
v 97.269691 -0.163345 27.876253
v 95.975220 -0.222391 33.724964
v 90.511803 6.933442 37.510708
v 87.744598 7.653684 33.017792
v 93.813156 -0.526795 41.376259
v 86.773369 7.106231 32.861969
v 93.867592 5.500975 35.394485
v 98.840149 8.434031 37.809875
v 103.377403 5.891861 37.637875
v 103.313606 -1.110934 35.365734
v 98.659706 -3.437996 33.017792
v 93.813156 -0.526795 32.862389
v 92.156250 6.502861 32.861969
v 93.867592 5.500975 7.311801
v 95.766121 -14.371078 10.493328
v 101.922928 -14.639763 11.686848
v 106.418884 -10.748710 13.293421
v 111.301460 -3.966090 13.938348
v 114.507538 -1.176194 14.330508
v 115.972878 4.073181 11.340127
v 114.532135 10.363275 5.045202
v 113.513977 11.168791 0.000000
v 113.221649 11.261322 13.303157
v 96.576714 5.254001 14.488159
v 101.135132 7.427758 13.071490
v 91.711876 5.584055 13.421558
v 87.796455 6.188057 48.553196
v 98.879768 -2.048375 48.897110
v 98.617546 6.052553 43.896374
v 88.258835 5.701866 46.505341
v 93.457047 8.701214 43.488197
v 88.110275 -1.242239 45.854408
v 93.381058 -4.928325 43.896374
v 88.258835 5.701866 0.000000
v 89.524597 -10.437300 0.000000
v 97.372078 -11.353597 -0.000000
v 120.207825 5.798121 0.000000
v 116.894112 6.256157 0.000001
v 119.354492 -4.180037 0.000000
v 116.269226 -3.734433 -0.000000
v 113.184036 -3.289021 0.000000
v 103.229156 -12.843537 0.000000
v 106.038635 -10.835776 0.000000
v 99.673714 -14.039227 -0.000000
v 108.791061 -7.176801 -0.000000
v 123.522591 5.340424 0.000000
v 82.706001 -10.198400 -0.000000
v 87.374214 7.536327 -0.000000
v 90.803299 5.818110 -8.350563
v 86.881310 6.478629 -12.528815
v 85.003563 -0.715822 0.000000
v 82.706001 -10.198400 -6.468090
v 83.029060 -8.719878 0.000000
v 75.876892 -8.470740 -11.137115
v 83.849693 -5.783060 -0.000000
v 87.374214 7.536327 -0.000000
v 81.274033 10.436188 0.000000
v 70.360901 0.610696 0.000000
v 72.279984 7.044326 -0.000000
v 76.051041 10.610720 0.000000
v 71.171677 -5.939043 -1.243899
v 70.646599 0.660653 0.000000
v 70.360901 0.610696 -0.000000
v 97.153694 6.958276 -0.000000
v 103.539375 9.238218 -1.377170
v 68.198395 0.668675 -17.188620
v 70.565811 0.122994 -10.589923
v 69.791031 9.950012 -14.987391
v 70.146278 5.410755 -1.377170
v 68.198395 0.668675 -3.244967
v 68.905640 8.660136 -8.625556
v 70.059998 -8.704986 -2.349148
v 69.116081 -6.153071 -14.983972
v 70.532990 -6.498034 -2.262650
v 59.748993 1.097805 -4.512319
v 47.441299 1.563496 -4.895458
v 44.634899 1.578637 -4.990848
v 34.116600 2.656088 -1.665680
v 70.646599 0.660652 -6.671240
v 20.483202 3.588790 -14.835610
v 101.071220 -0.588148 -25.138767
v 97.269676 -0.163327 -27.876257
v 95.975220 -0.222388 -33.724953
v 90.511772 6.933455 -37.510696
v 87.744598 7.653678 -33.017796
v 93.813156 -0.526801 -41.376255
v 86.773376 7.106229 -0.000000
v 88.675957 12.080710 -0.000000
v 92.028976 11.161152 -0.000000
v 97.153694 11.328827 -0.000001
v 108.664520 12.538044 -0.000001
v 102.264862 12.286641 0.000000
v 113.221649 11.261322 -32.861965
v 93.867592 5.500970 -35.394470
v 98.840134 8.434031 -37.809872
v 103.377403 5.891864 -37.637878
v 103.313606 -1.110930 -35.365734
v 98.659691 -3.437997 -33.017796
v 93.813156 -0.526801 -32.862381
v 92.156235 6.502864 -32.861965
v 93.867592 5.500970 -7.311800
v 95.766121 -14.371078 -0.000000
v 123.972275 6.536509 0.000000
v 120.133827 12.160548 -10.493327
v 101.922928 -14.639764 -11.686850
v 106.418884 -10.748707 -13.293421
v 111.306580 -3.963456 -13.938348
v 114.510574 -1.171309 -14.330507
v 115.971992 4.079119 -11.340127
v 114.526566 10.367528 -5.045203
v 113.507767 11.170817 0.000000
v 113.221649 11.261322 -0.000000
v 117.689178 7.146698 -13.303156
v 96.576714 5.254003 -14.488160
v 101.132111 7.424467 -13.071490
v 91.711876 5.584055 -13.421559
v 87.796455 6.188056 -48.553200
v 98.879768 -2.048373 -48.897110
v 98.617546 6.052555 -43.896370
v 88.258835 5.701860 -46.505333
v 93.457047 8.701214 -43.488197
v 88.110283 -1.242242 -45.854408
v 93.381058 -4.928326 -43.896370
v 88.258835 5.701860 0.075630

vt 0.562926 0.837103
vt 0.572615 0.841304
vt 0.497229 0.915434
vt 0.848819 0.870609
vt 0.961895 0.923584
vt 0.932920 0.860417
vt 0.888632 0.940688
vt 0.594166 0.804445
vt 0.773312 0.885886
vt 0.685703 0.902814
vt 0.763378 0.943607
vt 0.664287 0.824844
vt 0.618739 0.886837
vt 0.642571 0.885976
vt 0.605270 0.940806
vt 0.634707 0.819519
vt 0.657242 0.824956
vt 0.713169 0.863970
vt 0.926041 0.921469
vt 0.887300 0.954775
vt 0.711272 0.893217
vt 0.721301 0.788314
vt 0.593500 0.728052
vt 0.614992 0.777649
vt 0.673083 0.782457
vt 0.621425 0.797861
vt 0.826382 0.782004
vt 0.884423 0.847980
vt 0.834109 0.801859
vt 0.988642 0.768595
vt 0.733053 0.914271
vt 0.671436 0.987515
vt 0.873449 0.599110
vt 0.470131 0.902320
vt 0.417007 0.913940
vt 0.493170 0.832626
vt 0.420464 0.564777
vt 0.882082 0.510373
vt 0.871020 0.734972
vt 0.442917 0.444822
vt 0.858738 0.315527
vt 0.867711 0.384452
vt 0.856688 0.724306
vt 0.732189 0.569699
vt 0.833048 0.566240
vt 0.784476 0.441801
vt 0.785568 0.373518
vt 0.798162 0.308018
vt 0.818727 0.650604
vt 0.785258 0.502162
vt 0.810520 0.226197
vt 0.826216 0.234833
vt 0.886625 0.732152
vt 0.509624 0.604907
vt 0.526555 0.728095
vt 0.580737 0.610466
vt 0.606435 0.580484
vt 0.706418 0.635334
vt 0.701898 0.732998
vt 0.672563 0.823629
vt 0.885135 0.845292
vt 0.771186 0.499279
vt 0.780699 0.613897
vt 0.893743 0.629848
vt 0.844414 0.924988
vt 0.687549 0.189584
vt 0.753690 0.566720
vt 0.755913 0.440155
vt 0.758178 0.368804
vt 0.771323 0.304625
vt 0.791928 0.647799
vt 0.755404 0.230888
vt 0.796551 0.500219
vt 0.752192 0.789576
vt 0.265521 0.835855
vt 0.263061 0.755528
vt 0.265072 0.928907
vt 0.260582 0.884425
vt 0.261749 0.675993
vt 0.259184 0.715088
vt 0.263799 0.727599
vt 0.195227 0.758947
vt 0.198766 0.954144
vt 0.185395 0.915249
vt 0.180744 0.835157
vt 0.188137 0.878290
vt 0.184289 0.791144
vt 0.199607 0.729827
vt 0.175649 0.692480
vt 0.167886 0.791247
vt 0.179643 0.876972
vt 0.171743 0.914599
vt 0.169992 0.760436
vt 0.179083 0.834021
vt 0.171591 0.874289
vt 0.109330 0.833234
vt 0.108144 0.761751
vt 0.157155 0.731516
vt 0.158709 0.793800
vt 0.160140 0.692063
vt 0.109110 0.692426
vt 0.024254 0.741802
vt 0.024268 0.910170
vt 0.109631 0.787756
vt 0.024242 0.838512
vt 0.024232 0.871432
vt 0.024239 0.910099
vt 0.024262 0.660539
vt 0.334643 0.893690
vt 0.341264 0.827731
vt 0.343369 0.788323
vt 0.344952 0.749389
vt 0.344552 0.941844
vt 0.339688 0.704232
vt 0.339283 0.861362
vt 0.345284 0.658293
vt 0.910723 0.229630
vt 0.095520 0.530735
vt 0.437768 0.313412
vt 0.148334 0.286983
vt 0.187993 0.331085
vt 0.216152 0.354897
vt 0.178023 0.257530
vt 0.234313 0.505385
vt 0.387194 0.502633
vt 0.353289 0.214890
vt 0.368820 0.501873
vt 0.215108 0.496591
vt 0.277520 0.214299
vt 0.331188 0.235950
vt 0.281466 0.266481
vt 0.320052 0.209502
vt 0.417185 0.500735
vt 0.167660 0.304313
vt 0.258479 0.242006
vt 0.371459 0.236157
vt 0.418482 0.256262
vt 0.457978 0.252955
vt 0.516354 0.226222
vt 0.521317 0.218148
vt 0.464502 0.263968
vt 0.379385 0.248991
vt 0.581693 0.321379
vt 0.515107 0.335314
vt 0.573093 0.344303
vt 0.635030 0.348889
vt 0.392608 0.361048
vt 0.341042 0.337991
vt 0.456722 0.087425
vt 0.088335 0.087435
vt 0.011322 0.410983
vt 0.572717 0.413048
vt 0.515038 0.364998
vt 0.574227 0.375175
vt 0.516155 0.372112
vt 0.631882 0.418400
vt 0.467704 0.364777
vt 0.460349 0.377597
vt 0.398734 0.431907
vt 0.408575 0.087288
vt 0.388961 0.087194
vt 0.310945 0.441517
vt 0.358791 0.452328
vt 0.304620 0.350061
vt 0.514682 0.390773
vt 0.347000 0.087298
vt 0.160857 0.087137
vt 0.235846 0.107635
vt 0.896512 0.222100
vt 0.682412 0.378018
vt 0.144463 0.229050
vt 0.716221 0.253266
vt 0.055467 0.341355
vt 0.113199 0.216657
vt 0.637702 0.204817
vt 0.590381 0.111082
vt 0.614188 0.188010
vt 0.529389 0.175621
vt 0.473856 0.034617
vt 0.010967 0.034617
vt 0.088595 0.034617
vt 0.162629 0.034617
vt 0.235469 0.034617
vt 0.309720 0.034617
vt 0.387583 0.153698
vt 0.975950 0.058703
vt 0.972731 0.028919
vt 0.895770 0.065348
vt 0.818512 0.146832
vt 0.816095 0.188774
vt 0.894504 0.195963
vt 0.253239 0.205928
vt 0.210179 0.240901
vt 0.159119 0.267558
vt 0.119667 0.294327
vt 0.082712 0.124153
vt 0.501253 0.135120
vt 0.543553 0.151034
vt 0.602413 0.164417
vt 0.649708 0.172405
vt 0.695059 0.176833
vt 0.728322 0.244017
vt 0.320251 0.186281
vt 0.196237 0.531298
vt 0.384799 0.545999
vt 0.383182 0.558173
vt 0.333340 0.584024
vt 0.275635 0.601987
vt 0.220677 0.614406
vt 0.172711 0.626696
vt 0.120353 0.606768
vt 0.090554 0.561061
vt 0.143386 0.550970
vt 0.213296 0.543461
vt 0.275033 0.528671
vt 0.338516 0.261178
vt 0.628912 0.265149
vt 0.674346 0.269766
vt 0.710649 0.988830
vt 0.491275 0.791452
vt 0.908561 0.735250
vt 0.740265 0.216187
vt 0.837961 0.136739
vt 0.703735 0.093477
vt 0.558544 0.061026
vt 0.011145 0.061021
vt 0.088465 0.060905
vt 0.310332 0.060953
vt 0.388272 0.060877
vt 0.235657 0.060958
vt 0.161743 0.107970
vt 0.235493 0.108051
vt 0.159684 0.108115
vt 0.088282 0.108120
vt 0.012336 0.108046
vt 0.388740 0.107999
vt 0.310806 0.913940
vt 0.493170 0.924370
vt 0.562926 0.990200
vt 0.579522 0.841304
vt 0.497229 0.837103
vt 0.572615 0.728095
vt 0.580737 0.732152
vt 0.509624 0.863970
vt 0.926041 0.921469
vt 0.887300 0.915434
vt 0.848819 0.860417
vt 0.888632 0.797492
vt 0.950275 0.987349
vt 0.918182 0.923584
vt 0.932920 0.988008
vt 0.829884 0.940688
vt 0.594166 0.777649
vt 0.673083 0.819519
vt 0.657242 0.824844
vt 0.618739 0.782457
vt 0.621425 0.989086
vt 0.666326 0.943607
vt 0.664287 0.954775
vt 0.711272 0.988851
vt 0.707636 0.886837
vt 0.642571 0.940806
vt 0.634707 0.885976
vt 0.605270 0.914271
vt 0.671436 0.990398
vt 0.620423 0.885886
vt 0.685703 0.847980
vt 0.834109 0.902814
vt 0.763378 0.845292
vt 0.771186 0.804445
vt 0.773312 0.824956
vt 0.713169 0.768595
vt 0.733053 0.988512
vt 0.760376 0.823629
vt 0.885135 0.893217
vt 0.721301 0.788314
vt 0.593500 0.870609
vt 0.961895 0.924988
vt 0.687549 0.728052
vt 0.614992 0.732998
vt 0.672563 0.797861
vt 0.826382 0.782004
vt 0.884423 0.604907
vt 0.526555 0.734972
vt 0.442917 0.599110
vt 0.470131 0.989048
vt 0.411377 0.902320
vt 0.417007 0.832626
vt 0.420464 0.504415
vt 0.535643 0.504350
vt 0.488436 0.564777
vt 0.882082 0.510373
vt 0.871020 0.444822
vt 0.858738 0.315527
vt 0.867711 0.384452
vt 0.856688 0.613897
vt 0.893743 0.724306
vt 0.732189 0.686891
vt 0.795032 0.650604
vt 0.785258 0.672000
vt 0.849271 0.629848
vt 0.844414 0.308018
vt 0.818727 0.373518
vt 0.798162 0.566240
vt 0.784476 0.569699
vt 0.833048 0.502162
vt 0.810520 0.499279
vt 0.780699 0.441801
vt 0.785568 0.226197
vt 0.826216 0.610466
vt 0.606435 0.504228
vt 0.616585 0.635334
vt 0.701898 0.580484
vt 0.706418 0.504891
vt 0.711111 0.368804
vt 0.771323 0.440155
vt 0.758178 0.304625
vt 0.791928 0.566720
vt 0.755913 0.647799
vt 0.755404 0.189584
vt 0.753690 0.230888
vt 0.796551 0.500219
vt 0.752192 0.827731
vt 0.343369 0.788323
vt 0.344952 0.789576
vt 0.265521 0.835855
vt 0.263061 0.749389
vt 0.344552 0.755528
vt 0.265072 0.941844
vt 0.339688 0.893690
vt 0.341264 0.884425
vt 0.261749 0.928907
vt 0.260582 0.704232
vt 0.339283 0.660539
vt 0.334643 0.675993
vt 0.259184 0.715088
vt 0.263799 0.727599
vt 0.195227 0.758947
vt 0.198766 0.954144
vt 0.185395 0.915249
vt 0.180744 0.835157
vt 0.188137 0.878290
vt 0.184289 0.791144
vt 0.199607 0.729827
vt 0.175649 0.692480
vt 0.167886 0.791247
vt 0.179643 0.876972
vt 0.171743 0.914599
vt 0.169992 0.760436
vt 0.179083 0.834021
vt 0.171591 0.874289
vt 0.109330 0.833234
vt 0.108144 0.761751
vt 0.157155 0.731516
vt 0.158709 0.793800
vt 0.160140 0.692063
vt 0.109110 0.692426
vt 0.024254 0.741802
vt 0.024268 0.910170
vt 0.109631 0.787756
vt 0.024242 0.838512
vt 0.024232 0.871432
vt 0.024239 0.910099
vt 0.024262 0.861362
vt 0.345284 0.267558
vt 0.119667 0.313412
vt 0.148334 0.286983
vt 0.187993 0.240901
vt 0.159119 0.331085
vt 0.216152 0.354897
vt 0.178023 0.304313
vt 0.258479 0.257530
vt 0.234313 0.205928
vt 0.210179 0.235950
vt 0.281466 0.195963
vt 0.253239 0.601987
vt 0.220677 0.550970
vt 0.213296 0.543461
vt 0.275033 0.584024
vt 0.275635 0.614406
vt 0.172711 0.561061
vt 0.143386 0.528671
vt 0.338516 0.558173
vt 0.333340 0.209502
vt 0.417185 0.214890
vt 0.368820 0.242006
vt 0.371459 0.236157
vt 0.418482 0.256262
vt 0.457978 0.252955
vt 0.516354 0.226222
vt 0.521317 0.218148
vt 0.464502 0.266481
vt 0.320052 0.263968
vt 0.379385 0.248991
vt 0.581693 0.321379
vt 0.515107 0.335314
vt 0.573093 0.344303
vt 0.635030 0.348889
vt 0.392608 0.361048
vt 0.341042 0.337991
vt 0.456722 0.087425
vt 0.088335 0.087435
vt 0.011322 0.061026
vt 0.011145 0.061021
vt 0.088465 0.364998
vt 0.574227 0.375175
vt 0.516155 0.413048
vt 0.515038 0.410983
vt 0.572717 0.372112
vt 0.631882 0.418400
vt 0.467704 0.364777
vt 0.460349 0.377597
vt 0.398734 0.431907
vt 0.408575 0.087288
vt 0.388961 0.087194
vt 0.310945 0.060905
vt 0.310332 0.060953
vt 0.388272 0.350061
vt 0.514682 0.441517
vt 0.358791 0.390773
vt 0.347000 0.087298
vt 0.160857 0.087137
vt 0.235846 0.107970
vt 0.235493 0.108051
vt 0.159684 0.452328
vt 0.304620 0.060877
vt 0.235657 0.060958
vt 0.161743 0.108115
vt 0.088282 0.108120
vt 0.012336 0.108046
vt 0.388740 0.107999
vt 0.310806 0.222100
vt 0.682412 0.265149
vt 0.674346 0.269766
vt 0.710649 0.229050
vt 0.716221 0.294327
vt 0.082712 0.341355
vt 0.113199 0.172405
vt 0.695059 0.176833
vt 0.728322 0.142472
vt 0.734822 0.378018
vt 0.144463 0.216657
vt 0.637702 0.261178
vt 0.628912 0.125673
vt 0.658802 0.164417
vt 0.649708 0.151034
vt 0.602413 0.135120
vt 0.543553 0.204817
vt 0.590381 0.188010
vt 0.529389 0.626696
vt 0.120353 0.175621
vt 0.473856 0.081186
vt 0.517101 0.124153
vt 0.501253 0.214299
vt 0.331188 0.244017
vt 0.320251 0.034617
vt 0.088595 0.034617
vt 0.010967 0.034617
vt 0.162629 0.034617
vt 0.235469 0.034617
vt 0.309720 0.034617
vt 0.387583 0.107635
vt 0.896512 0.058703
vt 0.972731 0.153698
vt 0.975950 0.028919
vt 0.895770 0.065348
vt 0.818512 0.146832
vt 0.816095 0.188774
vt 0.894504 0.531298
vt 0.384799 0.545999
vt 0.383182 0.530735
vt 0.437768 0.229630
vt 0.095520 0.253266
vt 0.055467 0.606768
vt 0.090554 0.579638
vt 0.050185 0.533311
vt 0.093891 0.186281
vt 0.196237 0.505385
vt 0.387194 0.490789
vt 0.119196 0.500735
vt 0.167660 0.501873
vt 0.215108 0.496591
vt 0.277520 0.502633
vt 0.353289 0.543274
vt 0.951943 0.450336
vt 0.925982 0.264961
vt 0.963237 0.331581
vt 0.937991 0.387952
vt 0.923576 0.630688
vt 0.986178 0.177174
vt 0.777413 0.167010
vt 0.786533 0.711792
vt 0.709306 0.420075
vt 0.010573 0.466778
vt 0.061764 0.460515
vt 0.024510 0.407418
vt 0.112450 0.454743
vt 0.105406 0.364901
vt 0.058784 0.379084
vt 0.087661 0.379106
vt 0.022626 0.970389
vt 0.259184 0.689116
vt 0.185395 0.953160
vt 0.167886 0.951087
vt 0.109110 0.986776
vt 0.334643 0.942870
vt 0.024262 0.271484
vt 0.644892 0.378458
vt 0.285854 0.405015
vt 0.292146 0.061026
vt 0.454183 0.087435
vt 0.455622 0.410700
vt 0.630603 0.108120
vt 0.455816 0.010407
vt 0.008985 0.010407
vt 0.089706 0.010407
vt 0.161678 0.010407
vt 0.236019 0.010407
vt 0.308790 0.010407
vt 0.388946 0.034617
vt 0.452743 0.010407
vt 0.453285 0.200929
vt 0.132648 0.560720
vt 0.384743 0.583443
vt 0.336371 0.620315
vt 0.274541 0.630872
vt 0.235599 0.648633
vt 0.187225 0.664326
vt 0.120736 0.655803
vt 0.062367 0.636167
vt 0.024518 0.367792
vt 0.240387 0.354061
vt 0.270387 0.392545
vt 0.207020 0.417319
vt 0.177371 0.136324
vt 0.235140 0.136324
vt 0.158511 0.136324
vt 0.013350 0.136324
vt 0.088229 0.136324
vt 0.388519 0.136324
vt 0.310668 0.136324
vt 0.456009 0.988830
vt 0.491275 0.990200
vt 0.579522 0.797492
vt 0.950275 0.791452
vt 0.908561 0.987349
vt 0.918182 0.987515
vt 0.873449 0.988008
vt 0.829884 0.989086
vt 0.666326 0.988851
vt 0.707636 0.990398
vt 0.620423 0.988512
vt 0.760376 0.801859
vt 0.988642 0.989048
vt 0.411377 0.504350
vt 0.488436 0.504415
vt 0.535643 0.543274
vt 0.951943 0.450336
vt 0.925982 0.264961
vt 0.963237 0.331581
vt 0.937991 0.234833
vt 0.886625 0.387952
vt 0.923576 0.630688
vt 0.986178 0.658293
vt 0.910723 0.735250
vt 0.740265 0.686891
vt 0.795032 0.672000
vt 0.849271 0.216187
vt 0.837961 0.177174
vt 0.777413 0.167010
vt 0.786533 0.504228
vt 0.616585 0.504891
vt 0.711111 0.711792
vt 0.709306 0.364901
vt 0.058784 0.407418
vt 0.112450 0.379084
vt 0.087661 0.466778
vt 0.061764 0.454743
vt 0.105406 0.420075
vt 0.010573 0.460515
vt 0.024510 0.379106
vt 0.022626 0.970389
vt 0.259184 0.689116
vt 0.185395 0.953160
vt 0.167886 0.951087
vt 0.109110 0.986776
vt 0.334643 0.942870
vt 0.024262 0.271484
vt 0.644892 0.378458
vt 0.285854 0.405015
vt 0.292146 0.061026
vt 0.454183 0.087435
vt 0.455622 0.410700
vt 0.630603 0.108120
vt 0.455816 0.142472
vt 0.734822 0.136739
vt 0.703735 0.125673
vt 0.658802 0.093477
vt 0.558544 0.111082
vt 0.614188 0.081186
vt 0.517101 0.010407
vt 0.008985 0.010407
vt 0.089706 0.010407
vt 0.161678 0.010407
vt 0.236019 0.010407
vt 0.308790 0.010407
vt 0.388946 0.034617
vt 0.452743 0.010407
vt 0.453285 0.200929
vt 0.132648 0.533311
vt 0.093891 0.579638
vt 0.050185 0.560720
vt 0.384743 0.583443
vt 0.336371 0.620315
vt 0.274541 0.630872
vt 0.235599 0.648633
vt 0.187225 0.664326
vt 0.120736 0.655803
vt 0.062367 0.636167
vt 0.024518 0.490789
vt 0.119196 0.367792
vt 0.240387 0.354061
vt 0.270387 0.392545
vt 0.207020 0.417319
vt 0.177371 0.136324
vt 0.235140 0.136324
vt 0.158511 0.136324
vt 0.013350 0.136324
vt 0.088229 0.136324
vt 0.388519 0.136324
vt 0.310668 0.136324
vt 0.456009 1.000000

f 1/1 220/220 240/240
f 220/220 1/1 36/36
f 36/36 2/2 3/3
f 2/2 36/36 1/1
f 3/3 56/56 54/54
f 56/56 3/3 2/2
f 4/4 19/19 7/7
f 19/19 4/4 20/20
f 7/7 249/249 221/221
f 249/249 7/7 19/19
f 20/20 250/250 6/6
f 250/250 20/20 33/33
f 20/20 252/252 33/33
f 252/252 20/20 4/4
f 8/8 1/1 240/240
f 13/13 25/25 26/26
f 25/25 13/13 17/17
f 21/21 258/258 261/261
f 258/258 21/21 12/12
f 8/8 14/14 15/15
f 14/14 8/8 16/16
f 32/32 16/16 12/12
f 16/16 32/32 14/14
f 266/266 258/258 12/12
f 266/266 16/16 8/8
f 14/14 17/17 15/15
f 13/13 15/15 17/17
f 17/17 14/14 10/10
f 15/15 1/1 8/8
f 4/4 62/62 11/11
f 62/62 4/4 29/29
f 2/2 1/1 15/15
f 240/240 266/266 8/8
f 9/9 31/31 18/18
f 252/252 11/11 274/274
f 11/11 252/252 4/4
f 7/7 29/29 4/4
f 29/29 7/7 61/61
f 21/21 11/11 22/22
f 11/11 21/21 274/274
f 62/62 22/22 11/11
f 17/17 10/10 18/18
f 15/15 13/13 2/2
f 2/2 13/13 23/23
f 6/6 19/19 20/20
f 19/19 6/6 5/5
f 249/249 5/5 30/30
f 5/5 249/249 19/19
f 21/21 66/66 12/12
f 22/22 18/18 10/10
f 2/2 23/23 56/56
f 23/23 24/24 56/56
f 25/25 24/24 26/26
f 24/24 25/25 60/60
f 13/13 26/26 23/23
f 26/26 24/24 23/23
f 27/27 61/61 28/28
f 61/61 27/27 29/29
f 21/21 261/261 274/274
f 25/25 18/18 31/31
f 18/18 25/25 17/17
f 31/31 60/60 25/25
f 266/266 12/12 16/16
f 14/14 32/32 10/10
f 22/22 66/66 21/21
f 54/54 34/34 40/40
f 34/34 54/54 55/55
f 35/35 220/220 36/36
f 220/220 35/35 287/287
f 37/37 36/36 3/3
f 36/36 37/37 35/35
f 55/55 291/291 34/34
f 291/291 55/55 290/290
f 38/38 39/39 485/485
f 486/486 39/39 41/41
f 39/39 486/486 485/485
f 487/487 42/42 53/53
f 42/42 487/487 488/488
f 488/488 43/43 42/42
f 43/43 488/488 489/489
f 489/489 41/41 43/43
f 41/41 489/489 486/486
f 64/64 490/490 117/117
f 490/490 64/64 485/485
f 44/44 299/299 222/222
f 50/50 65/65 301/301
f 49/49 43/43 48/48
f 43/43 49/49 42/42
f 46/46 51/51 45/45
f 51/51 46/46 63/63
f 53/53 42/42 223/223
f 63/63 47/47 51/51
f 49/49 52/52 42/42
f 491/491 223/223 52/52
f 223/223 42/42 52/52
f 223/223 491/491 492/492
f 50/50 301/301 299/299
f 50/50 299/299 44/44
f 65/65 117/117 301/301
f 117/117 65/65 64/64
f 41/41 51/51 47/47
f 51/51 41/41 39/39
f 48/48 41/41 47/47
f 41/41 48/48 43/43
f 39/39 45/45 51/51
f 45/45 39/39 38/38
f 37/37 54/54 40/40
f 54/54 37/37 3/3
f 55/55 56/56 57/57
f 56/56 55/55 54/54
f 57/57 290/290 55/55
f 290/290 57/57 312/312
f 24/24 57/57 56/56
f 57/57 24/24 59/59
f 58/58 315/315 312/312
f 57/57 58/58 312/312
f 58/58 57/57 59/59
f 59/59 24/24 60/60
f 18/18 62/62 9/9
f 9/9 29/29 27/27
f 29/29 9/9 62/62
f 485/485 64/64 38/38
f 64/64 45/45 38/38
f 45/45 64/64 65/65
f 65/65 46/46 45/45
f 46/46 65/65 50/50
f 12/12 66/66 32/32
f 22/22 32/32 66/66
f 32/32 22/22 10/10
f 22/22 62/62 18/18
f 47/47 70/70 48/48
f 70/70 47/47 69/69
f 48/48 71/71 49/49
f 71/71 48/48 70/70
f 50/50 68/68 46/46
f 68/68 50/50 72/72
f 52/52 67/67 491/491
f 67/67 52/52 73/73
f 44/44 72/72 50/50
f 72/72 44/44 493/493
f 49/49 73/73 52/52
f 73/73 49/49 71/71
f 63/63 69/69 47/47
f 69/69 63/63 74/74
f 46/46 74/74 63/63
f 74/74 46/46 68/68
f 494/494 495/495 496/496
f 495/495 497/497 498/498
f 497/497 499/499 500/500
f 495/495 499/499 497/497
f 494/494 499/499 495/495
f 501/501 499/499 494/494
f 75/75 111/111 76/76
f 111/111 75/75 112/112
f 112/112 77/77 113/113
f 77/77 112/112 75/75
f 110/110 78/78 79/79
f 78/78 110/110 114/114
f 115/115 80/80 109/109
f 80/80 115/115 81/81
f 82/82 77/77 83/83
f 77/77 82/82 81/81
f 84/84 78/78 502/502
f 78/78 84/84 85/85
f 87/87 76/76 79/79
f 76/76 87/87 86/86
f 75/75 83/83 77/77
f 83/83 75/75 88/88
f 89/89 90/90 503/503
f 81/81 503/503 80/80
f 503/503 81/81 82/82
f 91/91 88/88 86/86
f 92/92 85/85 93/93
f 85/85 92/92 87/87
f 82/82 94/94 89/89
f 94/94 82/82 83/83
f 88/88 94/94 83/83
f 94/94 88/88 91/91
f 86/86 95/95 91/91
f 503/503 82/82 89/89
f 96/96 95/95 92/92
f 95/95 96/96 97/97
f 98/98 89/89 94/94
f 89/89 98/98 99/99
f 91/91 98/98 94/94
f 98/98 91/91 100/100
f 101/101 103/103 102/102
f 103/103 101/101 99/99
f 504/504 104/104 93/93
f 104/104 504/504 505/505
f 92/92 104/104 96/96
f 104/104 92/92 93/93
f 95/95 100/100 91/91
f 105/105 97/97 106/106
f 97/97 105/105 100/100
f 97/97 100/100 95/95
f 90/90 89/89 99/99
f 100/100 105/105 98/98
f 103/103 98/98 105/105
f 99/99 101/101 90/90
f 502/502 114/114 506/506
f 114/114 502/502 78/78
f 99/99 98/98 103/103
f 96/96 106/106 97/97
f 106/106 96/96 107/107
f 107/107 96/96 104/104
f 104/104 108/108 107/107
f 507/507 104/104 505/505
f 104/104 507/507 108/108
f 81/81 113/113 77/77
f 113/113 81/81 115/115
f 86/86 92/92 95/95
f 88/88 76/76 86/86
f 76/76 88/88 75/75
f 84/84 504/504 93/93
f 87/87 92/92 86/86
f 87/87 78/78 85/85
f 78/78 87/87 79/79
f 84/84 93/93 85/85
f 111/111 116/116 76/76
f 116/116 110/110 79/79
f 116/116 79/79 76/76
f 195/195 121/121 120/120
f 121/121 195/195 194/194
f 120/120 122/122 123/123
f 122/122 120/120 121/121
f 135/135 121/121 124/124
f 121/121 135/135 122/122
f 194/194 124/124 121/121
f 124/124 194/194 193/193
f 131/131 193/193 192/192
f 193/193 131/131 124/124
f 209/209 215/215 214/214
f 215/215 209/209 208/208
f 213/213 209/209 214/214
f 209/209 213/213 210/210
f 208/208 216/216 215/215
f 216/216 208/208 207/207
f 136/136 133/133 137/137
f 133/133 136/136 127/127
f 140/140 138/138 141/141
f 138/138 140/140 139/139
f 132/132 136/136 142/142
f 138/138 142/142 137/137
f 124/124 132/132 135/135
f 132/132 124/124 131/131
f 143/143 139/139 140/140
f 138/138 137/137 141/141
f 137/137 142/142 136/136
f 144/144 143/143 145/145
f 143/143 144/144 139/139
f 145/145 508/508 146/146
f 508/508 145/145 143/143
f 147/147 132/132 142/142
f 132/132 147/147 148/148
f 135/135 148/148 509/509
f 148/148 135/135 132/132
f 149/149 139/139 144/144
f 139/139 149/149 138/138
f 138/138 147/147 142/142
f 147/147 138/138 149/149
f 151/151 227/227 226/226
f 227/227 151/151 150/150
f 153/153 154/154 152/152
f 154/154 153/153 155/155
f 154/154 146/146 156/156
f 157/157 159/159 158/158
f 159/159 157/157 160/160
f 159/159 147/147 158/158
f 148/148 510/510 509/509
f 162/162 229/229 228/228
f 229/229 162/162 161/161
f 148/148 147/147 159/159
f 155/155 157/157 158/158
f 157/157 155/155 153/153
f 165/165 154/154 155/155
f 145/145 146/146 154/154
f 158/158 147/147 149/149
f 149/149 165/165 158/158
f 154/154 165/165 145/145
f 165/165 149/149 144/144
f 158/158 165/165 155/155
f 145/145 165/165 144/144
f 159/159 163/163 166/166
f 163/163 159/159 160/160
f 168/168 233/233 232/232
f 233/233 168/168 167/167
f 159/159 166/166 148/148
f 510/510 148/148 166/166
f 161/161 511/511 229/229
f 511/511 161/161 512/512
f 164/164 166/166 163/163
f 166/166 164/164 510/510
f 156/156 152/152 154/154
f 152/152 156/156 513/513
f 168/168 228/228 230/230
f 228/228 168/168 162/162
f 150/150 231/231 227/227
f 231/231 150/150 167/167
f 150/150 235/235 234/234
f 235/235 150/150 151/151
f 236/236 162/162 237/237
f 162/162 236/236 161/161
f 167/167 230/230 231/231
f 230/230 167/167 168/168
f 512/512 236/236 514/514
f 236/236 512/512 161/161
f 162/162 232/232 237/237
f 232/232 162/162 168/168
f 233/233 150/150 234/234
f 150/150 233/233 167/167
f 170/170 219/219 218/218
f 219/219 170/170 172/172
f 174/174 195/195 120/120
f 195/195 174/174 196/196
f 201/201 441/441 202/202
f 441/441 201/201 224/224
f 174/174 123/123 171/171
f 123/123 174/174 120/120
f 218/218 175/175 170/170
f 175/175 218/218 217/217
f 224/224 200/200 445/445
f 200/200 224/224 201/201
f 199/199 225/225 177/177
f 225/225 199/199 198/198
f 175/175 143/143 176/176
f 143/143 175/175 217/217
f 176/176 140/140 178/178
f 140/140 176/176 143/143
f 210/210 213/213 211/211
f 445/445 199/199 177/177
f 199/199 445/445 200/200
f 133/133 141/141 137/137
f 141/141 133/133 179/179
f 179/179 140/140 141/141
f 140/140 179/179 178/178
f 198/198 453/453 225/225
f 453/453 198/198 197/197
f 203/203 127/127 136/136
f 127/127 203/203 130/130
f 131/131 130/130 203/203
f 130/130 131/131 192/192
f 515/515 181/181 516/516
f 181/181 515/515 180/180
f 516/516 182/182 517/517
f 182/182 516/516 181/181
f 517/517 183/183 518/518
f 183/183 517/517 182/182
f 518/518 184/184 519/519
f 184/184 518/518 183/183
f 519/519 185/185 520/520
f 185/185 519/519 184/184
f 520/520 521/521 522/522
f 521/521 520/520 185/185
f 169/169 186/186 187/187
f 169/169 187/187 188/188
f 169/169 188/188 189/189
f 169/169 189/189 190/190
f 169/169 190/190 191/191
f 169/169 191/191 186/186
f 216/216 206/206 205/205
f 206/206 216/216 207/207
f 206/206 119/119 205/205
f 194/194 118/118 523/523
f 118/118 194/194 195/195
f 118/118 196/196 173/173
f 196/196 118/118 195/195
f 212/212 477/477 476/476
f 477/477 212/212 213/213
f 197/197 178/178 179/179
f 178/178 197/197 198/198
f 198/198 176/176 178/178
f 176/176 198/198 199/199
f 176/176 200/200 175/175
f 200/200 176/176 199/199
f 200/200 170/170 175/175
f 170/170 200/200 201/201
f 170/170 202/202 172/172
f 202/202 170/170 201/201
f 213/213 212/212 211/211
f 131/131 203/203 132/132
f 203/203 136/136 132/132
f 193/193 523/523 204/204
f 523/523 193/193 194/194
f 204/204 192/192 193/193
f 125/125 205/205 119/119
f 119/119 206/206 524/524
f 524/524 207/207 525/525
f 207/207 524/524 206/206
f 525/525 208/208 526/526
f 208/208 525/525 207/207
f 526/526 209/209 527/527
f 209/209 526/526 208/208
f 527/527 210/210 528/528
f 210/210 527/527 209/209
f 528/528 211/211 529/529
f 211/211 528/528 210/210
f 529/529 212/212 530/530
f 212/212 529/529 211/211
f 530/530 476/476 531/531
f 476/476 530/530 212/212
f 480/480 213/213 134/134
f 213/213 480/480 477/477
f 134/134 214/214 128/128
f 214/214 134/134 213/213
f 129/129 214/214 215/215
f 214/214 129/129 128/128
f 126/126 215/215 216/216
f 215/215 126/126 129/129
f 126/126 205/205 125/125
f 205/205 126/126 216/216
f 135/135 532/532 122/122
f 532/532 135/135 533/533
f 122/122 534/534 123/123
f 534/534 122/122 532/532
f 123/123 535/535 171/171
f 535/535 123/123 534/534
f 226/226 181/181 180/180
f 181/181 226/226 227/227
f 184/184 229/229 185/185
f 229/229 184/184 228/228
f 185/185 511/511 521/521
f 511/511 185/185 229/229
f 183/183 228/228 184/184
f 228/228 183/183 230/230
f 227/227 182/182 181/181
f 182/182 227/227 231/231
f 182/182 230/230 183/183
f 230/230 182/182 231/231
f 536/536 233/233 537/537
f 233/233 536/536 232/232
f 234/234 538/538 539/539
f 538/538 234/234 235/235
f 540/540 237/237 541/541
f 237/237 540/540 236/236
f 514/514 540/540 542/542
f 540/540 514/514 236/236
f 237/237 536/536 541/541
f 536/536 237/237 232/232
f 537/537 234/234 539/539
f 234/234 537/537 233/233
f 239/239 543/543 238/238
f 543/543 239/239 544/544
f 238/238 242/242 239/239
f 242/242 238/238 241/241
f 241/241 243/243 242/242
f 243/243 241/241 244/244
f 247/247 245/245 246/246
f 245/245 247/247 248/248
f 248/248 545/545 245/245
f 545/545 248/248 546/546
f 246/246 547/547 548/548
f 547/547 246/246 251/251
f 246/246 549/549 247/247
f 549/549 246/246 548/548
f 253/253 544/544 239/239
f 256/256 254/254 255/255
f 254/254 256/256 257/257
f 260/260 550/550 259/259
f 550/550 260/260 551/551
f 253/253 262/262 263/263
f 262/262 253/253 264/264
f 265/265 263/263 262/262
f 263/263 265/265 259/259
f 552/552 259/259 550/550
f 552/552 253/253 263/263
f 262/262 264/264 255/255
f 256/256 255/255 264/264
f 255/255 267/267 262/262
f 264/264 253/253 239/239
f 247/247 270/270 268/268
f 270/270 247/247 269/269
f 242/242 264/264 239/239
f 544/544 253/253 552/552
f 271/271 272/272 273/273
f 549/549 269/269 247/247
f 269/269 549/549 553/553
f 248/248 268/268 275/275
f 268/268 248/248 247/247
f 260/260 269/269 553/553
f 269/269 260/260 276/276
f 270/270 269/269 276/276
f 255/255 272/272 267/267
f 264/264 242/242 256/256
f 242/242 277/277 256/256
f 251/251 245/245 278/278
f 245/245 251/251 246/246
f 545/545 278/278 245/245
f 278/278 545/545 554/554
f 260/260 259/259 279/279
f 276/276 267/267 272/272
f 242/242 243/243 277/277
f 277/277 243/243 280/280
f 254/254 280/280 281/281
f 280/280 254/254 257/257
f 256/256 277/277 257/257
f 257/257 277/277 280/280
f 282/282 275/275 268/268
f 275/275 282/282 283/283
f 260/260 553/553 551/551
f 254/254 272/272 255/255
f 272/272 254/254 273/273
f 273/273 254/254 281/281
f 552/552 263/263 259/259
f 262/262 267/267 265/265
f 276/276 260/260 279/279
f 244/244 286/286 284/284
f 286/286 244/244 285/285
f 288/288 543/543 555/555
f 543/543 288/288 238/238
f 289/289 238/238 288/288
f 238/238 289/289 241/241
f 284/284 556/556 557/557
f 556/556 284/284 286/286
f 292/292 558/558 293/293
f 559/559 293/293 558/558
f 293/293 559/559 294/294
f 560/560 295/295 561/561
f 295/295 560/560 562/562
f 561/561 296/296 563/563
f 296/296 561/561 295/295
f 563/563 294/294 559/559
f 294/294 563/563 296/296
f 297/297 564/564 558/558
f 564/564 297/297 565/565
f 298/298 566/566 567/567
f 300/300 568/568 302/302
f 303/303 296/296 295/295
f 296/296 303/303 304/304
f 305/305 307/307 308/308
f 307/307 305/305 306/306
f 562/562 569/569 295/295
f 308/308 307/307 309/309
f 303/303 295/295 310/310
f 570/570 310/310 569/569
f 569/569 310/310 295/295
f 569/569 571/571 570/570
f 300/300 567/567 568/568
f 300/300 298/298 567/567
f 302/302 565/565 297/297
f 565/565 302/302 568/568
f 294/294 307/307 293/293
f 307/307 294/294 309/309
f 304/304 294/294 296/296
f 294/294 304/304 309/309
f 293/293 306/306 292/292
f 306/306 293/293 307/307
f 289/289 244/244 241/241
f 244/244 289/289 285/285
f 284/284 243/243 244/244
f 243/243 284/284 311/311
f 311/311 557/557 572/572
f 557/557 311/311 284/284
f 280/280 311/311 313/313
f 311/311 280/280 243/243
f 314/314 572/572 573/573
f 311/311 314/314 313/313
f 314/314 311/311 572/572
f 313/313 281/281 280/280
f 272/272 271/271 270/270
f 271/271 268/268 270/270
f 268/268 271/271 282/282
f 558/558 292/292 297/297
f 297/297 306/306 302/302
f 306/306 297/297 292/292
f 302/302 305/305 300/300
f 305/305 302/302 306/306
f 259/259 265/265 279/279
f 276/276 265/265 267/267
f 265/265 276/276 279/279
f 276/276 272/272 270/270
f 309/309 316/316 317/317
f 316/316 309/309 304/304
f 304/304 318/318 316/316
f 318/318 304/304 303/303
f 300/300 319/319 320/320
f 319/319 300/300 305/305
f 310/310 321/321 322/322
f 321/321 310/310 570/570
f 298/298 320/320 574/574
f 320/320 298/298 300/300
f 303/303 322/322 318/318
f 322/322 303/303 310/310
f 308/308 317/317 323/323
f 317/317 308/308 309/309
f 305/305 323/323 319/319
f 323/323 305/305 308/308
f 575/575 576/576 577/577
f 576/576 578/578 579/579
f 575/575 578/578 576/576
f 578/578 580/580 581/581
f 575/575 580/580 578/578
f 582/582 580/580 575/575
f 326/326 324/324 325/325
f 324/324 326/326 327/327
f 325/325 329/329 326/326
f 329/329 325/325 328/328
f 331/331 333/333 330/330
f 333/333 331/331 332/332
f 334/334 336/336 337/337
f 336/336 334/334 335/335
f 338/338 329/329 337/337
f 329/329 338/338 339/339
f 340/340 333/333 341/341
f 333/333 340/340 583/583
f 343/343 327/327 342/342
f 327/327 343/343 332/332
f 326/326 339/339 344/344
f 339/339 326/326 329/329
f 345/345 584/584 346/346
f 337/337 584/584 338/338
f 584/584 337/337 336/336
f 347/347 342/342 344/344
f 348/348 349/349 341/341
f 341/341 343/343 348/348
f 338/338 345/345 350/350
f 350/350 339/339 338/338
f 344/344 339/339 350/350
f 350/350 347/347 344/344
f 342/342 347/347 351/351
f 584/584 345/345 338/338
f 352/352 348/348 351/351
f 351/351 353/353 352/352
f 354/354 350/350 345/345
f 345/345 355/355 354/354
f 347/347 350/350 354/354
f 354/354 356/356 347/347
f 357/357 358/358 359/359
f 359/359 355/355 357/357
f 585/585 349/349 360/360
f 360/360 586/586 585/585
f 348/348 352/352 360/360
f 360/360 349/349 348/348
f 351/351 347/347 356/356
f 361/361 362/362 353/353
f 353/353 356/356 361/361
f 353/353 351/351 356/356
f 346/346 355/355 345/345
f 356/356 354/354 361/361
f 359/359 361/361 354/354
f 355/355 346/346 357/357
f 583/583 330/330 333/333
f 330/330 583/583 587/587
f 355/355 359/359 354/354
f 352/352 353/353 362/362
f 362/362 363/363 352/352
f 363/363 360/360 352/352
f 360/360 363/363 364/364
f 588/588 586/586 360/360
f 360/360 364/364 588/588
f 337/337 328/328 334/334
f 328/328 337/337 329/329
f 342/342 351/351 348/348
f 344/344 327/327 326/326
f 327/327 344/344 342/342
f 340/340 349/349 585/585
f 343/343 342/342 348/348
f 343/343 333/333 332/332
f 333/333 343/343 341/341
f 340/340 341/341 349/349
f 324/324 327/327 365/365
f 365/365 332/332 331/331
f 365/365 327/327 332/332
f 366/366 368/368 369/369
f 368/368 366/366 367/367
f 367/367 370/370 368/368
f 370/370 367/367 371/371
f 372/372 368/368 370/370
f 368/368 372/372 373/373
f 369/369 373/373 374/374
f 373/373 369/369 368/368
f 375/375 374/374 373/373
f 374/374 375/375 376/376
f 377/377 379/379 380/380
f 379/379 377/377 378/378
f 382/382 377/377 381/381
f 377/377 382/382 378/378
f 380/380 383/383 384/384
f 383/383 380/380 379/379
f 387/387 385/385 386/386
f 385/385 387/387 388/388
f 391/391 389/389 390/390
f 389/389 391/391 392/392
f 393/393 394/394 387/387
f 389/389 388/388 394/394
f 373/373 393/393 375/375
f 393/393 373/373 372/372
f 395/395 391/391 390/390
f 389/389 392/392 388/388
f 388/388 387/387 394/394
f 396/396 395/395 390/390
f 395/395 396/396 397/397
f 397/397 589/589 395/395
f 589/589 397/397 398/398
f 399/399 393/393 400/400
f 393/393 399/399 394/394
f 372/372 400/400 393/393
f 400/400 372/372 590/590
f 401/401 390/390 389/389
f 390/390 401/401 396/396
f 389/389 399/399 401/401
f 399/399 389/389 394/394
f 403/403 405/405 402/402
f 405/405 403/403 404/404
f 408/408 406/406 407/407
f 406/406 408/408 409/409
f 406/406 410/410 398/398
f 411/411 413/413 414/414
f 413/413 411/411 412/412
f 413/413 412/412 399/399
f 400/400 590/590 591/591
f 416/416 418/418 415/415
f 418/418 416/416 417/417
f 400/400 413/413 399/399
f 407/407 411/411 408/408
f 411/411 407/407 412/412
f 419/419 407/407 406/406
f 397/397 406/406 398/398
f 412/412 401/401 399/399
f 401/401 412/412 419/419
f 406/406 397/397 419/419
f 419/419 396/396 401/401
f 412/412 407/407 419/419
f 397/397 396/396 419/419
f 413/413 420/420 414/414
f 420/420 413/413 421/421
f 423/423 425/425 422/422
f 425/425 423/423 424/424
f 413/413 400/400 421/421
f 591/591 421/421 400/400
f 415/415 592/592 593/593
f 592/592 415/415 418/418
f 426/426 421/421 591/591
f 421/421 426/426 420/420
f 410/410 409/409 594/594
f 409/409 410/410 406/406
f 423/423 417/417 416/416
f 417/417 423/423 427/427
f 402/402 428/428 422/422
f 428/428 402/402 405/405
f 402/402 430/430 403/403
f 430/430 402/402 429/429
f 431/431 416/416 415/415
f 416/416 431/431 432/432
f 422/422 427/427 423/423
f 427/427 422/422 428/428
f 593/593 431/431 415/415
f 431/431 593/593 595/595
f 416/416 424/424 423/423
f 424/424 416/416 432/432
f 425/425 402/402 422/422
f 402/402 425/425 429/429
f 433/433 435/435 436/436
f 435/435 433/433 434/434
f 438/438 366/366 437/437
f 366/366 438/438 367/367
f 439/439 596/596 597/597
f 596/596 439/439 440/440
f 438/438 371/371 367/367
f 371/371 438/438 442/442
f 434/434 443/443 444/444
f 443/443 434/434 433/433
f 597/597 446/446 439/439
f 446/446 597/597 598/598
f 447/447 599/599 448/448
f 599/599 447/447 600/600
f 443/443 395/395 444/444
f 395/395 443/443 449/449
f 449/449 391/391 395/395
f 391/391 449/449 450/450
f 381/381 451/451 382/382
f 598/598 447/447 446/446
f 447/447 598/598 600/600
f 385/385 392/392 452/452
f 392/392 385/385 388/388
f 452/452 391/391 450/450
f 391/391 452/452 392/392
f 448/448 601/601 454/454
f 601/601 448/448 599/599
f 456/456 386/386 455/455
f 386/386 456/456 387/387
f 375/375 455/455 376/376
f 455/455 375/375 456/456
f 602/602 457/457 458/458
f 457/457 602/602 603/603
f 603/603 459/459 457/457
f 459/459 603/603 604/604
f 604/604 460/460 459/459
f 460/460 604/604 605/605
f 605/605 461/461 460/460
f 461/461 605/605 606/606
f 606/606 462/462 461/461
f 462/462 606/606 607/607
f 607/607 608/608 462/462
f 608/608 607/607 609/609
f 463/463 464/464 465/465
f 463/463 466/466 464/464
f 463/463 467/467 466/466
f 463/463 468/468 467/467
f 463/463 469/469 468/468
f 463/463 465/465 469/469
f 383/383 471/471 384/384
f 471/471 383/383 470/470
f 471/471 470/470 472/472
f 369/369 473/473 366/366
f 473/473 369/369 610/610
f 473/473 437/437 366/366
f 437/437 473/473 474/474
f 475/475 611/611 382/382
f 611/611 475/475 612/612
f 454/454 450/450 448/448
f 450/450 454/454 452/452
f 448/448 449/449 447/447
f 449/449 448/448 450/450
f 449/449 446/446 447/447
f 446/446 449/449 443/443
f 446/446 433/433 439/439
f 433/433 446/446 443/443
f 433/433 440/440 439/439
f 440/440 433/433 436/436
f 382/382 451/451 475/475
f 375/375 393/393 456/456
f 456/456 393/393 387/387
f 374/374 610/610 369/369
f 610/610 374/374 478/478
f 478/478 374/374 376/376
f 479/479 472/472 470/470
f 472/472 613/613 471/471
f 613/613 384/384 471/471
f 384/384 613/613 614/614
f 614/614 380/380 384/384
f 380/380 614/614 615/615
f 615/615 377/377 380/380
f 377/377 615/615 616/616
f 616/616 381/381 377/377
f 381/381 616/616 617/617
f 617/617 451/451 381/381
f 451/451 617/617 618/618
f 618/618 475/475 451/451
f 475/475 618/618 619/619
f 619/619 612/612 475/475
f 612/612 619/619 620/620
f 621/621 382/382 611/611
f 382/382 621/621 481/481
f 481/481 378/378 382/382
f 378/378 481/481 482/482
f 483/483 378/378 482/482
f 378/378 483/483 379/379
f 484/484 379/379 483/483
f 379/379 484/484 383/383
f 484/484 470/470 383/383
f 470/470 484/484 479/479
f 372/372 622/622 623/623
f 622/622 372/372 370/370
f 370/370 624/624 622/622
f 624/624 370/370 371/371
f 371/371 625/625 624/624
f 625/625 371/371 442/442
f 404/404 457/457 405/405
f 457/457 404/404 458/458
f 461/461 418/418 417/417
f 418/418 461/461 462/462
f 462/462 592/592 418/418
f 592/592 462/462 608/608
f 460/460 417/417 427/427
f 417/417 460/460 461/461
f 405/405 459/459 428/428
f 459/459 405/405 457/457
f 459/459 427/427 428/428
f 427/427 459/459 460/460
f 626/626 425/425 424/424
f 425/425 626/626 627/627
f 429/429 628/628 430/430
f 628/628 429/429 629/629
f 630/630 432/432 431/431
f 432/432 630/630 631/631
f 595/595 630/630 431/431
f 630/630 595/595 632/632
f 432/432 626/626 424/424
f 626/626 432/432 631/631
f 627/627 429/429 425/425
f 429/429 627/627 629/629
