# MOD converted: h_w_costume_magicknight_hair.mod
# 717 verts, 844 faces

v 159.624542 -13.724319 14.738554
v 156.149017 -12.965832 19.147476
v 155.429550 1.848728 8.804679
v 164.605255 -0.371044 15.858745
v 160.077606 0.632350 0.000000
v 160.767548 -13.732910 0.000000
v 165.772247 -0.491764 20.119593
v 146.751205 2.684778 16.288395
v 145.846344 -8.072156 16.363003
v 131.460464 3.863533 20.840229
v 147.265045 13.713355 18.700703
v 136.394943 13.781822 10.539962
v 164.660156 18.170723 8.921502
v 166.819641 9.980439 15.873306
v 162.840973 10.863517 13.108102
v 134.760086 22.105911 11.735799
v 128.147842 13.550123 10.006901
v 125.059456 4.285975 19.154039
v 138.217377 3.236142 16.785007
v 136.325455 0.411476 18.424265
v 141.068466 -2.266228 13.976605
v 154.874908 -15.762176 6.973202
v 151.824463 -13.987232 0.000003
v 159.189514 -17.369743 0.000002
v 152.363464 -14.655938 12.571700
v 149.863464 -12.157934 19.517731
v 156.634766 12.282512 12.930644
v 157.263611 23.278408 13.772291
v 147.373169 25.695057 20.322487
v 141.469498 3.129688 18.408300
v 141.146484 -8.324220 16.879454
v 150.933319 -11.239058 16.196274
v 140.085846 -7.492774 18.167362
v 139.803833 -5.431566 16.785007
v 136.325455 0.411476 15.630611
v 145.704788 -9.780415 18.175137
v 145.802902 -9.593107 15.845078
v 132.057373 -5.404353 17.072769
v 131.816360 -4.496009 16.914623
v 131.598404 -1.454168 14.807469
v 126.112953 -5.639413 -0.000000
v 167.872833 9.639801 -0.000001
v 134.233093 25.056410 -0.000001
v 126.433846 14.787923 9.645804
v 162.235657 -11.878954 16.232185
v 158.240143 -10.891277 9.520649
v 165.092712 -3.032238 16.980452
v 160.469772 -2.066398 -0.000000
v 166.279633 -3.146950 21.541594
v 146.692596 0.198475 20.231348
v 145.612350 -7.586916 20.388954
v 140.991425 -5.682742 18.889202
v 152.490921 -9.861978 20.196474
v 144.913940 16.306473 19.464996
v 141.026947 16.474342 16.566841
v 146.860855 22.384871 16.523762
v 141.822006 21.353863 18.346567
v 149.875732 19.970970 21.491451
v 141.166779 0.085742 19.936152
v 140.575226 0.719496 18.932192
v 140.404953 -5.236469 18.011293
v 131.680252 -4.635371 18.919006
v 131.604492 -0.303730 17.951023
v 131.973022 0.240486 17.120190
v 132.013184 -4.252134 15.166053
v 124.172432 -3.796064 16.245319
v 125.559967 -0.540255 15.575401
v 126.237511 -0.240289 14.542088
v 124.742462 -3.593892 10.623930
v 120.611031 -4.319116 10.687857
v 121.600128 -1.677248 10.191685
v 122.188385 -1.486077 10.078972
v 121.354111 -4.252327 6.022416
v 119.491333 -4.958483 5.360636
v 119.853928 -3.033560 5.181953
v 120.532318 -3.116961 5.900096
v 120.161606 -5.145890 0.000001
v 118.575851 -5.884295 0.000001
v 118.575844 -4.581528 21.135399
v 144.780884 16.863897 20.403915
v 140.893890 17.031776 17.505764
v 146.727798 22.942297 17.462681
v 141.688950 21.911291 19.285486
v 149.742676 20.528397 25.307430
v 143.660339 16.475512 21.081102
v 146.328125 27.698746 18.557011
v 140.304779 27.474018 26.516531
v 149.265305 22.912170 29.564444
v 140.812073 15.902253 22.455467
v 138.680450 17.568563 23.671148
v 143.972931 32.719852 33.449326
v 146.081924 25.862331 32.595154
v 135.855698 16.455879 23.464153
v 134.737045 18.752520 25.723574
v 138.096161 36.752308 19.420296
v 136.620071 30.720045 38.242985
v 138.676453 28.284332 32.378723
v 127.977859 16.744440 22.603077
v 129.789276 18.858316 18.559341
v 131.528427 32.227345 38.592567
v 131.074722 29.389812 27.129015
v 121.406090 16.091183 19.534374
v 124.559914 17.273190 22.630980
v 124.330780 34.676411 14.875998
v 126.445206 30.274088 31.262373
v 119.327011 27.707310 23.656929
v 112.577538 19.192453 17.860498
v 112.881851 18.245836 21.086458
v 114.022896 30.053110 14.135738
v 113.928024 25.817488 26.258677
v 112.910995 26.882702 27.858353
v 108.209587 26.898417 24.342607
v 106.704208 28.602877 23.337364
v 112.170280 31.144659 21.526897
v 108.489380 31.104540 26.735254
v 111.110710 28.489702 30.009766
v 116.421944 34.931438 12.959095
v 120.435730 26.967985 17.658924
v 118.731377 16.979704 20.575058
v 118.371521 31.010649 27.319664
v 115.569679 26.110516 23.979143
v 116.930283 16.785522 36.059326
v 124.027550 28.953495 25.498936
v 131.313187 37.644142 25.577585
v 109.494850 34.011322 28.063599
v 107.722908 33.396397 26.112877
v 112.027550 32.669788 27.883463
v 111.242096 31.127558 29.700312
v 108.870605 30.783792 17.530859
v 109.708023 27.788803 20.435455
v 108.028931 22.595066 25.628838
v 109.259361 22.510553 30.541397
v 111.629951 35.810673 28.327749
v 112.272751 35.710323 28.892735
v 113.168968 33.510052 31.083977
v 112.288849 33.724979 15.382524
v 160.501694 -6.171143 20.439558
v 155.707382 0.090579 20.886469
v 144.848022 -3.443835 20.802958
v 160.213486 -11.540395 21.371500
v 161.825790 -2.711416 27.390844
v 150.628387 -0.881514 26.573931
v 149.280487 -10.887827 22.975782
v 155.437881 -13.128236 19.521864
v 161.608032 -6.790548 24.027712
v 157.456970 0.383798 28.331396
v 148.811584 -5.007177 30.645023
v 156.465820 -1.538862 31.025436
v 153.691940 -12.541733 25.648281
v 157.339111 -14.344448 26.183615
v 160.059540 0.555237 32.889488
v 153.344452 -6.449984 20.809977
v 168.131256 -11.790728 21.836718
v 169.537506 -6.094796 19.694818
v 168.957733 -8.905220 30.969332
v 168.645844 -5.506782 30.620617
v 167.211273 -12.051060 25.994417
v 167.252487 -13.955611 25.484646
v 170.074600 -3.100569 32.101727
v 167.400436 -8.831039 20.078278
v 177.889664 -14.126430 22.026237
v 163.549789 -11.423869 20.828110
v 164.660294 -7.847893 22.351454
v 165.462265 -3.753920 22.322565
v 172.538544 -9.883541 25.069407
v 171.756012 -13.167137 25.216230
v 173.307312 -6.877432 28.224985
v 171.540695 -9.743139 24.371416
v 176.229034 -9.122211 24.771513
v 177.581635 -12.032111 26.693680
v 162.041260 -13.966953 26.809273
v 165.000931 -0.638178 31.553055
v 163.092346 -3.656933 33.600136
v 161.210785 -7.879638 31.850998
v 161.067383 -12.112507 22.114424
v 175.089478 -11.481943 24.466887
v 175.066742 -13.397682 27.350576
v 175.413116 -10.566335 9.282584
v 158.035828 -16.777716 5.314740
v 117.004959 -5.884295 5.314739
v 117.004959 -4.581527 6.417500
v 117.554901 -4.581528 6.417499
v 117.554909 -5.884298 4.322725
v 115.094254 -5.884297 4.322725
v 115.094246 -4.581527 4.533465
v 114.020935 -4.581527 4.533464
v 114.020935 -5.884297 1.327738
v 116.417305 -4.581527 1.327738
v 116.417313 -5.884296 2.811250
v 111.037773 -5.884298 2.811251
v 111.037766 -4.581527 3.464329
v 111.294136 -4.581528 3.464328
v 111.294151 -5.884297 0.938517
v 117.664818 -4.581526 0.938516
v 117.664825 -5.884296 0.898646
v 117.687363 -4.581527 0.898644
v 117.687370 -5.884297 0.000001
v 117.859116 -4.581527 0.000001
v 117.859116 -5.884297 -9.520650
v 165.092712 -3.032238 -9.645802
v 162.235657 -11.878956 -16.232187
v 158.240143 -10.891275 -15.382523
v 160.501694 -6.171144 -16.980452
v 160.469757 -2.066392 -19.517725
v 156.634750 12.282515 -15.873305
v 162.840973 10.863518 -19.147474
v 155.429550 1.848728 -10.539966
v 164.660156 18.170723 -8.921502
v 166.819641 9.980440 -8.804680
v 164.605255 -0.371043 -15.858747
v 160.077606 0.632349 -0.000001
v 165.637497 19.396063 -12.930643
v 157.263611 23.278410 -0.000001
v 157.332001 26.670765 0.000001
v 146.935165 28.305769 -13.108102
v 134.760086 22.105909 -18.700705
v 136.394943 13.781819 -11.735796
v 128.147842 13.550125 -16.363005
v 131.460464 3.863533 -19.154037
v 138.217377 3.236141 -0.000000
v 123.522461 5.340425 -10.006902
v 125.059448 4.285974 -20.119589
v 146.751205 2.684777 -20.840225
v 147.265045 13.713352 -13.772293
v 147.373169 25.695053 -20.322483
v 141.469498 3.129691 -0.000000
v 163.380356 -11.872701 -16.785004
v 136.325455 0.411477 -18.424265
v 141.068451 -2.266228 -21.491449
v 141.166779 0.085745 -21.541588
v 146.692596 0.198481 -20.886465
v 144.848022 -3.443841 -20.231344
v 145.612350 -7.586913 -20.388954
v 140.991425 -5.682739 -16.879454
v 150.933319 -11.239054 -13.976605
v 154.874908 -15.762178 -12.571701
v 149.863464 -12.157936 -9.282578
v 158.035828 -16.777719 -6.973202
v 151.824463 -13.987232 -18.346561
v 149.875732 19.970968 -18.175135
v 145.802902 -9.593107 -18.408300
v 141.146484 -8.324219 -19.936152
v 140.575226 0.719488 -18.932192
v 140.404953 -5.236471 -16.196274
v 140.085846 -7.492778 -18.167360
v 139.803833 -5.431574 -15.630611
v 145.704788 -9.780420 -16.288391
v 145.846344 -8.072156 -16.785004
v 136.325455 0.411477 -15.845080
v 132.057373 -5.404351 -17.072769
v 131.816360 -4.496007 -16.914623
v 131.598404 -1.454173 -14.807467
v 126.112946 -5.639415 -8.994028
v 159.624542 -13.724320 -14.738554
v 156.149017 -12.965834 -18.889198
v 152.490921 -9.861982 -20.439554
v 155.707382 0.090582 -16.523758
v 141.822006 21.353863 -19.464991
v 141.026947 16.474350 -16.566841
v 146.860855 22.384869 -20.196476
v 144.913940 16.306473 -18.011293
v 131.680252 -4.635378 -18.919006
v 131.604492 -0.303729 -17.951023
v 131.973022 0.240488 -17.120188
v 132.013184 -4.252141 -15.166052
v 124.172424 -3.796070 -16.245319
v 125.559959 -0.540256 -14.542089
v 124.742455 -3.593889 -15.575401
v 126.237503 -0.240290 -10.623931
v 120.611023 -4.319114 -10.687857
v 121.600121 -1.677246 -10.078970
v 121.354103 -4.252328 -10.191684
v 122.188377 -1.486078 -6.022417
v 119.491325 -4.958482 -5.360637
v 119.853920 -3.033559 -5.900096
v 120.161606 -5.145890 -5.181953
v 120.532310 -3.116960 0.000001
v 119.246117 -6.020397 0.000001
v 119.254234 -4.642096 -17.462677
v 141.688950 21.911293 -20.403910
v 140.893890 17.031778 -17.505762
v 146.727783 22.942301 -19.285479
v 149.742676 20.528399 -21.135395
v 144.780884 16.863901 -18.557007
v 140.304779 27.474020 -22.455462
v 138.680450 17.568569 -21.081099
v 146.328125 27.698750 -26.516525
v 149.265289 22.912172 -25.307428
v 143.660339 16.475521 -23.671146
v 143.972931 32.719852 -33.449333
v 146.081909 25.862331 -29.564438
v 140.812057 15.902256 -19.420294
v 136.620071 30.720051 -23.464151
v 134.737045 18.752525 -25.723574
v 138.096146 36.752308 -38.242985
v 138.676437 28.284330 -32.595154
v 135.855682 16.455881 -18.559338
v 131.528427 32.227345 -22.603075
v 129.789276 18.858316 -25.498934
v 131.313171 37.644138 -38.592583
v 131.074707 29.389809 -32.378719
v 127.977844 16.744448 -14.875999
v 126.445198 30.274088 -19.534372
v 124.559906 17.273190 -22.630980
v 124.330772 34.676411 -36.059326
v 124.027534 28.953499 -31.262373
v 119.326996 27.707314 -27.129011
v 121.406075 16.091188 -12.959094
v 120.435730 26.967987 -17.658924
v 118.731369 16.979706 -20.575060
v 118.371513 31.010651 -27.319666
v 115.569672 26.110516 -23.979141
v 116.930275 16.785526 -14.135737
v 113.928017 25.817486 -17.530857
v 109.708015 27.788807 -20.435457
v 108.028923 22.595064 -17.860498
v 112.881844 18.245838 -21.086458
v 114.022888 30.053110 -26.735254
v 111.110703 28.489700 -23.337364
v 112.170265 31.144657 -26.258675
v 112.910980 26.882700 -25.628834
v 109.259354 22.510557 -27.858353
v 108.209572 26.898418 -23.656931
v 112.577530 19.192451 -24.342607
v 106.704201 28.602877 -21.526897
v 108.489365 31.104540 -25.577583
v 109.494843 34.011322 -28.063601
v 107.722900 33.396400 -26.112879
v 112.027534 32.669792 -27.883463
v 111.242088 31.127556 -29.700314
v 108.870590 30.783796 -28.327745
v 112.272743 35.710331 -30.541401
v 111.629936 35.810669 -28.892733
v 113.168961 33.510056 -31.083979
v 112.288834 33.724983 -30.009764
v 116.421928 34.931442 -20.802958
v 160.213486 -11.540395 -19.521864
v 161.608032 -6.790551 -22.975775
v 155.437881 -13.128241 -21.371500
v 161.825790 -2.711411 -24.027706
v 157.456970 0.383805 -27.390846
v 150.628387 -0.881529 -28.331396
v 148.811569 -5.007171 -26.573931
v 149.280472 -10.887831 -25.648281
v 157.339111 -14.344449 -26.183615
v 160.059540 0.555233 -30.645020
v 156.465820 -1.538861 -32.889488
v 153.344452 -6.449994 -31.025434
v 153.691925 -12.541729 -22.026239
v 163.549789 -11.423863 -20.828110
v 164.660294 -7.847885 -26.693674
v 162.041260 -13.966953 -22.351454
v 165.462265 -3.753916 -26.809271
v 165.000931 -0.638170 -31.553051
v 163.092346 -3.656933 -33.600136
v 161.210785 -7.879640 -31.851002
v 161.067383 -12.112495 -19.694815
v 168.957718 -8.905228 -20.809977
v 168.131256 -11.790728 -22.322563
v 172.538544 -9.883552 -25.994419
v 167.252472 -13.955612 -25.069407
v 171.756012 -13.167137 -21.836718
v 169.537491 -6.094802 -25.484648
v 170.074600 -3.100579 -25.216230
v 173.307312 -6.877433 -32.101715
v 167.400421 -8.831050 -30.969332
v 168.645828 -5.506780 -28.224979
v 171.540680 -9.743141 -30.620613
v 167.211273 -12.051072 -24.466887
v 175.066742 -13.397682 -22.114426
v 175.089478 -11.481936 -24.371416
v 176.229019 -9.122207 -27.350576
v 175.413101 -10.566339 -20.078278
v 177.889664 -14.126428 -24.771509
v 177.581619 -12.032124 0.000001
v 118.575844 -4.581528 -6.417498
v 117.554909 -5.884298 -6.417499
v 117.554901 -4.581527 -0.898643
v 117.687370 -5.884297 -5.314741
v 117.004959 -5.884296 -5.314739
v 117.004951 -4.581528 -4.322723
v 115.094246 -4.581528 -4.322725
v 115.094246 -5.884297 -4.533463
v 114.020935 -4.581528 -4.533464
v 114.020935 -5.884297 -0.938516
v 117.664818 -4.581527 -0.938515
v 117.664825 -5.884297 -1.327737
v 116.417305 -4.581527 -1.327737
v 116.417313 -5.884296 -3.464329
v 111.294151 -5.884297 -3.464327
v 111.294128 -4.581529 -2.811252
v 111.037773 -5.884297 -2.811251
v 111.037766 -4.581528 -0.898645
v 117.687363 -4.581527 14.776740
v 154.634308 -15.830053 10.523430
v 145.711548 -16.992826 10.644558
v 150.135086 -16.944571 4.051095
v 131.624207 -16.809307 9.745620
v 140.226700 -16.600330 1.738147
v 140.144531 -21.231289 8.994032
v 159.624542 -13.724319 14.738554
v 156.149017 -12.965832 16.879454
v 150.933319 -11.239058 0.000000
v 160.767548 -13.732910 13.638155
v 145.973572 -15.160417 18.175137
v 145.802902 -9.593107 15.514081
v 140.813919 -11.942582 18.408300
v 141.146484 -8.324220 16.927948
v 145.995148 -13.105133 15.489050
v 136.103027 -9.872625 17.580172
v 136.233917 -8.050142 14.692853
v 131.811386 -8.831214 9.836484
v 158.340195 -17.531130 -8.994028
v 159.624542 -13.724320 -1.552211
v 159.987946 -19.581354 -10.217687
v 158.340195 -17.531128 -14.738554
v 156.149017 -12.965834 -14.637880
v 154.708160 -15.830056 -16.879454
v 150.933319 -11.239054 -10.587457
v 150.135086 -16.816032 -1.293179
v 152.224365 -23.399136 -0.412531
v 145.812332 -23.254601 -7.286803
v 140.887527 -16.927828 -2.514303
v 135.836975 -15.214998 -9.698142
v 145.605438 -17.255846 -16.927942
v 145.995148 -13.105133 -13.638153
v 145.973572 -14.221601 -15.514084
v 140.813919 -11.942579 -18.408300
v 141.146484 -8.324219 -18.175135
v 145.802902 -9.593107 -15.489053
v 136.103027 -9.872621 -17.580166
v 136.233917 -8.050146 -14.692854
v 131.811386 -8.831218 -1.552184
v 156.922897 -22.175249 10.145675
v 155.933548 -19.833307 -10.849456
v 155.933548 -19.833309 5.830921
v 152.002930 -22.811403 5.655131
v 160.439636 -19.285341 -6.455986
v 160.469330 -19.285341 -6.995409
v 152.229507 -21.908768 5.743026
v 157.264694 -21.733377 -6.762061
v 157.614365 -21.733377 -4.496422
v 140.516022 -18.783173 -5.980051
v 146.024963 -21.428028 -2.674573
v 140.330276 -19.864254 1.641739
v 160.936554 -19.433348 1.685688
v 157.738281 -21.954315 6.285517
v 140.185608 -20.867952 5.936726
v 145.761932 -22.541142 7.503605
v 136.215424 -16.621788 3.321636
v 136.174347 -18.994282 0.934480
v 136.267212 -17.746475 5.820832
v 136.194885 -18.476254 18.700703
v 136.394943 13.781822 16.363003
v 131.460464 3.863533 18.424265
v 141.068466 -2.266228 20.322487
v 141.469498 3.129688 18.408300
v 141.146484 -8.324220 18.175137
v 145.802902 -9.593107 16.196274
v 140.085846 -7.492774 18.424265
v 141.068466 -2.266228 18.424265
v 141.068466 -2.266228 16.785007
v 136.325455 0.411476 18.167362
v 139.803833 -5.431566 18.175137
v 145.802902 -9.593107 15.630611
v 145.704788 -9.780415 16.288395
v 145.846344 -8.072156 16.196274
v 140.085846 -7.492774 16.196274
v 140.085846 -7.492774 15.845078
v 132.057373 -5.404353 16.914623
v 131.598404 -1.454168 15.845078
v 132.057373 -5.404353 14.807469
v 126.112953 -5.639413 16.879454
v 150.933319 -11.239058 15.858745
v 160.077606 0.632350 8.804679
v 164.605255 -0.371044 18.175137
v 145.802902 -9.593107 0.000000
v 165.772247 -0.491764 20.119593
v 146.751205 2.684778 19.147476
v 155.429550 1.848728 20.322487
v 141.469498 3.129688 18.408300
v 141.146484 -8.324220 18.175137
v 145.802902 -9.593107 18.932192
v 140.404953 -5.236469 19.936152
v 140.575226 0.719496 21.491451
v 141.166779 0.085742 20.388954
v 140.991425 -5.682742 17.120190
v 132.013184 -4.252134 18.932192
v 140.404953 -5.236469 19.936152
v 140.575226 0.719496 17.951023
v 131.973022 0.240486 14.542088
v 124.742462 -3.593892 15.575401
v 126.237511 -0.240289 10.078972
v 121.354111 -4.252327 10.191685
v 122.188385 -1.486077 5.900096
v 120.161606 -5.145890 5.181953
v 120.532318 -3.116961 0.000001
v 119.246117 -6.020397 0.000001
v 119.254234 -4.642096 19.464996
v 141.026947 16.474342 16.523762
v 141.822006 21.353863 16.523762
v 141.822006 21.353863 16.566841
v 146.860855 22.384871 17.462681
v 141.688950 21.911291 18.346567
v 149.875732 19.970970 20.196474
v 144.913940 16.306473 20.403915
v 140.893890 17.031776 17.462681
v 141.688950 21.911291 17.505764
v 146.727798 22.942297 17.505764
v 146.727798 22.942297 19.285486
v 149.742676 20.528397 21.081102
v 146.328125 27.698746 19.285486
v 149.742676 20.528397 21.135399
v 144.780884 16.863897 26.516531
v 149.265305 22.912170 22.455467
v 138.680450 17.568563 20.403915
v 140.893890 17.031776 23.671148
v 143.972931 32.719852 33.449326
v 146.081924 25.862331 25.723574
v 138.096161 36.752308 38.242985
v 138.676453 28.284332 23.464153
v 134.737045 18.752520 25.498936
v 131.313187 37.644142 38.592567
v 131.074722 29.389812 22.603077
v 129.789276 18.858316 22.630980
v 124.330780 34.676411 31.262373
v 119.327011 27.707310 36.059326
v 124.027550 28.953495 19.534374
v 124.559914 17.273190 22.630980
v 124.330780 34.676411 20.575058
v 118.371521 31.010649 27.319664
v 115.569679 26.110516 17.658924
v 118.731377 16.979704 21.086458
v 114.022896 30.053110 26.258677
v 112.910995 26.882702 26.735254
v 111.110710 28.489702 20.435455
v 108.028931 22.595066 17.860498
v 112.881851 18.245836 23.337364
v 112.170280 31.144659 26.112877
v 112.027550 32.669788 27.883463
v 111.242096 31.127558 28.063599
v 107.722908 33.396397 24.342607
v 106.704208 28.602877 20.575058
v 118.371521 31.010649 28.892735
v 113.168968 33.510052 30.541397
v 111.629951 35.810673 28.892735
v 113.168968 33.510052 30.009766
v 116.421944 34.931438 15.382524
v 160.501694 -6.171143 16.232185
v 158.240143 -10.891277 18.889202
v 152.490921 -9.861978 19.521864
v 161.608032 -6.790548 16.980452
v 160.469772 -2.066398 15.382524
v 160.501694 -6.171143 20.439558
v 155.707382 0.090579 20.886469
v 144.848022 -3.443835 21.541594
v 146.692596 0.198475 28.331396
v 148.811584 -5.007177 20.231348
v 145.612350 -7.586916 20.886469
v 144.848022 -3.443835 32.889488
v 153.344452 -6.449984 20.828110
v 164.660294 -7.847893 33.600136
v 161.210785 -7.879638 22.322565
v 172.538544 -9.883541 19.694818
v 168.957733 -8.905220 28.224985
v 171.540695 -9.743139 32.101727
v 167.400436 -8.831039 28.224985
v 171.540695 -9.743139 22.114424
v 175.089478 -11.481943 28.224985
v 171.540695 -9.743139 27.350576
v 175.413116 -10.566335 20.078278
v 177.889664 -14.126430 24.771513
v 177.581635 -12.032111 32.101727
v 167.400436 -8.831039 0.000001
v 118.575844 -4.581528 0.000001
v 118.575851 -5.884295 -8.921502
v 166.819641 9.980440 -10.539966
v 164.660156 18.170723 -8.804680
v 164.605255 -0.371043 -13.108102
v 134.760086 22.105909 -11.735796
v 128.147842 13.550125 -16.363005
v 131.460464 3.863533 -18.700705
v 136.394943 13.781819 -10.006902
v 125.059448 4.285974 -0.000000
v 163.380356 -11.872701 -0.000000
v 166.279633 -3.146950 0.000003
v 159.189514 -17.369743 0.000002
v 152.363464 -14.655938 -13.772293
v 147.373169 25.695053 -12.930643
v 157.263611 23.278410 -18.424265
v 141.068451 -2.266228 -18.408300
v 141.146484 -8.324219 -20.322483
v 141.469498 3.129691 -18.175135
v 145.802902 -9.593107 -18.424265
v 141.068451 -2.266228 -16.196274
v 140.085846 -7.492778 -18.424265
v 141.068451 -2.266228 -18.167360
v 139.803833 -5.431574 -16.785004
v 136.325455 0.411477 -18.175135
v 145.802902 -9.593107 -15.630611
v 145.704788 -9.780420 -16.288391
v 145.846344 -8.072156 -16.196274
v 140.085846 -7.492778 -16.196274
v 140.085846 -7.492778 -15.845080
v 132.057373 -5.404351 -16.914623
v 131.598404 -1.454173 -15.845080
v 132.057373 -5.404351 -14.807467
v 126.112946 -5.639415 0.000000
v 160.767548 -13.732910 -16.879454
v 150.933319 -11.239054 -15.858747
v 160.077606 0.632349 -8.804680
v 164.605255 -0.371043 -18.175135
v 145.802902 -9.593107 0.000000
v 165.772247 -0.491764 -20.119589
v 146.751205 2.684777 -19.147474
v 155.429550 1.848728 -20.322483
v 141.469498 3.129691 -18.408300
v 141.146484 -8.324219 -18.175135
v 145.802902 -9.593107 -18.932192
v 140.404953 -5.236471 -19.936152
v 140.575226 0.719488 -21.491449
v 141.166779 0.085745 -20.388954
v 140.991425 -5.682739 -17.120188
v 132.013184 -4.252141 -18.932192
v 140.404953 -5.236471 -19.936152
v 140.575226 0.719488 -17.951023
v 131.973022 0.240488 -14.542089
v 124.742455 -3.593889 -15.575401
v 126.237503 -0.240290 -10.078970
v 121.354103 -4.252328 -10.191684
v 122.188377 -1.486078 -5.900096
v 120.161606 -5.145890 -5.181953
v 120.532310 -3.116960 0.000001
v 118.575851 -5.884295 0.000001
v 119.246117 -6.020397 0.000001
v 119.254234 -4.642096 0.000001
v 119.246117 -6.020397 0.000001
v 119.254234 -4.642096 -19.464991
v 141.026947 16.474350 -16.523758
v 141.822006 21.353863 -16.523758
v 141.822006 21.353863 -17.462677
v 141.688950 21.911293 -16.566841
v 146.860855 22.384869 -18.346561
v 149.875732 19.970968 -20.196476
v 144.913940 16.306473 -20.403910
v 140.893890 17.031778 -17.462677
v 141.688950 21.911293 -17.505762
v 146.727783 22.942301 -17.505762
v 146.727783 22.942301 -21.081099
v 146.328125 27.698750 -19.285479
v 149.742676 20.528399 -19.285479
v 149.742676 20.528399 -26.516525
v 149.265289 22.912172 -21.135395
v 144.780884 16.863901 -22.455462
v 138.680450 17.568569 -20.403910
v 140.893890 17.031778 -23.671146
v 143.972931 32.719852 -33.449333
v 146.081909 25.862331 -25.723574
v 138.096146 36.752308 -38.242985
v 138.676437 28.284330 -23.464151
v 134.737045 18.752525 -25.498934
v 131.313171 37.644138 -38.592583
v 131.074707 29.389809 -22.603075
v 129.789276 18.858316 -22.630980
v 124.330772 34.676411 -31.262373
v 119.326996 27.707314 -36.059326
v 124.027534 28.953499 -19.534372
v 124.559906 17.273190 -22.630980
v 124.330772 34.676411 -20.575060
v 118.371513 31.010651 -27.319666
v 115.569672 26.110516 -17.658924
v 118.731369 16.979706 -21.086458
v 114.022888 30.053110 -26.258675
v 112.910980 26.882700 -26.735254
v 111.110703 28.489700 -20.435457
v 108.028923 22.595064 -17.860498
v 112.881844 18.245838 -23.337364
v 112.170265 31.144657 -26.112879
v 112.027534 32.669792 -27.883463
v 111.242088 31.127556 -28.063601
v 107.722900 33.396400 -24.342607
v 106.704201 28.602877 -20.575060
v 118.371513 31.010651 -28.892733
v 113.168961 33.510056 -30.541401
v 111.629936 35.810669 -30.009764
v 116.421928 34.931442 -28.892733
v 113.168961 33.510056 -15.382523
v 160.501694 -6.171144 -16.232187
v 158.240143 -10.891275 -18.889198
v 152.490921 -9.861982 -19.521864
v 161.608032 -6.790551 -16.980452
v 160.469757 -2.066392 -15.382523
v 160.501694 -6.171144 -20.439554
v 155.707382 0.090582 -20.886465
v 144.848022 -3.443841 -21.541588
v 146.692596 0.198481 -28.331396
v 148.811569 -5.007171 -20.231344
v 145.612350 -7.586913 -20.886465
v 144.848022 -3.443841 -32.889488
v 153.344452 -6.449994 -20.828110
v 164.660294 -7.847885 -33.600136
v 161.210785 -7.879640 -19.694815
v 168.957718 -8.905228 -22.322563
v 172.538544 -9.883552 -32.101715
v 167.400421 -8.831050 -28.224979
v 171.540680 -9.743141 -28.224979
v 171.540680 -9.743141 -22.114426
v 175.089478 -11.481936 -28.224979
v 171.540680 -9.743141 -27.350576
v 175.413101 -10.566339 -24.771509
v 177.581619 -12.032124 -20.078278
v 177.889664 -14.126428 -32.101715
v 167.400421 -8.831050 0.000001
v 118.575844 -4.581528 0.000001
v 118.575851 -5.884295 0.000001
v 117.859116 -5.884297 0.000001
v 117.859116 -4.581527 0.101562

vt 0.851562 0.835938
vt 0.851562 0.439929
vt 0.768462 0.235412
vt 0.964086 0.395469
vt 0.870720 0.980469
vt 0.851562 0.133154
vt 0.981871 0.479943
vt 0.679541 0.464400
vt 0.120496 0.306548
vt 0.421672 0.382130
vt 0.657311 0.310994
vt 0.515039 0.230966
vt 0.804030 0.226520
vt 0.875166 0.315440
vt 0.826260 0.239858
vt 0.537269 0.230966
vt 0.439457 0.226520
vt 0.359428 0.493281
vt 0.581729 0.524403
vt 0.559499 0.546633
vt 0.608405 0.748521
vt 0.272535 0.819760
vt 0.263143 0.851931
vt 0.355721 0.872913
vt 0.294972 0.781434
vt 0.225530 0.346562
vt 0.737340 0.239858
vt 0.728448 0.248750
vt 0.643973 0.488835
vt 0.621743 0.683018
vt 0.613028 0.741297
vt 0.213591 0.794829
vt 0.121748 0.781813
vt 0.101858 0.483438
vt 0.051946 0.775294
vt 0.172733 0.669230
vt 0.627402 0.841485
vt 0.062812 0.833169
vt 0.051601 0.462293
vt 0.033278 0.883367
vt 0.027129 0.133154
vt 0.888504 0.133154
vt 0.537269 0.133154
vt 0.439457 0.898438
vt 0.878906 0.835938
vt 0.878906 0.898438
vt 0.953125 0.832031
vt 0.953125 0.980469
vt 0.953125 0.730469
vt 0.953125 0.730469
vt 0.878906 0.683594
vt 0.878906 0.781250
vt 0.878906 0.342116
vt 0.630635 0.337670
vt 0.603959 0.284318
vt 0.643973 0.293210
vt 0.603959 0.310994
vt 0.670649 0.683594
vt 0.953125 0.723455
vt 0.629526 0.698295
vt 0.618129 0.970669
vt 0.297651 0.928872
vt 0.297651 0.741149
vt 0.594482 0.721382
vt 0.581889 0.970669
vt 0.222417 0.937231
vt 0.234956 0.752546
vt 0.569322 0.983208
vt 0.222417 0.970669
vt 0.168081 0.945591
vt 0.172261 0.762748
vt 0.538768 0.983208
vt 0.168081 0.970669
vt 0.126284 0.949770
vt 0.122105 0.765457
vt 0.512705 0.983208
vt 0.126284 0.970669
vt 0.067769 0.953950
vt 0.067769 0.414062
vt 0.972656 0.457031
vt 0.972656 0.300781
vt 0.972656 0.519531
vt 0.972656 0.347656
vt 0.972656 0.932317
vt 0.732195 0.491707
vt 0.945581 0.505486
vt 0.892990 0.647935
vt 0.604486 0.903336
vt 0.704729 0.444693
vt 0.830847 0.539849
vt 0.950870 0.694404
vt 0.559297 0.880656
vt 0.668814 0.468104
vt 0.807457 0.595288
vt 0.933785 0.547076
vt 0.877585 0.729835
vt 0.495920 0.877122
vt 0.610868 0.491950
vt 0.771451 0.581620
vt 0.847406 0.740304
vt 0.435749 0.908175
vt 0.556125 0.521112
vt 0.719645 0.653848
vt 0.841894 0.596664
vt 0.800252 0.719105
vt 0.325188 0.920305
vt 0.478635 0.619909
vt 0.654558 0.691772
vt 0.755498 0.639064
vt 0.716965 0.700022
vt 0.259347 0.867669
vt 0.422276 0.737155
vt 0.695700 0.664564
vt 0.237780 0.718037
vt 0.719483 0.699726
vt 0.239959 0.756417
vt 0.812050 0.609445
vt 0.752479 0.565794
vt 0.678252 0.670767
vt 0.785720 0.706058
vt 0.282037 0.925206
vt 0.517854 0.737503
vt 0.376218 0.633267
vt 0.899804 0.748838
vt 0.744543 0.770941
vt 0.736312 0.735484
vt 0.763423 0.695333
vt 0.217527 0.837552
vt 0.408319 0.680311
vt 0.707248 0.684159
vt 0.660546 0.898502
vt 0.445164 0.778807
vt 0.779297 0.761951
vt 0.775862 0.745426
vt 0.785032 0.800455
vt 0.407697 0.843750
vt 0.917969 0.773438
vt 0.953125 0.718750
vt 0.914062 0.503785
vt 0.395553 0.503785
vt 0.395553 0.525699
vt 0.293850 0.525699
vt 0.293850 0.511104
vt 0.349541 0.514639
vt 0.435529 0.511104
vt 0.349541 0.533018
vt 0.247838 0.478459
vt 0.302273 0.478459
vt 0.302273 0.482036
vt 0.351930 0.482036
vt 0.351930 0.470035
vt 0.255033 0.443178
vt 0.443925 0.443178
vt 0.443925 0.451629
vt 0.466945 0.389972
vt 0.373625 0.389972
vt 0.373625 0.419215
vt 0.411671 0.419215
vt 0.411671 0.366980
vt 0.357855 0.378540
vt 0.519780 0.471072
vt 0.408837 0.484356
vt 0.441550 0.471072
vt 0.408837 0.420719
vt 0.479602 0.398112
vt 0.451466 0.398112
vt 0.451466 0.364495
vt 0.413560 0.380756
vt 0.477502 0.352302
vt 0.486209 0.446892
vt 0.372478 0.446892
vt 0.372478 0.423928
vt 0.332488 0.405797
vt 0.302191 0.423928
vt 0.332488 0.401216
vt 0.496648 0.380756
vt 0.477502 0.347496
vt 0.452294 0.778167
vt 0.314848 0.824219
vt 0.210938 0.824219
vt 0.210938 0.800781
vt 0.214844 0.800781
vt 0.214844 0.855469
vt 0.187500 0.855469
vt 0.187500 0.859375
vt 0.167969 0.859375
vt 0.167969 0.890625
vt 0.226562 0.890625
vt 0.226562 0.906250
vt 0.101562 0.906250
vt 0.101562 0.890625
vt 0.101562 0.890625
vt 0.101562 0.890625
vt 0.253906 0.890625
vt 0.253906 0.890625
vt 0.253906 0.890625
vt 0.253906 0.906250
vt 0.257812 0.906250
vt 0.257812 0.898438
vt 0.953125 0.898438
vt 0.878906 0.835938
vt 0.878906 0.843750
vt 0.917969 0.832031
vt 0.953125 0.346562
vt 0.737340 0.315440
vt 0.826260 0.439929
vt 0.768462 0.230966
vt 0.804030 0.226520
vt 0.875166 0.235412
vt 0.964086 0.395469
vt 0.870720 0.133154
vt 0.808476 0.026449
vt 0.728448 0.133154
vt 0.732894 0.133154
vt 0.643973 0.026449
vt 0.537269 0.310994
vt 0.515039 0.230966
vt 0.439457 0.306548
vt 0.421672 0.493281
vt 0.581729 0.133154
vt 0.359428 0.039787
vt 0.359428 0.479943
vt 0.679541 0.382130
vt 0.657311 0.017557
vt 0.643973 0.488835
vt 0.621743 0.980469
vt 0.878906 0.524403
vt 0.559499 0.546633
vt 0.608405 0.683594
vt 0.953125 0.730469
vt 0.953125 0.718750
vt 0.914062 0.730469
vt 0.878906 0.683594
vt 0.878906 0.741297
vt 0.213591 0.748521
vt 0.272535 0.781434
vt 0.225530 0.778167
vt 0.314848 0.819760
vt 0.263143 0.310994
vt 0.670649 0.669230
vt 0.627402 0.683018
vt 0.613028 0.723455
vt 0.629526 0.698295
vt 0.618129 0.794829
vt 0.121748 0.781813
vt 0.101858 0.775294
vt 0.172733 0.464400
vt 0.120496 0.483438
vt 0.051946 0.841485
vt 0.062812 0.833169
vt 0.051601 0.462293
vt 0.033278 0.883367
vt 0.027129 0.898438
vt 0.851562 0.835938
vt 0.851562 0.781250
vt 0.878906 0.773438
vt 0.953125 0.293210
vt 0.603959 0.337670
vt 0.603959 0.284318
vt 0.643973 0.342116
vt 0.630635 0.970669
vt 0.297651 0.928872
vt 0.297651 0.741149
vt 0.594482 0.721382
vt 0.581889 0.970669
vt 0.222417 0.937231
vt 0.234956 0.983208
vt 0.222417 0.752546
vt 0.569322 0.970669
vt 0.168081 0.945591
vt 0.172261 0.983208
vt 0.168081 0.762748
vt 0.538768 0.970669
vt 0.126284 0.949770
vt 0.122105 0.983208
vt 0.126284 0.765457
vt 0.512705 0.983208
vt 0.071948 0.768167
vt 0.486641 0.519531
vt 0.972656 0.457031
vt 0.972656 0.300781
vt 0.972656 0.347656
vt 0.972656 0.414062
vt 0.972656 0.505486
vt 0.892990 0.444693
vt 0.830847 0.491707
vt 0.945581 0.647935
vt 0.604486 0.932317
vt 0.732195 0.539849
vt 0.950870 0.694404
vt 0.559297 0.903336
vt 0.704729 0.547076
vt 0.877585 0.468104
vt 0.807457 0.595288
vt 0.933785 0.729835
vt 0.495920 0.880656
vt 0.668814 0.581620
vt 0.847406 0.491950
vt 0.771451 0.633267
vt 0.899804 0.740304
vt 0.435749 0.877122
vt 0.610868 0.596664
vt 0.800252 0.521112
vt 0.719645 0.653848
vt 0.841894 0.737503
vt 0.376218 0.719105
vt 0.325188 0.908175
vt 0.556125 0.609445
vt 0.752479 0.565794
vt 0.678252 0.670767
vt 0.785720 0.706058
vt 0.282037 0.925206
vt 0.517854 0.639064
vt 0.716965 0.680311
vt 0.707248 0.684159
vt 0.660546 0.619909
vt 0.654558 0.691772
vt 0.755498 0.699726
vt 0.239959 0.664564
vt 0.237780 0.700022
vt 0.259347 0.898502
vt 0.445164 0.867669
vt 0.422276 0.920305
vt 0.478635 0.737155
vt 0.695700 0.718037
vt 0.719483 0.748838
vt 0.744543 0.770941
vt 0.736312 0.735484
vt 0.763423 0.695333
vt 0.217527 0.837552
vt 0.408319 0.761951
vt 0.775862 0.778807
vt 0.779297 0.745426
vt 0.785032 0.800455
vt 0.407697 0.756417
vt 0.812050 0.503785
vt 0.395553 0.514639
vt 0.435529 0.511104
vt 0.349541 0.503785
vt 0.395553 0.511104
vt 0.349541 0.525699
vt 0.293850 0.533018
vt 0.247838 0.525699
vt 0.293850 0.482036
vt 0.351930 0.482036
vt 0.351930 0.478459
vt 0.302273 0.470035
vt 0.255033 0.478459
vt 0.302273 0.471072
vt 0.408837 0.484356
vt 0.441550 0.446892
vt 0.372478 0.471072
vt 0.408837 0.446892
vt 0.372478 0.423928
vt 0.332488 0.405797
vt 0.302191 0.423928
vt 0.332488 0.451629
vt 0.466945 0.443178
vt 0.443925 0.420719
vt 0.479602 0.419215
vt 0.411671 0.398112
vt 0.451466 0.443178
vt 0.443925 0.419215
vt 0.411671 0.398112
vt 0.451466 0.366980
vt 0.357855 0.389972
vt 0.373625 0.364495
vt 0.413560 0.389972
vt 0.373625 0.380756
vt 0.477502 0.401216
vt 0.496648 0.380756
vt 0.477502 0.347496
vt 0.452294 0.378540
vt 0.519780 0.352302
vt 0.486209 0.953950
vt 0.067769 0.800781
vt 0.214844 0.800781
vt 0.214844 0.890625
vt 0.253906 0.824219
vt 0.210938 0.824219
vt 0.210938 0.855469
vt 0.187500 0.855469
vt 0.187500 0.859375
vt 0.167969 0.859375
vt 0.167969 0.890625
vt 0.253906 0.890625
vt 0.253906 0.890625
vt 0.226562 0.890625
vt 0.226562 0.890625
vt 0.101562 0.890625
vt 0.101562 0.906250
vt 0.101562 0.906250
vt 0.101562 0.890625
vt 0.253906 0.073624
vt 0.240405 0.103152
vt 0.150483 0.103966
vt 0.197116 0.170795
vt 0.017136 0.113861
vt 0.095875 0.199557
vt 0.106040 0.090321
vt 0.306197 0.050579
vt 0.256356 0.030267
vt 0.206177 0.211332
vt 0.335182 0.080039
vt 0.162548 0.021545
vt 0.151907 0.059727
vt 0.112368 0.016913
vt 0.109228 0.052837
vt 0.163023 0.055027
vt 0.065804 0.027757
vt 0.062392 0.058235
vt 0.026875 0.113163
vt 0.278587 0.331393
vt 0.309763 0.230152
vt 0.299869 0.315306
vt 0.278946 0.373257
vt 0.258498 0.353488
vt 0.239407 0.399578
vt 0.207505 0.321653
vt 0.197203 0.224909
vt 0.222215 0.220005
vt 0.163992 0.292891
vt 0.108299 0.264671
vt 0.050482 0.313135
vt 0.154592 0.387106
vt 0.161075 0.355950
vt 0.157732 0.374566
vt 0.110760 0.417245
vt 0.106128 0.418127
vt 0.156647 0.377638
vt 0.064060 0.404840
vt 0.063585 0.373074
vt 0.025267 0.225655
vt 0.264962 0.124346
vt 0.251181 0.307059
vt 0.251879 0.166482
vt 0.215461 0.156316
vt 0.301157 0.276716
vt 0.295169 0.271474
vt 0.217515 0.163410
vt 0.262161 0.272355
vt 0.268034 0.265688
vt 0.108773 0.266638
vt 0.163178 0.238418
vt 0.105362 0.195313
vt 0.308251 0.198520
vt 0.269323 0.160697
vt 0.106719 0.165465
vt 0.157170 0.136567
vt 0.060493 0.183267
vt 0.063565 0.206516
vt 0.059272 0.159951
vt 0.063972 0.399915
vt 0.541715 0.493281
vt 0.510593 0.709374
vt 0.629819 0.731240
vt 0.639117 0.683018
vt 0.613028 0.754684
vt 0.163690 0.454202
vt 0.090592 0.485410
vt 0.082896 0.753971
vt 0.087751 0.777121
vt 0.039298 0.781813
vt 0.101858 0.754684
vt 0.163690 0.775294
vt 0.172733 0.787660
vt 0.179432 0.794829
vt 0.121748 0.453978
vt 0.090888 0.443332
vt 0.045925 0.819070
vt 0.025562 0.443194
vt 0.046016 0.425299
vt 0.017502 0.781250
vt 0.851562 0.832031
vt 0.980469 0.898438
vt 0.980469 0.730469
vt 0.851562 0.980469
vt 0.980469 0.730469
vt 0.980469 0.773438
vt 0.980469 0.683594
vt 0.980469 0.683594
vt 0.851562 0.754684
vt 0.163690 0.667969
vt 0.878906 0.667969
vt 0.953125 0.916333
vt 0.385425 0.970669
vt 0.385425 0.983208
vt 0.297651 0.983208
vt 0.372886 0.907974
vt 0.372886 0.920513
vt 0.289292 0.734878
vt 0.553435 0.928872
vt 0.230776 0.746276
vt 0.528274 0.937231
vt 0.172261 0.753475
vt 0.509703 0.941411
vt 0.122105 0.764872
vt 0.484543 0.945591
vt 0.067769 0.457031
vt 0.988281 0.519531
vt 0.988281 0.246094
vt 0.988281 0.300781
vt 0.988281 0.246094
vt 0.972656 0.347656
vt 0.988281 0.414062
vt 0.988281 0.430430
vt 0.849487 0.457056
vt 0.886754 0.447075
vt 0.927649 0.573905
vt 0.612781 0.596854
vt 0.636211 0.595758
vt 0.571530 0.960469
vt 0.803993 0.963095
vt 0.749777 0.895715
vt 0.793696 0.964516
vt 0.695875 0.978049
vt 0.719021 0.604836
vt 0.524053 0.828038
vt 0.763458 0.613512
vt 0.465864 0.777084
vt 0.698149 0.957937
vt 0.659154 0.619663
vt 0.411848 0.762345
vt 0.629203 0.960083
vt 0.617808 0.625071
vt 0.347655 0.814668
vt 0.515493 0.778834
vt 0.563847 0.974712
vt 0.570318 0.625071
vt 0.347655 0.636763
vt 0.290916 0.850368
vt 0.483434 0.979581
vt 0.521680 0.651079
vt 0.258356 0.855000
vt 0.460690 0.846605
vt 0.442407 0.936524
vt 0.428305 0.968949
vt 0.474801 0.714854
vt 0.752319 0.675803
vt 0.215283 0.825493
vt 0.430936 0.837735
vt 0.380826 0.886885
vt 0.394565 0.636763
vt 0.290916 0.687138
vt 0.193240 0.794940
vt 0.390562 0.798298
vt 0.426577 0.767193
vt 0.421128 0.549755
vt 0.439202 0.547380
vt 0.398024 0.559545
vt 0.349596 0.514639
vt 0.435529 0.547380
vt 0.398024 0.549755
vt 0.439202 0.559545
vt 0.349596 0.604452
vt 0.263663 0.589883
vt 0.295134 0.533018
vt 0.247838 0.589883
vt 0.295134 0.604452
vt 0.263663 0.470035
vt 0.255033 0.484356
vt 0.441550 0.405797
vt 0.302191 0.420719
vt 0.479602 0.451629
vt 0.466945 0.364495
vt 0.413560 0.366980
vt 0.357855 0.364495
vt 0.413560 0.401216
vt 0.496648 0.364495
vt 0.413560 0.347496
vt 0.452294 0.378540
vt 0.519780 0.352302
vt 0.486209 0.366980
vt 0.357855 0.894531
vt 0.273438 0.894531
vt 0.273438 0.039787
vt 0.875166 0.035341
vt 0.804030 0.030895
vt 0.964086 0.239858
vt 0.537269 0.035341
vt 0.439457 0.493281
vt 0.510593 0.399915
vt 0.541715 0.226520
vt 0.359428 0.980469
vt 0.878906 0.980469
vt 0.953125 0.851931
vt 0.355721 0.872913
vt 0.294972 0.248750
vt 0.643973 0.239858
vt 0.728448 0.709374
vt 0.629819 0.683018
vt 0.613028 0.731240
vt 0.639117 0.754684
vt 0.163690 0.485410
vt 0.082896 0.454202
vt 0.090592 0.753971
vt 0.087751 0.781813
vt 0.101858 0.777121
vt 0.039298 0.754684
vt 0.163690 0.775294
vt 0.172733 0.787660
vt 0.179432 0.794829
vt 0.121748 0.453978
vt 0.090888 0.443332
vt 0.045925 0.819070
vt 0.025562 0.443194
vt 0.046016 0.425299
vt 0.017502 0.980469
vt 0.851562 0.781250
vt 0.851562 0.832031
vt 0.980469 0.898438
vt 0.980469 0.730469
vt 0.851562 0.980469
vt 0.980469 0.730469
vt 0.980469 0.773438
vt 0.980469 0.683594
vt 0.980469 0.683594
vt 0.851562 0.754684
vt 0.163690 0.667969
vt 0.878906 0.667969
vt 0.953125 0.916333
vt 0.385425 0.970669
vt 0.385425 0.983208
vt 0.297651 0.983208
vt 0.372886 0.907974
vt 0.372886 0.920513
vt 0.289292 0.734878
vt 0.553435 0.928872
vt 0.230776 0.746276
vt 0.528274 0.937231
vt 0.172261 0.753475
vt 0.509703 0.941411
vt 0.122105 0.970669
vt 0.067769 0.983208
vt 0.071948 0.768167
vt 0.486641 0.764872
vt 0.484543 0.945591
vt 0.067769 0.457031
vt 0.988281 0.519531
vt 0.988281 0.246094
vt 0.988281 0.246094
vt 0.972656 0.300781
vt 0.988281 0.347656
vt 0.988281 0.414062
vt 0.988281 0.430430
vt 0.849487 0.457056
vt 0.886754 0.447075
vt 0.927649 0.573905
vt 0.612781 0.595758
vt 0.571530 0.596854
vt 0.636211 0.960469
vt 0.803993 0.895715
vt 0.793696 0.963095
vt 0.749777 0.964516
vt 0.695875 0.978049
vt 0.719021 0.604836
vt 0.524053 0.828038
vt 0.763458 0.613512
vt 0.465864 0.777084
vt 0.698149 0.957937
vt 0.659154 0.619663
vt 0.411848 0.762345
vt 0.629203 0.960083
vt 0.617808 0.625071
vt 0.347655 0.814668
vt 0.515493 0.778834
vt 0.563847 0.974712
vt 0.570318 0.625071
vt 0.347655 0.636763
vt 0.290916 0.850368
vt 0.483434 0.979581
vt 0.521680 0.651079
vt 0.258356 0.855000
vt 0.460690 0.846605
vt 0.442407 0.936524
vt 0.428305 0.968949
vt 0.474801 0.714854
vt 0.752319 0.675803
vt 0.215283 0.825493
vt 0.430936 0.837735
vt 0.380826 0.886885
vt 0.394565 0.636763
vt 0.290916 0.687138
vt 0.193240 0.794940
vt 0.390562 0.767193
vt 0.421128 0.798298
vt 0.426577 0.549755
vt 0.439202 0.547380
vt 0.398024 0.559545
vt 0.349596 0.514639
vt 0.435529 0.547380
vt 0.398024 0.549755
vt 0.439202 0.559545
vt 0.349596 0.604452
vt 0.263663 0.589883
vt 0.295134 0.533018
vt 0.247838 0.589883
vt 0.295134 0.604452
vt 0.263663 0.470035
vt 0.255033 0.484356
vt 0.441550 0.405797
vt 0.302191 0.451629
vt 0.466945 0.420719
vt 0.479602 0.366980
vt 0.357855 0.364495
vt 0.413560 0.364495
vt 0.413560 0.401216
vt 0.496648 0.364495
vt 0.413560 0.347496
vt 0.452294 0.352302
vt 0.486209 0.378540
vt 0.519780 0.366980
vt 0.357855 0.894531
vt 0.273438 0.894531
vt 0.273438 0.906250
vt 0.257812 0.906250
vt 0.257812 1.000000

f 47/47 46/46 45/45
f 47/47 137/137 46/46
f 47/47 48/48 137/137
f 27/27 3/3 15/15
f 15/15 14/14 13/13
f 4/4 15/15 5/5
f 14/14 42/42 212/212
f 28/28 13/13 214/214
f 42/42 4/4 7/7
f 43/43 16/16 215/215
f 12/12 16/16 17/17
f 43/43 44/44 17/17
f 10/10 12/12 17/17
f 19/19 454/454 455/455
f 221/221 18/18 44/44
f 8/8 11/11 454/454
f 17/17 18/18 10/10
f 214/214 29/29 28/28
f 8/8 3/3 27/27
f 30/30 454/454 19/19
f 454/454 30/30 8/8
f 47/47 227/227 49/49
f 227/227 47/47 45/45
f 455/455 20/20 19/19
f 21/21 19/19 20/20
f 19/19 21/21 30/30
f 59/59 139/139 50/50
f 59/59 51/51 139/139
f 59/59 52/52 51/51
f 32/32 26/26 22/22
f 179/179 23/23 24/24
f 25/25 24/24 23/23
f 22/22 26/26 23/23
f 15/15 3/3 5/5
f 14/14 15/15 4/4
f 29/29 58/58 28/28
f 8/8 27/27 11/11
f 13/13 28/28 15/15
f 28/28 27/27 15/15
f 37/37 31/31 456/456
f 456/456 60/60 457/457
f 456/456 61/61 60/60
f 456/456 458/458 61/61
f 459/459 33/33 36/36
f 33/33 459/459 34/34
f 35/35 9/9 460/460
f 9/9 35/35 461/461
f 462/462 463/463 464/464
f 36/36 32/32 465/465
f 32/32 36/36 26/26
f 466/466 467/467 26/26
f 467/467 466/466 468/468
f 38/38 464/464 39/39
f 464/464 38/38 33/33
f 40/40 469/469 470/470
f 469/469 40/40 35/35
f 39/39 463/463 471/471
f 463/463 39/39 464/464
f 39/39 41/41 38/38
f 472/472 473/473 40/40
f 471/471 41/41 39/39
f 4/4 42/42 14/14
f 215/215 29/29 214/214
f 14/14 212/212 13/13
f 29/29 215/215 16/16
f 44/44 18/18 17/17
f 17/17 16/16 43/43
f 45/45 6/6 227/227
f 6/6 45/45 1/1
f 53/53 2/2 46/46
f 2/2 53/53 474/474
f 47/47 475/475 48/48
f 475/475 47/47 476/476
f 51/51 474/474 53/53
f 474/474 51/51 477/477
f 49/49 476/476 47/47
f 476/476 49/49 478/478
f 138/138 479/479 50/50
f 479/479 138/138 480/480
f 50/50 481/481 59/59
f 481/481 50/50 479/479
f 48/48 480/480 138/138
f 480/480 48/48 475/475
f 46/46 1/1 45/45
f 1/1 46/46 2/2
f 52/52 477/477 51/51
f 477/477 52/52 482/482
f 212/212 214/214 13/13
f 462/462 464/464 483/483
f 12/12 57/57 16/16
f 57/57 12/12 55/55
f 16/16 56/56 29/29
f 56/56 16/16 57/57
f 29/29 56/56 58/58
f 11/11 55/55 454/454
f 55/55 11/11 54/54
f 58/58 54/54 11/11
f 27/27 58/58 11/11
f 28/28 58/58 27/27
f 52/52 484/484 482/482
f 485/485 59/59 481/481
f 62/62 486/486 63/63
f 486/486 62/62 487/487
f 64/64 61/61 65/65
f 61/61 64/64 60/60
f 488/488 487/487 62/62
f 487/487 488/488 489/489
f 63/63 490/490 491/491
f 490/490 63/63 486/486
f 66/66 63/63 67/67
f 63/63 66/66 62/62
f 69/69 62/62 66/66
f 62/62 69/69 488/488
f 68/68 65/65 492/492
f 65/65 68/68 64/64
f 67/67 491/491 493/493
f 491/491 67/67 63/63
f 70/70 67/67 71/71
f 67/67 70/70 66/66
f 73/73 66/66 70/70
f 66/66 73/73 69/69
f 72/72 492/492 494/494
f 492/492 72/72 68/68
f 71/71 493/493 495/495
f 493/493 71/71 67/67
f 74/74 71/71 75/75
f 71/71 74/74 70/70
f 77/77 70/70 74/74
f 70/70 77/77 73/73
f 76/76 494/494 496/496
f 494/494 76/76 72/72
f 75/75 495/495 497/497
f 495/495 75/75 71/71
f 78/78 75/75 79/79
f 75/75 78/78 74/74
f 278/278 74/74 78/78
f 74/74 278/278 77/77
f 279/279 496/496 498/498
f 496/496 279/279 76/76
f 79/79 497/497 499/499
f 497/497 79/79 75/75
f 500/500 83/83 501/501
f 83/83 500/500 81/81
f 502/502 82/82 503/503
f 82/82 502/502 504/504
f 503/503 84/84 505/505
f 84/84 503/503 82/82
f 505/505 80/80 506/506
f 80/80 505/505 84/84
f 506/506 81/81 500/500
f 81/81 506/506 80/80
f 507/507 87/87 508/508
f 87/87 507/507 90/90
f 508/508 86/86 509/509
f 86/86 508/508 87/87
f 510/510 88/88 511/511
f 88/88 510/510 512/512
f 513/513 85/85 514/514
f 85/85 513/513 515/515
f 514/514 516/516 517/517
f 516/516 514/514 85/85
f 87/87 91/91 86/86
f 512/512 92/92 88/88
f 92/92 512/512 518/518
f 515/515 89/89 85/85
f 89/89 515/515 519/519
f 85/85 89/89 516/516
f 90/90 96/96 87/87
f 96/96 90/90 94/94
f 87/87 95/95 91/91
f 95/95 87/87 96/96
f 518/518 97/97 92/92
f 97/97 518/518 520/520
f 519/519 93/93 89/89
f 93/93 519/519 521/521
f 89/89 522/522 516/516
f 522/522 89/89 93/93
f 94/94 100/100 96/96
f 100/100 94/94 99/99
f 96/96 124/124 95/95
f 124/124 96/96 100/100
f 523/523 97/97 520/520
f 97/97 523/523 101/101
f 98/98 521/521 524/524
f 521/521 98/98 93/93
f 93/93 525/525 522/522
f 525/525 93/93 98/98
f 99/99 105/105 100/100
f 105/105 99/99 103/103
f 100/100 104/104 124/124
f 104/104 100/100 105/105
f 106/106 523/523 526/526
f 523/523 106/106 123/123
f 527/527 98/98 528/528
f 98/98 527/527 102/102
f 98/98 529/529 525/525
f 529/529 98/98 102/102
f 119/119 105/105 103/103
f 105/105 119/119 118/118
f 118/118 104/104 105/105
f 104/104 118/118 120/120
f 121/121 530/530 531/531
f 530/530 121/121 106/106
f 122/122 527/527 532/532
f 527/527 122/122 102/102
f 533/533 102/102 122/122
f 102/102 533/533 529/529
f 131/131 110/110 108/108
f 110/110 131/131 130/130
f 110/110 130/130 109/109
f 534/534 116/116 111/111
f 116/116 534/534 114/114
f 112/112 535/535 536/536
f 535/535 112/112 132/132
f 537/537 107/107 132/132
f 107/107 537/537 538/538
f 125/125 113/113 126/126
f 113/113 125/125 115/115
f 125/125 539/539 115/115
f 539/539 125/125 127/127
f 540/540 116/116 114/114
f 116/116 540/540 128/128
f 541/541 112/112 536/536
f 112/112 541/541 129/129
f 542/542 112/112 129/129
f 112/112 542/542 543/543
f 119/119 110/110 118/118
f 110/110 119/119 108/108
f 110/110 120/120 118/118
f 120/120 110/110 109/109
f 534/534 121/121 544/544
f 121/121 534/534 111/111
f 532/532 107/107 122/122
f 107/107 532/532 535/535
f 122/122 538/538 533/533
f 538/538 122/122 107/107
f 101/101 523/523 123/123
f 524/524 528/528 98/98
f 133/133 125/125 126/126
f 125/125 133/133 134/134
f 134/134 127/127 125/125
f 127/127 134/134 135/135
f 128/128 540/540 545/545
f 546/546 129/129 136/136
f 129/129 546/546 542/542
f 131/131 115/115 130/130
f 115/115 131/131 113/113
f 132/132 543/543 537/537
f 543/543 132/132 112/112
f 535/535 132/132 107/107
f 115/115 109/109 130/130
f 109/109 115/115 539/539
f 134/134 133/133 117/117
f 135/135 134/134 117/117
f 136/136 547/547 548/548
f 546/546 136/136 548/548
f 140/140 549/549 145/145
f 549/549 140/140 550/550
f 144/144 550/550 140/140
f 550/550 144/144 551/551
f 552/552 553/553 141/141
f 553/553 552/552 554/554
f 141/141 555/555 146/146
f 555/555 141/141 553/553
f 142/142 556/556 147/147
f 556/556 142/142 557/557
f 146/146 557/557 142/142
f 557/557 146/146 555/555
f 558/558 559/559 143/143
f 559/559 558/558 560/560
f 143/143 551/551 144/144
f 551/551 143/143 559/559
f 140/140 150/150 144/144
f 141/141 146/146 151/151
f 148/148 147/147 152/152
f 147/147 148/148 142/142
f 151/151 142/142 148/148
f 142/142 151/151 146/146
f 561/561 143/143 149/149
f 143/143 561/561 558/558
f 149/149 144/144 150/150
f 144/144 149/149 143/143
f 145/145 162/162 140/140
f 162/162 145/145 163/163
f 140/140 171/171 150/150
f 171/171 140/140 162/162
f 552/552 164/164 562/562
f 164/164 552/552 141/141
f 151/151 164/164 141/141
f 164/164 151/151 172/172
f 148/148 174/174 173/173
f 174/174 148/148 152/152
f 151/151 173/173 172/172
f 173/173 151/151 148/148
f 149/149 563/563 561/561
f 563/563 149/149 175/175
f 150/150 175/175 149/149
f 175/175 150/150 171/171
f 155/155 165/165 153/153
f 158/158 165/165 166/166
f 165/165 158/158 153/153
f 154/154 564/564 565/565
f 159/159 564/564 154/154
f 564/564 159/159 167/167
f 160/160 168/168 156/156
f 156/156 167/167 159/159
f 167/167 156/156 168/168
f 157/157 566/566 567/567
f 157/157 166/166 568/568
f 166/166 157/157 158/158
f 162/162 155/155 153/153
f 155/155 162/162 163/163
f 562/562 154/154 565/565
f 154/154 562/562 164/164
f 177/177 165/165 176/176
f 165/165 177/177 166/166
f 564/564 169/169 569/569
f 169/169 564/564 167/167
f 169/169 168/168 178/178
f 168/168 169/169 167/167
f 570/570 177/177 571/571
f 177/177 570/570 166/166
f 169/169 170/170 161/161
f 177/177 572/572 573/573
f 173/173 160/160 156/156
f 160/160 173/173 174/174
f 172/172 156/156 159/159
f 156/156 172/172 173/173
f 574/574 175/175 157/157
f 175/175 574/574 563/563
f 157/157 171/171 158/158
f 171/171 157/157 175/175
f 158/158 162/162 153/153
f 162/162 158/158 171/171
f 164/164 159/159 154/154
f 159/159 164/164 172/172
f 177/177 176/176 572/572
f 569/569 169/169 161/161
f 170/170 169/169 178/178
f 573/573 571/571 177/177
f 541/541 136/136 129/129
f 136/136 541/541 547/547
f 23/23 179/179 22/22
f 183/183 575/575 182/182
f 575/575 183/183 576/576
f 576/576 180/180 197/197
f 180/180 576/576 183/183
f 185/185 180/180 184/184
f 180/180 185/185 181/181
f 186/186 181/181 185/185
f 181/181 186/186 182/182
f 187/187 182/182 186/186
f 182/182 187/187 183/183
f 184/184 183/183 187/187
f 183/183 184/184 180/180
f 185/185 195/195 194/194
f 195/195 185/185 184/184
f 185/185 188/188 186/186
f 188/188 185/185 194/194
f 189/189 186/186 188/188
f 186/186 189/189 187/187
f 184/184 189/189 195/195
f 189/189 184/184 187/187
f 193/193 188/188 192/192
f 188/188 193/193 189/189
f 190/190 192/192 191/191
f 192/192 190/190 193/193
f 191/191 199/199 190/190
f 199/199 191/191 198/198
f 181/181 197/197 180/180
f 197/197 181/181 196/196
f 575/575 181/181 182/182
f 181/181 575/575 196/196
f 188/188 191/191 192/192
f 188/188 198/198 191/191
f 188/188 194/194 198/198
f 199/199 193/193 190/190
f 199/199 189/189 193/193
f 195/195 189/189 199/199
f 198/198 194/194 575/575
f 195/195 199/199 576/576
f 200/200 203/203 204/204
f 200/200 202/202 203/203
f 200/200 201/201 202/202
f 205/205 206/206 207/207
f 206/206 208/208 209/209
f 210/210 211/211 206/206
f 577/577 212/212 42/42
f 213/213 214/214 578/578
f 42/42 7/7 579/579
f 43/43 215/215 216/216
f 217/217 218/218 580/580
f 43/43 581/581 44/44
f 219/219 218/218 217/217
f 220/220 582/582 583/583
f 221/221 44/44 222/222
f 223/223 583/583 224/224
f 218/218 219/219 584/584
f 214/214 213/213 225/225
f 223/223 205/205 207/207
f 226/226 583/583 223/223
f 583/583 226/226 220/220
f 200/200 585/585 201/201
f 585/585 200/200 586/586
f 582/582 220/220 228/228
f 229/229 228/228 220/220
f 220/220 226/226 229/229
f 230/230 233/233 234/234
f 230/230 232/232 233/233
f 230/230 231/231 232/232
f 235/235 236/236 237/237
f 238/238 587/587 239/239
f 588/588 239/239 587/587
f 236/236 239/239 237/237
f 206/206 211/211 207/207
f 209/209 210/210 206/206
f 589/589 590/590 240/240
f 223/223 224/224 205/205
f 208/208 206/206 590/590
f 590/590 206/206 205/205
f 241/241 591/591 242/242
f 591/591 244/244 592/592
f 591/591 243/243 244/244
f 591/591 593/593 243/243
f 594/594 245/245 246/246
f 245/245 594/594 247/247
f 249/249 248/248 595/595
f 248/248 249/249 596/596
f 597/597 598/598 599/599
f 247/247 235/235 237/237
f 235/235 247/247 600/600
f 601/601 602/602 603/603
f 602/602 601/601 237/237
f 250/250 598/598 245/245
f 598/598 250/250 251/251
f 252/252 604/604 249/249
f 604/604 252/252 605/605
f 251/251 599/599 598/598
f 599/599 251/251 606/606
f 251/251 250/250 253/253
f 607/607 252/252 608/608
f 606/606 251/251 253/253
f 579/579 577/577 42/42
f 215/215 214/214 225/225
f 577/577 578/578 212/212
f 225/225 216/216 215/215
f 44/44 581/581 222/222
f 581/581 43/43 216/216
f 201/201 609/609 254/254
f 609/609 201/201 585/585
f 256/256 255/255 610/610
f 255/255 256/256 202/202
f 200/200 611/611 612/612
f 611/611 200/200 204/204
f 233/233 610/610 613/613
f 610/610 233/233 256/256
f 586/586 612/612 614/614
f 612/612 586/586 200/200
f 257/257 615/615 616/616
f 615/615 257/257 231/231
f 231/231 617/617 615/615
f 617/617 231/231 230/230
f 204/204 616/616 611/611
f 616/616 204/204 257/257
f 202/202 254/254 255/255
f 254/254 202/202 201/201
f 234/234 613/613 618/618
f 613/613 234/234 233/233
f 212/212 578/578 214/214
f 597/597 619/619 598/598
f 217/217 258/258 259/259
f 258/258 217/217 580/580
f 580/580 260/260 258/258
f 260/260 580/580 589/589
f 589/589 240/240 260/260
f 224/224 259/259 261/261
f 259/259 224/224 583/583
f 240/240 224/224 261/261
f 205/205 224/224 240/240
f 590/590 205/205 240/240
f 234/234 618/618 620/620
f 621/621 617/617 230/230
f 262/262 622/622 623/623
f 622/622 262/262 263/263
f 264/264 244/244 243/243
f 244/244 264/264 265/265
f 624/624 623/623 625/625
f 623/623 624/624 262/262
f 263/263 626/626 622/622
f 626/626 263/263 627/627
f 266/266 263/263 262/262
f 263/263 266/266 267/267
f 268/268 262/262 624/624
f 262/262 268/268 266/266
f 269/269 265/265 264/264
f 265/265 269/269 628/628
f 267/267 627/627 263/263
f 627/627 267/267 629/629
f 270/270 267/267 266/266
f 267/267 270/270 271/271
f 272/272 266/266 268/268
f 266/266 272/272 270/270
f 273/273 628/628 269/269
f 628/628 273/273 630/630
f 271/271 629/629 267/267
f 629/629 271/271 631/631
f 274/274 271/271 270/270
f 271/271 274/274 275/275
f 276/276 270/270 272/272
f 270/270 276/276 274/274
f 277/277 630/630 273/273
f 630/630 277/277 632/632
f 275/275 631/631 271/271
f 631/631 275/275 633/633
f 634/634 275/275 274/274
f 275/275 634/634 376/376
f 635/635 274/274 276/276
f 274/274 635/635 634/634
f 636/636 632/632 277/277
f 632/632 636/636 637/637
f 376/376 633/633 275/275
f 633/633 376/376 638/638
f 639/639 280/280 281/281
f 280/280 639/639 640/640
f 641/641 282/282 642/642
f 282/282 641/641 643/643
f 643/643 283/283 282/282
f 283/283 643/643 644/644
f 644/644 284/284 283/283
f 284/284 644/644 645/645
f 645/645 281/281 284/284
f 281/281 645/645 639/639
f 646/646 285/285 286/286
f 285/285 646/646 647/647
f 647/647 287/287 285/285
f 287/287 647/647 648/648
f 649/649 288/288 650/650
f 288/288 649/649 651/651
f 652/652 289/289 653/653
f 289/289 652/652 654/654
f 654/654 655/655 289/289
f 655/655 654/654 656/656
f 285/285 287/287 290/290
f 650/650 291/291 657/657
f 291/291 650/650 288/288
f 653/653 292/292 658/658
f 292/292 653/653 289/289
f 289/289 655/655 292/292
f 286/286 293/293 294/294
f 293/293 286/286 285/285
f 285/285 295/295 293/293
f 295/295 285/285 290/290
f 657/657 296/296 659/659
f 296/296 657/657 291/291
f 658/658 297/297 660/660
f 297/297 658/658 292/292
f 292/292 661/661 297/297
f 661/661 292/292 655/655
f 294/294 298/298 299/299
f 298/298 294/294 293/293
f 293/293 300/300 298/298
f 300/300 293/293 295/295
f 662/662 296/296 301/301
f 296/296 662/662 659/659
f 302/302 660/660 297/297
f 660/660 302/302 663/663
f 297/297 664/664 302/302
f 664/664 297/297 661/661
f 299/299 303/303 304/304
f 303/303 299/299 298/298
f 298/298 305/305 303/303
f 305/305 298/298 300/300
f 307/307 662/662 306/306
f 662/662 307/307 665/665
f 666/666 302/302 308/308
f 302/302 666/666 667/667
f 302/302 668/668 308/308
f 668/668 302/302 664/664
f 310/310 303/303 309/309
f 303/303 310/310 304/304
f 309/309 305/305 311/311
f 305/305 309/309 303/303
f 312/312 669/669 307/307
f 669/669 312/312 670/670
f 313/313 666/666 308/308
f 666/666 313/313 671/671
f 672/672 308/308 668/668
f 308/308 672/672 313/313
f 316/316 314/314 315/315
f 314/314 316/316 317/317
f 314/314 318/318 315/315
f 673/673 319/319 320/320
f 319/319 673/673 321/321
f 323/323 674/674 322/322
f 674/674 323/323 675/675
f 676/676 324/324 677/677
f 324/324 676/676 322/322
f 327/327 325/325 326/326
f 325/325 327/327 328/328
f 327/327 678/678 329/329
f 678/678 327/327 326/326
f 679/679 319/319 330/330
f 319/319 679/679 320/320
f 680/680 323/323 331/331
f 323/323 680/680 675/675
f 681/681 323/323 682/682
f 323/323 681/681 331/331
f 310/310 314/314 317/317
f 314/314 310/310 309/309
f 314/314 311/311 318/318
f 311/311 314/314 309/309
f 673/673 312/312 321/321
f 312/312 673/673 683/683
f 671/671 324/324 674/674
f 324/324 671/671 313/313
f 313/313 677/677 324/324
f 677/677 313/313 672/672
f 301/301 306/306 662/662
f 663/663 302/302 667/667
f 333/333 327/327 332/332
f 327/327 333/333 328/328
f 332/332 329/329 334/334
f 329/329 332/332 327/327
f 330/330 684/684 679/679
f 685/685 331/331 681/681
f 331/331 685/685 335/335
f 316/316 326/326 325/325
f 326/326 316/316 315/315
f 322/322 682/682 323/323
f 682/682 322/322 676/676
f 674/674 324/324 322/322
f 326/326 318/318 678/678
f 318/318 326/326 315/315
f 332/332 336/336 333/333
f 334/334 336/336 332/332
f 335/335 686/686 687/687
f 685/685 686/686 335/335
f 337/337 688/688 689/689
f 688/688 337/337 338/338
f 339/339 689/689 690/690
f 689/689 339/339 337/337
f 691/691 692/692 693/693
f 692/692 691/691 340/340
f 340/340 694/694 692/692
f 694/694 340/340 341/341
f 342/342 695/695 696/696
f 695/695 342/342 343/343
f 341/341 696/696 694/694
f 696/696 341/341 342/342
f 697/697 698/698 699/699
f 698/698 697/697 344/344
f 344/344 690/690 698/698
f 690/690 344/344 339/339
f 337/337 339/339 345/345
f 340/340 346/346 341/341
f 347/347 343/343 342/342
f 343/343 347/347 348/348
f 346/346 342/342 341/341
f 342/342 346/346 347/347
f 700/700 344/344 697/697
f 344/344 700/700 349/349
f 349/349 339/339 344/344
f 339/339 349/349 345/345
f 338/338 350/350 351/351
f 350/350 338/338 337/337
f 337/337 352/352 350/350
f 352/352 337/337 345/345
f 691/691 353/353 340/340
f 353/353 691/691 701/701
f 346/346 353/353 354/354
f 353/353 346/346 340/340
f 347/347 356/356 348/348
f 356/356 347/347 355/355
f 346/346 355/355 347/347
f 355/355 346/346 354/354
f 349/349 702/702 357/357
f 702/702 349/349 700/700
f 345/345 357/357 352/352
f 357/357 345/345 349/349
f 358/358 359/359 360/360
f 361/361 360/360 359/359
f 360/360 361/361 362/362
f 363/363 703/703 704/704
f 364/364 704/704 365/365
f 704/704 364/364 363/363
f 366/366 367/367 368/368
f 367/367 365/365 368/368
f 365/365 367/367 364/364
f 369/369 705/705 706/706
f 369/369 362/362 361/361
f 362/362 369/369 707/707
f 350/350 358/358 351/351
f 358/358 350/350 359/359
f 701/701 363/363 353/353
f 363/363 701/701 703/703
f 370/370 360/360 362/362
f 360/360 370/370 371/371
f 704/704 372/372 365/365
f 372/372 704/704 708/708
f 372/372 368/368 365/365
f 368/368 372/372 373/373
f 709/709 370/370 362/362
f 370/370 709/709 710/710
f 372/372 374/374 375/375
f 370/370 711/711 712/712
f 355/355 366/366 356/356
f 366/366 355/355 367/367
f 354/354 367/367 355/355
f 367/367 354/354 364/364
f 713/713 357/357 702/702
f 357/357 713/713 369/369
f 369/369 352/352 357/357
f 352/352 369/369 361/361
f 361/361 350/350 352/352
f 350/350 361/361 359/359
f 353/353 364/364 354/354
f 364/364 353/353 363/363
f 370/370 712/712 371/371
f 708/708 374/374 372/372
f 375/375 373/373 372/372
f 711/711 370/370 710/710
f 680/680 335/335 687/687
f 335/335 680/680 331/331
f 239/239 236/236 238/238
f 377/377 714/714 715/715
f 714/714 377/377 378/378
f 715/715 380/380 377/377
f 380/380 715/715 379/379
f 382/382 380/380 381/381
f 380/380 382/382 383/383
f 384/384 381/381 378/378
f 381/381 384/384 382/382
f 385/385 378/378 377/377
f 378/378 385/385 384/384
f 383/383 377/377 380/380
f 377/377 383/383 385/385
f 382/382 387/387 383/383
f 387/387 382/382 386/386
f 382/382 388/388 386/386
f 388/388 382/382 384/384
f 389/389 384/384 385/385
f 384/384 389/389 388/388
f 383/383 389/389 385/385
f 389/389 383/383 387/387
f 390/390 388/388 389/389
f 388/388 390/390 391/391
f 392/392 391/391 390/390
f 391/391 392/392 393/393
f 393/393 716/716 717/717
f 716/716 393/393 392/392
f 381/381 379/379 394/394
f 379/379 381/381 380/380
f 714/714 381/381 394/394
f 381/381 714/714 378/378
f 388/388 717/717 386/386
f 388/388 393/393 717/717
f 388/388 391/391 393/393
f 390/390 716/716 392/392
f 389/389 716/716 390/390
f 387/387 716/716 389/389
f 717/717 714/714 386/386
f 387/387 715/715 716/716
f 401/401 413/413 438/438
f 402/402 403/403 395/395
f 397/397 449/449 437/437
f 449/449 397/397 396/396
f 448/448 450/450 453/453
f 450/450 448/448 399/399
f 400/400 449/449 448/448
f 449/449 400/400 422/422
f 401/401 395/395 413/413
f 395/395 401/401 402/402
f 395/395 403/403 409/409
f 409/409 405/405 395/395
f 409/409 408/408 407/407
f 408/408 409/409 406/406
f 409/409 407/407 405/405
f 395/395 405/405 397/397
f 408/408 410/410 407/407
f 410/410 408/408 411/411
f 411/411 412/412 410/410
f 409/409 403/403 406/406
f 414/414 415/415 439/439
f 415/415 414/414 404/404
f 417/417 418/418 419/419
f 420/420 444/444 425/425
f 444/444 420/420 440/440
f 423/423 443/443 424/424
f 422/422 445/445 444/444
f 445/445 422/422 400/400
f 414/414 418/418 417/417
f 418/418 414/414 416/416
f 418/418 426/426 419/419
f 426/426 418/418 427/427
f 426/426 429/429 430/430
f 429/429 426/426 428/428
f 426/426 427/427 428/428
f 418/418 420/420 427/427
f 429/429 431/431 432/432
f 431/431 429/429 428/428
f 432/432 431/431 433/433
f 426/426 430/430 419/419
f 421/421 434/434 447/447
f 397/397 435/435 395/395
f 413/413 441/441 438/438
f 441/441 413/413 435/435
f 439/439 434/434 442/442
f 434/434 439/439 415/415
f 416/416 436/436 418/418
f 440/440 436/436 442/442
f 436/436 440/440 420/420
f 395/395 435/435 413/413
f 418/418 436/436 420/420
f 437/437 435/435 397/397
f 435/435 437/437 441/441
f 446/446 441/441 447/447
f 441/441 446/446 438/438
f 416/416 442/442 436/436
f 442/442 416/416 439/439
f 421/421 442/442 434/434
f 442/442 421/421 440/440
f 444/444 423/423 425/425
f 423/423 444/444 443/443
f 444/444 421/421 422/422
f 421/421 444/444 440/440
f 398/398 452/452 451/451
f 414/414 439/439 416/416
f 404/404 438/438 446/446
f 438/438 404/404 401/401
f 415/415 447/447 434/434
f 447/447 415/415 446/446
f 421/421 441/441 437/437
f 441/441 421/421 447/447
f 448/448 396/396 399/399
f 396/396 448/448 449/449
f 421/421 449/449 422/422
f 449/449 421/421 437/437
f 448/448 451/451 400/400
f 451/451 448/448 453/453
f 453/453 450/450 398/398
f 445/445 451/451 452/452
f 451/451 445/445 400/400
f 451/451 453/453 398/398
f 404/404 446/446 415/415
