# MOD converted: h_w_costume_lf_006_body.mod
# 600 verts, 538 faces

v 116.124336 3.933830 4.911952
v 114.164124 -0.782345 5.008596
v 122.610580 2.853898 4.507100
v 120.603386 -1.682459 0.000000
v 116.894203 6.252836 -0.000000
v 113.184235 -3.294354 -0.000001
v 123.521553 5.340086 0.000001
v 119.354401 -4.179790 7.474744
v 113.085854 7.719225 8.652485
v 114.816895 4.080068 0.000000
v 111.905312 8.965495 -5.190432
v 116.123802 3.936416 -4.911951
v 114.166008 -0.780688 -5.008595
v 122.610580 2.853899 -4.507098
v 120.603386 -1.682461 -7.474742
v 113.079597 7.722934 -8.652482
v 114.815132 4.086181 43.985985
v 90.564743 4.655181 45.726570
v 94.376297 6.712642 43.711926
v 90.469452 -0.148821 47.274300
v 97.931747 5.046226 45.364563
v 94.244690 -2.745372 47.002281
v 98.113235 -0.864876 26.680714
v 102.230438 7.691538 26.053101
v 97.618156 5.474918 27.703970
v 101.820999 -1.642418 26.200737
v 97.786880 0.417018 29.109877
v 105.683517 0.155862 29.231724
v 105.858269 5.386036 28.327637
v 96.745407 5.101004 31.421541
v 104.935699 5.374602 30.850073
v 100.517914 7.496798 28.904396
v 101.422829 7.713493 31.342705
v 104.733704 0.095301 29.935736
v 100.881912 -1.742333 28.401127
v 96.859413 0.369973 34.083298
v 93.988586 -0.086179 35.962982
v 98.317108 -2.637070 37.789619
v 102.471420 -0.598058 37.946644
v 102.529953 5.537985 35.999310
v 98.469147 7.765430 33.955040
v 94.026657 5.195427 43.006649
v 99.952332 -0.789135 43.106709
v 99.909210 5.193702 41.289482
v 95.840195 -2.718549 39.717007
v 92.050339 -0.130460 40.013042
v 92.083786 4.800691 41.196167
v 96.136269 7.013244 -43.985981
v 90.563667 4.652564 -45.726570
v 94.374008 6.712376 -43.711891
v 90.471214 -0.151555 -47.274292
v 97.930450 5.048130 -45.364571
v 94.248062 -2.745787 -47.002285
v 98.115479 -0.862930 -26.680714
v 102.230522 7.691549 -26.053101
v 97.618210 5.474986 -27.703978
v 101.820915 -1.642408 -26.200741
v 97.786858 0.417079 -29.109880
v 105.683487 0.155818 -29.231724
v 105.858299 5.385993 -28.327637
v 96.745407 5.101020 -31.421526
v 104.935707 5.374606 -30.850056
v 100.517914 7.496813 -28.904387
v 101.422852 7.713503 -31.342714
v 104.733696 0.095315 -29.935757
v 100.881912 -1.742321 -28.401134
v 96.859413 0.369985 -34.083298
v 93.988602 -0.086187 -35.962982
v 98.317078 -2.637074 -37.789623
v 102.471420 -0.598048 -37.946636
v 102.529968 5.537993 -35.999302
v 98.469154 7.765434 -33.955055
v 94.026688 5.195426 -43.006660
v 99.954521 -0.787022 -43.106705
v 99.907829 5.195813 -41.289494
v 95.843552 -2.718941 -39.717018
v 92.052170 -0.133152 -40.013027
v 92.082611 4.798071 -41.196148
v 96.133812 7.012993 9.189466
v 20.484219 -4.618870 8.996703
v 20.483418 8.895567 19.047203
v 20.485817 4.294406 6.671245
v 20.483208 3.588783 17.271519
v 20.485104 -4.281373 15.818410
v 20.485018 9.062565 18.561651
v 36.310612 2.940714 14.312851
v 36.607990 9.214013 7.679822
v 36.277199 9.456986 4.640316
v 34.820354 2.529458 15.980440
v 36.192753 -3.726779 7.378949
v 35.279099 -4.256642 -9.189465
v 20.484215 -4.618871 -8.996703
v 20.483418 8.895563 -19.047203
v 20.485817 4.294408 -6.671246
v 20.483208 3.588784 -17.271519
v 20.485104 -4.281372 -15.818410
v 20.485018 9.062564 -18.561651
v 36.310616 2.940717 -14.312851
v 36.607986 9.214014 -7.679821
v 36.277199 9.456988 -4.640316
v 34.820354 2.529461 -15.980442
v 36.192753 -3.726779 -7.378950
v 35.279095 -4.256645 20.474468
v 98.434021 -1.658825 20.421108
v 98.271461 6.429987 22.676714
v 103.526161 9.619450 22.982883
v 103.922882 -5.064445 24.844337
v 109.159256 -1.463122 24.852304
v 109.321648 6.657443 25.280754
v 96.585625 5.483581 25.493412
v 96.794327 -1.476486 30.241869
v 107.175629 5.360934 27.849916
v 101.983452 -4.310594 30.064184
v 106.955452 -1.836187 26.821409
v 102.311676 8.533666 27.727190
v 94.997444 5.285982 32.437305
v 106.315826 5.676684 30.113161
v 100.983887 8.707380 29.228720
v 101.263451 8.259086 32.312119
v 106.046021 -1.862620 30.191692
v 100.873825 -4.486934 27.838013
v 95.147461 -1.470351 26.979733
v 102.183807 1.975025 0.039249
v 69.960281 -13.593031 11.591562
v 59.256512 -16.463890 9.930314
v 69.959145 -12.680564 -0.000190
v 59.231434 -17.269718 20.926815
v 59.118916 -8.520020 16.755095
v 69.959984 -6.343101 23.102440
v 59.260303 3.992973 15.745265
v 59.914669 15.051005 13.131753
v 69.819977 12.076877 18.886881
v 69.956490 3.053792 0.039247
v 69.707771 13.942712 -0.000187
v 59.918697 17.266851 -20.474476
v 98.433960 -1.658724 -20.421104
v 98.271515 6.430097 -22.676680
v 103.526215 9.619460 -22.982883
v 103.922714 -5.064433 -24.844337
v 109.159195 -1.463202 -24.852299
v 109.321701 6.657352 -25.280750
v 96.585663 5.483665 -25.493420
v 96.794243 -1.476405 -30.241869
v 107.175667 5.360866 -27.849920
v 101.983330 -4.310585 -30.064184
v 106.955383 -1.836253 -26.821409
v 102.311790 8.533674 -27.727190
v 94.997444 5.285999 -32.437302
v 106.315834 5.676693 -30.113140
v 100.983925 8.707400 -29.228714
v 101.263489 8.259098 -32.312130
v 106.046005 -1.862617 -30.191696
v 100.873802 -4.486918 -27.838026
v 95.147446 -1.470341 -26.979731
v 102.183800 1.975039 -11.591941
v 59.256512 -16.463888 -9.851817
v 69.959160 -12.680570 -20.927197
v 59.118938 -8.520034 -16.676600
v 69.960014 -6.343101 -24.154556
v 59.260334 4.443403 -14.662854
v 59.914661 15.051009 -13.053241
v 69.819977 12.076910 -18.808393
v 69.956528 3.504224 -0.000001
v 105.054695 13.500121 -0.000001
v 91.106407 12.950570 -0.000186
v 73.315742 -16.646053 0.000000
v 82.578789 -14.580664 -0.000001
v 110.245956 13.148733 0.000000
v 92.449684 -14.394950 -0.000000
v 82.116890 13.334867 0.000000
v 102.924133 -14.718529 -0.000186
v 73.027763 15.870724 -0.000188
v 63.181484 17.975866 -0.000192
v 62.467430 -18.701525 15.835543
v 113.280487 -1.552815 16.351482
v 114.054283 7.420678 11.137372
v 73.296410 -14.816229 12.043408
v 62.474918 -17.052166 9.734173
v 92.839989 -11.915709 21.742594
v 62.331978 -8.798644 10.915222
v 91.148979 11.002337 16.337933
v 63.158749 15.673634 8.045593
v 105.219345 12.226639 14.964462
v 97.727966 -5.014569 15.141290
v 108.412949 -5.948397 14.730247
v 107.393890 10.620991 14.473704
v 92.580795 -5.825233 17.519878
v 81.965340 2.742158 18.624350
v 73.297379 -7.213899 20.962948
v 73.293404 3.515767 24.003017
v 62.478882 4.202083 14.649414
v 73.137688 13.742888 15.329867
v 97.568268 7.232834 20.317976
v 97.137032 -5.213194 23.377254
v 104.305931 -7.035551 24.581566
v 95.582184 6.173695 24.842495
v 95.838402 -4.685979 30.579708
v 108.223183 6.023324 27.734125
v 102.205879 -7.060310 30.361662
v 107.953072 -2.808059 27.668007
v 102.209724 9.916448 20.762640
v 112.151024 -1.895657 18.537600
v 105.205635 11.320168 16.334305
v 98.121231 6.982245 16.725346
v 97.878899 -5.213912 18.616629
v 106.367279 -6.682723 25.777781
v 109.852669 -2.291664 22.805164
v 103.763680 11.332655 19.215099
v 97.351944 7.343585 21.427181
v 112.340401 7.730324 25.658802
v 110.479218 7.828100 10.289947
v 82.379959 -12.733863 15.870164
v 81.854004 -6.117901 12.341973
v 82.147148 11.220490 6.952311
v 81.625504 13.036020 15.180282
v 91.841057 3.651342 10.383296
v 102.838516 -13.155811 7.374879
v 109.425430 -9.879884 12.114094
v 113.471283 -1.398256 14.019710
v 114.334518 7.480838 6.735317
v 111.000893 12.050702 6.815839
v 112.718117 -9.101223 11.971502
v 116.630394 -2.140599 9.201738
v 118.783928 -1.658049 13.830823
v 117.427666 7.806695 10.917816
v 120.057449 7.737449 7.045847
v 115.312279 12.844826 5.391136
v 118.646622 11.135575 -0.000000
v 115.215553 -9.372293 -0.000000
v 116.198349 3.652908 0.000000
v 105.645706 -15.075147 0.000000
v 117.654587 12.616595 0.000000
v 110.071457 -12.999451 -0.000001
v 114.122536 13.924757 25.368887
v 103.091385 1.259858 10.447215
v 95.708160 -12.152627 0.000000
v 95.328484 -14.579956 0.000000
v 100.744690 -15.739954 -15.835543
v 113.288460 -1.541899 -16.351479
v 114.046150 7.433103 -11.137753
v 73.296410 -14.816236 -12.043797
v 62.474907 -17.052181 -9.734173
v 92.839996 -11.915708 -21.742958
v 62.332005 -8.798672 -10.915220
v 91.148979 11.002337 -15.255517
v 63.158749 15.673637 -8.045592
v 105.219353 12.226640 -14.964460
v 97.727943 -5.014557 -15.141290
v 108.427353 -5.946039 -14.730276
v 107.380486 10.621737 -14.473704
v 92.580795 -5.825241 -17.519882
v 81.965347 2.742155 -18.624722
v 73.297401 -7.213905 -20.963327
v 73.293411 3.966187 -25.117228
v 62.478882 4.652527 -14.649788
v 73.137688 13.742888 -15.329867
v 97.564117 7.224914 -20.317978
v 97.136894 -5.213061 -23.377268
v 104.305756 -7.035548 -24.581566
v 95.582245 6.173788 -24.842514
v 95.838287 -4.685885 -30.579704
v 108.223213 6.023244 -27.734135
v 102.205719 -7.060307 -30.361671
v 107.953011 -2.808136 -27.667999
v 102.209824 9.916461 -20.762667
v 112.152313 -1.893909 -18.537554
v 105.203423 11.320224 -16.334282
v 98.120132 6.980474 -16.725357
v 97.880966 -5.215772 -18.616661
v 106.369759 -6.682498 -25.777781
v 109.852570 -2.291761 -22.805166
v 103.763847 11.332663 -19.215088
v 97.352013 7.343707 -21.427185
v 112.339195 7.732231 -25.658800
v 110.479317 7.827989 -10.289941
v 82.379974 -12.733868 -15.870159
v 81.854004 -6.117915 -12.341973
v 82.147163 11.220487 -6.952311
v 81.625511 13.036020 -15.180282
v 91.841049 3.651340 -10.383293
v 102.838516 -13.155808 -7.374886
v 109.431999 -9.879931 -12.114094
v 113.484108 -1.383202 -14.019709
v 114.320747 7.500019 -6.735318
v 110.984421 12.052630 -6.815840
v 112.724251 -9.099888 -11.971502
v 116.645424 -2.117433 -9.201742
v 118.786247 -1.653587 -13.830818
v 117.412941 7.833766 -10.917816
v 120.054939 7.742782 -7.045846
v 115.307182 12.847364 -5.391135
v 118.642349 11.139332 -25.368887
v 103.091354 1.259859 -10.447211
v 95.708160 -12.152629 6.890382
v 69.559593 -10.149111 16.612070
v 67.949814 1.334351 12.736063
v 71.647308 -6.937720 9.199533
v 70.006248 12.579174 14.457023
v 72.044113 7.542820 0.423361
v 61.053997 0.574845 1.351596
v 62.331871 -7.811340 19.935993
v 61.245113 5.971052 8.785182
v 57.463966 -11.117390 2.578878
v 56.304691 -8.310607 0.624853
v 55.835976 1.523560 10.202885
v 66.009506 11.103352 14.873328
v 59.699100 -8.159205 3.704883
v 48.056549 -10.410892 1.636996
v 39.625820 3.025174 5.356795
v 41.576828 14.467856 16.141424
v 42.391644 14.286285 17.814911
v 49.618458 -10.043693 22.695026
v 41.662815 2.714387 3.441497
v 56.396374 11.862540 12.249784
v 58.574997 11.708965 11.458508
v 43.030361 -13.218053 4.188396
v 42.836796 -10.224623 18.657871
v 44.125633 -9.649540 11.887930
v 38.653885 -11.911381 19.112803
v 40.239323 -7.712764 4.676255
v 39.010674 -8.856453 2.147245
v 61.852108 10.967815 10.705381
v 48.647186 -13.394067 -0.000001
v 62.557812 -8.370667 22.701797
v 46.280678 2.552762 15.837500
v 45.714439 13.617491 5.113725
v 44.641171 13.825234 1.294763
v 42.984573 2.607622 7.470347
v 65.714302 -10.146669 13.435128
v 67.721291 -7.230070 0.811041
v 65.406334 12.546259 15.208400
v 67.171410 7.838890 22.564102
v 47.785889 2.213728 14.694022
v 50.963924 14.209273 4.482673
v 49.238182 14.353538 0.772903
v 48.150299 2.319517 12.073236
v 76.054497 -6.825517 7.899367
v 77.525536 11.906023 14.294108
v 76.645088 0.478349 6.240511
v 75.776955 -10.153620 12.906612
v 77.092636 7.031640 15.655786
v 72.583260 0.788672 17.514429
v 60.648201 -5.126374 22.180506
v 48.483292 -4.870157 16.373711
v 60.721642 8.855392 19.897778
v 48.696899 9.593390 15.986486
v 67.289513 -4.890585 18.208580
v 65.921989 5.717551 22.498217
v 51.195183 6.327748 20.272676
v 61.592346 -1.620246 23.779795
v 51.029850 -1.748530 19.101917
v 65.977608 -1.720590 0.410414
v 33.931686 4.233118 4.489804
v 33.141521 -9.053147 17.525480
v 36.777874 17.566568 5.444767
v 36.183277 17.808706 12.566508
v 33.251919 -13.023483 21.496012
v 34.366283 -7.574870 25.586206
v 35.948368 4.088761 12.667963
v 30.026190 2.206563 3.734859
v 31.733627 3.739431 6.820461
v 30.926796 -6.310141 16.495085
v 33.721981 13.824687 7.542782
v 33.227520 14.007833 12.744177
v 31.219477 -9.313254 19.498350
v 31.897900 -5.191989 22.649530
v 33.140484 3.289119 -0.000003
v 61.547256 0.512712 -0.000001
v 63.086021 7.546567 -0.000000
v 77.621529 12.908204 -0.000001
v 68.429771 -11.013373 -0.000001
v 70.666962 13.351261 -6.890388
v 69.559601 -10.149111 -16.612068
v 67.949799 1.334365 -12.736063
v 71.647316 -6.937720 -9.199531
v 70.006256 12.579172 -14.457025
v 72.044174 7.542822 -0.423360
v 61.054001 0.574835 -1.351598
v 62.331879 -7.811346 -19.935984
v 61.245117 5.971067 -8.785189
v 57.463966 -11.117392 -2.578885
v 56.304691 -8.310611 -0.624853
v 55.835957 1.523581 -10.202885
v 66.009544 11.103353 -14.873328
v 59.699120 -8.159216 -3.704889
v 48.056576 -10.410896 -1.637000
v 39.625820 3.025195 -5.356795
v 41.576824 14.467867 -16.141424
v 42.391636 14.286288 -17.814911
v 49.618435 -10.043692 -22.695026
v 41.662830 2.714415 -3.441494
v 56.396381 11.862537 -12.249779
v 58.575005 11.708954 -11.458508
v 43.030365 -13.218060 -4.188411
v 42.836807 -10.224636 -18.657875
v 44.125614 -9.649540 -11.887939
v 38.653873 -11.911383 -19.112806
v 40.239315 -7.712760 -4.676262
v 39.010674 -8.856457 -2.147246
v 61.852100 10.967816 -10.705379
v 48.647209 -13.394069 -22.701803
v 46.280701 2.552791 -15.837494
v 45.714428 13.617495 -5.113732
v 44.641171 13.825244 -1.294765
v 42.984577 2.607640 -7.470349
v 65.714287 -10.146677 -13.435131
v 67.721291 -7.230074 -0.811041
v 65.406326 12.546255 -15.208402
v 67.171410 7.838893 -22.564106
v 47.785896 2.213752 -14.694022
v 50.963928 14.209271 -4.482672
v 49.238178 14.353539 -0.772910
v 48.150299 2.319546 -12.073237
v 76.054497 -6.825518 -7.899368
v 77.525543 11.906027 -14.294110
v 76.645096 0.478355 -6.240511
v 75.776955 -10.153620 -12.906612
v 77.092667 7.031640 -15.655787
v 72.583275 0.788678 -17.514431
v 60.648197 -5.126369 -22.180511
v 48.483273 -4.870155 -16.373711
v 60.721630 8.855393 -19.897762
v 48.696899 9.593390 -15.986488
v 67.289520 -4.890588 -18.208578
v 65.921989 5.717559 -22.498215
v 51.195202 6.327760 -20.272676
v 61.592350 -1.620263 -23.779785
v 51.029888 -1.748540 -19.101923
v 65.977608 -1.720599 -0.410415
v 33.931686 4.233137 -4.489809
v 33.141521 -9.053152 -17.525480
v 36.777878 17.566580 -5.444770
v 36.183273 17.808706 -12.566510
v 33.251919 -13.023490 -21.496016
v 34.366287 -7.574863 -25.586205
v 35.948368 4.088786 -12.667962
v 30.026190 2.206563 -3.734863
v 31.733639 3.739444 -6.820467
v 30.926786 -6.310144 -16.495087
v 33.721977 13.824693 -7.542784
v 33.227520 14.007835 -12.744182
v 31.219473 -9.313247 -19.498348
v 31.897892 -5.191986 -22.649517
v 33.140484 3.289153 -0.000002
v 75.682739 -11.830776 0.888990
v 105.670593 15.229571 1.434542
v 99.571640 16.950718 7.594557
v 106.171837 13.727717 3.065830
v 112.193573 12.114182 -0.000001
v 110.794846 13.402811 2.453448
v 96.251869 17.089781 6.968111
v 100.562912 15.516201 -0.888989
v 105.670616 15.229571 -6.968108
v 100.562912 15.516199 -1.434543
v 99.571640 16.950718 -7.594556
v 106.163162 13.725443 -3.065831
v 112.193573 12.114182 -2.453446
v 96.251869 17.089783 0.000000
v 116.894203 6.252836 -0.000001
v 123.521553 5.340086 0.000001
v 119.354401 -4.179790 -0.000000
v 113.184235 -3.294354 0.000000
v 111.905312 8.965495 28.327637
v 96.745407 5.101004 26.053101
v 97.618156 5.474918 33.955040
v 94.026657 5.195427 43.985985
v 90.564743 4.655181 40.013042
v 92.083786 4.800691 -28.327637
v 96.745407 5.101020 -26.053101
v 97.618210 5.474986 -33.955055
v 94.026688 5.195426 -43.985981
v 90.563667 4.652564 -40.013027
v 92.082611 4.798071 4.640316
v 34.820354 2.529458 6.671245
v 20.483208 3.588783 -4.640316
v 34.820354 2.529461 -6.671246
v 20.483208 3.588784 20.421108
v 98.271461 6.429987 25.280754
v 96.585625 5.483581 27.727190
v 94.997444 5.285982 26.979733
v 102.183807 1.975025 26.979733
v 102.183807 1.975025 26.979733
v 102.183807 1.975025 26.979733
v 102.183807 1.975025 26.979733
v 102.183807 1.975025 -25.280750
v 96.585663 5.483665 -20.421104
v 98.271515 6.430097 -27.727190
v 94.997444 5.285999 -26.979731
v 102.183800 1.975039 -26.979731
v 102.183800 1.975039 -26.979731
v 102.183800 1.975039 -26.979731
v 102.183800 1.975039 -26.979731
v 102.183800 1.975039 0.039249
v 69.960281 -13.593031 -0.000190
v 59.231434 -17.269718 0.039247
v 69.707771 13.942712 -0.000187
v 59.918697 17.266851 20.962948
v 73.293404 3.515767 17.519878
v 81.965340 2.742158 24.003017
v 62.478882 4.202083 19.215099
v 97.351944 7.343585 24.581566
v 95.582184 6.173695 16.351482
v 114.054283 7.420678 14.730247
v 107.393890 10.620991 14.964462
v 97.727966 -5.014569 15.329867
v 97.568268 7.232834 14.964462
v 97.727966 -5.014569 15.141290
v 108.412949 -5.948397 16.334305
v 98.121231 6.982245 15.329867
v 97.568268 7.232834 15.180282
v 91.841057 3.651342 15.329867
v 97.568268 7.232834 15.835543
v 113.280487 -1.552815 16.351482
v 114.054283 7.420678 14.019710
v 114.334518 7.480838 0.000000
v 102.924133 -14.718529 7.374879
v 109.425430 -9.879884 12.114094
v 113.471283 -1.398256 14.019710
v 114.334518 7.480838 -0.000001
v 110.245956 13.148733 6.735317
v 111.000893 12.050702 9.201738
v 118.783928 -1.658049 -0.000000
v 115.215553 -9.372293 10.917816
v 120.057449 7.737449 5.391136
v 118.646622 11.135575 0.000000
v 117.654587 12.616595 25.368887
v 103.091385 1.259858 25.368887
v 103.091385 1.259858 25.368887
v 103.091385 1.259858 25.368887
v 103.091385 1.259858 25.368887
v 103.091385 1.259858 0.000000
v 92.449684 -14.394950 0.000000
v 82.578789 -14.580664 -0.000186
v 73.315742 -16.646053 -0.000192
v 62.467430 -18.701525 0.000000
v 102.924133 -14.718529 0.000000
v 100.744690 -15.739954 -17.519882
v 81.965347 2.742155 -20.963327
v 73.293411 3.966187 -25.117228
v 62.478882 4.652527 -0.000001
v 91.106407 12.950570 -0.000186
v 73.027763 15.870724 -0.000188
v 63.181484 17.975866 -0.000001
v 105.054695 13.500121 -19.215088
v 97.352013 7.343707 -24.581566
v 95.582245 6.173788 -16.351479
v 114.046150 7.433103 -14.730276
v 107.380486 10.621737 -14.964460
v 97.727943 -5.014557 -14.964460
v 97.727943 -5.014557 -15.329867
v 97.564117 7.224914 -15.141290
v 108.427353 -5.946039 -15.329867
v 97.564117 7.224914 -16.334282
v 98.120132 6.980474 -0.000000
v 82.116890 13.334867 -15.180282
v 91.841049 3.651340 -15.329867
v 97.564117 7.224914 -15.835543
v 113.288460 -1.541899 -16.351479
v 114.046150 7.433103 -14.019709
v 114.320747 7.500019 -0.000001
v 110.245956 13.148733 0.000000
v 110.071457 -12.999451 0.000000
v 105.645706 -15.075147 -0.000000
v 115.215553 -9.372293 -0.000001
v 114.122536 13.924757 0.000000
v 117.654587 12.616595 0.000000
v 102.924133 -14.718529 -7.374886
v 109.431999 -9.879931 -12.114094
v 113.484108 -1.383202 -14.019709
v 114.320747 7.500019 -6.735318
v 110.984421 12.052630 -0.000001
v 110.245956 13.148733 -0.000000
v 116.198349 3.652908 -0.000000
v 115.215553 -9.372293 -9.201742
v 118.786247 -1.653587 -10.917816
v 120.054939 7.742782 -5.391135
v 118.642349 11.139332 0.000000
v 117.654587 12.616595 -25.368887
v 103.091354 1.259859 -25.368887
v 103.091354 1.259859 -25.368887
v 103.091354 1.259859 -25.368887
v 103.091354 1.259859 -25.368887
v 103.091354 1.259859 0.000000
v 95.328484 -14.579956 0.423361
v 61.053997 0.574845 1.294763
v 42.984573 2.607622 0.772903
v 48.150299 2.319517 0.624853
v 55.835976 1.523560 -0.000003
v 61.547256 0.512712 1.636996
v 39.625820 3.025174 0.410414
v 33.931686 4.233118 3.734859
v 31.733627 3.739431 -0.423360
v 61.054001 0.574835 -1.294765
v 42.984577 2.607640 -0.772910
v 48.150299 2.319546 -0.624853
v 55.835957 1.523581 -1.637000
v 39.625820 3.025195 -0.410415
v 33.931686 4.233137 -3.734863
v 31.733639 3.739444 -0.000001
v 110.794846 13.402811 0.039146

vt 0.318892 0.961280
vt 0.343746 0.986950
vt 0.318013 0.986537
vt 0.334258 0.971292
vt 0.298373 0.976747
vt 0.361116 0.991245
vt 0.301613 0.992378
vt 0.349642 0.941026
vt 0.307501 0.943391
vt 0.324723 0.958027
vt 0.284374 0.960854
vt 0.318892 0.961280
vt 0.343746 0.986950
vt 0.318013 0.986537
vt 0.334258 0.941026
vt 0.307501 0.943391
vt 0.324723 0.301773
vt 0.452549 0.301786
vt 0.720246 0.301786
vt 0.508771 0.301788
vt 0.668899 0.301786
vt 0.565936 0.301792
vt 0.604352 0.395779
vt 0.726105 0.393448
vt 0.446349 0.393478
vt 0.563616 0.393462
vt 0.504702 0.393490
vt 0.604424 0.393490
vt 0.664358 0.381624
vt 0.800906 0.381641
vt 0.664320 0.378102
vt 0.723555 0.386991
vt 0.723691 0.381639
vt 0.604491 0.381629
vt 0.564746 0.381620
vt 0.506662 0.349496
vt 0.508711 0.349490
vt 0.566306 0.349505
vt 0.604665 0.349544
vt 0.665206 0.349571
vt 0.720920 0.349523
vt 0.451583 0.324120
vt 0.604383 0.324125
vt 0.668470 0.324122
vt 0.565252 0.324113
vt 0.507134 0.324127
vt 0.450935 0.324123
vt 0.722077 0.301773
vt 0.452549 0.301786
vt 0.720246 0.301786
vt 0.508771 0.301788
vt 0.668899 0.301786
vt 0.565936 0.301792
vt 0.604352 0.395779
vt 0.726105 0.393448
vt 0.446349 0.393478
vt 0.563616 0.393462
vt 0.504702 0.393490
vt 0.604424 0.393490
vt 0.664358 0.381624
vt 0.800906 0.381641
vt 0.664320 0.378102
vt 0.723555 0.386991
vt 0.723691 0.381639
vt 0.604491 0.381629
vt 0.564746 0.381620
vt 0.506662 0.349496
vt 0.508711 0.349490
vt 0.566306 0.349505
vt 0.604665 0.349544
vt 0.665206 0.349571
vt 0.720920 0.349523
vt 0.451583 0.324120
vt 0.604383 0.324125
vt 0.668470 0.324122
vt 0.565252 0.324113
vt 0.507134 0.324127
vt 0.450935 0.324123
vt 0.722077 0.288342
vt 0.714632 0.288354
vt 0.536541 0.288375
vt 0.617273 0.288374
vt 0.772332 0.288360
vt 0.667511 0.288375
vt 0.582608 0.214100
vt 0.617368 0.214093
vt 0.579159 0.214089
vt 0.536727 0.214132
vt 0.777738 0.214068
vt 0.667231 0.214085
vt 0.720049 0.288342
vt 0.714632 0.288354
vt 0.536541 0.288375
vt 0.617273 0.288374
vt 0.772332 0.288360
vt 0.667511 0.288375
vt 0.582608 0.214100
vt 0.617368 0.214093
vt 0.579159 0.214089
vt 0.536727 0.214132
vt 0.777738 0.214068
vt 0.667231 0.214085
vt 0.720049 0.620016
vt 0.863435 0.775036
vt 0.877506 0.748729
vt 0.869769 0.653286
vt 0.861974 0.684016
vt 0.862309 0.719972
vt 0.864580 0.772517
vt 0.934594 0.623268
vt 0.934383 0.715138
vt 0.934253 0.653712
vt 0.934255 0.682104
vt 0.934204 0.745034
vt 0.927238 0.595917
vt 0.957322 0.714835
vt 0.957018 0.742642
vt 0.964967 0.743754
vt 0.945193 0.681767
vt 0.957010 0.654154
vt 0.957133 0.624363
vt 0.957225 0.624363
vt 0.957225 0.001544
vt 0.484716 0.043276
vt 0.468162 0.001549
vt 0.468053 0.043216
vt 0.484722 0.043336
vt 0.438510 0.001593
vt 0.438531 0.043044
vt 0.402013 0.043088
vt 0.363733 0.001346
vt 0.363695 0.001290
vt 0.402014 0.001291
vt 0.331906 0.043044
vt 0.331907 0.620016
vt 0.863435 0.775036
vt 0.877506 0.748729
vt 0.869769 0.653286
vt 0.861974 0.684016
vt 0.862309 0.719972
vt 0.864580 0.772517
vt 0.934594 0.623268
vt 0.934383 0.715138
vt 0.934253 0.653712
vt 0.934255 0.682104
vt 0.934204 0.745034
vt 0.927238 0.595917
vt 0.957322 0.714835
vt 0.957018 0.742642
vt 0.964967 0.743754
vt 0.945193 0.681767
vt 0.957010 0.654154
vt 0.957133 0.624363
vt 0.957225 0.624363
vt 0.957225 0.043276
vt 0.468162 0.001549
vt 0.468053 0.043336
vt 0.438510 0.001593
vt 0.438531 0.043044
vt 0.402013 0.043088
vt 0.363733 0.001346
vt 0.363695 0.001290
vt 0.402014 0.427700
vt 0.787846 0.422678
vt 0.670597 0.984429
vt 0.513206 0.978922
vt 0.599423 0.430611
vt 0.838313 0.976040
vt 0.685814 0.420225
vt 0.593019 0.973193
vt 0.777948 0.416242
vt 0.510760 0.411035
vt 0.425952 0.992619
vt 0.415842 0.199102
vt 0.736682 0.595743
vt 0.864273 0.889011
vt 0.507551 0.888294
vt 0.408235 0.881222
vt 0.688025 0.777598
vt 0.408386 0.519871
vt 0.671956 0.532123
vt 0.426203 0.512738
vt 0.792183 0.804869
vt 0.737944 0.816597
vt 0.838217 0.564893
vt 0.805035 0.810626
vt 0.690879 0.623999
vt 0.600168 0.794162
vt 0.510998 0.634288
vt 0.521479 0.652553
vt 0.428247 0.533565
vt 0.511491 0.574098
vt 0.722564 0.099191
vt 0.588567 0.095888
vt 0.666097 0.006560
vt 0.960996 0.026551
vt 0.590516 0.020343
vt 0.811736 0.024852
vt 0.663720 0.022103
vt 0.730518 0.026242
vt 0.888364 0.142495
vt 0.736947 0.126299
vt 0.910073 0.120775
vt 0.493905 0.128167
vt 0.588787 0.144014
vt 0.663353 0.091876
vt 0.734723 0.090318
vt 0.900747 0.079767
vt 0.975908 0.136061
vt 0.831822 0.093476
vt 0.827262 0.885659
vt 0.594544 0.806136
vt 0.594321 0.531316
vt 0.595461 0.479249
vt 0.591673 0.717472
vt 0.696855 0.875954
vt 0.778091 0.890878
vt 0.841232 0.830247
vt 0.911362 0.796668
vt 0.988109 0.499660
vt 0.840888 0.463809
vt 0.894913 0.393203
vt 0.890312 0.397949
vt 0.911972 0.316362
vt 0.887260 0.306240
vt 0.915025 0.249014
vt 0.906256 0.262548
vt 0.939931 0.472655
vt 0.970586 0.337295
vt 0.992141 0.563102
vt 0.930403 0.212089
vt 0.968694 0.523481
vt 0.948129 0.202251
vt 0.937110 0.006560
vt 0.960996 0.879711
vt 0.713861 0.975257
vt 0.711136 0.973785
vt 0.758778 0.199102
vt 0.736682 0.595743
vt 0.864273 0.889011
vt 0.507551 0.888294
vt 0.408235 0.881222
vt 0.688025 0.777598
vt 0.408386 0.519871
vt 0.671956 0.532123
vt 0.426203 0.512738
vt 0.792183 0.804869
vt 0.737944 0.816597
vt 0.838217 0.564893
vt 0.805035 0.810626
vt 0.690879 0.623999
vt 0.600168 0.794162
vt 0.510998 0.634288
vt 0.521479 0.652553
vt 0.428247 0.533565
vt 0.511491 0.574098
vt 0.722564 0.099191
vt 0.588567 0.095888
vt 0.666097 0.006560
vt 0.960996 0.026551
vt 0.590516 0.020343
vt 0.811736 0.024852
vt 0.663720 0.022103
vt 0.730518 0.026242
vt 0.888364 0.142495
vt 0.736947 0.126299
vt 0.910073 0.120775
vt 0.493905 0.128167
vt 0.588787 0.144014
vt 0.663353 0.091876
vt 0.734723 0.090318
vt 0.900747 0.079767
vt 0.975908 0.136061
vt 0.831822 0.093476
vt 0.827262 0.885659
vt 0.594544 0.806136
vt 0.594321 0.531316
vt 0.595461 0.479249
vt 0.591673 0.717472
vt 0.696855 0.875954
vt 0.778091 0.890878
vt 0.841232 0.830247
vt 0.911362 0.796668
vt 0.988109 0.499660
vt 0.840888 0.463809
vt 0.894913 0.393203
vt 0.890312 0.397949
vt 0.911972 0.316362
vt 0.887260 0.306240
vt 0.915025 0.249014
vt 0.906256 0.262548
vt 0.939931 0.006560
vt 0.960996 0.879711
vt 0.713861 0.357929
vt 0.346476 0.247219
vt 0.322021 0.307318
vt 0.351929 0.159721
vt 0.343370 0.206085
vt 0.348573 0.045495
vt 0.287122 0.419215
vt 0.312528 0.222025
vt 0.253869 0.356548
vt 0.246682 0.402747
vt 0.239311 0.450310
vt 0.223479 0.164037
vt 0.316645 0.310333
vt 0.252565 0.393550
vt 0.159447 0.436943
vt 0.089084 0.123948
vt 0.110644 0.177004
vt 0.115296 0.307948
vt 0.177336 0.237480
vt 0.112878 0.111499
vt 0.247844 0.167343
vt 0.253463 0.340546
vt 0.137420 0.388276
vt 0.128653 0.302489
vt 0.141869 0.333570
vt 0.103881 0.288442
vt 0.107881 0.380846
vt 0.097669 0.103395
vt 0.299599 0.347164
vt 0.168547 0.419215
vt 0.312528 0.239256
vt 0.147758 0.172888
vt 0.149124 0.121737
vt 0.140192 0.057947
vt 0.124019 0.359717
vt 0.317042 0.310150
vt 0.324122 0.101147
vt 0.323883 0.203570
vt 0.317065 0.240510
vt 0.164708 0.167975
vt 0.184699 0.115732
vt 0.175265 0.048675
vt 0.151102 0.303681
vt 0.381475 0.168097
vt 0.385352 0.251028
vt 0.379847 0.348803
vt 0.386420 0.207176
vt 0.380822 0.250444
vt 0.351753 0.288908
vt 0.254732 0.276702
vt 0.163626 0.196879
vt 0.255865 0.200521
vt 0.168418 0.288995
vt 0.316541 0.222589
vt 0.307487 0.222983
vt 0.179087 0.264590
vt 0.257510 0.260515
vt 0.178189 0.264483
vt 0.306782 0.434600
vt 0.054886 0.378503
vt 0.063472 0.174660
vt 0.081098 0.121604
vt 0.076446 0.331227
vt 0.069683 0.286098
vt 0.073683 0.234334
vt 0.076726 0.278280
vt 0.005029 0.413402
vt 0.022803 0.364559
vt 0.030278 0.187075
vt 0.045626 0.140880
vt 0.041575 0.323396
vt 0.035686 0.284103
vt 0.039169 0.239877
vt 0.043318 0.044051
vt 0.304064 0.069377
vt 0.314554 0.108895
vt 0.391018 0.407723
vt 0.356713 0.094208
vt 0.350376 0.357929
vt 0.346476 0.247219
vt 0.322021 0.307318
vt 0.351929 0.159721
vt 0.343370 0.206085
vt 0.348573 0.045495
vt 0.287122 0.419215
vt 0.312528 0.222025
vt 0.253869 0.356548
vt 0.246682 0.402747
vt 0.239311 0.450310
vt 0.223479 0.164037
vt 0.316645 0.310333
vt 0.252565 0.393550
vt 0.159447 0.436943
vt 0.089084 0.123948
vt 0.110644 0.177004
vt 0.115296 0.307948
vt 0.177336 0.237480
vt 0.112878 0.111499
vt 0.247844 0.167343
vt 0.253463 0.340546
vt 0.137420 0.388276
vt 0.128653 0.302489
vt 0.141869 0.333570
vt 0.103881 0.288442
vt 0.107881 0.380846
vt 0.097669 0.103395
vt 0.299599 0.347164
vt 0.168547 0.239256
vt 0.147758 0.172888
vt 0.149124 0.121737
vt 0.140192 0.057947
vt 0.124019 0.359717
vt 0.317042 0.310150
vt 0.324122 0.101147
vt 0.323883 0.203570
vt 0.317065 0.240510
vt 0.164708 0.167975
vt 0.184699 0.115732
vt 0.175265 0.048675
vt 0.151102 0.303681
vt 0.381475 0.168097
vt 0.385352 0.251028
vt 0.379847 0.348803
vt 0.386420 0.207176
vt 0.380822 0.250444
vt 0.351753 0.288908
vt 0.254732 0.276702
vt 0.163626 0.196879
vt 0.255865 0.200521
vt 0.168418 0.288995
vt 0.316541 0.222589
vt 0.307487 0.222983
vt 0.179087 0.264590
vt 0.257510 0.260515
vt 0.178189 0.264483
vt 0.306782 0.434600
vt 0.054886 0.378503
vt 0.063472 0.174660
vt 0.081098 0.121604
vt 0.076446 0.331227
vt 0.069683 0.286098
vt 0.073683 0.234334
vt 0.076726 0.278280
vt 0.005029 0.413402
vt 0.022803 0.364559
vt 0.030278 0.187075
vt 0.045626 0.140880
vt 0.041575 0.323396
vt 0.035686 0.284103
vt 0.039169 0.239877
vt 0.043318 0.402988
vt 0.396367 0.986461
vt 0.912742 0.989601
vt 0.841915 0.899772
vt 0.911467 0.939230
vt 0.981139 0.987459
vt 0.975693 0.981653
vt 0.803977 0.915380
vt 0.847711 0.986461
vt 0.912742 0.915380
vt 0.847711 0.989601
vt 0.841915 0.899772
vt 0.911467 0.939230
vt 0.981139 0.981653
vt 0.803977 0.971292
vt 0.298373 0.991245
vt 0.301613 0.992378
vt 0.349642 0.976747
vt 0.361116 0.958027
vt 0.284374 0.381615
vt 0.452539 0.393466
vt 0.801585 0.349529
vt 0.799970 0.301776
vt 0.792319 0.324116
vt 0.797179 0.381615
vt 0.452539 0.393466
vt 0.801585 0.349529
vt 0.799970 0.301776
vt 0.792319 0.324116
vt 0.797179 0.214130
vt 0.469373 0.288361
vt 0.471953 0.214130
vt 0.469373 0.288361
vt 0.471953 0.586358
vt 0.877704 0.593626
vt 0.934606 0.771757
vt 0.957326 0.714835
vt 0.957018 0.771757
vt 0.957326 0.742642
vt 0.964967 0.681767
vt 0.957010 0.654154
vt 0.957133 0.593626
vt 0.934606 0.586358
vt 0.877704 0.771757
vt 0.957326 0.714835
vt 0.957018 0.771757
vt 0.957326 0.742642
vt 0.964967 0.681767
vt 0.957010 0.654154
vt 0.957133 0.001544
vt 0.484716 0.043216
vt 0.484722 0.001291
vt 0.331906 0.043044
vt 0.331907 0.689853
vt 0.526888 0.712722
vt 0.608194 0.664223
vt 0.428737 0.095857
vt 0.496689 0.024225
vt 0.511988 0.193777
vt 0.838714 0.172979
vt 0.924301 0.167112
vt 0.583881 0.150374
vt 0.477262 0.167112
vt 0.583881 0.185364
vt 0.651316 0.107236
vt 0.980289 0.139151
vt 0.989908 0.605398
vt 0.680098 0.691510
vt 0.750033 0.801355
vt 0.902269 0.782893
vt 0.984375 0.580837
vt 0.866547 0.576740
vt 0.920362 0.474287
vt 0.873931 0.394769
vt 0.863126 0.316796
vt 0.855870 0.194008
vt 0.910648 0.234429
vt 0.877334 0.360231
vt 0.946211 0.393592
vt 0.992140 0.319618
vt 0.938794 0.304938
vt 0.964679 0.298553
vt 0.992141 0.026551
vt 0.590516 0.020343
vt 0.811736 0.022103
vt 0.730518 0.026242
vt 0.888364 0.024852
vt 0.663720 0.976040
vt 0.685814 0.978922
vt 0.599423 0.984429
vt 0.513206 0.992619
vt 0.415842 0.973193
vt 0.777948 0.973785
vt 0.758778 0.712722
vt 0.608194 0.689853
vt 0.526888 0.664223
vt 0.428737 0.422678
vt 0.670597 0.416242
vt 0.510760 0.411035
vt 0.425952 0.427700
vt 0.787846 0.095857
vt 0.496689 0.024225
vt 0.511988 0.193777
vt 0.838714 0.172979
vt 0.924301 0.167112
vt 0.583881 0.167112
vt 0.583881 0.150374
vt 0.477262 0.185364
vt 0.651316 0.139151
vt 0.989908 0.107236
vt 0.980289 0.420225
vt 0.593019 0.605398
vt 0.680098 0.691510
vt 0.750033 0.801355
vt 0.902269 0.782893
vt 0.984375 0.580837
vt 0.866547 0.430611
vt 0.838313 0.523481
vt 0.948129 0.563102
vt 0.930403 0.472655
vt 0.970586 0.202251
vt 0.937110 0.212089
vt 0.968694 0.576740
vt 0.920362 0.474287
vt 0.873931 0.394769
vt 0.863126 0.316796
vt 0.855870 0.234429
vt 0.877334 0.194008
vt 0.910648 0.337295
vt 0.992141 0.393592
vt 0.992140 0.360231
vt 0.946211 0.319618
vt 0.938794 0.304938
vt 0.964679 0.298553
vt 0.992141 0.026551
vt 0.590516 0.020343
vt 0.811736 0.022103
vt 0.730518 0.026242
vt 0.888364 0.024852
vt 0.663720 0.975257
vt 0.711136 0.462371
vt 0.282474 0.439363
vt 0.116257 0.444373
vt 0.148504 0.045319
vt 0.232232 0.464262
vt 0.293692 0.070033
vt 0.097395 0.067689
vt 0.063197 0.117408
vt 0.035807 0.462371
vt 0.282474 0.439363
vt 0.116257 0.444373
vt 0.148504 0.045319
vt 0.232232 0.070033
vt 0.097395 0.067689
vt 0.063197 0.117408
vt 0.035807 0.987459
vt 0.975693 1.000000

f 368/368 300/300 369/369
f 306/306 298/298 331/331
f 297/297 347/347 330/330
f 350/350 352/352 348/348
f 330/330 303/303 329/329
f 295/295 297/297 330/330
f 306/306 322/322 314/314
f 299/299 306/306 332/332
f 305/305 301/301 304/304
f 305/305 585/585 301/301
f 304/304 303/303 308/308
f 323/323 308/308 303/303
f 336/336 328/328 335/335
f 326/326 346/346 334/334
f 323/323 307/307 312/312
f 307/307 323/323 303/303
f 586/586 321/321 309/309
f 308/308 587/587 304/304
f 325/325 318/318 344/344
f 310/310 311/311 327/327
f 326/326 327/327 311/311
f 306/306 314/314 315/315
f 317/317 308/308 316/316
f 323/323 316/316 308/308
f 323/323 312/312 316/316
f 318/318 316/316 312/312
f 318/318 325/325 320/320
f 317/317 586/586 308/308
f 316/316 319/319 317/317
f 321/321 317/317 319/319
f 316/316 318/318 319/319
f 320/320 319/319 318/318
f 325/325 313/313 320/320
f 321/321 586/586 317/317
f 322/322 588/588 314/314
f 588/588 322/322 300/300
f 306/306 331/331 322/322
f 301/301 324/324 295/295
f 304/304 301/301 303/303
f 329/329 303/303 301/301
f 585/585 589/589 324/324
f 298/298 306/306 299/299
f 313/313 326/326 311/311
f 343/343 344/344 312/312
f 327/327 328/328 590/590
f 295/295 324/324 371/371
f 324/324 301/301 585/585
f 369/369 322/322 331/331
f 300/300 322/322 369/369
f 325/325 326/326 313/313
f 343/343 312/312 307/307
f 315/315 314/314 334/334
f 327/327 590/590 310/310
f 335/335 334/334 314/314
f 305/305 304/304 587/587
f 314/314 588/588 336/336
f 330/330 329/329 295/295
f 295/295 329/329 301/301
f 303/303 330/330 307/307
f 330/330 347/347 307/307
f 369/369 331/331 372/372
f 298/298 372/372 331/331
f 315/315 345/345 332/332
f 299/299 332/332 296/296
f 344/344 318/318 312/312
f 326/326 325/325 346/346
f 334/334 346/346 345/345
f 334/334 335/335 326/326
f 327/327 326/326 335/335
f 335/335 328/328 327/327
f 314/314 336/336 335/335
f 587/587 308/308 586/586
f 295/295 445/445 340/340
f 297/297 295/295 340/340
f 295/295 371/371 445/445
f 347/347 297/297 342/342
f 337/337 339/339 342/342
f 298/298 299/299 338/338
f 341/341 338/338 299/299
f 370/370 298/298 338/338
f 298/298 370/370 372/372
f 299/299 342/342 339/339
f 339/339 341/341 299/299
f 340/340 337/337 297/297
f 337/337 342/342 297/297
f 299/299 296/296 342/342
f 302/302 349/349 350/350
f 302/302 350/350 348/348
f 333/333 325/325 344/344
f 350/350 349/349 351/351
f 315/315 334/334 345/345
f 306/306 315/315 332/332
f 325/325 333/333 346/346
f 347/347 343/343 307/307
f 342/342 296/296 347/347
f 296/296 352/352 347/347
f 352/352 296/296 348/348
f 347/347 350/350 343/343
f 350/350 347/347 352/352
f 332/332 348/348 296/296
f 343/343 351/351 344/344
f 351/351 343/343 350/350
f 345/345 348/348 332/332
f 348/348 345/345 302/302
f 346/346 302/302 345/345
f 302/302 346/346 349/349
f 351/351 349/349 333/333
f 333/333 344/344 351/351
f 333/333 349/349 346/346
f 353/353 309/309 321/321
f 321/321 354/354 353/353
f 355/355 311/311 310/310
f 310/310 356/356 355/355
f 354/354 321/321 319/319
f 319/319 357/357 354/354
f 357/357 319/319 320/320
f 320/320 358/358 357/357
f 358/358 320/320 313/313
f 313/313 359/359 358/358
f 359/359 313/313 311/311
f 311/311 355/355 359/359
f 356/356 310/310 590/590
f 590/590 591/591 356/356
f 361/361 353/353 354/354
f 354/354 362/362 361/361
f 363/363 355/355 356/356
f 356/356 364/364 363/363
f 362/362 354/354 357/357
f 357/357 365/365 362/362
f 365/365 357/357 358/358
f 358/358 366/366 365/365
f 366/366 358/358 359/359
f 359/359 367/367 366/366
f 363/363 367/367 359/359
f 359/359 355/355 363/363
f 592/592 364/364 356/356
f 356/356 591/591 592/592
f 361/361 362/362 360/360
f 363/363 364/364 360/360
f 362/362 365/365 360/360
f 365/365 366/366 360/360
f 366/366 367/367 360/360
f 367/367 363/363 360/360
f 364/364 592/592 360/360
f 368/368 369/369 378/378
f 384/384 408/408 376/376
f 375/375 407/407 424/424
f 427/427 425/425 429/429
f 407/407 406/406 381/381
f 373/373 407/407 375/375
f 384/384 392/392 400/400
f 377/377 409/409 384/384
f 383/383 382/382 379/379
f 383/383 379/379 593/593
f 382/382 386/386 381/381
f 401/401 381/381 386/386
f 413/413 412/412 405/405
f 403/403 411/411 423/423
f 401/401 390/390 385/385
f 385/385 381/381 401/401
f 594/594 387/387 399/399
f 386/386 382/382 595/595
f 402/402 421/421 396/396
f 388/388 404/404 389/389
f 403/403 389/389 404/404
f 384/384 393/393 392/392
f 395/395 394/394 386/386
f 401/401 386/386 394/394
f 401/401 394/394 390/390
f 396/396 390/390 394/394
f 396/396 398/398 402/402
f 395/395 386/386 594/594
f 394/394 395/395 397/397
f 399/399 397/397 395/395
f 394/394 397/397 396/396
f 398/398 396/396 397/397
f 402/402 398/398 391/391
f 399/399 395/395 594/594
f 400/400 392/392 596/596
f 596/596 378/378 400/400
f 384/384 400/400 408/408
f 379/379 373/373 324/324
f 382/382 381/381 379/379
f 406/406 379/379 381/381
f 593/593 324/324 589/589
f 376/376 377/377 384/384
f 391/391 389/389 403/403
f 420/420 390/390 421/421
f 404/404 597/597 405/405
f 373/373 371/371 324/324
f 324/324 593/593 379/379
f 369/369 408/408 400/400
f 378/378 369/369 400/400
f 402/402 391/391 403/403
f 420/420 385/385 390/390
f 393/393 411/411 392/392
f 404/404 388/388 597/597
f 412/412 392/392 411/411
f 383/383 595/595 382/382
f 392/392 413/413 596/596
f 407/407 373/373 406/406
f 373/373 379/379 406/406
f 381/381 385/385 407/407
f 407/407 385/385 424/424
f 369/369 372/372 408/408
f 376/376 408/408 372/372
f 393/393 409/409 422/422
f 377/377 374/374 409/409
f 421/421 390/390 396/396
f 403/403 423/423 402/402
f 411/411 422/422 423/423
f 411/411 403/403 412/412
f 404/404 412/412 403/403
f 412/412 404/404 405/405
f 392/392 412/412 413/413
f 595/595 594/594 386/386
f 373/373 417/417 445/445
f 375/375 417/417 373/373
f 373/373 445/445 371/371
f 424/424 419/419 375/375
f 414/414 419/419 416/416
f 376/376 415/415 377/377
f 418/418 377/377 415/415
f 370/370 415/415 376/376
f 376/376 372/372 370/370
f 377/377 416/416 419/419
f 416/416 377/377 418/418
f 417/417 375/375 414/414
f 414/414 375/375 419/419
f 377/377 419/419 374/374
f 380/380 427/427 426/426
f 380/380 425/425 427/427
f 410/410 421/421 402/402
f 427/427 428/428 426/426
f 393/393 422/422 411/411
f 384/384 409/409 393/393
f 402/402 423/423 410/410
f 424/424 385/385 420/420
f 419/419 424/424 374/374
f 374/374 424/424 429/429
f 429/429 425/425 374/374
f 424/424 420/420 427/427
f 427/427 429/429 424/424
f 409/409 374/374 425/425
f 420/420 421/421 428/428
f 428/428 427/427 420/420
f 422/422 409/409 425/425
f 425/425 380/380 422/422
f 423/423 422/422 380/380
f 380/380 426/426 423/423
f 428/428 410/410 426/426
f 410/410 428/428 421/421
f 410/410 423/423 426/426
f 430/430 431/431 399/399
f 399/399 387/387 430/430
f 432/432 433/433 388/388
f 388/388 389/389 432/432
f 431/431 434/434 397/397
f 397/397 399/399 431/431
f 434/434 435/435 398/398
f 398/398 397/397 434/434
f 435/435 436/436 391/391
f 391/391 398/398 435/435
f 436/436 432/432 389/389
f 389/389 391/391 436/436
f 433/433 598/598 597/597
f 597/597 388/388 433/433
f 438/438 439/439 431/431
f 431/431 430/430 438/438
f 440/440 441/441 433/433
f 433/433 432/432 440/440
f 439/439 442/442 434/434
f 434/434 431/431 439/439
f 442/442 443/443 435/435
f 435/435 434/434 442/442
f 443/443 444/444 436/436
f 436/436 435/435 443/443
f 440/440 432/432 436/436
f 436/436 444/444 440/440
f 599/599 598/598 433/433
f 433/433 441/441 599/599
f 438/438 437/437 439/439
f 440/440 437/437 441/441
f 439/439 437/437 442/442
f 442/442 437/437 443/443
f 443/443 437/437 444/444
f 444/444 437/437 440/440
f 441/441 437/437 599/599
f 115/115 105/105 106/106
f 105/105 115/115 478/478
f 478/478 104/104 112/112
f 114/114 109/109 108/108
f 109/109 114/114 108/108
f 114/114 107/107 113/113
f 107/107 114/114 115/115
f 112/112 106/106 109/109
f 106/106 112/112 104/104
f 107/107 111/111 113/113
f 111/111 107/107 122/122
f 116/116 111/111 117/117
f 120/120 114/114 111/111
f 113/113 122/122 120/120
f 113/113 114/114 118/118
f 119/119 480/480 116/116
f 479/479 111/111 112/112
f 112/112 119/119 110/110
f 480/480 119/119 115/115
f 119/119 112/112 118/118
f 117/117 119/119 115/115
f 110/110 119/119 113/113
f 122/122 113/113 123/123
f 116/116 122/122 481/481
f 120/120 117/117 482/482
f 118/118 480/480 483/483
f 117/117 118/118 484/484
f 121/121 120/120 485/485
f 122/122 121/121 125/125
f 125/125 127/127 129/129
f 128/128 126/126 125/125
f 126/126 128/128 131/131
f 130/130 132/132 133/133
f 128/128 133/133 129/129
f 133/133 128/128 135/135
f 131/131 134/134 132/132
f 134/134 131/131 137/137
f 137/137 138/138 486/486
f 143/143 487/487 136/136
f 487/487 143/143 141/141
f 141/141 140/140 139/139
f 139/139 145/145 138/138
f 138/138 141/141 143/143
f 148/148 154/154 146/146
f 152/152 149/149 154/154
f 145/145 143/143 146/146
f 145/145 152/152 488/488
f 151/151 150/150 143/143
f 486/486 148/148 146/146
f 149/149 144/144 151/151
f 144/144 149/149 151/151
f 488/488 142/142 144/144
f 149/149 150/150 151/151
f 142/142 147/147 153/153
f 148/148 155/155 149/149
f 152/152 489/489 488/488
f 149/149 491/491 152/152
f 154/154 493/493 157/157
f 494/494 156/156 495/495
f 156/156 494/494 157/157
f 157/157 156/156 162/162
f 163/163 159/159 496/496
f 496/496 162/162 212/212
f 167/167 169/169 178/178
f 178/178 174/174 217/217
f 238/238 171/171 185/185
f 184/184 217/217 169/169
f 179/179 212/212 189/189
f 180/180 177/177 178/178
f 177/177 180/180 176/176
f 183/183 186/186 181/181
f 193/193 183/183 186/186
f 183/183 193/193 188/188
f 192/192 190/190 498/498
f 189/189 499/499 182/182
f 191/191 192/192 190/190
f 192/192 191/191 500/500
f 180/180 498/498 189/189
f 498/498 180/180 215/215
f 181/181 165/165 173/173
f 182/182 172/172 192/192
f 172/172 182/182 164/164
f 165/165 183/183 181/181
f 183/183 165/165 208/208
f 209/209 201/201 196/196
f 201/201 209/209 194/194
f 197/197 501/501 502/502
f 501/501 197/197 207/207
f 211/211 200/200 198/198
f 200/200 211/211 195/195
f 207/207 199/199 200/200
f 199/199 207/207 211/211
f 208/208 198/198 201/201
f 198/198 208/208 199/199
f 197/197 195/195 194/194
f 195/195 197/197 175/175
f 503/503 202/202 203/203
f 203/203 210/210 205/205
f 204/204 505/505 506/506
f 507/507 204/204 202/202
f 202/202 206/206 509/509
f 203/203 510/510 504/504
f 510/510 203/203 205/205
f 206/206 205/205 211/211
f 207/207 210/210 202/202
f 203/203 211/211 208/208
f 211/211 203/203 205/205
f 501/501 204/204 206/206
f 202/202 195/195 207/207
f 195/195 202/202 194/194
f 501/501 205/205 203/203
f 509/509 208/208 209/209
f 208/208 509/509 205/205
f 205/205 206/206 210/210
f 202/202 503/503 177/177
f 166/166 167/167 177/177
f 167/167 212/212 213/213
f 499/499 189/189 192/192
f 181/181 215/215 214/214
f 172/172 192/192 170/170
f 215/215 165/165 172/172
f 215/215 170/170 187/187
f 499/499 213/213 216/216
f 187/187 184/184 499/499
f 187/187 216/216 511/511
f 181/181 188/188 214/214
f 188/188 181/181 184/184
f 512/512 216/216 181/181
f 511/511 193/193 513/513
f 513/513 185/185 217/217
f 171/171 218/218 219/219
f 219/219 220/220 515/515
f 221/221 168/168 217/217
f 218/218 185/185 236/236
f 236/236 184/184 222/222
f 231/231 233/233 222/222
f 224/224 222/222 226/226
f 227/227 225/225 222/222
f 224/224 223/223 226/226
f 225/225 224/224 223/223
f 224/224 225/225 228/228
f 232/232 234/234 222/222
f 222/222 517/517 223/223
f 223/223 518/518 225/225
f 225/225 519/519 520/520
f 227/227 521/521 232/232
f 227/227 228/228 522/522
f 523/523 230/230 524/524
f 522/522 230/230 525/525
f 524/524 230/230 526/526
f 525/525 230/230 520/520
f 227/227 234/234 235/235
f 201/201 196/196 527/527
f 502/502 197/197 528/528
f 200/200 198/198 529/529
f 199/199 200/200 530/530
f 198/198 201/201 531/531
f 197/197 199/199 184/184
f 236/236 179/179 238/238
f 238/238 217/217 532/532
f 533/533 276/276 241/241
f 534/534 242/242 535/535
f 242/242 534/534 536/536
f 248/248 249/249 276/276
f 243/243 532/532 241/241
f 241/241 242/242 250/250
f 247/247 250/250 254/254
f 256/256 252/252 538/538
f 253/253 539/539 256/256
f 256/256 254/254 539/539
f 539/539 253/253 541/541
f 245/245 279/279 542/542
f 542/542 256/256 247/247
f 247/247 245/245 265/265
f 265/265 260/260 545/545
f 545/545 546/546 264/264
f 264/264 262/262 263/263
f 263/263 264/264 262/262
f 262/262 265/265 259/259
f 259/259 258/258 266/266
f 547/547 239/239 548/548
f 547/547 267/267 274/274
f 267/267 547/547 549/549
f 550/550 551/551 239/239
f 552/552 266/266 270/270
f 266/266 552/552 553/553
f 553/553 548/548 552/552
f 270/270 552/552 274/274
f 274/274 266/266 275/275
f 275/275 272/272 268/268
f 545/545 269/269 259/259
f 259/259 271/271 269/269
f 545/545 258/258 272/272
f 272/272 273/273 258/258
f 259/259 269/269 270/270
f 269/269 259/259 547/547
f 266/266 274/274 533/533
f 534/534 241/241 276/276
f 533/533 241/241 277/277
f 277/277 276/276 253/253
f 538/538 277/277 278/278
f 252/252 256/256 279/279
f 245/245 278/278 256/256
f 279/279 278/278 256/256
f 542/542 279/279 541/541
f 279/279 542/542 277/277
f 538/538 251/251 248/248
f 251/251 538/538 252/252
f 252/252 278/278 280/280
f 557/557 248/248 257/257
f 556/556 245/245 558/558
f 558/558 283/283 282/282
f 536/536 281/281 283/283
f 283/283 558/558 560/560
f 560/560 240/240 285/285
f 285/285 247/247 249/249
f 282/282 281/281 294/294
f 294/294 243/243 562/562
f 563/563 286/286 564/564
f 288/288 564/564 289/289
f 291/291 290/290 287/287
f 288/288 287/287 290/290
f 291/291 292/292 565/565
f 566/566 291/291 286/286
f 286/286 563/563 287/287
f 287/287 286/286 289/289
f 289/289 287/287 291/291
f 571/571 572/572 291/291
f 291/291 289/289 292/292
f 291/291 566/566 573/573
f 574/574 575/575 573/573
f 575/575 576/576 573/573
f 576/576 577/577 573/573
f 577/577 578/578 565/565
f 291/291 572/572 260/260
f 265/265 293/293 261/261
f 546/546 579/579 262/262
f 263/263 581/581 265/265
f 262/262 582/582 263/263
f 261/261 583/583 281/281
f 294/294 584/584 537/537
f 537/537 584/584 448/448
f 450/450 446/446 452/452
f 452/452 448/448 451/451
f 452/452 447/447 450/450
f 448/448 449/449 451/451
f 452/452 447/447 453/453
f 600/600 456/456 454/454
f 454/454 458/458 457/457
f 456/456 600/600 455/455
