# MOD converted: h_w_celebrite_body.mod
# 734 verts, 846 faces

v 42.737190 -0.846517 35.179680
v 40.878906 -19.176552 0.000001
v 38.403297 -33.209206 14.703117
v 59.559540 -24.239655 16.630898
v 49.723579 -26.717503 -0.000000
v 49.414398 -28.969200 31.397285
v 53.883904 14.018155 27.862377
v 63.551292 11.366426 26.851124
v 61.406738 -16.004873 30.816391
v 51.699303 -17.210266 19.909914
v 53.464161 23.157501 17.928106
v 63.478363 19.360840 32.338493
v 63.281273 -2.921257 36.639328
v 53.921394 -1.862526 -0.000000
v 49.562748 28.941160 32.577953
v 50.471069 15.210824 20.456038
v 49.853363 24.838182 20.334488
v 50.077423 24.696644 37.804741
v 50.825066 -1.526834 37.849693
v 50.512321 -1.504590 36.116196
v 47.760330 14.319900 32.559566
v 50.613304 15.178849 21.047764
v 47.372063 27.930450 40.408260
v 47.525909 -0.234168 35.891338
v 47.948120 -10.851051 37.286064
v 47.866486 -8.284814 39.590427
v 47.570576 2.578956 36.908726
v 47.717033 11.673988 30.486038
v 47.616600 20.828772 28.318607
v 47.545277 22.884546 29.986032
v 49.042080 19.125690 17.875408
v 47.360973 28.588707 10.006699
v 47.334614 30.165541 7.369697
v 47.326412 30.653271 16.313234
v 48.688953 27.255854 33.022533
v 48.437771 -16.778713 2.001097
v 47.309658 31.643251 34.498589
v 47.748695 16.994198 24.387402
v 47.414398 26.574474 40.101883
v 47.545635 -3.205133 34.102741
v 49.199852 15.536469 21.749756
v 48.726578 26.212339 39.342667
v 49.163078 -1.691873 31.568502
v 50.075287 -17.558100 0.000002
v 48.576038 30.370594 34.327198
v 48.183186 -13.431625 38.787647
v 47.622589 -5.566340 36.749020
v 49.389874 -7.053106 34.350689
v 49.620659 -12.090456 38.650391
v 47.621902 5.790694 37.861256
v 47.665001 8.467540 37.595985
v 49.175171 4.118869 35.849327
v 49.187489 9.870008 32.624435
v 47.686989 18.789337 26.097759
v 47.472168 24.977551 25.868351
v 48.884327 22.687523 15.529139
v 47.351696 29.141216 13.424712
v 47.345097 29.531883 3.796143
v 47.315269 31.312702 10.876949
v 48.651352 28.297297 5.440771
v 48.613762 29.335764 6.989077
v 39.253944 -30.500023 11.292255
v 38.446098 -30.021999 14.212272
v 38.784920 -29.550999 15.714062
v 39.534981 -29.147860 19.510504
v 39.641121 -29.568993 24.766459
v 39.595398 -25.847132 28.204931
v 40.630135 -25.419447 30.554646
v 41.434975 -21.719141 36.550983
v 42.322197 -13.153020 39.451267
v 43.194603 2.480568 37.986565
v 42.944504 6.532089 36.942242
v 43.689850 10.833069 35.064198
v 43.235546 16.646084 31.150490
v 43.523548 21.189089 28.414076
v 42.557350 22.335903 25.213234
v 42.947533 24.499559 21.797680
v 42.238213 28.488201 19.017372
v 42.806614 28.721357 16.959517
v 42.750084 28.017750 12.840825
v 41.976555 31.022383 9.605440
v 41.798176 30.159296 6.642436
v 42.610100 31.874474 4.053114
v 42.192612 31.135138 26.560598
v 50.145058 20.055910 10.234226
v 49.690903 26.893822 5.119662
v 49.626812 27.918985 15.807641
v 49.760742 25.774240 34.833187
v 50.984940 -8.068267 39.595177
v 42.978939 -6.330766 35.518524
v 50.493729 5.826277 0.000001
v 59.257912 -26.117765 0.000001
v 53.263535 26.974316 -0.000001
v 63.358856 22.523518 -0.000000
v 49.848862 28.719200 -0.000001
v 41.998009 33.393364 11.135029
v 86.390411 9.196221 10.130947
v 95.540428 -0.808410 4.930097
v 94.901131 -11.357734 7.515912
v 95.850021 4.804481 0.000000
v 94.907669 -12.695493 17.623882
v 85.577927 -3.210627 7.970696
v 83.629326 -15.289101 -0.000000
v 86.570183 10.840060 -0.000000
v 95.882568 6.882158 19.345901
v 80.475662 6.260794 13.279520
v 80.773895 11.909486 22.100361
v 79.677231 -3.945019 10.001247
v 76.778046 -18.516180 18.012306
v 78.235641 -12.671277 -0.000002
v 80.826141 13.809561 0.000001
v 76.492516 -19.713902 0.000000
v 89.509315 -14.928932 5.852325
v 89.654045 -13.247372 13.856905
v 90.524895 -2.706379 9.149309
v 91.215851 6.332438 9.039214
v 95.096130 -7.341685 14.253664
v 84.695869 -10.311164 11.183359
v 90.161156 -8.933594 5.337401
v 116.060120 3.901039 5.036435
v 114.105301 -0.814834 5.009033
v 122.611443 2.854050 4.507099
v 120.603386 -1.682460 -0.000000
v 113.196861 -3.335983 9.521324
v 113.026169 -0.320781 8.224711
v 112.964073 7.438386 11.889001
v 102.058922 -7.839762 7.212054
v 103.548470 9.225896 12.342769
v 104.362404 -0.514878 7.696511
v 109.591339 9.944948 11.225334
v 104.407021 7.011314 11.306645
v 110.259003 -2.963951 11.633222
v 113.891342 7.486909 9.480159
v 114.451218 4.040508 12.604815
v 102.592239 7.203615 11.458562
v 110.015854 9.959987 15.831184
v 108.425529 9.856431 13.051975
v 102.566147 -0.504708 12.287455
v 114.397354 -0.704779 15.820401
v 108.386223 -3.310727 18.199980
v 114.592896 6.698320 12.497248
v 115.245049 3.938998 17.897072
v 113.896149 -0.361861 5.972230
v 109.565948 -6.131705 4.593256
v 97.768654 -13.000426 9.093048
v 97.881752 -11.547131 4.410676
v 101.358139 -14.090559 -0.000000
v 108.896988 -7.065946 9.170173
v 101.462700 -12.602686 11.575047
v 98.405617 -7.185144 -0.000000
v 103.354393 8.890914 0.000000
v 113.671349 7.986833 4.507962
v 105.183128 -12.332204 8.871268
v 105.509766 -10.996108 10.209047
v 105.961052 -6.813670 20.840359
v 109.419785 0.290564 12.134507
v 90.995476 3.258349 15.526018
v 85.983582 4.773731 9.432088
v 95.695221 2.817729 11.844900
v 70.291710 -20.877975 22.799545
v 74.284454 8.278591 21.517216
v 71.871391 -14.155640 15.184082
v 74.572975 14.702213 26.329891
v 73.409805 -3.404326 0.000000
v 97.770607 -12.499557 -0.000000
v 83.031128 -17.170954 -0.000000
v 123.522972 5.340430 0.000001
v 119.354881 -4.180034 0.000000
v 101.012154 -13.158693 -0.000000
v 91.369118 8.117645 -0.000001
v 69.776917 -22.371761 0.000000
v 116.913521 6.204563 0.000000
v 104.216866 -11.839677 0.000000
v 109.642960 9.400244 0.000000
v 74.663002 17.212046 5.634211
v 91.243874 -13.184508 7.071783
v 94.689003 -11.758126 5.409594
v 92.175201 -14.935234 5.919869
v 94.211349 -13.904039 6.089958
v 95.434174 -11.525212 3.604547
v 92.120071 -14.286862 0.828225
v 93.116379 -13.646288 6.356261
v 79.222282 -19.954630 11.966151
v 82.381134 -16.518106 9.836247
v 80.552063 -17.989208 6.595307
v 91.791458 -12.993282 0.726213
v 95.070549 -12.766994 0.747543
v 93.345680 -14.433197 0.749547
v 92.881927 -13.502218 0.790963
v 94.671600 -13.970411 43.711884
v 90.471207 -0.151552 16.658342
v 101.413322 6.404940 19.233707
v 105.564247 8.540729 16.919102
v 101.460541 0.061589 18.988781
v 105.902496 -2.066693 21.089054
v 109.607399 5.943823 26.668985
v 102.326385 7.649018 26.006191
v 97.714134 5.432591 27.688717
v 101.907959 -1.684538 26.155344
v 97.881599 0.374919 29.121605
v 105.757156 0.113624 29.244749
v 105.931038 5.343578 28.279711
v 96.825066 5.058578 31.424803
v 104.996262 5.332171 30.827791
v 100.586830 7.454275 28.887587
v 101.505325 7.670742 31.344749
v 104.794853 0.053182 29.915613
v 100.956413 -1.784386 28.353909
v 96.938629 0.327805 34.045021
v 94.032501 -0.128599 35.952335
v 98.348999 -2.679610 37.802551
v 102.493004 -0.640493 37.955891
v 102.552246 5.495841 35.981300
v 98.504166 7.723432 33.912212
v 94.073311 5.153304 41.297943
v 96.000336 -2.739475 39.632027
v 91.930252 -0.163827 42.945404
v 100.025177 -0.790050 45.726578
v 94.374016 6.712374 47.274277
v 97.930443 5.048128 45.364563
v 94.248062 -2.745784 47.002281
v 98.115479 -0.862934 43.985985
v 90.563667 4.652568 39.667515
v 92.016884 4.861932 41.377804
v 96.195351 7.155158 42.955647
v 100.050179 5.230118 0.000000
v 69.920807 -2.372607 -40.068077
v 42.737190 -0.846519 -35.179680
v 40.878899 -19.176552 -14.703119
v 59.559540 -24.239655 -16.630898
v 49.723579 -26.717503 -31.397291
v 53.883904 14.018157 -27.862383
v 63.551292 11.366431 -26.851124
v 61.406738 -16.004885 -30.816393
v 51.699303 -17.210270 -19.909918
v 53.464165 23.157501 -17.928110
v 63.478363 19.360840 -32.338497
v 63.281277 -2.921256 -36.639328
v 53.921394 -1.862524 -32.577961
v 50.471073 15.210829 -20.456038
v 49.853363 24.838182 -20.334490
v 50.077427 24.696642 -37.804741
v 50.825066 -1.526832 -37.849693
v 50.512321 -1.504588 -36.116192
v 47.760326 14.319898 -32.559566
v 50.613304 15.178849 -21.047768
v 47.372063 27.930450 -40.408264
v 47.525909 -0.234167 -35.891338
v 47.948120 -10.851052 -37.286068
v 47.866489 -8.284817 -39.590427
v 47.570576 2.578959 -36.908733
v 47.717037 11.673992 -30.486038
v 47.616596 20.828770 -28.318609
v 47.545277 22.884544 -29.986034
v 49.042080 19.125687 -17.875408
v 47.360970 28.588705 -10.006699
v 47.334614 30.165539 -7.369692
v 47.326405 30.653269 -16.313231
v 48.688950 27.255852 -33.022533
v 48.437767 -16.778717 -2.001097
v 47.309658 31.643250 -34.498589
v 47.748695 16.994202 -24.387016
v 47.415916 26.579666 -40.101875
v 47.545631 -3.205130 -34.102745
v 49.199852 15.536471 -21.749758
v 48.726585 26.212341 -39.342667
v 49.163078 -1.691874 -31.568504
v 50.075287 -17.558096 -34.327190
v 48.183178 -13.431626 -38.787655
v 47.622597 -5.566339 -36.749027
v 49.389877 -7.053106 -34.350693
v 49.620663 -12.090454 -38.650391
v 47.621902 5.790697 -37.861263
v 47.665001 8.467536 -37.595985
v 49.175175 4.118867 -35.849327
v 49.187489 9.870005 -32.624435
v 47.686989 18.789343 -26.097759
v 47.472168 24.977549 -25.868349
v 48.884327 22.687521 -15.529138
v 47.351700 29.141216 -13.424713
v 47.345100 29.531883 -3.796141
v 47.315269 31.312702 -10.876948
v 48.651352 28.297295 -5.440773
v 48.613766 29.335766 -6.989078
v 39.253944 -30.500027 -11.292258
v 38.446098 -30.022001 -14.212275
v 38.784920 -29.551001 -15.714062
v 39.534981 -29.147861 -19.510508
v 39.641121 -29.568993 -24.766460
v 39.595398 -25.847128 -28.204931
v 40.630135 -25.419449 -30.554647
v 41.434978 -21.719152 -36.550987
v 42.322197 -13.153023 -39.451267
v 43.194607 2.480567 -37.986568
v 42.944500 6.532089 -36.942245
v 43.689850 10.833072 -35.064198
v 43.235546 16.646084 -31.150488
v 43.523552 21.189091 -28.414072
v 42.557346 22.335903 -25.213232
v 42.947533 24.499557 -21.797678
v 42.238213 28.488201 -19.017374
v 42.806610 28.721359 -16.959515
v 42.750076 28.017748 -12.840824
v 41.976555 31.022379 -9.605440
v 41.798176 30.159292 -6.642434
v 42.610104 31.874474 -4.053113
v 42.192612 31.135134 -26.560600
v 50.145061 20.055914 -10.234225
v 49.690903 26.893824 -5.119661
v 49.626812 27.918985 -15.807639
v 49.760738 25.774231 -34.833195
v 50.984943 -8.068263 -39.595181
v 42.978931 -6.330770 -35.518524
v 50.493729 5.826276 -11.135028
v 86.390411 9.196222 -10.130947
v 95.540428 -0.808410 -4.930095
v 94.901131 -11.357735 -7.515911
v 95.850021 4.804482 -17.623882
v 85.577927 -3.210628 -7.970696
v 83.629333 -15.289101 -19.345903
v 80.475662 6.260791 -13.279520
v 80.773895 11.909486 -22.100361
v 79.677231 -3.945021 -10.001249
v 76.778046 -18.516180 -18.012304
v 78.235641 -12.671280 -5.852324
v 89.654045 -13.247372 -13.856905
v 90.524895 -2.706379 -9.149308
v 91.215851 6.332438 -9.039214
v 95.096130 -7.341685 -14.253661
v 84.695869 -10.311168 -11.183358
v 90.161156 -8.933596 -5.337401
v 116.060127 3.901040 -5.036434
v 114.105301 -0.814834 -5.009033
v 122.611443 2.854049 -4.507099
v 120.603386 -1.682461 -9.521323
v 113.028580 -0.317956 -8.224710
v 112.960678 7.440848 -11.889003
v 102.058922 -7.839759 -7.212053
v 103.547882 9.225412 -12.342769
v 104.363770 -0.516019 -7.696510
v 109.589378 9.944995 -11.225334
v 104.405373 7.010044 -11.306645
v 110.261894 -2.962986 -11.633220
v 113.887909 7.490819 -9.480159
v 114.450356 4.044256 -12.604813
v 102.592247 7.203633 -11.458561
v 110.011627 9.961058 -15.831184
v 108.422768 9.857166 -13.051975
v 102.566124 -0.504689 -12.287454
v 114.400040 -0.700377 -15.820401
v 108.388672 -3.310008 -18.199980
v 114.591393 6.701498 -12.497246
v 115.244270 3.944005 -17.897072
v 113.897438 -0.358964 -5.972229
v 109.566849 -6.131750 -4.593257
v 97.768654 -13.000425 -9.093047
v 97.881752 -11.547132 -4.410674
v 101.358139 -14.090559 -9.170173
v 101.462700 -12.602688 -11.575047
v 98.405617 -7.185147 -4.507961
v 105.183128 -12.332204 -8.871264
v 105.509766 -10.996111 -10.209047
v 105.962112 -6.813904 -20.840355
v 109.419769 0.290538 -12.134506
v 90.995476 3.258350 -15.526018
v 85.983582 4.773733 -9.432089
v 95.695221 2.817729 -11.844898
v 70.291710 -20.877975 -22.799547
v 74.284454 8.278591 -21.517216
v 71.871391 -14.155643 -15.184082
v 74.572975 14.702213 -26.329891
v 73.409805 -3.404327 -5.634213
v 91.243874 -13.184506 -7.071782
v 94.689003 -11.758127 -5.409593
v 92.175201 -14.935235 -5.919868
v 94.211349 -13.904039 -6.089958
v 95.434174 -11.525212 -3.604545
v 92.120071 -14.286863 -0.828221
v 93.116379 -13.646288 -6.356263
v 79.222282 -19.954630 -11.966147
v 82.381134 -16.518110 -9.836247
v 80.552063 -17.989212 -6.595307
v 91.791458 -12.993282 -0.726206
v 95.070549 -12.766994 -0.747540
v 93.345680 -14.433196 -0.749546
v 92.881927 -13.502218 -0.790962
v 94.671600 -13.970413 -43.711884
v 90.471207 -0.151553 -16.658342
v 101.413345 6.404960 -19.233707
v 105.564278 8.540725 -16.919098
v 101.460526 0.061610 -18.988781
v 105.902466 -2.066698 -21.089054
v 109.607414 5.943796 -26.668989
v 102.326401 7.649017 -26.006189
v 97.714149 5.432607 -27.688717
v 101.907936 -1.684539 -26.155344
v 97.881592 0.374933 -29.121605
v 105.757149 0.113607 -29.244749
v 105.931046 5.343559 -28.279707
v 96.825058 5.058580 -31.424797
v 104.996254 5.332169 -30.827785
v 100.586823 7.454273 -28.887583
v 101.505333 7.670742 -31.344753
v 104.794853 0.053179 -29.915617
v 100.956398 -1.784387 -28.353912
v 96.938629 0.327807 -34.045021
v 94.032501 -0.128603 -35.952332
v 98.348984 -2.679610 -37.802555
v 102.493004 -0.640490 -37.955887
v 102.552246 5.495844 -35.981293
v 98.504158 7.723433 -33.912212
v 94.073311 5.153301 -41.297955
v 96.000343 -2.739476 -39.632030
v 91.930252 -0.163831 -42.945408
v 100.025177 -0.790047 -45.726570
v 94.374008 6.712374 -47.274277
v 97.930450 5.048129 -45.364567
v 94.248062 -2.745785 -47.002281
v 98.115479 -0.862933 -43.985985
v 90.563667 4.652565 -39.667511
v 92.016884 4.861928 -41.377800
v 96.195343 7.155157 -42.955647
v 100.050179 5.230121 20.334488
v 50.077423 24.696644 -0.000000
v 49.848862 28.719200 37.804741
v 50.825066 -1.526834 32.559566
v 50.613304 15.178849 30.816391
v 51.699303 -17.210266 16.313234
v 48.688953 27.255854 10.876949
v 48.651352 28.297297 37.595985
v 49.175171 4.118869 35.849327
v 49.187489 9.870008 39.342667
v 49.163078 -1.691873 36.749020
v 49.389874 -7.053106 34.350689
v 49.620659 -12.090456 25.868351
v 48.884327 22.687523 21.749756
v 48.726578 26.212339 34.102741
v 49.199852 15.536469 29.986032
v 49.042080 19.125690 0.000002
v 48.576038 30.370594 5.440771
v 48.613762 29.335764 31.568502
v 50.075287 -17.558100 0.000001
v 59.257912 -26.117765 14.703117
v 59.559540 -24.239655 32.338493
v 63.281273 -2.921257 27.862377
v 63.551292 11.366426 26.851124
v 61.406738 -16.004873 17.928106
v 63.478363 19.360840 4.930097
v 94.901131 -11.357734 0.000000
v 94.907669 -12.695493 9.432088
v 95.695221 2.817729 5.337401
v 116.060120 3.901039 12.342769
v 104.362404 -0.514878 12.604815
v 102.592239 7.203615 11.225334
v 104.407021 7.011314 7.515912
v 95.850021 4.804481 -0.000000
v 95.882568 6.882158 10.130947
v 95.540428 -0.808410 9.039214
v 95.096130 -7.341685 16.658342
v 101.413322 6.404940 0.000000
v 116.913521 6.204563 -0.000000
v 113.196861 -3.335983 5.036435
v 114.105301 -0.814834 10.130947
v 95.540428 -0.808410 -0.000001
v 63.358856 22.523518 0.749547
v 92.881927 -13.502218 5.634211
v 91.243874 -13.184508 6.595307
v 91.791458 -12.993282 7.071783
v 94.689003 -11.758126 6.089958
v 95.434174 -11.525212 0.726213
v 95.070549 -12.766994 16.658342
v 101.413322 6.404940 19.233707
v 105.564247 8.540729 16.919102
v 101.460541 0.061589 26.006191
v 97.714134 5.432591 16.658342
v 101.413322 6.404940 18.988781
v 105.902496 -2.066693 20.840359
v 109.419785 0.290564 21.089054
v 109.607399 5.943823 28.279711
v 96.825066 5.058578 39.667515
v 92.016884 4.861932 33.912212
v 94.073311 5.153304 42.945404
v 100.025177 -0.790050 42.955647
v 100.050179 5.230118 41.377804
v 96.195351 7.155158 43.985985
v 90.563667 4.652568 39.667515
v 92.016884 4.861932 39.632027
v 91.930252 -0.163827 43.711884
v 90.471207 -0.151552 41.297943
v 96.000336 -2.739475 14.703117
v 59.559540 -24.239655 26.851124
v 61.406738 -16.004873 17.928106
v 63.478363 19.360840 0.000000
v 69.920807 -2.372607 -0.000001
v 63.358856 22.523518 0.000001
v 59.257912 -26.117765 0.000000
v 69.920807 -2.372607 32.338493
v 63.281273 -2.921257 0.000000
v 69.920807 -2.372607 27.862377
v 63.551292 11.366426 0.000000
v 69.920807 -2.372607 0.000000
v 69.920807 -2.372607 -0.000001
v 63.358856 22.523518 0.000001
v 53.263535 26.974316 -0.000000
v 49.414398 -28.969200 0.000001
v 59.257912 -26.117765 -0.000000
v 49.848862 28.719200 -20.334490
v 50.077427 24.696642 0.000002
v 48.576038 30.370594 -0.000000
v 49.848862 28.719200 -37.804741
v 50.825066 -1.526832 -32.559566
v 50.613304 15.178849 -30.816393
v 51.699303 -17.210270 -10.876948
v 48.651352 28.297295 -16.313231
v 48.688950 27.255852 -35.849327
v 49.187489 9.870005 -37.595985
v 49.175175 4.118867 -39.342667
v 49.163078 -1.691874 -36.749027
v 49.389877 -7.053106 -34.350693
v 49.620663 -12.090454 -21.749758
v 48.726585 26.212341 -25.868349
v 48.884327 22.687521 -34.102745
v 49.199852 15.536471 -29.986034
v 49.042080 19.125687 0.000002
v 48.576038 30.370594 -5.440773
v 48.613766 29.335766 -31.568504
v 50.075287 -17.558096 0.000001
v 38.403297 -33.209206 -0.000001
v 41.998009 33.393364 -0.000000
v 49.562748 28.941160 0.000000
v 89.509315 -14.928932 -0.000000
v 83.031128 -17.170954 -0.000000
v 91.369118 8.117645 -0.000000
v 95.882568 6.882158 -0.000000
v 86.570183 10.840060 -0.000002
v 80.826141 13.809561 0.000001
v 59.257912 -26.117765 -14.703119
v 59.559540 -24.239655 -0.000001
v 69.776917 -22.371761 -32.338497
v 63.281277 -2.921256 -27.862383
v 63.551292 11.366431 -26.851124
v 61.406738 -16.004885 -17.928110
v 63.478363 19.360840 0.000001
v 76.492516 -19.713902 0.000000
v 94.907669 -12.695493 0.000000
v 116.913521 6.204563 -0.000000
v 123.522972 5.340430 0.000001
v 119.354881 -4.180034 -0.000000
v 113.196861 -3.335983 0.000000
v 94.907669 -12.695493 -4.930095
v 94.901131 -11.357735 -0.000000
v 103.354393 8.890914 -9.432089
v 95.695221 2.817729 -5.337401
v 116.060127 3.901040 -12.342769
v 104.363770 -0.516019 -11.225334
v 104.405373 7.010044 -12.604813
v 102.592247 7.203633 -7.515911
v 95.850021 4.804482 -0.000000
v 95.882568 6.882158 -10.130947
v 95.540428 -0.808410 0.000000
v 104.216866 -11.839677 -0.000000
v 108.896988 -7.065946 0.000000
v 101.012154 -13.158693 -9.039214
v 95.096130 -7.341685 0.000000
v 97.770607 -12.499557 -16.658342
v 101.413345 6.404960 0.000000
v 109.642960 9.400244 0.000000
v 113.671349 7.986833 0.000000
v 116.913521 6.204563 -0.000000
v 113.196861 -3.335983 -5.036434
v 114.105301 -0.814834 -10.130947
v 95.540428 -0.808410 0.000000
v 74.663002 17.212046 -0.000001
v 63.358856 22.523518 -0.749546
v 92.881927 -13.502218 -5.634213
v 91.243874 -13.184506 -6.595307
v 91.791458 -12.993282 -7.071782
v 94.689003 -11.758127 -6.089958
v 95.434174 -11.525212 -0.726206
v 95.070549 -12.766994 -16.658342
v 101.413345 6.404960 -19.233707
v 105.564278 8.540725 -16.919098
v 101.460526 0.061610 -16.658342
v 101.413345 6.404960 -26.006189
v 97.714149 5.432607 -18.988781
v 105.902466 -2.066698 -20.840355
v 109.419769 0.290538 -21.089054
v 109.607414 5.943796 -28.279707
v 96.825058 5.058580 -39.667511
v 92.016884 4.861928 -33.912212
v 94.073311 5.153301 -42.945408
v 100.025177 -0.790047 -42.955647
v 100.050179 5.230121 -41.377800
v 96.195343 7.155157 -43.985985
v 90.563667 4.652565 -39.667511
v 92.016884 4.861928 -39.632030
v 91.930252 -0.163831 -43.711884
v 90.471207 -0.151553 -41.297955
v 96.000343 -2.739476 -14.703119
v 59.559540 -24.239655 -26.851124
v 61.406738 -16.004885 0.000000
v 69.920807 -2.372607 -17.928110
v 63.478363 19.360840 -0.000001
v 63.358856 22.523518 0.000000
v 69.920807 -2.372607 0.000001
v 59.257912 -26.117765 0.000000
v 69.920807 -2.372607 -32.338497
v 63.281277 -2.921256 -27.862383
v 63.551292 11.366431 0.000000
v 69.920807 -2.372607 0.000000
v 69.920807 -2.372607 0.000000
v 69.920807 -2.372607 0.449398
v 74.409843 11.627781 0.000000
v 70.636421 7.005482 1.599193
v 70.653534 0.628979 9.655946
v 74.898331 11.562931 10.684262
v 69.843857 9.061107 17.033924
v 72.996284 0.110881 15.341804
v 72.678101 -6.821638 15.504449
v 60.902302 -5.941854 17.254553
v 60.872189 1.619244 8.791213
v 72.165466 -9.453199 8.079668
v 76.898285 -8.008717 9.911841
v 60.585617 -8.423686 3.170867
v 69.714584 8.268764 4.662465
v 60.192959 7.967841 14.832284
v 74.414459 6.369873 12.593878
v 60.728642 7.843252 2.185227
v 71.434219 -7.105600 2.509173
v 59.788116 1.006392 3.734869
v 60.145603 -5.675988 5.554254
v 48.636200 -5.451187 10.569797
v 49.151699 -7.550949 4.512466
v 47.447983 1.531860 7.920245
v 47.558338 7.569237 16.702101
v 48.443192 2.114957 13.703042
v 48.173122 7.423668 15.246097
v 49.652096 -4.881310 6.143130
v 45.318398 -4.985740 4.895604
v 44.641582 1.546991 15.306399
v 46.417301 -4.494491 13.926845
v 46.209309 7.460955 8.019499
v 45.830433 7.626740 10.970900
v 45.770500 -7.273841 16.873400
v 45.863098 2.165926 15.377543
v 35.925026 9.208513 19.508480
v 35.625275 3.046348 11.302197
v 42.378899 -6.217441 6.830048
v 42.601891 -4.381608 15.638998
v 43.370201 -3.694328 4.991020
v 34.123306 2.624344 6.671602
v 20.482710 3.588458 9.189714
v 20.483526 -4.618791 8.785299
v 35.591682 9.457725 17.271362
v 20.484367 -4.281300 19.046955
v 20.485300 4.294082 15.818406
v 20.485001 9.062571 8.996939
v 20.482998 8.894987 0.000000
v 71.119102 -6.981515 12.652273
v 80.052132 6.747410 15.726937
v 79.362038 -0.318450 13.434578
v 78.100586 -5.654196 7.845704
v 80.676933 10.723924 -0.000000
v 80.726318 12.051540 0.000000
v 70.367851 0.579016 0.000000
v 75.883591 -8.502195 -1.599193
v 70.653534 0.628980 -9.655946
v 74.898331 11.562930 -10.684262
v 69.843857 9.061107 -17.033924
v 72.996284 0.110967 -15.341803
v 72.678101 -6.821639 -15.504449
v 60.902302 -5.941854 -17.254555
v 60.872189 1.619246 -8.791212
v 72.165466 -9.453200 -8.079666
v 76.898285 -8.008718 -9.911842
v 60.585625 -8.423686 -3.170869
v 69.714592 8.268764 -4.662465
v 60.192959 7.967841 -14.832284
v 74.414459 6.369872 -12.593878
v 60.728642 7.843252 -2.185227
v 71.434219 -7.105600 -2.509173
v 59.788116 1.006392 -3.734871
v 60.145603 -5.675990 -5.554255
v 48.636200 -5.451188 -10.569798
v 49.151695 -7.550948 -4.512466
v 47.447979 1.531862 -7.920245
v 47.558334 7.569239 -16.702101
v 48.443192 2.114958 -13.703042
v 48.173122 7.423668 -15.246097
v 49.652096 -4.881310 -6.143131
v 45.318398 -4.985741 -4.895603
v 44.641582 1.546991 -15.306400
v 46.417297 -4.494491 -13.926845
v 46.209309 7.460955 -8.019499
v 45.830433 7.626740 -10.970900
v 45.770500 -7.273841 -16.873400
v 45.863098 2.165927 -15.377543
v 35.925026 9.208512 -19.508480
v 35.625275 3.046346 -11.302200
v 42.378899 -6.217441 -6.830048
v 42.601891 -4.381609 -15.638998
v 43.370201 -3.694329 -4.991019
v 34.123306 2.624345 -6.671601
v 20.482710 3.588458 -9.189716
v 20.483526 -4.618793 -8.785300
v 35.591682 9.457726 -17.271360
v 20.484367 -4.281300 -19.046955
v 20.485304 4.294083 -15.818406
v 20.485001 9.062570 -8.996939
v 20.482998 8.894985 -12.652272
v 80.052132 6.747411 -15.726937
v 79.362038 -0.318448 -13.434578
v 78.100586 -5.654197 -7.845704
v 80.676933 10.723925 1.599193
v 70.653534 0.628979 4.512466
v 47.447983 1.531860 4.895604
v 44.641582 1.546991 4.991020
v 34.123306 2.624344 2.509173
v 59.788116 1.006392 6.671602
v 20.482710 3.588458 0.000000
v 70.367851 0.579016 0.000000
v 70.367851 0.579016 0.000000
v 70.636421 7.005482 -0.000000
v 74.409843 11.627781 -1.599193
v 70.653534 0.628980 -4.512466
v 47.447979 1.531862 -4.895603
v 44.641582 1.546991 -4.991019
v 34.123306 2.624345 -2.509173
v 59.788116 1.006392 -6.671601
v 20.482710 3.588458 0.000000
v 71.119102 -6.981515 0.000000
v 75.883591 -8.502195 0.000000
v 70.367851 0.579016 -0.000000
v 80.726318 12.051540 0.960550

vt 0.354704 0.667230
vt 0.313432 0.986685
vt 0.278384 0.858784
vt 0.494123 0.841287
vt 0.394853 0.986685
vt 0.389986 0.480775
vt 0.549511 0.549073
vt 0.627714 0.738927
vt 0.519692 0.704486
vt 0.424376 0.394370
vt 0.640389 0.484667
vt 0.706979 0.646029
vt 0.562199 0.592695
vt 0.477239 0.207274
vt 0.668333 0.452461
vt 0.482809 0.342770
vt 0.548709 0.363488
vt 0.618635 0.577138
vt 0.450236 0.581130
vt 0.433327 0.012101
vt 0.377948 0.456831
vt 0.522811 0.012101
vt 0.527747 0.012101
vt 0.263342 0.012101
vt 0.176890 0.012101
vt 0.198746 0.012101
vt 0.286853 0.012101
vt 0.355941 0.012101
vt 0.443723 0.012101
vt 0.465972 0.029820
vt 0.434323 0.012101
vt 0.550652 0.012101
vt 0.611283 0.012101
vt 0.633311 0.029820
vt 0.562296 0.012101
vt 0.143541 0.012101
vt 0.673141 0.012101
vt 0.399027 0.012101
vt 0.509068 0.012101
vt 0.245106 0.029820
vt 0.390644 0.029820
vt 0.521680 0.029820
vt 0.260700 0.029820
vt 0.136226 0.029820
vt 0.684141 0.012101
vt 0.159312 0.012101
vt 0.223084 0.029820
vt 0.219209 0.029820
vt 0.177718 0.012101
vt 0.312547 0.012101
vt 0.332708 0.029820
vt 0.304015 0.029820
vt 0.347330 0.012101
vt 0.422475 0.012101
vt 0.486235 0.029820
vt 0.478002 0.012101
vt 0.571253 0.012101
vt 0.592081 0.012101
vt 0.654513 0.029820
vt 0.602911 0.029820
vt 0.643526 0.926557
vt 0.287428 0.888189
vt 0.279493 0.862143
vt 0.282758 0.852006
vt 0.287971 0.815468
vt 0.290603 0.765164
vt 0.291822 0.737615
vt 0.304006 0.713884
vt 0.312258 0.636083
vt 0.335578 0.526820
vt 0.373240 0.492114
vt 0.378133 0.457195
vt 0.404788 0.419979
vt 0.412854 0.387842
vt 0.441437 0.354623
vt 0.445439 0.328257
vt 0.467016 0.300536
vt 0.490053 0.279082
vt 0.498498 0.272604
vt 0.516844 0.243527
vt 0.540857 0.210657
vt 0.554633 0.201394
vt 0.578347 0.181658
vt 0.588565 0.397615
vt 0.515759 0.275022
vt 0.608521 0.241148
vt 0.638427 0.311938
vt 0.575930 0.630345
vt 0.429756 0.586881
vt 0.353587 0.523622
vt 0.455443 0.986685
vt 0.490413 0.300392
vt 0.789646 0.400982
vt 0.842059 0.265876
vt 0.770854 0.149686
vt 0.612989 0.701864
vt 0.858430 0.840179
vt 0.884166 0.942914
vt 0.853752 0.791364
vt 0.920650 0.986685
vt 0.850094 0.787891
vt 0.780357 0.911326
vt 0.742146 0.659047
vt 0.950586 0.750774
vt 0.987498 0.689978
vt 0.772086 0.648866
vt 0.822423 0.751384
vt 0.718467 0.896596
vt 0.673886 0.821746
vt 0.692185 0.596434
vt 0.925464 0.986685
vt 0.669741 0.986685
vt 0.796570 0.930108
vt 0.801918 0.817260
vt 0.832585 0.746655
vt 0.890334 0.890690
vt 0.862641 0.848389
vt 0.757370 0.871899
vt 0.812488 0.359894
vt 0.909001 0.419165
vt 0.909001 0.354843
vt 0.982861 0.406411
vt 0.979004 0.483223
vt 0.909001 0.418663
vt 0.193658 0.310850
vt 0.203178 0.591597
vt 0.152027 0.185900
vt 0.177402 0.176487
vt 0.047386 0.253147
vt 0.195217 0.190673
vt 0.131801 0.485638
vt 0.161969 0.324398
vt 0.169366 0.360156
vt 0.200725 0.198662
vt 0.099833 0.256833
vt 0.157825 0.267520
vt 0.101547 0.538188
vt 0.081913 0.407896
vt 0.162102 0.469615
vt 0.098984 0.336625
vt 0.107347 0.361889
vt 0.167908 0.404601
vt 0.106121 0.506979
vt 0.233397 0.674219
vt 0.229034 0.649948
vt 0.184047 0.639805
vt 0.245185 0.526144
vt 0.303550 0.621030
vt 0.197823 0.628490
vt 0.138404 0.155588
vt 0.253738 0.277872
vt 0.296269 0.594351
vt 0.251188 0.579010
vt 0.207226 0.540906
vt 0.177790 0.407809
vt 0.079326 0.774038
vt 0.859670 0.737487
vt 0.818579 0.809835
vt 0.902496 0.882698
vt 0.608153 0.636439
vt 0.717820 0.789248
vt 0.629146 0.583789
vt 0.777961 0.712515
vt 0.662278 0.695037
vt 0.276588 0.986685
vt 0.733280 0.293797
vt 0.984488 0.464095
vt 0.972887 0.653185
vt 0.290580 0.704818
vt 0.968685 0.986685
vt 0.602484 0.293797
vt 0.909001 0.606980
vt 0.299276 0.225174
vt 0.278983 0.520837
vt 0.895114 0.355863
vt 0.318347 0.399273
vt 0.293875 0.283715
vt 0.406341 0.290821
vt 0.370412 0.409010
vt 0.303984 0.126857
vt 0.291189 0.078330
vt 0.256003 0.078330
vt 0.505421 0.179656
vt 0.485009 0.137823
vt 0.501167 0.362925
vt 0.306401 0.409010
vt 0.376696 0.188495
vt 0.403041 0.380286
vt 0.376696 0.188495
vt 0.370181 0.791329
vt 0.241086 0.215167
vt 0.062280 0.277519
vt 0.067728 0.525800
vt 0.061181 0.464064
vt 0.078158 0.338205
vt 0.073240 0.941740
vt 0.084642 0.979612
vt 0.095113 0.823678
vt 0.095094 0.785074
vt 0.095119 0.860289
vt 0.095075 0.902567
vt 0.095075 0.979167
vt 0.113969 0.902542
vt 0.113941 0.940069
vt 0.119575 0.940158
vt 0.102955 0.860333
vt 0.113944 0.824419
vt 0.113959 0.786358
vt 0.113973 0.787701
vt 0.165121 0.825441
vt 0.165131 0.860447
vt 0.165108 0.903122
vt 0.165047 0.938342
vt 0.165004 0.978554
vt 0.165069 0.826303
vt 0.207047 0.789664
vt 0.206231 0.860408
vt 0.207997 0.934339
vt 0.241086 0.903521
vt 0.241083 0.827004
vt 0.241086 0.860378
vt 0.241077 0.756243
vt 0.241106 0.973041
vt 0.205873 0.936182
vt 0.206059 0.903339
vt 0.206290 0.356741
vt 0.599224 0.550602
vt 0.354704 0.667230
vt 0.313432 0.858784
vt 0.494123 0.841287
vt 0.394853 0.480775
vt 0.549511 0.549073
vt 0.627714 0.738927
vt 0.519692 0.704486
vt 0.424376 0.394370
vt 0.640389 0.484667
vt 0.706979 0.646029
vt 0.562199 0.592695
vt 0.477239 0.452461
vt 0.482809 0.342770
vt 0.548709 0.363488
vt 0.618635 0.577138
vt 0.450236 0.581130
vt 0.433327 0.012101
vt 0.377948 0.456831
vt 0.522811 0.012101
vt 0.527747 0.012101
vt 0.263342 0.012101
vt 0.176890 0.012101
vt 0.198746 0.012101
vt 0.286853 0.012101
vt 0.355941 0.012101
vt 0.443723 0.012101
vt 0.465972 0.029820
vt 0.434323 0.012101
vt 0.550652 0.012101
vt 0.611283 0.012101
vt 0.633311 0.029820
vt 0.562296 0.012101
vt 0.143541 0.012101
vt 0.673141 0.012101
vt 0.399027 0.012101
vt 0.509068 0.012101
vt 0.245106 0.029820
vt 0.390644 0.029820
vt 0.521680 0.029820
vt 0.260700 0.029820
vt 0.136226 0.012101
vt 0.159312 0.012101
vt 0.223084 0.029820
vt 0.219209 0.029820
vt 0.177718 0.012101
vt 0.312547 0.012101
vt 0.332708 0.029820
vt 0.304015 0.029820
vt 0.347330 0.012101
vt 0.422475 0.012101
vt 0.486235 0.029820
vt 0.478002 0.012101
vt 0.571253 0.012101
vt 0.592081 0.012101
vt 0.654513 0.029820
vt 0.602911 0.029820
vt 0.643526 0.926557
vt 0.287428 0.888189
vt 0.279493 0.862143
vt 0.282758 0.852006
vt 0.287971 0.815468
vt 0.290603 0.765164
vt 0.291822 0.737615
vt 0.304006 0.713884
vt 0.312258 0.636083
vt 0.335578 0.526820
vt 0.373240 0.492114
vt 0.378133 0.457195
vt 0.404788 0.419979
vt 0.412854 0.387842
vt 0.441437 0.354623
vt 0.445439 0.328257
vt 0.467016 0.300536
vt 0.490053 0.279082
vt 0.498498 0.272604
vt 0.516844 0.243527
vt 0.540857 0.210657
vt 0.554633 0.201394
vt 0.578347 0.181658
vt 0.588565 0.397615
vt 0.515759 0.275022
vt 0.608521 0.241148
vt 0.638427 0.311938
vt 0.575930 0.630345
vt 0.429756 0.586881
vt 0.353587 0.523622
vt 0.455443 0.701864
vt 0.858430 0.840179
vt 0.884166 0.942914
vt 0.853752 0.791364
vt 0.920650 0.787891
vt 0.780357 0.911326
vt 0.742146 0.689978
vt 0.772086 0.648866
vt 0.822423 0.751384
vt 0.718467 0.896596
vt 0.673886 0.821746
vt 0.692185 0.930108
vt 0.801918 0.817260
vt 0.832585 0.746655
vt 0.890334 0.890690
vt 0.862641 0.848389
vt 0.757370 0.871899
vt 0.812488 0.359894
vt 0.909001 0.419165
vt 0.909001 0.354843
vt 0.982861 0.406411
vt 0.979004 0.418663
vt 0.193658 0.310850
vt 0.203178 0.591597
vt 0.152027 0.185900
vt 0.177402 0.176487
vt 0.047386 0.253147
vt 0.195217 0.190673
vt 0.131801 0.485638
vt 0.161969 0.324398
vt 0.169366 0.360156
vt 0.200725 0.198662
vt 0.099833 0.256833
vt 0.157825 0.267520
vt 0.101547 0.538188
vt 0.081913 0.407896
vt 0.162102 0.469615
vt 0.098984 0.336625
vt 0.107347 0.361889
vt 0.167908 0.404601
vt 0.106121 0.506979
vt 0.233397 0.674219
vt 0.229034 0.649948
vt 0.184047 0.639805
vt 0.245185 0.621030
vt 0.197823 0.628490
vt 0.138404 0.594351
vt 0.251188 0.579010
vt 0.207226 0.540906
vt 0.177790 0.407809
vt 0.079326 0.774038
vt 0.859670 0.737487
vt 0.818579 0.809835
vt 0.902496 0.882698
vt 0.608153 0.636439
vt 0.717820 0.789248
vt 0.629146 0.583789
vt 0.777961 0.712515
vt 0.662278 0.355863
vt 0.318347 0.399273
vt 0.293875 0.283715
vt 0.406341 0.290821
vt 0.370412 0.409010
vt 0.303984 0.126857
vt 0.291189 0.078330
vt 0.256003 0.078330
vt 0.505421 0.179656
vt 0.485009 0.137823
vt 0.501167 0.362925
vt 0.306401 0.409010
vt 0.376696 0.188495
vt 0.403041 0.380286
vt 0.376696 0.188495
vt 0.370181 0.791329
vt 0.241086 0.215167
vt 0.062280 0.277519
vt 0.067728 0.525800
vt 0.061181 0.464064
vt 0.078158 0.338205
vt 0.073240 0.941740
vt 0.084642 0.979612
vt 0.095113 0.823678
vt 0.095094 0.785074
vt 0.095119 0.860289
vt 0.095075 0.902567
vt 0.095075 0.979167
vt 0.113969 0.902542
vt 0.113941 0.940069
vt 0.119575 0.940158
vt 0.102955 0.860333
vt 0.113944 0.824419
vt 0.113959 0.786358
vt 0.113973 0.787701
vt 0.165121 0.825441
vt 0.165131 0.860447
vt 0.165108 0.903122
vt 0.165047 0.938342
vt 0.165004 0.978554
vt 0.165069 0.826303
vt 0.207047 0.789664
vt 0.206231 0.860408
vt 0.207997 0.934339
vt 0.241086 0.903521
vt 0.241083 0.827004
vt 0.241086 0.860378
vt 0.241077 0.756243
vt 0.241106 0.973041
vt 0.205873 0.936182
vt 0.206059 0.903339
vt 0.206290 0.047538
vt 0.528138 0.047538
vt 0.684141 0.047538
vt 0.274095 0.047538
vt 0.401033 0.047538
vt 0.153588 0.029820
vt 0.562296 0.029820
vt 0.602911 0.029820
vt 0.304015 0.029820
vt 0.347330 0.029820
vt 0.260700 0.029820
vt 0.219209 0.029820
vt 0.177718 0.029820
vt 0.478002 0.029820
vt 0.521680 0.029820
vt 0.390644 0.029820
vt 0.434323 0.029820
vt 0.684141 0.029820
vt 0.643526 0.029820
vt 0.136226 0.986685
vt 0.490413 0.858784
vt 0.494123 0.646029
vt 0.562199 0.549073
vt 0.627714 0.738927
vt 0.519692 0.484667
vt 0.706979 0.705460
vt 0.198149 0.729467
vt 0.256413 0.094221
vt 0.102848 0.357568
vt 0.250170 0.545498
vt 0.093412 0.612795
vt 0.036680 0.624919
vt 0.060003 0.094409
vt 0.134759 0.071838
vt 0.221438 0.648672
vt 0.065028 0.679212
vt 0.130374 0.587164
vt 0.019155 0.323277
vt 0.309132 0.460043
vt 0.307308 0.423766
vt 0.251712 0.086313
vt 0.061415 0.400982
vt 0.842059 0.188495
vt 0.427605 0.301096
vt 0.443295 0.321259
vt 0.423082 0.331798
vt 0.354413 0.310845
vt 0.334444 0.188495
vt 0.343114 0.992161
vt 0.012357 0.955010
vt 0.012357 0.775317
vt 0.012357 0.746837
vt 0.095141 0.730208
vt 0.012357 0.819231
vt 0.012357 0.860741
vt 0.012357 0.911077
vt 0.012357 0.750893
vt 0.113981 0.753386
vt 0.205415 0.750266
vt 0.165079 0.860408
vt 0.207997 0.903339
vt 0.206290 0.936182
vt 0.206059 0.968282
vt 0.241103 0.973041
vt 0.205873 0.789664
vt 0.206231 0.791329
vt 0.241086 0.826303
vt 0.207047 0.360542
vt 0.598413 0.356741
vt 0.599224 0.348677
vt 0.605164 0.346023
vt 0.609448 0.346023
vt 0.609448 0.364599
vt 0.598296 0.360542
vt 0.598413 0.353795
vt 0.600573 0.350720
vt 0.602650 0.350720
vt 0.602650 0.353795
vt 0.600573 0.348677
vt 0.605164 0.400982
vt 0.842059 0.300392
vt 0.789646 0.986685
vt 0.389986 0.986685
vt 0.490413 0.265876
vt 0.770854 0.047538
vt 0.528138 0.029820
vt 0.684141 0.047538
vt 0.684141 0.047538
vt 0.274095 0.047538
vt 0.401033 0.047538
vt 0.153588 0.029820
vt 0.602911 0.029820
vt 0.562296 0.029820
vt 0.347330 0.029820
vt 0.304015 0.029820
vt 0.260700 0.029820
vt 0.219209 0.029820
vt 0.177718 0.029820
vt 0.521680 0.029820
vt 0.478002 0.029820
vt 0.390644 0.029820
vt 0.434323 0.029820
vt 0.684141 0.029820
vt 0.643526 0.029820
vt 0.136226 0.986685
vt 0.278384 0.149686
vt 0.612989 0.207274
vt 0.668333 0.986685
vt 0.796570 0.986685
vt 0.733280 0.704818
vt 0.968685 0.750774
vt 0.987498 0.659047
vt 0.950586 0.596434
vt 0.925464 0.986685
vt 0.490413 0.858784
vt 0.494123 0.986685
vt 0.602484 0.646029
vt 0.562199 0.549073
vt 0.627714 0.738927
vt 0.519692 0.484667
vt 0.706979 0.986685
vt 0.669741 0.986685
vt 0.850094 0.293797
vt 0.909001 0.293797
vt 0.984488 0.464095
vt 0.972887 0.483223
vt 0.909001 0.729467
vt 0.256413 0.705460
vt 0.198149 0.155588
vt 0.253738 0.094221
vt 0.102848 0.357568
vt 0.250170 0.545498
vt 0.093412 0.624919
vt 0.060003 0.612795
vt 0.036680 0.094409
vt 0.134759 0.071838
vt 0.221438 0.648672
vt 0.065028 0.606980
vt 0.299276 0.526144
vt 0.303550 0.653185
vt 0.290580 0.679212
vt 0.130374 0.695037
vt 0.276588 0.587164
vt 0.019155 0.225174
vt 0.278983 0.277872
vt 0.296269 0.323277
vt 0.309132 0.460043
vt 0.307308 0.423766
vt 0.251712 0.086313
vt 0.061415 0.520837
vt 0.895114 0.400982
vt 0.842059 0.188495
vt 0.427605 0.301096
vt 0.443295 0.321259
vt 0.423082 0.331798
vt 0.354413 0.310845
vt 0.334444 0.188495
vt 0.343114 0.992161
vt 0.012357 0.955010
vt 0.012357 0.775317
vt 0.012357 0.730208
vt 0.012357 0.746837
vt 0.095141 0.819231
vt 0.012357 0.860741
vt 0.012357 0.911077
vt 0.012357 0.750893
vt 0.113981 0.753386
vt 0.205415 0.750266
vt 0.165079 0.860408
vt 0.207997 0.903339
vt 0.206290 0.936182
vt 0.206059 0.968282
vt 0.241103 0.973041
vt 0.205873 0.789664
vt 0.206231 0.791329
vt 0.241086 0.826303
vt 0.207047 0.360542
vt 0.598413 0.356741
vt 0.599224 0.356741
vt 0.599224 0.348677
vt 0.605164 0.346023
vt 0.609448 0.346023
vt 0.609448 0.364599
vt 0.598296 0.360542
vt 0.598413 0.353795
vt 0.600573 0.350720
vt 0.602650 0.350720
vt 0.602650 0.353795
vt 0.600573 0.348677
vt 0.605164 1.000000
vt 0.959915 0.028518
vt 0.937786 0.013037
vt 0.918054 0.081647
vt 0.954288 0.086770
vt 0.930676 0.137681
vt 0.942658 0.168099
vt 0.944821 0.167131
vt 0.890102 0.131410
vt 0.888204 0.198150
vt 0.948279 0.197029
vt 0.971327 0.195295
vt 0.889756 0.049601
vt 0.931343 0.059587
vt 0.884407 0.111625
vt 0.948116 0.093921
vt 0.887190 0.233005
vt 0.947036 0.254802
vt 0.879161 0.224626
vt 0.886890 0.214970
vt 0.835845 0.190773
vt 0.838576 0.040108
vt 0.823297 0.070129
vt 0.824666 0.131949
vt 0.830372 0.098656
vt 0.827402 0.165922
vt 0.839226 0.213250
vt 0.820733 0.242077
vt 0.812186 0.165842
vt 0.823816 0.099674
vt 0.817718 0.070631
vt 0.816367 0.189623
vt 0.823383 0.132826
vt 0.817601 0.101745
vt 0.769544 0.133433
vt 0.768628 0.188608
vt 0.806459 0.211946
vt 0.807658 0.163871
vt 0.808762 0.242398
vt 0.765272 0.242118
vt 0.703877 0.204007
vt 0.703888 0.074050
vt 0.769777 0.168536
vt 0.703868 0.129360
vt 0.703860 0.103950
vt 0.703866 0.074104
vt 0.703883 0.246199
vt 0.954805 0.109031
vt 0.975419 0.138555
vt 0.970997 0.165862
vt 0.969601 0.079237
vt 0.982581 0.046794
vt 0.991266 0.008601
vt 0.924009 0.233824
vt 0.979167 0.013037
vt 0.918054 0.081647
vt 0.954288 0.086770
vt 0.930676 0.137681
vt 0.942658 0.168099
vt 0.944821 0.167131
vt 0.890102 0.131410
vt 0.888204 0.198150
vt 0.948279 0.197029
vt 0.971327 0.195295
vt 0.889756 0.049601
vt 0.931343 0.059587
vt 0.884407 0.111625
vt 0.948116 0.093921
vt 0.887190 0.233005
vt 0.947036 0.254802
vt 0.879161 0.224626
vt 0.886890 0.214970
vt 0.835845 0.190773
vt 0.838576 0.040108
vt 0.823297 0.070129
vt 0.824666 0.131949
vt 0.830372 0.098656
vt 0.827402 0.165922
vt 0.839226 0.213250
vt 0.820733 0.242077
vt 0.812186 0.165842
vt 0.823816 0.099674
vt 0.817718 0.070631
vt 0.816367 0.189623
vt 0.823383 0.132826
vt 0.817601 0.101745
vt 0.769544 0.133433
vt 0.768628 0.188608
vt 0.806459 0.211946
vt 0.807658 0.163871
vt 0.808762 0.242398
vt 0.765272 0.242118
vt 0.703877 0.204007
vt 0.703888 0.074050
vt 0.769777 0.168536
vt 0.703868 0.129360
vt 0.703860 0.103950
vt 0.703866 0.074104
vt 0.703883 0.109031
vt 0.975419 0.138555
vt 0.970997 0.165862
vt 0.969601 0.079237
vt 0.982581 0.264848
vt 0.927152 0.244673
vt 0.824635 0.040867
vt 0.810894 0.042467
vt 0.764471 0.027569
vt 0.876066 0.048810
vt 0.703883 0.270315
vt 0.933737 0.008601
vt 0.924009 0.028518
vt 0.937786 0.039450
vt 0.959915 0.264848
vt 0.927152 0.244673
vt 0.824635 0.040867
vt 0.810894 0.042467
vt 0.764471 0.027569
vt 0.876066 0.048810
vt 0.703883 0.246199
vt 0.954805 0.233824
vt 0.979167 0.270315
vt 0.933737 0.046794
vt 0.991266 1.000000

f 9/9 5/5 4/4
f 5/5 9/9 10/10
f 94/94 11/11 12/12
f 11/11 94/94 93/93
f 5/5 67/67 66/66
f 5/5 68/68 67/67
f 69/69 10/10 2/2
f 68/68 10/10 69/69
f 5/5 10/10 68/68
f 6/6 4/4 5/5
f 4/4 6/6 92/92
f 14/14 8/8 7/7
f 8/8 14/14 13/13
f 10/10 13/13 14/14
f 13/13 10/10 9/9
f 7/7 12/12 11/11
f 12/12 7/7 8/8
f 93/93 18/18 11/11
f 18/18 93/93 95/95
f 7/7 19/19 14/14
f 19/19 7/7 22/22
f 19/19 10/10 14/14
f 11/11 22/22 7/7
f 22/22 11/11 18/18
f 424/424 35/35 42/42
f 424/424 60/60 35/35
f 424/424 61/61 60/60
f 424/424 45/45 61/61
f 424/424 425/425 45/45
f 426/426 52/52 43/43
f 426/426 53/53 52/52
f 426/426 41/41 53/53
f 426/426 427/427 41/41
f 427/427 31/31 41/41
f 427/427 56/56 31/31
f 427/427 42/42 56/56
f 427/427 424/424 42/42
f 25/25 48/48 26/26
f 48/48 25/25 49/49
f 30/30 31/31 56/56
f 31/31 30/30 29/29
f 426/426 49/49 428/428
f 426/426 48/48 49/49
f 43/43 48/48 426/426
f 21/21 53/53 41/41
f 53/53 21/21 28/28
f 43/43 27/27 24/24
f 27/27 43/43 52/52
f 34/34 60/60 61/61
f 60/60 34/34 33/33
f 42/42 32/32 23/23
f 32/32 42/42 35/35
f 58/58 429/429 430/430
f 429/429 58/58 57/57
f 51/51 431/431 432/432
f 431/431 51/51 50/50
f 47/47 433/433 40/40
f 433/433 47/47 434/434
f 435/435 36/36 44/44
f 36/36 435/435 46/46
f 39/39 436/436 437/437
f 436/436 39/39 55/55
f 438/438 54/54 38/38
f 54/54 438/438 439/439
f 59/59 440/440 37/37
f 440/440 59/59 441/441
f 428/428 49/49 442/442
f 65/65 5/5 66/66
f 64/64 5/5 65/65
f 63/63 5/5 64/64
f 6/6 62/62 3/3
f 5/5 62/62 6/6
f 63/63 62/62 5/5
f 20/20 90/90 89/89
f 74/74 73/73 16/16
f 78/78 77/77 17/17
f 87/87 82/82 86/86
f 87/87 83/83 82/82
f 84/84 83/83 87/87
f 16/16 75/75 74/74
f 75/75 16/16 85/85
f 88/88 80/80 79/79
f 86/86 82/82 81/81
f 84/84 15/15 96/96
f 15/15 84/84 87/87
f 81/81 88/88 86/86
f 88/88 81/81 80/80
f 17/17 79/79 78/78
f 79/79 17/17 88/88
f 85/85 76/76 75/75
f 85/85 77/77 76/76
f 77/77 85/85 17/17
f 10/10 70/70 2/2
f 90/90 20/20 1/1
f 89/89 70/70 10/10
f 70/70 89/89 90/90
f 91/91 73/73 72/72
f 73/73 91/91 16/16
f 20/20 71/71 1/1
f 91/91 71/71 20/20
f 71/71 91/91 72/72
f 116/116 158/158 157/157
f 158/158 116/116 97/97
f 157/157 98/98 159/159
f 98/98 157/157 115/115
f 113/113 103/103 166/166
f 113/113 99/99 114/114
f 170/170 100/100 105/105
f 114/114 99/99 117/117
f 114/114 118/118 103/103
f 170/170 104/104 116/116
f 107/107 106/106 97/97
f 102/102 158/158 106/106
f 106/106 108/108 102/102
f 166/166 103/103 109/109
f 103/103 118/118 110/110
f 108/108 118/118 102/102
f 110/110 109/109 103/103
f 107/107 104/104 111/111
f 104/104 107/107 97/97
f 443/443 160/160 444/444
f 160/160 443/443 171/171
f 445/445 161/161 446/446
f 161/161 445/445 164/164
f 447/447 164/164 445/445
f 164/164 447/447 162/162
f 446/446 163/163 448/448
f 163/163 446/446 161/161
f 109/109 112/112 166/166
f 114/114 103/103 113/113
f 115/115 118/118 119/119
f 113/113 101/101 99/99
f 119/119 98/98 115/115
f 104/104 97/97 116/116
f 116/116 100/100 170/170
f 119/119 117/117 98/98
f 118/118 108/108 110/110
f 115/115 102/102 118/118
f 114/114 117/117 119/119
f 119/119 118/118 114/114
f 121/121 123/123 122/122
f 122/122 120/120 121/121
f 172/172 120/120 122/122
f 122/122 167/167 172/172
f 123/123 121/121 168/168
f 124/124 168/168 121/121
f 145/145 449/449 450/450
f 128/128 130/130 151/151
f 131/131 451/451 129/129
f 131/131 136/136 128/128
f 134/134 452/452 126/126
f 136/136 135/135 137/137
f 135/135 136/136 131/131
f 453/453 454/454 455/455
f 454/454 453/453 138/138
f 131/131 456/456 451/451
f 128/128 151/151 457/457
f 453/453 140/140 138/138
f 139/139 134/134 142/142
f 134/134 139/139 125/125
f 133/133 134/134 126/126
f 132/132 125/125 139/139
f 154/154 153/153 144/144
f 136/136 130/130 128/128
f 456/456 131/131 128/128
f 134/134 133/133 142/142
f 126/126 130/130 136/136
f 126/126 136/136 133/133
f 453/453 458/458 150/150
f 173/173 148/148 153/153
f 149/149 146/146 145/145
f 147/147 149/149 145/145
f 147/147 153/153 149/149
f 169/169 173/173 147/147
f 169/169 147/147 145/145
f 149/149 127/127 146/146
f 150/150 146/146 127/127
f 127/127 149/149 154/154
f 146/146 449/449 145/145
f 144/144 125/125 132/132
f 459/459 449/449 146/146
f 450/450 165/165 145/145
f 135/135 193/193 137/137
f 193/193 135/135 192/192
f 138/138 460/460 454/454
f 460/460 138/138 194/194
f 138/138 195/195 194/194
f 195/195 138/138 140/140
f 141/141 193/193 196/196
f 193/193 141/141 137/137
f 130/130 152/152 174/174
f 152/152 130/130 126/126
f 461/461 126/126 452/452
f 126/126 461/461 152/152
f 457/457 456/456 128/128
f 140/140 453/453 132/132
f 132/132 453/453 155/155
f 133/133 136/136 137/137
f 139/139 140/140 132/132
f 140/140 139/139 143/143
f 137/137 141/141 133/133
f 142/142 143/143 139/139
f 143/143 142/142 141/141
f 133/133 141/141 142/142
f 144/144 148/148 462/462
f 462/462 463/463 144/144
f 144/144 463/463 125/125
f 452/452 125/125 463/463
f 125/125 452/452 134/134
f 153/153 154/154 149/149
f 153/153 148/148 144/144
f 173/173 153/153 147/147
f 132/132 155/155 144/144
f 155/155 154/154 144/144
f 127/127 154/154 155/155
f 453/453 127/127 155/155
f 453/453 150/150 127/127
f 146/146 150/150 459/459
f 459/459 150/150 458/458
f 143/143 195/195 140/140
f 195/195 143/143 156/156
f 141/141 156/156 143/143
f 156/156 141/141 196/196
f 130/130 174/174 151/151
f 115/115 158/158 102/102
f 158/158 115/115 157/157
f 157/157 100/100 116/116
f 100/100 157/157 159/159
f 129/129 451/451 464/464
f 106/106 158/158 97/97
f 110/110 160/160 109/109
f 160/160 110/110 162/162
f 162/162 444/444 160/160
f 444/444 162/162 447/447
f 109/109 171/171 112/112
f 171/171 109/109 160/160
f 175/175 107/107 111/111
f 107/107 175/175 163/163
f 175/175 448/448 163/163
f 448/448 175/175 465/465
f 106/106 164/164 108/108
f 164/164 106/106 161/161
f 108/108 162/162 110/110
f 162/162 108/108 164/164
f 107/107 161/161 106/106
f 161/161 107/107 163/163
f 145/145 165/165 169/169
f 187/187 177/177 180/180
f 189/189 177/177 187/187
f 177/177 176/176 186/186
f 189/189 176/176 177/177
f 188/188 179/179 178/178
f 179/179 188/188 190/190
f 466/466 178/178 467/467
f 178/178 466/466 188/188
f 468/468 179/179 469/469
f 179/179 468/468 178/178
f 470/470 190/190 471/471
f 190/190 470/470 179/179
f 469/469 179/179 470/470
f 181/181 184/184 185/185
f 181/181 185/185 182/182
f 182/182 185/185 183/183
f 467/467 178/178 468/468
f 472/472 197/197 473/473
f 197/197 472/472 198/198
f 474/474 475/475 476/476
f 475/475 474/474 200/200
f 201/201 199/199 477/477
f 477/477 478/478 201/201
f 474/474 477/477 199/199
f 199/199 200/200 474/474
f 473/473 202/202 479/479
f 202/202 473/473 197/197
f 201/201 479/479 202/202
f 479/479 201/201 478/478
f 225/225 215/215 224/224
f 203/203 214/214 205/205
f 480/480 200/200 209/209
f 213/213 212/212 207/207
f 207/207 201/201 204/204
f 199/199 209/209 200/200
f 217/217 211/211 216/216
f 199/199 201/201 207/207
f 213/213 205/205 214/214
f 206/206 203/203 205/205
f 475/475 200/200 480/480
f 204/204 201/201 202/202
f 202/202 206/206 204/204
f 203/203 206/206 198/198
f 206/206 202/202 197/197
f 204/204 206/206 205/205
f 198/198 206/206 197/197
f 211/211 207/207 212/212
f 207/207 208/208 199/199
f 209/209 199/199 208/208
f 481/481 210/210 217/217
f 208/208 210/210 209/209
f 482/482 209/209 210/210
f 207/207 211/211 208/208
f 210/210 208/208 211/211
f 216/216 212/212 218/218
f 205/205 213/213 204/204
f 204/204 213/213 207/207
f 226/226 214/214 225/225
f 209/209 482/482 480/480
f 214/214 203/203 215/215
f 210/210 481/481 482/482
f 212/212 216/216 211/211
f 214/214 226/226 213/213
f 226/226 212/212 213/213
f 212/212 226/226 218/218
f 481/481 191/191 223/223
f 191/191 481/481 217/217
f 211/211 217/217 210/210
f 215/215 225/225 214/214
f 483/483 220/220 222/222
f 220/220 483/483 484/484
f 485/485 486/486 219/219
f 486/486 485/485 487/487
f 488/488 221/221 489/489
f 221/221 488/488 490/490
f 490/490 222/222 221/221
f 222/222 490/490 483/483
f 484/484 219/219 220/220
f 219/219 484/484 485/485
f 491/491 227/227 492/492
f 493/493 494/494 495/495
f 496/496 497/497 491/491
f 498/498 499/499 500/500
f 492/492 501/501 498/498
f 500/500 502/502 493/493
f 234/234 230/230 231/231
f 231/231 235/235 234/234
f 503/503 237/237 236/236
f 236/236 504/504 503/503
f 231/231 289/289 290/290
f 231/231 290/290 291/291
f 292/292 229/229 235/235
f 291/291 292/292 235/235
f 231/231 291/291 235/235
f 505/505 231/231 230/230
f 230/230 506/506 505/505
f 239/239 232/232 233/233
f 233/233 238/238 239/239
f 235/235 239/239 238/238
f 238/238 234/234 235/235
f 232/232 236/236 237/237
f 237/237 233/233 232/232
f 504/504 236/236 242/242
f 242/242 507/507 504/504
f 232/232 239/239 243/243
f 243/243 246/246 232/232
f 243/243 239/239 235/235
f 236/236 232/232 246/246
f 246/246 242/242 236/236
f 508/508 266/266 259/259
f 508/508 259/259 283/283
f 508/508 283/283 284/284
f 508/508 284/284 509/509
f 508/508 509/509 510/510
f 511/511 267/267 275/275
f 511/511 275/275 276/276
f 511/511 276/276 265/265
f 511/511 265/265 512/512
f 512/512 265/265 255/255
f 512/512 255/255 279/279
f 512/512 279/279 266/266
f 512/512 266/266 508/508
f 249/249 250/250 271/271
f 271/271 272/272 249/249
f 254/254 279/279 255/255
f 255/255 253/253 254/254
f 511/511 513/513 272/272
f 511/511 272/272 271/271
f 267/267 511/511 271/271
f 245/245 265/265 276/276
f 276/276 252/252 245/245
f 267/267 248/248 251/251
f 251/251 275/275 267/267
f 258/258 284/284 283/283
f 283/283 257/257 258/258
f 266/266 247/247 256/256
f 256/256 259/259 266/266
f 281/281 514/514 515/515
f 515/515 280/280 281/281
f 274/274 516/516 517/517
f 517/517 273/273 274/274
f 270/270 264/264 518/518
f 518/518 519/519 270/270
f 520/520 268/268 260/260
f 260/260 269/269 520/520
f 263/263 521/521 522/522
f 522/522 278/278 263/263
f 523/523 262/262 277/277
f 277/277 524/524 523/523
f 282/282 261/261 525/525
f 525/525 526/526 282/282
f 513/513 527/527 272/272
f 288/288 289/289 231/231
f 287/287 288/288 231/231
f 286/286 287/287 231/231
f 505/505 528/528 285/285
f 231/231 505/505 285/285
f 286/286 231/231 285/285
f 244/244 312/312 313/313
f 297/297 240/240 296/296
f 301/301 241/241 300/300
f 310/310 309/309 305/305
f 310/310 305/305 306/306
f 307/307 310/310 306/306
f 240/240 297/297 298/298
f 298/298 308/308 240/240
f 311/311 302/302 303/303
f 309/309 304/304 305/305
f 307/307 529/529 530/530
f 530/530 310/310 307/307
f 304/304 309/309 311/311
f 311/311 303/303 304/304
f 241/241 301/301 302/302
f 302/302 311/311 241/241
f 308/308 298/298 299/299
f 308/308 299/299 300/300
f 300/300 241/241 308/308
f 235/235 229/229 293/293
f 313/313 228/228 244/244
f 312/312 235/235 293/293
f 293/293 313/313 312/312
f 314/314 295/295 296/296
f 296/296 240/240 314/314
f 244/244 228/228 294/294
f 314/314 244/244 294/294
f 294/294 295/295 314/314
f 328/328 365/365 366/366
f 366/366 315/315 328/328
f 365/365 367/367 316/316
f 316/316 327/327 365/365
f 531/531 532/532 320/320
f 531/531 326/326 317/317
f 533/533 534/534 318/318
f 326/326 329/329 317/317
f 326/326 320/320 330/330
f 533/533 328/328 535/535
f 322/322 315/315 321/321
f 319/319 321/321 366/366
f 321/321 319/319 323/323
f 532/532 324/324 320/320
f 320/320 325/325 330/330
f 323/323 319/319 330/330
f 325/325 320/320 324/324
f 322/322 536/536 535/535
f 535/535 315/315 322/322
f 537/537 538/538 368/368
f 368/368 539/539 537/537
f 540/540 541/541 369/369
f 369/369 372/372 540/540
f 542/542 540/540 372/372
f 372/372 370/370 542/542
f 541/541 543/543 371/371
f 371/371 369/369 541/541
f 324/324 532/532 544/544
f 326/326 531/531 320/320
f 327/327 331/331 330/330
f 531/531 317/317 545/545
f 331/331 327/327 316/316
f 535/535 328/328 315/315
f 328/328 533/533 318/318
f 331/331 316/316 329/329
f 330/330 325/325 323/323
f 327/327 330/330 319/319
f 326/326 331/331 329/329
f 331/331 326/326 330/330
f 333/333 334/334 335/335
f 334/334 333/333 332/332
f 546/546 334/334 332/332
f 334/334 546/546 547/547
f 335/335 548/548 333/333
f 549/549 333/333 548/548
f 356/356 550/550 551/551
f 339/339 552/552 341/341
f 342/342 340/340 553/553
f 342/342 339/339 347/347
f 345/345 337/337 554/554
f 347/347 348/348 346/346
f 346/346 342/342 347/347
f 555/555 556/556 557/557
f 557/557 349/349 555/555
f 342/342 553/553 558/558
f 339/339 559/559 552/552
f 555/555 349/349 351/351
f 350/350 353/353 345/345
f 345/345 336/336 350/350
f 344/344 337/337 345/345
f 343/343 350/350 336/336
f 362/362 355/355 361/361
f 347/347 339/339 341/341
f 558/558 339/339 342/342
f 345/345 353/353 344/344
f 337/337 347/347 341/341
f 337/337 344/344 347/347
f 555/555 360/360 560/560
f 561/561 361/361 562/562
f 359/359 356/356 357/357
f 358/358 356/356 359/359
f 358/358 359/359 361/361
f 563/563 358/358 561/561
f 563/563 356/356 358/358
f 359/359 357/357 338/338
f 360/360 338/338 357/357
f 338/338 362/362 359/359
f 357/357 356/356 551/551
f 355/355 343/343 336/336
f 564/564 357/357 551/551
f 550/550 356/356 565/565
f 346/346 348/348 390/390
f 390/390 389/389 346/346
f 349/349 557/557 566/566
f 566/566 391/391 349/349
f 349/349 391/391 392/392
f 392/392 351/351 349/349
f 352/352 393/393 390/390
f 390/390 348/348 352/352
f 341/341 567/567 568/568
f 568/568 337/337 341/341
f 569/569 554/554 337/337
f 337/337 568/568 569/569
f 559/559 339/339 558/558
f 351/351 343/343 555/555
f 343/343 363/363 555/555
f 344/344 348/348 347/347
f 350/350 343/343 351/351
f 351/351 354/354 350/350
f 348/348 344/344 352/352
f 353/353 350/350 354/354
f 354/354 352/352 353/353
f 344/344 353/353 352/352
f 355/355 570/570 562/562
f 570/570 355/355 571/571
f 355/355 336/336 571/571
f 554/554 571/571 336/336
f 336/336 345/345 554/554
f 361/361 359/359 362/362
f 361/361 355/355 562/562
f 561/561 358/358 361/361
f 343/343 355/355 363/363
f 363/363 355/355 362/362
f 338/338 363/363 362/362
f 555/555 363/363 338/338
f 555/555 338/338 360/360
f 357/357 564/564 360/360
f 564/564 560/560 360/360
f 354/354 351/351 392/392
f 392/392 364/364 354/354
f 352/352 354/354 364/364
f 364/364 393/393 352/352
f 341/341 552/552 567/567
f 327/327 319/319 366/366
f 366/366 365/365 327/327
f 365/365 328/328 318/318
f 318/318 367/367 365/365
f 340/340 572/572 553/553
f 321/321 315/315 366/366
f 325/325 324/324 368/368
f 368/368 370/370 325/325
f 370/370 368/368 538/538
f 538/538 542/542 370/370
f 324/324 544/544 539/539
f 539/539 368/368 324/324
f 573/573 536/536 322/322
f 322/322 371/371 573/573
f 573/573 371/371 543/543
f 543/543 574/574 573/573
f 321/321 323/323 372/372
f 372/372 369/369 321/321
f 323/323 325/325 370/370
f 370/370 372/372 323/323
f 322/322 321/321 369/369
f 369/369 371/371 322/322
f 356/356 563/563 565/565
f 384/384 377/377 374/374
f 386/386 384/384 374/374
f 374/374 383/383 373/373
f 386/386 374/374 373/373
f 385/385 375/375 376/376
f 376/376 387/387 385/385
f 575/575 576/576 375/375
f 375/375 385/385 575/575
f 577/577 578/578 376/376
f 376/376 375/375 577/577
f 579/579 580/580 387/387
f 387/387 376/376 579/579
f 578/578 579/579 376/376
f 378/378 382/382 381/381
f 378/378 379/379 382/382
f 379/379 380/380 382/382
f 576/576 577/577 375/375
f 581/581 582/582 394/394
f 394/394 395/395 581/581
f 583/583 584/584 585/585
f 585/585 397/397 583/583
f 398/398 586/586 396/396
f 586/586 398/398 587/587
f 583/583 396/396 586/586
f 396/396 583/583 397/397
f 582/582 588/588 399/399
f 399/399 394/394 582/582
f 398/398 399/399 588/588
f 588/588 587/587 398/398
f 422/422 421/421 412/412
f 400/400 402/402 411/411
f 589/589 406/406 397/397
f 410/410 404/404 409/409
f 404/404 401/401 398/398
f 396/396 397/397 406/406
f 414/414 413/413 408/408
f 396/396 404/404 398/398
f 410/410 411/411 402/402
f 403/403 402/402 400/400
f 585/585 589/589 397/397
f 401/401 399/399 398/398
f 399/399 401/401 403/403
f 400/400 395/395 403/403
f 403/403 394/394 399/399
f 401/401 402/402 403/403
f 395/395 394/394 403/403
f 408/408 409/409 404/404
f 404/404 396/396 405/405
f 406/406 405/405 396/396
f 590/590 414/414 407/407
f 405/405 406/406 407/407
f 591/591 407/407 406/406
f 404/404 405/405 408/408
f 407/407 408/408 405/405
f 413/413 415/415 409/409
f 402/402 401/401 410/410
f 401/401 404/404 410/410
f 423/423 422/422 411/411
f 406/406 589/589 591/591
f 411/411 412/412 400/400
f 407/407 591/591 590/590
f 409/409 408/408 413/413
f 411/411 410/410 423/423
f 423/423 410/410 409/409
f 409/409 415/415 423/423
f 590/590 420/420 388/388
f 388/388 414/414 590/590
f 408/408 407/407 414/414
f 412/412 411/411 422/422
f 592/592 419/419 417/417
f 417/417 593/593 592/592
f 594/594 416/416 595/595
f 595/595 596/596 594/594
f 597/597 598/598 418/418
f 418/418 599/599 597/597
f 599/599 418/418 419/419
f 419/419 592/592 599/599
f 593/593 417/417 416/416
f 416/416 594/594 593/593
f 600/600 601/601 602/602
f 603/603 604/604 605/605
f 606/606 600/600 607/607
f 608/608 609/609 610/610
f 601/601 608/608 611/611
f 609/609 603/603 612/612
f 665/665 615/615 614/614
f 617/617 616/616 613/613
f 619/619 618/618 620/620
f 621/621 620/620 618/618
f 619/619 622/622 623/623
f 624/624 619/619 620/620
f 617/617 625/625 626/626
f 627/627 617/617 628/628
f 630/630 629/629 631/631
f 630/630 715/715 629/629
f 631/631 624/624 632/632
f 633/633 632/632 624/624
f 626/626 634/634 635/635
f 637/637 636/636 621/621
f 633/633 620/620 638/638
f 620/620 633/633 624/624
f 716/716 639/639 640/640
f 632/632 716/716 631/631
f 636/636 641/641 638/638
f 643/643 642/642 635/635
f 637/637 635/635 642/642
f 617/617 626/626 628/628
f 639/639 632/632 644/644
f 633/633 644/644 632/632
f 633/633 638/638 644/644
f 641/641 644/644 638/638
f 641/641 636/636 645/645
f 639/639 716/716 632/632
f 642/642 646/646 645/645
f 647/647 645/645 646/646
f 644/644 648/648 639/639
f 649/649 639/639 648/648
f 644/644 641/641 648/648
f 650/650 648/648 641/641
f 652/652 651/651 653/653
f 649/649 653/653 651/651
f 643/643 717/717 654/654
f 718/718 654/654 717/717
f 646/646 642/642 654/654
f 643/643 654/654 642/642
f 641/641 645/645 650/650
f 656/656 655/655 647/647
f 650/650 647/647 655/655
f 645/645 647/647 650/650
f 649/649 640/640 639/639
f 648/648 650/650 655/655
f 655/655 653/653 648/648
f 640/640 649/649 651/651
f 625/625 719/719 626/626
f 719/719 625/625 615/615
f 653/653 649/649 648/648
f 647/647 646/646 656/656
f 657/657 656/656 646/646
f 654/654 657/657 646/646
f 657/657 654/654 658/658
f 718/718 720/720 654/654
f 658/658 654/654 720/720
f 617/617 613/613 625/625
f 659/659 666/666 623/623
f 627/627 621/621 618/618
f 631/631 629/629 624/624
f 623/623 622/622 629/629
f 629/629 715/715 659/659
f 616/616 617/617 627/627
f 645/645 636/636 642/642
f 620/620 621/621 638/638
f 643/643 634/634 717/717
f 627/627 628/628 621/621
f 629/629 659/659 623/623
f 721/721 659/659 715/715
f 614/614 625/625 613/613
f 615/615 625/625 614/614
f 613/613 616/616 664/664
f 661/661 660/660 627/627
f 619/619 662/662 661/661
f 616/616 660/660 663/663
f 663/663 664/664 616/616
f 661/661 627/627 618/618
f 661/661 618/618 619/619
f 662/662 619/619 623/623
f 660/660 616/616 627/627
f 636/636 637/637 642/642
f 621/621 636/636 638/638
f 628/628 626/626 637/637
f 628/628 637/637 621/621
f 635/635 634/634 643/643
f 635/635 637/637 626/626
f 630/630 631/631 716/716
f 626/626 719/719 634/634
f 622/622 624/624 629/629
f 619/619 624/624 622/622
f 722/722 723/723 667/667
f 669/669 724/724 668/668
f 671/671 672/672 670/670
f 673/673 670/670 672/672
f 671/671 675/675 674/674
f 676/676 672/672 671/671
f 669/669 678/678 677/677
f 679/679 680/680 669/669
f 682/682 683/683 681/681
f 682/682 681/681 725/725
f 683/683 684/684 676/676
f 685/685 676/676 684/684
f 678/678 687/687 686/686
f 689/689 673/673 688/688
f 685/685 690/690 672/672
f 672/672 676/676 685/685
f 726/726 692/692 691/691
f 684/684 683/683 726/726
f 688/688 690/690 693/693
f 695/695 687/687 694/694
f 689/689 694/694 687/687
f 669/669 680/680 678/678
f 691/691 696/696 684/684
f 685/685 684/684 696/696
f 685/685 696/696 690/690
f 693/693 690/690 696/696
f 693/693 697/697 688/688
f 691/691 684/684 726/726
f 694/694 697/697 698/698
f 699/699 698/698 697/697
f 696/696 691/691 700/700
f 701/701 700/700 691/691
f 696/696 700/700 693/693
f 702/702 693/693 700/700
f 704/704 705/705 703/703
f 701/701 703/703 705/705
f 695/695 706/706 727/727
f 728/728 727/727 706/706
f 698/698 706/706 694/694
f 695/695 694/694 706/706
f 693/693 702/702 697/697
f 708/708 699/699 707/707
f 702/702 707/707 699/699
f 697/697 702/702 699/699
f 701/701 691/691 692/692
f 700/700 707/707 702/702
f 707/707 700/700 705/705
f 692/692 703/703 701/701
f 677/677 678/678 729/729
f 729/729 667/667 677/677
f 705/705 700/700 701/701
f 699/699 708/708 698/698
f 709/709 698/698 708/708
f 706/706 698/698 709/709
f 709/709 710/710 706/706
f 728/728 706/706 730/730
f 710/710 730/730 706/706
f 669/669 677/677 724/724
f 731/731 675/675 732/732
f 679/679 670/670 673/673
f 683/683 676/676 681/681
f 675/675 681/681 674/674
f 681/681 731/731 725/725
f 668/668 679/679 669/669
f 697/697 694/694 688/688
f 672/672 690/690 673/673
f 695/695 727/727 686/686
f 679/679 673/673 680/680
f 681/681 675/675 731/731
f 733/733 725/725 731/731
f 723/723 724/724 677/677
f 667/667 723/723 677/677
f 724/724 734/734 668/668
f 712/712 679/679 711/711
f 671/671 712/712 713/713
f 668/668 714/714 711/711
f 714/714 668/668 734/734
f 712/712 670/670 679/679
f 712/712 671/671 670/670
f 713/713 675/675 671/671
f 711/711 679/679 668/668
f 688/688 694/694 689/689
f 673/673 690/690 688/688
f 680/680 689/689 678/678
f 680/680 673/673 689/689
f 687/687 695/695 686/686
f 687/687 678/678 689/689
f 682/682 726/726 683/683
f 678/678 686/686 729/729
f 674/674 681/681 676/676
f 671/671 674/674 676/676
