# MOD converted: h_w_metalglove027.mod
# 568 verts, 155 faces

v 98.350883 -1.200170 42.725143
v 100.655457 6.187857 48.021362
v 98.203201 5.821897 42.614464
v 100.682693 -1.276735 51.934917
v 97.265526 6.879423 51.788876
v 97.588531 -3.315182 43.756226
v 89.098274 5.470991 45.882919
v 93.988541 7.975274 43.483543
v 89.019020 -0.456519 45.581558
v 86.102707 -5.574745 55.980301
v 91.402359 8.074991 51.370697
v 88.548431 -6.094159 54.434845
v 89.183189 -5.398006 53.464241
v 84.626015 -7.010361 51.790428
v 86.582207 -6.802216 52.111130
v 82.044220 -8.037079 48.678543
v 83.629250 -7.405060 49.881878
v 92.998886 8.473914 51.526356
v 89.030388 3.941092 49.017796
v 86.029671 -3.074970 50.188091
v 84.339355 -5.115457 52.484322
v 83.187576 -6.075188 56.055428
v 92.061432 -5.281031 47.466305
v 89.303818 -6.594761 51.372013
v 91.788391 -5.751170 53.321335
v 83.811768 -8.972179 50.147053
v 86.135979 -8.649368 55.062397
v 89.305756 1.318501 56.704193
v 92.515396 1.438137 48.038448
v 88.848091 7.119709 59.558014
v 89.666084 -5.297623 58.047237
v 87.388809 -5.273562 58.615517
v 87.327286 1.481177 60.108463
v 89.790100 1.474694 62.957047
v 86.831749 -5.161076 60.874146
v 85.559669 -5.157292 61.600414
v 85.456505 1.377590 63.721909
v 86.698349 1.335540 54.332504
v 88.660896 8.057569 56.411652
v 92.431129 -1.786817 59.873505
v 89.812057 -2.222286 63.373970
v 86.743187 -2.578207 56.225327
v 92.059402 5.088161 59.833099
v 89.642731 4.439990 63.302624
v 86.751701 3.979382 54.908157
v 89.371223 -1.927905 58.335823
v 87.357483 -2.252416 61.296398
v 85.483627 -2.492337 54.733604
v 89.093857 4.781311 58.401405
v 87.243881 4.307703 61.195122
v 85.538063 3.947504 61.759918
v 86.838379 6.954690 59.790237
v 85.653915 6.896190 57.254662
v 87.539261 7.517753 58.824265
v 89.433655 7.621166 58.745861
v 87.359741 1.204667 60.238819
v 89.822556 1.198193 62.270016
v 84.887032 0.917223 64.534386
v 86.320923 0.875180 60.082855
v 89.837830 -1.846565 64.394859
v 86.369507 -1.888216 59.229385
v 89.687927 4.931469 62.096809
v 86.994476 4.672238 58.545273
v 87.383179 -1.876704 62.122852
v 84.925255 -1.802348 57.671581
v 87.565842 4.692172 60.154869
v 85.772560 4.580678 37.736881
v 90.874374 5.908625 28.783463
v 91.880363 8.005701 32.478786
v 100.172852 12.175551 40.129765
v 95.888824 8.920712 37.763283
v 90.877609 -0.895290 28.740391
v 91.851875 -2.683771 32.297607
v 99.814194 -6.784302 49.213650
v 92.545540 -5.055095 47.946926
v 88.590805 0.743347 51.354599
v 88.827332 -1.272147 40.164444
v 97.478569 11.906538 36.590096
v 88.494263 7.751112 36.624886
v 88.566444 -2.477198 40.204674
v 95.918251 -4.033140 45.648750
v 93.400848 -3.657638 52.511822
v 97.727531 1.853304 43.969513
v 103.745461 -1.720221 40.361374
v 96.315010 -6.629764 48.566864
v 99.530617 5.795102 48.370888
v 99.678299 -1.226967 46.194256
v 94.728256 -3.684434 49.759155
v 93.872948 -5.081887 51.917519
v 93.115807 -5.777965 56.600929
v 93.388847 -5.307826 56.957153
v 93.758545 -1.813610 57.249691
v 93.842812 1.411343 56.770828
v 93.386810 5.061367 56.525810
v 92.729767 8.048197 50.427422
v 94.326408 8.447116 46.428429
v 95.315964 7.948483 29.194977
v 92.776146 7.150351 32.294006
v 99.810440 10.518929 29.201529
v 92.889267 -1.806058 32.296062
v 99.808800 -5.320780 43.970921
v 103.760384 6.550307 35.264439
v 106.141747 5.867559 35.352200
v 106.154068 -1.010625 44.747925
v 105.372955 -2.741408 44.966312
v 105.486809 7.272968 40.730400
v 98.460205 13.089309 32.982895
v 101.382576 13.592637 36.550285
v 109.032326 7.298635 36.564877
v 109.066978 -2.524345 32.907593
v 101.156281 -8.153195 40.945168
v 97.479393 -8.000809 39.677010
v 96.290207 2.566708 37.027561
v 104.714005 -4.167595 40.400978
v 104.814415 -2.885728 41.375267
v 102.266151 -5.250113 38.001850
v 101.750229 -6.277268 40.928223
v 108.748955 -9.665144 38.384251
v 107.402588 2.865746 40.720398
v 106.373497 5.418511 43.056538
v 105.344398 2.865747 40.720390
v 106.373489 0.312983 43.715584
v 113.172859 2.865741 36.854855
v 104.792175 9.155394 40.228271
v 104.892586 7.873525 41.202568
v 102.344330 10.237910 37.829151
v 101.460205 11.635656 40.755527
v 108.827141 14.652934 51.380920
v 97.384056 -2.000634 54.826946
v 100.503906 -2.906638 52.928131
v 96.850792 -0.565999 54.067768
v 95.890488 -2.152015 52.520561
v 96.423752 -3.586653 51.736378
v 97.463203 1.949248 55.586620
v 100.942909 1.733152 53.341957
v 96.601021 3.490677 54.676872
v 95.829437 1.668624 53.071293
v 96.691628 0.127195 51.705818
v 97.196274 5.465569 55.420967
v 100.541473 6.107117 53.117981
v 96.141579 6.968238 54.328457
v 94.856697 5.244010 53.171024
v 96.701530 3.741339 -47.825386
v 98.350883 -1.200168 -42.725140
v 100.655457 6.187860 -48.021355
v 98.203201 5.821900 -42.614468
v 100.682693 -1.276732 -51.934914
v 97.265526 6.879423 -51.788879
v 97.588531 -3.315181 -43.756226
v 89.098274 5.470987 -45.882915
v 93.988541 7.975275 -43.483543
v 89.019028 -0.456524 -45.581562
v 86.102707 -5.574743 -55.980293
v 91.402359 8.074991 -51.370697
v 88.548431 -6.094159 -54.434845
v 89.183189 -5.398005 -53.464241
v 84.626015 -7.010361 -51.790428
v 86.582207 -6.802216 -52.111130
v 82.044220 -8.037079 -48.678543
v 83.629250 -7.405057 -49.881916
v 92.999008 8.473911 -51.526356
v 89.030388 3.941092 -49.017792
v 86.029671 -3.074970 -50.188091
v 84.339355 -5.115458 -52.484322
v 83.187576 -6.075186 -56.055428
v 92.061432 -5.281031 -47.466305
v 89.303818 -6.594762 -51.372013
v 91.788391 -5.751170 -53.321335
v 83.811768 -8.972179 -50.147053
v 86.135986 -8.649369 -55.062393
v 89.305756 1.318501 -56.704189
v 92.515396 1.438137 -48.038445
v 88.848091 7.119709 -59.558010
v 89.666084 -5.297623 -58.047234
v 87.388809 -5.273561 -58.615517
v 87.327286 1.481177 -60.108463
v 89.790100 1.474693 -62.957039
v 86.831749 -5.161077 -60.874146
v 85.559669 -5.157293 -61.600414
v 85.456505 1.377591 -63.721909
v 86.698349 1.335538 -54.332497
v 88.660889 8.057568 -56.411652
v 92.431129 -1.786817 -59.873505
v 89.812057 -2.222287 -63.373970
v 86.743179 -2.578209 -56.225327
v 92.059402 5.088161 -59.833099
v 89.642731 4.439989 -63.302628
v 86.751701 3.979380 -54.908157
v 89.371231 -1.927905 -58.335823
v 87.357483 -2.252415 -61.296398
v 85.483627 -2.492337 -54.733604
v 89.093857 4.781311 -58.401405
v 87.243881 4.307704 -61.195122
v 85.538063 3.947504 -61.759922
v 86.838387 6.954689 -59.790241
v 85.653915 6.896194 -57.254665
v 87.539261 7.517753 -58.824268
v 89.433662 7.621165 -58.745861
v 87.359741 1.204668 -60.238819
v 89.822556 1.198192 -62.270016
v 84.887032 0.917224 -64.534386
v 86.320923 0.875178 -60.082851
v 89.837830 -1.846566 -64.394859
v 86.369507 -1.888219 -59.229385
v 89.687927 4.931468 -62.096813
v 86.994476 4.672238 -58.545269
v 87.383179 -1.876703 -62.122849
v 84.925255 -1.802348 -57.671577
v 87.565842 4.692173 -60.154869
v 85.772560 4.580679 -37.736877
v 90.874374 5.908619 -28.783459
v 91.880363 8.005692 -32.478771
v 100.172836 12.175551 -40.129757
v 95.888824 8.920712 -37.763287
v 90.877609 -0.895295 -28.740396
v 91.851875 -2.683780 -32.297615
v 99.814186 -6.784304 -49.213650
v 92.545540 -5.055095 -47.946926
v 88.590805 0.743346 -51.354599
v 88.827332 -1.272146 -40.164433
v 97.478554 11.906540 -36.590088
v 88.494263 7.751104 -36.624893
v 88.566444 -2.477208 -40.204678
v 95.918259 -4.033140 -45.648754
v 93.400848 -3.657638 -52.511822
v 97.727531 1.853305 -43.969517
v 103.745461 -1.720215 -40.361382
v 96.315010 -6.629764 -48.566860
v 99.530617 5.795105 -48.370892
v 99.678299 -1.226965 -46.194260
v 94.728256 -3.684435 -49.759155
v 93.872948 -5.081887 -51.917519
v 93.115799 -5.777964 -56.600937
v 93.388847 -5.307825 -56.957157
v 93.758545 -1.813610 -57.249691
v 93.842812 1.411343 -56.770828
v 93.386810 5.061367 -56.525803
v 92.729767 8.048197 -50.427418
v 94.326408 8.447115 -46.428421
v 95.315956 7.948484 -29.194971
v 92.776146 7.150343 -32.294041
v 99.810539 10.518929 -29.201534
v 92.889267 -1.806063 -32.296059
v 99.808777 -5.320783 -43.970917
v 103.760384 6.550314 -35.264435
v 106.141747 5.867565 -35.352203
v 106.154068 -1.010620 -44.747929
v 105.372955 -2.741400 -44.966309
v 105.486809 7.272976 -40.730385
v 98.460197 13.089313 -32.982883
v 101.382568 13.592639 -36.550282
v 109.032326 7.298642 -36.564884
v 109.066978 -2.524338 -32.907604
v 101.156281 -8.153194 -40.945179
v 97.479393 -8.000810 -39.677010
v 96.290207 2.566707 -37.027569
v 104.714005 -4.167591 -40.400982
v 104.814415 -2.885724 -41.375278
v 102.266159 -5.250107 -37.911480
v 101.692513 -6.299456 -40.928238
v 108.748962 -9.665138 -38.384251
v 107.402588 2.865754 -40.720398
v 106.373497 5.418519 -43.056538
v 105.344398 2.865755 -40.720398
v 106.373489 0.312990 -43.715584
v 113.172859 2.865753 -36.854847
v 104.792175 9.155400 -40.228268
v 104.892586 7.873531 -41.202560
v 102.344330 10.237915 -37.782879
v 101.902855 11.368346 -40.755516
v 108.827133 14.652944 -51.457043
v 97.759689 -2.044068 -55.288445
v 100.391983 -2.950071 -52.919289
v 97.024803 -0.609432 -53.920647
v 95.921051 -2.195448 -52.458405
v 96.655952 -3.630086 -51.549232
v 97.575005 1.832238 -55.809555
v 100.538506 1.616143 -53.032547
v 96.516228 3.373667 -54.258873
v 95.581635 1.551614 -52.775558
v 96.640419 0.010185 -51.636715
v 97.146370 5.567209 -55.351864
v 100.491570 6.208757 -53.048874
v 96.091675 7.069878 -54.259357
v 94.806793 5.345649 -53.101925
v 96.651627 3.842979 42.725143
v 100.655457 6.187857 42.614464
v 100.682693 -1.276735 40.204674
v 95.918251 -4.033140 40.129765
v 95.888824 8.920712 45.648750
v 93.400848 -3.657638 43.483543
v 89.019020 -0.456519 45.581558
v 86.102707 -5.574745 51.370697
v 88.548431 -6.094159 48.678543
v 83.629250 -7.405060 52.111130
v 82.044220 -8.037079 51.790428
v 86.582207 -6.802216 53.464241
v 84.626015 -7.010361 53.464241
v 84.626015 -7.010361 52.111130
v 82.044220 -8.037079 53.321335
v 83.811768 -8.972179 52.484322
v 83.187576 -6.075188 48.038448
v 88.848091 7.119709 54.332504
v 88.660896 8.057569 54.434845
v 89.183189 -5.398006 58.047237
v 87.388809 -5.273562 62.957047
v 86.831749 -5.161076 60.874146
v 85.559669 -5.157292 61.600414
v 85.456505 1.377590 61.195122
v 85.538063 3.947504 45.882919
v 93.988541 7.975274 43.756226
v 89.098274 5.470991 63.373970
v 86.743187 -2.578207 63.721909
v 86.698349 1.335540 63.302624
v 86.751701 3.979382 58.335823
v 87.357483 -2.252416 61.296398
v 85.483627 -2.492337 59.873505
v 89.812057 -2.222286 63.373970
v 86.743187 -2.578207 56.411652
v 92.431129 -1.786817 54.908157
v 89.371223 -1.927905 58.401405
v 87.243881 4.307703 61.195122
v 85.538063 3.947504 59.833099
v 89.642731 4.439990 63.302624
v 86.751701 3.979382 56.225327
v 92.059402 5.088161 54.733604
v 89.093857 4.781311 63.721909
v 86.698349 1.335540 61.600414
v 85.456505 1.377590 60.108463
v 89.790100 1.474694 58.615517
v 87.327286 1.481177 56.704193
v 92.515396 1.438137 55.062397
v 89.305756 1.318501 64.534386
v 86.320923 0.875180 62.270016
v 84.887032 0.917223 64.394859
v 86.369507 -1.888216 62.122852
v 84.925255 -1.802348 57.254662
v 87.539261 7.517753 59.790237
v 85.653915 6.896190 61.759918
v 86.838379 6.954690 62.096809
v 86.994476 4.672238 64.394859
v 86.369507 -1.888216 62.122852
v 84.925255 -1.802348 60.082855
v 89.837830 -1.846565 58.545273
v 87.383179 -1.876704 56.411652
v 92.431129 -1.786817 54.908157
v 89.371223 -1.927905 62.096809
v 86.994476 4.672238 60.154869
v 85.772560 4.580678 59.229385
v 89.687927 4.931469 57.671581
v 87.565842 4.692172 56.225327
v 92.059402 5.088161 54.733604
v 89.093857 4.781311 58.745861
v 87.359741 1.204667 62.270016
v 84.887032 0.917223 60.238819
v 89.822556 1.198193 64.534386
v 86.320923 0.875180 56.704193
v 92.515396 1.438137 55.062397
v 89.305756 1.318501 43.756226
v 89.098274 5.470991 43.756226
v 89.098274 5.470991 37.736881
v 90.874374 5.908625 43.483543
v 89.019020 -0.456519 37.763283
v 90.877609 -0.895290 37.736881
v 90.874374 5.908625 36.590096
v 88.494263 7.751112 36.590096
v 88.494263 7.751112 40.164444
v 97.478569 11.906538 40.361374
v 96.315010 -6.629764 36.624886
v 88.566444 -2.477198 37.736881
v 90.874374 5.908625 48.370888
v 99.678299 -1.226967 48.021362
v 98.203201 5.821897 48.566864
v 99.530617 5.795102 47.825386
v 98.350883 -1.200170 46.194256
v 94.728256 -3.684434 45.648750
v 93.400848 -3.657638 49.759155
v 93.872948 -5.081887 49.213650
v 92.545540 -5.055095 51.917519
v 93.115807 -5.777965 51.372013
v 91.788391 -5.751170 56.600929
v 93.388847 -5.307826 56.055428
v 92.061432 -5.281031 56.957153
v 93.758545 -1.813610 56.411652
v 92.431129 -1.786817 57.249691
v 93.842812 1.411343 56.704193
v 92.515396 1.438137 56.770828
v 93.386810 5.061367 56.225327
v 92.059402 5.088161 56.525810
v 92.729767 8.048197 55.980301
v 91.402359 8.074991 50.427422
v 94.326408 8.447116 49.881878
v 92.998886 8.473914 46.428429
v 95.315964 7.948483 45.882919
v 93.988541 7.975274 32.297607
v 99.814194 -6.784302 32.296062
v 99.808800 -5.320780 32.294006
v 99.810440 10.518929 32.478786
v 100.172852 12.175551 43.969513
v 103.745461 -1.720221 43.970921
v 103.760384 6.550307 40.164444
v 97.478569 11.906538 40.361374
v 96.315010 -6.629764 32.294006
v 99.810440 10.518929 29.194977
v 92.776146 7.150351 29.201529
v 92.889267 -1.806058 32.296062
v 99.808800 -5.320780 35.352200
v 106.154068 -1.010625 35.264439
v 106.141747 5.867559 37.027561
v 104.714005 -4.167595 40.928223
v 108.748955 -9.665144 41.375267
v 102.266151 -5.250113 38.384251
v 107.402588 2.865746 43.715584
v 113.172859 2.865741 43.056538
v 105.344398 2.865747 36.854855
v 104.792175 9.155394 40.755527
v 108.827141 14.652934 41.202568
v 102.344330 10.237910 51.380920
v 97.384056 -2.000634 54.826946
v 100.503906 -2.906638 54.067768
v 95.890488 -2.152015 51.736378
v 97.463203 1.949248 55.586620
v 100.942909 1.733152 54.676872
v 95.829437 1.668624 51.705818
v 97.196274 5.465569 55.420967
v 100.541473 6.107117 54.328457
v 94.856697 5.244010 -42.725140
v 100.655457 6.187860 -42.614468
v 100.682693 -1.276732 -40.204678
v 95.918259 -4.033140 -40.129757
v 95.888824 8.920712 -45.648754
v 93.400848 -3.657638 -43.483543
v 89.019028 -0.456524 -45.581562
v 86.102707 -5.574743 -51.370697
v 88.548431 -6.094159 -48.678543
v 83.629250 -7.405057 -52.111130
v 82.044220 -8.037079 -51.790428
v 86.582207 -6.802216 -53.464241
v 84.626015 -7.010361 -53.464241
v 84.626015 -7.010361 -53.321335
v 83.811768 -8.972179 -52.111130
v 82.044220 -8.037079 -52.484322
v 83.187576 -6.075186 -48.038445
v 88.848091 7.119709 -54.332497
v 88.660889 8.057568 -54.434845
v 89.183189 -5.398005 -58.047234
v 87.388809 -5.273561 -62.957039
v 86.831749 -5.161077 -60.874146
v 85.559669 -5.157293 -61.600414
v 85.456505 1.377591 -61.195122
v 85.538063 3.947504 -45.882915
v 93.988541 7.975275 -43.756226
v 89.098274 5.470987 -63.373970
v 86.743179 -2.578209 -63.721909
v 86.698349 1.335538 -63.302628
v 86.751701 3.979380 -58.335823
v 87.357483 -2.252415 -59.873505
v 89.812057 -2.222287 -61.296398
v 85.483627 -2.492337 -63.373970
v 86.743179 -2.578209 -56.411652
v 92.431129 -1.786817 -54.908157
v 89.371231 -1.927905 -58.401405
v 87.243881 4.307704 -59.833099
v 89.642731 4.439989 -61.195122
v 85.538063 3.947504 -63.302628
v 86.751701 3.979380 -56.225327
v 92.059402 5.088161 -54.733604
v 89.093857 4.781311 -63.721909
v 86.698349 1.335538 -60.108463
v 89.790100 1.474693 -61.600414
v 85.456505 1.377591 -58.615517
v 87.327286 1.481177 -56.704189
v 92.515396 1.438137 -55.062393
v 89.305756 1.318501 -64.534386
v 86.320923 0.875178 -64.394859
v 86.369507 -1.888219 -62.270016
v 84.887032 0.917224 -62.122849
v 84.925255 -1.802348 -57.254665
v 87.539261 7.517753 -59.790241
v 85.653915 6.896194 -61.759922
v 86.838387 6.954689 -62.096813
v 86.994476 4.672238 -64.394859
v 86.369507 -1.888219 -60.082851
v 89.837830 -1.846566 -62.122849
v 84.925255 -1.802348 -58.545269
v 87.383179 -1.876703 -56.411652
v 92.431129 -1.786817 -54.908157
v 89.371231 -1.927905 -62.096813
v 86.994476 4.672238 -59.229385
v 89.687927 4.931468 -60.154869
v 85.772560 4.580679 -57.671577
v 87.565842 4.692173 -56.225327
v 92.059402 5.088161 -54.733604
v 89.093857 4.781311 -58.745861
v 87.359741 1.204668 -60.238819
v 89.822556 1.198192 -62.270016
v 84.887032 0.917224 -64.534386
v 86.320923 0.875178 -56.704189
v 92.515396 1.438137 -55.062393
v 89.305756 1.318501 -43.756226
v 89.098274 5.470987 -37.736877
v 90.874374 5.908619 -43.756226
v 89.098274 5.470987 -43.483543
v 89.019028 -0.456524 -37.763287
v 90.877609 -0.895295 -36.590088
v 88.494263 7.751104 -37.736877
v 90.874374 5.908619 -36.590088
v 88.494263 7.751104 -40.164433
v 97.478554 11.906540 -40.361382
v 96.315010 -6.629764 -36.624893
v 88.566444 -2.477208 -37.736877
v 90.874374 5.908619 -48.370892
v 99.678299 -1.226965 -48.566860
v 99.530617 5.795105 -48.021355
v 98.203201 5.821900 -47.825386
v 98.350883 -1.200168 -46.194260
v 94.728256 -3.684435 -45.648754
v 93.400848 -3.657638 -49.759155
v 93.872948 -5.081887 -49.213650
v 92.545540 -5.055095 -51.917519
v 93.115799 -5.777964 -51.372013
v 91.788391 -5.751170 -56.600937
v 93.388847 -5.307825 -56.055428
v 92.061432 -5.281031 -56.957157
v 93.758545 -1.813610 -56.411652
v 92.431129 -1.786817 -57.249691
v 93.842812 1.411343 -56.704189
v 92.515396 1.438137 -56.770828
v 93.386810 5.061367 -56.225327
v 92.059402 5.088161 -56.525803
v 92.729767 8.048197 -55.980293
v 91.402359 8.074991 -50.427418
v 94.326408 8.447115 -49.881916
v 92.999008 8.473911 -46.428421
v 95.315956 7.948484 -45.882915
v 93.988541 7.975275 -32.297615
v 99.814186 -6.784304 -32.296059
v 99.808777 -5.320783 -32.478771
v 100.172836 12.175551 -32.294041
v 99.810539 10.518929 -43.969517
v 103.745461 -1.720215 -43.970917
v 103.760384 6.550314 -40.164433
v 97.478554 11.906540 -40.361382
v 96.315010 -6.629764 -32.294041
v 99.810539 10.518929 -29.194971
v 92.776146 7.150343 -29.201534
v 92.889267 -1.806063 -32.296059
v 99.808777 -5.320783 -35.352203
v 106.154068 -1.010620 -35.264435
v 106.141747 5.867565 -37.027569
v 104.714005 -4.167591 -40.928238
v 108.748962 -9.665138 -41.375278
v 102.266159 -5.250107 -38.384251
v 107.402588 2.865754 -43.715584
v 113.172859 2.865753 -43.056538
v 105.344398 2.865755 -36.854847
v 104.792175 9.155400 -40.755516
v 108.827133 14.652944 -41.202560
v 102.344330 10.237915 -51.457043
v 97.759689 -2.044068 -55.288445
v 100.391983 -2.950071 -53.920647
v 95.921051 -2.195448 -51.549232
v 97.575005 1.832238 -55.809555
v 100.538506 1.616143 -54.258873
v 95.581635 1.551614 -51.636715
v 97.146370 5.567209 -55.351864
v 100.491570 6.208757 -54.259357
v 94.806793 5.345649 0.505023

vt 0.613093 0.318939
vt 0.732534 0.318441
vt 0.613093 0.494977
vt 0.732534 0.448584
vt 0.449815 0.653464
vt 0.449276 0.024576
vt 0.039578 0.233157
vt 0.613093 0.853219
vt 0.582135 0.918958
vt 0.477512 0.402611
vt 0.288836 0.266804
vt 0.163743 0.778568
vt 0.287687 0.341473
vt 0.143309 0.298706
vt 0.153499 0.371202
vt 0.077898 0.285814
vt 0.034455 0.370367
vt 0.429379 0.075700
vt 0.172332 0.227738
vt 0.095065 0.290303
vt 0.097742 0.341221
vt 0.108275 0.705754
vt 0.285975 0.840886
vt 0.434391 0.754667
vt 0.375774 0.950675
vt 0.279758 0.903031
vt 0.357723 0.128038
vt 0.232373 0.554372
vt 0.279065 0.263996
vt 0.433093 0.712338
vt 0.195478 0.772110
vt 0.197163 0.119037
vt 0.303768 0.543939
vt 0.180002 0.248273
vt 0.402757 0.248273
vt 0.360659 0.248273
vt 0.360659 0.248273
vt 0.402757 0.331700
vt 0.287740 0.627775
vt 0.282020 0.639510
vt 0.189946 0.197816
vt 0.400736 0.470541
vt 0.285927 0.477305
vt 0.186091 0.197816
vt 0.400736 0.186705
vt 0.224322 0.197816
vt 0.297858 0.197816
vt 0.360659 0.065921
vt 0.231008 0.063315
vt 0.302538 0.197816
vt 0.360659 0.395892
vt 0.127608 0.348266
vt 0.146085 0.347778
vt 0.217632 0.401613
vt 0.214345 0.129419
vt 0.305676 0.557510
vt 0.177946 0.132240
vt 0.381473 0.562074
vt 0.051823 0.626807
vt 0.179389 0.624964
vt 0.053594 0.459686
vt 0.199612 0.445305
vt 0.112896 0.182688
vt 0.303428 0.180121
vt 0.379747 0.059368
vt 0.288996 0.054076
vt 0.342658 0.007656
vt 0.732534 0.133829
vt 0.921845 0.013195
vt 0.921998 0.193424
vt 0.732534 0.790110
vt 0.732534 0.282233
vt 0.921691 0.432369
vt 0.921691 0.751485
vt 0.433922 0.128690
vt 0.096335 0.175623
vt 0.161600 0.201007
vt 0.592372 0.070319
vt 0.592372 0.624276
vt 0.592372 0.644907
vt 0.732534 0.644907
vt 0.613093 0.549994
vt 0.436530 0.397820
vt 0.592372 0.506488
vt 0.592372 0.473427
vt 0.538387 0.615994
vt 0.539908 0.718594
vt 0.541964 0.733362
vt 0.462561 0.736797
vt 0.413155 0.693912
vt 0.326594 0.622455
vt 0.315817 0.554138
vt 0.307549 0.477356
vt 0.319964 0.418064
vt 0.329004 0.386121
vt 0.453208 0.386235
vt 0.535151 0.133829
vt 0.954810 0.013195
vt 0.954834 0.282233
vt 0.954786 0.432369
vt 0.954786 0.309941
vt 0.592372 0.645066
vt 0.978235 0.800123
vt 0.978235 0.798981
vt 0.787529 0.645115
vt 0.787529 0.480426
vt 0.787529 0.480426
vt 0.932465 0.645115
vt 0.932465 0.798981
vt 0.932465 0.961129
vt 0.932465 0.961129
vt 0.787529 -0.938512
vt 0.403239 0.988288
vt 0.034140 0.866558
vt 0.009451 0.749681
vt 0.041810 0.866558
vt 0.009451 0.878176
vt 0.279610 0.988288
vt 0.034140 0.866558
vt 0.009451 0.749681
vt 0.041810 0.866558
vt 0.009451 0.878176
vt 0.279610 0.988288
vt 0.034140 0.866558
vt 0.009451 0.749681
vt 0.041810 0.866558
vt 0.009451 0.878176
vt 0.279610 0.988288
vt 0.034140 0.878176
vt 0.279610 0.866558
vt 0.009451 0.749681
vt 0.041810 0.866558
vt 0.009451 0.988288
vt 0.034140 0.878176
vt 0.279610 0.866558
vt 0.009451 0.749681
vt 0.041810 0.866558
vt 0.009451 0.988288
vt 0.034140 0.878176
vt 0.279610 0.866558
vt 0.009451 0.749681
vt 0.041810 0.866558
vt 0.009451 0.494977
vt 0.613093 0.318939
vt 0.732534 0.318441
vt 0.613093 0.494977
vt 0.732534 0.448584
vt 0.449815 0.653464
vt 0.449276 0.024576
vt 0.039578 0.233157
vt 0.613093 0.853219
vt 0.582135 0.918958
vt 0.477512 0.402611
vt 0.288836 0.266804
vt 0.163743 0.778568
vt 0.287687 0.341473
vt 0.143309 0.298706
vt 0.153499 0.371202
vt 0.077898 0.285814
vt 0.034455 0.370367
vt 0.429379 0.075700
vt 0.172332 0.227738
vt 0.095065 0.290303
vt 0.097742 0.341221
vt 0.108275 0.705754
vt 0.285975 0.840886
vt 0.434391 0.754667
vt 0.375774 0.950675
vt 0.279758 0.903031
vt 0.357723 0.128038
vt 0.232373 0.554372
vt 0.279065 0.263996
vt 0.433093 0.712338
vt 0.195478 0.772110
vt 0.197163 0.119037
vt 0.303768 0.543939
vt 0.180002 0.248273
vt 0.402757 0.248273
vt 0.360659 0.248273
vt 0.360659 0.248273
vt 0.402757 0.331700
vt 0.287740 0.627775
vt 0.282020 0.639510
vt 0.189946 0.197816
vt 0.400736 0.470541
vt 0.285927 0.477305
vt 0.186091 0.197816
vt 0.400736 0.186705
vt 0.224322 0.197816
vt 0.297858 0.197816
vt 0.360659 0.065921
vt 0.231008 0.063315
vt 0.302538 0.197816
vt 0.360659 0.395892
vt 0.127608 0.348266
vt 0.146085 0.347778
vt 0.217632 0.401613
vt 0.214345 0.129419
vt 0.305676 0.557510
vt 0.177946 0.132240
vt 0.381473 0.562074
vt 0.051823 0.626807
vt 0.179389 0.624964
vt 0.053594 0.459686
vt 0.199612 0.445305
vt 0.112896 0.182688
vt 0.303428 0.180121
vt 0.379747 0.059368
vt 0.288996 0.054076
vt 0.342658 0.007656
vt 0.732534 0.133829
vt 0.921845 0.013195
vt 0.921998 0.193424
vt 0.732534 0.790110
vt 0.732534 0.282233
vt 0.921691 0.432369
vt 0.921691 0.751485
vt 0.433922 0.128690
vt 0.096335 0.175623
vt 0.161600 0.201007
vt 0.592372 0.070319
vt 0.592372 0.624276
vt 0.592372 0.644907
vt 0.732534 0.644907
vt 0.613093 0.549994
vt 0.436530 0.397820
vt 0.592372 0.506488
vt 0.592372 0.473427
vt 0.538387 0.615994
vt 0.539908 0.718594
vt 0.541964 0.733362
vt 0.462561 0.736797
vt 0.413155 0.693912
vt 0.326594 0.622455
vt 0.315817 0.554138
vt 0.307549 0.477356
vt 0.319964 0.418064
vt 0.329004 0.386121
vt 0.453208 0.386235
vt 0.535151 0.133829
vt 0.954810 0.013195
vt 0.954834 0.282233
vt 0.954786 0.432369
vt 0.954786 0.309941
vt 0.592372 0.645066
vt 0.978235 0.800123
vt 0.978235 0.798981
vt 0.787529 0.645115
vt 0.787529 0.480426
vt 0.787529 0.480426
vt 0.932465 0.645115
vt 0.932465 0.798981
vt 0.932465 0.961129
vt 0.932465 0.961129
vt 0.787529 -0.938512
vt 0.403239 0.988288
vt 0.034140 0.866558
vt 0.009451 0.749681
vt 0.041810 0.866558
vt 0.009451 0.878176
vt 0.279610 0.988288
vt 0.034140 0.866558
vt 0.009451 0.749681
vt 0.041810 0.866558
vt 0.009451 0.878176
vt 0.279610 0.988288
vt 0.034140 0.866558
vt 0.009451 0.749681
vt 0.041810 0.866558
vt 0.009451 0.878176
vt 0.279610 0.988288
vt 0.034140 0.878176
vt 0.279610 0.866558
vt 0.009451 0.749681
vt 0.041810 0.866558
vt 0.009451 0.988288
vt 0.034140 0.878176
vt 0.279610 0.866558
vt 0.009451 0.749681
vt 0.041810 0.866558
vt 0.009451 0.988288
vt 0.034140 0.878176
vt 0.279610 0.866558
vt 0.009451 0.749681
vt 0.041810 0.866558
vt 0.009451 0.295378
vt 0.562736 0.411972
vt 0.562736 0.516125
vt 0.562736 0.204250
vt 0.562736 0.750852
vt 0.537314 0.123487
vt 0.009278 0.237473
vt 0.009435 0.815854
vt 0.347019 0.955138
vt 0.386121 0.977778
vt 0.306508 0.863324
vt 0.320851 0.910485
vt 0.264383 0.197816
vt 0.400736 0.248273
vt 0.360659 0.248273
vt 0.402757 0.197816
vt 0.360659 0.011231
vt 0.104702 0.007570
vt 0.225395 0.248942
vt 0.220967 0.248273
vt 0.296942 0.718127
vt 0.098710 0.763020
vt 0.119095 0.115198
vt 0.365487 0.069873
vt 0.359962 0.350411
vt 0.542115 0.215380
vt 0.536908 0.653498
vt 0.089041 0.540459
vt 0.073648 0.480569
vt 0.082934 0.466825
vt 0.064467 0.547893
vt 0.064467 0.466825
vt 0.006623 0.547739
vt 0.006623 0.374124
vt 0.006623 0.374124
vt 0.064467 0.459316
vt 0.064260 0.547739
vt 0.064467 0.459316
vt 0.006416 0.547739
vt 0.006623 0.374124
vt 0.006623 0.374124
vt 0.064467 0.547739
vt 0.006623 0.547739
vt 0.064467 0.466825
vt 0.006623 0.466825
vt 0.064467 0.374124
vt 0.006623 0.374124
vt 0.064467 0.197816
vt 0.400736 0.197816
vt 0.360659 0.248273
vt 0.402757 0.248273
vt 0.360659 0.009520
vt 0.284199 0.013054
vt 0.339427 0.012847
vt 0.379674 0.053263
vt 0.382881 0.547739
vt 0.006623 0.547739
vt 0.064467 0.466825
vt 0.006623 0.466825
vt 0.064467 0.374124
vt 0.006623 0.374124
vt 0.064467 0.547739
vt 0.006623 0.547739
vt 0.064467 0.466825
vt 0.006623 0.466825
vt 0.064467 0.374124
vt 0.006623 0.374124
vt 0.064467 0.466825
vt 0.064467 0.547893
vt 0.064467 0.466825
vt 0.006623 0.547739
vt 0.006623 0.374124
vt 0.006623 0.374124
vt 0.064467 0.051238
vt 0.613093 0.903341
vt 0.613093 0.948394
vt 0.732534 0.759431
vt 0.613093 0.611893
vt 0.562736 0.714767
vt 0.562736 0.755313
vt 0.592372 0.133829
vt 0.795205 0.013195
vt 0.795854 0.432369
vt 0.794555 0.282233
vt 0.794555 0.103353
vt 0.562736 0.133477
vt 0.533004 0.061760
vt 0.552339 0.064873
vt 0.532272 0.136696
vt 0.553806 0.183136
vt 0.532557 0.195423
vt 0.553187 0.189956
vt 0.495783 0.205480
vt 0.494810 0.191608
vt 0.472009 0.163929
vt 0.446440 0.170972
vt 0.430355 0.178786
vt 0.420361 0.136586
vt 0.425169 0.140564
vt 0.406831 0.103711
vt 0.421190 0.102966
vt 0.402320 0.066763
vt 0.427165 0.061137
vt 0.409492 0.038231
vt 0.431515 0.028772
vt 0.424329 0.022860
vt 0.491283 0.007475
vt 0.488781 0.025441
vt 0.528189 0.015177
vt 0.547523 0.987240
vt 0.958190 0.948704
vt 0.978235 0.493569
vt 0.978235 0.445555
vt 0.958190 0.800598
vt 0.748853 0.632218
vt 0.748853 0.445555
vt 0.748853 0.987240
vt 0.748853 -0.925420
vt 0.410749 -0.924698
vt 0.402182 -0.933907
vt 0.401414 -0.937479
vt 0.408620 -0.940827
vt 0.410909 -0.921680
vt 0.416594 0.988288
vt 0.034140 0.878176
vt 0.279610 0.749681
vt 0.041810 0.988288
vt 0.034140 0.878176
vt 0.279610 0.749681
vt 0.041810 0.988288
vt 0.034140 0.878176
vt 0.279610 0.749681
vt 0.041810 0.988288
vt 0.034140 0.878176
vt 0.279610 0.749681
vt 0.041810 0.988288
vt 0.034140 0.878176
vt 0.279610 0.749681
vt 0.041810 0.988288
vt 0.034140 0.878176
vt 0.279610 0.749681
vt 0.041810 0.295378
vt 0.562736 0.411972
vt 0.562736 0.516125
vt 0.562736 0.204250
vt 0.562736 0.750852
vt 0.537314 0.123487
vt 0.009278 0.237473
vt 0.009435 0.815854
vt 0.347019 0.955138
vt 0.386121 0.977778
vt 0.306508 0.863324
vt 0.320851 0.910485
vt 0.264383 0.197816
vt 0.400736 0.248273
vt 0.402757 0.248273
vt 0.360659 0.197816
vt 0.360659 0.011231
vt 0.104702 0.007570
vt 0.225395 0.248942
vt 0.220967 0.248273
vt 0.296942 0.718127
vt 0.098710 0.763020
vt 0.119095 0.115198
vt 0.365487 0.069873
vt 0.359962 0.350411
vt 0.542115 0.215380
vt 0.536908 0.653498
vt 0.089041 0.540459
vt 0.073648 0.480569
vt 0.082934 0.466825
vt 0.064467 0.466825
vt 0.006623 0.547893
vt 0.064467 0.547739
vt 0.006623 0.374124
vt 0.006623 0.374124
vt 0.064467 0.459316
vt 0.064260 0.459316
vt 0.006416 0.547739
vt 0.064467 0.547739
vt 0.006623 0.374124
vt 0.006623 0.374124
vt 0.064467 0.547739
vt 0.006623 0.466825
vt 0.006623 0.547739
vt 0.064467 0.466825
vt 0.064467 0.374124
vt 0.006623 0.374124
vt 0.064467 0.197816
vt 0.400736 0.248273
vt 0.402757 0.197816
vt 0.360659 0.248273
vt 0.360659 0.009520
vt 0.284199 0.013054
vt 0.339427 0.012847
vt 0.379674 0.053263
vt 0.382881 0.547739
vt 0.006623 0.466825
vt 0.006623 0.547739
vt 0.064467 0.466825
vt 0.064467 0.374124
vt 0.006623 0.374124
vt 0.064467 0.547739
vt 0.006623 0.466825
vt 0.006623 0.547739
vt 0.064467 0.466825
vt 0.064467 0.374124
vt 0.006623 0.374124
vt 0.064467 0.466825
vt 0.064467 0.466825
vt 0.006623 0.547893
vt 0.064467 0.547739
vt 0.006623 0.374124
vt 0.006623 0.374124
vt 0.064467 0.051238
vt 0.613093 0.948394
vt 0.732534 0.903341
vt 0.613093 0.759431
vt 0.613093 0.611893
vt 0.562736 0.755313
vt 0.592372 0.714767
vt 0.562736 0.133829
vt 0.795205 0.013195
vt 0.795854 0.432369
vt 0.794555 0.282233
vt 0.794555 0.103353
vt 0.562736 0.133477
vt 0.533004 0.064873
vt 0.532272 0.061760
vt 0.552339 0.136696
vt 0.553806 0.183136
vt 0.532557 0.195423
vt 0.553187 0.189956
vt 0.495783 0.205480
vt 0.494810 0.191608
vt 0.472009 0.163929
vt 0.446440 0.170972
vt 0.430355 0.178786
vt 0.420361 0.136586
vt 0.425169 0.140564
vt 0.406831 0.103711
vt 0.421190 0.102966
vt 0.402320 0.066763
vt 0.427165 0.061137
vt 0.409492 0.038231
vt 0.431515 0.028772
vt 0.424329 0.022860
vt 0.491283 0.007475
vt 0.488781 0.025441
vt 0.528189 0.015177
vt 0.547523 0.987240
vt 0.958190 0.948704
vt 0.978235 0.445555
vt 0.958190 0.493569
vt 0.978235 0.800598
vt 0.748853 0.632218
vt 0.748853 0.445555
vt 0.748853 0.987240
vt 0.748853 -0.925420
vt 0.410749 -0.924698
vt 0.402182 -0.933907
vt 0.401414 -0.937479
vt 0.408620 -0.940827
vt 0.410909 -0.921680
vt 0.416594 0.988288
vt 0.034140 0.878176
vt 0.279610 0.749681
vt 0.041810 0.988288
vt 0.034140 0.878176
vt 0.279610 0.749681
vt 0.041810 0.988288
vt 0.034140 0.878176
vt 0.279610 0.749681
vt 0.041810 0.988288
vt 0.034140 0.878176
vt 0.279610 0.749681
vt 0.041810 0.988288
vt 0.034140 0.878176
vt 0.279610 0.749681
vt 0.041810 0.988288
vt 0.034140 0.878176
vt 0.279610 0.749681
vt 0.041810 1.000000

f 114/114 115/115 118/118
f 115/115 116/116 118/118
f 410/410 411/411 117/117
f 117/117 411/411 412/412
f 119/119 120/120 123/123
f 120/120 121/121 123/123
f 413/413 414/414 122/122
f 122/122 414/414 415/415
f 124/124 128/128 125/125
f 125/125 128/128 126/126
f 416/416 127/127 417/417
f 127/127 418/418 417/417
f 129/129 131/131 130/130
f 131/131 132/132 130/130
f 419/419 420/420 133/133
f 133/133 420/420 421/421
f 134/134 136/136 135/135
f 136/136 137/137 135/135
f 422/422 423/423 138/138
f 138/138 423/423 424/424
f 139/139 141/141 140/140
f 141/141 142/142 140/140
f 425/425 426/426 143/143
f 143/143 426/426 427/427
f 257/257 261/261 258/258
f 258/258 261/261 259/259
f 551/551 260/260 552/552
f 260/260 553/553 552/552
f 262/262 266/266 263/263
f 263/263 266/266 264/264
f 554/554 265/265 555/555
f 265/265 556/556 555/555
f 267/267 268/268 271/271
f 268/268 269/269 271/271
f 557/557 558/558 270/270
f 270/270 558/558 559/559
f 272/272 273/273 274/274
f 274/274 273/273 275/275
f 560/560 276/276 561/561
f 276/276 562/562 561/561
f 277/277 278/278 279/279
f 279/279 278/278 280/280
f 563/563 281/281 564/564
f 281/281 565/565 564/564
f 282/282 283/283 284/284
f 284/284 283/283 285/285
f 566/566 286/286 567/567
f 286/286 568/568 567/567
f 97/97 5/5 83/83
f 87/87 86/86 102/102
f 287/287 84/84 5/5
f 83/83 86/86 6/6
f 87/87 83/83 88/88
f 87/87 6/6 287/287
f 288/288 84/84 289/289
f 84/84 288/288 102/102
f 290/290 287/287 97/97
f 96/96 5/5 94/94
f 93/93 83/83 90/90
f 6/6 91/91 95/95
f 94/94 5/5 6/6
f 83/83 92/92 93/93
f 92/92 83/83 79/79
f 290/290 78/78 85/85
f 365/365 366/366 91/91
f 6/6 92/92 94/94
f 96/96 95/95 89/89
f 6/6 90/90 89/89
f 88/88 6/6 367/367
f 368/368 70/70 69/69
f 367/367 70/70 365/365
f 80/80 364/364 369/369
f 370/370 73/73 74/74
f 369/369 73/73 105/105
f 112/112 111/111 110/110
f 105/105 111/111 364/364
f 85/85 289/289 107/107
f 106/106 109/109 108/108
f 107/107 109/109 370/370
f 367/367 69/69 73/73
f 370/370 69/69 290/290
f 79/79 371/371 84/84
f 289/289 85/85 78/78
f 290/290 102/102 372/372
f 372/372 375/375 376/376
f 376/376 377/377 378/378
f 378/378 379/379 380/380
f 380/380 381/381 382/382
f 382/382 383/383 384/384
f 384/384 385/385 386/386
f 386/386 387/387 388/388
f 388/388 389/389 390/390
f 390/390 391/391 392/392
f 392/392 393/393 394/394
f 394/394 395/395 374/374
f 374/374 373/373 98/98
f 98/98 69/69 101/101
f 101/101 74/74 396/396
f 397/397 104/104 103/103
f 398/398 399/399 100/100
f 100/100 73/73 109/109
f 109/109 106/106 229/229
f 148/148 240/240 226/226
f 229/229 230/230 245/245
f 227/227 428/428 148/148
f 229/229 226/226 149/149
f 226/226 230/230 231/231
f 149/149 230/230 428/428
f 227/227 429/429 430/430
f 429/429 227/227 245/245
f 428/428 431/431 240/240
f 148/148 239/239 237/237
f 226/226 236/236 233/233
f 234/234 149/149 238/238
f 148/148 237/237 149/149
f 235/235 226/226 236/236
f 226/226 235/235 222/222
f 221/221 431/431 228/228
f 506/506 507/507 234/234
f 235/235 149/149 237/237
f 238/238 239/239 232/232
f 233/233 149/149 232/232
f 149/149 231/231 508/508
f 213/213 509/509 212/212
f 213/213 508/508 507/507
f 505/505 223/223 510/510
f 216/216 511/511 217/217
f 216/216 510/510 248/248
f 254/254 255/255 253/253
f 254/254 248/248 505/505
f 430/430 228/228 250/250
f 252/252 249/249 251/251
f 252/252 250/250 511/511
f 212/212 508/508 216/216
f 212/212 511/511 431/431
f 512/512 222/222 227/227
f 228/228 430/430 221/221
f 245/245 431/431 513/513
f 516/516 513/513 517/517
f 518/518 517/517 519/519
f 520/520 519/519 521/521
f 522/522 521/521 523/523
f 524/524 523/523 525/525
f 526/526 525/525 527/527
f 528/528 527/527 529/529
f 530/530 529/529 531/531
f 532/532 531/531 533/533
f 534/534 533/533 535/535
f 536/536 535/535 514/514
f 515/515 514/514 241/241
f 212/212 241/241 244/244
f 217/217 244/244 537/537
f 247/247 538/538 246/246
f 539/539 540/540 243/243
f 216/216 243/243 252/252
