# MOD converted: h_w_metalglove028.mod
# 1068 verts, 356 faces

v 89.529671 5.359430 45.505157
v 94.250458 8.346004 43.236942
v 89.446205 -2.023676 47.598831
v 98.634666 5.634776 45.400688
v 94.254524 -5.821934 47.491707
v 98.797714 -2.304446 45.869602
v 87.061386 -4.451908 55.960518
v 91.262131 6.682917 51.449711
v 88.931404 -5.139266 54.299969
v 89.191933 -5.197794 53.386639
v 84.875267 -6.455129 51.755733
v 87.115173 -5.696219 51.706821
v 82.461266 -7.207020 48.539989
v 84.623077 -6.493415 49.457905
v 92.459030 8.159892 49.283562
v 88.585167 0.781657 48.920582
v 86.842857 -2.400342 50.225357
v 85.033287 -4.371129 52.456745
v 83.662453 -5.389835 56.077858
v 91.902489 -4.601996 48.551735
v 90.706146 -5.798833 51.517445
v 91.947876 -4.819963 52.861637
v 83.802528 -8.281509 49.996807
v 86.671013 -7.855736 54.922543
v 89.270325 0.783241 56.743187
v 92.303864 0.880869 48.014866
v 89.288635 5.471498 59.348213
v 89.324539 -5.186123 57.717712
v 87.195114 -5.163724 58.270088
v 87.097168 0.962983 59.895374
v 89.409386 0.910697 62.488052
v 86.323654 -5.220564 60.364159
v 85.216431 -5.217041 61.068386
v 85.067238 0.866550 63.228081
v 86.142204 0.827410 54.165062
v 88.687370 7.085224 56.451195
v 92.240799 -2.079325 59.666790
v 89.446548 -2.462664 62.890400
v 86.209244 -2.816060 56.244034
v 91.889160 4.320883 59.615982
v 89.283401 3.589577 62.821045
v 86.222328 3.288670 54.775833
v 89.344604 -2.210668 57.998264
v 87.145348 -2.434710 60.772526
v 85.113953 -2.736122 54.586586
v 89.084679 4.035215 58.054893
v 87.029724 3.750803 60.676937
v 85.174004 3.258993 61.316357
v 86.409668 6.058503 59.309120
v 85.380722 6.004050 56.951691
v 87.395073 6.784995 58.614357
v 89.145691 6.402534 58.399853
v 87.120262 0.690358 60.025154
v 89.432503 0.685072 61.686172
v 84.465164 0.455798 63.766426
v 85.818001 0.421492 59.873497
v 89.457787 -2.073171 63.633018
v 85.874817 -2.173720 59.027802
v 89.369888 4.088140 61.656517
v 86.540131 3.933677 58.204971
v 87.156570 -2.163003 61.544632
v 84.512329 -2.093782 57.361710
v 87.393402 3.952236 59.674057
v 85.472649 3.848439 39.210693
v 90.397774 5.530079 39.237984
v 90.403015 -1.890744 43.783493
v 101.111351 5.987754 41.551296
v 95.878403 -5.827323 43.663231
v 101.132668 -2.442233 41.475182
v 95.842331 8.427883 40.629280
v 95.949226 7.131253 42.631569
v 100.550728 5.173380 32.321724
v 93.469994 5.214268 34.849129
v 98.988388 -5.347971 37.030418
v 104.136177 -2.434628 34.769249
v 98.953873 8.744482 37.153976
v 104.109917 6.190397 38.855453
v 91.636520 -0.995737 42.536224
v 100.567612 -1.438232 38.833809
v 91.632355 4.806159 40.689636
v 95.977829 -3.671475 38.233925
v 97.288559 1.834942 32.350128
v 93.474472 -1.375227 39.748322
v 104.583611 -0.079126 39.857780
v 104.564224 3.806096 39.023117
v 105.266434 1.862913 41.493256
v 103.044487 -1.555100 41.633297
v 103.019691 5.203603 48.140198
v 99.899361 1.665165 44.058445
v 102.428032 1.772759 41.574966
v 103.023308 1.864113 -43.467003
v 89.529671 5.359427 -45.505150
v 94.250465 8.346004 -43.236950
v 89.446205 -2.023681 -47.598824
v 98.634666 5.634778 -45.400684
v 94.254524 -5.821934 -47.491714
v 98.797714 -2.304443 -45.869602
v 87.061386 -4.451911 -55.960518
v 91.262131 6.682917 -51.449707
v 88.931404 -5.139267 -54.299973
v 89.191933 -5.197794 -53.386639
v 84.875267 -6.455131 -51.755733
v 87.115173 -5.696220 -51.706821
v 82.461266 -7.207021 -48.539986
v 84.623077 -6.493414 -49.457897
v 92.459030 8.159890 -49.283566
v 88.585167 0.781656 -48.920582
v 86.842857 -2.400342 -50.225357
v 85.033279 -4.371127 -52.456745
v 83.662453 -5.389834 -56.077858
v 91.902489 -4.601995 -48.551735
v 90.706146 -5.798833 -51.517445
v 91.947876 -4.819963 -52.861637
v 83.802528 -8.281509 -49.996807
v 86.671013 -7.855737 -54.922546
v 89.270325 0.783241 -56.743187
v 92.303871 0.880869 -48.014866
v 89.288635 5.471497 -59.348213
v 89.324539 -5.186123 -57.717709
v 87.195114 -5.163723 -58.270084
v 87.097168 0.962983 -59.895370
v 89.409386 0.910696 -62.488045
v 86.323654 -5.220564 -60.364155
v 85.216423 -5.217039 -61.068386
v 85.067238 0.866551 -63.228081
v 86.142204 0.827409 -54.165062
v 88.687378 7.085224 -56.451199
v 92.240799 -2.079324 -59.666790
v 89.446541 -2.462665 -62.890396
v 86.209244 -2.816060 -56.244034
v 91.889160 4.320883 -59.615986
v 89.283401 3.589576 -62.821045
v 86.222328 3.288670 -54.775833
v 89.344597 -2.210668 -57.998260
v 87.145348 -2.434709 -60.772526
v 85.113953 -2.736121 -54.586586
v 89.084679 4.035215 -58.054897
v 87.029724 3.750803 -60.676941
v 85.174004 3.258994 -61.316372
v 86.409683 6.058502 -59.309124
v 85.380722 6.004053 -56.951694
v 87.395073 6.784996 -58.614357
v 89.145691 6.402533 -58.399853
v 87.120262 0.690358 -60.025154
v 89.432503 0.685071 -61.686169
v 84.465164 0.455799 -63.766426
v 85.818001 0.421491 -59.873497
v 89.457787 -2.073172 -63.633015
v 85.874817 -2.173722 -59.027802
v 89.369888 4.088140 -61.656521
v 86.540131 3.933676 -58.204967
v 87.156570 -2.163002 -61.544632
v 84.512321 -2.093781 -57.361710
v 87.393402 3.952237 -59.674061
v 85.472649 3.848441 -39.210690
v 90.397774 5.530073 -39.237988
v 90.403015 -1.890750 -43.783489
v 101.111351 5.987759 -41.551304
v 95.878403 -5.827322 -43.663235
v 101.132668 -2.442229 -41.475178
v 95.842346 8.427883 -40.629276
v 95.949226 7.131254 -42.631565
v 100.550728 5.173384 -32.321724
v 93.470001 5.214280 -34.849129
v 98.988373 -5.347973 -37.030422
v 104.136169 -2.434642 -34.769257
v 98.953896 8.744481 -37.153976
v 104.109924 6.190385 -38.855453
v 91.636520 -0.995741 -42.536224
v 100.567612 -1.438229 -38.833805
v 91.632355 4.806155 -40.689640
v 95.977829 -3.671476 -38.233925
v 97.288559 1.834943 -32.350132
v 93.474464 -1.375215 -39.748325
v 104.583611 -0.079121 -39.857780
v 104.564224 3.806103 -39.023117
v 105.266434 1.862896 -41.493259
v 103.044487 -1.555097 -41.633293
v 103.019691 5.203609 -48.140198
v 99.899361 1.665168 -44.058449
v 102.428032 1.772764 -41.574966
v 103.023308 1.864118 49.457905
v 92.459030 8.159892 55.960518
v 91.262131 6.682917 47.598831
v 98.634666 5.634776 49.457905
v 92.459030 8.159892 49.457905
v 92.459030 8.159892 54.165062
v 88.687370 7.085224 43.236942
v 89.446205 -2.023676 53.386639
v 84.875267 -6.455129 50.225357
v 85.033287 -4.371129 50.225357
v 85.033287 -4.371129 51.755733
v 87.115173 -5.696219 50.225357
v 85.033287 -4.371129 51.449711
v 88.931404 -5.139266 48.920582
v 86.842857 -2.400342 48.920582
v 86.842857 -2.400342 51.449711
v 88.931404 -5.139266 49.283562
v 88.585167 0.781657 50.225357
v 85.033287 -4.371129 52.456745
v 83.662453 -5.389835 52.456745
v 83.662453 -5.389835 48.539989
v 84.623077 -6.493415 48.920582
v 86.842857 -2.400342 45.869602
v 87.061386 -4.451908 48.539989
v 84.623077 -6.493415 45.869602
v 87.061386 -4.451908 48.920582
v 86.842857 -2.400342 43.236942
v 89.446205 -2.023676 49.283562
v 88.585167 0.781657 47.598831
v 98.634666 5.634776 51.449711
v 88.931404 -5.139266 51.517445
v 91.947876 -4.819963 51.517445
v 91.947876 -4.819963 56.077858
v 91.902489 -4.601996 51.706821
v 82.461266 -7.207020 48.539989
v 84.623077 -6.493415 52.861637
v 83.802528 -8.281509 48.539989
v 84.623077 -6.493415 48.539989
v 84.623077 -6.493415 45.869602
v 87.061386 -4.451908 49.996807
v 86.671013 -7.855736 48.551735
v 90.706146 -5.798833 49.996807
v 86.671013 -7.855736 45.869602
v 87.061386 -4.451908 47.491707
v 98.797714 -2.304446 48.551735
v 90.706146 -5.798833 45.400688
v 94.254524 -5.821934 51.517445
v 91.947876 -4.819963 48.551735
v 90.706146 -5.798833 47.491707
v 98.797714 -2.304446 51.755733
v 87.115173 -5.696219 49.996807
v 86.671013 -7.855736 51.449711
v 88.931404 -5.139266 48.551735
v 90.706146 -5.798833 51.449711
v 88.931404 -5.139266 49.996807
v 86.671013 -7.855736 53.386639
v 84.875267 -6.455129 52.861637
v 83.802528 -8.281509 51.755733
v 87.115173 -5.696219 49.996807
v 86.671013 -7.855736 51.755733
v 87.115173 -5.696219 52.861637
v 83.802528 -8.281509 45.400688
v 94.254524 -5.821934 48.551735
v 90.706146 -5.798833 45.869602
v 87.061386 -4.451908 47.598831
v 98.634666 5.634776 55.960518
v 91.262131 6.682917 56.244034
v 91.889160 4.320883 52.861637
v 83.802528 -8.281509 53.386639
v 84.875267 -6.455129 51.706821
v 82.461266 -7.207020 51.517445
v 91.947876 -4.819963 54.299969
v 89.191933 -5.197794 51.449711
v 88.931404 -5.139266 52.456745
v 83.662453 -5.389835 51.706821
v 82.461266 -7.207020 53.386639
v 84.875267 -6.455129 50.225357
v 85.033287 -4.371129 48.920582
v 86.842857 -2.400342 48.539989
v 84.623077 -6.493415 62.488052
v 86.323654 -5.220564 60.772526
v 85.113953 -2.736122 56.077858
v 91.902489 -4.601996 47.491707
v 98.797714 -2.304446 56.743187
v 92.303864 0.880869 47.491707
v 98.797714 -2.304446 43.236942
v 89.446205 -2.023676 49.283562
v 88.585167 0.781657 48.014866
v 89.288635 5.471498 43.467003
v 89.529671 5.359430 49.283562
v 88.585167 0.781657 54.165062
v 88.687370 7.085224 49.283562
v 88.585167 0.781657 49.283562
v 88.585167 0.781657 54.922543
v 89.270325 0.783241 54.586586
v 89.084679 4.035215 54.775833
v 89.344604 -2.210668 49.283562
v 88.585167 0.781657 51.449711
v 88.931404 -5.139266 51.449711
v 88.931404 -5.139266 54.299969
v 89.191933 -5.197794 54.775833
v 89.344604 -2.210668 56.077858
v 91.902489 -4.601996 54.299969
v 89.191933 -5.197794 54.299969
v 89.191933 -5.197794 59.348213
v 89.324539 -5.186123 54.775833
v 89.344604 -2.210668 54.299969
v 89.191933 -5.197794 57.717712
v 87.195114 -5.163724 57.717712
v 87.195114 -5.163724 54.775833
v 89.344604 -2.210668 59.348213
v 89.324539 -5.186123 62.488052
v 86.323654 -5.220564 60.364159
v 85.216431 -5.217041 60.364159
v 85.216431 -5.217041 57.717712
v 87.195114 -5.163724 59.348213
v 89.324539 -5.186123 57.998264
v 87.145348 -2.434710 57.717712
v 87.195114 -5.163724 60.364159
v 85.216431 -5.217041 60.364159
v 85.216431 -5.217041 60.772526
v 85.113953 -2.736122 57.998264
v 87.145348 -2.434710 61.068386
v 85.067238 0.866550 62.821045
v 86.222328 3.288670 54.922543
v 89.270325 0.783241 58.054893
v 87.029724 3.750803 54.586586
v 89.084679 4.035215 54.922543
v 89.270325 0.783241 58.270088
v 87.097168 0.962983 61.068386
v 85.067238 0.866550 60.676937
v 85.174004 3.258993 60.676937
v 85.174004 3.258993 58.054893
v 87.029724 3.750803 58.270088
v 87.097168 0.962983 45.505157
v 94.250458 8.346004 48.014866
v 89.288635 5.471498 49.457905
v 92.459030 8.159892 48.014866
v 89.288635 5.471498 45.505157
v 94.250458 8.346004 43.467003
v 89.529671 5.359430 54.165062
v 88.687370 7.085224 48.014866
v 89.288635 5.471498 49.283562
v 88.585167 0.781657 59.348213
v 89.324539 -5.186123 56.077858
v 91.902489 -4.601996 56.451195
v 92.240799 -2.079325 56.451195
v 92.240799 -2.079325 59.348213
v 89.324539 -5.186123 62.488052
v 86.323654 -5.220564 59.348213
v 89.324539 -5.186123 59.666790
v 89.446548 -2.462664 59.666790
v 89.446548 -2.462664 62.890400
v 86.209244 -2.816060 62.488052
v 86.323654 -5.220564 56.743187
v 92.303864 0.880869 56.743187
v 92.303864 0.880869 56.244034
v 91.889160 4.320883 59.615982
v 89.283401 3.589577 62.821045
v 86.222328 3.288670 63.228081
v 86.142204 0.827410 59.895374
v 89.409386 0.910697 59.895374
v 89.409386 0.910697 59.615982
v 89.283401 3.589577 62.821045
v 86.222328 3.288670 59.666790
v 89.446548 -2.462664 57.998264
v 87.145348 -2.434710 60.772526
v 85.113953 -2.736122 60.772526
v 85.113953 -2.736122 62.890400
v 86.209244 -2.816060 59.666790
v 89.446548 -2.462664 59.666790
v 89.446548 -2.462664 56.451195
v 92.240799 -2.079325 54.775833
v 89.344604 -2.210668 54.775833
v 89.344604 -2.210668 57.998264
v 87.145348 -2.434710 59.666790
v 89.446548 -2.462664 59.615982
v 89.283401 3.589577 58.054893
v 87.029724 3.750803 60.676937
v 85.174004 3.258993 60.676937
v 85.174004 3.258993 62.821045
v 86.222328 3.288670 59.615982
v 89.283401 3.589577 59.615982
v 89.283401 3.589577 56.244034
v 91.889160 4.320883 54.586586
v 89.084679 4.035215 54.586586
v 89.084679 4.035215 58.054893
v 87.029724 3.750803 59.615982
v 89.283401 3.589577 59.895374
v 89.409386 0.910697 63.228081
v 86.142204 0.827410 61.068386
v 85.067238 0.866550 61.068386
v 85.067238 0.866550 58.270088
v 87.097168 0.962983 59.895374
v 89.409386 0.910697 54.922543
v 89.270325 0.783241 56.743187
v 92.303864 0.880869 59.895374
v 89.409386 0.910697 59.895374
v 89.409386 0.910697 58.270088
v 87.097168 0.962983 54.922543
v 89.270325 0.783241 56.743187
v 92.303864 0.880869 59.873497
v 89.457787 -2.073171 56.451195
v 92.240799 -2.079325 56.743187
v 92.303864 0.880869 60.025154
v 89.432503 0.685072 63.633018
v 85.874817 -2.173720 59.873497
v 89.457787 -2.073171 60.025154
v 89.432503 0.685072 54.165062
v 88.687370 7.085224 58.614357
v 89.145691 6.402534 55.960518
v 91.262131 6.682917 54.165062
v 88.687370 7.085224 56.244034
v 91.889160 4.320883 55.960518
v 91.262131 6.682917 58.614357
v 89.145691 6.402534 58.614357
v 89.145691 6.402534 56.244034
v 91.889160 4.320883 56.951691
v 87.395073 6.784995 61.316357
v 86.409668 6.058503 58.614357
v 89.145691 6.402534 56.951691
v 87.395073 6.784995 59.027802
v 89.369888 4.088140 58.614357
v 89.145691 6.402534 61.316357
v 86.409668 6.058503 61.316357
v 86.409668 6.058503 59.027802
v 89.369888 4.088140 54.922543
v 89.270325 0.783241 54.922543
v 89.270325 0.783241 54.775833
v 89.344604 -2.210668 58.204971
v 87.156570 -2.163003 58.399853
v 87.120262 0.690358 58.399853
v 87.120262 0.690358 58.204971
v 87.156570 -2.163003 61.544632
v 84.512329 -2.093782 63.633018
v 85.874817 -2.173720 63.766426
v 85.818001 0.421492 61.686172
v 84.465164 0.455798 61.686172
v 84.465164 0.455798 61.544632
v 84.512329 -2.093782 63.633018
v 85.874817 -2.173720 56.951691
v 87.395073 6.784995 54.165062
v 88.687370 7.085224 54.586586
v 89.084679 4.035215 54.586586
v 89.084679 4.035215 56.951691
v 87.395073 6.784995 59.309120
v 85.380722 6.004050 56.951691
v 87.395073 6.784995 57.361710
v 87.393402 3.952236 57.361710
v 87.393402 3.952236 59.309120
v 85.380722 6.004050 61.316357
v 86.409668 6.058503 59.309120
v 85.380722 6.004050 59.674057
v 85.472649 3.848439 59.674057
v 85.472649 3.848439 61.656517
v 86.540131 3.933677 61.316357
v 86.409668 6.058503 59.873497
v 89.457787 -2.073171 63.633018
v 85.874817 -2.173720 61.544632
v 84.512329 -2.093782 61.544632
v 84.512329 -2.093782 58.204971
v 87.156570 -2.163003 59.873497
v 89.457787 -2.073171 54.775833
v 89.344604 -2.210668 56.451195
v 92.240799 -2.079325 59.873497
v 89.457787 -2.073171 59.873497
v 89.457787 -2.073171 58.204971
v 87.156570 -2.163003 54.775833
v 89.344604 -2.210668 59.027802
v 89.369888 4.088140 61.656517
v 86.540131 3.933677 59.674057
v 85.472649 3.848439 59.674057
v 85.472649 3.848439 57.361710
v 87.393402 3.952236 59.027802
v 89.369888 4.088140 54.586586
v 89.084679 4.035215 56.244034
v 91.889160 4.320883 59.027802
v 89.369888 4.088140 59.027802
v 89.369888 4.088140 57.361710
v 87.393402 3.952236 54.586586
v 89.084679 4.035215 60.025154
v 89.432503 0.685072 58.399853
v 87.120262 0.690358 61.686172
v 84.465164 0.455798 61.686172
v 84.465164 0.455798 63.766426
v 85.818001 0.421492 60.025154
v 89.432503 0.685072 60.025154
v 89.432503 0.685072 56.743187
v 92.303864 0.880869 54.922543
v 89.270325 0.783241 54.922543
v 89.270325 0.783241 58.399853
v 87.120262 0.690358 60.025154
v 89.432503 0.685072 47.491707
v 98.797714 -2.304446 56.743187
v 92.303864 0.880869 56.451195
v 92.240799 -2.079325 43.467003
v 89.529671 5.359430 39.210693
v 90.397774 5.530079 43.236942
v 89.446205 -2.023676 43.467003
v 89.529671 5.359430 45.400688
v 94.254524 -5.821934 41.551296
v 95.878403 -5.827323 47.491707
v 98.797714 -2.304446 45.400688
v 94.254524 -5.821934 45.505157
v 94.250458 8.346004 47.598831
v 98.634666 5.634776 47.491707
v 98.797714 -2.304446 41.551296
v 95.878403 -5.827323 43.783493
v 101.111351 5.987754 47.598831
v 98.634666 5.634776 47.598831
v 98.634666 5.634776 48.140198
v 99.899361 1.665165 44.058445
v 102.428032 1.772759 43.236942
v 89.446205 -2.023676 39.210693
v 90.397774 5.530079 39.237984
v 90.403015 -1.890744 39.237984
v 90.403015 -1.890744 45.400688
v 94.254524 -5.821934 43.236942
v 89.446205 -2.023676 45.505157
v 94.250458 8.346004 43.783493
v 101.111351 5.987754 41.475182
v 95.842331 8.427883 41.475182
v 95.842331 8.427883 43.467003
v 89.529671 5.359430 45.505157
v 94.250458 8.346004 41.551296
v 95.878403 -5.827323 39.237984
v 90.403015 -1.890744 39.237984
v 90.403015 -1.890744 40.689636
v 95.977829 -3.671475 43.663231
v 101.132668 -2.442233 41.551296
v 95.878403 -5.827323 41.551296
v 95.878403 -5.827323 40.689636
v 95.977829 -3.671475 42.536224
v 100.567612 -1.438232 38.855453
v 91.636520 -0.995737 39.237984
v 90.403015 -1.890744 39.210693
v 90.397774 5.530079 39.210693
v 90.397774 5.530079 38.855453
v 91.636520 -0.995737 41.475182
v 95.842331 8.427883 43.783493
v 101.111351 5.987754 43.783493
v 101.111351 5.987754 40.629280
v 95.949226 7.131253 38.833809
v 91.632355 4.806159 39.210693
v 90.397774 5.530079 41.475182
v 95.842331 8.427883 41.475182
v 95.842331 8.427883 40.629280
v 95.949226 7.131253 38.833809
v 91.632355 4.806159 38.833809
v 91.632355 4.806159 38.855453
v 91.636520 -0.995737 38.833809
v 91.632355 4.806159 32.350128
v 93.474472 -1.375227 32.350128
v 93.474472 -1.375227 38.855453
v 91.636520 -0.995737 40.689636
v 95.977829 -3.671475 38.855453
v 91.636520 -0.995737 34.849129
v 98.988388 -5.347971 34.849129
v 98.988388 -5.347971 40.689636
v 95.977829 -3.671475 42.536224
v 100.567612 -1.438232 40.689636
v 95.977829 -3.671475 37.030418
v 104.136177 -2.434628 42.631569
v 100.550728 5.173380 40.629280
v 95.949226 7.131253 42.631569
v 100.550728 5.173380 34.769249
v 98.953873 8.744482 37.030418
v 104.136177 -2.434628 42.631569
v 100.550728 5.173380 42.536224
v 100.567612 -1.438232 34.769249
v 98.953873 8.744482 32.321724
v 93.469994 5.214268 40.629280
v 95.949226 7.131253 38.833809
v 91.632355 4.806159 40.629280
v 95.949226 7.131253 32.321724
v 93.469994 5.214268 37.153976
v 104.109917 6.190397 42.631569
v 100.550728 5.173380 37.030418
v 104.136177 -2.434628 32.350128
v 93.474472 -1.375227 32.321724
v 93.469994 5.214268 38.233925
v 97.288559 1.834942 34.849129
v 98.988388 -5.347971 32.350128
v 93.474472 -1.375227 38.233925
v 97.288559 1.834942 37.030418
v 104.136177 -2.434628 34.849129
v 98.988388 -5.347971 38.233925
v 97.288559 1.834942 34.769249
v 98.953873 8.744482 37.153976
v 104.109917 6.190397 38.233925
v 97.288559 1.834942 37.153976
v 104.109917 6.190397 37.030418
v 104.136177 -2.434628 38.233925
v 97.288559 1.834942 32.321724
v 93.469994 5.214268 34.769249
v 98.953873 8.744482 44.058445
v 102.428032 1.772759 43.663231
v 101.132668 -2.442233 44.058445
v 102.428032 1.772759 44.058445
v 102.428032 1.772759 47.491707
v 98.797714 -2.304446 43.663231
v 101.132668 -2.442233 44.058445
v 102.428032 1.772759 44.058445
v 102.428032 1.772759 48.140198
v 99.899361 1.665165 47.491707
v 98.797714 -2.304446 41.633297
v 103.019691 5.203603 43.783493
v 101.111351 5.987754 44.058445
v 102.428032 1.772759 44.058445
v 102.428032 1.772759 41.493256
v 103.044487 -1.555100 39.748322
v 104.583611 -0.079126 44.058445
v 102.428032 1.772759 39.023117
v 105.266434 1.862913 39.857780
v 104.564224 3.806096 42.631569
v 100.550728 5.173380 43.783493
v 101.111351 5.987754 41.633297
v 103.019691 5.203603 41.493256
v 103.044487 -1.555100 43.663231
v 101.132668 -2.442233 42.536224
v 100.567612 -1.438232 41.493256
v 103.044487 -1.555100 42.536224
v 100.567612 -1.438232 41.574966
v 103.023308 1.864113 42.631569
v 100.550728 5.173380 41.633297
v 103.019691 5.203603 41.574966
v 103.023308 1.864113 42.536224
v 100.567612 -1.438232 42.631569
v 100.550728 5.173380 41.574966
v 103.023308 1.864113 39.748322
v 104.583611 -0.079126 41.493256
v 103.044487 -1.555100 39.023117
v 105.266434 1.862913 39.748322
v 104.583611 -0.079126 41.574966
v 103.023308 1.864113 39.857780
v 104.564224 3.806096 39.023117
v 105.266434 1.862913 41.574966
v 103.023308 1.864113 41.633297
v 103.019691 5.203603 39.857780
v 104.564224 3.806096 41.574966
v 103.023308 1.864113 48.140198
v 99.899361 1.665165 47.598831
v 98.634666 5.634776 56.743187
v 92.303864 0.880869 -49.457897
v 92.459030 8.159890 -55.960518
v 91.262131 6.682917 -49.457897
v 92.459030 8.159890 -47.598824
v 98.634666 5.634778 -49.457897
v 92.459030 8.159890 -54.165062
v 88.687378 7.085224 -43.236950
v 89.446205 -2.023681 -50.225357
v 85.033279 -4.371127 -53.386639
v 84.875267 -6.455131 -51.755733
v 87.115173 -5.696220 -50.225357
v 85.033279 -4.371127 -50.225357
v 85.033279 -4.371127 -48.920582
v 86.842857 -2.400342 -51.449707
v 88.931404 -5.139267 -48.920582
v 86.842857 -2.400342 -49.283566
v 88.585167 0.781656 -51.449707
v 88.931404 -5.139267 -50.225357
v 85.033279 -4.371127 -52.456745
v 83.662453 -5.389834 -48.539986
v 84.623077 -6.493414 -52.456745
v 83.662453 -5.389834 -48.920582
v 86.842857 -2.400342 -48.539986
v 84.623077 -6.493414 -45.869602
v 87.061386 -4.451911 -45.869602
v 87.061386 -4.451911 -43.236950
v 89.446205 -2.023681 -48.920582
v 86.842857 -2.400342 -49.283566
v 88.585167 0.781656 -47.598824
v 98.634666 5.634778 -51.449707
v 88.931404 -5.139267 -51.517445
v 91.947876 -4.819963 -56.077858
v 91.902489 -4.601995 -51.517445
v 91.947876 -4.819963 -51.706821
v 82.461266 -7.207021 -48.539986
v 84.623077 -6.493414 -48.539986
v 84.623077 -6.493414 -52.861637
v 83.802528 -8.281509 -48.539986
v 84.623077 -6.493414 -49.996807
v 86.671013 -7.855737 -45.869602
v 87.061386 -4.451911 -48.551735
v 90.706146 -5.798833 -45.869602
v 87.061386 -4.451911 -49.996807
v 86.671013 -7.855737 -47.491714
v 98.797714 -2.304443 -45.400684
v 94.254524 -5.821934 -48.551735
v 90.706146 -5.798833 -51.517445
v 91.947876 -4.819963 -47.491714
v 98.797714 -2.304443 -48.551735
v 90.706146 -5.798833 -51.755733
v 87.115173 -5.696220 -51.449707
v 88.931404 -5.139267 -49.996807
v 86.671013 -7.855737 -48.551735
v 90.706146 -5.798833 -49.996807
v 86.671013 -7.855737 -51.449707
v 88.931404 -5.139267 -53.386639
v 84.875267 -6.455131 -51.755733
v 87.115173 -5.696220 -52.861637
v 83.802528 -8.281509 -49.996807
v 86.671013 -7.855737 -52.861637
v 83.802528 -8.281509 -51.755733
v 87.115173 -5.696220 -45.400684
v 94.254524 -5.821934 -45.869602
v 87.061386 -4.451911 -48.551735
v 90.706146 -5.798833 -47.598824
v 98.634666 5.634778 -56.244034
v 91.889160 4.320883 -55.960518
v 91.262131 6.682917 -52.861637
v 83.802528 -8.281509 -51.706821
v 82.461266 -7.207021 -53.386639
v 84.875267 -6.455131 -51.517445
v 91.947876 -4.819963 -51.449707
v 88.931404 -5.139267 -54.299973
v 89.191933 -5.197794 -52.456745
v 83.662453 -5.389834 -53.386639
v 84.875267 -6.455131 -51.706821
v 82.461266 -7.207021 -50.225357
v 85.033279 -4.371127 -48.539986
v 84.623077 -6.493414 -48.920582
v 86.842857 -2.400342 -62.488045
v 86.323654 -5.220564 -60.772526
v 85.113953 -2.736121 -47.491714
v 98.797714 -2.304443 -56.077858
v 91.902489 -4.601995 -47.491714
v 98.797714 -2.304443 -56.743187
v 92.303871 0.880869 -49.283566
v 88.585167 0.781656 -43.236950
v 89.446205 -2.023681 -48.014866
v 89.288635 5.471497 -49.283566
v 88.585167 0.781656 -43.467003
v 89.529671 5.359427 -49.283566
v 88.585167 0.781656 -54.165062
v 88.687378 7.085224 -49.283566
v 88.585167 0.781656 -54.586586
v 89.084679 4.035215 -54.922546
v 89.270325 0.783241 -54.775833
v 89.344597 -2.210668 -51.449707
v 88.931404 -5.139267 -49.283566
v 88.585167 0.781656 -51.449707
v 88.931404 -5.139267 -54.775833
v 89.344597 -2.210668 -54.299973
v 89.191933 -5.197794 -56.077858
v 91.902489 -4.601995 -54.299973
v 89.191933 -5.197794 -59.348213
v 89.324539 -5.186123 -54.299973
v 89.191933 -5.197794 -54.775833
v 89.344597 -2.210668 -57.717709
v 87.195114 -5.163723 -54.299973
v 89.191933 -5.197794 -57.717709
v 87.195114 -5.163723 -54.775833
v 89.344597 -2.210668 -59.348213
v 89.324539 -5.186123 -60.364155
v 85.216423 -5.217039 -62.488045
v 86.323654 -5.220564 -60.364155
v 85.216423 -5.217039 -59.348213
v 89.324539 -5.186123 -57.717709
v 87.195114 -5.163723 -57.998260
v 87.145348 -2.434709 -60.364155
v 85.216423 -5.217039 -57.717709
v 87.195114 -5.163723 -60.364155
v 85.216423 -5.217039 -57.998260
v 87.145348 -2.434709 -60.772526
v 85.113953 -2.736121 -61.068386
v 85.067238 0.866551 -62.821045
v 86.222328 3.288670 -54.922546
v 89.270325 0.783241 -58.054897
v 87.029724 3.750803 -54.922546
v 89.270325 0.783241 -54.586586
v 89.084679 4.035215 -58.270084
v 87.097168 0.962983 -60.676941
v 85.174004 3.258994 -61.068386
v 85.067238 0.866551 -60.676941
v 85.174004 3.258994 -58.270084
v 87.097168 0.962983 -58.054897
v 87.029724 3.750803 -45.505150
v 94.250465 8.346004 -49.457897
v 92.459030 8.159890 -48.014866
v 89.288635 5.471497 -48.014866
v 89.288635 5.471497 -43.467003
v 89.529671 5.359427 -45.505150
v 94.250465 8.346004 -54.165062
v 88.687378 7.085224 -49.283566
v 88.585167 0.781656 -48.014866
v 89.288635 5.471497 -59.348213
v 89.324539 -5.186123 -56.451199
v 92.240799 -2.079324 -56.077858
v 91.902489 -4.601995 -56.451199
v 92.240799 -2.079324 -59.348213
v 89.324539 -5.186123 -62.488045
v 86.323654 -5.220564 -59.666790
v 89.446541 -2.462665 -59.348213
v 89.324539 -5.186123 -59.666790
v 89.446541 -2.462665 -62.488045
v 86.323654 -5.220564 -62.890396
v 86.209244 -2.816060 -56.743187
v 92.303871 0.880869 -56.743187
v 92.303871 0.880869 -59.615986
v 89.283401 3.589576 -56.244034
v 91.889160 4.320883 -62.821045
v 86.222328 3.288670 -59.895370
v 89.409386 0.910696 -63.228081
v 86.142204 0.827409 -59.895370
v 89.409386 0.910696 -62.821045
v 86.222328 3.288670 -59.615986
v 89.283401 3.589576 -59.666790
v 89.446541 -2.462665 -60.772526
v 85.113953 -2.736121 -57.998260
v 87.145348 -2.434709 -60.772526
v 85.113953 -2.736121 -59.666790
v 89.446541 -2.462665 -62.890396
v 86.209244 -2.816060 -59.666790
v 89.446541 -2.462665 -54.775833
v 89.344597 -2.210668 -56.451199
v 92.240799 -2.079324 -54.775833
v 89.344597 -2.210668 -59.666790
v 89.446541 -2.462665 -57.998260
v 87.145348 -2.434709 -59.615986
v 89.283401 3.589576 -60.676941
v 85.174004 3.258994 -58.054897
v 87.029724 3.750803 -60.676941
v 85.174004 3.258994 -59.615986
v 89.283401 3.589576 -62.821045
v 86.222328 3.288670 -59.615986
v 89.283401 3.589576 -54.586586
v 89.084679 4.035215 -56.244034
v 91.889160 4.320883 -54.586586
v 89.084679 4.035215 -59.615986
v 89.283401 3.589576 -58.054897
v 87.029724 3.750803 -59.895370
v 89.409386 0.910696 -61.068386
v 85.067238 0.866551 -63.228081
v 86.142204 0.827409 -61.068386
v 85.067238 0.866551 -59.895370
v 89.409386 0.910696 -58.270084
v 87.097168 0.962983 -54.922546
v 89.270325 0.783241 -59.895370
v 89.409386 0.910696 -56.743187
v 92.303871 0.880869 -59.895370
v 89.409386 0.910696 -54.922546
v 89.270325 0.783241 -58.270084
v 87.097168 0.962983 -56.743187
v 92.303871 0.880869 -59.873497
v 89.457787 -2.073172 -56.743187
v 92.303871 0.880869 -56.451199
v 92.240799 -2.079324 -60.025154
v 89.432503 0.685071 -63.633015
v 85.874817 -2.173722 -60.025154
v 89.432503 0.685071 -59.873497
v 89.457787 -2.073172 -54.165062
v 88.687378 7.085224 -58.614357
v 89.145691 6.402533 -54.165062
v 88.687378 7.085224 -55.960518
v 91.262131 6.682917 -56.244034
v 91.889160 4.320883 -58.614357
v 89.145691 6.402533 -55.960518
v 91.262131 6.682917 -58.614357
v 89.145691 6.402533 -56.244034
v 91.889160 4.320883 -56.951694
v 87.395073 6.784996 -61.316372
v 86.409683 6.058502 -56.951694
v 87.395073 6.784996 -58.614357
v 89.145691 6.402533 -59.027802
v 89.369888 4.088140 -61.316372
v 86.409683 6.058502 -58.614357
v 89.145691 6.402533 -61.316372
v 86.409683 6.058502 -59.027802
v 89.369888 4.088140 -54.922546
v 89.270325 0.783241 -54.922546
v 89.270325 0.783241 -58.204967
v 87.156570 -2.163002 -54.775833
v 89.344597 -2.210668 -58.399853
v 87.120262 0.690358 -58.399853
v 87.120262 0.690358 -61.544632
v 84.512321 -2.093781 -58.204967
v 87.156570 -2.163002 -63.633015
v 85.874817 -2.173722 -61.686169
v 84.465164 0.455799 -63.766426
v 85.818001 0.421491 -61.686169
v 84.465164 0.455799 -63.633015
v 85.874817 -2.173722 -61.544632
v 84.512321 -2.093781 -56.951694
v 87.395073 6.784996 -54.586586
v 89.084679 4.035215 -54.165062
v 88.687378 7.085224 -54.586586
v 89.084679 4.035215 -56.951694
v 87.395073 6.784996 -59.309124
v 85.380722 6.004053 -57.361710
v 87.393402 3.952237 -56.951694
v 87.395073 6.784996 -57.361710
v 87.393402 3.952237 -59.309124
v 85.380722 6.004053 -61.316372
v 86.409683 6.058502 -59.674061
v 85.472649 3.848441 -59.309124
v 85.380722 6.004053 -59.674061
v 85.472649 3.848441 -61.316372
v 86.409683 6.058502 -61.656521
v 86.540131 3.933676 -59.873497
v 89.457787 -2.073172 -61.544632
v 84.512321 -2.093781 -63.633015
v 85.874817 -2.173722 -61.544632
v 84.512321 -2.093781 -59.873497
v 89.457787 -2.073172 -58.204967
v 87.156570 -2.163002 -54.775833
v 89.344597 -2.210668 -59.873497
v 89.457787 -2.073172 -56.451199
v 92.240799 -2.079324 -59.873497
v 89.457787 -2.073172 -54.775833
v 89.344597 -2.210668 -58.204967
v 87.156570 -2.163002 -59.027802
v 89.369888 4.088140 -59.674061
v 85.472649 3.848441 -61.656521
v 86.540131 3.933676 -59.674061
v 85.472649 3.848441 -59.027802
v 89.369888 4.088140 -57.361710
v 87.393402 3.952237 -54.586586
v 89.084679 4.035215 -59.027802
v 89.369888 4.088140 -56.244034
v 91.889160 4.320883 -59.027802
v 89.369888 4.088140 -54.586586
v 89.084679 4.035215 -57.361710
v 87.393402 3.952237 -60.025154
v 89.432503 0.685071 -61.686169
v 84.465164 0.455799 -58.399853
v 87.120262 0.690358 -61.686169
v 84.465164 0.455799 -60.025154
v 89.432503 0.685071 -63.766426
v 85.818001 0.421491 -60.025154
v 89.432503 0.685071 -54.922546
v 89.270325 0.783241 -56.743187
v 92.303871 0.880869 -54.922546
v 89.270325 0.783241 -60.025154
v 89.432503 0.685071 -58.399853
v 87.120262 0.690358 -47.491714
v 98.797714 -2.304443 -56.451199
v 92.240799 -2.079324 -56.743187
v 92.303871 0.880869 -43.467003
v 89.529671 5.359427 -39.210690
v 90.397774 5.530073 -43.467003
v 89.529671 5.359427 -43.236950
v 89.446205 -2.023681 -45.400684
v 94.254524 -5.821934 -41.551304
v 95.878403 -5.827322 -45.400684
v 94.254524 -5.821934 -47.491714
v 98.797714 -2.304443 -47.598824
v 98.634666 5.634778 -45.505150
v 94.250465 8.346004 -47.491714
v 98.797714 -2.304443 -41.551304
v 95.878403 -5.827322 -47.598824
v 98.634666 5.634778 -43.783489
v 101.111351 5.987759 -47.598824
v 98.634666 5.634778 -44.058449
v 102.428032 1.772764 -48.140198
v 99.899361 1.665168 -43.236950
v 89.446205 -2.023681 -39.237988
v 90.403015 -1.890750 -39.210690
v 90.397774 5.530073 -39.237988
v 90.403015 -1.890750 -43.236950
v 89.446205 -2.023681 -45.400684
v 94.254524 -5.821934 -45.505150
v 94.250465 8.346004 -41.475178
v 95.842346 8.427883 -43.783489
v 101.111351 5.987759 -41.475178
v 95.842346 8.427883 -45.505150
v 94.250465 8.346004 -43.467003
v 89.529671 5.359427 -39.237988
v 90.403015 -1.890750 -41.551304
v 95.878403 -5.827322 -39.237988
v 90.403015 -1.890750 -40.689640
v 95.977829 -3.671476 -41.551304
v 95.878403 -5.827322 -43.663235
v 101.132668 -2.442229 -41.551304
v 95.878403 -5.827322 -42.536224
v 100.567612 -1.438229 -40.689640
v 95.977829 -3.671476 -38.855453
v 91.636520 -0.995741 -39.210690
v 90.397774 5.530073 -39.237988
v 90.403015 -1.890750 -39.210690
v 90.397774 5.530073 -38.855453
v 91.636520 -0.995741 -43.783489
v 101.111351 5.987759 -41.475178
v 95.842346 8.427883 -43.783489
v 101.111351 5.987759 -40.629276
v 95.949226 7.131254 -38.833805
v 91.632355 4.806155 -41.475178
v 95.842346 8.427883 -39.210690
v 90.397774 5.530073 -41.475178
v 95.842346 8.427883 -38.833805
v 91.632355 4.806155 -40.629276
v 95.949226 7.131254 -38.833805
v 91.632355 4.806155 -38.855453
v 91.636520 -0.995741 -32.350132
v 93.474464 -1.375215 -38.833805
v 91.632355 4.806155 -32.350132
v 93.474464 -1.375215 -38.855453
v 91.636520 -0.995741 -40.689640
v 95.977829 -3.671476 -34.849129
v 98.988373 -5.347973 -38.855453
v 91.636520 -0.995741 -34.849129
v 98.988373 -5.347973 -40.689640
v 95.977829 -3.671476 -42.536224
v 100.567612 -1.438229 -37.030422
v 104.136169 -2.434642 -40.689640
v 95.977829 -3.671476 -42.631565
v 100.550728 5.173384 -40.629276
v 95.949226 7.131254 -34.769257
v 98.953896 8.744481 -42.631565
v 100.550728 5.173384 -37.030422
v 104.136169 -2.434642 -42.536224
v 100.567612 -1.438229 -42.631565
v 100.550728 5.173384 -34.769257
v 98.953896 8.744481 -40.629276
v 95.949226 7.131254 -32.321724
v 93.470001 5.214280 -38.833805
v 91.632355 4.806155 -32.321724
v 93.470001 5.214280 -40.629276
v 95.949226 7.131254 -37.153976
v 104.109924 6.190385 -37.030422
v 104.136169 -2.434642 -42.631565
v 100.550728 5.173384 -32.321724
v 93.470001 5.214280 -32.350132
v 93.474464 -1.375215 -38.233925
v 97.288559 1.834943 -32.350132
v 93.474464 -1.375215 -34.849129
v 98.988373 -5.347973 -38.233925
v 97.288559 1.834943 -34.849129
v 98.988373 -5.347973 -37.030422
v 104.136169 -2.434642 -38.233925
v 97.288559 1.834943 -37.153976
v 104.109924 6.190385 -34.769257
v 98.953896 8.744481 -38.233925
v 97.288559 1.834943 -37.030422
v 104.136169 -2.434642 -37.153976
v 104.109924 6.190385 -38.233925
v 97.288559 1.834943 -34.769257
v 98.953896 8.744481 -32.321724
v 93.470001 5.214280 -43.663235
v 101.132668 -2.442229 -44.058449
v 102.428032 1.772764 -44.058449
v 102.428032 1.772764 -44.058449
v 102.428032 1.772764 -47.491714
v 98.797714 -2.304443 -44.058449
v 102.428032 1.772764 -43.663235
v 101.132668 -2.442229 -44.058449
v 102.428032 1.772764 -47.491714
v 98.797714 -2.304443 -48.140198
v 99.899361 1.665168 -41.633293
v 103.019691 5.203609 -44.058449
v 102.428032 1.772764 -43.783489
v 101.111351 5.987759 -44.058449
v 102.428032 1.772764 -39.748325
v 104.583611 -0.079121 -41.493259
v 103.044487 -1.555097 -44.058449
v 102.428032 1.772764 -39.857780
v 104.564224 3.806103 -39.023117
v 105.266434 1.862896 -42.631565
v 100.550728 5.173384 -41.633293
v 103.019691 5.203609 -43.783489
v 101.111351 5.987759 -41.493259
v 103.044487 -1.555097 -42.536224
v 100.567612 -1.438229 -43.663235
v 101.132668 -2.442229 -42.536224
v 100.567612 -1.438229 -41.493259
v 103.044487 -1.555097 -41.574966
v 103.023308 1.864118 -41.633293
v 103.019691 5.203609 -42.631565
v 100.550728 5.173384 -41.574966
v 103.023308 1.864118 -42.631565
v 100.550728 5.173384 -42.536224
v 100.567612 -1.438229 -41.574966
v 103.023308 1.864118 -41.493259
v 103.044487 -1.555097 -39.748325
v 104.583611 -0.079121 -39.023117
v 105.266434 1.862896 -41.574966
v 103.023308 1.864118 -39.748325
v 104.583611 -0.079121 -39.857780
v 104.564224 3.806103 -41.574966
v 103.023308 1.864118 -39.023117
v 105.266434 1.862896 -41.633293
v 103.019691 5.203609 -41.574966
v 103.023308 1.864118 -39.857780
v 104.564224 3.806103 -48.140198
v 99.899361 1.665168 -56.743187
v 92.303871 0.880869 -47.598824
v 98.634666 5.634778 0.284180

vt 0.476017 0.587516
vt 0.476088 0.009366
vt 0.476292 0.468737
vt 0.476102 0.154455
vt 0.476304 0.282828
vt 0.476189 0.020004
vt 0.591517 0.516971
vt 0.676276 0.854945
vt 0.723666 0.187244
vt 0.724800 0.937182
vt 0.715234 0.892582
vt 0.712371 0.996214
vt 0.650309 0.953450
vt 0.584429 0.572263
vt 0.542034 0.783235
vt 0.593174 0.842668
vt 0.616960 0.905344
vt 0.635690 0.949951
vt 0.674700 0.252750
vt 0.706495 0.127504
vt 0.586858 0.194218
vt 0.622553 0.058640
vt 0.753160 0.076758
vt 0.678877 0.698814
vt 0.735612 0.377872
vt 0.698865 0.677269
vt 0.544900 0.258428
vt 0.797975 0.203988
vt 0.807763 0.669498
vt 0.816522 0.394510
vt 0.790543 0.263368
vt 0.894111 0.252278
vt 0.951597 0.423708
vt 0.947548 0.404317
vt 0.896028 0.575585
vt 0.676103 0.310548
vt 0.702023 0.316952
vt 0.797629 0.313091
vt 0.900080 0.457123
vt 0.686108 0.451564
vt 0.779246 0.454500
vt 0.880646 0.759319
vt 0.758581 0.738027
vt 0.841196 0.303554
vt 0.957716 0.635815
vt 0.705062 0.618200
vt 0.791759 0.473545
vt 0.936136 0.525983
vt 0.833047 0.563255
vt 0.810945 0.566102
vt 0.743396 0.516400
vt 0.747386 0.672518
vt 0.819933 0.390703
vt 0.794452 0.648697
vt 0.908577 0.400376
vt 0.918892 0.330887
vt 0.801687 0.346045
vt 0.925023 0.467530
vt 0.765274 0.484535
vt 0.850200 0.730149
vt 0.841147 0.699449
vt 0.927583 0.616082
vt 0.772660 0.597692
vt 0.835192 0.730033
vt 0.383419 0.008014
vt 0.383661 0.469003
vt 0.383438 0.159634
vt 0.383680 0.282931
vt 0.383529 0.591986
vt 0.383437 0.597494
vt 0.349688 0.483585
vt 0.349723 0.868609
vt 0.247120 0.588074
vt 0.248132 0.450857
vt 0.248131 0.141662
vt 0.248093 0.273451
vt 0.248126 0.018914
vt 0.350156 0.268170
vt 0.349920 0.730530
vt 0.349702 0.151018
vt 0.350110 0.033454
vt 0.886374 0.739198
vt 0.248248 0.338677
vt 0.281821 0.416612
vt 0.282989 0.377298
vt 0.268128 0.306092
vt 0.328917 0.448940
vt 0.327760 0.377431
vt 0.476145 0.377287
vt 0.381951 0.918669
vt 0.807087 0.715820
vt 0.476017 0.587516
vt 0.476088 0.009366
vt 0.476292 0.468737
vt 0.476102 0.154455
vt 0.476304 0.282828
vt 0.476189 0.020004
vt 0.591517 0.516971
vt 0.676276 0.854945
vt 0.723666 0.187244
vt 0.724800 0.937182
vt 0.715234 0.892582
vt 0.712371 0.996214
vt 0.650309 0.953450
vt 0.584429 0.572263
vt 0.542034 0.783235
vt 0.593174 0.842668
vt 0.616960 0.905344
vt 0.635690 0.949951
vt 0.674700 0.252750
vt 0.706495 0.127504
vt 0.586858 0.194218
vt 0.622553 0.058640
vt 0.753160 0.076758
vt 0.678877 0.698814
vt 0.735612 0.377872
vt 0.698865 0.677269
vt 0.544900 0.258428
vt 0.797975 0.203988
vt 0.807763 0.669498
vt 0.816522 0.394510
vt 0.790543 0.263368
vt 0.894111 0.252278
vt 0.951597 0.423708
vt 0.947548 0.404317
vt 0.896028 0.575585
vt 0.676103 0.310548
vt 0.702023 0.316952
vt 0.797629 0.313091
vt 0.900080 0.457123
vt 0.686108 0.451564
vt 0.779246 0.454500
vt 0.880646 0.759319
vt 0.758581 0.738027
vt 0.841196 0.303554
vt 0.957716 0.635815
vt 0.705062 0.618200
vt 0.791759 0.473545
vt 0.936136 0.525983
vt 0.833047 0.563255
vt 0.810945 0.566102
vt 0.743396 0.516400
vt 0.747386 0.672518
vt 0.819933 0.390703
vt 0.794452 0.648697
vt 0.908577 0.400376
vt 0.918892 0.330887
vt 0.801687 0.346045
vt 0.925023 0.467530
vt 0.765274 0.484535
vt 0.850200 0.730149
vt 0.841147 0.699449
vt 0.927583 0.616082
vt 0.772660 0.597692
vt 0.835192 0.730033
vt 0.383419 0.008014
vt 0.383661 0.469003
vt 0.383438 0.159634
vt 0.383680 0.282931
vt 0.383529 0.591986
vt 0.383437 0.597494
vt 0.349688 0.483585
vt 0.349723 0.868609
vt 0.247120 0.588074
vt 0.248132 0.450857
vt 0.248131 0.141662
vt 0.248093 0.273451
vt 0.248126 0.018914
vt 0.350156 0.268170
vt 0.349920 0.730530
vt 0.349702 0.151018
vt 0.350110 0.033454
vt 0.886374 0.739198
vt 0.248248 0.338677
vt 0.281821 0.416612
vt 0.282989 0.377298
vt 0.268128 0.306092
vt 0.328917 0.448940
vt 0.327760 0.377431
vt 0.476145 0.377287
vt 0.381951 0.918669
vt 0.807087 0.572263
vt 0.542034 0.516971
vt 0.676276 0.468737
vt 0.476102 0.572263
vt 0.542034 0.572263
vt 0.542034 0.575585
vt 0.676103 0.879039
vt 0.476090 0.937182
vt 0.715234 0.905344
vt 0.635690 0.905344
vt 0.635690 0.892582
vt 0.712371 0.905344
vt 0.635690 0.854945
vt 0.723666 0.842668
vt 0.616960 0.842668
vt 0.616960 0.854945
vt 0.723666 0.783235
vt 0.593174 0.905344
vt 0.635690 0.949951
vt 0.674700 0.949951
vt 0.674700 0.953450
vt 0.584429 0.842668
vt 0.616960 0.913465
vt 0.533239 0.953450
vt 0.584429 0.913465
vt 0.533239 0.842668
vt 0.616960 0.879039
vt 0.476090 0.783235
vt 0.593174 0.468737
vt 0.476102 0.148181
vt 0.676945 0.194218
vt 0.622553 0.194218
vt 0.622553 0.252750
vt 0.706495 0.016437
vt 0.739979 0.021746
vt 0.662916 0.058640
vt 0.753160 0.021746
vt 0.662916 0.021746
vt 0.662916 0.020004
vt 0.591517 0.076758
vt 0.678877 0.127504
vt 0.586858 0.076758
vt 0.678877 0.020004
vt 0.591517 0.282828
vt 0.476189 0.127504
vt 0.586858 0.154455
vt 0.476304 0.194218
vt 0.622553 0.127504
vt 0.586858 0.282828
vt 0.476189 0.119588
vt 0.707102 0.076758
vt 0.678877 0.148181
vt 0.676945 0.127504
vt 0.586858 0.148181
vt 0.676945 0.076758
vt 0.678877 0.103955
vt 0.756152 0.058640
vt 0.753160 0.119588
vt 0.707102 0.076758
vt 0.678877 0.119588
vt 0.707102 0.058640
vt 0.753160 0.154455
vt 0.476304 0.127504
vt 0.586858 0.020004
vt 0.591517 0.468737
vt 0.476102 0.516971
vt 0.676276 0.457123
vt 0.686108 0.058640
vt 0.753160 0.042655
vt 0.801655 0.016437
vt 0.739979 0.194218
vt 0.622553 0.187244
vt 0.724800 0.148181
vt 0.676945 0.006115
vt 0.793538 0.016437
vt 0.739979 0.042655
vt 0.801655 0.905344
vt 0.635690 0.842668
vt 0.616960 0.953450
vt 0.584429 0.263368
vt 0.894111 0.303554
vt 0.957716 0.252750
vt 0.706495 0.282828
vt 0.476189 0.377872
vt 0.698865 0.282828
vt 0.476189 0.879039
vt 0.476090 0.783235
vt 0.593174 0.677269
vt 0.544900 0.715820
vt 0.476017 0.783235
vt 0.593174 0.575585
vt 0.676103 0.783235
vt 0.593174 0.783235
vt 0.593174 0.698814
vt 0.735612 0.635815
vt 0.705062 0.759319
vt 0.758581 0.783235
vt 0.593174 0.854945
vt 0.723666 0.854945
vt 0.723666 0.825677
vt 0.780584 0.759319
vt 0.758581 0.252750
vt 0.706495 0.187244
vt 0.724800 0.187244
vt 0.724800 0.258428
vt 0.797975 0.759319
vt 0.758581 0.825677
vt 0.780584 0.795380
vt 0.860523 0.795380
vt 0.860523 0.759319
vt 0.758581 0.258428
vt 0.797975 0.263368
vt 0.894111 0.213215
vt 0.877939 0.213215
vt 0.877939 0.203988
vt 0.807763 0.258428
vt 0.797975 0.738027
vt 0.841196 0.795380
vt 0.860523 0.770275
vt 0.927375 0.770275
vt 0.927375 0.718500
vt 0.913672 0.738027
vt 0.841196 0.423708
vt 0.947548 0.454500
vt 0.880646 0.698814
vt 0.735612 0.618200
vt 0.791759 0.635815
vt 0.705062 0.698814
vt 0.735612 0.669498
vt 0.816522 0.649390
vt 0.887037 0.603494
vt 0.860624 0.603494
vt 0.860624 0.618200
vt 0.791759 0.669498
vt 0.816522 0.587516
vt 0.476088 0.677269
vt 0.544900 0.572263
vt 0.542034 0.677269
vt 0.544900 0.587516
vt 0.476088 0.715820
vt 0.476017 0.575585
vt 0.676103 0.677269
vt 0.544900 0.783235
vt 0.593174 0.258428
vt 0.797975 0.252750
vt 0.706495 0.310548
vt 0.702023 0.310548
vt 0.702023 0.258428
vt 0.797975 0.263368
vt 0.894111 0.258428
vt 0.797975 0.316952
vt 0.797629 0.316952
vt 0.797629 0.313091
vt 0.900080 0.263368
vt 0.894111 0.377872
vt 0.698865 0.377872
vt 0.698865 0.457123
vt 0.686108 0.451564
vt 0.779246 0.454500
vt 0.880646 0.404317
vt 0.896028 0.394510
vt 0.790543 0.394510
vt 0.790543 0.451564
vt 0.779246 0.454500
vt 0.880646 0.976506
vt 0.123731 0.913552
vt 0.129270 0.914746
vt 0.214382 0.914746
vt 0.214382 0.970660
vt 0.236558 0.976506
vt 0.123731 0.976506
vt 0.123731 0.976507
vt 0.035586 0.903999
vt 0.048584 0.903999
vt 0.048584 0.913552
vt 0.129270 0.976506
vt 0.123731 0.976506
vt 0.123731 0.913552
vt 0.129270 0.914746
vt 0.214382 0.914746
vt 0.214382 0.970660
vt 0.236558 0.976506
vt 0.123731 0.976506
vt 0.123731 0.976507
vt 0.035586 0.903999
vt 0.048584 0.903999
vt 0.048584 0.913552
vt 0.129270 0.976506
vt 0.123731 0.976506
vt 0.123731 0.970660
vt 0.236558 0.914746
vt 0.214382 0.914746
vt 0.214382 0.913552
vt 0.129270 0.976506
vt 0.123731 0.903999
vt 0.048584 0.976507
vt 0.035586 0.976506
vt 0.123731 0.976506
vt 0.123731 0.913552
vt 0.129270 0.903999
vt 0.048584 0.377872
vt 0.698865 0.330887
vt 0.801687 0.310548
vt 0.702023 0.377872
vt 0.698865 0.390703
vt 0.794452 0.346045
vt 0.925023 0.330887
vt 0.801687 0.390703
vt 0.794452 0.575585
vt 0.676103 0.516400
vt 0.747386 0.516971
vt 0.676276 0.575585
vt 0.676103 0.457123
vt 0.686108 0.516971
vt 0.676276 0.516400
vt 0.747386 0.516400
vt 0.747386 0.457123
vt 0.686108 0.566102
vt 0.743396 0.525983
vt 0.833047 0.516400
vt 0.747386 0.566102
vt 0.743396 0.467530
vt 0.765274 0.516400
vt 0.747386 0.525983
vt 0.833047 0.525983
vt 0.833047 0.467530
vt 0.765274 0.698814
vt 0.735612 0.698814
vt 0.735612 0.759319
vt 0.758581 0.730149
vt 0.841147 0.672518
vt 0.819933 0.672518
vt 0.819933 0.730149
vt 0.841147 0.699449
vt 0.927583 0.346045
vt 0.925023 0.400376
vt 0.918892 0.405070
vt 0.984697 0.405070
vt 0.984697 0.351620
vt 0.991025 0.346045
vt 0.925023 0.566102
vt 0.743396 0.575585
vt 0.676103 0.635815
vt 0.705062 0.635815
vt 0.705062 0.566102
vt 0.743396 0.563255
vt 0.810945 0.566102
vt 0.743396 0.616082
vt 0.772660 0.616082
vt 0.772660 0.563255
vt 0.810945 0.525983
vt 0.833047 0.548571
vt 0.882463 0.506519
vt 0.899917 0.506519
vt 0.899917 0.484535
vt 0.850200 0.525983
vt 0.833047 0.976506
vt 0.123731 0.970660
vt 0.236558 0.914746
vt 0.214382 0.914746
vt 0.214382 0.913552
vt 0.129270 0.976506
vt 0.123731 0.903999
vt 0.048584 0.976507
vt 0.035586 0.976506
vt 0.123731 0.976506
vt 0.123731 0.913552
vt 0.129270 0.903999
vt 0.048584 0.976506
vt 0.123731 0.970660
vt 0.236558 0.914746
vt 0.214382 0.914746
vt 0.214382 0.913552
vt 0.129270 0.976506
vt 0.123731 0.903999
vt 0.048584 0.976507
vt 0.035586 0.976506
vt 0.123731 0.976506
vt 0.123731 0.913552
vt 0.129270 0.903999
vt 0.048584 0.976506
vt 0.123731 0.913552
vt 0.129270 0.914746
vt 0.214382 0.914746
vt 0.214382 0.970660
vt 0.236558 0.976506
vt 0.123731 0.976506
vt 0.123731 0.976507
vt 0.035586 0.903999
vt 0.048584 0.903999
vt 0.048584 0.913552
vt 0.129270 0.976506
vt 0.123731 0.282828
vt 0.476189 0.377872
vt 0.698865 0.310548
vt 0.702023 0.715820
vt 0.476017 0.730033
vt 0.383419 0.879039
vt 0.476090 0.715820
vt 0.476017 0.154455
vt 0.476304 0.159634
vt 0.383680 0.282828
vt 0.476189 0.154455
vt 0.476304 0.587516
vt 0.476088 0.468737
vt 0.476102 0.282828
vt 0.476189 0.159634
vt 0.383680 0.469003
vt 0.383438 0.468737
vt 0.476102 0.468737
vt 0.476102 0.377431
vt 0.476145 0.377287
vt 0.381951 0.879039
vt 0.476090 0.730033
vt 0.383419 0.890970
vt 0.383448 0.008014
vt 0.383661 0.154455
vt 0.476304 0.009366
vt 0.476292 0.587516
vt 0.476088 0.469003
vt 0.383438 0.591986
vt 0.383437 0.591986
vt 0.383437 0.715820
vt 0.476017 0.587516
vt 0.476088 0.159634
vt 0.383680 0.008014
vt 0.383661 0.008014
vt 0.383661 0.151018
vt 0.350110 0.282931
vt 0.383529 0.159634
vt 0.383680 0.159634
vt 0.383680 0.151018
vt 0.350110 0.268170
vt 0.349920 0.869027
vt 0.349716 0.890970
vt 0.383448 0.730033
vt 0.383419 0.730033
vt 0.383419 0.869027
vt 0.349716 0.591986
vt 0.383437 0.469003
vt 0.383438 0.469003
vt 0.383438 0.597494
vt 0.349688 0.730530
vt 0.349702 0.730033
vt 0.383419 0.591986
vt 0.383437 0.591986
vt 0.383437 0.597494
vt 0.349688 0.730530
vt 0.349702 0.878083
vt 0.126776 0.730763
vt 0.126805 0.878083
vt 0.126776 0.739198
vt 0.248248 0.739198
vt 0.248248 0.730763
vt 0.126805 0.588066
vt 0.126818 0.730763
vt 0.126805 0.588074
vt 0.248132 0.588074
vt 0.248132 0.588066
vt 0.126818 0.450290
vt 0.126820 0.588066
vt 0.126818 0.450857
vt 0.248131 0.273691
vt 0.126819 0.142363
vt 0.126798 0.273691
vt 0.126819 0.141662
vt 0.248093 0.450857
vt 0.248131 0.273691
vt 0.126819 0.450290
vt 0.126820 0.141662
vt 0.248093 0.008309
vt 0.246491 0.142363
vt 0.126798 0.013640
vt 0.126765 0.142363
vt 0.126798 0.008309
vt 0.246491 0.273451
vt 0.248126 0.273691
vt 0.126819 0.450857
vt 0.248131 0.172874
vt 0.803073 0.172874
vt 0.803073 0.033454
vt 0.886374 0.174165
vt 0.886246 0.172874
vt 0.803073 0.033454
vt 0.886374 0.174158
vt 0.965495 0.174165
vt 0.886246 0.033454
vt 0.886374 0.174165
vt 0.886246 0.174158
vt 0.965495 0.033454
vt 0.886374 0.174158
vt 0.965495 0.174158
vt 0.965495 0.033454
vt 0.886374 0.172874
vt 0.803073 0.174165
vt 0.886246 0.377287
vt 0.381951 0.282931
vt 0.383529 0.377287
vt 0.381951 0.377287
vt 0.381951 0.282828
vt 0.476189 0.282931
vt 0.383529 0.377287
vt 0.381951 0.377287
vt 0.381951 0.377431
vt 0.476145 0.282828
vt 0.476189 0.448940
vt 0.327760 0.469003
vt 0.383438 0.377287
vt 0.381951 0.377287
vt 0.381951 0.306092
vt 0.328917 0.338677
vt 0.281821 0.377287
vt 0.381951 0.377298
vt 0.268128 0.416612
vt 0.282989 0.882375
vt 0.783667 0.873947
vt 0.774339 0.881725
vt 0.805122 0.956486
vt 0.809401 0.967221
vt 0.779084 0.955528
vt 0.787400 0.956486
vt 0.809401 0.955528
vt 0.787400 0.918669
vt 0.807087 0.882375
vt 0.783667 0.881725
vt 0.805122 0.918669
vt 0.807087 0.955528
vt 0.787400 0.882375
vt 0.783667 0.918669
vt 0.807087 0.939411
vt 0.833477 0.956486
vt 0.809401 0.917608
vt 0.843141 0.939411
vt 0.833477 0.918669
vt 0.807087 0.896448
vt 0.830702 0.917608
vt 0.843141 0.918669
vt 0.807087 0.881725
vt 0.805122 0.896448
vt 0.830702 0.918669
vt 0.807087 0.377431
vt 0.476145 0.468737
vt 0.476102 0.377872
vt 0.698865 0.572263
vt 0.542034 0.516971
vt 0.676276 0.572263
vt 0.542034 0.468737
vt 0.476102 0.572263
vt 0.542034 0.575585
vt 0.676103 0.879039
vt 0.476090 0.905344
vt 0.635690 0.937182
vt 0.715234 0.892582
vt 0.712371 0.905344
vt 0.635690 0.905344
vt 0.635690 0.842668
vt 0.616960 0.854945
vt 0.723666 0.842668
vt 0.616960 0.783235
vt 0.593174 0.854945
vt 0.723666 0.905344
vt 0.635690 0.949951
vt 0.674700 0.953450
vt 0.584429 0.949951
vt 0.674700 0.842668
vt 0.616960 0.953450
vt 0.584429 0.913465
vt 0.533239 0.913465
vt 0.533239 0.879039
vt 0.476090 0.842668
vt 0.616960 0.783235
vt 0.593174 0.468737
vt 0.476102 0.148181
vt 0.676945 0.194218
vt 0.622553 0.252750
vt 0.706495 0.194218
vt 0.622553 0.016437
vt 0.739979 0.021746
vt 0.662916 0.021746
vt 0.662916 0.058640
vt 0.753160 0.021746
vt 0.662916 0.076758
vt 0.678877 0.020004
vt 0.591517 0.127504
vt 0.586858 0.020004
vt 0.591517 0.076758
vt 0.678877 0.282828
vt 0.476189 0.154455
vt 0.476304 0.127504
vt 0.586858 0.194218
vt 0.622553 0.282828
vt 0.476189 0.127504
vt 0.586858 0.119588
vt 0.707102 0.148181
vt 0.676945 0.076758
vt 0.678877 0.127504
vt 0.586858 0.076758
vt 0.678877 0.148181
vt 0.676945 0.103955
vt 0.756152 0.119588
vt 0.707102 0.058640
vt 0.753160 0.076758
vt 0.678877 0.058640
vt 0.753160 0.119588
vt 0.707102 0.154455
vt 0.476304 0.020004
vt 0.591517 0.127504
vt 0.586858 0.468737
vt 0.476102 0.457123
vt 0.686108 0.516971
vt 0.676276 0.058640
vt 0.753160 0.016437
vt 0.739979 0.042655
vt 0.801655 0.194218
vt 0.622553 0.148181
vt 0.676945 0.187244
vt 0.724800 0.006115
vt 0.793538 0.042655
vt 0.801655 0.016437
vt 0.739979 0.905344
vt 0.635690 0.953450
vt 0.584429 0.842668
vt 0.616960 0.263368
vt 0.894111 0.303554
vt 0.957716 0.282828
vt 0.476189 0.252750
vt 0.706495 0.282828
vt 0.476189 0.377872
vt 0.698865 0.783235
vt 0.593174 0.879039
vt 0.476090 0.677269
vt 0.544900 0.783235
vt 0.593174 0.715820
vt 0.476017 0.783235
vt 0.593174 0.575585
vt 0.676103 0.783235
vt 0.593174 0.635815
vt 0.705062 0.698814
vt 0.735612 0.759319
vt 0.758581 0.854945
vt 0.723666 0.783235
vt 0.593174 0.854945
vt 0.723666 0.759319
vt 0.758581 0.825677
vt 0.780584 0.252750
vt 0.706495 0.187244
vt 0.724800 0.258428
vt 0.797975 0.187244
vt 0.724800 0.759319
vt 0.758581 0.795380
vt 0.860523 0.825677
vt 0.780584 0.795380
vt 0.860523 0.759319
vt 0.758581 0.258428
vt 0.797975 0.213215
vt 0.877939 0.263368
vt 0.894111 0.213215
vt 0.877939 0.258428
vt 0.797975 0.203988
vt 0.807763 0.738027
vt 0.841196 0.770275
vt 0.927375 0.795380
vt 0.860523 0.770275
vt 0.927375 0.738027
vt 0.841196 0.718500
vt 0.913672 0.423708
vt 0.947548 0.454500
vt 0.880646 0.698814
vt 0.735612 0.618200
vt 0.791759 0.698814
vt 0.735612 0.635815
vt 0.705062 0.669498
vt 0.816522 0.603494
vt 0.860624 0.649390
vt 0.887037 0.603494
vt 0.860624 0.669498
vt 0.816522 0.618200
vt 0.791759 0.587516
vt 0.476088 0.572263
vt 0.542034 0.677269
vt 0.544900 0.677269
vt 0.544900 0.715820
vt 0.476017 0.587516
vt 0.476088 0.575585
vt 0.676103 0.783235
vt 0.593174 0.677269
vt 0.544900 0.258428
vt 0.797975 0.310548
vt 0.702023 0.252750
vt 0.706495 0.310548
vt 0.702023 0.258428
vt 0.797975 0.263368
vt 0.894111 0.316952
vt 0.797629 0.258428
vt 0.797975 0.316952
vt 0.797629 0.263368
vt 0.894111 0.313091
vt 0.900080 0.377872
vt 0.698865 0.377872
vt 0.698865 0.451564
vt 0.779246 0.457123
vt 0.686108 0.454500
vt 0.880646 0.394510
vt 0.790543 0.404317
vt 0.896028 0.394510
vt 0.790543 0.454500
vt 0.880646 0.451564
vt 0.779246 0.976506
vt 0.123731 0.914746
vt 0.214382 0.913552
vt 0.129270 0.914746
vt 0.214382 0.976506
vt 0.123731 0.970660
vt 0.236558 0.976506
vt 0.123731 0.903999
vt 0.048584 0.976507
vt 0.035586 0.903999
vt 0.048584 0.976506
vt 0.123731 0.913552
vt 0.129270 0.976506
vt 0.123731 0.914746
vt 0.214382 0.913552
vt 0.129270 0.914746
vt 0.214382 0.976506
vt 0.123731 0.970660
vt 0.236558 0.976506
vt 0.123731 0.903999
vt 0.048584 0.976507
vt 0.035586 0.903999
vt 0.048584 0.976506
vt 0.123731 0.913552
vt 0.129270 0.976506
vt 0.123731 0.914746
vt 0.214382 0.970660
vt 0.236558 0.914746
vt 0.214382 0.976506
vt 0.123731 0.913552
vt 0.129270 0.903999
vt 0.048584 0.976506
vt 0.123731 0.976507
vt 0.035586 0.976506
vt 0.123731 0.903999
vt 0.048584 0.913552
vt 0.129270 0.377872
vt 0.698865 0.330887
vt 0.801687 0.377872
vt 0.698865 0.310548
vt 0.702023 0.390703
vt 0.794452 0.346045
vt 0.925023 0.390703
vt 0.794452 0.330887
vt 0.801687 0.575585
vt 0.676103 0.516400
vt 0.747386 0.575585
vt 0.676103 0.516971
vt 0.676276 0.457123
vt 0.686108 0.516400
vt 0.747386 0.516971
vt 0.676276 0.516400
vt 0.747386 0.457123
vt 0.686108 0.566102
vt 0.743396 0.525983
vt 0.833047 0.566102
vt 0.743396 0.516400
vt 0.747386 0.467530
vt 0.765274 0.525983
vt 0.833047 0.516400
vt 0.747386 0.525983
vt 0.833047 0.467530
vt 0.765274 0.698814
vt 0.735612 0.698814
vt 0.735612 0.730149
vt 0.841147 0.759319
vt 0.758581 0.672518
vt 0.819933 0.672518
vt 0.819933 0.699449
vt 0.927583 0.730149
vt 0.841147 0.346045
vt 0.925023 0.405070
vt 0.984697 0.400376
vt 0.918892 0.405070
vt 0.984697 0.346045
vt 0.925023 0.351620
vt 0.991025 0.566102
vt 0.743396 0.635815
vt 0.705062 0.575585
vt 0.676103 0.635815
vt 0.705062 0.566102
vt 0.743396 0.563255
vt 0.810945 0.616082
vt 0.772660 0.566102
vt 0.743396 0.616082
vt 0.772660 0.563255
vt 0.810945 0.525983
vt 0.833047 0.506519
vt 0.899917 0.548571
vt 0.882463 0.506519
vt 0.899917 0.525983
vt 0.833047 0.484535
vt 0.850200 0.976506
vt 0.123731 0.914746
vt 0.214382 0.970660
vt 0.236558 0.914746
vt 0.214382 0.976506
vt 0.123731 0.913552
vt 0.129270 0.903999
vt 0.048584 0.976506
vt 0.123731 0.976507
vt 0.035586 0.976506
vt 0.123731 0.903999
vt 0.048584 0.913552
vt 0.129270 0.976506
vt 0.123731 0.914746
vt 0.214382 0.970660
vt 0.236558 0.914746
vt 0.214382 0.976506
vt 0.123731 0.913552
vt 0.129270 0.903999
vt 0.048584 0.976506
vt 0.123731 0.976507
vt 0.035586 0.976506
vt 0.123731 0.903999
vt 0.048584 0.913552
vt 0.129270 0.976506
vt 0.123731 0.914746
vt 0.214382 0.913552
vt 0.129270 0.914746
vt 0.214382 0.976506
vt 0.123731 0.970660
vt 0.236558 0.976506
vt 0.123731 0.903999
vt 0.048584 0.976507
vt 0.035586 0.903999
vt 0.048584 0.976506
vt 0.123731 0.913552
vt 0.129270 0.282828
vt 0.476189 0.310548
vt 0.702023 0.377872
vt 0.698865 0.715820
vt 0.476017 0.730033
vt 0.383419 0.715820
vt 0.476017 0.879039
vt 0.476090 0.154455
vt 0.476304 0.159634
vt 0.383680 0.154455
vt 0.476304 0.282828
vt 0.476189 0.468737
vt 0.476102 0.587516
vt 0.476088 0.282828
vt 0.476189 0.159634
vt 0.383680 0.468737
vt 0.476102 0.469003
vt 0.383438 0.468737
vt 0.476102 0.377287
vt 0.381951 0.377431
vt 0.476145 0.879039
vt 0.476090 0.890970
vt 0.383448 0.730033
vt 0.383419 0.008014
vt 0.383661 0.009366
vt 0.476292 0.154455
vt 0.476304 0.587516
vt 0.476088 0.591986
vt 0.383437 0.469003
vt 0.383438 0.591986
vt 0.383437 0.587516
vt 0.476088 0.715820
vt 0.476017 0.008014
vt 0.383661 0.159634
vt 0.383680 0.008014
vt 0.383661 0.151018
vt 0.350110 0.159634
vt 0.383680 0.282931
vt 0.383529 0.159634
vt 0.383680 0.268170
vt 0.349920 0.151018
vt 0.350110 0.869027
vt 0.349716 0.730033
vt 0.383419 0.890970
vt 0.383448 0.730033
vt 0.383419 0.869027
vt 0.349716 0.469003
vt 0.383438 0.591986
vt 0.383437 0.469003
vt 0.383438 0.597494
vt 0.349688 0.730530
vt 0.349702 0.591986
vt 0.383437 0.730033
vt 0.383419 0.591986
vt 0.383437 0.730530
vt 0.349702 0.597494
vt 0.349688 0.878083
vt 0.126776 0.730763
vt 0.126805 0.739198
vt 0.248248 0.878083
vt 0.126776 0.739198
vt 0.248248 0.730763
vt 0.126805 0.588066
vt 0.126818 0.588074
vt 0.248132 0.730763
vt 0.126805 0.588074
vt 0.248132 0.588066
vt 0.126818 0.450290
vt 0.126820 0.450857
vt 0.248131 0.588066
vt 0.126818 0.273691
vt 0.126819 0.142363
vt 0.126798 0.141662
vt 0.248093 0.273691
vt 0.126819 0.450857
vt 0.248131 0.450290
vt 0.126820 0.273691
vt 0.126819 0.141662
vt 0.248093 0.142363
vt 0.126798 0.008309
vt 0.246491 0.013640
vt 0.126765 0.008309
vt 0.246491 0.142363
vt 0.126798 0.273451
vt 0.248126 0.450857
vt 0.248131 0.273691
vt 0.126819 0.172874
vt 0.803073 0.172874
vt 0.803073 0.033454
vt 0.886374 0.172874
vt 0.803073 0.174165
vt 0.886246 0.033454
vt 0.886374 0.174165
vt 0.886246 0.174158
vt 0.965495 0.033454
vt 0.886374 0.174158
vt 0.965495 0.174165
vt 0.886246 0.033454
vt 0.886374 0.174158
vt 0.965495 0.174158
vt 0.965495 0.033454
vt 0.886374 0.174165
vt 0.886246 0.172874
vt 0.803073 0.282931
vt 0.383529 0.377287
vt 0.381951 0.377287
vt 0.381951 0.377287
vt 0.381951 0.282828
vt 0.476189 0.377287
vt 0.381951 0.282931
vt 0.383529 0.377287
vt 0.381951 0.282828
vt 0.476189 0.377431
vt 0.476145 0.448940
vt 0.327760 0.377287
vt 0.381951 0.469003
vt 0.383438 0.377287
vt 0.381951 0.338677
vt 0.281821 0.306092
vt 0.328917 0.377287
vt 0.381951 0.416612
vt 0.282989 0.377298
vt 0.268128 0.882375
vt 0.783667 0.881725
vt 0.805122 0.873947
vt 0.774339 0.956486
vt 0.809401 0.955528
vt 0.787400 0.967221
vt 0.779084 0.955528
vt 0.787400 0.956486
vt 0.809401 0.918669
vt 0.807087 0.881725
vt 0.805122 0.882375
vt 0.783667 0.918669
vt 0.807087 0.882375
vt 0.783667 0.955528
vt 0.787400 0.918669
vt 0.807087 0.956486
vt 0.809401 0.939411
vt 0.833477 0.917608
vt 0.843141 0.918669
vt 0.807087 0.939411
vt 0.833477 0.896448
vt 0.830702 0.918669
vt 0.807087 0.917608
vt 0.843141 0.881725
vt 0.805122 0.918669
vt 0.807087 0.896448
vt 0.830702 0.377431
vt 0.476145 0.377872
vt 0.698865 0.468737
vt 0.476102 1.000000

f 15/15 4/4 2/2
f 36/36 8/8 183/183
f 184/184 185/185 186/186
f 3/3 5/5 7/7
f 187/187 27/27 188/188
f 17/17 16/16 189/189
f 12/12 18/18 11/11
f 19/19 190/190 191/191
f 9/9 192/192 193/193
f 194/194 195/195 196/196
f 197/197 198/198 199/199
f 200/200 14/14 201/201
f 13/13 202/202 203/203
f 204/204 205/205 206/206
f 207/207 208/208 209/209
f 43/43 25/25 210/210
f 211/211 40/40 26/26
f 21/21 22/22 212/212
f 20/20 213/213 6/6
f 10/10 214/214 215/215
f 216/216 217/217 23/23
f 24/24 218/218 219/219
f 220/220 221/221 222/222
f 223/223 224/224 225/225
f 226/226 227/227 228/228
f 229/229 230/230 231/231
f 232/232 233/233 234/234
f 235/235 236/236 237/237
f 238/238 239/239 240/240
f 241/241 242/242 243/243
f 244/244 245/245 246/246
f 247/247 248/248 249/249
f 250/250 251/251 252/252
f 253/253 254/254 255/255
f 256/256 257/257 258/258
f 259/259 260/260 261/261
f 45/45 33/33 32/32
f 262/262 39/39 263/263
f 37/37 264/264 265/265
f 89/89 266/266 267/267
f 1/1 268/268 269/269
f 270/270 271/271 272/272
f 46/46 273/273 274/274
f 275/275 276/276 277/277
f 278/278 279/279 280/280
f 281/281 282/282 283/283
f 284/284 28/28 285/285
f 29/29 286/286 287/287
f 288/288 289/289 290/290
f 291/291 44/44 292/292
f 293/293 294/294 295/295
f 296/296 297/297 298/298
f 299/299 300/300 301/301
f 302/302 303/303 304/304
f 42/42 48/48 34/34
f 305/305 35/35 306/306
f 307/307 30/30 47/47
f 308/308 309/309 310/310
f 311/311 312/312 313/313
f 314/314 315/315 316/316
f 317/317 318/318 319/319
f 320/320 321/321 322/322
f 323/323 324/324 325/325
f 326/326 327/327 328/328
f 329/329 38/38 330/330
f 331/331 332/332 333/333
f 334/334 335/335 336/336
f 41/41 31/31 337/337
f 338/338 339/339 340/340
f 341/341 342/342 343/343
f 344/344 345/345 346/346
f 347/347 348/348 349/349
f 350/350 351/351 352/352
f 353/353 354/354 355/355
f 356/356 357/357 358/358
f 359/359 360/360 361/361
f 362/362 363/363 364/364
f 365/365 366/366 367/367
f 368/368 369/369 370/370
f 371/371 372/372 373/373
f 374/374 375/375 376/376
f 377/377 378/378 379/379
f 380/380 381/381 382/382
f 383/383 54/54 57/57
f 384/384 385/385 386/386
f 387/387 56/56 58/58
f 388/388 389/389 390/390
f 391/391 51/51 52/52
f 392/392 393/393 394/394
f 395/395 396/396 397/397
f 398/398 59/59 399/399
f 400/400 50/50 49/49
f 401/401 402/402 403/403
f 404/404 405/405 406/406
f 407/407 60/60 408/408
f 61/61 53/53 409/409
f 410/410 411/411 412/412
f 62/62 55/55 413/413
f 414/414 415/415 416/416
f 417/417 418/418 419/419
f 420/420 421/421 422/422
f 423/423 424/424 425/425
f 426/426 63/63 427/427
f 428/428 429/429 430/430
f 431/431 64/64 432/432
f 433/433 434/434 435/435
f 436/436 437/437 438/438
f 439/439 440/440 441/441
f 442/442 443/443 444/444
f 445/445 446/446 447/447
f 448/448 449/449 450/450
f 451/451 452/452 453/453
f 454/454 455/455 456/456
f 457/457 458/458 459/459
f 460/460 461/461 462/462
f 463/463 464/464 465/465
f 466/466 467/467 468/468
f 469/469 470/470 471/471
f 472/472 473/473 474/474
f 475/475 476/476 477/477
f 478/478 70/70 65/65
f 479/479 480/480 481/481
f 482/482 66/66 68/68
f 483/483 484/484 485/485
f 67/67 486/486 487/487
f 488/488 489/489 69/69
f 90/90 490/490 491/491
f 492/492 493/493 494/494
f 495/495 496/496 497/497
f 498/498 499/499 500/500
f 501/501 502/502 503/503
f 504/504 505/505 506/506
f 81/81 507/507 508/508
f 509/509 78/78 510/510
f 79/79 511/511 512/512
f 513/513 514/514 515/515
f 516/516 517/517 518/518
f 519/519 80/80 520/520
f 71/71 521/521 522/522
f 523/523 72/72 524/524
f 525/525 526/526 527/527
f 528/528 529/529 530/530
f 73/73 83/83 531/531
f 532/532 533/533 534/534
f 535/535 74/74 536/536
f 537/537 538/538 539/539
f 540/540 75/75 541/541
f 542/542 543/543 544/544
f 77/77 76/76 545/545
f 546/546 547/547 548/548
f 549/549 550/550 551/551
f 552/552 553/553 554/554
f 555/555 556/556 557/557
f 558/558 559/559 560/560
f 82/82 561/561 562/562
f 563/563 564/564 565/565
f 566/566 567/567 568/568
f 569/569 570/570 571/571
f 572/572 573/573 574/574
f 575/575 576/576 577/577
f 87/87 578/578 579/579
f 84/84 86/86 580/580
f 581/581 85/85 88/88
f 582/582 583/583 584/584
f 585/585 586/586 587/587
f 588/588 589/589 590/590
f 591/591 592/592 593/593
f 594/594 595/595 596/596
f 597/597 598/598 599/599
f 600/600 601/601 602/602
f 91/91 603/603 604/604
f 605/605 606/606 607/607
f 608/608 609/609 610/610
f 611/611 612/612 613/613
f 614/614 615/615 616/616
f 617/617 618/618 619/619
f 620/620 621/621 622/622
f 623/623 624/624 625/625
f 106/106 93/93 95/95
f 127/127 626/626 99/99
f 627/627 628/628 629/629
f 94/94 98/98 96/96
f 630/630 631/631 118/118
f 108/108 632/632 107/107
f 103/103 102/102 109/109
f 110/110 633/633 634/634
f 100/100 635/635 636/636
f 637/637 638/638 639/639
f 640/640 641/641 642/642
f 643/643 644/644 105/105
f 104/104 645/645 646/646
f 647/647 648/648 649/649
f 650/650 651/651 652/652
f 134/134 653/653 116/116
f 654/654 117/117 131/131
f 112/112 655/655 113/113
f 111/111 97/97 656/656
f 101/101 657/657 658/658
f 659/659 114/114 660/660
f 115/115 661/661 662/662
f 663/663 664/664 665/665
f 666/666 667/667 668/668
f 669/669 670/670 671/671
f 672/672 673/673 674/674
f 675/675 676/676 677/677
f 678/678 679/679 680/680
f 681/681 682/682 683/683
f 684/684 685/685 686/686
f 687/687 688/688 689/689
f 690/690 691/691 692/692
f 693/693 694/694 695/695
f 696/696 697/697 698/698
f 699/699 700/700 701/701
f 702/702 703/703 704/704
f 136/136 123/123 124/124
f 705/705 706/706 130/130
f 128/128 707/707 708/708
f 180/180 709/709 710/710
f 92/92 711/711 712/712
f 713/713 714/714 715/715
f 137/137 716/716 717/717
f 718/718 719/719 720/720
f 721/721 722/722 723/723
f 724/724 725/725 726/726
f 727/727 728/728 119/119
f 120/120 729/729 730/730
f 731/731 732/732 733/733
f 734/734 735/735 135/135
f 736/736 737/737 738/738
f 739/739 740/740 741/741
f 742/742 743/743 744/744
f 745/745 746/746 747/747
f 133/133 125/125 139/139
f 748/748 749/749 126/126
f 750/750 138/138 121/121
f 751/751 752/752 753/753
f 754/754 755/755 756/756
f 757/757 758/758 759/759
f 760/760 761/761 762/762
f 763/763 764/764 765/765
f 766/766 767/767 768/768
f 769/769 770/770 771/771
f 772/772 773/773 129/129
f 774/774 775/775 776/776
f 777/777 778/778 779/779
f 132/132 780/780 122/122
f 781/781 782/782 783/783
f 784/784 785/785 786/786
f 787/787 788/788 789/789
f 790/790 791/791 792/792
f 793/793 794/794 795/795
f 796/796 797/797 798/798
f 799/799 800/800 801/801
f 802/802 803/803 804/804
f 805/805 806/806 807/807
f 808/808 809/809 810/810
f 811/811 812/812 813/813
f 814/814 815/815 816/816
f 817/817 818/818 819/819
f 820/820 821/821 822/822
f 823/823 824/824 825/825
f 826/826 148/148 145/145
f 827/827 828/828 829/829
f 830/830 149/149 147/147
f 831/831 832/832 833/833
f 834/834 143/143 142/142
f 835/835 836/836 837/837
f 838/838 839/839 840/840
f 841/841 842/842 150/150
f 843/843 140/140 141/141
f 844/844 845/845 846/846
f 847/847 848/848 849/849
f 850/850 851/851 151/151
f 152/152 852/852 144/144
f 853/853 854/854 855/855
f 153/153 856/856 146/146
f 857/857 858/858 859/859
f 860/860 861/861 862/862
f 863/863 864/864 865/865
f 866/866 867/867 868/868
f 869/869 870/870 154/154
f 871/871 872/872 873/873
f 874/874 875/875 155/155
f 876/876 877/877 878/878
f 879/879 880/880 881/881
f 882/882 883/883 884/884
f 885/885 886/886 887/887
f 888/888 889/889 890/890
f 891/891 892/892 893/893
f 894/894 895/895 896/896
f 897/897 898/898 899/899
f 900/900 901/901 902/902
f 903/903 904/904 905/905
f 906/906 907/907 908/908
f 909/909 910/910 911/911
f 912/912 913/913 914/914
f 915/915 916/916 917/917
f 918/918 919/919 920/920
f 921/921 156/156 161/161
f 922/922 923/923 924/924
f 925/925 159/159 157/157
f 926/926 927/927 928/928
f 158/158 929/929 930/930
f 931/931 160/160 932/932
f 181/181 933/933 934/934
f 935/935 936/936 937/937
f 938/938 939/939 940/940
f 941/941 942/942 943/943
f 944/944 945/945 946/946
f 947/947 948/948 949/949
f 172/172 950/950 951/951
f 952/952 953/953 169/169
f 170/170 954/954 955/955
f 956/956 957/957 958/958
f 959/959 960/960 961/961
f 962/962 963/963 171/171
f 162/162 964/964 965/965
f 966/966 967/967 163/163
f 968/968 969/969 970/970
f 971/971 972/972 973/973
f 164/164 974/974 174/174
f 975/975 976/976 977/977
f 978/978 979/979 165/165
f 980/980 981/981 982/982
f 983/983 984/984 166/166
f 985/985 986/986 987/987
f 168/168 988/988 167/167
f 989/989 990/990 991/991
f 992/992 993/993 994/994
f 995/995 996/996 997/997
f 998/998 999/999 1000/1000
f 1001/1001 1002/1002 1003/1003
f 173/173 1004/1004 1005/1005
f 1006/1006 1007/1007 1008/1008
f 1009/1009 1010/1010 1011/1011
f 1012/1012 1013/1013 1014/1014
f 1015/1015 1016/1016 1017/1017
f 1018/1018 1019/1019 1020/1020
f 178/178 1021/1021 1022/1022
f 175/175 1023/1023 177/177
f 1024/1024 179/179 176/176
f 1025/1025 1026/1026 1027/1027
f 1028/1028 1029/1029 1030/1030
f 1031/1031 1032/1032 1033/1033
f 1034/1034 1035/1035 1036/1036
f 1037/1037 1038/1038 1039/1039
f 1040/1040 1041/1041 1042/1042
f 1043/1043 1044/1044 1045/1045
f 182/182 1046/1046 1047/1047
f 1048/1048 1049/1049 1050/1050
f 1051/1051 1052/1052 1053/1053
f 1054/1054 1055/1055 1056/1056
f 1057/1057 1058/1058 1059/1059
f 1060/1060 1061/1061 1062/1062
f 1063/1063 1064/1064 1065/1065
f 1066/1066 1067/1067 1068/1068
