# MOD converted: m_costume_armysurgeon_item.mod
# 52 verts, 32 faces

v 76.498375 15.399188 14.052520
v 77.985435 31.741789 14.307077
v 114.423477 16.606583 11.484518
v 111.633804 31.778158 -0.000001
v 74.962822 15.338700 16.600948
v 99.497131 13.707004 13.778200
v 98.738228 31.664209 -0.000000
v 115.452843 16.647093 -0.000001
v 99.497238 13.706961 -0.000002
v 76.129189 35.428558 -0.000003
v 98.418411 35.410763 -0.000003
v 112.345222 35.565258 -16.600945
v 99.497131 13.707002 -14.502221
v 76.498375 15.399187 -14.052522
v 77.985435 31.741789 -13.778200
v 98.738228 31.664211 -11.484519
v 111.633804 31.778158 -14.307076
v 114.423477 16.606585 13.778200
v 98.738228 31.664209 14.052520
v 77.985435 31.741789 14.052520
v 77.985435 31.741789 -0.000002
v 76.129189 35.428558 14.502219
v 76.498375 15.399188 14.502219
v 76.498375 15.399188 16.600948
v 99.497131 13.707004 -0.000001
v 74.962822 15.338700 11.484518
v 111.633804 31.778158 14.307077
v 114.423477 16.606583 14.307077
v 114.423477 16.606583 -0.000003
v 112.345222 35.565258 11.484518
v 111.633804 31.778158 -0.000000
v 115.452843 16.647093 -0.000002
v 76.129189 35.428558 -13.778200
v 98.738228 31.664211 -14.052522
v 77.985435 31.741789 -0.000003
v 98.418411 35.410763 -14.052522
v 77.985435 31.741789 -0.000001
v 74.962822 15.338700 -0.000002
v 76.129189 35.428558 -14.502221
v 76.498375 15.399187 -0.000001
v 99.497238 13.706961 -14.502221
v 76.498375 15.399187 -16.600945
v 99.497131 13.707002 -0.000001
v 74.962822 15.338700 -0.000003
v 112.345222 35.565258 -11.484519
v 111.633804 31.778158 -14.307076
v 114.423477 16.606585 -0.000000
v 115.452843 16.647093 -14.307076
v 114.423477 16.606585 -0.000003
v 112.345222 35.565258 -0.000000
v 115.452843 16.647093 -11.484519
v 111.633804 31.778158 0.005425

vt 0.004709 0.863684
vt 0.004709 0.994575
vt 0.225225 0.863684
vt 0.225225 0.874323
vt 0.375279 0.994575
vt 0.125447 0.863684
vt 0.125447 0.341926
vt 0.400033 0.341926
vt 0.356476 0.810529
vt 0.586472 0.810529
vt 0.799948 0.810529
vt 0.989460 0.994575
vt 0.125447 0.994575
vt 0.004709 0.863684
vt 0.004709 0.863684
vt 0.125447 0.863684
vt 0.225225 0.994575
vt 0.225225 0.994575
vt 0.799948 0.994575
vt 0.586472 0.994575
vt 0.507127 0.874323
vt 0.507127 0.994575
vt 0.375279 0.267303
vt 0.289159 0.253260
vt 0.356476 0.341926
vt 0.289159 0.994575
vt 0.989460 0.263697
vt 0.400033 0.994575
vt 0.365376 0.874323
vt 0.232251 0.994575
vt 0.232251 0.874323
vt 0.365376 0.810529
vt 0.586472 0.994575
vt 0.799948 0.994575
vt 0.586472 0.810529
vt 0.799948 0.994575
vt 0.507127 0.874323
vt 0.375279 0.874323
vt 0.507127 0.994575
vt 0.375279 0.341926
vt 0.356476 0.267303
vt 0.289159 0.253260
vt 0.356476 0.341926
vt 0.289159 0.810529
vt 0.989460 0.994575
vt 0.989460 0.263697
vt 0.400033 0.341926
vt 0.400033 0.994575
vt 0.365376 0.874323
vt 0.232251 0.874323
vt 0.365376 0.994575
vt 0.232251 1.000000

f 2/2 6/6 7/7
f 6/6 2/2 1/1
f 19/19 10/10 20/20
f 10/10 19/19 11/11
f 5/5 21/21 22/22
f 21/21 5/5 23/23
f 24/24 9/9 25/25
f 9/9 24/24 26/26
f 4/4 6/6 3/3
f 6/6 4/4 7/7
f 12/12 19/19 27/27
f 19/19 12/12 11/11
f 28/28 9/9 8/8
f 9/9 28/28 25/25
f 29/29 30/30 31/31
f 30/30 29/29 32/32
f 13/13 15/15 16/16
f 15/15 13/13 14/14
f 33/33 34/34 35/35
f 34/34 33/33 36/36
f 37/37 38/38 39/39
f 38/38 37/37 40/40
f 41/41 42/42 43/43
f 42/42 41/41 44/44
f 13/13 17/17 18/18
f 17/17 13/13 16/16
f 34/34 45/45 46/46
f 45/45 34/34 36/36
f 41/41 47/47 48/48
f 47/47 41/41 43/43
f 49/49 50/50 51/51
f 50/50 49/49 52/52
