# MOD converted: m_glass_bang_02.mod
# 99 verts, 5 faces

v 136.043274 -20.780903 0.000000
v 138.946304 -22.262569 -0.000000
v 134.979874 -18.787411 3.084003
v 137.808945 -20.146444 2.515547
v 138.169952 -21.487713 -0.000001
v 143.748184 -20.665049 0.000001
v 134.692505 -15.528884 4.135936
v 135.818558 -13.821488 3.869519
v 142.586731 -16.379734 3.335500
v 142.893509 -19.575571 0.000000
v 146.132019 -18.140511 3.772695
v 142.310577 -13.061591 3.240124
v 145.093933 -15.528165 2.711298
v 145.698669 -17.148758 2.889073
v 136.245117 -19.815971 4.854322
v 136.027267 -17.528002 6.488303
v 138.037781 -16.838760 4.767709
v 137.401413 -18.917507 4.997729
v 141.363495 -16.414474 0.000001
v 141.500916 -22.061165 2.941097
v 140.739883 -21.192837 3.522361
v 141.800003 -19.419258 5.456290
v 138.922501 -18.504881 6.186437
v 139.737091 -15.318210 4.730191
v 140.913956 -12.941306 2.312538
v 148.188705 -14.278090 1.570418
v 149.306381 -16.046864 0.000000
v 149.804062 -16.226851 5.527175
v 137.455246 -13.477941 16.874077
v 144.489578 -10.830108 14.892817
v 149.274048 -12.212803 10.109644
v 151.071487 -13.831159 5.326467
v 148.828964 -14.737155 3.345212
v 143.860077 -14.400078 5.326468
v 139.075607 -13.017378 10.109645
v 137.278168 -11.399023 14.892818
v 139.520721 -10.493025 17.321680
v 144.199524 -12.475199 15.340417
v 148.983963 -13.857897 10.557240
v 150.781403 -15.476251 5.774069
v 148.538879 -16.382246 3.792814
v 143.570023 -16.045172 5.774070
v 138.785492 -14.662464 10.557248
v 136.988113 -13.044118 15.340416
v 139.230637 -12.138120 11.102035
v 143.531708 -16.262470 0.000001
v 149.605225 -16.385798 -0.000000
v 147.092133 -16.215311 0.000001
v 149.458527 -17.217838 0.000001
v 146.945435 -17.047359 -3.084002
v 137.808929 -20.146441 -2.515546
v 138.169998 -21.487715 -4.135932
v 135.818558 -13.821490 -3.869517
v 142.586716 -16.379738 -3.335500
v 142.893494 -19.575565 -3.772694
v 142.310547 -13.061588 -3.240122
v 145.093948 -15.528161 -2.711296
v 145.698669 -17.148760 -2.889072
v 136.245102 -19.815966 -4.854321
v 136.027237 -17.527996 -6.488300
v 138.037796 -16.838764 -4.767708
v 137.401443 -18.917507 -4.997726
v 141.363510 -16.414473 -2.941096
v 140.739899 -21.192833 -3.522359
v 141.799988 -19.419256 -5.456288
v 138.922531 -18.504887 -6.186437
v 139.737106 -15.318212 -4.730189
v 140.913910 -12.941300 -2.312535
v 148.188690 -14.278086 -1.570417
v 149.306396 -16.046871 -5.527174
v 137.455276 -13.477945 -16.874077
v 144.489563 -10.830110 -14.892820
v 149.274078 -12.212810 -10.109643
v 151.071487 -13.831160 -5.326465
v 148.828949 -14.737162 -3.345212
v 143.860092 -14.400078 -5.326465
v 139.075623 -13.017382 -10.109642
v 137.278168 -11.399023 -14.892817
v 139.520706 -10.493024 -17.321680
v 144.199509 -12.475197 -15.340416
v 148.983978 -13.857895 -10.557240
v 150.781403 -15.476249 -5.774068
v 148.538895 -16.382250 -3.792814
v 143.570007 -16.045172 -5.774067
v 138.785522 -14.662468 -10.557245
v 136.988083 -13.044118 -15.340416
v 139.230621 -12.138117 -11.102032
v 143.531693 -16.262466 -5.488165
v 133.023529 -13.805278 0.000062
v 132.020859 -15.611209 5.488287
v 133.023575 -13.805281 -4.598001
v 136.559128 -14.966238 4.596995
v 136.559158 -14.966247 -5.488166
v 133.418747 -15.713935 0.000061
v 132.416046 -17.519871 5.488285
v 133.418777 -15.713937 -4.598001
v 136.559158 -16.507311 -0.000504
v 135.945969 -17.152275 4.596993
v 136.559158 -16.507307 0.639785

vt 0.642222 0.323705
vt 0.707549 0.410218
vt 0.613004 0.380573
vt 0.678306 0.361849
vt 0.681142 0.373194
vt 0.815606 0.499755
vt 0.611826 0.524848
vt 0.658487 0.454344
vt 0.774483 0.422988
vt 0.796343 0.443015
vt 0.869249 0.560553
vt 0.783255 0.512362
vt 0.834432 0.474367
vt 0.855482 0.393161
vt 0.646764 0.433239
vt 0.660762 0.467478
vt 0.687105 0.401753
vt 0.672785 0.447209
vt 0.750543 0.338792
vt 0.765036 0.368235
vt 0.747346 0.392202
vt 0.742755 0.413797
vt 0.710886 0.500150
vt 0.724104 0.523187
vt 0.745519 0.520568
vt 0.986976 0.499756
vt 0.986978 0.482557
vt 0.986978 0.517764
vt 0.717257 0.006442
vt 0.830352 0.052208
vt 0.943759 0.162833
vt 0.990734 0.273163
vt 0.943760 0.316068
vt 0.830352 0.273301
vt 0.716945 0.162905
vt 0.669970 0.052333
vt 0.716945 0.005867
vt 0.830352 0.051653
vt 0.943759 0.162055
vt 0.990734 0.272751
vt 0.943759 0.316577
vt 0.830352 0.272613
vt 0.716945 0.161983
vt 0.669970 0.051529
vt 0.716945 0.156646
vt 0.830352 0.399522
vt 0.967824 0.400214
vt 0.910466 0.399665
vt 0.967824 0.401065
vt 0.910466 0.380573
vt 0.678306 0.361849
vt 0.681142 0.524848
vt 0.658487 0.454344
vt 0.774483 0.422988
vt 0.796343 0.560553
vt 0.783255 0.512362
vt 0.834432 0.474367
vt 0.855482 0.393161
vt 0.646764 0.433239
vt 0.660762 0.467478
vt 0.687105 0.401753
vt 0.672785 0.447209
vt 0.750543 0.368235
vt 0.747346 0.392202
vt 0.742755 0.413797
vt 0.710886 0.500150
vt 0.724104 0.523187
vt 0.745519 0.520568
vt 0.986976 0.499756
vt 0.986978 0.517764
vt 0.717257 0.006442
vt 0.830352 0.052208
vt 0.943759 0.162833
vt 0.990734 0.273163
vt 0.943760 0.316068
vt 0.830352 0.273301
vt 0.716945 0.162905
vt 0.669970 0.052333
vt 0.716945 0.005867
vt 0.830352 0.051653
vt 0.943759 0.162055
vt 0.990734 0.272751
vt 0.943759 0.316577
vt 0.830352 0.272613
vt 0.716945 0.161983
vt 0.669970 0.051529
vt 0.716945 0.156646
vt 0.830352 0.028536
vt 0.003550 0.003639
vt 0.261931 0.028536
vt 0.003550 0.147268
vt 0.045485 0.147268
vt 0.045485 0.048007
vt 0.067325 0.027373
vt 0.261931 0.048007
vt 0.067325 0.136042
vt 0.098909 0.119958
vt 0.261931 0.136042
vt 0.098909 1.000000

f 94/94 95/95 90/90
f 90/90 89/89 94/94
f 90/90 96/96 91/91
f 96/96 90/90 95/95
f 1/1 30/30 38/38
