# MOD converted: magidagger001.mod
# 154 verts, 55 faces

v -5.517144 -37.927010 -8.659998
v -4.611632 -36.139488 -7.140368
v -6.422656 -36.139481 -14.570782
v -11.114439 -33.537628 -13.972324
v -9.069202 -32.643860 -12.452695
v -10.880227 -32.643860 -14.570777
v -11.114438 -24.758856 -13.972321
v -9.069201 -25.652620 -12.452691
v -10.880226 -25.652622 -7.900175
v -5.517142 -20.369467 -8.659990
v -4.611630 -22.157001 -7.140361
v -6.422655 -22.157003 -1.229578
v 0.080154 -24.758865 -3.347660
v -0.154056 -25.652628 -1.828031
v -1.965080 -25.652634 -1.229582
v 0.080151 -33.537640 -3.347664
v -0.154057 -32.643871 -1.828034
v -1.965081 -32.643871 -12.534809
v -9.406055 -33.656570 -10.182862
v -8.968890 -34.706421 -9.343927
v -6.728589 -35.756252 -11.695873
v -7.165753 -34.706421 -12.332747
v -9.236506 -37.836426 -13.643179
v -10.336089 -26.827906 -12.886670
v -11.237656 -28.927567 -13.643176
v -10.336085 -31.027227 -14.399681
v -9.434519 -28.927565 -16.718222
v -12.916356 -29.117266 -9.008546
v -6.447174 -22.319565 -9.847486
v -8.687479 -23.369392 -12.199429
v -9.124640 -24.419224 -11.360497
v -6.884342 -23.369392 -12.285660
v -9.196998 -20.429085 -3.265549
v -1.628228 -24.639908 -4.104484
v -3.868530 -23.590078 -6.456428
v -4.305693 -22.540247 -5.617495
v -2.065393 -23.590075 -3.467611
v -1.797779 -20.460060 -2.157182
v -0.698196 -31.468601 -1.400674
v -1.599764 -29.368931 -2.157179
v -0.698195 -27.269268 -2.913686
v 0.203372 -29.368931 0.917866
v 1.882075 -29.179237 -6.791814
v -4.587112 -35.976933 -4.439865
v -4.149945 -34.927097 -3.600927
v -1.909642 -33.877274 -5.952876
v -2.346808 -34.927105 -3.514700
v -1.837287 -37.867424 -7.900153
v -5.517131 19.789064 -10.326941
v -7.553447 18.017467 -5.863837
v -7.943920 18.017466 -5.473364
v -3.480814 18.017450 -9.936472
v -3.090342 18.017452 -9.669393
v -7.001696 9.311703 -6.415601
v -7.286361 9.311701 -6.130932
v -4.032576 9.311686 -9.384717
v -3.747905 9.311687 -11.187813
v -8.275796 -18.945583 -5.141519
v -8.804776 -18.945587 -4.612538
v -2.758487 -18.945589 -10.658826
v -2.229503 -18.945587 -9.307278
v -6.697840 -20.890434 -6.719472
v -6.924245 -20.890436 -6.493069
v -4.336439 -20.890429 -9.080874
v -4.110034 -20.890427 -9.616307
v -6.957148 -11.950504 -6.460156
v -7.233280 -11.950506 -6.184024
v -4.077121 -11.950514 -9.340181
v -3.800997 -11.950512 -10.683946
v -2.199591 -47.746277 -12.266742
v -9.181129 -47.746277 -17.464003
v -13.542150 -55.851452 -14.006642
v -10.641083 -59.689606 -9.618924
v -6.113252 -78.103867 -12.780881
v -9.612550 -64.811852 -12.244157
v -9.162186 -78.796310 -5.116420
v -8.834713 -47.746288 -8.785674
v -7.106282 -78.103867 -9.201469
v -6.609071 -85.633202 -10.546031
v -6.086122 -60.665268 -8.919953
v -8.024006 -60.665268 -8.713223
v -4.548214 -58.922367 -7.087146
v -6.486099 -58.922367 -3.533610
v -1.853164 -47.746284 1.663635
v 2.507838 -55.851452 -1.793723
v -0.393230 -59.689610 -7.014701
v -3.928050 -78.103867 -3.019492
v -1.421775 -64.811859 -3.556233
v -1.872156 -78.796318 -6.181450
v -4.921079 -78.103867 -6.598909
v -4.425264 -85.633209 -6.880414
v -3.010305 -60.665264 -5.254336
v -4.948190 -60.665272 -14.725566
v 1.513342 -52.653919 -12.523001
v -1.274018 -49.479343 -15.560029
v 2.710230 -55.995838 -8.523629
v -6.040284 -48.301308 -14.209331
v 2.001792 -59.153458 -7.900185
v -5.517157 -58.667316 -10.656997
v -2.231715 -58.513645 -11.505501
v -1.220505 -56.552483 -12.999500
v 0.559974 -56.711052 -14.480000
v 2.324362 -63.435719 -15.458815
v 2.894682 -59.357109 -13.638653
v 2.425370 -52.653919 -11.276109
v -0.227754 -49.479351 -14.672455
v 3.454993 -55.995838 -7.276738
v -4.994018 -48.301308 -14.871683
v 3.387344 -59.357109 -2.161715
v -13.459678 -52.653927 -4.524258
v -10.806553 -49.479359 -1.127912
v -14.489304 -55.995846 -1.591041
v -13.036105 -59.153465 -5.143373
v -8.802599 -58.513653 -4.294868
v -9.813806 -56.552486 -2.800869
v -11.594286 -56.711063 -1.320371
v -13.358680 -63.435726 -0.928687
v -14.421657 -59.357124 -1.074802
v -12.547649 -52.653931 -3.277366
v -9.760286 -49.479355 -0.240339
v -13.744541 -55.995850 -0.341556
v -13.928995 -59.357124 -9.307269
v -6.697847 -7.519391 -6.719463
v -6.924253 -7.519392 -6.493059
v -4.336445 -7.519384 -9.080866
v -4.110041 -7.519382 -9.307281
v -6.697855 -38.069218 -6.719473
v -6.924261 -38.069214 -6.493070
v -4.336453 -38.069210 -9.080876
v -4.110049 -38.069210 -11.079028
v -8.184527 -42.053303 -4.721312
v -2.849772 -42.053314 -7.900181
v -5.517154 -47.745689 -12.332747
v -9.236506 -37.836426 -9.343927
v -6.728589 -35.756252 -12.534809
v -9.406055 -33.656570 -16.718222
v -12.916356 -29.117266 -13.643176
v -10.336085 -31.027227 -13.643179
v -10.336089 -26.827906 -12.285660
v -9.196998 -20.429085 -12.199429
v -9.124640 -24.419224 -9.008546
v -6.447174 -22.319565 -13.638653
v 2.425370 -52.653919 -11.276109
v -0.227754 -49.479351 -3.277366
v -9.760286 -49.479355 -4.294868
v -9.813806 -56.552486 -9.307281
v -6.697855 -38.069218 -6.719473
v -6.924261 -38.069214 -6.493070
v -4.336453 -38.069210 -9.080876
v -4.110049 -38.069210 -5.116420
v -8.834713 -47.746288 -6.719473
v -6.924261 -38.069214 -10.683946
v -2.199591 -47.746277 -9.080876
v -4.110049 -38.069210 0.314487

vt 0.324611 0.691223
vt 0.248681 0.691223
vt 0.248681 0.817140
vt 0.231389 0.761687
vt 0.198727 0.761687
vt 0.198727 0.805757
vt 0.074077 0.753131
vt 0.111368 0.753131
vt 0.111368 0.663683
vt 0.011608 0.675047
vt 0.075583 0.675047
vt 0.075583 0.805757
vt 0.074077 0.753131
vt 0.111368 0.753131
vt 0.111368 0.817140
vt 0.231389 0.761687
vt 0.198727 0.761687
vt 0.198727 0.960219
vt 0.780142 0.975841
vt 0.780142 0.991463
vt 0.780142 0.975841
vt 0.780142 0.975841
vt 0.888665 0.960219
vt 0.780142 0.975841
vt 0.780142 0.991463
vt 0.780142 0.975841
vt 0.780142 0.975841
vt 0.888665 0.960219
vt 0.780142 0.975841
vt 0.780142 0.991463
vt 0.780142 0.975841
vt 0.780142 0.975841
vt 0.888665 0.960219
vt 0.780142 0.975841
vt 0.780142 0.991463
vt 0.780142 0.975841
vt 0.780142 0.975841
vt 0.888665 0.960219
vt 0.780142 0.975841
vt 0.780142 0.991463
vt 0.780142 0.975841
vt 0.780142 0.975841
vt 0.888665 0.960219
vt 0.780142 0.975841
vt 0.780142 0.991463
vt 0.780142 0.975841
vt 0.780142 0.975841
vt 0.888665 0.004277
vt 0.118303 0.076562
vt 0.139458 0.004277
vt 0.139458 0.076562
vt 0.139458 0.004277
vt 0.139458 0.046008
vt 0.371219 0.004277
vt 0.371219 0.046008
vt 0.371219 0.004277
vt 0.371219 0.097362
vt 0.714839 0.004277
vt 0.714839 0.097362
vt 0.714839 0.004277
vt 0.714839 0.054300
vt 0.739638 0.004277
vt 0.739638 0.054300
vt 0.739638 0.004277
vt 0.739638 0.079867
vt 0.604387 0.004277
vt 0.604387 0.079867
vt 0.604387 0.004277
vt 0.604387 0.997501
vt 0.244050 0.851059
vt 0.244088 0.715655
vt 0.506175 0.840706
vt 0.586470 0.927005
vt 0.894877 0.857929
vt 0.693628 0.859223
vt 0.894368 0.997501
vt 0.244050 0.927005
vt 0.894877 0.927050
vt 0.993912 0.947035
vt 0.618489 0.947035
vt 0.618489 0.997501
vt 0.579056 0.997501
vt 0.579056 0.851059
vt 0.244088 0.715655
vt 0.506175 0.840706
vt 0.586470 0.927005
vt 0.894877 0.857929
vt 0.693628 0.859223
vt 0.894368 0.927005
vt 0.894877 0.927050
vt 0.993912 0.947035
vt 0.618489 0.947035
vt 0.618489 0.779703
vt 0.620509 0.822009
vt 0.788564 0.688127
vt 0.564588 0.805266
vt 0.947836 0.587285
vt 0.613390 0.564990
vt 0.947836 0.583429
vt 0.822120 0.629059
vt 0.782537 0.643821
vt 0.675272 0.483793
vt 0.591068 0.598411
vt 0.557288 0.779703
vt 0.620509 0.822009
vt 0.788564 0.688127
vt 0.564588 0.805266
vt 0.947836 0.598411
vt 0.557288 0.779703
vt 0.620509 0.822009
vt 0.788564 0.688127
vt 0.564588 0.587285
vt 0.613390 0.583429
vt 0.822120 0.629059
vt 0.782537 0.643821
vt 0.675272 0.483793
vt 0.591068 0.598411
vt 0.557288 0.779703
vt 0.620509 0.822009
vt 0.788564 0.688127
vt 0.564588 0.598411
vt 0.557288 0.054300
vt 0.739638 0.004277
vt 0.739638 0.054300
vt 0.739638 0.004277
vt 0.739638 0.054300
vt 0.993664 0.004277
vt 0.993664 0.054300
vt 0.993664 0.004277
vt 0.993664 0.871045
vt 0.086513 0.871045
vt 0.086513 0.999716
vt 0.244126 0.975841
vt 0.888665 0.960219
vt 0.780142 0.991463
vt 0.780142 0.975841
vt 0.888665 0.960219
vt 0.780142 0.991463
vt 0.780142 0.975841
vt 0.888665 0.960219
vt 0.780142 0.991463
vt 0.780142 0.779703
vt 0.620509 0.822009
vt 0.788564 0.822009
vt 0.788564 0.629059
vt 0.782537 0.929611
vt 0.005887 0.999716
vt 0.005887 0.929611
vt 0.005887 0.999716
vt 0.005887 0.999716
vt 0.244126 0.999716
vt 0.006480 0.999716
vt 0.244126 0.999716
vt 0.006480 1.000000

f 50/50 54/54 51/51
f 54/54 55/55 51/51
f 51/51 55/55 56/56
f 51/51 56/56 52/52
f 52/52 56/56 53/53
f 56/56 57/57 53/53
f 53/53 57/57 54/54
f 53/53 54/54 50/50
f 66/66 67/67 55/55
f 55/55 67/67 68/68
f 68/68 69/69 57/57
f 57/57 69/69 66/66
f 58/58 62/62 63/63
f 58/58 63/63 59/59
f 59/59 63/63 60/60
f 63/63 64/64 60/60
f 60/60 65/65 61/61
f 64/64 65/65 60/60
f 61/61 65/65 58/58
f 65/65 62/62 58/58
f 54/54 66/66 55/55
f 58/58 67/67 66/66
f 58/58 59/59 67/67
f 67/67 60/60 68/68
f 67/67 59/59 60/60
f 55/55 68/68 56/56
f 56/56 68/68 57/57
f 60/60 69/69 68/68
f 60/60 61/61 69/69
f 69/69 58/58 66/66
f 69/69 61/61 58/58
f 57/57 66/66 54/54
f 123/123 127/127 124/124
f 127/127 128/128 124/124
f 124/124 128/128 129/129
f 124/124 129/129 125/125
f 125/125 129/129 126/126
f 129/129 130/130 126/126
f 126/126 130/130 127/127
f 126/126 127/127 123/123
f 147/147 131/131 148/148
f 148/148 132/132 149/149
f 149/149 132/132 150/150
f 150/150 131/131 147/147
f 131/131 151/151 152/152
f 71/71 151/151 131/131
f 152/152 151/151 132/132
f 151/151 84/84 132/132
f 132/132 153/153 154/154
f 84/84 153/153 132/132
f 154/154 153/153 131/131
f 153/153 71/71 131/131
f 50/50 51/51 49/49
f 51/51 52/52 49/49
f 52/52 53/53 49/49
