# MOD converted: oh_mace016.mod
# 148 verts, 109 faces

v -5.414664 -135.829132 -1.092296
v 0.399733 -132.989395 0.481160
v -8.523707 -133.020935 -6.460092
v -14.348073 -133.041519 -14.974796
v -11.248994 -133.030563 -16.548246
v -2.325552 -132.999008 -9.606995
v 3.498814 -132.978439 0.560894
v 1.699846 -108.355667 2.509089
v -9.348874 -108.394722 -6.085340
v -16.560411 -108.420219 -16.627968
v -12.723230 -108.406647 -18.576164
v -1.674511 -108.367592 -9.981731
v 5.537025 -108.342102 3.570941
v 4.183151 -96.350685 6.201466
v -10.735182 -96.403427 -5.403013
v -20.472435 -96.437843 -19.638008
v -15.291348 -96.419525 -22.268524
v -0.373015 -96.366791 -10.664049
v 9.364233 -96.332367 -1.074639
v 0.257854 -88.665825 0.502813
v -8.688269 -88.697456 -6.456079
v -14.527437 -88.718094 -14.992424
v -11.420481 -88.707108 -16.569876
v -2.474357 -88.675484 -9.610983
v 3.364810 -88.654839 -8.033544
v -5.421447 -133.910294 -5.239725
v -3.077169 -133.902008 -10.377835
v -2.627646 -133.900421 -10.827363
v -7.765726 -133.918579 -5.689252
v -8.215247 -133.920181 -8.033547
v -5.368415 -148.912064 -3.251370
v -1.584925 -84.062256 -12.046238
v -0.815479 -84.059540 -12.815689
v -9.610294 -84.090630 -4.020823
v -10.379739 -84.093346 -6.163146
v -4.002834 -91.240303 -9.602971
v -3.701892 -91.239235 -9.903914
v -7.141692 -91.251396 -6.464095
v -7.442637 -91.252464 -6.737465
v -4.540926 -75.349770 -9.121054
v -4.332389 -75.349030 -9.329591
v -6.715964 -75.357452 -6.946002
v -6.924500 -75.358192 -6.737454
v -4.668979 -39.125668 -9.121043
v -4.460442 -39.124928 -9.329580
v -6.844017 -39.133354 -6.945991
v -7.052553 -39.134090 -5.295420
v -3.470981 -35.725647 -10.331052
v -3.030423 -35.724087 -10.771611
v -8.066023 -35.741886 -5.735981
v -8.506579 -35.743446 -6.392696
v -4.438901 -22.377129 -9.410317
v -4.174898 -22.376194 -9.674324
v -7.192497 -22.386862 -6.656707
v -7.456503 -22.387796 -3.663831
v -2.317162 25.162319 -11.700087
v -1.609521 23.874508 -12.403166
v -9.650289 25.136398 -4.366911
v -10.348805 23.843620 -8.033497
v -5.993635 27.952480 -9.975146
v -3.609397 8.076576 -5.719539
v -3.974173 5.943353 -10.347463
v -7.857439 5.929627 -6.091859
v -8.237291 8.060217 -7.237217
v 3.606593 -112.988693 -6.563400
v 11.293704 -108.830681 -6.326161
v 13.976241 -100.599983 -6.213659
v 15.230228 -91.576149 -6.243736
v 19.823797 -102.601120 -8.416955
v 3.113183 -130.398804 -7.960171
v 8.317051 -125.541176 -7.570105
v 12.774673 -125.288521 -7.239348
v 16.566391 -128.434814 -6.332053
v 23.435034 -114.737900 -6.584991
v 22.637289 -126.631241 -7.016145
v 19.138092 -134.222931 -5.393155
v 19.749384 -102.601387 -6.171787
v 2.916752 -130.399506 -5.715003
v 8.120620 -125.541878 -5.324937
v 12.578241 -125.289207 -4.994179
v 16.369957 -128.435516 -4.686553
v 23.291067 -114.738411 -4.583293
v 22.462156 -126.631844 -4.770978
v 18.941660 -134.223618 -17.135475
v -4.698977 -113.018051 -24.837234
v -4.039768 -108.884888 -27.548845
v -3.831596 -100.662933 -28.834724
v -3.750978 -91.643250 -33.389301
v -3.742020 -102.684425 -16.580532
v -5.817164 -130.430374 -21.801533
v -5.377494 -125.589584 -26.260021
v -4.988267 -125.351311 -30.040586
v -4.646342 -128.509796 -36.957611
v -3.787388 -114.834129 -36.117828
v -3.998289 -126.725388 -32.591824
v -4.402647 -134.306122 -33.314880
v -2.891452 -102.681419 -16.384104
v -3.572011 -130.422440 -21.605104
v -3.132340 -125.581657 -26.063591
v -2.743113 -125.343376 -29.844152
v -2.401191 -128.501862 -36.813637
v -2.141903 -114.828316 -35.942699
v -1.996606 -126.718307 -32.395386
v -2.157492 -134.298187 -8.829854
v -14.597171 -113.053047 -9.503669
v -22.313488 -108.949486 -9.740898
v -25.054144 -100.737961 -9.853396
v -26.371902 -91.723221 -9.823329
v -30.887415 -102.780388 -7.650132
v -13.980689 -130.459229 -8.106908
v -19.218767 -125.638519 -8.496973
v -23.678064 -125.417381 -8.827729
v -27.447441 -128.590408 -9.735015
v -34.412750 -114.942398 -9.482083
v -33.530937 -126.829788 -9.050934
v -29.978159 -134.396545 -10.673905
v -30.812994 -102.780128 -9.895299
v -13.784256 -130.458542 -10.352075
v -19.022335 -125.637833 -10.742139
v -23.481634 -125.416687 -11.072897
v -27.251009 -128.589706 -11.380512
v -34.268784 -114.941887 -11.483783
v -33.355812 -126.829170 -11.296103
v -29.781727 -134.395844 1.068404
v -6.291600 -113.023689 8.770160
v -6.980018 -108.895279 11.481776
v -7.246312 -100.675011 12.767659
v -7.390696 -91.656120 17.322229
v -7.321592 -102.697083 0.513442
v -5.050346 -130.427673 5.734452
v -5.524226 -125.590111 10.192937
v -5.915129 -125.354591 13.973514
v -6.234714 -128.515427 20.890532
v -7.190327 -114.846169 20.050741
v -6.895361 -126.735641 16.524731
v -6.437423 -134.313339 17.247808
v -8.172164 -102.700096 0.317014
v -7.295499 -130.435608 5.538017
v -7.769382 -125.598053 9.996508
v -8.160282 -125.362526 13.777080
v -8.479869 -128.523361 20.746557
v -8.835818 -114.851982 19.875612
v -8.897051 -126.742706 16.328297
v -8.682577 -134.321274 -9.121043
v -4.460442 -39.124928 -6.737454
v -4.668979 -39.125668 -9.329580
v -6.844017 -39.133354 -6.945991
v -7.052553 -39.134090 0.004741

vt 0.822870 0.964488
vt 0.719178 0.964488
vt 0.784711 0.964488
vt 0.861029 0.964488
vt 0.926561 0.964488
vt 0.861029 0.964488
vt 0.784711 0.695663
vt 0.694483 0.695663
vt 0.772363 0.695663
vt 0.873377 0.695662
vt 0.951257 0.695663
vt 0.873377 0.695663
vt 0.772363 0.564725
vt 0.649517 0.564725
vt 0.756723 0.564725
vt 0.889016 0.564725
vt 0.996222 0.564725
vt 0.889016 0.564725
vt 0.756723 0.480694
vt 0.718915 0.480694
vt 0.789141 0.480694
vt 0.856598 0.480694
vt 0.926824 0.480694
vt 0.856598 0.480694
vt 0.789141 0.433414
vt 0.269641 0.366416
vt 0.269641 0.433414
vt 0.269641 0.500412
vt 0.269641 0.433414
vt 0.269641 0.433414
vt 0.403637 0.584526
vt 0.282146 0.584526
vt 0.138574 0.584526
vt 0.282146 0.584526
vt 0.138574 0.689501
vt 0.194727 0.689501
vt 0.138574 0.689501
vt 0.194727 0.689501
vt 0.138574 0.463184
vt 0.173028 0.463184
vt 0.138574 0.463184
vt 0.173028 0.463184
vt 0.138574 0.239923
vt 0.173028 0.239923
vt 0.138574 0.239923
vt 0.173028 0.239923
vt 0.138574 0.748829
vt 0.081973 0.748829
vt 0.013524 0.748829
vt 0.081973 0.748829
vt 0.013524 0.590637
vt 0.060892 0.590637
vt 0.013524 0.590637
vt 0.060892 0.590637
vt 0.013524 0.277095
vt 0.122760 0.277095
vt 0.013524 0.277095
vt 0.122760 0.277095
vt 0.013524 0.216102
vt 0.013524 0.377331
vt 0.013524 0.377331
vt 0.075847 0.377331
vt 0.075847 0.377331
vt 0.013524 0.613027
vt 0.619398 0.454090
vt 0.684138 0.398132
vt 0.812982 0.371596
vt 0.954336 0.278374
vt 0.781296 0.626506
vt 0.346571 0.518763
vt 0.422412 0.426756
vt 0.426125 0.348738
vt 0.376605 0.205455
vt 0.590886 0.223106
vt 0.404535 0.296090
vt 0.285750 0.278374
vt 0.781296 0.626506
vt 0.346571 0.518763
vt 0.422412 0.426756
vt 0.426125 0.348739
vt 0.376606 0.205455
vt 0.590886 0.223106
vt 0.404535 0.296090
vt 0.285750 0.613027
vt 0.619398 0.454090
vt 0.684138 0.398132
vt 0.812982 0.371596
vt 0.954336 0.278374
vt 0.781296 0.626506
vt 0.346571 0.518763
vt 0.422412 0.426756
vt 0.426125 0.348738
vt 0.376605 0.205455
vt 0.590886 0.223106
vt 0.404535 0.296090
vt 0.285750 0.278374
vt 0.781296 0.626506
vt 0.346571 0.518763
vt 0.422412 0.426756
vt 0.426125 0.348739
vt 0.376606 0.205455
vt 0.590886 0.223106
vt 0.404535 0.296090
vt 0.285750 0.613027
vt 0.619398 0.454090
vt 0.684138 0.398132
vt 0.812982 0.371596
vt 0.954336 0.278374
vt 0.781296 0.626506
vt 0.346571 0.518763
vt 0.422412 0.426756
vt 0.426125 0.348738
vt 0.376605 0.205455
vt 0.590886 0.223106
vt 0.404535 0.296090
vt 0.285750 0.278374
vt 0.781296 0.626506
vt 0.346571 0.518763
vt 0.422412 0.426756
vt 0.426125 0.348739
vt 0.376606 0.205455
vt 0.590886 0.223106
vt 0.404535 0.296090
vt 0.285750 0.613027
vt 0.619398 0.454090
vt 0.684138 0.398132
vt 0.812982 0.371596
vt 0.954336 0.278374
vt 0.781296 0.626506
vt 0.346571 0.518763
vt 0.422412 0.426756
vt 0.426125 0.348738
vt 0.376605 0.205455
vt 0.590886 0.223106
vt 0.404535 0.296090
vt 0.285750 0.278374
vt 0.781296 0.626506
vt 0.346571 0.518763
vt 0.422412 0.426756
vt 0.426125 0.348739
vt 0.376606 0.205455
vt 0.590886 0.223106
vt 0.404535 0.296090
vt 0.285750 0.781364
vt 0.013524 0.781364
vt 0.045924 0.781364
vt 0.045924 0.781364
vt 0.013524 1.000000

f 2/2 8/8 9/9
f 2/2 9/9 3/3
f 3/3 9/9 10/10
f 3/3 10/10 4/4
f 4/4 10/10 11/11
f 4/4 11/11 5/5
f 5/5 11/11 12/12
f 5/5 12/12 6/6
f 6/6 12/12 13/13
f 6/6 13/13 7/7
f 7/7 13/13 8/8
f 7/7 8/8 2/2
f 8/8 14/14 15/15
f 8/8 15/15 9/9
f 9/9 15/15 16/16
f 9/9 16/16 10/10
f 10/10 16/16 17/17
f 10/10 17/17 11/11
f 11/11 17/17 18/18
f 11/11 18/18 12/12
f 12/12 18/18 19/19
f 12/12 19/19 13/13
f 13/13 19/19 14/14
f 13/13 14/14 8/8
f 14/14 20/20 21/21
f 14/14 21/21 15/15
f 15/15 21/21 22/22
f 15/15 22/22 16/16
f 16/16 22/22 23/23
f 16/16 23/23 17/17
f 17/17 23/23 24/24
f 17/17 24/24 18/18
f 18/18 24/24 25/25
f 18/18 25/25 19/19
f 19/19 25/25 20/20
f 19/19 20/20 14/14
f 27/27 31/31 28/28
f 28/28 31/31 29/29
f 29/29 31/31 30/30
f 30/30 31/31 27/27
f 32/32 36/36 37/37
f 32/32 37/37 33/33
f 33/33 37/37 38/38
f 33/33 38/38 34/34
f 34/34 38/38 39/39
f 34/34 39/39 35/35
f 35/35 39/39 36/36
f 35/35 36/36 32/32
f 40/40 33/33 41/41
f 33/33 40/40 32/32
f 41/41 34/34 42/42
f 34/34 41/41 33/33
f 42/42 35/35 43/43
f 35/35 42/42 34/34
f 43/43 32/32 40/40
f 32/32 43/43 35/35
f 44/44 41/41 45/45
f 41/41 44/44 40/40
f 45/45 42/42 46/46
f 42/42 45/45 41/41
f 46/46 43/43 47/47
f 43/43 46/46 42/42
f 47/47 40/40 44/44
f 40/40 47/47 43/43
f 48/48 145/145 49/49
f 145/145 48/48 146/146
f 49/49 147/147 50/50
f 147/147 49/49 145/145
f 50/50 148/148 51/51
f 148/148 50/50 147/147
f 51/51 146/146 48/48
f 146/146 51/51 148/148
f 48/48 49/49 53/53
f 53/53 52/52 48/48
f 53/53 50/50 54/54
f 50/50 53/53 49/49
f 50/50 51/51 55/55
f 55/55 54/54 50/50
f 55/55 48/48 52/52
f 48/48 55/55 51/51
f 52/52 53/53 61/61
f 61/61 54/54 63/63
f 63/63 55/55 64/64
f 55/55 52/52 62/62
f 57/57 60/60 56/56
f 58/58 60/60 57/57
f 59/59 60/60 58/58
f 56/56 60/60 59/59
f 62/62 61/61 56/56
f 56/56 61/61 57/57
f 61/61 62/62 52/52
f 61/61 63/63 58/58
f 57/57 61/61 58/58
f 54/54 61/61 53/53
f 63/63 64/64 58/58
f 58/58 64/64 59/59
f 55/55 63/63 54/54
f 64/64 62/62 56/56
f 59/59 64/64 56/56
f 62/62 64/64 55/55
f 2/2 3/3 1/1
f 3/3 4/4 1/1
f 4/4 5/5 1/1
f 5/5 6/6 1/1
f 6/6 7/7 1/1
f 7/7 2/2 26/26
f 27/27 28/28 26/26
f 28/28 29/29 26/26
f 29/29 30/30 26/26
