# MOD converted: oh_sword017.mod
# 242 verts, 169 faces

v -8.368361 -22.665155 -4.889882
v -9.580000 -15.985303 -6.288887
v -7.880188 -11.588354 -7.120096
v -6.817229 9.232291 -7.247394
v -6.634609 14.468467 -6.583925
v -7.406670 18.275091 -8.119406
v -5.529296 25.133499 -10.510542
v -7.994717 -22.693048 -12.123458
v -9.276583 -16.030230 -10.653480
v -8.004252 -11.609507 -10.095683
v -7.338664 9.227350 -10.844861
v -7.938789 11.846674 -10.694287
v -7.750210 18.172823 -10.008538
v -7.213974 14.456385 -6.785100
v -7.202940 11.868010 -5.489196
v -3.798767 -22.742266 -3.903343
v -2.407665 -16.110731 -5.391373
v -3.607114 -11.661023 -6.078294
v -3.981640 9.187980 -5.339750
v -3.338590 11.792945 -5.516082
v -3.423183 18.122116 -6.186732
v -4.020385 14.419021 -10.065218
v -3.425182 -22.777878 -11.136915
v -2.104248 -16.155668 -9.755961
v -3.731179 -11.682874 -9.053872
v -4.503104 9.179544 -8.947906
v -4.599625 14.422121 -9.626794
v -3.765308 18.192125 -8.119406
v -5.529296 25.133499 -10.510543
v -7.994720 -22.693094 -12.123456
v -9.276583 -16.030241 -10.653479
v -8.004251 -11.609484 -9.399569
v -4.074233 11.796763 -5.489196
v -3.798767 -22.742266 -3.903342
v -2.407665 -16.110743 -5.391376
v -3.607114 -11.661035 -4.488904
v -3.183901 -45.035133 -5.509077
v -1.950433 -42.876770 -4.496705
v -3.152426 -41.204742 -0.004816
v 0.605144 -40.840370 -2.483188
v 0.860101 -39.595001 -2.240709
v -1.242861 -38.765896 1.210687
v 1.680480 -34.839100 -1.494934
v 1.738574 -34.294445 -1.422786
v -0.510899 -33.885029 -10.234484
v -3.351417 -45.063381 -9.023433
v -2.317757 -42.889210 -10.242280
v -3.319945 -41.232967 -11.454436
v -4.349156 -42.865417 -13.997409
v 1.176130 -40.927010 -11.520114
v 0.987318 -39.646584 -12.136678
v -1.038719 -38.823524 -14.244293
v -1.289550 -39.620453 -15.033774
v 2.445909 -35.839462 -12.363953
v 2.022631 -35.256985 -12.836603
v -0.178059 -34.851551 -15.088370
v -0.253946 -35.230286 -11.420118
v -8.975773 -44.967335 -11.427916
v -8.944302 -41.136909 -12.440292
v -7.742309 -42.808910 -15.921466
v -12.695157 -40.684540 -13.693931
v -10.813423 -38.653721 -15.724583
v -10.204702 -39.465893 -17.161449
v -13.671679 -34.659191 -14.531753
v -11.465040 -33.756653 -16.734743
v -10.996140 -34.145214 -4.488907
v -3.183897 -45.035179 -3.477636
v -4.381437 -42.821377 -4.496706
v -3.152426 -41.204754 -0.004821
v 0.605151 -40.840385 -0.206558
v -1.864310 -39.532944 -2.240714
v -1.242855 -38.765896 1.210680
v 1.680491 -34.839111 0.781695
v -0.985842 -34.232372 -1.422794
v -0.510896 -33.885052 -5.674540
v -8.808253 -44.939049 -4.463487
v -7.774590 -42.764896 -5.682333
v -8.776782 -41.108639 -6.894490
v -9.805992 -42.741051 -1.928872
v -13.266148 -40.597900 -1.686888
v -10.779987 -39.378391 -3.797959
v -11.017567 -38.596119 -4.411541
v -13.056295 -39.352291 -0.913331
v -14.451860 -35.454376 -0.861014
v -11.742799 -34.943279 -3.114274
v -11.812648 -34.586418 -3.585431
v -14.019384 -34.916641 -11.420115
v -8.975780 -44.967323 -11.427911
v -8.944305 -41.136909 -10.408842
v -10.173320 -42.753506 -15.921454
v -12.695171 -40.684528 -13.693921
v -10.813431 -38.653709 -13.447942
v -12.929135 -39.403847 -17.161438
v -13.671693 -34.659161 -14.531745
v -11.465051 -33.756653 -14.458095
v -13.720576 -34.083145 -8.472882
v -11.510781 -33.322758 -8.304641
v -9.285782 -22.180754 -14.440456
v -11.327983 -27.629185 -16.714561
v -16.291363 -35.704975 -18.035444
v -14.381407 -32.572498 -11.151733
v -10.514105 -19.402739 -2.451940
v -6.479543 -33.381668 -4.607857
v -6.196663 -22.216953 -1.539030
v -0.547252 -27.755516 3.703079
v 0.770091 -35.904930 2.076217
v 2.424365 -32.769356 -2.877481
v -3.599948 -19.483761 -5.736290
v -10.999047 -19.364403 -2.599261
v -12.388341 -27.545349 1.739081
v -14.058308 -35.645187 -0.151259
v -15.346620 -32.457413 -1.772986
v -16.993067 -35.610821 -3.362363
v -9.015339 -19.387621 -1.366284
v -5.456005 -39.531410 -7.697806
v -7.002086 -160.344925 -5.709105
v -8.749740 -78.260948 -5.507489
v -9.060723 -54.027599 -1.484347
v -5.650235 -49.167244 -4.486496
v -3.445866 -74.579689 -3.083084
v -2.310940 -78.404884 -2.173315
v -1.969425 -123.808296 -5.042244
v -3.736614 -54.138023 -9.707932
v -12.426475 -39.449718 -9.550638
v -12.390615 -49.088295 -11.124412
v -8.992662 -74.514717 -12.512310
v -10.190223 -78.312553 -13.043892
v -11.053129 -123.714653 -10.829696
v -8.572740 -54.081364 -6.223253
v 0.356271 -39.663891 -6.341312
v 0.162044 -49.299664 -5.042243
v -3.736614 -54.138035 -14.564900
v -6.614201 -39.582195 -14.407606
v -6.578339 -49.220688 -10.829697
v -8.572741 -54.081364 -1.366282
v -5.456005 -39.531410 -1.484348
v -5.650236 -49.167233 -9.707932
v -12.426478 -39.449780 -9.550637
v -12.390616 -49.088284 -7.977805
v -5.985800 -33.556416 -8.472885
v -11.510779 -33.322746 -8.304641
v -9.285781 -22.180754 -13.504227
v -5.489828 -33.459930 -11.393828
v -5.588990 -22.265091 -11.151734
v -10.514103 -19.402712 -14.440460
v -11.327980 -27.629200 -19.649384
v -12.779295 -35.785015 -18.035442
v -14.381411 -32.572487 -16.714560
v -16.291365 -35.704964 -13.135483
v -8.140172 -19.456795 -2.451941
v -6.479541 -33.381653 -4.607853
v -6.196661 -22.216980 1.739074
v -14.058311 -35.645199 -1.772985
v -16.993074 -35.610786 -7.483283
v -0.458592 -33.518898 -7.697040
v -2.499872 -22.301252 -2.877478
v -3.599945 -19.483749 -1.539028
v -0.547251 -27.755516 0.768264
v 4.282155 -35.984943 2.076225
v 2.424358 -32.769367 3.703087
v 0.770085 -35.904903 -4.861228
v -1.226020 -19.537865 -14.173306
v 4.983866 -36.079102 -17.685373
v 2.049102 -36.044662 -6.223253
v 0.356272 -39.663891 -7.697806
v -7.002086 -160.344925 -9.886456
v -3.750755 -78.374847 -10.364521
v -3.248368 -54.160057 -6.341312
v 0.162041 -49.299675 -4.486496
v -3.445866 -74.579689 -3.083084
v -2.310942 -78.404877 -2.173315
v -1.969425 -123.808296 -5.042243
v -3.736613 -54.138035 -14.564900
v -6.614201 -39.582195 -14.407606
v -6.578338 -49.220711 -11.124411
v -8.992660 -74.514709 -12.512314
v -10.190223 -78.312569 -13.043891
v -11.053128 -123.714638 -10.829697
v -8.572741 -54.081364 -13.504227
v -5.489832 -33.459953 -11.393829
v -5.588993 -22.265079 -14.440458
v -11.327980 -27.629162 -19.649382
v -12.779298 -35.785042 -18.035442
v -14.381411 -32.572449 -13.135484
v -8.140175 -19.456856 -7.483283
v -0.458592 -33.518898 -7.697039
v -2.499872 -22.301229 -1.539030
v -0.547252 -27.755516 0.768265
v 4.282153 -35.984932 2.076225
v 2.424358 -32.769356 -4.861229
v -1.226022 -19.537865 -12.650593
v -2.724778 -19.552916 -13.380219
v 0.513106 -27.839329 -14.173308
v 4.983863 -36.079102 -15.807958
v 3.389577 -32.884315 -17.685373
v 2.049103 -36.044678 -10.276668
v -0.741073 -19.576189 -10.242280
v -3.319945 -41.232967 -12.136678
v -1.038719 -38.823524 -10.234484
v -3.351417 -45.063381 -13.997409
v 1.176130 -40.927010 -12.836603
v -0.178059 -34.851551 -15.033774
v 2.445909 -35.839462 -5.682333
v -8.776782 -41.108639 -3.797959
v -11.017567 -38.596119 -5.674540
v -8.808253 -44.939049 -1.928872
v -13.266148 -40.597900 -3.114274
v -11.812648 -34.586418 -0.913331
v -14.451860 -35.454376 -8.472882
v -11.510781 -33.322758 -8.304641
v -9.285782 -22.180754 -4.607857
v -6.196663 -22.216953 -2.451940
v -6.479543 -33.381668 -4.607857
v -6.196663 -22.216953 -3.362363
v -9.015339 -19.387621 -0.151259
v -15.346620 -32.457413 1.739081
v -14.058308 -35.645187 -2.599261
v -12.388341 -27.545349 -9.707932
v -12.426478 -39.449780 -1.366282
v -5.456005 -39.531410 -16.714560
v -16.291365 -35.704964 -19.649384
v -12.779295 -35.785015 3.703087
v 0.770085 -35.904903 0.768264
v 4.282155 -35.984943 -2.451941
v -6.479541 -33.381653 -2.877478
v -3.599945 -19.483749 -13.504227
v -5.489828 -33.459930 -4.607853
v -6.196661 -22.216980 -11.393828
v -5.588990 -22.265091 -8.304641
v -9.285781 -22.180754 -7.697040
v -2.499872 -22.301252 -13.504227
v -5.489832 -33.459953 -11.393829
v -5.588993 -22.265079 -7.697039
v -2.499872 -22.301229 -7.483283
v -0.458592 -33.518898 -10.276668
v -0.741073 -19.576189 -7.697039
v -2.499872 -22.301229 -15.807958
v 3.389577 -32.884315 -14.173308
v 4.983863 -36.079102 -13.380219
v 0.513106 -27.839329 -13.380219
v 0.513106 -27.839329 -12.650593
v -2.724778 -19.552916 0.388124

vt 0.536554 0.612037
vt 0.605198 0.611877
vt 0.654869 0.611103
vt 0.823550 0.611045
vt 0.877568 0.611094
vt 0.915710 0.612054
vt 0.980095 0.655524
vt 0.538033 0.675337
vt 0.605320 0.656304
vt 0.654778 0.642115
vt 0.824074 0.652725
vt 0.852731 0.651952
vt 0.914966 0.642568
vt 0.876735 0.612122
vt 0.852213 0.566395
vt 0.538337 0.542772
vt 0.605212 0.569007
vt 0.654377 0.580098
vt 0.823023 0.570906
vt 0.851365 0.571678
vt 0.915787 0.582781
vt 0.874822 0.611876
vt 0.536554 0.612037
vt 0.605198 0.611877
vt 0.654869 0.611103
vt 0.823550 0.611045
vt 0.877568 0.611094
vt 0.915710 0.612054
vt 0.980095 0.655524
vt 0.538033 0.675337
vt 0.605320 0.656304
vt 0.654778 0.612122
vt 0.852213 0.566395
vt 0.538337 0.542772
vt 0.605212 0.569007
vt 0.654377 0.975650
vt 0.369910 0.933506
vt 0.378837 0.894405
vt 0.382052 0.977288
vt 0.506123 0.932229
vt 0.479116 0.890356
vt 0.454576 0.978897
vt 0.561770 0.919232
vt 0.533146 0.874196
vt 0.500734 0.839379
vt 0.732276 0.888386
vt 0.721895 0.933854
vt 0.718156 0.778545
vt 0.719434 0.838869
vt 0.573882 0.891265
vt 0.605287 0.938563
vt 0.633824 0.777065
vt 0.603217 0.836998
vt 0.509174 0.904984
vt 0.542459 0.957354
vt 0.580149 0.762003
vt 0.540600 0.693773
vt 0.372126 0.775936
vt 0.384406 0.736393
vt 0.381155 0.692117
vt 0.509879 0.780032
vt 0.457749 0.737685
vt 0.482567 0.690490
vt 0.566155 0.796374
vt 0.504430 0.750828
vt 0.537207 0.975650
vt 0.369910 0.933506
vt 0.378837 0.894405
vt 0.382052 0.977288
vt 0.506123 0.932229
vt 0.479116 0.890356
vt 0.454576 0.978897
vt 0.561770 0.919232
vt 0.533146 0.874196
vt 0.500734 0.839379
vt 0.732276 0.888386
vt 0.721895 0.933854
vt 0.718156 0.778545
vt 0.719434 0.838869
vt 0.573882 0.891265
vt 0.605287 0.938563
vt 0.633824 0.777065
vt 0.603217 0.836998
vt 0.509174 0.904984
vt 0.542459 0.957354
vt 0.580149 0.762003
vt 0.540600 0.693773
vt 0.372126 0.775936
vt 0.384406 0.736393
vt 0.381155 0.692117
vt 0.509879 0.780032
vt 0.457749 0.737685
vt 0.482567 0.690490
vt 0.566155 0.796374
vt 0.504430 0.750828
vt 0.537207 0.918911
vt 0.836524 0.921955
vt 0.964076 0.978887
vt 0.856854 0.914046
vt 0.764897 0.952818
vt 0.786780 0.949655
vt 0.946794 0.734421
vt 0.831175 0.731359
vt 0.959455 0.674102
vt 0.851622 0.739313
vt 0.759140 0.700320
vt 0.781147 0.703501
vt 0.942075 0.861376
vt 0.952561 0.831018
vt 0.859157 0.878439
vt 0.733264 0.858091
vt 0.786384 0.898356
vt 0.763658 0.839187
vt 0.972686 0.478116
vt 0.946930 0.443519
vt 0.366057 0.443688
vt 0.673530 0.443780
vt 0.848881 0.476187
vt 0.898461 0.503916
vt 0.710465 0.517409
vt 0.675076 0.515711
vt 0.503262 0.500613
vt 0.862791 0.415956
vt 0.946260 0.417254
vt 0.898477 0.379606
vt 0.710149 0.366938
vt 0.673698 0.357008
vt 0.499259 0.387433
vt 0.862891 0.478116
vt 0.946930 0.476187
vt 0.898461 0.500613
vt 0.862791 0.415956
vt 0.946260 0.417254
vt 0.898477 0.387433
vt 0.862891 0.523612
vt 0.947224 0.519912
vt 0.898429 0.370813
vt 0.947137 0.371734
vt 0.898429 0.838271
vt 0.488727 0.800675
vt 0.457599 0.921955
vt 0.964076 0.875706
vt 0.457528 0.942862
vt 0.985437 0.949655
vt 0.946794 0.978887
vt 0.856854 0.933225
vt 0.735630 0.952818
vt 0.786780 0.914046
vt 0.764897 0.971021
vt 0.966173 0.875706
vt 0.457528 0.731359
vt 0.959455 0.858246
vt 0.373339 0.817952
vt 0.373393 0.875706
vt 0.457528 0.710333
vt 0.980939 0.703501
vt 0.942075 0.674102
vt 0.851622 0.720025
vt 0.729706 0.700320
vt 0.781147 0.739313
vt 0.759140 0.682013
vt 0.961564 0.858246
vt 0.373339 0.817952
vt 0.373393 0.478116
vt 0.946930 0.443519
vt 0.366057 0.443688
vt 0.673530 0.443780
vt 0.848881 0.476187
vt 0.898461 0.503916
vt 0.710465 0.517409
vt 0.675076 0.515711
vt 0.503262 0.500613
vt 0.862791 0.415956
vt 0.946260 0.417254
vt 0.898477 0.379606
vt 0.710149 0.366938
vt 0.673698 0.357008
vt 0.499259 0.387433
vt 0.862891 0.918911
vt 0.836524 0.921955
vt 0.964076 0.978887
vt 0.856854 0.914046
vt 0.764897 0.952818
vt 0.786780 0.949655
vt 0.946794 0.734421
vt 0.831175 0.731359
vt 0.959455 0.674102
vt 0.851622 0.739313
vt 0.759140 0.700320
vt 0.781147 0.703501
vt 0.942075 0.861376
vt 0.952561 0.831018
vt 0.859157 0.878439
vt 0.733264 0.858091
vt 0.786384 0.898356
vt 0.763658 0.839187
vt 0.972686 0.733229
vt 0.715709 0.728536
vt 0.631658 0.827388
vt 0.729781 0.829285
vt 0.571918 0.709808
vt 0.578163 0.831150
vt 0.507426 0.733229
vt 0.715709 0.728536
vt 0.631658 0.827388
vt 0.729781 0.829285
vt 0.571918 0.709808
vt 0.578163 0.831150
vt 0.507426 0.893305
vt 0.838044 0.890143
vt 0.970508 0.868430
vt 0.992692 0.762709
vt 0.836058 0.765871
vt 0.968522 0.794638
vt 0.950575 0.798764
vt 0.784398 0.758499
vt 0.761672 0.825838
vt 0.857171 0.414733
vt 0.983690 0.476450
vt 0.982449 0.817952
vt 0.373393 0.858246
vt 0.373339 0.817952
vt 0.373393 0.858246
vt 0.373339 0.800675
vt 0.457599 0.703501
vt 0.942075 0.800675
vt 0.457599 0.551081
vt 0.409670 0.666562
vt 0.512677 0.660375
vt 0.403419 0.557267
vt 0.518928 0.893305
vt 0.838044 0.890143
vt 0.970508 0.868430
vt 0.992692 0.762709
vt 0.836058 0.794638
vt 0.950575 0.765871
vt 0.968522 0.798764
vt 0.784398 0.758499
vt 0.761672 0.825838
vt 0.857171 0.831018
vt 0.859157 0.861376
vt 0.952561 1.000000

f 97/97 98/98 102/102
f 101/101 100/100 97/97
f 99/99 101/101 97/97
f 102/102 99/99 97/97
f 103/103 108/108 104/104
f 107/107 103/103 106/106
f 105/105 103/103 107/107
f 108/108 103/103 105/105
f 210/210 109/109 211/211
f 109/109 210/210 110/110
f 112/112 113/113 111/111
f 110/110 210/210 112/112
f 210/210 113/113 112/112
f 211/211 114/114 212/212
f 213/213 214/214 215/215
f 216/216 217/217 213/213
f 218/218 216/216 213/213
f 211/211 109/109 114/114
f 110/110 114/114 109/109
f 215/215 218/218 213/213
f 148/148 147/147 149/149
f 221/221 222/222 140/140
f 140/140 141/141 221/221
f 142/142 144/144 150/150
f 140/140 222/222 143/143
f 142/142 150/150 145/145
f 146/146 145/145 150/150
f 154/154 140/140 153/153
f 140/140 154/154 141/141
f 140/140 151/151 153/153
f 160/160 161/161 159/159
f 223/223 140/140 224/224
f 140/140 223/223 225/225
f 152/152 162/162 156/156
f 140/140 155/155 224/224
f 152/152 157/157 162/162
f 158/158 162/162 226/226
f 164/164 163/163 140/140
f 140/140 227/227 164/164
f 140/140 163/163 155/155
f 228/228 229/229 230/230
f 228/228 231/231 229/229
f 180/180 185/185 181/181
f 184/184 180/180 183/183
f 182/182 180/180 184/184
f 185/185 180/180 182/182
f 186/186 187/187 191/191
f 190/190 189/189 186/186
f 188/188 190/190 186/186
f 191/191 188/188 186/186
f 232/232 233/233 192/192
f 192/192 193/193 232/232
f 195/195 194/194 196/196
f 193/193 195/195 232/232
f 232/232 195/195 196/196
f 233/233 234/234 197/197
f 235/235 236/236 237/237
f 238/238 235/235 239/239
f 240/240 235/235 238/238
f 233/233 197/197 192/192
f 241/241 242/242 197/197
f 236/236 235/235 240/240
f 9/9 8/8 10/10
f 10/10 9/9 11/11
f 11/11 10/10 12/12
f 12/12 11/11 13/13
f 14/14 12/12 6/6
f 7/7 13/13 5/5
f 13/13 14/14 12/12
f 15/15 5/5 17/17
f 16/16 17/17 18/18
f 17/17 18/18 19/19
f 18/18 19/19 20/20
f 19/19 20/20 21/21
f 20/20 22/22 6/6
f 21/21 7/7 5/5
f 22/22 21/21 20/20
f 5/5 15/15 31/31
f 30/30 31/31 32/32
f 31/31 32/32 11/11
f 32/32 11/11 12/12
f 11/11 12/12 13/13
f 12/12 14/14 28/28
f 13/13 29/29 27/27
f 14/14 13/13 12/12
f 27/27 33/33 35/35
f 35/35 34/34 36/36
f 36/36 35/35 19/19
f 19/19 36/36 20/20
f 20/20 19/19 21/21
f 22/22 20/20 28/28
f 29/29 21/21 27/27
f 21/21 22/22 20/20
f 33/33 27/27 37/37
f 38/38 41/41 40/40
f 37/37 41/41 38/38
f 39/39 42/42 40/40
f 45/45 44/44 41/41
f 42/42 45/45 47/47
f 50/50 51/51 48/48
f 51/51 52/52 47/47
f 51/51 48/48 198/198
f 199/199 53/53 198/198
f 53/53 49/49 200/200
f 53/53 201/201 49/49
f 53/53 200/200 51/51
f 54/54 55/55 50/50
f 55/55 56/56 51/51
f 56/56 52/52 53/53
f 202/202 57/57 199/199
f 202/202 53/53 201/201
f 57/57 203/203 59/59
f 63/63 62/62 59/59
f 58/58 61/61 62/62
f 61/61 64/64 66/66
f 63/63 64/64 67/67
f 71/71 68/68 70/70
f 71/71 67/67 68/68
f 72/72 69/69 70/70
f 74/74 75/75 71/71
f 75/75 72/72 77/77
f 81/81 80/80 78/78
f 82/82 81/81 77/77
f 78/78 81/81 204/204
f 83/83 205/205 204/204
f 79/79 83/83 206/206
f 207/207 83/83 79/79
f 206/206 83/83 81/81
f 85/85 84/84 80/80
f 86/86 85/85 81/81
f 82/82 86/86 83/83
f 87/87 208/208 205/205
f 83/83 208/208 207/207
f 209/209 87/87 89/89
f 92/92 93/93 89/89
f 91/91 88/88 92/92
f 94/94 91/91 96/96
f 94/94 93/93 117/117
f 122/122 121/121 118/118
f 117/117 121/121 123/123
f 119/119 118/118 123/123
f 118/118 120/120 116/116
f 127/127 128/128 118/118
f 127/127 117/117 129/129
f 118/118 125/125 129/129
f 126/126 118/118 116/116
f 117/117 128/128 119/119
f 115/115 124/124 125/125
f 118/118 119/119 124/124
f 125/125 119/119 130/130
f 137/137 131/131 130/130
f 136/136 137/137 131/131
f 137/137 132/132 133/133
f 134/134 139/139 133/133
f 139/139 138/138 134/134
f 135/135 139/139 219/219
f 130/130 133/133 219/219
f 220/220 130/130 167/167
f 171/171 172/172 168/168
f 171/171 167/167 173/173
f 168/168 169/169 173/173
f 170/170 168/168 166/166
f 178/178 177/177 168/168
f 167/167 177/177 179/179
f 175/175 168/168 179/179
f 168/168 176/176 166/166
f 178/178 167/167 169/169
f 174/174 165/165 175/175
f 169/169 168/168 174/174
