# MOD converted: pet_hedgehog_b.mod
# 858 verts, 819 faces

v 80.650681 -42.007694 -46.584297
v 89.032616 -34.016747 -25.824556
v 83.784416 -28.995253 -28.253496
v 94.218719 -37.555576 -5.889549
v 88.526108 -34.167435 -4.013201
v 87.448624 -21.502213 -25.370682
v 93.439011 -19.694157 -26.710129
v 83.138535 -48.246323 -0.000013
v 15.630078 63.504711 -0.000045
v 41.245972 80.782608 -0.000043
v 22.683111 72.705734 -0.000029
v 35.536770 87.074234 -0.000042
v 35.483868 96.577827 -46.368011
v 37.211151 21.643177 -37.804333
v 37.360912 53.802063 -21.331688
v 36.142529 71.996490 -7.760424
v 16.202978 63.430710 -25.362106
v 11.530560 22.492279 -16.132935
v 18.049152 60.572243 -7.662354
v 38.416405 79.885002 -6.301165
v 33.283714 86.112030 -15.018222
v 32.270092 73.241898 -31.857147
v 40.171268 64.777313 -15.658839
v 25.058474 70.548935 -36.296410
v 19.661478 22.316048 -29.454275
v 21.792198 46.603535 -19.947731
v 19.456711 49.131287 -33.734818
v 31.126081 63.902714 -28.734810
v 30.921518 70.898392 -20.178205
v 26.108131 70.813972 -35.064468
v 24.802088 52.732307 -7.555170
v 32.849846 79.291931 -0.000040
v 29.371656 78.774719 -0.000028
v 30.201723 86.388046 -14.241186
v 9.660850 21.781368 -45.491997
v 66.615761 67.910667 -35.240570
v 49.602886 79.560928 -43.406395
v 37.716835 36.971340 -51.842350
v 92.318611 46.438164 -13.945490
v 11.109506 43.277996 -24.993164
v 14.783588 40.782204 -35.894650
v 22.791418 38.682156 -29.007027
v 16.719036 49.695976 -34.481415
v 19.530323 55.560162 -33.682384
v 13.448120 63.180767 -20.589874
v 15.934572 50.141373 -28.367096
v 14.567569 69.918091 -20.574713
v 14.335567 69.722214 -28.451532
v 13.323429 56.229229 -16.585066
v 13.576117 62.238354 -28.520454
v 8.708359 55.106735 -33.044022
v 5.554286 61.050179 -20.425671
v 8.432978 54.154037 -20.231020
v 6.971963 68.019676 -15.993692
v 4.981548 61.732452 -30.478384
v 0.003598 48.042595 -31.326202
v 0.004268 59.081558 -23.252962
v 0.003599 45.059937 -15.899688
v 0.004256 59.542072 -24.083735
v 5.925128 47.270641 -31.146837
v 5.483233 49.947090 -16.916281
v 5.162987 49.700699 -16.073149
v 0.003598 48.353775 -27.884789
v 7.096336 67.832047 -57.795448
v 52.588699 30.385202 -34.522602
v 50.783112 60.680840 -14.991435
v 81.416153 63.280365 -25.568577
v 105.218140 61.991146 -24.920382
v 86.074326 34.520493 0.000005
v 63.531815 74.612778 0.000048
v 11.287128 44.101616 0.000119
v 9.145842 21.925999 0.000006
v 73.780144 68.442535 0.000061
v 112.423782 40.847946 -40.323517
v 62.126038 46.279613 -33.874020
v 33.822216 72.501053 0.000043
v 93.581520 46.369911 -44.474075
v 43.606625 33.944584 -52.795521
v 36.170189 37.618595 -41.553028
v 31.017883 32.655594 -52.844559
v 50.085670 54.890774 -39.401768
v 32.611843 44.552643 -18.398075
v 49.595943 73.230042 -33.780678
v 20.588867 63.169739 -28.974428
v 20.822029 71.316467 -20.634932
v 20.418198 71.608002 -21.095989
v 13.314705 55.755127 -35.843842
v 25.380320 46.338184 -35.979206
v 28.535110 52.447117 -33.819557
v 26.701839 63.523258 -26.680353
v 2.380010 65.786491 -20.006622
v 2.376944 65.773582 -34.099342
v 19.443264 -12.673957 -13.768828
v 15.183161 -10.161963 -29.403437
v 17.565737 -9.023663 -10.334154
v 21.568302 -30.453199 -22.197495
v 17.451361 -9.670506 -38.793240
v 35.414963 -12.649528 -26.183676
v 26.236506 -25.581121 -34.965897
v 28.413364 -20.619198 -16.037611
v 18.416300 -17.154196 -37.015976
v 47.046432 -19.953758 -34.916969
v 34.534485 -23.184738 -30.552723
v 64.880768 -16.742655 -16.487169
v 22.067575 -23.219915 -14.079909
v 12.181943 1.638096 -24.413923
v 14.422356 1.608685 -35.228371
v 21.097120 1.449470 -50.218082
v 35.888454 14.055437 -28.436789
v 21.876812 -25.029802 -34.067947
v 20.651974 -20.344273 -33.686504
v 13.801790 -19.881699 -20.120209
v 20.593256 -24.840059 -29.128735
v 13.756777 -10.806490 -22.110449
v 13.713049 -11.020110 -28.544056
v 13.936597 -26.758129 -20.854162
v 13.923538 -26.533653 -16.639940
v 13.692835 -18.957979 -27.580082
v 8.066341 -29.843651 -33.242477
v 5.915317 -25.332314 -20.540146
v 8.114824 -30.088772 -21.143682
v 6.370378 -16.757391 -16.246433
v 5.598232 -25.382416 -31.692101
v -0.003778 -34.720078 -31.759212
v -0.003779 -26.936998 -28.629265
v 2.467278 -21.195988 -23.495462
v -0.003783 -38.580490 -16.018379
v -0.004264 -26.890911 -19.444138
v 2.466034 -21.174652 -23.786724
v 5.367733 -36.444744 -30.311405
v 5.264335 -33.713646 -17.401678
v 5.189399 -33.965084 -15.828792
v -0.003771 -34.697136 -29.272959
v 6.757226 -16.719589 -41.777916
v 48.588593 -12.545360 -36.148003
v 102.604576 31.373695 -26.331690
v 75.359726 2.893547 -45.381851
v 44.672054 10.869878 -38.946209
v 58.471706 -7.914770 -42.695858
v 39.760262 1.534637 -42.011833
v 30.775221 10.212441 -47.857613
v 80.446404 0.112120 0.000240
v 79.426971 -16.961988 0.000223
v 13.986922 -10.584305 0.000308
v 20.129679 -31.304083 0.000189
v 104.459358 0.494547 0.000130
v 96.121468 18.962234 0.000220
v 91.360519 -9.361500 -10.318815
v 85.873627 -1.684317 -17.071920
v 22.953455 -29.885025 0.000184
v 11.406701 1.598269 0.000280
v 18.036739 -23.141546 -11.398854
v 19.370501 -22.308928 -43.620525
v 58.505680 15.836325 -54.718067
v 64.250824 8.217895 -33.750614
v 22.287935 -7.753582 -41.611015
v 32.493271 1.430726 -36.520454
v 26.067005 -12.704682 -0.000046
v 92.967575 74.193489 -28.455198
v 90.757736 -1.877321 -25.806179
v 56.495338 65.469955 -18.532581
v 71.730927 82.492401 -21.353558
v 36.462563 83.942139 0.000006
v 54.094479 89.919472 -48.959797
v 55.489918 4.653668 -52.968201
v 49.412312 4.480829 -30.854103
v 79.624344 51.109322 -33.776245
v 76.061531 22.610170 -41.810982
v 66.674362 5.061020 -56.461014
v 74.745430 26.016068 -42.831059
v 59.297207 29.131668 -14.903627
v 92.369858 31.911850 -8.688894
v 90.471535 55.906937 -12.746458
v 93.738754 8.438033 -7.057494
v 94.459740 21.220207 -19.924908
v 107.476440 19.280348 -23.351091
v 96.662979 21.811859 -21.548857
v 90.763161 9.583006 -25.228474
v 75.261688 62.694157 -41.953533
v 29.518976 21.938095 -26.346199
v 26.195702 -29.204750 -35.126884
v 46.540096 -24.733232 -32.620914
v 34.688728 -27.517986 -28.765831
v 63.302654 -22.926689 0.000254
v 76.130569 -21.886019 -16.857800
v 75.375458 -16.852318 -16.857801
v 73.247292 -21.849030 -27.587303
v 74.071358 -11.821264 -28.822081
v 27.016968 71.264015 46.368027
v 37.211151 21.643175 37.804337
v 37.360916 53.802063 21.331697
v 36.142529 71.996490 7.760456
v 16.202982 63.430714 25.362120
v 11.530560 22.492279 16.132946
v 18.049154 60.572243 7.662365
v 38.416405 79.884995 6.301176
v 33.283714 86.112030 15.018232
v 32.270092 73.241898 31.857155
v 40.171265 64.777306 15.658850
v 25.058475 70.548935 36.296417
v 19.661480 22.316044 29.454285
v 21.792198 46.603539 19.947739
v 19.456713 49.131294 33.734821
v 31.126081 63.902718 28.734821
v 30.921520 70.898392 20.178215
v 26.108131 70.813965 35.064468
v 24.802088 52.732307 7.555179
v 32.849846 79.291931 14.241191
v 9.660843 21.781364 45.492004
v 66.615761 67.910660 35.240578
v 49.602886 79.560936 43.406406
v 37.716839 36.971336 51.842369
v 92.318604 46.438164 13.945495
v 11.109506 43.277992 24.993181
v 14.783593 40.782204 35.894661
v 22.791420 38.682156 29.007034
v 16.719032 49.695980 34.481422
v 19.530327 55.560162 33.682392
v 13.448120 63.180767 20.589882
v 15.934574 50.141373 28.367105
v 14.567570 69.918091 20.574720
v 14.335567 69.722214 28.451542
v 13.323429 56.229229 16.585077
v 13.576115 62.238354 28.520462
v 8.708359 55.106735 33.044029
v 5.554286 61.050179 20.425680
v 8.432978 54.154037 20.231031
v 6.971962 68.019676 15.993702
v 4.981547 61.732452 30.478394
v 0.003600 48.042595 31.326210
v 0.004268 59.081554 23.252972
v 0.003599 45.059937 15.899702
v 0.004256 59.542072 24.083744
v 5.925127 47.270641 31.146847
v 5.483235 49.947090 16.916292
v 5.162989 49.700699 16.073160
v 0.003597 48.353771 27.884798
v 7.096336 67.832039 57.795464
v 52.588707 30.385202 34.522610
v 50.783112 60.680832 14.991442
v 81.416153 63.280365 25.568581
v 105.218140 61.991146 24.920387
v 86.074341 34.520493 40.323528
v 62.126034 46.279610 33.874023
v 33.822216 72.501053 44.474091
v 43.606632 33.944588 52.795540
v 36.170208 37.618595 41.553043
v 31.017887 32.655594 52.844574
v 50.085670 54.890762 39.401787
v 32.611843 44.552647 18.398087
v 49.595943 73.230049 33.780685
v 20.588867 63.169735 28.974438
v 20.822029 71.316467 20.634941
v 20.418201 71.608002 21.095997
v 13.314705 55.755127 35.843849
v 25.380318 46.338196 35.979214
v 28.535110 52.447121 33.819565
v 26.701839 63.523251 26.680363
v 2.380011 65.786491 20.006630
v 2.376944 65.773582 34.099350
v 19.443264 -12.673956 13.768856
v 15.183158 -10.161964 29.403444
v 17.565737 -9.023661 10.334163
v 21.568302 -30.453199 22.197504
v 17.451359 -9.670504 38.793259
v 35.414967 -12.649538 26.183683
v 26.236506 -25.581121 34.965904
v 28.413364 -20.619200 16.037622
v 18.416302 -17.154205 37.015987
v 47.046436 -19.953760 34.916977
v 34.534485 -23.184738 30.552731
v 64.880768 -16.742653 16.487179
v 22.067575 -23.219912 14.079932
v 12.181952 1.638096 24.413940
v 14.422360 1.608686 35.228378
v 21.097111 1.449470 50.218090
v 35.888454 14.055438 28.436798
v 21.876812 -25.029800 34.067955
v 20.651974 -20.344275 33.686516
v 13.801783 -19.881689 20.120218
v 20.593254 -24.840059 29.128746
v 13.756777 -10.806489 22.110458
v 13.713049 -11.020110 28.544065
v 13.936598 -26.758131 20.854172
v 13.923538 -26.533655 16.639952
v 13.692836 -18.957981 27.580090
v 8.066341 -29.843651 33.242485
v 5.915317 -25.332312 20.540154
v 8.114824 -30.088772 21.143690
v 6.370379 -16.757391 16.246443
v 5.598232 -25.382416 31.692110
v -0.003778 -34.720078 31.759222
v -0.003778 -26.936998 28.629272
v 2.467278 -21.195988 23.495472
v -0.003784 -38.580490 16.018391
v -0.004264 -26.890911 19.444147
v 2.466033 -21.174652 23.786734
v 5.367733 -36.444744 30.311415
v 5.264336 -33.713646 17.401690
v 5.189399 -33.965084 15.828804
v -0.003769 -34.697136 29.272966
v 6.757226 -16.719589 41.777924
v 48.588596 -12.545361 36.148006
v 102.604568 31.373693 26.331692
v 75.359734 2.893545 45.381863
v 44.672054 10.869877 38.946224
v 58.471710 -7.914770 42.695866
v 39.760258 1.534637 42.011845
v 30.775225 10.212442 47.857624
v 80.446404 0.112120 10.318834
v 85.873619 -1.684317 17.071930
v 22.953463 -29.885025 11.398860
v 19.370501 -22.308924 43.620544
v 58.505692 15.836326 54.718082
v 64.250824 8.217893 33.750622
v 22.287937 -7.753583 41.611031
v 32.493275 1.430727 36.520462
v 26.067001 -12.704679 28.455210
v 90.757729 -1.877321 25.806187
v 56.495338 65.469948 18.532589
v 71.730927 82.492401 21.353569
v 36.462563 83.942139 48.959805
v 55.489922 4.653667 52.968216
v 49.412312 4.480829 30.854107
v 79.624352 51.109322 33.776245
v 76.061531 22.610168 41.810997
v 66.674362 5.061019 56.461029
v 74.745422 26.016069 42.831078
v 59.297211 29.131668 14.903629
v 92.369865 31.911850 8.688896
v 90.471535 55.906937 12.746477
v 93.738754 8.438033 7.057499
v 94.459747 21.220207 19.924911
v 107.476440 19.280350 23.351093
v 96.662979 21.811857 21.548862
v 90.763161 9.583006 25.228483
v 75.261688 62.694157 41.953548
v 29.518978 21.938095 26.346209
v 26.195702 -29.204752 35.126892
v 46.540092 -24.733232 32.620922
v 34.688728 -27.517986 28.765846
v 63.302650 -22.926689 16.857807
v 75.375458 -16.852318 16.857817
v 73.247284 -21.849030 27.587311
v 74.071358 -11.821264 28.822092
v 27.016968 71.264000 0.000000
v 16.724569 -61.814171 0.000004
v 33.594906 -89.848152 0.000000
v 12.806017 -68.660164 0.000004
v 35.767086 -84.987610 0.000004
v 25.057037 -90.777107 0.000000
v 12.240696 -77.315804 0.000001
v 14.330745 -82.407753 0.000253
v 39.462757 -77.552521 0.000004
v 20.518570 -88.852005 0.000005
v 32.918392 -69.778984 0.000004
v 32.052349 -91.815567 17.277069
v 17.228945 -60.291176 22.528761
v 37.487896 -69.125877 8.580747
v 37.330944 -76.360619 7.672587
v 33.217022 -83.236702 7.810980
v 31.458944 -87.972916 6.949597
v 29.372158 -88.810249 7.126841
v 15.204069 -80.408730 10.373341
v 14.551855 -69.802773 15.773573
v 18.200247 -68.010620 7.909162
v 21.554098 -87.233269 28.819590
v 22.644075 -68.540916 10.900820
v 18.165953 -78.050781 28.612093
v 31.891022 -69.372345 15.095970
v 21.841293 -80.374268 12.677943
v 29.846125 -81.642151 22.526703
v 17.097336 -69.641151 3.099897
v 18.018490 -84.645607 13.246873
v 17.110395 -73.567284 8.349271
v 44.069687 -74.630638 22.092873
v 44.352112 -68.275604 15.510393
v 35.380798 -73.942200 15.598965
v 44.260395 -74.343018 5.975667
v 32.817120 -88.910545 21.571943
v 21.880579 -75.508141 20.524525
v 30.614704 -77.027527 18.489620
v 34.015907 -76.148842 25.532797
v 37.333511 -69.368958 0.000200
v 35.748138 -49.289452 15.755697
v 29.344023 -58.075371 16.500610
v 19.740309 -57.801651 -0.000002
v 15.328362 -54.219250 14.106159
v 17.162373 -55.900345 25.528381
v 51.145153 -60.872665 0.000471
v 53.068485 -75.395447 21.198925
v 53.330223 -67.075768 8.986324
v 51.065643 -73.967133 31.560604
v 34.938522 -60.206440 27.152868
v 39.485527 -60.701355 26.559572
v 20.033524 -57.400040 32.094913
v 26.955400 -58.757374 16.034718
v 52.251675 -71.350876 -17.277061
v 17.228943 -60.291176 -22.528767
v 37.487900 -69.125877 -8.580746
v 37.330944 -76.360611 -7.672588
v 33.217022 -83.236702 -7.810980
v 31.458944 -87.972916 -6.949598
v 29.372158 -88.810257 -7.126841
v 15.204070 -80.408730 -10.373339
v 14.551852 -69.802773 -15.773567
v 18.200245 -68.010620 -7.909161
v 21.554096 -87.233269 -28.819588
v 22.644081 -68.540916 -10.900814
v 18.165949 -78.050781 -28.612095
v 31.891020 -69.372345 -15.095966
v 21.841291 -80.374268 -12.677940
v 29.846128 -81.642151 -22.526701
v 17.097336 -69.641151 -3.099897
v 18.018488 -84.645607 -13.246872
v 17.110392 -73.567284 -8.349271
v 44.069679 -74.630638 -22.092875
v 44.352108 -68.275604 -15.510391
v 35.380795 -73.942200 -15.598962
v 44.260395 -74.343018 -5.975669
v 32.817120 -88.910545 -21.571938
v 21.880575 -75.508141 -20.524521
v 30.614704 -77.027527 -18.489616
v 34.015907 -76.148842 -25.532795
v 37.333515 -69.368958 -15.755697
v 29.344017 -58.075359 -16.500620
v 19.740311 -57.801651 -14.106162
v 17.162376 -55.900345 -25.528387
v 51.145157 -60.872665 -21.198931
v 53.330223 -67.075768 -8.986334
v 51.065639 -73.967140 -31.560612
v 34.938522 -60.206440 -27.152872
v 39.485519 -60.701359 -26.559582
v 20.033524 -57.400040 -32.094921
v 26.955399 -58.757374 -16.034721
v 52.251678 -71.350876 0.000306
v 18.348736 -46.421394 0.000328
v 21.677742 -36.311520 -14.419313
v 20.266373 -47.601875 -13.236732
v 24.106966 -35.678902 -17.572100
v 61.842754 -64.474976 -18.776514
v 63.548355 -60.217464 -28.264732
v 50.712215 -55.927078 -23.461281
v 59.660492 -55.199318 17.572081
v 61.842758 -64.474976 18.776506
v 63.548355 -60.217464 28.264725
v 50.712212 -55.927082 23.461267
v 59.660484 -55.199318 29.986204
v 42.517365 -52.068043 29.967068
v 32.648308 -49.622311 14.419310
v 20.266373 -47.601875 33.649029
v 35.144016 -42.290867 25.474258
v 27.874107 -48.367214 13.236740
v 24.106970 -35.678902 27.639174
v 29.652094 -35.490429 33.649036
v 37.343998 -35.168522 -29.986214
v 42.517361 -52.068047 -29.967072
v 32.648312 -49.622318 -33.649033
v 35.144016 -42.290867 -25.474264
v 27.874100 -48.367218 -27.639174
v 29.652077 -35.490417 -33.649029
v 37.343987 -35.168518 -10.790757
v 62.440090 -68.416222 -32.913445
v 45.653706 -42.855431 -11.466077
v 70.544487 -45.144264 0.000434
v 62.268623 -69.778069 0.000320
v 73.492813 -45.756672 0.000393
v 67.738976 -61.760452 -29.093763
v 54.740662 -43.279613 -32.913445
v 47.900269 -36.066513 -11.260666
v 72.079796 -39.355179 0.000312
v 73.959099 -39.844181 -29.093769
v 57.251564 -37.140369 -21.647638
v 64.531776 -43.446987 -22.439266
v 66.592583 -38.353836 -14.796206
v 89.584229 -55.668861 -17.780661
v 74.216034 -53.025612 -30.360682
v 78.543343 -43.960506 -29.253897
v 65.956230 -47.769196 -40.777134
v 67.679535 -45.643711 9.604567
v 62.440182 -67.708527 33.275513
v 40.480556 -42.969849 11.466076
v 72.002190 -47.323139 10.715560
v 70.271873 -61.191780 30.385782
v 54.952122 -45.090725 32.913452
v 47.900276 -36.066513 11.260657
v 72.079796 -39.355175 29.093775
v 57.251575 -37.140377 21.647638
v 63.464088 -46.257740 22.439260
v 66.592583 -38.353836 37.779552
v 45.964142 -41.412529 31.516119
v 49.055279 -44.163124 30.099684
v 67.919273 -42.350365 25.258528
v 78.795563 -47.396080 -33.704575
v 57.676331 -45.073727 -40.048981
v 51.654350 -40.347862 0.000347
v 71.161606 -51.581043 -25.119457
v 69.579544 -54.816208 16.143658
v 66.875862 -62.340012 -13.128835
v 68.173248 -64.071030 -5.533183
v 72.484070 -64.501526 22.398638
v 57.029095 -60.071175 24.260340
v 64.876869 -57.898937 22.194874
v 66.089401 -63.785057 31.248592
v 56.388958 -55.193802 31.184542
v 54.358803 -59.294941 31.930782
v 60.271759 -61.226372 27.950312
v 65.704491 -62.386162 -22.398657
v 57.029095 -60.071175 -24.260359
v 64.876862 -57.898933 -22.194897
v 66.089401 -63.785057 -31.248615
v 56.388954 -55.193802 -31.184559
v 54.358803 -59.294937 -31.930801
v 60.271763 -61.226372 -27.950333
v 65.704491 -62.386162 0.000318
v 75.595657 -41.748837 0.000343
v 19.680912 -38.351227 0.000316
v 17.355520 -34.526798 0.000298
v 82.930847 -39.826229 0.000256
v 88.219826 -23.202475 0.000243
v 82.875633 -18.044880 0.000289
v 17.664190 -27.244104 0.000334
v 43.929829 -39.230762 0.000217
v 45.659370 -8.339686 -34.699638
v 51.503448 -40.915520 -22.040558
v 20.720089 -32.532951 -33.299568
v 32.164749 -38.452412 -21.717888
v 71.048622 -41.528999 -37.455402
v 31.034351 -30.954258 -39.048641
v 50.434814 -36.424381 -21.570683
v 79.701385 -39.710529 -21.982012
v 83.918419 -23.156580 -36.569916
v 72.162613 -21.818062 -35.120861
v 68.503853 -38.922550 -41.462460
v 50.671658 -24.484404 -20.161463
v 23.862827 -38.177544 -23.051355
v 20.508711 -26.585268 -40.588890
v 50.901344 -17.444050 -37.659996
v 31.097904 -22.932461 -20.005310
v 79.948196 -18.155621 -34.352730
v 66.559311 -16.507160 34.699684
v 51.503445 -40.915520 22.040606
v 20.720091 -32.532951 33.299606
v 32.164749 -38.452408 21.717932
v 71.048622 -41.528999 37.455441
v 31.034348 -30.954254 39.048691
v 50.434818 -36.424381 20.677021
v 77.629471 -39.710522 21.088346
v 81.846512 -23.156582 35.219002
v 70.773643 -21.818066 33.769962
v 67.114868 -38.922550 41.462513
v 50.671650 -24.484404 20.161512
v 23.862829 -38.177544 23.051401
v 20.508709 -26.585266 40.588943
v 50.901348 -17.444050 37.660034
v 31.097904 -22.932461 20.005346
v 79.948204 -18.155619 34.352768
v 66.559311 -16.507160 0.000314
v 83.279060 -44.323551 0.000293
v 94.150383 -34.653988 -10.117208
v 91.265259 -33.879734 -7.514259
v 81.407127 -45.023186 0.000251
v 90.018219 -20.712345 -8.294278
v 88.327682 -18.957010 -8.849841
v 76.570511 -39.754681 0.000312
v 77.378433 -42.315704 0.000246
v 84.461937 -19.084492 -8.294334
v 83.397064 -19.619076 10.116745
v 91.265259 -33.879734 7.513803
v 81.407127 -45.023186 8.293831
v 88.327675 -18.957010 8.849382
v 76.570511 -39.754681 8.293879
v 83.397064 -19.619076 5.715573
v 80.650681 -42.007694 46.584312
v 89.032608 -34.016747 25.824560
v 83.784416 -28.995253 28.253504
v 94.218735 -37.555576 5.889548
v 88.526115 -34.167435 4.013205
v 87.448624 -21.502216 25.370689
v 93.439011 -19.694157 26.710136
v 83.138535 -48.246323 -4.013201
v 87.448624 -21.502213 -25.370682
v 93.439011 -19.694157 -5.715565
v 80.650681 -42.007694 -15.018222
v 32.270092 73.241898 -6.301165
v 33.283714 86.112030 -0.000042
v 35.483868 96.577827 -29.454275
v 21.792198 46.603535 -20.178205
v 26.108131 70.813972 -7.555170
v 32.849846 79.291931 -33.734818
v 31.126081 63.902714 -33.734818
v 31.126081 63.902714 -31.857147
v 40.171268 64.777313 -35.240570
v 49.602886 79.560928 -35.843842
v 25.380320 46.338184 -19.947731
v 19.456711 49.131287 -16.132935
v 18.049152 60.572243 -20.178205
v 26.108131 70.813972 -23.252962
v 0.003599 45.059937 -30.478384
v 0.003598 48.042595 -31.326202
v 0.004268 59.081558 -26.680353
v 2.380010 65.786491 -20.006622
v 2.376944 65.773582 -15.899688
v 0.004256 59.542072 -16.073149
v 0.003598 48.353775 -15.993692
v 4.981548 61.732452 -15.899688
v 0.004256 59.542072 -16.132935
v 18.049152 60.572243 -33.874020
v 33.822216 72.501053 -30.854103
v 79.624344 51.109322 -44.474075
v 43.606625 33.944584 -52.795521
v 36.170189 37.618595 -41.553028
v 31.017883 32.655594 -36.296410
v 19.661478 22.316048 -57.795448
v 52.588699 30.385202 -37.804333
v 37.360912 53.802063 -52.844559
v 50.085670 54.890774 -35.894650
v 22.791418 38.682156 -35.843842
v 25.380320 46.338184 -15.018222
v 32.270092 73.241898 -28.734810
v 30.921518 70.898392 -16.585066
v 13.576117 62.238354 -35.843842
v 25.380320 46.338184 -35.979206
v 28.535110 52.447117 -39.401768
v 32.611843 44.552643 -28.629265
v 2.467278 -21.195988 -19.444138
v 2.466034 -21.174652 -26.183676
v 26.236506 -25.581121 -34.965897
v 28.413364 -20.619198 -16.037611
v 18.416300 -17.154196 -22.197495
v 17.451361 -9.670506 -16.037611
v 18.416300 -17.154196 -16.639940
v 13.692835 -18.957979 -16.246433
v 5.598232 -25.382416 -31.692101
v -0.003778 -34.720078 -23.495462
v -0.003783 -38.580490 -31.759212
v -0.003779 -26.936998 -16.018379
v -0.004264 -26.890911 -15.828792
v -0.003771 -34.697136 -16.018379
v -0.004264 -26.890911 -40.323517
v 62.126038 46.279613 -16.487169
v 22.067575 -23.219915 -26.183676
v 26.236506 -25.581121 -45.381851
v 44.672054 10.869878 -50.218082
v 35.888454 14.055437 -42.011833
v 30.775221 10.212441 -33.750614
v 22.287935 -7.753582 -35.228371
v 21.097120 1.449470 -36.520454
v 26.067005 -12.704682 0.000240
v 79.426971 -16.961988 -10.318815
v 85.873627 -1.684317 -28.455198
v 90.757736 -1.877321 -25.806179
v 56.495338 65.469955 -18.532581
v 71.730927 82.492401 -14.991435
v 81.416153 63.280365 -35.228371
v 21.097120 1.449470 -42.831059
v 59.297207 29.131668 -29.403437
v 17.565737 -9.023663 -33.750614
v 22.287935 -7.753582 -36.296410
v 19.661478 22.316048 -48.959797
v 55.489918 4.653668 -54.718067
v 64.250824 8.217895 -52.968201
v 49.412312 4.480829 -51.842350
v 92.318611 46.438164 -41.810982
v 66.674362 5.061020 -25.568577
v 105.218140 61.991146 0.000043
v 93.581520 46.369911 -36.148003
v 102.604576 31.373695 -33.776245
v 76.061531 22.610170 -56.461014
v 74.745430 26.016068 -47.857613
v 80.446404 0.112120 -7.057494
v 94.459740 21.220207 0.000189
v 104.459358 0.494547 -19.924908
v 107.476440 19.280348 -23.351091
v 96.662979 21.811859 -0.000046
v 92.967575 74.193489 -25.806179
v 56.495338 65.469955 -26.346199
v 26.195702 -29.204750 -26.331690
v 75.359726 2.893547 15.018232
v 32.270092 73.241898 6.301176
v 33.283714 86.112030 29.454285
v 21.792198 46.603539 20.178215
v 26.108131 70.813965 7.555179
v 32.849846 79.291931 33.734821
v 31.126081 63.902718 33.734821
v 31.126081 63.902718 31.857155
v 40.171265 64.777306 35.240578
v 49.602886 79.560936 35.843849
v 25.380318 46.338196 19.947739
v 19.456713 49.131294 16.132946
v 18.049154 60.572243 20.178215
v 26.108131 70.813965 30.478394
v 0.003600 48.042595 23.252972
v 0.003599 45.059937 31.326210
v 0.004268 59.081554 26.680363
v 2.380011 65.786491 20.006630
v 2.376944 65.773582 15.899702
v 0.004256 59.542072 16.073160
v 0.003597 48.353771 15.993702
v 4.981547 61.732452 15.899702
v 0.004256 59.542072 16.132946
v 18.049154 60.572243 33.874023
v 33.822216 72.501053 30.854107
v 79.624352 51.109322 44.474091
v 43.606632 33.944588 52.795540
v 36.170208 37.618595 41.553043
v 31.017887 32.655594 36.296417
v 19.661480 22.316044 57.795464
v 52.588707 30.385202 37.804337
v 37.360916 53.802063 52.844574
v 50.085670 54.890762 35.894661
v 22.791420 38.682156 35.843849
v 25.380318 46.338196 15.018232
v 32.270092 73.241898 28.734821
v 30.921520 70.898392 16.585077
v 13.576115 62.238354 35.979214
v 28.535110 52.447121 35.843849
v 25.380318 46.338196 39.401787
v 32.611843 44.552647 19.444147
v 2.466033 -21.174652 28.629272
v 2.467278 -21.195988 26.183683
v 26.236506 -25.581121 34.965904
v 28.413364 -20.619200 22.197504
v 17.451359 -9.670504 16.037622
v 18.416302 -17.154205 16.639952
v 13.692836 -18.957981 16.037622
v 18.416302 -17.154205 16.246443
v 5.598232 -25.382416 31.692110
v -0.003778 -34.720078 23.495472
v -0.003784 -38.580490 31.759222
v -0.003778 -26.936998 15.828804
v -0.003769 -34.697136 16.018391
v -0.004264 -26.890911 16.018391
v -0.004264 -26.890911 40.323528
v 62.126034 46.279610 16.487179
v 22.067575 -23.219912 26.183683
v 26.236506 -25.581121 45.381863
v 44.672054 10.869877 50.218090
v 35.888454 14.055438 42.011845
v 30.775225 10.212442 33.750622
v 22.287937 -7.753583 35.228378
v 21.097111 1.449470 36.520462
v 26.067001 -12.704679 10.318834
v 85.873619 -1.684317 28.455210
v 90.757729 -1.877321 25.806187
v 56.495338 65.469948 18.532589
v 71.730927 82.492401 14.991442
v 81.416153 63.280365 35.228378
v 21.097111 1.449470 42.831078
v 59.297211 29.131668 29.403444
v 17.565737 -9.023661 33.750622
v 22.287937 -7.753583 36.296417
v 19.661480 22.316044 48.959805
v 55.489922 4.653667 54.718082
v 64.250824 8.217893 52.968216
v 49.412312 4.480829 51.842369
v 92.318604 46.438164 41.810997
v 66.674362 5.061019 25.568581
v 105.218140 61.991146 33.776245
v 76.061531 22.610168 36.148006
v 102.604568 31.373693 56.461029
v 74.745422 26.016069 47.857624
v 80.446404 0.112120 7.057499
v 94.459747 21.220207 19.924911
v 107.476440 19.280350 23.351093
v 96.662979 21.811857 25.806187
v 56.495338 65.469948 26.346209
v 26.195702 -29.204752 26.331692
v 75.359734 2.893545 0.000001
v 14.330745 -82.407753 7.126841
v 15.204069 -80.408730 10.900820
v 18.165953 -78.050781 3.099897
v 18.018490 -84.645607 15.773573
v 18.200247 -68.010620 13.246873
v 17.110395 -73.567284 0.000004
v 20.518570 -88.852005 -7.126841
v 15.204070 -80.408730 -10.900814
v 18.165949 -78.050781 -3.099897
v 18.018488 -84.645607 -15.773567
v 18.200245 -68.010620 -13.246872
v 17.110392 -73.567284 -21.198931
v 53.330223 -67.075768 -29.986214
v 42.517361 -52.068047 -28.264732
v 50.712215 -55.927078 0.000471
v 53.068485 -75.395447 -8.986334
v 51.065639 -73.967140 -16.034721
v 52.251678 -71.350876 -33.649033
v 35.144016 -42.290867 -29.967072
v 32.648312 -49.622318 -32.913445
v 45.653706 -42.855431 -33.649033
v 35.144016 -42.290867 -33.649029
v 37.343987 -35.168518 0.000347
v 71.161606 -51.581043 -29.253897
v 65.956230 -47.769196 -40.777134
v 67.679535 -45.643711 -33.704575
v 57.676331 -45.073727 16.034718
v 52.251675 -71.350876 29.986204
v 42.517365 -52.068043 28.264725
v 50.712212 -55.927082 8.986324
v 51.065643 -73.967133 33.649029
v 35.144016 -42.290867 29.967068
v 32.648308 -49.622311 33.275513
v 40.480556 -42.969849 33.649036
v 37.343998 -35.168522 33.649029
v 35.144016 -42.290867 11.466076
v 72.002190 -47.323139 30.385782
v 54.952122 -45.090725 31.516119
v 49.055279 -44.163124 37.779552
v 45.964142 -41.412529 30.099684
v 67.919273 -42.350365 21.647638
v 63.464088 -46.257740 25.258528
v 78.795563 -47.396080 -40.048981
v 51.654350 -40.347862 -30.360682
v 78.543343 -43.960506 -17.780661
v 74.216034 -53.025612 21.198925
v 53.330223 -67.075768 -14.796206
v 89.584229 -55.668861 18.776506
v 63.548355 -60.217464 17.572081
v 61.842758 -64.474976 28.264725
v 50.712212 -55.927082 25.528381
v 51.145153 -60.872665 28.264725
v 50.712212 -55.927082 23.461267
v 59.660484 -55.199318 17.572081
v 61.842758 -64.474976 22.398638
v 57.029095 -60.071175 -18.776514
v 63.548355 -60.217464 -17.572100
v 61.842754 -64.474976 -25.528387
v 51.145157 -60.872665 -28.264732
v 50.712215 -55.927078 -28.264732
v 50.712215 -55.927078 -23.461281
v 59.660492 -55.199318 -17.572100
v 61.842754 -64.474976 -22.398657
v 57.029095 -60.071175 0.000343
v 19.680912 -38.351227 -20.161463
v 23.862827 -38.177544 -33.299568
v 32.164749 -38.452412 -34.699638
v 51.503448 -40.915520 -21.717888
v 71.048622 -41.528999 0.000318
v 75.595657 -41.748837 -23.051355
v 20.508711 -26.585268 0.000289
v 17.664190 -27.244104 -37.659996
v 31.097904 -22.932461 -34.352730
v 66.559311 -16.507160 -20.005310
v 79.948196 -18.155621 -40.588890
v 50.901344 -17.444050 0.000243
v 82.875633 -18.044880 20.161512
v 23.862829 -38.177544 33.299606
v 32.164749 -38.452408 34.699684
v 51.503445 -40.915520 21.717932
v 71.048622 -41.528999 23.051401
v 20.508709 -26.585266 37.660034
v 31.097904 -22.932461 34.352768
v 66.559311 -16.507160 40.588943
v 50.901348 -17.444050 20.005346
v 79.948204 -18.155619 4.013205
v 87.448624 -21.502216 25.370689
v 93.439011 -19.694157 5.715573
v 80.650681 -42.007694 0.013372

vt 0.782496 0.905893
vt 0.740913 0.900672
vt 0.785933 0.942179
vt 0.751183 0.988057
vt 0.754668 0.997433
vt 0.730735 0.953793
vt 0.718514 0.940010
vt 0.781828 0.350762
vt 0.998081 0.427892
vt 0.887378 0.400921
vt 0.998118 0.397766
vt 0.897571 0.505028
vt 0.998132 0.365628
vt 0.054406 0.565510
vt 0.048923 0.417480
vt 0.776304 0.364873
vt 0.968546 0.207604
vt 0.903991 0.354702
vt 0.936695 0.419799
vt 0.858532 0.392635
vt 0.876443 0.430015
vt 0.939519 0.432515
vt 0.736002 0.400579
vt 0.943700 0.207928
vt 0.853806 0.302074
vt 0.875389 0.314935
vt 0.912337 0.405601
vt 0.704173 0.392909
vt 0.734717 0.399925
vt 0.923393 0.173074
vt 0.286178 0.442147
vt 0.964575 0.433119
vt 0.998182 0.462426
vt 0.998123 0.205032
vt 0.944926 0.460555
vt 0.151877 0.464451
vt 0.020585 0.901246
vt 0.629469 0.796496
vt 0.841953 0.285186
vt 0.945146 0.275806
vt 0.901983 0.271403
vt 0.851610 0.205662
vt 0.328374 0.207031
vt 0.288697 0.252211
vt 0.269346 0.213932
vt 0.364951 0.259042
vt 0.220658 0.279856
vt 0.184234 0.247429
vt 0.322208 0.310852
vt 0.153953 0.279057
vt 0.322685 0.292114
vt 0.278204 0.277881
vt 0.371473 0.312316
vt 0.201529 0.346401
vt 0.181137 0.279170
vt 0.766291 0.327853
vt 0.764322 0.264901
vt 0.797592 0.327418
vt 0.832239 0.316974
vt 0.355956 0.315492
vt 0.325122 0.313033
vt 0.387164 0.278242
vt 0.829692 0.292043
vt 0.235626 0.812643
vt 0.634714 0.509185
vt 0.085667 0.443279
vt 0.289986 0.543266
vt 0.355045 0.702900
vt 0.790118 0.509746
vt 0.896710 0.288126
vt 0.998013 0.205690
vt 0.998054 0.533833
vt 0.928989 0.533748
vt 0.756821 0.541911
vt 0.160121 0.417929
vt 0.730356 0.566437
vt 0.803262 0.875182
vt 0.648894 0.385202
vt 0.005190 0.915518
vt 0.597470 0.567968
vt 0.106811 0.942499
vt 0.632154 0.471399
vt 0.814040 0.217441
vt 0.250996 0.231960
vt 0.206809 0.251709
vt 0.169687 0.246161
vt 0.369132 0.145079
vt 0.309278 0.154429
vt 0.278075 0.186183
vt 0.236421 0.316352
vt 0.241141 0.335383
vt 0.211829 0.608341
vt 0.404388 0.084834
vt 0.945220 0.640561
vt 0.415183 0.005605
vt 0.959375 0.084943
vt 0.912255 0.159403
vt 0.457186 0.157676
vt 0.378536 0.154398
vt 0.415831 0.056362
vt 0.936137 0.213722
vt 0.455433 0.178616
vt 0.419694 0.283825
vt 0.481288 0.462085
vt 0.404629 0.129915
vt 0.944367 0.129162
vt 0.904524 0.127755
vt 0.856380 0.357960
vt 0.085787 0.525909
vt 0.412050 0.566098
vt 0.409664 0.576909
vt 0.445837 0.480914
vt 0.419013 0.633146
vt 0.435904 0.667490
vt 0.451346 0.527924
vt 0.457502 0.483004
vt 0.457315 0.700455
vt 0.490998 0.523955
vt 0.496150 0.567058
vt 0.497303 0.482197
vt 0.495660 0.653210
vt 0.498687 0.443587
vt 0.490505 0.434510
vt 0.637050 0.471777
vt 0.637139 0.501504
vt 0.652437 0.415599
vt 0.676086 0.471161
vt 0.712495 0.501135
vt 0.696409 0.498740
vt 0.533187 0.532061
vt 0.526782 0.467545
vt 0.525593 0.433786
vt 0.712990 0.613668
vt 0.478931 0.201792
vt 0.486410 0.061244
vt 0.008874 0.146340
vt 0.108576 0.321128
vt 0.079365 0.238404
vt 0.513434 0.142679
vt 0.512091 0.388272
vt 0.099498 0.301618
vt 0.586268 0.129660
vt 0.209898 0.084487
vt 0.998008 0.005014
vt 0.998088 0.019007
vt 0.180196 0.585229
vt 0.701566 0.081619
vt 0.200912 0.096279
vt 0.151423 0.004674
vt 0.934000 0.130106
vt 0.998018 0.036217
vt 0.998032 0.036905
vt 0.954092 0.263169
vt 0.063435 0.247248
vt 0.111606 0.631207
vt 0.382954 0.119353
vt 0.495298 0.131279
vt 0.434661 0.361192
vt 0.314348 0.378343
vt 0.517385 0.516836
vt 0.781273 0.562877
vt 0.851105 0.408925
vt 0.818426 0.465213
vt 0.909537 0.284514
vt 0.105426 0.173212
vt 0.554814 0.505878
vt 0.233967 0.145822
vt 0.034458 0.244946
vt 0.572029 0.199259
vt 0.014080 0.827626
vt 0.698032 0.635765
vt 0.773521 0.446311
vt 0.351330 0.053736
vt 0.123111 0.619911
vt 0.726822 0.033428
vt 0.079296 0.664317
vt 0.726845 0.081516
vt 0.095630 0.438998
vt 0.226779 0.401881
vt 0.062186 0.001760
vt 0.897532 0.219499
vt 0.436885 0.188251
vt 0.403972 0.280779
vt 0.456418 0.382043
vt 0.395650 0.342569
vt 0.450573 0.330796
vt 0.436423 0.323675
vt 0.502201 0.213779
vt 0.197182 0.365628
vt 0.054406 0.565510
vt 0.048923 0.417480
vt 0.776304 0.364873
vt 0.968546 0.207604
vt 0.903991 0.354702
vt 0.936695 0.419799
vt 0.858532 0.392635
vt 0.876443 0.430015
vt 0.939519 0.432515
vt 0.736002 0.400579
vt 0.943700 0.207928
vt 0.853806 0.302074
vt 0.875389 0.314935
vt 0.912337 0.405601
vt 0.704173 0.392909
vt 0.734717 0.399925
vt 0.923393 0.173074
vt 0.286178 0.442147
vt 0.964575 0.205032
vt 0.944926 0.460555
vt 0.151877 0.464451
vt 0.020585 0.901246
vt 0.629469 0.796496
vt 0.841953 0.285186
vt 0.945146 0.275806
vt 0.901983 0.271403
vt 0.851610 0.205662
vt 0.328374 0.207031
vt 0.288697 0.252211
vt 0.269346 0.213932
vt 0.364951 0.259042
vt 0.220658 0.279856
vt 0.184234 0.247429
vt 0.322208 0.310852
vt 0.153953 0.279057
vt 0.322685 0.292114
vt 0.278204 0.277881
vt 0.371473 0.312316
vt 0.201529 0.346401
vt 0.181137 0.279170
vt 0.766291 0.327853
vt 0.764322 0.264901
vt 0.797592 0.327418
vt 0.832239 0.316974
vt 0.355956 0.315492
vt 0.325122 0.313033
vt 0.387164 0.278242
vt 0.829692 0.292043
vt 0.235626 0.812643
vt 0.634714 0.509185
vt 0.085667 0.443279
vt 0.289986 0.543266
vt 0.355045 0.702900
vt 0.790118 0.541911
vt 0.160121 0.417929
vt 0.730356 0.875182
vt 0.648894 0.385202
vt 0.005190 0.915518
vt 0.597470 0.567968
vt 0.106811 0.942499
vt 0.632154 0.471399
vt 0.814040 0.217441
vt 0.250996 0.231960
vt 0.206809 0.251709
vt 0.169687 0.246161
vt 0.369132 0.145079
vt 0.309278 0.154429
vt 0.278075 0.186183
vt 0.236421 0.316352
vt 0.241141 0.335383
vt 0.211829 0.608341
vt 0.404388 0.084834
vt 0.945220 0.640561
vt 0.415183 0.005605
vt 0.959375 0.084943
vt 0.912255 0.159403
vt 0.457186 0.157676
vt 0.378536 0.154398
vt 0.415831 0.056362
vt 0.936137 0.213722
vt 0.455433 0.178616
vt 0.419694 0.283825
vt 0.481288 0.462085
vt 0.404629 0.129915
vt 0.944367 0.129162
vt 0.904524 0.127755
vt 0.856380 0.357960
vt 0.085787 0.525909
vt 0.412050 0.566098
vt 0.409664 0.576909
vt 0.445837 0.480914
vt 0.419013 0.633146
vt 0.435904 0.667490
vt 0.451346 0.527924
vt 0.457502 0.483004
vt 0.457315 0.700455
vt 0.490998 0.523955
vt 0.496150 0.567058
vt 0.497303 0.482197
vt 0.495660 0.653210
vt 0.498687 0.443587
vt 0.490505 0.434510
vt 0.637050 0.471777
vt 0.637139 0.501504
vt 0.652437 0.415599
vt 0.676086 0.471161
vt 0.712495 0.501135
vt 0.696409 0.498740
vt 0.533187 0.532061
vt 0.526782 0.467545
vt 0.525593 0.433786
vt 0.712990 0.613668
vt 0.478931 0.201792
vt 0.486410 0.061244
vt 0.008874 0.146340
vt 0.108576 0.321128
vt 0.079365 0.238404
vt 0.513434 0.142679
vt 0.512091 0.388272
vt 0.099498 0.301618
vt 0.586268 0.096279
vt 0.151423 0.004674
vt 0.934000 0.036905
vt 0.954092 0.263169
vt 0.063435 0.247248
vt 0.111606 0.631207
vt 0.382954 0.119353
vt 0.495298 0.131279
vt 0.434661 0.378343
vt 0.517385 0.516836
vt 0.781273 0.562877
vt 0.851105 0.408925
vt 0.818426 0.284514
vt 0.105426 0.173212
vt 0.554814 0.505878
vt 0.233967 0.145822
vt 0.034458 0.244946
vt 0.572029 0.199259
vt 0.014080 0.827626
vt 0.698032 0.635765
vt 0.773521 0.446311
vt 0.351330 0.053736
vt 0.123111 0.619911
vt 0.726822 0.033428
vt 0.079296 0.664317
vt 0.726845 0.081516
vt 0.095630 0.438998
vt 0.226779 0.401881
vt 0.062186 0.001760
vt 0.897532 0.219499
vt 0.436885 0.188251
vt 0.403972 0.280779
vt 0.456418 0.342569
vt 0.450573 0.330796
vt 0.436423 0.323675
vt 0.502201 0.213779
vt 0.197182 0.000486
vt 0.297286 0.569651
vt 0.204023 0.767413
vt 0.003282 0.589942
vt 0.238537 0.575643
vt 0.151604 0.713383
vt 0.003262 0.678748
vt 0.003313 0.612746
vt 0.281931 0.596231
vt 0.104219 0.081325
vt 0.222711 0.571997
vt 0.187815 0.816332
vt 0.107926 0.742921
vt 0.252890 0.651822
vt 0.262659 0.633058
vt 0.221838 0.613449
vt 0.192718 0.618685
vt 0.180305 0.692706
vt 0.042767 0.753703
vt 0.061740 0.761133
vt 0.099949 0.640308
vt 0.127701 0.758412
vt 0.164057 0.694961
vt 0.108699 0.749768
vt 0.210952 0.708743
vt 0.133625 0.670432
vt 0.187540 0.770724
vt 0.137304 0.626780
vt 0.096917 0.727683
vt 0.082868 0.669084
vt 0.304073 0.747696
vt 0.294328 0.694375
vt 0.249412 0.701592
vt 0.297205 0.602943
vt 0.195521 0.733578
vt 0.148841 0.707173
vt 0.199151 0.700995
vt 0.226555 0.749756
vt 0.241832 0.007988
vt 0.218448 0.055961
vt 0.268365 0.039856
vt 0.278478 0.856267
vt 0.003284 0.845265
vt 0.088167 0.815939
vt 0.330121 0.629993
vt 0.350489 0.750393
vt 0.341267 0.676890
vt 0.335765 0.826962
vt 0.239218 0.806881
vt 0.274267 0.841141
vt 0.148197 0.839224
vt 0.187500 0.714431
vt 0.339451 0.816332
vt 0.107926 0.742921
vt 0.252890 0.651822
vt 0.262659 0.633058
vt 0.221838 0.613449
vt 0.192718 0.618685
vt 0.180305 0.692706
vt 0.042767 0.753703
vt 0.061740 0.761133
vt 0.099949 0.640308
vt 0.127701 0.758412
vt 0.164057 0.694961
vt 0.108699 0.749768
vt 0.210952 0.708743
vt 0.133625 0.670432
vt 0.187540 0.770724
vt 0.137304 0.626780
vt 0.096917 0.727683
vt 0.082868 0.669084
vt 0.304073 0.747696
vt 0.294328 0.694375
vt 0.249412 0.701592
vt 0.297205 0.602943
vt 0.195521 0.733578
vt 0.148841 0.707173
vt 0.199151 0.700995
vt 0.226555 0.749756
vt 0.241832 0.055961
vt 0.268365 0.039856
vt 0.278478 0.845265
vt 0.088167 0.815939
vt 0.330121 0.750393
vt 0.341267 0.676890
vt 0.335765 0.826962
vt 0.239218 0.806881
vt 0.274267 0.841141
vt 0.148197 0.839224
vt 0.187500 0.714431
vt 0.339451 0.909397
vt 0.003328 0.975685
vt 0.003377 0.901704
vt 0.093948 0.978677
vt 0.081523 0.754488
vt 0.539577 0.756573
vt 0.559897 0.852215
vt 0.328446 0.724903
vt 0.588969 0.865699
vt 0.409574 0.886975
vt 0.412571 0.852215
vt 0.328446 0.918848
vt 0.379500 0.874087
vt 0.276528 0.897779
vt 0.207049 0.901704
vt 0.093948 0.948352
vt 0.217662 0.902664
vt 0.162023 0.978677
vt 0.081523 0.986009
vt 0.164722 0.995043
vt 0.223781 0.874087
vt 0.276528 0.897779
vt 0.207049 0.948352
vt 0.217662 0.902664
vt 0.162023 0.986009
vt 0.164722 0.995043
vt 0.223781 0.773318
vt 0.503957 0.618478
vt 0.630932 0.270930
vt 0.666452 0.798867
vt 0.463248 0.229080
vt 0.651700 0.836264
vt 0.491581 0.365477
vt 0.619294 0.381147
vt 0.577257 0.266090
vt 0.635896 0.232476
vt 0.629914 0.344605
vt 0.599951 0.318681
vt 0.645715 0.304396
vt 0.621166 0.257376
vt 0.755451 0.294496
vt 0.710723 0.332816
vt 0.712845 0.744660
vt 0.639528 0.387399
vt 0.678123 0.830631
vt 0.433993 0.947889
vt 0.260454 0.922656
vt 0.494439 0.871864
vt 0.455487 0.953888
vt 0.335991 0.064289
vt 0.562509 0.191367
vt 0.621578 0.104120
vt 0.580328 0.130854
vt 0.629608 0.148206
vt 0.599596 0.032524
vt 0.610054 0.952920
vt 0.309132 0.106957
vt 0.663277 0.972239
vt 0.458531 0.374110
vt 0.636665 0.405216
vt 0.642332 0.875996
vt 0.516661 0.769790
vt 0.607221 0.878122
vt 0.429133 0.791166
vt 0.541409 0.822427
vt 0.520328 0.130227
vt 0.705951 0.020549
vt 0.746715 0.047651
vt 0.710162 0.066350
vt 0.822069 0.111343
vt 0.796950 0.086461
vt 0.779419 0.059408
vt 0.749129 0.130227
vt 0.705951 0.020549
vt 0.746715 0.047651
vt 0.710162 0.066350
vt 0.822069 0.111343
vt 0.796950 0.086461
vt 0.779419 0.059408
vt 0.749129 0.988870
vt 0.994985 0.623335
vt 0.996141 0.618967
vt 0.980635 0.997700
vt 0.959591 0.994554
vt 0.885994 0.986321
vt 0.864550 0.617256
vt 0.966050 0.517465
vt 0.575245 0.063082
vt 0.478958 0.822387
vt 0.988952 0.687175
vt 0.966884 0.748620
vt 0.984045 0.908405
vt 0.993378 0.744466
vt 0.956165 0.812388
vt 0.965140 0.936001
vt 0.961397 0.927828
vt 0.896982 0.877427
vt 0.902252 0.880948
vt 0.956951 0.807536
vt 0.924695 0.692809
vt 0.988228 0.686958
vt 0.946565 0.805651
vt 0.897053 0.740648
vt 0.928015 0.900938
vt 0.868464 0.867560
vt 0.878479 0.822387
vt 0.988952 0.687175
vt 0.966884 0.748620
vt 0.984045 0.908405
vt 0.993378 0.744466
vt 0.956165 0.812388
vt 0.965140 0.936001
vt 0.961397 0.927828
vt 0.896982 0.877427
vt 0.902252 0.880948
vt 0.956951 0.807536
vt 0.924695 0.692809
vt 0.988228 0.686958
vt 0.946565 0.805651
vt 0.897053 0.740648
vt 0.928015 0.900938
vt 0.868464 0.867560
vt 0.878479 0.058533
vt 0.425000 0.116366
vt 0.396363 0.092115
vt 0.373924 0.050219
vt 0.394144 0.137468
vt 0.334592 0.109579
vt 0.335481 0.035597
vt 0.382674 0.027202
vt 0.414748 0.120445
vt 0.304830 0.088675
vt 0.323392 0.092115
vt 0.373924 0.050219
vt 0.394144 0.109579
vt 0.335481 0.035597
vt 0.382674 0.088675
vt 0.323392 0.986628
vt 0.782496 0.905893
vt 0.740913 0.900672
vt 0.785933 0.942179
vt 0.751183 0.988057
vt 0.754668 0.997433
vt 0.730735 0.953793
vt 0.718514 0.940010
vt 0.781828 0.880648
vt 0.828067 0.872333
vt 0.781986 0.928021
vt 0.826536 0.387792
vt 0.785792 0.466691
vt 0.973286 0.366503
vt 0.911581 0.175133
vt 0.328419 0.375704
vt 0.758508 0.398540
vt 0.862723 0.167342
vt 0.223003 0.538932
vt 0.007442 0.521433
vt 0.038271 0.476269
vt 0.742475 0.301115
vt 0.845113 0.195963
vt 0.371022 0.294075
vt 0.134294 0.229663
vt 0.155078 0.348656
vt 0.360316 0.343470
vt 0.323536 0.322314
vt 0.276147 0.357985
vt 0.785833 0.356904
vt 0.815182 0.295591
vt 0.438663 0.335871
vt 0.398343 0.273686
vt 0.425271 0.370104
vt 0.192458 0.227055
vt 0.421098 0.504241
vt 0.002178 0.721127
vt 0.865990 0.356383
vt 0.004025 0.880569
vt 0.603703 0.416907
vt 0.026425 0.441632
vt 0.073508 0.307521
vt 0.011097 0.961606
vt 0.664597 0.926464
vt 0.712219 0.958150
vt 0.591113 0.968333
vt 0.618099 0.387060
vt 0.842847 0.193760
vt 0.185467 0.246283
vt 0.413105 0.597504
vt 0.038160 0.583670
vt 0.015992 0.597144
vt 0.074860 0.603922
vt 0.509802 0.650073
vt 0.531231 0.512116
vt 0.389588 0.557086
vt 0.367379 0.717233
vt 0.467909 0.676791
vt 0.432707 0.433799
vt 0.419501 0.437860
vt 0.440746 0.681307
vt 0.544240 0.544602
vt 0.554488 0.496281
vt 0.564344 0.576876
vt 0.530407 0.422346
vt 0.515245 0.450919
vt 0.548373 0.661132
vt 0.568170 0.870850
vt 0.742362 0.029827
vt 0.933565 0.015197
vt 0.896046 0.135979
vt 0.552682 0.099899
vt 0.549545 0.091222
vt 0.514048 0.107467
vt 0.438293 0.083851
vt 0.461528 0.599981
vt 0.367035 0.402356
vt 0.406440 0.425913
vt 0.488581 0.162142
vt 0.163065 0.460509
vt 0.081984 0.365600
vt 0.271240 0.594359
vt 0.928203 0.417618
vt 0.141481 0.263873
vt 0.013868 0.088301
vt 0.884950 0.092416
vt 0.860511 0.929864
vt 0.538368 0.196046
vt 0.557905 0.212669
vt 0.593025 0.308068
vt 0.115174 0.578777
vt 0.279984 0.213422
vt 0.092972 0.608098
vt 0.881748 0.434261
vt 0.394045 0.698359
vt 0.714794 0.760467
vt 0.736622 0.760953
vt 0.660772 0.211082
vt 0.152695 0.002834
vt 0.105500 0.608781
vt 0.649045 0.654690
vt 0.702050 0.052468
vt 0.056903 0.556406
vt 0.996943 0.397064
vt 0.188662 0.167879
vt 0.369964 0.371317
vt 0.552267 0.387792
vt 0.785792 0.466691
vt 0.973286 0.175133
vt 0.328419 0.375704
vt 0.758508 0.398540
vt 0.862723 0.167342
vt 0.223003 0.538932
vt 0.007442 0.521433
vt 0.038271 0.476269
vt 0.742475 0.301115
vt 0.845113 0.195963
vt 0.371022 0.294075
vt 0.134294 0.229663
vt 0.155078 0.343470
vt 0.323536 0.348656
vt 0.360316 0.322314
vt 0.276147 0.357985
vt 0.785833 0.356904
vt 0.815182 0.295591
vt 0.438663 0.335871
vt 0.398343 0.273686
vt 0.425271 0.370104
vt 0.192458 0.227055
vt 0.421098 0.504241
vt 0.002178 0.721127
vt 0.865990 0.356383
vt 0.004025 0.880569
vt 0.603703 0.416907
vt 0.026425 0.441632
vt 0.073508 0.307521
vt 0.011097 0.961606
vt 0.664597 0.926464
vt 0.712219 0.958150
vt 0.591113 0.968333
vt 0.618099 0.387060
vt 0.842847 0.193760
vt 0.185467 0.246283
vt 0.413105 0.583670
vt 0.015992 0.597504
vt 0.038160 0.597144
vt 0.074860 0.650073
vt 0.531231 0.603922
vt 0.509802 0.512116
vt 0.389588 0.557086
vt 0.367379 0.676791
vt 0.432707 0.717233
vt 0.467909 0.437860
vt 0.440746 0.433799
vt 0.419501 0.681307
vt 0.544240 0.544602
vt 0.554488 0.496281
vt 0.564344 0.576876
vt 0.530407 0.450919
vt 0.548373 0.422346
vt 0.515245 0.661132
vt 0.568170 0.870850
vt 0.742362 0.029827
vt 0.933565 0.015197
vt 0.896046 0.135979
vt 0.552682 0.099899
vt 0.549545 0.091222
vt 0.514048 0.107467
vt 0.438293 0.083851
vt 0.461528 0.599981
vt 0.367035 0.425913
vt 0.488581 0.162142
vt 0.163065 0.460509
vt 0.081984 0.365600
vt 0.271240 0.594359
vt 0.928203 0.417618
vt 0.141481 0.263873
vt 0.013868 0.088301
vt 0.884950 0.092416
vt 0.860511 0.929864
vt 0.538368 0.196046
vt 0.557905 0.212669
vt 0.593025 0.308068
vt 0.115174 0.578777
vt 0.279984 0.213422
vt 0.092972 0.608098
vt 0.881748 0.760467
vt 0.736622 0.698359
vt 0.714794 0.760953
vt 0.660772 0.211082
vt 0.152695 0.002834
vt 0.105500 0.654690
vt 0.702050 0.052468
vt 0.056903 0.397064
vt 0.188662 0.167879
vt 0.369964 0.371317
vt 0.552267 0.016271
vt 0.369746 0.038232
vt 0.356970 0.105727
vt 0.288058 0.139105
vt 0.259129 0.059965
vt 0.304897 0.055012
vt 0.329826 0.150100
vt 0.246691 0.038232
vt 0.356970 0.105727
vt 0.288058 0.139105
vt 0.259129 0.059965
vt 0.304897 0.055012
vt 0.329826 0.715316
vt 0.520885 0.632032
vt 0.584305 0.672293
vt 0.597156 0.757173
vt 0.429426 0.726864
vt 0.469205 0.718683
vt 0.494611 0.574420
vt 0.606252 0.585755
vt 0.567134 0.402818
vt 0.598068 0.442593
vt 0.578752 0.421465
vt 0.554889 0.220761
vt 0.673164 0.344991
vt 0.668931 0.727755
vt 0.686969 0.681207
vt 0.656697 0.813373
vt 0.380205 0.908661
vt 0.287773 0.906895
vt 0.332017 0.788148
vt 0.392253 0.941666
vt 0.235558 0.901101
vt 0.238882 0.025236
vt 0.581119 0.021816
vt 0.545580 0.004053
vt 0.571645 0.183401
vt 0.650564 0.085967
vt 0.609765 0.059760
vt 0.597143 0.972800
vt 0.282504 0.998966
vt 0.366624 0.965813
vt 0.393427 0.141058
vt 0.692457 0.649207
vt 0.675829 0.800900
vt 0.660517 0.802456
vt 0.600964 0.833549
vt 0.373903 0.861865
vt 0.615878 0.003198
vt 0.701226 0.049999
vt 0.667590 0.183983
vt 0.797361 0.166421
vt 0.756792 0.053653
vt 0.869945 0.002171
vt 0.786872 0.762536
vt 0.407195 0.798671
vt 0.371954 0.003198
vt 0.701226 0.049999
vt 0.667590 0.166421
vt 0.756792 0.183983
vt 0.797361 0.053653
vt 0.869945 0.002171
vt 0.786872 0.762536
vt 0.407195 0.798671
vt 0.371954 0.562249
vt 0.577611 0.554176
vt 0.612333 0.537407
vt 0.633200 0.502403
vt 0.633502 0.466848
vt 0.613359 0.454516
vt 0.578260 0.019457
vt 0.454114 0.048406
vt 0.438754 0.005449
vt 0.476642 0.031379
vt 0.525495 0.042515
vt 0.535001 0.010724
vt 0.507863 0.079761
vt 0.541260 0.554176
vt 0.612333 0.537407
vt 0.633200 0.502403
vt 0.633502 0.466848
vt 0.613359 0.019457
vt 0.454114 0.005449
vt 0.476642 0.031379
vt 0.525495 0.010724
vt 0.507863 0.042515
vt 0.535001 0.880648
vt 0.828067 0.872333
vt 0.781986 0.928021
vt 0.826536 1.000000

f 1/1 4/4 5/5
f 4/4 1/1 8/8
f 5/5 7/7 6/6
f 7/7 5/5 4/4
f 4/4 8/8 2/2
f 7/7 4/4 2/2
f 582/582 583/583 3/3
f 3/3 584/584 582/582
f 2/2 3/3 583/583
f 2/2 8/8 3/3
f 584/584 3/3 8/8
f 517/517 526/526 536/536
f 526/526 517/517 518/518
f 518/518 537/537 526/526
f 537/537 518/518 522/522
f 536/536 529/529 527/527
f 529/529 536/536 526/526
f 533/533 538/538 541/541
f 538/538 533/533 535/535
f 537/537 529/529 526/526
f 529/529 537/537 539/539
f 535/535 539/539 538/538
f 539/539 535/535 529/529
f 527/527 530/530 525/525
f 530/530 527/527 529/529
f 528/528 525/525 534/534
f 530/530 534/534 525/525
f 531/531 516/516 528/528
f 516/516 531/531 519/519
f 540/540 521/521 532/532
f 520/520 532/532 521/521
f 540/540 532/532 533/533
f 531/531 528/528 534/534
f 834/834 835/835 523/523
f 835/835 836/836 523/523
f 836/836 837/837 523/523
f 837/837 838/838 523/523
f 838/838 839/839 523/523
f 535/535 530/530 529/529
f 840/840 841/841 524/524
f 842/842 840/840 524/524
f 843/843 524/524 844/844
f 524/524 843/843 845/845
f 846/846 844/844 524/524
f 845/845 842/842 524/524
f 534/534 535/535 533/533
f 535/535 534/534 530/530
f 533/533 541/541 540/540
f 531/531 520/520 519/519
f 520/520 531/531 532/532
f 531/531 533/533 532/532
f 533/533 531/531 534/534
f 517/517 553/553 543/543
f 543/543 518/518 517/517
f 518/518 543/543 554/554
f 554/554 522/522 518/518
f 553/553 544/544 546/546
f 546/546 543/543 553/553
f 550/550 558/558 555/555
f 555/555 552/552 550/550
f 554/554 543/543 546/546
f 546/546 556/556 554/554
f 552/552 555/555 556/556
f 556/556 546/546 552/552
f 544/544 542/542 547/547
f 547/547 546/546 544/544
f 545/545 551/551 542/542
f 547/547 542/542 551/551
f 548/548 545/545 516/516
f 516/516 519/519 548/548
f 557/557 549/549 521/521
f 520/520 521/521 549/549
f 557/557 550/550 549/549
f 548/548 551/551 545/545
f 834/834 523/523 847/847
f 847/847 523/523 848/848
f 848/848 523/523 849/849
f 849/849 523/523 850/850
f 850/850 523/523 839/839
f 552/552 546/546 547/547
f 851/851 524/524 841/841
f 852/852 524/524 851/851
f 853/853 524/524 854/854
f 524/524 853/853 855/855
f 846/846 524/524 855/855
f 854/854 524/524 852/852
f 551/551 552/552 547/547
f 552/552 551/551 550/550
f 550/550 557/557 558/558
f 548/548 520/520 549/549
f 520/520 548/548 519/519
f 548/548 550/550 551/551
f 550/550 548/548 549/549
f 559/559 561/561 560/560
f 561/561 559/559 562/562
f 560/560 564/564 563/563
f 564/564 560/560 561/561
f 562/562 565/565 561/561
f 562/562 559/559 566/566
f 566/566 565/565 562/562
f 564/564 568/568 567/567
f 567/567 563/563 564/564
f 561/561 565/565 568/568
f 568/568 564/564 561/561
f 559/559 560/560 569/569
f 569/569 570/570 559/559
f 560/560 563/563 571/571
f 571/571 569/569 560/560
f 570/570 569/569 572/572
f 570/570 566/566 559/559
f 566/566 570/570 572/572
f 571/571 567/567 573/573
f 567/567 571/571 563/563
f 569/569 573/573 572/572
f 573/573 569/569 571/571
f 574/574 578/578 577/577
f 577/577 581/581 574/574
f 578/578 579/579 580/580
f 580/580 577/577 578/578
f 577/577 575/575 581/581
f 580/580 575/575 577/577
f 856/856 576/576 857/857
f 576/576 856/856 858/858
f 575/575 857/857 576/576
f 575/575 576/576 581/581
f 858/858 581/581 576/576
f 40/40 17/17 19/19
f 27/27 40/40 71/71
f 40/40 71/71 22/22
f 30/30 24/24 11/11
f 32/32 24/24 585/585
f 163/163 16/16 20/20
f 10/10 83/83 9/9
f 11/11 17/17 20/20
f 12/12 10/10 34/34
f 13/13 586/586 34/34
f 32/32 33/33 12/12
f 21/21 587/587 25/25
f 42/42 25/25 27/27
f 35/35 40/40 89/89
f 89/89 88/88 23/23
f 76/76 16/16 19/19
f 24/24 30/30 589/589
f 589/589 585/585 17/17
f 24/24 19/19 29/29
f 76/76 28/28 21/21
f 20/20 590/590 22/22
f 24/24 32/32 33/33
f 34/34 586/586 591/591
f 90/90 591/591 592/592
f 593/593 15/15 35/35
f 72/72 40/40 71/71
f 40/40 72/72 37/37
f 66/66 593/593 65/65
f 78/78 171/171 67/67
f 68/68 179/179 16/16
f 23/23 16/16 42/42
f 595/595 42/42 57/57
f 59/59 57/57 56/56
f 58/58 63/63 91/91
f 64/64 91/91 46/46
f 596/596 46/46 43/43
f 588/588 43/43 84/84
f 85/85 84/84 48/48
f 50/50 86/86 597/597
f 86/86 50/50 85/85
f 86/86 189/189 598/598
f 189/189 86/86 46/46
f 43/43 46/46 49/49
f 51/51 49/49 53/53
f 62/62 60/60 45/45
f 52/52 45/45 47/47
f 48/48 47/47 64/64
f 52/52 64/64 55/55
f 54/54 55/55 60/60
f 52/52 61/61 602/602
f 603/603 602/602 604/604
f 606/606 604/604 92/92
f 54/54 92/92 53/53
f 60/60 51/51 52/52
f 51/51 61/61 60/60
f 61/61 51/51 53/53
f 60/60 62/62 608/608
f 46/46 596/596 66/66
f 15/15 593/593 609/609
f 593/593 592/592 76/76
f 29/29 16/16 75/75
f 36/36 167/167 69/69
f 39/39 610/610 67/67
f 173/173 68/68 14/14
f 79/79 611/611 612/612
f 612/612 80/80 14/14
f 180/180 613/613 614/614
f 613/613 180/180 615/615
f 14/14 611/611 15/15
f 66/66 81/81 38/38
f 80/80 82/82 616/616
f 38/38 82/82 618/618
f 619/619 82/82 24/24
f 17/17 11/11 620/620
f 20/20 163/163 84/84
f 85/85 189/189 621/621
f 90/90 189/189 44/44
f 45/45 84/84 48/48
f 47/47 48/48 49/49
f 43/43 49/49 622/622
f 608/608 622/622 53/53
f 606/606 53/53 597/597
f 598/598 86/86 15/15
f 15/15 625/625 592/592
f 15/15 624/624 90/90
f 84/84 90/90 621/621
f 591/591 90/90 91/91
f 601/601 91/91 153/153
f 94/94 153/153 101/101
f 153/153 94/94 18/18
f 107/107 18/18 97/97
f 94/94 106/106 104/104
f 142/142 188/188 98/98
f 100/100 158/158 97/97
f 106/106 107/107 100/100
f 98/98 103/103 97/97
f 101/101 94/94 98/98
f 157/157 140/140 14/14
f 141/141 180/180 100/100
f 103/103 99/99 135/135
f 135/135 102/102 106/106
f 151/151 106/106 95/95
f 156/156 93/93 98/98
f 140/140 135/135 615/615
f 154/154 138/138 615/615
f 138/138 14/14 133/133
f 133/133 128/128 126/126
f 126/126 125/125 124/124
f 127/127 133/133 122/122
f 122/122 134/134 110/110
f 628/628 113/113 111/111
f 111/111 629/629 112/112
f 93/93 111/111 115/115
f 115/115 118/118 95/95
f 95/95 114/114 116/116
f 116/116 110/110 117/117
f 117/117 113/113 121/121
f 132/132 130/130 119/119
f 119/119 120/120 122/122
f 122/122 115/115 112/112
f 112/112 120/120 123/123
f 123/123 121/121 115/115
f 115/115 122/122 635/635
f 635/635 131/131 637/637
f 626/626 120/120 132/132
f 132/132 123/123 634/634
f 627/627 640/640 122/122
f 627/627 634/634 121/121
f 130/130 119/119 120/120
f 119/119 131/131 130/130
f 131/131 119/119 121/121
f 123/123 132/132 636/636
f 636/636 130/130 111/111
f 111/111 110/110 632/632
f 113/113 628/628 134/134
f 120/120 626/626 146/146
f 148/148 149/149 102/102
f 166/166 139/139 142/142
f 104/104 139/139 149/149
f 174/174 146/146 39/39
f 171/171 641/641 148/148
f 143/143 149/149 154/154
f 154/154 155/155 138/138
f 109/109 14/14 642/642
f 150/150 642/642 102/102
f 139/139 104/104 106/106
f 35/35 106/106 96/96
f 96/96 145/145 101/101
f 642/642 153/153 114/114
f 114/114 95/95 14/14
f 109/109 141/141 644/644
f 140/140 645/645 646/646
f 645/645 157/157 98/98
f 98/98 158/158 647/647
f 646/646 157/157 93/93
f 93/93 156/156 67/67
f 159/159 173/173 650/650
f 186/186 160/160 650/650
f 160/160 651/651 652/652
f 137/137 149/149 77/77
f 74/74 172/172 161/161
f 594/594 83/83 653/653
f 66/66 37/37 36/36
f 66/66 653/653 70/70
f 162/162 83/83 67/67
f 179/179 654/654 161/161
f 83/83 162/162 70/70
f 655/655 162/162 620/620
f 590/590 20/20 163/163
f 83/83 16/16 20/20
f 83/83 163/163 164/164
f 70/70 83/83 10/10
f 164/164 83/83 141/141
f 656/656 614/614 615/615
f 657/657 154/154 74/74
f 175/175 172/172 658/658
f 107/107 108/108 660/660
f 618/618 80/80 661/661
f 662/662 139/139 661/661
f 139/139 166/166 140/140
f 644/644 166/166 135/135
f 140/140 166/166 138/138
f 165/165 663/663 664/664
f 75/75 167/167 36/36
f 179/179 167/167 78/78
f 38/38 617/617 169/169
f 139/139 662/662 665/665
f 155/155 154/154 170/170
f 665/665 154/154 142/142
f 139/139 169/169 170/170
f 154/154 657/657 172/172
f 69/69 666/666 173/173
f 667/667 68/68 666/666
f 69/69 610/610 77/77
f 172/172 666/666 159/159
f 667/667 173/173 136/136
f 137/137 168/168 136/136
f 178/178 137/137 69/69
f 668/668 669/669 39/39
f 670/670 171/171 78/78
f 641/641 171/171 39/39
f 669/669 171/171 66/66
f 36/36 75/75 66/66
f 75/75 81/81 137/137
f 671/671 665/665 137/137
f 170/170 168/168 137/137
f 665/665 170/170 668/668
f 69/69 172/172 174/174
f 672/672 146/146 174/174
f 176/176 672/672 175/175
f 147/147 673/673 175/175
f 674/674 172/172 74/74
f 147/147 175/175 174/174
f 178/178 176/176 674/674
f 668/668 172/172 178/178
f 136/136 675/675 174/174
f 149/149 178/178 137/137
f 675/675 176/176 655/655
f 73/73 676/676 36/36
f 677/677 654/654 68/68
f 167/167 179/179 645/645
f 140/140 157/157 80/80
f 618/618 82/82 141/141
f 614/614 180/180 79/79
f 14/14 613/613 183/183
f 183/183 678/678 182/182
f 182/182 183/183 184/184
f 184/184 182/182 187/187
f 187/187 184/184 185/185
f 185/185 187/187 186/186
f 188/188 160/160 186/186
f 104/104 188/188 679/679
f 160/160 188/188 142/142
f 679/679 188/188 84/84
f 189/189 90/90 598/598
f 621/621 189/189 195/195
f 193/193 214/214 195/195
f 214/214 203/203 71/71
f 71/71 214/214 198/198
f 200/200 206/206 11/11
f 200/200 208/208 680/680
f 192/192 322/322 196/196
f 251/251 10/10 9/9
f 193/193 11/11 196/196
f 10/10 12/12 34/34
f 681/681 13/13 34/34
f 33/33 208/208 12/12
f 587/587 197/197 201/201
f 201/201 216/216 203/203
f 214/214 209/209 257/257
f 256/256 257/257 199/199
f 192/192 245/245 195/195
f 206/206 200/200 683/683
f 680/680 683/683 193/193
f 195/195 200/200 205/205
f 204/204 245/245 197/197
f 684/684 196/196 198/198
f 208/208 200/200 33/33
f 681/681 34/34 685/685
f 685/685 258/258 686/686
f 191/191 687/687 209/209
f 214/214 72/72 71/71
f 72/72 214/214 211/211
f 687/687 240/240 239/239
f 329/329 246/246 241/241
f 337/337 242/242 192/192
f 192/192 199/199 216/216
f 216/216 689/689 231/231
f 231/231 233/233 230/230
f 237/237 232/232 259/259
f 259/259 238/238 220/220
f 220/220 690/690 217/217
f 217/217 682/682 252/252
f 252/252 253/253 222/222
f 254/254 224/224 691/691
f 224/224 254/254 253/253
f 346/346 254/254 692/692
f 254/254 346/346 220/220
f 220/220 217/217 223/223
f 223/223 225/225 227/227
f 234/234 236/236 219/219
f 219/219 226/226 221/221
f 221/221 222/222 238/238
f 238/238 226/226 229/229
f 229/229 228/228 234/234
f 235/235 226/226 696/696
f 696/696 697/697 698/698
f 698/698 700/700 260/260
f 260/260 228/228 227/227
f 225/225 234/234 226/226
f 235/235 225/225 234/234
f 225/225 235/235 227/227
f 236/236 234/234 702/702
f 690/690 220/220 240/240
f 687/687 191/191 703/703
f 686/686 687/687 245/245
f 192/192 205/205 244/244
f 325/325 210/210 243/243
f 704/704 213/213 241/241
f 242/242 331/331 190/190
f 705/705 247/247 706/706
f 248/248 706/706 190/190
f 707/707 338/338 708/708
f 338/338 707/707 709/709
f 705/705 190/190 191/191
f 249/249 240/240 212/212
f 250/250 248/248 710/710
f 250/250 212/212 712/712
f 250/250 713/713 200/200
f 11/11 193/193 714/714
f 322/322 196/196 252/252
f 346/346 253/253 715/715
f 346/346 258/258 218/218
f 252/252 219/219 222/222
f 222/222 221/221 223/223
f 223/223 217/217 716/716
f 716/716 702/702 227/227
f 227/227 700/700 691/691
f 254/254 692/692 191/191
f 719/719 191/191 686/686
f 717/717 191/191 258/258
f 258/258 252/252 715/715
f 258/258 685/685 259/259
f 259/259 695/695 313/313
f 313/313 262/262 269/269
f 262/262 313/313 194/194
f 194/194 275/275 265/265
f 274/274 262/262 272/272
f 345/345 310/310 266/266
f 318/318 268/268 265/265
f 275/275 274/274 268/268
f 271/271 266/266 265/265
f 262/262 269/269 266/266
f 308/308 317/317 190/190
f 338/338 309/309 268/268
f 267/267 271/271 303/303
f 270/270 303/303 274/274
f 274/274 151/151 263/263
f 261/261 316/316 266/266
f 303/303 308/308 709/709
f 306/306 314/314 709/709
f 190/190 306/306 301/301
f 296/296 301/301 294/294
f 293/293 294/294 292/292
f 301/301 295/295 290/290
f 302/302 290/290 278/278
f 281/281 722/722 279/279
f 723/723 279/279 280/280
f 279/279 261/261 283/283
f 286/286 283/283 263/263
f 282/282 263/263 284/284
f 278/278 284/284 285/285
f 281/281 285/285 289/289
f 298/298 300/300 287/287
f 288/288 287/287 290/290
f 283/283 290/290 280/280
f 288/288 280/280 291/291
f 289/289 291/291 283/283
f 290/290 283/283 729/729
f 299/299 729/729 731/731
f 288/288 721/721 300/300
f 291/291 300/300 728/728
f 734/734 720/720 290/290
f 728/728 720/720 289/289
f 287/287 298/298 288/288
f 299/299 287/287 298/298
f 287/287 299/299 289/289
f 300/300 291/291 730/730
f 298/298 730/730 279/279
f 278/278 279/279 727/727
f 722/722 281/281 302/302
f 721/721 288/288 146/146
f 311/311 148/148 270/270
f 307/307 324/324 310/310
f 307/307 272/272 311/311
f 146/146 332/332 213/213
f 735/735 329/329 148/148
f 311/311 143/143 314/314
f 315/315 314/314 306/306
f 190/190 277/277 736/736
f 736/736 312/312 270/270
f 272/272 307/307 274/274
f 274/274 209/209 264/264
f 145/145 264/264 269/269
f 313/313 736/736 282/282
f 263/263 282/282 190/190
f 309/309 277/277 738/738
f 739/739 308/308 740/740
f 317/317 739/739 266/266
f 318/318 266/266 741/741
f 317/317 740/740 261/261
f 316/316 261/261 241/241
f 331/331 159/159 650/650
f 319/319 343/343 650/650
f 744/744 319/319 745/745
f 311/311 305/305 77/77
f 330/330 74/74 320/320
f 251/251 688/688 746/746
f 211/211 240/240 210/210
f 746/746 240/240 70/70
f 251/251 321/321 241/241
f 747/747 337/337 320/320
f 321/321 251/251 70/70
f 321/321 748/748 714/714
f 196/196 684/684 322/322
f 192/192 251/251 196/196
f 322/322 251/251 164/164
f 251/251 70/70 10/10
f 251/251 164/164 309/309
f 708/708 749/749 709/709
f 314/314 750/750 74/74
f 330/330 333/333 751/751
f 276/276 275/275 753/753
f 248/248 712/712 754/754
f 307/307 755/755 754/754
f 324/324 307/307 308/308
f 324/324 738/738 303/303
f 324/324 308/308 306/306
f 756/756 323/323 757/757
f 325/325 244/244 210/210
f 325/325 337/337 246/246
f 711/711 212/212 327/327
f 755/755 307/307 758/758
f 314/314 315/315 328/328
f 314/314 758/758 310/310
f 327/327 307/307 328/328
f 750/750 314/314 330/330
f 759/759 243/243 331/331
f 242/242 667/667 759/759
f 704/704 243/243 77/77
f 759/759 330/330 159/159
f 331/331 667/667 304/304
f 326/326 305/305 304/304
f 305/305 336/336 243/243
f 760/760 761/761 213/213
f 329/329 762/762 246/246
f 329/329 735/735 213/213
f 329/329 760/760 240/240
f 244/244 210/210 240/240
f 249/249 244/244 305/305
f 758/758 763/763 305/305
f 326/326 328/328 305/305
f 328/328 758/758 761/761
f 330/330 243/243 332/332
f 146/146 764/764 332/332
f 764/764 334/334 333/333
f 673/673 147/147 333/333
f 330/330 765/765 74/74
f 333/333 147/147 332/332
f 334/334 336/336 765/765
f 330/330 761/761 336/336
f 766/766 304/304 332/332
f 336/336 311/311 305/305
f 334/334 766/766 748/748
f 676/676 73/73 210/210
f 747/747 767/767 242/242
f 337/337 325/325 739/739
f 317/317 308/308 248/248
f 250/250 712/712 309/309
f 338/338 708/708 247/247
f 707/707 190/190 341/341
f 768/768 341/341 340/340
f 341/341 340/340 342/342
f 340/340 342/342 344/344
f 342/342 344/344 185/185
f 344/344 185/185 343/343
f 319/319 345/345 343/343
f 345/345 272/272 769/769
f 345/345 319/319 310/310
f 345/345 769/769 252/252
f 258/258 346/346 692/692
f 346/346 715/715 385/385
f 387/387 347/347 389/389
f 358/358 396/396 391/391
f 391/391 393/393 359/359
f 379/379 377/377 359/359
f 384/384 383/383 348/348
f 380/380 357/357 365/365
f 365/365 389/389 353/353
f 364/364 352/352 365/365
f 366/366 358/358 389/389
f 365/365 358/358 374/374
f 355/355 367/367 395/395
f 395/395 359/359 397/397
f 394/394 397/397 370/370
f 382/382 370/370 355/355
f 351/351 367/367 368/368
f 373/373 368/368 380/380
f 361/361 380/380 359/359
f 395/395 384/384 369/369
f 351/351 363/363 367/367
f 381/381 369/369 366/366
f 369/369 373/373 361/361
f 372/372 362/362 363/363
f 362/362 372/372 373/373
f 366/366 373/373 389/389
f 388/388 349/349 390/390
f 377/377 392/392 363/363
f 367/367 363/363 365/365
f 375/375 366/366 770/770
f 347/347 771/771 772/772
f 356/356 773/773 774/774
f 387/387 774/774 772/772
f 385/385 356/356 774/774
f 774/774 387/387 347/347
f 775/775 771/771 773/773
f 356/356 776/776 376/376
f 393/393 379/379 354/354
f 376/376 360/360 378/378
f 383/383 372/372 359/359
f 378/378 360/360 377/377
f 377/377 379/379 398/398
f 379/379 393/393 363/363
f 351/351 357/357 361/361
f 362/362 380/380 363/363
f 380/380 362/362 361/361
f 360/360 361/361 357/357
f 380/380 363/363 382/382
f 372/372 382/382 381/381
f 368/368 373/373 381/381
f 373/373 369/369 382/382
f 370/370 382/382 384/384
f 370/370 384/384 372/372
f 383/383 382/382 359/359
f 360/360 378/378 385/385
f 347/347 427/427 428/428
f 434/434 399/399 391/391
f 431/431 391/391 400/400
f 418/418 420/420 400/400
f 424/424 425/425 348/348
f 357/357 421/421 406/406
f 428/428 406/406 353/353
f 352/352 405/405 406/406
f 399/399 407/407 428/428
f 399/399 406/406 415/415
f 408/408 355/355 433/433
f 400/400 433/433 435/435
f 435/435 432/432 411/411
f 409/409 411/411 355/355
f 408/408 351/351 409/409
f 409/409 414/414 421/421
f 348/348 421/421 400/400
f 425/425 433/433 410/410
f 404/404 351/351 408/408
f 410/410 422/422 407/407
f 414/414 410/410 402/402
f 403/403 413/413 404/404
f 413/413 403/403 414/414
f 414/414 407/407 428/428
f 349/349 388/388 429/429
f 430/430 418/418 404/404
f 404/404 408/408 406/406
f 407/407 416/416 770/770
f 777/777 347/347 778/778
f 779/779 356/356 780/780
f 780/780 427/427 778/778
f 356/356 385/385 780/780
f 427/427 780/780 347/347
f 777/777 781/781 779/779
f 776/776 356/356 417/417
f 420/420 431/431 354/354
f 401/401 417/417 419/419
f 413/413 424/424 400/400
f 401/401 419/419 418/418
f 420/420 418/418 436/436
f 431/431 420/420 404/404
f 357/357 351/351 402/402
f 421/421 403/403 404/404
f 403/403 421/421 402/402
f 350/350 402/402 357/357
f 404/404 421/421 423/423
f 414/414 409/409 422/422
f 410/410 414/414 423/423
f 424/424 423/423 425/425
f 433/433 425/425 413/413
f 423/423 424/424 400/400
f 413/413 419/419 426/426
f 385/385 427/427 386/386
f 387/387 385/385 439/439
f 388/388 437/437 439/439
f 439/439 437/437 451/451
f 396/396 450/450 394/394
f 394/394 449/449 450/450
f 452/452 453/453 447/447
f 449/449 394/394 450/450
f 396/396 397/397 447/447
f 395/395 390/390 453/453
f 451/451 453/453 452/452
f 453/453 452/452 439/439
f 458/458 434/434 457/457
f 432/432 458/458 435/435
f 460/460 459/459 443/443
f 432/432 457/457 458/458
f 435/435 434/434 443/443
f 429/429 433/433 460/460
f 460/460 439/439 459/459
f 459/459 460/460 441/441
f 463/463 782/782 783/783
f 464/464 784/784 463/463
f 466/466 785/785 442/442
f 498/498 441/441 500/500
f 463/463 500/500 788/788
f 789/789 788/788 790/790
f 470/470 790/790 467/467
f 472/472 467/467 469/469
f 473/473 469/469 475/475
f 475/475 474/474 497/497
f 468/468 501/501 465/465
f 477/477 478/478 476/476
f 477/477 465/465 498/498
f 444/444 479/479 465/465
f 467/467 793/793 480/480
f 480/480 495/495 498/498
f 442/442 444/444 795/795
f 784/784 796/796 795/795
f 444/444 784/784 479/479
f 444/444 795/795 478/478
f 478/478 794/794 797/797
f 481/481 445/445 492/492
f 485/485 492/492 785/785
f 800/800 785/785 446/446
f 445/445 499/499 481/481
f 466/466 484/484 468/468
f 484/484 466/466 801/801
f 482/482 801/801 484/484
f 468/468 483/483 799/799
f 448/448 485/485 803/803
f 805/805 803/803 467/467
f 806/806 467/467 807/807
f 808/808 807/807 490/490
f 487/487 490/490 489/489
f 807/807 489/489 491/491
f 808/808 803/803 809/809
f 482/482 798/798 809/809
f 798/798 492/492 493/493
f 489/489 807/807 810/810
f 485/485 448/448 810/810
f 448/448 811/811 446/446
f 448/448 446/446 494/494
f 811/811 448/448 806/806
f 489/489 812/812 494/494
f 484/484 483/483 474/474
f 495/495 469/469 496/496
f 469/469 495/495 813/813
f 796/796 784/784 813/813
f 784/784 464/464 496/496
f 790/790 469/469 476/476
f 465/465 793/793 806/806
f 793/793 467/467 814/814
f 498/498 479/479 814/814
f 815/815 498/498 486/486
f 803/803 808/808 445/445
f 816/816 797/797 481/481
f 797/797 800/800 451/451
f 437/437 388/388 451/451
f 437/437 451/451 463/463
f 787/787 782/782 483/483
f 468/468 497/497 494/494
f 445/445 481/481 499/499
f 481/481 484/484 500/500
f 498/498 815/815 817/817
f 500/500 815/815 466/466
f 500/500 817/817 497/497
f 501/501 817/817 498/498
f 500/500 463/463 498/498
f 463/463 441/441 504/504
f 818/818 503/503 502/502
f 819/819 504/504 818/818
f 504/504 819/819 506/506
f 820/820 821/821 822/822
f 506/506 505/505 502/502
f 506/506 821/821 822/822
f 505/505 503/503 823/823
f 503/503 818/818 507/507
f 505/505 506/506 502/502
f 507/507 506/506 502/502
f 504/504 508/508 824/824
f 825/825 390/390 502/502
f 508/508 507/507 503/503
f 508/508 504/504 511/511
f 510/510 826/826 509/509
f 511/511 827/827 826/826
f 827/827 511/511 513/513
f 828/828 829/829 830/830
f 512/512 513/513 509/509
f 828/828 513/513 830/830
f 510/510 512/512 831/831
f 512/512 510/510 514/514
f 513/513 512/512 509/509
f 513/513 514/514 509/509
f 515/515 511/511 832/832
f 429/429 833/833 509/509
f 514/514 515/515 510/510
