# MOD converted: th_axe021.mod
# 233 verts, 157 faces

v -9.814661 -159.755249 -2.960469
v -9.875615 -159.732224 -1.884858
v -2.857439 -159.764648 -5.873214
v -6.514718 -180.006683 -8.918686
v -8.646860 -138.035172 -2.979468
v -3.547354 -138.034637 -3.080872
v -9.720098 -137.995117 -3.560769
v -9.130207 -157.651306 -8.801495
v -8.772082 -157.670929 -2.769763
v -3.593227 -157.677704 -11.630055
v -9.254176 41.303223 -3.753538
v -2.182103 41.303482 -8.020341
v -5.949070 47.706390 -5.449008
v -9.083449 41.345856 -4.591035
v -3.258902 8.834076 -5.219827
v -8.998643 8.894821 -10.387367
v -9.671855 -117.513229 -2.202625
v -2.641276 -117.249001 -9.275070
v -7.815197 -39.122696 -6.016531
v -5.017675 -39.149422 -10.652348
v -8.701007 8.849152 -2.768001
v -10.599747 -117.383698 -5.555457
v -8.744486 -39.127457 -9.799561
v -7.947315 7.649926 -5.458868
v -4.050068 7.637787 -5.769162
v -8.324939 7.685715 -10.356149
v -8.994646 -60.964653 -3.973645
v -3.513307 -60.857765 -3.889740
v -10.149574 -60.905872 -9.248937
v -8.011210 -58.115822 -5.131121
v -8.762707 -58.082539 -5.216308
v -4.548060 -58.056931 -4.652980
v -4.133967 -64.107269 -9.548833
v -8.338666 -64.198280 -4.646231
v -9.173857 -64.149475 -8.984896
v -2.859177 -159.812927 -9.096519
v -2.713887 -138.075699 -8.362620
v -3.537661 -157.715637 -10.533712
v -2.890740 41.263962 -10.112008
v -3.040410 8.816032 -10.152952
v -1.998751 -117.482628 -9.630658
v -3.998246 -39.182053 -9.546915
v -3.723977 7.624871 -10.519814
v -2.427760 -60.994690 -9.368963
v -3.827045 -58.139309 -9.633001
v -3.365943 -64.216278 -26.764439
v -24.303883 -167.111481 -18.146471
v -19.953142 -153.816971 -53.548317
v -47.050690 -145.357071 -43.554573
v -41.614174 -144.259384 -45.320488
v -39.801636 -129.312851 -37.781811
v -36.310440 -128.476913 -27.688934
v -24.177031 -87.064697 -44.575695
v -42.270828 -116.867599 -51.929890
v -45.312767 -115.071190 -27.237911
v -23.863340 -93.460907 -24.005262
v -23.636488 -97.993736 -16.740208
v -17.312662 -103.904984 -27.177486
v -24.563206 -158.823059 -21.311066
v -16.267445 -153.859360 -46.674892
v -37.980045 -144.301178 -40.738400
v -32.866997 -128.516525 -19.055746
v -14.615831 -103.935997 -47.789848
v -38.527405 -116.910652 -26.472948
v -20.762445 -98.026787 -11.271376
v -14.307348 -149.966232 -10.866194
v -13.949301 -134.748444 -14.716511
v -10.294924 -150.012390 -14.474279
v -9.747072 -134.796768 -11.218316
v -14.369131 -106.438271 -15.264371
v -9.656825 -106.492462 13.068774
v 7.275002 -115.078827 13.099031
v 7.501738 -137.948364 18.981350
v 10.025344 -108.975510 5.268311
v 3.159912 -164.026749 19.535830
v 10.471234 -145.670029 9.959760
v 10.895971 -115.120468 22.289602
v 17.981787 -146.014725 7.231831
v 5.682331 -95.184341 21.558334
v 17.779736 -108.989410 10.448425
v 10.588824 -137.983856 14.445389
v 16.399908 -145.738220 13.503622
v 16.405083 -109.048882 1.339354
v -2.043653 -121.817139 1.431959
v -2.151499 -134.756638 -1.006459
v 0.688442 -121.848557 -0.951942
v 0.624956 -134.788574 10.494813
v 9.875299 -109.011017 12.049324
v 8.064813 -108.990196 12.701952
v 8.412364 -145.710388 11.376647
v 9.955906 -145.728134 7.593905
v 3.583859 -118.926369 7.594610
v 3.583153 -134.980988 5.526587
v 5.991598 -118.954063 5.708500
v 5.779843 -135.006256 -15.450196
v -2.375527 -150.068985 -8.391784
v 3.684925 -150.068970 1.085470
v -0.212358 -149.989304 3.504315
v -10.170084 -149.909622 -3.554091
v -16.230530 -149.909622 -15.697621
v -2.087390 -106.545044 -8.639209
v 3.973062 -106.545044 0.838047
v 0.075783 -106.465363 3.256891
v -9.881947 -106.385689 -3.801518
v -15.942391 -106.385696 -13.846834
v -3.067947 -135.457230 -13.927773
v -2.973685 -121.219109 -7.949881
v 1.995259 -135.457230 -8.030824
v 2.089523 -121.219109 1.734989
v -9.284397 -135.327484 1.654053
v -9.190135 -121.089371 -4.161966
v -14.347607 -135.327499 -4.242900
v -14.253342 -121.089378 -14.980820
v -2.574489 -134.847137 -8.266125
v 3.190842 -134.847137 -0.158968
v -1.112965 -135.392365 2.861931
v -9.769646 -134.698059 -3.852766
v -15.534980 -134.698074 -15.054382
v -2.488829 -121.907387 -8.339681
v 3.276508 -121.907379 -0.239907
v -1.018706 -121.154236 2.788374
v -9.683981 -121.758316 -3.926326
v -15.449316 -121.758316 -14.540308
v -9.693356 -121.856766 -13.716145
v -8.980482 -121.178139 -10.970193
v -13.851360 -121.808945 -10.148570
v -13.135528 -121.130356 -10.036608
v -13.242154 -135.368210 -13.642737
v -9.042207 -135.416519 -9.799561
v -7.947315 7.649926 -5.769162
v -8.324939 7.685715 -5.458868
v -4.050068 7.637787 -5.131121
v -8.762707 -58.082539 -9.248937
v -8.011210 -58.115822 -5.216308
v -4.548060 -58.056931 -9.987829
v -9.814661 -159.755249 -5.873214
v -6.514718 -180.006683 -1.884858
v -2.857439 -159.764648 -8.918686
v -8.646860 -138.035172 -8.801495
v -8.772082 -157.670929 -2.769763
v -3.593227 -157.677704 -2.979468
v -3.547354 -138.034637 -11.630055
v -9.254176 41.303223 -8.020341
v -5.949070 47.706390 -3.753538
v -2.182103 41.303482 -10.652348
v -8.701007 8.849152 -4.591035
v -3.258902 8.834076 -9.799561
v -7.947315 7.649926 -9.275070
v -7.815197 -39.122696 -9.248937
v -8.011210 -58.115822 -5.216308
v -4.548060 -58.056931 -6.016531
v -5.017675 -39.149422 -5.458868
v -4.050068 7.637787 -9.799561
v -7.947315 7.649926 -9.546915
v -3.723977 7.624871 -5.458868
v -4.050068 7.637787 -10.356149
v -8.994646 -60.964653 -9.548833
v -8.338666 -64.198280 -4.652980
v -4.133967 -64.107269 -3.973645
v -3.513307 -60.857765 -9.368963
v -3.827045 -58.139309 -9.248937
v -8.011210 -58.115822 -5.216308
v -4.548060 -58.056931 -10.387367
v -9.671855 -117.513229 -2.202625
v -2.641276 -117.249001 -11.271376
v -14.307348 -149.966232 -18.146471
v -19.953142 -153.816971 -16.740208
v -17.312662 -103.904984 12.701952
v 8.412364 -145.710388 13.099031
v 7.501738 -137.948364 7.594610
v 3.583153 -134.980988 1.339354
v -2.043653 -121.817139 1.431959
v -2.151499 -134.756638 7.593905
v 3.583859 -118.926369 12.049324
v 8.064813 -108.990196 13.068774
v 7.275002 -115.078827 -14.474279
v -9.747072 -134.796768 -1.006459
v 0.688442 -121.848557 -0.951942
v 0.624956 -134.788574 1.431959
v -2.151499 -134.756638 1.339354
v -2.043653 -121.817139 -10.866194
v -13.949301 -134.748444 -14.716511
v -10.294924 -150.012390 -11.271376
v -14.307348 -149.966232 -11.218316
v -14.369131 -106.438271 -15.264371
v -9.656825 -106.492462 -15.697621
v -2.087390 -106.545044 -15.264371
v -9.656825 -106.492462 -14.716511
v -10.294924 -150.012390 -15.450196
v -2.375527 -150.068985 -13.642737
v -9.042207 -135.416519 -8.639209
v 3.973062 -106.545044 -8.391784
v 3.684925 -150.068970 0.838047
v 0.075783 -106.465363 1.085470
v -0.212358 -149.989304 3.256891
v -9.881947 -106.385689 3.504315
v -10.170084 -149.909622 -3.801518
v -15.942391 -106.385696 -3.554091
v -16.230530 -149.909622 -11.218316
v -14.369131 -106.438271 -10.036608
v -13.242154 -135.368210 -11.271376
v -14.307348 -149.966232 -14.474279
v -9.747072 -134.796768 -13.846834
v -3.067947 -135.457230 -13.642737
v -9.042207 -135.416519 -14.980820
v -2.574489 -134.847137 -7.949881
v 1.995259 -135.457230 -8.266125
v 3.190842 -134.847137 -0.158968
v -1.112965 -135.392365 2.861931
v -9.769646 -134.698059 1.734989
v -9.284397 -135.327484 -4.161966
v -14.347607 -135.327499 -3.852766
v -15.534980 -134.698074 -10.036608
v -13.242154 -135.368210 -10.866194
v -13.949301 -134.748444 -15.054382
v -2.488829 -121.907387 -13.716145
v -8.980482 -121.178139 -13.927773
v -2.973685 -121.219109 -14.540308
v -9.693356 -121.856766 -8.339681
v 3.276508 -121.907379 -8.030824
v 2.089523 -121.219109 -0.239907
v -1.018706 -121.154236 2.788374
v -9.683981 -121.758316 1.654053
v -9.190135 -121.089371 -3.926326
v -15.449316 -121.758316 -4.242900
v -14.253342 -121.089378 -10.970193
v -13.851360 -121.808945 -10.148570
v -13.135528 -121.130356 -14.540308
v -9.693356 -121.856766 -10.970193
v -13.851360 -121.808945 -10.148570
v -13.135528 -121.130356 -13.716145
v -8.980482 -121.178139 -11.218316
v -14.369131 -106.438271 0.226754

vt 0.401787 0.727111
vt 0.394467 0.679910
vt 0.395440 0.721494
vt 0.535525 0.771735
vt 0.247084 0.693837
vt 0.244577 0.734058
vt 0.246380 0.727872
vt 0.379649 0.767156
vt 0.380808 0.688788
vt 0.376211 0.667699
vt 0.054387 0.566954
vt 0.060665 0.615437
vt 0.010563 0.620312
vt 0.058935 0.596103
vt 0.280317 0.639869
vt 0.274859 0.890499
vt 0.553863 0.781497
vt 0.548857 0.515190
vt 0.461465 0.552237
vt 0.488877 0.682958
vt 0.272575 0.839332
vt 0.553068 0.533921
vt 0.475388 0.628095
vt 0.297463 0.676271
vt 0.332779 0.652198
vt 0.314776 0.898166
vt 0.131030 0.807932
vt 0.130623 0.853568
vt 0.131578 0.446097
vt 0.553093 0.466613
vt 0.568375 0.487606
vt 0.583301 0.812827
vt 0.157050 0.891488
vt 0.159758 0.852366
vt 0.158984 0.727111
vt 0.394467 0.734058
vt 0.246380 0.727872
vt 0.379649 0.620312
vt 0.058935 0.639869
vt 0.274859 0.839332
vt 0.553068 0.533921
vt 0.475388 0.652198
vt 0.314776 0.853568
vt 0.131578 0.466613
vt 0.568375 0.852366
vt 0.158984 0.622007
vt 0.989908 0.688377
vt 0.905025 0.399385
vt 0.846469 0.472844
vt 0.837800 0.468028
vt 0.741931 0.521992
vt 0.735593 0.621782
vt 0.465022 0.462037
vt 0.661955 0.410098
vt 0.651793 0.617177
vt 0.508199 0.639120
vt 0.529125 0.700718
vt 0.564736 0.621977
vt 0.937307 0.688377
vt 0.905025 0.472844
vt 0.837800 0.521992
vt 0.735593 0.700718
vt 0.564736 0.462037
vt 0.661955 0.639120
vt 0.529125 0.743461
vt 0.874520 0.746522
vt 0.773758 0.743461
vt 0.874520 0.746522
vt 0.773758 0.751633
vt 0.544738 0.741018
vt 0.578103 0.468236
vt 0.136982 0.493251
vt 0.270522 0.503276
vt 0.096280 0.504773
vt 0.435946 0.546738
vt 0.302220 0.468236
vt 0.136982 0.592951
vt 0.295245 0.433661
vt 0.015824 0.548945
vt 0.085580 0.493251
vt 0.270522 0.546738
vt 0.302220 0.503276
vt 0.096280 0.374716
vt 0.180089 0.396809
vt 0.284043 0.387430
vt 0.192608 0.399856
vt 0.265923 0.464337
vt 0.096950 0.464337
vt 0.096950 0.510401
vt 0.316789 0.510401
vt 0.316789 0.420864
vt 0.155362 0.445772
vt 0.275331 0.432760
vt 0.168656 0.448232
vt 0.259196 0.357271
vt 0.475390 0.427168
vt 0.522744 0.423211
vt 0.609316 0.335406
vt 0.653957 0.258533
vt 0.609315 0.362846
vt 0.008655 0.295901
vt 0.035669 0.289281
vt 0.115763 0.349607
vt 0.168843 0.416552
vt 0.141829 0.851477
vt 0.775727 0.847559
vt 0.677676 0.791404
vt 0.776027 0.786894
vt 0.677633 0.791404
vt 0.776027 0.786894
vt 0.677633 0.851477
vt 0.775727 0.847559
vt 0.677676 0.347934
vt 0.273371 0.298591
vt 0.281875 0.760241
vt 0.775863 0.298591
vt 0.281875 0.347934
vt 0.273371 0.336739
vt 0.201229 0.286574
vt 0.211043 0.758049
vt 0.677691 0.286574
vt 0.211043 0.336739
vt 0.201229 0.386499
vt 0.193825 0.898222
vt 0.678148 0.386499
vt 0.193825 0.898222
vt 0.678148 0.754394
vt 0.777428 0.754394
vt 0.777428 0.676599
vt 0.281908 0.640790
vt 0.283846 0.604913
vt 0.289190 0.853848
vt 0.109230 0.888449
vt 0.108544 0.819723
vt 0.107728 0.773246
vt 0.401787 0.721494
vt 0.535525 0.679910
vt 0.395440 0.771735
vt 0.247084 0.767156
vt 0.380808 0.688788
vt 0.376211 0.693837
vt 0.244577 0.667699
vt 0.054387 0.615437
vt 0.010563 0.566954
vt 0.060665 0.682958
vt 0.272575 0.596103
vt 0.280317 0.628095
vt 0.297463 0.515190
vt 0.461465 0.446097
vt 0.553093 0.487606
vt 0.583301 0.552237
vt 0.488877 0.676271
vt 0.332779 0.676599
vt 0.281908 0.640790
vt 0.283846 0.604913
vt 0.289190 0.898166
vt 0.131030 0.891488
vt 0.159758 0.812827
vt 0.157050 0.807932
vt 0.130623 0.853848
vt 0.109230 0.888449
vt 0.108544 0.819723
vt 0.107728 0.890499
vt 0.553863 0.781497
vt 0.548857 0.761474
vt 0.905150 0.707066
vt 0.931492 0.709424
vt 0.542739 0.500311
vt 0.319768 0.478691
vt 0.288069 0.448232
vt 0.259196 0.387430
vt 0.192608 0.399856
vt 0.265923 0.432760
vt 0.168656 0.451959
vt 0.097501 0.442934
vt 0.125341 0.397192
vt 0.264725 0.251899
vt 0.216022 0.262875
vt 0.284956 0.262875
vt 0.284956 0.251899
vt 0.216022 0.397192
vt 0.264725 0.284171
vt 0.500876 0.255576
vt 0.539661 0.431950
vt 0.084526 0.413684
vt 0.039231 0.853301
vt 0.578515 0.913030
vt 0.577600 0.918013
vt 0.874520 0.856701
vt 0.874583 0.901651
vt 0.774909 0.787298
vt 0.577998 0.791660
vt 0.874050 0.747156
vt 0.578447 0.750892
vt 0.874890 0.787298
vt 0.577998 0.791660
vt 0.874050 0.853301
vt 0.578515 0.856701
vt 0.874583 0.913030
vt 0.577600 0.901651
vt 0.774909 0.918013
vt 0.874520 0.264623
vt 0.286649 0.306717
vt 0.294976 0.270976
vt 0.299851 0.298272
vt 0.280830 0.348411
vt 0.290393 0.346687
vt 0.275150 0.391644
vt 0.284535 0.346687
vt 0.275150 0.348411
vt 0.290393 0.306717
vt 0.294976 0.298272
vt 0.280830 0.270976
vt 0.299851 0.264623
vt 0.286649 0.285999
vt 0.210089 0.254850
vt 0.206056 0.284426
vt 0.200173 0.252267
vt 0.216020 0.336934
vt 0.200860 0.335434
vt 0.192174 0.367784
vt 0.184302 0.336934
vt 0.200860 0.335434
vt 0.192174 0.285999
vt 0.210089 0.284426
vt 0.200173 0.252267
vt 0.216020 0.254850
vt 0.206056 0.747181
vt 0.686116 0.747181
vt 0.686116 0.754044
vt 0.677644 0.754044
vt 0.677644 0.741018
vt 0.578103 1.000000

f 119/119 177/177 124/124
f 177/177 119/119 114/114
f 120/120 114/114 119/119
f 114/114 120/120 115/115
f 178/178 115/115 120/120
f 115/115 178/178 179/179
f 122/122 180/180 181/181
f 180/180 122/122 117/117
f 123/123 117/117 122/122
f 117/117 123/123 118/118
f 126/126 118/118 123/123
f 118/118 126/126 182/182
f 187/187 125/125 188/188
f 125/125 187/187 107/107
f 189/189 106/106 190/190
f 106/106 189/189 191/191
f 192/192 107/107 187/187
f 107/107 192/192 109/109
f 190/190 108/108 193/193
f 108/108 190/190 106/106
f 194/194 109/109 192/192
f 109/109 194/194 121/121
f 193/193 116/116 195/195
f 116/116 193/193 108/108
f 196/196 121/121 194/194
f 121/121 196/196 111/111
f 195/195 110/110 197/197
f 110/110 195/195 116/116
f 198/198 111/111 196/196
f 111/111 198/198 113/113
f 197/197 112/112 199/199
f 112/112 197/197 110/110
f 200/200 113/113 198/198
f 113/113 200/200 127/127
f 199/199 201/201 202/202
f 201/201 199/199 112/112
f 203/203 204/204 205/205
f 204/204 203/203 206/206
f 206/206 207/207 204/204
f 207/207 206/206 208/208
f 208/208 209/209 207/207
f 209/209 208/208 87/87
f 209/209 210/210 211/211
f 210/210 209/209 173/173
f 210/210 212/212 211/211
f 212/212 210/210 213/213
f 213/213 214/214 212/212
f 214/214 213/213 215/215
f 216/216 217/217 218/218
f 217/217 216/216 219/219
f 220/220 218/218 221/221
f 218/218 220/220 216/216
f 222/222 220/220 221/221
f 220/220 222/222 86/86
f 223/223 222/222 224/224
f 222/222 223/223 172/172
f 225/225 224/224 226/226
f 224/224 225/225 223/223
f 227/227 226/226 228/228
f 226/226 227/227 225/225
f 209/209 87/87 85/85
f 222/222 84/84 86/86
f 4/4 3/3 8/8
f 8/8 7/7 2/2
f 8/8 10/10 11/11
f 12/12 13/13 16/16
f 16/16 14/14 12/12
f 12/12 14/14 24/24
f 24/24 19/19 23/23
f 23/23 19/19 32/32
f 32/32 20/20 25/25
f 25/25 26/26 16/16
f 16/16 21/21 131/131
f 131/131 132/132 35/35
f 35/35 29/29 33/33
f 33/33 28/28 133/133
f 133/133 134/134 28/28
f 28/28 135/135 22/22
f 22/22 35/35 18/18
f 18/18 33/33 136/136
f 138/138 137/137 38/38
f 38/38 140/140 36/36
f 36/36 136/136 38/38
f 38/38 37/37 143/143
f 144/144 145/145 40/40
f 39/39 40/40 145/145
f 39/39 145/145 148/148
f 148/148 43/43 42/42
f 42/42 45/45 151/151
f 151/151 45/45 153/153
f 153/153 152/152 40/40
f 155/155 40/40 46/46
f 46/46 158/158 159/159
f 159/159 46/46 161/161
f 161/161 44/44 160/160
f 160/160 44/44 41/41
f 41/41 164/164 165/165
f 165/165 41/41 53/53
f 57/57 58/58 47/47
f 48/48 59/59 50/50
f 48/48 66/66 49/49
f 51/51 49/49 128/128
f 50/50 66/66 67/67
f 50/50 128/128 67/67
f 52/52 50/50 55/55
f 54/54 55/55 56/56
f 57/57 56/56 50/50
f 49/49 59/59 48/48
f 50/50 59/59 60/60
f 60/60 68/68 167/167
f 47/47 60/60 53/53
f 65/65 56/56 47/47
f 59/59 60/60 68/68
f 60/60 61/61 69/69
f 61/61 62/62 129/129
f 61/61 69/69 68/68
f 61/61 129/129 49/49
f 61/61 49/49 55/55
f 51/51 55/55 56/56
f 55/55 56/56 168/168
f 63/63 53/53 61/61
f 59/59 49/49 60/60
f 59/59 61/61 53/53
f 63/63 65/65 53/53
f 56/56 57/57 63/63
f 63/63 168/168 72/72
f 89/89 72/72 73/73
f 90/90 76/76 79/79
f 80/80 74/74 76/76
f 75/75 78/78 92/92
f 92/92 94/94 77/77
f 81/81 91/91 83/83
f 88/88 79/79 81/81
f 82/82 91/91 79/79
f 78/78 75/75 87/87
f 87/87 95/95 86/86
f 86/86 94/94 171/171
f 171/171 174/174 79/79
f 88/88 175/175 176/176
f 176/176 175/175 74/74
f 79/79 89/89 83/83
f 77/77 88/88 91/91
f 75/75 169/169 90/90
f 75/75 76/76 82/82
f 75/75 91/91 176/176
f 176/176 77/77 81/81
f 81/81 170/170 94/94
f 94/94 77/77 73/73
f 73/73 72/72 99/99
f 183/183 96/96 99/99
f 183/183 97/97 100/100
f 183/183 99/99 100/100
f 184/184 183/183 62/62
f 62/62 64/64 230/230
f 230/230 54/54 231/231
f 231/231 57/57 65/65
f 232/232 65/65 231/231
