# MOD converted: weapon_rhand_lod.mod
# 25 verts, 6 faces

v 84.676414 -89.843994 -62.326546
v 88.612663 40.893120 -50.444801
v 85.428955 40.893120 -59.577320
v 101.247101 -89.844002 -46.508503
v 97.745323 -89.844002 -59.142860
v 100.494545 40.893017 -47.261024
v 97.310822 40.893013 -58.687359
v 90.713783 1.326305 -52.545849
v 89.068184 1.326304 -50.900249
v 95.209702 1.326290 -57.041698
v 96.855316 1.326290 -63.079086
v 88.178192 -89.844002 -54.793808
v 92.961769 -88.960945 -54.793800
v 92.961739 40.084633 -50.010300
v 84.676414 -89.843994 -46.508503
v 97.745323 -89.844002 -46.508503
v 97.745323 -89.844002 -50.900249
v 95.209702 1.326290 -62.326546
v 88.612663 40.893120 -59.142860
v 100.494545 40.893017 -47.261024
v 97.310822 40.893013 -59.577320
v 101.247101 -89.844002 -63.079086
v 88.178192 -89.844002 -47.261024
v 97.310822 40.893013 -50.444801
v 85.428955 40.893120 0.161284

vt 0.987663 0.007388
vt 0.751601 0.838802
vt 0.026935 0.529441
vt 0.987663 0.374722
vt 0.987665 0.007388
vt 0.979732 0.374839
vt 0.026963 0.684161
vt 0.371523 0.838798
vt 0.371523 0.374885
vt 0.371523 0.529522
vt 0.371523 0.684079
vt 0.987663 0.121453
vt 0.865666 0.121453
vt 0.865666 0.007388
vt 0.751601 0.007388
vt 0.979732 0.993436
vt 0.987661 0.993436
vt 0.371523 0.684144
vt 0.026942 0.529575
vt 0.026883 0.993540
vt 0.026882 0.235519
vt 0.979732 0.235519
vt 0.751601 0.235519
vt 0.979732 0.235519
vt 0.751601 1.000000

f 2/2 14/14 6/6
f 6/6 14/14 24/24
f 24/24 14/14 25/25
f 14/14 2/2 25/25
f 1/1 9/9 17/17
f 18/18 17/17 9/9
