# MOD converted: 01_jakmul03_lv2.mod
# 13 verts, 7 faces

v -0.949291 -7.042224 8.606345
v -0.949291 -7.042224 -7.411796
v -0.949291 8.263999 8.606345
v -0.949291 8.263999 0.597275
v 84.759583 0.610888 -6.113299
v 24.927803 -5.801439 7.307849
v 24.927803 -5.801439 7.307849
v 24.927803 7.023213 -6.113299
v 24.927803 7.023213 -9.773516
v 48.940052 -9.298977 10.968065
v 48.940052 -9.298977 10.968065
v 48.940052 10.520754 -9.773516
v 48.940052 10.520754 0.206029

vt 0.198992 0.683041
vt 0.198992 0.914856
vt 0.198833 0.793971
vt 0.198992 0.781191
vt 0.790369 0.793976
vt 0.344936 0.693758
vt 0.345573 0.793976
vt 0.344936 0.904139
vt 0.344936 0.793963
vt 0.586612 0.651069
vt 0.586671 0.793963
vt 0.586612 0.910111
vt 0.583419 1.000000

f 4/4 9/9 3/3
f 9/9 4/4 8/8
f 8/8 13/13 9/9
f 13/13 8/8 12/12
f 12/12 5/5 13/13
f 1/1 2/2 8/8
f 4/4 8/8 2/2
