# MOD converted: n006.mod
# 859 verts, 17 faces

v 106.182907 13.281432 -0.812248
v 122.301224 14.419053 0.885636
v 121.679565 -18.248091 1.733553
v 139.976746 11.436241 1.565315
v 134.538162 -15.647391 1.099001
v 157.262451 17.952778 1.542951
v 156.828995 -14.876065 0.800754
v 170.141876 18.826641 1.234404
v 168.166718 -10.629531 0.450623
v 173.766449 -1.232911 1.887936
v 181.821228 -2.579710 3.029793
v 183.613968 -10.610791 4.744125
v 201.160767 -14.794418 4.411670
v 196.309036 -14.969509 3.335428
v 185.831345 -11.976789 3.618217
v 186.730103 -14.025418 3.865886
v 191.729019 -12.952538 2.550090
v 180.358688 -8.313794 0.939174
v 175.168228 -3.569434 0.704026
v 179.647324 15.699962 2.024109
v 187.303558 14.005404 4.810375
v 213.638947 -6.923215 3.309689
v 214.633911 7.872611 2.205694
v 208.183029 13.867641 0.939755
v 195.245850 16.970709 1.107076
v 130.156189 -17.189331 0.738343
v 122.447784 -18.649937 1.153490
v 124.802803 15.696212 1.477824
v 132.222595 13.673364 0.953095
v 109.528427 -18.670532 -0.863823
v 111.534386 11.108443 1.263264
v 127.960968 11.666554 0.107394
v 184.487686 17.478016 0.695772
v 177.655914 -4.773283 0.637646
v 176.939590 -4.617887 3.697881
v 189.025497 -13.212382 2.768925
v 181.269485 -9.752569 5.227116
v 208.900040 -14.069932 1.640086
v 148.161728 14.156095 1.805623
v 145.608047 -14.333576 1.191194
v 106.417831 -20.917564 -2.205883
v 176.642166 -2.004977 -2.475305
v 177.267792 -2.228819 -21.024771
v 107.957016 8.359334 -21.429169
v 108.628525 -6.233381 -17.891893
v 123.282356 9.050103 -18.960836
v 123.236542 -4.763408 -13.225953
v 137.190323 -2.736080 -19.212717
v 157.203613 15.439499 -16.581818
v 159.570923 -3.278536 -18.403423
v 171.750351 9.012003 -5.809558
v 176.829315 7.369084 -3.519373
v 175.324173 2.463403 -4.576733
v 188.304565 3.263187 -2.413967
v 184.591583 -0.174861 -6.192352
v 191.675934 -1.389380 -5.297748
v 186.993378 -4.185148 -7.646982
v 199.484695 -2.993466 -5.276240
v 203.467926 -10.844946 -11.632168
v 107.615486 13.919840 -12.813359
v 107.390350 -16.943321 -11.342393
v 122.469528 -14.897901 -7.667136
v 135.696228 -13.140456 -8.499197
v 157.295609 -13.527991 -8.321933
v 168.189926 -9.508307 -0.019518
v 187.178696 -10.924561 -0.102313
v 203.972733 -14.694027 -3.532347
v 193.673264 8.636247 -2.400513
v 190.075226 9.119993 -3.504952
v 177.991318 13.162195 -7.726199
v 170.310715 17.922268 -8.844196
v 157.445969 18.916269 -7.206637
v 140.135635 10.747691 -9.725636
v 123.679558 14.612908 -18.944817
v 168.733292 0.200836 -16.648394
v 167.933777 16.799370 -1.178503
v 198.334625 -13.954074 -5.349841
v 198.483719 -11.278220 1.466493
v 187.219589 -11.708481 -1.924544
v 193.066788 -10.557393 -5.595961
v 194.248566 -8.760889 -7.591319
v 197.910904 2.681815 -0.112044
v 181.436371 -7.977466 -7.153665
v 196.108322 -2.604081 -12.885801
v 194.926453 0.922105 -13.351934
v 200.145813 -1.797001 -12.219955
v 198.805206 2.457280 -13.335608
v 198.181259 -1.521190 -19.733130
v 200.036926 1.358320 -21.037060
v 202.505722 0.209010 -6.207557
v 190.718063 -7.061729 -16.729851
v 159.992615 -0.014430 -22.130985
v 156.218536 12.858248 -23.586887
v 164.769714 15.960447 -25.422449
v 167.325821 7.076214 -18.206507
v 167.854416 3.220310 -28.252682
v 160.959000 12.155621 -20.276520
v 146.782440 -6.220703 -26.923101
v 141.803558 -2.539482 -29.525206
v 149.231369 -7.824809 -25.040827
v 150.638382 -9.044056 -30.559414
v 144.789886 -4.269318 -18.970934
v 147.066116 -7.390849 -24.553467
v 137.836029 -10.329467 -28.292912
v 147.686447 -13.273827 -24.485500
v 150.955078 -11.018500 -28.331804
v 140.814606 -12.876495 -6.790441
v 149.784424 -23.438307 -10.631651
v 144.301361 -28.206387 -13.008525
v 149.936188 -27.555819 -10.083073
v 152.485611 -24.459373 -1.727751
v 152.038010 -26.396650 -10.836197
v 146.133682 -33.501884 -11.930450
v 151.955383 -29.400051 -5.967509
v 155.290192 -25.911531 -1.157192
v 154.784851 -33.151043 -11.991375
v 149.879761 -38.855537 -11.758726
v 155.742081 -34.152679 -5.414910
v 158.829193 -31.317436 -2.898222
v 160.294586 -36.872906 -10.234308
v 151.747513 -42.759537 -9.001779
v 157.708237 -40.381531 1.605344
v 160.391495 -46.306709 -4.185105
v 156.117905 -50.368290 -2.767337
v 159.465637 -48.578449 -6.460379
v 176.897812 2.170810 -8.213788
v 176.817566 7.165102 -8.088967
v 185.396317 6.284541 -5.892427
v 183.963608 2.116576 -0.743657
v 181.473236 -4.775589 -4.440795
v 186.957336 11.338113 -5.921893
v 178.283905 12.673950 0.483242
v 155.164413 -29.698614 -3.332950
v 157.573563 -28.228970 0.766504
v 156.366196 -32.497417 -1.394120
v 158.697586 -32.291271 -1.029949
v 155.023834 -33.316429 -3.541506
v 158.165909 -32.935879 0.343442
v 158.386261 -36.836681 0.208647
v 157.574600 -37.247501 -1.199299
v 158.964722 -36.881596 -1.213604
v 157.326248 -36.409904 -19.666451
v 162.544174 -0.486679 -26.287476
v 161.067337 2.797779 -29.191990
v 157.441086 8.275164 -0.778795
v 160.672897 -41.742874 -5.893060
v 158.046494 -44.698399 -7.155861
v 153.159256 -46.781681 0.556752
v 159.144043 -41.859665 -0.692083
v 192.905670 -13.156551 -2.157421
v 208.254791 -14.317719 -8.887082
v 197.463196 -5.322946 -7.515930
v 203.109909 -7.875762 -9.757973
v 199.607101 -3.100449 -5.197237
v 214.108154 -0.884669 -9.415241
v 207.249817 0.603658 -11.630398
v 199.155838 2.582136 -3.639187
v 213.272507 6.112577 -7.308254
v 207.029861 7.590195 -5.149885
v 207.527832 10.512417 -7.362920
v 195.503815 13.160969 -11.993870
v 194.301361 5.755403 -10.808939
v 193.462296 3.510188 -8.850413
v 185.150238 13.661693 -12.790472
v 185.339203 9.573533 -12.257588
v 185.459564 5.011850 -8.591230
v 191.899185 -0.449622 -9.328979
v 189.596008 -2.817604 -8.107431
v 183.837708 1.114969 -8.944655
v 182.820892 -1.353184 -10.374983
v 180.182877 5.809588 -11.272786
v 181.340820 9.169265 -10.929572
v 180.759460 12.212164 -4.618672
v 178.848221 15.648470 -4.928306
v 177.900040 -1.863230 2.546275
v 204.870422 -18.484934 -0.881511
v 204.065582 -18.467014 2.645471
v 208.824356 -15.272967 1.403664
v 213.923782 -7.479421 1.241652
v 215.978409 -0.913624 -2.477046
v 201.910492 -13.792186 -4.563834
v 191.921478 -10.568996 2.658277
v 201.915802 -15.332350 -3.825705
v 198.034622 -12.674801 -6.523957
v 198.473373 -10.412470 -5.807033
v 198.101257 -13.102808 -5.196234
v 207.315720 -13.263237 -4.200431
v 212.526855 -7.079553 -8.332508
v 207.398880 -5.556385 -6.896104
v 191.821777 -1.244394 -4.402123
v 188.355881 3.358157 -7.478704
v 185.586639 2.774412 -9.565282
v 180.121796 3.872970 -6.900699
v 178.287262 2.937110 -8.624262
v 195.005234 -5.424027 -5.893995
v 193.903488 -8.220112 -6.861485
v 188.227951 -6.998130 0.804109
v 197.932831 -15.200703 -0.581236
v 197.267868 -18.339558 -2.046442
v 197.294891 -14.845280 -5.795385
v 195.484222 -6.922104 -6.056541
v 187.308899 -4.137188 -5.840759
v 182.042068 -2.463396 -18.123991
v 174.314255 9.542935 -18.503029
v 170.156799 -1.057991 -18.101812
v 166.655914 0.415613 -17.238750
v 166.977127 17.957106 -26.812983
v 160.426682 15.054906 -30.557577
v 165.247192 4.532701 -20.273802
v 169.672882 2.235270 -26.474411
v 171.299240 9.350215 -28.274559
v 165.542648 14.503732 -18.254660
v 124.724838 9.182712 -18.746565
v 124.146492 -7.340549 -16.211020
v 131.598419 -6.791509 -15.665611
v 132.252975 8.726124 -10.375835
v 123.258827 -16.900965 -9.094470
v 130.853638 -15.046545 -8.968606
v 132.865036 13.160361 -9.835873
v 124.958885 15.594667 -17.901594
v 113.718674 9.056053 -21.151718
v 76.052963 -3.588441 -19.755291
v 113.919899 -4.601384 -17.880123
v 77.876717 8.008638 -3.332104
v 74.911285 -10.581570 -11.163401
v 111.653465 -15.495377 -13.152177
v 73.213257 -14.954782 -3.857213
v 77.087257 4.730184 -9.678607
v 113.607552 13.442472 -16.121916
v 70.919319 4.427568 -19.099327
v 70.214867 -2.929443 -12.655316
v 68.296074 -12.131388 -5.044095
v 69.315086 -7.470878 -5.005713
v 70.975609 3.342201 -16.747765
v 56.436852 11.747067 -21.600780
v 55.696430 0.709714 -11.293489
v 36.412212 -4.517521 -3.413650
v 50.028732 -3.839818 -3.248156
v 54.693668 10.354923 -13.897426
v 17.748314 13.945387 -17.461014
v 15.258031 6.479452 -11.304120
v 18.825409 -0.814340 -4.661932
v 15.077107 2.745621 -5.188239
v 17.747105 12.894590 -14.961607
v 0.176649 15.570880 -18.954271
v 0.176633 6.398276 -3.506768
v 0.176679 4.247488 -4.727136
v 0.176679 14.257505 -21.417250
v 4.901475 -4.801219 -12.644385
v 11.505684 -9.271532 -4.513362
v 5.011346 -7.159483 -21.979647
v 0.176625 -3.513845 -22.262375
v 0.176637 -12.909967 -3.750707
v 0.176644 -6.070817 -14.242335
v 7.401294 -19.224102 -6.002087
v 0.176637 -15.163454 -14.330174
v 1.150149 -21.986425 -3.569749
v 73.033478 3.995098 -4.367043
v 71.333656 -8.996337 -12.688610
v 69.829338 -13.829311 -20.040375
v 71.988716 -3.387362 -16.620247
v 73.682274 6.721190 -11.393700
v 62.934353 -4.587112 -14.515578
v 129.588470 -3.912213 -13.104156
v 129.076859 7.806771 -8.548241
v 128.927963 -13.585294 -8.429377
v 128.597961 11.501808 -1.924472
v 101.556908 -14.544944 -11.969368
v 102.488930 -15.826237 -21.277636
v 104.143318 -4.870662 -18.426317
v 104.284279 6.412102 -10.073493
v 104.291183 9.391908 -1.633491
v 103.610062 8.264192 -4.162571
v 81.538315 3.301546 -4.088188
v 79.211578 -11.204495 -12.853516
v 77.920273 -14.956705 -20.961456
v 80.316338 -5.046159 -17.610720
v 81.774094 6.921988 -20.132771
v 4.346780 6.359138 -15.406689
v 6.304986 16.530531 -4.092975
v 6.430783 15.046926 -2.815991
v 4.392910 4.077206 -4.965680
v 31.131256 1.852129 -17.921005
v 31.987034 5.653394 -13.539359
v 32.642948 11.337032 -4.519689
v 33.051231 10.016380 -14.618315
v 107.330269 -14.383306 -9.215724
v 107.600769 14.021877 -2.793924
v 179.669296 -2.448266 -2.949670
v 179.300125 -1.948446 -4.411191
v 160.186005 -34.252975 -10.683666
v 157.448990 -37.600582 0.608225
v 189.876282 -11.418756 1.112217
v 192.419037 -11.568678 1.497487
v 194.929581 -14.214211 -3.333473
v 190.528061 -10.069860 -3.519634
v 187.143829 -8.178471 -2.937988
v 183.946213 -6.004697 -8.355138
v 201.171143 -9.521722 -8.753006
v 194.814957 -7.660683 -11.254805
v 196.411270 9.531821 -11.942976
v 195.295334 3.895230 -12.798563
v 187.175201 11.013220 -14.353712
v 185.898788 6.127532 -14.743977
v 181.641663 12.072453 -15.627794
v 187.182434 8.443329 -12.834155
v 196.081528 6.094843 -9.977746
v 207.413483 5.000977 -3.721498
v 195.746155 16.611769 -4.884578
v 185.177078 17.047655 -7.997414
v 147.684265 12.913246 -12.872684
v 147.300552 7.800983 -13.326678
v 146.893326 -3.072800 -8.064590
v 146.114273 -12.404912 -0.088582
v 183.806320 -8.874536 -6.023840
v 187.182999 17.597746 -9.038153
v 187.162750 15.589754 -7.431797
v 182.123047 15.897778 -4.716929
v 198.289749 -10.492410 -16.095596
v 157.963074 6.235963 -19.081198
v 155.029312 7.125386 -22.208946
v 143.148392 -4.369656 -19.765190
v 141.800903 -7.741490 -8.217472
v 145.861038 -25.783867 3.519045
v 176.145172 -2.154591 3.880209
v 176.716034 -2.394913 20.963942
v 106.666771 7.822592 22.101934
v 108.325676 -4.467728 17.235363
v 121.364548 9.889951 19.115334
v 122.021973 -3.424788 16.503502
v 136.496338 -2.781761 20.417976
v 157.939590 16.216501 19.214794
v 160.367706 -2.804980 20.527998
v 171.680481 8.821878 7.582150
v 175.666687 7.019106 4.815778
v 174.600540 2.245575 8.214829
v 187.348083 4.339531 6.106750
v 183.954437 0.542117 11.171216
v 190.419556 0.456231 10.223764
v 185.870285 -2.535335 14.025652
v 197.916504 -0.689837 13.941046
v 202.077408 -8.802298 11.549064
v 106.125023 12.999940 15.786684
v 107.685555 -16.680132 12.599882
v 121.929764 -14.190364 10.849336
v 135.264008 -13.168900 11.515232
v 157.741104 -13.263217 10.747253
v 168.614380 -9.256033 6.553000
v 186.703125 -10.225956 9.812228
v 203.255341 -13.640192 6.785459
v 192.926697 9.732946 5.388191
v 189.492828 9.775378 5.815567
v 177.182159 12.918613 9.332680
v 170.690430 18.147942 10.995236
v 157.887573 19.178730 10.669277
v 139.718338 10.720233 8.746340
v 121.608582 14.705294 20.718044
v 168.716354 -0.021773 18.907473
v 167.854294 16.633636 9.896018
v 197.533295 -12.776941 13.393295
v 197.127502 -9.285976 5.285092
v 186.943283 -11.302595 9.157518
v 192.264923 -9.379457 12.502047
v 192.939056 -6.837218 12.560902
v 196.452728 4.823833 5.208714
v 181.051361 -7.411912 12.986285
v 194.651031 -0.463364 17.523273
v 192.726135 4.154369 19.285919
v 197.784180 1.672134 17.728306
v 196.638214 5.640537 18.932766
v 195.846390 1.908678 24.784176
v 196.815750 6.090143 26.637503
v 199.056091 5.276424 12.235800
v 189.383545 -5.101348 19.546408
v 160.229111 -0.549875 23.264036
v 156.802521 13.866914 24.560335
v 165.021744 16.221050 27.476042
v 166.986069 7.090961 21.403061
v 167.351440 1.595261 28.574060
v 161.195892 13.385000 24.031223
v 145.263855 -4.461501 29.342413
v 139.946152 0.666266 33.338940
v 147.403748 -4.052614 29.603195
v 148.472626 -6.509920 33.528378
v 142.436813 -0.511656 23.009329
v 145.045990 -6.573389 28.824652
v 135.351913 -6.105661 33.501545
v 144.672638 -9.749574 29.508953
v 148.228134 -9.094690 33.309902
v 137.820831 -7.958935 17.908201
v 146.001236 -25.648270 19.403748
v 139.746841 -25.944162 22.408010
v 142.871765 -27.981806 20.918240
v 146.417557 -27.335119 19.609413
v 151.574814 -31.549740 14.125946
v 140.680832 -25.889536 21.430521
v 143.926926 -31.883617 20.112858
v 146.331055 -33.812691 13.575230
v 152.113937 -33.788120 7.335161
v 143.796402 -25.672642 11.113857
v 141.884781 -31.885929 14.240602
v 146.784348 -36.788059 8.767324
v 148.791885 -38.928085 2.476531
v 144.872849 -28.603827 5.423574
v 143.880081 -34.351334 0.353894
v 154.210587 -39.197174 -3.695212
v 150.377701 -33.097748 -2.620097
v 150.839142 -36.977451 8.185151
v 177.079086 2.312329 9.846903
v 177.041092 7.339621 11.243560
v 183.717926 5.779303 8.620023
v 182.703690 1.737306 2.769021
v 181.168289 -4.867390 8.185695
v 185.861145 11.008132 7.417059
v 178.449005 12.802842 17.024162
v 153.030975 -34.428661 17.494236
v 148.655731 -36.207264 13.563286
v 153.942459 -37.605331 13.668023
v 151.019257 -38.866333 11.954350
v 153.033310 -36.093807 12.309143
v 149.433090 -37.893215 10.007237
v 153.297272 -38.926456 9.630486
v 153.461838 -38.103832 9.680661
v 151.686386 -39.049324 8.771420
v 151.559998 -36.878479 23.275042
v 161.549454 -1.032351 28.831326
v 160.199203 3.877967 30.115364
v 157.171539 10.263287 3.885765
v 150.648804 -40.060493 0.866348
v 146.766068 -35.865696 -1.126592
v 147.230606 -30.802862 3.841224
v 152.412247 -39.049068 8.485759
v 192.241577 -12.181021 12.331391
v 207.206406 -12.777677 15.424787
v 195.704041 -2.738790 15.435975
v 201.449158 -5.436158 16.107775
v 197.735519 -0.351126 13.296419
v 212.769989 1.081056 16.089594
v 205.404343 3.314620 16.666668
v 197.108322 5.589891 10.206779
v 212.270645 7.584293 12.558769
v 205.592316 9.701897 9.930388
v 206.436646 12.115328 9.805787
v 194.261520 14.985866 15.663613
v 192.300125 8.695171 14.867311
v 191.604416 6.239368 9.666224
v 183.810410 15.629863 14.359958
v 183.374649 12.459403 14.421831
v 184.203156 6.090257 13.327313
v 190.313217 1.880148 14.208387
v 187.892899 -0.315767 11.384407
v 182.427322 3.186794 12.565799
v 181.264450 0.933209 12.076117
v 178.558365 8.195959 12.406966
v 179.627411 11.686234 11.355804
v 179.146942 14.580918 4.259485
v 178.205811 16.592148 8.086219
v 176.958344 -0.479892 8.170382
v 204.463470 -17.887133 11.368329
v 203.179214 -17.164955 7.965588
v 208.439407 -14.707481 8.263131
v 213.427444 -6.750314 7.339292
v 215.537201 -0.265494 11.627531
v 200.889923 -12.292982 11.550325
v 190.755493 -8.856189 6.982100
v 201.602936 -14.872761 12.146868
v 196.878891 -10.977046 14.346697
v 196.963211 -8.194088 14.162742
v 196.656296 -10.980181 14.917152
v 205.860352 -11.125343 13.402433
v 211.253143 -5.208509 16.351532
v 205.612808 -2.932667 11.842517
v 190.465897 0.747369 8.036773
v 187.425766 4.404831 10.678080
v 184.272858 4.704330 11.689055
v 178.583893 6.132172 9.045698
v 177.133423 4.632083 14.841732
v 193.307281 -2.929784 12.628173
v 192.563263 -6.251353 12.500657
v 186.826935 -4.940089 8.181398
v 197.399033 -14.416557 10.083439
v 196.496185 -17.205984 10.774084
v 196.367218 -13.482559 12.486355
v 194.161407 -4.978901 10.992764
v 186.075241 -2.324979 9.684168
v 180.918716 -0.813219 20.153879
v 174.359955 9.215039 20.321936
v 170.179047 -1.568193 21.048216
v 166.236618 -1.204375 19.213675
v 167.008957 17.868921 27.420860
v 160.591614 16.142202 33.260136
v 164.279984 5.230699 23.121527
v 169.278015 0.723564 28.446457
v 171.084183 8.974402 29.233185
v 165.595901 15.256874 19.764542
v 122.800377 9.051565 20.113836
v 122.513069 -7.040348 18.666771
v 129.988403 -7.102764 18.460363
v 130.677673 8.421572 11.877832
v 122.335190 -16.944071 11.366016
v 129.909149 -15.229142 11.928214
v 131.900406 12.973873 11.413375
v 123.582108 15.414520 16.992792
v 111.301140 9.193743 25.339636
v 75.726494 -6.569183 20.040390
v 112.525764 -3.985995 19.679197
v 76.642937 3.747501 9.536421
v 73.737411 -17.217642 13.078038
v 111.340126 -15.639301 20.226452
v 72.763435 -19.555994 6.776291
v 74.903755 -2.446779 8.525753
v 110.891655 12.690407 19.324947
v 69.947517 -0.327185 23.755707
v 70.020088 -6.703487 19.572191
v 67.189171 -16.879599 11.093615
v 67.893875 -14.053274 8.725301
v 69.154198 -3.757826 18.981779
v 57.203583 8.247549 26.157124
v 56.032097 -1.399478 18.269598
v 35.759804 -7.079910 9.724737
v 48.809658 -9.235676 6.221872
v 54.433201 4.157814 18.189505
v 18.198332 13.086907 23.094469
v 15.690034 6.591948 18.322233
v 18.800808 -1.791557 11.304238
v 14.742756 0.483635 9.836820
v 17.857468 10.464281 19.428011
v 0.183019 14.974168 24.770546
v 0.183037 6.516337 9.830547
v 0.183005 2.038867 9.512791
v 0.182999 12.117992 28.909790
v 4.907885 -4.177624 20.919735
v 11.512074 -9.931419 12.561974
v 5.017713 -9.081889 29.269648
v 0.183028 -2.819639 30.979523
v 0.183030 -12.063194 11.642476
v 0.183008 -8.122031 24.014217
v 7.407687 -19.524719 15.251853
v 0.183022 -16.765938 24.521566
v 1.156544 -22.241486 7.010632
v 71.145409 -3.400817 10.621451
v 69.908409 -15.769420 19.845942
v 69.065849 -18.614876 24.657995
v 71.747887 -7.014534 19.094997
v 72.725327 2.035834 17.247166
v 62.180664 -10.154930 15.794040
v 128.097824 -3.551069 14.005864
v 127.237648 7.974409 10.171908
v 128.103531 -13.339316 9.246483
v 126.871544 11.454834 4.091302
v 100.991402 -16.606628 15.127698
v 102.528267 -16.824610 22.198967
v 103.446907 -4.258290 17.374136
v 101.902634 6.154519 8.701606
v 100.911850 7.436776 0.752956
v 99.772812 4.641212 6.857306
v 79.008667 -3.180201 10.298697
v 77.543419 -18.266321 19.715961
v 76.839928 -19.962872 25.352215
v 80.017761 -8.746329 19.183004
v 80.051041 3.213886 25.941261
v 4.353193 6.657080 19.721806
v 6.311363 15.990404 8.765837
v 6.437103 12.801678 9.173741
v 4.399239 1.765411 10.992548
v 30.510265 -1.789460 22.743473
v 32.528240 4.603189 17.199465
v 33.273933 9.146390 8.676223
v 32.960918 5.902689 7.880744
v 144.608078 -24.726147 7.332314
v 147.394623 -23.923702 15.153938
v 165.507126 -54.717190 15.930444
v 163.220169 -56.377743 5.573887
v 144.555450 -25.654476 5.369945
v 145.840256 -25.084188 -10.689606
v 143.583145 -30.378019 13.580562
v 163.072205 -57.144211 13.369320
v 164.331772 -56.530582 6.024319
v 164.176254 -58.495083 -2.651077
v 162.171906 -61.994400 -0.949004
v 147.815125 -25.924440 -9.483206
v 146.035782 -29.025841 -1.600449
v 164.285141 -60.064503 6.891037
v 165.984818 -56.695148 10.072536
v 145.979736 -23.551825 28.576239
v 148.141830 -17.363447 18.322149
v 163.367645 -55.600605 18.095173
v 164.525681 -55.091270 36.599720
v 166.486969 -49.059624 28.873486
v 148.584106 -16.813816 33.934586
v 167.823456 -48.693829 10.297238
v 144.814636 -24.048340 -1.933825
v 145.663879 -27.039833 17.083355
v 107.468628 -13.842362 9.160933
v 106.118370 13.025012 4.595836
v 179.027740 -2.641388 4.711380
v 178.635025 -2.148661 11.457405
v 147.745667 -38.014961 8.267956
v 142.757843 -33.220085 6.433064
v 189.454803 -10.799624 6.338804
v 192.040848 -11.013135 6.876732
v 194.540359 -13.642439 10.057239
v 189.559128 -8.646534 9.360019
v 186.211899 -6.809467 7.887481
v 183.162903 -4.854035 16.316093
v 199.385986 -6.899368 15.406944
v 193.066788 -5.092673 14.459208
v 194.550659 12.265015 16.144890
v 193.262955 6.880742 14.328087
v 185.212372 13.896564 16.672661
v 183.653778 9.425387 15.200934
v 179.474915 15.255355 17.603743
v 184.777863 11.975574 16.671221
v 194.078781 9.204206 15.737509
v 205.552765 7.734302 5.595666
v 195.071976 17.602108 5.125121
v 184.452789 18.111607 11.290970
v 147.673935 13.026054 16.225389
v 147.284958 7.971160 16.806311
v 146.877182 -2.896570 11.653091
v 146.103699 -12.289596 5.711011
v 183.386688 -8.258085 6.397855
v 186.284195 18.918072 9.731153
v 185.804642 17.584778 8.637363
v 179.003235 15.704043 12.589026
v 197.037521 -8.652925 18.428038
v 158.670044 6.621470 20.527788
v 155.214691 7.259695 25.343325
v 141.475128 -1.985734 24.369869
v 139.093048 -5.223602 18.066622
v 142.282898 -25.234131 27.703377
v 172.000427 9.507181 22.059715
v 176.568100 9.461219 18.502159
v 174.685837 -0.642316 24.743551
v 167.474731 16.643990 17.764032
v 176.169693 8.814187 10.282789
v 177.803696 -0.942247 12.817109
v 179.798401 7.637464 15.558397
v 175.316925 -1.348233 10.484048
v 171.346771 -9.501342 -1.343006
v 166.202560 -12.042479 9.926375
v 165.328751 -12.126688 2.804199
v 174.359924 -7.073579 0.841157
v 165.541061 23.514330 0.786376
v 169.920074 20.287071 12.629415
v 171.826248 17.853319 13.697238
v 159.919449 19.885773 1.057824
v 157.517426 20.636818 14.269666
v 168.164642 21.223627 22.877621
v 168.934998 -2.435256 10.917010
v 178.676407 15.651516 0.653228
v 175.835876 20.397924 -16.592480
v 174.629288 -0.533871 -19.870138
v 176.725998 8.888737 -25.596308
v 172.291763 9.284692 -23.028444
v 167.496689 16.677696 -15.608677
v 176.206039 8.114164 -10.415036
v 179.579422 8.455518 -8.300835
v 177.519196 -1.107967 -13.619324
v 175.152954 -0.996443 -7.206913
v 162.918854 -13.875577 7.815344
v 167.369781 -11.869423 -8.467689
v 170.995270 -9.968771 -0.702307
v 174.277237 -7.151671 -10.780728
v 171.427490 17.613276 -11.616204
v 159.508942 19.669085 -12.089710
v 168.424042 21.050085 -20.802250
v 169.068542 -1.473174 -8.241759
v 178.424103 16.961712 12.539810
v 167.976883 -10.691305 8.728775
v 169.634995 -12.446144 5.001595
v 166.915848 -12.603738 4.216926
v 169.924072 -10.615045 11.369849
v 170.904282 -9.455154 -16.581818
v 159.570923 -3.278536 -19.212717
v 157.203613 15.439499 -16.648394
v 167.933777 16.799370 -18.944817
v 168.733292 0.200836 -10.836197
v 146.133682 -33.501884 -1.157192
v 154.784851 -33.151043 -18.403423
v 171.750351 9.012003 -1.029949
v 155.023834 -33.316429 1.605344
v 160.391495 -46.306709 0.556752
v 159.144043 -41.859665 -4.185105
v 156.117905 -50.368290 -7.155861
v 153.159256 -46.781681 -11.991375
v 149.879761 -38.855537 -1.213604
v 157.326248 -36.409904 -10.234308
v 151.747513 -42.759537 -2.767337
v 159.465637 -48.578449 -9.415241
v 207.249817 0.603658 -11.630398
v 199.155838 2.582136 -7.308254
v 207.029861 7.590195 -11.993870
v 194.301361 5.755403 -12.790472
v 185.339203 9.573533 4.744125
v 201.160767 -14.794418 4.744125
v 201.160767 -14.794418 4.744125
v 201.160767 -14.794418 -10.808939
v 193.462296 3.510188 -12.257588
v 185.459564 5.011850 -6.523957
v 198.473373 -10.412470 -3.857213
v 77.087257 4.730184 -5.005713
v 70.975609 3.342201 -3.569749
v 73.033478 3.995098 -4.519689
v 33.051231 10.016380 -5.188239
v 17.747105 12.894590 -4.727136
v 0.176679 14.257505 -3.248156
v 54.693668 10.354923 -4.727136
v 0.176679 14.257505 -14.961607
v 0.176649 15.570880 -22.262375
v 0.176637 -12.909967 -6.002087
v 0.176637 -15.163454 -14.330174
v 1.150149 -21.986425 -1.633491
v 103.610062 8.264192 -0.863823
v 111.534386 11.108443 -4.162571
v 81.538315 3.301546 -21.979647
v 0.176625 -3.513845 -18.954271
v 0.176633 6.398276 -4.092975
v 6.430783 15.046926 -3.506768
v 0.176679 4.247488 -3.750707
v 0.176644 -6.070817 -20.132771
v 4.346780 6.359138 -2.815991
v 4.392910 4.077206 0.695772
v 177.655914 -4.773283 0.637646
v 176.939590 -4.617887 4.744125
v 201.160767 -14.794418 -4.716929
v 198.289749 -10.492410 -4.716929
v 198.289749 -10.492410 -16.095596
v 157.963074 6.235963 -7.362920
v 195.503815 13.160969 -3.721498
v 195.746155 16.611769 -22.130985
v 156.218536 12.858248 -19.212717
v 157.203613 15.439499 -26.923101
v 141.803558 -2.539482 -24.553467
v 137.836029 -10.329467 -10.631651
v 144.301361 -28.206387 0.637646
v 176.939590 -4.617887 0.695772
v 177.655914 -4.773283 1.191194
v 106.417831 -20.917564 0.885636
v 121.679565 -18.248091 1.565315
v 134.538162 -15.647391 1.542951
v 156.828995 -14.876065 3.335428
v 185.831345 -11.976789 3.029793
v 183.613968 -10.610791 0.450623
v 173.766449 -1.232911 1.887936
v 181.821228 -2.579710 0.800754
v 170.141876 18.826641 1.099001
v 157.262451 17.952778 1.640086
v 148.161728 14.156095 -0.812248
v 122.301224 14.419053 1.733553
v 139.976746 11.436241 -0.576594
v 106.182907 13.281432 1.234404
v 168.166718 -10.629531 4.744125
v 201.160767 -14.794418 3.618217
v 186.730103 -14.025418 3.865886
v 191.729019 -12.952538 3.697881
v 189.025497 -13.212382 4.411670
v 196.309036 -14.969509 19.214794
v 160.367706 -2.804980 20.417976
v 157.939590 16.216501 18.907473
v 167.854294 16.633636 20.718044
v 168.716354 -0.021773 14.125946
v 140.680832 -25.889536 13.575230
v 152.113937 -33.788120 20.527998
v 171.680481 8.821878 0.939174
v 175.168228 -3.569434 0.704026
v 179.647324 15.699962 2.024109
v 187.303558 14.005404 11.954350
v 153.033310 -36.093807 3.841224
v 152.412247 -39.049068 0.353894
v 154.210587 -39.197174 -3.695212
v 150.377701 -33.097748 -1.126592
v 147.230606 -30.802862 7.335161
v 143.796402 -25.672642 8.771420
v 151.559998 -36.878479 2.476531
v 144.872849 -28.603827 -2.620097
v 150.839142 -36.977451 3.309689
v 214.633911 7.872611 16.666668
v 197.108322 5.589891 16.089594
v 205.404343 3.314620 2.205694
v 208.183029 13.867641 12.558769
v 205.592316 9.701897 0.939755
v 195.245850 16.970709 15.663613
v 192.300125 8.695171 0.107394
v 184.487686 17.478016 14.359958
v 183.374649 12.459403 4.744125
v 201.160767 -14.794418 4.744125
v 201.160767 -14.794418 5.227116
v 208.900040 -14.069932 4.810375
v 213.638947 -6.923215 4.744125
v 201.160767 -14.794418 14.867311
v 191.604416 6.239368 14.421831
v 184.203156 6.090257 14.346697
v 196.963211 -8.194088 1.107076
v 130.156189 -17.189331 0.738343
v 122.447784 -18.649937 1.153490
v 124.802803 15.696212 1.477824
v 132.222595 13.673364 6.776291
v 74.903755 -2.446779 8.725301
v 69.154198 -3.757826 7.010632
v 71.145409 -3.400817 8.676223
v 32.960918 5.902689 9.836820
v 17.857468 10.464281 9.512791
v 0.182999 12.117992 6.221872
v 54.433201 4.157814 9.512791
v 0.182999 12.117992 19.428011
v 0.183019 14.974168 30.979523
v 0.183030 -12.063194 15.251853
v 0.183022 -16.765938 24.521566
v 1.156544 -22.241486 1.263264
v 127.960968 11.666554 -0.863823
v 111.534386 11.108443 0.953095
v 109.528427 -18.670532 0.752956
v 99.772812 4.641212 -0.863823
v 111.534386 11.108443 6.857306
v 79.008667 -3.180201 29.269648
v 0.183028 -2.819639 24.770546
v 0.183037 6.516337 8.765837
v 6.437103 12.801678 9.830547
v 0.183005 2.038867 11.642476
v 0.183008 -8.122031 9.173741
v 4.399239 1.765411 25.941261
v 4.353193 6.657080 5.573887
v 144.555450 -25.654476 5.369945
v 145.840256 -25.084188 -10.689606
v 143.583145 -30.378019 -1.933825
v 145.663879 -27.039833 -2.651077
v 162.171906 -61.994400 6.024319
v 164.176254 -58.495083 13.369320
v 164.331772 -56.530582 13.580562
v 163.072205 -57.144211 7.880744
v 144.608078 -24.726147 10.072536
v 145.979736 -23.551825 28.576239
v 148.141830 -17.363447 36.599720
v 166.486969 -49.059624 18.095173
v 164.525681 -55.091270 18.322149
v 163.367645 -55.600605 15.930444
v 163.220169 -56.377743 10.297238
v 144.814636 -24.048340 0.637646
v 176.939590 -4.617887 0.695772
v 177.655914 -4.773283 4.744125
v 201.160767 -14.794418 2.550090
v 180.358688 -8.313794 12.589026
v 197.037521 -8.652925 12.589026
v 197.037521 -8.652925 18.428038
v 158.670044 6.621470 1.805623
v 145.608047 -14.333576 2.768925
v 181.269485 -9.752569 9.805787
v 194.261520 14.985866 5.595666
v 195.071976 17.602108 23.264036
v 156.802521 13.866914 20.417976
v 157.939590 16.216501 29.342413
v 139.946152 0.666266 28.824652
v 135.351913 -6.105661 19.403748
v 139.746841 -25.944162 0.841157
v 165.541061 23.514330 0.786376
v 169.920074 20.287071 1.057824
v 157.517426 20.636818 0.653228
v 175.835876 20.397924 0.654192

vt 0.015372 0.345964
vt 0.117241 0.009131
vt 0.113227 0.332024
vt 0.216502 0.009131
vt 0.204833 0.344827
vt 0.358842 0.009131
vt 0.364577 0.336704
vt 0.446701 0.009131
vt 0.447425 0.933119
vt 0.593742 0.933121
vt 0.618404 0.985838
vt 0.715618 0.985844
vt 0.990932 0.985843
vt 0.897522 0.985838
vt 0.747988 0.992489
vt 0.764829 0.985846
vt 0.832420 0.967018
vt 0.659674 0.009128
vt 0.543960 0.317817
vt 0.523109 0.319884
vt 0.599650 0.568546
vt 0.929547 0.677093
vt 0.851322 0.715408
vt 0.764123 0.702402
vt 0.651168 0.327834
vt 0.675031 0.324849
vt 0.612018 0.006814
vt 0.629784 0.009749
vt 0.689763 0.738848
vt 0.380552 0.992895
vt 0.366349 0.992553
vt 0.340295 0.663907
vt 0.564540 0.474432
vt 0.938419 0.475187
vt 0.968473 0.985846
vt 0.806617 0.983624
vt 0.687121 0.484536
vt 0.930852 0.338729
vt 0.297175 0.009132
vt 0.287936 0.004170
vt 0.015372 0.384597
vt 0.976716 0.383312
vt 0.947194 0.207611
vt 0.015372 0.145907
vt 0.015505 0.207050
vt 0.116806 0.146881
vt 0.116035 0.161845
vt 0.216504 0.222968
vt 0.367862 0.151365
vt 0.366786 0.456284
vt 0.317931 0.778097
vt 0.593976 0.878014
vt 0.593886 0.777690
vt 0.670334 0.874280
vt 0.633186 0.760728
vt 0.761059 0.828057
vt 0.713978 0.757784
vt 0.959476 0.793030
vt 0.980716 0.271223
vt 0.015433 0.070183
vt 0.015401 0.071289
vt 0.116907 0.083881
vt 0.212633 0.077710
vt 0.365558 0.074996
vt 0.447476 0.935633
vt 0.756311 0.904388
vt 0.989453 0.718928
vt 0.721084 0.716938
vt 0.670888 0.700492
vt 0.594003 0.275265
vt 0.447135 0.282421
vt 0.367722 0.271352
vt 0.216690 0.271810
vt 0.117868 0.157288
vt 0.446389 0.220589
vt 0.442574 0.905607
vt 0.905393 0.820707
vt 0.894405 0.955876
vt 0.757542 0.901062
vt 0.839402 0.825144
vt 0.845638 0.599512
vt 0.942902 0.932163
vt 0.664730 0.772922
vt 0.850870 0.725419
vt 0.808354 0.729139
vt 0.931851 0.625822
vt 0.930289 0.727286
vt 0.871878 0.669977
vt 0.893493 0.671612
vt 0.918857 0.823155
vt 0.785118 0.537798
vt 0.226878 0.561236
vt 0.394579 0.478281
vt 0.354109 0.502518
vt 0.316945 0.514595
vt 0.263796 0.503211
vt 0.367583 0.627584
vt 0.230834 0.649653
vt 0.379779 0.634294
vt 0.315305 0.628888
vt 0.269590 0.639524
vt 0.349561 0.668983
vt 0.234423 0.695693
vt 0.368010 0.672610
vt 0.314438 0.670237
vt 0.270081 0.681539
vt 0.344255 0.778583
vt 0.224293 0.803672
vt 0.335325 0.787586
vt 0.301967 0.780890
vt 0.263342 0.812668
vt 0.210620 0.796119
vt 0.172606 0.822966
vt 0.295507 0.815842
vt 0.238665 0.844387
vt 0.189955 0.869890
vt 0.327484 0.852300
vt 0.290423 0.853730
vt 0.240800 0.905414
vt 0.247033 0.911017
vt 0.317552 0.907780
vt 0.286378 0.959622
vt 0.240580 0.964114
vt 0.296859 0.966409
vt 0.269185 0.071377
vt 0.546310 0.180688
vt 0.541459 0.179838
vt 0.607956 0.067795
vt 0.613950 0.009138
vt 0.616856 0.261405
vt 0.603354 0.257235
vt 0.532546 0.835919
vt 0.202944 0.834961
vt 0.224603 0.866230
vt 0.190968 0.865828
vt 0.205438 0.876130
vt 0.229804 0.874295
vt 0.223532 0.881284
vt 0.199238 0.894679
vt 0.195899 0.880736
vt 0.208429 0.909739
vt 0.227570 0.545270
vt 0.268212 0.553054
vt 0.317940 0.557096
vt 0.365895 0.930058
vt 0.246424 0.937247
vt 0.277885 0.939730
vt 0.309864 0.940173
vt 0.225585 0.390982
vt 0.787555 0.498832
vt 0.874833 0.513340
vt 0.757565 0.514633
vt 0.802937 0.545852
vt 0.764622 0.610427
vt 0.832038 0.596016
vt 0.785836 0.576790
vt 0.723929 0.646648
vt 0.817478 0.458687
vt 0.699898 0.662702
vt 0.756500 0.645013
vt 0.652718 0.610022
vt 0.667210 0.382782
vt 0.650598 0.619253
vt 0.579884 0.583540
vt 0.600085 0.352779
vt 0.617497 0.522061
vt 0.693927 0.491473
vt 0.694757 0.487541
vt 0.627923 0.465449
vt 0.638342 0.330338
vt 0.595776 0.354023
vt 0.571105 0.587413
vt 0.544221 0.626805
vt 0.521409 0.416486
vt 0.598653 0.425842
vt 0.892857 0.437529
vt 0.868082 0.489650
vt 0.913663 0.563224
vt 0.893375 0.617705
vt 0.866103 0.448600
vt 0.839709 0.415889
vt 0.758305 0.411054
vt 0.885607 0.428766
vt 0.811655 0.462393
vt 0.796748 0.446808
vt 0.809852 0.507385
vt 0.833065 0.559185
vt 0.853812 0.550926
vt 0.806881 0.524262
vt 0.693718 0.501880
vt 0.638143 0.519685
vt 0.634311 0.524625
vt 0.599264 0.483421
vt 0.583420 0.485786
vt 0.759334 0.450061
vt 0.775424 0.430273
vt 0.733105 0.392611
vt 0.848777 0.413589
vt 0.846734 0.423948
vt 0.819159 0.486139
vt 0.758964 0.465981
vt 0.697031 0.447967
vt 0.650951 0.389047
vt 0.762163 0.349335
vt 0.680762 0.216885
vt 0.690652 0.349097
vt 0.680832 0.216708
vt 0.690824 0.180878
vt 0.821356 0.243204
vt 0.732018 0.272191
vt 0.816821 0.242771
vt 0.731934 0.132192
vt 0.624012 0.194182
vt 0.621146 0.197360
vt 0.681075 0.134988
vt 0.683969 0.260131
vt 0.616239 0.263078
vt 0.678027 0.070469
vt 0.686958 0.068229
vt 0.626962 0.908606
vt 0.367934 0.858407
vt 0.556535 0.853158
vt 0.374079 0.918238
vt 0.552133 0.740148
vt 0.560708 0.796440
vt 0.385075 0.796828
vt 0.562997 0.672311
vt 0.558928 0.946302
vt 0.365559 0.919663
vt 0.586697 0.860964
vt 0.586690 0.794021
vt 0.586705 0.739716
vt 0.586697 0.690572
vt 0.586683 0.761245
vt 0.051775 0.756194
vt 0.106719 0.818449
vt 0.142906 0.772417
vt 0.105338 0.761411
vt 0.051763 0.920227
vt 0.051802 0.927527
vt 0.099522 0.902814
vt 0.125860 0.927566
vt 0.099512 0.919825
vt 0.051786 0.992843
vt 0.051860 0.358473
vt 0.336497 0.442355
vt 0.337346 0.992841
vt 0.051864 0.971264
vt 0.147524 0.938511
vt 0.162368 0.971098
vt 0.147795 0.350780
vt 0.265510 0.992901
vt 0.199831 0.458026
vt 0.265414 0.969530
vt 0.219488 0.992903
vt 0.200106 0.992886
vt 0.239425 0.685930
vt 0.051756 0.684175
vt 0.116893 0.686106
vt 0.165974 0.685592
vt 0.116283 0.685488
vt 0.051743 0.652008
vt 0.084441 0.853232
vt 0.339785 0.910410
vt 0.339567 0.796330
vt 0.342317 0.949335
vt 0.338742 0.732288
vt 0.416394 0.796106
vt 0.418643 0.854508
vt 0.411634 0.908765
vt 0.402221 0.945734
vt 0.402616 0.992672
vt 0.403587 0.992774
vt 0.520993 0.737072
vt 0.534382 0.796746
vt 0.529879 0.855645
vt 0.523706 0.915790
vt 0.518691 0.981522
vt 0.101598 0.961717
vt 0.051963 0.961678
vt 0.051987 0.981394
vt 0.101664 0.838100
vt 0.095974 0.838240
vt 0.095936 0.841707
vt 0.051703 0.841819
vt 0.051701 0.070188
vt 0.015487 0.271249
vt 0.015433 0.568846
vt 0.948840 0.566622
vt 0.978600 0.882662
vt 0.245075 0.879376
vt 0.289035 0.943686
vt 0.804602 0.946861
vt 0.835635 0.948360
vt 0.870197 0.883161
vt 0.801000 0.877788
vt 0.733949 0.877717
vt 0.686758 0.492168
vt 0.792635 0.469470
vt 0.763240 0.609663
vt 0.666136 0.563750
vt 0.684302 0.582305
vt 0.600716 0.543007
vt 0.615890 0.543167
vt 0.564956 0.560652
vt 0.606927 0.585525
vt 0.676109 0.620044
vt 0.770378 0.671327
vt 0.650268 0.642482
vt 0.570099 0.275775
vt 0.294842 0.209440
vt 0.294011 0.154048
vt 0.295384 0.079439
vt 0.289324 0.931222
vt 0.708985 0.617906
vt 0.441721 0.656049
vt 0.442765 0.635413
vt 0.388840 0.462393
vt 0.796748 0.492052
vt 0.193754 0.540966
vt 0.206834 0.627215
vt 0.212218 0.669235
vt 0.212335 0.771940
vt 0.200053 0.384597
vt 0.976716 0.383312
vt 0.947194 0.207611
vt 0.015372 0.145907
vt 0.015505 0.207050
vt 0.116806 0.146881
vt 0.116035 0.161845
vt 0.216504 0.222968
vt 0.367862 0.151365
vt 0.366786 0.456284
vt 0.317931 0.778097
vt 0.593976 0.878014
vt 0.593886 0.777690
vt 0.670334 0.874280
vt 0.633186 0.760728
vt 0.761059 0.828057
vt 0.713978 0.757784
vt 0.959476 0.793030
vt 0.980716 0.271223
vt 0.015433 0.070183
vt 0.015401 0.071289
vt 0.116907 0.083881
vt 0.212633 0.077710
vt 0.365558 0.074996
vt 0.447476 0.935633
vt 0.756311 0.904388
vt 0.989453 0.718928
vt 0.721084 0.716938
vt 0.670888 0.700492
vt 0.594003 0.275265
vt 0.447135 0.282421
vt 0.367722 0.271352
vt 0.216690 0.271810
vt 0.117868 0.157288
vt 0.446389 0.220589
vt 0.442574 0.905607
vt 0.905393 0.820707
vt 0.894405 0.955876
vt 0.757542 0.901062
vt 0.839402 0.825144
vt 0.845638 0.599512
vt 0.942902 0.932163
vt 0.664730 0.772922
vt 0.850870 0.725419
vt 0.808354 0.729139
vt 0.931851 0.625822
vt 0.930289 0.727286
vt 0.871878 0.669977
vt 0.893493 0.671612
vt 0.918857 0.823155
vt 0.785118 0.537798
vt 0.226878 0.561236
vt 0.394579 0.478281
vt 0.354109 0.502518
vt 0.316945 0.514595
vt 0.263796 0.503211
vt 0.367583 0.627584
vt 0.230834 0.649653
vt 0.379779 0.634294
vt 0.315305 0.628888
vt 0.269590 0.639524
vt 0.349561 0.668983
vt 0.234423 0.695693
vt 0.368010 0.672610
vt 0.314438 0.670237
vt 0.270081 0.681539
vt 0.344255 0.778583
vt 0.224293 0.803672
vt 0.335325 0.787586
vt 0.301967 0.780890
vt 0.263342 0.812668
vt 0.210620 0.796119
vt 0.172606 0.822966
vt 0.295507 0.815842
vt 0.238665 0.844387
vt 0.189955 0.869890
vt 0.327484 0.852300
vt 0.290423 0.853730
vt 0.240800 0.905414
vt 0.247033 0.911017
vt 0.317552 0.907780
vt 0.286378 0.959622
vt 0.240580 0.964114
vt 0.296859 0.966409
vt 0.269185 0.071377
vt 0.546310 0.180688
vt 0.541459 0.179838
vt 0.607956 0.067795
vt 0.613950 0.009138
vt 0.616856 0.261405
vt 0.603354 0.257235
vt 0.532546 0.835919
vt 0.202944 0.834961
vt 0.224603 0.866230
vt 0.190968 0.865828
vt 0.205438 0.876130
vt 0.229804 0.874295
vt 0.223532 0.881284
vt 0.199238 0.894679
vt 0.195899 0.880736
vt 0.208429 0.909739
vt 0.227570 0.545270
vt 0.268212 0.553054
vt 0.317940 0.557096
vt 0.365895 0.930058
vt 0.246424 0.937247
vt 0.277885 0.939730
vt 0.309864 0.940173
vt 0.225585 0.390982
vt 0.787555 0.498832
vt 0.874833 0.513340
vt 0.757565 0.514633
vt 0.802937 0.545852
vt 0.764622 0.610427
vt 0.832038 0.596016
vt 0.785836 0.576790
vt 0.723929 0.646648
vt 0.817478 0.458687
vt 0.699898 0.662702
vt 0.756500 0.645013
vt 0.652718 0.610022
vt 0.667210 0.382782
vt 0.650598 0.619253
vt 0.579884 0.583540
vt 0.600085 0.352779
vt 0.617497 0.522061
vt 0.693927 0.491473
vt 0.694757 0.487541
vt 0.627923 0.465449
vt 0.638342 0.330338
vt 0.595776 0.354023
vt 0.571105 0.587413
vt 0.544221 0.626805
vt 0.521409 0.416486
vt 0.598653 0.425842
vt 0.892857 0.437529
vt 0.868082 0.489650
vt 0.913663 0.563224
vt 0.893375 0.617705
vt 0.866103 0.448600
vt 0.839709 0.415889
vt 0.758305 0.411054
vt 0.885607 0.428766
vt 0.811655 0.462393
vt 0.796748 0.446808
vt 0.809852 0.507385
vt 0.833065 0.559185
vt 0.853812 0.550926
vt 0.806881 0.524262
vt 0.693718 0.501880
vt 0.638143 0.519685
vt 0.634311 0.524625
vt 0.599264 0.483421
vt 0.583420 0.485786
vt 0.759334 0.450061
vt 0.775424 0.430273
vt 0.733105 0.392611
vt 0.848777 0.413589
vt 0.846734 0.423948
vt 0.819159 0.486139
vt 0.758964 0.465981
vt 0.697031 0.447967
vt 0.650951 0.389047
vt 0.762163 0.349335
vt 0.680762 0.216885
vt 0.690652 0.349097
vt 0.680832 0.216708
vt 0.690824 0.180878
vt 0.821356 0.243204
vt 0.732018 0.272191
vt 0.816821 0.242771
vt 0.731934 0.132192
vt 0.624012 0.194182
vt 0.621146 0.197360
vt 0.681075 0.134988
vt 0.683969 0.260131
vt 0.616239 0.263078
vt 0.678027 0.070469
vt 0.686958 0.068229
vt 0.626962 0.908606
vt 0.367934 0.858407
vt 0.556535 0.853158
vt 0.374079 0.918238
vt 0.552133 0.740148
vt 0.560708 0.796440
vt 0.385075 0.796828
vt 0.562997 0.672311
vt 0.558928 0.946302
vt 0.365559 0.919663
vt 0.586697 0.860964
vt 0.586690 0.794021
vt 0.586705 0.739716
vt 0.586697 0.690572
vt 0.586683 0.761245
vt 0.051775 0.756194
vt 0.106719 0.818449
vt 0.142906 0.772417
vt 0.105338 0.761411
vt 0.051763 0.920227
vt 0.051802 0.927527
vt 0.099522 0.902814
vt 0.125860 0.927566
vt 0.099512 0.919825
vt 0.051786 0.992843
vt 0.051860 0.358473
vt 0.336497 0.442355
vt 0.337346 0.992841
vt 0.051864 0.971264
vt 0.147524 0.938511
vt 0.162368 0.971098
vt 0.147795 0.350780
vt 0.265510 0.992901
vt 0.199831 0.458026
vt 0.265414 0.969530
vt 0.219488 0.992903
vt 0.200106 0.992886
vt 0.239425 0.685930
vt 0.051756 0.684175
vt 0.116893 0.686106
vt 0.165974 0.685592
vt 0.116283 0.685488
vt 0.051743 0.652008
vt 0.084441 0.853232
vt 0.339785 0.910410
vt 0.339567 0.796330
vt 0.342317 0.949335
vt 0.338742 0.732288
vt 0.416394 0.796106
vt 0.418643 0.854508
vt 0.411634 0.908765
vt 0.402221 0.945734
vt 0.402616 0.992672
vt 0.403587 0.992774
vt 0.520993 0.737072
vt 0.534382 0.796746
vt 0.529879 0.855645
vt 0.523706 0.915790
vt 0.518691 0.981522
vt 0.101598 0.961717
vt 0.051963 0.961678
vt 0.051987 0.981394
vt 0.101664 0.838100
vt 0.095974 0.838240
vt 0.095936 0.841707
vt 0.051703 0.841819
vt 0.051701 0.470724
vt 0.572995 0.470750
vt 0.553071 0.482525
vt 0.438852 0.482524
vt 0.417293 0.521605
vt 0.173975 0.531869
vt 0.173974 0.646050
vt 0.173986 0.521597
vt 0.011822 0.531724
vt 0.011822 0.582047
vt 0.011823 0.646106
vt 0.011823 0.519388
vt 0.555032 0.569605
vt 0.560922 0.574752
vt 0.443419 0.517640
vt 0.440878 0.478738
vt 0.173977 0.351387
vt 0.173952 0.489361
vt 0.011822 0.478792
vt 0.011822 0.351497
vt 0.011821 0.364122
vt 0.545842 0.368484
vt 0.434982 0.453047
vt 0.573044 0.580808
vt 0.173978 0.070188
vt 0.015487 0.271249
vt 0.015433 0.568846
vt 0.948840 0.566622
vt 0.978600 0.882662
vt 0.245075 0.879376
vt 0.289035 0.943686
vt 0.804602 0.946861
vt 0.835635 0.948360
vt 0.870197 0.883161
vt 0.801000 0.877788
vt 0.733949 0.877717
vt 0.686758 0.492168
vt 0.792635 0.469470
vt 0.763240 0.609663
vt 0.666136 0.563750
vt 0.684302 0.582305
vt 0.600716 0.543007
vt 0.615890 0.543167
vt 0.564956 0.560652
vt 0.606927 0.585525
vt 0.676109 0.620044
vt 0.770378 0.671327
vt 0.650268 0.642482
vt 0.570099 0.275775
vt 0.294842 0.209440
vt 0.294011 0.154048
vt 0.295384 0.079439
vt 0.289324 0.931222
vt 0.708985 0.617906
vt 0.441721 0.656049
vt 0.442765 0.635413
vt 0.388840 0.462393
vt 0.796748 0.492052
vt 0.193754 0.540966
vt 0.206834 0.627215
vt 0.212218 0.669235
vt 0.212335 0.771940
vt 0.200053 0.205131
vt 0.835706 0.190344
vt 0.886456 0.253978
vt 0.905642 0.165393
vt 0.825030 0.179709
vt 0.932826 0.268140
vt 0.989316 0.177236
vt 0.989697 0.258128
vt 0.932663 0.312497
vt 0.906452 0.382253
vt 0.880354 0.358968
vt 0.831043 0.330684
vt 0.982713 0.010698
vt 0.853729 0.010698
vt 0.901000 0.092485
vt 0.912068 0.096626
vt 0.799217 0.010698
vt 0.793764 0.099929
vt 0.863990 0.283250
vt 0.827531 0.085410
vt 0.972708 0.010698
vt 0.970167 0.253978
vt 0.905531 0.190344
vt 0.886345 0.205131
vt 0.835595 0.165393
vt 0.824920 0.179709
vt 0.932715 0.177236
vt 0.989586 0.268140
vt 0.989206 0.258128
vt 0.932553 0.358968
vt 0.830932 0.382253
vt 0.880243 0.312497
vt 0.906341 0.330684
vt 0.982602 0.092485
vt 0.911957 0.096626
vt 0.799106 0.099929
vt 0.863880 0.283250
vt 0.827421 0.085410
vt 0.972598 0.175172
vt 0.775494 0.093112
vt 0.741598 0.009017
vt 0.775817 0.009006
vt 0.704429 0.174662
vt 0.704298 0.479668
vt 0.212520 0.506908
vt 0.400902 0.453262
vt 0.396830 0.465384
vt 0.257818 0.835094
vt 0.330970 0.892454
vt 0.230567 0.186935
vt 0.479927 0.880529
vt 0.182095 0.893055
vt 0.170259 0.877180
vt 0.176410 0.881269
vt 0.139333 0.857105
vt 0.146744 0.826277
vt 0.162691 0.857436
vt 0.183642 0.841000
vt 0.154764 0.899144
vt 0.153584 0.416220
vt 0.731003 0.401999
vt 0.693277 0.643981
vt 0.758214 0.418047
vt 0.622568 0.384883
vt 0.586537 0.412098
vt 0.908995 0.412098
vt 0.908995 0.412098
vt 0.908995 0.564157
vt 0.684536 0.540526
vt 0.618234 0.462393
vt 0.796748 0.992802
vt 0.550782 0.992745
vt 0.586682 0.682905
vt 0.009971 0.838457
vt 0.007992 0.922030
vt 0.008038 0.992822
vt 0.008039 0.761034
vt 0.007949 0.439313
vt 0.384594 0.361422
vt 0.384476 0.353393
vt 0.206974 0.455821
vt 0.210723 0.408897
vt 0.178982 0.666717
vt 0.417016 0.666655
vt 0.385233 0.666953
vt 0.533331 0.992837
vt 0.138339 0.992848
vt 0.101150 0.958654
vt 0.008047 0.992846
vt 0.101309 0.992836
vt 0.138509 0.354036
vt 0.304271 0.449238
vt 0.308107 0.474432
vt 0.938419 0.475187
vt 0.968473 0.985844
vt 0.990932 0.462393
vt 0.796748 0.462393
vt 0.796748 0.195411
vt 0.367448 0.661633
vt 0.515097 0.616277
vt 0.516596 0.544444
vt 0.187675 0.503306
vt 0.181018 0.626938
vt 0.192479 0.668820
vt 0.191055 0.768678
vt 0.183740 0.475187
vt 0.968473 0.474432
vt 0.938419 0.004170
vt 0.015372 0.009131
vt 0.113227 0.009131
vt 0.204833 0.009131
vt 0.364577 0.985838
vt 0.747988 0.985838
vt 0.715618 0.933119
vt 0.593742 0.933121
vt 0.618404 0.336704
vt 0.446701 0.344827
vt 0.358842 0.338729
vt 0.297175 0.345964
vt 0.117241 0.332024
vt 0.216502 0.345808
vt 0.015372 0.009131
vt 0.447425 0.985844
vt 0.990932 0.992489
vt 0.764829 0.985846
vt 0.832420 0.985846
vt 0.806617 0.985843
vt 0.897522 0.479668
vt 0.212520 0.506908
vt 0.400902 0.453262
vt 0.396830 0.465384
vt 0.257818 0.835094
vt 0.330970 0.892454
vt 0.230567 0.186935
vt 0.479927 0.009128
vt 0.543960 0.317817
vt 0.523109 0.319884
vt 0.599650 0.880529
vt 0.182095 0.877180
vt 0.176410 0.893055
vt 0.170259 0.881269
vt 0.139333 0.857105
vt 0.146744 0.826277
vt 0.162691 0.857436
vt 0.183642 0.841000
vt 0.154764 0.899144
vt 0.153584 0.677093
vt 0.851322 0.401999
vt 0.693277 0.416220
vt 0.731003 0.715408
vt 0.764123 0.643981
vt 0.758214 0.702402
vt 0.651168 0.418047
vt 0.622568 0.663907
vt 0.564540 0.384883
vt 0.586537 0.412098
vt 0.908995 0.412098
vt 0.908995 0.484536
vt 0.930852 0.568546
vt 0.929547 0.412098
vt 0.908995 0.564157
vt 0.684536 0.540526
vt 0.618234 0.462393
vt 0.796748 0.327834
vt 0.675031 0.324849
vt 0.612018 0.006814
vt 0.629784 0.009749
vt 0.689763 0.992802
vt 0.550782 0.992745
vt 0.586682 0.682905
vt 0.009971 0.838457
vt 0.007992 0.922030
vt 0.008038 0.992822
vt 0.008039 0.761034
vt 0.007949 0.439313
vt 0.384594 0.361422
vt 0.384476 0.353393
vt 0.206974 0.455821
vt 0.210723 0.408897
vt 0.178982 0.992553
vt 0.340295 0.992895
vt 0.366349 0.738848
vt 0.380552 0.666717
vt 0.417016 0.666655
vt 0.385233 0.666953
vt 0.533331 0.992837
vt 0.138339 0.992848
vt 0.101150 0.958654
vt 0.008047 0.992846
vt 0.101309 0.992836
vt 0.138509 0.449238
vt 0.308107 0.354036
vt 0.304271 0.483786
vt 0.572990 0.483792
vt 0.562999 0.580766
vt 0.570860 0.518518
vt 0.564963 0.585962
vt 0.433401 0.517868
vt 0.430999 0.495615
vt 0.429047 0.495624
vt 0.417419 0.505984
vt 0.173978 0.453048
vt 0.562999 0.351474
vt 0.555793 0.356094
vt 0.424865 0.464887
vt 0.429038 0.464878
vt 0.417372 0.506195
vt 0.011821 0.489253
vt 0.173976 0.475187
vt 0.968473 0.474432
vt 0.938419 0.985844
vt 0.990932 0.967018
vt 0.659674 0.462393
vt 0.796748 0.462393
vt 0.796748 0.195411
vt 0.367448 0.009132
vt 0.287936 0.983624
vt 0.687121 0.661633
vt 0.515097 0.616277
vt 0.516596 0.544444
vt 0.187675 0.503306
vt 0.181018 0.626938
vt 0.192479 0.668820
vt 0.191055 0.768678
vt 0.183740 0.010698
vt 0.853618 0.010727
vt 0.900889 0.010703
vt 0.793653 0.010797
vt 0.970056 1.000000

f 584/584 829/829 828/828
f 828/828 583/583 584/584
f 584/584 572/572 830/830
f 830/830 829/829 584/584
f 573/573 830/830 572/572
f 830/830 573/573 831/831
f 591/591 836/836 572/572
f 836/836 591/591 835/835
f 573/573 572/572 836/836
f 836/836 837/837 573/573
f 824/824 571/571 581/581
f 827/827 581/581 570/570
f 592/592 571/571 833/833
f 571/571 833/833 592/592
f 833/833 571/571 827/827
f 1/1 35/35 43/43
f 34/34 42/42 43/43
